<svg xmlns="http://www.w3.org/2000/svg" width="1024" height="568"><path fill="#7c7b76" d="M0 0h1024v568h-1024z"/><g transform="scale(4) translate(.5 .5)"><ellipse fill="#060300" fill-opacity=".502" rx="1" ry="1" transform="matrix(-4.11 33.149 -252.96 -31.365 8.183 123.049)"/><ellipse fill="#fff8e7" fill-opacity=".502" rx="1" ry="1" transform="matrix(7.241 -27.567 44.952 11.807 51.222 53.294)"/><ellipse fill="#d8dee5" fill-opacity=".502" cx="181" cy="82" rx="62" ry="33"/><ellipse fill="#5f5a4f" fill-opacity=".502" rx="1" ry="1" transform="matrix(-2.925 -30.318 144.045 -13.898 135.952 0)"/><ellipse fill="#eff4f5" fill-opacity=".502" rx="1" ry="1" transform="matrix(-1.762 -29.301 12.721 -.765 80.478 67.177)"/><path fill="#292513" fill-opacity=".502" d="M-6.38 84.007l58 .986-1.241 73-58-.986z"/><ellipse fill="#a2a8a9" fill-opacity=".502" cx="241" cy="65" rx="47" ry="47"/><ellipse fill="#b1ac9d" fill-opacity=".502" rx="1" ry="1" transform="matrix(-59.967 17.821 -8.516 -28.655 17.21 50.157)"/><ellipse fill="#80827e" fill-opacity=".502" cx="180" cy="115" rx="37" ry="12"/><ellipse fill="#5d5e5a" fill-opacity=".502" cx="66" cy="99" rx="48" ry="18"/><ellipse fill="#28312c" fill-opacity=".502" cx="245" cy="135" rx="19" ry="19"/><path fill="#cdcece" fill-opacity=".502" d="M158 60h23v60h-23z"/><path fill="#9b9898" fill-opacity=".502" d="M228 59l-121 8 82-42z"/><ellipse fill="#353128" fill-opacity=".502" cx="98" cy="116" rx="6" ry="59"/><path fill="#f1fdff" fill-opacity=".502" d="M212 71h9v27h-9z"/><path fill="#9ba6b4" fill-opacity=".502" d="M90.104 77.827l-21.288 9.652 2.359 21.857 15.831-2.501z"/><path fill="#343125" fill-opacity=".502" d="M95.621 93.293l47.127 19.522 52.904 44.185-92.663-5.774z"/><path fill="#626561" fill-opacity=".502" d="M177 110h63v24h-63z"/><path fill="#71706f" fill-opacity=".502" d="M100 27h30v69h-30z"/><path fill="#ebe7de" fill-opacity=".502" d="M60 42h33v35h-33z"/><ellipse fill="#b1b1a8" fill-opacity=".502" cx="25" cy="76" rx="22" ry="7"/><ellipse fill="#605b57" fill-opacity=".502" rx="1" ry="1" transform="matrix(-17.496 -12.451 20.071 -28.204 118.967 18.36)"/><ellipse fill="#84827d" fill-opacity=".502" cx="242" cy="59" rx="27" ry="17"/><path fill="#fcffff" fill-opacity=".502" d="M231.76 95.405l-4.995.175-.525-14.985 4.995-.175z"/><path fill="#98988d" fill-opacity=".502" d="M14 82l-30-33 51-31z"/><path fill="#8e969f" fill-opacity=".502" d="M116 58h21v44h-21z"/><ellipse fill="#2a281e" fill-opacity=".502" cx="10" cy="138" rx="50" ry="41"/><path fill="#524f3e" fill-opacity=".502" d="M-5.95 21.55l-4.68-29.64 34.58-5.46 4.68 29.64z"/><ellipse fill="#585a59" fill-opacity=".502" rx="1" ry="1" transform="matrix(-1.277 30.369 -3.473 -.146 153.929 116.914)"/><ellipse fill="#9ea4a4" fill-opacity=".502" cx="250" cy="103" rx="20" ry="14"/><path fill="#e3e9ec" fill-opacity=".502" d="M158 84h19v14h-19z"/><path fill="#828584" fill-opacity=".502" d="M165 103l46 16-55-1z"/><path fill="#c9c6c6" fill-opacity=".502" d="M212.3 67.388l-25.444-7.316-40.791 4.815-7.036 16.221z"/><path fill="#626464" fill-opacity=".502" d="M62.989 96.441l-1.182 28.597 26.485-3.255-.153-19.931z"/><path fill="#d3d0c6" fill-opacity=".502" d="M91.258 80.221l-7.858 6.482-48.973-21.189 5.873-21.394z"/><path fill="#4c4a44" fill-opacity=".502" d="M125.973 103.26l65.272 29.107-10.382 11.529-94.131-46.066z"/><path fill="#464134" fill-opacity=".502" d="M-16 84l57-2 40 62z"/><path fill="#adbed4" fill-opacity=".502" d="M133 79h18v28h-18z"/><path fill="#50544e" fill-opacity=".502" d="M210.842-16l9.481 38.567 18.775-12.383 31.901-13.772z"/><path fill="#979284" fill-opacity=".502" d="M0 24h89v11h-89z"/><path fill="#bab8b3" fill-opacity=".502" d="M178 86h32v23h-32z"/><path fill="#74756f" fill-opacity=".502" d="M222.693 99.98l24.616 29.965-80.837-23.799 43.468 4.318z"/><ellipse fill="#2a281f" fill-opacity=".502" rx="1" ry="1" transform="matrix(.188 -7.841 111.916 2.686 83.358 141)"/><path fill="#dfe8ee" fill-opacity=".502" d="M226 74h5v18h-5z"/><path fill="#74716c" fill-opacity=".502" d="M99.372 43.804l97.628-34.861-102.339 56.612-12.097-81.555z"/><path fill="#e7edee" fill-opacity=".502" d="M69 72l24 7v-30z"/><path fill="#36372e" fill-opacity=".502" d="M248 118h8v24h-8z"/><path fill="#d8e2ed" fill-opacity=".502" d="M209.417 77.937l11.976-.84 1.19 16.966-11.976.84z"/><path fill="#959eaa" fill-opacity=".502" d="M125 74h15v31h-15z"/><path fill="#bfb8a9" fill-opacity=".502" d="M19 52l71-12-20-14z"/><path fill="#9c9a99" fill-opacity=".502" d="M143 51l86 15-37-28z"/><path fill="#7b7467" fill-opacity=".502" d="M38.441 5.439l54.207 17.613-3.09 9.51-54.207-17.613z"/><ellipse fill="#787b7a" fill-opacity=".502" rx="1" ry="1" transform="matrix(.913 9.994 -57.943 5.294 205.254 24.526)"/><path fill="#b7b4aa" fill-opacity=".502" d="M13.919 37.896l17.427-3.217-10.037 47.35 45.161-.124z"/><path fill="#c3c5c2" fill-opacity=".502" d="M206 83l23-17h-13z"/><path fill="#aba8a2" fill-opacity=".502" d="M174.704 108.841l-7.088-40.099 46.385 3.276-41.826 13.584z"/><path fill="#969592" fill-opacity=".502" d="M231 61l40 34-36 2z"/><path fill="#a2adb8" fill-opacity=".502" d="M167 112h17v7h-17z"/><ellipse fill="#6b6b67" fill-opacity=".502" rx="1" ry="1" transform="matrix(-24.222 -6.924 .874 -3.056 155.984 117.62)"/><path fill="#3c3a33" fill-opacity=".502" d="M180 157l35-26-78-3z"/><path fill="#d9d1c3" fill-opacity=".502" d="M61.508 58.888l5.4-23.376 15.584 3.6-5.4 23.376z"/><path fill="#898d91" fill-opacity=".502" d="M150 79h7v22h-7z"/><path fill="#d0d0d2" fill-opacity=".502" d="M153.964 70.865l30.006-8.318-4.816 7.325-34.381 10.339z"/><path fill="#7e898d" fill-opacity=".502" d="M221.778 79.951l1.875-5.275 1.623-4.307-.787 29.444z"/><path fill="#39342a" fill-opacity=".502" d="M86.417 88.263l33.425 16.885 11.921 51.852-37.666-68.465z"/><path fill="#6b6352" fill-opacity=".502" d="M28.553 82.468l39.026-.559-12.347 4.648 17.322 22.698z"/><path fill="#9ea5a5" fill-opacity=".502" d="M214.228 101.625l35.494 16.451-15.57-35.332 7.171 11.919z"/><path fill="#221f13" fill-opacity=".502" d="M13.619 154.825l-34.782-37.281 17.544-16.368 34.782 37.281z"/><path fill="#716e67" fill-opacity=".502" d="M91.46 97.255l8.085-76.615.995.105-8.085 76.615z"/><path fill="#686560" fill-opacity=".502" d="M207.621-16l24.264 32.034-20.715 12.32-113.827-44.354z"/><path fill="#8a8e8f" fill-opacity=".502" d="M271 11l-58 51-25-28z"/><path fill="#9ca2a1" fill-opacity=".502" d="M250.513 47.68l.327-.662-2.45-13.101-19.796 9.976z"/><path fill="#858480" fill-opacity=".502" d="M110.571 66.452l-35.729-47.764 22.451 39.872 99.928-30.436z"/><path fill="#afb5b9" fill-opacity=".502" d="M219 96l-8 14-33-4z"/><path fill="#828583" fill-opacity=".502" d="M250 47h6v71h-6z"/><path fill="#403f39" fill-opacity=".502" d="M97.419 139.411l-77.067-48.535 53.093 55.94-66.549-28.264z"/><path fill="#5e6666" fill-opacity=".502" d="M212 124h41v8h-41z"/><ellipse fill="#8b8b7d" fill-opacity=".502" rx="1" ry="1" transform="matrix(-13.369 8.988 -5.102 -7.59 10.144 29.852)"/><path fill="#97958f" fill-opacity=".502" d="M216.001 65.355l-23.08 10.784 7.815 16.606-2.906-9.857z"/><path fill="#bdc7d5" fill-opacity=".502" d="M145 75h6v35h-6z"/><path fill="#787a79" fill-opacity=".502" d="M185.504 117.795l-7.11 6.639-24.107-6.616 24.243-1.54z"/><ellipse fill="#4e4f4b" fill-opacity=".502" rx="1" ry="1" transform="matrix(12.293 7.29 -5.066 8.542 68.441 120.118)"/><path fill="#afbcc8" fill-opacity=".502" d="M175 108l-11 5 16 2z"/><path fill="#8c99a9" fill-opacity=".502" d="M131.97 97.74l11.935 11.874-21.948-6.371-1.352-10.773z"/><path fill="#817e75" fill-opacity=".502" d="M68.698 103.845l-17.382-24.619 4.035 6.368 18.176-5.866z"/><path fill="#9ca8b6" fill-opacity=".502" d="M77.425 91.197l14.524 1.566-13.36 3.927-14.067-.499z"/><path fill="#777468" fill-opacity=".502" d="M162 106h13v3h-13z"/><path fill="#252722" fill-opacity=".502" d="M243.548 138.51l27.452-.676-.232 14.998-25.847 4.127z"/><path fill="#b4ab9b" fill-opacity=".502" d="M36.352 27.268l22.308 33.632 2.295-9.589 3.847-22.552z"/><ellipse fill="#6a6555" fill-opacity=".502" cx="203" cy="112" rx="21" ry="2"/><path fill="#706b5c" fill-opacity=".502" d="M76.697-.408l-23.604 19.491-33.596-3.423-2.403-31.66z"/><path fill="#939898" fill-opacity=".502" d="M172.791 78.869l.206 23.318-2.494-1.963-2.766 31.081z"/><path fill="#7d7c79" fill-opacity=".502" d="M101 58h23v37h-23z"/><path fill="#7b7d7a" fill-opacity=".502" d="M243.945 63.127l-10.235-14.535 37.29-5.784v26.481z"/><path fill="#5a5446" fill-opacity=".502" d="M7.168 94.823l55.944-10.148-9.164 23.148-19.56-25.883z"/><path fill="#d4d5d8" fill-opacity=".502" d="M166 79l-2 25-9-33z"/><path fill="#413f38" fill-opacity=".502" d="M125.668 104.77l-22.026-6.314-6.528-11.706-24.258 68.969z"/><path fill="#5e5f5e" fill-opacity=".502" d="M98 98l-23 20 10-22z"/><path fill="#a7a59c" fill-opacity=".502" d="M18.935 80.701l-14.887-21.287 10.021-26.274 20.754 44.218z"/><path fill="#c8d5e2" fill-opacity=".502" d="M211 73l10 24-9 4z"/><path fill="#eff3f7" fill-opacity=".502" d="M168 83h3v15h-3z"/><path fill="#959493" fill-opacity=".502" d="M125.87 79.614l-8.484-8.484 24.745-24.745 8.484 8.484z"/><path fill="#4b4d46" fill-opacity=".502" d="M268-6l-29 15-4-14z"/><path fill="#4c4b46" fill-opacity=".502" d="M183.584 130.824l75.72 9.455-80.651-17.71-39.451 34.431z"/><path fill="#b7b3b0" fill-opacity=".502" d="M151 58h44v6h-44z"/><path stroke="#757877" stroke-opacity=".502" d="M182.253 155.798q-18.372-46.462-15.547-71.425" stroke-width=".5" fill="none"/><path fill="#322e25" fill-opacity=".502" d="M100 128h56v14h-56z"/><path fill="#343127" fill-opacity=".502" d="M41.834 124.747l-26.562 10.233.098-39.741 54.902 46.603z"/><path fill="#f4fbfc" fill-opacity=".502" d="M77 60h10v13h-10z"/><ellipse fill="#c2c9c8" fill-opacity=".502" rx="1" ry="1" transform="matrix(.065 10.795 -1 .006 82.056 67.889)"/><path fill="#7d8486" fill-opacity=".502" d="M195.318 129.328l30.054-33.446 8.662 1.539-16.841 5.071z"/><path fill="#d1dce5" fill-opacity=".502" d="M213 84h10v13h-10z"/><path fill="#504e48" fill-opacity=".502" d="M120.329 130.633l5.523-26.948 59.82 32.561-61.64-23.806z"/><path fill="#64605c" fill-opacity=".502" d="M83 25l155-29-125-12z"/><path fill="#7c8289" fill-opacity=".502" d="M90.687 88.235l-.209 6.593-22.824 6.918 12.468 4.436z"/><ellipse fill="#535045" fill-opacity=".502" cy="4" rx="9" ry="18"/><path fill="#cad6e3" fill-opacity=".502" d="M158.564 113.008l-.999-.052 1.872-35.964.999.052z"/><path fill="#7f847f" fill-opacity=".502" d="M221.522 77.754l14.168-18.124.788.616-14.168 18.124z"/><path fill="#8a8e93" fill-opacity=".502" d="M151 79h6v30h-6z"/><path fill="#4e4f46" fill-opacity=".502" d="M221 108h-8l2 3z"/><path fill="#adbdcd" fill-opacity=".502" d="M79 81h14v5h-14z"/><path fill="#e8ecee" fill-opacity=".502" d="M225 77l7 4-2-7z"/><path fill="#b1b3af" fill-opacity=".502" d="M235.218 66.644l-41.011-4.404 26.004 6.374-7.841 8.269z"/><path fill="#abaaa9" fill-opacity=".502" d="M205.719 104.34l6.405 10.498-.784-27.202-25.088 20.396z"/><path fill="#8a8279" fill-opacity=".502" d="M80.756 30.096l-22.887-13.623 21.694 6.973-19.212 7.164z"/><path fill="#5b6366" fill-opacity=".502" d="M60 138h7v3h-7z"/><path fill="#9ea5a7" fill-opacity=".502" d="M214.841 52.322l10.031 40.123 14.243-4.413-14.682.807z"/><path fill="#646b6c" fill-opacity=".502" d="M203 127l47 1-13-13z"/><ellipse fill="#1d1d18" fill-opacity=".502" cx="60" cy="135" rx="12" ry="2"/><path fill="#8f8e8b" fill-opacity=".502" d="M228.46 61.673l-34.093 2.717 38.454-21.994-37.34-9.915z"/><path fill="#bdbcb7" fill-opacity=".502" d="M160 76h2v26h-2z"/><ellipse fill="#e6e8ec" fill-opacity=".502" cx="230" cy="94" rx="3" ry="3"/><path fill="#3d392d" fill-opacity=".502" d="M4 85l-20 10 67 26z"/><ellipse fill="#999a97" fill-opacity=".502" rx="1" ry="1" transform="matrix(-9.787 -8.901 5.522 -6.072 241.584 77.249)"/><path fill="#9da6a7" fill-opacity=".502" d="M237 104h9v12h-9z"/><path fill="#3f3828" fill-opacity=".502" d="M256.344 123.613l-.407.914-18.28-8.14.407-.914z"/><path fill="#787773" fill-opacity=".502" d="M189.695 9.22l-25.14 19.046 40.526 6.797 8.535-10.273z"/><path fill="#97978e" fill-opacity=".502" d="M-16 87.137l22.813-57.489 10.298 53.498-20.339-1.204z"/><path fill="#848b91" fill-opacity=".502" d="M120.565 99.976l5.547-7.934 4.429-16.908-21.841 23.017z"/><path fill="#838275" fill-opacity=".502" d="M-1.886 36.25l32.07-20.627-27.22 5.877-18.963 19.897z"/><path fill="#ddd5c9" fill-opacity=".502" d="M64 60h12v21h-12z"/><ellipse fill="#777268" fill-opacity=".502" cx="61" cy="14" rx="18" ry="6"/><path fill="#eef1f7" fill-opacity=".502" d="M163 82h2v18h-2z"/><path fill="#6e6c69" fill-opacity=".502" d="M119.592 43.253l31.678-12.655 56.489-24.22-75.234 15.636z"/><path fill="#edf1f2" fill-opacity=".502" d="M176.094 97.448l-.998.07-1.19-16.966.998-.07z"/><path fill="#a2acb5" fill-opacity=".502" d="M73.119 96.233l18.915-2.626-27.094-17.058 21.055 7.661z"/><path fill="#44433c" fill-opacity=".502" d="M80.143 116.758l11.661-5.414 8.022-31.742.783 41.724z"/><ellipse fill="#818b8c" fill-opacity=".502" cx="251" cy="23" rx="29" ry="9"/><path fill="#1f1d14" fill-opacity=".502" d="M120.516 157l52.773-9.596-77.168-10.277 88.666 18.403z"/><path fill="#16150e" fill-opacity=".502" d="M81.976 145.318l-49.297-9.428 27.872 7.284-9.476 13.825z"/><path fill="#2f2f27" fill-opacity=".502" d="M175 140h60v2h-60z"/><ellipse fill="#4b504c" fill-opacity=".502" cx="249" cy="133" rx="54" ry="3"/><path fill="#ccc7ba" fill-opacity=".502" d="M53.161 47.313l13.014 34.008-15.967-6.155-2.649-8.198z"/><path fill="#a8a7a3" fill-opacity=".502" d="M182.868 72.769l1.286 1.532-13.022 10.931-1.286-1.532z"/><path fill="#9e9d9c" fill-opacity=".502" d="M220.515 46.085l-30.251 20.369 19.006-3.786-45.325-13.41z"/><path fill="#d3d4cd" fill-opacity=".502" d="M79.265 83.255l-.52-9.99 9.99-.52.52 9.99z"/><ellipse fill="#494640" fill-opacity=".502" rx="1" ry="1" transform="matrix(-2.163 -.906 .821 -1.96 98.282 61.609)"/><ellipse fill="#646565" fill-opacity=".502" rx="1" ry="1" transform="matrix(4.331 -2.742 6.243 9.86 65.428 100.585)"/><path fill="#aaabaf" fill-opacity=".502" d="M131.983 65.642l6.432 27.124 11.984-27.968 28.628-11.554z"/><path fill="#6e6d68" fill-opacity=".502" d="M112 85l-6 11-3-29z"/><path fill="#b8b6ab" fill-opacity=".502" d="M19 44h22v14h-22z"/><path fill="#747571" fill-opacity=".502" d="M67.619 102.76l-14.553-14.246 35.8-.963-21.141-3.688z"/><ellipse fill="#6a655f" fill-opacity=".502" rx="1" ry="1" transform="matrix(-13.094 -25.277 11.063 -5.731 102.783 23.933)"/><path fill="#6e685c" fill-opacity=".502" d="M204.61 115.51l-25.688-4.056.468-2.964 25.688 4.056z"/><path fill="#c3c8c3" fill-opacity=".502" d="M73.773 55.611l12.87 1.807-.417 2.97-12.87-1.807z"/><path fill="#535450" fill-opacity=".502" d="M68.891 138.726l12.493 3.588-.276.961-12.493-3.588z"/><path fill="#737670" fill-opacity=".502" d="M188 112l42-1 5 15z"/><path fill="#8e8f8d" fill-opacity=".502" d="M189.709 117.183l-19.918-11.5.5-.866 19.918 11.5z"/><path fill="#55534f" fill-opacity=".502" d="M100 79v-16l-5-1z"/><path fill="#a2a5a2" fill-opacity=".502" d="M247 83l-22 24 10 3z"/><ellipse fill="#53524c" fill-opacity=".502" cx="166" cy="132" rx="11" ry="2"/><path fill="#909698" fill-opacity=".502" d="M152.252 112.721l.276-.961 19.22 5.52-.276.961z"/><path fill="#595b5a" fill-opacity=".502" d="M60.572 125.544l.156-.988 24.7 3.9-.156.988z"/><path fill="#4d4839" fill-opacity=".502" d="M12.684 96.829l.783-8.964 37.848 3.306-.783 8.964z"/><path fill="#616667" fill-opacity=".502" d="M67.754 115.46l.242-.97 24.25 6.05-.242.97z"/><path fill="#aebbca" fill-opacity=".502" d="M149.26 110.461l-2.446-43.262-5.118 34.4-9.324 4.051z"/><path fill="#666762" fill-opacity=".502" d="M177.303 120.691l-6.824-2.042 31.786.296 32.857 16.346z"/><path stroke="#92928d" stroke-opacity=".502" d="M92.052 97.424q-1.785-14.262 5.784-52.797" stroke-width=".5" fill="none"/><path fill="#5c5b58" fill-opacity=".502" d="M114.895 101.243l34.402 10.012-11.745 6.829 6.567-3.038z"/><path fill="#42433d" fill-opacity=".502" d="M209 135h41v6h-41z"/><path fill="#c7cac8" fill-opacity=".502" d="M200.375 65.111l1.71 4.7-8.46 3.078-1.71-4.7z"/><path fill="#868788" fill-opacity=".502" d="M193.716 28.032l36.653 7.835-35.759 3.989-82.574 20.478z"/><path fill="#7e8889" fill-opacity=".502" d="M233 87h2v13h-2z"/><path fill="#43423b" fill-opacity=".502" d="M69.671 121.684l-32.644-18.697 29.233 2.521-27.6 11.745z"/><path fill="#b9b7b2" fill-opacity=".502" d="M189.396 87.841l-12.581 21.787 13.96-3.741-23.756-35.23z"/><path fill="#5e5d5b" fill-opacity=".502" d="M180.203 129.784l-.814 1.828-25.592-11.396.814-1.828z"/><ellipse fill="#5f6055" fill-opacity=".502" cx="227" cy="112" rx="9" ry="2"/><path fill="#80817f" fill-opacity=".502" d="M182.176 28.138l-57.829 18.442 2.632 10.136 64.203-26.399z"/><path fill="#a5adb2" fill-opacity=".502" d="M165 86h2v14h-2z"/><path fill="#77746d" fill-opacity=".502" d="M99.15 47.753l48.983-17.503-38.775 33.571-37.343-44.922z"/><path fill="#f3f7fd" fill-opacity=".502" d="M90.029 61.33l.105.13 2.773 8.42-4.03 5.908z"/><ellipse fill="#b3b8b9" fill-opacity=".502" rx="1" ry="1" transform="matrix(12.656 -4.501 .861 2.422 169.258 102.483)"/><path stroke="#8e9293" stroke-opacity=".502" d="M229.991 131.072q5.386-24.015-10.133-118.35" stroke-width=".5" fill="none"/><path fill="#adadab" fill-opacity=".502" d="M209.357 107.021l-28.466 2.334 27.402-38.166 4.924 35.674z"/><path fill="#9a9995" fill-opacity=".502" d="M228.327 61.989l-31.385 11.598 6.098 4.793-7.071 1.901z"/><path fill="#52514c" fill-opacity=".502" d="M92 94l-4 22 10-16z"/><ellipse fill="#646562" fill-opacity=".502" rx="1" ry="1" transform="matrix(.994 -.113 .965 8.489 151.824 112.971)"/><path fill="#3c3b34" fill-opacity=".502" d="M181.336 129.915l10.738 1.753 8.861 1.264-77.695-3.365z"/><path stroke="#14130b" stroke-opacity=".502" d="M44.845 137.973q-34.067-9.195-60.845-13.625" stroke-width=".5" fill="none"/><path fill="#35322a" fill-opacity=".502" d="M95.008 89.874l2.36 25.061 37.888 5.31-36.142 17.072z"/><ellipse fill="#928c7e" fill-opacity=".502" cx="42" cy="23" rx="24" ry="3"/><path fill="#3f3b30" fill-opacity=".502" d="M127 117l-26 5-6-33z"/><path fill="#6d7774" fill-opacity=".502" d="M240.577 16.863l6.674-11.457 17.177-2.23 3.086 7.354z"/><path fill="#69706e" fill-opacity=".502" d="M223 72h1v13h-1z"/><path fill="#606058" fill-opacity=".502" d="M227.171 18.204l9.336-34.204-36.017 25.032 53.312-5.59z"/><path fill="#8b8d85" fill-opacity=".502" d="M5.179 72.042l3.839 10.334-14.579 2.374 5.87-23.199z"/><path fill="#adaaa6" fill-opacity=".502" d="M189.882 68.552l10.821 20.343-31.383-13.406-8.614-.064z"/><path fill="#b2afa6" fill-opacity=".502" d="M28 77h30v5h-30z"/><path fill="#2b281e" fill-opacity=".502" d="M7 126h54v3h-54z"/><path fill="#969d9e" fill-opacity=".502" d="M224 40l20 4 27-16z"/><ellipse fill="#c9cece" fill-opacity=".502" cx="214" cy="76" rx="5" ry="5"/><path fill="#e2ddd3" fill-opacity=".502" d="M71 57h6v24h-6z"/><ellipse fill="#989b9e" fill-opacity=".502" cx="238" cy="81" rx="12" ry="1"/><path fill="#1f1e16" fill-opacity=".502" d="M80 141h47v1h-47z"/><path fill="#323029" fill-opacity=".502" d="M105 143l-7-11-19-4z"/><path fill="#46433a" fill-opacity=".502" d="M124.27 133.01l31.616 4.992-.156.988-31.616-4.992z"/><path fill="#6e7072" fill-opacity=".502" d="M89 95v6l-9-6z"/><path fill="#969595" fill-opacity=".502" d="M122.268 70.77l18.689-16.335 36.337-1.287 7.913-17.027z"/><path fill="#a69f8f" fill-opacity=".502" d="M30.46 33.137l17.778 10.815-2.481-1.482-2.437-18.479z"/><path fill="#a09b91" fill-opacity=".502" d="M80 30l-17-1 23 8z"/><ellipse fill="#9f9e97" fill-opacity=".502" rx="1" ry="1" transform="matrix(8.259 -2.762 .317 .948 74.741 82.331)"/><path fill="#a8b2bb" fill-opacity=".502" d="M181.272 115.95l-2.427 1.764-4.116-5.663 2.427-1.764z"/><path fill="#5d5548" fill-opacity=".502" d="M187 110h11v2h-11z"/><path fill="#6d6b5c" fill-opacity=".502" d="M161 108h9v1h-9z"/><path fill="#616159" fill-opacity=".502" d="M228.776 114.332l-12.428-3.796.876-2.868 12.428 3.796z"/><path fill="#dde3e9" fill-opacity=".502" d="M162 82h2v24h-2z"/><path fill="#1f1f19" fill-opacity=".502" d="M132.508 137.763l-.017-1 31-.527.017 1z"/><path fill="#7b7c77" fill-opacity=".502" d="M194.793 113.167l-37.475 9.459 33.83-2.704-13.402-12.046z"/><path fill="#8d9093" fill-opacity=".502" d="M151.042 78.332l4.975-.525 2.94 27.86-4.975.525z"/><path fill="#3c3b33" fill-opacity=".502" d="M72.514 123.94l12.821-1.48-26.64-8.31 84.578 30.081z"/><path fill="#c2c2c0" fill-opacity=".502" d="M217.88 63.849l.087.996-37.848 3.306-.087-.996z"/><path fill="#858584" fill-opacity=".502" d="M115.068 92.527l14.227-40.534 28.785-10.435-47.489 26.831z"/><ellipse fill="#655c47" fill-opacity=".502" cx="34" cy="85" rx="17" ry="3"/><path fill="#424039" fill-opacity=".502" d="M139.9 127.956l14.58-10.33 4.926 21.21-28.395-25.869z"/><path fill="#716c64" fill-opacity=".502" d="M98.563 30.67l-8.021-46.67-13.953 33.988 26.433 32.195z"/><path fill="#aba6a4" fill-opacity=".502" d="M166.684 61.264l-20.064-2.627 33.68-5.08 24.807 2.452z"/><ellipse fill="#8f928f" fill-opacity=".502" cx="251" cy="95" rx="6" ry="22"/><path fill="#d3d3d2" fill-opacity=".502" d="M169 65l14 1-27 9z"/><path stroke="#6d7574" stroke-opacity=".502" d="M224.531 81.624q-1.852 30.24 30.513 72.153" stroke-width=".5" fill="none"/><path stroke="#101109" stroke-opacity=".502" d="M27.621 141.521q-28.889-5.346-43.621-12.134" stroke-width=".5" fill="none"/><path fill="#c9c7c1" fill-opacity=".502" d="M162.179 83.513l-.968-3.88 12.61-3.146.968 3.88z"/><path fill="#d9d4c7" fill-opacity=".502" d="M68.941 40.653l18-.306.119 7-18 .306z"/><path fill="#484338" fill-opacity=".502" d="M105 135h10v3h-10z"/><path fill="#49443b" fill-opacity=".502" d="M83 106h47v1h-47z"/><path fill="#c2bbae" fill-opacity=".502" d="M74 36l-16-1v6z"/><path fill="#525048" fill-opacity=".502" d="M30 93l25 3 5 10z"/><path fill="#464641" fill-opacity=".502" d="M101.165 145.786l-.375.927-25.956-10.5.375-.927z"/><ellipse fill="#95928a" fill-opacity=".502" cx="92" cy="86" rx="1" ry="4"/><path fill="#4f4f4b" fill-opacity=".502" d="M58 98h11v2h-11z"/><path fill="#757e7d" fill-opacity=".502" d="M231.488 75.209l-3.815-5.873.839-.545 3.815 5.873z"/><ellipse fill="#6e7471" fill-opacity=".502" cx="226" cy="72" rx="2" ry="2"/><path stroke="#13120b" stroke-opacity=".502" d="M-16 121.988q67.531 18.919 135.841 35.012" stroke-width=".5" fill="none"/><path fill="#7e7561" fill-opacity=".502" d="M44.139 82.008l.191-.982 25.532 4.966-.191.982z"/><path fill="#9facbb" fill-opacity=".502" d="M124.548 103.439l19.764 5.309-4.751-25.507-5.577 17.426z"/><path fill="#7b7f7d" fill-opacity=".502" d="M215 114h16v4h-16z"/><path fill="#47453d" fill-opacity=".502" d="M64.571 135.95l-.342.94-18.8-6.84.342-.94z"/><path fill="#888885" fill-opacity=".502" d="M224 44h12v20h-12z"/><ellipse fill="#443e2e" fill-opacity=".502" cy="92" rx="17" ry="8"/><ellipse fill="#585b54" fill-opacity=".502" cx="239" cy="116" rx="5" ry="1"/><path fill="#feffff" fill-opacity=".502" d="M83 60h4v14h-4z"/><ellipse fill="#585854" fill-opacity=".502" cx="180" cy="125" rx="24" ry="2"/><ellipse fill="#292821" fill-opacity=".502" cx="161" cy="127" rx="7" ry="1"/><path fill="#e5ecee" fill-opacity=".502" d="M230 76h2v13h-2z"/><path fill="#9e9f9c" fill-opacity=".502" d="M243 73l-16-8 12 18z"/><ellipse fill="#66676a" fill-opacity=".502" cx="88" cy="88" rx="2" ry="2"/><path fill="#5a5e5c" fill-opacity=".502" d="M224.584 132.982l-30.89-8.088 58.316 6.332-12.983-.829z"/><path fill="#373428" fill-opacity=".502" d="M-1.933 110.582l37.1 24.554 39.653 6.364-4.632 1.432z"/><path fill="#c1c5c5" fill-opacity=".502" d="M212.216 79.904l-.16 7.138.241-15.838 13.759-4.916z"/><path fill="#8f98a2" fill-opacity=".502" d="M75.832 88.07l5.831-5.783-9.03 7.096 7.167 19.911z"/><ellipse fill="#625e5a" fill-opacity=".502" rx="1" ry="1" transform="matrix(-6.081 -3.219 13.281 -25.086 118.93 12.774)"/><ellipse fill="#0e0f07" fill-opacity=".502" rx="1" ry="1" transform="matrix(.339 -.941 57.417 20.685 0 139.883)"/><path fill="#89939d" fill-opacity=".502" d="M80.733 84.737l6.441 1.642 3.404 9.856-11.537-8.192z"/><path stroke="#a5a194" stroke-opacity=".502" d="M99.544 58.49q-9.282.494-5.075-15.021" stroke-width=".5" fill="none"/><path fill="#a1a19e" fill-opacity=".502" d="M246.766 48.413l1.104-2.794-5.037-3.542-10.967-.03z"/><path fill="#383427" fill-opacity=".502" d="M82.6 150.172l-.259.966-86.94-23.31.259-.966z"/><path stroke="#67645b" stroke-opacity=".502" d="M177.978 109.206q13.411 2.323 54.107 2.886" stroke-width=".5" fill="none"/><path fill="#3e3b33" fill-opacity=".502" d="M178.028 139.505l-49.5 6.95-.556-3.96 49.5-6.95z"/><path fill="#a6adab" fill-opacity=".502" d="M236 99l-14-1 13 8z"/><path fill="#a6a8a7" fill-opacity=".502" d="M192.371 55.727l-5.429 12.676 17.044-12.184-1.837 1.667z"/><path fill="#15150f" fill-opacity=".502" d="M235 141l-9-1 16 12z"/><path fill="#6b7174" fill-opacity=".502" d="M69.944 121.142l3.804-1.236.309.951-3.804 1.236z"/><path fill="#3c382e" fill-opacity=".502" d="M22 98h19v16h-19z"/><path fill="#c1bdb0" fill-opacity=".502" d="M31.833 55.919l13.862 23.526 5.809-33.472-17.099-5.002z"/><path stroke="#4d4c48" stroke-opacity=".502" d="M104.786 119.531q-1.613-3.523-15.361-34.817" stroke-width=".5" fill="none"/><path fill="#2a271c" fill-opacity=".502" d="M0 115h36v4h-36z"/><path fill="#403c2d" fill-opacity=".502" d="M245.209 117.245l14.55 3.63-.968 3.88-14.55-3.63z"/><path fill="#bbc3c1" fill-opacity=".502" d="M85.809 58.834l-5.088 3.18-.53-.848 5.088-3.18z"/><path fill="#c9c6c8" fill-opacity=".502" d="M159 69l-7-1 10 20z"/><path stroke="#49473f" stroke-opacity=".502" d="M124.722 132.778q-33.257-10.745-78.477-12.691" stroke-width=".5" fill="none"/><path fill="#a3b0bf" fill-opacity=".502" d="M72 93h14v3h-14z"/><ellipse fill="#fbfdf9" fill-opacity=".502" cx="168" cy="85" rx="2" ry="2"/><path fill="#51544c" fill-opacity=".502" d="M242.667 122.185l3.566-6.592.644 19.372 20.835-7.394z"/><path fill="#606363" fill-opacity=".502" d="M88 108l-19-1 19 8z"/><path fill="#312e22" fill-opacity=".502" d="M30.993 106.537l-26.39-7.552 15.092 17.274-35.695-9.962z"/><path fill="#a19f95" fill-opacity=".502" d="M-.31 32.586l28.261 43.963-7.432 5.998-6.73 1.091z"/><ellipse fill="#b8c2cb" fill-opacity=".502" cx="171" cy="114" rx="9" ry="1"/><path fill="#7e8388" fill-opacity=".502" d="M67.015 97.615l1.432-3.736 6.538 2.506-1.432 3.736z"/><path stroke="#24241e" stroke-opacity=".502" d="M50.454 132.281q15.028 9.286 78.592 13.919" stroke-width=".5" fill="none"/><path fill="#d3cdc1" fill-opacity=".502" d="M66.549 62.921l-4.782-7.779 8.791 28.31-21.464-23.608z"/><path fill="#0c0b06" fill-opacity=".502" d="M242 139h3v1h-3z"/><path fill="#7d7d7a" fill-opacity=".502" d="M199.502 39.892l-5.25-2.91 8.245-14.875 5.25 2.91z"/><path fill="#46443f" fill-opacity=".502" d="M51.988 126.435l28.989 1.12-11.053 4.88-24.443-21.58z"/><path fill="#14130b" fill-opacity=".502" d="M-.409 129.136l13.16 4.788-.342.94-13.16-4.788z"/><path fill="#919599" fill-opacity=".502" d="M118.149 90.472l6.686 5.885 1.612-33.514 9.064 19.038z"/><path fill="#161610" fill-opacity=".502" d="M164.928 129.917l-7.96-.84.105-.995 7.96.84z"/><path fill="#898d8d" fill-opacity=".502" d="M253.36 32.313l-70.709 12.777 12.239-3.567 28.945-21.602z"/><path fill="#8f8f8d" fill-opacity=".502" d="M201.296 72.368l-3.626 13.524-.966-.259 3.626-13.524z"/><path stroke="#8d8b82" stroke-opacity=".502" d="M36.018 83.141q39.219-6.127 40.377 10.4" stroke-width=".5" fill="none"/><path fill="#bcbdbb" fill-opacity=".502" d="M160.236 77.439l41.046-19.597-35.07 18.015-6.949 17.401z"/><path fill="#494b44" fill-opacity=".502" d="M271 10.785v-15.483l-23.389 10.615-8.617-21.917z"/><path fill="#45433c" fill-opacity=".502" d="M77.271 145.66l-.342.94-28.2-10.26.342-.94z"/><path fill="#747168" fill-opacity=".502" d="M60.616 95.266l9.413-11.508-25.357 3.968 31.208 3.241z"/><path fill="#bec9d5" fill-opacity=".502" d="M148 78h2v32h-2z"/><path fill="#a3a298" fill-opacity=".502" d="M96.212 51.682l-2.859 17.983.351-15.056-2.698-12.078z"/><path stroke="#b0b8bd" stroke-opacity=".502" d="M75.739 99.638q16.136-23.234 12.078-39.646" stroke-width=".5" fill="none"/><path stroke="#3c3a32" stroke-opacity=".502" d="M83.076 115.647q-52.579.454-62.703 16.558" stroke-width=".5" fill="none"/><path fill="#262b27" fill-opacity=".502" d="M244.93 150.898l-2.828-2.828 16.968-16.968 2.828 2.828z"/><path fill="#6b665a" fill-opacity=".502" d="M50.381 18.684l-48.451-4.831 43.473 1.456 19.492 5.026z"/><ellipse fill="#eff4f8" fill-opacity=".502" cx="91" cy="73" rx="1" ry="8"/><path fill="#9eadbd" fill-opacity=".502" d="M73.695 87.74l.485-.875 6.125 3.395-.485.875z"/><path fill="#070805" fill-opacity=".502" d="M5 127h-21l7-7z"/><ellipse fill="#79838b" fill-opacity=".502" cx="77" cy="126" rx="1" ry="1"/><ellipse fill="#696b67" fill-opacity=".502" cx="169" cy="128" rx="5" ry="1"/><path stroke="#494740" stroke-opacity=".502" d="M172.492 125.128q-43.651-5.484-93.196-15.207" stroke-width=".5" fill="none"/><path fill="#443f35" fill-opacity=".502" d="M118.227 112.315l25.232 12.557-26.587-23.595-20.381 3.925z"/><path fill="#25231a" fill-opacity=".502" d="M103.678 127.389l17.081 8.322-.438.899-17.081-8.322z"/><path fill="#4c4c47" fill-opacity=".502" d="M226.153 130.295l-19.144 26.705h-25.974l36.738-19.702z"/><ellipse fill="#5a5957" fill-opacity=".502" cx="153" cy="109" rx="2" ry="2"/><path fill="#3b3932" fill-opacity=".502" d="M123.135 128.696l.139-.99 139.59 19.599-.139.99z"/><path fill="#666d6f" fill-opacity=".502" d="M227 132l10-17-13 3z"/><ellipse fill="#62615d" fill-opacity=".502" cx="166" cy="131" rx="3" ry="1"/><path stroke="#989b9a" stroke-opacity=".502" d="M266.143 93.714q-34.404 9.663-34.772-18.012" stroke-width=".5" fill="none"/><path fill="#97a0a1" fill-opacity=".502" d="M172.948 92.464l1.092 6.916-.988.156-1.092-6.916z"/><path fill="#6d6b65" fill-opacity=".502" d="M100 85v10l9-3z"/><path fill="#9e998c" fill-opacity=".502" d="M62.828 21.347l-63.383 14.465 51.359-2.958-6.366-4.381z"/><path fill="#afada1" fill-opacity=".502" d="M29.529 52.072l-2.367-19.343-14.208 8.362 9.615 34.144z"/><ellipse fill="#c3ced6" fill-opacity=".502" cx="159" cy="102" rx="2" ry="6"/><path fill="#464135" fill-opacity=".502" d="M17.425 111.392l-3.825-16.558.974-.225 3.825 16.558z"/><path stroke="#7b8692" stroke-opacity=".502" d="M118.513 101.881q31.681 8.58 32.692 9.788" stroke-width=".5" fill="none"/><path stroke="#302d25" stroke-opacity=".502" d="M174.383 131.191q-25.166-2.201-73.488-6.031" stroke-width=".5" fill="none"/><path stroke="#14140c" stroke-opacity=".502" d="M17.421 131.181q97.848 25.819 103.233 25.819" stroke-width=".5" fill="none"/><path stroke="#a6a8a6" stroke-opacity=".502" d="M206.185 56.229q16.011 9.709 16.624 34.144" stroke-width=".5" fill="none"/><ellipse fill="#46443e" fill-opacity=".502" cx="92" cy="138" rx="4" ry="2"/><path fill="#474338" fill-opacity=".502" d="M64.358 133.04l-.276.961-38.44-11.04.276-.961z"/><path fill="#696662" fill-opacity=".502" d="M137.815 10.721l-20.112 35.793 3.261-13.145 72.393-29.257z"/><path fill="#76756d" fill-opacity=".502" d="M198 113h26v9h-26z"/><path fill="#797469" fill-opacity=".502" d="M61.686 14.225l-28.263-8.178 9.417 8.071 53.707 15.253z"/><ellipse fill="#898783" fill-opacity=".502" rx="1" ry="1" transform="matrix(-.443 -2.181 1.695 -.344 92.189 84.778)"/><path stroke="#38352b" stroke-opacity=".502" d="M72.8 124.994q-8.973 14.002-67.904-17.621" stroke-width=".5" fill="none"/><path fill="#dbd7cb" fill-opacity=".502" d="M61 68l16-23v18z"/><path fill="#e5e4dc" fill-opacity=".502" d="M82 47h9v9h-9z"/><ellipse fill="#7c7e7d" fill-opacity=".502" cx="66" cy="119" rx="1" ry="1"/><path fill="#80827e" fill-opacity=".502" d="M231.723 56.061l18.51-8.698 13.586-20.161 7.181 44.185z"/><path fill="#181710" fill-opacity=".502" d="M148.968 137.189l.052.999-11.988.624-.052-.999z"/><ellipse fill="#898679" fill-opacity=".502" rx="1" ry="1" transform="matrix(23.808 -3.123 .378 2.883 21.803 21.568)"/><path fill="#a9a6a3" fill-opacity=".502" d="M190 81l-17-5 20-8z"/><path fill="#8a9598" fill-opacity=".502" d="M224 38l47-14v14z"/><ellipse fill="#969896" fill-opacity=".502" rx="1" ry="1" transform="matrix(-3.311 .502 -3.802 -25.07 244.467 92.263)"/><path fill="#2d2b24" fill-opacity=".502" d="M121.605 119.4l20.895 2.205-.105.995-20.895-2.205z"/><ellipse fill="#413b2c" fill-opacity=".502" cx="18" cy="130" rx="2" ry="2"/><path fill="#676154" fill-opacity=".502" d="M44.029 89.853l1.452-5.82 16.49 4.114-1.452 5.82z"/><path fill="#6d6c65" fill-opacity=".502" d="M198.669 11.044l-32.108-2.343 53.142 14.873 15.027-12.274z"/><path fill="#343128" fill-opacity=".502" d="M69.119 122.667l-6.58-2.394.342-.94 6.58 2.394z"/><path fill="#3c3931" fill-opacity=".502" d="M103.183 98.131l-5.044 3.118-6.124-13.121 63.39 53.573z"/><path fill="#878c8d" fill-opacity=".502" d="M155.546 115.465l.017-5.933 8.002 11.322 24.907-4.199z"/><path fill="#8f9ca7" fill-opacity=".502" d="M157 98h1v15h-1z"/><path fill="#6b675a" fill-opacity=".502" d="M16.778 8.374l15.605 7.619-12.94-26.684 51.335 10.336z"/><path fill="#837d72" fill-opacity=".502" d="M63.875 23.54l27.111 13.108 6.9 13.316-27.929-33.526z"/><path fill="#7c807d" fill-opacity=".502" d="M253.142 18.824l-28.342 4.207 31.822-20.657-24.879 13.661z"/><path fill="#bfbcc0" fill-opacity=".502" d="M156.456 63.093l-12.808 13.818 1.759 8.105 19.366-19.499z"/><path fill="#343123" fill-opacity=".502" d="M19.831 138.72l-19.971-6.489.309-.951 19.971 6.489z"/><path fill="#89887d" fill-opacity=".502" d="M160 109l2-2 3 5z"/><path fill="#25251f" fill-opacity=".502" d="M173 141h23v1h-23z"/><ellipse fill="#edf5fb" fill-opacity=".502" cx="85" cy="81" rx="1" ry="1"/><path fill="#98a2aa" fill-opacity=".502" d="M165 98h8v2h-8z"/><path fill="#a9acaa" fill-opacity=".502" d="M165 83h2v3h-2z"/><path fill="#484640" fill-opacity=".502" d="M28.655 104.282l19.62.617 24.796 12.235-12.708-5.041z"/><path fill="#575855" fill-opacity=".502" d="M186.138 127.518l-39.603-7.017 2.115 1.652 91.508 8.634z"/><path fill="#302f29" fill-opacity=".502" d="M87.498 117.517l-.391.921-4.605-1.955.391-.921z"/><ellipse fill="#50504a" fill-opacity=".502" cx="73" cy="123" rx="13" ry="1"/><ellipse fill="#c2c4c2" fill-opacity=".502" cx="182" cy="66" rx="5" ry="5"/><path fill="#adb2b1" fill-opacity=".502" d="M206 100h6v11h-6z"/><path stroke="#2d2b22" stroke-opacity=".502" d="M-16 129.346q8.229-17.764 97.492 6.699" stroke-width=".5" fill="none"/><path fill="#403d35" fill-opacity=".502" d="M155.445 137.243l-.139.99-24.75-3.475.139-.99z"/><path stroke="#25221b" stroke-opacity=".502" d="M143.57 137.861q-47.751-4.468-57.565-7.156" stroke-width=".5" fill="none"/><path fill="#49463f" fill-opacity=".502" d="M101.577 99.19l-11.004 14.586 21.436 2.359-25.52-8.472z"/><path fill="#9ea7a8" fill-opacity=".502" d="M240.032 107.981l-2.163 6.657-1.902-.618 2.163-6.657z"/><path fill="#4b4d49" fill-opacity=".502" d="M70 131l10 2-4-6z"/><path fill="#93a1af" fill-opacity=".502" d="M219.421 100.692l-8.173 7.359-.669-.743 8.173-7.359z"/><path fill="#524e45" fill-opacity=".502" d="M139 116l-15-8 9-2z"/><path fill="#c1cdd4" fill-opacity=".502" d="M225 78h3v9h-3z"/><path fill="#989797" fill-opacity=".502" d="M199.263 40.988l-24.331 8.931 40.821 6.536-11.58 6.67z"/><ellipse fill="#898985" fill-opacity=".502" cx="221" cy="106" rx="4" ry="3"/><path fill="#b5afa0" fill-opacity=".502" d="M22 35h58v2h-58z"/><path fill="#bdcfe2" fill-opacity=".502" d="M220.915 93.005l1.63 4.73-9.46 3.26-1.63-4.73z"/><path fill="#e1e5e8" fill-opacity=".502" d="M167 87h2v11h-2z"/><ellipse fill="#aca89e" fill-opacity=".502" rx="1" ry="1" transform="matrix(-7.307 -4.641 .869 -1.369 82.126 37.354)"/><path fill="#fff" fill-opacity=".502" d="M78 62h2v6h-2z"/><path fill="#c8cfd7" fill-opacity=".502" d="M158 80h2v30h-2z"/><path fill="#868989" fill-opacity=".502" d="M256.397 87.525l-.421.963-4.943 29.31 19.968 4.679z"/><path fill="#6f6e68" fill-opacity=".502" d="M149.231 110.851l21.205 9.936-41.31-12.733 15.904 3.59z"/><path fill="#616162" fill-opacity=".502" d="M71 100h3v6h-3z"/><ellipse fill="#676765" fill-opacity=".502" cx="174" cy="125" rx="11" ry="1"/><path stroke="#1d1d16" stroke-opacity=".502" d="M71.322 139.379q-18.319-5.706-19.541-4.124" stroke-width=".5" fill="none"/><path fill="#71757a" fill-opacity=".502" d="M82 108h-8l-6-4z"/><ellipse fill="#000100" fill-opacity=".502" cx="61" cy="133" rx="1" ry="1"/><path stroke="#3c3a32" stroke-opacity=".502" d="M110.773 132.15q-12.52-11.756-108.431-24.295" stroke-width=".5" fill="none"/><path fill="#3e392c" fill-opacity=".502" d="M19 117l11 1-5 5z"/><path fill="#8c867b" fill-opacity=".502" d="M94 47l7 9-3 2z"/><path fill="#797975" fill-opacity=".502" d="M101.25 70.858l28.421-24.445-16.156 26.012 1.241 27.293z"/><path fill="#c2bfb4" fill-opacity=".502" d="M49 77l-5-13 29 17z"/><path fill="#58554e" fill-opacity=".502" d="M32.946 94.791l-1.062 3.905 18.4-4.931 26.337 12.026z"/><path fill="#47453e" fill-opacity=".502" d="M165.008 137.041l54 .918-.017 1-54-.918z"/><ellipse fill="#5e5849" fill-opacity=".502" cx="38" cy="89" rx="4" ry="3"/><path fill="#737372" fill-opacity=".502" d="M157 122h5l1-4z"/><path fill="#6f808a" fill-opacity=".502" d="M223.869 92.715l.966-.259 1.295 4.83-.966.259z"/><ellipse fill="#464440" fill-opacity=".502" rx="1" ry="1" transform="matrix(-19.51 .156 -.008 -1 144.686 123.869)"/><path fill="#0e0f09" fill-opacity=".502" d="M59 128h3v1h-3z"/><path fill="#1e1e15" fill-opacity=".502" d="M11.608 133.156l.292-.956 54.492 16.644-.292.956z"/><path fill="#393529" fill-opacity=".502" d="M-1.817 119.035l39.942 12.978-.309.951-39.942-12.978z"/><path fill="#3e392d" fill-opacity=".502" d="M29 140h9v2h-9z"/><path fill="#8a8a89" fill-opacity=".502" d="M155.339 81.168l-3.41-3.655.731-.682 3.41 3.655z"/><ellipse fill="#070700" fill-opacity=".502" cx="105" cy="134" rx="1" ry="1"/><path fill="#48463f" fill-opacity=".502" d="M183 128h21v3h-21z"/><path fill="#969896" fill-opacity=".502" d="M176.029 105.524l.832 3.912-4.89 1.04-.832-3.912z"/><path fill="#33302a" fill-opacity=".502" d="M173.113 124.106l-.53.848-1.696-1.06.53-.848z"/><path fill="#61615f" fill-opacity=".502" d="M93 95v7l-10 4z"/><path fill="#4d4c47" fill-opacity=".502" d="M176 132h6v4h-6z"/><path fill="#cccccf" fill-opacity=".502" d="M161 80l-11-8h11z"/><path fill="#8f8e8b" fill-opacity=".502" d="M227 42l-20 20h20z"/><ellipse fill="#d7d3c6" fill-opacity=".502" cx="90" cy="54" rx="2" ry="2"/><path stroke="#38362f" stroke-opacity=".502" d="M117.87 133.664q-11.432-1.493-133.87-36.476" stroke-width=".5" fill="none"/><path fill="#3f3c34" fill-opacity=".502" d="M116.132 138.675l-.225.974-36.038-8.325.225-.974z"/><path fill="#2f2c24" fill-opacity=".502" d="M175.881 152.339l-.602.799-31.161-23.478.602-.799z"/><path stroke="#1f201a" stroke-opacity=".502" d="M44.854 139.895q1.82-10.37 23.096-.782" stroke-width=".5" fill="none"/><path fill="#27251e" fill-opacity=".502" d="M96 132h5v6h-5z"/><path stroke="#b7babb" stroke-opacity=".502" d="M169.333 88.322q8.066.123 45.856 6.948" stroke-width=".5" fill="none"/><path fill="#4a4a45" fill-opacity=".502" d="M171.811 135.844l69.87-8.851-82.229 9.552 28.285 5.25z"/><path stroke="#51504b" stroke-opacity=".502" d="M148.434 118.208q16.35.433 119.361 38.792" stroke-width=".5" fill="none"/><ellipse fill="#718088" fill-opacity=".502" cx="229" cy="97" rx="5" ry="1"/><path fill="#535250" fill-opacity=".502" d="M75.239 119.181l-6.53-4.88-13.8 1.026 18.018-6.848z"/><path fill="#d4dbdf" fill-opacity=".502" d="M211 79h7v13h-7z"/><path fill="#524b38" fill-opacity=".502" d="M10 84h20v7h-20z"/><ellipse fill="#858683" fill-opacity=".502" rx="1" ry="1" transform="matrix(-5.241 .757 -.143 -.99 67.826 88.734)"/><path fill="#969790" fill-opacity=".502" d="M18 82l-14-13 3 12z"/><path fill="#6d7373" fill-opacity=".502" d="M210.807 123.57l17.051-2.362 12.31 7.377-8.252-13.266z"/><path fill="#3a3727" fill-opacity=".502" d="M-6.01 112.376l12.474 6.356-.454.891-12.474-6.356z"/><path stroke="#312f26" stroke-opacity=".502" d="M76.177 130.335q-82.083-24.507-92.177 21.831" stroke-width=".5" fill="none"/><ellipse fill="#2e2e27" fill-opacity=".502" cx="187" cy="131" rx="5" ry="1"/><path stroke="#232018" stroke-opacity=".502" d="M146.156 137.539q-23.199 7.208-41.382.335" stroke-width=".5" fill="none"/><path stroke="#afb5b9" stroke-opacity=".502" d="M165.58 92.691q19.987 2.57 76.23 8.215" stroke-width=".5" fill="none"/><path stroke="#b2b3b0" stroke-opacity=".502" d="M232.715 65.901q-26.687-6.764-69.955 10.861" stroke-width=".5" fill="none"/><path stroke="#27251c" stroke-opacity=".502" d="M-16 106.123q4.381 3.019 70.283 18.307" stroke-width=".5" fill="none"/><path fill="#929191" fill-opacity=".502" d="M200.35 34.102l-61.043 17.432 15.786 8.512.363-6.249z"/><path fill="#b8b3b2" fill-opacity=".502" d="M150.293 67.18l19.41-.743-.293-6.077-21.61 1.976z"/><path fill="#6a6660" fill-opacity=".502" d="M103.051 15.865l16.162 40.59-31.689-43.374 45.044-29.081z"/><path fill="#332f25" fill-opacity=".502" d="M95.308 95.349l15.759 6.375-.375.927-15.759-6.375z"/><path fill="#e7eae9" fill-opacity=".502" d="M231 88h2v8h-2z"/><path stroke="#83888a" stroke-opacity=".502" d="M157.515 117.755q-10.11-14.977-5.853-28.499" stroke-width=".5" fill="none"/><path fill="#fff" fill-opacity=".502" d="M174 84h2v4h-2z"/><path fill="#4b4943" fill-opacity=".502" d="M31.066 108.072l.326-.946 25.542 8.802-.326.946z"/><path stroke="#44443e" stroke-opacity=".502" d="M83.685 138.51q-29.361-10.367-37.618-8.23" stroke-width=".5" fill="none"/><path fill="#8a8e91" fill-opacity=".502" d="M122 69h5v20h-5z"/><ellipse fill="#9da09d" fill-opacity=".502" rx="1" ry="1" transform="matrix(-.982 -.189 2.634 -13.683 234.662 78.223)"/><ellipse fill="#171714" fill-opacity=".502" cx="80" cy="125" rx="1" ry="1"/><ellipse fill="#4d4e48" fill-opacity=".502" cx="67" cy="136" rx="1" ry="1"/><path fill="#33322b" fill-opacity=".502" d="M170.992 130.636l16-.272.017 1-16 .272z"/><path fill="#7f8182" fill-opacity=".502" d="M114 60h6v41h-6z"/><path fill="#34322c" fill-opacity=".502" d="M39.876 108.458l16.49 4.114-.242.97-16.49-4.114z"/><path fill="#191b16" fill-opacity=".502" d="M236 138h6v1h-6z"/><ellipse fill="#49473d" fill-opacity=".502" rx="1" ry="1" transform="matrix(-7.25 -4.199 1.039 -1.794 248.2 121.977)"/><path fill="#a49e92" fill-opacity=".502" d="M85.446 35.582l-12.342-5.899-7.429-3.879-37.618 3.59z"/><path fill="#a6a6a4" fill-opacity=".502" d="M234 80h3v14h-3z"/><path stroke="#a9aaa8" stroke-opacity=".502" d="M202.253 43.422q-.667 18.217-37.006 42.108" stroke-width=".5" fill="none"/><path fill="#70777e" fill-opacity=".502" d="M75.234 115.938l3.824 1.168-.292.956-3.824-1.168z"/><ellipse fill="#636866" fill-opacity=".502" rx="1" ry="1" transform="matrix(1.847 -1.593 6.203 7.191 237.464 119.465)"/><path fill="#393630" fill-opacity=".502" d="M100.756 96.628l-3.952.624-1.56-9.88 3.952-.624z"/><path stroke="#47453e" stroke-opacity=".502" d="M21.85 110.88q21.471 4.714 77.779 20.779" stroke-width=".5" fill="none"/><ellipse fill="#20221f" fill-opacity=".502" cx="226" cy="136" rx="2" ry="1"/><ellipse fill="#777b79" fill-opacity=".502" cx="66" cy="126" rx="1" ry="1"/><path fill="#a0b2c5" fill-opacity=".502" d="M222 98l-5 3h-6z"/><path fill="#dcdfe0" fill-opacity=".502" d="M176.919 81.047l-.84 11.976-.998-.07.84-11.976z"/><ellipse fill="#62758b" fill-opacity=".502" cx="64" cy="139" rx="1" ry="1"/><ellipse fill="#b0bece" fill-opacity=".502" rx="1" ry="1" transform="matrix(.826 -8.757 3.292 .311 144.565 100.594)"/><ellipse fill="#959897" fill-opacity=".502" cx="184" cy="115" rx="2" ry="2"/><ellipse fill="#16150d" fill-opacity=".502" cx="118" cy="125" rx="2" ry="1"/><path stroke="#787977" stroke-opacity=".502" d="M50.193 86.089q16.726 1.716 39.398 15.805" stroke-width=".5" fill="none"/><ellipse fill="#afb6c0" fill-opacity=".502" cx="142" cy="81" rx="4" ry="10"/><path stroke="#696b66" stroke-opacity=".502" d="M202.942 110.055q6.017 14.5 24.851 25.644" stroke-width=".5" fill="none"/><path stroke="#1f1e15" stroke-opacity=".502" d="M-16 112.032q28.076 16.992 41.615 17.544" stroke-width=".5" fill="none"/><ellipse fill="#50514d" fill-opacity=".502" cx="79" cy="138" rx="2" ry="2"/><path fill="#6c6b65" fill-opacity=".502" d="M207.306 125.865l-.276.961-16.337-4.692.276-.961z"/><path fill="#bbb9b5" fill-opacity=".502" d="M169.164 74.926l15.565 10.117 2.74 12.123-16.87-20.981z"/><path fill="#2c2a22" fill-opacity=".502" d="M31.938 112.607l-12.435-8.385.559-.829 12.435 8.385z"/><path fill="#ada796" fill-opacity=".502" d="M56 48l4 2-1 8z"/><path fill="#4d4b45" fill-opacity=".502" d="M97.687 114.401l-15.189-3.849 27.246-.466-9.438.248z"/><ellipse fill="#949797" fill-opacity=".502" cx="166" cy="112" rx="2" ry="2"/><path fill="#9aa1a9" fill-opacity=".502" d="M132 70h3v31h-3z"/><path fill="#7c7c78" fill-opacity=".502" d="M179.291 27.095l25.263 1.538-78.582 16.546 3.378-5.063z"/><path fill="#8b8b8a" fill-opacity=".502" d="M138.524 54.65l54.811-19.206-63.921 18.104-11.954 18.567z"/></g></svg>