<svg xmlns="http://www.w3.org/2000/svg" version="1.1" width="1024" height="568">
<rect x="0" y="0" width="1024" height="568" fill="#7c7b76" />
<g transform="scale(4.000000) translate(0.5 0.5)">
<ellipse fill="#010000" fill-opacity="0.501961" cx="49" cy="129" rx="119" ry="33" />
<ellipse fill="#d6dbe2" fill-opacity="0.501961" cx="179" cy="79" rx="60" ry="36" />
<g transform="translate(41.585121 53.987130) rotate(97.726465) scale(29.051126 56.235524)"><ellipse fill="#f5f0de" fill-opacity="0.501961" cx="0" cy="0" rx="1" ry="1" /></g>
<ellipse fill="#26251a" fill-opacity="0.501961" cx="159" cy="136" rx="250" ry="13" />
<g transform="translate(79.093092 71.681768) rotate(361.608873) scale(14.438295 37.750354)"><ellipse fill="#dfe3e4" fill-opacity="0.501961" cx="0" cy="0" rx="1" ry="1" /></g>
<g transform="translate(115.102407 0.000000) rotate(361.317916) scale(139.657225 24.589581)"><ellipse fill="#585349" fill-opacity="0.501961" cx="0" cy="0" rx="1" ry="1" /></g>
<g transform="translate(29.682411 94.789932) rotate(359.755335) scale(87.242163 11.741949)"><ellipse fill="#444236" fill-opacity="0.501961" cx="0" cy="0" rx="1" ry="1" /></g>
<ellipse fill="#a3a9aa" fill-opacity="0.501961" cx="238" cy="65" rx="46" ry="46" />
<g transform="translate(8.866384 52.412963) rotate(227.119071) scale(22.645515 48.243784)"><ellipse fill="#959285" fill-opacity="0.501961" cx="0" cy="0" rx="1" ry="1" /></g>
<ellipse fill="#c4c7c8" fill-opacity="0.501961" cx="181" cy="82" rx="50" ry="21" />
<ellipse fill="#292412" fill-opacity="0.501961" cx="11" cy="115" rx="32" ry="32" />
<ellipse fill="#7f858c" fill-opacity="0.501961" cx="75" cy="100" rx="18" ry="19" />
<rect fill="#6a6865" fill-opacity="0.501961" x="94" y="24" width="40" height="66" />
<rect fill="#6b6f6c" fill-opacity="0.501961" x="144" y="109" width="112" height="20" />
<g transform="translate(198.739015 49.829354) rotate(94.550382) scale(12.993521 73.463363)"><ellipse fill="#8a8886" fill-opacity="0.501961" cx="0" cy="0" rx="1" ry="1" /></g>
<rect fill="#f0ece2" fill-opacity="0.501961" x="61" y="42" width="32" height="38" />
<g transform="translate(137.062569 81.623428) rotate(344.024790) scale(20.614156 31.177083)"><ellipse fill="#98a0aa" fill-opacity="0.501961" cx="0" cy="0" rx="1" ry="1" /></g>
<polygon fill="#504e46" fill-opacity="0.501961" points="91,157 94,106 9,82" />
<ellipse fill="#2f2e27" fill-opacity="0.501961" cx="186" cy="141" rx="105" ry="8" />
<rect fill="#c5c8c8" fill-opacity="0.501961" x="157" y="62" width="22" height="57" />
<polygon fill="#abb4b6" fill-opacity="0.501961" points="231,110 220,80 271,120" />
<polygon fill="#d9e6f1" fill-opacity="0.501961" points="211.346302,72.457740,211.113175,98.914394,224.366472,99.636391,219.739432,69.683745" />
<g transform="translate(9 5) rotate(75) scale(28 27)"><rect fill="#4e4a39" fill-opacity="0.501961" x="-0.5" y="-0.5" width="1" height="1" /></g>
<polygon fill="#2c2b1d" fill-opacity="0.501961" points="271.000000,148.519081,241.027651,117.508978,269.059822,117.850173,264.996436,111.002964" />
<ellipse fill="#979080" fill-opacity="0.501961" cx="35" cy="27" rx="47" ry="9" />
<g transform="translate(43.720489 57.506358) rotate(37.023641) scale(32.182993 13.771614)"><ellipse fill="#cac5b8" fill-opacity="0.501961" cx="0" cy="0" rx="1" ry="1" /></g>
<polygon fill="#acb8c6" fill-opacity="0.501961" points="88.103964,92.691799,73.480276,105.331296,75.174659,84.961191,86.314568,74.411563" />
<polygon fill="#a09d97" fill-opacity="0.501961" points="220.761097,108.476365,168.739280,73.901834,208.794047,68.703246,212.366776,105.262550" />
<polygon fill="#3d3b33" fill-opacity="0.501961" points="105.141267,139.541959,98.256686,54.732404,86.373677,130.357950,6.554369,128.520176" />
<rect fill="#6e7274" fill-opacity="0.501961" x="151" y="80" width="7" height="32" />
<g transform="translate(123.627936 13.033091) rotate(232.811961) scale(29.578982 39.874315)"><ellipse fill="#645f5b" fill-opacity="0.501961" cx="0" cy="0" rx="1" ry="1" /></g>
<polygon fill="#524f48" fill-opacity="0.501961" points="171.880335,149.928424,139.596271,124.132288,178.741850,104.936489,160.720270,107.310850" />
<polygon fill="#bbc7d7" fill-opacity="0.501961" points="134.386331,106.694134,149.138391,109.756868,150.628779,96.168607,153.736938,58.904674" />
<polygon fill="#9b9b93" fill-opacity="0.501961" points="0,52 51,82 -8,82" />
<rect fill="#6d624b" fill-opacity="0.501961" x="33" y="82" width="38" height="5" />
<rect fill="#828483" fill-opacity="0.501961" x="106" y="53" width="22" height="45" />
<polygon fill="#7f817c" fill-opacity="0.501961" points="235.946513,52.992880,261.954134,39.834484,261.024041,53.129998,218.271667,81.844745" />
<g transform="translate(202.823670 37.472703) rotate(253.796572) scale(8.272357 83.063419)"><ellipse fill="#8a8c8e" fill-opacity="0.501961" cx="0" cy="0" rx="1" ry="1" /></g>
<polygon fill="#d8dce0" fill-opacity="0.501961" points="157,72 159,105 179,89" />
<polygon fill="#e7eef3" fill-opacity="0.501961" points="230,73 227,89 235,102" />
<rect fill="#686354" fill-opacity="0.501961" x="184" y="110" width="48" height="5" />
<polygon fill="#3f3b30" fill-opacity="0.501961" points="130.902438,108.032526,198.840741,148.390905,110.847856,130.980709,93.203697,91.957557" />
<polygon fill="#ebf3f7" fill-opacity="0.501961" points="93.582514,52.855574,91.689236,82.371735,76.922262,71.535926,77.198519,64.692502" />
<rect fill="#b4aeab" fill-opacity="0.501961" x="150" y="53" width="51" height="11" />
<polygon fill="#4c504a" fill-opacity="0.501961" points="210,-16 223,11 268,-1" />
<polygon fill="#888174" fill-opacity="0.501961" points="97,48 78,12 39,7" />
<polygon fill="#959a99" fill-opacity="0.501961" points="244,117 218,98 271,88" />
<ellipse fill="#646d6f" fill-opacity="0.501961" cx="230" cy="126" rx="20" ry="7" />
<polygon fill="#8a8a7f" fill-opacity="0.501961" points="6.618366,83.865151,4.370943,44.614975,37.996123,20.575319,-16.000000,24.067867" />
<polygon fill="#bbb3a3" fill-opacity="0.501961" points="5.985852,38.943787,59.708679,55.144838,84.248383,34.989008,73.149903,29.171970" />
<g transform="translate(143.150684 112.311988) rotate(109.010453) scale(3.351588 28.761634)"><ellipse fill="#6b6a65" fill-opacity="0.501961" cx="0" cy="0" rx="1" ry="1" /></g>
<ellipse fill="#72716e" fill-opacity="0.501961" cx="187" cy="18" rx="45" ry="9" />
<g transform="translate(186.654931 141.000000) rotate(189.872840) scale(25.981864 18.579867)"><ellipse fill="#42403c" fill-opacity="0.501961" cx="0" cy="0" rx="1" ry="1" /></g>
<g transform="translate(98 65) rotate(98) scale(12 6)"><rect fill="#4d4b46" fill-opacity="0.501961" x="-0.5" y="-0.5" width="1" height="1" /></g>
<polygon fill="#b0afab" fill-opacity="0.501961" points="181.112672,108.746082,175.227125,75.545293,210.631707,90.241143,213.312229,111.716618" />
<polygon fill="#8d908e" fill-opacity="0.501961" points="226.337010,65.385133,208.443784,72.451500,219.910160,22.105961,224.043686,137.470630" />
<g transform="translate(0.000000 125.405723) rotate(43.522037) scale(37.420111 16.746518)"><ellipse fill="#222015" fill-opacity="0.501961" cx="0" cy="0" rx="1" ry="1" /></g>
<polygon fill="#dad2c5" fill-opacity="0.501961" points="86.121822,40.379115,68.076273,37.635989,50.510826,72.080437,71.915442,74.607058" />
<polygon fill="#48453a" fill-opacity="0.501961" points="85.141095,137.003470,11.306922,106.405078,22.319550,82.508833,48.932681,88.115512" />
<polygon fill="#93938f" fill-opacity="0.501961" points="253,113 215,44 271,91" />
<polygon fill="#73736b" fill-opacity="0.501961" points="172,106 234,115 209,126" />
<g transform="translate(162.374486 71.326696) rotate(74.450134) scale(3.391877 22.164051)"><ellipse fill="#d3cfcf" fill-opacity="0.501961" cx="0" cy="0" rx="1" ry="1" /></g>
<g transform="translate(76.255163 102.828076) rotate(333.427638) scale(13.820847 3.714559)"><ellipse fill="#70747a" fill-opacity="0.501961" cx="0" cy="0" rx="1" ry="1" /></g>
<polygon fill="#3e3c32" fill-opacity="0.501961" points="233,116 271,132 258,118" />
<polygon fill="#93999b" fill-opacity="0.501961" points="159.169639,123.122816,187.203241,116.486181,168.019760,97.621537,160.555789,114.017193" />
<polygon fill="#919dac" fill-opacity="0.501961" points="138.119778,107.510535,135.766248,75.493259,133.230220,68.664452,116.570874,101.421353" />
<polygon fill="#736e63" fill-opacity="0.501961" points="108,-6 13,7 91,29" />
<rect fill="#acaba1" fill-opacity="0.501961" x="13" y="37" width="19" height="46" />
<g transform="translate(255.000000 63.846045) rotate(144.715101) scale(11.074878 18.394350)"><ellipse fill="#7d7e7a" fill-opacity="0.501961" cx="0" cy="0" rx="1" ry="1" /></g>
<polygon fill="#7d8686" fill-opacity="0.501961" points="271.000000,29.589703,207.334971,34.316325,237.015825,10.776460,270.950043,-0.348361" />
<ellipse fill="#9c9f9e" fill-opacity="0.501961" cx="241" cy="93" rx="9" ry="23" />
<rect fill="#a3b0c0" fill-opacity="0.501961" x="70" y="92" width="19" height="4" />
<polygon fill="#babcb8" fill-opacity="0.501961" points="168.728342,59.379447,219.319130,64.935251,207.996390,83.064076,228.468036,68.579648" />
<rect fill="#dae2e8" fill-opacity="0.501961" x="226" y="75" width="4" height="21" />
<polygon fill="#a39b8e" fill-opacity="0.501961" points="40.667182,15.761392,41.402773,14.858128,46.369977,38.627891,72.674584,28.976885" />
<polygon fill="#545552" fill-opacity="0.501961" points="79.224099,128.716506,64.147555,127.141211,44.083512,87.979424,86.016073,119.364068" />
<polygon fill="#3b372e" fill-opacity="0.501961" points="90.907290,117.124339,139.274840,108.582267,93.206825,94.511606,185.697767,154.742649" />
<g transform="translate(32.343328 134.969804) rotate(14.409980) scale(44.205467 1.000000)"><ellipse fill="#1c1a11" fill-opacity="0.501961" cx="0" cy="0" rx="1" ry="1" /></g>
<rect fill="#d2dde8" fill-opacity="0.501961" x="211" y="77" width="11" height="23" />
<polygon fill="#d4d1c8" fill-opacity="0.501961" points="42.470622,52.314689,92.321973,79.879425,87.526257,84.722084,67.688713,80.908468" />
<g transform="translate(128.580712 46.754046) rotate(141.763092) scale(35.021977 7.783593)"><ellipse fill="#797773" fill-opacity="0.501961" cx="0" cy="0" rx="1" ry="1" /></g>
<polygon fill="#6d706c" fill-opacity="0.501961" points="219.864343,101.036888,198.324627,125.143692,234.767440,109.995922,242.087507,134.109855" />
<rect fill="#9d9f9d" fill-opacity="0.501961" x="171" y="74" width="2" height="27" />
<g transform="translate(98.285455 50.155083) rotate(239.862146) scale(16.698628 5.474305)"><ellipse fill="#847f75" fill-opacity="0.501961" cx="0" cy="0" rx="1" ry="1" /></g>
<polygon fill="#90908c" fill-opacity="0.501961" points="213,66 197,74 195,86" />
<polygon fill="#333126" fill-opacity="0.501961" points="-8,84 16,123 92,144" />
<rect fill="#62625e" fill-opacity="0.501961" x="162" y="120" width="37" height="7" />
<polygon fill="#a9b5c0" fill-opacity="0.501961" points="187.150620,116.688870,171.890762,110.943231,167.043623,116.583314,191.281566,115.251098" />
<polygon fill="#7d7970" fill-opacity="0.501961" points="52.865747,88.362223,46.300732,89.325125,70.178018,79.330534,71.315145,99.684846" />
<rect fill="#626a6d" fill-opacity="0.501961" x="60" y="138" width="7" height="3" />
<polygon fill="#9ca3a2" fill-opacity="0.501961" points="251,34 251,45 227,42" />
<rect fill="#2b2c26" fill-opacity="0.501961" x="171" y="140" width="85" height="2" />
<rect fill="#f6fafc" fill-opacity="0.501961" x="167" y="84" width="4" height="14" />
<polygon fill="#545149" fill-opacity="0.501961" points="107.388979,101.277053,138.340351,120.886825,172.017982,123.952791,124.799954,104.654263" />
<rect fill="#bac7d5" fill-opacity="0.501961" x="144" y="77" width="6" height="33" />
<g transform="translate(192 111) rotate(368) scale(30 1)"><rect fill="#5f5748" fill-opacity="0.501961" x="-0.5" y="-0.5" width="1" height="1" /></g>
<g transform="translate(1 11) rotate(243) scale(21 15)"><rect fill="#525145" fill-opacity="0.501961" x="-0.5" y="-0.5" width="1" height="1" /></g>
<g transform="translate(252.596279 131.346942) rotate(261.578562) scale(5.690524 22.681788)"><ellipse fill="#4d5654" fill-opacity="0.501961" cx="0" cy="0" rx="1" ry="1" /></g>
<rect fill="#72716d" fill-opacity="0.501961" x="100" y="72" width="13" height="23" />
<polygon fill="#65655e" fill-opacity="0.501961" points="217,-11 210,28 236,11" />
</g>
</svg>