<svg xmlns="http://www.w3.org/2000/svg" version="1.1" width="1024" height="568">
<rect x="0" y="0" width="1024" height="568" fill="#7c7b76" />
<g transform="scale(4.000000) translate(0.5 0.5)">
<ellipse fill="#010000" fill-opacity="0.501961" cx="52" cy="129" rx="114" ry="33" />
<g transform="translate(52.162976 54.051944) rotate(104.799339) scale(29.296819 46.842737)"><ellipse fill="#fcf6e5" fill-opacity="0.501961" cx="0" cy="0" rx="1" ry="1" /></g>
<ellipse fill="#d8dee5" fill-opacity="0.501961" cx="180" cy="81" rx="61" ry="34" />
<ellipse fill="#25241a" fill-opacity="0.501961" cx="164" cy="136" rx="254" ry="13" />
<polygon fill="#2c2612" fill-opacity="0.501961" points="67,81 -16,84 7,157" />
<g transform="translate(122.708469 0.000000) rotate(266.328403) scale(32.727574 146.863757)"><ellipse fill="#605a50" fill-opacity="0.501961" cx="0" cy="0" rx="1" ry="1" /></g>
<ellipse fill="#dde0e0" fill-opacity="0.501961" cx="78" cy="68" rx="14" ry="40" />
<ellipse fill="#a3a8a9" fill-opacity="0.501961" cx="239" cy="66" rx="47" ry="47" />
<g transform="translate(13.488512 50.552269) rotate(71.674425) scale(29.809203 59.569160)"><ellipse fill="#b0ab9c" fill-opacity="0.501961" cx="0" cy="0" rx="1" ry="1" /></g>
<polygon fill="#656765" fill-opacity="0.501961" points="112,85 70,136 42,80" />
<polygon fill="#616763" fill-opacity="0.501961" points="269,114 239,136 162,107" />
<rect fill="#c9cac8" fill-opacity="0.501961" x="157" y="64" width="75" height="34" />
<polygon fill="#3e392f" fill-opacity="0.501961" points="94,50 123,131 95,122" />
<g transform="translate(212.401566 49.327760) rotate(203.140300) scale(50.649493 19.359886)"><ellipse fill="#8b8a89" fill-opacity="0.501961" cx="0" cy="0" rx="1" ry="1" /></g>
<rect fill="#edeae1" fill-opacity="0.501961" x="58" y="47" width="35" height="34" />
<ellipse fill="#878e98" fill-opacity="0.501961" cx="128" cy="79" rx="11" ry="29" />
<g transform="translate(160.200029 112.851971) rotate(6.523292) scale(26.502188 8.038475)"><ellipse fill="#898e91" fill-opacity="0.501961" cx="0" cy="0" rx="1" ry="1" /></g>
<g transform="translate(116.012632 22.328531) rotate(298.705533) scale(29.333889 24.447886)"><ellipse fill="#605c58" fill-opacity="0.501961" cx="0" cy="0" rx="1" ry="1" /></g>
<polygon fill="#393831" fill-opacity="0.501961" points="266,139 92,114 185,154" />
<g transform="translate(167 49) rotate(258) scale(18 76)"><rect fill="#969494" fill-opacity="0.501961" x="-0.5" y="-0.5" width="1" height="1" /></g>
<rect fill="#a09d98" fill-opacity="0.501961" x="182" y="70" width="28" height="28" />
<rect fill="#c4bfb4" fill-opacity="0.501961" x="19" y="47" width="55" height="35" />
<ellipse fill="#deefff" fill-opacity="0.501961" cx="216" cy="89" rx="6" ry="13" />
<polygon fill="#dfe6eb" fill-opacity="0.501961" points="158,110 158,81 180,84" />
<rect fill="#636564" fill-opacity="0.501961" x="151" y="81" width="6" height="50" />
<g transform="translate(77 28) rotate(115) scale(16 41)"><rect fill="#8d8678" fill-opacity="0.501961" x="-0.5" y="-0.5" width="1" height="1" /></g>
<g transform="translate(252 121) rotate(368) scale(27 6)"><rect fill="#2a2619" fill-opacity="0.501961" x="-0.5" y="-0.5" width="1" height="1" /></g>
<ellipse fill="#9b9b91" fill-opacity="0.501961" cx="12" cy="54" rx="17" ry="30" />
<g transform="translate(7 2) rotate(72) scale(34 26)"><rect fill="#4d4b3a" fill-opacity="0.501961" x="-0.5" y="-0.5" width="1" height="1" /></g>
<polygon fill="#b2bdcd" fill-opacity="0.501961" points="129.842476,108.094580,150.173564,105.086246,157.671970,64.180102,138.057169,73.362894" />
<g transform="translate(252.354491 93.115283) rotate(121.712461) scale(26.124834 18.843476)"><ellipse fill="#9a9e9d" fill-opacity="0.501961" cx="0" cy="0" rx="1" ry="1" /></g>
<rect fill="#666968" fill-opacity="0.501961" x="159" y="120" width="87" height="9" />
<polygon fill="#454237" fill-opacity="0.501961" points="44.462730,89.999321,-16.000000,82.579509,-10.018885,94.488018,116.764694,157.000000" />
<rect fill="#7d7f80" fill-opacity="0.501961" x="101" y="68" width="28" height="26" />
<polygon fill="#a9b9c9" fill-opacity="0.501961" points="77,77 75,99 92,82" />
<g transform="translate(235.287068 0.000000) rotate(256.973313) scale(11.033542 24.597271)"><ellipse fill="#4e524b" fill-opacity="0.501961" cx="0" cy="0" rx="1" ry="1" /></g>
<polygon fill="#eaf2f7" fill-opacity="0.501961" points="95.397927,55.038595,93.110886,72.488528,77.040585,76.239108,76.700372,62.303365" />
<rect fill="#635d4e" fill-opacity="0.501961" x="184" y="110" width="49" height="4" />
<ellipse fill="#757e80" fill-opacity="0.501961" cx="223" cy="98" rx="2" ry="29" />
<polygon fill="#7f807b" fill-opacity="0.501961" points="271.000000,33.949955,213.798176,61.143356,248.062809,64.725359,253.466095,121.996033" />
<polygon fill="#acb0b3" fill-opacity="0.501961" points="171.378163,108.096556,177.852511,46.314199,167.775126,116.923714,189.605241,117.803528" />
<g transform="translate(5.694242 110.883008) rotate(308.587156) scale(18.817987 61.336214)"><ellipse fill="#2c291d" fill-opacity="0.501961" cx="0" cy="0" rx="1" ry="1" /></g>
<polygon fill="#696a69" fill-opacity="0.501961" points="53.623042,79.979465,89.281980,120.954073,90.454511,89.472928,72.445543,125.486999" />
<polygon fill="#d5d1d0" fill-opacity="0.501961" points="160,78 142,72 194,59" />
<g transform="translate(127 115) rotate(25) scale(70 13)"><rect fill="#443f34" fill-opacity="0.501961" x="-0.5" y="-0.5" width="1" height="1" /></g>
<g transform="translate(218.664506 116.293437) rotate(91.994843) scale(16.322244 6.518785)"><ellipse fill="#717471" fill-opacity="0.501961" cx="0" cy="0" rx="1" ry="1" /></g>
<polygon fill="#454540" fill-opacity="0.501961" points="46.518081,157.000000,99.626943,131.581240,88.170093,83.620486,100.789399,94.304171" />
<ellipse fill="#a0998b" fill-opacity="0.501961" cx="45" cy="29" rx="31" ry="7" />
<rect fill="#ebf4fc" fill-opacity="0.501961" x="227" y="76" width="5" height="17" />
<g transform="translate(202.856818 25.107303) rotate(177.152624) scale(63.677159 7.066584)"><ellipse fill="#777a79" fill-opacity="0.501961" cx="0" cy="0" rx="1" ry="1" /></g>
<polygon fill="#7a786f" fill-opacity="0.501961" points="64,104 58,80 76,80" />
<polygon fill="#9da6a7" fill-opacity="0.501961" points="214,104 224,93 260,117" />
<polygon fill="#8c99a6" fill-opacity="0.501961" points="122.738310,93.736287,102.481003,95.618961,141.023814,107.980825,128.233925,76.403835" />
<polygon fill="#dad3c6" fill-opacity="0.501961" points="53.920301,72.420878,77.078527,84.648557,74.969929,44.651973,66.362513,29.748856" />
<polygon fill="#bac9da" fill-opacity="0.501961" points="139,104 149,72 150,110" />
<polygon fill="#a5a39a" fill-opacity="0.501961" points="36.872001,67.889623,56.479110,82.747884,10.092789,83.620584,7.754840,59.587886" />
<g transform="translate(217 84) rotate(264) scale(28 10)"><rect fill="#d1dae0" fill-opacity="0.501961" x="-0.5" y="-0.5" width="1" height="1" /></g>
<polygon fill="#757068" fill-opacity="0.501961" points="47.229207,5.272765,97.083488,17.647298,115.857530,104.523966,86.388629,37.664074" />
<ellipse fill="#282922" fill-opacity="0.501961" cx="228" cy="141" rx="68" ry="2" />
<g transform="translate(176.348272 0.000000) rotate(-9.935230) scale(70.706317 10.309552)"><ellipse fill="#605d5a" fill-opacity="0.501961" cx="0" cy="0" rx="1" ry="1" /></g>
<polygon fill="#54524c" fill-opacity="0.501961" points="149,127 119,101 187,129" />
<g transform="translate(10.240219 29.606367) rotate(345.034002) scale(25.065607 8.381708)"><ellipse fill="#8a897b" fill-opacity="0.501961" cx="0" cy="0" rx="1" ry="1" /></g>
<polygon fill="#57544c" fill-opacity="0.501961" points="92.743537,126.581783,48.641793,84.854608,28.766616,85.944042,39.923442,105.888374" />
<polygon fill="#a29f9b" fill-opacity="0.501961" points="187,84 218,68 170,72" />
<g transform="translate(255.000000 23.352112) rotate(164.828714) scale(128.079774 7.900197)"><ellipse fill="#8a8e90" fill-opacity="0.501961" cx="0" cy="0" rx="1" ry="1" /></g>
<g transform="translate(98.056864 66.247176) rotate(92.542098) scale(6.154538 3.590767)"><ellipse fill="#525150" fill-opacity="0.501961" cx="0" cy="0" rx="1" ry="1" /></g>
<polygon fill="#bdbdb9" fill-opacity="0.501961" points="179.794138,80.989109,205.128174,93.099418,181.609038,108.529913,169.978289,103.324877" />
<polygon fill="#949390" fill-opacity="0.501961" points="271.000000,90.699239,252.624730,104.172309,224.495999,68.098514,186.000365,27.750782" />
<polygon fill="#8d98a4" fill-opacity="0.501961" points="72.264369,79.460454,92.387923,92.132343,78.419574,103.724497,72.221183,94.287691" />
<polygon fill="#232117" fill-opacity="0.501961" points="-0.910534,157.000000,46.343484,131.767939,49.748457,157.000000,0.136927,103.409563" />
<polygon fill="#c0baac" fill-opacity="0.501961" points="73.429938,29.205971,75.336382,35.638199,43.830041,80.383249,15.958233,41.278488" />
<polygon fill="#383429" fill-opacity="0.501961" points="86.109910,85.434546,115.984634,104.028996,85.796900,147.471738,139.195868,131.747862" />
<polygon fill="#39362c" fill-opacity="0.501961" points="12.952981,82.822357,42.207811,115.905552,109.942658,157.000000,16.688477,128.681534" />
<rect fill="#b9bbb8" fill-opacity="0.501961" x="191" y="64" width="36" height="7" />
<rect fill="#786f5b" fill-opacity="0.501961" x="32" y="82" width="39" height="7" />
<polygon fill="#84847c" fill-opacity="0.501961" points="168.174179,108.906018,187.689242,108.907592,163.845187,105.009056,156.893116,128.473937" />
<polygon fill="#aca492" fill-opacity="0.501961" points="30.320791,34.218367,50.327841,25.645864,57.783520,60.364628,61.543255,48.562932" />
<polygon fill="#a7afb5" fill-opacity="0.501961" points="175.493487,118.363759,185.654472,79.651037,178.346477,107.036717,159.435737,116.249903" />
<polygon fill="#686861" fill-opacity="0.501961" points="198,36 238,10 218,-1" />
<g transform="translate(65.925038 67.081090) rotate(307.429764) scale(2.732501 30.234158)"><ellipse fill="#d8d4ca" fill-opacity="0.501961" cx="0" cy="0" rx="1" ry="1" /></g>
<polygon fill="#81837f" fill-opacity="0.501961" points="237.034523,63.166772,271.000000,56.580591,234.605845,45.021511,222.467289,79.136417" />
<rect fill="#afb1b2" fill-opacity="0.501961" x="201" y="92" width="12" height="19" />
<polygon fill="#fcffff" fill-opacity="0.501961" points="177,92 174,87 176,97" />
<rect fill="#6d6857" fill-opacity="0.501961" x="15" y="0" width="35" height="18" />
<polygon fill="#46443f" fill-opacity="0.501961" points="130.606265,107.117169,90.961284,91.187206,165.431887,127.917693,173.037625,154.019219" />
<polygon fill="#949591" fill-opacity="0.501961" points="208.827662,68.441057,190.349887,78.369188,195.958216,78.715311,231.564966,61.159125" />
<ellipse fill="#8e9092" fill-opacity="0.501961" cx="153" cy="88" rx="4" ry="11" />
<rect fill="#6c7177" fill-opacity="0.501961" x="66" y="99" width="15" height="10" />
<polygon fill="#686f6e" fill-opacity="0.501961" points="223,131 251,128 218,103" />
<rect fill="#d3dbe2" fill-opacity="0.501961" x="226" y="84" width="7" height="12" />
<polygon fill="#9ca2a2" fill-opacity="0.501961" points="237,115 232,82 252,115" />
<polygon fill="#787774" fill-opacity="0.501961" points="206.389951,16.815415,106.200674,67.911828,107.393078,57.576204,132.725951,30.364949" />
<polygon fill="#3d4039" fill-opacity="0.501961" points="262.553317,136.154523,208.437860,157.000000,268.589618,125.116312,237.402167,114.614568" />
<rect fill="#788185" fill-opacity="0.501961" x="157" y="89" width="1" height="33" />
<g transform="translate(242.595414 40.410423) rotate(169.748438) scale(10.991958 4.688875)"><ellipse fill="#99a1a2" fill-opacity="0.501961" cx="0" cy="0" rx="1" ry="1" /></g>
<ellipse fill="#7f7d75" fill-opacity="0.501961" cx="205" cy="116" rx="24" ry="4" />
<polygon fill="#51504b" fill-opacity="0.501961" points="182.587786,130.531983,161.221510,125.334950,188.563033,121.398428,224.191826,136.470644" />
<polygon fill="#e1ded6" fill-opacity="0.501961" points="64.874712,58.296577,70.058873,75.880485,94.778704,52.483104,84.144364,38.551424" />
<polygon fill="#a7b5c4" fill-opacity="0.501961" points="82,91 92,95 73,94" />
<polygon fill="#8e9799" fill-opacity="0.501961" points="223.030277,72.912010,230.158723,107.362686,211.027060,107.540964,224.071400,98.949500" />
<ellipse fill="#24231c" fill-opacity="0.501961" cx="61" cy="135" rx="30" ry="2" />
<polygon fill="#b5afac" fill-opacity="0.501961" points="200.101322,55.216428,201.518569,63.910819,151.866232,64.616469,156.060106,57.477480" />
<rect fill="#43403b" fill-opacity="0.501961" x="96" y="59" width="4" height="69" />
<rect fill="#adb0b0" fill-opacity="0.501961" x="165" y="74" width="2" height="29" />
<polygon fill="#c7c3b8" fill-opacity="0.501961" points="58.358961,82.139369,69.119824,82.238968,53.003891,50.261627,34.862655,52.097332" />
<ellipse fill="#9e9b99" fill-opacity="0.501961" cx="185" cy="50" rx="29" ry="8" />
<polygon fill="#b3ac9e" fill-opacity="0.501961" points="31.601476,46.237295,78.829853,33.138639,100.851213,50.302656,57.309120,28.507025" />
<rect fill="#c8d3df" fill-opacity="0.501961" x="158" y="77" width="2" height="38" />
<g transform="translate(46.542799 13.825570) rotate(286.134756) scale(6.024561 13.050766)"><ellipse fill="#7b7567" fill-opacity="0.501961" cx="0" cy="0" rx="1" ry="1" /></g>
<g transform="translate(21.384685 91.711083) rotate(203.687339) scale(15.975496 6.263773)"><ellipse fill="#4d4735" fill-opacity="0.501961" cx="0" cy="0" rx="1" ry="1" /></g>
<g transform="translate(252 1) rotate(344) scale(17 6)"><rect fill="#42463e" fill-opacity="0.501961" x="-0.5" y="-0.5" width="1" height="1" /></g>
<polygon fill="#605e55" fill-opacity="0.501961" points="157.016183,108.609459,127.290624,114.585309,144.486873,113.251464,150.997682,116.530869" />
<polygon fill="#767571" fill-opacity="0.501961" points="112.412406,49.944855,101.380638,45.197862,101.114619,95.026368,116.023578,101.438530" />
<polygon fill="#92918e" fill-opacity="0.501961" points="131,50 119,72 163,47" />
<ellipse fill="#696b6d" fill-opacity="0.501961" cx="87" cy="99" rx="7" ry="5" />
<polygon fill="#c0bebf" fill-opacity="0.501961" points="152.123749,72.497831,195.349855,60.640147,146.200725,63.704108,149.183507,108.782553" />
<rect fill="#feffff" fill-opacity="0.501961" x="168" y="84" width="3" height="7" />
<polygon fill="#68645f" fill-opacity="0.501961" points="102,44 81,21 176,10" />
<rect fill="#f1f7f8" fill-opacity="0.501961" x="83" y="61" width="10" height="14" />
<rect fill="#656e73" fill-opacity="0.501961" x="58" y="138" width="8" height="2" />
<polygon fill="#9d9f9c" fill-opacity="0.501961" points="245.952919,107.968984,233.309670,92.800849,229.047030,62.832278,241.728495,70.372613" />
<polygon fill="#9fa8b3" fill-opacity="0.501961" points="157.542348,56.383433,139.118358,73.091733,144.518255,110.484822,124.184892,102.413934" />
<rect fill="#738188" fill-opacity="0.501961" x="224" y="97" width="13" height="2" />
<ellipse fill="#655d50" fill-opacity="0.501961" cx="185" cy="110" rx="6" ry="2" />
<g transform="translate(238.541697 24.158748) rotate(72.367222) scale(9.187742 25.258660)"><ellipse fill="#828b8b" fill-opacity="0.501961" cx="0" cy="0" rx="1" ry="1" /></g>
<polygon fill="#babfbd" fill-opacity="0.501961" points="203.073851,88.851026,233.093162,64.687761,206.172006,73.164809,216.170435,73.083435" />
<rect fill="#656255" fill-opacity="0.501961" x="190" y="111" width="47" height="2" />
<rect fill="#7f8488" fill-opacity="0.501961" x="76" y="86" width="17" height="3" />
<ellipse fill="#242117" fill-opacity="0.501961" cx="110" cy="141" rx="21" ry="3" />
<polygon fill="#d3d9db" fill-opacity="0.501961" points="89.322807,48.357853,91.303605,82.969125,73.772004,84.045418,86.458580,81.075459" />
<polygon fill="#d9d1c2" fill-opacity="0.501961" points="59.949730,63.252922,86.662216,42.935914,77.185852,36.454767,62.817047,42.718577" />
<polygon fill="#52534f" fill-opacity="0.501961" points="63,127 49,116 80,126" />
<polygon fill="#8f8c82" fill-opacity="0.501961" points="111.056098,53.949834,93.378052,60.768012,94.542839,44.510562,100.334308,57.271149" />
<polygon fill="#b3b1a7" fill-opacity="0.501961" points="25.756738,82.037877,17.409913,36.582861,33.108728,34.496846,41.194314,80.074321" />
<g transform="translate(79.248308 67.850165) rotate(361.223830) scale(1.000000 9.138231)"><ellipse fill="#faffff" fill-opacity="0.501961" cx="0" cy="0" rx="1" ry="1" /></g>
<rect fill="#2e2c26" fill-opacity="0.501961" x="132" y="127" width="32" height="3" />
<ellipse fill="#a19c8f" fill-opacity="0.501961" cx="43" cy="30" rx="32" ry="5" />
<ellipse fill="#eaf0f9" fill-opacity="0.501961" cx="163" cy="95" rx="2" ry="8" />
<rect fill="#5f5e55" fill-opacity="0.501961" x="212" y="109" width="16" height="4" />
<rect fill="#9da19f" fill-opacity="0.501961" x="171" y="86" width="2" height="12" />
<rect fill="#c3cccb" fill-opacity="0.501961" x="81" y="60" width="2" height="23" />
<polygon fill="#8e8d88" fill-opacity="0.501961" points="219.343869,51.736942,216.439182,49.601471,204.435892,61.676727,266.735972,71.099556" />
<polygon fill="#717a78" fill-opacity="0.501961" points="271,-5 249,17 237,12" />
<ellipse fill="#7e7b6f" fill-opacity="0.501961" cx="169" cy="107" rx="7" ry="2" />
<polygon fill="#878787" fill-opacity="0.501961" points="247.030318,24.678042,118.840332,44.158071,140.803778,40.040006,134.992543,54.938758" />
<polygon fill="#8c908f" fill-opacity="0.501961" points="271,126 247,89 249,114" />
<polygon fill="#a8adaa" fill-opacity="0.501961" points="237,95 229,104 241,114" />
<g transform="translate(226 73) rotate(321) scale(11 1)"><rect fill="#646c69" fill-opacity="0.501961" x="-0.5" y="-0.5" width="1" height="1" /></g>
<g transform="translate(229 77) rotate(165) scale(4 7)"><rect fill="#e9edee" fill-opacity="0.501961" x="-0.5" y="-0.5" width="1" height="1" /></g>
<polygon fill="#36342d" fill-opacity="0.501961" points="93.261019,98.537931,107.336541,98.033968,99.744873,99.245607,98.824652,84.123746" />
<ellipse fill="#b0beca" fill-opacity="0.501961" cx="173" cy="114" rx="8" ry="2" />
<g transform="translate(97 71) rotate(284) scale(14 3)"><rect fill="#656461" fill-opacity="0.501961" x="-0.5" y="-0.5" width="1" height="1" /></g>
<polygon fill="#444035" fill-opacity="0.501961" points="23.115787,91.023114,54.320091,92.028928,-4.641850,99.391893,64.009464,110.195765" />
<polygon fill="#b1b0ad" fill-opacity="0.501961" points="166,74 210,111 211,86" />
<polygon fill="#828587" fill-opacity="0.501961" points="113.614974,92.266419,115.975451,55.032948,124.685501,75.643996,121.986824,106.524166" />
<polygon fill="#5c615e" fill-opacity="0.501961" points="229.162270,108.069974,266.005290,140.088488,253.079402,127.363504,242.336399,132.632926" />
<rect fill="#ebf0f2" fill-opacity="0.501961" x="174" y="82" width="2" height="16" />
<g transform="translate(57 131) rotate(179) scale(25 3)"><rect fill="#46453e" fill-opacity="0.501961" x="-0.5" y="-0.5" width="1" height="1" /></g>
<polygon fill="#757673" fill-opacity="0.501961" points="173,120 153,112 158,122" />
<polygon fill="#868177" fill-opacity="0.501961" points="89.319637,33.118554,100.499716,52.144773,62.341205,16.536710,91.441595,31.726276" />
<rect fill="#dcdfde" fill-opacity="0.501961" x="71" y="73" width="23" height="3" />
<polygon fill="#919290" fill-opacity="0.501961" points="197,78 204,68 197,89" />
<polygon fill="#706e6b" fill-opacity="0.501961" points="223,17 117,32 168,9" />
<polygon fill="#3b3831" fill-opacity="0.501961" points="191.342286,133.371969,125.260035,142.435175,109.706586,148.659934,213.115983,137.369751" />
<polygon fill="#b9b09e" fill-opacity="0.501961" points="48,40 60,63 59,30" />
<polygon fill="#524e43" fill-opacity="0.501961" points="137,107 133,115 114,102" />
<rect fill="#969b99" fill-opacity="0.501961" x="169" y="82" width="6" height="2" />
<g transform="translate(244 54) rotate(108) scale(12 33)"><rect fill="#7f807c" fill-opacity="0.501961" x="-0.5" y="-0.5" width="1" height="1" /></g>
<g transform="translate(33.628375 135.555494) rotate(15.359265) scale(55.938734 1.000000)"><ellipse fill="#1e1d13" fill-opacity="0.501961" cx="0" cy="0" rx="1" ry="1" /></g>
<rect fill="#72726c" fill-opacity="0.501961" x="207" y="111" width="7" height="16" />
<g transform="translate(161 88) rotate(94) scale(19 1)"><rect fill="#bdbbb5" fill-opacity="0.501961" x="-0.5" y="-0.5" width="1" height="1" /></g>
<polygon fill="#2e2b20" fill-opacity="0.501961" points="19,133 -16,103 42,118" />
<polygon fill="#adacb0" fill-opacity="0.501961" points="134.443679,69.135464,133.475618,89.867927,155.927108,63.374954,152.585099,57.290448" />
<rect fill="#a3aeb8" fill-opacity="0.501961" x="225" y="89" width="6" height="3" />
<polygon fill="#c1c2c2" fill-opacity="0.501961" points="201,63 211,65 191,73" />
<g transform="translate(126 136) rotate(8) scale(64 1)"><rect fill="#28241b" fill-opacity="0.501961" x="-0.5" y="-0.5" width="1" height="1" /></g>
<polygon fill="#9d9c91" fill-opacity="0.501961" points="-1,48 14,80 10,33" />
<polygon fill="#a8b8c7" fill-opacity="0.501961" points="212.841060,106.111076,209.135685,94.006116,225.698922,98.937163,219.979820,99.875869" />
<polygon fill="#d2dbe4" fill-opacity="0.501961" points="213,98 223,91 210,74" />
<polygon fill="#5a5240" fill-opacity="0.501961" points="52,92 13,85 36,83" />
<polygon fill="#8e8a7d" fill-opacity="0.501961" points="-16.000000,32.944097,39.324453,27.201483,75.045906,21.780873,30.272939,17.887874" />
<polygon fill="#5f6264" fill-opacity="0.501961" points="86,113 85,100 75,117" />
<rect fill="#e0e2e5" fill-opacity="0.501961" x="227" y="90" width="6" height="7" />
<polygon fill="#39362d" fill-opacity="0.501961" points="81,120 142,120 140,136" />
<polygon fill="#e2e3e0" fill-opacity="0.501961" points="167.680678,89.610825,166.024345,78.741559,164.428226,83.551592,169.893054,85.867871" />
<polygon fill="#4b504e" fill-opacity="0.501961" points="224.247269,131.816561,248.847812,139.844810,238.889050,127.812600,189.925862,157.000000" />
<rect fill="#605f5a" fill-opacity="0.501961" x="160" y="131" width="9" height="2" />
<polygon fill="#d3cdc2" fill-opacity="0.501961" points="47,62 65,74 56,54" />
<polygon fill="#a5a3a0" fill-opacity="0.501961" points="228.684753,64.230944,143.318234,54.945394,192.571799,51.049003,188.842054,64.805474" />
<polygon fill="#e1e2dc" fill-opacity="0.501961" points="88.912838,72.139092,90.836374,45.165148,86.766694,41.387112,83.225308,49.684675" />
<g transform="translate(167 71) rotate(343) scale(36 2)"><rect fill="#d2d2d3" fill-opacity="0.501961" x="-0.5" y="-0.5" width="1" height="1" /></g>
<ellipse fill="#b9c3c3" fill-opacity="0.501961" cx="83" cy="58" rx="4" ry="2" />
<rect fill="#8d9196" fill-opacity="0.501961" x="151" y="83" width="6" height="23" />
<g transform="translate(255 140) rotate(161) scale(27 1)"><rect fill="#181d19" fill-opacity="0.501961" x="-0.5" y="-0.5" width="1" height="1" /></g>
<path stroke="#b2b2ab" stroke-opacity="0.501961" fill="none" d="M 64.761898 81.617379 Q 93.662405 76.632969, 92.859159 90.636563" stroke-width="0.500000" />
<polygon fill="#515353" fill-opacity="0.501961" points="75.830662,120.314239,93.930346,120.838404,66.273862,111.370426,58.029885,120.346119" />
<g transform="translate(71.525046 126.463386) rotate(213.744891) scale(24.450017 2.502370)"><ellipse fill="#43433e" fill-opacity="0.501961" cx="0" cy="0" rx="1" ry="1" /></g>
<polygon fill="#6d6f6b" fill-opacity="0.501961" points="211.289663,126.501257,155.147873,124.924495,215.397375,125.360034,156.266457,113.549734" />
<polygon fill="#6c695f" fill-opacity="0.501961" points="78.552985,92.580077,69.162914,92.427772,62.652456,94.809992,37.135559,86.407684" />
<polygon fill="#8a8e8c" fill-opacity="0.501961" points="231.321026,70.727111,239.817993,-16.000000,233.240976,52.010922,234.265773,105.793052" />
</g>
</svg>