<svg xmlns="http://www.w3.org/2000/svg" version="1.1" width="1024" height="512">
<rect x="0" y="0" width="1024" height="512" fill="#7e7e79" />
<g transform="scale(4.000000) translate(0.5 0.5)">
<polygon fill="#030000" fill-opacity="0.501961" points="-1,67 -4,143 271,126" />
<polygon fill="#d3d6d6" fill-opacity="0.501961" points="178,110 -16,20 271,50" />
<polygon fill="#ede8d6" fill-opacity="0.501961" points="93,72 86,9 -16,56" />
<polygon fill="#4b4841" fill-opacity="0.501961" points="158,-16 91,143 97,-14" />
<polygon fill="#babfc1" fill-opacity="0.501961" points="130,78 271,102 188,14" />
<polygon fill="#b0ab98" fill-opacity="0.501961" points="-16,81 8,6 92,11" />
<polygon fill="#575b56" fill-opacity="0.501961" points="102,88 253,143 257,100" />
<polygon fill="#1d1b07" fill-opacity="0.501961" points="-12,143 75,120 -15,77" />
<polygon fill="#899299" fill-opacity="0.501961" points="82,106 53,82 95,63" />
<polygon fill="#919392" fill-opacity="0.501961" points="262,65 108,32 260,3" />
<polygon fill="#eff0e9" fill-opacity="0.501961" points="50,58 94,68 92,24" />
<polygon fill="#6c6a63" fill-opacity="0.501961" points="105,40 45,-14 271,-9" />
<polygon fill="#322f22" fill-opacity="0.501961" points="169,136 93,64 91,133" />
<polygon fill="#554d38" fill-opacity="0.501961" points="-14,69 58,96 72,67" />
<polygon fill="#ccd1d3" fill-opacity="0.501961" points="157,97 180,103 171,39" />
<polygon fill="#858c92" fill-opacity="0.501961" points="133,91 100,80 148,6" />
<polygon fill="#898f8d" fill-opacity="0.501961" points="271,131 208,20 253,-16" />
<polygon fill="#e6f6ff" fill-opacity="0.501961" points="210,78 218,54 223,83" />
<polygon fill="#9b9d92" fill-opacity="0.501961" points="-16,-15 -3,69 39,66" />
<polygon fill="#2c3028" fill-opacity="0.501961" points="270,105 244,103 244,143" />
<polygon fill="#c4beae" fill-opacity="0.501961" points="59,67 12,21 70,15" />
<polygon fill="#51504b" fill-opacity="0.501961" points="100,41 103,94 78,113" />
<polygon fill="#3f3d27" fill-opacity="0.501961" points="58,-5 -16,8 -13,-16" />
<polygon fill="#b9cfe7" fill-opacity="0.501961" points="149,58 151,95 137,91" />
<polygon fill="#6f7477" fill-opacity="0.501961" points="148,101 159,106 155,62" />
<polygon fill="#a8a6a0" fill-opacity="0.501961" points="212,98 209,54 165,60" />
<polygon fill="#919aa4" fill-opacity="0.501961" points="95,68 77,93 62,70" />
<polygon fill="#dde8f1" fill-opacity="0.501961" points="230,59 233,85 224,77" />
<polygon fill="#d5d4d2" fill-opacity="0.501961" points="155,55 162,88 184,43" />
<polygon fill="#e8e7e0" fill-opacity="0.501961" points="94,57 89,26 65,21" />
<polygon fill="#848581" fill-opacity="0.501961" points="164,89 158,108 229,101" />
<polygon fill="#55564f" fill-opacity="0.501961" points="66,119 93,102 36,68" />
<polygon fill="#989d9a" fill-opacity="0.501961" points="235,101 271,99 232,47" />
<polygon fill="#36342a" fill-opacity="0.501961" points="261,125 93,106 149,143" />
<polygon fill="#3d392b" fill-opacity="0.501961" points="-16,69 32,70 74,143" />
<polygon fill="#423d32" fill-opacity="0.501961" points="141,96 91,77 113,104" />
<polygon fill="#bbb8ab" fill-opacity="0.501961" points="55,67 13,66 62,14" />
<polygon fill="#686b67" fill-opacity="0.501961" points="228,92 256,120 164,109" />
<polygon fill="#80817e" fill-opacity="0.501961" points="199,29 118,25 205,5" />
<polygon fill="#807f79" fill-opacity="0.501961" points="271,60 271,23 211,45" />
<polygon fill="#c3c2c1" fill-opacity="0.501961" points="160,44 131,65 215,51" />
<polygon fill="#6a6760" fill-opacity="0.501961" points="94,35 65,-16 189,-1" />
<polygon fill="#a9b4bf" fill-opacity="0.501961" points="155,104 184,100 173,93" />
<polygon fill="#f3fbff" fill-opacity="0.501961" points="94,40 74,55 91,59" />
<polygon fill="#999797" fill-opacity="0.501961" points="127,39 122,63 189,22" />
<polygon fill="#dee3e7" fill-opacity="0.501961" points="176,83 176,68 158,79" />
<polygon fill="#8f9391" fill-opacity="0.501961" points="233,23 224,78 217,8" />
<polygon fill="#cad0cd" fill-opacity="0.501961" points="208,69 214,53 227,52" />
<polygon fill="#949489" fill-opacity="0.501961" points="4,11 -16,69 20,66" />
<polygon fill="#9ca5a4" fill-opacity="0.501961" points="260,15 248,32 224,25" />
<polygon fill="#dad4c6" fill-opacity="0.501961" points="80,64 57,66 65,19" />
<polygon fill="#9f9e99" fill-opacity="0.501961" points="164,60 211,54 202,70" />
<polygon fill="#a3b2c2" fill-opacity="0.501961" points="151,95 140,46 129,89" />
<polygon fill="#75736b" fill-opacity="0.501961" points="174,94 234,98 222,111" />
<polygon fill="#a1adba" fill-opacity="0.501961" points="80,63 92,80 72,79" />
<polygon fill="#72716c" fill-opacity="0.501961" points="100,78 113,85 113,30" />
<polygon fill="#1f1d12" fill-opacity="0.501961" points="63,127 -13,143 -2,111" />
<polygon fill="#777570" fill-opacity="0.501961" points="71,66 52,67 76,99" />
<polygon fill="#b3b3b0" fill-opacity="0.501961" points="213,96 185,41 176,91" />
<polygon fill="#838d90" fill-opacity="0.501961" points="226,73 217,94 226,92" />
<polygon fill="#26241a" fill-opacity="0.501961" points="99,118 148,123 75,135" />
<polygon fill="#9ca3a1" fill-opacity="0.501961" points="244,77 251,103 217,88" />
<polygon fill="#575142" fill-opacity="0.501961" points="3,69 68,94 41,68" />
<polygon fill="#908d7a" fill-opacity="0.501961" points="22,1 -16,17 64,7" />
<polygon fill="#696350" fill-opacity="0.501961" points="15,-1 42,-16 64,4" />
<polygon fill="#aba7a4" fill-opacity="0.501961" points="168,34 122,55 205,42" />
<polygon fill="#b5b0a0" fill-opacity="0.501961" points="40,11 5,44 79,20" />
<polygon fill="#54544e" fill-opacity="0.501961" points="182,107 156,118 177,123" />
<polygon fill="#4d4b45" fill-opacity="0.501961" points="94,73 97,43 101,55" />
<polygon fill="#d2dee8" fill-opacity="0.501961" points="221,66 215,88 210,61" />
<polygon fill="#86888b" fill-opacity="0.501961" points="158,70 150,79 153,62" />
<polygon fill="#7b7b77" fill-opacity="0.501961" points="129,17 101,62 192,4" />
<polygon fill="#8b867b" fill-opacity="0.501961" points="109,45 86,14 96,43" />
<polygon fill="#626364" fill-opacity="0.501961" points="58,99 95,77 84,105" />
<polygon fill="#c6c9c8" fill-opacity="0.501961" points="92,69 92,62 66,65" />
<polygon fill="#979694" fill-opacity="0.501961" points="198,48 222,48 208,20" />
<polygon fill="#d2dadf" fill-opacity="0.501961" points="158,96 158,69 172,70" />
<polygon fill="#e1e6ea" fill-opacity="0.501961" points="226,60 231,61 228,78" />
<polygon fill="#a8acaa" fill-opacity="0.501961" points="170,91 171,65 176,86" />
<polygon fill="#8b8e8b" fill-opacity="0.501961" points="271,100 248,40 244,102" />
<polygon fill="#848c95" fill-opacity="0.501961" points="124,46 113,85 134,91" />
<polygon fill="#807d73" fill-opacity="0.501961" points="176,92 161,91 164,96" />
<polygon fill="#444c49" fill-opacity="0.501961" points="266,115 227,115 249,125" />
<polygon fill="#a0998b" fill-opacity="0.501961" points="87,19 50,4 20,18" />
<polygon fill="#696a64" fill-opacity="0.501961" points="204,17 253,-16 195,-11" />
<polygon fill="#b8c3d0" fill-opacity="0.501961" points="141,91 151,96 150,59" />
<polygon fill="#353329" fill-opacity="0.501961" points="23,113 -16,68 92,129" />
<polygon fill="#606055" fill-opacity="0.501961" points="235,97 217,92 209,98" />
<polygon fill="#b2aa96" fill-opacity="0.501961" points="61,30 59,45 47,18" />
<polygon fill="#625e54" fill-opacity="0.501961" points="150,95 125,97 167,107" />
<polygon fill="#cac7bb" fill-opacity="0.501961" points="42,27 40,54 72,65" />
<polygon fill="#413c2e" fill-opacity="0.501961" points="264,116 235,100 268,107" />
<polygon fill="#a9a69a" fill-opacity="0.501961" points="93,31 87,20 80,20" />
<polygon fill="#a9a79c" fill-opacity="0.501961" points="25,15 26,67 1,33" />
<polygon fill="#66635c" fill-opacity="0.501961" points="86,73 90,76 95,70" />
<polygon fill="#474742" fill-opacity="0.501961" points="57,120 41,87 96,104" />
<polygon fill="#b3b4af" fill-opacity="0.501961" points="161,63 171,68 187,51" />
<polygon fill="#767c7b" fill-opacity="0.501961" points="239,112 194,103 232,99" />
<polygon fill="#433f35" fill-opacity="0.501961" points="101,100 94,76 149,105" />
<polygon fill="#91928e" fill-opacity="0.501961" points="192,61 197,66 215,52" />
</g>
</svg>