<svg xmlns="http://www.w3.org/2000/svg" version="1.1" width="1024" height="512">
<rect x="0" y="0" width="1024" height="512" fill="#7e7e79" />
<g transform="scale(4.000000) translate(0.5 0.5)">
<polygon fill="#030000" fill-opacity="0.501961" points="271,126 -13,65 -15,143" />
<polygon fill="#fffded" fill-opacity="0.501961" points="91,81 94,16 -16,26" />
<polygon fill="#d7dee4" fill-opacity="0.501961" points="181,17 271,97 113,87" />
<polygon fill="#beb9a7" fill-opacity="0.501961" points="76,67 -16,66 41,-14" />
<polygon fill="#5d5e59" fill-opacity="0.501961" points="10,66 136,72 85,115" />
<polygon fill="#5c5851" fill-opacity="0.501961" points="271,-10 57,-16 94,33" />
<polygon fill="#acafb0" fill-opacity="0.501961" points="168,115 271,5 107,48" />
<polygon fill="#e2e3e2" fill-opacity="0.501961" points="96,39 79,98 59,9" />
<polygon fill="#363326" fill-opacity="0.501961" points="92,143 182,115 91,74" />
<polygon fill="#1f1c08" fill-opacity="0.501961" points="1,143 66,122 -15,64" />
<polygon fill="#5f6460" fill-opacity="0.501961" points="269,124 150,111 256,83" />
<polygon fill="#8d908e" fill-opacity="0.501961" points="255,0 271,73 141,30" />
<polygon fill="#a5a292" fill-opacity="0.501961" points="89,11 10,56 -16,10" />
<polygon fill="#bdc0c1" fill-opacity="0.501961" points="143,94 271,69 136,39" />
<polygon fill="#787e85" fill-opacity="0.501961" points="53,66 79,105 95,68" />
<polygon fill="#959995" fill-opacity="0.501961" points="271,106 232,19 232,98" />
<polygon fill="#666b6d" fill-opacity="0.501961" points="156,67 156,109 145,105" />
<polygon fill="#63615a" fill-opacity="0.501961" points="159,-14 93,-14 95,83" />
<polygon fill="#2d3027" fill-opacity="0.501961" points="271,109 250,135 241,101" />
<polygon fill="#e3e2da" fill-opacity="0.501961" points="95,60 22,67 89,27" />
<polygon fill="#4a4632" fill-opacity="0.501961" points="54,1 -16,-16 -14,4" />
<polygon fill="#dfe3e5" fill-opacity="0.501961" points="177,73 158,54 158,95" />
<polygon fill="#e1f2fc" fill-opacity="0.501961" points="210,79 223,84 217,52" />
<polygon fill="#443e2d" fill-opacity="0.501961" points="-16,68 48,68 67,133" />
<polygon fill="#828381" fill-opacity="0.501961" points="254,7 141,7 101,61" />
</g>
</svg>