<svg xmlns="http://www.w3.org/2000/svg" width="1024" height="660"><path fill="#9fbac6" d="M0 0h1024v660h-1024z"/><g transform="scale(4) translate(.5 .5)"><ellipse fill="#fff6ed" fill-opacity=".502" cx="173" cy="147" rx="126" ry="35"/><ellipse fill="#468bac" fill-opacity=".502" rx="1" ry="1" transform="matrix(35.502 26.749 -99.304 131.8 0 60.274)"/><path fill="#5592b7" fill-opacity=".502" d="M97.824-7.434l46.397-68.807 135.956 91.676-46.397 68.807z"/><ellipse fill="#c8d1d2" fill-opacity=".502" rx="1" ry="1" transform="matrix(25.194 17.74 -46.731 66.364 99.813 96.662)"/><ellipse fill="#2580a8" fill-opacity=".502" rx="1" ry="1" transform="matrix(14.583 9.91 -67.396 99.175 4.596 21.426)"/><ellipse fill="#91b0c1" fill-opacity=".502" cx="179" cy="84" rx="48" ry="48"/><ellipse fill="#8facba" fill-opacity=".502" rx="1" ry="1" transform="matrix(-54.235 76.341 -19.254 -13.678 22.921 95.435)"/><ellipse fill="#f2eee8" fill-opacity=".502" cx="177" cy="156" rx="68" ry="14"/><ellipse fill="#d6d3ce" fill-opacity=".502" rx="1" ry="1" transform="matrix(9.933 -13.167 29.289 22.095 249.168 114.639)"/><ellipse fill="#2a443c" fill-opacity=".502" cx="27" cy="111" rx="195" ry="1"/></g></svg>