<svg xmlns="http://www.w3.org/2000/svg" width="1024" height="660"><path fill="#9fbac6" d="M0 0h1024v660h-1024z"/><g transform="scale(4) translate(.5 .5)"><ellipse fill="#fff6ed" fill-opacity=".502" cx="190" cy="148" rx="142" ry="36"/><ellipse fill="#458bad" fill-opacity=".502" rx="1" ry="1" transform="matrix(62.773 -91.387 35.822 24.606 26.376 28.028)"/><ellipse fill="#5291b7" fill-opacity=".502" rx="1" ry="1" transform="matrix(-19.137 49.407 -126.818 -49.122 210.52 0)"/><ellipse fill="#ccd4d3" fill-opacity=".502" rx="1" ry="1" transform="matrix(-49.375 67.618 -19.515 -14.25 92.442 95.58)"/><ellipse fill="#257fa7" fill-opacity=".502" rx="1" ry="1" transform="matrix(15.277 11.339 -75.758 102.069 0 24.588)"/><ellipse fill="#8babba" fill-opacity=".502" rx="1" ry="1" transform="matrix(-71.77 92.076 -18.939 -14.762 22.997 91.421)"/><path fill="#8aadbf" fill-opacity=".502" d="M151 32h58v95h-58z"/><path fill="#667d7a" fill-opacity=".502" d="M9 109h86v5h-86z"/><ellipse fill="#3e5b5b" fill-opacity=".502" cx="227" cy="88" rx="250" ry="1"/><path fill="#f5f0e9" fill-opacity=".502" d="M102 158l119 22 27-46z"/><path fill="#103333" fill-opacity=".502" d="M229 72l9 7-8 2z"/><path fill="#d9d4ce" fill-opacity=".502" d="M221.133 96.214l49.561-8.989-32.029 64.835 2.087 14.173z"/><ellipse fill="#718079" fill-opacity=".502" cx="223" cy="111" rx="133" ry="2"/><ellipse fill="#647f82" fill-opacity=".502" cx="152" cy="78" rx="187" ry="2"/><path fill="#ebeded" fill-opacity=".502" d="M74 105h14v18h-14z"/><path fill="#cfd4d5" fill-opacity=".502" d="M96 81l29 49 16-46z"/><ellipse fill="#657e7d" fill-opacity=".502" cx="117" cy="99" rx="102" ry="2"/><ellipse fill="#344d49" fill-opacity=".502" rx="1" ry="1" transform="matrix(-1.055 -9.367 1.628 -.183 248.056 86.655)"/><path fill="#bfd0d5" fill-opacity=".502" d="M51 180l8-116 16 72z"/><path fill="#dfe2e2" fill-opacity=".502" d="M87 64h14v45h-14z"/><path fill="#c2d5dd" fill-opacity=".502" d="M141 92h19v32h-19z"/><ellipse fill="#2b4d4c" fill-opacity=".502" cx="63" cy="125" rx="104" ry="1"/><ellipse fill="#87afc7" fill-opacity=".502" rx="1" ry="1" transform="matrix(5.162 -10.716 124.349 59.897 138.89 22.6)"/><path fill-opacity=".502" d="M83 76l2 7 1-7z"/><path fill="#3c5953" fill-opacity=".502" d="M164 126h67v1h-67z"/><path fill="#1e413e" fill-opacity=".502" d="M136.031 78.306l.486 6.261-5.479-3.154 1.677-6.394z"/><path fill-opacity=".502" d="M190.707 117.11l-1.782.908-3.632-7.128 1.782-.908z"/><path fill="#234342" fill-opacity=".502" d="M-30.5 110.5h125v1h-125z"/><path fill-opacity=".502" d="M185 76h2v9h-2z"/><path fill="#a3becc" fill-opacity=".502" d="M86 76l-35-21-67 23z"/><path fill="#1f3e35" fill-opacity=".502" d="M70 96h3v19h-3z"/><ellipse fill="#000a03" fill-opacity=".502" cx="219" cy="110" rx="3" ry="3"/><ellipse fill="#669ab7" fill-opacity=".502" rx="1" ry="1" transform="matrix(-113.323 -18.849 3.479 -20.919 198.691 0)"/><path fill="#000e06" fill-opacity=".502" d="M206.448 109.697l1.044 5.91-3.94.696-1.044-5.91z"/><path fill="#49625f" fill-opacity=".502" d="M54.226 95.821l-.264 23.834-12.46-24.324 12.847 15.12z"/><path fill="#beced1" fill-opacity=".502" d="M16.556 137.184l26.367.149 13.96-49.802-11.738 19.765z"/><ellipse fill="#000c00" fill-opacity=".502" cx="71" cy="80" rx="2" ry="4"/><ellipse fill="#000100" fill-opacity=".502" rx="1" ry="1" transform="matrix(-.981 .193 -.815 -4.145 165.28 112.207)"/><path fill="#d4dbde" fill-opacity=".502" d="M190 124l19 1-17-32z"/><path fill="#1a3a36" fill-opacity=".502" d="M53 78l2 7 1-11z"/><ellipse fill="#283c31" fill-opacity=".502" rx="1" ry="1" transform="matrix(-4.071 6.378 -.843 -.538 137.34 106.602)"/><ellipse fill="#becfd6" fill-opacity=".502" rx="1" ry="1" transform="matrix(6.034 18.978 -37.915 12.055 120.768 55.695)"/><path fill="#a7bdc8" fill-opacity=".502" d="M235 57h21v28h-21z"/><path fill="#d2dadb" fill-opacity=".502" d="M73 65h10v52h-10z"/><path fill="#ced9dd" fill-opacity=".502" d="M45 105h147v4h-147z"/><path fill="#b6ccd6" fill-opacity=".502" d="M182 148l-26-76 31 44z"/><path fill="#33575b" fill-opacity=".502" d="M200.203 103.901l-14.895-1.83.488-3.972 14.895 1.83z"/><path fill="#879996" fill-opacity=".502" d="M270.803 129.349l-94.498-3.284 68.084.244 20.578.198z"/><ellipse fill="#5998b8" fill-opacity=".502" rx="1" ry="1" transform="matrix(27.7 -4.954 3.633 20.31 55.991 0)"/><path fill-opacity=".502" d="M152.061 75.971l.99.139-1.112 7.92-.99-.139z"/><path fill="#072922" fill-opacity=".502" d="M25 104l11-4v-4z"/><path fill="#a6c2cc" fill-opacity=".502" d="M45 166l-61-72 80 51z"/><ellipse fill="#42605f" fill-opacity=".502" cx="101" cy="111" rx="69" ry="1"/><path fill="#133331" fill-opacity=".502" d="M14 100h3v14h-3z"/><path fill="#01241d" fill-opacity=".502" d="M119 98l5-2-2 8z"/><ellipse fill="#000800" fill-opacity=".502" cx="118" cy="82" rx="1" ry="5"/><path fill="#385654" fill-opacity=".502" d="M41.342 74.91l-4.182 2.532-1.678.829 1.208 9.628z"/><path fill="#b7cad4" fill-opacity=".502" d="M206 91h12v27h-12z"/><path fill="#33473b" fill-opacity=".502" d="M104.941 94.61l1.044 5.91-4.925.87-1.044-5.91z"/><path fill="#001d17" fill-opacity=".502" d="M22 108h4v5h-4z"/><path fill="#000f02" fill-opacity=".502" d="M111 109l1 5-4 1z"/><path fill="#d5dcde" fill-opacity=".502" d="M114 55l5 41-21 21z"/><path fill="#9fbccb" fill-opacity=".502" d="M66 21h87v22h-87z"/><ellipse fill="#809aa0" fill-opacity=".502" cx="118" cy="89" rx="118" ry="1"/><path fill="#acc2cc" fill-opacity=".502" d="M25 80h5v44h-5z"/><ellipse fill="#456261" fill-opacity=".502" cx="50" cy="79" rx="70" ry="1"/><ellipse fill="#e1e4e2" fill-opacity=".502" rx="1" ry="1" transform="matrix(22.655 28.814 -22.893 18 140.879 160.929)"/><path fill="#e1e4e3" fill-opacity=".502" d="M112 113h32v12h-32z"/><path fill-opacity=".502" d="M53.725 104.296l1.575-6.818.974.225-1.575 6.818z"/><path fill="#14322b" fill-opacity=".502" d="M176 101l1 4 2-6z"/><path fill="#dee0e2" fill-opacity=".502" d="M287.442 113.189l-64.935-3.38.052-.999 64.935 3.38z"/><path fill="#00100a" fill-opacity=".502" d="M232 77h3v8h-3z"/><path fill="#c6d4da" fill-opacity=".502" d="M126.011 103.359l-8.96-19.759 16.894 17.036-22.608 21.943z"/><ellipse fill="#cad3d6" fill-opacity=".502" cx="63" cy="98" rx="6" ry="27"/><path fill="#8aafc5" fill-opacity=".502" d="M259 52l-47 38-5-56z"/><path fill="#00110d" fill-opacity=".502" d="M94.982 109.835l-2.5 4.33-3.464-2 2.5-4.33z"/><path fill="#2581a5" fill-opacity=".502" d="M-16.361 25.148l-7.035-13.245 69.757-37.051 7.035 13.245z"/><ellipse fill="#5e7e85" fill-opacity=".502" cx="91" cy="88" rx="155" ry="1"/><path fill-opacity=".502" d="M172.549 74.325l.946-.326 1.956 5.676-.946.326z"/><path fill="#143531" fill-opacity=".502" d="M138 97h2v12h-2z"/><path fill="#a6c0cd" fill-opacity=".502" d="M31 113l25-41-15 4z"/><path fill="#002016" fill-opacity=".502" d="M82.288 105.65l2.472-7.608.951.309-2.472 7.608z"/><ellipse fill="#52645e" fill-opacity=".502" cx="243" cy="110" rx="3" ry="3"/><path fill="#a4beca" fill-opacity=".502" d="M0 104h41v5h-41z"/><path fill="#ccd7da" fill-opacity=".502" d="M66 117h153v8h-153z"/><path fill="#b4c9d2" fill-opacity=".502" d="M141.094 107.584l46.365-3.727-48.801 8.676-6.601-20.187z"/><ellipse fill="#d8dee0" fill-opacity=".502" cx="91" cy="106" rx="25" ry="3"/><path fill="#a3bece" fill-opacity=".502" d="M191.158 89.071l30.482 18.871-44.012-20.106 24.193 22.882z"/><path fill="#dfe2e3" fill-opacity=".502" d="M244 104h12v8h-12z"/><ellipse fill="#5f99b4" fill-opacity=".502" rx="1" ry="1" transform="matrix(27.71 -36.671 8.109 6.128 4.11 48.979)"/><path fill-opacity=".502" d="M166.317 118.522l-.999-.052.364-6.993.999.052zM197.504 100.351l.94-.342 2.052 5.64-.94.342zM34 110h2v8h-2z"/><path fill="#ccd6da" fill-opacity=".502" d="M131.065 81.182l-31.383-10.197 5.253-16.167 31.383 10.197z"/><path fill="#adc8d8" fill-opacity=".502" d="M154 80h32v8h-32z"/><path fill="#79a9c3" fill-opacity=".502" d="M32 21h40v38h-40z"/><path fill="#000f04" fill-opacity=".502" d="M117.692 82.745l1.656-5.766.961.276-1.656 5.766z"/><path fill="#2f5053" fill-opacity=".502" d="M199 77l5-2 5 3z"/><ellipse fill="#263d33" fill-opacity=".502" cx="28" cy="77" rx="2" ry="2"/><path fill="#06332d" fill-opacity=".502" d="M189 77h-4l1 6z"/></g></svg>