<svg xmlns="http://www.w3.org/2000/svg" viewBox="0 0 256 128"><path fill="#534948" d="M0 0h256v128H0z"/><g fill-opacity=".5"><path fill="#c9cad1" d="M145.5 32.5l-33 111 96-66z"/><path fill="#0c0710" d="M103.5 87.5l-5-103-68 106z"/><path fill="#cbaf92" d="M71.5 143.5l97-17-121-31z"/><path fill="#272522" d="M128.5-10.5l140 154-1-149z"/><path fill="#dbf2ff" d="M133.5 42.5l8 47 41 11z"/><path fill="#6f291b" d="M84.5 103.5l33-36 59 60z"/><path fill="#bbb7ae" d="M17.5 105.5l30-51-42 37z"/><path fill="#c2ced2" d="M31.5 44.5l-25 31-16-10z"/><path d="M145.5 9.5l19 24-40 13z"/><path fill="#0e0105" d="M10.5 143.5l-26-52 79 27z"/><path fill="#8ca2b0" d="M113.5 29.5l39-39-45 79z"/><path fill="#380f07" d="M242.5 143.5l-65-39 51-38z"/><path fill="#1d222e" d="M-15.5 56.5l16-72 93 53z"/><path fill="#c7b4b0" d="M159.5 36.5l25 11-27 43z"/><path fill="#b9afa2" d="M85.5 1.5l-46-10 17 25z"/><path fill="#b3afaa" d="M70.5 81.5l-22 19 24-36z"/><path fill="#75635e" d="M220.5 51.5l35 13-12 62z"/><path fill="#000f17" d="M262.5 19.5l3-34-127 13z"/><path d="M271.5 119.5l-14-60-16 81z"/><path fill="#826762" d="M207.5 49.5l-51 14-40-22z"/><path fill="#bf6854" d="M138.5 92.5l-31 26 12-49z"/><path fill="#4c1711" d="M141.5 69.5l-52 23 38-44z"/><path fill="#00000d" d="M42.5 52.5l-19 6-15 31z"/><path fill="#2c404f" d="M145.5 102.5l8 10 28-23z"/><path fill="#657484" d="M143.5 4.5l67 8-34 6z"/><path fill="#896a4f" d="M35.5 98.5l46 45 85-13z"/><path fill="#7d594c" d="M245.5 97.5l-28-6-32 52z"/><path fill="#b8c0c9" d="M129.5 43.5l14 2-11 17z"/><path fill="#7486a0" d="M89.5 76.5l28-25 4 11z"/><path fill="#121219" d="M104.5-6.5l-83 109 53-33z"/><path fill="#7096b9" d="M207.5 77.5l-25-21-9 49z"/><path fill="#9aa5af" d="M12.5 56.5l27-12-5-6z"/><path fill="#090d10" d="M138.5 117.5l-10-2-9-25z"/><path fill="#140b0c" d="M180.5 102.5l64 10-44-22z"/><path fill="#cae1ee" d="M131.5 81.5l24 16 3-35z"/><path fill="#3c0f11" d="M197.5 91.5l21-30 34 26z"/><path fill="#0b1724" d="M14.5 71.5l59-38-7-20z"/><path fill="#9db7c7" d="M156.5 142.5l-27-40 49 41z"/><path fill="#2a1a13" d="M75.5 69.5l-19 27 63-4z"/><path fill="#bbacac" d="M86.5 100.5l-12-4 16-6z"/><path fill="#948e88" d="M.5 99.5l54-54-20 41z"/><path d="M107.5 43.5l7 9-10 7z"/><path fill="#7a7260" d="M63.5 14.5l-47 12 35 1z"/><path fill="#637284" d="M232.5 13.5l-9 9 41 4z"/><path fill="#22100a" d="M124.5 27.5l9 6-8 23z"/><path fill="#674a6e" d="M73.5 60.5l15 5-1-26z"/><path fill="#8ea0b1" d="M244.5 103.5l1 37-7-16z"/><path fill="#babcbf" d="M96.5 116.5l23-2-35-10z"/><path fill="#c8c9ce" d="M179.5 58.5l-14-20 15 8z"/><path fill="#82767c" d="M154.5-15.5l-25 48-25-41z"/><path fill="#712f00" d="M180.5 113.5l39 30-52-7z"/><path fill="#044864" d="M128.5-7.5l-29 25 6 13z"/><path fill="#5f2e1a" d="M157.5 40.5l-14 6v13z"/><path fill="#7b3c3d" d="M83.5 96.5l21-56-2 38z"/><path fill="#230706" d="M36.5 83.5l1 22-26 20z"/><path fill="#c2ccd0" d="M130.5 52.5l40 18-8 24z"/><path fill="#636660" d="M253.5 80.5l1-21-69-13z"/><path fill="#000c0f" d="M178.5 45.5h27l-44-13z"/><path fill="#000008" d="M-15.5 45.5l33 5-33 14z"/><path fill="#826956" d="M30.5 106.5l14-5-14 26z"/><path fill="#3a2b28" d="M129.5 102.5l16-10-1 20z"/><path fill="#6b94c2" d="M122.5 38.5l-18-24 11 30z"/><path fill="#8f6e71" d="M2.5 26.5l5-7 9 28z"/><path fill="#988693" d="M76.5 34.5l-17 9 9-1z"/><path fill="#090c0e" d="M178.5 126.5l-18-12-17 4z"/><path fill="#00070a" d="M246.5 124.5l11-77 14 96z"/><path fill="#2b0e01" d="M195.5 134.5l46-29-10 38z"/><path fill="#683a47" d="M15.5 143.5l3-36-15-26z"/><path fill="#181d15" d="M142.5 9.5l26 27-34 3z"/><path fill="#21070c" d="M133.5 60.5l-10-20-3 23z"/><path fill="#c99fa3" d="M173.5 119.5l-9-1 15-4z"/><path fill="#b45c56" d="M101.5 108.5l5-13 39-3z"/><path fill="#100800" d="M-15.5 23.5l27-39-6 37z"/><path fill="#996c45" d="M130.5 140.5l69-2-130-32z"/><path fill="#7f8c99" d="M70.5 141.5l54-11-61-16z"/><path fill="#392817" d="M255.5 60.5l-67-43 72 12z"/><path fill="#918161" d="M210.5 89.5l30 16-16-1z"/><path fill="#6f8188" d="M47.5 99.5l-2-8 11-12z"/><path fill="#0b1b1c" d="M110.5 85.5l-1-22-13 43z"/><path fill="#39121c" d="M32.5 62.5l-18 4-18 30z"/><path fill="#04090b" d="M23.5 137.5l-9-24 51 16z"/><path fill="#aaa7a6" d="M55.5 99.5l-17 7 21-20z"/><path fill="#d6dcda" d="M160.5 37.5l-12 3 24 1z"/><path fill="#22000e" d="M134.5 47.5l4 6h-5z"/><path fill="#db8362" d="M140.5 71.5l-34 15 18-2z"/><path fill="#684440" d="M82.5 14.5l-37-7 26 24z"/><path fill="#95635d" d="M212.5 107.5l-6 36h-31z"/><path fill="#5c6374" d="M176.5 69.5l16 5-16 15z"/><path fill="#111416" d="M31.5-8.5l11 43-13-16z"/><path fill="#989994" d="M33.5 65.5l-20 20v24z"/><path fill="#a9afb3" d="M169.5 59.5l-13 28 20 16z"/><path fill="#332e24" d="M192.5 19.5l-52 24 7-32z"/><path fill="#9ca6a2" d="M139.5 113.5l13 4 8-7z"/><path fill="#282225" d="M210.5 75.5l35-4-65-17z"/><path fill="#495259" d="M49.5 67.5l-24-32 1-38z"/><path fill="#4d4238" d="M237.5 39.5l-83-2 26-21z"/><path fill="#223140" d="M155.5 101.5l10-6 5 11z"/><path fill="#120f0e" d="M92.5 139.5l28 4-41-22z"/><path fill="#101111" d="M99.5 62.5l-2-49-18-2z"/><path fill="#151616" d="M188.5 113.5l11-18 9 23z"/></g></svg>