<svg xmlns="http://www.w3.org/2000/svg" viewBox="0 0 400 200"><path fill="#544b47" d="M0 0h400v200H0z"/><path fill="#d6e9f6" fill-opacity=".5" d="M200.3 87.9l67-48.7 49.6 68.2-67 48.7z"/><path fill="#c1af96" fill-opacity=".5" d="M308 238.9l-220.3-59 12.1-45.3 220.3 59z"/><path fill="#0a0b13" fill-opacity=".5" d="M66.4 115.4L80.9-22.9l85.5 9L152 124.4z"/><path fill="#040000" fill-opacity=".5" d="M-14 129.7l118.6 34-20.2 70.6-118.7-34z"/><path fill="#312118" fill-opacity=".5" d="M404.3 210.3l-111.1-25.7L337.8-8.7 449 16.9z"/><path fill="#c7c3c2" fill-opacity=".5" d="M204.4 48.9l42-3.7 7 79.4-42 3.6z"/><path fill="#aea796" fill-opacity=".5" d="M7 128.7l45.6-47.2 16.9 16.3L23.9 145z"/><path fill="#90311d" fill-opacity=".5" d="M181 157l-25.1-12.7 39.7-78 25 12.8z"/><path fill="#b6c3c1" fill-opacity=".5" d="M52.3 57.6l-60.8 49.2-7.8-9.7 60.7-49.2z"/><path fill="#000400" fill-opacity=".5" d="M265.7 7.9l-49.2 45.8-18.1-19.4 49.1-45.8z"/><path fill="#96acb6" fill-opacity=".5" d="M181.4 58.7l-13.1-8.5L201.4-.9l13.2 8.5z"/><path fill="#8c6356" fill-opacity=".5" d="M267.9 74.6l-43.6 3.8-3.1-35.8 43.6-3.8z"/><path fill="#313235" fill-opacity=".5" d="M270.5 153.3l-29 11.7-10.5-26 29-11.8z"/><path fill="#b6bab3" fill-opacity=".5" d="M68.4 145l44-60.8 5.1 3.7-44 60.7z"/><path fill="#19202a" fill-opacity=".5" d="M-26 15.5l73-35.6L74.4 36l-73 35.6z"/></svg>