<svg xmlns="http://www.w3.org/2000/svg" viewBox="0 0 200 100"><path fill="#534948" d="M0 0h200v100H0z"/><g fill-opacity=".5"><path fill="#c9cad0" d="M163.5 59.5l-50-32-28 88z"/><path fill="#cbae90" d="M36.5 74.5l101 26-82 6z"/><path fill="#090511" d="M28.5 29.5l46 49 7-86z"/><path fill="#1c201c" d="M194.5-15.5l-98 41 119 24z"/><path fill="#daeefb" d="M117.5 75.5l-16-38 42 32z"/><path fill="#68261a" d="M66.5 81.5l20-30 58 49z"/><path fill="#371108" d="M185.5 108.5l2-66-46 40z"/><path fill="#c5c3b9" d="M8.5 70.5l8 10 18-37z"/><path fill="#bcc3c3" d="M3.5 58.5l31-27-37 17z"/><path fill="#0c0005" d="M10.5 115.5l37-23-63-21z"/><path fill="#eae0e1" d="M139.5 34.5l5 12-24-18z"/><path fill="#94a4b0" d="M115.5-1.5l-25 47-5-18z"/><path d="M191.5 102.5l23-6-9-80z"/><path fill="#b3aa9e" d="M21.5-15.5l48 17-24 11z"/><path fill="#06060a" d="M47.5 63.5l-34 18 57-65z"/><path fill="#171d2a" d="M3.5 45.5l35-37-54-17z"/><path fill="#252a2b" d="M197.5 1.5l-108 39 36-56z"/><path fill="#6b747d" d="M110.5 3.5l32 13 22-7z"/><path fill="#571308" d="M97.5 35.5l13 19-25 10z"/><path fill="#c26a55" d="M82.5 91.5l12-36 14 18z"/><path fill="#c9dae3" d="M134.5 47.5l-12 29-20-17z"/><path fill="#070f1f" d="M16.5 43.5l34-15-38 33z"/><path fill="#9e7c72" d="M130.5 28.5l-30 7 37 16z"/><path fill="#6b8193" d="M95.5 106.5l59-37-7-24z"/><path fill="#140406" d="M152.5 44.5l24 31 1-22z"/><path fill="#9e8469" d="M176.5 82.5l-9-11 25 9z"/><path fill="#62463b" d="M128.5 75.5l-48 2 81 24z"/><path fill="#2e1914" d="M65.5 55.5l34 19-54-1z"/><path fill="#c7ccce" d="M53.5 56.5l-3 10-9 7z"/><path fill="#896a4e" d="M139.5 103.5l-111-25 42 37z"/><path fill="#8a8c8d" d="M47.5 32.5l-23 20 1 14z"/><path fill="#7893af" d="M92.5 48.5l-18 10 18-21z"/><path fill="#091419" d="M215.5-15.5l-17 29-83-12z"/><path fill="#c3b3b1" d="M68.5 79.5l-9-4 9-4z"/><path fill="#080400" d="M114.5 31.5l-13 2 15-34z"/><path fill="#97655e" d="M142.5 112.5l21-29 14 4z"/><path fill="#5e6b78" d="M164.5 13.5l51 12-22-13z"/><path fill="#6b736d" d="M197.5 63.5v-16l-31-7z"/><path fill="azure" d="M109.5 37.5h-8l2-3z"/><path fill="#978181" d="M104.5 23.5l10-25-23 10z"/><path fill="#cbcbcd" d="M78.5 90.5l-10-7 24 6z"/><path fill="#89776c" d="M23.5 72.5l-17-2 4 16z"/><path fill="#a5b6c5" d="M102.5 82.5l25 18-15-4z"/><path d="M133.5 97.5l-7-8-12 3z"/><path fill="#693d2f" d="M123.5 33.5l-13 3 5 11z"/><path fill="#211415" d="M72.5 42.5l16-1-24-52z"/><path fill="#875e63" d="M54.5-4.5l8 16-8 16z"/><path fill="#000300" d="M103.5 83.5l-9 4 9 3z"/><path fill="#889ca6" d="M193.5 79.5l-14 36 11-5z"/><path fill="#1c0c0c" d="M136.5 84.5l37-2-12-15z"/><path fill="#95b5d6" d="M136.5 78.5l16-23 7 8z"/><path fill="#becfd7" d="M107.5 70.5l3-18 33 26z"/><path fill="#5f3e4d" d="M58.5 46.5l19 20-9-35z"/><path fill="#000002" d="M192.5 98.5l23 6-10-87z"/><path fill="#251e21" d="M11.5 97.5l41-41-2-33z"/><path fill="#537db3" d="M92.5 40.5l-1-18-12-13z"/><path fill="#242d34" d="M49.5 19.5l-32 3-30 31z"/><path fill="#2a0d02" d="M158.5 102.5l24 11 6-31z"/><path fill="#815f61" d="M-3.5 21.5l10-4 7 19z"/><path fill="#45535b" d="M27.5 17.5l13 35-28-35z"/><path fill="#312121" d="M163.5 58.5l-22-16h22z"/><path fill="#514034" d="M130.5 11.5l52 17-62 1z"/><path fill="#38060e" d="M17.5 46.5l-2 14-16 13z"/><path fill="#8b7665" d="M28.5 91.5l-5 7 1-15z"/><path fill="#924f08" d="M143.5 115.5l12-22-14-5z"/><path fill="#502723" d="M66.5 72.5l44-18h-39z"/><path fill="#9b9a96" d="M54.5 57.5l-21 24 12-4z"/><path fill="#897c89" d="M54.5 33.5l-11 2 14-7z"/><path fill="#094d66" d="M80.5 10.5v10l22-24z"/><path fill="#af5254" d="M83.5 73.5h21l-25 12z"/><path fill="#7a736a" d="M32.5 84.5l-3-10 15-11z"/><path fill="#b9aca3" d="M129.5 75.5l12-35-19 20z"/><path fill="#828c97" d="M69.5 115.5l-23-27 76 21z"/><path fill="#c2c3bf" d="M123.5 34.5l5-4 9 3z"/><path fill="#302111" d="M58.5 77.5l-12-1 4-11z"/><path fill="#060a09" d="M12.5 112.5l51-8-47-14z"/><path fill="#b79992" d="M133.5 89.5l9 2-12 2z"/><path fill="#c6dbe4" d="M107.5 34.5h5l-3 10z"/><path fill="#cf1e47" d="M11.5 93.5l-7 15 12-3z"/><path fill="#ce7450" d="M103.5 77.5l-16-13 12-4z"/><path fill="#0e0600" d="M95.5 115.5l-34-21 15 17z"/><path fill="#040004" d="M96.5 43.5l4-10-1 14z"/><path fill="#936471" d="M84.5 28.5l-5 6 1 11z"/><path fill="#1e4660" d="M121.5 76.5l3 7 10-10z"/><path fill="#cedbe0" d="M109.5 67.5l19-17-17-2z"/><path fill="#999797" d="M30.5 30.5l-13 17-18 3z"/><path fill="#000008" d="M136.5 34.5l14-1-13-5z"/><path fill="#130c01" d="M15.5-15.5l-14 34-17-5z"/><path fill="#000003" d="M24.5 12.5l1-17 5 22z"/><path fill="#0d1015" d="M78.5 62.5l7-1-9 23z"/><path fill="#3f2a19" d="M138.5 13.5l71 10-7 19z"/><path fill="#2d0700" d="M132.5 115.5l11-25-8 5z"/><path fill="#04161c" d="M71.5 61.5l-18 13 9-26z"/><path fill="#09161f" d="M68.5 5.5l-28 59 26-29z"/><path fill="#9a6d46" d="M158.5 110.5l-59 5-27-28z"/><path fill="#806d60" d="M184.5 74.5l10 10-2-20z"/><path fill="#2a272f" d="M85.5 24.5l-38 1 39 12z"/><path fill="#162431" d="M60.5 15.5l-30 32 3-23z"/><path fill="#a6c3db" d="M115.5 69.5l9 13-8-6z"/><path fill="#977871" d="M116.5 47.5l21-11-17-7z"/></g></svg>