<svg xmlns="http://www.w3.org/2000/svg" viewBox="0 0 400 200"><path fill="#514946" d="M0 0h400v200H0z"/><g stroke-opacity=".5" fill="none" stroke-width=".8"><path stroke="#f9ffff" d="M324 120q-89.7 66.6-107-44.3"/><path stroke="#edffff" d="M324.2 121.8q-65.4 62-120-43.6"/><path stroke="#f2ffff" d="M217.7 70.6Q214 182.4 314 130.8"/><path stroke="#f5ffff" d="M317.2 119.7Q244.2 178 215 72.4m90.5 151.8Q194.8 175 78 157.1"/><path stroke="#f9feff" d="M203.2 157.2q55.3-89.6 114.3-41.6"/><path stroke="#f2f1f0" d="M327.6 190.3q-21.8 34-227-31"/><path stroke="#fbffff" d="M291 145.6q-76.9 24.6-69.5-72.3"/><path stroke="#e5ffff" d="M201.9 72.8q68.6 97.3 120 45.4"/><path stroke="#eaf8ff" d="M204.9 153.1q33.9-86.5 116.8-27.3"/><path stroke="#f1fbff" d="M252.8 174.6q-69-70.3 25.4-99.8"/><path stroke="#f1ffff" d="M303.1 129.7q-51.6 14.7-94.6-61.2"/><path stroke="#edffff" d="M310.2 130.9Q265 164.2 202.7 80.2"/><path stroke="#fffffc" d="M277.8 71.3q16.4 28.2-79.7 84"/><path stroke="#f8ffff" d="M279.7 152.8q-76.2 5-59-78.5"/><path stroke="#fffffc" d="M275.7 70q18 29-78.8 79.1"/><path stroke="#fff3e8" d="M196.2 159q106.1-54.3 75.7-90.7"/><path stroke="#f4feff" d="M282.6 75.5q-20 91.6-82.4 47.8"/><path stroke="#cbe7f7" d="M300.3 142.5Q258.4 161.8 175 38.3"/><path stroke="#e9fdff" d="M315 125.8q-60.5-47.6-102.3 22"/><path stroke="#e0f2f8" d="M74.5 149.8q97.9 33.3 259 64.5"/><path stroke="#e9ffff" d="M312.5 134.3q-89.6 46.3-91.7-55.4"/><path stroke="#dff" d="M209.2 114.1q23.7 61.6 101 4.9"/><path stroke="#d7f8ff" d="M212 137.2q26-61.3 104.5-21.4"/><path stroke="#d9ffff" d="M313.4 116.9q-74.2 67.8-98.1-29.2"/></g></svg>