<svg xmlns="http://www.w3.org/2000/svg" viewBox="0 0 100 50"><path fill="#534949" d="M0 0h100v50H0z"/><g fill-opacity=".5"><path fill="#cbc4c4" d="M28.5 65.5l51-33-15-21z"/><path fill="#09030d" d="M15.5 13.5l23-12 1 40z"/><path fill="#d8eff8" d="M57.5 37.5l13-4-18-16z"/><path fill="#1a1f1b" d="M90.5-15.5l-40 27 65 15z"/><path fill="#bc9f81" d="M38.5 65.5l77-1-100-29z"/><path fill="#673124" d="M79.5 51.5l-31-21-26 7z"/><path fill="#33160f" d="M86.5 23.5l-14 19 43 19z"/><path fill="#0a0001" d="M19.5 44.5l-35-9 36 30z"/><path fill="#b4a8a1" d="M3.5 36.5l3 7 9-18z"/><path fill="#878d98" d="M66.5-15.5l-24 42 7-35z"/><path fill="#cbd1d4" d="M11.5 18.5l-27 15v14z"/><path fill="#1c1921" d="M36.5 19.5l8-35-44 67z"/><path fill="#b9ada3" d="M23.5 5.5l37-21h-62z"/><path fill="#1b212d" d="M8.5-15.5l9 28-33 20z"/><path d="M115.5 24.5l-21 41 7-51z"/><path fill="#6a8ca7" d="M74.5 24.5l-18 21 25-16z"/><path fill="#7b746b" d="M90.5 38.5l7-6-2 16z"/><path fill="#999ea1" d="M21.5 18.5l-4 9-12 5z"/><path fill="#05121c" d="M115.5 8.5l-56-8 41-14z"/><path fill="#5b5654" d="M76.5 13.5l22-5-41-8z"/><path fill="#987570" d="M51.5 20.5l9-6 9 10z"/><path d="M50.5 16.5l8-14-3 14z"/><path fill="#b05440" d="M53.5 38.5l-8-15-2 18z"/><path fill="#01070f" d="M10.5 21.5l8-1-14 10z"/><path fill="#3c3d44" d="M48.5 40.5l15 2 3-5z"/><path fill="#c8d4dc" d="M54.5 32.5l15-10-8 16z"/><path fill="#3c1c17" d="M37.5 37.5l-11-3 26-11z"/><path fill="#957966" d="M59.5 58.5l-26-23-10 8z"/><path fill="#2e1015" d="M85.5 34.5l13-1-26-13z"/><path fill="#a0b3c6" d="M51.5 41.5l29 21-10 3z"/><path fill="#845a52" d="M89.5 36.5l-18 16 16-8z"/><path fill="#6b839c" d="M48.5 11.5l-2 14-5-18z"/><path fill="#c8d0d3" d="M65.5 33.5l-14-15 4 9z"/><path fill="#1e100a" d="M69.5 40.5l19 1-7-7z"/><path fill="#48180e" d="M53.5 26.5l-5-12 1 16z"/><path fill="#9a9597" d="M17.5 39.5h4l5-10z"/><path fill="#654b5b" d="M28.5 23.5l6-6 2 10z"/><path fill="#1a1d20" d="M14.5 30.5l22-17-19 25z"/><path fill="#1d1e1a" d="M66.5 13.5l-9-12-6 14z"/><path fill="#242432" d="M38.5 13.5l3-8 4 18z"/><path fill="#baced8" d="M70.5 39.5l-19-8 7-6z"/><path fill="#8e8880" d="M9.5 29.5l14-12-15 22z"/><path fill="#879ca4" d="M96.5 40.5l-2 25-4-9z"/><path fill="#47292d" d="M7.5 53.5l-4-22-12-9z"/><path fill="#3f2b1c" d="M115.5 27.5l-48-21 43 6z"/><path fill="#665759" d="M25.5 17.5l7-12-3-10z"/><path fill="#673136" d="M48.5 33.5l5 12-20-6z"/><path fill="#2e0e04" d="M95.5 65.5h-34l32-24z"/><path fill="#8c98a2" d="M79.5 28.5l-16 1 9 7z"/><path fill="#949594" d="M13.5 17.5l-29 14v18z"/><path fill="#886e57" d="M14.5 39.5l29 20 37-5z"/><path fill="#b06457" d="M40.5 38.5l14-2-10 8z"/><path fill="#392629" d="M-15.5 34.5v18l27-26z"/><path fill="#705756" d="M54.5 27.5l-3-6-1 14z"/><path fill="#414353" d="M41.5 2.5l-1 12 19-19z"/><path fill="#0a1818" d="M34.5 30.5l-5-6-4 14z"/><path fill="#5e6b75" d="M65.5 4.5l12-1 4 4z"/><path fill="#9a8f7b" d="M84.5 38.5h5l-5-2z"/><path fill="#847374" d="M52.5 12.5l4-16-21-7z"/><path fill="#d0dcce" d="M35.5 43.5h4l-7-2z"/><path fill="#d79c7b" d="M56.5 34.5h-8l2 3z"/><path fill="#884e23" d="M93.5 65.5l-24-26 4 26z"/><path fill="#6b5a4f" d="M11.5 49.5l9-15-9 8z"/><path fill="#754f54" d="M61.5 24.5l-6-3 3-1z"/><path fill="#958f8c" d="M7.5 38.5l-7-1 11-8z"/><path fill="#a59094" d="M23.5 34.5l2-7 2 1z"/><path fill="#13121c" d="M23.5 30.5l10-16-14 9z"/><path d="M59.5 47.5h5l1-4z"/><path fill="#626159" d="M-11.5 8.5l-4 8 29-7z"/><path fill="#23181e" d="M10.5 16.5l-9-32-15 4z"/><path fill="#1c1b0e" d="M39.5 36.5l-1-6 10 6z"/><path fill="#000f0f" d="M100.5 26.5l-5 24 20-8z"/><path fill="#a69392" d="M64.5 14.5l-4 6h13z"/><path fill="#5c6268" d="M69.5 46.5l-13-9 10 1z"/><path fill="#724e52" d="M34.5 32.5l6-6-2-4z"/><path fill="#2a1a04" d="M27.5 58.5l-12 3-2-24z"/><path fill="#101c20" d="M53.5 45.5h-3l-3-6z"/><path fill="#847f85" d="M99.5 23.5l-6 11 4-2z"/><path fill="#00181e" d="M-15.5 34.5l16 30 3-25z"/><path fill="#59413b" d="M63.5 43.5l-16-2 9-4z"/><path fill="#050110" d="M11.5 42.5l-1 17-4-16z"/><path fill="#a9b3b2" d="M58.5 15.5l-5 8-1-3z"/><path fill="#cd785f" d="M47.5 34.5l2-4-6 3z"/><path fill="#5b6882" d="M70.5 26.5l-2 8 6-6z"/><path fill="#111d24" d="M26.5 6.5l-17 16 19-10z"/><path fill="#290601" d="M51.5 25.5l-4-1 2-7z"/><path fill="#a7aaa9" d="M35.5 47.5l48 16-56 2z"/><path fill="#2a2723" d="M83.5 30.5l-12-9 24 9z"/><path fill="#606a6f" d="M115.5 5.5l-27 2 27 6z"/><path fill="#c2cedb" d="M59.5 39.5l4-14-8 6z"/><path fill="#a8a7a4" d="M51.5 8.5l4-7-6 6z"/><path fill="#292425" d="M25.5-6.5l11-2 12 18z"/><path fill="#00000a" d="M6.5 19.5l-22-3v10z"/><path fill="#aca59f" d="M63.5 29.5l4-6v17z"/><path fill="#9babc0" d="M76.5 26.5l-2 8 5-5z"/><path fill="#514136" d="M61.5 9.5l29 1-4 8z"/><path fill="#5b7785" d="M40.5 22.5l4 2-6 5z"/><path fill="#25231c" d="M57.5 13.5l-8 2-1-4z"/><path fill="#764b59" d="M3.5 5.5l4 14-6-10z"/><path fill="#595656" d="M19.5 7.5l-4 12-5-10z"/></g></svg>