<svg xmlns="http://www.w3.org/2000/svg" viewBox="0 0 16 8"><path fill="#544949" d="M0 0h16v8H0z"/><g fill-opacity=".5"><path fill="#ebe1e6" d="M10.5 3.5l-3-1 4 3z"/><path fill="#ad9690" d="M-8.5 13.5l22-10-16 20z"/><path fill="#2a241f" d="M31.5 4.5l-27-11 25 30z"/><path fill="#332629" d="M-15.5-8.5l22 4 2 11z"/><path fill="#afa7ae" d="M3.5.5l6-11 19-5z"/><path d="M2.5 6.5h-18l6 13z"/><path fill="#65656e" d="M3.5 1.5l-3 2v2z"/><path fill="#5b555d" d="M7.5 5.5l17-21h-14z"/><path fill="#16171c" d="M8.5 1.5l23-6v-8z"/><path fill="#9e8173" d="M3.5 5.5l25 11-14 7z"/><path fill="#30201e" d="M.5 6.5l5-2 3-8z"/><path fill="#827263" d="M14.5 3.5l17 17v-16z"/><path fill="#4b372f" d="M21.5 5.5h-12l22 6z"/><path fill="#7f757c" d="M6.5 1.5l5-10 16-7z"/><path fill="#46464b" d="M14.5 3.5l-11-15 8 5z"/><path fill="#716b6d" d="M2.5 3.5l-2 2-6-2z"/><path fill="#231512" d="M12.5 6.5l-12 17 9-7z"/><path fill="#1e2633" d="M3.5 2.5l-9-18-6 3z"/><path fill="#63534f" d="M14.5 6.5l-23 6 8 11z"/><path fill="#dbd1d5" d="M8.5 5.5h2l-1-1z"/><path fill="#886c64" d="M8.5 5.5l-12 18h-12z"/><path fill="#25180e" d="M15.5 2.5l11-7 1 7z"/><path fill="#9b857e" d="M3.5 6.5l13 3 5 7z"/><path fill="#0f0a16" d="M9.5 1.5l6-13-6-4z"/><path fill="#494850" d="M11.5 1.5l1-9-9-5z"/><path fill="#241719" d="M16.5-15.5l-12 19 3-11z"/><path fill="#4b4646" d="M2.5 6.5h-6l1-3z"/><path fill="#82797b" d="M11.5 3.5l-1 20h-8z"/><path fill="#655350" d="M11.5 6.5l-6 17-17-5z"/><path fill="#231205" d="M14.5 7.5l-11 14 15-4z"/><path fill="#4f4241" d="M10.5 6.5l1 17 14-11z"/><path fill="#453a3e" d="M7.5 1.5l-11-11h5z"/><path fill="#5d4845" d="M6.5 4.5v-3l1 2z"/><path fill="#a8a4aa" d="M11.5 4.5v1l-1-1z"/><path fill="#73717a" d="M1.5 3.5l-6 6-9-3z"/><path fill="#3d3025" d="M27.5 11.5l-14-8 18 20z"/><path fill="#251d18" d="M15.5.5l5-12-24 5z"/><path fill="#422f25" d="M21.5 17.5l-18-10 20 4z"/><path fill="#3b3c46" d="M4.5 3.5l-6-3-3-12z"/><path fill="#21232e" d="M-13.5 10.5l3-9 12-2z"/><path fill="#7a5f53" d="M5.5 23.5v-17l13 16z"/><path fill="#2a1f1b" d="M13.5 5.5l-9 18h7z"/><path fill="#5b4c49" d="M12.5 7.5l15 9-25 7z"/><path fill="#7b7883" d="M9.5.5l-9-9 3-3z"/><path fill="#474039" d="M15.5 1.5l14-5 2 18z"/><path fill="#6d5f5d" d="M12.5 5.5l-8 13-7-3z"/><path fill="#ae9589" d="M4.5 7.5l-12 14 13 2z"/><path fill="#674d45" d="M7.5 3.5h-1l2 2z"/><path fill="#150e0e" d="M1.5 7.5l-17 1 27 6z"/><path fill="#5b4e51" d="M8.5.5l-12-15 5-1z"/><path fill="#dacfd1" d="M9.5 3.5v1l1-1z"/><path fill="#271b1c" d="M5.5.5v2h-2z"/><path fill="#514c51" d="M1.5 4.5l-14 3-1 12z"/><path fill="#3d3a42" d="M7.5 1.5l14-15-3 9z"/><path fill="#88716b" d="M9.5 7.5l5 6 8-1z"/><path fill="#464651" d="M2.5.5l-18 2 10 3z"/><path fill="#392e32" d="M17.5-13.5l-3 9-11 6z"/><path fill="#716865" d="M14.5 3.5l11 1 6 6z"/><path fill="#312f34" d="M11.5.5l3-9 12-5z"/><path fill="#8f8e94" d="M11.5 3.5l-1 2v-3z"/><path fill="#5f5248" d="M16.5 5.5l6 1-1-8z"/><path fill="#47464c" d="M10.5 2.5l9-14-8-3z"/><path fill="#2d1d1c" d="M2.5 4.5l5-6-2 5z"/><path fill="#5a555a" d="M3.5 2.5h-11l-8 13z"/><path fill="#817b7e" d="M1.5 4.5l-16-13v11z"/><path fill="#2f2423" d="M12.5 6.5l1-2v1z"/><path fill="#42373a" d="M5.5.5l7-12-4-4z"/><path fill="#868186" d="M1.5 5.5l-12 2-5 6z"/><path fill="#6a5450" d="M10.5 5.5h-3l3 1z"/><path fill="#432a20" d="M2.5 7.5l11 13-6 3z"/><path fill="#574a4a" d="M11.5 6.5l-9 17-3-5z"/><path fill="#5f5149" d="M14.5 6.5l-2 8-6 4z"/><path fill="#52515c" d="M1.5 2.5l-17 4 6 4z"/><path fill="#7f7b84" d="M3.5.5l2-16 2 11z"/><path fill="#34333a" d="M11.5.5l12-16h-12z"/><path fill="#432c26" d="M4.5 4.5v-2l4 3z"/><path fill="#252631" d="M3.5 1.5l-12-6-7-11z"/><path fill="#251514" d="M5.5 4.5v-3l1 3z"/><path fill="#373843" d="M.5 2.5l-9-12-4 12z"/><path fill="#736564" d="M4.5.5l10-16-7 3z"/><path fill="#382d2f" d="M4.5 1.5l12-13-5-1z"/><path fill="#524446" d="M6.5 1.5v3l1-1z"/><path fill="#493b34" d="M14.5 5.5l-10 18-3-5z"/><path fill="#75696b" d="M7.5 2.5l1-17 3 8z"/><path fill="#4d4341" d="M2.5 6.5h-13l-5-6z"/><path fill="#5a5055" d="M7.5.5l12-16-11 7z"/><path fill="#473b3d" d="M2.5-13.5v16l3-11z"/><path fill="#4c454c" d="M2.5.5l9-14-6 1z"/><path fill="#5c463e" d="M5.5 5.5l-6 11-8 2z"/><path fill="#433734" d="M3.5 7.5l-8 15 13-6z"/><path fill="#90756f" d="M4.5 23.5l3-16-6 3z"/><path fill="#49372c" d="M30.5-9.5l-6-5-11 27z"/><path fill="#655959" d="M10.5 6.5l1 13 5 4z"/><path fill="#434042" d="M1.5 6.5h-17v-5z"/><path fill="#726f7a" d="M8.5.5l8-16h-6z"/><path fill="#3d3940" d="M11.5 1.5l-17-17h8z"/><path fill="#2c241b" d="M19.5-15.5l12 24-44-24z"/><path fill="#615044" d="M31.5 13.5l-17-7 17 2z"/><path fill="#4f4140" d="M12.5 7.5l4 4-5 1z"/><path fill="#251e1e" d="M-3.5 17.5l-2-14 21 13z"/></g></svg>