<svg xmlns="http://www.w3.org/2000/svg" viewBox="0 0 400 200"><path fill="#514946" d="M0 0h400v200H0z"/><g fill-opacity=".5"><path fill="#e2e7ee" d="M257 55.5L185.2 157l142.1-20.3z"/><path fill="#d2b899" d="M74.2 149.2l217.2 56.3-175 18.7z"/><path fill="#06030b" d="M61.7 54l98.5-64.2-6.3 173.5z"/><path fill="#d4eef8" d="M208.6 64.8l76.6 93.8-64.1-14z"/><path fill="#281f1a" d="M275.8-.8h148.4L346.1 218z"/><path fill="#b6b4a7" d="M33.6 158.6l51.6-84.4-82.9 75z"/><path fill="#c0cdd2" d="M8.6 119.5l39-46.8-71.8 32.8z"/><path fill="#1a100e" d="M113.3 64.8L57 224.2h-81.2z"/><path fill="#050700" d="M282 41.4l-87.5 31.3 32.8-62.5z"/><path fill="#9e3a1d" d="M180.5 99.2l-22 70.3 70.4-18.7z"/><path fill="#94aab3" d="M172.7 96L232-4l-56.2 54.8z"/><path d="M424.2 188.3l-45.3 36 26.6-164.1z"/><path fill="#210000" d="M316.4 182l-39-17.2L357 97.7z"/><path fill="#b7afa0" d="M47.7-24.2l43.7 48.4 43.8-21.9z"/><path fill="#151f28" d="M-24.2-8.6L80.5 14.8 3.9 97.7z"/><path fill="#8c8081" d="M332 129L196 79l64.2-26.7z"/><path fill="#7c8f9e" d="M285.2 89.8l43.7 31.3-150 103.1z"/><path fill="#aaa99e" d="M113.3 111.7l-67.2 64 39-17.1z"/><path fill="#000e15" d="M424.2-24.2l-26.5 51.5-167.2-25z"/><path fill="#201718" d="M8.6 224.2l-23.4-73.4 128 36z"/><path fill="#6c6d65" d="M386.7 127.3L404 94.5 290 72.7z"/><path fill="#3b1911" d="M169.5 146l-84.3 4.8 120.3-61z"/><path fill="#000a09" d="M313.3 77.3l-73.5-25h48.5z"/><path fill="#000212" d="M43 83.6l32.8-6.3L21 130.5z"/><path fill="#896a4c" d="M129 224.2l96.8-28.1-176.6-48.4z"/></g></svg>