<svg xmlns="http://www.w3.org/2000/svg" viewBox="0 0 2000 1000"><path fill="#514946" d="M0 0h2000v1000H0z"/><g fill-opacity=".5"><path fill="#dee2e9" d="M1644.5 691.4l-711 93.8 328.2-531.3z"/><path fill="#cfb698" d="M660.2 1121l906.2-70.2L308.6 730.5z"/><path fill="#07040b" d="M277.3 261.7l507.9-289 7.8 875z"/><path fill="#2a241d" d="M1152.3-121l656.3 1242 281.2-1242z"/><path fill="#d7f0fb" d="M1035.2 316.4l367.1 461-296.8-62.6z"/><path fill="#bdbaac" d="M418 379L27.3 754l156.3 15.5z"/><path fill="#bacacd" d="M4 621l257.7-273.3L-58.6 496z"/><path fill="#080105" d="M-121 1019.5l226.5 78.2L543 449.2z"/><path d="M1316.4 269.5L1011.7 332 1129 58.6z"/><path fill="#859ea8" d="M879 222.7l296.8-273.5-320.3 578.1z"/><path fill="#9f3d22" d="M785.2 839.8l406.2-31.2L918 527.3z"/><path d="M2121 910.2L2027.4 246l-117.1 820.3z"/><path fill="#8498a5" d="M1629 589.8l-703.2 531.3 468.7-695.3z"/><path fill="#200000" d="M1394.5 824.2l164 109.4 250-468.8z"/><path fill="#b5ab9c" d="M472.7 121l414-242H144.5z"/><path fill="#171f28" d="M418 97.7l-539-172L19.4 480.6z"/><path fill="#8c7063" d="M1144.5 496l547-85.8L1097.6 293z"/><path fill="#1a0f0b" d="M-121 738.3l562.4 164L332 1121.1z"/><path fill="#001015" d="M2074.2-121l-78.1 265.5L1144.5 4z"/><path fill="#511609" d="M1113.3 543L996 402.3 753.9 691.4z"/><path fill="#070210" d="M183.6 441.4L3.9 722.7l414-359.4z"/><path fill="#070a0d" d="M238.3 699.2l461-578.1L496 605.5z"/><path fill="#cad6d9" d="M1261.7 738.3l70.3-164-336-195.4z"/><path fill="#727872" d="M1957 636.7l47-171.9-343.8-54.6z"/><path fill="#5d707b" d="M1160.2 27.3l500 78.2-273.5 54.7z"/><path fill="#38221d" d="M683.6 386.7L449.2 754 918 722.7z"/><path fill="#b2bdbe" d="M519.5 589.8L339.8 816.4 449.2 754z"/><path fill="#84919d" d="M1605.5 636.7l-250 179.7-39-523.4z"/><path fill="#482a1d" d="M1152.3 925.8L1004 628.9l429.7 390.6z"/><path fill="#9b9b96" d="M105.5 683.6V871L332 441.4z"/><path fill="#8f7156" d="M1925.8 855.5v-164l-234.4 85.8z"/><path fill="#866749" d="M1550.8 1105.5l-1336-382.8 461 398.4z"/><path fill="#bbb9b8" d="M699.2 777.3l-23.4-62.5-101.6 47z"/><path fill="#adb4bb" d="M1168 324.2l-132.8 125-15.7-78.1z"/><path fill="#290400" d="M1886.7 816.4l-70.3 304.7-211-117.2z"/><path fill="#6c93b3" d="M730.5 582l203-101.5-39-62.5z"/><path fill="#8e4c24" d="M1855.5 871l-406.3 179.8-46.9-132.8z"/><path fill="#1f1716" d="M722.7-97.7l179.6 562.5L629 74.2z"/><path fill="#1f0d04" d="M1043 269.5l-78.2-46.8v289z"/><path fill="#746351" d="M191.4 222.7L582 27.3l47 125z"/><path fill="#1e241d" d="M1113.3 238.3l492.2 156.2-468.8-375z"/><path fill="#b3c3cd" d="M1035.2 824.2l140.6 86h-101.6z"/><path fill="#5b7281" d="M2121 230.5l-421.8-70.3 203.1-39.1z"/><path fill="#595279" d="M589.8 472.7l78.2 62.5 31.2-250z"/><path fill="#ea834e" d="M949.2 691.4l78.1-101.6L879 644.5z"/><path fill="#000001" d="M1886.7 1121l125-687.4 109.4 468.7z"/><path fill="#b7a090" d="M1293 668l23.4-351.6 125 62.5z"/><path fill="#722f22" d="M644.5 699.2L793 457l-47 382.8z"/><path fill="#005670" d="M1004-35.2L832 207l-46.8-62.5z"/><path fill="#3b0907" d="M1527.3 496l320.4 109.5-31.3 195.3z"/><path fill="#819bab" d="M1894.5 1011.7l47-250-62.6 117.2z"/><path fill="#b9b8b5" d="M886.7 957l218.8-15.6-422-117.2z"/><path fill="#887371" d="M1035.2 222.7l179.6-343.8H730.5z"/><path fill="#001416" d="M714.8 668L543 683.6 613.3 496z"/><path fill="#282317" d="M1644.5 386.7l429.7 93.8-46.9-281.3z"/><path fill="#445b6a" d="M629 269.5L261.6 402.3H457z"/><path fill="#7fa2c0" d="M1324.2 800.8L1504 519.5l125 70.3z"/><path fill="#b4544a" d="M910.2 730.5L996 878.9l-211-54.7z"/><path fill="#536a7e" d="M1504 582l-86-211-47 383z"/><path fill="#bdd2da" d="M1300.8 504l-109.4 281.2L1035.2 582z"/><path fill="#8e6969" d="M129 371L74.1 175.9l-62.5 23.4z"/><path fill="#6590b7" d="M964.8 293l-62.5 70.3-78-234.4z"/><path fill="#2d0000" d="M1074.2 425.8l7.8-23.5-46.8-31.2z"/><path fill="#897864" d="M332 550.8L19.5 730.5 175.8 793z"/><path fill="#788a96" d="M824.2 988.3l-281.2-86-109.4 148.5z"/><path fill="#132c3a" d="M1300.8 824.2l-101.6-46.9 101.6-31.2z"/><path fill="#a81f38" d="M144.5 980.5L113.3 1121 82 863.3z"/><path fill="#85887d" d="M222.7 910.2l31.2-86v125z"/><path fill="#a17c5b" d="M1636.7 691.4l86 93.8 62.5-23.5z"/><path fill="#051821" d="M527.3 97.7l-250 289 265.7-86z"/><path fill="#9a6a3d" d="M1043 1121h609.3l-1078-289z"/><path fill="#d98054" d="M941.4 668l78.1 117.2 86-70.4z"/><path fill="#93948f" d="M82 566.4l203.2-226.6L-43 488.3z"/><path fill="#bf9699" d="M1402.3 910.2l-101.5 31.2 15.6-54.7z"/><path fill="#aec6db" d="M1472.7 1027.3l-172 93.8-156.2-171.9z"/><path fill="#a5adb4" d="M535.2 535.2l23.4 31.2L480.5 668z"/><path fill="#12181f" d="M425.8 402.3L418 714.8l343.7-515.6z"/><path fill="#070b08" d="M1105.5 347.7l-86-23.5 132.8-289z"/><path fill="#e5ffff" d="M996 371l31.3-23.3 54.7 7.8z"/><path fill="#1e1718" d="M855.5 527.3l-125 156.3 156.2 86z"/><path fill="#130505" d="M1269.5 964.8l39-101.5-156.2 70.3z"/><path fill="#2d2127" d="M660.2-19.5l78-101.6 257.9 351.6z"/><path fill="#4b4336" d="M1402.3 121l-218.7 109.5 726.6 179.7z"/><path fill="#040d15" d="M97.7 433.6l125-93.8-343.8 93.8z"/><path fill="#9d9389" d="M1332 816.4L1105.5 918h109.3z"/><path fill="#0b0a00" d="M19.5-121L-82 316.3 82 50.8z"/><path fill="#1c0f07" d="M1871 879l-343.7-86 54.7-101.6z"/><path fill="#2e201c" d="M1410.2 433.6l85.9-39L1668 605.4z"/><path fill="#bbd8e1" d="M1089.8 371l125-70.2-70.3 15.6z"/><path fill="#5a2e00" d="M1238.3 1121l171.9-226.5 273.4 211z"/><path fill="#170f00" d="M504 1082L339.7 847.7 207 1082z"/><path fill="#88625b" d="M1222.7 316.4l125 148.4-226.6 7.9z"/><path fill="#49647f" d="M168 214.8L207-3.9l31.3 226.6z"/><path fill="#c19693" d="M1621 910.2V832l47 23.5z"/><path fill="#a0a69e" d="M1058.6 89.8l-15.6 93.8L886.7 246z"/><path fill="#592c37" d="M-58.6 574.2L82 652.3l78.2-70.3z"/><path fill="#070000" d="M824.2 457V332l54.7 54.7z"/><path fill="#001620" d="M105.5 1121L43 808.7-121 832z"/><path fill="#291206" d="M1097.7 925.8L957 871l39-46.9z"/><path fill="#2d2515" d="M582 785.2l-140.6-31.3 195.3-218.7z"/></g></svg>