<svg xmlns="http://www.w3.org/2000/svg" viewBox="0 0 100 50"><path fill="#534949" d="M0 0h100v50H0z"/><g fill-opacity=".5"><path fill="#cec8c9" d="M80.5 32.5l-17-17-37 50z"/><path fill="#0a060f" d="M37.5 39.5l1-40-24 14z"/><path fill="#d9f0fe" d="M70.5 39.5l-19-24 4 19z"/><path fill="#8f6b5a" d="M67.5 37.5l-27 28-25-29z"/><path fill="#2c2520" d="M115.5 4.5l-55-20 33 81z"/><path fill="#0b0002" d="M15.5 65.5l5-20-36-12z"/><path fill="#bcb6b0" d="M19.5 21.5l-10 16h-9z"/><path fill="#cbd1d2" d="M12.5 18.5l-15 14-13-1z"/><path fill="#62312b" d="M31.5 20.5l7 21 48 12z"/><path fill="#93a1aa" d="M57.5-1.5l-13 15 1 10z"/><path fill="#b2a188" d="M22.5 38.5l12 27 35-15z"/><path fill="#1a2426" d="M112.5.5l-65 17 20-33z"/><path fill="#beb2a7" d="M8.5-15.5l24 16-10 5z"/><path fill="#191f2c" d="M7.5-15.5l9 27-32 22z"/><path fill="#0b0b11" d="M24.5 14.5l4 10-22 22z"/><path fill="#1c0000" d="M78.5 46.5l7-18-14 11z"/><path fill="#786a69" d="M99.5 25.5l-5 28-3-32z"/><path fill="#948a92" d="M50.5 19.5l14-6 23 23z"/><path fill="#616263" d="M93.5 7.5l-24 2-13-9z"/><path d="M93.5 65.5l9-52 13 24z"/><path fill="#ccdce1" d="M67.5 26.5l-12-3 3 16z"/><path fill="#521004" d="M54.5 26.5l-6-8-2 13z"/><path fill="#2f0002" d="M86.5 27.5l10 7-18-1z"/><path fill="#dc7656" d="M48.5 35.5l-4-3 7-3z"/><path fill="#1d2029" d="M44.5 5.5l-17 34 8-49z"/><path fill="#201e17" d="M80.5 16.5l-25-12-2 8z"/><path fill="#1d0a0e" d="M12.5 24.5l-6-1-6 14z"/><path fill="#a3b7c8" d="M79.5 64.5l-17-2-9-20z"/><path fill="#7693a8" d="M80.5 29.5l-17 14 6-23z"/><path fill="#928782" d="M28.5 27.5l-8 16-2-5z"/><path fill="#39454e" d="M55.5 37.5l15 2-23 5z"/><path fill="#362221" d="M44.5 33.5l-11-13-11 18z"/><path fill="#300500" d="M67.5 58.5l22 1 5-18z"/><path fill="#88684d" d="M19.5 39.5l46 12-11 14z"/><path fill="#85777f" d="M52.5 11.5l9-27h-31z"/><path fill="#6a5d5a" d="M101.5 24.5l-22 1-12-9z"/><path fill="#859daf" d="M19.5 22.5l-1-1 4-3z"/><path fill="#221e1d" d="M78.5 26.5l-8-6 16 5z"/><path fill="#3f342a" d="M72.5 17.5l-17-12 34 3z"/><path fill="#af948d" d="M64.5 27.5l-2-12 10 3z"/><path fill="#101920" d="M115.5-15.5l-5 22-53-6z"/><path fill="#a09895" d="M5.5 43.5l9-19-8 9z"/><path fill="#06121a" d="M11.5 19.5l-5 10 11-9z"/><path fill="#230908" d="M35.5 41.5l8-14-1 7z"/><path fill="#222128" d="M25.5 13.5l-1 18-8 7z"/><path fill="#221715" d="M47.5 23.5l2-12 4 1z"/><path fill="#908f90" d="M13.5 17.5l-10 12-19 1z"/><path fill="#886950" d="M84.5 36.5h15l-9 5z"/><path fill="#6283a2" d="M40.5 5.5l8 9-2 6z"/><path fill="#c65a4b" d="M54.5 36.5l-11 5-2-3z"/><path fill="#8d5439" d="M65.5 44.5h21l-7 7z"/><path fill="#6d5e4f" d="M21.5 3.5l10 2-22 6z"/><path fill="#b4bec2" d="M65.5 24.5l-13 4 17 12z"/><path fill="#6b4f61" d="M34.5 17.5l-4 5 5 5z"/><path fill="#657d90" d="M38.5 27.5l8-2-4-2z"/><path fill="#926763" d="M60.5 24.5l9-5-13-2z"/><path fill="#685a50" d="M14.5 36.5l-3 15 10-19z"/><path fill="#3a1917" d="M94.5 25.5l-1 9-22 5z"/><path fill="#565f6b" d="M57.5 47.5l1-7 8-3z"/><path fill="#1f1400" d="M17.5 42.5l15 23h-29z"/><path fill="#2f1e25" d="M39.5 14.5l-17 23 22-17z"/><path fill="#f38d65" d="M50.5 37.5l-2-1 3-2z"/><path fill="#a39681" d="M35.5 34.5l-6 3 4 1z"/><path fill="#55483f" d="M86.5 18.5l-25-9 25 2z"/><path fill="#2d271f" d="M69.5 16.5l46-9v17z"/><path fill="#625f58" d="M-6.5 7.5l19 2-25 6z"/><path fill="#100900" d="M1.5 8.5l7-21-24 15z"/><path fill="#28191c" d="M65.5 44.5l8 8-13-7z"/><path fill="#ced5d3" d="M51.5 20.5l8 10 6-2z"/><path fill="#4b363e" d="M-15.5 36.5l11-8h13z"/><path fill="#211005" d="M92.5 43.5l-17-5 5-3z"/><path fill="#926c5b" d="M73.5 44.5l-5-2-5 4z"/><path fill="#5f310a" d="M71.5 40.5l11 22-17-2z"/><path fill="#788487" d="M95.5 39.5l1 26-6-6z"/><path fill="#5f6c6f" d="M93.5 8.5l22-6v12z"/><path fill="#b2abac" d="M71.5 20.5l-4-5h-6z"/><path fill="#161318" d="M34.5 6.5l-25 33 18-13z"/><path fill="#6a3832" d="M49.5 24.5l4 3-15 3z"/><path fill="#525d66" d="M19.5 18.5v4l8-7z"/><path fill="#b5a897" d="M52.5 46.5l-11 1-11-7z"/><path fill="#916b4d" d="M28.5 41.5l35 21 1-11z"/><path fill="#25282f" d="M13.5 1.5l7 5-17 3z"/><path fill="#bbcddb" d="M51.5 30.5l10-2-1 11z"/><path fill="#5a546d" d="M11.5 9.5l2-25-5 14z"/><path fill="#892c43" d="M5.5 41.5l-3 24 5-10z"/><path fill="#b0b4b4" d="M45.5 50.5l5 15-16-18z"/><path fill="#381d13" d="M94.5 40.5l-4 22-30 3z"/><path fill="#67646c" d="M36.5 30.5l6-4-2-7z"/><path fill="#686f75" d="M77.5 5.5l-7-2-7 3z"/><path fill="#5c6174" d="M15.5 14.5l-3-2 3 8z"/><path fill="#00040f" d="M.5 22.5l5-3-7-1z"/><path fill="#041417" d="M30.5 32.5l-2-9 8 11z"/><path fill="#621e23" d="M37.5 26.5l-4 7 4 8z"/><path fill="#000a0b" d="M115.5 26.5l-21 39 6-45z"/><path fill="#171414" d="M62.5 12.5l-11 4 5-13z"/><path fill="#8ca3b6" d="M79.5 28.5l-8 11 1-9z"/><path fill="#5b5876" d="M68.5 28.5l3 4 3-4z"/><path fill="#877d78" d="M28.5 8.5l-5-24h10z"/><path fill="#a6938b" d="M69.5 30.5l-2-13-3 18z"/><path fill="#001621" d="M3.5 39.5l-1 21-18-20z"/></g></svg>