<svg xmlns="http://www.w3.org/2000/svg" viewBox="0 0 400 200"><path fill="#514946" d="M0 0h400v200H0z"/><g stroke-opacity=".5" fill="none" stroke-width=".8"><path stroke="#fbffff" d="M218 77.5q12.5 106 105.6 42"/><path stroke="#f4ffff" d="M214 82.3q23.3 105.2 105 43.6"/><path stroke="#cfd9d8" d="M338.3 224.2Q321.8 211.5 0 136.6"/><path stroke="#f4ffff" d="M316 125.8q-51.2-62-111.3 27.7"/><path stroke="#faffff" d="M220 73.7q-8.1 104.8 84.2 66.9"/><path stroke="azure" d="M317.8 129q-68.6 39.7-106.3-62"/><path stroke="#ecffff" d="M316.1 120.8q-81.3 58-100.2-52"/><path stroke="#ddfdff" d="M174 38.2q72.2 100 106.2 119.7"/><path stroke="#eaffff" d="M317.2 130.2q-59-66-109 16"/><path stroke="#f2fcff" d="M313.3 128.9q-51.5-54-108.4 26.2"/><path stroke="#f6ffff" d="M284.9 208.3Q143.2 174.7 72 151"/><path stroke="#effbff" d="M252.6 175.8q-60.6-75.5 32.5-93"/><path stroke="#f5ffff" d="M281.1 154.2q-11.6 3.4-74-87.6"/><path stroke="#e6ffff" d="M322.4 127.3q-62.5 45-118.9-49"/><path stroke="#deffff" d="M311.2 115.8q-72.6 68.3-100.2-3.1"/><path stroke="#e3f1f7" d="M118.2 161.2q113.2 39.3 170.5 40.8"/><path stroke="#fff" d="M198.4 146.4q43.6 2.2 84-65.2"/><path stroke="#fbffff" d="M209.8 129.3q69.9 29.2 70.4-55.6"/><path stroke="#ddeaf7" d="M321.2 127q-57-68-120.4 22"/><path stroke="#d9f9ff" d="M204.5 77q61 80 118.6 40.7"/><path stroke="#f4ffff" d="M269.8 167.7q10.2-47.9-65.2-85.5"/><path stroke="#ecf3fc" d="M244.4 166.8q-51.6-67.3 32.1-96.4"/><path stroke="#e0ffff" d="M307.7 131.7q-76.8 49-92.8-61"/><path stroke="#d4cbc3" d="M258.9 64q1.7 160.2-122.2 129.2"/><path stroke="#f9ffff" d="M278.3 72.7q4 64-79.2 53.5"/></g></svg>