<svg xmlns="http://www.w3.org/2000/svg" viewBox="0 0 400 200"><path fill="#514946" d="M0 0h400v200H0z"/><ellipse fill="#d4e0ea" fill-opacity=".5" rx="1" ry="1" transform="rotate(144.5 110 97.3) scale(46.40759 53.89469)"/><ellipse fill="#ccae8d" fill-opacity=".5" rx="1" ry="1" transform="matrix(106.92178 27.33677 -4.02318 15.7358 167.4 188.5)"/><ellipse fill="#0a0c13" fill-opacity=".5" rx="1" ry="1" transform="matrix(-25.63126 71.48232 -36.95566 -13.25111 118.7 79.8)"/><ellipse fill="#2a2521" fill-opacity=".5" rx="1" ry="1" transform="rotate(-26.6 315.7 -755.2) scale(88.14143 223.23428)"/><ellipse fill="#daf2f9" fill-opacity=".5" rx="1" ry="1" transform="matrix(11.8825 24.69001 -20.91543 10.06592 240.2 126.8)"/><ellipse fill="#0e0203" fill-opacity=".5" rx="1" ry="1" transform="matrix(5.71172 -30.5203 60.41377 11.30613 31.5 193)"/><ellipse fill="#bab4a5" fill-opacity=".5" rx="1" ry="1" transform="matrix(-8.43722 -7.11326 24.22943 -28.73916 43 127)"/><ellipse fill="#bbc3c5" fill-opacity=".5" rx="1" ry="1" transform="matrix(56.62606 -38.24384 4.44271 6.57814 .8 108.4)"/><ellipse fill="#8ebae4" fill-opacity=".5" rx="1" ry="1" transform="rotate(-145 171.6 12) scale(15.12648 14.58507)"/><ellipse fill="#8998a2" fill-opacity=".5" rx="1" ry="1" transform="matrix(9.95012 5.78473 -22.2507 38.27267 195.9 41.1)"/><ellipse fill="#b9b0a0" fill-opacity=".5" rx="1" ry="1" transform="matrix(.49909 15.5528 -29.58813 .94948 100.3 4.9)"/><ellipse fill="#151f2a" fill-opacity=".5" rx="1" ry="1" transform="rotate(155.5 -4.5 22.4) scale(63.0158 46.35615)"/><ellipse fill="#c46449" fill-opacity=".5" rx="1" ry="1" transform="matrix(22.38362 -21.81983 14.51786 14.89299 192 147.5)"/><ellipse fill="#030d09" fill-opacity=".5" rx="1" ry="1" transform="rotate(117.9 108.2 85.5) scale(44.77298 15.36303)"/><ellipse fill="#a7a79e" fill-opacity=".5" rx="1" ry="1" transform="matrix(-3.79274 -2.80648 21.10472 -28.5214 93 138.7)"/><ellipse fill="#371002" fill-opacity=".5" rx="1" ry="1" transform="matrix(42.31083 -51.82357 12.59006 10.27903 315.1 157.5)"/><ellipse fill="#020917" fill-opacity=".5" rx="1" ry="1" transform="matrix(-5.45499 -5.21489 50.9356 -53.28077 51 92.7)"/><ellipse fill="#240600" fill-opacity=".5" rx="1" ry="1" transform="matrix(6.39377 -13.08079 34.3144 16.77258 148.8 133.6)"/><ellipse fill="#868685" fill-opacity=".5" rx="1" ry="1" transform="matrix(5.73212 .82445 -9.96643 69.29331 382 163.2)"/><ellipse fill="#84503f" fill-opacity=".5" rx="1" ry="1" transform="rotate(-174 126.8 35.3) scale(26.45159 17.19387)"/><ellipse fill="#001018" fill-opacity=".5" rx="1" ry="1" transform="matrix(-183.75666 -26.15245 3.08876 -21.70276 346.3 1)"/><ellipse fill="#120c0d" fill-opacity=".5" rx="1" ry="1" transform="matrix(86.55671 -119.5734 8.01583 5.8025 107.6 76.6)"/><ellipse fill="#661d0d" fill-opacity=".5" rx="1" ry="1" transform="matrix(22.3171 -3.61458 2.2689 14.0086 196 107.3)"/><ellipse fill="#5f6974" fill-opacity=".5" rx="1" ry="1" transform="matrix(87.92966 16.89287 -1.33767 6.96277 255.4 15.2)"/><ellipse fill="#bfd6e8" fill-opacity=".5" rx="1" ry="1" transform="rotate(-164.9 128 81.8) scale(123.32631 2.715)"/></svg>