<svg xmlns="http://www.w3.org/2000/svg" viewBox="0 0 100 50"><path fill="#534949" d="M0 0h100v50H0z"/><g fill-opacity=".5"><path fill="#cac5c7" d="M64.5 12.5l-37 53 54-35z"/><path fill="#0e0710" d="M37.5 36.5l2-45-25 43z"/><path fill="#d8eef8" d="M51.5 17.5l4 18 15 1z"/><path fill="#2b2622" d="M55.5-12.5l41 78 19-69z"/><path fill="#c1a484" d="M30.5 60.5l-12-24 59 17z"/><path fill="#662f26" d="M40.5 41.5l45 13-56-36z"/><path fill="#100204" d="M-2.5 37.5l26 8-23 20z"/><path fill="#beb4ac" d="M4.5 44.5l3-13 10-8z"/><path fill="#1a1f2a" d="M-15.5-11.5l63 31-63-6z"/><path fill="#c8cdce" d="M-15.5 50.5v-19l26-12z"/><path fill="#101611" d="M60.5-2.5l-12 18 19-2z"/><path fill="#99a7af" d="M58.5-1.5l-14 26 1-13z"/><path fill="#b8ada3" d="M-.5-15.5l24 21 31-17z"/><path fill="#959aa8" d="M48.5 15.5l33 13-9 10z"/><path fill="#1f0100" d="M76.5 46.5l-5-7 17-9z"/><path fill="#cbc2c0" d="M22.5 37.5l-6 2 10-9z"/><path fill="#7d706d" d="M94.5 52.5l5-30h-8z"/><path fill="#000f18" d="M64.5.5l51-5-16 11z"/><path fill="#4e1b11" d="M49.5 13.5l-3 18 8-5z"/><path d="M104.5 4.5l-10 54 15-20z"/><path fill="#a8523b" d="M55.5 38.5l-8-13-7 16z"/><path fill="#65727a" d="M80.5 5.5l-11 2-13-6z"/><path fill="#9a746d" d="M51.5 19.5l10-5 6 10z"/><path fill="#c9d4d8" d="M59.5 38.5l-8-18 16 7z"/><path fill="#1f0b16" d="M8.5 51.5l8-19-32 28z"/><path fill="#481f18" d="M88.5 65.5l-8-39h13z"/><path fill="#162028" d="M24.5 19.5l-23 11 27-26z"/><path fill="#384145" d="M65.5 39.5l-17 5 6-8z"/><path fill="#8e613e" d="M68.5 65.5l5-12-47-12z"/><path fill="#aab9ca" d="M54.5 43.5l26 21-17 1z"/><path fill="#909094" d="M17.5 27.5l3-8-16 13z"/><path fill="#000817" d="M9.5 17.5l-9 5-5-5z"/><path fill="#1a181b" d="M23.5 18.5l26 19-18-4z"/><path fill="#7a584b" d="M72.5 54.5l14-18h12z"/><path fill="#877881" d="M34.5-10.5l24-3-6 25z"/><path fill="#959798" d="M14.5 16.5l-22 22 4-13z"/><path fill="#a58d94" d="M28.5 31.5h-4l3-4z"/><path fill="#331b20" d="M8.5 28.5l-24 19v-16z"/><path fill="#1e0f09" d="M93.5 42.5l-5 2-10-7z"/><path fill="#121c24" d="M28.5 19.5l18-14-11-10z"/><path fill="#a18170" d="M22.5 6.5v3h-7z"/><path fill="#6d605b" d="M72.5 17.5l30 7-18 1z"/><path fill="#728fa6" d="M79.5 28.5l-12 13 2-19z"/><path fill="#998f89" d="M1.5 36.5l7 3 4-10z"/><path fill="#120e12" d="M64.5 46.5l-8 1 12-6z"/><path fill="#6b8da1" d="M44.5 25.5l-7 3 6-6z"/><path fill="#a0897c" d="M34.5 42.5l-8-1 8-7z"/><path fill="#4b2425" d="M36.5 32.5l15-11 3 6z"/><path fill="#7e4e32" d="M63.5 38.5l9 16 26 3z"/><path fill="#73695f" d="M22.5 37.5l-2-5-9 14z"/><path fill="#5e80a1" d="M45.5 17.5l-4-13 5 7z"/><path fill="#5a6a70" d="M88.5 7.5l18 4-11-6z"/><path fill="#2c0a00" d="M57.5 58.5l29 7 7-21z"/><path fill="#1a1a16" d="M57.5 5.5l-8 9 16-1z"/><path fill="#451307" d="M43.5 32.5l-6 9-3-7z"/><path fill="#5f6058" d="M14.5 9.5l-30-2 11 6z"/><path fill="#000007" d="M65.5 14.5l9 3v-3z"/><path fill="#30161d" d="M86.5 33.5l18 1-33-14z"/><path fill="#808d98" d="M70.5 32.5l-9 12 11-7z"/><path fill="#4d453a" d="M85.5 13.5l-20 1-7-12z"/><path fill="#ca8a73" d="M54.5 33.5l-2 5h-7z"/><path fill="#070b12" d="M30.5 18.5l-6-1-6 17z"/><path fill="#998b88" d="M60.5 15.5l-11 4 24-1z"/><path fill="#785451" d="M55.5 20.5l6 4v-10z"/><path fill="#4e465b" d="M30.5 23.5l6 4-2-13z"/><path fill="#bebfaa" d="M37.5 42.5l9 3h-8z"/><path fill="#7d273a" d="M7.5 49.5l-2 8-1-17z"/><path fill="#1f1216" d="M3.5 33.5l6-12h6z"/><path fill="#231920" d="M3.5-9.5l7 26-12-14z"/><path fill="#98aabc" d="M76.5 26.5l-9 13 13-9z"/><path fill="#2f271b" d="M97.5 10.5l-17 8 35 7z"/><path fill="#b4bdcc" d="M61.5 48.5l-16 17 66-6z"/><path fill="#b3aaa2" d="M65.5 37.5l-2-10 7-9z"/><path fill="#84999e" d="M95.5 43.5v12l-5 1z"/><path fill="#332022" d="M21.5 38.5l15-4 2-18z"/><path fill="#435a6d" d="M62.5 42.5l-6-5 9 1z"/><path fill="#5d6a82" d="M76.5 27.5l-7 7v-6z"/><path fill="#b7ccd9" d="M51.5 29.5l10 11-1-7z"/><path fill="#793c3d" d="M35.5 34.5v-8l5 3z"/><path fill="#cd6f4e" d="M47.5 29.5l6 8-7-5z"/><path fill="#260400" d="M69.5 46.5l14 19-22-4z"/><path fill="#7b7162" d="M83.5 34.5l11 7-10-3z"/><path fill="#1d1f1e" d="M52.5 14.5l-4 7 1-10z"/><path fill="#34181a" d="M48.5 41.5l-2-6 7 9z"/><path fill="#5c4943" d="M25.5 3.5l3 9 3-8z"/><path fill="#87715f" d="M14.5 38.5l29 24 4-16z"/><path fill="#271c03" d="M13.5 39.5l2 11 8 1z"/><path fill="#525c66" d="M14.5 14.5l-3 2-1-11z"/><path fill="#a8a9a5" d="M35.5 47.5l-7 18 34-10z"/><path fill="#75717e" d="M47.5 25.5l-10-2 9-1z"/><path fill="#716779" d="M27.5 14.5l-4 3 1-2z"/><path fill="#184951" d="M35.5 9.5l14-10-6 8z"/><path fill="#b05856" d="M49.5 42.5l-4-5-5 2z"/><path fill="#895766" d="M5.5 15.5l-2-11-1 5z"/><path fill="#a2bacd" d="M52.5 41.5l1 2 2 1z"/><path fill="#cdd3da" d="M56.5 35.5h6l-8-17z"/><path fill="#151013" d="M51.5 16.5l7-2-1-10z"/><path fill="#707678" d="M98.5 24.5l-2 10-1-9z"/><path fill="#1b150d" d="M72.5 43.5l14-4-6-3z"/><path fill="#241310" d="M34.5-.5l-2 8 11 12z"/></g></svg>