<svg xmlns="http://www.w3.org/2000/svg" viewBox="0 0 400 200"><path fill="#514946" d="M0 0h400v200H0z"/><g transform="translate(.8 .8) scale(1.5625)" fill-opacity=".5"><ellipse fill="#d6dfe7" cx="161" cy="70" rx="32" ry="32"/><ellipse fill="#0a0b16" cx="76" cy="46" rx="34" ry="34"/><ellipse fill="#a97963" cx="108" cy="127" rx="45" ry="45"/><ellipse fill="#252420" cx="239" cy="23" rx="66" ry="66"/><ellipse fill="#dcf2f7" cx="154" cy="79" rx="17" ry="17"/><ellipse fill="#2d0200" cx="97" cy="91" rx="16" ry="16"/><ellipse fill="#80a4c5" cx="190" cy="79" rx="14" ry="14"/><ellipse fill="#140707" cx="22" cy="127" rx="29" ry="29"/><ellipse fill="#3b1a10" cx="226" cy="113" rx="39" ry="39"/><ellipse fill="#847b77" cx="11" cy="78" rx="24" ry="24"/><ellipse fill="#020700" cx="150" cy="24" rx="15" ry="15"/><ellipse fill="#141d28" cy="20" rx="36" ry="36"/><ellipse fill="#baad9b" cx="59" rx="15" ry="15"/><ellipse fill="#4e0000" cx="127" cy="66" rx="10" ry="10"/><ellipse fill="#a19698" cx="129" cy="16" rx="11" ry="11"/><ellipse fill="#79a6c5" cx="115" cy="35" rx="9" ry="9"/><ellipse fill="#835443" cx="155" cy="51" rx="13" ry="13"/><ellipse fill="#a88f72" cx="56" cy="104" rx="12" ry="12"/><ellipse fill="#0c1316" cx="95" cy="14" rx="16" ry="16"/><ellipse cx="22" cy="67" rx="7" ry="7"/><ellipse fill="#010607" cx="48" cy="81" rx="11" ry="11"/><ellipse fill="#96816e" cx="90" cy="126" rx="32" ry="32"/><ellipse fill="#bdc6ce" cx="134" cy="50" rx="7" ry="7"/><ellipse fill="#73665f" cx="239" cy="70" rx="14" ry="14"/><ellipse fill="#828f98" cx="181" cy="80" rx="19" ry="19"/></g></svg>