<svg xmlns="http://www.w3.org/2000/svg" viewBox="0 0 400 200"><path fill="#514946" d="M0 0h400v200H0z"/><g transform="translate(.8 .8) scale(1.5625)" fill-opacity=".5"><ellipse fill="#dbf3ff" cx="166" cy="77" rx="34" ry="24"/><ellipse fill="#bd9b81" cx="103" cy="119" rx="47" ry="16"/><ellipse fill="#100e17" cx="79" cy="52" rx="32" ry="43"/><ellipse fill="#2b2019" cx="230" cy="60" rx="30" ry="238"/><ellipse fill="#c4aea7" cx="156" cy="54" rx="26" ry="16"/><ellipse fill="#0b0001" cx="15" cy="124" rx="39" ry="21"/><ellipse fill="#bbb2a3" cx="63" rx="20" ry="12"/><ellipse fill="#ddf1f7" cx="152" cy="79" rx="15" ry="16"/><ellipse fill="#151e29" cx="3" cy="20" rx="36" ry="34"/><ellipse fill="#090c03" cx="154" cy="25" rx="19" ry="14"/><ellipse fill="#857d79" cx="14" cy="77" rx="19" ry="25"/><ellipse fill="#a3462e" cx="120" cy="96" rx="18" ry="18"/><ellipse fill="#000d16" cx="241" rx="92" ry="12"/><ellipse fill="#8d898d" cx="129" rx="13" ry="29"/><ellipse fill="#82acc6" cx="116" cy="38" rx="7" ry="14"/><ellipse fill="#9c846d" cx="65" cy="104" rx="27" ry="10"/><ellipse fill="#726c65" cx="242" cy="87" rx="7" ry="37"/><ellipse fill="#353229" cx="198" cy="43" rx="20" ry="25"/><ellipse fill="#170400" cx="196" cy="104" rx="11" ry="15"/><ellipse fill="#4a1d15" cx="98" cy="87" rx="14" ry="21"/><ellipse fill="#7c8998" cx="182" cy="79" rx="23" ry="16"/><ellipse cx="23" cy="65" rx="7" ry="7"/><ellipse fill="#060a05" cx="91" cy="16" rx="10" ry="24"/><ellipse fill="#68413f" cx="116" cy="68" rx="24" ry="12"/><ellipse cx="255" cy="121" rx="8" ry="45"/></g></svg>