<svg xmlns="http://www.w3.org/2000/svg" viewBox="0 0 400 200"><path fill="#514946" d="M0 0h400v200H0z"/><g transform="translate(.8 .8) scale(1.5625)" fill-opacity=".5"><ellipse fill="#ddf2ff" cx="164" cy="76" rx="33" ry="25"/><ellipse fill="#b28871" cx="104" cy="116" rx="48" ry="23"/><ellipse fill="#070812" cx="75" cy="50" rx="27" ry="40"/><ellipse fill="#292019" cx="243" cy="20" rx="46" ry="132"/><ellipse fill="#bba59e" cx="155" cy="53" rx="27" ry="15"/><ellipse fill="#0d0102" cx="15" cy="127" rx="39" ry="26"/><ellipse fill="#dff4fa" cx="151" cy="79" rx="13" ry="17"/><ellipse fill="#b7ac9d" cx="61" rx="20" ry="13"/><ellipse fill="#877e7b" cx="14" cy="77" rx="19" ry="24"/><ellipse fill="#6c2013" cx="107" cy="89" rx="22" ry="21"/><ellipse fill="#151f2a" cx="6" cy="20" rx="32" ry="34"/><ellipse fill="#000400" cx="148" cy="25" rx="14" ry="15"/><ellipse fill="#8ba6be" cx="116" cy="46" rx="5" ry="20"/><ellipse fill="#88878d" cx="128" rx="14" ry="29"/><ellipse fill="#000e17" cx="217" cy="1" rx="70" ry="9"/><ellipse fill="#6d8aa7" cx="188" cy="77" rx="17" ry="12"/><ellipse fill="#020000" cx="198" cy="104" rx="9" ry="14"/><ellipse fill="#000200" cx="91" cy="17" rx="11" ry="17"/><ellipse fill="#827f7b" cx="243" cy="94" rx="4" ry="38"/><ellipse fill="#ff9a64" cx="131" cy="93" rx="8" ry="6"/><ellipse fill="#5b1000" cx="128" cy="67" rx="11" ry="10"/><ellipse cx="23" cy="65" rx="7" ry="7"/><ellipse fill="#6a5950" cx="182" cy="56" rx="42" ry="8"/><ellipse fill="#b1a186" cx="124" cy="127" rx="38" ry="9"/><ellipse fill="#ac977c" cx="53" cy="103" rx="15" ry="7"/></g></svg>