<svg xmlns="http://www.w3.org/2000/svg" viewBox="0 0 16 8"><path fill="#544949" d="M0 0h16v8H0z"/><g fill-opacity=".5"><path fill="#b29e9b" d="M11.5 2.5l-27 21h31z"/><path fill="#2a241d" d="M31.5 5.5l-29-18 24 36z"/><path fill="#2e2225" d="M9.5 6.5l-25-15 19 4z"/><path fill="#211412" d="M13.5 5.5l-22 18h12z"/><path fill="#e2d9df" d="M8.5 5.5h3l-2-1z"/><path fill="#b1a9b0" d="M5.5.5l-1-16-12 7z"/><path d="M2.5 7.5l-18-6 13 12z"/><path fill="#6a5c59" d="M14.5 3.5l-16 20h-13z"/><path fill="#8a8088" d="M7.5 2.5v-12l3 4z"/><path fill="#180c0e" d="M3.5 2.5l3-3 1-5z"/><path fill="#00000d" d="M9.5 1.5l1-17 3 8z"/><path fill="#836b63" d="M31.5 23.5l-9-13-22-6z"/><path fill="#241a17" d="M4.5 3.5l-20 20h9z"/><path fill="#393942" d="M14.5 4.5l-18-20 12 6z"/><path fill="#131111" d="M14.5.5l17-2-32-10z"/><path fill="#b4b1b9" d="M9.5 2.5l1 2v-1z"/><path fill="#8a7a7a" d="M8.5 3.5v9l2-2z"/><path fill="#656a78" d="M1.5 4.5v-2l-2 3z"/><path fill="#6e5a4a" d="M15.5 5.5l16 10-9-24z"/><path fill="#a78f83" d="M13.5 9.5l5 11-15-14z"/><path fill="#221715" d="M12.5 6.5l-1 17h-8z"/><path fill="#484951" d="M9.5 2.5l8-18 6 4z"/><path fill="#45291e" d="M3.5 6.5l1-3 2 2z"/><path fill="#91766c" d="M4.5 6.5l27 9-10 8z"/><path fill="#2e1a0e" d="M15.5 6.5l-9 11 2 6z"/><path fill="#28191a" d="M4.5 3.5l4-14 3 3z"/><path fill="#695552" d="M25.5 16.5l-3 7-16-20z"/><path fill="#3d383b" d="M14.5 4.5l-4-20-9 4z"/><path fill="#766a61" d="M14.5 3.5l7 7 10-3z"/><path fill="#524b48" d="M1.5 6.5l-3-1h4z"/><path fill="#846d61" d="M5.5 6.5l6 17 4-3z"/><path fill="#585660" d="M4.5 1.5l-9-17h-8z"/><path fill="#110400" d="M14.5 2.5l17 8-7-7z"/><path fill="#222f40" d="M.5 2.5l3-6-17-2z"/><path fill="#413638" d="M11.5-15.5l-7 17 7-8z"/><path fill="#49464b" d="M14.5 2.5l-12-18 4 13z"/><path fill="#422f25" d="M-15.5 23.5l19-16 28 2z"/><path fill="#474752" d="M1.5 3.5l-13-2-4-17z"/><path fill="#3d2f24" d="M12.5 3.5l14 7v6z"/><path fill="#61554b" d="M15.5 4.5l5 6 6-1z"/><path fill="#31201d" d="M6.5 5.5h-3l1-2z"/><path fill="#423330" d="M13.5 6.5l-9 17h-20z"/><path fill="#2a282c" d="M13.5.5l-21-16 18 7z"/><path fill="#574c4f" d="M8.5.5l-16-16 13 3z"/><path fill="#88716b" d="M6.5 6.5l12 11 13-3z"/><path fill="#464143" d="M.5 5.5l-9 5-7-20z"/><path fill="#291a1a" d="M5.5.5l-1 1 2 3z"/><path fill="#725a52" d="M6.5 4.5l-1 12-4 1z"/><path fill="#848083" d="M1.5 5.5l-12 2-5 6z"/><path fill="#99837c" d="M7.5 7.5l-4-1 6 4z"/><path fill="#43393c" d="M7.5.5l-8-4-2-5z"/><path fill="#7c787b" d="M-15.5-5.5l1 10h15z"/><path fill="#1d1e29" d="M-15.5-13.5l11 15 17-8z"/><path fill="#4a4442" d="M13.5 2.5l1-2h-2z"/><path fill="#5a5052" d="M10.5 6.5l2 9-3 8z"/><path fill="#ad9387" d="M4.5 7.5l27 10-32 6z"/><path fill="#4d392e" d="M15.5 6.5l16-12-13 25z"/><path fill="#777681" d="M8.5.5l13-16-8 1z"/><path fill="#615959" d="M2.5 4.5l-18 2 5 4z"/><path fill="#524a4a" d="M2.5 4.5l2 1-1-1z"/><path fill="#432a20" d="M2.5 7.5l-12 10 25-6z"/><path fill="#474850" d="M12.5 1.5l-4-13-4 1z"/><path fill="#403736" d="M2.5 5.5l-14 3-4 7z"/><path fill="#715e56" d="M4.5 6.5l-1-1 2 1z"/><path fill="#28232f" d="M8.5 2.5l3-11 2 3z"/><path fill="#49454c" d="M9.5.5l1-7 12-2z"/><path fill="#7f7b84" d="M15.5-15.5L3.5.5l2-12z"/><path fill="#181315" d="M1.5 7.5l10 16-3-15z"/><path fill="#4f4644" d="M2.5 6.5h-9l-9-6z"/><path fill="#33282a" d="M14.5-9.5h-5l-5 12z"/><path fill="#81675c" d="M5.5 6.5l2 6 8 5z"/><path fill="#9e9aa0" d="M10.5 5.5v-2l1 1z"/><path fill="#614f48" d="M14.5 6.5l-9 13 5 4z"/><path fill="#403c44" d="M3.5 1.5l-8-17h6z"/><path fill="#37221f" d="M5.5 5.5v-1h1z"/><path fill="#392c23" d="M14.5 2.5l17-12-4 9z"/><path fill="#454249" d="M7.5 1.5l17-17-3 9z"/><path fill="#483a30" d="M14.5 5.5l7 7 10-2z"/><path fill="#21171b" d="M5.5 1.5l6-14-1 8z"/><path fill="#372c30" d="M6.5.5l-4-13 12-3z"/><path fill="#35343a" d="M12.5.5l-16-16 9 2z"/><path fill="#736564" d="M5.5.5l-3-9-11-7z"/><path fill="#242123" d="M12.5.5l4-12 13-4z"/><path fill="#322016" d="M14.5 7.5l17 5-23 3z"/><path fill="#3d343d" d="M9.5.5l13-16-11 2z"/><path fill="#454039" d="M13.5-5.5l18 6-6 17z"/><path fill="#363439" d="M9.5 1.5l5-6 4 1z"/><path fill="#555053" d="M1.5 4.5l-17 11 3-7z"/><path fill="#271f16" d="M31.5 7.5l-44-23 44 2z"/><path fill="#4e4241" d="M11.5 7.5l-2 12 20 4z"/><path fill="#624741" d="M7.5 5.5v-1l1 2z"/><path fill="#3c3c42" d="M11.5.5l9-14-6 1z"/><path fill="#434048" d="M5.5 3.5l-13-9-2 4z"/><path fill="#2c2b36" d="M1.5 1.5l-12 11 2-7z"/><path fill="#2e2828" d="M12.5-15.5l1 16-5-10z"/><path fill="#4d4849" d="M3.5 5.5l-10 4-7-2z"/><path fill="#52505a" d="M1.5 2.5l-9 7-6-3z"/><path fill="#5a4d4d" d="M11.5 6.5l-9 10 5 3z"/><path fill="#282325" d="M20.5 14.5l-36-13 21 22z"/><path fill="#201c20" d="M13.5.5v-12l10 1z"/></g></svg>