<svg xmlns="http://www.w3.org/2000/svg" viewBox="0 0 128 64"><path fill="#534949" d="M0 0h128v64H0z"/><g fill-opacity=".5"><path fill="#cbc3c5" d="M37.5 79.5l65-39-21-26z"/><path fill="#24141c" d="M14.5 28.5l53 30-21-63z"/><path fill="#c5a586" d="M24.5 47.5l63 17-50 9z"/><path fill="#282723" d="M143.5-15.5l-97 1 85 76z"/><path fill="#d7ecf9" d="M92.5 45.5l-18 2-9-26z"/><path fill="#b7b6ad" d="M13.5 46.5l15-24-28 25z"/><path fill="#8c93a0" d="M52.5 36.5l23-41-11-11z"/><path fill="#8f3e2b" d="M83.5 57.5l-25-23-7 16z"/><path fill="#bcc4c6" d="M-9.5 35.5l29-15-35 34z"/><path fill="#0d0001" d="M28.5 57.5l-8 22-36-34z"/><path fill="#360f08" d="M89.5 52.5l31 15-6-36z"/><path fill="#b7afa1" d="M32.5 6.5l23-14-35 9z"/><path fill="#1f242c" d="M-.5-15.5l-15 49 50-19z"/><path fill="#0c0f18" d="M49.5-1.5l-38 52 38-26z"/><path fill="#000200" d="M82.5 17.5l-10-13-8 17z"/><path d="M120.5 79.5l10-69 13 26z"/><path fill="#76645c" d="M127.5 29.5h-15l9 35z"/><path fill="#000e16" d="M120.5-15.5l19 26-66-11z"/><path fill="#8796a8" d="M102.5 38.5l-17 14-2-35z"/><path fill="#955748" d="M46.5 79.5l13-54 6 52z"/><path fill="#403639" d="M66.5 50.5l31 21-14-24z"/><path fill="#9a7f77" d="M74.5 18.5l31 7-40 3z"/><path fill="#d4dce0" d="M89.5 30.5l-22 16 4-13z"/><path fill="#8f9694" d="M36.5 35.5l-10 15-4-3z"/><path fill="#55150d" d="M70.5 33.5l-13 7 4-17z"/><path fill="#657380" d="M86.5 8.5l15-3-28-3z"/><path fill="#1a0f1e" d="M9.5 30.5l14-6-20 20z"/><path fill="#7d4e3a" d="M95.5 79.5l25-35-43 28z"/><path fill="#a39f97" d="M7.5 54.5l-1-9 8-11z"/><path fill="#351819" d="M88.5 26.5l32 21 1-11z"/><path fill="#1f130f" d="M30.5 49.5l22-9-14-7z"/><path fill="#1e1819" d="M27.5 44.5l-23 14 34-39z"/><path fill="#aeaaa9" d="M89.5 79.5l-35-24 77 20z"/><path fill="#764d55" d="M53.5 35.5l-1-13-15 31z"/><path fill="#825378" d="M41.5 31.5l-5-1 8-8z"/><path fill="#d1dded" d="M78.5 44.5l-9-20 2 18z"/><path fill="#8a7058" d="M110.5 72.5l-92-24 25 26z"/><path fill="#bcaab0" d="M46.5 49.5l-4-3-5 2z"/><path fill="#735d4d" d="M15.5 15.5l23-9-13-3z"/><path fill="#788ca1" d="M88.5 48.5l-1-23 17 13z"/><path fill="#250c03" d="M120.5 52.5l-18 12 16-1z"/><path fill="#582925" d="M51.5 39.5l-7 13 27 6z"/><path fill="#b0665a" d="M69.5 43.5l-12 13-5-7z"/><path fill="#b8c1bf" d="M45.5 53.5v4h14z"/><path fill="#474355" d="M49.5 22.5l31-34-26 1z"/><path fill="#7491b0" d="M54.5 10.5l6 5-1 15z"/><path fill="#140a06" d="M103.5 44.5l13 11-22-7z"/><path fill="#886f6b" d="M80.5 32.5l-2-14-13 6z"/><path fill="#071b25" d="M34.5 6.5l-4 17-10-2z"/><path fill="#5d5d5a" d="M140.5 33.5l-46-11 19 12z"/><path fill="#66727a" d="M113.5 9.5l22-1 8 9z"/><path fill="#232522" d="M99.5 24.5l-27-21 3 11z"/><path fill="#18181d" d="M30.5 27.5l32 19-23-4z"/><path fill="#6e2e00" d="M85.5 61.5l14 5-5-10z"/><path fill="#c1bdc6" d="M74.5 39.5l-9-15 4-3z"/><path fill="#31261c" d="M88.5 21.5l55-12-16 19z"/><path fill="#8c6f5d" d="M121.5 48.5l-15-2 11 7z"/><path fill="#6d90a3" d="M58.5 27.5l-11 7 12-3z"/><path fill="#2d2a1f" d="M59.5 29.5l4-16 3 5z"/><path fill="#b0a69a" d="M71.5.5l-4 11-5 1z"/><path fill="#c0725a" d="M57.5 45.5l9-7-9 1z"/><path fill="#71625d" d="M100.5 59.5l-33-15 14 14z"/><path fill="#250e14" d="M83.5 54.5l3 8-11-3z"/><path fill="#aa958b" d="M88.5 44.5l-7-4 8-17z"/><path fill="#bbcfd6" d="M67.5 38.5l17-6-8 17z"/><path fill="#6a656c" d="M15.5 12.5l-27-2-4 8z"/><path fill="#85666d" d="M16.5 55.5l-5 24 7-7z"/><path fill="#231519" d="M6.5-14.5l-15-1 19 36z"/><path fill="#00000a" d="M7.5 25.5l-8 3-4-4z"/><path fill="#526072" d="M87.5 36.5h6l-6 11z"/><path fill="#281824" d="M43.5-15.5h-16l34 28z"/><path fill="#abb4b1" d="M40.5 59.5l30 9-2 11z"/><path fill="#50231d" d="M45.5 52.5l13-15-14-6z"/><path fill="#514337" d="M75.5 11.5l38 2 8 13z"/><path fill="#95a4b0" d="M99.5 44.5l-12 6-11-10z"/><path fill="#423c42" d="M51.5 25.5l19 1-8-4z"/><path fill="#494f5e" d="M25.5 23.5l10-7 9 1z"/><path fill="#2d0f15" d="M101.5 58.5l-8-2 12-19z"/><path fill="#9c7169" d="M105.5 54.5l-5 16-17 9z"/><path fill="#92a0a7" d="M119.5 66.5l2-11 1 12z"/><path fill="#00070b" d="M133.5 2.5l-14 77 19-17z"/><path fill="#3f2c31" d="M6.5 38.5l-11-3 4 12z"/><path fill="#2a2822" d="M69.5 21.5l5-14h14z"/><path fill="#868680" d="M77.5 52.5l-3 7 9-7z"/><path fill="#4e3737" d="M79.5 54.5l-8-7-9 4z"/><path fill="#070907" d="M76.5 77.5l-59 2-9-22z"/><path fill="#925b36" d="M44.5 54.5l-10 2 24 6z"/><path fill="#12161f" d="M28.5 26.5l-1 18 14-24z"/><path fill="#8c2a46" d="M6.5 56.5l-2 9 5-1z"/><path fill="#57616b" d="M108.5 8.5l-13 1-13-7z"/><path fill="#572b24" d="M75.5 21.5l-5 6 4-1z"/><path fill="#865f61" d="M36.5 15.5l3-18-5 7z"/><path fill="#596b79" d="M29.5 57.5l39 13-28 9z"/><path fill="#0b424c" d="M11.5 7.5l10-5-18-1z"/><path fill="#001722" d="M1.5 51.5l-16 1 21 14z"/><path fill="#92314d" d="M12.5 1.5l10-1-13-11z"/><path fill="#0d0000" d="M59.5 32.5l4-9 1 6z"/><path fill="#463534" d="M31.5 30.5l-8-1 1 8z"/><path fill="#b9aea4" d="M30.5 49.5l14 4-6 1z"/><path fill="#755858" d="M3.5 8.5l1 11 5 5z"/></g></svg>