<svg xmlns="http://www.w3.org/2000/svg" viewBox="0 0 400 200"><path fill="#514946" d="M0 0h400v200H0z"/><g transform="translate(.8 .8) scale(1.5625)" fill-opacity=".5"><ellipse fill="#d6e5ef" cx="164" cy="73" rx="31" ry="31"/><ellipse fill="#0a0b16" cx="76" cy="44" rx="34" ry="34"/><ellipse fill="#a97963" cx="108" cy="127" rx="45" ry="45"/><ellipse fill="#242420" cx="246" cy="10" rx="78" ry="78"/><ellipse fill="#dff4fa" cx="152" cy="78" rx="16" ry="16"/><ellipse fill="#2a0e0b" cx="94" cy="86" rx="20" ry="20"/><ellipse fill="#391b11" cx="227" cy="104" rx="33" ry="33"/><ellipse fill="#140707" cx="22" cy="127" rx="29" ry="29"/><ellipse fill="#867d79" cx="12" cy="78" rx="23" ry="23"/><ellipse fill="#ab9e8d" cx="62" rx="18" ry="18"/><ellipse fill="#151e29" cx="3" cy="21" rx="34" ry="34"/><ellipse fill="#000300" cx="150" cy="24" rx="14" ry="14"/><ellipse fill="#c7ced2" cx="137" cy="51" rx="8" ry="8"/><ellipse fill="#7398b8" cx="189" cy="78" rx="14" ry="14"/><ellipse fill="#906556" cx="155" cy="51" rx="14" ry="14"/><ellipse fill="#789ab8" cx="114" cy="35" rx="10" ry="10"/><ellipse fill="#938877" cx="77" cy="115" rx="21" ry="21"/><ellipse fill="#a09499" cx="128" cy="16" rx="11" ry="11"/><ellipse cx="24" cy="64" rx="7" ry="7"/><ellipse fill="#060706" cx="47" cy="80" rx="11" ry="11"/><ellipse fill="#6f7470" cx="242" cy="68" rx="12" ry="12"/><ellipse fill="#95856f" cx="49" cy="101" rx="12" ry="12"/><ellipse fill="#43525c" cx="160" cy="104" rx="9" ry="9"/><ellipse fill="#201f24" cx="94" cy="21" rx="22" ry="22"/><ellipse fill="#98a29f" cx="140" cy="127" rx="15" ry="15"/></g></svg>