<svg xmlns="http://www.w3.org/2000/svg" viewBox="0 0 2000 1000"><path fill="#514946" d="M0 0h2000v1000H0z"/><g fill-opacity=".5"><path fill="#c8c8cb" d="M1629 644.5l-875 476.6 500-882.8z"/><path fill="#07060d" d="M793-11.7L246 269.5l523.5 547z"/><path fill="#c3aa8b" d="M1519.5 1043L332 730.5 605.5 1121z"/><path fill="#ddfaff" d="M1105.5 714.8l-47-382.8 343.8 445.3z"/><path fill="#181d16" d="M2058.6 480.5l-86-601.6-953 359.4z"/><path fill="#6d2816" d="M1386.7 996L910.2 535.3 644.5 808.6z"/><path fill="#3b1a0c" d="M1714.8 441.4l406.3 531.3-859.4 132.8z"/><path fill="#b6b5a8" d="M433.6 371l-289 453.2-86-117.2z"/><path fill="#bdcbcd" d="M316.4 308.6l-250 257.8L-121 543z"/><path fill="#1c120d" d="M496 379l-609.3 742 476.6-132.7z"/><path fill="#92abb5" d="M886.7 457l257.8-468.7L871.1 246z"/><path fill="#b4ae9e" d="M464.8 121L324.2 19.6l586-140.6z"/><path fill="#171f28" d="M394.5 105.5l-359.3 375-156.3-601.6z"/><path fill="#000c11" d="M2011.7 136.7l-867.2-125L2050.8-121z"/><path d="M1894.5 1121l226.6-218.7-101.6-562.5z"/><path fill="#060b07" d="M988.3 355.5l296.9-86L1168-11.7z"/><path fill="#ada89c" d="M558.6 566.4L418 824.2l-140.7 31.3z"/><path fill="#7b807e" d="M1980.5 480.5l-132.8 304.7 46.8 335.9z"/><path fill="#6d5248" d="M1754 1050.8L652.2 753.9l640.7-7.8z"/><path fill="#ccd6db" d="M1191.4 683.6l171.9-109.4-343.8-179.7z"/><path fill="#93756b" d="M1004 379l250-93.8-47 210.9z"/><path fill="#cd8569" d="M1105.5 925.8l-101.6-312.5-109.4 23.4z"/><path fill="#0e0712" d="M160.2 457l250-86-445.4 383z"/><path fill="#160f16" d="M668 1105.5L27.3 1121l-140.6-421.9z"/><path fill="#525350" d="M1550.8 300.8l-476.6-289 976.6 148.4z"/><path fill="#2a0d0c" d="M2121 707l-398.3-31.2-328.2-265.6z"/><path fill="#26160b" d="M597.7 535.2L418 769.5l468.7-109.3z"/><path fill="#956130" d="M933.6 1058.6l359.4-39-773.5-195.4z"/><path fill="#6da1cc" d="M1613.3 582l-140.6 140.7-54.7-273.5z"/><path fill="#00050b" d="M496 597.7L214.9 738.3l461-476.6z"/><path fill="#baccd5" d="M1011.7 589.8l359.4-125-179.7 320.4z"/><path fill="#3b1004" d="M933.6 566.4l109.4 39-62.5-406.2z"/><path fill="#b49e91" d="M1433.6 379l-125-78.2-15.6 398.4z"/><path fill="#220a09" d="M1386.7 824.2l187.5 78.1 164-359.3z"/><path fill="#d9feff" d="M1004 371l46.8-39 62.5 39z"/><path fill="#7392af" d="M933.6 496l-164 62.6L918 378.9z"/><path fill="#8f625a" d="M1636.7 816.4L1754 879l-320.3 242.2z"/><path fill="#91a9af" d="M1089.8 972.7L1324.2 832 1082 894.5z"/><path fill="#9c9397" d="M691.4 675.8l-15.6 179.7-132.8-47z"/><path fill="#222522" d="M1027.3 910.2l-85.9-31.3L1129 707z"/><path fill="#bbc9d4" d="M738.3 894.5l-62.5-70.3 211 62.5z"/><path fill="#9d805f" d="M1957 832l-304.7-132.8L1754 808.6z"/><path fill="#857879" d="M1144.5-19.5l-109.3 257.8-234.4-289z"/><path fill="#250c00" d="M1777.3 1121l132.9-320.2L1621 996z"/><path fill="#736251" d="M191.4 222.7L597.7 19.5 621 152.3z"/><path fill="#004d64" d="M824.2 89.8l-15.6 140.7 211-289z"/><path fill="#3b2714" d="M2043 222.7l-625-86 671.8 375z"/><path fill="#073952" d="M1277.3 839.8l-78-70.3 125-23.4z"/><path fill="#6c6252" d="M214.8 1027.3L254 800.8l187.5-171.9z"/><path fill="#0f0d0b" d="M1113.3 941.4l289-125-132.8 117.2z"/><path fill="#6b414f" d="M691.4 347.7L754 668 597.7 418z"/><path fill="#662b1f" d="M675.8 644.5l320.3-203 125 109.3z"/><path fill="#001117" d="M847.7 535.2L746 761.7l117.2-46.9z"/><path fill="#bf5a4c" d="M800.8 793l86 78 210.9-179.6z"/><path fill="#3a525d" d="M535.2 504L207 168l-15.6 148.4z"/><path fill="#1b1413" d="M886.7 425.8L613.3 222.7l86-343.8z"/><path fill="#8aa2b0" d="M1230.5 613.3l289 70.3-164 140.6z"/><path fill="#856164" d="M19.5 222.7l39-86 78.2 250z"/><path fill="#95b3c5" d="M1230.5 996l-218.8-203 93.8 171.8z"/><path fill="#8a6542" d="M308.6 785.2l156.2 140.6 336-39z"/><path fill="#8b364b" d="M50.8 1113.3l93.7-7.8-39-336z"/><path fill="#00090f" d="M1558.6 386.7l-273.4-101.5L1457 293z"/><path fill="#989a95" d="M324.2 457L136.7 636.7l-23.4 218.8z"/><path fill="#071922" d="M543 89.8L230.5 433.6l304.7-164z"/><path fill="#856156" d="M1144.5 300.8l242.2 179.7-265.6-15.7z"/><path fill="#2e1d14" d="M1105.5 925.8l-172-164 47 117.1z"/><path fill="#63788c" d="M1316.4 113.3l109.4-46.9 171.9 78.1z"/><path fill="#271902" d="M261.7 832l211 86-211 156.2z"/><path fill="#5b86ad" d="M949.2 293L816.4 105.5l78.1 273.4z"/><path fill="#536c84" d="M1511.7 535.2l-117.2 7.8-23.4 203z"/><path fill="#9dbac1" d="M1074.2 363.3l179.7-62.5-117.2 7.8z"/><path fill="#93928b" d="M66.4 582L-121 519.5l421.9-179.7z"/><path fill="#463b2f" d="M1222.7 89.8L1824.2 293h-632.8z"/><path fill="#95570e" d="M1394.5 871l62.5 187.6 93.8-117.2z"/><path fill="#89a0b0" d="M1863.3 996l46.9 125-7.9-257.7z"/><path fill="#1c1e1b" d="M1082 363.3l148.5-148.5-250 31.3z"/><path fill="#000008" d="M160.2 379L-97.7 496-121 386.8z"/><path fill="#556472" d="M1699.2 168l414 54.7-250-109.4z"/><path fill="#5c626d" d="M496 371l-132.7 23.5 242.2-132.8z"/><path fill="#b95d33" d="M957 621l211 125-312.5-70.2z"/><path fill="#a1adb3" d="M535.2 629l15.6-70.4-86 86z"/><path fill="#11171b" d="M418 722.7l296.8-562.5-328 304.6z"/><path fill="#8d7b68" d="M-35.2 769.5h234.4l164-265.6z"/><path fill="#6e2d21" d="M652.3 722.7l86 70.3L793 410.2z"/><path fill="#121410" d="M1636.7 730.5l-117.2 86 312.5 46.8z"/><path fill="#0e0b00" d="M113.3-121l-234.4 281.2 164-7.9z"/><path fill="#b1c4d5" d="M1152.3 949.2l125 132.8 265.7-31.2z"/><path fill="#000407" d="M1746 527.3L1699.3 707l78.1 15.7z"/><path fill="#000b0c" d="M2043 222.7l-140.7 851.5 218.8-179.7z"/><path fill="#c1d1d7" d="M1160.2 621l-148.5-234.3 250 156.3z"/><path fill="#bfcccf" d="M1402.3 402.3l-7.8-54.6-117.2-47z"/><path fill="#1d0e1f" d="M949.2 183.6L629-121.1h140.6z"/><path fill="#004459" d="M347.7 35.2l-211 70.3-15.6-78.2z"/><path fill="#081b1b" d="M644.5 519.5L707 675.8 496 785.2z"/><path fill="#402f2c" d="M1238.3 847.7l-101.6 31.2-31.2-132.8z"/><path fill="#748089" d="M1050.8 1050.8L441.4 878.9 543 1105.5z"/><path fill="#00151c" d="M97.7 1066.4L58.6 793l-179.7 31.2z"/><path fill="#b0576b" d="M558.6 238.3l31.2-31.3-15.6-78z"/><path fill="#020500" d="M1019.5 300.8L1129 82l78.1 39z"/><path fill="#809ab3" d="M1394.5 472.7l179.7 179.6 46.9-62.5z"/></g></svg>