<svg xmlns="http://www.w3.org/2000/svg" viewBox="0 0 800 400"><path fill="#514946" d="M0 0h800v400H0z"/><g fill-opacity=".5"><path fill="#cbd5de" d="M657.8 236l-250 178 12.5-281.2z"/><path fill="#cdb394" d="M145.3 298.4l87.5 150 465.6-9.3z"/><path fill="#06050d" d="M311-14l6.2 337.4-212.5-209.3z"/><path fill="#25251f" d="M801.6 407.8L389-45.3l415.6 21.9z"/><path fill="#c7bcb9" d="M523.4 107.8L361 320.3l240.7-103.1z"/><path fill="#6c311d" d="M270.3 192.2l37.5 143.7L711 429.7z"/><path fill="#acaca3" d="M45.3 351.6l-18.7-72 146.8-137.4z"/><path fill="#0b0000" d="M-48.4 279.7l78 168.7 162.6-78z"/><path fill="#bcc9cb" d="M-1.6 245.3l125-112.5-171.8 75z"/><path fill="#8da5b1" d="M345.3 92.2L467.2-14.1 351.6 179.7z"/><path fill="#350e03" d="M561 329.7l196.8 115.6-53.1-246.9z"/><path d="M395.3 145.3l118.8-40.6-62.5-84.4z"/><path fill="#d0f0fb" d="M436 167.2l121.8 134.4L448.4 289z"/><path fill="#000205" d="M57.8 332.8L211 223.4l72-184.3z"/><path fill="#bcb4a4" d="M101.6-48.4l84.3 96.8 75-43.7z"/><path fill="#161f28" d="M157.8 32.8L-48.4 251.6V-32.8z"/><path fill="#8c7771" d="M389 145.3l215.7 109.4L501.6 114z"/><path fill="#7a6f69" d="M761 423.4l31.2-234.3-75-18.8z"/><path d="M798.4 207.8l-43.7 240.6L848.4 336z"/><path fill="#53170c" d="M411 164L267.1 276.7l168.7-53.2z"/><path fill="#05000c" d="M151.6 154.7L4.6 289l68.8-112.5z"/><path fill="#000d15" d="M848.4 64L776.6-48.3l-272 56.2z"/><path fill="#b05e4c" d="M348.4 345.3l9.4-190.6 62.5 156.2z"/><path fill="#7c5d4c" d="M570.3 448.4l109.4-156.2 93.7 9.4z"/><path fill="#5f6e7a" d="M545.3 61l128.1-15.7L439.1 4.7z"/><path fill="#18110d" d="M232.8 220.3L204.7 286l184.4 6.3z"/><path fill="#474a4b" d="M367.2 311l215.6 84.3-62.5-96.9z"/><path fill="#698fad" d="M511 345.3l62.4-165.6 75 62.5z"/><path fill="#b5c3c6" d="M176.6 304.7l28-65.6-62.4 78z"/><path fill="#110a09" d="M579.7 317.2l56.2-46.9 103.2 78.1z"/><path fill="#a9a29e" d="M498.4 120.3l34.4 40.6H636z"/><path fill="#5b829e" d="M370.3 192.2l12.5-84.4L301.6 236z"/><path fill="#896a4b" d="M107.8 307.8l337.5 81.3-178.1 59.3z"/><path fill="#bfd0d5" d="M561 176.6L473.3 314l-53-72z"/><path fill="#d4eff7" d="M404.7 151.6l12.5 31.2 34.4 12.5z"/><path fill="#311718" d="M748.4 286L557.8 173.3l203.1 50z"/><path fill="#596b7b" d="M739 42.2l100 43.7-159.3-18.7z"/><path fill="#ababab" d="M301.6 311l-68.8-3.2 15.6-18.7z"/><path fill="#b1aea9" d="M298.4 370.3l106.3-3.1-203.1-56.3z"/><path fill="#847575" d="M323.4-11l147-37.4-50 140.6z"/><path fill="#09181a" d="M582.8 107.8H479.7l193.7 56.3z"/><path fill="#876966" d="M261 4.7l-37.6 93.7-6.2-84.3z"/><path fill="#686055" d="M717.2 170.3l9.4 59.4-159.4-87.5z"/><path fill="#1f0d07" d="M376.6 189l31.2 12.6-9.4-125z"/><path fill="#a8e5ff" d="M407.8 323.4l25 37.5 21.9 3.2z"/><path fill="#194662" d="M314 67.2l87.6-115.6-59.4 178z"/><path fill="#5f3019" d="M461 136l12.4 56.2-34.3-28.1z"/><path fill="#49516f" d="M261 204.7l-62.6 37.5 84.4-134.4z"/><path d="M514 351.6l-56.2 21.8 53.1 9.4z"/><path fill="#170711" d="M336 179.7l-22-81.3 47 78.2z"/><path fill="#8e623a" d="M145.3 307.8l209.4 59.4-112.5 6.2z"/><path fill="#d5f9ff" d="M417.2 132.8l28.1 28.1-34.4-18.7z"/><path fill="#0f0809" d="M126.6 251.6L70.3 417.2l-21.9-56.3z"/><path fill="#44221d" d="M295.3 332.8l112.5-143.7-150 62.5z"/><path fill="#748696" d="M217.2 448.4L464 432.8l-275-78.1z"/><path fill="#8a747d" d="M207.8 142.2l18.8-28.1-47 25z"/><path fill="#b4564e" d="M317.2 332.8l12.5-40.6 71.9 56.2z"/><path fill="#7f5e62" d="M61 167.2L1.5 82.8 23.4 61z"/><path fill="#270f00" d="M576.6 448.4l156.2-34.3 25-90.7z"/><path fill="#7f7063" d="M111 364l-25 53.2 15.6-93.8z"/><path fill="#8094a1" d="M742.2 407.8l28.1 40.6-6.2-137.5z"/><path fill="#c39ea1" d="M532.8 376.6l-6.2-22 31.2 9.5z"/><path fill="#abced8" d="M514 120.3l-40.6-3.1-37.5 18.7z"/><path fill="#adc7dc" d="M542.2 432.8l-112.5-59.4 237.5 53.2z"/><path fill="#423627" d="M454.7 120.3l328.1-25-281.2-53.1z"/><path fill="#374e5a" d="M61 82.8l96.8 121.9-90.6-225z"/><path fill="#e2895f" d="M442.2 292.2l-50 21.9-3.1-37.5z"/><path fill="#18282a" d="M45.3 167.2l103.1-84.4-81.2 15.6z"/><path fill="#091216" d="M429.7 370.3l-21.9-40.6-18.7 25z"/><path fill="#a5aaa7" d="M198.4 239l-9.3 37.6 40.6-56.3z"/><path fill="#a01f3a" d="M29.7 407.8l28.1-3.1-25-68.8z"/><path fill="#141a1f" d="M307.8 64L161 176.7l6.3 109.3z"/><path fill="#9f9a93" d="M54.7 254.7l71.9-59.4L39 342.2z"/><path fill="#170b19" d="M379.7 73.4L307.8-48.4 295.3-7.8z"/><path fill="#e6834c" d="M382.8 270.3l37.5-37.5-78.1 37.5z"/><path fill="#96a9b7" d="M617.2 217.2l15.6 40.6-96.9 75z"/><path fill="#907c5b" d="M745.3 332.8L686 314.1l-34.3-43.8z"/><path fill="#633926" d="M398.4 239l72 87.6-28.2 25z"/><path fill="#32240f" d="M182.8 298.4l53.1-90.6-12.5 106.3z"/><path fill="#876157" d="M457.8 132.8L536 186l-59.3 9.4z"/><path fill="#839cbb" d="M386 117.2l-28.2 6.2-15.6-59.3z"/><path fill="#0e100b" d="M251.6 76.6l68.7 109.3-25-178z"/><path fill="#552c00" d="M511 386l59.3-22 109.4 84.4z"/><path fill="#0e0b00" d="M-4.7 82.8l37.5-62.5-25-68.7z"/><path fill="#79564c" d="M51.6 223.4l-62.5 100 43.7-18.7z"/><path fill="#001416" d="M282.8 245.3L211 157.8l28.2 121.9z"/><path fill="#5e636b" d="M545.3 220.3h43.8l-37.5 71.9z"/><path fill="#2e1514" d="M576.6 357.8h65.6L682.8 186z"/><path fill="#975d2e" d="M661 379.7l-100-25 18.7 71.9z"/><path fill="#2f251a" d="M839 192.2L789 79.7l-153 71.9z"/><path fill="#0e110b" d="M461 7.8l-12.6 125-46.8 3.1z"/><path fill="#92371b" d="M292.2 320.3l12.5-37.5-50-9.4z"/><path fill="#b4c0c3" d="M567.2 148.4L564 186l-28.2-56.2z"/><path fill="#1e2b2f" d="M523.4 307.8l9.4 21.9-46.9-18.8z"/><path fill="#8a8986" d="M-23.4 201.6L139 117.2l-81.3 84.4z"/><path fill="#201905" d="M145.3 332.8l59.4 115.6-103.1-68.7z"/><path fill="#a1a194" d="M379.7 76.6L420.3 89V32.8z"/><path fill="#00020b" d="M11 148.4l-37.6 40.7 81.3-31.3z"/><path fill="#6b1c15" d="M711 229.7l-3.2 59.4 78.1-31.3z"/><path fill="#658b9f" d="M492.2 304.7l21.9 46.9-84.4-75z"/></g></svg>