<svg xmlns="http://www.w3.org/2000/svg" viewBox="0 0 400 200"><path fill="#514946" d="M0 0h400v200H0z"/><g fill-opacity=".5"><path fill="#d1dee8" d="M241.2 183l79.4-54L268 60.7l-67.8 13.6z"/><path fill="#cab193" d="M68 146.8l166.5 44.8 140.2 32.6L113 216z"/><path fill="#0a0a12" d="M68.1 61.1L66 134.7l85.9 9.2L165.3-21z"/><path fill="#e2ebec" d="M266.7 150.4l-8.6-47-29.1-5-33.8 50.2z"/><path fill="#26231e" d="M424.2 4.2L356 168 246.5 30l-19.9-51z"/><path fill="#b2afa4" d="M17.8 168.5l44.4-45.9 27.3-50.5-68.9 61.5z"/><path fill="#b3bdbe" d="M4.4 124.2l-28.6-18.1 78-36-1 5.4z"/><path fill="#0c0001" d="M-24.2 145.4l26.9 70 77.5 8.8 8-42.7z"/><path fill="#91a6ae" d="M176.5 52.3l69.3-76.5-22.9 38.7L173 97z"/><path fill="#36180f" d="M389.5 224.2l-114.9-56.5 70.3-54.9 79.3 27z"/><path fill="#000400" d="M261.4 58.2l-53.8 8.6-25.8 45.4L232 2.2z"/><path fill="#9b452e" d="M184.8 106.2l64.7 67.3-89.6-.2 2-19.2z"/><path fill="#aea698" d="M139.8.1L94.3 28 68.5 12.2 83-24.2z"/><path fill="#1a222b" d="M32.6-24.2L-6-5.5l-18.2 113.2L88.8 49z"/><path fill="#b4b4ae" d="M69.8 169.3l38-41.6 3.4-20.8-11.7 16.6z"/><path fill="#757a78" d="M370 147l30-61.4-12.9 86.6-10.5 52z"/><path fill="#796256" d="M424.2 100l-205.1-6.6 8.3-29.1-46-12.4z"/><path fill="#4d3727" d="M250.1 191.1L220.6 159l38.2-6.9 71.3 72.1z"/><path fill="#000001" d="M381.8 208.5l24.8 12L403 35.3l-8.6 94.2z"/><path fill="#a1b1bb" d="M218.3 191.2L73.2 147.5l171.4 57.6-47-53.2z"/><path fill="#0f0d0d" d="M116.7 91.7l54.2-116-148.1 205 3.4 14z"/><path fill="#471208" d="M118.8 126l106.9-11.6-27.4-36.5-39.3 94.4z"/><path fill="#586977" d="M221.8 17.8l13.6-11.2L407 34.8l-5.8 9.5z"/><path fill="#131720" d="M107.6 47.3l.2-35L-21 165.6l43.3-33.3z"/><path fill="#000f16" d="M186-6.1l151.3 27.8 71.3 6.7.2-52.6z"/></g></svg>