<svg xmlns="http://www.w3.org/2000/svg" viewBox="0 0 400 200"><path fill="#514946" d="M0 0h400v200H0z"/><g transform="translate(.8 .8) scale(1.5625)" fill-opacity=".5"><ellipse fill="#cdd7e0" rx="1" ry="1" transform="matrix(21.2256 -24.67971 25.6697 22.07704 162.6 71.4)"/><path fill="#b59880" d="M56.1 144.9l3-43 102.8 7.2-3 43z"/><ellipse fill="#060710" rx="1" ry="1" transform="rotate(-165.4 42 19.2) scale(24.34198 44.18354)"/><ellipse fill="#272520" rx="1" ry="1" transform="matrix(-31.76858 27.616 -90.76599 -104.41433 224.3 38.2)"/><ellipse fill="#e1f9ff" cx="152" cy="79" rx="16" ry="17"/><ellipse fill="#0f0304" rx="1" ry="1" transform="matrix(3.17142 -14.92037 46.58342 9.90161 14.3 117.2)"/><path fill="#becace" d="M40 39L6 74l-22-4z"/><path fill="#aeaea4" d="M55 46l-41 68-4-26z"/><path fill="#92a6af" d="M112.6 59.8l-1.2-26 14.4-16.1 27.7-29.3z"/><path fill="#141f27" d="M-16.2-16L86.3 36.4 72.2 63.9-30.3 11.7z"/><ellipse fill="#4a1d0c" rx="1" ry="1" transform="rotate(-142.2 123.7 21.5) scale(26.73668 44.84795)"/><ellipse fill="#afa495" rx="1" ry="1" transform="matrix(-20.57824 .2155 -.14968 -14.29275 62.2 0)"/><path fill="#000300" d="M137 12h23v27h-23z"/><path fill="#5d1b0b" d="M138.3 69.9l-40.9 41L79 85.8l52.4-31.9z"/><path fill="#7f4c3e" d="M111 75l109 55-121-21z"/><path fill="#8caccc" d="M208.9 76.4l-15.5 17.4-8.2-.4 7-29.8z"/><ellipse fill="#1b1212" rx="1" ry="1" transform="matrix(-83.66508 114.422 -5.84871 -4.27656 43.1 82.3)"/><path fill="#9b9585" d="M56.7 104.8L35.4 110 55 88.8l21.4-26.4z"/><path fill="#7f766e" d="M233.7 108.2l7.7-48.4 12.9 2-7.7 48.4z"/><path fill="#000e15" d="M272.6-2.2L269 21.5 147.4 2.2l3.7-23.7z"/><ellipse cx="255" cy="119" rx="8" ry="45"/><path fill="#c5dae6" d="M190.3 136.8L61 102l.8-2.9L191 134z"/><ellipse fill="#7b432e" rx="1" ry="1" transform="rotate(150.6 69.8 45.2) scale(12.65384 7.72752)"/><ellipse fill="#5a6571" rx="1" ry="1" transform="matrix(91.18758 14.48113 -.64938 4.08915 195 14.9)"/><path fill="#3c3f46" d="M112 110l54-15 12 33z"/></g></svg>