<svg xmlns="http://www.w3.org/2000/svg" viewBox="0 0 200 100"><path fill="#534948" d="M0 0h200v100H0z"/><g fill-opacity=".5"><path fill="#c8c8cf" d="M164.5 59.5l-54-30-24 86z"/><path fill="#090511" d="M73.5 76.5l-46-49 56-34z"/><path fill="#c8ac8e" d="M59.5 115.5l98-9-121-33z"/><path fill="#291f19" d="M138.5-15.5h73l-37 131z"/><path fill="#daf7ff" d="M141.5 77.5l-32-38-1 31z"/><path fill="#4f2b24" d="M170.5 107.5l-112-70-36 33z"/><path fill="#bcb8b1" d="M17.5 58.5l-7 27 32-46z"/><path fill="#bfc6c9" d="M-3.5 66.5l-12-11 45-22z"/><path fill="#0b0003" d="M-15.5 72.5l64 19-37 24z"/><path fill="#e4d3d0" d="M136.5 30.5l7 16-27-16z"/><path fill="#090b05" d="M112.5 6.5l28 12-43 21z"/><path fill="#91a4b3" d="M86.5 23.5l30-25-28 44z"/><path fill="#b6ada1" d="M47.5 11.5l-27-22 48 12z"/><path d="M190.5 110.5l25-4-16-57z"/><path fill="#1b1f2c" d="M-15.5 64.5l20-80 35 27z"/><path fill="#1e0000" d="M170.5 56.5l-13 37-16-11z"/><path fill="#01070f" d="M75.5 3.5l-19 49-40 30z"/><path fill="#9c4c3c" d="M104.5 88.5l-27-4 27-50z"/><path fill="#000f17" d="M112.5 1.5l84-17 16 30z"/><path fill="#c6d4e3" d="M100.5 35.5l10 16-1-17z"/><path fill="#48160d" d="M108.5 53.5l-26 15 16-34z"/><path fill="#949993" d="M57.5 54.5l-15 25-21 9z"/><path fill="#6c6d67" d="M191.5 61.5l18-12-70-14z"/><path fill="#c7d5de" d="M105.5 58.5l31-11-15 34z"/><path fill="#714234" d="M123.5 49.5l-2-17-15 9z"/><path fill="#000007" d="M10.5 64.5l4-14 22-10z"/><path fill="#0d3249" d="M120.5 77.5l7 6 10-12z"/><path fill="#979089" d="M17.5 79.5l26-44-39 38z"/><path fill="#00080c" d="M154.5 38.5l-5-10-26-2z"/><path fill="#7897b3" d="M76.5 57.5l17-10v-12z"/><path fill="#a39ca2" d="M69.5 86.5l-16-7 15-9z"/><path fill="#87684f" d="M123.5 101.5l-59 14-38-42z"/><path fill="#1d1818" d="M98.5 73.5l-38-24-10 22z"/><path fill="#2b0200" d="M189.5 81.5l-47 31h39z"/><path fill="#bf6549" d="M87.5 67.5l21 9-17-26z"/><path fill="#749cc0" d="M139.5 43.5l23 15-16 16z"/><path fill="#9c785f" d="M183.5 82.5l-15-7 29-2z"/><path fill="#905635" d="M130.5 89.5l45 1-23 14z"/><path fill="#4c5860" d="M133.5 6.5l82 10-41 7z"/><path fill="#9db6cb" d="M115.5 98.5l-14-18 11 7z"/><path fill="#bcbbbe" d="M65.5 82.5l18 10 17-2z"/><path fill="#2d201b" d="M90.5 87.5l19 4-12-12z"/><path fill="#756356" d="M16.5 22.5l47-8-10-9z"/><path fill="#311215" d="M140.5 41.5l46 14-4 18z"/><path fill="#9badb4" d="M190.5 82.5l-9 33 10-15z"/><path fill="#362718" d="M206.5 22.5l9 34-70-42z"/><path fill="#271814" d="M11.5 92.5l25 23-9-49z"/><path fill="#84767a" d="M75.5-15.5l46 3-19 37z"/><path fill="#000002" d="M202.5 37.5l-12 69 25-22z"/><path fill="#bcc5ca" d="M128.5 51.5l8 29-34-39z"/><path fill="#bb6c5f" d="M81.5 79.5l15 7 15-19z"/><path fill="#211d22" d="M68.5-1.5l21 44-35-10z"/><path fill="#42445b" d="M80.5 7.5l43-23-46 53z"/><path fill="#5b517c" d="M69.5 33.5l-12 14 7 5z"/><path fill="#1f212b" d="M41.5 72.5l-6-30 25 1z"/><path fill="#918080" d="M25.5 82.5l3 23-5-8z"/><path fill="#532623" d="M64.5 73.5l7-17 39-2z"/><path fill="#442a22" d="M112.5 88.5l-11-10 14-5z"/><path fill="#bac5d9" d="M117.5 95.5l-4 20 25-15z"/><path fill="#421d29" d="M-15.5 63.5l34-9-30 30z"/><path fill="#081b29" d="M59.5 25.5l-46 27 24-26z"/><path fill="#6c94c0" d="M96.5 29.5l-16-19 9 21z"/><path fill="#473e34" d="M190.5 30.5l-68-2 1-19z"/><path fill="#b19a91" d="M133.5 73.5l-5-43 14 6z"/><path fill="#251b15" d="M113.5 27.5l-16 10-1-14z"/><path fill="#7a5c5e" d="M-3.5 18.5l19 21-9-20z"/><path fill="#090000" d="M130.5 86.5l-13 7 10 3z"/><path fill="#475869" d="M34.5 47.5l30-21-36 13z"/><path fill="#848d94" d="M46.5 88.5l60 16-39 11z"/><path fill="#e9f9fe" d="M102.5 35.5l7 1-6-3z"/><path fill="#72879c" d="M147.5 74.5l-4-28-13 38z"/><path fill="#957671" d="M125.5 30.5l-12 18 31-1z"/><path fill="#0d0900" d="M-15.5 4.5l18 12 8-23z"/><path fill="#ba1d47" d="M9.5 91.5l9 17-13 7z"/><path fill="#c6bed1" d="M136.5 93.5l-3-4 5 1z"/><path fill="#607583" d="M144.5 6.5l-20 3 37 5z"/><path fill="#161411" d="M109.5 35.5l-1-28 15 4z"/><path fill="#9c948f" d="M9.5 68.5l10-10-10 30z"/><path fill="#1f100d" d="M173.5 81.5l-13-14-16 18z"/><path fill="#5d5f67" d="M32.5 30.5l-13-18 9 26z"/><path fill="#252b30" d="M-15.5 27.5l21 17 35-23z"/><path fill="#976c45" d="M74.5 87.5l48 13-26 13z"/><path fill="#1b160f" d="M60.5 94.5l25 12-3 9z"/><path fill="#001b26" d="M45.5 39.5l23 27 1-12z"/><path fill="#250803" d="M139.5 93.5l-12 1 29 17z"/><path fill="#a55f74" d="M55.5 10.5v14l4-5z"/><path fill="#989898" d="M8.5 57.5l9-15-30 6z"/><path fill="#d59aad" d="M81.5 36.5l1 7-2-2z"/><path fill="#03090b" d="M70.5 105.5l-47 10-10-24z"/><path fill="#0a0000" d="M170.5 69.5l5-17 3 21z"/><path fill="#0e1415" d="M105.5 90.5l-4-9-6-3z"/><path fill="#21121d" d="M78.5-9.5l17 28-16-15z"/><path fill="#aac0d6" d="M144.5 72.5l13-8-21 5z"/><path fill="#1f2019" d="M45.5 74.5l22 7-13-10z"/><path fill="#cbe1e6" d="M136.5 34.5l-14-5h9z"/><path fill="#741e21" d="M176.5 73.5l1-17 15 7z"/><path fill="#03110c" d="M24.5 13.5l7 14-4-24z"/><path fill="#9a7660" d="M168.5 68.5l8 11-14-11z"/><path fill="#a7aaac" d="M46.5 74.5l5-15-13 18z"/><path fill="#180a0d" d="M95.5 48.5l5-18 1 20z"/></g></svg>