<svg xmlns="http://www.w3.org/2000/svg" viewBox="0 0 400 200"><path fill="#514946" d="M0 0h400v200H0z"/><g fill-opacity=".5"><path fill="#dbe1e7" d="M207 71h87.5v84.5H207z"/><path fill="#ab8670" d="M83.6 152.3H243v48.5H83.6z"/><path fill="#0e0e15" d="M68 22.7h90.6v117.1H68z"/><path fill="#2b2019" d="M314.8.8h86v200h-86z"/><path fill="#adc4d3" d="M216.4 105.5H318v39H216.4z"/><path fill="#0a0001" d="M.8 172.7h89v28H.8z"/><path fill="#978777" d="M71 .8h56.3v34.4H71.1z"/><path fill="#333530" d="M224.2.8h176.6V93H224.2z"/><path fill="#b3aba8" d="M232 61.7h47v96.9h-47z"/><path fill="#723227" d="M139.8 94.5h75v76.6h-75z"/><path fill="#c3ced3" d="M.8 91.4H21v23.4H.8z"/><path fill="#b1a99e" d="M18 122.7h26.5v32.8H18z"/><path fill="#171f2a" d="M.8.8h57.8V68H.8z"/><path fill="#7f9db6" d="M174.2 39.8h15.6V104h-15.6z"/><path fill="#a1a0a2" d="M189.8 14.8h25v31.3h-25z"/><path fill="#000400" d="M213.3 22.7H246v39h-32.8z"/><path fill="#7d7d78" d="M375.8 89.8h11v111h-11z"/><path fill="#d0e5ea" d="M219.5 99.2H257v48.5h-37.5z"/><path fill="#5c6c7b" d="M271 93h23.5v67.2h-23.4z"/><path fill="#110100" d="M299.2 138.3h23.5v45.3h-23.5z"/><path fill="#050904" d="M122.7 4H157v50h-34.3z"/><path fill="#3d424c" d="M213.3 150.8h46.9v23.4h-47z"/><path fill="#c47454" d="M179 124.2h34.3V157h-34.4z"/><path fill="#b6aea1" d="M41.4 107h18.8v22H41.4z"/><path fill="#a8987f" d="M139.8 179H232v21.8h-92.2z"/></g></svg>