<svg xmlns="http://www.w3.org/2000/svg" viewBox="0 0 16 8"><path fill="#544949" d="M0 0h16v8H0z"/><g fill-opacity=".5"><path fill="#b3a19f" d="M-13.5 23.5l26-22-5 22z"/><path fill="#2b272c" d="M23.5 3.5l-22-2 30-7z"/><path fill="#21191f" d="M7.5 5.5l-23-14 6-7z"/><path fill="#7b6868" d="M5.5 12.5l4-5-1-8z"/><path fill="#422f27" d="M31.5 8.5l-24-3 17 9z"/><path fill="#bdb5b8" d="M8.5 4.5h4l-3 1z"/><path d="M2.5 7.5l9 12-27-14z"/><path fill="#342d28" d="M13.5 6.5l13-22h-18z"/><path fill="#aea3a8" d="M9.5 2.5v4l2-1z"/><path fill="#5c5d68" d="M7.5-2.5l-12 7 4 2z"/><path fill="#4f3c36" d="M31.5 14.5l-24-9h18z"/><path fill="#977a6d" d="M3.5 5.5l11 18 1-14z"/><path fill="#200c0a" d="M5.5 2.5v-2l-3 4z"/><path fill="#b6b0b3" d="M10.5 3.5l2 1h-4z"/><path fill="#515055" d="M-3.5-9.5l5-6 14 19z"/><path fill="#9a8c90" d="M4.5.5l9-13h-17z"/><path fill="#242631" d="M2.5.5l-18-4v13z"/><path fill="#847677" d="M12.5 17.5l-4 6v-20z"/><path fill="#807a84" d="M16.5-15.5l-9 17 3-15z"/><path fill="#24232d" d="M8.5 1.5l10-17 5 11z"/><path fill="#7b7679" d="M1.5 4.5l-9 1-4-4z"/><path fill="#382b26" d="M4.5 5.5l-20 4 8 2z"/><path fill="#19130d" d="M15.5.5l14-16-20 11z"/><path fill="#3c2f25" d="M12.5 3.5l15 19v-13z"/><path fill="#7e6e5d" d="M14.5 3.5l17 4-5 8z"/><path fill="#6d5f59" d="M.5 23.5l10-3 4-14z"/><path fill="#d4cbcd" d="M10.5 2.5h1l-2 3z"/><path fill="#49484f" d="M11.5 1.5v-14l-8 3z"/><path fill="#a9988f" d="M3.5 6.5l26 14-9 3z"/><path fill="#4c4545" d="M4.5 6.5l-14-4-3-7z"/><path fill="#736869" d="M8.5 11.5l4-7-10 9z"/><path fill="#72757e" d="M10.5 3.5l-1-1h2z"/><path fill="#453229" d="M2.5 5.5l2 3-2 3z"/><path fill="#1d0e14" d="M7.5.5l-11-13 9-3z"/><path fill="#322f36" d="M8.5 2.5l11-10v-8z"/><path fill="#241308" d="M14.5 7.5l-11 8 8 8z"/><path fill="#424041" d="M3.5 5.5l-19 2 6 4z"/><path fill="#231616" d="M12.5 6.5v-1h1z"/><path fill="#56565b" d="M10.5.5l3-10-3 4z"/><path fill="#2b1c11" d="M14.5 1.5h11l2 4z"/><path fill="#4f4338" d="M15.5 1.5l2 22 5-28z"/><path fill="#574943" d="M15.5 5.5l-12 10 7-1z"/><path fill="#736566" d="M9.5-4.5l-2 7v-10z"/><path fill="#72584e" d="M6.5 6.5l-11 14 7 2z"/><path fill="#56555e" d="M2.5 3.5l-15-5 1 5z"/><path fill="#6f6268" d="M7.5.5h-1l1 1z"/><path fill="#42241b" d="M5.5 3.5l1 2 1-2z"/><path fill="#191415" d="M-7.5 3.5l16 14 9-3z"/><path fill="#19101a" d="M9.5 1.5l1-17 4 5z"/><path fill="#49464c" d="M11.5 1.5l-2-15-11 1z"/><path fill="#564b50" d="M7.5.5l10-13-8-3z"/><path fill="#d7c8c9" d="M9.5 5.5h1l-1-1z"/><path fill="#43383c" d="M6.5.5l-5-14-7-2z"/><path fill="#706d74" d="M1.5 3.5l-14 4-3 9z"/><path fill="#7a6b69" d="M11.5 4.5l-14 15 7 4z"/><path fill="#5b4d4d" d="M10.5 6.5v17h6z"/><path fill="#4c4041" d="M11.5 6.5l4 13 16 4z"/><path fill="#504848" d="M-15.5-2.5l4 9h14z"/><path fill="#9c8278" d="M8.5 6.5h-4l-3 9z"/><path fill="#51515b" d="M1.5 2.5l-12 3v8z"/><path fill="#4d4144" d="M7.5-15.5l-5 8v9z"/><path fill="#6c6058" d="M14.5 3.5l17 3-2 12z"/><path fill="#5f585a" d="M2.5 4.5l-17 3 5 3z"/><path fill="#231517" d="M5.5 2.5l4-12-3-6z"/><path fill="#444040" d="M13.5.5l18 5-7-5z"/><path fill="#44393b" d="M5.5.5l6-9-6 5z"/><path fill="#291713" d="M4.5 4.5l1-2v1z"/><path fill="#78757f" d="M8.5.5l7-12h-6z"/><path fill="#433027" d="M19.5 1.5l-12 18 18-2z"/><path fill="#46444c" d="M2.5.5l-18 4v8z"/><path fill="#736464" d="M5.5.5l-3-16-8 5z"/><path fill="#46414a" d="M14.5-2.5h-3l-4 4z"/><path fill="#38291c" d="M14.5 4.5l17 1-8 3z"/><path fill="#7f7a84" d="M2.5-8.5l-4 2 6 7z"/><path fill="#2c2c36" d="M1.5 1.5l-17 3 7 5z"/><path fill="#675350" d="M6.5 4.5l19 19-4-11z"/><path fill="#88736e" d="M9.5 7.5l-7 11 29 5z"/><path fill="#413634" d="M11.5 7.5l-24 16-2-10z"/><path fill="#837e82" d="M1.5 5.5l-15 7v-6z"/><path fill="#5e5145" d="M15.5 4.5l10 7 5 12z"/><path fill="#241819" d="M3.5 2.5l2-1-1 1z"/><path fill="#362a26" d="M12.5 4.5l5-4v2z"/><path fill="#6d5248" d="M4.5 6.5l1-1 2 1z"/><path fill="#826b61" d="M5.5 7.5l-12 11 17 5z"/><path fill="#9d979d" d="M11.5 5.5v-1l-1-1z"/><path fill="#4d4346" d="M1.5 3.5l3-1-1 1z"/><path fill="#6e6c74" d="M1.5 3.5l-11 10-6-4z"/><path fill="#5e4c4a" d="M7.5 3.5h-1l1 1z"/><path fill="#30231f" d="M13.5 5.5l17 18-11-6z"/><path fill="#473936" d="M7.5 23.5l6-17-7 8z"/><path fill="#a88f84" d="M16.5 23.5l-12-16 20 14z"/><path fill="#836b60" d="M5.5 6.5l7 14-7-4z"/><path fill="#3d363c" d="M3.5 2.5l-5-14 4-4z"/><path fill="#1f2532" d="M-10.5 10.5l14-14-4-8z"/><path fill="#4f474c" d="M3.5.5l-12-15 10-1z"/><path fill="#413831" d="M15.5 1.5l16 22v-27z"/><path fill="#2c323f" d="M2.5.5l-8-16-6 2z"/><path fill="#2c2a2e" d="M11.5 2.5l8-18-1 10z"/><path fill="#474346" d="M14.5 2.5l-7-11-8 1z"/><path fill="#1f1a1c" d="M14.5.5l-3-6h2z"/></g></svg>