<svg xmlns="http://www.w3.org/2000/svg" viewBox="0 0 2000 1000"><path fill="#514946" d="M0 0h2000v1000H0z"/><g fill-opacity=".5"><path fill="#c5cacf" d="M1129 246l507.7 359.5L902.3 1121z"/><path fill="#c9af8f" d="M535.2 1058.6L363.2 746l953.2 242.2z"/><path fill="#06040b" d="M793 847.7l-7.8-836-507.9 257.8z"/><path fill="#272018" d="M1347.7-82l429.6 1203 312.5-1242z"/><path fill="#e1f3fa" d="M1355.5 566.4l-164 218.8-172-390.7z"/><path fill="#6c311f" d="M793 527.3l-93.8 297 1086 265.5z"/><path fill="#b5b2a5" d="M11.7 746l421.9-382.7-257.8 421.9z"/><path d="M1316.4 261.7l-164-226.5L996 355.5z"/><path fill="#b7c3c4" d="M35.2 589.8L355.5 293l-461 242.2z"/><path fill="#0d0203" d="M511.7 925.8L89.8 1121-121 722.7z"/><path fill="#85a0ac" d="M871 238.3l297-312.5L871 496z"/><path d="M2121 808.6l-210.8 296.9 101.5-789z"/><path fill="#b9a69b" d="M1308.6 746l132.8-367L1254 269.4z"/><path fill="#08080a" d="M97.7 886.7l414-304.7 164-468.7z"/><path fill="#b6b0a0" d="M816.4-105.5l-492.2 125L504 113.3z"/><path fill="#1d0000" d="M1574.2 925.8l-187.5-101.6 351.6-273.4z"/><path fill="#151e27" d="M35.2 472.7l-156.3-547L394.5 89.9z"/><path fill="#050008" d="M4 722.7l382.7-336-211 62.5z"/><path fill="#001216" d="M2121 168L1004-19.5l914-101.6z"/><path fill="#9e5644" d="M800.8 777.3l398.4-460.9-265.6 554.7z"/><path fill="#c1dae4" d="M1316.4 730.5L1050.8 332l93.7 437.5z"/><path fill="#6c6d65" d="M1980.5 464.8L1511.7 379l461 289z"/><path fill="#481309" d="M1004 394.5l85.8 140.7-390.6 203z"/><path fill="#866c64" d="M1582 379l-593.7-39.2 211 156.3z"/><path fill="#b6bebd" d="M558.6 558.6L355.5 777.3 496 691.4z"/><path fill="#1f241a" d="M1277.3 89.8l-171.8 156.3 453 125z"/><path fill="#251a12" d="M941.4 730.5L457 738.3l156.3-234.4z"/><path fill="#383230" d="M1230.5 855.5l-289 46.8L1121 714.8z"/><path fill="#9a704e" d="M1925.8 761.7l-70.3 86-218.8-132.9z"/><path fill="#abcfe0" d="M1222.7 824.2l-211-211 125-93.7z"/><path fill="#290500" d="M1808.6 1121l93.7-320.2-460.9 320.3z"/><path fill="#956332" d="M1418 1035.2l-468.8 31.2-429.7-218.7z"/><path fill="#98b7c8" d="M1168 1050.8l78-46.9-218.7-187.5z"/><path fill="#6a94b5" d="M964.8 449.2L738.3 589.8l109.4-140.6z"/><path fill="#d1f5ff" d="M1129 355.5l-117.3 31.2 7.8-46.9z"/><path fill="#576b78" d="M2121 238.3l-468.7-86 250-39z"/><path fill="#597486" d="M1543 58.6l-265.7 39 367.2 62.6z"/><path fill="#bbb1af" d="M675.8 793l15.6-78.2L582 754z"/><path fill="#6c96b9" d="M1605.5 589.8l-203.2-164-7.8 390.6z"/><path fill="#224657" d="M1308.6 746l39 117.3-203-109.4z"/><path fill="#b6bbbe" d="M636.7 816.4l343.8 86L832 933.5z"/><path fill="#f38e62" d="M957 785.2l23.5-101.6 125 39z"/><path fill="#0e0708" d="M1277.3 894.5l93.8 93.8-250-62.5z"/><path fill="#1c1515" d="M902.3 472.7L629 82l101.6-203z"/><path fill="#321111" d="M1800.8 777.3l-328.1-328L1871 550.7z"/><path fill="#807374" d="M1207-121H777.3l242.2 382.7z"/><path fill="#869aa5" d="M1918 957l-109.4 148.5L1918 800.8z"/><path fill="#1b160d" d="M964.8 238.3l257.9 46.9L957 355.5z"/><path fill="#9b9894" d="M97.7 894.5l7.8-211 179.7-195.2z"/><path fill="#655c89" d="M597.7 425.8L699.2 332 629 519.5z"/><path fill="#813426" d="M800.8 425.8l-78.1 398.4L660.2 707z"/><path fill="#ada7a7" d="M1386.7 339.8L1230.5 293l211 257.8z"/><path fill="#00516b" d="M800.8 129l31.2 85.8 172-273.4z"/><path fill="#886f55" d="M1347.7 1035.2L621 1121 285 761.7z"/><path fill="#905b5f" d="M629 113.3l-78.2-15.6 15.6 156.2z"/><path fill="#000101" d="M2035.2 285.2L1886.7 1121l234.4-234.4z"/><path fill="#8b5142" d="M1363.3 1121L1621 871l211-7.7z"/><path fill="#886769" d="M58.6 152.3L136.7 379l-125-164z"/><path fill="#c4b1b8" d="M1363.3 933.6l23.4-39-93.7 31.2z"/><path fill="#1b2b31" d="M472.7 183.6l-593.8 117.2 875 78.1z"/><path fill="#170d06" d="M957 879l39-70.4 93.8 117.2z"/><path fill="#714a39" d="M1097.7 386.7l62.5 101.6 85.9-187.5z"/><path fill="#ad5e49" d="M871 660.2l148.5 93.7L918 418z"/><path fill="#bdccd2" d="M1410.2 777.3l-304.7-85.9-15.7-281.2z"/><path fill="#322613" d="M2027.3 214.8l93.8 382.9-437.5-414.1z"/><path fill="#6994bd" d="M957 293l-54.7 46.8-93.7-234.3z"/><path d="M160.2 1019.5L293 746.1 144.5 910z"/><path fill="#736570" d="M636.7 285.2l-195.3 78 93.8-78z"/><path fill="#372625" d="M1089.8 558.6l-625 218.7 343.8-242.1z"/><path fill="#061215" d="M449.2 675.8l-187.5 15.6 398.5-390.6z"/><path fill="#5a5b5d" d="M347.7 332L199.2 97.7l31.3 226.5z"/><path fill="#857561" d="M285.2 855.5l-47 156.2V832z"/><path fill="#c11b36" d="M82 1121l15.7-218.7 101.5 218.8z"/><path fill="#000f16" d="M1410.2 371l179.6-23.3-250-62.5z"/><path fill="#140000" d="M1011.7 464.8l-15.6-125-70.3 187.5z"/><path fill="#788a96" d="M629 1082l250-86-429.8-109.3z"/><path fill="#ae534b" d="M785.2 832l117.1-101.5L1004 871z"/><path fill="#0d0c00" d="M82 58.6l-203 296.9 156.2-461z"/><path fill="#1b0b03" d="M1519.5 761.7L1879 902.3l-281.2-218.7z"/><path fill="#4b4056" d="M777.3 371L1082 43 777.3 222.7z"/><path fill="#000008" d="M-121 394.5v101.6l296.8-117.2z"/><path fill="#004960" d="M347.7 27.3L168 105.5l-31.3-78.2z"/><path fill="#4b2024" d="M230.5 519.5H121L3.9 777.3z"/><path fill="#463e31" d="M1199.2 285.2l31.3-195.4L1886.7 293z"/><path fill="#9ea3a1" d="M441.4 714.8L324.2 816.4l117.2-31.2z"/><path fill="#1d101e" d="M754-121l203 304.6-351.5-304.7z"/><path fill="#68829b" d="M1371 644.5l47-195.3 203 140.6z"/><path fill="#701a14" d="M1746 746l195.4-109.3-148.4-46.9z"/><path fill="#000b0d" d="M652.3 550.8L535.2 707l164-46.8z"/><path fill="#170b00" d="M621 949.2l78.2 109.4 86-7.8z"/><path fill="#6a787c" d="M441.4 621l-70.3 78.2-15.6 117.2z"/><path fill="#8a5616" d="M1535.2 933.6L1371 839.8l117.2 281.3z"/><path fill="#97b6ca" d="M1457 644.5l140.7-15.6-273.5 171.9z"/><path fill="#aaa594" d="M964.8 175.8l101.6-109.4-15.6 156.3z"/><path fill="#7d755e" d="M175.8 191.4L488.3 129 371 207z"/><path fill="#1a1d16" d="M1113.3 82l-23.5 281.3L1285.2 121z"/><path fill="#0f1415" d="M277.3-11.7L293 230.5 214.8 50.8z"/><path fill="#cef3ff" d="M1105.5 418l-31.3-31.3 23.5-31.2z"/><path fill="#030d13" d="M629 238.3l-250 31.2-117.3 132.8z"/><path fill="#761411" d="M1550.8 699.2h125l-39-109.4z"/></g></svg>