<svg xmlns="http://www.w3.org/2000/svg" viewBox="0 0 400 200"><path fill="#514946" d="M0 0h400v200H0z"/><path fill="#d5e5f2" fill-opacity=".5" d="M261.3 58.4l55.4 59.4-64 59.7-55.4-59.4z"/><path fill="#ceb596" fill-opacity=".5" d="M285.8 206.8l-9.7 36.2-191.6-51.3 9.7-36.3z"/><path fill="#0f0f16" fill-opacity=".5" d="M68.2 143l-2-117.2 92.1-1.6 2 117.2z"/><path fill="#29211b" fill-opacity=".5" d="M435.6-73.7l83.2 290-162.3 46.4-83-289.9z"/><path fill="#e4f4fc" fill-opacity=".5" d="M215 68.4l31.5 78.2-13 5.3-31.6-78.2z"/><path fill="#090001" fill-opacity=".5" d="M3.8 156.7L96.4 185 79 241.8l-92.6-28.4z"/><path fill="#bdbbaf" fill-opacity=".5" d="M10.6 149.2L67 88.6l11.4 10.7L22 159.8z"/><path fill="#9fb1b7" fill-opacity=".5" d="M178.2 76l-10-7.5 49-64.9 9.9 7.6z"/><path fill="#b2bdbf" fill-opacity=".5" d="M-14.4 115.6l66.5-52 7.6 9.9-66.4 52z"/><path fill="#9d4e39" fill-opacity=".5" d="M172 175.7l2.8-79.6 45.3 1.6-2.8 79.6z"/><path fill="#17202b" fill-opacity=".5" d="M75.3 61L6.7 87.5-26.9-.1l68.6-26.4z"/><path fill="#afa495" fill-opacity=".5" d="M113.8-31.7l20.5 38.6-49.6 26.4L64-5.3z"/><path fill="#070c03" fill-opacity=".5" d="M261 18.8v42.1h-48.5V18.8z"/><path fill="#92b9d7" fill-opacity=".5" d="M318 110.4l8.6 11-49.2 38.5-8.7-11z"/><path fill="#d2e8ee" fill-opacity=".5" d="M261.7 106.3l-12.5 43.5-37.5-10.7 12.5-43.6z"/><path fill="#381002" fill-opacity=".5" d="M339.6 101.6l24.6 19.2-74 94.8-24.7-19.2z"/><path fill="#aca799" fill-opacity=".5" d="M109.3 112.3l6.1 5-48.2 59.4-6-4.9z"/><path fill="#212023" fill-opacity=".5" d="M255.7 186.6L244 156l17.5-6.7 11.7 30.6z"/><path fill="#796257" fill-opacity=".5" d="M365.8 88.5l32.4 5.2-12.4 78.7-32.5-5.1z"/><path fill="#04080b" fill-opacity=".5" d="M178.4-20.1l-89 154.3-16.3-9.4 89-154.3z"/><path fill="#9a7061" fill-opacity=".5" d="M224 63.2l40.4-4.3 3.8 35.8-40.4 4.2z"/><path fill="#000d15" fill-opacity=".5" d="M232.1 4.8l3.3-23.2L432 9.2l-3.2 23.2z"/><path fill="#370700" fill-opacity=".5" d="M218.7 111l-17.4 10.4-18.5-30.8 17.4-10.5z"/><path fill="#060d1c" fill-opacity=".5" d="M91.2 42.6l10 10-75.2 75-10-9.9z"/><path fill-opacity=".5" d="M397.7 207.6l-15.4-2.7 18.4-104.7 15.4 2.7z"/></svg>