<svg xmlns="http://www.w3.org/2000/svg" viewBox="0 0 400 200"><path fill="#514946" d="M0 0h400v200H0z"/><g fill-opacity=".5"><path fill="#d7e4ee" d="M195.7 145.8l55.5-92.9 72.6 67.1-43.6 43.2z"/><path fill="#cbb294" d="M69.9 147l189.6 51.5 20 3.2L114 219z"/><path fill="#0a080f" d="M160.2 153.3l-82-27.2-11.7-75.7 89.3-56.3z"/><path fill="#25231f" d="M419.2-18L220-11l123 178.2 81.2-120.3z"/><path fill="#d6e5eb" d="M198.7 68.9l22.2 7.4 53.1 72.5-42.5 1.7z"/><path fill="#acaea4" d="M11.5 143.6l-1.8 4.1 20 18.4L90 68z"/><path fill="#b9c1c1" d="M-3.3 95.5l66.1-27-54.2 48.9-32.8-4z"/><path fill="#92a4ae" d="M181.1 108.3l14-50.3L245-24.2l-73 81.7z"/><path fill="#0c0001" d="M-8.2 224.2h114.3l-31.3-49.7-99-25.3z"/><path fill="#000600" d="M266.2 60.3l-2.6.4-30.8-56.5L200.1 63z"/><path fill="#381a11" d="M337.5 119.4L268 170l138 54.2 18.1-95z"/><path fill="#b2a697" d="M93 27L57.8-1.5 144.4-23l-16.8 34.4z"/><path fill="#a9462b" d="M157.3 170.9l29.4-67.9 38 46.8-35 29z"/><path fill="#13202b" d="M-24.2 108.4V-6.8l93.7 19L50 69.5z"/><path fill="#8c7268" d="M336.5 81.6L240 104.5 207 77l22.6-15.8z"/><path fill="#0f0e0e" d="M21.7 204L156.6 40.6l15-64.8L50 141.3z"/><path fill="#788485" d="M383.5 195L372 224.3l12-131.8 14.4 1z"/><path fill="#b8bfbe" d="M99.1 133.8l-21.9 27.9 26.4-47 12.9-4z"/><path fill="#5d6c79" d="M299 30L176.3 8.5l96.9 2.5 151 34z"/><path fill="#a19c9c" d="M191.7 142.6L222 179l62.3-18.3-66.3 30.5z"/><path d="M382 214.3l42.2-26-12-195.7L394.4 128z"/><path fill="#08101d" d="M105.3 52.8l3.5-23.7-76.4 70.2-56.6 72.8z"/><path fill="#000f17" d="M424.2 33L394-19.6 186.2-6.2l127.1 23.5z"/><path fill="#bfcfd5" d="M280.2 125l-73.3.3 42.5 46-46-90.6z"/><path fill="#491f16" d="M200.6 89.2l22.5 14.8-55 32.3-89.7 23.3z"/></g></svg>