<svg xmlns="http://www.w3.org/2000/svg" viewBox="0 0 200 100"><path fill="#534948" d="M0 0h200v100H0z"/><g fill-opacity=".5"><path fill="#c9cad1" d="M116.5 25.5l-31 90 77-55z"/><path fill="#c8ac8d" d="M191.5 115.5h-126l-34-43z"/><path fill="#0a0410" d="M78.5 82.5l-50-53 50-33z"/><path fill="#dbf1fd" d="M112.5 72.5l-9-40 36 41z"/><path fill="#282521" d="M215.5 3.5l-118-19 105 123z"/><path fill="#6c3324" d="M85.5 86.5l-20-41 115 63z"/><path fill="#bdbab4" d="M40.5 39.5l-29 26-2 22z"/><path fill="#12070d" d="M58.5 43.5l-74 54 20 18z"/><path fill="#bdc5c7" d="M.5 46.5l-16 28 48-42z"/><path d="M128.5 27.5l-12-25-17 31z"/><path fill="#99a8b5" d="M114.5-1.5l-26 26 1 23z"/><path fill="#39110a" d="M178.5 51.5l-41 31 52 27z"/><path fill="#b9ada0" d="M65.5 2.5l-22 10-22-28z"/><path fill="#c3afa9" d="M126.5 28.5l16 8-14 37z"/><path fill="#1b212c" d="M43.5 8.5l-43-12-16 68z"/><path fill="#76645e" d="M190.5 90.5l10-43-28-5z"/><path fill="#000f16" d="M191.5-15.5l-69 18 87 12z"/><path fill="#0c0300" d="M33.5 84.5l-38 29 61-1z"/><path fill="#0b000c" d="M37.5 39.5l-36 32 16-27z"/><path fill="#8a655e" d="M137.5 50.5l-43-10 33-11z"/><path fill="#c06653" d="M110.5 73.5l-15-13-23 35z"/><path d="M208.5 90.5l-5-55-15 80z"/><path fill="#4f0700" d="M92.5 61.5l6-24 12 17z"/><path fill="#978d84" d="M18.5 79.5l-16-6 41-36z"/><path fill="#c3d9e7" d="M119.5 80.5l10-31-26 9z"/><path fill="#667783" d="M163.5 15.5l-26-12-28 3z"/><path fill="#7e5d4e" d="M170.5 72.5l-29 43 47-38z"/><path fill="#2b1814" d="M60.5 52.5l36 22-48-1z"/><path fill="#424349" d="M107.5 73.5l42 7-56 9z"/><path fill="#8094a9" d="M132.5 83.5l26-15-21-33z"/><path fill="#080e16" d="M43.5 68.5l28-46-34 23z"/><path fill="#866950" d="M109.5 97.5l-40 18-47-43z"/><path fill="#110907" d="M188.5 89.5l-44-14 18-6z"/><path fill="#719fc2" d="M89.5 42.5l-14 13 18-7z"/><path fill="#aeb2b3" d="M29.5 83.5l15-7 7-15z"/><path fill="#c19d8c" d="M57.5 77.5l9-7 7 6z"/><path fill="#8b9ca5" d="M189.5 107.5l-3-15 8-17z"/><path fill="#bfc2c4" d="M86.5 93.5l8-4-27-7z"/><path fill="#b8c5d4" d="M115.5 32.5l-11 12-3-6z"/><path fill="#231912" d="M97.5 24.5l-3 25 15-30z"/><path fill="#37060c" d="M179.5 74.5l-22-24 34 12z"/><path fill="#96aab9" d="M116.5 90.5l-15-9 23 28z"/><path fill="#070203" d="M113.5 93.5l14 2 5-8z"/><path fill="#627281" d="M174.5 16.5l25-3 16 10z"/><path fill="#9a8d89" d="M122.5 30.5l5 11 36-1z"/><path fill="#83767c" d="M84.5.5l34-11-15 35z"/><path fill="#525674" d="M70.5 28.5l-24 36 20-14z"/><path fill="#00060f" d="M142.5 36.5l18-1-31-7z"/><path fill="#8d7171" d="M52.5-15.5h16l-12 41z"/><path fill="#1d1815" d="M95.5 77.5l15 16-11-4z"/><path fill="#60241e" d="M68.5 39.5l2 42 14 5z"/><path fill="#191213" d="M57.5 25.5l14-17 17 32z"/><path fill="#004965" d="M79.5 21.5l21-23-16 9z"/><path fill="#000d18" d="M-12.5 74.5l20 5-1 36z"/><path fill="#5c84bb" d="M81.5 11.5l11 13-2 13z"/><path fill="#674233" d="M115.5 47.5l7-15-13 5z"/><path fill="#c4cccf" d="M132.5 55.5l-30-14 24 33z"/><path fill="#966b70" d="M7.5 16.5l-5 3 10 15z"/><path fill="#758fa8" d="M140.5 44.5l22 14-30 22z"/><path fill="#0f1319" d="M86.5 51.5l-2 22-9-5z"/><path fill="#9a9996" d="M6.5 56.5l15-14-23 4z"/><path fill="#babdc8" d="M105.5 92.5l41 23-16-17z"/><path fill="#a4a5ac" d="M114.5 34.5l-10 11-3-11z"/><path fill="#9b8b88" d="M136.5 94.5l-7-1 13-8z"/><path fill="#51554f" d="M40.5 14.5l-9 19-17-14z"/><path fill="#191111" d="M61.5 49.5l-24 4-18 25z"/><path fill="#222b31" d="M16.5 23.5l33-5-38 22z"/><path fill="#2d1104" d="M189.5 78.5l-37 37 32-6z"/><path fill="#3f5b71" d="M26.5 41.5l9 7 17-17z"/><path fill="#808a95" d="M87.5 100.5l-35-11-9 26z"/><path fill="#966c45" d="M108.5 115.5l-46-31 66 18z"/><path fill="#210700" d="M141.5 93.5l3 11-18-11z"/><path fill="#0d0800" d="M2.5 16.5l11-32-27 20z"/><path fill="#1c1d17" d="M132.5 27.5l-28 5 7-26z"/><path fill="#715e48" d="M41.5 71.5l-17 13v12z"/><path fill="#c66745" d="M100.5 71.5l-1-11-15 7z"/><path fill="#ad9b94" d="M134.5 83.5l-7-54 14 7z"/><path fill="#000008" d="M12.5 89.5l7 18 3-25z"/><path fill="#321316" d="M143.5 83.5l12 10 15-42z"/><path fill="#0b1b1d" d="M54.5 78.5l2-32 15 10z"/><path fill="#100800" d="M61.5 94.5l10 12 16 5z"/><path fill="#68675f" d="M184.5 53.5l-28-15 54 11z"/><path fill="#9c8e80" d="M10.5 71.5v14l14-22z"/><path fill="#260525" d="M107.5 40.5l-4 2 1-5z"/><path fill="#3a281a" d="M215.5 23.5l-71-9 71 42z"/><path fill="#5d5f69" d="M145.5 58.5l-9-1 1 16z"/><path fill="#927760" d="M177.5 81.5l12-1-26-11z"/><path fill="#b11841" d="M19.5 110.5l-10-20-2 25z"/><path fill="#bacdda" d="M108.5 62.5l1-26 16 50z"/><path fill="#22475d" d="M129.5 74.5l-9 4 7 7z"/><path fill="#001c26" d="M49.5 18.5l4 10-31 14z"/><path fill="#8c5527" d="M172.5 106.5l-32-23 3 30z"/><path fill="#7d3d2f" d="M106.5 48.5l4 7-29 5z"/><path fill="#c7c2be" d="M54.5 56.5l-1 5-6 2z"/><path fill="#00020f" d="M3.5 44.5l-19-6 29 1z"/><path fill="#a36f7a" d="M81.5 43.5l-3-12 5 6z"/><path fill="#281a09" d="M23.5 109.5l4-25 20 7z"/><path fill="#2b1d25" d="M61.5-7.5l13-4 25 34z"/><path fill="#708590" d="M190.5 54.5l7-3-1 13z"/><path fill="#4a4036" d="M120.5 7.5l4 21 65 3z"/></g></svg>