<svg xmlns="http://www.w3.org/2000/svg" viewBox="0 0 400 200"><path fill="#514946" d="M0 0h400v200H0z"/><g fill-opacity=".5"><path fill="#c6cbd1" d="M330.5 118l-147 106.2L222.8 57z"/><path fill="#c8ae8f" d="M69.5 147.7l206.3 53L121 224.3z"/><path fill="#07040d" d="M158.6.8l1.6 164L52.3 52.3z"/><path fill="#271e18" d="M424.2-21l-146.9 7.7 72 237.5z"/><path fill="#d4eaf2" d="M285.2 144.5l-57.9 4.7L204 68z"/><path fill="#6d3321" d="M130.5 160.2l20.3-62.5 214 126.5z"/><path fill="#bdbbae" d="M7 146l68.8-62.4-45.3 76.6z"/><path fill="#bfc9ca" d="M-24.2 105.5l86-39L7 118z"/><path fill="#080105" d="M-24.2 207l54.7 1.6 79.7-120.3z"/><path fill="#162223" d="M194.5 71L424.2 8.7 244.5-24.2z"/><path fill="#98b0bb" d="M232-7l-57.8 57.8 3.1 37.5z"/><path fill="#d9ceca" d="M233.6 60.2L289.8 93l-15.6-29.7z"/><path d="M380.5 224.2h43.7L404 66.4z"/><path fill="#b9ae9e" d="M89.8 25.8l40.7-21.9-81.3-28.1z"/><path fill="#151e28" d="M79 14.8L-24.3-8.6v134.4z"/><path fill="#1b0000" d="M313.3 185.2l-34.4-22 76.6-56.2z"/><path fill="#585b5b" d="M311.7 50.8l112.5-17.2L219.5 3.9z"/><path fill="#201313" d="M-24.2 144.5l53.1 79.7 71.9-39z"/><path fill="#550f00" d="M222.7 108.6l-29.7-36-11 54.7z"/><path fill="#c6d6db" d="M280.5 86.7l-75 31.3 34.3 39z"/><path fill="#b66250" d="M179 77.3l29.6 76.6-29.7 23.4z"/><path fill="#0d0f1a" d="M105.5 50.8L39.8 82l-39 64z"/><path fill="#342b1d" d="M216.4 21l73.4 56.3L408.6 43z"/><path fill="#71736a" d="M391.4 124.2L288.3 71.1 393 93z"/><path fill="#20150f" d="M199.2 147.7l-103.1-3.2 25-40.6z"/><path fill="#8a5e50" d="M279 108.6l-28.2-45.3-50 15.6z"/><path fill="#060a0d" d="M44.5 147.7l59.4-31.3 39-100z"/><path fill="#260200" d="M379 163.3l-18.8 61-56.3-12.6z"/><path fill="#3c4449" d="M280.5 161.7L193 180.5l25-36z"/><path fill="#7d7d73" d="M55.5 152.3l20.3 25 37.5-67.1z"/><path fill="#6f92ad" d="M325.8 119.5l-59.4 50 14-79.7z"/><path fill="#6495b6" d="M188.3 74.2l-4.7 26.6-32.8 11z"/><path fill="#a27a56" d="M350.8 163.3l37.5 1.5-65.6-29.6z"/><path fill="#080803" d="M202.3 64.8l23.5 3.2 14-81.3z"/><path fill="#cbe9f4" d="M205.5 68l20.3 3-7.8 11z"/><path fill="#88857f" d="M91.4 71l-56.2 43.8-22 75z"/><path fill="#adbbc4" d="M132 144.5l-18.7 9.4 25 1.6z"/><path fill="#956436" d="M169.5 224.2h156.3l-167.2-46.9z"/><path fill="#bac5cb" d="M199.2 183.6l-65.6-18.8 32.8 20.4z"/><path fill="#a2cfe2" d="M208.6 169.5l15.6 22 4.7-12.6z"/><path fill="#230f0b" d="M213.3 182l-25-42.2 11 39.1z"/><path fill="#141a1f" d="M74.2 94.5l7.8 51.6 73.5-120.3z"/><path fill="#889ea9" d="M386.7 160.2l-14 28 4.6 36z"/><path fill="#b2d1e1" d="M227.3 96l-18.7 33 39 39z"/><path fill="#360b0b" d="M283.6 82l73.4 67.2 23.5-20.3z"/><path fill="#00050f" d="M299.2 60.2l4.7 15.6-48.4-20.3z"/><path fill="#90564c" d="M329 166.4l32.7 9.4-67.2 34.4z"/><path fill="#915b5d" d="M113.3 50.8l-4.7-26.6 15.6-7.8z"/><path fill="#030004" d="M250.8 177.3l26.5 18.8-43.7-7.8z"/><path fill="#847677" d="M147.7-24.2l60.9 71.9 28.1-68.8z"/><path fill="#e5895c" d="M186.7 155.5l37.5-9.4-23.4-9.4z"/><path fill="#004b62" d="M166.4 16.4l39-26.6-45.2 57.9z"/><path fill="#595279" d="M129 107l12.4-46.8-25 29.6z"/><path fill="#40221e" d="M122.7 143l75-51.6 6.2 25z"/><path fill="#825831" d="M102.3 160.2L47.7 171l125 21.9z"/><path fill="#000202" d="M410.2 43l-32.9 181.2 47-62.5z"/><path fill="#a49095" d="M275.8 185.2l3.1-15.7-21.9 17.2z"/><path fill="#201918" d="M121 21l58 68.8-29.8-106.2z"/><path fill="#5a2f1a" d="M222.7 75.8l6.2 17.2 12.5-28.2z"/><path fill="#53758b" d="M79 82l26.5-17.2-45.3 12.5z"/><path fill="#130c00" d="M35.2 224.2L71 168l29.7 56.2z"/><path fill="#b9c2c3" d="M102.3 121l-10.9 25-15.6 8z"/><path fill="#b1c6d8" d="M285.2 224.2l-7.9-23.4-64-14z"/><path fill="#f2fdff" d="M205.5 69.5l3 18.8-6.2-12.5z"/><path fill="#a89f97" d="M271 166.4l9.5-96.9-28.2 54.7z"/><path fill="#241c15" d="M210.2 50.8L194.5 43l-3 59.3z"/><path fill="#ba5b4f" d="M158.6 168l6.2-17.2 37.5 21.9z"/><path fill="#685d5b" d="M-24.2 60.2l26.5-25H68z"/><path fill="#0c181c" d="M424.2 30.5L382-24.2 246 3.9z"/><path fill="#5e6a75" d="M277.3 8.6l-56.2 6.2L328.9 32z"/><path fill="#1d1d20" d="M47.7 54L30.5 79-4-18z"/><path fill="#b6203d" d="M38.3 221l-26.6-1.5 9.4-40.6z"/><path fill="#5e8cb7" d="M193 60.2l-28.2-36 11 40.6z"/><path fill="#344249" d="M282 183.6l-20.3-34.4-21.9 4.7z"/><path fill="#191a0e" d="M114.8 154l-28-1.7L132 118z"/><path fill="#52473e" d="M352.3 44.5l-6.2 31.3-111-36z"/><path fill="#595e6a" d="M275.8 111.7l-1.6 36 21.9-31.3z"/><path fill="#352819" d="M293 27.3l131.2 22v60.9z"/><path fill="#867968" d="M47.7 197.7l1.5-37.5 6.3 14z"/><path fill="#67302d" d="M147.7 160.2l-12.5-62.5 23.4-9.4z"/><path fill="#8f8f8e" d="M-24.2 104l87.5-39.2L32 96.1z"/><path fill="#21120c" d="M319.5 138.3l50 37.5-81.2-17.2z"/><path fill="#df7846" d="M177.3 130.5l28.2-11-18.8 22z"/><path fill="#00040d" d="M-2.3 79l10.9 9.3 29.7-15.6z"/><path fill="#646c72" d="M72.7 168l79.6 32.8-28 23.4z"/><path fill="#39535f" d="M74.2 96L39.8 4l-9.3 37.4z"/><path fill="#24101c" d="M191.4 36.7L154 5.5l4.7-18.8z"/><path fill="#9fbdd2" d="M285.2 132l4.6 14 32.9-26.5z"/><path fill="#866364" d="M30.5 75.8L10.2 32l6.2 39z"/><path fill="#bdd1e3" d="M129 169.5h18.7l-34.4-9.3z"/><path fill="#443f5a" d="M177.3 47.7l-17.1 35.9L157 18z"/><path fill="#715e65" d="M111.7 69.5H91.4L118 54z"/><path fill="#836e5d" d="M383.6 129l3.1 46.8L368 146z"/><path fill="#0d1420" d="M18 154l-42.2 28 39 39z"/><path fill="#cbd6d8" d="M216.4 130.5l48.4-29.7-39-3.1z"/><path fill="#ccdee0" d="M254 60.2h12.4l12.5 14z"/><path fill="#592d2a" d="M13.3 155.5l-4.7-28.2 26.6-37.5z"/><path fill="#533021" d="M202.3 157l25-12.5-1.5 32.8z"/><path fill="#5f3500" d="M305.5 194.5L246 224.2l36-43.7z"/><path fill="#0c1415" d="M68 58.6L47.7 28.9l1.5-37.5z"/></g></svg>