<svg xmlns="http://www.w3.org/2000/svg" viewBox="0 0 400 200"><path fill="#514946" d="M0 0h400v200H0z"/><g transform="translate(.8 .8) scale(1.5625)" fill-opacity=".5"><ellipse fill="#d0dbe5" rx="1" ry="1" transform="matrix(21.02697 -21.47203 25.62653 25.09535 163.5 71.7)"/><ellipse fill="#c6a98a" rx="1" ry="1" transform="matrix(-73.53168 -22.08015 4.11527 -13.70475 120.1 127)"/><ellipse fill="#090b12" rx="1" ry="1" transform="matrix(-23.96671 -7.83353 14.7812 -45.22314 75.7 52)"/><ellipse fill="#2b2621" cx="239" cy="13" rx="61" ry="123"/><ellipse fill="#b2c8d6" cx="167" cy="79" rx="38" ry="16"/><ellipse fill="#0d0102" rx="1" ry="1" transform="matrix(33.66674 7.9328 -3.57408 15.16837 22.5 119.2)"/><ellipse fill="#8ca6b3" rx="1" ry="1" transform="matrix(12.27739 -17.14887 5.60095 4.00988 123.6 26)"/><path fill="#a6a69d" d="M15 108l45-64-49 38z"/><path fill="#b8c1c1" d="M5.5 57.7L-9.6 69.1 8 75.7l28-32.5z"/><path fill="#adaca0" d="M55 104l-15 1 33-38z"/><path fill="#b6ac9b" d="M53.9 19L42.5-4.6 72-18.9 83.5 4.5z"/><path fill="#0a110c" d="M127 46l27-62 18 44z"/><ellipse fill="#903723" rx="1" ry="1" transform="rotate(-61.7 131 -58.5) scale(28.73942 13.82252)"/><ellipse fill="#1a222a" rx="1" ry="1" transform="matrix(-60.308 -28.36964 8.2959 -17.63539 22.8 19.5)"/><path fill="#4b2214" d="M150 121l76-56 19 78z"/><ellipse fill="#000f17" rx="1" ry="1" transform="matrix(2.07168 -11.45932 88.06229 15.92044 202.6 0)"/><ellipse fill="#727b82" rx="1" ry="1" transform="matrix(-5.7813 -5.26081 39.6456 -43.56806 155 106.5)"/><ellipse fill="#d7e7e8" cx="152" cy="79" rx="14" ry="17"/><path fill="#140b07" d="M11.4 120.8l35.2-52.3 10 6.7-35.2 52.3z"/><path fill="#8d6c60" d="M163 39l26 39-68-32z"/><path fill="#1d0501" d="M77 73.7l34.6 4.8-2.5 17.8-34.7-4.8z"/><path fill="#ea865d" d="M130 103l-16-23 26 11z"/><path fill="#7a736c" d="M253 49l-10 91-9-47z"/><path fill="#0e121d" d="M-16 110.5L18.7 64l49-45.2L45.3 55z"/><path d="M269.3 62.3L253.5 152l-12.8-2.2L256.5 60z"/></g></svg>