<svg xmlns="http://www.w3.org/2000/svg" viewBox="0 0 50 25"><path fill="#534949" d="M0 0h50v25H0z"/><g fill-opacity=".5"><path fill="#d1c2c1" d="M32.5 7.5l7 8-34 21z"/><path fill="#261921" d="M-15.5-6.5l34 12 9 18z"/><path fill="#2a221e" d="M47.5 40.5l17-28-33-28z"/><path fill="#dbe5f1" d="M26.5 8.5l8 7-4 3z"/><path fill="#b99681" d="M21.5 40.5l-11-22 54 15z"/><path fill="#111319" d="M20.5-4.5l-17 28 15-14z"/><path fill="#865443" d="M22.5 11.5l-5 21 13-11z"/><path fill="#c3cad2" d="M6.5 9.5l-18 14-4-6z"/><path fill="#0c0000" d="M10.5 22.5l-26-6 42 24z"/><path fill="#90919c" d="M24.5-15.5l-2 27 7-15z"/><path fill="#192323" d="M38.5-13.5l20 13-34 8z"/><path fill="#9e928e" d="M14.5-15.5h20l-26 21z"/><path fill="#a49295" d="M-.5 19.5h5l4-8z"/><path fill="#4b352e" d="M26.5 19.5l29-2 1 22z"/><path fill="#8c929e" d="M29.5 7.5l7 11 3-4z"/><path fill="#4d4b46" d="M54.5 4.5l-25-4 28 21z"/><path d="M65.5 21.5l-18 7 2-13z"/><path fill="#88757e" d="M47.5 18.5l3 22h-6z"/><path fill="#8e8476" d="M5.5 20.5l5-1 3-5z"/><path fill="#391915" d="M47.5 21.5l-11-1 9-7z"/><path fill="#2f271e" d="M63.5 14.5l2-11-33 3z"/><path fill="#9d8b89" d="M35.5 7.5h-7l8 7z"/><path fill="#2f323a" d="M12.5 4.5l-18 9-10-29z"/><path fill="#bda89d" d="M19.5 21.5l30 19 8-9z"/><path fill="#27222d" d="M20.5 9.5l-8 11 8-24z"/><path fill="#292228" d="M6.5 12.5l-15 6-7 17z"/><path fill="#755548" d="M34.5 27.5l8-10 6 1z"/><path fill="#573d41" d="M12.5 8.5l14 5-6 2z"/><path fill="#7b818d" d="M36.5 12.5l-4 6 2 5z"/><path fill="#4b4e52" d="M7.5 3.5h-15l18 7z"/><path fill="#705856" d="M28.5 9.5l6-4-5 6z"/><path fill="#8c7e73" d="M25.5 31.5l-9-13-5 2z"/><path fill="#161821" d="M19.5 2.5l-7 2-3 13z"/><path fill="#676469" d="M57.5 13.5l1 6-17-9z"/><path fill="#28180c" d="M45.5 21.5l3 7-9-11z"/><path fill="#a7afb9" d="M33.5 19.5v-3h4z"/><path fill="#9c533c" d="M25.5 15.5h-3l1 4z"/><path fill="#3b1b11" d="M18.5 12.5l-4 3 10 3z"/><path fill="#c0c6cf" d="M33.5 18.5v-7l-6 4z"/><path fill="#1b1e19" d="M26.5 8.5l7-24h10z"/><path fill="#575457" d="M40.5 4.5l-31-9-1-11z"/><path fill="#19262d" d="M14.5 8.5l-5-2-6 6z"/><path fill="#9c8c81" d="M31.5 21.5l-28 19-18-7z"/><path fill="#13171f" d="M47.5 2.5l17-10-48 4z"/><path fill="#b0a296" d="M10.5.5l28-5-35-11z"/><path fill="#7b502a" d="M34.5 20.5l7 20 7-9z"/><path fill="#36221f" d="M2.5 23.5l8-11-7 20z"/><path fill="#816869" d="M19.5 11.5l-2 3 4-2z"/><path fill="#777e85" d="M33.5 18.5h4l-2-7z"/><path fill="#212727" d="M6.5 6.5l-20 13 9-14z"/><path fill="#8c898e" d="M-5.5 14.5l-1 8 13-14z"/><path fill="#000b0f" d="M49.5 14.5l10 8-13 18z"/><path fill="#4c4348" d="M36.5-3.5l7 16-7-5z"/><path fill="#190a18" d="M39.5 17.5l-3 2 4 3z"/><path fill="#e2d3d2" d="M27.5 17.5v-6l2 4z"/><path fill="#332728" d="M24.5 4.5l-11-8-3-12z"/><path fill="#2a1b0d" d="M46.5 21.5l-16 12 21 7z"/><path fill="#ad989a" d="M3.5 18.5l3-4-3 2z"/><path fill="#825f49" d="M50.5 27.5l-32-4 39 17z"/><path fill="#bcaea5" d="M32.5 7.5l2 2h-1z"/><path fill="#576366" d="M10.5 8.5l-2 2 3 1z"/><path fill="#831c48" d="M2.5 21.5l-1 19 9-5z"/><path fill="#241c18" d="M18.5 16.5v-3l-8 5z"/><path fill="#442a2f" d="M24.5 13.5l2 3-1-9z"/><path fill="#3a342d" d="M37.5 3.5l-3 4 18 2z"/><path fill="#411109" d="M20.5 14.5l-3 6 2-1z"/><path fill="#211f24" d="M19.5 5.5v-10l-13 22z"/><path fill="#c5ccd0" d="M31.5 15.5l-2-3-4 4z"/><path fill="#4b2b33" d="M32.5 19.5l4 20 8 1z"/><path fill="#544751" d="M40.5-15.5h-26l7 21z"/><path fill="#8b5f67" d="M41.5 21.5l-1 10-11 6z"/><path fill="#4a3238" d="M19.5 13.5l-1 7-2-13z"/><path fill="#998b8b" d="M31.5 7.5l3 9v-7z"/><path fill="#001715" d="M1.5 19.5l3 10-20-9z"/><path fill="#a27168" d="M26.5 18.5l-1-4h-2z"/><path fill="#231c24" d="M5.5 8.5l-3-16-3 5z"/><path fill="#3a352b" d="M5.5 17.5l-1 23 7-9z"/><path fill="#000006" d="M4.5 23.5l37 8-31 5z"/><path fill="#6e646b" d="M46.5 19.5l2-2v-5z"/><path fill="#31120c" d="M46.5 18.5l-5-5v3z"/><path fill="#646069" d="M46.5 3.5l9 6 4-2z"/><path fill="#3e333d" d="M15.5 3.5l-5 5 6-2z"/><path fill="#a5a29f" d="M27.5 22.5l8 14 20 4z"/><path fill="#0d0b08" d="M29.5 5.5l-5 2 3-3z"/><path fill="#2d1c24" d="M-15.5 23.5l20-10-20 20z"/><path fill="#3e3831" d="M40.5 8.5l4-4-12 2z"/><path fill="#7b6956" d="M43.5 18.5l1 2h3z"/><path fill="#0d0d19" d="M11.5 5.5h5l-9 3z"/><path fill="#a3959d" d="M8.5 12.5l-2 2v-1z"/><path fill="#1e2826" d="M2.5 9.5l-5-4-13 13z"/><path fill="#6b5a54" d="M6.5 22.5l4 12-4 6z"/><path fill="#827768" d="M12.5 21.5l-5-3 9 1z"/><path fill="#917d7e" d="M27.5 11.5h6l-8-3z"/><path fill="#596160" d="M-6.5 7.5l-5 8 14-8z"/><path fill="#251419" d="M23.5 3.5l-18-19h8z"/><path fill="#452f20" d="M28.5 32.5l-12-8 16 3z"/><path fill="#080707" d="M4.5 13.5v-3h2z"/><path fill="#91878c" d="M38.5-10.5l-13 14 9-19z"/><path fill="#84888c" d="M32.5 40.5l13-5 2-12z"/><path fill="#1e2225" d="M65.5 4.5l-10-13-27 8z"/></g></svg>