<svg xmlns="http://www.w3.org/2000/svg" viewBox="0 0 128 64"><path fill="#534949" d="M0 0h128v64H0z"/><g fill-opacity=".5"><path fill="#cdc8ca" d="M38.5 79.5l64-39-21-24z"/><path fill="#0d0612" d="M50.5-2.5l-32 23 34 33z"/><path fill="#c7a586" d="M115.5 71.5l-79 8-10-31z"/><path fill="#d6e7f3" d="M90.5 44.5l-27-25 11 29z"/><path fill="#272521" d="M70.5 5.5l54-21 19 89z"/><path fill="#4d2a22" d="M143.5 78.5l-33-33-69 5z"/><path fill="#120203" d="M-15.5 57.5l33-8 24 26z"/><path fill="#aeaaa2" d="M6.5 55.5l22-31-21 16z"/><path fill="#b6bfc1" d="M20.5 22.5l-30 11 7 6z"/><path fill="#8e92a0" d="M81.5-15.5l-28 48 13-48z"/><path fill="#0c080d" d="M6.5 55.5l27-20 12-30z"/><path fill="#000702" d="M82.5 16.5l-20 6 12-21z"/><path fill="#b9ab9f" d="M19.5.5l35-9-22 15z"/><path fill="#1c212a" d="M26.5 6.5l-36 33 1-55z"/><path fill="#8c99ab" d="M85.5 53.5l-6-30 25 15z"/><path fill="#a74f38" d="M59.5 35.5l10 10-23 33z"/><path fill="#2a0205" d="M106.5 32.5l-14 25 27-19z"/><path fill="#786d67" d="M122.5 60.5l5-31-13-2z"/><path d="M143.5 27.5l-10-43-12 92z"/><path fill="#011119" d="M124.5-15.5l18 26-102-15z"/><path fill="#9a847d" d="M76.5 18.5l-14 8 42-1z"/><path fill="#100e1c" d="M11.5 27.5l-9 17 28-27z"/><path fill="#602017" d="M38.5 49.5l33-15-8-7z"/><path fill="#65727e" d="M99.5 3.5l-4 6-21-5z"/><path fill="#a49787" d="M16.5 54.5l17-16-6 15z"/><path fill="#d1dfe5" d="M69.5 45.5l16-10-15-6z"/><path fill="#aa8e8b" d="M31.5 51.5l12-6 4 3z"/><path fill="#36201d" d="M29.5 48.5l25-5-7-19z"/><path fill="#999a99" d="M6.5 35.5l14-15-34 16z"/><path fill="#986845" d="M79.5 53.5l26 7-8 5z"/><path fill="#495c6a" d="M38.5 18.5l-15 10-9-2z"/><path fill="#1f0900" d="M120.5 51.5l-3 20-28 8z"/><path fill="#a9a09a" d="M41.5 52.5l53 13-4 14z"/><path fill="#8d623d" d="M75.5 63.5l6 16-45-26z"/><path fill="#677f91" d="M60.5 18.5l-1 12-11 7z"/><path fill="#95abb2" d="M122.5 56.5l-14 23 12-9z"/><path fill="#5c2e2c" d="M45.5 24.5l24 34-26-7z"/><path fill="#85584d" d="M76.5 21.5l-5 7 14 2z"/><path fill="#a0a4a2" d="M67.5 12.5l-12 6 13-14z"/><path fill="#b3665c" d="M51.5 48.5l5 8 13-11z"/><path fill="#2a2213" d="M61.5 22.5l2-9 3 19z"/><path fill="#f1eef8" d="M70.5 25.5v-2l-3-2z"/><path fill="#1e1b23" d="M38.5 19.5l19 9-11-34z"/><path fill="#49140e" d="M119.5 32.5l-1 15-8-2z"/><path fill="#5c6a71" d="M143.5 15.5l-5-9-30 3z"/><path fill="#7094b3" d="M102.5 36.5l-8-5-12 22z"/><path fill="#4c475a" d="M71.5-10.5l-21 39 1-37z"/><path fill="#0e0e0e" d="M105.5 47.5l-5 11-6-9z"/><path fill="#bba19b" d="M83.5 19.5l7 3-6 20z"/><path fill="#a0b7ba" d="M78.5 56.5h-11l5 2z"/><path fill="#000c13" d="M94.5 17.5l9 7-16-4z"/><path fill="#979087" d="M11.5 50.5l-9-3 23-22z"/><path fill="#514c66" d="M45.5 18.5l-16 22 14-10z"/><path fill="#050d1b" d="M5.5 49.5l-21 2 16 28z"/><path fill="#8d7662" d="M114.5 52.5l-9-8 21 9z"/><path fill="#845057" d="M34.5 16.5l6-9-6-1z"/><path fill="#151d27" d="M42.5 21.5l-13-12-3 36z"/><path fill="#c97d66" d="M56.5 45.5l10-8-10 4z"/><path fill="#4a3f32" d="M80.5 18.5l34-1-37-12z"/><path fill="#bad5e1" d="M77.5 32.5l1 19-11-13z"/><path fill="#3e2120" d="M67.5 48.5l5-2-3 8z"/><path fill="#221c1b" d="M33.5 44.5l7-13 20 15z"/><path fill="#566064" d="M16.5 14.5l-14-2 20-3z"/><path fill="#75869c" d="M54.5 10.5l4 21 4-15z"/><path fill="#5b6a78" d="M94.5 37.5l-3-12-5 22z"/><path fill="#c2cacf" d="M83.5 48.5l-16-21 12 5z"/><path fill="#221123" d="M44.5-3.5v-12l17 27z"/><path fill="#24191f" d="M14.5 24.5l-13 18 21-16z"/><path fill="#5f594f" d="M93.5 25.5h20l10 10z"/><path fill="#190900" d="M119.5 55.5l-18-11 9 10z"/><path fill="#302318" d="M110.5 25.5l15-13 17 19z"/><path fill="#232a2d" d="M27.5 13.5l-12-1-10 14z"/><path fill="#746762" d="M16.5 62.5l-2-9h3z"/><path fill="#070000" d="M60.5 31.5h3l1-9z"/><path fill="#020406" d="M17.5 48.5l-5 15-4-6z"/><path fill="#0f0800" d="M1.5 10.5l5-20-22 19z"/><path fill="#916861" d="M86.5 72.5l21-19-12 26z"/><path fill="#401900" d="M76.5 59.5l26 7-8-7z"/><path fill="#b4aeaf" d="M39.5 52.5l26 6-13 1z"/><path fill="#b8cad1" d="M89.5 49.5l-11-4-9-19z"/><path fill="#3d5362" d="M87.5 57.5l-4-10-8 3z"/><path fill="#896849" d="M51.5 57.5h-24l-8-9z"/><path fill="#675d5e" d="M77.5 3.5l-31-19 10 21z"/><path fill="#171714" d="M73.5 9.5l-11 10 8 2z"/><path fill="#782a43" d="M16.5-5.5l-11 7h19z"/><path fill="#764851" d="M44.5 41.5l7-3 2-17z"/><path fill="#a7ada7" d="M72.5 79.5l-31-20 30 9z"/><path fill="#35030b" d="M57.5 26.5h-4l-4-12z"/><path fill="#735458" d="M3.5 8.5l-4 3 10 12z"/><path fill="#9d837f" d="M91.5 57.5l-9 2 3-3z"/><path fill="#281c0c" d="M23.5 52.5l-12 18 25 9z"/><path fill="#49342f" d="M25.5 27.5l6 4-19 15z"/><path fill="#525f6b" d="M27.5 79.5l3-21 72 21z"/><path fill="#625760" d="M33.5 18.5h7l-15 6z"/><path fill="#d43256" d="M6.5 60.5l1 12 12 7z"/><path fill="#806751" d="M31.5 8.5l-4-4-11 9z"/><path fill="#00121d" d="M45.5 41.5l-7-2-6-14z"/><path fill="#56616a" d="M107.5 8.5l-15 1 8-4z"/><path fill="#1e1626" d="M11.5 24.5l-6-14 4-10z"/><path fill="#180815" d="M83.5 56.5l-7 5 1-4z"/></g></svg>