<svg xmlns="http://www.w3.org/2000/svg" viewBox="0 0 50 25"><path fill="#534949" d="M0 0h50v25H0z"/><g fill-opacity=".5"><path fill="#cfc4c5" d="M9.5 37.5l30-22-7-9z"/><path fill="#291d25" d="M19.5 3.5l-35-7 43 26z"/><path fill="#29201b" d="M63.5 2.5l-26-7 8 45z"/><path fill="#c8d2df" d="M25.5 8.5l5 11 5-4z"/><path fill="#b99580" d="M47.5 28.5l-26 6-11-16z"/><path fill="#483129" d="M25.5 18.5l28 22-4-21z"/><path fill="#0f0000" d="M6.5 19.5l18 21-28-15z"/><path fill="#0b0f19" d="M6.5 18.5l12-8 3-15z"/><path fill="#272c28" d="M40.5-15.5l25 29-39-8z"/><path fill="#986456" d="M23.5 5.5l6 35-10-10z"/><path fill="#b9c2c8" d="M6.5 8.5l-22 12 9 1z"/><path fill="#c2b5a9" d="M11.5 2.5l13-9-23-9z"/><path fill="#797884" d="M19.5 14.5l4-15 10-9z"/><path fill="#a4868a" d="M3.5 21.5l-1-6 5-2z"/><path fill="#504c48" d="M55.5 4.5l-5 11-23-15z"/><path d="M49.5 14.5l16 6-17 18z"/><path fill="#000400" d="M28.5 2.5l-4 6 7-5z"/><path fill="#85919e" d="M33.5 9.5l5 5-5 5z"/><path fill="#001211" d="M-15.5-4.5l8 19 10-5z"/><path fill="#1e0911" d="M4.5 34.5l1-15-21 1z"/><path fill="#481c18" d="M25.5 10.5l-6 10 2-7z"/><path fill="#694e45" d="M49.5 14.5l-31 26 27-1z"/><path fill="#3e1f1d" d="M44.5 27.5l2-20-9 13z"/><path fill="#e1dee0" d="M29.5 11.5h4l-6 6z"/><path fill="#0e0806" d="M11.5 19.5l5-3 2-5z"/><path fill="#948276" d="M9.5 17.5l45 18-34 5z"/><path fill="#0c121c" d="M22.5-2.5l43-5-19 10z"/><path fill="#403846" d="M27.5-3.5l-17 19 11-6z"/><path fill="#66676b" d="M65.5 13.5v8l-26-11z"/><path fill="#9f7170" d="M41.5 21.5l-2 19h-17z"/><path fill="#261f28" d="M3.5 16.5l5-7-9 7z"/><path fill="#7d6a6d" d="M27.5 7.5l6 5-5-2z"/><path fill="#706465" d="M13.5 2.5l-3-1-3 3z"/><path fill="#998a8f" d="M7.5 11.5v3l-6 3z"/><path fill="#352e27" d="M61.5 14.5l-10-11-25 1z"/><path fill="#1e110f" d="M11.5 12.5l-1 4h-4z"/><path fill="#865444" d="M27.5 22.5l-5-2v-8z"/><path fill="#140e00" d="M45.5 21.5l6 19h-22z"/><path fill="#5e6b6e" d="M9.5 10.5l-4-5 3 7z"/><path fill="#1c1f2a" d="M3.5 12.5l9-9 8 4z"/><path fill="#858c98" d="M34.5 13.5l-1 7 7-7z"/><path fill="#932252" d="M2.5 22.5l9 15-6 3z"/><path fill="#7f878c" d="M22.5 5.5v7l5-12z"/><path fill="#b29a8f" d="M19.5 21.5l35 19 11-8z"/><path fill="#6a5b63" d="M12.5 17.5l-2-1 5-5z"/><path fill="#949ba4" d="M47.5 22.5l5 12-4 1z"/><path fill="#7b5231" d="M34.5 20.5l5 20h26z"/><path fill="#827870" d="M11.5 31.5l5 9v-23z"/><path fill="#715d56" d="M40.5 17.5h8l1 3z"/><path fill="#081721" d="M14.5 10.5l2 5-9-9z"/><path fill="#311620" d="M46.5 15.5l-9 4 5-9z"/><path fill="#d3dde8" d="M28.5 17.5h5l-7-2z"/><path fill="#1a1924" d="M4.5 4.5l-2-20-17 8z"/><path fill="#1d1c17" d="M27.5 7.5l5-4h-5z"/><path fill="#1f130d" d="M19.5-13.5l-4 20 8-15z"/><path fill="#7f6d5d" d="M7.5 18.5l19 22 15-10z"/><path fill="#041518" d="M46.5 40.5l6-56 13 27z"/><path fill="#3d312e" d="M31.5 21.5l-4-3v2z"/><path fill="#505b5d" d="M5.5 10.5l7-2-1 2z"/><path fill="#636265" d="M45.5 3.5h20l-2 5z"/><path fill="#221f11" d="M9.5 14.5l-5 10v-5z"/><path fill="#9c8b8a" d="M35.5 9.5l-1 7-3-9z"/><path fill="#7d6874" d="M2.5 13.5l-18 17v-16z"/><path fill="#5a5e71" d="M30.5 18.5h2l2 5z"/><path fill="#473d3e" d="M49.5 15.5l-10-9-4 4z"/><path fill="#121400" d="M8.5 40.5l-8-3 9-16z"/><path fill="#151111" d="M16.5 14.5l-4 4 2-5z"/><path fill="#737a7d" d="M33.5 18.5l2-1v-6z"/><path fill="#261218" d="M24.5 13.5h2l-2-6z"/><path fill="#7c7981" d="M-15.5 5.5h18l-18-5z"/><path fill="#04211a" d="M1.5 19.5l-15 3 21 16z"/><path fill="#837078" d="M11.5-15.5l15 5v15z"/><path fill="#c0c7ce" d="M31.5 18.5l-4-7 6 2z"/><path fill="#706e5d" d="M7.5 18.5l-2 4 6-5z"/><path fill="#43140d" d="M16.5 15.5l5 1-2 3z"/><path fill="#c2c3c7" d="M32.5 16.5l-3-1-2-6z"/><path fill="#5c5e65" d="M31.5 1.5l8 1-6 1z"/><path fill="#33282a" d="M-.5-15.5l25 20-12-20z"/><path fill="#404b4a" d="M-15.5-11.5l1 13 20 8z"/><path fill="#101519" d="M14.5 10.5l-5 7 2-9z"/><path fill="#7f6969" d="M27.5 11.5l2-4 3 3z"/><path fill="#5f3427" d="M27.5 22.5l-6-9v4z"/><path fill="#3e2a2b" d="M21.5 10.5l-5 4-2-1z"/><path fill="#20101f" d="M43.5 15.5l-6 3 1 3z"/><path fill="#8f796a" d="M15.5 3.5l-10-18 8 8z"/><path fill="#432224" d="M11.5 23.5l-5 17-3-10z"/><path fill="#94827b" d="M25.5 40.5l-11-14 2-8z"/><path fill="#8e5949" d="M26.5 19.5l-8 1 7-5z"/><path fill="#2e1313" d="M31.5 22.5l31 18-24-4z"/><path fill="#9f8e8d" d="M1.5 17.5h2l2 2z"/><path fill="#51353b" d="M21.5 14.5l5-2-1 2z"/><path fill="#675f65" d="M10.5 8.5l-4 7 3-3z"/><path fill="#896c77" d="M33.5 22.5l-13 18 10-5z"/><path fill="#511d0f" d="M23.5 17.5l-6 1 3-2z"/><path fill="#b5a7b2" d="M1.5 12.5l-17 5v-7z"/><path fill="#5b4751" d="M25.5 2.5l-13-18h21z"/><path fill="#422c1c" d="M16.5 24.5l-6 16 13-15z"/><path fill="#acb5c2" d="M34.5 19.5l-4-6 2-1z"/><path fill="#080c15" d="M7.5.5l-1 3v-6z"/><path fill="#735356" d="M42.5 19.5l-5 18-3-6z"/></g></svg>