<svg xmlns="http://www.w3.org/2000/svg" viewBox="0 0 50 25"><path fill="#534949" d="M0 0h50v25H0z"/><g fill-opacity=".5"><path fill="#c9b8b6" d="M39.5 15.5l-34 25 26-35z"/><path fill="#2d2228" d="M32.5 23.5l-46-21 32-1z"/><path fill="#191e19" d="M27.5 5.5l31 7-20-28z"/><path fill="#dbe8f3" d="M31.5 10.5l-6 8 8-2z"/><path fill="#b89882" d="M65.5 34.5l-56-16 14 21z"/><path fill="#391b13" d="M65.5 24.5l-43 15 20-27z"/><path fill="#070000" d="M10.5 22.5l-26-6 32 24z"/><path fill="#0d1016" d="M20.5 4.5l-1-11-15 28z"/><path fill="#817b81" d="M11.5 8.5l-8 11-5-8z"/><path fill="#aa9d96" d="M9.5 4.5l22-17-21 6z"/><path fill="#7f7b86" d="M21.5 13.5l4-29h11z"/><path fill="#815948" d="M23.5 15.5l41 21-52 4z"/><path fill="#171e27" d="M10.5 6.5l-9 8 20-10z"/><path fill="#b7b9be" d="M-5.5 21.5l-6-2 17-10z"/><path fill="#eae3e7" d="M27.5 16.5v-7l4 8z"/><path d="M46.5 40.5l19-19-16-7z"/><path fill="#1c1c29" d="M-15.5-15.5l25 18-17 2z"/><path fill="#7c686c" d="M50.5 40.5l-3-24-2 13z"/><path fill="#6c5859" d="M33.5 11.5l-3-5-6 3z"/><path fill="#535350" d="M38.5 7.5l-12-8 17 4z"/><path fill="#0b121b" d="M30.5-.5l24 4 6-19z"/><path fill="#b7b4af" d="M27.5 22.5l30 18h-33z"/><path fill="#b39a9a" d="M7.5 12.5l-6 6 2 1z"/><path fill="#281f22" d="M-3.5 26.5l8-13-20 5z"/><path fill="#381f1c" d="M12.5 18.5l3-6 11 1z"/><path fill="#8897a7" d="M33.5 9.5l7 5-6 4z"/><path fill="#0a0c0a" d="M27.5 4.5h3l-7 5z"/><path fill="#97615b" d="M19.5 10.5l7 5-1 3z"/><path fill="#382319" d="M39.5 12.5l6 3 3 14z"/><path fill="#2e2b37" d="M31.5 19.5l2 20 9-3z"/><path fill="#848c8e" d="M22.5 10.5l5-9-4 4z"/><path fill="#7a5b4c" d="M42.5 18.5l-4 6 9-5z"/><path fill="#5d2c24" d="M16.5 8.5l11 14-7-3z"/><path fill="#24231d" d="M25.5 8.5l3-7 6 3z"/><path fill="#cdb8bc" d="M26.5 11.5l2 1-2-3z"/><path fill="#b4978d" d="M51.5 40.5l-35-20 47 12z"/><path fill="#adbecf" d="M32.5 12.5l3 7-5-3z"/><path fill="#2d2431" d="M15.5 2.5l12 9-20-5z"/><path fill="#5a585b" d="M43.5 3.5l20 5 2-7z"/><path fill="#1b0810" d="M23.5 3.5l-8-8-2-10z"/><path fill="#9b7e69" d="M14.5 3.5l8-19-7 4z"/><path fill="#888075" d="M16.5 17.5l-2 2 2 6z"/><path fill="#8c8184" d="M42.5 15.5l-19-7 8-1z"/><path fill="#1b1000" d="M45.5 21.5l-18 19 21-6z"/><path fill="#171d1b" d="M29.5 4.5l-6 3 7-7z"/><path fill="#33181c" d="M24.5 8.5v6l2-2z"/><path fill="#341f26" d="M34.5 22.5l6-7 4 5z"/><path d="M1.5 9.5l-17 16v-7z"/><path fill="#3c352b" d="M37.5 12.5l3-10 9 4z"/><path fill="#4d4e55" d="M7.5 8.5l-8-24 10 15z"/><path fill="#141319" d="M19.5 17.5h-5l1-5z"/><path fill="#ad8881" d="M12.5 20.5h-2l1-3z"/><path fill="#af9b99" d="M32.5 10.5v5l3-6z"/><path fill="#8b7e73" d="M7.5 40.5h-23l47-19z"/><path fill="#93124c" d="M2.5 23.5l8 14 8 1z"/><path fill="#bdcdd4" d="M29.5 15.5l4-3-2 6z"/><path fill="#566971" d="M54.5 6.5l11 3-20 6z"/><path fill="#a79d94" d="M14.5 1.5l-7-3 3-11z"/><path fill="#5c595d" d="M-7.5-7.5l13-8 34 19z"/><path fill="#815e69" d="M40.5 21.5l2 1-2-2z"/><path fill="#051c18" d="M1.5 19.5l2 9-9-2z"/><path fill="#cfcacc" d="M29.5 12.5l1 6-4-4z"/><path fill="#88584a" d="M25.5 20.5l-5-1 7-1z"/><path fill="#70757a" d="M48.5 20.5l-7 14 4 6z"/><path fill="#acaabf" d="M36.5 17.5h2l1-2z"/><path fill="#301716" d="M8.5 15.5l-7 21-13 4z"/><path fill="#504853" d="M19.5 6.5l13-22-3 13z"/><path fill="#2a171c" d="M3.5 12.5l-1 3 4-4z"/><path fill="#201b23" d="M9.5 3.5l-25-19 4 12z"/><path fill="#001214" d="M49.5 17.5l14 1-16 22z"/><path fill="#76656b" d="M19.5 11.5l1 1-1 2z"/><path fill="#7a2646" d="M2.5 20.5l7 15-5-1z"/><path fill="#26080b" d="M39.5 12.5l6 3-1 2z"/><path fill="#161a24" d="M18.5 9.5v-8l-11 16z"/><path fill="#4e4457" d="M14.5 12.5l3-1v-4z"/><path fill="#826b52" d="M44.5 19.5l-3-2 3 1z"/><path fill="#2a1922" d="M44.5 14.5l-5 7h-6z"/><path fill="#caa79b" d="M23.5 18.5l2-2h3z"/><path fill="#8899ad" d="M39.5 16.5v-2l-3-2z"/><path fill="#72522c" d="M36.5 20.5l10 16-15 4z"/><path fill="#8f8386" d="M7.5 16.5l3-7-7 7z"/><path fill="#a59ba4" d="M-6.5 12.5l-3 11 11-12z"/><path fill="#4e4d44" d="M5.5 24.5l4 4-3-7z"/><path fill="#000200" d="M4.5 21.5l2 13 8 2z"/><path fill="#1f1e26" d="M13.5 5.5l-2 3-5-4z"/><path fill="#504851" d="M10.5 2.5l-11 2 11 1z"/><path fill="#879287" d="M-5.5 20.5l6-3h-10z"/><path fill="#402422" d="M19.5 19.5l-2-9 4 4z"/><path fill="#68615b" d="M10.5 22.5l-2-4 7-7z"/><path fill="#606974" d="M34.5 13.5l-1 3 2-2z"/><path fill="#171e28" d="M15.5 13.5l-3-9-1 7z"/><path fill="#151500" d="M9.5 40.5l-6-5 6-14z"/><path fill="#2a2932" d="M7.5 15.5l9-8-4-1z"/><path fill="#465661" d="M27.5 19.5l5-1-2 4z"/><path fill="#121c15" d="M28.5.5l14-4-1-12z"/><path fill="#190007" d="M10.5 16.5v-3l1 1z"/><path fill="#7f6a5a" d="M12.5 20.5l12 10 8-3z"/><path fill="#512705" d="M34.5 23.5l-15 16 34-11z"/><path fill="#3d3f41" d="M39.5 11.5l3-4-7 4z"/><path fill="#a8b0bd" d="M31.5 12.5l4 7-3-2z"/></g></svg>