<svg xmlns="http://www.w3.org/2000/svg" viewBox="0 0 200 100"><path fill="#534948" d="M0 0h200v100H0z"/><g fill-opacity=".5"><path fill="#ced8e5" d="M102.5 33.5l63 25-56 40z"/><path fill="#d3b799" d="M37.5 74.5l22 41 108-7z"/><path fill="#06010d" d="M78.5 82.5l-1-82-47 26z"/><path fill="#2a2521" d="M196.5 115.5l-82-120 101-2z"/><path fill="#c5bab8" d="M96.5 80.5l31-56 24 28z"/><path fill="#6f3528" d="M175.5 108.5l-101-27-12-40z"/><path fill="#b7b3ad" d="M39.5 40.5l-30 47 5-27z"/><path fill="#c9d4d7" d="M24.5 35.5l-19 23-12-7z"/><path fill="#0b0003" d="M12.5 115.5l34-25-62-18z"/><path fill="#000400" d="M135.5 30.5l-21-28-11 24z"/><path fill="#92a3b2" d="M89.5 45.5l-2-23 27-23z"/><path fill="#3a120b" d="M189.5 111.5l-15-64-32 37z"/><path fill="#080208" d="M45.5 38.5l18 7-51 43z"/><path fill="#cee9f4" d="M107.5 37.5l3 34 27 5z"/><path fill="#b7a99d" d="M45.5 12.5l47-28h-79z"/><path fill="#171e2b" d="M37.5 8.5l-34 39-19-57z"/><path fill="#7c716e" d="M190.5 100.5l-9-57 18 5z"/><path fill="#501106" d="M65.5 73.5l46-19-10-12z"/><path fill="#000e15" d="M183.5-15.5l32 31-91-13z"/><path fill="#886d66" d="M111.5 30.5l4 19 59-7z"/><path d="M200.5 46.5l-11 69 26-37z"/><path fill="#bf6350" d="M92.5 50.5l14 26-21 13z"/><path fill="#070618" d="M47.5 30.5l-46 41 19-29z"/><path fill="#404750" d="M142.5 73.5l-52 5 25 9z"/><path fill="#7b8ea3" d="M132.5 84.5l3-52 26 30z"/><path fill="#7f5e4f" d="M148.5 107.5l43-31-22-4z"/><path fill="#627480" d="M113.5 4.5l28 11 23-6z"/><path fill="#221815" d="M60.5 51.5l35 21-48 2z"/><path fill="#a8a59d" d="M44.5 77.5l9-17-27 25z"/><path fill="#130c07" d="M97.5 36.5l21-8-22-5z"/><path fill="#699ec0" d="M87.5 42.5l-12 15 19-12z"/><path fill="#1d0f0e" d="M160.5 67.5l22 19-45-3z"/><path fill="#847063" d="M40.5 87.5l28 28v-46z"/><path fill="#988c81" d="M1.5 74.5l15 6 25-39z"/><path fill="#361a1a" d="M141.5 43.5l49 12-2 21z"/><path fill="#b2a8a0" d="M129.5 98.5l-63-16 49 28z"/><path fill="#916135" d="M124.5 100.5l-15 15-58-33z"/><path fill="#c2d1d9" d="M106.5 42.5l11 38 16-24z"/><path fill="#0b0507" d="M137.5 97.5l-25-4 14-4z"/><path fill="#afc5d9" d="M118.5 92.5l-12-4-6-9z"/><path fill="#4b5379" d="M64.5 54.5l-9-3 15-21z"/><path fill="#5e6e7b" d="M197.5 21.5l18-9-44 3z"/><path fill="#857679" d="M104.5 24.5l16-38-47-2z"/><path fill="#bebab6" d="M113.5 32.5l16-3 16 7z"/><path fill="#785144" d="M125.5 30.5l-6 18-12-7z"/><path fill="#10171e" d="M82.5 17.5l-41 53 28-71z"/><path fill="#85585c" d="M57.5 23.5l7-13-10-4z"/><path fill="#00050e" d="M160.5 38.5l-10-9h-21z"/><path fill="#5a768b" d="M55.5 30.5l-14 10h-15z"/><path fill="#9c9997" d="M29.5 33.5l-6 1-5 11z"/><path fill="#1b496c" d="M86.5 33.5l-7-19 14-15z"/><path fill="#8b9eaa" d="M187.5 93.5l7-13-6 26z"/><path fill="#300c0a" d="M90.5 62.5l8-29 5 12z"/><path fill="#8e696b" d="M1.5 20.5l12 18-6-20z"/><path fill="#8e766c" d="M27.5 93.5l-5 11 3-21z"/><path fill="#482e23" d="M122.5 83.5l-16-5 5-8z"/><path fill="#6d8197" d="M137.5 44.5l25 14-26 9z"/><path fill="#030707" d="M16.5 90.5l31 9h-32z"/><path fill="#a38f8c" d="M145.5 85.5l-11 9-5-2z"/><path fill="#686459" d="M184.5 44.5l-5 14-14-19z"/><path fill="#291a20" d="M75.5-15.5l-8 11 30 27z"/><path fill="#010000" d="M82.5 31.5v13l5-5z"/><path fill="#2d0f03" d="M189.5 80.5l-8 35h-37z"/><path fill="#b09996" d="M169.5 83.5l-9 8 3-8z"/><path fill="#8ca1b1" d="M104.5 9.5l-17 20 7 4z"/><path fill="#b2a69c" d="M124.5 68.5l17-31-7 41z"/><path fill="#2c1e1e" d="M154.5 40.5l16 22-29-21z"/><path fill="#90755f" d="M187.5 81.5l-25-14 12 13z"/><path fill="#3b2818" d="M212.5 46.5l-79-34 82 11z"/><path fill="#222a2f" d="M2.5 45.5l38-25-56 11z"/><path fill="#845023" d="M157.5 113.5l5-15-33-19z"/><path fill="#a8acb3" d="M101.5 43.5l1-10h13z"/><path fill="#8e643d" d="M64.5 89.5l-23-12-3 10z"/><path fill="#a81e46" d="M8.5 115.5l1-27 12 27z"/><path fill="#4e6075" d="M16.5 15.5l4-9 9 30z"/><path fill="#2d1b0b" d="M45.5 75.5l15 4-12-11z"/><path fill="#a7b1b1" d="M68.5 78.5l-10-3 10-2z"/><path fill="#2c110b" d="M15.5 87.5l12-20 2 17z"/><path fill="#b4554d" d="M91.5 73.5l-12 7 20 7z"/><path fill="#1d1015" d="M27.5 46.5l-17 20 11-25z"/><path fill="#b6cede" d="M110.5 56.5l18 18-29-13z"/><path fill="#6f2b29" d="M66.5 69.5l12-26-6 40z"/><path fill="#1c1418" d="M21.5 17.5l-30-33-6 30z"/><path fill="#1b1f23" d="M118.5 27.5l-10 8-13-14z"/><path fill="#e79070" d="M108.5 71.5l-12-2 5 9z"/><path fill="#afb3bd" d="M45.5 64.5l7-7 2 2z"/><path fill="#021119" d="M34.5 25.5h24l-28 12z"/><path fill="#473e34" d="M121.5 28.5l1-20 67 23z"/><path fill="#5c4560" d="M64.5 49.5l-8-1 17-23z"/><path fill="#1a2d38" d="M37.5 43.5l52 14h-30z"/><path fill="#090e0e" d="M94.5 115.5h-16l-17-21z"/><path fill="#844e45" d="M88.5 47.5l15 5-17 7z"/><path fill="#877a77" d="M9.5 87.5l8-12-7-18z"/><path fill="#7d5e5f" d="M102.5 38.5l21 11 12-5z"/><path fill="#123e4a" d="M2.5 9.5l34-10-7 10z"/><path fill="#59709c" d="M88.5 19.5l-9-11 10 26z"/><path fill="#0e0a07" d="M111.5 7.5l-11 28 21-26z"/><path fill="#97b6cf" d="M139.5 72.5l20-18-4 13z"/><path fill="#000d10" d="M65.5 52.5l4 14-15 4z"/><path fill="#230500" d="M152.5 115.5l-20-20 7-3z"/></g></svg>