<svg xmlns="http://www.w3.org/2000/svg" viewBox="0 0 400 200"><path fill="#514946" d="M0 0h400v200H0z"/><g transform="translate(.8 .8) scale(1.5625)" fill-opacity=".5"><ellipse fill="#d3dde5" rx="1" ry="1" transform="matrix(26.92878 -9.241 11.7638 34.2804 161.6 73.3)"/><ellipse fill="#caad8d" rx="1" ry="1" transform="rotate(-74 144.6 -16.5) scale(13.68116 75.08378)"/><ellipse fill="#080911" rx="1" ry="1" transform="matrix(23.21172 7.31697 -14.16799 44.9453 77 49.8)"/><ellipse fill="#292019" rx="1" ry="1" transform="matrix(-39.97138 4.62485 -14.57845 -125.99786 240.7 53.7)"/><ellipse fill="#dff8ff" rx="1" ry="1" transform="matrix(5.77195 15.60361 -13.8546 5.12498 152.6 79.8)"/><path fill="#aaa79b" d="M8.1 89L58 44 25 98l-26.8 2z"/><ellipse fill="#0d0203" rx="1" ry="1" transform="rotate(18 -389.4 132.4) scale(43.70347 22.80644)"/><path fill="#bfc9cc" d="M-16 66l54-23-48 43z"/><path fill="#9ac4e9" d="M190 66l21 6-24 22z"/><path fill="#819ba6" d="M109 69l41-79-38 38z"/><path fill="#14140a" d="M140 43.2l54.5-18.3-46.3-16.6-30 36.5z"/><ellipse fill="#151e29" rx="1" ry="1" transform="rotate(119.6 -5.3 9) scale(41.09878 37.15287)"/><ellipse fill="#aea394" rx="1" ry="1" transform="matrix(-19.27737 3.95708 -3.06099 -14.91196 64 .1)"/><ellipse fill="#b0aba0" rx="1" ry="1" transform="matrix(-10.85846 16.53042 -2.76575 -1.81675 60.7 87.3)"/><path fill="#bf593a" d="M124 116.9l-20.2-14.7 18.2-25 20.2 14.6z"/><ellipse fill="#241d1d" cx="184" cy="102" rx="36" ry="7"/><ellipse fill="#000f18" cx="230" rx="80" ry="12"/><path fill="#a8bccc" d="M132.5 104l5.7 18.5 29 2.4.8 18.1z"/><path fill="#0f0c0e" d="M109-16L95.4 33.7 8.6 132 31 90z"/><ellipse fill="#62251a" rx="1" ry="1" transform="matrix(-10.72514 -10.92535 23.46337 -23.03342 111.6 82.5)"/><ellipse fill="#7b8081" rx="1" ry="1" transform="rotate(98.4 78.8 156) scale(53.11446 3.57875)"/><path fill="#070f1c" d="M55.7 20.9L81.1 44l-16.2-7.9-80.9 73.7z"/><ellipse fill="#906d63" rx="1" ry="1" transform="rotate(-81.2 107 -63.3) scale(8.80563 25.62279)"/><ellipse fill="#2f0f0a" rx="1" ry="1" transform="rotate(121 76.6 104.8) scale(33.98773 9.6933)"/><path fill="#7590a4" d="M163 111l43-32-25-26z"/></g></svg>