<svg xmlns="http://www.w3.org/2000/svg" viewBox="0 0 400 200"><path fill="#544b47" d="M0 0h400v200H0z"/><path fill="#d0e2f0" fill-opacity=".5" d="M257 159.5l-58.5-67.3L263.4 36l58.4 67.2z"/><path fill="#c5b299" fill-opacity=".5" d="M276.5 179L265 224.7 93.8 181.9l11.4-45.5z"/><path fill="#0a0c13" fill-opacity=".5" d="M160.6-43L155 119.6l-89-3.1L71.6-46z"/><path fill="#050000" fill-opacity=".5" d="M84.3 225.5l-104.6-32 18.8-61.2 104.6 32z"/><path fill="#331308" fill-opacity=".5" d="M407.9 138.1L347 203.3l-62.8-58.6L345 79.5z"/><path fill="#e5faff" fill-opacity=".5" d="M264.6 85.9l-13.7 44.8-38.9-11.9L225.7 74z"/><path fill="#b5b3a5" fill-opacity=".5" d="M24.7 138.9L11 126l53.3-57.2L78 81.7z"/><path fill-opacity=".5" d="M402.2 72.6L427 77l-30.7 174-24.6-4.4z"/><path fill="#1f1c11" fill-opacity=".5" d="M224 36.9l8.7-44.5 194.8 37.9-8.6 44.5z"/><path fill="#ab9088" fill-opacity=".5" d="M210.8 82.5l-7.3-32L272 34.7l7.4 32z"/><path fill="#b7c6c6" fill-opacity=".5" d="M-3 99.6L-9.5 91l57.8-45.3 6.8 8.7z"/><path fill="#92b3c2" fill-opacity=".5" d="M222.1-16.1l-39.8 69-12.2-7 39.8-69z"/><path fill="#973d29" fill-opacity=".5" d="M195.9 159.3l-37.6-10.8 22.4-78 37.6 10.7z"/><path fill="#4c2e1b" fill-opacity=".5" d="M239.3 170.5l8.8-41.2 67.3 14.2-8.8 41.3z"/><path fill="#bcc9d0" fill-opacity=".5" d="M364 211.4l-118.7-34 1.7-6 118.7 34z"/><path fill="#1a212c" fill-opacity=".5" d="M-26.6 5.3l75.3-30.5L75.1 40-.3 70.5z"/><path fill="#c7c8bf" fill-opacity=".5" d="M114.3 93.9l-37.6 51.8-5-3.7 37.6-51.8z"/><path fill-opacity=".5" d="M256.9-22.3l-36.3 74.5-19.7-9.6L237.2-32z"/><path fill="#000310" fill-opacity=".5" d="M22.7 86.2l39.5-35.6 10.4 11.7-39.5 35.5z"/><path fill="#100f0f" fill-opacity=".5" d="M17.6 162.8l123-169.4 15.2 11-123 169.4z"/><path fill="#97b2c0" fill-opacity=".5" d="M371.8 191.2L383 128l6.1 1-11.1 63.1z"/><path fill="#211410" fill-opacity=".5" d="M343.9 85.4l-8.3 15-56-31 8.3-15.1z"/><path fill="#2a120b" fill-opacity=".5" d="M175.6 128.1l-60.9-3.2 2-35.8 60.8 3.1z"/><path fill="#9c8466" fill-opacity=".5" d="M100.1 172.6l-36.9-29 16.4-20.8 36.9 28.8z"/><path fill="#b89b91" fill-opacity=".5" d="M202.2 116.3l31.8 57.4-9.6 5.3-31.8-57.4z"/><path fill="#864c17" fill-opacity=".5" d="M197.4 182.7l3.9-13.5 162.2 46.5-3.9 13.5z"/><path fill="#c7dde7" fill-opacity=".5" d="M208.8 47l36.7 54.5-9 6.1-36.7-54.4z"/><path fill="#23100a" fill-opacity=".5" d="M203.1 41l3.1 59.4-14 .7-3.1-59.3z"/><path fill="#706754" fill-opacity=".5" d="M126.6 5L38.4 32l-4-13.5 88-27z"/><path fill="#816350" fill-opacity=".5" d="M388.3 124.7l-77 56-7.4-10 77-56.1z"/><path fill="#845d52" fill-opacity=".5" d="M230.8 43l41.7 6.6-4.9 30.9-41.7-6.6z"/><path fill="#94a8b6" fill-opacity=".5" d="M263.4 225.8l-115-35.2 5.4-18 115 35.2z"/><path fill="#83959b" fill-opacity=".5" d="M83.3 51l6.3 4.7L65 88l-6-4.6z"/><path fill="#628fb2" fill-opacity=".5" d="M166 92l-8.2-7.2 24.6-28.3 8.2 7.2z"/><path fill="#bb8569" fill-opacity=".5" d="M225.1 125.7l-23.7 12-15.6-30.6 23.7-12z"/><path fill="#94602d" fill-opacity=".5" d="M192.2 182.6L72 148.2l3-10.5L195.2 172z"/><path fill="#a4b2b5" fill-opacity=".5" d="M208.1 167.5l42.8-19 2 4.3-42.9 19z"/><path fill="#b9d1e0" fill-opacity=".5" d="M72.9 129.7L294.7 189l-.4 1.5-221.8-59.4z"/><path fill="#6d879f" fill-opacity=".5" d="M325.5 99l-20.2 27.7-41.7-30.3 20.2-27.8z"/><path fill="#884258" fill-opacity=".5" d="M13.7 212.9l5.4-78 9.4.7-5.5 78z"/><path fill="#0d110f" fill-opacity=".5" d="M22.6 186.2l15.4-29 103.5 55-15.4 29z"/><path fill="#69737a" fill-opacity=".5" d="M86.3 173.2l12-20 57.6 34.5-12 20.1z"/><path fill="#0f0701" fill-opacity=".5" d="M372.2 161l-68.5-30.6 3.8-8.5 68.5 30.5z"/><path fill="#60251c" fill-opacity=".5" d="M137.3 73.4l18.7-1.3 5.2 74.8-18.7 1.3z"/><path fill="#9fa5a3" fill-opacity=".5" d="M-2.1 76l18.7-11.2 12 20L10 96.2z"/><path fill="#9f9693" fill-opacity=".5" d="M46 190.4l4.8-45 1.6.1-4.8 45z"/><path fill="#adb7c3" fill-opacity=".5" d="M116.6 136.6l1.4-9.2 20.1 3.2-1.5 9.2z"/><path fill="#b9dfe7" fill-opacity=".5" d="M245.6 37.5l.6 1.4-34 15.8-.6-1.4z"/><path fill="#000f12" fill-opacity=".5" d="M248.4 28.8L311.2 48l-1.8 6-62.8-19.2z"/><path fill="#512400" fill-opacity=".5" d="M259 166l85.7 24.6-2.2 7.5-85.6-24.6z"/><path fill="#926038" fill-opacity=".5" d="M267 161.8l10.5-15.6 41.4 28-10.4 15.5z"/><path fill="#00050d" fill-opacity=".5" d="M416.4 9.9L331-.6l1-7.7L417.2 2z"/><path fill="#000405" fill-opacity=".5" d="M379.5 199.2l14.9-76.6 24.5 4.7L404 204z"/><path fill="#1e1d0e" fill-opacity=".5" d="M111.2 138.2l-15.6-7.3 19.8-42.5 15.6 7.3z"/><path fill="#94cded" fill-opacity=".5" d="M213.5 92.3l16.3 14.7-10.5 11.6-16.2-14.6z"/><path fill="#a99981" fill-opacity=".5" d="M210.5-9l11.6 4.7-12.3 30.4-11.6-4.6z"/><path fill="#58281b" fill-opacity=".5" d="M172.9 85l37.6-15.2 8.8 21.7-37.6 15.3z"/><path fill="#110001" fill-opacity=".5" d="M366.3 112.6l-16 14.9-21.3-22.9 16-14.9z"/><path fill="#a9c1cc" fill-opacity=".5" d="M241.2 108l7.1-6.1 30.8 35.4-7.1 6.1z"/><path fill="#3f7095" fill-opacity=".5" d="M180 59l-35.8-93.3 11.7-4.5 35.8 93.4z"/><path fill="#a59374" fill-opacity=".5" d="M357.5 138l-3 3.6-23-18.7 3-3.6z"/><path fill="#27465b" fill-opacity=".5" d="M240.4 151.2l-4.6-15 25.4-7.7 4.6 15z"/><path fill="#21171b" fill-opacity=".5" d="M161-2.4l16.2 65.2-27.2 6.8-16.3-65.2z"/><path fill="#637784" fill-opacity=".5" d="M313.5 11.6l-58.6-9.3 2-12.3 58.6 9.3z"/><path fill="#121010" fill-opacity=".5" d="M319.1 115.5l18.4 12-23.8 36.6-18.4-11.9z"/><path fill="#2b0000" fill-opacity=".5" d="M211.9 65.6l-3.1-8.9 6-2 3 8.9z"/><path fill="#62527d" fill-opacity=".5" d="M128 81.9l-8.9-3 10.7-31 8.9 3z"/><path fill="#0f0000" fill-opacity=".5" d="M293 135l.7 1.4-60.1 33.3-.8-1.4z"/><path fill="#dcf4fa" fill-opacity=".5" d="M270 48.1l-23.8-7.3.9-3 23.9 7.3z"/><path fill="#b4a398" fill-opacity=".5" d="M246.3 117l24-69.4 16.2 5.6-24 69.5z"/><path fill="#2a1207" fill-opacity=".5" d="M363.5 201.5l-37.7-10 6-22.7 37.8 10z"/><path fill="#9e7679" fill-opacity=".5" d="M10.1 15.6l3-1 12.7 37-3 1z"/><path fill="#371119" fill-opacity=".5" d="M43.8 85.6L-4 135.1l-10-9.8L33.6 76z"/><path fill="#465f74" fill-opacity=".5" d="M120.5 39.4l-62.7 24-1.7-4.3L118.8 35z"/><path fill="#00111e" fill-opacity=".5" d="M80.3 54.3L70 36.9l29.4-17.7 10.5 17.4z"/><path fill="#576a7a" fill-opacity=".5" d="M278.7 86.7l12.3 2.6-8.8 41.2L270 128z"/><path fill="#512b1f" fill-opacity=".5" d="M214.6 126.4l18.1 19.4-11.4 10.6-18.1-19.4z"/><path fill="#a490a3" fill-opacity=".5" d="M259.8 168.6l-.8-9.4 14-1.2.8 9.3z"/><path fill="#b37789" fill-opacity=".5" d="M165.9 66.5l-3 .7-5.3-22.8 3-.7z"/><path fill="#8c8575" fill-opacity=".5" d="M23 147L7.6 127.1l21-16.3 15.3 19.7z"/><path fill="#111a21" fill-opacity=".5" d="M149-27.6l2.5-2 57.2 68.2-2.4 2z"/><path fill="#7e786e" fill-opacity=".5" d="M377.3 145.5l-7.4-2.4L393 71.7l7.5 2.4z"/><path fill="#000208" fill-opacity=".5" d="M422.5 77.8L278.8 47.2l.3-1.5 143.7 30.5z"/><path fill="#926e6a" fill-opacity=".5" d="M323.6 174.9l1.2-36 6.3.3-1.3 35.9z"/><path fill="#a48769" fill-opacity=".5" d="M61.4 122.4l5.2 24.5-4.6 1-5.2-24.5z"/><path fill="#534941" fill-opacity=".5" d="M343.4 48l-94.2-15 2.7-17 94.2 15z"/><path fill="#6f7e87" fill-opacity=".5" d="M62 42l-8 16.8-11.3-5.5 8.2-16.8z"/><path fill="#878b86" fill-opacity=".5" d="M227.7 40l152.8 32.5-.3 1.5-152.9-32.4z"/><path fill="#2c282f" fill-opacity=".5" d="M282.6 181.6l-.5 1.5-100.6-28.8.4-1.5z"/><path fill="#04151c" fill-opacity=".5" d="M141.4 29l-48.8 78.2-10.6-6.6 48.8-78.2z"/><path fill="#ca6541" fill-opacity=".5" d="M211 134.4l-35.2-20.3 5.4-9.5 35.2 20.4z"/><path fill="#30191c" fill-opacity=".5" d="M180.5 125.3l25.3-18.4 2.7 3.8-25.2 18.3z"/><path fill="#4a322c" fill-opacity=".5" d="M69.4 109.6l-13.2-11 29.1-34.8 13.2 11z"/><path fill="#0a0b07" fill-opacity=".5" d="M165.2 111.7l-10.3 36-6-1.6 10.3-36z"/><path fill="#b9956e" fill-opacity=".5" d="M255.8 189.4l-1 3-109-33.4.9-3z"/><path fill="#8fb2cb" fill-opacity=".5" d="M314.6 89.8l7 8.4-34.7 29.1-7-8.3z"/><path fill="#777a80" fill-opacity=".5" d="M172 82.4l6.1-43.3 14 2-6.2 43.3z"/><path fill="#6e1e18" fill-opacity=".5" d="M372 99.4L361.9 137l-13.6-3.6 10.1-37.8z"/><path fill="#c9e1e8" fill-opacity=".5" d="M215.3 69l2.3-18.5 6.2.7-2.3 18.6z"/><path fill="#a6aeb1" fill-opacity=".5" d="M319.1 193l-1.2 4.5L173 158.6l1.3-4.5z"/><path fill="#b56050" fill-opacity=".5" d="M158.5 137l4.3-8.3 33.4 17-4.3 8.4z"/><path fill="#000003" fill-opacity=".5" d="M21.2 60.4L-1.1 71.7-4 66.2l22.3-11.4z"/><path fill="#171e1a" fill-opacity=".5" d="M246.5 34l-30 16.6L205 30.1l30-16.7z"/><path fill="#502816" fill-opacity=".5" d="M221 66.5l5.2-18 7.5 2.2-5.2 18z"/><path fill="#060f11" fill-opacity=".5" d="M50.5 1.8L58.2.3l5.3 27.6-7.6 1.5z"/><path fill="#793f47" fill-opacity=".5" d="M117.1-11.2l12 3.5-10.3 36-12-3.4z"/><path fill="#939b96" fill-opacity=".5" d="M381.2 207l-9 2.5-5-18.1 9.1-2.5z"/><path fill="#a0c5d9" fill-opacity=".5" d="M189.5 32.3l-9 10.8-6-5 9-10.8z"/><path fill="#623814" fill-opacity=".5" d="M161.2 169.4L372.5 226l-.9 3-211.2-56.6z"/><path fill="#85745c" fill-opacity=".5" d="M97.8 11.4l-36.2 9.8-1.6-6 36.2-9.8z"/><path fill="#140f10" fill-opacity=".5" d="M201 74l-40.4 20.6-.7-1.4 40.4-20.6z"/><path fill="#494235" fill-opacity=".5" d="M77 185.5l4-11.8 34.1 11-3.8 12z"/><path fill="#281a13" fill-opacity=".5" d="M212 160.2l-1.1 1-40.2-48 1.2-1z"/><path fill="#618ba5" fill-opacity=".5" d="M150.1 95.9l24-26.7 2.4 2-24 26.8z"/><path fill="#281618" fill-opacity=".5" d="M19.6 44.1L12 1.1l16.9-3 7.6 43z"/><path fill="#001a24" fill-opacity=".5" d="M8.5 134.9l9.3 47.5-15.4 3-9.2-47.5z"/><path fill="#001b21" fill-opacity=".5" d="M139 113.6l-18.2 4.6-8.3-33.4 18.2-4.5z"/><path fill="#030000" fill-opacity=".5" d="M68.6 111l-18.4 21.2-4.8-4.1L64 106.9z"/><path fill="#14060c" fill-opacity=".5" d="M282.5 177l-45.7-10.5 1-4.5 45.7 10.5z"/><path fill="#7e4d44" fill-opacity=".5" d="M317.5 178.6l-4-8.4 39.3-19.2 4 8.5z"/><path fill="#a2bdcf" fill-opacity=".5" d="M249 150.6L210.8 105l1.2-1 38.1 45.5z"/><path fill="#99c2d1" fill-opacity=".5" d="M228.2 165.2l-16.4-9.1 2.2-4.1 16.4 9z"/><path fill="#967b74" fill-opacity=".5" d="M123.6 125.2l13.7-3.2 3.2 13.7-13.7 3.2z"/><path fill="#722111" fill-opacity=".5" d="M390.2 107.4l-2.6 7.4-32.5-11.2 2.6-7.4z"/><path fill="#9da2a3" fill-opacity=".5" d="M50.4 93.9l-24.6 28.3-5.9-5.1 24.6-28.3z"/><path fill="#2d241a" fill-opacity=".5" d="M120.3 167.2l1-1.3 16.2 12.2-1 1.3z"/><path fill="#574732" fill-opacity=".5" d="M281.6 64.2l2-9.1 48.9 10.4-2 9.1z"/><path fill="#a7a9a5" fill-opacity=".5" d="M90.8 157.5l.5-1.5 78.8 25.6-.5 1.5z"/><path fill="#452f1f" fill-opacity=".5" d="M114.7 94.2l10 7.6-25.4 33.7-10-7.6z"/><path fill="#704600" fill-opacity=".5" d="M277.6 177l5.9-14.4 21.7 8.8-5.9 14.5z"/><path fill="#0a1613" fill-opacity=".5" d="M286.3 67.2l3-3.5L306 78.1l-3 3.5z"/><path fill="#0d1006" fill-opacity=".5" d="M79.3 143.2L59.5 204l-6-2 19.8-60.9z"/><path fill="#1a1b1b" fill-opacity=".5" d="M63.6 57l-4.8-4L113-11.7l4.8 4z"/><path fill="#686870" fill-opacity=".5" d="M46 16.4v6.3H2.4v-6.3z"/><path fill="#3a4e5b" fill-opacity=".5" d="M305-3.3l130.3 16-1.3 10.9-130.3-16z"/><path fill="#9aa0a4" fill-opacity=".5" d="M84.6 122.9l21-29.1 5.1 3.7-21 29z"/><path fill="#5f482f" fill-opacity=".5" d="M65 48.7L34.4 72.8l-1-1.2 30.8-24z"/><path fill="#c2755b" fill-opacity=".5" d="M211 119.6l2.6 7.4-32.5 11.2-2.5-7.4z"/><path fill="#1d4358" fill-opacity=".5" d="M142.4 50.7l-9.7 5.2-11-20.7 9.7-5.1z"/><path fill="#7f4333" fill-opacity=".5" d="M140.7 101l72-20.6 1.3 4.5-72 20.7z"/><path fill="#00080d" fill-opacity=".5" d="M152.9 193.8l9.7 5-1.4 2.7-9.8-5z"/><path fill="#000705" fill-opacity=".5" d="M398 74l7.7.7-5.2 59.1-7.8-.7z"/><path fill="#1d1307" fill-opacity=".5" d="M183.6 24L148-21.5l1.2-1 35.6 45.6z"/><path fill-opacity=".5" d="M173.1 56l-8.9 18.3-1.4-.7 9-18.2z"/><path fill="#5c0b0d" fill-opacity=".5" d="M326.8 96l5.7 2.7-17.2 35-5.6-2.7z"/><path fill="#2d1913" fill-opacity=".5" d="M327.4 166.5l11.2-24 4.3 2-11.2 24z"/><path fill="#0c1512" fill-opacity=".5" d="M158.8 63L145 66.2l-18-77.7 13.8-3.1z"/><path fill="#6d5e5a" fill-opacity=".5" d="M268.8 146l30.8-24.1 2 2.5-30.9 24z"/><path fill="#6a5e6d" fill-opacity=".5" d="M-2.1 93.6l14 6.9-8.2 16.8-14-6.8z"/><path fill="#090c03" fill-opacity=".5" d="M232.8-11.3l-11.3 42.2-9-2.4 11.3-42.2z"/><path fill="#c7e1e9" fill-opacity=".5" d="M208 68.8l2.4-4 23.9 14.9-2.5 4z"/><path fill="#6b494c" fill-opacity=".5" d="M174.2 49.2l-33.5-12.9 2.2-5.8 33.6 12.9z"/><path fill="#ac8154" fill-opacity=".5" d="M254.7 186.1l71.3 23.2-1 3-71.3-23.2z"/><path fill="#ddeef3" fill-opacity=".5" d="M222.8 105.5l20.6 19.2-5.3 5.7-20.6-19.2z"/><path fill="#481c14" fill-opacity=".5" d="M86.6 129.8l.3-1.5 71.8 15.3-.3 1.5z"/><path fill="#c6a2a3" fill-opacity=".5" d="M106.1 47.4l-1.1 1-6.4-6.8 1.1-1z"/><path fill="#1e1e1a" fill-opacity=".5" d="M156.4 132.2l-10-19.5 23.7-12 10 19.4z"/><path fill="#cea1a4" fill-opacity=".5" d="M114.2 11.5l-1.5.2-3.5-21.6 1.6-.2z"/><path fill="#cb99ab" fill-opacity=".5" d="M159.9 71.7l2-17 1.6.1-2 17.1z"/><path fill="#31352f" fill-opacity=".5" d="M325.4 65.6L375 92l-5.2 9.6-49.6-26.4z"/><path fill="#887a6a" fill-opacity=".5" d="M89.7 157.6L65.6 143l8.8-14.7 24.1 14.4z"/><path fill="#050f0f" fill-opacity=".5" d="M315.1 54l.6-3 142.6 27.7-.6 3.1z"/><path fill="#866844" fill-opacity=".5" d="M59.5 96.1l2.6 1.7-26.3 39-2.5-1.8z"/><path fill="#b4bbbd" fill-opacity=".5" d="M264.2 128l-18.7-1.6 4.4-49.8 18.6 1.7z"/><path fill="#700b1a" fill-opacity=".5" d="M30.8 189.8l-6 1.7-10.3-36 6-1.7z"/><path fill="#8e9ec1" fill-opacity=".5" d="M180.5 24l-1.3 1L158.6-.5l1.2-1z"/><path fill="#d6703f" fill-opacity=".5" d="M200.5 109.4l-20.1 8.5-4.3-10 20.1-8.6z"/><path fill="#2a0600" fill-opacity=".5" d="M306.2 185.4l52.8-23.5 2 4.3-52.9 23.5z"/><path fill="#8c6f50" fill-opacity=".5" d="M380.4 142.7l-17.7 6.1-4-11.8 17.7-6.1z"/><path fill="#143c47" fill-opacity=".5" d="M24.9 15l12.7-6 17.2 37-12.7 5.8z"/><path fill="#89959d" fill-opacity=".5" d="M148.6 189.5l-4.6 8.2-19-10.7 4.5-8.2z"/><path fill="#414958" fill-opacity=".5" d="M49.5 155.6l-3.7 71.8-3.1-.2 3.7-71.8z"/><path fill="#005270" fill-opacity=".5" d="M172.3 6l-8 15.1-7-3.6 8.1-15.2z"/><path fill="#9a7e6e" fill-opacity=".5" d="M276.5 54.4l4.8 54.5-9.4.8-4.7-54.5z"/><path fill="#7b7886" fill-opacity=".5" d="M71.3 62.9l39.3-25.5.9 1.3-39.3 25.5z"/><path fill="#99421f" fill-opacity=".5" d="M128.9 113.5l23.2 23.2-4.4 4.5-23.2-23.2z"/><path fill="#e4dfe3" fill-opacity=".5" d="M203 50.8l3.4 12-1.5.5-3.5-12z"/><path fill="#aaaea9" fill-opacity=".5" d="M182.1 32.7l-1.2-1L210.1-3l1.2 1z"/><path fill="#aa9395" fill-opacity=".5" d="M331 159.4l-9.2-1.8 1.8-9.2 9.2 1.8z"/><path fill="#290b06" fill-opacity=".5" d="M190.8 81.2l-7-17.4 14.5-5.9 7 17.4z"/><path fill="#687878" fill-opacity=".5" d="M89.4 106.3l-13.6 15-1.1-1 13.5-15z"/><path fill="#797d7a" fill-opacity=".5" d="M384.5 145.7L362.2 235l-4.5-1.1 22.3-89.4z"/><path fill="#b06e84" fill-opacity=".5" d="M26 174.2l1.1 1-14 14.7-1.2-1.1z"/><path fill="#1a0a0d" fill-opacity=".5" d="M177 63.2l-4 2.4-26.6-46 4-2.4z"/><path fill="#8c8da6" fill-opacity=".5" d="M38.6-5.6l1.5-.4 7.2 28.8-1.5.4z"/><path fill="#000307" fill-opacity=".5" d="M27.5 196.6l6-43.4L46 155l-6.1 43.3z"/><path fill="#745e4d" fill-opacity=".5" d="M20.2 134.4l-37.3 4.6-1.5-12.4 37.2-4.6z"/><path fill="#362415" fill-opacity=".5" d="M355.8 46.3l4.6-29.3 44.8 7-4.7 29.4z"/><path fill="#2a2925" fill-opacity=".5" d="M229.5 15l25 1.3-1.2 23.4-25-1.3z"/><path fill="#85484a" fill-opacity=".5" d="M160.4 100.5l-1 1.3-37-28.9 1-1.2z"/><path fill="#1e1718" fill-opacity=".5" d="M263.9 159l-10.7 9.3-6.1-7 10.6-9.3z"/><path fill="#918478" fill-opacity=".5" d="M100.2 1.5L99 6 79.4 0l1.4-4.4z"/><path fill="#3c1720" fill-opacity=".5" d="M214.2 60.7l-4 2.4-4-6.6 4-2.5z"/><path fill="#5d3c22" fill-opacity=".5" d="M48.2 183.8l5.2-41.8 6.2.7-5.2 41.9z"/><path fill="#8d8bac" fill-opacity=".5" d="M118.2 64.4l12.3 2.4-.3 1.6-12.3-2.4z"/><path fill="#5e3e2d" fill-opacity=".5" d="M324.5 159.2l66.3 79-1.2 1-66.3-79z"/><path fill="#040b00" fill-opacity=".5" d="M8.3 14.6L-1 13.3 2.7-13l9.3 1.3z"/><path fill="#8a9195" fill-opacity=".5" d="M-2 81.8l-2.8-5.6 64.6-31.5 2.8 5.6z"/><path fill="#c96585" fill-opacity=".5" d="M19 106l-1.3-.9 5.5-9.4 1.3.7z"/><path fill="#745a6c" fill-opacity=".5" d="M189.7 12l-8-17 11.4-5.4 8 17z"/><path fill="#9d7071" fill-opacity=".5" d="M189.4 91l-4.6.5-4-37.2 4.7-.5z"/><path fill="#b6babc" fill-opacity=".5" d="M128.8 142.2l44.6 18.9-.6 1.4-44.6-18.9z"/><path fill="#627577" fill-opacity=".5" d="M380.6 104.9l3-34.3 12.4 1.1-3 34.2z"/><path fill="#030100" fill-opacity=".5" d="M335.5 14l-1.5-.4L338 0l1.4.4z"/><path fill="#184147" fill-opacity=".5" d="M20.7 158.8l5.7-21.2 7.5 2-5.6 21.2z"/><path fill="#9b868c" fill-opacity=".5" d="M13.8 27.2l-1.5.2L9.6 5.6l1.6-.1z"/><path fill="#00161a" fill-opacity=".5" d="M94.4 102.1l1.3.9L79 127.6l-1.3-.9z"/><path fill="#000f10" fill-opacity=".5" d="M351 123.8l-7.8-1 4.3-35.6 7.8 1z"/><path fill="#804354" fill-opacity=".5" d="M155.5 49l-1.5-.4 7.7-33.5 1.5.4z"/><path fill="#616675" fill-opacity=".5" d="M.3 190.8l19.2-6.6.5 1.5-19.2 6.6z"/><path fill="#2f0f10" fill-opacity=".5" d="M18.5 150.5l-13.7-3L8 132.4l13.8 3z"/><path fill="#0f140c" fill-opacity=".5" d="M345.7 170.9l5.3-7.7 20.5 14.3-5.4 7.7z"/><path fill="#878277" fill-opacity=".5" d="M16.8 151.9l38.6-53.1 1.2.9-38.5 53z"/><path fill="#002230" fill-opacity=".5" d="M165.3 85.8l6.7 6.5-7.6 7.9-6.7-6.6z"/><path fill="#c7e1eb" fill-opacity=".5" d="M205 49.8l1.3-2.7 15.3 7.8-1.4 2.7z"/><path fill="#171610" fill-opacity=".5" d="M421.3 72.6l-42.8 63.5-1.3-.9L420 71.7z"/><path fill="#000709" fill-opacity=".5" d="M84.2 59.5l3.2-5.4 26.8 16.1-3.2 5.4z"/><path fill="#150b00" fill-opacity=".5" d="M28.2 81.2l1.3.8-24.9 41.5-1.3-.8z"/><path fill="#acc9d6" fill-opacity=".5" d="M275.5 46.8l12.8 28.6-2.9 1.2-12.7-28.5z"/><path fill="#938880" fill-opacity=".5" d="M221.7 167.5l-.8-1.4 46.5-25.8.7 1.4z"/><path fill="#211c1b" fill-opacity=".5" d="M291.3 158.4l12.1-37.1 19.3 6.2-12 37.2z"/><path fill="#87959b" fill-opacity=".5" d="M42.4 92.1l35.4-33 3.2 3.4-35.4 33z"/><path fill="#603a36" fill-opacity=".5" d="M209 98l-21.4 34.5-1.4-.8 21.6-34.5z"/><path fill="#6a4a43" fill-opacity=".5" d="M210.8 144.3l3.7-10.3 29.4 10.7-3.7 10.3z"/><path fill="#00455e" fill-opacity=".5" d="M113.9 78.8l21.6 3.4-1 6.2L113 85z"/><path fill="#a7441e" fill-opacity=".5" d="M330.5 185l-4 6.7-5.4-3.2 4-6.7z"/><path fill="#021721" fill-opacity=".5" d="M43.6 81.5l-1-1.2L130 16.9l.9 1.3z"/><path fill="#311f1d" fill-opacity=".5" d="M47 17.8L40.4-3l32.9-10 6.4 20.9z"/><path fill="#1b0e00" fill-opacity=".5" d="M182 154.3l.3-1.6 27.8 4-.2 1.5z"/><path fill="#583d2b" fill-opacity=".5" d="M237.7 179.2l.5-1.5 53.8 16.5-.5 1.5z"/><path fill="#383a42" fill-opacity=".5" d="M272.2 122.2l1-1.2 21.8 17.7-1 1.2z"/><path fill="#b3614b" fill-opacity=".5" d="M203.5 123l-31.7-8.6 1.2-4.5 31.7 8.5z"/><path fill="#253743" fill-opacity=".5" d="M57.7 71.2l.8-4.6 47.8 7.5-.7 4.7z"/><path fill="#648496" fill-opacity=".5" d="M134.8 62.4l-1.5-.4 5.3-19.7 1.5.4z"/><path fill="#90b5c5" fill-opacity=".5" d="M207.8 143.2l15.4 23.6-1.4.9-15.3-23.6z"/><path fill="#616e7f" fill-opacity=".5" d="M272.2 103.5l18.7-11.3 7.3 12.1-18.8 11.3z"/><path fill="#59636c" fill-opacity=".5" d="M401.7 21.6L349 14.2l1-6.1 52.5 7.3z"/><path fill="#9cc1d7" fill-opacity=".5" d="M262.7 136.6l14-9.9 2.8 3.9-14.1 9.8z"/><path fill="#79a7c3" fill-opacity=".5" d="M218.6 98l-10 7.5-3.8-5 10-7.5z"/><path fill="#4e6877" fill-opacity=".5" d="M60.4 60l-.5-1.6L94.3 48l.5 1.5z"/><path fill="#927974" fill-opacity=".5" d="M254.4 41.9l21.4 12.9-16.1 26.7-21.4-12.8z"/><path fill="#7f6346" fill-opacity=".5" d="M96 138.8l78.8 25.6-.5 1.5-78.8-25.6z"/><path fill="#00151e" fill-opacity=".5" d="M280 48.1l-21.8-12 .8-1.4 21.8 12z"/><path fill="#955168" fill-opacity=".5" d="M152 81.5l-2.9-3.7L159 70l2.8 3.7z"/><path fill="#bbc1be" fill-opacity=".5" d="M217 55.8l-.8-1.3 18.3-11.9.9 1.3z"/><path fill="#cececd" fill-opacity=".5" d="M279.2 66.2l1.1 1.1-17.3 18-1.2-1z"/><path fill="#090e14" fill-opacity=".5" d="M20.2 106l47.6-42.9 1 1.2-47.5 42.9z"/><path fill="#0b0d0b" fill-opacity=".5" d="M103.3 91.1l-35.8 28-6.7-8.7 35.7-27.9z"/><path fill="#798c96" fill-opacity=".5" d="M71.3 117l16.5 22.8-1.3 1L70 118z"/><path fill="#010e0a" fill-opacity=".5" d="M46.6 188.4l1.3-4.4 85.2 26-1.4 4.5z"/><path fill="#a9afb5" fill-opacity=".5" d="M99 133.9l85.2 26-.4 1.5-85.2-26z"/><path fill="#48392d" fill-opacity=".5" d="M322.9 16.1l50.4 10.7-7.1 33.7-50.5-10.8z"/><path fill="#9c8586" fill-opacity=".5" d="M279.3 151.8l1.4.6-5.3 13-1.4-.6z"/><path fill="#1a3549" fill-opacity=".5" d="M83 35.3l-3.6-7 23.6-12 3.6 7z"/><path fill="#562d1d" fill-opacity=".5" d="M219.8 59.3L243.4 44l.9 1.3-23.6 15.4z"/><path fill="#443017" fill-opacity=".5" d="M51.6 162.7l5.1-14.7 37 12.7-5.1 14.8z"/><path fill="#543f1f" fill-opacity=".5" d="M189.4 31.8l9.5-5.5 7 12.2-9.5 5.5z"/><path fill="#554e44" fill-opacity=".5" d="M277.6 5.5l38.8 31.4-4.9 6-38.9-31.4z"/><path fill="#150000" fill-opacity=".5" d="M269 173.5l12.6-9.2 1 1.3-12.7 9.2z"/><path fill="#8a6071" fill-opacity=".5" d="M116.4 11.4l1.4.6-7.6 18.8-1.4-.6z"/><path fill="#7390a7" fill-opacity=".5" d="M322.3 97.9l-13.1 17.4L273 88.1l13-17.5z"/><path fill="#332718" fill-opacity=".5" d="M372.5 20.8l-1.2 6.1L294.7 12l1.1-6.1z"/><path fill="#87613b" fill-opacity=".5" d="M81 152.3l2.2-7.5 81 23.2-2 7.5z"/><path fill="#99b2c3" fill-opacity=".5" d="M282.5 129l-4.1-6.7 34.4-21.5 4.2 6.6z"/><path fill="#180606" fill-opacity=".5" d="M189.6 80.6l-1.4-.6 17.5-43.4 1.5.6z"/><path fill="#687a83" fill-opacity=".5" d="M385 156.2l-1.6-.3 5.1-29.2 1.6.2z"/><path fill="#9b6562" fill-opacity=".5" d="M325.7 167.8l.2 9.4-18.8.3-.1-9.4z"/><path fill="#553c28" fill-opacity=".5" d="M95.4 120.4l14.9-23.8 5.3 3.3-15 23.8z"/><path fill="#1e1815" fill-opacity=".5" d="M85.5 22l-.5-6.3 68.6-4.8.4 6.2z"/><path fill="#ad8086" fill-opacity=".5" d="M180.7 58.5l-1.3.8-8.5-13 1.3-1z"/><path fill="#d5dee4" fill-opacity=".5" d="M250.9 38.6l.6 1.5-10.2 4-.6-1.4z"/><path fill="#0f1813" fill-opacity=".5" d="M205.2 98.5l-10.8 1.4-1.2-9.4 10.9-1.3z"/><path fill="#6a2713" fill-opacity=".5" d="M151.9 126l-.7 18.8-14-.5.6-18.8z"/><path fill="#8fb1bc" fill-opacity=".5" d="M116.3 132.5l.2-4.7 18.7.7-.1 4.6z"/><path fill="#7f4352" fill-opacity=".5" d="M96 96l.3-6.3 6.2.3-.3 6.3z"/><path fill="#7e5d52" fill-opacity=".5" d="M224.2 70.8l8.6-18.4 7 3.3-8.5 18.4z"/><path fill="#2d5065" fill-opacity=".5" d="M249.7 146.8l-10-12 6-5 10 12z"/><path fill="#2e1c12" fill-opacity=".5" d="M207.2 159l-4.3 2-8.5-18.4 4.2-2z"/><path fill="#856951" fill-opacity=".5" d="M361 131l-2.8 8.9-20.8-6.8 2.9-9z"/><path fill="#9aaebc" fill-opacity=".5" d="M185.7 200.7l-3.5 7-19.5-10 3.5-7z"/><path fill="#010f12" fill-opacity=".5" d="M82.4 41.4l1.8 7.6-21.3 5-1.8-7.7z"/><path fill="#13252e" fill-opacity=".5" d="M143.5 16.1l-12.3 40.4-7.5-2.3L136 13.8z"/><path fill="#642124" fill-opacity=".5" d="M131.1 78.5l1.9-21.8 9.3.8-1.9 21.8z"/><path fill="#3a1311" fill-opacity=".5" d="M55 120.5l4.1 2.2-22 39.7-4-2.3z"/><path fill="#516a74" fill-opacity=".5" d="M173.2 79l-5.2-3.6 26-37.2 5.1 3.6z"/><path fill="#756858" fill-opacity=".5" d="M225.6 166.3l24.6-13.6.8 1.3-24.6 13.7z"/><path fill="#2a231a" fill-opacity=".5" d="M311.2 141.3l37-5.9 1.5 9.3-37 5.8z"/><path fill="#bcd7e0" fill-opacity=".5" d="M266 127l-26.4 3.7-.8-6.2 26.3-3.7z"/><path fill="#43201d" fill-opacity=".5" d="M171 110.2h1.6l1.7 24.9h-1.6z"/><path fill="#a998a1" fill-opacity=".5" d="M263.6 155l12.8 9-1 1.3-12.7-9z"/><path fill="#acafae" fill-opacity=".5" d="M133.3 148.8l.4-1.5 172 46-.3 1.6z"/><path fill="#7d939d" fill-opacity=".5" d="M247.7 145.8l-1.1 1.2-42.7-41.3 1-1.1z"/><path fill="#0f1f27" fill-opacity=".5" d="M169.4 72L130 102.6l-1-1.2 39.4-30.8z"/><path fill="#13314e" fill-opacity=".5" d="M187.3 22l-2.9-1 4.8-13.3 3 1z"/><path fill="#735455" fill-opacity=".5" d="M10.7 20.4L4.1 34.5l-7-3.3L3.7 17z"/><path fill="#81422a" fill-opacity=".5" d="M218.7 90l-26.6-.4.1-6.2 26.6.4z"/><path fill="#341719" fill-opacity=".5" d="M302.9 76l6.1-7.1 36.6 31.7-6.2 7.1z"/><path fill="#000b14" fill-opacity=".5" d="M-8.3 61.8l-.4-3.1 31.1-3.3.3 3.1z"/><path fill="#b59881" fill-opacity=".5" d="M279 79l-10 28-8.9-3.2 10.2-28z"/><path fill="#969d9b" fill-opacity=".5" d="M-16.5 93.4l.2-7.8 34.3.6V94z"/><path fill="#504c59" fill-opacity=".5" d="M-6.3 160.4l26-14.4.7 1.4-26 14.4z"/><path fill="#351b09" fill-opacity=".5" d="M337.8 186.8l-1.1-1 45.8-49.2 1.1 1z"/><path fill="#211d14" fill-opacity=".5" d="M363.5 110.5l6.2 1.1-3.5 20-6.2-1z"/><path fill="#756046" fill-opacity=".5" d="M22 87.5l-1.3-1 27.7-31.8 1.2 1z"/><path fill="#83858a" fill-opacity=".5" d="M18.8 35.4l6 17.7-1.4.5L17.3 36z"/><path fill="#2d2a22" fill-opacity=".5" d="M-5.3 41.4l-1.1-7.7 79-11 1 7.7z"/><path fill="#667b88" fill-opacity=".5" d="M59.7 49.4l-1.4.6L48 27.2l1.4-.7z"/><path fill="#000a05" fill-opacity=".5" d="M32 84.4L29.6 82 54 57.8l2.2 2.2z"/><path fill="#836b67" fill-opacity=".5" d="M265 65.8l1.1 11-26.4 2.7-1.1-10.9z"/><path fill="#38120e" fill-opacity=".5" d="M277.2 148l-1.7-2.5 55-35.8 1.8 2.6z"/><path fill="#97958c" fill-opacity=".5" d="M36.2 98.8l7.6 1.5-6.5 33.7-7.7-1.5z"/><path fill="#d0d6d3" fill-opacity=".5" d="M265.6 79.2l-26.3 4.1-.2-1.5 26.2-4.2z"/><path fill="#504234" fill-opacity=".5" d="M281.6 65.6l2.9-10.6 57.3 15.4-2.8 10.5z"/><path fill="#170e1c" fill-opacity=".5" d="M22 198.2l-25.4 12-4.6-10 25.5-11.9z"/><path fill="#585a6b" fill-opacity=".5" d="M87.8 68.8l14.3 9.6-.9 1.3L87 70z"/><path fill="#12100c" fill-opacity=".5" d="M202.1 105l5 9.7-1.4.7-5-9.8z"/><path fill="#0d0d0f" fill-opacity=".5" d="M139 78l6.5-37 7.7 1.4-6.5 36.9z"/><path fill="#352b14" fill-opacity=".5" d="M67.4 135l-5.5-3 6.6-12.3 5.5 2.9z"/><path fill="#1c2827" fill-opacity=".5" d="M118.5 109.6l9.6 10.2-13.8 12.8-9.5-10.3z"/><path fill="#000d10" fill-opacity=".5" d="M103.6 86.1l29-84.2 3 1-29 84.2z"/><path fill="#ceb8c1" fill-opacity=".5" d="M185.2 76.4l-4.6-10 1.4-.6 4.6 10z"/><path fill="#c8d5d9" fill-opacity=".5" d="M268 42.7l13.6 15.1-1.2 1-13.6-15z"/><path fill="#1f111a" fill-opacity=".5" d="M14.4 20.3l25-41.5 4 2.4-25 41.5z"/><path fill="#230f09" fill-opacity=".5" d="M333.7 159.9l.5 1.5-16.4 5.3-.4-1.5z"/><path fill="#434449" fill-opacity=".5" d="M98.2 42l51.7-12 .4 1.5-51.8 12z"/><path fill="#0a120a" fill-opacity=".5" d="M57.5 148.7l-3 .6-4.2-21.5 3-.6z"/><path fill="#bfcacf" fill-opacity=".5" d="M253.9 86.9l-9 33.2-31.6-8.5 8.9-33.2z"/><path fill="#572f3e" fill-opacity=".5" d="M79.3 26.6l7.4-2.5L91 37.5 83.6 40z"/><path fill="#835e5f" fill-opacity=".5" d="M265.9 140.3l33.2 26-1 1.2-33.2-26z"/><path fill="#38240b" fill-opacity=".5" d="M60.4 156.6l17.2-16 1 1.2-17.1 16z"/><path fill="#646568" fill-opacity=".5" d="M175.8 15.7l34.7 9.3-.4 1.5-34.7-9.3z"/><path fill="#0d0e08" fill-opacity=".5" d="M65.4 206L55 202.5 70.5 155l10.4 3.4z"/><path fill="#2b2923" fill-opacity=".5" d="M212.3 44.7L245.4-.8l6.3 4.6-33 45.5z"/><path fill="#946500" fill-opacity=".5" d="M283.8 161.6l14.7 20.3-2.6 1.8-14.7-20.2z"/><path fill="#261610" fill-opacity=".5" d="M177.7 153.3l.4-1.6 36.4 9.1-.4 1.5z"/><path fill="#4a230d" fill-opacity=".5" d="M354 151.6h15.5v20.3H354z"/><path fill="#8f4d3e" fill-opacity=".5" d="M141.6 95.2l.2-1.6 37 6.5-.3 1.6z"/><path fill="#432824" fill-opacity=".5" d="M201.7 135.2l1-1.2 22.1 19.9-1 1.1z"/><path fill="#79706e" fill-opacity=".5" d="M304.2 120.3l-34 24.8-1-1.3 34.1-24.8z"/><path fill="#a2adb1" fill-opacity=".5" d="M247.4 105l7.7-7.6 21 21-7.8 7.7z"/><path fill="#9b4159" fill-opacity=".5" d="M11 6.8L17.3-6l1.4.7-6.1 12.6z"/><path fill="#341412" fill-opacity=".5" d="M171.3 152.6l-19.6-5.3.4-1.5 19.6 5.3z"/><path fill="#000d0e" fill-opacity=".5" d="M119.4 115.5l.3-17.2 15.6.3-.3 17.2z"/><path fill="#826d56" fill-opacity=".5" d="M72 82.6l-41.3 53-1.2-1 41.3-53z"/><path fill="#03040e" fill-opacity=".5" d="M329.8 185.7l14 .5-.2 7.8-14-.5z"/><path fill="#ae6031" fill-opacity=".5" d="M226.9 128.4L202 115.2l.7-1.4 24.8 13.2z"/><path fill="#a78562" fill-opacity=".5" d="M79.3 137L257 191.2l-.5 1.5-177.8-54.4z"/><path fill="#134e7f" fill-opacity=".5" d="M167 29.9l8.9-6.4 5.5 7.5-8.9 6.5z"/><path fill="#a09a88" fill-opacity=".5" d="M51.5 164.5l-3 .5-1.6-9.2 3.1-.5z"/><path fill="#594849" fill-opacity=".5" d="M68 36.1l-3.3 18.5-9.2-1.7 3.2-18.4z"/><path fill="#2c3637" fill-opacity=".5" d="M387.5 95.8l-67.7-12 .5-3 67.7 12z"/><path fill="#650e11" fill-opacity=".5" d="M322.2 98.1l10 19.5-2.8 1.4-10-19.4z"/><path fill="#2d1e26" fill-opacity=".5" d="M161.5 83.1l-1.5-.3L171.3 34l1.5.3z"/><path fill="#082720" fill-opacity=".5" d="M-6.2 127.1l-3-5.4L14 108.8l3 5.5z"/><path fill="#2c5a7b" fill-opacity=".5" d="M66.9 57.1L57 69.3l-3.7-3 9.9-12.1z"/><path fill="#2c1503" fill-opacity=".5" d="M211.6 137.8l-1-1.2 13.8-10.4.9 1.3z"/><path fill="#282e33" fill-opacity=".5" d="M252.6 146.5l-2.2-2.2 11-11 2.3 2.1z"/><path fill="#969b9d" fill-opacity=".5" d="M221.6 167.7L342.9 198l-.4 1.5-121.3-30.3z"/><path fill="#584a39" fill-opacity=".5" d="M226.2-20.9l1.4.5L213 22.5l-1.5-.6z"/><path fill-opacity=".5" d="M206.1 32.2l30.3 7.5-.3 1.6-30.4-7.6z"/><path fill="#693934" fill-opacity=".5" d="M299.1 138.7l-1.4 15.5-7.7-.7 1.3-15.5z"/><path fill="#061517" fill-opacity=".5" d="M435 13.2l-1.2 4.5-86-23L349-10z"/><path fill="#000100" fill-opacity=".5" d="M324.9 122.7l24.7 23.8-1 1.2-24.8-24z"/><path fill="#9da4a7" fill-opacity=".5" d="M80.4 134.3l23.8-36.7 1.3.9-23.8 36.7z"/><path fill="#1e1615" fill-opacity=".5" d="M191 127.4l-31-11.2.5-1.5 30.9 11.3z"/><path fill="#5e5644" fill-opacity=".5" d="M383 90.7l-36.6-8.4 3.5-15.2 36.5 8.4z"/><path fill="#baa67f" fill-opacity=".5" d="M193.3 34.4L185 21l1.4-.8 8.2 13.3z"/><path fill="#5a111d" fill-opacity=".5" d="M40.7 92.1l-18.2 4.6-2.3-9.1L38.4 83z"/><path fill="#954340" fill-opacity=".5" d="M182.7 126.5l4.8 9.8-28 13.7-4.8-9.8z"/><path fill="#96525f" fill-opacity=".5" d="M111.4-25l5.4 51.3-1.6.2-5.4-51.3z"/><path fill="#56442e" fill-opacity=".5" d="M58.5 118.4l1.4-.8L71 136.3l-1.3.8z"/><path fill="#0b0e10" fill-opacity=".5" d="M26.1 173.5l-3.5-15.2 9.1-2.1 3.5 15.2z"/><path fill="#571712" fill-opacity=".5" d="M173 112l-1.2-1L191 86.5l1.3 1z"/><path fill="#121612" fill-opacity=".5" d="M400.3 106.8l10.6 22.7-12.8 5.9-10.5-22.7z"/><path fill="#8e6d73" fill-opacity=".5" d="M339.2 168.1l-4.6-8.2 2.8-1.5 4.5 8.2z"/><path fill="#717b80" fill-opacity=".5" d="M289.5 5.6l-30.8-5 .2-1.5 30.9 5z"/><path fill="#4d342d" fill-opacity=".5" d="M56.6 102l22.5-21.7 6.5 6.7L63 108.8z"/><path fill="#504f4c" fill-opacity=".5" d="M381.7 64.5L332 51l.4-1.5 49.8 13.3z"/><path fill="#000f13" fill-opacity=".5" d="M270 36.8l21.7 3-.8 6.2-21.7-3z"/><path fill="#3e3832" fill-opacity=".5" d="M248 38l-2.1-29.6L263 7.2l2 29.7z"/><path fill="#401e01" fill-opacity=".5" d="M295.1 165l9 12.7-3.9 2.7-9-12.8z"/><path fill="#63584d" fill-opacity=".5" d="M82.6 172.7l4.8-13.2 19 6.9-4.7 13.2z"/><path fill="#4a3923" fill-opacity=".5" d="M97.7 1.3l5.6 5.4-12 12.4-5.5-5.5z"/><path fill="#8d6676" fill-opacity=".5" d="M129.3 118.1l-1.5 2.8-5.5-3 1.5-2.8z"/><path fill="#b96d4b" fill-opacity=".5" d="M191.9 112.5l-2.5-20.1 1.5-.2 2.5 20.1z"/><path fill="#0b1015" fill-opacity=".5" d="M98.9 91.3l-4.4 4.4-20-19.8 4.5-4.5z"/><path fill="#9a8167" fill-opacity=".5" d="M286.3 214.5l-127.8-41.6.5-1.4L286.8 213z"/><path fill="#663e1f" fill-opacity=".5" d="M238.4 191.5l1.6-4.4 54.4 19.8-1.6 4.4z"/><path fill="#b86d78" fill-opacity=".5" d="M186.7-5.3l7.6 7.8-4.5 4.4-7.6-7.9z"/><path fill="#811c13" fill-opacity=".5" d="M140.5 100.7l12.2-2.8 2.1 9.2-12.2 2.8z"/><path fill="#4b3f36" fill-opacity=".5" d="M454.4 49.3L454 54 312.7 36.6l.6-4.6z"/><path fill="#001925" fill-opacity=".5" d="M13.9 171.6l-23 4.9-3.2-15.3 23-4.9z"/><path fill="#733f3a" fill-opacity=".5" d="M320.1 107l2 2.4-18.8 16.4-2-2.4z"/><path fill="#826c52" fill-opacity=".5" d="M351.5 139.8l29.6-1.5.3 4.7-29.7 1.5z"/><path fill="#161c1e" fill-opacity=".5" d="M171 122.7h-6.2V88.3h6.3z"/><path fill="#00222f" fill-opacity=".5" d="M172.1 2.8l5.4-7.7 5 3.6-5.3 7.7z"/><path fill="#4f5d60" fill-opacity=".5" d="M362.5 95.3h-11v-7.8h11z"/><path fill="#ca8466" fill-opacity=".5" d="M196.1 120.5l16.7 8.5-4.2 8.3-16.7-8.5z"/><path fill="#9f9ea2" fill-opacity=".5" d="M251.7 55.7l31 10.7-1.5 4.4-31-10.6z"/><path fill="#022831" fill-opacity=".5" d="M21.7 9.9l35.9-2.6.4 6.3L22 16z"/><path fill="#1c0a0c" fill-opacity=".5" d="M90.3 58.3l27.5-18 6 9.3-27.5 17.8z"/><path fill="#7f5944" fill-opacity=".5" d="M264 47.6l-.2 1.6-29.4-4.7.3-1.5z"/><path fill="#916b7c" fill-opacity=".5" d="M182 74.8l2.3 2.2-8.5 9.1-2.3-2.1z"/><path fill="#7d6974" fill-opacity=".5" d="M161.3 39l1-1.1 24.8 21.5-1 1.2z"/><path fill="#070500" fill-opacity=".5" d="M238.7-34.4l1.5.6-33.6 79.1-1.5-.6z"/><path fill="#525d69" fill-opacity=".5" d="M19.8 44.7l.3 1.6-38.3 7.4-.3-1.5z"/><path fill="#171d22" fill-opacity=".5" d="M40.2 46.8L41 48 14.5 67.3l-.9-1.3z"/><path fill="#1a0700" fill-opacity=".5" d="M374.5 145.9l1 7.7-17.1 2.1-1-7.7z"/><path fill="#8b7965" fill-opacity=".5" d="M275.5 87l3.8-16.8 3 .7-3.8 16.7z"/><path fill="#5083a0" fill-opacity=".5" d="M176.7 75.1l-14.9 16-5.7-5.3 15-16z"/><path fill="#64111a" fill-opacity=".5" d="M50.3 196l-.7 7.7-14-1.2.7-7.8z"/><path fill="#aeb0af" fill-opacity=".5" d="M137.8 150l1.3-4.6 87.1 25-1.3 4.5z"/><path fill="#968c84" fill-opacity=".5" d="M245.8 178.8l69.7 17.4-.4 1.5-69.7-17.4z"/><path fill="#867474" fill-opacity=".5" d="M218.7 139.6l1-1.2 13.2 11-1 1.3z"/><path fill="#00080c" fill-opacity=".5" d="M96.3 39l-.6-1.4 40.8-15.7.6 1.5z"/><path fill="#848c92" fill-opacity=".5" d="M116 164l22.6 28-6.1 4.9-22.6-28z"/><path fill="#a9c3d3" fill-opacity=".5" d="M190 38.3l-14-14.6 1.1-1 14.1 14.5z"/><path fill="#13100e" fill-opacity=".5" d="M152 104l1.4-4.3 11.9 4-1.6 4.5z"/><path fill="#784b5d" fill-opacity=".5" d="M161.4 19.6l3.4 10.4-6 2-3.3-10.5z"/><path fill="#5d5760" fill-opacity=".5" d="M-2 122.3l-8.3-4.4 14-26.2 8.2 4.4z"/><path fill="#7797ac" fill-opacity=".5" d="M207 95l12 12.4-5.7 5.4-12-12.4z"/><path fill="#5b373e" fill-opacity=".5" d="M103.3 47l1.4-.6 6.1 14.4-1.4.6z"/><path fill="#a97954" fill-opacity=".5" d="M174.3 140.3l-1 1.2-14.8-11.5 1-1.2z"/><path fill="#6f0e25" fill-opacity=".5" d="M-3.3 176.5l10.9 19-2.7 1.5-11-19z"/><path fill="#b8cbd2" fill-opacity=".5" d="M230 156l.4 1.4-11.9 3.9-.5-1.5z"/><path fill="#2e2732" fill-opacity=".5" d="M20.7 131.5l-7 79.4-1.5-.2 6.9-79.4z"/><path fill="#523830" fill-opacity=".5" d="M360.4 160.8l-1.8 2.5-30-22.6 1.9-2.5z"/><path fill="#7e7462" fill-opacity=".5" d="M3 132.7l-1.3-1 12.5-16 1.3 1z"/><path fill="#bed2d6" fill-opacity=".5" d="M204.4 64.2l1-1.3 19.9 15-1 1.3z"/><path fill="#101c19" fill-opacity=".5" d="M373.6 109l4 2.4-5.9 9.3-4-2.5z"/><path fill="#34302f" fill-opacity=".5" d="M374 205.8l-40.6-11.6.4-1.5 40.6 11.6z"/><path fill="#d02950" fill-opacity=".5" d="M22 189.9l1.3.7-3 5.5-1.4-.8z"/><path fill="#948888" fill-opacity=".5" d="M260.3 167.3l-1.7-4.4 1.4-.5 1.7 4.4z"/><path fill="#5a7888" fill-opacity=".5" d="M260 131.2l5.4-5.7 1.1 1-5.3 5.8z"/><path fill="#2b2921" fill-opacity=".5" d="M101.9 135.3l17-40.3 5.8 2.5-17 40.3z"/><path fill="#969fa0" fill-opacity=".5" d="M50 51L19.1 75l-2-2.5 30.8-24z"/><path fill="#8f736a" fill-opacity=".5" d="M374.6 216.3l-33.1-33.1 1-1.1 33.2 33.1z"/><path fill="#292017" fill-opacity=".5" d="M245.4 29l38.7-4.8.2 1.5-38.7 4.8z"/><path fill="#753427" fill-opacity=".5" d="M215.7 79.9L196 84l-.7-3 19.9-4.3z"/><path fill="#4a1210" fill-opacity=".5" d="M176.4 137.3l-6.8-8.6 2.5-2 6.7 8.7z"/><path fill="#66482f" fill-opacity=".5" d="M61.9 44.3L32-29.7l1.5-.5 29.8 73.9z"/><path fill="#261c18" fill-opacity=".5" d="M371.3 49.6L326.8 41l.3-1.6 44.5 8.7z"/><path fill="#b4817e" fill-opacity=".5" d="M305.4 177.6l6.2-.5.2 3.1-6.2.5z"/><path fill="#91a1af" fill-opacity=".5" d="M315.5 92.3l9 6.3-1 1.3-8.9-6.3z"/><path fill="#00445d" fill-opacity=".5" d="M142.2 45.8l.8 1.4-14.9 8.6-.8-1.4z"/><path fill="#947b68" fill-opacity=".5" d="M51.4 142.2l1.6.2-2.9 23.2-1.5-.2z"/><path fill="#76362c" fill-opacity=".5" d="M37.2 138.7l7.8-.8.6 6.2-7.8.8z"/><path fill="#9a9e9c" fill-opacity=".5" d="M175.9 190l-34-11.7 2.5-7.4 34 11.7z"/><path fill="#331718" fill-opacity=".5" d="M229.9 168l.3-1.6 44.6 7.9-.3 1.5z"/><path fill="#791e28" fill-opacity=".5" d="M358.3 109.6l6.3 14.2-5.7 2.6-6.3-14.3z"/><path fill="#9a948a" fill-opacity=".5" d="M209.4-17.8l9 2.8-10.6 34.3-9-2.7z"/><path fill="#9b9890" fill-opacity=".5" d="M61.9 146.9L90.6 118l2.2 2.2L64.1 149z"/><path fill="#a17d5a" fill-opacity=".5" d="M153.9 164.4l2.2-7.5 47.9 14.6-2.3 7.5z"/><path fill="#434a52" fill-opacity=".5" d="M203.6-.6l-3.5 7-8.4-4.3 3.6-7z"/><path fill="#60696d" fill-opacity=".5" d="M391.3 119l1.6.2L369.6 239l-1.5-.3z"/><path fill="#775b45" fill-opacity=".5" d="M342.5 125.2l-7.7 5.3-7-10.4 7.7-5.2z"/><path fill="#3b3229" fill-opacity=".5" d="M127.1 175.2l1.3-2.8 8.5 4-1.3 2.8z"/><path fill="#93757e" fill-opacity=".5" d="M173.4 44l1.4-.5 9.7 26.5-1.5.5z"/><path fill="#1b1415" fill-opacity=".5" d="M306.3 166.8l13-11.3 1 1.2-13 11.2z"/><path fill="#171916" fill-opacity=".5" d="M323 157.6l-10.4 6.8-15.3-23.6 10.4-6.8z"/><path fill="#7c5a6b" fill-opacity=".5" d="M144.3 73l13.4 4-.4 1.6-13.5-4.1z"/><path fill="#201315" fill-opacity=".5" d="M362.8 114l-1.5-.4 5.5-26 1.6.4z"/><path fill="#833832" fill-opacity=".5" d="M171.1 12.2l4-4.8 8.4 7-4 4.8z"/><path fill="#250807" fill-opacity=".5" d="M26 181.2l10.7 13.4-4.8 3.9L21 185z"/><path fill="#6a7881" fill-opacity=".5" d="M387 78l9.4.3-.6 17.2-9.4-.4z"/><path fill="#000b02" fill-opacity=".5" d="M143.6 32l.3-12.6 10.9.2-.2 12.5z"/><path fill="#0e0b00" fill-opacity=".5" d="M365.2 173.4l.9 51.6h-1.6l-.9-51.5z"/><path fill="#52412c" fill-opacity=".5" d="M225.2 164.7l2.2-4.1 8.3 4.4-2.2 4.1z"/><path fill="#4e4c5e" fill-opacity=".5" d="M147.2 112.5l.4 1.5-12 3.2-.4-1.5z"/><path fill="#528495" fill-opacity=".5" d="M250 130.4l-14 1.7-.1-1.5 14-1.8z"/><path fill="#39241b" fill-opacity=".5" d="M215 127.4l14.8 5-2.6 7.4-14.8-5z"/><path fill="#003d58" fill-opacity=".5" d="M162.3 7.2l7.3 12-5.4 3.3-7.2-12z"/><path fill="#413d3a" fill-opacity=".5" d="M184.6 68.2L197 37.8l4.4 1.8L189 70z"/><path fill="#817869" fill-opacity=".5" d="M58 15.7l25.8-6.4.4 1.5-25.8 6.5z"/><path fill="#575259" fill-opacity=".5" d="M79 156l-7.7-1 1.2-9.3 7.7.9z"/><path fill="#7c686a" fill-opacity=".5" d="M272 153.5l16.7-3.9.3 1.6-16.7 3.8z"/><path fill="#180809" fill-opacity=".5" d="M153.3-13l6.6 6.6-39.8 39.8-6.6-6.7z"/><path fill="#4b5157" fill-opacity=".5" d="M228.3 42l-1.1 2.8L217 41l1.1-3z"/><path fill="#bf3d4a" fill-opacity=".5" d="M27.1 179.6l-7.6 1.6-1.3-6.1 7.6-1.6z"/><path fill="#231d1b" fill-opacity=".5" d="M149.1 137l7.8 1-1.3 10.9-7.8-1z"/><path fill="#6b4247" fill-opacity=".5" d="M8.5 23.3l20.2 25.9-1.2 1-20.2-26z"/><path fill="#1b4657" fill-opacity=".5" d="M113.6 33l12.4 1.2-.5 6.2-12.5-1.1z"/><path fill="#5b4139" fill-opacity=".5" d="M245.6 152.3l-9.9 4.6-7.9-17 10-4.6z"/><path fill="#0f1414" fill-opacity=".5" d="M154.4 87.6l-1.6 2.6-12-7.4 1.7-2.7z"/><path fill="#452223" fill-opacity=".5" d="M162 53.9l-6.8-27.3 3-.8 6.9 27.3z"/><path fill="#aa968e" fill-opacity=".5" d="M269.1 55.3L255 48.9l2.5-5.7 14.3 6.3z"/><path fill="#0c0000" fill-opacity=".5" d="M332 164.8l-2.8-1.5 6-11 2.8 1.6z"/><path fill="#481a07" fill-opacity=".5" d="M296.2 185l52.7-7.4.2 1.5-52.6 7.4z"/><path fill="#858b86" fill-opacity=".5" d="M31.8 124.7l1.4.7L19.7 152l-1.4-.7z"/><path fill="#885f39" fill-opacity=".5" d="M204 181l-.8 3-90.1-25.9.9-3z"/><path fill="#cdd9dd" fill-opacity=".5" d="M269.4 45l-.5 1.5-18-5.5.5-1.5z"/><path fill="#4a5354" fill-opacity=".5" d="M175.5 189l2 4.2-1.5.7-1.9-4.3z"/><path fill="#a98c62" fill-opacity=".5" d="M196.9 155l-6-10.9 1.3-.7 6 11z"/><path fill="#14100f" fill-opacity=".5" d="M220.5 50.3l-16.3-12.2 2-2.5 16.1 12.2z"/><path fill="#4a2c2c" fill-opacity=".5" d="M136.5 3.3l5 16.4-1.5.5-5-16.5z"/><path fill="#909394" fill-opacity=".5" d="M270.9 108.6L259 121.2l-3.4-3.2 11.7-12.6z"/><path fill="#282e2b" fill-opacity=".5" d="M302.8 51.7l1.7-6L330 53l-1.7 6z"/><path fill="#606877" fill-opacity=".5" d="M293.8 99.3l-6 9.2-14.4-9.4 6-9.1z"/><path fill="#661f13" fill-opacity=".5" d="M212.7 77l-2.3 2-9-10.7 2.3-2z"/><path fill="#82635e" fill-opacity=".5" d="M322.9 159.2l1 1.2-14 10.1-1-1.2z"/></svg>