<svg xmlns="http://www.w3.org/2000/svg" viewBox="0 0 400 200"><path fill="#514946" d="M0 0h400v200H0z"/><g stroke-opacity=".5" fill="none" stroke-width=".8"><path stroke="#feffff" d="M314.1 136q-107.3 32.3-92.4-64.2"/><path stroke="#f9ffff" d="M216 73.3q22.4 105.9 104.9 48"/><path stroke="#ecffff" d="M203.1 78.7q65.6 102 119.5 37.5"/><path stroke="#fff" d="M287.3 153.1q-77.7.1-68.5-76.8"/><path stroke="#eefbfb" d="M338 224.2Q82 147.6 67 162.6"/><path stroke="#eaffff" d="M217.6 93.1q38 97.6 105.8 26.3"/><path stroke="#f3ffff" d="M209.3 154.5q33-90.6 107.5-23.9"/><path stroke="#ceedff" d="M170.1 32q94.2 139.6 147 82.4"/><path stroke="#fbffff" d="M257.7 202.6q-29-6.8-180.2-49"/><path stroke="#f9d7ca" d="M281.3 75.4q9.7 25.8-179.5 148.8"/><path stroke="#f1ffff" d="M215.6 75.8q33.2 93.8 99 46.2"/><path stroke="#e7ffff" d="M207.3 146.9q32-77.8 109.2-25"/><path stroke="#f4f8fc" d="M202 158q58.8-88.5 112.5-44"/><path stroke="ivory" d="M275 70.3q25.1 43.8-78.7 78"/><path stroke="#ebffff" d="M218.4 80.6q9.5 100 92.9 51"/><path stroke="#eaf8ff" d="M249.7 170.4q-66.5-72.8 33-98.7"/><path stroke="#defdff" d="M216.4 68.6q20.5 84.8 94.1 59.7"/><path stroke="#dff" d="M311.5 132.2q-58.2 48.1-101.6-14.3"/><path stroke="#dffaff" d="M319 118.9q-30 25-115.3-37.6"/><path stroke="#dbffff" d="M215.1 120.3q28.7 54.6 102.8-2"/><path stroke="#dbf8ff" d="M308.5 136.6Q256 180.3 202.3 73.9"/><path stroke="#e8c1b4" d="M108.1 195.4Q275.8 123 278.5 68.8"/><path stroke="#d6cdc3" d="M127.1 189.8q124 34.4 134.7-127"/><path stroke="#e5ffff" d="M212 70.6q29.2 68.6 98.2 55.5"/><path stroke="#dcf5ff" d="M209.3 79.3Q268.6 35.6 291 103"/></g></svg>