<svg xmlns="http://www.w3.org/2000/svg" viewBox="0 0 400 200"><path fill="#514946" d="M0 0h400v200H0z"/><g fill-opacity=".5"><path fill="#dce3e9" d="M207 71h89v81.3h-89z"/><path fill="#ac8872" d="M86.7 152.3h157.8v48.5H86.7z"/><path fill="#0e0d14" d="M71 21h87.6v118.8H71z"/><path fill="#acc4d2" d="M218 105.5h96.8V146H218z"/><path fill="#302823" d="M280.5.8h120.3v200H280.5z"/><path fill="#070000" d="M.8 171h79.7v29.8H.8z"/><path fill="#adbdc6" d="M222.7 100.8h87.5v46.9h-87.5z"/><path fill="#a08e7e" d="M72.7.8h51.5v32.8H72.7z"/><path fill="#713126" d="M138.3 93h76.5v75h-76.5z"/><path fill="#000500" d="M216.4 19.5H257v40.7h-40.6z"/><path fill="#947064" d="M224.2 61.7h51.6v34.4h-51.6z"/><path fill="#b4bbbd" d="M.8 89.8h25v26.6H.8z"/><path fill="#aea69c" d="M18 121h25v37.6H18z"/><path fill="#1c232c" d="M.8.8h68.7V68H.8z"/><path fill="#799cb7" d="M172.7 41.4h17.1v57.8h-17.1z"/><path fill="#83878d" d="M263.3 89.8h26.5v73.5h-26.5z"/><path fill="#a3a3a6" d="M189.8 14.8h23.5v31.3h-23.5z"/><path fill="#7d7a75" d="M375.8 91.4h11v109.4h-11z"/><path fill="#000e16" d="M304 .8h96.8v21.9h-96.9z"/><path fill="#96c1ea" d="M300.8 113.3h18.7v20.3h-18.7z"/><path fill="#020601" d="M129 2.3h28V54h-28z"/><path fill="#c67454" d="M180.5 124.2h31.2V157h-31.2z"/><path d="M388.3 130.5h12.5v70.3h-12.5z"/><path fill="#b8af9f" d="M43 107h17.2v23.5H43z"/><path fill="#8b816e" d="M75.8 130.5h23.4v48.4H75.8z"/></g></svg>