<svg xmlns="http://www.w3.org/2000/svg" viewBox="0 0 128 64"><path fill="#534949" d="M0 0h128v64H0z"/><g fill-opacity=".5"><path fill="#ccc8cb" d="M103.5 38.5l-25-21-36 62z"/><path fill="#060614" d="M43.5 44.5l14-49-40 21z"/><path fill="#c7a788" d="M23.5 47.5l119 31-101 1z"/><path fill="#e0f0fb" d="M75.5 49.5l-10-27 21 16z"/><path fill="#282621" d="M53.5-15.5l90 95-7-95z"/><path fill="#64281c" d="M47.5 30.5l-3 20 62 18z"/><path fill="#0e0002" d="M-15.5 44.5l45 14-15 21z"/><path fill="#aba89f" d="M1.5 46.5l8 6 20-30z"/><path fill="#c3cbcc" d="M-15.5 57.5l33-36-33 19z"/><path fill="#8a939f" d="M75.5-2.5l-15 9-8 28z"/><path fill="#360f09" d="M123.5 69.5l-11-36-23 19z"/><path fill="#100d12" d="M50.5 13.5l-26 14-16 34z"/><path fill="#0d1009" d="M73.5 4.5l-13 17 28-5z"/><path fill="#b8aa9e" d="M19.5.5l13 6 24-15z"/><path fill="#1a202a" d="M1.5 29.5l-6-45 29 23z"/><path fill="#9a8b8c" d="M65.5 21.5l24-3 5 29z"/><path fill="#73655e" d="M116.5 29.5l3 42 9-43z"/><path d="M122.5 79.5h21l-15-55z"/><path fill="#995a4a" d="M70.5 31.5l-18 16 4 32z"/><path fill="#001017" d="M74.5-.5l51 9 14-15z"/><path fill="#6f8faa" d="M95.5 32.5l-23 27 28-16z"/><path fill="#2a1923" d="M-.5 50.5l-5-8 29-18z"/><path fill="#4b4b48" d="M87.5 20.5l52-11-66-7z"/><path fill="#3e464b" d="M83.5 47.5l1 13-25-4z"/><path fill="#bdcbd2" d="M88.5 49.5l-2-19-22 8z"/><path fill="#1d1010" d="M36.5 34.5l22 11-24 1z"/><path fill="#8b6e68" d="M63.5 22.5l15 9 19-7z"/><path fill="#550f03" d="M69.5 34.5l-6-10-7 14z"/><path fill="#7a5649" d="M122.5 50.5l-32 21 20-26z"/><path fill="#260c02" d="M80.5 79.5l40-27-3 26z"/><path fill="#b2c4c6" d="M74.5 57.5l-3 2-5-6z"/><path fill="#29141b" d="M43.5-3.5l3 31 10-1z"/><path fill="#150907" d="M94.5 50.5l6-7 16 11z"/><path fill="#534e61" d="M51.5 27.5l17-32-18-3z"/><path fill="#908d85" d="M16.5 55.5l20-21-6 13z"/><path fill="#372b21" d="M138.5 15.5l-69-10 23 18z"/><path fill="#63615a" d="M116.5 35.5l12-6-33-5z"/><path fill="#928a85" d="M18.5 40.5l-22 9 32-25z"/><path fill="#aba39e" d="M92.5 79.5l-47-26 65 16z"/><path fill="#93623d" d="M34.5 54.5l58 12-10 13z"/><path fill="#b1adb0" d="M89.5 23.5l3 11-13-16z"/><path fill="#9c8885" d="M42.5 57.5l2-14-8 7z"/><path fill="#1f1c1e" d="M6.5 53.5l22-9 9-20z"/><path fill="#cddde8" d="M71.5 44.5l-2-18 13 21z"/><path fill="#667384" d="M78.5 4.5l17 4v-5z"/><path fill="#341417" d="M120.5 36.5l-29-8 28 18z"/><path fill="#d87e5e" d="M56.5 41.5l5-2 6 10z"/><path fill="#746050" d="M31.5 3.5l10 5-28 5z"/><path fill="#2a2014" d="M36.5 50.5l-6-4 7-11z"/><path fill="#081c27" d="M21.5 28.5l-14 5 25-22z"/><path fill="#708698" d="M59.5 30.5l-8 4 10-19z"/><path fill="#614662" d="M45.5 32.5h-10l8-11z"/><path fill="#63584f" d="M28.5 39.5l-11 8-3 17z"/><path fill="#997461" d="M80.5 59.5l10-6 2 4z"/><path fill="#92827d" d="M67.5 15.5v-9l-13-6z"/><path fill="#87a0b8" d="M64.5 10.5l-6 11-2-7z"/><path fill="#887262" d="M105.5 45.5l10 7 8-2z"/><path fill="#bfb4bc" d="M71.5 23.5l-1 10-4-12z"/><path fill="#111312" d="M72.5 20.5l-10 1 10-13z"/><path fill="#757d89" d="M90.5 47.5l3-17-12 10z"/><path fill="#372a36" d="M52.5-7.5l-18-8 30 32z"/><path fill="#76524c" d="M68.5 26.5l10-6 1 9z"/><path fill="#8a8b8c" d="M21.5 18.5l-25 14 3 8z"/><path fill="#7e8d94" d="M118.5 62.5l5-9-4 19z"/><path fill="#36373e" d="M22.5 18.5l-38 17 37-51z"/><path fill="#7d95b2" d="M90.5 29.5l2 18 12-10z"/><path fill="#7d605f" d="M3.5 20.5l5 2-5-12z"/><path fill="#00080c" d="M36.5 16.5l11-2-4-8z"/><path fill="#792e47" d="M5.5 73.5v-24l6 22z"/><path fill="#2b2621" d="M85.5 19.5l52 12 4-14z"/><path fill="#54473d" d="M115.5 14.5l-4 10-32-11z"/><path fill="#231500" d="M17.5 48.5l2 19 14 12z"/><path fill="#231517" d="M47.5 41.5l8-7-6 17z"/><path fill="#503432" d="M71.5 48.5l-9 5 17 2z"/><path fill="#00090d" d="M132.5 16.5l11 34-25 29z"/><path fill="#150c00" d="M-12.5 10.5h15l5-16z"/><path fill="#90541e" d="M91.5 56.5l-2 23 34-5z"/><path fill="#6b6a67" d="M42.5 74.5l2-11-24-13z"/><path fill="#6d362e" d="M70.5 34.5l-15 5 12-10z"/><path fill="#281c13" d="M63.5 15.5l-4 17 5-3z"/><path fill="#65555d" d="M61.5 9.5l-15-19 38-6z"/><path fill="#915d38" d="M26.5 54.5l15-1 14 8z"/><path fill="#945360" d="M38.5 10.5l-3-5v10z"/><path fill="#2d1d17" d="M68.5 58.5l-7-2 2-6z"/><path fill="#587279" d="M7.5 12.5l10 2-3-3z"/><path fill="#331312" d="M118.5 51.5l-15-12 6-7z"/><path fill="#707984" d="M126.5 29.5l1 10h-5z"/><path fill="#001824" d="M44.5 45.5l-2-12-14-10z"/><path fill="#535f69" d="M126.5 13.5l-17-6 34 2z"/><path fill="#101a23" d="M12.5 22.5l-19 1-9 13z"/><path fill="#7ea5ba" d="M77.5 48.5l-4-2 4 5z"/><path fill="#c9b7b5" d="M86.5 19.5l5 6-12-6z"/><path fill="#acafaa" d="M41.5 59.5l45 13-15 7z"/><path fill="#bcc6c9" d="M80.5 47.5l7-4-21-17z"/><path fill="#896e69" d="M72.5 20.5h13l3 5z"/><path fill="#9c8e91" d="M106.5 57.5l-4-1 3-3z"/><path fill="#112025" d="M98.5 22.5l-5-6h-17z"/><path d="M10.5 53.5l9 22-10-10z"/><path fill="#d08b66" d="M68.5 46.5l-5-3-1 7z"/><path fill="#0c0b09" d="M67.5 15.5l4-11 7 2z"/></g></svg>