<svg xmlns="http://www.w3.org/2000/svg" viewBox="0 0 400 200"><path fill="#514946" d="M0 0h400v200H0z"/><g transform="translate(.8 .8) scale(1.5625)" fill-opacity=".5"><ellipse fill="#d2dee7" rx="1" ry="1" transform="rotate(132.1 66.3 72.2) scale(29.74661 35.42524)"/><ellipse fill="#0c0c14" rx="1" ry="1" transform="matrix(25.79761 7.24052 -12.57018 44.78695 75.2 52.4)"/><ellipse fill="#c7ab8c" rx="1" ry="1" transform="matrix(85.3003 24.94355 -3.56463 12.19007 123.2 126.9)"/><ellipse fill="#292520" rx="1" ry="1" transform="matrix(-41.5488 22.37172 -108.72392 -201.92223 217.4 19.8)"/><path fill="#e2f7fe" d="M167 65l-6.6 31.4-25.4-5.5 6.6-31.3z"/><path fill="#0a0001" d="M46 146.8L-16.8 130-8 97.2 54.8 114z"/><path fill="#a4a69f" d="M16.2 107.2L65.4 36 14.3 83.6l-3.5 28.7z"/><path fill="#bfcbcf" d="M-3 61l-13 31 54-50z"/><path fill="#90a9b5" d="M113 58l33-61-35 34z"/><path fill="#b4a899" d="M77.8 8.6l23-24.6-71.9 5.7L55 15.8z"/><path fill="#2f0803" d="M237.1 83.6l-15.8-14.7-46.6 35.6 20 14.3z"/><ellipse fill="#151f2a" cx="4" cy="19" rx="35" ry="35"/><path fill="#8fb7dc" d="M183 94l26-17-19-14z"/><path fill="#1a2425" d="M156-16l-32 61L271 4z"/><ellipse fill="#636b77" rx="1" ry="1" transform="matrix(-.64595 4.09342 -84.65926 -13.35943 190.2 13.7)"/><ellipse fill="#b95a40" rx="1" ry="1" transform="rotate(45 -54.3 194.7) scale(14.73257 20.13997)"/><path fill="#4f0d00" d="M82 96l61-28-15-14z"/><path fill="#a5a49c" d="M71 70.7l-12.9 30.1-10-.2 16-26.2z"/><ellipse fill="#161720" rx="1" ry="1" transform="matrix(4.3135 5.05293 -46.57888 39.76259 57 37.3)"/><ellipse fill="#7d4736" cx="154" cy="53" rx="13" ry="11"/><path fill="#0c0e11" d="M54.9 51.1l35.6-18.6-32 52.2-29.7 12.7z"/><path fill="#786d65" d="M237 58h10v70h-10z"/><path fill="#75828c" d="M176 105l19-37-77 59z"/><ellipse rx="1" ry="1" transform="matrix(-6.89341 38.97831 -6.50011 -1.14956 255 100.2)"/><path fill="#31110a" d="M111.8 81L68.3 68.3 99 109.8l15.4-17.6z"/></g></svg>