<svg xmlns="http://www.w3.org/2000/svg" viewBox="0 0 400 200"><path fill="#544b47" d="M0 0h400v200H0z"/><path fill="#bdb4b1" fill-opacity=".5" d="M252.1 38.2l72.6 56.7-109.6 140.4-72.7-56.8z"/><path fill="#080912" fill-opacity=".5" d="M69 114.1L88.2-6.3 167 6.2l-19.1 120.4z"/><path fill="#e4ffff" fill-opacity=".5" d="M266.5 129.5L215 125l4.4-49.8 51.3 4.5z"/><path fill="#060000" fill-opacity=".5" d="M113.6 204.2l-64 50-61.6-78.7 64-50z"/><path fill="#492517" fill-opacity=".5" d="M415.8 217.4L94.4 131.3l10-37.8L426 179.7z"/><path fill="#9b9180" fill-opacity=".5" d="M157.7 230.6l-94.9-88.4 37.3-40 94.9 88.4z"/><path fill="#31241d" fill-opacity=".5" d="M415.8 186.6l-98.4 1.7L313.9-10l98.4-1.7z"/><path fill="#bbbcb1" fill-opacity=".5" d="M61.7 69.6l11.6 10.5-52.2 58-11.6-10.4z"/><path fill="#dbe7f0" fill-opacity=".5" d="M206 77l-4-28 18.6-2.6 4 27.8z"/><path fill="#b5c4c3" fill-opacity=".5" d="M45.7 46.3l7.9 9.7-57.1 46.2-7.9-9.7z"/><path fill="#000100" fill-opacity=".5" d="M240.5-8.5L259.6 10l-42.3 43.8-19.1-18.5z"/><path fill="#cfe0e4" fill-opacity=".5" d="M174.5 161.1l1.2-4.5 160.7 40-1.1 4.6z"/><path fill="#9bb3be" fill-opacity=".5" d="M384.8 126.9l6.1 1.4-18 77.6-6-1.4z"/><path fill="#93adb6" fill-opacity=".5" d="M168.3 46.2l44.5-66 14.3 9.5-44.6 66.1z"/><path fill="#220400" fill-opacity=".5" d="M283 138.4L345.4 86l20 24-62.2 52.2z"/><path fill-opacity=".5" d="M375.5 232.5l27.4-172.9 20 3.2-27.3 172.9z"/><path fill="#20242b" fill-opacity=".5" d="M3 67.3l-20.8-57.2L70.3-22l20.9 57.3z"/><path fill="#050d09" fill-opacity=".5" d="M124 85.3l18.2 14.7-33.4 41.3-18.2-14.8z"/><path fill="#9a5d20" fill-opacity=".5" d="M296.7 196.5l-4.3 15-153.2-44 4.3-15z"/><path fill="#070e1d" fill-opacity=".5" d="M101 16.7l10.4 11.6-104.5 94-10.5-11.5z"/></svg>