<svg xmlns="http://www.w3.org/2000/svg" viewBox="0 0 16 8"><path fill="#544949" d="M0 0h16v8H0z"/><g fill-opacity=".5"><path fill="#bba6a1" d="M12.5 2.5l-28 18 22 3z"/><path fill="#2d2125" d="M8.5 6.5l-7-22-17 6z"/><path fill="#29221a" d="M10.5-11.5l9 11-3 12z"/><path fill="#b2a9b0" d="M3.5.5l4-12 13-4z"/><path fill="#a5a0a6" d="M14.5 2.5h-4l-2 3z"/><path fill="#2b2b30" d="M13.5 4.5l4-9h-11z"/><path fill="#201410" d="M5.5 2.5l-6 10-7 2z"/><path fill="#4a3630" d="M7.5 5.5l24 14-1-12z"/><path fill="#786f70" d="M6.5 6.5l-21-16-1 9z"/><path fill="#e8d9da" d="M10.5 5.5l-1-2h-1z"/><path fill="#796665" d="M5.5 18.5l3-18 5 23z"/><path fill="#1e1012" d="M4.5 2.5l6-8v-10z"/><path fill="#423b3a" d="M9.5.5h7l6 7z"/><path fill="#786758" d="M14.5 6.5l17-18-7-1z"/><path fill="#7d7883" d="M7.5 1.5l9-16-9 5z"/><path fill="#585a65" d="M3.5 1.5l-19 22v-10z"/><path fill="#312723" d="M2.5 5.5l10 14-26 4z"/><path fill="#51525b" d="M9.5 2.5l9-18h10z"/><path fill="#1e1b29" d="M8.5 2.5l6-9-1-9z"/><path fill="#1b130f" d="M15.5.5l-12-4 14-1z"/><path fill="#31211f" d="M1.5 1.5l5 4-1-3z"/><path fill="#a7897b" d="M3.5 6.5l25 6-13 5z"/><path fill="#5c4138" d="M6.5 6.5l1-3-2 2z"/><path fill="#251a17" d="M13.5 5.5l-1 18h-6z"/><path fill="#635655" d="M11.5 6.5l20 17v-9z"/><path fill="#5b575d" d="M3.5 3.5l-13-2-6 11z"/><path fill="#4b484a" d="M3.5 6.5l-19-5 6-5z"/><path fill="#150500" d="M14.5 2.5l13 5-1-4z"/><path fill="#8e868c" d="M8.5 2.5v2l1-2z"/><path fill="#49464b" d="M14.5 2.5l-12-15-13-3z"/><path fill="#7c6157" d="M6.5 6.5l-2 9-13 5z"/><path fill="#898487" d="M13.5 4.5l-4-2h2z"/><path fill="#878184" d="M1.5 4.5l-12-10-5 3z"/><path fill="#382b24" d="M11.5 2.5l9 9 11 2z"/><path fill="#111013" d="M1.5 7.5l10 16-27-18z"/><path fill="#253143" d="M1.5.5l-9-3-8 12z"/><path fill="#241306" d="M14.5 7.5l-16 5 11 2z"/><path fill="#a29fa4" d="M10.5 2.5v1l1 1z"/><path fill="#6c5e53" d="M14.5 3.5l17 1-5 9z"/><path fill="#3d3c43" d="M10.5 2.5l2-18 4 4z"/><path fill="#464752" d="M1.5 3.5l-7-2-3-11z"/><path fill="#504d57" d="M3.5.5l-10-11 2-5z"/><path fill="#1c1d27" d="M-15.5 14.5l17-16-17-14z"/><path fill="#43383a" d="M5.5.5l4-16h5z"/><path fill="#1d1317" d="M5.5 1.5l6-7v-6z"/><path fill="#ac9388" d="M4.5 7.5l14 1-25 9z"/><path fill="#4c3b2e" d="M14.5 5.5l13 12 4-11z"/><path fill="#6e6b71" d="M3.5 5.5l-19-10 5 7z"/><path fill="#4e4544" d="M2.5 6.5l-2-1v1z"/><path fill="#6a5755" d="M7.5 5.5h4l-2 1z"/><path fill="#827f84" d="M1.5 5.5l-15 2 3 4z"/><path fill="#766663" d="M12.5 5.5l-13 12-15 2z"/><path fill="#646470" d="M1.5 3.5l-17 2 7 3z"/><path fill="#4b4647" d="M14.5.5h-3l3 1z"/><path fill="#5e5052" d="M7.5.5l1-16 4 3z"/><path fill="#382a21" d="M15.5 1.5h9l3 8z"/><path fill="#8d7872" d="M8.5 7.5l12 15-16-11z"/><path fill="#564b4d" d="M11.5 6.5l-5 9-9 5z"/><path fill="#333339" d="M11.5.5l2-12 10-2z"/><path fill="#1c151e" d="M9.5 1.5l7-17-6 4z"/><path fill="#4f4b52" d="M11.5.5l-4-3 3-3z"/><path fill="#75737d" d="M9.5.5l-8-9 2-7z"/><path fill="#665e65" d="M10.5 2.5l-10-18-3 5z"/><path fill="#7a757d" d="M9.5.5l-10-10 7-6z"/><path fill="#574647" d="M6.5 2.5l1 1v1z"/><path fill="#726667" d="M7.5 2.5v-12l5-6z"/><path fill="#5b5055" d="M8.5.5l-1-15-5-1z"/><path fill="#7a6460" d="M9.5 6.5l11 15-9 2z"/><path fill="#7f7b84" d="M3.5.5l1-16 6 6z"/><path fill="#544038" d="M3.5 7.5l24 4-43 7z"/><path fill="#615455" d="M10.5 6.5l1 13 11 3z"/><path fill="#736564" d="M5.5.5l-3-10-8-6z"/><path fill="#403c44" d="M7.5 1.5l21-12-5-5z"/><path fill="#494a51" d="M12.5 1.5l-15-15 8 2z"/><path fill="#776e74" d="M7.5 1.5l13-15-5-2z"/><path fill="#31272c" d="M7.5.5l-8-16 7 5z"/><path fill="#2b2525" d="M.5 7.5l-4 10 11 6z"/><path fill="#1b1515" d="M1.5 7.5l9 5-19 1z"/><path fill="#444040" d="M.5 6.5l-11 11-2-5z"/><path fill="#453e35" d="M15.5 1.5h13l3-6z"/><path fill="#220f0c" d="M4.5 2.5l3 3-2-4z"/><path fill="#37241d" d="M2.5 7.5l15 12-7-10z"/><path fill="#2d2326" d="M26.5-15.5l-14 5-9 13z"/><path fill="#2e2727" d="M14.5 4.5l-1-2h-1z"/><path fill="#3f3234" d="M6.5.5l-14-16 11 5z"/><path fill="#2d2123" d="M3.5 2.5l12-18 8 1z"/><path fill="#3f3335" d="M5.5.5l7-12-3-4z"/><path fill="#30211a" d="M12.5 6.5l11 1 6 6z"/><path fill="#53443a" d="M31.5-15.5l-3 21-21 12z"/><path fill="#51505b" d="M1.5 2.5l-17 9 9-1z"/><path fill="#3c373e" d="M11.5 1.5l-17-17 9 3z"/><path fill="#545156" d="M1.5 4.5l-14 2-3 14z"/><path fill="#433e46" d="M1.5 1.5l1-1v-2z"/><path fill="#2f271f" d="M15.5.5l-1-4-6-3z"/><path fill="#44362d" d="M15.5 3.5l14-19v9z"/><path fill="#1f1d23" d="M13.5.5l1-7 7-6z"/><path fill="#5e5352" d="M2.5 4.5l-12 7-6-3z"/><path fill="#4c3d39" d="M12.5 7.5l13 10 5-8z"/><path fill="#514e55" d="M.5 5.5l-13-21-1 9z"/><path fill="#4b4348" d="M2.5.5l8-16-8 7z"/></g></svg>