<svg xmlns="http://www.w3.org/2000/svg" viewBox="0 0 400 200"><path fill="#544b47" d="M0 0h400v200H0z"/><g fill-opacity=".5"><path fill="#dce4ec" d="M208.6 49.2h86v81.3h-86z"/><path fill="#b29e8b" d="M105.5 143h136v57.8h-136z"/><path fill="#0d0e14" d="M68 .8h90.6v121.9H68z"/><path d="M.8 150.8h84.4v50H.8z"/><path fill="#302219" d="M314.8.8h86V193h-86z"/><path fill="#acc2d2" d="M218 83.6h100v39H218z"/><path fill="#403a32" d="M222.7.8h132.8v71.9H222.7z"/><path fill="#afaaa9" d="M230.5 39.8h50v100h-50z"/><path fill="#a1866a" d="M160.2 174.2h167.1v26.6H160.2z"/><path fill="#8d422f" d="M175.8 71h39v87.6h-39z"/><path fill="#bac7c8" d="M.8 69.5h23.4V93H.8z"/><path fill="#aba49a" d="M18 97.7h25v37.5H18z"/><path fill="#7c9cb6" d="M174.2 19.5h15.6V82h-15.6z"/><path fill="#000300" d="M213.3.8H246v39h-32.8z"/><path fill="#938772" d="M74.2 107h28.1v50h-28z"/><path d="M388.3 110.2h12.5v90.6h-12.5z"/><path fill="#472215" d="M297.7 114.8h67.1v73.5h-67.1z"/><path fill="#5f7588" d="M271 75.8h29.8v54.7H271z"/><path fill="#787874" d="M374.2 71h12.5v114.2h-12.5z"/><path fill="#d3e8ee" d="M221 75.8h31.3v50h-31.2z"/><path fill="#b1b5b1" d="M191.4.8h23.4V21h-23.4z"/><path fill="#59180e" d="M141.4 91.4h36v57.8h-36z"/><path fill="#20232c" d="M.8.8h65.6V46H.8z"/><path fill="#000906" d="M52.3 188.3h70.4v12.5H52.3z"/><path fill="#b5b1a1" d="M39.8 88.3h18.8v20.3H39.8z"/></g></svg>