<svg xmlns="http://www.w3.org/2000/svg" viewBox="0 0 400 200"><path fill="#514946" d="M0 0h400v200H0z"/><g fill-opacity=".5"><path fill="#d9e0e6" d="M207 71h90.7v83H207z"/><path fill="#aa856f" d="M82 150.8h161v50H82z"/><path fill="#0e0d14" d="M69.5 22.7h89v117.1h-89z"/><path fill="#1d211c" d="M282 .8h118.8V96H282z"/><path fill="#acc3d2" d="M216.4 104h98.4v40.5h-98.4z"/><path fill="#0c0202" d="M.8 171h89v29.8H.8z"/><path fill="#3c180e" d="M310.2 100.8h64v100h-64z"/><path fill="#9e8c7b" d="M72.7.8h50v34.4h-50z"/><path fill="#040900" d="M213.3 21h46.9v39.2h-47z"/><path d="M388.3 129h12.5v71.8h-12.5z"/><path fill="#723226" d="M139.8 96h76.6v73.5h-76.6z"/><path fill="#aea69c" d="M18 121h25v37.6H18z"/><path fill="#bfcbcf" d="M.8 91.4H21v25H.8z"/><path fill="#966f64" d="M224.2 61.7h46.9v36h-46.9z"/><path fill="#171f2a" d="M.8.8h57.8V68H.8z"/><path fill="#819fbb" d="M174.2 38.3h14v64h-14z"/><path fill="#6f8196" d="M266.4 110.2h54.7v26.5h-54.7z"/><path fill="#a4a0a2" d="M188.3 14.8h28.1V43h-28.1z"/><path fill="#d7e6e8" d="M219.5 99.2H257v48.5h-37.5z"/><path fill="#120300" d="M289.8 147.7h31.3V182h-31.3z"/><path fill="#050701" d="M130.5 4H157v54.6h-26.5z"/><path fill="#c17051" d="M180.5 122.7h29.7v35.9h-29.7z"/><path fill="#9d927c" d="M104 179h129.6v21.8H103.9z"/><path fill="#b4ac9e" d="M41.4 107h18.8v23.5H41.4z"/><path fill="#958f8d" d="M263.3 68h20.3v96.8h-20.3z"/></g></svg>