<svg xmlns="http://www.w3.org/2000/svg" viewBox="0 0 400 200"><path fill="#514946" d="M0 0h400v200H0z"/><g transform="translate(.8 .8) scale(1.5625)" fill-opacity=".5"><ellipse fill="#d6e5ef" cx="164" cy="73" rx="31" ry="31"/><ellipse fill="#0b0b16" cx="75" cy="45" rx="34" ry="34"/><ellipse fill="#a97963" cx="108" cy="127" rx="45" ry="45"/><ellipse fill="#262320" cx="244" cy="25" rx="69" ry="69"/><ellipse fill="#ddeef2" cx="155" cy="79" rx="17" ry="17"/><ellipse fill="#2e0b09" cx="95" cy="88" rx="19" ry="19"/><ellipse fill="#140707" cx="22" cy="127" rx="29" ry="29"/><ellipse fill="#3b1c13" cx="227" cy="107" rx="35" ry="35"/><ellipse fill="#789abb" cx="190" cy="78" rx="14" ry="14"/><ellipse fill="#867d79" cx="12" cy="78" rx="23" ry="23"/><ellipse fill="#151e29" cy="16" rx="39" ry="39"/><ellipse fill="#000100" cx="149" cy="25" rx="14" ry="14"/><ellipse fill="#a59888" cx="63" rx="19" ry="19"/><ellipse fill="#cbd2d9" cx="135" cy="51" rx="8" ry="8"/><ellipse fill="#856255" cx="157" cy="48" rx="16" ry="16"/><ellipse fill="#a8abaa" cx="129" cy="19" rx="9" ry="9"/><ellipse fill="#948876" cx="81" cy="118" rx="24" ry="24"/><ellipse fill="#7db5d4" cx="116" cy="36" rx="8" ry="8"/><ellipse cx="24" cy="64" rx="7" ry="7"/><ellipse fill="#10110f" cx="90" cy="17" rx="16" ry="16"/><ellipse fill="#030404" cx="49" cy="79" rx="11" ry="11"/><ellipse fill="#a48f75" cx="53" cy="103" rx="11" ry="11"/><ellipse fill="#70736f" cx="242" cy="69" rx="12" ry="12"/><ellipse fill="#611707" cx="127" cy="66" rx="11" ry="11"/><ellipse fill="#384f5c" cx="160" cy="103" rx="8" ry="8"/></g></svg>