<svg xmlns="http://www.w3.org/2000/svg" viewBox="0 0 400 200"><path fill="#514946" d="M0 0h400v200H0z"/><g transform="translate(.8 .8) scale(1.5625)" fill-opacity=".5"><ellipse fill="#ddf6ff" cx="165" cy="78" rx="33" ry="24"/><ellipse fill="#b28971" cx="104" cy="115" rx="49" ry="21"/><ellipse fill="#0f0d17" cx="78" cy="51" rx="32" ry="42"/><ellipse fill="#c8b3ad" cx="157" cy="55" rx="25" ry="17"/><ellipse fill="#292019" cx="255" cy="22" rx="57" ry="144"/><ellipse fill="#0b0002" cx="12" cy="127" rx="43" ry="25"/><ellipse fill="#bab0a0" cx="62" rx="19" ry="13"/><ellipse fill="#ddf3fb" cx="150" cy="78" rx="12" ry="17"/><ellipse fill="#151f2a" cy="23" rx="40" ry="31"/><ellipse fill="#857d79" cx="15" cy="77" rx="20" ry="24"/><ellipse fill="#020700" cx="150" cy="24" rx="15" ry="15"/><ellipse fill="#742c1e" cx="109" cy="88" rx="24" ry="23"/><ellipse fill="#839fb6" cx="116" cy="44" rx="6" ry="21"/><ellipse fill="#000e16" cx="211" rx="63" ry="10"/><ellipse fill="#080000" cx="198" cy="104" rx="10" ry="14"/><ellipse fill="#8e8a8e" cx="129" rx="13" ry="29"/><ellipse fill="#7b736d" cx="242" cy="93" rx="6" ry="36"/><ellipse fill="#6a86a6" cx="189" cy="77" rx="17" ry="10"/><ellipse fill="#c47f61" cx="127" cy="88" rx="13" ry="12"/><ellipse fill="#090d09" cx="92" cy="10" rx="9" ry="44"/><ellipse cx="26" cy="63" rx="7" ry="7"/><ellipse fill="#b0a187" cx="124" cy="127" rx="36" ry="10"/><ellipse fill="#7f5a53" cx="160" cy="56" rx="16" ry="8"/><ellipse fill="#4f4a4e" cx="152" cy="108" rx="29" ry="12"/><ellipse fill="#aa9981" cx="53" cy="101" rx="9" ry="10"/></g></svg>