<svg xmlns="http://www.w3.org/2000/svg" viewBox="0 0 2000 1000"><path fill="#514946" d="M0 0h2000v1000H0z"/><g fill-opacity=".5"><path fill="#c6c7cb" d="M1636.7 636.7l-859.4 484.4 468.8-890.6z"/><path fill="#03040d" d="M832-58.6l-554.7 336L722.7 746z"/><path fill="#c5ab8b" d="M644.5 1121l843.8-93.7-1171.9-289z"/><path fill="#dcf7ff" d="M1105.5 714.8l304.7 62.5-359.4-453z"/><path fill="#191f18" d="M949.2 214.8l1156.3 281.3-140.7-617.2z"/><path fill="#46291d" d="M1972.7 1121l46.8-453L668 816.4z"/><path fill="#b6b6aa" d="M35.2 722.7l398.4-359.4L168 793z"/><path fill="#bcc9c9" d="M58.6 574.2L-121.1 543l445.3-234.4z"/><path fill="#1a100d" d="M527.3 347.7L332 1043l-453 78z"/><path fill="#899aa7" d="M1144.5-4l-289 195.4L886.7 457z"/><path fill="#270300" d="M1441.4 910.2l234.4-445.4 250 179.7z"/><path fill="#b6af9f" d="M871-121L332 11.6 480.5 121z"/><path fill="#9d4027" d="M777.3 855.5l382.9-54.7-257.9-312.5z"/><path fill="#161f28" d="M-105.5-121l492.2 234.3L19.5 480.5z"/><path fill="#bbb5a6" d="M386.7 847.7H277.3l218.8-195.4z"/><path d="M2004 472.7l117 507.8-218.7 46.8z"/><path fill="#020601" d="M1269.5 277.3l-289 78.2 171.8-320.3z"/><path fill="#bbc7cb" d="M1004 402.3l382.7 453.2-54.7-328.2z"/><path fill="#221008" d="M652.3 519.5L480.5 722.7 957 738.3z"/><path fill="#000e12" d="M2027.3 144.5L1160.2 11.7l875-132.8z"/><path fill="#0a0a16" d="M152.3 464.8l273.5-164L82 683.6z"/><path fill="#83a0ad" d="M1847.7 980.5l85.9-218.8-23.4 250z"/><path fill="#181015" d="M-113.3 1121L27.3 777.4l453.2 211z"/><path fill="#5d6a73" d="M1738.3 144.5l-429.7 7.8-7.8-117.1z"/><path fill="#93776d" d="M988.3 355.5l187.5 132.8 148.4-203.1z"/><path fill="#876849" d="M550.8 1050.8l-265.6-289 968.7 250z"/><path fill="#6d8ea4" d="M1464.8 464.8l78.2 234.4L1183.6 918z"/><path fill="#4c0d00" d="M972.7 339.8l-62.5 281.3 187.5-78.1z"/><path fill="#9d7b5b" d="M1933.6 808.6l-148.4 15.6L1621 683.6z"/><path fill="#bed2db" d="M1347.7 488.3l-148.5 289L1004 605.5z"/><path fill="#271410" d="M1418 425.8l187.5-15.6L1839.8 746z"/><path fill="#00060c" d="M652.3 285.2L504 605.5 269.5 707z"/><path fill="#a0653d" d="M1675.8 949.2l-414-93.7 273.4 179.7z"/><path fill="#9bb1bd" d="M1019.5 800.8l351.6 312.5-234.4-86z"/><path fill="#210600" d="M1425.8 1121l453.1-296.8-31.2 296.9z"/><path fill="#698ead" d="M918 504l-172 62.4 187.6-211z"/><path fill="#a59a9e" d="M543 808.6l156.2 39-23.4-156.2z"/><path fill="#c6eafa" d="M1121 355.5l-117 39 23.3-54.7z"/><path fill="#647482" d="M2027.3 214.8l-46.8-85.9-250 39z"/><path fill="#2e3141" d="M824.2 19.5L543 589.8 957 168z"/><path fill="#130602" d="M980.5 808.6l117.2 117.2-125-31.3z"/><path fill="#726251" d="M160.2 222.7l468.7-78.2-31.2-125z"/><path fill="#8eb9db" d="M1550.8 543l-140.6 218.7L1621 589.8z"/><path fill="#3f1a13" d="M777.3 832l-164-187.5 289-125z"/><path fill="#cad9db" d="M1285.2 300.8l101.5 39 39 78.2z"/><path fill="#b1c4cd" d="M472.7 629l-23.5 70.2 109.4-125z"/><path fill="#080c04" d="M629 183.6l164 281.2-31.3-445.3z"/><path fill="#837573" d="M1183.6-121L1043 254 754-121z"/><path fill="#db754e" d="M988.3 605.5L871 668l171.9 93.7z"/><path fill="#b5bdc0" d="M1043 925.8l-328.2-86 140.7 93.8z"/><path fill="#414a4e" d="M1121 722.7l336 117.1-461-31.2z"/><path fill="#726d65" d="M1988.3 425.8l-164 351.5 101.5 62.5z"/><path fill="#844958" d="M74.2 964.8L129 730.5l15.6 336z"/><path fill="#6f644f" d="M246 972.7L418 668 230.5 855.5z"/><path fill="#683d48" d="M574.2 457l117.2-93.7 70.3 296.9z"/><path fill="#996a3f" d="M629 847.7l664 171.8-257.8 101.6z"/><path fill="#00060b" d="M1410.2 355.5l148.4-15.7-281.3-70.3z"/><path fill="#835f60" d="M66.4 152.3l62.5 211L4 222.7z"/><path fill="#648eb1" d="M785.2 74.2l195.3 234.4-86 7.8z"/><path fill="#241a11" d="M1043 230.5h-78.2v281.2z"/><path fill="#7a8d9b" d="M441.4 1121l406.3-132.7-328.2-86z"/><path fill="#0d0007" d="M832 316.4l-23.4 156.3 86-54.7z"/><path fill="#324855" d="M543 496l-211-15.5-203-367.2z"/><path fill="#7d574d" d="M1214.8 496l-203-125 320.2 78.2z"/><path fill="#41301e" d="M2121 519.5L1152.4 89.8l968.8 148.5z"/><path fill="#c0d2db" d="M1285.2 707l-109.4 78.2-101.6-422z"/><path fill="#b75f4d" d="M1035.2 871l-179.7-7.7L793 761.7z"/><path fill="#291613" d="M1410.2 800.8l367.1-296.9-218.7 429.7z"/><path fill="#0d0000" d="M4 722.7l70.2-31.3 15.6-117.2z"/><path fill="#c6a59d" d="M1660.2 855.5l-62.5 70.3 23.4-78.1z"/><path fill="#a58e94" d="M1285.2 941.4l125-86-39.1 78.2z"/><path fill="#1e0504" d="M1425.8 1011.7l-156.3-109.4-117.2 31.3z"/><path fill="#241903" d="M293 847.7L199.2 1121l273.5-211z"/><path fill="#52473c" d="M1160.2 199.2L1714.8 379l39.1-156.2z"/><path fill="#8e826d" d="M113.3 847.7L293 628.9 97.7 722.7z"/><path fill="#015464" d="M800.8 191.4l257.8-242.2-78.1-70.3z"/><path fill="#000b0d" d="M2019.5 347.7l101.6 773.4L1918 972.7z"/><path fill="#abb3b2" d="M1152.3 918l-85.9-31.3 171.9-7.8z"/><path fill="#001d1e" d="M558.6 761.7L582 480.5l140.7 86z"/><path fill="#aea094" d="M1402.3 355.5L1230.5 668l117.2 62.5z"/><path fill="#031317" d="M246 160.2L332 293 261.7-11.7z"/><path fill="#937b84" d="M449.2 355.5h70.3l47-70.3z"/><path fill="#723227" d="M793 433.6L629 800.8 738.2 832z"/><path fill="#0f0c00" d="M27.3 183.6L-50.7 43l164-164z"/><path fill="#bde0ee" d="M1097.7 363.3l101.5-54.7-39-7.8z"/><path d="M1855.5 863.3h-101.6l-101.6-93.8z"/><path fill="#b1c1d1" d="M1629 1058.6l-218.8 54.7-304.7-171.9z"/><path fill="#a75465" d="M597.7 207l-31.3-86-15.6 125z"/><path fill="#0a090c" d="M699.2 308.6L457 378.9 355.5 527.3z"/><path fill="#0d1a1e" d="M261.7 394.5l289-117.2-23.4-187.5z"/><path fill="#392511" d="M543 613.3L605.5 793 457 746z"/><path fill="#0b131c" d="M136.7 597.7L410.2 371l-234.4 93.7z"/><path fill="#5a3200" d="M1527.3 972.7l-203 148.4 78-226.6z"/><path fill="#00010a" d="M-50.8 464.8l242.2-93.7-226.6 23.4z"/><path fill="#150a00" d="M621 949.2l125 171.9 8-86z"/><path fill="#894733" d="M1089.8 558.6H871.1l195.3-86z"/><path fill="#181b1d" d="M918 605.5L668 668l125 78z"/><path fill="#60767f" d="M355.5 714.8l86-101.5-62.6 156.2z"/><path fill="#6e726b" d="M1379 347.7l164 85.9 164-23.4z"/><path fill="#abbbc6" d="M847.7 871H691.4l-70.3-62.4z"/></g></svg>