<svg xmlns="http://www.w3.org/2000/svg" viewBox="0 0 256 128"><path fill="#534948" d="M0 0h256v128H0z"/><g fill-opacity=".5"><path fill="#cdd7e3" d="M133.5 130.5l1-89 76 33z"/><path fill="#d0b396" d="M39.5 93.5l43 50 141-3z"/><path fill="#09030f" d="M101.5 107.5l-64-72 63-40z"/><path fill="#252320" d="M271.5-3.5l-137-2 96 108z"/><path fill="#cbbbb9" d="M159.5 37.5l36 11-72 51z"/><path fill="#71382a" d="M80.5 61.5l152 71-114-18z"/><path fill="#c1c9cb" d="M-15.5 67.5l55-26-32 32z"/><path fill="#b2afa5" d="M57.5 43.5l-55 52 22 5z"/><path fill="#1b0f10" d="M36.5 143.5l-50-2 86-103z"/><path fill="#d4eef9" d="M137.5 52.5l40 36-30 11z"/><path fill="#99adbb" d="M148.5-3.5l-35 60-2-25z"/><path fill="#360e07" d="M222.5 62.5l22 81-63-37z"/><path d="M242.5 143.5l29-23-12-82zm-96-137l16 29-37 10z"/><path fill="#b9ab9f" d="M31.5-6.5l81-9-53 31z"/><path fill="#1b202c" d="M-15.5-15.5l68 30-68 64z"/><path fill="#7f6860" d="M234.5 56.5l-89-19-3 24z"/><path fill="#a7a49d" d="M37.5 103.5l34-31-23 37z"/><path fill="#da8064" d="M114.5 81.5l14-4 12 39z"/><path fill="#001018" d="M145.5 1.5l126 18-10-35z"/><path fill="#8595a7" d="M205.5 81.5l-31 24-6-67z"/><path fill="#591005" d="M141.5 69.5l-34 14 18-36z"/><path fill="#1b1018" d="M2.5 98.5l-17 25 113 20z"/><path fill="#0b0c1c" d="M3.5 89.5l62-53-43 19z"/><path fill="#372e2e" d="M169.5 125.5l-42-23 18-10z"/><path fill="#606c79" d="M137.5 3.5l42 17 41-7z"/><path fill="#7a98b6" d="M118.5 49.5l-27 26 28-14z"/><path fill="#7f5f51" d="M182.5 143.5l35-49 31 2z"/><path fill="#241d1e" d="M181.5 55.5l44 31-50-63z"/><path fill="#2c1712" d="M83.5 65.5l44 29-67-2z"/><path fill="#b9bac0" d="M127.5 42.5l8 18 9-13z"/><path fill="#09121a" d="M52.5 92.5l50-78-51 44z"/><path fill="#100808" d="M201.5 89.5l42 24-56-12z"/><path fill="#75766f" d="M253.5 59.5l-49-9 48 27z"/><path fill="#af5b50" d="M74.5 96.5l48-2 3 16z"/><path fill="#8798a6" d="M232.5 143.5l14-47-1 38z"/><path fill="#765536" d="M101.5 118.5l-74-3 12-17z"/><path fill="#667586" d="M221.5 21.5l50 8-27-13z"/><path fill="#925f62" d="M70.5 35.5v-31l9 11z"/><path fill="#84777b" d="M102.5-9.5l29 42 16-34z"/><path fill="#bbb7b2" d="M122.5 124.5l10-8-42-8z"/><path fill="#94673f" d="M129.5 143.5l20-17-91-24z"/><path fill="#193f56" d="M153.5 95.5l14 15v-15z"/><path fill="#bdced8" d="M173.5 60.5l-45 16 26 26z"/><path fill="#bdb8b5" d="M188.5 49.5l-44-8 19-4z"/><path fill="#000003" d="M271.5 114.5l-9-84-21 113z"/><path fill="#989a98" d="M35.5 63.5l-21 48-1-27z"/><path fill="#885f57" d="M157.5 39.5l19 28-44-16z"/><path fill="#281b16" d="M135.5 27.5l-12 4v31z"/><path fill="#140e00" d="M39.5 109.5l18 7-25 27z"/><path fill="#a59296" d="M75.5 98.5l12-10 2 14z"/><path fill="#68567d" d="M75.5 55.5l9 12 4-25z"/><path fill="#014d68" d="M104.5 29.5l-1-15 27-22z"/><path fill="#676462" d="M27.5 31.5l-28-7 54-4z"/><path fill="#2e251b" d="M271.5 62.5l-8-37-85 18z"/><path fill="#28120c" d="M89.5 100.5l20-26-11 33z"/><path fill="#2a0f01" d="M242.5 104.5l-12 39-46-1z"/><path fill="#59616e" d="M174.5 95.5l1-25 14 3z"/><path fill="#89a5b8" d="M142.5 110.5l6 16-22-26z"/><path fill="#a8a6a5" d="M169.5 103.5l-12 12h-11z"/><path fill="#160e10" d="M146.5 119.5l27-11-12 16z"/><path fill="#22242d" d="M115.5 53.5l-127-16 100-20z"/><path fill="#b8a59a" d="M180.5 48.5l-9 46-14-13z"/><path fill="#b5c2d5" d="M136.5 119.5l30 6 18 18z"/><path fill="#6f95c3" d="M104.5 15.5l10 25 9-2z"/><path fill="#cdb4c4" d="M170.5 112.5l6 4-6 3z"/><path fill="#53463c" d="M243.5 54.5l-19-27-67 1z"/><path fill="#ac2445" d="M9.5 108.5l16 35h-12z"/><path fill="#7c595d" d="M17.5 49.5l-20-21 11-8z"/><path fill="#753633" d="M95.5 101.5l-12-11 21-44z"/><path fill="#4f2600" d="M161.5 123.5l46 12-24-18z"/><path fill="#4c697e" d="M52.5 52.5l21-15-40 14z"/><path fill="#ccd9df" d="M130.5 51.5l31 18-13 8z"/><path fill="#090a08" d="M97.5 29.5l1-29-28 35z"/><path fill="#24191c" d="M18.5 2.5l2 37-36-52z"/><path fill="#6c1313" d="M226.5 95.5l22-13-21-10z"/><path fill="#64777f" d="M44.5 92.5l12-13-6 15z"/><path fill="#937459" d="M245.5 103.5l-35-14 17 15z"/><path fill="#081a1f" d="M80.5 62.5l-16 37 27-15z"/><path fill="#18181c" d="M140.5 119.5l-13-5-5-15z"/><path fill="#23241b" d="M182.5 16.5l-40-5-5 34z"/><path d="M49.5 76.5l4 7-26 9z"/><path fill="#7699bb" d="M183.5 94.5l23-20-24-17z"/><path fill="#94928f" d="M3.5 75.5l39-33-58 23z"/><path fill="#000b16" d="M-15.5 52.5v13l45-20z"/><path fill="#95838b" d="M33.5 124.5l-1-14-4 19z"/><path fill="#5b6570" d="M59.5 115.5l32 10-30 18z"/><path fill="#36262e" d="M129.5 32.5l-50-36 17-11z"/><path fill="#d56844" d="M119.5 90.5l11-14-20 9z"/><path fill="#000d16" d="M198.5 40.5l-14 6-17-9z"/><path fill="#4e1d0d" d="M151.5 43.5l-9 13v-9z"/><path fill="#00475c" d="M9.5 5.5l10 8 23-10z"/><path fill="#2e1515" d="M214.5 83.5l-38 21 20 13z"/><path fill="#acbac3" d="M146.5 138.5l-33 5-27-23z"/><path fill="#572729" d="M.5 99.5l16-36 6 11z"/><path fill="#080d10" d="M31.5 17.5l1-20 10 39z"/><path fill="#153866" d="M109.5 37.5l5-6-15-21z"/><path fill="#02131b" d="M10.5 100.5l-22 5 18 38z"/><path fill="#030000" d="M111.5 51.5l-5-10-1 16z"/><path fill="#c0aab0" d="M213.5 109.5l-4 6-2-8z"/></g></svg>