<svg xmlns="http://www.w3.org/2000/svg" viewBox="0 0 400 200"><path fill="#514946" d="M0 0h400v200H0z"/><g fill-opacity=".5"><path fill="#c5c9cf" d="M224.2 47.7L182 224.2l143.8-104.7z"/><path fill="#c8ae8f" d="M72.7 147.7l40.6 75 221.9-4.7z"/><path fill="#0a050c" d="M158.6 172.7L58.6 49.2 160.2-3.9z"/><path fill="#1b1f1a" d="M393-24.2l-206.3 75L424.2 96z"/><path fill="#dbf3fc" d="M222.7 143l-17.2-76.6 75 87.5z"/><path fill="#6b3423" d="M341.4 211.7l-176.6-39L121.1 82z"/><path fill="#310b01" d="M280.5 166.4l96.8 50L350.8 93z"/><path fill="#bcbcb4" d="M82 79l-65.6 56.2 6.3 31.2z"/><path fill="#bcc8cc" d="M-10.2 97.7l15.7 21.8L57 68z"/><path fill="#0e0204" d="M13.3 224.2L-24.2 143l128.1 43.7z"/><path fill="#bdb3af" d="M289.8 72.7l-45.3-17.2-11 107.8z"/><path fill="#98aeb8" d="M174.2 54l6.3 35.8 50-96.8z"/><path d="M404 68l-25 156.2 45.2-3.1z"/><path fill="#08080d" d="M118 102.3l28-96.8L19.6 182z"/><path fill="#b7ae9f" d="M94.5 24.2L64.8 2.3l90.7-14z"/><path fill="#141d27" d="M-24.2-16.4L75.8 18 3.9 96z"/><path fill="#000400" d="M232 7l-34.3 64 57.8-15.5z"/><path fill="#000a12" d="M424.2 30.5l-48.4-54.7L230.5 2.3z"/><path fill="#7d5144" d="M252.3 63.3l23.5 39-73.5-21.8z"/><path fill="#4b0d00" d="M197.7 119.5l-11-48.4 37.5 36z"/><path fill="#b46751" d="M188.3 114.8l31.2 31.3-90.6 62.5z"/><path fill="#21150f" d="M193 144.5L121 104l-28 42.2z"/><path fill="#00000e" d="M16.4 135.2l56.3-56.3-32.9 9.4z"/><path fill="#9b9f98" d="M88.3 158.6l-26.6 6.2 53.1-56.2z"/><path fill="#749ebf" d="M288.3 93l32.8 32.8-45.3 36z"/><path fill="#2b0909" d="M375.8 118l-7.8 34.3-76.6-62.5z"/><path fill="#90635b" d="M361.7 175.8L299.2 207l25-40.6z"/><path fill="#36444e" d="M236.7 175.8l46.9-29.7-95.3 12.5z"/><path fill="#b8c1cb" d="M221 71l-10.8 25-7.9-28z"/><path fill="#c6dae1" d="M238.3 158.6l-21.9-67.2 51.6 14z"/><path fill="#617384" d="M296 11.7L347.8 32l-92.2-9.3z"/><path fill="#6d96b5" d="M143 118l37.5-37.5 6.2 15.6z"/><path fill="#9a7a56" d="M325.8 143l39 23.4 15.7-12.5z"/><path fill="#866a4c" d="M97.7 224.2L274.2 207 79 160.2z"/><path fill="#b3cace" d="M168 185.2L141.4 168l59.4 14z"/><path fill="#bcb1b0" d="M139.8 157l-23.4-6.2 20.3-7.8z"/><path fill="#677584" d="M405.5 43l18.7-18.8-73.4 9.4z"/><path fill="#21160e" d="M205.5 166.4l-25 6.3 36 12.5z"/><path fill="#827677" d="M149.2-24.2l59.4 75 20.3-61z"/><path fill="#054d65" d="M163.3 19.5l-4.7 31.3 46.9-59.4z"/><path fill="#869ba6" d="M385.2 193L368 211.7l15.6-61z"/><path fill="#93b5c7" d="M246 200.8l-42-40.6 10.8 23.4z"/><path fill="#ab9e98" d="M252.3 55.5L282 72.7 269.5 168z"/><path fill="#825f5d" d="M113.3 50.8l-4.7-64 18.7 42.1z"/><path fill="#958a7c" d="M25.8 130.5l-6.3 45.3 53.2-75z"/><path fill="#7b2e1d" d="M130.5 147.7l20.3 20.3v-61z"/><path fill="#09070a" d="M269.5 196l-11-20.2-29.6 11z"/><path fill="#250d00" d="M377.3 164.8l-93.7 59.4 82.8-15.6z"/><path fill="#46476a" d="M132 104l-23.4-1.7L141.4 54z"/><path fill="#a8cddf" d="M222.7 111.7l23.4 54.7-43.8-43.7z"/><path fill="#000202" d="M397.7 119.5l20.3 100-40.7 4.7z"/><path fill="#84595d" d="M11.7 22.7L7 47.7l22 32.8z"/><path fill="#2f1e0a" d="M89.8 152.3l29.7 4.7-15.6-29.7z"/><path fill="#231d17" d="M188.3 86.7l6.2-40.6 25 6.2z"/><path fill="#6d6870" d="M121 50.8l-9.3 15.6-28.1 7.8z"/><path fill="#af9ca5" d="M266.4 177.3l12.5 9.4h-20.3z"/><path fill="#1c100d" d="M175.8 83.6l-39-43.8-6.3-60.9z"/><path fill="#301116" d="M24.2 130.5l15.6-40.7-59.3 70.4z"/><path fill="#170c0d" d="M333.6 127.3L293 155.5l25 29.7z"/><path fill="#5e8cb2" d="M186.7 50.8l-21.9-25 26.6 61z"/><path fill="#142d35" d="M14.8 86.7L57 39.8l17.2 11z"/><path fill="#091013" d="M57 133.6l26.6 7.8 36-50z"/><path fill="#1d1b14" d="M218 19.5l1.5 51.6 39-48.4z"/><path fill="#758999" d="M97.7 180.5l65.6 15.6-48.5 28.1z"/><path fill="#625947" d="M54 157l-12.6 53.2 50-90.7z"/><path fill="#000a14" d="M71 54L57 77.2l73.5-29.6z"/><path fill="#000001" d="M58.6 152.3L32 208.6l-1.5-29.7z"/><path fill="#00070e" d="M280.5 72.7l-18.8-18.8 48.5 18.8z"/><path fill="#572117" d="M166.4 130.5l31.3-56.3 21.8 34.4z"/><path fill="#4e4235" d="M261.7 22.7l-39 31.2 146.8 7.8z"/><path fill="#72878e" d="M391.4 125.8l4.7-36-15.6 23.5z"/><path fill="#d0734c" d="M199.2 121l4.7 39.2-23.4-34.4z"/><path fill="#496273" d="M64.8 83.6l-25-71.9-6.2 26.6z"/><path fill="#aa1c39" d="M11.7 224.2l7.8-48.4 9.4 26.5z"/><path fill="#aebbcc" d="M269.5 199.2l-34.3-9.4L243 207z"/><path fill="#191719" d="M177.3 154l-26.5-15.7L171 107z"/><path fill="#5f798f" d="M304 105.5l-23.5-20.3-7.8 67.1z"/><path fill="#7f5027" d="M318 193l-7.8 31.2-56.3-68.7z"/><path fill="#4c2718" d="M205.5 158.6l21.8-14-6.2 31.2z"/><path fill="#0f0b00" d="M16.4 11.7l-32.8 48.5L7-24.2z"/><path fill="#718389" d="M49.2 105.5L68 107l25-39z"/><path fill="#4d1d04" d="M229 69.5l-8 14 22-18.7z"/><path fill="#210000" d="M214.8 85.2v-6.3l-9.3-3.1z"/><path fill="#a5adb0" d="M274.2 163.3L246.1 132 268 96z"/><path fill="#8a795b" d="M60.2 32l6.2 11 36-14z"/><path fill="#29161b" d="M147.7 4L166.4.7l25 37.5z"/><path fill="#996f46" d="M174.2 205.5l-59.4-40.7L254 205.5z"/><path fill="#cff1fc" d="M219.5 77.3l-9.3-9.3 9.3 17.2z"/><path fill="#b36c7d" d="M164.8 85.2L157 97.7l3.2-28.2z"/><path fill="#323027" d="M369.5 111.7L279 71.1l21.9 29.7z"/><path fill="#805f5a" d="M279 86.7l-33 14-21.8-12.4z"/><path fill="#8b7864" d="M-14.8 158.6l54.6-6.3-20.3-15.6z"/><path fill="#c2d7e5" d="M147.7 174.2l-9.4-9.4h-12.5z"/><path fill="#004152" d="M8.6 10.2L71 5.5 41.4 21z"/><path fill="#cd7c5a" d="M182 172.7l7.8-12.5 6.3 10.9z"/><path fill="#001719" d="M141.4 132l-28.1 7.8 1.5-48.4z"/><path fill="#000003" d="M174.2 82l-12.5 17.2L168 68z"/><path fill="#1e110e" d="M204 182l7.7-4.7-21.9-21.8z"/><path fill="#1e0200" d="M279 185.2l-12.6 7.8 25 20.3z"/><path fill="#150a02" d="M124.2 189.8l53.1 34.4h-29.6z"/></g></svg>