<svg xmlns="http://www.w3.org/2000/svg" viewBox="0 0 400 200"><path fill="#909b99" d="M0 0h400v200H0z"/><path fill="#002931" fill-opacity=".5" d="M-26.6 58.6l14.4-26 165.4 91.7-14.4 26z"/><path fill="#fff" fill-opacity=".5" d="M134.2 177.7L-20.4 98.9l12.8-25 154.5 78.7z"/><path fill="#99e7ff" fill-opacity=".5" d="M232.4-75.5l127.3 95.9-68.7 91-127.2-95.8z"/><path fill="#03323b" fill-opacity=".5" d="M1.6 126l164.2 73.2-15.9 35.7-164.1-73.1z"/><path fill="#1f0300" fill-opacity=".5" d="M311 204.5l-7-15.7 142.8-63.6 7 15.7z"/><path fill="#fff" fill-opacity=".5" d="M7.4 5.1l220 137.5-8.3 13.2L-.9 18.4zm209.3 177.4l19.9-31.8 79.5 49.6-19.9 31.8z"/><path fill="#003137" fill-opacity=".5" d="M108.7 62.7l10-16L271 142l-10 15.9z"/><path fill="#fff" fill-opacity=".5" d="M91 11.5l7-10.2L260.7 115l-7.1 10.2z"/><path fill="#272a1a" fill-opacity=".5" d="M126.1 50.1l-10.5 17.4-68.3-41L57.8 9z"/><path fill="#70c2ea" fill-opacity=".5" d="M392.9-87.4l54.3 102.1-157.3 83.6-54.3-102z"/><path fill="#313428" fill-opacity=".5" d="M168.6 221.1l-26.5-1.8 6.5-92 26.5 1.9z"/><path fill="#062828" fill-opacity=".5" d="M284 133.6L126 18.7l7.3-10 158 114.7z"/><path fill="#806358" fill-opacity=".5" d="M440.4 98L289 165.5l-24.8-55.6 151.3-67.4z"/><path fill="#fff" fill-opacity=".5" d="M70.2 225.8l-81.7-31.3 8.4-21.9L78.6 204z"/></svg>