<svg xmlns="http://www.w3.org/2000/svg" viewBox="0 0 400 200"><path fill="#909b99" d="M0 0h400v200H0z"/><path fill="#002b36" fill-opacity=".5" d="M168.7 132.5l-13.3 24.8-160-85 13.2-25z"/><path fill="#fff" fill-opacity=".5" d="M-3.8 77.5l148.9 72.6-11.6 24-149-72.7z"/><path fill="#93e2ff" fill-opacity=".5" d="M169 19.1l89.4-118.5L391.9 1.2l-89.3 118.5z"/><path fill="#00303b" fill-opacity=".5" d="M177.2 205.3l-15.3 34.2-181.3-80.7L-4 124.5z"/><path fill="#fff" fill-opacity=".5" d="M92.4 52.4L300.9 193l-10.5 15.6L82 67.9z"/><path fill="#002a2e" fill-opacity=".5" d="M255.6 157.3L46 21.2l9.3-14.5L265 143z"/><path fill-opacity=".5" d="M310.5 189.8l100.7-42.7 4.9 11.5-100.7 42.7z"/><path fill="#fffff5" fill-opacity=".5" d="M94.4-2l155.4 113-8.2 11.3L86 9.3z"/><path fill="#fff" fill-opacity=".5" d="M-22.9-14.5L158 103l-8.6 13.2L-31.4-1.4zm10.1 183.7L63.6 197l-11.8 32.3-76.3-27.8z"/><path fill="#896b60" fill-opacity=".5" d="M259.7 110.8l128.9-60.1 37.6 80.7-128.8 60.1z"/><path fill="#fffff8" fill-opacity=".5" d="M224 205l17.2-40.3 67.6 28.7-17.1 40.3z"/><path fill="#594539" fill-opacity=".5" d="M129.2 219.9l-19.8-39 59.8-30.5 19.9 39z"/><path fill="#08221e" fill-opacity=".5" d="M278.8 124.9L129 20l6.3-9L285 116z"/><path fill="#fff6eb" fill-opacity=".5" d="M132.6-7.8l8.5-11.3L290.8 93.8l-8.4 11.2z"/><path fill="#73bde0" fill-opacity=".5" d="M399-60.6l40.4 82.9-158.7 77.4-40.4-82.9z"/><path fill="#090000" fill-opacity=".5" d="M316.1 147.6l89.2-41.6 2 4.2-89.2 41.6z"/><path fill="#e8a057" fill-opacity=".5" d="M173.4 128.7l-4.2 6.6-84.8-53 4.2-6.6z"/><path fill="#fff" fill-opacity=".5" d="M277.7 177l-1.3-2.8 160-74.6 1.3 2.8z"/><path fill="#6d6a6f" fill-opacity=".5" d="M197.9 197.6l2.7-51.5 31.2 1.6-2.7 51.5z"/><path fill="#190000" fill-opacity=".5" d="M30 66.2l-8 18.7-50.4-21.4 8-18.7z"/><path fill="#fff" fill-opacity=".5" d="M419.4 173.8L299.8 215l-2-6 119.6-41.2z"/><path fill="#cc8d51" fill-opacity=".5" d="M23-31l235.8 159-5.3 7.7-235.7-159z"/><path fill="#fff9f1" fill-opacity=".5" d="M2.2 104.8l12-21.9 104 57.6-12.2 21.9z"/><path fill="#00789f" fill-opacity=".5" d="M26.8 86l5.3-9.6 127 70.4-5.2 9.6z"/><path fill="#fff" fill-opacity=".5" d="M232.5 107.7l4.4-6.4 38.4 27-4.4 6.3z"/><path fill="#474c42" fill-opacity=".5" d="M177 136.1l-10.5 66.4-17-2.7 10.5-66.4z"/><path fill="#0085aa" fill-opacity=".5" d="M108.7 51.3l108.7 67.9-5.8 9.2-108.7-67.9z"/><path fill="#fbb068" fill-opacity=".5" d="M119.2 176.3l-105.6-47 3.1-7.2 105.7 47z"/><path fill="#fffffc" fill-opacity=".5" d="M239 162l-.7-1.5 158.6-74 .7 1.4z"/><path fill="#2c1808" fill-opacity=".5" d="M250.7 154.3l-3.7-6.9 41.4-22 3.7 6.9z"/><path fill="#d49153" fill-opacity=".5" d="M71.7 80.4l-73-42.2 6.2-10.8 73 42.2z"/><path fill="#4c2600" fill-opacity=".5" d="M.6 130.3l2.9-5.6 97.4 49.7-2.8 5.6z"/><path fill="#080200" fill-opacity=".5" d="M487.2 39.4l.7 1.4-179.8 83.9-.7-1.4z"/><path fill="#734625" fill-opacity=".5" d="M44.5 24l10-16 46.3 29-10 16z"/><path fill="#3b2c14" fill-opacity=".5" d="M362.5 124.3l2.7 5.6-95 44.3-2.6-5.7z"/><path fill="#005d7e" fill-opacity=".5" d="M-43.5 142.5l118 36-4.5 15-118-36.1z"/><path fill="#e2d9d0" fill-opacity=".5" d="M286.5 67.2l-24.8 34L221.3 72 246 37.8z"/><path fill="#7eb6ce" fill-opacity=".5" d="M92.8 181.3l-2 4.3-113.3-52.9 2-4.2z"/><path fill="#fffdf8" fill-opacity=".5" d="M203.7 76.2l-6.3 9L54.1-15.3l6.3-9z"/><path fill="#fff" fill-opacity=".5" d="M113.1 217.5l-3.4 8.8-118.1-45.4 3.3-8.7z"/><path fill="#88582c" fill-opacity=".5" d="M108.6 10.3L121.5-13 146 .7l-12.9 23.2z"/><path fill="#fdefe5" fill-opacity=".5" d="M83.3 69.7L3.8 20.1 12 6.8l79.5 49.7z"/><path fill="#d59f6c" fill-opacity=".5" d="M276.6 113L113-10.2l5.6-7.5 163.5 123.2z"/><path fill="#fff0e6" fill-opacity=".5" d="M235.1 203.4l-4.4-35.6 32.6-4 4.4 35.6z"/><path fill="#774f2a" fill-opacity=".5" d="M51.1 75.9l-88.5-43.2 3.5-7 88.4 43.1z"/><path fill="#4c311d" fill-opacity=".5" d="M306.4 189.7l50-22.2 4.4 10-50 22.2z"/><path fill="#fff9ee" fill-opacity=".5" d="M116.4 78l105.5 61-5.5 9.5-105.5-61z"/><path fill="#251a15" fill-opacity=".5" d="M263 139.6l-7.8 15.3-29.2-14.8 7.8-15.4z"/><path fill="#472d2b" fill-opacity=".5" d="M403.6 182l1.6 4.3-57.2 20.9-1.7-4.5z"/><path fill="#472f10" fill-opacity=".5" d="M178 142.4l-4.2 6.7-69-43.1 4.2-6.6z"/><path fill="#a7d8f5" fill-opacity=".5" d="M52.3-16.5L62.7-5l-29 26.1L23.2 9.6z"/><path fill="#858589" fill-opacity=".5" d="M232.5 199.5l-62.5 1-1-54.6 62.5-1.1z"/><path fill="#c3cad2" fill-opacity=".5" d="M121.6 57.7l2.5-3.9 18.4 12-2.6 3.8z"/><path fill="#2fa7c5" fill-opacity=".5" d="M246.2 103.7l-.9 1.3-108.7-79 1-1.3z"/><path fill="#ce9d66" fill-opacity=".5" d="M195.4 139.3l-4.8 8-37.5-22.5 4.8-8z"/><path fill="#ad8967" fill-opacity=".5" d="M101.3 19.7l-10 16-41-25.7 10-16z"/><path fill="#b7a18c" fill-opacity=".5" d="M270 121.2l25.2-8.7 5 14.8-25 8.6z"/><path fill="#fff5ed" fill-opacity=".5" d="M124.4 167.8l-2.8-12.1 27.4-6.4 2.8 12.2z"/><path fill="#71655b" fill-opacity=".5" d="M90 188.6l59.4-27.8 18.5 39.7-59.5 27.7z"/><path fill="#beaa9f" fill-opacity=".5" d="M256.9 161.6l71-36.2 4.3 8.3-71 36.2z"/><path fill="#68abc9" fill-opacity=".5" d="M229 1.2l-23.4 31.2L163 .4l23.5-31.2z"/><path fill="#87c3dc" fill-opacity=".5" d="M446.3-38L468.2-.3 339.6 74l-21.8-37.9z"/><path fill="#3c2200" fill-opacity=".5" d="M30.4 58.1l.7-1.4 74.5 43-.8 1.4z"/><path fill="#412709" fill-opacity=".5" d="M92.4 28l149 100.5-1 1.3-149-100.5z"/><path fill="#3f2a1d" fill-opacity=".5" d="M424.7 158.3l-64.1 24.6-5.6-14.6 64.1-24.6z"/><path fill="#fffdf5" fill-opacity=".5" d="M316.2 161l-1.3-2.8 104.8-48.9 1.3 2.8z"/><path fill="#fff7ef" fill-opacity=".5" d="M260.3 126.3L162 59.9l4.3-6.5 98.5 66.4z"/><path fill="#fff7ee" fill-opacity=".5" d="M150.7-.7l2-2.4L279 99l-2 2.5z"/><path fill="#f0ded3" fill-opacity=".5" d="M329 208.4L319 226l-84-48.5 10.2-17.5z"/><path fill="#b79c7c" fill-opacity=".5" d="M15.1 145.8l-29.7-1 1-29.7 29.7 1z"/><path fill="#4f493c" fill-opacity=".5" d="M473.6 76.7l2.5 5.8-151.3 67.3-2.5-5.7z"/><path fill="#fff9ec" fill-opacity=".5" d="M343 211.2l111.5-36.3 1 3L344 214.1z"/><path fill="#c2a27c" fill-opacity=".5" d="M179 130l-3.3 5.4-75-45.1 3.3-5.4z"/><path fill="#fffcfc" fill-opacity=".5" d="M213.3 143.5l-40.5 3.6-.1-1.6L213 142z"/><path fill="#acbec8" fill-opacity=".5" d="M208.5 65.3l11 .7-1.5 20.3-10.9-.8z"/><path fill="#f9f3ed" fill-opacity=".5" d="M107.7 162l12.1-23.7 20.9 10.7-12 23.6z"/><path fill="#ccc4bf" fill-opacity=".5" d="M457 28l.8 1.4L310.2 108l-.8-1.4z"/><path fill="#42afd3" fill-opacity=".5" d="M95.6 46l14.5 9.1-4.1 6.7-14.6-9.1z"/><path fill="#393227" fill-opacity=".5" d="M254 153.1l-.8-1.4 147.6-75.1.7 1.3z"/><path fill="#b29f95" fill-opacity=".5" d="M123.9 146.5l-.7 1.4-139.3-71 .8-1.3z"/><path fill="#307d95" fill-opacity=".5" d="M63.8 169.4l33.5 13-9.5 24.7-33.6-12.9z"/><path fill="#73b1cb" fill-opacity=".5" d="M266.6-16l37.9 21.9-32 55.4-38-21.8z"/><path fill="#d6e8ee" fill-opacity=".5" d="M253.8 18.8l-20.7 7-4-11.7 20.6-7.2z"/><path fill="#167a92" fill-opacity=".5" d="M78.7 95.6l85.7 51.5-7.2 12-85.7-51.5z"/><path fill="#716669" fill-opacity=".5" d="M448 17.2l5.2 9.6-143.5 76.3-5.1-9.6z"/><path fill="#7cb2c8" fill-opacity=".5" d="M320.3 71.5L290 105.2l-24.4-22L296 49.5z"/><path fill="#d8af83" fill-opacity=".5" d="M23.7 48.1l3.2-5.3 116.6 70-3.3 5.4z"/><path fill="#62524a" fill-opacity=".5" d="M141.7 71.2l2.7-3.9 84.2 56.8-2.7 3.9z"/><path fill="#222726" fill-opacity=".5" d="M93.2 48.7l-3.6 5.1-28.1-19.7L65 29z"/><path fill="#3e362a" fill-opacity=".5" d="M261 106.3h29.6v7.8H261z"/><path fill="#1d353c" fill-opacity=".5" d="M162.4 39l-.9 1.3-50.5-34 1-1.3z"/><path fill="#c5e5f6" fill-opacity=".5" d="M270 81.8L234.5 54l9.6-12.3 35.7 28z"/><path fill="#7c99a9" fill-opacity=".5" d="M77.5 97.4l-48.7-28 1.5-2.8L79 94.7z"/><path fill="#008db8" fill-opacity=".5" d="M228 134.5l-27.7-14.7 1.5-2.7 27.6 14.6z"/><path fill="#c7c2c0" fill-opacity=".5" d="M72.2-16.6L227.1 92l-.9 1.2L71.3-15.3z"/><path fill="#ccccca" fill-opacity=".5" d="M190.1 118l.9-1.2 64.2 41.7-.9 1.3z"/><path fill="#513f1e" fill-opacity=".5" d="M168 38.5l-34-24.8 2.8-3.8 34 24.8z"/><path fill="#175b6f" fill-opacity=".5" d="M-5.4 167.7L3 147.6l63.3 26.9-8.6 20z"/><path fill="#766b6b" fill-opacity=".5" d="M364.4 142.7l61.4-27.4L434 134l-61.3 27.3z"/><path fill="#ecd8d1" fill-opacity=".5" d="M437.1 168l-138.9 48-2.5-7.4 138.9-47.8z"/><path fill="#626c72" fill-opacity=".5" d="M44 26.4l-5.5-5.6 47.2-45.6 5.5 5.6z"/><path fill="#422300" fill-opacity=".5" d="M96 178.2l3-7.2 12.9 5.5-3 7.2z"/><path fill="#1a1500" fill-opacity=".5" d="M-6.8 125.1l.6-1.4 27.1 12-.6 1.5z"/><path fill="#d7b590" fill-opacity=".5" d="M133.5 45.2l-4.5 6.4L86.8 22l4.5-6.4z"/><path fill="#fdebde" fill-opacity=".5" d="M92.6 154.7L-26.8 96.5l1.4-2.8L94 151.9z"/><path fill="#6b645b" fill-opacity=".5" d="M80.5 221.4l-9.4-16.2 81.2-47 9.4 16.3z"/><path fill="#483920" fill-opacity=".5" d="M114 111L47.7 72.7l2.4-4 66.3 38.3z"/><path fill="#cba57b" fill-opacity=".5" d="M112 177l-49-24 4.8-9.7 49.1 24z"/><path fill="#03090d" fill-opacity=".5" d="M270 123.5l-2.8-5.6 11.3-5.5 2.7 5.6z"/><path fill="#78aaba" fill-opacity=".5" d="M-.5 3.4l11-20.7 29 15.4-11 20.7z"/><path fill="#c09f7b" fill-opacity=".5" d="M261 137.2l-91.7-59.6 2.5-3.9 91.7 59.6z"/><path fill="#868a8d" fill-opacity=".5" d="M172.5 146.4l57.8 1-1.2 70.3-57.8-1z"/><path fill="#7f9aa5" fill-opacity=".5" d="M141 132L53.5 83.5l.8-1.4 87.5 48.5z"/><path fill="#9a918d" fill-opacity=".5" d="M367.4 163l-68 27.5-5.9-14.5 68-27.5z"/><path fill="#151204" fill-opacity=".5" d="M25.5 79.7l-4.8 6.1-25.9-20.2 4.8-6.1z"/><path fill="#f4ede8" fill-opacity=".5" d="M194.5 20.6l-16.3 5.3-2.4-7.4 16.3-5.3z"/><path fill="#fff4e8" fill-opacity=".5" d="M280.5 108.3L279 97.5l7.7-1.1 1.5 10.8z"/><path fill="#06536c" fill-opacity=".5" d="M266.4 117.5l-48.6-34 1.7-2.6 48.7 34z"/><path fill="#ac8d71" fill-opacity=".5" d="M-17.6 24l52 17-5.8 17.8-52-17z"/><path fill="#f7efe8" fill-opacity=".5" d="M9.3 26l-22.5-11 5.5-11.3 22.5 11z"/><path fill="#907c62" fill-opacity=".5" d="M164.4 63.4l105 73.5-1 1.3-105-73.5z"/><path fill="#7c6f65" fill-opacity=".5" d="M272.7 130l-.7-1.4 113-60.1.7 1.3z"/><path fill="#f2e6d8" fill-opacity=".5" d="M304.2 105.6l.8 1.4-38.9 23.3-.8-1.3z"/><path fill="#15718d" fill-opacity=".5" d="M142.2 27.3l74.3 52-1 1.2-74.2-52z"/><path fill="#e8d6c9" fill-opacity=".5" d="M228.8 166.6l87-42.4.7 1.4-87 42.4z"/><path fill="#f7f1ec" fill-opacity=".5" d="M32.5 95l-2.2 4.2-33.1-17.7 2.2-4z"/><path fill="#f8ebe4" fill-opacity=".5" d="M243.6 213.5L230 149.3l9.2-1.9 13.6 64.2z"/><path fill="#27323a" fill-opacity=".5" d="M161.7 36.8l88.5 64.2-1 1.3L160.9 38z"/><path fill="#f6e7da" fill-opacity=".5" d="M318.4 157.8L268.8 181l-1.3-2.8 49.6-23.1z"/><path fill="#f4ebe7" fill-opacity=".5" d="M399.2 82.8l.8 1.4-41.4 22-.8-1.4z"/><path fill="#a29184" fill-opacity=".5" d="M273.6 126.8l53.4-26 4 8.4-53.3 26z"/><path fill="#a38865" fill-opacity=".5" d="M113.6 91.5l-.8 1.3-62.3-39 .8-1.3z"/><path fill="#fffffb" fill-opacity=".5" d="M65.1 208.7L2.4 184.6l2.8-7.3 62.7 24z"/><path fill="#c99a64" fill-opacity=".5" d="M27.5 137.6l-33.4-17 5-9.8 33.4 17z"/><path fill="#84746c" fill-opacity=".5" d="M316.9 200.7l54.7-23.2.6 1.5-54.7 23.2z"/><path fill="#bba07f" fill-opacity=".5" d="M126.8-14.4l21 18.8L137.2 16l-21-18.8z"/><path fill="#58473a" fill-opacity=".5" d="M279.7 118.2l-.6-1.4L315.6 99l.7 1.4z"/><path fill="#534028" fill-opacity=".5" d="M182 44.9l.9-1.3 96 72.4-.9 1.3z"/><path fill="#a88879" fill-opacity=".5" d="M-2 187.4l37.4 16-.6 1.3L-2.6 189z"/><path fill="#45463e" fill-opacity=".5" d="M165.4 242l6.7-95h1.5l-6.6 95.1z"/><path fill="#fff" fill-opacity=".5" d="M151.2 155.6l-1.5 2.7-18-9.2 1.4-2.8z"/><path fill="#f7eadf" fill-opacity=".5" d="M75.1 1.3L83-12.2 104.6.3l-7.8 13.5z"/><path fill="#1284a0" fill-opacity=".5" d="M100.6 58.5l3.4-5.2 56.3 36.6L157 95z"/><path fill="#504235" fill-opacity=".5" d="M304.2 184.4l28 1.5-.4 9.4-28.1-1.5z"/><path fill="#0a728d" fill-opacity=".5" d="M27.5 70.3l63 37.8-.8 1.3-63-37.8z"/><path fill="#a5cddc" fill-opacity=".5" d="M244 43.9l-27.3 6.8-6-24.3 27.3-6.8z"/><path fill="#7ea8c0" fill-opacity=".5" d="M-11 129.4l27.2 7.3-3.7 13.6-27.1-7.3z"/><path fill="#3b2d15" fill-opacity=".5" d="M309 155.2l-37.8 14.5-.6-1.4 38-14.6z"/><path fill="#c8a77c" fill-opacity=".5" d="M130.8 47.8l3.7-5L192.6 85l-3.6 5z"/><path fill="#0b809e" fill-opacity=".5" d="M224.2 134.9L103.7 53.6l1.8-2.6L226 132.3z"/><path fill="#b09777" fill-opacity=".5" d="M197.5 141.7L68.9 67.5l.8-1.4 128.6 74.2z"/><path fill="#625b56" fill-opacity=".5" d="M305.8 102.9L470 19.2l.7 1.4-164.3 83.7z"/><path fill="#5e492e" fill-opacity=".5" d="M-10.4 53l8.2-9.4 23.6 20.5-8.2 9.5z"/><path fill="#f4efed" fill-opacity=".5" d="M59.6 119l64.2 35.6L117 167l-64.2-35.6z"/><path fill="#ece6e0" fill-opacity=".5" d="M53.4 52.8l-61.6-37L-1.8 5l61.6 37z"/><path fill="#846c56" fill-opacity=".5" d="M310.7 163.7l4 8.5-27 12.5-4-8.5z"/><path fill="#81b9d0" fill-opacity=".5" d="M269.3 39.5L347-7.2l32.2 53.6-77.7 46.7z"/><path fill="#02080f" fill-opacity=".5" d="M235.6 140.6l-11.5-4.9 1.2-2.9 11.5 5z"/><path fill="#e9e0d9" fill-opacity=".5" d="M298.8 111.7l-.7-1.4 89-45.4.8 1.4z"/><path fill="#d4b493" fill-opacity=".5" d="M205.7 57.7L128.3-.6l2-2.5 77.3 58.3z"/><path fill="#694f35" fill-opacity=".5" d="M256.2 130.9l19 7.3-1.7 4.3-19-7.2z"/><path fill="#a58e74" fill-opacity=".5" d="M280.5 105.9l-.9 1.2-89.8-67.7.9-1.2z"/><path fill="#947a5a" fill-opacity=".5" d="M83.1 33.6L48.7 12.1l4.1-6.6L87.3 27z"/><path fill="#f3e7db" fill-opacity=".5" d="M271.3 132.6l-.8 1.3-77.8-52.4 1-1.3z"/><path fill="#a1988f" fill-opacity=".5" d="M355.2 124.8l.6 1.4-75 35-.7-1.4z"/><path fill="#bdb5ac" fill-opacity=".5" d="M-50.5-34.5l.9-1.3L70.8 45.4l-.8 1.3z"/><path fill="#a8988c" fill-opacity=".5" d="M123.7 146.4l17.4 10.5-.8 1.3-17.4-10.4z"/><path fill="#ebded7" fill-opacity=".5" d="M262 167.7l33 17.6-24.1 45.5-33.2-17.6z"/><path fill="#5f5455" fill-opacity=".5" d="M415.7 54.4l.7 1.4-33.7 16.4-.7-1.4z"/><path fill="#6dadc6" fill-opacity=".5" d="M233.2 18.7L202 29l-15-46 31.3-10.2z"/><path fill="#2f2b16" fill-opacity=".5" d="M103.5 173.3l-3 7.2L73 168.9l3-7.2z"/><path fill="#544533" fill-opacity=".5" d="M44.7 23.3l5-7.8 19.7 12.7-5 7.9z"/><path fill="#f8ffff" fill-opacity=".5" d="M-3.2 77l133.7 68-.7 1.5L-4 78.4z"/><path fill="#5a5b5a" fill-opacity=".5" d="M128.9 118.7l-1.6 2.7L7.1 54.8 8.6 52z"/><path fill="#f3ede7" fill-opacity=".5" d="M167.2 120.2l-107.4-67 5.8-9.3 107.4 67z"/><path fill="#6c6561" fill-opacity=".5" d="M313.3 162.5l80.6-34.2.6 1.4-80.6 34.2z"/><path fill="#3f341a" fill-opacity=".5" d="M177.5 140.7l-.8 1.4-43.3-25 .8-1.4z"/><path fill="#2a2b1c" fill-opacity=".5" d="M26.9 68.5l-3.9-5L34 55l4 5z"/><path fill="#61696f" fill-opacity=".5" d="M95.3 36.6l29.1 18.2-2.5 4-29.1-18.3z"/><path fill="#ceaa7f" fill-opacity=".5" d="M186.9 136l-3 5.4-41-22.7 3-5.5z"/><path fill="#a28c7e" fill-opacity=".5" d="M316.6 91l2.7 7.3-25 9.1-2.6-7.3z"/><path fill="#0c110e" fill-opacity=".5" d="M266.2 138.7l2.4 5.8-14.5 5.9-2.4-5.8z"/><path fill="#483e2c" fill-opacity=".5" d="M204.6 65.7l-37.7-30.5 2-2.4 37.6 30.4z"/><path fill="#858788" fill-opacity=".5" d="M233.8 205.9l-42 3.6-5.3-60.7 42-3.6z"/><path fill="#ad9274" fill-opacity=".5" d="M170.5 71.6L77 6.2l.8-1.3 93.5 65.5z"/><path fill="#70664c" fill-opacity=".5" d="M73.7 167.7l-49.6-23 .7-1.5 49.5 23.1z"/><path fill-opacity=".5" d="M10.5 81.5l-1.2-1 13-13.6 1.2 1.1z"/><path fill="#295e6f" fill-opacity=".5" d="M143 74.6L92.1 44l.8-1.4 51 30.6z"/><path fill="#b08c69" fill-opacity=".5" d="M-4.7 21l50 28.8-1.5 2.7-50-28.9z"/><path fill="#6c573f" fill-opacity=".5" d="M113.1 5.5l2.4-4 23 13.3-2.4 4z"/><path fill="#67635c" fill-opacity=".5" d="M101.4 188l58.2-33.6 12.5 21.7-58.2 33.6z"/><path fill="#746c6b" fill-opacity=".5" d="M325.2 123L457 61.6l.7 1.4L326 124.4z"/><path fill="#248ca2" fill-opacity=".5" d="M258 111.6l-.8 1.3-38.7-29.2 1-1.2z"/><path fill="#7b767e" fill-opacity=".5" d="M409.6 35.3l3.9 6.8-52.8 30.4-3.9-6.7z"/><path fill="#352e28" fill-opacity=".5" d="M401.3 159.8l1.7 4.3-84 34-1.7-4.4z"/><path fill="#78b4ca" fill-opacity=".5" d="M287.6 53.6l-30.2 8-2.8-10.5 30.2-8z"/><path fill="#e7f0f4" fill-opacity=".5" d="M246.8 73.2l.2-11 26.5.5-.2 11z"/><path fill="#88c1d9" fill-opacity=".5" d="M327.9-22.5l90 11-6.7 54.3-90-11z"/><path fill="#8bb1c1" fill-opacity=".5" d="M215.3 82.2l-7.4-2.4 3.4-10.4 7.4 2.4z"/></svg>