<svg xmlns="http://www.w3.org/2000/svg" viewBox="0 0 400 200"><path fill="#909b99" d="M0 0h400v200H0z"/><g fill-opacity=".5"><path fill="#94e8ff" d="M424.2 7L116.4-24.2l167.2 128.1z"/><path fill="#fff" d="M172.7 164.8l-197-100 54.8 73.5z"/><path fill="#04353d" d="M-24.2 166.4l54.7-36L193 224.3z"/><path fill="#00313d" d="M64.8 61.7l-89-1.5 195.3 100z"/><path fill="#ffffef" d="M64.8 77.3l103.2 25L-24.2-19.5z"/><path fill="#fff9ef" d="M138.3 83.6l111 129.7 62.4-15.6z"/><path fill="#7f6960" d="M416.4 38.3l-3.1 134.4L72.7 196z"/><path fill="#0a393c" d="M164.8 94.5L94.5 21.1l-54.7 1.6z"/><path fill="#ffffe9" d="M180.5 88.3l76.5 21.9L121 21z"/><path fill="#003038" d="M252.3 133.6L129 52.3l42.2 54.7z"/><path fill="#fff" d="M307 196l-68.7 28.2-7.8-82.8z"/><path fill="#1a0800" d="M347.7 163.3l-62.5 46.9 129.6-51.6z"/><path fill="#fff" d="M-24.2 161.7l107.8 43.8-106.3 18.7z"/><path fill="#193833" d="M177.3 139.8l-7.8 40.7L107 97.7z"/><path fill="#0f2118" d="M102.3.8l95.4 64-42.2-48.4z"/><path fill="#ffede5" d="M238.3 35.2L146 .8l142.2 107.8z"/><path fill="#fff" d="M83.6-24.2l-43.8 3.1 111 70.3z"/><path fill="#00171c" d="M199.2 118l57.8 34.3 18.8-14z"/><path fill="#fff7ea" d="M152.3 155.5L10.2 82l96.8 90.7z"/><path fill="#280500" d="M38.3 57l-62.5-17.2L18 85.2z"/><path fill="#fff5e5" d="M238.3 146L82 49.3l57.8 67.2z"/><path fill="#10231c" d="M291.4 110.2l-23.4 9.3-45.3-36z"/><path fill="#b57b40" d="M-24.2 97.7l51.5 54.6 90.7 14.1z"/><path fill="#fff" d="M258.6 110.2l15.6 25-54.7-36z"/><path fill="#c4bab5" d="M349.2 172.7l59.4-61-132.8 61z"/><path fill="#584d42" d="M75.8 202.3l93.7 15.7v-72z"/><path fill="#ae7947" d="M33.6 72.7L-19.5 8.6l146.8 89z"/><path fill="#70b6db" d="M229-24.2l195.2 43.7-123.4 75z"/><path fill="#b7783f" d="M72.7-2.3L46 19.5l117.2 42.2z"/><path fill="#fff8f3" d="M327.3 224.2h-68.7l143.7-54.7z"/><path fill="#40524c" d="M258.6 105.5L149.2 35.2l62.5 17.1z"/><path fill="#186885" d="M135.2 224.2L18 132-.8 168z"/><path fill="#d2c1b8" d="M364.8 99.2l-126.5 61 68.7-11z"/><path fill="#fff7f6" d="M38.3 18l50 48.4L-24.2 7z"/><path fill="#037ea2" d="M57 100.8l109.4 59.4-40.6-45.4z"/><path fill="#017fa0" d="M229 135.2l-45.4-47-56.3-12.4z"/><path fill="#34281c" d="M332 141.4l90.7-34.4-45.4 1.6z"/><path fill="#a66f3e" d="M238.3 111.7l-62.5-15.6-36-48.4z"/><path fill="#f8c192" d="M155.5 21l53 18.8 26.7 37.5z"/><path fill="#776960" d="M308.6 194.5l78.1-64-100 42.2z"/><path fill="#301a00" d="M80.5 174.2l-32.8-25 71.8 28.1z"/><path fill="#f3d8be" d="M107 171L-.8 74.3-7 118z"/><path fill="#fff" d="M232 144.5l-25-11-28 11z"/><path fill="#ac7943" d="M196 136.7L71 64.8l50 54.7z"/><path fill="#f8e5d5" d="M110.2 38.3L71-24.2l112.5 87.5z"/><path fill="#fcebdf" d="M335.2 208.6l-101.6-3.1 1.6-51.6z"/><path fill="#4e3634" d="M400.8 180.5l-28.1 21.8-22-3z"/><path fill="#2f2008" d="M285.2 164.8l40.6-20.3h-21.9z"/><path fill="#2c3226" d="M54 80.5L24.1 52.3l68.8 36z"/><path fill="#5f4e3d" d="M141.4 58.6L58.6 2.3l-18.8 22z"/><path fill="#fff" d="M58.6 194.5l9.4 29.7-79.7-51.5z"/><path fill="#26251a" d="M132 125.8L100.8 96l70.3 37.5z"/><path fill="#167694" d="M32 58.6l-9.3 26.6 82.8 42.1z"/><path fill="#29231c" d="M424.2 161.7l-28.1-12.5-50 28.1z"/><path fill="#f8f4f5" d="M150.8 107l-48.5-51.5L41.4 43z"/><path fill="#76b3cf" d="M146-24.2l68.8 65.6L321.1 54z"/><path fill="#0188ae" d="M169.5 100.8l-29.7-34.4-45.3-14z"/><path fill="#76858f" d="M232 224.2l-1.5-73.4-86-11z"/><path fill="#f8c193" d="M125.8-2.3l39-22 3.2 51.6z"/><path fill="#443937" d="M405.5 75.8l-56.3 29.7 28.1-26.6z"/><path fill="#71868b" d="M-24.2 136.7l96.9 36-97-68.8z"/><path fill="#e3e8ed" d="M264.8 85.2l-81.2-57.9 93.7 34.4z"/><path fill="#47361d" d="M-13.3 114.8l29.7 29.7 42.2 7.8z"/><path fill="#f4f6fd" d="M27.3 97.7l57.9 46.8-109.4-48.4z"/><path fill="#9e9594" d="M380.5 118l-82.8 20.3 126.5-71.9z"/><path fill="#e3c29e" d="M91.4 68l-36-1.6 78.2 43.8z"/><path fill="#fff9f8" d="M161.7 46l15.6 28.2 45.4 15.6z"/><path fill="#191914" d="M222.7 135.2l28 15.6 26.6-12.5z"/><path fill="#fff" d="M402.3 179l9.4-18.8-31.2 25z"/><path fill="#8dbcd2" d="M-18-11.7l86-9.4-31.3 43.8z"/><path fill="#cba57d" d="M130.5 44.5L96 11.7H61.7z"/><path fill="#fff" d="M141.4 158.6L132 168l-37.5-15.7z"/><path fill="#e3b285" d="M269.5 104l-59.3-42.3 43.7 15.6z"/><path fill="#403322" d="M171 44.5l33 11-47-31.3z"/><path fill="#99724f" d="M127.3 19.5L71.1-24.2l78.1 28.1z"/><path fill="#291a0f" d="M66.4 35.2l28.1-1.6-4.7 17.2z"/><path fill="#2d1a00" d="M274.2 171l17.2-12.4-25 9.4z"/><path fill="#fdf6ee" d="M332 155.5h-15.6l29.7-14z"/><path fill="#faeadc" d="M277.3 127.3l-29.6-3-34.4-40.7z"/><path fill="#3e3022" d="M305.5 186.7l76.5-26.5-40.6 29.6z"/><path fill="#d29f69" d="M250.8 118l14 21.8-48.4-32.8z"/><path fill="#87c3db" d="M424.2 22.7l-98.4 56.2 46.9-103.1z"/><path fill="#a19188" d="M305.5 89.8L393 77.3l-129.7 62.5z"/><path fill="#1a0c00" d="M336.7 144.5l6.3-11-20.3 11z"/><path fill="#9a9492" d="M296 189.8l34.5-37.5 50 4.7z"/><path fill="#faf8fa" d="M177.3 105.5L132 96l79.7 45.3z"/><path fill="#36453e" d="M224.2 89.8l45.3 14.1-50-32.8z"/><path fill="#f1e6e0" d="M255.5 177.3l-28.2 34.4 72-48.4z"/><path fill="#fbe6dc" d="M414.8 185.2l-123.4 39H354z"/><path fill="#514229" d="M221 125.8L197.8 96l50 34.4z"/><path fill="#cfe3ea" d="M252.3 4l-50 31.2 39.1-7.9z"/><path fill="#666158" d="M163.3 150.8l-111 64 126.6 9.4z"/><path fill="#40352f" d="M343 97.7l12.5 3-36 17.3z"/><path fill="#b99466" d="M138.3 63.3l-29.7-37.5 78.1 50z"/><path fill="#787070" d="M382 157l14-31.2-73.3 31.2z"/><path fill="#b08c5f" d="M-8.6 105.5l75 36-48.4-8z"/><path fill="#408ba6" d="M74.2 194.5l-23.4-36 51.5 25z"/><path fill="#181200" d="M18 75.8l-42.2-1.6 57.8-14z"/><path fill="#145d6f" d="M164.8 44.5l40.7 14 4.7 18.8z"/><path fill="#0c5166" d="M83.6 182l-107.8-15.6 14-26.6z"/></g></svg>