<svg xmlns="http://www.w3.org/2000/svg" viewBox="0 0 400 200"><path fill="#909b99" d="M0 0h400v200H0z"/><path fill="#00282e" fill-opacity=".5" d="M162.2 162.3L-49 40.4l13.3-23 211 121.9z"/><path fill="#fff" fill-opacity=".5" d="M130.3 174.8L-3.3 106.7 8.7 83l133.7 68.1z"/><path fill="#98e5ff" fill-opacity=".5" d="M150 5.2l76.2-101L373.4 15l-76.1 101z"/><path fill="#00313d" fill-opacity=".5" d="M152.5 197.4l-15.9 34L-29 154.1l15.8-34z"/><path fill="#fff" fill-opacity=".5" d="M317.5 201.7l-19 30.5-77-48 19.1-30.5zM23.4 39.2l7.9-13.5L203 124.9l-7.8 13.5z"/><path fill="#120000" fill-opacity=".5" d="M410.5 160.7l-97.8 41.5-6-14.4 97.7-41.5z"/><path fill="#002a35" fill-opacity=".5" d="M127.4 73.6L137.9 58l127 85.6-10.6 15.6z"/><path fill="#1e2a1e" fill-opacity=".5" d="M124.7 71.7L44.8 25.6 55 8l79.8 46.1z"/><path fill="#fff" fill-opacity=".5" d="M59.7 226.7l-72-30.5 10.4-24.5 72 30.6z"/><path fill="#7d5f53" fill-opacity=".5" d="M413 110.2l-128.4 57.2-24.2-54.2L389 56z"/><path fill="#533f32" fill-opacity=".5" d="M131.8 219.6l-18.3-43.2 53.2-22.6L185 197z"/><path fill="#fff" fill-opacity=".5" d="M252 111.9l-7.4 10L84 5.4l7.4-10z"/><path fill="#4a422c" fill-opacity=".5" d="M110.8 5.9l8-11.5 162.6 113.8-8 11.5z"/><path fill="#fffff8" fill-opacity=".5" d="M104.6 85l-151-94.4 9-14.6 151 94.4z"/><path fill="#72c0e6" fill-opacity=".5" d="M416.8-50.7l34 66.8-162.9 83-34-66.8z"/><path fill="#ecded2" fill-opacity=".5" d="M293.9 82.4l-21.2 27.1L189 44.1l21.1-27z"/><path fill="#e1a264" fill-opacity=".5" d="M-61.4-8.8l246 136.4-6 10.9L-67.4 2z"/><path fill="#fffaf0" fill-opacity=".5" d="M154.4 116l5-9.7 100.2 51-5 9.8z"/><path fill="#fffffe" fill-opacity=".5" d="M286.7 215.4L411.3 165l3.5 8.7L290.2 224z"/><path fill="#0b0100" fill-opacity=".5" d="M300.7 154.2L452 86.8l2 4.3-151.4 67.4z"/><path fill="#160000" fill-opacity=".5" d="M-.7 49.6L31.5 69 21 86.3-11.1 67z"/><path fill="#007a9e" fill-opacity=".5" d="M175.8 151.5l-6.6 12.4L25.7 87.6l6.6-12.4z"/><path fill="#ffd4b2" fill-opacity=".5" d="M146.2-10.3l61.4 43L196 49.4l-61.4-43z"/><path fill="#fff7ef" fill-opacity=".5" d="M-13 71.3l149 76-12 23.6-149-76z"/><path fill="#008fbf" fill-opacity=".5" d="M171 103.4L99 56.6l3.4-5.3 72 46.8z"/><path fill="#130000" fill-opacity=".5" d="M248.7 155l-5-9.8 27.9-14.2 5 9.7z"/><path fill="#fff" fill-opacity=".5" d="M398.8 118.6l.7 1.4-121.8 56.8-.6-1.5z"/><path fill="#eaa159" fill-opacity=".5" d="M-47.4 90.4l157.2 73.3-4.6 10L-52 100.2z"/><path fill="#fff" fill-opacity=".5" d="M265.1 132l-43.7-33 5.7-7.5 43.7 33z"/><path fill="#8c7269" fill-opacity=".5" d="M401.7 146.3l-102 47.5-9.2-19.8 102-47.5z"/><path fill="#807b81" fill-opacity=".5" d="M234.2 224l-61 2-2.7-79.6 60.9-2.1z"/><path fill="#fff5e9" fill-opacity=".5" d="M301.9 189.5L288 227.7l-60.2-22 13.9-38z"/><path fill="#fff" fill-opacity=".5" d="M407.8 79.4l.6 1.4L247 159.6l-.6-1.4z"/><path fill="#e39f5b" fill-opacity=".5" d="M117.2 33.1l130.9 88.3-4.4 6.4-130.8-88.2z"/><path fill="#51310a" fill-opacity=".5" d="M-21.5 119.9l2.9-5.6 132.2 67.4-2.8 5.6z"/><path fill="#036383" fill-opacity=".5" d="M-4.7 168.2l7-17.4 88.4 35.7-7 17.4z"/><path fill="#114753" fill-opacity=".5" d="M141.5 15.2l60.1 42.1-7.1 10.3-60.2-42.1z"/><path fill="#be7e47" fill-opacity=".5" d="M53.2 14L66.1-3.7 101.5 22 88.6 39.7z"/><path fill="#fffef5" fill-opacity=".5" d="M41.8-32L236 99l-4.4 6.5-194.3-131z"/><path fill="#fffdf8" fill-opacity=".5" d="M66.3 59.5l5.6-9.4 116.5 70-5.6 9.4z"/><path fill="#fffcf3" fill-opacity=".5" d="M117.1-31l171.2 133.7-3.9 4.9L113.3-26.1z"/><path fill="#75b4d0" fill-opacity=".5" d="M309.8 10.7l-14.2 49.6-100.7-28.9L209.1-18z"/><path fill="#85b7cf" fill-opacity=".5" d="M77.7 173.2l-2.7 5.7-94.9-44.3 2.7-5.6z"/><path fill="#1e1e13" fill-opacity=".5" d="M279.3 102.8l7.5 11.9-14.6 9.1-7.4-12z"/><path fill="#008eb0" fill-opacity=".5" d="M140.5 71.1l84.4 59.2-4.4 6.4L136 77.5z"/><path fill="#0d0700" fill-opacity=".5" d="M469 43.2l.7 1.4L313.8 124l-.7-1.4z"/><path fill="#bdaa9f" fill-opacity=".5" d="M336.2 119l6.1 14.4L256 170l-6.1-14.3z"/><path fill="#fff" fill-opacity=".5" d="M-22.8 168.7l106.4 36.6-3 8.9-106.4-36.7z"/><path fill="#2e1900" fill-opacity=".5" d="M303.7 152.3l2 4.3-32.9 14.6-1.9-4.3z"/></svg>