<svg xmlns="http://www.w3.org/2000/svg" viewBox="0 0 400 200"><filter id="b"><feGaussianBlur stdDeviation="12" /></filter><path fill="#909b99" d="M0 0h400v200H0z"/><g filter="url(#b)" transform="translate(.8 .8) scale(1.5625)" fill-opacity=".5"><ellipse fill="#002730" rx="1" ry="1" transform="rotate(-63.1 59 2) scale(9.21656 99.73401)"/><ellipse fill="#90e3ff" cx="183" rx="74" ry="51"/><ellipse fill="#fff" rx="1" ry="1" transform="rotate(116.2 -6.6 50) scale(10.0448 66.67451)"/><ellipse fill="#133b40" rx="1" ry="1" transform="matrix(-4.73817 12.9127 -87.50013 -32.1072 46.8 113.5)"/><path fill="#fff" d="M228 143h-77l-4-49z"/><ellipse fill="#fff" rx="1" ry="1" transform="matrix(-96.58351 -57.90923 2.85282 -4.75805 63.7 46)"/><path fill="#010000" d="M281 95.9l-80.6 32.6-3.4-8.4 80.6-32.6z"/><path fill="#093639" d="M6.9 1.2L72 24l107.5 75.8-25.3-6z"/><ellipse fill="#282c1e" rx="1" ry="1" transform="rotate(126.8 53.9 51) scale(3.9192 68.11844)"/><ellipse fill="#fff" rx="1" ry="1" transform="matrix(74.27718 51.97144 -2.1447 3.06519 100.2 32.9)"/><ellipse fill="#85685d" rx="1" ry="1" transform="matrix(10.48047 16.1385 -55.51855 36.05417 221.6 66.3)"/><ellipse fill="#fff" rx="1" ry="1" transform="matrix(-2.84618 6.87533 -33.33343 -13.79905 24 127)"/><ellipse fill="#edd6c4" rx="1" ry="1" transform="matrix(5.4113 -8.17558 54.36173 35.98124 144.2 35)"/><ellipse fill="#574133" rx="1" ry="1" transform="rotate(43.6 -102.6 176.3) scale(14.84322 21.49443)"/><path fill="#fff0e3" d="M-16 41L98 99l-44 5z"/></g></svg>