<svg xmlns="http://www.w3.org/2000/svg" viewBox="0 0 400 200"><path fill="#909b99" d="M0 0h400v200H0z"/><path fill="#fff" fill-opacity=".5" d="M139.2 150.1L126 175-6.4 104.5 6.8 79.7z"/><path fill="#002932" fill-opacity=".5" d="M175.6 138.1L162 162.7-11.6 66.5 2.1 42z"/><path fill="#96e4ff" fill-opacity=".5" d="M167.3 19.8l69.8-96 131.5 95.5-69.8 96z"/><path fill="#00313b" fill-opacity=".5" d="M-49.8 104.8l207 92.1-15.2 34.3L-65 139z"/><path fill="#fff" fill-opacity=".5" d="M.8 22l8-13.4L179 110.8l-8 13.4z"/><path fill="#180000" fill-opacity=".5" d="M309.2 185.8l92-39 6.8 15.8-92 39z"/><path fill="#002430" fill-opacity=".5" d="M136 58.2l125.7 84.7-8.7 13L127.3 71z"/><path fill="#fff" fill-opacity=".5" d="M219.9 181.3l23-31.6 67 48.7-23 31.6z"/><path fill="#1a2214" fill-opacity=".5" d="M56.7 9.3l69.7 41.9-9.7 16-69.6-41.8z"/><path fill="#8d7064" fill-opacity=".5" d="M385 63.1l29 84.2-128.6 44.3-29-84.2z"/><path fill="#fff" fill-opacity=".5" d="M213.4 80.7l-6.1 9.1L72.6-1l6-9zm-143 120.1l-10.5 26-72.5-29.2 10.6-26z"/><path fill="#71c0e6" fill-opacity=".5" d="M436 19.2l-140.8 78-51.5-93 140.8-78z"/><path fill="#fff" fill-opacity=".5" d="M168.4 104.3l59.7 37.3-7.5 11.9-59.6-37.3z"/><path fill="#122924" fill-opacity=".5" d="M279.6 126L59.4-28l6.3-9L286 117z"/><path fill="#594437" fill-opacity=".5" d="M128.5 221.5L108.7 179l58-27 19.9 42.4z"/><path fill="#fff" fill-opacity=".5" d="M266.5 135.1l-91-66 6.4-9 91 66.2z"/><path fill="#ffd7b3" fill-opacity=".5" d="M283.3 92l-12.2 16.3-156-117.6 12.2-16.2z"/><path fill="#0b0100" fill-opacity=".5" d="M399.2 114.5l-100.5 47-2.6-5.7 100.5-47z"/><path fill="#008bb2" fill-opacity=".5" d="M208.5 130.2L90.8 47.8l5.4-7.7 117.7 82.4z"/><path fill="#fff" fill-opacity=".5" d="M322.3 201.9l86-33 2.3 5.8-86.1 33zm92.6-88.6l-133.1 62.1-1.4-2.8 133.2-62z"/><path fill="#fffbf6" fill-opacity=".5" d="M88 121.1l58.8 32.6-11.4 20.5-58.7-32.6z"/><path fill="#0a0000" fill-opacity=".5" d="M26.2 69.8l-5.9 14.5L-24.6 66l5.9-14.4z"/><path fill="#7b787d" fill-opacity=".5" d="M168.8 146.6l62.5-1 1.5 84.3-62.5 1.1z"/><path fill="#130500" fill-opacity=".5" d="M280.7 137.7l-27 15.6-4.7-8.1 27-15.7z"/><path fill="#fff6e9" fill-opacity=".5" d="M278.3 236.1l-53.3-26 23.2-47.8 53.4 26z"/><path fill="#fffcf6" fill-opacity=".5" d="M92.1 135l-7.8 15.4-115.5-58.9 7.8-15.3z"/><path fill="#fdeee3" fill-opacity=".5" d="M75.3 44.6l-9.7 16-73.7-44.2L1.6.3z"/><path fill="#cf9153" fill-opacity=".5" d="M-27 100.9l172.7 80.5-4.6 10-172.8-80.6z"/><path fill="#f0ac69" fill-opacity=".5" d="M31 51.8l4.8-8 166 99.7-4.8 8z"/><path fill="#d9e6ef" fill-opacity=".5" d="M283.8 106.2l-82.3-62 13.1-17.6L297 88.7z"/><path fill="#007ea5" fill-opacity=".5" d="M156.2 155.5L23.7 82l6-11 132.6 73.6z"/><path fill="#fff6ec" fill-opacity=".5" d="M64 57.3L72.1 44l140.5 87.8-8.3 13.2z"/><path fill="#100800" fill-opacity=".5" d="M490.8 39.7l-245 114.2-.7-1.4 245-114.2z"/><path fill="#d59151" fill-opacity=".5" d="M164.3 63.5l-5 8L56 6.7l5-8z"/><path fill="#79b1cb" fill-opacity=".5" d="M99.7 188.7l-118.5-52.8 2-4.3 118.4 52.8z"/><path fill="#645e58" fill-opacity=".5" d="M87.9 195l70.3-40.6 21.1 36.5-70.3 40.6z"/><path fill="#fdf1e8" fill-opacity=".5" d="M220.9 172.6l156-79.4.6 1.4L221.6 174z"/><path fill="#fffcef" fill-opacity=".5" d="M67-5.6l5.3-7.7L222.1 91.6l-5.4 7.6z"/><path fill="#005c7e" fill-opacity=".5" d="M6.4 154.3l70 26.9-6.2 16-70-26.8z"/><path fill="#c2824d" fill-opacity=".5" d="M27.1 62.7l-38-18.4L-.4 23.2l37.9 18.5z"/><path fill="#4d3009" fill-opacity=".5" d="M32.2 57.2l68.3 38-3 5.4-68.3-37.9z"/><path fill="#fff" fill-opacity=".5" d="M51 206.3L-.2 186.7l3.9-10.2 51 19.6z"/><path fill="#361400" fill-opacity=".5" d="M25 135.6l80.5 44.7-.7 1.3L24.2 137z"/><path fill="#84bdd5" fill-opacity=".5" d="M282.2 101.8L250 41.1l160-85 32.3 60.6z"/><path fill="#482d2c" fill-opacity=".5" d="M444 164.5l1.7 4.4-91.2 36.9-1.8-4.4z"/><path fill="#716064" fill-opacity=".5" d="M374 95.3l-16.6-30 67-37.2 16.6 30z"/><path fill="#fffaf1" fill-opacity=".5" d="M229 149.7l9.1-1.7 9.5 53.9-9.2 1.6z"/><path fill="#5b493a" fill-opacity=".5" d="M48.3 7.2L102.7 44l-8.8 13-54.4-36.7z"/><path fill="#9dd0eb" fill-opacity=".5" d="M17.2 10.1l16.5-26.5 22.6 14-16.6 26.6z"/><path fill="#bc916a" fill-opacity=".5" d="M93.6-.2l3.1-10.5L158 8l-3.2 10.5z"/><path fill="#4f2f09" fill-opacity=".5" d="M95.6 99.7l3.2-5.3 69.7 41.8-3.3 5.4z"/><path fill="#271300" fill-opacity=".5" d="M269.9 174l-2.6-5.7 26.9-12.6 2.6 5.7z"/><path fill="#fffbfa" fill-opacity=".5" d="M141.1-5.2l3.9-5L238.6 63l-3.9 5z"/><path fill="#dfa66a" fill-opacity=".5" d="M148.5 52.9l65.3 45.7-4.5 6.4L144 59.3z"/><path fill="#a1805f" fill-opacity=".5" d="M82 37.3L46.1 14.9l14-22.5L96 14.8z"/><path fill="#31a6c3" fill-opacity=".5" d="M254.7 112l-115-83.6.9-1.3 115 83.6z"/><path fill="#2a1c10" fill-opacity=".5" d="M225.4 137.8l9-14.6 20 12.4-9.2 14.6z"/><path fill="#feffff" fill-opacity=".5" d="M131.5 144.7l-1.4 2.8L-5 78.7l1.4-2.8z"/><path fill="#442f0c" fill-opacity=".5" d="M109.7 182.8L15 138.6l2-4.3 94.8 44.3z"/><path fill="#362b1b" fill-opacity=".5" d="M312.4 198.8l-4-11.9 90-31 4.2 11.8z"/><path fill="#c5b199" fill-opacity=".5" d="M266.8 139.5l-4.5-6.4 25.6-18 4.5 6.5z"/><path fill="#3c3729" fill-opacity=".5" d="M132.8 18l4.5-6.4L200 55.5l-4.5 6.4z"/><path fill="#9b9490" fill-opacity=".5" d="M293.3 181.2l82-34.8 4.9 11.5-82 34.8z"/><path fill="#fefcff" fill-opacity=".5" d="M236.7 146l-.1 1.5-62.4-4.4.1-1.5z"/><path fill="#f1e9e1" fill-opacity=".5" d="M295 114.8l-.6-1.4 109-58 .7 1.5z"/><path fill="#3b240d" fill-opacity=".5" d="M22.2 83.4l-34-15.9 10-21.2L32 62.1z"/><path fill="#a28260" fill-opacity=".5" d="M134.2-5.5l143.5 108.2-1 1.2L133.3-4.2z"/><path fill="#d7995d" fill-opacity=".5" d="M214.7 96.4l39.4 30.8-4.8 6.1-39.4-30.8z"/><path fill="#ad9e96" fill-opacity=".5" d="M374 118.4l-116.1 54.2-5.3-11.3L368.7 107z"/><path fill="#878a8d" fill-opacity=".5" d="M172.7 146h56.2v84.5h-56.2z"/><path fill="#453923" fill-opacity=".5" d="M147 67.8L84.1 27l1.7-2.6 63 40.8z"/><path fill="#60a8c8" fill-opacity=".5" d="M162.8 4.3l7.6-22.2 62.1 21.4-7.6 22.2z"/><path fill="#00728e" fill-opacity=".5" d="M108.5 60.6l4.7-6.3 36.2 27.3-4.8 6.2z"/><path fill="#eff3f4" fill-opacity=".5" d="M276.7 56.8l3.6 15.3-30.5 7-3.5-15.2z"/><path fill="#fff8eb" fill-opacity=".5" d="M370.2 207.9l-1.3-2.8 31.2-14.6 1.3 2.9z"/><path fill="#ede1dd" fill-opacity=".5" d="M121.9 29.3L81.4-14l4.5-4.3L126.4 25z"/><path fill="#afbbc0" fill-opacity=".5" d="M11.8 149l-16.5-4.8 3.8-13.5 16.6 4.8z"/><path fill="#fff4e8" fill-opacity=".5" d="M262.4 130l-46.8-36.6 4.8-6.2 46.8 36.6z"/><path fill="#77b1c8" fill-opacity=".5" d="M286.7-7.7L323 82.1l-36.2 14.7-36.3-89.9z"/><path fill="#fffff9" fill-opacity=".5" d="M135.6 155.4l1.3-4.6 16.5 4.8-1.3 4.5z"/><path fill="#ede5e1" fill-opacity=".5" d="M355.5 108.1l-.7-1.3L421 71.5l.8 1.4z"/><path fill="#2885a4" fill-opacity=".5" d="M94.7 185.2l-24.6 16.6-7-10.4 24.6-16.6z"/><path fill="#565142" fill-opacity=".5" d="M170.5 135.7l7.5 2.2-12.5 43.5-7.5-2.1z"/><path fill="#4e3819" fill-opacity=".5" d="M194.2 99.7l1.9-2.6 58.1 42.3-1.8 2.5z"/><path fill="#736868" fill-opacity=".5" d="M316 99.4l-4.6-8.1 46-26.6 4.7 8.1z"/><path fill="#afb0af" fill-opacity=".5" d="M207.6 56.8l7.7-1 3.7 29.6-7.8.9z"/><path fill="#fffbf3" fill-opacity=".5" d="M438.1 105.2l.6 1.5-159.6 67.7-.6-1.4z"/><path fill="#0a0600" fill-opacity=".5" d="M289.3 109.4l.6 1.4-21.4 9.5-.6-1.4z"/><path fill="#9dcae3" fill-opacity=".5" d="M94.3 48.5l9 6.3-5.4 7.6-9-6.2z"/><path fill="#d9ebf3" fill-opacity=".5" d="M245.4 6.8l5 6-22.3 19.4-5.1-5.9z"/><path fill="#dcb386" fill-opacity=".5" d="M-7.4 108l92.7 41.3-4.4 10-92.8-41.4z"/><path fill="#8a5830" fill-opacity=".5" d="M263 140l-11.8-3.9 2.9-8.9 11.9 3.9z"/><path fill="#ae9a93" fill-opacity=".5" d="M228.1 233.9l-.5-1.5L414 164.5l.5 1.5z"/><path fill="#0e88a8" fill-opacity=".5" d="M194.5 110.7l35.2 20.3-4 6.8-35-20.4z"/><path fill="#b7ccd5" fill-opacity=".5" d="M123.6 57.3l1.9-2.5 15 11.3-2 2.5z"/><path fill="#7698a6" fill-opacity=".5" d="M171.3 149.4L26.4 69.1l.8-1.3L172 148z"/><path fill="#68635b" fill-opacity=".5" d="M170.8 173.5l-94.7 54.7-11-19 94.8-54.6z"/><path fill="#1d2724" fill-opacity=".5" d="M93.3 41.4l-5.5 9.4L77 44.6l5.5-9.5z"/><path fill="#231d15" fill-opacity=".5" d="M405.5 74.4l1.4 2.8-70.2 34.3-1.4-2.8z"/><path fill="#d1ab86" fill-opacity=".5" d="M73.7 4l61.6 40-4.3 6.6-61.6-40z"/><path fill="#c09c76" fill-opacity=".5" d="M121.7-6.6l3.9-5 129.2 101-3.8 5z"/><path fill="#4a391b" fill-opacity=".5" d="M83 164.7l-.7 1.4-85.6-41.8.7-1.4z"/><path fill="#3f3828" fill-opacity=".5" d="M350 131.6l70.8-33 2.6 5.7-70.8 33z"/><path fill="#6eb0ca" fill-opacity=".5" d="M263.7 34l-45.5 11.4-2.2-9.1 45.5-11.4z"/><path fill="#f6e4d9" fill-opacity=".5" d="M326.6 216.3l-96.1-55.5 3.9-6.8 96 55.5z"/><path fill="#5c3d18" fill-opacity=".5" d="M205 105.4l-90.6-61.1.9-1.3 90.6 61.2z"/><path fill="#88c5de" fill-opacity=".5" d="M419.3 34.6l-66.8 16.6-14-56 66.8-16.7z"/><path fill="#fae7e1" fill-opacity=".5" d="M399.7 179.7L331 206l-1.1-2.9 68.6-26.3z"/><path fill="#1f839d" fill-opacity=".5" d="M48.4 99l96 49-.6 1.4-96-49z"/><path fill="#a68e6e" fill-opacity=".5" d="M117.5 92.4l83 49.8-.8 1.4-83-50z"/><path fill="#b4a197" fill-opacity=".5" d="M144.3 158l-.7 1.3-73.8-37.6.7-1.4z"/><path fill="#a78a7d" fill-opacity=".5" d="M-19.2 181.6l49.9 18.2-.5 1.4-50-18.1z"/><path fill="#2d3124" fill-opacity=".5" d="M76.3 163.4l33.6 12.9-3.4 8.7L73 172.2z"/><path fill="#f5ece3" fill-opacity=".5" d="M252.8 155.9l-.7 1.4-81.5-39.7.7-1.4z"/><path fill="#614938" fill-opacity=".5" d="M311.6 195.7l-11-8.8 5-6 11 8.8z"/><path fill="#f5ede9" fill-opacity=".5" d="M123.3 155.4l-6.6 12.4-76-40.4 6.7-12.4z"/><path fill="#1a5b6f" fill-opacity=".5" d="M54.2 172.6l-9 18.3-88.4-43.2 8.9-18.2z"/><path fill="#fff" fill-opacity=".5" d="M65.4 210.5l-70-31.1 3.2-7.1 70 31.1z"/><path fill="#777171" fill-opacity=".5" d="M433.7 136.1L373 160.7l-8.2-20.3 60.8-24.6z"/><path fill="#cea77d" fill-opacity=".5" d="M18.5 40.2l132.6 79.7-2.4 4L16 44.2z"/><path fill="#a9b1b5" fill-opacity=".5" d="M221.8 137.2L66.4 43.8l.9-1.3 155.3 93.3z"/><path fill="#faece3" fill-opacity=".5" d="M288.3 105.2l-2.1 2.3-35.4-33 2-2.3z"/><path fill="#6aa8bd" fill-opacity=".5" d="M266 82.4l3-3.7 19.6 15.4-2.8 3.7z"/><path fill="#342308" fill-opacity=".5" d="M20 65.6l15-11.5 2.8 3.7L23 69.3z"/><path fill="#5099b4" fill-opacity=".5" d="M27.8 12.5L10 2.7 17.6-11 35.3-1z"/><path fill="#e5d6c9" fill-opacity=".5" d="M272.6 124.3l24.3-14 .8 1.3-24.3 14z"/><path fill="#1d829c" fill-opacity=".5" d="M98.2 46l60.3 39.2-5.1 7.8L93 54z"/><path fill="#332c10" fill-opacity=".5" d="M174.8 141.5l-.8 1.4-91-54.7.8-1.4z"/><path fill="#e7ecef" fill-opacity=".5" d="M197.6 18.3l-14.5 9.1-4.2-6.6 14.6-9.1z"/><path fill="#054d65" fill-opacity=".5" d="M276 120.5l-1 1.3-55.6-37.6.8-1.3z"/><path fill="#462f16" fill-opacity=".5" d="M227.1 78.7l54.4 36.7-.8 1.3L226.3 80z"/><path fill="#ceac84" fill-opacity=".5" d="M123 170.3l-4 8.4-71.7-35 4.1-8.3z"/><path fill="#5f5f5f" fill-opacity=".5" d="M72.6 26.8l.8-1.2L160.2 84l-.8 1.3z"/><path fill="#85888b" fill-opacity=".5" d="M230.9 154.9l3.8 73.3-54.6 2.9-3.9-73.4z"/><path fill="#9b897a" fill-opacity=".5" d="M272.5 174l-35-26.4 1-1.2 35 26.3z"/><path fill="#948c88" fill-opacity=".5" d="M382.3 156.2l-82 34.8-6-14.4 82-34.8z"/><path fill="#061418" fill-opacity=".5" d="M28.9 76.3l-9.4 10.5-9.3-8.4 9.4-10.5z"/><path fill="#f7f2ed" fill-opacity=".5" d="M181.3 115l-5.7 9.3-99-59.5 5.6-9.4z"/><path fill="#907e6b" fill-opacity=".5" d="M270.9 131.1l19.2-13.4 6.2 9-19.2 13.4z"/><path fill="#6a8091" fill-opacity=".5" d="M88.5-22.1l3 3.6-50.3 42.2-3-3.6z"/><path fill="#164359" fill-opacity=".5" d="M133.4 18.8L241 94l-.9 1.3L132.5 20z"/><path fill="#604027" fill-opacity=".5" d="M141.5 22.2l-4 5-24.3-19.8 4-4.8z"/><path fill="#5a4b3d" fill-opacity=".5" d="M280.3 119l-1.6-2.7 23.8-15 1.7 2.7z"/><path fill="#95856f" fill-opacity=".5" d="M-4.5 21l.8-1.4 91 54.7-.8 1.4z"/><path fill="#f4e6e1" fill-opacity=".5" d="M-26.1 95l.7-1.3L34 125.2l-.7 1.4z"/><path fill="#f0e0da" fill-opacity=".5" d="M232.7 190.8l4-24.7 44.7 7.1-4 24.7z"/><path fill="#0f7184" fill-opacity=".5" d="M224.4 137.9L116.9 68l.9-1.3 107.4 69.8z"/><path fill="#eeecea" fill-opacity=".5" d="M270 134.7l-11-15.1 3.8-2.8 11 15.2z"/><path fill="#4b402e" fill-opacity=".5" d="M45 24.6l5.7-9.3 40.2 24.1-5.7 9.4z"/><path fill="#856d52" fill-opacity=".5" d="M27.4 56.5l-2 6-32.5-11.2 2-6z"/><path fill="#8f9396" fill-opacity=".5" d="M170.6 221.6l2.6-73.4 17.1.6-2.5 73.4z"/><path fill="#84633d" fill-opacity=".5" d="M282.7 113.7l-16.2-9.3 2.3-4 16.3 9.3z"/><path fill="#64615b" fill-opacity=".5" d="M165.8 167l7.8 39.8-62.9 12.2-7.7-39.9z"/><path fill="#83705e" fill-opacity=".5" d="M313.2 162l6 10.9-24.6 13.6-6-11z"/><path fill="#0d647a" fill-opacity=".5" d="M80.7 100.4l-4.6 9.9-39.6-18.5 4.6-10z"/><path fill="#81756b" fill-opacity=".5" d="M272.8 127l89.6-47.6.8 1.4-89.7 47.6z"/><path fill="#827c7e" fill-opacity=".5" d="M339.8 132.9l-6.2-12.6 125-61 6.2 12.6z"/><path fill="#4f473b" fill-opacity=".5" d="M369.3 93.4l.7 1.4-87.7 44.6-.7-1.3z"/><path fill="#c1dae6" fill-opacity=".5" d="M246.8 41.1L284 74.6l-4.2 4.6-37.2-33.4z"/><path fill="#fffbfa" fill-opacity=".5" d="M-4.8 22.6l-4.8-6.1L6.4 4l4.8 6.1z"/><path fill="#578a9f" fill-opacity=".5" d="M90.2 53.4l6-17.7 9 3L99 56.6z"/><path fill="#fcefe3" fill-opacity=".5" d="M281.7 104.8L184.5 26l1-1.2 97.2 78.7z"/><path fill="#e0d8d3" fill-opacity=".5" d="M272.4 129.5L122 20.2l.9-1.3 150.4 109.3z"/><path fill="#c3c8c9" fill-opacity=".5" d="M181.1 16.6l106 82.7-1 1.3-106-82.8z"/><path fill="#927e74" fill-opacity=".5" d="M312.9 89.3l4.6 8.1-25.7 14.9-4.7-8.2z"/><path fill="#0f728b" fill-opacity=".5" d="M204.5 71.6l-1.9 2.5L144 30l1.8-2.5z"/><path fill="#534f4a" fill-opacity=".5" d="M282.2 116.4L490.5 5.6l.7 1.4L283 117.8z"/><path fill="#25211f" fill-opacity=".5" d="M274 124l-10.8-9.1 5-6 10.8 9z"/><path fill="#b0afaa" fill-opacity=".5" d="M69 44.2l-.8 1.3L-39.4-27l1-1.3z"/><path fill="#ab9c92" fill-opacity=".5" d="M313 129.4l5.6 11.2-52 25.3-5.5-11.2z"/><path fill="#eddfd4" fill-opacity=".5" d="M235 149.8l49.8 32.4-2.6 3.9-49.8-32.3z"/><path fill="#07192a" fill-opacity=".5" d="M85.9 51.8L91 42l2.8 1.5-5.1 9.6z"/><path fill="#4d4029" fill-opacity=".5" d="M154.2 71.2l91.7 59.6-1.7 2.6L152.5 74z"/><path fill="#4a3e24" fill-opacity=".5" d="M271.7 168l50.5-24.7 1.4 2.8-50.5 24.7z"/><path fill="#387c90" fill-opacity=".5" d="M21 87.4l7.7-17.1L43 76.6l-7.6 17.2z"/><path fill="#b38e6b" fill-opacity=".5" d="M93.8 32.6L66 15.2l7.4-11.9 27.8 17.4z"/><path fill="#6e654f" fill-opacity=".5" d="M18 140.3l57.5 24.4-1.3 2.9L16.7 143z"/><path fill="#6cb8d4" fill-opacity=".5" d="M206.8 75.7l2-2.4 11 8.8-2 2.4z"/><path fill="#575757" fill-opacity=".5" d="M34.6 67.5l.7-1.4L164 140.3l-.8 1.4z"/><path fill="#046b84" fill-opacity=".5" d="M95.5 121l5.1-8 36.7 23.9-5.1 7.9z"/><path fill="#a08365" fill-opacity=".5" d="M251.8 123.6l11.3 5.3-4 8.5-11.3-5.3z"/><path fill="#3a2d14" fill-opacity=".5" d="M177 138l.8 1.3-9.5 5.5-.8-1.3z"/><path fill="#3d2e19" fill-opacity=".5" d="M192.5 54.8L216 67.3l-.7 1.3-23.5-12.4z"/><path fill="#f6f1f0" fill-opacity=".5" d="M177.2 23.2L143.5-2.2l2.8-3.8L180 19.4z"/><path fill="#faf8f3" fill-opacity=".5" d="M150.3 152.6l1.6 2.7-16.3 9.3-1.5-2.7z"/><path fill="#c2d7db" fill-opacity=".5" d="M92.8 52.8l38.7 29.1-1 1.3L92 54z"/><path fill="#e7dbd6" fill-opacity=".5" d="M425.6 172.6l-103.4 35.6-2.5-7.4L423 165.2z"/><path fill="#978f8d" fill-opacity=".5" d="M299.8 118.9l88.8-49.3 3.8 6.9-88.8 49.2z"/><path fill="#2a2c28" fill-opacity=".5" d="M7.3 77.2l9.6 5.1-.7 1.4-9.7-5.1z"/><path fill="#0580a3" fill-opacity=".5" d="M145.4 82.2l.9-1.4 78.6 51.1-.9 1.3z"/><path fill="#a48e79" fill-opacity=".5" d="M278.6 153.6l-20.9 10.7-3.5-7 20.9-10.6z"/><path fill="#7ab8d1" fill-opacity=".5" d="M74.8 189.8l1.5.3-2.6 12.3-1.5-.4z"/><path fill="#77b4ce" fill-opacity=".5" d="M241.7 25.2l45-33.8 26.3 35-45 33.8z"/><path fill="#379fbd" fill-opacity=".5" d="M155.6 90.5l-13-8.5 3.3-5.3 13.1 8.5z"/><path fill="#95abae" fill-opacity=".5" d="M128.6 64.7l3-7.2 10.1 4.3-3 7.2z"/><path fill="#b29b8e" fill-opacity=".5" d="M-14.6 77.2l.7-1.3 67.6 36-.7 1.3z"/><path fill="#f9eee6" fill-opacity=".5" d="M245.2 117.2L93 10.6l1-1.3L246 116z"/><path fill="#6a615a" fill-opacity=".5" d="M284 176l195.5-83 .6 1.4-195.6 83z"/><path fill="#2f8092" fill-opacity=".5" d="M268.6 120L229 92.2l1-1.3 39.6 27.8z"/><path fill="#a58e74" fill-opacity=".5" d="M-3.6 112.6l.7-1.4 133 62.1-.6 1.4z"/><path fill="#3f372d" fill-opacity=".5" d="M414.5 152.5l-68 31.7-3.2-7 68-31.7z"/><path fill="#303938" fill-opacity=".5" d="M250.7 152.1l-23.5-12.5 8-15.1 23.5 12.4z"/><path fill="#cbc8c5" fill-opacity=".5" d="M231.2 144l-.1 1.6-42-3.7.1-1.5z"/><path fill="#523f1f" fill-opacity=".5" d="M81.5 87L28.7 56.5l.8-1.3 52.7 30.5z"/><path fill="#9bc6d7" fill-opacity=".5" d="M237.5 1.6v45.3h-11V1.6z"/><path fill="#4a7b8c" fill-opacity=".5" d="M44.8 158l59.5 27.8-.7 1.4-59.4-27.7z"/><path fill="#b5cad6" fill-opacity=".5" d="M61.6-14.4l5.3 5.7-33.1 31-5.4-5.8z"/><path fill="#6d6b63" fill-opacity=".5" d="M79.7 202.8l92.8-58 2.5 4-92.8 58z"/><path fill="#72aec7" fill-opacity=".5" d="M224.4-9.6l9.1 29.9-31.3 9.6L193 0z"/><path fill="#6f7880" fill-opacity=".5" d="M30.8 61l21 16.4-3 3.7L28 64.8z"/><path fill="#e7dfd6" fill-opacity=".5" d="M355 106.1l-104.5 53.2-.7-1.4 104.4-53.2z"/><path fill="#453a25" fill-opacity=".5" d="M261.9 130.6l13.2 11-1 1.2-13.2-11z"/><path fill="#667173" fill-opacity=".5" d="M247.9 134.2l1 1.2-14 10.1-1-1.2z"/><path fill="#3c3017" fill-opacity=".5" d="M46.5 149.6L1.2 128.4 2 127l45.3 21.1z"/><path fill="#abd7df" fill-opacity=".5" d="M97.9 128.9L12.3 83.4l.8-1.4 85.5 45.5z"/><path fill="#5f4135" fill-opacity=".5" d="M391 201.7l15.9-6.4.6 1.4-16 6.5z"/><path fill="#f6feff" fill-opacity=".5" d="M90.2 212.1l-57.6-24.4.7-1.4 57.5 24.4z"/><path fill="#687375" fill-opacity=".5" d="M196.3 61.7l-67-48.7 1-1.3 67 48.7z"/><path fill="#453e38" fill-opacity=".5" d="M333.9 114.4l-.8-1.4 75.2-38.3.7 1.4z"/><path fill="#f8ffff" fill-opacity=".5" d="M142 152.6l-11.3-5.3.7-1.4 11.3 5.3z"/><path fill="#f4f0ed" fill-opacity=".5" d="M216.2 138l-4 6.8-48.7-28.1 4-6.8z"/><path fill="#cdbfb6" fill-opacity=".5" d="M118.5 75.7l.8-1.4 132.5 82.8-.8 1.4z"/><path fill="#f4e9e2" fill-opacity=".5" d="M240.7 209.7l-3.1.4-8-65.1 3.1-.4z"/><path fill="#af906c" fill-opacity=".5" d="M137.2 16.4l-19-11L130-14.7 149-4z"/><path fill="#81bad2" fill-opacity=".5" d="M269.3 19.2L335-20.3 376 48l-65.5 39.5z"/><path fill="#4b452e" fill-opacity=".5" d="M199.8 59l-1 1.3-62.7-49 1-1.3z"/><path fill="#ece7e2" fill-opacity=".5" d="M84.8 63.2l-4.1 6.6-70.2-43.9 4.1-6.6z"/><path fill="#12160e" fill-opacity=".5" d="M137 25.7l-6-1.8 2.3-7.5 6 1.9z"/><path fill="#c9a77b" fill-opacity=".5" d="M187.2 90.7l-57.6-40.3 3.6-5.2 57.5 40.4z"/><path fill="#d1e5ea" fill-opacity=".5" d="M268 67.1l13.4-13 2.2 2.2-13.5 13z"/><path fill="#b49775" fill-opacity=".5" d="M269.3 106.6L247 87.2l4.1-4.8 22.4 19.5z"/><path fill="#bcced5" fill-opacity=".5" d="M238.2 57.2l-1.9 2.5-107.3-81 1.9-2.4z"/><path fill="#0e0a01" fill-opacity=".5" d="M264.8 148.8L253 141l2.5-4 11.8 7.7z"/><path fill="#f2fbfb" fill-opacity=".5" d="M238.5 10l9.3.4-.3 6.2-9.4-.4z"/><path fill="#0d758f" fill-opacity=".5" d="M134.1 144.7l1.8-6 28.4 8.7-1.8 6z"/><path fill="#12141c" fill-opacity=".5" d="M238.8 141l-14.6-5.6 1.1-3 14.6 5.7z"/><path fill="#f9f8f8" fill-opacity=".5" d="M171.9 145v-1.6l45.3.7v1.6z"/><path fill="#fefdf6" fill-opacity=".5" d="M116.7 138.8l-.7 1.4L13 87.7l.7-1.4z"/><path fill="#d4aa7a" fill-opacity=".5" d="M127.8 101.2l53.1 38.5-1 1.3-53-38.6z"/><path fill="#217285" fill-opacity=".5" d="M156.7 156l-.8 1.3-79.8-46 .8-1.4z"/><path fill="#a7b9be" fill-opacity=".5" d="M287.3 100l101.2-56 .7 1.3-101.1 56z"/><path fill="#aa8f69" fill-opacity=".5" d="M-19 114.1l.8-1.4 66.8 34.1-.7 1.4z"/><path fill="#3c3c2b" fill-opacity=".5" d="M161.8 133.7l-3.5 5.2-31-21 3.4-5.2z"/><path fill="#2e261f" fill-opacity=".5" d="M88.8 39.2L88 38l12.3-6.8.8 1.3z"/><path fill="#5e5d53" fill-opacity=".5" d="M172.7 155.2l-3.2 60.9-18.7-1 3.2-60.9z"/><path fill="#e7dacf" fill-opacity=".5" d="M311 217.7l-35.8-22.4 9.1-14.5 35.8 22.3z"/><path fill="#7d8c99" fill-opacity=".5" d="M118.5-3.8l-9.9 12.1-3.6-3 9.8-12z"/><path fill="#1f6e86" fill-opacity=".5" d="M86.9 197l-33.4-17 5-9.8 33.3 17z"/><path fill="#7ea5b7" fill-opacity=".5" d="M-26 133.3l.5-1.5 59.4 24-.6 1.5z"/><path fill="#6c625d" fill-opacity=".5" d="M466.1 55.6l.7 1.4-137.6 67-.7-1.4z"/><path fill="#eed8c2" fill-opacity=".5" d="M79.4 2.8l.9-1.3L141 45.6l-1 1.3z"/><path fill="#958e89" fill-opacity=".5" d="M306 187.2l-1.1-3 118.8-48 1.1 3z"/><path fill="#a28c72" fill-opacity=".5" d="M257 126.4l-.8 1.3-61.6-40 .8-1.3z"/><path fill="#3d7788" fill-opacity=".5" d="M74.2 200.5L1.8 171.2l.6-1.4 72.4 29.3z"/><path fill="#0b2428" fill-opacity=".5" d="M.2-1.6l1.6.1-.4 4.7L-.2 3z"/><path fill="#0f160d" fill-opacity=".5" d="M47 159.4l-1.4-.5 2.7-7.4 1.4.6z"/><path fill="#6a5534" fill-opacity=".5" d="M51.6 22.1l-1.1-1 40.1-41.7 1.1 1.1z"/><path fill="#6d5a48" fill-opacity=".5" d="M113.3.9l19.2 13.4-3.6 5.1L109.7 6z"/><path fill="#ebe4df" fill-opacity=".5" d="M406 80.5l.7 1.4-67.4 32.9-.7-1.4z"/><path fill="#635957" fill-opacity=".5" d="M338.6 207l-.9-3 109.7-31.4.8 3z"/><path fill="#535c59" fill-opacity=".5" d="M189.5 97.9l1-1.2 52.9 41.3-1 1.3z"/><path fill="#036578" fill-opacity=".5" d="M141.3 73.5l-2.7 3.8L104 53.1l2.7-3.8z"/><path fill="#808484" fill-opacity=".5" d="M214.4 226.5l-6.8-77.8 20.2-1.8 6.8 77.8z"/><path fill="#6a767b" fill-opacity=".5" d="M115 110.8l19.4 13-.9 1.4-19.4-13.1z"/><path fill="#928b78" fill-opacity=".5" d="M272 174.2l-.6-1.5 45.7-20.3.6 1.4z"/><path fill="#faf0e5" fill-opacity=".5" d="M125 168.5l-.8 1.4L86 148.7l.7-1.4z"/><path fill="#f6dfd0" fill-opacity=".5" d="M-4 190l25.4 8.1-3.4 10.4-25.3-8.2z"/><path fill="#596361" fill-opacity=".5" d="M144.9 75l2.4-4 43.8 27.4-2.5 4z"/><path fill="#6eb1c6" fill-opacity=".5" d="M291.1 99.1l-16-9.6 7.2-12 16 9.6z"/><path fill="#357c8c" fill-opacity=".5" d="M133 145l-40-21.4.6-1.3 40 21.2z"/><path fill="#193a43" fill-opacity=".5" d="M7.7 168l12.9-32 1.4.6-12.9 31.9z"/><path fill="#d9cec6" fill-opacity=".5" d="M344.5 147.6l-36.8 17.2-.7-1.5 36.9-17.1z"/><path fill="#efebe9" fill-opacity=".5" d="M90.5 142.9l47.8 14.6-2.3 7.5-47.8-14.7z"/><path fill="#2e2a1f" fill-opacity=".5" d="M398 117.2l-4.3-4.5 6.7-6.5 4.4 4.5z"/><path fill="#bea385" fill-opacity=".5" d="M264.1 99.7l-1.9 2.5L150 17.5l2-2.5z"/><path fill="#c3a588" fill-opacity=".5" d="M33.2 52.2L3 36.1l3-5.5 30.3 16.1z"/><path fill="#958c86" fill-opacity=".5" d="M290.8 102.3l38.5-24 3.3 5.3-38.4 24z"/><path fill="#524435" fill-opacity=".5" d="M323.3 189.9l-1.9 7.6-18.2-4.6 2-7.6z"/><path fill="#534d42" fill-opacity=".5" d="M223.5 76.7l35.4 25.7-2.7 3.8-35.4-25.8z"/><path fill="#b8c6c8" fill-opacity=".5" d="M206.3 66.4l2.1-2.3 5.7 5.5-2.2 2.2z"/><path fill="#f4ece5" fill-opacity=".5" d="M272 133.6l-1 1.2-63.2-51.2 1-1.2z"/><path fill="#eae4de" fill-opacity=".5" d="M466.6 92l-134.2 59.7-.6-1.5L466 90.5z"/><path fill="#d5af83" fill-opacity=".5" d="M115.2 169.6l-2.7 5.6-79.3-37 2.7-5.6z"/><path fill="#55544f" fill-opacity=".5" d="M271.9 140.6v-17.2h1.5v17.2z"/><path fill="#195763" fill-opacity=".5" d="M149 76l76.4 51.5-.9 1.3-76.4-51.6z"/><path fill="#69676c" fill-opacity=".5" d="M392.3 46.5L360 65.8l-.8-1.3L391.5 45z"/><path fill="#8e8886" fill-opacity=".5" d="M412.2 90.2l4.5 10-74.2 33-4.5-10z"/><path fill="#d2e8ef" fill-opacity=".5" d="M218 23.4l4.2 4.7-10.5 9.4-4.2-4.6z"/><path fill="#97adbc" fill-opacity=".5" d="M219.8 76.3l-1 1.1-5.8-5.2 1-1.2z"/><path fill="#1b5e6e" fill-opacity=".5" d="M60.2 173.9l-.7 1.4-46.3-22.6.7-1.4z"/><path fill="#f1e5d7" fill-opacity=".5" d="M250.5 78l-.9 1.2L151 4.9l1-1.3z"/><path fill="#7294a1" fill-opacity=".5" d="M94.4 107L37.6 74l.8-1.3 56.8 32.8z"/><path fill="#55504d" fill-opacity=".5" d="M376.6 67.9l-47.8 26.5-.8-1.4 48-26.5z"/><path fill="#f3eeee" fill-opacity=".5" d="M189.7 68.4l-4.5 6.4-64-44.8 4.5-6.4z"/><path fill="#f7fdff" fill-opacity=".5" d="M97.6.4L98-1l6 2-.5 1.5z"/><path fill="#74b0c8" fill-opacity=".5" d="M217.5 16.3l-1.4-4.5 86.7-26.5 1.4 4.5z"/><path fill="#a79487" fill-opacity=".5" d="M327 107.7l-50.5 24.7-2-4.2 50.5-24.7z"/><path fill="#544330" fill-opacity=".5" d="M22.8 62.4l-4 8.5L-2.4 61l4-8.5z"/><path fill="#bcc5c4" fill-opacity=".5" d="M203.8 74.6l63.6 48-.9 1.2-63.6-48z"/><path fill="#897d75" fill-opacity=".5" d="M254.2 157.1l67.4-32.8.7 1.4-67.4 32.8z"/><path fill="#9f9994" fill-opacity=".5" d="M299.8 209.7l48.2-22.4.6 1.4-48.1 22.5z"/><path fill="#cabdae" fill-opacity=".5" d="M128.5 21.7l-.8 1.3L94.9 1.7l.9-1.3z"/><path fill="#9a8575" fill-opacity=".5" d="M271.1 163.9l-2 4.2-16.8-8.5 2.1-4.2z"/><path fill="#867d64" fill-opacity=".5" d="M9.5 136.3l-12-7.2.8-1.4 12 7.3z"/><path fill="#d0b591" fill-opacity=".5" d="M129.6 50.5L103.7 33l2.6-3.8 26 17.4z"/><path fill="#3e3b38" fill-opacity=".5" d="M270.7 122.1l-9-6.3 3.6-5 9 6.2z"/><path fill="#296675" fill-opacity=".5" d="M60.6 89.8l.7-1.3 98.4 54.5-.7 1.4z"/><path fill="#989292" fill-opacity=".5" d="M359.8 162.3l-39.3 19.2-6.9-14 39.4-19.3z"/><path fill="#d8e8ed" fill-opacity=".5" d="M245.7 44.6L240.1 64l-3-.9 5.6-19.5z"/><path fill="#131103" fill-opacity=".5" d="M32.5 55.8l1.2 1-21 23.3-1-1z"/><path fill="#836743" fill-opacity=".5" d="M71.1 20.6L90 31.9l-3.2 5.3L67.9 26z"/><path fill="#3b342d" fill-opacity=".5" d="M447.7 146.4l-129 52-2.3-5.7 129-52.1z"/><path fill="#e1d5c8" fill-opacity=".5" d="M271.2 124.2l33.4-17 .7 1.4-33.4 17z"/><path fill="#6f6860" fill-opacity=".5" d="M104.4 206.4l-10-12 21.5-18 10 12z"/><path fill="#ad9273" fill-opacity=".5" d="M38.9-18.8l.8-1.2 138.6 93.4-.8 1.3z"/><path fill="#6b665b" fill-opacity=".5" d="M321.1 150.3l155.6-69.2.6 1.4-155.6 69.3z"/><path fill="#6a8f9d" fill-opacity=".5" d="M35.4 158.6L16.8 147l2.5-4L38 154.6z"/><path fill="#837e7e" fill-opacity=".5" d="M413 47.4l-91 48.4-2.2-4.1 91-48.4z"/><path fill="#d7ccc1" fill-opacity=".5" d="M245.8 159.8l-.7-1.4 13.8-7.3.7 1.4z"/><path fill="#68757f" fill-opacity=".5" d="M39 23.7l-1-1.1L78-19l1.1 1z"/><path fill="#34321f" fill-opacity=".5" d="M101.5 180.1l-.7 1.4-32-16.3.7-1.4z"/><path fill="#70b0c7" fill-opacity=".5" d="M231.4 50.3L259.6 19l1.2 1-28.2 31.4z"/><path fill="#7fa8b7" fill-opacity=".5" d="M92.3 49.8L104 60l-1 1.2-11.9-10.3z"/><path fill="#516b74" fill-opacity=".5" d="M83 49.6l-1.1-1 8.5-9.2 1.2 1z"/><path fill="#47493c" fill-opacity=".5" d="M95.4 29.4l24.3 19.7-1 1.2-24.3-19.7z"/><path fill="#f3eeea" fill-opacity=".5" d="M29.8 95.6L-4 79.2l.7-1.4 33.7 16.4z"/><path fill="#c0b4ac" fill-opacity=".5" d="M146.3 158.6l-.7 1.4-49.7-26.4.7-1.4z"/><path fill="#4b4230" fill-opacity=".5" d="M276.4 169.5l73-35.7.7 1.4-73 35.7z"/><path fill="#483f32" fill-opacity=".5" d="M295.5 159.8l191.2-85.1.7 1.4L296 161.3z"/><path fill="#a38565" fill-opacity=".5" d="M8 46.3l.7-1.4 31.6 13.4-.6 1.5z"/><path fill="#74747b" fill-opacity=".5" d="M122 54.2l-1.6 2.6-25.2-15.7 1.6-2.6z"/><path fill="#a99a98" fill-opacity=".5" d="M430.2 180.5l.5 1.5-62.4 20.3-.5-1.5z"/><path fill="#ece4de" fill-opacity=".5" d="M260 165l-3 42-24.8-1.7 2.9-42z"/><path fill="#484240" fill-opacity=".5" d="M289.4 102.5l-.7 6.2-1.6-.2.8-6.2z"/><path fill="#c2a687" fill-opacity=".5" d="M152 13.8l-15.3-2.7.3-1.5 15.4 2.7z"/><path fill="#39331c" fill-opacity=".5" d="M131.4 24l-1.9-2.6L142 12l1.9 2.5z"/><path fill="#c9dee3" fill-opacity=".5" d="M229.8 37.2l3.8 5-8.7 6.6-3.8-5z"/><path fill="#8ba3ae" fill-opacity=".5" d="M15.8 144.5l-29.6 1.6-.4-7.8 29.6-1.6z"/><path fill="#c8a782" fill-opacity=".5" d="M177.9 79l1.8-2.5 72 52.3-1.7 2.5z"/><path fill="#0d768f" fill-opacity=".5" d="M106.8 53.3l26.5 16.5-4.2 6.6L102.6 60z"/><path fill="#f7e2d7" fill-opacity=".5" d="M433.8 178.8l.6 1.4-88.5 39.4-.6-1.4z"/><path fill="#71a9bb" fill-opacity=".5" d="M217 46.8l-1.2-1 12.5-16 1.2 1z"/><path fill="#ece7e3" fill-opacity=".5" d="M102.8 141.4L96.2 152l-31.8-20 6.6-10.5z"/><path fill="#c7ab8c" fill-opacity=".5" d="M97.1-32l107.1 83.7-2.9 3.7-107-83.7z"/><path fill="#185668" fill-opacity=".5" d="M26.2 171.3l-29.8-13.8 4-8.5L30 162.8z"/><path fill="#504639" fill-opacity=".5" d="M288.8 112l-10.7-2.2.3-1.5 10.7 2.2z"/><path fill="#e3ecee" fill-opacity=".5" d="M276.4 72.6l-39-1.4.2-7.8 39 1.3z"/><path fill="#b8b7b1" fill-opacity=".5" d="M85.9 54L2.4 2 3.2.5l83.5 52.2z"/><path fill="#c3a37e" fill-opacity=".5" d="M76.3 81L44.5 61l5.8-9.3 31.7 20z"/><path fill="#736e6a" fill-opacity=".5" d="M399.7 60.4l.8 1.4-64.3 35.6-.7-1.4z"/><path fill="#d4c9c0" fill-opacity=".5" d="M51.5 208l-.7 1.3-53.8-25 .6-1.5z"/><path fill="#166e87" fill-opacity=".5" d="M25.4 85.7l.8-1.4 106.2 56.5-.7 1.4z"/><path fill="#839499" fill-opacity=".5" d="M123 51.8l12.7 9.2-1 1.3-12.6-9.2z"/><path fill="#696e75" fill-opacity=".5" d="M179.2 47l1-1.3 11 8.9-1 1.2z"/><path fill="#362d1e" fill-opacity=".5" d="M287.8 134.2l-10.7 6.4-.8-1.3 10.7-6.5z"/><path fill="#352e24" fill-opacity=".5" d="M66 37l.8-1.4L82.5 46l-.8 1.3z"/><path fill="#8c8383" fill-opacity=".5" d="M409.7 69.1l-76 40.4-4.3-8.3 75.9-40.4z"/><path fill="#a99f97" fill-opacity=".5" d="M323.7 128.9l4 8.5-62.3 29-4-8.5z"/><path fill="#a6aaa7" fill-opacity=".5" d="M139 63.3h1.6v6.2h-1.5z"/><path fill="#ded6d5" fill-opacity=".5" d="M89.2 55.6l.9-1.2 19.2 13.4-1 1.3z"/><path fill="#d0cec8" fill-opacity=".5" d="M180.5 142.4V141l50 2.6-.1 1.6z"/><path fill="#2d2f28" fill-opacity=".5" d="M110 103.2l7.3 5.8-3.8 5-7.4-5.8z"/><path fill="#12778c" fill-opacity=".5" d="M207.8 125.3l-46-26.6 3.9-6.8 46 26.6z"/><path fill="#7f776f" fill-opacity=".5" d="M289.2 136.6l-.7-1.4 80-39 .8 1.4z"/><path fill="#a2cade" fill-opacity=".5" d="M261.1 55.6l-13.7-17 2.4-2 13.8 17z"/><path fill="#a69f93" fill-opacity=".5" d="M231.3 149.2V193h-1.6v-43.8z"/><path fill="#e6dad1" fill-opacity=".5" d="M262.2 182.2l-.6-1.5 43.4-17.5.6 1.4z"/><path fill="#3f3e25" fill-opacity=".5" d="M177.3 143l-25.3-8 .5-1.4 25.4 7.7z"/><path fill="#3090ab" fill-opacity=".5" d="M96.6 52.2l-4.7-6.3 3.7-2.8 4.7 6.3z"/><path fill="#aa977c" fill-opacity=".5" d="M127 99L73.9 69.5l.7-1.4 53.3 29.6z"/><path fill="#e5dbd7" fill-opacity=".5" d="M434.2 159l.5 1.4L261.1 227l-.5-1.4z"/><path fill="#79b5cc" fill-opacity=".5" d="M248.4 14.3L269.6 9l11.7 47-21.2 5.3z"/><path fill="#a89892" fill-opacity=".5" d="M.2 187.5l51.8 22-.6 1.4-51.8-22z"/><path fill="#d8eaf1" fill-opacity=".5" d="M251.7 11.3l-7.5 10-3.7-2.9 7.5-10z"/><path fill="#574e39" fill-opacity=".5" d="M270.6 110.6l-46.8-34 1-1.3 46.7 34z"/><path fill="#3b849c" fill-opacity=".5" d="M65.1 181.2l7.4 2.4-4.8 14.9-7.4-2.4z"/><path fill="#788182" fill-opacity=".5" d="M175.4 91.1l-1 1.3-13.8-10.1.9-1.3z"/><path fill="#ba9f7d" fill-opacity=".5" d="M164.4 123.6l.8-1.4 34.4 18.3-.7 1.4z"/><path fill="#f2eae6" fill-opacity=".5" d="M141.7 160.4l-10.6 6.6-2.5-4 10.6-6.6z"/><path fill="#382e17" fill-opacity=".5" d="M71.2 161.3l.6-1.4 27.3 11.6-.6 1.4z"/><path fill="#ebe0dc" fill-opacity=".5" d="M-2.7 85.4l31.4 14-8.9 20-31.4-14z"/><path fill="#4d4030" fill-opacity=".5" d="M291.1 160.5l65.5-33.3.7 1.4-65.4 33.3z"/><path fill="#6fb1cb" fill-opacity=".5" d="M172.8 9.4L169.4.6l21.9-8.4 3.4 8.8z"/><path fill="#ad9478" fill-opacity=".5" d="M158.7 14.7l63.2 46-1 1.2-63.1-46z"/><path fill="#9c8464" fill-opacity=".5" d="M23.5 37l80.4 48.2-.8 1.3-80.4-48.3z"/><path fill="#8a8d90" fill-opacity=".5" d="M183.9 253.5l-15.6-.9 5.6-107.6 15.6.8z"/><path fill="#514436" fill-opacity=".5" d="M314.2 188l32.3-15.8 3.4 7-32.3 15.8z"/><path fill="#141d1f" fill-opacity=".5" d="M254.7 144.7l-5.3 7.7-2.6-1.8 5.4-7.7z"/><path fill="#277e8b" fill-opacity=".5" d="M172 50.3l27.2 18.4-.9 1.3-27.2-18.4z"/><path fill="#535b54" fill-opacity=".5" d="M104 106.1l-1 1.3-74-46.3.8-1.4z"/><path fill="#565e5c" fill-opacity=".5" d="M121 51.5l-.8 1.3L93 34.4l.9-1.3z"/><path fill="#7e716f" fill-opacity=".5" d="M317.7 87.5l56-31 .8 1.3-56 31z"/><path fill="#f0e7e1" fill-opacity=".5" d="M217.4 95.9l3.7-5 50.5 36.7-3.6 5z"/><path fill="#65a3ba" fill-opacity=".5" d="M76.5 201.6l-3-13.8 1.6-.3 3 13.7z"/><path fill="#0f0d0a" fill-opacity=".5" d="M276.9 118.1l6.2-4.7 1 1.3-6.3 4.7z"/><path fill="#769fb2" fill-opacity=".5" d="M11.3 146.5l26.5 13.4-.7 1.4L10.6 148z"/><path fill="#ece8e6" fill-opacity=".5" d="M57.5 39.3l25.7 14.8-4.7 8.2-25.7-14.9z"/><path fill="#8d7c6c" fill-opacity=".5" d="M309.1 179.7l-3.5 10.3-16.3-5.6 3.6-10.3z"/><path fill="#98918c" fill-opacity=".5" d="M346.3 116l6 12.7-28.3 13.2-6-12.8z"/><path fill="#737470" fill-opacity=".5" d="M271 137.5v-7.8h6.3v7.8z"/><path fill="#443c2b" fill-opacity=".5" d="M188 50.3l1-1.3 18.3 14.8-1 1.2z"/><path fill="#595c55" fill-opacity=".5" d="M163.6 240.4l-1.6-.1 10.3-98 1.6.2z"/><path fill="#514a35" fill-opacity=".5" d="M237.5 124.7l14.4 9.4-3.4 5.2L234 130z"/><path fill="#f0ded6" fill-opacity=".5" d="M-1.8 77.4l62.2 36-.8 1.3-62.2-35.9z"/><path fill="#c1b0a7" fill-opacity=".5" d="M47.6 107.1l35.2 20.3-.8 1.4-35-20.3z"/><path fill="#cfb99e" fill-opacity=".5" d="M113.3 178.2l-3.2-5.4 9.4-5.6 3.2 5.3z"/><path fill="#928b7f" fill-opacity=".5" d="M92.1-14.9L44.7 20.8l-1-1.2 47.5-35.7z"/><path fill="#f9f6f2" fill-opacity=".5" d="M-37 172.9l.4-1.5 112.7 32.3-.5 1.5z"/><path fill="#3e362e" fill-opacity=".5" d="M294 132.2l-.7-1.4 164.3-80.2.7 1.4z"/><path fill="#c5a37c" fill-opacity=".5" d="M131.3 109.4l8.7 6.5-1 1.3-8.7-6.6z"/><path fill="#a79680" fill-opacity=".5" d="M190.7 81.6L218 99.9l-.8 1.3L189.9 83z"/><path fill="#493e1f" fill-opacity=".5" d="M164.3 141.2l6.2-7 1.2 1.1-6.3 7z"/><path fill="#8bbdcf" fill-opacity=".5" d="M279.2 90l-7.2-2.9 12.8-31.8 7.3 2.9z"/><path fill="#a3835f" fill-opacity=".5" d="M61.1 13.5l2.6-3.8L78 19.3l-2.7 3.9z"/><path fill="#807773" fill-opacity=".5" d="M416 144.1l-44 16-2.1-5.8 44-16z"/><path fill="#84b7c9" fill-opacity=".5" d="M193.3-7.6l6.2-.4 2.5 36-6.2.4z"/><path fill="#856748" fill-opacity=".5" d="M187.2 91.3l1-1.3 51.1 35.9-.9 1.3z"/><path fill="#222826" fill-opacity=".5" d="M67.8 88.3h-3.1l.3-9.4h3.1z"/><path fill="#f0f8f4" fill-opacity=".5" d="M99 127.8l48.2 29-.8 1.3-48.3-29z"/><path fill="#cadee7" fill-opacity=".5" d="M261.2 69.4l6.7-6.6 10 10-6.7 6.6z"/><path fill="#171f13" fill-opacity=".5" d="M92 35l.9 1.3-11.4 8.3-1-1.3z"/><path fill="#232417" fill-opacity=".5" d="M90.5 100l-1.5-.7 3.3-7 1.5.6z"/><path fill="#2d839d" fill-opacity=".5" d="M94.4 192.6l-31.6-13.4.6-1.5L95 191.2z"/><path fill="#d0e8ed" fill-opacity=".5" d="M195 13.2l-1 7.7-9.3-1.3 1-7.7z"/><path fill="#b7a99f" fill-opacity=".5" d="M-3.2 82l36.9 20.5-.8 1.4L-4 83.4z"/><path fill="#c5c5c5" fill-opacity=".5" d="M199 72.7l-1 1.3-29.7-20.1.8-1.3z"/><path fill="#625444" fill-opacity=".5" d="M69.6 27.7L54.9 33l-1-2.9 14.6-5.3z"/><path fill="#69655d" fill-opacity=".5" d="M115.3 176.8l12.5 18-38.4 26.8L77 203.7z"/><path fill="#eeeae6" fill-opacity=".5" d="M46.3 124.6l53.5 32.2-.8 1.4L45.5 126z"/><path fill="#165e71" fill-opacity=".5" d="M65.2 178.2l-5 14.8-20.7-7.1 5-14.8z"/><path fill="#f0e9e1" fill-opacity=".5" d="M281.4 102.4l-56.9-41.3 1.9-2.6 56.9 41.4z"/><path fill="#1a1712" fill-opacity=".5" d="M12.8 81L-8 70l3-5.6 20.6 11z"/><path fill="#4d95ae" fill-opacity=".5" d="M15.8-5.6L24.7.8 20 7.2 11.2.7z"/><path fill="#4a8795" fill-opacity=".5" d="M50.9 100.9l-.8 1.3-24.4-14 .8-1.4z"/><path fill="#675e5b" fill-opacity=".5" d="M373.6 70.5l-.7-1.3 52-28.8.7 1.4z"/><path fill="#857a80" fill-opacity=".5" d="M353.8 69.6L400.2 44l3.8 6.8-46.4 25.8z"/><path fill="#1b8199" fill-opacity=".5" d="M221.7 83.8l27.8 20.2-.9 1.3L220.8 85z"/><path fill="#cec6bc" fill-opacity=".5" d="M275 143l47.8-23.3.6 1.4-47.7 23.3z"/><path fill="#f0e3d2" fill-opacity=".5" d="M195.7 137.4l-93.8-56.3.8-1.3 93.8 56.3z"/><path fill="#70acc2" fill-opacity=".5" d="M215.1 11.6l-42-3 .8-12.4 42.1 3z"/><path fill="#f7f0ea" fill-opacity=".5" d="M143 159.8l-.2 1.6-6.2-1 .3-1.5z"/><path fill="#4a3a28" fill-opacity=".5" d="M277 165.1l.6 4.7-9.4 1-.5-4.7z"/><path fill="#9a7f57" fill-opacity=".5" d="M.5 111.9l26.3 14-.8 1.3-26.2-14z"/><path fill="#7ebbd2" fill-opacity=".5" d="M423.6 25.6L318.7 81.4l-9.5-18L414.1 7.7z"/><path fill="#d1d2d1" fill-opacity=".5" d="M223.8 139l-.9 1.3-79.5-49.6.9-1.4z"/><path fill="#72adc6" fill-opacity=".5" d="M231.2 35l-8.8 3-2-5.8 8.8-3z"/><path fill="#45402d" fill-opacity=".5" d="M239.4 129l-65.6-42.6.9-1.3 65.5 42.6z"/><path fill="#0f1515" fill-opacity=".5" d="M250 153.6l-1-1.3 12-7.5.8 1.4z"/><path fill="#c0bfb6" fill-opacity=".5" d="M352.7 141.3l-1-1.3 9.7-7.8 1 1.2z"/><path fill="#e7e4e2" fill-opacity=".5" d="M-5.2 12.6l4.8-8 41.5 25-4.8 8z"/><path fill="#5a655a" fill-opacity=".5" d="M251.1 100.9l-32.8-24 .9-1.2L252 99.6z"/><path fill="#88c0d7" fill-opacity=".5" d="M316-9l98.6-39.8 24 59.4-98.5 39.8z"/><path fill="#050000" fill-opacity=".5" d="M16.8 139l.8-4.7 1.5.2-.7 4.7z"/><path fill="#828880" fill-opacity=".5" d="M15.6 143l-9.2-1.8 1.5-7.6 9.2 1.7z"/><path fill="#e9dfd8" fill-opacity=".5" d="M229 160.4l8-9.7 88.6 71.7-7.9 9.8z"/><path fill="#5f8086" fill-opacity=".5" d="M153 156.3l19.8-12.4.8 1.3-19.8 12.5z"/><path fill="#848482" fill-opacity=".5" d="M229 160.2h-40.7v-12.5h40.6z"/><path fill="#295c6a" fill-opacity=".5" d="M70.4 197.1l-1.5-.5 9.2-26.6 1.4.6z"/><path fill="#498792" fill-opacity=".5" d="M146.5 31.6l-8.1-7.3 1-1.2 8.2 7.3z"/><path fill="#211e21" fill-opacity=".5" d="M122.1 55.6l-.4-3.1 1.5-.2.4 3z"/><path fill="#524940" fill-opacity=".5" d="M311.2 121.8l37.9-18.5.7 1.4-38 18.5z"/><path fill="#80a8b7" fill-opacity=".5" d="M62.6 172.6l-36.8-17.2.7-1.4 36.8 17.2z"/><path fill="#656653" fill-opacity=".5" d="M51.7 154.1l21.6 12.5-1.5 2.7L50 156.8z"/><path fill="#625d57" fill-opacity=".5" d="M170.3 214H125v-35.9h45.3z"/><path fill="#595b55" fill-opacity=".5" d="M137.8 61.6L221 120l-1 1.3-83-58.4z"/><path fill="#608a96" fill-opacity=".5" d="M96.8 186l-.8 1.4-50.6-28 .8-1.4z"/><path fill="#89786b" fill-opacity=".5" d="M267 168l-2.2-2.2 1-1 2.3 2.2z"/><path fill="#9ebecc" fill-opacity=".5" d="M44.3 13.8L28.1 1.5l10.4-13.7L54.7 0z"/><path fill="#2b3334" fill-opacity=".5" d="M258.1 139l-10.3 13.7-7.5-5.7 10.3-13.7z"/><path fill="#cfab82" fill-opacity=".5" d="M63.1 63.9l72.3 43.4-3.2 5.4L60 69.2z"/><path fill="#9e8c7c" fill-opacity=".5" d="M275.2 137.5l-1-1.2 17.8-12.9.9 1.3z"/><path fill="#4ba5c6" fill-opacity=".5" d="M153.1 83.6l-11.5-4.9.6-1.4 11.5 4.9z"/><path fill="#545c63" fill-opacity=".5" d="M238.2 140l12.4-1.8.2 1.5-12.3 1.8z"/><path fill="#634f37" fill-opacity=".5" d="M222 74l-27.8-20.2 1-1.3L223 72.8z"/><path fill="#463d33" fill-opacity=".5" d="M342.5 175.2l61.2-23.5 2.3 5.9-61.3 23.5z"/><path fill="#423d27" fill-opacity=".5" d="M19.6 136.4l.7-1.4 49.2 24-.7 1.3z"/><path fill="#27879b" fill-opacity=".5" d="M236.3 95.8l-.9 1.3-14-10.1 1-1.3z"/><path fill="#514231" fill-opacity=".5" d="M304.3 189l1-1.1 10.7 9-1 1.2z"/><path fill="#eeeae7" fill-opacity=".5" d="M278 99L160 3.8l1-1.2 118 95.3z"/><path fill="#a69272" fill-opacity=".5" d="M82.6 21l.9-1.3L169 77.4l-1 1.3z"/><path fill="#d0cecb" fill-opacity=".5" d="M80.3 51.4l.8-1.3 90.1 56.3-.8 1.3z"/><path fill="#3a7489" fill-opacity=".5" d="M77.3 173l.8-1.4L99.3 185l-.8 1.3z"/><path fill="#94afb5" fill-opacity=".5" d="M136.6 60.4l4.5 4.3-4.2 4.6-4.6-4.3z"/><path fill="#f2efeb" fill-opacity=".5" d="M158.9 107.4l-.7 1.4-78-39.7.7-1.4z"/><path fill="#786349" fill-opacity=".5" d="M135.2 15.8l-1.6 2.6-17.3-10.7L118 5z"/><path fill="#9b8066" fill-opacity=".5" d="M29.4 57.5l-58-30.8.8-1.4 58 30.8z"/><path fill="#4291a8" fill-opacity=".5" d="M107.6 51.1l-1.5 4.5-6-2 1.6-4.5z"/><path fill="#0b5164" fill-opacity=".5" d="M78 196.3l-1.7-2.7 6.7-4 1.6 2.7z"/><path fill="#f3fcfb" fill-opacity=".5" d="M98.4 131.4l-77.2-41 .7-1.5L99.2 130z"/><path fill="#6c929e" fill-opacity=".5" d="M71.7 92.9l.7-1.4 73.1 42.2-.8 1.4z"/><path fill="#a19993" fill-opacity=".5" d="M3 78.8l.8-1.4 13.5 7.9-.8 1.3z"/><path fill="#225769" fill-opacity=".5" d="M45.7 157h1.6l-.9 25H45z"/><path fill="#182429" fill-opacity=".5" d="M138.5 26.2l-1.5.4-2.1-7.5 1.5-.4z"/><path fill="#2a5260" fill-opacity=".5" d="M89.7 36.9l51.2 35.9-1 1.2-51.1-35.8z"/><path fill="#8b979e" fill-opacity=".5" d="M112.6-3.2l1.2 6.2-9.2 1.7-1.2-6z"/><path fill="#b8d3df" fill-opacity=".5" d="M279.8 73l1 4.6-21.6 4.1-.9-4.6z"/><path fill="#89827e" fill-opacity=".5" d="M346.8 102l44.7-25.7.7 1.3-44.6 25.8z"/><path fill="#877d7b" fill-opacity=".5" d="M340.8 192.9l-.5-1.4 58-23.5.5 1.5z"/><path fill="#f5e5de" fill-opacity=".5" d="M286.9 100.3l-2 7.6-1.4-.4 1.8-7.6z"/><path fill="#3a3023" fill-opacity=".5" d="M53 19.9l-6.5 6.6-1.1-1 6.6-6.7z"/><path fill="#373536" fill-opacity=".5" d="M231.3 84.7l.9-1.3 13 8.5-.8 1.3z"/><path fill="#8b735b" fill-opacity=".5" d="M267 133l-4.9 6.2-2.5-2 4.9-6z"/><path fill="#265b67" fill-opacity=".5" d="M185.2 102.2l.9-1.3 45.9 29.7-.9 1.4z"/><path fill="#20323d" fill-opacity=".5" d="M272.8 119.3l-51.2-35.8 1-1.3 51.1 35.9z"/><path fill="#cdb192" fill-opacity=".5" d="M122.4 38.2l-3.6 5.1-11.5-8 3.6-5.2z"/><path fill="#372d26" fill-opacity=".5" d="M425.8 95.2l.7 1.3-53.8 28.7-.8-1.4z"/><path fill="#050a14" fill-opacity=".5" d="M23.4 77.2l-3.2 7.2-1.4-.7 3.2-7.1z"/><path fill="#b9d4d7" fill-opacity=".5" d="M29.6 17.8L-3.9-2.4l.8-1.3 33.5 20.1z"/><path fill="#97938e" fill-opacity=".5" d="M314 179l-4-12 12-3.8 3.8 12z"/><path fill="#ebe7e5" fill-opacity=".5" d="M79.2 135l-5 9.8L.6 107.2l5-9.8z"/><path fill="#c2a47f" fill-opacity=".5" d="M175.7 126.5l-2.2 4.1-38.3-21.2 2.3-4z"/><path fill="#b3aca7" fill-opacity=".5" d="M253 157.2l-.8 1.3-35-23.6 1-1.2z"/><path fill="#43839a" fill-opacity=".5" d="M205.8 78l-1-1 6.6-6.6 1 1z"/><path fill="#eadece" fill-opacity=".5" d="M256 125.4l-55-38.6.8-1.2 55 38.5z"/><path fill="#1d3748" fill-opacity=".5" d="M180.9 53.9l-45.5-33 .9-1.3 45.5 33z"/><path fill="#373829" fill-opacity=".5" d="M274.1 113.2L251.6 99l.8-1.3 22.6 14z"/><path fill="#9a8a73" fill-opacity=".5" d="M266 96.5l1-1.2 12.2 9.8-1 1.2z"/><path fill="#8faebe" fill-opacity=".5" d="M130.6 63.7l-7.4-5.8 1-1.2 7.3 5.7z"/><path fill="#0289a5" fill-opacity=".5" d="M155.7 92.4l-13.9-10.1 1-1.3 13.8 10.1z"/><path fill="#6e583d" fill-opacity=".5" d="M82.3 38.9l11-8.7 1 1.2-11 8.7z"/><path fill="#8e858c" fill-opacity=".5" d="M354.8 65.5l7.6 5.4-6.2 9-7.7-5.5z"/><path fill="#593e22" fill-opacity=".5" d="M111.5 180l-6.6-4 .8-1.4 6.6 4.2z"/><path fill="#94c2d1" fill-opacity=".5" d="M232.9 49.6l4.6-29.3 3 .4-4.6 29.4z"/><path fill="#9f9b97" fill-opacity=".5" d="M182.8 145.3h45.3v1.6h-45.3z"/><path fill="#3b382c" fill-opacity=".5" d="M159.6 25.1l8.7 13-1.3.8-8.7-13z"/><path fill="#a4907d" fill-opacity=".5" d="M280.3 136l-9.1-12.7 6.3-4.6 9.2 12.7z"/><path fill="#908987" fill-opacity=".5" d="M441 84.5l-97.7 45.6-4.6-10 97.7-45.5z"/><path fill="#aab1ad" fill-opacity=".5" d="M211.3 66.9l8.1 7.3-1 1.1-8.1-7.3z"/><path fill="#c5a688" fill-opacity=".5" d="M167 23.5l99.8 75.2-1 1.3L166 24.7z"/><path fill="#1b8098" fill-opacity=".5" d="M196.6 110.5l30.5 19-3.4 5.3-30.4-19z"/><path fill="#bc9c7c" fill-opacity=".5" d="M63.9 9.8l3.2-5.4 36.2 21.8-3.2 5.3z"/><path fill="#c9d2d5" fill-opacity=".5" d="M37.3 22l-6.7-4 2.4-4 6.7 4z"/><path fill="#007a90" fill-opacity=".5" d="M137.2 81l-14.4-12 4-4.8 14.4 12z"/><path fill="#c49e6f" fill-opacity=".5" d="M-3.2 116.7l34.4 10.5-1.4 4.5-34.4-10.5z"/><path fill="#2e6c80" fill-opacity=".5" d="M31.2 180.6l3.6-12 7.5 2.3-3.7 12z"/><path fill="#0c7089" fill-opacity=".5" d="M64.7 96.6l.7-1.4 68.4 37.9-.8 1.4z"/><path fill="#7f726c" fill-opacity=".5" d="M358 199.2l-.5-1.5 20.4-7.8.6 1.4z"/><path fill="#75b4cd" fill-opacity=".5" d="M237.9 3.2l8.8-21.8 42 17-8.8 21.7z"/><path fill="#65615b" fill-opacity=".5" d="M148.4 203.8l-5.6-2.7 26-53.4 5.6 2.8z"/><path fill="#c1b2a8" fill-opacity=".5" d="M82 50l-.8 1.4-39.8-24.9.9-1.3z"/><path fill="#1e839f" fill-opacity=".5" d="M134 139.4l.9-4.6 13.8 2.4-.8 4.6z"/><path fill="#f8e4dc" fill-opacity=".5" d="M101.5 134.7L58.7 112l.8-1.4 42.7 22.7z"/><path fill="#2b1316" fill-opacity=".5" d="M222.2 133.6l8 4.9-.8 1.3-8-4.8z"/><path fill="#9ec7db" fill-opacity=".5" d="M225.7 13.1l-3-3.6 25-21 3 3.5z"/><path fill="#716c73" fill-opacity=".5" d="M389.4 47.9l15-8.6 4.6 8.1-14.9 8.6z"/><path fill="#1b2926" fill-opacity=".5" d="M239.2 135.8l-4.2 8.4-7-3.4 4.1-8.4z"/><path fill="#868a8e" fill-opacity=".5" d="M185 149.5l43.5 12.5-15 52.6-43.6-12.5z"/><path fill="#241d05" fill-opacity=".5" d="M102 180.9l2.2-7.5 1.5.4-2.1 7.5z"/><path fill="#8e7556" fill-opacity=".5" d="M1 24.2l1-1.3 29.7 20-.8 1.4z"/><path fill="#483e28" fill-opacity=".5" d="M157.8 71.8l-.8 1.4-16.4-9 .8-1.5z"/><path fill="#687171" fill-opacity=".5" d="M2.5 3.5L1.1 4l-2-6 1.4-.4z"/><path fill="#9b9189" fill-opacity=".5" d="M316 97.2l-20.6 11-3.7-7 20.7-11z"/><path fill="#eee9e6" fill-opacity=".5" d="M123.9 32.2L92.7 8.7l3.7-5 31.2 23.5z"/><path fill="#413b25" fill-opacity=".5" d="M136 117.7l-.7 1.3L31.1 59l.8-1.4z"/><path fill="#d0c3b8" fill-opacity=".5" d="M263.1 151l-.7-1.4 4.2-2.1.7 1.4z"/><path fill="#736c65" fill-opacity=".5" d="M433.8 43.2l.8 1.3-73.1 39-.8-1.5z"/><path fill="#d5d4d1" fill-opacity=".5" d="M208.3 37.4L263 81.7l-1 1.2-54.7-44.3z"/><path fill="#24728a" fill-opacity=".5" d="M47.6 89.5l-5.7 5.3-16-17.1 5.7-5.3z"/><path fill="#efeeea" fill-opacity=".5" d="M193.4 135l-49.8-32.4 5.1-7.9 49.8 32.4z"/><path fill="#cba97f" fill-opacity=".5" d="M62.8 148.3l49.2 24-1.4 2.8-49.1-24z"/><path fill="#dfccb9" fill-opacity=".5" d="M70.6 143l54.8 26.7-.7 1.4-54.8-26.7z"/><path fill="#1a6177" fill-opacity=".5" d="M60.3 105l-19.9-9.3 4-8.5 19.8 9.3z"/><path fill="#75b1c8" fill-opacity=".5" d="M218.4-22.8l12 42-28.5 8.3-12-42z"/><path fill="#d4cfca" fill-opacity=".5" d="M414.4 52.2l-89 45.4-.8-1.4 89.1-45.4z"/><path fill="#edece9" fill-opacity=".5" d="M167.1 58.9l62 45-1 1.3-61.9-45z"/><path fill="#c6a686" fill-opacity=".5" d="M186 88.8l.9-1.3 16 9.6-.7 1.4z"/><path fill="#866f59" fill-opacity=".5" d="M282 174.1l7.5 2-1.1 4.5-7.6-2z"/><path fill="#ddd4cd" fill-opacity=".5" d="M260 233.9l-1.5.2-10.7-75.8 1.6-.2z"/><path fill="#bb9e80" fill-opacity=".5" d="M44.7 53.6L40.3 60 13.1 41.7l4.4-6.5z"/><path fill="#afa092" fill-opacity=".5" d="M280.2 147.9l6.3 9-9 6.2-6.2-9z"/><path fill="#959998" fill-opacity=".5" d="M207 68.6l5.6-2.7.7 1.4-5.6 2.7z"/><path fill="#cec2b5" fill-opacity=".5" d="M270.3 171.3l11.8 7.7-.8 1.3-11.8-7.7z"/><path fill="#97c2d2" fill-opacity=".5" d="M207.8 78.9v-6.3h1.6V79z"/><path fill="#997f57" fill-opacity=".5" d="M272 106l5.7-2.3 1.9 4.3-5.8 2.4z"/><path fill="#d3e3e5" fill-opacity=".5" d="M207.3 37.1l7.3-8.1 4.7 4.2-7.4 8.1z"/><path fill="#e8eae9" fill-opacity=".5" d="M41.2 191.9l-.9 1.2-11.2-8.4 1-1.3z"/><path fill="#979590" fill-opacity=".5" d="M236.5 144.7l-.9 1.4-8-4.9.8-1.3z"/><path fill="#87acba" fill-opacity=".5" d="M36.6 3.8L31 15l-9.8-4.7L26.7-1z"/><path fill="#5f6b75" fill-opacity=".5" d="M39.1 71.2l46 26.6-.8 1.3-46-26.5z"/><path fill="#d5e3e9" fill-opacity=".5" d="M252 49.3l1.5.2-3.9 24.7-1.5-.3z"/><path fill="#ede9e5" fill-opacity=".5" d="M53.6 133.2l6.8-14 68.8 33.5-6.8 14z"/><path fill="#9a8e88" fill-opacity=".5" d="M353.5 96.5l-61.3 31.2-3.5-7 61.2-31.2z"/><path fill="#999185" fill-opacity=".5" d="M280 127.5l-.8 1.3-17-11 .8-1.3z"/><path fill="#030e0e" fill-opacity=".5" d="M86.9 47.5l3 .3-.2 3.1-3.1-.3z"/><path fill="#656462" fill-opacity=".5" d="M33.7 149.6l-.8 1.3-15-8.3.7-1.4z"/><path fill="#353227" fill-opacity=".5" d="M158.7 73l4.6 1-1.7 7.7-4.5-1z"/><path fill="#35302c" fill-opacity=".5" d="M339.1 191.2l-.6-1.4 120.8-51.3.6 1.4z"/><path fill="#3d4542" fill-opacity=".5" d="M131.6 123l.8-1.3 37.5 22.5-.8 1.3z"/><path fill="#165664" fill-opacity=".5" d="M59.5 105.4l6.1-16 1.5.5-6.2 16z"/><path fill="#523f2e" fill-opacity=".5" d="M227 76.3l-1 1.3-7.6-5.5 1-1.3z"/><path fill="#28606d" fill-opacity=".5" d="M27.7 180.4l-.7 1.4L-1.1 168l.7-1.4z"/><path fill="#baa27f" fill-opacity=".5" d="M78.9 80.2l1.4-.6 1.8 4.3-1.5.6z"/><path fill="#b0d0dc" fill-opacity=".5" d="M280.5 57v6.3h-28.2V57z"/><path fill="#646e69" fill-opacity=".5" d="M159.8 32.5l-1 1.3L138.7 19l1-1.3z"/><path fill="#a89279" fill-opacity=".5" d="M254.3 87l-1 1.2L119.1-16.7l1-1.2z"/><path fill="#a3cada" fill-opacity=".5" d="M223.5 28.4l-1.1-1.1 21.3-22.9 1.1 1.1z"/><path fill="#ddc9c5" fill-opacity=".5" d="M278.3 168.8l-.4 4.7-1.5-.1.4-4.7z"/><path fill="#c4a786" fill-opacity=".5" d="M205.4 52.4L129.6-2.7l1-1.3 75.8 55.1z"/><path fill="#69665f" fill-opacity=".5" d="M147.5 184.4l-10.7 2.5-4.6-19.8 10.7-2.4z"/><path fill="#77b3c7" fill-opacity=".5" d="M290.2 90.3l-13.7 3.4-2.6-10.6 13.6-3.4z"/><path fill="#cdbcb3" fill-opacity=".5" d="M58.7 114.7l.7-1.4 58.5 29.8-.7 1.4z"/><path fill="#037892" fill-opacity=".5" d="M160.8 89.5l1-1.2L200 115l-.9 1.3z"/><path fill="#443a2c" fill-opacity=".5" d="M320.9 146.2l-.6-1.4 66.6-27 .6 1.5z"/><path fill="#5c5e5a" fill-opacity=".5" d="M271.8 115.2l-1 1.2-25.4-20.6 1-1.3z"/><path fill="#777061" fill-opacity=".5" d="M252.3 155.8l4.3 4.5-1.1 1.1-4.3-4.6z"/><path fill="#897150" fill-opacity=".5" d="M55.2 20.8l2.2-5.9 26.4 9.6-2.1 5.9z"/><path fill="#ad8e70" fill-opacity=".5" d="M251.1 134.2l-2-6 4.4-1.4 2 5.9z"/><path fill="#ecddd0" fill-opacity=".5" d="M260.6 88.5l-23.7-17.9 1-1.3 23.6 18z"/><path fill="#a4cbdc" fill-opacity=".5" d="M261 50.3l-3 3.6-14.3-12 3-3.6z"/><path fill="#494d46" fill-opacity=".5" d="M169.5 199.2l-1.5-28 1.6-.1 1.4 28z"/><path fill="#554b3f" fill-opacity=".5" d="M119.5 2.5l-8.3 7.1-1-1.1 8.3-7.2z"/><path fill="#0d0d0b" fill-opacity=".5" d="M274.8 117.1l.9 1.3-5.2 3.5-.9-1.3z"/><path fill="#2a859a" fill-opacity=".5" d="M79.5 117.7l5.3-13 2.9 1-5.3 13.1z"/><path fill="#463d2f" fill-opacity=".5" d="M280 137l.4 1.6-15 4-.5-1.5z"/><path fill="#79aaad" fill-opacity=".5" d="M46.3 100.8l.8-1.4 8.2 4.5-.8 1.4z"/><path fill="#4b442d" fill-opacity=".5" d="M172.9 143.8l-12.2-7 2.4-4 12.1 7z"/><path fill="#fbf5f1" fill-opacity=".5" d="M-1.4 174.5l.7-1.4 78.6 38.3-.6 1.4z"/><path fill="#a6b6b3" fill-opacity=".5" d="M160.2 96.1l-.1 3.2-3.1-.1V96z"/><path fill="#edebe9" fill-opacity=".5" d="M271.4 91l-.9 1.2L120.8-20.6l.9-1.3z"/><path fill="#171c16" fill-opacity=".5" d="M26.1 64l1.4.9L19.2 78l-1.3-.8z"/><path fill="#565f59" fill-opacity=".5" d="M241.2 129.4l-1.2 6.1-4.6-.8 1.2-6.2z"/><path fill="#cce1ea" fill-opacity=".5" d="M244.5 19.8l-13-5.3.6-1.5 13 5.3z"/><path fill="#c6b6a2" fill-opacity=".5" d="M190.2 81.8l-29.8-20.1 1-1.3 29.7 20z"/><path fill="#bbb2ae" fill-opacity=".5" d="M341.2 113.1l-.8-1.4 26.2-13.9.8 1.4z"/><path fill="#3f9aab" fill-opacity=".5" d="M146 75.6l-3 10.6-3-1 3-10.4z"/><path fill="#404535" fill-opacity=".5" d="M87 171l-3 3.4-7-6.3 3.1-3.4z"/><path fill="#5c564f" fill-opacity=".5" d="M322.6 97.5l-.8-1.3 47.8-26.5.8 1.3z"/><path fill="#af9378" fill-opacity=".5" d="M22.1 52L-7 23.7l2.2-2.2 29.2 28.2z"/><path fill="#9c8e85" fill-opacity=".5" d="M312 161.7l.7 1.5-17 7.9-.6-1.4z"/><path fill="#596464" fill-opacity=".5" d="M91 103.7l2.7-7.4L98 98l-2.7 7.4z"/><path fill="#43392f" fill-opacity=".5" d="M48.6 24.4l-.7 1.5-4.3-1.9.6-1.4z"/><path fill="#c9e5ec" fill-opacity=".5" d="M234.2 21.6l-3.2 7.1-4.3-1.9 3.2-7.1z"/><path fill="#827d7a" fill-opacity=".5" d="M365.7 139.9l35.1-17.1.7 1.4-35.1 17.1z"/><path fill="#4c4034" fill-opacity=".5" d="M287.8 115l-7.7 1.2-.7-4.6 7.7-1.2z"/><path fill="#f1eff2" fill-opacity=".5" d="M130.5 89l-6.3 4.7-9.4-12.4 6.3-4.7z"/><path fill="#070100" fill-opacity=".5" d="M49.6 149l.8 3-1.5.5-.8-3z"/><path fill="#948d85" fill-opacity=".5" d="M298 94.8l20-3.5 1.1 6.1-20 3.5z"/><path fill="#5d5e4f" fill-opacity=".5" d="M192.4 55.5L182.1 52l2-6 10.4 3.6z"/><path fill="#aea3a0" fill-opacity=".5" d="M431.3 169.5l.5 1.5-64.6 23.5-.6-1.4z"/><path fill="#dfdad3" fill-opacity=".5" d="M-3 87.5l12 3.8-4.3 13.4-12-3.9z"/><path fill="#edede3" fill-opacity=".5" d="M225.4 145l-34.3-15.2.7-1.4 34.2 15.2z"/><path fill="#807a68" fill-opacity=".5" d="M315.2 151l3 1.1-.6 1.5-3-1z"/><path fill="#486275" fill-opacity=".5" d="M162.4 40l.9-1.3 10.2 7.2-.9 1.3z"/><path fill="#eeebe7" fill-opacity=".5" d="M160.7 48.2l92.3 67-2.8 3.8L158 52z"/><path fill="#8a8384" fill-opacity=".5" d="M351.8 152.4l18.4-12 7.6 11.9-18.3 11.9z"/><path fill="#615644" fill-opacity=".5" d="M52 20.4l.7-1.4L87 37.4l-.7 1.4z"/><path fill="#b9b9b2" fill-opacity=".5" d="M208.6 142.2H221v1.6h-12.5z"/><path fill="#c9b08d" fill-opacity=".5" d="M102.9 32.5l.5-7.8 7.8.6-.5 7.8z"/><path fill="#327f92" fill-opacity=".5" d="M127.6 75.5l-1 1.2-12-10 1-1.2z"/><path fill="#aad5e2" fill-opacity=".5" d="M64 198.9l.6-1.4 4.3 2-.7 1.4z"/><path fill="#2b7586" fill-opacity=".5" d="M47.8 192.3l-.3-4.7 3.1-.2.3 4.7z"/><path fill="#0d7c96" fill-opacity=".5" d="M177 103l1-1 12.2 12.1-1 1.1z"/><path fill="#c7b097" fill-opacity=".5" d="M254.7 92.2l-1 1.3L225 71.8l1-1.2z"/><path fill="#4d6267" fill-opacity=".5" d="M32.6 60.8l1.5.6-9 20-1.4-.6z"/><path fill="#9fc7d1" fill-opacity=".5" d="M195.5 9.9l-.4 4.6-11-1 .5-4.6z"/><path fill="#575f5e" fill-opacity=".5" d="M83.4 49.8l-1-1.1L96.3 36l1 1.2z"/><path fill="#e4e1dd" fill-opacity=".5" d="M345.7 147l-.7-1.4 35.8-19.1.8 1.4z"/><path fill="#242c2d" fill-opacity=".5" d="M273.7 113.3l.9 4.6-9.3 1.6-.8-4.6z"/><path fill="#4b4330" fill-opacity=".5" d="M288.2 132.2l6-1.8.4 1.5-6 1.8z"/><path fill="#ede7e7" fill-opacity=".5" d="M159.2-2.6l.7 1.4-11.3 5.3-.7-1.4z"/><path fill="#f0eae3" fill-opacity=".5" d="M51.5 202.6l-.6 1.5-54-20.8.6-1.4z"/><path fill="#a19895" fill-opacity=".5" d="M297.7 151.7l-3.3-5.3 34.5-21.5 3.3 5.3z"/><path fill="#f2ece9" fill-opacity=".5" d="M379 94.3l-2.5 1.8-.9-1.3 2.6-1.8z"/><path fill="#265968" fill-opacity=".5" d="M88.7 99.9l3.1.3-.8 7.8-3.1-.4z"/><path fill="#958d89" fill-opacity=".5" d="M331.2 127.4l23.4-1.7.1 1.6-23.4 1.6z"/><path fill="#cca678" fill-opacity=".5" d="M185.7 136.5l-.7 1.4-31.6-13.4.6-1.5z"/><path fill="#daeaf2" fill-opacity=".5" d="M234.9 58.3l5.4-9.5 1.4.8-5.5 9.4z"/><path fill="#b5dee5" fill-opacity=".5" d="M95.1 127.3l.8-1.4 26.2 14-.8 1.4z"/><path fill="#596c72" fill-opacity=".5" d="M235.6 133.4l-29.8-20.1.8-1.3 29.8 20z"/><path fill="#ede6df" fill-opacity=".5" d="M336 115l.7 1.3-36.8 17.2-.7-1.4z"/><path fill="#286d7b" fill-opacity=".5" d="M82.1 103l-54-31.2.7-1.4 54.1 31.3z"/><path fill="#13160f" fill-opacity=".5" d="M281.2 116.5l-1 1.2-9.8-7.7 1-1.2z"/><path fill="#6599a8" fill-opacity=".5" d="M65.8 168.3l-.7 1.4-16.8-8.3.6-1.4z"/><path fill="#2c2819" fill-opacity=".5" d="M155.8 127.9l1 7.7-4.7.6-1-7.8z"/><path fill="#f1e9e2" fill-opacity=".5" d="M237.4 233.5l-6-87.2 1.5-.2 6 87.3z"/><path fill="#665b4f" fill-opacity=".5" d="M99.4 193.3L79 207.7l-1.8-2.6 20.5-14.3z"/><path fill="#aac4cc" fill-opacity=".5" d="M143.3 34.8l-.5-1.5 3-1 .5 1.6z"/><path fill="#dfd1e5" fill-opacity=".5" d="M210.6 84.6l.7-3 4.6 1-.7 3z"/><path fill="#766667" fill-opacity=".5" d="M394.7 93l-.7-1.4 9.7-5 .7 1.5z"/><path fill="#9e978f" fill-opacity=".5" d="M343 172.5l-30.8 11.2-.5-1.5 30.8-11.2z"/><path fill="#498ba1" fill-opacity=".5" d="M56.6 196l-.5-1.5 4.5-1.4.5 1.5z"/><path fill="#e6e1df" fill-opacity=".5" d="M339 112.5v1.5l-4.6.1v-1.6z"/><path fill="#302412" fill-opacity=".5" d="M258.6 141.4l-13.4-8 .8-1.4 13.4 8z"/><path fill="#687873" fill-opacity=".5" d="M220.5 77.4l11.5 8-1 1.3-11.4-8z"/><path fill="#38382c" fill-opacity=".5" d="M161 29.8l2.2-2.1 15 16-2.4 2z"/><path fill="#5f9ab1" fill-opacity=".5" d="M68.4 203.8l7.3-10.1 1.3 1-7.4 10z"/><path fill="#6aa0b5" fill-opacity=".5" d="M31 151.7l12.4 9.4-1 1.3L30 153z"/><path fill="#8f908c" fill-opacity=".5" d="M107.3 7.4l-2.2-2.2 11-11 2.2 2.2z"/><path fill="#ccad89" fill-opacity=".5" d="M49.3 63.5l-12.8-5.9 3.3-7 12.8 5.9z"/><path fill="#e9e0d8" fill-opacity=".5" d="M330.5 148l.8 1.4-69.7 35.4-.7-1.4z"/><path fill="#7fb8d0" fill-opacity=".5" d="M326.2 39.6l.7 40.6-26.5.5-.8-40.6z"/><path fill="#978478" fill-opacity=".5" d="M305.8 108l1.5.5-5.3 16.3-1.5-.5z"/><path fill="#c0b9b0" fill-opacity=".5" d="M323.6 152.3l-.6-1.5 33-14 .7 1.4z"/><path fill="#ecebe4" fill-opacity=".5" d="M201 44.7l-3.1-7.2 5.7-2.5 3.2 7.1z"/><path fill="#5f635f" fill-opacity=".5" d="M59.8 81.2l-1 1.2-23.3-18.3 1-1.2z"/><path fill="#9d9790" fill-opacity=".5" d="M368.6 97.7l26.2-14 .7 1.4-26.2 14z"/><path fill="#5d7c7f" fill-opacity=".5" d="M103.8 185L58 214.8l-.9-1.3 45.9-29.8z"/><path fill="#ae8d65" fill-opacity=".5" d="M61 13l25.4-25.5 1 1.1L62.2 14z"/><path fill="#89bacd" fill-opacity=".5" d="M216 28l-13.7 3.3-1.1-4.5 13.6-3.4z"/><path fill="#686964" fill-opacity=".5" d="M141.3 174.1l1 4.6-38.3 8.1-1-4.6z"/><path fill="#c4a88b" fill-opacity=".5" d="M263.1 97.6L225 67.7l1-1.2 38 29.8z"/><path fill="#67929f" fill-opacity=".5" d="M113.4 115.6l.8-1.3 14.6 9.1-.8 1.3z"/><path fill="#a6cdd7" fill-opacity=".5" d="M231.3 31.6l-1-1.2 15-13.6 1 1.2z"/><path fill="#342304" fill-opacity=".5" d="M3 129.7l-5.3-3.3.8-1.4 5.3 3.3z"/><path fill="#4a4035" fill-opacity=".5" d="M79.8 38.4l-1.7 4.3-18.9-7.6 1.8-4.4z"/><path fill="#97c6d9" fill-opacity=".5" d="M285.2 81.2l-5.6-2.7 5.5-11.3 5.6 2.8z"/><path fill="#e3e2de" fill-opacity=".5" d="M353 137.7l5.6 3-.7 1.3-5.6-3z"/><path fill="#32879a" fill-opacity=".5" d="M242.5 100.6l1-1.2 18.7 14-1 1.3z"/><path fill="#f4d9c6" fill-opacity=".5" d="M75-1.5l1.4-.8L79.7 3l-1.4.8z"/><path fill="#92919a" fill-opacity=".5" d="M238.7 141.2l-.6-1.5 2.9-1.2.6 1.5z"/><path fill="#ada998" fill-opacity=".5" d="M133 25l-.9 1.2-7.4-5.8 1-1.2z"/><path fill="#83aabe" fill-opacity=".5" d="M13.4 147l-19.7-5 .7-3 19.7 5z"/><path fill="#cedce0" fill-opacity=".5" d="M177.4 13.9l.7-1.4 18 9.5-.8 1.4z"/><path fill="#437d8a" fill-opacity=".5" d="M214.6 130.5l-1 1.3-29.7-20.1.9-1.3z"/><path fill="#13798c" fill-opacity=".5" d="M165.7 147l-7.4 2.7-.5-1.4 7.3-2.7z"/><path fill="#ebe0d8" fill-opacity=".5" d="M267.3 147.7l35-17.1.8 1.4-35.2 17.1z"/><path fill="#847e83" fill-opacity=".5" d="M396.4 90.1l12.3 9.6-6.7 8.6-12.3-9.6z"/><path fill="#9a9389" fill-opacity=".5" d="M322 200.6l-2.8 1.4-2.1-4.2 2.8-1.4z"/><path fill="#f4e6d9" fill-opacity=".5" d="M281.6 105.8l2.5-7.4 1.5.5-2.5 7.4z"/><path fill="#4d5052" fill-opacity=".5" d="M172.5 147.7l-1.3 25-1.5-.1 1.3-25z"/><path fill="#94a09c" fill-opacity=".5" d="M20 14.6l-30-20 1-1.4 29.7 20.1z"/><path fill="#eceaea" fill-opacity=".5" d="M109 145.4l22.1 22.1-1 1.1-22.2-22z"/><path fill="#6eb4c9" fill-opacity=".5" d="M240 40.3l-1.3-.9 19.7-28.1 1.3.9z"/><path fill="#b6c9c3" fill-opacity=".5" d="M179 59.9l.9-1.3 24 17.5-1 1.2z"/><path fill="#e6d7cf" fill-opacity=".5" d="M254.5 160.6l18.6 16.7-1 1.2-18.6-16.8z"/><path fill="#e3d3bf" fill-opacity=".5" d="M187.7 77.5l20.8 14-1 1.3-20.6-14z"/><path fill="#776d73" fill-opacity=".5" d="M288.6 105.3l-1.3-1 3.8-5 1.2 1z"/><path fill="#271a0a" fill-opacity=".5" d="M15.6 143.8V139h1.6v4.7z"/><path fill="#81b3c6" fill-opacity=".5" d="M174.7 8.4l-1.2 1L161.2-7l1.3-.9z"/><path fill="#3c2e19" fill-opacity=".5" d="M295.8 159.1l-3.6-3 1-1.2 3.6 3z"/><path fill="#504b2d" fill-opacity=".5" d="M139.7 12.5l14.7 11.6-1.9 2.4L137.7 15z"/><path fill="#504439" fill-opacity=".5" d="M317.1 183.6l8.6 9.2-6.9 6.4-8.5-9.2z"/><path fill="#e6ddd7" fill-opacity=".5" d="M36.2 108.3L-1.7 89.8-.3 87l38 18.5z"/><path fill="#686f70" fill-opacity=".5" d="M15 83.8l-1.5-.7 1.3-2.8 1.4.6z"/><path fill="#171b08" fill-opacity=".5" d="M48.7 147l-.5 10.8h-1.6l.6-11z"/><path fill="#666459" fill-opacity=".5" d="M168.1 154.3l4.2 21.5-13.8 2.7-4.2-21.5z"/><path fill="#b1aca4" fill-opacity=".5" d="M366.4 129.7h3.1v1.5h-3z"/><path fill="#555b48" fill-opacity=".5" d="M123 111.8l9.6 8-1 1.2-9.5-8z"/><path fill="#c4a379" fill-opacity=".5" d="M180.5 78.4l-2.6 3.9-50.6-34.1 2.7-3.9z"/><path fill="#534732" fill-opacity=".5" d="M271.5 137l-2.7 7.3-4.4-1.6 2.7-7.3z"/><path fill="#a38566" fill-opacity=".5" d="M115.4 31.8l-55-35.7.8-1.3 55 35.7z"/><path fill="#c8beb0" fill-opacity=".5" d="M131.8 152.3l.7-1.4 15.4 7.8-.8 1.4z"/><path fill="#af9783" fill-opacity=".5" d="M223.1 66.2L226 70l-3.7 2.8-2.8-3.7z"/><path fill="#ab9064" fill-opacity=".5" d="M61.3 153.7l-6.4-4.5 1-1.3 6.3 4.5z"/><path fill="#4d402e" fill-opacity=".5" d="M273.3 166.8l.2 1.5-7.8.9-.1-1.6z"/><path fill="#9f8a78" fill-opacity=".5" d="M289 117.9l7.7-5.5 6.4 8.8-7.6 5.5z"/><path fill="#7c8487" fill-opacity=".5" d="M40.4 24l41.5-44.5 1.2 1-41.6 44.7z"/><path fill="#72969f" fill-opacity=".5" d="M30.7 70.8l.6-1.4 11.4 5-.6 1.5z"/></svg>