<svg xmlns="http://www.w3.org/2000/svg" viewBox="0 0 400 200"><path fill="#909b99" d="M0 0h400v200H0z"/><ellipse fill="#91e1ff" fill-opacity=".5" rx="1" ry="1" transform="matrix(.4355 -63.5352 109.8846 .75319 287.7 17.6)"/><ellipse fill="#00282f" fill-opacity=".5" rx="1" ry="1" transform="rotate(117.2 .6 60.3) scale(15.40462 134.5115)"/><ellipse fill="#fff" fill-opacity=".5" rx="1" ry="1" transform="matrix(-94.3528 -47.24836 7.2087 -14.39545 56.3 121.3)"/><ellipse fill="#fffff2" fill-opacity=".5" rx="1" ry="1" transform="matrix(-6.39004 10.14722 -119.0995 -75.00096 89.4 66.3)"/><ellipse fill="#05343e" fill-opacity=".5" rx="1" ry="1" transform="rotate(20.3 -441.2 173.6) scale(278.63911 19.00658)"/><ellipse fill="#fff" fill-opacity=".5" rx="1" ry="1" transform="matrix(-40.94145 -42.15192 16.81751 -16.33457 270.4 199.2)"/><ellipse fill="#3c4e46" fill-opacity=".5" rx="1" ry="1" transform="rotate(-57.1 204.3 -130.4) scale(12.8256 188.4202)"/><ellipse fill="#0e0000" fill-opacity=".5" rx="1" ry="1" transform="matrix(-75.40096 30.31099 -3.03693 -7.55461 382.7 166)"/><ellipse fill="#fff" fill-opacity=".5" rx="1" ry="1" transform="matrix(-139.95138 -95.8267 3.46877 -5.066 157.8 49.7)"/><ellipse fill="#82675d" fill-opacity=".5" rx="1" ry="1" transform="rotate(-118 205.2 -52.5) scale(33.74492 107.45734)"/><ellipse fill="#fff" fill-opacity=".5" rx="1" ry="1" transform="matrix(2.99366 -7.22732 58.90993 24.4013 37 194.6)"/><ellipse fill="#513b2d" fill-opacity=".5" rx="1" ry="1" transform="matrix(19.00462 10.8528 -25.97708 45.48917 141 199.2)"/><ellipse fill="#152922" fill-opacity=".5" rx="1" ry="1" transform="matrix(-3.94257 5.51026 -125.72407 -89.9551 154.2 30.7)"/><ellipse fill="#fff5e7" fill-opacity=".5" rx="1" ry="1" transform="matrix(-102.002 -82.483 4.66415 -5.76788 194 29.3)"/><ellipse fill="#fcf4f0" fill-opacity=".5" rx="1" ry="1" transform="rotate(-58.8 186.2 -95) scale(8.092 115.71427)"/><ellipse fill="#ffeee4" fill-opacity=".5" rx="1" ry="1" transform="matrix(-1.02038 -2.32777 197.46536 -86.55935 309.2 160.9)"/><ellipse fill="#2f200e" fill-opacity=".5" rx="1" ry="1" transform="matrix(-1.62938 -3.50353 76.51833 -35.58627 345.3 135.4)"/><ellipse fill="#13596a" fill-opacity=".5" rx="1" ry="1" transform="matrix(121.52301 69.03468 -3.4558 6.08332 168.9 93.1)"/><ellipse fill="#027191" fill-opacity=".5" rx="1" ry="1" transform="matrix(3.42946 -6.3692 89.85413 48.38147 101 121.2)"/><ellipse fill="#553811" fill-opacity=".5" rx="1" ry="1" transform="matrix(-2.31416 4.85173 -91.21274 -43.50625 17.3 137.5)"/><ellipse fill="#fff" fill-opacity=".5" rx="1" ry="1" transform="matrix(-79.61496 28.98007 -1.53504 -4.2171 360 191)"/><ellipse fill="#d5beaf" fill-opacity=".5" rx="1" ry="1" transform="rotate(155.2 122.6 106.4) scale(38.18225 10.17821)"/><ellipse fill="#fffced" fill-opacity=".5" rx="1" ry="1" transform="matrix(-3.10606 4.46404 -64.64736 -44.98135 205.6 85.9)"/><ellipse fill="#d6975c" fill-opacity=".5" rx="1" ry="1" transform="matrix(86.26924 50.55414 -3.70548 6.3233 60.5 64.9)"/><ellipse fill="#e6a15f" fill-opacity=".5" rx="1" ry="1" transform="matrix(89.7785 57.40098 -2.05553 3.21497 157.5 66.5)"/></svg>