<svg xmlns="http://www.w3.org/2000/svg" viewBox="0 0 400 200"><filter id="c"><feGaussianBlur stdDeviation="55" /></filter><path fill="#909b99" d="M0 0h400v200H0z"/><g filter='url(#c)' fill-opacity='.5'><path fill="#002932" fill-opacity=".5" d="M-7.6 34l184 106.2-14 24.3L-21.8 58.3z"/><path fill="#94e3ff" fill-opacity=".5" d="M302.3 119.1L163.8 14.8l76.1-101.1L378.4 18z"/><path fill="#fff" fill-opacity=".5" d="M141.2 150.4L127 178.2-30.3 98.1-16 70.2z"/><path fill="#fffff5" fill-opacity=".5" d="M209.4 154.3L-9.2 17.6 1.5.4 220.2 137z"/><path fill="#00313a" fill-opacity=".5" d="M-27.9 114.1l207 92.2-15.3 34.2-207-92.1z"/><path fill="#fff" fill-opacity=".5" d="M222.2 182.5l18.2-29.2 70.2 44-18.2 29z"/><path fill="#00323e" fill-opacity=".5" d="M111 66.2l9.8-15.9L272 144.7l-10 16z"/><path fill="#7c5f53" fill-opacity=".5" d="M300.1 207.9l-39.7-103.6 125.4-48.1 39.8 103.5z"/><path fill="#fffbe1" fill-opacity=".5" d="M81 8.8l10.2-14 160.5 116.7-10 14z"/><path fill="#2e2816" fill-opacity=".5" d="M106.7 63L40.4 21.4 51.2 4.3l66.2 41.4z"/></g></svg>