<svg xmlns="http://www.w3.org/2000/svg" viewBox="0 0 400 200"><path fill="#909b99" d="M0 0h400v200H0z"/><g fill-opacity=".5"><path fill="#95e6ff" d="M286.7 107L116.4-24.2 424.2 3.9z"/><path fill="#fff" d="M36.7 141.4l132.8 21.9-193.7-100z"/><path fill="#00373e" d="M185.2 168L58.6 54l-82.8 7.7z"/><path fill="#0b353c" d="M-24.2 116.4l229.7 95.3-165.7-21.9z"/><path fill="#ffffeb" d="M199.2 119.5l-223.4-136L71 83.6z"/><path fill="#fffffa" d="M163.3 102.3L343 216.4l-98.5-17.2z"/><path fill="#696458" d="M424.2 146l-100 56.3-273.4-178z"/><path fill="#fff" d="M147.7 39.8L196 97.7l64 15.6zM-14.8 168l156.2 56.2-156.2-7.8z"/><path fill="#5d5f5b" d="M161.7 224.2l76.6-64-112.5-50z"/><path fill="#ffffea" d="M221 83.6L82-7l57.8 65.6z"/><path fill="#120000" d="M360.2 161.7l-53.2 36 117.2-39.1z"/><path fill="#2e2f1e" d="M133.6 27.3l68.7 32.9L104-24.2z"/><path fill="#1e4648" d="M96 24.2l59.5 62.5L27.3 16.4z"/><path fill="#ffefe9" d="M246 38.3l47 71.9L147.7.8z"/><path fill="#fff0df" d="M-7 83.6l117.2 93.7 43.7-23.4z"/><path fill="#005067" d="M261.7 157l-139-84.3 81.2 21.8z"/><path fill="#806660" d="M413.3 33.6L268 111.7 422.7 132z"/><path fill="#422d19" d="M-2.3 74.2l-11-42.2 111 57.8z"/><path fill="#fffff1" d="M246 125.8l39.2 6.2-79.7-51.5z"/><path fill="#004b6d" d="M-24.2 122.7l104.7 78-92.2-35.9z"/><path fill="#fff4e3" d="M182 144.5l-75-75 131.3 75z"/><path fill="#876340" d="M2.3 113.3L129 218l112.5 4.7z"/><path fill="#060000" d="M280.5 136.7l-64-4.7 35.8 18.8z"/><path fill="#d8c5be" d="M254 179l139-58-61 50z"/></g></svg>