<svg xmlns="http://www.w3.org/2000/svg" viewBox="0 0 400 200"><filter id="c"><feGaussianBlur stdDeviation="55" /></filter><path fill="#909b99" d="M0 0h400v200H0z"/><g filter='url(#c)' fill-opacity='.5'><path fill="#002830" fill-opacity=".5" d="M170.1 136.5l-13.3 23L-12.3 62 1 38.9z"/><path fill="#fff" fill-opacity=".5" d="M145.2 150.1l-12.8 25.1-144.8-73.8 12.8-25z"/><path fill="#97e4ff" fill-opacity=".5" d="M372 19.3l-73.3 97.3-141-106.2L231-87z"/><path fill="#fff" fill-opacity=".5" d="M1-.3l217.3 135.8-8.3 13.2L-7.3 13z"/><path fill="#01313b" fill-opacity=".5" d="M-14.9 121L188 207l-15.2 36L-30 157z"/><path fill="#002125" fill-opacity=".5" d="M169.5 80.1l100.7 63-10 15.8L159.5 96z"/><path fill="#fff" fill-opacity=".5" d="M218.7 185.8l21.2-32.8 77.4 50.3L296 236z"/><path fill="#0b0000" fill-opacity=".5" d="M407.6 146.3l6 14.4-97.7 41.5-6.1-14.4z"/></g></svg>