<svg xmlns="http://www.w3.org/2000/svg" viewBox="0 0 400 200"><path fill="#909b99" d="M0 0h400v200H0z"/><path fill="#002b31" fill-opacity=".5" d="M-36 49.3l14.1-24.4L150 124.1l-14 24.4z"/><path fill="#fff" fill-opacity=".5" d="M-.3 78.3l140.6 71.6-13.5 26.5-140.6-71.7z"/><path fill="#87e0ff" fill-opacity=".5" d="M262.2 111.1L211 14.5 373.7-72 425 24.5z"/><path fill="#15393b" fill-opacity=".5" d="M173 188.9l-13 38.4-187.7-64.6 13.3-38.4z"/><path fill="#040000" fill-opacity=".5" d="M455.9 130.5l4.6 11.6-149.2 60.2-4.7-11.5z"/><path fill="#fff" fill-opacity=".5" d="M221 185.7l19.8-31.8 74.2 46.4-19.9 31.8z"/><path fill="#fff" fill-opacity=".5" d="M237.5 167.5L-7.5 14.3l9-14.6L246.7 153z"/><path fill="#2c4039" fill-opacity=".5" d="M287.2 178.2L158.7 94.8l12-18.3L299 159.9z"/><path fill="#fff7db" fill-opacity=".5" d="M261.9 140.1l-201-146 10-14 201 146.1z"/><path fill="#091e18" fill-opacity=".5" d="M284.8 117.7l-6.4 8.9L129.2 18.2l6.5-8.8z"/><path fill="#faffff" fill-opacity=".5" d="M267.2 93.4L127.4-11.9l13.2-17.5L280.4 76z"/><path fill="#283224" fill-opacity=".5" d="M128.4 73.9L44 23.2 54.4 5.8l84.4 50.7z"/><path fill="#fff" fill-opacity=".5" d="M-12.3 196.9l10-24.6L70 201.5l-10 24.7z"/><path fill="#373c30" fill-opacity=".5" d="M140.5 188.9l6.7-63.7 29.5 3L170 192z"/><path fill="#7f6258" fill-opacity=".5" d="M417.8 105.5l-119 55.5-24.4-52.4 119-55.5z"/><path fill="#efa760" fill-opacity=".5" d="M-10.1 119.4l4.6-10 136 63.4-4.7 10z"/><path fill="#00739a" fill-opacity=".5" d="M220.2 136.2L84 47.7l6.8-10.5L227 125.7z"/><path fill="#fff" fill-opacity=".5" d="M316.5 210.8l-2.3-5.8 102.1-39.2 2.3 5.8z"/><path fill="#cfb7a9" fill-opacity=".5" d="M336 134.8l-70.3 37.4-9.6-18 70.4-37.3z"/><path fill="#fffff9" fill-opacity=".5" d="M371.6 136.4l-136.7 58-1.8-4.3 136.6-58z"/><path fill="#1a0000" fill-opacity=".5" d="M20 86.5L-4 75.2 6.5 52.6l24.1 11.2z"/><path fill="#c88c55" fill-opacity=".5" d="M265.3 132l-5.2 7.8-164.5-111 5.2-7.7z"/><path fill="#726e73" fill-opacity=".5" d="M187.8 147.2l42.1-2.2 2.6 50-42.1 2.2z"/><path fill="#140700" fill-opacity=".5" d="M457.9 81.2l2 4.2-175.6 81.9-2-4.3z"/><path fill="#f2ad6c" fill-opacity=".5" d="M194.8 146.8L-63.4 3.6l4.5-8.2 258.3 143.2z"/><path fill="#0079a1" fill-opacity=".5" d="M160 158.8l-118.7-63 6.6-12.5 118.6 63.1z"/><path fill="#fffffc" fill-opacity=".5" d="M140 157.4l-5.4 13-76.2-32.5 5.5-12.9z"/><path fill="#2d1b10" fill-opacity=".5" d="M245.1 153.5l-4.5-11.7 40.9-15.6 4.4 11.6z"/><path fill="#5bb7df" fill-opacity=".5" d="M164-.4l24.4-32.4L234.5 2l-24.4 32.4z"/><path fill="#005d83" fill-opacity=".5" d="M-19.4 139.3l104.2 46.4-7.6 17.2L-27 156.5z"/><path fill="#3d2e1e" fill-opacity=".5" d="M177.5 95.3l-42.3-29.5 4.5-6.4L182 88.9z"/><path fill="#fffffb" fill-opacity=".5" d="M37.2 38.8l5.8-9.3 168.3 105.2-5.8 9.2z"/><path fill="#84685e" fill-opacity=".5" d="M479.4 117.5l-185.6 78.8-9.1-21.6 185.5-78.8z"/><path fill="#fff" fill-opacity=".5" d="M240 114L113.3 25.2l4.5-6.4 126.7 88.8z"/><path fill="#fff2e6" fill-opacity=".5" d="M224.2 208l22-45 56.1 27.4-21.9 45z"/><path fill="#f4b07c" fill-opacity=".5" d="M220.8 68.5l5.7-7.4 48 37.6-5.7 7.3z"/><path fill="#fff" fill-opacity=".5" d="M241.7 161l192.4-93.8.7 1.4-192.4 93.9z"/><path fill="#fbf0ea" fill-opacity=".5" d="M-9.3 101.3L3.2 77.8l95.2 50.6L85.9 152z"/><path fill="#3a1b00" fill-opacity=".5" d="M102.8 178.6l-1.4 2.7L-20 116.8l1.4-2.8z"/><path fill="#bc7c46" fill-opacity=".5" d="M71-3l29.9 25.1-14 16.8-30-25.1z"/><path fill="#4a4736" fill-opacity=".5" d="M119-2.2l43.1 33.6-7.7 9.9-43-33.7z"/><path fill="#fff" fill-opacity=".5" d="M152.2 159l-59.8-30.6.7-1.4 59.8 30.5z"/><path fill="#71a6bf" fill-opacity=".5" d="M85.5 178.6l-2.8 5.5-132.3-67.4 2.9-5.5z"/><path fill="#725c52" fill-opacity=".5" d="M160.6 153.1l22.7 41-64.2 35.6-22.7-41z"/><path fill="#e1a873" fill-opacity=".5" d="M130.2 5l6.4-8.9 91 66.1-6.4 8.9z"/><path fill="#4c3316" fill-opacity=".5" d="M36.7 67.2l4-6.7 117.9 70.8-4 6.7z"/><path fill="#170f04" fill-opacity=".5" d="M428.7 64.4l.7 1.4-178.4 87-.7-1.4z"/><path fill="#452b29" fill-opacity=".5" d="M452.4 166l1.5 4.4-107.8 37.1-1.6-4.4z"/><path fill="#fff" fill-opacity=".5" d="M-3.9 171.6l88.4 35.7-4 10.2L-8 181.7z"/><path fill="#ece9e7" fill-opacity=".5" d="M183 13.4l104.7 81.8-6.7 8.6L176.3 22z"/><path fill="#172222" fill-opacity=".5" d="M255.2 153.2l-34.8-21 7.2-12 34.8 21z"/><path fill="#7cbad8" fill-opacity=".5" d="M312.8-40.6l54.5 98.3-84.7 47L228 6.3z"/><path fill="#aad6ee" fill-opacity=".5" d="M55.2-21.5l11.2 10.8L34 23.1 22.6 12.2z"/><path fill="#fffffe" fill-opacity=".5" d="M422.7 107L364 139.7l-.8-1.3 58.8-32.6z"/><path fill="#351f11" fill-opacity=".5" d="M68.8 41.4l5.8-11 20.7 11-5.9 11z"/><path fill="#cfbaa9" fill-opacity=".5" d="M317 99.6l3 5.5-54 31.2-3.2-5.4z"/><path fill="#362516" fill-opacity=".5" d="M338 175.9l55.4-21.3 4.5 11.7-55.4 21.3z"/><path fill="#ac7e58" fill-opacity=".5" d="M-4.5 52.5L10 28.4l24.1 14.4L19.7 67z"/><path fill="#fff6f5" fill-opacity=".5" d="M35.3-38.1l151 105.7L182 74 30.9-31.7z"/><path fill="#118eb3" fill-opacity=".5" d="M140.9 27.8l.9-1.2 125.1 90.9-.9 1.2z"/><path fill="#fdf0e5" fill-opacity=".5" d="M72.3 54.8l-3.9 6.8-79.8-46.1 3.9-6.8z"/><path fill="#fff8ef" fill-opacity=".5" d="M143 149.6l5.5 9.4-15 8.6-5.4-9.4z"/><path fill="#4c3320" fill-opacity=".5" d="M274.1 99.5l13.9 14.8-13.7 12.8-13.9-14.9z"/><path fill="#e4bf96" fill-opacity=".5" d="M64.4 152.2l2.8-5.5 54.3 27.6-2.8 5.6z"/><path fill="#483e2e" fill-opacity=".5" d="M235.6 134.6l-58.3-39.3 4.3-6.5 58.3 39.3z"/><path fill="#b7a49a" fill-opacity=".5" d="M-.2 83.6l.7-1.4 120 63.9-.7 1.3z"/><path fill="#dae2e5" fill-opacity=".5" d="M245.8 40.1l34 27.6L262 89.5 228 62z"/><path fill="#8a8081" fill-opacity=".5" d="M439.5 49l-127 70.5-13-23.2 127.1-70.5z"/><path fill="#a09184" fill-opacity=".5" d="M269.8 126l72.3-33.7 5.2 11.4-72.2 33.6z"/><path fill="#848589" fill-opacity=".5" d="M170.3 152.4l57.5-6 6.6 62.1-57.5 6z"/><path fill="#1782a5" fill-opacity=".5" d="M31.6 69.6l19.5 10-9.2 18-19.5-10z"/><path fill="#9ec8d8" fill-opacity=".5" d="M215.8 45l19.9-49.2 18.8 7.6-19.9 49.3z"/><path fill="#a7bcc7" fill-opacity=".5" d="M208.6 65.2l10.9 1-1.5 17-11-.9z"/><path fill="#382504" fill-opacity=".5" d="M109.9 179l-81.4-36.2.7-1.5 81.3 36.3z"/><path fill="#057892" fill-opacity=".5" d="M200.7 110.9l-5.1 7.8-101-65.5 5.2-7.9z"/><path fill="#fff9f9" fill-opacity=".5" d="M234.6 107.3l2.7-3.8 35.9 25.1-2.7 3.8z"/><path fill="#3d2305" fill-opacity=".5" d="M268.4 168.2l14.7-8.9 3.2 5.4-14.7 8.8z"/><path fill="#d5cec4" fill-opacity=".5" d="M500 6.2L271 128l-.7-1.4 229-121.8z"/><path fill="#7692a3" fill-opacity=".5" d="M135.7 126.5l-.8 1.4L28.4 68.8l.7-1.4z"/><path fill="#fffaed" fill-opacity=".5" d="M337.8 217l102.9-41.6 1.2 3L339 219.8z"/><path fill="#cba982" fill-opacity=".5" d="M222.6 105l-4.3 6.5L75.8 15.3 80.2 9z"/><path fill="#f5e3da" fill-opacity=".5" d="M239.5 196l-2-4.2L362 133.7l2 4.2z"/><path fill="#433a2a" fill-opacity=".5" d="M347.3 131l63.3-27 3 7.3-63.2 26.8z"/><path fill="#b49672" fill-opacity=".5" d="M105.7 168.9L0 114.9l2.2-4.1 105.8 54z"/><path fill="#777980" fill-opacity=".5" d="M97.5 40.4l1-1.3L179 95.6l-.8 1.2z"/><path fill="#fff" fill-opacity=".5" d="M174.2 144l.2-1.6 21.7 2.7-.2 1.5z"/><path fill="#fff9f0" fill-opacity=".5" d="M144.4-9l81.3 66-2.9 3.6-81.4-65.8z"/><path fill="#382f15" fill-opacity=".5" d="M125 117.1l3.3-5.4 48.2 29-3.2 5.4z"/><path fill="#ffe9ce" fill-opacity=".5" d="M289.8 99l-1.8 9.3-13.8-2.7 1.8-9.2z"/><path fill="#94a8af" fill-opacity=".5" d="M17.4 134.6l-3.9 16.8-13.7-3.2 3.9-16.7z"/><path fill="#59402e" fill-opacity=".5" d="M45.7 14l34 22-5 7.9-34.1-22.1z"/><path fill="#acccd9" fill-opacity=".5" d="M139.1 68.5L121 56.3l.8-1.3L140 67.2z"/><path fill="#c8aa85" fill-opacity=".5" d="M141.9 118.5l3.6-6.9 58 30.8-3.7 7z"/><path fill="#30829c" fill-opacity=".5" d="M71.8 205.2l-12.2-18.1 23.3-15.7 12.2 18z"/><path fill="#141204" fill-opacity=".5" d="M-10 68.5l4.6-10 32.6 15.2-4.6 10z"/><path fill="#c1d0d7" fill-opacity=".5" d="M91.7 52.8l3.3-3.3 24.3 24.3L116 77z"/><path fill="#f9f0eb" fill-opacity=".5" d="M2.6 5.4l41.4 28-4.4 6.5-41.4-28z"/><path fill="#d0e8ef" fill-opacity=".5" d="M250.4 6l3.4 5.2-43.3 28.1-3.4-5.2z"/><path fill="#7fbdda" fill-opacity=".5" d="M459 11L322.7 77.4l-30.1-61.8 136.2-66.4z"/><path fill="#fff1e8" fill-opacity=".5" d="M230.7 153.9l9.3-1.2 5.9 48.1-9.3 1.2z"/><path fill="#0f8db0" fill-opacity=".5" d="M206 118.9l23.2 12.8-2.3 4.1-23.2-12.8z"/><path fill="#b39e95" fill-opacity=".5" d="M294.2 211.6l65.7-29.3.6 1.5-65.7 29.2z"/><path fill="#473e28" fill-opacity=".5" d="M201 58.5l-1.8 2.5L138 15l1.9-2.6z"/><path fill="#4a3a23" fill-opacity=".5" d="M1 58.6l36-3.1 1 12.4-35.7 3.2z"/><path fill="#71b1cc" fill-opacity=".5" d="M289.8-16.6l12 67.7-43.2 7.6L246.7-9z"/><path fill="#41301f" fill-opacity=".5" d="M320.7 197.1l-4.7-11.6 30.5-12.3 4.6 11.6z"/><path fill="#82b9ce" fill-opacity=".5" d="M207-10.2l32.8 14.6L222.7 43l-32.9-14.6z"/><path fill="#43341c" fill-opacity=".5" d="M93.6 31.4l.8-1.3 101 68.2-.8 1.3z"/><path fill="#d5aa79" fill-opacity=".5" d="M101.8 90.2l78.5 45.3-2.4 4-78.5-45.3z"/><path fill="#a19c9c" fill-opacity=".5" d="M360.8 162.2l-45.3 21.1-6-12.7 45.3-21.1z"/><path fill="#746d6f" fill-opacity=".5" d="M320.2 97.7l-5.3-9.5 135.3-75 5.3 9.6z"/><path fill="#a09793" fill-opacity=".5" d="M274 150l90.6-38.4 3.6 8.6-90.6 38.5z"/><path fill="#bd9368" fill-opacity=".5" d="M118.7 3.9L136.5-16l15 13.6-17.7 19.7z"/><path fill="#b19671" fill-opacity=".5" d="M198.6 144.2L45.9 52.5l.8-1.4L199.4 143z"/><path fill="#8a7b6f" fill-opacity=".5" d="M338 94.7l-63.5 36.7-1.6-2.7L336.5 92z"/><path fill="#a77f5a" fill-opacity=".5" d="M245.6 81.7l1-1.3 34.4 27-1 1.2z"/><path fill="#68635c" fill-opacity=".5" d="M65.3 204.3l81.4-43.3 17.6 33.1L83 237.4z"/><path fill="#544d35" fill-opacity=".5" d="M18 137.3l64.8 27.5-2.4 5.7L15.6 143z"/><path fill="#f8e5df" fill-opacity=".5" d="M335.3 200.3l85.5-34.6 1.7 4.4-85.5 34.5z"/><path fill="#a28375" fill-opacity=".5" d="M-4.2 186.3l57.5 24.4-.6 1.4L-5 187.7z"/><path fill="#b0a79d" fill-opacity=".5" d="M79.8 51.8l-.9 1.3L0-.2l.9-1.3z"/><path fill="#797c80" fill-opacity=".5" d="M81.4-12.3l-38.2 37L39 20l38-36.8z"/><path fill="#53a1bf" fill-opacity=".5" d="M33.9 7l-5.6 7.4L2-5.3l5.7-7.5z"/><path fill="#89725c" fill-opacity=".5" d="M246.4 120.7l19.4 13-4.4 6.6-19.4-13.1z"/><path fill="#545d60" fill-opacity=".5" d="M176.3 151.7l-134-80.4 1.7-2.7L178 149z"/><path fill="#a48b6f" fill-opacity=".5" d="M227.7 109.5l-.9 1.3L70.7 1.4l.9-1.2z"/><path fill="#e9e5e2" fill-opacity=".5" d="M222.5 147l-37.5-1.9.3-6.2 37.5 2z"/><path fill="#fffffd" fill-opacity=".5" d="M74.3 207.4l-79.8-27.5 1.5-4.4 79.8 27.4z"/><path fill="#185b6d" fill-opacity=".5" d="M-9.6 147.5l1.8-4.3 106.5 45.2-1.9 4.3z"/><path fill="#262c20" fill-opacity=".5" d="M88 166.6l20.3 8.2-4.1 10.1-20.3-8.1z"/><path fill="#fff4ea" fill-opacity=".5" d="M287.4 103l-2 2.5-36.9-28.9 2-2.4z"/><path fill="#fff1e8" fill-opacity=".5" d="M433.5 109.4l.5 1.4-69 25.1-.6-1.4z"/><path fill="#695f59" fill-opacity=".5" d="M292.7 175l-.6-1.4L412 120.3l.6 1.4z"/><path fill="#016e88" fill-opacity=".5" d="M153 143.5l-4.6 8.2-56-31.1 4.5-8.2z"/><path fill="#4e3821" fill-opacity=".5" d="M269.6 109.7l-.9 1.3-46.2-34.8 1-1.3z"/><path fill="#6baac2" fill-opacity=".5" d="M164.8 2.8l2.7-9 56.8 17.4-2.7 9z"/><path fill="#273941" fill-opacity=".5" d="M109.7 5.2l.9-1.3 90.6 61.2-.8 1.3z"/><path fill="#5d564f" fill-opacity=".5" d="M318.4 96.3L420 44.5l.7 1.4-101.6 51.8z"/><path fill="#7fb0bf" fill-opacity=".5" d="M296 95l-4.4 6.6-29.8-20.1 4.4-6.5z"/><path fill="#f0e0d5" fill-opacity=".5" d="M253.3 155.4l-7.5 20.6-13.2-4.8 7.5-20.6z"/><path fill="#3d342d" fill-opacity=".5" d="M359.3 169.3l52.8-23.5 5.1 11.4-52.8 23.5z"/><path fill="#f0e1da" fill-opacity=".5" d="M254.2 171.2l59.5 27.7-13.2 28.3-59.5-27.7z"/><path fill="#f2edea" fill-opacity=".5" d="M-5.6 94.3L68 128.6l-4.6 10-73.6-34.4z"/><path fill="#448da8" fill-opacity=".5" d="M83.6 188l6-11 9.6 5.3-6 11z"/><path fill="#fff2e6" fill-opacity=".5" d="M63.7 55.3L130 93.6l-1.5 2.7L62.2 58z"/><path fill="#d2d8d9" fill-opacity=".5" d="M153 41.5l-36.6-23.9.8-1.3L154 40.2z"/><path fill="#191e25" fill-opacity=".5" d="M247.3 150l-25.1-15.8.8-1.3 25.2 15.7z"/><path fill="#868a8c" fill-opacity=".5" d="M177 145l56 4-5.3 76.3-56-4z"/><path fill="#8f8075" fill-opacity=".5" d="M250 160.2l-.7-1.4 74.2-33 .6 1.4z"/><path fill="#565752" fill-opacity=".5" d="M74.7 32l3-5.4 49.2 27.3-3 5.4z"/><path fill="#a8bcc6" fill-opacity=".5" d="M122.5 52.5l1-1.2 11.8 10.3-1 1.1z"/><path fill="#cea97f" fill-opacity=".5" d="M-20.2 114.8l3.2-7.1L118.6 168l-3.2 7.2z"/><path fill="#543f2a" fill-opacity=".5" d="M139.8 27.9L115.2 8.6 118 5l24.7 19.3z"/><path fill="#eae9ea" fill-opacity=".5" d="M146.9 45.4l3.5-5.2 70 47.2-3.6 5.2z"/><path fill="#f7ede4" fill-opacity=".5" d="M286.8 104.4l-2 2.4-76.3-59.6 2-2.5z"/><path fill="#ae9378" fill-opacity=".5" d="M5.9 25.6l28.5 26.7-7.4 8-28.6-26.7z"/><path fill="#f6ede7" fill-opacity=".5" d="M128.7 171.8l-41.3-22 7.3-13.8 41.4 22z"/><path fill="#16596b" fill-opacity=".5" d="M67 176.5l-4.4 13.4-93.6-30.5 4.3-13.3z"/><path fill="#f8f1eb" fill-opacity=".5" d="M214.2 146.9L108.4 83.3l4-6.7 105.8 63.6z"/><path fill="#d7e7ec" fill-opacity=".5" d="M260.3 73l14.1-18.8 7.5 5.7-14.1 18.7z"/><path fill="#3a3319" fill-opacity=".5" d="M172.6 141.2l-.8 1.3-136.6-82L36 59z"/><path fill="#28404b" fill-opacity=".5" d="M270.5 115.8l-.9 1.3-94.8-68.9 1-1.2z"/><path fill="#dfdbd4" fill-opacity=".5" d="M149.2 151.6v7.8h-21.9v-7.8z"/><path fill="#918a8a" fill-opacity=".5" d="M415.8 99.2l-77.9 36.3-5.3-11.3 78-36.3z"/><path fill="#493d26" fill-opacity=".5" d="M252 139.5l-90.9-63.6 1-1.3 90.8 63.6z"/><path fill="#171c1a" fill-opacity=".5" d="M289.7 107.3l2.2 4.1-20.7 11-2.2-4.1z"/><path fill="#c3ac8f" fill-opacity=".5" d="M201.7 52.5L254 94.8l-1 1.2-52.2-42.3z"/><path fill="#b48f68" fill-opacity=".5" d="M81.6 73.7L-2.7 23l.8-1.4 84.3 50.7z"/><path fill="#151816" fill-opacity=".5" d="M25.8 77.3l-4.1 8.5L-14.8 68l4-8.5z"/><path fill="#40859c" fill-opacity=".5" d="M113 56.9l-5.7 5.2-15.7-17.4 5.8-5.2z"/><path fill="#70afc7" fill-opacity=".5" d="M272 33.1l-51 7.2-.9-6.2 51-7.2z"/><path fill="#e3eae8" fill-opacity=".5" d="M193.4 12l2.1 17-9.3 1.2-2-17z"/><path fill="#ab947a" fill-opacity=".5" d="M120.6-16l1-1.2L277.8 105l-1 1.2z"/><path fill="#c7d2d1" fill-opacity=".5" d="M224.4 91.7l1-1.3 42.4 32-1 1.2z"/><path fill="#097e9a" fill-opacity=".5" d="M130 76.4l3.3-5.3 91.4 57.2-3.3 5.3z"/><path fill="#fffbf5" fill-opacity=".5" d="M125.4 147L6.7 84l.7-1.4 118.7 63.1z"/><path fill="#e0dad4" fill-opacity=".5" d="M315.2 102.5L357.5 79l.8 1.3-42.4 23.5z"/><path fill="#9fc8d8" fill-opacity=".5" d="M232.4 35.6l32 7.4-4.6 19.8-32-7.4z"/><path fill="#cadfe4" fill-opacity=".5" d="M205.4 36.2l41.5-24.9 2.4 4-41.5 25z"/><path fill="#b7cacc" fill-opacity=".5" d="M228.6 141.6l-.9 1.3-89-57.9.8-1.3z"/><path fill="#322d14" fill-opacity=".5" d="M-1.8 126l.7-1.4 60.7 32.3-.7 1.3z"/><path fill="#594830" fill-opacity=".5" d="M-16.7 57.4l1-7.7 49.6 7-1 7.7z"/><path fill="#4b6166" fill-opacity=".5" d="M252.7 142.4l-.8 1.3-106.2-69 .9-1.2z"/><path fill="#dccec3" fill-opacity=".5" d="M228.5 167.6l62.6-32 .7 1.5-62.6 31.9z"/><path fill="#c1b6af" fill-opacity=".5" d="M92.5 59.7L64.4 40l.9-1.3 28.1 19.7z"/><path fill="#b49f91" fill-opacity=".5" d="M257 159.7l40.2-17 3.7 8.5-40.3 17.1z"/><path fill="#a99480" fill-opacity=".5" d="M270.2 128.5l4.9-8 9.3 5.6-4.8 8z"/><path fill="#82b8cd" fill-opacity=".5" d="M417.4 17l5.8 11-129.6 69-6-11z"/><path fill="#c0976e" fill-opacity=".5" d="M279.7 112l-1.1 1.1L250 86.5l1-1.2z"/><path fill="#c8a987" fill-opacity=".5" d="M212 106.4l-41.5-28 3.5-5.1 41.4 28z"/><path fill="#110f07" fill-opacity=".5" d="M264.7 146.6L251 139l1.5-2.7 13.7 7.5z"/><path fill="#3d362d" fill-opacity=".5" d="M284.4 135.4l132-64.4.7 1.4-132 64.4z"/><path fill="#096c82" fill-opacity=".5" d="M108.4 51.2l33.7 22.7-5.2 7.8-33.7-22.8z"/><path fill="#7ebad0" fill-opacity=".5" d="M72.1 208.4l2.6-18.6 1.6.2-2.6 18.6z"/><path fill="#136478" fill-opacity=".5" d="M33.2 92.6l6-12.7 35.4 16.5-6 12.8z"/><path fill="#f0efea" fill-opacity=".5" d="M272.2 134.6l-1.5.5-3.8-11.9 1.4-.5z"/><path fill="#726b67" fill-opacity=".5" d="M302 114.5l-.7-1.4 107.6-57.2.7 1.3z"/><path fill="#6b6f78" fill-opacity=".5" d="M49.7 80.3L27.4 65.8l2.6-4 22.3 14.6z"/><path fill="#121912" fill-opacity=".5" d="M79.6 46.6L96 31.9l1 1.2-16.2 14.6z"/><path fill="#433522" fill-opacity=".5" d="M265.8 169.5l10-4.5.6 1.5-10 4.4z"/><path fill="#67635b" fill-opacity=".5" d="M160.9 153.7l10.1 17.6-127.2 73.4-10.1-17.6z"/><path fill="#f5ebe6" fill-opacity=".5" d="M145-12.9L180.4 18l-5.1 5.9L139.9-7z"/><path fill="#2b2e20" fill-opacity=".5" d="M87.8 175.7l-13.7-3.2 2.1-9.1 13.7 3.1z"/><path fill="#e5dad2" fill-opacity=".5" d="M439.4 66l-139 67.8-.7-1.4 139-67.8z"/><path fill="#5d8693" fill-opacity=".5" d="M167.3 145l-.7 1.3-51-27.1.7-1.4z"/><path fill="#7d7571" fill-opacity=".5" d="M301.5 135.2l-.6-1.4 74.2-33 .6 1.4z"/><path fill="#5e533f" fill-opacity=".5" d="M363.4 129.4l.7 1.4-82.2 38.3-.6-1.4z"/><path fill="#ebded4" fill-opacity=".5" d="M234.8 151.4l65.7 39.4-5.7 9.4-65.6-39.4z"/><path fill="#fbf9fa" fill-opacity=".5" d="M211 144.6l-39 1.4-.1-1.6 39-1.3z"/><path fill="#3c3821" fill-opacity=".5" d="M151.7 135.7l1-3 25.3 8.2-1 3z"/><path fill="#695336" fill-opacity=".5" d="M187.2 46.2L256 97.9l-1 1.2-68.6-51.7z"/><path fill="#152525" fill-opacity=".5" d="M48.7 151.6l1.5.5-3.6 10.4-1.5-.6z"/><path fill="#697779" fill-opacity=".5" d="M138.8 18.9l1-1.3 19.9 15-1 1.3z"/><path fill="#bcb2a9" fill-opacity=".5" d="M46.7 107.5L46 109l-60-30.6.7-1.4z"/><path fill="#b29675" fill-opacity=".5" d="M107.5 166.3l-.7 1.4L-6 110.2l.8-1.3z"/><path fill="#70a3b7" fill-opacity=".5" d="M18.8 151.3l1.3-2.8 44 20.5-1.4 2.8z"/><path fill="#d4b796" fill-opacity=".5" d="M125.4 48.6l-25-18.8 3.8-5 25 18.8z"/><path fill="#483824" fill-opacity=".5" d="M304.3 192.9l-1-1.2 9.6-8 1 1.2z"/><path fill="#bd9876" fill-opacity=".5" d="M70.2 5.2l31.4 17.4-4.6 8.2-31.4-17.4z"/><path fill="#533327" fill-opacity=".5" d="M383.4 209.3l-.8-1.4 32.5-18.7.7 1.3z"/><path fill="#a29891" fill-opacity=".5" d="M311.9 102.3l-19.5 6-2.7-9 19.4-6z"/><path fill="#8a8e92" fill-opacity=".5" d="M197.3 212.4l-26.6-1.4 2.3-43.7 26.6 1.4z"/><path fill="#eae4e0" fill-opacity=".5" d="M95.1 74.3L7.7 19.6l5-8L100 66.4z"/><path fill="#78b3c7" fill-opacity=".5" d="M230.3 12.4L221 47l-6-1.6 9.3-34.8z"/><path fill="#caab8c" fill-opacity=".5" d="M260.5 97L69.5-41.7l2.8-3.8 191 138.7z"/><path fill="#51442d" fill-opacity=".5" d="M270.7 169.2l62.6-32 .7 1.4-62.6 32z"/><path fill="#9e9592" fill-opacity=".5" d="M300.8 115.6l38.3-21.2 2.3 4-38.3 21.3z"/><path fill="#1f4a65" fill-opacity=".5" d="M2.3 4l-3.1-.1v-6.3h3.2z"/><path fill="#614c2e" fill-opacity=".5" d="M83.9-11.5l-37 38.2-1-1.1 36.8-38.2z"/><path fill="#7d8386" fill-opacity=".5" d="M64.5-3.5l2.3 2.2-23.5 25-2.3-2z"/><path fill="#297e98" fill-opacity=".5" d="M137 23.8L162.3 42l-.9 1.3L136.1 25z"/><path fill="#baaba0" fill-opacity=".5" d="M147.6 159.7l-.8 1.4-30.3-16.1.7-1.4z"/><path fill="#182b31" fill-opacity=".5" d="M13.2 152.5l-1.4-.7 7.8-15.3 1.4.7z"/><path fill="#8a8483" fill-opacity=".5" d="M314.8 98.4l-2.2-4.1L390 53.2l2.2 4.1z"/><path fill="#907663" fill-opacity=".5" d="M308 184.8l-.5 1.5-29.6-10.2.5-1.5z"/><path fill="#050e11" fill-opacity=".5" d="M232.8 131.1l4 8.5-5.5 2.7-4.1-8.4z"/><path fill="#55574f" fill-opacity=".5" d="M170.2 150.7l3 .3-4.3 62.3-3.1-.2z"/><path fill="#dad3cf" fill-opacity=".5" d="M411.3 53.8l-76.6 39-.7-1.3 76.6-39z"/><path fill="#eeeae7" fill-opacity=".5" d="M56.7-22l1.8-2.4L176.1 61l-1.8 2.5z"/><path fill="#f6e1d3" fill-opacity=".5" d="M-7.9 191l32 7.3-2.1 9.2-32-7.4z"/><path fill="#80654b" fill-opacity=".5" d="M133.5 16l-24-7.3 2.3-7.5 24 7.3z"/><path fill="#f8eee6" fill-opacity=".5" d="M230.6 145.5h1.6l7.5 85.5-1.6.2z"/><path fill="#334951" fill-opacity=".5" d="M144.9 77.1l-42.2-29.5.8-1.3 42.3 29.6z"/><path fill="#b5bfc2" fill-opacity=".5" d="M207.3 64.9l13 11.2-1 1.2-13-11.3z"/><path fill="#8ab3c8" fill-opacity=".5" d="M15.5 146l-2 4.2L-7.8 140l2.1-4.2z"/><path fill="#ceab84" fill-opacity=".5" d="M118.4 177.2L30 137.8l3.2-7.2 88.5 39.4z"/><path fill="#0e0200" fill-opacity=".5" d="M90.1 52.7l-4.9-6 1.2-1 5 6z"/><path fill="#848789" fill-opacity=".5" d="M185.7 148.5l43.6-3 5.3 76.3-43.6 3z"/><path fill="#d6e8ec" fill-opacity=".5" d="M246 8.3l3.4 7-12.6 6.1-3.4-7z"/><path fill="#897153" fill-opacity=".5" d="M279.4 112l-10.4-9.5 3-3.5 10.5 9.4z"/><path fill="#1b221e" fill-opacity=".5" d="M135 14.7l4.6.4-1 12.4-4.8-.4z"/><path fill="#fff" fill-opacity=".5" d="M100.4 2.3l2.6-3.9 1.3.9-2.6 3.9z"/><path fill="#515d5c" fill-opacity=".5" d="M181 95.3l-40.2-27 1.7-2.7 40.2 27.1z"/><path fill="#775f40" fill-opacity=".5" d="M54.9 15.4l31.8 19.9-2.5 4-31.8-19.9z"/><path fill="#e8d9cd" fill-opacity=".5" d="M192 118.4l74.7 54.2-1 1.2-74.5-54.2z"/><path fill="#9c8570" fill-opacity=".5" d="M291.8 126.4l-14.3 9.6-5.2-7.7 14.2-9.6z"/><path fill="#c9a987" fill-opacity=".5" d="M7.7 36.3l1.5-2.7L72 68.4l-1.5 2.7z"/><path fill="#101407" fill-opacity=".5" d="M29.5 60l2.3 2.2L19 75.9l-2.3-2.1z"/><path fill="#242b2b" fill-opacity=".5" d="M279 109l2.2 7.4-15 4.4-2.1-7.6z"/><path fill="#407987" fill-opacity=".5" d="M19.8 84.1l.7-1.3 73.8 40.9-.7 1.3z"/><path fill="#615756" fill-opacity=".5" d="M408.4 184.9L376 196.1l-1.5-4.4 32.5-11.2z"/><path fill="#eddfd9" fill-opacity=".5" d="M288.3 216l86.9-35 .6 1.4-87 35.1z"/><path fill="#585147" fill-opacity=".5" d="M280.4 119.4l-.8-1.4 47.8-26.5.8 1.4z"/><path fill="#a38f74" fill-opacity=".5" d="M246.8 121.4l-49-30.6.8-1.3 49 30.6z"/><path fill="#126d84" fill-opacity=".5" d="M110 120.6l46.7 31.5-2.7 3.9-46.6-31.5z"/><path fill="#41a1c2" fill-opacity=".5" d="M143.2 76.1l11.7 4.5L152 88l-11.7-4.5z"/><path fill="#c2a482" fill-opacity=".5" d="M250.8 132l-77.7-52.4 2.6-3.8 77.8 52.4z"/><path fill="#958e8e" fill-opacity=".5" d="M367.2 147.2l5.3 13-31.9 13-5.3-13.1z"/><path fill="#cbcdca" fill-opacity=".5" d="M284.2 100.6L166.4 5.3l1-1.3 117.8 95.4z"/><path fill="#596467" fill-opacity=".5" d="M247.1 137.2l.8 1.4-12.2 7-.8-1.4z"/><path fill="#0b0f11" fill-opacity=".5" d="M262 145l-12.1 9.7-1-1.2 12.1-9.8z"/><path fill="#f4e9e2" fill-opacity=".5" d="M265.4 131.8l-54.9-41.4 3.8-5 54.9 41.4z"/><path fill="#9ec6d6" fill-opacity=".5" d="M226.6-3.7l7.7-1.4 6.3 35.4-7.7 1.4z"/><path fill="#72b0c6" fill-opacity=".5" d="M271.4-9.7l-71 39.4-1.5-2.8 71-39.4z"/><path fill="#7cb7d0" fill-opacity=".5" d="M254.5-25l35.2-13 41.7 114.5-35.2 12.9z"/><path fill="#7baaba" fill-opacity=".5" d="M166.4-11L186 2.2l-7 10.3-19.5-13z"/><path fill="#aa9888" fill-opacity=".5" d="M267.9 177.2l-.7-1.4 47.7-23.3.7 1.4z"/><path fill="#9a8985" fill-opacity=".5" d="M304.3 207l-.6-1.5L438 154l.6 1.4z"/><path fill="#7b7474" fill-opacity=".5" d="M409 122.8l6.5 16-44.9 18-6.4-15.9z"/><path fill="#dbcdc4" fill-opacity=".5" d="M288 139.2l-14.5 5.9-.6-1.5 14.5-5.8z"/><path fill="#6a6b57" fill-opacity=".5" d="M72 167.7l-22.5-11 2-4.1 22.5 11z"/><path fill="#e2eef4" fill-opacity=".5" d="M275.8 71.9h-21.9V64h21.9z"/><path fill="#1b5060" fill-opacity=".5" d="M3 145.5l15.8 12.8L8 171.7l-15.8-12.8z"/><path fill="#19818f" fill-opacity=".5" d="M205.9 74.4l-1 1.3-43.6-33 1-1.2z"/><path fill="#b2a29e" fill-opacity=".5" d="M373.8 202.2l-.6-1.5 42-17 .6 1.5z"/><path fill="#e9e0db" fill-opacity=".5" d="M237 171.1l43.8 1.5-.7 20.3-43.7-1.5z"/><path fill="#958c86" fill-opacity=".5" d="M295.3 126.3l-4.1-8.5 74.4-36.3 4.1 8.5z"/><path fill="#39312a" fill-opacity=".5" d="M326.4 190.3l38.4-13.2 1 3-38.4 13.1z"/><path fill="#f3ffff" fill-opacity=".5" d="M148.6 157.2L121 142.6l.7-1.4 27.6 14.7z"/><path fill="#cce3ed" fill-opacity=".5" d="M222 25.1l-7 15.7-4.2-1.9 7-15.7z"/><path fill="#cca980" fill-opacity=".5" d="M48.8 56l98.4 54.6-3.8 6.8L45 63z"/><path fill="#503d1e" fill-opacity=".5" d="M15.4 132l.8-1.3 73 38.8-.7 1.4z"/><path fill="#71aec2" fill-opacity=".5" d="M232.2 51.1l-1.2-1 13.4-15.3 1.1 1z"/><path fill="#c7c5be" fill-opacity=".5" d="M179.7 142l.1-1.6 42 3.6v1.6z"/><path fill="#3b342b" fill-opacity=".5" d="M421.4 105l1.1 3-45.5 16.6-1-3z"/><path fill="#97c0bb" fill-opacity=".5" d="M140 65l-4.2-2 .7-1.4 4.2 2z"/><path fill="#636a6f" fill-opacity=".5" d="M176.9 44.4l1-1.2 21.8 20.3-1.1 1.1z"/><path fill="#e3dad7" fill-opacity=".5" d="M437.1 168.2l-75.3 26-.5-1.5 75.3-26z"/><path fill="#503f2e" fill-opacity=".5" d="M333 188.3l-20.1 8.6-3.7-8.7 20.1-8.5z"/><path fill="#1d5d69" fill-opacity=".5" d="M157.1 82.3l69.5 45-.9 1.4-69.4-45.1z"/><path fill="#2d281a" fill-opacity=".5" d="M110 101.2l7.8 5.2-4.4 6.5-7.8-5.3z"/><path fill="#403e33" fill-opacity=".5" d="M85.2 49.7L63 35.2l3.4-5.2 22.3 14.5z"/><path fill="#b6cacd" fill-opacity=".5" d="M3 1.2L4-.2l32 19.3-.8 1.4z"/><path fill="#626065" fill-opacity=".5" d="M439.2 22.5L353.7 68l-.7-1.4L438.5 21z"/><path fill="#e5dfd9" fill-opacity=".5" d="M451 102.6l-103 41.6-.5-1.5 102.9-41.5z"/><path fill="#0b5f77" fill-opacity=".5" d="M77 192.3l12-3.2 1.2 4.5-12 3.3z"/><path fill="#39362b" fill-opacity=".5" d="M205.6 64l-1 1.2-18-15.1 1-1.2z"/><path fill="#353b33" fill-opacity=".5" d="M134 122.4l31.2 18-.8 1.3-31.1-18z"/><path fill="#2d302a" fill-opacity=".5" d="M121.6 58.5l-1.4-.5 3.5-8.7 1.4.6z"/><path fill="#ede5dd" fill-opacity=".5" d="M232.7 193.6L337 147.2l.7 1.4L233.4 195z"/><path fill="#b9a78f" fill-opacity=".5" d="M183.5 40.3l51.1 38.5-.9 1.3-51.2-38.6z"/><path fill="#9a795b" fill-opacity=".5" d="M28.6 60l-42.1-20.5 2-4.2 42.2 20.5z"/><path fill="#3f3528" fill-opacity=".5" d="M12 75.1l-22.2-14.5 6-9.1L18 65.9z"/><path fill="#81abb1" fill-opacity=".5" d="M146.2 153.8l-47.8-26.5.7-1.4 47.9 26.5z"/><path fill="#fff7f2" fill-opacity=".5" d="M66.6 210.4L1.9 183l1.8-4.4 64.7 27.5z"/><path fill="#62665a" fill-opacity=".5" d="M256.1 104.4l-39.7-27.8 1-1.3 39.6 27.8z"/><path fill="#b4976f" fill-opacity=".5" d="M45.8 143.1l-1.4 2.9-44.9-22 1.4-2.8z"/><path fill="#75b1c9" fill-opacity=".5" d="M204.2 29.2L189.3 0 213-12l14.9 29.2z"/><path fill="#754f29" fill-opacity=".5" d="M93.3 166.5l19 11-.9 1.3-19-11z"/><path fill="#f0ebe7" fill-opacity=".5" d="M175.7 16.6l1-1.2L266.5 88l-1 1.2z"/><path fill="#6d502f" fill-opacity=".5" d="M161.8 130.6l-.8 1.3-24.4-14 .8-1.4z"/><path fill="#baada2" fill-opacity=".5" d="M69.7 41.6l-.8 1.3-49.5-29.8.8-1.3z"/><path fill="#706154" fill-opacity=".5" d="M290.5 105.6l1 1.3-11.7 7.8-1-1.3z"/><path fill="#ede9e6" fill-opacity=".5" d="M118.9 165.8L38 124.7l7.1-14L126 152z"/><path fill="#a18e79" fill-opacity=".5" d="M130.2 174.3l-.7 1.4-80-39 .7-1.5z"/><path fill="#157389" fill-opacity=".5" d="M122.7 123.1l39.4 25.6-5.2 7.8-39.3-25.5z"/><path fill="#f0e3d5" fill-opacity=".5" d="M104.6 157.2l-.7 1.4-144.4-67.4.6-1.4z"/><path fill="#faf1e9" fill-opacity=".5" d="M-.4 81.9l-1.3-1L2 76l1.3 1z"/><path fill="#9a8675" fill-opacity=".5" d="M302.4 110.3l5.7 9.4-30.8 18.5-5.7-9.4z"/><path fill="#113447" fill-opacity=".5" d="M134.6 18.2l33.3 23.3-1 1.3-33.2-23.3z"/><path fill="#6b94a1" fill-opacity=".5" d="M107.8 111.9l-.8 1.4-82-45.5.8-1.4z"/><path fill="#3e342a" fill-opacity=".5" d="M334.5 142l85-43.2.7 1.4-85 43.2z"/><path fill="#515a5a" fill-opacity=".5" d="M50 78l1.6-2.8 40.6 23.4-1.6 2.8z"/><path fill="#a98d6c" fill-opacity=".5" d="M141.4 10.6l-4 4.9-30.3-24.6 4-4.8z"/><path fill="#deffff" fill-opacity=".5" d="M95.4 127.5L33.6 97.4l.7-1.5L96 126.1z"/><path fill="#77979d" fill-opacity=".5" d="M100.3 189.8l-27.9-14.2.8-1.4 27.8 14.2z"/><path fill="#a8bfc6" fill-opacity=".5" d="M435.4 19.5L292 99l-.7-1.3L434.6 18z"/><path fill="#f5ede6" fill-opacity=".5" d="M234 108.8l-51.2-35.9 3.6-5.1 51.1 35.8z"/><path fill="#f2eeea" fill-opacity=".5" d="M139.8 90.5l-4.2 6.6L68 54.9l4.2-6.7z"/><path fill="#728283" fill-opacity=".5" d="M160.8 79.6l12.2 9.9-1 1.2-12.2-9.9z"/><path fill="#796751" fill-opacity=".5" d="M267.7 137.2l-12.8-9 .9-1.3 12.8 9z"/><path fill="#e8e4dd" fill-opacity=".5" d="M85.8 72L29 39l5.5-9.5 56.8 32.9z"/><path fill="#ac8e6e" fill-opacity=".5" d="M68.3 19.7L58.9 7.2 67.6.6 77 13.1z"/><path fill="#a29389" fill-opacity=".5" d="M263.8 168.8l-.7-1.4 34-15.9.7 1.4z"/><path fill="#717d7c" fill-opacity=".5" d="M173.4 146l-22.5 14-.9-1.3 22.6-14z"/><path fill="#88c1da" fill-opacity=".5" d="M410.4 32.6l-85.7-6 4-57.7 85.7 6z"/><path fill="#b6966c" fill-opacity=".5" d="M179 136.4l.5-1.5 18 5.2-.4 1.5z"/><path fill="#aeb3b2" fill-opacity=".5" d="M242 151.1l-49-30.6.9-1.3 49 30.6z"/><path fill="#caa576" fill-opacity=".5" d="M119.7 44.2l3.4-5.2 52.5 34-3.4 5.2z"/><path fill="#5198b0" fill-opacity=".5" d="M93 45.9l10.8 2-1.5 7.8-10.8-2.1z"/><path fill="#76b4cb" fill-opacity=".5" d="M286.5 99.6l-9.8-10.1 25.9-25 9.7 10.1z"/><path fill="#e4e5e4" fill-opacity=".5" d="M24.6 31.4l-.8 1.3L-23 4.6l.8-1.4z"/><path fill="#2a8bae" fill-opacity=".5" d="M87 187.9l-.8 1.3-12.3-6.8.8-1.3z"/><path fill="#498290" fill-opacity=".5" d="M39.4 185.8l-.6 1.5-36-15.3.6-1.4z"/><path fill="#222820" fill-opacity=".5" d="M89 101.2l1.7-7.7 3 .7-1.6 7.6z"/><path fill="#786f6d" fill-opacity=".5" d="M429.1 74.8l.7 1.4-94.9 44.3-.6-1.4z"/><path fill="#b2d1dd" fill-opacity=".5" d="M257 39.3l-9.7 28.1-5.9-2 9.7-28.1z"/><path fill="#ccc4b9" fill-opacity=".5" d="M280.7 118.7l.8 1.3-10.6 6.6-.8-1.3z"/><path fill="#f0ded5" fill-opacity=".5" d="M382.3 201.4l-.5-1.5 25-9 .5 1.4z"/><path fill="#dcc9b5" fill-opacity=".5" d="M108.4 161.7l-.7 1.4L15 118l.7-1.4z"/><path fill="#636056" fill-opacity=".5" d="M167.9 157.5l1.7 48.4-20.3.7-1.7-48.4z"/><path fill="#1a2835" fill-opacity=".5" d="M230 89.8l-9.5-8 1-1.3 9.6 8z"/><path fill="#30453f" fill-opacity=".5" d="M18 85.4l-4-2.3.8-1.4 4 2.4z"/><path fill="#4a4035" fill-opacity=".5" d="M469 130.7L312.5 194l-1.8-4.3 156.5-63.2z"/><path fill="#76b4cb" fill-opacity=".5" d="M271.6 60.3l-27-40.2 10.3-7L282 53.3z"/><path fill="#a2c7cf" fill-opacity=".5" d="M46.8 191.4l.7-1.5L86 207.1l-.6 1.4z"/><path fill="#8b7763" fill-opacity=".5" d="M293.6 178l-1-7.7 21.6-3 1 7.7z"/><path fill="#948679" fill-opacity=".5" d="M252.1 160.6l-.7-1.4 41.8-21.3.7 1.4z"/><path fill="#8d8582" fill-opacity=".5" d="M364.2 138.7l4.6 10-44 20.4-4.5-10z"/><path fill="#d3bda2" fill-opacity=".5" d="M111 175.3l-.2-4.7 11-.6.2 4.7z"/><path fill="#756e68" fill-opacity=".5" d="M432.5 44.5l.7 1.4-101.6 51.8-.7-1.4z"/><path fill="#604c37" fill-opacity=".5" d="M271.5 144.3l-3 1.2-4-10.1 2.9-1.2z"/><path fill="#978f8a" fill-opacity=".5" d="M359.7 111.3l4.4 8.3-56.6 30-4.4-8.2z"/><path fill="#7e7c66" fill-opacity=".5" d="M18 137.7l-.8 1.4-18-9.6.8-1.4z"/><path fill="#a08977" fill-opacity=".5" d="M254.8 156.2l13 5.3-2.3 5.8-13-5.3z"/><path fill="#d0c7bf" fill-opacity=".5" d="M251.6 158.8l-12-3.7 1-3 12 3.7z"/><path fill="#6b7c81" fill-opacity=".5" d="M128.8 124.2l-14-9.9 1.7-2.5 14 9.8z"/><path fill="#6b665f" fill-opacity=".5" d="M82 214.6l-7.2-12 41.6-25 7.2 12z"/><path fill="#beb1a6" fill-opacity=".5" d="M412.8 110.2l.7 1.4-27.8 14.2-.8-1.4z"/><path fill="#706862" fill-opacity=".5" d="M316.4 164l-.7-1.4 91.4-40.7.6 1.4z"/><path fill="#477b8d" fill-opacity=".5" d="M102.5 185l-.7 1.5-49.6-23.1.7-1.4z"/><path fill="#e7d8cf" fill-opacity=".5" d="M6.2 86.6l.7-1.4 119.7 61-.7 1.4z"/><path fill="#5b6264" fill-opacity=".5" d="M155 77.2l1-1.3 78 54.7-.9 1.3z"/><path fill="#816d54" fill-opacity=".5" d="M33.6 44.4L-1.6 24.1l.8-1.3L34.4 43z"/><path fill="#2b353a" fill-opacity=".5" d="M257.1 141l-16.8 8.2-2.1-4.2 16.9-8.2z"/><path fill="#d3d0ce" fill-opacity=".5" d="M98.3 64.5l-8.8-10.9 1.2-1 8.9 11z"/><path fill="#4a3e2f" fill-opacity=".5" d="M285 161.2l74.7-31.7.7 1.4-74.8 31.8z"/><path fill="#42361f" fill-opacity=".5" d="M255.8 140.5l-35.9-25 1-1.3 35.7 25z"/><path fill="#cab9b1" fill-opacity=".5" d="M161.6 101l-.8 1.3-92.7-58 .8-1.3z"/><path fill="#9a8268" fill-opacity=".5" d="M10.1-42.9l122.9 86-1 1.3-122.8-86z"/><path fill="#b1cad7" fill-opacity=".5" d="M50.7-7.6L54.5-5 35.2 21.7l-3.8-2.8z"/><path fill="#8a8c8f" fill-opacity=".5" d="M195.2 147.9l-1.4 81.2-21.9-.4 1.5-81.2z"/><path fill="#eee7e2" fill-opacity=".5" d="M250 161l4.6 53-18.7 1.6-4.6-53z"/><path fill="#9b886c" fill-opacity=".5" d="M29 128.4L6 115.1l.9-1.3 23 13.3z"/><path fill="#b29a7a" fill-opacity=".5" d="M184.3 135.3L66.4 64.5l.9-1.4L185 134z"/><path fill="#7d706d" fill-opacity=".5" d="M310 217l-.6-1.5 179.1-65.2.6 1.4z"/><path fill="#98938a" fill-opacity=".5" d="M364.1 162.2l.6 1.4-46 19.5-.6-1.4z"/><path fill="#fff8f6" fill-opacity=".5" d="M142.4 158.2l.6 1.4-5.7 2.5-.6-1.4z"/><path fill="#bad3dd" fill-opacity=".5" d="M284.5 77l-4.4 4.4-10-10 4.5-4.4z"/><path fill="#352f29" fill-opacity=".5" d="M420.9 157.3l.5 1.4-72 26.2-.5-1.4z"/><path fill="#dfe9ed" fill-opacity=".5" d="M231 64.7l13.2-19.4 1.3.9-13.1 19.4z"/><path fill="#8badbb" fill-opacity=".5" d="M27 .5l9.7 5.1-5.9 11-9.7-5z"/><path fill="#bbac9a" fill-opacity=".5" d="M268.1 171l.9-1.4 67.5 42.3-.8 1.3z"/><path fill="#5a6c6f" fill-opacity=".5" d="M96.5 37.5l1 1.3-14.3 9.6-1-1.3z"/><path fill="#097c98" fill-opacity=".5" d="M107 54.7l31.2 18-3.1 5.4-31.1-18z"/><path fill="#71b2ca" fill-opacity=".5" d="M212.3 79.1l-5.4-5.6 1.1-1 5.4 5.5z"/><path fill="#e8ddd3" fill-opacity=".5" d="M319.1 203l-7.2 12-48.2-29 7.2-12z"/><path fill="#5a4727" fill-opacity=".5" d="M167.9 77.5l-.9 1.3L121.2 49l.8-1.3z"/><path fill="#1e7187" fill-opacity=".5" d="M129.4 128.6l29.5 14.4-5.5 11.2-29.5-14.4z"/><path fill="#67757c" fill-opacity=".5" d="M98.3 39L123 58.2l-1 1.3-24.5-19.3z"/><path fill="#705f47" fill-opacity=".5" d="M122.1 5.8l14 9.9-3.5 5-14-9.8z"/><path fill="#ae9c94" fill-opacity=".5" d="M57.9 209l-.5 1.4-60.6-20.9.5-1.4z"/><path fill="#7e7e7a" fill-opacity=".5" d="M230.5 161H221v-14.1h9.4z"/><path fill="#393521" fill-opacity=".5" d="M37 146l.6-1.5 70.8 33-.7 1.4z"/><path fill="#7ebad1" fill-opacity=".5" d="M394.3 17.7l9.5 18L307.3 87l-9.6-18z"/><path fill="#ebe5d9" fill-opacity=".5" d="M247.2 74.2l39.5 33.2-1 1.2-39.5-33.2z"/><path fill="#42494a" fill-opacity=".5" d="M102.5 105.2l13 8.6-.8 1.3-13-8.5z"/><path fill="#7a644b" fill-opacity=".5" d="M25.1 62.4L-6.3 45l1.5-2.7 31.4 17.4z"/><path fill="#eee4d9" fill-opacity=".5" d="M253.7 122.4l-1 1.2-42.4-32 1-1.2z"/><path fill="#9bc1d1" fill-opacity=".5" d="M162 47.6l1-1.3 42.2 29.6-1 1.2z"/><path fill="#202415" fill-opacity=".5" d="M104.3 173l-.8 9.3-6.2-.6.8-9.3z"/><path fill="#4c92ab" fill-opacity=".5" d="M7 .6l5.8-7.4L22.7 1l-5.8 7.4z"/><path fill="#cca97e" fill-opacity=".5" d="M185.4 144.4L141 115.5l3.4-5.2 44.5 28.9z"/><path fill="#6b675a" fill-opacity=".5" d="M22.6 142l20.1 8.5-1.2 2.9-20.1-8.6z"/><path fill="#efeae5" fill-opacity=".5" d="M54.5-21.8L141.8 44l-1 1.3-87.3-65.9z"/><path fill="#43442e" fill-opacity=".5" d="M139 11.4L173 39l-1 1.3-34-27.6z"/><path fill="#534434" fill-opacity=".5" d="M66.2 39.6l-.3-1.5 32-7.4.3 1.5z"/><path fill="#2d6b7d" fill-opacity=".5" d="M39.2 182.3l-4.5-1.5 5.8-17.8 4.5 1.5z"/><path fill="#727c82" fill-opacity=".5" d="M40.6 18.5L63.8-4.7l3.4 3.4L44 21.9z"/><path fill="#273330" fill-opacity=".5" d="M65 82l3.2.1-.5 6.3-3-.2z"/><path fill="#697670" fill-opacity=".5" d="M264.3 116.9l-1.1 1-7.2-8.2 1.2-1z"/><path fill="#e8dcd4" fill-opacity=".5" d="M-29.4 174.2L44 200.9l-.5 1.5-73.4-26.7z"/><path fill="#0f7088" fill-opacity=".5" d="M67.7 101.3l2.3-4.1 45 25-2.2 4z"/><path fill="#27768e" fill-opacity=".5" d="M23 86.7l5.4-13 15.9 6.8-5.5 13z"/><path fill="#3b403e" fill-opacity=".5" d="M232.2 90.3l3.3-5.3 12 7.5-3.3 5.3z"/><path fill="#505239" fill-opacity=".5" d="M158.7 26.7l-3.1 3.4-12.8-11.5 3.2-3.4z"/><path fill="#eae0d8" fill-opacity=".5" d="M251.1 113.4l19.2 20.6-1.1 1-19.2-20.5z"/><path fill="#595b56" fill-opacity=".5" d="M273.7 116.3l-1 1.2-38.6-29.1 1-1.3z"/><path fill="#625446" fill-opacity=".5" d="M106.4 3.2l27 15.7-.7 1.3-27-15.6z"/><path fill="#151d1a" fill-opacity=".5" d="M22 63.6l5.8 2.4-7.6 18.8-5.8-2.3z"/><path fill="#f5faf9" fill-opacity=".5" d="M87.7 126.7l-68.3-38 .7-1.3 68.3 37.9z"/><path fill="#6b7375" fill-opacity=".5" d="M234.8 144.6l-.9-1.3 7.9-5.1.8 1.3z"/><path fill="#adcbd4" fill-opacity=".5" d="M198.2 10.5l-2.6 12.2-1.6-.3 2.6-12.3z"/><path fill="#73b4cc" fill-opacity=".5" d="M244 6.6l14-26.3L285.6-5l-14 26.2z"/><path fill="#2a5e6d" fill-opacity=".5" d="M70.7 202.2l-1.5-.2 5.4-30.8 1.5.3z"/><path fill="#342814" fill-opacity=".5" d="M35.5 58l-9.3 5.7-.8-1.3 9.3-5.8z"/><path fill="#998f87" fill-opacity=".5" d="M318.6 84.9l4 6.8-27.1 15.6-4-6.8z"/><path fill="#37352a" fill-opacity=".5" d="M161.5 33l.8-1.3 18.4 11.9-.9 1.3z"/><path fill="#60a0b5" fill-opacity=".5" d="M75.7 187.5l1.7 20.2-1.5.1-1.8-20.2z"/><path fill="#17161e" fill-opacity=".5" d="M90.5 46l1.4.8-2.7 5.6-1.4-.7z"/><path fill="#70614d" fill-opacity=".5" d="M295.7 183.6l20.5 14.3-1 1.3-20.4-14.3z"/><path fill="#4d4134" fill-opacity=".5" d="M44.7 23.8l3.4-5.2L66.3 31l-3.5 5z"/><path fill="#5e686a" fill-opacity=".5" d="M27.6 64.9l1.6-2.7 29.2 18.2-1.7 2.7z"/><path fill="#5a939f" fill-opacity=".5" d="M103.4 130.3l-49.7-26.4.7-1.4 49.7 26.4z"/><path fill="#1d2222" fill-opacity=".5" d="M139.6 26l-9.6-5.2.7-1.4 9.7 5.1z"/><path fill="#12657a" fill-opacity=".5" d="M70 110.5L47.7 99l5.7-11 22.3 11.3z"/><path fill="#ccaa86" fill-opacity=".5" d="M262.4 100.2L250.6 90l1-1.2 11.8 10.3z"/><path fill="#a59e92" fill-opacity=".5" d="M229.7 186.7v-28.1h1.6v28.1z"/><path fill="#197085" fill-opacity=".5" d="M118 135.3l-39.7-22 5.3-9.5 39.6 22z"/><path fill="#8cbecf" fill-opacity=".5" d="M279.6 47.3l7.8.8-3 28-7.7-.8z"/><path fill="#568895" fill-opacity=".5" d="M140.7 30.5l-1.4-.7 2.8-5.6 1.4.7z"/><path fill="#d7ccc3" fill-opacity=".5" d="M273.4 124.3l47.8-26.5.8 1.3-47.9 26.6z"/><path fill="#341a00" fill-opacity=".5" d="M-4.7 124.3L6.9 129l-.6 1.4-11.6-4.7z"/><path fill="#292d23" fill-opacity=".5" d="M159.6 80.5l-1.4-.6 2.5-5.7 1.4.6z"/><path fill="#387b91" fill-opacity=".5" d="M229.7 128.2l1 1.2-8.9 6.5-.9-1.3z"/><path fill="#8c938f" fill-opacity=".5" d="M15.7 141.8l-30.5-7 .7-3.1 30.5 7z"/><path fill="#7e7b86" fill-opacity=".5" d="M18.9 87.9l-.2-1.6 4.6-.7.2 1.5z"/><path fill="#4e4432" fill-opacity=".5" d="M267.4 106.8l-1 1.2-35.3-25.7.9-1.3z"/><path fill="#eeded0" fill-opacity=".5" d="M107.2 20.3l-.9 1.3L75.6 0l.9-1.2z"/><path fill="#766c73" fill-opacity=".5" d="M413.2 49.6l-22.7 10.6-5.3-11.4L408 38.3z"/><path fill="#266577" fill-opacity=".5" d="M60 193.2l-62.7-24 .5-1.5 62.7 24z"/><path fill="#84bcd3" fill-opacity=".5" d="M288.7 31.4l39.3-38 38 39.3-39.3 38z"/><path fill="#6b6b63" fill-opacity=".5" d="M152.7 160l3.6 7-54.3 27.7-3.6-7z"/><path fill="#c5dee5" fill-opacity=".5" d="M221 35.5l-5.2 5.7-10.3-9.5 5.3-5.8z"/><path fill="#157b92" fill-opacity=".5" d="M168.9 100.3L135 80.8l.8-1.4 33.8 19.5z"/><path fill="#2e7b91" fill-opacity=".5" d="M64.4 176.8l7.6 1.5-3.5 18.4-7.7-1.5z"/><path fill="#99a29e" fill-opacity=".5" d="M212.4 72l-6.8-4 2.3-4 6.8 3.9z"/><path fill="#86786a" fill-opacity=".5" d="M281.4 121l1 1-9 8.6-1.2-1.1z"/><path fill="#49412f" fill-opacity=".5" d="M166.5 142.5l11.9-3.7.5 1.5-12 3.7z"/><path fill="#c7a57c" fill-opacity=".5" d="M125.1 109.6l2.8-5.6 26.7 13-2.8 5.6z"/><path fill="#b69d83" fill-opacity=".5" d="M6.8 35.5l38.8 26.2-.8 1.3L5.9 36.8z"/><path fill="#ccd6d7" fill-opacity=".5" d="M91.2 54.2L130 80.4l-.9 1.3-38.8-26.2z"/><path fill="#f8e5d0" fill-opacity=".5" d="M146.4-.6l9.7 7.8-1 1.2-9.7-7.8z"/><path fill="#312b27" fill-opacity=".5" d="M399.6 78l.7 1.4-35.8 19.1-.8-1.4z"/><path fill="#524938" fill-opacity=".5" d="M334.3 142.7l.6 1.4-61.4 27.3-.6-1.4z"/><path fill="#a49c97" fill-opacity=".5" d="M-1.7 84.9l.6-1.4 16.9 8.2-.7 1.4z"/><path fill="#f1e8d9" fill-opacity=".5" d="M115.6 88.3l.9-1.3 57 35.6-.9 1.3z"/><path fill="#f3eee6" fill-opacity=".5" d="M102.7 68.3l122 76.2-.9 1.3L102 69.6z"/><path fill="#719db1" fill-opacity=".5" d="M13.5 148.8l25 8.7-.4 1.5-25.1-8.7z"/><path fill="#060500" fill-opacity=".5" d="M278.4 114.7l2.2 2.3-1.2 1-2.1-2.2z"/><path fill="#6893a0" fill-opacity=".5" d="M150.1 136.8l-.8 1.4-94.7-54.7.8-1.4z"/><path fill="#4e5144" fill-opacity=".5" d="M117 110.8l.8-1.3 32.4 21.9-.9 1.3z"/><path fill="#76b5c9" fill-opacity=".5" d="M242 40.4l-4-2.4 21.6-36.2 4 2.4z"/><path fill="#5f6e70" fill-opacity=".5" d="M15.6 81.1v1.6l-4.6.2-.1-1.5z"/><path fill="#295565" fill-opacity=".5" d="M48.1 173.3l-3.1.2-1-17.2 3.2-.1z"/><path fill="#554e4c" fill-opacity=".5" d="M400 183.7l.7 1.4-77.4 29.7-.5-1.5z"/><path fill="#9acbda" fill-opacity=".5" d="M22 86.8l20.7 11-.7 1.4-20.7-11z"/><path fill="#856d4d" fill-opacity=".5" d="M86.5 33.3L56.8 19.4l2-4.2L88.5 29z"/><path fill="#bed1d9" fill-opacity=".5" d="M259 78.9l8.7-6.8 2.9 3.7-8.6 6.8z"/><path fill="#2a6e7e" fill-opacity=".5" d="M85.5 105L24.6 69.8l.8-1.3 61 35.1z"/></svg>