<svg xmlns="http://www.w3.org/2000/svg" viewBox="0 0 400 200"><filter id="b"><feGaussianBlur stdDeviation="12" /></filter><path fill="#cecec9" d="M0 0h400v200H0z"/><g filter="url(#b)" transform="translate(.8 .8) scale(1.5625)" fill-opacity=".5"><ellipse rx="1" ry="1" transform="matrix(.11488 17.53589 -81.795 .53584 227 121)"/><path d="M-7 141l1-30 55 2-1 30z"/><path fill="#fff" d="M123.8.5l103.3-48.2 49 105.2L173 105.7z"/><ellipse fill="#fff" cx="13" cy="32" rx="67" ry="67"/><ellipse cx="236" cy="127" rx="68" ry="22"/><path fill="#795d3a" d="M127 23l-18 79-42-44z"/><ellipse fill="#fff" rx="1" ry="1" transform="matrix(-7.62984 -31.39507 166.70958 -40.51488 60 11.7)"/><ellipse rx="1" ry="1" transform="matrix(2.25657 12.3428 -34.60717 6.32704 14.5 127)"/><ellipse fill="#b7ad9a" rx="1" ry="1" transform="matrix(-28.98758 17.00691 -27.73438 -47.2721 128.7 89.6)"/><ellipse fill="#f2f9fa" cx="214" cy="37" rx="71" ry="68"/><ellipse fill="#664d29" rx="1" ry="1" transform="matrix(4.90213 -4.78374 19.46235 19.94401 89.4 72.8)"/><path fill="#fff" d="M112 40l-9 33-12-17z"/><path fill="#191000" d="M271 118.3L182.2 143 163 100.2l-3 4.3z"/><path fill="#9a897c" d="M126.1 43.8l18.5-10-2 42-7.4 28.1z"/><ellipse fill="#edf5f7" rx="1" ry="1" transform="matrix(-12.41845 20.7256 -33.56313 -20.11049 46 82.9)"/></g></svg>