<svg xmlns="http://www.w3.org/2000/svg" viewBox="0 0 128 64"><path fill="#cfceca" d="M0 0h128v64H0z"/><g fill-opacity=".5"><path d="M71.5 53.5l72-2-40 28zm-46 2l-5 24-36-23z"/><path fill="#fff" d="M-15.5 3.5l159 51-16-70z"/><path fill="#9c866f" d="M68.5 9.5l24 70-59-50z"/><path d="M85.5 53.5l2 26 56-25z"/><path fill="#fff" d="M-15.5 47.5l34-63 26 71z"/><path d="M-14.5 59.5l39-4-4 19z"/><path fill="#4f2e01" d="M44.5 27.5l8 21-16-19z"/><path fill="#f5f9f8" d="M118.5-15.5l-50 82 9-63z"/><path fill="#754923" d="M66.5 15.5l-20 2 4 5z"/><path fill="#fafdff" d="M143.5-9.5l-17 36-128-26z"/><path fill="#130e00" d="M143.5 64.5l-26-14-48 24z"/><path fill="#847260" d="M49.5 37.5l-1 17 14-29z"/><path fill="#f6fbfe" d="M85.5-9.5l-82 56-14-50z"/><path fill="#fff" d="M45.5 31.5l10-9-2 11z"/><path fill="#ae916b" d="M80.5 38.5l-7 30 17 10z"/><path fill="#d2d8d5" d="M53.5 44.5l29 35-21-48z"/><path fill="#eef4f3" d="M86.5 50.5l57-10-86-56z"/><path fill="#74483a" d="M59.5 12.5l-3 16 7-14z"/><path fill="#231d06" d="M99.5 50.5l33 17-62 12z"/><path fill="#7a6041" d="M45.5 26.5l8 18-18-17z"/><path fill="#d2d3cc" d="M16.5 69.5l38-33-13 25z"/><path fill="#96807b" d="M67.5 17.5l6 4-10 22z"/><path fill="#f5f5f5" d="M54.5 18.5l31-33-98-1z"/><path fill="#d6e1df" d="M113.5 52.5l-30-5 60-16z"/><path fill="#1d1902" d="M24.5 58.5l-4 21-26-21z"/><path fill="#61492f" d="M58.5 18.5l-13 6 6-6z"/><path fill="#ac9b84" d="M86.5 52.5l-12-15 2 26z"/><path fill="#e7dcd9" d="M69.5 27.5l-4 14 4-6z"/><path fill="#f2f2e9" d="M53.5 36.5l2-15-9 8z"/><path fill="#f7f7f9" d="M64.5 22.5l2-16 10-4z"/><path fill="#9fa39f" d="M23.5 79.5l8-21-6-3z"/><path fill="#3b3227" d="M54.5 36.5l-2 7v-4z"/><path fill="#eff4f4" d="M46.5 5.5l-26 48-36-67z"/><path fill="#cbbfae" d="M49.5 32.5l-1-5-7 12z"/><path fill="#956e47" d="M81.5 79.5v-29l-6 20z"/><path fill="#61451c" d="M44.5 27.5l-3 7-6-7z"/><path fill="#604b3a" d="M67.5 29.5l-1 6-1-3z"/><path fill="#979290" d="M74.5 26.5l-3-7-1 19z"/><path fill="#5c6058" d="M24.5 54.5l-10 1 6 2z"/><path fill="#f2f3f3" d="M51.5 20.5h-42l-1-20z"/><path fill="#dde4e5" d="M5.5 54.5l38-2-44-16z"/><path fill="#757b79" d="M67.5 51.5l2-12 1 6z"/><path fill="#cbcac0" d="M64.5 79.5l-13-26 17-13z"/><path fill="#d4d1c7" d="M84.5 36.5l-19 31 7-33z"/><path fill="#c4b69e" d="M47.5 19.5l-1 11-5-8z"/><path fill="#d8dad5" d="M35.5 30.5l11 21-19 28z"/><path fill="#a9afaf" d="M99.5 47.5l-4 5h11z"/><path fill="#ced0c7" d="M65.5 23.5l-16 32 11-4z"/><path fill="#f0f2f2" d="M54.5-14.5l33 62 45-29z"/><path fill="#25210f" d="M85.5 55.5l3 24 55-28z"/><path fill="#473008" d="M43.5 35.5l-5-2 1-2z"/><path fill="#8b7266" d="M63.5 20.5l-3-5-3 14z"/><path fill="#dce4e3" d="M82.5 51.5l59-7-43-8z"/><path fill="#cabda8" d="M84.5 56.5l2 14-4-3z"/><path fill="#ccb8af" d="M67.5 33.5l3 1v-10z"/><path fill="#5e2a19" d="M59.5 15.5l-4 4h5z"/><path fill="ivory" d="M52.5 23.5h4l-2-2z"/><path fill="#e0dcd4" d="M54.5 34.5l3-14-9 11z"/><path fill="#3c3a2f" d="M110.5 58.5v-5l-7-1z"/><path fill="#705736" d="M39.5 29.5l1 6 10 3z"/><path fill="#f3f4f6" d="M22.5 24.5l77-24-115 3z"/><path fill="#e9f1ed" d="M57.5 21.5l-4 9h-7z"/><path fill="#c1b5a5" d="M75.5 53.5l-1-15 5-1z"/><path fill="#9d8765" d="M48.5 25.5l-1-8 5 2z"/><path fill="#161305" d="M140.5 79.5l-5-19-49 2z"/><path fill="#d6cfcb" d="M60.5 22.5l3 10 1-6z"/><path fill="#82704f" d="M49.5 46.5l5-4-6 11z"/><path fill="#d0cdc5" d="M51.5 70.5l10 6 8-39z"/><path fill="#e6ebe8" d="M99.5 45.5l-26-11 65-2z"/><path fill="#ab9583" d="M50.5 37.5l-4-2 8-3z"/><path fill="#5e4633" d="M46.5 39.5v3l4-5z"/><path fill="#cec7b3" d="M37.5 34.5l4 9 5-1z"/><path fill="#957d60" d="M87.5 77.5l-8-29-3 28z"/><path fill="#35372c" d="M23.5 56.5l-5 5-18-4z"/><path fill="#cfd1ca" d="M34.5 40.5l6 1 4-5z"/><path fill="#8f7855" d="M42.5 27.5l-3-2 7 2z"/><path fill="#dac8c1" d="M67.5 20.5l-6-1 7-1z"/><path fill="#c8c8be" d="M42.5 55.5l39 17-24-25z"/><path fill="#988b7d" d="M63.5 16.5l-4 11-5 1z"/><path fill="#484641" d="M68.5 45.5v-2l-1 3z"/><path fill="#cab7a4" d="M52.5 39.5l1-3-3 1z"/><path fill="#dbdcd6" d="M35.5 65.5l15-23-14 7z"/><path fill="#b8b4af" d="M54.5 41.5l4 7 2-15z"/><path fill="#d6e1dd" d="M124.5 42.5l-6 8 25-2z"/><path fill="#f3f4f0" d="M43.5 8.5l19-1-9 11z"/><path fill="#ccb9a0" d="M45.5 26.5l-7-1 11-6z"/><path fill="#8f7e65" d="M39.5 35.5l5 5 1-4z"/><path fill="#614d34" d="M79.5 62.5l-1-2v4z"/><path fill="#a5b2b5" d="M10.5 55.5h-26v-8z"/><path fill="#eef1f0" d="M46.5 16.5l-22-7-24 44z"/><path fill="#f0f2f2" d="M143.5 27.5l-69 8v-51z"/><path fill="#d3d4cb" d="M74.5 55.5l-2-16-6 20z"/><path fill="#b1b4b1" d="M41.5 75.5l-8 4-8-24z"/><path fill="#d8cebd" d="M73.5 55.5l4-12v8z"/><path fill="#dccfbf" d="M48.5 26.5l-4-7-4 3z"/><path fill="#b5b3a8" d="M65.5 56.5v6l3-10z"/><path fill="#977963" d="M50.5 24.5v-4l-1 1z"/><path fill="#e0e4e5" d="M34.5 54.5l3-14-53 7z"/><path fill="#e9dccc" d="M47.5 35.5v-4l7-2z"/></g></svg>