<svg xmlns="http://www.w3.org/2000/svg" viewBox="0 0 400 200"><path fill="#cecec9" d="M0 0h400v200H0z"/><path fill-opacity=".5" d="M415.2 230.5l-176.4 6.2-2.4-68.8 176.4-6.1zM-4.7 177.1l81.1-4.2 1.7 32.8-81 4.2z"/><path fill="#fff" fill-opacity=".5" d="M248-101.1L446.2 53.8l-89.5 114.5L158.5 13.4z"/><path fill-opacity=".5" d="M265 170.4l182.8-6.4 1.2 36-182.7 6.3z"/><path fill="#fff" fill-opacity=".5" d="M-71.1 78.6l159-159.1 97.3 97.2L26 175.8z"/><path fill="#522e00" fill-opacity=".5" d="M104.2 93.8l19-18.4 55.4 57.3-19 18.5z"/><path fill="#ad9c84" fill-opacity=".5" d="M276.6 207.3l-63.3 26.9L140.6 63 204 36.1z"/><path fill-opacity=".5" d="M74.8 177l1.8 32.7-106.1 5.6-1.8-32.8z"/><path fill="#f7fdff" fill-opacity=".5" d="M131.8-25.8L97.4 169.7l-134-23.6L-2-49.4z"/><path fill="#f7fdfe" fill-opacity=".5" d="M273.3-18l86.6 31.4-53.5 146.9-86.6-31.6z"/><path fill="#5a2400" fill-opacity=".5" d="M155.6 72.7l-3.9-8.5L196 44.5l3.8 8.5z"/><path fill="#181000" fill-opacity=".5" d="M424.4 168.3l1.1 31.2-160.8 5.6-1.1-31.2z"/><path fill="#7a6257" fill-opacity=".5" d="M174.8 133.4l-12-3.6L189.3 43l12 3.7z"/><path fill="#feffff" fill-opacity=".5" d="M116.7 61.7L102 2.7l151.6-37.9L268.3 24z"/><path fill="#fff" fill-opacity=".5" d="M141.2 106.5l25.6-39.3 9.1 6-25.5 39.3z"/><path fill="#f3f8f8" fill-opacity=".5" d="M501-.8L395.3 156 278.7 77.3 384.4-79.4z"/><path fill="#cacfc8" fill-opacity=".5" d="M156.7 193.9l16.3-76.5 71.8 15.3-16.2 76.4z"/><path fill="#926e5b" fill-opacity=".5" d="M210 102.7l-10.2-3.9 16.8-43.7 10.2 3.9z"/><path fill="#745a34" fill-opacity=".5" d="M119.7 108.8l-7.2-8.3 41.3-35.8 7.1 8.2z"/><path fill="#6f522a" fill-opacity=".5" d="M147.4 166l19.8-42.5 5.7 2.7-19.8 42.5z"/><path fill="#b8a17a" fill-opacity=".5" d="M255.4 118.6l12.4 88.2-31 4.3-12.4-88.2z"/><path fill="#e3e8e5" fill-opacity=".5" d="M126.3 189.8l-81.7-49 30.6-51L157 139z"/><path fill="#53392c" fill-opacity=".5" d="M210.5 155.2l16.6-78 1.5.4-16.6 78z"/><path fill="#f7f9fb" fill-opacity=".5" d="M180.7 6l20.5 23.5-36.6 31.8-20.5-23.6z"/><path fill="#674f3c" fill-opacity=".5" d="M200 138.3l-4.5-1 9.1-39.7 4.6 1.1z"/><path fill="#593d19" fill-opacity=".5" d="M146.2 133.2l-31-31 9-8.8 30.8 31z"/><path fill="#cccbbd" fill-opacity=".5" d="M179.7 87.7l-39.6 85-5.7-2.6L174 85z"/><path fill="#24200c" fill-opacity=".5" d="M395.8 220.4l-49.3 20-25.1-62.4 49.2-19.9z"/><path fill="#cec09a" fill-opacity=".5" d="M120 89.7l-8-15.2 41.4-22 8 15.2z"/><path fill="#f1f7f7" fill-opacity=".5" d="M210.7 32l24.2-10.8L294 153.9l-24.2 10.8z"/><path fill="#ccc7b5" fill-opacity=".5" d="M126.7 127.3l-3.2-5.3 48.2-29 3.2 5.3z"/><path fill="#dbe3e1" fill-opacity=".5" d="M204.7 221.4l20.5-96.3 9.1 2-20.4 96.2z"/><path fill="#e4e5e4" fill-opacity=".5" d="M185.5 112.8l24.7-92 9 2.3-24.7 92.1z"/><path fill="#1b1500" fill-opacity=".5" d="M-28.8 187.4l103.1 1.8-.2 12.5-103.1-1.8z"/><path fill="#d6dddf" fill-opacity=".5" d="M0 130.4l63.9-4.5 3.3 48.4-63.9 4.4z"/><path fill="#9aa39e" fill-opacity=".5" d="M78.6 172.5l17 2.1-4 32.6-17-2.1z"/><path fill="#a2adaa" fill-opacity=".5" d="M357 160.2v6.2h-59.3v-6.2z"/><path fill="#8a6b0b" fill-opacity=".5" d="M167.7 63.8l-4.1 6.6-17.3-10.8 4.2-6.6z"/><path fill="#69451c" fill-opacity=".5" d="M111.7 83.3l12.7 6-3.3 7-12.7-5.9z"/><path fill="#d6e0de" fill-opacity=".5" d="M421 165l-145.2-5 1.6-45.3 145.2 5z"/><path fill="#8c7050" fill-opacity=".5" d="M246.9 147.2l10.9 1.2-6.2 59-11-1.1z"/><path fill="#effcfa" fill-opacity=".5" d="M171.7 81l-4.7 24.5-18.4-3.6 4.7-24.6z"/><path fill="#c4c8c2" fill-opacity=".5" d="M171.1 122.3l40.8 11-6.5 24-40.7-10.8z"/><path fill="#ebefee" fill-opacity=".5" d="M80.7 139.6L59 110.9l40-30.1 21.6 28.7z"/><path fill="#674a26" fill-opacity=".5" d="M123.1 108.3L145 100l2.2 5.8-21.9 8.4z"/><path fill="#f2f3f4" fill-opacity=".5" d="M224.6-11.3L505.4-26l6 113.9-280.9 14.7z"/><path fill="#f6f9fd" fill-opacity=".5" d="M59 52.4l.2-1.5 99 13.9-.2 1.5z"/><path fill="#af9c76" fill-opacity=".5" d="M150.3 185.3l-4.7-.6 5.7-46.5 4.7.5z"/><path fill="#5d4b3b" fill-opacity=".5" d="M161.9 143.3l-1.5-.6 26.2-72 1.4.6z"/><path fill="#491800" fill-opacity=".5" d="M191.2 44l1 1.3L176 57.5l-1-1.2z"/><path fill="#61523c" fill-opacity=".5" d="M210.5 167.5l7.1-40 1.5.3-7 40z"/><path fill="#c5b6ab" fill-opacity=".5" d="M184.5 84.7L201.6 46l18.6 8.3L203 92.9z"/><path fill="#a6afaa" fill-opacity=".5" d="M257.2 169.1l-.1-1.5 37.2-4 .2 1.6z"/><path fill="#6d5441" fill-opacity=".5" d="M212.8 94.9l-5.8 17.8-8.9-2.9L204 92z"/><path fill="#4a2800" fill-opacity=".5" d="M185.3 57.4l-.3 6.2-12.5-.7.3-6.2z"/><path fill="#d5d9cf" fill-opacity=".5" d="M243 122.5l1.5 40.6-7.9.3-1.4-40.6z"/><path fill="#dadacf" fill-opacity=".5" d="M136 77l18.4 4-1.3 6-18.4-3.9z"/><path fill="#c4cac6" fill-opacity=".5" d="M201 130.3l12.8-35.2 11.8 4.3-12.9 35.2z"/><path fill="#666c6c" fill-opacity=".5" d="M34.4 181.3h-67.2v-7.9h67.2z"/><path fill="#2d2b1b" fill-opacity=".5" d="M68.9 191.2l4.6-19.8 6 1.4-4.5 19.8z"/><path fill="#f1f5f6" fill-opacity=".5" d="M159.6 46.3l-77.2 56-9.1-12.6 77-56z"/><path fill="#f3f6f8" fill-opacity=".5" d="M131.2 11.2l14.5-31.1 109 50.8-14.5 31.2z"/><path fill="#e4e9e9" fill-opacity=".5" d="M21 160.1l12-48.5 82 20.4-12.1 48.6z"/><path fill="#6a5434" fill-opacity=".5" d="M162.2 110.9L150 129l-1.3-.8 12.2-18.2z"/><path fill="#909894" fill-opacity=".5" d="M354.4 163.2l1-7.7 38.7 4.7-1 7.8z"/><path fill="#676561" fill-opacity=".5" d="M311 170.2l-7.6-1.7 2.8-12.2 7.6 1.8z"/><path fill="#cdcbc4" fill-opacity=".5" d="M180 145.2l54.7 30.3L209 222l-54.7-30.3z"/><path fill="#181505" fill-opacity=".5" d="M379.5 183.6l1.6 23.4-112.2 7.8-1.6-23.3z"/><path fill="#9c8d6b" fill-opacity=".5" d="M234.5 144.5l-3.3-31 1.5-.2 3.3 31z"/><path fill="#a19074" fill-opacity=".5" d="M255.8 157.2l-21.7 46.7-7.1-3.3 21.8-46.7z"/><path fill="#a5968f" fill-opacity=".5" d="M207.4 56l8.5-3.9 15.8 34-8.5 4z"/><path fill="#b5a593" fill-opacity=".5" d="M184.6 72.4l1.4.6-15.9 37.4-1.4-.6z"/><path fill="#cbba97" fill-opacity=".5" d="M259.3 154.9l11 69.4-3 .5-11-69.4z"/><path fill="#f4faf5" fill-opacity=".5" d="M173.3 66.5l-25 32-1.3-1 25-32z"/><path fill="#d5a085" fill-opacity=".5" d="M176.3 53.8L193 37.3l1.1 1L177.4 55z"/><path fill="#988673" fill-opacity=".5" d="M194.8 156.7l-1.5-.3L203.6 98l1.5.2z"/><path fill="#b8ab94" fill-opacity=".5" d="M127.6 67.4l22.7 41-1.3.8-22.8-41z"/><path fill="#776757" fill-opacity=".5" d="M210.6 161.7l-1.5-.4 16.2-65.2 1.6.4z"/><path fill="#e5eae8" fill-opacity=".5" d="M261.2 150.7l-3.3-37.3 107.4-9.4 3.3 37.3z"/><path fill="#5c5c5b" fill-opacity=".5" d="M188.8 89.3l1.4.6-11.8 25.5-1.5-.6z"/><path fill="#c3c4b5" fill-opacity=".5" d="M151 142.5l-2 2.5-32.8-26.6 2-2.4z"/><path fill="#eff4ef" fill-opacity=".5" d="M175.1 63.8l3 3.5-23.5 20.5-3-3.5z"/><path fill="#715000" fill-opacity=".5" d="M167 67.5l-1 1.2L150.2 56l1-1.2z"/><path fill="#81675c" fill-opacity=".5" d="M208.5 69.8L222 62l2.3 4-13.5 7.9z"/><path fill="#f4f6f7" fill-opacity=".5" d="M-27.6 56.4l-1-57.8 198.4-3.5 1 57.9z"/><path fill="#d8ddd7" fill-opacity=".5" d="M226.6 117.9l6.2.5-7.9 90.3-6.2-.6z"/><path fill="#6a4b27" fill-opacity=".5" d="M137.7 90.5l-2.5 9-15-4 2.4-9z"/><path fill="#553f21" fill-opacity=".5" d="M153.9 116.8l-8.2 16.9-4.3-2 8.3-17z"/><path fill="#cdd0c9" fill-opacity=".5" d="M214.1 49.7l-22.3 73.2-7.5-2.3 22.4-73.2z"/><path fill="#c5cdca" fill-opacity=".5" d="M308.6 141.5l7.3 15.6-19.8 9.2-7.3-15.6z"/><path fill="#a2aca9" fill-opacity=".5" d="M26 172.1l-1.6 4.4-17.6-6.4 1.6-4.4z"/><path fill="#bcbfbe" fill-opacity=".5" d="M173.3 150.2l-8.4-4.3 22.7-44.5 8.4 4.2z"/><path fill="#413223" fill-opacity=".5" d="M163.1 140.6l8.2-27 1.5.5-8.2 27z"/><path fill="#e0e7e4" fill-opacity=".5" d="M377.7 105.7l18.7 1.3-3.8 54.5-18.7-1.3z"/><path fill="#ced0c9" fill-opacity=".5" d="M219.3 77.4l4.5 1.4-41.6 136-4.4-1.4z"/><path fill="#dce0db" fill-opacity=".5" d="M90.2 108.3l24.3-6 34.4 137.9-24.3 6z"/><path fill="#38311e" fill-opacity=".5" d="M333 165l2.2 17-63.6 7.8-2.1-17z"/><path fill="#948f7e" fill-opacity=".5" d="M238.7 160l.4-1.5 48.7 11.2-.3 1.5z"/><path fill="#322f1c" fill-opacity=".5" d="M368.7 161.6l2.7 5.6-35.4 16.5-2.7-5.6z"/><path fill="#573d22" fill-opacity=".5" d="M192.1 44.6l1 1.2-43 36.2-1-1.2z"/></svg>