<svg xmlns="http://www.w3.org/2000/svg" viewBox="0 0 50 25"><path fill="#cfcfca" d="M0 0h50v25H0z"/><g fill-opacity=".5"><path d="M31.5 21.5l-18 19 52-22zm-21 0l-7 19-12-19z"/><path fill="#fff" d="M65.5 18.5v-34l-78 19z"/><path fill="#a1907b" d="M38.5 40.5l-10-35-16 3z"/><path d="M60.5 20.5l-29 20 3-20z"/><path fill="#fff" d="M5.5 20.5l-21-8 56-28z"/><path d="M8.5 22.5l-24 1 28 17z"/><path fill="#f8fdfd" d="M36.5 19.5l29-7-50-28z"/><path fill="#5f5038" d="M22.5 18.5l-8-7 3-2z"/><path fill="#d7d7d0" d="M-1.5 33.5l29-4 4-17z"/><path fill="#886c5d" d="M24.5 5.5l-1 5-4-3z"/><path fill="#f1f7f8" d="M17.5 23.5l-33-15 22-19z"/><path fill="#161100" d="M9.5 40.5l56-18-27-2z"/><path fill="#ece0d0" d="M15.5 6.5l7 7-4-1z"/><path fill="#eff2f2" d="M56.5-15.5l-12 36-41-36z"/><path fill="#a19691" d="M26.5 10.5l-5 1-3 10z"/><path fill="#d0d1ca" d="M24.5 12.5l-9 21 17 7z"/><path fill="#ac916c" d="M33.5 25.5l-2-7-8 20z"/><path fill="#e4e7e4" d="M29.5 12.5l29-1-2 11z"/><path fill="#1f2318" d="M7.5 21.5h-21l34 14z"/><path fill="#f4f6f7" d="M45.5-8.5l-42 23-17-20z"/><path fill="#ddcdbe" d="M18.5 8.5l3 1-2 1z"/><path fill="#6c716d" d="M39.5 21.5l-3-1 6-1z"/><path fill="#5e4f38" d="M16.5 14.5l-1-2 3-3z"/><path fill="#dbe0de" d="M33.5 18.5l32 1-1-9z"/><path fill="#c9c7c1" d="M10.5 20.5h19l-14 13z"/><path fill="#f1f2f1" d="M21.5 5.5l-37 11v-14z"/><path fill="#fff9e7" d="M21.5 10.5l-3 1 1 1z"/><path fill="#5a534b" d="M19.5 9.5v-1h-1z"/><path fill="#1f1d13" d="M48.5 20.5h-11l18 20z"/><path fill="#a3a5a7" d="M27.5 11.5l1 9-4-5z"/><path fill="#7b6761" d="M22.5 12.5l1 1-1-3z"/><path fill="#958781" d="M27.5 7.5l-2 6h2z"/><path fill="#f2f4f1" d="M33.5 17.5l-7-15 39-13z"/><path fill="#a6977e" d="M32.5 21.5l6 19-18-10z"/><path fill="#cecbc2" d="M20.5 40.5l6-26-28 26z"/><path fill="#dfe6e5" d="M16.5 19.5l-29 1 9-6z"/><path fill="#ffeddc" d="M20.5 9.5v2l-4 1z"/><path fill="#c5c2b5" d="M17.5 10.5l-1-2 3 3z"/><path fill="#e0d8c7" d="M31.5 39.5l-6 1 3-23z"/><path fill="#e0e4e1" d="M43.5 19.5l1-4-15-1z"/><path fill="#836642" d="M31.5 23.5l13 17-22-4z"/><path fill="#e3ddcf" d="M18.5 17.5l-3 2-4-8z"/><path fill="#898376" d="M18.5 17.5l5-5-2 5z"/><path fill="#d0cbc1" d="M23.5 14.5l-15 26 15-13z"/><path fill="#a7aaa6" d="M10.5 22.5l8 10-7 8z"/><path fill="#8b7363" d="M23.5 7.5l1-1v2z"/><path fill="#7a756c" d="M47.5 20.5l18-5v5z"/><path fill="#dbdad1" d="M12.5 19.5l4 1 3-4z"/><path fill="#cdd4d2" d="M42.5 18.5l-6-1 3 2z"/><path fill="#2c2b22" d="M38.5 40.5h-16l22-20z"/><path fill="#b6b4ad" d="M32.5 23.5v9l10 8z"/><path fill="#d7c1b5" d="M26.5 10.5l-1-4-2 6z"/><path fill="#1e1707" d="M43.5 40.5l8-15-17-3z"/><path fill="#1b1811" d="M-15.5 25.5l38 15-14-17z"/><path fill="#9b8475" d="M25.5 6.5l-2-1v6z"/><path fill="#f2f4f4" d="M60.5.5l-42-16 8 22z"/><path fill="#dbdcdb" d="M12.5 18.5l1 22h26z"/><path fill="#e9f1f3" d="M11.5 18.5v-12l-10 5z"/><path fill="#f9f3ee" d="M24.5 2.5l-11 1 7 3z"/><path fill="#ccb69f" d="M29.5 21.5l3-7h-3z"/><path fill="#e3e8df" d="M33.5 16.5l5 1-4 2z"/><path fill="#978062" d="M31.5 19.5l3 21h-7z"/><path fill="#90796a" d="M22.5 10.5v-4l1 3z"/><path fill="#656b64" d="M3.5 22.5l-15-3-4-8z"/><path fill="#c5c4be" d="M21.5 30.5l3-21 4 31z"/><path fill="#f5f4f1" d="M10.5 9.5l7-8-1 6z"/><path fill="#a09784" d="M33.5 20.5l-1 16-8 3z"/><path fill="#bdc0ba" d="M38.5 20.5h-2l3-2z"/><path fill="#ece7d6" d="M31.5 11.5l-2-2-1 8z"/><path fill="#ecefee" d="M44.5 19.5l-15-12h8z"/><path fill="#cacec6" d="M26.5 15.5l-3 25-5-9z"/><path fill="#896f4c" d="M29.5 34.5l2-11 8 11z"/><path fill="#b0aa99" d="M31.5 20.5l1-1 3 1z"/><path fill="#a4988f" d="M27.5 9.5l-1-3-1 5z"/><path fill="#eff2f0" d="M65.5 17.5v-23l-39 11z"/><path fill="#695133" d="M44.5 31.5l-11-7-9 5z"/><path fill="#c0c2c0" d="M13.5 22.5v18l6-2z"/><path fill="#aca6a1" d="M26.5 6.5l2 6-2 7z"/><path fill="#a29d8b" d="M18.5 20.5l1-2 2-1z"/><path fill="#d2cdc1" d="M23.5 15.5l-13 25h15z"/><path fill="#bdb8b0" d="M19.5 19.5l-1 3v-3z"/><path fill="#c0beb4" d="M16.5 10.5l-1-1 2-1z"/><path fill="#665749" d="M21.5 7.5h2v-2z"/><path fill="#f2f4f6" d="M-15.5 8.5l39-4 19-20z"/><path fill="#6e5f4a" d="M16.5 14.5h2l-4-4z"/><path fill="#5e4c3c" d="M23.5 5.5h1l-2 2z"/><path fill="#c8cac4" d="M26.5 15.5l-3 25-5-8z"/><path fill="#f2efee" d="M42.5-15.5h14l-31 23z"/><path fill="#f7f5e4" d="M30.5 10.5l3 5-4-3z"/><path fill="#b8b9b6" d="M11.5 22.5l-5 16 10-1z"/><path fill="#e2e7e7" d="M35.5 13.5l3 5 6-5z"/><path fill="#afadaa" d="M26.5 11.5l2 1-5 5z"/><path fill="#cecdc9" d="M18.5 20.5l-6 20h-9z"/><path fill="#ede7df" d="M16.5 6.5h3l1-2z"/><path fill="#c8c7bc" d="M22.5 16.5l5 5-7-1z"/><path fill="#cec1b2" d="M29.5 13.5l2 3-3 2z"/><path fill="#e4e4e7" d="M11.5 15.5l3 4-8 1z"/><path fill="#897e6d" d="M22.5 13.5l-2 5-1-5z"/><path fill="#cdc7bd" d="M22.5 15.5l3 25-9-1z"/></g></svg>