<svg xmlns="http://www.w3.org/2000/svg" viewBox="0 0 400 200"><path fill="#cecec9" d="M0 0h400v200H0z"/><path fill-opacity=".5" d="M417.4 163.3l1.2 68.7-181.3 3.2-1.2-68.8zM77.3 173.7l1.6 48.4-76.5 2.7-1.7-48.4z"/><path fill="#fff" fill-opacity=".5" d="M378-75.5l73.7 165.6-181.3 80.7L196.7 5.2z"/><path fill="#fff" fill-opacity=".5" d="M198.4 8l-172 166L-87.4 56l172-166z"/><path fill-opacity=".5" d="M412.9 166l.7 42-146.8 2.7-.8-42.2z"/><path fill="#876f51" fill-opacity=".5" d="M231.7 114.6l-85.5 45.5L107.3 87 193 41.5z"/><path fill-opacity=".5" d="M-.5 182.4l74.8-5.3 2.8 39-74.9 5.2z"/><path fill="#513001" fill-opacity=".5" d="M156 121.8l-14.5 11.8L108 92.3l14.6-11.8z"/><path fill="#feffff" fill-opacity=".5" d="M.6-19.1l398.3 7-1 60.9-398.4-7z"/><path fill="#c1a476" fill-opacity=".5" d="M232.2 210.7l-6.4-73.1 34.2-3 6.4 73.1z"/><path fill="#fff" fill-opacity=".5" d="M142.4 97.3l26.2-31.1 15.5 13-26.1 31.2z"/><path fill="#f2f9fc" fill-opacity=".5" d="M111.3 37L109 169.6l-112.5-2L-1.2 35z"/><path fill="#f2f8f9" fill-opacity=".5" d="M429.2 42.2L408 151.1l-182.5-35.5L246.7 6.7z"/><path fill="#622d06" fill-opacity=".5" d="M154 78.4l-4.1-6.7L197.6 42l4.1 6.7z"/><path fill="#180f00" fill-opacity=".5" d="M402 225.4l-132.8 2.3-1-54.7 132.9-2.3z"/><path fill="#b8b2a9" fill-opacity=".5" d="M168.8 169.2L193 54.5l42.8 9.1-24.3 114.7z"/><path fill="#7a6348" fill-opacity=".5" d="M145.2 168.1L182 76.8l8.7 3.5-37 91.3z"/><path fill="#e2e7e1" fill-opacity=".5" d="M82.2 150.2l31-41.2 43.7 33-31 41.1z"/><path fill="#68533d" fill-opacity=".5" d="M211 169l-3-.7 16.9-79.5 3 .7z"/><path fill="#e0e4e1" fill-opacity=".5" d="M211.2 54.8l-21.1 84.9-9.1-2.3 21-84.9z"/><path fill="#8a644e" fill-opacity=".5" d="M205.2 117.1l-9-2.9 19-58 8.8 3z"/><path fill="#966c03" fill-opacity=".5" d="M157.6 62.2l-17.1-1 .3-6.2 17.2 1z"/><path fill="#9ea9a5" fill-opacity=".5" d="M335.3 164l-74.6 7.9-.7-6.2 74.6-7.9z"/><path fill="#f6fafc" fill-opacity=".5" d="M83.4 82.1l-11.7-29 184-74.3 11.7 29z"/><path fill="#dce5e4" fill-opacity=".5" d="M258.2 114.4l212.5-3.8.8 45.4-212.5 3.7z"/><path fill="#998464" fill-opacity=".5" d="M245.3 146.7l16.4 5-21 68.8-16.5-5z"/><path fill="#fff" fill-opacity=".5" d="M162.7 78.3l-3-5.6 16.6-8.8 3 5.6z"/><path fill="#cacdc7" fill-opacity=".5" d="M171.2 122l27 7.8-24 84.1-27.1-7.8z"/><path fill="#614521" fill-opacity=".5" d="M113.7 96l20.5-11.3 9.9 17.7-20.5 11.4z"/><path fill="#1d1900" fill-opacity=".5" d="M-21.9 213.3v-28.1h95.3v28z"/><path fill="#8b7569" fill-opacity=".5" d="M195.3 54.9L176 102.7l-7.2-3L188 52z"/><path fill="#e9f0ea" fill-opacity=".5" d="M170.3 110.9l-26.7-13 9.6-19.7 26.7 13z"/><path fill="#422c15" fill-opacity=".5" d="M173 119.4l-12 27.1-4.3-1.9 12-27z"/><path fill="#a78b5e" fill-opacity=".5" d="M128.3 70.5l6.4 6.9-24 22.4-6.4-6.9z"/><path fill="#959e99" fill-opacity=".5" d="M99.8 219.4l-15.4 2.7-7.6-43 15.4-2.8z"/><path fill="#685130" fill-opacity=".5" d="M162 112.7l-14.8 22-7.7-5.2 14.8-22z"/><path fill="#beb39c" fill-opacity=".5" d="M166.3 124.2l-29-11.7 4.2-10.1 29 11.7z"/><path fill="#252813" fill-opacity=".5" d="M362.2 174.3l-4.4-10 12.8-5.7 4.5 10z"/><path fill="#d2d9da" fill-opacity=".5" d="M10.9 177.5l-1.4-39 53-2 1.4 39.1z"/><path fill="#d0d9d5" fill-opacity=".5" d="M211.8 100.5l8.9 3-15.3 44.4-8.9-3z"/><path fill="#a18c63" fill-opacity=".5" d="M232 115.6h3.2v36H232z"/><path fill="#f8f7f4" fill-opacity=".5" d="M148.8 39l22.7-16.6 15.7 21.5-22.8 16.5z"/><path fill="#f1f4f5" fill-opacity=".5" d="M265.7-17.4l30.7 114.7-57.4 15.4L208.3-2z"/><path fill="#dcd9c3" fill-opacity=".5" d="M130 67.5l12-3.2 4.5 16.6-12 3.2z"/><path fill="#a69287" fill-opacity=".5" d="M231.7 95.6L221.3 99l-14-43 10.4-3.5z"/><path fill="#a19592" fill-opacity=".5" d="M192.3 63.6l4.4 1.5-21.8 63.5-4.5-1.5z"/><path fill="#755f4a" fill-opacity=".5" d="M195.8 144.2l14.7-59.1 1.5.4-14.7 59.1z"/><path fill="#62440d" fill-opacity=".5" d="M191.6 62.3l-34.2 3.5-.5-4.6 34.2-3.6z"/><path fill="#441e00" fill-opacity=".5" d="M192.2 43.1l1 1.2-30.7 26.6-1-1.1z"/><path fill="#cbcabf" fill-opacity=".5" d="M223.9 199.5l-66.4 17.8-14.2-52.8 66.4-17.8z"/><path fill="#d8e1de" fill-opacity=".5" d="M223 170.8l5.6-81 6.3.4-5.7 81z"/><path fill="#d7c2b3" fill-opacity=".5" d="M218.4 80.6l-31 4.3-1-7.7 30.9-4.3z"/><path fill="#d0bc95" fill-opacity=".5" d="M261 157.7l6 57.5-4.6.5-6-57.5z"/><path fill="#c8c3b1" fill-opacity=".5" d="M125 124.7l-1-1.3 30.8-21.5.9 1.3z"/><path fill="#3f351d" fill-opacity=".5" d="M262.4 178.7l8-13.4 28.2 17-8 13.3z"/><path fill="#c4c9c4" fill-opacity=".5" d="M167.4 173l-11.2-5.5 34.2-70.2 11.2 5.5z"/><path fill="#1b1904" fill-opacity=".5" d="M423.1 196.9l-155.8 10.9-1.4-18.7 156-11z"/><path fill="#a5997f" fill-opacity=".5" d="M138.7 105.4l-4.1-2.2 22-41.4 4.1 2.2z"/><path fill="#87796f" fill-opacity=".5" d="M183.7 104l-12.6-6.2 6.1-12.7 12.7 6.2z"/><path fill="#252210" fill-opacity=".5" d="M73 189.3l-4.2-2.2 6.7-12.4 4 2.2z"/><path fill="#7d5d00" fill-opacity=".5" d="M166.1 68.8l-19.1-16 1-1.3 19.1 16z"/><path fill="#665336" fill-opacity=".5" d="M144.7 75.7l10.6-2.8 1.6 6-10.6 2.9z"/><path fill="#bbc2bc" fill-opacity=".5" d="M79 172.8l10.8 1.7-4.7 29.3-10.8-1.7z"/><path fill="#c9c8bc" fill-opacity=".5" d="M136 164.3l31.8-57.4 4 2.3-31.8 57.4z"/><path fill="#c5cecc" fill-opacity=".5" d="M336 152l-2.4 12.2-43-8.3 2.4-12.3z"/><path fill="#64615c" fill-opacity=".5" d="M312.1 154.6l4.2 2.2-8.1 15.2-4.1-2.2z"/><path fill="#f1f5f8" fill-opacity=".5" d="M160.1 32.3l-14.3 29.5-16.9-8.2 14.4-29.5z"/><path fill="#4e3e30" fill-opacity=".5" d="M219.4 123.3l-7.6 30.3-1.5-.3 7.6-30.4z"/><path fill="#e0e4e0" fill-opacity=".5" d="M127.5 261.4l-26.5 1.8-11.3-160.5 26.5-1.9z"/><path fill="#f1faf9" fill-opacity=".5" d="M171.9 65.3l5.8 5.2-19.9 22-5.8-5.2z"/><path fill="#a1afad" fill-opacity=".5" d="M351 159l81 7-.2 1.6-81-7z"/><path fill="#5f492c" fill-opacity=".5" d="M141 129.8l9.5-18 7 3.7-9.6 18z"/><path fill="#f4f7f9" fill-opacity=".5" d="M237.4 65.6L142 6l6.6-10.6L244 55z"/><path fill="#a5b0b4" fill-opacity=".5" d="M39.9 173.7l-59.2 4.1-.3-3 59.3-4.2z"/><path fill="#a3a6a0" fill-opacity=".5" d="M107 172h1.6l-4.7 54.5-1.6-.1z"/><path fill="#f0f3f4" fill-opacity=".5" d="M85.4 141.4L-16.7 98.1l36-84.9 102.1 43.4z"/><path fill="#ad9569" fill-opacity=".5" d="M157.7 136.5l-6.1 38.6-4.6-.7 6-38.6z"/><path fill="#e3ae99" fill-opacity=".5" d="M204.2 46.4l-20-3.8.7-3.1 19.9 3.9z"/><path fill="#c7c8ba" fill-opacity=".5" d="M247.7 119.2l6 2-28 86.1-6-1.9z"/><path fill="#d5d8d3" fill-opacity=".5" d="M126.1 138.3l21.8-1.5 2.5 35.8-21.8 1.6z"/><path fill="#f0f2f2" fill-opacity=".5" d="M409.1 2.2l8.9 84-185 19.4-8.8-84z"/><path fill="#45463a" fill-opacity=".5" d="M74.8 177.4L-73 192.9l-.3-3.1 147.6-15.5z"/><path fill="#8d958b" fill-opacity=".5" d="M355.2 163l.5 4.6-21.8 2.3-.5-4.7z"/><path fill="#3e4941" fill-opacity=".5" d="M11.4 168l-1.8 2.6-3.8-2.7 1.8-2.6z"/><path fill="#a59780" fill-opacity=".5" d="M230.6 216.6l-8.7-3.5 24-59.4 8.7 3.5z"/><path fill="#ac8756" fill-opacity=".5" d="M250.3 159l7.8-.6 5.7 65.4-7.8.6z"/><path fill="#634627" fill-opacity=".5" d="M108.7 94.4l3.7-10.3 11.7 4.3-3.7 10.3z"/><path fill="#977f71" fill-opacity=".5" d="M197.6 55.2l-24.2 34.5-3.8-2.7 24.2-34.5z"/><path fill="#e1e7e4" fill-opacity=".5" d="M418.7 93.2l11.2 39-112.7 32.4-11.2-39z"/><path fill="#cbb799" fill-opacity=".5" d="M116.2 87.5l-1-6.1 10.8-1.7 1 6.1z"/><path fill="#c6c8c1" fill-opacity=".5" d="M224 85l-7.7 39.9-10.7-2.1 7.8-39.9z"/><path fill="#61605e" fill-opacity=".5" d="M171.2 128.7l14-31.4 1.4.6-14 31.4z"/><path fill="#806d5d" fill-opacity=".5" d="M241.7 195l7.2-51.1 1.6.2-7.2 51z"/><path fill="#e5e8ea" fill-opacity=".5" d="M86.7 165.6l-104-12.7 4-32.6 104 12.8z"/><path fill="#cec5a9" fill-opacity=".5" d="M125.1 76l-1.3-7.6 30.8-5.4 1.3 7.7z"/><path fill="#4f3523" fill-opacity=".5" d="M209.4 98.4l-6.6 8.8-1.2-1 6.5-8.7z"/><path fill="#260500" fill-opacity=".5" d="M184.7 43.6l4.7.4-.7 7.8-4.7-.5z"/><path fill="#948076" fill-opacity=".5" d="M227.6 75.5l-8.4 47.7-1.5-.3 8.4-47.7z"/><path fill="#b7afa2" fill-opacity=".5" d="M171.6 128.9l-1.5-.5 13-40.1 1.5.5z"/><path fill="#d3c0b4" fill-opacity=".5" d="M217 58l-11 15.3-15.2-11 11-15.2z"/><path fill="#814f46" fill-opacity=".5" d="M198 51.7l-2.8 7.3-7.3-2.8 2.8-7.3z"/><path fill="#c3c7bb" fill-opacity=".5" d="M216.9 137.8l11.6-40.5 3 .8-11.6 40.6z"/><path fill="#5c3f21" fill-opacity=".5" d="M127 113.5l.7-7.8 12.5 1.1-.7 7.8z"/><path fill="#a5aba4" fill-opacity=".5" d="M19.5 169.7L19 171l-27.5-11 .6-1.5z"/><path fill="#969ea3" fill-opacity=".5" d="M26.6 174.3l51.5-1.8v1.6l-51.5 1.8z"/><path fill="#806b5f" fill-opacity=".5" d="M222.4 72.5L207 71.2l.4-4.7 15.5 1.4z"/><path fill="#cfdad7" fill-opacity=".5" d="M271.8 151.5l37-6 2.2 14-37 5.8z"/><path fill="#cac2ad" fill-opacity=".5" d="M232.9 156.8l14.6-34.5 8.7 3.7-14.7 34.5z"/><path fill="#4f4f45" fill-opacity=".5" d="M297.8 166l34.2 2.4v1.5l-34.4-2.4z"/><path fill="#947f61" fill-opacity=".5" d="M147.1 101.5l-1.4 4.5-19.4-6 1.4-4.4z"/><path fill="#f2f5f7" fill-opacity=".5" d="M36 54V-8.7h135.9V54z"/><path fill="#bbb7ac" fill-opacity=".5" d="M192.6 274.6L223 58l1.6.2L194 274.8z"/><path fill="#4c3829" fill-opacity=".5" d="M172.8 110l1.5.5-11.1 34.2-1.5-.5z"/><path fill="#8a714d" fill-opacity=".5" d="M149.6 126.6l10.3-21 1.4.6-10.3 21z"/><path fill="#8f948f" fill-opacity=".5" d="M13.3 159.9l-1.1-1 4.2-4.7 1.1 1z"/><path fill="#d0d0c4" fill-opacity=".5" d="M154.9 108.3l-4 2.4-10.5-17.4 4-2.4z"/><path fill="#c7926d" fill-opacity=".5" d="M168.3 58.1l-.3-1.5 21.5-3.8.3 1.5z"/><path fill="#998b6d" fill-opacity=".5" d="M147 72l10.8-9 6 7.2-10.7 9z"/><path fill="#9e9484" fill-opacity=".5" d="M200.9 107.2l-5 46.7-1.5-.2 5-46.6z"/><path fill="#a98123" fill-opacity=".5" d="M145.7 55.5l.5-1.5 22.2 7.7-.5 1.4z"/><path fill="#72756e" fill-opacity=".5" d="M380.5 162.6l16 6.2-.5 1.4-16-6.1z"/><path fill="#57401e" fill-opacity=".5" d="M119.8 95.2l11.8 10.3-6.1 7-11.8-10.2z"/><path fill="#949a99" fill-opacity=".5" d="M283.4 171.9l-16-9.7.7-1.3 16.1 9.7z"/><path fill="#2c2a19" fill-opacity=".5" d="M272.4 184.9l-7.8.5-1-15.6 7.7-.5z"/><path fill="#795e45" fill-opacity=".5" d="M236.8 219l11-40.8 4.5 1.3-11 40.7z"/><path fill="#8f7e79" fill-opacity=".5" d="M214.2 51.5L226.4 87l-1.5.5-12.2-35.4z"/><path fill="#f5f8f8" fill-opacity=".5" d="M205 50l-16.5-33.6 11.2-5.5 16.5 33.7z"/><path fill="#6c7272" fill-opacity=".5" d="M369.1 154.8l1.4.7-3.7 7-1.4-.8z"/><path fill="#322f1e" fill-opacity=".5" d="M264 173.9l101.2-7.1.6 7.8-101.3 7z"/><path fill="#857369" fill-opacity=".5" d="M193.7 49L178 99.8l-1.5-.4 15.6-50.8z"/><path fill="#7f6547" fill-opacity=".5" d="M130.6 85l12.4 1.8-.2 1.6-12.4-1.8z"/><path fill="#d4d9d1" fill-opacity=".5" d="M73.3 212.6l9.7-45.8 1.5.3-9.7 45.8z"/><path fill="#d5d2c5" fill-opacity=".5" d="M137.9 77l3.4-3.3 13 13.4-3.4 3.3z"/><path fill="#6f532b" fill-opacity=".5" d="M133.4 83.7l5.6 11.1-8.3 4.3L125 88z"/><path fill="#a79682" fill-opacity=".5" d="M152.4 110.8l1 4.5-16.8 3.6-1-4.6z"/><path fill="#ba9781" fill-opacity=".5" d="M211.2 94.3L201 90.8l5-14.8 10.4 3.5z"/><path fill="#af9488" fill-opacity=".5" d="M200.5 64.2l-2.7 15.4-9.2-1.6 2.7-15.4z"/><path fill="#dee1dc" fill-opacity=".5" d="M218.8 213.4l12.4-78.7 1.6.3-12.5 78.7z"/><path fill="#2f2e20" fill-opacity=".5" d="M18.8 180.7l57.8 1-.1 7.9-57.8-1z"/><path fill="#dde2e1" fill-opacity=".5" d="M53 152.8l.3 20.3-32.8.6-.4-20.3z"/><path fill="#cdd0c9" fill-opacity=".5" d="M220.2 108.7L192 201.4l-7.5-2.3 28.4-92.7z"/><path fill="#f1f3f3" fill-opacity=".5" d="M166.3 60.4l-33.2-26 24-30.7 33.3 26z"/><path fill="#9f7d4a" fill-opacity=".5" d="M153.6 157.7l.6-17.2 6.3.2-.6 17.2z"/><path fill="#bbb59e" fill-opacity=".5" d="M145.4 184.5l-6.7-4 8-13.4 6.8 4z"/><path fill="#cccec8" fill-opacity=".5" d="M200.8 106.8l-9.6 49.1-9.2-1.8 9.6-49z"/><path fill="#b67a5c" fill-opacity=".5" d="M193.6 41.2l.7 1.4-11.4 5.3-.6-1.4z"/><path fill="#8c6400" fill-opacity=".5" d="M147 57.5l.3-1.5 13.6 3.7-.4 1.5z"/><path fill="#cfcec5" fill-opacity=".5" d="M141.6 130.4l-2.2 15.5-20-2.9 2.1-15.4z"/><path fill="#695b49" fill-opacity=".5" d="M219 125.5l-6.8 35.3-1.6-.3 7-35.3z"/><path fill="#e1e3dd" fill-opacity=".5" d="M179.4 64l1.4.6L165.9 94l-1.4-.7z"/><path fill="#b19f8b" fill-opacity=".5" d="M180.4 74.7L168 121.5l-3-.9L177.4 74z"/><path fill="#9c9076" fill-opacity=".5" d="M230 167.5l5.8-27.5 1.5.3-5.9 27.5z"/><path fill="#b7a387" fill-opacity=".5" d="M252.4 150.4l-6.2-1 3-17 6.2 1z"/><path fill="#322a13" fill-opacity=".5" d="M329.5 180l18.7-14 11.3 14.9-18.7 14.1z"/><path fill="#dae3e0" fill-opacity=".5" d="M262.1 136.6l39 3.4-2.3 25-38.9-3.5z"/><path fill="#474a47" fill-opacity=".5" d="M-8.7 180.5l.5-4.6 43.5 4.5-.5 4.7z"/><path fill="#5f4d38" fill-opacity=".5" d="M149.3 125.7l2.6 7.4-5.8 2.1-2.7-7.3z"/><path fill="#d8dad1" fill-opacity=".5" d="M166 170.3l-19 34.2-8.2-4.5 19-34.2z"/><path fill="#afb5b4" fill-opacity=".5" d="M319.4 144.5l1.8 12.4-1.6.2-1.7-12.4z"/><path fill="#daddd4" fill-opacity=".5" d="M211.3 54l-19.7 44.2-1.4-.6L210 53.3z"/><path fill="#eaeeeb" fill-opacity=".5" d="M155.7 102.4l-8.3-4.4 11-20.7 8.3 4.4z"/><path fill="#ccbfa5" fill-opacity=".5" d="M159 63.5l-22.2 7.3-.5-1.5 22.3-7.3z"/><path fill="#645e5c" fill-opacity=".5" d="M186.7 103.8l-6-1.7 3-10.6 6 1.8z"/><path fill="#8e9498" fill-opacity=".5" d="M2.4 177.9v-1.6l37.3-2.6.2 1.6z"/><path fill="#d3d1ca" fill-opacity=".5" d="M241.4 130l3 .8-12.4 50-3-.7z"/><path fill="#80726d" fill-opacity=".5" d="M221.9 67.9l-9.1-14.6 1.3-.8 9 14.5z"/><path fill="#dae3e0" fill-opacity=".5" d="M425 157.6l-49.9 3.5-1.6-23.4 49.8-3.5z"/><path fill="#c0beb1" fill-opacity=".5" d="M180.9 217.9l20.6-42.1 9.8 4.8-20.6 42z"/><path fill="#88725b" fill-opacity=".5" d="M200.9 111l-3-1.1 6-16.2 2.9 1.1z"/><path fill="#bbc0ba" fill-opacity=".5" d="M209.7 119l15-49.4 1.6.5-15.1 49.3z"/><path fill="#858685" fill-opacity=".5" d="M294.8 169.4l-.6-1.5 18.8-7.6.6 1.5z"/><path fill="#f2f4f5" fill-opacity=".5" d="M129 2l16.7 62-51.3 13.7-16.6-62z"/><path fill="#bec0bc" fill-opacity=".5" d="M195.6 120.7L181 153.5l-15.7-7 14.6-32.8z"/><path fill="#4e1408" fill-opacity=".5" d="M195.6 50.5l-4 4.7-1.3-1 4.1-4.7z"/><path fill="#b96d6a" fill-opacity=".5" d="M200.5 53l-4-10.1 1.4-.6 4 10.1z"/><path fill="#e0e0d9" fill-opacity=".5" d="M137 67l4.8 8-5.3 3.3-4.9-8z"/><path fill="#e9eeeb" fill-opacity=".5" d="M258 143.8l-10.3-41 30.3-7.5 10.2 41z"/><path fill="#bcab98" fill-opacity=".5" d="M168.6 109l13-26.6 1.4.7-13 26.7z"/><path fill="#d8ddd7" fill-opacity=".5" d="M133.8 174l1.1 31.2-17.2.6-1-31.3z"/><path fill="#242211" fill-opacity=".5" d="M364.4 164.8l38.5 17.1-6.3 14.3L358 179z"/><path fill="#9ea5a1" fill-opacity=".5" d="M354.6 163l.1 1.5-42.1 2.2-.1-1.5z"/><path fill="#c8b4a6" fill-opacity=".5" d="M194.3 85.5l-9.9-4.8 4.1-8.4 9.9 4.8z"/><path fill="#221f0d" fill-opacity=".5" d="M78.4 181.2l-17 40.3-10.1-4.3 17-40.3z"/><path fill="#e9eeee" fill-opacity=".5" d="M16.2 96.2l76-9.3 5.7 46.5-76 9.4z"/><path fill="#b68e81" fill-opacity=".5" d="M193 46.9l1.2 1-7.5 10-1.2-1z"/><path fill="#676e6b" fill-opacity=".5" d="M272.4 165l-4.8 4-1-1.2 4.8-4z"/><path fill="#6b6c69" fill-opacity=".5" d="M276.6 170.4l23.2-3.3.2 1.6-23.2 3.2z"/><path fill="#382d19" fill-opacity=".5" d="M266 193l-.7-14 29.6-1.6.8 14z"/><path fill="#dbe4e4" fill-opacity=".5" d="M105 174.1l-43.3-6 .4-3.2 43.4 6.1z"/><path fill="#555b5e" fill-opacity=".5" d="M75 175.1l3.6-3 1 1.2-3.5 3z"/><path fill="#dbe3e1" fill-opacity=".5" d="M337.2 161.1l2.4-17 18.5 2.6-2.4 17z"/><path fill="#e3e7e6" fill-opacity=".5" d="M4.9 173.7l-4.4-1.6 15-41.1 4.3 1.6z"/><path fill="#eff2f2" fill-opacity=".5" d="M427 44l-186.2 64-16.2-47.2L410.7-3.3z"/><path fill="#b99752" fill-opacity=".5" d="M171.8 61.8L151.5 60l.2-1.5 20.2 1.8z"/><path fill="#b29d80" fill-opacity=".5" d="M258.3 149.2l-38.6 100.6-1.5-.5L257 148.6z"/><path fill="#6c372b" fill-opacity=".5" d="M189.9 56.6l-1-1.3 10.3-7.2.9 1.3z"/><path fill="#9f9587" fill-opacity=".5" d="M206 112.5l-9 36.4-1.5-.4 9-36.4z"/><path fill="#201b0b" fill-opacity=".5" d="M341 199.5l-18.3 17-30.9-33.1 18.3-17z"/><path fill="#e2d3c8" fill-opacity=".5" d="M200.6 52l1-1.2 15 11.2-1 1.3z"/><path fill="#2c1304" fill-opacity=".5" d="M184 53.8l-1-1.3 9.6-7.8 1 1.2z"/></svg>