<svg xmlns="http://www.w3.org/2000/svg" viewBox="0 0 400 200"><path fill="#cecec9" d="M0 0h400v200H0z"/><path fill-opacity=".5" d="M433.8 163.1L435 232l-198.4 3.4-1.2-68.7zM-2.7 219.3L-5 177.2l81.2-4.3 2.2 42.1z"/><path fill="#fff" fill-opacity=".5" d="M437 100.5l-168 67.9-63.8-158 168-67.8z"/><path fill="#fff" fill-opacity=".5" d="M-80 66.2l299.5-225.7 80.8 107.3L.8 173.5z"/><path fill-opacity=".5" d="M267 216.8l-2.4-45.3 163.8-8.6 2.4 45.3z"/><path fill="#8a7051" fill-opacity=".5" d="M150.9 155.2l-43.4-66.9L191.3 34l43.4 66.8z"/><path fill-opacity=".5" d="M-10 181.9l84.3-5.9 2.8 40.5-84.2 6z"/><path fill="#5a3b0f" fill-opacity=".5" d="M161 122.3l-15 13.6-39.8-44.1 15-13.6z"/><path fill="#beac89" fill-opacity=".5" d="M206.4 125.6l47.8-7.5 19.1 120.3-47.8 7.6z"/><path fill="#fdffff" fill-opacity=".5" d="M380 13.3L-12.6 82.5l-12.7-72.3L367.2-59z"/></svg>