<svg xmlns="http://www.w3.org/2000/svg" viewBox="0 0 400 200"><path fill="#cecec9" d="M0 0h400v200H0z"/><ellipse fill-opacity=".5" rx="1" ry="1" transform="matrix(-118.92959 -.62272 .1388 -26.50727 352 188.5)"/><ellipse fill-opacity=".5" rx="1" ry="1" transform="rotate(176.5 12.7 95.9) scale(57.46966 16.47558)"/><ellipse fill-opacity=".5" rx="1" ry="1" transform="matrix(84.10085 .33449 -.10181 25.5986 349.8 190.2)"/><ellipse fill="#fff" fill-opacity=".5" rx="1" ry="1" transform="rotate(-111.9 177.7 -83.4) scale(120.17399 94.65232)"/><ellipse fill="#fff" fill-opacity=".5" rx="1" ry="1" transform="matrix(35.67222 54.72108 -330.17435 215.23795 59.4 48.1)"/><ellipse fill="#8c7557" fill-opacity=".5" rx="1" ry="1" transform="rotate(81.5 30 147.3) scale(43.62122 58.82425)"/><ellipse fill-opacity=".5" rx="1" ry="1" transform="matrix(-3.8354 -18.53578 51.42134 -10.64002 25.2 199.2)"/><ellipse fill="#6d542d" fill-opacity=".5" rx="1" ry="1" transform="matrix(27.5327 34.61106 -10.09432 8.02992 139.5 116.7)"/><ellipse fill="#b59767" fill-opacity=".5" rx="1" ry="1" transform="rotate(177 121 98) scale(17.36228 63.97111)"/><ellipse fill="#f1f8f9" fill-opacity=".5" rx="1" ry="1" transform="matrix(-19.85325 37.43046 -88.2215 -46.793 58.2 117.5)"/><ellipse fill="#fdffff" fill-opacity=".5" rx="1" ry="1" transform="matrix(1.31685 -29.12297 398.0308 17.99767 218.9 17)"/><ellipse fill="#fff" fill-opacity=".5" rx="1" ry="1" transform="rotate(-144.6 95 18) scale(10.18852 25.61319)"/><ellipse fill="#632100" fill-opacity=".5" rx="1" ry="1" transform="matrix(4.2428 6.92264 -13.58544 8.32634 186.3 54.2)"/><ellipse fill="#1c1500" fill-opacity=".5" rx="1" ry="1" transform="rotate(-175.9 186.5 88) scale(101.90023 21.15492)"/><ellipse fill="#b8b2ab" fill-opacity=".5" rx="1" ry="1" transform="matrix(24.27493 5.3073 -14.42812 65.9924 200.2 117.7)"/><ellipse fill="#857059" fill-opacity=".5" rx="1" ry="1" transform="rotate(-66.1 179.3 -69.1) scale(61.24604 5.88604)"/><ellipse fill="#f4fafb" fill-opacity=".5" rx="1" ry="1" transform="rotate(-108 177.5 -69.8) scale(49.96837 69.88933)"/><ellipse fill="#cdcfc5" fill-opacity=".5" rx="1" ry="1" transform="matrix(20.82078 19.68923 -35.0857 37.10209 117.6 169.6)"/><ellipse fill="#f8fcff" fill-opacity=".5" rx="1" ry="1" transform="matrix(3.18589 -25.57783 79.61543 9.91663 67.2 51.3)"/><ellipse fill="#d6d8d4" fill-opacity=".5" rx="1" ry="1" transform="matrix(-14.05964 57.03733 -6.54033 -1.61218 193 105.8)"/><ellipse fill="#73614c" fill-opacity=".5" rx="1" ry="1" transform="rotate(-79.1 188.6 -66) scale(36.70941 2.63056)"/><ellipse fill="#62431c" fill-opacity=".5" rx="1" ry="1" transform="matrix(-6.1094 6.94618 -13.96966 -12.2868 124.7 101.7)"/><ellipse fill="#221e07" fill-opacity=".5" rx="1" ry="1" transform="matrix(-28.4358 19.03611 -7.59231 -11.34126 48.4 196.7)"/><ellipse fill="#85654f" fill-opacity=".5" rx="1" ry="1" transform="matrix(4.6794 .88067 -4.29955 22.84556 205 99.2)"/><ellipse fill="#a38967" fill-opacity=".5" rx="1" ry="1" transform="matrix(15.52094 .89493 -1.91576 33.22525 251.4 189.8)"/></svg>