<svg xmlns="http://www.w3.org/2000/svg" viewBox="0 0 400 200"><path fill="#cecec9" d="M0 0h400v200H0z"/><path fill-opacity=".5" d="M420.6 163.2l1 59.4-184.3 3.2-1-59.3zM78.1 219l-78 2.7-1.6-45.3 78-2.7z"/><path fill="#fff" fill-opacity=".5" d="M335.8-88l93.9 176.6-154.5 82.2-94-176.6zM48.7 172L-59 81.6l127.5-152L176.2 20z"/><path fill-opacity=".5" d="M265.7 169.5L400 165l1.5 42.1-134.3 4.7z"/><path fill="#866e4f" fill-opacity=".5" d="M106 85.3l82.2-41.8 35.4 69.6-82 41.8z"/><path fill-opacity=".5" d="M74.3 176.6l2.7 39-90.4 6.3-2.7-39z"/><path fill="#fff" fill-opacity=".5" d="M322.3 2.6L-23 108l-22.8-74.7L299.4-72.2z"/><path fill="#b7a48b" fill-opacity=".5" d="M284.4 240.3l-34 11.7L186 64.4l34-11.7z"/><path fill="#553509" fill-opacity=".5" d="M146.4 134.9l-40.2-41.6 14.6-14.1 40.2 41.6z"/><path fill="#fff" fill-opacity=".5" d="M143.5 99.6l26-33.2L183 76.9l-26 33.3z"/><path fill="#f5fbfd" fill-opacity=".5" d="M454.1-3.3l-34.4 162-194.1-41.3 34.4-162z"/><path fill="#181000" fill-opacity=".5" d="M439 214.8H265.7v-43.7h173.5z"/><path fill="#ebf2f2" fill-opacity=".5" d="M58.4 85l97 53.7-31 56-97-53.7z"/><path fill="#6e3318" fill-opacity=".5" d="M169.4 62l25-23.4 9.7 10.3-25.2 23.4z"/><path fill="#54340d" fill-opacity=".5" d="M177.5 109.5l-24 59.4-4.4-1.8 24-59.4z"/><path fill="#b0aba5" fill-opacity=".5" d="M222.8 65l-3.4 98.3-50-1.7 3.4-98.4z"/><path fill="#e6e8e4" fill-opacity=".5" d="M216 33.9l-24.5 98.5-9.1-2.2L207 31.6z"/><path fill="#895e01" fill-opacity=".5" d="M148 53.8l28.9 6.7-1.4 6-29-6.6z"/><path fill="#3c2917" fill-opacity=".5" d="M221 110.6l1.5.4-10.6 42.4-1.5-.3z"/></svg>