<svg xmlns="http://www.w3.org/2000/svg" viewBox="0 0 400 200"><path fill="#51564e" d="M0 0h400v200H0z"/><g transform="translate(.8 .8) scale(1.5625)" fill-opacity=".5"><ellipse fill="#afa895" rx="1" ry="1" transform="rotate(9.4 -315.7 1186.8) scale(33.26123 41.0923)"/><path fill="#f7f7f4" d="M83 44l-30 8 16 22z"/><ellipse fill="#232c24" rx="1" ry="1" transform="matrix(1.99831 -83.4507 33.401 .79982 23.5 82.7)"/><ellipse fill="#171309" rx="1" ry="1" transform="rotate(-81.7 157.2 -117.1) scale(206.13581 21.56059)"/><ellipse fill="#b3afa5" cx="171" cy="18" rx="16" ry="25"/><path fill="#bed3d3" d="M186 47h32v33h-32z"/><path fill="#9ea39f" d="M33.6 113.9l-24.9-15 7.7-12.8 24.9 15z"/><path fill="#211d15" d="M210 51.8l-28.4-9.2L219.5 1l-34.3 7.5z"/><ellipse fill="#79633e" rx="1" ry="1" transform="matrix(-38.59303 35.15363 -9.4537 -10.37864 200.7 104.7)"/><ellipse fill="#1d2519" rx="1" ry="1" transform="rotate(-27 94.6 -58.6) scale(44.27208 11.33088)"/><path fill="#a8a195" d="M203.8 20.2l17.8-13 10.6 14.6-17.8 13z"/><ellipse fill="#b6bab0" rx="1" ry="1" transform="rotate(129.2 26 13.4) scale(9.95168 10.74193)"/><path fill="#8e8a7e" d="M191.3 138.7l-27.9 2.4-4.7-53.8 27.9-2.4z"/><path fill="#302f21" d="M172.5 44h9v28h-9z"/><path fill="#a3a59c" d="M76.7 34.6L55.3 68.3 49 43.6l46.3 9.7z"/></g></svg>