<svg xmlns="http://www.w3.org/2000/svg" viewBox="0 0 400 200"><path fill="#51564e" d="M0 0h400v200H0z"/><path fill="#a79f8d" fill-opacity=".5" d="M253.7 18l95 6.6-10.2 146.5-95-6.6z"/><path fill="#161209" fill-opacity=".5" d="M341.3 228.8l32-260.5 62 7.6-32 260.5z"/><path fill="#172017" fill-opacity=".5" d="M106 35.2L36.6 150.4-35.6 107 33.6-8.2z"/><path fill="#e9eae6" fill-opacity=".5" d="M114.7 59l19.7 15.4-28.8 37-19.7-15.5z"/><path fill="#c4d7d5" fill-opacity=".5" d="M344.4 127.4l-51.5-1.8 1.8-51.5 51.5 1.8z"/><path fill="#221d14" fill-opacity=".5" d="M302.7-10l30.7 6-15.8 81.2-30.7-6z"/><path fill="#aaaba6" fill-opacity=".5" d="M292 6.2l-8.5 36.5-42.6-9.8 8.4-36.6z"/><path fill="#786240" fill-opacity=".5" d="M384.3 120.2l-103.4 93-23-25.5 103.4-93z"/><path fill="#111b0f" fill-opacity=".5" d="M-78.5 206.6l36.3-74.4L80 191.8l-36.3 74.4z"/><path fill="#bbbfb4" fill-opacity=".5" d="M65.2 13l5.2-18L102 4.2l-5.1 18z"/><path fill="#9ba39f" fill-opacity=".5" d="M55 170.9l-37.9-18.5 7.6-15.5 37.9 18.5z"/><path fill="#babcb7" fill-opacity=".5" d="M75 69l8.9-6.4 39.5 54.3-8.9 6.5z"/><path fill="#283227" fill-opacity=".5" d="M63.5 188.9L54 111.4l40.3-5 9.5 77.6z"/><path fill="#fff" fill-opacity=".5" d="M334.6 123l-45.3 2.4-.5-9.4 45.3-2.3z"/><path fill="#949790" fill-opacity=".5" d="M300 202.6l-46 9.8-5.5-26 45.9-9.7z"/><path fill="#546267" fill-opacity=".5" d="M153.2 88.4l85-66.4 66.4 85-85 66.3z"/><path fill="#523e1c" fill-opacity=".5" d="M340.8 137.6l20 80.3-47 11.7-20-80.3z"/><path fill="#3b4237" fill-opacity=".5" d="M152.2 203.7l-65-22.4 34-99 65 22.4z"/><path fill="#91938d" fill-opacity=".5" d="M95.3 102.3h32.8v25H95.3z"/><path fill="#bbb7aa" fill-opacity=".5" d="M135.7 26.8L153.5 7l9.3 8.4L145 35.1z"/><path fill="#aaa592" fill-opacity=".5" d="M269 95.8l-10.1 26.3-26.3-10.1 10-26.3z"/><path fill="#919088" fill-opacity=".5" d="M354 53.3l-20.3-2.1 4.6-43.5 20.2 2z"/><path fill="#7e7e75" fill-opacity=".5" d="M420.8 95.2L392 123.9l-14.3-14.4 28.7-28.7z"/><path fill="#b8b1a3" fill-opacity=".5" d="M291.4 37.3l8.9 14.7-30.8 18.5-8.9-14.7z"/><path fill="#9b9280" fill-opacity=".5" d="M247.7 156.5l28.9-44.6 36.7 23.8-29 44.6z"/><path fill="#d5d7d1" fill-opacity=".5" d="M91.4 93.4l-3.2-8.8 47-17 3.2 8.7z"/><path fill="#40483a" fill-opacity=".5" d="M118.6 74l-20.1 8.6-6.2-14.4 20.2-8.6z"/><path fill="#0c1312" fill-opacity=".5" d="M408.5 14.4l-16 74.9-24.4-5.2 16-75z"/><path fill="#3a3023" fill-opacity=".5" d="M330.5 53.8l62 33-5.8 11-62-33z"/><path fill="#c1c6c2" fill-opacity=".5" d="M96.3 189.4l2.4 10.6-12.2 2.8-2.4-10.6z"/><path fill="#271f0d" fill-opacity=".5" d="M283.7 94.4L271.3 93l2.8-23.3 12.4 1.6z"/><path fill="#38515b" fill-opacity=".5" d="M157.7 123.4l92.1 3.2-2.8 79.7-92-3.3z"/><path fill="#37505a" fill-opacity=".5" d="M162.1 74.8L158.2-36l81.2-2.9 4 110.9z"/><path fill="#101716" fill-opacity=".5" d="M27 119.5L26 146l-42-1.4.9-26.6z"/><path fill="#222418" fill-opacity=".5" d="M91.3 23.9l25.8-6.5 5.7 22.8L97 46.6z"/><path fill="#111e1d" fill-opacity=".5" d="M230.2 191.3l11-27.5 14.6 5.8-11.1 27.6z"/><path fill="#10140c" fill-opacity=".5" d="M313 13.1l.5 21.9-18.8.3-.4-21.9z"/><path fill="#6c847f" fill-opacity=".5" d="M344 118.3l-57.4-7 2.3-18.7 57.3 7z"/><path fill="#adb2ae" fill-opacity=".5" d="M53.7 179.4l-7.6-1.4 4.8-27.7 7.7 1.4z"/><path fill="#131c17" fill-opacity=".5" d="M63.1 48.7l6.5 17.6-75 27.2-6.3-17.6z"/><path fill="#7c7e72" fill-opacity=".5" d="M146.1 88.6L96.6 65.5l2.6-5.7L148.8 83z"/><path fill="#70786d" fill-opacity=".5" d="M55.8 150.3l10.5-22.6 17 7.9-10.6 22.7z"/><path fill="#1a2523" fill-opacity=".5" d="M150 112.2l14.5-44.5 9 2.9-14.6 44.5z"/><path fill="#192017" fill-opacity=".5" d="M96.4 100.4l6.3 10.9L77 126l-6.3-10.8z"/><path fill="#111817" fill-opacity=".5" d="M162.4 193l-21.6 24.8-14.1-12.3 21.5-24.8z"/><path fill="#ebeee7" fill-opacity=".5" d="M361.5 34L339 12.5l1-1.2L362.7 33z"/><path fill="#272a24" fill-opacity=".5" d="M414.1 138.9l-78 129.9-36.2-21.7 78-130z"/><path fill="#424740" fill-opacity=".5" d="M19.5 106.2l40.2-5.7 6.8 48-40.3 5.7z"/><path fill="#242618" fill-opacity=".5" d="M156.5 124.9L111.6 143l-4-10 44.8-18.2z"/><path fill="#70695c" fill-opacity=".5" d="M318.8 63.5l-8-30.2 40.7-10.9 8 30.2z"/><path fill="#4e4d45" fill-opacity=".5" d="M289.4 187.7l-4.3 1.6-23-59.8 4.4-1.6z"/><path fill="#9a9b95" fill-opacity=".5" d="M109.2 128.2l-4.7 10-18.4-8.6 4.7-10z"/><path fill="#515c61" fill-opacity=".5" d="M187.3 44l60.4 8.5-17.8 126.9-60.4-8.5z"/><path fill="#b9c4c1" fill-opacity=".5" d="M285.3 92l1.5-14 32.6 3.4-1.5 14z"/><path fill="#888d89" fill-opacity=".5" d="M244.7 42.5l-12.5-27 34-15.8 12.5 27z"/><path fill="#837e69" fill-opacity=".5" d="M153.3 92.7L138 89.4l7.2-33.6 15.2 3.2z"/><path fill="#726e64" fill-opacity=".5" d="M154 152.4l-29.6 51.4-8.1-4.7 29.6-51.4z"/><path fill="#a3ada8" fill-opacity=".5" d="M348.7 76.4l-2.2 25-49.8-4.4 2.1-25z"/><path fill="#283321" fill-opacity=".5" d="M99.2 196l-1.5-29.6 29.6-1.5 1.6 29.6z"/><path fill="#bab9ac" fill-opacity=".5" d="M300.3 131.1l-5.4 7.7-21.7-15.2 5.3-7.7z"/><path fill="#dee1dd" fill-opacity=".5" d="M82 94.2l.3-3.1 31 3.8-.3 3z"/><path fill="#202621" fill-opacity=".5" d="M99.2 58.5l-12.5 14-50-45 12.6-14z"/><path fill="#596459" fill-opacity=".5" d="M38.8 14l-6.6 19L-9 19-2.5-.3z"/><path fill="#484328" fill-opacity=".5" d="M262 111.7l22.6-14.1 5 8-22.6 14z"/><path fill="#7c6b4b" fill-opacity=".5" d="M363 82.6l6.8 4-65.6 113.6-6.8-4z"/><path fill="#303422" fill-opacity=".5" d="M137.6 113.2l-23.5-20.5 9.2-10.6 23.6 20.5z"/><path fill="#76786e" fill-opacity=".5" d="M121-15.8l6.8 24-31.5 9.1-7-24z"/><path fill="#9e9e8f" fill-opacity=".5" d="M243.6 87.8l32.8-.6.3 14-32.8.6z"/><path fill="#423e34" fill-opacity=".5" d="M271.3 210.7l-6.5-37 9.2-1.6 6.5 37z"/><path fill="#fffff6" fill-opacity=".5" d="M140.5 29l4.7-.2.2 6.3-4.7.1z"/><path fill="#454b45" fill-opacity=".5" d="M237 54.5L269.6 79l-11.3 15-32.4-24.5z"/><path fill="#0b1816" fill-opacity=".5" d="M285.3 68l.2-1.5 62 7.6-.2 1.6z"/><path fill="#191d19" fill-opacity=".5" d="M98 131.6l-7 40-9.3-1.6 7-40z"/><path fill="#262b22" fill-opacity=".5" d="M317 24.6L310.4 14 372-23l6.5 10.7z"/><path fill="#8d8f8b" fill-opacity=".5" d="M96.2 156.8l-3-12.1 12.1-3 3 12z"/><path fill="#eaede8" fill-opacity=".5" d="M98.4 92l-2.7-3.8 23-16.2 2.8 3.9z"/><path fill="#131812" fill-opacity=".5" d="M357.5 12l13.6 21-5.2 3.4-13.6-21z"/><path fill="#bebdbc" fill-opacity=".5" d="M335.5 71.6l-29.1-5.7.3-1.5 29.1 5.6z"/><path fill="#a9b0ac" fill-opacity=".5" d="M336.6 26.2l-.8-1.3 29.1-18.3.9 1.4z"/><path fill="#66675b" fill-opacity=".5" d="M274 4.1l3-15.3 44.4 8.6-3 15.4z"/><path fill="#fff" fill-opacity=".5" d="M329 117.2v7.8h-18.8v-7.8z"/><path fill="#67665b" fill-opacity=".5" d="M285.4-9.5l-37 75.8-4.2-2 37-75.9z"/><path fill="#8d8f88" fill-opacity=".5" d="M116.1 91.7l16.1 30.3-12.4 6.6-16.1-30.3z"/><path fill="#5e6352" fill-opacity=".5" d="M25 92.2l2.4 12.3-41.4 8-2.4-12.3z"/><path fill="#141a16" fill-opacity=".5" d="M175 5.3l-24.5 4.8-2.1-10.7 24.5-4.8z"/><path fill="#978e86" fill-opacity=".5" d="M146 59.7L131 34l2.8-1.5 14.8 25.7z"/><path fill="#282119" fill-opacity=".5" d="M134.7-5.4h1.5l2.6 71.8h-1.6z"/><path fill="#a09e92" fill-opacity=".5" d="M255.8 134l17.3 7.3-8.6 20-17.2-7.2z"/><path fill="#1b2722" fill-opacity=".5" d="M169.2 19.7l7.1 3.2-9.5 21.4-7.2-3.2z"/><path fill="#454c43" fill-opacity=".5" d="M71.2 111.6l-26-5.5 10.1-47.4 26 5.5z"/><path fill="#202723" fill-opacity=".5" d="M-10.8 39.7l1.4-15.5L28 27.4 26.6 43z"/><path fill="#7d7f75" fill-opacity=".5" d="M108.8 160.5l1.3-9.3 17 2.4-1.3 9.3z"/><path fill="#35362b" fill-opacity=".5" d="M230.8 128l40.4 3.5-.4 4.6-40.5-3.5z"/><path fill="#57482e" fill-opacity=".5" d="M362.4 97L347 94.6l7.9-55.7 15.4 2.2z"/><path fill="#cccfce" fill-opacity=".5" d="M42.5 159.8l15-8.3 1.6 2.7-15 8.4z"/><path fill="#172015" fill-opacity=".5" d="M81.1 119.6l-33.2 9-2.4-9.1 33.2-9z"/><path fill="#423428" fill-opacity=".5" d="M299.2 65.7l3.2-37.4 15.6 1.4-3.3 37.3z"/><path fill="#393c39" fill-opacity=".5" d="M107.2 108.3l-4.6-10 4.2-1.9 4.7 10z"/><path fill="#f4efe8" fill-opacity=".5" d="M121 41l4.6 6.2-1.3 1-4.6-6.4z"/><path fill="#938f82" fill-opacity=".5" d="M307.5 203.7l-13.9 10-18.3-25.2 13.9-10.1z"/></svg>