<svg xmlns="http://www.w3.org/2000/svg" viewBox="0 0 400 200"><path fill="#51564e" d="M0 0h400v200H0z"/><g fill-opacity=".5"><path fill="#b0ac9d" d="M254 199.2l106.2-96.9L246-24.2z"/><path fill="#161107" d="M327.3 224.2l64.1-248.4 32.8 204.7z"/><path fill="#f4f5f1" d="M85.2 83.6l42.1-17.2-15.6 54.7z"/><path fill="#182117" d="M14.8-13.3l100 45.3-139 164z"/><path fill="#a8b1aa" d="M282 129l57.8-4.8 20.4-140.6z"/><path fill="#3a2e21" d="M296 16.4l-9.3 53.1 93.8 7.8z"/><path fill="#30382d" d="M-18 199.2L161.7 104l7.8 120.3z"/><path fill="#7b6848" d="M274.2 224.2L424.2 82l-176.5 79.7z"/><path fill="#fff" d="M280.5 118l42.2 7.8 15.6-12.5z"/><path fill="#ced3d2" d="M49.2 177.3l11-28H39.8z"/><path fill="#bdc1b6" d="M94.5 22.7l-28-14.1 28-32.8z"/><path fill="#42463c" d="M283.6 69.5l7.8 51.6-67.2-65.6z"/><path fill="#ced0c9" d="M141.4 77.3l-61 17.2 39.1-31.2z"/><path fill="#191d19" d="M424.2-19.5L375.8 132 355.5-24.2z"/><path fill="#bebbad" d="M143 10.2l21.8 1.5-23.4 25z"/><path fill="#455a64" d="M258.6 224.2l-134.4-46.9L236.7-24.2z"/><path fill="#212821" d="M-24.2 119.5l78.1 26.6 48.4-39z"/><path fill="#9b9991" d="M288.3-19.5l-43.8 39 51.6 40.7z"/><path fill="#c6ccc9" d="M99.2 189.8l-18.7-1.5 6.2 15.6z"/><path fill="#1d251b" d="M82 197.7L-4 221l-20.2-81.3z"/><path fill="#1b1c13" d="M375.8-14.8L296 14.8V43z"/><path fill="#80827a" d="M83.6 130.5l46.9-6.3-6.3-45.3z"/><path fill="#1d2824" d="M227.3 193l53.2-17.2-42.2-14z"/><path fill="#c1d0cf" d="M343 89.8L283.6 93l14-20.3z"/><path fill="#807c72" d="M316.4 25.8l7.8 54.7 50-76.6z"/><path fill="#91928c" d="M233.6 204l89 20.2-34.3-48.4z"/><path fill="#6d7167" d="M136.7 69.5L39.8 89.8 107 47.7z"/><path fill="#868374" d="M258.6 188.3l18.7-101.6-40.6-4.7z"/><path fill="#333726" d="M163.3 91.4l-50-7.8 51.5 73.4z"/><path fill="#646f64" d="M36.7 30.5l-61-17.2L21.2-18z"/><path fill="#7e8581" d="M55.5 171l-3.2-23.3-60.9-4.7z"/><path fill="#645028" d="M300.8 224.2L357 154l-4.7-68.7z"/><path fill="#334c56" d="M161.7 93L274.2-24.2 160.2-.8z"/><path fill="#22251c" d="M271 133.6h-35.8l14-9.4z"/><path fill="#283028" d="M50.8-24.2L35.2 72.7l64 90.6z"/><path fill="#3f4031" d="M285.2 69.5l-26.6 54.7 28.1-23.4z"/><path fill="#a69e8b" d="M296 129l-7.7 56.2-14-78.2z"/><path fill="#69716d" d="M424.2 130.5l-40.6-18.8 4.7-26.5z"/><path fill="#1b241c" d="M38.3 86.7L118 14.8l-142.2 72z"/><path fill="#211f19" d="M316.4 69.5l-11-23.4-20.2 25z"/><path fill="#989689" d="M113.3 60.2l42.2 17.1-22 12.5z"/><path fill="#515b5d" d="M180.5 36.7L168 96.1l112.5-56.3z"/><path fill="#151a16" d="M347.7 10.2L421 47.7l-29.7 17.1z"/><path fill="#afa99a" d="M258.6 50.8l9.4 18.7 29.7-25z"/><path fill="#706b5b" d="M158.6 174.2l-9.4-21.9-59.4-4.6z"/><path fill="#dfe3df" d="M94.5 82l-4.7 15.7L130.5 71z"/><path fill="#94978b" d="M244.5 86.7l45.3 4.7-48.4 23.4z"/><path fill="#969f9d" d="M263.3 14.8l-25 1.6 9.4 28.1z"/><path fill="#85897e" d="M86.7 22.7L158.6-18 38.3-24.2z"/><path fill="#aab1ac" d="M350.8 10.2L335.2 7l28 28.2z"/><path fill="#393f2c" d="M36.7 8.6L132 27.3l-26.5 20.4z"/><path fill="#fffff2" d="M296 113.3l25 11 20.4-6.3z"/><path fill="#70664c" d="M366.4 82L354 143l-20.3-26.6z"/><path fill="#9a9b92" d="M279 171l-36-17 20.3-22z"/><path fill="#6e6a62" d="M118 224.2l25-56.2-79.7 56.2z"/><path fill="#0e1616" d="M175.8 224.2l-28.1-50-6.3 21.9z"/><path fill="#8f8776" d="M154 77.3l3-17.1L130.5 32z"/><path fill="#564429" d="M293 143l46.8 46.8-32.8 34.4z"/><path fill="#4d5147" d="M32 119.5l70.3-18.7L-24.2 93z"/><path fill="#232a1f" d="M41.4 18l64 61-20.2-45.4z"/><path fill="#a1b1ad" d="M338.3 111.7l11-34.4-47-4.6z"/><path fill="#7b6542" d="M352.3 125.8l-46.8-1.6v70.3z"/><path fill="#262d25" d="M77.3 207l-21.8-18.7L96 132z"/><path fill="#adafa8" d="M130.5 116.4l-4.7 7.8-20.3-14z"/><path fill="#433825" d="M335.2 63.3l39-12.5 1.6 53.1z"/><path fill="#121912" d="M105.5 133.6l26.5-11-21.8 25z"/><path fill="#a0aaa8" d="M360.2 2.3l9.3 15.7-4.7-18.8z"/><path fill="#d1d4d0" d="M116.4 96l-29.7-3L93 75.8z"/><path fill="#282a1f" d="M285.2 74.2l-1.6 39-9.4-39z"/><path fill="#888c88" d="M88.3 88.3L78.9 68l12.5 3z"/><path fill="#4f4d44" d="M272.7 200.8l-12.5-28.1 20.3-17.2z"/><path fill="#3b382b" d="M179 19.5l-29.8 42.2-6.2-25z"/><path fill="#576266" d="M210.2 175.8l37.5-61L168 41.4z"/><path fill="#658482" d="M285.2 88.3l67.1 26.5-68.7-4.6z"/><path fill="#1f2828" d="M154 114.8l7.7-57.8 11 15.7z"/><path fill="#222924" d="M405.5-24.2l-3.2 29.7L305.5.8z"/><path fill="#aaaca7" d="M97.7 132l9.3-3-9.3-17.3z"/><path fill="#e1e4e1" d="M321 69.5l8-1.5-12.6-3.2z"/><path fill="#756c5d" d="M347.7 19.5l-42.2 28.2 57.8 12.5z"/><path fill="#4f574e" d="M41.4 154l-18.7-36 60.9 14z"/><path fill="#293320" d="M97.7 179l12.5 17 34.3-50z"/><path fill="#1b211f" d="M39.8 102.3L-19.5 179l28-68.7z"/><path fill="#18201c" d="M146 5.5l-7.7-29.7 39 29.7z"/><path fill="#8f938e" d="M97.7 155.5l6.2-18.8-7.8 7.8z"/><path fill="#4b5149" d="M33.6 49.2l-9.4-36 39 50z"/><path fill="#535247" d="M260.2 29l6.2 1.5 4.7-20.3z"/><path fill="#8d9184" d="M268 180.5l-3.2 23.4-15.6-18.7z"/><path fill="#2a291c" d="M352.3 224.2l22-101.5-48.5 70.3z"/><path fill="#bfc3b7" d="M130.5 182h-3.2l3.2-11z"/><path fill="#2e342d" d="M124.2 133.6l-26.5-29.7L82 107z"/><path fill="#3c4a4c" d="M238.3 75.8L228.9 21l36 70.3z"/><path fill="#bcb9ab" d="M300.8 143l-20.3-18.8 17.2-11z"/><path fill="#3b4f54" d="M219.5 219.5l-56.2-128-6.3 107.7z"/><path fill="#d6d8d9" d="M119.5 66.4l17.2 7.8-1.5-7.8z"/><path fill="#373925" d="M147.7 121l-18.8-40.5 7.8 71.8z"/><path fill="#1d2615" d="M96 79l1.7-11 9.3 7.8z"/><path fill="#525c3e" d="M107 54L74.2 13.2l-3.1 20.3z"/><path fill="#a3a6a3" d="M60.2 150.8l-6.3 25L41.4 157z"/><path fill="#161c1a" d="M424.2 182l-76.5-23.4 51.5-7.8z"/><path fill="#c5c2b2" d="M250.8 113.3l9.4-4.7 6.2 11z"/></g></svg>