<svg xmlns="http://www.w3.org/2000/svg" viewBox="0 0 50 25"><path fill="#535650" d="M0 0h50v25H0z"/><g fill-opacity=".5"><path fill="#b0ab9e" d="M31.5 21.5l14-10-14-15z"/><path fill="#1b170a" d="M63.5 14.5l-25 26 9-46z"/><path fill="#17201a" d="M14.5 2.5l-30-1v37z"/><path fill="#bbbfb4" d="M16.5 7.5h-8l7 7z"/><path fill="#272112" d="M34.5 9.5l7-13-1 9z"/><path fill="#b6bbae" d="M43.5 12.5l-7 5 4-11z"/><path fill="#32382f" d="M21.5 12.5l-35 19 33 9z"/><path fill="#816e53" d="M48.5 11.5l-19 23 3-15z"/><path fill="#847f73" d="M44.5-3.5l-7 13 7-4z"/><path fill="#2d312a" d="M4.5-8.5l1 23h7z"/><path fill="#455f69" d="M32.5 6.5l-10-22v56z"/><path fill="#aeb2aa" d="M11.5 1.5l-10-9 20-8z"/><path fill="#99999c" d="M10.5 37.5l7-11-7-4z"/><path fill="#1d261d" d="M1.5 40.5l-8-25 31 17z"/><path fill="#bdbeb3" d="M13.5 9.5l1-2 4 2z"/><path fill="#2a2a25" d="M65.5-1.5l-4 10h-23z"/><path fill="#404a48" d="M15.5 10.5l9 4-2 12z"/><path fill="#868a83" d="M37.5 19.5l-2 21-26-2z"/><path fill="#fff" d="M37.5 13.5h3v1z"/><path fill="#3d5054" d="M34.5 20.5l-12 6-4-8z"/><path fill="#838c7f" d="M8.5 21.5l-7-4 6 1z"/><path fill="#858881" d="M48.5 12.5l17 2v-19z"/><path fill="#878a8a" d="M17.5 3.5l6-19 2 12z"/><path fill="#424e50" d="M15.5-15.5v12l22 16z"/><path fill="#292d26" d="M14.5 8.5l-13-20-4 6z"/><path fill="#bac8c4" d="M36.5 8.5h6l-1 3z"/><path fill="#4d3d26" d="M37.5 17.5l18 22-13 1z"/><path fill="#101517" d="M48.5 9.5l-1-22 5 15z"/><path fill="#5d5a51" d="M45.5 5.5l-3 9 4-5z"/><path fill="#3c3527" d="M36.5 2.5v-6l4 11z"/><path fill="#bec0b8" d="M10.5 9.5h4l-2 3z"/><path fill="#333a33" d="M6.5 17.5l6-5-22-10z"/><path fill="#909492" d="M37.5 3.5l-4-18-3 18z"/><path fill="#2c2f28" d="M38.5 2.5l13-8-17-10z"/><path fill="#8c867e" d="M30.5 9.5l2 10h5z"/><path fill="#303330" d="M-.5 40.5l12-27-3 27z"/><path fill="#505959" d="M33.5 15.5l-18 7 6-10z"/><path fill="#151c18" d="M5.5 7.5l-13-1 8 4z"/><path fill="#393b31" d="M19.5 17.5l-2-5 4-5z"/><path fill="#484d47" d="M12.5 13.5l-6-4-9 3z"/><path fill="#3b4141" d="M-15.5-1.5l22 23-22-13z"/><path fill="#262a1c" d="M46.5 15.5l-7 12 16-12z"/><path fill="#747d7f" d="M43.5 2.5l22-18h-26z"/><path fill="#787c73" d="M10.5 2.5l-4-16 29-2z"/><path fill="#6d655b" d="M18.5 17.5l-3 1 2 2z"/><path fill="#848070" d="M40.5 9.5l3-7-3 1z"/><path fill="#59625d" d="M5.5 2.5h-18l-3-18z"/><path fill="#3d4d50" d="M27.5 1.5l35-17-71 10z"/><path fill="#161b1b" d="M18.5 22.5l7 9-12 9z"/><path fill="#5c5d54" d="M35.5 13.5l-4-2h7z"/><path fill="#1a2121" d="M1.5 17.5l-17-5h19z"/><path fill="#b3a494" d="M31.5 7.5l4-3 1 1z"/><path fill="#6d7061" d="M16.5 22.5l-22 13 14 2z"/><path fill="#898b83" d="M12.5 18.5h1l-1-3z"/><path fill="#1e2425" d="M31.5 19.5h-2l1 4z"/><path fill="#4f5f62" d="M30.5 9.5l-7-7 1 32z"/><path fill="#acb1aa" d="M32.5 23.5l1 5 2-1z"/><path fill="#545850" d="M23.5 3.5l-12 1-4 5z"/><path fill="#22211b" d="M46.5 13.5l2-11 7-4z"/><path fill="#a99984" d="M36.5 13.5l1 3-2 4z"/><path fill="#94938f" d="M32.5 14.5l1-4-4 1z"/><path fill="#6c6659" d="M40.5 36.5l-7-11v-13z"/><path fill="#3c3d31" d="M20.5 12.5l-2-2-3 1z"/><path fill="#8d9086" d="M13.5 8.5l1-2 2 2z"/><path fill="#6f6d64" d="M16.5 10.5l1-9 2 8z"/><path fill="#755e42" d="M36.5 16.5h6l-3 6z"/><path fill="#363e41" d="M18.5 4.5l2 2 1-5z"/><path fill="#535e5f" d="M20.5 4.5l10 2-2 12z"/><path fill="#6e6757" d="M40.5 5.5l-2 1 1-3z"/><path fill="#afbbb7" d="M36.5 9.5h3l3 2z"/><path fill="#2c2e2c" d="M10.5 15.5l-1 5 5-4z"/><path fill="#5d625f" d="M9.5 17.5l2 1-3-3z"/><path fill="#303940" d="M55.5-5.5l10 7h-20z"/><path fill="#aab5b0" d="M42.5 10.5l-8 1 3-2z"/><path fill="#6b716f" d="M4.5 17.5l-9-1 5 2z"/><path fill="#1a2022" d="M2.5 15.5l-18 25v-31z"/><path fill="#6a6a63" d="M38.5.5l-25-8h39z"/><path fill="#454b47" d="M-15.5 1.5l22 4-22 6z"/><path fill="#9ca19a" d="M35.5 23.5l-22 14-25-2z"/><path fill="#434934" d="M4.5 20.5l10 15-9-3z"/><path fill="#acb1aa" d="M10.5.5l3-14-5 1z"/><path fill="#3d4743" d="M45.5 22.5l5 18 4-18z"/><path fill="#6a583c" d="M41.5 20.5l7-7-10 5z"/><path fill="#a2a99c" d="M7.5 19.5l-4-2h3z"/><path fill="#aaada3" d="M12.5 9.5v6l2-4z"/><path fill="#1d1c15" d="M45.5 5.5l20 11v-7z"/><path fill="#3e443d" d="M-4.5 13.5l17-1-7-3z"/><path fill="#282d26" d="M7.5 3.5l-3 7 7-5z"/><path fill="#a1988c" d="M36.5 5.5h-4l2 2z"/><path fill="#8e8d88" d="M25.5-10.5l-7 13 1-8z"/><path fill="#454138" d="M14.5 3.5l8-12 5 2z"/><path fill="#48443d" d="M31.5 8.5l2 1h-3z"/><path fill="#959797" d="M11.5 23.5l3 13 13 4z"/><path fill="#636762" d="M62.5 16.5l-13-3 8-5z"/><path fill="#9b9486" d="M32.5 17.5l5-4-3 7z"/><path fill="#433d2e" d="M45.5 17.5v-5l4 6z"/><path fill="#73695a" d="M34.5 19.5v-3l1 1z"/><path fill="#787c72" d="M43.5 10.5h1l-1 3z"/><path fill="#a19d98" d="M35.5 2.5l2-12-8-6z"/><path fill="#595d54" d="M10.5 10.5v2h-2z"/></g></svg>