<svg xmlns="http://www.w3.org/2000/svg" viewBox="0 0 400 200"><path fill="#51564e" d="M0 0h400v200H0z"/><path fill="#a69f8c" fill-opacity=".5" d="M348.1 27.5l-2.5 142.1-101.5-1.7 2.5-142.2z"/><path fill="#e0e1dc" fill-opacity=".5" d="M137.3 73.3l-34.5 38.3L83 94l34.5-38.4z"/><path fill="#231b0c" fill-opacity=".5" d="M405.2 212l-81.9-20.5L371.3-1l82 20.4z"/><path fill="#161f16" fill-opacity=".5" d="M101.5 37.2l-113 161.3-66.5-46.6L34.9-9.4z"/><path fill="#c1d5d5" fill-opacity=".5" d="M291.4 125V73.4h53.1V125z"/><path fill="#1c150d" fill-opacity=".5" d="M293.8 72.2l3-87.4 23.5.8-3 87.4z"/><path fill="#aaaba6" fill-opacity=".5" d="M286.6 40.6l-47.2-10.9 13-56.3 47.2 11z"/><path fill="#75603d" fill-opacity=".5" d="M302.1 211.5l-29-26.2 85.7-95.2 29 26.1z"/><path fill="#2d3428" fill-opacity=".5" d="M157.4 108.1l19.8 39-176.8 90-19.8-38.9z"/><path fill="#979e9b" fill-opacity=".5" d="M13.1 153.6l8.2-16.8 42.2 20.5-8.3 16.9z"/><path fill="#bbbdb8" fill-opacity=".5" d="M132.4 120.4l-10.7 9L78.5 78l10.8-9z"/><path fill="#bdc1b6" fill-opacity=".5" d="M64.6 10.3l5.6-14.6L99.4 6.9l-5.6 14.6z"/><path fill="#9c9a8e" fill-opacity=".5" d="M256.2 220.5l-5.6-35.5 44.7-7 5.7 35.4z"/><path fill="#fff" fill-opacity=".5" d="M293.5 113l40.4 3.6-.8 9.4-40.5-3.6z"/><path fill="#2d352b" fill-opacity=".5" d="M93.8 144.4L42.6 138l5.8-46.5 51.1 6.2z"/><path fill="#bcb8aa" fill-opacity=".5" d="M148.7 35.6L136.3 29l10.3-19.3 12.4 6.6z"/><path fill="#435965" fill-opacity=".5" d="M240.8 212.6l-85.5-9 18-170.9 85.4 9z"/><path fill="#081314" fill-opacity=".5" d="M377.5-10.2l46.8 1.7-3.3 95.2-46.9-1.6z"/><path fill="#262e24" fill-opacity=".5" d="M286 74.5l3 35.8-14 1.2-3.1-35.8z"/><path fill="#44473a" fill-opacity=".5" d="M81.2 33.8l38.5-13.3 16.2 47.3L97.5 81z"/><path fill="#a9aba5" fill-opacity=".5" d="M344.3 33.7l-6.7-20.8L351 8.5l6.7 20.8z"/><path fill="#737d73" fill-opacity=".5" d="M360.7 110.4l-137 12-1.6-18.7 137-12z"/><path fill="#4b4230" fill-opacity=".5" d="M367.4 48.5l3.7 23.2L331 78l-3.7-23z"/><path fill="#959790" fill-opacity=".5" d="M100.2 136.8l-11.5-8 25.1-36 11.5 8.2z"/><path fill="#bfc5c1" fill-opacity=".5" d="M94.6 189.4L96 208l-14 1-1.3-18.7z"/><path fill="#20291e" fill-opacity=".5" d="M81.9 245.4l-106.3-56.5L-5.3 153l106.2 56.5z"/><path fill="#383e2c" fill-opacity=".5" d="M157.2 141l-43-49.5 17.6-15.4 43.1 49.6z"/><path fill="#7c827a" fill-opacity=".5" d="M415 98.8l-10.2 22.9-21.4-9.6 10.2-22.8z"/><path fill="#102426" fill-opacity=".5" d="M226 193l6.2-32.3 21.5 4.2-6.3 32.2z"/><path fill="#dee1dd" fill-opacity=".5" d="M91.1 90.5l32.5-24.4 5.6 7.5L96.8 98z"/><path fill="#121d1a" fill-opacity=".5" d="M144.3 175.4l21.4 12.8-21 34.9-21.3-13z"/><path fill="#b3aea3" fill-opacity=".5" d="M264.3 59.9l28.5-19.2 7 10.3-28.5 19.3z"/><path fill="#bcb6a7" fill-opacity=".5" d="M297.8 140.8l-26-5.5 3.9-18.3 26 5.5z"/><path fill="#26281e" fill-opacity=".5" d="M337.6-15.7l13 13.5-46 44.5-13-13.5z"/><path fill="#5c4829" fill-opacity=".5" d="M327 142.9l12.7 72.3-33.8 6-12.8-72.3z"/><path fill="#a29f90" fill-opacity=".5" d="M244.1 83.9l25.1 8.6-8.6 25.2-25.1-8.7z"/><path fill="#262923" fill-opacity=".5" d="M412.8 132.7l-59 106.6-37-20.4L376 112.3z"/><path fill="#b2b6b4" fill-opacity=".5" d="M54.7 175.8h-11v-21.9h11z"/><path fill="#96927e" fill-opacity=".5" d="M135 91.6l-5.9-9.2L154 66.2l6 9.2z"/><path fill="#28241b" fill-opacity=".5" d="M273.5 76.6l31.2-23.5 4.7 6.2-31.2 23.5z"/><path fill="#747368" fill-opacity=".5" d="M151.7 167.4l-56.9-10 1.9-10.8 57 10z"/><path fill="#304e5a" fill-opacity=".5" d="M161.4 39l-1-53.1 79.8-1.4.9 53z"/><path fill="#262d23" fill-opacity=".5" d="M142.3 26L25.4 85.6l-10-19.5 117-59.5z"/><path fill="#5d6154" fill-opacity=".5" d="M274.2 5.2l3.4-12 43.6 12.5-3.5 12z"/><path fill="#3f3f37" fill-opacity=".5" d="M247.9 67.8l20.5 7.5-5.3 14.7-20.6-7.5z"/><path fill="#213032" fill-opacity=".5" d="M166.6 18l7.7 1L160 121.1l-7.8-1z"/><path fill="#726a5f" fill-opacity=".5" d="M322.2 70.8l-14.6-36.2L348 18.2l14.7 36.2z"/><path fill="#232f1b" fill-opacity=".5" d="M124.2 162.7l4.3 24.6-26.1 4.7-4.4-24.7z"/><path fill="#5b665b" fill-opacity=".5" d="M40.5 14.6l-8.9 20-30-13.3 9-20z"/><path fill="#717368" fill-opacity=".5" d="M95 50l31.4-9.7 8.2 27-31.3 9.5z"/><path fill="#958d7c" fill-opacity=".5" d="M292.8 174.7l-41.8-6 4.6-32.4 41.8 5.9z"/><path fill="#b3b9b4" fill-opacity=".5" d="M330.2 31.2l-1-1.3 36-25.1.8 1.3z"/><path fill="#787971" fill-opacity=".5" d="M106.8-3.4l13.1-5 12.4 32-13.2 5.1z"/><path fill="#2b3530" fill-opacity=".5" d="M231 137.1l21.2-13.2 5.8 9.3-21.2 13.2z"/><path fill="#546266" fill-opacity=".5" d="M231.5 72.3l7.3 104.4-37.4 2.6L194 75z"/><path fill="#1c251b" fill-opacity=".5" d="M100.7 105.2l2.9 10.6-55.9 15-2.8-10.6z"/><path fill="#49422f" fill-opacity=".5" d="M261.1 104.6L284 99l3.4 13.7-22.8 5.7z"/><path fill="#40463e" fill-opacity=".5" d="M20.6 146.2l21-68.7 30 9.1-21 68.7z"/><path fill="#d3d5d2" fill-opacity=".5" d="M136.4 78.8l-31.5-20.4.9-1.3 31.4 20.4z"/><path fill="#101915" fill-opacity=".5" d="M-2.4 78.2l50-22.2 6.3 14.2L4 92.5z"/><path fill="#191711" fill-opacity=".5" d="M344.4 59.2l9.8 5-6.4 12.5-9.8-5z"/><path fill="#3b392f" fill-opacity=".5" d="M273 143.4l11.6 35.7-3 1-11.5-35.7z"/><path fill="#fbf7ee" fill-opacity=".5" d="M362.7 34.3l-1.1 1-10.3-11.8 1.2-1z"/><path fill="#91938d" fill-opacity=".5" d="M283.1 6l6 25.9-45.7 10.5-6-25.8z"/><path fill="#fffdee" fill-opacity=".5" d="M334.3 116.8l1 4.6-33.7 7.1-1-4.6z"/><path fill="#19201b" fill-opacity=".5" d="M411 68.7L292.6-37.9l1-1.2L412.1 67.6z"/><path fill="#1c231b" fill-opacity=".5" d="M60 165.3l.3-14 34.4.6-.3 14z"/><path fill="#908d7d" fill-opacity=".5" d="M160 80.8l-4 2.2-20.6-40.4 4.2-2.1z"/><path fill="#a5afae" fill-opacity=".5" d="M344.8 7l31 4.8-.3 1.6-30.9-5z"/><path fill="#111818" fill-opacity=".5" d="M8.6 117.8l19.6 12.8L18 146.3l-19.7-12.8z"/><path fill="#746541" fill-opacity=".5" d="M320.3 132l34-22.2 14.5 22.3-34 22.1z"/><path fill="#b1bbb8" fill-opacity=".5" d="M309 101.5L307 86l38.8-4.7 1.9 15.5z"/><path fill="#555a4b" fill-opacity=".5" d="M-16 94.9l41.1-9.5 5 21.3-41.2 9.5z"/><path fill="#6c7169" fill-opacity=".5" d="M96.8 71.7L84.5 86 70.4 73.6l12.3-14.2z"/><path fill="#0c0f0d" fill-opacity=".5" d="M103 98l7 6.2-2 2.4-7-6.2z"/></svg>