<svg xmlns="http://www.w3.org/2000/svg" viewBox="0 0 400 200"><filter id="c"><feGaussianBlur stdDeviation="55" /></filter><path fill="#51564e" d="M0 0h400v200H0z"/><g filter='url(#c)' fill-opacity='.5'><path fill="#a59e8b" fill-opacity=".5" d="M345.8 22.8l-2.6 148.4-100-1.8L245.8 21z"/><path fill="#19221a" fill-opacity=".5" d="M65-1.8L86.6 134l-122 19.3-21.5-135.8z"/><path fill="#dadbd6" fill-opacity=".5" d="M82.7 94.8L115 56.5l22.7 19-32.1 38.3z"/><path fill="#221a0b" fill-opacity=".5" d="M322.4 203l67.3-269.8L476-45.3l-67.3 270z"/><path fill="#c2d3cf" fill-opacity=".5" d="M349.2 127.3H293v-50h56.2z"/><path fill="#160f07" fill-opacity=".5" d="M292.3 71.1l6.2-59 26.4 2.7-6.2 59z"/><path fill="#a7a8a3" fill-opacity=".5" d="M255.5-37l45.8 9.8-14.6 68.8-45.8-9.7z"/><path fill="#745f3c" fill-opacity=".5" d="M359.3 86.7l28 22.6-85.6 105.6-28-22.6z"/></g></svg>