<svg xmlns="http://www.w3.org/2000/svg" viewBox="0 0 800 400"><path fill="#51564e" d="M0 0h800v400H0z"/><g fill-opacity=".5"><path fill="#afac9b" d="M720.3 195.3L514.1 404.7 485.9-48.4z"/><path fill="#f3f4f0" d="M226.6 236l25-112.6-84.4 53.2z"/><path fill="#171307" d="M848.4 379.7L786-48.4 648.4 448.4z"/><path fill="#161f15" d="M-48.4 398.4L35.9-35.9 214.1 70.3z"/><path fill="#c8d8d4" d="M695.3 139L561 248.5h118.8z"/><path fill="#1d150a" d="M636 145.3L617.1-48.4 576.6 139z"/><path fill="#75613e" d="M507.8 336l321.9-181.3-234.4 293.7z"/><path fill="#30382e" d="M345.3 201.6l-28.1 246.8-365.6-46.8z"/><path fill="#99988d" d="M673.4 17.2l50 40.6-115.6 162.5z"/><path fill="#c7cbc9" d="M104.7 364l12.5-62.4L82.8 314z"/><path fill="#c3c8bc" d="M136 20.3l21.8-68.7L198.4 39z"/><path fill="#1b1c14" d="M757.8-48.4l90.6 156.2-156.2 87.5z"/><path fill="#3e4137" d="M451.6 117.2l121.8 28.1-3 78.1z"/><path fill="#c5c7bf" d="M301.6 167.2l-34.4-31.3-109.4 31.3z"/><path fill="#fff" d="M617.2 251.6l-37.5-28.2 93.7 15.7z"/><path fill="#c2cfcd" d="M573.4 179.7l147 12.5-109.5-46.9z"/><path fill="#2b3329" d="M198.4 217.2l-100 75L-48.4 4.7z"/><path fill="#b6b2a4" d="M329.7 23.4l-46.9 53.2V14z"/><path fill="#96958d" d="M589 123.4l-9.3-165.6-112.5 84.4z"/><path fill="#878679" d="M607.8 448.4l-150-265.6 87.5-18.7z"/><path fill="#445a64" d="M457.8 448.4l40.6-481.2-228 162.5z"/><path fill="#878a80" d="M173.4 261l72-97 15.5 81.3z"/><path fill="#1e271a" d="M7.8 307.8l-56.2 81.3 306.2 53z"/><path fill="#bbc0bc" d="M223.4 445.3l-25-68.7-40.6 6.2z"/><path fill="#1b2a2c" d="M439 398.4l37.6-68.7 81.2 15.6z"/><path fill="#373924" d="M345.3 145.3l-115.6 31.3 75 90.6z"/><path fill="#667064" d="M723.4 229.7l-159.3-9.4 162.5-43.7z"/><path fill="#7d8580" d="M767.2 229.7l25-43.8 21.9 53.2z"/><path fill="#888f8b" d="M-14 289l134.3 6.3-50 25z"/><path fill="#52432e" d="M739 173.4l-106.2-56.2 106.3-18.8z"/><path fill="#24271d" d="M598.4 82.8L754.7-35.9 585.9 23.4z"/><path fill="#6d746a" d="M179.7 161l-43.8-22 122-3z"/><path fill="#626b60" d="M79.7 64l-96.9-31.2 56.3-81.2z"/><path fill="#6e6b60" d="M189 448.4l112.6-178 9.3 68.7z"/><path fill="#262d21" d="M273.4 54.7L126.6 35.9l-172 175z"/><path fill="#e5e7e5" d="M182.8 157.8L236 161l-75 34.4z"/><path fill="#534e3f" d="M554.7 182.8L501.6 261l37.5 18.8z"/><path fill="#141c15" d="M192.2 279.7l-34.4-68.8 18.8 134.4z"/><path fill="#b0b9b3" d="M723.4 14l-31.2-3-15.6 37.4z"/><path fill="#8e8f86" d="M586 361l-134.4 46.8 178 34.4z"/><path fill="#89826b" d="M311 120.3l-53.2 53.1 56.3 9.4z"/><path fill="#344b51" d="M554.7-48.4L326.6-14.1l-9.4 184.4z"/><path fill="#474b44" d="M448.4 123.4l50-46.8 65.7 3z"/><path fill="#75633d" d="M711 289l-109.4 93.8 125-259.4z"/><path fill="#959489" d="M489 317.2l31.3-125 18.8 143.7z"/><path fill="#c5bfab" d="M576.6 273.4l43.7 12.5-68.7-59.3z"/><path fill="#222821" d="M492.2 248.4l-15.6 18.8h65.6z"/><path fill="#4e5448" d="M70.3 229.7l-118.7-53.1 268.7 28z"/><path fill="#1c2220" d="M848.4 14l-100 228.2-15.6-290.6z"/><path fill="#2f2e21" d="M561 448.4l287.4-128-78-97z"/><path fill="#7b826f" d="M154.7-14L314-48.5 145.3 73.4z"/><path fill="#353224" d="M567.2 139l3.1 97-28.1-90.7z"/><path fill="#38525c" d="M307.8 379.7l9.4-150 206.2 218.7z"/><path fill="#aca594" d="M526.6 145.3l68.7-46.9-78.1-3z"/><path fill="#b6b9b4" d="M251.6 151.6l21.8-6.3-62.5-31.2z"/><path fill="#70746b" d="M279.7 329.7L189 270.3l3 31.3z"/><path fill="#fffff8" d="M654.7 226.6l-62.5 9.3 81.2 9.4z"/><path fill="#222d1f" d="M198.4 157.8l-31.2-53.1 50 46.9z"/><path fill="#a3a79b" d="M482.8 186l103.1-6.3-59.3 21.9z"/><path fill="#2c2f28" d="M848.4 117.2l-31.2 53.1L639 142.2z"/><path fill="#767c74" d="M182.8 123.4h-34.4l25 81.3z"/><path fill="#1b241a" d="M170.3 251.6L57.8 239l134.4-25z"/><path fill="#a0aeab" d="M686 229.7l-109.4-75 118.7-3.1z"/><path fill="#171e19" d="M261 432.8l59.3-40.6-34.4-46.9z"/><path fill="#535f63" d="M332.8 79.7l121.9 368.7 21.9-331.2z"/><path fill="#50574d" d="M107.8 98.4l-150-15.6-6.2 56.3z"/><path fill="#57584f" d="M576.6 348.4l-43.8 68.8L545.3 289z"/><path fill="#1b211e" d="M-48.4 357.8l150-171.9-93.8 43.8z"/><path fill="#ada698" d="M304.7 126.6l-25-53.2v25z"/><path fill="#6c7366" d="M129.7 161l-21.9 21.8-25-25z"/><path fill="#151911" d="M695.3 20.3l87.5 53.1L726.6 61z"/><path fill="#7b7261" d="M629.7 45.3l-9.4 71.9 109.4-9.4z"/><path fill="#acb1a9" d="M557.8 320.3l31.3-9.4-6.3 31.3z"/><path fill="#353e2d" d="M289 332.8l-162.4-34.4-43.8 100z"/><path fill="#2a2e26" d="M348.4 1.6l-100 25 47-75z"/><path fill="#cad0c6" d="M723.4 64l-21.8-9.3-6.3-28.1z"/><path fill="#626556" d="M623.4 23.4L514.1-7.8l131.2-15.6z"/><path fill="#8e8c7d" d="M548.4 414l-50-37.4 18.8-28.2z"/><path fill="#653" d="M729.7 264l-84.4 153.2L586 301.6z"/><path fill="#151d13" d="M279.7 242.2L214 289l-3.2-25z"/><path fill="#bfc1c0" d="M223.4 254.7l-28-6.3 6.2 12.5z"/><path fill="#d4d6d4" d="M223.4 157.8l9.4 40.6-59.4-12.5z"/><path fill="#353d29" d="M220.3 36l-46.9 103-50-100z"/><path fill="#717975" d="M701.6 7.8l59.3 9.4-25 9.4z"/><path fill="#3c392b" d="M354.7 45.3L301.6 111l-25-37.5z"/><path fill="#9ba098" d="M248.4 257.8l-31.2-31.2 40.6-3.2z"/><path fill="#24231b" d="M601.6 142.2l-34.4-6.3 68.7-34.3z"/><path fill="#293223" d="M248.4 323.4v47l-78 37.4z"/><path fill="#5d503c" d="M726.6 179.7l3-103.1-37.4-34.4z"/><path fill="#25231c" d="M607.8 339H586l22 37.6z"/><path fill="#989d9a" d="M532.8 39l-40.6 43.8-12.5-50z"/><path fill="#3b3d2b" d="M270.3 298.4l-12.5-146.8 75 62.5z"/><path fill="#686f67" d="M186 332.8l15.6 12.5-50 21.9z"/><path fill="#545f5d" d="M542.2 23.4l-37.5 140.7-106.3 103z"/><path fill="#161e19" d="M139 132.8l-187.4-12.5 40.6 59.4z"/><path fill="#a9aba2" d="M576.6 39l-15.7-28-28 62.4z"/><path fill="#262c28" d="M298.4 189l50-50-15.6-21.8z"/><path fill="#878475" d="M314 26.6v50L270.4-1.6z"/><path fill="#b7bcb5" d="M261 342.2h15.6l-25 18.7z"/><path fill="#2c2616" d="M536 204.7l12.4 6.2-15.6 25z"/></g></svg>