<svg xmlns="http://www.w3.org/2000/svg" viewBox="0 0 400 200"><path fill="#6a676e" d="M0 0h400v200H0z"/><path fill="#d1c4d1" fill-opacity=".5" d="M346.3 164.2l-290.6-5L58.4 6 349 11z"/><path fill-opacity=".5" d="M-.9 157.5l398.4 7-1.3 76.5-398.4-7z"/><path fill-opacity=".5" d="M53.9 32.2l-3.1 176.5-103.1-1.8 3-176.5z"/><path fill="#000103" fill-opacity=".5" d="M353 48.7l61 1-3 172-61-1.2z"/><path fill="#000003" fill-opacity=".5" d="M22 263.8l6-345.3 26.6.5-6 345.3z"/><path fill="#cb352a" fill-opacity=".5" d="M156.8 23.4l.4 25L66.6 50l-.4-25z"/><path fill="#225c54" fill-opacity=".5" d="M51.8 85.8l107.8 1.9-.4 21.8-107.8-1.8z"/><path fill="#fff" fill-opacity=".5" d="M304.5 49.4l.3 10.9-126.4 4.4-.4-11z"/><path fill="#87aed0" fill-opacity=".5" d="M378.7 78.3l2-59.3 32.8 1.1-2 59.4z"/><path fill="#000c12" fill-opacity=".5" d="M347.8-24l25-1.7L385 150.5l-25 1.7z"/><path fill-opacity=".5" d="M82.2-8.6l175 3.1-.3 15.6-175-3z"/><path fill="#ce4e44" fill-opacity=".5" d="M338 113.6l-125-2.2.5-26.6 125 2.2z"/><path fill="#3d7263" fill-opacity=".5" d="M333.3 152l-59.4-1 .6-35.9 59.4 1z"/><path fill="#1f4f96" fill-opacity=".5" d="M244.4 120.4l-1.4 26.5-60.8-3.2 1.3-26.5z"/><path fill="#080804" fill-opacity=".5" d="M51 236.2l2.7-78 115.6 4-2.7 78z"/><path fill="#b14d46" fill-opacity=".5" d="M131.6 142.8L53.5 140l.9-25 78 2.8z"/><path fill="#fff" fill-opacity=".5" d="M234.3 12.8l.1 7.8L86 23.2l-.1-7.8z"/><path fill="#f3ffff" fill-opacity=".5" d="M62 65.1l-.4-9.3 131-6.9.5 9.4z"/><path fill-opacity=".5" d="M50.8 83.6V146h-84.4V83.6z"/><path fill="#637f9c" fill-opacity=".5" d="M9-11.5l30.7 5.4L27 66.2l-30.8-5.4z"/><path fill="#e3e6fc" fill-opacity=".5" d="M101 69.2L322.6 73l-.2 12.5-221.8-3.8z"/><path fill-opacity=".5" d="M245.5 9.5l-.3-15.7 98.4-1.7.3 15.6z"/><path fill="#3e746d" fill-opacity=".5" d="M244.5 23.4h90.7V50h-90.7z"/><path fill="#1850a2" fill-opacity=".5" d="M215 22.9l-.4 25-28.1-.5.4-25z"/><path fill="#030705" fill-opacity=".5" d="M368.4 160.8l6 48.1-131.9 16.2-5.9-48z"/><path fill="#e2efff" fill-opacity=".5" d="M269.6 112.5l-.2 7.8-175-3 .2-7.9z"/><path fill="#d1e1f9" fill-opacity=".5" d="M213.3 22.7V10.2h131.2v12.5z"/><path fill="#2a2d34" fill-opacity=".5" d="M97.6 68.6l246.9-4.3v3L97.7 71.8z"/><path fill="#ecf8ff" fill-opacity=".5" d="M243.1 152.5l6.2-16L274 146l-6.2 16z"/><path fill="#e9f6ff" fill-opacity=".5" d="M233.6 63.3V19.5H246v43.8z"/><path fill-opacity=".5" d="M204 223.3l-27-18.8 20.6-29.4 27 18.8z"/><path fill="#d2dbf2" fill-opacity=".5" d="M350.5 48.4L351 64l-46.8 1.7-.6-15.7z"/><path fill="#505250" fill-opacity=".5" d="M397.1 230.3l-21.9.4-2-115.7 21.9-.3z"/><path fill="#e1e6f7" fill-opacity=".5" d="M58 143l182.7 6.3-.2 6.2-182.7-6.3z"/><path fill="#e8f7ff" fill-opacity=".5" d="M88 137.6l-4.7-.2 2.2-64 4.7.1z"/><path fill="#b07b6d" fill-opacity=".5" d="M89.3 206.3l-24.8-39.8 4-2.5 24.8 39.8z"/><path fill="#b8c0d2" fill-opacity=".5" d="M23.5 81.5l-.1-4.7 23.4-.4.1 4.6z"/><path fill="#d5b1be" fill-opacity=".5" d="M54.6 9l18.8.7L71.9 52l-18.7-.7z"/><path fill="#7b706c" fill-opacity=".5" d="M28 143.4l-9.3 47.5-7.6-1.5 9.2-47.5z"/><path fill="#d3cfcb" fill-opacity=".5" d="M313 139.7l-7 8.3-23.6-20.5 7.2-8.3z"/><path fill="#dbe5ff" fill-opacity=".5" d="M74.2 11.7h100v9.4h-100z"/><path fill="#d9988f" fill-opacity=".5" d="M329.4 185L304 216.4l-3.7-3 25.6-31.5z"/><path fill="#e99381" fill-opacity=".5" d="M170.8 206l-3.7-2.8 23-29.6 3.8 3z"/><path fill="#c66863" fill-opacity=".5" d="M187 82.5l37.4.6-.4 26.6-37.5-.7z"/><path fill="#5977ac" fill-opacity=".5" d="M205.6 114.1l2.5 23.4-59 6.2-2.5-23.3z"/><path fill="#373b3b" fill-opacity=".5" d="M362.2 67.8L361 78.7l-40.4-4.3 1.2-10.9z"/><path fill="#86b2e9" fill-opacity=".5" d="M359.2 51.6l-1.5-.2L361 3.1l1.5.1z"/><path fill="#305856" fill-opacity=".5" d="M257.3 38.2l-9.4.2-.5-31.3 9.4-.1z"/><path fill="#e3f0ff" fill-opacity=".5" d="M170.3 13.1l7.8 49.4-6.2 1-7.8-49.4z"/><path fill="#3b6466" fill-opacity=".5" d="M170.9 89.6L2.4 80.7l.1-3 168.6 8.7z"/><path fill="#11443f" fill-opacity=".5" d="M311.7 160.5L307 154l26.5-19.2 4.6 6.3z"/><path fill="#fff" fill-opacity=".5" d="M257.2 25.5l1.6-.3 7.4 38.4-1.5.3z"/><path fill="#081a17" fill-opacity=".5" d="M60 8.2l.4-14L126-3.5l-.5 14z"/><path fill="#000004" fill-opacity=".5" d="M386.2 147.7l-45 61.9-16.4-12 45-61.9z"/><path fill="#d5cdde" fill-opacity=".5" d="M314 22.7h11v21.8h-11z"/><path fill="#cd8273" fill-opacity=".5" d="M215.7 170.8l24.2 42-4 2.3-24.3-42z"/><path fill="#ba6455" fill-opacity=".5" d="M166.9 51l-34.4 1.2-1-26.6 34.4-1.2z"/><path fill="#bccce9" fill-opacity=".5" d="M63.4 150.4l-3.1.4L53.8 98l3.1-.3z"/><path fill="#c1a8ac" fill-opacity=".5" d="M254.8 84.4l2.4 17-44.8 6.4-2.4-17z"/><path fill="#b6bbc2" fill-opacity=".5" d="M363 88l5.8-11 4.2 2.2-5.9 11z"/><path fill="#eaffff" fill-opacity=".5" d="M146 41.8l-2.6-3.9 9-6.2 2.6 3.8z"/><path fill="#b85c54" fill-opacity=".5" d="M145 144.9l-42.1-.7.5-28.2 42.2.8z"/><path fill="#efeef0" fill-opacity=".5" d="M130.6 92.6l1.5-.2 7.6 47.8-1.5.2z"/><path fill="#416961" fill-opacity=".5" d="M268 114.3l26.5 32.8-11 8.9-26.5-32.8z"/><path fill="#bb6c69" fill-opacity=".5" d="M75 54.3L60.4 18.1l13-5.2L88.1 49z"/><path fill-opacity=".5" d="M220.7 204.5l-13.4 4.4-14-43.1 13.4-4.4z"/><path fill="#2a3742" fill-opacity=".5" d="M142.9 64.9v1.6L11.9 71v-1.5z"/><path fill="#8392ad" fill-opacity=".5" d="M-11 125.3L9.5 19.4l3.1.6L-8 126z"/><path fill-opacity=".5" d="M-6 90.8l20-15L45 117l-20 15z"/><path fill="#ddd5cb" fill-opacity=".5" d="M286.1 120.2l-.3-9.4 39-1.3.4 9.3z"/><path fill="#e7edf8" fill-opacity=".5" d="M252.4 117.6l4.5 37.3-7.7 1-4.6-37.3z"/><path fill="#d9ddef" fill-opacity=".5" d="M343.1 81.2l1.3 70.3-4.7.1-1.3-70.3z"/><path fill="#bcc8db" fill-opacity=".5" d="M54.7 71.1L53-16.3l6.3-.2L60.9 71z"/><path fill="#8d96a2" fill-opacity=".5" d="M386.9 132.8l5.9 41.8-3.1.4-5.9-41.8z"/><path fill="#840000" fill-opacity=".5" d="M163.6 22.6l1.5.2-2.1 24.9-1.6-.2z"/></svg>