<svg xmlns="http://www.w3.org/2000/svg" viewBox="0 0 16 8"><path fill="#69646c" d="M0 0h16v8H0z"/><g fill-opacity=".5"><path d="M-15.5 17.5l17-12 30 2z"/><path fill="#cdc3d4" d="M13.5 5.5l-4-21-7 21z"/><path d="M1.5.5l7 23-24-21z"/><path fill="#000301" d="M14.5 1.5l-1 12 18-7z"/><path fill="#aba1b2" d="M13.5 4.5v-7l-13 1z"/><path fill="#150f13" d="M2.5 3.5l-18-8 21 22z"/><path fill="#9b8896" d="M2.5 5.5v-14l5 14z"/><path fill="#10100f" d="M-15.5 4.5l8 19 34-15z"/><path fill="#89868e" d="M6.5 2.5l6 1-5 2z"/><path fill="#afa5b8" d="M3.5 2.5l8-1-9-6z"/><path fill="#323a3f" d="M31.5 23.5l-17-23 7 23z"/><path fill="#010000" d="M1.5 3.5l-14-4v10z"/><path fill="#857182" d="M-15.5 11.5l18-11-14 2z"/><path fill="#d2afc4" d="M9.5 2.5h3l-3-1z"/><path fill="#484044" d="M.5 5.5l-14 18-1-8z"/><path fill="#829193" d="M13.5 5.5l-7-3h7z"/><path fill="#ab9aad" d="M11.5 4.5l-9-13-2 6z"/><path fill="#779095" d="M10.5.5l8-16 13 9z"/><path fill="#6b8b8a" d="M5.5 3.5h-2l2-2z"/><path fill="#131d1c" d="M15.5 3.5l16 6-9-13z"/><path fill="#a5859c" d="M6.5 1.5l-22-12 20-5z"/><path fill="#67777b" d="M14.5 1.5h17v-9z"/><path fill="#547f72" d="M11.5 3.5l2 1-1-1z"/><path fill="#454d48" d="M31.5-.5h-13l-3 7z"/><path d="M3.5 7.5l-6 1-7-4z"/><path fill="#0a0000" d="M8.5 7.5l3 9 15 2z"/><path fill="#000604" d="M5.5 7.5l12 10-22 4z"/><path fill="#aeaebb" d="M7.5 2.5h-2l1-6z"/><path fill="#ba839a" d="M6.5 5.5v-2h-3z"/><path fill="#5b7477" d="M5.5 2.5h-1l2 1z"/><path fill="#3a232c" d="M11.5 6.5l17 17h-44z"/><path fill="#483b41" d="M9.5 6.5l-3-1h6z"/><path fill="#9e8ca2" d="M9.5 3.5l-5-14h4z"/><path fill="#a2889e" d="M5.5 1.5l-10-13 16-4z"/><path fill="#293330" d="M2.5 6.5l10 10h8z"/><path fill="#3f3f47" d="M14.5 1.5l17 16-2-12z"/><path fill="#1e141e" d="M1.5 2.5l-9 12-5-3z"/><path fill="#08080a" d="M7.5 7.5l10 8-4 8z"/><path fill="#020000" d="M-8.5 23.5l2-9 23-8z"/><path fill="#a7a6b3" d="M11.5 5.5l-1-19-6 1z"/><path fill="#7c8591" d="M12.5.5l-3-16-8 8z"/><path fill="#768a87" d="M11.5 4.5l2-1-2 2z"/><path fill="#80858b" d="M14.5 1.5l4-4 1 2z"/><path fill="#28171f" d="M11.5 6.5l-5 10-4-1z"/><path fill="#363638" d="M6.5 7.5l-6 1 15 15z"/><path fill="#baabc1" d="M6.5-10.5v13l4-12z"/><path fill="#998194" d="M6.5 5.5v-3h5z"/><path fill="#33272c" d="M1.5 4.5h-10l-4 7z"/><path fill="#95a4a7" d="M12.5 1.5l2-13 4 1z"/><path fill="#4a394d" d="M1.5.5l9-16-7 3z"/><path fill="#2f2c2c" d="M14.5 5.5l-12 10h5z"/><path fill="#838289" d="M2.5 1.5v-2l1 3z"/><path fill="#2d3431" d="M3.5 23.5l4-9-4-8z"/><path fill="#8e90a1" d="M18.5-15.5L8.5.5l2-10z"/><path fill="#aea3b4" d="M8.5 4.5l-1-15-7-5z"/><path fill="#a28c9f" d="M3.5.5l-2-13 25 2z"/><path fill="#7d6e7c" d="M6.5-4.5l-10 7 8-13z"/><path fill="#b8bacd" d="M9.5 1.5l1-12 6-5z"/><path fill="#322c38" d="M.5 2.5l-11-7-4-11z"/><path fill="#393a39" d="M-2.5 14.5l-2-10 4 1z"/><path fill="#27242d" d="M14.5 2.5l10 3 7 12z"/><path fill="#423145" d="M-14.5 2.5l16-1-11 4z"/><path fill="#3d454b" d="M15.5.5l-15-15 10-1z"/><path fill="#a68fa8" d="M8.5 1.5l-6-17h5z"/><path d="M2.5 7.5l-13 3 15 3z"/><path fill="#1d2b29" d="M5.5 6.5l-3 17-6-5z"/><path fill="#0b0612" d="M1.5 2.5h-8l3 2z"/><path fill="#828087" d="M8.5 5.5h-2l2-1z"/><path fill="#1a211f" d="M31.5-8.5h-11l-6 22z"/><path fill="#121313" d="M2.5 6.5l-15 1 7 2z"/><path fill="#1e2c28" d="M13.5 5.5l11-6 7-15z"/><path fill="#738785" d="M11.5 3.5l-1 2 3-1z"/><path fill="#89909a" d="M12.5.5l-17-11 24 6z"/><path fill="#a66f8b" d="M12.5 2.5h-1v1z"/><path fill="#999cac" d="M8.5 1.5l6-16-5 4z"/><path fill="#9b8295" d="M2.5 1.5l1-17 5 4z"/><path fill="#16201f" d="M4.5 6.5l10 17-10-2z"/><path fill="#b388a2" d="M10.5 2.5l-1 1v-1z"/><path fill="#aaa5b6" d="M11.5.5l-14-7-3-9z"/><path fill="#89b2a8" d="M11.5 5.5h-2l1-1z"/><path fill="#a38da1" d="M6.5 1.5l-15-11 5-3z"/><path fill="#3a3436" d="M12.5 6.5l11 15-9-5z"/><path fill="#414248" d="M15.5 2.5l16 16-3-15z"/><path fill="#242828" d="M4.5 7.5l-5 6 12 5z"/><path fill="#c19caf" d="M10.5 2.5l2-1h-2z"/><path fill="#c39db5" d="M10.5 1.5l1 1-2-1z"/><path fill="#b39ab4" d="M6.5.5l2-9 9-7z"/><path fill="#31252a" d="M13.5 6.5l-7 15-15 2z"/><path fill="#a5b4be" d="M12.5.5v1l-3-1z"/><path fill="#8e8791" d="M12.5 4.5l2-3-1-6z"/><path fill="#8e98a3" d="M10.5 1.5l8-17h-6z"/><path fill="#868d99" d="M12.5.5l-3-13-14-3z"/><path fill="#a0848e" d="M1.5 4.5l1-1h1z"/><path fill="#88989d" d="M14.5.5l-4-13-7 2z"/><path fill="#342c30" d="M-12.5 11.5l13-6-14 13z"/><path fill="#534d58" d="M-.5.5l-4 11-7-11z"/><path fill="#150b12" d="M2.5 4.5l-18-9v-11z"/><path fill="#b6a0b8" d="M7.5 1.5l-6-13 5 3z"/><path fill="#11040a" d="M13.5 7.5l-3 12 21-7z"/><path fill="#41474d" d="M15.5 1.5l-1-13-4 2z"/></g></svg>