<svg xmlns="http://www.w3.org/2000/svg" viewBox="0 0 400 200"><path fill="#6a676e" d="M0 0h400v200H0z"/><g fill-opacity=".5"><path fill="#d1c3d1" d="M357.5 11.8l-303-4.1-2.2 149.1 268 4.4z"/><path d="M44.3-24.2l-68.5 248.4 448.4-40L62 151.5z"/><path d="M424.2 203.3L354.5-24.2l-6.2 188.8-361.2 32z"/><path fill="#000104" d="M7.5 66L50.9 7.4l3.8 216.8-79-47.7z"/><path fill="#ca362b" d="M73.5 52.1l9-26.6 79.6-3.7 4.9 27.8z"/><path fill="#2e635d" d="M177.6 87.1l1.4 20.3-105.6 1.2-62-32.7z"/><path fill="#010800" d="M387.5-15L17.8 4.8l101.8 4.3 211.2-.8z"/><path fill="#f5ffff" d="M245.5 64.1L50.8 60.5 168 49.1l186.4 4.5z"/><path fill="#cd574e" d="M177.1 111.5l147.3-1 37.3-22L192 84.4z"/><path fill="#8c9aa6" d="M32.6 158.7L350.9 93l3.1 72-29.4-2.7z"/><path fill="#030b0b" d="M385.8 224.2L373.7-24l-24 188.6-79-1.5z"/><path fill="#e1ecff" d="M57.4 16L72 11l280.7 4-205.1 11.5z"/><path fill="#0b0b0a" d="M243.9 162.3L39 160.7l-25.9 31.7 376.2-26.2z"/><path fill="#b6625d" d="M162 144l-110.5-.2 4-32.7 61.6 9.2z"/><path fill="#3e5c99" d="M129 144.7l120.4-1-4.9-26.5-53.4 4z"/><path fill="#537f8d" d="M177 46.1l182.7 6 64.5-27.2L279.4 22z"/><path fill="#dedeeb" d="M239.9 108.8l12.1 35-145.2 9 173 3.8z"/><path fill="#d8e1f5" d="M288.5 83.2L157 84.5 24.6 79l210.7-5.2z"/><path fill="#487060" d="M269.7 117.3l4.8 37.6 61.8-.9-5-33.7z"/><path fill="#7c5550" d="M183.4 165.8l73.8 53-45-53.3-53.9 56.4z"/><path fill="#1d282a" d="M336.6 61l-25.4 11 113 6.9v76.4z"/><path fill="#ccd7f2" d="M64.3 143.7l79.5 4.1-89.7 5.1-.4-48.2z"/><path fill="#dad8eb" d="M252 87.6l97.7-2.7L228 60.8l14.3-59.3z"/><path d="M54 88.4l-61.5-10-16.7-27.3 72.9 136.3z"/><path fill="#d8d0df" d="M341.8 77.2l-6 56.1 11.3 31.9-.3-85.7z"/></g></svg>