<svg xmlns="http://www.w3.org/2000/svg" viewBox="0 0 400 200"><path fill="#7f7d7a" d="M0 0h400v200H0z"/><g fill-opacity=".5"><path fill="#030000" d="M.8 139.8H246v61H.8z"/><path fill="#fffdee" d="M16.4 32h129.7v75H16.4z"/><path fill="#dadee5" d="M202.3 61.7h175v87.5h-175z"/><path fill="#23201b" d="M146 171h254.8v29.8H146z"/><path fill="#251c0d" d="M.8 108.6h89v92.2H.8z"/><path fill="#f8f7f5" d="M105.5 49.2h42.2v61h-42.2z"/><path fill="#5c5551" d="M139.8.8h90.7v51.5h-90.7z"/><path fill="#afa89a" d="M.8 13.3H96V107H.8z"/><path fill="#b6b6ba" d="M219.5 43h67.2v118.7h-67.2z"/><path fill="#3f3932" d="M146 93h26.7v93.7H146z"/><path fill="#a1a4a4" d="M286.7 25.8h114v125h-114z"/><path fill="#dee8f3" d="M329 94.5h34.3v36h-34.4z"/><path fill="#646263" d="M66.4 130.5h81.3V168H66.4z"/><path fill="#7a7875" d="M325.8 54h75v25h-75z"/><path fill="#ddd" d="M247.7 80.5h29.6v57.8h-29.6z"/><path fill="#9ca6b4" d="M113.3 100.8h21.9v48.4h-22z"/><path fill="#616464" d="M300.8 161.7h100v23.5h-100z"/><path fill="#8e95a1" d="M188.3 60.2H218V143h-29.7z"/><path fill="#898584" d="M197.7 33.6h89V71h-89z"/><path fill="#302e29" d="M227.3 188.3h173.5v12.5H227.3z"/><path fill="#d1c8bc" d="M68 22.7h53v82.8H68z"/><path fill="#696c6e" d="M236.7 97.7h9.4v82.8h-9.4z"/><path fill="#999890" d="M.8 32h39v78.2H.8z"/><path fill="#6c7275" d="M349.2 89.8h4.7v100h-4.7z"/><path fill="#3a3832" d="M149.2 74.2h9.4v67.2h-9.4z"/></g></svg>