<svg xmlns="http://www.w3.org/2000/svg" viewBox="0 0 128 64"><path fill="#817e7b" d="M0 0h128v64H0z"/><g fill-opacity=".5"><path fill="#060000" d="M-9.5 31.5l153 34-159 14z"/><path fill="#d1d3d4" d="M143.5 22.5l-53 32-106-44z"/><path fill="#4b4541" d="M48.5-2.5l26 2-28 71z"/><path fill="#e7e0d1" d="M-15.5 29.5l58-26 6 31z"/><path fill="#bcbec4" d="M93.5 9.5l44 41-74-11z"/><path fill="#5b5c5c" d="M141.5 48.5l-83-2 61 21z"/><path fill="#8f9092" d="M143.5-1.5l-86 17 76 18z"/><path fill="#aca797" d="M42.5 4.5l-40 31-18-30z"/><path fill="#888b95" d="M28.5 41.5l12 11 10-22z"/><path fill="#211b0d" d="M-14.5 28.5l47 32-43 19z"/><path fill="#352f27" d="M86.5 66.5l-36-1-3-34z"/><path fill="#faf9fa" d="M29.5 22.5l16-8 1 19z"/><path fill="#6f6a66" d="M53.5 19.5l86-26-129-9z"/><path fill="#575146" d="M42.5 61.5l-13-27-23-1z"/><path fill="#9aa1af" d="M93.5 51.5l-39-10 9-22z"/><path fill="#e4e2e4" d="M79.5 43.5v-20l11 17z"/><path fill="#8b8f8e" d="M127.5-11.5l-21 23 37 67z"/><path fill="#353937" d="M102.5 79.5l41-25-23-3z"/><path fill="#e5f0fb" d="M109.5 26.5l1 17-5-7z"/><path fill="#d0c6b9" d="M44.5 11.5l-38-3 24 20z"/><path fill="#828182" d="M50.5 39.5l13 4 10-40z"/><path fill="#403d2b" d="M4.5-15.5l11 15-31 6z"/><path fill="#4e4a47" d="M50.5 45.5l-1-24-7 31z"/><path fill="#96958d" d="M-12.5-15.5v50l28-2z"/><path fill="#9a9e9c" d="M119.5 50.5l24-3-28-24z"/><path fill="#c9c3c4" d="M107.5 24.5l-36 10 2-11z"/><path fill="#b3b9cc" d="M40.5 31.5l4 9h-7z"/><path fill="#a9aab0" d="M82.5 55.5l-3-8 10 1z"/><path fill="#7f7d79" d="M139.5 11.5l4 23-36-13z"/><path fill="#97999a" d="M139.5 2.5l-38 8-4 25z"/><path fill="#ada395" d="M30.5 3.5l-18-2 17 19z"/><path fill="#bbc7d8" d="M74.5 29.5l1 18-9-3z"/><path fill="#413b30" d="M-6.5 34.5l24 1 30 44z"/><path fill="#e5e3e0" d="M29.5 32.5h16l-5-20z"/><path fill="#423d3b" d="M63.5 53.5l6-6-23-8z"/><path fill="#797d86" d="M75.5 47.5l4-7-3-11z"/><path fill="#706f6f" d="M112.5 46.5l15 11-48-3z"/><path fill="#6b6660" d="M140.5-15.5l-156 7 76 19z"/><path fill="#35312b" d="M83.5 79.5l49-17-111-6z"/><path fill="#858381" d="M65.5 9.5l45-5-56 23z"/><path fill="#f0f5f6" d="M47.5 17.5l-2 12-8-2z"/><path fill="#eaf3fd" d="M113.5 38.5l2-9 1 11z"/><path fill="#b2afa5" d="M24.5 33.5h-18l5-24z"/><path fill="#e0ebf7" d="M106.5 31.5h4v10z"/><path fill="#575353" d="M19.5 34.5l15 24 10-6z"/><path fill="#c1bdbc" d="M115.5 26.5l-30-5-15 10z"/><path fill="#a9a8a4" d="M104.5 27.5l2 21-21-20z"/><path fill="#848894" d="M35.5 40.5h9l-6 7z"/><path fill="#d3d6d8" d="M79.5 47.5l1-15 10 3z"/><path fill="#241d16" d="M37.5 66.5l-37 3-16-21z"/><path fill="#6c7073" d="M109.5 42.5l-1 15 14 2z"/><path fill="#ded5cc" d="M34.5 10.5l10 3-15 18z"/><path fill="#5b5756" d="M71.5 55.5l-3-9 19 9z"/><path fill="#a0a6a8" d="M125.5 50.5l-13-12 1 7z"/><path fill="#858482" d="M111.5 31.5l15-17-8 2z"/><path fill="#7c7670" d="M52.5 24.5l18-10-25-3z"/><path fill="#a39d9c" d="M60.5 26.5l24-13 18 5z"/><path fill="#585144" d="M-2.5 34.5h25l11 10z"/><path fill="#7d7670" d="M90.5 47.5l14 7 10-4z"/><path fill="#b8b6b5" d="M98.5 37.5l3 10-22-4z"/><path fill="#928f81" d="M18.5 9.5l-6-8-27 8z"/><path fill="#d2ced4" d="M79.5 25.5l-9 8 19-7z"/><path fill="#918a7e" d="M46.5 10.5l-10-9h-22z"/><path fill="#95938b" d="M9.5 31.5l-10-21-13 24z"/><path fill="#939aa9" d="M66.5 26.5l4 20-9-4z"/><path fill="#686262" d="M85.5 55.5l-16-7 7-1z"/><path fill="#49463f" d="M95.5 54.5l-16 8h30z"/><path fill="#939490" d="M143.5 42.5l-34-25 18 34z"/><path fill="#c5beb5" d="M34.5 31.5l-10 1-10-15z"/><path fill="#6c6964" d="M35.5 34.5l-1 15-9-14z"/><path fill="#695f55" d="M99.5 47.5l4 2-10-1z"/><path fill="#aeb5b9" d="M104.5 47.5l-6-1 8-12z"/><path fill="#5e5857" d="M35.5 52.5l8 1 4-10z"/><path fill="#767475" d="M61.5 44.5l-8-25-3 18z"/><path fill="#858582" d="M115.5 15.5l17 2-32 7z"/><path fill="#cac7c8" d="M113.5 26.5l-9 7v-4z"/><path fill="#322f29" d="M124.5 52.5l19-3v13z"/><path fill="#7b746c" d="M35.5-15.5l11 28-31-28z"/><path fill="#b4b1af" d="M89.5 34.5l-9-2 20-11z"/><path fill="#6c6c78" d="M78.5 44.5l-2 2 1 4z"/><path fill="#241b16" d="M42.5 64.5l34 7-18-10z"/><path fill="#979591" d="M93.5 33.5l12-7-5 6z"/><path fill="#6d696b" d="M137.5-15.5l-36 24 1-14z"/><path fill="#898c90" d="M133.5-1.5l-16 17h-37z"/><path fill="#9ea2a5" d="M131.5 6.5l-16 7 7 2z"/><path fill="#bcb8ab" d="M19.5 31.5l-12-21h25z"/><path fill="#403832" d="M58.5 51.5l-11 8 1-23z"/><path fill="#909aa3" d="M112.5 34.5l-2 11 5-2z"/><path fill="#36322b" d="M9.5 41.5l23 19-25-3z"/><path fill="#a8a599" d="M15.5 4.5l-7 23-7-10z"/><path fill="#b5b3ba" d="M68.5 35.5l4-11 11-4z"/><path fill="#9fa4a7" d="M125.5 50.5h-7v-21z"/><path fill="#55595b" d="M120.5 56.5l-11 1 15 4z"/><path fill="#474240" d="M38.5 58.5l-16-19 3 20z"/><path fill="#b7b9bf" d="M88.5 48.5h-9l3 2z"/><path fill="#cdced2" d="M37.5 28.5l9 3-1 3z"/><path fill="#4a4440" d="M75.5 56.5l-24-12 14 2z"/><path fill="#abadb1" d="M86.5 37.5l2 13-4 1z"/><path fill="#757679" d="M93.5 52.5l-10 2-7-5z"/><path fill="#6c6d61" d="M85.5 45.5l-4 2 1-2z"/></g></svg>