<svg xmlns="http://www.w3.org/2000/svg" viewBox="0 0 400 200"><path fill="#7f7d7a" d="M0 0h400v200H0z"/><g fill-opacity=".5"><path fill="#060000" d="M-20.4 106.7l49.3 4.7 395.3 88.5L4 224.2z"/><path fill="#d1d2d3" d="M240.6 157.5l183.6-19.3L325 49.7-24.2 45z"/><path fill="#e7dfcf" d="M145.4 106L7.1 109.3 41 10.9l100.6 23.2z"/><path fill="#4f4b47" d="M183.3 150.1l66.2-174.3-92.6 6-14.2 162.4z"/><path fill="#8e949f" d="M137.9 158l-20 8.8-28-38.5L141 107z"/><path fill="#bbbec3" d="M382.5 103l-120-37.7-75 19.7 74.1 90z"/><path fill="#4e504d" d="M304.2 170l-171-44.9 248 99.1 43-69.4z"/><path fill="#f6f5f1" d="M147.2 105L101 99.5l11.5-65.4L145.7 52z"/><path fill="#929495" d="M398.9-8.9L165.4 78.5l173-9 85.8 134.7z"/><path fill="#241d11" d="M-24.2 111L-6 215.3 229.2 174l-51 50.1z"/><path fill="#a9a494" d="M45.6 5L-2.6 30.6l-21.3 99 153-102.5z"/><path fill="#38322b" d="M152.2 59.3l10.6 69.5 150 95.4-173.9-8.9z"/><path fill="#5c5447" d="M94.5 107.1L-24.2 105l26.6.6L129.8 179z"/><path fill="#686764" d="M206.5 172l182.3 16-140.7-43.2 124.5 11.8z"/><path fill="#dbe8f5" d="M334.8 91.3l25 37 4.4-26.8-37.2 50.2z"/><path fill="#dbd9db" d="M243.7 85.2l33-7.6 2 52.3-28.4 15.6z"/><path fill="#7e8085" d="M249.4 144.7l-12.1-53-1.1 72 61.5 15.2z"/><path fill="#726c69" d="M159.2 80.2l265-93.5-146.2 4-175.5-10z"/><path fill="#888a90" d="M202.4 147.3L170 110.4l28-63.6 39.6-26.4z"/><path fill="#989e9e" d="M359.2 71.9l65 52.1L310 134.8l97.3 32.6z"/><path fill="#564e3d" d="M27.6 5.8l-51.8 14V-4L116 3z"/><path fill="#cdcac5" d="M120.2 144l22.2-38.9-63.9.3 30.7-81.3z"/><path fill="#32332b" d="M386.9 186l7.4 38.2 14.4-61.6-28-.3z"/><path fill="#a19b96" d="M339.7 83.8l-22.3 4.6-63 4.7 53.2 22z"/><path fill="#e4eaef" d="M365 121.2l-3.9-27-7.3 3.2 9 39.2z"/></g></svg>