<svg xmlns="http://www.w3.org/2000/svg" viewBox="0 0 400 200"><path fill="#7f7d7a" d="M0 0h400v200H0z"/><g stroke-opacity=".5" fill="none" stroke-width=".8"><path stroke="#000" d="M413.4 199.6Q68.6 201-.1 196.1m-23.9-5.6q-.2 1 430 4.7m14.3-3.2q-40.3-5-435-3.4m1 5q163.5 5.6 413 4m22.3-12.4Q5 216.6-1.2 114m411.8 87.6q-140.7-34.8-434.8-13m30 3.2q349.6 9.6 408.9-2.3m-438.9-8.3q219.2-19.6 438.4 24.3"/><path stroke="#080300" d="M398 190q-151.7-18.3-415.6-19"/><path stroke="#030000" d="M-24.2 192.4q25-31.8 448.4 10.2"/><path stroke="#040000" d="M327.5 174.6Q35.3 224.2-2.8 125.9"/><path stroke="#0b0500" d="M401.5 202.4Q13.3 117.8-3.3 206"/><path stroke="#020000" d="M424.2 191.6Q6.2 224.2-3.3 132.2"/><path stroke="#050000" d="M-24.2 59.4q18 155 346.7 127.6"/><path stroke="#ecedeb" d="M-22.6 35.6Q119.1 98 378.8 126.4"/><path stroke="#060000" d="M380 196q-55.8-28.4-388.4 2.5"/><path stroke="#edeff0" d="M363.5 102.4q-20.1 62.4-348.1-48.5"/><path stroke="#000" d="M424.2 184.6q-154.8 19.5-448.4 14"/><path stroke="#110b06" d="M367.8 182.9q-198.5-8.6-392-27.5"/><path stroke="#e9eae9" d="M391 110.5Q312 137 18.3 49.7"/><path stroke="#e3e5e5" d="M-21.3 51.6q101.7 42.2 424.5 79.8"/><path stroke="#060000" d="M3.3 110q-2.5 60.4 247 62"/><path stroke="#e8e8e5" d="M8.7 45.1q327 89.6 373.5 58.4"/><path stroke="#100903" d="M-12.6 219.7Q20 70.2 317.8 207"/><path stroke="#e4e3df" d="M384.6 91q-69.3 48.7-408.8-63.2"/></g></svg>