<svg xmlns="http://www.w3.org/2000/svg" viewBox="0 0 200 100"><path fill="#817e7b" d="M0 0h200v100H0z"/><g fill-opacity=".5"><path fill="#060000" d="M-4.5 115.5l214-17-225-49z"/><path fill="#d4d6d8" d="M133.5 85.5l82-43-231-30z"/><path fill="#ede5d8" d="M-15.5 45.5l92 10-12-48z"/><path fill="#4b4642" d="M125.5-15.5h-47l-9 131z"/><path fill="#bec0c5" d="M215.5 79.5l-114-17 42-49z"/><path fill="#afa998" d="M-15.5 9.5l18 46 66-48z"/><path fill="#585958" d="M215.5 80.5l-20 31-118-43z"/><path fill="#8d929e" d="M73.5 49.5l-32 16 24 17z"/><path fill="#939798" d="M123.5 24.5l92-30v69z"/><path fill="#211a0d" d="M-15.5 57.5l19 48 55-11z"/><path fill="#f5f4f2" d="M70.5 20.5l-27 26 30 7z"/><path fill="#342e25" d="M142.5 115.5l-68-64-1 52z"/><path fill="#585044" d="M48.5 53.5l17 36-59-35z"/><path fill="#716b69" d="M33.5-14.5l154 14-105 33z"/><path fill="#909094" d="M151.5 9.5l-53 10-11 49z"/><path fill="#bec3cb" d="M104.5 70.5l33-38 3 48z"/><path fill="#666872" d="M124.5 72.5l-7 11 2-35z"/><path fill="#e6f4ff" d="M173.5 66.5l-9-7 8-17z"/><path fill="#9f9d97" d="M-15.5 54.5l49-3-49-60z"/><path fill="#2f322e" d="M192.5 81.5l-4 30 27-31z"/><path fill="#8e908f" d="M178.5-15.5l37 101-31-9z"/><path fill="#55534f" d="M85.5 66.5l-8-35-14 55z"/><path fill="#463f2c" d="M46.5-3.5l-57 10-2-22z"/><path fill="#c8bfb4" d="M70.5 18.5l-52-7 7 41z"/><path fill="#83888f" d="M79.5 62.5l23 8 1-44z"/><path fill="#dadad9" d="M142.5 60.5l-16-18-3 31z"/><path fill="#acaaa6" d="M160.5 18.5l-24 53 31 4z"/><path fill="#e9e7e5" d="M52.5 17.5l20 36 1-29z"/><path fill="#b0b9c9" d="M70.5 63.5l-13-1 6-17z"/><path fill="#f0f7ff" d="M180.5 46.5l1 17-5-10z"/><path fill="#c8c4c4" d="M168.5 39.5l-64 12 11-17z"/><path fill="#757472" d="M124.5 85.5l57-15-3 20z"/><path fill="#4a4541" d="M76.5 63.5l41 13-73 15z"/><path fill="#423b2f" d="M-15.5 53.5l45 1 27 55z"/><path fill="#9b9585" d="M10.5 2.5l-19 22 61-19z"/><path fill="#37332c" d="M143.5 91.5l68 8-97 16z"/><path fill="#9c9a9a" d="M159.5 39.5l56-28-114 19z"/><path fill="#7d7c79" d="M199.5 27.5l16 42-42-48z"/><path fill="#6a645e" d="M169.5-9.5l-72 25-68-15z"/><path fill="#7d7876" d="M71.5 22.5l79-18-66 39z"/><path fill="#d3cabf" d="M57.5 50.5l2-29-37 31z"/><path fill="#9f9b99" d="M153.5 52.5l17-11-41 6z"/><path fill="#9b9d9d" d="M215.5 80.5l-35-44 4 42z"/><path fill="#9b9ca2" d="M147.5 80.5l-21 2 4-18z"/><path fill="#b1a89a" d="M23.5 9.5l24 23 1-22z"/><path fill="#afaca5" d="M45.5 51.5l-39-30 10 31z"/><path fill="#6f6a6a" d="M57.5 89.5l-15-37h12z"/><path fill="#96948c" d="M18.5 50.5l-34 7 5-73z"/><path fill="#5b5145" d="M49.5 68.5l-11-14-37 2z"/><path fill="#99a6ba" d="M101.5 70.5l13 3-9-39z"/><path fill="#201a13" d="M46.5 99.5l-62 16 8-30z"/><path fill="#868b90" d="M175.5 58.5l-3-14 5-1z"/><path fill="#d3d6d8" d="M166.5 55.5l-1-11 10-3z"/><path fill="#bac8dd" d="M118.5 73.5l-8-2 6-27z"/><path fill="#fbfeff" d="M178.5 62.5l4 1-1-5z"/><path fill="#edeff1" d="M71.5 28.5l-19 16 22 1z"/><path fill="#817e7f" d="M131.5 7.5l34 3-23 16z"/><path fill="#747472" d="M184.5 78.5l-7 14-42-20z"/><path fill="#37302a" d="M133.5 115.5l-53-6-6-51z"/><path fill="#8c8d99" d="M54.5 63.5l13 2-6 6z"/><path fill="#86878a" d="M119.5 57.5l3-11 1 16z"/><path fill="#535052" d="M39.5 58.5l28 30-17 5z"/><path fill="#767572" d="M79.5 60.5l16 9-15-34z"/><path fill="#cbc8c7" d="M153.5 34.5l-38 8 11 10z"/><path fill="#dfd9d0" d="M74.5 32.5l-12-15-20 22z"/><path fill="#9d999a" d="M154.5 20.5l-61 29 11-20z"/><path fill="#5e5e57" d="M186.5 77.5l-20-1 7-4z"/><path fill="#b4bcc5" d="M162.5 74.5l-9-1 23-12z"/><path fill="#656365" d="M76.5 67.5l-7-5-14 23z"/><path fill="#70726c" d="M136.5 72.5l-10-1-1 3z"/><path fill="#857c73" d="M46.5 3.5l27 16-25-35z"/><path fill="#5b5f63" d="M178.5 93.5l22-5-42-2z"/><path fill="#2f2925" d="M72.5 91.5l-34 23 87-17z"/><path fill="#a2a9a9" d="M185.5 64.5l-12 7 23 9z"/><path fill="#6b6865" d="M190.5-5.5l-24 14-29-10z"/><path fill="#adb6c4" d="M130.5 80.5l14-3-14-3z"/><path fill="#b1acad" d="M123.5 30.5l-28 19 59-18z"/><path fill="#4d4a47" d="M79.5 51.5l-6 2 4-19z"/><path fill="#413f35" d="M182.5 79.5l28 3 5 11z"/><path fill="#ced2d7" d="M131.5 63.5l-7-15-1 30z"/><path fill="#d3dfec" d="M164.5 65.5l9-14 1 10z"/><path fill="#8e8e8b" d="M183.5 26.5l15 55 17-6z"/><path fill="#adaca7" d="M134.5 45.5l18-4-19 14z"/><path fill="#898887" d="M107.5 22.5l-24 23 55-26z"/><path fill="#8a8679" d="M21.5 1.5l-30 28-4-21z"/><path fill="#635f5d" d="M105.5 74.5l38 13-21-1z"/><path fill="#8c8b87" d="M160.5 36.5l15-11 20 13z"/><path fill="#b9b9b7" d="M142.5 57.5l-13 11 38 7z"/><path fill="#e3e4e3" d="M137.5 53.5l-9 2 10 7z"/><path fill="#363229" d="M34.5 78.5l-6 15-44-41z"/><path fill="#a19a8f" d="M37.5 3.5l24 10-63 3z"/><path fill="#838082" d="M140.5 84.5l13-6-29 3z"/><path fill="#dbd4c9" d="M72.5 51.5l-20-10-5 9z"/><path fill="#49433b" d="M75.5 62.5v15l51 7z"/><path fill="#979fa3" d="M205.5 7.5l-12 17-13-3z"/><path fill="#b1b2b0" d="M130.5 47.5l6 16-1-18z"/><path fill="#696460" d="M82.5 30.5l-26-46h79z"/><path fill="#878e95" d="M179.5 71.5l-3-12-1 11z"/><path fill="#737371" d="M144.5 76.5l40-1 11 14z"/><path fill="#73716c" d="M181.5 42.5l-7 4 3-3z"/></g></svg>