<svg xmlns="http://www.w3.org/2000/svg" viewBox="0 0 400 200"><path fill="#7f7d7a" d="M0 0h400v200H0z"/><path fill="#060000" fill-opacity=".5" d="M370.9 291L-19 208.3 2.6 107.4l389.7 82.8z"/><path fill="#fffff5" fill-opacity=".5" d="M29.8 103.7l1.3-73.5 115.6 2-1.3 73.5z"/><path fill="#d9dde4" fill-opacity=".5" d="M374.2 57.8v89H205.5v-89z"/><path fill="#b7b09f" fill-opacity=".5" d="M-22.7 11H96.1v95.3H-22.7z"/><path fill="#f7f5f0" fill-opacity=".5" d="M95.6 106.2l9.3-58.6 44.8 7-9.3 58.7z"/><path fill="#5d5550" fill-opacity=".5" d="M160 73.9l-42-62.2 83-55.9L242.9 18z"/><path fill="#211a0d" fill-opacity=".5" d="M-73 192.2l51.3-82.1L112 193.7 60.8 276z"/><path fill="#969a9b" fill-opacity=".5" d="M388.6 150.8L298 53.6l86.9-81 90.5 97.2z"/><path fill="#888c93" fill-opacity=".5" d="M86 126.1l36.7-23.8 27.2 42-36.7 23.7z"/><path fill="#38322a" fill-opacity=".5" d="M118.3 170l30.3-54.6 62.8 34.8-30.3 54.7z"/><path fill="#4f504d" fill-opacity=".5" d="M249.5 164.4l220.3-3.8 1 57.8-220.3 3.8z"/><path fill="#c5c5c5" fill-opacity=".5" d="M298.1 74L286 173.3l-41.8-5.1 12.2-99.3z"/><path fill="#dde7f1" fill-opacity=".5" d="M364.9 127.2L329 129l-1.7-32.7 35.9-2z"/><path fill="#514632" fill-opacity=".5" d="M-4 107.8H96v26.6H-4z"/><path fill="#9a9697" fill-opacity=".5" d="M182 70.7l121.8-44.4 9.6 26.5L191.5 97z"/><path fill="#49463f" fill-opacity=".5" d="M148 73l18.8-.7 2.3 65.6-18.7.7z"/><path fill="#a0aec4" fill-opacity=".5" d="M229.9 149.8l-45.3-12.1 12.1-45.3 45.3 12.1z"/><path fill="#7e7b77" fill-opacity=".5" d="M322 76.3l1.5-21.9 74.8 5.3-1.5 21.8z"/><path fill="#2f322b" fill-opacity=".5" d="M409.7 222.9l-31.2-2.2 4-57.7 31.2 2.2z"/><path fill="#dbdadd" fill-opacity=".5" d="M279.7 130.6l-27.4 6.3-11.6-50.3 27.4-6.3z"/><path fill="#5e5b58" fill-opacity=".5" d="M204.4 144.3l112.7 32.3-4.3 15L200 159.3z"/><path fill="#9ba4a5" fill-opacity=".5" d="M454.5 148.1l-9.7 29.8-104-33.8 9.7-29.8z"/><path fill="#433e2c" fill-opacity=".5" d="M60-12.7L62.2-.4-21 14.3-23.1 2z"/><path fill="#38322b" fill-opacity=".5" d="M269.7 188.1l-45.5 82-108-59.8 45.5-82z"/><path fill="#b4a99b" fill-opacity=".5" d="M132.4 19l.7 20.3L59.8 42 59 21.6z"/></svg>