<svg xmlns="http://www.w3.org/2000/svg" viewBox="0 0 400 200"><path fill="#7f7d7a" d="M0 0h400v200H0z"/><g transform="translate(.8 .8) scale(1.5625)" fill-opacity=".5"><ellipse fill="#040000" cx="41" cy="127" rx="136" ry="48"/><ellipse fill="#fffded" cx="54" cy="41" rx="43" ry="28"/><ellipse fill="#d7dce3" cx="180" cy="67" rx="60" ry="34"/><ellipse fill="#29251e" cx="179" cy="119" rx="255" ry="11"/><ellipse fill="#e4e6e8" cx="79" cy="57" rx="14" ry="36"/><ellipse fill="#4b463d" cx="36" cy="85" rx="81" ry="18"/><ellipse fill="#b1ab9c" cx="22" cy="36" rx="38" ry="33"/><ellipse fill="#615955" cx="115" rx="40" ry="39"/><ellipse fill="#9ba1a3" cx="244" cy="38" rx="26" ry="65"/><ellipse fill="#292114" cx="8" cy="107" rx="36" ry="38"/><ellipse fill="#6a6a69" cx="196" cy="105" rx="61" ry="11"/><ellipse fill="#878c98" cx="75" cy="86" rx="16" ry="18"/><ellipse fill="#dfdcdc" cx="168" cy="67" rx="12" ry="22"/><ellipse fill="#918f8f" cx="216" cy="33" rx="100" ry="16"/><ellipse fill="#d5dfe9" cx="220" cy="71" rx="13" ry="14"/><ellipse fill="#403d38" cx="97" cy="58" rx="4" ry="27"/><ellipse fill="#f7fbfc" cx="85" cy="54" rx="9" ry="15"/><ellipse fill="#868a94" cx="126" cy="64" rx="11" ry="29"/><ellipse fill="#312e29" cx="193" cy="127" rx="95" ry="8"/><ellipse fill="#9e9486" cx="54" cy="14" rx="35" ry="8"/><ellipse fill="#68625b" cx="117" rx="141" ry="9"/><ellipse fill="#95989a" cx="167" cy="98" rx="19" ry="8"/><ellipse fill="#575352" cx="75" cy="106" rx="18" ry="13"/><ellipse fill="#626265" cx="154" cy="91" rx="4" ry="28"/><ellipse fill="#1b1709" cx="255" cy="106" rx="14" ry="3"/></g></svg>