<svg xmlns="http://www.w3.org/2000/svg" viewBox="0 0 400 200"><path fill="#7f7d7a" d="M0 0h400v200H0z"/><g fill-opacity=".5"><path fill="#050000" d="M424.2 199.2l-440.6-96.9 7.8 122z"/><path fill="#cecfd1" d="M-24.2 69.5l403.1 97-6.2-131.3z"/><path fill="#f6efdf" d="M-24.2 33.6L144.5 121l-3-93.8z"/><path fill="#4e4944" d="M146 224.2l3.2-228.1 96.9-20.3z"/><path fill="#c1c8d2" d="M288.3 57l-104.7 72 95.3 42z"/><path fill="#585a58" d="M355.5 139.8l68.7 56.3-198.4-23.4z"/><path fill="#bab3a4" d="M71-24.2l33 128.1-128.2 3.1z"/><path fill="#848993" d="M125.8 166.4l-43.8-39 70.3-23.5z"/><path fill="#878889" d="M141.4 50.8l282.8 37.5V-2.3z"/><path fill="#201a0c" d="M105.5 191.4l-126.6-89L-.8 224.1z"/><path fill="#362f27" d="M175.8 224.2l56.2-68.7-95.3-40.7z"/><path fill="#b7babb" d="M424.2 86.7L180.5 74.2l206.2 84.4z"/><path fill="#f7f8f5" d="M97.7 43l46.8 64V47.7z"/><path fill="#564e41" d="M.8 107h96.9l31.2 75z"/><path fill="#32352f" d="M369.5 158.6l54.7 7.8-26.5 57.8z"/><path fill="#706a66" d="M402.3-13.3L93-3.9l76.5 75z"/><path fill="#a6a293" d="M-24.2 18v76.5l156.2-78z"/><path fill="#888c94" d="M227.3 13.3l-17.1 131.2-48.5-18.7z"/><path fill="#d9e5f3" d="M336.7 135.2l-9.4-43.8 37.5 14z"/><path fill="#6b6d6f" d="M249.2 172.7l-18.7-12.5 14-62.5z"/><path fill="#898d8d" d="M325.8 27.3L424.2 207 404-24.2z"/><path fill="#4e4b46" d="M155.5 63.3l11 89-37.6 15.7z"/><path fill="#474030" d="M-24.2 5.5L82 2.3 16.4-24.2z"/><path fill="#dcdbdc" d="M243 74.2l39 46.9-31.2 23.4z"/><path fill="#d8d3ca" d="M132 105.5l-3-72-90.7 67.3z"/></g></svg>