<svg xmlns="http://www.w3.org/2000/svg" viewBox="0 0 200 100"><path fill="#817e7b" d="M0 0h200v100H0z"/><g fill-opacity=".5"><path fill="#060000" d="M6.5 115.5l209-16-231-50z"/><path fill="#d4d5d7" d="M215.5 39.5l-78 46-153-71z"/><path fill="#ebe3d6" d="M66.5 5.5l8 51-90-12z"/><path fill="#4b4642" d="M72.5 115.5l51-131h-47z"/><path fill="#bdc0c5" d="M100.5 63.5l45-48 70 64z"/><path fill="#aea797" d="M-15.5 8.5l85-2-67 49z"/><path fill="#939496" d="M97.5 24.5l112 30 6-56z"/><path fill="#515350" d="M138.5 72.5l28 43 49-31z"/><path fill="#8b909c" d="M74.5 51.5l-32 13 22 19z"/><path fill="#201a0c" d="M-15.5 59.5l12 46 63-11z"/><path fill="#f7f6f5" d="M71.5 20.5l2 30h-32z"/><path fill="#6e6866" d="M26.5-15.5l189 6-134 39z"/><path fill="#3d3831" d="M69.5 115.5l75-31-72-22z"/><path fill="#595147" d="M48.5 52.5l19 42-53-40z"/><path fill="#828283" d="M135.5 91.5l-28-19 97 1z"/><path fill="#868a92" d="M113.5 4.5l-31 58 20 8z"/><path fill="#474542" d="M78.5 65.5l-15 17 15-49z"/><path fill="#e3e4e8" d="M124.5 74.5l15-16-14-16z"/><path fill="#e1effe" d="M165.5 42.5l2 27 8-9z"/><path fill="#8a8f8e" d="M203.5 86.5l-4-94-33 28z"/><path fill="#c1baaf" d="M34.5 3.5l-21 49 41-2z"/><path fill="#46402c" d="M50.5-5.5l-52 11v-15z"/><path fill="#343733" d="M193.5 81.5l-10 34 32-35z"/><path fill="#6e7384" d="M116.5 78.5l4-28 4 15z"/><path fill="#979690" d="M-14.5-15.5l1 72 39-7z"/><path fill="#e4dbcf" d="M69.5 20.5l-22-5 1 29z"/><path fill="#e6ecfa" d="M183.5 60.5l-6-15 2 19z"/><path fill="#302b24" d="M76.5 85.5l62 5-73 25z"/><path fill="#a8a4a1" d="M166.5 76.5l-3-35-28 4z"/><path fill="#443d30" d="M49.5 108.5l-11-55h-52z"/><path fill="#a1a8ba" d="M69.5 61.5l-12 9v-17z"/><path fill="#b8c5dd" d="M117.5 37.5l-10 31 11 7z"/><path fill="#878484" d="M98.5 16.5l-9 29 90-40z"/><path fill="#cdc8c8" d="M106.5 51.5l60-12-42-4z"/><path fill="#6b6e70" d="M160.5 89.5l37 4-24-26z"/><path fill="#b9b0a2" d="M11.5 15.5l40-6-4 21z"/><path fill="#f8fdff" d="M72.5 30.5l1 14-13-1z"/><path fill="#5b5856" d="M121.5 73.5l-20 1 36 26z"/><path fill="#69635e" d="M22.5 52.5l32 1 3 31z"/><path fill="#9a9c9b" d="M186.5 78.5l-8-45 37 48z"/><path fill="#9c9a9a" d="M163.5 36.5l-50-9 102-16z"/><path fill="#7f7e79" d="M169.5 21.5l41 7 5 37z"/><path fill="#b7b6b2" d="M167.5 74.5l-41-3 23-18z"/><path fill="#6b6560" d="M21.5-1.5l84 19 66-33z"/><path fill="#b1b9cb" d="M124.5 82.5l12-8 6 4z"/><path fill="#989283" d="M-15.5 25.5l24-23 50 2z"/><path fill="#6f6e71" d="M74.5 61.5l-4 18-20-11z"/><path fill="#3b3630" d="M61.5 82.5l154 17-73 16z"/><path fill="#413b36" d="M55.5 104.5l21-43 30 14z"/><path fill="#504e4e" d="M76.5 77.5l-43-7 18 23z"/><path fill="#d5dade" d="M174.5 41.5l-8 2v22z"/><path fill="#211b14" d="M-6.5 115.5l-9-32 81 20z"/><path fill="#9ea3ae" d="M108.5 72.5l-16-32 24-8z"/><path fill="#8c8e8c" d="M186.5 36.5l-13 15 4-44z"/><path fill="#867e7a" d="M76.5 19.5l7 22-25-38z"/><path fill="#a1a8ab" d="M193.5 66.5l-1 13-29-13z"/><path fill="#54514e" d="M180.5 93.5l-36-11-24 10z"/><path fill="#aba8a1" d="M39.5 51.5l-34-29 3 31z"/><path fill="#918f8a" d="M-12.5 62.5v-46l27 28z"/><path fill="#676663" d="M160.5 12.5l5-28h42z"/><path fill="#d5d5d7" d="M124.5 62.5l-2-20 19 23z"/><path fill="#727d8d" d="M174.5 51.5v12l4 1z"/><path fill="#949091" d="M152.5 46.5l2 8 14-13z"/><path fill="#87898e" d="M97.5 69.5l-12-4 20-37z"/><path fill="#3e3b36" d="M77.5 44.5l3 21-7-1z"/><path fill="#747370" d="M176.5 74.5l19 13-61-4z"/><path fill="#403f35" d="M186.5 79.5l29 5-13 7z"/><path fill="#7a7676" d="M111.5 6.5l52 2-90 27z"/><path fill="#6e6d69" d="M90.5 65.5l-8-28-4 25z"/><path fill="#4f4841" d="M48.5 79.5l1-14-44-11z"/><path fill="#d5cec5" d="M72.5 52.5h-25l-14-24z"/><path fill="#8f9192" d="M128.5 71.5l-6 11 17-12z"/><path fill="#37312a" d="M51.5 90.5l-26 3-41-47z"/><path fill="#8a8a91" d="M49.5 63.5l7-11 6 14z"/><path fill="#c0b8ac" d="M15.5 16.5l46-2-31 27z"/><path fill="#afa8a8" d="M105.5 42.5l18-15 35 6z"/><path fill="#6d6960" d="M143.5 74.5l25 7 13-7z"/><path fill="#85878e" d="M117.5 58.5l6 18-1-28z"/><path fill="#b3becf" d="M117.5 75.5l-11-6 11-19z"/><path fill="#b2b2b0" d="M164.5 49.5l-27 21 27 5z"/><path fill="#555859" d="M197.5 86.5l-27 6 23 4z"/><path fill="#e6e0dd" d="M70.5 23.5l1 16-13-20z"/><path fill="#c8c4c4" d="M127.5 53.5l18-18-32 6z"/><path fill="#999795" d="M215.5 63.5l-35-30 3 29z"/><path fill="#888783" d="M189.5 26.5l-36 11 41-1z"/><path fill="#959aa8" d="M71.5 60.5l-10 12-4-20z"/><path fill="#eae9e7" d="M135.5 56.5l3-3 1 11z"/><path fill="#a29b90" d="M41.5 5.5l-30 8 54 1z"/><path fill="#c3c3c4" d="M178.5 40.5l-13 4-3 9z"/><path fill="#b1b0ac" d="M135.5 56.5l-6-9 10-3z"/><path fill="#d8e2eb" d="M175.5 64.5l-9-8 6-8z"/><path fill="#a19ea4" d="M134.5 56.5v9l4 5z"/><path fill="#28201c" d="M118.5 95.5l-44 17-12-13z"/><path fill="#eef3fa" d="M180.5 53.5l-4 3 4-9z"/><path fill="#979fa2" d="M192.5 25.5l23-22-35 17z"/><path fill="#858285" d="M124.5 84.5l1-6 14 2z"/><path fill="#d7dadd" d="M124.5 74.5l-2 3 3-1z"/><path fill="#ebf0f3" d="M61.5 35.5l-4 14 15-5z"/><path fill="#82766d" d="M52.5 61.5l5-9h-18z"/><path fill="#b2aa9c" d="M47.5 34.5l-2-20h-13z"/></g></svg>