<svg xmlns="http://www.w3.org/2000/svg" viewBox="0 0 400 200"><path fill="#7f7d7a" d="M0 0h400v200H0z"/><ellipse fill="#080100" fill-opacity=".5" rx="1" ry="1" transform="matrix(376.77719 71.19279 -9.17986 48.58302 90.1 175.2)"/><ellipse fill="#fff8e8" fill-opacity=".5" rx="1" ry="1" transform="matrix(64.83776 19.57567 -12.97442 42.97336 84.6 60)"/><ellipse fill="#d7dbe3" fill-opacity=".5" rx="1" ry="1" transform="matrix(-92.87539 6.75596 -3.79204 -52.12982 283.8 105.7)"/><ellipse fill="#e3e7ec" fill-opacity=".5" rx="1" ry="1" transform="matrix(-19.448 -1.26277 3.42191 -52.70093 128 91.3)"/><ellipse fill="#b2ac9f" fill-opacity=".5" rx="1" ry="1" transform="matrix(52.41177 -28.1648 21.53408 40.0727 50 59.8)"/><ellipse fill="#2a2f2c" fill-opacity=".5" rx="1" ry="1" transform="matrix(-23.90805 35.82099 -20.10175 -13.41654 374.9 199.2)"/><ellipse fill="#5a5752" fill-opacity=".5" rx="1" ry="1" transform="rotate(-79.6 140 -3) scale(25.5177 78.24331)"/><ellipse fill="#1f180b" fill-opacity=".5" rx="1" ry="1" transform="matrix(-77.26636 -31.96025 20.43302 -49.39839 13.7 190)"/><ellipse fill="#5c5551" fill-opacity=".5" rx="1" ry="1" transform="rotate(-113.4 104 -67.8) scale(42.07438 77.87853)"/><ellipse fill="#b4bdc0" fill-opacity=".5" rx="1" ry="1" transform="matrix(63.53265 16.65688 -8.45353 32.24344 394.4 128.3)"/><ellipse fill="#959697" fill-opacity=".5" rx="1" ry="1" transform="matrix(.1366 -32.7831 159.32395 .66386 399.2 51.5)"/><ellipse fill="#727372" fill-opacity=".5" rx="1" ry="1" transform="matrix(78.71624 7.21688 -1.41986 15.48672 286.5 163.2)"/><ellipse fill="#cbcccc" fill-opacity=".5" rx="1" ry="1" transform="matrix(20.88166 1.28646 -2.80428 45.51886 266.8 124.7)"/><ellipse fill="#37312a" fill-opacity=".5" rx="1" ry="1" transform="matrix(13.92143 95.42794 -10.77659 1.57213 165.7 164)"/><ellipse fill="#827a6c" fill-opacity=".5" rx="1" ry="1" transform="matrix(1.03004 -23.59184 123.48125 5.3913 19.8 8.6)"/><ellipse fill="#efebe2" fill-opacity=".5" rx="1" ry="1" transform="matrix(-17.50402 -30.6881 20.6759 -11.79322 121.1 72)"/><ellipse fill="#868a94" fill-opacity=".5" rx="1" ry="1" transform="matrix(18.8061 -10.31943 12.4847 22.7521 117.4 132.7)"/><ellipse fill="#352e27" fill-opacity=".5" rx="1" ry="1" transform="rotate(-124.9 141.4 45.2) scale(52.86452 43.78397)"/><ellipse fill="#dbe5f1" fill-opacity=".5" rx="1" ry="1" transform="rotate(4 -1474.6 4921.3) scale(7.26299 30.70699)"/><ellipse fill="#82858c" fill-opacity=".5" rx="1" ry="1" transform="rotate(-102.6 136.2 -22.3) scale(34.22201 29.88355)"/><ellipse fill="#534832" fill-opacity=".5" rx="1" ry="1" transform="matrix(0 -9.39653 46.80116 0 44.9 116.5)"/><ellipse fill="#8a8e8e" fill-opacity=".5" rx="1" ry="1" transform="matrix(-34.56884 11.87249 -29.59596 -86.17385 395.2 85.7)"/><ellipse fill="#c9c4bc" fill-opacity=".5" rx="1" ry="1" transform="rotate(-7.9 668 -487.6) scale(44.18454 19.27087)"/><ellipse fill="#d4d0cf" fill-opacity=".5" rx="1" ry="1" transform="matrix(39.8824 -12.1386 2.374 7.8 259.8 86.2)"/><ellipse fill="#636462" fill-opacity=".5" rx="1" ry="1" transform="matrix(-40.0158 3.79434 -1.6821 -17.7398 339 168.1)"/></svg>