<svg xmlns="http://www.w3.org/2000/svg" viewBox="0 0 400 200"><path fill="#7f7d7a" d="M0 0h400v200H0z"/><g transform="translate(.8 .8) scale(1.5625)" fill-opacity=".5"><ellipse fill="#080100" rx="1" ry="1" transform="rotate(-170.5 39.8 55.4) scale(175.66799 35.38133)"/><ellipse fill="#fffff2" rx="1" ry="1" transform="matrix(38.84022 11.4005 -7.5623 25.7639 57.5 41.4)"/><ellipse fill="#d6dbe2" rx="1" ry="1" transform="matrix(62.59137 -2.851 1.46603 32.18536 184 68.7)"/><path fill="#34332f" d="M261 101l-159 24 155 18z"/><ellipse fill="#dbdbdc" cx="77" cy="59" rx="16" ry="35"/><ellipse fill="#b9b2a3" cx="24" cy="38" rx="37" ry="31"/><ellipse fill="#575450" cx="67" cy="86" rx="46" ry="19"/><ellipse fill="#2a2214" rx="1" ry="1" transform="rotate(-29.8 217 15.1) scale(32.55787 43.94318)"/><path fill="#5b5450" d="M64-9l42 45 114-52z"/><ellipse fill="#767777" rx="1" ry="1" transform="matrix(-50.05975 -6.5905 1.39194 -10.57282 193.5 105.3)"/><ellipse fill="#97999a" cx="255" cy="32" rx="101" ry="22"/><ellipse fill="#dcdada" rx="1" ry="1" transform="matrix(-11.88634 .59499 -1.11862 -22.34723 168.7 69.4)"/><path fill="#b4bec1" d="M199.2 83.7l9.3-24.2 80.3 30.8-9.3 24.2z"/><path fill="#37312a" d="M122 143L97 39l-9 85z"/><ellipse fill="#e5e7e6" rx="1" ry="1" transform="matrix(1.75786 -29.4494 10.10108 .60294 83.2 51.6)"/><ellipse fill="#9d9485" rx="1" ry="1" transform="rotate(93.6 14.9 27.5) scale(8.83327 46.70451)"/><path fill="#e0e8f3" d="M221.1 53L211 58.8l.5 28.7 11.7-6.3z"/><ellipse fill="#b2b7c1" rx="1" ry="1" transform="matrix(13.2214 -.72733 .23963 4.3559 169.6 101.5)"/><ellipse fill="#7c8088" rx="1" ry="1" transform="matrix(12.98032 12.10894 -11.56804 12.40049 76.6 82.8)"/><ellipse fill="#8a8e8e" cx="255" cy="42" rx="26" ry="62"/><path fill="#93959d" d="M161 25l-35 65-15-37z"/><path fill="#544d42" d="M-16 71.4l50.8 24.2L89.3 125l-41-58z"/><ellipse fill="#38342f" rx="1" ry="1" transform="rotate(-88.1 147 -24.3) scale(8.75882 113.84466)"/><path fill="#6c7076" d="M151 64h6v37h-6z"/><path fill="#453f2e" d="M48.7-2.2l-70 12.3-1.4-7.9 70-12.3z"/></g></svg>