<svg xmlns="http://www.w3.org/2000/svg" viewBox="0 0 128 64"><path fill="#817e7b" d="M0 0h128v64H0z"/><g fill-opacity=".5"><path fill="#050000" d="M135.5 63.5l-151-33 19 49z"/><path fill="#d5d7d9" d="M85.5 52.5l-101-43 159 16z"/><path fill="#4b4642" d="M50.5-15.5h30l-36 95z"/><path fill="#e8e0d2" d="M40.5 3.5l-56 30 65-1z"/><path fill="#bdbfc6" d="M95.5 7.5l32 40-65-5z"/><path fill="#aea998" d="M41.5 5.5l-57 41 24-44z"/><path fill="#939596" d="M132.5-2.5l-62 20 66 19z"/><path fill="#5b5d5e" d="M127.5 70.5l-72-26 72 6z"/><path fill="#8a8e97" d="M49.5 30.5l-9 21-13-8z"/><path fill="#231d0e" d="M32.5 60.5l-39 18v-48z"/><path fill="#352e27" d="M47.5 27.5l26 36-27 3z"/><path fill="#f6f7fa" d="M45.5 14.5l1 21-16-8z"/><path fill="#6e6964" d="M54.5 16.5l-47-27 133 4z"/><path fill="#8d929c" d="M51.5 39.5l20 7-1-38z"/><path fill="#504a3d" d="M-15.5 35.5l59 25-15-27z"/><path fill="#d1ced1" d="M75.5 26.5l13 29 1-30z"/><path fill="#313632" d="M122.5 51.5l21 3-38 23z"/><path fill="#8e9292" d="M119.5 50.5l24-1-30-65z"/><path fill="#d2cbc2" d="M39.5 11.5l-30-2 34 31z"/><path fill="#e0e8f1" d="M104.5 33.5l7-9-2 17z"/><path fill="#95989f" d="M81.5 55.5l13-4-19-14z"/><path fill="#939389" d="M11.5 33.5l-27-2 21-28z"/><path fill="#3f3d2b" d="M-15.5 5.5l30-6-16-13z"/><path fill="#e0e3e6" d="M80.5 44.5l11-11-12 3z"/><path fill="#b7c5db" d="M76.5 47.5l-4-20-4 17z"/><path fill="#575350" d="M40.5 54.5l11-12-1-24z"/><path fill="#a8a6a0" d="M104.5 26.5l-18 2 18 20z"/><path fill="#e8e7e3" d="M44.5 13.5l-11-2 8 23z"/><path fill="#7f7d79" d="M136.5 31.5l-28-9 35-15z"/><path fill="#b4aa9c" d="M29.5 21.5l-24-12 30-6z"/><path fill="#83807f" d="M65.5 6.5l55-4-68 25z"/><path fill="#787a83" d="M79.5 35.5l-2 9-1-14z"/><path fill="#38332c" d="M123.5 62.5l-104 17 28-27z"/><path fill="#54514f" d="M54.5 43.5l30 20 14-8z"/><path fill="#9da3a2" d="M143.5 56.5l-33-11 14-11z"/><path fill="#fbffff" d="M114.5 30.5v9l3 1z"/><path fill="#9b999a" d="M143.5 6.5l-38 17-33-6z"/><path fill="#ccc7c6" d="M85.5 22.5l22 3-42 6z"/><path fill="#949aa9" d="M46.5 32.5l-8 13-4-9z"/><path fill="#5f5b5b" d="M37.5 56.5l10-9-31-13z"/><path fill="#797777" d="M66.5 46.5l-15-8-2-24z"/><path fill="#adafb6" d="M77.5 44.5l11 5-6 3z"/><path fill="#6a6d6f" d="M111.5 59.5l13-4-14-11z"/><path fill="#3f3a36" d="M66.5 46.5l1 12-21-19z"/><path fill="#b5bbbd" d="M104.5 47.5l10-9-27 6z"/><path fill="#6d6863" d="M13.5-15.5l44 35 52-35z"/><path fill="#221c15" d="M42.5 67.5l-50 8-8-26z"/><path fill="#eff4f6" d="M46.5 29.5v-11l-9 8z"/><path fill="#7e7973" d="M83.5 45.5l19 10 10-5z"/><path fill="#3e3830" d="M-11.5 34.5h26l26 35z"/><path fill="#554e40" d="M21.5 34.5l12 12-34-11z"/><path fill="#8c8f97" d="M63.5 43.5l3-23-11 21z"/><path fill="#d1e4f7" d="M110.5 36.5v7l-4-4z"/><path fill="#c6c0b5" d="M32.5 33.5l-11-23-2 19z"/><path fill="#8e8f8e" d="M110.5 31.5v-27l10 20z"/><path fill="#989694" d="M93.5 31.5l8 1 6-6z"/><path fill="#7f7972" d="M61.5 20.5l-9 5-11-19z"/><path fill="#72737d" d="M75.5 47.5l4 6-1-12z"/><path fill="#9d9a93" d="M17.5 33.5h-33l14-25z"/><path fill="#959082" d="M6.5 1.5h29l-46 13z"/><path fill="#747067" d="M23.5 33.5l14 2-5 6z"/><path fill="#352f2a" d="M74.5 55.5l-44 4 71 18z"/><path fill="#d4d5da" d="M83.5 35.5l-4-5 1 18z"/><path fill="#6b6768" d="M91.5-15.5l30 12-17 10z"/><path fill="#828280" d="M140.5 49.5l-28-36 31 9z"/><path fill="#dbcfc1" d="M43.5 12.5l-13 12 2-14z"/><path fill="#514e4a" d="M51.5 30.5l-2-8-2 4z"/><path fill="#7a7b80" d="M89.5 50.5h-13l17 5z"/><path fill="#828691" d="M33.5 46.5l7-1 5-7z"/><path fill="#c0bfbf" d="M112.5 26.5l-4-1-7 6z"/><path fill="#727375" d="M106.5 52.5l16 8-12-18z"/><path fill="#686352" d="M32.5 2.5l-44-8 7-10z"/><path fill="#bcc0ca" d="M84.5 48.5v2l6-1z"/><path fill="#a2a4a7" d="M109.5 44.5l7-4 8 10z"/><path fill="#8a8d92" d="M141.5-1.5l-30 17-34-1z"/><path fill="#453f3a" d="M54.5 44.5l-7-9-3 31z"/><path fill="#72706c" d="M51.5 39.5l7 4-8-24z"/><path fill="#b8b3a7" d="M7.5 23.5l-2-12 34-2z"/><path fill="#acafbb" d="M67.5 44.5l7-17-6-2z"/><path fill="#565a5a" d="M128.5 61.5l-6-6-18 2z"/><path fill="#d9e0e9" d="M110.5 35.5l-6 4 6-9z"/><path fill="#dae4ee" d="M116.5 36.5l-3-2 1-5z"/><path fill="#8f979d" d="M112.5 33.5l-1 11 3-1z"/><path fill="#b4b0ac" d="M97.5 46.5v-21l-11 5z"/><path fill="#a0a4b2" d="M39.5 32.5l-3 7 6 1z"/><path fill="#aeaead" d="M84.5 42.5l20 5v-8z"/><path fill="#8f8c84" d="M-3.5-.5l-12 32 20 3z"/><path fill="#aba5a3" d="M92.5 17.5l14 7-36-3z"/><path fill="#34312b" d="M124.5 52.5l19-3v15z"/><path fill="#8f908b" d="M121.5 26.5l22 20-16 5z"/><path fill="#63605b" d="M104.5 56.5l-13-4 2 4z"/><path fill="#e2e0dd" d="M31.5 22.5l14-5-8 15z"/><path fill="#c4c2ce" d="M43.5 31.5l-6 1 9 1z"/><path fill="#4a4745" d="M44.5 64.5l-16-11 19-3z"/><path fill="#81786d" d="M31.5 3.5l11 4-16-23z"/><path fill="#d9cfc6" d="M29.5 31.5l6 1-4-17z"/><path fill="#c2c9d6" d="M72.5 38.5l3 9-1-18z"/><path fill="#7b7775" d="M60.5 20.5l-4-6 23-10z"/><path fill="#262e2e" d="M143.5 79.5h-34l34-36z"/><path fill="#999491" d="M57.5 26.5l36-10-19-2z"/></g></svg>