<svg xmlns="http://www.w3.org/2000/svg" viewBox="0 0 400 200"><path fill="#7f7d7a" d="M0 0h400v200H0z"/><g fill-opacity=".5"><path fill="#050000" d="M-4 224.2l428.2-26.5-437.5-93.8z"/><path fill="#d9d6d0" d="M424.2 132L50.8 4-18 102.2z"/><path fill="#c6cad1" d="M302.3 21l122 134.5-237.6-17.2z"/><path fill="#494541" d="M152.3-2.3l89.1-22-100 248.5z"/><path fill="#fffbf2" d="M144.5 38.3L52.3 75.8l95.4 34.4z"/><path fill="#a8a9ac" d="M174.2 71l92.2 109.5L424.2 3.9z"/><path fill="#67625a" d="M113.3 105.5l42.2 68.7L3.9 107z"/><path fill="#201a0c" d="M108.6 189.8L-18 224.2-19.5 107z"/><path fill="#4e504e" d="M410.2 160.2L228.9 168l195.3 43.7z"/><path fill="#373129" d="M322.7 224.2L144.5 107l-4.7 117.2z"/><path fill="#8a8c8d" d="M413.3 116.4L244.5 38.3l156.3-39z"/><path fill="#99a4b6" d="M99.2 127.3l28.1 23.5L147.7 96z"/><path fill="#75706f" d="M285.2-24.2L116.4-2.3l67.2 129.6z"/><path fill="#e2e2e5" d="M247.7 77.3l1.5 67.2 39-20.3z"/><path fill="#a29c8b" d="M-24.2 139.8L86.8 5.5l-83 6.2z"/><path fill="#d7e2ed" d="M366.4 100.8l-37.5-14 4.7 51.5z"/><path fill="#cdc4b4" d="M86.7 104L5.5 33.5h129.7z"/><path fill="#97a0af" d="M236.7 149.2l-67.2-18.7 36-86z"/><path fill="#8f9290" d="M424.2 157l-48.4 3.2L346 11.7z"/><path fill="#443c30" d="M83.6 107l18.7 100-126.5-96.8z"/><path fill="#6c6d6b" d="M389.8 182l-31.2-40.6-121.9 31.3z"/><path fill="#696561" d="M122.7 2.3l281.2-26.5L307 33.6z"/><path fill="#4f4c48" d="M161.7 141.4l-6.2-81.2-26.6 118.7z"/><path fill="#ecedeb" d="M144.5 52.3l-1.5 53.2-51.6-4.7z"/><path fill="#413c2b" d="M57-.8l-81.2 14L-.8-24.1z"/><path fill="#c2d1e7" d="M236.7 149.2l-3.1-54.7-18.8 50z"/><path fill="#c8c5c3" d="M247.7 66.4l107.8 17.2-140.7 15.6z"/><path fill="#33352c" d="M407 224.2l-32.8-65.6 50 12.5z"/><path fill="#69686c" d="M119.5 182l-29.7-56.2 57.9 4.7z"/><path fill="#534f4a" d="M241.4 150.8l-82.8-15.6 117.2 62.5z"/><path fill="#828282" d="M158.6 124.2l40.6 15.6 17.2-125z"/><path fill="#958d7f" d="M-24.2 27.3L147.7 29 57 2.3z"/><path fill="#99988f" d="M44.5 105.5l-28-90.7-40.7 93.8z"/><path fill="#898787" d="M357 43L302.3 8.6 175.8 63.3z"/><path fill="#73787d" d="M243 100.8l7.8 62.5-17.2-3.1z"/><path fill="#828c92" d="M346 121l3.2-29.6 11 57.8z"/><path fill="#e2dbd0" d="M107 102.3l28.2-60.9-36-7.8z"/><path fill="#9f9a95" d="M268 93l43.7 18.7 25-29.7z"/><path fill="#67615c" d="M146 49.2l-32.7-73.4L307-18z"/><path fill="#b9b9b5" d="M250.8 139.8l84.4 11-31.3-45.3z"/><path fill="#999b98" d="M364.8 139.8l59.4-18.7-59.4-45.3z"/><path fill="#b8b2a6" d="M71 105.5l43.8-86L-7 47.7z"/><path fill="#dae3ef" d="M332 133.6l11-48.4 6.2 43.7z"/><path fill="#a4adbc" d="M146 124.2l-32.7-14 1.5 18.7z"/><path fill="#686b6b" d="M399.2 179l-81.2 6.2 26.5-45.4z"/><path fill="#b1bbc2" d="M249.2 155.5l-3.1-14 46.9 18.7z"/><path fill="#ecf3f7" d="M355.5 97.7l6.2 29.6 1.6-23.4z"/><path fill="#312c26" d="M164.8 224.2l-59.3-36 175-14z"/><path fill="#5e574f" d="M119.5 183.6l-28-78.1h-47z"/><path fill="#1f1a11" d="M100.8 200.8L-18 169.5l28.2 42.2z"/><path fill="#3d362f" d="M199.2 147.7l-11 39-48.4-71.9z"/><path fill="#706558" d="M80.5-24.2l57.8 34.4L43 2.3z"/><path fill="#a39d9d" d="M325.8 49.2L188.3 96.1l39-43.8z"/><path fill="#615c50" d="M316.4 150.8l-39-3.1 20.3 9.3z"/><path fill="#cec8be" d="M88.3 102.3l-39-65.6 92.1 70.3z"/><path fill="#f1f6fa" d="M144.5 89.8l-32.8 1.6 36-26.6z"/><path fill="#2c2a24" d="M336.7 224.2l87.5-29.7-156.2 3.2z"/><path fill="#878987" d="M424.2 100.8l-43.7 18.7 43.7 90.7z"/><path fill="#7f7c77" d="M254 169.5l7.7-31.2-21.9 31.2z"/><path fill="#94928a" d="M11.7 16.4L24.2 107l-48.4-3z"/><path fill="#d8d6d6" d="M264.8 77.3l25 3.2-59.3 20.3z"/><path fill="#d9dee7" d="M254 114.8l-6.3 39.1 21.8-45.3z"/><path fill="#7d7f80" d="M146 125.8V107l-12.4 7.8z"/><path fill="#9ca5a6" d="M322.7 136.7l73.4 23.5-23.4-32.9z"/><path fill="#83817e" d="M424.2 69.5l-103.1 4.7 42.2-29.7z"/><path fill="#787268" d="M118 110.2l-57.8-4.7 48.4 21.8z"/><path fill="#f3f4f4" d="M354 99.2l9.3 3.1-4.7-9.3z"/><path fill="#7e8283" d="M346 97.7l4.8 10.9 3.1-23.4z"/><path fill="#757371" d="M179 54l-23.5 70.2 26.5 9.4z"/><path fill="#9aa2a5" d="M424.2 14.8l-36 34.4-29.6-7.8z"/><path fill="#aeb8c8" d="M229 74.2l-20.4 67.2 26.6 9.4z"/><path fill="#888a8f" d="M236.7 96l1.6 31.3 9.4-25z"/><path fill="#a8a39b" d="M157 64.8l-11 7.9v-22z"/><path fill="#777674" d="M347.7 133.6l26.5 42.2-61-6.3z"/><path fill="#7e7a79" d="M202.3 29l111-23.5L160.2 93z"/><path fill="#4c5251" d="M424.2 171l-26.5 22-51.6-7.8z"/><path fill="#b5b6b3" d="M325.8 74.2l37.5 7.8-23.5 14z"/><path fill="#878478" d="M19.5 4h64L-24.1 35.1z"/><path fill="#f7f8fe" d="M275.8 108.6l-3.1 9.4 3 7.8z"/><path fill="#b4afab" d="M244.5 102.3l70.3 12.5-34.3-28z"/><path fill="#5c574d" d="M329 155.5l32.7-4.7-25-3.1z"/><path fill="#514d49" d="M205.5 147.7l95.3 35.9-51.6 6.2z"/><path fill="#484440" d="M157 110.2L143 132l12.5-54.7z"/><path fill="#484643" d="M97.7 185.2l-20.4-32.9 78.2 22z"/><path fill="#89897f" d="M283.6 141.4L255.5 154l-4.7-7.8z"/><path fill="#949aa3" d="M122.7 102.3v34.4l-12.5-7.8z"/><path fill="#b1a997" d="M93 47.7L66.4 27.3 93 69.5z"/><path fill="#929baa" d="M202.3 74.2l18.8 71.9-28.1-12.5z"/><path fill="#37312b" d="M-21 94.5l60.8 86 86 17.2z"/><path fill="#b1b2b0" d="M332 144.5l-3-40.6-72 37.5z"/><path fill="#858c90" d="M360.2 4l-61 39 125-18.8z"/><path fill="#9d9e9d" d="M372.7 157l-11-84.3 32.8 35.9z"/><path fill="#aeb8c4" d="M285.2 158.6h-31.3l17.2-11z"/><path fill="#a8a59c" d="M5.5 60.2l42.2 45.3L33.6 18z"/><path fill="#a59d92" d="M127.3 27.3l-93.7 3.2 57.8-18.8z"/><path fill="#a4a5ad" d="M268 129l1.5-20.4 4.7 25z"/><path fill="#d8d8dc" d="M266.4 111.7l-28.1-21.9L268 132z"/><path fill="#403c36" d="M111.7 213.3l51.6-82.8 43.7 14z"/><path fill="#8a817a" d="M164.8 69.5L138.3 18l-15.6 6.2z"/><path fill="#84817c" d="M297.7 152.3L264.8 168l57.9-4.7z"/></g></svg>