<svg xmlns="http://www.w3.org/2000/svg" viewBox="0 0 400 200"><path fill="#7f7d7a" d="M0 0h400v200H0z"/><g transform="translate(.8 .8) scale(1.5625)" fill-opacity=".5"><ellipse fill="#090200" rx="1" ry="1" transform="matrix(-7.22646 40.5691 -251.0483 -44.71851 54.4 120)"/><ellipse fill="#fef7e7" rx="1" ry="1" transform="matrix(-46.6559 -6.01256 3.53105 -27.40004 48.6 41.5)"/><ellipse fill="#d9dde5" rx="1" ry="1" transform="rotate(85.8 53 131.3) scale(33.52429 56.52677)"/><ellipse fill="#e1e5e8" cx="80" cy="57" rx="13" ry="39"/><ellipse fill="#54514d" rx="1" ry="1" transform="rotate(13.9 -323.6 374.5) scale(52.19971 18.13292)"/><ellipse fill="#2e3332" rx="1" ry="1" transform="matrix(.43984 16.79691 -23.09087 .60466 245.4 119.7)"/><ellipse fill="#1e180b" rx="1" ry="1" transform="matrix(-15.96368 20.45582 -38.94855 -30.39536 22 120.4)"/><ellipse fill="#b3bbbd" rx="1" ry="1" transform="matrix(18.96794 24.53036 -16.18704 12.51653 235 72.8)"/><ellipse fill="#797976" cx="176" cy="102" rx="37" ry="11"/><ellipse fill="#5a534e" rx="1" ry="1" transform="rotate(-22.5 60.4 -302.9) scale(38.29791 30.23625)"/><ellipse fill="#a6a192" rx="1" ry="1" transform="rotate(-31.5 74 -13.4) scale(49.0357 26.26308)"/><ellipse fill="#9d9ea0" rx="1" ry="1" transform="matrix(-96.94283 19.37109 -2.9782 -14.90448 225 26.7)"/><path fill="#d0cfd0" d="M158 46h22v59h-22z"/><path fill="#2f2821" d="M89 143l8-72 81 72z"/><path fill="#f0ebe3" d="M64 28h30v36H64z"/><path fill="#8d929e" d="M57.7 81.5l13.9 20.8 20.2-32.4-20.7-.9z"/><path fill="#3e3c35" d="M100.2 87.3l-8-.7 3.6-41.9 8 .7z"/><path fill="#e2edfa" d="M214 88l-4-31 15 14z"/><path fill="#8a8f9a" d="M111 79l-8.3.8 34 15.7-.5-77.2z"/><path fill="#6a6b6b" d="M246.3 122.4l-85.2-12 2.6-18.8 85.2 12z"/><path fill="#443c2c" d="M4 69h39v30H4z"/><path fill="#8c8c8a" d="M256.8 75.2l-71-41 13.4-23.4 71 41z"/><ellipse fill="#655f57" cx="53" rx="186" ry="6"/><ellipse fill="#6b6e73" cx="154" cy="85" rx="4" ry="22"/><ellipse fill="#cac1b4" rx="1" ry="1" transform="matrix(-21.51657 17.08405 -10.3101 -12.9851 57 33.8)"/></g></svg>