<svg xmlns="http://www.w3.org/2000/svg" viewBox="0 0 256 128"><path fill="#807e7b" d="M0 0h256v128H0z"/><g fill-opacity=".5"><path fill="#060000" d="M-3.5 67.5l272 59-284 17z"/><path fill="#d5d6d8" d="M177.5 110.5l-193-89 287 29z"/><path fill="#ede6d7" d="M82.5 5.5l14 64-112-9z"/><path fill="#4c4743" d="M92.5 143.5l4-159 60 1z"/><path fill="#bcbfc3" d="M271.5 101.5l-85-87-62 65z"/><path fill="#b1aa99" d="M6.5 5.5l-22 75 103-69z"/><path fill="#595a58" d="M98.5 89.5l173 10-28 38z"/><path fill="#919396" d="M262.5.5l-95 20 104 73z"/><path fill="#8f96a1" d="M54.5 82.5l39-19-11 43z"/><path fill="#211a0c" d="M66.5 121.5l-82-54 22 76z"/><path fill="#756f6d" d="M135.5 45.5l-124-61 228 14z"/><path fill="#f9f9f9" d="M60.5 61.5l35 1-5-39z"/><path fill="#564e42" d="M1.5 69.5l57-2 36 52z"/><path fill="#352f27" d="M93.5 61.5l71 71-69 4z"/><path fill="#979fae" d="M183.5 106.5l-54-66-26 41z"/><path fill="#e5e4e6" d="M176.5 73.5l-17-25-1 50z"/><path fill="#919191" d="M271.5 59.5l-164-27 149-27z"/><path fill="#dae6f6" d="M213.5 58.5l20 22-24 3z"/><path fill="#2f312d" d="M243.5 104.5l28-1-27 38z"/><path fill="#d1c9bb" d="M18.5 18.5l70 4-25 46z"/><path fill="#9e9d96" d="M-11.5 69.5l-1-71 54 68z"/><path fill="#5a5754" d="M75.5 117.5l23-68 18 26z"/><path fill="#403c29" d="M-11.5 8.5l59-12-37-12z"/><path fill="#858486" d="M127.5 88.5l14-75-40 61z"/><path fill="#c1cde0" d="M151.5 95.5l-2-46-14 41z"/><path fill="#8f9290" d="M271.5 104.5l-35-120v116z"/><path fill="#6c6761" d="M107.5 42.5l94-58-152 2z"/><path fill="#adb1b7" d="M172.5 90.5l-16 18 25-8z"/><path fill="#a7a4a0" d="M210.5 54.5l-35 4 37 42z"/><path fill="#faffff" d="M225.5 61.5l5-2v14z"/><path fill="#7d858e" d="M226.5 56.5l-1 26-4-14z"/><path fill="#b1bac7" d="M93.5 65.5l-21-2 3 25z"/><path fill="#6e6e72" d="M154.5 61.5l4 28-10 19z"/><path fill="#b4ada0" d="M58.5 46.5l-49-25 56-14z"/><path fill="#d1cccc" d="M177.5 46.5l1 39-29-30z"/><path fill="#423b30" d="M69.5 143.5l-29-74-56-1z"/><path fill="#727070" d="M161.5 110.5l63-21 31 27z"/><path fill="#7d7c78" d="M225.5 37.5l28 26 18-38z"/><path fill="#e3dfd8" d="M96.5 40.5l-34 13 9-34z"/><path fill="#bfbab2" d="M60.5 67.5l-42-1 23-44z"/><path fill="#433c36" d="M94.5 112.5l1-34 41 16z"/><path fill="#35322c" d="M193.5 117.5l70 10-132 16z"/><path fill="#5d5a5c" d="M87.5 98.5l-18 20-27-50z"/><path fill="#b4b5b3" d="M213.5 96.5l-44-6 40-28z"/><path fill="#a6a0a0" d="M147.5 31.5l-29 25 99-19z"/><path fill="#d4dbe1" d="M221.5 51.5l-13 9 15 27z"/><path fill="#9fa3a6" d="M232.5 64.5l25 39-22-4z"/><path fill="#97948d" d="M-14.5-15.5l2 85 38-2z"/><path fill="#2f2a23" d="M117.5 137.5l-63-19 110 2z"/><path fill="#ebeff7" d="M233.5 83.5l-2-21-3 14z"/><path fill="#201b14" d="M-15.5 106.5l76 21-45 16z"/><path fill="#ecedef" d="M91.5 63.5v-19l-25 21z"/><path fill="#797b80" d="M72.5 94.5l-13-18 32 12z"/><path fill="#a29f9c" d="M214.5 53.5l-50 8 38 9z"/><path fill="#959082" d="M12.5 2.5l-26 27 89-23z"/><path fill="#45403c" d="M96.5 45.5l2 20 3-17z"/><path fill="#838082" d="M129.5 15.5l98-5-113 39z"/><path fill="#847e78" d="M113.5 36.5l5 31-47-64z"/><path fill="#716e6d" d="M134.5 93.5l26 15 29-1z"/><path fill="#828076" d="M160.5 91.5h18l-17 6z"/><path fill="#9fa3a8" d="M246.5 31.5l20-18-41 13z"/><path fill="#736f6c" d="M213.5 97.5l-35-3 52 25z"/><path fill="#b3b9c2" d="M188.5 101.5l-29-1 15-5z"/><path fill="#5d5345" d="M9.5 71.5l39-2 12 23z"/><path fill="#797571" d="M118.5 68.5l-18 13 1-42z"/><path fill="#515657" d="M249.5 124.5l3-12-40 2z"/><path fill="#c5c1c2" d="M152.5 46.5l-18 20 79-16z"/><path fill="#7a756e" d="M59.5 66.5l16 1-8 22z"/><path fill="#d7d0c7" d="M93.5 66.5l-49-29 20 29z"/><path fill="#d3dae7" d="M226.5 59.5l6 17-7-6z"/><path fill="#696563" d="M219.5 7.5l-62-7 98-16z"/><path fill="#8b8a90" d="M156.5 62.5l2 18-8-16z"/><path fill="#a7b0c1" d="M92.5 78.5l-8-3-2 6z"/><path fill="#423e36" d="M235.5 100.5l36 22-17-18z"/><path fill="#afaba0" d="M3.5 35.5l23-22 2 52z"/><path fill="#f6faff" d="M173.5 69.5l4-1-1 14z"/><path fill="#aba8a6" d="M175.5 55.5l36 7-44 7z"/><path fill="#ebe7e2" d="M78.5 23.5l16 28-5-22z"/><path fill="#39342f" d="M93.5 83.5l6-22v18z"/><path fill="#6a645c" d="M22.5 1.5l72-17 70 22z"/><path fill="#a59d94" d="M56.5 6.5l-38 9 73 8z"/><path fill="#feffff" d="M172.5 80.5l-5-8 2-3z"/><path fill="#81807f" d="M223.5 108.5l-30-6 42-3z"/><path fill="#5d5650" d="M164.5 114.5l-12-19-16 1z"/><path fill="#969595" d="M129.5 39.5l50-14-60 36z"/><path fill="#7c7f84" d="M124.5 70.5l-19 12 13 5z"/><path fill="#75767a" d="M233.5 59.5h-13l8-4z"/><path fill="#888679" d="M5.5 5.5l37-4-58 24z"/><path fill="#94979b" d="M231.5 94.5l-7-19-4 17z"/><path fill="#989795" d="M269.5 97.5l-40-63 5 46z"/><path fill="#cfd8e9" d="M214.5 88.5l9-7-13-17z"/><path fill="#cdcaca" d="M160.5 68.5l-7-9 39-15z"/><path fill="#fefdff" d="M162.5 73.5l2-3v9z"/><path fill="#878886" d="M198.5 60.5l6-4-7 13z"/><path fill="#f3f8ff" d="M78.5 44.5v14l15-2z"/><path fill="#44413d" d="M90.5 127.5l-30-11 41-23z"/><path fill="#474039" d="M99.5 79.5l56 29-57-9z"/><path fill="#96a0b0" d="M141.5 93.5l-13-7 5-33z"/><path fill="#b3aeac" d="M186.5 38.5l-38 9 54 3z"/><path fill="#5d5855" d="M186.5 105.5l-28 9 48-2z"/></g></svg>