<svg xmlns="http://www.w3.org/2000/svg" viewBox="0 0 400 200"><path fill="#7f7d7a" d="M0 0h400v200H0z"/><g stroke-opacity=".5" fill="none" stroke-width=".8"><path stroke="#000" d="M424.2 199.9q-206.9-1.1-440.2-.5m9-4.8q280.4-.8 423.8.4m7.4-3.6q-224.4.4-442.8.3m-3-4q278.2 1.4 445.8.6m-448.4 9.1q372.3-.2 430.6 1.3"/><path stroke="#040000" d="M424.2 183.8Q21.7 198.8-.7 141.7"/><path stroke="#050000" d="M-24.2 180.8q413.7-1.5 447 4"/><path stroke="#000" d="M-10 188.6q4.4-7 350-4.4"/><path stroke="#010000" d="M422 201.6Q26.5 145.9-16.5 198"/><path stroke="#000" d="M3.3 110.3q13.6 113.9 421 83.9m-73.8-5.8Q16 217-.9 136.4"/><path stroke="#0b0600" d="M424.2 204.3Q300.1 167-24.2 169.4"/><path stroke="#030000" d="M411.1 188.5q-395 35.7-408.4-43.7"/><path stroke="#edeeed" d="M19.4 37.7q6 37.6 358.7 92.7"/><path stroke="#060000" d="M-14.3 218.5q68.1-112.4 361.1-9"/><path stroke="#eaecec" d="M366.6 92Q344.1 172.3-9.8 41.1"/><path stroke="#0b0500" d="M-24.2 153.4q29.5 52 426 32.7"/><path stroke="#0d0701" d="M396.7 199.1q-22 6.4-398.4-61.7"/><path stroke="#e4e5e3" d="M414.5 130.7Q9.4 78 18.1 23.2"/><path stroke="#e7e9eb" d="M363.9 117.4Q349.8 162.3 11.6 55"/><path stroke="#0c0400" d="M327 176.1Q1 194.5-3.9 108.3"/><path stroke="#020000" d="M380.6 200.9q-361.2-5-390-82.5"/><path stroke="#0f0802" d="M-2.2 200.1q12.4-82.4 310.1-13"/><path stroke="#e8e8e6" d="M21.7 41.6q84.3 40 359.8 78"/><path stroke="#0e0700" d="M-24.2 85.7Q45.4 189 340.2 182.9"/></g></svg>