<svg xmlns="http://www.w3.org/2000/svg" viewBox="0 0 800 400"><path fill="#7f7d7a" d="M0 0h800v400H0z"/><g fill-opacity=".5"><path fill="#040000" d="M842.2 395.3L-36 448.4-8 211z"/><path fill="#cfd0d1" d="M751.6 332.8l-800-203.1 793.7-56.3z"/><path fill="#f1ebdb" d="M279.7 257.8L-48.4 64.1l343.7-3.2z"/><path fill="#4d4743" d="M292.2 448.4l6.2-496.8H486z"/><path fill="#bac2ca" d="M332.8 239l196.9 97 318.7-156.3z"/><path fill="#585a57" d="M707.8 279.7l140.6 106.2-409.3-37.5z"/><path fill="#bab4a4" d="M-48.4 217.2l253-12.5-56.2-253.1z"/><path fill="#656360" d="M242.2 342.2L29.7 210.9l387.5 6.3z"/><path fill="#848485" d="M848.4 7.8L226.6 67.2l603 112.5z"/><path fill="#201a09" d="M-23.4 220.3l21.8 228.1 209.4-65.6z"/><path fill="#e0e1e0" d="M242.2 295.3l62.5-168.7L195.3 20.3z"/><path fill="#362f26" d="M292.2 448.4l9.4-196.8 203 65.6z"/><path fill="#dedddd" d="M601.6 145.3l-109.4 9.4 6.2 143.7z"/><path fill="#949998" d="M848.4 311L729.7-48.5 723.4 314z"/><path fill="#706b65" d="M-48.4-36l828 15.7-340.5 140.6z"/><path fill="#a7a293" d="M-48.4 20.3l321.8 21.9L-48.4 189z"/><path fill="#2c3027" d="M848.4 332.8l-56.2 115.6-37.5-128z"/><path fill="#8b919b" d="M432.8 51.6l-9.4 234.3-90.6-31.2z"/><path fill="#e4eff8" d="M698.4 267.2l-46.8-40.6 34.3-65.7z"/><path fill="#443c2e" d="M192.2 429.7L-48.4 217.2l225-3.1z"/><path fill="#7e838a" d="M248.4 314l34.4-96.8-128.1-9.4z"/><path fill="#848381" d="M411 304.7l256.2-12.5-121.9 59.4z"/><path fill="#c3bdb3" d="M48.4 204.7L192.2 14l3.1 193.7z"/><path fill="#423e37" d="M326.6 198.4l-28.2-81.2-6.2 181.2z"/><path fill="#b5c1d5" d="M404.7 257.8l56.2 43.8L489.1 139z"/><path fill="#707378" d="M498.4 248.4L467.2 336l9.4-140.6z"/><path fill="#8b8e8f" d="M836-1.6l-381.3 75L764 154.7z"/><path fill="#f6fbfe" d="M226.6 161l62.5-40.7v81.3z"/><path fill="#443f2d" d="M4.7-48.4l-18.8 68.7 231.3-40.6z"/><path fill="#686360" d="M592.2-7.8l-359.4-25 62.5 140.6z"/><path fill="#6e6e6a" d="M704.7 376.6l37.5-68.8-190.6-15.6z"/><path fill="#adaaa6" d="M661 301.6L529.6 195.3l122-106.2z"/><path fill="#2f2921" d="M445.3 348.4l140.6 100-403-75z"/><path fill="#e8eef3" d="M723.4 189l-15.6 47 21.9 31.2z"/><path fill="#9ca3a4" d="M648.4 276.6L779.7 314l25-78.2z"/><path fill="#8f8d83" d="M70.3 17.2L-48.4 345.3V36z"/><path fill="#4c4741" d="M470.3 364L307.8 264l175 40.7z"/><path fill="#b7c2ce" d="M539 292.2l-31.2 18.7 71.9 9.4z"/><path fill="#817f7b" d="M848.4 264l-40.6-153-134.4-31.3z"/><path fill="#888686" d="M401.6 89l196.8-31.2-284.3 150z"/><path fill="#c5c4c6" d="M657.8 157.8l-231.2 56.3 28-62.5z"/><path fill="#d7d9db" d="M576.6 261h-78.2l-9.3-84.4z"/><path fill="#e3dacd" d="M286 92.2l-97 118.7V86z"/><path fill="#69696b" d="M161 245.3l131.2 31.3-46.9 53z"/><path fill="#9caabd" d="M279.7 254.7l-62.5-3.1 59.4-34.4z"/><path fill="#6a6c6b" d="M801.6 361l-103.2-78.2-109.3 68.8z"/><path fill="#bcb5a7" d="M82.8 64L286 51.7 73.4 164z"/><path fill="#1e1b12" d="M-48.4 336v96.8l243.7-34.4z"/><path fill="#413c37" d="M232.8 448.4l150-159.3-87.5-53.2z"/><path fill="#706756" d="M236 207.8l-106.3 9.4 40.6 53.1z"/><path fill="#979793" d="M742.2 282.8L714 129.7l134.3 100z"/><path fill="#979183" d="M-7.8 76.6l237.5-53.2L76.6 4.7z"/><path fill="#9ca3a5" d="M829.7 36l-56.3 65.6-62.5-22z"/><path fill="#b0aeab" d="M573.4 92.2l97 209.4-93.8-9.4z"/><path fill="#d5dfea" d="M657.8 170.3l9.4 100 28.1-28.1z"/><path fill="#7b8991" d="M701.6 176.6l-9.4 40.6 18.7 43.7z"/><path fill="#98a1af" d="M429.7 292.2L448.4 164 386 235.9z"/><path fill="#767370" d="M382.8 264l-65.6-15.6-9.4-190.6z"/><path fill="#b9c7d7" d="M467.2 204.7l6.2 100-34.3-40.6z"/><path fill="#8b837d" d="M298.4 126.6l28.2-6.3L257.8 36z"/><path fill="#6e6e6b" d="M489 286l-25 15.6 37.6 28z"/><path fill="#6b6864" d="M629.7 57.8l9.4-100 93.7 37.5z"/><path fill="#514f4c" d="M248.4 373.4l75-84.3-190.6 18.7z"/><path fill="#a09d9c" d="M523.4 186L661 170.2l-40.6 46.9z"/><path fill="#3d382b" d="M848.4 364l-9.3-34.3-106.3-12.5z"/><path fill="#e2ecf1" d="M704.7 195.3l6.2 28.1 6.3-37.5z"/><path fill="#a2a099" d="M104.7 154.7l-134.4-100L54.7 214z"/><path fill="#4a4f4d" d="M817.2 348.4l-153.1 25 184.3 18.8z"/><path fill="#e6e4de" d="M289 107.8l-28-31.2-43.8 128z"/><path fill="#686153" d="M161 4.7L51.5 7.8l109.3-56.2z"/><path fill="#767263" d="M526.6 282.8l-31.3 12.5 53.1-6.2z"/><path fill="#c8c3ba" d="M114 201.6l118.8 6.2L114.1 73.4z"/><path fill="#8c9098" d="M357.8 267.2l46.9 12.5 3.1-162.5z"/><path fill="#76746c" d="M742.2 304.7l-193.8-9.4 122 56.3z"/><path fill="#b3acac" d="M554.7 111l65.6 28-190.6 28.2z"/><path fill="#838381" d="M745.3 92.2l53.1 37.5-100 59.4z"/><path fill="#afbbc9" d="M257.8 223.4l28.1-6.2-68.7-18.8z"/><path fill="#979e9f" d="M829.7 292.2L660.9 289l40.7-37.5z"/><path fill="#7b7878" d="M667.2 23.4L357.8 129.7l93.8-103.1z"/><path fill="#bcbfbc" d="M676.6 164l-34.4 43.8 84.4-46.9z"/><path fill="#79716a" d="M117.2-45.3l240.6 175L223.4-48.4z"/><path fill="#ecefed" d="M542.2 242.2l9.4-34.4 3 56.3z"/><path fill="#b0a898" d="M186 129.7L95.2 42.2l109.4 3.1z"/><path fill="#9fa2a2" d="M736 311l53 9.3L736 161z"/><path fill="#c0c2c1" d="M607.8 179.7L561 157.8l134.4-6.2z"/><path fill="#919090" d="M551.6 82.8l175-43.7 3 134.3z"/><path fill="#605a58" d="M501.6 342.2l109.3-9.4-59.3 28.1z"/><path fill="#332e29" d="M82.8 367.2L45.3 251.6l143.8 103z"/><path fill="#2a271e" d="M789 398.4l-256.2-6.2 75 56.2z"/><path fill="#989c9d" d="M539 236l9.4 40.6-12.5-15.7z"/><path fill="#b4b1a9" d="M64 189l115.7 22L76.6 67.1z"/><path fill="#37312b" d="M517.2 351.6l-240.6-15.7 128 72z"/><path fill="#58574b" d="M704.7 295.3l28.1 15.6-65.6-9.3z"/><path fill="#ded8cd" d="M286 201.6l-125-68.8 43.7 71.9z"/><path fill="#767879" d="M601.6 323.4l146.8 18.8-9.3-37.5z"/><path fill="#c8d3dd" d="M514 254.7l-18.7 62.5v-65.6z"/><path fill="#ccdaea" d="M695.3 254.7l-3.1-43.8-18.8 62.5z"/><path fill="#a09d9c" d="M692.2 167.2l-215.6-50 168.7-25z"/><path fill="#524a39" d="M64 261l106.3-18.8-146.9-25z"/><path fill="#b1b3b0" d="M654.7 204.7l-150 75 165.6 18.7z"/></g></svg>