<svg xmlns="http://www.w3.org/2000/svg" viewBox="0 0 256 128"><path fill="#807e7b" d="M0 0h256v128H0z"/><g fill-opacity=".5"><path fill="#060000" d="M-11.5 65.5l10 78 270-17z"/><path fill="#dcd8d3" d="M-15.5 63.5l50-60 230 84z"/><path fill="#c9cdd5" d="M188.5 14.5l83 82-151-6z"/><path fill="#4c4744" d="M96.5-9.5l-4 144 65-150z"/><path fill="#fffcf3" d="M91.5 24.5l1 46-60-22z"/><path fill="#6c6a69" d="M78.5 112.5l27-43-86-3z"/><path fill="#aaaaac" d="M166.5 115.5l105-106-152 23z"/><path fill="#4d4e4d" d="M271.5 101.5v36l-133-29z"/><path fill="#211a0c" d="M-15.5 67.5l83 54-69 22z"/><path fill="#373027" d="M90.5 143.5l63-44-58-21z"/><path fill="#bec0c3" d="M137.5 97.5l134-36-125-22z"/><path fill="#858383" d="M221.5 10.5l-135 15 185 31z"/><path fill="#a9b5c7" d="M78.5 97.5l-10-19 25-19z"/><path fill="#a29d8b" d="M2.5 71.5l49-70-66 11z"/><path fill="#473f31" d="M58.5 69.5l-74-1 76 61z"/><path fill="#cbc2b2" d="M52.5 66.5l-49-46 77 2z"/><path fill="#8d908f" d="M271.5 109.5l-40-125 3 110z"/><path fill="#858992" d="M146.5 9.5l-43 72 25 8z"/><path fill="#6f6966" d="M70.5-8.5l29 54 148-49z"/><path fill="#686a6e" d="M147.5 110.5l8-46 4 44z"/><path fill="#eee" d="M94.5 32.5l-1 33h-37z"/><path fill="#3d3a37" d="M90.5 75.5l10-33-1 41z"/><path fill="#dfdfe4" d="M158.5 99.5l19-26-19-19z"/><path fill="#6c6a6a" d="M163.5 113.5l87 6-25-30z"/><path fill="#e2eefb" d="M212.5 88.5l11-19-12-13z"/><path fill="#413c29" d="M-15.5-15.5l84 9-78 14z"/><path fill="#a6a39e" d="M170.5 58.5l39-4 3 44z"/><path fill="#353732" d="M243.5 143.5l28-36-28-5z"/><path fill="#9b9284" d="M1.5 17.5l94 1-55-16z"/><path fill="#2f2a23" d="M163.5 143.5l-105-22 95-12z"/><path fill="#4d4742" d="M157.5 120.5l-9-24-56-15z"/><path fill="#9c9a92" d="M10.5 11.5l-26 58 45-2z"/><path fill="#e8effa" d="M230.5 59.5l5 27-10-18z"/><path fill="#e5e3df" d="M60.5 23.5l25 2 8 46z"/><path fill="#726d68" d="M82.5 104.5l-45-36 34-1z"/><path fill="#979b9d" d="M245.5 102.5l-29-17 55-16z"/><path fill="#8c9194" d="M229.5 60.5l42-67-60 19z"/><path fill="#898687" d="M111.5 63.5l98-54-77 9z"/><path fill="#bcb6aa" d="M10.5 41.5l63-29-28 55z"/><path fill="#b7b8b6" d="M211.5 96.5v-36l-50 29z"/><path fill="#a8a2a2" d="M117.5 56.5l39-25 54 7z"/><path fill="#a2b1ca" d="M145.5 57.5l-25 26 31 13z"/><path fill="#b0b9c6" d="M171.5 92.5l14 10-23-1z"/><path fill="#848b93" d="M225.5 80.5l2-29-6 9z"/><path fill="#6b625a" d="M25.5 1.5l81-17 30 26z"/><path fill="#d8d2d2" d="M143.5 64.5l20-16 29 2z"/><path fill="#a7afbc" d="M77.5 62.5l13 17-20 2z"/><path fill="#d4dff0" d="M219.5 54.5l3 29-9 4z"/><path fill="#585759" d="M94.5 79.5l-42 31 44-5z"/><path fill="#6e6b66" d="M167.5 91.5l18 9 22-2z"/><path fill="#848691" d="M150.5 86.5l8-6-6-19z"/><path fill="#d3ccc2" d="M55.5 65.5l38 2-46-31z"/><path fill="#989795" d="M230.5 40.5l5 49 36-2z"/><path fill="#767675" d="M251.5 114.5l-28-21-62 12z"/><path fill="#201b14" d="M-6.5 110.5l16 33 70-12z"/><path fill="#6c6a67" d="M140.5 103.5l25-1-32-10z"/><path fill="#8f908e" d="M217.5 51.5l-21 8 2 9z"/><path fill="#8a8e98" d="M125.5 40.5l-8 46 18 5z"/><path fill="#574d40" d="M64.5 92.5l-73-22 53-3z"/><path fill="#f3f8fe" d="M93.5 56.5l-1-16-20 18z"/><path fill="#fdfeff" d="M176.5 68.5v15l-3-8z"/><path fill="#7b7c76" d="M164.5 90.5l-6 5 20-3z"/><path fill="#8c8580" d="M87.5 18.5l10 27 9-2z"/><path fill="#a3a9ac" d="M239.5 100.5l-14-19 33 21z"/><path fill="#403c36" d="M154.5 109.5l9 34 91-17z"/><path fill="#858481" d="M218.5 30.5l40 2 13 52z"/><path fill="#413b36" d="M78.5 136.5l49-45-29-11z"/><path fill="#dce3ef" d="M226.5 78.5l1-18 5 22z"/><path fill="#38332d" d="M-15.5 62.5l84 54-37 3z"/><path fill="#c1cedf" d="M150.5 95.5l-8-7 7-27z"/><path fill="#8f8b7e" d="M-15.5 19.5l84-12-44-6z"/><path fill="#6f7178" d="M84.5 100.5l6-16-25 4z"/><path fill="#94928c" d="M-6.5 69.5l27-3-36-63z"/><path fill="#aaa79d" d="M31.5 68.5l-30-36 21-19z"/><path fill="#706c6b" d="M92.5 48.5l113-58-43-6z"/><path fill="#7e7c7d" d="M193.5 29.5l21-21-63 2z"/><path fill="#565a5b" d="M250.5 112.5l-3 12-32-10z"/><path fill="#afa698" d="M56.5 9.5l-24 15 54-5z"/><path fill="#90969e" d="M224.5 80.5l15 4-30 11z"/><path fill="#514c49" d="M145.5 106.5l65 10-34 5z"/><path fill="#4b4946" d="M91.5 111.5l-22 8-41-39z"/><path fill="#83868e" d="M94.5 65.5l-11 12h9z"/><path fill="#f0eff0" d="M164.5 85.5v-16l-4 2z"/><path fill="#3d362e" d="M263.5 115.5l-25-13 20 3z"/><path fill="#dcd4c6" d="M61.5 31.5l23-9-20 43z"/><path fill="#b1b8c2" d="M178.5 90.5l1 13-10-4z"/><path fill="#a1a3a6" d="M262.5 13.5l-30 14 12 4z"/><path fill="#6a6766" d="M196.5-6.5l49-4-36 25z"/><path fill="#a9a9aa" d="M174.5 67.5l-5-7 4 19z"/><path fill="#5b5953" d="M227.5 94.5l10 7-24-7z"/><path fill="#f6f7fd" d="M167.5 68.5l1 14 3-9z"/><path fill="#8c8e8c" d="M246.5 101.5l5-52 17 56z"/><path fill="#989694" d="M220.5 47.5l1-25-28 27z"/><path fill="#c1bbb3" d="M30.5 67.5l7-40 30 38z"/><path fill="#c3bdb8" d="M159.5 75.5l3-17 10 6z"/><path fill="#75726f" d="M108.5 26.5l-8 50 15 6z"/><path fill="#8b8a8f" d="M151.5 67.5l7 15-2-18z"/><path fill="#38332c" d="M94.5 77.5l5-12-1 20z"/><path fill="#28221c" d="M150.5 122.5l-102 7 50 14z"/><path fill="#9aa2ae" d="M133.5 49.5l8 24-13 15z"/></g></svg>