<svg xmlns="http://www.w3.org/2000/svg" viewBox="0 0 50 25"><path fill="#807e7b" d="M0 0h50v25H0z"/><g fill-opacity=".5"><path fill="#050000" d="M51.5 24.5l-67 16 17-27z"/><path fill="#cececd" d="M34.5 20.5l-48-19 71 7z"/><path fill="#4a4543" d="M19.5 26.5l-1-37 14-2z"/><path fill="#e9e0d0" d="M17.5 3.5l-33 9h34z"/><path fill="#c3c6cc" d="M29.5 7.5l32 10h-34z"/><path fill="#535555" d="M61.5 21.5l4 19-42-23z"/><path fill="#8d9294" d="M50.5-.5l-14 5 29 24z"/><path fill="#211a0a" d="M5.5 16.5l22 24-43-24z"/><path fill="#888176" d="M-15.5 5.5l4-13 31 27z"/><path fill="#bbb2a0" d="M2.5 1.5h13l-11 11z"/><path fill="#343129" d="M50.5 32.5l-33 1 1-19z"/><path fill="#75726d" d="M1.5-9.5l23 19 41-19z"/><path fill="#f4f4f3" d="M17.5 4.5v8h-5z"/><path fill="#413a2d" d="M6.5 23.5l6-10h-13z"/><path fill="#a9abad" d="M46.5 16.5l-14 3-2-4z"/><path fill="#8e908f" d="M31.5 4.5l34 13v-20z"/><path fill="#989b9c" d="M33.5 6.5l-10 1-1 8z"/><path fill="#828085" d="M14.5 20.5l3-4-4-3z"/><path fill="#6a6462" d="M43.5-.5l-25 6-1-21z"/><path fill="#323330" d="M40.5 32.5l22-29-7 22z"/><path fill="#8e8f90" d="M47.5 18.5l-2-17 20 20z"/><path fill="#e4e5e7" d="M31.5 10.5v5h3z"/><path fill="#d7d8dc" d="M44.5 16.5l-1-6-2 3z"/><path fill="#524e4d" d="M24.5 17.5l-14 1 3 3z"/><path fill="#3e4327" d="M.5.5l59-16h-48z"/><path fill="#e2ded2" d="M9.5 8.5l9-1-2-2z"/><path fill="#c5beb3" d="M12.5 2.5v9l-8 1z"/><path fill="#373230" d="M20.5 29.5l-1-18 10 29z"/><path fill="#35302a" d="M5.5 22.5l44 2 9 15z"/><path fill="#8b8b8b" d="M40.5 19.5l-5 2-9-4z"/><path fill="#93927e" d="M-6.5 7.5l17-7-16 2z"/><path fill="#cacccc" d="M28.5 9.5h9l-8 3z"/><path fill="#b3b5ba" d="M49.5 19.5l-3-9-2 2z"/><path fill="#7c7c7b" d="M65.5 16.5l-1-14-20 5z"/><path fill="#a9a6a7" d="M41.5 10.5l-5 5 2-10z"/><path fill="#7d7c78" d="M28.5 1.5l-10 9 17-8z"/><path fill="#a5a5ab" d="M13.5 12.5h4l-1 3z"/><path fill="#776b5a" d="M16.5.5l9-16-35 14z"/><path fill="#c8c5c6" d="M34.5 19.5l-1-8-2 8z"/><path fill="#9a9b9c" d="M43.5 16.5l11 4 3-6z"/><path fill="#827f7d" d="M33.5 17.5l4 3 1-3z"/><path fill="#4d4f4f" d="M25.5 18.5h5l4 6z"/><path fill="#261f16" d="M20.5 31.5l-34-2v-19z"/><path fill="#e5e3db" d="M11.5 10.5l4-5 3 4z"/><path fill="#777a81" d="M22.5 8.5l1 7 4 3z"/><path fill="#bfb6a9" d="M5.5 8.5l-1-4 11-1z"/><path fill="#a4a1a0" d="M38.5 10.5l2 2-7-1z"/><path fill="#676767" d="M17.5 16.5l4-8-2-2z"/><path fill="#54504f" d="M15.5 22.5l-3-7-6-1z"/><path fill="#a8a8ab" d="M37.5 14.5l7-6-4 1z"/><path fill="#a7a49f" d="M5.5 12.5v-5l-6-3z"/><path fill="#6e6e70" d="M38.5 18.5h8l-2 5z"/><path fill="#87909d" d="M29.5 12.5l2 5-2 2z"/><path fill="#9aa0a3" d="M45.5 4.5l13 1-6-3z"/><path fill="#403e39" d="M65.5 40.5l-38-18 35 2z"/><path fill="#90908f" d="M65.5 13.5l-19-4 3 10z"/><path fill="#bbbcc0" d="M43.5 13.5v-2l3 3z"/><path fill="#6a6260" d="M18.5 4.5l-5-20 48 3z"/><path fill="#f5f3f7" d="M16.5 9.5v3l1-2z"/><path fill="#d0cfd0" d="M35.5 14.5l-3-4-1 7z"/><path fill="#4a422c" d="M7.5 14.5l-23-2v7z"/><path fill="#bfbdbc" d="M40.5 8.5h-6l4 2z"/><path fill="#525252" d="M18.5 18.5l2-3-1-6z"/><path fill="#49423d" d="M19.5 32.5l-1-17-7 21z"/><path fill="#4e4e4e" d="M47.5 20.5l15-1-8 7z"/><path fill="#86888d" d="M25.5 10.5l-5 4 3 1z"/><path fill="#a8acb2" d="M45.5 17.5l2-2 1 3z"/><path fill="#969694" d="M45.5 3.5l-14 3 12 1z"/><path fill="#8d8271" d="M15.5 2.5l-16-12-15 1z"/><path fill="#9d9ca2" d="M15.5 16.5l-1-3 2 1z"/><path fill="#b7bdc0" d="M29.5 9.5l-1 4-1-2z"/><path fill="#dbd7ca" d="M16.5 4.5l-2 5-1-5z"/><path fill="#838179" d="M23.5 11.5l1-4-6-1z"/><path fill="#67605c" d="M22.5 7.5l4-17-9-6z"/><path fill="#8f959f" d="M30.5 12.5l1 3-1 3z"/><path fill="#beb5ab" d="M6.5 11.5l2-2 3 3z"/><path fill="#5e5843" d="M.5 14.5l-13-14-3 13z"/><path fill="#c0c1c5" d="M45.5 13.5l-2-2 2 4z"/><path fill="#4b4943" d="M39.5 20.5l-9 3-3-3z"/><path fill="#b6b2b1" d="M32.5 17.5h3l4-7z"/><path fill="#dedfe2" d="M43.5 13.5l-1-2-1 1z"/><path fill="#2e281f" d="M7.5 25.5l3 6 19-8z"/><path fill="#edeff2" d="M42.5 15.5l-1 1 1-3z"/><path fill="#76777b" d="M22.5 11.5v4l-2-5z"/><path fill="#35312b" d="M3.5 23.5h8l-7-7z"/><path fill="#878d7f" d="M3.5 2.5l-19 4v-7z"/><path fill="#8e8f8b" d="M57.5-3.5l-11 21 8-2z"/><path fill="#a6a8ab" d="M44.5 14.5l-2 3 1-5z"/><path fill="#3b3a36" d="M30.5 21.5l-11-5 3 6z"/><path fill="#776d6a" d="M3.5-10.5l14 13 18-17z"/><path fill="#636064" d="M12.5 14.5l4 5-6-4z"/><path fill="#d1d2d6" d="M44.5 15.5v-3h1z"/><path fill="#8c8a86" d="M30.5 5.5l7-3 2 3z"/><path fill="#8e9090" d="M42.5 3.5l3 2-6 4z"/><path fill="#d8d1c7" d="M13.5 8.5l-4 1 5 1z"/><path fill="#7e7772" d="M6.5 12.5h8l-2 2z"/><path fill="#a5a7aa" d="M43.5 11.5l2-1h-3z"/><path fill="#bab2a2" d="M5.5 5.5l2-3 6 1z"/><path fill="#777879" d="M45.5 20.5l-3-2-4 3z"/><path fill="#777976" d="M32.5 2.5l10-1-6-1z"/></g></svg>