<svg xmlns="http://www.w3.org/2000/svg" viewBox="0 0 400 200"><path fill="#7f7d7a" d="M0 0h400v200H0z"/><g fill-opacity=".5"><path fill="#070000" d="M4.2 224.2l420-23.8L43.8 114l-68-9.9z"/><path fill="#fffbec" d="M29.6 23.2l-16.5 82 138.4.6-11-71.5z"/><path fill="#d6dbe2" d="M201.6 70.4l117.7-24.1 105 107.6-225.8-8.8z"/><path fill="#e7e8ea" d="M150.6 51.3L99 39.8l21.8 117.4 20.1-47.4z"/><path fill="#64625f" d="M-5.4 80.6L132.3 183l12.8-81.8 158.6 90.2z"/><path fill="#b1aa9b" d="M-24.2 112.2L19.2 7.7 129.8 21l-70 84.2z"/><path fill="#605853" d="M57.8-24.2l102.7 81 4.6 3.6L302.6.2z"/><path fill="#b6b9bd" d="M414.3 85.3l-150.9 87.5-84.6-45 64.7-53z"/><path fill="#1f190b" d="M2.6 224.2l-8.5-93.8 71.7 23.2 44 70.6z"/><path fill="#363129" d="M270.4 201.8l-113.3-83.9 1.6-82.3-31.4 188.6z"/><path fill="#949696" d="M424.2-7l-233 69.8L353.8 82l43 82.4z"/><path fill="#565957" d="M424.2 179.7l-14.7 19.6-161.6-22.8 102-33.8z"/><path fill="#deddde" d="M247.8 148.8l31.2-23.9-11.3-53.6-19.8 26.2z"/><path fill="#dfe9f4" d="M332.4 90.4l13.2-11 .6 52.6-16.1.4z"/><path fill="#6a6c6f" d="M246.1 97.2l-8.5 5.8-1.4 74.2 12.1-16.6z"/><path fill="#797e88" d="M110 107.4l37 5.8-7.4 46.8-46.8-15z"/><path fill="#e7e4dd" d="M68.5 72.1L144 51.6l3.8 63-54-22.1z"/><path fill="#30322b" d="M418.4 196.9l5.8-29-44-6.6 3.3 63z"/><path fill="#888d96" d="M230 62.4l-23.8 81.2-43-12.3 41-70.3z"/><path fill="#484332" d="M184.2-24.2L-12.5-6l-11.7 29L9.7 10.6z"/><path fill="#48433f" d="M132.7 155.6L102.5 186l141.6-31.8-94.3-26z"/><path fill="#4c4537" d="M24.1 146.6l90.5 40.6-28.8-77.7L15 109z"/><path fill="#909491" d="M424.2 84.6l-53.9-2-10 76 64 5z"/><path fill="#a19d92" d="M-24.2 19.2l45.1 92.6L47.1 37l102.7-11.2z"/><path fill="#999898" d="M386.3 85.8l-105 27.8 143-93.4-200.8 37z"/></g></svg>