<svg xmlns="http://www.w3.org/2000/svg" viewBox="0 0 400 200"><path fill="#7f7d7a" d="M0 0h400v200H0z"/><g fill-opacity=".5"><path fill="#050000" d="M-13.3 104l-11 120.2 448.5-26.5z"/><path fill="#d2d3d5" d="M-24.2 32l301.5 143.8 147-98.5z"/><path fill="#ede6d6" d="M150.8 107l-175-9.3L128.9 8.6z"/><path fill="#4c4742" d="M135.2 224.2l23.4-248.4h93.7z"/><path fill="#bbbfc2" d="M200.8 127.3L293 22.7l131.2 135.9z"/><path fill="#555654" d="M418 158.6l-265.7-21.9L382 221.1z"/><path fill="#aea897" d="M-22.7 14.8l23.5 97 137.5-100z"/><path fill="#8f9091" d="M424.2 107L396.1 2.3 172.7 46.1z"/><path fill="#201a0c" d="M-8.6 110.2L104 191.4-.8 224.2z"/><path fill="#8a8f99" d="M130.5 168l-43.8-36 61-26.5z"/><path fill="#6e6865" d="M36.7-24.2L424.2-8.6 175.8 58.6z"/><path fill="#efefec" d="M144.5 36.7l1.6 71.9-64-17.2z"/><path fill="#332d25" d="M252.3 221l-103-128-3.2 128z"/><path fill="#554e40" d="M143 182L-.8 108.6l92.2-3.1z"/><path fill="#85888f" d="M158.6 125.8l43.7 15.6 32.9-136z"/><path fill="#bdc1ca" d="M269.5 63.3L207 141.4l76.6 21.9z"/><path fill="#5d5f61" d="M229 179l18.7-29.8-4.7-48.4z"/><path fill="#c7c0b3" d="M21 32l115.7 97L93 22.6z"/><path fill="#d3deeb" d="M366.4 124.2l-36-45.3v54.7z"/><path fill="#8c908f" d="M413.3-24.2l-92.2 50 78.1 137.5z"/><path fill="#2e322a" d="M383.6 161.7l-6.3 61 47-54.7z"/><path fill="#9c9b94" d="M64.8 104l-70.3 3L-24.2-7z"/><path fill="#413b2a" d="M64.8-2.3l-89 15.6L3.9-24.2z"/><path fill="#e0e0e2" d="M247.7 143l32.8-26.6-32.8-26.6z"/><path fill="#6c6662" d="M150.8 58.6L96-24.2h240.6z"/></g></svg>