<svg xmlns="http://www.w3.org/2000/svg" viewBox="0 0 400 200"><path fill="#7f7d7a" d="M0 0h400v200H0z"/><g fill-opacity=".5"><path fill="#050000" d="M-19.5 102.3L-.8 222.7l425-25z"/><path fill="#fffdef" d="M-24.2 38.3l175-9.4-9.4 98.4z"/><path fill="#d7dce3" d="M277.3 22.7l147 131.2-243.8-15.6z"/><path fill="#c9c2b4" d="M64.8-11.7l84.4 117.2-173.4-1.6z"/><path fill="#585550" d="M155.5 105.5l132.8 82.8-296.9-79.7z"/><path fill="#afb0b2" d="M422.7 7L264.8 180.5 177.3 78.9z"/><path fill="#625c58" d="M96-7l62.6 68.7L400.8-8.6z"/><path fill="#dfe0e2" d="M121 161.7l29.8-96.9L94.5 18z"/><path fill="#5e615f" d="M424.2 125.8l-186 46.9 186 25z"/><path fill="#211a0d" d="M-8.6 216.4l125-23.4-140.6-86z"/><path fill="#8c8c8d" d="M185.2 35.2l239 82.8V-2.3z"/><path fill="#312a22" d="M139.8 113.3l32.9 111 82.8-45.4z"/><path fill="#a39c8e" d="M141.4 21L11.7 7l-36 98.5z"/><path fill="#bfbfc1" d="M424.2 116.4L260.2 57l-51.6 89z"/><path fill="#717276" d="M77.3 104l43.8 79.6 32.8-68.8z"/><path fill="#969a98" d="M369.5 155.5L354 33.5l68.8 131.3z"/><path fill="#2e3029" d="M382 224.2l42.2-62.5h-43.7z"/><path fill="#564f3e" d="M80.5-24.2l11 28.1-115.7 4.7z"/><path fill="#f8fafa" d="M114.8 91.4l22-53.1 12.4 56.2z"/><path fill="#45413b" d="M152.3 66.4l14.1 37.5-23.4 34.4z"/><path fill="#61656a" d="M243 102.3l4.7 47-17.2 23.4z"/><path fill="#dcdce0" d="M279 119.5l-31.3 29.7V71.1z"/><path fill="#dde9f7" d="M329 138.3l20.2-11-12.5-50z"/><path fill="#8d97aa" d="M194.5 89.8l-25 39.1 68.8 23.4z"/><path fill="#868485" d="M163.3 88.3L396 21 269.5 10z"/><path fill="#a29f9a" d="M333.6 147.7l-64-57.9 57.7-1.5z"/><path fill="#68635e" d="M132-.8l20.3 78.1 112.5-87.5z"/><path fill="#443d30" d="M64.8 107l56.3 112.5-145.3-109.3z"/><path fill="#979c9c" d="M391.4 160.2l12.5-50-68.7 28z"/><path fill="#928e80" d="M27.3 5.5l-51.5 59.3L89.8 4z"/><path fill="#c6c1b8" d="M60.2 33.6l60.9 71.9-86-4.7z"/><path fill="#58534f" d="M152.3 158.6L50.8 105.5l53.1 76.5z"/><path fill="#4e4b46" d="M297.7 183.6l-118.8-50 51.6 51.6z"/><path fill="#9ca8ba" d="M96 129l45.4-23.5-1.6 20.3z"/><path fill="#b8c6d9" d="M236.7 152.3l-20.3-10.9 17.2-68.7z"/><path fill="#a7a2a2" d="M200.8 99.2l7.8-40.6L321 49.2z"/><path fill="#ebf5fc" d="M352.3 107l9.4-12.5v29.7z"/><path fill="#7b7876" d="M269.5 7L161.7 52.3l-4.7 67.2z"/><path fill="#322c25" d="M147.7 169.5L327.3 207 75.8 224.2z"/><path fill="#999991" d="M52.3 104L-24.2-24.3l14 132.8z"/><path fill="#e5dccf" d="M108.6 100.8L82 75.8l54.7-36z"/><path fill="#a8a8a6" d="M344.5 72.7L299.2 93l95.3 1.5z"/><path fill="#d1ccca" d="M305.5 80.5l-68.8 17.2-1.5-22z"/><path fill="#7c7770" d="M114.8 149.2L79 105.5l37.5-1.6z"/><path fill="#6f6e6d" d="M361.7 186.7l-14-51.5-42.2 39z"/><path fill="#78746e" d="M285.2 147.7l-11 29.6 87.5-21.8z"/><path fill="#8a8a87" d="M391.4 54L332 36.6l92.2 165.6z"/><path fill="#bab3a7" d="M135.2 25.8L32 97.7 22.7 32z"/><path fill="#777471" d="M349.2 14.8L227.3 49.2l75-73.4z"/><path fill="#b4c1d0" d="M271 147.7l18.8 10.9-34.3-1.6z"/><path fill="#696561" d="M238.3 149.2l25 25-51.6-23.4z"/><path fill="#857c75" d="M149.2 27.3L91.4-7l70.3 73.4z"/><path fill="#888a92" d="M236.7 93l12.5 25-11 17.2z"/><path fill="#5f6a72" d="M347.7 102.3l3-10.9 1.6 21.9z"/><path fill="#b3b4b1" d="M332 94.5l-3 56.3-72-9.4z"/><path fill="#1f1b12" d="M-7 204l-17.2-37.6 111 31.3z"/><path fill="#433f39" d="M97.7 216.4l51.5-90.6 54.7 18.7z"/><path fill="#f0eff4" d="M280.5 138.3l-6.3-31.3-1.5 20.3z"/><path fill="#53585a" d="M335.2 180.5l50 14 12.5-23.4z"/><path fill="#ced3d8" d="M354 80.5l-23.5 45.3-3.2-32.8z"/><path fill="#969491" d="M302.3 94.5L339.8 79l-31.2 31.3z"/><path fill="#818179" d="M293 150.8l-29.7-11-11 7.9z"/><path fill="#9ea09f" d="M377.3 157l-18.7-81.2L391.4 93z"/><path fill="#797876" d="M157 49.2l45.3 79.7-39-1.6z"/><path fill="#5c5243" d="M88.3 144.5l-71.9-36 79.7 1.7z"/><path fill="#8e9095" d="M202.3 141.4l9.4-95.3L180.5 93z"/><path fill="#88959f" d="M347.7 122.7l9.3 15.6-4.7-42.2z"/><path fill="#504d43" d="M119.5-24.2H5.5L-24.2 18z"/><path fill="#e4e6e5" d="M141.4 50.8l4.7 59.4L113.3 96z"/><path fill="#857d71" d="M93 16.4l18.7-26.6L7 10.2z"/><path fill="#3e392f" d="M424.2 183.6l-57.8-25 32.8 4.7z"/><path fill="#a69f93" d="M93 10.2L27.3 28.9 133.6 32z"/><path fill="#a5abac" d="M393 141.4l-39-4.7 25 21.9z"/><path fill="#878f92" d="M286.7 47.7l137.5-20.4-46.9-32.8z"/><path fill="#bcb9bb" d="M205.5 88.3l70.3 20.3-26.6-36z"/><path fill="#635f5b" d="M263.3-10.2L147.7 41.4l6.2-62.5z"/><path fill="#dbe2ec" d="M333.6 125.8l15.6-3.1-4.7-28.2z"/><path fill="#666669" d="M147.7 132l-48.5 14 42.2 12.6z"/><path fill="#e2e6ed" d="M255.5 138.3l-1.6-25 14-4.7z"/><path fill="#7c7c7a" d="M355.5 69.5l4.7-25 64 22z"/><path fill="#dbd1c4" d="M105.5 32l29.7 11-45.4 40.6z"/><path fill="#37332d" d="M147.7 119.5l7.8-18.7 1.5 39z"/><path fill="#b0b1b0" d="M333.6 150.8l-82.8-12.5 71.9-21.9z"/><path fill="#d6dde5" d="M366.4 129l-11-33-1.5 28.2z"/><path fill="#99948d" d="M157 61.7l-7.8 7.8-1.5-14z"/><path fill="#908e88" d="M18 105.5l-42.2 4.7L-4 8.6z"/><path fill="#635e52" d="M322.7 152.3l-23.5 3.2-12.5-7.8z"/><path fill="#9aa1a3" d="M389.8 49.2l-28-3.1 60.9-32.8z"/><path fill="#34302b" d="M124.2 196l-86-15.5-10.9-50z"/><path fill="#959fae" d="M216.4 72.7l-6.2 70.3-18.8-9.4z"/><path fill="#808184" d="M149.2 96L129 135.3l15.6-11z"/><path fill="#a6a49c" d="M61.7 105.5L24.2 24.2l-25 42.2z"/><path fill="#9ca5b1" d="M124.2 97.7l-15.6 29.6 31.2-3z"/><path fill="#878580" d="M280.5 147.7l46.8 17.1-39-3z"/><path fill="#6d665c" d="M108.6-24.2l-6.3 32.8-90.6-14z"/><path fill="#9a9594" d="M327.3 47.7l-106.2 3 43.7 18.8z"/><path fill="#6d6f6f" d="M399.2 180.5l-48.4-36-46.9 26.6z"/><path fill="#474442" d="M135.2 185.2l21.8-37.5-71.8 37.5z"/><path fill="#a69c8f" d="M93 54l-9.4-3.2 11 21.9z"/><path fill="#6d6a65" d="M336.7-24.2l14 31.2-31.2 20.3z"/></g></svg>