<svg xmlns="http://www.w3.org/2000/svg" viewBox="0 0 400 200"><path fill="#7f7d7a" d="M0 0h400v200H0z"/><path fill="#060000" fill-opacity=".5" d="M2.6 107.4l389.7 82.8-21.4 100.9L-19 208.2z"/><path fill="#fffef0" fill-opacity=".5" d="M147.2 110.3l-124.9-6.6 4-74.9L151 35.4z"/><path fill="#dadfe6" fill-opacity=".5" d="M381.2 65.6l-1.5 82.8-178-3 1.4-82.9z"/><path fill="#5a534e" fill-opacity=".5" d="M245.4 24.2l-97 39.2-23.5-58 97-39.1z"/><path fill="#b2ab9c" fill-opacity=".5" d="M97 106l-142.1 5-3.4-96.8 142-5z"/><path fill="#fcf7f3" fill-opacity=".5" d="M144.8 45.7l1 56.2-48.4.9-1-56.3z"/><path fill="#3a352e" fill-opacity=".5" d="M148.8 112.5l65 37.5-17.3 29.7-65-37.5z"/><path fill="#9096a0" fill-opacity=".5" d="M137.2 159.9l-40-6.4 7.7-49.3 40.2 6.3z"/><path fill="#211b0d" fill-opacity=".5" d="M-24.7 108.2l138 83-37 61.5-138-82.9z"/><path fill="#9a9c9d" fill-opacity=".5" d="M270.9 40L419.5-8.1l23.7 72.8L294.6 113z"/><path fill="#c1c2c5" fill-opacity=".5" d="M277 77.8l9.9 94.8-40.4 4.3-10-94.8z"/><path fill="#484845" fill-opacity=".5" d="M233.8 219l-1.8-51.5 198.3-6.9 1.8 51.5z"/><path fill="#574d3d" fill-opacity=".5" d="M23.6 108.5l84.4-3 1.2 34.4-84.4 3z"/><path fill="#e8f3ff" fill-opacity=".5" d="M325.8 90.6l18.6-2.6 6.3 44.8-18.5 2.7z"/><path fill="#8e9393" fill-opacity=".5" d="M418 154l-46.3 7.4-22.5-142 46.3-7.3z"/><path fill="#8a8c92" fill-opacity=".5" d="M214.4 24.6l27.3 11.6-45.2 106.4-27.3-11.6z"/><path fill="#393630" fill-opacity=".5" d="M156.5 144l-10.9-.5 2.6-73.4 10.9.4z"/><path fill="#c9bdae" fill-opacity=".5" d="M114.8 64.4L78.2 43.3l18-31.1 36.5 21z"/><path fill="#342d25" fill-opacity=".5" d="M164.5 130l87.8 57.1-52.8 81.3-87.7-57z"/><path fill="#686b6e" fill-opacity=".5" d="M237.5 165.6V98.4h7.8v67.2z"/><path fill="#a5a0a1" fill-opacity=".5" d="M227.8 74.8l-2-23.3L330 42.4l2 23.3z"/><path fill="#423d2c" fill-opacity=".5" d="M56.7-15.7L59.9-2-24 17.3l-3-13.7z"/><path fill="#707473" fill-opacity=".5" d="M313.7 159.9l37-28.9 27.8 35.7-37 28.9z"/><path fill="#e5e7ee" fill-opacity=".5" d="M246.6 113.7l29.3-5.2 4 23.1-29.2 5.2z"/><path fill="#82807c" fill-opacity=".5" d="M398.4 86.5L324 77.3l4.2-34 74.4 9z"/></svg>