<svg xmlns="http://www.w3.org/2000/svg" viewBox="0 0 128 64"><path fill="#817e7b" d="M0 0h128v64H0z"/><g fill-opacity=".5"><path fill="#050000" d="M-1.5 33.5l1 46 131-17z"/><path fill="#d4d5d6" d="M-15.5 8.5l102 44 57-29z"/><path fill="#4b4642" d="M47.5 1.5l33-17-33 88z"/><path fill="#ebe4d5" d="M48.5 33.5l-8-28-56 26z"/><path fill="#bec2c7" d="M65.5 43.5l78 6-56-36z"/><path fill="#919395" d="M131.5 33.5l-67-18 78-17z"/><path fill="#aea897" d="M38.5 3.5l-54 45v-42z"/><path fill="#5a5c5d" d="M142.5 51.5l-89-7 84 31z"/><path fill="#e0e3ea" d="M36.5 9.5l2 40 10-27z"/><path fill="#63615d" d="M39.5 55.5l15-20-48-1z"/><path fill="#241d0f" d="M33.5 60.5l-43 19-6-56z"/><path fill="#322b23" d="M82.5 72.5l-35-10v-30z"/><path fill="#6e6965" d="M143.5-6.5l-153-9 66 31z"/><path fill="#989eab" d="M56.5 41.5l9-28 26 42z"/><path fill="#8a8d8d" d="M124.5-15.5l17 89-33-56z"/><path fill="#2d302b" d="M143.5 48.5l-27 31 7-27z"/><path fill="#e1e0e1" d="M90.5 36.5l-11 11v-21z"/><path fill="#e0f1ff" d="M108.5 30.5l-3 11 7-1z"/><path fill="#95958e" d="M.5 33.5l1-28 15 28z"/><path fill="#494235" d="M32.5 60.5l-4-27-38 3z"/><path fill="#999fb0" d="M45.5 33.5l-4 13-9-7z"/><path fill="#f5f6f1" d="M34.5 32.5l9-20 4 11z"/><path fill="#514f4e" d="M45.5 46.5l7-19-5-7z"/><path fill="#c0b8ab" d="M6.5 11.5l21 20 5-26z"/><path fill="#423f2d" d="M-10.5 3.5l49-7-33-12z"/><path fill="#c8cedb" d="M74.5 47.5v-25l-4 12z"/><path fill="#817e7b" d="M94.5-.5l-42 41-1-23z"/><path fill="#48423e" d="M31.5 59.5l20-17 24 6z"/><path fill="#a9a6a3" d="M78.5 48.5l31-31-16 35z"/><path fill="#6c6b6e" d="M25.5 38.5l19 5-3 10z"/><path fill="#37332b" d="M129.5 62.5l-91 17 6-26z"/><path fill="#98989a" d="M77.5 16.5l66-13-34 19z"/><path fill="#7f7e7a" d="M105.5 18.5l38 19-9-23z"/><path fill="#797573" d="M118.5 54.5l-37-1 32-8z"/><path fill="#dae4ee" d="M112.5 38.5l3-10v12z"/><path fill="#9fa7a9" d="M127.5 49.5l-6 1-9-10z"/><path fill="#e8e7e4" d="M46.5 17.5l-18 14h19z"/><path fill="#75777e" d="M76.5 35.5l6 22-7-12z"/><path fill="#c9c3c1" d="M71.5 29.5l43-3-25-5z"/><path fill="#797c84" d="M51.5 39.5l10 5 3-14z"/><path fill="#a7a7a4" d="M104.5 13.5v35l-14-17z"/><path fill="#e1d5c8" d="M32.5 11.5h12l-15 22z"/><path fill="#6f6a65" d="M52.5 20.5l-33-36 91 5z"/><path fill="#dadee5" d="M110.5 27.5l-2 15-3-11z"/><path fill="#7f8b97" d="M113.5 38.5l-2 7v-10z"/><path fill="#a2a0a1" d="M62.5 24.5l1 9 21-17z"/><path fill="#9b9688" d="M8.5 1.5l-16 14 45-12z"/><path fill="#231d15" d="M60.5 73.5l-65-21-9 21z"/><path fill="#bababa" d="M107.5 47.5l-8-12-18 8z"/><path fill="#726e68" d="M86.5 57.5l6-11 10 3z"/><path fill="#979b98" d="M113.5 21.5l30 29h-23z"/><path fill="#b1bfd0" d="M66.5 42.5l9-6-1 11z"/><path fill="#afaaa0" d="M14.5 28.5l-11 5h28z"/><path fill="#6b6c6d" d="M125.5 56.5l-16-12-11 13z"/><path fill="#beb6a8" d="M8.5 10.5l20 10 8-11z"/><path fill="#4e4c49" d="M108.5 57.5l-34-4 9 9z"/><path fill="#d9dbde" d="M79.5 40.5l11-8-3 9z"/><path fill="#bec3d3" d="M90.5 49.5l-8 1 5-3z"/><path fill="#94918b" d="M10.5 32.5l-23 3 14-15z"/><path fill="#9c9589" d="M29.5 6.5l10-1 11 8z"/><path fill="#d1cbcf" d="M76.5 25.5l18-2-22 9z"/><path fill="#7f7c7b" d="M110.5 3.5l-41 3-19 18z"/><path fill="#a9a5a1" d="M103.5 30.5l-22-1 6 5z"/><path fill="#554f50" d="M35.5 58.5l-10-9 26-3z"/><path fill="#909092" d="M114.5 2.5l-2 31-10-25z"/><path fill="#818583" d="M89.5 45.5l2 3-10-2z"/><path fill="#adb0b0" d="M109.5 42.5l-9 5-10-2z"/><path fill="#d1c7c0" d="M35.5 31.5l-11 1v-15z"/><path fill="#a6aab5" d="M40.5 31.5l6 9h-10z"/><path fill="#aeaca1" d="M2.5 19.5l10 8 2-19z"/><path fill="#565a5a" d="M124.5 61.5l-16-4 18-2z"/><path fill="#8a898e" d="M77.5 29.5l-1 8 3 5z"/><path fill="#3d3632" d="M61.5 58.5l-13-18 12 4z"/><path fill="#9095a1" d="M59.5 37.5l9 9-2-23z"/><path fill="#77736a" d="M23.5 33.5l14 12-6-12z"/><path fill="#969694" d="M98.5 33.5l9-8-11 5z"/><path fill="#dfdcd7" d="M44.5 22.5l1-7-11 4z"/><path fill="#342e28" d="M32.5 60.5l35 13 13-16z"/><path fill="#a09c9b" d="M105.5 13.5l4 11-38-4z"/><path fill="#cfcbce" d="M93.5 25.5l-17 6-1-6z"/><path fill="#837d75" d="M48.5 19.5l13 5-21-20z"/><path fill="#cbcdd1" d="M112.5 25.5l-8 16 2-13z"/><path fill="#b6b1b2" d="M100.5 21.5l-34 8 14-9z"/><path fill="#6e6a6b" d="M97.5-15.5l5 24 21-15z"/><path fill="#8d8e8a" d="M126.5 51.5l17-2-21-25z"/><path fill="#635f5b" d="M35.5-15.5l19 24 65-24z"/><path fill="#37332d" d="M20.5 42.5l12 22-33-21z"/><path fill="#b3b2b0" d="M88.5 46.5l20-2-17-17z"/><path fill="#716a67" d="M75.5 47.5l5 4h-8z"/><path fill="#d3d9de" d="M114.5 36.5l-1 2 6 2z"/><path fill="#393732" d="M143.5 61.5l-8-11-13 2z"/><path fill="#f7f9fc" d="M113.5 30.5l2 2v-2z"/><path fill="#74706d" d="M50.5 21.5l8-10-7 29z"/><path fill="#87877b" d="M10.5 1.5l-17 5-1 13z"/><path fill="#7d7873" d="M107.5 54.5l-20-8 28 3z"/><path fill="#51493a" d="M17.5 44.5l-2-11h-8z"/><path fill="#a2a2a4" d="M123.5 15.5l4-4h-14z"/><path fill="#797164" d="M40.5 4.5l-37-8 34-12z"/><path fill="#abb3bf" d="M72.5 25.5l-5 13 5 1z"/><path fill="#464b4a" d="M122.5 53.5l-4-3h5z"/></g></svg>