<svg xmlns="http://www.w3.org/2000/svg" viewBox="0 0 16 8"><path fill="#817e7a" d="M0 0h16v8H0z"/><g fill-opacity=".5"><path d="M15.5 7.5l-29-5 4 13z"/><path fill="#c5c3c1" d="M14.5 5.5l-17-4 34-2z"/><path fill="#55504b" d="M7.5 5.5l-2-21 7 10z"/><path fill="#e3dfcd" d="M-15.5-.5v6l22-3z"/><path fill="#bab7b8" d="M14.5 3.5l-7-1 3 4z"/><path fill="#727078" d="M10.5-15.5l21 24-33-13z"/><path fill="#49443c" d="M20.5 15.5l11-5-35-7z"/><path fill="#221b0c" d="M2.5 5.5l-16-3 26 13z"/><path fill="#847f6e" d="M3.5 4.5l-12-18-7 5z"/><path fill="#2e2a25" d="M6.5 4.5l10 13-7 1z"/><path fill="#63605b" d="M5.5-15.5l3 19-9-18z"/><path fill="#c7c3b6" d="M5.5 5.5l-2-13-3 3z"/><path fill="#535048" d="M4.5 5.5l9 12 16 6z"/><path fill="#848074" d="M8.5 1.5l-17-12 3 7z"/><path fill="#605f66" d="M22.5 15.5l-9-9 3 15z"/><path fill="#929095" d="M14.5 1.5l17-3-13 10z"/><path fill="#cbcac9" d="M10.5 5.5v-2h3z"/><path fill="#6f6c6a" d="M9.5 1.5l13-7-16-8z"/><path fill="#35312b" d="M2.5 6.5l29 17-11-14z"/><path fill="#aba697" d="M1.5 1.5l-17 1 1-5z"/><path fill="#524d44" d="M4.5 6.5l-3-1h3z"/><path fill="#a6a19f" d="M9.5 1.5h-1v3z"/><path fill="#c1bdbc" d="M9.5 4.5l2-2-3 1z"/><path fill="#2d291e" d="M2.5 5.5l1 12-19-16z"/><path fill="#bebbb0" d="M1.5 3.5l-17 1 3 4z"/><path fill="#edebe2" d="M4.5 1.5v2h1z"/><path fill="#8c8883" d="M7.5 4.5l1-2h-1z"/><path fill="#918e83" d="M4.5 1.5l1-9 6-7z"/><path fill="#979386" d="M1.5.5l-17 5 11 3z"/><path fill="#89888c" d="M15.5 4.5l9-20-3 32z"/><path fill="#757264" d="M1.5.5l-17-8 10-4z"/><path fill="#4c4a4d" d="M8.5 6.5l17 8 6-4z"/><path fill="#7c7971" d="M5.5.5l-8-12 7-1z"/><path fill="#c3c0c7" d="M14.5 4.5l17 1-3 5z"/><path fill="#959395" d="M11.5 1.5v-1h3z"/><path fill="#272525" d="M8.5 7.5l10 4-8 12z"/><path fill="#292723" d="M7.5 7.5l8 13-7 3z"/><path fill="#6e6a5e" d="M2.5 4.5l-18-6 3 6z"/><path fill="#262219" d="M-15.5 5.5l24 13-12-18z"/><path fill="#98969c" d="M14.5 1.5l13-3 4-14z"/><path fill="#868486" d="M15.5 2.5l11-3 5 3z"/><path fill="#8b8779" d="M1.5.5v-15l16-1z"/><path fill="#7a7571" d="M9.5 1.5v-16l5 4z"/><path fill="#aba8ac" d="M14.5 3.5l10 5 2-3z"/><path fill="#99969b" d="M12.5 1.5v1h1z"/><path fill="#717076" d="M14.5 6.5l15 1-3 5z"/><path fill="#b2b1b1" d="M10.5 3.5l2 3-1-4z"/><path fill="#635f5b" d="M8.5.5l-7-6 14-4z"/><path fill="#b9b4a5" d="M1.5 1.5l-10 1v3z"/><path fill="#9b979e" d="M15.5 5.5l13-10-2 10z"/><path fill="#6b6a6e" d="M13.5.5l-8-5 6 1z"/><path fill="#454138" d="M2.5 5.5l23 13-6 4z"/><path fill="#817f84" d="M15.5.5l-14-8 3-6z"/><path fill="#3e3d3c" d="M11.5 7.5l-21 16 41-5z"/><path fill="#575555" d="M13.5 7.5l-11 16h-9z"/><path fill="#27221b" d="M2.5 7.5l11 6-11 5z"/><path fill="#353029" d="M2.5 6.5l-14 14 7 3z"/><path fill="#b5b0a6" d="M2.5 3.5l-9 3-9-2z"/><path fill="#3f3b36" d="M7.5 6.5l-5 17v-10z"/><path fill="#302c28" d="M6.5 6.5l15 6-9-1z"/><path fill="#555147" d="M2.5 6.5h2l-1-1z"/><path fill="#312b24" d="M2.5 6.5l-2 17-12-3z"/><path fill="#363229" d="M1.5 5.5v18l4-5z"/><path fill="#2d2720" d="M1.5 7.5l-13 16h34z"/><path fill="#403f46" d="M14.5 7.5l14-3-4-10z"/><path fill="#c4c1bf" d="M9.5 2.5l1 2 1-2z"/><path fill="#9c998e" d="M-3.5-3.5l1 6 4 1z"/><path fill="#706b67" d="M6.5-15.5l3 16-4-8z"/><path fill="#5f5b58" d="M7.5.5l4-16 3 4z"/><path fill="#403b3a" d="M9.5 7.5l2 12-11 2z"/><path fill="#7e7b73" d="M7.5 2.5h-1l-1 2z"/><path fill="#969496" d="M15.5 4.5l7-2 9 7z"/><path fill="#aca9ac" d="M13.5 4.5l-1-3h-2z"/><path fill="#676356" d="M1.5 4.5l-12-5-5-15z"/><path fill="#c2c0be" d="M10.5 3.5v1l1 1z"/><path fill="#adaa9f" d="M5.5.5l-1 1-1-1z"/><path fill="#6b695c" d="M5.5.5l1-12 13-4z"/><path fill="#a09c8f" d="M.5 1.5l-12 5-4 9z"/><path fill="#817f81" d="M15.5 6.5l9-15 7 3z"/><path fill="#918d83" d="M4.5.5l-5-16-1 11z"/><path fill="#726e6a" d="M6.5 3.5l8-10v-9z"/><path fill="#696662" d="M7.5 1.5l8-9v-8z"/><path fill="#777472" d="M8.5 1.5l23-17-13 2z"/><path fill="#b3b1b3" d="M13.5 2.5l-2 2 1-2z"/><path fill="#3c362f" d="M1.5 6.5l-17 8v-5z"/><path fill="#736f6b" d="M8.5.5l9-10 6 1z"/><path fill="#bbb7ab" d="M1.5 2.5l-17 1 7 4z"/><path fill="#7b797b" d="M13.5.5v-9l12-6z"/><path fill="#716f73" d="M12.5.5l4-7-3-9z"/><path fill="#464548" d="M12.5 7.5l-4 1 5 8z"/><path fill="#9c988c" d="M1.5 2.5l-16-16-1 14z"/><path fill="#737275" d="M9.5-10.5l2 11-5-10z"/><path fill="#736f63" d="M1.5 4.5l-1-1h3z"/><path fill="#635f54" d="M.5 4.5l-12-9-4 9z"/><path fill="#88868d" d="M4.5-10.5l27 10v13z"/><path fill="#504e4f" d="M14.5 7.5l5 11 12 1z"/><path fill="#918f93" d="M13.5 1.5h14l4-5z"/><path fill="#747066" d="M1.5 4.5l-17 3 7 2z"/><path fill="#999589" d="M-7.5 4.5l-6 11 14-12z"/><path fill="#8c8a8d" d="M14.5 2.5l17 11v-6z"/></g></svg>