<svg xmlns="http://www.w3.org/2000/svg" viewBox="0 0 50 25"><path fill="#807e7b" d="M0 0h50v25H0z"/><g fill-opacity=".5"><path fill="#060000" d="M-15.5 9.5l3 31 72-14z"/><path fill="#cecdca" d="M17.5 17.5l-33-21 81 19z"/><path fill="#484341" d="M18.5-5.5v35l15-45z"/><path fill="#eee5d6" d="M-.5 11.5l16-8 4 9z"/><path fill="#b6b8bc" d="M31.5 6.5l34-9-33 23z"/><path fill="#54504d" d="M9.5 12.5l17 5-23 2z"/><path fill="#1f1a09" d="M23.5 40.5l-39-30 24 9z"/><path fill="#494c4a" d="M65.5 28.5l-35-7 30-2z"/><path fill="#736e63" d="M-13.5 3.5l73-4-54-13z"/><path fill="#c4c6ca" d="M27.5 14.5l5-6 20 10z"/><path fill="#828687" d="M60.5 32.5l3-43-23 14z"/><path fill="#b4aa99" d="M-15.5 16.5l26-6 4-10z"/><path fill="#f7f5ef" d="M17.5 4.5h-5l5 8z"/><path fill="#312e28" d="M18.5 12.5l22 23-20 5z"/><path fill="#9998a0" d="M12.5 14.5l3 4 1-5z"/><path fill="#898b8d" d="M20.5 15.5l8-16-3 16z"/><path fill="#6f6967" d="M43.5-1.5l-46-14 22 22z"/><path fill="#2d341c" d="M1.5.5l9-12-21 10z"/><path fill="#e2dfd6" d="M12.5 4.5l2 7 4-4z"/><path fill="#aaa7a8" d="M37.5 6.5l-1 12h5z"/><path fill="#dbdce2" d="M45.5 13.5l-4-1 1 3z"/><path fill="#b9b19f" d="M5.5.5l11 3-7 4z"/><path fill="#95928a" d="M6.5 12.5l-16-21-6 19z"/><path fill="#646061" d="M11.5 15.5l2 6 4-2z"/><path fill="#383938" d="M26.5 40.5l28-24 5 23z"/><path fill="#888782" d="M26.5 8.5l14-5h-14z"/><path fill="#bec2c7" d="M29.5 8.5l9 8-12 1z"/><path fill="#737477" d="M45.5 17.5l1 4-13-1z"/><path fill="#ccc5bc" d="M8.5 11.5l-2-7 8 8z"/><path fill="#828b98" d="M29.5 12.5l1 5 1-5z"/><path fill="#9b9d9f" d="M43.5 16.5l7 3 1-4z"/><path fill="#535353" d="M20.5 16.5l-1-5-5 9z"/><path fill="#39342e" d="M37.5 29.5l-14-12-31 23z"/><path fill="#3f392b" d="M7.5 14.5l-17-1 24 11z"/><path fill="#d9d9db" d="M31.5 16.5l2-1-2-6z"/><path fill="#7e7f7b" d="M45.5 5.5l15 18-5-18z"/><path fill="#6e7575" d="M27.5 18.5v2h7z"/><path fill="#837c6a" d="M8.5-1.5l-9 3h16z"/><path fill="#9d9e9a" d="M30.5 5.5l10 1-19 5z"/><path fill="#5d5651" d="M13.5 19.5l1-6h-10z"/><path fill="#e3e2e2" d="M11.5 8.5l7 5-2-5z"/><path fill="#727372" d="M21.5 5.5l-3 6 5 5z"/><path fill="#9c9588" d="M2.5 3.5l10-3 4 3z"/><path fill="#c3c4ca" d="M45.5 15.5v-3l-5-2z"/><path fill="#404242" d="M25.5 21.5h7l-14-6z"/><path fill="#9e9b9b" d="M40.5 10.5h-5l1 2z"/><path fill="#251f12" d="M6.5 28.5l-5-11h-17z"/><path fill="#8e9191" d="M35.5 6.5h26l4-15z"/><path fill="#898c94" d="M25.5 16.5l-2-1 1-4z"/><path fill="#c1cad9" d="M29.5 18.5l-1-1v-2z"/><path fill="#685f5f" d="M25.5 2.5l-31-7 64-11z"/><path fill="#aba59e" d="M4.5 7.5l5 5-11-6z"/><path fill="#97969a" d="M14.5 13.5l4-1-1 4z"/><path fill="#a4a4a6" d="M39.5 12.5l5-4-4 1z"/><path fill="#7f7d77" d="M31.5 5.5l-7-2-4 6z"/><path fill="#f9f7f8" d="M16.5 11.5l-1-1 2-2z"/><path fill="#4e453f" d="M17.5 25.5v-9l2 3z"/><path fill="#353129" d="M13.5 23.5l52 17-16-16z"/><path fill="#6a6b6c" d="M42.5 18.5l7 4h-10z"/><path fill="#c7c0b4" d="M4.5 5.5l7 7 3-8z"/><path fill="#99988e" d="M3.5 2.5l-19 14 18-5z"/><path fill="#8c8c88" d="M54.5-15.5l-6 32 17 24z"/><path fill="#b1b0b0" d="M35.5 14.5l5 4 1-4z"/><path fill="#c1c0bf" d="M27.5 11.5l12-4-1 4z"/><path fill="#e0e0df" d="M13.5 10.5v2l2-1z"/><path fill="#636768" d="M41.5 1.5l4-17 20 1z"/><path fill="#e5e6e8" d="M42.5 11.5l-1 1 2 2z"/><path fill="#a9a7a8" d="M34.5 10.5h9l-6 4z"/><path fill="#a4a6ac" d="M43.5 13.5l4 1-4 2z"/><path fill="#dfdcdc" d="M33.5 14.5l1-1h-3z"/><path fill="#bcb4a7" d="M7.5 11.5l4-8-7 1z"/><path fill="#5e6251" d="M-15.5 3.5l3-9 24 4z"/><path fill="#7d746b" d="M20.5 1.5l-36-5 15-6z"/><path fill="#8e8e8c" d="M41.5 8.5l5-7-8 2z"/><path fill="#858587" d="M14.5 15.5l-1-2v1z"/><path fill="#66605c" d="M22.5 6.5l-5-22 12 3z"/><path fill="#4a4b49" d="M65.5 29.5l-28-8 13 8z"/><path fill="#808182" d="M62.5 1.5l-20 7h23z"/><path fill="#4c4c4b" d="M48.5 20.5l17-6-7 18z"/><path fill="#625f5b" d="M36.5 22.5l5-2h-10z"/><path fill="#d9d7cc" d="M13.5 4.5l2 2-3 6z"/><path fill="#4a4439" d="M7.5 13.5h-6l12 8z"/><path fill="#3e3b37" d="M18.5 20.5l15 3-15-8z"/><path fill="#c6c1b7" d="M17.5 5.5l-1 1 2-1z"/><path fill="#2e261f" d="M20.5 23.5l-14 17 57-11z"/><path fill="#939491" d="M28.5 5.5l4 1-10 3z"/><path fill="#413f3a" d="M58.5 26.5l-28-5 8 19z"/><path fill="#999ea1" d="M63.5 4.5l-19 1 12-6z"/><path fill="#676351" d="M2.5 13.5h-18l9-3z"/><path fill="#c0bcb7" d="M32.5 18.5h2l-1 1z"/><path fill="#777573" d="M30.5.5l-7 6 13-5z"/><path fill="#9fa3aa" d="M27.5 9.5l-1 5-2-2z"/><path fill="#7f8a8d" d="M43.5 3.5l13-2 9-10z"/><path fill="#3e3835" d="M20.5 34.5l-1-22 9 26z"/><path fill="#333132" d="M12.5 30.5l20 7-25-18z"/><path fill="#7b7d82" d="M22.5 16.5v-3l-1 2z"/><path fill="#a19c99" d="M32.5 16.5l5 2-1-2z"/><path fill="#b9b1a7" d="M10.5 11.5l-4 1-1-5z"/><path fill="#484646" d="M9.5 16.5l2 1 1 4z"/><path fill="#838485" d="M23.5 8.5l-2 3 4 3z"/></g></svg>