<svg xmlns="http://www.w3.org/2000/svg" viewBox="0 0 400 200"><path fill="#7f7d7a" d="M0 0h400v200H0z"/><g fill-opacity=".5"><path fill="#030000" d="M.8 139.8H246v61H.8z"/><path fill="#d8dce3" d="M204 60.2h179.6v89H203.9z"/><path fill="#fffced" d="M16.4 32h131.3v75H16.4z"/><path fill="#242019" d="M.8 172.7h400v28H.8z"/><path fill="#292012" d="M.8 108.6h89v92.2H.8z"/><path fill="#f7f6f4" d="M104 47.7h42v62.5h-42z"/><path fill="#5b5450" d="M135.2.8h106.2v43.7H135.2z"/><path fill="#929292" d="M202.3 22.7h198.5v56.2H202.3z"/><path fill="#aea799" d="M.8 13.3h90.6V107H.8z"/><path fill="#514d4b" d="M61.7 129h118.8v59.3H61.7z"/><path fill="#c1c3c7" d="M222.7 72.7h62.5v89h-62.5z"/><path fill="#37332b" d="M147.7 75.8h14v112.5h-14z"/><path fill="#8f96a3" d="M105.5 104h31.2v53h-31.2z"/><path fill="#8e9495" d="M363.3 5.5h37.5v154.7h-37.5z"/><path fill="#eaf6ff" d="M330.5 93h17.2v40.6h-17.2z"/><path fill="#5f6060" d="M230.5 161.7h170.3v18.8H230.5z"/><path fill="#9ca4b2" d="M189.8 75.8h57.9v68.7h-57.9z"/><path fill="#d0c6b9" d="M66.4 21H118v79.8H66.4z"/><path fill="#807e7a" d="M349.2 52.3h51.6v42.2h-51.6z"/><path fill="#342e25" d="M.8 119.5h68.7v65.7H.8z"/><path fill="#6f7171" d="M236.7 102.3h11v57.9h-11z"/><path fill="#2e2d29" d="M246 188.3h154.8v12.5H246z"/><path fill="#e9ebf1" d="M247.7 108.6h29.6V132h-29.6z"/><path fill="#9b9a91" d="M5.5 30.5h34.3v78H5.5z"/><path fill="#211e0f" d="M380.5 163.3h20.3v9.4h-20.3z"/></g></svg>