<svg xmlns="http://www.w3.org/2000/svg" viewBox="0 0 100 50"><path fill="#817f7b" d="M0 0h100v50H0z"/><g fill-opacity=".5"><path fill="#050000" d="M-15.5 23.5l130 28-107 14z"/><path fill="#d6d6d8" d="M-15.5 7.5l85 33 46-21z"/><path fill="#4c4644" d="M35.5 65.5l3-81 19 19z"/><path fill="#e5dfcf" d="M35.5 3.5v23l-51-4z"/><path fill="#bbbec3" d="M104.5 39.5l-26-30-32 19z"/><path fill="#929396" d="M114.5 28.5l-5-30-58 14z"/><path fill="#ada899" d="M6.5 27.5l25-24-47 2z"/><path fill="#302819" d="M-15.5 26.5l34 1-1 38z"/><path fill="#525150" d="M71.5 36.5l-8 21 52-14z"/><path fill="#6d6863" d="M9.5-15.5l30 29 68-18z"/><path fill="#e1e0df" d="M22.5 5.5l15 8-5 23z"/><path fill="#686664" d="M3.5 26.5l28 16 11-15z"/><path fill="#38332a" d="M37.5 29.5l48 25-50-2z"/><path fill="#7e7e81" d="M50.5 35.5l41 2-22 8z"/><path fill="#8c8c92" d="M50.5 35.5l-7-18 14-13z"/><path fill="#898b8a" d="M92.5 29.5l-4-45 27 71z"/><path fill="#e5e5e6" d="M70.5 30.5l-8 6v-13z"/><path fill="#a4a094" d="M1.5 27.5l-11-24 38-2z"/><path fill="#9ea8b6" d="M29.5 35.5l7-10-10 3z"/><path fill="#dbdfeb" d="M86.5 31.5l-7 6 6-17z"/><path fill="#c1bbaf" d="M5.5 7.5l22 1-12 18z"/><path fill="#28231b" d="M-15.5 31.5l47 15-47 13z"/><path fill="#504a39" d="M7.5-15.5l14 15-28 2z"/><path fill="#393b39" d="M82.5 65.5l16-26 17 22z"/><path fill="#fbfeff" d="M36.5 17.5l-2 7-5-4z"/><path fill="#484540" d="M39.5 18.5l3 17-5-10z"/><path fill="#4f483e" d="M21.5 28.5l12 21-33-22z"/><path fill="#949797" d="M84.5 8.5l-7 17 38-28z"/><path fill="#6c6761" d="M43.5 9.5l-30-11 76-4z"/><path fill="#9da6b9" d="M45.5 32.5l14-9 7 16z"/><path fill="#6e7378" d="M60.5 26.5l-1 12 4 1z"/><path fill="#c9c4c2" d="M65.5 16.5l18 4-32 4z"/><path fill="#4f4e4c" d="M75.5 45.5l-12 3-16-14z"/><path fill="#6b6a72" d="M23.5 32.5l7 9 7-9z"/><path fill="#adaaab" d="M71.5 35.5l10-11 3 13z"/><path fill="#807f7a" d="M85.5 16.5l21-8 3 19z"/><path fill="#8d8d85" d="M7.5 1.5l-23 15 18 8z"/><path fill="#9d9b9d" d="M52.5 14.5l-8 14 36-20z"/><path fill="#c0c9d7" d="M58.5 20.5l-3 8 3 9z"/><path fill="#9c9c9e" d="M64.5 42.5l10-3-11-5z"/><path fill="#7f7976" d="M35.5 11.5l9 8 26-12z"/><path fill="#38342d" d="M2.5 65.5l100-15-61-10z"/><path fill="#717072" d="M80.5 44.5l5-9 10 10z"/><path fill="#9b9c99" d="M92.5 18.5l19 24-17-4z"/><path fill="#e9e6df" d="M22.5 25.5l12-15 1 13z"/><path fill="#d2dbe8" d="M82.5 24.5l9 6-7 1z"/><path fill="#a19d97" d="M69.5 22.5l9 6v-7z"/><path fill="#817f86" d="M45.5 34.5l8-5-14-4z"/><path fill="#5d5b5e" d="M59.5 36.5l-12 1 22 6z"/><path fill="#8f9ba7" d="M86.5 33.5h2v-6z"/><path fill="#403a34" d="M51.5 38.5l-10 1-4-9z"/><path fill="#b5ac9d" d="M23.5 17.5l-6-13 9 1z"/><path fill="#e3dfe0" d="M69.5 27.5l-7 2v-3z"/><path fill="#dce6ef" d="M88.5 26.5l2-2-1 5z"/><path fill="#cdc6b8" d="M20.5 25.5l-5-14 11 13z"/><path fill="#a7a69e" d="M2.5 26.5l8-4 13 4z"/><path fill="#b9b9b6" d="M73.5 36.5l-9-2 10-8z"/><path fill="#514e4d" d="M36.5 42.5l4-10-20 14z"/><path fill="#585f64" d="M97.5 47.5l-10-2 8-2z"/><path fill="#251f17" d="M-.5 42.5l35 11-40 10z"/><path fill="#514d4a" d="M64.5 43.5v6l22-6z"/><path fill="#ddd4c6" d="M23.5 25.5l10-15-8-2z"/><path fill="#adb6c5" d="M57.5 19.5l-7 11 9 7z"/><path fill="#535349" d="M10.5-1.5l-20-7 2 14z"/><path fill="#6d6966" d="M76.5 7.5l24-23 15 2z"/><path fill="#716c65" d="M29.5 26.5l-5 7-4-4z"/><path fill="#757370" d="M39.5 31.5v-8l8 2z"/><path fill="#d2cfcf" d="M61.5 19.5l10 1-16 5z"/><path fill="#3f3932" d="M18.5 30.5l1 17-13-6z"/><path fill="#8c8b8b" d="M87.5 7.5l-21-2-20 13z"/><path fill="#848685" d="M115.5-1.5l-30 26 30-14z"/><path fill="#9da0a6" d="M89.5 10.5l14-5-6 6z"/><path fill="#bcbdc1" d="M71.5 39.5h-7l1-2z"/><path fill="#3a3933" d="M41.5 36.5l-4-4 1-6z"/><path fill="#737373" d="M86.5 34.5l-3 9 12 1z"/><path fill="#948c80" d="M36.5 7.5l-9-6-11 2z"/><path fill="#a7b1bd" d="M35.5 31.5l-5-1 2-4z"/><path fill="#cfcecd" d="M62.5 37.5l1-14 6-6z"/><path fill="#716b67" d="M52.5 6.5l-8 10-15-14z"/><path fill="#aba6a4" d="M52.5 19.5l24-3-9-5z"/><path fill="#31322e" d="M108.5 45.5l5-7-17 3z"/><path fill="#312b25" d="M59.5 48.5l-20-4-11 21z"/><path fill="#9ca3a2" d="M91.5 19.5v15l7 3z"/><path fill="#7c7978" d="M46.5 14.5l7-11h29z"/><path fill="#8e9099" d="M52.5 32.5l-2-16-5 16z"/><path fill="#92928f" d="M-7.5 24.5l-8-20 25 20z"/><path fill="#a8a69e" d="M1.5 11.5l8 14-1-18z"/><path fill="#8d8c8b" d="M115.5 38.5l-19-20 3 21z"/><path fill="#9ea5a8" d="M93.5 32.5l-14 2 18 3z"/><path fill="#d0d4d4" d="M34.5 23.5l-8-1 10 5z"/><path fill="#d6d0c5" d="M23.5 13.5l9-5 3 3z"/><path fill="#88867b" d="M12.5 2.5l-28 1v9z"/><path fill="#595454" d="M37.5 20.5l1-4 1 7z"/><path fill="#685e50" d="M22.5 26.5l3 7-12-6z"/><path fill="#767471" d="M98.5 44.5l-9-7-12 3z"/><path fill="#564e40" d="M14.5 26.5l5 6-17-6z"/><path fill="#717176" d="M37.5 37.5l-12-6 1 4z"/><path fill="#67615e" d="M41.5 9.5l33-15-52-10z"/><path fill="#8b8c8e" d="M62.5 40.5l3-5 1 6z"/><path fill="#abafb7" d="M54.5 18.5l-2 16 8-16z"/></g></svg>