<svg xmlns="http://www.w3.org/2000/svg" viewBox="0 0 16 8"><path fill="#817e7a" d="M0 0h16v8H0z"/><g fill-opacity=".5"><path d="M-2.5 4.5l18 3-27 8z"/><path fill="#cecbca" d="M.5 2.5l31-2-7 7z"/><path fill="#54504b" d="M6.5 5.5l4-8-4-5z"/><path fill="#e2dfcf" d="M5.5.5h-3l3 4z"/><path fill="#6b6a71" d="M31.5 3.5l-14-5-9 16z"/><path fill="#3a3427" d="M-15.5 8.5l21-4 24 18z"/><path fill="#afadb2" d="M8.5 4.5l10 1 13-16z"/><path fill="#7a787e" d="M18.5 3.5l-13-6 18 2z"/><path fill="#bfbbad" d="M3.5.5l-3 1 6 3z"/><path fill="#282218" d="M7.5 9.5l-17-7-5-11z"/><path fill="#7d7867" d="M-15.5-12.5v15l19 2z"/><path fill="#575350" d="M6.5 4.5l10 10 3-3z"/><path fill="#706d68" d="M7.5 1.5l24-9-47-5z"/><path fill="#56534a" d="M2.5 4.5l29 18-18-2z"/><path fill="#c9c7c2" d="M10.5 3.5l3 2-4-1z"/><path fill="#2f2c29" d="M6.5 6.5l-22 13 36-9z"/><path fill="#9e9b9e" d="M15.5.5h-4l-3 2z"/><path fill="#5b5750" d="M6.5.5l-5-9 20-5z"/><path fill="#2f2c2c" d="M24.5 21.5l-28-3 27-15z"/><path fill="#989383" d="M3.5.5l-13-7 28-5z"/><path fill="#737171" d="M13.5 6.5l16-2-3-9z"/><path fill="#645f5b" d="M9.5 6.5l15 17-8-2z"/><path fill="#2d281f" d="M2.5 5.5l-12-2 19 20z"/><path fill="#2e2b28" d="M6.5 6.5l25 7-11 6z"/><path fill="#c3c0c1" d="M12.5 3.5l1 2 1-2z"/><path fill="#d3cfc3" d="M1.5 1.5l-1 2 4-1z"/><path fill="#a9a597" d="M2.5 2.5l-18-5 10 7z"/><path fill="#959294" d="M14.5 5.5h10l-3-6z"/><path fill="#8e8d91" d="M10.5 2.5l11-6 2 3z"/><path fill="#4d4a44" d="M4.5 7.5l2-2-2 1z"/><path fill="#3d3932" d="M31.5 21.5l-30-15 17 3z"/><path fill="#6c675d" d="M3.5 4.5l1 2v-1z"/><path fill="#3c372d" d="M3.5 23.5h6l-6-18z"/><path fill="#a6a294" d="M1.5 1.5l-7 3v-2z"/><path fill="#77725e" d="M-15.5 1.5v-12l23 9z"/><path fill="#757172" d="M8.5 1.5l14-17 8 3z"/><path fill="#bcbab8" d="M10.5 2.5l-1 2 2 1z"/><path fill="#4e4c4d" d="M6.5 14.5l10-8-15 4z"/><path fill="#8b898b" d="M15.5 2.5l6 21 4-27z"/><path fill="#a9a6a7" d="M14.5 4.5h-3l3 1z"/><path fill="#3b3a3a" d="M11.5 7.5l-10 12v-10z"/><path fill="#676359" d="M1.5 4.5h-17l3-4z"/><path fill="#7f7d76" d="M6.5 3.5l-1 2h-1z"/><path fill="#86847c" d="M7.5 2.5v3l1-3z"/><path fill="#69686d" d="M11.5.5l14-8-11-8z"/><path fill="#3c3834" d="M6.5 5.5l7 18h-7z"/><path fill="#999588" d="M.5 1.5l-9-4-2 26z"/><path fill="#c6c4c3" d="M13.5 4.5l-2-1 1 1z"/><path fill="#2b261f" d="M3.5 7.5l-18-4 25 14z"/><path fill="#98969a" d="M26.5 9.5l5-18-16 13z"/><path fill="#787471" d="M8.5 1.5l8-17 6 7z"/><path fill="#282419" d="M.5 5.5l-11 1-3 9z"/><path fill="#7e7c74" d="M15.5-15.5L4.5.5v-13z"/><path fill="#b1afae" d="M12.5 5.5l-1-3v2z"/><path fill="#3f3a30" d="M2.5 5.5l-1 1h1z"/><path fill="#a09da2" d="M14.5 3.5l10 5-3-4z"/><path fill="#959185" d="M3.5.5l1-6-10-10z"/><path fill="#a6a2a5" d="M12.5 2.5v-1h-2z"/><path fill="#858070" d="M2.5 4.5l-15 5-3-4z"/><path fill="#878587" d="M15.5 2.5h16l-5-3z"/><path fill="#918d8a" d="M9.5 1.5v1l-2-1z"/><path fill="#716e6a" d="M6.5 3.5l5-19h7z"/><path fill="#5a5552" d="M8.5.5l-4-15-7 1z"/><path fill="#2f2c27" d="M6.5 6.5l16 6v9z"/><path fill="#aeaa9d" d="M1.5 3.5l-17 2 3 5z"/><path fill="#7b797a" d="M13.5 6.5l7-5 11 3z"/><path fill="#e6e4dc" d="M5.5 3.5v-2h-2z"/><path fill="#696463" d="M8.5.5l12-13-9-3z"/><path fill="#c3c1c2" d="M14.5 3.5l-2 1v-1z"/><path fill="#a7a299" d="M3.5 1.5l-1 1 1-3z"/><path fill="#8b877b" d="M3.5.5l14-16h-33z"/><path fill="#474341" d="M8.5 6.5l23 17-9-12z"/><path fill="#bdb9b0" d="M2.5 3.5l1-1-1-1z"/><path fill="#332e26" d="M1.5 7.5l-13 16 27-3z"/><path fill="#8f8b81" d="M2.5 3.5h3l-2 1z"/><path fill="#aeaca9" d="M11.5 4.5l1 1-3-1z"/><path fill="#868485" d="M14.5 6.5l8-3 2-9z"/><path fill="#928e84" d="M-3.5-14.5l9-1-2 16z"/><path fill="#838188" d="M14.5.5l4-16 5 4z"/><path fill="#403c37" d="M6.5 7.5l-7 13h32z"/><path fill="#767475" d="M14.5 6.5l11 5 2-4z"/><path fill="#363129" d="M3.5 7.5l8 8-18-1z"/><path fill="#ada99f" d="M2.5 1.5l-17 1-1 5z"/><path fill="#29241c" d="M2.5 7.5v16l-9-14z"/><path fill="#736f6a" d="M9.5.5l12-16-9 3z"/><path fill="#666260" d="M12.5-15.5l-5 4-1 12z"/><path fill="#6d6a5e" d="M5.5-15.5l1 16-5-7z"/><path fill="#989489" d="M-11.5-15.5l11 18-5 7z"/><path fill="#474747" d="M10.5 7.5l-15 16 14-1z"/><path fill="#727175" d="M11.5.5l-11-13 10-3z"/><path fill="#555253" d="M13.5 7.5l-14 14-15 2z"/><path fill="#7b7873" d="M6.5 2.5v-2h2z"/><path fill="#9d9a9e" d="M14.5 5.5l8 1-2 2z"/><path fill="#6e6c6f" d="M13.5 5.5h-1l1 1z"/><path fill="#63605b" d="M7.5 1.5v-17h7z"/><path fill="#949298" d="M15.5 1.5l15-6-9-11z"/><path fill="#2c2620" d="M31.5 21.5l-38-17-9 11z"/><path fill="#8a8679" d="M2.5.5l-4-6 1-5z"/><path fill="#716e73" d="M11.5.5l5-3 1-5z"/><path fill="#8e8a87" d="M7.5 1.5l2 2-1-2z"/></g></svg>