<svg xmlns="http://www.w3.org/2000/svg" viewBox="0 0 400 200"><path fill="#7f7d7a" d="M0 0h400v200H0z"/><g fill-opacity=".5"><path fill="#060000" d="M424.2 197.7l-437.5 26.5L-.8 105.5z"/><path fill="#cccdce" d="M386.7 30.5L-24.3 71l400 95.3z"/><path fill="#f9f2e2" d="M143 27.3l3 87.5-170.2-81.2z"/><path fill="#4d4844" d="M139.8 224.2L154 .8l84.4-3.1z"/><path fill="#c3c8d1" d="M194.5 135.2l84.4 37.5 12.5-125z"/><path fill="#585a58" d="M214.8 169.5l145.4-25 64 48.5z"/><path fill="#bab4a4" d="M61.7-24.2L104 102.3l-128.1 6.3z"/><path fill="#818181" d="M424.2 94.5l-3.1-86L102.3 29z"/><path fill="#878c95" d="M147.7 102.3l-70.4 23.5L132 168z"/><path fill="#211a0d" d="M110.2 189.8L-22.7 104l4.7 120.3z"/><path fill="#362f27" d="M241.4 155.5l-92.2 68.7-3.1-101.5z"/><path fill="#dbe9f7" d="M368 107l-40.7 36 4.7-54.7z"/><path fill="#564e42" d="M135.2 189.8L10.2 107l87.5 1.6z"/><path fill="#e8e5df" d="M147.7 100.8l-18.8-70.3-67.2 73.4z"/><path fill="#a6a092" d="M-2.3 80.5L133.6 18l-146.9-6.3z"/><path fill="#6a645f" d="M58.6-24.2l101.6 76.5 248.4-62.5z"/><path fill="#9da5a5" d="M335.2 143l60.9 17.2 26.6-109.4z"/><path fill="#343832" d="M404 221l-36-62.4 54.7 7.8z"/><path fill="#46433d" d="M157 63.3l-34.3 131.2 35.9-29.7z"/><path fill="#76797d" d="M243 91.4l-11 68.8 20.3 7.8z"/><path fill="#453f2f" d="M79-24.2L-16.5 5.5l92.2-3.2z"/><path fill="#888b92" d="M235.2 8.6l-73.5 120.3 36 9.4z"/><path fill="#c6c3c2" d="M207 89.8l98.5-31.2-3.2 89z"/><path fill="#8b8f8f" d="M419.5 147.7l-111-106.3 89.2-65.6z"/><path fill="#e2e6ed" d="M247.7 108.6h29.6l-29.6 45.3z"/><path fill="#f2f8fc" d="M147.7 91.4l-34.4-1.6 32.8-39z"/><path fill="#757573" d="M243 168l106.2-26.6 50 37.5z"/><path fill="#a2abba" d="M113.3 102.3l7.8 45.4 25-42.2z"/><path fill="#bdb7ac" d="M104 105.5L88.2 10.2 18 103.9z"/><path fill="#2e2922" d="M250.8 224.2l-6.3-50-161 14z"/><path fill="#b4c3d9" d="M235.2 86.7l-23.5 48.5 25 15.6z"/><path fill="#788186" d="M354 86.7l-1.7 37.5-7.8-31.2z"/><path fill="#d7dee3" d="M366.4 100.8l-14-7.8 6.2 42.2z"/><path fill="#898679" d="M-4 11.7l73.5-9.4-82.8 57.9z"/><path fill="#66635f" d="M277.3 183.6l-34.3-36-48.5 3.2z"/><path fill="#817d7b" d="M324.2 10.2L143 50.8l29.7 40.6z"/><path fill="#aeadab" d="M264.8 99.2l70.4 57.8-12.5-104.7z"/><path fill="#d8dee5" d="M346 82l-20.2 14 20.3 37.6z"/><path fill="#443e33" d="M110.2 214.8l-36-104.6-98.4-1.6z"/><path fill="#989b9d" d="M252.3 139.8l-1.5 25 53.1-6.2z"/><path fill="#716c64" d="M291.4 147.7l67.2 6.2-87.5 26.6z"/><path fill="#dcd4c9" d="M96 97.7l50-48.5-50-28.1z"/><path fill="#69696e" d="M99.2 129l50 1.5-37.5 40.6z"/><path fill="#979790" d="M11.7 19.5l31.3 86-59.4 3z"/><path fill="#8f95a1" d="M179 132l28-86 11 100z"/><path fill="#423d36" d="M146 118l15.7 39 96.9 20.3z"/><path fill="#989c9b" d="M411.7 158.6l-53.1-89 12.5 89z"/><path fill="#7f7e7a" d="M421 124.2l3.2-59.4-81.2-25z"/><path fill="#9d9488" d="M146 43L108.7 8.6H32z"/><path fill="#808288" d="M247.7 108.6l-7.9 23.4-3-34.3z"/><path fill="#949698" d="M350.8 8.6l73.4 25L257 77.3z"/><path fill="#1f1a11" d="M-24.2 168l137.5 36-90.6 15.5z"/><path fill="#696561" d="M177.3 63.3L104-13.3l178-3.1z"/><path fill="#d4d1d1" d="M227.3 85.2l17.2 12.5 51.6-20.4z"/><path fill="#595f61" d="M377.3 193l-65.6-17.2 81.3-1.6z"/><path fill="#52504f" d="M161.7 129l-40.6 56.2L88.3 168z"/><path fill="#3d392c" d="M-24.2 5.5L-11.7 18 14.8 5.5z"/><path fill="#5f574d" d="M30.5 105.5l59.3 1.5 20.4 57.8z"/><path fill="#cacaca" d="M307 91.4l25-14-34.3 1.5z"/><path fill="#f7f8fd" d="M271 108.6l4.8 23.4 1.5-23.4z"/><path fill="#9e9a98" d="M336.7 82l-67.2 15.7 50 7.8z"/><path fill="#383226" d="M372.7 161.7l50 25 1.5-21.9z"/><path fill="#acb1bd" d="M247.7 71l-32.9 73.5-6.2-57.8z"/><path fill="#c9c3ba" d="M125.8 110.2L47.7 78.9l3-48.4z"/><path fill="#e5e9ee" d="M355.5 111.7l4.7-20.3 4.6 36z"/><path fill="#b3bdcb" d="M255.5 157l32.8 3.2-12.5-9.4z"/><path fill="#5c5b54" d="M371 158.6l-10.8-11-28.2 1.6z"/><path fill="#e2e1dc" d="M129 35.2l14 18.7-34.4 46.9z"/><path fill="#918e8f" d="M333.6 35.2L189.8 80.5l78.2-50z"/><path fill="#686561" d="M338.3-24.2l-17.2 50 56.2-34.4z"/><path fill="#838378" d="M243 149.2l37.5-1.5-14-6.3z"/><path fill="#9ea6b4" d="M118 114.8l25 7.9-32.8 10.9z"/><path fill="#b2a99a" d="M104 19.5l-11 47-28.2-39.2z"/><path fill="#969d9e" d="M410.2 163.3l-57.9-39-12.5 17.1z"/><path fill="#b2b5b3" d="M335.2 147.7l-7.9-40.7-73.4 32.8z"/><path fill="#78756f" d="M77.3 107l45.4 45.3-17.2-45.3z"/><path fill="#7c7979" d="M213.3 21l-36 50L330.5 8.7z"/><path fill="#807872" d="M158.6 71l-39-59.3L182 64.8z"/><path fill="#7e7469" d="M138.3 18L41.4 4l71.9-14.2z"/><path fill="#b2afa6" d="M61.7 105.5L11.7 57l40.6-26.5z"/><path fill="#a8a1a1" d="M329 77.3l-29.8-26.5-65.6 12.5z"/><path fill="#36322b" d="M149.2 118l9.4 25-3.1-40.7z"/><path fill="#b4b5b2" d="M310.2 111.7l28-39 20.4 10.9z"/><path fill="#898989" d="M208.6 57l-32.8 22 14 59.3z"/><path fill="#ced1d6" d="M249.2 155.5l-1.5-65.7 14 31.3z"/><path fill="#676865" d="M141.4 111.7l-12.5 4.7 18.8-1.6z"/><path fill="#302a24" d="M197.7 224.2l121.8-26.5-148.4-7.9z"/><path fill="#73716d" d="M185.2 136.7L164.8 35.2l-7.8 87.5z"/><path fill="#9a9995" d="M358.6 75.8l9.4 46.9 39-20.4z"/><path fill="#898784" d="M316.4 161.7l-46.9-17.2 26.6 22z"/><path fill="#898987" d="M416.4 113.3l-71.9-87.5-54.7-1.6z"/><path fill="#bbb4ab" d="M107 22.7L80.5 38.3l51.5-1.6z"/><path fill="#38322c" d="M107 186.7l-61-1.5-42-72z"/><path fill="#b8c7d7" d="M219.5 143l14 6.2V107z"/><path fill="#b0aead" d="M269.5 122.7l-3-25 9.3-14.1z"/><path fill="#9ca2a3" d="M383.6 50.8l40.6-37.5L366.4 43z"/><path fill="#585350" d="M297.7 164.8l-26.6 9.4 67.2 18.8z"/><path fill="#4d4945" d="M282 185.2l-82.8-40.7 43.8 42.2z"/><path fill="#bdc5c8" d="M127.3 111.7l-6.2-11 25 1.6z"/><path fill="#d3dbe7" d="M336.7 86.7l-6.2 43.8h17.2z"/></g></svg>