<svg xmlns="http://www.w3.org/2000/svg" viewBox="0 0 400 200"><path fill="#7f7d7a" d="M0 0h400v200H0z"/><g transform="translate(.8 .8) scale(1.5625)" fill-opacity=".5"><ellipse fill="#040000" cx="35" cy="127" rx="141" ry="49"/><ellipse fill="#fffcec" cx="52" cy="41" rx="44" ry="28"/><ellipse fill="#d8dde4" cx="181" cy="68" rx="60" ry="33"/><ellipse fill="#29251e" cx="147" cy="119" rx="255" ry="11"/><ellipse fill="#e3e4e6" cx="78" cy="58" rx="15" ry="36"/><ellipse fill="#4d483f" cx="42" cy="83" rx="73" ry="16"/><ellipse fill="#afa89b" cx="15" cy="37" rx="46" ry="32"/><ellipse fill="#5a534e" cx="117" rx="38" ry="31"/><ellipse fill="#999a9b" cx="255" cy="33" rx="104" ry="21"/><ellipse fill="#292114" cx="7" cy="100" rx="34" ry="31"/><ellipse fill="#babfc0" cx="249" cy="78" rx="93" ry="17"/><ellipse fill="#70716f" cx="197" cy="103" rx="63" ry="12"/><ellipse fill="#878c96" cx="75" cy="85" rx="16" ry="20"/><ellipse fill="#f3f6f7" cx="84" cy="55" rx="10" ry="17"/><ellipse fill="#dbd8d9" cx="168" cy="67" rx="12" ry="22"/><ellipse fill="#3e3932" cx="98" cy="82" rx="5" ry="38"/><ellipse fill="#8c929e" cx="129" cy="64" rx="11" ry="30"/><ellipse fill="#929695" cx="245" cy="75" rx="14" ry="28"/><ellipse fill="#e5effa" cx="215" cy="70" rx="6" ry="15"/><ellipse fill="#312e29" cx="191" cy="127" rx="97" ry="8"/><ellipse fill="#968e80" cx="33" cy="13" rx="60" ry="8"/><ellipse fill="#181407" cx="252" cy="106" rx="11" ry="3"/><ellipse fill="#6a6d72" cx="154" cy="86" rx="4" ry="23"/><ellipse fill="#585452" cx="75" cy="103" rx="20" ry="16"/><ellipse fill="#67625f" cx="180" rx="50" ry="12"/></g></svg>