<svg xmlns="http://www.w3.org/2000/svg" viewBox="0 0 400 200"><path fill="#7f7d7a" d="M0 0h400v200H0z"/><g fill-opacity=".5"><path fill="#030000" d="M.8 139.8H246v61H.8z"/><path fill="#fffeef" d="M19.5 32h126.6v75H19.5z"/><path fill="#d9dee5" d="M200.8 63.3h178.1v86H200.8z"/><path fill="#231f1b" d="M147.7 171h253v29.8h-253z"/><path fill="#251c0d" d="M.8 108.6h89v92.2H.8z"/><path fill="#fbf7f3" d="M97.7 47.7h50v54.6h-50z"/><path fill="#b4ac9e" d="M.8 14.8h109.4V107H.8z"/><path fill="#5b5451" d="M133.6.8H246V43H133.6z"/><path fill="#a8a9aa" d="M221 32h179.8v126.6H221z"/><path fill="#3e3831" d="M146 94.5h26.7v100H146z"/><path fill="#dfddde" d="M247.7 77.3H282v64.1h-34.3z"/><path fill="#626061" d="M66.4 130.5h81.3V171H66.4z"/><path fill="#646764" d="M293 150.8h107.8v32.8H293z"/><path fill="#deeaf7" d="M330.5 99.2h32.8v31.3h-32.8z"/><path fill="#8a8f8f" d="M347.7 8.6h53v153.1h-53z"/><path fill="#b9c5d6" d="M114.8 100.8h25v28.1h-25z"/><path fill="#8d939f" d="M188.3 61.7H218V143h-29.7z"/><path fill="#807d7a" d="M316.4 50.8h84.4v26.5h-84.4z"/><path fill="#fdffff" d="M355.5 94.5h7.8v29.7h-7.8z"/><path fill="#6c6865" d="M141.4.8h129.7v51.5H141.4z"/><path fill="#9a9990" d="M.8 30.5H43v79.7H.8z"/><path fill="#2f2d28" d="M243 188.3h157.8v12.5H243z"/><path fill="#403931" d="M.8 121h98.4v34.5H.8z"/><path fill="#3c3932" d="M150.8 71h7.8v115.7h-7.8z"/><path fill="#b9c6da" d="M216.4 86.7h20.3v61h-20.3z"/></g></svg>