<svg xmlns="http://www.w3.org/2000/svg" viewBox="0 0 400 200"><path fill="#7f7d7a" d="M0 0h400v200H0z"/><g transform="translate(.8 .8) scale(1.5625)" fill-opacity=".5"><ellipse fill="#080100" rx="1" ry="1" transform="matrix(-8.12703 37.70427 -249.27503 -53.73041 102 127)"/><path fill="#cecfd0" d="M243 107l-8-86-251 21z"/><ellipse fill="#efe7d6" rx="1" ry="1" transform="matrix(5.33547 -28.23716 42.1517 7.96464 54 39.5)"/><ellipse fill="#4d4945" rx="1" ry="1" transform="matrix(17.35377 3.20305 -13.82726 74.91454 114.5 35.3)"/><ellipse fill="#c2c5cb" rx="1" ry="1" transform="matrix(27.88279 -.4266 .52182 34.10625 163.8 73.3)"/><path fill="#3d413f" d="M271.6 151.2l-70-26.8 12.8-33.6 70 26.8z"/><path fill="#969ca6" d="M63 67h26v33H63z"/><ellipse fill="#afaa9c" rx="1" ry="1" transform="rotate(-38 68.8 -19.8) scale(33.74907 29.04613)"/><ellipse fill="#868687" rx="1" ry="1" transform="matrix(81.73592 -.99864 .23957 19.60828 190.3 28.9)"/><ellipse fill="#1f180c" rx="1" ry="1" transform="matrix(48.91769 23.43743 -14.157 29.54794 10 120)"/><ellipse fill="#b4bac0" rx="1" ry="1" transform="matrix(112.1607 -15.5151 2.01525 14.56854 228.2 70.7)"/><ellipse fill="#eae9e6" rx="1" ry="1" transform="matrix(15.38522 -2.74053 4.6455 26.0797 79.2 46.1)"/><path fill="#5b5349" d="M58 65l-46 4 81 51z"/><ellipse fill="#6a645f" rx="1" ry="1" transform="matrix(.32828 21.30307 -88.67818 1.36652 143.3 0)"/><path fill="#312a22" d="M94 71l88 72-88-4z"/><path fill="#6b6a66" d="M165 103.7L92.2 75l85.2 47.9 61-32z"/><ellipse fill="#8e9494" cx="246" cy="25" rx="19" ry="78"/><path fill="#dbe6f1" d="M232.7 81.8L210 53.7l3.4 42.3 18.8-35.1z"/><path fill="#606366" d="M151 93l9 18-5-44z"/><path fill="#48453f" d="M95 35l-4 83 19-15z"/><path fill="#8b8f98" d="M113 39h23v47h-23z"/><path fill="#d9d5d4" d="M158 44h19v40h-19z"/><path fill="#979081" d="M0 6h82v15H0z"/><path fill="#403b2b" d="M29.1 1.4l-36.3 7-2-9.8 36.4-7z"/><path fill="#33342d" d="M245 104h11v24h-11z"/></g></svg>