<svg xmlns="http://www.w3.org/2000/svg" viewBox="0 0 400 200"><path fill="#7f7d7a" d="M0 0h400v200H0z"/><g transform="translate(.8 .8) scale(1.5625)" fill-opacity=".5"><ellipse fill="#050000" cx="9" cy="125" rx="176" ry="47"/><ellipse fill="#ffffef" cx="55" cy="42" rx="43" ry="27"/><ellipse fill="#d7dbe2" cx="182" cy="67" rx="62" ry="33"/><ellipse fill="#29261f" cx="171" cy="121" rx="255" ry="12"/><ellipse fill="#e5e7ea" cx="80" cy="56" rx="13" ry="36"/><ellipse fill="#4d4840" cx="46" cy="85" rx="70" ry="18"/><ellipse fill="#b5ae9f" cx="25" cy="37" rx="36" ry="32"/><ellipse fill="#5a534f" cx="117" rx="37" ry="32"/><ellipse fill="#6c6d6c" cx="197" cy="105" rx="61" ry="11"/><ellipse fill="#979899" cx="255" cy="32" rx="105" ry="20"/><ellipse fill="#2b2316" cx="12" cy="99" rx="34" ry="31"/><ellipse fill="#b7bdbf" cx="242" cy="78" rx="107" ry="17"/><ellipse fill="#898e9a" cx="76" cy="86" rx="15" ry="19"/><ellipse fill="#3f3b35" cx="97" cy="69" rx="4" ry="42"/><ellipse fill="#cccbcc" cx="169" cy="77" rx="12" ry="31"/><ellipse fill="#858787" cx="168" cy="98" rx="28" ry="8"/><ellipse fill="#ebe6de" cx="79" cy="48" rx="16" ry="23"/><ellipse fill="#8f9290" cx="247" cy="73" rx="15" ry="30"/><ellipse fill="#e9f3ff" cx="216" cy="72" rx="6" ry="14"/><ellipse fill="#888e99" cx="127" cy="65" rx="11" ry="28"/><ellipse fill="#646569" cx="154" cy="89" rx="4" ry="26"/><ellipse fill="#373430" cx="191" cy="127" rx="68" ry="10"/><ellipse fill="#b0a697" cx="48" cy="19" rx="35" ry="10"/><ellipse fill="#1f1b0d" cx="255" cy="107" rx="13" ry="4"/><ellipse fill="#54514f" cx="77" cy="106" rx="19" ry="13"/></g></svg>