<svg xmlns="http://www.w3.org/2000/svg" viewBox="0 0 2000 1000"><path fill="#7f7e79" d="M0 0h2000v1000H0z"/><g fill-opacity=".5"><path fill="#030000" d="M2121 988.3L-66.3 519.5l23.4 601.6z"/><path fill="#fffdf0" d="M-121 207l835.8 437.5V136.7z"/><path fill="#d6dbe3" d="M2121 769.5L1433.7 129 863.3 668z"/><path fill="#e4dfd8" d="M730.5 488.3L746 191.4l-867.2 343.8z"/><path fill="#5c5b57" d="M1043 558.6L660.2 910.2 89.8 527.3z"/><path fill="#b9bcbe" d="M918 300.8l1203 140.6-859.3 429.7z"/><path fill="#5d5552" d="M1511.7-50.8L488.3-66.4 793 332z"/><path fill="#b0a898" d="M-121 629l804.6-523.5-625-70.3z"/><path fill="#939597" d="M972.7 300.8L2121 449.2l-31.3-484.4z"/><path fill="#1e1c09" d="M-121 550.8l85.8 570.3 601.6-179.7z"/><path fill="#363126" d="M707 574.2l54.7 546.9L1379 894.5z"/><path fill="#616562" d="M1207 886.7l914 78.1v-375z"/><path fill="#999c9d" d="M621 769.5l101.7-148.4L246 347.7z"/><path fill="#949fb2" d="M1191.4 754L879 660.1l101.6-304.7z"/><path fill="#31362e" d="M1902.3 1121l172-296.8-195.4-23.4z"/><path fill="#9ea4a4" d="M2121 433.6l-468.7 257.8 328.2 117.2z"/><path fill="#e1e4e7" d="M1246 722.7l-15.5-289.1L1410.2 582z"/><path fill="#f4f9fa" d="M722.7 519.5V254L527.3 433.6z"/><path fill="#636467" d="M1136.7 871l86-343.7 7.8 328.2z"/><path fill="#36302b" d="M824.2 769.5l-46.9-414-39 203z"/><path fill="#e1efff" d="M1644.5 457L1754 558.6l-78.1 140.6z"/><path fill="#4d442f" d="M-27.3 543l210.9 265.6 390.6-281.3z"/><path fill="#9c9c93" d="M347.7 511.7L27.3 89.8-43 543z"/><path fill="#747172" d="M980.5 129L1996-121l-562.5 375z"/><path fill="#413c2c" d="M-74.2 66.4L449.2-43 19.5-121z"/><path fill="#beb7aa" d="M449.2 535.2l39-476.6-414 343.7z"/><path fill="#bdcde3" d="M1168 722.7l-101.6 7.8L1168 449.2z"/><path fill="#797574" d="M863.3 652.3l273.4-515.6-414 117.2z"/><path fill="#a6a39e" d="M1660.2 793l-15.7-382.8-265.6 54.6z"/><path fill="#eff8fe" d="M1769.5 558.6l54.7 109.4-23.4-203.2z"/><path fill="#615f5b" d="M1160.2 879l328-23.5-554.6-172z"/><path fill="#676868" d="M714.8 769.5L394.5 535.2l164 304.6z"/><path fill="#8b8b89" d="M1785.2 144.5l54.6 531.3 281.3-101.6z"/><path fill="#939395" d="M2121 97.7l-984.3 101.5 554.7 171.9z"/><path fill="#757066" d="M1769.5 777.3l-304.7 70.4-62.5-117.2z"/><path fill="#a3b4c9" d="M558.6 613.3l164-125L629 668z"/><path fill="#e3dace" d="M691.4 199.2l-195.3-23.4 31.2 343.7z"/><path fill="#d8d2d2" d="M1152.3 504l62.5-117.3 281.3 7.8z"/><path fill="#3a362e" d="M1472.7 988.3L574.2 1121 754 605.5z"/><path fill="#777676" d="M785.2 621L996 707 808.6 254z"/><path fill="#afa89a" d="M410.2 43l242.1 125-640.6 39z"/><path fill="#939189" d="M-121 543L19.4 58.6l132.8 461z"/><path fill="#b5b4b1" d="M1683.6 746l-289-15.5-7.9-265.7z"/><path fill="#9fa7a9" d="M2027.3 793h-164L1746 605.5z"/><path fill="#939999" d="M1699.2 308.6l62.5 304.7 15.6-226.6z"/><path fill="#c4bfb5" d="M254 527.3l23.3-382.8 257.9 367.2z"/><path fill="#595959" d="M441.4 933.6l281.3-328.1 62.5 109.3z"/><path fill="#8b8e96" d="M1238.3 504l-62.5-8 7.8 218.8z"/><path fill="#38352c" d="M199.2 910.2l586 156.2-906.3-593.7z"/><path fill="#1e1b11" d="M-105.5 1011.7l578.2-15.6-500-132.8z"/><path fill="#857e70" d="M19.5 58.6l742.2 70.3L480.5-58.6z"/><path fill="#676c6d" d="M1722.7 925.8l-7.9-250L1957 894.5z"/><path fill="#d5dce0" d="M1730.5 410.2l7.8 257.8-86-211z"/><path fill="#26251b" d="M597.7 1121l632.8-148.3-468.8-47z"/><path fill="#676360" d="M1824.2-4L722.7-121 707 191.3z"/><path fill="#7d766a" d="M535.2 621l62.5-93.7H253.9z"/><path fill="#7e7c7b" d="M1230.5 27.3L1636.7 82l-836 312.5z"/><path fill="#b2bccb" d="M1175.8 425.8l-125 257.8 125 70.3z"/><path fill="#b3acab" d="M1191.4 285.2L1035.2 457l531.2-117.2z"/><path fill="#55514d" d="M738.3 519.5l78.1-86-62.5-85.8z"/><path fill="#888b8d" d="M1394.5 855.5l-171.8-54.7 296.8-15.6z"/><path fill="#8d8f92" d="M1082 261.7L1004 707 879 433.6z"/><path fill="#7e7e7b" d="M2004 519.5l-250-296.8 273.3 54.6z"/><path fill="#949390" d="M1550.8 527.3l-46.9-62.5 234.4-78z"/><path fill="#6c645a" d="M183.6-4l367.2 54.8-31.3-171.9z"/><path fill="#77756f" d="M1379 738.3l492 54.7-281.2 54.7z"/><path fill="#b0bece" d="M1418 785.2l-132.8 15.6 54.6-62.5z"/><path fill="#d0d7dd" d="M1246 621l-7.7 156.3 109.4-257.8z"/><path fill="#4d4942" d="M777.3 691.4l593.8 289-281.3-250z"/><path fill="#847e77" d="M496 11.7l195.4 86 148.4 265.6z"/><path fill="#6c726e" d="M1761.7 441.4l-23.4 46.9L1832 418z"/><path fill="#eef4f6" d="M730.5 308.6l7.8 148.4-132.8-15.6z"/><path fill="#e9efef" d="M1394.5 683.6l-23.4-156.3-15.6 93.8z"/><path fill="#9a9e9d" d="M1636.7 691.4l179.7 54.7 234.4-171.9z"/><path fill="#505857" d="M1675.8 879l289 101.5-109.3-101.6z"/><path fill="#9a9588" d="M527.3 43L261.7 152.3 183.6 19.5z"/><path fill="#9ba2a3" d="M1769.5 199.2l179.7 62.5 54.7-125z"/><path fill="#dad8cf" d="M675.8 535.2l46.9-70.4-273.5 7.9z"/><path fill="#9aa4b3" d="M1097.7 363.3L988.3 691.4l101.5 31.3z"/><path fill="#dde1e5" d="M1816.4 574.2l-70.3 62.5 70.3-7.8z"/><path fill="#bbb3a2" d="M472.7 152.3h-297l304.8 187.5z"/><path fill="#7e7c72" d="M1261.7 738.3l62.5-39 70.3 39z"/><path fill="#3c3426" d="M2043 902.3l-172-101.5 250 39z"/><path fill="#979392" d="M980.5 355.5l781.2-93.8-429.7-78.1z"/><path fill="#7c848e" d="M613.3 714.8l78.1-85.9-140.6 23.4z"/><path fill="#dfded9" d="M605.5 199.2l109.3 39-70.3 164.1z"/><path fill="#49463f" d="M355.5 636.7l289 296.9-250-15.6z"/><path fill="#b5b0ac" d="M1254 504l289-133-187.5 172z"/><path fill="#a3a4a0" d="M1879 418l-203.2-54.7 211 148.4z"/><path fill="#eaf0f3" d="M1761.7 488.3l39 31.2-23.4-46.8z"/><path fill="#808b91" d="M1761.7 613.3l-31.2-62.5 23.4-39z"/><path fill="#a7a59b" d="M168 535.2l39-422L35.2 332z"/><path fill="#98a2ad" d="M535.2 527.3l140.6 109.4-39-125z"/><path fill="#c3c3c1" d="M1535.2 449.2l-195.4-78.1 297 31.2z"/><path fill="#48463f" d="M1418 988.3L1175.8 918l429.7-15.7z"/><path fill="#afaca5" d="M168 527.3l101.5-140.6 125 117.2z"/><path fill="#686760" d="M1683.6-121L1621 121l265.6-171.8z"/><path fill="#888b92" d="M1230.5 543l-54.7 23.4 54.7 187.5z"/><path fill="#afb3b2" d="M1488.3 668l-226.6 46.8 39-62.5z"/><path fill="#afb1b0" d="M1629 566.4L1339.7 707l320.4 47z"/></g></svg>