<svg xmlns="http://www.w3.org/2000/svg" viewBox="0 0 200 100"><path fill="#817e7b" d="M0 0h200v100H0z"/><g fill-opacity=".5"><path fill="#060000" d="M-11.5 50.5l221 48-205 17z"/><path fill="#d4d2cd" d="M11.5-5.5l-10 57 214 19z"/><path fill="#c8ccd4" d="M138.5 10.5l-37 62h114z"/><path fill="#4b4744" d="M125.5-15.5h-46l-12 131z"/><path fill="#fffff7" d="M70.5 18.5l3 35-47-10z"/><path fill="#696867" d="M102.5 54.5l-93-2 53 30z"/><path fill="#a1a3a4" d="M197.5 2.5l-99 26 117 60z"/><path fill="#6e6556" d="M9.5 11.5l85-8-110-19z"/><path fill="#565958" d="M110.5 81.5l105-2v29z"/><path fill="#221c0e" d="M-15.5 109.5l2-58 69 44z"/><path fill="#c2c1c2" d="M192.5 49.5l-70-20 4 59z"/><path fill="#38332a" d="M76.5 61.5l-15 54 79-27z"/><path fill="#736f6d" d="M203.5-1.5l-158-14 38 55z"/><path fill="#b2bacc" d="M73.5 42.5l-10 31-11-10z"/><path fill="#c9c0af" d="M39.5 51.5l-50-32 77-4z"/><path fill="#4b412e" d="M24.5 78.5l25-25h-65z"/><path fill="#99a1b0" d="M133.5 78.5l-30-59-18 46z"/><path fill="#9d9a8c" d="M37.5 5.5l-53 3v68z"/><path fill="#dfedfc" d="M175.5 59.5l-7 10-3-28z"/><path fill="#efecea" d="M47.5 17.5l27 11-4 28z"/><path fill="#6c6b6d" d="M98.5 70.5l28 19 34-2z"/><path fill="#30322e" d="M191.5 80.5l-3 35 27-29z"/><path fill="#878b8a" d="M203.5-15.5l12 120-53-89z"/><path fill="#3b3730" d="M77.5 35.5l6 43-10-18z"/><path fill="#8a8788" d="M87.5 45.5l104-37-92 7z"/><path fill="#c0c9da" d="M118.5 75.5l-12-7 11-36z"/><path fill="#dddfe2" d="M123.5 48.5v28l16-20z"/><path fill="#acaaa7" d="M135.5 72.5l34 2-15-49z"/><path fill="#444133" d="M-9.5-15.5l1 21 78-12z"/><path fill="#f0f6ff" d="M182.5 63.5l-6-5 4-12z"/><path fill="#6a696c" d="M72.5 71.5l-17 14-10-27z"/><path fill="#949899" d="M166.5 69.5l43-16-13 27z"/><path fill="#72716e" d="M170.5 92.5l-39-21 49 8z"/><path fill="#74757d" d="M124.5 63.5l-6-10 3 28z"/><path fill="#c5bdb4" d="M56.5 50.5l-30 1-4-38z"/><path fill="#68625e" d="M75.5 25.5l-18-37 115 2z"/><path fill="#9d9586" d="M65.5 12.5l-69 4 39-15z"/><path fill="#a09b9a" d="M169.5 41.5l-35 7 23 8z"/><path fill="#d3cfcf" d="M129.5 37.5l30 3-50 9z"/><path fill="#98958e" d="M-14.5 53.5l12-44 23 44z"/><path fill="#4b4843" d="M138.5 101.5l-57-35 34 9z"/><path fill="#ddd3c7" d="M46.5 20.5l7 31 13-34z"/><path fill="#f1f6fb" d="M73.5 47.5l-2-15-16 11z"/><path fill="#302923" d="M85.5 86.5l56 13-79 6z"/><path fill="#969492" d="M169.5 18.5l46 49-81-49z"/><path fill="#201912" d="M39.5 97.5l-50 3-3-17z"/><path fill="#818081" d="M107.5 12.5l-28 50 18 6z"/><path fill="#6b6d6d" d="M171.5 70.5l30 19-44-2z"/><path fill="#a6a0a1" d="M96.5 42.5l20-16 43 4z"/><path fill="#7c8594" d="M174.5 49.5l6 19-6-5z"/><path fill="#9aa4b5" d="M72.5 51.5l-17 13 14-3z"/><path fill="#514c4a" d="M46.5 92.5l-17-33 45 26z"/><path fill="#7d7c78" d="M200.5 43.5l-27-15 36-5z"/><path fill="#d9e2ea" d="M173.5 63.5l-1-22-7 20z"/><path fill="#84878f" d="M118.5 72.5l5-17-5-7z"/><path fill="#38352e" d="M215.5 100.5l-106 15 47-23z"/><path fill="#b6bdc4" d="M154.5 72.5l8 3 13-13z"/><path fill="#3b362f" d="M-10.5 46.5l35 46 46 12z"/><path fill="#bdb6aa" d="M9.5 17.5l44-3-21 35z"/><path fill="#9da3a7" d="M192.5 24.5l-17-4 31-10z"/><path fill="#7b736f" d="M38.5 52.5l18 1 1 19z"/><path fill="#acb5c3" d="M140.5 73.5l-2 6-15-2z"/><path fill="#8b8a87" d="M138.5 70.5l-16 11 7-10z"/><path fill="#a1abbc" d="M109.5 70.5l-11-2 14-30z"/><path fill="#3e3732" d="M70.5 57.5l25 14 10 28z"/><path fill="#9a9b9b" d="M205.5 76.5l-25-43 5 45z"/><path fill="#807c79" d="M132.5 85.5l35-4-21-7z"/><path fill="#6c6969" d="M109.5 76.5l10-2 8 9z"/><path fill="#eaeaeb" d="M67.5 32.5l5-1 2 15z"/><path fill="#727575" d="M172.5 49.5l10-6h-6z"/><path fill="#bebfbf" d="M178.5 41.5l-11-3-8 17z"/><path fill="#8c827c" d="M63.5 4.5l16 24-33-26z"/><path fill="#ececf0" d="M136.5 55.5l-1 12 4-4z"/><path fill="#797574" d="M87.5 35.5l15-26 65-9z"/><path fill="#d7d0c7" d="M33.5 26.5l40 27-26-2z"/><path fill="#6b6764" d="M169.5 6.5l29-14-60 10z"/><path fill="#706f6d" d="M180.5 93.5l4-18-43-1z"/><path fill="#3e3d33" d="M213.5 96.5l-11-13-19-5z"/><path fill="#6f6e6a" d="M90.5 62.5l-12-28 2 29z"/><path fill="#a3a8aa" d="M189.5 63.5l-18 4 18 11z"/><path fill="#8e8e89" d="M-13.5 48.5l25-2-8 8z"/><path fill="#484540" d="M76.5 50.5l-11 41 15-17z"/><path fill="#9c9793" d="M73.5 27.5v10l4-7z"/><path fill="#73727a" d="M71.5 61.5l-5 13-14-2z"/><path fill="#91969e" d="M105.5 60.5l-12 8 9-39z"/><path fill="#6a6055" d="M41.5 52.5l14 15-36-15z"/><path fill="#4e5255" d="M183.5 87.5l15 9-21-3z"/><path fill="#b6b6b3" d="M128.5 67.5l39 8-19-12z"/><path fill="#8c8c89" d="M195.5 79.5l20 2-22-30z"/><path fill="#e3e7ed" d="M134.5 53.5l-1 10-8 2z"/><path fill="#b1afac" d="M126.5 51.5l18-10 16 18z"/><path fill="#525050" d="M75.5 34.5l4 5-5 14z"/><path fill="#7c7c7c" d="M185.5 87.5l-4-10-30 3z"/><path fill="#534a3e" d="M32.5 54.5l17 18-62-19z"/><path fill="#ada9a2" d="M9.5 16.5l6 36h23z"/><path fill="#a7aab4" d="M133.5 70.5l-4-2 1-10z"/><path fill="#d8dcec" d="M182.5 61.5l-5-11 1 13z"/><path fill="#757b80" d="M74.5 50.5l-6 7 3 6z"/><path fill="#c4c2c2" d="M169.5 38.5l-14 6-20-5z"/><path fill="#38322d" d="M127.5 88.5l-55-4 27 15z"/></g></svg>