<svg xmlns="http://www.w3.org/2000/svg" viewBox="0 0 400 200"><path fill="#7f7d7a" d="M0 0h400v200H0z"/><ellipse fill="#070000" fill-opacity=".5" rx="1" ry="1" transform="matrix(9.55572 -48.9518 391.05643 76.33684 116.4 180.8)"/><ellipse fill="#fff8e8" fill-opacity=".5" rx="1" ry="1" transform="rotate(-162.5 48 25.1) scale(71.3632 43.34246)"/><ellipse fill="#d6dbe2" fill-opacity=".5" rx="1" ry="1" transform="matrix(-1.52338 -50.85647 96.8995 -2.90257 283.3 107.4)"/><ellipse fill="#d9dce0" fill-opacity=".5" rx="1" ry="1" transform="rotate(-176.4 63.8 43.5) scale(20.02636 61.3885)"/><ellipse fill="#565249" fill-opacity=".5" rx="1" ry="1" transform="matrix(-.77405 18.6244 -101.40371 -4.21446 87.2 125.8)"/><ellipse fill="#b0aa9c" fill-opacity=".5" rx="1" ry="1" transform="matrix(-24.60752 -39.07608 51.21392 -32.25113 43.2 58.7)"/><ellipse fill="#59534f" fill-opacity=".5" rx="1" ry="1" transform="rotate(-77.5 91.1 -112.6) scale(143.48768 19.50018)"/><ellipse fill="#2a302d" fill-opacity=".5" rx="1" ry="1" transform="matrix(-32.27477 12.99893 -14.15042 -35.13378 391 199.2)"/><ellipse fill="#221c0e" fill-opacity=".5" rx="1" ry="1" transform="matrix(-32.56184 40.24544 -96.05463 -77.71604 16.9 184.6)"/><ellipse fill="#a0a6a8" fill-opacity=".5" rx="1" ry="1" transform="rotate(-119.5 221 -79.6) scale(79.9478 90.82629)"/><ellipse fill="#727371" fill-opacity=".5" rx="1" ry="1" transform="rotate(94.5 66 213.2) scale(16.919 71.23819)"/><ellipse fill="#c6c6c7" fill-opacity=".5" rx="1" ry="1" transform="rotate(-172.4 152 44) scale(70.13043 34.42468)"/><ellipse fill="#625c59" fill-opacity=".5" rx="1" ry="1" transform="rotate(174.4 108.2 5.7) scale(98.74429 33.15227)"/><ellipse fill="#efebe4" fill-opacity=".5" rx="1" ry="1" transform="matrix(20.68398 33.50039 -15.85813 9.7912 121.7 75.4)"/><ellipse fill="#7f838c" fill-opacity=".5" rx="1" ry="1" transform="matrix(-26.71958 3.34253 -3.67599 -29.38522 120.2 133.9)"/><ellipse fill="#362f27" fill-opacity=".5" rx="1" ry="1" transform="matrix(-20.3836 26.18389 -45.0004 -35.03185 185.7 175.2)"/><ellipse fill="#989798" fill-opacity=".5" rx="1" ry="1" transform="matrix(120.248 -27.8949 3.79694 16.36769 278.1 56.8)"/><ellipse fill="#7c7d81" fill-opacity=".5" rx="1" ry="1" transform="matrix(-23.4954 4.39705 -8.66733 -46.31349 183.5 94.2)"/><ellipse fill="#a3a7ac" fill-opacity=".5" rx="1" ry="1" transform="matrix(-20.28961 -2.35491 1.58843 -13.6857 265.1 157.3)"/><ellipse fill="#928a7c" fill-opacity=".5" rx="1" ry="1" transform="matrix(.10683 -13.05508 107.90019 .88291 35.7 21.3)"/><ellipse fill="#848585" fill-opacity=".5" rx="1" ry="1" transform="matrix(31.20028 -38.73056 39.43384 31.76682 381 51)"/><ellipse fill="#d9e4f1" fill-opacity=".5" rx="1" ry="1" transform="matrix(-.55623 28.0913 -7.4254 -.14703 339.6 109.9)"/><ellipse fill="#a4a29f" fill-opacity=".5" rx="1" ry="1" transform="matrix(-22.72305 -.03966 .09432 -54.04242 308 96.3)"/><ellipse fill="#454030" fill-opacity=".5" rx="1" ry="1" transform="matrix(-67.55184 12.03282 -1.3757 -7.72316 17.3 .7)"/><ellipse fill="#a7b1bd" fill-opacity=".5" rx="1" ry="1" transform="rotate(-159.5 73.3 47.6) scale(13.54493 17.16875)"/></svg>