<svg xmlns="http://www.w3.org/2000/svg" viewBox="0 0 2000 1000"><path fill="#7f7e79" d="M0 0h2000v1000H0z"/><g fill-opacity=".5"><path fill="#030000" d="M-113.3 1121L19.5 527.4l2101.6 468.8z"/><path fill="#cecfd2" d="M1910.2 816.4L-121.1 363.3l1945.3-203.1z"/><path fill="#f7f0e1" d="M714.8 597.7L-121 168l836-23.5z"/><path fill="#4e4845" d="M1261.7-121L769.5 4l-70.3 1070.2z"/><path fill="#c3cad3" d="M949.2 660.2l445.3 195.3 54.7-593.8z"/><path fill="#585b58" d="M1855.5 722.7l-757.8 117.1L2121 988.3z"/><path fill="#b9b3a4" d="M-121 543l656.2-31.3L332-121z"/><path fill="#868788" d="M2121-11.7l-1382.7 250 1328.1 187.5z"/><path fill="#848b92" d="M660.2 847.7l-265.7-211 343.8-125z"/><path fill="#1e1b08" d="M-121 527.3l656.2 422-500 171.8z"/><path fill="#b6b9ba" d="M1949.2 800.8L863.2 371l1257.9 54.7z"/><path fill="#353125" d="M707 1121l47-492 476.5 148.3z"/><path fill="#f2f3ef" d="M722.7 222.7l-250-7.9 257.8 336z"/><path fill="#544d3e" d="M418 527.3L19.5 543l742.2 414z"/><path fill="#6f6965" d="M332-121l1789 31.2L824.3 332z"/><path fill="#a9a395" d="M683.6 82l-711 367.2 47-351.5z"/><path fill="#e2f2ff" d="M1668 699.2l86-93.7L1652.2 418z"/><path fill="#474540" d="M793 316.4l-7.8 554.7-179.7 15.6z"/><path fill="#2e322a" d="M1879 800.8l234.3 31.2-148.5 289z"/><path fill="#9198a3" d="M1074.2 152.3l257.8 711-461-226.6z"/><path fill="#8a8e8e" d="M2121-58.6l-523.3 195.3L1957 738.3z"/><path fill="#4c4535" d="M418 11.7L121-58.6-82 35.2z"/><path fill="#dddedc" d="M1246 738.3L1402.4 582l-164-211z"/><path fill="#bfc9d9" d="M1175.8 332l-7.8 406.3-125-31.3z"/><path fill="#d4cdc2" d="M636.7 129L183.6 527.2l390.6-7.8z"/><path fill="#676b69" d="M1722.7 668l-172 242.2h437.6z"/><path fill="#605c55" d="M1199.2 738.3l304.7 211-593.7-195.4z"/><path fill="#96a1af" d="M574.2 527.3l15.6 218.8 132.9-140.6z"/><path fill="#2c2a20" d="M1457 1121l-351.5-257.7-718.8 78.1z"/><path fill="#f0fbff" d="M1808.6 464.8l15.6 179.7-62.5-132.8z"/><path fill="#82807f" d="M1629 82l-578.2 31.3L832 472.7z"/><path fill="#939185" d="M-121 793l62.4-718.8 289-62.5z"/><path fill="#bfbeba" d="M1254 363.3l375 367.2-211 7.8z"/><path fill="#edf3f4" d="M519.5 464.8l203.2 23.5 7.8-179.7z"/><path fill="#787a7d" d="M1246 707l-70.2 54.7 39-273.4z"/><path fill="#bab5a9" d="M82 175.8l554.7-62.5-414 421.9z"/><path fill="#919797" d="M2121 824.2l-492-125 359.3-125z"/><path fill="#403b2d" d="M230.5 527.3l367.2 593.8-718.8-554.7z"/><path fill="#a19c98" d="M1464.8 574.2l250-156.2-367.1 39z"/><path fill="#5d5953" d="M629 918L238.2 543l250 7.8z"/><path fill="#6b6560" d="M1855.5-82L753.9 214.8 261.7-121z"/><path fill="#969a9b" d="M1277.3 714.8L1254 832l304.7-31.2z"/><path fill="#c6c2c2" d="M1261.7 339.8l390.6 70.4-640.6 109.3z"/><path fill="#9fa6a8" d="M1785.2 199.2l335.9-125L1925.8 254z"/><path fill="#878c94" d="M886.7 660.2l125 46.8 46.9-406.2z"/><path fill="#d5dce1" d="M1722.7 418l-86 39 109.4 195.3z"/><path fill="#90887a" d="M621 82l-679.6 31.3 336-109.4z"/><path fill="#3e3930" d="M1066.4 761.7v187.5L699.2 589.8z"/><path fill="#848380" d="M2121 300.8l-656.2-156.3L2121.1 582z"/><path fill="#73736f" d="M1957 894.5l-726.5-54.7L1746 738.3z"/><path fill="#1e1c12" d="M550.8 1011.7l-671.9-171.9 250 281.3z"/><path fill="#a9a2a1" d="M996 418l633-78.2-414.2-78z"/><path fill="#6a6b6c" d="M464.8 683.6L738.3 621l-54.7 179.7z"/><path fill="#a09f98" d="M293 519.5L19.5 543 82 152.3z"/><path fill="#909392" d="M1785.2 246l-31.3 375-62.5-335.8z"/><path fill="#a2afbe" d="M722.7 496L535.2 652.4 652.3 629z"/><path fill="#969692" d="M2121 668h-281.2l-54.6-351.6z"/><path fill="#ded7cb" d="M504 183.6l23.3 320.3 156.3-312.5z"/><path fill="#86817a" d="M777.3 355.5l195.4 78L621 89.9z"/><path fill="#b5c2d1" d="M1464.8 800.8l-148.4-23.5 54.7-23.4z"/><path fill="#574e3f" d="M355.5 535.2H-89.8l593.7 179.6z"/><path fill="#aba297" d="M425.8 50.8l-132.8 86 421.8 46.8z"/><path fill="#514e42" d="M277.3-58.6L-121 113.3l250-234.4z"/><path fill="#d8dee2" d="M1230.5 660.2l148.4-15.7 7.8-117.2z"/><path fill="#666661" d="M1691.4-58.6L1582 144.5 1996-121z"/><path fill="#676053" d="M1480.5 785.2l-78.2-39.1 195.4 7.8z"/><path fill="#3d3932" d="M738.3 597.7l39-156.3 23.5 328.1z"/><path fill="#8c8f92" d="M1254 199.2l867-132.8-445.2 211z"/><path fill="#dce4ec" d="M1824.2 644.5l-23.4-109.3-23.5 101.5z"/><path fill="#4c504d" d="M1816.4 972.7l226.6-86h-547z"/><path fill="#797465" d="M1293 707l-47 39 125-23.3z"/><path fill="#a2a5a2" d="M1339.8 550.8l70.4 226.5-70.4-101.5z"/><path fill="#bfc2c0" d="M1644.5 441.4v86l172-148.5z"/><path fill="#7a7a7a" d="M941.4 246L785.2 613.4l140.6 70.3z"/><path fill="#bac8d9" d="M1175.8 496l-70.3 179.8 54.7 70.3z"/><path fill="#50514e" d="M613.3 933.6l-164-86 304.6-164z"/><path fill="#989894" d="M1738.3 355.5l-203.1 117.2 7.8 85.9z"/><path fill="#d0d7dd" d="M1238.3 785.2L1332 543l-86 70.3z"/><path fill="#514e48" d="M754 332l46.8 39-54.7 62.6z"/><path fill="#c9c3b8" d="M261.7 168l234.4 179.7L347.7 418z"/><path fill="#9ba6b5" d="M1121 738.3l-23.3-343.8L988.3 668z"/><path fill="#3a3325" d="M2074.2 894.5l-218.7-93.7 250 31.2z"/><path fill="#717373" d="M722.7 613.3l-47-39 47-31.3z"/><path fill="#797263" d="M519.5 652.3l39-125-289-7.8z"/><path fill="#b2afac" d="M1261.7 488.3l226.6-93.8 78.1 226.6z"/><path fill="#d5d3d3" d="M1457 402.3l-289 93.8 132.8-101.6z"/><path fill="#7b7367" d="M308.6-121l-289 78 703 132.8z"/><path fill="#dedad1" d="M754 496l-250-7.7L449.1 371z"/><path fill="#4f4b46" d="M1121 894.5l-7.7-156.2L918 691.4z"/><path fill="#828380" d="M1847.7 269.5l-109.4 218.8 328.1-273.5z"/><path fill="#2e2b21" d="M777.3 957l820.4 31.3-523.5 132.8z"/><path fill="#949291" d="M855.5 496l500-250-297 54.8z"/><path fill="#778791" d="M1839.8 636.7L1793 668l-47-31.3z"/><path fill="#595649" d="M1683.6 769.5l31.2-39 78.2 31.2z"/><path fill="#d6dfe3" d="M1761.7 472.7l31.3 164 15.6-148.4z"/><path fill="#8b8a8e" d="M1207 722.7l15.7-226.6-47 86z"/><path fill="#93928a" d="M35.2 105.5l70.3 421.8-226.6 31.3z"/><path fill="#aba18f" d="M464.8 254v93.7L418 246z"/><path fill="#b2b5b3" d="M1300.8 636.7l-15.6 70.3 171.8 15.7z"/><path fill="#737371" d="M1214.8 707l-39 39 132.8 125z"/></g></svg>