<svg xmlns="http://www.w3.org/2000/svg" viewBox="0 0 16 8"><path fill="#817e7a" d="M0 0h16v8H0z"/><g fill-opacity=".5"><path d="M21.5 23.5l-5-16-32-5z"/><path fill="#d0cdcc" d="M.5 2.5l15 3 13-5z"/><path fill="#59554f" d="M5.5 6.5l13-18-8-4z"/><path fill="#d6d2c1" d="M-1.5.5h7v4z"/><path fill="#2e2717" d="M6.5 23.5l-3-19-19 1z"/><path fill="#84838d" d="M13.5.5l12 17 6-33z"/><path fill="#c9c7c8" d="M9.5 4.5l3-1-1 2z"/><path fill="#2b2620" d="M24.5 23.5h-11l-7-19z"/><path fill="#76715f" d="M1.5 3.5l-17 1 15-20z"/><path fill="#5e5c5d" d="M9.5 6.5l10 9 12-5z"/><path fill="#bbb8ba" d="M12.5 5.5l-4-3 6 2z"/><path fill="#6f6d6b" d="M6.5 1.5l19-5-23-8z"/><path fill="#605b4e" d="M2.5 4.5l2 1-1 1z"/><path fill="#918f94" d="M12.5 1.5l13-6 1 13z"/><path fill="#2a261d" d="M13.5 20.5l-27-17 16 2z"/><path fill="#a6a398" d="M7.5 4.5l-23-6v-9z"/><path fill="#7e7a7a" d="M22.5-15.5l-14 18 7-18z"/><path fill="#d8d5cb" d="M3.5 2.5l2 1-2-5z"/><path fill="#8d887b" d="M3.5 1.5l6-13-6-4z"/><path fill="#b7b4b4" d="M8.5 5.5l9-3h-9z"/><path fill="#868488" d="M24.5-15.5l-9 20 6 10z"/><path fill="#5b564f" d="M8.5.5l-12-16 5 13z"/><path fill="#efede4" d="M5.5 3.5l-1-2h-1z"/><path fill="#b5b1a5" d="M1.5 1.5l1-4 2 6z"/><path fill="#847f71" d="M-10.5-4.5l12-5 4 10z"/><path fill="#555146" d="M.5 4.5l-12 12-4-9z"/><path fill="#5c5a5f" d="M13.5 6.5l9 11-7 3z"/><path fill="#9e9b9e" d="M12.5 5.5h19l-5-4z"/><path fill="#807f7d" d="M9.5 5.5l2 1v-1z"/><path fill="#828083" d="M15.5 2.5l15 2 1-12z"/><path fill="#43403e" d="M8.5 6.5l23 17-5-13z"/><path fill="#827f7f" d="M25.5-15.5h-8l-10 20z"/><path fill="#696668" d="M8.5.5l2-8 21 3z"/><path fill="#3f3b31" d="M7.5 6.5l-1 2h-5z"/><path fill="#29241b" d="M2.5 7.5l-7 16-11-29z"/><path fill="#888680" d="M5.5 3.5h2v1z"/><path fill="#c9c7c9" d="M14.5 3.5h-2l2 1z"/><path fill="#3a352c" d="M1.5 5.5l5 18-5-4z"/><path fill="#292624" d="M8.5 7.5l-4 7-7-2z"/><path fill="#d5d3d2" d="M13.5 4.5l15 5 3-4z"/><path fill="#514e46" d="M6.5 4.5l-5 9h3z"/><path fill="#3b3731" d="M7.5 6.5l-12 13-11-3z"/><path fill="#716e68" d="M6.5 3.5l9-10v-9z"/><path fill="#ccc8be" d="M2.5 1.5l1 1v-1z"/><path fill="#9d9a9e" d="M11.5 3.5l1-3h2z"/><path fill="#89878c" d="M13.5 2.5l9-11-3-7z"/><path fill="#777371" d="M8.5 1.5l23-16-11 1z"/><path fill="#817f85" d="M15.5.5l-3-14-11 6z"/><path fill="#2b2822" d="M7.5 7.5l21 2-18 11z"/><path fill="#787468" d="M3.5 3.5h-1v1z"/><path fill="#767478" d="M13.5 5.5l18 5-3-5z"/><path fill="#898888" d="M14.5 6.5l6-6h8z"/><path fill="#3d3c3b" d="M11.5 7.5l7 11-33 2z"/><path fill="#6b675c" d="M1.5 4.5l-17 8 5-6z"/><path fill="#514d4a" d="M7.5 5.5l7 3 2 6z"/><path fill="#3b3633" d="M9.5 7.5l-15 11 24-7z"/><path fill="#3c3b3b" d="M11.5 7.5l-4 16 7-5z"/><path fill="#868376" d="M1.5.5l1-10 8-6z"/><path fill="#423c35" d="M1.5 6.5v-1h2z"/><path fill="#423f38" d="M6.5 5.5l-5 13-7 1z"/><path fill="#999589" d="M.5 1.5l-3 4-13-4z"/><path fill="#c2bfbb" d="M9.5 3.5l1 2h1z"/><path fill="#b3afb4" d="M14.5 4.5l14 1 3 7z"/><path fill="#434343" d="M10.5 7.5l-8 7 21 9z"/><path fill="#adaaa7" d="M8.5 5.5l1-1h1z"/><path fill="#444246" d="M15.5 7.5l-12 14 2-12z"/><path fill="#b1afaf" d="M12.5 2.5l-1 3h1z"/><path fill="#beb9ad" d="M1.5 2.5l-17 8 5-7z"/><path fill="#2e2922" d="M.5 6.5l14 13 17-4z"/><path fill="#6b6a6c" d="M11.5.5l12-13h-7z"/><path fill="#535154" d="M-1.5 18.5l28 1-12-12z"/><path fill="#aca9aa" d="M11.5 2.5l-2-1h2z"/><path fill="#86837e" d="M8.5 2.5h-1l-1-1z"/><path fill="#959288" d="M4.5.5l-1-10-9-6z"/><path fill="#3e3b35" d="M7.5 6.5l-23 9h22z"/><path fill="#919093" d="M16.5 3.5l14-19-3 39z"/><path fill="#918f93" d="M11.5 2.5l15-12-6 9z"/><path fill="#848288" d="M10.5-15.5h21l-14 18z"/><path fill="#89888a" d="M13.5 3.5l18-11v10z"/><path fill="#514f4f" d="M13.5 7.5l11 3-17 13z"/><path fill="#a09c91" d="M.5 1.5l-14 3-2 9z"/><path fill="#6a6563" d="M8.5.5l2-16 7 4z"/><path fill="#6c6962" d="M8.5 1.5l-9-13-15-4z"/><path fill="#969489" d="M6.5 1.5l-4-4v-3z"/><path fill="#79776f" d="M4.5.5l9-16h-5z"/><path fill="#615d5a" d="M14.5-8.5l-7 9-2-16z"/><path fill="#706f75" d="M12.5.5l2-9 7-7z"/><path fill="#363129" d="M3.5 7.5l-19 8 21 4z"/><path fill="#29241c" d="M2.5 7.5l8 11-26 2z"/><path fill="#312c24" d="M.5 6.5l-7-2 3-10z"/><path fill="#2a2619" d="M.5 5.5l-7-5-2-14z"/><path fill="#767370" d="M8.5 1.5l7-6-1-6z"/><path fill="#737276" d="M11.5.5l-4-16h-6z"/><path fill="#434038" d="M5.5 7.5l-7 10 20 6z"/><path fill="#454447" d="M12.5 7.5l7 16-10-10z"/><path fill="#2a241d" d="M.5 6.5h-15l15 11z"/><path fill="#736f6b" d="M9.5.5v-16l7 4z"/><path fill="#878588" d="M14.5 2.5l15-4-3-3z"/><path fill="#6c695d" d="M5.5.5l3-10 5-1z"/><path fill="#bebcba" d="M9.5 2.5h2v3z"/></g></svg>