<svg xmlns="http://www.w3.org/2000/svg" viewBox="0 0 400 200"><path fill="#7f7d7a" d="M0 0h400v200H0z"/><g transform="translate(.8 .8) scale(1.5625)" fill-opacity=".5"><ellipse fill="#130d05" cx="59" cy="127" rx="63" ry="63"/><ellipse fill="#fffdf0" cx="62" cy="48" rx="34" ry="34"/><ellipse fill="#d3d5da" cx="180" cy="63" rx="44" ry="44"/><ellipse fill="#100802" cx="131" cy="127" rx="35" ry="35"/><ellipse fill="#312e29" cx="196" cy="127" rx="33" ry="33"/><ellipse fill="#1d1609" cx="12" cy="104" rx="36" ry="36"/><ellipse fill="#c3bcab" cx="29" cy="36" rx="32" ry="32"/><ellipse fill="#c5ced3" cx="230" cy="73" rx="23" ry="23"/><ellipse fill="#8c93a0" cx="76" cy="82" rx="17" ry="17"/><ellipse fill="#1b201e" cx="250" cy="127" rx="24" ry="24"/><ellipse fill="#bcc2cd" cx="149" cy="69" rx="28" ry="28"/><ellipse fill="#49423b" cx="44" cy="93" rx="27" ry="27"/><ellipse fill="#fcf9f4" cx="76" cy="49" rx="18" ry="18"/><ellipse fill="#5a534e" cx="116" rx="34" ry="34"/><ellipse fill="#74706f" cx="172" cy="6" rx="35" ry="35"/><ellipse fill="#94999a" cx="237" cy="34" rx="32" ry="32"/><ellipse fill="#38312c" cx="111" cy="115" rx="29" ry="29"/><ellipse fill="#a5afbd" cx="80" cy="75" rx="10" ry="10"/><ellipse fill="#d0d9e3" cx="221" cy="72" rx="13" ry="13"/><ellipse fill="#cfcbc7" cx="176" cy="67" rx="20" ry="20"/><ellipse fill="#717676" cx="223" cy="104" rx="16" ry="16"/><ellipse fill="#bdb6ac" cx="39" cy="42" rx="26" ry="26"/><ellipse fill="#2a251e" cx="15" cy="127" rx="43" ry="43"/><ellipse fill="#707272" cx="158" cy="101" rx="12" ry="12"/><ellipse fill="#2f2b25" cx="192" cy="127" rx="16" ry="16"/></g></svg>