<svg xmlns="http://www.w3.org/2000/svg" viewBox="0 0 256 128"><path fill="#807e7b" d="M0 0h256v128H0z"/><g fill-opacity=".5"><path fill="#060000" d="M-1.5 67.5l3 76 270-16z"/><path fill="#d6d6d9" d="M271.5 53.5l-98 57-189-91z"/><path fill="#f1e9db" d="M95.5 68.5l-10-60-101 55z"/><path fill="#4c4742" d="M154.5-15.5l-59 159-1-159z"/><path fill="#bec0c5" d="M183.5 16.5l-57 68 145 15z"/><path fill="#b5ae9d" d="M1.5 69.5l87-58-90-2z"/><path fill="#595958" d="M269.5 97.5l-167-5 167 51z"/><path fill="#716e69" d="M-15.5 50.5l95 60 17-27z"/><path fill="#949596" d="M265.5 65.5l6-64-168 30z"/><path fill="#211a0c" d="M67.5 122.5l-83 20v-76z"/><path fill="#e3e4e5" d="M98.5 35.5l-20 57-15-75z"/><path fill="#332d25" d="M93.5 63.5l77 73-77-2z"/><path fill="#6f6966" d="M253.5-4.5l-141 45-79-56z"/><path fill="#99a1af" d="M108.5 83.5l23-50 54 73z"/><path fill="#443c2f" d="M59.5 133.5l-75-65 72 1z"/><path fill="#e5e4e5" d="M158.5 50.5l1 43 21-19z"/><path fill="#919494" d="M267.5 105.5l-36-7 6-114z"/><path fill="#2d2f2b" d="M246.5 143.5l-2-40 27 2z"/><path fill="#bcb5a9" d="M25.5 68.5l-17-47 73-5z"/><path fill="#e5f3ff" d="M217.5 50.5l6 31-13 1z"/><path fill="#828b9c" d="M79.5 100.5l15-35-31 15z"/><path fill="#838284" d="M142.5 6.5l-13 84-29-12z"/><path fill="#9f9e97" d="M41.5 66.5l-37-55-12 58z"/><path fill="#413d2a" d="M63.5-5.5l-79-10 6 23z"/><path fill="#4c4744" d="M154.5 98.5l-59-18-35 33z"/><path fill="#504c47" d="M94.5 76.5l10-11-9-35z"/><path fill="#f1f1ef" d="M60.5 65.5l34-9-4-29z"/><path fill="#c1ccde" d="M150.5 95.5l-13-7 13-41z"/><path fill="#a6a39e" d="M173.5 57.5l35-1 6 47z"/><path fill="#6b6c6d" d="M147.5 109.5l11-13-3-31z"/><path fill="#ecf5ff" d="M225.5 63.5l6-5v24z"/><path fill="#cec8c7" d="M138.5 56.5l28 10 27-24z"/><path fill="#848380" d="M271.5 4.5l-47 54 47 13z"/><path fill="#71706f" d="M223.5 92.5l-66 19 95 3z"/><path fill="#b8bdc2" d="M175.5 92.5l8 10-26-4z"/><path fill="#8a8789" d="M242.5 16.5l-75-7-58 42z"/><path fill="#aab1b6" d="M223.5 74.5l14 25 18 4z"/><path fill="#9a9585" d="M18.5 2.5l50 3-84 27z"/><path fill="#7a706a" d="M94.5-7.5l-20 8 33 58z"/><path fill="#36342e" d="M187.5 117.5l72 8-115 18z"/><path fill="#9e9c9c" d="M211.5 48.5l60-35-128 24z"/><path fill="#696a70" d="M81.5 107.5l12-27-34 5z"/><path fill="#7a7267" d="M76.5 66.5l-11 18-22-17z"/><path fill="#c7c1b7" d="M75.5 65.5l-44-48-2 50z"/><path fill="#b2b8c2" d="M227.5 78.5l-17 18-17-2z"/><path fill="#b8afa0" d="M65.5 13.5l-34 1 29 28z"/><path fill="#201b14" d="M-14.5 107.5l76 20-73 16z"/><path fill="#99a2b0" d="M68.5 81.5l11-17 12 16z"/><path fill="#777471" d="M121.5 88.5l-19-66-1 58z"/><path fill="#d1d7dd" d="M213.5 87.5l-3-30 13-6z"/><path fill="#93979a" d="M212.5 46.5l13 13v11z"/><path fill="#ddd5c7" d="M56.5 67.5l11-47 23 6z"/><path fill="#a09f9c" d="M224.5 47.5l-26 21h-32z"/><path fill="#302b25" d="M181.5 143.5l-126-22 70-9z"/><path fill="#cacac5" d="M166.5 49.5h51l-23 8z"/><path fill="#9d9c9a" d="M226.5 41.5l45 40-35-2z"/><path fill="#7a7772" d="M232.5 99.5l-66-7 49 20z"/><path fill="#7f7f7d" d="M214.5 23.5l47 15 4 29z"/><path fill="#6b6660" d="M182.5-.5l-61 23-87-24z"/><path fill="#8d857b" d="M43.5-5.5l36 11 22 30z"/><path fill="#525150" d="M77.5 119.5l-34-21 54-6z"/><path fill="#f2f7ff" d="M227.5 81.5h6l-2-9z"/><path fill="#f1f5fb" d="M92.5 66.5l-15-17 14-5z"/><path fill="#3c342d" d="M122.5 121.5l-2-29-30-19z"/><path fill="#dbdee7" d="M165.5 70.5l-7 9 1 19z"/><path fill="#55595b" d="M252.5 112.5l-7 12-39-11z"/><path fill="#9a9890" d="M3.5 14.5l19 52-38 3z"/><path fill="#878677" d="M3.5 6.5l23-4-42 38z"/><path fill="#fdffff" d="M178.5 83.5l-2-14-2 13z"/><path fill="#807f76" d="M175.5 92.5l-11 5-3-6z"/><path fill="#7b7878" d="M228.5 8.5l-84-1-52 37z"/><path fill="#879096" d="M271.5 36.5l-57-25 51-27z"/><path fill="#89898e" d="M150.5 86.5l2-22 4 11z"/><path fill="#aca9a2" d="M15.5 66.5l-7-39 42 38z"/><path fill="#868e96" d="M223.5 70.5l-1 21 6-2z"/><path fill="#a69f95" d="M58.5 7.5l-44 11 73 3z"/><path fill="#777674" d="M150.5 99.5l8 9 19-1z"/><path fill="#b2abab" d="M200.5 43.5l-80 15 41-21z"/><path fill="#b6b5b3" d="M210.5 72.5l-1 21-51-35z"/><path fill="#d4d1cd" d="M91.5 59.5l-40-2 37 14z"/><path fill="#8b8b88" d="M254.5 49.5l-52-2 23-15z"/><path fill="#584d3c" d="M22.5 85.5l17-17-32 1z"/><path fill="#9b999a" d="M123.5 65.5l49-37-48 19z"/><path fill="#413b33" d="M240.5 103.5l13-1 13 16z"/><path fill="#abb0b8" d="M189.5 102.5l-29-1 16-6z"/><path fill="#514d49" d="M207.5 119.5h-51l11-12z"/><path fill="#67645f" d="M220.5 90.5l17 9-26-2z"/><path fill="#9c9fa1" d="M210.5 89.5l27-9 34 26z"/><path fill="#36312b" d="M65.5 116.5h-43l-12-38z"/><path fill="#504b4a" d="M94.5 61.5l5-14 2 24z"/><path fill="#c7c7c6" d="M229.5 53.5l-11-1-9 9z"/><path fill="#97a2b4" d="M125.5 85.5l8-30 8 38z"/><path fill="#9c9992" d="M93.5 46.5l1-14 4 10z"/><path fill="#5b5857" d="M95.5 90.5l-9 15 5-35z"/><path fill="#675e55" d="M62.5 70.5l-5 21-15-22z"/><path fill="#8c8d8b" d="M251.5 49.5l-5 52 25 6z"/><path fill="#686765" d="M202.5 18.5l53-34h-32z"/><path fill="#d1cdcf" d="M145.5 65.5l15-15 30-2z"/><path fill="#939392" d="M198.5 59.5l-1 13 14-19z"/><path fill="#ddd8cc" d="M73.5 63.5l-17-13 29-27z"/></g></svg>