<svg xmlns="http://www.w3.org/2000/svg" viewBox="0 0 400 200"><path fill="#d2d2d3" d="M0 0h400v200H0z"/><path fill-opacity=".5" d="M143-13.3v93.8H46v-93.8z"/><path fill="#300000" fill-opacity=".5" d="M152 17.2l-34.3 73.6L37 53.2l34.3-73.7z"/><path fill="#f6fafd" fill-opacity=".5" d="M407.6 200.6l-245.3-4.3 3.5-198.4 245.3 4.3z"/><path fill="#f9feff" fill-opacity=".5" d="M115.4 180.6L45 218-48.2 42.8 22.2 5.4z"/><path fill="#808c89" fill-opacity=".5" d="M154.6 51.1L171.8 81l-71.7 41.4-17.2-29.8z"/><path fill="#e4e7ea" fill-opacity=".5" d="M-31.5 146l71.2-91 152.7 119.2-71.2 91.2z"/><path fill="#4a2418" fill-opacity=".5" d="M134.8 40.4L88.8 85 35.4 30l46.1-44.5z"/><path fill="#828b84" fill-opacity=".5" d="M84.3 108.4l-7.3-19L148.5 62l7.3 19z"/><path fill="#fbfeff" fill-opacity=".5" d="M207 124.2l78.8-19.6 18.2 72.7-79 19.7z"/><path fill="#f2f9fd" fill-opacity=".5" d="M28.9 63.3L-18.4 47 4-18 51.2-1.7z"/><path fill="#cfd6da" fill-opacity=".5" d="M128.4-46.1l12.1-3 39 156.1-12.2 3z"/><path fill="#d5d7d8" fill-opacity=".5" d="M304 79.7h106.2v151.6H303.9z"/><path fill="#420209" fill-opacity=".5" d="M122.7 72.6l-24.3-6 24.2-97 24.3 6z"/><path fill="#d3e5e1" fill-opacity=".5" d="M116.6 81l-1.1-1L185 8l1 1.1z"/><path fill="#f1f3f3" fill-opacity=".5" d="M139.5-51.5l138.3 96.8-25.1 35.9-138.3-96.8z"/><path fill="#92a69c" fill-opacity=".5" d="M140.3 73.5l-.9-48.4L152 25l.9 48.4z"/><path fill="#a0a1a5" fill-opacity=".5" d="M-51.6 147.6l264-4.6v1.6l-264 4.6z"/><path fill="#a2c2be" fill-opacity=".5" d="M19.7 86l-.2-3 93.6-5 .2 3.1z"/><path fill="#677850" fill-opacity=".5" d="M63.2-31.4l61.9 62-5.5 5.4-61.9-61.8z"/><path fill="#e9ebec" fill-opacity=".5" d="M198.3 148.1l3.3 95.3-198.3 7L0 155z"/><path fill="#6b6962" fill-opacity=".5" d="M141.5 85.9L111 101.5l-7.1-14L134.4 72z"/><path fill="#262d15" fill-opacity=".5" d="M67.5 79l1-26.5 37.4 1.3-1 26.5z"/><path fill="#58564d" fill-opacity=".5" d="M68 16.2l-3.3 31.1-24.9-2.6 3.3-31z"/><path fill="#dfbfe4" fill-opacity=".5" d="M86.5 35.4l-5.9 2-3-8.8 5.9-2z"/><path fill="#939597" fill-opacity=".5" d="M414.8 147.7H302.3v-3.2h112.5z"/><path fill="#a8aaab" fill-opacity=".5" d="M321.8 79v1.5L189.2 85v-1.5z"/><path fill="#9bbd72" fill-opacity=".5" d="M108.6 31.2l-2.5 4L93 26.5l2.5-4z"/><path fill="#100000" fill-opacity=".5" d="M113.6 38.7l23.9 14.9-5.8 9.3-23.9-15z"/><path fill="#e46788" fill-opacity=".5" d="M104.4 61.8l4.1-8.4 4.3 2-4.2 8.4z"/><path fill="#3b0e0c" fill-opacity=".5" d="M142 21.2l-65 9L75.2 18l65-9.1z"/><path fill="#e1e7e9" fill-opacity=".5" d="M144.8 5.9l40.6.7-.5 29.7-40.6-.7z"/><path fill="#c5c9cb" fill-opacity=".5" d="M61.5 70.2l64.6 54.2-11 13.2-64.7-54.2z"/><path fill="#c2c4c9" fill-opacity=".5" d="M150 107l-13.8-19 34.1-24.7 13.8 19z"/><path fill="#abadad" fill-opacity=".5" d="M415.6 22.6L285.9 18l.1-1.5L415.6 21z"/><path fill="#8b9a79" fill-opacity=".5" d="M90.9 20.2L88 19l7-15.7 3 1.2z"/><path fill="#a1aaab" fill-opacity=".5" d="M218 18.3l-78 4-.1-1.5 78-4z"/><path fill="#c5dfd6" fill-opacity=".5" d="M78 94l-.5-1.4 46-19.5.6 1.4z"/><path fill="#56aaa9" fill-opacity=".5" d="M38.7 37.5l4.4-1.7 7.3 19-4.4 1.6z"/><path fill="#eaeef1" fill-opacity=".5" d="M40.7 59.7L-3 57.4 1.5-27 45-24.6z"/><path fill="#adafb0" fill-opacity=".5" d="M320.3 80.4l85.9-1.5v4.7l-85.8 1.5z"/><path fill="#dc4e80" fill-opacity=".5" d="M102.1 49.5l-5.9 2-3-8.8 5.9-2z"/><path fill="#cb8baf" fill-opacity=".5" d="M78.5-4.3l-3.9 16.8-1.5-.4L77-4.6z"/><path fill="#991530" fill-opacity=".5" d="M133.8-1.2l8 11.5-11.5 8-8-11.4z"/><path fill="#5f1d27" fill-opacity=".5" d="M130.8 34.5l12 7.4L127 67.1l-12-7.5z"/><path fill="#1d0200" fill-opacity=".5" d="M84.7 55.3l-8.8-6.6 16-21.2 8.7 6.6z"/><path fill="#225c4e" fill-opacity=".5" d="M62-2.8L67.2 3 49 20l-5.3-5.6z"/><path fill="#5ba349" fill-opacity=".5" d="M78 71.1l-.8-3 12-3.3.8 3z"/><path fill="#40050e" fill-opacity=".5" d="M104 80.3l-15.6-27 12.2-7 15.6 27z"/><path fill="#9fba74" fill-opacity=".5" d="M110.3 8.3L104.2 7l2.7-13.8 6.1 1.2z"/><path fill="#bebfbf" fill-opacity=".5" d="M193.8 21.1v-1.5l92.1-1.7v1.6z"/><path fill="#010000" fill-opacity=".5" d="M102 37.5l14.2-6.6 5.2 11.3-14.1 6.6z"/><path fill="#a9b0b3" fill-opacity=".5" d="M-34.4 19v-1.6l76.6 2.7v1.5z"/><path fill="#55a99f" fill-opacity=".5" d="M49 55l13.1 13.4-3.4 3.3-13-13.5z"/><path fill="#de9fc3" fill-opacity=".5" d="M132.2 42.6l-1.5.5-2-6 1.5-.5z"/><path fill="#2c0000" fill-opacity=".5" d="M57 60l3.2-20 9.3 1.5-3.2 20z"/><path fill="#d4d6db" fill-opacity=".5" d="M178 112.3l-1.4 26.5L67.3 133l1.4-26.6z"/><path fill="#030200" fill-opacity=".5" d="M141.4 16.5l-3.2 20-9.3-1.4 3.2-20z"/><path fill="#b4b5bc" fill-opacity=".5" d="M87 95.8l59.4 2.1-.6 17.2-59.4-2z"/><path fill="#e6e8e9" fill-opacity=".5" d="M371.9 85.2v53h-76.6v-53z"/><path fill="#b64561" fill-opacity=".5" d="M54.8 19.8l.8-1.4 19.3 10.3L74 30z"/><path fill="#787b75" fill-opacity=".5" d="M121.8 92l-33.7 6.5L86 87.8l33.7-6.6z"/><path fill="#2d0301" fill-opacity=".5" d="M75 14.5l32.6-4 .2 1.6-32.6 4z"/><path fill="#231505" fill-opacity=".5" d="M125.5-5.9l6.4 4.5-21.5 30.7-6.4-4.5z"/><path fill="#f2f5fb" fill-opacity=".5" d="M267 200.5l-51.6-2.7 3.6-68.6 51.5 2.7z"/><path fill="#f5f6f7" fill-opacity=".5" d="M274.2 16.4H158.6v-31.2h115.6z"/><path fill="#f2f4f5" fill-opacity=".5" d="M174 40l.4-18.7L327.5 24l-.3 18.7z"/><path fill="#997e6b" fill-opacity=".5" d="M86.1 18.6l-.2-1.5 23.3-2.9.2 1.6z"/><path fill="#eaecee" fill-opacity=".5" d="M28 109.8L7 64.5 42.3 48l21.1 45.3z"/><path fill="#00090a" fill-opacity=".5" d="M127.2 66.2l-14 9.9-4.5-6.4 14-9.9z"/><path fill="#2f0003" fill-opacity=".5" d="M106.6 21l-1 7.7L70 24.3l1-7.7z"/><path fill="#768b4c" fill-opacity=".5" d="M61.8 32.2l16.7 20.6-1.2 1L60.6 33z"/><path fill="#d595ab" fill-opacity=".5" d="M130.1-.5l1.6-.3 2.2 9-1.5.4z"/><path fill="#b1aeb0" fill-opacity=".5" d="M70.2 85l-129.6-4.5V79l129.7 4.5z"/><path fill="#243600" fill-opacity=".5" d="M51.7 40.9l9.9-14.1 3.8 2.7-9.8 14z"/><path fill="#644334" fill-opacity=".5" d="M135.8 45l-1.5.4-21.7-66.9 1.5-.5z"/><path fill="#888279" fill-opacity=".5" d="M142.7 72.9l-6-2.2 9.7-26.4 5.9 2.1z"/><path fill="#bfc1c2" fill-opacity=".5" d="M161.8 32.2l14.7 27.6-18 9.5L144 41.8z"/><path fill="#540b14" fill-opacity=".5" d="M136.6 3.5l-.1 1.6-81-7 .2-1.6z"/><path fill="#320500" fill-opacity=".5" d="M82.1 3.4l25.9 25-1 1-26-25z"/><path fill="#972141" fill-opacity=".5" d="M63 58l2.4-7.4 7.4 2.3-2.2 7.4z"/><path fill="#874f62" fill-opacity=".5" d="M120.8 19.6l6.5 6.8-9 8.7-6.5-6.8z"/><path fill="#d5f7ef" fill-opacity=".5" d="M104.6 81.7l.1 1.5-26.5 2.3V84z"/><path fill="#e1e3e5" fill-opacity=".5" d="M216.6 145.2l-82.8-3 1.2-32.7 82.7 2.9z"/><path fill="#d8f1ec" fill-opacity=".5" d="M146 49.6l-17.3 22.1-1.3-1 17.4-22.1z"/><path fill="#78c175" fill-opacity=".5" d="M91 4.6l11.4 5.1-1.2 2.9-11.5-5.1z"/><path fill="#7f0415" fill-opacity=".5" d="M44.7 26.6l27.4-6.3.4 1.5L45 28.1z"/><path fill="#dcdfe0" fill-opacity=".5" d="M332.8 207.6l-68.6 3.6-1.7-32.8 68.6-3.6z"/><path fill="#7f3a4c" fill-opacity=".5" d="M46.4 31.2l-1-1 44.1-44.3 1.1 1.1z"/><path fill="#ad7a75" fill-opacity=".5" d="M55.4 46.9l5-11.6 1.4.7-5 11.5z"/><path fill="#f0f4fa" fill-opacity=".5" d="M295.9 129.6l16.2 42.3-40.8 15.7-16.2-42.3z"/><path fill="#bec0c1" fill-opacity=".5" d="M157 86v-1.5L347.6 81v1.6z"/><path fill="#60a19e" fill-opacity=".5" d="M106 83.3l-29.4-4.1.2-1.6 29.4 4.2z"/><path fill="#edefef" fill-opacity=".5" d="M154.6 14.3l-2.3 2-17.8-19.7 2.3-2z"/><path fill="#a3a4a5" fill-opacity=".5" d="M217 144.1l.2 1.5-13.8 2.5-.3-1.6z"/><path fill="#e5e6e7" fill-opacity=".5" d="M197.9 157.6l1 61L.6 222l-1-60.9z"/><path fill="#000201" fill-opacity=".5" d="M76 73.7l24.8 2.6-.2 1.6-24.8-2.6z"/><path fill="#74614b" fill-opacity=".5" d="M87 52l1 1.2-23.4 18.3-1-1.3z"/><path fill="#72222d" fill-opacity=".5" d="M105.2 75l-4.7-4.1 14.7-16.3 4.6 4.2z"/><path fill="#646850" fill-opacity=".5" d="M86 38.6l-.1-3.1 17.2-.6v3z"/><path fill="#361006" fill-opacity=".5" d="M47 33.4l42.6 9.8-.7 3-42.6-9.8z"/><path fill="#686758" fill-opacity=".5" d="M117 88.4l-3-3.6L140.9 63l3 3.7z"/><path fill="#270c0d" fill-opacity=".5" d="M51.4 54.2l6.3-7L75.1 63 69 70z"/><path fill="#919294" fill-opacity=".5" d="M116.3 97.4L144 77.2l3.7 5-27.8 20.3z"/><path fill="#050000" fill-opacity=".5" d="M119.8 33l6.5 15.9-10.2 4-6.4-15.9z"/><path fill="#ebedee" fill-opacity=".5" d="M183.7 80.3L182 33.5l82.8-2.9 1.6 46.8z"/><path fill="#c2859c" fill-opacity=".5" d="M124.6 58.6l-1.4.8-2.4-4 1.3-.8z"/><path fill="#b8babc" fill-opacity=".5" d="M411.7 146v1.5l-109.3 1.9v-1.6z"/><path fill="#568a90" fill-opacity=".5" d="M59.2-15.2L40.7 32.9l-1.4-.5 18.4-48.2z"/><path fill="#abbb7d" fill-opacity=".5" d="M108.7 33.6l-13.2-4.8.5-1.5 13.2 4.8z"/><path fill="#c7c7cc" fill-opacity=".5" d="M218 150.3L5.4 146.6V145l212.5 3.7z"/><path fill="#0a0000" fill-opacity=".5" d="M79.6 61l19.8-4.7.7 3L80.3 64z"/><path fill="#466325" fill-opacity=".5" d="M60.8 23.2l14.6 14L69 44 54.3 30z"/><path fill="#d5eeec" fill-opacity=".5" d="M64.5 81.8L38.2 59.7l2-2.4 26.3 22z"/><path fill="#f5f7f9" fill-opacity=".5" d="M45.2-11.9l-1.4 28.1-53-2.8 1.4-28z"/><path fill="#f4f6f6" fill-opacity=".5" d="M266.5 93.1l-71.9 1.3-.1-7.8 71.8-1.3z"/><path fill="#305140" fill-opacity=".5" d="M66.4 14.1l-15.5-1.9 3-24.8 15.5 2z"/><path fill="#fcbac6" fill-opacity=".5" d="M97.1 40.7l1.2 1-3.2 3.5-1.2-1z"/><path fill="#3a030a" fill-opacity=".5" d="M125 20.3l3.1 45.2-1.5.1-3.2-45.2z"/><path fill="#7b071e" fill-opacity=".5" d="M112.5 54.2l-14.9-8.6.8-1.4 14.9 8.6z"/><path fill="#bb799c" fill-opacity=".5" d="M89.5 11.8l1.4.6-3.8 8.6-1.4-.6z"/><path fill="#4e000d" fill-opacity=".5" d="M68.3 13.2l4.4-1.6L80.2 32l-4.4 1.6z"/><path fill="#78baaf" fill-opacity=".5" d="M143.2 49.2l-2-28 1.6-.1 2 28z"/><path fill="#876761" fill-opacity=".5" d="M51.1 32.7L44.4 17l2.9-1.2L54 31.5z"/><path fill="#518685" fill-opacity=".5" d="M43.4 55.4l.7-18.8 4.7.2-.7 18.7z"/><path fill="#92a584" fill-opacity=".5" d="M108.6 8.7l-1.5.5L102.3-4l1.5-.5z"/><path fill="#575c3e" fill-opacity=".5" d="M102.4 21.2l.2-1.5 27.8 4.4-.2 1.5z"/><path fill="#3f0010" fill-opacity=".5" d="M122.5 40.2L109.2 25l1.1-1 13.4 15.3z"/><path fill="#8a0013" fill-opacity=".5" d="M101.9 40.8l5.6 19.5-1.5.5-5.6-19.6z"/><path fill="#e3e5e7" fill-opacity=".5" d="M170.1 150.8l46.8-1.6 2 57.8-46.8 1.6z"/><path fill="#c6eee1" fill-opacity=".5" d="M138.2 63l-24 17.5-.9-1.3 24-17.5z"/><path fill="#c7c3da" fill-opacity=".5" d="M83.7 29l-.2 6.2-3.1-.1.2-6.2z"/><path fill="#eeeff0" fill-opacity=".5" d="M358.5 0l.2 15.6-87.5 1.6-.2-15.7z"/><path fill="#5e9e8a" fill-opacity=".5" d="M72.4 78.8l-1 1.2-17.2-13.5 1-1.2z"/><path fill="#d592a6" fill-opacity=".5" d="M64.4 24l7.5 2-.3 1.5-7.6-2z"/><path fill="#62141e" fill-opacity=".5" d="M119.8 26.4l1.1-1L141.2 47l-1.2 1.1z"/><path fill="#8b9080" fill-opacity=".5" d="M150.8 37.1l1.4.7-13.9 29.7-1.4-.6z"/><path fill="#d3b0b0" fill-opacity=".5" d="M106.3 54.7l2.7 3.8-1.2.9-2.8-3.8z"/><path fill="#457c34" fill-opacity=".5" d="M86.3 68.9L99 62.5l.7 1.4L87 70.3z"/><path fill="#a3a6a9" fill-opacity=".5" d="M143.7 82.5l48.4-2.5.1 1.5-48.4 2.6z"/><path fill="#b984a5" fill-opacity=".5" d="M76 6l-2 5.7-1.5-.5 2.2-6z"/><path fill="#48000f" fill-opacity=".5" d="M66.5 49.8l-1 1-21-20.9 1-1.1z"/><path fill="#c1e7e2" fill-opacity=".5" d="M53.7-26.2l1.5.5-19.8 69-1.5-.4z"/><path fill="#dcdee1" fill-opacity=".5" d="M164.2 25.8l26.5 47.8-9.6 5.3-26.5-47.8z"/><path fill="#4d0017" fill-opacity=".5" d="M82.6 43.5l-1.4-.6L94 14.3l1.5.6z"/><path fill="#000700" fill-opacity=".5" d="M100.8 6.3v-11h3.1v11z"/><path fill="#d0d4d8" fill-opacity=".5" d="M174.2 87l-4.8 34-23.2-3.3 4.7-34z"/><path fill="#43020b" fill-opacity=".5" d="M78 1l11 1.3-3 23.3-10.8-1.4z"/><path fill="#212d1e" fill-opacity=".5" d="M139.4 48.8l-16.7 20.6-1.2-1 16.7-20.6z"/><path fill="#edeef0" fill-opacity=".5" d="M-2.3 141.4V85.2h46.8v56.2z"/><path fill="#1d0000" fill-opacity=".5" d="M112.2 44.5L96.8 64.2l-1.2-1L111 43.7z"/><path fill="#2d0c0d" fill-opacity=".5" d="M144 16.2l-1.1 6.1-29.2-5.7 1.2-6z"/><path fill="#175a4f" fill-opacity=".5" d="M58.3 63.3l3.2-3.4 6.8 6.5-3.3 3.4z"/><path fill="#dda0c1" fill-opacity=".5" d="M130.5 42.2l-1.2 1-2-2.5 1.3-1z"/><path fill="#8e8482" fill-opacity=".5" d="M104.1 70.4l-1.8-4.3 1.4-.6 1.8 4.3z"/><path fill="#a3956f" fill-opacity=".5" d="M78 59.9l.3 3-4.7.7-.3-3.1z"/><path fill="#c5aab4" fill-opacity=".5" d="M65.8 13.3l-4.5 1.4-.5-1.5 4.5-1.4z"/><path fill="#d9d9da" fill-opacity=".5" d="M172.7 22.7v-6.3h43.7v6.3z"/><path fill="#ebedee" fill-opacity=".5" d="M177.3 93.7L395.9 86l.2 6.3-218.6 7.6z"/><path fill="#9fae82" fill-opacity=".5" d="M91.9 24.4l2.8 1.3-.6 1.4-2.9-1.2z"/><path fill="#150700" fill-opacity=".5" d="M119.7 1.9l7.4 25.5-1.5.4-7.4-25.5z"/><path fill="#debfce" fill-opacity=".5" d="M56.8 45.7l-1.4.6-1.3-2.9 1.5-.6z"/><path fill="#d3d4d6" fill-opacity=".5" d="M67.4 86.6l51.1 46-9.4 10.5-51-46z"/><path fill="#276360" fill-opacity=".5" d="M137.2 35.3l6.9-25.7 1.5.4-6.9 25.7z"/><path fill="#ca6f87" fill-opacity=".5" d="M65.8 54.4l1.7-2.6 2.6 1.6-1.6 2.7z"/><path fill="#000100" fill-opacity=".5" d="M87.9 24.1l4.6-1 2.4 10.6-4.5 1z"/><path fill="#f6f8fb" fill-opacity=".5" d="M281.4 101.7l13.9 29.8-59.5 27.7-13.9-29.7z"/><path fill="#85a986" fill-opacity=".5" d="M130.6 54.4l-3.1.5-.3-1.5 3.1-.5z"/><path fill="#6f0917" fill-opacity=".5" d="M106.8 51.3l-12-10 3-3.6 12 10z"/><path fill="#d8a7b5" fill-opacity=".5" d="M133.7 3.6l.8 1.4-4.1 2.3-.8-1.4z"/><path fill="#ced0d1" fill-opacity=".5" d="M414 22v1.6l-198.4-3.5v-1.5z"/><path fill="#e9ebec" fill-opacity=".5" d="M237.8 79.3L232 39l119.2-16.7 5.6 40.2z"/><path fill="#090000" fill-opacity=".5" d="M119.8 47l-2 23.3-1.6-.1 2-23.3z"/><path fill="#ebeff0" fill-opacity=".5" d="M147.5 15.6l-9.4-23.2 16-6.4 9.3 23.2z"/><path fill="#cacacf" fill-opacity=".5" d="M321.4 80.8L309 66.6l2.3-2 12.3 14.1z"/><path fill="#627e42" fill-opacity=".5" d="M85.8 67l.6 1.5-17.5 6.7-.6-1.5z"/><path fill="#700419" fill-opacity=".5" d="M136.3 38l4 2.3-6.2 10.8-4.1-2.3z"/><path fill="#d1d3d8" fill-opacity=".5" d="M267.4 193.3l50-22.3 1.2 2.9-50 22.2z"/><path fill="#a3a3a0" fill-opacity=".5" d="M96 92.6l-11 5.9-4.4-8.3 11-5.9z"/><path fill="#4a0813" fill-opacity=".5" d="M80 47.3l-1.4.4L65.2 1.2l1.5-.5z"/><path fill="#dbddde" fill-opacity=".5" d="M262.9 192l170.2-33.1 8.7 44.4-170.3 33.1z"/><path fill="#4a0000" fill-opacity=".5" d="M56.5 27.3L53 18.6l1.4-.6 3.5 8.7z"/><path fill="#200500" fill-opacity=".5" d="M73.7 67.7l31.7-13.4.6 1.4-31.7 13.5z"/><path fill="#b0d08e" fill-opacity=".5" d="M89.7 3.8l2.8-1.2.7 1.4-2.9 1.3z"/><path fill="#e9ebee" fill-opacity=".5" d="M399.3 160.7l-121.9 2-.1-6.2 121.9-2z"/><path fill="#390000" fill-opacity=".5" d="M79.3 54.6L67 66.8l-1-1.1 12-12.2z"/><path fill="#63894e" fill-opacity=".5" d="M127.9 35.1l.5-9.4 1.5.1-.5 9.4z"/><path fill="#d2c2c3" fill-opacity=".5" d="M108.3 53.8l1.9 2.4-1.3 1-1.9-2.5z"/><path fill="#666136" fill-opacity=".5" d="M102.5 31.5l-.8-1.3 6.8-4 .7 1.4z"/><path fill="#5a4a1d" fill-opacity=".5" d="M105.3 37l-1-1.2L112 30l1 1.3z"/><path fill="#cfd1d5" fill-opacity=".5" d="M33.6 22.7h-53.1v-6.3h53z"/><path fill="#8a8d40" fill-opacity=".5" d="M55.9 28l-2.6 5.6L52 33l2.6-5.7z"/><path fill="#c2dcd5" fill-opacity=".5" d="M96.3 84.2l17.8-5.8.5 1.5-17.8 5.8z"/><path fill="#270001" fill-opacity=".5" d="M92.5 16.5L92 15l7.6-1.9.4 1.6z"/><path fill="#c2d3d5" fill-opacity=".5" d="M144.2 12.4l11.6 35.7-1.5.4L142.7 13z"/><path fill="#cdced3" fill-opacity=".5" d="M297.6 42l5.6 5.4-8.6 9-5.7-5.4z"/><path fill="#ae9eb1" fill-opacity=".5" d="M83.6 26.7l1.5.7-4.7 10-1.4-.7z"/><path fill="#214d43" fill-opacity=".5" d="M67.3 75.7l23.4 1.7-.2 1.5-23.3-1.6z"/><path fill="#570419" fill-opacity=".5" d="M67.6 11l.8-1.3 21.8 12-.7 1.4z"/><path fill="#150000" fill-opacity=".5" d="M76.3 47.4L70.8 36l1.4-.7 5.5 11.3z"/><path fill="#a9aaaf" fill-opacity=".5" d="M107 137l-1.6 9.2-1.5-.3 1.6-9.2z"/><path fill="#c4dcbb" fill-opacity=".5" d="M41.4-2.2l10 4.5-.6 1.4-10-4.4z"/><path fill="#7b684f" fill-opacity=".5" d="M93.8 49.7l-6.9 6.4-1-1.1 6.8-6.4z"/><path fill="#151022" fill-opacity=".5" d="M47 37l1-1 6.6 6.7-1.1 1z"/><path fill="#afafb0" fill-opacity=".5" d="M161.4 60.1l-8.5 4.1-9.6-19.6 8.5-4.1z"/><path fill="#181a09" fill-opacity=".5" d="M103 76.5l-7.7 1.4-3-15.3 7.7-1.5z"/><path fill="#74a7a5" fill-opacity=".5" d="M50.4 63.4l.9-1.3 15.5 10.5-.9 1.3z"/><path fill="#c9ced1" fill-opacity=".5" d="M152.2 118.5l-50.9 8.1-2-12.3 51-8.1z"/><path fill="#f5f5f9" fill-opacity=".5" d="M-5.3 22.3l43.7.7-.3 15.7-43.7-.8z"/><path fill="#647e46" fill-opacity=".5" d="M80.6 11.7l-.2-1.6 9.3-1.4.2 1.5z"/><path fill="#acd6d4" fill-opacity=".5" d="M49.8 63.3l-1.4.7-9.1-16.4 1.4-.7z"/><path fill="#750013" fill-opacity=".5" d="M125.2 8.3l12.1 7.3-1.6 2.6-12-7.2z"/><path fill="#481523" fill-opacity=".5" d="M114.7 4.2l3.2 13.7-6 1.4-3.2-13.7z"/><path fill="#456873" fill-opacity=".5" d="M55 19.1l-10.6 2.3-1-4.6L54 14.5z"/><path fill="#7e7d72" fill-opacity=".5" d="M147 60.5L137.6 73l-5-3.8 9.4-12.5z"/><path fill="#c87396" fill-opacity=".5" d="M52 23.4l-2.5 2-3-3.5 2.4-2z"/><path fill="#dee0e1" fill-opacity=".5" d="M333.6 144l-8-41.4L396 88.8l8 41.5z"/><path fill="#aa6a8e" fill-opacity=".5" d="M67 16.6l-3 1-1.4-4.5 3-1z"/><path fill="#c8cacd" fill-opacity=".5" d="M145.5 188.5l6.7 6.6-5.6 5.5-6.6-6.6z"/><path fill="#760b19" fill-opacity=".5" d="M103.2 64.4l-3.2-17 4.6-.8 3.2 16.9z"/><path fill="#bde1da" fill-opacity=".5" d="M142 45.7l6.6-37 1.5.3-6.5 37z"/><path fill="#c4a9bc" fill-opacity=".5" d="M120.2 28.9l1 1.1-2.3 2-1-1.1z"/><path fill="#dbdce1" fill-opacity=".5" d="M157.5 131.5L173 84l14.8 4.8-15.4 47.5z"/><path fill="#a2a671" fill-opacity=".5" d="M107.5 30.3l.4 1.5-7.6 2-.4-1.5z"/><path fill="#9c9677" fill-opacity=".5" d="M69.3 39.9l8 11.5-1.3.9-8-11.5z"/><path fill="#677756" fill-opacity=".5" d="M67.7 11.6l-1.3.9-7.5-10 1.2-1z"/><path fill="#400714" fill-opacity=".5" d="M130 37.8l-5.2 3.6-6.3-9 5.1-3.5z"/><path fill="#a7a9af" fill-opacity=".5" d="M131.7 102l21.7-36 4 2.4-21.7 36.1z"/><path fill="#06130f" fill-opacity=".5" d="M137.4 32l-1.5-.3 3.2-15.3 1.6.3z"/><path fill="#86021a" fill-opacity=".5" d="M107.6 66.9l-1.2-1 9.4-12.5 1.2 1z"/><path fill="#4d8488" fill-opacity=".5" d="M45.8 40.2l-1.5.4L40 23.9l1.5-.4z"/><path fill="#242122" fill-opacity=".5" d="M102.5 77l8.4-4 .7 1.5-8.5 4z"/><path fill="#d6bbc7" fill-opacity=".5" d="M73.7 3.9h1.6l-.6 6.3-1.5-.1z"/><path fill="#e7e9ea" fill-opacity=".5" d="M183.2 102l68.2-17 7.6 30.2-68.2 17z"/><path fill="#723f45" fill-opacity=".5" d="M73.7 34.8l-1.2-1 5.3-7.6 1.3.9z"/><path fill="#37000c" fill-opacity=".5" d="M82 60.3l2-6 7.4 2.6-2 6z"/><path fill="#4b150e" fill-opacity=".5" d="M65 41.5l2.9-1.3L77 60l-2.8 1.4z"/><path fill="#e6e7eb" fill-opacity=".5" d="M2 145.7l66.4 85-28.3 22-66.4-84.9z"/><path fill="#1b1703" fill-opacity=".5" d="M139.8 17.8v1.5l-37.4 2v-1.6z"/><path fill="#edf1f5" fill-opacity=".5" d="M296.5 139l15.2 32.6-41 19.1-15.2-32.6z"/><path fill="#dde0e3" fill-opacity=".5" d="M264.3 172.3l15 46.1-4.5 1.5-15-46.1z"/><path fill="#eeeff0" fill-opacity=".5" d="M37 79.2l-39-.6.9-50 39 .7z"/><path fill="#977662" fill-opacity=".5" d="M80.7-7.4l1.3-.8L92.8 9l-1.4.8z"/><path fill="#7a7d79" fill-opacity=".5" d="M124.8 84.3l1.6 9.3-27.7 4.9-1.6-9.3z"/><path fill="#760724" fill-opacity=".5" d="M141.8 12l-1.2 1-18.3-23.4 1.2-1z"/><path fill="#8b5b5d" fill-opacity=".5" d="M66.4 52.8l12.2-2.4.3 1.5-12.2 2.4z"/><path fill="#001101" fill-opacity=".5" d="M125.8 57.8l8.8-3 .6 1.4-9 3.1z"/><path fill="#e0e2e2" fill-opacity=".5" d="M372.6 79l1.7-48.4 39 1.3-1.7 48.5z"/><path fill="#e0e3e4" fill-opacity=".5" d="M217.5 184l1 28-68.8 2.5-1-28.1z"/><path fill="#56120f" fill-opacity=".5" d="M96.2 17L63.6-14.3l1.1-1.1L97.3 16z"/><path fill="#200000" fill-opacity=".5" d="M110.8-9.1l12.7 28.5-1.5.7-12.7-28.6z"/><path fill="#240100" fill-opacity=".5" d="M72.5 26.2l3.7-12 6 1.8-3.7 12z"/><path fill="#7b8559" fill-opacity=".5" d="M113 5.1l-11.3 5.3L101 9l11.4-5.3z"/><path fill="#adaeb2" fill-opacity=".5" d="M140.5 104.2l-.5 3.1-63.3-10 .5-3z"/><path fill="#1e2a16" fill-opacity=".5" d="M61.1 4.2l5-9.7 5.6 2.8-5 9.8z"/><path fill="#6c894c" fill-opacity=".5" d="M100.7 7l7.7 11.8-1.3.8-7.7-11.8z"/><path fill="#856859" fill-opacity=".5" d="M128.8 24l-4.1-4.8 1.2-1 4 4.7z"/><path fill="#d6d6d9" fill-opacity=".5" d="M100.8 142.2v1.6H-71.1v-1.6z"/><path fill="#e9e9ee" fill-opacity=".5" d="M176.1 26.4l-27.7 4.9-1-6.2 27.6-4.8z"/><path fill="#a4aaae" fill-opacity=".5" d="M158.6 21.8l-12.5.2v-4.7l12.5-.2z"/><path fill="#290900" fill-opacity=".5" d="M102.8 9.6l.9-1.3 7.6 5.5-1 1.3z"/><path fill="#f2f4f4" fill-opacity=".5" d="M173.5 29.7l226.4-7.9V25l-226.3 7.9z"/><path fill="#c8cdca" fill-opacity=".5" d="M87.1 107.3l-5.8 2.2-10.6-27.7 5.8-2.2z"/><path fill="#010000" fill-opacity=".5" d="M109.7 43.8l-1.5-.4 2.4-10.6 1.5.3z"/><path fill="#f1f4f8" fill-opacity=".5" d="M219.5 198.4v-17.2H257v17.2z"/><path fill="#3d1d24" fill-opacity=".5" d="M104.7 72.7v-6.2l7.7-.2.2 6.3z"/><path fill="#cb99b9" fill-opacity=".5" d="M97.5 46.3l-1.2-2.9 1.5-.6 1.2 2.9z"/><path fill="#e6e9e9" fill-opacity=".5" d="M60.9 75.7l-2.3 5.8L3.2 60.2l2.2-5.8z"/><path fill="#150000" fill-opacity=".5" d="M89.9 39l2.6 1.7-5.8 9.3-2.6-1.7z"/><path fill="#e0e0e2" fill-opacity=".5" d="M66.5 111.6L51.3 108l5.6-24.4 15.2 3.5z"/><path fill="#8d5c5f" fill-opacity=".5" d="M66.5 7.4L80.8-7 82-5.8 67.6 8.5z"/><path fill="#274d53" fill-opacity=".5" d="M82 77l25-.9v1.6l-25 .9z"/><path fill="#44111b" fill-opacity=".5" d="M73.8 18.9l-1 1.1L62 10.8l1-1.2z"/><path fill="#341c00" fill-opacity=".5" d="M60.4 31l-5-9.7 1.4-.7 5 9.7z"/><path fill="#340000" fill-opacity=".5" d="M127.2 7.3l-4.6-.7 1.7-12.3 4.7.6z"/><path fill="#5c060c" fill-opacity=".5" d="M60.1 16.2l1-1.2 11.6 7.8-.9 1.3z"/><path fill="#e0e2e3" fill-opacity=".5" d="M24.2 199.2v-9.4h81.3v9.4z"/><path fill="#641e36" fill-opacity=".5" d="M50.8 18.8l1.2.9-7.5 10-1.2-1z"/><path fill="#460a09" fill-opacity=".5" d="M69.4 45.3H71L69.6 72h-1.5z"/><path fill="#6c7065" fill-opacity=".5" d="M107.3 86.7l29.1-18.2 1.7 2.6-29.2 18.2z"/><path fill="#0e140a" fill-opacity=".5" d="M95.3.4l3.2-3.5 4.6 4.3-3.2 3.4z"/><path fill="#6d0c1c" fill-opacity=".5" d="M89.8 46.1l2.3-2 7.2 8.2-2.4 2z"/><path fill="#1d0100" fill-opacity=".5" d="M112.5 37.3v1.5l-26.5.5v-1.6z"/><path fill="#d8dadb" fill-opacity=".5" d="M354.6 104.1l-70 7.4-.1-1.6 70-7.3z"/><path fill="#661a2b" fill-opacity=".5" d="M99.1 3.6l-28-1V-2l28.2 1z"/><path fill="#b8bdc1" fill-opacity=".5" d="M124.3 114.8l-3.7-5 31.6-23 3.7 5z"/><path fill="#ebedee" fill-opacity=".5" d="M184.4 38.3h36v40.6h-36z"/><path fill="#936f7a" fill-opacity=".5" d="M58.3 49l-6.5-4.4.9-1.3 6.4 4.3z"/><path fill="#b1986e" fill-opacity=".5" d="M111 30.1l-4.1 2.1-.7-1.4 4.1-2z"/><path fill="#d6d8d9" fill-opacity=".5" d="M435.5 184.8l.8 15.6-73.3 3.9-.9-15.6z"/><path fill="#666b64" fill-opacity=".5" d="M141.5 42l-1.5.3-1.8-7.6 1.5-.4z"/><path fill="#121311" fill-opacity=".5" d="M53.3 54.4L71 64.6l-.8 1.3-17.6-10.1z"/><path fill="#010c00" fill-opacity=".5" d="M84 45.9l-6 4.8-1-1.3 6.2-4.8z"/><path fill="#6a4d3d" fill-opacity=".5" d="M125.8 7.3l-1.6 6-1.5-.3 1.6-6z"/><path fill="#690618" fill-opacity=".5" d="M60.9 51l1-1 10 9.9-1 1z"/><path fill="#a79aaf" fill-opacity=".5" d="M91 14.5l.7 3-3 .8-.8-3z"/><path fill="#767873" fill-opacity=".5" d="M145.7 79.2l.2 1.5L99.6 88l-.2-1.5z"/><path fill="#4e6833" fill-opacity=".5" d="M69 76.6l25.3-12.4.7 1.4L69.7 78z"/><path fill="#c7b1b8" fill-opacity=".5" d="M106.7 55.5l1.3-.9 2.5 4-1.3.8z"/><path fill="#5e011f" fill-opacity=".5" d="M83.2 43.5l-1.3.8-10.5-17.4 1.4-.9z"/><path fill="#0b0000" fill-opacity=".5" d="M135.7 28l1.5.6-2.6 7.4-1.5-.5z"/><path fill="#511822" fill-opacity=".5" d="M89 20.8l6.4-6.8 4.6 4.2-6.4 6.9z"/><path fill="#d4d6d6" fill-opacity=".5" d="M329.7 16.2L400 15v1.6l-70.3 1.2z"/><path fill="#846855" fill-opacity=".5" d="M72.9 72l-1.6-.2 1.2-11 1.5.2z"/><path fill="#bae7dd" fill-opacity=".5" d="M113.1 80.2l-2.4-4 2.7-1.7 2.4 4z"/><path fill="#909191" fill-opacity=".5" d="M149.8 60.3l-18.5 38-1.4-.8 18.5-37.9z"/><path fill="#1e1b0c" fill-opacity=".5" d="M80.4 74.7l-8.6 3.6-.6-1.4 8.6-3.7z"/><path fill="#507977" fill-opacity=".5" d="M42 33.2l1.5-.4 3.6 16.8-1.5.4z"/><path fill="#d4d8d9" fill-opacity=".5" d="M-58.6 82.8h159.4v1.6H-58.6z"/><path fill="#171001" fill-opacity=".5" d="M120.4 16l-9.8 14.1-1.3-.9 9.8-14z"/><path fill="#e2e3e6" fill-opacity=".5" d="M146 143.8v-7.9h68.8v7.8z"/><path fill="#d8dbdd" fill-opacity=".5" d="M179 35.2v43.7h-12.6V35.2z"/><path fill="#f1f3f6" fill-opacity=".5" d="M1.3 89.6l48.3-4.2.6 7.8L2 97.4z"/><path fill="#000300" fill-opacity=".5" d="M122.2 45l-2.5 7.4-6-2 2.6-7.5z"/><path fill="#5d5d39" fill-opacity=".5" d="M72 34.6l-4 6.7-4-2.4 4-6.7z"/><path fill="#887b62" fill-opacity=".5" d="M113 23.2l4.8 4-1 1.2-4.9-4z"/><path fill="#481722" fill-opacity=".5" d="M118.1 58.3l4.6-.8 1.4 7.7-4.6.8z"/><path fill="#838e61" fill-opacity=".5" d="M96.3 26l-1 1.3-2.5-1.8.9-1.3z"/><path fill="#5a887c" fill-opacity=".5" d="M54.7 62.6l1.1-1.1 16 15-1 1z"/><path fill="#622b28" fill-opacity=".5" d="M126.5 42.6l-2-2.3 6.8-6.4 2.1 2.3z"/><path fill="#edeef1" fill-opacity=".5" d="M218 159.5l-165.6 2.9v-1.6l165.5-2.9z"/><path fill="#b7bdc3" fill-opacity=".5" d="M244.5 197.8v1.5l-25 1.4V199z"/><path fill="#d5d7db" fill-opacity=".5" d="M176.6 133.4l-3.9 5L147 118l3.8-4.9z"/><path fill="#bfdddb" fill-opacity=".5" d="M44 61.7l1.1-1.1 18.6 16.7-1 1.2z"/><path fill="#b8babb" fill-opacity=".5" d="M218.6 144l.2 1.6-20.2 2.5-.2-1.5z"/><path fill="#c0798c" fill-opacity=".5" d="M119.4 23.2l.3-1.5 3 .4-.2 1.5z"/><path fill="#9bb07c" fill-opacity=".5" d="M94.4 25.4l7.4 5.8-1 1.2-7.3-5.8z"/><path fill="#9ca2a3" fill-opacity=".5" d="M97.8 10l-2.7 1.6-.8-1.4 2.8-1.5z"/><path fill="#d793a1" fill-opacity=".5" d="M130.6 8l-1.7-4.4 1.5-.6 1.6 4.4z"/><path fill="#420f17" fill-opacity=".5" d="M69.6 54.2L80 50.8l2 6L71.4 60z"/><path fill="#a3cbcd" fill-opacity=".5" d="M38 30.7l1.5-.3L41.7 46l-1.5.2z"/><path fill="#1a0703" fill-opacity=".5" d="M104.7 23.8L94 26.1l-.3-1.5 10.7-2.3z"/><path fill="#c7e6e2" fill-opacity=".5" d="M79.2 84l-1 1.2-5.9-5.1 1-1.2z"/><path fill="#5a352d" fill-opacity=".5" d="M112.3 64.6l.2 1.5-10.7 2.1-.3-1.5z"/><path fill="#474b1b" fill-opacity=".5" d="M109 14.2l1.6.5-5.6 19.5-1.5-.4z"/><path fill="#8ca887" fill-opacity=".5" d="M49.2 6.2l-7.5-10 1.3-.9 7.5 10z"/><path fill="#5e0f14" fill-opacity=".5" d="M55.6 53l-1.1 1.1-5.4-5.6 1-1z"/><path fill="#280304" fill-opacity=".5" d="M118.2 15.6l10 10-1.1 1-10-10z"/><path fill="#4e3826" fill-opacity=".5" d="M132.6 51.6l7.3-6 1 1.3-7.3 5.9z"/><path fill="#16493f" fill-opacity=".5" d="M123.7 70.6l-2.6 1.7-2.6-3.8 2.6-1.8z"/><path fill="#370a0b" fill-opacity=".5" d="M117.3 41.1L111 23.5l1.5-.5 6.4 17.6z"/><path fill="#bdbec2" fill-opacity=".5" d="M317.6 67.3l1.4.8-3.8 6.8-1.4-.8z"/><path fill="#db93b9" fill-opacity=".5" d="M94.9 44.8l1.5-.4 1 3-1.6.4z"/><path fill="#490210" fill-opacity=".5" d="M86.4 39l-1.5-.5L90.2 19l1.5.4z"/><path fill="#710008" fill-opacity=".5" d="M130.8 48l-1 1.2-6-5 1.1-1.3z"/><path fill="#6d0013" fill-opacity=".5" d="M93 46.6l6.9 3.8-.8 1.4-6.8-3.8z"/><path fill="#f1f5f5" fill-opacity=".5" d="M42.6 13.4l-31.8-17 4.4-8.2L47 5.1z"/><path fill="#941948" fill-opacity=".5" d="M86.6 17.3l-1.3.8-1.6-2.6 1.3-.8z"/><path fill="#100103" fill-opacity=".5" d="M103.3 26.5l-4.7.1-.3-7.8 4.7-.1z"/><path fill="#161203" fill-opacity=".5" d="M109.1 11l.5 14h-1.5l-.5-14z"/><path fill="#6c0214" fill-opacity=".5" d="M137.6 18.9l-3.1-.4 1.3-10.8 3.1.3z"/><path fill="#951846" fill-opacity=".5" d="M117-.7l2.7 1.6-.8 1.4-2.7-1.7z"/><path fill="#d3d3d9" fill-opacity=".5" d="M286.9 6l6.2-4.8L296 5l-6.2 4.7z"/><path fill="#3a0304" fill-opacity=".5" d="M54 57.4l-1.1-1L66.2 41l1.2 1z"/><path fill="#6e1131" fill-opacity=".5" d="M71.7.8L75.2 16l-1.5.4L70 1.2z"/><path fill="#c898a6" fill-opacity=".5" d="M121.8 53.1l.2 4.7h-1.6l-.2-4.6z"/><path fill="#b9bab9" fill-opacity=".5" d="M85.3 89.2l-.5 1.4L60 81.1l.5-1.4z"/><path fill="#99a781" fill-opacity=".5" d="M103-5l6.3 10.8-1.4.8-6.2-10.8z"/><path fill="#dee0e2" fill-opacity=".5" d="M299 235.5l-21-45.3 65.1-30.4 21.1 45.3z"/><path fill="#4f7d72" fill-opacity=".5" d="M95.2 79.4l.2 1.6-4.7.5-.1-1.6z"/><path fill="#223414" fill-opacity=".5" d="M94.9-4.4l1.1-1L106.7 6l-1.2 1z"/><path fill="#eff2f6" fill-opacity=".5" d="M235 196.4l5.1-59.2 26.5 2.4-5.2 59.1z"/><path fill="#740b21" fill-opacity=".5" d="M50.2 25.8l9.9-4.6.7 1.4-10 4.6z"/><path fill="#c76b8f" fill-opacity=".5" d="M53.6 23l-4.2 2-1.4-2.7 4.2-2.1z"/><path fill="#c9cbd0" fill-opacity=".5" d="M308.4 175.4L272 193.2l-.7-1.4 36.6-17.8z"/><path fill="#e8eaeb" fill-opacity=".5" d="M304 80.3l-71.4-7.6 2.4-23.3 71.5 7.5z"/><path fill="#9a5075" fill-opacity=".5" d="M65 17.3l1.6-2.6 1.3.8-1.7 2.6z"/><path fill="#aaab78" fill-opacity=".5" d="M102.8 17.9l-4.5-1.5.5-1.5 4.5 1.5z"/><path fill="#4a7933" fill-opacity=".5" d="M91.3 64.4l6.2-.7.2 1.5-6.2.8z"/><path fill="#bec0c3" fill-opacity=".5" d="M147.8 23.3l-.3-6.2 25-1.3.3 6.2z"/><path fill="#652f33" fill-opacity=".5" d="M122.5 32.6l.3-4.6 6.2.3-.2 4.7z"/><path fill="#b4b6b7" fill-opacity=".5" d="M368 83.5V82l40.6-1.5v1.6z"/><path fill="#3f0607" fill-opacity=".5" d="M105.8 54l-1.3-1 7-8.5 1.1 1z"/><path fill="#e7e9ea" fill-opacity=".5" d="M150.6 17.3L134.1-9.2l10.6-6.6 16.5 26.5z"/><path fill="#d4d7d9" fill-opacity=".5" d="M218.8 142.2v1.6h-111v-1.6z"/><path fill="#310100" fill-opacity=".5" d="M123.8 54.4L123 53l11-5.8.8 1.3z"/><path fill="#9d9ea2" fill-opacity=".5" d="M90.6 98.7l42-3.7.2 1.6-42 3.7z"/><path fill="#e2e3e5" fill-opacity=".5" d="M242 110.4l.4 11-29.7 1-.4-11z"/><path fill="#3f1117" fill-opacity=".5" d="M126.5 28.9l-17.2-1.5.2-1.6 17.1 1.5z"/><path fill-opacity=".5" d="M120.6 64.5l.6 1.5-5.8 2.3-.6-1.4z"/><path fill="#546f9e" fill-opacity=".5" d="M51.2 2.5L55.5-2l1.1 1-4.3 4.6z"/><path fill="#401f2a" fill-opacity=".5" d="M129.7 64.4l-1 1.1-6.8-6.5 1-1.1z"/><path fill="#080000" fill-opacity=".5" d="M90.6 57.8h11v4.7h-11z"/><path fill="#d1d5d8" fill-opacity=".5" d="M130.2 125l10-21.3 15.5 7.3-9.9 21.2z"/><path fill="#d590ad" fill-opacity=".5" d="M128.7 39.8l.8-1.4 2.7 1.5-.7 1.4z"/><path fill="#ba617e" fill-opacity=".5" d="M136.9.4l-.4 1.5-3-.8.3-1.5z"/><path fill="#658c94" fill-opacity=".5" d="M142.8 35.2l-1.2-21.9h1.6l1.1 21.8z"/><path fill="#0f0b05" fill-opacity=".5" d="M50.7 38.4l6-1.8.4 1.5-6 1.8z"/><path fill="#a7abae" fill-opacity=".5" d="M20.2 17.7l7.8-1 .2 1.6-7.8 1z"/><path fill="#efeff5" fill-opacity=".5" d="M-81.2 157.6v-1.5l198.4 3.4v1.6z"/><path fill="#3d000e" fill-opacity=".5" d="M54.8 26.6l-.2-11h1.6l.1 11z"/><path fill="#2c1904" fill-opacity=".5" d="M80.5 66.4l-.2 1.5L68 66.4l.2-1.5z"/><path fill="#cacdca" fill-opacity=".5" d="M148 33.1l9.2-2 2.6 12.3-9.2 2z"/><path fill="#848974" fill-opacity=".5" d="M89.8 34.4h6.3v1.5H90z"/><path fill="#e7e9ea" fill-opacity=".5" d="M337.5 33.9l-164 5.7v-3.1l163.9-5.8z"/><path fill="#5c773c" fill-opacity=".5" d="M59.7 39.3l-1-1.1 8.2-7.2 1 1.2z"/><path fill="#6b8d88" fill-opacity=".5" d="M53 66.2L41 39.1l1.3-.6 12.1 27z"/><path fill="#400d18" fill-opacity=".5" d="M92.5 56l-.7 6.2-7.8-1 .8-6.2z"/><path fill="#dcdde1" fill-opacity=".5" d="M104 147.5l112.4 2v1.5l-112.5-2z"/><path fill="#450106" fill-opacity=".5" d="M81.7 8.7l-6-1.8.4-1.5 6 1.8z"/><path fill="#445d2e" fill-opacity=".5" d="M80 72.6l-1.5.1-.7-9.4h1.6z"/><path fill="#ae909b" fill-opacity=".5" d="M122 30.4l-4.4 1.6-.5-1.4 4.3-1.7z"/><path fill="#1d1401" fill-opacity=".5" d="M72.8 43.2L69.3 40l3.2-3.5 3.5 3.2z"/><path fill="#84001f" fill-opacity=".5" d="M48.5 20l7.8.7-.1 1.5-7.8-.7z"/><path fill="#310000" fill-opacity=".5" d="M58 44.8l.5-1.5 10.1 4.1-.5 1.5z"/><path fill="#33090c" fill-opacity=".5" d="M109.3 5.6l1-1.3 10 7.3-.9 1.3z"/><path fill="#5e8d44" fill-opacity=".5" d="M90.6 7.5L101.2 5l.4 1.6L90.9 9z"/><path fill="#761525" fill-opacity=".5" d="M51.2 30.6l3.5 5.1-1.3 1-3.5-5.3z"/><path fill="#d894ac" fill-opacity=".5" d="M93.6 42.5l1.2-1 3.8 5-1.2 1z"/><path fill="#6f0d20" fill-opacity=".5" d="M113 51.3l6.4 4.6-2.8 3.8-6.3-4.6z"/><path fill="#b0b1b5" fill-opacity=".5" d="M137 104.9L96.4 109l-.4-6 40.4-4.2z"/><path fill="#280000" fill-opacity=".5" d="M123.2 50.8l-1.5-.4 3.5-15.2 1.5.3z"/><path fill="#e3fcf5" fill-opacity=".5" d="M80.5 83l12.5-.3v1.6l-12.5.2z"/><path fill="#e6eced" fill-opacity=".5" d="M49.5 72.9l-9.9 4.6-12.5-27L37 46z"/><path fill="#cbe2d5" fill-opacity=".5" d="M141 50.9l1.2.9-3.5 5.1-1.3-.8z"/><path fill="#c7c9cb" fill-opacity=".5" d="M168 17.2h168.7v1.6H168z"/><path fill="#255452" fill-opacity=".5" d="M58.9 63.5L51.2 58l.9-1.3 7.7 5.4z"/><path fill="#979a99" fill-opacity=".5" d="M149 81.5l-23.8 14.9-.8-1.3 23.8-15z"/><path fill="#e2e4e5" fill-opacity=".5" d="M265 197.3l23.3-13 7.6 13.8-23.3 12.8z"/><path fill="#e0e2e2" fill-opacity=".5" d="M162.5 15.6h126.6v1.6H162.5z"/><path fill="#492c2b" fill-opacity=".5" d="M48.2 53l7.8-1.2.4 3-7.7 1.3z"/><path fill="#281e12" fill-opacity=".5" d="M117.2 71.9h-39v-1.6h39z"/><path fill="#edeff0" fill-opacity=".5" d="M339.8 88.3l-118.5 6.2-.2-3.1 118.6-6.2z"/><path fill="#2d4b0c" fill-opacity=".5" d="M53 31.8l.6-1.4 4.3 1.8-.6 1.5z"/><path fill="#455643" fill-opacity=".5" d="M136.6 53.6l-6.2-1 .2-1.5 6.2 1z"/><path fill="#e7e8eb" fill-opacity=".5" d="M-11.2 109L-5 94.6 78.4 130l-6.1 14.4z"/><path fill-opacity=".5" d="M98.5 14.3l-.1-1.6 4.6-.4.2 1.6z"/><path fill="#a7a169" fill-opacity=".5" d="M102 13.8l3-.9.8 3-3 .9z"/><path fill="#d4c2cb" fill-opacity=".5" d="M88.4 14l1.2 4.5-1.5.4-1.2-4.6z"/><path fill="#a2a9a3" fill-opacity=".5" d="M155.4 56.4l-2 2.5L140 48.3l2-2.5z"/><path fill="#410000" fill-opacity=".5" d="M68.4 28.7l1.2-1 4.2 4.6-1.2 1z"/><path fill="#715933" fill-opacity=".5" d="M67.2 40.5l-7.8.3v-1.6l7.8-.3z"/><path fill="#14514a" fill-opacity=".5" d="M49.8 42.6L47 41.5l1.7-4.4 3 1.1z"/><path fill="#130" fill-opacity=".5" d="M83.8 10l-.3-1.6 6.1-1.2.3 1.6z"/><path fill="#d5d7db" fill-opacity=".5" d="M268 216.2l-1.6.2-4.6-43.5 1.5-.2z"/><path fill="#040507" fill-opacity=".5" d="M130.3 27l7.5 5.6-.9 1.3-7.6-5.6z"/><path fill="#f3f4f6" fill-opacity=".5" d="M161.7 28.4l96.6-6.8.3 4.7-96.6 6.8z"/><path fill="#847054" fill-opacity=".5" d="M128.3 34l4.6.8-.3 1.5-4.6-.8z"/><path fill="#f9f9fd" fill-opacity=".5" d="M220.4 122.9l10.9 1.3-3.3 26.4-10.8-1.4z"/><path fill="#7b7e78" fill-opacity=".5" d="M96.6 86.3l32.7-2.3.7 9.4-32.8 2.3z"/><path fill="#370d13" fill-opacity=".5" d="M134.1 14.8l1.6.2-2.6 18.6-1.6-.2z"/><path fill="#5f1823" fill-opacity=".5" d="M91.3 52.7l10-7.6L104 49l-10 7.5z"/><path fill="#cbcccd" fill-opacity=".5" d="M232.7 79.8l.1 1.6-54.6 2.8v-1.5z"/><path fill="#4a6165" fill-opacity=".5" d="M51.7 7.7l4.6 4.3-6.4 6.8-4.6-4.2z"/><path fill="#211a07" fill-opacity=".5" d="M93.8 53.9l-3 1.2-1.7-4.3 2.8-1.2z"/><path fill="#652631" fill-opacity=".5" d="M54.2 40.7l-.6 7.8-3-.2.5-7.8z"/><path fill="#84a5aa" fill-opacity=".5" d="M40.2 20.4l1.6-.1.8 7.7-1.6.2z"/><path fill="#73786e" fill-opacity=".5" d="M131.5 70l-.3-1.6 13.9-2.4.2 1.5z"/><path fill="#b6b6bc" fill-opacity=".5" d="M102.2 145.4l-1.3-10.9 1.6-.2 1.3 10.9z"/><path fill="#edefef" fill-opacity=".5" d="M300 32.8v-6.3l85.9-1.5v6.3z"/><path fill="#b4b7bd" fill-opacity=".5" d="M310 157.2l-1.3.7-7.8-13.5 1.3-.8z"/><path fill="#677e49" fill-opacity=".5" d="M65.1 30l3.6 3-1 1.1-3.6-3z"/><path fill="#e0e0e3" fill-opacity=".5" d="M48.9 107.4l8.2-9.5 42.4 37-8.2 9.4z"/><path fill="#82ada9" fill-opacity=".5" d="M102.3 79.4l.1-1.6 6.3.7-.2 1.5z"/><path fill="#dcdce2" fill-opacity=".5" d="M73.4 154.7h-139V153h139z"/><path fill="#bce4dc" fill-opacity=".5" d="M127 69.7l-.8-3 1.5-.4.8 3z"/><path fill="#2d585f" fill-opacity=".5" d="M86 80v-1.6l14-.5v1.5z"/><path fill="#5f0f1c" fill-opacity=".5" d="M67.3 16l10.2-3.8.5 1.4-10.2 4z"/><path fill="#dadcdd" fill-opacity=".5" d="M352.3 86.8L318 85v-1.5l34.4 1.8z"/><path fill="#000600" fill-opacity=".5" d="M132 58.2l-1.2-1 4.5-4.5 1 1.1z"/><path fill="#5f6e58" fill-opacity=".5" d="M149 41l-1.5.6-1.1-3 1.5-.5z"/><path fill="#394a3a" fill-opacity=".5" d="M105.5 12.3l-9.4.4V11l9.3-.3z"/><path fill="#c8e5db" fill-opacity=".5" d="M150.2 25l-6.7 20.8-1.5-.5 6.7-20.8z"/><path fill="#cfd1d2" fill-opacity=".5" d="M361.7 143.8v-1.6h75v1.6z"/><path fill="#2c0904" fill-opacity=".5" d="M130.2 35.2l.4 1.5-6 1.6-.5-1.5z"/><path fill="#061000" fill-opacity=".5" d="M97.8 66.2l.7 1.4-4.1 2.2-.7-1.4z"/><path fill="#4d4821" fill-opacity=".5" d="M65.2 18l-2.5 4-1.3-.9 2.5-4z"/><path fill="#dedbe1" fill-opacity=".5" d="M17.4 17l-.4-3 11-1.4.4 3.1z"/><path fill="#c4c9cc" fill-opacity=".5" d="M141.7 109.6l-2-12.3 14-2.2 1.9 12.3z"/><path fill="#e1e3e4" fill-opacity=".5" d="M315.6 134.6l-12.3 6.8-20.5-37 12.3-6.7z"/><path fill="#c6cacd" fill-opacity=".5" d="M172.2 73.8l-5.7 2.4-15.3-36 5.8-2.4z"/><path fill="#31552a" fill-opacity=".5" d="M57.3 6.1l-1.5-.5L60-4.6l1.5.6z"/><path fill="#846f78" fill-opacity=".5" d="M56.7 17.9l1.4-.8 2.3 4-1.3.9z"/><path fill="#316224" fill-opacity=".5" d="M56.5 32.8l1.5-4.4 8.9 2.9-1.4 4.4z"/><path fill="#57b0a9" fill-opacity=".5" d="M79.8 79l-4.5 1.3-.4-1.5 4.5-1.3z"/><path fill="#9accc7" fill-opacity=".5" d="M145.5 32.8h-1.6l-.3-17.2h1.6z"/><path fill="#020000" fill-opacity=".5" d="M91.6 33.3l-.3-1.5 6.2-1 .2 1.5z"/><path fill="#000200" fill-opacity=".5" d="M119.9 70.8l-3-3.6 2.3-2 3 3.5z"/><path fill="#901a35" fill-opacity=".5" d="M68.8 49.7l-4.6.6-.2-1.5 4.6-.7z"/><path fill="#9fa8ab" fill-opacity=".5" d="M154.8 17l.6 1.4-8.6 3.7-.6-1.5z"/><path fill="#e8e9eb" fill-opacity=".5" d="M175.4 114.6l43.5 5.3-2.1 17-43.5-5.3z"/><path fill="#5b293d" fill-opacity=".5" d="M82.7 31.6l.8-1.4 4 2.3-.7 1.4z"/><path fill="#944f70" fill-opacity=".5" d="M84.4 0H89v1.5l-4.6.1z"/><path fill="#340c0b" fill-opacity=".5" d="M87.6-2.9L102 3l-.6 1.4L87-1.4z"/><path fill="#e7e9ea" fill-opacity=".5" d="M350.8 56.7l1.4 20.3-32.7 2.2-1.4-20.2z"/><path fill="#c3c5c9" fill-opacity=".5" d="M85.7 106.4l3-5.5L119 117l-3 5.5z"/><path fill="#571524" fill-opacity=".5" d="M84.1 45.3l-1.5-.5 3.6-10.4 1.5.5z"/><path fill="#aa8089" fill-opacity=".5" d="M66.6 25.7l-2.8 1.5-.7-1.4 2.8-1.4z"/><path fill="#7d0001" fill-opacity=".5" d="M109.3 59.4l1.3.9-2.8 3.8-1.2-1z"/><path fill="#551024" fill-opacity=".5" d="M122.9 33l.6 1.5-7.3 2.8-.6-1.5z"/><path fill="#bae0d5" fill-opacity=".5" d="M126.2 69.7l-2.7 3.7-1.3-.9 2.8-3.8z"/><path fill="#bbdfd2" fill-opacity=".5" d="M123.8 69.6l1.4-.9 2.5 4-1.3.8z"/><path fill="#c6cacb" fill-opacity=".5" d="M315.2 171.3l1.4-.8 4.1 6.6-1.3.8z"/><path fill="#9c4658" fill-opacity=".5" d="M66.8 25.5l.8-3 1.6.4-1 3z"/><path fill="#a99b76" fill-opacity=".5" d="M109.2 5.4l-.8-1.4 2.7-1.6.8 1.4z"/><path fill="#bec0c1" fill-opacity=".5" d="M431.2 20.4V22l-64-3.4v-1.5z"/><path fill="#453f33" fill-opacity=".5" d="M99.8 68.1l.8 1.4-8.2 4.5-.8-1.3z"/><path fill="#e0e1e6" fill-opacity=".5" d="M183.3 116.5l-12.5-26.9 10-4.6 12.5 27z"/><path fill="#38060a" fill-opacity=".5" d="M67 19.2l.7-1.4 16.8 8.3-.6 1.4z"/><path fill="#dadcdd" fill-opacity=".5" d="M430.5 101.6v10.9h-72v-11z"/><path fill="#dfe2e3" fill-opacity=".5" d="M140 165.4l-37.5 2-.3-6.3 37.5-2z"/><path fill="#444a2b" fill-opacity=".5" d="M82 46l1.5.3-1.4 9.2-1.6-.2z"/><path fill="#9b8185" fill-opacity=".5" d="M58.4 42.5L57.2 47l-1.5-.4 1.2-4.5z"/><path fill="#3e5a18" fill-opacity=".5" d="M110-1.6l1.4 2.8-4.3 2-1.3-2.8z"/><path fill="#b4b7bb" fill-opacity=".5" d="M153.5 79.8l-4.3-2 8.3-18.5 4.2 2z"/><path fill="#640016" fill-opacity=".5" d="M54.6 24.7l.2-1.5 7.7.5v1.6z"/><path fill="#897c6a" fill-opacity=".5" d="M88.3 54l-1.4-2.7 1.4-.7 1.4 2.8z"/><path fill="#321002" fill-opacity=".5" d="M74.8 49.2l-1-1.3 6-4.9 1 1.2z"/><path fill="#8a676b" fill-opacity=".5" d="M109.7 11.5L103.4 7l1-1.2 6.3 4.6z"/><path fill="#465255" fill-opacity=".5" d="M45 30.4l.7 6.2-1.6.2-.7-6.2z"/><path fill="#b2868a" fill-opacity=".5" d="M117.1 22l4.7-.3.1 1.6-4.7.3z"/><path fill="#634c2f" fill-opacity=".5" d="M107.7 16l.8-1.4 4 2.3-.7 1.4z"/><path fill="#d7d8db" fill-opacity=".5" d="M303.2 147.8l123.4 4.4-.1 1.5-123.4-4.3z"/><path fill="#392b08" fill-opacity=".5" d="M106.3 33l-3.5 5.2-1.3-.9 3.5-5.2z"/><path fill="#62000a" fill-opacity=".5" d="M124.3 15.3l4.5-23 1.5.3-4.4 23z"/><path fill="#e4e5e7" fill-opacity=".5" d="M242.7 118l-4.3-13.3L265 96l4.4 13.4z"/><path fill="#ccccd0" fill-opacity=".5" d="M175.6 137l-6 2-3-8.8 6-2z"/><path fill="#788162" fill-opacity=".5" d="M124 9.1l-1.5.4-1.2-4.6 1.5-.3z"/><path fill="#8cbab0" fill-opacity=".5" d="M93.9 80.5l.8 1.4-2.6 1.6-.9-1.3z"/><path fill="#94b2bb" fill-opacity=".5" d="M44.5 9.2l1.5.5-1.4 4.5-1.5-.5z"/><path fill="#760018" fill-opacity=".5" d="M104.4 41.3l1.1 1-2 2.3-1.2-1z"/><path fill="#e4e6e6" fill-opacity=".5" d="M362.5 22.7h42.2v18.7h-42.2z"/><path fill="#272710" fill-opacity=".5" d="M77.5 74l-3.1.4-.3-3.1 3-.4z"/><path fill="#6a6240" fill-opacity=".5" d="M64.8 38l4 2.3-.8 1.4-4-2.4z"/><path fill="#e6e8ea" fill-opacity=".5" d="M166.9 149.8l7.5 15.5-49.1 24-7.5-15.5z"/><path fill="#1a0607" fill-opacity=".5" d="M78.6 25.7l-2.3-7.4 6-1.9 2.3 7.5z"/><path fill="#809a69" fill-opacity=".5" d="M95.9 26.2l-1.3 2.9-1.4-.6 1.2-2.9z"/><path fill="#939294" fill-opacity=".5" d="M125.7 94.2l.3-1.5 12.3 2.1-.2 1.6z"/><path fill="#689992" fill-opacity=".5" d="M118.4 75.6l-4.5-1.3.5-1.5 4.5 1.3z"/><path fill="#8e685c" fill-opacity=".5" d="M71.2 64.6l1.7-4.3 4.3 1.6-1.6 4.4z"/><path fill="#607444" fill-opacity=".5" d="M85.2 70.3H69.5v-1.5h15.7z"/><path fill="#6c0818" fill-opacity=".5" d="M123.9 42.3l1-1.1 9 8.7-1 1.1z"/><path fill="#dceeeb" fill-opacity=".5" d="M70.5 80.4l.7-1.4 9.9 4.6-.7 1.5z"/><path fill="#e7e9ea" fill-opacity=".5" d="M191.4 53.1H257v11h-65.6z"/><path fill="#8f6f75" fill-opacity=".5" d="M48.3 30.7l.4-1.5 4.5 1-.3 1.6z"/><path fill="#4f743c" fill-opacity=".5" d="M80.4 73.4l.2-4.7 3 .1v4.7z"/><path fill="#6e928c" fill-opacity=".5" d="M48 57l-2.3-12.2 1.5-.3 2.4 12.3z"/><path fill="#eef0f1" fill-opacity=".5" d="M155.5-15.8l95.2 5-1.5 28.1-95.2-5z"/><path fill="#949397" fill-opacity=".5" d="M150.8 51.6v17.1h-6.3V51.6z"/><path fill="#9d908a" fill-opacity=".5" d="M60 13.5l.5-1.5 3 1-.6 1.5z"/><path fill="#431616" fill-opacity=".5" d="M116.2 15.1L103.9 13l.2-1.6 12.3 2.2z"/><path fill="#92b8b4" fill-opacity=".5" d="M57 70.8l-4.2-4.7 1.2-1 4.1 4.7z"/><path fill="#443e2e" fill-opacity=".5" d="M116.5 22.3l-4.4-4.5 1.1-1 4.4 4.4z"/><path fill="#7cad81" fill-opacity=".5" d="M91.6 10l-.3-1.5 9.3-1.3.2 1.5z"/><path fill="#44251a" fill-opacity=".5" d="M74.6 31.7l-6 5-1-1.3 6-4.9z"/><path fill="#1b1408" fill-opacity=".5" d="M89.8 35.9v1.5l-3 .2-.1-1.6z"/><path fill="#090b00" fill-opacity=".5" d="M82.7 63.3L80 57.7l1.4-.7 2.7 5.6z"/><path fill="#909491" fill-opacity=".5" d="M99.7 96.6l-12.1-2.8 1.7-7.6 12.2 2.8z"/><path fill="#95c3c6" fill-opacity=".5" d="M40.8 24.3l-.3 6.2h-1.6l.3-6.3z"/><path fill="#910e30" fill-opacity=".5" d="M128.6 13.4l-1.4-.5 2-6 1.5.6z"/><path fill="#250000" fill-opacity=".5" d="M100.6 59l-1.2-.9L104 52l1.2 1z"/><path fill="#bb657a" fill-opacity=".5" d="M66.2 50.6l1.4-.7 2.1 4.2-1.4.7z"/><path fill="#bbbdbe" fill-opacity=".5" d="M217.2 147l-.1 1.5-60.8-3.2v-1.6z"/><path fill="#d4d8da" fill-opacity=".5" d="M176.5 108.9l-10.8 6.3-9.4-16.3 10.8-6.2z"/><path fill="#130a00" fill-opacity=".5" d="M97.7 69.2l-.2 1.6-6.2-1 .3-1.5z"/><path fill="#807f73" fill-opacity=".5" d="M136.5 73.8L135.4 63l7.8-.8 1.1 10.9z"/><path fill="#783c3f" fill-opacity=".5" d="M104.1 46l1.3.8-1.7 2.6-1.3-.9z"/><path fill="#dfe1e3" fill-opacity=".5" d="M304 154.3v-1.6l134.2 7v1.6z"/><path fill="#45381c" fill-opacity=".5" d="M107 29.1l-6.3-.4.2-3.1 6.2.4z"/><path fill="#550e24" fill-opacity=".5" d="M82.3 18.8l15.4 3-.3 1.6-15.4-3z"/><path fill="#210000" fill-opacity=".5" d="M99.7 72.8l-1.2 4.5-6-1.7 1.2-4.5z"/><path fill="#882e3f" fill-opacity=".5" d="M129.2-6.3l1 14-1.6.1-1-14z"/><path fill="#c2c4ca" fill-opacity=".5" d="M263.3 199.7l-31.3.6v-1.6l31.3-.5z"/><path fill="#3d0c0c" fill-opacity=".5" d="M73.5 69l-8.6-3.8.7-1.4 8.5 3.8z"/><path fill="#72081d" fill-opacity=".5" d="M135.5 35.6l.8 4.6-4.7.8-.7-4.7z"/><path fill="#ecedef" fill-opacity=".5" d="M100 138.9v1.6l-198.4 3.4v-1.5z"/><path fill="#bdbec2" fill-opacity=".5" d="M136 109l-.1 1.6-48.4-2.5v-1.6z"/><path fill="#f6f9fc" fill-opacity=".5" d="M3.8 31.5l.2-6.3 31.3 1.1-.3 6.3z"/><path fill="#d8d8dd" fill-opacity=".5" d="M265.5 117.4l-1 1.2-3.5-3.2 1-1.1z"/><path fill="#e9eaec" fill-opacity=".5" d="M331.6 44.6l-21.3 16-12.2-16.2 21.2-16z"/><path fill="#2e161c" fill-opacity=".5" d="M68.7 10.7v1.6l-10.9.4V11z"/><path fill="#dee2e5" fill-opacity=".5" d="M148.3 22l11-.2.2 11-11 .1z"/><path fill="#dee0e1" fill-opacity=".5" d="M217.8 154.6l-34.2-3 .1-1.5 34.3 3z"/><path fill="#300003" fill-opacity=".5" d="M119 61.7l-3.5-12 1.5-.5 3.4 12z"/><path fill="#220c00" fill-opacity=".5" d="M78.5 57.9l-1.4-.8 2.3-4 1.3.7z"/><path fill="#2a0400" fill-opacity=".5" d="M61.6 54.5l-1.5-.5L65 40.8l1.4.5z"/><path fill="#50121a" fill-opacity=".5" d="M54 53l-1 1.1-5.5-5.6 1.1-1z"/><path fill="#6c0012" fill-opacity=".5" d="M140.6 6.2L134 15l-1.2-.9 6.4-8.8z"/><path fill="#3c465e" fill-opacity=".5" d="M58 5.4l2.6 5.7-1.4.7L56.6 6z"/><path fill="#688a4f" fill-opacity=".5" d="M91.6 66.3l-.6 1.5-2.9-1.3.6-1.4z"/><path fill="#5a1a2a" fill-opacity=".5" d="M128.8 58.7l-8.4 4.3-.7-1.4 8.3-4.3z"/><path fill="#6f1226" fill-opacity=".5" d="M84 6l-6.5-8.6 2.5-2 6.6 8.8z"/><path fill="#715254" fill-opacity=".5" d="M138.5 11.3l1.2-2.9 1.5.6-1.2 3z"/><path fill="#806861" fill-opacity=".5" d="M138.6 4.2l1.5-.5 1 3-1.5.5z"/><path fill="#de95a2" fill-opacity=".5" d="M64.1 25.2v-1.6l4.6-.3.1 1.5z"/><path fill="#621929" fill-opacity=".5" d="M64.1 60.3l-.6-1.4 11.4-5.1.7 1.4z"/><path fill="#dadcdd" fill-opacity=".5" d="M363.4 188l-.2 11-56.3-1 .2-11z"/><path fill="#1f1802" fill-opacity=".5" d="M94.6 12L82 13l-.1-1.5 12.4-1.1z"/><path fill="#e7e9ea" fill-opacity=".5" d="M401 15l-65.6 1.2-.5-29.7 65.6-1.1z"/><path fill="#242926" fill-opacity=".5" d="M134.8 17.8l1.5-2.7 5.5 3-1.5 2.8z"/><path fill="#44776e" fill-opacity=".5" d="M140.6 30.4v-3h1.6v3.1z"/><path fill="#2a3605" fill-opacity=".5" d="M79 61.7v3.1h-3.2v-3z"/><path fill="#75122b" fill-opacity=".5" d="M79 35.3l-.4 1.5-6-1.8.4-1.5z"/><path fill="#0c1904" fill-opacity=".5" d="M63 58.6l-2.9 1-2.8-7.2 3-1.1z"/><path fill="#f6f7fb" fill-opacity=".5" d="M285.8 105.2L227.3 135l-2.1-4.2 58.4-29.8z"/><path fill="#020200" fill-opacity=".5" d="M107.3 37l16.2 5.9-1.1 3-16.2-6z"/><path fill="#e3e5ea" fill-opacity=".5" d="M108.6 142l75-2.7v1.6l-75 2.6z"/><path fill="#59091b" fill-opacity=".5" d="M124.5 33.6l-2.1-9 1.5-.4 2.1 9.1z"/><path fill="#654643" fill-opacity=".5" d="M93.6 53.9l.5-1.5 4.5 1.5-.5 1.5z"/><path fill="#d6d9dd" fill-opacity=".5" d="M74 124.1l3-8.8 44.3 15.2-3 9z"/><path fill="#a5c8c2" fill-opacity=".5" d="M81.2 81.4l17.2-.3v1.6l-17.1.3z"/><path fill="#122c00" fill-opacity=".5" d="M83.5 70.5l6.3-.4v1.6l-6.1.4z"/><path fill="#616e30" fill-opacity=".5" d="M111.2-1.8l1 4.6-3.1.6-1-4.6z"/><path fill="#a0a0a4" fill-opacity=".5" d="M120.7 102.7L93 97.3l.3-1.5L121 101z"/><path fill="#b6b9bb" fill-opacity=".5" d="M68.4 84.7L51.6 81l.4-1.6 16.7 3.9z"/><path fill="#480010" fill-opacity=".5" d="M119.5 4l-1.2-4.5 7.5-2L127 2z"/><path fill="#707068" fill-opacity=".5" d="M112.8 89.7l-.6-1.4 17.1-7.7.7 1.5z"/><path fill="#cbccc5" fill-opacity=".5" d="M74 92.9l3.7-10.3 3 1L76.9 94z"/><path fill="#276904" fill-opacity=".5" d="M54.6 27.1l7.8-1 .2 1.5-7.8 1z"/><path fill="#240805" fill-opacity=".5" d="M115.6 50.4l-.6 1.4-10.2-3.7.5-1.5z"/><path fill="#cbefdf" fill-opacity=".5" d="M51.6 0v1.6h-4.7V0z"/><path fill="#394544" fill-opacity=".5" d="M129 61v-1.6h3v1.5z"/><path fill="#99374c" fill-opacity=".5" d="M128.4 38.4l-.6 3.1-1.5-.3.5-3z"/><path fill="#d0f5ed" fill-opacity=".5" d="M61.3 74.3l4.5 1.5-.6 1.5-4.4-1.5z"/><path fill="#502832" fill-opacity=".5" d="M120.9 52.2l1.3-.7 2.2 4.1-1.3.7z"/><path fill="#232706" fill-opacity=".5" d="M79 53.2l5.4-3 .7 1.3-5.4 3z"/><path fill="#660c26" fill-opacity=".5" d="M82.9 19.7l3.1-7.2 1.5.7-3.2 7z"/><path fill="#534923" fill-opacity=".5" d="M93 50.6l-.2 1.5-6.2-1 .3-1.6z"/><path fill="#a35e69" fill-opacity=".5" d="M47.7 26l-1.4-.7 1.3-2.8 1.4.7z"/><path fill="#babfbf" fill-opacity=".5" d="M11.5 80l.2 1.4-15.4 2.8-.2-1.6z"/><path fill="#c5f2eb" fill-opacity=".5" d="M113.2 79.9l-3.1-.4.2-1.6 3 .4z"/><path fill="#d1d4d7" fill-opacity=".5" d="M147 121.7l-.4 7.9-54.6-3 .4-7.7z"/><path fill="#732f3f" fill-opacity=".5" d="M84.9 16.3l4.3 2-.7 1.3-4.2-1.9z"/><path fill="#0f0609" fill-opacity=".5" d="M85.1 75.2l12.5-.4v1.5l-12.4.5z"/><path fill="#e6e8e9" fill-opacity=".5" d="M310 124.1l-1-7.7 32.5-4.6 1 7.8z"/><path fill="#edeff0" fill-opacity=".5" d="M225.9 36.2l62.5 1-.2 12.6-62.5-1.1z"/><path fill="#9b9e9b" fill-opacity=".5" d="M86.7 97.5l-2.9-10.6 6-1.6 3 10.6z"/><path fill="#0d0f00" fill-opacity=".5" d="M105.8 17.4l-.7 4.7-3-.5.6-4.6z"/><path fill="#0b0000" fill-opacity=".5" d="M123.4 17.2l-7.2 3-.6-1.5 7.3-3z"/><path fill="#350200" fill-opacity=".5" d="M134.5 19.6L134 21l-7.6-1.6.3-1.5z"/><path fill="#d2d4d9" fill-opacity=".5" d="M160 36.5l6-1.5 10 39.4-6.1 1.5z"/><path fill="#060300" fill-opacity=".5" d="M71.5 36.6l1.2 1-2 2.4-1.2-1z"/><path fill="#7b000b" fill-opacity=".5" d="M108.7 52.7l-3 .8-.4-1.5 3-.8z"/><path fill="#75381f" fill-opacity=".5" d="M48.4 26.5l3.9-2.7.8 1.3-3.8 2.7z"/><path fill="#dddfe3" fill-opacity=".5" d="M163.7 123.6l3.3 8.8-29.1 11.2-3.4-8.8z"/><path fill="#e4e5e7" fill-opacity=".5" d="M387.2 55.4L281 74.2l-1-6.2 106-18.7z"/><path fill="#eeeff2" fill-opacity=".5" d="M-6.7 18.8l-.5-7.8 46.7-3.3.6 7.8z"/><path fill="#9aa074" fill-opacity=".5" d="M105.6 31.7l-.4 1.5-3-.8.4-1.5z"/><path fill="#edf0f5" fill-opacity=".5" d="M309.7 173.3l-10.3 3.7-7.5-20.6 10.3-3.7z"/><path fill="#46111a" fill-opacity=".5" d="M85.7 45.4l-1 1.2-12.6-9.2 1-1.2z"/><path fill="#abaeae" fill-opacity=".5" d="M314 145l-14 .7V144l14-.7z"/><path fill="#3e4e3a" fill-opacity=".5" d="M139.9 50.1l-1.5-.5 1.4-4.4 1.5.5z"/><path fill="#a8b8a7" fill-opacity=".5" d="M142.8 51.8l-2-4.3 8.6-4 2 4.3z"/><path fill="#9c7f4c" fill-opacity=".5" d="M53.2 27l-.3 1.6-4.6-1 .3-1.5z"/><path fill="#e1f2f1" fill-opacity=".5" d="M42.2 60.4l-4.6.8-3.2-20 4.6-.8z"/><path fill="#e5e7e8" fill-opacity=".5" d="M149 8.1l18.8-.6.3 7.8-18.7.6z"/><path fill="#4f1f07" fill-opacity=".5" d="M63.8 42.2l-3 1.3-1.1-3 2.8-1.1z"/><path fill="#1f0a00" fill-opacity=".5" d="M125 48.6l1.3-.9 3.4 5.3-1.3.8z"/><path fill="#53734e" fill-opacity=".5" d="M52.6-6.5l1.3-.8L64.6 8l-1.3 1z"/><path fill="#3f3534" fill-opacity=".5" d="M142.3 14.6l-4.3 1.9-.6-1.5 4.3-1.8z"/><path fill="#884c59" fill-opacity=".5" d="M77.4 35.6L79 31l1.5.5L79 36z"/><path fill="#5b6037" fill-opacity=".5" d="M73 45.1l-4.6-1.3.9-3 4.5 1.3z"/><path fill="#e2e3e7" fill-opacity=".5" d="M366 116l15.6-.6.9 26.5-15.6.6z"/><path fill="#e3e6e5" fill-opacity=".5" d="M20.3 79l45.3-1.7V79l-45.2 1.6z"/><path fill="#92b7ba" fill-opacity=".5" d="M38.3 26.7l1.6-.2 1.5 14-1.6.2z"/><path fill="#43231b" fill-opacity=".5" d="M106.1 35.4l.2 1.5-7.7 1.1-.2-1.5z"/><path fill="#310a0e" fill-opacity=".5" d="M86.3 59.7l7.3-5.9 3 3.7-7.4 5.9z"/><path fill="#ebebf0" fill-opacity=".5" d="M7.5 156.7l-14-1 .5-7.7 14 1z"/><path fill="#844244" fill-opacity=".5" d="M114.7 58.4l1.6 2.7-1.3.8-1.6-2.7z"/><path fill="#595d3d" fill-opacity=".5" d="M126 26.6l1.5-.7 4.2 8.4-1.4.7z"/><path fill="#111a00" fill-opacity=".5" d="M118.8 12l-1.5-6 3-.8 1.5 6z"/><path fill="#943f61" fill-opacity=".5" d="M132.4 38.1l.7 3-1.5.4-.7-3z"/><path fill="#000300" fill-opacity=".5" d="M90.5 30.2l.7-1.4 4.2 2-.6 1.4z"/><path fill="#a8a8ab" fill-opacity=".5" d="M144.7 94l-7.4 2.3-2.3-7.5 7.4-2.3z"/><path fill="#305f5e" fill-opacity=".5" d="M59.7 62.3l5 3.8-1 1.2-5-3.7z"/><path fill="#ededf4" fill-opacity=".5" d="M291.5 13.3l9.7-28 8.8 3-9.6 28z"/><path fill="#724f51" fill-opacity=".5" d="M73.5 2.7l-4.6.8-.3-1.5 4.7-.8z"/><path fill="#28432c" fill-opacity=".5" d="M58.8 4.4L54-2l1.2-1L60 3.5z"/><path fill="#cdced1" fill-opacity=".5" d="M7 82.9l37.4-3.3.1 1.6-37.3 3.2z"/><path fill="#110500" fill-opacity=".5" d="M83.8 50.6l-1.2-1 4-4.9 1.1 1z"/><path fill="#e6e8ea" fill-opacity=".5" d="M22.4 120.2l-5.7-7.5 37.5-28.2 5.6 7.5z"/><path fill="#471a20" fill-opacity=".5" d="M105 75l-1 1.2-7.4-5.9 1-1.2z"/><path fill="#52833f" fill-opacity=".5" d="M83.4 65.2l4.6 1-1 4.6-4.7-1z"/><path fill="#f0f2f3" fill-opacity=".5" d="M306.8 21.5l.4 9.4-65.6 2.3-.3-9.4z"/><path fill="#14312b" fill-opacity=".5" d="M138.6 18.7l1 17.2H138l-1-17.1z"/><path fill="#a79080" fill-opacity=".5" d="M89 51.3l.1 1.5-4.6.6-.2-1.5z"/><path fill="#657876" fill-opacity=".5" d="M48.8 47l-.8 7.7-1.5-.1.8-7.8z"/><path fill="#cfdde0" fill-opacity=".5" d="M41.4 22.2l-.5 1.5-12-3.7.5-1.5z"/><path fill="#8eb4b8" fill-opacity=".5" d="M42.7 21.7l-1.4-.6 5-13.1 1.5.6z"/><path fill="#6e4340" fill-opacity=".5" d="M50.3 33.4l2.8-3.7 1.3 1-2.8 3.7z"/><path fill="#76863a" fill-opacity=".5" d="M53.8 27.1l1.4-.6 2 4.2-1.4.7z"/><path fill="#dadcde" fill-opacity=".5" d="M298.4 134.4h79.7v1.5h-79.7z"/><path fill="#b2b57a" fill-opacity=".5" d="M100.7 30.4l6-1.4.4 1.5-6 1.4z"/><path fill="#525d38" fill-opacity=".5" d="M122.3 7.3l.5 1.5-3 1-.4-1.4z"/><path fill="#b8b7bd" fill-opacity=".5" d="M81.4 101.1l5.1-5.9 2.4 2.1-5.1 5.9z"/><path fill="#d1d2d4" fill-opacity=".5" d="M291.5 51.3l3.6-7 5.6 2.9-3.6 7z"/><path fill="#c2e1e1" fill-opacity=".5" d="M41.1 53.5l5 6-1.3 1-4.9-6z"/><path fill="#c5c6ca" fill-opacity=".5" d="M319.1 73.9l-6.1-1 .7-4.6 6.2 1z"/><path fill="#140800" fill-opacity=".5" d="M54.1 34.6l3.7 3-1 1.2-3.6-3z"/><path fill="#485d57" fill-opacity=".5" d="M49.4 14.5l-1.8-7.6 4.6-1 1.7 7.5z"/><path fill="#92b9b2" fill-opacity=".5" d="M143 40.7l-1.5-.3 1.4-7.7 1.6.3z"/><path fill="#490000" fill-opacity=".5" d="M79.4 2.3l.6 6.2-1.5.2-.7-6.3z"/><path fill="#7e968f" fill-opacity=".5" d="M112.6 77l-.3 1.5-4.6-.8.3-1.5z"/><path fill="#e4f3f4" fill-opacity=".5" d="M40.9 18l-1.6-.3L42 5.4l1.6.4z"/><path fill="#622832" fill-opacity=".5" d="M68.5 15.7l-2.4-4 1.4-.8 2.3 4z"/><path fill="#bfd0d1" fill-opacity=".5" d="M146.5 7.6l-2.5 5.7-1.5-.6 2.6-5.7z"/><path fill="#81485b" fill-opacity=".5" d="M59 21.3l1.6-.3.6 3-1.5.3z"/><path fill="#566242" fill-opacity=".5" d="M112.6 22.6l-.3 1.6-7.7-1.5.3-1.6z"/><path fill="#6b473d" fill-opacity=".5" d="M65.2 10.7l1-4.6 1.5.4-1 4.5z"/><path fill="#6b6e77" fill-opacity=".5" d="M44 28l-1.5.2-.6-7.8 1.6-.1z"/><path fill="#344448" fill-opacity=".5" d="M58.5-10.1l1.5.2L55.6 18l-1.5-.2z"/><path fill="#510006" fill-opacity=".5" d="M103.4 42l-8.9-2.9.5-1.4 9 2.8z"/><path fill="#7e6668" fill-opacity=".5" d="M80.4 26.8l3-.4.3 1.5-3.1.4z"/><path fill="#d9dbd7" fill-opacity=".5" d="M69.7 95.4L67 93.8l5.5-9.5 2.7 1.6z"/><path fill="#500a17" fill-opacity=".5" d="M112.8 13l2.5-15.4 1.5.3-2.4 15.4z"/><path fill="#ccccd2" fill-opacity=".5" d="M365.4 151.5l1.3.8-2.4 4-1.4-.8z"/><path fill="#d8dbde" fill-opacity=".5" d="M139.3 138.5l-4.8-6.2 24.6-19.2 4.8 6.1z"/><path fill="#48414a" fill-opacity=".5" d="M65.9 2.2L63 .8l.7-1.4L66.6.8z"/><path fill="#182f30" fill-opacity=".5" d="M49.4 38.5l-4.2-2.1.7-1.4 4.2 2z"/><path fill="#cccfd2" fill-opacity=".5" d="M170.2 80.6L153 78.8l.2-1.6 17 1.8z"/><path fill="#860522" fill-opacity=".5" d="M103.9 57.4l1.5-.5 1.7 6-1.5.5z"/><path fill="#020900" fill-opacity=".5" d="M97 33.7L89.3 35l-.3-1.5 7.7-1.4z"/><path fill="#b2686f" fill-opacity=".5" d="M106.5 54.6l1.6.2-.5 4.6-1.6-.1z"/><path fill="#74a4a1" fill-opacity=".5" d="M53.4 61l12.5 11.7-2 2.3-12.7-11.7z"/><path fill="#890d1f" fill-opacity=".5" d="M99.8 38.6l1.7 4.4-2.9 1.2-1.7-4.4z"/><path fill="#928872" fill-opacity=".5" d="M77.5 50.4l-.4 1.5-3-.7.3-1.5z"/><path fill="#799f9b" fill-opacity=".5" d="M44.2 44.7l5.3 14.7-1.5.6-5.3-14.7z"/><path fill="#4f0c18" fill-opacity=".5" d="M87.7 40.6L84.3 27l1.5-.4 3.4 13.6z"/><path fill="#000200" fill-opacity=".5" d="M99 62.6l-1.5-.6 2-4.3 1.4.7z"/><path fill="#9a7f79" fill-opacity=".5" d="M114 25.5l4.5-1 .4 1.6-4.6 1z"/><path fill="#2e1019" fill-opacity=".5" d="M50 43l3.4-7 1.4.7-3.5 7z"/><path fill="#d5d7d9" fill-opacity=".5" d="M117.2 146.9h101.5v1.5H117.3z"/><path fill="#bfc0c4" fill-opacity=".5" d="M55.5 146.9h-75v-1.6h75z"/><path fill="#680f07" fill-opacity=".5" d="M70.4 20.7l-.2 1.6-7.8-.8.2-1.6z"/><path fill="#909295" fill-opacity=".5" d="M148.2 65.6l1.4.7-8.8 16.6-1.4-.8z"/><path fill="#3e1522" fill-opacity=".5" d="M100 77.2l-.8-1.3 11.7-7.8.8 1.3z"/><path fill="#7a6e70" fill-opacity=".5" d="M142.5 44.4l-1.6.3-.6-3.1 1.6-.3z"/><path fill="#6c5447" fill-opacity=".5" d="M52.3 45.2l-1.7 2.6-1.3-.8 1.6-2.6z"/><path fill="#bdbcc1" fill-opacity=".5" d="M149.2 47.8l9.2-1.8.3 1.5-9.2 1.8z"/><path fill="#680319" fill-opacity=".5" d="M137.3 48l-1.5.5-2.8-10.6 1.5-.4z"/><path fill="#0a1400" fill-opacity=".5" d="M103.5 2.9l-4.3 1.8L98 1.8l4.3-1.8z"/><path fill="#6c3e40" fill-opacity=".5" d="M74 31.6l-1-1 4.5-4.4 1 1.1z"/><path fill="#dddfe0" fill-opacity=".5" d="M93 192.8l-68.8-1.2V190l68.8 1.2z"/><path fill="#eff2f6" fill-opacity=".5" d="M264.7 131.4l20.7-11 26.4 49.7-20.7 11z"/><path fill="#dddde3" fill-opacity=".5" d="M146.2 150.4l.3-1.5 27.6 5.4-.3 1.5z"/><path fill="#932a4b" fill-opacity=".5" d="M129.6 10.1l-.9-1.3 2.7-1.7.8 1.3z"/><path fill="#8e3a42" fill-opacity=".5" d="M78.9 27.2l1.4 2.7-1.4.8-1.4-2.8z"/><path fill="#663e3a" fill-opacity=".5" d="M115.7 25.4l-.1-1.5 7.7-.9.2 1.6z"/><path fill="#600a22" fill-opacity=".5" d="M77.3 15.6L75.8-14h1.5L79 15.5z"/><path fill="#cbe1d9" fill-opacity=".5" d="M133.6 59.5l2.2 2.3-2.2 2.1-2.2-2.2z"/><path fill="#060000" fill-opacity=".5" d="M118.5 64.6l-2.8 7.3-1.4-.6L117 64z"/><path fill="#e4e7e8" fill-opacity=".5" d="M346.4 162l-37.3 4-.8-7.8 37.3-3.9z"/><path fill="#ededf2" fill-opacity=".5" d="M35.8 31.6l.3 15.6-48.5.9-.2-15.6z"/><path fill="#d3d5d6" fill-opacity=".5" d="M202.8 55.6l-2.8 3.8-1.3-1 2.9-3.7z"/><path fill="#e1e3e3" fill-opacity=".5" d="M206.3 20.3h101.5V22H206.2z"/><path fill="#e7e6ec" fill-opacity=".5" d="M18.4 14.6l.7-9.4 7.8.6-.7 9.3z"/><path fill="#9d9fa5" fill-opacity=".5" d="M145.4 72.9l-.6-1.4 11.3-5.3.7 1.4z"/><path fill="#eceeef" fill-opacity=".5" d="M177.3 40.9l16.1-9.7 12 20.1-16 9.7z"/><path fill="#3f1a23" fill-opacity=".5" d="M126.2 53.9l1.5.3-2.3 12.2-1.6-.3z"/><path fill="#5d8a8b" fill-opacity=".5" d="M72.1 77.6l4.6 1.1-.4 1.5-4.5-1.1z"/><path fill="#e5e5e5" fill-opacity=".5" d="M34.4 62.5l15.8 6.7-1.8 4.3-15.8-6.7z"/></svg>