<svg xmlns="http://www.w3.org/2000/svg" viewBox="0 0 400 200"><path fill="#d2d2d3" d="M0 0h400v200H0z"/><g fill-opacity=".5"><path d="M142.7 2.3L43.5-24.2l2.7 92.5 96.1 35.2z"/><path fill="#2f0000" d="M70.7 84.6L135 63l8.9-87.3L37.4 30.3z"/><path fill="#f2f6f9" d="M269.5-21.7L-24.2 214.9l420.4-17.3 11.6-213.7z"/><path fill="#f3f9fc" d="M-16 196.9l-7.3-214.7 94.8 95.3 12.2 82.3z"/><path fill="#95a09d" d="M156.6 132.6L48.6 80l67.2-3 44.1-43.5z"/><path fill="#f2f4f6" d="M249.6 224.2L346-24.2H122l70.7 114z"/><path fill="#42160f" d="M146.9 17.7l-21 52.3-33.2 13.2-53-107.4z"/><path fill="#f5fcff" d="M58-11.6l-82.2 18 56.5 75.8 11.2-63.4z"/><path fill="#929795" d="M184.6 84.7l-110-4.2 41.6 43.4 26.3-72.1z"/><path fill="#d0d1d6" d="M-1.6 148.4l146.2-48.1 23.3-62.8 21 114.6z"/><path fill="#f8fbff" d="M316.7 178.6l-38-79-60.6 32.2 1.2 58.8z"/><path fill="#6c814f" d="M89 2l43.8-26.2-38.7 54.6 10 4z"/><path fill="#a3a5a6" d="M340.7 149.3l-42.5-3 63.7-3.1 62.3 4.2z"/><path fill="#474d41" d="M40.3 51l1.4-27.7 30.5-47.5L61.3 72z"/><path fill="#b7b9ba" d="M410 82.8l-84.6-5L135.2 84l184.7 1.6z"/><path fill="#dce7e6" d="M61.8 78.8l52 4.9-82.8 8L18.2 17z"/><path fill="#6b6d61" d="M143.5 72.3L154.9 56 92.5 94.8l25.2 2.5z"/><path fill="#b8c8c2" d="M99.7 92.5l29-25 12.6-18.8L181 29.4z"/><path fill="#100" d="M112.6 32.9l-11 8 13 12.6 22.4-2.7z"/><path fill="#82384c" d="M38 12.7l44.5 16 44 39.3L74 33.1z"/><path fill="#bfc1c2" d="M136 17.3l124.3 6.2 164-4-126.1-1.9z"/><path fill="#cee4df" d="M-3.5 95.3L112.1 79l27.7-17.2L111 83.6z"/><path fill="#3e0f10" d="M54 61.4l82-3.4-33.8 20.3-56-51.6z"/><path fill="#f8fafa" d="M220.9 18l53.5-41.2L84.9-21l80.8 36.5z"/><path fill="#d8dada" d="M418.8 222.4l-210 1.8 147.4-76.9 60.2 4.3z"/></g></svg>