<svg xmlns="http://www.w3.org/2000/svg" viewBox="0 0 400 200"><path fill="#d2d2d3" d="M0 0h400v200H0z"/><path fill-opacity=".5" d="M144.5-8.4L141.4 82l-96.9-3.3 3.2-90.6z"/><path fill="#2f0000" fill-opacity=".5" d="M36.6 29.8l56.2-54.3 59.7 61.9-56.2 54.2z"/><path fill="#f6fafd" fill-opacity=".5" d="M415.6 198.4H164.1V0h251.5z"/><path fill="#f5fafd" fill-opacity=".5" d="M-10.3-19.6L159 197.1l-62.8 49L-73 29.6z"/><path fill="#7b8682" fill-opacity=".5" d="M95.3 122.6l-18-31.1 75.8-43.8 18 31.1z"/><path fill="#410000" fill-opacity=".5" d="M122.6-19.8l20.7 7.1-30 87.2-20.7-7.1z"/><path fill="#442215" fill-opacity=".5" d="M39.3 47.3L73.5 6.6l41.9 35.2-34.2 40.7z"/><path fill="#e6e8ea" fill-opacity=".5" d="M148.6 156L29.3 284l-145.1-135.3L3.5 20.7z"/><path fill="#fbffff" fill-opacity=".5" d="M233 201.5l-27-66.7 78.2-31.6 27 66.7z"/><path fill="#606058" fill-opacity=".5" d="M138.9 77.8l2.6 12.2-41.3 8.8-2.6-12.2z"/><path fill="#ced5d7" fill-opacity=".5" d="M171.8 96.9l-33-67.4 25.4-12.3L197 84.6z"/><path fill="#f4fbfd" fill-opacity=".5" d="M38.9 65.9l-45.1-4L.2-11.2l45.1 4z"/><path fill="#d5d7d8" fill-opacity=".5" d="M450.6 76.4l5 143.6-148.4 5.2-5-143.7z"/><path fill="#ecffff" fill-opacity=".5" d="M143.8 53.4l-22.4 24-1.1-1 22.3-24z"/><path fill="#c1c5c7" fill-opacity=".5" d="M68.8 84.9l35.6-5 9.6 68-35.6 5z"/><path fill="#fff" fill-opacity=".5" d="M156.6 19.5L132-4.5l13-13.4L169.7 6z"/><path fill="#060000" fill-opacity=".5" d="M138.1 54.3l-24.7 21.5-3.1-3.5 24.8-21.6z"/><path fill="#e3e5e7" fill-opacity=".5" d="M133.6 115.6H218v89h-84.4z"/><path fill="#5e3f38" fill-opacity=".5" d="M73.1 46.2L39 27.2l36.3-65.6 34.2 19z"/><path fill="#39271a" fill-opacity=".5" d="M98.4 9.4h45.3v20.3H98.5z"/><path fill="#939b93" fill-opacity=".5" d="M153.6 38.2L140 102.4l-7.7-1.6L146 36.6z"/><path fill="#827b5b" fill-opacity=".5" d="M121.6 31L100 34.6l-1.3-7.7 21.6-3.5z"/><path fill="#030000" fill-opacity=".5" d="M101 42.3l10.6-11.5 17.1 16-10.6 11.4z"/><path fill="#57a8a7" fill-opacity=".5" d="M38.4 36l9.3-1.4 3 21.7-9.3 1.3z"/><path fill="#c4eee2" fill-opacity=".5" d="M122.9 77L79 88.5l-.4-1.5 43.8-11.7z"/><path fill="#b9bbbb" fill-opacity=".5" d="M405.5 21.9H249.2v-4.7h156.3z"/><path fill="#f1f2f3" fill-opacity=".5" d="M268.5-39.5l25.8 90.1-108.1 31-25.8-90z"/><path fill="#a2213e" fill-opacity=".5" d="M118.9 60.2l-7 6.3-19.8-22 7-6.3z"/><path fill="#e0b8de" fill-opacity=".5" d="M78.8 38.6l-1.3-9.3 4.6-.7 1.3 9.3z"/><path fill="#a9abab" fill-opacity=".5" d="M207.9 85v-1.5L334.2 79v1.6z"/><path fill="#a5a6ac" fill-opacity=".5" d="M57.8 144.7V143l126.6 4.4v1.6z"/><path fill="#959799" fill-opacity=".5" d="M299.2 144.4l100 1.8v1.5l-100-1.7z"/><path fill="#6d8d51" fill-opacity=".5" d="M88.8 6.3l29-21.1 7.4 10-29 21.2z"/><path fill="#300000" fill-opacity=".5" d="M61 60.2l-4.3-2L84.4 3.7 88.6 6z"/><path fill="#e8eaec" fill-opacity=".5" d="M103.6 136L33.3 257.8-61.4 203 8.9 81.3z"/><path fill="#b0b4b5" fill-opacity=".5" d="M295.3 19l-151.5 2.6v-1.5l151.5-2.7z"/><path fill="#70746d" fill-opacity=".5" d="M120.1 83.8l.4 10.9-36 1.2-.3-10.9z"/><path fill="#a9aaae" fill-opacity=".5" d="M.8 147.7v-1.5l96.8-1.7v1.5z"/><path fill="#b8babb" fill-opacity=".5" d="M462.5 86.7L195.3 82v-1.5L462.5 85z"/><path fill="#92b0ae" fill-opacity=".5" d="M30.6 85l62-7.6.2 1.6-62 7.6z"/><path fill="#babdc4" fill-opacity=".5" d="M116.8 126.2l-10.2-14 59.5-43L176 83z"/><path fill="#900324" fill-opacity=".5" d="M119.1-7.5l13.2-5 9.5 24.7-13.1 5z"/><path fill-opacity=".5" d="M83 78.6l-.2-1.5 29.4-4.2.3 1.6z"/><path fill="#989a9b" fill-opacity=".5" d="M219.5 145.4l-28 3-.1-1.6 28-3z"/><path fill="#2d2210" fill-opacity=".5" d="M76 29.3L102.5 77l-8.2 4.6-26.5-47.9z"/><path fill="#e8eff1" fill-opacity=".5" d="M34.1 46.7l-38-14.5 21.4-55.5L55.4-8.7z"/><path fill="#200000" fill-opacity=".5" d="M116 28.7l-.3 1.5-49-10.4.4-1.5z"/><path fill="#d8e7e6" fill-opacity=".5" d="M169.3 41.2l-26.5 1.9-1.2-17.2 26.5-1.8z"/><path fill="#52583f" fill-opacity=".5" d="M55.6 3.7L74 38.2l-12.4 6.6-18.4-34.5z"/><path fill="#509342" fill-opacity=".5" d="M96.4 63.2l1 3-29.7 9.6-1-3z"/><path fill="#a9b3b6" fill-opacity=".5" d="M-1.6 20l45.3-2.4V19l-45.2 2.4z"/><path fill="#378d86" fill-opacity=".5" d="M65.8 69l-3 3.6-14.5-11.8 3-3.7z"/><path fill="#250203" fill-opacity=".5" d="M132-16.9l-8 38.2-13.8-2.9 8-38.2z"/><path fill="#140005" fill-opacity=".5" d="M129.3 33.2l9-23.3L144 12l-9 23.3z"/><path fill="#420003" fill-opacity=".5" d="M94.5 57.2l-1-6.2 41.7-6.6 1 6.2z"/><path fill="#707064" fill-opacity=".5" d="M149.8 70.9L109.7 95l-4.9-8L145 62.8z"/><path fill="#d898ae" fill-opacity=".5" d="M131 10.1l-1.5-.3L133-8.6l1.5.3z"/><path fill="#a85765" fill-opacity=".5" d="M103.1 69.6l-1.4-.7 9.2-18.1 1.4.7z"/><path fill="#b2b1b3" fill-opacity=".5" d="M-4.7 83.5L46.7 79l.1 1.6L-4.5 85z"/><path fill="#240c07" fill-opacity=".5" d="M64 68.3l-1-7.8 43.4-5.3 1 7.7z"/><path fill="#7e233a" fill-opacity=".5" d="M43.5 28L117-25.3l3.6 5.1-73.3 53.3z"/><path fill="#ebedf0" fill-opacity=".5" d="M137.3 150l31 3.3-4 38.9-31.1-3.3z"/><path fill="#977262" fill-opacity=".5" d="M101.8 41.5l1 1.3-31.2 23.5-1-1.3z"/><path fill="#310909" fill-opacity=".5" d="M76 60.6l17.2-50.3 7.4 2.6L83.3 63z"/><path fill="#72a199" fill-opacity=".5" d="M144.2 64l-4-57.6 1.5-.1 4 57.6z"/><path fill="#e8ebec" fill-opacity=".5" d="M36.4 98.6L11.3 44.8l22.6-10.6L59 88z"/><path fill="#f490b2" fill-opacity=".5" d="M69.8 26.8l-6.2 1-.5-3 6.1-1.1z"/><path fill="#336363" fill-opacity=".5" d="M71.3-22.8l6.5 4.4L49 24.3 42.5 20z"/><path fill="#afb1b2" fill-opacity=".5" d="M421 80.5l-87.3 4.6v-1.6L421 79z"/><path fill-opacity=".5" d="M91-3.3l.9-1.2 12.5 9.4-1 1.2z"/><path fill="#a2866d" fill-opacity=".5" d="M109 13.4l.3 1.5-23 4.5L86 18z"/><path fill="#bbe590" fill-opacity=".5" d="M107.3 34.8l-13.8-7.3.7-1.4 13.8 7.3z"/><path fill="#e6e8e9" fill-opacity=".5" d="M377 83.6l.8 48.5-84.4 1.4-.8-48.4z"/><path fill="#ffb2e3" fill-opacity=".5" d="M133.1 39.6l-4 4.7-1.3-1 4.1-4.8z"/><path fill="#cc9cab" fill-opacity=".5" d="M57.3 48.7l-3.4-7 2.8-1.4 3.4 7z"/></svg>