<svg xmlns="http://www.w3.org/2000/svg" viewBox="0 0 400 200"><path fill="#d2d2d3" d="M0 0h400v200H0z"/><path fill-opacity=".5" d="M47.3-29l98.3 3.4-3.8 109.3-98.4-3.4z"/><path fill="#f7fbfe" fill-opacity=".5" d="M432.1-2L263.4 315.5 88.2 222.2 256.9-95z"/><path fill="#300000" fill-opacity=".5" d="M113.9 85.6l-76.6-39 34.8-68.2 76.5 39z"/><path fill="#f8feff" fill-opacity=".5" d="M-37.4 29.9L15-1.5l102.2 170L64.8 200z"/><path fill="#7a8581" fill-opacity=".5" d="M86 90l66.3-38.2 16.4 28.4-66.3 38.3z"/><path fill="#e6e8eb" fill-opacity=".5" d="M41.7 52.8l111.2 107.5L16.2 301.9-95.1 194.4z"/><path fill="#41160a" fill-opacity=".5" d="M122.3 4.9l19.8 42.5L70 81 50 38.6z"/><path fill="#f1f4f4" fill-opacity=".5" d="M215.3-61.4l67.2 96L202 91.1 134.7-5z"/><path fill="#888d89" fill-opacity=".5" d="M157 81.5l-68 31.7-10-21.3 68-31.7z"/><path fill="#fbfeff" fill-opacity=".5" d="M308.5 173.3l-75.4 26-24.4-71 75.4-26z"/><path fill="#dfe1e2" fill-opacity=".5" d="M302.5 219.9L299 18.3l128.1-2.2 3.6 201.5z"/><path fill="#c8cbd0" fill-opacity=".5" d="M163.3 156.8l-33-9.5L157 54.2l33 9.4z"/><path fill="#42050e" fill-opacity=".5" d="M138.2 56.8l-26.6.5-1.3-78.2 26.5-.4z"/><path fill="#f4f8fb" fill-opacity=".5" d="M81.2-56.5L8.6 80l-41.4-22L39.8-78.5z"/><path fill="#a3a6a6" fill-opacity=".5" d="M140.6 83.6l267.2-4.7v1.6L140.7 85z"/><path fill="#532b27" fill-opacity=".5" d="M49.6 63l-9.1-42.8 45.8-9.8 9.1 42.8z"/><path fill="#b1c6c0" fill-opacity=".5" d="M84.3 107.7l66.3-61.8 1 1.1-66.2 61.8z"/><path fill="#ccd1d3" fill-opacity=".5" d="M138.2 131.3L116.6 158 35.2 92.1 57 65.4z"/><path fill="#371210" fill-opacity=".5" d="M133.1 66.3l-48.3 13-10.1-37.8 48.3-13z"/><path fill="#66655f" fill-opacity=".5" d="M92.5 85.3l37.4-3.3 1 12.4-37.3 3.3z"/><path fill="#9bbdb5" fill-opacity=".5" d="M140.6 55.5V14.8h11v40.7z"/><path fill="#a3a4a9" fill-opacity=".5" d="M150 143.2v1.5L26.6 149v-1.5z"/><path fill="#8d324a" fill-opacity=".5" d="M114.7 62.2L62 18l3-3.6 52.7 44.2z"/><path fill="#e9eaec" fill-opacity=".5" d="M-46.4 73l80.1-39.1 76.7 157.3-80 39z"/><path fill="#9fa1a3" fill-opacity=".5" d="M300.8 148.4v-4.7h71.9v4.7z"/><path fill="#479494" fill-opacity=".5" d="M45.4 56.4L39 24.2l4.6-1L50 55.6z"/><path fill="#787855" fill-opacity=".5" d="M96 29.5l24.7-10 3.5 8.8-24.6 10z"/><path fill="#739155" fill-opacity=".5" d="M88.8 10.5L91-11.2 112.8-9l-2.3 21.8z"/><path fill="#bdbfc0" fill-opacity=".5" d="M161.7 17.2h137.5v4.7H161.7z"/><path fill="#ddf2ff" fill-opacity=".5" d="M84.2 27.6L83 36.9l-3-.4 1-9.3z"/><path fill="#dffcf6" fill-opacity=".5" d="M121.1 76l-1-1 22.8-21.4 1 1.2z"/><path fill="#a7a8ab" fill-opacity=".5" d="M212.5 144.5l-89 4.7v-1.6l88.9-4.6z"/><path fill="#acc2bf" fill-opacity=".5" d="M111.7 79v1.6l-125 4.4v-1.6z"/><path fill="#233216" fill-opacity=".5" d="M104.8 71.4l-4.3 10.1L53 61.4l4.3-10.1z"/><path fill="#3b0000" fill-opacity=".5" d="M66.2 20l5-9.8 23.6 12-5 9.8z"/><path fill="#acaeae" fill-opacity=".5" d="M461 20.2v1.5L300 19v-1.6z"/><path fill="#eaeff1" fill-opacity=".5" d="M146.1 36l-9-63.5 49.6-7 9 63.5z"/><path fill="#886c66" fill-opacity=".5" d="M127.3 25.4l3.1-.5 3.2 20-3 .5z"/><path fill="#5a954b" fill-opacity=".5" d="M90 63.7l1.4 2.8-23.6 12-1.4-2.8z"/><path fill="#0c0000" fill-opacity=".5" d="M117.1 71.2l-6-43.3 4.6-.7 6 43.4z"/><path fill="#acaeb2" fill-opacity=".5" d="M84.3 143v1.6l-85.8 4.5v-1.5z"/><path fill="#babcc3" fill-opacity=".5" d="M98.3 101.3l62-8.7 2.3 17-61.9 8.7z"/><path fill="#aab7ba" fill-opacity=".5" d="M43 19.9l-.1 1.6-43.7-2.3v-1.6z"/><path fill="#5b5b42" fill-opacity=".5" d="M59.5 40.1L42.2 18l12.3-9.6 17.3 22.2z"/><path fill="#ac183a" fill-opacity=".5" d="M129.5 14.2L124-10.2l10.6-2.4 5.7 24.3z"/><path fill="#1c1a06" fill-opacity=".5" d="M75.5 60.5l16.9-31.7 5.5 2.9L81 63.4z"/><path fill="#c6e0d8" fill-opacity=".5" d="M54.9 93.3l66.4-17.8.4 1.5-66.4 17.8z"/><path fill="#8c6859" fill-opacity=".5" d="M99 44l1 1.3-28.7 21.6-1-1.2z"/><path fill="#4a938b" fill-opacity=".5" d="M69.2 79L48 60.5l3-3.5 21.3 18.4z"/><path fill="#9e243a" fill-opacity=".5" d="M119.5 57.2l-12 12.4-6.7-6.5 12-12.4z"/><path fill="#a19f9c" fill-opacity=".5" d="M146.5 38.5l16.2 5.6-7.6 22.1-16.3-5.6z"/><path fill="#efe6e9" fill-opacity=".5" d="M110.4 55.3l-2.2 4.2-1.4-.8 2.2-4.1z"/><path fill="#a9aaad" fill-opacity=".5" d="M147.6 19.6l50-1.7v1.5l-49.9 1.8z"/><path fill="#dcdfe0" fill-opacity=".5" d="M402.3 183.6l-186.5 68-13.4-36.8L389 146.9z"/><path fill="#0d0000" fill-opacity=".5" d="M128.1 51.2l-21.8 2.2-1.6-15.5 21.8-2.3z"/><path fill="#cc8dab" fill-opacity=".5" d="M76.3 14L73.7 3.6l1.5-.4L78 13.7z"/><path fill="#00130e" fill-opacity=".5" d="M101.6 77.6l-29.6 1-.2-4.6 29.7-1z"/><path fill="#3b0000" fill-opacity=".5" d="M80.7-6.1l9.2 2-6.5 30.5-9.2-2z"/><path fill="#2e270d" fill-opacity=".5" d="M97.5-4.2l2.9-1.1L116.6 37l-3 1.1z"/><path fill="#1e100c" fill-opacity=".5" d="M137.2 35.4l-10.5-3L133 10l10.5 3z"/><path fill="#967d66" fill-opacity=".5" d="M94.1 26.9l32.3 5.6-.2 1.6-32.3-5.7z"/><path fill="#b1be76" fill-opacity=".5" d="M108.6 16.8l-.3 1.5-9.1-2.3.3-1.5z"/><path fill="#a3a6a7" fill-opacity=".5" d="M411.7 143.8v4.6h-37.5v-4.7z"/><path fill="#e6bdc8" fill-opacity=".5" d="M91.6 13.1l-2.2 4.2-1.3-.8 2.2-4z"/><path fill="#edeeef" fill-opacity=".5" d="M361.3 69.1l-104.6-5.5L259 20l104.6 5.5z"/><path fill="#2a6056" fill-opacity=".5" d="M66.5 4.2L51 19.6 44.4 13 60-2.5z"/><path fill="#1d1510" fill-opacity=".5" d="M138.2 45.8l2.3 2-24 26.8-2.3-2.1z"/><path fill="#1f1400" fill-opacity=".5" d="M103.6 28.1L137.3-15l1.2 1L105 29z"/><path fill="#b8babb" fill-opacity=".5" d="M141.4 82.8h246.9v1.6H141.4z"/><path fill="#9c6d66" fill-opacity=".5" d="M65.8 54.3l13-5.3.7 1.4-13 5.3z"/><path fill="#9a9b99" fill-opacity=".5" d="M100.2 88.6L98 101l-18.5-3.6L81.8 85z"/><path fill="#646454" fill-opacity=".5" d="M104.7 94l-1-1.3 37-28.8 1 1.2z"/><path fill="#f4f6f6" fill-opacity=".5" d="M234 19L127-3.7l3-13.8L237 5.3z"/><path fill="#e2e4e4" fill-opacity=".5" d="M323.4 143.9l-2.9-54.6L447 82.7l2.9 54.6z"/><path fill="#e495b1" fill-opacity=".5" d="M119.5 57.8l2-2.5 1.2 1-2 2.4z"/><path fill="#37000c" fill-opacity=".5" d="M82.2-1.7l1.1-2.9 20.4 7.8-1 3z"/><path fill="#758043" fill-opacity=".5" d="M49.1 22.1l1.2-1 27.2 30.2-1.2 1z"/><path fill="#ca91a5" fill-opacity=".5" d="M131.3 8.5l-1.4-.8L139-7l1.4.8z"/><path fill="#8e9770" fill-opacity=".5" d="M94.9 12.3L80.4-9.9l1.3-.9 14.5 22.3z"/><path fill="#878082" fill-opacity=".5" d="M43.6 46.3l13.6-3.4.8 3-13.7 3.4z"/><path fill="#310200" fill-opacity=".5" d="M113.7 30.7L77.5 3.4l1-1.3 36.2 27.3z"/><path fill="#182f00" fill-opacity=".5" d="M62.5 25.6l3.5 3-11.3 13-3.5-3z"/><path fill="#060407" fill-opacity=".5" d="M118 71l-11.8 7.7-.8-1.3 11.8-7.7z"/><path fill="#7b0219" fill-opacity=".5" d="M71.1 21.2L53.3 27l-1-3 17.9-5.7z"/><path fill="#f2f8fb" fill-opacity=".5" d="M-1.6 9.9L.8-4 47 4.2 44.5 18z"/><path fill="#cdefa2" fill-opacity=".5" d="M101.3 28.8l1.1 1.1-2.2 2.2-1-1z"/><path fill="#e483b0" fill-opacity=".5" d="M132.6 43l-.9 1.2-6.5-4.3.9-1.3z"/><path fill="#dcdee2" fill-opacity=".5" d="M184.4 135L116 161.3l-11.2-29.1 68.5-26.4z"/><path fill="#f2f5fc" fill-opacity=".5" d="M257 165.6v32.8h-40.6v-32.8z"/><path fill="#2c0310" fill-opacity=".5" d="M61.6 48.1l12.2 12.2-8.9 8.8-12.1-12.2z"/><path fill="#74000f" fill-opacity=".5" d="M124.5 14L140 6.9l2.6 5.7-15.6 7.2z"/><path fill="#767669" fill-opacity=".5" d="M151.1 57.3l-22.4 32-6.4-4.4 22.4-32z"/><path fill="#c44169" fill-opacity=".5" d="M105.4 46l-10.5 3-1.8-6 10.4-3.2z"/><path fill="#3f2027" fill-opacity=".5" d="M44.4 22.5l1.5-.3 8.1 35-1.5.3z"/><path fill="#ac5b66" fill-opacity=".5" d="M48 31.4l-.6-11 6.2-.2.6 10.9z"/><path fill="#570000" fill-opacity=".5" d="M110 53.6l-9.2 2-3-13.8 9.2-2z"/><path fill="#140000" fill-opacity=".5" d="M79 54.3l25 .8-.2 7.8-25-.8z"/><path fill="#e5e7e9" fill-opacity=".5" d="M126.4 147l1.8 101.6-156.2 2.8-1.8-101.6z"/><path fill="#b6b8b9" fill-opacity=".5" d="M181.2 144.4L217 143l.2 4.7-36 1.3z"/><path fill="#330c0c" fill-opacity=".5" d="M133.9-9.8L118 22.5l-9.8-4.8L124-14.6z"/><path fill="#adb782" fill-opacity=".5" d="M110.9 1.2l1.2 3-5.8 2.4-1.2-3z"/><path fill="#8cc2bf" fill-opacity=".5" d="M63-24.6L40 26.8l-1.4-.6 23-51.4z"/><path fill="#baddd4" fill-opacity=".5" d="M124.2 71.6l.8 1.4-32 16.3-.8-1.4z"/><path fill="#4f1317" fill-opacity=".5" d="M127.7 65.7l-6.3-.2L124-4.8l6.2.2z"/><path fill="#7bb067" fill-opacity=".5" d="M100.6 11.2L87.1 7.3l1.3-4.5 13.5 4z"/><path fill="#edefef" fill-opacity=".5" d="M181.6 81.6l-11.4-93 24.8-3 11.4 93z"/><path fill="#191b09" fill-opacity=".5" d="M125.6 21.7L99.8 28l-2-7.6 25.9-6.4z"/><path fill="#c6c7c9" fill-opacity=".5" d="M81.3 84.4H14v-4.7h67.2z"/><path fill="#a6aaaf" fill-opacity=".5" d="M219.5 199.3v-1.6l28.2 1.5-.1 1.5z"/><path fill="#eaf3f1" fill-opacity=".5" d="M65.8 75.1l-.5 4.7-38.9-3.4.4-4.7z"/><path fill="#eceef0" fill-opacity=".5" d="M50 142.2h-67.2V84.4H50z"/><path fill="#340000" fill-opacity=".5" d="M67.9 40.5l4.3 4.5-13.5 13-4.3-4.5z"/><path fill="#be94a8" fill-opacity=".5" d="M61 12.5l5.3 3.4-.8 1.3-5.3-3.4z"/><path fill="#b15c71" fill-opacity=".5" d="M65.9 18l2.5 9-1.5.4-2.5-9z"/><path fill="#e0e2e4" fill-opacity=".5" d="M398.1 164.8l-85.8-3 .5-15.6 85.9 3z"/><path fill="#4b827f" fill-opacity=".5" d="M44.6 48.3l-5.9-14.5 5.8-2.4L50.4 46z"/><path fill="#721226" fill-opacity=".5" d="M91 1.9l-2.2 5.8-22-8L69-6.2z"/><path fill="#6d7068" fill-opacity=".5" d="M110 95l-4.9-8L129 72.3l5 8z"/><path fill="#4f0414" fill-opacity=".5" d="M78.8 42L60.4-14.5l3-1L81.8 41z"/><path fill="#428988" fill-opacity=".5" d="M82 77.5l25 1.3v1.5L82 79z"/><path fill="#4c8178" fill-opacity=".5" d="M138.5 44.2l4.3-24.6 1.5.3-4.3 24.6z"/><path fill="#edf0f7" fill-opacity=".5" d="M246.1 199L229 160.5l67-29.9 17.2 38.6z"/><path fill="#2d0001" fill-opacity=".5" d="M64.2 20.4l.2-1.6L103 25l-.2 1.6z"/><path fill="#a9a9af" fill-opacity=".5" d="M140 95.7l-.3 11-50-.9.2-11z"/><path fill="#d6dadd" fill-opacity=".5" d="M160.3 30l30.4 29.3-12 12.3-30.3-29.3z"/><path fill="#b0b9bb" fill-opacity=".5" d="M146 23.3l.2-7.8 15.6.3-.2 7.8z"/><path fill="#fc8ca7" fill-opacity=".5" d="M70.3 25h-7.8v-1.6h7.8z"/><path fill="#86997e" fill-opacity=".5" d="M100 35.6l-10.9.7v-1.5l10.8-.8z"/><path fill="#c7c8cc" fill-opacity=".5" d="M112.7 126l-41.4-22 5.1-9.7 41.4 22z"/><path fill="#871833" fill-opacity=".5" d="M62.9 50.6l7.4-2.3 2.8 9-7.5 2.2z"/><path fill="#7c071f" fill-opacity=".5" d="M129.1 48.8l4.9-11.5 7.2 3-4.9 11.5z"/><path fill="#54000b" fill-opacity=".5" d="M79 39l28.7 16-.8 1.3-28.7-16z"/><path fill="#53452e" fill-opacity=".5" d="M115.4-13.4l19 49.6-1.4.6-19-49.6z"/><path fill="#430a0e" fill-opacity=".5" d="M68.2 73.1l-1.5-.5L74 50.3l1.5.5z"/><path fill="#9e6d83" fill-opacity=".5" d="M89.7 18.6l-1.4.7-4.5-8.2 1.3-.7z"/><path fill="#c4c5ca" fill-opacity=".5" d="M26.7 144.9l76.4 4v1.5l-76.5-4z"/><path fill="#0e0000" fill-opacity=".5" d="M79 45.6l-1.3 1-8.2-9.4 1.2-1z"/><path fill="#f6f8fd" fill-opacity=".5" d="M220.5 159.3l-1.9-36 56.2-2.9 1.9 36z"/><path fill="#630017" fill-opacity=".5" d="M138.9 10.4L126.9-8l1.4-.8 12 18.3z"/><path fill="#f0f2f3" fill-opacity=".5" d="M140.7 8l5.6-24.3L189-6.5 183.3 18z"/><path fill="#eff0f1" fill-opacity=".5" d="M354.7 15.6h-186V-1.6h186z"/><path fill="#caa8c8" fill-opacity=".5" d="M121.2 29.9L119 32l-1.1-1 2.2-2.3z"/><path fill="#dfe1e2" fill-opacity=".5" d="M117.2 221.8l-4-32.6 102.4-12.5 4 32.5z"/><path fill="#cceaea" fill-opacity=".5" d="M42.1 18l-3 56.2h-1.5l3-56.2z"/><path fill="#557179" fill-opacity=".5" d="M42 32.4l-1.5-.5 16-44 1.5.5z"/><path fill="#d9a1b3" fill-opacity=".5" d="M131.2 4.3l3 1-1.4 4.4-3-.9z"/><path fill="#f0f2f2" fill-opacity=".5" d="M266.4 95.3h-90.6v-7.8h90.6z"/><path fill="#f6f8f9" fill-opacity=".5" d="M168.8 32v-9.3h101.5V32z"/><path fill="#d9dadc" fill-opacity=".5" d="M266.8 229.4l-13.7-28.1 66-32.2 13.7 28z"/><path fill="#0c0200" fill-opacity=".5" d="M124.8 38.7l-1.9 7.6-21.2-5.3 2-7.6z"/><path fill="#94aa8c" fill-opacity=".5" d="M130.5 54.6l-3.1.2-.1-1.6 3.1-.2z"/><path fill="#9f777c" fill-opacity=".5" d="M122 21.8l-7.1 6-1-1.2 7.2-6z"/><path fill="#c0c4c6" fill-opacity=".5" d="M163 87l-14.7-51 9-2.7L172 84.4z"/><path fill="#d2d3d6" fill-opacity=".5" d="M297.7 43.8l3.5 8.7-13 5.3-3.5-8.7z"/><path fill="#466322" fill-opacity=".5" d="M56 24.4l16.2 12.2-4.7 6.2-16.2-12.2z"/><path fill="#9abd78" fill-opacity=".5" d="M91.4 27.2l1.3-2.9 14.3 6.4-1.3 2.8z"/><path fill="#cecfd0" fill-opacity=".5" d="M165.6 16.2l107.8 2v1.5l-107.8-1.9z"/><path fill="#a4abaa" fill-opacity=".5" d="M142.3 48.7l16.3 21-2.4 1.9-16.4-21z"/><path fill="#260407" fill-opacity=".5" d="M76 45.5L91.6 38l2.8 5.6L78.8 51z"/><path fill="#838683" fill-opacity=".5" d="M87.8 94.7L89 83.8l40.4 4.3-1.2 10.9z"/><path fill="#cdd0d3" fill-opacity=".5" d="M263.5 193l-1.5-.4 4.2-21.5 1.5.3z"/><path fill="#45371d" fill-opacity=".5" d="M114.2 12.6l1.3 1-12.5 16-1.3-1z"/><path fill="#2a4e27" fill-opacity=".5" d="M66 7.9l-10.8-2 2.2-12.2 10.8 1.9z"/><path fill="#f2c5cf" fill-opacity=".5" d="M55.8 42l.8 4.7-1.5.3-.8-4.6z"/><path fill="#7c9672" fill-opacity=".5" d="M107.8 7v3l-14 .3V7.2z"/><path fill="#815958" fill-opacity=".5" d="M105.4 71l-4.4-8.4 1.4-.7 4.4 8.3z"/><path fill="#a991a5" fill-opacity=".5" d="M83.1 34.2l-4.4-1.7 2.3-5.8 4.3 1.7z"/><path fill="#42020f" fill-opacity=".5" d="M90 46.6l-1.6.2-5-35.6L85 11z"/><path fill="#c3a1a6" fill-opacity=".5" d="M110.3 57.2l-1.4.7-2-4.2 1.4-.7z"/><path fill="#9c6789" fill-opacity=".5" d="M56.7 16l5 6-1.3 1-4.9-6z"/><path fill="#53110c" fill-opacity=".5" d="M120.2 5.2l-12.1-2.8 1.4-6L121.6-1z"/><path fill="#271f1d" fill-opacity=".5" d="M134.4 55.5l-8.5 11.2-2.5-1.9 8.5-11.2z"/><path fill="#506c35" fill-opacity=".5" d="M68 77.5l-.7-1.4L93 64.7l.6 1.4z"/><path fill="#f5bdd0" fill-opacity=".5" d="M95 47.5l-1.3-.9 3.5-5 1.3.8z"/><path fill="#f0f2f3" fill-opacity=".5" d="M399 22.3l.3 4.7-153 5.4-.2-4.7z"/><path fill="#bebec3" fill-opacity=".5" d="M319.3 75.1l-7.6-5.5 1.8-2.5 7.6 5.5z"/><path fill="#11070b" fill-opacity=".5" d="M104.7 68.4l20.1-2.4.2 1.5-20 2.5z"/><path fill="#001715" fill-opacity=".5" d="M136.4 35.8l-1.5-.4 5.3-19.6 1.5.4z"/><path fill="#310c04" fill-opacity=".5" d="M128 16.4l-67-4.7v-1.5l67.1 4.6z"/><path fill="#b16976" fill-opacity=".5" d="M70.3 50.1L67 55.4l-1.3-.8 3.3-5.3z"/><path fill="#5c0513" fill-opacity=".5" d="M94.2 37l1-1.2 31 28.8-1.1 1.1z"/><path fill="#eff3f4" fill-opacity=".5" d="M22.5 24l15.6-1 3.4 48.3-15.6 1z"/><path fill="#1e1502" fill-opacity=".5" d="M100.6 0l8 13.3-1.3.8-8-13.4z"/><path fill="#1e0b0d" fill-opacity=".5" d="M58.8 38.5l-12.5 1.1-.4-4.7 12.5-1z"/><path fill="#57614b" fill-opacity=".5" d="M147.6 40.8l-1.5-.6 1.6-4.4 1.5.5z"/><path fill="#eef0f1" fill-opacity=".5" d="M371.9 94.5h-114v-6.2h114z"/><path fill="#0d0800" fill-opacity=".5" d="M116.1 3.5l1.4-.6 8.6 20.1-1.5.7z"/><path fill="#bdc1c5" fill-opacity=".5" d="M141.7 84.3l20 3.5-1.9 10.8-20-3.6z"/><path fill="#42887b" fill-opacity=".5" d="M73.5 78l.3-1.6 13.7 3.4-.4 1.6z"/><path fill="#e5e7e7" fill-opacity=".5" d="M419.1 79.8l-100-1.8.8-43.7L420 36z"/><path fill="#c8cac7" fill-opacity=".5" d="M79.3 110.7l-8.2-27 7.4-2.2 8.3 26.9z"/><path fill="#c7a5b9" fill-opacity=".5" d="M88.8 18.8l-2.4-4 1.4-.8 2.3 4z"/><path fill="#b3b6b9" fill-opacity=".5" d="M173.4 144.5l-89 1.6v-1.6l89-1.5z"/><path fill="#d1d6d8" fill-opacity=".5" d="M166 88.3l8.3 9.2-41.8 37.7-8.4-9.3z"/><path fill="#c599ae" fill-opacity=".5" d="M73.3 12.5l.3-20.3h1.6l-.4 20.3z"/><path fill="#689a62" fill-opacity=".5" d="M90.9 3.3l14.4 9.3-.9 1.3L90 4.6z"/><path fill="#56383e" fill-opacity=".5" d="M52 19.8l46.6-39.2 1 1.2L53 21z"/><path fill="#9ca15d" fill-opacity=".5" d="M102.3 31.4l.7-1.4 5.6 2.7-.7 1.4z"/><path fill="#d8f3e5" fill-opacity=".5" d="M137.5 56.1l3.4-5.2 1.3.8-3.4 5.3z"/><path fill="#65a4a2" fill-opacity=".5" d="M143.2 39.9l-1.6-.1 1.2-21.9 1.5.1z"/><path fill="#e9eaeb" fill-opacity=".5" d="M177.2 50.6l98.3 5.1-1.2 23.4L176 74z"/><path fill="#909091" fill-opacity=".5" d="M145.8 80.4l-15.4 17.7-5.9-5.1L140 75.3z"/><path fill="#39000f" fill-opacity=".5" d="M125.7 30.4l3.8 5-9.8 7.6-3.9-4.9z"/><path fill="#a9abad" fill-opacity=".5" d="M301 148.6l-.2-1.6 28-3.4.1 1.6z"/><path fill="#2c7169" fill-opacity=".5" d="M66 67l-1 1.3-7.5-5.7 1-1.2z"/><path fill="#c2c4c8" fill-opacity=".5" d="M29 14.9l1.2 7.7-10.9 1.6-1-7.8z"/><path fill="#e4e6e8" fill-opacity=".5" d="M216 93.4l2.4 46.8-45.3 2.4-2.4-46.9z"/><path fill="#1e0307" fill-opacity=".5" d="M112.6 21.4l9.1 39.6-1.5.4-9.1-39.6z"/><path fill="#7ab0a9" fill-opacity=".5" d="M45.6 53.9l11.6 14.7-1.3 1-11.5-14.8z"/><path fill="#831c3f" fill-opacity=".5" d="M73.4 15.6l-3-29.5 1.5-.2 3 29.6z"/><path fill="#b9dfdb" fill-opacity=".5" d="M36.8 45.4l1.3-.9L46 56.2l-1.3.8z"/><path fill="#dee0e1" fill-opacity=".5" d="M325.4 94.6L402 96l-.9 48.4-76.5-1.3z"/><path fill="#64121b" fill-opacity=".5" d="M122 51.2l1 1.2L104.6 69l-1-1.2z"/><path fill="#270200" fill-opacity=".5" d="M84.6 10.6l1.3.8L70 34.8l-1.3-1z"/><path fill="#c1c2c5" fill-opacity=".5" d="M148.1 192.4l-4.7 6.2-2.5-1.9 4.7-6.2z"/><path fill="#c9ecc3" fill-opacity=".5" d="M41.7-.6l3.5-3L50.4 2 47 5.3z"/><path fill="#466762" fill-opacity=".5" d="M110.2 77.6l-12.5 1v-1.5l12.4-1z"/><path fill="#102100" fill-opacity=".5" d="M98.6 72.6l-5.8-2.2 3.9-10.2 5.8 2.2z"/><path fill="#e4e5e8" fill-opacity=".5" d="M173.8 172.3l-67.1 2.3-.8-23.4 67.1-2.4z"/><path fill="#2e090f" fill-opacity=".5" d="M87.4 74.5l26.3-3.7.5 3.1-26.4 3.7z"/><path fill="#2f0d00" fill-opacity=".5" d="M70.5 52.3h-1.6l-.3-6.2H70z"/><path fill="#4a7235" fill-opacity=".5" d="M81 73l-.7-1.4L98.7 63l.7 1.4z"/><path fill="#2b3213" fill-opacity=".5" d="M89 71.6l-13.6 3.6-.4-1.5 13.6-3.6z"/><path fill="#cdcfcf" fill-opacity=".5" d="M300.8 20.5v-1.6l159.4 2.8v1.6z"/><path fill="#500313" fill-opacity=".5" d="M83.6 7L83 5.6l22.4-11 .7 1.4z"/><path fill="#3e0c02" fill-opacity=".5" d="M54.4 17.6L61 30.1l-1.4.7L53 18.4z"/><path fill="#0e0005" fill-opacity=".5" d="M130.3 26.8l4.4-1.6L137 31l-4.4 1.6z"/><path fill="#bddedc" fill-opacity=".5" d="M130 67.1l9-14.7 1.3.8-8.9 14.7z"/><path fill="#5b513a" fill-opacity=".5" d="M106.3 36.1l-13.8 2.7-.3-1.5 13.8-2.7z"/><path fill-opacity=".5" d="M109.8 36.7l13 5.3-2.9 7.2-13-5.2z"/><path fill="#c2959f" fill-opacity=".5" d="M67.3 25.7L63 27.3l-.5-1.5 4.4-1.6z"/><path fill="#3a1905" fill-opacity=".5" d="M96.6 13.6l-.7 1.4-9.7-5.2.7-1.3z"/><path fill="#dededf" fill-opacity=".5" d="M54 93.7l17.6-6.4 16.6 45.5-17.6 6.4z"/><path fill="#8f8f6f" fill-opacity=".5" d="M69.6 41.7l4.1 4.7-1.1 1-4.1-4.7z"/><path fill="#5a652b" fill-opacity=".5" d="M106.8 25l-1.6-.2 2.1-10.8 1.5.3z"/><path fill="#6e774a" fill-opacity=".5" d="M88.3 9.5V11l-9.4-.1V9.3z"/><path fill="#5e774a" fill-opacity=".5" d="M110.4 19.7l3.9 5-1.3.9-3.8-5z"/><path fill="#b89681" fill-opacity=".5" d="M75.7 60.8l.2 1.5-3.2.4-.1-1.6z"/><path fill="#1d0401" fill-opacity=".5" d="M116.5 21.2l-1.5-.6L125.7-7l1.4.6z"/><path fill="#c67691" fill-opacity=".5" d="M65 24.7l.8-1.3 5.2 3.4-.8 1.3z"/><path fill="#b4c8c8" fill-opacity=".5" d="M152.7 44.6l-1.6.4-8.4-31.7 1.5-.4z"/><path fill="#3b2324" fill-opacity=".5" d="M55.2 59L48 36.8l1.5-.5 7.2 22.3z"/><path fill="#47280f" fill-opacity=".5" d="M70.2 31.6l-20.6-7L50 23l20.7 7.2z"/><path fill="#100000" fill-opacity=".5" d="M84.6 35.5l-.3-1.6 14-2.2.2 1.6z"/><path fill="#cccfd3" fill-opacity=".5" d="M326.4 163.5l.8 1.4-55.2 29.4-.7-1.4z"/><path fill="#d4d5d8" fill-opacity=".5" d="M200.8 147.6v1.6l-87.5-1.5V146z"/><path fill="#eff0f6" fill-opacity=".5" d="M120.3 154.7v4.7h-136v-4.7z"/><path fill="#b8b9bb" fill-opacity=".5" d="M205.3 142.7l12.4-1 .4 4.6-12.4 1.1z"/><path fill="#d4d6d8" fill-opacity=".5" d="M303.2 153.8v-1.6l85.8-4.4v1.5z"/><path fill="#284c2d" fill-opacity=".5" d="M69.4 78l.2-1.6 3.1.4-.2 1.5z"/><path fill="#e6e7e9" fill-opacity=".5" d="M56.6 86.4L73 126.9l-40.6 16.4-16.3-40.5z"/><path fill="#250000" fill-opacity=".5" d="M68.7 42l-9.6 12.3-1.2-1L67.5 41z"/><path fill="#6b2736" fill-opacity=".5" d="M87.4 41.2l-.8 1.3-19.3-10.2.8-1.4z"/><path fill="#f7fafe" fill-opacity=".5" d="M37.3 22.5l.3 7.8-51.5 1.8-.3-7.8z"/><path fill="#7d000d" fill-opacity=".5" d="M124.7 4.5l1.5-.5 3.8 11.9-1.5.4z"/><path fill="#290703" fill-opacity=".5" d="M111.3 6l1-1.2 24.9 18.8-1 1.3z"/><path fill="#b4b4ba" fill-opacity=".5" d="M262.5 199v1.6l-14.1-1.2.1-1.6z"/><path fill="#520000" fill-opacity=".5" d="M99.4 61.5l7.7-9.9 1.3 1-7.7 9.8z"/><path fill="#b1b1b3" fill-opacity=".5" d="M51 80.3l18.6 2-.2 1.5-18.6-2z"/><path fill="#edf1f6" fill-opacity=".5" d="M301.8 143.9l11.6 27.3-41.7 17.7-11.6-27.3z"/><path fill="#6d061d" fill-opacity=".5" d="M96.3 53.7l-5-11.5 1.5-.6 4.9 11.5z"/><path fill="#b9dbd4" fill-opacity=".5" d="M90.5 86.2l-.4-1.5 24-6.9.5 1.5z"/><path fill="#f0f2f3" fill-opacity=".5" d="M201.8 34.3l-.4-12.5 42.1-1.4.5 12.5z"/><path fill="#637d53" fill-opacity=".5" d="M50.5-11.7l17.5 24-1.3 1-17.5-24z"/><path fill="#d2f4ef" fill-opacity=".5" d="M71 82.7l9-2.9.5 1.5-9 3z"/><path fill="#80725d" fill-opacity=".5" d="M129 23l-1.5.6-1.8-4.4 1.5-.6z"/><path fill="#c7c7cc" fill-opacity=".5" d="M172.3 128.1l3.4 8.8-5.8 2.2-3.4-8.8z"/><path fill="#c3bec0" fill-opacity=".5" d="M-13.4 83.6l.3-4.6 28 1.4-.2 4.7z"/><path fill="#d5d7d9" fill-opacity=".5" d="M217.2 143.7H-150v-1.5h367.2z"/><path fill="#f1f4f8" fill-opacity=".5" d="M219.2 149.8l40.6 2-2.5 46.9-40.5-2.1z"/><path fill="#2c150b" fill-opacity=".5" d="M96 54.6l.8 1.4L68 72l-.8-1.4z"/><path fill="#e3e7e8" fill-opacity=".5" d="M132.2-7.6l4.8-4 16.8 20.7-4.9 4z"/><path fill="#615e3f" fill-opacity=".5" d="M129.5 34.4l-2.7-13.8 1.5-.3L131 34z"/><path fill="#601123" fill-opacity=".5" d="M86.6 29.7h-3.2l.3-17.2H87z"/><path fill="#e4e9e8" fill-opacity=".5" d="M54.9 80L24.4 67.7 28 59l30.4 12.3z"/><path fill="#101a16" fill-opacity=".5" d="M69.6 63.8l-.8 1.3-15-8.6.9-1.3z"/><path fill="#275953" fill-opacity=".5" d="M113.4 77l-.9-1.2 10-7.5 1 1.2z"/><path fill="#1d0200" fill-opacity=".5" d="M76.6 21l.8-1.4L100 33.7 99 35z"/><path fill="#caebe1" fill-opacity=".5" d="M143.8 45.1l-1.5-.4 6-22.6 1.6.4z"/><path fill="#9da68c" fill-opacity=".5" d="M102.5 2.7l3.2-5.4 2.7 1.6-3.2 5.4z"/><path fill="#000001" fill-opacity=".5" d="M122.5 64.5l1.1 2.9-10.1 4-1.2-2.8z"/><path fill="#c8c9cb" fill-opacity=".5" d="M161 20.7l110.8-3.9v1.6L161 22.2z"/><path fill="#de95c7" fill-opacity=".5" d="M52.5 22.8L49.6 24l-.6-1.5 3-1.2z"/><path fill-opacity=".5" d="M101.8 63.1l-4.7.3-.4-6.2 4.6-.3z"/><path fill="#b0b3b9" fill-opacity=".5" d="M146.2 82l-2.3-2 17.7-19.8 2.4 2z"/><path fill="#8b8d83" fill-opacity=".5" d="M147.2 51.4l-7 30.4-1.5-.3 7-30.5z"/><path fill="#e5e7ea" fill-opacity=".5" d="M107 140.1l.1-1.5 78 4v1.6z"/><path fill="#c9e4e2" fill-opacity=".5" d="M125.8 69l5.3-3.3.9 1.3-5.3 3.3z"/><path fill="#570413" fill-opacity=".5" d="M134 50.5l-1 1.1-21.8-22.5 1.2-1z"/><path fill="#696a5f" fill-opacity=".5" d="M137.8 73.6l-36 15.2-.6-1.4 36-15.3z"/><path fill="#7e0115" fill-opacity=".5" d="M102.8 57.6l12.3 6.8-.7 1.4L102 59z"/><path fill="#31681a" fill-opacity=".5" d="M55.2 27.2l9.3-1.2.6 4.7-9.3 1.1z"/><path fill="#aeadb3" fill-opacity=".5" d="M104 146.7l-1.5-.6 4.5-10 1.4.6z"/><path fill="#564631" fill-opacity=".5" d="M138.1 52.7l-2.7-1.5 3-5.5 2.8 1.5z"/><path fill="#e2e2e6" fill-opacity=".5" d="M229.4 125l-.6-1.4 34-15.8.6 1.4z"/><path fill="#f3f8f6" fill-opacity=".5" d="M47.6 5.3L39 14.4 19.6-3.7l8.5-9.1z"/><path fill="#510010" fill-opacity=".5" d="M83.3 3.6l-7.4 13.8-1.4-.7L82 2.9z"/><path fill="#1d0b0b" fill-opacity=".5" d="M135.3 53.3l.8 1.3L116.3 67l-.9-1.3z"/><path fill="#626643" fill-opacity=".5" d="M67.3 69.5l.5-1.4 13.3 4.5-.5 1.5z"/><path fill="#2f5255" fill-opacity=".5" d="M86 77.8l11 .6-.2 1.6-10.9-.6z"/><path fill="#b4b6b7" fill-opacity=".5" d="M327.4 143.7l93.7 3.2v1.6l-93.8-3.3z"/><path fill="#bcbebf" fill-opacity=".5" d="M362.5 82.1l.2-1.5L414 85l-.1 1.5z"/><path fill="#336565" fill-opacity=".5" d="M51.7 42.3l-1 1.2-7-6.1 1-1.2z"/><path fill="#91716b" fill-opacity=".5" d="M68.4 1.7l1.5-.2.8 4.6-1.5.3z"/><path fill="#72894a" fill-opacity=".5" d="M82.2 54.3l1 1.1-4.4 4.4-1.1-1.2z"/><path fill="#80b582" fill-opacity=".5" d="M91.9 5.6l6.2 4.7-1 1.3L91 6.9z"/><path fill="#f2f3f6" fill-opacity=".5" d="M58.4 86.7l.3 6.3-59.3 3-.3-6.2z"/><path fill="#eaebef" fill-opacity=".5" d="M147.7 25.7l37.2-4.5.2 1.5-37.2 4.6z"/><path fill="#dee0e1" fill-opacity=".5" d="M359.7 160.4L362 187l-48.3 4.2-2.3-26.4z"/><path fill="#dadedf" fill-opacity=".5" d="M263 174.7l1.4-.6 8.6 18.4-1.4.6z"/><path fill="#5f072c" fill-opacity=".5" d="M96.1 20.7l-9 2.3-.4-1.5 9-2.3z"/><path fill="#48202a" fill-opacity=".5" d="M110.3 75.8l-6-2 2.6-7.4 6 2z"/><path fill="#7c7a46" fill-opacity=".5" d="M55 27.2l2.2 2.2-4.5 4.4-2.1-2.3z"/><path fill="#778b55" fill-opacity=".5" d="M108.5 5.8l.1 1.5-18.7 1V6.7z"/><path fill="#d8dadb" fill-opacity=".5" d="M286.1 110.4V109l120-8.4v1.6z"/><path fill="#8ea383" fill-opacity=".5" d="M49.5 5.1l-7.9-7.6 1.1-1L50.6 4z"/><path fill="#220500" fill-opacity=".5" d="M75 24.3v-1.5l39 1.3v1.6z"/><path fill="#531532" fill-opacity=".5" d="M115.9 6.5l-.6 7.8-7.8-.5.6-7.8z"/><path fill="#7d2a47" fill-opacity=".5" d="M88.7 19.9l-1.5.5-2.4-7.5 1.5-.5z"/><path fill="#e4e6e7" fill-opacity=".5" d="M6.5 241L.3 169.6l138.5-12.1L145 229z"/><path fill="#679b94" fill-opacity=".5" d="M95.3 81l7.4-2.5.5 1.5-7.5 2.4z"/><path fill="#1e2d1a" fill-opacity=".5" d="M70.4.8l-5.6 5.5L59.3.8l5.5-5.5z"/><path fill="#dddfe3" fill-opacity=".5" d="M187.2 85.3l-4.1 38.8-15.6-1.6 4.1-38.8z"/><path fill="#274a46" fill-opacity=".5" d="M143 10.3l1.4.4-4.5 15-1.5-.5z"/><path fill="#2c0903" fill-opacity=".5" d="M95.3 38l1 1-27.5 27.7-1.1-1.1z"/><path fill="#bbbbbf" fill-opacity=".5" d="M129.7 113.1l-43-7.6.8-4.6 43 7.6z"/><path fill="#d0e4db" fill-opacity=".5" d="M135 65.7l-3-.1.1-4.7h3.1z"/><path fill="#76553a" fill-opacity=".5" d="M99.1 14.4L97.7 19l-1.5-.5 1.4-4.5z"/><path fill="#e7e9eb" fill-opacity=".5" d="M397.7 156.3v4.6h-81.3v-4.7z"/><path fill="#42141a" fill-opacity=".5" d="M82 49.4l-4-2.7 7.3-10.2 3.8 2.7z"/><path fill="#bee3e1" fill-opacity=".5" d="M40.5 54.6l21.7 22.5-1.1 1-21.7-22.4z"/><path fill="#2c473c" fill-opacity=".5" d="M60.2-10.5l-4.8 23-1.6-.4 4.9-23z"/><path fill="#7d4f44" fill-opacity=".5" d="M126.1 10.2l-1.3.8-2.5-4 1.4-.8z"/><path fill="#4d6136" fill-opacity=".5" d="M61.3 25.5l11.1 8.7-1 1.2-11-8.6z"/><path fill="#e0f4ef" fill-opacity=".5" d="M99 82l.3 1.6-9.3 1.5-.2-1.5z"/><path fill="#052312" fill-opacity=".5" d="M84.4 74.2v3.1h-11v-3z"/><path fill="#ab7c8d" fill-opacity=".5" d="M122.5 57.9l-4.2-2 1.4-2.9 4.2 2z"/><path fill="#740022" fill-opacity=".5" d="M56.2 26l-5.6-5.5 1-1.1 5.7 5.4z"/><path fill="#820a39" fill-opacity=".5" d="M116.4 1.6V0h6.3v1.6z"/><path fill="#a77b8b" fill-opacity=".5" d="M103.8 67l1.5.5L104 72l-1.5-.4z"/><path fill="#66918a" fill-opacity=".5" d="M50.3 59.2l-9.7-16 1.3-.9 9.7 16.1z"/><path fill="#e2e4e5" fill-opacity=".5" d="M440.6 36.5l-3.3 46.8-82.6-5.8 3.3-46.7z"/><path fill="#000400" fill-opacity=".5" d="M77.2 47.3l1-1.2 2.4 1.9-1 1.2z"/><path fill="#550814" fill-opacity=".5" d="M43.8 32.5l.7-1.4 7 3.6-.7 1.4z"/><path fill="#464731" fill-opacity=".5" d="M135.8 46.3l4.4 1.6-2.5 7.3-4.5-1.5z"/><path fill="#486a73" fill-opacity=".5" d="M44.4 20.5l-1.1-6.1L54 12.3l1.2 6.1z"/><path fill="#544e48" fill-opacity=".5" d="M140.6 34.4l-3.3 5.4-1.3-.8 3.2-5.4z"/><path fill="#5a3524" fill-opacity=".5" d="M62.6 14l3 13.8-1.6.3-3-13.7z"/><path fill="#7a0820" fill-opacity=".5" d="M140.7 10.5L124.3 16l-1-3 16.4-5.3z"/><path fill="#3d3236" fill-opacity=".5" d="M124.5 68l-1.2-1 6.9-8.5 1.2 1z"/><path fill="#d9b3d7" fill-opacity=".5" d="M130.4 43.4l-1.5.5-1.5-4.5 1.5-.5z"/><path fill="#5b192e" fill-opacity=".5" d="M116.6 22.9l9.9 7.7-1 1.2-9.8-7.7z"/><path fill="#f3f5f9" fill-opacity=".5" d="M295.1 139l-30.9 15-17.1-35.1 30.9-15z"/><path fill="#80718a" fill-opacity=".5" d="M83.5 28.8l1.5.3-1.3 6.2-1.5-.4z"/><path fill="#400e19" fill-opacity=".5" d="M105.5 71.6l-2 4.2-4.3-2 2-4.3z"/><path fill="#7a7660" fill-opacity=".5" d="M86.3 51.3l3-.9 1 3-3 .9z"/><path fill="#938478" fill-opacity=".5" d="M109.9 11.4l-7.2-20.7 1.5-.5 7.1 20.7z"/><path fill="#d69ca7" fill-opacity=".5" d="M131 7.2l-2.2-2.4 1.2-1 2 2.3z"/><path fill="#481b1c" fill-opacity=".5" d="M90.6 58.6l-1.4-7.7 9.3-1.7 1.3 7.7z"/><path fill="#7e0b23" fill-opacity=".5" d="M94 51.2l9.6-5.3.8 1.4-9.6 5.3z"/><path fill="#d6d7db" fill-opacity=".5" d="M292.9 0l.1 7.8h-6.2l-.1-7.7z"/><path fill="#bdbec1" fill-opacity=".5" d="M102.3 147.1l103.1-3.6v1.6l-103 3.6z"/><path fill="#cfd0d6" fill-opacity=".5" d="M28.1 148l-29.6 1v-1.6l29.6-1z"/><path fill="#6d574c" fill-opacity=".5" d="M71 52.8l9.1-2.4.4 1.5-9 2.4z"/><path fill="#dddee0" fill-opacity=".5" d="M164 20.3h164.1V22h-164z"/><path fill="#699994" fill-opacity=".5" d="M52.6 61.1l16 12.5-1 1.2-16-12.5z"/><path fill="#300600" fill-opacity=".5" d="M60.6 46l-1-1.3L66 40l1 1.2z"/><path fill="#9a999e" fill-opacity=".5" d="M113.3 101l-.4-1.6 28.5-8.1.4 1.5z"/><path fill="#404611" fill-opacity=".5" d="M113.4 1.1l-.6 1.5L107 .4l.5-1.4z"/><path fill="#284041" fill-opacity=".5" d="M105.5 78.3l-25-.4v-1.6l25 .5z"/><path fill="#acafb3" fill-opacity=".5" d="M146.9 20.6l23.1-3.7.3 1.6L147 22z"/><path fill="#6d1621" fill-opacity=".5" d="M82 5L73.8.7l2-4.2L84.1.7z"/><path fill="#bbe1d9" fill-opacity=".5" d="M67.8 74.4l-1.6 4.4-4.4-1.6 1.6-4.4z"/><path fill="#260000" fill-opacity=".5" d="M125.7 53l-4.5-16.6 1.5-.4 4.5 16.6z"/><path fill="#b5d7d1" fill-opacity=".5" d="M40 20.6l17-40.3 1.5.7-17.1 40.2z"/><path fill="#a1ada0" fill-opacity=".5" d="M151 49.9l-1.4 2.8-8.4-4.1 1.4-2.8z"/><path fill="#340000" fill-opacity=".5" d="M64.2 16.3l-.5 1.5-4.5-1.3.5-1.5z"/><path fill="#ab7f84" fill-opacity=".5" d="M56 46l.5-3.1 1.6.2-.6 3.1z"/><path fill="#8db4b8" fill-opacity=".5" d="M39 26.6h1.6v17.1h-1.5z"/><path fill="#100000" fill-opacity=".5" d="M99.1 25.9l2-7.6 4.5 1.1-2 7.6z"/><path fill="#ccd0d3" fill-opacity=".5" d="M172.8 66.2l-3.7 15.2L160 79l3.7-15.2z"/><path fill="#d3d4d7" fill-opacity=".5" d="M93.3 128.6L64 98.2l6.8-6.5 29.3 30.4z"/><path fill="#40472b" fill-opacity=".5" d="M81 44.6l1.6-.1.5 9.4h-1.6z"/><path fill="#e4fdf6" fill-opacity=".5" d="M78.1 82.7l11 .2v1.6l-11-.2z"/><path fill="#cbccd1" fill-opacity=".5" d="M306.4 156.9l-3-7.2 4.3-1.9 3 7.2z"/><path fill="#eef1f5" fill-opacity=".5" d="M248.4 198.4v-45.3h14.1v45.3z"/><path fill="#a9acb1" fill-opacity=".5" d="M144.2 87.5l-9.3 19.8-5.6-2.6 9.2-19.8z"/><path fill="#001101" fill-opacity=".5" d="M104.9-3.2l-3.7 8.6-1.4-.6 3.7-8.6z"/><path fill="#9ea2a7" fill-opacity=".5" d="M170.3 80.7L144 85l-.2-1.6 26.2-4.1z"/><path fill="#b8bab7" fill-opacity=".5" d="M76.8 86.7l4.3-1.8 6.1 14.3-4.3 1.9z"/><path fill="#d3d6da" fill-opacity=".5" d="M18 21.3l-34.4 1.2v-1.6l34.3-1.2z"/><path fill="#c9ced1" fill-opacity=".5" d="M92.8 111l43.7-1.6.4 9.4-43.8 1.5z"/><path fill="#d5d7d7" fill-opacity=".5" d="M317.2 15.6h89v1.6h-89z"/><path fill="#521c2a" fill-opacity=".5" d="M120.8 66.2l-2-6 8.8-3 2 6z"/><path fill="#b8b9bc" fill-opacity=".5" d="M148.8 42.6l4.5-1.2 8.9 33.2-4.5 1.2z"/><path fill="#420c11" fill-opacity=".5" d="M75.6 47.5L73 36.9l6-1.6L81.8 46z"/><path fill="#0e0000" fill-opacity=".5" d="M100.8 12.4V14l-6.3.1v-1.5z"/><path fill="#93a78f" fill-opacity=".5" d="M142.8 53.2l5.1-14.7 1.5.5-5.1 14.7z"/><path fill="#9a6f8c" fill-opacity=".5" d="M83.6 37.6l-3.2-.2.1-1.5h3.1z"/><path fill="#004640" fill-opacity=".5" d="M137.2 33.5l.6-6.2 1.6.1-.7 6.3z"/><path fill="#dee0e3" fill-opacity=".5" d="M185.3 69l-7.4 2.4-11.6-35.7 7.4-2.4z"/><path fill="#500310" fill-opacity=".5" d="M73.2 21.6l-1.5.3-2.7-17 1.5-.2z"/><path fill="#9e4b6c" fill-opacity=".5" d="M83.8-.4l3 .8-.3 1.5-3-.8z"/><path fill="#a68e7e" fill-opacity=".5" d="M85.5 53.6L85 52l3-1 .4 1.5z"/><path fill="#861e30" fill-opacity=".5" d="M50.7 33.1l1-1.1 2.3 2-1 1.2z"/><path fill="#8fa169" fill-opacity=".5" d="M102 27.3l.4 1.5-6 1.7L96 29z"/><path fill="#e8eaec" fill-opacity=".5" d="M244.4 49.8l65.2 6.8-2.4 23.3-65.3-6.8z"/><path fill="#1d4d44" fill-opacity=".5" d="M65.7 65.9L57 62.1l.7-1.4 8.5 3.8z"/><path fill="#571623" fill-opacity=".5" d="M134.3 3.5l.7-1.4 4.2 2.2-.7 1.4z"/><path fill="#b6d9cd" fill-opacity=".5" d="M112.7 81.3l-1-1.3 17.8-12.8.9 1.2z"/><path fill="#9ca09b" fill-opacity=".5" d="M82.2 95.3l1.3-9.3 10.8 1.5-1.3 9.3z"/><path fill="#858478" fill-opacity=".5" d="M143.4 57.3l2.1 10.8-6.1 1.1-2.1-10.7z"/><path fill="#7d5a64" fill-opacity=".5" d="M119.4 29.8l-3.2-.2.4-4.7 3 .2z"/><path fill="#71a99e" fill-opacity=".5" d="M101.5 81.5L78.1 81v-1.5l23.5.4z"/><path fill="#490b08" fill-opacity=".5" d="M82 .4l1.3-1L97.7 20l-1.3 1z"/><path fill="#918f69" fill-opacity=".5" d="M74.4 51.7l-1.8-4.3 1.4-.6 2 4.2z"/><path fill="#a96a59" fill-opacity=".5" d="M57.4 38.5l1.5-.4.9 3-1.6.5z"/><path fill="#e0e2e2" fill-opacity=".5" d="M53 194l63.8-6.7.5 4.7-63.8 6.6z"/><path fill="#190400" fill-opacity=".5" d="M108.2 31.7l5.1 5.9-1.2 1-5.1-5.9z"/><path fill="#d3d5d5" fill-opacity=".5" d="M301.6 143.4v-1.6l45.3.8v1.5z"/><path fill="#c3c6cb" fill-opacity=".5" d="M277.4 188.3l36.8-17.1.6 1.4-36.8 17.2z"/><path fill="#2f303c" fill-opacity=".5" d="M62.4 12.5l-5.6 2.7-2-4.2 5.6-2.8z"/><path fill="#507d3c" fill-opacity=".5" d="M78.9 69.4l7.6-5.4 1.8 2.6-7.6 5.3z"/><path fill="#617a86" fill-opacity=".5" d="M141.6 24l1.2-9.2 1.5.2-1.1 9.3z"/><path fill="#99c7bc" fill-opacity=".5" d="M86.8 83l-.1-1.5L96 81l.1 1.6z"/><path fill="#262601" fill-opacity=".5" d="M54.4 38.8l.6-7.7 4.7.4-.7 7.8z"/><path fill="#e4e6e7" fill-opacity=".5" d="M404.8 86.4l-.2 7.8-48.4-.9.1-7.8z"/><path fill="#461a1d" fill-opacity=".5" d="M48.7 52.3l7.6 1.7-.3 1.5-7.6-1.6z"/><path fill="#7a7e79" fill-opacity=".5" d="M129.2 89.4l-2.4-2 8-9.6 2.4 2z"/><path fill="#5b9350" fill-opacity=".5" d="M66.6 33.8l-3 1-.5-1.4 3-1.1z"/><path fill="#370002" fill-opacity=".5" d="M124.7 7l-6-1.7 2-7.5 6 1.6z"/><path fill="#946c84" fill-opacity=".5" d="M63 13.3l1.3-.9 2.4 4-1.3.8z"/><path fill="#5b2033" fill-opacity=".5" d="M122 33.5l-1.5.2-.4-3.1 1.6-.2z"/><path fill="#4b7471" fill-opacity=".5" d="M45.6 30.9L48 41.5l-4.5 1L41 32z"/><path fill="#eff2f6" fill-opacity=".5" d="M293 128.5l12.2 23.7-65.5 33.3-12-23.6z"/><path fill="#b8ac6e" fill-opacity=".5" d="M106.4 28.9l2.3 2-1 1.2-2.4-2z"/><path fill="#691019" fill-opacity=".5" d="M65.9 60.9l-3-5.5 4-2.2 3 5.4z"/><path fill="#6a081c" fill-opacity=".5" d="M125.5 48.8l-.4-1.5 13.5-3.9.4 1.5z"/><path fill="#eeeff1" fill-opacity=".5" d="M218 158.1v1.6l-71.9 2.5v-1.6z"/><path fill="#693230" fill-opacity=".5" d="M54.8 44.2l1.7 2.6-6.6 4.3-1.7-2.6z"/><path fill="#500515" fill-opacity=".5" d="M90 26.4l-5.1 18-1.5-.4 5.2-18z"/><path fill="#72756d" fill-opacity=".5" d="M110 93.8l-4.5-8.2 11-6 4.5 8.2z"/><path fill="#010" fill-opacity=".5" d="M71.7 38.2l1 1.1-2.2 2.2-1-1.1z"/><path fill="#b4b7bb" fill-opacity=".5" d="M153.4 90.2l.6 1.5-37 16.5-.7-1.4z"/><path fill="#9a9a9d" fill-opacity=".5" d="M148.6 50.7l4.3 18.2-3 .7-4.3-18.2z"/><path fill="#89496a" fill-opacity=".5" d="M72.3 5.4l1.5.2-.7 6.2-1.6-.2z"/><path fill="#3f4725" fill-opacity=".5" d="M46.8 29.4l.2-1.6 4.6.7-.2 1.5z"/><path fill="#6d4244" fill-opacity=".5" d="M93.7 54.6V53l4.8.2-.1 1.6z"/><path fill="#e7e9ea" fill-opacity=".5" d="M201.4 71.5l-8.8-6.5L219 30l8.7 6.6z"/><path fill="#090300" fill-opacity=".5" d="M123 37.5l2.3 12.3-9.2 1.8-2.4-12.3z"/><path fill="#d2d5d7" fill-opacity=".5" d="M298.7 41.6l3.5 8.6-8.7 3.6L290 45z"/><path fill="#525b40" fill-opacity=".5" d="M93 71.8v1.5l-3.1.2-.1-1.5z"/><path fill="#69232d" fill-opacity=".5" d="M69.9 9.1L67.5 15l-1.4-.6 2.3-5.8z"/><path fill="#d6d6db" fill-opacity=".5" d="M25.9 13.3l.5 1.4-13.2 4.8-.5-1.4z"/><path fill-opacity=".5" d="M93.8 30.8l-.7 1.4-4.1-2.1.7-1.4z"/><path fill="#505b30" fill-opacity=".5" d="M70.4 41.6l-1 1.2-13.2-11 1-1.2z"/><path fill="#cadada" fill-opacity=".5" d="M149.8 7.5l.4 4.7-7.8.6-.4-4.6z"/><path fill="#3f181c" fill-opacity=".5" d="M116 72.3l-.8 1.2-14-9.8.8-1.3z"/><path fill="#280000" fill-opacity=".5" d="M125.9 18.1l.5-1.4 11.8 4.2-.6 1.5z"/><path fill="#7f654b" fill-opacity=".5" d="M111.6 1l2.8 3.8-2.5 2L109 3z"/><path fill="#64404b" fill-opacity=".5" d="M75.9 4.6l1.3 7.7-1.5.3-1.4-7.7z"/><path fill="#9d9173" fill-opacity=".5" d="M104.7 17.3l-7.8-.2v-1.5h7.8z"/><path fill="#eaeded" fill-opacity=".5" d="M46.7 57.2l.3 20.3-67.1 1.2-.4-20.3z"/><path fill="#640816" fill-opacity=".5" d="M132.8 34.6l2.9 1.4-1.4 2.8-2.8-1.3z"/><path fill="#ccb0c2" fill-opacity=".5" d="M73.5 7h1.6l-.2 3.2h-1.5z"/><path fill="#577c4b" fill-opacity=".5" d="M101.4 10.4l-5.5-5.6 1.2-1.1 5.4 5.6z"/><path fill="#cecfd0" fill-opacity=".5" d="M179.7 81.3v-1.6H278v1.5z"/><path fill="#80aaa5" fill-opacity=".5" d="M143.1 35.5l-1 1.2-2.4-2 1-1.1z"/><path fill="#183131" fill-opacity=".5" d="M52.4 40.7l-1.2 1-5.1-5.9 1.1-1z"/><path fill="#443c25" fill-opacity=".5" d="M72.6 78.7l-1.4-.8 4.7-8.1 1.3.7z"/><path fill="#6b3040" fill-opacity=".5" d="M44.5 26.2l5-8 1.3.9-5 8z"/><path fill="#4a4028" fill-opacity=".5" d="M61.4 19.6l2.4-4 1.3.7-2.3 4z"/><path fill="#c9c0d6" fill-opacity=".5" d="M80.6 28l1.3 7.7-1.5.3-1.4-7.7z"/><path fill="#1c0600" fill-opacity=".5" d="M82.4 53.4L92.9 38l1.3.9-10.5 15.5z"/><path fill="#c7cbce" fill-opacity=".5" d="M152.7 110.3l-4.5-1.3 6.9-24 4.5 1.3z"/><path fill="#275320" fill-opacity=".5" d="M59.2 32.1l2.4-5.7 5.8 2.4-2.5 5.8z"/><path fill="#1d0405" fill-opacity=".5" d="M75.9 26.6l-1.3-1 7.3-10 1.3.9z"/><path fill="#ceebcd" fill-opacity=".5" d="M47-.3l1.1-1.1 3.3 3.3-1 1z"/><path fill="#dedfe1" fill-opacity=".5" d="M218.8 151l-32.8 1-.1-4.7 32.8-1.1z"/><path fill="#e3e3e9" fill-opacity=".5" d="M102.1 134.4l-1.5 9.3-29.3-4.7 1.5-9.2z"/><path fill="#b75f85" fill-opacity=".5" d="M47.5 24.1l2.9-1.2.6 1.4-3 1.2z"/><path fill="#977d83" fill-opacity=".5" d="M56.3 47.7v-3.2h1.5v3.1z"/><path fill="#67623e" fill-opacity=".5" d="M70 36.5l-6.2 4.8-1-1.2 6.2-4.8z"/><path fill="#e2e4e5" fill-opacity=".5" d="M177.2 134.6l41.5 7.4-.5 3-41.6-7.3z"/><path fill="#8a855f" fill-opacity=".5" d="M77.4 59.9l.8 1.3-4 2.4-.8-1.4z"/><path fill="#cfe5df" fill-opacity=".5" d="M106.9 83.5l-9.3-1.4.2-1.6 9.3 1.5z"/><path fill="#72ab9c" fill-opacity=".5" d="M82 80l-12.5-.6v-1.6l12.6.7z"/><path fill="#151a00" fill-opacity=".5" d="M111 19.3l-10.8 2-.2-1.5 10.7-2z"/><path fill="#562c29" fill-opacity=".5" d="M108 69.5l9.5-10.3 1.1 1-9.5 10.3z"/><path fill="#4a1422" fill-opacity=".5" d="M118.4 26.9l-2.5 10.6-1.5-.3 2.5-10.7z"/><path fill="#d9dde0" fill-opacity=".5" d="M147.5 24.3l10.8-1.6 2 14-10.8 1.5z"/><path fill="#49001d" fill-opacity=".5" d="M55.8 39.3l.8 3-4.6 1.2-.8-3z"/><path fill="#77885d" fill-opacity=".5" d="M128 32.8l.2-4.7h1.6l-.2 4.7z"/><path fill="#e0e1e5" fill-opacity=".5" d="M105 149.1l27.9 3.5-2 15.5-27.8-3.5z"/><path fill="#eff1f1" fill-opacity=".5" d="M258.6 86.6v1.6l-81.3-1.4v-1.6z"/><path fill="#230000" fill-opacity=".5" d="M115.6 66.1l1.7-12.4 3 .5-1.7 12.4z"/><path fill="#795b59" fill-opacity=".5" d="M139 36.7l3 5.5-1.3.8-3-5.5z"/><path fill="#676759" fill-opacity=".5" d="M122 82.1l-1.6-2.7 12.3-6.8 1.6 2.7z"/><path fill="#808c57" fill-opacity=".5" d="M97.7 5l-9 2.4-.5-1.6 9.1-2.2z"/><path fill="#080800" fill-opacity=".5" d="M80.6 56.5l4.2 6.5-1.3.9-4.3-6.6z"/><path fill="#511212" fill-opacity=".5" d="M74.1 61.3l-6.2-.7.2-1.5 6.2.6z"/><path fill="#191308" fill-opacity=".5" d="M66.1 6L65 5l8-9.5 1.2 1z"/><path fill="#e1e3e4" fill-opacity=".5" d="M49 89.5l13.4-3.9 12.1 42-13.5 4z"/><path fill="#eef0f1" fill-opacity=".5" d="M266.3 24.1l84.3-3 .3 9.5-84.3 2.9z"/><path fill="#e2e4e6" fill-opacity=".5" d="M128.2 136l89 1.5v6.2l-89.1-1.5z"/><path fill="#6d6452" fill-opacity=".5" d="M69.4 37.9l-1.1-1.1 4.5-4.4 1 1.1z"/><path fill="#cccfcf" fill-opacity=".5" d="M325.3 173.6l.5 1.5-9 2.9-.4-1.5z"/><path fill="#17180a" fill-opacity=".5" d="M98.4 0l2.9 3.7-1.2 1L97 1z"/><path fill="#eaeced" fill-opacity=".5" d="M289 55l-34.3-2.3 1.6-21.8 34.3 2.4z"/><path fill="#babec1" fill-opacity=".5" d="M58.1 81.2L75 84.5l-.3 1.5-16.9-3.3z"/><path fill="#b0afb6" fill-opacity=".5" d="M82.2 102.1l-.3-4.7 15.6-1 .3 4.6z"/><path fill="#c5929f" fill-opacity=".5" d="M132.9 2.8l1.3 4.5-3 .9-1.3-4.6z"/><path fill="#e7e9ea" fill-opacity=".5" d="M172.7 14.9l87.5 1.5V18l-87.6-1.6z"/><path fill="#4e121c" fill-opacity=".5" d="M124.8 21l1.5.3-2.7 15.4-1.5-.2z"/><path fill="#e4e6e7" fill-opacity=".5" d="M399 126l-100-5.2.5-7.8 99.9 5.2z"/><path fill="#e6e7e8" fill-opacity=".5" d="M45 66.6l-1 4.6-62.5-14.4 1.1-4.6z"/><path fill="#51141b" fill-opacity=".5" d="M97.6 12.7l1.3.9-4.3 6.5-1.3-.9z"/><path fill="#6d9589" fill-opacity=".5" d="M121.3 72.7l-2.9 1.3-.6-1.4 2.8-1.3z"/><path fill="#8c9091" fill-opacity=".5" d="M148.7 63.3l-5.3 19.6-3-.8 5.3-19.7z"/><path fill="#d6d7dc" fill-opacity=".5" d="M102.4 150.3l43.5-3.8.2 1.6-43.6 3.8z"/><path fill="#171a03" fill-opacity=".5" d="M90.3 65.4l-13.8-2.7.3-1.5 13.8 2.7z"/><path fill="#370000" fill-opacity=".5" d="M117 8.3l-5.8-14.5 1.4-.6 5.9 14.5z"/><path fill="#4a0103" fill-opacity=".5" d="M125.2 14.9l-.4-28.2h1.5l.5 28.1z"/><path fill="#c47a9a" fill-opacity=".5" d="M132.6 41l-1.1 1-3.2-3.3 1.1-1.1z"/><path fill="#e8eaeb" fill-opacity=".5" d="M330.8 34.4l-.4-6.2 112.2-7.9.4 6.2z"/><path fill="#491501" fill-opacity=".5" d="M72.4 50.7l-2.9 1.2-2.9-7.3 3-1.2z"/><path fill="#2c0200" fill-opacity=".5" d="M107.8 39h-14v-1.5h14z"/><path fill="#3b5b4d" fill-opacity=".5" d="M50.8 4.6l9.4.2v4.7l-9.5-.2z"/><path fill="#400918" fill-opacity=".5" d="M92.3 55.7l-.3 6.2-7.8-.4.3-6.2z"/><path fill="#030f00" fill-opacity=".5" d="M127.5 58.2l5-3.6 1 1.2-5.1 3.7z"/><path fill="#c9cbcc" fill-opacity=".5" d="M318.7 21.6L270.3 19v-1.5l48.5 2.5z"/><path fill="#7c807b" fill-opacity=".5" d="M119.6 95.8L96.9 85.3l.7-1.4 22.7 10.5z"/><path fill="#bfc1c2" fill-opacity=".5" d="M425 20.8l-.1 1.5-57.7-4 .1-1.6z"/><path fill="#c8cacb" fill-opacity=".5" d="M418.8 146.9v1.5H304.6V147z"/><path fill="#e7e9ea" fill-opacity=".5" d="M309.9 15l.5-29.7 71.9 1.3-.5 29.6z"/><path fill="#2c1309" fill-opacity=".5" d="M128.5 23.5l-1 3-4.4-1.5 1-3z"/><path fill="#54542a" fill-opacity=".5" d="M110.1 15l-4.8 9.8-1.4-.7 4.8-9.8z"/><path fill="#7b6e4c" fill-opacity=".5" d="M74.2 69.2l-1.7 4.4-1.4-.6 1.7-4.4z"/><path fill="#4a081a" fill-opacity=".5" d="M81.2 27.2l-1.5-2.7L92.3 18l1.4 2.8z"/><path fill="#080811" fill-opacity=".5" d="M116.5 70.6l-2.2 2.1-1.1-1 2.2-2.3z"/><path fill="#dadbe1" fill-opacity=".5" d="M314.1 73.4l-1.5.5-6.4-17.6 1.5-.5z"/><path fill="#f0f1f4" fill-opacity=".5" d="M40.5-3.6L39 15.1l-78-6.8 1.6-18.7z"/><path fill="#0a3000" fill-opacity=".5" d="M82.5 7.2l2.8 1.3-.6 1.5-2.9-1.4z"/><path fill="#916161" fill-opacity=".5" d="M73.4 64.9l-1.6-.1.2-3.1h1.5z"/><path fill="#b6dbce" fill-opacity=".5" d="M124.1 70.6l1.1-1.2 2.2 2.2-1 1.1z"/><path fill="#d1d4d7" fill-opacity=".5" d="M178.6 106.7l.2 1.6-43.4 5.3-.2-1.6z"/><path fill="#030000" fill-opacity=".5" d="M94.5 58.6h6.3v3.1h-6.3z"/><path fill="#3d3609" fill-opacity=".5" d="M70.3 50.8l-1-1.3 2.6-1.8 1 1.2z"/><path fill="#e7e9ea" fill-opacity=".5" d="M319.5 74.5l2-15.5 45 5.5-2 15.5z"/><path fill="#380e10" fill-opacity=".5" d="M118.2 16.3l-.7 1.5-15.4-7.6.7-1.4z"/><path fill="#49414d" fill-opacity=".5" d="M66 2l-2.9-1 .6-1.5L66.6.6z"/><path fill="#d2d5d8" fill-opacity=".5" d="M146.7 122.7l-41.6 13.5-3.4-10.4 41.6-13.5z"/><path fill="#e8eaec" fill-opacity=".5" d="M34 94.7l.8 45.3-67.2 1.2-.8-45.3z"/><path fill="#804245" fill-opacity=".5" d="M116 59l-1 2.9-1.4-.5 1-3z"/><path fill="#3d1e26" fill-opacity=".5" d="M130.7 23l1.3-.9 4.5 6.4-1.3 1z"/><path fill="#210e09" fill-opacity=".5" d="M89 53.5l.7-1.4 4.1 2.2-.7 1.4z"/><path fill="#7a0118" fill-opacity=".5" d="M137.7 4.7l1.5.5-3.4 10.4-1.5-.5z"/><path fill="#090d00" fill-opacity=".5" d="M93.7 75.1l-17.1-.3v-1.5l17.2.3z"/><path fill="#7d1a1f" fill-opacity=".5" d="M63.5 19.4l4.6-1.2 1.2 4.6-4.6 1.2z"/><path fill="#898e6b" fill-opacity=".5" d="M101.4 30.6l2.7 1.6-.8 1.3-2.7-1.6z"/><path fill="#2e0c00" fill-opacity=".5" d="M78.7 48.3l-1.4.7-4.4-8.2 1.4-.8z"/><path fill="#596139" fill-opacity=".5" d="M80.4 58.3l-1.1-1.1 4.3-4.5 1.2 1z"/><path fill="#eef0f2" fill-opacity=".5" d="M316-9l.7 4.6-134.2 21.3-.8-4.7z"/><path fill="#152926" fill-opacity=".5" d="M61.5 57l1.3 3-7 3.2-1.4-2.8z"/><path fill="#6b7a46" fill-opacity=".5" d="M68 31.3l-2 2.4-1.2-1 2-2.4z"/><path fill="#0c0000" fill-opacity=".5" d="M124 16.2l.3 1.5-9.2 2-.3-1.4z"/><path fill="#ebeded" fill-opacity=".5" d="M338 85.4l.5 9.4-50 2.6-.4-9.4z"/><path fill="#61663b" fill-opacity=".5" d="M104.2 32.2l-1.8-2.5 1.2-1 1.9 2.6z"/><path fill="#0a0c00" fill-opacity=".5" d="M80.1 50.1l-1.4-.7 2.1-4.2 1.4.7z"/><path fill="#3d0809" fill-opacity=".5" d="M66.4 65.6l.7-1.4 5.6 3-.8 1.4z"/><path fill="#52392b" fill-opacity=".5" d="M122.8 12l1.5-.4 1.3 6.1-1.5.4z"/><path fill="#7c1c29" fill-opacity=".5" d="M105.4 43.2l1.4.7-4.4 8.3-1.4-.8z"/><path fill="#e5e7e7" fill-opacity=".5" d="M168.4 183.5l.7-20.3 48.4 1.7-.7 20.3z"/><path fill="#b09490" fill-opacity=".5" d="M62.7 14.7L60 13.2l.7-1.3 2.8 1.4z"/><path fill="#e2e5e7" fill-opacity=".5" d="M-16.4 82l43.8 1.6-.1 1.5-43.7-1.5z"/><path fill="#5a8e8e" fill-opacity=".5" d="M47.2 40.7l1.4.7-3.7 7-1.3-.8z"/><path fill="#767c5b" fill-opacity=".5" d="M83.7 10.7l-3.1.4-.2-1.5 3-.4z"/><path fill="#170a00" fill-opacity=".5" d="M74.8 64.1l1.6-.1.4 4.7-1.6.1z"/><path fill="#5c141a" fill-opacity=".5" d="M131.6 36.4l-7.4 8-1.2-1 7.5-8z"/><path fill="#590e21" fill-opacity=".5" d="M71.9 11h7.8v4.6h-7.8z"/><path fill="#4e1521" fill-opacity=".5" d="M82.7 45.8l-8.3-4.3.7-1.4 8.3 4.3z"/><path fill="#738c7c" fill-opacity=".5" d="M51.7 5.2l-4.3 2-.6-1.5L51 3.8z"/><path fill="#547f76" fill-opacity=".5" d="M140.7 28.1l-.2 11H139l.2-11z"/><path fill="#c1c3c4" fill-opacity=".5" d="M167.6 74.8l-1.4.7L146.4 33l1.4-.7z"/><path fill="#64854a" fill-opacity=".5" d="M91.3 64l1.3 2.9-4.3 1.9-1.2-2.9z"/><path fill="#edefef" fill-opacity=".5" d="M218.8 80v-4.7l39-.6v4.6z"/><path fill="#b2b3b8" fill-opacity=".5" d="M315.9 70.2l1.5.2-.5 4.7-1.5-.2z"/><path fill="#af899a" fill-opacity=".5" d="M121.1 28.6l-1.7 4.3-1.4-.5 1.6-4.4z"/><path fill="#000804" fill-opacity=".5" d="M119 70.4l-1.3-.8 2.3-4 1.4.7z"/><path fill="#363210" fill-opacity=".5" d="M80 54l6.3-4.5 1 1.2-6.5 4.5z"/><path fill="#e6e9ea" fill-opacity=".5" d="M160.6 9.2L150 15.6l-12-20 10.6-6.5z"/><path fill="#753e4d" fill-opacity=".5" d="M45 30.6l-1.6-.3.7-3 1.5.2z"/><path fill="#4d402d" fill-opacity=".5" d="M107.3 16.2l.8-1.3 8 4.8-.8 1.4z"/><path fill="#550d11" fill-opacity=".5" d="M48.3 47.2l1.2-1 3.8 5-1.3 1z"/><path fill="#666548" fill-opacity=".5" d="M122.3 6.9l2 2.4-1.2 1-2-2.4z"/><path fill="#320a0d" fill-opacity=".5" d="M105.1 50.3l2.4-5.8 1.4.6-2.3 5.7z"/><path fill="#5c867b" fill-opacity=".5" d="M118.6 70.9l4.6-1.1.4 1.5-4.6 1.1z"/><path fill="#c7d6cf" fill-opacity=".5" d="M120.7 71.2l1.3-1 2.6 4-1.3.8z"/><path fill="#e1e3e4" fill-opacity=".5" d="M420.4 34l-13.8 48-28.5-8.2 13.7-48z"/><path fill="#2e5d1e" fill-opacity=".5" d="M67.2 30.4l-3.3 7-1.4-.6 3.3-7z"/><path fill="#7b464d" fill-opacity=".5" d="M79.4 31.2l.6 4.6-1.6.2-.6-4.6z"/><path fill="#3e5f5c" fill-opacity=".5" d="M115.6 72.7l1 1.2-2.6 1.9-.9-1.3z"/><path fill="#345513" fill-opacity=".5" d="M79.5 60.1l.3 6.3h-1.5l-.3-6.2z"/><path fill="#e2e4e4" fill-opacity=".5" d="M272.3 212l-7-17.4 20.2-8.2 7 17.4z"/><path fill="#dd9eb8" fill-opacity=".5" d="M95.4 43l2.4 2-1 1.1-2.4-2z"/><path fill="#1c2203" fill-opacity=".5" d="M121.4 5.1l1.2 1-5 6-1.2-1z"/><path fill="#873141" fill-opacity=".5" d="M94.8 44.4l1.3.8-1.8 2.6L93 47z"/><path fill="#bcd5da" fill-opacity=".5" d="M39.3 35.2l-.5 9.4-1.5-.1.4-9.4z"/><path fill="#784951" fill-opacity=".5" d="M139.7 12.6l-1.3-4.5 1.5-.4 1.3 4.5z"/><path fill="#0f0000" fill-opacity=".5" d="M97.8 76.7L96 72.3l1.4-.5 1.7 4.3z"/><path fill="#dcdedf" fill-opacity=".5" d="M367 106.7l9-12.8 46 32.2-9 12.8z"/><path fill="#100c03" fill-opacity=".5" d="M140.3 14l.6 4.6-1.5.2-.6-4.6z"/><path fill="#775046" fill-opacity=".5" d="M68.5 7.1L67 7l.4-3H69z"/><path fill="#090200" fill-opacity=".5" d="M94.3 65.8l2.4 2-2 2.4-2.4-2z"/><path fill="#bbbdc0" fill-opacity=".5" d="M7.9 19.5l-.1-1.6L28 16.5l.2 1.5z"/><path fill="#bec0c2" fill-opacity=".5" d="M360.9 147.7l-1-1.1 5.8-5.3 1 1.2z"/><path fill="#63081e" fill-opacity=".5" d="M70.6 27.9l8.3 7.1-1 1.2-8.3-7.2z"/><path fill="#bebec3" fill-opacity=".5" d="M94 107.4l32.5 4-.2 1.5-32.5-4z"/><path fill="#7a293e" fill-opacity=".5" d="M126.5 38.4l.2-1.5 7.7 1.2-.2 1.6z"/><path fill="#5a5947" fill-opacity=".5" d="M134.4 51.6V53h-4.7v-1.5z"/><path fill="#998576" fill-opacity=".5" d="M118.7 26.7l-4.7-.3.1-1.5 4.7.2z"/><path fill="#621a28" fill-opacity=".5" d="M126.6 1.3l11 .5-.1 1.6-11-.6z"/><path fill="#41201e" fill-opacity=".5" d="M97.6 72.6l3.9-5 2.4 2-3.8 5z"/><path fill="#2c2509" fill-opacity=".5" d="M67.4 34.8l-.3-1.5 4.6-1L72 34z"/><path fill="#dddfe0" fill-opacity=".5" d="M306.5 156.7l1.3-1 40.4 51.7-1.3 1z"/><path fill="#e1e3e4" fill-opacity=".5" d="M314 142.3l-2.6 1.8-33.2-47.4 2.6-1.7z"/><path fill="#2a0400" fill-opacity=".5" d="M129 51.2l-.6 1.5-5.8-2.4.6-1.4z"/><path fill="#9f929e" fill-opacity=".5" d="M80.2 33.4l1.5.5-1 3-1.4-.5z"/><path fill="#365c3d" fill-opacity=".5" d="M95.3 11.4l7.7-.9.2 1.6-7.8.8z"/><path fill="#570006" fill-opacity=".5" d="M107.4 51.6l-5.6 14.6-1.4-.6L106 51z"/><path fill="#a85268" fill-opacity=".5" d="M67 27l.5-3.1 4.6.7-.5 3z"/><path fill="#b3d6d5" fill-opacity=".5" d="M41.6 55.8l1.2-1 7.8 9.7-1.2 1z"/><path fill="#97172f" fill-opacity=".5" d="M128.7 45l-1.5.4L126 41l1.5-.4z"/><path fill="#f6f6fb" fill-opacity=".5" d="M217.6 169.4l.8-46.9 15.6.3-.8 46.9z"/><path fill="#a6a9aa" fill-opacity=".5" d="M155 74.7l-6.8-22.4 1.5-.5 6.8 22.5z"/><path fill="#acacb1" fill-opacity=".5" d="M106.2 146.2l-4.7-.2.1-3.2 4.7.3z"/><path fill="#d0d2d5" fill-opacity=".5" d="M166.6 65.3l-8.2-28.6 1.5-.4 8.2 28.5z"/><path fill="#eaebec" fill-opacity=".5" d="M183.8 129.1l2.2-9 35 8.6-2.4 9.1z"/><path fill="#952f4d" fill-opacity=".5" d="M129.4-.3l4.6-.9.6 3-4.6 1z"/><path fill="#200003" fill-opacity=".5" d="M123.9 44l-1 1.1-14-12.5 1-1.2z"/><path fill="#242c0a" fill-opacity=".5" d="M130.5 29.6L132 34l-1.5.5L129 30z"/><path fill="#a8bf8c" fill-opacity=".5" d="M108.6 6.7l-4.3-4.5 1.1-1 4.4 4.4z"/><path fill="#591c2d" fill-opacity=".5" d="M124.8 32l.3 1.5-7.7 1.7-.3-1.6z"/><path fill="#865560" fill-opacity=".5" d="M57.4 16.7l1.5-.4.9 3-1.6.4z"/><path fill="#2a0006" fill-opacity=".5" d="M95.4 19.8l.8-1.3 6.8 3.9-.8 1.3z"/><path fill="#cdcdd1" fill-opacity=".5" d="M169.7 24l-8.7-3 2.2-6 8.8 3.3z"/><path fill="#f0f1f5" fill-opacity=".5" d="M86.7 158.6V157l43.8 1.6v1.5z"/><path fill="#67000d" fill-opacity=".5" d="M129.2 50.7l-6.1-7.1 2.3-2 6.2 7z"/><path fill="#293821" fill-opacity=".5" d="M87.6 35.1l2.4 2-1 1.2-2.4-2z"/><path fill="#e0e2e3" fill-opacity=".5" d="M297.5 141.5l.4-12.5 84.3 3-.4 12.4z"/><path fill="#92b8be" fill-opacity=".5" d="M42.9 21.3l-1.4 6.1-1.6-.3 1.4-6.1z"/><path fill="#dddde2" fill-opacity=".5" d="M266.4 116l-4.9 8-1.3-.9 4.8-8z"/><path fill="#c4d3c2" fill-opacity=".5" d="M141.9 50.7l.5 3-1.5.3-.5-3z"/><path fill="#402519" fill-opacity=".5" d="M61.7 18.7l-1.2 1-2-2.5 1.3-1z"/><path fill="#a0a3a6" fill-opacity=".5" d="M138 95.5l-17.8 5.8-.5-1.5 17.9-5.8z"/><path fill="#70695e" fill-opacity=".5" d="M128.6 52.7l.5 1.5-3 1-.5-1.6z"/><path fill="#8c8a7f" fill-opacity=".5" d="M141.2 66.3l-7.1-3.2 1.2-2.8 7.2 3.1z"/><path fill="#9bccc8" fill-opacity=".5" d="M42.7 46.5l-1.2 2.9-1.4-.6 1.2-2.9z"/><path fill="#70544b" fill-opacity=".5" d="M52.3 45.3l-1.8 2.5-1.3-.9 1.9-2.5z"/><path fill="#22050a" fill-opacity=".5" d="M125.4 50.4l3 1.1-2.2 5.9-3-1z"/><path fill="#e6e8e9" fill-opacity=".5" d="M285.8 62.7L227.3 73l-2.2-12.3 58.5-10.3z"/><path fill="#e6e9e9" fill-opacity=".5" d="M-1.7 165.8l114-2 .4 18.8-114 2z"/><path fill="#51551b" fill-opacity=".5" d="M108.2 25.6l-1.5.3-.9-6.2 1.6-.2z"/><path fill="#cfd2d5" fill-opacity=".5" d="M157.4 84.8l6.2-.7 2.5 23.3-6.3.7z"/><path fill="#a63a50" fill-opacity=".5" d="M101.3 46l-8-4.7.7-1.4 8.1 4.7z"/><path fill="#42263b" fill-opacity=".5" d="M96 .1l3.1-.2.2 1.5-3.1.3z"/><path fill="#623c3d" fill-opacity=".5" d="M77.4 26.1l1.1 1.1-4.3 4.5-1.2-1z"/><path fill="#750010" fill-opacity=".5" d="M101 39.2l4 6.7-1.2.8-4.2-6.6z"/><path fill="#622b2c" fill-opacity=".5" d="M139.9 13l-1.7 4.3-1.5-.5 1.7-4.4z"/><path fill="#603132" fill-opacity=".5" d="M109.5 66.1l-4.3 2-.6-1.4 4.2-2z"/><path fill="#4b5123" fill-opacity=".5" d="M106.5 2.1l3-3.6 1.2 1-3 3.6z"/><path fill="#727973" fill-opacity=".5" d="M108.6 78.1h-3.1v-1.5h3z"/><path fill="#7d8149" fill-opacity=".5" d="M103.9 31.3l1.2-1 2 2.5-1.3 1z"/><path fill="#c1c0c6" fill-opacity=".5" d="M102 135l1.5.3-.8 6.2-1.5-.2z"/><path fill="#cccbc6" fill-opacity=".5" d="M83.7 89.4L74 97.1l-3-3.7 10-7.7z"/><path fill="#dddee4" fill-opacity=".5" d="M-36 153.1H72v1.6H-36z"/><path fill="#9bcec9" fill-opacity=".5" d="M145.2 18.7l.2 14.1H144l-.3-14z"/><path fill="#340000" fill-opacity=".5" d="M74.5 26.1l-3.2-5.3 2.6-1.6 3.3 5.3z"/><path fill="#354310" fill-opacity=".5" d="M55.7 31.8l1.1-1 7.8 7.7-1.1 1z"/><path fill="#dfe2e2" fill-opacity=".5" d="M-11.7 79v-1.5l75 1.3v1.5z"/><path fill="#c0c2c3" fill-opacity=".5" d="M50.8 146.8v1.5l-84.4-2.9v-1.6z"/><path fill="#9fa067" fill-opacity=".5" d="M107.2 14.9l-.7 1.3-2.8-1.4.7-1.4z"/><path fill="#c27b8a" fill-opacity=".5" d="M69.5 51.5l-1.8 2.6-1.3-1 1.9-2.5z"/><path fill="#e1e2e7" fill-opacity=".5" d="M99.3 149.6l68.8 2.4-.3 6.2-68.7-2.4z"/><path fill="#000900" fill-opacity=".5" d="M94.6 31.2l-1.2 1-2-2.4 1.2-1z"/><path fill="#dde3e5" fill-opacity=".5" d="M39.8 15.6v1.6h-53v-1.6z"/><path fill="#271c1b" fill-opacity=".5" d="M101.6 74.7l7.8.6v1.5l-7.9-.5z"/><path fill="#ecedf1" fill-opacity=".5" d="M191.2 36.1l-3 5.5-24.7-13.7 3-5.4z"/><path fill="#88111a" fill-opacity=".5" d="M100 39.3v1.5l-4.7-.4V39z"/><path fill="#170000" fill-opacity=".5" d="M50.1 35.5l7.8 1-.2 1.5-7.8-1z"/><path fill="#92a299" fill-opacity=".5" d="M94.3 10.2l.7-1.4 2.8 1.3-.6 1.4z"/><path fill="#dfe1e2" fill-opacity=".5" d="M98.4 196l-132.8-4.6V190l132.8 4.6z"/><path fill="#600513" fill-opacity=".5" d="M50.8 25.2v-1.6l9.3-.3v1.5z"/><path fill="#4a595c" fill-opacity=".5" d="M54.2 10.3l1.6 2.7-5.3 3.3-1.6-2.7z"/><path fill="#e0e2e2" fill-opacity=".5" d="M258.5 111.3l-52.8 5.5-.2-1.5 52.9-5.6z"/><path fill="#331112" fill-opacity=".5" d="M114 8.2l-1.2 1-3.3-3.3 1.2-1.1z"/><path fill="#56423c" fill-opacity=".5" d="M69.7 67.6l-.4 1.6-3-1 .4-1.4z"/><path fill="#640b1a" fill-opacity=".5" d="M112.7 49.7l5.5 7.5-1.2 1-5.5-7.6z"/><path fill="#481a1b" fill-opacity=".5" d="M58 51l1 4.6-6.2 1.2-.8-4.6z"/><path fill="#691722" fill-opacity=".5" d="M47.3 24.5l-1 3L45 27l.9-3z"/><path fill="#d5d7d9" fill-opacity=".5" d="M377 210.8l-14-1.4 2.2-21.8 14 1.5z"/><path fill="#2e040c" fill-opacity=".5" d="M126 34.7l-.4 4.6-6.3-.5.4-4.7z"/><path fill="#c8e6e1" fill-opacity=".5" d="M57.8 72l5.5 3-.8 1.4-5.5-3z"/><path fill="#dfe1e2" fill-opacity=".5" d="M322.9 184.1l-2.2-7.5L472.4 133l2.2 7.5z"/><path fill="#4d0517" fill-opacity=".5" d="M124.5 29l-4.3-2 .7-1.4 4.2 2z"/><path fill="#0d1804" fill-opacity=".5" d="M60.2 58.7l-1.6-6 1.5-.5 1.6 6z"/><path fill="#4b000a" fill-opacity=".5" d="M70.4 50.2l-1 1.2-7-6.3 1-1.2z"/><path fill="#d5d5dc" fill-opacity=".5" d="M51.3 109l-.6-1.5 5.8-2.4.6 1.4z"/><path fill="#e7e9ea" fill-opacity=".5" d="M288.2 32.4v1.5l-115.5 4v-1.5z"/><path fill="#eeeef2" fill-opacity=".5" d="M30.6 31.1l1.3 25-36 1.9-1.2-25z"/><path fill="#dadde0" fill-opacity=".5" d="M142.5 127l-.7 14-14-.8.7-14z"/><path fill="#6e623c" fill-opacity=".5" d="M91.5 3.3l-.2-1.5 3.1-.4.2 1.5z"/><path fill="#4b6e68" fill-opacity=".5" d="M69.6 74L52.8 60l1-1.2 16.8 14z"/><path fill="#11080c" fill-opacity=".5" d="M137.5 18l1.5.5-3 8.8-1.5-.5z"/><path fill="#bd697e" fill-opacity=".5" d="M69.8 24l1 3-1.6.5-.9-3z"/><path fill="#6e9d99" fill-opacity=".5" d="M50.4 60l1.1-1 9 10.7-1.1 1z"/><path fill="#65000b" fill-opacity=".5" d="M90-.1l3 .2-.1 1.6-3.1-.3z"/><path fill="#c8cdd0" fill-opacity=".5" d="M165.7 90.6l-41.5 28-.8-1.4 41.4-28z"/><path fill="#9b5366" fill-opacity=".5" d="M121 20.2l1.5.4-1.3 4.5-1.5-.4z"/><path fill="#b8baba" fill-opacity=".5" d="M218.8 144.7L186 146v-1.6l32.7-1.1z"/><path fill="#61343f" fill-opacity=".5" d="M119.5 58.3l-1.1-1.1 4.3-4.5 1.1 1z"/><path fill="#001200" fill-opacity=".5" d="M92 33.6h-1.5l.2-6.3h1.6z"/><path fill="#f5f6fa" fill-opacity=".5" d="M242.7 127.8l13.8-14.8 14.9 13.8-13.9 14.9z"/><path fill="#4e040c" fill-opacity=".5" d="M79.1 2.3l1.5.3-1.9 9.2-1.5-.3z"/><path fill="#56161e" fill-opacity=".5" d="M96.5 51.9l-1.3.8-5.8-9.3 1.3-.8z"/><path fill="#1b1804" fill-opacity=".5" d="M93.7 65.6l1.3.9-2.7 3.8-1.3-.9z"/><path fill="#1c0e05" fill-opacity=".5" d="M122.6 22.6l-4.5-18.2 1.5-.4 4.5 18.2z"/><path fill="#c8d1cf" fill-opacity=".5" d="M158 36.3l-2 2.5-6.2-4.7 2-2.5z"/><path fill="#313f13" fill-opacity=".5" d="M79.3 72.4l-.6-1.5 3-1.1.5 1.5z"/><path fill="#d9dadf" fill-opacity=".5" d="M162.2 36.3l4.3-1.8L176.9 59l-4.3 1.8z"/><path fill="#748c87" fill-opacity=".5" d="M106.4 79l-.6 1.4-4.4-1.6.6-1.4z"/><path fill="#999c9f" fill-opacity=".5" d="M152 81.6l.4 1.6-12.3 2.4-.3-1.6z"/><path fill="#472613" fill-opacity=".5" d="M101 34l6.7 4-.8 1.3-6.8-3.9z"/><path fill="#400809" fill-opacity=".5" d="M73.3 32.8l-1.3.8-3.1-5.4 1.3-.8z"/><path fill="#2f3c00" fill-opacity=".5" d="M58.8 32l-1.6-4.5 4.4-1.6 1.6 4.4z"/><path fill="#898d7f" fill-opacity=".5" d="M146 54.4l-1.5 9.2-4.7-.8 1.7-9.2z"/><path fill="#bfd6d7" fill-opacity=".5" d="M41 52l4.5.8-.5 3-4.6-.8z"/><path fill="#e1efef" fill-opacity=".5" d="M43.2 66.7l-1.5.4-5.3-22.9L38 44z"/><path fill="#685231" fill-opacity=".5" d="M58 39.2l-.9-1.3 5.2-3.6.9 1.3z"/><path fill="#373a28" fill-opacity=".5" d="M71 72.2l-1.3 1-4.7-6.3 1.2-1z"/><path fill="#82913f" fill-opacity=".5" d="M51.3 30l.6-3 4.6.8-.6 3z"/><path fill="#6f2536" fill-opacity=".5" d="M56.6 40.1l.6 1.4-2.9 1.2-.6-1.4z"/><path fill="#dcdedf" fill-opacity=".5" d="M324.2 141.4v-6.2h34.4v6.2z"/><path fill="#8fa49d" fill-opacity=".5" d="M105.7 83.6l-.8 1.4-2.7-1.4.7-1.4z"/><path fill="#221900" fill-opacity=".5" d="M102.3 63l.9 1.2-4 2.6-.8-1.3z"/><path fill="#2b0001" fill-opacity=".5" d="M114.3 51.8l-9.4-10.4 1.1-1 9.4 10.4z"/><path fill="#e4e5e8" fill-opacity=".5" d="M28.2 110.5l-.1 6.3-42.2-.8.1-6.2z"/><path fill="#2a221f" fill-opacity=".5" d="M67.3 11.8l-.4 1.5-7.6-1.6.3-1.6z"/><path fill="#3a0001" fill-opacity=".5" d="M55.6 50.4l-.2-1.6 6.2-.7.2 1.5z"/><path fill="#8d2637" fill-opacity=".5" d="M64 21.9l.8 1.3-5.3 3.3-.8-1.3z"/><path fill="#3c411c" fill-opacity=".5" d="M90.7 9.6l-.1 1.6-7.8-.5V9z"/><path fill="#4a5261" fill-opacity=".5" d="M56.9 10.4l2.6-1.8.8 1.3-2.6 1.8z"/><path fill="#090603" fill-opacity=".5" d="M98.5 76.2l-11 .7v-1.5l10.9-.8z"/><path fill="#2b0000" fill-opacity=".5" d="M90.6 30l-5.9-7.4 1.2-1 6 7.3z"/><path fill="#dddfdf" fill-opacity=".5" d="M63.6 86.6l16.2 42.3-4.3 1.7-16.3-42.3z"/><path fill="#531a27" fill-opacity=".5" d="M86.6 27.5l-1.3 12.4-1.6-.2L85 27.3z"/><path fill="#5b8e86" fill-opacity=".5" d="M94.5 81.5l-6.3-.5.1-1.5 6.3.4z"/><path fill="#dee0e3" fill-opacity=".5" d="M261.8 177.8l4.5-1.1 11 44-4.6 1z"/><path fill="#810122" fill-opacity=".5" d="M126.7 6.2l2.6 3.9-1.3.9-2.6-4z"/><path fill="#554a26" fill-opacity=".5" d="M86.8 51.8l-.1-1.5 6.2-.6.1 1.6z"/><path fill="#cdcdd1" fill-opacity=".5" d="M306.6 157.2l-1.2-1 2-2.4 1.2 1z"/><path fill="#345325" fill-opacity=".5" d="M53.3 29.2l7.7 1-.2 1.6-7.7-1.1z"/><path fill="#2f4e48" fill-opacity=".5" d="M71 77.2L89.9 76v1.6l-18.6 1.3z"/><path fill="#a1c5bf" fill-opacity=".5" d="M75.7 81l.1-1.5 6.3.4-.1 1.6z"/><path fill="#090300" fill-opacity=".5" d="M91 68.1l4.4 1.3L95 71l-4.5-1.3z"/><path fill="#6a0b1d" fill-opacity=".5" d="M137.8 48.3l-4.7.3-.6-11 4.7-.2z"/><path fill="#ac7495" fill-opacity=".5" d="M97.5 42.8l1.6 2.6-1.3.9-1.6-2.7z"/><path fill="#7d394b" fill-opacity=".5" d="M75.5-1.7l.5 4.6-3 .4-.6-4.7z"/><path fill="#3b0b18" fill-opacity=".5" d="M67.7 19.6l-.6-1.4 4.3-1.9.6 1.5z"/><path fill="#eef1f5" fill-opacity=".5" d="M272.1 189l-8-18.7 40.3-17.1 8 18.7z"/><path fill="#e3e5e6" fill-opacity=".5" d="M145 10.8l14-1.2.6 6.2-14 1.2z"/><path fill="#e9eaee" fill-opacity=".5" d="M16.2 16.7l-2-5.9 11.8-4 2 5.8z"/><path fill="#614c34" fill-opacity=".5" d="M113.8 19.5l-8-4.8.7-1.4 8 4.9z"/><path fill="#e1e1e7" fill-opacity=".5" d="M177.9 116.6l-1.1-31.2 12.5-.5 1 31.3z"/><path fill="#dfe1e2" fill-opacity=".5" d="M203 54l3 7.3-4.3 1.8-3-7.2z"/><path fill="#954b59" fill-opacity=".5" d="M67.5 21.8l1.6.2-.7 4.6-1.5-.2z"/><path fill="#91a399" fill-opacity=".5" d="M142.1 40.7l-1.6-.1.2-4.7h1.6z"/><path fill="#275000" fill-opacity=".5" d="M60.5 29l-2-2.4 1.3-1 2 2.5z"/><path fill="#d3d6d9" fill-opacity=".5" d="M162 118.1l1.4 4.5-23.8 7.7-1.4-4.4z"/><path fill="#ac8086" fill-opacity=".5" d="M120.5 24.1l-2.7-1.5.8-1.4 2.7 1.6z"/><path fill="#c09cab" fill-opacity=".5" d="M74.4 8l-1.5-.5L74 3l1.5.4z"/><path fill="#abadaf" fill-opacity=".5" d="M165.5 16.4l.2 1.6-17.2 1.5-.1-1.6z"/><path fill="#82867a" fill-opacity=".5" d="M143 74.3l-1.6-12.4 1.6-.2 1.5 12.4z"/><path fill="#b9bcc0" fill-opacity=".5" d="M110.4 111.1l-.2-1.5 24.7-3.5.2 1.5z"/><path fill="#d1ebe2" fill-opacity=".5" d="M105.5 81.2v-1.5h3.1v1.6z"/><path fill="#a0b39c" fill-opacity=".5" d="M48 2.4l-1.4.8-2.4-4 1.4-.8z"/><path fill="#b9c0c4" fill-opacity=".5" d="M143.3 95.4l2 2.4-5.8 5.2-2-2.3z"/><path fill="#607575" fill-opacity=".5" d="M123 69.7l4.4-4.5 1.1 1-4.3 4.6z"/><path fill="#3c4942" fill-opacity=".5" d="M63.1 27l3-.8.5 1.5-3 .8z"/><path fill="#3c702c" fill-opacity=".5" d="M96 66l-6.2-.8.2-1.5 6.2.7z"/><path fill="#000501" fill-opacity=".5" d="M114 41.4h7.9v6.3H114z"/><path fill="#e9f4f2" fill-opacity=".5" d="M73.2 81.8l-4.6-1.1.4-1.6 4.6 1.2z"/><path fill="#ebedee" fill-opacity=".5" d="M276.6 22.7l-79.7 1.4v-1.5l79.6-1.4z"/><path fill="#82213f" fill-opacity=".5" d="M116.4 1.6V0h3.1v1.5z"/><path fill="#523d1e" fill-opacity=".5" d="M97.5 17.8l.8-1.3 2.7 1.7-.9 1.3z"/><path fill="#d5d6d9" fill-opacity=".5" d="M218.8 148.4h-82.9V147h82.8z"/><path fill="#330502" fill-opacity=".5" d="M100 55.8l13-11.2 1 1.1L101 57z"/><path fill="#6a3435" fill-opacity=".5" d="M127.2 31.5l-1.4.7-1.4-2.7 1.3-.8z"/><path fill="#a97d84" fill-opacity=".5" d="M138-1.8l.6 4.7-3.1.4-.7-4.6z"/><path fill="#8b8c67" fill-opacity=".5" d="M100.7 31.3l3.2-.1v1.5l-3 .2z"/><path fill="#380f1c" fill-opacity=".5" d="M114.1 69.1l-7.5 2.3-.4-1.5 7.5-2.3z"/><path fill="#e8e8ee" fill-opacity=".5" d="M-22.6 148.4l.1-1.5 71.7 6.2-.2 1.6z"/><path fill="#a8cac3" fill-opacity=".5" d="M98.4 82.8h-14v-1.5h14z"/><path fill="#533035" fill-opacity=".5" d="M83.5 24.9l.1 1.6-3 .2-.2-1.6z"/><path fill="#39441d" fill-opacity=".5" d="M95.4 24.8l4.7.4-.2 1.6-4.6-.4z"/><path fill="#79a29d" fill-opacity=".5" d="M142.3 23.4h1.6l-.3 14.1h-1.5z"/><path fill="#1a2e0b" fill-opacity=".5" d="M82.1 64.2L80 66.5l-1.2-1 2.2-2.3z"/><path fill="#e8eaea" fill-opacity=".5" d="M271 99.1l-78-1.3V93l78.1 1.3z"/><path fill="#5e091f" fill-opacity=".5" d="M136.5 1.4l1.9 4.3-1.4.7-2-4.3z"/><path fill="#0b0b00" fill-opacity=".5" d="M71.7 40l-2.3-2.2 1-1.1 2.4 2z"/><path fill="#dcdfde" fill-opacity=".5" d="M177.7 79.2l-4-2.4 6.4-10.7 4 2.4z"/><path fill="#cecfd2" fill-opacity=".5" d="M148.8 197.3l-4.6.7-.9-6.2 4.7-.7z"/><path fill="#b3b4b5" fill-opacity=".5" d="M-2.4 81.7l9.3-1 .2 1.6-9.3 1z"/><path fill="#d1d1d8" fill-opacity=".5" d="M289 5.7l4.3-1.9.6 1.5-4.3 1.8z"/><path fill="#14342d" fill-opacity=".5" d="M75.9 74.4l12.4 1.3-.1 1.5L75.7 76z"/><path fill="#726f60" fill-opacity=".5" d="M87.4 35l7.7-1.3.3 1.5-7.7 1.4z"/><path fill="#603c39" fill-opacity=".5" d="M135 36.8l.6-1.4 2.9 1.2-.6 1.4z"/><path fill="#d1d2d8" fill-opacity=".5" d="M367 156.4l-1.2.9-6.3-9 1.3-.9z"/><path fill="#54324a" fill-opacity=".5" d="M110 6.8l1.6 2.8-1.4.7-1.5-2.7z"/><path fill="#dff4e9" fill-opacity=".5" d="M139.8 3.6l1.7-6 1.5.4-1.6 6z"/><path fill="#bebfc3" fill-opacity=".5" d="M263.3 199.9l-3 .2-.2-1.6 3.1-.2z"/><path fill="#825157" fill-opacity=".5" d="M87.2 14.7l-.7-1.4 2.8-1.4.7 1.4z"/><path fill="#a03f54" fill-opacity=".5" d="M128.6 8l-1-4.7 1.6-.3 1 4.6z"/><path fill="#30151c" fill-opacity=".5" d="M121.3 60.5l1.3-.9 4.5 6.4-1.3 1z"/><path fill="#afb1b5" fill-opacity=".5" d="M137.6 102.5l-35.2 7.4-1-4.6 35.2-7.4z"/><path fill="#4e6f5a" fill-opacity=".5" d="M67 75.7l.4-3.1 1.6.2-.5 3z"/><path fill="#dcdede" fill-opacity=".5" d="M287.6 110.5l51.2-5.4.2 1.6-51.3 5.4z"/><path fill="#b7d7d7" fill-opacity=".5" d="M149.2 22l-1.2 1-5-6 1.2-1z"/><path fill="#dff4ef" fill-opacity=".5" d="M80.3 80.8l.2 1.6-6.1.8-.3-1.5z"/><path fill="#eef0f1" fill-opacity=".5" d="M187 161.3l-.3-1.6 31-3.8.2 1.6zM30.7 67.2l-.5 12.5-46.8-1.6.4-12.5z"/><path fill="#727873" fill-opacity=".5" d="M100.8 92.8l21.8-1.2v1.6l-21.8 1.1z"/><path fill="#e2e4e4" fill-opacity=".5" d="M405.4 35.8L324.2 33v-1.6l81.3 2.8z"/><path fill="#e9eaf0" fill-opacity=".5" d="M49.8 144.4l-1-9.3 28-3 1 9.4z"/><path fill="#330c15" fill-opacity=".5" d="M96.8 71l17.2-1.4.1 1.5L97 72.6z"/><path fill="#f2f6f8" fill-opacity=".5" d="M255.1 148l-8.7-12.9 37.5-25.3 8.8 13z"/><path fill="#e3e4e9" fill-opacity=".5" d="M-15.9 207.7L-12 172l29.5 3-3.7 35.8z"/><path fill="#c0c0c6" fill-opacity=".5" d="M217 198.8l4.7-.7.3 1.5-4.7.8z"/><path fill="#75a2ad" fill-opacity=".5" d="M143.3 13.4l-1.5-.4.8-3 1.5.4z"/><path fill="#dcdede" fill-opacity=".5" d="M465.6 86H320.3v-1.6h145.3z"/><path fill="#7a081d" fill-opacity=".5" d="M114.9 53.3l1.4.7-4.6 9.9-1.4-.7z"/><path fill="#5c3336" fill-opacity=".5" d="M140.2 42.6l1.2 1-5 6-1.2-1z"/><path fill="#06180c" fill-opacity=".5" d="M133.8 54.8l-.4 4.7-3-.2.2-4.7z"/><path fill="#c7c8cc" fill-opacity=".5" d="M64.2 148.1l-.1-1.5 35.8-2.5.1 1.5z"/><path fill="#905d6a" fill-opacity=".5" d="M50.4 29.1l.6 1.5-3 1.2-.5-1.4z"/><path fill="#e0e2e5" fill-opacity=".5" d="M152.7 128.9l6.2-4.8 8.7 11-6.2 4.9z"/><path fill="#4c0f16" fill-opacity=".5" d="M48.2 34.4l-2.4-4 1.3-.8 2.4 4z"/><path fill="#e3e5e9" fill-opacity=".5" d="M172.3 28.2l-23 4.4-1.2-6 23-4.6z"/><path fill="#797871" fill-opacity=".5" d="M122.1 90.8l-4.8-4 5.9-7.3 4.8 4z"/><path fill="#628d8d" fill-opacity=".5" d="M42.3 27.4l-.2 12.5h-1.6l.2-12.6z"/><path fill="#ebedf2" fill-opacity=".5" d="M288.7 176.7l21.9-12.2 2.3 4.1-22 12.2z"/><path fill="#35554f" fill-opacity=".5" d="M133.2 58.7l-.7-3 1.5-.4.7 3z"/><path fill="#d5d6d5" fill-opacity=".5" d="M75.3 86.9l-.6 15.6-7.8-.3.6-15.6z"/><path fill="#8ab0aa" fill-opacity=".5" d="M45.4 13.3l-.2 3.2-1.6-.2.3-3z"/><path fill="#d4d7d8" fill-opacity=".5" d="M346.9 143.2v-1.5l57.8 1v1.6z"/><path fill="#c9c9ce" fill-opacity=".5" d="M75.6 97.1l1-1.2 18.2 14.8-1 1.2z"/><path fill="#1c2000" fill-opacity=".5" d="M84.3 9.1l.2-1.5L89 8v1.6z"/><path fill="#9a9d79" fill-opacity=".5" d="M93.8 4.7H89V3h4.7z"/><path fill="#750000" fill-opacity=".5" d="M110.8 64.3l-4.6-.5.2-1.6 4.6.6z"/><path fill="#d3dadb" fill-opacity=".5" d="M39.8 20.5l-.4 1.5-12-3.4.4-1.5z"/><path fill="#f5f7f8" fill-opacity=".5" d="M178 30.1l.2-6.2 39 .7v6.2z"/><path fill="#a0b080" fill-opacity=".5" d="M100.7 29.9l-.8 1.3-5.3-3.3.8-1.3z"/><path fill="#7b1d30" fill-opacity=".5" d="M64.7 49l.9-1.3 2.5 1.8-.9 1.3z"/><path fill="#676a45" fill-opacity=".5" d="M66.3 37.1l4.5 4.4-1.1 1-4.5-4.3z"/><path fill="#230000" fill-opacity=".5" d="M119.5 45.2l8.1-11.6 1.3 1-8 11.5z"/><path fill="#888987" fill-opacity=".5" d="M141.4 80.4l.8 1.3-13.3 8.3-.8-1.4z"/><path fill="#dae6ec" fill-opacity=".5" d="M135.5 59.8l1-3 1.5.6-1 3z"/><path fill="#dee0e1" fill-opacity=".5" d="M177.3 153.1v-1.5H218v1.5z"/><path fill="#6c666d" fill-opacity=".5" d="M47.6 20.3l-4.7 11.6-1.4-.6L46 19.7z"/><path fill="#977b7a" fill-opacity=".5" d="M105.4 67l-1.7 2.7-1.3-.8 1.7-2.7z"/><path fill="#76967e" fill-opacity=".5" d="M95.4 9l7.8.8-.2 1.5-7.7-.8z"/><path fill="#7e021b" fill-opacity=".5" d="M103.1 60.2l7.8-.1v3.1l-7.7.1z"/><path fill="#4f1c28" fill-opacity=".5" d="M122.5 49l1.4.6-1 3-1.5-.6z"/><path fill="#d6d7d8" fill-opacity=".5" d="M216.4 36l-1.5-.4 1.5-4.5 1.5.5z"/><path fill="#070910" fill-opacity=".5" d="M136 34.4l-1.5-.6 3-7.2 1.5.6z"/><path fill="#74584f" fill-opacity=".5" d="M86.4 55.1l-3-1 .5-1.4 3 1z"/><path fill="#a6a9ad" fill-opacity=".5" d="M303 148.3l-.7-1.4 5.6-3 .7 1.4z"/><path fill="#d8dbde" fill-opacity=".5" d="M174 84.3l5.9 2.3-11.8 30.6-5.8-2.2z"/><path fill="#c6f0e9" fill-opacity=".5" d="M109.3 78.6l4.6-1 .3 1.6-4.6 1z"/><path fill="#bcbec1" fill-opacity=".5" d="M165 83.8l-.2-1.6 28-2 .2 1.6z"/><path fill="#48403b" fill-opacity=".5" d="M92.2 71.8v-1.6l4.7.2V72z"/><path fill="#a74b6b" fill-opacity=".5" d="M111 58.7l-4.5 1.3-.4-1.6 4.6-1.2z"/><path fill="#ab9da6" fill-opacity=".5" d="M92 17.5l-4.6-.7.3-1.5 4.6.7z"/><path fill="#919592" fill-opacity=".5" d="M91 98.1l-1.4-.8 5.4-9.5 1.4.8z"/><path fill="#47111d" fill-opacity=".5" d="M98.3 13.9l-3.3 7-4.2-2 3.3-7z"/><path fill="#201b00" fill-opacity=".5" d="M88.3 12.4l-6.2.2V11l6.2-.2z"/><path fill="#cfd2d5" fill-opacity=".5" d="M177.1 74.4l-11.4 5L162 71l11.4-5z"/><path fill="#e3e5e5" fill-opacity=".5" d="M67.5 210.5l81.2-32.7 4 10.1-81 32.8z"/><path fill="#f3f7fa" fill-opacity=".5" d="M1 28l37.3 3.3L38 33 .8 29.6z"/><path fill="#e3e5e6" fill-opacity=".5" d="M347.6 22.3l50-.9V23l-50 .9z"/><path fill="#4a3329" fill-opacity=".5" d="M97.8 32.6l1.3-.8 1.6 2.8-1.4.7z"/><path fill="#d1d3d7" fill-opacity=".5" d="M104.9 121.5l-14 .7-.5-7.8 14-.7z"/><path fill="#0b1e00" fill-opacity=".5" d="M85.1 71.8v-1.5h3.2V72z"/><path fill="#241000" fill-opacity=".5" d="M130.6 18l1.3 12.4-1.6.1-1.3-12.4z"/><path fill="#38131f" fill-opacity=".5" d="M51.8 43.8l-1.3-.8 2.4-4 1.3.8z"/><path fill="#642425" fill-opacity=".5" d="M125.7 15.4l-1.5.3-1.5-7.7 1.5-.3z"/><path fill="#704741" fill-opacity=".5" d="M65.8 11.8l-.3-3.1 1.5-.2.3 3.1z"/><path fill="#3a0407" fill-opacity=".5" d="M128.7 16.8l6.2-.8.4 3.1-6.2.8z"/><path fill="#dddfe0" fill-opacity=".5" d="M449.7 160.2l.5 14.1-129.6 4.5-.5-14z"/><path fill="#41725a" fill-opacity=".5" d="M49.4 52.2l1.3.8-1.6 2.6-1.4-.8z"/><path fill="#c9cbd0" fill-opacity=".5" d="M283.5 185.3l.7 1.4-10 4.6-.6-1.4z"/><path fill="#c1c3c4" fill-opacity=".5" d="M189.8 82.8v-1.5h172v1.5z"/><path fill="#e3e6e6" fill-opacity=".5" d="M334.4 187.5h-51.6v-1.6h51.6z"/><path fill="#7c7f74" fill-opacity=".5" d="M144.1 65l-10.3 19.2-1.3-.7 10.2-19.3z"/><path fill="#cfe1d8" fill-opacity=".5" d="M60 77.3l.4-1.5 6.1 1.5-.4 1.6z"/><path fill="#dfe2e1" fill-opacity=".5" d="M127.4 160.5l.8 3-22.8 5.7-.7-3z"/><path fill="#4c5d34" fill-opacity=".5" d="M60.6 18.2l2.9 1.2-.6 1.4-3-1.1z"/><path fill="#4b3623" fill-opacity=".5" d="M91.7 27.5l-1.5-.4.9-3 1.5.4z"/><path fill="#c0c5c9" fill-opacity=".5" d="M158.6 79.4l-3.4-3.2 9.6-10.3 3.4 3.2z"/><path fill="#3b546e" fill-opacity=".5" d="M55 4.7l-1.4-.4 2.3-7.5 1.5.5z"/><path fill="#040000" fill-opacity=".5" d="M113.6 64.7l6 1.9-.4 1.5-6-1.9z"/><path fill="#939696" fill-opacity=".5" d="M145.5 66.2l1.2-9.3 3 .4-1 9.3z"/><path fill="#e1e2e4" fill-opacity=".5" d="M218 140.9l-4.6.9-1.8-9.2 4.7-1z"/><path fill="#865d61" fill-opacity=".5" d="M56.7 19.5l4.4 1.8-.7 1.4-4.3-1.8z"/><path fill="#581c1f" fill-opacity=".5" d="M100.6 13.6l1 1.2-10 7.6-1-1.3z"/><path fill="#9a9d9e" fill-opacity=".5" d="M153.4 65.8L133.8 96l-1.3-.9L152.1 65z"/><path fill="#5d453f" fill-opacity=".5" d="M116.8 22.3l3 .7-.7 3-3-.6z"/><path fill="#4c0212" fill-opacity=".5" d="M55 23.7l1-3 3 1-1 3z"/><path fill="#0a0105" fill-opacity=".5" d="M80.5 17.8l1.4 2.8-1.4.7-1.4-2.8z"/><path fill="#610009" fill-opacity=".5" d="M110.8 49.5l.2 1.5-7.7 1.1-.2-1.5z"/><path fill="#e1e3e3" fill-opacity=".5" d="M255.5 14.9l43.7 1.5V18l-43.7-1.6z"/><path fill="#3c0308" fill-opacity=".5" d="M86 13.4l-4.4 1.3-.5-1.5 4.5-1.3z"/><path fill="#560508" fill-opacity=".5" d="M133.2 49.4l-1.2-1 2-2.4 1.2 1z"/><path fill="#452408" fill-opacity=".5" d="M68.6 45.4l-5.2-3.5.9-1.3 5.1 3.5z"/><path fill="#626144" fill-opacity=".5" d="M70.6 71.8l2.3 4-1.3.8-2.4-4z"/><path fill="#1e0000" fill-opacity=".5" d="M112 25.6l1 3-1.5.5-1-3z"/><path fill="#b2b7ba" fill-opacity=".5" d="M125.3 106.7l4.4-10 2.9 1.3-4.5 10z"/><path fill="#010f00" fill-opacity=".5" d="M108.4 21.3l-1.3-.9 1.7-2.6 1.3.8z"/><path fill="#c0c2bd" fill-opacity=".5" d="M84.5 87.6l-6.8 8.6-1.2-1 6.7-8.6z"/><path fill="#651926" fill-opacity=".5" d="M77.3-2.4l2.4-2 7 8.4-2.4 2z"/><path fill="#e9ebec" fill-opacity=".5" d="M182.3 42l18.3 25.4-6.3 4.6L176 46.7z"/><path fill="#dedfe1" fill-opacity=".5" d="M364 157l-.3 1.5-54.2-7.6.2-1.6z"/><path fill="#8d0424" fill-opacity=".5" d="M105.4 56.1l1.6 4.4-1.4.6-1.7-4.4z"/><path fill="#43181d" fill-opacity=".5" d="M70.4 29.4l-.8 1.4-4-2.4.7-1.3z"/><path fill="#1f0811" fill-opacity=".5" d="M112.6 73.5l-.2-7.9h1.6l.1 7.8z"/><path fill="#7d0318" fill-opacity=".5" d="M99.5 46l4.6-4.1 1 1.1-4.6 4.2z"/><path fill="#002b17" fill-opacity=".5" d="M134.8 52.7l.5 1.4-3 1-.4-1.4z"/><path fill="#e0e2e3" fill-opacity=".5" d="M348.5 124.3l12.4-19.9 26.5 16.6-12.4 19.9z"/><path fill="#a9aaae" fill-opacity=".5" d="M88.2 95.7l16.3 5.6-.5 1.5-16.3-5.6z"/><path fill="#4c0918" fill-opacity=".5" d="M76 57l-3.3 3.3-3.4-3.3 3.4-3.3z"/><path fill="#500004" fill-opacity=".5" d="M57 25.5l-1.5.4-1.5-6 1.5-.5z"/><path fill="#001200" fill-opacity=".5" d="M89.7 34l.4-1.6 3 .8-.4 1.6z"/><path fill="#c5c9ca" fill-opacity=".5" d="M319 178.8l-3.3-5.3 1.3-.8 3.3 5.3z"/><path fill="#410000" fill-opacity=".5" d="M86 7l-7.6 1.7L78 7l7.7-1.7z"/><path fill="#f1f4f8" fill-opacity=".5" d="M224.4 148.7l10.8 1.3-4.9 40.4-10.9-1.4z"/><path fill="#c9cbcc" fill-opacity=".5" d="M346.9 81.7l-48.5-.9v-1.5l48.5.8z"/><path fill="#d1d2d3" fill-opacity=".5" d="M57.2 83.5l12.4 1.8-.2 1.5L57 85.1z"/><path fill="#eaedf1" fill-opacity=".5" d="M32 22.6v1.6L3.9 22.7v-1.6z"/><path fill="#eef1f2" fill-opacity=".5" d="M242.2 15.6h-57.8V-14h57.8z"/><path fill="#988f79" fill-opacity=".5" d="M107.9 6.5l-.2 1.6-4.6-.5.1-1.6z"/><path fill="#512424" fill-opacity=".5" d="M112.5 68l-1.7 2.7-9.2-6 1.7-2.6z"/><path fill="#84b67a" fill-opacity=".5" d="M94.5 9.5l-3.1-.2V7.7l3.2.2z"/><path fill="#d2d4d5" fill-opacity=".5" d="M385.2 108l-1.7 7.7-1.5-.3 1.6-7.7z"/><path fill="#e5e6ea" fill-opacity=".5" d="M74.2 129.7v7.8H39.8v-7.8z"/><path fill="#d5d7dc" fill-opacity=".5" d="M263.6 227.4H262l1-56.3h1.6z"/><path fill="#e9eaeb" fill-opacity=".5" d="M-41.4 71.8v-1.6l93.7 3.3v1.6z"/><path fill="#558b46" fill-opacity=".5" d="M97.6 4.4l.1 1.6-6.2.5-.1-1.5z"/><path fill="#6a6964" fill-opacity=".5" d="M112.1 87.4l3.2-3.5 2.3 2.2-3.2 3.4z"/><path fill="#7d0b2e" fill-opacity=".5" d="M111.2 60.3l-1.1-1.1 2.1-2.3 1.2 1.1z"/><path fill="#eff2f6" fill-opacity=".5" d="M247 169.7l-4.5-16.6 55.9-15 4.4 16.6z"/><path fill="#edeff0" fill-opacity=".5" d="M256.8 62.8l.2 1.5-46.6 5.7-.2-1.5z"/><path fill="#370000" fill-opacity=".5" d="M122.2 5l5.8-9.3 1.3.9-5.8 9.2z"/><path fill="#e9eaed" fill-opacity=".5" d="M310.6 78.8l-9.4.2-.8-46.9 9.3-.1z"/><path fill="#b1b6b0" fill-opacity=".5" d="M86.7 84.3l6.3.1V86l-6.3-.1z"/><path fill="#e5e7e8" fill-opacity=".5" d="M328.6 65.1l33-28.7 8.2 9.4-33 28.7z"/><path fill="#0b0900" fill-opacity=".5" d="M87.4 38.5l.3-1.5 4.6 1-.3 1.6z"/><path fill="#436567" fill-opacity=".5" d="M47 19.7l-1.5-4.4 5.9-2.2 1.6 4.4z"/><path fill="#3d3820" fill-opacity=".5" d="M75.8 72.3L74 76.7l-1.5-.6 1.7-4.3z"/><path fill="#542735" fill-opacity=".5" d="M105.4 67.1l1.5.3-1.3 7.7-1.6-.3z"/><path fill="#340003" fill-opacity=".5" d="M123 36.8l4 15-1.5.5-4-15.1z"/><path fill="#bba0ad" fill-opacity=".5" d="M87 16l-.4-1.5 3-.8.4 1.5z"/><path fill="#4e0d19" fill-opacity=".5" d="M114-6.3v20.4h-1.5V-6.3z"/><path fill="#455756" fill-opacity=".5" d="M45.6 34.3l2.4 4-1.4.8-2.4-4z"/><path fill="#9b9b9e" fill-opacity=".5" d="M111.5 99.5l-15.4-2.2.2-1.5 15.5 2.2z"/><path fill="#3f2801" fill-opacity=".5" d="M62.3 37.4l.4 4.7-1.5.2-.5-4.7z"/><path fill="#bdc2c2" fill-opacity=".5" d="M141.3 8l3.1-.4.2 1.6-3 .4z"/><path fill="#cacccc" fill-opacity=".5" d="M421 82l.1 1.6-87.5 1.5v-1.5z"/><path fill="#3a3f12" fill-opacity=".5" d="M66.6 36.5L66 38l-3-1 .5-1.5z"/><path fill="#dce9e6" fill-opacity=".5" d="M136.6 58.1l-1.4 4.5-1.5-.4 1.4-4.5z"/><path fill="#eef1f6" fill-opacity=".5" d="M262.5 165.6v29.7h-32.8v-29.7z"/><path fill="#5f051e" fill-opacity=".5" d="M83.4 42.7l-1.3 1-7.7-9.9 1.3-1z"/><path fill="#4e0802" fill-opacity=".5" d="M88.5 29.1L84.3 27l.7-1.4 4.2 2.1z"/><path fill="#310000" fill-opacity=".5" d="M67 47.1l-7.8-.5.3-4.7 7.8.6z"/><path fill="#100606" fill-opacity=".5" d="M118.2 49.6l1.5-.6 1.1 3-1.4.5z"/><path fill="#2a4829" fill-opacity=".5" d="M58.8 2.5l-1.4.7L55.3-1l1.4-.7z"/><path fill="#5d7134" fill-opacity=".5" d="M111.4-.5l-1 3L109 2l.9-3z"/><path fill="#120300" fill-opacity=".5" d="M102.3 55l-1.5 7.6-1.5-.3 1.5-7.7z"/><path fill="#e6eaeb" fill-opacity=".5" d="M144.6 10.8L140-7.4l7.6-1.9L152.2 9z"/><path fill="#6c3545" fill-opacity=".5" d="M122 60l-2.7-1.5.8-1.4 2.7 1.6z"/><path fill="#1d0000" fill-opacity=".5" d="M99.3 20.1l1.2-1 5 6.1-1.3 1z"/><path fill="#5f1727" fill-opacity=".5" d="M75.7 54.4l.1 1.5-12.5.7V55z"/><path fill="#263619" fill-opacity=".5" d="M99.3 62.7l-.1 1.6-6.3-.5.1-1.5z"/><path fill="#3a411d" fill-opacity=".5" d="M118.7 10.1l-.9-1.3 2.6-1.7.9 1.3z"/><path fill="#e6e8e9" fill-opacity=".5" d="M336.9 85.4l31.2 1-.3 7.9-31.2-1.1z"/><path fill="#8e9193" fill-opacity=".5" d="M139 82.2l10.8-1.9.3 1.6-10.8 1.9z"/><path fill="#b2b5b2" fill-opacity=".5" d="M85.2 96H82v-9.3h3.2z"/><path fill="#414307" fill-opacity=".5" d="M107.2 33.2l-.4 1.5-3-.7.3-1.5z"/><path fill="#607b49" fill-opacity=".5" d="M65.8 35l-2.7-1.5.8-1.4 2.7 1.6z"/><path fill="#0b1600" fill-opacity=".5" d="M98.3 13.3l.5-1.5 4.5 1.5-.6 1.5z"/><path fill="#bab5b6" fill-opacity=".5" d="M152 46l.4 1.5-6 1.8-.4-1.5z"/></svg>