<svg xmlns="http://www.w3.org/2000/svg" viewBox="0 0 400 200"><path fill="#d2d2d3" d="M0 0h400v200H0z"/><path fill-opacity=".5" d="M49-43l95.3 3.3L140 82l-95.2-3.3z"/><path fill="#2d0000" fill-opacity=".5" d="M106.6 91.5L36 45.6l43.4-66.8 70.8 46z"/><path fill="#f6fafd" fill-opacity=".5" d="M166.6-.5l243.7 4.2-3.5 198.4-243.7-4.2z"/><path fill="#f8fdff" fill-opacity=".5" d="M-51.7 42.5l68.3-41 102.2 170-68.3 41.1z"/><path fill="#7c8783" fill-opacity=".5" d="M100.4 119.7L84 91.3l70.3-40.7 16.4 28.5z"/><path fill="#edf0f3" fill-opacity=".5" d="M307.3 174.2L-7 235.3l-14.3-73.6L293 100.6z"/><path fill="#410000" fill-opacity=".5" d="M119.6-16.6l24 6.9-24.1 84.1-24-6.9z"/><path fill="#848b83" fill-opacity=".5" d="M152 44.4L162.3 56 109 104 98.5 92.6z"/><path fill="#56402f" fill-opacity=".5" d="M75.7 17.8L66.6 46l-28.3-9 9.2-28.3z"/><path fill="#d5d7d8" fill-opacity=".5" d="M424.2 241.4H305.5V79h118.7z"/><path fill="#d4d9dd" fill-opacity=".5" d="M163 108L139.1-3.7l27.5-5.9L190.4 102z"/><path fill="#d5d6da" fill-opacity=".5" d="M220.6 113l-2.3 43.7L49.8 148l2.2-43.7z"/><path fill="#311d07" fill-opacity=".5" d="M70.8 31.7l34.4 21.5L87 82.4 52.6 60.8z"/><path fill="#c9f4ea" fill-opacity=".5" d="M105.3 84.3L136 62.8l.9 1.3-30.7 21.5z"/><path fill="#f4f8fc" fill-opacity=".5" d="M34-62.4l38.7 20.6L8 79.6-30.5 59z"/><path fill="#e4eaea" fill-opacity=".5" d="M8 71.5l13.7-22.7 46.9 28.1-13.7 22.8z"/><path fill="#400b15" fill-opacity=".5" d="M142.2 48.9L121 74l-18-15 21.1-25.2z"/><path fill="#f0f2f2" fill-opacity=".5" d="M206.2-69.9l69.6 92.4-77.3 58.3-69.6-92.4z"/><path fill="#7b8682" fill-opacity=".5" d="M140 98.8l-54.6-3.9 1.2-17.1 54.6 3.8z"/><path fill="#f7fbff" fill-opacity=".5" d="M239.1 202.3l-28-73 70-26.9 28 73z"/><path fill="#b0c5c3" fill-opacity=".5" d="M-30.4 86.4l-.1-6.2 143.7-2.5.1 6.2z"/><path fill="#88d97d" fill-opacity=".5" d="M91.6 2.8L103.3 7l-2.7 7.3L89 10.1z"/><path fill="#b9d5c7" fill-opacity=".5" d="M153.5 35l1.2 1-25.4 33.7-1.2-1z"/><path fill="#adafaf" fill-opacity=".5" d="M265.6 21l132.8-4.6V18l-132.7 4.6z"/><path fill="#280100" fill-opacity=".5" d="M140.8 21.6l-73.3 5.2-.4-6.3 73.2-5z"/><path fill="#949698" fill-opacity=".5" d="M300.1 143l85.8 4.6v1.5l-85.9-4.5z"/><path fill="#a9c472" fill-opacity=".5" d="M89.3 24.3l.7-1.4 19.2 10.6-.8 1.4z"/><path fill="#a7a9aa" fill-opacity=".5" d="M493.7 80.5L226.6 85v-1.5l267.1-4.7z"/><path fill="#a6a6ab" fill-opacity=".5" d="M-87.5 148.6V147l198.4-3.4v1.5z"/><path fill="#9e8587" fill-opacity=".5" d="M114.5 32.6l.7-11 6.3.5-.8 11z"/><path fill="#921e34" fill-opacity=".5" d="M89.6 46.6l9.6-8 19 22.7-9.5 8z"/><path fill="#a0a2a5" fill-opacity=".5" d="M218 143.7v3l-100 1.8v-3.1z"/><path fill="#bad1ce" fill-opacity=".5" d="M148.2 6.4l15 4.3-9.9 34.5-15-4.3z"/><path fill="#44817c" fill-opacity=".5" d="M44.5 43.6l21.6 24.8-6 5.1-21.5-24.7z"/><path fill="#e3b7d4" fill-opacity=".5" d="M78.3 37.6l-.4-11 4.7-.1.4 11z"/><path fill="#a9acae" fill-opacity=".5" d="M250 22.2l-107.8-3.8V17L250 20.6z"/><path fill-opacity=".5" d="M103.8 40.8l8.8-8.9L126 45.2l-9 8.8z"/><path fill="#b9bdc2" fill-opacity=".5" d="M108.4 111L172 68.2l8.7 13-63.4 42.8z"/><path fill="#1a2411" fill-opacity=".5" d="M102.4 80.2l-20.3-1 1.4-26.6 20.3 1z"/><path fill="#873645" fill-opacity=".5" d="M143.9 38.7l-2.3 9.1-15.2-3.7 2.3-9.1z"/><path fill="#6c695d" fill-opacity=".5" d="M148.7 63.5l-40.6 36.6-5.3-5.8 40.7-36.6z"/><path fill="#370b08" fill-opacity=".5" d="M113.2 54.3L53 2l4.1-4.7 60.2 52.3z"/><path fill="#e5e7e8" fill-opacity=".5" d="M199.2 161l-5.2 74.7L-4 222l5.4-75z"/><path fill="#b7b9ba" fill-opacity=".5" d="M259.4 79.7v4.7H157.8v-4.7z"/><path fill="#7b0d21" fill-opacity=".5" d="M134.3-19.5l9 36.4-16.6 4.2-9.1-36.4z"/><path fill="#5c944d" fill-opacity=".5" d="M94 66.7L65 78.4l-1.2-2.9 29-11.7z"/><path fill="#99314d" fill-opacity=".5" d="M83.2-27.3l5.9 2.2-20.8 54-5.8-2.3z"/><path fill="#ebedf0" fill-opacity=".5" d="M-8.4-22l30.2-8 44.4 166-30.1 8z"/><path fill="#cb7a96" fill-opacity=".5" d="M139.7-.3l-8.5 11.2-3.7-2.8L136-3z"/><path fill="#445659" fill-opacity=".5" d="M76.7-27L49 32.5l-8.5-4 27.7-59.4z"/><path fill="#337971" fill-opacity=".5" d="M139.3 10.9h4.7l-.5 29.8-4.7-.1z"/><path fill="#96a96b" fill-opacity=".5" d="M113.7 6.4l-7.2 3.1-6.1-14.4 7.2-3z"/><path fill="#4d1d18" fill-opacity=".5" d="M48.8 58l2.6-24.8 38.9 4-2.7 25z"/><path fill="#8c9b6b" fill-opacity=".5" d="M67 39.5l1.4-.9 9.8 14-1.3 1z"/><path fill="#1b0000" fill-opacity=".5" d="M132.5 44.1l3.8-31 4.6.6-3.8 31z"/><path fill="#c5c7c9" fill-opacity=".5" d="M63.8 75.1l40.7 36.6L94 123.3 53.4 86.7z"/><path fill="#f0f2f3" fill-opacity=".5" d="M402.3 15.6H146.1V-14h256.2z"/><path fill="#a8b4b6" fill-opacity=".5" d="M43.8 19.4l-51.6 1.8v-1.5l51.5-1.8z"/><path fill="#4a0002" fill-opacity=".5" d="M73.5 36l9.3-52.4 4.6.8-9.2 52.3z"/><path fill="#4e9699" fill-opacity=".5" d="M38.4 30l7.7-1.7 4.5 21.4-7.6 1.7z"/><path fill="#ccf1e8" fill-opacity=".5" d="M91.2 88l-.6-1.4 26-10.6.6 1.5z"/><path fill="#0c3022" fill-opacity=".5" d="M72.4 73.3L88 72l.5 6.2L73 79.6z"/><path fill="#140b11" fill-opacity=".5" d="M118.6 62.6l3.9 6.8-17.6 10.2-4-6.8z"/><path fill="#260000" fill-opacity=".5" d="M92.4 50.3l-7.7-.7L87.2 20l7.8.7z"/><path fill="#e8bdc8" fill-opacity=".5" d="M92.5 13l-4 4.7-1.3-1 4-4.8z"/><path fill="#300000" fill-opacity=".5" d="M129.5 7.1l-15.6 1.4-1.2-14L128.3-7z"/><path fill="#eef0f0" fill-opacity=".5" d="M212.1 70.6l-.8-46.8 128.1-2.3.8 47z"/><path fill="#e6e9e9" fill-opacity=".5" d="M295 83.8l71.8 1.2-.8 48.4-71.9-1.2z"/><path fill="#3b2b0a" fill-opacity=".5" d="M112.8 21.6l-1.4 2.8L79.4 8l1.4-2.8z"/><path fill="#fffeff" fill-opacity=".5" d="M106.5 54.2l1.1-1 3.1 3.5-1.2 1z"/><path fill="#979a90" fill-opacity=".5" d="M148.3 35l3 .6-4.3 24.6-3-.5z"/><path fill="#8e3540" fill-opacity=".5" d="M50.8 33.5l-6.5-4.3 9.6-14.3 6.5 4.4z"/><path fill="#b3b5b7" fill-opacity=".5" d="M400.8 144.3v4.7l-62.6-1.1.1-4.7z"/><path fill="#837f5f" fill-opacity=".5" d="M71.8 24L56 47.2l-1.3-1L70.4 23z"/><path fill="#390000" fill-opacity=".5" d="M87.7 17l-19.3 6.3L67 19l19.3-6.3z"/><path fill="#2c0006" fill-opacity=".5" d="M63 63.1l-10-4.3 7.3-17.2 10.1 4.3z"/><path fill="#d8dadc" fill-opacity=".5" d="M276.8 226.2L264 191l51.4-18.8 12.8 35.3z"/><path fill="#968269" fill-opacity=".5" d="M100.7 41.6l1 1.3L75.8 63l-1-1.3z"/><path fill="#74756e" fill-opacity=".5" d="M110.1 94.1l-3.7-10.3L144.6 70l3.7 10.3z"/><path fill="#ecedee" fill-opacity=".5" d="M180.2 135.4l-2.5-46.9 68.7-3.5 2.4 46.8z"/><path fill="#b7b2b5" fill-opacity=".5" d="M69.5 84.2l-78.1-2.8V80l78.1 2.7z"/><path fill="#3e6218" fill-opacity=".5" d="M51.6 29.7L60 23l11.8 14.5-8.5 7z"/><path fill="#a4a7a5" fill-opacity=".5" d="M92.6 102.5l-7.3 3-7.6-19 7.3-2.8z"/><path fill="#a3a262" fill-opacity=".5" d="M110 15.1l-11.7 4-.6-1.4 11.9-4z"/><path fill="#ad8e9f" fill-opacity=".5" d="M74 10.8l2-14 1.5.3-2 13.9z"/><path fill="#8ac1be" fill-opacity=".5" d="M50.5-4.6l1.5.4-13.5 41.7L37 37z"/><path fill="#36513d" fill-opacity=".5" d="M53.8 14.8l1.8-17 14 1.4-1.8 17.1z"/><path fill="#c74b74" fill-opacity=".5" d="M64.4 49l5.2 5.7-1.2 1-5.2-5.7z"/><path fill="#e1e3e3" fill-opacity=".5" d="M219.2 231.8l-59.4 2-2.4-70.2 59.3-2.1z"/><path fill="#f3bbe0" fill-opacity=".5" d="M128.1 39.8l2.5 2-1 1.2-2.4-2z"/><path fill="#eaeef2" fill-opacity=".5" d="M189 22.7v12.5h-45.3V22.7z"/><path fill="#d1d3d3" fill-opacity=".5" d="M282 20.8l-.1 3-106.1-5.5.1-3.1z"/><path fill="#f6f9fe" fill-opacity=".5" d="M236.7 197.7H218v-43.8h18.7z"/><path fill="#b4baba" fill-opacity=".5" d="M140.4 35l15-4.3 12 42-15 4.4z"/><path fill="#bbd58e" fill-opacity=".5" d="M102.9 32l-1 1.3-6.3-4.4.9-1.3z"/><path fill="#201611" fill-opacity=".5" d="M135.4 53l-15.7 17.4-3.5-3.1 15.7-17.4z"/><path fill="#bbbdbe" fill-opacity=".5" d="M258.6 80.9l218.7 3.8v1.6l-218.7-3.8z"/><path fill="#cf97ab" fill-opacity=".5" d="M123.6 56.8l-2.7 1.5-2.3-4.1 2.7-1.5z"/><path fill="#d2e9e8" fill-opacity=".5" d="M141 54.8l1 1.1L120 78l-1.1-1.1z"/><path fill="#210000" fill-opacity=".5" d="M116.3 27.2l1.4.7-23 49.6-1.5-.7z"/><path fill="#4f8f8c" fill-opacity=".5" d="M110.1 77.8v1.5l-40.6.7v-1.5z"/><path fill="#ee86b0" fill-opacity=".5" d="M93.5 47.6l3.8-6.9 1.4.8-3.8 6.8z"/><path fill="#acacb3" fill-opacity=".5" d="M138.8 95.5l.5 12.5-36 1.2-.4-12.5z"/><path fill="#140000" fill-opacity=".5" d="M100.8 55.4l1 4.6-23 4.9-1-4.6z"/><path fill="#ebebee" fill-opacity=".5" d="M69.7 141.7l-73.4 2.5-2-56.2 73.4-2.5z"/><path fill="#765447" fill-opacity=".5" d="M134.3 49.5l-1.5.3-6.2-29 1.5-.3z"/><path fill="#a3a765" fill-opacity=".5" d="M110.9 30.3l-5.5 5.6-2.2-2.1 5.4-5.7z"/><path fill="#d496ab" fill-opacity=".5" d="M106.1 58.7l4.4-1.7.6 1.4-4.4 1.8z"/><path fill="#e585a8" fill-opacity=".5" d="M64 27l.2-3.2 7.8.8-.3 3.1z"/><path fill="#350007" fill-opacity=".5" d="M77.2 21l1.3-4.5 27 7.8-1.2 4.5z"/><path fill="#5d694a" fill-opacity=".5" d="M88 39.6l-.4-1.6 16.6-4.1.4 1.5z"/><path fill="#070000" fill-opacity=".5" d="M82.5 50l-1 1L69 39.2l1-1.1z"/><path fill="#eafbf6" fill-opacity=".5" d="M148 1.3l-6.6 4.2L138 .3l6.5-4.3z"/><path fill="#d2d4d8" fill-opacity=".5" d="M174.2 32.8v104.7h-12.5V32.8z"/><path fill="#d5f1eb" fill-opacity=".5" d="M102.3 82.5l-31 3.8-.2-1.6 31-3.8z"/><path fill="#1c0200" fill-opacity=".5" d="M88.6-4.8L104.5 5l-.9 1.3-15.9-10z"/><path fill="#ad868e" fill-opacity=".5" d="M103.4 66.3l2.1 2.3-1.1 1-2.1-2.2z"/><path fill="#200d02" fill-opacity=".5" d="M122.8 13.3l-24.9 3-.3-3 24.8-3z"/><path fill="#f5f9fa" fill-opacity=".5" d="M42 16.7l-57.4-7 3-24.8 57.5 7z"/><path fill="#631d26" fill-opacity=".5" d="M71.9 2.3l38.6-6.1.4 3-38.5 6.2z"/><path fill="#e8f1f1" fill-opacity=".5" d="M43.3 67.6l20 9-2 4.2L41.5 72z"/><path fill="#e5e6e9" fill-opacity=".5" d="M166.9 152.7l-2.6 75-198.4-7 2.7-75z"/><path fill="#899080" fill-opacity=".5" d="M137 82l-1.4-.4 13.2-43.3 1.5.4z"/><path fill="#8b797c" fill-opacity=".5" d="M58.6 46.2l-.2 1.5L46 46l.3-1.5z"/><path fill="#500a13" fill-opacity=".5" d="M75.6 41L65.1 1.6l1.5-.4L77 40.5z"/><path fill="#bdadbd" fill-opacity=".5" d="M83.9 30.6l-4.3-2 .6-1.4 4.3 2z"/><path fill="#100400" fill-opacity=".5" d="M107.4 48.9l-3.5-15.3 12.2-2.8 3.5 15.3z"/><path fill="#d8d8de" fill-opacity=".5" d="M315.7 80.6l-26.5-32.8 6-5 26.6 32.9z"/><path fill="#79b2ae" fill-opacity=".5" d="M67.9 73.4l-2 2.3-26-22.5 2-2.4z"/><path fill="#4b0007" fill-opacity=".5" d="M83.7 37.5l22.7 19.1-1 1.2-22.7-19z"/><path fill="#2d0200" fill-opacity=".5" d="M45 33.8l.6-1.5 17.2 7.4-.6 1.4z"/><path fill="#120909" fill-opacity=".5" d="M133.7 15.2l6.2 1.2-3.3 16.9-6.2-1.2z"/><path fill="#6c000e" fill-opacity=".5" d="M139.8 42.6l.6 1.5-13 5.5-.6-1.5z"/><path fill="#750018" fill-opacity=".5" d="M141.8 5.8l-6 11-4.2-2.3 6.1-11z"/><path fill="#560005" fill-opacity=".5" d="M54 18.7l5.3 5.7-2.3 2.2-5.3-5.7z"/><path fill="#9d9ea2" fill-opacity=".5" d="M157 59.9L139.2 98l-7.1-3.3 17.8-38.2z"/><path fill="#b77fa3" fill-opacity=".5" d="M63.8 11.8l3.4 5.2-1.3.9-3.4-5.3z"/><path fill="#c2c3c8" fill-opacity=".5" d="M-78.9 150.7L143 143v1.6l-221.7 7.7z"/><path fill="#c187a0" fill-opacity=".5" d="M86.8 19.6l-.2-6.3h3.1l.3 6.2z"/><path fill="#eceeef" fill-opacity=".5" d="M-24.2 38.3h62.5v40.6h-62.5z"/><path fill="#887850" fill-opacity=".5" d="M56.3 27.4L54.4 35l-6-1.5 1.9-7.6z"/><path fill="#d7dbdd" fill-opacity=".5" d="M262 172l7.8-.3 1 20.3-7.8.4z"/><path fill="#edeff0" fill-opacity=".5" d="M232.7 88.1l161-2.8.1 9.4L233 97.5z"/><path fill="#7a7b76" fill-opacity=".5" d="M130.2 94.2l-35.7 3.7-1.3-12.4 35.7-3.8z"/><path fill="#180e07" fill-opacity=".5" d="M113.5 24l-3.2-12 12-3.2 3.3 12z"/><path fill="#590010" fill-opacity=".5" d="M137.3 4l-.7 1.4-9.8-4.8.7-1.4z"/><path fill="#537744" fill-opacity=".5" d="M104.8 25.5l-.7-1.3 8.3-4.4.7 1.3z"/><path fill="#8f9a6b" fill-opacity=".5" d="M95.7 10.8l-1.3.9-13.6-21 1.3-.8z"/><path fill="#9da88a" fill-opacity=".5" d="M108.7 8.8l-1.5.4-5-16.4 1.5-.5z"/><path fill="#f1f4f7" fill-opacity=".5" d="M272.2 189.4l-26.9-63.3 40.3-17 26.9 63.2z"/><path fill="#f9fafb" fill-opacity=".5" d="M250.8 31.2h-75v-7.8h75z"/><path fill="#85a782" fill-opacity=".5" d="M49.2 6.2l-7.5-10 1.3-.9 7.5 10z"/><path fill="#0e1b18" fill-opacity=".5" d="M55 58.4l2.8-3.7L71.6 65l-2.9 3.8z"/><path fill="#ce829b" fill-opacity=".5" d="M47.4 25.9l-.6-1.5 4.3-1.8.6 1.4z"/><path fill="#8a5969" fill-opacity=".5" d="M123.5 34.8l-1.5.3-3.3-15.2 1.5-.4z"/><path fill="#040100" fill-opacity=".5" d="M118.8 73.5l-3.2-.2 1.6-29.6 3.1.2z"/><path fill="#5f000a" fill-opacity=".5" d="M107.2 42.2L106 45l-11.7-4.5 1.1-2.9z"/><path fill="#9a9ea2" fill-opacity=".5" d="M173.2 79.6l.2 1.6-26.3 3.2-.2-1.5z"/><path fill="#ffd6de" fill-opacity=".5" d="M130.6 7.2L129 4.6l1.3-.9 1.7 2.7z"/><path fill="#5a0713" fill-opacity=".5" d="M100.4-6.2L61.5 27.7l-1-1.2 39-33.8z"/><path fill="#371620" fill-opacity=".5" d="M121.5 69.4l-4-6.7 9.4-5.6 4 6.7z"/><path fill="#b6937e" fill-opacity=".5" d="M71.8 63.6l4.2-2 .7 1.4-4.3 2z"/><path fill="#f9fafe" fill-opacity=".5" d="M217.3 138.8l1.5-17.1 40.5 3.5-1.5 17.2z"/><path fill="#315a56" fill-opacity=".5" d="M107.8 78.5l-39-.7v-1.6l39 .7z"/><path fill="#1d0100" fill-opacity=".5" d="M94.2 39.8l-4.8 9.8-7-3.4 4.8-9.9z"/><path fill="#d5d8db" fill-opacity=".5" d="M51.5 95.5l86.7 31.5-3.8 10.3-86.6-31.5z"/><path fill="#c6c8c9" fill-opacity=".5" d="M359.2 21.2l.4-6.3 42.1 3-.4 6.2z"/><path fill="#140000" fill-opacity=".5" d="M114.6 50.8l-4.5-4.4L124.5 32l4.4 4.4z"/><path fill="#6a121b" fill-opacity=".5" d="M119 54.3l2.6 4-17.3 10.8-2.4-4z"/><path fill-opacity=".5" d="M89.2 27.6l1.1-1 6.4 6.8-1.1 1z"/><path fill="#4b0b0f" fill-opacity=".5" d="M137.2 50.8l-1 1.2L73.7-2.4l1-1.1z"/><path fill="#62423b" fill-opacity=".5" d="M120.8 62.8l-1-1.2L137 48l1 1.3z"/><path fill="#dee0e4" fill-opacity=".5" d="M139.9 126L184 88.8l15.1 18L155 144z"/><path fill="#1f0f08" fill-opacity=".5" d="M115.7 19.7l-.1-1.6 26.5-1.8.1 1.5z"/><path fill="#e4e6e6" fill-opacity=".5" d="M316.4-2.3h84.4v18.7h-84.4z"/><path fill="#594a32" fill-opacity=".5" d="M122.5 3.8l1.6-.4 8 35-1.5.4z"/><path fill="#b0b2b6" fill-opacity=".5" d="M106.7 148.3l-4.6.3-1-14 4.7-.4z"/><path fill="#3f7270" fill-opacity=".5" d="M53.7 3.4l1.3.9L44.8 20l-1.3-.8z"/><path fill="#0c0f07" fill-opacity=".5" d="M95 73.2l.3 1.5L72 78.4l-.2-1.6z"/><path fill="#000100" fill-opacity=".5" d="M133 54l1 1.2-6 4.9-1-1.2z"/><path fill="#e1e4e4" fill-opacity=".5" d="M262.4 100l3 10.5-45 13-3-10.6z"/><path fill="#570004" fill-opacity=".5" d="M53.2 53l-1.3.8-3.5-5.2 1.3-.8z"/><path fill="#475e2e" fill-opacity=".5" d="M73.1 35.3l-6.6 6.6-10-10 6.7-6.6z"/><path fill="#5b7c52" fill-opacity=".5" d="M66.7 10.5l-1.3 1-8.6-11 1.2-1z"/><path fill="#4a0914" fill-opacity=".5" d="M68.3 72.5L63 45l1.5-.3 5.4 27.6z"/><path fill="#975d61" fill-opacity=".5" d="M75.8 51.6l-9 3-.4-1.6 9-2.8z"/><path fill="#deedee" fill-opacity=".5" d="M53.7 77.3l-27.2-42 2.6-1.6 27.2 41.9z"/><path fill="#66685c" fill-opacity=".5" d="M137.5 68.7l.8 1.3-30.5 19-.8-1.2z"/><path fill="#498988" fill-opacity=".5" d="M39.4 39l9.3-1.4 1 6.2-9.3 1.4z"/><path fill="#271f0c" fill-opacity=".5" d="M81.1 61.7l-6.7-3.9L82.9 43l6.8 4z"/><path fill="#cce8e8" fill-opacity=".5" d="M39.3 67.2h-1.6l2.7-51.6 1.6.1z"/><path fill="#45000f" fill-opacity=".5" d="M54.3 37.4l-1.1 1.1-9-8.7 1-1.1z"/><path fill="#b6e5dd" fill-opacity=".5" d="M67.4 77.8l-1 1.3-16.6-11.6 1-1.3z"/><path fill="#d584af" fill-opacity=".5" d="M131 38.2l1.1 1-2.2 2.3-1-1z"/><path fill="#e0e2e3" fill-opacity=".5" d="M318.6 125.2l-21.6 9.2-14-33 21.5-9.2z"/><path fill="#c7c9cf" fill-opacity=".5" d="M309 173l.7 1.4-39 19.8-.7-1.4z"/><path fill="#bdbcc2" fill-opacity=".5" d="M125.6 112.4L85 111l.3-9.4 40.6 1.5z"/><path fill="#510011" fill-opacity=".5" d="M69.2 7l1.5-.4 8.5 31.7-1.5.4z"/><path fill="#b4b6ba" fill-opacity=".5" d="M302.4 149.4V148l28-2v1.6z"/><path fill="#1f4b47" fill-opacity=".5" d="M117 72.3l.4 3.1-4.6.7-.5-3z"/><path fill="#6d8756" fill-opacity=".5" d="M80.4 10.1l6-1.4.4 1.5-6 1.4z"/><path fill="#ebedee" fill-opacity=".5" d="M186.7 62.5h100v17.2h-100z"/><path fill="#d7d9da" fill-opacity=".5" d="M395 173l12.2 37-47.6 15.5-12-37.1z"/><path fill="#520717" fill-opacity=".5" d="M84.8 49.1L87 18h1.6l-2.2 31.2z"/><path fill="#c4bed6" fill-opacity=".5" d="M83.7 29.3l-1.8 6-1.5-.5 1.8-6z"/><path fill="#45762e" fill-opacity=".5" d="M78.2 67.7l16.7-4.1.3 1.5-16.6 4.1z"/><path fill="#a8aaaa" fill-opacity=".5" d="M384.3 146l.2-1.6 20.2 1.8-.1 1.6z"/><path fill="#e6e8ea" fill-opacity=".5" d="M408 162.2L303.2 166l-.3-7.8 104.6-3.7z"/><path fill="#b8bcc2" fill-opacity=".5" d="M219.5 200.4v-1.6l43.8-.7v1.5z"/><path fill="#2f1c0b" fill-opacity=".5" d="M123.9.3l2.3 2-23.5 27.1-2.4-2z"/><path fill="#ccd0d4" fill-opacity=".5" d="M149.4 104.8l-.4-20.3 15.7-.3.3 20.3z"/><path fill="#c2c4c6" fill-opacity=".5" d="M248.6 21.7l-.2-1.5 23.3-2.9.2 1.6z"/><path fill="#552922" fill-opacity=".5" d="M101.5 8.2l1.2-1 38 39.3-1.2 1z"/><path fill="#04160b" fill-opacity=".5" d="M49.2 38.6l9.1-2.1.3 1.5-9 2.1z"/><path fill="#f0f2f3" fill-opacity=".5" d="M237.6 33.4l-.2-9.4L389 21.3l.1 9.4z"/><path fill="#eeeef3" fill-opacity=".5" d="M49.2 142.2v-7.8h40.6v7.8z"/><path fill="#d0d2d2" fill-opacity=".5" d="M360.2 20.3V22h-75v-1.6z"/><path fill="#59723f" fill-opacity=".5" d="M91 67.6L67.3 76l-.5-1.5L90.3 66z"/><path fill="#8aa679" fill-opacity=".5" d="M97 29.3l-1.2 1-3.8-5 1.2-.9z"/><path fill="#d6d7d9" fill-opacity=".5" d="M154 21.9v-1.6h109.3V22z"/><path fill="#082b00" fill-opacity=".5" d="M98.8-4.4l1.4-.7L105.9 6l-1.4.7z"/><path fill="#6f915a" fill-opacity=".5" d="M104.8 11.8l-1 1.2L90.5 2.2l1-1.2z"/><path fill="#b6ddd5" fill-opacity=".5" d="M143 40.3l4.6-29.3 1.6.2-4.7 29.4z"/><path fill="#cbcdd0" fill-opacity=".5" d="M140.8 201.7l-.4-11 7.8-.2.4 11z"/><path fill="#355954" fill-opacity=".5" d="M55.2 3.7l4.2 2-6.8 14-4.2-2z"/><path fill="#71071c" fill-opacity=".5" d="M130.5 50.3l4.9-13.2 4.4 1.6L135 52z"/><path fill="#94788a" fill-opacity=".5" d="M57 17.7l1.4-.6 1.8 4.3-1.4.6z"/><path fill="#f4f9fc" fill-opacity=".5" d="M-3.8 21.5l43.7.8-.2 10.9-43.7-.8z"/><path fill="#710011" fill-opacity=".5" d="M138.6 10.3l-2.6 9-10.5-3 2.6-9z"/><path fill="#658f78" fill-opacity=".5" d="M67.1 78.5l11-.8v1.6l-10.8.8z"/><path fill="#470a1a" fill-opacity=".5" d="M87.6 62.5L85 58.7l10.3-7.2 2.7 3.9z"/><path fill="#c8cccd" fill-opacity=".5" d="M150 33.7l4.2-2L173.4 71l-4.2 2z"/><path fill="#040000" fill-opacity=".5" d="M105.3 40.3l.8-1.3 21.4 12.9-.8 1.3z"/><path fill="#c4e1d8" fill-opacity=".5" d="M111.6 77.6l1.2 2.9-7.2 2.9-1.2-3z"/><path fill="#dfe1e2" fill-opacity=".5" d="M332.1 93.6l129-13.5 5.2 49.7-129 13.6z"/><path fill="#640d29" fill-opacity=".5" d="M96.3 21.7l-12.4 2-.5-3.2 12.4-2z"/><path fill="#c5c6ca" fill-opacity=".5" d="M27.5 21.6l-9.3.5-.4-7.8 9.3-.5z"/><path fill="#f2f4f6" fill-opacity=".5" d="M-9.7 84.6l49.9 4.3-.9 9.4-49.8-4.4z"/><path fill="#ba9fad" fill-opacity=".5" d="M117.1 31l4-2.4.8 1.3-4 2.5z"/><path fill="#eceff5" fill-opacity=".5" d="M263.9 154.2l36.5-14 12.3 32.1-36.5 14z"/><path fill="#6c9591" fill-opacity=".5" d="M52.4 63.5l-1.4.6-11.2-29.2 1.4-.5z"/><path fill="#2d3a13" fill-opacity=".5" d="M53.6 33.3l15.7-7 .6 1.4-15.7 7z"/><path fill="#e2e4e4" fill-opacity=".5" d="M365.4 80.2l-1-57.8 62.4-1 1 57.7z"/><path fill="#6e3942" fill-opacity=".5" d="M83 26.2l-10.3 9.6-1-1.1L82 25z"/><path fill="#97816c" fill-opacity=".5" d="M72.1 47.8l8.1 4.6-.7 1.4-8.2-4.7z"/><path fill="#5f282d" fill-opacity=".5" d="M116 59.6l1.2 1-12.8 15.8-1.2-1z"/><path fill="#3b3c19" fill-opacity=".5" d="M73.4 73.5l17-3.3.2 1.6L73.7 75z"/><path fill="#2f0001" fill-opacity=".5" d="M127 1l1.1 2.8-16 6.2-1.2-3z"/><path fill="#8e1330" fill-opacity=".5" d="M109.7 52.3l7.6 1.7-.4 1.5-7.6-1.7z"/><path fill-opacity=".5" d="M113.1 70.7l-.5-1.5 10.2-4 .6 1.5z"/><path fill="#930a21" fill-opacity=".5" d="M99.5 40.7l6.8 6.5-1.1 1.1-6.8-6.5z"/><path fill="#b59d73" fill-opacity=".5" d="M105.6 31.6l-.2-1.6 6.2-.6.2 1.5z"/><path fill="#470008" fill-opacity=".5" d="M124.7 61l-1.5-.3 3.7-26.3 1.5.2z"/><path fill="#420005" fill-opacity=".5" d="M71.7 56l2.9 1.2-4.1 10.2-2.9-1.2z"/><path fill="#bdbfc1" fill-opacity=".5" d="M166.4 82.8l59.3-3.1v1.6l-59.2 3z"/><path fill="#9b9b97" fill-opacity=".5" d="M88.7 84.5l6 1.8-3.7 12-6-1.8z"/><path fill="#eff2f3" fill-opacity=".5" d="M136.2 1.6l4.6-13.3 34 11.7-4.6 13.3z"/><path fill="#de9ebf" fill-opacity=".5" d="M52.5 22.6L52 24l-3-1.3.7-1.4z"/><path fill="#c8cdd1" fill-opacity=".5" d="M95.3 127.4l-1.8-6 62.7-19.1 1.9 6z"/><path fill-opacity=".5" d="M93.8 69.6l-1-1.3 2.5-2 1 1.3z"/><path fill="#6ea89f" fill-opacity=".5" d="M76.5 80.5l.2-1.6 10.9 1.6-.3 1.5z"/><path fill="#020000" fill-opacity=".5" d="M106.2 19.5l-5.6 5.4-2.2-2.2 5.7-5.4z"/><path fill="#151b00" fill-opacity=".5" d="M75 65.7l7.2-3.2.6 1.5-7.1 3.1z"/><path fill="#dc90b3" fill-opacity=".5" d="M99.2 42.6L97.5 47l-1.4-.6 1.7-4.3z"/><path fill="#2e0000" fill-opacity=".5" d="M61 54.5l-2.7-1.6 7.3-12 2.6 1.5z"/><path fill="#7c7c71" fill-opacity=".5" d="M141.6 74.4l-8.2-4.7 4.7-8.1 8.1 4.7z"/><path fill="#8e8e7e" fill-opacity=".5" d="M94 33.8l.7 1.3-2.8 1.5-.7-1.4z"/><path fill="#e7e9ea" fill-opacity=".5" d="M-58.7 114L60.5 88.5l9.1 42.8-119.2 25.3z"/><path fill="#542430" fill-opacity=".5" d="M43 29.5L51 18l1.3 1-8 11.4z"/><path fill="#f1f1f7" fill-opacity=".5" d="M-9.3 161.5V160l123.3-4.3v1.5z"/><path fill="#4b9386" fill-opacity=".5" d="M96 81.7l-9.3-1 .1-1.5 9.3 1z"/><path fill="#b6bbbf" fill-opacity=".5" d="M127 106.1l25-18.8 3.8 5-25 18.8z"/><path fill="#92a29a" fill-opacity=".5" d="M141.3 44l11 19-1.4.8-11-19z"/><path fill="#1b2210" fill-opacity=".5" d="M58.6-.1l3.9-5L71 1.8l-3.9 5z"/><path fill="#e7e8ea" fill-opacity=".5" d="M190.2 72.5l-.6-18.8 168.6-5.9.7 18.8z"/><path fill="#c4d1cd" fill-opacity=".5" d="M159.2 36.7L131 66l-1.1-1L158 35.6z"/><path fill="#e4e6e7" fill-opacity=".5" d="M168 148.4h46.8V250H168z"/><path fill="#9ad0c8" fill-opacity=".5" d="M144 41.4h-1.6L142 29h1.5z"/><path fill="#c594a5" fill-opacity=".5" d="M57.7 46.8l-1.3.8-3.2-5.3 1.3-.8z"/><path fill="#130000" fill-opacity=".5" d="M92.1 10.7l.1 1.5-10.9.6v-1.6z"/><path fill="#e7e9ea" fill-opacity=".5" d="M171.6 141.8l.5-26.6 45.3.8-.4 26.6z"/><path fill="#946274" fill-opacity=".5" d="M58.3 17.5l-1-1.2 4.7-4 1 1.1z"/><path fill="#383235" fill-opacity=".5" d="M128.2 67l-5.6-2.9.8-1.4 5.5 2.9z"/><path fill="#2e0a0f" fill-opacity=".5" d="M114 72.9l-22.6 5.7-.8-3 22.7-5.7z"/><path fill="#3f3333" fill-opacity=".5" d="M56.3 55L44 31.7l1.3-.7 12.5 23.4z"/><path fill="#041715" fill-opacity=".5" d="M136 35l-1.5-.5 6-21 1.5.4z"/><path fill="#e8eaec" fill-opacity=".5" d="M285.8 9.4l-.7-6.2 105.7-11 .6 6.1z"/><path fill="#597624" fill-opacity=".5" d="M108 15l-.4 6.1H106l.5-6.3z"/><path fill="#9e9da3" fill-opacity=".5" d="M93.8 96h35.9v3.2h-36z"/><path fill="#d3d8db" fill-opacity=".5" d="M40.6 23.1l-51.6-.9v-3.1l51.6.9z"/><path fill="#84857b" fill-opacity=".5" d="M135.3 78.5l10.7-31 1.5.5-10.7 31z"/><path fill="#d8dadb" fill-opacity=".5" d="M286.1 110.2v-1.5l113.7-8 .1 1.6z"/><path fill="#273e3a" fill-opacity=".5" d="M58.7 14h-1.5l-1.9-26.4 1.6-.1z"/><path fill="#d4d6d8" fill-opacity=".5" d="M302.5 47.8l-11 8.9-4.9-6 11-9z"/><path fill="#cccdd0" fill-opacity=".5" d="M309 65.5l1.2-1L326.9 83l-1.1 1z"/><path fill="#cccece" fill-opacity=".5" d="M217.2 146.5v1.5l-45.3.8v-1.5z"/><path fill="#815352" fill-opacity=".5" d="M79-10l1.3.9-14 20.7-1.3-.9z"/><path fill="#710017" fill-opacity=".5" d="M101 42.1l1.5.4-2 7.6-1.5-.4z"/><path fill="#321100" fill-opacity=".5" d="M91.2 9.3l-3 3.6-6-5 3-3.6z"/><path fill="#90001a" fill-opacity=".5" d="M101 61.7l4.7-4.2 1 1.1-4.6 4.2z"/><path fill="#1e0000" fill-opacity=".5" d="M83.2 21.5l-9 6.2-2.7-4 9-6z"/><path fill="#b4bb80" fill-opacity=".5" d="M105 17l-1.5.3-.8-4.6 1.6-.3z"/><path fill="#791709" fill-opacity=".5" d="M49.9 26l4.3-1.9.6 1.5-4.3 1.8z"/><path fill="#cf8f93" fill-opacity=".5" d="M66.2 26.7L62 24.5l1.5-2.7 4.1 2z"/><path fill="#678940" fill-opacity=".5" d="M103.7 5l.2 1.4-15.4 2.8-.2-1.6z"/><path fill="#7e93a2" fill-opacity=".5" d="M143.8 15.6h-1.5l-.2-7.8h1.6z"/><path fill="#e6e8e9" fill-opacity=".5" d="M320.3 32h48.4v47h-48.4z"/><path fill="#a9b4b8" fill-opacity=".5" d="M158 22.4l-13.9 2-.6-4.6 14-2z"/><path fill="#46370e" fill-opacity=".5" d="M109.2-2.8l6.1 1-1 6.2-6.2-1z"/><path fill="#b49293" fill-opacity=".5" d="M60.2 14v-1.5h3V14z"/><path fill="#54041f" fill-opacity=".5" d="M86.7 39.7l-2 6-7.4-2.6 2-6z"/><path fill="#ceaec3" fill-opacity=".5" d="M74.3 7.7l1.5.5-1.6 4.4-1.5-.5z"/><path fill="#8d8763" fill-opacity=".5" d="M97 15.2l10.9.9-.2 1.6-10.9-1z"/><path fill="#e0e3e2" fill-opacity=".5" d="M113.3 189.8v9.4h-75v-9.4z"/><path fill="#dfc2d2" fill-opacity=".5" d="M73.4 7V4H75v3z"/><path fill="#580919" fill-opacity=".5" d="M49.2 31.8l1.3-.9L71 60.4l-1.3.9z"/><path fill="#4d656b" fill-opacity=".5" d="M42.7 26.7l17.8-40 1.5.7-17.8 40z"/><path fill="#dfe0e1" fill-opacity=".5" d="M175.7 37.2l7.7.8-4.4 42-7.7-.8z"/><path fill="#81a77e" fill-opacity=".5" d="M96 3.8l1.7 6-1.5.5-1.7-6z"/><path fill="#74161d" fill-opacity=".5" d="M59.3 26.5l-.9-1.3 8.8-6.4 1 1.3z"/><path fill="#e6e7e7" fill-opacity=".5" d="M43.8 69.6L-24.3 60l.9-6.2 68 9.6z"/><path fill="#5d1a3a" fill-opacity=".5" d="M116.2 15l-9.7-5.2.8-1.3 9.6 5.1z"/><path fill="#6c6d60" fill-opacity=".5" d="M117.6 87.7L139 62.9l1.2 1-21.6 24.8z"/><path fill="#d4d7db" fill-opacity=".5" d="M262.3 173.6l1.5-.2 3.6 51.5H266z"/><path fill="#dff7d3" fill-opacity=".5" d="M51.2-2.4L45.4 5l-1.2-1 5.7-7.4z"/><path fill="#a01747" fill-opacity=".5" d="M116.8-.5l3 1.1-.7 1.5-2.9-1.2z"/><path fill="#b77a91" fill-opacity=".5" d="M123.9 57.4l-4.2 2-1.4-2.7 4.2-2.1z"/><path fill="#6d5542" fill-opacity=".5" d="M72.9 33.2l1 1.2-10.8 9-1-1.2z"/><path fill="#001c09" fill-opacity=".5" d="M137 53.6l-5.9 5-1-1.2 6-5z"/><path fill-opacity=".5" d="M98.2 56.4l4.4 1.7-2.4 5.8-4.3-1.7z"/><path fill="#562c2d" fill-opacity=".5" d="M48.4 43l2.6-1.7 5.3 7.8-2.6 1.8z"/><path fill="#c0b872" fill-opacity=".5" d="M106.3 26.6h1.5v4.6h-1.5z"/><path fill="#130203" fill-opacity=".5" d="M118.1 68l-1.5-.3 4.3-31 1.6.3z"/><path fill="#034841" fill-opacity=".5" d="M137.3 35.1l.4-9.3h1.5l-.3 9.4z"/><path fill="#d0d2d3" fill-opacity=".5" d="M279.7 79.7v1.5h-70.3v-1.5z"/><path fill="#320104" fill-opacity=".5" d="M67.8 43.9l-3.3 7-5.7-2.6 3.3-7z"/><path fill="#731126" fill-opacity=".5" d="M62.4 56.4l3.5-8.7 1.4.6-3.5 8.7z"/><path fill="#d5d6da" fill-opacity=".5" d="M135.2 147.6v1.6l-87.6-1.5V146z"/><path fill="#8e5076" fill-opacity=".5" d="M84.2 29.7l.3 7.8H83l-.2-7.8z"/><path fill="#050000" fill-opacity=".5" d="M83.6 46h3.1v3.2h-3.1z"/><path fill="#80947a" fill-opacity=".5" d="M130.3 52.8l.3 1.5-3 .7-.4-1.5z"/><path fill="#f4f6f9" fill-opacity=".5" d="M271.8 107l16 21.2-55 41.4-15.9-21.2z"/><path fill="#6b9889" fill-opacity=".5" d="M142.5 49.2h-1.6l-.5-15.6h1.5z"/><path fill="#385c1f" fill-opacity=".5" d="M96 66.7l-.7-1.3 4-2.5.8 1.4z"/><path fill="#326759" fill-opacity=".5" d="M68.2 72.6l-8-11.5 1.3-.9 8 11.5z"/><path fill="#5a1228" fill-opacity=".5" d="M119 37.3l-1.5-4.4 8.8-3 1.6 4.4z"/><path fill="#758f39" fill-opacity=".5" d="M55.7 31.4L53.8 27l1.4-.7 2 4.3z"/><path fill="#7a5037" fill-opacity=".5" d="M58 41.9l1.3-7.7 3 .5-1.3 7.7z"/><path fill="#eff0f2" fill-opacity=".5" d="M231.3 96h-45.4v-9.3h45.3z"/><path fill="#b0d3d2" fill-opacity=".5" d="M43 55.4L53.5 67l-1.2 1-10.5-11.6z"/><path fill="#eff2f8" fill-opacity=".5" d="M262.8 165.5l-6 33.9-40-7 6-34z"/><path fill="#2c0100" fill-opacity=".5" d="M104.7 24.7l-.2 1.5-23.3-2.4.2-1.6z"/><path fill="#cc92a6" fill-opacity=".5" d="M130.5 7.8l1.8-2.5 1.3 1-1.9 2.4z"/><path fill="#101202" fill-opacity=".5" d="M106.4 22.9l1.1-1 6.4 6.8-1.1 1z"/><path fill="#d3d3d8" fill-opacity=".5" d="M288.3 8.8L287 4.3l7.5-2.2 1.3 4.5z"/><path fill="#e0e2e3" fill-opacity=".5" d="M218.7 210.2l-48 6-3.5-28 48-5.9z"/><path fill="#690e1f" fill-opacity=".5" d="M124.6 43.6l15.2 3.5-.3 1.5-15.3-3.5z"/><path fill="#7e1d32" fill-opacity=".5" d="M84.9 5.6l-5.7-2.5 3.1-7.2L88-1.5z"/><path fill="#e0e1e3" fill-opacity=".5" d="M275.4 221.2l-11.3-24 49.6-23.1 11.2 24z"/><path fill="#496328" fill-opacity=".5" d="M77.6 56.3h1.6l1 14h-1.6z"/><path fill="#471e20" fill-opacity=".5" d="M140 11.2l1.5.7-5 9.7-1.4-.7z"/><path fill="#c6aeb2" fill-opacity=".5" d="M107.8 59.7l-2-2.4 3.6-3 2 2.4z"/><path fill="#444a3c" fill-opacity=".5" d="M139.2 50l-1.4-.5 2.6-7.3 1.5.5z"/><path fill="#4d5523" fill-opacity=".5" d="M104.8 26.1l3-10.5 1.5.5-3 10.5z"/><path fill="#54000c" fill-opacity=".5" d="M52.3 23.9l.5-1.5 5.9 2.2L58 26z"/><path fill="#eaf8f3" fill-opacity=".5" d="M93.8 83.4l-.1 1.6-14-1.2v-1.6z"/><path fill="#a8a8a9" fill-opacity=".5" d="M157.3 69.3l-3 1-6.9-22.5 3-.9z"/><path fill-opacity=".5" d="M71.6 36.6l1.1 1-2.1 2.4-1.1-1.1z"/><path fill="#7a6a57" fill-opacity=".5" d="M127.9 23.5l-2.4-4 1.3-.8 2.4 4z"/><path fill="#e2e7e7" fill-opacity=".5" d="M153.8-5l2.8 10.6-15 4-3-10.5z"/><path fill="#780932" fill-opacity=".5" d="M86.5 11.9l1.2 1-3.9 4.9-1.2-1z"/><path fill="#c7cbc8" fill-opacity=".5" d="M85.3 108.4l-7.7 1.5-5-26.1 7.6-1.5z"/><path fill="#8a7665" fill-opacity=".5" d="M88.3 50.1l2.2 2.2-2.2 2.3-2.2-2.3z"/><path fill="#3b8b7a" fill-opacity=".5" d="M118 72v-1.6l3-.2.1 1.6z"/><path fill="#eef2f2" fill-opacity=".5" d="M42.1 63.6l-7.6 1.8L28.2 38l7.6-1.8z"/><path fill="#e5e8eb" fill-opacity=".5" d="M111 139.9v-1.6l89 4.7-.1 1.5z"/><path fill="#250404" fill-opacity=".5" d="M114.3 14.2l1-1.1L128 24.8l-1 1.2z"/><path fill="#e6e9e8" fill-opacity=".5" d="M65.6 74.6v4.7l-45.2.8-.1-4.7z"/><path fill="#353942" fill-opacity=".5" d="M73.8-14.1l1.4.8-19.3 32.1-1.4-.8z"/><path fill="#46232b" fill-opacity=".5" d="M123.1 60.4l1-3 7.4 2.6-1 3z"/><path fill="#411d16" fill-opacity=".5" d="M102.1 52.2l.3 1.5-12.4 2-.2-1.6z"/><path fill="#512833" fill-opacity=".5" d="M124.4 55.7l-1.4.7-2-4.3 1.3-.6z"/><path fill="#520a14" fill-opacity=".5" d="M94-21.1L71.5 23.4l-1.4-.7 22.7-44.5z"/><path fill="#d8dbdf" fill-opacity=".5" d="M81 129l2.4-9 55.9 15-2.4 9z"/><path fill="#821f35" fill-opacity=".5" d="M126.2 4.8l10.6-9.2 1 1.2L127.3 6z"/><path fill="#aeafb3" fill-opacity=".5" d="M123.5 106.5l-.4 1.5-45-13 .4-1.4z"/><path fill="#e6e8ea" fill-opacity=".5" d="M194.3 181.7l-64 2.2-1.2-32.8 64-2.2z"/><path fill="#dfe0e1" fill-opacity=".5" d="M57 84l18.5 2.9-5.9 37-18.5-3z"/><path fill="#080400" fill-opacity=".5" d="M79.2 57.3l1.4-.8 4.2 6.5-1.3.9z"/><path fill="#b66377" fill-opacity=".5" d="M69.4 55.2l-4-4.7 1.1-1 4.1 4.7z"/><path fill="#b3b9bb" fill-opacity=".5" d="M141.4 143.4v1.6l-40.6.7V144z"/><path fill="#46230e" fill-opacity=".5" d="M69.6 54.5l-1.3-1 4.3-6.4 1.3.9z"/><path fill="#2c0200" fill-opacity=".5" d="M135.1 20.4l-.5 1.5-8.8-3.2.5-1.5z"/><path fill="#41030b" fill-opacity=".5" d="M107.7 43l1.4.4-2.7 9-1.5-.5z"/><path fill="#8f8b8c" fill-opacity=".5" d="M131.4 96.9l-1.5-.4 2.8-10.6 1.5.4z"/><path fill="#205006" fill-opacity=".5" d="M65.1 30.8l-6.1.9-.7-4.7 6.2-.8z"/><path fill="#000900" fill-opacity=".5" d="M92.7 34.5l-1.4-.7 2-4.2 1.4.6z"/><path fill="#908b68" fill-opacity=".5" d="M74.2 64.5l-1.2-1 4.4-4.6 1.1 1.1z"/><path fill="#291603" fill-opacity=".5" d="M105.1 41.3l-3.8-8.5 1.4-.7 3.8 8.6z"/><path fill="#1e1100" fill-opacity=".5" d="M109.4 14h-14v-1.5h14z"/><path fill="#a7b887" fill-opacity=".5" d="M109.3 5.5l-4.7-.1.1-3.1 4.7.1z"/><path fill="#471e28" fill-opacity=".5" d="M103.4 74l6.6-8.7 3.8 2.8-6.6 8.8z"/><path fill="#0a1300" fill-opacity=".5" d="M100.3-4.3l1.5-.4 2.6 10.6-1.5.4z"/><path fill="#d6d7d8" fill-opacity=".5" d="M-25 142.8l73.4-1.3v1.6l-73.4 1.3z"/><path fill="#24190b" fill-opacity=".5" d="M60.4 37.5L52 41.8 50.6 39l8.3-4.2z"/><path fill="#4e7b7c" fill-opacity=".5" d="M41.8 28.2l3.8 10.3-1.5.5-3.7-10.3z"/><path fill="#1a0000" fill-opacity=".5" d="M62 12.9l-.4-1.5 3-.9.4 1.5z"/><path fill="#440915" fill-opacity=".5" d="M69.7 30.7l-4.2-2.2.8-1.4 4.1 2.2z"/><path fill="#bb9090" fill-opacity=".5" d="M120.4 24.2l-2.6-1.8.9-1.3 2.6 1.8z"/><path fill="#430f12" fill-opacity=".5" d="M58.4 52.9l-7.1 3.2-2-4.3 7.2-3.2z"/><path fill="#719260" fill-opacity=".5" d="M128.6 28.8l1.5.4-.8 3-1.6-.4z"/><path fill="#acbc83" fill-opacity=".5" d="M99.6 28.9l1-1.2 4.5 4.4-1 1.1z"/><path fill="#afafb3" fill-opacity=".5" d="M148.6 21.5l-.2-1.5 20.2-2.5.2 1.6z"/><path fill="#dcdedf" fill-opacity=".5" d="M222.7 15.6h65.6v1.6h-65.6z"/><path fill="#e9eaee" fill-opacity=".5" d="M299.2 77.3V43h12.5v34.3z"/><path fill="#6f9b7c" fill-opacity=".5" d="M97.1 7.3l5.6 2.9-1.4 2.8-5.6-2.9z"/><path fill="#c0c4c9" fill-opacity=".5" d="M145 75.9l21.3 4.5-.3 1.5-21.4-4.5z"/><path fill="#86a6a8" fill-opacity=".5" d="M43.4 14.6l.8-3 1.5.4-.8 3z"/><path fill="#c2c3c6" fill-opacity=".5" d="M147.8 33.4l19.8 37.2-1.4.7-19.8-37.2z"/><path fill="#e2e4e6" fill-opacity=".5" d="M296 121.3l30.9-4.9 3.6 23.2-30.8 4.9z"/><path fill="#a8c68d" fill-opacity=".5" d="M94.6 26.4l3.1.3-.1 1.6-3.1-.3z"/><path fill="#c389aa" fill-opacity=".5" d="M132.1 39.6l-1.9 4.3-1.4-.7 2-4.3z"/><path fill="#a49183" fill-opacity=".5" d="M117.6 24.5l.5 1.5-2.9 1-.5-1.4z"/><path fill="#788881" fill-opacity=".5" d="M105.5 76.4l3.2.3-.2 1.6-3-.3z"/><path fill="#7d313e" fill-opacity=".5" d="M139.6 36.5l-8 4.9-.9-1.4 8-4.8z"/><path fill="#4f0010" fill-opacity=".5" d="M71.8 5.3l1.6 9.2-3 .5-1.7-9.2z"/><path fill="#420000" fill-opacity=".5" d="M88.8 8.8l-10.7-2 .3-1.6L89 7.3z"/><path fill="#8c8a88" fill-opacity=".5" d="M83.7 88l-.1-1.6 12.4-.9.1 1.6z"/><path fill="#779b9a" fill-opacity=".5" d="M58.7-10.9l1.3.8-14 22.6-1.4-.9z"/><path fill="#c6eed6" fill-opacity=".5" d="M147.2 36l-4 8.4-1.4-.6 4-8.5z"/><path fill="#50101c" fill-opacity=".5" d="M93.5 26.6L89 22.3l6.5-6.7 4.5 4.3z"/><path fill="#82000c" fill-opacity=".5" d="M113 64.3l-6.2-.5.4-4.7 6.3.6z"/><path fill="#230000" fill-opacity=".5" d="M80.6 53.5l-2.4 2-1-1.2 2.4-2z"/><path fill="#1a0800" fill-opacity=".5" d="M103.1 10.9V9.3l4.7.2V11z"/><path fill="#68323a" fill-opacity=".5" d="M73.1 28l4.5-1.2.9 3L74 31z"/><path fill="#aeb0b4" fill-opacity=".5" d="M106.7 103l31-4.4.9 6.2-31 4.4z"/><path fill="#625c3a" fill-opacity=".5" d="M90.5 50.6l-9.7 7.8-1-1.2 9.7-7.8z"/><path fill="#591024" fill-opacity=".5" d="M130.4 3l.1-1.5 6.2.2v1.5z"/><path fill="#3d2011" fill-opacity=".5" d="M61.6 16l1 1.2-3.9 2.8-.9-1.3z"/><path fill="#400e17" fill-opacity=".5" d="M126.8 62l-1 3-10.4-3.6 1-3z"/><path fill="#462120" fill-opacity=".5" d="M95.7 68.4l14 7.1-.7 1.4-14-7z"/><path fill="#d07690" fill-opacity=".5" d="M70.8 24.6l-1.1 3-1.5-.6 1.2-3z"/><path fill="#cfced0" fill-opacity=".5" d="M149.3 17.8l-.1-1.5 25-1.3v1.5z"/><path fill="#c2c3c7" fill-opacity=".5" d="M312.3 69.2l3.9-2.7 4.3 6.5-3.9 2.6z"/><path fill="#ccccd1" fill-opacity=".5" d="M167.8 127l6.7 6.6-3.2 3.4-6.8-6.5z"/><path fill="#d0e7e6" fill-opacity=".5" d="M142.7 53.5L132 64.8l-1.2-1.1 10.9-11.3z"/><path fill="#d4d8db" fill-opacity=".5" d="M132.4 123.7L173.5 98l5 8-41 25.7z"/><path fill="#7a9a9e" fill-opacity=".5" d="M144.2 8.6l-1 28.1h-1.5l1-28.1z"/><path fill="#949698" fill-opacity=".5" d="M143.5 71.5l2.1-20.2 6.2.6-2.1 20.2z"/><path fill="#7d704e" fill-opacity=".5" d="M68.9 46.9l3-5.5 1.4.8-3 5.4z"/><path fill="#0c0300" fill-opacity=".5" d="M99.3 75.4l-5.8 2.2-.6-1.4 5.8-2.3z"/><path fill="#bcbebf" fill-opacity=".5" d="M366.6 142.6l-2.5 2-1-1.3 2.5-2z"/><path fill="#69733e" fill-opacity=".5" d="M101 26.4l3 .4-.2 1.5-3.1-.4z"/><path fill="#dff6f2" fill-opacity=".5" d="M74.2 79.5v1.6l-6.2.3V80z"/><path fill="#617848" fill-opacity=".5" d="M94 1.3l8.3 7.2-1 1.1L93 2.5z"/><path fill="#4a4b37" fill-opacity=".5" d="M93 72.9l-15.6 1v-1.5l15.5-1z"/><path fill="#255927" fill-opacity=".5" d="M58.2 34l-.4-1.6 7.4-2.3.5 1.5z"/><path fill="#2e5430" fill-opacity=".5" d="M138.4 50.5l-2.5 1.8-.9-1.2 2.5-1.9z"/><path fill="#2b585e" fill-opacity=".5" d="M88.2 78.8l9.3-1.3.2 1.5-9.3 1.3z"/><path fill="#395749" fill-opacity=".5" d="M51 2.7l10.5 2.6-1.5 6-10.6-2.6z"/><path fill="#d5d7d9" fill-opacity=".5" d="M420.2 153.7v1.5L315.6 148l.1-1.5z"/><path fill="#cbcfd2" fill-opacity=".5" d="M98.5 109l32 7.3L128 127l-32-7.4z"/><path fill="#dadde0" fill-opacity=".5" d="M145.1 27.1l5-6 15.7 12.7L161 40z"/><path fill="#e4e6e7" fill-opacity=".5" d="M211 98.4h29.6V122H211z"/><path fill="#384e4a" fill-opacity=".5" d="M51.6 47.3l-6-11 1.3-.7 6 10.9z"/><path fill="#bec0c1" fill-opacity=".5" d="M427.4 19.7l-.1 1.6-56.2-2v-1.5z"/><path fill="#6d6457" fill-opacity=".5" d="M139 36.7l1 1.2-2.4 2-1-1.2z"/><path fill="#7f0018" fill-opacity=".5" d="M130.1 7.4l-1 6.2-4.6-.7 1-6.2z"/><path fill="#9a8d46" fill-opacity=".5" d="M49.9 27.3l4.5-1.4.4 1.5-4.5 1.4z"/><path fill="#edeff0" fill-opacity=".5" d="M297 39l-58.6 17-2.6-9 58.6-17z"/><path fill="#a0ad7b" fill-opacity=".5" d="M93 3.4l-.2 1.5-3-.4.2-1.6z"/><path fill="#982b3f" fill-opacity=".5" d="M69.6 22.7l-9.3 1.5-.2-1.6 9.3-1.4z"/><path fill="#5a8e47" fill-opacity=".5" d="M79.7 68.6V67l11 .4-.1 1.5z"/><path fill="#001300" fill-opacity=".5" d="M108.8 18.4l3 .8-.3 1.5-3-.8z"/><path fill="#121d02" fill-opacity=".5" d="M83.6 76.3l-.8-1.3 16.4-9.1.8 1.3z"/><path fill="#290000" fill-opacity=".5" d="M122.8 6l4.6-8.1 1.3.7-4.5 8.2z"/><path fill="#866667" fill-opacity=".5" d="M102.1 66.2l1.4-.7 2.2 4.2-1.4.7z"/><path fill="#5c0721" fill-opacity=".5" d="M77.6 38.3l-2-9.1 1.5-.3 2 9z"/><path fill="#660311" fill-opacity=".5" d="M124.7 40.4l9.6 10.3-1.2 1-9.6-10.2z"/><path fill="#6b223f" fill-opacity=".5" d="M68.7 51.8l1.3-1 3.5 5.3-1.3.8z"/><path fill="#a04b5a" fill-opacity=".5" d="M107.3 55l-.4-1.4 3-.9.4 1.6z"/><path fill="#e2faf4" fill-opacity=".5" d="M104 82.7l-3.1.2-.2-1.5 3.1-.3z"/><path fill="#eff1f4" fill-opacity=".5" d="M37.8 17.3l-76.3-6.6 2.3-26.5L40.1-9z"/><path fill="#efeff0" fill-opacity=".5" d="M19 83l1 11-31.2 2.7-1-11z"/><path fill="#1c0402" fill-opacity=".5" d="M89 39.4v-1.6l36-.6v1.5z"/><path fill="#99c4bb" fill-opacity=".5" d="M97.7 81.6V83L85 82.5l.1-1.6z"/><path fill="#7f817f" fill-opacity=".5" d="M107.8 87.5h20.3v7.8h-20.3z"/><path fill="#000600" fill-opacity=".5" d="M105.4 39.3l.8-1.3 15 8.6-.9 1.3z"/><path fill="#656354" fill-opacity=".5" d="M128.5 77.4l-.9 4.6-7.7-1.5 1-4.6z"/><path fill="#98a994" fill-opacity=".5" d="M43.1-3l1.4-.7L49 4.5l-1.3.8z"/><path fill="#b8bbbb" fill-opacity=".5" d="M46.5 85l-.3-1.5L67.6 79l.3 1.5z"/><path fill="#eef1f6" fill-opacity=".5" d="M233 155.5l31.3 1.6-2 39-31.3-1.6z"/><path fill="#c4c7c8" fill-opacity=".5" d="M319.3 178.2l-1.4-.6 1.8-4.3 1.5.6z"/><path fill="#52302d" fill-opacity=".5" d="M104.1 69.1l-.8-1.3 6.6-4.1.9 1.3z"/><path fill="#553624" fill-opacity=".5" d="M102.2 34l4.5 4.3-1 1.1-4.6-4.2z"/><path fill="#4b1c24" fill-opacity=".5" d="M113.3 26.4l9.4.3v1.6l-9.4-.3z"/><path fill="#1f0200" fill-opacity=".5" d="M106.3-16.1L124.8 20l-1.4.7-18.5-36.2z"/><path fill="#3f0006" fill-opacity=".5" d="M70.2 32.2L77 21.6l1.3.9L71.6 33z"/><path fill="#4f0100" fill-opacity=".5" d="M65.7 45.2l1-1.2 3.6 3-1 1.2z"/><path fill="#30080d" fill-opacity=".5" d="M67 .9l4.4-1.7.6 1.5-4.4 1.7z"/></svg>