<svg xmlns="http://www.w3.org/2000/svg" viewBox="0 0 400 200"><path fill="#d2d2d3" d="M0 0h400v200H0z"/><path fill-opacity=".5" d="M44.5-8.7l101.6 1.8-1.6 89L43 80.4z"/><path fill="#2f0000" fill-opacity=".5" d="M112.6 90.8L38.8 53.3l37.6-73.8L150.2 17z"/><path fill="#f7fbfd" fill-opacity=".5" d="M396.9 198.4H164V0h232.8z"/><path fill="#f5fafd" fill-opacity=".5" d="M-1.7-4.6l174.8 208.3L84.5 278-90.3 69.7z"/><path fill="#838e8b" fill-opacity=".5" d="M78 94.2l74.4-43 18 31.2-74.4 43z"/><path fill="#f7fdff" fill-opacity=".5" d="M21.2-48l43.2 18.3-40.3 95-43.2-18.4z"/><path fill="#738078" fill-opacity=".5" d="M138.6 79.8l-.7 18.8-53-1.9.6-18.7z"/><path fill="#410302" fill-opacity=".5" d="M110.4 79L87.5 69l31.8-71.4 22.9 10.2z"/><path fill="#fcffff" fill-opacity=".5" d="M212.7 128.3l71-24.4 23.9 69.4-71 24.4z"/><path fill="#d0dfde" fill-opacity=".5" d="M141.5 53.4L139.8-45l29.7-.6 1.7 98.5z"/><path fill="#d5d7d9" fill-opacity=".5" d="M302.3 78.1h109.4v170.3H302.3z"/><path fill="#dcdee1" fill-opacity=".5" d="M-27.2 45l20.7-25.5 138.4 112-20.7 25.6z"/><path fill="#4f2f25" fill-opacity=".5" d="M52.2-.8L88 10.8 74.4 52.4 38.7 40.8z"/><path fill="#bbc9c6" fill-opacity=".5" d="M53.6 128.7l109-91.4 1 1.2-109 91.4z"/><path fill="#3f0711" fill-opacity=".5" d="M122.1 28.6l21 18.8L120 73 99 54z"/><path fill="#d8fffa" fill-opacity=".5" d="M84.8 88.6l-.5-1.5 35.6-11.6.5 1.5z"/><path fill="#a1a3a7" fill-opacity=".5" d="M-76.6 144.5h286v3.2h-286z"/><path fill="#322209" fill-opacity=".5" d="M99.3 76.7l-31.1 2.7-3.4-38.9 31-2.7z"/><path fill="#dddfe4" fill-opacity=".5" d="M166.7 54.3l38.2 14-48.1 132-38.2-13.8z"/><path fill="#fffdff" fill-opacity=".5" d="M158-17.6l14.6 20.2L150 19.2 135.2-1.1z"/><path fill="#939596" fill-opacity=".5" d="M424.2 144.2v1.6L302.4 148v-1.5z"/><path fill="#91978d" fill-opacity=".5" d="M134 86.3l7.2-51 13.9 1.9-7.2 51z"/><path fill="#56a3a5" fill-opacity=".5" d="M44.5 19.9l4.6 29.3-7.7 1.2-4.6-29.3z"/><path fill="#87d97d" fill-opacity=".5" d="M92.6 3.3l9.8 5-2.9 5.6-9.7-5z"/><path fill="#6d6b64" fill-opacity=".5" d="M96.4 89.7l42.3-16.2 4 10.2-42.4 16.2z"/><path fill="#a5a7a8" fill-opacity=".5" d="M139 83.5L400 79v1.5l-261 4.6z"/><path fill="#eceef0" fill-opacity=".5" d="M20.3.7L75.6 125l-44.3 19.7L-24 20.4z"/><path fill="#ad334e" fill-opacity=".5" d="M91.7 44.4l5-6L116 54l-5 6.1z"/><path fill="#998e6e" fill-opacity=".5" d="M98.4 29.8l.2-1.5 32.7 2.8-.2 1.6z"/><path fill-opacity=".5" d="M120.5 32.5l3.8 16.7-18.2 4.3-3.9-16.8z"/><path fill="#eff1f2" fill-opacity=".5" d="M183.9 81.4L171.7-5.2l86.6-12.2 12.2 86.7z"/><path fill="#3f0b07" fill-opacity=".5" d="M70 13.6l42.1-2.2.7 14-42 2.3z"/><path fill="#a1b3b0" fill-opacity=".5" d="M-3.8 84.6L-4 83l103-3.5.1 1.5z"/><path fill="#e284ac" fill-opacity=".5" d="M129.3 45.8l-3.3-3.4 5.7-5.4 3.2 3.4z"/><path fill="#b01940" fill-opacity=".5" d="M127.3 11.6L129 .8l11 1.7-2 10.8z"/><path fill="#b86483" fill-opacity=".5" d="M89.6 34.5l-.7 1.4L62 23.3l.7-1.4z"/><path fill="#4a9787" fill-opacity=".5" d="M72.7 81.9l-24-22.4 2-2.3 24 22.4z"/><path fill="#c0c4c9" fill-opacity=".5" d="M91.6 131.6l80.2-67.3 10 12-80.2 67.2z"/><path fill="#afb1b2" fill-opacity=".5" d="M496.9 21H176.6v-3h320.3z"/><path fill="#450007" fill-opacity=".5" d="M72.7-35.2L94.2 35l-6 1.8-21.5-70.2z"/><path fill="#a3b0b4" fill-opacity=".5" d="M-15.6 19.2v-1.5l61 2.1-.1 1.6z"/><path fill="#dac3e4" fill-opacity=".5" d="M80.5 38.8l-1.3-.8 4.4-6.5 1.3.9z"/><path fill="#e7e8ea" fill-opacity=".5" d="M119 148.2l103 3.6-1.9 54.7-103-3.6z"/><path fill="#29120f" fill-opacity=".5" d="M130.3 10.3l13.5 3.8-6.9 24-13.5-3.8z"/><path fill="#ce8bac" fill-opacity=".5" d="M74.6 12.4l-1.4-.5 3.7-10.3 1.5.6z"/><path fill="#afd980" fill-opacity=".5" d="M92.7 27.4l.7-1.4 15.4 7.5-.6 1.4z"/><path fill="#6b7d46" fill-opacity=".5" d="M102.8-.7L112 1l-3.9 20-9.2-1.9z"/><path fill="#987b6d" fill-opacity=".5" d="M85.2 18v-1.5l24.9-1.7v1.5z"/><path fill="#260000" fill-opacity=".5" d="M60.8 46.4l11.4 16.9-6.5 4.3-11.3-16.8z"/><path fill="#cbdfd8" fill-opacity=".5" d="M123.4 76.6l-1.2-1 37.2-44.3 1.2 1z"/></svg>