<svg xmlns="http://www.w3.org/2000/svg" viewBox="0 0 400 200"><path fill="#494949" d="M0 0h400v200H0z"/><path fill="#bfbfbf" fill-opacity=".5" d="M232.2 140.4L85.5 109.2l18.2-85.6 146.7 31.2z"/><path fill-opacity=".5" d="M410 120.4L275 71.2l38.4-105.7 135.1 49.2zM123 96l-43.9 48.7L-68.3 11.9l43.9-48.8zm11.8-135.6L229 6.3l-24.7 50.5-94-45.9z"/><path fill="#aeaeae" fill-opacity=".5" d="M39-8l42.3-29.6 103 147.2-42.2 29.6z"/><path fill="#929292" fill-opacity=".5" d="M55.8 183l87-61 65.5 93.5-87 61z"/><path fill-opacity=".5" d="M252 183.4l-31.8-27.7 54.3-62.5 31.9 27.7z"/><path fill="#a2a2a2" fill-opacity=".5" d="M189.7 51.3l147-91.9 15.8 25.2-147 92z"/><path fill-opacity=".5" d="M472 38.5l-48.3 94.7-125.3-63.9 48.2-94.6z"/><path fill="#bebebe" fill-opacity=".5" d="M313.8 84.8l57.5 24.4-8.5 20.1-57.6-24.4z"/><path fill="#767676" fill-opacity=".5" d="M-.6 119.3l-5.6-21.1 117.7-31.6 5.7 21.2z"/><path fill-opacity=".5" d="M214.7 84l-45.1 3.9-1.5-17.1 45.1-4zm-86.3-46l-7.5-60.4 114.8-14.1 7.4 60.5zM339 43.4l-5.2 43.4L253 77l5.3-43.4zM-3.8-47.1L63 64.1 5.4 98.7-61.4-12.5z"/><path fill="#7b7b7b" fill-opacity=".5" d="M263.9 182.1l57.5-63.9 56.9 51.3-57.5 63.8z"/><path fill="#ccc" fill-opacity=".5" d="M143.3 118.5L117.7 107 152 30l25.7 11.4z"/><path fill="#b1b1b1" fill-opacity=".5" d="M249.1 106l-37.5-65 19-11L268 95z"/><path fill-opacity=".5" d="M102.3 142.8l-11.6-40.5 21-6 11.7 40.5zm81 16.7l-2.4-12.3 90.5-17.6 2.4 12.3zM-.6 83l-1.8-34.4 95.2-5L94.6 78zm184.4-27.6l-24-32.8 92.4-67L276-11.7z"/><path fill="#5f5f5f" fill-opacity=".5" d="M161 153.1l-9.1-42.7 85.6-18.2 9 42.8z"/><path fill="#505050" fill-opacity=".5" d="M233.2 40.8l118.3-60.3 10.6 20.9-118.3 60.3z"/><path fill-opacity=".5" d="M58.9 226.1l-37.3-40 14.8-13.8 37.3 40z"/><path fill="#686868" fill-opacity=".5" d="M49.3 187l-26.6-46 51.4-29.6 26.6 46z"/><path fill-opacity=".5" d="M283.1 75.9L299.6 22 434 63l-16.4 54z"/><path fill="gray" fill-opacity=".5" d="M-14.4-18.1l26-37.1L141 35.3l-26 37.1z"/><path fill="#c3c3c3" fill-opacity=".5" d="M156.4 132l-1.4-4.4 77.7-23.8 1.4 4.5z"/><path fill="#7e7e7e" fill-opacity=".5" d="M353.4 98l104.8 55.7-13.2 24.9-104.8-55.8z"/><path fill-opacity=".5" d="M141.4 145l1-4.5 42.7 9.8-1 4.6zM40 113.4l1.2 17.1-20.3 1.4-1.2-17.1zM388.9 179l-26.6-33 9.8-7.8 26.5 32.8z"/><path fill="#b4b4b4" fill-opacity=".5" d="M223.5 130.2l.8 4.7-52.5 8.3-.7-4.6z"/><path fill="#929292" fill-opacity=".5" d="M187.1 160.1l-6.8 22.4-62.8-19.2 6.9-22.4z"/><path fill="#c9c9c9" fill-opacity=".5" d="M242.6 56.3l6 7.2-49 41.1-6-7.1z"/><path fill="#828282" fill-opacity=".5" d="M334 90.5l-3.6 18.4-69-13.4 3.5-18.4z"/><path fill-opacity=".5" d="M251 40.6L305.8 71l-8.3 15-54.7-30.3zm-108-5.3L103.5 2.2l30.1-36L173.1-.5z"/><path fill="#090909" fill-opacity=".5" d="M401 200.7l-90.6 4.8-.4-7.8 90.5-4.8z"/><path fill-opacity=".5" d="M260.8 121.2l24.2 40.2-16.1 9.6-24.2-40.2z"/><path fill="#a9a9a9" fill-opacity=".5" d="M249.2 25.3l-57.9 45.2-7.7-9.8 57.9-45.3z"/><path fill="#979797" fill-opacity=".5" d="M303 192l-26-17.5 12.3-18 25.9 17.4z"/><path fill-opacity=".5" d="M3.4-25l52.4 90.6L4.4 95.3-48 4.7z"/><path fill="#4e4e4e" fill-opacity=".5" d="M106 87L82 56.4l13.5-10.6 24 30.8z"/><path fill="#3c3c3c" fill-opacity=".5" d="M97 94.8l16.6 85.9-21.5 4.2-16.7-86z"/><path fill="#afafaf" fill-opacity=".5" d="M402 143l.7 43.7h-6.2l-.8-43.7z"/><path fill-opacity=".5" d="M280 103.3l29 6.2-3 13.7-29-6.1z"/><path fill="#484848" fill-opacity=".5" d="M357.9 179.3l-13 13.5-73.1-70.6 13-13.4z"/><path fill="#272727" fill-opacity=".5" d="M227 119.3l1.6 9.3-38.4 6.8-1.7-9.3z"/><path fill="#5e5e5e" fill-opacity=".5" d="M207 227.5L150.7 188l25-35.8 56.4 39.4z"/><path fill="#060606" fill-opacity=".5" d="M208.2 77.8l-.8 11-35.9-2.6.8-10.9z"/><path fill="#ececec" fill-opacity=".5" d="M127.1 124l17.6 10.2-1.5 2.7-17.6-10.2z"/><path fill="#3d3d3d" fill-opacity=".5" d="M371.5 35.6l11.7-24 28 13.8-11.6 23.9z"/><path fill="#bbb" fill-opacity=".5" d="M136.8 69.5l-5.6-29.1 43-8.4 5.6 29.2z"/><path fill="#181818" fill-opacity=".5" d="M249.6 87.8L205.9 112l-.8-1.3 43.7-24.3z"/><path fill-opacity=".5" d="M217.4 28.2l-32 25-35.6-45.5 32-25z"/><path fill="#787878" fill-opacity=".5" d="M71.2 76.7l3.4 13.7-38 9.4-3.3-13.6z"/><path fill-opacity=".5" d="M364.7 8.6L402.1 79l-49.6 26.4L315 35.1z"/><path fill="#727272" fill-opacity=".5" d="M184.7 109.8l-2.9 1.3-33.7-75.6 2.9-1.3z"/><path fill-opacity=".5" d="M171.8 144.6l-8.7 3.5-5.2-13 8.7-3.5z"/><path fill="#9c9c9c" fill-opacity=".5" d="M260.2 110.2l-32.8 21.3-1.7-2.6 32.8-21.3z"/><path fill="#616161" fill-opacity=".5" d="M213.8 55.9l3.8 15.2L169 83l-3.7-15z"/><path fill-opacity=".5" d="M170.8 31.8l-32.5 4.6-7.6-54.2 32.5-4.5z"/><path fill="#212121" fill-opacity=".5" d="M155.8 116.2l2-5.9 19.2 6.3-1.9 6z"/><path fill-opacity=".5" d="M71.6 71.8L33.2 85 17.4 39.2 56 26z"/><path fill="#7b7b7b" fill-opacity=".5" d="M342.8 187.2l71.3-8.7 1 7.7-71.4 8.8z"/><path fill="#a5a5a5" fill-opacity=".5" d="M182.2 119.8L263.3 87l3 7.3L185 127z"/><path fill="#ababab" fill-opacity=".5" d="M182.3 60.5L198 43.1l15 13.6L197.4 74z"/><path fill="#959595" fill-opacity=".5" d="M36.4-22.3l71.7 41.4-11.7 20.3L24.7-2z"/><path fill="#868686" fill-opacity=".5" d="M308-31.2l9.1 12.6-92.2 67-9.2-12.6z"/><path fill="#111" fill-opacity=".5" d="M122.7 143.9L90 122.6l7.7-11.8 32.8 21.3z"/><path fill="#5f5f5f" fill-opacity=".5" d="M304 34.1l-23.7-22.8 42.3-43.8 23.6 22.8z"/><path fill="#131313" fill-opacity=".5" d="M184.2 113.9l42-12 .5 1.4-42 12z"/><path fill-opacity=".5" d="M304.9-52l9.8 14.1-130.5 91.4-9.9-14z"/><path fill="#7a7a7a" fill-opacity=".5" d="M332.7 134.8l43.8 27.3-10.8 17.2L322 152z"/><path fill="#a8a8a8" fill-opacity=".5" d="M134.7 204.7l-2.2 5.8-43.8-16.8L91 188z"/><path fill="#b6b6b6" fill-opacity=".5" d="M164.1 112.4l70.8-46 2.5 4-70.7 46z"/><path fill="#6d6d6d" fill-opacity=".5" d="M292.9 129.1l32.4 21.9-16.6 24.6-32.4-21.9z"/><path fill-opacity=".5" d="M60 201.2L47.7 211 29 188l12.2-10z"/><path fill="#8c8c8c" fill-opacity=".5" d="M62.8 138l-19.2 20.5-8-7.4 19.2-20.6z"/><path fill="#2b2b2b" fill-opacity=".5" d="M320 183.9l2.3-32.7 12.4.8-2.3 32.8z"/><path fill="#2f2f2f" fill-opacity=".5" d="M273.7 161.7l-4.6 26.2-60-10.6 4.6-26.1z"/><path fill-opacity=".5" d="M279.6 120l.2-10.9 26.5.5-.1 11z"/><path fill="#9b9b9b" fill-opacity=".5" d="M122.6 32l14 88-17 2.7-14-88z"/><path fill-opacity=".5" d="M63.1 61L106 80l-2 4.3-42.8-19zm283.4 83.2l-.8-11 12.5-.8.8 10.9z"/><path fill="#727272" fill-opacity=".5" d="M272.4 121.7l54.2 6.6-.5 4.7-54.3-6.7z"/><path fill-opacity=".5" d="M269.4 40.3l55.6 8.8-5.4 34-55.5-8.8z"/><path fill="#505050" fill-opacity=".5" d="M54.4 32l7.4-10 35.4 25.6-7.4 10.2z"/><path fill="#adadad" fill-opacity=".5" d="M158 153.8l-3.9 10.3L128 154l3.9-10.2z"/><path fill="#c4c4c4" fill-opacity=".5" d="M127.8 91.6l-8.4-4 23-49.5 8.6 4z"/><path fill-opacity=".5" d="M360.5 88.7L375.9 71l59 51.3-15.5 17.6z"/><path fill="#4d4d4d" fill-opacity=".5" d="M366 115.4l6.1-1.5 10.3 41-6.1 1.5z"/><path fill="#7b7b7b" fill-opacity=".5" d="M105.8 89.5L53.3 98 52 90l52.4-8.3z"/><path fill="#303030" fill-opacity=".5" d="M212.9 146l22.7-19 3 3.5-22.7 19.1z"/><path fill="#acacac" fill-opacity=".5" d="M257.2 71.3l-6.7 6.5-21.8-22.5 6.8-6.5z"/><path fill="#363636" fill-opacity=".5" d="M97.4 147.2l-34.3-2.4L66.6 95l34.3 2.4z"/><path fill="#838383" fill-opacity=".5" d="M168.9 99l-7.7-5.4 9-12.8 7.7 5.3z"/><path fill="#a7a7a7" fill-opacity=".5" d="M187.6 120l-.2 6.2-48.4-.8.1-6.3z"/><path fill="#686868" fill-opacity=".5" d="M202 94.8l67.2-20.5 2.3 7.4-67.3 20.6z"/><path fill-opacity=".5" d="M187.9 153.3l1-10.9 31 2.7-.9 11z"/><path fill="#040404" fill-opacity=".5" d="M68.2 104.8l1.2 3-58 23.3-1.1-2.9z"/><path fill="#919191" fill-opacity=".5" d="M261 212.6l-2.8-5.5 41.7-21.3 2.9 5.6z"/><path fill="#0c0c0c" fill-opacity=".5" d="M215 55.8L200.5 87l-1.4-.7 14.5-31.1z"/><path fill="#646464" fill-opacity=".5" d="M312.1 108.5L353 124l-7.3 19-40.9-15.7z"/><path fill="#282828" fill-opacity=".5" d="M149.2 133l56-5 .3 3.1-56 5z"/><path fill-opacity=".5" d="M185.3 51.9l-1.9 7.5-1.5-.3 1.9-7.6z"/><path fill="#5e5e5e" fill-opacity=".5" d="M17.6 129.2l84.3 41.1-11.7 23.9-84.2-41z"/><path fill="#020202" fill-opacity=".5" d="M118.7 123.7l-12 3.4-5.1-18 12-3.4z"/><path fill="#a4a4a4" fill-opacity=".5" d="M217 140l-12.5 1.2-1.1-10.8 12.4-1.3z"/><path fill="#5e5e5e" fill-opacity=".5" d="M60.2 102L.8 126l-9.4-23.2 59.4-24z"/><path fill-opacity=".5" d="M373 200.9l-16.3 5.5-3-8.8 16.2-5.6z"/><path fill="#323232" fill-opacity=".5" d="M42.2 163.5l-24.4 57.6-11.5-5 24.4-57.5z"/><path fill="#505050" fill-opacity=".5" d="M264.6 78.1l31 3.3-2.4 23.3-31-3.3z"/><path fill="#0e0e0e" fill-opacity=".5" d="M316.4 144l-22.8-16.5 1-1.2 22.7 16.5z"/><path fill="#010101" fill-opacity=".5" d="M261.2 117.6l18.2 14.8-26.5 32.8-18.3-14.8z"/><path fill="#414141" fill-opacity=".5" d="M290.3 179l2 13.9-34.1 4.7-2-13.9z"/><path fill-opacity=".5" d="M-15.7 60L50 40l11 35.8L-4.7 96z"/><path fill="#363636" fill-opacity=".5" d="M328.5 180.1l-.7-9.3 35.9-2.5.6 9.3z"/><path fill="#959595" fill-opacity=".5" d="M205 119.7l33.7-25.4 4.7 6.3-33.7 25.4z"/><path fill="#363636" fill-opacity=".5" d="M181.3 112.1L215 99.2l2.2 5.9-33.5 12.9z"/><path fill="#919191" fill-opacity=".5" d="M286.8 169.1l-2 12.4-13.8-2.2 2-12.4z"/><path fill="#2a2a2a" fill-opacity=".5" d="M102.5 79.8l4.3-1.8 8 18.7-4.4 1.8z"/><path fill="#8f8f8f" fill-opacity=".5" d="M425 155.5l-52.6-49 1-1.1 52.6 49z"/><path fill="#3e3e3e" fill-opacity=".5" d="M152.5 133.9l-11.8-4 2-6 11.9 4z"/><path fill="#cecece" fill-opacity=".5" d="M162.1 102l-3.3 5.3-22.5-14 3.3-5.3z"/><path fill="#626262" fill-opacity=".5" d="M285.7 27.7l-47.2 30.6-10.2-15.7L275.5 12z"/><path fill-opacity=".5" d="M182.4 14.8l46.1-44.5 25 25.8-46 44.5z"/><path fill="#363636" fill-opacity=".5" d="M228.9 127l-5-3.6L232 112l5 3.7z"/><path fill="#b6b6b6" fill-opacity=".5" d="M80.4 206l-12.2-10 3-3.6 12.1 9.8z"/><path fill="#595959" fill-opacity=".5" d="M68.2 119.6l-101 76.1-5.7-7.5 101-76.1z"/><path fill="#3c3c3c" fill-opacity=".5" d="M79.8 54.4L25 10.2l3-3.7 54.6 44.3z"/><path fill="#313131" fill-opacity=".5" d="M242 48.7l92.7-37.5 3 7.3-92.8 37.4z"/><path fill="#686868" fill-opacity=".5" d="M103.2-.4l35.2 37.7-5.7 5.3L97.5 5z"/><path fill-opacity=".5" d="M91 84.2L5.3 4.3l5.3-5.7 85.7 80z"/><path fill="#949494" fill-opacity=".5" d="M320.7 89.8l47.5 20.1-6.1 14.4-47.5-20.2z"/><path fill="#5d5d5d" fill-opacity=".5" d="M218.6 172l-21.3 41.7-36.2-18.4 21.3-41.8z"/><path fill="#565656" fill-opacity=".5" d="M372.5 168.6l16.9 28.2-13.4 8-17-28.1z"/><path fill="#4f4f4f" fill-opacity=".5" d="M169.8 77.6l-17.4-27.8 1.3-.8L171 76.8z"/><path fill="#c9c9c9" fill-opacity=".5" d="M224.6 42.2l17 26.2-5.2 3.4-17-26.2z"/><path fill="#0a0a0a" fill-opacity=".5" d="M69 98.7l-.5 14-14-.4.4-14.1z"/><path fill-opacity=".5" d="M376.9 168.6l4.2-18.3 6 1.4L383 170zm-38.6-75.9l-18.5-8.2 56-125.7 18.5 8.3z"/><path fill="#838383" fill-opacity=".5" d="M105.5 147.6l34 22.2-6 9.1-34-22.1z"/><path fill-opacity=".5" d="M137.5 32.2L103.4-8.5l26.3-22.1L163.8 10z"/><path fill="#313131" fill-opacity=".5" d="M59.8 189.2l12 3.6-5 16.5-12-3.7z"/><path fill="#464646" fill-opacity=".5" d="M95.9 114.1l-20 3.9-7.7-40 20-3.8z"/><path fill="#c5c5c5" fill-opacity=".5" d="M150.1 103.3L145.2 33l6.2-.4 5 70.1z"/><path fill="gray" fill-opacity=".5" d="M312.6 115l-18.2-29 4-2.5 18.2 29.2z"/><path fill="#595959" fill-opacity=".5" d="M127.6 138.2l-2.2 15.5-20.1-2.8 2.1-15.5z"/><path fill="#b3b3b3" fill-opacity=".5" d="M220.8 36.4l-33 17.6-.8-1.4L220 35z"/><path fill="#606060" fill-opacity=".5" d="M39.9 169.2l3.9-13.5 136.6 39.2-3.8 13.5z"/><path fill="#9d9d9d" fill-opacity=".5" d="M176.7 40.2l-3.8 6.8-13.7-7.5 3.8-6.9z"/><path fill="#090909" fill-opacity=".5" d="M50.3 115.8L28.5 131l-5.3-7.7 21.7-15.2z"/><path fill-opacity=".5" d="M157.2 146.2l.3-1.5 43 7.5-.2 1.6z"/><path fill="#ccc" fill-opacity=".5" d="M163.5 122.9l-.7 1.4-40.4-20.6.7-1.4z"/><path fill="#dadada" fill-opacity=".5" d="M133 123.3l6 7.2-4.8 4-6-7.2z"/><path fill="#3d3d3d" fill-opacity=".5" d="M367.8 111.8l15.2 11-5.5 7.6-15.2-11z"/><path fill="#010101" fill-opacity=".5" d="M382.2 191l-46.7 18-.5-1.6 46.7-17.9z"/><path fill-opacity=".5" d="M193.6 80.2l14.2-6.6 3.3 7.1-14.2 6.6z"/><path fill="#373737" fill-opacity=".5" d="M228.6 64.5l-7.9 5.1-.8-1.3 7.8-5.1z"/><path fill="#b0b0b0" fill-opacity=".5" d="M171.5 139.3l1.8-4.4 13 5.5-1.8 4.3z"/><path fill-opacity=".5" d="M205.1 3.1l-6.5 37-58.4-10.4 6.5-37z"/><path fill="#6b6b6b" fill-opacity=".5" d="M176.8 99.8L143 87.6l.5-1.5 33.8 12.3z"/><path fill="#727272" fill-opacity=".5" d="M178 125.4L134.7 143l-1.7-4.4 43.4-17.5z"/><path fill="#020202" fill-opacity=".5" d="M164 147.3l1.7-15.6 6.2.7-1.6 15.5z"/><path fill="#3a3a3a" fill-opacity=".5" d="M319.4 118.9l6.9-8.5 12.1 9.8-6.9 8.5z"/><path fill-opacity=".5" d="M270.1 51.7l5.8 17.8-16.3 5.4-5.8-17.9z"/><path fill="#161616" fill-opacity=".5" d="M203.7 149.3l-3 .7-6-25.9 3-.7z"/><path fill="#a4a4a4" fill-opacity=".5" d="M135.9 135.8l.7-3 19.7 4.9-.7 3z"/><path fill="#565656" fill-opacity=".5" d="M347.2 185.1l.8 12.5-46.7 3.2-.9-12.4z"/><path fill="#252525" fill-opacity=".5" d="M130.8 141.4l-64.4-12.6 1.2-6.1 64.4 12.5z"/><path fill="#535353" fill-opacity=".5" d="M266.7 120.1l5.7-7.5 37.4 28.2-5.6 7.5z"/><path fill="#4c4c4c" fill-opacity=".5" d="M48.2 122.4l-2.9-1.1L62.7 76l3 1.2z"/><path fill="#989898" fill-opacity=".5" d="M217.6 132.1l-.7-1.4 29.5-14.4.7 1.4z"/><path fill="#757575" fill-opacity=".5" d="M112.4 52.2l-3.5 5.1-123-86 3.7-5.2z"/><path fill="#878787" fill-opacity=".5" d="M89.7 82.8l10.3 3.8-3.8 10.3L86 93z"/><path fill="#8c8c8c" fill-opacity=".5" d="M333.1 133.4l21 21-4.4 4.4-21-21z"/><path fill="#818181" fill-opacity=".5" d="M17.3 109.9l-29.7 13.9-3.3-7.1L14 102.8z"/><path fill="#5d5d5d" fill-opacity=".5" d="M374.3 178.1l-3.1-.5 6-38.5 3.2.4z"/><path fill="#606060" fill-opacity=".5" d="M171 67.1l5.4-9.5 26 14.3-5.3 9.6z"/><path fill="#6c6c6c" fill-opacity=".5" d="M216.1 54l-6.3 19.3-11.9-3.9 6.3-19.3z"/><path fill-opacity=".5" d="M390.9 177.7l-7.5-8 2.3-2.1 7.5 8z"/><path fill="#010101" fill-opacity=".5" d="M263.3 105.7L299 110l-1.4 10.9-35.6-4.4z"/><path fill-opacity=".5" d="M367.7 142.1l5.5 9.5-8.1 4.7-5.5-9.5z"/><path fill="#777" fill-opacity=".5" d="M387.9 166.7l18.1-45 1.5.7-18.2 44.9z"/><path fill="#a6a6a6" fill-opacity=".5" d="M179.6 87l-.4 1.6-22.8-5.3.3-1.5z"/><path fill="#747474" fill-opacity=".5" d="M312.8-5.4l4.3 8.3-87.7 44.7-4.3-8.3z"/><path fill="#d6d6d6" fill-opacity=".5" d="M218.8 74l18.6-11.6 1.6 2.7-18.5 11.6z"/><path fill="#979797" fill-opacity=".5" d="M128.2 113l-15.1-8.2 10.2-19.3 15.2 8.1z"/><path fill="#cdcdcd" fill-opacity=".5" d="M157.3 40.6l9.3-1.3 2.6 18.6-9.3 1.3z"/><path fill="#4a4a4a" fill-opacity=".5" d="M171.6 116.1l29-11.7 1.2 3-29 11.6z"/><path fill="#878787" fill-opacity=".5" d="M128 66.7l1.3-1 16 19.2-1.1 1z"/><path fill="#717171" fill-opacity=".5" d="M203.3 126.8l62.2-36 1.6 2.7-62.3 36z"/><path fill="#181818" fill-opacity=".5" d="M202 130.5l25.3-7.8.5 1.5-25.4 7.8z"/><path fill="#959595" fill-opacity=".5" d="M37.6 162.6l6-21 1.6.4-6 21z"/><path fill-opacity=".5" d="M366.6 40.7l63.6 36.7-26.5 46L340 86.7z"/><path fill="#727272" fill-opacity=".5" d="M-3.4 101.7l-.6-1.5 49.6-19 .6 1.4z"/><path fill="#454545" fill-opacity=".5" d="M233.1 141l34.2-40.8 1.2 1-34.2 40.7z"/><path fill="#969696" fill-opacity=".5" d="M224.6 114.3L165 132.5l-.5-1.5 59.8-18.2z"/><path fill="#323232" fill-opacity=".5" d="M19.3 107.9l-2.2-2.2L44.7 78l2.2 2.2z"/><path fill="#8d8d8d" fill-opacity=".5" d="M351.1 198.7l-4.5-1 3.8-16.8 4.6 1.1z"/><path fill="#8b8b8b" fill-opacity=".5" d="M191.8 102.9l38.9-23.4 4 6.7-38.8 23.3z"/><path fill="#747474" fill-opacity=".5" d="M283 172.4l5.2-22.8 33.5 7.7-5.2 22.8z"/><path fill="#181818" fill-opacity=".5" d="M285 158l-25.4 25.4-5.5-5.5 25.4-25.4z"/><path fill="#c6c6c6" fill-opacity=".5" d="M150.3 84.7L136 38.4l9-2.8L159.2 82z"/><path fill="#9a9a9a" fill-opacity=".5" d="M107 37.4l-7 6.3-49.1-54.6 7-6.2z"/><path fill="#363636" fill-opacity=".5" d="M214.7 148.8l33.7-25.4 1 1.2-33.7 25.4z"/><path fill="#d9d9d9" fill-opacity=".5" d="M401.8 178.8l-1.3.8-4-6.8 1.4-.8z"/><path fill="#1e1e1e" fill-opacity=".5" d="M181.1 86l-11.8-7.6 4.3-6.6 11.8 7.7z"/><path fill="#636363" fill-opacity=".5" d="M359.6 143.5l-1.6-9.2 24.6-4.4 1.6 9.3z"/><path fill="#727272" fill-opacity=".5" d="M52.8 169.5l9.2 2-3.9 16.8-9.1-2z"/><path fill="#232323" fill-opacity=".5" d="M3 148.1l-1.3-1 18.8-24.9 1.2 1z"/><path fill="#2f2f2f" fill-opacity=".5" d="M371.3 16.6l8.8-6.6 47 62.4-8.7 6.6z"/><path fill="#5f5f5f" fill-opacity=".5" d="M319.2 133.8l18.8 18.8-8.8 8.9-18.8-18.8z"/><path fill="#4e4e4e" fill-opacity=".5" d="M113 17.1l5-3.6 8.1 11.6-5.1 3.5z"/><path fill="#b7b7b7" fill-opacity=".5" d="M186.1 123.7l27.9-14.2 1.4 2.8-27.8 14.2z"/><path fill="#404040" fill-opacity=".5" d="M309.8 90.8l12.5-6.4.7 1.4-12.5 6.4z"/><path fill="#7f7f7f" fill-opacity=".5" d="M133.4 39.4L90 14.4 93 9l43.4 25z"/><path fill-opacity=".5" d="M217.8 152.7l40.1-27 .9 1.2-40.2 27.1z"/><path fill="#9f9f9f" fill-opacity=".5" d="M203.1 48.4l31.8-27.7 1 1.2-31.8 27.7z"/><path fill="#7d7d7d" fill-opacity=".5" d="M114.2 80L91.3 58.9l8.6-9.2L122.7 71z"/><path fill="#9d9d9d" fill-opacity=".5" d="M61.8 140l-3.3 5.3-9.3-5.6 3.2-5.4z"/><path fill="#202020" fill-opacity=".5" d="M88.3 142l-7.8-20.4 23.3-9 7.9 20.5z"/><path fill="#a1a1a1" fill-opacity=".5" d="M224.7 39.8l7 3.5-14.2 27.9-7-3.6z"/><path fill="#292929" fill-opacity=".5" d="M264.4 101.7L231.6 120l-.7-1.3 32.8-18.2z"/><path fill="#4a4a4a" fill-opacity=".5" d="M34.5 136.4l9.3 5.8-45.5 73-9.3-5.9z"/><path fill="#919191" fill-opacity=".5" d="M181.6 49.2l-4.2 2.1L173 43l4.2-2.1z"/><path fill="#878787" fill-opacity=".5" d="M271.9-8l6.3 7-36 32.4-6.3-7z"/><path fill="#676767" fill-opacity=".5" d="M330 180l79.5 4.1-.3 6.3-79.6-4.2z"/><path fill-opacity=".5" d="M327.9 14.5l45.3-.8.5 26.5-45.3.8zM43.3 183l17 24.3-11.5 8.1-17-24.3z"/><path fill="#949494" fill-opacity=".5" d="M230.3 112.9l-5.2-7.8 33.6-22.7 5.3 7.8z"/><path fill="#454545" fill-opacity=".5" d="M295.8 134.6l2.2 5.8-20.4 7.8-2.2-5.8z"/><path fill="#1a1a1a" fill-opacity=".5" d="M406.5 21.6l-4.1 8.5L370 14.3l4-8.4z"/><path fill-opacity=".5" d="M155.4 50.1l-1.4-4.5 1.5-.4 1.4 4.5z"/><path fill="#2f2f2f" fill-opacity=".5" d="M157.8 149.7l-.8 1.4-25.7-14.9.8-1.3z"/><path fill="#707070" fill-opacity=".5" d="M133.9 122.6l-10 4.2-3.1-7.2 10-4.2z"/><path fill="#313131" fill-opacity=".5" d="M252.8 154.2l-6.4 24.2-22.7-6 6.5-24.2z"/><path fill-opacity=".5" d="M159.4 115.7l.5-1.4 7.3 2.8-.6 1.4zm47.5-34.5l.1 1.5-31 3.3-.2-1.5z"/><path fill="#8b8b8b" fill-opacity=".5" d="M224.8 126.3l2 6-25 8.6-2-6z"/><path fill="#4e4e4e" fill-opacity=".5" d="M76.6 157H43.8v-12.5h32.8z"/><path fill-opacity=".5" d="M222.3 24.5l-15.7-27L241.8-23l15.6 27z"/><path fill="#666" fill-opacity=".5" d="M378.8 109.1l-.6 1.5-55.4-21.3.5-1.4z"/><path fill="#8a8a8a" fill-opacity=".5" d="M286.4 180.8l15.8-12.8 9.8 12.1-15.8 12.8z"/><path fill-opacity=".5" d="M61.8 77.3L-40.2 63l5-35.6 102 14.3z"/><path fill="#5b5b5b" fill-opacity=".5" d="M53.5 127l-1.1-3 39.4-15 1.1 2.9z"/><path fill="#909090" fill-opacity=".5" d="M421.3 140.1l-63.6-36.7.7-1.3 63.6 36.7z"/><path fill="#020202" fill-opacity=".5" d="M350 196.1l5.3-3.2 5.7 9.4-5.4 3.2z"/><path fill="#222" fill-opacity=".5" d="M292 43.1l-1.4-2.7 97-53.8 1.5 2.7z"/><path fill="#5b5b5b" fill-opacity=".5" d="M18.3 181.7l-25.2-12.3L2 151l25.2 12.3z"/><path fill="#515151" fill-opacity=".5" d="M237 45l57.2-21 1.6 4.4-57.2 20.8z"/><path fill="#020202" fill-opacity=".5" d="M322.3 156.5l1.6-.3 2.2 13.9-1.6.2z"/><path fill="#383838" fill-opacity=".5" d="M234.4 86.7h7.8V93h-7.8z"/><path fill="#282828" fill-opacity=".5" d="M49.4 178.4l-3 5.4-19.2-10.6 3-5.5zm305.3-23.7v-17.2h4.7v17.2z"/><path fill="#5a5a5a" fill-opacity=".5" d="M70.6 33.2l36.6 46.7-1.3 1-36.5-46.8z"/><path fill="#4b4b4b" fill-opacity=".5" d="M339.7 153l-29.8 34-1.1-1 29.7-34.2z"/><path fill="#a8a8a8" fill-opacity=".5" d="M203.7 49.4l-4.4 23-7.7-1.5 4.5-23z"/><path fill="#848484" fill-opacity=".5" d="M231.9 47l2.3-2 19.9 22-2.4 2.1z"/><path fill="#070707" fill-opacity=".5" d="M111 125.3L106.3 96l6.2-1 4.6 29.3z"/><path fill="#060606" fill-opacity=".5" d="M305.2 122l-17.1 1.2-1.1-15.6 17.1-1.1z"/><path fill="#202020" fill-opacity=".5" d="M191.2 85.6l17.9-23.7 1.2 1-17.8 23.6z"/><path fill="#7b7b7b" fill-opacity=".5" d="M111.8 165.9l22.7-33.7 5.2 3.5-22.7 33.7z"/><path fill="#3f3f3f" fill-opacity=".5" d="M292.6 192.2L233 179.6l1-4.6 59.6 12.6z"/><path fill="#a0a0a0" fill-opacity=".5" d="M334.2 93.5l-25.3 8.2-1-3 25.3-8.2z"/><path fill="#414141" fill-opacity=".5" d="M36.3 208.1l-38.4 13.2-10.7-31 38.4-13.2z"/><path fill="#2d2d2d" fill-opacity=".5" d="M87 94.3l3 5.5-19.1 10.6-3-5.5z"/><path fill-opacity=".5" d="M410.1 202.3l-22.5-11 .7-1.4 22.5 11z"/><path fill="#9b9b9b" fill-opacity=".5" d="M225.5 80.3l30-13.3 1.8 4.2-30 13.4z"/><path fill="#b2b2b2" fill-opacity=".5" d="M140.5 84l1-1.2 22.7 19.1-1 1.2z"/><path fill="#656565" fill-opacity=".5" d="M418.2 198l-64.8-27.5 1.9-4.4 64.7 27.5z"/><path fill-opacity=".5" d="M350.1 135.2l4.6-1.3 3 10.6-4.5 1.2z"/><path fill="#505050" fill-opacity=".5" d="M252.9 84.4l.6-7.8 35.8 3.1-.6 7.8z"/><path fill="#888" fill-opacity=".5" d="M143.5 108.4l32.3-5.7 1 6.1-32.3 5.7z"/><path fill="#2a2a2a" fill-opacity=".5" d="M48.9 122l-5.5-26 3-.7 5.5 26z"/><path fill-opacity=".5" d="M379.7 170.4l4.8-18.1 3 .8-4.8 18z"/><path fill="#6e6e6e" fill-opacity=".5" d="M268.3 96l1.1-9.3 26.4 3.2-1.2 9.3z"/><path fill="#5e5e5e" fill-opacity=".5" d="M70.3 106l-2.9-9 4.5-1.4 2.9 9z"/><path fill="#0b0b0b" fill-opacity=".5" d="M346.3 179.5l-1-1 6.8-6.5 1 1.2z"/><path fill="#565656" fill-opacity=".5" d="M230.1 116l-.6-4.6 32.6-4 .6 4.6z"/><path fill="#737373" fill-opacity=".5" d="M80.6 145l1.5-.3 7.6 43.1-1.5.3z"/><path fill="#6b6b6b" fill-opacity=".5" d="M27 105.8l19.6-24.3 6.1 5L33 110.6z"/><path fill="#717171" fill-opacity=".5" d="M154.4 57.2l2.3-2L169 69.3l-2.3 2z"/><path fill="#777" fill-opacity=".5" d="M303.7 125.3l6.3-4.7 6.6 8.8-6.3 4.7z"/><path fill="#898989" fill-opacity=".5" d="M303.6 188.8l-55 22.3-.6-1.5 55-22.2z"/><path fill="#444" fill-opacity=".5" d="M199.1 156.7l20-3.6 5.2 29.3-20 3.5z"/><path fill="#2a2a2a" fill-opacity=".5" d="M90.6 76l-1.9 9-15.3-3 2-9.2z"/><path fill-opacity=".5" d="M75.3 50.7l4.5 23L20 85.3l-4.5-23z"/><path fill="#272727" fill-opacity=".5" d="M144.8 131.3l.5-1.5 17.7 6.1-.5 1.5z"/><path fill="#414141" fill-opacity=".5" d="M-4.5 109.5l-.7-1.4L34.2 89l.6 1.4z"/><path fill="#090909" fill-opacity=".5" d="M113.9 124.3l16 9.7-1.6 2.6-16-9.6z"/><path fill="#626262" fill-opacity=".5" d="M288.9 17.8l-5.1-26 41.4-8 5 26z"/><path fill="#6f6f6f" fill-opacity=".5" d="M130.6 154.2l-4 4.8-18.1-14.7 3.9-4.9z"/><path fill="#393939" fill-opacity=".5" d="M91 68.3l1.1-1 18.5 19-1.2 1.1z"/><path fill="#d4d4d4" fill-opacity=".5" d="M146.5 116.5l-12.5 1.3-.8-7.8 12.5-1.3z"/><path fill="#747474" fill-opacity=".5" d="M309.5 119.3l19.3-10.3.8 1.4-19.4 10.3z"/><path fill="#707070" fill-opacity=".5" d="M275.2 172.1l3-10.5 7.5 2.2-3 10.5z"/><path fill="gray" fill-opacity=".5" d="M60.1 182.9l-1 1.2-17.7-15.4 1-1.2z"/><path fill="#121212" fill-opacity=".5" d="M312.3 137.9l-.9 1.3-15.9-10 .9-1.2z"/><path fill="#929292" fill-opacity=".5" d="M187.9 144.6l-.9-1.3 8-5.1.8 1.3z"/><path fill="#515151" fill-opacity=".5" d="M281 198.3l-58.6-9.2 1.2-7.8 58.7 9.3z"/><path fill="#848484" fill-opacity=".5" d="M87.5 183l22.9 10.2-5.7 12.8-22.9-10z"/><path fill="#1d1d1d" fill-opacity=".5" d="M152 145l1.3-4.5 12 3.6-1.4 4.5z"/><path fill="#909090" fill-opacity=".5" d="M304.6 84.1l1 1.2-11.8 10.3-1-1.2z"/><path fill="#7b7b7b" fill-opacity=".5" d="M211.7 82.7l1.6-23.4 1.6.2-1.7 23.3z"/><path fill="#b6b6b6" fill-opacity=".5" d="M182.9 103.5l-8.7 3.5-2.4-5.8 8.7-3.5z"/><path fill="#b5b5b5" fill-opacity=".5" d="M196 97l43-31.2 1 1.3-43 31.2z"/><path fill="#7a7a7a" fill-opacity=".5" d="M142.5 36.5L93.8 47.8l-.4-1.5L142.2 35z"/><path fill="#afafaf" fill-opacity=".5" d="M197.5 67.2L185.7 63l5.9-16.2 11.7 4.3z"/><path fill="#6e6e6e" fill-opacity=".5" d="M203.8 102.3L269 75.9l.6 1.5-65.2 26.3z"/><path fill="#7a7a7a" fill-opacity=".5" d="M84 94.5l-.7-6.2 24.8-3 .8 6.1z"/><path fill="#6e6e6e" fill-opacity=".5" d="M211.4 142.5l-.8-1.3 26.5-16.5.8 1.3z"/><path fill="#757575" fill-opacity=".5" d="M215.6 107.4l5.7-2.7 5.3 11.4-5.7 2.6z"/><path fill="#868686" fill-opacity=".5" d="M398.5 141l-3.3 16.8-1.5-.3 3.3-16.9z"/><path fill="#6f6f6f" fill-opacity=".5" d="M167.4 151l23 13.2-15.6 27-23-13.2z"/><path fill="#afafaf" fill-opacity=".5" d="M181 90.4l-.7 1.5-12.8-5.8.6-1.4z"/><path fill="#999" fill-opacity=".5" d="M125.8 126l2.6-1.6 6.8 10.5-2.6 1.7z"/><path fill="#1d1d1d" fill-opacity=".5" d="M7 147.5l-2.6 1.8-9.8-14 2.5-1.8z"/><path fill="#525252" fill-opacity=".5" d="M243.7 164.5l-47.8 14.7-.5-1.5 47.8-14.7z"/><path fill="#4b4b4b" fill-opacity=".5" d="M174.6 62.4l6.8 3.8-7.6 13.6L167 76z"/><path fill="#444" fill-opacity=".5" d="M155.2 116.5l-.8-4.6L165 110l.8 4.6z"/><path fill="#434343" fill-opacity=".5" d="M301.3 130.7l-.8 1.4-31.4-17.5.7-1.3z"/><path fill="#696969" fill-opacity=".5" d="M183.5 91.3l.1 1.6-25 1.7v-1.5z"/><path fill="#7c7c7c" fill-opacity=".5" d="M-5.2 122.4l4.5-4.3 7.5 8-4.6 4.2z"/><path fill="#0d0d0d" fill-opacity=".5" d="M335.4 195l4.6-.8 1.1 6.1-4.6.8z"/><path fill="#8b8b8b" fill-opacity=".5" d="M199.4 73.7L193 69l12.2-16.2 6.3 4.7z"/><path fill="#b1b1b1" fill-opacity=".5" d="M118.3 67.6l12.3-12 15.2 15.8-12.4 12z"/><path fill="#606060" fill-opacity=".5" d="M352.2 148.2l-25.8-25 1-1 26 24.9z"/><path fill="#484848" fill-opacity=".5" d="M304 204.7l-1.6-4.4 26.4-9.7 1.6 4.4z"/><path fill="#1f1f1f" fill-opacity=".5" d="M58.6 83.3l-1.5.4-1.6-6 1.5-.5z"/><path fill="#adadad" fill-opacity=".5" d="M98.4 195l24 7-.4 1.4-24-6.9z"/><path fill="#5e5e5e" fill-opacity=".5" d="M125 175.2l-3.8 13.5-54-15.5 3.8-13.5z"/><path fill="#191919" fill-opacity=".5" d="M290.4 101.3l.2 1.5-26.3 3.7-.2-1.5z"/><path fill="#868686" fill-opacity=".5" d="M258.5 77.9l-26.4 9.6-1.6-4.4 26.4-9.6z"/><path fill="#030303" fill-opacity=".5" d="M50.7 191.3l.9-1.2 24.3 17-1 1.3z"/><path fill="#404040" fill-opacity=".5" d="M249.7 51.8l82.7-44 .8 1.4-82.8 44z"/><path fill="#a1a1a1" fill-opacity=".5" d="M130 92.8l30.3 33.7-1.2 1-30.3-33.7z"/><path fill="#555" fill-opacity=".5" d="M374.3 124.2l4.9-14.9 7.4 2.4-4.8 15z"/><path fill="#7a7a7a" fill-opacity=".5" d="M345.6 174.1l-5.3-9.5 21.9-12.2 5.3 9.6z"/><path fill="#303030" fill-opacity=".5" d="M83.8 125.3l-23 9.8-2.4-5.7 23-9.8z"/><path fill-opacity=".5" d="M211.6 39.2l-28 9.7-6.2-17.8 28.1-9.6zM385 175l.2-7.9 9.4.2-.1 7.8z"/><path fill="#080808" fill-opacity=".5" d="M274.9 135.9l7-6.2 4.2 4.7-7.1 6.2z"/><path fill="#2c2c2c" fill-opacity=".5" d="M219.5 155.1l-43.6 2.3-.1-1.6 43.7-2.3z"/><path fill-opacity=".5" d="M141-10.4l46.8-4 4 45-46.8 4.2z"/><path fill="#717171" fill-opacity=".5" d="M102.2 183.3l46.6 13.4-2.6 9-46.6-13.3z"/><path fill="#3a3a3a" fill-opacity=".5" d="M386.3 157l12 3.4-1.7 6-12-3.4z"/><path fill="#6c6c6c" fill-opacity=".5" d="M215.9 120.6l-51.8 12-.3-1.6 51.7-12z"/><path fill="#878787" fill-opacity=".5" d="M70.4 92.4l-7.1 3.3-4-8.5 7.1-3.3z"/><path fill="#656565" fill-opacity=".5" d="M425 144.3L374.6 202l-1.2-1 50.2-57.8z"/><path fill="#010101" fill-opacity=".5" d="M261.4 77.3l-5.6-19.5L296.4 46l5.6 19.6z"/><path fill="#0a0a0a" fill-opacity=".5" d="M274 143.1l9.2 16.4-15 8.3-9.2-16.4z"/><path fill="#888" fill-opacity=".5" d="M214.6 44.5l-2-6 36.9-12.7 2 6z"/><path fill="#575757" fill-opacity=".5" d="M215.4 147.2l3.6-12 1.5.5-3.6 12z"/><path fill="#414141" fill-opacity=".5" d="M317.2 149l9.6-16 1.4.8-9.7 16z"/><path fill="#8e8e8e" fill-opacity=".5" d="M106.4 8.7l-14 6.8-3.5-7 14-6.8z"/><path fill="#0d0d0d" fill-opacity=".5" d="M258.1 55.6l-1.2 1-10.4-13.8 1.3-1z"/><path fill="#161616" fill-opacity=".5" d="M195 132l-2.4-9 1.5-.4 2.4 9z"/><path fill="#515151" fill-opacity=".5" d="M7.8 113.4l15.6 17.4-4.6 4.2-15.7-17.4z"/><path fill="#5e5e5e" fill-opacity=".5" d="M200.4 91.2L182 86.9l.3-1.5 18.3 4.2z"/><path fill="#393939" fill-opacity=".5" d="M12 120.9l33.3-13.5.6 1.4-33.4 13.5z"/><path fill-opacity=".5" d="M182.5 38.3h1.5l.7 18.7h-1.6zM25.8 122.7h9.4v6.2h-9.4z"/><path fill="#525252" fill-opacity=".5" d="M118 213.3l-60-26.7.6-1.4 60 26.7z"/><path fill="#585858" fill-opacity=".5" d="M361.4 109.8l-1 1.1-17.2-16 1.1-1.1z"/><path fill="#838383" fill-opacity=".5" d="M140.4 166.6l23.1 9.4-2.3 5.8-23.2-9.4z"/><path fill="#797979" fill-opacity=".5" d="M334.8 116.8l-6.2-1.1 3.8-21.5 6.2 1z"/><path fill-opacity=".5" d="M-19.1-38.8l69.3 82.6-10.8 9-69.3-82.5z"/><path fill="#6c6c6c" fill-opacity=".5" d="M279.5 203.8l-.6-1.5 52.5-20.1.6 1.4z"/><path fill="#767676" fill-opacity=".5" d="M167.8 117.2L189 98.8l1 1.2-21.2 18.4z"/><path fill="#454545" fill-opacity=".5" d="M240.2 134l.7 1.4-26.4 13.4-.7-1.4z"/><path fill="#767676" fill-opacity=".5" d="M336.4 188.3l-7.2 22.3-1.5-.5 7.2-22.3z"/><path fill="#414141" fill-opacity=".5" d="M90.2 108.3l-4.6-6.3L102 90l4.6 6.4z"/><path fill="#3e3e3e" fill-opacity=".5" d="M338.2 122.4l-.1 1.6-34.2-4.2.2-1.6z"/><path fill="#373737" fill-opacity=".5" d="M388.7 44.8l-16-17.1 5.8-5.3 16 17.1z"/><path fill="#a1a1a1" fill-opacity=".5" d="M202.8 120.5l-1.4-2.8 47.3-24.1 1.5 2.8z"/><path fill-opacity=".5" d="M179.6 47.6l-12.2-28.8 20.2-8.6L199.8 39zM140 33.8L103.1-8.7l27.2-23.5 36.9 42.4z"/><path fill="#535353" fill-opacity=".5" d="M318.3 184.5l-1.4-.7 13.3-23 1.3.7z"/><path fill="#5d5d5d" fill-opacity=".5" d="M254.4 103.7L222.9 121l-.7-1.4 31.4-17.4z"/><path fill="#0d0d0d" fill-opacity=".5" d="M253.8 64.1l28-27.1 6.6 6.7-28.1 27.1z"/><path fill="#303030" fill-opacity=".5" d="M16 106l-.7-6.3 7.7-1 .8 6.3z"/><path fill="#818181" fill-opacity=".5" d="M163.7 81.8l12.7 11.5-4.1 4.6-12.8-11.5z"/><path fill="#777" fill-opacity=".5" d="M282.9-16.2l3 .7-11 52-3-.7z"/><path fill="#4f4f4f" fill-opacity=".5" d="M297.7 81.3v4.6h-37.5v-4.7z"/><path fill="#696969" fill-opacity=".5" d="M215.2 108.6L232.4 98l.8 1.3L216 110z"/><path fill="#636363" fill-opacity=".5" d="M297 136.7l19.5 5.6-5.6 19.5-19.6-5.6z"/><path fill="#090909" fill-opacity=".5" d="M369.6 148.5l6 2-3 8.8-6-1.9z"/><path fill="#666" fill-opacity=".5" d="M.4 167l-1.4-.8 21-34.8 1.3.8z"/><path fill="#a9a9a9" fill-opacity=".5" d="M181.6 50.5l-4 5-17-13.9 4-4.8z"/><path fill="#222" fill-opacity=".5" d="M185.8 111.7l-10 4.6-.6-1.4 9.9-4.6z"/><path fill="#595959" fill-opacity=".5" d="M178.3 146.3l16.4-5 .5 1.5-16.5 5z"/><path fill="#606060" fill-opacity=".5" d="M358.4 144.2l-.5-1.5 75.8-29 .6 1.4z"/><path fill="#464646" fill-opacity=".5" d="M373 188.1l31.2 14.5-.7 1.5-31.1-14.6z"/><path fill="#a6a6a6" fill-opacity=".5" d="M132.2 44.4L115 52l-1.9-4.2 17.2-7.7z"/><path fill="#696969" fill-opacity=".5" d="M222 99.4l34.9-23.6.9 1.3-35 23.6z"/><path fill="#0c0c0c" fill-opacity=".5" d="M50 120.8l-2.3-2 19.5-22.4 2.3 2z"/><path fill="#4f4f4f" fill-opacity=".5" d="M217.9 69l1.1-1.1 2.2 2.2-1.2 1.1z"/><path fill="#8d8d8d" fill-opacity=".5" d="M276.3 169.8l4.1 4.8-8.3 7.1-4-4.7z"/><path fill="#a9a9a9" fill-opacity=".5" d="M116.4 84l3-.5 3.3 18.4-3 .6z"/><path fill="#010101" fill-opacity=".5" d="M204 143l1.9 6-21 6.4-1.7-6z"/><path fill="#262626" fill-opacity=".5" d="M248.9 124.6l-26.6 19.3-.9-1.3 26.6-19.3z"/><path fill="#5f5f5f" fill-opacity=".5" d="M308.4 181.8l14 33-4.3 1.9-14-33.1z"/><path fill="#111" fill-opacity=".5" d="M199.2 132.3l-28 1-.1-1.6 28-1z"/><path fill-opacity=".5" d="M27 39.2l10.6 45.6-38 8.8L-11 48z"/><path fill="#656565" fill-opacity=".5" d="M370.9 134.3l-.7 1.4-86.4-40.3.7-1.4z"/><path fill="#3f3f3f" fill-opacity=".5" d="M269.5 138.9l.3-1.6 24.7 3.5-.2 1.6z"/><path fill="#898989" fill-opacity=".5" d="M319.4 132.6l2.1-5.9 4.4 1.6-2.1 6zM110.2 78.1L133 97.2l-1 1.2-22.8-19z"/><path fill="#a3a3a3" fill-opacity=".5" d="M253 73.8l-1.1 1-22.2-28.3 1.3-1z"/><path fill="#545454" fill-opacity=".5" d="M133.1 36.4l.6 1.5-5.9 2.2-.5-1.4z"/><path fill="#bdbdbd" fill-opacity=".5" d="M176.3 49L171 61.8l-14.4-6.1 5.5-13z"/><path fill="#010101" fill-opacity=".5" d="M269.2 112.3l-11 17-4-2.5 11-17z"/><path fill="#a7a7a7" fill-opacity=".5" d="M221.6 86.2L185.1 104l-2-4.2L219.6 82z"/><path fill="#bebebe" fill-opacity=".5" d="M152.1 99.2l-8.2 7.2-22.6-26 8.3-7.1z"/><path fill="#6f6f6f" fill-opacity=".5" d="M25.4 90l28.5-8 .4 1.5-28.5 8.2z"/><path fill="#4c4c4c" fill-opacity=".5" d="M120.7 139.3l-22 22-2.3-2.1 22.1-22.1z"/><path fill="#969696" fill-opacity=".5" d="M119.6 112.6l34.7 9.3-.4 1.5-34.7-9.3z"/><path fill="#cfcfcf" fill-opacity=".5" d="M236.7 67.2l-11.2-8.5 1.9-2.5 11.2 8.5z"/><path fill="#494949" fill-opacity=".5" d="M41.6 85.5l2.4 5.8-21.5 9.1-2.5-5.7z"/><path fill="#9b9b9b" fill-opacity=".5" d="M158.6 65.6l2.8-1.4 6.6 12.4-2.8 1.4z"/><path fill="#5d5d5d" fill-opacity=".5" d="M191.7 193.3l46.8 2.5-.5 9.3-46.8-2.4z"/><path fill="#979797" fill-opacity=".5" d="M302.3 98.5l.7-1.5 55.6 24.8-.6 1.5z"/><path fill="#bfbfbf" fill-opacity=".5" d="M212.1 131.8l.5 1.5-7.5 2.1-.5-1.5z"/><path fill-opacity=".5" d="M365.5 88l-8.3 13.3-30.5-19L335 69z"/><path fill="#1c1c1c" fill-opacity=".5" d="M168.5 75l6.4 6.8-1.2 1-6.4-6.8z"/><path fill="#5f5f5f" fill-opacity=".5" d="M192.1 105.4L189 119l-4.6-1 3.2-13.8z"/><path fill="#676767" fill-opacity=".5" d="M41 171.2l2-7.5 73.9 19.8-2 7.5z"/><path fill="#8a8a8a" fill-opacity=".5" d="M43.6 154.3l-1.6 4.4-5.9-2.1 1.6-4.4z"/><path fill="#7a7a7a" fill-opacity=".5" d="M115 137.9l1 1.1-10.7 9-1-1.1z"/><path fill="#515151" fill-opacity=".5" d="M385.7 130.3l1.5-.4 6.8 25.7-1.5.4z"/><path fill="#5a5a5a" fill-opacity=".5" d="M380.8 145l-.8 1.4-31.1-18 .8-1.3z"/><path fill="#b8b8b8" fill-opacity=".5" d="M175.3 120.2l.6-1.5 16 6.5-.6 1.4z"/><path fill="#a9a9a9" fill-opacity=".5" d="M206.8 45.8l6.3-4.6L226 58.9l-6.3 4.6z"/><path fill="#7d7d7d" fill-opacity=".5" d="M183 124l1.3-.6 3.1 7.2-1.4.6z"/><path fill="#353535" fill-opacity=".5" d="M307.5 30.6l-2.2-12.3 20-3.6 2.2 12.3z"/><path fill="#777" fill-opacity=".5" d="M359 147.4l6.8 12.3-1.4.7-6.8-12.3z"/><path fill="#404040" fill-opacity=".5" d="M376.8 165l6.8 10.5-2.6 1.7-6.8-10.5z"/><path fill="#565656" fill-opacity=".5" d="M153.4 50l-.6-10.9h1.6L155 50z"/><path fill="#a4a4a4" fill-opacity=".5" d="M150 156.4l-4.2 6.6-13-8.5 4.2-6.6z"/><path fill-opacity=".5" d="M354.2 53l16.7-20.6 54.6 44.2-16.7 20.7z"/><path fill="#2f2f2f" fill-opacity=".5" d="M156.8 116.1l1.2-2.9 8.7 3.5-1.2 3z"/><path fill="#a3a3a3" fill-opacity=".5" d="M171.2 117.6l1 1.2-7.4 5.8-1-1.2z"/><path fill="#525252" fill-opacity=".5" d="M356 164l1.3-.8 13.3 21.2-1.4.8z"/><path fill="#343434" fill-opacity=".5" d="M235.1 168l29.5 3.1-1.3 12.4-29.5-3z"/><path fill="#999" fill-opacity=".5" d="M338 117.1l21.8-12.1.7 1.3-21.8 12.2z"/><path fill="#9a9a9a" fill-opacity=".5" d="M187.3 139.2l6.4-4.4 1.8 2.5-6.4 4.5z"/><path fill="#606060" fill-opacity=".5" d="M128.6 129.2l-1.5.4-4.1-13.4 1.5-.5z"/><path fill="#7d7d7d" fill-opacity=".5" d="M37.6-1.5L73.8 13l-3.5 8.7L34 7.2z"/><path fill="#6f6f6f" fill-opacity=".5" d="M183.5 58.2l8.5 13-5.2 3.5-8.5-13.1z"/><path fill="#8e8e8e" fill-opacity=".5" d="M250.5 110.9l1 1.2-19.2 16-1-1.1z"/><path fill="#939393" fill-opacity=".5" d="M175.5 40.8l-2 2.5-9.9-7.5 1.9-2.5z"/><path fill="#888" fill-opacity=".5" d="M129.7 28.2l2.4 4L100 51.5l-2.4-4z"/><path fill="#060606" fill-opacity=".5" d="M387 149l-5.3 22.8-1.5-.4 5.3-22.8z"/><path fill="#7f7f7f" fill-opacity=".5" d="M349.4 194.4l-1.6.2L346 179l1.6-.2z"/><path fill-opacity=".5" d="M322.6 168.8l-1.5-14 1.6-.2 1.5 14z"/><path fill="#787878" fill-opacity=".5" d="M180.7 106.2l-.2-1.5 24.8-3 .2 1.5z"/><path fill="#1c1c1c" fill-opacity=".5" d="M265.4 160l-20.9 10.7-2.1-4.2 20.9-10.6z"/><path fill="#686868" fill-opacity=".5" d="M4.2 114l35.4-12.2 1.5 4.5-35.4 12.2z"/><path fill="#7b7b7b" fill-opacity=".5" d="M124.5 105l-.6 4.7-6.2-.7.6-4.7z"/><path fill="#787878" fill-opacity=".5" d="M137.5 76.3l5.9 7.3-1.2 1-6-7.3z"/><path fill="#6c6c6c" fill-opacity=".5" d="M188.3 95.2l-18.5 3.3-.3-1.5 18.5-3.3z"/><path fill-opacity=".5" d="M249.7 4.9l-34 27.5-13.8-17 34-27.5zm121.6 192.6l-2.8 7.3-10.2-3.9 2.8-7.3z"/><path fill="#5a5a5a" fill-opacity=".5" d="M369.5 183l-5.9-2 9.1-25 5.9 2.1z"/><path fill="#404040" fill-opacity=".5" d="M79 129.5l12.4 2.2-3.3 18.5-12.3-2.2z"/><path fill="#292929" fill-opacity=".5" d="M33 156.8l1.5-.4 6 25.9-1.6.3z"/><path fill="#040404" fill-opacity=".5" d="M265 66.4l-14-1.7 1.3-10.8 14 1.7z"/><path fill="#6f6f6f" fill-opacity=".5" d="M362.2 106.5l1.4.6-5.5 13-1.4-.7z"/><path fill-opacity=".5" d="M300 79.7V34.4h42.2v45.3z"/><path fill="#656565" fill-opacity=".5" d="M50.4 89.7l5.9-2.1 4.2 11.7-5.8 2.2z"/><path fill="#686868" fill-opacity=".5" d="M408.8 196.9l-.8 1.3-30.8-18.5.8-1.3z"/><path fill="#4c4c4c" fill-opacity=".5" d="M164.4 137.8l.5 1.5-9 2.6-.5-1.5z"/><path fill="#3c3c3c" fill-opacity=".5" d="M212.8 59.6l-7 17.4-1.4-.6 7-17.4z"/><path fill="#555" fill-opacity=".5" d="M164.5 151.5l.5-1.5 40.9 15.7-.6 1.5z"/><path fill="#131313" fill-opacity=".5" d="M146.3 146l.4-1.4 36.6 7.8-.3 1.5z"/><path fill="#7f7f7f" fill-opacity=".5" d="M130.5 136.3v-1.6l28.1 2.5-.1 1.5z"/><path fill="#c8c8c8" fill-opacity=".5" d="M127.5 123.5l.8-1.4 14.6 9.1-.9 1.4z"/><path fill="#b5b5b5" fill-opacity=".5" d="M205.8 113.5l-.7 9.4-6.2-.5.7-9.3z"/><path fill="#313131" fill-opacity=".5" d="M377.6 36.1l-5-26 4.5-1 5 26.1z"/><path fill="#575757" fill-opacity=".5" d="M6.9-12l60.7 49.3-1 1.2L5.9-10.7z"/><path fill="#525252" fill-opacity=".5" d="M32.2-1l-4.6 8.2-8.2-4.6L24-5.6z"/><path fill="#5b5b5b" fill-opacity=".5" d="M300 140l-27.5-17.8.9-1.3 27.5 17.8z"/><path fill="#707070" fill-opacity=".5" d="M152.6 131.4l-7.2-8.2 3.6-3 7.1 8.2z"/><path fill="#101010" fill-opacity=".5" d="M212 101.4l3 .3-.4 4.7-3-.3z"/><path fill="#2c2c2c" fill-opacity=".5" d="M112.5 131.7l2.3 4-16.4 9.2-2.3-4.1z"/><path fill="#aaa" fill-opacity=".5" d="M78.1 203.5l-9-10.7 1.2-1 9 10.7z"/><path fill="#878787" fill-opacity=".5" d="M153.6 148.8l10.6 13.6-3.7 2.8-10.6-13.5z"/><path fill="#777" fill-opacity=".5" d="M285.1 172.6l2-13.9 32.5 4.6-2 14z"/><path fill="#6e6e6e" fill-opacity=".5" d="M337.1 153.7l-17.1-1.2.7-10.9 17.2 1.2z"/><path fill="#969696" fill-opacity=".5" d="M103.4 158.6l-.5-6.2 1.5-.1.6 6.2z"/><path fill="#141414" fill-opacity=".5" d="M221.1 125l-5.6 2.9-.7-1.4 5.6-2.8z"/><path fill="#646464" fill-opacity=".5" d="M291.8 107.5l-2-2.3 20-17.4 2 2.3z"/><path fill="#1e1e1e" fill-opacity=".5" d="M219 169.4l-.6-1.5 29.7-13.8.7 1.4z"/><path fill="#161616" fill-opacity=".5" d="M115.2 98.2l-5.7 22.7-7.5-1.9 5.6-22.7z"/><path fill="#3c3c3c" fill-opacity=".5" d="M194.4 159.6l.3-4.7 37.4 2.7-.3 4.6z"/><path fill="#4d4d4d" fill-opacity=".5" d="M177.3 123.7l-6.3-.5.2-1.6 6.2.6z"/><path fill="#7d7d7d" fill-opacity=".5" d="M105.7 53.2l1.5-.3 13.7 64.2-1.6.3z"/><path fill="#868686" fill-opacity=".5" d="M214.1 57.4L202 45.3l1-1.1 12.2 12.1z"/><path fill="#5e5e5e" fill-opacity=".5" d="M113 147l21.7-12.5.7 1.3-21.6 12.5z"/><path fill="#a1a1a1" fill-opacity=".5" d="M120 113.5l-5.3-5.7 1.2-1 5.3 5.7z"/><path fill="#9b9b9b" fill-opacity=".5" d="M384 115.5l1-1.2 10.7 9.3-1 1.1z"/><path fill="#323232" fill-opacity=".5" d="M76 77.7l.3-1.6 33.6 7.2-.3 1.5z"/><path fill="#bababa" fill-opacity=".5" d="M395.7 179l.9-4.6 6.1 1.2-.9 4.6z"/><path fill="#5f5f5f" fill-opacity=".5" d="M244.2 124.8l-1-1.1 17.3-15.7 1 1.1z"/><path fill="#545454" fill-opacity=".5" d="M74.8 158l55.7 24.8-.6 1.4-55.7-24.8z"/><path fill-opacity=".5" d="M241.7 14.2l-5.6-7.5 17.5-13.1 5.6 7.5z"/><path fill="#606060" fill-opacity=".5" d="M52 186.8L81.7 159l5.4 5.7-29.8 27.7z"/><path fill="#535353" fill-opacity=".5" d="M128.5 26.4l-1.1 1-38.7-42.9 1.1-1z"/><path fill-opacity=".5" d="M197 86.7l-1.3-.8 8.8-14.8 1.4.8z"/><path fill="#939393" fill-opacity=".5" d="M352.7 160.3l-9.4-5.6 2.4-4 9.4 5.6z"/><path fill="#a5a5a5" fill-opacity=".5" d="M150.3 138.1l-1.4.8-3.9-6.7 1.4-.8z"/><path fill="#c3c3c3" fill-opacity=".5" d="M225.4 67.2l1.3.9-13 19.4-1.4-.9z"/><path fill="#494949" fill-opacity=".5" d="M188.6 81.1l-15-11.3 1.9-2.5 15 11.3z"/><path fill="#696969" fill-opacity=".5" d="M114.5 62.2l.7 10.9-9.3.7-.8-11z"/><path fill="#5b5b5b" fill-opacity=".5" d="M351.8 120l-6.9 22.4-4.5-1.4 6.9-22.4z"/><path fill="#434343" fill-opacity=".5" d="M265 88.8l-11-19 1.4-.8 10.9 19z"/><path fill="#848484" fill-opacity=".5" d="M300.9 103.9l1.5-10.9 10.8 1.6-1.5 10.8z"/><path fill="#5e5e5e" fill-opacity=".5" d="M192.8 176.2l12.8 30.2-37.4 15.9-12.8-30.2z"/><path fill="#919191" fill-opacity=".5" d="M168.2 92.4l13.6-7.8 1.5 2.7-13.5 7.8z"/><path fill="#b5b5b5" fill-opacity=".5" d="M165.9 112.6l2.7-5.6 1.4.7-2.7 5.6z"/><path fill="#151515" fill-opacity=".5" d="M327 197.2l.5 3-6.1 1-.5-3z"/><path fill="#cdcdcd" fill-opacity=".5" d="M159.6 70.1l-18.8-18.8 1.1-1L160.7 69z"/><path fill="#8f8f8f" fill-opacity=".5" d="M181.1 62.3l-1.5.5-9.1-26.6 1.4-.5z"/><path fill="#101010" fill-opacity=".5" d="M298 108.8l-.4-1.5 5.9-2 .5 1.5z"/><path fill="#292929" fill-opacity=".5" d="M90.5 97l-38 24.6-.8-1.3 38-24.7z"/><path fill="#010101" fill-opacity=".5" d="M30.4 184.5l15.6-.3.2 7.9-15.7.2z"/><path fill="#4f4f4f" fill-opacity=".5" d="M68.7 96.5L81 120l-1.3.7-12.5-23.5z"/><path fill="#7e7e7e" fill-opacity=".5" d="M276.6 89.8l-1.4-.7 3-5.5 1.3.7z"/><path fill="#646464" fill-opacity=".5" d="M226 118.2l.3 1.5-32 7.4-.3-1.5z"/><path fill="#aaa" fill-opacity=".5" d="M167.5 128l-9.3-1.3.9-6.2 9.3 1.3z"/><path fill="#070707" fill-opacity=".5" d="M197.4 80.2l-1.4 6.1-10.6-2.5 1.4-6z"/><path fill="#252525" fill-opacity=".5" d="M72.4 46L96 73.3l-1.2 1-23.6-27z"/><path fill="#a6a6a6" fill-opacity=".5" d="M350 111h-4.7v-11h4.7z"/><path fill="#b9b9b9" fill-opacity=".5" d="M227.3 33l-6.9-3.7.8-1.4 6.8 3.8z"/><path fill="#3b3b3b" fill-opacity=".5" d="M329.3 164.1l7.5 2.2-5.2 18-7.5-2.1z"/><path fill-opacity=".5" d="M408.4 108.9l-9.1 14.6-9.3-5.8 9.1-14.6z"/><path fill="#939393" fill-opacity=".5" d="M102.6 62.8L96.8 68l-1-1.1 5.8-5.3z"/><path fill="#0b0b0b" fill-opacity=".5" d="M302.9 28.8l.5 9.4-4.7.2-.5-9.4z"/><path fill="#636363" fill-opacity=".5" d="M371 123.8l51.9 12-1.8 7.6-51.8-12z"/><path fill="#7e7e7e" fill-opacity=".5" d="M178.5 133.6l26.1 4.7-.2 1.5-26.2-4.6z"/><path fill-opacity=".5" d="M183.1 55.6l8.8-38 1.5.3-8.8 38z"/><path fill="#a9a9a9" fill-opacity=".5" d="M313.6 96.7l1.4-4.4 10.4 3.2-1.3 4.4z"/><path fill="#7a7a7a" fill-opacity=".5" d="M399 125.3l1.4.3-7.1 28.8-1.6-.3z"/><path fill="#5b5b5b" fill-opacity=".5" d="M108.7 96.1l-13.2-4.8.5-1.5 13.2 4.8z"/><path fill="#7d7d7d" fill-opacity=".5" d="M229.7 43l-2.1 2.2-5.7-5.3 2-2.3z"/><path fill="#353535" fill-opacity=".5" d="M218.2 189.8l.4 1.6-16.5 4.7-.4-1.5z"/><path fill="#777" fill-opacity=".5" d="M210.1 140.5l13.5-13 2.2 2.3-13.5 13z"/><path fill="#7d7d7d" fill-opacity=".5" d="M323.6 89.7l22 19.9-2 2.3-22-19.9z"/><path fill="#565656" fill-opacity=".5" d="M340-5l-68.2 44.2-.8-1.3 68-44.3z"/><path fill="#8f8f8f" fill-opacity=".5" d="M164.1 165.8l-1 1.2-32-25 1-1.2z"/><path fill="#393939" fill-opacity=".5" d="M266 201.9l-17 2.4-1-7.8 17-2.3z"/><path fill="#5c5c5c" fill-opacity=".5" d="M272.4 30.3l.4 1.5-37.3 11.4-.5-1.5z"/><path fill="#b4b4b4" fill-opacity=".5" d="M151.9 94.3l-21.3-32.8 6.6-4.2L158.4 90z"/><path fill="#cacaca" fill-opacity=".5" d="M191.7 58.4l-5.3-3.3 1.6-2.6 5.3 3.3z"/><path fill="#919191" fill-opacity=".5" d="M127.4 198.2l-.3 1.5-18.5-2.6.2-1.5z"/><path fill="#262626" fill-opacity=".5" d="M42.8 25.7l-1 1.1L18 4l1.2-1z"/><path fill="#d2d2d2" fill-opacity=".5" d="M143 113.8l-.8 1.3-14.9-8.6.8-1.3z"/><path fill="#212121" fill-opacity=".5" d="M289.9 137l-.4 1.5-9-2 .3-1.6z"/><path fill="#717171" fill-opacity=".5" d="M357.2 190.7l27.4-6.3.4 1.5-27.4 6.3z"/><path fill="#747474" fill-opacity=".5" d="M70.5 85.4l-4.3 1.9-3.8-8.6 4.2-1.9z"/><path fill="#2d2d2d" fill-opacity=".5" d="M242.2 91.4l.6 1.4-11.5 4.9-.6-1.4z"/><path fill="#444" fill-opacity=".5" d="M26.9 10.8l1-1.3 24.9 18.8-1 1.3z"/><path fill="#404040" fill-opacity=".5" d="M159.3 59.6l1.3-1 3.5 5.3-1.3.8z"/><path fill="#0c0c0c" fill-opacity=".5" d="M2.8 200.7l-1.3.9-2.7-3.8 1.2-1z"/><path fill="#2a2a2a" fill-opacity=".5" d="M0 107.6l-.8-1.4 5.6-2.8.7 1.3z"/><path fill="#363636" fill-opacity=".5" d="M266 97.2l2.3 4-10.8 6.3-2.4-4z"/><path fill="#0f0f0f" fill-opacity=".5" d="M400 22.9l-20.3-11.7 18.7-32.5 20.3 11.7z"/><path fill="#414141" fill-opacity=".5" d="M186.7 181.6l37.5-.7v1.6l-37.5.6z"/><path fill="#5c5c5c" fill-opacity=".5" d="M342.8 154.4l-9.4 10.5-5.9-5.3 9.5-10.4z"/><path fill="#848484" fill-opacity=".5" d="M122 168.6l30.3 16.1-.8 1.4-30.3-16.1z"/><path fill="#222" fill-opacity=".5" d="M281 159.9l.5-3.1 4.6.5-.4 3.1z"/><path fill="#020202" fill-opacity=".5" d="M245.3 147.7l-3.8-15.2 27.3-6.8 3.8 15.2z"/><path fill="#494949" fill-opacity=".5" d="M351.5 193l17.1-1.6.2 1.6-17.1 1.5z"/><path fill="#4b4b4b" fill-opacity=".5" d="M202 73.4l-14.4 6.2-.6-1.5 14.4-6z"/><path fill="#0c0c0c" fill-opacity=".5" d="M375.3 149.4l-3.8 2.8-4.6-6.3 3.8-2.8z"/><path fill="#747474" fill-opacity=".5" d="M355.5 127.4l-7.6 5.5-1.8-2.5 7.6-5.5z"/><path fill="#5f5f5f" fill-opacity=".5" d="M304.6 154l-26.9-8.1.5-1.5 26.9 8.2z"/><path fill="#0f0f0f" fill-opacity=".5" d="M10.9 136.7l-1.4-.8 3-5.4 1.4.7z"/><path fill="#4b4b4b" fill-opacity=".5" d="M341.2 196.8l-11.6-18.5 2.6-1.7 11.6 18.6z"/><path fill="#474747" fill-opacity=".5" d="M145 133.5l-.8-4.6 9.3-1.5.7 4.7z"/><path fill="#a3a3a3" fill-opacity=".5" d="M95.8 24.9l7.7 11.8-4 2.5L92 27.4z"/><path fill="#454545" fill-opacity=".5" d="M241.7 114.4L223.2 126l-.9-1.3L241 113z"/><path fill="#494949" fill-opacity=".5" d="M289 144.6l1.6-2.7 9.4 5.7-1.6 2.6z"/><path fill="#353535" fill-opacity=".5" d="M164.3 94.4l-2.8-1.4.7-1.4L165 93z"/><path fill-opacity=".5" d="M277.4 110.6l10.7-2.3 1.7 7.7-10.7 2.2z"/><path fill="#151515" fill-opacity=".5" d="M309.4 85.8v-1.5l14 .2v1.6z"/><path fill="#898989" fill-opacity=".5" d="M83.5 158.4l-4.4-8.3 1.4-.7 4.4 8.3z"/><path fill="#6f6f6f" fill-opacity=".5" d="M137.4 101l.2 1.6-7.8 1-.2-1.5z"/><path fill="#979797" fill-opacity=".5" d="M354.4 187.2l1 1.2-8.2 7.2-1-1.2z"/><path fill="#080808" fill-opacity=".5" d="M381.2 198.7l11-.5v1.5l-10.9.6z"/><path fill="#0d0d0d" fill-opacity=".5" d="M25 132.2l-4.8-9.8 12.6-6.2 4.8 9.9z"/><path fill="#939393" fill-opacity=".5" d="M353.3 116.3l11 5.8-3.6 7-11-6z"/><path fill="#4f4f4f" fill-opacity=".5" d="M107.1 166.6l-14.4 5.9-7.7-18.8 14.5-5.9z"/><path fill="#010101" fill-opacity=".5" d="M372.5 21.7l-24.2-40.2 2.7-1.6L375 20z"/><path fill="#3e3e3e" fill-opacity=".5" d="M63.3 194.8l1.5 2.8-11 6-1.4-2.7z"/><path fill="#292929" fill-opacity=".5" d="M111.2 106.5l-28.5 19.3-1.7-2.6 28.5-19.3z"/><path fill="#6e6e6e" fill-opacity=".5" d="M202.2 64.4l-6.7-4 .8-1.4 6.7 4z"/><path fill="#2f2f2f" fill-opacity=".5" d="M56.1 86.7l-1-1.2 6-5 1 1.2z"/><path fill-opacity=".5" d="M83 61.3l-.3 14-39-.6.2-14.1z"/><path fill="#717171" fill-opacity=".5" d="M131.5 32.9L97.5 17l.7-1.4 34 15.8z"/><path fill="#b3b3b3" fill-opacity=".5" d="M170.6 59.5l-2.4-2 9.6-12.3 2.5 2z"/><path fill="#8a8a8a" fill-opacity=".5" d="M207.9 112l15.9-6.5 1.2 2.9-16 6.4z"/><path fill="#a5a5a5" fill-opacity=".5" d="M255.3 74.8L233.6 72l.2-1.6 21.7 2.7z"/><path fill="#949494" fill-opacity=".5" d="M148.2 125.2l-.6 1.4-28.6-12.7.6-1.4z"/><path fill="#484848" fill-opacity=".5" d="M25 164.3l18.8-46.4 1.4.6L26.5 165z"/><path fill="#070707" fill-opacity=".5" d="M276.8 130.6l-38.6 29.1-1-1.2 38.7-29.2z"/><path fill="#282828" fill-opacity=".5" d="M267.7 179l-1.5.4-7.3-25.5 1.5-.5z"/><path fill="#494949" fill-opacity=".5" d="M269.3 185.6l8-4.9 8 13.4-8 4.9z"/><path fill="#565656" fill-opacity=".5" d="M47.4 175.4l1.1-1 37 42.4-1.2 1z"/><path fill="#919191" fill-opacity=".5" d="M114.8 155l1-1.2 14.7 11.5-1 1.2z"/><path fill="#050505" fill-opacity=".5" d="M163.2 134l7.4 2.4-1 3-7.4-2.4z"/><path fill="#9a9a9a" fill-opacity=".5" d="M208.5 61.4l-4.7.5-1.3-12.4 4.6-.5z"/><path fill="#7f7f7f" fill-opacity=".5" d="M379.7 109.3l-7.2 3.2-.6-1.5 7.1-3.1z"/><path fill="#9b9b9b" fill-opacity=".5" d="M157.5 63.1l1.4-.6 10.2 22.8-1.4.7z"/><path fill-opacity=".5" d="M356.6 135.6l-.7 6.2-7.8-.8.7-6.2z"/><path fill="#010101" fill-opacity=".5" d="M201.6 155.4l-.4-1.5 23.7-7.7.5 1.5z"/><path fill="#666" fill-opacity=".5" d="M76.5 84.2l7-3.4 4.1 8.4-7 3.4z"/><path fill="#818181" fill-opacity=".5" d="M294.6 87.9l15.1-3.8.4 1.5-15.1 3.8z"/><path fill="#2f2f2f" fill-opacity=".5" d="M87.6 139.9l1.5.3-3.2 15.3-1.6-.4z"/><path fill="#454545" fill-opacity=".5" d="M182.9 103.9l2.4 2-1 1.2-2.4-2zm-107.2 84l-1 1.3-5-3.6.8-1.3z"/><path fill="#4e4e4e" fill-opacity=".5" d="M211.8 76.7l-8.7-9 2.3-2.2 8.7 9z"/><path fill="#474747" fill-opacity=".5" d="M21.7 121.2L14 121l.3-9.4 7.8.3z"/><path fill="#8f8f8f" fill-opacity=".5" d="M160.2 124.4l.2-1.6 31 4.4-.3 1.5z"/><path fill="#9b9b9b" fill-opacity=".5" d="M199.1 46.5l15-8.4.8 1.4-15 8.3z"/><path fill="#b0b0b0" fill-opacity=".5" d="M178.9 139l5.6-2.8.7 1.4-5.6 2.8z"/><path fill="#010101" fill-opacity=".5" d="M411.1 76.9l-11.4 37.3-37.4-11.4 11.5-37.3z"/><path fill="#777" fill-opacity=".5" d="M68.3 36.6l-1.5.1L64.5 15l1.5-.2z"/><path fill="#232323" fill-opacity=".5" d="M335.7 16.9L355.4-.9l1 1.2L336.8 18z"/><path fill="#141414" fill-opacity=".5" d="M133.9 31.8L94.6-16.8l1.2-1L135 30.9z"/><path fill="#727272" fill-opacity=".5" d="M357.9 142.3l-.2-4.7 7.8-.2.2 4.6z"/><path fill="#626262" fill-opacity=".5" d="M25.5 100.4l37.7-10.1.4 1.5-37.7 10.1z"/><path fill="#c8c8c8" fill-opacity=".5" d="M161.4 36.7l5 16.5-7.5 2.3-5-16.5z"/><path fill="#5b5b5b" fill-opacity=".5" d="M359.2 181.7l26.3-10.1.6 1.4-26.3 10.1z"/><path fill="#515151" fill-opacity=".5" d="M102.7 77.5l-1.2.9-33.9-45 1.3-.9z"/><path fill="#797979" fill-opacity=".5" d="M155.8 113.6l-.8-1.4 9.5-5.5.8 1.4z"/><path fill="#7d7d7d" fill-opacity=".5" d="M1 102l-1-1.2 10-7.5 1 1.2z"/><path fill="#5f5f5f" fill-opacity=".5" d="M96 40.4l-2.2 5.9-10.2-4 2.3-5.8z"/><path fill="#4e4e4e" fill-opacity=".5" d="M224.2 199l-2-9.2 39.5-9 2.1 9z"/><path fill="#464646" fill-opacity=".5" d="M213.8 102.3l-.8 1.3-6.5-4.4.9-1.3z"/><path fill="#505050" fill-opacity=".5" d="M264.4 83.4l3-.7 4.2 16.7-3 .7z"/><path fill="#5a5a5a" fill-opacity=".5" d="M58.5 171.9l-19.1-7 3.7-10.2 19.1 7z"/><path fill="#2f2f2f" fill-opacity=".5" d="M263 118.5l14 10.1-1 1.3-13.9-10.1z"/><path fill="#444" fill-opacity=".5" d="M323.2 18l-2-2.4L347-7l2 2.4z"/><path fill-opacity=".5" d="M154 148.6l-.1-1.6 18.7-.3v1.6z"/><path fill="#666" fill-opacity=".5" d="M306.5 189.2l60.2-9.6.2 1.6-60.2 9.5z"/><path fill-opacity=".5" d="M201.7 130l-.3 1.6-4.6-.7.2-1.6z"/><path fill="#0e0e0e" fill-opacity=".5" d="M19 128.3l25.2-15.7.8 1.3-25 15.7z"/><path fill="#424242" fill-opacity=".5" d="M164.7 127.5l1.6 4.4-4.5 1.5-1.5-4.4z"/><path fill="#9f9f9f" fill-opacity=".5" d="M157 51.6l13.7 12.8-1.1 1.2-13.7-12.8z"/><path fill="#040404" fill-opacity=".5" d="M388.3 177l-1.5.3-4.8-24.6 1.5-.3z"/><path fill="#323232" fill-opacity=".5" d="M370.6 183.3l3-3.6 1.2 1-3 3.6z"/><path fill="#6a6a6a" fill-opacity=".5" d="M247.2 83.8l.5 1.5L220 95.9l-.5-1.5z"/><path fill="#707070" fill-opacity=".5" d="M422.4 185.6l-1.2 1-45.1-51.9 1.2-1z"/><path fill="#959595" fill-opacity=".5" d="M115.3 56l-4.6.4-2.6-29.6 4.7-.4z"/><path fill="#3c3c3c" fill-opacity=".5" d="M198.7 123.2l8.3 7-1 1.3-8.3-7z"/><path fill="#3b3b3b" fill-opacity=".5" d="M285.8 88.6l-1.3.8-6.3-10.8 1.4-.8z"/><path fill="#9c9c9c" fill-opacity=".5" d="M205.2 95.2l30-22.6 1.8 2.5-30 22.6z"/><path fill-opacity=".5" d="M392.1 168.7l.1-4.7h1.6v4.8z"/><path fill="#7b7b7b" fill-opacity=".5" d="M109 61.2l-2.7 1.6L86.4 31l2.6-1.6z"/><path fill="#8f8f8f" fill-opacity=".5" d="M94.4 84.4l7.1 3.2-.6 1.4-7.1-3.2z"/><path fill="#9e9e9e" fill-opacity=".5" d="M211 71.7l-.8-1.3 5.4-3 .8 1.3z"/><path fill="#333" fill-opacity=".5" d="M397.4 191.7l-4.4 6.5-1.3-.9 4.4-6.4z"/><path fill="#4b4b4b" fill-opacity=".5" d="M363.7 120.1l9.6 10.3-1.1 1-9.6-10.2z"/><path fill-opacity=".5" d="M211.8 34.7l-2.3 2-1-1 2.3-2.2z"/><path fill="#4f4f4f" fill-opacity=".5" d="M325.5 186.3l11.3 18.8-1.4.8-11.2-18.8z"/><path fill="#696969" fill-opacity=".5" d="M313.3 140.5L320 158l-16 6.2-6.8-17.5z"/><path fill="#575757" fill-opacity=".5" d="M133.2 119l.4 1.6-9 2.5-.4-1.5z"/><path fill="#9f9f9f" fill-opacity=".5" d="M195 49.5l1.5-.3 3.8 21.6-1.5.3z"/><path fill="#5b5b5b" fill-opacity=".5" d="M192.2 185.1l-15.6-10.4 14-20.8 15.6 10.5z"/><path fill="#5c5c5c" fill-opacity=".5" d="M-2 160l32.8-26.5 4 4.9L2 164.9z"/><path fill="#5a5a5a" fill-opacity=".5" d="M302.8 124l14-7.1.7 1.3-14 7.1z"/><path fill="#191919" fill-opacity=".5" d="M222.7 140.8l-.8-1.4 7-3.6.7 1.4z"/><path fill="#7a7a7a" fill-opacity=".5" d="M305.4 6L303-1.4l8.9-3 2.5 7.3z"/><path fill="#4c4c4c" fill-opacity=".5" d="M86.9 142.6l-6 9.2-13-8.5 5.9-9.2z"/><path fill="#565656" fill-opacity=".5" d="M85.5 85.4l7.9-5 .8 1.4-8 5z"/><path fill="#3a3a3a" fill-opacity=".5" d="M328.9 135.5l-3.4 7-2.8-1.4 3.4-7z"/><path fill="#595959" fill-opacity=".5" d="M284.6 20.3l-1.4-.8 21.3-38.2 1.3.7z"/><path fill="#4d4d4d" fill-opacity=".5" d="M307 184.5l.1-3.1 25 1.3-.2 3.1z"/><path fill="#757575" fill-opacity=".5" d="M350.1 103.3l1.5-.6 6 14.3-1.4.7z"/><path fill="#3f3f3f" fill-opacity=".5" d="M39.8 109.8L51.3 97l1.1 1L41 110.8z"/><path fill-opacity=".5" d="M335.5 201l-.6-3 3-.6.6 3z"/><path fill="#6a6a6a" fill-opacity=".5" d="M323.8-6.5L328.7 5l-7.2 3-4.9-11.4z"/><path fill="#3c3c3c" fill-opacity=".5" d="M117.9 12.4l10.8 13.3-1.2 1-10.9-13.4z"/><path fill="#5e5e5e" fill-opacity=".5" d="M129 190.1l-25.4-25.4 3.3-3.3 25.4 25.4z"/><path fill="gray" fill-opacity=".5" d="M268 199.2v-1.6l15.6 1.7-.1 1.5z"/><path fill="#2c2c2c" fill-opacity=".5" d="M83.8 57.7L44.9 26.3l1-1.2 38.9 31.4z"/><path fill-opacity=".5" d="M387.6 173l5.7 2.6-1.2 2.9-5.7-2.6z"/><path fill="#3b3b3b" fill-opacity=".5" d="M100 110l-7.2 6-10-12 7.2-6z"/><path fill="#383838" fill-opacity=".5" d="M227.6 173.5l26.7-21.6 1 1.2-26.8 21.6z"/><path fill="#b4b4b4" fill-opacity=".5" d="M133.1 100.5l-.7 1.4-14-7 .8-1.5zM153.6 49l-7.5 2-1.3-4.6 7.6-2z"/><path fill="#3c3c3c" fill-opacity=".5" d="M70 139.7l-1.6-.2 7-49.5 1.5.2z"/><path fill="#383838" fill-opacity=".5" d="M76.6 52l-6.2-14.4L72 37l6 14.4z"/><path fill="#606060" fill-opacity=".5" d="M153.8 50.3l1.5-.4 1.9 7.6-1.5.4z"/><path fill="#343434" fill-opacity=".5" d="M367.1 113l9 8.7-1 1.2-9-8.7z"/><path fill="silver" fill-opacity=".5" d="M148.5 101.6l1.8-7.6 12.1 2.8-1.7 7.6z"/><path fill="#131313" fill-opacity=".5" d="M317.3 31.5l75.5-47.2.8 1.4-75.5 47.2z"/><path fill="#626262" fill-opacity=".5" d="M208.5 57.6l5.8-2.6.6 1.5-5.7 2.5z"/><path fill="#7b7b7b" fill-opacity=".5" d="M56.2 27.2l2.1-10.7 24.5 4.7-2 10.8z"/><path fill="#8a8a8a" fill-opacity=".5" d="M301.5 93.8l-5.7 2.6-2-4.3 5.8-2.5z"/><path fill="#a1a1a1" fill-opacity=".5" d="M146.8 108l2.5-5.7 8.6 3.8-2.5 5.7z"/><path fill-opacity=".5" d="M373.5 192.4l-.1-1.5 4.6-.5.2 1.5z"/><path fill="#282828" fill-opacity=".5" d="M172 150.6l.6-1.5 13.2 5-.6 1.5z"/><path fill="#747474" fill-opacity=".5" d="M177.6 140.3l1 1.2-4.6 4.1-1-1.1z"/><path fill="#9e9e9e" fill-opacity=".5" d="M363.3 105.7l10 4.4-.7 1.4-10-4.4z"/><path fill="#767676" fill-opacity=".5" d="M114.7 145.1l17 11-4.2 6.6-17-11z"/><path fill="#676767" fill-opacity=".5" d="M215.4 194.7l.1 1.6-85.6 7.4-.1-1.5z"/><path fill="#cbcbcb" fill-opacity=".5" d="M156 62.2l-10.4 3.2-3.2-10.4 10.4-3.2z"/><path fill="#838383" fill-opacity=".5" d="M394 180.8l9-20 1.4.6-9 20z"/><path fill="#616161" fill-opacity=".5" d="M303.8 96.4l-4.6-.8 1.6-9.2 4.7.8z"/><path fill="#545454" fill-opacity=".5" d="M296.9 83l14-.4V84l-14 .5z"/><path fill="#4c4c4c" fill-opacity=".5" d="M196.3 141.5l-.3-1.5 9.2-1.8.3 1.5z"/><path fill="#4e4e4e" fill-opacity=".5" d="M377.8 141.2l-.8 1.3-15.8-10.2.9-1.3z"/><path fill="#7b7b7b" fill-opacity=".5" d="M330.7 149.8l-3.5-3 9.2-10.7 3.6 3.1z"/><path fill="#292929" fill-opacity=".5" d="M28.6 197.6l9.3-1.4.7 4.7-9.3 1.3z"/><path fill="#7d7d7d" fill-opacity=".5" d="M313.3 176.1l-.5 3-43.2-6.8.4-3z"/><path fill="#555" fill-opacity=".5" d="M331 172.5l6.4 8.8-1.2 1-6.5-9z"/><path fill="#787878" fill-opacity=".5" d="M-9 128l-1.2-.9 20.7-25.5 1.2 1z"/><path fill="#1e1e1e" fill-opacity=".5" d="M357.2 135.3l-1.4.7-2-4.1 1.3-.7z"/><path fill="#4a4a4a" fill-opacity=".5" d="M103 81l6 7.2-1.1 1-6-7.1z"/><path fill="#0a0a0a" fill-opacity=".5" d="M208.8 104.1l6.1 1.2-.3 1.5-6.1-1.2z"/><path fill="#868686" fill-opacity=".5" d="M260.2 83.3l3.3 7.1-12.8 6-3.3-7.1z"/><path fill="#7b7b7b" fill-opacity=".5" d="M146.5 172.5L174 158l3 5.5-27.6 14.7z"/><path fill="#898989" fill-opacity=".5" d="M167.8 72.3l-4.6-1 1.8-7.7 4.6 1z"/><path fill="#4b4b4b" fill-opacity=".5" d="M50.8 109.9l-8.2-11.4 5-3.7 8.3 11.4z"/><path fill="#505050" fill-opacity=".5" d="M307.2 6.8l4.1-2.2 8 15.2-4 2.2z"/><path fill="#626262" fill-opacity=".5" d="M249 61.6l1.3-.7 2.3 4-1.4.8z"/><path fill="#c3c3c3" fill-opacity=".5" d="M130 133.1l-1-1.1 8.1-7.3 1 1.1z"/><path fill="#434343" fill-opacity=".5" d="M331.7 116l-15.4 10.8-2.7-3.8 15.4-10.8z"/><path fill="#828282" fill-opacity=".5" d="M347.8 182.1l4.3 15-1.5.5-4.3-15z"/><path fill="#4f4f4f" fill-opacity=".5" d="M269 87.1l6-11 1.4.8-6 11z"/><path fill="#a8a8a8" fill-opacity=".5" d="M165.2 35.7l1.4-.6L177 59.6l-1.4.6z"/><path fill="#8f8f8f" fill-opacity=".5" d="M47.7 142.4l-1.2-4.6 13.6-3.6 1.2 4.5z"/><path fill="#818181" fill-opacity=".5" d="M227.7 96.8l-9-6.1 5.2-7.8 9 6.1z"/><path fill="#919191" fill-opacity=".5" d="M301.8 187l-12.3-2.3 1-4.6 12.2 2.4z"/><path fill="#292929" fill-opacity=".5" d="M321.5 155.4l.8 15.6-1.6.1-.8-15.6z"/><path fill="#939393" fill-opacity=".5" d="M181.8 111.3l-6.2-.7.4-4.7 6.3.7z"/><path fill="#3e3e3e" fill-opacity=".5" d="M226.1 161.3l14-9.8 1 1.2-14.1 9.9z"/><path fill="#888" fill-opacity=".5" d="M49.2 181.7l4 2.4-.8 1.4-4-2.4z"/><path fill="#929292" fill-opacity=".5" d="M319.7 92l-3.1.3-.4-4.7 3.2-.2z"/><path fill="#646464" fill-opacity=".5" d="M324.6 134l-.8-1.3 22-12.1.7 1.4z"/><path fill="#6f6f6f" fill-opacity=".5" d="M226 125.9l20.6-14 1 1.3-20.8 14z"/><path fill="#3f3f3f" fill-opacity=".5" d="M228.6 64.7l-8 4.8-.8-1.3 8-4.9z"/><path fill="#6e6e6e" fill-opacity=".5" d="M260.8 77.8l14-1 .3 3.2-14 1z"/><path fill="#b0b0b0" fill-opacity=".5" d="M215.2 79.7l1 1.1-20.5 19.2-1-1.1z"/><path fill="#454545" fill-opacity=".5" d="M81 197l1-1.3 7.3 5.8-1 1.2z"/><path fill-opacity=".5" d="M141.5 33.6l-6-21L182-.8l6 21z"/><path fill="#b4b4b4" fill-opacity=".5" d="M78.2 196.2l-.2 6.2-4.7-.1.2-6.3z"/><path fill="#474747" fill-opacity=".5" d="M66.5 114.4l-14.8 11.5-1-1.2L65.5 113z"/><path fill="#131313" fill-opacity=".5" d="M98.7 111.9l18.6 3-2 12.3-18.5-3z"/><path fill="#787878" fill-opacity=".5" d="M382.1 120l19.3 10.2-.7 1.4-19.3-10.3z"/><path fill="#9f9f9f" fill-opacity=".5" d="M123.7 66.2L136 50l1.2 1L125 67.2z"/><path fill="#d1d1d1" fill-opacity=".5" d="M173.5 137.5l-.1 4.7h-1.6l.1-4.7z"/><path fill="#8d8d8d" fill-opacity=".5" d="M263.3 89.8l1.3 9.3-23.2 3.3L240 93z"/><path fill="#6f6f6f" fill-opacity=".5" d="M331 114.7l-15.3 3.3-1.3-6.2 15.2-3.2z"/><path fill="#393939" fill-opacity=".5" d="M203.8 109l-8.5 3.8-.7-1.5 8.6-3.8z"/><path fill="#aeaeae" fill-opacity=".5" d="M118.3 110.4l6.5 4.4-.9 1.3-6.5-4.4z"/><path fill="#535353" fill-opacity=".5" d="M402.7 121.7l1.2 1-14.4 16.5-1.2-1z"/><path fill="#696969" fill-opacity=".5" d="M82.4.6L84-3.8 97.3 1l-1.7 4.4z"/><path fill="#656565" fill-opacity=".5" d="M164.7 96l-.8 1.4-8.2-4.4.7-1.4z"/><path fill="#2f2f2f" fill-opacity=".5" d="M112.2 94.1l.8 1.4-11.2 5.7-.7-1.4z"/><path fill="#676767" fill-opacity=".5" d="M199 75.3L170.7 62l.6-1.4 28.3 13.2z"/><path fill="#878787" fill-opacity=".5" d="M44.5 142.2l-1.2 1-1.9-2.6 1.3-1z"/><path fill="#717171" fill-opacity=".5" d="M365.8 163.5l-5.5-3 3.6-6.8 5.5 3z"/><path fill="#7f7f7f" fill-opacity=".5" d="M113.8 40.3l-.4-1.5 24.4-5.7.3 1.6z"/><path fill="#474747" fill-opacity=".5" d="M10.1 165.4l3.2 35.8-6.3.6L4 166z"/><path fill="#404040" fill-opacity=".5" d="M9.6 182.5l18.6-2.3 4.4 35.7-18.6 2.3z"/><path fill="#232323" fill-opacity=".5" d="M253.7 107.2l.3 1.6-6.1 1.2-.3-1.6z"/><path fill="#737373" fill-opacity=".5" d="M361.4 166L342 139.6l1.2-.9 19.3 26.6z"/><path fill="#757575" fill-opacity=".5" d="M98.7 49.6l1.5.5-6.7 17.5-1.5-.5z"/><path fill="#010101" fill-opacity=".5" d="M166.6 141.7l10 7.5-1 1.3-10-7.5z"/><path fill="#767676" fill-opacity=".5" d="M258.2 10.4l.7 1.4-28 13.7-.8-1.4z"/><path fill="#909090" fill-opacity=".5" d="M125.2 27l-.4 11-23.4-1 .4-10.8z"/><path fill="#878787" fill-opacity=".5" d="M150.1 175.3l-21.2-16 3.8-5 21.2 16z"/><path fill="#2a2a2a" fill-opacity=".5" d="M84.1 81.6L82 75.7l7.3-2.6 2.2 5.8z"/><path fill="#888" fill-opacity=".5" d="M154.4 84.5l8.9 3-.5 1.5-8.9-3z"/><path fill="#898989" fill-opacity=".5" d="M98.8 82.6l1.1 1L90.3 94l-1.1-1.1z"/><path fill="#5a5a5a" fill-opacity=".5" d="M174 44.5l2.9-1.3.6 1.4-2.8 1.3z"/><path fill="#616161" fill-opacity=".5" d="M50.5 134.3l-6 1.4-2.9-12.2 6.1-1.4z"/><path fill-opacity=".5" d="M71 48.7L52 79.2 14.9 56l19-30.5z"/><path fill="#444" fill-opacity=".5" d="M308.4 28.2l-5.6-16.3 3-1 5.5 16.2z"/><path fill="#929292" fill-opacity=".5" d="M184 141.2l.7-3 1.6.3-.7 3z"/><path fill="#3d3d3d" fill-opacity=".5" d="M269.5 181.3v1.6l-46.8-3.3v-1.5z"/><path fill="#707070" fill-opacity=".5" d="M260.8 106.8l-25.2 23.5-1-1.2 25-23.4z"/><path fill="#161616" fill-opacity=".5" d="M386.4 195.4l-.7-3 7.6-1.8.7 3z"/><path fill="#3c3c3c" fill-opacity=".5" d="M185.8 142.8l.6-1.4 4.3 1.7-.5 1.5z"/><path fill="#9c9c9c" fill-opacity=".5" d="M221.3 128.5l.4 1.5-19.5 5.6-.5-1.5z"/><path fill="#919191" fill-opacity=".5" d="M65.2-10.3l.8 21.8-11 .4-.7-21.9z"/><path fill="#777" fill-opacity=".5" d="M193.3 124l23.9-7.3.5 1.5-24 7.3z"/><path fill="#696969" fill-opacity=".5" d="M287.2 164.6l-5-14.7 10.3-3.6 5 14.8z"/><path fill="silver" fill-opacity=".5" d="M213.3 50l5.5-3 .7 1.4-5.5 3z"/><path fill="#bbb" fill-opacity=".5" d="M204.7 136l3.7-2.9 1 1.2-3.7 3z"/><path fill="#7c7c7c" fill-opacity=".5" d="M376.7 118l-6-5 1-1.3 6 5z"/><path fill="#b3b3b3" fill-opacity=".5" d="M214.7 74.4l1.5-.2 2 15.5-1.6.2z"/><path fill="#666" fill-opacity=".5" d="M188.4 125.3l1.5-.4 1.4 4.5-1.5.4z"/><path fill="#454545" fill-opacity=".5" d="M274.1 125.5l-7-3.5 4.1-8.4 7 3.4z"/><path fill-opacity=".5" d="M109.9-1.3l29-21.1 18.4 25.3-29 21z"/><path fill="#515151" fill-opacity=".5" d="M13.3 107.8l-1.3-1 17-22.4 1.2 1z"/><path fill="#6c6c6c" fill-opacity=".5" d="M249.3 101.4l.8 1.3-32.2 19.3-.8-1.3z"/><path fill="#1c1c1c" fill-opacity=".5" d="M43.3 112.4l4.2-8.3 1.4.7-4.2 8.3z"/><path fill="#6c6c6c" fill-opacity=".5" d="M43.1 170l-1.5.4-2-10.8 1.6-.3z"/><path fill="#adadad" fill-opacity=".5" d="M132.6 115.4l-14.9-22 1.3-1 14.9 22z"/><path fill="#414141" fill-opacity=".5" d="M216.3 137.3l10.4 7-.9 1.2-10.3-7z"/><path fill="#6d6d6d" fill-opacity=".5" d="M289 204l17.2-16 3.2 3.4-17.2 16z"/><path fill="#212121" fill-opacity=".5" d="M265.8 47.8l50.7-20.5.6 1.5-50.8 20.4z"/><path fill="#454545" fill-opacity=".5" d="M190.6 170.4v-3.1l39.1 1.4v3z"/><path fill="#959595" fill-opacity=".5" d="M271.1 8.6l-1.6-15.5 1.6-.2 1.6 15.6z"/><path fill="#717171" fill-opacity=".5" d="M154 178.5l34.3 2.4-.1 1.5-34.3-2.4z"/><path fill="#7f7f7f" fill-opacity=".5" d="M105.2 4l7.8 11.6-10.3 7-8-11.7z"/><path fill="#656565" fill-opacity=".5" d="M355.3 163.4l1.5-.5 8.2 25.3-1.5.5z"/><path fill="#bfbfbf" fill-opacity=".5" d="M240.8 61.3l1 1.2L217 84l-1-1.2z"/><path fill="#505050" fill-opacity=".5" d="M331.6 163.5l.8-1.3 15.7 10.2-.8 1.3z"/><path fill="#4e4e4e" fill-opacity=".5" d="M43.2 138.2l-10.4 24.5-5.7-2.5 10.4-24.4z"/><path fill="#1f1f1f" fill-opacity=".5" d="M232.8 153.4l1.9-7.5 9 2.2-1.8 7.6z"/><path fill="#787878" fill-opacity=".5" d="M351.1 162.6l-1 4.6-15.3-3.3 1-4.5z"/><path fill-opacity=".5" d="M217.2 4.2l-44.8 31.4-22.4-32 44.8-31.4z"/><path fill="#333" fill-opacity=".5" d="M334.6 125.3l-12.2-7 .8-1.4 12.2 7z"/><path fill="#7c7c7c" fill-opacity=".5" d="M124 126.4l-1.5.2-1.2-7.7 1.5-.2z"/><path fill="#6a6a6a" fill-opacity=".5" d="M389.9 159.8l1.4-.6 1.6 4.5-1.4.5z"/><path fill="#9a9a9a" fill-opacity=".5" d="M186.7 89l-5.5 3-.7-1.3 5.4-3z"/><path fill="#7d7d7d" fill-opacity=".5" d="M138.1 129.1l-.7-1.4 4.2-2.1.7 1.4z"/><path fill="#191919" fill-opacity=".5" d="M178 75h-1.6l.3-4.7h1.6zm-2.6 68.1l6.2 7-2.3 2-6.3-6.9z"/><path fill="#9c9c9c" fill-opacity=".5" d="M123.1 68l1.6.3-5.7 40.2-1.5-.2z"/><path fill="#ababab" fill-opacity=".5" d="M177.2 117.5l1.5-.4 2 7.6-1.6.4z"/><path fill="#0b0b0b" fill-opacity=".5" d="M112.5 122.1l2.3-2.1 11.7 12.6-2.3 2z"/><path fill="#5b5b5b" fill-opacity=".5" d="M258.6 98.5l15.3-3.2.3 1.5L259 100z"/><path fill="#191919" fill-opacity=".5" d="M278 155.1l.7-1.4 4.2 2.1-.7 1.4z"/><path fill="#676767" fill-opacity=".5" d="M175.3 98.5l-.7 1.4-10.9-6.3.8-1.3z"/><path fill="#5b5b5b" fill-opacity=".5" d="M53.3 16L48 27.5l-2.8-1.3 5.2-11.3z"/><path fill="#727272" fill-opacity=".5" d="M292-8.9l-50 51.7-1.1-1 50-51.8z"/><path fill="#878787" fill-opacity=".5" d="M84 159.4l-2.3-7.4 1.5-.5 2.3 7.5z"/><path fill-opacity=".5" d="M34.4 122l5.4 3-.7 1.4-5.5-3z"/><path fill="#8c8c8c" fill-opacity=".5" d="M285.9 172.3l1 3-11.8 4-1-3z"/><path fill="#0b0b0b" fill-opacity=".5" d="M156.6 146.3l6.2-4.8 1 1.2-6.2 4.9z"/><path fill="#030303" fill-opacity=".5" d="M369.7 6.1l-.3-6.2 25-1.3.3 6.2z"/><path fill="#2f2f2f" fill-opacity=".5" d="M160.2 117.4l5-6 1.1.9-4.9 6z"/><path fill-opacity=".5" d="M97.7 79.6l-3.1.1-.1-1.5 3.1-.1z"/><path fill="#2c2c2c" fill-opacity=".5" d="M155.7 136l27.4-6.3.3 1.5-27.4 6.3z"/><path fill="#8d8d8d" fill-opacity=".5" d="M260.5 11l-15 18-1.3-1 15-18z"/><path fill="#909090" fill-opacity=".5" d="M215.3 99.4l-1 1.3-6.1-4.8 1-1.3z"/><path fill="#afafaf" fill-opacity=".5" d="M184.6 103.5l-11.9-4 .5-1.4 11.9 3.9z"/><path fill-opacity=".5" d="M349.3 82.4l-3 10.5-72.1-20.6 3-10.5z"/><path fill="#555" fill-opacity=".5" d="M315.1 121.3l-1.4.7-8.5-16.7 1.4-.7z"/><path fill="#383838" fill-opacity=".5" d="M11.9 124.9l.8-1.3 14.5 9.3-.9 1.3z"/><path fill="#4d4d4d" fill-opacity=".5" d="M394.5 194.4v3.1l-15.6.3v-3.1z"/><path fill="#434343" fill-opacity=".5" d="M170.3 117.5l6.8-6.4 1 1.1-6.8 6.4z"/><path fill="#818181" fill-opacity=".5" d="M263 205.8l31.2-14.6.6 1.5-31.1 14.5z"/><path fill="#292929" fill-opacity=".5" d="M164.9 31.8l-.1 1.6-15.6-1.1v-1.6z"/><path fill="#6d6d6d" fill-opacity=".5" d="M74.5 86.3L71 91.5 64.5 87l3.5-5z"/><path fill="#6b6b6b" fill-opacity=".5" d="M422.8 181.3l-.3 6.2-46.8-1.6.2-6.2z"/><path fill="#9e9e9e" fill-opacity=".5" d="M77 16.1l-4.2-4.6 8-7.3 4.3 4.6z"/><path fill="#2d2d2d" fill-opacity=".5" d="M248.6 121.8l1.4-.7 3 5.5-1.4.7z"/><path fill="#595959" fill-opacity=".5" d="M327.3 168.5l-7.8 15.3-1.4-.7 7.8-15.3z"/><path fill="#858585" fill-opacity=".5" d="M127.4 92.1l.7 1.4-7 3.4-.7-1.4z"/><path fill="#343434" fill-opacity=".5" d="M283.6 98l13.5 10.6-1 1.2-13.5-10.6z"/><path fill="#8b8b8b" fill-opacity=".5" d="M81.4 38.9l2.8-23.3 1.6.2-2.9 23.3z"/><path fill="#555" fill-opacity=".5" d="M150.1 193.5l-.1-1.6 29.6-2.6.1 1.6z"/><path fill="#464646" fill-opacity=".5" d="M243.8 87.2l1.3 4.5-3 .8-1.3-4.5z"/><path fill="#818181" fill-opacity=".5" d="M330 193.8l-1-1.2 5.1-3.6 1 1.3z"/><path fill="#bcbcbc" fill-opacity=".5" d="M134.8 131l10.7 2.2-.6 3-10.7-2.2z"/><path fill="#454545" fill-opacity=".5" d="M9.8 117.4l-4 32.6-1.5-.2 4-32.6z"/><path fill="#797979" fill-opacity=".5" d="M57 178l-1 1.2-14.6-11.8 1-1.3z"/><path fill="#161616" fill-opacity=".5" d="M154.3 135.1l-4.4-1.6.5-1.4 4.4 1.6z"/><path fill="#757575" fill-opacity=".5" d="M359 126.4l3.2.3-1 11-3-.4z"/><path fill="#cacaca" fill-opacity=".5" d="M129.3 126.2l2-2.4 9.7 7.8-2 2.5z"/><path fill="#080808" fill-opacity=".5" d="M197.8 128.6l-2 4.3-1.4-.6 2-4.3z"/><path fill="#4b4b4b" fill-opacity=".5" d="M155 44.5h1.5L156 54h-1.6z"/><path fill="#484848" fill-opacity=".5" d="M215.6 124.8l-23.4.4v-1.6l23.4-.4z"/><path fill="#979797" fill-opacity=".5" d="M235.1 32.4l1.7-10.8 4.7.7-1.8 10.8z"/><path fill="#6b6b6b" fill-opacity=".5" d="M85.2 179.1l38.3 7.5-.9 4.6-38.3-7.5z"/><path fill="#636363" fill-opacity=".5" d="M219.3 73.2l-1.5.4-1.2-4.6 1.5-.4z"/><path fill="#1c1c1c" fill-opacity=".5" d="M279.6 103.4l-15.7 7-1.3-2.9 15.7-7z"/><path fill="#636363" fill-opacity=".5" d="M375 146.3l-1.1-1.1 9-8.7 1 1.1z"/><path fill="#313131" fill-opacity=".5" d="M308.1 120.6l-3-.6.8-4.6 3.1.6z"/><path fill="#b9b9b9" fill-opacity=".5" d="M254.8 70.6l-4 2.4-.9-1.4 4-2.4z"/><path fill="#a0a0a0" fill-opacity=".5" d="M135.4 82l4.3-10 1.4.6-4.2 10z"/><path fill="#545454" fill-opacity=".5" d="M263.8 193.6l1.7-4.3 16 6.1-1.7 4.4z"/><path fill="#515151" fill-opacity=".5" d="M34.6 144l1.3.8L4.5 195l-1.4-.8z"/><path fill="#4c4c4c" fill-opacity=".5" d="M245.1 126.8l1.2 1-11.7 12.6-1.2-1z"/><path fill="#606060" fill-opacity=".5" d="M79 114l.6-1.3 5.6 3-.8 1.3z"/><path fill="#9a9a9a" fill-opacity=".5" d="M186.8 135.2l1-1.2 8.2 7.4-1 1.1z"/><path fill="#444" fill-opacity=".5" d="M175.8 150.4v1.6l-15.7-.8.1-1.6z"/><path fill="#b1b1b1" fill-opacity=".5" d="M153.7 105.3l11.8-10.2 1 1.1-11.7 10.3z"/><path fill="#848484" fill-opacity=".5" d="M183.7 97.6l-6 1.6-.5-1.5 6-1.6z"/><path fill="#878787" fill-opacity=".5" d="M162.7 105.5L149.2 116l-1-1.3 13.6-10.6z"/><path fill="#767676" fill-opacity=".5" d="M187.3 119.8l-3 .9-1.3-4.5 3-1z"/><path fill="#101010" fill-opacity=".5" d="M230.4 140.1l.2-1.5 9.3 1-.2 1.5z"/><path fill="#232323" fill-opacity=".5" d="M87.7 96.2L74 103.6l-.7-1.4L87 94.9z"/><path fill="#525252" fill-opacity=".5" d="M113.9 107.8h-1.6l.4-11 1.6.1z"/><path fill="#4b4b4b" fill-opacity=".5" d="M371 110.8l1.2 1L365 122l-1.3-1z"/><path fill="#949494" fill-opacity=".5" d="M327.5 108.5L348.4 98l.7 1.4-21 10.6z"/><path fill="#989898" fill-opacity=".5" d="M228.6 47.2l-21.5-3.8.2-1.5 21.6 3.8z"/><path fill="#666" fill-opacity=".5" d="M44.2 104.8l-6.3-.3.8-14 6.2.3z"/><path fill="#6e6e6e" fill-opacity=".5" d="M14 118h-26.5v-3.2h26.6z"/><path fill="#040404" fill-opacity=".5" d="M208.7 106.6l-.3 1.5-3-.7.3-1.5z"/><path fill="#0f0f0f" fill-opacity=".5" d="M258.7 153.2L247.2 168l-1.2-1 11.5-14.7z"/><path fill="#868686" fill-opacity=".5" d="M116.1 83.5l2.2-25 1.5.2-2.1 25z"/><path fill="#bdbdbd" fill-opacity=".5" d="M154 119.5h3v3.2h-3z"/><path fill="#5f5f5f" fill-opacity=".5" d="M180.5 134.4v-1.6H196v1.6z"/><path fill="#454545" fill-opacity=".5" d="M69.6 76l12.5 1.1-.2 1.6-12.4-1.1z"/><path fill="#2c2c2c" fill-opacity=".5" d="M225.5 100.5l-8 5-.8-1.3 8-5z"/><path fill="#535353" fill-opacity=".5" d="M249.3 48l-7.8 5-1.8-2.5 8-5.1z"/><path fill="#9f9f9f" fill-opacity=".5" d="M147 84.9l2.3 2-4 4.8-2.4-2z"/><path fill="#747474" fill-opacity=".5" d="M372.3 171l-3.5 3.2-8.3-9.3 3.5-3.1z"/><path fill="#5d5d5d" fill-opacity=".5" d="M326.8 136.4l-.3-3.1 23.3-2.5.3 3.1z"/><path fill="#888" fill-opacity=".5" d="M221 97.2l-1.4 4.5-1.5-.4 1.3-4.5z"/><path fill="#909090" fill-opacity=".5" d="M131.2 120.4l.2-1.5 23.3 2.8-.2 1.6z"/><path fill="#484848" fill-opacity=".5" d="M385.6 166.4l7.2-10.2 1.3.8-7.2 10.3z"/><path fill="#3b3b3b" fill-opacity=".5" d="M22.8 183l-1.2-1L38 159.3l1.3.9z"/><path fill="#999" fill-opacity=".5" d="M160.2 32.5l10.2 7.2-.9 1.2-10.2-7.1z"/><path fill="#191919" fill-opacity=".5" d="M18.9 86l1.2 1-3 3.6-1.2-1z"/><path fill="#767676" fill-opacity=".5" d="M174.5 124l.8-1.4 8 5-.8 1.3z"/><path fill="#6f6f6f" fill-opacity=".5" d="M65.9 182.8l1.5-.4 8.9 33.2-1.5.4z"/><path fill-opacity=".5" d="M259.3 76.7l-1.6-2.8 9.6-5.3 1.5 2.8z"/><path fill="#8c8c8c" fill-opacity=".5" d="M37.1 149.8l3-.8 2.5 9-3 .8z"/><path fill="#646464" fill-opacity=".5" d="M166.1 76.2l-1.2-1 5-6 1.1 1z"/><path fill="#202020" fill-opacity=".5" d="M256.3 168.8l.7 1.3-18 9.6-.7-1.4z"/><path fill="#a3a3a3" fill-opacity=".5" d="M244.8 96.7l-21.5 15.6-1-1.2L244 95.5z"/><path fill="#8a8a8a" fill-opacity=".5" d="M254.6 74.9l.7 1.4L225 89.2l-.6-1.5z"/><path fill="#9a9a9a" fill-opacity=".5" d="M195.7 116l-2-4.1 2.8-1.4 2 4.2z"/><path fill="#6d6d6d" fill-opacity=".5" d="M60.3 144.3l-.5 3.1-15.4-2.7.5-3z"/><path fill="#343434" fill-opacity=".5" d="M360.3 147.1l-10.2-3.7.5-1.5 10.3 3.8z"/><path fill="#2c2c2c" fill-opacity=".5" d="M178.1 86v-1.5l17.2-.3v1.6z"/><path fill="#8b8b8b" fill-opacity=".5" d="M185.3 61.4l5-3.7 1 1.3-5 3.6z"/><path fill="#292929" fill-opacity=".5" d="M355.1 176.6l-10.6 2.9-1.2-4.6 10.6-2.8z"/><path fill="#535353" fill-opacity=".5" d="M277.4 118.4L300 135l-.9 1.2-22.8-16.5z"/><path fill="#3c3c3c" fill-opacity=".5" d="M191.5 78.4l-5.8 2.4-.6-1.4 5.8-2.4z"/><path fill="gray" fill-opacity=".5" d="M209.1 54.3l-.6-1.5 5.8-2.4.6 1.4z"/><path fill="#4a4a4a" fill-opacity=".5" d="M171.2 79.5l-1.3-.9 4.2-6.5 1.3.8z"/><path fill="#525252" fill-opacity=".5" d="M379.6 131l1.2-1 13 15.6-1.2 1z"/><path fill="#b8b8b8" fill-opacity=".5" d="M148.5 118.5l-.8 1.3-4-2.3.8-1.4z"/><path fill="#838383" fill-opacity=".5" d="M82-13.4L67.9 28l-1.4-.5L80.6-14z"/><path fill="#0a0a0a" fill-opacity=".5" d="M67.7 113l-11.5-8 2.7-4 11.5 8.1z"/><path fill="#6f6f6f" fill-opacity=".5" d="M107.6 14.1l9.2 1.5-1 6.2-9.2-1.5z"/><path fill="#7f7f7f" fill-opacity=".5" d="M286.2 5.2l-10.2 14-1.2-1 10-13.9z"/><path fill="#484848" fill-opacity=".5" d="M197.8 136.1l-.2-1.5 3-.4.3 1.5z"/><path fill="#414141" fill-opacity=".5" d="M326.2 168l1 1.2-14.3 14.3-1.1-1z"/><path fill="#080808" fill-opacity=".5" d="M299.6 129l9.6 8-1 1.2-9.6-8z"/><path fill="#2b2b2b" fill-opacity=".5" d="M249.2 107.9l8.8-3.2.6 1.5-8.8 3.2z"/><path fill="#9f9f9f" fill-opacity=".5" d="M177.4 125.3l-5.8 2.4-.6-1.4 5.8-2.5z"/><path fill="#282828" fill-opacity=".5" d="M37 165.6l1.4.8-8.3 13.3-1.3-.8z"/><path fill="#363636" fill-opacity=".5" d="M260.9 161.6l.8 1.4-24.1 14.4-.8-1.3z"/><path fill="#444" fill-opacity=".5" d="M333.6 201.3l-16.2-5.8.6-1.5 16.1 5.9z"/><path fill="#0e0e0e" fill-opacity=".5" d="M2 24.3L12.5 7l2.7 1.6L4.7 26z"/><path fill="#979797" fill-opacity=".5" d="M91.6 191.3l22.3 14.5-.8 1.3-22.3-14.5z"/><path fill="#434343" fill-opacity=".5" d="M269.6 37.2l.4 1.5-22.4 6.9-.4-1.5z"/><path fill="#a8a8a8" fill-opacity=".5" d="M217.4 70.9l-1.3-1 8.7-11 1.2.9z"/><path fill="#484848" fill-opacity=".5" d="M96.7 96.3l-2.8 15.4-1.5-.2L95.1 96z"/><path fill-opacity=".5" d="M112.2 98.9l.5 3-4.6.8-.5-3.1z"/><path fill="#777" fill-opacity=".5" d="M259.8 38.2l-19.2-20.6 1.2-1L260.9 37z"/><path fill="#606060" fill-opacity=".5" d="M101.6 174.8l-1.3 1L87.5 158l1.2-.9z"/><path fill="#242424" fill-opacity=".5" d="M209.9 61.9l-1.3-1 1.8-2.5 1.3 1z"/><path fill="#818181" fill-opacity=".5" d="M202 104.4l.7-7.8 6.2.6-.7 7.7z"/><path fill="#525252" fill-opacity=".5" d="M280.6 211.6l-.7 1.5-87-38.8.6-1.4z"/><path fill="#737373" fill-opacity=".5" d="M256.3 78l3.3 3.4-11.2 10.9-3.3-3.4z"/><path fill="#3e3e3e" fill-opacity=".5" d="M157.2 147.6l-13.6-7.9.8-1.3 13.5 7.8z"/><path fill-opacity=".5" d="M183.6 82.7l.3-1.5 18.4 3.3-.2 1.5z"/><path fill="#4c4c4c" fill-opacity=".5" d="M252.4 118.6l-1.2 1-2-2.3 1.1-1z"/><path fill="#585858" fill-opacity=".5" d="M7.1 132.9l-1.2-1 7.3-10 1.3.8z"/><path fill="#4f4f4f" fill-opacity=".5" d="M119.4 119.2l3-.9.4 1.6-3 .8z"/><path fill="#696969" fill-opacity=".5" d="M65.5 123.6l-4.7-.3.3-4.7 4.7.3z"/><path fill="#707070" fill-opacity=".5" d="M385.2 114.4l1.5.5-7.8 25.4-1.5-.5z"/><path fill="#464646" fill-opacity=".5" d="M183.7 115.8l-.2 1.5-3.1-.3.2-1.5z"/><path fill="#888" fill-opacity=".5" d="M88 35.1l24-66 1.5.5-24 66z"/><path fill="#8c8c8c" fill-opacity=".5" d="M257.8 7.2l.9 1.3-11.8 7.7-.9-1.3z"/><path fill="#4d4d4d" fill-opacity=".5" d="M293.3 25.8l1-1.2L299 29l-1 1.1z"/><path fill="#676767" fill-opacity=".5" d="M313.7 189.1l33-9.4.5 1.5-33 9.4z"/><path fill="#818181" fill-opacity=".5" d="M279.7 179.2l6.8-12.3 4.1 2.3-6.8 12.3z"/><path fill="#6c6c6c" fill-opacity=".5" d="M188.7 108l3.4 3.2-1 1.1-3.5-3.2z"/><path fill="#515151" fill-opacity=".5" d="M135.7 140.2l-10.7-2.3.3-1.5 10.7 2.3z"/><path fill="#4c4c4c" fill-opacity=".5" d="M59.7 146.2l3.7-10.3 19.1 7-3.7 10.2z"/><path fill="#353535" fill-opacity=".5" d="M167.4 79l-.4-3.1 1.6-.2.3 3.1z"/><path fill="#050505" fill-opacity=".5" d="M263.3 127.7l14.1 22.5-8 5-14-22.6z"/><path fill="#a0a0a0" fill-opacity=".5" d="M70 201l2.9-7.2 8.7 3.6-3 7.2z"/><path fill="#585858" fill-opacity=".5" d="M330.8 156.5l-1.1 1.1-15.2-15.7 1.1-1z"/><path fill="#363636" fill-opacity=".5" d="M9.5 138l1.4.6-6.4 12.6-1.4-.8z"/><path fill="#7d7d7d" fill-opacity=".5" d="M220.7 117.9l-.8-1.4 29.8-17.2.7 1.4z"/><path fill="#2b2b2b" fill-opacity=".5" d="M77.5 126.2l1.3-2.9 32.8 14.6-1.3 2.9z"/><path fill="#2c2c2c" fill-opacity=".5" d="M417.7 48.5l-8.7 11-28.3-22 8.7-11.1z"/><path fill="#727272" fill-opacity=".5" d="M327.2 104.8l-.8-1.3 10.4-6.8.9 1.3z"/><path fill="#525252" fill-opacity=".5" d="M215.6 184l-48.4.8v-1.6l48.4-.8z"/><path fill="#828282" fill-opacity=".5" d="M94.7 52.3L96 33.6h1.5l-1.3 18.8z"/><path fill="#202020" fill-opacity=".5" d="M168 116l-.1 1.6-9.4-.8.2-1.6z"/><path fill-opacity=".5" d="M55.3 196.4l-15.5-2.2.2-1.5 15.5 2.1z"/><path fill="#5c5c5c" fill-opacity=".5" d="M79.4 93.2l-25.5 7.3-.5-1.5L79 91.7z"/><path fill="#646464" fill-opacity=".5" d="M363.2 105.7l1.2 1-4.1 4.8-1.2-1z"/><path fill="#454545" fill-opacity=".5" d="M214.8 80.2l-2.8 1.3-3.4-7 2.8-1.4z"/><path fill="#9d9d9d" fill-opacity=".5" d="M164.9 129.5l-1.4-.6 4.4-10 1.4.6z"/><path fill="#5f5f5f" fill-opacity=".5" d="M185.9 143l1 1.1-2.4 2-1-1.2z"/><path fill="#343434" fill-opacity=".5" d="M207.5 82.7l.6-4.7 1.6.3-.7 4.6z"/><path fill="#6d6d6d" fill-opacity=".5" d="M33.3 108.2l-7.8.8-1-9.3 7.8-.9z"/><path fill="#a0a0a0" fill-opacity=".5" d="M144.7 138.2l-.2-1.5 9.2-1.5.3 1.6z"/><path fill-opacity=".5" d="M208.7 79l-.3 1.5-9.2-1.6.2-1.6z"/><path fill="#828282" fill-opacity=".5" d="M154.5 37l-3 .8-1.3-4.5 3-.8z"/></svg>