<svg xmlns="http://www.w3.org/2000/svg" viewBox="0 0 800 400"><path fill="#494949" d="M0 0h800v400H0z"/><g fill-opacity=".5"><path fill="#c3c3c3" d="M86-17.2l193.7 296.9 300-109.4z"/><path d="M832.8 239l-350-121.8L795.3-48.4zM-26.6-48.4l-21.8 240.6 250-53.1zm400 146.8L167.2-23.4l428.1-25z"/><path fill="#b6b6b6" d="M604.7-48.4L373.4 107.8l81.3 62.5z"/><path fill="#969696" d="M79.7 448.4l340.6-71.8L257.8 264z"/><path d="M514 117.2l293.8-150 3.1 268.7zM389 304.7l143.8 53.1 78.1-175z"/><path fill="#888" d="M511 448.4L792.1 236 639 170.3z"/><path fill="#cfcfcf" d="M351.6 67.2L235.9 82.8 267.2 311z"/><path d="M-26.6 192.2l3.2-240.6 200 187.5zM164-48.4l362.6 53-240.7 65.7zm168.8 193.7l112.5-9.4-65.6 50z"/><path fill="#121212" d="M11 245.3l193.7-62.5 62.5 93.8z"/><path d="M479.7 76.6l59.4 103 296.8-75z"/><path fill="#9d9d9d" d="M686 182.8l-175-15.6 228 90.6z"/><path fill="#909090" d="M-23.4-39L217.2-4.8 279.7 139z"/><path fill="#848484" d="M339 289l162.6-34.3v-150z"/><path d="M532.8-11L311-42.1 364.1 111zM64 448.4l-6.2-118.7 125 118.7z"/><path fill="#6e6e6e" d="M142.2 223.4l50 225L29.7 276.6z"/><path fill="#c7c7c7" d="M517.2 139l-84.4-62.4-6.2 84.3z"/><path fill="#444" d="M214 95.3l18.8 121.9-100-168.8z"/><path d="M792.2 357.8L673.4 254.7l115.7 56.2z"/><path fill="#707070" d="M720.3 298.4l78.1 75-271.8 31.3z"/><path d="M842.2 273.4L723.4-7.8 611 107.8z"/><path fill="#797979" d="M376.6 154.7L710.9-26.6 567.2-48.4z"/><path fill="#080808" d="M548.4 192.2l-128 125 203-87.5z"/><path d="M-29.7-48.4l-18.7 178L214 164.2z"/><path fill="#4a4a4a" d="M657.8 276.6l-140.6-56.3L707.8 411z"/><path fill="#1b1b1b" d="M326.6 239l118.7-31.2-62.5-3.1z"/><path d="M548.4-11L201.6-32.7l71.8 103.1zM304.7 286h121.9L389 311z"/><path fill="#828282" d="M848.4 279.7l-46.8 103.1-47-165.6z"/><path fill="#969696" d="M398.4 329.7L261 282.8l-25 56.3z"/><path fill="#747474" d="M70.3 164h178.1l-296.8 84.4z"/><path fill="#4c4c4c" d="M595.3 376.6l-168.7-68.8-243.8 140.6z"/><path d="M417.2 148.4l-75 12.5 68.7 12.5z"/><path fill="#6a6a6a" d="M507.8 142.2l143.8 37.5-297 34.4z"/><path fill="#ababab" d="M451.6 189l-218.8 47 6.3-84.4z"/><path d="M539 245.3l-90.6 46.9 118.8 28.1zm137.6 153.1l12.5 50 71.8-68.7z"/><path fill="#656565" d="M101.6 329.7l250-87.5L139 395.3z"/><path fill="#414141" d="M751.6 70.3l96.8 59.4-93.7-118.8z"/><path fill="#8b8b8b" d="M607.8 376.6l37.5-78.2-112.5 50z"/><path fill="#141414" d="M426.6 242.2l-84.4 25h56.2z"/><path d="M236 45.3l309.3-93.7-128.1 125z"/><path fill="#090909" d="M151.6 186l-72 75H20.4zm90.6 81.2L173.4 289l47-103.2z"/><path d="M517.2 148.4l231.2-150-3 181.3z"/><path fill="#aaa" d="M482.8 48.4l-103.1 50 75 18.8z"/><path fill="#2b2b2b" d="M332.8 289l12.5-25-87.5-25z"/><path fill="#585858" d="M336 161l90.6-31.3-106.3-6.3z"/><path fill="#989898" d="M336 267.2l90.6 3.1-65.7 21.9z"/><path fill="#bbb" d="M270.3 267.2l3.1-187.5L361 89z"/><path fill="#b4b4b4" d="M339 248.4l90.7-6.2 40.6-40.6z"/><path fill="#484848" d="M457.8 70.3l31.3 37.5 143.7-59.4z"/><path fill="#151515" d="M339 223.4h-37.4l31.2 15.7z"/><path fill="#282828" d="M714 351.6l-65.6-34.4-12.5 43.7z"/><path d="M173.4 136l-221.8 62.4 37.5-228z"/><path fill="#898989" d="M276.6 70.3l-68.8 71.9-65.6-190.6z"/><path fill="#717171" d="M326.6 154.7l18.7-15.6-43.7-65.7z"/><path fill="#868686" d="M701.6 339l46.8-18.7-90.6-53.1z"/><path fill="#4d4d4d" d="M629.7 214L739 267.3l-153.2 12.5z"/><path fill="#444" d="M92.2 239l150 147-65.6-178.2z"/><path fill="#b8b8b8" d="M511 148.4l-125 43.8 87.4-71.9z"/><path fill="#9f9f9f" d="M426.6 282.8l68.7-46.9-93.7 31.3z"/><path d="M623.4 164l218.8-68.7-21.9 134.4zM111 395.3l-50 25 12.4-90.6z"/><path fill="#464646" d="M451.6 204.7l-68.8 6.2 125-46.8z"/><path fill="#9a9a9a" d="M229.7 207.8l156.2 46.9-140.6-3.1z"/><path d="M789 329.7l-37.4-12.5 28 40.6zm-356.2-350H304.7l65.6 131.2zm171.9 268.7l15.6-37.5-65.6 9.4z"/><path fill="#545454" d="M511 145.3l118.7 71.9-90.6-21.9z"/><path fill="#7d7d7d" d="M82.8 236l46.9 40.6L89 295.3z"/><path d="M720.3 292.2l-12.5-34.4-9.4 25z"/><path fill="#616161" d="M226.6 195.3l-90.7-43.7L1.6 192.2z"/><path fill="#626262" d="M414 101.6l6.3 50 34.4-22z"/><path fill="#070707" d="M339 270.3l12.6 31.3-59.4-9.4z"/><path fill="#969696" d="M579.7 179.7l162.5 31.2-34.4 34.4z"/><path fill="#b1b1b1" d="M282.8 64l43.8 3.2 43.7 40.6z"/><path fill="#4e4e4e" d="M770.3 226.6l-40.6 3 25 97z"/><path fill="#656565" d="M382.8 314l131.3 134.4-322-78z"/><path fill="#a4a4a4" d="M179.7 373.4L289 414.1l-78.2 34.3z"/><path d="M395.3 276.6l40.6 25-68.7 3z"/><path fill="#424242" d="M517.2 204.7l-65.6 53.1h-75z"/><path fill="#676767" d="M323.4 192.2l59.4 3.1-62.5-28.1z"/><path fill="#a8a8a8" d="M301.6 295.3l-56.3-9.4 62.5 43.8z"/><path fill="#2c2c2c" d="M542.2 364l-96.9-6.2-6.2-87.5z"/><path fill="#ababab" d="M273.4 254.7l18.8 21.9 34.4 3z"/><path fill="#a2a2a2" d="M492.2 176.6l34.4 3L439 236z"/><path fill="#5d5d5d" d="M582.8 267.2l21.9-21.9-81.3-9.4z"/><path fill="#c1c1c1" d="M486 126.6h-59.4l28-34.4z"/><path fill="#5f5f5f" d="M-26.6 201.6l134.4-43.8L-4.7 286z"/><path fill="#7b7b7b" d="M36-26.6l103 100 31.3-31.2z"/><path fill="#828282" d="M695.3 401.6L686 364l31.3-9.4z"/><path d="M289 67.2l-87.4-81.3L414 17.2z"/><path fill="#151515" d="M832.8 376.6l15.6 68.7-225-43.7z"/><path fill="#6a6a6a" d="M704.7 282.8l-150 3.1 28.1 43.8z"/></g></svg>