<svg xmlns="http://www.w3.org/2000/svg" viewBox="0 0 400 200"><path fill="#494949" d="M0 0h400v200H0z"/><g transform="translate(.8 .8) scale(1.5625)" fill-opacity=".5"><ellipse fill="#c9c9c9" rx="1" ry="1" transform="matrix(-1.21568 -29.00517 47.3626 -1.98508 118 53.2)"/><path d="M255 73l5-89-107 51z"/><ellipse rx="1" ry="1" transform="matrix(-53.59103 -20.78659 8.78005 -22.6363 0 25.2)"/><ellipse rx="1" ry="1" transform="matrix(-1.94022 -26.17196 42.12565 -3.12293 117 0)"/><path fill="#bcbcbc" d="M19.6 3.8L41-20l71.4 64.2L91 68z"/><ellipse fill="#8f8f8f" cx="78" cy="113" rx="46" ry="21"/><ellipse cx="234" cy="37" rx="73" ry="20"/><path d="M171 114l-47-19 64-30z"/><path fill="#b1b1b1" d="M118.2 34.2L187-12.2l6.8 10L125 44.2z"/><path fill="#131313" d="M106.2 56.3l29.8-1V41.1l-10-56z"/><path fill="#8b8b8b" d="M237 71.7l10.5-12.8-70.3 84.1 22.3-92.5z"/><ellipse rx="1" ry="1" transform="matrix(-51.23476 1.19042 -.51506 -22.16806 6.1 34)"/><path fill="#b4b4b4" d="M110.7 23.8l-17 89-9.2-9-18-87.8z"/><ellipse rx="1" ry="1" transform="matrix(-2.53047 -17.32455 47.95586 -7.00455 118.4 1.7)"/><path fill="#b0b0b0" d="M101.2 31.6l13.1 12.7 50 4.2L153 26.7z"/><path d="M267-16l-8 89-98-35z"/><path fill="#0d0d0d" d="M47.4 64l24.2-6 7 28-24.2 6z"/><path d="M126.2-5.2l15.4 18.4-23.8 20-15.4-18.4zM21.1 143l-4.8-32.4 3-4.6 25 25.3z"/><ellipse fill="#717171" cx="128" cy="76" rx="32" ry="15"/><ellipse fill="#6f6f6f" rx="1" ry="1" transform="rotate(71.7 23.5 197.4) scale(21.99828 33.75241)"/><ellipse fill="#949494" rx="1" ry="1" transform="matrix(43.2476 17.91374 -2.69074 6.496 225.2 71.1)"/><ellipse cy="30" rx="30" ry="30"/><path fill="#020202" d="M200 72l-27-11-32 45z"/><path fill="#727272" d="M29.3 49.3l38 3.6-5.2 5.3L-15.6 79z"/></g></svg>