<svg xmlns="http://www.w3.org/2000/svg" viewBox="0 0 100 50"><path fill="#4b4b4b" d="M0 0h100v50H0z"/><g fill-opacity=".5"><path fill="#c5c5c5" d="M17.5-.5l52 20-35 16z"/><path d="M110.5-14.5l-47 29 52 18zm-86 31l-40 9 14-30zm3-14l59-18-39 27z"/><path fill="#848484" d="M.5 65.5l79-81-36 67z"/><path d="M45.5 37.5l28-12-7 19zm19-21l43 11 8-43z"/><path fill="#8d8d8d" d="M59.5 65.5l20-45 14 6z"/><path fill="#c8c8c8" d="M35.5 38.5l-6-28 14-3z"/><path d="M-15.5-15.5v37l40-4zm85 12l-43 3 19 9zm-28 20l4 6 7-4z"/><path fill="#c5c5c5" d="M48.5 13.5l14 3-4-11z"/><path fill="#9d9d9d" d="M-6.5-9.5l59 37-39-43z"/><path fill="#1e1e1e" d="M52.5 37.5l-33-15-14 8z"/><path d="M103.5 30.5l-42-20 29-5zm-95 10l-1 25h20z"/><path fill="#6f6f6f" d="M71.5 19.5l-16 16-17-8z"/><path fill="#8b8b8b" d="M108.5 43.5l-5-14-28-9z"/><path fill="#a7a7a7" d="M40.5 43.5l-6-22-3 19z"/><path d="M47.5 10.5l-39-26h79z"/><path fill="#070707" d="M79.5 28.5l-27 10 17-14z"/><path fill="#797979" d="M7.5 40.5l36 23-30-33z"/><path fill="#666" d="M77.5 48.5l24-4-32-15z"/><path fill="#898989" d="M91.5-15.5l-44 27 32-9z"/><path d="M-15.5 26.5l7-42 27 32z"/><path fill="#020202" d="M89.5 35.5l8 2 2 7z"/><path d="M83.5 4.5l-20 15h52z"/><path fill="#161616" d="M25.5 32.5l4-4-2-13z"/><path d="M55.5 4.5l-36-20 15 23z"/><path fill="#737373" d="M10.5 19.5l17 2-29 7z"/><path fill="#a8a8a8" d="M81.5 22.5l6 6-13-5z"/><path fill="#bfbfbf" d="M56.5 11.5l7 4-12 7z"/><path fill="gray" d="M30.5 22.5l-33-38 28 2z"/><path fill="#c7c7c7" d="M40.5 17.5l-10 12 5-20z"/><path fill="#080808" d="M98.5 47.5l17 17-64-12z"/><path fill="#8f8f8f" d="M84.5 35.5l9 4-5 3z"/><path d="M48.5 20.5h4v-5zm34-4l8-16 23 38z"/><path fill="#acacac" d="M57.5 29.5h-12l19-6z"/><path fill="#161616" d="M60.5 40.5l-21-4 41-5z"/><path fill="#515151" d="M53.5 37.5l-35 26 55-17z"/><path fill="#505050" d="M64.5 25.5l-21 7h18z"/><path d="M71.5 18.5l20-9-29 4zm-26-28l35-6-35 28z"/><path fill="#4b4b4b" d="M86.5 45.5l-6-12-15-5z"/><path fill="#6c6c6c" d="M42.5 27.5l19-10 17 4z"/><path fill="#404040" d="M113.5 26.5l2-23-22 1z"/><path fill="#a2a2a2" d="M103.5 7.5l10 58-14-21z"/><path d="M8.5 45.5l15 7-7 13z"/><path fill="#171717" d="M9.5 25.5l-5 8 17-10z"/><path d="M28.5 19.5l-44-7 23-8z"/><path fill="#8c8c8c" d="M80.5 47.5l-6-9-6 5z"/><path fill="#020202" d="M38.5 36.5l-3-2h7z"/><path fill="#4c4c4c" d="M82.5 33.5l-7-7 22 7z"/><path fill="#5d5d5d" d="M24.5 25.5l-40 31 11-19z"/><path fill="#0e0e0e" d="M70.5 39.5l-10 6 6-21z"/><path fill="#b5b5b5" d="M58.5 57.5l-35-10 8 10z"/><path fill="#b2b2b2" d="M28.5 21.5l14-13-8 25z"/><path fill="#1f1f1f" d="M39.5 31.5v6l5-6z"/><path fill="#0f0f0f" d="M55.5 24.5l-6 2 2-2z"/><path fill="#9b9b9b" d="M42.5 26.5l15-6h-21z"/><path fill="#353535" d="M49.5 17.5l-2 4-7-6z"/><path fill="#909090" d="M57.5 29.5l5-1-6 4z"/><path fill="#535353" d="M75.5 4.5l-19 5 5 3z"/><path fill="#747474" d="M49.5 44.5l-25-8 34 29z"/><path fill="#595959" d="M13.5 3.5l13 9 3 11z"/><path fill="#404040" d="M65.5 9.5l20-13-4 9z"/><path fill="#bebebe" d="M52.5 31.5h3l-1 2z"/><path fill="#ccc" d="M44.5 11.5l-3-3 1 6z"/><path fill="#b2b2b2" d="M56.5 12.5l-5 10 11-5z"/><path fill="#9d9d9d" d="M57.5 5.5l1 6-12 4z"/><path fill="#565656" d="M39.5 47.5l-30-7 7-6z"/><path fill="#b5b5b5" d="M46.5 35.5h-2l-1-2z"/><path fill="#aaa" d="M65.5 20.5l-9 6h4z"/><path fill="#727272" d="M-15.5 51.5l24-31-24 13z"/><path fill="#111" d="M31.5 32.5l-5-9-5 7z"/><path fill="#414141" d="M65.5 49.5l6-4-24-7z"/><path fill="#787878" d="M56.5 15.5l-3-2-1 7z"/><path d="M36.5 8.5l-18-23 16-1z"/><path fill="#969696" d="M41.5 36.5h-9l10 6z"/><path fill="#b5b5b5" d="M39.5 24.5l-11 4 13-12z"/><path d="M75.5 29.5v-3l-2 3z"/><path fill="#484848" d="M94.5 27.5v7l-3-7z"/><path fill="#747474" d="M79.5 34.5l1 21-11-14z"/><path fill="#8d8d8d" d="M34.5 8.5l-26-15 22 22z"/><path fill="#444" d="M46.5 26.5h-7v2z"/><path fill="#4a4a4a" d="M79.5 41.5h10l-19 24z"/><path fill="#2d2d2d" d="M87.5 42.5l-8 1 1-4z"/><path fill="#919191" d="M91.5 25.5l-18-3 16 8z"/><path fill="#767676" d="M88.5 36.5l-2 6-8-14z"/><path d="M19.5 16.5l-11-11-16 19z"/><path fill="#313131" d="M16.5 34.5l6-4 14 4z"/><path fill="#c5c5c5" d="M43.5 30.5l7-2h-6z"/><path fill="#6a6a6a" d="M76.5 21.5l-3 3-10-5z"/><path fill="#0e0e0e" d="M51.5 30.5l-1 2h-3z"/><path fill="#797979" d="M90.5 44.5l3 3-12-1z"/><path fill="#373737" d="M42.5 27.5l3 1h-6z"/><path fill="#090909" d="M48.5 18.5h-6l2 2z"/><path fill="#999" d="M33.5 23.5l-4 4v-10z"/></g></svg>