<svg xmlns="http://www.w3.org/2000/svg" viewBox="0 0 400 200"><path fill="#494949" d="M0 0h400v200H0z"/><g fill-opacity=".5"><path fill="#c9c9c9" d="M116.4 39.8h132.8v87.5H116.4z"/><path d="M280.5 7h120.3v84.4H280.5zM.8 22.7h75v62.5H.8zM122.7.8H232v32.8H122.7z"/><path fill="#b6b6b6" d="M54 .8h59.3v40.6H53.9z"/><path fill="#aaa" d="M113.3 30.5h48.4v170.3h-48.4z"/><path d="M333.6.8h67.2v101.5h-67.2zM229 108.6h53v57.8h-53z"/><path fill="#050505" d="M175.8.8h34.4v87.5h-34.4z"/><path fill="#7b7b7b" d="M293 93h71.8v103H293z"/><path d="M.8 2.3h40.6v86H.8zM257 36.7h134.4V79H257z"/><path fill="#b7b7b7" d="M94.5 47.7H243v21.8H94.5z"/><path fill="#8e8e8e" d="M250.8.8h65.6v29.7h-65.6z"/><path d="M86.7 113.3h40.6v28.1H86.7z"/><path fill="#797979" d="M55.5 155.5h142.2v45.3H55.5z"/><path d="M130.5.8H221v32.8h-90.6z"/><path fill="#979797" d="M249.2 85.2h78.1v15.6h-78z"/><path d="M.8 33.6h82.8v43.7H.8zm273.4 71.9h34.4v18.7h-34.4z"/><path fill="#8b8b8b" d="M218 25.8h32.8V132H218z"/><path d="M174.2 144.5h100v14h-100zM108.6.8h143.7v14H108.6zm242.2 48.4h50v56.3h-50z"/><path fill="#949494" d="M69.5 24.2h61v25h-61z"/></g></svg>