<svg xmlns="http://www.w3.org/2000/svg" viewBox="0 0 400 200"><path fill="#494949" d="M0 0h400v200H0z"/><path fill="#bdbdbd" fill-opacity=".5" d="M102.3 25l154.4 24.5-13.7 86.4-154.4-24.4z"/><path fill-opacity=".5" d="M319.4-52L467.7 2l-44.9 123.4-148.3-54zM1.1-20.2l75 77.5-50.7 48.9-74.9-77.6zm130.8-16.6l94 45.9-21.8 45L110 8z"/><path fill="#b5b5b5" fill-opacity=".5" d="M170.6 37.7l-21.2 172.1-43.4-5.3 21.1-172.1z"/><path fill="#aeaeae" fill-opacity=".5" d="M16.2-8.4L41.7-40 173 66.2l-25.6 31.6z"/><path fill="#040404" fill-opacity=".5" d="M58.6 48.2l20.8-10.7 51.1 100.3-20.9 10.6z"/><path fill-opacity=".5" d="M273.2 91.7l33.3 26-50 64-33.3-26zm67.4-108.5l112 52.2-41.7 89.2L299 72.4z"/><path fill="#9b9b9b" fill-opacity=".5" d="M209.5 80.3l-19.3-28.5 142.5-96.1L352-15.8z"/><path fill="#bdbdbd" fill-opacity=".5" d="M370 109.9l-8 18.7-64.7-27.5 7.9-18.7z"/><path fill-opacity=".5" d="M351 93.8L244.6 69.2l9.1-39.6 106.6 24.6zM249.4-33.5l10.2 44.2-132.4 30.6L117-3zM208.7 87.9l-40.3-5.7 2.6-18.5 40.3 5.6zM-18.2 33l68.8-21 19.1 62.8L1 95.8z"/><path fill="#7a7a7a" fill-opacity=".5" d="M253.4 199.6l65.8-81.4 57.1 46.3-65.9 81.3z"/><path fill="#797979" fill-opacity=".5" d="M198 219.6l-140.5-4.9 2.3-64 140.5 4.9z"/><path fill-opacity=".5" d="M192.1-20.6l34 46.8-41.7 30.3-34-46.8z"/><path fill="#838383" fill-opacity=".5" d="M20.4 99.4l-1.1-10.8L128 77l1.2 10.9z"/><path fill="#a6a6a6" fill-opacity=".5" d="M277.7 91.8l-16 17.2L199 50.4l16-17.2z"/><path fill-opacity=".5" d="M174 148.1l96-11.8 1.4 10.9-96.2 11.8zM21.3 187.4l13.6-15 36 32.4-13.6 15z"/><path fill="#666" fill-opacity=".5" d="M162.5 116.5L250 83l14 36.5-87.5 33.6z"/><path fill="#565656" fill-opacity=".5" d="M238.4 57.3L233.1 46 350.7-8.8l5.2 11.3z"/><path fill-opacity=".5" d="M67.6 97.6l5.3 9.5-45.1 25-5.3-9.5zM1.8-30l55.5 92.5L-.3 97.1-55.8 4.7zm243.6 43.1l-63 37.8-16.9-28 63-38z"/><path fill="#818181" fill-opacity=".5" d="M437.5 147L424 169.9l-72.4-43.4 13.7-22.8z"/><path fill="#828282" fill-opacity=".5" d="M96.6-16.9L137.8 42 95.6 71.6l-41.2-59z"/><path fill-opacity=".5" d="M356.9 25l8.4 36.6-105 24.3-8.4-36.6z"/><path fill="#c9c9c9" fill-opacity=".5" d="M216.2 116.4l-57.3 15.4-1.7-6 57.4-15.4z"/><path fill-opacity=".5" d="M136 136.8l46.8 12.5-1.6 6-46.8-12.5z"/><path fill="#5b5b5b" fill-opacity=".5" d="M117.7 68.1l-7.9 9.7L-6.8-16.6l8-9.7z"/><path fill="#0c0c0c" fill-opacity=".5" d="M261.9 116.3l22.7 44.6-41.8 21.2-22.7-44.5z"/><path fill="silver" fill-opacity=".5" d="M178 45.8L139 119l-24.8-13.2 39-73z"/><path fill="#181818" fill-opacity=".5" d="M81.8 148.2L69 111.3l41.3-14.2L123 134z"/><path fill-opacity=".5" d="M462.6 100.2L431.2 145 310.9 60.7 342.2 16z"/><path fill="#6e6e6e" fill-opacity=".5" d="M24.4 137.7l28.7-16 30.3 54.7-28.7 16z"/><path fill="#6f6f6f" fill-opacity=".5" d="M49 80.4l7.5 18.9-69.5 28-7.6-18.8z"/><path fill="#a1a1a1" fill-opacity=".5" d="M188 71.4l-6.7-8.8 101.1-76.1 6.6 8.7z"/><path fill="#c8c8c8" fill-opacity=".5" d="M251.7 63.4l-49.2 38.4-5.8-7.3L246 56z"/><path fill-opacity=".5" d="M211.8 72.4l2.1 9.1-30.4 7-2.1-9zm149 76.4l9-8.7 30.4 31.5-9 8.6z"/><path fill="#aeaeae" fill-opacity=".5" d="M229 136.6l-56 4.9-.4-4.7 56-4.9z"/><path fill="#8f8f8f" fill-opacity=".5" d="M287.4 149.5l29.5 17.7-15.3 25.5-29.4-17.7z"/><path fill="#070707" fill-opacity=".5" d="M317.8 207.8l-.8-7.8 88.6-9.3.8 7.7z"/><path fill="#727272" fill-opacity=".5" d="M228.6 91l3.5-20 81.5 14.5-3.5 20z"/><path fill-opacity=".5" d="M7 48.4l71.5-7.5L82 75l-71.5 7.5z"/><path fill="#2f2f2f" fill-opacity=".5" d="M193.5 137.7l-2.6-5.7 82.8-37 2.6 5.7z"/><path fill="#afafaf" fill-opacity=".5" d="M402.9 142.4l-4.2 48.3-3.1-.3 4.2-48.3z"/><path fill="#545454" fill-opacity=".5" d="M53.2 155.1L66 135.5l132.3 86-12.7 19.6z"/><path fill="#030303" fill-opacity=".5" d="M230.3 100.4L187.4 115l-.5-1.4 42.9-14.8z"/><path fill="#404040" fill-opacity=".5" d="M415.3 39.6l-11.8 14.6-32.8-26.6L382.5 13z"/><path fill="#7f7f7f" fill-opacity=".5" d="M177.7 191.3l-77.6-18 8-35 77.7 18z"/><path fill-opacity=".5" d="M119.3 12.5L153-17.8l23 25.6L142.3 38z"/><path fill="#2d2d2d" fill-opacity=".5" d="M342.3 190.7L315 175.5l9.9-17.7 27.3 15.1z"/><path fill="#5e5e5e" fill-opacity=".5" d="M311.3 132.9l-4.7 9.9-38.2-17.9 4.6-9.9z"/><path fill="#353535" fill-opacity=".5" d="M286 191.4l-17.4 20-62.5-54.3 17.5-20z"/><path fill="#969696" fill-opacity=".5" d="M176.7 67.2l20-24 15.7 13-20.1 24z"/><path fill-opacity=".5" d="M305.5 125.3l-24.7-4 2.7-16.9 24.7 4z"/><path fill="#9f9f9f" fill-opacity=".5" d="M205.5 127.8l-5.5-9.5 55.5-32 5.4 9.5z"/><path fill="#939393" fill-opacity=".5" d="M70.2 202.2l7.6-22.2 47.3 16.3-7.6 22.1z"/><path fill-opacity=".5" d="M299.5-26.6L195.8 46l-12.5-17.9L287-44.5z"/><path fill="#353535" fill-opacity=".5" d="M153.8 108.8l24.3 6-2.3 9.2-24.2-6z"/><path fill="#f2f2f2" fill-opacity=".5" d="M131.5 122.5l10.4 9.4-3 3.5-10.5-9.5z"/><path fill="#191919" fill-opacity=".5" d="M108.3 124.7l-8.7-49.3 9.3-1.6 8.7 49.2z"/><path fill="#797979" fill-opacity=".5" d="M337.2 183l95.1-6.6.8 10.9-95.1 6.6z"/><path fill-opacity=".5" d="M201.5 89L174 82.7l1-4.6 27.4 6.4z"/><path fill="#b6b6b6" fill-opacity=".5" d="M136.4 34.5l39 1.3-.9 28.2-39-1.4z"/><path fill="#424242" fill-opacity=".5" d="M169.7 77.8l-17.4-31.4 1.4-.8L171 77.1z"/><path fill="#a9a9a9" fill-opacity=".5" d="M133 139.7l23.9 20-7 8.4-24-20z"/><path fill="#9a9a9a" fill-opacity=".5" d="M138.2 48l-10.6 13.5L41.5-5.8 52-19.3z"/><path fill="#0c0c0c" fill-opacity=".5" d="M143.1 131.2l1-3 23.7 7.8-1 3z"/><path fill="#101010" fill-opacity=".5" d="M213.1 58.4l1.2 1-10.2 11.9-1.2-1z"/><path fill="#aaa" fill-opacity=".5" d="M255.9 72l-85 39.6-3.3-7 85-39.7z"/><path fill="#878787" fill-opacity=".5" d="M326 141.6l8.7-9 31.5 30.4-8.7 9z"/><path fill-opacity=".5" d="M351.7 147.6l-3.2-13.7 7.6-1.8 3.2 13.7zM41 178.1l15.2 15.7-11.3 10.9L29.8 189z"/><path fill="#868686" fill-opacity=".5" d="M81.5 86.2l48.4 2.6-.5 7.8L81.1 94z"/><path fill-opacity=".5" d="M167 9.1l-27.4 25.6-39.4-42.3L127.6-33zM55.8 72L19.6 90.6-44.9-36.2l36.2-18.4z"/><path fill="#9b9b9b" fill-opacity=".5" d="M64.7 142.9l-20 3.2-1.6-9.3 20.1-3.2z"/><path fill="#8f8f8f" fill-opacity=".5" d="M349 121.1l-38.2-13.9 7.4-20.5 38.2 13.9z"/><path fill-opacity=".5" d="M186 153.5l1.8-10.8 34 5.4-1.8 10.8z"/><path fill="#050505" fill-opacity=".5" d="M170.7 132.7l2.2 15.5-14 2-2.1-15.6z"/><path fill-opacity=".5" d="M335.3 18.7l32.3-11.8 30 82.2-32.4 11.8z"/><path fill-opacity=".5" d="M359.2 96.8L257.7 71.5l3.4-13.6 101.5 25.3z"/><path fill="#060606" fill-opacity=".5" d="M290.7 128.7l1.6-2.7 21.7 12.5-1.6 2.7z"/><path fill-opacity=".5" d="M256 119l28.2 13.6-13.7 28.1-28.1-13.7z"/><path fill="#878787" fill-opacity=".5" d="M131.5 123.3l-10.2 3.7-7.5-20.6 10.3-3.7z"/><path fill-opacity=".5" d="M55 56.2l47.2 21-2.6 5.7-47-21z"/><path fill="#3e3e3e" fill-opacity=".5" d="M73.5 90.2L99 97.9l-14.6 47.9L59 138z"/><path fill="#d4d4d4" fill-opacity=".5" d="M223.9 53l8.8-3.2 7.5 20.6-8.8 3.2z"/><path fill="#616161" fill-opacity=".5" d="M292.3 124.8l26.2 29-18.6 16.7-26.2-29z"/><path fill-opacity=".5" d="M18 124.7l7.8-9.8 11 8.9-8 9.7z"/><path fill="#696969" fill-opacity=".5" d="M344.2 148.2L303 129.1l10.6-22.7 41 19.2z"/><path fill="#5b5b5b" fill-opacity=".5" d="M211.8 227.5l-50.3-42.2 25.1-30 50.3 42.2z"/><path fill="#5d5d5d" fill-opacity=".5" d="M-4.6 168.2l24.4-36.3 20.8 14L16 182.2z"/><path fill="#646464" fill-opacity=".5" d="M374.6 136.6l4.7.3-2.3 43.7-4.7-.3z"/><path fill="#b4b4b4" fill-opacity=".5" d="M113.5 90.4L128 72l38.1 29.9-14.4 18.4z"/><path fill="#626262" fill-opacity=".5" d="M320.4-9.9l9.1 16.4L253 49l-9-16.4z"/><path fill="#696969" fill-opacity=".5" d="M11.9-6.8l7.9-9.7 88.6 71.8-7.9 9.7z"/><path fill="#585858" fill-opacity=".5" d="M165.3 69.4L184 55.3l8.5 11.2-18.7 14.1z"/><path fill="#353535" fill-opacity=".5" d="M289.7 26l4.1 10.2-50.7 20.5-4.1-10.1z"/><path fill="#c1c1c1" fill-opacity=".5" d="M183.5 61.7L201.3 42l1.1 1-17.7 19.7z"/><path fill="#353535" fill-opacity=".5" d="M183.8 118.6l-.7-1.4 62.8-28 .7 1.4z"/><path fill="#1d1d1d" fill-opacity=".5" d="M158.6 138l-.3-1.6 69-13.4.3 1.5z"/><path fill="#909090" fill-opacity=".5" d="M281 199.2l37.6-30.5 2 2.4-37.7 30.5z"/><path fill-opacity=".5" d="M190.4 26.2l1.5.4-8.9 33.2-1.5-.4z"/><path fill="#a1a1a1" fill-opacity=".5" d="M242.6 122l.5 1.5-40.4 12.3-.4-1.5z"/><path fill="#5d5d5d" fill-opacity=".5" d="M149.7 31.4l1.5-.4 10 32.9-1.5.4z"/><path fill="#363636" fill-opacity=".5" d="M365.7 112.5l16.7 8.5-2.8 5.6-16.7-8.5z"/><path fill="#2f2f2f" fill-opacity=".5" d="M163.6 119.6l-.5-1.5 34.2-11.1.5 1.5z"/><path fill="#afafaf" fill-opacity=".5" d="M187 136.6l-.7 7.8-15.5-1.3.7-7.8z"/><path fill="#999" fill-opacity=".5" d="M356.6 99.8l86.1 53.8-.8 1.3-86.2-53.8z"/><path fill="#474747" fill-opacity=".5" d="M228.6 63.7l-17.1 16-1-1.2 17-16z"/><path fill="#a9a9a9" fill-opacity=".5" d="M184.1 127l-35.8-2.5.4-6.2 35.8 2.5z"/><path fill="#434343" fill-opacity=".5" d="M245.9 119.6l5.3 5.7-20.5 19.2-5.4-5.7z"/><path fill-opacity=".5" d="M262.1 114l1-9.3 45 4.7-.9 9.3z"/><path fill="#4d4d4d" fill-opacity=".5" d="M120.8 189.9L71 140.2l6.7-6.7 49.7 49.8z"/><path fill-opacity=".5" d="M145.4 147.2v-1.5l79.6 5.5-.2 1.6zM321.3 165l2.8-10.5 3 .8-2.8 10.5zM190-11l30 36-33.4 28-30.1-35.9z"/><path fill="#090909" fill-opacity=".5" d="M108.2 109.2l20.7 27.5-7.5 5.6-20.6-27.4z"/><path fill-opacity=".5" d="M371.2 205.1l-20.1-2.5 1.1-9.3 20.2 2.5z"/><path fill="#5c5c5c" fill-opacity=".5" d="M104 140.7l32.2-6.2 2 10.7-32.2 6.3z"/><path fill="#cacaca" fill-opacity=".5" d="M133.3 42.6l13.5-3.8 12 42-13.4 3.9z"/><path fill="#787878" fill-opacity=".5" d="M84.4-.6l5.1-6L139 36.6l-5 6z"/><path fill="#595959" fill-opacity=".5" d="M12.5 91l44-11L61 98l-44 11z"/><path fill-opacity=".5" d="M59.5 78.6L45.8 33.8l15-4.6L74.5 74z"/><path fill="#616161" fill-opacity=".5" d="M307.2 91.8l-5.2 13-42-17 5.2-13z"/><path fill="#cfcfcf" fill-opacity=".5" d="M210.4 83l25.5-23 2.1 2.3-25.5 23z"/><path fill="#060606" fill-opacity=".5" d="M385.1 173.6l-10.7-2.3 4.6-21.4 10.7 2.3z"/><path fill="#1a1a1a" fill-opacity=".5" d="M257 180l-4.4-6.5L282 153l4.5 6.4z"/><path fill="#363636" fill-opacity=".5" d="M40 169.6L21 207l-12.6-6.3 19.1-37.6z"/><path fill="#989898" fill-opacity=".5" d="M256.2 107.8l1 1.2-21.2 16-1-1.2z"/><path fill="#5e5e5e" fill-opacity=".5" d="M67.4 77.9l-28.7 59-1.4-.7 28.7-59z"/><path fill="#838383" fill-opacity=".5" d="M50.4 132.2l4.1 2.2-15.9 28.7-4-2.2z"/><path fill="#909090" fill-opacity=".5" d="M302.5 190.3l-52.9 19.3-.5-1.5 52.8-19.2z"/><path fill="#606060" fill-opacity=".5" d="M365.3 155.3l27 34.5-12.3 9.6-27-34.5z"/><path fill="#656565" fill-opacity=".5" d="M271.5 94.2l-68.2 34.7-1.4-2.8 68.2-34.7z"/><path fill="#181818" fill-opacity=".5" d="M202.9 143.3l-3 1.1-7.5-20.5 3-1.1z"/><path fill="#919191" fill-opacity=".5" d="M287.2 174.8l-17.1 7.6-2.6-5.7 17.1-7.6z"/><path fill="#e5e5e5" fill-opacity=".5" d="M147.3 118.6l-13.4-8 1.6-2.7 13.4 8z"/><path fill="#797979" fill-opacity=".5" d="M248.6 38.8l-12.6-18L265.5.4 278 18.2z"/><path fill="#bfbfbf" fill-opacity=".5" d="M180.5 46.2L176.9 63l-21.4-4.5 3.6-16.8z"/><path fill-opacity=".5" d="M444.5 75.6L420.1 128l-85-39.6L359.6 36z"/><path fill="#959595" fill-opacity=".5" d="M127.2 147.8l6.3-9 34.6 24.3-6.3 9z"/><path fill="#bbb" fill-opacity=".5" d="M201.5 48.9L189.2 63l-4.7-4 12.3-14.2z"/><path fill="#656565" fill-opacity=".5" d="M48 180.3l1.7-14L166 180.6l-1.7 14z"/><path fill="#555" fill-opacity=".5" d="M208.6 50.2l7.7 1.6-4.6 21.4-7.6-1.6z"/><path fill-opacity=".5" d="M198.8 16l48.6-39.3L262-5.1l-48.5 39.3z"/><path fill="#191919" fill-opacity=".5" d="M155.4 113.4l1.9-2.6 7.6 5.5-1.9 2.6z"/><path fill="#7a7a7a" fill-opacity=".5" d="M95.2 77.2l3.5-24.8 23.2 3.3-3.4 24.7z"/><path fill="#383838" fill-opacity=".5" d="M337 122.9l-22 1.1-.3-7.8 21.8-1.1z"/><path fill="#a8a8a8" fill-opacity=".5" d="M148.5 36.2l20-3.6.2 1.6-20 3.5z"/><path fill="#121212" fill-opacity=".5" d="M84.1 101.5L44.4 120l-2-4.3 39.7-18.5z"/><path fill="#565656" fill-opacity=".5" d="M99.7 110l-36 15.4-2.4-5.8 36-15.3z"/><path fill-opacity=".5" d="M409 9l-42.2-2.3.8-14 42.1 2.2z"/><path fill="#505050" fill-opacity=".5" d="M208.2 187.3l84-7.4 1.2 12.5-84.1 7.3z"/><path fill="#919191" fill-opacity=".5" d="M290.7 96.5l6.6-12.4 4.2 2.2-6.6 12.4z"/><path fill-opacity=".5" d="M251 64.4l-.4-9.3 43.7-2.3.4 9.3zM53 33.8l5.7 46.6L-42 92.7l-5.7-46.5z"/><path fill="#797979" fill-opacity=".5" d="M410.6 112.4l-21.3 55.4-1.4-.5 21.2-55.5z"/><path fill="#505050" fill-opacity=".5" d="M314.6 179l29.5-3.1 2.3 21.7-29.6 3.1z"/><path fill="#474747" fill-opacity=".5" d="M86.8 58.8L55.4 30.6l3.1-3.5L90 55.3z"/><path fill="#858585" fill-opacity=".5" d="M16.1 109.9l-26.5 16.5-4.1-6.6L12 103.3z"/><path fill="#282828" fill-opacity=".5" d="M292.3 44.5l-3.2-5.3L384.2-18l3.2 5.4z"/><path fill="#9d9d9d" fill-opacity=".5" d="M223.3 113.9l-2.8-5.7 42.2-20.5 2.7 5.6z"/><path fill="#575757" fill-opacity=".5" d="M269.3 118.8l32.5 4.6-.8 6.2-32.5-4.6z"/><path fill="#2a2a2a" fill-opacity=".5" d="M343.3 178.7l1-7.8 14 2-1.1 7.7z"/><path fill="#1d1d1d" fill-opacity=".5" d="M186.8 81.9l-4.9 6-11-8.8 5-6z"/><path fill="silver" fill-opacity=".5" d="M77 204.3l-6-7.2 3.7-3 5.9 7.3z"/><path fill="#222" fill-opacity=".5" d="M17.8 130L3.3 152.3l-4-2.6L14 127.4z"/><path fill-opacity=".5" d="M289.2 76.2L277.6 49l84.8-36L374 40.2z"/><path fill="#666" fill-opacity=".5" d="M160 95.1l.6-4.6 24.8 3.4-.7 4.7z"/><path fill-opacity=".5" d="M60 44.8l30.3 24.6-5 6L55 51z"/><path fill="#2b2b2b" fill-opacity=".5" d="M104.7 81l1.4-.6 9.5 21.4-1.4.6z"/><path fill="#7d7d7d" fill-opacity=".5" d="M100 83.6l34.2 11.1-1.4 4.5L98.6 88z"/><path fill="#5b5b5b" fill-opacity=".5" d="M372.4 144.6l-13.5-7.8L376 107l13.6 7.8z"/><path fill="#a6a6a6" fill-opacity=".5" d="M163.1 96.2l1.5-.5 8.2 25.3-1.5.5z"/><path fill="#9f9f9f" fill-opacity=".5" d="M176.3 130.3l-3-8.9 45.7-15.7 3 8.8z"/><path fill="#3b3b3b" fill-opacity=".5" d="M237.6 159.1l-57.8 2-.2-6.2 57.8-2z"/><path fill="#989898" fill-opacity=".5" d="M183.6 144l-1-2.9 32.2-11.7 1.1 3z"/><path fill="#6f6f6f" fill-opacity=".5" d="M206 106.5l-4.2-11.7 25-9.1 4.2 11.7z"/><path fill="#c8c8c8" fill-opacity=".5" d="M133.2 81.7l29.4 20.6-3.6 5.1-29.4-20.6z"/><path fill-opacity=".5" d="M360.9 145.6l5.8-5.2 8.4 9.3-5.9 5.2zM140.5 34l-4.3-49.8 46.7-4.1 4.3 49.8z"/><path fill="#353535" fill-opacity=".5" d="M250.4 83.8l.8 1.3-40.6 26.4-.9-1.3z"/><path fill="#c4c4c4" fill-opacity=".5" d="M129.6 123.6l21.4 15.6-.9 1.3-21.5-15.6z"/><path fill-opacity=".5" d="M389.5 179.8L377 162l3.8-2.7 12.5 18z"/><path fill="#4f4f4f" fill-opacity=".5" d="M142.4 130.3l3.7-6.9 19.3 10.3-3.7 7z"/><path fill-opacity=".5" d="M256.9 121l7.3-8.1 2.3 2-7.3 8.2z"/><path fill="#9e9e9e" fill-opacity=".5" d="M155.7 81l31.6 8.5-.8 3-31.7-8.5z"/><path fill="#474747" fill-opacity=".5" d="M264 80.5h7.9v18.7H264z"/><path fill="#dedede" fill-opacity=".5" d="M399 173.1l3.3 7.1-2.8 1.3-3.3-7z"/><path fill="#818181" fill-opacity=".5" d="M147.8 89l-1.2.9L135 75.1l1.3-1z"/><path fill="#282828" fill-opacity=".5" d="M268 96.7l1.5 2.7-20.3 11.7-1.5-2.7z"/><path fill="#393939" fill-opacity=".5" d="M72.7 86.7l-1.4-9.3 20-3.1 1.5 9.2z"/><path fill="#878787" fill-opacity=".5" d="M38-2.8l42.2 20.6-4.2 8.4L34 5.7z"/><path fill="#9c9c9c" fill-opacity=".5" d="M95.5 187l22.5 17-5.7 7.4L90 194.5z"/><path fill="#747474" fill-opacity=".5" d="M-18.5 104.5l-.4-1.5 70.2-21.5.4 1.5z"/><path fill="#3b3b3b" fill-opacity=".5" d="M400.2 200.5l-4.8 9.8-25.3-12.3 4.8-9.9z"/><path fill="#959595" fill-opacity=".5" d="M344.9 210.1l7.2-22.3 1.5.5-7.3 22.3z"/><path fill="#4e4e4e" fill-opacity=".5" d="M303.8 93.2l15.1-8 .8 1.3-15.2 8z"/><path fill="#777" fill-opacity=".5" d="M322.9 115.2l-6 5-10-12 6-5z"/><path fill-opacity=".5" d="M32 191.6l6.7-8.6L57 197.4l-6.7 8.7z"/><path fill="#acacac" fill-opacity=".5" d="M203.3 51.7l-3.6 18.4-7.7-1.5 3.6-18.4z"/><path fill="#646464" fill-opacity=".5" d="M289.7 9l.3-17.2 43.7.8-.3 17.2z"/><path fill="#7a7a7a" fill-opacity=".5" d="M364 153.6l3.7 12-24 7.3-3.6-12z"/><path fill-opacity=".5" d="M264.2 122.7l2.6 4-42 27.2-2.5-4z"/><path fill="#828282" fill-opacity=".5" d="M177.4 58l3.1 3.5L161.6 78l-3-3.5z"/><path fill="#3e3e3e" fill-opacity=".5" d="M36 127.8l6.1 1.4-20.3 88.3-6.1-1.4z"/><path fill="#353535" fill-opacity=".5" d="M15.6 107l25.6-23 1 1.2-25.5 23z"/><path fill="#6b6b6b" fill-opacity=".5" d="M50.6 173.8l95.9 13.5-1.7 12.3-96-13.4z"/><path fill="#b6b6b6" fill-opacity=".5" d="M210.5 52.8l4-8.5 29.7 13.9-4 8.5z"/><path fill="#858585" fill-opacity=".5" d="M406.7 174.7l-4.3 1.7-10.7-27.7 4.4-1.7z"/><path fill="#343434" fill-opacity=".5" d="M207.2 170.5l4.9-18.1 60.4 16.2-4.9 18z"/><path fill="#8a8a8a" fill-opacity=".5" d="M119.5 95.8l38.2 17.9-.6 1.4-38.3-17.8z"/><path fill="#262626" fill-opacity=".5" d="M81.8 120.8L96 111l17.5 26-14.2 9.6z"/><path fill="#353535" fill-opacity=".5" d="M176.5 123.8l-7.8-.8.2-1.5 7.7.8z"/><path fill="#080808" fill-opacity=".5" d="M25.4 113.8l16.7 4.1-3.4 13.7-16.7-4.2z"/><path fill="#4f4f4f" fill-opacity=".5" d="M86.4 58l-5.2-18 9-2.6 5.2 18z"/><path fill="#6c6c6c" fill-opacity=".5" d="M247.7 122l-40 21.4-.7-1.4 40-21.3z"/><path fill="#868686" fill-opacity=".5" d="M254.4 67l-1 1-28.1-27 1-1.1z"/><path fill="#4b4b4b" fill-opacity=".5" d="M125 24l-5.2 3.4L114 18l5.3-3.3z"/><path fill="#3d3d3d" fill-opacity=".5" d="M166.4 78l31.1-2.8.2 1.6-31.2 2.7z"/><path fill="#9b9b9b" fill-opacity=".5" d="M182.1 53.5l-8.5 4-7.3-15.7 8.5-4z"/><path fill="#909090" fill-opacity=".5" d="M288.2 172.1l16.8 8.3-4.1 8.4-16.8-8.2z"/><path fill="#a0a0a0" fill-opacity=".5" d="M140.6 122.8l-24.6-10 1.2-2.8 24.6 10z"/><path fill="#969696" fill-opacity=".5" d="M385.8 114.2l10.4 11.7-2.3 2-10.4-11.6z"/><path fill="#232323" fill-opacity=".5" d="M352.2 105.4l-2.2-5.9 8.7-3.3 2.3 5.8z"/><path fill-opacity=".5" d="M258.7 78.7l-1.2-2.8 7.2-3 1.2 2.8zm96.8 66.3l-8.9-3 2.6-7.4 8.8 3z"/><path fill="#090909" fill-opacity=".5" d="M269.4 124.8l17 11-4.2 6.6-17-11z"/><path fill="#6e6e6e" fill-opacity=".5" d="M64.6 85.3l3-.9 6.9 22.4-3 1z"/><path fill="#6a6a6a" fill-opacity=".5" d="M130.7 137.2l31 3.8-.2 1.5-31-3.8z"/><path fill="#777" fill-opacity=".5" d="M224.2 117l-58.9 16-.4-1.5 58.9-15.8z"/><path fill="#626262" fill-opacity=".5" d="M372 173.3l51 19.6-2.8 7.3-51-19.6z"/><path fill="#777" fill-opacity=".5" d="M279.7 178.6l-2.5-13.9 41.6-7.3 2.4 13.8z"/><path fill="#4f4f4f" fill-opacity=".5" d="M104 207.8L71.9 192l.7-1.4 32.3 15.8z"/><path fill="#777" fill-opacity=".5" d="M372.6 170.6l-30.5-7 2.5-10.7 30.4 7z"/><path fill="#828282" fill-opacity=".5" d="M145.4 112.8l21.4-9.6 1.9 4.3-21.4 9.6z"/><path fill="#989898" fill-opacity=".5" d="M85.7 160.6l-1.5.4-2.7-10.6 1.5-.4z"/><path fill="#2e2e2e" fill-opacity=".5" d="M257.6 124.7l-41 19.2-.7-1.4 41-19.2z"/><path fill="#989898" fill-opacity=".5" d="M359.3 128.5L310.8 97l3.4-5.2 48.5 31.5z"/><path fill="#7b7b7b" fill-opacity=".5" d="M365.2 143l-39.5-52.3 1.3-1 39.5 52.4z"/><path fill="#040404" fill-opacity=".5" d="M110.7 125.3l-4.1-26.2 6.1-1 4.2 26.2z"/><path fill="#282828" fill-opacity=".5" d="M211 105.6l-2.5-4 4-2.5 2.5 4z"/><path fill-opacity=".5" d="M109.1-2.7l20.7-11 9.5 18-20.7 11zm85.4 82.5l10-4.4L207 81l-10 4.4z"/><path fill="#414141" fill-opacity=".5" d="M170.3 71.9H200v7.8h-29.7z"/><path fill="#191919" fill-opacity=".5" d="M200.9 123.5l-1.8 32.8-1.5-.1 1.7-32.8z"/><path fill="#5a5a5a" fill-opacity=".5" d="M50.9 181.9l-8-65.2 1.5-.1 8 65z"/><path fill="#363636" fill-opacity=".5" d="M50.6 109.6l-9-2.4 3-12.2 9.1 2.4z"/><path fill="#b5b5b5" fill-opacity=".5" d="M191.5 121.5l-.7-1.4 25.5-12 .7 1.5z"/><path fill-opacity=".5" d="M70.5 76.3L-5-4.8l8-7.5L78.5 69z"/><path fill="#868686" fill-opacity=".5" d="M333.5 136.2l26.3 24.6-4.3 4.5-26.2-24.5z"/><path fill="#5b5b5b" fill-opacity=".5" d="M194.7 99.6l3.6 10.3-13.3 4.6-3.6-10.4z"/><path fill="#5c5c5c" fill-opacity=".5" d="M124 118.2l9.4-.5.4 6.3-9.4.5z"/><path fill="#828282" fill-opacity=".5" d="M87.4 85.5l15.3-3.5 2 9-15.2 3.6z"/><path fill="#afafaf" fill-opacity=".5" d="M229.5 70.7l-31 33.2-4.5-4.3 30.9-33.1z"/><path fill="#424242" fill-opacity=".5" d="M328.5 17l.7 1.3-24.8 13.2-.8-1.4z"/><path fill="#b9b9b9" fill-opacity=".5" d="M119.4 83l17.9-27.5 10.5 6.8-17.9 27.5z"/><path fill="#6c6c6c" fill-opacity=".5" d="M358.4 176l.5 1.4-65.8 20.1-.4-1.5z"/><path fill="#373737" fill-opacity=".5" d="M18.2 2l44.3 37-1 1.3L17.2 3z"/><path fill="#212121" fill-opacity=".5" d="M316.5 142.6l-48-32.3 1-1.3 47.9 32.3z"/><path fill="#333" fill-opacity=".5" d="M58.3 188.6l11 1-1 10.9-11-1z"/><path fill="#252525" fill-opacity=".5" d="M25.2 175.6l10.1-9.8 9.8 10.2-10.1 9.7z"/><path fill="#535353" fill-opacity=".5" d="M368.4 188.6l-1.5-.5 19.4-59.5 1.4.5z"/><path fill="#454545" fill-opacity=".5" d="M113.4 92.3l-2.5 1.8L78.8 50l2.5-1.8z"/><path fill="#8c8c8c" fill-opacity=".5" d="M131 59.8l-24.8 3.5-4.3-31 24.7-3.4z"/><path fill="#020202" fill-opacity=".5" d="M377.6 191.7L337 208.1l-.5-1.4 40.5-16.4z"/><path fill="#030303" fill-opacity=".5" d="M162.4 135.7l2.6-1.7 8.5 13.1-2.6 1.7z"/><path fill="#939393" fill-opacity=".5" d="M74 12.7L102.6.5l3 7.1L77 20z"/><path fill="#7c7c7c" fill-opacity=".5" d="M326 129l-1 4.7-21.3-5 1-4.5z"/><path fill="#565656" fill-opacity=".5" d="M157.6 57.5l-1.6.3-2.6-13.8 1.5-.3z"/><path fill="#bebebe" fill-opacity=".5" d="M228.1 29.6l-7.1 3.2-.7-1.5 7.2-3.1z"/><path fill="#676767" fill-opacity=".5" d="M281.1 32.8l-30.3 7.6-2.3-9.1 30.4-7.6z"/><path fill-opacity=".5" d="M67 103l-11.6 10.4-2.1-2.3 11.6-10.5z"/><path fill="#424242" fill-opacity=".5" d="M319.6 152l-2.7-1.5 8.8-16.5 2.7 1.4z"/><path fill="#393939" fill-opacity=".5" d="M294 90.7l-14.7-5.4 3.2-8.8 14.7 5.4z"/><path fill="#6f6f6f" fill-opacity=".5" d="M202 57.3l4.8 9.9-4.2 2-4.8-9.8z"/><path fill="#3d3d3d" fill-opacity=".5" d="M102.3 156.2l-17.1-1.5 1.6-18.7 17.1 1.5z"/><path fill="#1f1f1f" fill-opacity=".5" d="M416.4 36.6l-45.3-21.1 4.6-10 45.4 21.2z"/><path fill="#595959" fill-opacity=".5" d="M383.2 220l-35-78.5 1.4-.6 35 78.5z"/><path fill="#555" fill-opacity=".5" d="M175.3 147.3l19.1-7 .6 1.5-19.1 7z"/><path fill="#505050" fill-opacity=".5" d="M143.5 146.1l36.7 7.8-.3 1.5-36.7-7.8z"/><path fill="#707070" fill-opacity=".5" d="M26.5 96.4l9.4 1-1.5 14-9.3-1z"/><path fill-opacity=".5" d="M400.5 122.9l-44.9-39 23.6-27L424 95.7z"/><path fill="gray" fill-opacity=".5" d="M65.2 94.8l-4.2-2 6.6-14.2 4.2 2z"/><path fill="#404040" fill-opacity=".5" d="M291.8 142.7l-19.9-4.2.4-1.5 19.8 4.2z"/><path fill="#606060" fill-opacity=".5" d="M-11.7 180.8l-6.6-6.6 40.9-41 6.6 6.7z"/><path fill="#828282" fill-opacity=".5" d="M160 86.8l10.2-7.1 2.7 3.8-10.3 7.2z"/><path fill="#bebebe" fill-opacity=".5" d="M153.4 36.8l-8.6 6.7-2.9-3.7 8.6-6.7z"/><path fill="#343434" fill-opacity=".5" d="M411.7 50.8l-5.6 7.5L371 32l5.7-7.5z"/><path fill="#4a4a4a" fill-opacity=".5" d="M58.4 154.2l2.1-15.5 17 2.4-2.1 15.5z"/><path fill="#373737" fill-opacity=".5" d="M319.8 166.7l12.4-2 2.7 17-12.4 2z"/><path fill="#696969" fill-opacity=".5" d="M269.5 88.4l.7-1.4 96.2 44.9-.6 1.4z"/><path fill="#656565" fill-opacity=".5" d="M292.7 155l-5.9 5.2-9.2-10.6 5.9-5.1z"/><path fill="#686868" fill-opacity=".5" d="M130.4 150.1l-27.9 10.2-3.2-8.8 27.9-10.2z"/><path fill-opacity=".5" d="M214.4 35.6l-5.6 2.7-18.5-38 5.6-2.7z"/><path fill="#838383" fill-opacity=".5" d="M110 156.5l2.4-5.8 47.8 19.3-2.3 5.8z"/><path fill="#4f4f4f" fill-opacity=".5" d="M338.3 148.9l3.8 2.7-25.7 35.4-3.8-2.7z"/><path fill="#8d8d8d" fill-opacity=".5" d="M237.1 76.5l3 5.5-38.2 21.2-3-5.5z"/><path fill="#575757" fill-opacity=".5" d="M211.5 64.7l3.5 15.2-3 .7-3.6-15.2z"/><path fill="#777" fill-opacity=".5" d="M5 121l2 6-10.4 3.5-2-5.9z"/><path fill="#595959" fill-opacity=".5" d="M274.7 125.9l2.3-5.8 21.8 8.7-2.4 5.8z"/><path fill-opacity=".5" d="M36.7 79L3.3 96l-13.5-26.5 33.4-17z"/><path fill="#4e4e4e" fill-opacity=".5" d="M220.2 183.6l-23.3 2.9-3-24.8 23.2-2.9z"/><path fill="#686868" fill-opacity=".5" d="M141.5 201.4l-.2-4.7 81.2-2.8.2 4.7z"/><path fill="#656565" fill-opacity=".5" d="M231 94.1l-.7-1.4 37.2-16.5.6 1.4z"/><path fill-opacity=".5" d="M272.4-19.4L185 51.4 160.4 21l87.4-70.8z"/><path fill="#7f7f7f" fill-opacity=".5" d="M92 65.6l10.2-26.2 7.3 2.8-10.1 26.2z"/><path fill="#7c7c7c" fill-opacity=".5" d="M215.3 141.6l-35.5-5 .2-1.6 35.6 5z"/><path fill-opacity=".5" d="M180.5 153l-.4-1.4 34.7-9.3.4 1.5z"/><path fill="#bbb" fill-opacity=".5" d="M129.8 105l.8-1.3 34.9 21-.8 1.3z"/><path fill="#afafaf" fill-opacity=".5" d="M198.5 93.6l-32.3 15.8-.7-1.4 32.3-15.8z"/><path fill="#969696" fill-opacity=".5" d="M116.2 112l-2.7-37.4 9.4-.7 2.6 37.4z"/><path fill="#4f4f4f" fill-opacity=".5" d="M216 147l-.8-1.4 14.2-6.6.7 1.4z"/><path fill="#919191" fill-opacity=".5" d="M153.3 124.6l-23.5.8-.2-7.8 23.4-.8z"/><path fill="#626262" fill-opacity=".5" d="M164.2 64.7l-4.7.3-.3-6.3 4.7-.2z"/><path fill="#101010" fill-opacity=".5" d="M339.6 205l-4.6-.8 2-10.8 4.5.8z"/><path fill="#040404" fill-opacity=".5" d="M386.3 149.1l.8 21.9-6.2.2-.8-21.9z"/><path fill-opacity=".5" d="M194.6 131.9l-.3 1.5-6.1-1.2.3-1.5z"/><path fill="#9b9b9b" fill-opacity=".5" d="M305.1 95.5l27.7-5 1.1 6.2-27.7 5z"/><path fill="#191919" fill-opacity=".5" d="M237.2 168.1l48.7-11.2.4 1.5-48.8 11.3z"/><path fill="#767676" fill-opacity=".5" d="M282.8-11.2L275 38.2l-3.1-.5 7.8-49.4z"/><path fill="#787878" fill-opacity=".5" d="M122.4 125.7l-16.6-62 1.5-.3 16.6 61.9z"/><path fill="#2e2e2e" fill-opacity=".5" d="M109.6 140.9l-47.4-10 1.6-7.7 47.4 10z"/><path fill="#0c0c0c" fill-opacity=".5" d="M324.8 160.4l-1.4.5-3-7.2 1.5-.6z"/><path fill="#424242" fill-opacity=".5" d="M325.1 192.7l1.1 3-27.9 10-1-2.9z"/><path fill="#7b7b7b" fill-opacity=".5" d="M156.3 131.7l19.4-13.1.9 1.3-19.5 13z"/><path fill-opacity=".5" d="M386.8 177.4l-1.2-1 10.5-11.6 1.1 1z"/><path fill="#494949" fill-opacity=".5" d="M389.4 167.2l-3.2-.3 4.1-38.8 3.1.3z"/><path fill="#959595" fill-opacity=".5" d="M60.3 140.2l-3.4 3.1-6.3-7 3.5-3z"/><path fill="#595959" fill-opacity=".5" d="M166 91l.5 1.6-9.1 2.3-.4-1.6z"/><path fill="#6d6d6d" fill-opacity=".5" d="M329.9 200.8l-.4-18.7 4.7-.1.3 18.7z"/><path fill="#868686" fill-opacity=".5" d="M44 167.8l1-1 12.6 13.9-1.1 1z"/><path fill="#3f3f3f" fill-opacity=".5" d="M289.4 183.8l-1 7.7-35.6-5 1-7.7z"/><path fill="#181818" fill-opacity=".5" d="M-3 133l1.4-.7 6.2 14.4-1.5.6z"/><path fill-opacity=".5" d="M369.6 4.2l10.6 60-10.8 2L359 6z"/><path fill="#afafaf" fill-opacity=".5" d="M212.8 139.4l-7.4-2.6 2.2-6 7.3 2.8z"/><path fill="#171717" fill-opacity=".5" d="M247.5 57.7l84-34 .6 1.5-84 33.9z"/><path fill="#3b3b3b" fill-opacity=".5" d="M292.5 103.4l13.8 2.6-.3 1.6-13.8-2.7z"/><path fill="#393939" fill-opacity=".5" d="M367.1 124.6l-3.2-5.3 8-4.9 3.3 5.4z"/><path fill="#5d5d5d" fill-opacity=".5" d="M51.2 173l13.6-20.9 26.2 17-13.6 21z"/><path fill="#9b9b9b" fill-opacity=".5" d="M152 92.5L41-26.3l2.3-2.2L154.2 90.4z"/><path fill="#9d9d9d" fill-opacity=".5" d="M205.8 41.3l2.7 3.8-12.8 9-2.7-3.9z"/><path fill="#313131" fill-opacity=".5" d="M58 87l-2.5-1.9 3.7-5 2.5 2z"/><path fill="#8a8a8a" fill-opacity=".5" d="M380.2 113.2l-1.3 2.8-20-8.9 1.3-2.8z"/><path fill="#242424" fill-opacity=".5" d="M80.5 79.8l.2-1.6 18.5 3-.2 1.5z"/><path fill="#5a5a5a" fill-opacity=".5" d="M113 90.3l.2 1.6-55.9 6.8-.2-1.5z"/><path fill="#181818" fill-opacity=".5" d="M-1.4 107.2l-.3-3.1 4.7-.4.2 3.2z"/><path fill="#6d6d6d" fill-opacity=".5" d="M415 178.6l.7 4.6-54 8.5-.8-4.6z"/><path fill="#a7a7a7" fill-opacity=".5" d="M126.1 202.8L97 197.2l.3-1.6 29.1 5.7z"/><path fill="#464646" fill-opacity=".5" d="M171 119.2l-.5-1.5 35-13.4.6 1.4z"/><path fill="#686868" fill-opacity=".5" d="M204.5 129l-.7-1.3 74.5-39.6.7 1.4z"/><path fill="#b1b1b1" fill-opacity=".5" d="M185.9 54.9l13-8.5 4.3 6.5-13 8.5z"/><path fill="#9b9b9b" fill-opacity=".5" d="M357 123.6l-4.2 2-11.4-25.8 4.2-1.9z"/><path fill="#838383" fill-opacity=".5" d="M168.1 157.7l-32-12.3.5-1.5 32 12.3z"/><path fill="#8a8a8a" fill-opacity=".5" d="M253.5 111.2l.9 1.4-34.5 21.5-.8-1.3z"/><path fill="#616161" fill-opacity=".5" d="M244.4 127.4l1.2 1-7.2 8.3-1.2-1z"/><path fill="#c8c8c8" fill-opacity=".5" d="M154 43.8V64h-12.6V43.8z"/><path fill="#b2b2b2" fill-opacity=".5" d="M128.8 128.6l7.4 5.6-.9 1.3-7.5-5.7z"/><path fill="#838383" fill-opacity=".5" d="M325.8 88.1l7.5 20.6-4.4 1.6-7.5-20.6z"/><path fill-opacity=".5" d="M318.6 84.3l-40-7.8 1.3-6.1 39.9 7.8z"/><path fill="#3b3b3b" fill-opacity=".5" d="M360.4 140.7l2.8 1.4-6.4 12.5-2.8-1.4z"/><path fill="#606060" fill-opacity=".5" d="M185.5 91l-.5-3.2 12.3-2.1.5 3z"/><path fill="#565656" fill-opacity=".5" d="M49.6 121l6 7.3-28.7 24-6-7.1z"/><path fill="#4b4b4b" fill-opacity=".5" d="M247.9 161.5l-56.1 23.8-.6-1.5 56-23.8z"/><path fill="#858585" fill-opacity=".5" d="M404.5 159l-9.1 21.6-1.5-.6 9.2-21.6z"/><path fill="#a2a2a2" fill-opacity=".5" d="M230 73.2l24.3-5.6 1.7 7.6-24.3 5.6z"/><path fill="#424242" fill-opacity=".5" d="M11.4 123.2l56.2-27.4.7 1.4L12 124.6z"/><path fill="#afafaf" fill-opacity=".5" d="M181.4 128l25.5-15.2.8 1.3-25.5 15.3z"/><path fill="#909090" fill-opacity=".5" d="M38.8 159l-1.5-.6 6.7-15.8 1.5.6z"/><path fill="#676767" fill-opacity=".5" d="M323.2 144.3l21.6 12.5-3.9 6.7-21.6-12.5z"/><path fill="#d4d4d4" fill-opacity=".5" d="M168.8 57l-1.4 1-12.7-19.7 1.3-.9z"/><path fill="#222" fill-opacity=".5" d="M233 146.6l40.5 20.5-5 9.8-40.4-20.6z"/><path fill="#919191" fill-opacity=".5" d="M99.2 198.5l-10.8-1.8 1.5-9.2 10.8 1.7z"/><path fill="#707070" fill-opacity=".5" d="M263.2 107l-20.7 16.8-1-1.2 20.7-16.7z"/><path fill="#8e8e8e" fill-opacity=".5" d="M70.4 19.6l.5-1.5 63.3 17-.4 1.5z"/><path fill="#6a6a6a" fill-opacity=".5" d="M181.5 128.9l2.1-4.2 8.4 4.2-2.2 4.2z"/><path fill="#414141" fill-opacity=".5" d="M25.8 183.2l9 14.6L7 215.2l-9-14.6z"/><path fill-opacity=".5" d="M141.6 35.2L108.8-2.5l10.6-9.3L152.2 26z"/><path fill="#1a1a1a" fill-opacity=".5" d="M158.7 149.6l-16.3-5.6.5-1.4 16.3 5.6z"/><path fill="#9f9f9f" fill-opacity=".5" d="M107.7 57.2l16-17.1 4.5 4.2-16 17.2z"/><path fill-opacity=".5" d="M279.2 103.7l9.4.4-.6 15.6-9.4-.3z"/><path fill="#474747" fill-opacity=".5" d="M266.2 44.3l-1.5-2.7 95.7-53 1.5 2.7z"/><path fill="#1e1e1e" fill-opacity=".5" d="M176.6 130l.5 1.4-17.8 5.8-.5-1.5z"/><path fill="#050505" fill-opacity=".5" d="M277 164.1l-23.5-42.4 5.5-3 23.4 42.4z"/><path fill="#3f3f3f" fill-opacity=".5" d="M253.4 104l1 1.3-31.2 23.5-1-1.3z"/><path fill="#424242" fill-opacity=".5" d="M18 99.2l-1.3-6.1 17-3.3 1.1 6.2z"/><path fill-opacity=".5" d="M207.9 78.4l-.2 4.7-17.2-.6.2-4.7z"/><path fill="#8a8a8a" fill-opacity=".5" d="M271 179.4l.3-6.3 31.2 2.2-.4 6.3z"/><path fill="#0d0d0d" fill-opacity=".5" d="M19.7 129.7L18 127l29.4-17.7L49 112z"/><path fill="#a9a9a9" fill-opacity=".5" d="M150.2 162.4l-19.7-9.6 2.1-4.2 19.7 9.6z"/><path fill="#7b7b7b" fill-opacity=".5" d="M113.8 137.9l1.2 1-8.5 9.2-1.2-1z"/><path fill="#ccc" fill-opacity=".5" d="M236.8 59l-17.7 22-1.2-1 17.7-22z"/><path fill="#595959" fill-opacity=".5" d="M230.3 63.6l-5 3.7-1-1.3 5.1-3.6z"/><path fill-opacity=".5" d="M97.2 79.8L56.5 48l1-1.2 40.6 31.7zm107-9.5l1.6.2-2.2 14-1.6-.3z"/><path fill="#494949" fill-opacity=".5" d="M68.9 79l4.3-2 6.3 14.3-4.2 2z"/><path fill="#454545" fill-opacity=".5" d="M128 24.5l-1.2 1-40.7-45.3 1.1-1z"/><path fill="#848484" fill-opacity=".5" d="M255.7 100.2l-11.9-7.5 8.3-13.2 12 7.4z"/><path fill="#636363" fill-opacity=".5" d="M127.7 172.4l.5-1.5 26.9 8.2-.5 1.5z"/><path fill="#878787" fill-opacity=".5" d="M265-2l5 3.8-27.2 36.1-5-3.7z"/><path fill="#848484" fill-opacity=".5" d="M185.4 62.3l16 10-.9 1.3-15.9-10z"/><path fill-opacity=".5" d="M254 5.9L228.5 21 213.2-4.3l25.5-15.3zm-71.2 49.8l9.5-53.9 1.5.3-9.5 53.9z"/><path fill="#575757" fill-opacity=".5" d="M52.8 29.3L18.6-.4l2-2.4L54.8 27z"/><path fill="#656565" fill-opacity=".5" d="M190.4 88.7l1.3 1-5.5 7.5-1.3-.9z"/><path fill="#969696" fill-opacity=".5" d="M173.5 84.8l-3.3 23.2-4.6-.6 3.2-23.2z"/><path fill="#010101" fill-opacity=".5" d="M29.7 187.1l11.8-7.6 8.5 13-11.8 7.7z"/><path fill="#464646" fill-opacity=".5" d="M260.4 97.5l40.3 5-.2 1.5-40.3-5z"/><path fill="#191919" fill-opacity=".5" d="M254.6 151.3l-28.7 16-.8-1.4 28.7-16z"/><path fill="#464646" fill-opacity=".5" d="M209.7 121.2l.8 7.8-12.4 1.3-.8-7.8z"/><path fill="#363636" fill-opacity=".5" d="M378 34.8l-4.4-23 6.1-1.2 4.5 23z"/><path fill="#303030" fill-opacity=".5" d="M290.8 139.6L263 119.4l.9-1.2 27.8 20.2z"/><path fill="#373737" fill-opacity=".5" d="M101.4 98l-53 27-1.3-2.8 52.9-27z"/><path fill="#a0a0a0" fill-opacity=".5" d="M235.2 30.8l-3.4 5.3-9.2-6L226 25z"/><path fill-opacity=".5" d="M130.7 27.5l8.1-46.2 47.7 8.4-8.1 46.2z"/><path fill="#595959" fill-opacity=".5" d="M237 38.4l14.6-5.8 3.5 8.7-14.5 5.8z"/><path fill="#646464" fill-opacity=".5" d="M269.2 76.8l-39.4 15-.6-1.4 39.4-15z"/><path fill="#313131" fill-opacity=".5" d="M245 54.5l-1.8-7.7 25.9-6 1.8 7.7z"/><path fill="#565656" fill-opacity=".5" d="M393.5 193.8l.3 1.6-17 3-.2-1.6z"/><path fill="#343434" fill-opacity=".5" d="M253 197.2l5.9-5.2 8.3 9.2-5.8 5.3z"/><path fill="#919191" fill-opacity=".5" d="M352.9 187.2l-6 9.2-1.3-.8 6-9.2z"/><path fill="#6f6f6f" fill-opacity=".5" d="M102.6 45.6l6.3-.5 2.5 29.6-6.2.5z"/><path fill="#797979" fill-opacity=".5" d="M130.5 136v-1.6h25v1.5z"/><path fill="#717171" fill-opacity=".5" d="M162.6 157.8l18.4 3.6-4.5 23-18.4-3.6z"/><path fill="#4a4a4a" fill-opacity=".5" d="M376.9 140.9l-24.7-10 .6-1.4 24.7 10z"/><path fill="#9c9c9c" fill-opacity=".5" d="M369.4 107.3l-11 19-1.3-.8 11-19z"/><path fill="#595959" fill-opacity=".5" d="M195.4 73.8l-3 5.6-20.6-11 3-5.6z"/><path fill="#585858" fill-opacity=".5" d="M93.2 111.3l-46.7 18-.6-1.5 46.7-18z"/><path fill-opacity=".5" d="M311.7 80.3l11-26 54.7 23.3-11 25.9z"/><path fill="#8e8e8e" fill-opacity=".5" d="M302.5 84.9l-2 10.7-4.5-.8 1.9-10.7z"/><path fill="#505050" fill-opacity=".5" d="M382.3 193.9l-29.8-32 1.1-1 29.9 32zM252.2 178l4.1 16.6-28.8 7.2-4.1-16.7z"/><path fill="#4b4b4b" fill-opacity=".5" d="M210 66.9l1.8 10.8-4.7.7-1.7-10.8z"/><path fill="#929292" fill-opacity=".5" d="M138.2 99.4l.5 1.4-22.2 7.7-.5-1.5z"/><path fill="#767676" fill-opacity=".5" d="M224.4 35.6l1.2-1 23.4 25-1.1 1.2z"/><path fill="#cfcfcf" fill-opacity=".5" d="M146.9 114l-2.3 4-15-8.5 2.4-4.1z"/><path fill="#6a6a6a" fill-opacity=".5" d="M4 118.9l-.6-1.4 41-19.2.7 1.4z"/><path fill="#7c7c7c" fill-opacity=".5" d="M228.5 124.8l1 1.2-18.9 16.4-1-1.2z"/><path fill="#686868" fill-opacity=".5" d="M368.3 193.6l-15.3-3 2-10.7 15.4 3z"/><path fill="#747474" fill-opacity=".5" d="M158.4 207l-63.7-15.8 1.6-6 63.6 15.8z"/><path fill="#111" fill-opacity=".5" d="M217.3 103l.6 1.4-8.7 3.5-.6-1.4z"/><path fill="#606060" fill-opacity=".5" d="M84 45.5l-1 1.3-62.3-47 1-1.3z"/><path fill-opacity=".5" d="M364.5 205.5l-5.3-3.4 6-9.2 5.2 3.4z"/><path fill="#404040" fill-opacity=".5" d="M21.8 113.6L20.4 129l-6.2-.5 1.3-15.6z"/><path fill="#535353" fill-opacity=".5" d="M45.2 143.2l19.8 4.5-2.4 10.7-19.8-4.6z"/><path fill="#424242" fill-opacity=".5" d="M269.2 117.6l6.5-4.4 3.5 5.2-6.5 4.3z"/><path fill="#060606" fill-opacity=".5" d="M323.4 164.8l1 1.2-2.4 2-1-1.2z"/><path fill="#757575" fill-opacity=".5" d="M272 176.2l-2.4-4 16.3-9.4 2.3 4z"/><path fill="#0a0a0a" fill-opacity=".5" d="M184.9 149.6l21.9-8.4.5 1.4-21.9 8.4z"/><path fill="#313131" fill-opacity=".5" d="M10 94.5l-.6-1.4 25.9-11 .6 1.4z"/><path fill="#3f3f3f" fill-opacity=".5" d="M271.6 86.5l-10.9-1.1.5-4.7 10.9 1.1z"/><path fill="#757575" fill-opacity=".5" d="M389.6 124l-53.3-29.5.7-1.4 53.3 29.6z"/><path fill="#797979" fill-opacity=".5" d="M366 172.4l-7-24 1.6-.5 6.9 24z"/><path fill="#747474" fill-opacity=".5" d="M311.8 144.5l1.4 37.4-4.7.2-1.3-37.5z"/><path fill="#181818" fill-opacity=".5" d="M222.3 140.1l.8-4.6 6.1 1-.7 4.6z"/><path fill="#747474" fill-opacity=".5" d="M360.7 143l-2.7-15.4 1.6-.3 2.7 15.4z"/><path fill="#4b4b4b" fill-opacity=".5" d="M36.4 153.2l2.9 10.6-24.2 6.4-2.8-10.5z"/><path fill="#6d6d6d" fill-opacity=".5" d="M96.8 88.7l-67.1-2.4v-1.5L97 87z"/><path fill="#949494" fill-opacity=".5" d="M141 140.7l-.4-1.5 13.7-3.4.4 1.5z"/><path fill="#0d0d0d" fill-opacity=".5" d="M321.3 167.8l-1.4-.6 4.1-8.5 1.4.7z"/><path fill="#797979" fill-opacity=".5" d="M92.7 14.3l.7-1.4L137 34.1l-.7 1.4z"/><path fill="#0c0c0c" fill-opacity=".5" d="M352 172.9l.9 1.3-6.4 4.5-1-1.3z"/><path fill="#626262" fill-opacity=".5" d="M142.4 35.3l-13.8 7.3-.7-1.3 13.8-7.4z"/><path fill="#858585" fill-opacity=".5" d="M395.6 134.3l3.1.3-2.1 20.2-3.1-.3z"/><path fill="#9f9f9f" fill-opacity=".5" d="M116.4 158.4l.9-1.3 11.6 7.9-.9 1.3z"/><path fill="#383838" fill-opacity=".5" d="M96.5 109l-3 7.1-26-11 3.1-7.2z"/><path fill="#434343" fill-opacity=".5" d="M186.9 112.2L183 119l-2.8-1.5 3.8-6.8z"/><path fill="#7a7a7a" fill-opacity=".5" d="M316 1l-11 6.3-3.8-6.8 10.9-6.2z"/><path fill="#696969" fill-opacity=".5" d="M179.2 71.5L175 63l9.8-4.8 4.1 8.5z"/><path fill="#111" fill-opacity=".5" d="M264.3 152.3l1.8 2.6-19.5 13.1-1.7-2.6z"/><path fill="#afafaf" fill-opacity=".5" d="M180.2 61.3l-21.6-3.8.3-1.6 21.5 3.8z"/><path fill-opacity=".5" d="M195.3 130l7.7-.6.2 1.5-7.8.7z"/><path fill="#b3b3b3" fill-opacity=".5" d="M147.3 134l-.9 1.3-7.8-5.2 1-1.3z"/><path fill="#535353" fill-opacity=".5" d="M333 162.4l39.3 19.1-.6 1.4-39.4-19.1z"/><path fill="#c1c1c1" fill-opacity=".5" d="M184.9 122.8l-9.2-2 .3-1.4 9.2 1.9z"/><path fill="#747474" fill-opacity=".5" d="M17.1 92.8l.5 1.5-27 8.2-.4-1.5z"/><path fill="#777" fill-opacity=".5" d="M77.2 213l-1.5.4-10.7-31 1.5-.5z"/><path fill="#a2a2a2" fill-opacity=".5" d="M228.6 109l-2.3-4 21.6-12.5 2.4 4z"/><path fill="#070707" fill-opacity=".5" d="M307.7 136.9l-5.6-5.5 1.1-1 5.6 5.3z"/><path fill="#040404" fill-opacity=".5" d="M286.7 116.3l15.1-11 3.7 5-15.2 11z"/><path fill="#060606" fill-opacity=".5" d="M72.4 204.7l-.8 1.4-36.2-21.8.8-1.3z"/><path fill="#222" fill-opacity=".5" d="M163.3 111.6l1.5.4-1.6 6-1.5-.3z"/><path fill="#040404" fill-opacity=".5" d="M219 150.3l43.6-17.6 1.1 3-43.4 17.5z"/><path fill="#7c7c7c" fill-opacity=".5" d="M280 18.6L259.4 11l9-25L289-6.4z"/><path fill-opacity=".5" d="M184.2 48.1l-1.8-4.3L211 31.6l1.9 4.3z"/><path fill="#717171" fill-opacity=".5" d="M352.4 122.6l2.7 7.3-6 2.2-2.6-7.4z"/><path fill="#888" fill-opacity=".5" d="M218.7 53.9l-6.3 19.3-1.4-.5 6.2-19.3z"/><path fill="#b3b3b3" fill-opacity=".5" d="M156 92.6l-5.8-2.4 8-18.7 5.7 2.4z"/><path fill="#9d9d9d" fill-opacity=".5" d="M279.6 200.7l-10.9-1.4.2-1.5 10.8 1.3z"/><path fill-opacity=".5" d="M266.8 113.7L242.2 142l-1.2-1 24.6-28.3z"/><path fill="#b9b9b9" fill-opacity=".5" d="M139.2 50.7l1.4.7-22 43.2-1.4-.7z"/><path fill="#575757" fill-opacity=".5" d="M54.5 146.7l82 38.3-1.9 4.2L52.5 151z"/><path fill="#a6a6a6" fill-opacity=".5" d="M172.6 107.1l1.5 7.7-7.7 1.5-1.4-7.7z"/><path fill="#090909" fill-opacity=".5" d="M286.4 48.2l-24.6 26.2-9-8.5 24.4-26.3z"/><path fill="#545454" fill-opacity=".5" d="M284.7 30.7l-1.8-2.6 37.1-26 1.8 2.6z"/><path fill="#606060" fill-opacity=".5" d="M290.1 103l22.4-19.4 2 2.4-22.3 19.4z"/><path fill="#020202" fill-opacity=".5" d="M301.8 26.6l2.7 51.4-1.6.1-2.7-51.5z"/><path fill="#434343" fill-opacity=".5" d="M329.8 110.7l1 1.2-15.3 13.3-1-1.2z"/><path fill="#252525" fill-opacity=".5" d="M32.7 159.9l1.4-.6 9.8 23-1.5.6z"/><path fill="#c4c4c4" fill-opacity=".5" d="M137 102.4l1.3-9.2 20 2.8-1.2 9.3z"/><path fill="#060606" fill-opacity=".5" d="M57.8 105.3l12 3.6-1 3-12-3.6z"/><path fill="#7e7e7e" fill-opacity=".5" d="M375.8 116.7l-5-6 5-4 4.9 6z"/><path fill="#3c3c3c" fill-opacity=".5" d="M327.3 155.1l6.2 1-3 21.6-6.2-.9z"/><path fill="#9e9e9e" fill-opacity=".5" d="M201.7 61.6l-10.6-13.5 2.5-2 10.6 13.6z"/><path fill="#4e4e4e" fill-opacity=".5" d="M19.6 121.2l-25 1.3-.2-4.7 25-1.3z"/><path fill="#181818" fill-opacity=".5" d="M277.4 100.3l2 2.4-27 23.5-2.1-2.3z"/><path fill-opacity=".5" d="M384.4 200v-1.5l7.8-.1v1.5zM36.7 66.4l47.8-7.6 2.2 13.9L39 80.3z"/><path fill="#747474" fill-opacity=".5" d="M6.2-22l77.7 63-1 1.2L5.2-20.7z"/><path fill="#565656" fill-opacity=".5" d="M95.4 154.3l38.2-17.8.7 1.4L96 155.7z"/><path fill="#414141" fill-opacity=".5" d="M201.2 135l.7 6.3-1.5.2-.8-6.2z"/><path fill="#747474" fill-opacity=".5" d="M44.6 166l1.4 6-4.6 1-1.4-6z"/><path fill="#010101" fill-opacity=".5" d="M181.8 86.4l-6.6-4.3.9-1.3 6.5 4.3z"/><path fill="#393939" fill-opacity=".5" d="M86.7 197.6v3.2h-3l-.1-3.1z"/><path fill="#909090" fill-opacity=".5" d="M77 21.4l7.3-8L130.8 55l-7.3 8.2z"/><path fill="#b3b3b3" fill-opacity=".5" d="M198.1 69.6l-11.5-14.8 1.2-1 11.6 14.8z"/><path fill-opacity=".5" d="M323.1 197.9l2.9 1.3-.7 1.4-2.8-1.3z"/><path fill="#747474" fill-opacity=".5" d="M115 43l-1-3 19.4-6.3 1 3z"/><path fill="#a7a7a7" fill-opacity=".5" d="M131.1 96.8l1.2-1 28.8 30.8-1.2 1z"/><path fill="#9d9d9d" fill-opacity=".5" d="M171 64.1l-14.4 12-1-1.1L170 63z"/><path fill="#2d2d2d" fill-opacity=".5" d="M219.3 101.5l1.1 3-13.1 5-1.1-3z"/><path fill="#5a5a5a" fill-opacity=".5" d="M185.4 147.5l-1.4-.7 4-8.4 1.5.7z"/><path fill="#787878" fill-opacity=".5" d="M266 95.1l-61 28.4-.6-1.4 60.9-28.4z"/><path fill-opacity=".5" d="M370.5 156.3l-1.3-.8 2.5-4 1.3.8z"/><path fill="#272727" fill-opacity=".5" d="M263.3 98.6l1 1.2-10.4 9.4-1-1.2z"/><path fill="#757575" fill-opacity=".5" d="M330.3 103.8l5.5-11.2 4.2 2-5.5 11.3z"/><path fill="#474747" fill-opacity=".5" d="M342.6-12l-19.7 35.6-1.4-.7 19.7-35.6z"/><path fill="#838383" fill-opacity=".5" d="M108.5 56.6l-3.1.4-9.2-87 3.1-.4z"/><path fill="#5e5e5e" fill-opacity=".5" d="M207.3 166.3l-1 3-37-12.1.9-3z"/><path fill="#a2a2a2" fill-opacity=".5" d="M164 81.7l15 8.6-.9 1.4-14.8-8.6z"/><path fill="#636363" fill-opacity=".5" d="M407.2 133l-19 7-3.3-8.9 19.1-7z"/><path fill="#161616" fill-opacity=".5" d="M83.8 129.4l-1-1.2 28.7-21.7 1 1.3z"/><path fill="#5a5a5a" fill-opacity=".5" d="M396.7 187l7.3 2.9-2.3 5.8-7.2-2.8z"/><path fill="#a5a5a5" fill-opacity=".5" d="M118.1 110.6l12.5.7-.3 4.6-12.4-.6z"/><path fill="#4e4e4e" fill-opacity=".5" d="M387.8 129.8l5.6 35.5-1.5.2-5.6-35.5z"/><path fill="#4d4d4d" fill-opacity=".5" d="M368.7 128.1l10.4-13.7 3.7 2.8-10.3 13.7z"/><path fill="#8a8a8a" fill-opacity=".5" d="M305 94.4l29 11.7-3 7.3-29-11.7z"/><path fill="#838383" fill-opacity=".5" d="M332.2 187.7l4.1 6.6-1.3.8-4.1-6.6z"/><path fill="#c3c3c3" fill-opacity=".5" d="M232.4 62.9l-16.7-4 .3-1.4 16.8 3.8z"/><path fill="#454545" fill-opacity=".5" d="M167 96.3l.4-1.5 4.6 1.1-.4 1.5z"/><path fill-opacity=".5" d="M258.7 75.7L279.4 59l1 1.2L259.6 77z"/><path fill="#2d2d2d" fill-opacity=".5" d="M241.5 170.7l22.7-10.6 5.2 11.4-22.6 10.5z"/><path fill="#4a4a4a" fill-opacity=".5" d="M220.2 65.3l3 .8-1.3 4.6-3-1z"/><path fill="#6b6b6b" fill-opacity=".5" d="M143.8 84.1l-1.2 1-3.6-5.2 1.3-.9z"/><path fill="#878787" fill-opacity=".5" d="M200.2 62.7l6.6-10.6 4 2.4-6.7 10.6z"/><path fill="#919191" fill-opacity=".5" d="M158.4 36.4l1-3 11.9 3.7-1 3z"/><path fill="#515151" fill-opacity=".5" d="M122.6 121.4l5.9-2 .5 1.4-6 2z"/><path fill="#6d6d6d" fill-opacity=".5" d="M42.9 92l.2-10.9 12.5.3-.2 10.9z"/><path fill="#131313" fill-opacity=".5" d="M208.8 65l-1.7-2.6 1.3-.9 1.7 2.7z"/><path fill="#5f5f5f" fill-opacity=".5" d="M214 186.1v3.1l-82.6 4.4-.2-3.1z"/><path fill="#4e4e4e" fill-opacity=".5" d="M325 85.4V87l-14 1-.1-1.6z"/><path fill="#363636" fill-opacity=".5" d="M66.3 38.4l1.2-1 33.4 41.3-1.2 1z"/><path fill="#797979" fill-opacity=".5" d="M200.5 106.8l-1.5-2.7 27-15.6 1.6 2.7z"/><path fill="#5b5b5b" fill-opacity=".5" d="M287.3 81l9.7 26.5-1.5.5-9.6-26.4z"/><path fill="#2e2e2e" fill-opacity=".5" d="M176 156l-3.3-12 6-1.6 3.3 12z"/><path fill="#0e0e0e" fill-opacity=".5" d="M37.7 130.9L25.4 133l-2.2-12.3 12.3-2.2z"/><path fill-opacity=".5" d="M402.8 197.9l-7.6-2 .4-1.6 7.6 2z"/><path fill="#101010" fill-opacity=".5" d="M379.1 190.1l-12 10-1-1.1 12-10z"/><path fill="#303030" fill-opacity=".5" d="M156.4 45.3l-.3 7.8h-1.5l.2-7.8z"/><path fill="#5c5c5c" fill-opacity=".5" d="M103.9 78.5L80.9 49l1.1-1 23.1 29.6z"/><path fill="#2a2a2a" fill-opacity=".5" d="M17.6 125.4L4 152l-1.4-.7 13.5-26.5z"/><path fill="#525252" fill-opacity=".5" d="M111.8 103l1.4-.5 4.7 11.6-1.4.6z"/><path fill="#1b1b1b" fill-opacity=".5" d="M166.2 118l-9.2-1.7.3-1.6 9.2 1.8z"/><path fill="#4b4b4b" fill-opacity=".5" d="M246.4 122.5l.8 1.3-29.5 17.8-.8-1.4z"/><path fill="#858585" fill-opacity=".5" d="M148.3 182.3l-.6 1.5-25.7-11.5.6-1.4z"/><path fill="#636363" fill-opacity=".5" d="M165.4 127.5l-6.6 4.1-.8-1.3 6.6-4.1z"/><path fill="#414141" fill-opacity=".5" d="M44.4 118.4l1-1.2L79 142.5l-1 1.3z"/><path fill="#9a9a9a" fill-opacity=".5" d="M348.2 116.2l-.7 1.4-31.6-13.4.6-1.5z"/><path fill="#4b4b4b" fill-opacity=".5" d="M95 97.3l-.4-1.5 15-4 .5 1.5z"/><path fill="#b6b6b6" fill-opacity=".5" d="M154.5 88.2l-4 2.5-19-30.5 4-2.5z"/><path fill="#373737" fill-opacity=".5" d="M255.4 153l-33.2 31-1-1.2 33.1-30.9z"/><path fill="#979797" fill-opacity=".5" d="M233.7 47.8l16.7 20.6-1.2 1-16.8-20.6z"/><path fill="#151515" fill-opacity=".5" d="M164 132.2l.1 1.6-14 1.2-.1-1.6z"/><path fill="#131313" fill-opacity=".5" d="M125 132.6l-5.3 3.5-21.2-32.8 5.2-3.4z"/><path fill="#010101" fill-opacity=".5" d="M349.9 139.2l-.6-1.4 8.7-3.6.5 1.5z"/><path fill="#b0b0b0" fill-opacity=".5" d="M185.2 140.8l-4 2.2-2.4-4 4.1-2.3z"/><path fill="#242424" fill-opacity=".5" d="M391.7-26.5l-71.5 55.8-1-1.2 71.5-55.8z"/><path fill="#343434" fill-opacity=".5" d="M385 156.8l10.7 2.1-1 4.6-10.7-2z"/><path fill="#a9a9a9" fill-opacity=".5" d="M155 46l-4.7 6.2-3.7-2.8 4.7-6.3z"/><path fill="#adadad" fill-opacity=".5" d="M215.2 91.4l-1.5-.3 3.9-24.7 1.5.3z"/><path fill="#626262" fill-opacity=".5" d="M336.3 130l-2-4.1 15.4-7.6 2 4.3z"/><path fill="#444" fill-opacity=".5" d="M-24 186.7L7 172l18.5 39.7-31.2 14.5z"/><path fill="#878787" fill-opacity=".5" d="M167.8 79.7l2.9 1.2-5.7 12.9-2.9-1.3z"/><path fill="#212121" fill-opacity=".5" d="M216.8 127.5l4.3-4.5 1.1 1-4.2 4.6z"/><path fill="#4c4c4c" fill-opacity=".5" d="M329.8 182l33.7 30.2-1 1.2-33.8-30.3z"/><path fill="#777" fill-opacity=".5" d="M367.3 154.8l1.8 6-25.4 7.8-1.8-6z"/><path fill="#b6b6b6" fill-opacity=".5" d="M162 55.5l-.6-1.5 18.7-8 .6 1.5z"/><path fill="#9f9f9f" fill-opacity=".5" d="M100.4 23.4l5 14.7-7.3 2.6L93 25.9z"/><path fill="#505050" fill-opacity=".5" d="M379.3 175.9l-.5-1.5 6-1.8.4 1.5z"/><path fill="#898989" fill-opacity=".5" d="M181.7 104.9l.3 1.5-12.1 2.8-.4-1.5z"/><path fill="#7e7e7e" fill-opacity=".5" d="M203.4 88.4l-1.1-1 2-2.4 1.2 1z"/><path fill-opacity=".5" d="M-7.6 93.5L-9 86l30.7-6 1.5 7.7z"/><path fill="#020202" fill-opacity=".5" d="M212.3 153.7l-.3 1.6-38.4-7.5.3-1.5z"/><path fill="#373737" fill-opacity=".5" d="M126.2 135.9l-38 9.4-.3-1.5 37.9-9.4z"/><path fill="#626262" fill-opacity=".5" d="M300.7 99.6l-.3 1.5-33.9-5.4.2-1.5z"/><path fill="#9b9b9b" fill-opacity=".5" d="M354.7 111l6.6-8.8 1.2 1-6.6 8.7z"/><path fill="#080808" fill-opacity=".5" d="M333.2 30l-6.4-4.5 7.2-10.2 6.4 4.5z"/><path fill="#343434" fill-opacity=".5" d="M81.3 72.9L88.5 83l-2.6 2-7.2-10.2z"/><path fill="#5e5e5e" fill-opacity=".5" d="M356.9 104.2l-5 3.8-1-1.3 5-3.7z"/><path fill="#5a5a5a" fill-opacity=".5" d="M311.4 119.9l.6 1.4-15.6 7.3-.6-1.5z"/><path fill="#838383" fill-opacity=".5" d="M343.6 180.4l1-1.3L358 190l-1 1.2z"/><path fill="#252525" fill-opacity=".5" d="M218 156.6l-.5-1.5 19.1-7 .6 1.5z"/><path fill="#636363" fill-opacity=".5" d="M399 158.7l1.3.7-4 8.5-1.3-.7z"/><path fill="#444" fill-opacity=".5" d="M47.2 176.3l3 .8-2.1 7.6-3-1z"/><path fill-opacity=".5" d="M38.5 25l41.6 40.2-10.8 11.3-41.6-40.2z"/><path fill="#919191" fill-opacity=".5" d="M252.7 90.4l9.5-5.3 2.3 4.1-9.6 5.3z"/><path fill="#a4a4a4" fill-opacity=".5" d="M229 28l-21 18.6-1-1.1 21-18.6z"/><path fill="#ababab" fill-opacity=".5" d="M166.3 121l1.5.2-1.3 9.3-1.5-.2z"/><path fill="#787878" fill-opacity=".5" d="M319 145l.2-1.5 35.3 6.8-.3 1.6z"/><path fill="#4c4c4c" fill-opacity=".5" d="M292.4 189.1l-25.7 11.5-4.4-10L288 179z"/><path fill="#7b7b7b" fill-opacity=".5" d="M239.5 33.6l.6 1.4-18.7 8-.6-1.5z"/><path fill-opacity=".5" d="M392.1 174.2l.2-9.4h1.5l-.1 9.4z"/><path fill="#5e5e5e" fill-opacity=".5" d="M182.7 132.3l.7 1.4-8.3 4.3-.7-1.4z"/><path fill="#797979" fill-opacity=".5" d="M175.4 128.4l2.4-5.8 1.4.6-2.3 5.8z"/><path fill="#828282" fill-opacity=".5" d="M94.5 81.6l6.4 4.4-6.3 9-6.4-4.5z"/><path fill="#404040" fill-opacity=".5" d="M221.3 162.7l-26-5.1.6-3 26 5z"/><path fill="#0d0d0d" fill-opacity=".5" d="M-.2 201.5l-1.2-1.1 3.2-3.4 1.2 1z"/><path fill="#3e3e3e" fill-opacity=".5" d="M197.4 122l1 1-6.7 6.6-1-1.1z"/><path fill="#616161" fill-opacity=".5" d="M211.8 102.2l.5 1.5-13.1 5-.6-1.4z"/><path fill="#757575" fill-opacity=".5" d="M65.4 187.7l.6-1.5 60.8 24.6-.6 1.4z"/><path fill="#555" fill-opacity=".5" d="M264.4 97.3l8.8-21.7 1.4.5L266 98z"/><path fill="#6d6d6d" fill-opacity=".5" d="M242.2 213.5l-.5-1.5 83.3-27 .4 1.4z"/><path fill="#3d3d3d" fill-opacity=".5" d="M143 131.3v-4.7h6.2v4.7z"/><path fill="#c1c1c1" fill-opacity=".5" d="M172.3 141.5l-1.2-1 2-2.4 1.2 1z"/><path fill="#5d5d5d" fill-opacity=".5" d="M248.3 47.9l-5.5 3-5.2-9.7 5.6-3z"/><path fill="#4b4b4b" fill-opacity=".5" d="M314.2 140.6l11.7-4.3 2.1 6-11.7 4.2z"/><path fill="#949494" fill-opacity=".5" d="M342.1 148l1.1-1.2 10 10-1.1 1z"/><path fill="#232323" fill-opacity=".5" d="M19.5 105.8l-.8-1.4 4-2.4.8 1.4z"/><path fill="#646464" fill-opacity=".5" d="M282.7-7.8l12-3.5 8.6 30-12 3.5z"/><path fill="#1f1f1f" fill-opacity=".5" d="M40.6 111.3l6.8-6.5 1 1.1-6.7 6.5z"/><path fill="#1c1c1c" fill-opacity=".5" d="M252.7 52l-5.3-11.2 1.4-.7 5.3 11.3z"/><path fill="#787878" fill-opacity=".5" d="M124.5 116.5l1-1.2 17.2 13.5-1 1.2z"/><path fill="#555" fill-opacity=".5" d="M50.5 159.5l31-18 4 6.8-31.1 18z"/><path fill="#bcbcbc" fill-opacity=".5" d="M134.3 126.5l-3.4 3.2-4.3-4.6 3.5-3.2z"/><path fill="#6a6a6a" fill-opacity=".5" d="M218 104.2l2.6 4-2.7 1.6-2.5-3.9z"/><path fill="#020202" fill-opacity=".5" d="M364.3 150.2l-2.4-4 6.6-4.2 2.5 4z"/><path fill="#acacac" fill-opacity=".5" d="M195.1 61.7l-7.3 2.6-3.2-8.8 7.3-2.6z"/><path fill="#565656" fill-opacity=".5" d="M57.8 185.7l1.5 7.7-3 .6-1.5-7.7z"/><path fill="#454545" fill-opacity=".5" d="M177 151.8l-3.8 5-5-4 4-4.8z"/><path fill="#080808" fill-opacity=".5" d="M396.4 6.8l-37.4 2-.7-14 37.4-2z"/><path fill="#737373" fill-opacity=".5" d="M126.7 155.3l-20 8.9-3.8-8.6 20-8.9z"/><path fill="#282828" fill-opacity=".5" d="M178.6 69.5l2.1 9.1-1.5.4-2.1-9.2z"/><path fill="#5d5d5d" fill-opacity=".5" d="M72.8 89.2l6.7-8.6 8.6 6.7-6.7 8.7z"/><path fill="#7c7c7c" fill-opacity=".5" d="M380.7 114.5l.7-1.4 11.3 5.2-.6 1.5z"/><path fill-opacity=".5" d="M113.1 104.2l-4.6.8-1.3-7.7 4.6-.8z"/><path fill="#b2b2b2" fill-opacity=".5" d="M122.6 94.5l6.6 4.1-3.3 5.3-6.6-4.1z"/><path fill="#a5a5a5" fill-opacity=".5" d="M316.5 92.3l10.5 3-1.3 4.6-10.5-3z"/><path fill="#2e2e2e" fill-opacity=".5" d="M336.4 123.3l-.5 1.4-14.5-5.8.6-1.5z"/><path fill="#5b5b5b" fill-opacity=".5" d="M25.4 148.5l-4.4 1.7-7.3-19 4.4-1.7z"/><path fill="#4f4f4f" fill-opacity=".5" d="M284.3 145.3L278 154l-1.3-1 6.5-8.8z"/><path fill="#b5b5b5" fill-opacity=".5" d="M214.9 111.1l.6 1.5-28.8 12.2-.6-1.4z"/><path fill="#0c0c0c" fill-opacity=".5" d="M281.2 160.2l-9 2.4-5-18.1 9.1-2.4z"/><path fill="#444" fill-opacity=".5" d="M215.7 164.4l19.5-10 .7 1.5-19.5 10z"/><path fill-opacity=".5" d="M259.6 2.7L236.3 5l-.6-6.2L259-3.6z"/><path fill="#282828" fill-opacity=".5" d="M210.2 60.3l1.3.9-14 20.7-1.2-.9z"/><path fill="#757575" fill-opacity=".5" d="M60.3 144.4l-.7 3-12.1-2.8.7-3z"/><path fill="#898989" fill-opacity=".5" d="M201.1 70l-5-3.8 13.7-19 5 3.7z"/><path fill="#0d0d0d" fill-opacity=".5" d="M183.7 133.4l-.2-1.6 12.5-1 .1 1.5z"/><path fill="#8c8c8c" fill-opacity=".5" d="M199.2 110.9l.4-1.6 15.2 3.3-.3 1.5z"/><path fill="#020202" fill-opacity=".5" d="M251 60.7l2.7-3.8L275.5 72l-2.7 3.8z"/><path fill="#a6a6a6" fill-opacity=".5" d="M207.7 93.1l-.9-1.3 40.2-27 .9 1.2z"/><path fill="#8a8a8a" fill-opacity=".5" d="M308.4 172.5l1.3 1-19.7 24.3-1.2-1z"/><path fill="#777" fill-opacity=".5" d="M173.7 90.3l11 .7-.6 7.8-11-.8z"/><path fill="#a1a1a1" fill-opacity=".5" d="M195.1 138.4l-6.6 4.2-.8-1.3 6.6-4.2z"/><path fill="#555" fill-opacity=".5" d="M157 33l3-.4.3 1.5-3.1.5z"/><path fill="#4f4f4f" fill-opacity=".5" d="M272.3 32.5l-26.7 13-.7-1.4 26.7-13z"/><path fill="#606060" fill-opacity=".5" d="M362.8 105.6l1.3.8-3.5 5.2-1.3-.9z"/><path fill="#303030" fill-opacity=".5" d="M356.2 176.4l-7 3.3-.7-1.4 7-3.3z"/><path fill="#818181" fill-opacity=".5" d="M233.2 28.5l-2.6-3.9 44-29.7 2.6 4z"/><path fill="#6d6d6d" fill-opacity=".5" d="M319.8 160l-34.2 3.5-.7-6.2 34.2-3.6z"/><path fill="#787878" fill-opacity=".5" d="M118.9 77l-7.3-3 2.4-5.7 7.2 3z"/><path fill="#a7a7a7" fill-opacity=".5" d="M163.5 94.7l13.1 11-1 1.2-13.2-11z"/><path fill="#363636" fill-opacity=".5" d="M205.5 141.8l.5-1.5 11.9 3.9-.5 1.4z"/><path fill="#4d4d4d" fill-opacity=".5" d="M20.4 137.9l-.5-1.5 20.7-7.1.5 1.5z"/><path fill="#414141" fill-opacity=".5" d="M193.1 133.2l-.3 1.5-3-.7.3-1.5z"/><path fill="#1d1d1d" fill-opacity=".5" d="M169 75l2.4 4-1.3.7-2.5-4z"/><path fill="#3c3c3c" fill-opacity=".5" d="M154.4 113.5l2.8 1.3-.6 1.4-2.9-1.3z"/><path fill="#151515" fill-opacity=".5" d="M229.2 146.2l.4-1.5 55.3 17-.5 1.4z"/><path fill="#4c4c4c" fill-opacity=".5" d="M17.5 184.6L16 184l24.2-42 1.4.8z"/><path fill="#5a5a5a" fill-opacity=".5" d="M39.2 123.6l8-5L53 128l-8 5z"/><path fill="#4a4a4a" fill-opacity=".5" d="M7 152.4l-1.6-.1L7.2 118h1.5zm306.4-63.2L303 82.4l.9-1.3 10.5 6.8z"/><path fill="#070707" fill-opacity=".5" d="M285.3 137.4l-32-12.4.5-1.4 32 12.3z"/><path fill="#363636" fill-opacity=".5" d="M74 50.7l-4.2-15 1.5-.5 4.3 15z"/><path fill="#1d1d1d" fill-opacity=".5" d="M249 57.2l-.6-1.4L290 38l.6 1.4z"/><path fill="#a7a7a7" fill-opacity=".5" d="M112 50.5l17.5-10.2.8 1.4-17.6 10.1z"/><path fill="#8f8f8f" fill-opacity=".5" d="M221.8 87.6l-.6-1.4 33.6-12.9.5 1.5z"/><path fill="#a3a3a3" fill-opacity=".5" d="M348.2 104.9l-8.4-7 1-1.2 8.4 7z"/><path fill="#373737" fill-opacity=".5" d="M346.4-4.4L338 19l-1.5-.5L344.9-5z"/><path fill="#555" fill-opacity=".5" d="M229.9 167.7l.3 1.5-39.7 8.4-.4-1.5z"/><path fill="#818181" fill-opacity=".5" d="M219 101.6l-1 1.2-7.2-6 1-1.2z"/><path fill="#555" fill-opacity=".5" d="M92.5 98.8l5.8-9.3 1.4.8-5.8 9.3z"/><path fill="#717171" fill-opacity=".5" d="M154.7 125.5l-13.9 2.2-.2-1.6 13.9-2.2z"/><path fill="#010101" fill-opacity=".5" d="M363.4 102L350 98l10-33 13.5 4.1z"/><path fill="#0c0c0c" fill-opacity=".5" d="M215.7 104l.5 1.4-11.5 4.7-.6-1.5z"/><path fill="#9d9d9d" fill-opacity=".5" d="M184.2 93l1 1.3-11.6 8-.9-1.3z"/><path fill="#191919" fill-opacity=".5" d="M21.8 118.3l1.2-2.9 13 5.3-1.2 3z"/><path fill="#4e4e4e" fill-opacity=".5" d="M256.8 71.3l5 11.4-1.4.7-5-11.4z"/><path fill="#2e2e2e" fill-opacity=".5" d="M255.2 119.4l-32.8 26.5-1-1.2 32.8-26.6z"/><path fill="#010101" fill-opacity=".5" d="M419.8 102.9l-14.8 22-39-26.2 14.9-22z"/><path fill="#a0a0a0" fill-opacity=".5" d="M148.6 125l-9.2-1.6 1-6.2 9.3 1.6z"/><path fill="#737373" fill-opacity=".5" d="M154.4 50H153l.5-14h1.5z"/><path fill="silver" fill-opacity=".5" d="M214.5 86.8l-1-1.1 26.7-24 1 1z"/><path fill="#595959" fill-opacity=".5" d="M326.7 165.2l1.4.6-6.3 14.3-1.5-.6z"/><path fill="#9f9f9f" fill-opacity=".5" d="M220.7 63.7l-5.8-9.2 6.6-4.2 5.8 9.3z"/><path fill="#ababab" fill-opacity=".5" d="M138.5 67.7l-1.8 4.4-17.4-7 1.8-4.4z"/><path fill="#8c8c8c" fill-opacity=".5" d="M126.4 142.5l15.7 25.1-1.3.9-15.7-25.2z"/><path fill-opacity=".5" d="M355.8 195.5l12.5 1.3-.7 6.2-12.4-1.3z"/><path fill="#303030" fill-opacity=".5" d="M203.6 170.3l-.3-1.5 32.2-6.3.3 1.5z"/><path fill="#5e5e5e" fill-opacity=".5" d="M335.3 132.4l1-1.2 20.6 19.2-1 1.2z"/><path fill="#3e3e3e" fill-opacity=".5" d="M318.1 175l-.1-1.6 34.2-3 .1 1.5z"/><path fill="#3b3b3b" fill-opacity=".5" d="M63.4 195.2l.9 1.3-10.5 6.8-.9-1.3z"/><path fill="#484848" fill-opacity=".5" d="M286.7 122.4l-.3 1.5-21.5-4.1.3-1.6z"/><path fill="#323232" fill-opacity=".5" d="M290.7 37.9L303.4 22l1.3 1-12.8 15.8z"/><path fill="#8f8f8f" fill-opacity=".5" d="M242.2 116.7l-9.9 10-1.1-1.2 10-10z"/><path fill="#333" fill-opacity=".5" d="M228.2 65.2l-4.6.8-.3-1.6 4.7-.7z"/><path fill="#8b8b8b" fill-opacity=".5" d="M105 67.5l-7.7 1-.8-6.3 7.8-1z"/><path fill="#252525" fill-opacity=".5" d="M263 105l1.3-2.8 8.6 3.7-1.2 2.8z"/><path fill="#404040" fill-opacity=".5" d="M88.3 141.4H69.5V132h18.8z"/><path fill="#3c3c3c" fill-opacity=".5" d="M151.8 143.4l13-5.5.6 1.5-13 5.5z"/><path fill="#3d3d3d" fill-opacity=".5" d="M288.9 103.4l-29.5-3.7.2-1.5 29.4 3.6z"/><path fill="#636363" fill-opacity=".5" d="M360.4 179.8l.5 3.1-47.9 7.6-.4-3.1z"/><path fill="#4c4c4c" fill-opacity=".5" d="M108 161h-1.6l-.3-14.1h1.6z"/><path fill="#969696" fill-opacity=".5" d="M207 99.8l-21.6 3.5-.2-1.6 21.6-3.4z"/><path fill="#646464" fill-opacity=".5" d="M59.8 124.4l2.7-5.6 4.3 2-2.8 5.7z"/><path fill="#505050" fill-opacity=".5" d="M277.6 196.6l-54.4-5.7.8-7.8 54.4 5.7z"/><path fill="#555" fill-opacity=".5" d="M50.2 110.6l-1.4-.6 5.7-12.8 1.4.6z"/><path fill="#a5a5a5" fill-opacity=".5" d="M166.4 120.2l1.2-1 5 6-1.2 1z"/><path fill="#757575" fill-opacity=".5" d="M120.8 117.4l1.4-.7 5.5 11.2-1.4.7z"/><path fill="#bdbdbd" fill-opacity=".5" d="M140.5 35.2l12.6 9.2-4.5 6.3-12.7-9.2z"/><path fill="#363636" fill-opacity=".5" d="M177.6 44.7l-1.8-2.5 1.3-1 1.8 2.6z"/><path fill="#888" fill-opacity=".5" d="M157.5 126.4l1 1.2-5 3.8-1-1.2z"/><path fill="#696969" fill-opacity=".5" d="M154.7 109.4h11v1.5h-11z"/><path fill="#646464" fill-opacity=".5" d="M278 98.7l19.5-15.8 1 1.2L279 100z"/><path fill="#1f1f1f" fill-opacity=".5" d="M212.8 75.5l-4.1 4.7-1.2-1 4.1-4.7z"/><path fill="#373737" fill-opacity=".5" d="M298.6 24.7l11.2-8.5 5.7 7.5-11.3 8.5z"/><path fill="#454545" fill-opacity=".5" d="M163.3 61.5l1.4.7-1.4 2.8-1.4-.7z"/><path fill="#363636" fill-opacity=".5" d="M278.3 83.6L277 83l2.6-5.7 1.4.6z"/><path fill="#303030" fill-opacity=".5" d="M140.5 140.9l4-2.5 4 6.6-3.9 2.5z"/><path fill="#484848" fill-opacity=".5" d="M212.8 150.7l-.7-1.4 29.7-17.2.8 1.4z"/><path fill="#8c8c8c" fill-opacity=".5" d="M178.1 45.9l-4.8 4-3-3.6 4.8-4z"/><path fill="#787878" fill-opacity=".5" d="M142.7 163l.7-1.4 18.5 8.2-.6 1.5z"/><path fill="#595959" fill-opacity=".5" d="M370.8 166.4l-2.3-7.5 6-1.8 2.3 7.4z"/></svg>