<svg xmlns="http://www.w3.org/2000/svg" viewBox="0 0 50 25"><path fill="#4a4a4a" d="M0 0h50v25H0z"/><g fill-opacity=".5"><path fill="#bcbcbc" d="M32.5 9.5l-27-11 14 20z"/><path d="M55.5 15.5l-24-9 34-17zm-66-4l23-3-28-24zm63-26l-52 7 23 13z"/><path fill="#848484" d="M37.5-5.5l-17 36-13-4z"/><path fill="#0f0f0f" d="M18.5 17.5l16 3 3-7z"/><path d="M63.5-15.5v32l-28-8z"/><path fill="#7d7d7d" d="M38.5 10.5l-5 18 18-13z"/><path fill="#bebebe" d="M15.5 9.5l5-5-2 19z"/><path d="M-15.5-9.5l11 22 16-5zm48 10l-16 3 4-14z"/><path fill="#9b9b9b" d="M27.5 16.5l-1-11 8 5z"/><path fill="#212121" d="M15.5 17.5h-4l-1-13z"/><path fill="#202020" d="M21.5 10.5l3-3 2 2z"/><path fill="#bababa" d="M23.5 7.5l6-4 2 5z"/><path fill="#a0a0a0" d="M8.5-5.5l14 17-35-23z"/><path fill="#696969" d="M.5 40.5l14-24 17-6z"/><path d="M46.5 2.5l12 14-27-11z"/><path fill="#7f7f7f" d="M29.5 5.5l12-6-2-15z"/><path d="M5.5-15.5l18 21 26-17z"/><path fill="#121212" d="M37.5 14.5l-7 8 2-14z"/><path d="M3.5 21.5l30 19-24-2z"/><path fill="#c5c5c5" d="M22.5 4.5l-5 11-1-11z"/><path fill="#797979" d="M11.5 37.5l15-1-21-21z"/><path d="M10.5 8.5l-26 4v-28zm34 9l21 17v-8z"/><path fill="#8f8f8f" d="M30.5 12.5l4-2 6 2z"/><path fill="#626262" d="M14.5 9.5l-5-9h-5z"/><path fill="#989898" d="M46.5 13.5l-5-2-2 3z"/><path d="M33.5 8.5l30 6-20-12z"/><path fill="#606060" d="M49.5 22.5l-8 1-7-9z"/><path fill="#1d1d1d" d="M17.5 16.5l-8-4-6 3z"/><path fill="#7d7d7d" d="M40.5 20.5l-5-3 1 12z"/><path fill="#525252" d="M4.5 16.5l9-8v4z"/><path d="M18.5 4.5l-11-20 15 12z"/><path fill="#838383" d="M49.5 18.5l4 17 8-32z"/><path fill="#444" d="M34.5 32.5l16-2-32-15z"/><path fill="#3d3d3d" d="M47.5 2.5l18-6v30z"/><path fill="#0b0b0b" d="M48.5 29.5l17-8-28 4z"/><path fill="#868686" d="M7.5 29.5l9-11 6 2z"/><path fill="#6e6e6e" d="M11.5 9.5l-27 7 3 7z"/><path fill="#5e5e5e" d="M11.5 21.5l29 3 17 16z"/><path fill="#151515" d="M36.5 16.5l-13 2 7 3z"/><path fill="#1a1a1a" d="M38.5 16.5v-3l-5-2z"/><path fill="#bbb" d="M26.5 10.5l2-5 2 3z"/><path fill="#7a7a7a" d="M28.5 17.5l-6-1 4-1z"/><path fill="#020202" d="M8.5 24.5l-5 7 1-10z"/><path d="M23.5 6.5l-6-20 15 10z"/><path fill="#484848" d="M34.5 5.5l20-12-2-9z"/><path fill="#6e6e6e" d="M38.5 11.5l-15 2 7-4z"/><path fill="#404040" d="M40.5 17.5l11 23h-10z"/><path fill="#8c8c8c" d="M6.5-15.5l10 21-21-11z"/><path fill="#797979" d="M25.5 8.5l13-10 5-14z"/><path fill="#444" d="M34.5 25.5l-3-7h-8z"/><path fill="#606060" d="M6.5 15.5l9 6-14-3z"/><path fill="#4e4e4e" d="M26.5 8.5l-5-1-3 2z"/><path fill="#a6a6a6" d="M13.5 6.5l6-2 7 4z"/><path fill="#787878" d="M32.5 12.5l-3 4v-7z"/><path d="M-15.5 15.5v-30l25 22zm50-1l-5 4h4z"/><path fill="#020202" d="M34.5 5.5l31 17-7-17z"/><path fill="#272727" d="M20.5 8.5l4 2v-2z"/><path fill="#141414" d="M15.5 17.5l-2-3v-4z"/><path fill="#666" d="M32.5 5.5l29-21h-15z"/><path fill="#191919" d="M20.5 17.5h1l1-1z"/><path fill="#6a6a6a" d="M41.5 25.5l-8-1 12-2z"/><path fill="#868686" d="M45.5 20.5l-4-3h2z"/><path fill="#acacac" d="M16.5 21.5v-16h5z"/><path fill="#8d8d8d" d="M11.5 11.5h3l4-7z"/><path d="M32.5 7.5l11-4-7 6z"/><path fill="#161616" d="M4.5 16.5h-4l7-3z"/><path fill="#565656" d="M-9.5 16.5h27l-33 10z"/><path fill="#575757" d="M41.5 13.5l-6 2 7 4z"/><path fill="#4d4d4d" d="M5.5 15.5l-21 9v-8z"/><path fill="#616161" d="M25.5 20.5l-19 20 21-6z"/><path fill="#131313" d="M29.5 21.5l2-4 1 3z"/><path fill="#7e7e7e" d="M39.5 12.5l13 6-5-6z"/><path fill="#3e3e3e" d="M49.5 16.5l-2 3-1-5z"/><path fill="#5f5f5f" d="M23.5 6.5l-3 2 3-1z"/><path fill="#737373" d="M5.5 15.5h3l-3 5z"/><path fill="#d0d0d0" d="M17.5 7.5l1 2v-4z"/><path fill="#919191" d="M29.5 3.5l11-13-1 7z"/><path fill="#030303" d="M1.5 5.5l12 4-16-12z"/><path fill="#a9a9a9" d="M27.5 10.5l-3 2v-2z"/><path fill="#484848" d="M38.5 23.5l5-3-4 7z"/><path fill="#adadad" d="M41.5 11.5v1l-3-1z"/><path fill="#939393" d="M16.5 18.5l-3 2 7-1z"/><path fill="#919191" d="M11.5 23.5l-20 16 59-7z"/><path fill="#6e6e6e" d="M15.5 4.5l-9-12 5-8z"/><path fill="#838383" d="M39.5 19.5l-6 21-2-10z"/><path d="M43.5-8.5l-56-7 37 20z"/><path fill="#363636" d="M1.5 15.5l-13 4-4 21z"/><path fill="#bababa" d="M22.5 7.5l5-2h-3z"/><path fill="#bdbdbd" d="M28.5 10.5l1-2-1-2z"/><path fill="#8d8d8d" d="M18.5 15.5l-3-1 1-3z"/><path fill="#686868" d="M34.5 21.5l5 10 6 1z"/><path fill="#757575" d="M14.5 9.5l-5-5 6 2z"/><path fill="#676767" d="M-1.5 14.5l5-4h8z"/><path fill="#b9b9b9" d="M17.5 14.5l-2-7 5-1z"/><path fill="#5a5a5a" d="M17.5 23.5l-9-7-3 4z"/></g></svg>