<svg xmlns="http://www.w3.org/2000/svg" viewBox="0 0 400 200"><path fill="#494949" d="M0 0h400v200H0z"/><path fill="#cacaca" fill-opacity=".5" d="M109 117.8l5.7-81L252 46.2l-5.7 81z"/><path fill-opacity=".5" d="M271 70.4l44.3-121.9L465 3l-44.3 122zM77.4 60.8L21.5 106l-63-77.7 56-45.2zM240.9-47l28.7 41-87 60.9-28.7-41z"/><path fill="#b6b6b6" fill-opacity=".5" d="M35.5-9.2l36.4-29.5 116 143.2-36.4 29.5z"/><path fill="#929292" fill-opacity=".5" d="M194 187.4L111.5 252l-53.9-69 82.5-64.4z"/><path fill-opacity=".5" d="M218.7.1l-5.6 40.3-99-14 5.6-40.2zM246 179l-27-28.1 58.4-56.5 27.1 28.1z"/><path fill="#8c8c8c" fill-opacity=".5" d="M272.5 179l49.2-92.5 38.6 20.5-49.2 92.5z"/><path fill-opacity=".5" d="M390.3 46l-4.7 45.1L255 77.4l4.8-45z"/><path fill="#9b9b9b" fill-opacity=".5" d="M205.5 41.4l143.3-86.1 16 26.8-143.3 86z"/><path fill-opacity=".5" d="M170.2 65.3l38.7 5.5-2.6 18.5-38.7-5.4zM93.4 82.1L-.2 77.2l2-39 93.7 5zm2.2 63.9l-12.1-45.3 28.7-7.6 12.1 45.2zM348.4-11.7l87.1 42.4-41.8 85.7-87-42.5z"/><path fill="#939393" fill-opacity=".5" d="M291.6 102.3l9.2-21.6L447.5 143l-9.2 21.6z"/><path fill="#6a6a6a" fill-opacity=".5" d="M157.1 155.7l-15.2-36 115-48.8 15.3 36z"/><path fill="#d6d6d6" fill-opacity=".5" d="M174.7 63.5l-34.3 1.2-1-29.7 34.3-1.2z"/><path fill-opacity=".5" d="M66.1 51L25.7 90.1l-68.4-70.8 40.5-39z"/><path fill="#787878" fill-opacity=".5" d="M60.2 103.3L2.2 122l-7.7-23.8 58-18.8z"/><path fill-opacity=".5" d="M221.2 152.5l-.9 6.2-68-9.6.8-6.2zM53.7 219.6l-32-34.3 13.7-12.7 32 34.2zM106.6-2.2l37.2-33.5 35.5 39.5-37.1 33.4z"/><path fill="#010101" fill-opacity=".5" d="M261.6 76.9L242 50.7l26-19.8 19.7 26.2z"/><path fill-opacity=".5" d="M25.3 132.5l-5.7-11.2 47.3-24 5.7 11zm160.6-80.6l-35.6-57 62.3-39 35.6 57z"/><path fill="#868686" fill-opacity=".5" d="M-18.2-23.2L6-57.7l135.7 95-24.2 34.5z"/><path fill="#adadad" fill-opacity=".5" d="M207.4 41.3l17.9-12.5 43.9 62.7-18 12.5z"/><path fill-opacity=".5" d="M261.5 123.5l24.5 36.2-27.2 18.4-24.5-36.3z"/><path fill="#7f7f7f" fill-opacity=".5" d="M371.7 189.5l-24.3 5.6-11.3-48.7 24.4-5.6z"/><path fill="#737373" fill-opacity=".5" d="M24.4 142.4l28.5-19.2 30.5 45.3L55 187.7z"/><path fill="#a9a9a9" fill-opacity=".5" d="M128.8 138.2l-2.3-10.7 96.3-20.4 2.3 10.7z"/><path fill="#a2a2a2" fill-opacity=".5" d="M171.4 140.8l69.7-17.4 1.6 6-69.8 17.5z"/><path fill-opacity=".5" d="M361.4 147.1l6.7-6.5 31.5 32.6-6.8 6.5zm-55.9-21.4l-24-6.9 5.2-18 24 7zM-5.1 96l-8.2-28.5L72.3 43l8.2 28.5z"/><path fill="#c3c3c3" fill-opacity=".5" d="M164 76l-30.2 54.7-15-8.3L149 67.7z"/><path fill="#a2a2a2" fill-opacity=".5" d="M128 141.5l35.5 12.2-8.7 25.1-35.4-12.2z"/><path fill="#4b4b4b" fill-opacity=".5" d="M337.8 112.1l5.9 27.5-58.1 12.4-5.8-27.6z"/><path fill="#2e2e2e" fill-opacity=".5" d="M202.8 112l-1.4-2.8L280 70.8l1.4 2.8z"/><path fill="#525252" fill-opacity=".5" d="M366.8 2l-131 55.5-7.2-17.3 130.8-55.5z"/><path fill-opacity=".5" d="M455.7 102.8L420.8 143 305.3 42.5 340 2.4z"/><path fill="#434343" fill-opacity=".5" d="M397.8 49.5l-25-18.8L385 14.5l25 18.8z"/><path fill="#acacac" fill-opacity=".5" d="M396 192.2v-51.6h6.3v51.6z"/><path fill-opacity=".5" d="M233.9 144.3l-.7 12.5-49.9-2.6.7-12.5z"/><path fill="#050505" fill-opacity=".5" d="M350.3 197.3l49.5-7 1.5 10.9-49.5 7z"/><path fill="#b8b8b8" fill-opacity=".5" d="M254.3 67.7l-53.1 35.9-7-10.4 53-35.8z"/><path fill-opacity=".5" d="M200 88.3l-4.9-6L211 69.5l5 6z"/><path fill="#1c1c1c" fill-opacity=".5" d="M158.6 118.6l58.5-16.8.9 3-58.6 16.8z"/><path fill="#292929" fill-opacity=".5" d="M191.3 133.5l51.4-22.9 2 4.3-51.5 22.9z"/><path fill-opacity=".5" d="M157 146.9l1.7-15.6 14 1.5-1.7 15.5z"/><path fill="#5d5d5d" fill-opacity=".5" d="M112.9 85.8l-65.2-63 9.7-10.1 65.2 63z"/><path fill="#7c7c7c" fill-opacity=".5" d="M51.5 83.4l64-1.1.2 10.9-64 1.1zM246.9 72l94 28.7-5 16.4-94-28.7z"/><path fill="#959595" fill-opacity=".5" d="M369.7 106.8l-9.5 21.4-47.1-21 9.5-21.4z"/><path fill="#383838" fill-opacity=".5" d="M68.6 104.8l17.8-5.7 24.7 75.7-17.9 5.8z"/><path fill="#616161" fill-opacity=".5" d="M178.1 245l-40.5-43.5 51.5-48 40.5 43.5z"/><path fill="#202020" fill-opacity=".5" d="M329.7 183.3l-11-1.1 3.2-29.6 10.9 1.2z"/><path fill-opacity=".5" d="M192.5 46.4L111.8 5.3l19.1-37.6 80.8 41.1z"/><path fill="#8c8c8c" fill-opacity=".5" d="M316.9 170.4l-39.5 56.3-11.5-8 39.5-56.4z"/><path fill-opacity=".5" d="M326 89.6l-65-16.2 8.3-33.4 65.2 16.3zM-47.6 44.7L7.5-8.5l51 52.9-55 53.1z"/><path fill="#878787" fill-opacity=".5" d="M275-4.8l12.2 18.2L232.8 50l-12.2-18.2z"/><path fill="#010101" fill-opacity=".5" d="M108.1 107.8l22.7 28-6.1 4.8-22.6-27.9z"/><path fill-opacity=".5" d="M197.7 78.1V86h-22v-7.8z"/><path fill="#0a0a0a" fill-opacity=".5" d="M366 148.9l-3 3.5-21.2-18.5 3-3.5z"/><path fill-opacity=".5" d="M205 40L182 8.4l64.5-46.8 23 31.6zM71 218.3L30.4 189l6.4-8.8 40.4 29.4z"/><path fill="#515151" fill-opacity=".5" d="M267.7 122.5l4.5-8.2 49.2 27.3-4.5 8.2z"/><path fill="#555" fill-opacity=".5" d="M380.4 151.6L362 113.7l15.5-7.5 18.5 37.9zm-225.9-104l17.2 29.8-2.7 1.5-17.2-29.7z"/><path fill="#828282" fill-opacity=".5" d="M378.6 161.7l-5.6 9.4-47-28.2 5.7-9.3z"/><path fill="#070707" fill-opacity=".5" d="M214.5 57.6L201 82.2l-1.4-.7 13.7-24.6z"/><path fill="#606060" fill-opacity=".5" d="M180.5 100.8l-21.3-5 2.5-10.6L183 90z"/><path fill="#c4c4c4" fill-opacity=".5" d="M141.6 93.3L122 87.7l12.9-45 19.5 5.5z"/></svg>