<svg xmlns="http://www.w3.org/2000/svg" viewBox="0 0 400 200"><path fill="#494949" d="M0 0h400v200H0z"/><path fill="#c5c5c5" fill-opacity=".5" d="M117.3 128l-6.2-88.8 135.6-9.5 6.2 88.9z"/><path fill-opacity=".5" d="M411.3 120.7L271.8 70l52.9-145.4 139.5 50.8zM7-10.1l70.9 66-49 52.6-70.9-66zm215.2-40.1l37.6 50L182.5 58 144.9 8.1z"/><path fill="#bababa" fill-opacity=".5" d="M50.4-52.6l130 139.4-35.5 33L15-19.6z"/><path fill="#949494" fill-opacity=".5" d="M111 251.6L59.5 183l81-61.2 51.8 68.7z"/><path fill-opacity=".5" d="M225.3 158.6l44.6-66 37.6 25.3-44.6 66zm217.3-44.3L265.3 76.6l12.4-58L455 56.1zM125.5-10.3l94.2 14.9-6.2 38.6-94-15z"/><path fill="#8a8a8a" fill-opacity=".5" d="M356.4 103.3l-51.8 101.6-37.6-19.1L318.8 84z"/><path fill="#949494" fill-opacity=".5" d="M222 72l-19-30.5 139-87L361.2-15z"/><path fill-opacity=".5" d="M88.7 83.5L-22.3 66l7-44.7L95.8 38.8zm120.5-14.3l.3 18.7-42.1.7L167 70z"/><path fill="#979797" fill-opacity=".5" d="M287.6 96l7-17.4 113 45.7-7 17.4z"/><path fill="#040404" fill-opacity=".5" d="M124.4 134.2L92.1 146l-15-41.1L109.5 93z"/></svg>