<svg xmlns="http://www.w3.org/2000/svg" viewBox="0 0 2000 1000"><path fill="#494949" d="M0 0h2000v1000H0z"/><g fill-opacity=".5"><path fill="#c4c4c4" d="M691.4 691.4l796.9-265.6L253.9-19.5z"/><path d="M1230.5 300.8L2121 613.3l-140.6-734.4zm-1304.7 164l578.1-109.3-570.3-476.6zM933.6 254L316.4-121 1300.8 4z"/><path fill="#bbb" d="M1504-121l-336 476.5-226.6-86z"/><path fill="#989898" d="M605.5 683.6l461 187.5-851.7 250z"/><path d="M1238.3 418l687.5-539 93.7 578zm93.7 476.5l148.5-414-507.8 281.2z"/><path fill="#7f7f7f" d="M1300.8 1121l265.6-710.8 523.4 226.5z"/><path fill="#cbcbcb" d="M660.2 839.8l-62.5-625 281.2-39z"/><path d="M425.8 339.8L-121.1 504 4-66.4zm859.4-304.6L425.8-121.1l273.4 296.9zm-336 429.6l132.8-93.7-296.8-39z"/><path fill="#171717" d="M629 699.2l-86-289-476.6 203z"/><path fill="#929292" d="M683.6 371L-74.2-121H496z"/><path d="M1183.6 238.3l656.2-140.6 281.3 539z"/><path fill="#898989" d="M1238.3 652.3l-390.6 70.4 414-664.1z"/><path fill="#939393" d="M1879 660.2l-187.6-211-484.4-54.7z"/><path fill="#040404" d="M1972.7 769.5l-328.2-156.2 328.2 281.2z"/><path d="M418 1121l-281.3-78 15.6-226.6zm476.5-835.8l523.5-375-523.5-31.3z"/><path fill="#181818" d="M1386.7 613.3h203.1l-375-437.5z"/><path fill="#6c6c6c" d="M207 605.5l1078.2 468.7L238.2 918z"/><path fill="#767676" d="M621 425.8l-390.5-23.5-351.6 203.2z"/><path fill="#c7c7c7" d="M1105.5 222.7l-54.7 250 218.7-148.5z"/><path d="M1425.8 808.6l-539-54.7 468.7-132.8z"/><path fill="#3f3f3f" d="M1269.5 402.3l-179.7 156.3-304.6 31.2z"/><path fill="#757575" d="M1160.2 254L1332-74.3l570.3-46.9z"/><path d="M566.4 410.2L35.2-11.8l-156.3 320.4z"/><path fill="#575757" d="M324.2 97.7l273.5 476.5-70.4-351.5z"/><path d="M1027.3 425.8l-54.6-7.8 93.7-132.8zM925.8 230.5L574.2-50.8 1418-74.2z"/><path fill="#767676" d="M1746 957l265.7-15.6-367.2-296.9z"/><path fill="#1d1d1d" d="M1777.3 879l-179.6-109.5 31.2 132.8z"/><path fill="#1c1c1c" d="M824.2 660.2l-156.2-47 218.7 148.5z"/><path fill="#a9a9a9" d="M1972.7 925.8l148.4-46.9-140.6-195.3z"/><path d="M2074.2 269.5l-7.8 406.3-539-507.8z"/><path fill="#b9b9b9" d="M668 168l187.5 7.8-86 453.1z"/><path fill="#8f8f8f" d="M1582 910.2l-242.2-15.7L1457 746.1z"/><path fill="#787878" d="M1191.4 347.7l250 164 187.5-62.5z"/><path d="M480.5-121l195.3 289 406.2-47z"/><path fill="#060606" d="M1527.3 675.8L1293 503.9l242.2 23.4z"/><path fill="#b2b2b2" d="M1199.2 511.7l-312.5 78.1 195.3 15.7z"/><path d="M1761.7 972.7l-39 148.4 164-164z"/><path fill="#a9a9a9" d="M1082 457L597.7 597.7l-31.3-218.8z"/><path fill="#070707" d="M550.8 543l125 156.2L418 621.1z"/><path fill="#3b3b3b" d="M894.5 879l539 78-320.2-281.2z"/><path fill="#666" d="M222.7 800.8l-343.8 15.6L457 511.7z"/><path fill="#989898" d="M636.7 722.7l-23.4 156.2 265.6-101.6z"/><path fill="#020202" d="M105.5 660.2l7.8-86 250-46.9z"/><path fill="#454545" d="M2121 332l-250-171.8 23.5-93.8z"/><path fill="#222" d="M996 605.5l-125 78 234.5-62.4z"/><path d="M-58.6 480.5L449.2 332-66.4-82z"/><path fill="#b0b0b0" d="M910.2 246L714.8 504l125-328.2z"/><path d="M1871 19.5L1254 293l593.7 218.7z"/><path fill="#5b5b5b" d="M1691.4 816.4l23.4-226.6-367.1 15.7z"/><path fill="#969696" d="M1707 582l-218.7-171.8 414 132.8z"/><path fill="#646464" d="M800.8 683.6l-234.4-7.8-86 93.7z"/><path fill="#353535" d="M964.8 558.6l-218.7-7.8 78.1 46.9z"/><path fill="#343434" d="M191.4 488.3l273.4-15.6 70.4 406.2z"/><path fill="#4b4b4b" d="M879 433.6l78-93.8-179.7-62.5z"/><path fill="#b0b0b0" d="M1121 168l-171.8 78 265.6 86z"/><path fill="#3c3c3c" d="M1582 121l-406.2 62.6 54.7 109.4z"/><path fill="#8d8d8d" d="M519.5 11.7L660.2 293 89.8-35.2z"/><path d="M199.2 886.7l211 195.3-281.3 39z"/><path fill="#0a0a0a" d="M1230.5 699.2l-211 86-273.4-54.7z"/><path fill="#929292" d="M1082 707l109.4-101.5-304.7 93.7z"/><path d="M1339.8 527.3l-15.6 234.4-156.2-39z"/><path fill="#5f5f5f" d="M980.5 769.5l-500 351.6 781.2-78.1z"/><path fill="#383838" d="M1191.4 707l109.4-132.8-273.5 156.3z"/><path fill="#6a6a6a" d="M1027.3 246l101.6 70.4-31.2 46.9z"/><path d="M1035.2 425.8L871 418l54.7-31.3zm898.4 70.2l-648.4-140.5 554.6-304.7z"/><path fill="#7c7c7c" d="M589.8 543l250 101.5-218.7-23.4z"/><path fill="#6a6a6a" d="M683.6 168L566.4 43l-78.1 62.5z"/><path fill="#696969" d="M1832 957l-468.7-257.8 234.4 281.3z"/><path fill="gray" d="M1941.4 832l109.4-140.6-101.6 54.7z"/><path fill="#545454" d="M441.4 879l320.3 93.7-539-382.9z"/><path fill="#616161" d="M363.3 379L-89.8 504 27.3 668z"/><path fill="#8a8a8a" d="M464.8 410.2l70.4 46.8-125 15.7z"/><path d="M1074.2 4L918 82l-7.8 218.8z"/><path fill="#8e8e8e" d="M1613.3 769.5l-78.1 156.3-140.7 70.3z"/><path fill="#828282" d="M183.6 824.2l343.7 296.9 273.5-62.5z"/><path fill="gray" d="M1597.7 644.5l164 179.7 117.2-23.4z"/><path fill="#8f8f8f" d="M855.5 668h195.3l-171.9 70.3z"/><path fill="#484848" d="M1894.5 597.7l-132.8 203 78.1-242.1z"/><path fill="#020202" d="M566.4 566.4l-7.8-101.6L480.5 582z"/><path fill="#050505" d="M972.7 769.5L996 636.7l15.6 78.1z"/><path fill="#5c5c5c" d="M902.3 496l-117.1-31.2 148.4-7.8z"/><path fill="#444" d="M957 629l304.7-93.8-140.6 101.5z"/><path fill="#909090" d="M183.6 785.2l125-109.4-78.1-7.8z"/><path fill="#c2c2c2" d="M621 324.2L722.8 582l39-390.6z"/><path d="M1894.5 855.5l62.5 39-46.8-164z"/><path fill="#afafaf" d="M714.8 668h70.4l-15.7 31.2z"/><path fill="#acacac" d="M910.2 605.5l242.1-93.8-117.1 101.6z"/><path fill="#7c7c7c" d="M1246 50.8l258-171.9-133 312.5z"/><path fill="#343434" d="M1785.2 19.5V-121l-304.7 320.3z"/><path fill="#282828" d="M1129 504l-172 62.4 86-70.3z"/><path fill="#060606" d="M1769.5 644.5l101.6 132.8-125-85.9z"/><path d="M707 175.8l382.8-203.1-609.3-62.5z"/></g></svg>