<svg xmlns="http://www.w3.org/2000/svg" viewBox="0 0 16 8"><path fill="#6d7a41" d="M0 0h16v8H0z"/><g fill-opacity=".5"><path fill="#c6c9f4" d="M8.5 2.5l-11-5 20-2z"/><path fill="#061f00" d="M11.5 2.5l14-3 6 22z"/><path fill="#001b01" d="M-1.5 7.5l5-4-4-7z"/><path fill="#c5c42c" d="M9.5 2.5l-17 16 33 5z"/><path fill="#44549e" d="M-14.5-15.5l-1 14 41 3z"/><path fill="#f5f6aa" d="M8.5 3.5l-2-3 2 1z"/><path fill="#5f71a8" d="M.5 1.5l11-17 1 13z"/><path fill="#314500" d="M-15.5 8.5l22-5-21-6z"/><path fill="#6c7918" d="M20.5 23.5h10l-20-22z"/><path fill="#0a2600" d="M14.5 2.5l9-9-3 16z"/><path fill="#717e0c" d="M6.5 2.5l-2 4-5 1z"/><path fill="#9b9b8a" d="M6.5.5l25-4-36-9z"/><path fill="#001800" d="M1.5 4.5l-3-4-10 10z"/><path fill="#969b32" d="M12.5 4.5l2 7-9-9z"/><path fill="#173388" d="M14.5 1.5l10-4-6-13z"/><path fill="#4b5c04" d="M13.5 3.5l10 20 8-17z"/><path fill="#adb33d" d="M6.5 4.5l-5 8 11 11z"/><path fill="#c3c7ea" d="M3.5.5h6l-3 1z"/><path fill="#5f6d8d" d="M31.5-7.5l-14-2-18 11z"/><path fill="#666009" d="M8.5 6.5l-1 9 2-3z"/><path fill="#394a00" d="M1.5 5.5l7 15-17-17z"/><path fill="#8595bd" d="M14.5 1.5l-9-17-11 7z"/><path fill="#a0a597" d="M5.5 2.5l6-18-10 4z"/><path fill="#415879" d="M-13.5 4.5l22-6-12-2z"/><path fill="#192f00" d="M11.5 1.5l13 5-6-5z"/><path fill="#92a135" d="M23.5 23.5l-20-18 11 18z"/><path fill="#78863a" d="M14.5 6.5l-8 2 3 1z"/><path fill="#a5ad45" d="M11.5 4.5l-9 19h11z"/><path fill="#838273" d="M8.5.5l9-7-33-5z"/><path fill="#b9bb4a" d="M7.5 6.5l1-2-4 2z"/><path fill="#7c8a22" d="M5.5 5.5l-4 4 2 2z"/><path fill="#6d799e" d="M1.5 1.5l7-3 3-11z"/><path fill="#828002" d="M7.5 4.5v-1h-1z"/><path fill="#ffff98" d="M7.5 2.5l1-1h1z"/><path fill="#435885" d="M14.5 1.5l10-16-11 1z"/><path fill="#8b8b22" d="M9.5 4.5l-1 19 8-1z"/><path fill="#526226" d="M6.5 3.5h-4l1-1z"/><path fill="#dfe3bf" d="M7.5.5h-2l2 2z"/><path fill="#b3b8b7" d="M7.5-3.5l4 4-4-10z"/><path fill="#afb358" d="M10.5 6.5l-13 14 10 3z"/><path fill="#7a809c" d="M10.5 1.5l2-11 12-6z"/><path fill="#adb6ba" d="M12.5-14.5l-2 15 9-16z"/><path fill="#33470e" d="M15.5 6.5l16 17-9-39z"/><path fill="#7d8c33" d="M13.5 5.5l-10 10 6 3z"/><path fill="#a5ab3e" d="M4.5 6.5l27 11-12 1z"/><path fill="#001600" d="M28.5-15.5l-13 18 13-10z"/><path fill="#4d6687" d="M.5 1.5l16-10-8-3z"/><path fill="#000d00" d="M1.5 4.5l-16 1 9 2z"/><path fill="#55652b" d="M-.5 6.5l-1-1h3z"/><path fill="#84871c" d="M10.5 4.5l-10 17-10 2z"/><path fill="#7e8b22" d="M2.5 6.5l27 9-10 8z"/><path fill="#07194e" d="M15.5 1.5l12 11v-6z"/><path fill="#5d6c11" d="M14.5 16.5l-1-12 4 10z"/><path fill="#a0a59e" d="M8.5 1.5l14-8 1-9z"/><path fill="#2e4200" d="M15.5 4.5l16-9v22z"/><path fill="#1b3e01" d="M1.5 2.5l-17-5 4 8z"/><path fill="#445600" d="M4.5 3.5h-2l-2 2z"/><path fill="#7e8d2a" d="M2.5 5.5l26 18h-16z"/><path fill="#546c33" d="M3.5 3.5l1-1h-3z"/><path fill="#54662b" d="M14.5 5.5l3 8-3-1z"/><path fill="#9d9c30" d="M8.5 4.5l-8 14 6-4z"/><path fill="#798730" d="M12.5 15.5l1-9-16 17z"/><path fill="#394f0f" d="M11.5 2.5l1-1h1z"/><path fill="#a8b23e" d="M4.5 6.5l7 7 8 1z"/><path fill="#254368" d="M1.5.5l-11-3-6 3z"/><path fill="#909a3f" d="M10.5 17.5l2-11-10 11z"/><path fill="#949597" d="M14.5-7.5l-7-2v10z"/><path fill="#7789b2" d="M2.5 1.5l-18 1 9 2z"/><path fill="#425322" d="M1.5 7.5l-17 16 2-11z"/><path fill="#6d6b79" d="M5.5.5l-5-8 4-8z"/><path fill="#99963c" d="M9.5 6.5l-2 13 6-8z"/><path fill="#2b446d" d="M14.5 1.5l7 1 6 5z"/><path fill="#22431f" d="M15.5 3.5l4-19 5 17z"/><path fill="#708022" d="M2.5 5.5l12 18-10-3z"/><path fill="#354200" d="M-6.5 23.5l-9-25 40 22z"/><path fill="#868b12" d="M4.5 7.5l27 5-17 4z"/><path fill="#7d8076" d="M9.5.5l13-16-19 10z"/><path fill="#495b10" d="M14.5 5.5l14 9-4-6z"/><path fill="#829337" d="M3.5 5.5l3 7-3 3z"/><path fill="#c4c8e7" d="M7.5.5h-2l2 1z"/><path fill="#c0cb78" d="M7.5 2.5l-2-1-1 1z"/><path fill="#828b97" d="M12.5.5l-5-5 3-7z"/><path fill="#4b5400" d="M5.5 3.5v1h-2z"/><path fill="#6f737a" d="M12.5 1.5l-22-11 3-6z"/><path fill="#8a8c7e" d="M9.5.5l-6-11 7-2z"/><path fill="#8e92b8" d="M4.5 1.5l7-6 3-11z"/><path fill="#7a7c7b" d="M8.5.5l-6-5-3 1z"/><path fill="#a7a744" d="M7.5 6.5l-3 17-2-10z"/><path fill="#909a2a" d="M5.5 7.5l6 11-25-7z"/><path fill="#0f2300" d="M-12.5 4.5h13l-16-10z"/><path fill="#566385" d="M3.5.5l-2-9 9 1z"/><path fill="#525f08" d="M13.5 7.5l-5 11 10-1z"/><path fill="#65743a" d="M14.5 6.5l5 1-1 1z"/><path fill="#818c2c" d="M10.5 7.5l21 6v7z"/><path fill="#7b90b9" d="M12.5.5v-11l6-5z"/><path fill="#505568" d="M11.5.5l1 1-2-1z"/><path fill="#738123" d="M3.5 7.5l-3 13-3-6z"/><path fill="#697814" d="M2.5 7.5l-12 5-3-3z"/><path fill="#9aa3b9" d="M10.5.5l9-11-4-5z"/><path fill="#334811" d="M13.5 3.5l18 6v-5z"/></g></svg>