<svg xmlns="http://www.w3.org/2000/svg" viewBox="0 0 128 64"><path fill="#6b7a3f" d="M0 0h128v64H0z"/><g fill-opacity=".5"><path fill="#fee6ff" d="M73.5 31.5l19-35-79 15z"/><path fill="#051300" d="M79.5 12.5l50 52 14-55z"/><path fill="#213000" d="M-12.5 79.5l-3-72 73 18z"/><path fill="#afcd10" d="M3.5 45.5l79 34 27-49z"/><path fill="#477cd1" d="M143.5 6.5l-159 7 60-29z"/><path fill="#ffedb1" d="M79.5 13.5l-14 21-25-30z"/><path fill="#1c65b0" d="M114.5-15.5l-19 34 46-14z"/><path fill="#101600" d="M22.5 32.5l-38-36 4 83z"/><path fill="#ffab2a" d="M55.5 19.5l7 18 17-13z"/><path fill="#4f6e02" d="M117.5 34.5l-38-15 47 60z"/><path fill="#a09ea4" d="M115.5 11.5l-43-21 28 26z"/><path fill="#004393" d="M30.5 2.5l-42 7 31-25z"/><path fill="#0e1400" d="M143.5 52.5v-53l-40 21z"/><path fill="#ead8ca" d="M79.5 21.5l-18-19-28 18z"/><path fill="#1f134f" d="M57.5 53.5l12-6 8 7z"/><path fill="#46530f" d="M125.5 79.5l-72-18 90-4z"/><path fill="#aab637" d="M73.5 45.5l35 4-16 30z"/><path fill="#6d7905" d="M52.5 20.5l-53 5 66 12z"/><path fill="#b9d217" d="M50.5 37.5h39l-59 22z"/><path fill="#6b860d" d="M29.5 34.5l9 45-36-29z"/><path fill="#303b07" d="M78.5 32.5l4-20 61 15z"/><path d="M50.5 39.5h-19l12-5z"/><path fill="#6d8699" d="M76.5-15.5l-70 30 70-10z"/><path fill="#c7c45b" d="M37.5 53.5l31 7-11-12z"/><path fill="#b8aea5" d="M101.5 6.5l-21-6-8 13z"/><path fill="#00578f" d="M104.5 11.5l13-27 26 19z"/><path fill="#faf8fd" d="M59.5 17.5l-13-10 33 11z"/><path fill="#0a0a00" d="M-4.5 21.5l-11-10 43 6z"/><path fill="#ceb58d" d="M63.5 24.5l-33-6 3-9z"/><path fill="#8b9da8" d="M9.5 15.5l46-3-17-7z"/><path fill="#617506" d="M66.5 36.5l13-11 27 4z"/><path fill="#6b7e18" d="M77.5 62.5l32-20 20 7z"/><path fill="#165b86" d="M54.5-15.5l29 22-67-22z"/><path fill="#21222c" d="M93.5 9.5l-11 1 3 13z"/><path fill="#040501" d="M16.5 41.5l-12-14-19 17z"/><path fill="#c3c552" d="M84.5 58.5l10-10-30 9z"/><path fill="#97c710" d="M96.5 32.5l-37 7 43 4z"/><path fill="#2f5370" d="M91.5 5.5l18-21-32 5z"/><path fill="#fb9b1a" d="M74.5 27.5l-16 1 2 6z"/><path fill="#e7be71" d="M76.5 31.5l-19-12h23z"/><path fill="#a4be17" d="M25.5 48.5l22-5 1 26z"/><path fill="#bbb2ac" d="M101.5.5l-1 8-20 2z"/><path fill="#a0a4a4" d="M48.5 1.5l31 14 6-8z"/><path fill="#3b4706" d="M-15.5 79.5l16-19 37 2z"/><path fill="#7e8614" d="M50.5 37.5l-21-11 38 7z"/><path fill="#004d89" d="M-11.5 5.5l30-4 3-17z"/><path fill="#3a4413" d="M53.5 22.5v11l-19-11z"/><path fill="#2a370d" d="M127.5 24.5l15 39-52-48z"/><path fill="#7d7d83" d="M33.5 17.5l-38-7 25-2z"/><path fill="#9e8f6d" d="M67.5 47.5l-16 8 4-7z"/><path fill="#3b490f" d="M109.5 55.5l32 2-55 22z"/><path fill="#828e8e" d="M114.5 11.5l-17 3 10 2z"/><path fill="#272927" d="M81.5 23.5l-1-8 15-5z"/><path fill="#7f9821" d="M30.5 35.5l-11 2 6 40z"/><path fill="#4f5c1e" d="M70.5 63.5l13 16-41-22z"/><path fill="#040506" d="M114.5 14.5l11 5 18-19z"/><path fill="#324108" d="M16.5 33.5l30 8-40-24z"/><path fill="#bbbc77" d="M81.5 66.5l-34-5 21 15z"/><path fill="#64540d" d="M55.5 37.5l15-1-25-6z"/><path fill="#406d96" d="M39.5 6.5l-25-1 44-21z"/><path fill="#ebe4df" d="M75.5 13.5l-28-7 9 14z"/><path fill="#526314" d="M23.5 51.5l-28-8 21 24z"/><path fill="#676c11" d="M64.5 37.5l36-15h-17z"/><path fill="#607423" d="M89.5 44.5l18-3 21 12z"/><path fill="#dcba85" d="M30.5 17.5h16l-7 5z"/><path fill="#c5b7a7" d="M87.5 50.5l-8 1 2-2z"/><path fill="#3f5e09" d="M89.5 58.5l-27 18-23-8z"/><path fill="#69981c" d="M110.5 44.5l-5-14-23 7z"/><path fill="#334617" d="M142.5 21.5l-40 19 17 1z"/><path fill="#bcc27a" d="M96.5 49.5v3l8 2z"/><path fill="#a1c117" d="M50.5 36.5l28 10-38 1z"/><path fill="#b0a86c" d="M94.5 59.5l-10 4 9 6z"/><path fill="#201e42" d="M67.5 53.5l8-2-9-2z"/><path fill="#6a8d15" d="M53.5 33.5l-37-9 18-2z"/><path fill="#ffd976" d="M48.5 19.5l29 7-15 1z"/><path fill="#be6e3e" d="M67.5 36.5l6-5-16 1z"/><path fill="#76991f" d="M29.5 46.5v-14l-18 23z"/><path fill="#7b9304" d="M72.5 79.5l38-29-15 29z"/><path fill="#55690b" d="M32.5 53.5l-13 17 12 5z"/><path fill="#486e85" d="M106.5 11.5l-8-19 23 20z"/><path fill="#141012" d="M103.5 21.5l-12-2 19-2z"/><path fill="#c4c8c7" d="M60.5-15.5l28 24-12-24z"/><path fill="#567516" d="M40.5 39.5h-19l12 7z"/><path fill="#1c250b" d="M49.5 34.5l-17 2 6 4z"/><path fill="#83a51d" d="M39.5 34.5l7-4-12-2z"/><path fill="#d2c876" d="M53.5 53.5v6l-5-8z"/><path fill="#b6bbbd" d="M53.5 9.5l-5 9-17-9z"/><path fill="#91a531" d="M72.5 41.5l1 7-13-2z"/><path fill="#ecb800" d="M60.5 26.5l9 4-4-4z"/><path fill="#d1dc0b" d="M54.5 38.5l11 3 3-4z"/><path fill="#333b0b" d="M7.5 37.5l17 5-12-9z"/><path fill="#9ab612" d="M106.5 47.5l-17 8-1-5z"/><path fill="#d1b467" d="M50.5 23.5l10-3-19-2z"/><path fill="#594320" d="M45.5 22.5l13 6-4-6z"/><path fill="#908c89" d="M58.5 2.5l-15 2 22 4z"/><path fill="#fff7ee" d="M59.5 14.5l6 5 11-4z"/><path fill="#1a1f00" d="M22.5 17.5l-9 3h19z"/><path fill="#005b9a" d="M143.5-.5l-31 8 11-23z"/><path fill="#918836" d="M40.5 79.5l-24-4 6-20z"/><path fill="#c6c095" d="M84.5 50.5l4 2-6 5z"/></g></svg>