<svg xmlns="http://www.w3.org/2000/svg" viewBox="0 0 2000 1001"><path fill="#687a3c" d="M0 0h2000v1000H0z"/><g fill-opacity=".5"><path fill="#f8e4ff" d="M1152.3 480.5L105.5 168 1425.8-43z"/><path fill="#031300" d="M1222.7 230.5L2082 121l39 976.6z"/><path fill="#000300" d="M27.3 1113.3l445.4-828.1-593.8-93.8z"/><path fill="#bec80f" d="M1097.7 300.8l617.1 554.7L43 1121z"/><path fill="#4577c5" d="M1777.3 277.3L2121.1-121 394.5 11.7z"/><path fill="#155bc1" d="M50.8-121L-66.4 230.4l796.9-117.2z"/><path fill="#465f00" d="M941.4 386.7l-836-101.5 7.9 835.9z"/><path fill="#ffe9bd" d="M683.6 89.8l593.7 132.9L1004 566.4z"/><path fill="#5e8600" d="M1097.7 527.3L1503.9 332l617.2 765.7z"/><path fill="#161b00" d="M2058.6 543L1996 160.2 1230.5 371z"/><path fill="#0051a3" d="M2121 105.5l-359.3-226.6-125 296.9z"/><path fill="#131757" d="M1066.4 746l179.7 93.8-336 31.3z"/><path fill="#e8cab2" d="M1535.2 35.2L1168 168l476.5-31.3z"/><path fill="#a2ca15" d="M1558.6 511.7l-953.1 414-406.3-234.3z"/><path fill="#101800" d="M27.3 425.8l773.5 171.9-921.9 117.1z"/><path fill="#ff9f3c" d="M816.4 324.2L1004 589.8l265.6-242.1z"/><path fill="#688711" d="M43 855.5L464.8 496l148.5 625z"/><path fill="#201c15" d="M1238.3 418l39-250 234.4-23.5z"/><path fill="#5d4612" d="M675.8 496l664 15.7-406.2 101.6z"/><path fill="#273600" d="M1496 1121l195.4-250 429.7 86z"/><path fill="#fbebdb" d="M511.7 347.7l718.8-54.7-297-164z"/><path fill="#788896" d="M-121 175.8l656.2 109.4L957-19.5z"/><path fill="#97b429" d="M1589.8 464.8v656.3L1168 816.4z"/><path fill="#939993" d="M1207-58.6l367.2 336 203.1-47z"/><path fill="#cbcb5f" d="M1199.2 933.6L769.5 918 754 793z"/><path fill="#d0ac78" d="M863.3 324.2l-336 23.5L379 207z"/><path fill="#325301" d="M738.3 949.2l429.7 125L1332 957z"/><path fill="#085a8a" d="M1261.7 113.3L918-27.3l187.5-62.5z"/><path fill="#e7c1b7" d="M1363.3 800.8l39 46.9-195.3 78z"/><path fill="#46590a" d="M1871 371l-539-31.2-304.7 257.9z"/><path fill="#004885" d="M-121-113.3l734.3 78.1-734.4 172z"/><path d="M2066.4 89.8l54.7 242.2-390.6-86z"/><path fill="#0e1a00" d="M418 277.3L-50.8 207l-62.5 218.8z"/><path fill="#4c5a12" d="M121 1121L-4 722.8l898.5 390.6z"/><path fill="#424709" d="M863.3 363.3l31.2 203.1L504 339.8z"/><path fill="#12200b" d="M761.7 621L504 668l226.6-125z"/><path fill="#fa0" d="M996 543l-78-125 171.8 23.4z"/><path fill="#5b6e18" d="M1293 699.2l562.5-31.2 179.7 195.3z"/><path fill="#698b06" d="M925.8 597.7l-695.3-211 289-54.7z"/><path fill="#a79683" d="M808.6 879l289-125-335.9 31.2z"/><path fill="#ffec92" d="M1191.4 457l39-86-320.2 23.5z"/><path fill="#9da19a" d="M1254 207L785.1 89.8l890.6-70.3z"/><path fill="#006196" d="M1519.5-121l601.6 132.7-234.4 164z"/><path fill="#bbbdbb" d="M496 168l39.2 171.8L1082 121.1z"/><path fill="#9eb71e" d="M394.5 691.4l-70.3 289 273.5-203z"/><path fill="#c9e103" d="M839.8 683.6l-15.6-93.8 312.5 15.7z"/><path fill="#f5f5f5" d="M1175.8 238.3l-445.3-125 296.8 203.1z"/><path fill="#181f10" d="M1300.8 191.4l250 148.4-86-187.5z"/><path fill="#6d9310" d="M308.6 597.7l-125 296.8L543 527.3z"/><path fill="#6c8611" d="M1222.7 957l507.8-15.6-218.8-101.6z"/><path fill="#ccc4b7" d="M1136.7-74.2l265.6 250-23.4-125z"/><path fill="#bac538" d="M1394.5 761.7L1199.2 707v250z"/><path fill="#87ba0f" d="M1214.8 527.3l507.9 47-664.1 187.4z"/><path fill="#070a01" d="M-121 691.4L285.1 668l-406.3-367.2z"/><path fill="#f58e7c" d="M1214.8 449.2L1004 550.8l-15.6-62.5z"/><path fill="#1e3209" d="M1566.4 644.5l554.7 23.5-39-140.7z"/><path fill="#b59c63" d="M1597.7 886.7l-297 211-171.8-39.1z"/><path fill="#51798a" d="M1879 175.8L1480.4 246 1582 128.9z"/><path fill="#3f6281" d="M1293-66.4l351.5-54.7-218.7 234.4z"/><path fill="#22263c" d="M1207 824.2l-132.8 39-70.3-101.5z"/><path fill="#717879" d="M-121 183.6L316.3 121 504 277.3z"/><path fill="#2b3a07" d="M660.2 441.4L433.6 261.7H199.2z"/><path fill="#638706" d="M839.8 879l39.1-54.8 164 46.9z"/><path fill="#141a0a" d="M949.2 574.2l-93.7 15.6-47-39z"/><path fill="#dfd4c5" d="M1543 50.8l-7.8 101.5-78.2-15.6z"/><path fill="#3f4709" d="M558.6 543L418 425.8 129 621z"/><path fill="#c89dcd" d="M1535.2 816.4l31.2 54.7 31.3-15.6z"/><path fill="#ecda70" d="M597.7 832l-7.9 47 140.7-78.2z"/><path fill="#58850c" d="M1480.5 535.2l359.3-86-218.7 171.9z"/><path fill="#b1ce12" d="M1144.5 574.2l461 101.6-250 23.4z"/><path fill="#e1c387" d="M511.7 308.6l218.8-70.3L1043 394.5z"/><path fill="#527c02" d="M50.8 371l218.7 39.2-375 39z"/><path fill="#e0c9a1" d="M800.8 824.2l78.1 86-125-47z"/><path fill="#537311" d="M699.2 964.8l-46.9-78 250 70.2z"/><path fill="#ceb3b1" d="M1379 808.6l-8 46.9-125-86z"/><path fill="#6e8c13" d="M1543 1121l250-445.2-140.7-23.5z"/><path fill="#1a2301" d="M2019.5 316.4l-203-125-328.2 234.4z"/><path fill="#3f7199" d="M660.2-113.3L121 121.1l507.8-23.4z"/><path fill="#55710c" d="M339.8 660.2L191.4 793l-257.8-62.5z"/><path fill="#bbc336" d="M589.8 933.6L910.2 996l-109.4 125z"/><path fill="#346f97" d="M1347.7 105.5l-218.8-15.7L957-50.8z"/><path fill="#c2cb5b" d="M1293 886.7L941.4 918l203.1 39z"/><path fill="#d0ad73" d="M832 316.4l226.6 78.1 195.3-54.7z"/><path fill="#81a4b0" d="M464.8 74.2l359.4 117.2-437.5-15.6z"/><path fill="#87aa0f" d="M511.7 433.6l211 46.9-93.8 62.5z"/><path fill="#404c11" d="M519.5 418l390.7 62.5-211-140.7z"/><path fill="#4f5d19" d="M1933.6 793L1621 441.4l304.7 679.7z"/><path fill="#2e4311" d="M-121 1089.8l492-289-257.7 265.6z"/><path fill="#747f0d" d="M1113.3 527.3l125-132.8 226.5-7.8z"/><path fill="#b7d000" d="M722.7 910.2v-86l125 93.8z"/><path fill="#5d7e26" d="M699.2 644.5l-257.8 93.8 70.3-109.4z"/><path fill="#0e1304" d="M730.5 629l-140.7-70.4L488.3 621z"/><path fill="#aa9c86" d="M472.7 300.8l164-7.8-320.3-101.6z"/><path fill="#4e6e1b" d="M1191.4 707l187.5 15.7-117.2-54.7z"/><path fill="#8b8c82" d="M1504 261.7v-78.1l164 70.3z"/><path fill="#345315" d="M441.4 1058.6l234.4-15.6L457 910.2z"/><path fill="#97865b" d="M379 1066.4l-39.2-171.9 54.7 7.8z"/><path fill="#88a813" d="M207 871l109.4-148.3 257.8-70.4z"/><path fill="#9cc313" d="M832 543l-86-15.7 86 211z"/><path fill="#484e1d" d="M1121 550.8l-62.4 31.2 62.5 31.3z"/></g></svg>