<svg xmlns="http://www.w3.org/2000/svg" viewBox="0 0 400 200"><path fill="#697a3c" d="M0 0h400v200H0z"/><g stroke-opacity=".5" fill="none" stroke-width=".8"><path stroke="#fff8ff" d="M274 4.5q-24.4 93.3-243.3 30"/><path stroke="#fce8ff" d="M308.9 14.4Q168.7 91.1 28.5 26.5"/><path stroke="#fae3ff" d="M25 27.1q71.6 62.3 295.5-8.9"/><path stroke="#faebff" d="M83.4 18.3q39 62.3 240.2-3.9"/><path stroke="#ffe8ff" d="M355 2.7Q136 92 95.3 57"/><path stroke="#d7d2ff" d="M345.5-24.2Q283.8 71.4 11.8 31.6"/><path stroke="#fffdff" d="M73.8 46.8Q274 96.4 278.8-14"/><path stroke="#fce9ff" d="M330.2 19.2Q110.4 78.2 86.6 28"/><path stroke="#eae2ff" d="M62.8 34.2q129.9 22 261-24"/><path stroke="#d8d9ff" d="M313.3 11.4Q176.7 57 40.6 27"/><path stroke="#fbefff" d="M246.4 80.2Q240.2 8.8 33.1 47.5"/><path stroke="#ffefff" d="M49.4 31.5q176 64 223.1-23"/><path stroke="#fff" d="M261.8-1.4Q262.6 85.3 97 62"/><path stroke="#fff9ff" d="M233.5 96.8q5.4-90-165.6-61.7"/><path stroke="#0053db" d="M-24.2 30.5q115.7-54.7 446-12.7"/><path stroke="#fff7ff" d="M59.5 40Q231 4.8 229 97.7"/><path stroke="#fff" d="M54.2 45.7q67-10.8 194.4 16.4"/><path stroke="#90aeff" d="M389.5 22.9q-294.2 12-371.8-6"/><path stroke="#fff4ff" d="M280.6-13.2Q250.4 80.3 76.1 53.2"/><path stroke="#faf3ff" d="M240 79.7Q222 8.2 67.3 30.4"/><path stroke="#e5dcff" d="M41.8 27.4Q242 99.7 282.6-22.2"/><path stroke="#fff" d="M244.7 81.8q-2.5-56-163.3-42.4"/><path stroke="#fff8ff" d="M260.9-11q1 105.6-171.8 62.3"/><path stroke="#fff" d="M74.3 42.3q28.6.7 172 20.5"/><path stroke="#055adc" d="M404.5 2.5Q197.5 4.3-24.2 4"/></g></svg>