<svg xmlns="http://www.w3.org/2000/svg" viewBox="0 0 400 200"><path fill="#697a3c" d="M0 0h400v200H0z"/><g fill-opacity=".5"><path fill="#f4e7ff" d="M96 7h156.3v64H96.1z"/><path fill="#010d00" d="M250.8 39.8h150V107h-150z"/><path fill="#081500" d="M.8 47.7h65.6v153H.8z"/><path fill="#9aad05" d="M57 82h267.2v118.8H57z"/><path fill="#3f76ce" d="M.8.8h400v36H.8z"/><path fill="#ffecb4" d="M174.2 27.3H243v73.5h-68.8z"/><path fill="#1d2f00" d="M.8 69.5h151.5V132H.8z"/><path fill="#182800" d="M343 29h57.8v171.8H343z"/><path fill="#e1c9b9" d="M249.2 8.6h73.5V32h-73.5z"/><path fill="#acc233" d="M110.2 127.3h176.5v61H110.2z"/><path fill="#7591b7" d="M297.7 27.3h57.8V54h-57.8z"/><path fill="#0d0559" d="M191.4 155.5h45.3v18.7h-45.3z"/><path fill="#fae0c6" d="M144.5 22.7h67.2v51.5h-67.2z"/><path fill="#004e94" d="M332 .8h68.8v32.8H332z"/><path fill="#9ea4b9" d="M35.2 29h120.3v21.8H35.2z"/><path fill="#ffab40" d="M177.3 66.4h68.8v36h-68.8z"/><path fill="#282009" d="M152.3 80.5h28.2V107h-28.2z"/><path fill="#034b84" d="M.8.8h123.4v18.7H.8z"/><path fill="#6e8b0e" d="M18 138.3h90.6v62.5H18z"/><path fill="#151c00" d="M.8 55.5h101.5v14H.8z"/><path fill="#527301" d="M319.5 96h45.3v104.8h-45.3z"/><path fill="#b5df00" d="M158.6 121H307v14.2H158.6z"/><path fill="#000307" d="M99.2 111.7h46.9V129H99.2z"/><path d="M.8 89.8h34.4v51.6H.8z"/><path fill="#28490e" d="M158.6 191.4H268v7.8H158.6z"/></g></svg>