<svg xmlns="http://www.w3.org/2000/svg" viewBox="0 0 2000 1001"><path fill="#687a3c" d="M0 0h2000v1000H0z"/><g fill-opacity=".5"><path fill="#f8e5ff" d="M1168 472.7l211-492.2L66.3 160.2z"/><path fill="#031300" d="M2105.5 1105.5l15.6-968.8-882.8 93.8z"/><path fill="#000600" d="M496 293l-609.3-109.4L19.5 1121z"/><path fill="#c4cb12" d="M1121 277.3L261.8 964.8l1429.7-54.6z"/><path fill="#4b7ac9" d="M1675.8 269.5L402.3 11.7 2121.1-97.7z"/><path fill="#1159be" d="M-121 230.5L82-121.1l640.7 242.2z"/><path fill="#ffecc3" d="M714.8 105.5l250 437.5 312.5-320.3z"/><path fill="#536900" d="M316.4 300.8L4 1082l1046.9-625z"/><path fill="#0052ab" d="M1839.8 199.2l281.3-164-718.8-156.3z"/><path fill="#608600" d="M1550.8 332L1082 519.5l1031.3 601.6z"/><path fill="#00005c" d="M1199.2 839.8l-273.4 23.5L1082 746z"/><path fill="#ebceb6" d="M1550.8 50.8l-359.4 93.7 461 7.8z"/><path fill="#ffaa45" d="M972.7 574.2l281.2-218.7-421.9-39z"/><path fill="#a4c71c" d="M683.6 1027.3l-414-304.6 1125-195.4z"/><path fill="#212406" d="M1527.3 152.3l-289 390.7 39-359.4z"/><path fill="#111a00" d="M-121 386.7l929.6 211-929.7 117.1z"/><path fill="#111700" d="M2097.7 66.4l-93.8 461L1402.3 418z"/><path fill="#69890d" d="M50.8 871l539 250-117.1-640.5z"/><path fill="#f9e9dc" d="M519.5 339.8l382.8-218.7L1230.5 293z"/><path fill="#718394" d="M1113.3-82L-121.1 183.6l578.1 86z"/><path fill="#2b3b00" d="M2121 949.2l-492-86-23.5 257.9z"/><path fill="#9bce0b" d="M1550.8 683.6l-664-46.9 750-156.2z"/><path fill="#524e14" d="M816.4 582l414 7.8L1504 402.3z"/><path fill="#3e3d08" d="M910.2 582L871 363.3l-320.3-15.6z"/><path fill="#d4ab6a" d="M832 316.4l-421.8-54.7 179.6 101.6z"/><path fill="#a9997b" d="M1074.2 746l-211 172-164-117.2z"/><path fill="#728890" d="M1902.3 168l-335.9 101.5-109.4-125z"/><path fill="#bdc84e" d="M1269.5 738.3l-125 218.7 468.8-195.3z"/><path fill="#0f5e8d" d="M746-121l508 242-93.8-179.6z"/><path fill="#004988" d="M-121-97.7l773.3 62.5L-3.9 105.5z"/><path fill="#cfc4b4" d="M1097.7-66.4l312.5 117.2-15.7 101.5z"/><path fill="#121e00" d="M441.4 285.2L-43 410.2l-54.7-211z"/><path fill="#ffa83c" d="M1214.8 410.2l-328 15.6L1019.4 582z"/><path fill="#bdcc3a" d="M886.7 949.2l375-7.8-671.9-179.7z"/><path fill="#005f91" d="M1988.3-121L2121 82l-578 117.2z"/><path fill="#7f971c" d="M1550.8 1121l-281.3-179.6 507.8-265.6z"/><path fill="#5d7d02" d="M769.5 480.5l-781.2-54.7 328.1-109.4z"/><path fill="#395c00" d="M816.4 949.2h539l-218.7 93.8z"/><path fill="#4f5e10" d="M152.3 1121l507.9-109.3L-4 691.4z"/><path fill="#38413a" d="M1082 761.7l-234.3 86 343.7 15.6z"/><path fill="#47610a" d="M1300.8 339.8l601.5 132.9-765.6 62.5z"/><path fill="#eac284" d="M1230.5 441.4l-500-101.6 500-46.8z"/><path fill="#adb4b4" d="M511.7 332l632.8-242.2-664 23.5z"/><path fill="#83a31d" d="M347.7 1027.3l-47-453 304.8 101.5z"/><path fill="#d5b6b0" d="M1386.7 847.7l-31.2-62.5L1253.9 918z"/><path fill="#b0d409" d="M988.3 644.5l-226.6-93.7v187.5z"/><path fill="#0d1206" d="M730.5 629l-250-23.5L746 535.2z"/><path fill="#f4f3f0" d="M996 316.4l-289-211 468.8 132.9z"/><path fill="#465d07" d="M730.5 964.8l-62.5-78 234.3 93.7z"/><path fill="#546714" d="M2121 902.3L1410.3 707l492.1-39z"/><path fill="#222814" d="M1230.5 402.3l132.8-242.1 289 164z"/><path d="M2121 27.3L1816.5 254l211 54.7z"/><path fill="#c3a771" d="M1191.4 1043l211 54.7 117-179.7z"/><path fill="#070a00" d="M-121 707V300.8l398.3 359.4z"/><path fill="#928f7d" d="M1714.8 238.3l-187.5 31.2-46.8-70.3z"/><path fill="#989b92" d="M1285.2 191.4l-390.7-78.1 797-86z"/><path fill="#333c0a" d="M566.4 480.5l-296.9-70.3L97.7 636.7z"/><path fill="#6d7c0f" d="M1261.7 371l-148.4 156.3 445.3-156.2z"/><path fill="#c5c72a" d="M566.4 918l211 203 109.3-125z"/><path fill="#467498" d="M746 199.2l-148.3-211-375-31.2z"/><path fill="#2c3e04" d="M1496 308.6L2121 957l-148.3-507.8z"/><path fill="#2b4013" d="M4 1019.5L379 793 82 1121z"/><path fill="#c1a69b" d="M1480.5 785.2l117.2 46.8-7.9 47z"/><path fill="#90b513" d="M1254 519.5L996 660.2l539.2 195.3z"/><path fill="#9fc70b" d="M254 754l664-39.2-328.2 109.4z"/><path fill="#ffb900" d="M941.4 418l-39 70.3 242.1-39z"/><path fill="#8eb40b" d="M714.8 488.3l-70.3 46.9L496.1 418z"/><path fill="#74630d" d="M824.2 597.7l39-132.9 250 132.9z"/><path fill="#f19698" d="M1199.2 441.4l-86 70.3-85.9-7.8z"/><path fill="#3c5705" d="M738.3 339.8L707 472.7 464.8 363.3z"/><path fill="#d4b5af" d="M754 863.3l78-54.7 23.5 93.7z"/><path fill="#b9c653" d="M1050.8 761.7l203.1-39 109.4 78z"/><path fill="#62821d" d="M1418 738.3l-320.3-46.9 218.7-31.2z"/><path fill="#757876" d="M324.2 129l164 148.3-609.3-93.7z"/><path fill="#212c1f" d="M1472.7 152.3l-7.9 187.5-226.5-85.9z"/><path fill="#1f372b" d="M1558.6 636.7l265.6-46.9-117.2 62.5z"/><path fill="#649814" d="M1316.4 566.4l453.1-46.9-117.2 101.6z"/><path fill="#f0de75" d="M691.4 808.6L629 863.3l-47-15.6z"/><path fill="#6f9114" d="M464.8 535.2l47 187.5-406.3 187.5z"/><path fill="#ffec85" d="M902.3 402.3l273.5 54.7-31.3-86z"/><path fill="#9bae04" d="M1214.8 785.2l125 54.6-179.6 62.5z"/><path fill="#c6d30b" d="M1043 683.6l125-70.3-297-23.5z"/><path fill="#d0c9c0" d="M1464.8 129l101.6-117.3-15.6 132.8z"/><path fill="#c9bf71" d="M1121 902.3l-164 39.1-93.7-46.9z"/><path fill="#324905" d="M136.7 293l-211 140.6 562.6-109.4z"/><path fill="#dbbd8a" d="M941.4 371L714.8 230.6l-234.3 70.3z"/><path fill="#658603" d="M82 777.3l-23.4-62.5 125-23.4z"/><path fill="#5d8312" d="M1261.7 972.7l304.7-70.4-39-93.7z"/><path fill="#466887" d="M1324.2 4l328.1-125L1707 50.7z"/><path fill="#2a2e3a" d="M1168 793l-109.4 39h156.2z"/><path fill="#071a07" d="M957 589.8l-101.5-31.2-15.7 31.2z"/><path fill="#b6a376" d="M1691.4 254L1543 269.4l78-31.2z"/><path fill="#9da19d" d="M769.5 97.7l476.6 93.7L972.7 19.5z"/><path fill="#54421c" d="M1035.2 535.2l171.8-31.3-109.3 86z"/><path fill="#b2cb17" d="M1589.8 675.8l-226.5 23.4L1136.7 582z"/><path fill="#bbaa93" d="M1246 355.5l-54.6-172 70.3-15.5z"/><path fill="#4b7286" d="M1879 183.6l-383 39 164.2-171.8z"/><path fill="#2d433f" d="M527.3 683.6v46.9h-78z"/><path fill="#a4bc20" d="M925.8 832l218.7 117.2-289 7.8z"/><path fill="#262a04" d="M-82 847.7l62.5 234.3 148.4-257.8z"/></g></svg>