<svg xmlns="http://www.w3.org/2000/svg" viewBox="0 0 50 25"><path fill="#6b7a3f" d="M0 0h50v25H0z"/><g fill-opacity=".5"><path fill="#e7d9ff" d="M7.5 4.5l19 6 26-26z"/><path fill="#051300" d="M53.5 27.5l-22-22 34-2z"/><path fill="#213100" d="M-11.5.5v34l33-23z"/><path fill="#b4cd13" d="M38.5 13.5l6 23-41-19z"/><path fill="#366fc4" d="M-15.5 3.5l21-19 60 19z"/><path fill="#ffde9f" d="M25.5 13.5l6-6-15-11z"/><path fill="#161e00" d="M-11.5 3.5l22 4-13 22z"/><path fill="#7f8995" d="M36.5-7.5l7 14-42-10z"/><path fill="#7c9205" d="M62.5 25.5l-48-14h25z"/><path fill="#263306" d="M44.5 6.5l21-15-25 49z"/><path fill="#faebf6" d="M25.5 2.5l-7 4 14 1z"/><path fill="#125085" d="M60.5-2.5l-76 5 51-18z"/><path fill="#0558a0" d="M65.5-8.5l-23 1 1 13z"/><path fill="#1d2a09" d="M27.5 37.5l-5-13 9-1z"/><path fill="#ffd32d" d="M27.5 8.5l-4 2 8 1z"/><path fill="#6c740e" d="M21.5 14.5v-6h-16z"/><path fill="#6a840b" d="M11.5 14.5l-10 5 17 21z"/><path fill="#25250e" d="M39.5 3.5h-6l-2 7z"/><path fill="#b4b9c1" d="M41.5 1.5l-7 2-3-3z"/><path fill="#6677a1" d="M-2.5 5.5l8-3 5 2z"/><path fill="#5d7c17" d="M41.5 29.5l20 10-22-29z"/><path fill="#bccd2f" d="M12.5 23.5l18-9h-10z"/><path fill="#0b1408" d="M52.5 2.5l-12 5 17 6z"/><path fill="#c1cd63" d="M31.5 18.5l4 2-6 2z"/><path fill="#362518" d="M28.5 18.5l1 3h-5z"/><path fill="#758496" d="M4.5-2.5l23 6-11-19z"/><path fill="#010700" d="M-8.5 17.5l-5-16 20 14z"/><path fill="#334200" d="M34.5 6.5l-4 6 20-3z"/><path fill="#e1ce8a" d="M24.5 7.5l-7-2-5 3z"/><path fill="#7b8c92" d="M33.5-3.5l5 10 5-2z"/><path fill="#1b598a" d="M61.5 4.5l-26-5 30-4z"/><path fill="#a6bf2c" d="M20.5 14.5l16 1-24 6z"/><path fill="#bab35d" d="M28.5 22.5l-9-1 2-2z"/><path fill="#121a00" d="M13.5 15.5l-2-2h6z"/><path fill="#718029" d="M16.5 40.5l9-15 22-7z"/><path fill="#576d10" d="M9.5 16.5l-3-9 11 2z"/><path fill="#b3b6bb" d="M20.5 3.5l-8-1v5z"/><path fill="#ffb160" d="M27.5 11.5l-4-2v3z"/><path fill="#647f17" d="M26.5 13.5h18l-9-4z"/><path fill="#0e1e00" d="M10.5 12.5l-26-4v7z"/><path fill="#4c5b00" d="M12.5 22.5l-3 10 9-5z"/><path fill="#efcc61" d="M29.5 7.5l-7 1 9 2z"/><path fill="#161301" d="M7.5 5.5l-11 4-3-4z"/><path fill="#56420c" d="M16.5 8.5l4 5v-4z"/><path fill="#839f2d" d="M12.5 23.5l-4-6 3-4z"/><path fill="#f5eae6" d="M21.5 6.5l8-1-11-2z"/><path fill="#04467d" d="M-5.5-15.5l6 18 19-8z"/><path fill="#434b14" d="M-14.5 15.5l29 20-11-18z"/><path fill="#c2b8cc" d="M33.5 3.5l-4-12 5-2z"/><path fill="#7e7550" d="M25.5 18.5v3l-5-2z"/><path fill="#606b00" d="M42.5 28.5l-10 3-16-9z"/><path fill="#666162" d="M35.5 1.5l12-10-23-3z"/><path fill="#1f2413" d="M35.5 4.5l-3 2 11 3z"/><path fill="#39420b" d="M40.5 24.5l10 5 15-12z"/><path fill="#366186" d="M40.5 4.5l4-10 1 8z"/><path fill="#99bc0c" d="M28.5 15.5h-13l-4 5z"/><path fill="#7dba20" d="M38.5 15.5l2-3h-8z"/><path fill="#adb158" d="M18.5 17.5h9l-10 4z"/><path fill="#a0b5bb" d="M48.5-10.5l-11 15 3-20z"/><path fill="#667e8c" d="M15.5 3.5l5-3h-9z"/><path fill="#a7beb1" d="M29.5 5.5l-6-4 7 2z"/><path fill="#0c5fa3" d="M50.5-15.5v17l-54-10z"/><path fill="#b1c547" d="M36.5 17.5l1 3-10-3z"/><path fill="#72972a" d="M11.5 10.5h6l4 4z"/><path fill="#cd7827" d="M22.5 10.5v2l5 1z"/><path fill="#516232" d="M4.5 9.5l-20 1 1-7z"/><path fill="#657937" d="M44.5 15.5l2 6-4-3z"/><path fill="#121302" d="M-.5 9.5l-5-6 7 2z"/><path fill="#4f6d83" d="M43.5 3.5l-8-19-7 7z"/><path fill="#00060a" d="M45.5 6.5h13l7-12z"/><path fill="#607b04" d="M1.5 21.5l8-1-7-2z"/><path fill="#48666e" d="M31.5 2.5l-24-18 13 3z"/><path fill="#b8c04c" d="M16.5 23.5l-2 17 25-11z"/><path fill="#818a89" d="M8.5 2.5l7 4-9-2z"/><path fill="#98a538" d="M15.5 40.5l26-21-13 21z"/><path fill="#475719" d="M33.5 23.5l-4 17-45-12z"/><path fill="#beca4a" d="M33.5 21.5l-5 2-7-2z"/><path fill="#37490f" d="M65.5 6.5v22l-23-14z"/><path fill="#3d5401" d="M2.5 6.5l7 7 4-1z"/><path fill="#836400" d="M20.5 12.5l7 1-8 1z"/><path fill="#9ebd19" d="M16.5 20.5l-5-2 11-2z"/><path fill="#3f7294" d="M7.5 3.5l18-8-15-2z"/><path fill="#e9bf55" d="M26.5 8.5l-3 4h3z"/><path fill="#353300" d="M27.5 20.5v-1l-2 1z"/><path fill="#ffede7" d="M32.5 7.5l-10-1 5-1z"/><path fill="#9dcf10" d="M33.5 15.5h-5l5-2z"/><path fill="#516100" d="M41.5 40.5l-20-5-10-13z"/><path fill="#6c8321" d="M11.5 11.5h5l-7-3z"/><path fill="#524d18" d="M30.5 19.5h-6l3 2z"/><path fill="#8ca440" d="M37.5 18.5l7 2h-6z"/><path fill="#74b1cb" d="M25.5 1.5l6-15-10 3z"/><path fill="#ccc13b" d="M23.5 14.5h5l-7 2z"/><path fill="#3f4c06" d="M17.5 9.5l2 1-1 5z"/><path fill="#b1c9c7" d="M18.5 2.5l-4 4 7-4z"/><path fill="#5a5e29" d="M46.5 26.5l3-8h-5z"/><path fill="#415137" d="M5.5 16.5l-13 4 2-4z"/><path fill="#9ab71d" d="M9.5 22.5l5-3-4-1z"/><path fill="#002d37" d="M44.5 5.5l21-14v7z"/><path fill="#5a750b" d="M44.5 16.5l-4 2-3-2z"/><path fill="#5e714c" d="M3.5 9.5l-3 1-1-1z"/></g></svg>