<svg xmlns="http://www.w3.org/2000/svg" viewBox="0 0 400 200"><path fill="#697a3c" d="M0 0h400v200H0z"/><g fill-opacity=".5"><path fill="#fde6ff" d="M230.8 104.5l47-107.8L22 35.9l175.9 51.9z"/><path fill="#000a00" d="M248.4 37.5l84.7 20.8L424.2 5l-5.7 219.1z"/><path fill="#000b00" d="M-.2 42.8l-12.6 180.5L110 76.3 91 57z"/><path fill="#3e78d0" d="M379.4 36.7L-24.2 35 16-24.2 424.2 3.6z"/><path fill="#b0d108" d="M308.8 186l27.5-87.5L31 141.8l87.7 55.2z"/><path fill="#ffe39a" d="M142.3 18.1l103 17.5.6 60.6-54.3 16.2z"/><path fill="#465a00" d="M186.8 90.4L6 224.2 33 64l135.3 10.5z"/><path fill="#19105c" d="M243.3 167.3l-40 10.5-20.8-11.6 34-13.8z"/><path fill="#d7c1ac" d="M325.4 31l-69.6 1.8-13-33.5 80.8 17.2z"/><path fill="#425c00" d="M286.2 29.5l138 164.4-70.1 30.3L246.6 51.6z"/><path fill="#0059a0" d="M374.8-22.6L307.1 48l52-4.4L424.2 12z"/><path fill="#f6e8e1" d="M94 71.7l152.2-11-12.3-18.2-47.3-13.9z"/><path fill="#e8a000" d="M211.2 132.1l-36.5-45.3L265 83l-102.6 56.5z"/><path fill="#345e89" d="M-24.2 38L-4-24.2l95.6 5.7-1 75.3z"/><path fill="#010000" d="M-11.7 146.1l61.5-11.5 19-36.2-93-15.6z"/><path fill="#0d1200" d="M291.8 67.8L415 24.5l9.2 42-17 36.7z"/><path fill="#130e27" d="M288.6 31.2l-31.5 8-8.2 39.5 64.2-18.6z"/><path d="M103 111l-10 15.8 61.6-.3-5.7-11z"/><path fill="#aac122" d="M77.5 157.9l73.2 66.3L225 130l-60.6-12.9z"/><path fill="#405100" d="M409.5 71l-166 40.6L199 126l67-57.4z"/><path fill="#a2b02f" d="M367.8 156l-157.2-14 57.2 48.2-1 34z"/><path fill="#719004" d="M186.9 126.5l-84-59.5-87.3 18.4 56.2.7z"/><path fill="#d7c47d" d="M183.6 189l-23-31.4-7.4 23 130.2-1.8z"/><path fill="#dfab61" d="M105.4 67.7l130.9 13.5 20.7-9.3-175.6-19z"/><path fill="#405f00" d="M136.4 184.7l69.1 36.3 101.8-41.3-91.5 15.2z"/></g></svg>