<svg xmlns="http://www.w3.org/2000/svg" viewBox="0 0 100 50"><path fill="#6b7a3f" d="M0 0h100v50H0z"/><g fill-opacity=".5"><path fill="#ffebff" d="M69.5-4.5l-56 14 46 14z"/><path fill="#020e00" d="M64.5 10.5l51 53v-55z"/><path fill="#000400" d="M-6.5 65.5l31-51-38-6z"/><path fill="#c3cb15" d="M13.5 47.5l40-31 32 30z"/><path fill="#3a75d2" d="M-15.5 7.5l65-23 66 22z"/><path fill="#4f6600" d="M46.5 17.5l-51 48 21-48z"/><path fill="#ffedc7" d="M36.5 5.5l26 4-12 17z"/><path fill="#9aa0b6" d="M91.5 8.5l-36-12 26 18z"/><path fill="#567400" d="M111.5 45.5l-18 19-32-53z"/><path fill="#004686" d="M94.5-10.5l-14 20h35z"/><path fill="#101000" d="M115.5.5l-38 15 38 16z"/><path fill="#96b427" d="M80.5 24.5l-74 13 75 14z"/><path fill="#1c153f" d="M60.5 42.5h-13l8-6z"/><path fill="#595707" d="M23.5 32.5l-20-18 63 11z"/><path fill="#ffb451" d="M48.5 30.5l-4-16 17 5z"/><path fill="#7584a2" d="M20.5 13.5l-20-5 46-9z"/><path fill="#004382" d="M20.5 1.5l2-17-37 24z"/><path fill="#e9dfda" d="M25.5 16.5l15-12 16 8z"/><path fill="#131f00" d="M38.5 29.5l-42-9-12 15z"/><path fill="#8cac14" d="M21.5 27.5l39 38-50-28z"/><path fill="#222415" d="M75.5 7.5l-12 4 2 13z"/><path fill="#a8a49b" d="M79.5 3.5l-48-2 28 9z"/><path fill="#4b5714" d="M115.5 65.5l-77-15 61-9z"/><path fill="#165980" d="M63.5 4.5l-32-10 22-3z"/><path fill="#5e7311" d="M-2.5 37.5l46 28-27-33z"/><path fill="#4e5801" d="M51.5 29.5l14-13 21 3z"/><path fill="#aed10c" d="M39.5 26.5l-2 11 18-1z"/><path fill="#a0ab3d" d="M85.5 38.5l-21-2 4 29z"/><path fill="#c6c654" d="M27.5 42.5l18-4 3 8z"/><path fill="#fffcf4" d="M62.5 12.5l-20 3 10-6z"/><path fill="#141f00" d="M-.5 19.5v-9l21 3z"/><path fill="#d4b47b" d="M43.5 16.5l-17 1-4-6z"/><path fill="#cbbaab" d="M62.5.5l4 7 11-1z"/><path fill="#7d4d1a" d="M57.5 27.5l-16 2 1-6z"/><path fill="#6f9415" d="M39.5 27.5l-13-11-11 2z"/><path fill="#93c901" d="M56.5 30.5l20 3v-7z"/><path fill="#f4a836" d="M59.5 24.5l-12-4-3 6z"/><path fill="#070a02" d="M12.5 32.5l-28 4 18-14z"/><path fill="#bdc35d" d="M65.5 46.5l-16-1 23-7z"/><path fill="#61791e" d="M94.5 40.5l-28-5 23-3z"/><path fill="#2c3806" d="M107.5 44.5l-37-31h24z"/><path fill="#c7d62a" d="M28.5 44.5l43 21h-29z"/><path fill="#0066a2" d="M115.5 4.5l-26 1-13-13z"/><path fill="#516c09" d="M54.5 49.5l-12 16 34-22z"/><path fill="#776e5c" d="M51.5 37.5l-10 4 11 2z"/><path fill="#9ca5a9" d="M33.5 3.5l6 6-17 5z"/><path fill="#364205" d="M-15.5 57.5l13 8 20-24z"/><path fill="#598511" d="M75.5 25.5l13-1-8 8z"/><path fill="#4b5c10" d="M34.5 45.5l38 20-6-14z"/><path fill="#698091" d="M71.5 6.5l20 2-9 5z"/><path fill="#0c0e02" d="M84.5 17.5l29-22 2 17z"/><path fill="#f3c278" d="M47.5 17.5l10 7 4-9z"/><path fill="#46520d" d="M23.5 17.5l18 1 3 9z"/><path fill="#23282b" d="M72.5 10.5l-8-2-1 10z"/><path fill="#496d04" d="M16.5 21.5l-19-1 20-5z"/><path fill="#c3bdbc" d="M73.5 5.5l7-7-2 6z"/><path fill="#b7d907" d="M66.5 29.5l-10 4-12-3z"/><path fill="#476875" d="M66.5-.5l6 5 3-12z"/><path fill="#9ab124" d="M26.5 37.5l-10 14 3-15z"/><path fill="#5e7690" d="M43.5 4.5l21-20-39 16z"/><path fill="#707c10" d="M61.5 20.5l-6 8 16-9z"/><path fill="#394713" d="M64.5 65.5l45-21-24-1z"/><path fill="#607f16" d="M26.5 22.5l-14 10 11-1z"/><path fill="#8e8c90" d="M28.5 15.5l-4-8-16 1z"/><path fill="#b7c14b" d="M68.5 37.5l-15-1 13 5z"/><path fill="#004c82" d="M16.5.5l-9-13-23 16z"/><path fill="#a6a462" d="M73.5 46.5l3 13-12-10z"/><path fill="#7e9b1a" d="M40.5 26.5l-8-5-4 5z"/><path fill="#3c451d" d="M47.5 43.5l6-4 6 3z"/><path fill="#121b11" d="M34.5 27.5l-10 2 14 2z"/><path fill="#a2c017" d="M23.5 38.5l17-8-9 19z"/><path fill="#2c4500" d="M22.5 46.5l10 19h30z"/><path fill="#bcbd68" d="M40.5 43.5l-7-3 14-2z"/><path fill="#396a93" d="M78.5-14.5l16 24-42-25z"/><path fill="#c1aca4" d="M61.5 19.5l2-5-4-7z"/><path fill="#3e6a90" d="M17.5-15.5l17 22-45-16z"/><path fill="#343c0a" d="M8.5 37.5l-22-1 11 20z"/><path fill="#374e0f" d="M77.5 32.5l25-9-11 9z"/><path fill="#4d5619" d="M43.5 29.5l-6-10 10 9z"/><path fill="#273305" d="M25.5 16.5l-20-5-21 9z"/><path fill="#2b2f20" d="M62.5 15.5l11-7-2 10z"/><path fill="#2c340e" d="M-.5 30.5l21-3-6-6z"/><path fill="#5d7717" d="M10.5 15.5h9l1 7z"/><path fill="#f6ece0" d="M42.5 7.5l19 7-21 1z"/><path fill="#829611" d="M82.5 46.5l-14-10 9 17z"/><path fill="#828400" d="M45.5 43.5l5-2h-8z"/><path fill="#e0d7a6" d="M24.5 14.5l7 2h-6z"/><path fill="#b6b561" d="M48.5 64.5l-12-16 60 7z"/><path fill="#494c6c" d="M-15.5-9.5l22 20-16 1z"/><path fill="#96b0be" d="M23.5 9.5h14l-14-5z"/><path fill="#a8c61c" d="M61.5 35.5l13 7-1-7z"/><path fill="#628099" d="M59.5 2.5l-7 3 13-1z"/><path fill="#6f9f14" d="M83.5 30.5l-2-6-16 5z"/><path fill="#789132" d="M61.5 34.5l25 6-12-7z"/><path fill="#93ad00" d="M32.5 45.5h9l-7-3z"/><path fill="#f9d398" d="M51.5 20.5h-7l-5-7z"/><path fill="#6f7c1e" d="M21.5 45.5l-19-9 22 22z"/><path fill="#406000" d="M77.5 34.5l1 3 5-2z"/><path fill="#0f0f00" d="M-15.5 15.5l26-1-26-9z"/><path fill="#b4bec5" d="M61.5 2.5l10 2-10-8z"/></g></svg>