<svg xmlns="http://www.w3.org/2000/svg" viewBox="0 0 2000 1001"><path fill="#687a3c" d="M0 0h2000v1000H0z"/><g fill-opacity=".5"><path fill="#f8e4ff" d="M1394.5-19.5l-1289 164 1054.7 351.6z"/><path fill="#031300" d="M2121 1097.7l-898.3-867.2L2121 128.9z"/><path fill="#000500" d="M-50.8 199.2l31.3 921.9L511.7 293z"/><path fill="#c2cb10" d="M230.5 972.7l1461-62.5L1128.8 293z"/><path fill="#4a7ac9" d="M394.5 11.7l1726.6-125-414 382.8z"/><path fill="#1259bc" d="M738.3 113.3l-664-234.4-195.4 359.4z"/><path fill="#ffeec1" d="M683.6 97.7l586 132.8-281.3 304.7z"/><path fill="#4a6200" d="M949.2 371l-875 750 125-804.6z"/><path fill="#5d8400" d="M2105.5 1121l-976.6-601.5 414-211z"/><path fill="#0053a9" d="M2121 11.7L1839.9 207 1418-121z"/><path fill="#0f105b" d="M1199.2 847.7l-86-93.8L832 855.5z"/><path fill="#e8ccb4" d="M1550.8 35.2l78.1 109.3-461 7.8z"/><path fill="#ffa746" d="M1261.7 316.4l-250 257.8L824.2 332z"/><path fill="#a1c21b" d="M730.5 1058.6L175.8 699.2l1046.9-132.8z"/><path fill="#141a00" d="M2082 175.8l-828 164 867 250z"/><path fill="#353a01" d="M589.8 660.2l562.5-125L35.2 464.8z"/><path fill="#212308" d="M1511.7 136.7l-273.4 382.8 31.2-320.3z"/><path fill="#f5d0a9" d="M433.6 269.5l140.6 93.8 359.4-125z"/><path fill="#0b1300" d="M324.2 652.3l-289-460.9-156.3 531.3z"/><path fill="#9ad10b" d="M1566.4 683.6l-578.1-46.9 640.6-164z"/><path fill="#768797" d="M480.5 285.2L1097.7-43-121.1 160.2z"/><path fill="#293800" d="M2121 957l-640.5 164 211-257.7z"/><path fill="#fffcfb" d="M1230.5 285.2L949.2 136.7l-125 179.7z"/><path fill="#54690a" d="M74.2 691.4l-15.6 421.9 836 7.8z"/><path fill="#46550b" d="M1761.7 425.8L1004 597.7l351.6-273.5z"/><path fill="#b2a27c" d="M1082 738.3l-390.6 70.3 164 93.7z"/><path fill="#668409" d="M910.2 574.2L441.4 339.8-11.7 418z"/><path fill="#9b9d8d" d="M1488.3 254l203.1 7.7L1832 152.3z"/><path fill="#c7c959" d="M1488.3 746L918 933.7l406.2-15.6z"/><path d="M1714.8 254l359.4 54.6-62.5-195.3z"/><path fill="#ffa42f" d="M886.7 433.6l382.8-31.3-304.7 156.3z"/><path fill="#0f5e8e" d="M1277.3 113.3L1129-50.7l-203.1 39z"/><path fill="#708d09" d="M1605.5 1089.8l86-226.5L793 964.8z"/><path fill="#004988" d="M-121 121l7.7-226.5 711 86z"/><path fill="#3d4306" d="M918 566.4l-70.3-195.3L496 347.7z"/><path fill="#000004" d="M519.5 636.7L754 589.8l-265.6-23.4z"/><path fill="#c1df07" d="M738.3 550.8l117.2 132.8 203-46.9z"/><path fill="#006093" d="M2121 89.8L1918-121l-312.5 304.7z"/><path fill="#d0c7b4" d="M1410.2 43L1168-19.5l211 148.4z"/><path fill="#6f9410" d="M152.3 824.2L543 957l-70.3-461z"/><path fill="#3c5511" d="M1035.2 1050.8L714.8 941.4l625 23.4z"/><path fill="#bfa663" d="M1316.4 996l23.4 125 257.9-234.3z"/><path fill="#e9c781" d="M1191.4 488.3l54.7-164-554.7-23.5z"/><path fill="#161a03" d="M464.8 449.2l-585.9-7.8v336z"/><path fill="#b1bcc2" d="M1097.7 82L699.2 277.3 433.6 136.7z"/><path fill="#181f16" d="M1464.8 160.2l78.2 195.3-273.5-164z"/><path fill="#101700" d="M-58.6 207l500 70.3L-43 339.8z"/><path fill="#577116" d="M1582 449.2l-23.4 273.5L2121 918z"/><path fill="#c6d143" d="M668 816.4L886.7 957l336-15.6z"/><path fill="#282e3f" d="M1011.7 879l195.3-70.4-195.3-46.9z"/><path fill="#dbc2a6" d="M1214.8 777.3h140.7l39 62.5z"/><path fill="#7b870b" d="M1246 394.5h140.7L1089.8 543z"/><path fill="#67808a" d="M1918 160.2l-359.4 109.3-93.8-132.8z"/><path fill="#283a14" d="M58.6 1121l304.7-320.2-484.4 289z"/><path fill="#192905" d="M2105.5 691.4l-468.8-54.7 414-78.1z"/><path fill="#ffb300" d="M894.5 496l62.5-85.8 164 39z"/><path fill="#9d9f91" d="M1230.5 207L793 66.4l742.2 31.3z"/><path fill="#a2c115" d="M410.2 769.5L894.5 629l-234.3 390.6z"/><path fill="#7e9614" d="M980.5 550.8L496 418l140.6 132.8z"/><path fill="#4f651a" d="M769.5 972.7l101.6-31.3-250-46.9z"/><path fill="#322d0a" d="M855.5 550.8l-39 46.9L996 582z"/><path fill="#a0c024" d="M1449.2 832l-265.6-109.3 539 46.8z"/><path fill="#f3ede8" d="M1035.2 316.4l164-78.1-500-132.8z"/><path fill="#e3d9c9" d="M1543 74.2l23.4 70.3-101.6-7.8z"/><path fill="#ceb4a6" d="M1386.7 855.5l-39-62.5-93.8 117.2z"/><path fill="#b89c9e" d="M1613.3 855.5l-31.3 31.2-109.3-117.2z"/><path fill="#4b7795" d="M519.5-121l250 328L300.8-4z"/><path fill="#c56d9c" d="M1152.3 457l-62.5 70.3-101.5 7.9z"/><path fill="#7b7f82" d="M347.7 113.3L457 261.7 19.5 207z"/><path fill="#c2bd3a" d="M597.7 933.6l523.4 101.6-281.3 62.5z"/><path fill="#d7b887" d="M504 238.3l39 101.5 265.6-7.8z"/><path fill="#466683" d="M1191.4-113.3l242.2 218.8 195.3-226.6z"/><path fill="#162408" d="M746 629H433.7l289-93.8z"/><path fill="#96ac00" d="M1144.5 910.2L1285.2 793l62.5 39z"/><path fill="#ceb0bc" d="M816.4 808.6l-46.9 46.9 93.8 46.8z"/><path fill="#566b2e" d="M957 800.8l-117.2 54.7 297 15.6z"/><path fill="#4b7714" d="M1394.5 722.7l-273.4-23.5 140.6-31.2z"/><path fill="#476a11" d="M433.6 910.2L543 816.4 464.8 1082z"/><path fill="#f5d79b" d="M589.8 855.5l39.1 7.8 54.7-54.7z"/><path fill="#986b17" d="M847.7 449.2l296.8 156.3-218.7-39z"/><path fill="#ffe696" d="M941.4 425.8l-132.8-86 328.1 62.5z"/><path fill="#385107" d="M1816.4 668l-242.2-211h546.9z"/><path fill="#628a18" d="M511.7 738.3l171.9-86-461-70.3z"/><path fill="#53710c" d="M183.6 793l250-156.3-468.8 101.6z"/><path fill="#accb26" d="M988.3 699.2l343.7 31.3-132.8 78z"/><path fill="#3a4b0b" d="M394.5 589.8L-35.2 285.2l586 195.3z"/><path fill="#a9c613" d="M1152.3 574.2l437.5 93.8-421.8 23.4z"/><path fill="#cde107" d="M800.8 589.8L918 644.5l156.2-39z"/><path fill="#769414" d="M1418 847.7l226.5 273.4L1543 808.6z"/><path fill="#7c960f" d="M261.7 394.5l367.2 86L449.2 371z"/><path fill="#6aa014" d="M1308.6 605.5l343.7 15.6 15.7-125z"/><path fill="#a29d39" d="M339.8 863.3l23.5 148.4 101.5-195.3z"/><path fill="#59701e" d="M1879 824.2l-508-125 351.7-15.6z"/><path fill="#5e4e20" d="M1230.5 496l-179.7 23.5 31.2 78.2z"/><path fill="#3b6e94" d="M183.6 168L589.8 50.8 66.4 43z"/><path fill="#87807c" d="M1214.8 769.5l-85.9 31.3-62.5-39z"/><path fill="#768391" d="M1613.3 121L1746-121 1550.8 19.4z"/><path fill="#929084" d="M1621 269.5L1504 168v70.3z"/><path fill="#3d6c87" d="M1871 183.6l-398.3-289L1707 191.3z"/><path fill="#005586" d="M379 66.4l-500-31.2 351.5-86z"/></g></svg>