<svg xmlns="http://www.w3.org/2000/svg" viewBox="0 0 400 200"><path fill="#697a3c" d="M0 0h400v200H0z"/><ellipse fill="#fee9ff" fill-opacity=".5" rx="1" ry="1" transform="matrix(-5.5962 37.95265 -81.54094 -12.02338 173.5 42.4)"/><ellipse fill="#081900" fill-opacity=".5" rx="1" ry="1" transform="matrix(13.95091 -49.96654 151.84966 42.39719 399 99.4)"/><ellipse fill="#112100" fill-opacity=".5" rx="1" ry="1" transform="rotate(-175.1 11.5 46.9) scale(132.98692 48.00974)"/><ellipse fill="#487cd3" fill-opacity=".5" rx="1" ry="1" transform="matrix(-.272 -34.67383 391.39215 -3.07024 189.7 5.4)"/><ellipse fill="#b4c30e" fill-opacity=".5" rx="1" ry="1" transform="rotate(-118.7 158.7 23.5) scale(90.17078 117.57428)"/><ellipse fill="#ffe5b1" fill-opacity=".5" rx="1" ry="1" transform="matrix(-19.3169 28.74658 -45.00014 -30.23884 201.4 55.9)"/><ellipse fill="#172200" fill-opacity=".5" rx="1" ry="1" transform="matrix(-14.23857 121.20717 -51.15777 -6.00966 .9 164.4)"/><ellipse fill="#213200" fill-opacity=".5" rx="1" ry="1" transform="matrix(40.87323 13.99404 -49.9015 145.75033 396 111.4)"/><ellipse fill="#6d8900" fill-opacity=".5" rx="1" ry="1" transform="matrix(-72.82904 62.51446 -23.42407 -27.28893 97.4 134.9)"/><ellipse fill="#a9a4ab" fill-opacity=".5" rx="1" ry="1" transform="matrix(-7.24452 17.23404 -51.55847 -21.67318 293.6 27.1)"/><ellipse fill="#00589e" fill-opacity=".5" rx="1" ry="1" transform="matrix(-51.871 40.99733 -17.61101 -22.28196 380 .8)"/><ellipse fill="#5d8708" fill-opacity=".5" rx="1" ry="1" transform="matrix(64.25628 44.60073 -18.0972 26.07265 311.7 124.8)"/><ellipse fill="#1c5684" fill-opacity=".5" rx="1" ry="1" transform="matrix(1.22831 16.33602 -195.20297 14.67738 68 6)"/><ellipse fill="#b9b0a7" fill-opacity=".5" rx="1" ry="1" transform="rotate(-157.4 59 12.3) scale(37.30762 22.80385)"/><ellipse fill="#b0d117" fill-opacity=".5" rx="1" ry="1" transform="matrix(78.90734 -23.97388 6.111 20.1137 148 150.5)"/><ellipse fill="#191953" fill-opacity=".5" rx="1" ry="1" transform="rotate(177.8 107.2 84.8) scale(26.52896 9.68294)"/><ellipse fill="#ffb354" fill-opacity=".5" rx="1" ry="1" transform="rotate(171.6 101 50) scale(27.18111 22.71318)"/><ellipse fill="#02030a" fill-opacity=".5" rx="1" ry="1" transform="rotate(1 -7025.8 7586.7) scale(26.83854 10.10164)"/><ellipse fill="#fbf5f7" fill-opacity=".5" rx="1" ry="1" transform="matrix(-40.18894 -3.79897 1.47975 -15.65407 198.6 50.4)"/><ellipse fill="#101400" fill-opacity=".5" rx="1" ry="1" transform="matrix(-63.49549 28.29752 -9.93238 -22.28681 376.4 61.6)"/><ellipse fill="#363407" fill-opacity=".5" rx="1" ry="1" transform="matrix(30.68195 25.12134 -6.62431 8.0906 158.4 94.6)"/><ellipse fill="#171910" fill-opacity=".5" rx="1" ry="1" transform="matrix(-18.5886 16.91433 -13.66665 -15.01945 277.4 54.7)"/><ellipse fill="#264613" fill-opacity=".5" rx="1" ry="1" transform="rotate(177 105.2 102.4) scale(51.19804 7.91235)"/><ellipse fill="#8785a5" fill-opacity=".5" rx="1" ry="1" transform="matrix(-60.6485 -4.98621 .62448 -7.59572 59.2 43.4)"/><ellipse fill="#87939a" fill-opacity=".5" rx="1" ry="1" transform="matrix(-71.06164 -22.8154 4.8402 -15.07546 192.2 14.1)"/></svg>