<svg xmlns="http://www.w3.org/2000/svg" viewBox="0 0 400 200"><path fill="#697a3c" d="M0 0h400v200H0z"/><path fill="#e5daff" fill-opacity=".5" d="M108.7-96.8l172.8 49.5-41.8 145.7L67 48.9z"/><path fill="#000900" fill-opacity=".5" d="M416.2 10.3l78 140.7-112 62.2-78-140.8z"/><path fill="#030f00" fill-opacity=".5" d="M86.8 63L38.1 213l-123.4-40 48.8-150.1z"/><path fill="#b7d50b" fill-opacity=".5" d="M320.5 178l-229 32.3L81.1 136l229-32.2z"/><path fill="#1b5bae" fill-opacity=".5" d="M-56.9-3.2l290.2-46 9.5 60.2-290.1 46z"/><path fill="#296fdb" fill-opacity=".5" d="M279.3-4l145.9-56 25.2 65.6-145.9 56z"/><path fill="#ffea8f" fill-opacity=".5" d="M233 28.8L249.4 94l-65.2 16.3L168 45z"/><path fill="#0b1100" fill-opacity=".5" d="M311 103.3l-63.7-25.8 18.2-44.9 63.7 25.8z"/><path fill="#2e3a00" fill-opacity=".5" d="M-3.3 97.2L176.2 72l6.8 48L3.5 145.2z"/><path fill="#cec0cc" fill-opacity=".5" d="M323.7 7.7l-.5 25-73.4-1.3.4-25z"/><path fill="#fdf2fa" fill-opacity=".5" d="M234.5 68.7l-90-11 3.8-31 90 11z"/><path fill="#6e8d01" fill-opacity=".5" d="M101.7 123.6l18.9 75.8L31 221.7 12.2 146z"/><path fill="#567900" fill-opacity=".5" d="M265.7 91l41.7-30.3L414 207.4l-41.7 30.3z"/><path fill="#0d0067" fill-opacity=".5" d="M234.7 155.4l-.6 17.2-42.2-1.5.6-17.1z"/><path fill="#ffa32b" fill-opacity=".5" d="M245.7 92l-45.9 29.8-22-34.1 45.8-29.8z"/><path fill="#005495" fill-opacity=".5" d="M466.3 18.9l-129 13.5-5.2-49.7 129-13.6z"/><path fill="#0c1200" fill-opacity=".5" d="M458.4 59.6l-126.3 41-14-43 126.3-41z"/><path fill="#828ea0" fill-opacity=".5" d="M111.8 24.4l-4 32.6-90-11 4-32.6z"/><path fill="#f2cc9f" fill-opacity=".5" d="M102.5 48.2l48.4-2.6 1.2 23.4-48.3 2.6z"/><path fill="#5a7300" fill-opacity=".5" d="M161 103.2L50.5 93.5 53 64l110.5 9.6z"/><path fill-opacity=".5" d="M-36.6 141.2l-1.7-50 76.5-2.7 1.7 50z"/><path fill="#b6cd24" fill-opacity=".5" d="M156.2 107.2l40.1 24.2-32.1 53.6-40.2-24.2z"/><path fill="#115386" fill-opacity=".5" d="M-29.1-11.7l161.6-17 4.4 42-161.6 17z"/><path fill="#6d8aab" fill-opacity=".5" d="M205.2 18.2l77.9-28.3 10.1 27.9L215.4 46z"/><path fill="#526d00" fill-opacity=".5" d="M260.9 69.8L280.4 90l-30.3 29.3-19.6-20.2z"/></svg>