<svg xmlns="http://www.w3.org/2000/svg" viewBox="0 0 400 200"><path fill="#697a3c" d="M0 0h400v200H0z"/><g fill-opacity=".5"><path fill="#e8d8fb" d="M424.2-21L18.6 29.8 232 105.2l19-63.3z"/><path fill="#000b00" d="M240 28.7L325.2 59l94.7-45.1-1.8 210.3z"/><path fill="#000700" d="M90.5 56.7l-114.7-17 13.9 184.5 102-130.4z"/><path fill="#beca0d" d="M71.6 172.6l55.8 30.6 221.8-27.7L223.4 62z"/><path fill="#316fc1" d="M424.2-12l-34.4 47.5L-2 29.9l-4.2-54.1z"/><path fill="#ffe5bd" d="M237.5 95.4l-97.3-27.9 1.7-46.8 118.6 3.8z"/><path fill="#4b6200" d="M180.4 74.7l-3.2 33.8L2.8 218.8 43.7 61.7z"/><path fill="#527400" d="M377 110.7l-116-51-29.5 39.9L392 224.2z"/><path fill="#1c1d5b" d="M245.4 173.5l-72.3-2 37.3-18 19.5 3.6z"/><path fill="#0d5ea4" d="M424.2 15.7l-65-40-59 77 57-10z"/><path fill="#ffae55" d="M239.5 90.1l14.6-28-96.8 3.4 44 47.4z"/><path fill="#9ac90e" d="M315.1 137.7L163 157.8l-171.4 4.4L330 97.6z"/><path fill="#cdb99c" d="M305 10.6L234.4-.3l42.2 34.8 57-6.6z"/><path fill="#fdecd8" d="M122.1 74l72.6-40.7L255 68.6 89.7 60.4z"/><path fill="#020200" d="M72.4 96l-25.5 40.8-71.1 9.2V87z"/><path fill="#181f00" d="M419.4 122l1.5-109.3L354.4 48 243 67.4z"/><path fill="#326093" d="M-24.2-.6l2.5 41.4L83.7 53l15.7-77.3z"/><path d="M151.3 110.8l-1 15.2-51.8 2.2-2.8-13.1z"/><path fill="#caca5d" d="M275.3 176.6l-25.7 10.1-77.2-.2L286 159.1z"/><path fill="#4c4d0e" d="M216.2 121l-64.9-3 51.5-11L376 76.2z"/><path fill="#191a1e" d="M254.5 42.8L294 30.5 304.2 56l-55.4 28z"/><path fill="#313f00" d="M424.2 197.3l-81-24.2-27.3 30.5 74.5 3.2z"/><path fill="#8d9398" d="M132.7-10.9l15.1 29.4L255 44.8l9.5-14z"/><path fill="#c8cb58" d="M211.4 144.2L168 172.7l38 18.2-98.1-18.5z"/><path fill="#0d5980" d="M286.9 21.9l-24.2-30 161.5 40-78-56.1z"/></g></svg>