<svg xmlns="http://www.w3.org/2000/svg" viewBox="0 0 16 8"><path fill="#6d7a41" d="M0 0h16v8H0z"/><g fill-opacity=".5"><path fill="#d9d9e7" d="M9.5 3.5l4-19-23 8z"/><path fill="#001000" d="M12.5 2.5l19 18v-25z"/><path fill="#001d00" d="M4.5 3.5l-18 11-2-24z"/><path fill="#c0bf25" d="M9.5 2.5l13 17-38 4z"/><path fill="#4656ac" d="M.5-.5l26-6-6 8z"/><path fill="#5672e6" d="M2.5.5l-10 3 4-3z"/><path fill="#4f6100" d="M10.5 2.5l13 15 8-7z"/><path fill="#cccdaf" d="M31.5-15.5l-23 18-6-11z"/><path fill="#485800" d="M6.5 3.5l-15-2-7 16z"/><path fill="#5e636b" d="M1.5.5l9-13 15 10z"/><path fill="#001000" d="M1.5 3.5l-13 9 4-16z"/><path fill="#969d30" d="M2.5 5.5l9-2 13 20z"/><path fill="#112d00" d="M11.5 1.5h10l3 6z"/><path fill="#a1a7ba" d="M4.5 2.5v-5l3-2z"/><path fill="#475b90" d="M9.5 1.5l16-11 6 7z"/><path fill="#40597f" d="M-11.5 5.5l4-21 39 5z"/><path fill="#bec253" d="M6.5 5.5v6l-4 3z"/><path fill="#757c16" d="M8.5 13.5l-24-3 24-4z"/><path fill="#aeb851" d="M10.5 6.5l1-2v2z"/><path fill="#163008" d="M15.5 2.5l16-18-14 30z"/><path fill="#dce2a0" d="M4.5 2.5h4l-1-2z"/><path fill="#808eb0" d="M14.5 1.5l-10-17-3 6z"/><path fill="#6d7797" d="M.5 1.5l14-4 8-13z"/><path fill="#1f3a79" d="M29.5 4.5l-14-20-1 16z"/><path fill="#5c6811" d="M6.5 4.5h-2l-1-2z"/><path fill="#aaaa3d" d="M9.5 3.5l-8 20-3-8z"/><path fill="#505f17" d="M12.5 7.5l13-4-6 20z"/><path fill="#898c14" d="M11.5 3.5l-3 1-2-1z"/><path fill="#818e33" d="M13.5 6.5l-26 9 12 6z"/><path fill="#344700" d="M13.5 3.5l17 3 1 13z"/><path fill="#193900" d="M1.5 2.5l-12-3-3 24z"/><path fill="#93a246" d="M4.5 1.5v1l1-1z"/><path fill="#485300" d="M5.5 4.5h-3l3-1z"/><path fill="#ffff89" d="M7.5 1.5l1 1 1-1z"/><path fill="#3f440a" d="M10.5 3.5h1v-2z"/><path fill="#9fad41" d="M3.5 5.5l18 18-4-10z"/><path fill="#506284" d="M9.5 1.5l7-4 3 2z"/><path fill="#0b2000" d="M2.5 4.5h-18v-6z"/><path fill="#001452" d="M15.5 1.5l8-6 1-11z"/><path fill="#869439" d="M12.5 4.5l1 7-6 5z"/><path fill="#8a8879" d="M7.5.5l-10-16 20 12z"/><path fill="#374804" d="M1.5 5.5l-14-2 22 11z"/><path fill="#8191b4" d="M13.5 1.5l-8-17 7 3z"/><path fill="#001600" d="M14.5 2.5l16-2-11-6z"/><path fill="#4b6585" d="M.5 1.5l11-17 15 3z"/><path fill="#203d00" d="M2.5 1.5l-18 12 4-12z"/><path fill="#384f0f" d="M13.5 2.5l16 1-8 2z"/><path fill="#83801c" d="M9.5 5.5l-2 13-10 5z"/><path fill="#5d6d31" d="M3.5 6.5l-11-6 1 4z"/><path fill="#718418" d="M4.5 5.5l-2 16-5-7z"/><path fill="#254262" d="M10.5-9.5l-26 12v14z"/><path fill="#acad55" d="M10.5 6.5l-16 17h8z"/><path fill="#8f901c" d="M6.5 3.5v-1l1 2z"/><path fill="#7f9138" d="M3.5 5.5l4 11-3 6z"/><path fill="#6b6e6a" d="M11.5 1.5l-9-9 4-1z"/><path fill="#344700" d="M2.5 4.5l-8 12 2-9z"/><path fill="#8e9926" d="M5.5 7.5l-6 11 20 2z"/><path fill="#001400" d="M-14.5 5.5l16-1-11 5z"/><path fill="#888a87" d="M-11.5-6.5l33-9-12 16z"/><path fill="#6d6c79" d="M4.5.5l13-16-9 2z"/><path fill="#586a19" d="M13.5 4.5l1 2h2z"/><path fill="#a7aad8" d="M6.5.5l-3 1 5-4z"/><path fill="#646a72" d="M5.5.5l2-10 6-6z"/><path fill="#314300" d="M15.5 4.5l8-3 8 22z"/><path fill="#566634" d="M14.5 6.5l3 17 1-11z"/><path fill="#435214" d="M6.5 14.5l11-10 11 7z"/><path fill="#b7bb51" d="M5.5 6.5l18 17-5-10z"/><path fill="#4e693e" d="M3.5 2.5h-1l2 1z"/><path fill="#9b9733" d="M-13.5 23.5l20-16v8z"/><path fill="#576401" d="M9.5 23.5l4-16-7 5z"/><path fill="#79781f" d="M8.5 6.5v11l13 4z"/><path fill="#8f8e2f" d="M-11.5 19.5l21-13-7 15z"/><path fill="#708221" d="M.5 12.5l2-7 1 2z"/><path fill="#1e3400" d="M-1.5 21.5l1-17-13-3z"/><path fill="#314b79" d="M14.5 1.5l1-13 6-4z"/><path fill="#717509" d="M6.5 3.5l-1 1h2z"/><path fill="#b7bd52" d="M7.5 5.5l-1 1-2-1z"/><path fill="#a2a13b" d="M7.5 6.5l-1 17h-6z"/><path fill="#7b7f76" d="M8.5.5l5-16-5 5z"/><path fill="#68783a" d="M14.5 6.5l17 8-2-7z"/><path fill="#69793a" d="M1.5 6.5l-14 5-1-4z"/><path fill="#4c5b1c" d="M.5 6.5l-9 4-7-2z"/><path fill="#203f1d" d="M24.5-15.5l-3 36-5-18z"/><path fill="#98a1b8" d="M10.5.5l11-15-8-1z"/><path fill="#4e5e22" d="M1.5 7.5l20 10-24-1z"/><path fill="#9ca239" d="M11.5 4.5l1 6-2 1z"/><path fill="#86933c" d="M12.5 6.5l-1 10-14 7z"/><path fill="#687517" d="M2.5 7.5l1 11-14-4z"/><path fill="#5d698e" d="M3.5.5l-1-11-10-5z"/><path fill="#485c82" d="M13.5.5l13-9-8 1z"/><path fill="#2b4715" d="M1.5 2.5l-17 3 7 2z"/><path fill="#8b93ae" d="M25.5-15.5l-23 17 17-6z"/><path fill="#818280" d="M4.5.5l13-15 14 8z"/><path fill="#a3a536" d="M8.5 4.5l-8 17 6-3z"/><path fill="#727a9b" d="M6.5.5l-12-12 7-4z"/><path fill="#8b8c26" d="M7.5 7.5l12 8-18-5z"/><path fill="#396136" d="M1.5 3.5l-14 7-3-4z"/><path fill="#0b2900" d="M14.5 1.5l17 5-2-5z"/><path fill="#7b7b1b" d="M8.5 6.5l2 17 4-5z"/><path fill="#8495b7" d="M13.5.5l-1-14-13-2z"/></g></svg>