<svg xmlns="http://www.w3.org/2000/svg" viewBox="0 0 400 200"><path fill="#697a3c" d="M0 0h400v200H0z"/><g transform="translate(.8 .8) scale(1.5625)" fill-opacity=".5"><ellipse fill="#ffedff" rx="1" ry="1" transform="rotate(14.3 -51.9 483.1) scale(47.14554 26.79656)"/><ellipse fill="#081900" rx="1" ry="1" transform="matrix(-79.25424 -33.9716 11.83678 -27.61468 239.5 64)"/><ellipse fill="#000500" rx="1" ry="1" transform="matrix(30.66767 20.5713 -31.85603 47.49092 0 79.6)"/><path fill="#4d7ed6" d="M-.3-20.5l254.8-9 1.8 50-254.8 9z"/><ellipse fill="#aabd0a" rx="1" ry="1" transform="matrix(-15.90304 -45.57665 83.09896 -28.9957 129 106)"/><ellipse fill="#3b4b00" cx="79" cy="64" rx="40" ry="21"/><ellipse fill="#ffe2a0" rx="1" ry="1" transform="matrix(22.24525 19.3375 -14.94678 17.1943 130.3 41.2)"/><ellipse fill="#000300" rx="1" ry="1" transform="rotate(81.2 103.2 169.3) scale(24.82449 34.27339)"/><path fill="#d9cbc5" d="M176 13L27 21l52 24z"/><ellipse fill="#1c68a5" rx="1" ry="1" transform="matrix(-8.6694 -12.80466 50.20331 -33.9902 245.3 .2)"/><ellipse fill="#374d00" rx="1" ry="1" transform="matrix(-10.93337 -66.29363 25.58315 -4.21926 231.1 99.8)"/><path fill="#dac6b9" d="M167 20L150-5l66 20z"/><ellipse fill="#678a00" rx="1" ry="1" transform="rotate(-152.2 35.2 49.7) scale(25.29572 38.06291)"/><ellipse fill="#185483" rx="1" ry="1" transform="matrix(113.29211 -3.71737 .40514 12.34709 34.8 .7)"/><path fill="#b8d817" d="M176 77l-82-1-32 46z"/><ellipse fill="#263400" cx="4" cy="56" rx="63" ry="29"/><path fill="#08045a" d="M149.3 111.4l-23-.8.4-12 23 .8z"/><path fill="#334107" d="M140.8 68.7l-4.5 6.9 54.6-11.5-3.2-44.7z"/><path fill="#fba236" d="M101 40l24 32 35-28z"/><ellipse fill="#fffbff" cx="128" cy="32" rx="25" ry="9"/><ellipse fill="#8a9396" cx="206" cy="23" rx="18" ry="12"/><path d="M64 73h32v8H64z"/><path fill="#cfcf55" d="M134.3 121l39.3-4.5 12.8-19.6-67.7 21.8z"/><path fill="#005589" d="M212.5 22.3l-3.3-20.7 62.3-9.9 3.3 20.7z"/><path fill="#294b0f" d="M154.4 143l22.5-27.8-27.7 7.7-45.4.3z"/></g></svg>