<svg xmlns="http://www.w3.org/2000/svg" viewBox="0 0 400 200"><path fill="#697a3c" d="M0 0h400v200H0z"/><g fill-opacity=".5"><path fill="#fbe6ff" d="M138.3 69.4l91.2 30.5L280.4-3 15.9 36.2z"/><path fill="#000c00" d="M413.3 224.2L242.7 29.8l86.1 27.7L424.2 12z"/><path fill="#010d00" d="M82.6 55.1l-89.5-13-7.6 178.4L116 73.1z"/><path fill="#bcc90d" d="M139.5 202.1l217.2-31.5L225.9 64 58 183.6z"/><path fill="#4078cf" d="M-24.2 35.2L374 39.3l50.2-37.2L-5.6-24.2z"/><path fill="#ffe1ae" d="M196.4 112.6l50.3-27.8 7.6-47-117-16.9z"/><path fill="#506700" d="M189 97.4L-1.5 224.2 58.6 68.3 166 71.7z"/><path fill="#527400" d="M259.1 53.5l149.6 109.8-29.2 59.8L237.4 99.4z"/><path fill="#d8c6b2" d="M286.8 32.7L73 76.4 311 4.8l12 27z"/><path fill="#181a57" d="M177 172.6l56 1.7 7.6-10.6-25.4-13z"/><path fill="#a0c815" d="M335.8 99.5l-219.6 89-79.8-49 86.4-8.3z"/><path fill="#00579c" d="M315.4 51.7l37.6-76h71.2L405 24.5z"/><path fill="#151800" d="M407.4 21.4l7 75-187.7-24.9L345 51.6z"/><path fill="#020200" d="M53.3 137.2L-15 141l-7.7-53 87 4.8z"/><path fill="#2f5c88" d="M86.5 53.8l-1.5-68-86 7 .7 49.7z"/><path fill="#fda03b" d="M176.4 96.4l26.8 20.1L255 69.1l-73.7-2.7z"/><path fill="#333306" d="M99.8 134.4l211.6-38-169.6 16.7L91 102.8z"/><path fill="#f5eadd" d="M168 27.8L105.2 72l136.2-13.3L225 41.5z"/><path fill="#252324" d="M299.2 42.6l-50 46.8 3.6-56 44.1-1.4z"/><path fill="#87b210" d="M334.6 99.6l-94.9 12.8 93.9 81.7-90.4 30.1z"/><path fill="#c3cb4d" d="M262.3 187.5l33.4-36.5-91.6 31.6.5 11.3z"/><path fill="#bebb5b" d="M112.4 169l74.2-17.6 19.5 36.7-32.2-3.3z"/><path fill="#3f5200" d="M-24.2 151.5L30 224.2l64.3-52.7 53 52.7z"/><path fill="#7982a1" d="M303.6 54l-7.4-20.6 62.5 3.7-17.2 16.6z"/><path fill="#759706" d="M103.6 89.7L2 84.5l107-15.3 80.2 65.8z"/></g></svg>