<svg xmlns="http://www.w3.org/2000/svg" viewBox="0 0 400 200"><path fill="#697a3c" d="M0 0h400v200H0z"/><g transform="translate(.8 .8) scale(1.5625)" fill-opacity=".5"><ellipse fill="#ede0ff" cx="119" cy="7" rx="49" ry="49"/><ellipse fill="#0c1e00" cx="255" cy="72" rx="56" ry="56"/><ellipse fill="#0b1a00" cy="77" rx="52" ry="52"/><ellipse fill="#aebe0c" cx="146" cy="127" rx="79" ry="79"/><ellipse fill="#4574cc" cx="49" rx="38" ry="38"/><ellipse fill="#2e70d7" cx="216" rx="34" ry="34"/><ellipse fill="#ffebae" cx="134" cy="42" rx="24" ry="24"/><ellipse fill="#0e1900" cx="181" cy="44" rx="24" ry="24"/><ellipse fill="#3b4900" cx="95" cy="63" rx="20" ry="20"/><ellipse fill="#88ac00" cx="52" cy="106" rx="31" ry="31"/><ellipse fill="#e0ccbf" cx="74" cy="29" rx="16" ry="16"/><ellipse fill="#b1abc3" cx="184" rx="23" ry="23"/><ellipse fill="#334300" cx="41" cy="61" rx="31" ry="31"/><ellipse fill="#121900" cx="245" cy="53" rx="32" ry="32"/><ellipse fill="#1453a3" cx="9" rx="28" ry="28"/><ellipse fill="#3c72a8" cx="135" rx="22" ry="22"/><ellipse fill="#0052a2" cx="237" rx="22" ry="22"/><ellipse fill="#fff6ed" cx="115" cy="29" rx="15" ry="15"/><ellipse fill="#587611" cx="219" cy="95" rx="34" ry="34"/><ellipse fill="#0c1300" cy="59" rx="32" ry="32"/><ellipse fill="#18165c" cx="135" cy="104" rx="9" ry="9"/><ellipse fill="#b7ce32" cx="107" cy="97" rx="22" ry="22"/><ellipse fill="#497191" cx="87" rx="23" ry="23"/><ellipse fill="#ffa438" cx="127" cy="54" rx="15" ry="15"/><ellipse fill="#000900" cx="74" cy="76" rx="9" ry="9"/></g></svg>