<svg xmlns="http://www.w3.org/2000/svg" viewBox="0 0 128 64"><path fill="#6b7a3f" d="M0 0h128v64H0z"/><g fill-opacity=".5"><path fill="#eee0ff" d="M74.5 28.5l-64-17 84-22z"/><path fill="#041000" d="M143.5 10.5l-62 3 59 63z"/><path fill="#203000" d="M57.5 27.5l-71 52 8-69z"/><path fill="#b4d110" d="M7.5 45.5l73 34 28-48z"/><path fill="#3b74cb" d="M-15.5 9.5l159-1-74-24z"/><path fill="#ffecb2" d="M81.5 11.5l-38-6 23 31z"/><path fill="#1060aa" d="M125.5-15.5l18 20-48 13z"/><path fill="#171d00" d="M-15.5 10.5l12 66 30-59z"/><path fill="#ffa92c" d="M56.5 21.5l24 1-17 18z"/><path fill="#a4a2a8" d="M66.5-5.5l37 23 14-8z"/><path fill="#506d01" d="M143.5 58.5l-30 12-33-54z"/><path fill="#325f95" d="M26.5 16.5l-42-6 43-26z"/><path fill="#090b00" d="M129.5 32.5l-27-12 41-21z"/><path fill="#1b0e57" d="M59.5 52.5l14-5 3 7z"/><path fill="#fbe5dc" d="M77.5 18.5l-20-11-28 14z"/><path fill="#697604" d="M27.5 37.5l46-1-59-18z"/><path fill="#354619" d="M73.5 68.5l-27-9h41z"/><path fill="#151411" d="M77.5 24.5l14-15 8 9z"/><path fill="#6e880b" d="M2.5 56.5l44 23-20-44z"/><path fill="#a9b732" d="M99.5 66.5l9-17-43-5z"/><path fill="#a9a39c" d="M77.5 13.5l25-9-59-1z"/><path fill="#b8c832" d="M33.5 56.5l18-22 14 24z"/><path fill="#010805" d="M30.5 39.5l7-6 13 6z"/><path fill="#1f5d8b" d="M-9.5 4.5l85-3-34-17z"/><path fill="#055b90" d="M104.5 13.5l39-14-34-15z"/><path fill="#344308" d="M143.5 30.5l-66 2 6-21z"/><path fill="#aed306" d="M29.5 51.5l51-13-31-1z"/><path fill="#c5c656" d="M91.5 49.5l-11 11h-23z"/><path fill="#020400" d="M-15.5 7.5l32 34-22 2z"/><path fill="#6b8290" d="M5.5 11.5l53-7 12-20z"/><path fill="#84be10" d="M96.5 44.5l8-14-29 5z"/><path fill="#607911" d="M32.5 20.5l20 17-49-12z"/><path fill="#384409" d="M143.5 64.5l-28-8-33 12z"/><path fill="#d4b372" d="M58.5 23.5l-30-5 18-4z"/><path fill="#c6bbb1" d="M78.5 8.5l22 1-1-7z"/><path fill="#f4c677" d="M79.5 22.5l-32-4 26 13z"/><path fill="#b1a17a" d="M49.5 58.5l17-10-16 2z"/><path fill="#f4f3f7" d="M62.5 18.5l16-2-29-9z"/><path fill="#62730a" d="M106.5 30.5l-45 6 23-12z"/><path fill="#526415" d="M-1.5 45.5l26 34-10-35z"/><path fill="#788c1b" d="M113.5 41.5l-11 27-18-9z"/><path fill="#a1a1a2" d="M57.5 9.5l-21 9-25-6z"/><path fill="#2f323c" d="M103.5 9.5l-21 14-2-12z"/><path fill="#262b09" d="M31.5 27.5l-7 10-21-10z"/><path fill="#1a2104" d="M1.5 23.5l-17-13 44 8z"/><path fill="#00487f" d="M20.5.5l-36 9 19-19z"/><path fill="#ffa200" d="M56.5 31.5l15-3-15-1z"/><path fill="#a1ba1d" d="M42.5 64.5l-23-18 33 1z"/><path fill="#3b394a" d="M76.5 49.5l-15 1 1 5z"/><path fill="#465e77" d="M77.5-12.5l30-3-16 22z"/><path fill="#29340a" d="M135.5 59.5l-4-40-37-3z"/><path fill="#9ea3a8" d="M95.5 9.5l2 7 6-14z"/><path fill="#316b8c" d="M23.5-15.5l59 23-20-23z"/><path fill="#4c4e07" d="M56.5 35.5l-3-13-10 1z"/><path fill="#253d02" d="M50.5 67.5l-22-8 9 20z"/><path fill="#7c991f" d="M21.5 37.5l1 27 10-27z"/><path fill="#5a6920" d="M119.5 42.5l17 13-43-10z"/><path fill="#849e21" d="M29.5 27.5l26 8-11-8z"/><path fill="#000100" d="M115.5 16.5l28-19v19z"/><path fill="#c6b997" d="M83.5 49.5l7 3-7 3z"/><path fill="#7f8688" d="M34.5 16.5l-10-10-33 5z"/><path fill="#a69e6d" d="M93.5 59.5l3 20h-60z"/><path fill="#577d1d" d="M113.5 30.5l-11 12-2-10z"/><path fill="#647881" d="M105.5 16.5l-9-7 21 1z"/><path fill="#a8acae" d="M77.5 17.5l11-14-8-4z"/><path fill="#b5bfc6" d="M30.5 9.5l18 9 13-11z"/><path fill="#b16330" d="M56.5 31.5l16 1-8 5z"/><path fill="#c1c385" d="M60.5 62.5h-13l11 16z"/><path fill="#222e0c" d="M37.5 34.5l8 6 4-3z"/><path fill="#556f0b" d="M94.5 56.5l-19 4 14 1z"/><path fill="#374609" d="M23.5 51.5l-38 20 12 8z"/><path fill="#a9cb11" d="M69.5 35.5l32 7-17 1z"/><path fill="#3d540b" d="M29.5 19.5l-30 9-15-8z"/><path fill="#66731a" d="M68.5 54.5l-15 1 5-4z"/><path fill="#a0a710" d="M79.5 55.5l7-3-10-3z"/><path fill="#b6bbbc" d="M65.5 2.5v8l-4-9z"/><path fill="#adb566" d="M92.5 47.5l5 6 8 1z"/><path fill="#e0bc7d" d="M79.5 20.5l-35-1 19 6z"/><path fill="#cac66e" d="M43.5 50.5h11l3 8z"/><path fill="#a4bf1a" d="M48.5 35.5l22 12h-18z"/><path fill="#151c16" d="M85.5 11.5l8-1-2 5z"/><path fill="#4e4108" d="M67.5 35.5l4 2v-4z"/><path fill="#7a9026" d="M11.5 49.5l17-2-19 9z"/><path fill="#7696a5" d="M47.5 9.5l-12-4-17 6z"/><path fill="#3e6a93" d="M22.5-7.5l20 14-19-2z"/><path fill="#5b7405" d="M34.5 52.5l-7 5 1 16z"/><path fill="#dcdee0" d="M54.5 13.5l16-2-25-4z"/><path fill="#737f0a" d="M43.5 59.5l-1-6 14 8z"/><path fill="#bdc84b" d="M61.5 54.5l12 6-17-2z"/><path fill="#ffd78a" d="M57.5 28.5l1-6 10 2z"/><path fill="#2b2a0a" d="M13.5 19.5l11-3 12 5z"/><path fill="#bbc130" d="M42.5 51.5l11 28-17-23z"/><path fill="#9c9223" d="M71.5 32.5l7-7h9z"/><path fill="#365209" d="M136.5 79.5l-34-14 7-11z"/><path fill="#e5c296" d="M31.5 19.5l7 2 9-4z"/><path fill="#536e14" d="M15.5 47.5l-15-1 24-6z"/><path fill="#bbcb55" d="M71.5 46.5l16 6-2-6z"/><path fill="#405d05" d="M62.5 60.5h23l-22 6z"/><path fill="#657f1b" d="M115.5 50.5l-28-6 25-3z"/><path fill="#00599e" d="M132.5 3.5l-16 2v-21z"/></g></svg>