<svg xmlns="http://www.w3.org/2000/svg" viewBox="0 0 400 200"><path fill="#697a3c" d="M0 0h400v200H0z"/><g transform="translate(.8 .8) scale(1.5625)" fill-opacity=".5"><path fill="#fff0ff" d="M74 36l22.2-52.5L168 14l-22.2 52.5z"/><ellipse fill="#000700" rx="1" ry="1" transform="matrix(-58.28555 -6.29068 4.08135 -37.81525 255 59.5)"/><path fill="#0a1700" d="M-57.1 108.5L-28 13l87 26.6L30 135z"/><ellipse fill="#4e7fd4" rx="1" ry="1" transform="matrix(-253.7599 7.81667 -.53033 -17.21655 95.4 9.6)"/><ellipse fill="#98ae03" rx="1" ry="1" transform="rotate(-10.8 622.1 -577.7) scale(109.0865 52.04406)"/><ellipse fill="#ffe4d0" cx="97" cy="30" rx="47" ry="15"/><ellipse fill="#0c1800" cx="181" cy="44" rx="21" ry="24"/><ellipse fill="#2b3b00" rx="1" ry="1" transform="rotate(178 21.8 32.7) scale(69.18457 20.90197)"/><ellipse fill="#1862a3" rx="1" ry="1" transform="matrix(-6.09792 -12.6678 48.5584 -23.37464 239.8 8.1)"/><ellipse fill="#263800" cx="246" cy="108" rx="36" ry="92"/><ellipse fill="#ffd89a" cx="133" cy="41" rx="26" ry="25"/><ellipse fill="#c0d72b" rx="1" ry="1" transform="matrix(7.23771 15.53711 -33.59644 15.65036 104.4 97.5)"/><path fill="#d9c4b4" d="M171.2 22.3l45.7-6.8-64.1-17 10.9 19.2z"/><ellipse fill="#004483" rx="1" ry="1" transform="rotate(-95.8 8.7 -5.1) scale(11.69406 62.61258)"/><path fill="#cbd64a" d="M153.9 118l-1.7-23.9 32-2.2 1.6 24z"/><ellipse fill="#181069" cx="136" cy="104" rx="15" ry="7"/><path fill="#ffab3c" d="M94 36l32 33 32-18z"/><path d="M25 56.5l1 32-29 1-1-32z"/><ellipse fill="#739108" rx="1" ry="1" transform="rotate(109.5 13 52) scale(7.73571 41.3841)"/><path fill="#808d99" d="M0 26L136-7 74 34z"/><path fill="#f4f8ff" d="M104 19.2l9.6 22.7 36.2-5.7 2-8z"/><path fill="#000407" d="M96 81l-33 3-1-11 33-3z"/><ellipse fill="#d5db4d" cx="136" cy="116" rx="35" ry="5"/><path fill="#b1da05" d="M116 77h81v10h-81z"/><ellipse fill="#451" rx="1" ry="1" transform="matrix(4.8309 -13.34519 39.55078 14.31718 38.7 121.6)"/></g></svg>