<svg xmlns="http://www.w3.org/2000/svg" viewBox="0 0 400 200"><path fill="#697a3c" d="M0 0h400v200H0z"/><g transform="translate(.8 .8) scale(1.5625)" fill-opacity=".5"><ellipse fill="#e6dcff" cx="119" rx="55" ry="55"/><ellipse fill="#0d2000" cx="255" cy="73" rx="57" ry="57"/><ellipse fill="#0b1a00" cy="77" rx="52" ry="52"/><ellipse fill="#b0bf0d" cx="145" cy="127" rx="78" ry="78"/><ellipse fill="#3e6ec6" cx="46" rx="38" ry="38"/><ellipse fill="#2e70d7" cx="216" rx="34" ry="34"/><ellipse fill="#ffe5ad" cx="132" cy="40" rx="26" ry="26"/><ellipse fill="#0f1900" cx="181" cy="43" rx="24" ry="24"/><ellipse fill="#89ae00" cx="52" cy="104" rx="29" ry="29"/><ellipse fill="#3b4900" cx="95" cy="63" rx="20" ry="20"/><ellipse fill="#324300" cx="41" cy="62" rx="31" ry="31"/><ellipse fill="#e4ccbd" cx="73" cy="30" rx="15" ry="15"/><ellipse fill="#141c00" cx="242" cy="54" rx="32" ry="32"/><ellipse fill="#6183ae" cx="156" rx="28" ry="28"/><ellipse fill="#0050a1" cx="238" rx="22" ry="22"/><ellipse fill="#d0bbac" cx="195" cy="14" rx="12" ry="12"/><ellipse fill="#618212" cx="213" cy="96" rx="35" ry="35"/><ellipse fill="#17549f" cx="8" rx="28" ry="28"/><ellipse fill="#0e1500" cx="2" cy="59" rx="32" ry="32"/><ellipse fill="#141355" cx="137" cy="104" rx="9" ry="9"/><ellipse fill="#fef0e7" cx="112" cy="29" rx="15" ry="15"/><ellipse fill="#436d8c" cx="85" rx="22" ry="22"/><ellipse fill="#b6cd32" cx="107" cy="97" rx="22" ry="22"/><ellipse fill="#ffa233" cx="127" cy="55" rx="15" ry="15"/><ellipse fill="#000b00" cx="75" cy="76" rx="9" ry="9"/></g></svg>