<svg xmlns="http://www.w3.org/2000/svg" viewBox="0 0 200 100"><path fill="#6b7a3f" d="M0 0h200v100H0z"/><g fill-opacity=".5"><path fill="#ffe8ff" d="M15.5 16.5l98 32 28-51z"/><path fill="#051300" d="M209.5 107.5l-8-92-78 8z"/><path fill="#000900" d="M.5 115.5l50-85-60-13z"/><path fill="#bec911" d="M115.5 32.5l63 62-155-2z"/><path fill="#4476ca" d="M176.5 27.5L43.5.5l172-12z"/><path fill="#1f5fc6" d="M81.5 9.5l-97-22 20 35z"/><path fill="#4d6500" d="M25.5 31.5l65 6-85 78z"/><path fill="#ffeec2" d="M96.5 53.5l-25-45 54 14z"/><path fill="#577601" d="M180.5 115.5l35-32-92-55z"/><path fill="#0a0e00" d="M215.5 50.5v-48l-65 35z"/><path fill="#0051a0" d="M215.5 10.5l-41-26-9 33z"/><path fill="#e7cab6" d="M116.5 15.5l48-1-9-11z"/><path fill="#121058" d="M115.5 75.5l2 11-30-3z"/><path fill="#a4c31e" d="M71.5 104.5l49-47-106 13z"/><path fill="#ffa347" d="M100.5 57.5l27-24-46-2z"/><path fill="#151c00" d="M-12.5 37.5l4 33 88-10z"/><path fill="#323b08" d="M142.5 14.5l-33 43 62-16z"/><path fill="#97cb0c" d="M162.5 68.5l3-21-77 16z"/><path fill="#678111" d="M1.5 82.5l53 33-5-68z"/><path fill="#fbe8e0" d="M89.5 14.5l36 14-77 5z"/><path fill="#818e9c" d="M100.5-3.5l-109 22 66 10z"/><path fill="#524a03" d="M81.5 57.5l34 2-68-28z"/><path fill="#19171e" d="M146.5 17.5l-19 2-3 23z"/><path fill="#2f3a0d" d="M169.5 85.5l-24 30 60-19z"/><path fill="#989b95" d="M147.5 18.5l29 2-18 7z"/><path fill="#c7c75e" d="M141.5 74.5l-50 20 44-5z"/><path fill="#004787" d="M-15.5 11.5l52-6-16-21z"/><path fill="#d2b07c" d="M38.5 19.5l53 15h-39z"/><path fill="#b59e90" d="M105.5 75.5l-26 14-2-11z"/><path fill="#f7d490" d="M125.5 28.5l-37 11 31 6z"/><path fill="#101700" d="M3.5 21.5l-14 21 45-16z"/><path fill="#4c6a00" d="M92.5 115.5l-13-19 62-4z"/><path fill="#135d8b" d="M64.5-15.5h42l20 27z"/><path fill="#ffa900" d="M90.5 50.5l4-10 16 5z"/><path fill="#444e0e" d="M67.5 67.5l22-27-23-7z"/><path fill="#728d0c" d="M77.5 51.5l-63-12 29-5z"/><path fill="#dbd1bf" d="M113.5-15.5l11 21 18 5z"/><path fill="#819224" d="M178.5 63.5l-20 52h-51z"/><path fill="#252f07" d="M214.5 5.5l-8 85-52-57z"/><path fill="#b0b9c2" d="M45.5 15.5l69-8-42 19z"/><path fill="#c8d14d" d="M117.5 94.5l-48-13 22 14z"/><path fill="#82aa19" d="M29.5 60.5l26 36-8-41z"/><path fill="#0a0b04" d="M5.5 44.5l-21 25 45-3z"/><path fill="#577515" d="M156.5 35.5l-30 3 65 48z"/><path fill="#b4c83f" d="M135.5 86.5l-38-17 59 6z"/><path fill="#34373d" d="M99.5 87.5l23-6-16-7z"/><path fill="#046294" d="M215.5 1.5l-42-9 11 27z"/><path fill="#f5f1f1" d="M69.5 10.5l37 21 9-10z"/><path fill="#32430e" d="M37.5 78.5l-53 34 28 3z"/><path fill="#7ca214" d="M85.5 55.5l-22-14-8 11z"/><path fill="#121904" d="M43.5 62.5l33-1-4-9z"/><path fill="#20251c" d="M147.5 16.5h-19l19 20z"/><path fill="#aecc11" d="M126.5 61.5l-47-2-42 26z"/><path fill="#cecd35" d="M59.5 93.5l47 9-18 13z"/><path fill="#365300" d="M45.5 90.5l32 18-39 7z"/><path fill="#a6a49d" d="M114.5 21.5l-39-19 68 12z"/><path fill="#de7c52" d="M101.5 57.5l18-12-30 6z"/><path fill="#c4af68" d="M148.5 93.5l-3 15-22-7z"/><path fill="#556a1a" d="M195.5 65.5l-61 5 49 9z"/><path fill="#4b391e" d="M105.5 51.5l12 1-7 7z"/><path fill="#6e7b85" d="M27.5 9.5l28 15-71-5z"/><path fill="#263816" d="M204.5 67.5l-23-9-25 5z"/><path fill="#d7b4b2" d="M139.5 84.5l-6-6-3 10z"/><path fill="#405208" d="M-15.5 37.5l37-8 43 27z"/><path fill="#536408" d="M89.5 94.5l-16 2-6-7z"/><path fill="#020309" d="M178.5 23.5l37-18-1 29z"/><path fill="#46530b" d="M23.5 68.5l-22 2 4 29z"/><path fill="#5a7680" d="M166.5 26.5l-21-11 46-3z"/><path fill="#4a4d16" d="M84.5 35.5l8 24-33-24z"/><path fill="#5a718b" d="M128.5-3.5l55-12-42 26z"/><path fill="#b4b17d" d="M143.5 76.5l14 5 3 7z"/><path fill="#3e6b92" d="M33.5 2.5l36 12-25-30z"/><path fill="#d3d53f" d="M53.5 89.5l31-10h-17z"/><path fill="#5e751a" d="M168.5 51.5l29 2-15 3z"/><path fill="#898f8c" d="M163.5 26.5l16-9-28 7z"/><path fill="#9fc316" d="M57.5 81.5l23-11-54 6z"/><path fill="#d6be95" d="M69.5 19.5l20 17-41-7z"/><path fill="#588610" d="M143.5 95.5l13-16-27 15z"/><path fill="#8f9313" d="M132.5 43.5l-19 7 11-11z"/><path fill="#d4cbc2" d="M159.5 11.5l-5-7-12 10z"/><path fill="#1f1f01" d="M52.5 33.5l-14-8-14 5z"/><path fill="#97a40f" d="M113.5 90.5l22-7-14-5z"/><path fill="#a48f71" d="M107.5 36.5l20-7-3 7z"/><path fill="#77a817" d="M143.5 65.5l-21-10 46 3z"/><path fill="#3e4711" d="M46.5 43.5l-5 15-32 2z"/><path fill="#d4bdaa" d="M86.5 89.5l-5-8-5 5z"/><path fill="#3d490d" d="M195.5 34.5l-41 12-23-12z"/><path fill="#5a7b24" d="M30.5 63.5l19 10 17-9z"/><path fill="#111214" d="M170.5 26.5l-29 3 18 5z"/><path fill="#6c6e57" d="M103.5 82.5v-7l-22 10z"/><path fill="#44590d" d="M126.5 96.5l-34-2 11 21z"/><path fill="#9c9896" d="M124.5 29.5l-6-22 10 8z"/><path fill="#bab2aa" d="M140.5 3.5l-14 9 16 3z"/><path fill="#7c9c17" d="M145.5 73.5l-27-10-30 6z"/><path fill="#77808e" d="M100.5 13.5l-24-19-9 12z"/><path fill="#222307" d="M2.5 115.5l-18-39h22z"/><path fill="#35520e" d="M68.5 46.5l4-10-23 2z"/><path fill="#725323" d="M89.5 41.5l-1 12-6-18z"/><path fill="#4e710f" d="M129.5 41.5l42 7-42 5z"/><path fill="#ffbd68" d="M101.5 49.5l20-10-7 10z"/></g></svg>