<svg xmlns="http://www.w3.org/2000/svg" viewBox="0 0 100 50"><path fill="#6b7a3f" d="M0 0h100v50H0z"/><g fill-opacity=".5"><path fill="#f9e7ff" d="M70.5-2.5l-13 26-47-16z"/><path fill="#051200" d="M115.5 9.5l-52 2 52 54z"/><path fill="#000500" d="M22.5 14.5l-19 38-19-45z"/><path fill="#abc80e" d="M80.5 64.5l2-40-83 13z"/><path fill="#3773ce" d="M-15.5 6.5l131 1-58-23z"/><path fill="#ffedb2" d="M63.5 11.5l-28-7 15 23z"/><path fill="#3a4d00" d="M45.5 19.5l-54 46 2-52z"/><path fill="#9d9da9" d="M80.5.5l-30 3 36 10z"/><path fill="#ffa72f" d="M43.5 15.5l6 16 12-14z"/><path fill="#0b0f00" d="M109.5 24.5l-34-6 40-21z"/><path fill="#4d6508" d="M115.5 62.5l-45-56 11 42z"/><path fill="#0059a5" d="M85.5 11.5l30-15-31-12z"/><path fill="#aac720" d="M79.5 25.5l-66 9 18 12z"/><path fill="#eedcd1" d="M47.5 3.5l6 13-27-1z"/><path fill="#366293" d="M19.5 12.5l14-28-49 23z"/><path fill="#2f3907" d="M98.5 19.5l-36 6 2-17z"/><path fill="#362b5d" d="M54.5 43.5l-10-6 16 2z"/><path fill="#000202" d="M-15.5 36.5l30-4-19-19z"/><path fill="#1c3015" d="M64.5 47.5l-22 1 42 17z"/><path fill="#5f6602" d="M13.5 16.5l45 11-35 4z"/><path fill="#01060b" d="M22.5 27.5l15 1-5 4z"/><path fill="#aebb3e" d="M92.5 39.5l-40-5 14 10z"/><path fill="#96999e" d="M40.5 3.5l-8 12-34-8z"/><path fill="#577699" d="M79.5 13.5l19-8-23 3z"/><path fill="#c8c859" d="M46.5 47.5l17-2-28-5z"/><path fill="#e2cab0" d="M64.5 6.5l16-3-4 4z"/><path fill="#1d1f26" d="M71.5 7.5l11 11-19-6z"/><path fill="#004577" d="M2.5-15.5l18 15-33 9z"/><path fill="#fdf6f4" d="M61.5 14.5l-23 1 9-8z"/><path fill="#0f5b7e" d="M59.5-15.5l-23 5 24 16z"/><path fill="#ffcf6e" d="M55.5 26.5l-4-7 10-1z"/><path fill="#66840b" d="M86.5 29.5l-13-12-25 12z"/><path fill="#728c0f" d="M5.5 44.5l35 21-20-37z"/><path fill="#aeaa6b" d="M38.5 44.5l-3-7h19z"/><path fill="#6a7c1f" d="M88.5 30.5l-24 18 31-9z"/><path fill="#9ea0a0" d="M33.5.5l29 12 5-8z"/><path fill="#5a6e11" d="M42.5 17.5l-43 2 36 9z"/><path fill="#121800" d="M-5.5 18.5l2-7 25 2z"/><path fill="#aaca13" d="M40.5 37.5l-3-12 11 10z"/><path fill="#dcc08d" d="M23.5 14.5l10-4 14 8z"/><path fill="#384609" d="M86.5 42.5l-13 21 42-6z"/><path fill="#000005" d="M90.5 11.5l25 6-13-12z"/><path fill="#f8a814" d="M45.5 26.5v-5l8 1z"/><path fill="#c8c0b5" d="M35.5-15.5l21 5 17 18z"/><path fill="#9fcc11" d="M50.5 31.5l19-5 10 7z"/><path fill="#191f0c" d="M15.5 21.5l-19 1 26 7z"/><path fill="#1e2117" d="M50.5 38.5l9 2-5 2z"/><path fill="#c8c46e" d="M59.5 43.5l6 2 4-6z"/><path fill="#aac11c" d="M35.5 55.5l-13-19h17z"/><path fill="#3e4a0b" d="M17.5 40.5l-28 14 18 7z"/><path fill="#76941d" d="M25.5 25.5l16 1-23-10z"/><path fill="#597a96" d="M46.5 1.5l-14-8-20 15z"/><path fill="#627986" d="M82.5 4.5v9h-8z"/><path fill="#23370b" d="M109.5 32.5l-14-5-16 4z"/><path fill="#005b92" d="M91.5 6.5l24-6-29-16z"/><path fill="#5a6818" d="M57.5 49.5l-5 6-22-11z"/><path fill="#e5e3e3" d="M34.5 5.5l27 5-14 3z"/><path fill="#2d4100" d="M23.5 46.5l33 19h-35z"/><path fill="#a2986f" d="M42.5 65.5h17l20-22z"/><path fill="#335b73" d="M89.5-15.5l-56 4 41 14z"/><path fill="#4a4837" d="M54.5 38.5l-10 3 11 2z"/><path fill="#0a1310" d="M67.5 10.5l6 1v-3z"/><path fill="#2d3707" d="M64.5 17.5l19-4 29 18z"/><path fill="#6e9915" d="M23.5 27.5l5 9-12-6z"/><path fill="#71aa18" d="M78.5 25.5l6 4-22 2z"/><path fill="#f3d59d" d="M45.5 20.5h9l-16-9z"/><path fill="#293901" d="M12.5 12.5l-15 7 26-4z"/><path fill="#a7b6c0" d="M31.5 12.5l-5-6 14 3z"/><path fill="#1e250a" d="M40.5 31.5l-13-5-2 4z"/><path fill="#566d1a" d="M89.5 32.5l-18 3 35 8z"/><path fill="#46470c" d="M23.5 18.5h20l1 7z"/><path fill="#586407" d="M80.5 23.5l-27 4 11-8z"/><path fill="#526120" d="M.5 36.5l6 11 5-13z"/><path fill="#292e21" d="M76.5 13.5l-12-4-2 10z"/><path fill="#a6b24c" d="M80.5 44.5l-4-4 5-3z"/><path fill="#c9cfc7" d="M74.5 6.5h5l-2-4z"/><path fill="#bebf62" d="M35.5 48.5l17 17-8-16z"/><path fill="#c8e808" d="M41.5 29.5h12l-9 4z"/><path fill="#417398" d="M19.5-10.5l35-2 9 18z"/><path fill="#729226" d="M30.5 33.5l-21 6 4-7z"/><path fill="#c37e38" d="M65.5 21.5l-14 7-7-4z"/><path fill="#20210c" d="M2.5 37.5l-18 4 16 21z"/><path fill="#c5b083" d="M18.5 12.5l12 5 12-2z"/><path fill="#444d0b" d="M9.5 30.5l11-9 10 4z"/><path fill="#406687" d="M79.5.5l8-16-3 26z"/><path fill="#526711" d="M74.5 16.5l-2 8-21 3z"/><path fill="#c2b5aa" d="M62.5 11.5l-13-4v-5z"/><path fill="#bccd3e" d="M59.5 40.5v-4l9 1z"/><path fill="#848e94" d="M52.5 5.5l-17-6-2 5z"/><path fill="#035787" d="M18.5 3.5l-7-11-27 7z"/><path fill="#888b83" d="M69.5 5.5l6 2-9-10z"/><path fill="#5c687c" d="M13.5 6.5l-14-1 2 5z"/><path fill="#d8da80" d="M30.5 40.5h4l-4 3z"/><path fill="#759231" d="M87.5 33.5l-9-1 9 4z"/><path fill="#cea249" d="M44.5 15.5l4 2 3-2z"/><path fill="#697c88" d="M76.5 12.5l-1-5 14 2z"/><path fill="#96af29" d="M24.5 37.5l-6 12 2-15z"/><path fill="#617f0f" d="M9.5 15.5l10 6 10-2z"/><path fill="#738d0b" d="M86.5 42.5l-6-2-6 15z"/><path fill="#533800" d="M47.5 27.5l4 2-9-1z"/></g></svg>