<svg xmlns="http://www.w3.org/2000/svg" viewBox="0 0 400 200"><path fill="#697a3c" d="M0 0h400v200H0z"/><g transform="translate(.8 .8) scale(1.5625)" fill-opacity=".5"><ellipse fill="#d4d1ff" cx="109" cy="17" rx="66" ry="31"/><ellipse fill="#000700" cx="255" cy="58" rx="59" ry="39"/><ellipse fill="#081700" cy="61" rx="80" ry="33"/><ellipse fill="#a2b20a" cx="126" cy="95" rx="92" ry="52"/><ellipse fill="#3670bf" cx="133" cy="5" rx="255" ry="16"/><ellipse fill="#ffebbd" cx="132" cy="38" rx="27" ry="28"/><ellipse fill="#061100" cx="179" cy="42" rx="21" ry="23"/><ellipse fill="#374800" cx="73" cy="63" rx="45" ry="20"/><ellipse fill="#192400" cx="6" cy="104" rx="26" ry="77"/><ellipse fill="#2b3f00" cx="255" cy="107" rx="50" ry="92"/><ellipse fill="#d8c1af" cx="183" cy="12" rx="26" ry="9"/><ellipse fill="#f7e2cc" cx="105" cy="29" rx="32" ry="16"/><ellipse fill="#005ba6" cx="229" rx="27" ry="26"/><ellipse fill="#7588a8" cx="47" cy="21" rx="48" ry="11"/><ellipse fill="#09065c" cx="137" cy="105" rx="16" ry="6"/><ellipse fill="#bdd233" cx="109" cy="97" rx="21" ry="23"/><ellipse fill="#0a4d7e" cx="20" cy="4" rx="69" ry="10"/><ellipse fill="#6e87ba" cx="207" cy="25" rx="19" ry="9"/><ellipse fill="#ffa94a" cx="130" cy="54" rx="19" ry="15"/><ellipse fill="#729c17" cx="203" cy="90" rx="28" ry="31"/><ellipse fill="#a8c927" cx="171" cy="93" rx="23" ry="25"/><ellipse fill="#607d02" cx="29" cy="106" rx="19" ry="21"/><ellipse fill="#000008" cx="78" cy="76" rx="18" ry="6"/><ellipse fill="#5a6e0d" cx="63" cy="53" rx="53" ry="10"/><ellipse fill="#244510" cx="137" cy="125" rx="32" ry="4"/></g></svg>