<svg xmlns="http://www.w3.org/2000/svg" viewBox="0 0 200 100"><path fill="#6b7a3f" d="M0 0h200v100H0z"/><g fill-opacity=".5"><path fill="#ffeaff" d="M140.5-2.5l-121 20 95 32z"/><path fill="#061400" d="M207.5 105.5l-1-91-84 8z"/><path fill="#1f2f00" d="M-4.5 115.5l94-75-93-22z"/><path fill="#afcd0f" d="M-3.5 72.5l177-24-52 67z"/><path fill="#5280d4" d="M97.5-15.5l116 29-229 4z"/><path fill="#ffe9ab" d="M69.5 8.5l59 13-28 36z"/><path fill="#1264b8" d="M148.5 29.5l67-21-40-21z"/><path fill="#161e00" d="M-6.5 115.5l-9-97 63 10z"/><path fill="#0040b4" d="M13.5-15.5l36 20-65 9z"/><path fill="#fca02b" d="M100.5 60.5l-19-29 46 3z"/><path fill="#ada5a4" d="M115.5-5.5l47 34 17-10z"/><path fill="#536d02" d="M149.5 34.5l16 81 50-20z"/><path fill="#738009" d="M76.5 32.5l34 31-110-24z"/><path fill="#0c005a" d="M95.5 86.5l9-12 17 9z"/><path fill="#f6e1d8" d="M123.5 32.5l-22-23-53 24z"/><path fill="#090b00" d="M215.5 4.5l-3 48-58-18z"/><path fill="#314102" d="M131.5 19.5l84 30-95 3z"/><path fill="#21350a" d="M136.5 94.5l-24 10-36-10z"/><path fill="#a9b72c" d="M144.5 104.5l29-24-81-23z"/><path fill="#71829b" d="M40.5 26.5l50-23-106 14z"/><path fill="#b9d118" d="M138.5 59.5l-62 1-27 34z"/><path fill="#6b860e" d="M1.5 81.5l48-29 4 63z"/><path fill="#16172d" d="M127.5 18.5l2 20 23-23z"/><path fill="#a5a199" d="M79.5 8.5l39 13 51-16z"/><path fill="#050900" d="M49.5 58.5l19 8 8-10z"/><path fill="#005890" d="M161.5 19.5l50-11-31-21z"/><path fill="#c5c259" d="M120.5 95.5l-41-3-8-19z"/><path fill="#0c5a8e" d="M115.5-9.5l-54-6 62 26z"/><path fill="#ccad7f" d="M53.5 34.5l-21-15 55 15z"/><path fill="#010002" d="M-9.5 70.5l37-5-24-23z"/><path fill="#d8baa8" d="M137.5 78.5l-19 13 19-5z"/><path fill="#474513" d="M54.5 37.5l43 21-13-23z"/><path fill="#f0a62a" d="M128.5 43.5l-36 13-4-16z"/><path fill="#30390e" d="M171.5 87.5l-18 28 62-18z"/><path fill="#a3be16" d="M76.5 61.5l-3 47-34-30z"/><path fill="#617d0a" d="M134.5 36.5l-37 23 71-10z"/><path fill="#f4f3f9" d="M120.5 23.5l-19 8-31-20z"/><path fill="#c1b7ad" d="M152.5 3.5l13 10-43 2z"/><path fill="#b09893" d="M87.5 75.5l-10 11 29-11z"/><path fill="#fad17d" d="M124.5 39.5l-52-10 39 20z"/><path fill="#719d11" d="M169.5 47.5l-67 21 54 6z"/><path fill="#2a340b" d="M190.5 26.5l-49 1 74 67z"/><path fill="#6a8c12" d="M18.5 32.5l42 3 23 25z"/><path fill="#51780b" d="M117.5 96.5h25l12-13z"/><path fill="#3e4043" d="M112.5 86.5l5-9-31 6z"/><path fill="#00528e" d="M34.5 5.5l-12-21-38 21z"/><path fill="#374a07" d="M37.5 79.5l-12 20-25 2z"/><path fill="#537486" d="M188.5 17.5l-23-13-18 21z"/><path fill="#b1d013" d="M113.5 67.5l41-1-42-11z"/><path fill="#456688" d="M196.5-12.5l-76 2 22 19z"/><path fill="#6e8814" d="M147.5 115.5l41-48-21-2z"/><path fill="#6e511d" d="M81.5 57.5l35 1 8-12z"/><path fill="#ff9300" d="M100.5 43.5l13 3-25 1z"/><path fill="#365300" d="M42.5 91.5l5 14 22-4z"/><path fill="#a8aeb3" d="M88.5 19.5l-38 12-5-22z"/><path fill="#4d728d" d="M-15.5 17.5l89-26-37 29z"/><path fill="#0f1005" d="M-5.5 32.5l-10-14 53 9z"/><path fill="#82a61d" d="M31.5 59.5h16l-7 35z"/><path fill="#b9bc45" d="M152.5 78.5l-21-4-30 21z"/><path fill="#dab57c" d="M95.5 40.5l29-8-53-1z"/><path fill="#313a0a" d="M18.5 40.5l39 7-45 17z"/><path fill="#030401" d="M203.5 30.5l12-30-35 25z"/><path fill="#2c2f19" d="M126.5 20.5l-1 19 55-7z"/><path fill="#b6d60d" d="M79.5 51.5l14 16-18-12z"/><path fill="#556310" d="M91.5 96.5h-20l-5-8z"/><path fill="#cdcbc4" d="M138.5 5.5l-23-9 20 15z"/><path fill="#81b714" d="M144.5 63.5l14-15-44 9z"/><path fill="#96958c" d="M159.5 27.5l-8-3-5-12z"/><path fill="#56741e" d="M182.5 45.5l-18 5-13 26z"/><path fill="#888c8e" d="M7.5 17.5l49 12-16-17z"/><path fill="#dac1e8" d="M111.5 89.5l3 2-8-1z"/><path fill="#e1ce69" d="M60.5 84.5l9-4-10 10z"/><path fill="#d3ccc3" d="M145.5 14.5l10-3 1-10z"/><path fill="#5b7d92" d="M120.5 5.5l-16 8 27-4z"/><path fill="#86aa17" d="M56.5 44.5l15 4-10 7z"/><path fill="#596b1f" d="M143.5 71.5l54 14-15-18z"/><path fill="#192000" d="M75.5 53.5l-6 9-23-1z"/><path fill="#5a7e26" d="M52.5 73.5l-22-10 34 1z"/><path fill="#e3c08b" d="M49.5 30.5l13-5 1 10z"/><path fill="#005a9e" d="M207.5 8.5h-30l13-24z"/><path fill="#8f9aa1" d="M67.5 9.5l33-8 35 16z"/><path fill="#3b4c16" d="M32.5 30.5l58 11-28 4z"/><path fill="#d6c2ad" d="M84.5 89.5l-1-8-6 4z"/><path fill="#4e5d19" d="M7.5 72.5l-2 26 29-35z"/><path fill="#47590f" d="M129.5 36.5l27-2 17 21z"/><path fill="#857b8c" d="M96.5 83.5h8l-7-8z"/><path fill="#beac8c" d="M158.5 88.5l-5-7h6z"/><path fill="#c6c35f" d="M94.5 99.5l-10 8-20-10z"/><path fill="#173429" d="M159.5 63.5l16 2-3-5z"/><path fill="#ddc9ab" d="M139.5 81.5l-16-3 9-1z"/><path fill="#a69261" d="M152.5 92.5l-38 10 15 13z"/><path fill="#ffe295" d="M112.5 40.5l-34-8 17 10z"/><path fill="#ec8773" d="M116.5 45.5l-21 5 9 3z"/><path fill="#0d120d" d="M153.5 28.5l-14-9 5-3z"/><path fill="#848c1d" d="M57.5 81.5l-31 8 7 11z"/><path fill="#607a84" d="M180.5 17.5l-32-1 20 10z"/><path fill="#0b0f03" d="M28.5 47.5l-24 8-20-14z"/><path fill="#86a519" d="M174.5 64.5h-27l21 6z"/><path fill="#cbdf07" d="M110.5 60.5l-14 5-14-6z"/><path fill="#514823" d="M81.5 34.5l-1 19 9-11z"/></g></svg>