<svg xmlns="http://www.w3.org/2000/svg" viewBox="0 0 800 400"><path fill="#697a3c" d="M0 0h800v400H0z"/><g fill-opacity=".5"><path fill="#fde9ff" d="M467.2 192.2l90.6-206.3L64.1 67.2z"/><path fill="#041500" d="M845.3 45.3L489.1 92.2l356.2 356.2z"/><path fill="#000400" d="M192.2 117.2L7.8 448.4-23.4 76.6z"/><path fill="#bac70c" d="M445.3 126.6L14.1 439l687.5-97z"/><path fill="#4778c7" d="M848.4-48.4l-150 159.3-553-109.3z"/><path fill="#1d60c5" d="M298.4 54.7L42.2-48.4-48.4 92.2z"/><path fill="#4c6600" d="M107.8 114l271.9 59.4-353.1 275z"/><path fill="#ffefc4" d="M386 211L282.7 45.2l225 40.6z"/><path fill="#5c8400" d="M826.6 448.4L448.4 201.6l168.8-65.7z"/><path fill="#0054a8" d="M582.8-48.4L848.4 14 732.8 79.7z"/><path fill="#dfc6b3" d="M489 57.8L657.9 61 620.3 4.7z"/><path fill="#161b00" d="M848.4 48.4l-343.7 97 318.7 81.2z"/><path fill="#96b524" d="M4.7 289L639 201.7l6.2 218.7z"/><path fill="#0b035b" d="M373.4 348.4L489.1 336l-65.7-40.6z"/><path fill="#ffa242" d="M317.2 123.4l90.6 109.4 93.8-90.6z"/><path fill="#172000" d="M-36 282.8l25-109.4 397 59.4z"/><path fill="#1b170a" d="M514 70.3l84.4-9.4-109.3 122z"/><path fill="#8d959b" d="M4.7 64L307.8 7.9l-56.2 131.3z"/><path fill="#f8e6da" d="M498.4 117.2l-296.8 18.7 165.6-87.5z"/><path fill="#4e620c" d="M23.4 267.2l228.2 131.2L23.4 411z"/><path fill="#2c3b00" d="M686 345.3l-78.2 71.9L848.4 389z"/><path fill="#597304" d="M79.7 323.4l87.5-181.2 178.1 3.1z"/><path fill="#465408" d="M536 132.8L717.1 161l-315.6 78.2z"/><path fill="#b6c536" d="M311 198.4l100 181.3-125-18.8z"/><path fill="#818982" d="M632.8 120.3L761 61 589.1 83z"/><path fill="#2d4d00" d="M317.2 382.8l134.4 40.6 93.7-43.7z"/><path fill="#004581" d="M176.6 1.6L1.6 45.3l-47-65.6z"/><path fill="#3c3811" d="M348.4 154.7l22 84.4-143.8-100z"/><path fill="#cbc062" d="M536 364l-147 6.3 181.3-68.7z"/><path fill="#085a8d" d="M467.2-14l-125-3.2 153.1 56.3z"/><path fill="#aed204" d="M323.4 236L164.1 339l359.3-100z"/><path fill="#debe87" d="M204.7 129.7l50-56.3 103.1 68.8z"/><path fill="#121e00" d="M-20.3 161l212.5-47-221.9-34.3z"/><path fill="#5b6f15" d="M517.2 279.7L745.3 264l103.1 87.5z"/><path fill="#a09278" d="M311 314l9.3 47 134.4-65.7z"/><path fill="#ffad00" d="M370.3 195.3l-12.5-28.1 106.3 12.5z"/><path fill="#789c11" d="M186 201.6l31.2 175-159.4-43.8z"/><path fill="#d2c5b2" d="M557.8 23.4l6.3 47-112.5-93.8z"/><path fill="#ffd385" d="M495.3 142.2l-112.5 9.4 71.9 53z"/><path fill="#005f92" d="M848.4 42.2L648.4 64 754.7-48.4z"/><path fill="#050700" d="M664 114l184.4 9.4-40.6-78z"/><path fill="#674016" d="M351.6 229.7l106.2-31.3-12.5 40.7z"/><path fill="#151b0b" d="M182.8 214l40.6 47 100-22z"/><path fill="#5a7a03" d="M117.2 123.4l128.1 50-259.4-3z"/><path fill="#050900" d="M-48.4 111l150 150-103.2 21.8z"/><path fill="#b0babf" d="M282.8 114l-90.6-53L464 29.6z"/><path fill="#1c2313" d="M507.8 79.7l71.9-18.8 59.4 84.4z"/><path fill="#2a3904" d="M739 98.4l109.4 243.8-293.7-225z"/><path fill="#aec818" d="M148.4 292.2l93.8 6.2 68.7 143.8z"/><path fill="#8bae0c" d="M264 220.3l-56.2-46.9 93.8 18.8z"/><path fill="#f6f2ed" d="M479.7 98.4l-87.5 31.3-100-84.4z"/><path fill="#394238" d="M417.2 307.8l53.1 34.4H339.1z"/><path fill="#447297" d="M304.7 29.7L60.9 70.3 195.3-48.4z"/><path fill="#67800f" d="M592.2 336l118.7 37.4-209.3 9.4z"/><path fill="#dbbdac" d="M554.7 336l-68.8-25h43.8z"/><path fill="#969890" d="M617.2 26.6L329.7 39l178.1 40.6z"/><path fill="#737c81" d="M192.2 104.7L-48.4 76.6l196.8-34.4z"/><path fill="#d1ae7c" d="M154.7 101.6l171.9 25-97 12.5z"/><path fill="#5a880d" d="M626.6 267.2L739 182.8l-137.5 18.8z"/><path fill="#b99973" d="M436 448.4l187.4-93.7-78 78.1z"/><path fill="#96bc11" d="M311 242.2L179.6 314l268.7-15.7z"/><path fill="#95ae00" d="M436 357.8l93.7-18.7-15.6-22z"/><path fill="#416485" d="M570.3 32.8l171.9-81.2H479.7z"/><path fill="#304113" d="M148.4 317.2L39.1 448.4l-84.4-15.6z"/><path fill="#e3c9af" d="M307.8 342.2l56.3 28.1-47-43.7z"/><path fill="#1e3d0e" d="M211 448.4l-37.6-78 190.7 78z"/><path fill="#b69f8e" d="M579.7 304.7l65.6 37.5-21.9 9.4z"/><path fill="#405d0f" d="M311 389l-56.3-34.3L364 385.9z"/><path fill="#dfb879" d="M317.2 136l178.1 34.3 3.1-53.1z"/><path fill="#ced732" d="M257.8 320.3L211 357.8l128.2-37.5z"/><path fill="#90c408" d="M420.3 254.7l206.3 18.7-22-71.8z"/><path fill="#e6872b" d="M342.2 192.2l68.7 37.5 31.3-53.1z"/><path fill="#313a09" d="M207.8 186L45.3 161l106.3 78z"/><path fill="#d7b8b8" d="M557.8 332.8l-25 25h-37.5z"/><path fill="#52680c" d="M89 273.4l-90.6 9.4L136 448.4z"/><path fill="#a3c512" d="M295.3 220.3l31.3-12.5 15.6 62.5z"/><path fill="#60790b" d="M495.3 148.4h128.1l-143.7 53.2z"/><path fill="#d7cec1" d="M579.7 57.8L639 42.2l-31.3-21.9z"/><path fill="#7f8a96" d="M357.8 45.3l62.5-53.1-171.9 40.6z"/><path fill="#a6a339" d="M142.2 389l-15.6-31.2 71.8-40.6z"/><path fill="#d6ca71" d="M467.2 404.7l-31.3 43.7-150-56.2z"/><path fill="#1e3532" d="M670.3 239l-56.2 18.8 87.5-3.1z"/><path fill="#131800" d="M167.2 104.7h-56.3l90.7 34.4z"/><path fill="#44728c" d="M664 4.7l93.8 65.6L617.2 86z"/><path fill="#699c11" d="M707.8 245.3l-87.5-50-115.6 50z"/><path fill="#1c2c00" d="M-36 161L-48.3 61 114 148.3z"/><path fill="#282b35" d="M439 348.4L404.8 311l62.5 6.3z"/><path fill="#74900a" d="M639 414l72-140.6-162.6 175z"/><path fill="#969381" d="M679.7 101.6l-65.6 6.2-15.7-28.1z"/><path fill="#161713" d="M617.2 101.6l46.9 25L514 139z"/><path fill="#6b9712" d="M117.2 242.2l43.7 25 50-56.3z"/><path fill="#7ca0ad" d="M170.3 26.6l137.5 40.6-125 3.1z"/><path fill="#55790e" d="M179.7 420.3l40.6-96.9-50 28.2z"/><path fill="#058" d="M79.7-48.4L-48.4 7.8l193.7 15.6z"/><path fill="#ffb300" d="M451.6 182.8l-87.5 9.4 40.6-25z"/><path fill="#aecc1d" d="M598.4 295.3l-34.3 28.1-97-34.3z"/><path fill="#fee396" d="M336 142.2l90.6 31.2 43.7-21.8z"/><path fill="#467898" d="M386-7.8l78 53.1 72-6.2z"/><path fill="#547814" d="M504.7 267.2l-53.1 12.5L564 292.2z"/><path fill="#ef9177" d="M404.7 217.2l-6.3-25 78.2-12.5z"/></g></svg>