<svg xmlns="http://www.w3.org/2000/svg" viewBox="0 0 256 128"><path fill="#6b7a3f" d="M0 0h256v128H0z"/><g fill-opacity=".5"><path fill="#fee6ff" d="M146.5 63.5l-127-41 162-28z"/><path fill="#061400" d="M156.5 28.5l115 114-13-124z"/><path fill="#000700" d="M64.5 36.5l-76-11 13 118z"/><path fill="#bdc610" d="M142.5 39.5l-140 104 220-34z"/><path fill="#4b79c7" d="M52.5.5l219-11-57 47z"/><path fill="#1e60c8" d="M101.5 12.5l-102-25-9 43z"/><path fill="#3b4d00" d="M-15.5 49.5l129-5-26 44z"/><path fill="#fff2cb" d="M90.5 11.5l73 17-42 36z"/><path fill="#587702" d="M226.5 142.5l44-39-112-67z"/><path fill="#0052ab" d="M233.5 26.5l38-22-82-20z"/><path fill="#506702" d="M1.5 141.5l95-3-81-56z"/><path fill="#010062" d="M119.5 109.5l18-14 16 12z"/><path fill="#2d3406" d="M165.5 18.5l-14 52 115-20z"/><path fill="#e4caba" d="M208.5 19.5h-57l49-17z"/><path fill="#ffa74e" d="M130.5 74.5l-27-35 59 4z"/><path fill="#a0c616" d="M89.5 115.5l118-53-194 29z"/><path fill="#060800" d="M211.5 36.5l48 27-2-49z"/><path fill="#1d2700" d="M125.5 74.5l-132-20-9 36z"/><path fill="#6c770b" d="M153.5 74.5l-99-2-20-33z"/><path fill="#7b8a9a" d="M62.5 36.5l73-41-145 26z"/><path fill="#93b327" d="M208.5 59.5l-6 84-61-52z"/><path fill="#fce9dd" d="M159.5 37.5l-39-20-58 25z"/><path fill="#7c8b93" d="M199.5 35.5l-10-14 58-2z"/><path fill="#6a8c0c" d="M47.5 63.5l26 26-63 27z"/><path fill="#b6a28a" d="M136.5 96.5l-33 19-11-15z"/><path fill="#355105" d="M89.5 119.5l44 15 34-11z"/><path fill="#c7ca53" d="M163.5 120.5l-53-1 86-24z"/><path fill="#313a0a" d="M271.5 126.5l-84 14 37-30z"/><path fill="#115f8e" d="M161.5 14.5l-58-21 37-7z"/><path fill="#d4b379" d="M63.5 42.5l-5-18 60 22z"/><path fill="#004483" d="M46.5 3.5l-31-19-31 33z"/><path fill="#121b00" d="M-15.5 54.5v-30l69 11z"/><path fill="#201c22" d="M192.5 19.5l-33 31 6-27z"/><path fill="#576c11" d="M169.5 43.5l-38 32 81-16z"/><path fill="#ffb03c" d="M115.5 55.5l12 14 36-19z"/><path fill="#b3d01a" d="M97.5 66.5l-3 50 21-37z"/><path fill="#050802" d="M5.5 53.5l30 31-45 6z"/><path fill="#006194" d="M245.5-15.5l26 27-66 12z"/><path fill="#a2a39d" d="M221.5 3.5l-66 23-50-16z"/><path fill="#3c4205" d="M83.5 42.5l-12 12 46-2z"/><path fill="#ffe79b" d="M155.5 56.5l-39-5 40-6z"/><path fill="#5c6d1f" d="M254.5 109.5l-26-26-47 7z"/><path fill="#283508" d="M180.5 33.5l91 5-14 66z"/><path fill="#64840c" d="M62.5 40.5l-42 11 74 12z"/><path fill="#cfb6a0" d="M175.5 102.5l-2 8-19-13z"/><path fill="#a8b1b8" d="M114.5 25.5l-53-13-2 27z"/><path fill="#d3e509" d="M105.5 75.5l11 12 24-9z"/><path fill="#131811" d="M96.5 73.5l-20 12-15-15z"/><path fill="#d8d2c7" d="M160.5 8.5l-11-19 31 22z"/><path fill="#33470d" d="M-15.5 138.5l64-37-25 38z"/><path fill="#f0eff1" d="M84.5 12.5l66 17-18 11z"/><path fill="#1d2324" d="M125.5 110.5h19l7-10z"/><path fill="#cccc4e" d="M145.5 116.5l-37 4-28-18z"/><path fill="#a39b8b" d="M218.5 33.5l-27-8 2 8z"/><path fill="#ffb106" d="M114.5 53.5l4 10 26-7z"/><path fill="#6c441e" d="M138.5 76.5l-32-5 54-9z"/><path fill="#5c8910" d="M159.5 50.5l45 34 24-18z"/><path fill="#444714" d="M115.5 76.5l-6-28-30-1z"/><path fill="#5a7b07" d="M203.5 113.5l-47 13 32-20z"/><path fill="#c5a76b" d="M168.5 143.5h-46l74-27z"/><path fill="#82a11c" d="M43.5 78.5l19-7-13 68z"/><path fill="#c2a0ab" d="M206.5 108.5l-4 3-12-11z"/><path fill="#516c0f" d="M60.5 80.5l-46 23-15-12z"/><path fill="#294217" d="M54.5 143.5l3-24 27 9z"/><path fill="#cbd031" d="M81.5 101.5l7 27-19-15z"/><path fill="#7fb711" d="M194.5 89.5l-45-22 55 3z"/><path fill="#426186" d="M223.5-15.5l-39 27-32-27z"/><path fill="#383f0e" d="M56.5 55.5l8 15-59 9z"/><path fill="#657439" d="M108.5 109.5l19 2 3-14z"/><path fill="#8bac1a" d="M96.5 63.5l-15 5-19-16z"/><path fill="#d9ca8b" d="M83.5 143.5l16-18 57 5z"/><path fill="#4d6e12" d="M161.5 83.5l16 9-23-2z"/><path fill="#b3bd46" d="M171.5 92.5l-39 4 40 10z"/><path fill="#7c7d7c" d="M47.5 17.5l19 18-63-9z"/><path fill="#ea8648" d="M139.5 58.5l-21 6 12 10z"/><path fill="#212618" d="M186.5 20.5l9 21-35 8z"/><path fill="#374505" d="M48.5 33.5l-39 10 60 1z"/><path fill="#376d92" d="M151.5 15.5l15-3-34-21z"/><path fill="#ebc9da" d="M100.5 106.5l-3 3 13 5z"/><path fill="#2c431e" d="M241.5 69.5l-7 13h-37z"/><path fill="#d5b5c0" d="M164.5 110.5l13-3-13 8z"/><path fill="#010201" d="M235.5 32.5l36 10-11-31z"/><path fill="#9da903" d="M159.5 100.5l12 7-29 8z"/><path fill="#769216" d="M199.5 138.5l26-49-14-9z"/><path fill="#d5b17f" d="M155.5 51.5l7-14-50 5z"/><path fill="#3b698b" d="M197.5 3.5l20-8 23 30z"/><path fill="#afcd0e" d="M147.5 73.5l-25 12 67-1z"/><path fill="#738220" d="M74.5 104.5l-45 12 12 27z"/><path fill="#36481b" d="M222.5 95.5h-25l7-7z"/><path fill="#e2d3c6" d="M201.5 15.5l-18 3 14-9z"/><path fill="#ceb387" d="M70.5 44.5l-22-16 60 12z"/><path fill="#376995" d="M102.5-13.5l-93 24 64 1z"/><path fill="#5b7613" d="M84.5 114.5l34 7-26 2z"/><path fill="#e3899b" d="M133.5 67.5l4-7 13-2z"/><path fill="#373547" d="M129.5 100.5l26 5-8-7z"/><path fill="#5a800e" d="M31.5 53.5l-32 2 18-7z"/><path fill="#627b1f" d="M129.5 88.5l29 2-15-6z"/><path fill="#799cb0" d="M103.5 22.5l-18-11-35 9z"/><path fill="#527a00" d="M149.5 121.5l16-3 15 7z"/><path fill="#29320d" d="M90.5 67.5l8 10-15 6z"/></g></svg>