<svg xmlns="http://www.w3.org/2000/svg" viewBox="0 0 400 200"><path fill="#697a3c" d="M0 0h400v200H0z"/><g fill-opacity=".5"><path fill="#fde8ff" d="M32 33.6L282-7 229 97.7z"/><path fill="#051400" d="M407 25.8L243 44.5l181.2 178.2z"/><path fill="#000500" d="M99.2 60.2l-96.9 164-14-186z"/><path fill="#bac60d" d="M350.8 169.5L3.9 224.2l218.8-164z"/><path fill="#4876c2" d="M69.5 4l281.3 54.6 73.4-79.7z"/><path fill="#1a5ec3" d="M14.8-24.2l129.7 50-168.7 21.9z"/><path fill="#4a6300" d="M16.4 224.2l36-168.7L182 77.3z"/><path fill="#ffecd2" d="M99.2 68L204 11.7 250.8 68z"/><path fill="#5b8200" d="M225.8 104l84.4-36 112.5 156.2z"/><path fill="#ffba63" d="M250.8 69.5l-100-11 59.4 51.7z"/><path fill="#1a2000" d="M418 79l-215.7 35.8 217.2-100z"/><path fill="#0054a5" d="M355.5-24.2l-31.3 64 100-21.8z"/><path fill="#ddc7b5" d="M304 5.5l-68.8 25h98.4z"/><path fill="#040754" d="M188.3 175.8l21.9-25 35.9 15.6z"/><path fill="#182200" d="M-24.2 146l209.4-31.2-204.7-29.6z"/><path fill="#9fc51a" d="M16.4 141.4l121.9 43.8 189-79.7z"/><path fill="#1c1a04" d="M255.5 36.7l-7.8 59.4 51.5-64z"/><path fill="#7b8a98" d="M-24.2 38.3L211.8-7 94.4 52.3z"/><path fill="#607d0d" d="M82 91.4L124.2 218 8.6 189.8z"/><path fill="#293700" d="M424.2 197.7l-112.5 10.9 29.7-36z"/><path fill="#cfd157" d="M182 189.8l70.3-7.8L132 163.3z"/><path fill="#f5f1f1" d="M208.6 64.8l-73.4-42.1L252.3 43z"/><path fill="#91b122" d="M319.5 224.2l-114-87.5L324.2 93z"/><path fill="#424104" d="M105.5 79l65.6-8 21.9 47z"/><path fill="#004887" d="M-18 24.2L121-2.3-24.1-16.4z"/></g></svg>