<svg xmlns="http://www.w3.org/2000/svg" viewBox="0 0 400 200"><path fill="#697a3c" d="M0 0h400v200H0z"/><path fill="#eaddff" fill-opacity=".5" d="M268.3 6.3l-31 95.2L74 48.3l31-95z"/><path fill="#000a00" fill-opacity=".5" d="M496 138l-110 68.7L302.4 73l110-68.7z"/><path fill="#081500" fill-opacity=".5" d="M90.1 61.5L46.6 213.2l-135.2-38.8L-45 22.7z"/><path fill="#a8c609" fill-opacity=".5" d="M329.5 219.5L48 259 31.4 141.5 313 101.9z"/><path fill="#1a5bb2" fill-opacity=".5" d="M242.4 14.3L-43 49.3l-7.2-58.9 285.4-35z"/><path fill="#2b73de" fill-opacity=".5" d="M396.6-58l26.5 76.8-118.2 40.7-26.4-76.8z"/><path fill="#ffe792" fill-opacity=".5" d="M200.6 117.6L153 49.7l44.8-31.3 47.5 67.8z"/><path fill="#040700" fill-opacity=".5" d="M306.8 97.3L245 67.2l18.5-38 61.8 30.2z"/><path fill="#405300" fill-opacity=".5" d="M44.7 82.3L174 71l4.8 54.5-129.2 11.3z"/><path fill="#d7c5d1" fill-opacity=".5" d="M320.3 32h-61V7h61z"/><path fill="#f6eff8" fill-opacity=".5" d="M236 71l-98.2-19.1 6-30.7 98.1 19.1z"/><path fill="#537800" fill-opacity=".5" d="M263.2 90.8l41.2-31 90.2 119.7-41.1 31z"/><path fill="#ffaf2f" fill-opacity=".5" d="M180.2 103.7l-2.5-35.9 62.4-4.3 2.5 35.8z"/><path fill="#150b60" fill-opacity=".5" d="M188.6 157.4l45.3-2.3.9 17.1-45.3 2.4z"/><path fill="#070d00" fill-opacity=".5" d="M24.3 45.3l25 87.1-72 20.7-25-87.1z"/><path fill="#c0d030" fill-opacity=".5" d="M191.4 191.9l-55.6-16 18.1-63 55.6 15.9z"/><path fill="#8d8fa5" fill-opacity=".5" d="M114.3 58.8L9 44.1l3.3-23.3 105.2 14.8z"/><path fill="#4b5d0c" fill-opacity=".5" d="M-3.4 172.9L27 131l99.9 72.6-30.3 41.7z"/><path fill="#005496" fill-opacity=".5" d="M338.2 33.8L333-.2l64.8-10.2 5.4 34z"/><path fill="#f7cb93" fill-opacity=".5" d="M98.8 48.6l71.5 7.6-2 18.6L97 67.3z"/><path fill="#0e1400" fill-opacity=".5" d="M442.6 53.4l-108.2 52.8-19.2-39.3L423.4 14z"/><path fill="#294215" fill-opacity=".5" d="M269.7 206.1L163.4 208l-.2-15.7 106.2-1.8z"/><path fill-opacity=".5" d="M147.7 129h-47v-15.7h47z"/><path fill="#c8ca4e" fill-opacity=".5" d="M283 184.8l-43.7 2.3-2-39 43.7-2.3z"/><path fill="#6586a5" fill-opacity=".5" d="M188.6 35.5l-6.5-37 130.8-23 6.5 36.9z"/></svg>