<svg xmlns="http://www.w3.org/2000/svg" viewBox="0 0 50 25"><path fill="#6b7a3f" d="M0 0h50v25H0z"/><g fill-opacity=".5"><path fill="#f8e1f6" d="M35.5-3.5l-27 8 21 8z"/><path fill="#041300" d="M32.5 5.5l27-2 6 37z"/><path fill="#212f00" d="M21.5 9.5l-37-8v39z"/><path fill="#acc710" d="M44.5 12.5l-41 5 29 17z"/><path fill="#3973d0" d="M65.5 3.5l-66-18-8 18z"/><path fill="#fffbf4" d="M30.5 6.5l-9-5-3 6z"/><path fill="#151c00" d="M-6.5 35.5l-9-30 26 1z"/><path fill="#e4c127" d="M30.5 8.5l-6-1-7 18z"/><path fill="#a1a6b5" d="M33.5 1.5l8 5v-6z"/><path fill="#4b6505" d="M31.5 6.5l34 19-11 15z"/><path fill="#11578e" d="M39.5 5.5l6-20 20 14z"/><path fill="#666d06" d="M7.5 16.5l1-7 21 3z"/><path fill="#121900" d="M65.5 30.5v-37l-24 15z"/><path fill="#758498" d="M40.5-15.5l-38 21 33-6z"/><path fill="#004683" d="M12.5.5l-28 3 35-14z"/><path fill="#222f0b" d="M57.5 40.5l-12-15-26-2z"/><path fill="#4e3e2e" d="M22.5 18.5l3 3 4-2z"/><path fill="#cdc9b6" d="M14.5 8.5l-1-6h20z"/><path fill="#9fc123" d="M40.5 12.5l-6 7-21-2z"/><path fill="#5e7102" d="M39.5 37.5l-22 3-18-24z"/><path fill="#3f4c00" d="M36.5 4.5l-7 8h6z"/><path fill="#ffd565" d="M29.5 10.5l-7-2 2 4z"/><path fill="#b4c156" d="M25.5 23.5l7-5h11z"/><path fill="#000100" d="M-15.5 1.5v13l24 2z"/><path fill="#30390d" d="M65.5 16.5l-33-12 25 21z"/><path fill="#fff6ef" d="M24.5 4.5l7 3-10-1z"/><path fill="#69891e" d="M4.5 8.5l14 5-4-5z"/><path fill="#021200" d="M12.5 13.5l4 1-4 1z"/><path fill="#acb15d" d="M16.5 20.5l6 2 5-5z"/><path fill="#586d16" d="M41.5 40.5l-1-25 8 3z"/><path fill="#4c716a" d="M22.5-15.5l2 13 9 8z"/><path fill="#c6bfc0" d="M33.5 3.5l4-1-6-2z"/><path fill="#818da5" d="M11.5 6.5l-7-3 13-1z"/><path fill="#1b3200" d="M11.5 11.5l-4 3-8-4z"/><path fill="#b7d125" d="M17.5 18.5l-1 7-3-7z"/><path fill="#0055ac" d="M44.5.5l6 1-1-17z"/><path fill="#7c8c90" d="M39.5 6.5l-1-6 6 3z"/><path fill="#91a1a2" d="M32.5.5l-2 4-10-3z"/><path fill="#7a8d27" d="M44.5 16.5l-11 24-7-12z"/><path fill="#38410c" d="M65.5 39.5l-1-23-51 17z"/><path fill="#3f390f" d="M25.5 18.5h3l2 3z"/><path fill="#76942a" d="M7.5 16.5l5-3-4 12z"/><path fill="#7fa710" d="M40.5 11.5l-2 6h-12z"/><path fill="#23221b" d="M35.5 4.5l7 5-10-3z"/><path fill="#4c5f00" d="M12.5 21.5l-1 8h4z"/><path fill="#54631f" d="M11.5 10.5l-11-1 8-2z"/><path fill="#00080e" d="M44.5 5.5l20-5-12 7z"/><path fill="#616303" d="M17.5 8.5l5 5-5 1z"/><path fill="#577490" d="M11.5 2.5l15-3-24-8z"/><path fill="#ffc474" d="M26.5 9.5l-4-1v3z"/><path fill="#ced83c" d="M25.5 23.5l-5-2h6z"/><path fill="#a3c432" d="M19.5 13.5l7 5-4-1z"/><path fill="#667100" d="M24.5 14.5l11-3-4 3z"/><path fill="#979da1" d="M20.5 1.5l-9 6 7-8z"/><path fill="#617000" d="M62.5 31.5l-45-9 31 18z"/><path fill="#4c557a" d="M5.5 5.5l-21-15v10z"/><path fill="#3d4f21" d="M-12.5 24.5l20-8-15 1z"/><path fill="#95b60f" d="M14.5 15.5l-7 7 20-7z"/><path fill="#2d3115" d="M33.5 4.5l13 5h-14z"/><path fill="#5e5f5f" d="M36.5 2.5l-5-12 10-6z"/><path fill="#9b995d" d="M24.5 20.5l-4-3h4z"/><path fill="#0a0600" d="M2.5 6.5l-14 11 1-13z"/><path fill="#1f3a00" d="M18.5 14.5l-2 1 2-2z"/><path fill="#39541d" d="M48.5 13.5l-8 2 3-3z"/><path fill="#e6ce9a" d="M22.5 9.5l-4-4 7 3z"/><path fill="#beb2e4" d="M19.5-12.5l13 14 3-10z"/><path fill="#6b8a1c" d="M16.5 16.5l-6-1v2z"/><path fill="#485705" d="M-5.5 32.5l14-12-6 16z"/><path fill="#375c92" d="M29.5 1.5l5-17-14 10z"/><path fill="#37658b" d="M44.5 5.5l1-14-9 3z"/><path fill="#9fc518" d="M33.5 15.5l-7 1 8-4z"/><path fill="#003f74" d="M24.5-15.5l4 11-33 6z"/><path fill="#5a651e" d="M35.5 22.5l-22 18 7-14z"/><path fill="#283004" d="M5.5 8.5l-15 1-4-7z"/><path fill="#4e7107" d="M37.5 9.5l-6 2 7 1z"/><path fill="#a5b6cc" d="M20.5 5.5l-6-1 4-1z"/><path fill="#6e9026" d="M19.5 12.5l-3 1-5-3z"/><path fill="#575122" d="M28.5 21.5l-2-3-2 3z"/><path fill="#9eb8c1" d="M40.5 2.5l-2-2-2 3z"/><path fill="#2c3c0f" d="M37.5 8.5l6 4-7-8z"/><path fill="#587792" d="M41.5 2.5l-14-14 11-4z"/><path fill="#6a7167" d="M37.5 3.5l2 3 4-3z"/><path fill="#586239" d="M44.5 12.5l2 9-3 1z"/><path fill="#091107" d="M3.5 11.5l-14 19 1-20z"/><path fill="#eacf68" d="M32.5 10.5l-5-3h-6z"/><path fill="#d8cc4b" d="M22.5 14.5l3 1 1-1z"/><path fill="#afbe53" d="M35.5 20.5l-6-3 4 5z"/><path fill="#bebe81" d="M29.5 18.5l-3-1h3z"/><path fill="#a3a44e" d="M37.5 23.5l-26 8 20 5z"/><path fill="#97ab58" d="M15.5 23.5v5l7-3z"/><path fill="#cbc17f" d="M19.5 5.5h-8l3 3z"/><path fill="#212907" d="M36.5 7.5l29 7v-9z"/><path fill="#3e657a" d="M12.5 1.5l30-11-18-6z"/><path fill="#6b8a06" d="M9.5 18.5l-5 3h5z"/><path fill="#acb957" d="M34.5 22.5l-5-1 4-2z"/><path fill="#a8a6a9" d="M21.5 1.5l5 1-2 1z"/><path fill="#f3c14e" d="M23.5 9.5h6l-2 3z"/><path fill="#f7e6d5" d="M22.5 4.5l-4 4 11-4z"/><path fill="#e68b47" d="M27.5 13.5l-3-2v1z"/><path fill="#869f39" d="M36.5 19.5l7 2 1-2z"/></g></svg>