<svg xmlns="http://www.w3.org/2000/svg" viewBox="0 0 400 200"><path fill="#697a3c" d="M0 0h400v200H0z"/><path fill="#f0e1ff" fill-opacity=".5" d="M239 100L86.4 53.4l29.3-95.6L268.2 4.4z"/><path fill="#000b00" fill-opacity=".5" d="M302 72.7L416 4.3l80.5 134-113.9 68.3z"/><path fill="#061200" fill-opacity=".5" d="M-75.8 189l43.3-161.5 119.2 32-43.3 161.4z"/><path fill="#c0c90f" fill-opacity=".5" d="M88.2 161.2l148.5-104 73.5 105-148.5 104z"/><path fill="#3873c7" fill-opacity=".5" d="M1.6-32.8H400v67.2H1.6z"/><path fill="#ffecc9" fill-opacity=".5" d="M130.3 59l15-46.1 101 32.8-15 46z"/><path fill="#040700" fill-opacity=".5" d="M325.3 61.1l-17.1 35.1L245 65.4l17.1-35z"/><path fill="#3a4c00" fill-opacity=".5" d="M182.1 120.7L52.5 141.2l-8-51L174 69.8z"/><path fill="#d8c3b4" fill-opacity=".5" d="M324.8 5.6l.4 23.4-76.6 1.4-.4-23.5z"/><path fill="#618600" fill-opacity=".5" d="M278.7 51.7l119.2 115-53.2 55-119.1-115z"/><path fill="#81a600" fill-opacity=".5" d="M90.6 112.9l34 50.5-69.9 47.2-34-50.6z"/><path fill="#03025a" fill-opacity=".5" d="M235 156.9l-1.3 18.7-39-2.8 1.3-18.7z"/><path fill="#ffb64f" fill-opacity=".5" d="M183.1 107l-5-40.3 52.8-6.5 5 40.3z"/><path fill="#095fa3" fill-opacity=".5" d="M337.4 52.6L306-12l80-39 31.6 64.6z"/><path fill="#888ab0" fill-opacity=".5" d="M113.3 38.8L110.5 59-18 41l2.9-20.1z"/><path fill="#9ab925" fill-opacity=".5" d="M245.2 233.5l-14.8-121 82.2-10 14.8 121z"/><path fill="#1f5681" fill-opacity=".5" d="M-30 24.4l-.8-43.8L166-22.8l.8 43.7z"/><path fill-opacity=".5" d="M50.6 87.9l3.3 48.3-81 5.6-3.4-48.3z"/><path fill="#183911" fill-opacity=".5" d="M172.4 193l93.7-3.2.6 15.6-93.7 3.3z"/><path fill="#101700" fill-opacity=".5" d="M422.9 13.7l24 49.2-102.6 50-24-49.2z"/><path fill="#ffd3aa" fill-opacity=".5" d="M129 66.4l-3 7.2-31.6-13.4 3-7.2z"/><path fill="#fdf4f0" fill-opacity=".5" d="M238.6 69.4l-76-9.3 3.5-28 76 9.4z"/><path fill="#020d00" fill-opacity=".5" d="M100.8 130.5v-15.7h50v15.7z"/><path fill="#262f13" fill-opacity=".5" d="M251.4 41.8l45.4-11.3 16 63.6-45.6 11.4z"/><path fill="#546e00" fill-opacity=".5" d="M34.5 61.3l113.5 12-2.8 26.3L31.7 87.7z"/></svg>