<svg xmlns="http://www.w3.org/2000/svg" viewBox="0 0 800 400"><path fill="#697a3c" d="M0 0h800v400H0z"/><g fill-opacity=".5"><path fill="#f5e4ff" d="M461 189L32.7 64l534.4-78z"/><path fill="#031400" d="M848.4 448.4L489.1 86l359.3-40.6z"/><path fill="#000500" d="M192.2 114L-48.4 76.7 14 448.4z"/><path fill="#bbc60d" d="M442.2 120.3L14 448.4l693.7-109.3z"/><path fill="#4576c5" d="M723.4 111l125-159.4L167.2 7.8z"/><path fill="#155bbe" d="M-48.4 92.2L32.8-48.4l262.5 100z"/><path fill="#ffeabe" d="M511 89L270.2 39l134.4 184.4z"/><path fill="#4b6500" d="M379.7 148.4L92.2 129.7 32.8 448.4z"/><path fill="#597f00" d="M829.7 448.4l-209.4-328-178.1 84.3z"/><path fill="#101500" d="M576.6 157.8l243.7 68.8 9.4-197z"/><path fill="#e1c7b0" d="M654.7 57.8L623.4 11 451.6 64.1z"/><path fill="#03025f" d="M426.6 298.4l-53.2 47 109.4-9.5z"/><path fill="#0056a2" d="M714-48.4l134.4 84.3-206.2 43.8z"/><path fill="#ffa543" d="M498.4 142.2l-184.3-18.8 96.8 106.3z"/><path fill="#283100" d="M-4.7 289l462.5-68.7L-39 161z"/><path fill="#a1ca13" d="M248.4 364L54.7 279.8l568.7-75z"/><path fill="#222509" d="M504.7 70.3l3.1 140.6 87.5-146.8z"/><path fill="#4e630c" d="M-32.8 254.7l390.6 193.7-290.6-21.8z"/><path fill="#f8e7d9" d="M192.2 136l178.1-87.6 131.3 72z"/><path fill="#768694" d="M420.3-11L176.6 107.9l-225-40.6z"/><path fill="#2b3a00" d="M607.8 432.8l71.9-87.5 168.7 43.8z"/><path fill="#95b526" d="M642.2 195.3L423.4 286 636 448.4z"/><path fill="#305100" d="M545.3 379.7l-240.6 3.1 131.2 34.4z"/><path fill="#788b8e" d="M623.4 111l-40.6-50L761 57.7z"/><path fill="#63800a" d="M195.3 123.4L23.4 389.1l240.7-206.3z"/><path fill="#c7c95b" d="M298.4 311L486 376.5l-171.8-6.3z"/><path fill="#435109" d="M736 157.8l-187.6-34.4-143.7 115.7z"/><path fill="#091100" d="M-48.4 286l150-22-97-187.4z"/><path fill="#004c8c" d="M-45.3-26.6l-3.1 78.2L235.9-1.6z"/><path fill="#60730a" d="M-42.2 161l256.3-28.2 240.6 112.5z"/><path fill="#141d0e" d="M314 239l-140.6-28 68.8 59.3z"/><path fill="#ddc19a" d="M542.2 317.2l-65.6 50 87.5-21.9z"/><path fill="#ceb587" d="M411 161L214 61l-37.4 56.2z"/><path fill="#00578c" d="M307.8-39l181.3-9.4-15.7 81.2z"/><path fill="#f6962b" d="M357.8 161l131.3 25-112.5 40.6z"/><path fill="#a99788" d="M439 298.4l-121.8 53.2 3.1-37.5z"/><path fill="#5a6e16" d="M795.3 342.2l-256.2-62.5L751.6 264z"/><path fill="#9abd12" d="M307.8 198.4l56.3 59.4-150-81.2z"/><path fill="#3e3f0e" d="M345.3 148.4l-128.1-6.2 150 87.5z"/><path fill="#111400" d="M848.4 61l-290.6 71.8 290.6 6.3z"/><path fill="#f3d08c" d="M489 173.4l9.4-50L357.8 161z"/><path fill="#afb5b6" d="M461 29.7L173.3 57.8l43.8 81.3z"/><path fill="#e0d2bb" d="M470.3-7.8L532.8 39l34.4-15.7z"/><path fill="#f5f5f5" d="M404.7 120.3l81.2-18.7L276.6 39z"/><path fill="#0d1500" d="M26.6 86l-75 46.8 228-15.6z"/><path fill="#005e94" d="M848.4 7.8l-96.8 62.5L620.3-48.4z"/><path fill="#829217" d="M567.2 323.4l-96.9 125 209.4-84.3z"/><path fill="#acaba0" d="M370.3 14l146.9 50-21.9 47z"/><path fill="#c2d909" d="M504.7 239l-128.1 40.7-65.7-37.5z"/><path fill="#739713" d="M217.2 376.6L51.6 317.2 192.2 214z"/><path fill="#202618" d="M607.8 145.3l-115.6-21.9L585.9 61z"/><path fill="#222b09" d="M-23.4 167.2l181.2 68.7 28.1-59.3z"/><path fill="#2c3c03" d="M726.6 67.2l121.8 325-206.2-231.3z"/><path fill="#d0be95" d="M464 307.8l90.7 21.9-31.3-25z"/><path fill="#4a5938" d="M448.4 342.2l-118.7 3.1 65.6-28.1z"/><path fill="#72771e" d="M482.8 226.6h-93.7l175-81.3z"/><path fill="#4d789b" d="M304.7 79.7L210.9-48.4H14.1z"/><path fill="#a09882" d="M704.7 79.7l-34.4 25-50-6.3z"/><path fill="#bca17c" d="M386 448.4h153l68.8-81.2z"/><path fill="#234110" d="M167.2 370.3l75 25-12.5 53.1z"/><path fill="#b0c71a" d="M307.8 448.4l-68.7-153-75 9.3z"/><path fill="#82b50d" d="M489 307.8l9.4-96.9 184.4 18.8z"/><path fill="#b59899" d="M639 339l-15.6 12.6-28-40.7z"/><path fill="#213412" d="M848.4 207.8l-225 46.9 203.2 12.5z"/><path fill="#ffc400" d="M370.3 167.2l75 9.4-56.2 18.7z"/><path fill="#e08c92" d="M439 207.8h-46.8l87.5-31.2z"/><path fill="#cfac78" d="M314 129.7l-96.8 9.4L164 92z"/><path fill="#757777" d="M211 111L92.1 51.5l-115.6 28z"/><path fill="#506b14" d="M295.3 392.2l81.3-3.1-122-37.5z"/><path fill="#bbd410" d="M520.3 270.3l-37.5-37.5L611 267.2z"/><path fill="#466683" d="M673.4-48.4l-178 15.6 78 71.9z"/><path fill="#829621" d="M139 342.2l131.3-25-140.6 75z"/><path fill="#897715" d="M461 242.2l-112.6-56.3-53 25z"/><path fill="#5b751d" d="M448.4 279.7L511 264l53.2 28z"/><path fill="#324312" d="M-48.4 432.8l203-118.7-87.4 90.6z"/><path fill="#537f09" d="M567.2 382.8l56.2-50-121.8 46.9z"/><path fill="#ffe195" d="M382.8 170.3l-50-31.2 140.6 12.5z"/><path fill="#e8c9cd" d="M323.4 336l-18.7 3 50 25z"/><path fill="#4b650c" d="M161 254.7L61 317.2l-72-25z"/><path fill="#d8cb59" d="M229.7 339l68.7-25-68.7 50z"/><path fill="#c6b781" d="M292.2 389l118.7 59.4 31.3-43.7z"/><path fill="#aeba25" d="M536 332.8l-68.8 34.4 25-100z"/><path fill="#cec5b9" d="M570.3 54.7L623.4 14l-3 43.7z"/><path fill="#b18f62" d="M498.4 123.4l3.2 22h-78.2z"/><path fill="#212734" d="M473.4 320.3l-18.7 21.9-46.9-31.3z"/><path fill="#262c27" d="M592.2 61L514 76.5l-12.5 78z"/><path fill="#928f8a" d="M595.3 76.6l59.4 25-46.9 3z"/><path fill="#3e520b" d="M351.6 214L289 136l-87.5 25z"/><path fill="#6a8911" d="M342.2 217.2l-68.8-37.5-90.6 34.4z"/><path fill="#050703" d="M848.4 42.2l-146.8 50 118.7 31.2z"/><path fill="#1e2f02" d="M167.2 136l62.5 9.3-68.8-34.4z"/><path fill="#78970e" d="M248.4 186l-59.3-37.6-90.7 9.4z"/><path fill="#50747f" d="M495.3 23.4l37.5 15.7-87.5 3z"/><path fill="#2b4200" d="M114 157.8l-162.4-12.5 165.6-40.6z"/><path fill="#5c8d10" d="M667.2 251.6l59.4-68.8-197 43.8z"/><path fill="#cac081" d="M442.2 354.7l-37.5 18.7 78.1-12.5z"/><path fill="#6c8b13" d="M626.6 429.7l93.7-168.8-59.4-3z"/><path fill="#5c700d" d="M417.2 236l78.1-81.3 112.5 6.2z"/><path fill="#3c520d" d="M811 211l-147-12.6 31.3 65.7z"/><path fill="#6a901a" d="M286 267.2l-122 25-59.3-59.4z"/></g></svg>