<svg xmlns="http://www.w3.org/2000/svg" viewBox="0 0 400 200"><path fill="#697a3c" d="M0 0h400v200H0z"/><ellipse fill="#d6d1ff" fill-opacity=".5" rx="1" ry="1" transform="rotate(179.1 87.8 12) scale(100.01966 56.52604)"/><ellipse fill="#051600" fill-opacity=".5" rx="1" ry="1" transform="rotate(-73.1 238.4 -199.7) scale(46.68534 114.50904)"/><ellipse fill="#000a00" fill-opacity=".5" rx="1" ry="1" transform="matrix(-42.42803 -40.68701 58.42017 -60.92 7 118)"/><ellipse fill="#ded31f" fill-opacity=".5" rx="1" ry="1" transform="matrix(-69.66145 85.63974 -27.64932 -22.49063 171.8 147.8)"/><ellipse fill="#3b7ade" fill-opacity=".5" rx="1" ry="1" transform="matrix(17.02896 44.94309 -63.87242 24.2013 341.5 .8)"/><ellipse fill="#1c5bb0" fill-opacity=".5" rx="1" ry="1" transform="rotate(83.2 -2.7 20.6) scale(21.33471 254.42685)"/><ellipse fill="#fff9d0" fill-opacity=".5" rx="1" ry="1" transform="matrix(-8.45449 27.08547 -46.619 -14.5517 201.9 60.4)"/><ellipse fill="#95b906" fill-opacity=".5" rx="1" ry="1" transform="matrix(24.29815 62.24388 -54.77025 21.38067 280.8 146.7)"/><ellipse fill="#243400" fill-opacity=".5" rx="1" ry="1" transform="rotate(86.9 128.1 278.4) scale(108.59444 76.46486)"/><ellipse fill="#648100" fill-opacity=".5" rx="1" ry="1" transform="matrix(-75.9918 78.41745 -36.69656 -35.56144 95.5 153.8)"/><ellipse fill="#acd115" fill-opacity=".5" rx="1" ry="1" transform="matrix(7.04859 19.97188 -74.68994 26.35998 148.5 148.8)"/><ellipse fill="#3b4901" fill-opacity=".5" rx="1" ry="1" transform="rotate(176.5 61.6 52.7) scale(46.91887 32.00441)"/><ellipse fill="#004e93" fill-opacity=".5" rx="1" ry="1" transform="matrix(11.68724 27.89308 -52.87048 22.15281 385.7 .8)"/><ellipse fill="#beaf9c" fill-opacity=".5" rx="1" ry="1" transform="matrix(-14.92511 6.25686 -9.9661 -23.77312 308.6 30.9)"/><ellipse fill="#383e07" fill-opacity=".5" rx="1" ry="1" transform="matrix(91.82815 -20.52602 1.73834 7.77689 276.9 98.2)"/><ellipse fill="#c0c63e" fill-opacity=".5" rx="1" ry="1" transform="rotate(76.8 15.2 245) scale(12.6983 65.83685)"/><ellipse fill="#263300" fill-opacity=".5" rx="1" ry="1" transform="matrix(15.36178 40.39321 -64.20666 24.41818 33.2 96.9)"/><ellipse fill="#8891a9" fill-opacity=".5" rx="1" ry="1" transform="matrix(-56.61663 -5.61025 1.59151 -16.06094 63.7 36.6)"/><ellipse fill="#ffae58" fill-opacity=".5" rx="1" ry="1" transform="rotate(176.4 103.1 46.1) scale(29.36884 21.10581)"/><ellipse fill="#ffe0c2" fill-opacity=".5" rx="1" ry="1" transform="matrix(-1.1387 -12.27474 76.80187 -7.1247 175.4 55.5)"/><ellipse fill="#333250" fill-opacity=".5" rx="1" ry="1" transform="matrix(.57012 11.25434 -26.9949 1.3675 216.5 164)"/><ellipse fill="#050600" fill-opacity=".5" rx="1" ry="1" transform="rotate(151.4 193.1 79.1) scale(42.79536 29.27778)"/><ellipse fill="#678b15" fill-opacity=".5" rx="1" ry="1" transform="rotate(151.9 150.7 111.8) scale(25.77035 46.94642)"/><ellipse fill="#222901" fill-opacity=".5" rx="1" ry="1" transform="matrix(37.49855 -4.07365 2.14142 19.71208 17.3 199.5)"/><ellipse fill="#6e850e" fill-opacity=".5" rx="1" ry="1" transform="matrix(73.887 20.87397 -2.91707 10.32546 117.8 97.2)"/></svg>