<svg xmlns="http://www.w3.org/2000/svg" viewBox="0 0 128 64"><path fill="#6b7a3f" d="M0 0h128v64H0z"/><g fill-opacity=".5"><path fill="#f7e4ff" d="M93.5-8.5l-19 38-61-17z"/><path fill="#061500" d="M79.5 13.5l64 66v-73z"/><path fill="#000500" d="M30.5 18.5l-46-8 16 62z"/><path fill="#abc70e" d="M-.5 46.5l101 33 6-49z"/><path fill="#3e76d0" d="M-15.5 8.5l159 1-68-25z"/><path fill="#ffefb1" d="M80.5 13.5l-15 23-21-31z"/><path fill="#394b00" d="M58.5 24.5l-68-10 3 65z"/><path fill="#a1a8c2" d="M101.5 16.5l16-5-43-16z"/><path fill="#f2a722" d="M58.5 20.5l-1 27 23-25z"/><path fill="#00529d" d="M103.5 12.5l40-7-31-18z"/><path fill="#516d05" d="M79.5 15.5l64 45-25 19z"/><path fill="#336298" d="M28.5-15.5l2 31-46-5z"/><path fill="#0f1400" d="M143.5 50.5l-2-50-40 20z"/><path fill="#adcb21" d="M18.5 45.5l76-12-53 26z"/><path fill="#160a4e" d="M79.5 54.5l-10-7-8 6z"/><path fill="#efddd7" d="M73.5 17.5l-44 4 35-18z"/><path fill="#22360c" d="M50.5 60.5h33l-1 9z"/><path fill="#000002" d="M3.5 26.5l-19 21 34-7z"/><path fill="#5a6704" d="M27.5 41.5l-10-21 57 15z"/><path fill="#c9cd4d" d="M81.5 59.5l20-12-41 10z"/><path fill="#333e06" d="M108.5 23.5l-26-13-5 26z"/><path fill="#b6ab9d" d="M68.5 11.5l16-11 16 8z"/><path fill="#004883" d="M-15.5 5.5l17-21 23 19z"/><path fill="#0e180f" d="M31.5 34.5l15 1-4 8z"/><path fill="#718c11" d="M42.5 79.5l-13-43-25 16z"/><path fill="#0d5679" d="M23.5-14.5l55 20-10-21z"/><path fill="#929390" d="M42.5 19.5l-13-14-30 5z"/><path fill="#b9b161" d="M64.5 46.5l-3 12-23-5z"/><path fill="#9d9f9d" d="M76.5 13.5l-30-9 60-2z"/><path fill="#f4c374" d="M74.5 32.5l5-11-37-4z"/><path fill="#333e0b" d="M136.5 60.5l-26-5-21 20z"/><path fill="#9ab81b" d="M84.5 33.5l-51 9 78 11z"/><path fill="#fffaf8" d="M64.5 10.5l15 9-24-1z"/><path fill="#080900" d="M4.5 20.5l-20-8 36 4z"/><path fill="#a6bc19" d="M53.5 31.5l-18 27 11 16z"/><path fill="#1f2022" d="M82.5 12.5l26 14-15-17z"/><path fill="#657f10" d="M8.5 25.5l55 12-32-17z"/><path fill="#6a7609" d="M64.5 39.5l33-15-18 1z"/><path fill="#657a21" d="M124.5 52.5l-41-8 32-3z"/><path fill="#0b6299" d="M118.5 12.5l-13-20 30 4z"/><path fill="#99c812" d="M101.5 43.5l-40-4 33-6z"/><path fill="#6e8a96" d="M109.5 15.5l-16 1 28-10z"/><path fill="#385670" d="M105.5-9.5l-44-6 31 20z"/><path fill="#dcbc88" d="M48.5 21.5l-17-2 14-6z"/><path fill="#ffa125" d="M62.5 35.5l9-7-14-3z"/><path fill="#bcc155" d="M86.5 55.5l7-9h-24z"/><path fill="#6f7e89" d="M35.5 7.5l25-3 5-20z"/><path fill="#6f8021" d="M118.5 48.5l-41 12 26 1z"/><path fill="#334309" d="M95.5 20.5l27 2 21 43z"/><path fill="#304a00" d="M28.5 57.5l27 14h-24z"/><path fill="#cbc3bd" d="M88.5 9.5l13-9-1 6z"/><path fill="#4e4e0e" d="M36.5 23.5l19-1 3 15z"/><path fill="#a4aeb4" d="M29.5 18.5l3-12 25 6z"/><path fill="#0d120e" d="M48.5 39.5h-15l13-5z"/><path fill="#cbd453" d="M56.5 59.5l-12-6 27 4z"/><path fill="#1b2005" d="M-5.5 31.5l33 5-8-10z"/><path d="M143.5-3.5l-25 19 23 6z"/><path fill="#b1d015" d="M69.5 39.5l-17-2-23 15z"/><path fill="#88a420" d="M43.5 34.5l14 1-25-9z"/><path fill="#3e4e0b" d="M22.5 51.5l-38 20 27 8z"/><path fill="#6aa519" d="M113.5 38.5l-32-1 16-5z"/><path fill="#404146" d="M73.5 49.5l-1 5-18-2z"/><path fill="#6f9320" d="M39.5 42.5l-22-6 10 12z"/><path fill="#aca176" d="M96.5 59.5l-74 20h54z"/><path fill="#69702c" d="M42.5 56.5l76 23h-49z"/><path fill="#c5cc83" d="M46.5 62.5l58 4-9 13z"/><path fill="#cfccc8" d="M76.5-2.5l-1-13 15 25z"/><path fill="#f5cc9e" d="M53.5 18.5l24 7h-20z"/><path fill="#9ba847" d="M104.5 52.5l-3 6-15-15z"/><path fill="#a4986f" d="M56.5 47.5l-6 8 18-8z"/><path fill="#9db422" d="M33.5 49.5l-9-6-1 16z"/><path fill="#477086" d="M74.5 2.5l10 3-10 2z"/><path fill="#202603" d="M16.5 20.5l-14-5 25 2z"/><path fill="#23242a" d="M81.5 16.5v8l13-14z"/><path fill="#243218" d="M143.5 42.5v-11l-40 9z"/><path fill="#e3e3e7" d="M76.5 14.5l-31-8 10 9z"/><path fill="#72631f" d="M58.5 37.5l26-11-8 9z"/><path fill="#004f86" d="M27.5-.5l-6-15-27 19z"/><path fill="#343d0f" d="M28.5 28.5l-13 11-7-13z"/><path fill="#bcba7d" d="M80.5 57.5l4-7 6 4z"/><path fill="#d7bf6e" d="M35.5 20.5l11-2 10 4z"/><path fill="#c0cb1e" d="M38.5 56.5l15 11-4 12z"/><path fill="#242105" d="M34.5 21.5h-10l-7-6z"/><path fill="#536b7c" d="M109.5 14.5l13-5h-28z"/><path fill="#51779a" d="M47.5-15.5l-39 27 98-21z"/><path fill="#005a9c" d="M117.5 8.5l17-11-21-13z"/><path fill="#719020" d="M34.5 44.5l-29 14 21-22z"/><path fill="#132008" d="M29.5 40.5l12-3-9-2z"/><path fill="#4d6812" d="M124.5 34.5l-35-8 17 9z"/><path fill="#9eaa00" d="M84.5 52.5l-8 3 3-5z"/><path fill="#4d6479" d="M-15.5 5.5l18 8 14-10z"/><path fill="#cca64e" d="M64.5 20.5h-8l-3 3z"/><path fill="#bfb1b8" d="M79.5 17.5l1-4-5-1z"/><path fill="#5c750f" d="M12.5 27.5l-17-1 8-2z"/><path fill="#7d9000" d="M54.5 54.5l6 2-2-4z"/><path fill="#465d1b" d="M110.5 47.5l-6-4-11 2z"/><path fill="#a97b1f" d="M68.5 36.5l-13-7 2 5z"/><path fill="#c7ab87" d="M28.5 16.5l12 6-3-8z"/><path fill="#14110c" d="M110.5 16.5l-21 3 13 2z"/><path fill="#364a07" d="M35.5 26.5l12 2-2-6z"/></g></svg>