<svg xmlns="http://www.w3.org/2000/svg" viewBox="0 0 400 200"><path fill="#697a3c" d="M0 0h400v200H0z"/><g stroke-opacity=".5" fill="none" stroke-width=".8"><path stroke="#fde7ff" d="M27 32.6q190.4 69.7 327-56.8"/><path stroke="#fff7ff" d="M40.3 43Q242 91 275 5.4"/><path stroke="#fff1ff" d="M320.2 21.8q-213 56.5-238.3 4"/><path stroke="#eedeff" d="M372-21.7Q227.4 87.9 47 37.7"/><path stroke="#fffbff" d="M305.4-24.2q-89.7 148.5-220 45.9"/><path stroke="#e9deff" d="M329.2 10.8q-92.4 34.1-290 31.6"/><path stroke="#f2e8ff" d="M46 27.4q151.8 48.1 232.3-15.8"/><path stroke="#fff6ff" d="M81.8 10.7q142.3 102 193.2-.7"/><path stroke="#fff3ff" d="M234.2 92.3q-11-96-188.8-43.6"/><path stroke="#ffe6fc" d="M291.2 4.3Q150.2 114 55 32.3"/><path stroke="#dcd7ff" d="M331.5 13.3Q157.1 75 53.3 16.2"/><path stroke="#004fdc" d="M6.2 9.9q55.4-22 407.8-.4"/><path stroke="#fff" d="M249.3 68.7Q148.6-13.5 97.5 61m164.3-85.2q12.6 101-170.7 73.8m-11.7-8.8q155.2-19.7 166.6 42"/><path stroke="#fffdff" d="M267.5-14.2Q264.5 89 94.1 54.2"/><path stroke="#eadbff" d="M323.9 7.9q-90.6 42-258 39.3"/><path stroke="#fff6ff" d="M229.2 101.1Q233.5 13.8 58 33"/><path stroke="#f1edff" d="M62.5 27.3Q244.2 15.4 237 88.1"/><path stroke="#fff" d="M76 44q71.8-1.5 174.3 14.6"/><path stroke="#1666e2" d="M.3 7q424 .2 424 4.3"/><path stroke="#ffede8" d="M280-24.2Q256.3 103.5 93.7 54.9"/><path stroke="#fffcfa" d="M102.5 63.2q135 28.4 158.9-81"/><path stroke="#b9bdf7" d="M337.5 12.8Q1.9 70.5-24.2 9.4"/><path stroke="#0e5edd" d="M-24.2 4.1q365.6-.7 448.4.1"/></g></svg>