<svg xmlns="http://www.w3.org/2000/svg" viewBox="0 0 400 200"><path fill="#697a3c" d="M0 0h400v200H0z"/><g transform="translate(.8 .8) scale(1.5625)" fill-opacity=".5"><ellipse fill="#efdfff" cx="124" cy="8" rx="49" ry="49"/><ellipse fill="#000300" cx="253" cy="61" rx="45" ry="45"/><ellipse cx="11" cy="64" rx="37" ry="37"/><ellipse fill="#b2c10b" cx="140" cy="127" rx="75" ry="75"/><ellipse fill="#4c78cf" cx="51" rx="39" ry="39"/><ellipse fill="#2e70d6" cx="216" rx="34" ry="34"/><ellipse fill="#131f00" cx="182" cy="44" rx="25" ry="25"/><ellipse fill="#ffe4a3" cx="133" cy="42" rx="25" ry="25"/><ellipse fill="#e8d2c5" cx="75" cy="29" rx="16" ry="16"/><ellipse fill="#3e4e00" cx="92" cy="64" rx="22" ry="22"/><ellipse fill="#3d5500" cx="42" cy="66" rx="34" ry="34"/><ellipse fill="#405a00" cx="239" cy="99" rx="40" ry="40"/><ellipse fill="#80a400" cx="50" cy="103" rx="28" ry="28"/><ellipse fill="#222d00" cy="95" rx="40" ry="40"/><ellipse fill="#5f82af" cx="156" rx="28" ry="28"/><ellipse fill="#1151a3" cx="10" rx="28" ry="28"/><ellipse fill="#0052a2" cx="237" rx="22" ry="22"/><ellipse fill="#cfbaaf" cx="194" cy="14" rx="12" ry="12"/><ellipse fill="#1e2c00" cx="232" cy="53" rx="29" ry="29"/><ellipse fill="#fff9f6" cx="115" cy="29" rx="14" ry="14"/><ellipse fill="#02005d" cx="136" cy="104" rx="8" ry="8"/><ellipse fill="#b7cf33" cx="106" cy="96" rx="21" ry="21"/><ellipse fill="#3d6190" cx="105" rx="16" ry="16"/><ellipse fill="#77a315" cx="198" cy="88" rx="29" ry="29"/><ellipse fill="#ffa133" cx="128" cy="55" rx="15" ry="15"/></g></svg>