<svg xmlns="http://www.w3.org/2000/svg" viewBox="0 0 800 400"><path fill="#697a3c" d="M0 0h800v400H0z"/><g fill-opacity=".5"><path fill="#fbe7ff" d="M557.8-11l-93.7 203.2-418.8-125z"/><path fill="#031300" d="M836 429.7l12.4-381.3-359.3 40.7z"/><path fill="#000400" d="M192.2 117.2L7.8 448.4-10.9 79.7z"/><path fill="#c0ca0f" d="M104.7 376.6l587.5 3-246.9-256.2z"/><path fill="#4c79c4" d="M107.8 1.6l740.6-50L676.6 114z"/><path fill="#185dc0" d="M292.2 54.7L29.7-48.4-42.2 89z"/><path fill="#4b6500" d="M-20.3 448.4l146.9-343.7 256.2 90.6z"/><path fill="#ffebc2" d="M276.6 39L389 214 510.9 79.8z"/><path fill="#5f8300" d="M848.4 339l-225 109.4-125-334.3z"/><path fill="#0054ae" d="M848.4 17.2L607.8-48.4 723.4 82.8z"/><path fill="#a7ca1a" d="M479.7 229.7l-384.4 50 175 131.2z"/><path fill="#010354" d="M489 329.7l-65.6-31.3-40.6 53.2z"/><path fill="#2b3500" d="M461 220.3L542.1 61l306.2 106.3z"/><path fill="#e4cbb7" d="M670.3 61l-53.1-43.8-137.5 40.6z"/><path fill="#ffa242" d="M411 229.7L304.6 123.4l200 12.5z"/><path fill="#0b0e00" d="M7.8 289l200-84.3L-32.8 164z"/><path fill="#94b920" d="M401.6 239l256.2-53-68.7 262.4z"/><path d="M617.2 136L848.4 23.3V136z"/><path fill="#3e4702" d="M386 229.7L151.5 264l178-125z"/><path fill="#fae9da" d="M376.6 54.7l-178.2 81.2 297-15.6z"/><path fill="#798895" d="M195.3 111L376.6-4.8l-425 75z"/><path fill="#343c0e" d="M582.8 448.4l265.6-240.6v237.5z"/><path fill="#829292" d="M592.2 82.8l181.2-28.1L639.1 114z"/><path fill="#5c7408" d="M26.6 379.7l296.8 68.7-234.3-175z"/><path fill="#5d7504" d="M320.3 142.2l15.6 93.7-340.6-75z"/><path fill="#a99785" d="M292.2 311l28.1 46.8 112.5-56.2z"/><path fill="#14160b" d="M614 126.6l-103-47 75-21.8z"/><path fill="#bbba55" d="M557.8 298.4l-178.1 78.2 271.9-40.7z"/><path fill="#5b4113" d="M526.6 189l-203.2 37.6 100 12.5z"/><path fill="#065b93" d="M476.6-48.4l6.2 84.3-131.2-50z"/><path fill="#004782" d="M186 4.7L-48.5 48.4l78-96.8z"/><path fill="#000405" d="M223.4 214l84.4 31.3-125 6.3z"/><path fill="#ffad24" d="M507.8 161l-140.6 59.3-9.4-46.9z"/><path fill="#142000" d="M-48.4 170.3l234.3-56.2-234.3-40.7z"/><path fill="#cdaa77" d="M211 136l-72-59.4L345.4 139z"/><path fill="#3f6100" d="M423.4 448.4l-46.8-50 243.7-46.8z"/><path fill="#92b216" d="M195.3 167.2l156.3 90.6-40.7-62.5z"/><path fill="#005f92" d="M848.4 36L642.2 64l125-112.4z"/><path fill="#ddd1c0" d="M470.3-4.7l68.8 43.8 28-18.8z"/><path fill="#404613" d="M286 242.2l71.8-87.5-100-21.9z"/><path fill="#b1babc" d="M295.3 111l171.9-81.3-296.9 28.1z"/><path fill="#fde18f" d="M495.3 139l-143.7 18.8 125 25z"/><path fill="#36403d" d="M461 345.3l-118.8-6.2 87.5-34.4z"/><path fill="#6b8c13" d="M92.2 345.3l193.7-93.7L1.6 285.9z"/><path fill="#cace51" d="M467.2 367.2l-140.6 6.2-31.3-50z"/><path fill="#202e00" d="M807.8 104.7l40.6 250-203-246.9z"/><path fill="#5c7f0c" d="M711 245.3L592.1 136 464 183z"/><path fill="#f8f6f5" d="M470.3 92.2L292.2 48.4l118.7 78.2z"/><path fill="#50690d" d="M248.4 354.7l122 65.6 109.3-18.7z"/><path fill="#e0b8d2" d="M548.4 339l-6.2-21.8-34.4 43.7z"/><path fill="#232722" d="M686 126.6L507.7 73.4l-9.4 65.7z"/><path fill="#cacb2d" d="M376.6 401.6L314 448.4l-81.3-78z"/><path fill="#6e9f08" d="M192.2 229.7L89 232.8l109.3 43.8z"/><path fill="#a6a192" d="M504.7 101.6l9.4-50-178.2-18.8z"/><path fill="#a38c61" d="M542.2 439l109.4-106.2-143.8 75z"/><path fill="#516608" d="M267.2 142.2L64 120.3 176.6 236z"/><path fill="#506a18" d="M661 304.7l-125-21.9 168.7-15.6z"/><path fill="#33450e" d="M79.7 448.4l62.5-128-171.9 106.2z"/><path fill="#98c605" d="M645.3 273.4l-281.2-21.8 215.6-43.8z"/><path fill="#0b1000" d="M-48.4 136l40.6 140.6L126.6 264z"/><path fill="#648b0a" d="M517.2 398.4l68.7-78 40.7 31.2z"/><path fill="#a8c413" d="M223.4 389L311 229.8l128.2 21.9z"/><path fill="#92851e" d="M414 223.4l-56.2-40.6-65.6 37.5z"/><path fill="#eb9388" d="M457.8 198.4l21.9-34.3-87.5 53z"/><path fill="#7e9c10" d="M245.3 189L111 157.9l65.7-15.6z"/><path fill="#737a7d" d="M136 51.6l-172 28 237.6 25z"/><path fill="#2d350b" d="M45.3 276.6l137.5-93.8-103.1-18.7z"/><path fill="#4d720b" d="M189 426.6L164 364l59.4-43.8z"/><path fill="#62751e" d="M726.6 367.2L617.2 235.9l175 100z"/><path fill="#467495" d="M295.3 76.6l-75-100-203.1-25z"/><path fill="#213511" d="M626.6 254.7l134.3 12.5 87.5-53.1z"/><path fill="#b0c231" d="M529.7 339l-146.9-56.2 156.3 9.4z"/><path fill="#dfc188" d="M295.3 101.6l-87.5 25 206.3 21.8z"/><path fill="#6ca514" d="M586 261l-128.2-50L686 232.7z"/><path fill="#9abe0d" d="M173.4 286l-100 25 184.4 9.3z"/><path fill="#c7bfb4" d="M623.4 7.8l9.4 43.8-71.9 9.3z"/><path fill="#677f8d" d="M673.4-20.3l-75 118.7 56.3 6.3z"/><path fill="#5b7b17" d="M442.2 279.7l71.9-18.8 34.3 28.2z"/><path fill="#e9d474" d="M229.7 342.2l43.7-15.6-25 25z"/><path fill="#ffba00" d="M417.2 167.2H364l53 28.1z"/><path fill="#bea1a3" d="M626.6 348.4l18.7-3-50-34.5z"/><path fill="#476682" d="M595.3-45.3l-18.7 96.9-75-100z"/><path fill="#8fab1c" d="M551.6 339l131.2-9.3-18.7-34.4z"/><path fill="#9a9a32" d="M176.6 332.8l-43.8 9.4 12.5 103.1z"/><path fill="#c6aca9" d="M311 339l28 22 3.2-40.7z"/><path fill="#85a700" d="M364 357.8l62.6-9.4-97-12.5z"/><path fill="#376b8b" d="M626.6-17.2l40.6 84.4 93.7 6.2z"/><path fill="#464c18" d="M420.3 217.2l21.9 21.9 53.1-40.7z"/><path fill="#313e11" d="M276.6 139l-59.4 25 125 6.3z"/><path fill="#4c7487" d="M539 42.2L454.8 39l12.5-25z"/><path fill="#7ca311" d="M229.7 182.8l65.6 6.3-50 37.5z"/><path fill="#9aad00" d="M536 336l-90.7 25 65.6-43.8z"/><path fill="#d4b07b" d="M498.4 126.6L361 123.4 476.6 161z"/><path fill="#7a9d0b" d="M629.7 261l75 3-15.6 28.2z"/><path fill="#00588c" d="M-32.8 1.6l103.1-50 78.1 78z"/><path fill="#b8ac9e" d="M561 23.4l-40.7 28.2 43.8 18.7z"/><path fill="#466406" d="M792.2 220.3l-115.6 6.3-62.5-47z"/><path fill="#d6bac3" d="M554.7 326.6L489 307.8h34.3z"/><path fill="#181d07" d="M220.3 139l-62.5-34.3-78.1 6.2z"/><path fill="#81a3b1" d="M173.4 26.6v43.7h147z"/></g></svg>