<svg xmlns="http://www.w3.org/2000/svg" viewBox="0 0 400 200"><path fill="#697a3c" d="M0 0h400v200H0z"/><g transform="translate(.8 .8) scale(1.5625)" fill-opacity=".5"><ellipse fill="#d4d1ff" cx="112" cy="7" rx="67" ry="42"/><ellipse fill="#000900" cx="255" cy="58" rx="60" ry="39"/><ellipse fill="#051400" cy="60" rx="79" ry="32"/><ellipse fill="#fff6ad" cx="133" cy="42" rx="26" ry="25"/><ellipse fill="#9bb103" cx="133" cy="95" rx="100" ry="41"/><ellipse fill="#3770bd" cx="120" cy="5" rx="255" ry="17"/><ellipse fill="#111e00" cx="180" cy="44" rx="22" ry="25"/><ellipse fill="#435100" cx="74" cy="63" rx="45" ry="20"/><ellipse fill="#1a2600" cx="7" cy="96" rx="27" ry="69"/><ellipse fill="#243600" cx="245" cy="100" rx="34" ry="84"/><ellipse fill="#f8e6db" cx="113" cy="27" rx="39" ry="14"/><ellipse fill="#ddc3ad" cx="184" cy="13" rx="25" ry="8"/><ellipse fill="#005aa5" cx="230" rx="26" ry="27"/><ellipse fill="#bed234" cx="105" cy="98" rx="23" ry="22"/><ellipse fill="#ffb45d" cx="131" cy="53" rx="19" ry="15"/><ellipse fill="#17115d" cx="135" cy="105" rx="16" ry="7"/><ellipse fill="#8f98af" cx="56" cy="24" rx="48" ry="9"/><ellipse fill="#054a7f" cx="26" cy="1" rx="63" ry="12"/><ellipse fill="#7088c3" cx="207" cy="27" rx="18" ry="7"/><ellipse fill="#b0cc2d" cx="167" cy="93" rx="19" ry="25"/><ellipse fill="#00000b" cx="78" cy="75" rx="17" ry="7"/><ellipse fill="#638003" cx="28" cy="105" rx="20" ry="19"/><ellipse fill="#ffcc84" cx="89" cy="40" rx="27" ry="5"/><ellipse fill="#67920a" cx="181" cy="72" rx="39" ry="22"/><ellipse fill="#5d710b" cx="67" cy="53" rx="48" ry="10"/></g></svg>