<svg xmlns="http://www.w3.org/2000/svg" viewBox="0 0 400 200"><path fill="#697a3c" d="M0 0h400v200H0z"/><g transform="translate(.8 .8) scale(1.5625)" fill-opacity=".5"><ellipse fill="#d7d3ff" cx="111" cy="13" rx="64" ry="36"/><ellipse fill="#032412" cx="238" cy="61" rx="35" ry="71"/><ellipse fill="#111f00" rx="1" ry="1" transform="matrix(-92.85462 -7.46982 2.28713 -28.43044 10.4 58)"/><ellipse fill="#a4b50b" rx="1" ry="1" transform="matrix(92.27075 3.95766 -2.39235 55.77628 131 100.5)"/><ellipse fill="#ffeabd" rx="1" ry="1" transform="matrix(-13.4279 20.9161 -23.37803 -15.00843 131.2 40)"/><ellipse fill="#4887e8" cx="213" rx="44" ry="29"/><ellipse fill="#1c5aaf" rx="1" ry="1" transform="matrix(2.67044 16.4878 -221.30317 35.8433 65.1 2.5)"/><path fill="#161d00" d="M161 25h95v42h-95z"/><ellipse fill="#152000" rx="1" ry="1" transform="matrix(-.75642 65.33228 -24.44299 -.283 9.1 92.8)"/><ellipse fill="#405205" cx="71" cy="63" rx="46" ry="21"/><ellipse fill="#b7d026" rx="1" ry="1" transform="matrix(-34.58908 16.4608 -7.97433 -16.75646 101.6 98.6)"/><ellipse fill="#f5d6b0" rx="1" ry="1" transform="matrix(34.30207 -.97182 .28684 10.12461 92.2 35.3)"/><ellipse fill="#919297" rx="1" ry="1" transform="matrix(-28.6486 -8.30072 3.5507 -12.25464 199.8 19.9)"/><path fill="#201b62" d="M105 107l45-11-2 13z"/><ellipse fill="#8990a8" rx="1" ry="1" transform="rotate(6.2 -198 395.2) scale(38.88448 9.43756)"/><path fill="#ffad40" d="M144.3 38.2l10 15-30.6 20.6-10-15z"/><path fill="#131918" d="M163 20h30v25h-30z"/><ellipse fill="#627e03" rx="1" ry="1" transform="rotate(-56.1 126 19.2) scale(18.34695 36.61053)"/><ellipse fill="#546c07" rx="1" ry="1" transform="matrix(-21.01033 7.07076 -18.89177 -56.13577 224 104.5)"/><ellipse fill="#c8d349" rx="1" ry="1" transform="rotate(-114.6 119.2 -.7) scale(8.21005 26.75282)"/><ellipse fill="#fdf7f8" rx="1" ry="1" transform="rotate(111.6 51.5 56.1) scale(7.43521 31.99468)"/><path fill="#005c95" d="M271 11.6l-66.5 14.6L223-16h34.8z"/><ellipse fill="#98a1a8" cx="146" cy="13" rx="62" ry="9"/><path fill="#72940c" d="M66 59l42.6 18.3-35.2-32.7-88.5 8z"/><path fill="#000008" d="M63 71h32v10H63z"/></g></svg>