<svg xmlns="http://www.w3.org/2000/svg" viewBox="0 0 256 128"><path fill="#6b7a3f" d="M0 0h256v128H0z"/><g fill-opacity=".5"><path fill="#ffe8ff" d="M179.5-5.5l-159 28 127 40z"/><path fill="#061500" d="M271.5 141.5v-126l-116 14z"/><path fill="#1e2f00" d="M-5.5 143.5l121-92-125-29z"/><path fill="#b0cd10" d="M205.5 139.5l-212-46 221-31z"/><path fill="#4878cb" d="M271.5-10.5l-210 12 161 34z"/><path fill="#2161c8" d="M.5-15.5l1 45 102-17z"/><path fill="#ffedaf" d="M161.5 29.5l-75-18 43 62z"/><path fill="#141c00" d="M55.5 35.5l-64-10 5 118z"/><path fill="#fea22d" d="M105.5 41.5l59 2-36 35z"/><path fill="#0051a3" d="M223.5-15.5l48 28-61 11z"/><path fill="#f3d3bf" d="M152.5 19.5l46-15 11 13z"/><path fill="#506d04" d="M157.5 40.5l114 57-39 46z"/><path fill="#b6c81b" d="M134.5 67.5l-91 43 56 22z"/><path fill="#727b08" d="M102.5 42.5l38 36-145-28z"/><path fill="#0f1400" d="M200.5 40.5l70-32 1 85z"/><path fill="#1a105b" d="M155.5 109.5l-46-1 33-12z"/><path fill="#fce4d7" d="M59.5 43.5l65-26 36 24z"/><path fill="#150d10" d="M158.5 52.5l33-32-28 4z"/><path fill="#7d8b9a" d="M128.5-1.5l-142 24 77 13z"/><path fill="#6d8a0b" d="M6.5 111.5l54-47 12 79z"/><path fill="#495415" d="M248.5 143.5l23-40-148 22z"/><path d="M62.5 79.5l31-10 4 11z"/><path fill="#ccc956" d="M155.5 118.5l43-18-49-9z"/><path fill="#beb270" d="M131.5 96.5l-43 5 26 20z"/><path fill="#4f5d00" d="M171.5 42.5l-43 34 83-20z"/><path fill="#004a89" d="M-7.5 14.5l85-15-80-15z"/><path fill="#9fce0c" d="M112.5 83.5l90 4-7-24z"/><path fill="#8c908a" d="M241.5 17.5l-33 19-19-7z"/><path fill="#095a8a" d="M156.5 13.5l-33-15 26-14z"/><path fill="#030301" d="M-11.5 43.5l-4 48 53-8z"/><path fill="#c6b365" d="M179.5 140.5l24-27-42 16z"/><path fill="#e1d1be" d="M177.5 5.5l-2 12-23-19z"/><path fill="#d0af77" d="M115.5 43.5l-49 1-12-18z"/><path fill="#ffbb0f" d="M114.5 65.5l39-10-37-2z"/><path fill="#056298" d="M270.5 1.5l-32 23-41-40z"/><path fill="#f1f2fc" d="M158.5 32.5l-31 7-39-26z"/><path fill="#6f910f" d="M27.5 42.5l38-1 41 34z"/><path fill="#fee394" d="M118.5 51.5l35 5 6-13z"/><path fill="#2c3909" d="M242.5 35.5l29 74-102-75z"/><path fill="#d6d057" d="M91.5 109.5l65 6-35 6z"/><path fill="#3a3d14" d="M108.5 45.5l3 24-37-22z"/><path fill="#c6dc08" d="M148.5 79.5l-50-6 10 13z"/><path fill="#1f2215" d="M195.5 40.5l-9-22-29 31z"/><path fill="#637822" d="M174.5 90.5l81 18-33-25z"/><path fill="#49610a" d="M83.5 117.5l73 7-6 19z"/><path fill="#384a09" d="M48.5 100.5l-64 39 42 4z"/><path fill="#b0b7bd" d="M143.5 7.5l-59 33-22-22z"/><path fill="#a3c017" d="M57.5 99.5l33 44 8-64z"/><path fill="#e3bd7c" d="M152.5 57.5l-62-16 69-2z"/><path fill="#92a22a" d="M193.5 94.5l29 9-27 29z"/><path fill="#0a0b04" d="M266.5 40.5l-49-5 48-25z"/><path fill="#567019" d="M5.5 108.5l44-24-40 5z"/><path fill="#27263f" d="M132.5 111.5l22-7-24-7z"/><path fill="#d0b2aa" d="M179.5 104.5l-11 11h-15z"/><path fill="#263106" d="M56.5 68.5l18 18 27-10z"/><path fill="#9a9993" d="M110.5 14.5l91-7-40 17z"/><path fill="#6a4e19" d="M142.5 75.5h-39l65-18z"/><path fill="#2d4301" d="M57.5 143.5h63l-62-25z"/><path fill="#779d1c" d="M84.5 86.5l-51 21 5-34z"/><path fill="#d1c378" d="M156.5 131.5l-57-7-20 19z"/><path fill="#191805" d="M49.5 33.5l17 10-16 1z"/><path fill="#0e0f01" d="M-12.5 25.5l61 9-63 8z"/><path fill="#547b9c" d="M97.5 25.5l-55-22 27-19z"/><path fill="#64971b" d="M222.5 76.5l-62 1 50-19z"/><path fill="#283006" d="M57.5 56.5l-28 28-23-31z"/><path fill="#e8c2fb" d="M109.5 114.5l-9-5 2-3z"/><path fill="#405817" d="M197.5 84.5l31-28 43 10z"/><path fill="#a0bf1e" d="M178.5 97.5l-131 2 64-20z"/><path fill="#ed9472" d="M117.5 62.5l15 6 19-7z"/><path fill="#d5a6d8" d="M201.5 105.5l3 6-6-2z"/><path fill="#7a7e80" d="M-8.5 24.5l65-8 4 18z"/><path fill="#7a9816" d="M84.5 57.5l-21 10 51 4z"/><path fill="#38470f" d="M223.5 114.5l-39 27 87-18z"/><path fill="#ddd657" d="M72.5 116.5l18-13-16 3z"/><path fill="#93940e" d="M160.5 60.5v-10l-18 16z"/><path fill="#93866d" d="M114.5 95.5l-16 17 42-16z"/><path fill="#7b9a06" d="M121.5 115.5l3-11-18 4z"/><path fill="#313528" d="M190.5 19.5l-25 3-4 27z"/><path fill="#cdb6a5" d="M162.5 99.5l14 11-2-11z"/><path fill="#3f5711" d="M91.5 43.5l-31 5 28 12z"/><path fill="#517312" d="M146.5 90.5l32 2-16-7z"/><path fill="#87981e" d="M89.5 99.5l-50 10 2 15z"/><path fill="#6f9a01" d="M199.5 109.5l-20 9 4-19z"/><path fill="#49718d" d="M256.5 11.5l-19 13-26-3z"/><path fill="#838881" d="M188.5 19.5l35 14-30-2z"/><path fill="#1c1f0d" d="M227.5 47.5l24-19-66 9z"/><path fill="#a3ac0f" d="M178.5 106.5l-21-4-19 13z"/><path fill="#414a50" d="M55.5 87.5l10 6 3-6z"/><path fill="#878c93" d="M134.5 15.5l-44-16-5 13z"/><path fill="#5d6e0d" d="M89.5 122.5l-4-9 30 12z"/><path fill="#526a86" d="M159.5-8.5l34-7-9 30z"/><path fill="#d0c1b5" d="M197.5 5.5l-1 15-13-3z"/><path fill="#000d00" d="M115.5 74.5l-8-3v4z"/><path fill="#d5bd99" d="M102.5 30.5l-45 5 14 8z"/><path fill="#d28734" d="M136.5 73.5l-18-2-5-18z"/><path fill="#ac8d6b" d="M156.5 49.5l-15-4 21-6z"/><path fill="#88a6b6" d="M58.5 10.5l-12 13 55-1z"/><path fill="#004b7c" d="M16.5-15.5l-32 26 49-9z"/><path fill="#496678" d="M157.5 13.5l-4-6 18 5z"/><path fill="#e2dcd9" d="M160.5 26.5l-65-12 14 18z"/></g></svg>