<svg xmlns="http://www.w3.org/2000/svg" viewBox="0 0 400 200"><path fill="#697a3c" d="M0 0h400v200H0z"/><g fill-opacity=".5"><path fill="#f9e6ff" d="M232 93l48.5-97-264 37.6z"/><path fill="#041200" d="M411.7 32l12.5 192.2L247.7 46.1z"/><path fill="#000300" d="M-24.2 36.7L93 57 7 224.2z"/><path fill="#c1cb11" d="M344.5 189.8L230.5 57 53.9 186.7z"/><path fill="#4978c7" d="M61.7.8l362.5-25-82.8 79.7z"/><path fill="#1a5dbe" d="M149.2 29L19.5-24.3-24.2 46z"/><path fill="#ffecc5" d="M194.5 107l61-67.2-114-18.7z"/><path fill="#496300" d="M188.3 75.8L16.4 224.2 46.1 64.8z"/><path fill="#638a00" d="M308.6 68l-106.3 45.3 222 95.3z"/><path fill="#004fa9" d="M368 41.4L424.2 7 291.4-24.2z"/><path fill="#060950" d="M211.7 150.8l34.4 17.2-57.8 7.8z"/><path fill="#111700" d="M424.2 111.7L279 82l145.3-70.3z"/><path fill="#e5cbb5" d="M324.2 32L318 7l-76.6 20.3z"/><path fill="#192300" d="M196 114.8L-24.1 83.6-4 143z"/><path fill="#8eb30f" d="M24.2 160.2l62.5-51.6 115.6 115.6z"/><path fill="#ffaa4f" d="M154 57l96.8 20.3-45.3 39.1z"/><path fill="#1d1f02" d="M257 36.7l45.3-6.2-56.2 78z"/><path fill="#273900" d="M311.7 224.2l112.5-32.8-96.9-20.3z"/><path fill="#f8e6d5" d="M93 68l103-42.2 54.8 36z"/><path fill="#9dc716" d="M335.2 97.7l-240.7 39 190.7 25z"/><path fill="#778794" d="M222.7-13.3L89.8 54l-114-17.2z"/><path fill="#515c0d" d="M185.2 118L307 61.7l-26.5 43.8z"/><path fill="#5e6805" d="M57 102.3L230.5 118 88.3 58.6z"/><path fill="#536509" d="M11.7 138.3l-3.1 86 139-15.7z"/><path fill="#bfc454" d="M205.5 193l-20.3-43.8-68.8 18.8z"/><path fill="#c5c35c" d="M280.5 172.7l-15.7-28.2L207 193z"/><path fill="#004684" d="M21-24.2l-45.2 51.5L102.3-2.3z"/><path fill="#395f00" d="M185.2 196l48.4 14.2 61-28.2z"/><path fill="#0e5f93" d="M247.7 21l-20.4-45.2h-93.7z"/><path fill="#ff9709" d="M193 113.3l28-25-43.7-4.7z"/><path fill="#a3a59a" d="M250.8 43l39-36-145.3 12.5z"/><path fill="#73868b" d="M380.5 33.6l-65.7 21.9-26.5-29.7z"/><path fill="#006093" d="M402.3 21l-89 18.8 82.8-64z"/><path fill="#101b00" d="M85.2 55.5l-109.4 28V39.9z"/><path fill="#d4ab79" d="M80.5 50.8l31.2 18.7 42.2-7.8z"/><path fill="#ebc385" d="M252.3 55.5L147.7 68l92.1 21.8z"/><path fill="#a5c512" d="M186.7 132l-70.3 79.7L157 105.5z"/><path fill="#050e03" d="M113.3 110.2l45.3 15.6-65.6-1.6z"/><path fill="#050700" d="M5.5 88.3l53 43.7-82.7 6.3z"/><path fill="#6e6579" d="M208.6 168v-17.2l-54.7 18.7z"/><path fill="#809322" d="M314.8 221l-101.5 3.2 140.6-87.5z"/><path fill="#b1bcc1" d="M80.5 29l73.4 28 40.6-34.3z"/><path fill="#f7f6f5" d="M239.8 52.3l-37.5 9.4-60.9-39z"/><path fill="#404210" d="M110.2 71l70.3 43.8-7.8-43.7z"/><path fill="#779811" d="M182 113.3l-120.3-50 45.3 40.6z"/><path fill="#2b3905" d="M424.2 171L269.5 58.7 379 49.2z"/><path fill="#000001" d="M352.3 49.2l53.2 12.5 6.2-43.7z"/><path fill="#222814" d="M310.2 66.4L244.5 79l43.8-50z"/><path fill="#506217" d="M279 141.4l109.3-6.2 9.4 35.9z"/><path fill="#d9d2c5" d="M238.3-7l11 18.7 37.4 4.7z"/><path fill="#a6c218" d="M86.7 152.3l59.4 72-6.3-89.1z"/><path fill="#476103" d="M43 58.6l-56.3 25 132.8 15.6z"/><path fill="#4d610d" d="M141.4 193l43.8 1.5-51.6-17.2z"/><path fill="#c7dc06" d="M164.8 119.5l17.2 18.8 67.2-15.6z"/><path fill="#59690d" d="M210.2 118l42.1-43.8 84.4-7.8z"/><path fill="#d3bab2" d="M250.8 180.5l21.9-6.3 4.6-18.7z"/><path fill="#526b1e" d="M235.2 141.4l42.1 3.1-23.4-14z"/><path fill="#c4ba8d" d="M288.3 154l14-1.7 18.8 22z"/><path fill="#e8c6cb" d="M154 171l20.2 11-9.4-15.6z"/><path fill="#b9a466" d="M304 183.6l-111 40.6h93.7z"/><path fill="#336b92" d="M271 22.7L194.6-8.6l39 29.7z"/><path fill="#2e352b" d="M258.6 35.2l-14 31.2 53-18.7z"/><path fill="#547f13" d="M293 102.3l70.3-9.3-37.5 39z"/><path fill="#788a1d" d="M60.2 179l-4.7 40.5 67.2-59.3z"/><path fill="#99b100" d="M268 166.4L235.2 179l7.8-22z"/><path fill="#3a6c96" d="M129 19.5l25-43.7L5.4 21z"/><path fill="#2d4113" d="M77.3 157l-92.1 54.7 34.3 4.7z"/><path fill="#df8277" d="M238.3 89.8l-39 26.6 12.4-20.3z"/><path fill="#203603" d="M96 60.2l18.8 18.7-51.5-18.7z"/><path fill="#5f8615" d="M132 135.2l-75-20.4 1.6 26.6z"/><path fill="#d5cec0" d="M289.8 29h25l-4.6-23.5z"/><path fill="#d2b5ac" d="M275.8 164.8L235.2 154H257z"/><path fill="#a19880" d="M302.3 41.4l-3 11 35.9-1.6z"/><path fill="#d7bb85" d="M179 74.2l-31.3-26.5L96 60.2z"/><path fill="#d0ca6d" d="M174.2 180.5l32.8 7.8 20.3-9.4z"/><path fill="#c7c137" d="M177.3 204l-26.5 9.3-39-34.4z"/><path fill="#56730c" d="M83.6 130.5L-24.2 146l64 7.8z"/><path fill="#737776" d="M-21 36.7L93 54 61.7 25.8z"/><path fill="#1b1f32" d="M224.2 171l-18.7-15.5 28 3z"/><path fill="#203412" d="M313.3 129l111 4.6-36-21.9z"/><path fill="#496682" d="M288.3 22.7l20.3-47h-71.9z"/><path fill="#6b8610" d="M79 66.4l-36 14 64 7.9z"/><path fill="#466206" d="M216.4 191.4l-62.5-3.1 111 36z"/><path fill="#94b714" d="M332 135.2l-76.5-29.7-84.4 34.3z"/><path fill="#769407" d="M186.7 161.7l-17.2 12.5 31.3 1.6z"/><path fill="#171b05" d="M4 88.3L19.4 118 82 96z"/><path fill="#865d1b" d="M207 121l-28-9.3 56.2-12.5z"/><path fill="#d7aa6e" d="M246 83.6l-64-17.2 65.7-1.6z"/><path fill="#588109" d="M305.5 180.5l1.5-18.8-51.5 36z"/><path fill="#ffe07a" d="M232 93l-54.7-15.7 70.4-4.6z"/><path fill="#202a06" d="M424.2 182v28.2l-54.7-43.8z"/><path fill="#426f8b" d="M375.8 32l-40.6 4.7-45.4-61z"/><path fill="#edd873" d="M113.3 172.7l25-9.4-17.2 12.5z"/><path fill="#445d11" d="M219.5 111.7l70.3-37.5 47 18.8z"/><path fill="#73ab0f" d="M236.7 104l42.2 25 62.5-12.6z"/><path fill="#769aa7" d="M152.3 32L93 14.8 68 33.6z"/><path fill="#005487" d="M-24.2 4l84.4 7.7 1.5-36z"/><path fill="#283906" d="M138.3 108.6l-6.3 26.6 22-15.7z"/><path fill="#ffbd00" d="M188.3 83.6l42.2 4.7-39 9.4z"/><path fill="#192700" d="M-24.2 80.5V27.3l79.7 47z"/></g></svg>