<svg xmlns="http://www.w3.org/2000/svg" viewBox="0 0 400 200"><path fill="#857a71" d="M0 0h400v200H0z"/><path fill="#fff" fill-opacity=".5" d="M.4.4L290.8-9.7l1 29.6L1.4 30.1z"/><path fill="#1f2a0e" fill-opacity=".5" d="M463.3 104.3l-203-7 3-84.4 203 7z"/><path fill="#cde3fc" fill-opacity=".5" d="M245 74l-93.5 30.4L94-72.4l93.6-30.4z"/><path fill="#303926" fill-opacity=".5" d="M-20.3 121.9l-18.4-56.5 129.3-42L109 80z"/><path fill="#2e3448" fill-opacity=".5" d="M140.6 204l41.6-166.8 28.8 7.2-41.6 166.8z"/><path fill="#653f2d" fill-opacity=".5" d="M159.6 271l-201.3-89.7L-8 105.7l201.3 89.6z"/><path fill="#bac5d9" fill-opacity=".5" d="M218.3 45.3l26.9-8.2 28.7 94.1-26.9 8.3z"/><path fill="#eff" fill-opacity=".5" d="M175.6-22l4 37.3L-17.9 36l-4-37.2z"/><path fill="#d7a790" fill-opacity=".5" d="M255.5 134.4v-36h156.2v36z"/><path fill="#fff" fill-opacity=".5" d="M317.4-2.8l-121 37-9.1-29.9 121-37z"/><path fill="#fffffb" fill-opacity=".5" d="M168.5 104.3l-25-.8 2-56.3 25 1z"/><path fill="#6e6a57" fill-opacity=".5" d="M342.6 94.4l-84.9-43.2 57.5-112.8L400-18.3z"/><path fill="#d0a593" fill-opacity=".5" d="M109.8 81.6l42.3 52.2-29.1 23.6-42.3-52.2z"/><path fill="#0f0100" fill-opacity=".5" d="M164.4 151L149 108.5l13.2-4.9 15.5 42.6z"/><path fill="#000904" fill-opacity=".5" d="M290.4 69.3l-4.5 32.5-27.9-4 4.6-32.4z"/><path fill="#2b3620" fill-opacity=".5" d="M74.6 100.7L62 79l65-37.5 12.4 21.7z"/><path fill="#2b2d3c" fill-opacity=".5" d="M195.9 101.4l34.1-4.2 3.8 31-34.1 4.2z"/><path fill="#6f8ab0" fill-opacity=".5" d="M233.4 104.8l-46.5 5.7-6.3-51.2 46.6-5.7z"/><path fill="#0d1809" fill-opacity=".5" d="M340.4 80.8l68.3-8.4 2.4 20.2L343 101z"/><path fill="#363d49" fill-opacity=".5" d="M190.5 27.4l-13.9 132.1-9.3-1 13.9-132z"/><path fill="#c39e93" fill-opacity=".5" d="M320.3 61.3l4.5-11.7 40.8 15.7-4.4 11.7z"/><path fill="#3f241a" fill-opacity=".5" d="M100.1 206.7L45.7 201l2.6-24.9 54.4 5.7z"/><path fill="#c0a499" fill-opacity=".5" d="M219 144l48.7-34 18 25.6-48.7 34z"/><path fill="#997769" fill-opacity=".5" d="M37.7 87.2l92.8 41.4-22.9 51.3-92.8-41.3z"/><path fill="#906553" fill-opacity=".5" d="M225.2 218.6l-11-47.2 193.4-44.7 11 47.2z"/><path fill="#000820" fill-opacity=".5" d="M129.5 28.8l-3.5 3-13.3-15.3 3.5-3z"/><path fill="#c19787" fill-opacity=".5" d="M264.9 38.1l-2-9.2L321 16.6l2 9.2z"/><path fill="#414a2f" fill-opacity=".5" d="M215 37.8l-1.2-4.5 57-16.4 1.4 4.5z"/><path fill="#061008" fill-opacity=".5" d="M266.1 89.7l1.2-9.3 77.5 9.6-1.1 9.3z"/><path fill="#4b4c42" fill-opacity=".5" d="M303.4 54.6l1-59.4L407.5-3l-1 59.4z"/><path fill="#bfb9bd" fill-opacity=".5" d="M161.9 152.6l10.9-.5 1.3 25-11 .5z"/><path fill="#e8f9ff" fill-opacity=".5" d="M299.6.7L234 30 223.8 7.1l65.7-29.2z"/><path fill="#d6bda6" fill-opacity=".5" d="M97.2 96.5l30-36 8.5 7-30.2 36z"/><path fill="#8c5139" fill-opacity=".5" d="M169.9 176.3l46.6-31.4 18.3 27.2-46.6 31.4z"/><path fill="#9cbde0" fill-opacity=".5" d="M266.3 71.6L241.8 82 229 51.8l24.5-10.4z"/><path fill="#70695e" fill-opacity=".5" d="M31.9 64.7l2-37.4 64 3.3-2 37.5z"/><path fill="#e0dcd7" fill-opacity=".5" d="M180 54.6l-48.4 1.7-.7-18.7 48.4-1.7z"/><path fill="#4e555b" fill-opacity=".5" d="M193.2 15.2l5 3.7-18 23.7-5-3.7z"/><path fill="#ab9da1" fill-opacity=".5" d="M181.1 111l9.2-2 11.4 53.5-9.2 2z"/><path fill="#e0f0ff" fill-opacity=".5" d="M63.6-19.1l61.6 17.6-9 31.6-61.7-17.7z"/><path fill="#d8b59e" fill-opacity=".5" d="M425.7 64.9l.1 4.6-87.5 1.6v-4.7z"/><path fill="#574f51" fill-opacity=".5" d="M207.5 87.2l39.3 25.5-15.3 23.6-39.3-25.6z"/><path fill="#805c4c" fill-opacity=".5" d="M146.6 201.2l-85-21.1 12.2-48.5 84.9 21.1z"/><path fill="#4a342e" fill-opacity=".5" d="M170.2 71.9l-4-4.8 37-31.2 4 4.8z"/><path fill="#163a00" fill-opacity=".5" d="M334.7 65.9l.8 10.9-37.4 2.6-.8-10.9z"/><path fill="#d0e0fd" fill-opacity=".5" d="M-23.9 34.7l1-53 48.4.8-1 53z"/><path fill="#172418" fill-opacity=".5" d="M361.1 63.5l4.7-29.3 24.6 3.9-4.6 29.3z"/><path fill="#f2ba9d" fill-opacity=".5" d="M205.7 132.1l16.3-5.6 5 14.8-16.2 5.6z"/><path fill="#c6977c" fill-opacity=".5" d="M355.2 204.9l-3.6-16.8 91.7-19.5 3.6 16.8z"/><path fill="#96a9c4" fill-opacity=".5" d="M204 53.2l8 22-20.6 7.5-8-22z"/><path fill="#b5bfc8" fill-opacity=".5" d="M230 177.3l18.5-64.6 7.5 2.2-18.5 64.6z"/><path fill="#f1f9ff" fill-opacity=".5" d="M133.6-8.7L226.8 1l-2.6 24.8L131 16z"/><path fill="#c1a092" fill-opacity=".5" d="M288.2 67l17.2-13.5 4.8 6.1L293 73.1z"/><path fill="#575240" fill-opacity=".5" d="M-33.1 118l10.4-85.3 57.4 7-10.5 85.4z"/><path fill="#280c00" fill-opacity=".5" d="M200.3 140.4l-6.5-6.7 16.8-16.3 6.6 6.7z"/><path fill="#9e7a6a" fill-opacity=".5" d="M319.1 171.3l-70.3 1.2-.8-45.3 70.3-1.2z"/><path fill="#535c49" fill-opacity=".5" d="M277 14.4l1 3-69.1 19.8-1-3z"/><path fill="#bb9b9f" fill-opacity=".5" d="M395.4 46L409 63l-6 5-13.8-17z"/><path fill="#11290a" fill-opacity=".5" d="M316.5 38.2L288 45.8l-3-10.5 28.7-7.7z"/><path fill="#3d353a" fill-opacity=".5" d="M118.2 37.5l23.6 29.1-8.5 6.9-23.6-29.2z"/><path fill="#001f00" fill-opacity=".5" d="M270.8 31.8l.6 1.4-21.9 8.4-.6-1.4z"/><path fill="#c7ced5" fill-opacity=".5" d="M165.1 57.3l10.4 58.5-1.6.3-10.3-58.5z"/><path fill="#273526" fill-opacity=".5" d="M82 56.2l12.3 18.2-31 21L51 77.1z"/><path fill="#c5aa90" fill-opacity=".5" d="M345.4 87.8l-15.5-2.2 1.3-9.3 15.5 2.2z"/><path fill="#5e4435" fill-opacity=".5" d="M393.3 178.1l-15.6-7.3 11.9-25.5 15.5 7.3z"/><path fill="#000002" fill-opacity=".5" d="M180 178l-4 13.4-7.5-2.1 3.9-13.5z"/><path fill="#8f7a77" fill-opacity=".5" d="M357.3 72.4L344.8 71l5.7-54.4L363 18z"/><path fill="#393d23" fill-opacity=".5" d="M348.7 55.4l-48.4 1.7-.5-14 48.4-1.8z"/><path fill="#a6938e" fill-opacity=".5" d="M105 33.8l5 19.7-19.7 5-5-19.8z"/><path fill="#a2a8b2" fill-opacity=".5" d="M229.2 115.7L218 86.5l26.2-10 11.2 29.1z"/><path fill="#bbc8d2" fill-opacity=".5" d="M151.5 38.6l73.4-3.8.1 3.1-73.3 3.9z"/><path fill="#2c3740" fill-opacity=".5" d="M132.4 58.8L114.5 12l1.5-.6 18 46.7z"/><path fill="#73839a" fill-opacity=".5" d="M186.6 97.3l15.3 3.2-8.8 41.3-15.3-3.3z"/><path fill="#3e4b3a" fill-opacity=".5" d="M289.3 23.4l-18.7-1.6 1-12.4 18.8 1.6z"/><path fill="#8b786e" fill-opacity=".5" d="M41 83.2l34.4 21.5-39.8 63.6-34.4-21.5z"/><path fill="#291d18" fill-opacity=".5" d="M166 154.2l-11-.6 2.5-46.8 11 .5z"/><path fill="#838ea6" fill-opacity=".5" d="M121.8 72.7l10.4-3.6 16.3 47.3-10.4 3.5z"/><path fill="#fcfdff" fill-opacity=".5" d="M213.5 8.2l3.3 3.3-28.7 28.7-3.3-3.3z"/><path fill="#c09d8d" fill-opacity=".5" d="M266 38.7l62.7-24.1.6 1.4-62.7 24.1z"/><path fill="#937a72" fill-opacity=".5" d="M414.8 98.6v1.6l-156.2 2.7v-1.5z"/><path fill="#fff" fill-opacity=".5" d="M143 74.6l15.4-2.1 3.3 23.2-15.5 2.1z"/><path fill="#a58b7a" fill-opacity=".5" d="M407.6 121.8l-1.3 23.4-115.4-6 1.2-23.5z"/><path fill="#212c3e" fill-opacity=".5" d="M174.2 119.5v-50h9.4v50z"/><path fill="#2d4629" fill-opacity=".5" d="M247 31l39 36.2-3.2 3.4-38.9-36.2z"/><path fill="#adc7c2" fill-opacity=".5" d="M278.6 52l-36.3 14.6-.5-1.4L278 50.6z"/><path fill="#303944" fill-opacity=".5" d="M191.2 25.1l5.1-14.8 1.5.5-5 14.8z"/><path fill="#c08262" fill-opacity=".5" d="M184.9 161.8l10.5-22.6 21.3 9.9-10.6 22.7z"/><path fill="#bda596" fill-opacity=".5" d="M78 121.5l50.3-17.3 4.6 13.3-50.3 17.3z"/><path fill="#c7c2bd" fill-opacity=".5" d="M138 62.1l12.6-46.8 31.7 8.5-12.6 46.8z"/><path fill="#091a03" fill-opacity=".5" d="M419.3 38.4l-1.4 10.8-38.7-4.7 1.3-10.9z"/><path fill="#959491" fill-opacity=".5" d="M141.3 75.6L92 42.4l2.7-4 49.2 33.3z"/><path fill="#3b261b" fill-opacity=".5" d="M227 125l8 15-4.1 2.3-8.1-15.2z"/><path fill="#754934" fill-opacity=".5" d="M209.8 152.4l21.8 1.5-2.3 32.8-21.8-1.6z"/><path fill="#d6bdac" fill-opacity=".5" d="M244.4 120.8l.3-15.7 37.5.7-.3 15.6z"/><path fill="#040000" fill-opacity=".5" d="M184.3 54.8l-2.6-9 7.5-2.2 2.6 9z"/><path fill="#968076" fill-opacity=".5" d="M317.8 37.5l43.5-4.6.6 6.2-43.5 4.6z"/><path fill="#222c1c" fill-opacity=".5" d="M286.6 100.5L284.2 85l37-6 2.4 15.5z"/><path fill="#b29592" fill-opacity=".5" d="M292.3 13v-1.6l45-4 .2 1.6z"/><path fill="#575955" fill-opacity=".5" d="M43.3 37.4l-.8-3 40.8-10.9.8 3z"/><path fill="#93adc8" fill-opacity=".5" d="M224.6 33l25.6 7.4-10.8 37.5-25.5-7.3z"/></svg>