<svg xmlns="http://www.w3.org/2000/svg" viewBox="0 0 16 8"><path fill="#82726d" d="M0 0h16v8H0z"/><g fill-opacity=".5"><path fill="#bbd1d7" d="M8.5 2.5l11-18-26 12z"/><path fill="#36361c" d="M11.5 1.5l20-15v22z"/><path fill="#32322c" d="M4.5 1.5l-20-3 10 6z"/><path fill="#5c352e" d="M6.5 5.5l2 18-15-16z"/><path fill="#c29988" d="M15.5 4.5l1 3-7-4z"/><path fill="#c5cad2" d="M3.5-15.5l3 19 3-10z"/><path fill="#69555c" d="M7.5 2.5l-4 15 7 1z"/><path fill="#8b655c" d="M31.5 14.5l-14-10-12 2z"/><path fill="#cdd6dd" d="M10.5 2.5l-1-18h-8z"/><path fill="#a08e8f" d="M1.5 3.5l3-1 2 2z"/><path fill="#5d5650" d="M5.5 1.5l-21 10 3-11z"/><path fill="#76656c" d="M7.5 1.5l10 22-10-7z"/><path fill="#6d7a72" d="M14.5 1.5l-5-2v2z"/><path fill="#2b0d03" d="M2.5 7.5l-4 9 3 3z"/><path fill="#d6b5a4" d="M14.5 4.5l11-3-2 3z"/><path fill="#393017" d="M15.5.5l2 6 12 1z"/><path fill="#dad2bf" d="M3.5.5l-19-3 9-3z"/><path fill="#d8dde3" d="M6.5-.5v3l2-6z"/><path fill="#a79394" d="M9.5 2.5l3 2-1 6z"/><path fill="#71504b" d="M31.5 17.5l-17 6-5-17z"/><path fill="#c5c9ce" d="M10.5 2.5l-2-18-3 7z"/><path fill="#514e45" d="M12.5 3.5l2-11-3-1z"/><path fill="#9c9295" d="M6.5 5.5l-2-3 1-1z"/><path fill="#3f2117" d="M3.5 7.5l10 15-29 1z"/><path fill="#4f3e42" d="M6.5 4.5l2 8-3 5z"/><path fill="#886b64" d="M5.5 6.5l17 7-10-8z"/><path fill="#826155" d="M3.5 6.5l-10-11-5 11z"/><path fill="#686e6b" d="M10.5 3.5l6-14-5-5z"/><path fill="#584b47" d="M4.5 1.5h-4l-1 2z"/><path fill="#998278" d="M1.5 3.5l-17 1 8 3z"/><path fill="#846554" d="M12.5 4.5v2l4-2z"/><path fill="#a47f6b" d="M-.5 12.5l17 11 15-23z"/><path fill="#64473b" d="M.5 4.5l-14 13-2-12z"/><path fill="#786050" d="M13.5 3.5h12l2-4z"/><path fill="#8c7475" d="M7.5 5.5l4 13 6 2z"/><path fill="#bdc8ca" d="M7.5 1.5l-10-14 6-3z"/><path fill="#3a200f" d="M15.5 2.5l5-7 11 2z"/><path fill="#6f5656" d="M6.5 6.5l11 6-26 11z"/><path fill="#62636b" d="M8.5 1.5v2l-1-2z"/><path fill="#a68c8a" d="M4.5 3.5l1 1h-4z"/><path fill="#846b60" d="M3.5 3.5l-15 15-3-6z"/><path fill="#634335" d="M2.5 6.5l-10-7-8 3z"/><path fill="#50513d" d="M31.5 14.5v-21l-34-9z"/><path fill="#99a0a2" d="M10.5 1.5l-4-8 2-9z"/><path fill="#8a6f6a" d="M12.5 23.5l4-4-5-14z"/><path fill="#7e5f53" d="M31.5 8.5l-11 8-7-9z"/><path fill="#765442" d="M14.5 5.5l8-3 1-4z"/><path fill="#63635b" d="M3.5.5l-9 4 4-4z"/><path fill="#6b555a" d="M9.5 4.5l-2-1h2z"/><path fill="#989c9f" d="M8.5 2.5l5-18 3 6z"/><path fill="#d0d9d9" d="M7.5-2.5l1-2 1 5z"/><path fill="#999890" d="M4.5.5l-7-10-7-1z"/><path fill="#d0b09e" d="M15.5 4.5l15-8-7-12z"/><path fill="#afaca3" d="M1.5.5v-12l5 6z"/><path fill="#9e7f77" d="M10.5 6.5l11 4 6 13z"/><path fill="#7d6261" d="M17.5 16.5l-8-10 16 8z"/><path fill="#bfc6c8" d="M6.5.5l10-16-16 7z"/><path fill="#c9c8bd" d="M-15.5 22.5l25-38-18 8z"/><path fill="#54443e" d="M3.5 1.5h-3l3 1z"/><path fill="#715f58" d="M.5 2.5l-16 1v6z"/><path fill="#8b6e72" d="M4.5 5.5l1-1-2 1z"/><path fill="#6a5a4c" d="M11.5 1.5l7 2h-5z"/><path fill="#856a68" d="M5.5 6.5l1 12 6 5z"/><path fill="#755645" d="M1.5 6.5l-1 17-16-4z"/><path fill="#666d65" d="M13.5 1.5l-8-16-6 3z"/><path fill="#90736b" d="M1.5 4.5l-17 8v-8z"/><path fill="#98786b" d="M31.5 16.5v-9l-18-2z"/><path fill="#977c75" d="M1.5 4.5v-1h1z"/><path fill="#bea195" d="M14.5 4.5l1-1h-4z"/><path fill="#9fa2a6" d="M6.5 2.5l-3 1 1-1z"/><path fill="#747973" d="M11.5.5l-1-9-13-7z"/><path fill="#a79492" d="M9.5 4.5l1 1v-2z"/><path fill="#836e6e" d="M10.5 3.5l-4 20h-6z"/><path fill="#634949" d="M4.5 7.5l2 11-16-10z"/><path fill="#96a3a3" d="M6.5 1.5l-17-17h8z"/><path fill="#876c66" d="M3.5 4.5h-2l3 2z"/><path fill="#77594f" d="M2.5 6.5l-13 3v6z"/><path fill="#66625d" d="M2.5 1.5l-18 11 7-9z"/><path fill="#5e544a" d="M1.5 1.5l-9-2-7 6z"/><path fill="#7d6160" d="M8.5 6.5l15 8-2 5z"/><path fill="#6c5c49" d="M14.5 1.5l-1 1 2 1z"/><path fill="#a7afb1" d="M10.5 1.5l-1-17-4 5z"/><path fill="#775b57" d="M5.5 7.5l14 14-22-10z"/><path fill="#a27e6d" d="M14.5 6.5l17 1-13 12z"/><path fill="#b6c0c7" d="M7.5.5l-1-16-2 8z"/><path fill="#6c4e41" d="M1.5 7.5l20 8-16 2z"/><path fill="#6a706b" d="M12.5.5l-9-9 7-7z"/><path fill="#caaa98" d="M31.5-3.5l-7 12-8-5z"/><path fill="#b09488" d="M13.5 3.5v1l-1-1z"/><path fill="#889294" d="M8.5 1.5l8-17 5 2z"/><path fill="#bba29c" d="M10.5 3.5h3l-1 1z"/><path fill="#abb0b2" d="M10.5.5l-4-14-6 2z"/><path fill="#4b493f" d="M11.5 2.5l5-18v10z"/><path fill="#6a6e66" d="M13.5 1.5l-8-17-6 6z"/><path fill="#5f5b48" d="M12.5 1.5l5-11-3-4z"/><path fill="#727772" d="M10.5.5v-16l10 4z"/><path fill="#c4c9c7" d="M6.5.5l-8-14 5 2z"/><path fill="#525245" d="M13.5.5l11-13-17-3z"/><path fill="#524e37" d="M14.5.5h5l5-7z"/><path fill="#8e7271" d="M8.5 7.5l-24 16 37-10z"/></g></svg>