<svg xmlns="http://www.w3.org/2000/svg" viewBox="0 0 400 200"><path fill="#857a71" d="M0 0h400v200H0z"/><path fill="#e8ffff" fill-opacity=".5" d="M246.5 76.3L-1.1 23.6l15.6-73.3L262 2.9z"/><path fill="#212c11" fill-opacity=".5" d="M440.6 13.3l-1.5 87.5L261 97.7l1.5-87.5z"/><path fill="#323827" fill-opacity=".5" d="M123 16.6l16.5 53.8-170.4 52-16.4-53.7z"/><path fill="#fff" fill-opacity=".5" d="M168 40l3.1 60.8-28 1.5-3.3-60.9z"/><path fill="#5e3c2f" fill-opacity=".5" d="M193.8 208.3L-31.5 232l-7.7-73 225.4-23.8z"/><path fill="#fff" fill-opacity=".5" d="M192.5 34.9l-7.3-25.6 105.1-30.1 7.3 25.5z"/><path fill="#415475" fill-opacity=".5" d="M166.3 130L181 24.6l44.8 6.3L211 136.1z"/><path fill="#f7ffff" fill-opacity=".5" d="M-55.2-11.5l339.8-23.8 3.4 48.4-339.8 23.7z"/><path fill="#b8b8c7" fill-opacity=".5" d="M202 48.3l89.9 70.3-17.3 22.1-90-70.2z"/><path fill-opacity=".5" d="M168.9 104.3l7.3 46.3-18.5 3-7.3-46.4z"/><path fill="#64594e" fill-opacity=".5" d="M94 24.5l2.4 32.7-60.8 4.3-2.3-32.8z"/><path fill="#d4a68f" fill-opacity=".5" d="M404 99.6l1.2 32.8-110.8 3.9-1.2-32.8z"/><path fill="#766c64" fill-opacity=".5" d="M292.6 12l4.9 19.6-119.8 29.9-4.9-19.7z"/><path fill="#caa292" fill-opacity=".5" d="M116.4 78.5l42.1 60.1-35.8 25.1-42.1-60.1z"/><path fill="#91b1d9" fill-opacity=".5" d="M198.2 74.5L213.3 35l52.5 20.1-15 39.4z"/><path fill="#cca998" fill-opacity=".5" d="M240.3 169.7L220 142l57-41.3 20.1 27.8z"/><path fill="#ddb3a6" fill-opacity=".5" d="M367 69.5l-2.6 7.3-45.5-16.6 2.6-7.3z"/><path fill="#0a1808" fill-opacity=".5" d="M262 67.2l45.2 3.2-2 29.6-45.2-3.2z"/><path fill="#453d42" fill-opacity=".5" d="M231 138.3l-36.8-17.2L208 91.4l36.8 17.2z"/><path fill="#021100" fill-opacity=".5" d="M356.9 97.8l-1.2-21.9 64-3.3 1.1 21.8z"/><path fill="#fff" fill-opacity=".5" d="M166.8 95.3l-20.3 1.5-2.4-34.3 20.3-1.4z"/><path fill="#21311c" fill-opacity=".5" d="M107.1 55.3l7.6 22.2-54.6 18.8L52.4 74z"/><path fill="#605c54" fill-opacity=".5" d="M346-30l51.8 37.7L355.6 66l-51.9-37.7z"/><path fill="#645646" fill-opacity=".5" d="M30.7 166.7l-42-4.4L2.1 34.9l42 4.4z"/><path fill="#172436" fill-opacity=".5" d="M171.8 56.6l10.9-.6 3.3 64-10.9.6z"/><path fill="#3e2013" fill-opacity=".5" d="M59.7 171.7l41.7 17.7-15.8 37.4L43.9 209z"/><path fill="#865a47" fill-opacity=".5" d="M291.3 150l157.4-11 2.2 31.2-157.4 11z"/><path fill="#7d7361" fill-opacity=".5" d="M323.2 20l-83.7 30.5-8-22L315.2-2z"/><path fill="#8e563f" fill-opacity=".5" d="M270 252.8l-80.6-80.7 26.5-26.5 80.7 80.7z"/><path fill="#bba79e" fill-opacity=".5" d="M101.4 117l-12.6-11.7 42.6-45.7L144 71.3z"/><path fill="#8d6f66" fill-opacity=".5" d="M5.2 148l5.7-29.2 194.8 37.9-5.7 29.1z"/><path fill="#bed5e4" fill-opacity=".5" d="M191.8 27l54.6 13.5-2.3 9.1L189.5 36z"/><path fill="#090c08" fill-opacity=".5" d="M291.6 86.5l59.4 2-.4 11-59.4-2.1z"/><path fill="#b6c1cc" fill-opacity=".5" d="M230.2 182.6l17.9-84 7.6 1.6-17.8 84z"/><path fill="#3e292c" fill-opacity=".5" d="M200.8 39v17.3h-21.9V39z"/><path fill="#b39d85" fill-opacity=".5" d="M299 78.9l-13.7-7.4 11-20.7 13.8 7.4z"/><path fill="#e5a687" fill-opacity=".5" d="M192.9 161.7l-7.5-12 35.8-22.3 7.4 12z"/><path fill="#ebf5ff" fill-opacity=".5" d="M110.3 6.1l9.1-36.4 103 25.7-9 36.4z"/><path fill="#323840" fill-opacity=".5" d="M176.4 44.5l22.4-32 1.3.9-22.4 32z"/><path fill="#142216" fill-opacity=".5" d="M389.4 65.3l-28.1-1 .9-25 28 1z"/><path fill="#728aa8" fill-opacity=".5" d="M220 51.9l9.1 42.8-38.2 8.1-9-42.8z"/><path fill="#a599a2" fill-opacity=".5" d="M101.7 59.9l-8-4.8 25-41.6 8 4.9z"/><path fill="#301c12" fill-opacity=".5" d="M193.1 138.1l14.5-31.1 7.1 3.3-14.5 31.1z"/><path fill="#c9c6ca" fill-opacity=".5" d="M129.2 55l16.4-33.8 39.3 19.2L168.5 74z"/><path fill="#cb9e8b" fill-opacity=".5" d="M264 28.7l50.7-9 1 6.2-50.7 9z"/><path fill="#34262c" fill-opacity=".5" d="M129.7 25.8v28.1h-11V25.8z"/><path fill="#d2e3ff" fill-opacity=".5" d="M27 36.3l-56.2-4 3.8-54.5 56.1 4z"/><path fill="#d4b09b" fill-opacity=".5" d="M347 71l-.2-4.8 70.3-1.2.1 4.7z"/><path fill="#605d51" fill-opacity=".5" d="M86.8 22.9L90 41.3 2.3 56.8-1 38.3z"/><path fill="#fff" fill-opacity=".5" d="M220 13l2.6 4-38 24.6-2.5-3.9z"/><path fill="#e6c4a9" fill-opacity=".5" d="M344.7 79.9l-.6 4.6-24.8-3.4.7-4.7z"/><path fill="#454f38" fill-opacity=".5" d="M276 44.8l-3 7.2-47.5-20.2 3-7.2z"/><path fill="#a0b6cf" fill-opacity=".5" d="M161.8 174.6l1.4-20.3 11 .8-1.5 20.3z"/><path fill="#0c171f" fill-opacity=".5" d="M182 176.3l-20.8 48.9-7.2-3 20.8-49z"/><path fill="#cc9a7e" fill-opacity=".5" d="M437.6 185l-75.5 20-4.4-16.6 75.5-20.2z"/><path fill="#ddebff" fill-opacity=".5" d="M121.4-9.9L117.3 29l-77.7-8.2 4-38.8z"/><path fill="#9a7465" fill-opacity=".5" d="M290.8 113.8l72.2 80-52.3 47.1-72.1-80z"/><path fill="#d2a991" fill-opacity=".5" d="M254.8 103.8l42-4.4 3 29.6-41.9 4.4z"/><path fill="#effaff" fill-opacity=".5" d="M320.4-6.6l-86.6 31.5-2.7-7.3L317.8-14z"/><path fill="#8f9aad" fill-opacity=".5" d="M182.8 98.7l12.5-.5 1.6 45.3-12.5.5z"/><path fill="#1f292f" fill-opacity=".5" d="M114.3 13l1.4-.6 18.5 48.1-1.5.6z"/><path fill="#ca9f9a" fill-opacity=".5" d="M357.9 63.1l-17.2.3-.2-9.3 17.2-.3z"/><path fill="#393f2c" fill-opacity=".5" d="M201.7 34.6l41.7-6.6.2 1.5-41.7 6.6z"/><path fill="#b5999b" fill-opacity=".5" d="M395 44.8l16.3 16.9-7.9 7.6-16.3-16.9z"/><path fill="#39291b" fill-opacity=".5" d="M16.8 105.2l.8 21.9-14 .5-.9-21.9z"/><path fill="#a1b2c9" fill-opacity=".5" d="M215.2 48.2l32.9-10 13.2 43.3-32.8 10z"/><path fill="#21374f" fill-opacity=".5" d="M184.6 164.7l-4.6.9-10-50.6 4.6-1z"/><path fill="#1d2f13" fill-opacity=".5" d="M333.3 32.4L296 43.8l-2.8-9 37.4-11.4z"/><path fill="#223e2b" fill-opacity=".5" d="M256 28.8l-2.4-4L283 7.1l2.4 4z"/><path fill="#8f7b74" fill-opacity=".5" d="M132.3 40.5L65.4 62.2 63 54.8l67-21.7z"/><path fill="#63768f" fill-opacity=".5" d="M129.8 63l15.7.6-1.9 53-15.6-.5z"/><path fill="#081a0b" fill-opacity=".5" d="M402.3 44.8l-31.3-.5.2-9.4 31.2.5z"/><path fill="#99857b" fill-opacity=".5" d="M53.6 83.7L46.2 130l-17-2.7L36.7 81z"/><path fill="#2c3a38" fill-opacity=".5" d="M355-1.5l-3.2 13.7-39.6-9.1 3.2-13.7z"/><path fill="#193d00" fill-opacity=".5" d="M304.6 65.9l29.7-.5.2 10.9-29.7.5z"/><path fill="#272e1a" fill-opacity=".5" d="M351.4 49.2L315 58.3l-2.3-9 36.4-9.2z"/><path fill="#9ebd9b" fill-opacity=".5" d="M289.8 55l-22-.7.3-4.7 21.8.8z"/><path fill="#393f2d" fill-opacity=".5" d="M57.1 97.2l-3-29.5 37.2-4 3.1 29.6z"/><path fill="#361414" fill-opacity=".5" d="M106.5 46.2l1.4-6.1 12.2 2.8-1.4 6z"/><path fill="#3f5338" fill-opacity=".5" d="M268 70l-15.8-32.3 12.6-6.2 15.8 32.3z"/><path fill="#040009" fill-opacity=".5" d="M149.2 106.8l17 2.1-1.3 10.9-17-2.1z"/><path fill="#ad9385" fill-opacity=".5" d="M64.3 130.4l-.4-23.4 82.8-1.5.4 23.5z"/><path fill="#8e6956" fill-opacity=".5" d="M63.4 137.8l62-16.5 9.6 36.2L73.1 174z"/><path fill="#363d46" fill-opacity=".5" d="M164.3 131.7l-5.2 73.2-9.3-.6 5.1-73.3z"/><path fill="#5c3220" fill-opacity=".5" d="M231.2 159.7l-4.8 24.6-9.2-1.8 4.8-24.6z"/><path fill="#212627" fill-opacity=".5" d="M260.8 100l-4.5-1.1 9.4-38 4.6 1.2z"/><path fill="#a58876" fill-opacity=".5" d="M273 115.9l138.6 12-1.8 20.3-138.5-12.1z"/><path fill="#b49490" fill-opacity=".5" d="M342 40.4l.3-7.8 14 .5-.2 7.8z"/><path fill="#684b3d" fill-opacity=".5" d="M377.4 169.9l7.8-23.8 32.7 10.6-7.8 23.8z"/><path fill="#4b5666" fill-opacity=".5" d="M193.5 99.1L210 82.6l19.8 19.8-16.5 16.6z"/><path fill="#aba1a0" fill-opacity=".5" d="M145.7 44.6l2.4-26.4 14 1.2-2.3 26.5z"/><path fill="#b3988d" fill-opacity=".5" d="M331 64.3l-39-2 .4-6.3 39 2z"/><path fill="#919ba9" fill-opacity=".5" d="M232.3 114.4L210 66.3l15.6-7.3 22.4 48.2z"/><path fill="#664833" fill-opacity=".5" d="M248.7 154.3L253 128l3 .5-4 26.3z"/><path fill="#1c0000" fill-opacity=".5" d="M226.3 127.3l16.6-16.6 1.1 1.1-16.6 16.6z"/><path fill="#454830" fill-opacity=".5" d="M217 35L331 8.8l.4 1.5-114.2 26.4z"/><path fill="#000815" fill-opacity=".5" d="M184.4 54.6L180 42.9l5.9-2.2 4.2 11.8z"/><path fill="#384e3d" fill-opacity=".5" d="M-1 54l63.6 16L59 85-4.8 69.2z"/><path fill="#e2bba2" fill-opacity=".5" d="M124 69.2l5.8 5.2-24 26.7-5.9-5.2z"/><path fill="#3b4f28" fill-opacity=".5" d="M305.4 64.5l15 11.3-18 23.7-15-11.3z"/><path fill="#756f73" fill-opacity=".5" d="M157.1 133.7l-38.8-36.2 4.2-4.6 38.9 36.2z"/><path fill="#97abc8" fill-opacity=".5" d="M186.7 59.3L199 58l3.3 31.1-12.5 1.3z"/><path fill="#c1b3b3" fill-opacity=".5" d="M90.5 42.3l.8-1.3 29.2 18.2-.9 1.4z"/><path fill="#ebf2ff" fill-opacity=".5" d="M191.7-16.7L254.8-28l8.2 46.2-63.1 11.1z"/><path fill="#ecf6ff" fill-opacity=".5" d="M177.5 17.6l-54.6 3.8-2-28 54.6-3.9z"/><path fill="#8e8a6f" fill-opacity=".5" d="M283.4 30L279 57.6 268.2 56l4.4-27.8z"/><path fill="#1f252a" fill-opacity=".5" d="M190 28.2l-2.3-2 5-6 2.4 2z"/><path fill="#686459" fill-opacity=".5" d="M66.1 71L32 68l3.5-40.5 34.3 3z"/><path fill="#d2dee9" fill-opacity=".5" d="M172.3 73.9l-7.4 32-13.7-3.2 7.4-32z"/><path fill="#636152" fill-opacity=".5" d="M317 17.7L451.5-11l4.9 23-134.5 28.5z"/><path fill="#748395" fill-opacity=".5" d="M149.2 175.5l1.7-14 17 2.1-1.6 14z"/><path fill="#98674f" fill-opacity=".5" d="M229.7 157.8L204 206l-29-15.4 25.7-48.3z"/><path fill="#787363" fill-opacity=".5" d="M79 66.5l10-32.9 14.9 4.6-10 32.9z"/><path fill="#cbb5a8" fill-opacity=".5" d="M143.1 137.2l-33.2-26 4.8-6.2 33.2 26z"/><path fill="#3e5b7c" fill-opacity=".5" d="M168.4 159.8l14.9-23.8 9.3 5.8-15 23.8z"/><path fill="#b19486" fill-opacity=".5" d="M281.8 33.8L337.9 10l.6 1.5-56 23.8z"/><path fill="#98adc9" fill-opacity=".5" d="M250.8 68L213 57.7l6.4-24.1 37.8 10z"/><path fill="#bd998d" fill-opacity=".5" d="M192.1 41.5L195 40l8.2 16.9-2.8 1.3z"/><path fill="#444b3b" fill-opacity=".5" d="M108.1 26.5l.6 1.4L59 47l-.6-1.4z"/><path fill="#836759" fill-opacity=".5" d="M-51 168l.5-28 165.6 2.9-.5 28z"/><path fill="#fcfbf7" fill-opacity=".5" d="M149.8 97.3l-8.2-25.2 16.4-5.4 8.2 25.3z"/><path fill="#00162b" fill-opacity=".5" d="M113.5 17.2l2.2-2.2 10 10-2.3 2.2z"/><path fill="#ebf3fc" fill-opacity=".5" d="M115.1 31.8L79.1-.6l4.2-4.6 36 32.4z"/><path fill="#cececf" fill-opacity=".5" d="M132.9 40.4L175 29.1l6 22.7L139 63z"/><path fill="#36271d" fill-opacity=".5" d="M215.1 114.2l-.6 17.2-9.3-.3.6-17.2z"/><path fill="#74705e" fill-opacity=".5" d="M15.8 63.7l-6.7 48-14-2 6.8-48z"/><path fill="#f5ffff" fill-opacity=".5" d="M144 103.9l2.6 9-1.4.4-2.8-9z"/><path fill="#5e2f1d" fill-opacity=".5" d="M118 97.2l3.4-10.4 6 2-3.5 10.3z"/><path fill="#121a12" fill-opacity=".5" d="M266.1 91.3l11.1-27.5 14.5 5.8-11.1 27.6z"/><path fill="#43422f" fill-opacity=".5" d="M-17.9 189.7l79.1 9.7-1.1 9.3L-19 199z"/><path fill="#74503f" fill-opacity=".5" d="M107.2 232l-37.7-51.8 40.5-29.4 37.6 51.8z"/><path fill="#a6b3c0" fill-opacity=".5" d="M257.9 92L233 89l4.3-35.7 24.9 3z"/><path fill="#262023" fill-opacity=".5" d="M140 64.4l-.8 1.3-21.4-12.9.8-1.3z"/><path fill="#94776a" fill-opacity=".5" d="M91.6 103.6l-28.8 37L44.3 126l28.9-37z"/><path fill="#3f432b" fill-opacity=".5" d="M350.4 100.7l-9.3-16.2 25.7-14.9L376 86z"/><path fill="#d7ae99" fill-opacity=".5" d="M198 164.3l-9.5-21.4 5.7-2.5 9.5 21.4z"/><path fill="#605e5f" fill-opacity=".5" d="M249 85.3l12.1 3-2.3 9.2-12-3z"/><path fill="#4a5747" fill-opacity=".5" d="M215.3 34.2l-.6-1.4 21.6-9.2.6 1.4z"/><path fill="#d3cecb" fill-opacity=".5" d="M111.7 36.4l.1-1.5 25 2.1-.2 1.6z"/><path fill="#c09681" fill-opacity=".5" d="M230.6 27.8l43.6 3.8-.1 1.6-43.6-3.9z"/><path fill="#94896d" fill-opacity=".5" d="M361.9 73.6l-31 15.1-.6-1.4 30.9-15z"/><path fill="#3b2e27" fill-opacity=".5" d="M186.5 112.8l2 6-32.8 10.6-2-6z"/><path fill="#0a0a07" fill-opacity=".5" d="M393 89v8h-28.2v-8z"/><path fill="#9aaec1" fill-opacity=".5" d="M172.6 109.3H171l-1.4-39h1.6z"/><path fill="#877b6c" fill-opacity=".5" d="M287.4 47.2l-.3-1.5 83.4-13.2.2 1.5z"/><path fill="#77767a" fill-opacity=".5" d="M165.6 211.6l-9.2-1.8 4.5-23 9.2 1.8z"/><path fill="#001006" fill-opacity=".5" d="M338.2 93.2l-2.7 5.6-25.3-12.3 2.7-5.6z"/><path fill="#b79888" fill-opacity=".5" d="M268 169.7l-15.5-2.4 6.1-38.6 15.5 2.5z"/><path fill="#201513" fill-opacity=".5" d="M167.9 103.5l1.5.4-10.7 50.4-1.5-.3z"/><path fill="#2a3322" fill-opacity=".5" d="M232.5 30.7l.7-1.4 26.5 13.5-.7 1.4z"/><path fill="#cea791" fill-opacity=".5" d="M226 144.4l-18.2 4.5-4.1-16.7 18.2-4.5z"/><path fill="#cbab95" fill-opacity=".5" d="M379.7 108.2l24.9-2.2 1.6 18.7-24.9 2.1z"/><path fill="#8f9aaf" fill-opacity=".5" d="M166.5 92.3l3.7 5-16.4 12-3.7-5z"/><path fill="#d1dced" fill-opacity=".5" d="M12.5 36.5L5 12.6 48.5-.6l7.3 23.9z"/><path fill="#3a0f00" fill-opacity=".5" d="M203.5 141.2l-8.8-3.3 3.4-8.8 8.7 3.4z"/><path fill="#4a4d34" fill-opacity=".5" d="M342 56.8l-57.7-1 .2-11 57.8 1z"/><path fill="#62764b" fill-opacity=".5" d="M132.4 71L95 74.3l-.8-9.4 37.4-3.2z"/><path fill="#3c281e" fill-opacity=".5" d="M233.4 141.9L223 126.2l1.4-.9 10.2 15.7z"/><path fill="#a48a7d" fill-opacity=".5" d="M352 52.8l.6 17.2-18.7.6-.6-17.1z"/><path fill="#b6a484" fill-opacity=".5" d="M319.1 58.6l-29.7 13.9-.7-1.4 29.7-13.9z"/><path fill="#fdfcfc" fill-opacity=".5" d="M203.5 18.2l17.2 1.2-.8 10.9-17.1-1.2z"/><path fill="#937a6e" fill-opacity=".5" d="M75.6 133.5l-46.8 3.2L26 96.2 72.7 93z"/><path fill="#dfaf9d" fill-opacity=".5" d="M274.3 37.1l-.7-1.4 25.5-11.9.7 1.4z"/><path fill="#201e2b" fill-opacity=".5" d="M145.2 102.6l1.3-.8 10 15.9-1.4.8z"/><path fill="#132019" fill-opacity=".5" d="M111.2 55.2l-.6 7.8-14-1 .6-7.8z"/><path fill="#886e62" fill-opacity=".5" d="M214.7 185.9L331.3 141l27.5 71.5L242 257.4z"/><path fill="#313828" fill-opacity=".5" d="M348.3 14.4l67.9 18.2-.4 1.5-68-18.2z"/><path fill="#9f7d6e" fill-opacity=".5" d="M278.9 101l.4-4.7 71.5 7.5-.5 4.6z"/><path fill="#be9b9a" fill-opacity=".5" d="M306.7 12.6l-.7-1.4 23.2-12.9.8 1.4z"/><path fill="#190c07" fill-opacity=".5" d="M181.6 53l3.9-6.8 9.5 5.5-4 6.8z"/><path fill="#384f3e" fill-opacity=".5" d="M403.3 4l-.4 7.7-29.6-1.5.4-7.8z"/><path fill="#1c3932" fill-opacity=".5" d="M-6 39.8l2.3-5.8 14.5 6-2.4 5.8z"/><path fill="#b6cdda" fill-opacity=".5" d="M236.7 39h-34.4v-4.6h34.4z"/><path fill="#04080b" fill-opacity=".5" d="M174.2 190.8l-7.4-2.7 4.3-11.7 7.4 2.7z"/><path fill="#828ea1" fill-opacity=".5" d="M169.3 81l7.2-12 2.7 1.6-7.3 12z"/><path fill="#827d6e" fill-opacity=".5" d="M373.2 30.9l26.4-35 3.7 2.9-26.3 35z"/><path fill="#b49381" fill-opacity=".5" d="M422.8 190l-4.1 10.2-49.3-20 4.1-10z"/><path fill="#7c6b5f" fill-opacity=".5" d="M63.9 44.3l-1.6 12.4L15.8 51l1.5-12.4z"/><path fill="#603f29" fill-opacity=".5" d="M17 166.7l4.6 18.2-12.1 3-4.6-18.1z"/><path fill="#664a36" fill-opacity=".5" d="M355.6 153.5l1.3 18.8-11 .7-1.2-18.7z"/><path fill="#98b4a0" fill-opacity=".5" d="M255.3 59.5L280 50l.5 1.4-24.8 9.6z"/><path fill="#aa816d" fill-opacity=".5" d="M205.2 171.5l-22.6-6 4.4-16.7 22.6 6z"/><path fill="#8b726e" fill-opacity=".5" d="M167.6 135.5l4.2-8.4 2.8 1.5-4.2 8.3z"/><path fill="#283621" fill-opacity=".5" d="M291.7 38.3L339.2 23l2 6-47.6 15.4z"/><path fill="#2d3a24" fill-opacity=".5" d="M77 92.9l.6-34.4 9.4.2-.6 34.3z"/><path fill="#7b6866" fill-opacity=".5" d="M100 102.4l8.4 9.3-7 6.2-8.3-9.3z"/><path fill="#a09ca0" fill-opacity=".5" d="M237.1 155.4h-1.5l-2.4-34.2 1.5-.1z"/><path fill="#bfc7cd" fill-opacity=".5" d="M259.5 104.4l-19 49.6-1.5-.6 19-49.6z"/><path fill="#847566" fill-opacity=".5" d="M38.4 182.2l-25-43.3 12.2-7 25 43.3z"/><path fill="#432c21" fill-opacity=".5" d="M99.5 209.2L48 206.5l1-17.2 51.4 2.7z"/><path fill="#bbc4cd" fill-opacity=".5" d="M230.5 63.6l7.5-2.2 11.2 39-7.5 2.2z"/><path fill="#4c4c3d" fill-opacity=".5" d="M274.7 29.9l48-37.6 1 1.3-48 37.5z"/><path fill="#535762" fill-opacity=".5" d="M182 41.7l-1.4-.5 7.6-18.9 1.5.6z"/><path fill="#5a6e53" fill-opacity=".5" d="M285.6 81l2.3-26.5 6.2.5-2.3 26.5z"/><path fill="#deeafa" fill-opacity=".5" d="M146.3 0l-19 22.7-25.2-21 19-22.8z"/><path fill="#9b735e" fill-opacity=".5" d="M146.8 164.2l7.7 33.5-9.1 2.1-7.7-33.5z"/><path fill="#3d4635" fill-opacity=".5" d="M60 32.7L50.4 43l-5.7-5.4 9.6-10.3z"/><path fill="#bdb4a5" fill-opacity=".5" d="M412.5 55.8l-.1 1.6-26.5-2.3.2-1.6z"/><path fill="#906856" fill-opacity=".5" d="M400.9 199l-31 10.7-3.6-10.3 31-10.7z"/><path fill="#271b14" fill-opacity=".5" d="M172 143.1l-7.3 10.2-10.1-7.4 7.3-10.1z"/><path fill="#a39d9d" fill-opacity=".5" d="M180 24.7l-.7 6.2-38.9-4 .7-6.3z"/><path fill="#151a21" fill-opacity=".5" d="M173.4 65l-1-1.2L190.6 49l1 1.3z"/><path fill="#c6a09a" fill-opacity=".5" d="M299.8 5.6l1.8 7.7-6.1 1.4-1.8-7.6z"/><path fill="#877c7a" fill-opacity=".5" d="M250 81.2l-12.5 64.4-1.6-.3L248.5 81z"/><path fill="#2f3027" fill-opacity=".5" d="M71.5 65.3l36 15.2-2.5 5.8L69 71z"/><path fill="#313c51" fill-opacity=".5" d="M118.2 26l-.3-1.6 9.2-2 .3 1.6z"/><path fill="#704633" fill-opacity=".5" d="M225.4 180.5L207 177l3.6-18.4 18.4 3.6z"/><path fill="#708878" fill-opacity=".5" d="M272.2 67.2l.4 1.5-12 3.2-.4-1.5z"/><path fill="#78594e" fill-opacity=".5" d="M240.4 164.4l11-.6 3.5 67.1-11 .6z"/><path fill="#66493a" fill-opacity=".5" d="M52.1 164l10 4.4L49.4 197l-10-4.5z"/><path fill="#142c16" fill-opacity=".5" d="M257.3 53.6l3.2-8.8 8.8 3.2-3.2 8.8z"/><path fill="#be9f8e" fill-opacity=".5" d="M360.5 117.6l-79.5-5.5.7-9.4 79.5 5.6z"/><path fill="#807365" fill-opacity=".5" d="M23.2 33.3l71.2 10-.4 3-71.2-10z"/><path fill="#936056" fill-opacity=".5" d="M191.4 47.7l4.6-9.9 14.2 6.6-4.6 10z"/><path fill="#363c34" fill-opacity=".5" d="M361 40.6l10.3-9.6 19.2 20.6-10.3 9.6z"/><path fill="#f3faff" fill-opacity=".5" d="M187.2 21.8l-6.8 3.8L170.6 8l6.8-3.8z"/><path fill="#a7918b" fill-opacity=".5" d="M78.4 143.1L93.3 167l-1.4.8L77 144z"/><path fill="#281c15" fill-opacity=".5" d="M150 178.7l10.1 4-2.2 5.8-10.2-4z"/><path fill="#8b7053" fill-opacity=".5" d="M78.5 102.8l19-22.7 3.7 3L82 105.8z"/><path fill="#b8c1c9" fill-opacity=".5" d="M164.8 57.4l1.6-.2 7.8 55.7-1.5.2z"/><path fill="#39526a" fill-opacity=".5" d="M174 170.7l5.3-22.8 7.6 1.7-5.3 22.9z"/><path fill="#ad9185" fill-opacity=".5" d="M78.5 174.8l-1.3.8-16.7-30.1 1.4-.8z"/><path fill="#d4d8d9" fill-opacity=".5" d="M256 88.3l.5 28-1.6.1-.5-28.1z"/><path fill="#203047" fill-opacity=".5" d="M174 103l5.3-30.8 7.7 1.4-5.4 30.7z"/><path fill="#94aac3" fill-opacity=".5" d="M250.3 65.4l-21-18.8 9.5-10.5L259.7 55z"/><path fill="#c4bab7" fill-opacity=".5" d="M149.4 134.4l-3.1-9 6-2 3 9z"/><path fill="#bca18b" fill-opacity=".5" d="M326.5 81.8l16.3-5.6 1 3-16.3 5.5z"/><path fill="#ac8e78" fill-opacity=".5" d="M160.6 163l13.5-19.1 1.2.9L162 164z"/><path fill="#6a707b" fill-opacity=".5" d="M213.5 88.2l20.2 27.8-5 3.6-20.2-27.8z"/><path fill="#511004" fill-opacity=".5" d="M202.8 41.2l.6 6.2-4.6.5-.7-6.2z"/><path fill="#5d5641" fill-opacity=".5" d="M334.4 22.4l-60.9 2.1-.1-4.7 60.9-2.1z"/><path fill="#494025" fill-opacity=".5" d="M30.2 67.5l1.4.7-38.3 75.2-1.4-.7z"/><path fill="#6d7364" fill-opacity=".5" d="M61 71.2l.4 1.5L6 83.5l-.3-1.6z"/><path fill="#e4e0d8" fill-opacity=".5" d="M138.7 43l12.7 15.8-7.2 6L131.4 49z"/><path fill="#8a7562" fill-opacity=".5" d="M254.7 44.8l20.2-2.1.1 1.5-20.2 2.2z"/><path fill="#18301a" fill-opacity=".5" d="M25.7 61.8l-.3 1.6-27.7-5L-2 57z"/><path fill="#3e4155" fill-opacity=".5" d="M148.7 113.6l-.6-1.5 23.5-8.5.6 1.5z"/><path fill="#1f2b23" fill-opacity=".5" d="M92.7 37.3l-15.4-2.7.3-1.6L93 35.7z"/><path fill="#271712" fill-opacity=".5" d="M176.2 111.2l1.2 1-17.7 21.9-1.2-1z"/><path fill="#847677" fill-opacity=".5" d="M364.1 47.1l-.9 3-16.4-5 1-3z"/><path fill="#0e0e0a" fill-opacity=".5" d="M264.5 88.1l32.6 3.5-.6 6.2-32.7-3.4z"/><path fill="#e5eefb" fill-opacity=".5" d="M248.3 19.6l-4-10.2L315.8-18l4 10.2z"/><path fill="#7b8eaa" fill-opacity=".5" d="M204.7 50L226 66l-19.7 26.2-21.2-16z"/><path fill="#ad8b79" fill-opacity=".5" d="M152.8 175l-24.2-54 1.4-.7 24.2 54.3z"/><path fill="#646f85" fill-opacity=".5" d="M182.8 87l24 30.9-3.7 2.8-24-30.7z"/><path fill="#d1b4ac" fill-opacity=".5" d="M90.7 92l26.6.4-.2 7.8-26.5-.4z"/><path fill="#b1a49a" fill-opacity=".5" d="M127.3 57.4l-8.6 3.8-.6-1.4 8.5-3.8z"/><path fill="#7f8fa8" fill-opacity=".5" d="M186.3 140.2l-8.7-3.5 6.4-16 8.7 3.6z"/><path fill="#ba9687" fill-opacity=".5" d="M193.3 181l20 15.1-2 2.5-19.9-15z"/><path fill="#4d4639" fill-opacity=".5" d="M-44.4 97.2l-.2-4.7 109.3-3.8.2 4.7z"/><path fill="#29351d" fill-opacity=".5" d="M318.7 36.7l-7.2 8.2-13-11.3 7.2-8.2z"/><path fill="#223119" fill-opacity=".5" d="M394.5 66.1l-17-2.7 1.5-9.2 17 2.7z"/><path fill="#2d261e" fill-opacity=".5" d="M128.4 62L122 47.7l4.3-1.9 6.4 14.3z"/><path fill="#aab3c5" fill-opacity=".5" d="M164.5 176.2l8.6-20.2 1.4.6-8.5 20.2z"/><path fill="#c1aca6" fill-opacity=".5" d="M234.7 149.2l1.6.2-3.8 31-1.6-.1z"/><path fill="#304635" fill-opacity=".5" d="M96.3 61.5l.2 1.5L24 74.5l-.2-1.6z"/><path fill="#997969" fill-opacity=".5" d="M338.9 185.4l43.7-16.8 5 13.2-43.7 16.8z"/><path fill="#e9c2a8" fill-opacity=".5" d="M194 147.2l2.7-9 1.5.5-2.7 9z"/><path fill="#434d3f" fill-opacity=".5" d="M51.3 56.7l-10 24.7-13-5.3 10-24.6z"/><path fill="#7f7163" fill-opacity=".5" d="M320.5 50.6l-5.1-3.6 12.5-18 5.2 3.7z"/><path fill="#091306" fill-opacity=".5" d="M336 44.4l9-2.6 1.8 6-9 2.6z"/><path fill="#54362a" fill-opacity=".5" d="M197.2 145.2l18.4-27.2 1.3.9-18.4 27.2z"/><path fill="#7a7877" fill-opacity=".5" d="M65.4 82.7l.5 1.5-29.7 9.7-.5-1.5z"/><path fill="#6e767f" fill-opacity=".5" d="M156.9 138.7l-3 17-12.3-2.2 3-17z"/><path fill="#0e2118" fill-opacity=".5" d="M77.9 49.6L64 47.2l.3-1.5L78.2 48z"/><path fill="#b3a69f" fill-opacity=".5" d="M324.3 16.3L315 18l-.3-1.6 9.2-1.8z"/><path fill="#593e34" fill-opacity=".5" d="M259.5 100.6l-.2-3.1 79.7-2.8v3.1z"/><path fill="#af9084" fill-opacity=".5" d="M80.7 134.5l6.4-25.8 21.3 5.3-6.5 25.8z"/><path fill="#3b3d41" fill-opacity=".5" d="M195.7 19l-10.4 17.5-1.4-.9 10.5-17.4z"/><path fill="#3b3f4a" fill-opacity=".5" d="M211.1 120.9L204.7 95l7.6-1.9 6.4 25.8z"/><path fill="#957b70" fill-opacity=".5" d="M253.2 170.3l12.1-21.9 42.4 23.5-12.1 21.9z"/><path fill="#aba4a4" fill-opacity=".5" d="M102.4 40.8l7.9 9.7-4.9 4-7.9-9.7z"/><path fill="#84614c" fill-opacity=".5" d="M84.5 165l7-12.1 47.4 27.3-7 12.2z"/><path fill="#7b776b" fill-opacity=".5" d="M381 30.9l-45.1-4 .3-3 45.1 3.9z"/><path fill="#cb9f89" fill-opacity=".5" d="M248.6 33.7l-9.2-8.5 1-1.1 9.2 8.5z"/><path fill="#464644" fill-opacity=".5" d="M136.3 115.3l-1.2 1-7.3-8.1 1.2-1z"/><path fill="#8f7c77" fill-opacity=".5" d="M58.3 65.4l43.5-30.5.9 1.3-43.5 30.5z"/><path fill="#c1bdb9" fill-opacity=".5" d="M163.7 34.2l-18.4 41.4-4.3-2 18.4-41.3z"/><path fill="#283112" fill-opacity=".5" d="M269.9 32.5l-12.5 6.6-.7-1.3 12.4-6.6z"/><path fill="#4c564e" fill-opacity=".5" d="M104.2 39.4l-4.5-1.3 3.9-13.5L108 26z"/><path fill="#ecf2fa" fill-opacity=".5" d="M186.6-.5l8-7.5 29.8 32-8 7.4z"/><path fill="#808f9d" fill-opacity=".5" d="M182.3 25l-2 29.7-1.6-.1 2-29.6z"/><path fill="#000015" fill-opacity=".5" d="M168.4 100l.7 7.7-1.6.2-.6-7.8z"/><path fill="#cdcfd8" fill-opacity=".5" d="M406 2.5l-.4 1.4-13.3-4.8.6-1.5z"/><path fill="#665b5b" fill-opacity=".5" d="M130.7 25l1.3 1-23.6 34.9-1.3-.9z"/><path fill="#9fa5b1" fill-opacity=".5" d="M140.6 129H136v-28.2h4.7z"/><path fill="#89a78f" fill-opacity=".5" d="M286.1 63.7l-5.7-2.6.7-1.4 5.7 2.6z"/><path fill="#7a6b69" fill-opacity=".5" d="M135.7 101.3l.2 1.6-29.4 3.6-.2-1.6z"/><path fill="#bf9a87" fill-opacity=".5" d="M139 146.5l-3 1.1-23.4-61.3 2.9-1z"/><path fill="#d2ac96" fill-opacity=".5" d="M273.4 99.2v25h-17.1v-25z"/><path fill="#3d502f" fill-opacity=".5" d="M259.4 16.4h7.8v9.4h-7.8z"/><path fill="#3d3d42" fill-opacity=".5" d="M178.5 100.7l4.6.7-7 49.5-4.6-.7z"/><path fill="#74554a" fill-opacity=".5" d="M68.8 162.7L93.2 215l-4.2 2-24.4-52.5z"/><path fill="#746752" fill-opacity=".5" d="M26.6 208.8L12 199.9l19.3-32.1 14.7 8.8z"/><path fill="#121610" fill-opacity=".5" d="M345.6 98.7L311.4 95l.8-7.8 34.2 3.6z"/><path fill="#1b2f1e" fill-opacity=".5" d="M278 55.3l6.4 24.1-4.5 1.2-6.5-24.1z"/><path fill="#6b422e" fill-opacity=".5" d="M130.1 188.6l5.5-7.6 14 10.1-5.6 7.6z"/><path fill="#bb9f8b" fill-opacity=".5" d="M357.6 196.2l-1-4.6 62.4-14.4 1 4.6z"/><path fill="#1f3600" fill-opacity=".5" d="M301 71.7l40.4 3.5-.1 1.6-40.5-3.6z"/><path fill="#988784" fill-opacity=".5" d="M102.8 199.6l7-14 1.5.8-7.1 13.9z"/><path fill="#b2c4d9" fill-opacity=".5" d="M237.5 51.6l-1.6 4.4-25-9.1 1.6-4.4z"/><path fill="#334026" fill-opacity=".5" d="M393.8 79.2l-30.5 7-2.4-10.7 30.4-7z"/><path fill="#7d776b" fill-opacity=".5" d="M21.3 72.9L-17.6 109l-2.1-2.3L19 70.6z"/><path fill="#786157" fill-opacity=".5" d="M141.3 121.6l1-3 14.8 5.1-1 3z"/><path fill="#d0d1d7" fill-opacity=".5" d="M136.9 124l10.1 12-1.2 1-10.2-11.8z"/><path fill="#413436" fill-opacity=".5" d="M410.6 48l.3 1.5-23 4-.4-1.5z"/><path fill="#393327" fill-opacity=".5" d="M347.6 53l-40.4 3.5-.2-1.6 40.5-3.5z"/><path fill="#a2826d" fill-opacity=".5" d="M377.8 68.2l.3 1.6-26.3 4.1-.2-1.5z"/><path fill="#a49378" fill-opacity=".5" d="M382.6 67.1l.6-1.4 23.2 9.4-.6 1.4z"/><path fill="#b0aca8" fill-opacity=".5" d="M245.7 92.3l5.2 9.6-13.8 7.4-5.2-9.7z"/><path fill="#24351b" fill-opacity=".5" d="M321.3 31.8l.5 3-38.4 6.8-.6-3z"/><path fill="#9a8a79" fill-opacity=".5" d="M321.2 81.8l.5-1.5 18 5.1-.4 1.5z"/><path fill="#887e70" fill-opacity=".5" d="M422.1 26.6l-.5 1.5L367 9.3l.6-1.5z"/><path fill="#414c58" fill-opacity=".5" d="M143.6 151l1.2-1 19.4 22.4-1.1 1z"/><path fill="#b8b0ac" fill-opacity=".5" d="M168.2 114.7l4.7-4 1 1.1-4.7 4.1z"/><path fill="#593d35" fill-opacity=".5" d="M240.5 109.4l1.5.2-2.8 20.1-1.5-.2z"/><path fill="#7d8a99" fill-opacity=".5" d="M196.4 16l-8.7 11.1-1.2-1 8.6-11z"/><path fill="#aa826f" fill-opacity=".5" d="M139.7 174.4l-1.6.4-7.4-35.2 1.5-.3z"/><path fill="#707c67" fill-opacity=".5" d="M93 68.1L64.4 60l.5-1.5 28.5 8.2z"/><path fill="#4b4e40" fill-opacity=".5" d="M426.8 33.6l-.4 1.5L312.2 2.4l.5-1.5z"/><path fill="#a18575" fill-opacity=".5" d="M335.5 134.9L359 112l19.5 20.2-23.6 22.8z"/><path fill="#5f4f4a" fill-opacity=".5" d="M96.2 42.9l-.6-1.4 34.8-14 .6 1.4z"/><path fill="#6e4f45" fill-opacity=".5" d="M29.8 102.7l-5 26-9.3-1.7 5-26z"/><path fill="#182214" fill-opacity=".5" d="M396.3 71.7l4.6.9-5 26-4.6-.9z"/><path fill="#b1765e" fill-opacity=".5" d="M216 141.7l14.2 6.6-4 8.5-14.2-6.6z"/><path fill="#714023" fill-opacity=".5" d="M143 151.8l3 12.1-6.1 1.5-3-12.1z"/><path fill="#8c7b73" fill-opacity=".5" d="M35.2 33.3l.7 1.5-38.3 17.8-.6-1.4z"/><path fill="#8c926d" fill-opacity=".5" d="M114.7 74.9l-1.2-9.4 10.9-1.3 1.1 9.3z"/><path fill="#bca697" fill-opacity=".5" d="M73.2 34l-.6-1.5 5.8-2.4.6 1.5z"/><path fill="#3c3c35" fill-opacity=".5" d="M332.3 25.5L332 24l34-4.2.3 1.5z"/><path fill="#d1deed" fill-opacity=".5" d="M-3.5 27.2l-.9-51.6 72-1.2.8 51.5z"/><path fill="#494556" fill-opacity=".5" d="M162 104.3l-12 9.7-1-1.2 12.1-9.8z"/><path fill="#bfa0a2" fill-opacity=".5" d="M324.3 39.6l-6 2-.4-1.5 6-2z"/><path fill="#e3bba2" fill-opacity=".5" d="M119.2 74l8.6 6.8-4.8 6.1-8.6-6.7z"/><path fill="#7c7373" fill-opacity=".5" d="M363.4 24.4l-.7 1.4-15.2-8 .7-1.4z"/><path fill="#2a3528" fill-opacity=".5" d="M61.5 80.3l-.8-6.2 48.1-6 .8 6.3z"/><path fill="#ded6d1" fill-opacity=".5" d="M128.4 32.8l.5-1.5 19.3 6.3-.5 1.4z"/><path fill="#0b180c" fill-opacity=".5" d="M314 83.5l.1 1.5-17.1 1.8-.2-1.5z"/><path fill="#314222" fill-opacity=".5" d="M273.4 44.8l.7-1.4 22.8 10.2-.6 1.4z"/><path fill="#30372e" fill-opacity=".5" d="M35.5 86.8l-3 7.2-10.2-4.3 3.1-7.2z"/><path fill="#030000" fill-opacity=".5" d="M109.9 42.9l4.3 1.9-.7 1.4-4.2-2z"/><path fill="#a08679" fill-opacity=".5" d="M93 57.4l-4.4-16.6 10.6-2.9 4.4 16.6z"/><path fill="#5c4438" fill-opacity=".5" d="M389.8 153l3.2 23.2-3 .5-3.3-23.2z"/><path fill="#c6ab99" fill-opacity=".5" d="M289.2 70.7l1.6-4.4 6 2.1-1.7 4.4z"/><path fill="#997b6b" fill-opacity=".5" d="M369.4 167.5l21.4-12.9.8 1.4-21.4 12.8z"/><path fill="#5e6e8d" fill-opacity=".5" d="M206 74.8l-7-12.1 2.7-1.6 7 12.2z"/><path fill="#fffcf8" fill-opacity=".5" d="M193.6 34.4l-2.6-1.8 10.8-15.4 2.5 1.8z"/><path fill="#9b9ba6" fill-opacity=".5" d="M198.6 122.4l-2.4 2-8.9-11 2.5-1.9z"/><path fill="#8b9fba" fill-opacity=".5" d="M191 66.7l-9.3-.6.7-9.4 9.3.7z"/><path fill="#51362c" fill-opacity=".5" d="M95.8 176.4l4 8.5-12.8 6-4-8.6z"/><path fill="#1b290f" fill-opacity=".5" d="M402 46.8l-20.3-8.2 2.3-5.8 20.3 8.2z"/><path fill="#917d71" fill-opacity=".5" d="M239.8 109.2L219.5 131l-4.6-4.3 20.3-21.7z"/><path fill="#afb7c0" fill-opacity=".5" d="M242.8 156l3.4-48.2 3.1.2-3.3 48.3z"/><path fill="#dec8b7" fill-opacity=".5" d="M217.4 136.9l-1.6-4.4 5.9-2.2 1.6 4.4z"/><path fill="#525e47" fill-opacity=".5" d="M336.9 94l-26.3-19.7 1-1.2 26.2 19.7z"/><path fill="#4d503d" fill-opacity=".5" d="M362.3 31.2l-.9-1.3L408-1.5l1 1.3z"/><path fill="#4c5242" fill-opacity=".5" d="M11.8 38l6.2 1-6.4 40.1-6.1-1z"/><path fill="#9495a1" fill-opacity=".5" d="M124.4 104.1l-1.5-.4 10.5-34.4 1.5.5z"/><path fill="#e2eaf1" fill-opacity=".5" d="M287.9 4.6L245 23.7l-6.3-14.3 42.8-19z"/><path fill="#dedad9" fill-opacity=".5" d="M158.7 41l15.4 2.5-3.1 20.1-15.5-2.4z"/><path fill="#e0bca2" fill-opacity=".5" d="M209.7 137l-5.9-2.1.5-1.5 6 2z"/><path fill="#563e2e" fill-opacity=".5" d="M339.8 165.6v4.7h-6.2v-4.7z"/><path fill="#bf9e8e" fill-opacity=".5" d="M251.2 32.4l-.3-1.5 30.8-5.5.2 1.6z"/><path fill="#6a6363" fill-opacity=".5" d="M236.4 137.3l-4.1 11.8-1.5-.5 4-11.8z"/><path fill="#807c7c" fill-opacity=".5" d="M157.2 29.2l-3-1 2.6-9 3 1z"/><path fill="#5b667c" fill-opacity=".5" d="M139.2 73.7L142 89l-7.7 1.4-2.7-15.4z"/><path fill="#8a6f5d" fill-opacity=".5" d="M190.4 156.7l43.4 66.8-4 2.6-43.3-66.8z"/><path fill="#5e2e1a" fill-opacity=".5" d="M395.7 197.6l4-2.3 3 5.5-4 2.3z"/><path fill="#5f5454" fill-opacity=".5" d="M183.6 112.5L163 140l-1.2-1 20.7-27.4z"/><path fill="#12242e" fill-opacity=".5" d="M176.7 91.2l-3.5 10.3-1.5-.5 3.6-10.3z"/><path fill="#909cb3" fill-opacity=".5" d="M132.6 92.6l-1-7.8 6.1-.8 1 7.7z"/><path fill="#847266" fill-opacity=".5" d="M248.2 26l-8.6 3.8-1.9-4.3 8.6-3.8z"/><path fill="#71807b" fill-opacity=".5" d="M47 90l-2.6 4-21-13.7 2.5-4z"/><path fill="#7e90ab" fill-opacity=".5" d="M228.7 39l1-1.2L251 56.3l-1 1.2z"/><path fill="#94776b" fill-opacity=".5" d="M7.4 161l-3.8-35.7 3.1-.4 3.8 35.8z"/><path fill="#745948" fill-opacity=".5" d="M63.7 150.5l4.6-13.3 13.3 4.5L77 155z"/><path fill="#746356" fill-opacity=".5" d="M172.7 218l-8.5-4.1 17.8-36.6 8.5 4.2z"/><path fill="#b5c9de" fill-opacity=".5" d="M195 58.9L192.4 71l-1.5-.3 2.6-12.2z"/><path fill="#656f78" fill-opacity=".5" d="M301.6 3.5l-7.5 2.3-.4-1.5 7.5-2.3z"/><path fill="#3a301d" fill-opacity=".5" d="M15.6 115l-4.6-.6 3-21.7 4.7.7z"/><path fill="#2c3c2a" fill-opacity=".5" d="M3.9 69.3l62.5-1.1v1.6L4 70.8z"/><path fill="#727e6d" fill-opacity=".5" d="M30.6 69.1l7-3.4 2 4.2-7 3.5z"/><path fill="#9e9285" fill-opacity=".5" d="M20.7 94l23.6 15.3-.9 1.4-23.6-15.4z"/><path fill="#aebdd1" fill-opacity=".5" d="M260.4 74.1l-29 6.2-2.7-12.2 29-6.2z"/><path fill="#735947" fill-opacity=".5" d="M306 177.9l7.1 3.1-5 11.5-7.2-3.2z"/><path fill="#213814" fill-opacity=".5" d="M338.8 41l.5 6.3-11 .7-.4-6.2z"/><path fill="#07130d" fill-opacity=".5" d="M107.5 57.6l.6 1.4-14 6.8-.7-1.4z"/><path fill="#b4cee3" fill-opacity=".5" d="M235 39l19.7 9.6-.7 1.4-19.6-9.6z"/><path fill="#52553c" fill-opacity=".5" d="M361.2 58l-1.7-2.6L378 43.5l1.7 2.6z"/><path fill="#ac8375" fill-opacity=".5" d="M286.8 103.2l-.6 3-24.5-4.7.5-3z"/><path fill="#39373c" fill-opacity=".5" d="M162 168.3l1.6.3-8.5 36.6-1.5-.4z"/><path fill="#414b31" fill-opacity=".5" d="M319.9 10.5l.4 1.5-66.7 16.6-.4-1.5z"/><path fill="#434a54" fill-opacity=".5" d="M181.2 69.6l-11-.2.2-6.2 10.9.2z"/><path fill="#dbb399" fill-opacity=".5" d="M292.1 28l.2 4.7-7.8.2-.2-4.6z"/><path fill="#92907f" fill-opacity=".5" d="M369.7 32.3l-.2-1.5 15.5-2.2.2 1.6z"/><path fill="#40491e" fill-opacity=".5" d="M368.7 87.8l-42.8-22.7.7-1.4 42.8 22.8z"/><path fill="#968679" fill-opacity=".5" d="M164 178.7l-42.4-10.6.3-1.5 42.5 10.6z"/><path fill="#788498" fill-opacity=".5" d="M228.6 104.8l-11.3-24.1L223 78l11.2 24.1z"/><path fill="#c0a69a" fill-opacity=".5" d="M97.7 117.7l1.3 7.7-14 2.2-1-7.6z"/><path fill="#4a3222" fill-opacity=".5" d="M217 127.7l-22 8.4-1-2.9 21.8-8.4z"/><path fill="#c6cdd6" fill-opacity=".5" d="M147.7 114l-1.5.1-1.7-14 1.5-.1z"/><path fill="#b5a2aa" fill-opacity=".5" d="M115.9 57.8l-3.5-7 1.4-.7 3.5 7z"/><path fill="#32363b" fill-opacity=".5" d="M193.2 26.6l-1.5-.2 1-7.7 1.6.2z"/><path fill="#7b7471" fill-opacity=".5" d="M339 11l-15.7 7.3-1.3-2.8 15.6-7.3z"/><path fill="#a9877d" fill-opacity=".5" d="M403.7 173.3L396 175l-1.3-6.2 7.7-1.6z"/><path fill="#2a352a" fill-opacity=".5" d="M352.7 3.6l.7 4.6-13.9 2.2-.7-4.6z"/><path fill="#9aa5ae" fill-opacity=".5" d="M261.8 67.7l-8 41.4-1.6-.3 8-41.4z"/><path fill-opacity=".5" d="M157.5 110.6l7.4 2.6-2 5.9-7.5-2.6z"/><path fill="#9d9897" fill-opacity=".5" d="M153.1 157.8h-1.5v-39h1.5z"/><path fill="#131f0e" fill-opacity=".5" d="M394.5 63.7v1.6l-28.1-2.5.1-1.5z"/><path fill="#637793" fill-opacity=".5" d="M180.4 63.1l3-1 9.6 26.4-3 1z"/><path fill="#6b727c" fill-opacity=".5" d="M159.1 190.2l-1.1-1 25-27.9 1.2 1z"/><path fill="#445d38" fill-opacity=".5" d="M291.4 75h21.9v7.8h-21.9z"/><path fill="#888076" fill-opacity=".5" d="M371-2.4l.2 15.6-6.2.1-.3-15.6z"/><path fill="#695f58" fill-opacity=".5" d="M31.3 31.5L43 27.2 48.4 42l-11.8 4.3z"/><path fill="#6b4c3e" fill-opacity=".5" d="M40.2 158.3L84 182.5l-.8 1.4-43.7-24.2z"/><path fill="#4e4f50" fill-opacity=".5" d="M250.5 95.6l-2.8-1.4 3.4-7 2.8 1.4z"/><path fill="#465917" fill-opacity=".5" d="M319.1 69.3l-20 3.5-1-6.1 20-3.6z"/><path fill="#9b7f71" fill-opacity=".5" d="M307 101.4l81.2-2.8.1 4.7-81.2 2.8z"/><path fill="#919679" fill-opacity=".5" d="M34 165.4L21.4 172l-.7-1.4 12.4-6.6z"/><path fill="#8b97a7" fill-opacity=".5" d="M241.2 55.4l11.2 30.8-1.4.6-11.3-30.9z"/><path fill="#2c170e" fill-opacity=".5" d="M225.2 128.5l-1-1.2 11.6-10.5 1 1.2z"/><path fill="#fefefa" fill-opacity=".5" d="M207.1 26.7l-18.2 9-.7-1.5 18.2-8.9z"/><path fill="#7a5148" fill-opacity=".5" d="M110.2 88.7l15.6.8V91l-15.7-.8z"/><path fill="#1d1c15" fill-opacity=".5" d="M66.1 96l-6-2 3.5-10.3 6 2z"/><path fill="#554f49" fill-opacity=".5" d="M308.8 85.7l1 1.3-14 10-.9-1.2z"/><path fill="#7c9579" fill-opacity=".5" d="M259.6 58.3l28.8-7.2.4 1.5-28.8 7.2z"/><path fill="#bb917c" fill-opacity=".5" d="M134 126.8l6.7 12.5-13.8 7.3-6.6-12.4z"/><path fill="#1a2a16" fill-opacity=".5" d="M284.1 56.3l1-1.3 7.3 6-1 1.2z"/><path fill="#aa9189" fill-opacity=".5" d="M355.3 59l-1.4 11-20.1-2.5 1.3-10.9z"/><path fill="#e6effa" fill-opacity=".5" d="M208.4-21.2l10.1 28-44 16-10.2-28z"/><path fill="#9e8378" fill-opacity=".5" d="M32 133.9l14.6-16.3 10.5 9.4-14.7 16.3z"/><path fill="#724535" fill-opacity=".5" d="M112.9 139l3.5 8.7-5.8 2.3-3.5-8.6z"/><path fill="#977668" fill-opacity=".5" d="M342.8 155.2l-69.9-7.4 1.5-14 69.9 7.4z"/><path fill="#415858" fill-opacity=".5" d="M224.2 34.6l-25-.4v-1.6l25 .4z"/><path fill="#6c5647" fill-opacity=".5" d="M251.6 123.8l1.5-.4 3.1 13.7-1.5.4z"/><path fill="#a4a2a2" fill-opacity=".5" d="M157.3 38.9l-.5-1.5 25-9 .5 1.4z"/><path fill="#9e7f73" fill-opacity=".5" d="M93 137l1.4-.6 8 22-1.5.5z"/><path fill="#d08c82" fill-opacity=".5" d="M207 48.3l-.6 1.4-5.7-2.7.7-1.4z"/><path fill="#a59087" fill-opacity=".5" d="M295.2 14.7l-.4-1.5 30.3-7.6.4 1.5z"/><path fill="#0f0b0b" fill-opacity=".5" d="M275.7 73.5l.8 1.4-16.3 9.4-.7-1.4z"/><path fill="#75564a" fill-opacity=".5" d="M366.2 140l1.6-.2 2 37.5h-1.6z"/><path fill="#535a44" fill-opacity=".5" d="M203.6 34.1l-.5-1.5 7.3-2.6.6 1.4z"/><path fill="#c6ad9b" fill-opacity=".5" d="M186.8 159.3l-1.4-.6L196 136l1.4.7z"/><path fill="#9c8172" fill-opacity=".5" d="M317.9 222l-1.2-1 63.9-79 1.2 1z"/><path fill="#7d7164" fill-opacity=".5" d="M3.1 43.1l.4-1.5 73 16.9-.3 1.5z"/><path fill="#596755" fill-opacity=".5" d="M274.6 11.6L279 20l-8.3 4.4-4.4-8.3z"/><path fill="#07111a" fill-opacity=".5" d="M149.2 103.9v3l-3 .2-.2-3.1z"/><path fill="#784d2d" fill-opacity=".5" d="M112.3 166.3l9.3-1.2 2 17-9.2 1.2z"/><path fill="#525138" fill-opacity=".5" d="M326.4 26.8l-32.3 5.7-.2-1.5 32.3-5.7z"/><path fill="#7a756a" fill-opacity=".5" d="M44.9 79.5L56 73.8l.7 1.4-11.1 5.7z"/><path fill="#3e4b35" fill-opacity=".5" d="M358.9 74l37.3 11.4-.4 1.5-37.4-11.4z"/><path fill="#e1eaf4" fill-opacity=".5" d="M87.6 26L85.9 2.6l28-2 1.7 23.4z"/><path fill="#a18b80" fill-opacity=".5" d="M320.2 166.6L301 180l-.9-1.3 19.2-13.4z"/><path fill="#424837" fill-opacity=".5" d="M234.6 30.3l1.7-2.6L254.5 40l-1.8 2.6z"/><path fill="#827960" fill-opacity=".5" d="M302.4 61l56.2 3v1.5l-56.3-3z"/><path fill="#d4d6d7" fill-opacity=".5" d="M152.2 104l-4-4.8 16.8-14 4 4.7z"/><path fill="#5b5f45" fill-opacity=".5" d="M334.6 53.3l-37.3-11.4.9-3 37.3 11.4z"/><path fill="#5b5c46" fill-opacity=".5" d="M352.4 91l-.5-1.5 19.1-7 .5 1.5z"/><path fill="#a6b6bc" fill-opacity=".5" d="M276 7l6.1 1.6-.4 1.5-6-1.5z"/><path fill="#7e5e4f" fill-opacity=".5" d="M281.2 159v-4.7l45.4.8v4.7z"/><path fill="#998e82" fill-opacity=".5" d="M249.4 170.4l-3.5-32.6 3.2-.4 3.4 32.7z"/><path fill="#6e4a36" fill-opacity=".5" d="M13.6 165l-3.4-13.7 9-2.2 3.5 13.6z"/><path fill="#e0eff5" fill-opacity=".5" d="M286.8 8.5l-.8-1.3L308.5-7l.8 1.3z"/><path fill="#4a463d" fill-opacity=".5" d="M127.4 32.4l-43.8.8v-1.6l43.7-.7z"/><path fill="#484d3b" fill-opacity=".5" d="M278 9.5l33.7 12.3-.6 1.5L277.4 11z"/><path fill="#9b6245" fill-opacity=".5" d="M209.6 163.7l-13-15.6 4.7-4 13 15.6z"/><path fill="#9b8077" fill-opacity=".5" d="M318.7 138.4l-5.8-2.3 10.6-26 5.8 2.3z"/><path fill="#77624b" fill-opacity=".5" d="M7.3 96.7l4.8 14.9-17.8 5.8-4.8-14.9z"/><path fill="#451d21" fill-opacity=".5" d="M120 56l-8.3-9.4 1.2-1 8.2 9.4z"/><path fill="#e9f0f8" fill-opacity=".5" d="M192-10.4L226-30l24.2 42-33.8 19.5z"/><path fill="#271c18" fill-opacity=".5" d="M164.2 152l-4.7-4 12.3-14.2 4.7 4.1z"/><path fill="#9b8b86" fill-opacity=".5" d="M120.3 28l.6 1.5-30.2 12.8-.6-1.5z"/><path fill="#43462b" fill-opacity=".5" d="M12.2 189.4l2 14-18.6 2.5-2-13.9z"/><path fill="#3e482a" fill-opacity=".5" d="M273.5 18.3l-22.9 10.2-.6-1.5 22.8-10z"/><path fill="#2d342d" fill-opacity=".5" d="M385.2 9.8l-12.5.7-.1-3.1 12.5-.7z"/><path fill="#c3ab99" fill-opacity=".5" d="M130 119l-18.3 4-2.6-12.3 18.3-4z"/><path fill="#9a8d67" fill-opacity=".5" d="M386.3 132.6l9.3-5.8 16.5 26.5-9.2 5.8z"/><path fill="#585d75" fill-opacity=".5" d="M192 136.3l-5 6-2.4-2 5-6z"/><path fill="#150b0a" fill-opacity=".5" d="M278 82.4l-19.1 16-1-1.1 19.1-16z"/><path fill="#494f41" fill-opacity=".5" d="M31.4 84.8l12.3-40.4 1.5.5-12.3 40.3z"/><path fill="#89926b" fill-opacity=".5" d="M118.1 134.4l-6.3-4.6 9.2-12.6 6.3 4.6z"/><path fill="#839177" fill-opacity=".5" d="M404.7 32.3l-.3 1.5-10.7-2 .3-1.6z"/><path fill="#3c4759" fill-opacity=".5" d="M176 143l11 6-5.3 9.6-11-6z"/><path fill="#5d3e31" fill-opacity=".5" d="M233 168l-4 11.8-7.4-2.5 4-11.8z"/><path fill="#6a6554" fill-opacity=".5" d="M67.8 99L18 94.8l.1-1.6L68 97.5z"/><path fill="#b09485" fill-opacity=".5" d="M259.3 155l1.4-.6 19 35.8-1.3.8z"/><path fill="#7c6d64" fill-opacity=".5" d="M170 202.9l-1.5.2-2.6-17 1.5-.2z"/><path fill="#6f7a92" fill-opacity=".5" d="M196.6 103.5l-14-.8.5-10.9 14 .8z"/><path fill="#cfaa96" fill-opacity=".5" d="M307 24.2v1.5l-18.6 1.7-.2-1.6z"/><path fill="#555a54" fill-opacity=".5" d="M86.3 33.7l-1.5.6L81 24l1.5-.6z"/><path fill="#44464b" fill-opacity=".5" d="M197.2 123.4L218 107l2 2.5-21 16.3z"/><path fill="#9e8b7f" fill-opacity=".5" d="M273.8 208.4l40.8-19.8.6 1.4-40.7 19.9z"/><path fill="#9d856a" fill-opacity=".5" d="M369.4 182l4 2.4-19.3 32.1-4-2.4z"/><path fill="#727e5f" fill-opacity=".5" d="M116.3 66.1L106 69.5l-2-6 10.5-3.3z"/><path fill="#213520" fill-opacity=".5" d="M405.6 28l-.9 3-15-4.3.9-3z"/><path fill="#897267" fill-opacity=".5" d="M316.6 29l-8.2-4.6 4.7-8.1 8.1 4.6z"/><path fill="#0f160f" fill-opacity=".5" d="M362.9 80l.4 1.5-9 2.6-.4-1.5z"/><path fill="#070f00" fill-opacity=".5" d="M76.7 85.4l.8-1.3 6.7 3.9-.7 1.3z"/><path fill="#b3917c" fill-opacity=".5" d="M392 128.8l-1.5-.4 16-55.6 1.4.4z"/><path fill="#958984" fill-opacity=".5" d="M224.4 220.1l-1.5-.5 23-63.2 1.5.6z"/><path fill="#54302a" fill-opacity=".5" d="M96.5 156l-2.5 5.8-1.4-.6 2.4-5.8z"/><path fill-opacity=".5" d="M169.5 102.2l1.4 2.8-1.4.7-1.4-2.9z"/><path fill="#2c2d2d" fill-opacity=".5" d="M125.6 54l-1.5-.2 1.9-15.6 1.5.2z"/><path fill="#77594d" fill-opacity=".5" d="M351 202l-13.7 3.5-2.3-9.1 13.7-3.4z"/><path fill="#35402f" fill-opacity=".5" d="M71.9 71.1l-3.6-3 8.3-9.5 3.5 3z"/><path fill="#182318" fill-opacity=".5" d="M40.3 71.2l.7-4.6 7.8 1.2-.8 4.7z"/><path fill="#bbc5ce" fill-opacity=".5" d="M191.7 32.5l31.2 10.1-.5 1.5L191.2 34z"/><path fill="#53454b" fill-opacity=".5" d="M260.8 94.1l-1.2-1 9.3-10.6 1.1 1z"/><path fill="#b1b4b8" fill-opacity=".5" d="M189.7 131.8l-1.2-4.6 4.6-1.2 1.2 4.6z"/><path fill="#8d5a43" fill-opacity=".5" d="M227.6 150.4l4 8.5-17 7.9-4-8.5z"/><path fill="#706751" fill-opacity=".5" d="M254.7 38.4l24.5-4.7 2 10.7-24.5 4.8z"/><path fill="#332317" fill-opacity=".5" d="M67.5 217.3l-4.7-.3 2.5-35.9 4.7.4z"/><path fill="#d9b4a7" fill-opacity=".5" d="M403.2 69.7l-.4 1.5-7.6-1.9.4-1.5z"/><path fill="#8e7462" fill-opacity=".5" d="M381.8 186.4l-1.2 1-42.1-50.3 1.2-1z"/><path fill="#d6dbe3" fill-opacity=".5" d="M-11 19.5h39.1V32h-39z"/><path fill="#92887a" fill-opacity=".5" d="M384 52.4l.7-1.4 29.7 13.8-.6 1.4z"/><path fill="#8a90a1" fill-opacity=".5" d="M196.8 83l9.2 12.7-1.3 1-9.1-12.7z"/><path fill="#94726f" fill-opacity=".5" d="M110.6 53.2l10.6-9.2 1 1.2-10.6 9.2z"/><path fill="#bcaaa8" fill-opacity=".5" d="M129 34.8l-1-3 19.6-5.6.9 3z"/><path fill="#766d67" fill-opacity=".5" d="M76.9 59.3L48.2 67l-1.6-6 28.6-7.7z"/><path fill="#6a4a42" fill-opacity=".5" d="M381.2 147l-1.4 20.3-3.2-.2 1.5-20.3z"/><path fill="#edf3fa" fill-opacity=".5" d="M186.3 16.3l-60.6 6.4-1-9.3L185.3 7z"/><path fill="#af8d76" fill-opacity=".5" d="M207.2 207l4.5-16.7 4.5 1.2-4.4 16.6z"/><path fill="#3d4d33" fill-opacity=".5" d="M361 32.4l57.7 4V38L361 34z"/><path fill="#382f1f" fill-opacity=".5" d="M-.5 113.4l3.4-3.2 8.5 9.2-3.4 3.2z"/><path fill="#7c6658" fill-opacity=".5" d="M291.9 175.9l3.6-5.2 20.4 14.4-3.5 5.1z"/><path fill="#9c7969" fill-opacity=".5" d="M100.3 107.3l1.4-.6 27.7 59.4-1.4.7z"/><path fill="#795f54" fill-opacity=".5" d="M-18.8 137.3l-1-6.2 52.7-7.4.9 6.2z"/><path fill="#725731" fill-opacity=".5" d="M334.6 102.5l.8-1.3 6.6 4.1-.8 1.3z"/><path fill="#2b3542" fill-opacity=".5" d="M193.4 14.2l1.6-.2.6 4.6-1.5.2z"/><path fill="#29221e" fill-opacity=".5" d="M180.2 108.1l1.1 1.1-22.5 21.7-1-1z"/><path fill="#e6eef3" fill-opacity=".5" d="M117.9 30.1L73.7 10.4l.6-1.4 44.2 19.7z"/><path fill="#585d32" fill-opacity=".5" d="M93.5 85l-1.9 4.2-8.6-3.8 2-4.3z"/><path fill="#d6beab" fill-opacity=".5" d="M255.1 130l4-24.6 3 .5-4 24.7z"/><path fill="#4b5934" fill-opacity=".5" d="M274.3 83.4l18.3-4.2.3 1.5-18.3 4.2z"/><path fill="#74695f" fill-opacity=".5" d="M349.8 16l-32.6-4 .2-1.5 32.6 4z"/><path fill="#c6aa96" fill-opacity=".5" d="M378 189l-15.6 21.4-1.3-.9 15.6-21.5z"/><path fill="#b2a3a0" fill-opacity=".5" d="M195.6 50l-.6-10.9h1.6l.6 10.9z"/><path fill="#abb8b2" fill-opacity=".5" d="M2.4 87.2l-1 1.2-2.3-2.2 1.1-1.1z"/><path fill="#a88271" fill-opacity=".5" d="M208.1 155.2l-10 63.3-1.5-.3 10-63.2z"/><path fill="#605553" fill-opacity=".5" d="M161.3 132.1l1.2 1-12.8 17.6-1.3-.9z"/><path fill="#605852" fill-opacity=".5" d="M70.3 104.2L24 57.8l1.1-1L71.4 103z"/><path fill="#93857b" fill-opacity=".5" d="M41.8 39.7l-23-4.5.3-1.5 23 4.5z"/><path fill="#757557" fill-opacity=".5" d="M313.3 77.6V76l21.9 1.1-.1 1.6z"/><path fill="#7f6664" fill-opacity=".5" d="M346 58.2v1.6l-56.1-4v-1.5z"/><path fill="#d5ceca" fill-opacity=".5" d="M103.4 43l-.8-1.4 8-4.8.9 1.3z"/><path fill="#856c5e" fill-opacity=".5" d="M114.7 175.3l-17 2.4-1.5-10.8 17-2.4z"/><path fill="#655a4a" fill-opacity=".5" d="M83 56.5l16-9.7.8 1.4-16 9.6z"/><path fill="#504e3f" fill-opacity=".5" d="M42.4 33.6L54.5 37l-1.6 6-12-3.2z"/><path fill="#41120e" fill-opacity=".5" d="M192.7 54l2.2-4 1.4.6-2.2 4.2z"/><path fill="#696a5a" fill-opacity=".5" d="M50.7 64.5L9.8 54.2l.4-1.5 41 10.2z"/><path fill="#9f8b7c" fill-opacity=".5" d="M383.5 153l1.7 10.9-1.5.2-1.7-10.8z"/><path fill="#223027" fill-opacity=".5" d="M136.5 63.8L121 61.1l.2-1.5 15.4 2.7z"/><path fill="#937870" fill-opacity=".5" d="M8.5 133.1l22.3 14.5-3.4 5.2-22.3-14.4z"/><path fill="#806c63" fill-opacity=".5" d="M54.2 118.4l20.5-31.5 3.9 2.6-20.4 31.4z"/><path fill="#474938" fill-opacity=".5" d="M322 34.7l32.2-6.8.3 1.5-32.1 6.8z"/><path fill="#2f472f" fill-opacity=".5" d="M265.3 68l-.6-3 18.5-3.3.5 3z"/><path fill="#b9b5b5" fill-opacity=".5" d="M136.9 68.5l6.2.5-.3 4.6-6.2-.4z"/><path fill="#132911" fill-opacity=".5" d="M257.7 38.6l-6.8 3.8-.8-1.3 6.8-3.8z"/><path fill="#6d544c" fill-opacity=".5" d="M142.2 118h4.7v6.2h-4.7z"/><path fill="#334025" fill-opacity=".5" d="M125.7 67.4l1.1-1.1 2.2 2.3-1.2 1z"/><path fill="#c6ac92" fill-opacity=".5" d="M356.3 68.4L356 70l-20.2-2.5.2-1.5z"/><path fill="#6f725b" fill-opacity=".5" d="M25.6 76.3l-.7 3L-24 69l.7-3z"/><path fill="#332e25" fill-opacity=".5" d="M363.2 26.2l-1-4.6 10.6-2.5 1 4.6z"/><path fill="#5f585b" fill-opacity=".5" d="M292.1 7.6l3.6-5.1 1.3.9-3.6 5z"/><path fill="#bebdbc" fill-opacity=".5" d="M146.1 29.7l4.5-1.4 11 34.2-4.4 1.4z"/><path fill="#956961" fill-opacity=".5" d="M200.4 38l1.3-1 8.8 11-1.2 1z"/><path fill="#8c7068" fill-opacity=".5" d="M77.1 125.6l17.6 43.5-1.5.6-17.5-43.5z"/><path fill="#795643" fill-opacity=".5" d="M191.1 169.2l.6-1.5 21.9 8.4-.6 1.5z"/><path fill="#faf9f8" fill-opacity=".5" d="M159.1 76.7l-7.6 22.1-6-2 7.7-22.2z"/><path fill="#6e7784" fill-opacity=".5" d="M170.4 92.8l3-21.7 1.6.2-3 21.7z"/><path fill="#393333" fill-opacity=".5" d="M58.8 84l-22.7-5.6.4-1.5 22.7 5.6z"/><path fill="#64422f" fill-opacity=".5" d="M130 150l2.4 7.4-1.5.5-2.4-7.5z"/><path fill="#cbb5b9" fill-opacity=".5" d="M394 52.2l10.7 1.9-.2 1.5-10.8-1.9z"/><path fill="#e4d9d6" fill-opacity=".5" d="M105.2 95.5l1.1-1.1 5.6 5.4-1 1.1z"/><path fill="#7b7966" fill-opacity=".5" d="M396.9 21V2.4h4.7v18.8z"/><path fill="#a18b83" fill-opacity=".5" d="M184.7 167l-1.5-.5 5.6-16.3 1.5.5z"/><path fill="#866e68" fill-opacity=".5" d="M124.8 94.4l-9.8 4.8-.7-1.4L124 93z"/><path fill="#7e6859" fill-opacity=".5" d="M320.3 97.8L397 99v1.6l-76.6-1.4z"/><path fill="#c0a59c" fill-opacity=".5" d="M355.3 185l-.7 1.4-8.4-4.2.8-1.4z"/><path fill="#ad8d83" fill-opacity=".5" d="M327.3 100v4.7h-56.2V100z"/><path fill="#b1abae" fill-opacity=".5" d="M243.1 164l-1.2 1-14.7-18.1 1.2-1z"/><path fill="#2e3e28" fill-opacity=".5" d="M28 57.4l.1 1.5-32.6 4-.2-1.5z"/><path fill="#af8e7e" fill-opacity=".5" d="M143.1 165.1l9.2 8.5-3.2 3.5-9.2-8.6z"/><path fill="#be9c8a" fill-opacity=".5" d="M255.2 147.8l2.1-20.2 11 1.2L266 149z"/><path fill="#616677" fill-opacity=".5" d="M140 98.6l-9.3 10.6-3.5-3 9.2-10.7z"/><path fill="#846f70" fill-opacity=".5" d="M103.7 48.6l4.6-4.2 2.1 2.3-4.6 4.2z"/><path fill="#16181a" fill-opacity=".5" d="M172.5 175.3l6 1.3-2.5 12.2-6.1-1.3z"/><path fill="#27211d" fill-opacity=".5" d="M343 98l-.1-6.2 21.8-.8.2 6.3z"/><path fill="#64593e" fill-opacity=".5" d="M11.5 81.1l4.1-2.2 8.8 16.6-4.1 2.2z"/><path fill="#d4d4d2" fill-opacity=".5" d="M134 32l15.6 1.7-.8 7.7-15.6-1.6z"/><path fill="#676c76" fill-opacity=".5" d="M146.8 162l13.6-3.3 3.8 15.1-13.7 3.5z"/><path fill="#74584a" fill-opacity=".5" d="M342.6 156.3l-13.5 33.3-1.4-.6 13.5-33.3z"/><path fill="#393432" fill-opacity=".5" d="M307.9 4.4l.6 1.4-8.6 3.9-.6-1.5z"/><path fill="#a99a9f" fill-opacity=".5" d="M291.5 11.7l20.7-16.8 1 1.3-20.7 16.7z"/><path fill="#846654" fill-opacity=".5" d="M360 185.8l-9.6-16 6.7-4 9.7 16z"/><path fill="#756d49" fill-opacity=".5" d="M340.4 70.5l.6-1.5 23.3 9-.6 1.4z"/><path fill="#7e675a" fill-opacity=".5" d="M283 35l-9.5-14.3 1.2-1 9.7 14.3z"/><path fill="#eaf0f8" fill-opacity=".5" d="M202.8 30.8l-12.7-37L230-19.8l12.7 37z"/><path fill="#9b8266" fill-opacity=".5" d="M100.6 91.9l-1.1-1.1L119.7 69l1.2 1z"/><path fill="#5b3d35" fill-opacity=".5" d="M242.6 208l-2.4-17 3.1-.5 2.4 17z"/><path fill="#2b231d" fill-opacity=".5" d="M154 148l12.7-6.2 2.7 5.6-12.6 6.1z"/><path fill="#483b35" fill-opacity=".5" d="M111.4 202.9l-4-2.4 4.6-8 4 2.3z"/><path fill="#4d2518" fill-opacity=".5" d="M121 89.6l1.4-.7 2 4.3-1.5.7z"/><path fill="#909293" fill-opacity=".5" d="M58.7 32.5l6.8 4-.8 1.3-6.8-4z"/><path fill="#8c886d" fill-opacity=".5" d="M47.8 168.6l2.4 5.8-5.8 2.3L42 171z"/><path fill="#5d6a7f" fill-opacity=".5" d="M182.8 124.1l-9.4 44.3-1.5-.3 9.4-44.3z"/><path fill="#07140a" fill-opacity=".5" d="M409.7 69l1.2 1-22.1 28.2-1.3-1z"/><path fill="#b2aaaa" fill-opacity=".5" d="M236 157.8h-1.6v-36h1.5z"/><path fill="#6e6b69" fill-opacity=".5" d="M370.8 29.6l.7 1.4-25 12.8-.8-1.4z"/><path fill="#5f593d" fill-opacity=".5" d="M25.3 175.5l31.6-13.4.6 1.4L26 177z"/><path fill="#00000f" fill-opacity=".5" d="M177.4 57.8l4.3 1.8-1.2 3-4.4-2z"/><path fill="#d4d2d2" fill-opacity=".5" d="M104 51.1l-1.5.6-1.8-4.4 1.5-.5z"/><path fill="#5f6250" fill-opacity=".5" d="M249.4 38.2l-.8 1.3L224 26l.8-1.4z"/><path fill="#8c887e" fill-opacity=".5" d="M122.6 57l6-1.5.4 1.5-6 1.5z"/><path fill="#81513c" fill-opacity=".5" d="M143.9 156.7l-1.1 1-10.1-9.7 1-1.1z"/><path fill="#1f130e" fill-opacity=".5" d="M157.1 190.8l-7.8-13.6 1.4-.8 7.8 13.6z"/><path fill="#60606c" fill-opacity=".5" d="M185.1 22.8l1.4.8-4.4 8.2-1.4-.7z"/><path fill="#a58174" fill-opacity=".5" d="M92.5 152.1l21.7-22.5 1.1 1.1-21.7 22.5z"/><path fill="#b09390" fill-opacity=".5" d="M343.5 36.6l1-3 10.4 3.2-1 3z"/><path fill="#bb9b8b" fill-opacity=".5" d="M286 131.6l-12.1-9.8 16.7-20.6 12.1 9.8z"/><path fill="#a6a4a2" fill-opacity=".5" d="M129.5 29.7l3.4 13.7-1.5.3-3.4-13.6z"/><path fill="#847164" fill-opacity=".5" d="M38 198.7l-9-2.6 3.4-12 9 2.6z"/><path fill="#7d5e56" fill-opacity=".5" d="M56 178.8l3 3.6-7.2 6-3-3.6z"/><path fill="#7b7472" fill-opacity=".5" d="M227.8 140.6l13.6-15 1.1 1-13.6 15z"/><path fill="#604334" fill-opacity=".5" d="M384.2 163.8l.7-4.7 23.1 3.7-.7 4.6z"/><path fill="#cfb2a0" fill-opacity=".5" d="M132.2 118.1l-2 18.6-1.5-.1 2-18.7z"/><path fill="#dbe2e8" fill-opacity=".5" d="M168 92.4l-4.7-.4 1.5-17.2 4.7.4z"/><path fill="#7c7c7d" fill-opacity=".5" d="M35.3 82.6l10.9-1.1 1.3 12.4-10.9 1.2z"/><path fill="#46503c" fill-opacity=".5" d="M66.5 34.5l4.2-2.2 5 9.8-4.2 2.1z"/><path fill="#6c5e5a" fill-opacity=".5" d="M182.8 167.6l1.5.4-9.3 34.7-1.5-.4z"/><path fill="#acbbcc" fill-opacity=".5" d="M168.2 69.6h1.5l1.2 21.8h-1.6z"/><path fill="#c3bdba" fill-opacity=".5" d="M152.2 123.5l-1.2 17.2-1.6-.2 1.2-17.1z"/><path fill="#9d7f78" fill-opacity=".5" d="M41.5 135l-18.1-19.4 2.3-2.2 18 19.5z"/><path fill="#3b462c" fill-opacity=".5" d="M302.4 37v3l-25-.4v-3.1z"/><path fill="#af978e" fill-opacity=".5" d="M82 140.5l1.7-14 1.5.2-1.7 14z"/><path fill="#5e514f" fill-opacity=".5" d="M157 119.6l1.5.2L154 157l-1.6-.2z"/><path fill="#89614d" fill-opacity=".5" d="M190.3 200l-2.5-48.4h1.6l2.5 48.3z"/><path fill="#6a655e" fill-opacity=".5" d="M104.6 32l-39-1.4.1-4.7 39 1.3z"/><path fill="#4d573d" fill-opacity=".5" d="M288.4 16.7l21.2-5.3.4 1.6-21.2 5.2z"/><path fill="#242b34" fill-opacity=".5" d="M189 52.3h-7.8V43h7.9z"/><path fill="#96796d" fill-opacity=".5" d="M298.6 125.7l3 .4-4.9 40.3-3-.3z"/><path fill="#756764" fill-opacity=".5" d="M401.8 49.7l-1.2 3-10.2-4 1.1-2.9z"/><path fill="#5f3934" fill-opacity=".5" d="M36 160.8l-4.6.3-.3-4.7 4.7-.3z"/><path fill="#84645f" fill-opacity=".5" d="M338.3 55l21.6-3.8.2 1.6-21.5 3.8z"/><path fill="#7f5c52" fill-opacity=".5" d="M60.2 168l-16.6-11.7 7.1-10.2 16.7 11.6z"/><path fill="#d9ddd7" fill-opacity=".5" d="M104 53l-3.2.2v-1.6h3z"/><path fill="#5e443c" fill-opacity=".5" d="M298.5 96.1l85.9 1.5v1.6l-86-1.5z"/><path fill="#a58a7e" fill-opacity=".5" d="M383.4 119.6l.3 17.2-81.2 1.4-.3-17.2z"/><path fill="#8e7e73" fill-opacity=".5" d="M94.3 51l-22-8.4.6-1.4 22 8.4z"/><path fill="#1e2c18" fill-opacity=".5" d="M349 81.2l.4 17.2H343l-.3-17z"/><path fill="#16240e" fill-opacity=".5" d="M336 29.4l-5.6-2.7.7-1.4 5.6 2.7z"/><path fill="#c3a896" fill-opacity=".5" d="M371.2 106l20 3.8-1.5 7.7-20-3.9z"/><path fill="#ba8973" fill-opacity=".5" d="M200.1 169.4l3-28 1.5.2-3 28z"/><path fill="#340c03" fill-opacity=".5" d="M197.5 141l2-6 1.5.6-2 5.9z"/><path fill="#927c70" fill-opacity=".5" d="M350.7 180.1l-50-.8.1-4.7 50 .8z"/><path fill="#64796a" fill-opacity=".5" d="M265.5 14l2.3 4-6.7 4-2.4-4.1z"/><path fill="#83604d" fill-opacity=".5" d="M384 141l.9-1.3 20.2 14.7-1 1.2z"/><path fill="#674936" fill-opacity=".5" d="M358.2 160.7l-.8 9.3-11-1 .9-9.3z"/><path fill="#bebdbe" fill-opacity=".5" d="M245.6 141.3l2.6-37.4 1.5.1-2.6 37.4z"/><path fill="#453732" fill-opacity=".5" d="M208.6 119.3l8 4.9-4.8 8-8-4.8z"/><path fill="#4f4948" fill-opacity=".5" d="M124.3 40.3l-.2 3-15.6-.7.2-3.2z"/><path fill="#916f5d" fill-opacity=".5" d="M265.7 151l18.5-3.3 1.6 9.2-18.4 3.3z"/><path fill="#606164" fill-opacity=".5" d="M197 45.3h-4.7l-.2-7.8h4.7z"/><path fill="#545440" fill-opacity=".5" d="M381 28.9l29-26.1 1.1 1.1-29 26.2z"/><path fill="#babbb0" fill-opacity=".5" d="M255.5 20.6V22l-15.7-.5V20z"/><path fill="#7a5f56" fill-opacity=".5" d="M80.8 149l7.6-17.1 4.3 1.9-7.7 17.1z"/><path fill="#bdcad7" fill-opacity=".5" d="M246.8 82.9l-4.3 1.7-6.5-16 4.4-1.7z"/><path fill="#755d50" fill-opacity=".5" d="M271.4 173.3l7.8-1.2 1 6.2-7.8 1.2z"/><path fill="#2e3e24" fill-opacity=".5" d="M263.2 53.6l8.5-6.9 1 1.2-8.5 7z"/><path fill="#696870" fill-opacity=".5" d="M143.4 100.8L141 88.5l1.5-.3 2.4 12.3z"/><path fill="#5d433a" fill-opacity=".5" d="M208 50.8l-.5 1.4-4.5-1.4.5-1.5z"/><path fill="#5f4037" fill-opacity=".5" d="M124.8 185l-.4 1.5-35.1-7.4.3-1.6z"/><path fill="#31351f" fill-opacity=".5" d="M328.3 57.5l-21.1-5.7.4-1.5 21.1 5.7z"/><path fill="#a0adb9" fill-opacity=".5" d="M178.5 52.6l-4.1 6.6-1.4-.8 4.2-6.7z"/><path fill="#ccab9b" fill-opacity=".5" d="M272.7 32h3v3.2h-3z"/><path fill="#29341d" fill-opacity=".5" d="M369 71.7l39 3.4-.5 4.7-38.9-3.4z"/><path fill="#93a9c8" fill-opacity=".5" d="M206.7 56.5l11.4 22.3-1.4.7-11.4-22.3z"/><path fill="#3b424f" fill-opacity=".5" d="M174.9 130.6l6.5 30.6-1.6.3-6.5-30.5z"/><path fill="#474549" fill-opacity=".5" d="M366.2-5.7L358.6 8l-1.4-.8 7.6-13.6z"/><path fill="#9a8072" fill-opacity=".5" d="M311.5 199l59.4-13.6.4 1.5-59.4 13.7z"/><path fill="#858777" fill-opacity=".5" d="M55.4 76.7l-4.6 1.1-1.5-6 4.6-1.2z"/><path fill="#dbe6f4" fill-opacity=".5" d="M57 .5l109.7-25.3 6 25.9L63 26.4z"/><path fill="#826e64" fill-opacity=".5" d="M138.8 63l1.2-1 4 4.8-1.2 1z"/><path fill="#b99c8e" fill-opacity=".5" d="M279.2 152.5l-1 1.1-18.3-17 1-1.2z"/><path fill="#7f6154" fill-opacity=".5" d="M313 166.2l-8.3 4.3-10-19.5 8.4-4.3z"/><path fill="#bdc2ca" fill-opacity=".5" d="M163.8 173.2l.5-4.7 4.7.5-.5 4.7z"/><path fill="#1a2415" fill-opacity=".5" d="M371.3 61.5l1.3-7.7 10.8 1.9-1.3 7.7z"/><path fill="#977764" fill-opacity=".5" d="M127 181l-13-40.2 4.4-1.4 13 40z"/><path fill="#313922" fill-opacity=".5" d="M289.4 18.7l.4 1.5-12 3.3-.4-1.5z"/><path fill="#876e5d" fill-opacity=".5" d="M217 185.3l.6 1.4-76.9 26.5-.5-1.5z"/><path fill="#9d847e" fill-opacity=".5" d="M345.6 57l-.6 7.8-20.2-1.5.5-7.7z"/><path fill="#5a3a2e" fill-opacity=".5" d="M69.4 180.8l-24.9-2.2.1-1.6 25 2.2z"/><path fill="#bc9e97" fill-opacity=".5" d="M100.8 109.6l-9.1 2.3-3.4-13.7 9-2.3z"/><path fill="#71534a" fill-opacity=".5" d="M259.4 183.4l1.3.8-18.5 30.8-1.3-.8z"/><path fill="#9eaabc" fill-opacity=".5" d="M231.1 41.2l.2 1.5-23.4 2-.1-1.5z"/><path fill="#baa095" fill-opacity=".5" d="M128.3 109.4l-22.6 6-1.2-4.5 22.6-6z"/><path fill="#4b4c3a" fill-opacity=".5" d="M241.4 21.9h28.1v1.5h-28z"/><path fill="#c3ad9e" fill-opacity=".5" d="M78.2 147l5.4 3.1-.8 1.4-5.4-3.2z"/><path fill="#4a515e" fill-opacity=".5" d="M162.3 166.4l1.5.3-2.7 15.3-1.5-.2z"/><path fill="#9f684b" fill-opacity=".5" d="M133 132.8l-.9-1.3 5.3-3.4.8 1.3z"/><path fill="#182719" fill-opacity=".5" d="M292.7 83.7l9.2 1.6-2.4 13.8-9.2-1.6z"/><path fill="#515b71" fill-opacity=".5" d="M211.8 97l-5.3-7.6 5-3.6 5.5 7.7z"/><path fill="#3f4143" fill-opacity=".5" d="M171.6 173.3l3 .4-.9 7.7-3-.4z"/><path fill="#c2cae2" fill-opacity=".5" d="M164.7 103.8l-15.5-1.4.1-1.5 15.6 1.3z"/><path fill="#293243" fill-opacity=".5" d="M179 119.5l-1.5-.1 4.4-49.8h1.5z"/><path fill="#282a21" fill-opacity=".5" d="M128.3 33l-1 1.1-7.1-6.1 1-1.2z"/><path fill="#786762" fill-opacity=".5" d="M103.7 113l-4.7.5-1.1-9.3 4.6-.5z"/><path fill="#a7a8b5" fill-opacity=".5" d="M185.1 106.6l1.4-.8 5 8-1.4.7z"/><path fill="#988e8c" fill-opacity=".5" d="M366.5 9.7L380.6-9l1.3.9-14.1 18.7z"/><path fill="#95908f" fill-opacity=".5" d="M148.7 174.1l3.2-5.3 4 2.4-3.2 5.3z"/><path fill="#815e4f" fill-opacity=".5" d="M230.7 177.3h-3.2l-.3-21.8h3z"/><path fill="#3a3a31" fill-opacity=".5" d="M95.2 38l-10.9-1 .2-1.6 10.9 1.1z"/><path fill="#cfb9a8" fill-opacity=".5" d="M129.5 73.7l2 4.2-12.6 6.2-2-4.2z"/><path fill="#52596a" fill-opacity=".5" d="M130.5 26.2l-.4 1.5-9-2.4.4-1.5z"/><path fill="#565251" fill-opacity=".5" d="M44.5 28.3l21.9-.4v1.6l-21.9.4z"/><path fill="#d8d4cf" fill-opacity=".5" d="M130.5 52l2.8-3.8 19 13.8-2.8 3.8z"/><path fill="#ae9982" fill-opacity=".5" d="M401.3 146.2l-20.5-11.4.7-1.3 20.5 11.3z"/><path fill="#2d1311" fill-opacity=".5" d="M113.5 48.5l-2-7.6 1.6-.3L115 48z"/><path fill="#837967" fill-opacity=".5" d="M18.8 101.8v-1.5l32.7-.6v1.6z"/><path fill="#3a3425" fill-opacity=".5" d="M34 52.2l-6.2 4.7-1-1.3 6.3-4.7z"/><path fill="#515f24" fill-opacity=".5" d="M324.6 62.1l.4 1.6-16.8 3.8-.3-1.5z"/><path fill="#a38c85" fill-opacity=".5" d="M300.7 184.7l-4.6 29.3-1.5-.2 4.6-29.4z"/><path fill="#755d4f" fill-opacity=".5" d="M-1.2 175.3l-5.3-60.7 9.3-.8 5.3 60.7z"/><path fill="#846658" fill-opacity=".5" d="M152.9 209.3h-1.6l-2.6-29.5 1.6-.1z"/><path fill="#866f64" fill-opacity=".5" d="M165.1 156l4.6-.9 1.1 6.2-4.6.8z"/><path fill="#bb907d" fill-opacity=".5" d="M211.4 144.5l6.2-4.8 3.8 4.9-6.1 4.8z"/><path fill="#6f5245" fill-opacity=".5" d="M51.2 166.6l35.8 11-2.2 7.4-35.9-11z"/><path fill="#a48e88" fill-opacity=".5" d="M386.4 12.4l2 4.2-1.4.7-2-4.3z"/><path fill="#303525" fill-opacity=".5" d="M49.3 58.6l-.4 1.6-6-1.7.4-1.5z"/><path fill="#a78e86" fill-opacity=".5" d="M256 188.4l9.8 17.8-1.4.7-9.9-17.7z"/><path fill="#7b5c49" fill-opacity=".5" d="M217.6 191.8l-14.4-9.4 2.6-3.9 14.4 9.4z"/><path fill="#f0f5f9" fill-opacity=".5" d="M187 13.8l-.6 9.4-15.6-1.1.6-9.4z"/><path fill="#805a4e" fill-opacity=".5" d="M89.2 147.8l-.5-1.5 23.6-8.1.6 1.4z"/><path fill="#5c5448" fill-opacity=".5" d="M81.2 95.4l-.4 1.5-10.5-3.2.5-1.5z"/><path fill="#53443a" fill-opacity=".5" d="M170 114.4l1.2 1-8.4 9.3-1.2-1z"/><path fill="#0a0000" fill-opacity=".5" d="M129.7 51.7l.8 1.4-5.5 3-.8-1.4z"/><path fill="#a2b4d0" fill-opacity=".5" d="M186.5 37l1.2 1-3.9 4.8-1.2-1z"/><path fill="#372520" fill-opacity=".5" d="M157.5 121.3l6-1.3 5.6 26-6.1 1.2z"/><path fill="#908f92" fill-opacity=".5" d="M146.2 139.5l-1.7 2.6-7.9-5 1.7-2.7z"/><path fill="#c99b7e" fill-opacity=".5" d="M245.3 33.1l13.6-3.6.4 1.5-13.5 3.6z"/><path fill="#b0907f" fill-opacity=".5" d="M118.7 101l31.2 61.3-1.4.7-31.2-61.2z"/><path fill="#d0dbea" fill-opacity=".5" d="M11.3 36L-8.3 6 15.3-9.4l19.6 30z"/><path fill="#7d7c66" fill-opacity=".5" d="M240.3 31.2l-13.7-3.1.3-1.5 13.7 3.1z"/><path fill="#b38b7f" fill-opacity=".5" d="M123 84l-12.3 9.7-1-1.2 12.4-9.6z"/><path fill="#a6897a" fill-opacity=".5" d="M130.3 159.5l-.9 1.3-14.4-9.4.9-1.3z"/><path fill="#977769" fill-opacity=".5" d="M238.7 185l-16.7 9-3-5.5 16.6-8.8z"/><path fill="#baa9a3" fill-opacity=".5" d="M320.5 2.3l-.3-1.5L328-.7l.3 1.5z"/><path fill="#353f33" fill-opacity=".5" d="M-10 43.3L17.6 38l.3 1.5-27.6 5.4z"/><path fill="#29292e" fill-opacity=".5" d="M141.2 82.5l-1.2 2.8-1.5-.6 1.2-2.8z"/><path fill="#9bb1c6" fill-opacity=".5" d="M227.7 56.3l-9.1-2.3 5.3-21.2 9 2.3z"/><path fill="#8e7766" fill-opacity=".5" d="M348.3 137.5l7.8-1.3 3.4 21.6-7.7 1.3z"/><path fill="#a48c89" fill-opacity=".5" d="M358 7.2l-.3 3.1-4.7-.3.2-3.1z"/><path fill="#c2a398" fill-opacity=".5" d="M384.5 203.3l-1.4.6-3.5-8.7 1.4-.6z"/><path fill="#745b51" fill-opacity=".5" d="M84.3 185l-1.6.2-3-28 1.6-.2z"/><path fill="#919db4" fill-opacity=".5" d="M196.1 63.3h1.6L196 94.6l-1.6-.1z"/><path fill="#a5a393" fill-opacity=".5" d="M90.5 55.7l4.3-1.9.6 1.4-4.3 2z"/><path fill="#5b685b" fill-opacity=".5" d="M98.4 56.2l.5 1.5L81.3 64l-.5-1.5z"/><path fill="#ccac9f" fill-opacity=".5" d="M341.4 124.8l1.6-7.7 1.5.3-1.6 7.7z"/><path fill="#e3edfa" fill-opacity=".5" d="M157.2 10.9l-.3-9.4L288.1-3l.3 9.4z"/><path fill="#7b8859" fill-opacity=".5" d="M271.5 40l.5-1.5 20.6 7.5-.6 1.4z"/><path fill="#5a5c64" fill-opacity=".5" d="M202.7 115.8l-7.1-3.2 6.4-14.3 7 3.2z"/><path fill="#594236" fill-opacity=".5" d="M379.7 96.9h-11v-1.6h11z"/><path fill="#655a48" fill-opacity=".5" d="M338.3 28.2l3.5 5.2-13 8.7-3.4-5.2z"/><path fill="#697790" fill-opacity=".5" d="M209.2 66.5l1.6.3-6 30.7-1.5-.3z"/><path fill="#958460" fill-opacity=".5" d="M94.5 93.2l-3-12.2 3-.7 3 12.1z"/><path fill="#142515" fill-opacity=".5" d="M72 77.2L89.1 79l-.2 1.6-17-1.8z"/><path fill="#b8b1ae" fill-opacity=".5" d="M106.2 28.5l11-.8v1.6l-10.9.8z"/><path fill="#4b3a2a" fill-opacity=".5" d="M332 15.3l18.8.7v1.5L332 17z"/><path fill="#946e57" fill-opacity=".5" d="M254 136.8l1.6.1-5 46.6-1.5-.1z"/><path fill="#716057" fill-opacity=".5" d="M31.8 46.9l-5 6-13.3-10.7 5-6.1z"/><path fill="#9e9088" fill-opacity=".5" d="M242.4 117l2.7-17 1.5.2-2.6 17z"/><path fill="#7e6356" fill-opacity=".5" d="M106.1 183.5l-22.5 11-.6-1.4 22.4-11z"/><path fill="#130000" fill-opacity=".5" d="M156.6 114.5l-.8 4.6-4.6-.8.8-4.6z"/><path fill="#4a4e34" fill-opacity=".5" d="M99.2 87l-4.5-21.4 4.5-1 4.6 21.4z"/><path fill="#26311f" fill-opacity=".5" d="M390 31.5l3 1-9.6 31.3-3-1z"/><path fill="#495562" fill-opacity=".5" d="M179 114.6l2.7-3.9 6.4 4.4-2.6 3.9z"/><path fill="#b0cac3" fill-opacity=".5" d="M131.9 66.2l1.4.6-1.1 3-1.5-.7z"/><path fill="#7c5e4e" fill-opacity=".5" d="M432 137.8l-102.6 27.5-.4-1.5 102.6-27.5z"/><path fill="#686354" fill-opacity=".5" d="M69.7 33.8l.8-1.4 30 16.7-.7 1.3z"/><path fill="#222718" fill-opacity=".5" d="M348.3 49L331 47.8l.3-4.6 17.2 1.2z"/><path fill="#4f453d" fill-opacity=".5" d="M302.2 98.8l-4.4-6.4 7.8-5.3 4.4 6.5z"/><path fill="#8094a4" fill-opacity=".5" d="M166.7 100.4L171 94l1.3.9-4.5 6.4z"/><path fill="#956f5d" fill-opacity=".5" d="M208.9 186.8l10.5-22.7 1.4.7-10.5 22.6z"/><path fill="#343f50" fill-opacity=".5" d="M179 38.8l1.5-.7 1.4 2.8-1.4.7z"/><path fill="#7f846e" fill-opacity=".5" d="M275.7 21.1l11.8-7.6.9 1.3-11.8 7.7z"/><path fill="#ac9982" fill-opacity=".5" d="M337.9 84.7l-1-1.2 8-7.3 1 1.2z"/><path fill="#d1b099" fill-opacity=".5" d="M294.2 64.8l1.4-.8 2.4 4-1.4.8z"/><path fill="#53332c" fill-opacity=".5" d="M36.4 183l-1.4-.8 2-4.2 1.5.7z"/><path fill="#7f6c65" fill-opacity=".5" d="M30.5 139.6l-1.3 1L8.6 115l1.2-1z"/><path fill="#313123" fill-opacity=".5" d="M51.2 46l1.2 1-2 2.3-1.2-1z"/><path fill="#766f5f" fill-opacity=".5" d="M325 20.4l6.8-6.4 4.2 4.6-6.8 6.4z"/><path fill="#5f5d42" fill-opacity=".5" d="M26 198.2l-30-9.1 1.5-4.5 29.8 9.1z"/><path fill="#735245" fill-opacity=".5" d="M107.3 105.3l4.7-4 1 1.2-4.7 4z"/><path fill="#af9385" fill-opacity=".5" d="M368.3 169.9l1.3-1 4.3 6.6-1.3.8z"/><path fill="#3d2216" fill-opacity=".5" d="M232.7 119l7-6.3 1 1.2-7 6.2z"/><path fill="#987a6f" fill-opacity=".5" d="M129 89.6l-14.6 20.2-1.3-1 14.7-20.2z"/><path fill="#a58a7d" fill-opacity=".5" d="M133 204.7h-1.6l-.3-11h1.5z"/><path fill="#775a4c" fill-opacity=".5" d="M273.2 196.3l10.4-3.4 1 3-10.4 3.4z"/><path fill="#ad978b" fill-opacity=".5" d="M317.2 10.7l-29.7.5V9.6l29.7-.5z"/><path fill="#65656b" fill-opacity=".5" d="M297.7 8.9l24-17.5 1 1.3-24 17.4z"/><path fill="#a5b8c5" fill-opacity=".5" d="M223.4 44.7l.7 1.4-33.4 17-.7-1.4z"/><path fill="#49554c" fill-opacity=".5" d="M268.6 20l-.7-1.4 18.2-9 .7 1.5z"/><path fill="#a9ab8e" fill-opacity=".5" d="M125 65.4l1.2 1-5.9 7.3-1.2-1z"/><path fill="#6c554c" fill-opacity=".5" d="M327.3 192.1l-12 3.2-.4-1.5 12-3.2z"/><path fill="#8d8b89" fill-opacity=".5" d="M238.3 183.5l11-40.8 1.4.4-10.9 40.8z"/><path fill="#667455" fill-opacity=".5" d="M119.5 68.2l-40.6-2v-1.6l40.6 2z"/><path fill="#ab9488" fill-opacity=".5" d="M55.5 127.6L39 115.9l.9-1.3 16.6 11.7z"/><path fill="#434f3d" fill-opacity=".5" d="M11.8 49.2L8.4 59.6l-3-1 3.4-10.4z"/><path fill="#8c827b" fill-opacity=".5" d="M59.3 62.2l13.9-2.5.3 1.6-13.9 2.4z"/><path fill="#af958b" fill-opacity=".5" d="M261.5 159.3l3-.9 3.7 12-3 .9z"/><path fill="#e3b7a3" fill-opacity=".5" d="M201.7 157.2l-.6 1.5-4.3-1.9.6-1.4z"/><path fill="#5b6962" fill-opacity=".5" d="M1.4 37.3l-2.7-1.5L0 33l3 1.5z"/><path fill="#9d8375" fill-opacity=".5" d="M250.8 29.6l-8.5 4-4-8.5 8.5-4z"/><path fill="#4a4d39" fill-opacity=".5" d="M130.6 69.6l-.4 1.5-6-1.6.3-1.5z"/><path fill="#8a7e74" fill-opacity=".5" d="M328.4 85.1l2-4.2 8.4 4.3-2 4.2z"/><path fill="#857969" fill-opacity=".5" d="M37 193.5l-1.5-.4 7.2-28.8 1.5.4z"/><path fill="#98a094" fill-opacity=".5" d="M98.5 28.2v1.6l-7.9-.2v-1.5z"/><path fill="#11241b" fill-opacity=".5" d="M108.2 55.3l2 2.4-1.2 1-2-2.3z"/><path fill="#9b7e70" fill-opacity=".5" d="M380.1 149l-2.3 2.2-15.7-17.5 2.3-2z"/><path fill="#0d0e13" fill-opacity=".5" d="M169.8 107l.7 1.3-16.9 8.2-.6-1.4z"/><path fill="#2f4828" fill-opacity=".5" d="M286.3 93L284 68.3l3-.3 2.3 24.9z"/><path fill="#84867a" fill-opacity=".5" d="M347.2 30.2l-6.2-1 .9-4.7 6.1 1z"/><path fill="#525642" fill-opacity=".5" d="M311.7 24.9l19.3 6.6-.6 1.5-19.2-6.7z"/><path fill="#312e33" fill-opacity=".5" d="M198.6 116.4l2.7 5.6-1.4.7-2.8-5.6z"/><path fill="#513d32" fill-opacity=".5" d="M395.3 173.6l-7.3 2.7-.5-1.5 7.3-2.7z"/><path fill="#d0e1f4" fill-opacity=".5" d="M93.8-11.8L95 5.3l-115.4 8-1.2-17z"/><path fill="#a98981" fill-opacity=".5" d="M66.2 120l4.7-4.1 8.2 9.4-4.7 4.1z"/><path fill="#835b47" fill-opacity=".5" d="M124.8 218.3l-1.6.2-8.9-63.4 1.5-.2z"/><path fill="#86796a" fill-opacity=".5" d="M389 17.9l-9.9 7.7-1-1.3 10-7.7z"/><path fill="#36312c" fill-opacity=".5" d="M396 98.8l-3-3.6 9.5-8 3 3.5z"/><path fill="#7e937a" fill-opacity=".5" d="M287.4 65l-4.7-.2.2-6.3 4.7.2z"/><path fill="#6c5c56" fill-opacity=".5" d="M75.8 115.8l-7-3.6.7-1.4 7 3.6z"/><path fill="#687485" fill-opacity=".5" d="M186.5 119.6l-6.2 10.8-2.7-1.5 6.2-10.9z"/><path fill="#130000" fill-opacity=".5" d="M57.8 198.4v1.5l-7.8.2v-1.6z"/><path fill="#a28b82" fill-opacity=".5" d="M321.8 181.3l1.2-1 6.8 8.7-1.3 1z"/><path fill="#2b4226" fill-opacity=".5" d="M286.5 47.5l.3 1.5-9.2 2-.3-1.6z"/><path fill="#645245" fill-opacity=".5" d="M296.6 174.5l-1.5.5-2.6-7.3 1.4-.5z"/><path fill="#765e56" fill-opacity=".5" d="M35.7 135.2l2.6 1.8L22 160l-2.5-1.7z"/><path fill="#8d8075" fill-opacity=".5" d="M-10.3 55l-.7-1.4 23-10.2.6 1.4z"/><path fill="#394662" fill-opacity=".5" d="M179.5 96.8L176 94l8.6-11 3.7 2.8z"/><path fill="#9d8475" fill-opacity=".5" d="M268.8 201l25.1-35.8 1.3 1-25 35.8z"/><path fill="#3d3e42" fill-opacity=".5" d="M111.7 50.9l-4.8 9.8-1.4-.7 4.8-9.8z"/><path fill="#0f1623" fill-opacity=".5" d="M135.6 61.1l-5-3.8 1-1.2 5 3.8z"/><path fill="#896f61" fill-opacity=".5" d="M309.5 22.7l1 1.2-6 5-1-1.2z"/><path fill="#837c79" fill-opacity=".5" d="M158.8 30.6l-4.2-2 .6-1.4 4.3 2z"/><path fill="#dddada" fill-opacity=".5" d="M142 83.6l6.7-19.2 1.4.5-6.6 19.2z"/><path fill="#b9b6b7" fill-opacity=".5" d="M131.3 31.8l.2-1.5 48.1 5-.1 1.6z"/><path fill="#222a12" fill-opacity=".5" d="M394.9 65l-4.2 2.1-2.8-5.6 4.2-2z"/><path fill="#4d4944" fill-opacity=".5" d="M317.5 7l34.7-14 .6 1.5-34.7 14z"/><path fill="#978a87" fill-opacity=".5" d="M327.9 14l7.3-5.8 1 1.2-7.3 5.9z"/><path fill="#bea79f" fill-opacity=".5" d="M237.6 156.8l-1.3.9-19.2-28.5 1.3-1z"/><path fill="#303723" fill-opacity=".5" d="M288.5 64.6l1.2-6.1 1.5.3-1.2 6.1z"/><path fill="#866e61" fill-opacity=".5" d="M337.4 33l7.8-.3.2 7.8-7.8.3z"/><path fill="#777568" fill-opacity=".5" d="M340.7 23.7l29.6 2.6-.1 1.6-29.6-2.6z"/><path fill="#9ba890" fill-opacity=".5" d="M273.7 53.2l-1.4-.8 2.5-4 1.3.8z"/><path fill="#8a7062" fill-opacity=".5" d="M345.1 184.3h-1.6l-2.7-51.4h1.6z"/><path fill="#95acc4" fill-opacity=".5" d="M241.8 36.8l1.5.3-5.4 33.9-1.5-.2z"/><path fill="#9e8265" fill-opacity=".5" d="M253.6 33.6l4.3 1.7-.5 1.4L253 35z"/><path fill="#342f2e" fill-opacity=".5" d="M186.4 30.5l-.6-1.4 4.3-1.8.6 1.4z"/><path fill="#e3edf7" fill-opacity=".5" d="M162.7-11.3l3.7 23.1-46.3 7.3L116.4-4z"/><path fill="#b29386" fill-opacity=".5" d="M318.5 140.8l-1.3 1-24.8-34.2 1.3-1z"/><path fill="#818b74" fill-opacity=".5" d="M16 183.2l5 6-1.1 1-5-6z"/><path fill="#4b543c" fill-opacity=".5" d="M235.4 33.6l34 4.7-.1 1.6-34-4.8z"/><path fill="#917065" fill-opacity=".5" d="M237.6 213.7l-1.4-.8 21.6-34.4 1.3.8z"/><path fill="#766d60" fill-opacity=".5" d="M61 41.6l.5 1.5L6.2 60l-.5-1.5z"/><path fill="#734f37" fill-opacity=".5" d="M102.8 157.8l1-1.3 35.6 28-1 1.2z"/><path fill="#957b6e" fill-opacity=".5" d="M320.5 119.5l2.8 53-1.6.2-2.8-53z"/><path fill="#837362" fill-opacity=".5" d="M78.4 102.3L90 117l-1.3 1-11.5-14.9z"/><path fill="#b19183" fill-opacity=".5" d="M204 191l-1.2 1-11.5-12.7 1.2-1z"/><path fill="#595f4d" fill-opacity=".5" d="M378.2 51l8.4 4.3-.7 1.4-8.4-4.2z"/><path fill="#060905" fill-opacity=".5" d="M267 86.3l18.3 8.9-.7 1.4-18.3-9z"/><path fill="#a39283" fill-opacity=".5" d="M85.8 115.8l-2.1 2.3L72 107.7l2-2.4z"/><path fill="#63605f" fill-opacity=".5" d="M147.5 166.3l2-28h1.5l-2 28.1z"/><path fill="#71715e" fill-opacity=".5" d="M-11.4 61.6l27.7 5-.2 1.5-27.7-5z"/><path fill="#2c422e" fill-opacity=".5" d="M260.8 60.9l.6-1.5 23.1 9.4-.5 1.5z"/><path fill="#9f8a84" fill-opacity=".5" d="M100.8 201.4l8-11.5 1.3.9-8 11.5z"/><path fill="#6b5b4c" fill-opacity=".5" d="M224.9 135.8l1-1.2 7 6.2-1 1.1z"/><path fill="#373c37" fill-opacity=".5" d="M377.4 39.2l1-1.2 14.5 11.8-1 1.2z"/><path fill="#464346" fill-opacity=".5" d="M103.4 36.2l-.5 4.7-4.7-.5.5-4.7z"/><path fill="#606f41" fill-opacity=".5" d="M304.7 76.5l-.3 1.5-13.8-3 .3-1.4z"/><path fill="#675146" fill-opacity=".5" d="M240.5 116.4l-1.4-.5 3.2-8.9 1.4.6z"/><path fill="#a79283" fill-opacity=".5" d="M322.4 38.4l2.2-4.1 1.4.7-2.2 4.2z"/><path fill="#5c4031" fill-opacity=".5" d="M24 182.8l-10.8 1.5L12 175l10.8-1.5z"/><path fill="#828896" fill-opacity=".5" d="M134.1 84.9l4.7-.7 3.6 23.1-4.6.7z"/><path fill="#c4ada5" fill-opacity=".5" d="M193.9 45.3l5.2 3.4-.8 1.3-5.3-3.4z"/><path fill="#593423" fill-opacity=".5" d="M141.5 182.6l1.5.6-8 17-1.4-.6z"/><path fill="#937b71" fill-opacity=".5" d="M42.3 121l4.6 1-6.4 27.4-4.5-1z"/><path fill="#e0e4e3" fill-opacity=".5" d="M154.6 66l4.3-1.8 10 24.6-4.4 1.7z"/><path fill="#6f5347" fill-opacity=".5" d="M348 153.7l-8.8-6.4 1.8-2.6 8.9 6.5z"/><path fill="#213131" fill-opacity=".5" d="M261.6 51.9l-1.3 1-4.7-6.3 1.3-1z"/><path fill="#888477" fill-opacity=".5" d="M295.1 55l-1.2 7.7-3-.5 1.1-7.7z"/><path fill="#565d5d" fill-opacity=".5" d="M346.4-7.2L328 9.8l-1-1 18.2-17.1z"/><path fill="#2b3f27" fill-opacity=".5" d="M309.4 85.5l11-6.1 3 5.5-11 6z"/><path fill="#4b342b" fill-opacity=".5" d="M221 182.4l-2.2-4.1 5.5-3 2.2 4.2z"/><path fill="#61637a" fill-opacity=".5" d="M155.9 109.7l-8.1-7.3 1-1.2 8.1 7.3z"/><path fill="#687389" fill-opacity=".5" d="M134.7 72.5l4.5 1.4-6.8 20.8-4.4-1.4z"/><path fill="#151506" fill-opacity=".5" d="M312.4 37.5l.8 1.4-5.3 3.3-.8-1.4z"/><path fill="#3e5119" fill-opacity=".5" d="M342.4 78.2l-15.5-13 1-1.2 15.5 13z"/><path fill="#9f999e" fill-opacity=".5" d="M238.7 145.1l-1.6.2-2.4-17 1.6-.2z"/><path fill="#26211f" fill-opacity=".5" d="M153 188.8l7-8.3 1.1 1-7 8.3z"/><path fill="#555f7a" fill-opacity=".5" d="M165.8 102.6l.5 1.5-11.7 4.2-.6-1.4z"/><path fill="#8495b1" fill-opacity=".5" d="M253.7 57.5l-13.6-7.6 1.5-2.7 13.6 7.6z"/><path fill="#b28e7b" fill-opacity=".5" d="M264.1 141.4l-1.6-.2 3-24.8 1.6.2z"/><path fill="#262323" fill-opacity=".5" d="M83 72.6l-20.1 3.2-.5-3.1 20-3.2z"/><path fill="#8b918e" fill-opacity=".5" d="M185.4 37.6l-10.6-6.7.8-1.3 10.6 6.6z"/><path fill="#3e3e2e" fill-opacity=".5" d="M36.7 45.6l.6-1.4 5.7 2.4-.6 1.4z"/><path fill="#d3b7a3" fill-opacity=".5" d="M301.4 22.5l4.6-1.2.4 1.5-4.6 1.2z"/><path fill="#737b89" fill-opacity=".5" d="M214.1 82l18.4 27.3-1.3.8L212.8 83z"/><path fill="#b6a095" fill-opacity=".5" d="M61 102.1l-4.3 1.9-.6-1.5 4.3-1.8z"/><path fill="#816559" fill-opacity=".5" d="M76 185.3l-1.6.5-5-16.4 1.5-.5z"/><path fill="#946b5b" fill-opacity=".5" d="M125.7 136.9l-15.8 32.3-2.8-1.4 15.8-32.3z"/><path fill="#5a6d88" fill-opacity=".5" d="M174.6 170.9l4.5-1 1 4.6-4.6 1z"/><path fill="#b2937b" fill-opacity=".5" d="M295 27.3l-6 7.3-1.2-1 6-7.3z"/><path fill="#566c85" fill-opacity=".5" d="M180.2 58.5l1.5-.5 5.3 16.3-1.5.5z"/><path fill="#3b3c25" fill-opacity=".5" d="M273.2 37.3l-13.8-2.7.3-1.6 13.8 2.7z"/><path fill="#4d5c41" fill-opacity=".5" d="M281.2 23.8l-18-5.5 1-3 17.9 5.5z"/><path fill="#bfa99f" fill-opacity=".5" d="M387.7 182l10-4.5.6 1.5-10 4.4z"/><path fill="#948a7e" fill-opacity=".5" d="M161.8 183.5l6.5-10.8 2.7 1.7-6.5 10.7z"/><path fill="#886454" fill-opacity=".5" d="M189.9 173.2l8.5-13 4 2.5-8.6 13.1z"/><path fill="#c2a999" fill-opacity=".5" d="M109.3 121.3l16-17.2 4.5 4.3-16 17.1z"/><path fill="#948b87" fill-opacity=".5" d="M104.1 34.2l.5 1.5-10.3 3.5-.5-1.4z"/><path fill="#7a5849" fill-opacity=".5" d="M254.1 177.7l-5.6 14.6-7.3-2.8 5.6-14.6z"/><path fill="#a29485" fill-opacity=".5" d="M35.4 103.9l13.8-3 1.3 6.2-13.8 2.9z"/><path fill="#735c4d" fill-opacity=".5" d="M248.1 142.7l7-15.7 1.5.6-7 15.7z"/><path fill="#9a7d71" fill-opacity=".5" d="M276.2 129l29.5-3.2 1 9.3-29.6 3.1z"/><path fill="#d2af9b" fill-opacity=".5" d="M375.1 184.1l4 6.7-2.6 1.6-4-6.7z"/><path fill="#d3cfcf" fill-opacity=".5" d="M169.3 28.7L162 63.8l-1.6-.3 7.5-35.1z"/><path fill="#9e7b6c" fill-opacity=".5" d="M316.1 104.6l2.1 10.8-1.5.3-2.1-10.8z"/><path fill="#d2dbe6" fill-opacity=".5" d="M36.4 30l-31-10.6L8.9 9l31 10.7z"/><path fill="#cbb0a0" fill-opacity=".5" d="M283 124.7l-1 1.2-19.7-17.8 1-1.2z"/><path fill="#635f52" fill-opacity=".5" d="M78.3 46.1l13.1 8.5-2.5 4L75.8 50z"/><path fill="#8f9198" fill-opacity=".5" d="M198.9 125.1l-1.4 4.5-10.4-3.2 1.3-4.5z"/><path fill="#000800" fill-opacity=".5" d="M348 89.6l-6 4.8-1-1.2 6.1-4.8z"/><path fill="#a98d7a" fill-opacity=".5" d="M160 165l-1.3-.8 11-15.2 1.3 1z"/><path fill="#483834" fill-opacity=".5" d="M16 115.8l3-.3 1 7.7-3.1.4z"/><path fill="#7b6456" fill-opacity=".5" d="M338.4 136.2l-5 35.6-1.5-.2 5-35.6z"/><path fill="#927667" fill-opacity=".5" d="M318.1 147l1-1.3 39.4 30.8-1 1.2z"/><path fill="#797d4f" fill-opacity=".5" d="M326.2 62l6.3 4.5-.9 1.3-6.3-4.6z"/><path fill="#72624f" fill-opacity=".5" d="M120.5 75.6l-.8-1.4 8.2-4.5.8 1.4z"/><path fill="#0d0b08" fill-opacity=".5" d="M310.2 94.4l24.6-4.4.3 1.6-24.6 4.3z"/><path fill="#152d19" fill-opacity=".5" d="M27.3 73.7l-6.9-3.8.8-1.4 6.8 3.8z"/><path fill="#946f5c" fill-opacity=".5" d="M116.3 147.8l-13.6-24.6 1.3-.7 13.7 24.6z"/><path fill="#0e0a0e" fill-opacity=".5" d="M148.5 106.1l17.8 9.9-.8 1.3-17.7-9.8z"/><path fill="#1b301f" fill-opacity=".5" d="M14.8 67.2h6.3v1.5l-6.2.1z"/><path fill="#a0aabf" fill-opacity=".5" d="M192 36l1 1.3-5.4 3.3-.8-1.3z"/><path fill="#644840" fill-opacity=".5" d="M246.9 195.4l.7-1.4 16.4 9-.7 1.4z"/><path fill="#57382d" fill-opacity=".5" d="M189.6 46l2 6-1.5.4-2-6z"/><path fill="#7c7471" fill-opacity=".5" d="M168 185.7l-8.3 9.3-1.2-1 8.4-9.3z"/><path fill="#3b2114" fill-opacity=".5" d="M93 188.4l4.6 21.4-1.6.3-4.5-21.4z"/><path fill="#3f3021" fill-opacity=".5" d="M360.6 50l.7 14h-1.6l-.7-14z"/><path fill="#949baa" fill-opacity=".5" d="M163.2 99.6l.1 1.6-15.6.8v-1.6z"/><path fill="#514e4d" fill-opacity=".5" d="M145.3 153.5l14.6 5.6-.5 1.5-14.6-5.6z"/><path fill="#b69884" fill-opacity=".5" d="M412.9 121.4l.5 4.6-34 4.2-.7-4.7z"/><path fill="#908e9a" fill-opacity=".5" d="M130.1 48l-1.2-1 5-6 1.2 1z"/><path fill="#495451" fill-opacity=".5" d="M132.6 62.8l-3-.8 1.9-7.6 3 .8z"/><path fill="#a98e83" fill-opacity=".5" d="M365.8 186.4l-1.1-1.1 14.9-13.9 1 1.2z"/><path fill="#b8a09a" fill-opacity=".5" d="M396.4 19.2l-.5-1.6 3-.8.5 1.5z"/><path fill="#a88672" fill-opacity=".5" d="M374.4 164.6l-1.5.3-2-9.2 1.5-.3z"/><path fill="#1f2512" fill-opacity=".5" d="M71.1 82.8l2.3 2.2-5.5 5.6-2.2-2.2z"/><path fill="#3e4148" fill-opacity=".5" d="M178.9 69.3l-10-4.4.6-1.4 10 4.4z"/><path fill="#a8978b" fill-opacity=".5" d="M102.6 47.8l-1 1.3-15.1-11 1-1.3z"/><path fill="#52643d" fill-opacity=".5" d="M86 82.1l-.3 1.6L75 81.9l.3-1.5z"/><path fill="#807060" fill-opacity=".5" d="M354.1 88.4l-4.2-2 .6-1.4 4.3 2z"/><path fill="#89746e" fill-opacity=".5" d="M264 44l-10.5 2.6-.4-1.5 10.6-2.6z"/><path fill="#c0c0c4" fill-opacity=".5" d="M174.1 55.8l-11 19-1.3-.9 11-19z"/><path fill="#9a877b" fill-opacity=".5" d="M296.8 171.8l6.7-8.6 1.3 1-6.8 8.6z"/><path fill="#55483a" fill-opacity=".5" d="M322.7 54.7v1.5h-25v-1.5z"/><path fill="#656471" fill-opacity=".5" d="M205.1 114.1l-1.3 4.5-10.5-3 1.3-4.5z"/><path fill="#5e4d4b" fill-opacity=".5" d="M175.2 191.7L145.6 202l-.5-1.5 29.6-10.1z"/><path fill="#725644" fill-opacity=".5" d="M373.1 172.2l-13.9-2.2.5-3.1 13.9 2.2z"/><path fill="#957969" fill-opacity=".5" d="M398.3 152.4l.6 1.4-45.6 20.4-.7-1.5z"/><path fill="#b2ccdf" fill-opacity=".5" d="M250.8 51.8l5.3-3.3.9 1.3-5.3 3.3z"/><path fill="#81918e" fill-opacity=".5" d="M16.5 35.4l-9.3 1.1L7 35l9.3-1.2z"/><path fill="#7b635a" fill-opacity=".5" d="M320.8 218.8l-1.6-.1 2.2-42.1h1.6z"/><path fill="#654b3d" fill-opacity=".5" d="M325.6 162.8l-2.8-1.3 3.1-7.1 2.9 1.3z"/><path fill="#ada089" fill-opacity=".5" d="M372.6 68.4v-1.6l22 .8-.1 1.5z"/><path fill="#545450" fill-opacity=".5" d="M361 35.4l16-6.5 1 3-15.9 6.4z"/><path fill="#444639" fill-opacity=".5" d="M5.3 76.8l-6.2 4.8-2.8-3.7 6.1-4.8z"/><path fill="#575f63" fill-opacity=".5" d="M147.3 102.6l-.9 3-1.5-.4.9-3z"/><path fill="#ad938a" fill-opacity=".5" d="M103.5 118.5l-.9-1.3 23.6-15.4.9 1.4z"/><path fill="#1c2312" fill-opacity=".5" d="M361.2 98.8l-1-1.3 33.3-26 1 1.3z"/><path fill="#b6897b" fill-opacity=".5" d="M112 137.9l4.9-8 4 2.5-5 8z"/><path fill="#716d70" fill-opacity=".5" d="M362.4 30.6L353 46.8l-1.3-.8 9.3-16.2z"/><path fill="#98928f" fill-opacity=".5" d="M157 37.6V39h-6.2v-1.7z"/><path fill="#8e6558" fill-opacity=".5" d="M76.7 126.4l4.6.6-3.3 23.2-4.6-.6z"/><path fill="#55402f" fill-opacity=".5" d="M21.6 102.2l6.8 3.9-1.6 2.7-6.7-4z"/><path fill="#b7a096" fill-opacity=".5" d="M231.3 175.8V157h1.5v18.8z"/><path fill="#222218" fill-opacity=".5" d="M107.8 78l-.6 1.5-7.2-2.9.6-1.4z"/><path fill="#555b43" fill-opacity=".5" d="M400.1 9.9l.4 1.5-36.6 8.4-.3-1.5z"/><path fill="#333728" fill-opacity=".5" d="M320.8 24.2l16.8 3.2-.6 3.1-16.8-3.3z"/><path fill="#3b433e" fill-opacity=".5" d="M33.5 71l1.6.2-1.5 28h-1.5z"/><path fill="#857b6a" fill-opacity=".5" d="M385.9 67l-2.8-1.4 1.3-2.8 2.8 1.3z"/><path fill="#dec0ae" fill-opacity=".5" d="M260.4 134l1 1.2-4.6 4.2-1-1.2z"/><path fill="#4a502a" fill-opacity=".5" d="M386 70.7l26.8 8.7-.4 1.5-26.8-8.7z"/><path fill="#36422d" fill-opacity=".5" d="M358.5 76.7L427.7 89l-.2 1.6-69.3-12.2z"/><path fill="#333d2e" fill-opacity=".5" d="M349.6 30.7l1-4.6 4.5 1-1 4.6z"/><path fill="#402b27" fill-opacity=".5" d="M115.8 48.2l11 .5-.4 7.8-11-.5z"/><path fill="#aca7a8" fill-opacity=".5" d="M158.5 18.1l.5 1.5-22.2 7.6-.5-1.5z"/></svg>