<svg xmlns="http://www.w3.org/2000/svg" viewBox="0 0 400 200"><path fill="#857a71" d="M0 0h400v200H0z"/><path fill="#f9ffff" fill-opacity=".5" d="M254.8 59.7L-11.4 22.3 0-58l266.2 37.4z"/><path fill="#1f2a0e" fill-opacity=".5" d="M260.2 99.2V18h184.3v81.2z"/><path fill="#fdffff" fill-opacity=".5" d="M169.3-17.4l2 120.3-29.6.5L139.6-17z"/><path fill="#39402f" fill-opacity=".5" d="M129.2 22.2l7.4 60.5-176.8 21.7-7.4-60.5z"/><path fill="#5d3c2f" fill-opacity=".5" d="M-.5 264.8l-13.1-107 197-24.2 13 107z"/><path fill="#738fb2" fill-opacity=".5" d="M265.3 94.5l-74 11.7-11.3-71 74-11.7z"/><path fill="#fff" fill-opacity=".5" d="M197.6 34.9L187.1.5l110.6-33.8L308.2 1z"/><path fill="azure" fill-opacity=".5" d="M-10.8-1.5L229.6-31l4.6 37.2L-6.2 35.7z"/><path fill="#24293b" fill-opacity=".5" d="M222.3 131l-65.5 15.1-8.8-38 65.5-15.2z"/><path fill="#d3b0a3" fill-opacity=".5" d="M294.7 107.5l-17.4 69.8-45.5-11.4 17.4-69.7z"/><path fill="#c8a395" fill-opacity=".5" d="M116.1 157.4L81 96.5l42-24.2 35 60.9z"/><path fill="#626250" fill-opacity=".5" d="M450.6 25.1l-204 39.7-8-41.5 203.9-39.6z"/><path fill="#abc2df" fill-opacity=".5" d="M224 33l43.4 25L243 99.8l-43.3-25z"/><path fill="#cda591" fill-opacity=".5" d="M243.4 136.7l.7-37.5 179.7 3.2-.7 37.4z"/><path fill="#112642" fill-opacity=".5" d="M182.8 40.3l10.7 2.3-15.3 71.8-10.7-2.3z"/><path fill="#b59d87" fill-opacity=".5" d="M355.5 54.7v14h-68.8v-14z"/><path fill="#eef2f6" fill-opacity=".5" d="M130.7 43.4l15.6-7.2L174 95.6l-15.6 7.3z"/><path fill-opacity=".5" d="M292.3 94.7l-31.1 2.7-2-21.8 31.2-2.7z"/><path fill="#49311c" fill-opacity=".5" d="M-32 129.5L11.8 87l21.8 22.5-43.9 42.3z"/><path fill="#23311b" fill-opacity=".5" d="M52.2 69.4l50.2-11.6 6.4 27.4-50.3 11.6z"/><path fill="#0b1607" fill-opacity=".5" d="M340 81.3l88.7-7.8 1.6 18.7-88.7 7.7z"/><path fill="#95a3ba" fill-opacity=".5" d="M199.3 98.3L196 145l-15.6-1 3.3-46.8z"/><path fill="#926654" fill-opacity=".5" d="M368.8 181.4l-180 31.7-9.2-52.3 180-31.7z"/><path fill="#3b3710" fill-opacity=".5" d="M224.3 23.7l36.5 14-2.3 5.8-36.4-14z"/><path fill="#8f8f93" fill-opacity=".5" d="M138 42l.7-21.9 56.2 2-.8 21.8z"/><path fill="#dfa998" fill-opacity=".5" d="M314.9 26.9l-62 8.7-.6-4.7 62-8.7z"/><path fill="#3d1f12" fill-opacity=".5" d="M103.9 190.2l-16.5 37.1-42.9-19L61.1 171z"/><path fill="#491200" fill-opacity=".5" d="M183 55.6l-1.7-12.4 24.7-3.5 1.8 12.4z"/><path fill="#d9c0b1" fill-opacity=".5" d="M108.6 101.8l-8-7.5 29.9-32 8 7.5z"/><path fill="#97705f" fill-opacity=".5" d="M155.1 141.4l-5 35.6-97.4-13.7 5-35.6z"/><path fill="#f6ffff" fill-opacity=".5" d="M231.9 6.4l67-29.8L307.2-5l-67 29.9z"/><path fill="#ebf7ff" fill-opacity=".5" d="M126.7 23l-.3-20.3L252.9.5l.4 20.3z"/><path fill="#786b64" fill-opacity=".5" d="M34.6 51.8l1.3-25L117 31l-1.3 25z"/><path fill="#1d100b" fill-opacity=".5" d="M159.8 150.6L150 108l16.7-3.9 9.9 42.6z"/><path fill="#06140a" fill-opacity=".5" d="M344.7 98.5L271.5 92l1-10.9 73.1 6.4z"/><path fill="#e1f0ff" fill-opacity=".5" d="M122.5 3.8l-5.5 26-47.4-10.1 5.6-26z"/><path fill="#b49a7e" fill-opacity=".5" d="M329.2 88.5l-3-7.2 43-18.3 3.1 7.2z"/><path fill="#7e93ac" fill-opacity=".5" d="M183.1 166.5l-21.2 16-12.2-16.2 21.2-16z"/><path fill="#77503c" fill-opacity=".5" d="M433.3 143.8l1.9 26.5-88.9 6.2-1.8-26.5z"/><path fill="#d2d2d4" fill-opacity=".5" d="M181.6 51.8L166 73.3l-36.7-26.7L145 25.2z"/><path fill="#d99678" fill-opacity=".5" d="M220.1 125.9l12.5 21.6-32.4 18.8-12.5-21.7z"/><path fill="#657387" fill-opacity=".5" d="M123.4 113l1.7-50 18.7.6-1.7 50z"/><path fill="#18251b" fill-opacity=".5" d="M365 34.4l31 3.3-3.1 29.5-31-3.3z"/><path fill="#264400" fill-opacity=".5" d="M298.7 72.6l1.7-10.8 49.4 7.8-1.7 10.8z"/><path fill="#b0c2d1" fill-opacity=".5" d="M246 108.7l7.5 1.9-16.6 66.7-7.6-2z"/><path fill="#321713" fill-opacity=".5" d="M245.2 117.7l-16.6 16.6-6.6-6.7 16.6-16.5z"/><path fill="#c3a08f" fill-opacity=".5" d="M344.4 69.6l.3-6.2 56.2 3-.3 6.2z"/><path fill="#899fbe" fill-opacity=".5" d="M181.2 58.8l46.6-13.3L236 74l-46.6 13.4z"/><path fill="#272d39" fill-opacity=".5" d="M117.4 14l13.4 35-2.8 1-13.4-35z"/><path fill="#1e2733" fill-opacity=".5" d="M184.2 37.2l-1.3-.8 15.7-25.2 1.3.8z"/></svg>