<svg xmlns="http://www.w3.org/2000/svg" viewBox="0 0 400 200"><path fill="#857a71" d="M0 0h400v200H0z"/><path fill="#fff" fill-opacity=".5" d="M-23.5-21.4l296.7-10.3 1.9 54.6-296.7 10.4z"/><path fill="#1f2a0e" fill-opacity=".5" d="M257.1 19.5l176.6-3 1.4 81.2-176.6 3z"/><path fill="#c5ddf6" fill-opacity=".5" d="M131.5 7.8l116-16.3 13.1 92.9-116 16.3z"/><path fill="#323a26" fill-opacity=".5" d="M-9.8 122.8l-20.4-59L89.5 22.4l20.4 59.1z"/><path fill="#5d3c2f" fill-opacity=".5" d="M183.3 133.6l13.2 107-197 24.2-13.1-107z"/><path fill="#181d2e" fill-opacity=".5" d="M151.4 145l32.3-112.7 19.6 5.6L171 150.5z"/><path fill="#f6ffff" fill-opacity=".5" d="M300.1 9.7L-2.3 30.8-4.8-5l302.4-21.2z"/><path fill="#fff" fill-opacity=".5" d="M173.8 102.1l-24.6 4.4-9-50.8 24.7-4.4z"/><path fill="#d4ab9c" fill-opacity=".5" d="M241.5 97.8l79.7 2.8-1.8 50-79.6-2.8z"/><path fill="#c89f8d" fill-opacity=".5" d="M105.6 84l52.3 60-30.7 26.7L75 110.6z"/><path fill="#626455" fill-opacity=".5" d="M364.2-25.3L385.6 25 256 80l-21.4-50.4z"/><path fill="#393e50" fill-opacity=".5" d="M232.8 128.6l-71.7 22-14.2-46.4 71.7-22z"/><path fill="#cea38b" fill-opacity=".5" d="M424.9 103.4l-1.4 39-103-3.6 1.3-39z"/><path fill="#d4ada0" fill-opacity=".5" d="M365.7 66.7L361 78.2 323.4 63l4.6-11.6z"/><path fill="#202f1d" fill-opacity=".5" d="M126.5 41.9l9.2 18L68.9 94l-9.3-18z"/><path fill="#8a9ebc" fill-opacity=".5" d="M181 80.9l21.2-52.2 65.2 26.4-21.1 52.1z"/><path fill="#050e06" fill-opacity=".5" d="M433.8 93.1l-168.7 6-.4-12.6 168.6-5.8z"/><path fill="#966c59" fill-opacity=".5" d="M425.5 143l-6.3 71.5-174.3-15.2 6.2-71.6z"/><path fill="#eae3dc" fill-opacity=".5" d="M177.7 51.5l-45 4.7-2.6-24.9 45-4.7z"/><path fill="#fdffff" fill-opacity=".5" d="M195.3 33.8l-6-24.3L243.7-4l6 24.3z"/><path fill="#393e44" fill-opacity=".5" d="M175.9 36L196 14.5l4.6 4.2-20.3 21.7z"/><path fill="#ce9e8c" fill-opacity=".5" d="M322.3 27.5l-50.8 9-1.6-9.3 50.8-9z"/><path fill="#010c07" fill-opacity=".5" d="M280.8 97.6l-21.6-3.4 5.3-34 21.6 3.4z"/><path fill="#422418" fill-opacity=".5" d="M95.3 223.7l-51.1-7.2 5.9-41.8 51 7.2z"/><path fill="#061722" fill-opacity=".5" d="M114.6 14.6l2.8-1.3 13.4 30-2.9 1.2z"/><path fill="#8e9ab1" fill-opacity=".5" d="M199 93.5l-4.2 59.3-14-1 4.1-59.2z"/><path fill="#bd9c8f" fill-opacity=".5" d="M267.2 181.5l-65-37.5 10.2-17.6 65 37.5z"/><path fill="#87462a" fill-opacity=".5" d="M231.7 195.4l-25 1.3-2.4-46.8 25-1.3z"/><path fill="#937163" fill-opacity=".5" d="M38 80.3l92.7 58-26.5 42.3-92.7-58z"/><path fill="#4c1906" fill-opacity=".5" d="M180.6 44.6l26.4-3.2 1.5 12.4L182 57z"/><path fill="#514d30" fill-opacity=".5" d="M261 32.8l-2.7 10.6-36.4-9 2.6-10.6z"/><path fill="#e6c0af" fill-opacity=".5" d="M100.5 109.9L91 99.6l32-29.8 9.6 10.3z"/><path fill="#d9bba6" fill-opacity=".5" d="M326 87.8l-.4-11 15.6-.5.4 11z"/><path fill="#504f43" fill-opacity=".5" d="M435 54l-128.1 4.5-2.8-79.7 128-4.4z"/><path fill="#716860" fill-opacity=".5" d="M98.4 64.8H25V27.3h73.4z"/><path fill="#eefaff" fill-opacity=".5" d="M298.3-22.8L305.2 3l-80 21.4-7-25.6z"/><path fill="#a5b3c6" fill-opacity=".5" d="M162.6 181l1.4-26.5 9.3.5-1.3 26.5z"/><path fill="#5a5141" fill-opacity=".5" d="M27.3 139l-43.4-5.3 12.2-99.3 43.4 5.4z"/><path fill="#180600" fill-opacity=".5" d="M160.2 105.5l15 18-12 10-15-18z"/><path fill="#cbe0fc" fill-opacity=".5" d="M44.8-21.4l14 43-52 17-14-43.1z"/><path fill="#abc1db" fill-opacity=".5" d="M219.5 50.6l26.2-14 17.6 33.1-26.2 14z"/><path fill="#b7c6d4" fill-opacity=".5" d="M256.8 108l-18.6 69.3-9-2.4 18.5-69.4z"/><path fill="#d7b39d" fill-opacity=".5" d="M341.4 66.3l81.2-1.4v4.7l-81 1.4z"/><path fill="#a59577" fill-opacity=".5" d="M335.4 61.8l-45.6 10.6-1.8-7.7 45.7-10.5z"/><path fill="#142516" fill-opacity=".5" d="M393 35l-3.3 31-24.9-2.5 3.3-31.1z"/><path fill="#7388a6" fill-opacity=".5" d="M189.5 95.2l-7.8-36.7 39.7-8.4 7.8 36.7z"/><path fill="#fff" fill-opacity=".5" d="M210.5 6.5L192 41l-4.1-2.2 18.3-34.5z"/><path fill="#212f44" fill-opacity=".5" d="M183.2 60.4L187 96l-12.4 1.3-3.8-35.7z"/><path fill="#4e3932" fill-opacity=".5" d="M241 130l-45.2 2.4-1-17.1 45.3-2.4z"/><path fill="#00020b" fill-opacity=".5" d="M178.3 175.8l-3.6 20-7.7-1.3 3.6-20z"/><path fill="#c6b9b1" fill-opacity=".5" d="M238 81.6l45.7 42.6-10.7 11.4L227.3 93z"/><path fill="#715343" fill-opacity=".5" d="M333 151.6l118.6-6.3 1.3 23.5-118.6 6.2z"/><path fill="#b99883" fill-opacity=".5" d="M416.4 186.6L398.8 230 354 212l17.6-43.5z"/><path fill="#1a2613" fill-opacity=".5" d="M402.1 97.3l-46.8-.8.4-23.5 46.8.8z"/><path fill="#e7f5ff" fill-opacity=".5" d="M58-11l134 9.5-1.6 23.3-134-9.3z"/><path fill="#193e00" fill-opacity=".5" d="M308.3 64l26.5 1.8-.9 12.5-26.5-1.9z"/><path fill="#bb9fa1" fill-opacity=".5" d="M389 54.5l6.8-8.6 13.6 10.6-6.8 8.6z"/><path fill="#575a42" fill-opacity=".5" d="M306.2 7l1.2 4.6-99.6 26.7-1.2-4.6z"/><path fill="#917b79" fill-opacity=".5" d="M361.5 24l-2.7 38.9-12.5-.9 2.7-39z"/><path fill="#8a6455" fill-opacity=".5" d="M182.8 210.2l-1.4-40.6 93.6-3.3 1.5 40.6z"/><path fill="#daac99" fill-opacity=".5" d="M240.9 32.7l57-9 .3 1.5-57.1 9z"/><path fill="#203013" fill-opacity=".5" d="M291 44l-2.4-9 43.8-11.8 2.4 9z"/><path fill="#5c4e54" fill-opacity=".5" d="M115.6 56.4l-8.4-4.2 16.3-32 8.4 4.2z"/><path fill="#816353" fill-opacity=".5" d="M25.7 134.3L155 145.6l-4 46.7L21.5 181z"/><path fill="#28161a" fill-opacity=".5" d="M108.3 40.7l1-1.2 34 27.6-1 1.2z"/><path fill="#aca59f" fill-opacity=".5" d="M181 23.3l-1.2 17.2-40.5-2.9 1.2-17.1z"/><path fill="#bab1ad" fill-opacity=".5" d="M171.3 24.6l.3 1.5-78.8 19.6-.4-1.5z"/><path fill="#d19476" fill-opacity=".5" d="M184 159.7l36.6-34 6.3 6.8-36.5 34z"/><path fill="#d2d6da" fill-opacity=".5" d="M174.7 102.6l-2.6 12.3-1.5-.4 2.6-12.2z"/><path fill="#30547b" fill-opacity=".5" d="M178.2 136.7L189 139l-6.2 29-10.7-2.3z"/><path fill="#bda89b" fill-opacity=".5" d="M142.3 144.6L104.7 114l10.8-13.4 37.6 30.5z"/><path fill="#edeeed" fill-opacity=".5" d="M144 72.5l14.5-6 14.6 34.4-14.4 6.1z"/><path fill="#bbafb4" fill-opacity=".5" d="M124.5 60l-.6 1.5-28.1-13.7.7-1.4z"/><path fill="#353c2a" fill-opacity=".5" d="M54.5 69.3l31.9-8 7.5 30.4-31.8 7.9z"/><path fill="#686458" fill-opacity=".5" d="M111 42.9L8.5 55.4 6.3 36.8l102.3-12.5z"/><path fill="#978175" fill-opacity=".5" d="M82.8 86.7l13.4 46.6-55.6 16-13.3-46.6z"/><path fill="#8f7c78" fill-opacity=".5" d="M291.3 10.3l3.4-12L335.3 10l-3.5 12z"/><path fill="#edffff" fill-opacity=".5" d="M111.8 19.7l.7 3-25.9 6-.7-3z"/><path fill="#b9cdd5" fill-opacity=".5" d="M237.3 41.2l-60.8-4.3.3-4.6 60.8 4.2z"/><path fill="#cba995" fill-opacity=".5" d="M260.2 107.5l18.5 2.6-6 43.3-18.6-2.6z"/><path fill="#1b0d00" fill-opacity=".5" d="M170 135.8l5 9.7-15.3 7.8-5-9.7z"/><path fill="#381b0e" fill-opacity=".5" d="M198.9 118.5l6.2.6-2.4 23.3-6.3-.6z"/><path fill="#232d15" fill-opacity=".5" d="M349.5 49l-37 6.6-1-6.2 36.9-6.5z"/><path fill="#384331" fill-opacity=".5" d="M242 29.6l.2 1.5-39 3.4V33z"/><path fill="#6d5845" fill-opacity=".5" d="M-20 66.8L7.7 63 31 228.5l-27.8 3.9z"/><path fill="#5d6875" fill-opacity=".5" d="M172 196l-10.2 3.8-23-59.8 10.3-3.9z"/><path fill="#27211f" fill-opacity=".5" d="M163 179l-5 13.1-10.2-3.9 5-13.1z"/><path fill="#d2cecc" fill-opacity=".5" d="M180.9 50.6l-23 25.5-27.9-25 23-25.6z"/><path fill="#796e62" fill-opacity=".5" d="M320.5 43.6l-2-9.2 65.7-14 2 9.2z"/><path fill="#f3f6f7" fill-opacity=".5" d="M145.8 114.8l-1.5-.2 5.2-37.2 1.5.2z"/><path fill="#f1f7ff" fill-opacity=".5" d="M230.6 24.1l-18.2 9L195.9-.8l18.3-8.9z"/><path fill="#b59790" fill-opacity=".5" d="M331.3 57.4l-.1 6.2-39-.7v-6.2z"/><path fill="#3d4531" fill-opacity=".5" d="M363.2 1l.3 1.6-112.6 26-.4-1.5z"/><path fill-opacity=".5" d="M161.2 118.3l-15.7-15.2 1-1.1 15.8 15.2z"/><path fill="#2c1611" fill-opacity=".5" d="M246 106.2l1.2 1-23 25.6-1.1-1z"/><path fill="#6a7c98" fill-opacity=".5" d="M129.4 115.7l-1-51.5L141 64l.9 51.5z"/><path fill="#1c2b18" fill-opacity=".5" d="M272.5 83.2l2.1-9.1 70 16.1-2 9.2z"/><path fill="#a58d83" fill-opacity=".5" d="M105.6 48L94 58.7 83.5 47.3l11.4-10.7z"/><path fill="#3d4d33" fill-opacity=".5" d="M109.4 82.2L75.2 66.9l4.4-10L114 72.2z"/><path fill="#041500" fill-opacity=".5" d="M386 43.6l1.8-9.2 24.6 4.8-1.8 9.2z"/><path fill="#a0bfa6" fill-opacity=".5" d="M280 51.6l-26.6 9.2-.5-1.5 26.5-9.1z"/><path fill="#314830" fill-opacity=".5" d="M274.8 67l-1.2 1-28.1-33.5 1.2-1z"/><path fill="#9c786e" fill-opacity=".5" d="M213.2 48.6l-13.9 10.1-11-15.1 14-10.1z"/><path fill="#333944" fill-opacity=".5" d="M205.4 129.9L204 87.7l10.9-.4 1.5 42.2z"/><path fill="#ebf4ff" fill-opacity=".5" d="M337.5-12.7L239.1 23l-3.2-8.8 98.4-35.8z"/><path fill="#412f27" fill-opacity=".5" d="M229.7 140.2l-5.9-14.5 4.4-1.8 5.8 14.5z"/><path fill="#354a3b" fill-opacity=".5" d="M50.6 70.7l-6.1 12.6L.9 62.1l6.2-12.6z"/><path fill="#b59482" fill-opacity=".5" d="M273.9 38L327 15.2l.6 1.5-53.2 22.6z"/><path fill="#000a11" fill-opacity=".5" d="M172.5 67.2L187.2 49l1.3 1-14.8 18.2z"/><path fill="#9fb5d2" fill-opacity=".5" d="M184.6 59.5l6-2 7.6 22-6 2.1z"/><path fill="#b3958c" fill-opacity=".5" d="M359.2 68l-18.7 1.5-1.2-14 18.6-1.6z"/><path fill="#635d46" fill-opacity=".5" d="M370.2 91.3l-18.5 3.2-1.6-9.2 18.5-3.3z"/><path fill="#8f8e91" fill-opacity=".5" d="M260 94l-38.4 32-5-5.9L255 88z"/><path fill="#412a1f" fill-opacity=".5" d="M68.6 170l10.6 32.7-11.9 3.9-10.6-32.7z"/><path fill="#545453" fill-opacity=".5" d="M87.2 25l.2 1.5-51.2 6.3-.2-1.5z"/><path fill="#472718" fill-opacity=".5" d="M221.7 183.6l-4-2.3 9-16.4 4.1 2.3z"/><path fill="#9bb0ca" fill-opacity=".5" d="M212.2 58.2l2.5-20.2 43.4 5.4-2.5 20.1z"/><path fill="#252529" fill-opacity=".5" d="M196.4 19.6L184.5 36l-1.3-.9 12-16.4z"/><path fill="#ae958e" fill-opacity=".5" d="M81.3 126.3l8.5-31.7 21.1 5.7-8.5 31.7z"/><path fill="#e8f6ff" fill-opacity=".5" d="M105.3 11.2l13.2 13.2L112 31 98.7 17.8z"/><path fill="#44342a" fill-opacity=".5" d="M21 123.1l-21.3 5-3.5-15.3 21.3-4.9z"/><path fill="#223a2e" fill-opacity=".5" d="M14.7 40.6L1.3 45l-2-6 13.5-4.3z"/><path fill="#e8ebec" fill-opacity=".5" d="M186.4 41.4l-1.3-.8 14.4-24.2 1.4.9z"/><path fill="#e4e9ef" fill-opacity=".5" d="M2 36.4l-.6-4.6 26.2-4.2.7 4.7z"/><path fill="#957e72" fill-opacity=".5" d="M123.5 161.2l34.2 4.2-1.6 12.4-34-4.2z"/><path fill="#caa894" fill-opacity=".5" d="M414.3 86.8l8.5 11.3-38.7 29.1-8.5-11.2z"/><path fill="#a87157" fill-opacity=".5" d="M198.3 179.6l-15.2-11 20.2-27.9 15.2 11z"/><path fill="#293721" fill-opacity=".5" d="M77.1 88.5l31.4-34.8 3.5 3.1-31.4 34.8z"/><path fill="#7a8865" fill-opacity=".5" d="M82 68.8V64h62.5v4.6z"/><path fill="#797b6e" fill-opacity=".5" d="M-18.9 95.9l37.1-26 5.4 7.7-37.1 26z"/><path fill="#734f3e" fill-opacity=".5" d="M106.1 153.7l73.2 68.2-21.4 22.8-73-68.2z"/><path fill="#b8c1ca" fill-opacity=".5" d="M177.8 72.2l-11.4 16.9-5.1-3.5 11.3-16.9z"/><path fill="#b3a4a1" fill-opacity=".5" d="M239 123.6l-6.1 70h-1.6l6.1-70.1z"/><path fill="#2e471b" fill-opacity=".5" d="M311.6 64.4l6 22.6-12 3.3-6-22.7z"/><path fill="#334e41" fill-opacity=".5" d="M256.7 23.8l24.9-16.1.8 1.3-24.9 16z"/><path fill="#ae9f80" fill-opacity=".5" d="M350 76.6v4.7h-32.8v-4.7z"/><path fill="#6a5642" fill-opacity=".5" d="M253.2 155.6l-4.7-.5 3-28 4.6.6z"/><path fill="#d7e5f8" fill-opacity=".5" d="M112.8 26.3L33.2 22l2.5-46.8 79.5 4.2z"/><path fill="#877c7b" fill-opacity=".5" d="M372.9-.5l-.5 12.5-18.7-.6.4-12.5z"/><path fill="#e0b298" fill-opacity=".5" d="M189.6 138l7.8-1 2 17.1-7.7 1z"/><path fill="#423b37" fill-opacity=".5" d="M184.6 107.6l5.6 9.3-29.5 17.7-5.6-9.3z"/><path fill="#27412a" fill-opacity=".5" d="M283.8 71.8l-20 3.1-2.3-13.8 20-3.2z"/><path fill="#5e4438" fill-opacity=".5" d="M389.8 178.7l-7.4-13.8 26.3-14 7.3 13.9z"/><path fill="#b08c76" fill-opacity=".5" d="M239.7 28.2l50-1.7.2 6.2-50 1.8z"/><path fill="#9398a9" fill-opacity=".5" d="M163.4 174.1l-1.8-17 14-1.5 1.8 17z"/><path fill="#886e63" fill-opacity=".5" d="M-22.3 125.6l67 3.5-2 40.6-67.2-3.5z"/><path fill="#b8bfc5" fill-opacity=".5" d="M240.5 72l14.1 52.8-6 1.6-14.2-52.8z"/><path fill="#69768e" fill-opacity=".5" d="M184 83.7l32.7-1.7 1 17.1-32.9 1.7z"/><path fill="#8c7064" fill-opacity=".5" d="M300.8 123.7l24.8 34.1-40.5 29.4-24.8-34.1z"/><path fill="#cfaa94" fill-opacity=".5" d="M204.3 145.3l.9-12.5 23.3 1.6-.8 12.5z"/><path fill="#bcc0c4" fill-opacity=".5" d="M257 135.1l-4.7-90.5h1.6l4.7 90.5z"/><path fill="#a39c9a" fill-opacity=".5" d="M159.8 19l5 19.6L151 42l-5-19.7z"/><path fill="#12222d" fill-opacity=".5" d="M116 16.3l11.4 15-1.3.9-11.3-15z"/><path fill="#91725d" fill-opacity=".5" d="M96 157.5l-8.8-11 34-27.4L130 130z"/><path fill="#868d9a" fill-opacity=".5" d="M187.2 146.4l-7-3.4 12.3-25.3 7 3.4z"/><path fill="#a48d88" fill-opacity=".5" d="M339 10.7v1.6l-51.5-2.7V8z"/><path fill="#2e3920" fill-opacity=".5" d="M-11.4 207.2l1-17.2 23.3 1.3-.9 17.1z"/><path fill="#bb9c8f" fill-opacity=".5" d="M292.8 76l-1.4-.6 8-18.6 1.4.6z"/><path fill="#cbc8c7" fill-opacity=".5" d="M141 21.2L167.7 54l-13.3 10.8L127.7 32z"/><path fill="#744c39" fill-opacity=".5" d="M406.3 204l-4.7 4.3-12.5-14 4.6-4.1z"/><path fill="#fffdf7" fill-opacity=".5" d="M144 93.7l6-25.8 10.7 2.4-6 25.9z"/><path fill="#b4a89d" fill-opacity=".5" d="M386.6 51.2l26 5.5-.7 3-26-5.5z"/><path fill="#595648" fill-opacity=".5" d="M361 1.3l10.3 24.4L328 44l-10.3-24.4z"/><path fill="#85766f" fill-opacity=".5" d="M82.2 46.1l4.2 8.4L60 67.9l-4.3-8.3z"/><path fill="#1f291b" fill-opacity=".5" d="M378.7 97.5l2.2-25 38.9 3.5-2.2 24.9z"/><path fill="#3c4655" fill-opacity=".5" d="M177.4 138l13.2 11-7 8.4-13.2-11z"/><path fill="#abb4bf" fill-opacity=".5" d="M163.5 92.4l3 7.2-16 6.5-2.9-7.3z"/><path fill="#8ea89c" fill-opacity=".5" d="M241.3 62.8l-.3-1.5 47.4-10 .3 1.5z"/><path fill="#dfbea7" fill-opacity=".5" d="M133.3 78.6l-20.9 10.7-3.5-7 20.9-10.6z"/><path fill="#bfa18b" fill-opacity=".5" d="M440.4 179.6l-81 17.2-1.3-6 81-17.3z"/><path fill="#455041" fill-opacity=".5" d="M62.7 45l40-17.8 1.8 4.3-40 17.8z"/><path fill="#aea8a7" fill-opacity=".5" d="M149.4 151.4l2.8-32.7 3.1.2-2.8 32.7z"/><path fill="#8b6f63" fill-opacity=".5" d="M255.5 98l.1-1.5 99.8 7-.1 1.5z"/><path fill="#d1ac95" fill-opacity=".5" d="M307.1 105.1l-.2 11-46.8-.9.2-11z"/><path fill="#292427" fill-opacity=".5" d="M183 43.8l7-3.3 6.7 14.1-7 3.4z"/><path fill="#bd8f77" fill-opacity=".5" d="M127.7 119l1.4-.7 19.8 42.5-1.4.6z"/><path fill="#a88d86" fill-opacity=".5" d="M354.3 42.1l-14-1.4.7-6.3 14 1.5z"/><path fill="#3a2428" fill-opacity=".5" d="M132.4 54.4l-13.7 3.4-2.6-10.6 13.6-3.4z"/><path fill="#ad8a76" fill-opacity=".5" d="M211.8 199.7l-22.3-14.5 3.4-5.2 22.3 14.5z"/><path fill="#a08777" fill-opacity=".5" d="M269.2 136l1-15.6 156 10.9-1.2 15.5z"/><path fill="#9f908e" fill-opacity=".5" d="M116.7 27.9l3.7 6.9-26.2 13.9-3.7-6.9z"/><path fill="#8f7871" fill-opacity=".5" d="M93 155.7l-19 16.4-9.1-10.6L83.7 145z"/><path fill="#6b5d5a" fill-opacity=".5" d="M104.5 112.9l-6.2.7-1.2-9.3 6.2-.7z"/><path fill="#633520" fill-opacity=".5" d="M123 87.3l.8 7.7-4.6.5-.8-7.7z"/><path fill="#042109" fill-opacity=".5" d="M268.8 48.5v4.7l-11-.2v-4.7z"/><path fill="#735347" fill-opacity=".5" d="M240.6 175.2l12.5-.4 1.6 48.4-12.4.4z"/><path fill="#7e8994" fill-opacity=".5" d="M35.2 89v-7.8h15.6v7.9z"/><path fill="#eaf1fd" fill-opacity=".5" d="M125.2 23.2l-3-24.9L182.5-9l3 24.8z"/><path fill="#423a31" fill-opacity=".5" d="M52.2 93.6l.3-6.2L87 89.2l-.4 6.2z"/><path fill="#a17c74" fill-opacity=".5" d="M122.2 47.9l-7.8 1-.6-4.6 7.7-1z"/><path fill="#040000" fill-opacity=".5" d="M163.7 109.8l.7 9.3-11 .8-.6-9.4z"/><path fill="#313842" fill-opacity=".5" d="M171.7 59.6l1.5-.1 6.7 63.7-1.5.1z"/><path fill="#1c1412" fill-opacity=".5" d="M393 98.4l-81.3-1.5v-6.2l81.3 1.4z"/><path fill="#3d554e" fill-opacity=".5" d="M199.2 34.9v-3.2l34.4.6v3.2z"/><path fill="#3e5741" fill-opacity=".5" d="M376.6 7l1.9-5.9 37.1 12.1-1.9 6z"/><path fill="#4a4c31" fill-opacity=".5" d="M295 53.2l1-9.3 41.9 4.4-1 9.3z"/><path fill="#101e17" fill-opacity=".5" d="M78.3 47.7l-.7 3-13.7-3.1.7-3z"/><path fill="#c9c9ce" fill-opacity=".5" d="M390.1 3.2l-.2-1.6 18.4-3.2.3 1.5z"/><path fill="#242126" fill-opacity=".5" d="M155.6 182l6 33.9-3.1.5-6-33.8z"/><path fill="#d1dee4" fill-opacity=".5" d="M187.3 32.6l27.3 6.8-.4 1.5L187 34z"/></svg>