<svg xmlns="http://www.w3.org/2000/svg" viewBox="0 0 400 200"><filter id="c"><feGaussianBlur stdDeviation="55" /></filter><path fill="#857a71" d="M0 0h400v200H0z"/><g filter='url(#c)' fill-opacity='.5'><path fill="#e7ffff" fill-opacity=".5" d="M29.8-80.5l246 66L249.9 82 4 16.1z"/><path fill="#1f2a0e" fill-opacity=".5" d="M402.4 100.5l-145.3-2.6 1.4-81.2 145.3 2.5z"/><path fill="#333927" fill-opacity=".5" d="M141 69L-3.9 118.8l-16.8-48.7 144.8-49.9z"/><path fill="#fff" fill-opacity=".5" d="M304.7 11.6L-10 33.6-12.5-.7l314.8-22zm-160 92.2l-3.4-64 28.1-1.4 3.4 64z"/><path fill="#5e3d30" fill-opacity=".5" d="M-5.7 228.8l-6.6-76.3 197.6-17.3 6.7 76.3z"/><path fill="#39496b" fill-opacity=".5" d="M201.1 146.2l-44-11 24.6-98.5 44 11z"/><path fill="#b7b1bc" fill-opacity=".5" d="M199.9 52l104.9 76.2-15.6 21.4-105-76.2z"/><path fill="#635d51" fill-opacity=".5" d="M233.7 54.7l-8.2-25.2 148.6-48.3 8.2 25.3z"/><path fill="#0c0404" fill-opacity=".5" d="M157.8 152.3l-9-46 20-3.9 9 46z"/></g></svg>