<svg xmlns="http://www.w3.org/2000/svg" viewBox="0 0 400 200"><path fill="#acc0ca" d="M0 0h400v200H0z"/><g transform="translate(.8 .8) scale(1.5625)" fill-opacity=".5"><ellipse fill="#fef5ec" cx="203" cy="127" rx="52" ry="52"/><ellipse fill="#6394ac" cx="18" cy="23" rx="57" ry="57"/><ellipse fill="#f3efeb" cx="112" cy="127" rx="52" ry="52"/><ellipse fill="#7ba3bb" cx="201" cy="24" rx="56" ry="56"/><ellipse fill="#c7cccd" cx="94" cy="53" rx="39" ry="39"/><ellipse fill="#e1d9d3" cx="249" cy="81" rx="28" ry="28"/><ellipse fill="#3f8bb2" cx="6" cy="5" rx="19" ry="19"/><ellipse fill="#000d08" cx="134" cy="42" rx="3" ry="3"/><ellipse cx="232" cy="41" rx="3" ry="3"/><ellipse fill="#9db1ba" cx="184" cy="75" rx="23" ry="23"/><ellipse fill="#000402" cx="52" cy="75" rx="3" ry="3"/><ellipse fill="#000500" cx="219" cy="73" rx="3" ry="3"/><ellipse fill="#86aec2" cy="108" rx="30" ry="30"/><ellipse fill="#00201b" cx="84" cy="42" rx="3" ry="3"/><ellipse fill="#000505" cx="92" cy="75" rx="3" ry="3"/><ellipse fill="#0c2c25" cx="71" cy="63" rx="3" ry="3"/><ellipse fill="#17342e" cx="71" cy="75" rx="3" ry="3"/><ellipse fill="#46595b" cx="108" cy="76" rx="4" ry="4"/><ellipse cx="247" cy="52" rx="3" ry="3"/><ellipse fill="#0a2f2b" cx="121" cy="62" rx="3" ry="3"/><ellipse fill="#bfd1da" cx="126" cy="8" rx="31" ry="31"/><ellipse fill="#152f2c" cx="119" cy="42" rx="3" ry="3"/><ellipse fill="#75a4c2" cx="228" rx="30" ry="30"/><ellipse fill="#011b10" cx="188" cy="76" rx="3" ry="3"/><ellipse fill="#f3ece9" cx="210" cy="127" rx="28" ry="28"/></g></svg>