<svg xmlns="http://www.w3.org/2000/svg" viewBox="0 0 400 200"><path fill="#acc0ca" d="M0 0h400v200H0z"/><g fill-opacity=".5"><path fill="#fcf4ed" d="M44.5 180.5l336 43.7 43.7-115.6z"/><path fill="#6496af" d="M135.2 7L-16.4 224.2 2.3-24.2z"/><path fill="#739fbb" d="M424.2 5.5L230.5-24.2l68.7 171.9z"/><path fill="#d6dada" d="M175.8-16.4L66.4 224.2l165.6-25z"/><path fill="#92abb8" d="M366.4 118L239.8 25.8 168 116.4z"/><path fill="#c8d4d9" d="M86.7 122.7L54 221l356.3-96.9z"/><path fill="#000100" d="M383.6 75.8l4.7 14 3.1-9.3z"/><path fill="#001517" d="M141.4 114.8v11l9.4-17.2z"/><path fill="#3c89b0" d="M44.5-24.2l-18.7 64-50-21.8z"/><path fill="#5e706e" d="M93 94.5l-9.4 28.2L68 96z"/><path fill="#000500" d="M364.8 75.8l-4.6-6.3 6.2-11z"/><path fill="#f4efe9" d="M372.7 155.5l-9.4 68.7-228.1-21.9z"/><path fill="#9ebcc9" d="M4 224.2l-9.5-125L107 177.3z"/><path fill="#000701" d="M210.2 63.3l-3.2 11 7.8-3.2z"/><path fill="#36463d" d="M116.4 108.6l-6.2 15.6V89.8z"/><path fill="#d3d7d8" d="M72.7 110.2l140.6 4.6-100-32.8z"/><path d="M46 102.3l9.5-7.8-3.2 9.4zm142.3-26.5l-1.6-14-3.1 6.2z"/><path fill="#082424" d="M261.7 118l1.6 12.5-7.8-18.8z"/><path fill="#687a79" d="M-.8 110.2l34.4 15.6 48.4-9.4z"/><path d="M347.7 110.2l-9.4 6.2 7.8 1.6z"/><path fill="#c7cbcf" d="M424.2 86.7L404 139.8 293 83.6z"/><path d="M175.8 127.3l-6.3-12.5 4.7-1.5z"/><path fill="#000305" d="M238.3 74.2l3.1-12.5h-6.2z"/><path fill="#000a02" d="M132 66.4l3.2-7.8-1.6 15.6z"/><path fill="#becfd8" d="M33.6 61.7L263.3-18l-57.8 78.2z"/><path fill="#182f2a" d="M294.5 97.7l-3 20.3 7.7 12.5z"/><path fill="#1f302b" d="M321 124.2l-3-17.2 6.2 9.4z"/><path d="M111.7 72.7l-1.5-7.9 3 1.6z"/><path fill="#1d3130" d="M130.5 107l7.8-14-7.8 3z"/><path d="M160.2 100.8l1.5-4.7-3.1-6.3z"/><path fill="#163030" d="M313.3 94.5l-6.3 3.2 6.3 10.9z"/><path fill="#00180b" d="M61.7 63.3L55.5 68l3 7.8z"/><path fill="#2e3b2e" d="M208.6 118h7.8l4.7-20.3z"/><path fill="#cbdae2" d="M274.2 107l70.3-4.7-32.8 14.1z"/><path fill="#b4c9d2" d="M286.7 180.5l-86-81.3 100 46.9z"/><path fill="#224246" d="M288.3 61.7l3.1 20.3 4.7-20.3z"/><path fill="#0d1915" d="M379 119.5l4.6-11-7.8 9.5z"/><path fill="#031306" d="M310.2 66.4h9.3l-1.5-6.2z"/><path fill="#bbcace" d="M35.2 152.3l10.9-53 26.6 76.5z"/><path fill="#000700" d="M189.8 102.3l-1.5-7.8 7.8 3.2z"/><path d="M110.2 99.2l3-4.7v6.3z"/><path fill="#77a6c2" d="M210.2-11.7l214 68.7-1.5-75z"/><path fill="#e1e2e1" d="M232 96l-65.6 84.5 61 43.7z"/><path fill="#99bcd3" d="M230.5 5.5l4.7 53 162.5 1.7z"/><path fill="#1b3230" d="M30.5 99.2L21 107l4.7-12.5z"/><path fill="#b9c8cf" d="M88.3 77.3l-11 37.5L68 54z"/><path fill="#000100" d="M83.6 64.8l3.1-1.5 3.1 12.5z"/><path fill="#abc6d6" d="M185.2 93l101.5-29.7 14 31.2z"/><path fill="#bec3c6" d="M304 122.7l73.3 17.1-128 4.7z"/><path fill="#314a49" d="M277.3 104l15.7-6.3h-15.7z"/><path fill="#1e281f" d="M161.7 66.4v-6.2l6.3 3z"/><path fill="#153030" d="M218 94.5l-4.7 14 4.7-6.2z"/><path fill="#c6cfd4" d="M158.6 66.4l51.6 7.8 6.2 37.5z"/><path fill="#c2cdce" d="M382 80.5l4.7 143.7 37.5-82.8z"/><path fill="#243b3a" d="M269.5 66.4l3.2-11 4.6 9.4z"/><path fill="#b9ccd9" d="M221 97.7l58 9.3-54.8 12.5z"/><path fill="#0c2929" d="M86.7 102.3l3.1-9.3h-6.2z"/><path fill="#9dbacb" d="M82 97.7L110.2-7l65.6-17.2z"/><path fill="#2e4137" d="M252.3 91.4l4.7 4.7-7.8 4.7z"/><path fill="#d5dadd" d="M194.5 30.5l-78 31.2 85.8-1.5z"/><path fill="#001113" d="M54 124.2h4.6l-3.1-11z"/><path fill="#afc1c9" d="M44.5 163.3L21.1 146l11-43.8z"/><path fill="#a4bbc6" d="M21 135.2l3.2-45.4L4 113.3z"/><path fill="#031e1e" d="M85.2 124.2L82 108.6 80.5 121z"/><path fill="#73a4bf" d="M-24.2 54L68-24.3 119.5 21z"/><path fill="#e9e6e3" d="M293 135.2l75 3-7.8-18.7z"/><path fill="#9daab1" d="M155.5 147.7l37.5-11h-70.3z"/><path fill="#d0d9d9" d="M82 108.6l32.8-3.1-15.6 23.4z"/><path fill="#cfdadf" d="M85.2 224.2l118.7-84.4h-81.2z"/><path fill="#0c292a" d="M39.8 116.4l-17.1-3.1L21 118z"/><path fill="#91a2a7" d="M121 136.7H52.4l34.4 9.4z"/><path fill="#d0d6da" d="M116.4 58.6l53.1 50-20.3 6.2z"/><path fill="#133232" d="M385.2 74.2L396 82l-6.3-1.5z"/><path fill="#a2b8c4" d="M29 119.5l26.5-81.2v51.5z"/><path fill="#a6b7bf" d="M196 141.4l53.2-15.6 48.5 14z"/><path fill="#4f645d" d="M50.8 68l-12.5-1.6 9.4-7.8z"/><path fill="#c2d3d8" d="M114.8 139.8l4.7 57.9-68.7-57.9z"/><path fill="#bfcbd2" d="M296 141.4l28.2 1.6-21.9-59.4z"/><path fill="#000b07" d="M297.7 125.8l-6.3-12.5h4.7z"/><path fill="#bdcdd6" d="M289.8 136.7l-12.5-17.2 12.5-34.3z"/><path d="M38.3 122.7l-1.6-3.2 1.6-3z"/><path fill="#a2baca" d="M335.2 119.5l39-50-79.7-1.5z"/><path fill="#94bbd2" d="M219.5 41.4l-7.8 43.8 54.7-50z"/><path fill="#95b8ca" d="M-18 224.2l103.2-48.4-62.5-26.6z"/><path fill="#143231" d="M366.4 71l-6.2-12.4 9.3 4.7z"/><path fill="#9bb4c3" d="M380.5 85.2l36-68.8-53.2 36z"/><path fill="#afc4ce" d="M82 111.7l-18.7-11-39 11z"/><path fill="#e2e3e5" d="M164.8 133.6l64.1 3.1-43.7-18.7z"/><path fill="#c7ced2" d="M49.2 94.5l76.6-25L143 93z"/><path fill="#d9d9dc" d="M357 99.2l57.8 3.1-62.5 14.1z"/><path fill="#000101" d="M24.2 114.8v6.3l-3.1 1.6z"/><path fill="#0d242a" d="M68 102.3l3-7.8 4.8 11z"/><path fill="#00110c" d="M108.6 66.4h7.8l-4.7-3.1z"/><path fill="#1c3438" d="M297.7 96l-1.6 11-3.1-12.5z"/><path fill="#a0b8c4" d="M85.2 104l-1.6-68.8-28.1 45.3z"/><path fill="#001415" d="M258.6 113.3l4.7 3.1-3.1 6.3z"/><path fill="#7f98a4" d="M266.4 80.5L243 86.7 218 79z"/><path fill="#b5c9d1" d="M11.7 135.2l78.1 1.5-17.1-20.3z"/><path fill="#bfccd5" d="M204 114.8l12.4-9.3-31.2-26.6z"/></g></svg>