<svg xmlns="http://www.w3.org/2000/svg" viewBox="0 0 100 50"><path fill="#adc0cb" d="M0 0h100v50H0z"/><g fill-opacity=".5"><path fill="#fbf3ee" d="M15.5 38.5l67 27 28-37z"/><path fill="#6596b1" d="M43.5-15.5l-49 74-10-53z"/><path fill="#719ebc" d="M57.5-15.5l58 15-43 32z"/><path fill="#d1d8da" d="M49.5-15.5l5 81h-41z"/><path fill="#9bafbb" d="M68.5 37.5l-22-21 69-6z"/><path fill="#408cb3" d="M16.5-9.5l-32 13 21 6z"/><path fill="#f4eee9" d="M82.5 65.5l13-27-101 19z"/><path fill="#a2c0cc" d="M1.5 65.5l-17-42 43 14z"/><path fill="#7a888e" d="M17.5 22.5l-11 6 15 2z"/><path fill="#c6d2d9" d="M44.5 30.5l31 15 3-16z"/><path fill="#cfd1d2" d="M115.5 20.5l-15 34-16-34z"/><path fill="#8aafc7" d="M104.5-8.5l-64 39 38-46z"/><path fill="#9fb8c8" d="M46.5-13.5l-33 26 3 20z"/><path fill="#738893" d="M89.5 16.5l11 5-8-8z"/><path fill="#c8d4d7" d="M16.5 65.5l13-14-4-40z"/><path fill="#82898c" d="M73.5 31.5l14-3-14-1z"/><path fill="#272a26" d="M42.5 28.5v2l1-1z"/><path fill="#d1d8df" d="M76.5 25.5l-2 15 10 1z"/><path fill="#75878f" d="M18.5 18.5l-8-3h19z"/><path fill="#a0a2a4" d="M26.5 23.5h8l4 8z"/><path fill="#ced5d7" d="M50.5 9.5l-21 25 1-25z"/><path fill="#49606c" d="M72.5 25.5l2-2 3 1z"/><path fill="#939da0" d="M24.5 20.5l4-5h14z"/><path fill="#abcadb" d="M91.5 11.5l4 9v-9z"/><path fill="#5d727f" d="M65.5 30.5l-2 2 2-6z"/><path fill="#c4d3da" d="M40.5 60.5l-13-13 16-27z"/><path fill="#adc1cd" d="M13.5 27.5l5-15 3 7z"/><path fill="#7e909b" d="M7.5 23.5l-6 6 20-5z"/><path fill="#829098" d="M56.5 27.5l-4-11v13z"/><path fill="#b8c9d3" d="M66.5 37.5l-23-21 17 6z"/><path fill="#395465" d="M70.5 19.5l3-2v-3z"/><path fill="#bacacf" d="M21.5 44.5l-11-19v12z"/><path fill="#75a5c1" d="M115.5 13.5l-100-29h100z"/><path fill="#abc6d7" d="M68.5 17.5l19 5-24 1z"/><path fill="#123850" d="M59.5 16.5v-2l1 3z"/><path fill="#a2c1d3" d="M23.5-11.5l38 27 30-2z"/><path fill="#e0dfe1" d="M52.5 52.5l24 13-35-47z"/><path fill="#788182" d="M39.5 22.5v4l2-4z"/><path fill="#6d6a6d" d="M47.5 23.5v4l3-4z"/><path fill="#75a6c1" d="M-9.5 15.5l34-26 3 16z"/><path fill="#c0d4df" d="M61.5 25.5l15 1-7 2z"/><path fill="#758383" d="M53.5 16.5l-7-1-2 3z"/><path fill="#c5d4d8" d="M49.5 22.5l5-22-9 4z"/><path fill="#afbec7" d="M58.5 35.5l-2-8 29 8z"/><path fill="#cbd7e2" d="M81.5 32.5l3-4-3-4z"/><path fill="#263f4e" d="M90.5 15.5l1 2h2z"/><path fill="#bec2c5" d="M95.5 34.5l-3-19 23 28z"/><path fill="#303435" d="M96.5 18.5v4l1-2z"/><path fill="#64717d" d="M20.5 25.5l-6-2h8z"/><path fill="#cad4d9" d="M50.5 22.5l4 10-7-3z"/><path fill="#a6c2ce" d="M-5.5 64.5l22-12 5-30z"/><path fill="#cad4d8" d="M96.5 22.5l17-7-16 40z"/><path fill="#b0c6cd" d="M13.5 19.5l7 26 4-7z"/><path fill="#cbd2d8" d="M53.5 23.5l-11-7-13 2z"/><path fill="#a4bcca" d="M12.5 22.5l-5 7 1-17z"/><path fill="#e3edf0" d="M32.5 28.5l2-4h8z"/><path fill="#879194" d="M32.5 29.5h8l-3-2z"/><path fill="#cbd4d6" d="M23.5 16.5v5l14 1z"/><path fill="#455760" d="M9.5 27.5l-1 2 2 2z"/><path fill="#80898e" d="M33.5 23.5h-4l4 2z"/><path fill="#cfdade" d="M39.5 52.5l-10-36-1 43z"/><path fill="#61605d" d="M27.5 28.5l1-5 1 6z"/><path fill="#d1d5d8" d="M31.5 28.5l-6-8-4 2z"/><path fill="#99b8c8" d="M8.5 30.5l8 32-22-3z"/><path fill="#a2bdcf" d="M76.5 17.5l4-1-5 10z"/><path fill="#a4becb" d="M92.5 20.5l13-9-13 2z"/><path fill="#b5c5c9" d="M7.5 30.5l33 4-29 6z"/><path fill="#dbdde0" d="M59.5 29.5h-14l-5 36z"/><path fill="#303d40" d="M20.5 27.5v2l2 1z"/><path fill="#c5d2d6" d="M41.5 40.5l-16-4-6-12z"/><path fill="#59798e" d="M80.5 16.5l-3-3v3z"/><path fill="#688495" d="M68.5 11.5l-1 4 2 2z"/><path fill="#5d686d" d="M36.5 27.5l2 5-3-3z"/><path fill="#91b6cc" d="M73.5 3.5l20 11-40-1z"/><path fill="#718c9d" d="M54.5 26.5v-6l2-1z"/><path fill="#b9cad3" d="M54.5 18.5l9 6-24-5z"/><path fill="#bfcbd2" d="M26.5 38.5l26-4-16-3z"/><path fill="#80a0b3" d="M-11.5 8.5l-4 13 33-2z"/><path fill="#a0b0b2" d="M23.5 33.5l6 2 7-2z"/><path fill="#d1e0e5" d="M37.5 27.5l6 5-6 1z"/><path fill="#c9d8e0" d="M71.5 31.5l-9 1 12 2z"/><path fill="#dae2e7" d="M35.5 21.5l1 5-4 4z"/><path fill="#445c69" d="M6.5 23.5l-1 7 2-2z"/><path fill="#a1a1a3" d="M115.5 33.5v-8l-22 3z"/><path fill="#d1d4d7" d="M96.5 29.5l19 20-12-42z"/><path fill="#9fbcd0" d="M22.5 15.5l9-6h-25z"/><path fill="#b0c8d3" d="M5.5 25.5l9 1-6 1z"/><path fill="#a9c1cb" d="M7.5 28.5l10 15-9-2z"/><path fill="#e2dedd" d="M97.5 44.5l-5-15h-9z"/><path fill="#96b1c1" d="M4.5 31.5l5-18-17 27z"/><path fill="#6a7a81" d="M79.5 28.5l-6 1 8 1z"/><path fill="#d0dae0" d="M76.5 25.5l-1 8 6 1z"/><path fill="#96adbb" d="M76.5 19.5l-8-2-11 8z"/><path fill="#a6b5bf" d="M54.5 33.5h15l-4 3z"/><path fill="#6f767b" d="M86.5 29.5l-1-3 5 3z"/><path fill="#dadcdd" d="M96.5 25.5l-12 9 4-8z"/><path fill="#abc1d0" d="M90.5 14.5l-6 11 3 2z"/><path fill="#d1dade" d="M31.5 21.5l3 44h-12z"/><path fill="#92a6ab" d="M16.5 35.5l-3-2h8z"/><path fill="#677d8c" d="M67.5 27.5l6-4h-3z"/></g></svg>