<svg xmlns="http://www.w3.org/2000/svg" viewBox="0 0 400 200"><path fill="#acc0ca" d="M0 0h400v200H0z"/><g transform="translate(.8 .8) scale(1.5625)" fill-opacity=".5"><ellipse fill="#f0ebe7" cx="172" cy="127" rx="64" ry="64"/><ellipse fill="#5f92ac" cy="14" rx="70" ry="70"/><ellipse fill="#7ea5bd" cx="190" cy="20" rx="63" ry="63"/><ellipse fill="#e5e6e5" cx="106" cy="127" rx="52" ry="52"/><ellipse fill="#f3ece5" cx="235" cy="127" rx="51" ry="51"/><ellipse fill="#cbd6dc" cx="121" cy="9" rx="33" ry="33"/><ellipse fill="#99b2be" cx="173" cy="61" rx="37" ry="37"/><ellipse fill="#c5cac9" cx="86" cy="59" rx="34" ry="34"/><ellipse fill="#3f8cb2" cx="5" cy="5" rx="19" ry="19"/><ellipse fill="#7da4bc" cx="255" rx="54" ry="54"/><ellipse fill="#001515" cx="92" cy="74" rx="3" ry="3"/><ellipse fill="#000400" cx="219" cy="73" rx="3" ry="3"/><ellipse fill="#000300" cx="52" cy="74" rx="3" ry="3"/><ellipse fill="#000807" cx="110" cy="75" rx="3" ry="3"/><ellipse fill="#8ab0c3" cy="109" rx="32" ry="32"/><ellipse fill="#002120" cx="71" cy="43" rx="3" ry="3"/><ellipse fill="#d9d4d2" cx="231" cy="64" rx="13" ry="13"/><ellipse fill="#000900" cx="188" cy="75" rx="3" ry="3"/><ellipse cx="232" cy="42" rx="3" ry="3"/><ellipse fill="#000d02" cx="33" cy="63" rx="3" ry="3"/><ellipse fill="#000200" cx="248" cy="52" rx="3" ry="3"/><ellipse fill="#0d2d27" cx="71" cy="63" rx="3" ry="3"/><ellipse fill="#001b14" cx="122" cy="63" rx="3" ry="3"/><ellipse fill="#001614" cx="165" cy="75" rx="3" ry="3"/><ellipse fill="#061a06" cx="135" cy="73" rx="3" ry="3"/></g></svg>