<svg xmlns="http://www.w3.org/2000/svg" viewBox="0 0 400 200"><path fill="#acc0ca" d="M0 0h400v200H0z"/><g transform="translate(.8 .8) scale(1.5625)" fill-opacity=".5"><ellipse fill="#f8f2ec" cx="201" cy="113" rx="147" ry="35"/><ellipse fill="#5d90aa" cx="18" rx="50" ry="81"/><ellipse fill="#7ca3bc" cx="201" cy="24" rx="56" ry="57"/><ellipse fill="#cdd2d4" cx="102" cy="65" rx="30" ry="59"/><ellipse fill="#a0b4be" cx="172" cy="70" rx="39" ry="27"/><ellipse fill="#6c7978" cx="70" cy="75" rx="176" ry="2"/><ellipse fill="#d4d2d2" cx="255" cy="63" rx="52" ry="11"/><ellipse fill="#697e81" cx="150" cy="42" rx="146" ry="2"/><ellipse fill="#f1ede9" cx="173" cy="127" rx="71" ry="20"/><ellipse fill="#3f8cb3" cx="7" rx="17" ry="24"/><ellipse fill="#4f5554" cx="236" cy="90" rx="52" ry="1"/><ellipse fill="#4a5c5f" cx="125" cy="63" rx="133" ry="1"/><ellipse fill="#556369" cx="28" cy="88" rx="113" ry="1"/><ellipse fill="#d1d9db" cx="164" cy="81" rx="126" ry="6"/><ellipse fill="#687276" cx="175" cy="89" rx="50" ry="1"/><ellipse fill="#72a4c4" cx="219" cy="2" rx="54" ry="19"/><ellipse fill="#56635e" cx="71" cy="60" rx="2" ry="23"/><ellipse fill="#d3dce1" cx="69" cy="56" rx="56" ry="4"/><ellipse fill="#344643" cx="248" cy="49" rx="2" ry="9"/><ellipse cx="121" cy="64" rx="2" ry="4"/><ellipse fill="#000100" cx="139" cy="64" rx="2" ry="4"/><ellipse fill="#88afc3" cx="5" cy="108" rx="21" ry="34"/><ellipse fill="#000602" cx="134" cy="43" rx="2" ry="5"/><ellipse fill="#556369" cx="147" cy="52" rx="157" ry="1"/><ellipse fill="#a6c0cf" cx="49" cy="32" rx="33" ry="10"/></g></svg>