<svg xmlns="http://www.w3.org/2000/svg" viewBox="0 0 256 128"><path fill="#adc0cb" d="M0 0h256v128H0z"/><g fill-opacity=".5"><path fill="#fdf5ee" d="M269.5 69.5l-25 74-214-28z"/><path fill="#6696b1" d="M-15.5-3.5l111-12-91 142z"/><path fill="#74a0bc" d="M146.5-15.5l46 109 79-92z"/><path fill="#d7dadb" d="M114.5-15.5l-71 159h106z"/><path fill="#99b1c0" d="M270.5 16.5l-159 25 67 58z"/><path fill="#16221f" d="M245.5 55.5l6 2-3-11z"/><path d="M229.5 41.5l5 5v-8z"/><path fill="#334042" d="M55.5 79.5l-1-19-4 17z"/><path fill="#001015" d="M92.5 80.5l1-8-5 2z"/><path fill="#438db2" d="M-10.5 5.5l48-21-29 47z"/><path fill="#cdd6db" d="M118.5 75.5l153 7-271 61z"/><path fill="#a2bfce" d="M67.5 115.5l-49-41-34 69z"/><path d="M112.5 71.5l-1 7-2-7zm8-11l3 7v-6z"/><path fill="#f5efea" d="M238.5 100.5l-138 26 129 14z"/><path fill="#000303" d="M69.5 38.5l4 3-2 6z"/><path fill="#c8ccd0" d="M271.5 92.5l-78-36 52-4z"/><path fill="#02110e" d="M220.5 69.5l5 6-7-1z"/><path d="M166.5 79.5l1-7h-3z"/><path fill="#242f33" d="M189.5 78.5l-1-16-4 17z"/><path d="M131.5 42.5l3-2 3 7z"/><path fill="#454c45" d="M75.5 61.5l-4 17-1-18z"/><path fill="#404d4b" d="M139.5 59.5l-5 14 6 2z"/><path fill="#e1e5e4" d="M49.5 68.5l13 9 18-14z"/><path fill="#181e1c" d="M83.5 39.5l1 9 3-7z"/><path fill="#000814" d="M155.5 41.5l-4 7v-9z"/><path d="M204.5 72.5l-1 6 3 2z"/><path fill="#606d6f" d="M12.5 71.5l34 3-33 6z"/><path d="M185.5 41.5l2 5v-7zm-66-1l-1 7 2 1z"/><path fill="#bdcfd8" d="M13.5 39.5l157-48-40 47z"/><path d="M202.5 66.5l-5-2v-3zm-172-2l2 2 3-6zm73-1v-6l-2 5z"/><path fill="#2b3f40" d="M45.5 66.5l3-3-6-6z"/><path fill="#838583" d="M255.5 75.5l-15-4-13 5z"/><path fill="#d4d9d9" d="M73.5 35.5l14 13-12 42z"/><path fill="#c4d2db" d="M201.5 74.5l-19-5 32-7z"/><path fill="#152930" d="M39.5 39.5v6l-6-2z"/><path fill="#bfcbce" d="M42.5 106.5l-24-14 13-24z"/><path fill="#010002" d="M104.5 43.5v-5h4z"/><path fill="#77a6c4" d="M106.5-15.5l152 47 13-47z"/><path fill="#b9c7cf" d="M16.5 61.5l56-4-26-14z"/><path fill="#c7d3d8" d="M129.5 27.5l12 49-22-29z"/><path fill="#465150" d="M83.5 70.5l4-9-4-3z"/><path fill="#22282e" d="M54.5 41.5l4-3-4 12z"/><path fill="#162d33" d="M14.5 62.5l1 5 4-9z"/><path fill="#cad7db" d="M48.5 99.5l39 44 3-82z"/><path fill="#93b5cb" d="M74.5 39.5h-67l88-49z"/><path fill="#9ab8c8" d="M49.5 143.5l-65-27 37-43z"/><path fill="#aabbc3" d="M138.5 88.5l43 12 39-13z"/><path fill="#05151b" d="M36.5 80.5l-2-6 2-4z"/><path fill="#203736" d="M174.5 37.5l4 5h-7z"/><path fill="#2f4349" d="M183.5 62.5l-4-2-6 9z"/><path fill="#e0e3e5" d="M177.5 89.5l-72 54 8-53z"/><path fill="#001619" d="M204.5 41.5l-5 1 4-5z"/><path fill="#dad8d8" d="M219.5 67.5l20 1-4 20z"/><path fill="#96bbd4" d="M155.5.5l71 38-84-3z"/><path fill="#bfd1d9" d="M187.5 97.5l-28 10 26-50z"/><path fill="#293b34" d="M159.5 63.5v-4l7 4z"/><path fill="#c8dae4" d="M159.5 59.5l4 14-26-1z"/><path fill="#c9d1d3" d="M271.5 143.5l-18-100-13 73z"/><path fill="#ccd2d8" d="M154.5 59.5h-109l59-16z"/><path fill="#96a4ae" d="M98.5 83.5l17 6h-36z"/><path d="M242.5 72.5l-2 2 3 1z"/><path fill="#aba29e" d="M211.5 90.5h32l-17-5z"/><path d="M54.5 65.5l3-4-2-1z"/><path fill="#e7e3e3" d="M218.5 76.5l-35 11 74 2z"/><path fill="#a5bbc8" d="M-5.5 79.5l22-26-5 34z"/><path d="M15.5 72.5l1 3-2 4z"/><path fill="#d6dbde" d="M130.5 21.5l-61 14 48 5z"/><path fill="#e3e7ea" d="M129.5 76.5l28 11h-69z"/><path fill="#00060a" d="M70.5 75.5h5l-4-3z"/><path fill="#c7cfd3" d="M70.5 98.5l-16-21 9-37z"/><path fill="#9bb1be" d="M6.5 61.5l23-18 48 8z"/><path fill="#2b3f45" d="M139.5 59.5l-5 16 7-10z"/><path fill="#cadde1" d="M138.5 71.5l1-5h-9z"/><path fill="#76a5c1" d="M-15.5 35.5l64-51 24 31z"/><path d="M190.5 77.5l-2-4-2 2z"/><path fill="#a5c0d2" d="M184.5 37.5l-10 33-19-18z"/><path fill="#91a0a5" d="M48.5 87.5h29l-21 6z"/><path fill="#b4c8d0" d="M30.5 103.5l11-44 30 55z"/><path fill="#dbe0e4" d="M82.5 56.5l15 17 21-2z"/><path fill="#a8b9c4" d="M93.5 51.5l41 12 19-13z"/><path fill="#566970" d="M29.5 36.5l-5 5 8 3z"/><path d="M71.5 60.5l-2 1 4 5z"/><path fill="#7692a4" d="M9.5 52.5l22-6 22 6z"/><path fill="#021e22" d="M111.5 71.5l1 10-3-5z"/><path fill="#03141d" d="M57.5 73.5h-8l2 2z"/><path fill="#a1bbc8" d="M36.5 40.5l-19 40 3-36z"/><path fill="#d2d7db" d="M192.5 66.5l-3 20 14-8z"/><path fill="#000001" d="M23.5 71.5v7l3 2z"/><path fill="#d6dee5" d="M145.5 52.5l-50 1 16 9z"/><path fill="#e2e1df" d="M236.5 127.5l17-37h-71z"/><path fill="#2f444b" d="M200.5 64.5l2 6-4-5z"/><path fill="#33393c" d="M127.5 75.5h6l6-4z"/><path fill="#1a2525" d="M205.5 72.5l-4 3 6 2z"/><path fill="#898f92" d="M270.5 84.5l-10 7-16-1z"/><path fill="#c6d7e0" d="M45.5 53.5l14 22-11-9z"/><path fill="#a6bdcc" d="M197.5 71.5l35-40-6 39z"/></g></svg>