<svg xmlns="http://www.w3.org/2000/svg" viewBox="0 0 800 400"><path fill="#acc0ca" d="M0 0h800v400H0z"/><g fill-opacity=".5"><path fill="#fbf4ed" d="M92.2 354.7l756.2-137.5-93.7 231.2z"/><path fill="#6496af" d="M301.6-48.4H-17.2l25 453z"/><path fill="#73a0bb" d="M848.4 11L467.2-48.5l125 346.8z"/><path fill="#d4d9d9" d="M373.4-48.4L114.1 445.3l334.3-43.7z"/><path fill="#95acb6" d="M454.7 76.6L789 239l-443.8-6.3z"/><path fill="#000600" d="M779.7 157.8l-12.5-15.6 12.5 40.6z"/><path fill="#3c8ab0" d="M45.3 79.7l-93.7-50 150-78.1z"/><path d="M732.8 148.4v-28l-12.5 9.3z"/><path fill="#000d06" d="M298.4 226.6l-9.3 18.7-9.4-15.6z"/><path fill="#f4efe9" d="M304.7 398.4l418.7 50 18.8-140.6z"/><path fill="#c5d2d6" d="M214 411L-14 251.5 748.3 239z"/><path fill="#576a64" d="M136 186l43.7 9.3-12.5 53.1z"/><path fill="#96b8c8" d="M195.3 351.6L-45.3 189l43.7 259.3z"/><path fill="#35483d" d="M223.4 242.2l9.4-25-12.5-34.4z"/><path fill="#000f0a" d="M507.8 236l18.8 9.3-6.3-21.9z"/><path fill="#000c00" d="M592.2 254.7l3.1-28.1-15.6 3z"/><path fill="#09231b" d="M364 132.8l9.4 15.6 3.2-28z"/><path fill="#000100" d="M426.6 157.8l-3.2-28.1-9.3-3.1z"/><path fill="#c7cdd1" d="M573.4 164l197 3.2 78 112.5z"/><path fill="#dee1e2" d="M129.7 204.7l53.1 28.1 90.6-21.9z"/><path fill="#0b251d" d="M339 245.3l22-9.4-15.7-9.3z"/><path fill="#08271c" d="M232.8 136l-12.5-18.8v28.1z"/><path fill="#41534d" d="M76.6 220.3v28.1l-43.8-18.7z"/><path d="M111 223.4l9.3 6.3-12.5 18.7zm368.7-90.6l-6.3-6.2 3.2 21.8z"/><path fill="#e1e2e2" d="M523.4 357.8l-178-181.2 28 231.2z"/><path d="M417.2 232.8l6.2-12.5V236z"/><path fill="#253e3b" d="M379.7 214l-9.4-6.2 12.5-18.7z"/><path fill="#071e19" d="M673.4 236l22-22v22z"/><path d="M442.2 195.3l-6.3 15.6-3-18.7zm-334.4 6.3l-9.4-3.2 12.5-9.3zM636 239v6.3l9.3-12.5z"/><path fill="#adbec4" d="M573.4 323.4l-159.3-50 321.8 6.3z"/><path fill="#102b20" d="M254.7 117.2l12.5 25 6.2-12.5z"/><path fill="#c0d0d8" d="M479.7-20.3L101.6 120.3l315.6 3.1z"/><path d="M623.4 195.3l-9.3-3.1 12.5 15.6zM589 129.7l-9.3-9.4 3.1 21.9zm-268.7 53.1l-6.2 12.5 12.5 3.1z"/><path fill="#1a3834" d="M48.4 179.7v31.2L61 189.1z"/><path fill="#1d342f" d="M107.8 139l12.5-15.6 3.1 28.2z"/><path fill="#77a5c2" d="M820.3 107.8l28.1-153.1-384.3 28.1z"/><path fill="#00120a" d="M257.8 204.7l9.4-9.4V186z"/><path fill="#aec1ca" d="M167.2 126.6l-6.3 59.3-137.5 3.2z"/><path fill="#38544f" d="M554.7 189l-3.1 15.7 43.7-9.4z"/><path fill="#b4c4ce" d="M601.6 229.7l196.8-106.3-100 97z"/><path fill="#d0d6d9" d="M601.6 179.7l78 165.6-84.3-93.7z"/><path fill="#bdd0d8" d="M517.2 301.6l62.5-128.2 9.4 190.7z"/><path d="M323.4 132.8v-6.2l12.5-6.3z"/><path fill="#0f2214" d="M764 236l-3-18.8-6.3 15.6z"/><path fill="#000300" d="M173.4 126.6l-3 6.2 12.4 3.1z"/><path fill="#d9dbdb" d="M236 132.8l-43.8 50 121.9 9.4z"/><path fill="#97bad1" d="M414 120.3l72-100 362.4 96.9z"/><path fill="#3c4b3d" d="M639 111l-18.7 25 15.6-3.2z"/><path fill="#9fbcca" d="M142.2 223.4L326.6-14l-75-34.3z"/><path fill="#9ebac8" d="M61 364l-97 84.4L76.7 189.1z"/><path fill="#c2d3db" d="M489 164l-84.3 100 112.5-15.6z"/><path fill="#c4cfcf" d="M848.4 361l-96.8 75 34.3-297z"/><path fill="#d0d4d8" d="M367.2 139l15.6 106.3-84.4-112.5z"/><path fill="#b8c9d4" d="M379.7 123.4l128.1 78.2-137.5-25z"/><path fill="#193635" d="M157.8 211l3.1 31.2 12.5 6.2z"/><path d="M98.4 201.6l9.4-3.2-12.5 9.4z"/><path fill="#07201b" d="M592.2 214v-18.7l-6.3 6.3z"/><path fill="#a8bec6" d="M120.3 317.2l43.8-106.3-47-12.5z"/><path fill="#001011" d="M139 189l9.4 12.6-3 9.3z"/><path fill="#dddcdb" d="M711 198.4l-3.2 40.7 90.6-37.5z"/><path fill="#465d53" d="M542.2 111l15.6 31.2-18.7-12.5z"/><path fill="#193121" d="M501.6 189l-6.3 6.3 28.1 3.1z"/><path fill="#a8c5d5" d="M507.8 179.7l40.6 53.1 15.7-115.6z"/><path fill="#c8d1d6" d="M382.8 317.2l-90.6-68.8 18.7-65.6z"/><path d="M176.6 195.3l-3.2-3.1-3 12.5z"/><path fill="#c2d1d8" d="M157.8 223.4l15.6-53-34.3-3.2z"/><path fill="#73a5c0" d="M136-48.4L-48.5 114l278-75z"/><path fill="#abb7bd" d="M401.6 279.7l-100-28.1-75 28z"/><path fill="#e3e2df" d="M704.7 411L576.6 282.7 789 286z"/><path fill="#979a94" d="M761 270.3l31.2 12.5h-75z"/><path fill="#e6e2de" d="M689 239l-46.8 34.4 171.9 6.3z"/><path fill="#d8e1e5" d="M239 236l-12.4 37.4h146.8z"/><path fill="#22403a" d="M636 245.3l15.6-12.5-15.7-12.5z"/><path fill="#98aeb6" d="M179.7 273.4l-206.3-46.8-21.8 56.2z"/><path fill="#032518" d="M211 189l12.4 12.6 3.2-6.3z"/><path fill="#02261c" d="M217.2 232.8l3.1-6.2 15.6 9.3z"/><path fill="#c6cfd1" d="M182.8 179.7L161 295.3l81.3-153.1z"/><path fill="#173029" d="M79.7 223.4l-9.4 3.2 12.5 28z"/><path fill="#aec5cf" d="M95.3 376.6L76.6 195.3l156.2 253.1z"/><path fill="#495848" d="M95.3 136l-3.1-12.6-18.8 9.4z"/><path fill="#d8dbdd" d="M386 117.2l-22-50-137.4 56.2z"/><path fill="#9ab9c9" d="M301.6 48.4L10.9 111l153.2 15.7z"/><path fill="#072f2a" d="M782.8 161l-21.9 3 9.4-9.3z"/><path fill="#9cb0bb" d="M767.2 161l18.7-81.3-71.8 87.5z"/><path fill="#cbd2d4" d="M232.8 298.4l37.5-143.7-40.6-28.1z"/><path fill="#0c2a26" d="M345.3 251.6l-6.2-25h12.5z"/><path fill="#94a8b0" d="M579.7 267.2l-90.6 9.4 56.2 9.3z"/><path fill="#aac6d9" d="M589 132.8l118.8 6.3-87.5 18.7z"/><path fill="#98a2a8" d="M195.3 164H286l-56.2-15.6z"/><path fill="#dae0e2" d="M348.4 279.7h209.4l-231.2 125z"/><path fill="#204f55" d="M467.2 132.8h28.1l-25-9.4z"/><path fill="#97a7ae" d="M654.7 276.6l-62.5 18.7-68.8-18.7z"/><path fill="#000a05" d="M382.8 211l3.1-18.8-6.2 3.1z"/><path fill="#7b9cac" d="M148.4 161l-196.8-50v53z"/><path fill="#9db9c8" d="M111 136l-9.4 28-78.2-31.2z"/></g></svg>