<svg xmlns="http://www.w3.org/2000/svg" viewBox="0 0 400 200"><path fill="#acc0ca" d="M0 0h400v200H0z"/><ellipse fill="#f7f1eb" fill-opacity=".5" rx="1" ry="1" transform="matrix(1.87648 47.7392 -232.593 9.14252 314.5 171.3)"/><ellipse fill="#6394ad" fill-opacity=".5" rx="1" ry="1" transform="matrix(89.42144 -149.26216 68.13938 40.8216 18.6 42)"/><ellipse fill="#7ca4bd" fill-opacity=".5" rx="1" ry="1" transform="matrix(-54.69856 -38.0165 79.31166 -114.11452 321.8 30)"/><ellipse fill="#c7d0d3" fill-opacity=".5" rx="1" ry="1" transform="matrix(-66.71947 169.30178 -42.78473 -16.86087 136.8 137.3)"/><ellipse fill="#408cb2" fill-opacity=".5" rx="1" ry="1" transform="rotate(-56.1 16.5 -5.6) scale(29.07836 27.23079)"/><ellipse fill="#f2eee9" fill-opacity=".5" rx="1" ry="1" transform="matrix(118.61168 -17.91514 3.99164 26.42765 259.3 199.2)"/><ellipse fill="#001710" fill-opacity=".5" rx="1" ry="1" transform="matrix(-3.88476 .6018 -.93892 -6.06096 388 82.7)"/><ellipse fill="#d7ddde" fill-opacity=".5" rx="1" ry="1" transform="matrix(-118.71629 -.13687 .00872 -7.56477 213.9 130.9)"/><ellipse fill="#677e82" fill-opacity=".5" rx="1" ry="1" transform="matrix(257.96226 -2.70728 .01795 1.71043 196.6 67.2)"/><ellipse fill="#041d19" fill-opacity=".5" rx="1" ry="1" transform="matrix(-.95262 -5.63224 4.59658 -.77745 365 66.5)"/><ellipse fill="#75a5c3" fill-opacity=".5" rx="1" ry="1" transform="matrix(-156.37925 -41.02533 7.38904 -28.16535 351.4 10.5)"/><ellipse fill="#3b4f4d" fill-opacity=".5" rx="1" ry="1" transform="matrix(-.9661 4.54519 -7.06823 -1.5024 342.8 115)"/><ellipse fill="#6e7875" fill-opacity=".5" rx="1" ry="1" transform="rotate(.3 -24939.7 41640.5) scale(245.61218 1.5625)"/><ellipse fill="#000201" fill-opacity=".5" rx="1" ry="1" transform="matrix(-1.49423 .45683 -2.26478 -7.40778 81.9 119.8)"/><ellipse fill="#718282" fill-opacity=".5" rx="1" ry="1" transform="rotate(-90.2 94 6.2) scale(1.5625 256.1709)"/><ellipse fill="#8c9394" fill-opacity=".5" rx="1" ry="1" transform="matrix(-.02182 1.56235 -131.93152 -1.84223 286.5 140.7)"/><ellipse fill="#284b4f" fill-opacity=".5" rx="1" ry="1" transform="rotate(162.9 100.6 51.6) scale(3.10725 9.78532)"/><ellipse fill-opacity=".5" rx="1" ry="1" transform="matrix(1.11471 6.32736 -1.5388 .2711 218.6 103.5)"/><ellipse fill="#a0becb" fill-opacity=".5" rx="1" ry="1" transform="rotate(5.4 -1786.6 280.4) scale(76.61457 47.33626)"/><ellipse fill="#000c08" fill-opacity=".5" rx="1" ry="1" transform="rotate(-94.2 143.2 -37.7) scale(7.5382 1.5625)"/><ellipse fill="#000100" fill-opacity=".5" rx="1" ry="1" transform="matrix(2.7388 -.42888 .82581 5.27351 295 120.2)"/><ellipse fill="#cad3d8" fill-opacity=".5" rx="1" ry="1" transform="matrix(-.03996 6.11383 -90.1559 -.58925 110.3 89.6)"/><ellipse fill="#011b19" fill-opacity=".5" rx="1" ry="1" transform="rotate(91.2 28.2 145.8) scale(7.7243 1.5625)"/><ellipse fill="#cacfd2" fill-opacity=".5" rx="1" ry="1" transform="matrix(2.5907 -14.54413 49.19077 8.76221 360 100.7)"/><ellipse fill="#082922" fill-opacity=".5" rx="1" ry="1" transform="matrix(-.48102 8.84004 -1.5602 -.0849 134 71)"/></svg>