<svg xmlns="http://www.w3.org/2000/svg" viewBox="0 0 400 200"><path fill="#acc0ca" d="M0 0h400v200H0z"/><ellipse fill="#f6f1eb" fill-opacity=".5" rx="1" ry="1" transform="matrix(-1.6832 64.27882 -251.9736 -6.59816 334 187.7)"/><ellipse fill="#6294ad" fill-opacity=".5" rx="1" ry="1" transform="rotate(31.7 -83.3 74.4) scale(64.97043 157.26407)"/><ellipse fill="#80a6bc" fill-opacity=".5" rx="1" ry="1" transform="matrix(94.19073 -65.22076 41.3183 59.67121 307.5 56.7)"/><ellipse fill="#c8d1d3" fill-opacity=".5" rx="1" ry="1" transform="rotate(-147.1 87.5 20.5) scale(37.44638 130.29635)"/><ellipse fill="#408cb2" fill-opacity=".5" rx="1" ry="1" transform="matrix(16.24546 36.22889 -28.305 12.6923 6.8 .8)"/><ellipse fill="#f7efe9" fill-opacity=".5" rx="1" ry="1" transform="rotate(-111.3 219.7 -4) scale(29.60726 78.42757)"/><ellipse fill="#253837" fill-opacity=".5" rx="1" ry="1" transform="matrix(-.8515 -9.9323 3.85147 -.33019 364.9 71)"/><ellipse fill="#67716f" fill-opacity=".5" rx="1" ry="1" transform="matrix(-.00208 1.5625 -394.77384 -.52578 68.2 117.8)"/><ellipse fill="#73a5c4" fill-opacity=".5" rx="1" ry="1" transform="matrix(4.24456 -30.27933 95.4824 13.38473 337 6.9)"/><ellipse fill="#d4dadc" fill-opacity=".5" rx="1" ry="1" transform="matrix(-31.97895 35.52819 -14.29707 -12.8688 221.4 138)"/><ellipse fill="#d3d0d0" fill-opacity=".5" rx="1" ry="1" transform="matrix(-52.03635 -17.20938 6.31675 -19.10008 386.5 108.7)"/><ellipse fill="#667b7e" fill-opacity=".5" rx="1" ry="1" transform="matrix(.0056 1.56249 -256.2525 .9174 175.6 67)"/><ellipse fill="#a0beca" fill-opacity=".5" rx="1" ry="1" transform="rotate(-82.4 93.8 81.4) scale(46.42758 94.14461)"/><ellipse fill="#6c7b7b" fill-opacity=".5" rx="1" ry="1" transform="matrix(-.01749 -1.5624 161.81585 -1.8113 64.5 100.3)"/><ellipse fill="#889194" fill-opacity=".5" rx="1" ry="1" transform="matrix(.00818 -1.56248 398.43204 2.0862 345 140.8)"/><ellipse fill-opacity=".5" rx="1" ry="1" transform="matrix(-1.5566 .13556 -.4432 -5.08895 133.5 68.6)"/><ellipse fill-opacity=".5" rx="1" ry="1" transform="matrix(-1.50925 .40444 -1.93223 -7.21045 294.6 120.6)"/><ellipse fill="#455654" fill-opacity=".5" rx="1" ry="1" transform="rotate(89.9 5.8 106) scale(38.11252 1.5625)"/><ellipse fill="#00140f" fill-opacity=".5" rx="1" ry="1" transform="matrix(1.54062 -.26058 1.80811 10.6902 386 79.4)"/><ellipse fill="#dfdee0" fill-opacity=".5" rx="1" ry="1" transform="matrix(40.02262 61.86555 -6.31809 4.08736 183.7 112.2)"/><ellipse fill="#4b6366" fill-opacity=".5" rx="1" ry="1" transform="matrix(-.00651 -2.35493 23.55685 -.06515 298.1 101.1)"/><ellipse fill="#000e09" fill-opacity=".5" rx="1" ry="1" transform="rotate(-90.9 145.2 -44.2) scale(6.5088 1.5625)"/><ellipse fill="#172d24" fill-opacity=".5" rx="1" ry="1" transform="matrix(.3633 5.06817 -2.91602 .20902 219 100.8)"/><ellipse fill="#31382b" fill-opacity=".5" rx="1" ry="1" transform="matrix(1.52551 -3.1417 4.63064 2.2485 346.3 118.6)"/><ellipse fill="#1b3c43" fill-opacity=".5" rx="1" ry="1" transform="matrix(-1.7014 -10.50476 1.801 -.2917 292.6 73)"/></svg>