<svg xmlns="http://www.w3.org/2000/svg" viewBox="0 0 800 400"><path fill="#acc0ca" d="M0 0h800v400H0z"/><g fill-opacity=".5"><path fill="#fcf5ed" d="M748.4 226.6L92.2 373.4l756.2 75z"/><path fill="#6496ae" d="M267.2 17.2L-26.6-48.4 7.8 392.2z"/><path fill="#74a0bb" d="M592.2 301.6L464-48.4 848.4 14z"/><path fill="#d6dada" d="M129.7 448.4L348.4-20.3l128.2 453.1z"/><path fill="#8da6b0" d="M632.8 117.2l15.6 131.2-331.2-121.8z"/><path fill="#4d615c" d="M176.6 189l-9.4 62.6-28.1-56.3z"/><path fill="#3e8bb2" d="M120.3-48.4L-48.4 20.3l90.6 62.5z"/><path d="M695.3 217.2l-15.6 15.6 18.7 3.1z"/><path fill="#001510" d="M289 251.6l-6.2-18.8 12.5-12.5z"/><path fill="#cad5d9" d="M304.7 236l543.7 25-775 171.8z"/><path fill="#112c25" d="M779.7 148.4l6.2 34.4-25-28.1z"/><path fill="#000900" d="M739 132.8l-18.7 12.5 6.3-31.2z"/><path fill="#6f8487" d="M448.4 195.3l-84.3-6.2 56.2 46.8z"/><path fill="#efebe6" d="M673.4 448.4l-353-59.3 490.5-106.3z"/><path fill="#19342e" d="M345.3 264l9.4-31.2-12.5-9.4z"/><path fill="#c8cdcf" d="M848.4 173.4v118.8l-278-125z"/><path fill="#9cbcca" d="M-48.4 429.7L14 210.9l184.3 172z"/><path d="M523.4 251.6v-25h-9.3z"/><path fill="#20372e" d="M257.8 120.3l15.6 3.1-6.2 25z"/><path fill="#3d4e42" d="M217.2 254.7l15.6-34.4-6.2-34.4z"/><path fill="#19332b" d="M223.4 154.7l6.3-31.3-12.5 3.2z"/><path fill="#001404" d="M601.6 264l-18.8-28 6.3-9.4z"/><path d="M423.4 151.6l-9.3-25 12.5 6.2z"/><path fill="#bcced7" d="M411 126.6l-362.6-9.4L517.2-23.4z"/><path fill="#d3d8d8" d="M301.6 220.3l-150-37.5-6.3 40.6z"/><path fill="#394c44" d="M86 242.2l-9.4-18.8-50 6.3z"/><path fill="#000500" d="M111 186l-18.8 25 18.7-12.6z"/><path fill="#d5dbde" d="M339 254.7l6.3 128.1 93.8-212.5z"/><path fill="#ccd4d7" d="M651.6 292.2l-68.8 68.7 18.8-190.6z"/><path fill="#031a10" d="M373.4 123.4l-9.3 15.7 12.5 6.2z"/><path d="M323.4 189l-3-6.2-6.3 12.5z"/><path fill="#001206" d="M639 251.6l-6.2-22 12.5-3z"/><path d="M104.7 229.7l9.4-9.4-3.2 21.9z"/><path fill="#133d42" d="M467.2 142.2l9.4 6.2 6.2-34.3z"/><path fill="#1b322d" d="M123.4 123.4L107.8 136l9.4 15.7z"/><path fill="#a1b4bc" d="M689 276.6l-121.8 31.2-118.8-34.4z"/><path fill="#76a5c2" d="M348.4-48.4l500 162.5-25-153.2z"/><path fill="#28474a" d="M579.7 142.2l21.9 28.1-18.8-50z"/><path d="M626.6 207.8l-9.4-18.7 6.2 3z"/><path fill="#505c50" d="M745.3 232.8l31.3 9.4-15.7-18.8z"/><path fill="#132e29" d="M261 214l-3.2-21.8 9.4-3.1z"/><path fill="#a5c2d4" d="M382.8 148.4l168.8 43.8 134.3-56.3z"/><path fill="#96bad2" d="M476.6 7.8l-53.2 115.6 334.4-9.3z"/><path fill="#dadada" d="M261 136l-3.2 106.2-40.6-93.8z"/><path fill="#2f4136" d="M167.2 157.8l12.5-28.1-12.5-6.3z"/><path fill="#001b17" d="M179.7 192.2l-12.5-3.1v25z"/><path fill="#b2c0c7" d="M67.2 192.2l215.6-34.4-156.2-18.7z"/><path fill="#b8cad0" d="M217.2 254.7l-31.3 175L26.6 248.4z"/><path fill="#3a5351" d="M42.2 195.3l6.2 50 9.4-62.5z"/><path fill="#435f5c" d="M604.7 201.6L589 189l-43.8 9.3z"/><path fill="#bfd1d8" d="M582.8 179.7l-12.5 181.2-81.2-37.5z"/><path fill="#cbd2d2" d="M792.2 151.6l40.6 296.8-103.1-106.2z"/><path fill="#142d2b" d="M379.7 192.2l6.2 21.9-15.6-22z"/><path fill="#000e08" d="M167.2 223.4l-6.3 6.3 9.4 18.7z"/><path fill="#d6d9dc" d="M373.4 195.3l-43.7-25 28.1-131.2z"/><path fill="#9abac9" d="M139 379.7L26.7 426.6l31.2-209.4z"/><path fill="#495e58" d="M414 245.3l22-25 3-37.5z"/><path fill="#c4d1d6" d="M392.2 73.4l-15.6 72 65.6 87.4z"/><path fill="#2b3b2b" d="M645.3 136l-9.4-15.7-12.5 9.4z"/><path fill="#e0e2e2" d="M417.2 236l128.1 121.8-240.6 71.9z"/><path fill="#8eb3c8" d="M314-48.4l-90.6 168.7L11 123.4z"/><path fill="#c8d5da" d="M164 207.8l72 240.6 115.6-103z"/><path fill="#001e15" d="M226.6 204.7l-9.4-6.3 6.2-15.6z"/><path fill="#000b00" d="M504.7 186l3.1 9.3-3.1 6.3z"/><path fill="#c9d1d2" d="M226.6 182.8l-15.7-75-43.7 118.8z"/><path fill="#aec2cc" d="M17.2 229.7l43.7-31.3 84.4 15.7z"/><path fill="#001407" d="M539 132.8l9.4-6.2-6.2-18.8z"/><path fill="#9fadb5" d="M261 270.3l118.7 6.3-68.8 15.6z"/><path fill="#73a5c0" d="M229.7 48.4l-50-96.8L-48.4 98.4z"/><path fill="#9bacb5" d="M770.3 167.2l-68.7-9.4 62.5-43.7z"/><path fill="#00190e" d="M379.7 192.2l6.2 6.2-15.6 3.2z"/><path fill="#cdd6da" d="M579.7 264l46.9 12.6 12.5-68.8z"/><path fill="#9ab7ca" d="M654.7 239l31.2-165.6-75 90.7z"/><path fill="#e0e3e7" d="M314 229.7l-46.8-21.9 106.2-6.2z"/><path fill="#a7b7bc" d="M242.2 276.6l-171.9 3L82.8 236z"/><path fill="#4f574f" d="M420.3 226.6l-25 9.3H436z"/><path fill="#000100" d="M436 204.7l3-12.5-6.2 3.1z"/><path fill="#616c5b" d="M326.6 114v18.8l18.7 6.3z"/><path fill="#d2d9db" d="M373.4 64l47 53.2-206.3 6.2z"/><path fill="#1d3e3d" d="M576.6 120.3l6.2 28.1 9.4-21.8z"/><path fill="#5e726f" d="M82.8 139l12.5-12.4-12.5-28.2z"/><path fill="#d7dcde" d="M232.8 261l-3.1-93.8 62.5 106.2z"/><path fill="#c5d5de" d="M398.4 254.7l25-43.8-34.3-34.3z"/><path fill="#abbfc9" d="M170.3 107.8l-3.1 109.4L123.4 114z"/><path fill="#000200" d="M176.6 145.3h-6.3l3.1-18.7z"/><path fill="#c9d0d4" d="M339 95.3l-6.2 121.9 62.5 25z"/><path fill="#334b49" d="M326.6 232.8l28-6.2-6.2 9.3z"/><path fill="#8b8e88" d="M767.2 273.4l-31.3 9.4h50z"/><path fill="#9aa3a1" d="M436 267.2l-43.8 12.5h84.4z"/><path fill="#04211f" d="M145.3 207.8l-9.4-18.7 9.4-3.2z"/><path fill="#e8e2df" d="M770.3 242.2l15.6 37.5-131.2-6.3z"/><path fill="#3f5246" d="M326.6 189l6.2 9.4h-25z"/><path fill="#bfd4df" d="M451.6 198.4l-18.8 31.3 118.8-28.1z"/><path fill="#9cb7c6" d="M51.6 139l106.2 56.3L111 136z"/><path fill="#d7dfe1" d="M414 236l-131.2 34.3 212.5 3.1z"/><path fill="#68797f" d="M32.8 267.2l-28.1 9.4h56.2z"/><path fill="#dedfde" d="M576.6 282.8l271.8 6.3-206.2 62.5z"/><path fill="#9cbbcf" d="M476.6 214L464 61l-43.8 115.6z"/><path fill="#8d9189" d="M682.8 282.8h65.6l-34.3-9.4z"/><path fill="#92a6ad" d="M545.3 292.2l37.5-12.5-75-3.1z"/></g></svg>