<svg xmlns="http://www.w3.org/2000/svg" viewBox="0 0 400 200"><path fill="#acc0ca" d="M0 0h400v200H0z"/><g fill-opacity=".5"><path fill="#fcf4ed" d="M372.7 224.2L44.5 179l379.7-68.7z"/><path fill="#6495ae" d="M10.2 193L-24.2-5.5l173.4-18.7z"/><path fill="#739fbb" d="M230.5-24.2L424.2 5.5l-125 142.2z"/><path fill="#d6d9da" d="M236.7 224.2l-61-248.4L79 207z"/><path fill="#95acb7" d="M166.4 116.4l228.1 3.1-164-81.2z"/><path fill="#428cb2" d="M24.2 46l-48.4-32.7 76.5-37.5z"/><path d="M383.6 72.7l6.2 15.6 1.6-11z"/><path fill="#000b06" d="M360.2 68l6.2-9.4 1.6 18.7z"/><path fill="#c8d3d6" d="M364.8 119.5l-90.6 53.2-112.5-43.8z"/><path fill="#798c8f" d="M88.3 94.5l-71.9 3.2 68.8 28z"/><path fill="#f3eee8" d="M136.7 202.3l236-50-9.4 72z"/><path d="M143 121l3-9.3-4.6 3.1z"/><path fill="#000707" d="M261.7 125.8v-15.6l-4.7 6.2z"/><path fill="#9ebcca" d="M-24.2 85.2l129.7 92.1-101.6 47z"/><path d="M207 66.4l4.7 6.3v-9.4z"/><path fill="#c8cdd1" d="M297.7 85.2l85.9-3.2 40.6 67.2z"/><path d="M174.2 122.7l-3.1-9.4 7.8 3.1z"/><path fill="#001312" d="M191.4 64.8l-7.8 6.3 1.6-11z"/><path fill="#000e09" d="M114.8 63.3L107 68l4.7 4.7z"/><path fill="#475854" d="M58.6 114.8l-39 7.9 6.2-11z"/><path fill="#0f281e" d="M291.4 108.6l7.8 14-9.4 1.6z"/><path fill="#000d12" d="M236.7 64.8l6.3-6.2-4.7 14z"/><path fill="#111f13" d="M341.4 110.2v12.5l7.8-7.9z"/><path fill="#001715" d="M294.5 58.6l-1.5 14-4.7-7.8z"/><path fill="#33463f" d="M219.5 108.6V91.4L207 119.5z"/><path d="M83.6 114.8l-4.7-1.5 6.3 14z"/><path fill="#011d14" d="M133.6 71l-4.7-6.2 7.8-3z"/><path fill="#56655d" d="M116.4 96l-4.7 28.2-4.7-28.1z"/><path fill="#e3e7e9" d="M138.3 111.7H61.7l39-12.5z"/><path fill="#00120b" d="M186.7 102.3l1.6-10.9 4.7 9.4z"/><path fill="#dadfe0" d="M179 100.8l-12.6 123.4 136-50z"/><path fill="#a5b8c2" d="M338.3 138.3l-126.6-1.6 68.8 21.9z"/><path fill="#b3c9d1" d="M94.5 204l-32.8 9.3-25-125z"/><path fill="#c2d4df" d="M277.3 99.2L250.8 118l-53.1-11z"/><path fill="#000002" d="M307 97.7l4.7-3.2 3.1 11z"/><path fill="#becfd8" d="M268-24.2l-62.5 86-156.3-1.6z"/><path fill="#3f4543" d="M161.7 88.3L157 93l6.3 11z"/><path fill="#1c302b" d="M318 110.2l1.5 12.5 6.3-6.3z"/><path fill="#00190d" d="M58.6 75.8L55.5 68l7.8-4.7z"/><path fill="#c8d1d5" d="M294.5 149.2l4.7-39L329 97.7z"/><path fill="#091b18" d="M132 105.5l-1.5-7.8 4.7-3.2z"/><path fill="#000400" d="M49.2 94.5l6.3 3.2-3.2 4.6z"/><path fill="#2c352f" d="M386.7 118l-14-1.6 6.2-3.1z"/><path fill="#000a01" d="M161.7 63.3l3.1 4.7 1.6-6.3z"/><path fill="#99bcd2" d="M238.3-2.3l109.4 62.5-136 1.5z"/><path fill="#cfd4d8" d="M158.6 64.8L236.7 93 77.3 94.5z"/><path fill="#000b04" d="M85.2 63.3l3-1.6v12.5z"/><path fill="#b5cad2" d="M74.2 185.2l40.6-9.4L54 77.3z"/><path fill="#77a5c2" d="M418-24.2L214.8-11.7 424.2 57z"/><path fill="#000a04" d="M275.8 107l7.8-11h-4.7z"/><path fill="#000d0e" d="M291.4 97.7h6.3l-1.6 7.8z"/><path fill="#2a3d39" d="M332 66.4h-20.3l3.1-4.7z"/><path fill="#94b6ca" d="M150.8-24.2L33.6 63.3l82.8-1.6z"/><path fill="#acc2ce" d="M55.5 89.8l-29.7 36 6.2-39z"/><path fill="#d4d8d5" d="M424.2 119.5l-101.5 1.6 87.5 103.1z"/><path fill="#223c3d" d="M61.7 116.4l-6.2-6.2-1.6 14z"/><path fill="#cdd9de" d="M97.7 219.5l-7.9-79.7 167.2 1.6z"/><path fill="#172f2f" d="M272.7 66.4l4.6-7.8h-7.8z"/><path fill="#203735" d="M85.2 93l1.5 15.6L91.4 93z"/><path fill="#a6bed0" d="M379 77.3l-39.2-17.1-65.6 18.7z"/><path fill="#b8d0de" d="M235.2 102.3l73.4 4.7-32.8 9.4z"/><path fill="#2b4138" d="M255.5 99.2l-6.3-3.1 4.7-6.3z"/><path fill="#a2c1d4" d="M207 89.8l140.7 6.3-81.3-29.7z"/><path fill="#dadfe3" d="M118 108.6l54.7-11 39 17.2z"/><path fill="#aebfc8" d="M85.2 99.2l-3.2-50-28 31.3z"/><path fill="#3b5559" d="M19.5 100.8l7.8-6.3-1.5 25z"/><path fill="#1c363d" d="M63.3 97.7l12.5 6.2-4.7-9.4z"/><path fill="#c7cfd1" d="M410.2 41.4L396 224.2l-20.3-89z"/><path fill="#a3b9c2" d="M5.5 111.7L21 154l1.6-56.2z"/><path fill="#abbec9" d="M319.5 88.3l6.3 34.4L396 69.5z"/><path fill="#000d0b" d="M36.7 114.8l4.7 1.6-4.7 7.8z"/><path fill="#aac3d0" d="M63.3 108.6l11-28.1-37.6 39z"/><path fill="#c6d0d2" d="M110.2 175.8l-22-73.5 20.4-54.6z"/><path fill="#0d2b2e" d="M144.5 124.2l-3-6.2 6.2-4.7z"/><path fill="#9cbac9" d="M32 111.7l-39 111 87.5 1.5z"/><path fill="#75a5c0" d="M111.7 24.2L77.3-24.2-24.2 55.5z"/><path d="M110.2 116.4v7.8l3-11z"/><path fill="#092320" d="M114.8 99.2l-4.6-6.2 1.5 11z"/><path fill="#cad2d2" d="M130.5 44.5L107 89.8l22 15.7z"/><path fill="#e0dcdb" d="M316.4 138.3h61l-3.2-39z"/><path fill="#9fadb4" d="M163.3 147.7l29.7-11-64 1.6z"/><path fill="#d4dcdf" d="M283.6 179l-136-36 272-1.6z"/><path fill="#bcbdb9" d="M339.8 139.8l84.4-7.8-40.6 15.7z"/><path fill="#d5dadd" d="M119.5 61.7l79.7-3.1-3.1-28.1z"/><path fill="#76848c" d="M94.5 141.4l12.5-4.7H77.3z"/><path fill="#455853" d="M44.5 58.6l3.2 4.7-9.4 7.8z"/><path fill="#112c2a" d="M193 107V96h-4.7z"/><path fill="#95b5ca" d="M239.8 58.6l165.7 1.6L382 21z"/><path fill="#7d9aa9" d="M239.8 72.7l29.7 9.3h-61z"/><path d="M160.2 96v-1.5l3 3.2z"/><path fill="#d7dedf" d="M118 136.7l-3.2-53.1 26.6 53.1z"/><path fill="#d8dfe2" d="M177.3 118h68.8l-23.4 17.2z"/><path fill="#9ba3a7" d="M147.7 82h-47l28.2-7.8z"/><path fill="#b8ccd4" d="M291.4 119.5l11 53.2-53.2-15.7z"/><path fill="#a0b3bb" d="M266.4 152.3l-42.2-14H318z"/><path fill="#16383d" d="M314.8 100.8l-1.5 7.8-4.7-14z"/><path fill="#c1d0d6" d="M182 210.2l-70.3-70.4H16.4z"/><path fill="#000100" d="M361.7 69.5l6.3-7.8h-6.3z"/><path fill="#bfccd4" d="M189.8 46l26.6 59.5-20.3 11z"/><path fill="#ebe6e1" d="M344.5 141.4l3.2 62.5 43.7-59.4z"/></g></svg>