<svg xmlns="http://www.w3.org/2000/svg" viewBox="0 0 100 50"><path fill="#adc0cb" d="M0 0h100v50H0z"/><g fill-opacity=".5"><path fill="#faf3ee" d="M115.5 28.5l-101 9 65 28z"/><path fill="#6697b1" d="M1.5 51.5l-7-67 37 17z"/><path fill="#6f9ebc" d="M115.5.5l-42 29-15-38z"/><path fill="#d0d7d9" d="M53.5 45.5l-4-54-41 74z"/><path fill="#9cb0bc" d="M65.5 39.5l50-28-70 5z"/><path fill="#3c8ab2" d="M-15.5 6.5l35-22-14 24z"/><path fill="#aac0c7" d="M-15.5 30.5l67-2-59 26z"/><path fill="#f4eee9" d="M82.5 65.5l-40-18 53-9z"/><path fill="#ced7dd" d="M29.5 52.5l59-22-67 1z"/><path fill="#d0d2d2" d="M104.5 64.5l-18-44 29 3z"/><path fill="#75828a" d="M21.5 24.5l-16 5h16z"/><path fill="#8aafc8" d="M68.5-10.5l13 13-35 24z"/><path fill="#c0d0d9" d="M52.5 14.5l6-15-47 16z"/><path fill="#23312e" d="M47.5 19.5l-1-3v2z"/><path fill="#c6ccd0" d="M14.5 28.5l47-6-25-6z"/><path fill="#616361" d="M27.5 27.5l2 2-1-6z"/><path fill="#7b95a5" d="M52.5 16.5l8-1-8 14z"/><path fill="#243b48" d="M90.5 15.5l2 1v2z"/><path fill="#646a6a" d="M97.5 18.5l3 4-6-4z"/><path fill="#8b9ba4" d="M71.5 22.5l18 7h-25z"/><path fill="#b2ccdd" d="M46.5 23.5l12-9 1 8z"/><path fill="#697572" d="M27.5 15.5h8l-2 2z"/><path fill="#62696d" d="M44.5 29.5l-2 3 1-5z"/><path fill="#b6c6d2" d="M94.5 16.5l3 8-26 4z"/><path fill="#baced7" d="M75.5 43.5l-10-17 7-1z"/><path fill="#94aec0" d="M40.5-2.5l-26 30-30-2z"/><path fill="#c5d1d5" d="M95.5 62.5l4-45 16-6z"/><path fill="#dfdfe1" d="M60.5 29.5h-14l-8 36z"/><path fill="#7b8f98" d="M-.5 23.5l11 4 11-4z"/><path fill="#76a5c1" d="M39.5-8.5l76 22v-25z"/><path fill="#6a7072" d="M35.5 27.5v3l3-1z"/><path fill="#c9d4da" d="M34.5 14.5l16 28-12-9z"/><path fill="#979ea4" d="M52.5 23.5h-14l11 3z"/><path fill="#d2dade" d="M32.5 23.5l-5 4 4-14z"/><path fill="#d1d8dd" d="M48.5 35.5l-5-9 3-7z"/><path fill="#4b5253" d="M54.5 27.5l-1 2h-3z"/><path fill="#afbcc5" d="M50.5 34.5l21-5 13 6z"/><path fill="#73838c" d="M72.5 30.5l4 1-3-7z"/><path fill="#536a7a" d="M74.5 15.5h-2l2 4z"/><path fill="#d1d7dc" d="M86.5 41.5l-11-17 1 17z"/><path fill="#a4c2d0" d="M26.5 65.5l-15-40-5 31z"/><path fill="#a7c4d7" d="M73.5 19.5l5-2-3-7z"/><path fill="#7597ab" d="M-2.5 15.5l-12 13 32-13z"/><path fill="#7e7c7f" d="M42.5 15.5l-3-1 3 2z"/><path fill="#aec7d2" d="M14.5 52.5l2-29 9 19z"/><path fill="#73a5c1" d="M23.5-11.5l-30 26 33-10z"/><path fill="#bfd2dc" d="M69.5 32.5l5 3-2-13z"/><path fill="#aac4d3" d="M76.5 14.5l-92-28 62-2z"/><path fill="#31444a" d="M53.5 15.5v3l-1-3z"/><path fill="#d2e4eb" d="M60.5 27.5l-4-2-3 3z"/><path fill="#b9cad6" d="M53.5 26.5h-4l6-13z"/><path fill="#dae0e0" d="M31.5 15.5l13-6 5 4z"/><path fill="#081628" d="M18.5 23.5l-2 1 1-1z"/><path fill="#6a7b83" d="M9.5 30.5l1-3 10 1z"/><path fill="#0c0e14" d="M86.5 29.5l-1-1-1 1z"/><path fill="#afc3cc" d="M15.5 35.5l-5-12 2 27z"/><path fill="#dcdad9" d="M101.5 31.5l-21 5 4-7z"/><path fill="#55738b" d="M77.5 16.5l2-2 3 2z"/><path fill="#8fb4c9" d="M-15.5 19.5l31 45-1-20z"/><path fill="#8f8e91" d="M94.5 28.5h21v7z"/><path fill="#b2c6cc" d="M22.5 33.5l-8-8 7 16z"/><path fill="#2f3639" d="M97.5 19.5v2l-1 1z"/><path fill="#a3bdcf" d="M91.5 21.5l-8 7-4-19z"/><path fill="#d3dcdf" d="M42.5 11.5l-1 16 5-7z"/><path fill="#556f82" d="M78.5 24.5l-8-1 1 2z"/><path fill="#a8b8c1" d="M37.5 37.5l-5-4h15z"/><path fill="#b4c4cf" d="M18.5 15.5l4 5-3 9z"/><path fill="#4a5e6a" d="M62.5 27.5h3v3z"/><path fill="#bbcedb" d="M53.5 34.5l11-3-2-6z"/><path fill="#e2e8eb" d="M30.5 32.5l4-9 2 2z"/><path fill="#adc5d1" d="M7.5 29.5l5-8h-4z"/><path fill="#5d7685" d="M16.5 12.5l-1 5-2 1z"/><path fill="#9fbdd2" d="M36.5 8.5l-17 7-13-4z"/><path fill="#a9c5d5" d="M61.5 22.5l14-3 5 4z"/><path fill="#a1bbc8" d="M95.5 9.5l15-1-19 13z"/><path fill="#d8dfe2" d="M27.5 23.5l-7-2 15-1z"/><path fill="#c9cdd0" d="M95.5 34.5l5-18 15 25z"/><path fill="#627c8e" d="M69.5 17.5l-2-3 1-1z"/><path fill="#677376" d="M38.5 25.5l2-1v-2z"/><path fill="#93b8ce" d="M48.5 15.5l39-2-7-9z"/><path fill="#cad7de" d="M18.5 65.5l28-30-20 1z"/><path fill="#435158" d="M53.5 25.5l1-1v2z"/><path fill="#dadfe1" d="M27.5 21.5l-6 6 4 1z"/><path fill="#d7dcde" d="M46.5 46.5l7-21-17 24z"/><path fill="#415d74" d="M61.5 17.5l-1-2-2 1z"/><path fill="#596d7a" d="M5.5 27.5h7l-6 3z"/><path fill="#b8c9cf" d="M12.5 27.5l1 11-3-8z"/><path fill="#5b6a71" d="M74.5 28.5v2l-3-3z"/><path fill="#bbd0db" d="M74.5 26.5l2-3-1 8z"/><path fill="#abc4cf" d="M12.5 45.5l-5-17 13 19z"/><path fill="#a0acae" d="M21.5 15.5l16 4-19 1z"/><path fill="#bbced6" d="M67.5 42.5h6l-1-20z"/><path fill="#768690" d="M79.5 24.5l1 7 1-6z"/><path fill="#b9cad1" d="M91.5 25.5l-18 3 10-5z"/><path fill="#b0afb2" d="M77.5 35.5h12l-7-2z"/><path fill="#eae4e2" d="M80.5 52.5l20-17h-13z"/><path fill="#c3d0d4" d="M28.5 13.5l15 13-11-3z"/><path fill="#a8babe" d="M10.5 33.5h21l-12 5z"/><path fill="#bbced5" d="M24.5 35.5v6l-17-5z"/><path fill="#99b5c5" d="M17.5 21.5l-5-5-10 1z"/></g></svg>