<svg xmlns="http://www.w3.org/2000/svg" viewBox="0 0 400 200"><path fill="#acc0ca" d="M0 0h400v200H0z"/><g stroke-opacity=".5" fill="none" stroke-width=".8"><path stroke="#546b76" d="M424.2 82.6q-369.1-.8-448.4 2.7"/><path stroke="#3d5a62" d="M-20.4 68.6q329.8-3.8 423.6.6"/><path stroke="#fffff7" d="M397.5 198.9q-250.5.9-324.8 0"/><path stroke="#06262a" d="M86.1 119.6q-44.8-3.5-95.4-2.4"/><path stroke="#fffff5" d="M390.1 123.4q-8.5 100.8-297.8 62.3"/><path stroke="#fffff4" d="M90.7 179.6q281.7 44.6 296.4-55.3"/><path stroke="#4f6b73" d="M373.7 66.3q-350-.4-387.2 5.3"/><path stroke="#fffef4" d="M94.9 146.8q38 56.8 329.3 48.4"/><path stroke="#445d60" d="M-7.4 100.2l124.4.6"/><path stroke="#fffef4" d="M111.2 151.4q100.7 72.8 300 3"/><path stroke="#fffff5" d="M91.4 187.9q261.1 32.7 298-41.2"/><path stroke="#fffcf3" d="M406.9 149.4q-204.4 74.8-300.2-5.1"/><path stroke="#515c5b" d="M-9.5 116.7q82.5 1.1 224 1.7"/><path stroke="#fffaf1" d="M388.2 132.8q-47.7 91.4-302 39.6"/><path stroke="#fff8f0" d="M59 188.2q332.9 36 340.4-44"/><path stroke="#fff7ef" d="M175.9 44.3Q156.3 219.9 424.2 189"/><path stroke="#425050" d="M242.2 116.9q50 4.2 133.2 1.2"/><path stroke="#24627e" d="M-6.3-24.2q39.1 105.4 31 151.8"/><path stroke="#fff9f0" d="M111.4 139.4q83.7 84.8 312.8 2.5"/><path stroke="#fef4ed" d="M108 144.9q151.2 79.3 303.8-19.3"/><path stroke="#fff9f1" d="M395 152.8q-45 71.4-310 27.1"/><path stroke="#3b85aa" d="M104-.1Q-16.3-11.5 8.2 89.6"/><path stroke="#143a44" d="M290 59.3q6.3 7.6 5.6 72"/><path stroke="#fcf4ee" d="M179.6 9.9q-49 214.3 237.6 186.9"/><path stroke="#fff6ed" d="M108.5 178.9q284.6 35.3 280.4-77"/></g></svg>