<svg xmlns="http://www.w3.org/2000/svg" viewBox="0 0 400 200"><path fill="#acc0ca" d="M0 0h400v200H0z"/><g transform="translate(.8 .8) scale(1.5625)" fill-opacity=".5"><ellipse fill="#f7f2ec" cx="201" cy="116" rx="149" ry="38"/><ellipse fill="#6294ad" rx="1" ry="1" transform="matrix(33.116 20.55694 -52.42242 84.44936 18.9 35)"/><ellipse fill="#77a2bd" rx="1" ry="1" transform="rotate(162.6 96.6 29.4) scale(65.60684 37.65498)"/><ellipse fill="#cdd2d3" rx="1" ry="1" transform="rotate(39.9 -23.4 159.1) scale(22.53929 65.25649)"/><ellipse fill="#9eb3bc" cx="177" cy="68" rx="45" ry="29"/><ellipse fill="#637170" cx="73" cy="74" rx="74" ry="2"/><path d="M231 40h4v7h-4z"/><ellipse fill="#408cb2" rx="1" ry="1" transform="rotate(-95.3 3.1 -2.9) scale(24.72519 19.51638)"/><ellipse fill="#4e5d60" cx="111" cy="63" rx="157" ry="1"/><path fill="#f5efea" d="M105 123l116-20 40 40z"/><path fill="#707d82" d="M0 88h177v2H0z"/><ellipse fill="#677c7e" cx="110" cy="42" rx="108" ry="2"/><path fill="#394343" d="M136 75h119v1H136z"/><path fill="#d8dddf" d="M112 69h46v19h-46z"/><path fill="#d4d1cf" d="M225.4 52.7l42.8 3.8-3.6 40.8-42.8-3.8z"/><path fill="#000f0a" d="M249 58v-8l-5-4z"/><path fill="#9abac9" d="M0 79h32v49H0z"/><path fill="#052224" d="M167.8 83h-3l-.6-10h3z"/><ellipse fill="#27474a" cx="187" cy="71" rx="2" ry="11"/><path fill="#d2d7da" d="M87 21h31v53H87z"/><ellipse fill="#d5dde1" cx="181" cy="84" rx="115" ry="5"/><path fill="#515858" d="M184.5 90.5v-1h89v1z"/><path fill="#4a5d5b" d="M70 41h3v41h-3z"/><path fill="#5b7273" d="M141.5 64l-2.9 12.4-4-35.6-3 8z"/><path fill="#01140c" d="M30.2 69.3l.2-1 7-6.6-5.4.1z"/></g></svg>