<svg xmlns="http://www.w3.org/2000/svg" viewBox="0 0 400 200"><path fill="#acc0ca" d="M0 0h400v200H0z"/><g fill-opacity=".5"><path fill="#fcf4ed" d="M424.2 108.6l-43.7 115.6-336-43.7z"/><path fill="#6596af" d="M150.8-19.5L-24.2.8 7 194.5z"/><path fill="#739fbb" d="M233.6-24.2L424.2 3.9 297.7 147.7z"/><path fill="#d6d9da" d="M236.7 224.2h-164L174.2-24.2z"/><path fill="#95acb7" d="M230.5 36.7L168 118l231.2 1.5z"/><path fill="#000500" d="M360.2 55.5l7.8 9.3-3.2 7.9z"/><path fill="#3f8bb1" d="M60.2-24.2l-84.4 36L21 41.3z"/><path fill="#c2d0d5" d="M180.5 118l111 59.3 28-56.2z"/><path d="M385.2 75.8l4.6 3.1v11z"/><path fill="#000406" d="M146 110.2l-1.5 15.6-3-6.3z"/><path fill="#f3eee8" d="M363.3 222.7l7.8-70.4L114.8 207z"/><path fill="#7a8d8f" d="M93 93L5.5 116.4l76.5 6.3z"/><path fill="#213a36" d="M289.8 121l7.9 4.8L296 96z"/><path fill="#a5c1cc" d="M-24.2 210.2l134.4-25-47-93.8z"/><path fill="#cbd0d4" d="M424.2 114.8L369.5 82l-86 29.7z"/><path d="M50.8 96l-6.3 11L57 94.5zm123.4 29.8v-14h-4.7z"/><path fill="#000500" d="M208.6 63.3l1.6 7.8 6.2-4.7z"/><path d="M258.6 119.5l3.1 6.3v-12.5zm90.6-6.2l-7.8 6.2 1.6-9.3z"/><path fill="#001715" d="M183.6 61.7l6.2 1.6-4.6 11z"/><path fill="#182e2b" d="M111.7 75.8l3.1-12.5-6.2-4.7z"/><path d="M321 111.7v14l-3-4.6z"/><path fill="#233c34" d="M135.2 74.2l-9.4-11h9.4z"/><path d="M158.6 99.2h7.8l-6.2-6.2z"/></g></svg>