<svg xmlns="http://www.w3.org/2000/svg" viewBox="0 0 16 8"><path fill="#adc0c9" d="M0 0h16v8H0z"/><g fill-opacity=".5"><path fill="#fcf1e6" d="M4.5 5.5l27-2-44 20z"/><path fill="#6594ac" d="M1.5 5.5l5-11-19 1z"/><path fill="#7ba1bc" d="M10.5 5.5l10-7-9-14z"/><path fill="#c2cfd1" d="M-9.5 23.5l14-11 6-16z"/><path fill="#f3f1ef" d="M13.5 6.5l18 14-47-9z"/><path fill="#9cb5c0" d="M-6.5 15.5l9-6 2-9z"/><path fill="#5f94ae" d="M4.5-2.5l-5-9-8 20z"/><path fill="#84a9c2" d="M6.5 2.5l16-2 9-10z"/><path fill="#bfbeb9" d="M3.5 3.5h12l-7 2z"/><path fill="#9ec9e4" d="M11.5 1.5l-23-10 17 2z"/><path fill="#d1d7d9" d="M8.5 4.5l7 2v-2z"/><path fill="#9fa8ad" d="M12.5 4.5h-3v-1z"/><path fill="#87a1ac" d="M3.5 4.5h-8l-1-4z"/><path fill="#96b8cc" d="M1.5 5.5l-11-1 15 9z"/><path fill="#bed3dd" d="M14.5-15.5l-8 19v-11z"/><path fill="#b6c5ce" d="M14.5 3.5l6 3 11-6z"/><path fill="#82aecc" d="M11.5.5l-5-9 21 12z"/><path fill="#779cb4" d="M15.5.5l14-4-24-11z"/><path fill="#a2b5bf" d="M9.5 1.5h2l-3 2z"/><path fill="#5c8ba3" d="M-13.5-3.5l26-12-21 25z"/><path fill="#d7cdc3" d="M15.5 6.5l11 1-2 10z"/><path fill="#cfd3ce" d="M7.5 4.5h-2l-2 6z"/><path fill="#b2cedd" d="M5.5 1.5l26-17h-16z"/><path fill="#b6d0dd" d="M3.5 6.5l4 7-4 5z"/><path fill="#98a9b1" d="M13.5 2.5h12l6-5z"/><path fill="#dadfde" d="M8.5 12.5l6 6-6-13z"/><path fill="#7fa9be" d="M2.5.5l-18 22 4-17z"/><path fill="#93bbd5" d="M12.5.5l-1 1-1-1z"/><path fill="#e8e6e1" d="M14.5 5.5v16l-10 2z"/><path fill="#85a0ae" d="M4.5.5l4-13-24-3z"/><path fill="#98b3c0" d="M15.5-15.5l-13 18 14-11z"/><path fill="#809dac" d="M3.5 4.5l-11-7 3 5z"/><path fill="#a1bbc6" d="M3.5 4.5l-19 11 5-8z"/><path fill="#afc5ce" d="M8.5.5l-22-16 16 1z"/><path fill="#96b4c6" d="M1.5 6.5l-7-1-10 8z"/><path fill="#f0f2f1" d="M13.5 7.5l-7 8 9-3z"/><path fill="#96bad0" d="M9.5 1.5l4-7-2-5z"/><path fill="#abbdc7" d="M31.5-5.5v-10l-20 21z"/><path fill="#8da9b9" d="M14.5 2.5l12-13-2 9z"/><path fill="#c3c1be" d="M14.5 3.5l6 3 11-3z"/><path fill="#a6c3d4" d="M12.5 3.5l14-2 1-5z"/><path fill="#83abc5" d="M30.5-14.5l-17 15-17-7z"/><path fill="#e4ded7" d="M14.5 7.5l-1 13 5-9z"/><path fill="#cbd1cf" d="M5.5 5.5l-4 18 7-10z"/><path fill="#b4d1e1" d="M6.5 1.5l10-15 9 1z"/><path fill="#b1c1c8" d="M5.5 23.5l-3-17 9 13z"/><path fill="#c4d1d4" d="M7.5 2.5h-3v1z"/><path fill="#dddbd4" d="M7.5 6.5l-1 10-11 3z"/><path fill="#d0d9dd" d="M12.5 5.5l19-2-9-4z"/><path fill="#9ab1b9" d="M3.5 4.5l-1-1v-2z"/><path fill="#a7bdca" d="M8.5 2.5h2l-1 1z"/><path fill="#a5c9e0" d="M8.5 1.5v-12l5-5z"/><path fill="#b9bdb8" d="M8.5 4.5l-3-1h3z"/><path fill="#b1c6d1" d="M7.5.5l3-8-3-8z"/><path fill="#92a6b1" d="M4.5.5l2-16 10 3z"/><path fill="#7cadc7" d="M1.5 1.5l-17-5 3 5z"/><path fill="#74a1b8" d="M1.5.5l-16 6 1 7z"/><path fill="#bbcfd7" d="M3.5 5.5l5 12-4 2z"/><path fill="#8cb2cc" d="M14.5.5l8 3 1-3z"/><path fill="#cbd1cf" d="M4.5 5.5l1 1-2 4z"/><path fill="#d2d8d6" d="M5.5 7.5l-12 11 14-3z"/><path fill="#dddedb" d="M9.5 6.5l-1 10-9 7z"/><path fill="#99afbb" d="M8.5 2.5l3-1h-2z"/><path fill="#d2d8d6" d="M4.5 7.5l13 5h-24z"/><path fill="#adc0c6" d="M2.5 5.5v3l3 3z"/><path fill="#e2dbd3" d="M14.5 6.5l17 1-8 2z"/><path fill="#eaebe8" d="M12.5 7.5l5 5-6 5z"/><path fill="#80a3b5" d="M2.5.5l29-16h-15z"/><path fill="#99b2bd" d="M2.5 1.5v1h2z"/><path fill="#d2dbdf" d="M13.5 4.5l18 6-3-6z"/><path fill="#d0d4d5" d="M15.5 5.5l7-21 7 17z"/><path fill="#a5becb" d="M4.5.5l8-5v-4z"/><path fill="#b6c4c9" d="M10.5 4.5l-1 1 2-1z"/><path fill="#84b2ca" d="M1.5 1.5l-17 8 6-7z"/><path fill="#8fa8b8" d="M13.5 1.5h-2l3 1z"/><path fill="#7ba1ba" d="M8.5-7.5l23-8-15 16z"/><path fill="#9cadb6" d="M12.5 4.5l-1-2 1 1z"/><path fill="#8eb4cd" d="M11.5.5l-5-12-11-4z"/><path fill="#83a8bb" d="M-11.5 10.5l13-8-14 4z"/><path fill="#dee3e6" d="M11.5 7.5l10 15-31-3z"/><path fill="#8bb0c3" d="M-9.5 4.5l11-1-17 7z"/><path fill="#cad0ce" d="M6.5 23.5l-2-18 6 14z"/><path fill="#d1d7d5" d="M-2.5 18.5l7-11 4 7z"/><path fill="#d1d4d0" d="M6.5 6.5l-2 15-20 2z"/><path fill="#a2c2d4" d="M9.5 1.5v-5l4-5z"/><path fill="#e8e9e2" d="M7.5 7.5l3 11-21 4z"/><path fill="#81a9c5" d="M14.5.5l-9-13h7z"/><path fill="#e0e5e8" d="M10.5 7.5l-15 16h-11z"/><path fill="#88a6b5" d="M-5.5 3.5l4 1 4-2z"/><path fill="#829eab" d="M-.5 3.5l-4-19-7 39z"/><path fill="#98a5a7" d="M2.5 4.5l-18 1v5z"/><path fill="#82a9bc" d="M.5 3.5l-7-19v13z"/><path fill="#88aec6" d="M14.5 1.5l9-8h8z"/><path fill="#87abc3" d="M11.5.5l7-16-7 4z"/><path fill="#b9c0c3" d="M15.5 4.5l12-6-6-8z"/><path fill="#c9cfcd" d="M6.5 4.5h-2l1 2z"/><path fill="#dbdcd8" d="M6.5 7.5l24 12-9 4z"/><path fill="#9cb6c5" d="M10.5 2.5h1l-2 1z"/><path fill="#d9dee0" d="M14.5 5.5l17 3-2 4z"/><path fill="#afc7d3" d="M7.5.5l-4-8-8-4z"/></g></svg>