<svg xmlns="http://www.w3.org/2000/svg" viewBox="0 0 400 200"><path fill="#acc0ca" d="M0 0h400v200H0z"/><g transform="translate(.8 .8) scale(1.5625)" fill-opacity=".5"><ellipse fill="#f1ece7" cx="171" cy="127" rx="63" ry="63"/><ellipse fill="#5f92ac" cy="16" rx="68" ry="68"/><ellipse fill="#7da4bc" cx="197" cy="20" rx="62" ry="62"/><ellipse fill="#f2ece5" cx="231" cy="123" rx="48" ry="48"/><ellipse fill="#e4e6e5" cx="107" cy="127" rx="52" ry="52"/><ellipse fill="#97b2bf" cx="171" cy="56" rx="41" ry="41"/><ellipse fill="#c7d4db" cx="121" cy="8" rx="34" ry="34"/><ellipse fill="#c7cac9" cx="87" cy="58" rx="33" ry="33"/><ellipse fill="#dbd6d3" cx="233" cy="61" rx="14" ry="14"/><ellipse fill="#3f8cb2" cx="6" cy="6" rx="18" ry="18"/><ellipse fill="#000201" cx="51" cy="74" rx="3" ry="3"/><ellipse fill="#00120b" cx="134" cy="42" rx="3" ry="3"/><ellipse fill="#8ab0c3" cy="109" rx="32" ry="32"/><ellipse fill="#081f1a" cx="233" cy="42" rx="4" ry="4"/><ellipse fill="#00191a" cx="110" cy="76" rx="3" ry="3"/><ellipse fill="#a7bac2" cx="64" cy="44" rx="24" ry="24"/><ellipse fill="#000300" cx="248" cy="52" rx="3" ry="3"/><ellipse fill="#000d0d" cx="166" cy="75" rx="3" ry="3"/><ellipse fill="#294547" cx="92" cy="75" rx="4" ry="4"/><ellipse fill="#75a4c3" cx="227" rx="31" ry="31"/><ellipse fill="#001715" cx="36" cy="75" rx="3" ry="3"/><ellipse fill="#000500" cx="219" cy="73" rx="3" ry="3"/><ellipse fill="#00170c" cx="188" cy="76" rx="3" ry="3"/><ellipse fill="#032627" cx="152" cy="42" rx="3" ry="3"/><ellipse cx="85" cy="42" rx="2" ry="2"/></g></svg>