<svg xmlns="http://www.w3.org/2000/svg" viewBox="0 0 50 25"><path fill="#adc0cb" d="M0 0h50v25H0z"/><g fill-opacity=".5"><path fill="#f8f3ee" d="M22.5 40.5l43-27-56 5z"/><path fill="#6695af" d="M-3.5 31.5l-12-46 31 15z"/><path fill="#78a2bd" d="M28.5-15.5l5 33 32-23z"/><path fill="#ced4d8" d="M26.5 19.5l-3-24-22 45z"/><path fill="#f0ece8" d="M48.5 19.5l-15 16-13-13z"/><path fill="#468aab" d="M3.5 4.5h-19l24-12z"/><path fill="#a9c0cc" d="M13.5 16.5l-23-2 17 26z"/><path fill="#acb9c2" d="M51.5 9.5l-32-2 16 13z"/><path fill="#85acc5" d="M53.5-15.5l-29 25 41-6z"/><path fill="#d0d7da" d="M8.5 14.5l24 8 23-6z"/><path fill="#8c99a4" d="M11.5 15.5l-13-3 12-2z"/><path fill="#cfd2d3" d="M43.5 10.5l5 14 17-8z"/><path fill="#8c9499" d="M46.5 7.5l-1 3h6z"/><path fill="#bcc5c9" d="M33.5 17.5l-24-9 6 9z"/><path fill="#889ba6" d="M32.5 10.5l11 4h-7z"/><path fill="#adc5d7" d="M26.5 6.5h18l-31-10z"/><path fill="#c7d3db" d="M44.5-15.5l-29 31 12-24z"/><path fill="#9eb5c5" d="M14.5 7.5l6-11-21 18z"/><path fill="#e5e2de" d="M37.5 32.5l11-14-7-4z"/><path fill="#74a3bd" d="M33.5-.5l21 4 9-10z"/><path fill="#91a5b4" d="M33.5 7.5l-2 3-8-3z"/><path fill="#919ea4" d="M12.5 6.5l-2 2h7z"/><path fill="#bbd4e4" d="M33.5 20.5v-5l2-2z"/><path fill="#828c95" d="M26.5 13.5l1-2 1 3z"/><path fill="#cbd7de" d="M.5 40.5l13-21 17-6z"/><path fill="#7692a4" d="M-5.5-4.5l-2 9 13 10z"/><path fill="#95b2c3" d="M.5 9.5l15 31-31-25z"/><path fill="#74a7c5" d="M-.5 6.5l18-22 8 10z"/><path fill="#a7c2d1" d="M8.5 4.5l-5 3 12-1z"/><path fill="#a4c0d3" d="M34.5 11.5l-13-19 5-8z"/><path fill="#9aa6ad" d="M21.5 13.5h-5l3 2z"/><path fill="#d5dbdd" d="M23.5 18.5h-2l-2-5z"/><path fill="#ccd8dd" d="M15.5 7.5l2 6-2 6z"/><path fill="#c1c7ce" d="M46.5 9.5l12 7-18-4z"/><path fill="#bad0dd" d="M40.5 12.5l-1 1-3-1z"/><path fill="#c2d0d4" d="M65.5 6.5l-14-10-4 37z"/><path fill="#dde3e5" d="M22.5 11.5l24 29h-13z"/><path fill="#7f9eae" d="M7.5 7.5l-12-2-11 8z"/><path fill="#b8c0c3" d="M20.5 11.5l-8 1v-4z"/><path fill="#d0d4d7" d="M24.5 8.5l-7 1 1 3z"/><path fill="#839cac" d="M40.5 12.5h-4v-6z"/><path fill="#828380" d="M48.5 9.5l17 3-3-10z"/><path fill="#a3bdce" d="M30.5 7.5l2 4 9-1z"/><path fill="#b4bec5" d="M34.5 16.5h10l-7 2z"/><path fill="#b5c4cb" d="M65.5 36.5l-17-30 17-7z"/><path fill="#e6e5e2" d="M38.5 27.5v-13l5 16z"/><path fill="#b7c7d0" d="M3.5 15.5l9 1-1 8z"/><path fill="#8c979c" d="M21.5 13.5h-4l2 1z"/><path fill="#c9d4db" d="M21.5 12.5l-10 18 6 10z"/><path fill="#cedbe2" d="M25.5 3.5l-8 2 6 1z"/><path fill="#8cadc5" d="M40.5-12.5l-2 16-10 5z"/><path fill="#9ba3a8" d="M23.5 7.5l2 5-2-1z"/><path fill="#c2cacf" d="M14.5 10.5l11-1-5 3z"/><path fill="#b2c4d1" d="M9.5-15.5l13 9 7 16z"/><path fill="#afc5d5" d="M4.5 12.5v-3l2 4z"/><path fill="#bec5c9" d="M18.5 16.5h6l-6 3z"/><path fill="#8eb6d7" d="M15.5 3.5l1-14-8-5z"/><path fill="#657981" d="M8.5 7.5l-1 2v-2z"/><path fill="#8a8b8f" d="M47.5 14.5l18 9-4-7z"/><path fill="#dadad8" d="M49.5 11.5l16 1-5 28z"/><path fill="#beccd4" d="M8.5 13.5l4 11 1-4z"/><path fill="#d1dde1" d="M13.5 12.5l-3 2 4-5z"/><path fill="#f5efe8" d="M34.5 22.5l-12 18 43-12z"/><path fill="#bdbdbc" d="M46.5 16.5h19l-3 5z"/><path fill="#8ba8ba" d="M6.5 9.5l-15-11-7 24z"/><path fill="#afb6b9" d="M22.5 9.5l-3 3v-3z"/><path fill="#e0e9ed" d="M15.5 13.5h5l-2-1z"/><path fill="#839cad" d="M33.5 8.5v-2l7 1z"/><path fill="#a6bbc4" d="M10.5 7.5l-5 3 2 1z"/><path fill="#a0bbcd" d="M36.5 11.5l4-1-3-5z"/><path fill="#cfd7db" d="M21.5 4.5l2 5-1 4z"/><path fill="#6e818f" d="M7.5 11.5v1l-2-1z"/><path fill="#acbec9" d="M9.5 11.5l-1 2h-3z"/><path fill="#b9c9d3" d="M12.5 7.5l27-13-12-1z"/><path fill="#9bb2c3" d="M42.5 12.5l-2-6 3 3z"/><path fill="#dde2e4" d="M25.5 17.5l-2 11-2-11z"/><path fill="#acbac2" d="M14.5 17.5h4l3-2z"/><path fill="#b1c7d7" d="M38.5 17.5l-7-2 1 4z"/><path fill="#9ba8aa" d="M14.5 12.5v-2l-1 2z"/><path fill="#84a1b1" d="M.5 9.5l12 3-12-7z"/><path fill="#ccd7df" d="M16.5 13.5l-4 11 12 6z"/><path fill="#a2b9c7" d="M45.5 8.5l15-4 5-11z"/><path fill="#96b7cd" d="M27.5 6.5h22l-13-4z"/><path fill="#757875" d="M48.5 10.5l1 1-1-2z"/><path fill="#cdd0d4" d="M45.5 12.5l20-7-10 10z"/><path fill="#c5cdd1" d="M14.5 10.5l4-2 1 4z"/><path fill="#c4cdd2" d="M25.5 10.5l-2 4 3 3z"/><path fill="#98b5c6" d="M5.5 9.5l-3 2 1-6z"/><path fill="#a6bbc6" d="M-15.5 37.5l18-6 14-19z"/><path fill="#d0d9de" d="M11.5 14.5l1-1v3z"/><path fill="#708796" d="M45.5 6.5v2l2-2z"/><path fill="#aac2d2" d="M47.5 7.5l1-2-3 3z"/><path fill="#dce4e6" d="M12.5 13.5l2-1h-3z"/><path fill="#d6dcdf" d="M16.5 11.5l4-2-1-1z"/><path fill="#d0e1ee" d="M34.5 15.5l3 1 3-1z"/><path fill="#9db8c8" d="M2.5 40.5l3-25-9 16z"/><path fill="#6d7b83" d="M9.5 14.5v-1h2z"/><path fill="#c8d4dc" d="M19.5 33.5l10 3-18-23z"/><path fill="#aebec7" d="M27.5 17.5h6l-2-2z"/><path fill="#c4d3dd" d="M12.5 17.5h-6l3 2z"/></g></svg>