<svg xmlns="http://www.w3.org/2000/svg" viewBox="0 0 400 200"><path fill="#acc0ca" d="M0 0h400v200H0z"/><g transform="translate(.8 .8) scale(1.5625)" fill-opacity=".5"><ellipse fill="#f7f1eb" cx="196" cy="112" rx="143" ry="34"/><ellipse fill="#6294ad" rx="1" ry="1" transform="matrix(57.39445 -92.60399 38.27131 23.71994 12.5 33.4)"/><ellipse fill="#82a6bc" rx="1" ry="1" transform="matrix(-77.46994 64.0887 -32.65393 -39.47182 214.5 18.6)"/><path fill="#ccd2d4" d="M113-16l31 104-101 55z"/><ellipse fill="#428db2" rx="1" ry="1" transform="matrix(7.28554 -22.96693 14.3297 4.54565 11.3 2.7)"/><ellipse fill="#f2ede9" cx="175" cy="122" rx="68" ry="15"/><ellipse fill="#d7d5d5" rx="1" ry="1" transform="matrix(-24.28364 -4.56435 1.7028 -9.0594 234.3 63.1)"/><ellipse fill="#3f4d4c" cx="38" cy="74" rx="100" ry="1"/><path fill="#74a3c1" d="M233.8 47.1L168.3 1.2 202.2-47l65.5 45.9z"/><ellipse fill="#4a5350" cx="180" cy="75" rx="166" ry="1"/><ellipse fill="#697f82" cx="103" cy="42" rx="152" ry="2"/><ellipse fill="#4c5c5e" cx="96" cy="63" rx="162" ry="1"/><ellipse fill="#d3d9da" cx="173" cy="82" rx="170" ry="6"/><ellipse fill="#4a4f4f" cx="240" cy="90" rx="53" ry="1"/><path fill="#21342f" d="M229.8 40.6l6.8-3.8-1-.4-1 12.8z"/><path fill="#001916" d="M51 72h4v8h-4z"/><path fill="#0f211a" d="M138 60h3v10h-3z"/><path fill="#737d80" d="M155.5 87v1l-85 3v-1z"/><ellipse fill="#001619" cx="91" cy="76" rx="2" ry="5"/><ellipse cx="122" cy="64" rx="2" ry="4"/><ellipse fill="#00170f" cx="188" cy="75" rx="3" ry="3"/><ellipse fill="#001210" rx="1" ry="1" transform="rotate(81.4 38.6 134.7) scale(5.14205 1)"/><ellipse fill="#556267" cx="157" cy="52" rx="158" ry="1"/><path fill="#c4d4dc" d="M142 53h18v28h-18z"/><path fill="#c7d3d8" d="M57 26h12v62H57z"/></g></svg>