<svg xmlns="http://www.w3.org/2000/svg" viewBox="0 0 400 200"><path fill="#acc0ca" d="M0 0h400v200H0z"/><g fill-opacity=".5"><path fill="#f5f0ea" d="M94.5 124.2h306.3v76.6H94.5z"/><path fill="#5f90a8" d="M.8.8h89v126.5H.8z"/><path fill="#709ebc" d="M236.7.8h164v82.8h-164z"/><path fill="#92abb6" d="M207 60.2h115.7V143H207z"/><path fill="#dcdcdc" d="M136.7 24.2h48.5v89h-48.5z"/><path fill="#649ebf" d="M.8.8h125v37.5H.8z"/><path fill="#6e7b81" d="M44.5 138.3h228.2v3.1H44.5z"/><path fill="#f2eee9" d="M172.7 169.5H371v31.3H172.7z"/><path fill="#626a69" d="M49.2 116.4h226.6v3.1H49.2z"/><path fill="#283433" d="M255.5 118h125v1.5h-125z"/><path d="M361.7 60.2h4.7v15.6h-4.7z"/><path fill="#687d7f" d="M132 64.8h122v4.7H132z"/><path fill="#34433d" d="M110.2 64.8h3v61h-3z"/><path fill="#c7d7e1" d="M32 83.6h276.6v11H32z"/><path fill="#1e2f24" d="M385.2 75.8h7.8v15.6h-7.8z"/><path fill="#2d4a4f" d="M291.4 93h6.3v32.8h-6.3z"/><path fill="#dde1e2" d="M50.8 105.5h154.7v7.8H50.8z"/><path fill="#dae1e6" d="M179 119.5h79.6v20.3h-79.7z"/><path fill="#0f2521" d="M188.3 94.5h6.2v14h-6.2z"/><path fill="#86aec1" d="M.8 125.8h39v75H.8z"/><path fill="#011618" d="M141.4 114.8h4.7V129h-4.7z"/><path fill="#506067" d="M182 99.2h218.8v1.6H182z"/><path d="M158.6 91.4h4.7v7.8h-4.7z"/><path fill="#40423c" d="M339.8 141.4h61v1.6h-61z"/><path d="M171 116.4h4.8v9.4H171z"/></g></svg>