<svg xmlns="http://www.w3.org/2000/svg" viewBox="0 0 400 200"><path fill="#acc0ca" d="M0 0h400v200H0z"/><g fill-opacity=".5"><path fill="#fcf4ed" d="M424.2 108.6l-48.4 115.6L46 179z"/><path fill="#6496af" d="M143-13.3L-21-21 5.4 200.8z"/><path fill="#729fbb" d="M304 144.5L424.1 4 227.3-24.2z"/><path fill="#d5d9da" d="M224.2 218l-36-242.2-117 229.7z"/><path fill="#96acb7" d="M171 119.5l229.8-1.5-173.5-81.3z"/><path d="M389.8 75.8l-4.6 3.1 4.6 7.8z"/><path fill="#408bb1" d="M-24.2 11.7l75-36-26.6 68.8z"/><path d="M368 60.2l-3.2 15.6-4.6-15.6z"/><path fill="#c2d0d5" d="M.8 121l378.1 4.8-300 76.5z"/><path fill="#7f9294" d="M-7 118l87.5 9.3L93 93z"/><path d="M143 113.3l4.7 1.5-6.3 11z"/><path fill="#f4efe9" d="M372.7 157l-220.4 40.7 209.4 21.8z"/><path fill="#96b8c7" d="M5.5 224.2l84.3-46.9-98.4-81.2z"/><path fill="#ccd1d6" d="M368 119.5l-75-36 120.3 4.8z"/><path fill="#00110c" d="M108.6 61.7l1.6 11 6.2-11z"/><path fill="#032022" d="M261.7 110.2l1.6 17.1-7.8-10.9z"/><path fill="#74929c" d="M246 61.7l-82.7 3.1L235.2 82z"/><path d="M339.8 111.7l7.9 1.6-1.6 6.2z"/><path fill="#091b17" d="M58.6 96h-7.8L43 108.7z"/><path d="M291.4 113.3l4.7 15.6v-15.6zm-117.2 10.9v-11l-3.1 1.6z"/><path fill="#3a4940" d="M219.5 96l-14 25 15.6-12.4z"/><path fill="#5b6962" d="M116.4 105.5l-7.8-18.8 3.1 39z"/><path fill="#cbd0d1" d="M233.6 110.2L96 72.7l-9.4 40.6z"/><path fill="#00100f" d="M186.7 100.8l4.7-3.1 4.7 7.8z"/></g></svg>