<svg xmlns="http://www.w3.org/2000/svg" viewBox="0 0 256 128"><path fill="#adc0cb" d="M0 0h256v128H0z"/><g fill-opacity=".5"><path fill="#fff7ef" d="M31.5 118.5l207-44 33 69z"/><path fill="#6696b1" d="M92.5-10.5l-87 136-21-125z"/><path fill="#73a0bd" d="M192.5 92.5l79-90-125-17z"/><path fill="#d6dadb" d="M110.5-4.5l-69 148 114-29z"/><path fill="#93aab8" d="M146.5 24.5l-39 51h125z"/><path fill="#418cb2" d="M-15.5 2.5l54-14-29 40z"/><path fill="#cdd4d8" d="M178.5 112.5l93-36-220 4z"/><path fill="#000a08" d="M249.5 57.5l-5-9 5-1z"/><path d="M91.5 79.5l-1-6h5z"/><path fill="#07191b" d="M232.5 45.5l-2-10 6 8z"/><path fill="#2f3b3c" d="M56.5 60.5l-6 11 3 7z"/><path fill="#f0ebe7" d="M218.5 137.5l-131-8 178-40z"/><path d="M112.5 74.5l-4-2 3 8z"/><path fill="#a4c0ce" d="M-15.5 135.5l89-19-55-41z"/><path fill="#071216" d="M122.5 39.5l-4 1-1 5z"/><path fill="#00161c" d="M164.5 71.5l1 8 4-4z"/><path fill="#465656" d="M24.5 69.5l1 10-14-5z"/><path fill="#090f0b" d="M191.5 81.5l-7-6 5-2z"/><path fill="#031a28" d="M187.5 46.5l-3-6 5-2z"/><path d="M35.5 60.5l-8 6 6-2zm99-14l2-7h-4z"/><path fill="#e0e6e6" d="M60.5 73.5l-23-7 43 1z"/><path d="M73.5 40.5l-2 6-2-7zm145 30l6 5h-6z"/><path fill="#c9ced2" d="M182.5 52.5l89 41-31-40z"/><path d="M83.5 43.5l3-4-1 7z"/><path fill="#4a544f" d="M70.5 73.5l5 2-4-19z"/><path d="M45.5 66.5l-2-4 2-3z"/><path fill="#000d19" d="M150.5 40.5l4-1-2 7z"/><path fill="#bfd0d9" d="M136.5 40.5l25-50-132 47z"/><path fill="#161c1a" d="M205.5 82.5l-3-11h4z"/><path fill="#a0b4be" d="M224.5 89.5l-41 10-39-12z"/><path d="M242.5 71.5l2 4h-4z"/><path fill="#586465" d="M128.5 79.5l12-9 1-11z"/><path fill="#d2d8dc" d="M217.5 109.5l-29-1 4-54z"/><path d="M102.5 42.5h3l2-4z"/><path fill="#5b737f" d="M203.5 59.5l-5 8-25-4z"/><path fill="#2f3d41" d="M40.5 73.5l-6-2v11z"/><path fill="#212b31" d="M120.5 63.5l2-6 2 12z"/><path fill="#dfe1e3" d="M96.5 141.5l57-1-26-84z"/><path fill="#2a3c41" d="M13.5 69.5l4-9-2 19z"/><path fill="#b3c5cf" d="M27.5 69.5l-15 2 23-25z"/><path fill="#0c1f26" d="M41.5 39.5l-7 11 3-11z"/><path fill="#485352" d="M89.5 59.5h-5l-1 9z"/><path fill="#d2d6d9" d="M83.5 44.5l-39 11 50 7z"/><path fill="#4d5055" d="M99.5 60.5l6-6-2 9z"/><path fill="#ced5db" d="M158.5 60.5l-56-18-44 16z"/><path fill="#000305" d="M205.5 42.5l-5-2 2-3z"/><path fill="#78a6c3" d="M149.5-4.5l120 42 2-37z"/><path fill="#c7d6dc" d="M88.5 89.5h-77l106 50z"/><path fill="#c3d4de" d="M134.5 66.5l36-3-22 24z"/><path fill="#98bbd2" d="M249.5 37.5l-97-36-5 38z"/><path fill="#ccd2d3" d="M233.5 112.5l28-93v124z"/><path fill="#97b7c8" d="M-15.5 132.5l54 11-17-72z"/><path fill="#1b2228" d="M57.5 48.5l-1-11-2 7z"/><path fill="#9aa8b0" d="M126.5 87.5h-51l26 7z"/><path fill="#c5d6df" d="M187.5 88.5l-2-30-8 14z"/><path fill="#96b7cc" d="M74.5 40.5l-66-2 89-46z"/><path fill="#dae0e4" d="M79.5 89.5h89l-29 35z"/><path fill="#101d1e" d="M70.5 79.5l1-9h3z"/><path fill="#dbe0e1" d="M92.5 84.5l-23-15 11-7z"/><path fill="#aec1cc" d="M55.5 88.5l-21-45 4 38z"/><path fill="#9eb5c5" d="M235.5 22.5l36 13-34 19z"/><path fill="#1f312d" d="M165.5 64.5h-5l1-5z"/><path fill="#283c33" d="M175.5 35.5v8l-2-5z"/><path fill="#e7ebed" d="M118.5 64.5l-24 6 30 3z"/><path fill="#c4d1d6" d="M10.5 86.5l39 1-19-10z"/><path fill="#00161e" d="M137.5 61.5h3v8z"/><path fill="#c6d8e1" d="M203.5 64.5l-6 9 23-4z"/><path fill="#172931" d="M53.5 81.5l1-4-4-5z"/><path fill="#9cb7c6" d="M9.5 143.5l-25-38 31-50z"/><path fill="#adc7d9" d="M181.5 43.5l-10 50-6-51z"/><path fill="#aebfc9" d="M63.5 55.5l-27 7 5-26z"/><path fill="#9ebbcf" d="M188.5 29.5l3 48 13-63z"/><path fill="#142329" d="M28.5 41.5l-2 2 2-6z"/><path fill="#97a0a5" d="M80.5 47.5l17 5h-33z"/><path fill="#76a6c2" d="M-3.5 29.5l48-45 35 33z"/><path fill="#9ca6ac" d="M102.5 50.5l17 5 17-5z"/><path fill="#2c4246" d="M91.5 77.5l-2-4 7-3z"/><path fill="#d9dde1" d="M83.5 69.5l22 5-10-24z"/><path fill="#2c3f45" d="M229.5 47.5h5v-11z"/><path d="M133.5 73.5l3 1v-4z"/><path fill="#aec3d4" d="M231.5 32.5l-2 18h-16z"/><path fill="#becdd4" d="M126.5 30.5l16 46-24-26z"/><path fill="#000003" d="M180.5 61.5l-4 6 7-6z"/><path fill="#32383d" d="M106.5 63.5l-7-1 3-3z"/><path fill="#c5d3db" d="M103.5 83.5l-3-23-10 24z"/><path fill="#b0cbde" d="M185.5 62.5l7-10-43 1z"/><path fill="#ced6db" d="M128.5 18.5l-75 20 78 1z"/><path fill="#000f1b" d="M188.5 67.5l-1-4 2-3z"/><path fill="#cbdadd" d="M37.5 86.5l26-11 13 12z"/><path fill="#a1bbc9" d="M75.5-7.5l18 22-41 43z"/><path fill="#d8ddde" d="M75.5 71.5l-20-19 7 19z"/><path fill="#c0d0da" d="M135.5 83.5l33-20-26 1z"/><path fill="#9bbdd5" d="M148.5 75.5l-11-55 15 4z"/><path fill="#a0a09e" d="M115.5 87.5l14 4 13-4z"/><path fill="#d3dce3" d="M102.5 52.5h37l-33 12z"/><path fill="#1a2f39" d="M195.5 61.5l4 1 3 7z"/><path fill="#c0cfda" d="M195.5 58.5l9 28-16-15z"/><path fill="#c9d8df" d="M176.5 113.5l-35-23 82 1z"/></g></svg>