<svg xmlns="http://www.w3.org/2000/svg" viewBox="0 0 200 100"><path fill="#adc0cb" d="M0 0h200v100H0z"/><g fill-opacity=".5"><path fill="#fcf5ee" d="M183.5 115.5l32-61-191 32z"/><path fill="#6596b0" d="M-15.5 2.5l95-18-76 110z"/><path fill="#709ebc" d="M215.5 5.5l-69 59-32-80z"/><path fill="#d6dada" d="M86.5-6.5l-54 122 85-17z"/><path fill="#9caeb7" d="M202.5 59.5l-103-35-29 34z"/><path fill="#438cb1" d="M29.5-9.5l-45 16 25 15z"/><path fill="#a6bcc6" d="M71.5-15.5l-87 131 65-25z"/><path fill="#647478" d="M31.5 46.5l11 16 2-16z"/><path fill="#283b46" d="M184.5 34.5l-6 6 3-12z"/><path d="M191.5 38.5l5 4-2-3z"/><path fill="#f2eee8" d="M172.5 115.5l19-39-112 21z"/><path fill="#bdc9d0" d="M98.5 58.5l101 12-67 11z"/><path fill="#65767b" d="M21.5 63.5l19-6-35-1z"/><path fill="#cad1d3" d="M92.5 56.5l23-54-76 53z"/><path d="M72.5 62.5l-2-4 3-1z"/><path fill="#c8d4da" d="M117.5 59.5l-52 47-56-43z"/><path fill="#555f5e" d="M54.5 46.5l4 4-3 13z"/><path fill="#081311" d="M66.5 35.5l2-5-4 3z"/><path fill="#d5d4d7" d="M161.5 41.5l19 17 35-11z"/><path fill="#83a2b2" d="M144.5 26.5l-13 15-50-9z"/><path fill="#001116" d="M96.5 51.5l-4-2 4-2z"/><path d="M84.5 57.5l3-1v4z"/><path fill="#020a0e" d="M56.5 36.5v-6l-2 1z"/><path d="M173.5 58.5l-4 1 4-4z"/><path fill="#0f2534" d="M135.5 61.5l-6-4-3 1z"/><path fill="#000514" d="M119.5 35.5l-1-3 3-3z"/><path fill="#5c7077" d="M160.5 50.5l-7-4 7 17z"/><path fill="#b0c2d2" d="M184.5 38.5l-37 25 24-31z"/><path d="M26.5 47.5l-4 4 6-2z"/><path fill="#99bdd3" d="M105.5 31.5l18-27 64 24z"/><path fill="#000b0b" d="M146.5 35.5l1-6h-3z"/><path fill="#485555" d="M150.5 59.5l-4-12v15z"/><path fill="#9cbccd" d="M-15.5 108.5l40-51 17 32z"/><path fill="#dbdddd" d="M215.5 106.5l-68-52 18 39z"/><path fill="#566465" d="M103.5 61.5l6-4v-10z"/><path fill="#202e28" d="M65.5 52.5l3-6-3 1z"/><path fill="#dddfe2" d="M97.5 115.5l-13-40 37-27z"/><path fill="#c5d4dd" d="M96.5 48.5l14 8-15-45z"/><path fill="#bacbd2" d="M17.5 80.5l28-41-12 36z"/><path fill="#e2ebed" d="M47.5 52.5l15-3v7z"/><path fill="#31443c" d="M28.5 37.5l4-6h-6z"/><path fill="#c6d5dc" d="M98.5 27.5l-49 4 64-38z"/><path fill="#a5b6bf" d="M141.5 77.5l-21-9 50 1z"/><path fill="#76a5c2" d="M215.5 25.5l-132-41 127 3z"/><path fill="#2b2a27" d="M190.5 59.5l1-5-4 5z"/><path fill="#182d38" d="M103.5 31.5l2 5 2-6z"/><path fill="#000001" d="M80.5 44.5l-2 5 3-1z"/><path fill="#d3d7d7" d="M63.5 31.5l-15 13 26 4z"/><path fill="#465d63" d="M15.5 48.5l-4-2-1 7z"/><path fill="#d9dcdf" d="M102.5 77.5l-22-34 13 5z"/><path fill="#2c3e42" d="M45.5 30.5l-3 4-2-2z"/><path fill="#1a2e34" d="M159.5 32.5l-1-4-2 5z"/><path fill="#92b5cc" d="M149.5 4.5l-48 27 114-5z"/><path fill="#a8c3d6" d="M166.5 46.5l-39-16-24 17z"/><path fill="#acc1ce" d="M42.5 32.5l-6-17-10 41z"/><path fill="#222522" d="M93.5 30.5l-1 4 4-4z"/><path fill="#b6c9d3" d="M121.5-10.5l-51 9 30 39z"/><path fill="#c6d9df" d="M161.5 56.5l-9-5-16 5z"/><path fill="#09232c" d="M27.5 55.5l3 1-2 5z"/><path fill="#a7bdc7" d="M28.5 23.5l-14 26 13-3z"/><path fill="#c5ccce" d="M215.5 16.5l-25 34 3 65z"/><path fill="#223733" d="M195.5 44.5l-4-7h5z"/><path fill="#a6b7bf" d="M-15.5 75.5l2-19 71 12z"/><path fill="#001215" d="M135.5 32.5l3 1-3-5z"/><path fill="#314858" d="M142.5 47.5l-6 8 2-6z"/><path fill="#c1d3db" d="M152.5 90.5l-16-42-13 36z"/><path fill="#a6b4c1" d="M202.5 30.5l-20 15 3-19z"/><path d="M127.5 48.5l-1-2-1 3z"/><path fill="#a7c2d4" d="M103.5 5.5l25 55-20-17z"/><path fill="#76a7c1" d="M-7.5 26.5l46-42 20 29z"/><path fill="#9fbdd0" d="M46.5 31.5l28-21-61 16z"/><path fill="#102933" d="M37.5 48.5l-1 4-2-6z"/><path fill="#e3e3e1" d="M142.5 70.5l28 24 33-22z"/><path fill="#b0c9d0" d="M39.5 57.5l-6-7-22 4z"/><path fill="#3a505c" d="M128.5 54.5l3 4-1 7z"/><path fill="#d1d9dc" d="M93.5 50.5l-5-39-9 49z"/><path fill="#b7cdd8" d="M131.5 83.5l-20-33 17 1z"/><path fill="#d2e8f0" d="M37.5 46.5v10l4-3z"/><path fill="#000208" d="M19.5 55.5h-2l3 7z"/><path fill="#1f373e" d="M13.5 49.5l-2 10h3z"/><path fill="#162530" d="M43.5 58.5l-3 2-1-5z"/><path fill="#828f96" d="M72.5 69.5l9-3 8 3z"/><path fill="#aec5d1" d="M7.5 57.5l9-5-21 1z"/><path fill="#00050f" d="M148.5 48.5l-1 3v-4z"/><path fill="#c9d4d8" d="M49.5 81.5l-7-26 14-18z"/><path fill="#4d676d" d="M24.5 33.5l1-4-7 4z"/><path fill="#dbe1e5" d="M124.5 67.5l-28-8-24 9z"/><path fill="#98b7c8" d="M17.5 52.5l-32 63 36-12z"/><path fill="#b8c8d2" d="M145.5 46.5l-1 27-23 2z"/><path fill="#94abbc" d="M164.5 32.5l-31 9h56z"/><path fill="#656662" d="M85.5 32.5l-6-2-1 3z"/><path d="M86.5 60.5v1l2 1z"/><path fill="#cfd5d8" d="M79.5 27.5l10 27-25-32z"/><path fill="#314349" d="M145.5 59.5v-3l7 2z"/><path fill="#ccd2db" d="M150.5 69.5l-2-13 7 1z"/><path fill="#304049" d="M157.5 60.5l4-5 1 4z"/><path fill="#b7c6d1" d="M150.5 57.5l33-4 11-19z"/><path fill="#283a3c" d="M42.5 32.5v9l2-7z"/><path fill="#b5c2c7" d="M67.5 39.5l-34 7 13-11z"/><path d="M183.5 33.5l-2-2-1 2z"/></g></svg>