<svg xmlns="http://www.w3.org/2000/svg" viewBox="0 0 400 200"><path fill="#acc0ca" d="M0 0h400v200H0z"/><g fill-opacity=".5"><path fill="#fcf4ed" d="M424.2 108.6L382 224.2 46 180.5z"/><path fill="#6495af" d="M5.5 202.3L147.7-24.2H-19.5z"/><path fill="#739fbb" d="M424.2 5.5L230.5-24.2l68.7 171.9z"/><path fill="#d6dada" d="M235.2 208.6L177.3-8.6 75.8 197.7z"/><path fill="#98adb7" d="M396 118L222.8 44.5l-56.3 78.2z"/><path fill="#408cb1" d="M21 44.5l37.6-68.7-82.8 34.4z"/><path fill="#c8d2d5" d="M152.3 118l132.9 59.3 71.8-56.2z"/><path fill="#2f403d" d="M79 116.4l6.2 7.8 1.5-28.1z"/><path fill="#00110e" d="M385.2 69.5l6.2 7.8-3.1 12.5z"/><path d="M364.8 71l-3-14 6.2 4.7z"/><path fill="#f3eee9" d="M129 204l242 20.2-4.6-70.3z"/><path fill="#a0becb" d="M-.8 224.2L-22.7 93l132.9 84.3z"/><path d="M146 114.8l-4.6 1.6 3.1 6.3z"/><path fill="#465751" d="M22.7 111.7l39 3.1-39 7.9z"/><path d="M291.4 111.7l4.7 3.1v9.4z"/><path fill="#001d1e" d="M261.7 129l-4.7-8 3.2-10.8z"/><path fill="#000600" d="M210.2 71l3-6.2-7.7-4.6z"/><path d="M344.5 118l4.7-6.3-9.4 3.1z"/><path fill="#caccce" d="M424.2 179l-18.7-89.2-89-6.2z"/><path d="M318 114.8l3 11v-14z"/><path fill="#000b0a" d="M177.3 127.3l-1.5-9.3-4.7-1.6z"/><path fill="#425751" d="M224.2 99.2l-14 20.3 4.6-28z"/><path fill="#000404" d="M238.3 72.7l4.7-7.9-6.3-1.5z"/><path d="M130.5 66.4l3-4.7 3.2 11zM111.7 71l1.6-7.7-4.7 3.1z"/></g></svg>