<svg xmlns="http://www.w3.org/2000/svg" viewBox="0 0 2000 1000"><path fill="#abc0ca" d="M0 0h2000v1000H0z"/><g fill-opacity=".5"><path fill="#fcf4ed" d="M1894.5 1121L199.2 894.6l1914-343.7z"/><path fill="#6596ae" d="M-82-121L27.3 988.2 668 35.2z"/><path fill="#749fbb" d="M1504 738.3l-351.7-859.4 968.8 140.6z"/><path fill="#d5d9d9" d="M910.2-121L1168 1121l-836-31.2z"/><path fill="#91aab5" d="M855.5 582l304.7-406.2 609.3 414z"/><path d="M1824.2 371l-23.4-70.2 39 23.4z"/><path fill="#3e8bb1" d="M293-121L-121 58.5 97.6 214.8z"/><path fill="#a0becb" d="M27.3 550.8l547 328.1-609.5 242.2z"/><path fill="#001409" d="M1941.4 441.4l23.4-93.7-39 39z"/><path fill="#798d8d" d="M449.2 464.8L418 613.3 11.7 589.8z"/><path fill="#112f2a" d="M722.7 636.7l15.6-78.1-39 23.4z"/><path fill="#c6d2d5" d="M1527.3 839.8L675.8 629l906.2-31.2z"/><path fill="#f2eee8" d="M1871 761.7l-70.2 359.4L769.5 988.3z"/><path fill="#000600" d="M918 316.4l23.4-15.6-7.8 62.5z"/><path fill="#031e12" d="M652.3 324.2l31.3-7.8-7.8 62.5z"/><path fill="#000300" d="M1074.2 379l-46.9-62.6h31.3z"/><path fill="#00160b" d="M558.6 371L543 308.7h39z"/><path d="M238.3 519.5l7.8-46.8 39 15.6zm1445.3 70.3l62.5-7.8-39-23.4zm-398.4-23.4h39l-23.4 54.7z"/><path fill="#10291d" d="M535.2 582l15.6 39 15.6-62.4z"/><path fill="#c7cbcd" d="M2058.6 449.2l-70.3 234.4-523.5-273.4z"/><path fill="#001d14" d="M1441.4 285.2l23.4 85.9 7.9-54.7z"/><path fill="#000f02" d="M1449.2 589.8l31.3 47v-70.4z"/><path fill="#000800" d="M879 566.4l-23.5 7.8 23.4 54.7z"/><path fill="#000200" d="M949.2 527.3l-7.8-54.6 23.4 23.4z"/><path d="M1191.4 363.3l15.6-62.5h-23.4z"/><path fill="#c1d1d8" d="M1082 300.8L1113.3-4 230.5 308.6z"/><path fill="#dde0e0" d="M879 464.8l7.7 461H1418z"/><path fill="#16291c" d="M800.8 472.7l39 15.6-62.5 7.8z"/><path fill="#06251c" d="M683.6 464.8l-31.3 70.4v-70.4z"/><path fill="#152d21" d="M1105.5 519.5l-15.7-54.7-31.2 125z"/><path fill="#c1d9e8" d="M332 496l54.7 70.4-203.1-15.6z"/><path d="M1613.3 605.5l-15.6-39-15.7 46.8z"/><path fill="#a7bac1" d="M1058.6 683.6L1425.8 793l328.1-93.8z"/><path fill="#0a2313" d="M1894.5 597.7l-23.4-7.9 23.4-31.2z"/><path fill="#061d14" d="M308.6 371l-7.8-62.4-23.5 54.7z"/><path fill="#001807" d="M582 488.3l-31.2-15.6 7.8 46.8z"/><path d="M1410.2 480.5v23.4l-39.1 23.4z"/><path fill="#c9d4d7" d="M511.7 363.3L621.1 1043 363.3 785.2z"/><path fill="#97bcd3" d="M1074.2 300.8l757.8 7.8-593.7-289z"/><path fill="#001c14" d="M1558.6 480.5v46.8l-23.4-70.3z"/><path fill="#525e52" d="M832 293l-23.4 39H871z"/><path fill="#80a9c4" d="M1957 379L1238.3-35.3l875-85.9z"/><path fill="#aec7d8" d="M886.7 464.8l687.5 7.9L1386.7 332z"/><path fill="#05180f" d="M129 582l-15.7-7.8 15.6 54.7z"/><path fill="#13210c" d="M1582 339.8l-23.4-39h39z"/><path fill="#213b37" d="M160.2 441.4l-31.3 93.8-7.8-47z"/><path fill="#000c07" d="M410.2 558.6l-23.5 31.2 39 31.3z"/><path d="M363.3 496l-15.6-23.3v39z"/><path fill="#d6d9d8" d="M582 566.4l-7.8-336 109.4 211z"/><path fill="#000e07" d="M285.2 574.2v39l-23.5-46.8z"/><path fill="#c4d3db" d="M1707 582l-39-78-234.4 54.6z"/><path fill="#000100" d="M441.4 339.8l-15.6-39 7.8 70.3z"/><path fill="#cad7dd" d="M1339.8 504l-242.1 140.5-31.3-117.2z"/><path fill="#b4c7cc" d="M511.7 933.6L379 543 97.7 730.5z"/><path fill="#b0c1ca" d="M66.4 472.7l336-164.1L464.7 457z"/><path fill="#96b8cc" d="M105.5 308.6L785.2-82l-211 382.8z"/><path fill="#c5d4da" d="M800.8 1113.3L378.9 1043l484.4-593.8z"/><path d="M199.2 550.8h-23.4l15.6 70.3z"/><path fill="#021200" d="M1246 496h39.2l-23.5-31.2z"/><path fill="#223e3b" d="M1472.7 464.8h31.2l-39 70.4z"/><path fill="#98b8c8" d="M-89.8 1105.5l421.8-78.2-171.8-476.5z"/><path fill="#c2cdcd" d="M1949.2 1121l171.9-570.2-164-242.2z"/><path d="M1363.3 332l-7.8-15.6 7.8-23.4z"/><path fill="#d7dada" d="M683.6 629l117.2-281.3h-125z"/><path fill="#d3dcdf" d="M1449.2 910.2l453.1-195.4L707 699.2z"/><path fill="#212f1d" d="M1035.2 589.8l46.8-7.8-31.2-39z"/><path fill="#bfced4" d="M269.5 550.8L254 683.6l-109.4-7.8z"/><path fill="#74a5c1" d="M558.6 160.2l-609.4 70.3 461-351.6z"/><path fill="#000100" d="M410.2 480.5l23.4 23.4 7.8-15.6z"/><path fill="#cfd6da" d="M1589.8 644.5l-109.3 7.8L1496 457z"/><path fill="#dbe5e9" d="M441.4 558.6l-54.7-7.8-15.6-101.6z"/><path fill="#d9ddde" d="M871 347.7l140.7-117.2L769.5 207z"/><path fill="#c2ced4" d="M1089.8 316.4L1066.4 543 847.7 738.3z"/><path fill="#e0dbd5" d="M1847.7 597.7l117.1 226.5-359.3-226.5z"/><path fill="#bbced5" d="M1519.5 879L1293 832l140.6-359.3z"/><path fill="#162d26" d="M816.4 480.5l-23.4-39-7.8 54.6z"/><path fill="#abb0ae" d="M1754 699.2l164-31.2 132.8 54.7z"/><path fill="#adb5b8" d="M894.5 746L668 683.7h437.5z"/><path fill="#e0e3e3" d="M769.5 707l468.8 164-109.4-171.8z"/><path fill="#001303" d="M1808.6 308.6l15.6 7.8 15.6-15.6z"/><path fill="#aabcc5" d="M1730.5 222.7l359.3 250-78-226.6z"/><path fill="#485447" d="M214.8 285.2l31.3 54.6-39-7.8z"/><path fill="#a4bcc8" d="M121 543l218.8-195.3-140.6 218.7z"/><path fill="#7f9aa6" d="M1121 410.2l172-47 117.2 47z"/><path fill="#000d04" d="M1949.2 402.3l-7.8 47-7.8-62.6z"/><path fill="#d3d3d3" d="M1754 566.4l226.5-7.8-47-125z"/><path fill="#001e12" d="M1582 582l39 15.7-15.5-31.3z"/><path fill="#7a9bab" d="M-82 285.2l421.8 117.1-460.9 7.9z"/><path fill="#ccd2d4" d="M918 511.7L675.8 371.1l46.9-179.7z"/><path fill="#95aab1" d="M1254 691.4l109.3 54.7 156.2-54.7z"/><path fill="#dfe2e4" d="M980.5 558.6H550.8L777.3 496z"/><path fill="#8b9d9f" d="M535.2 683.6L441.4 707l-70.3-31.2z"/><path fill="#dedfdf" d="M1996 699.2l-210.8-7.8 109.3-93.7z"/><path fill="#d9e0e3" d="M425.8 675.8l296.9 7.8-70.4-86z"/><path fill="#b1c6d0" d="M1207 199.2L574.2 66.4 1230.5-121z"/><path fill="#d6dcdd" d="M472.7 488.3L418 418h257.8z"/><path fill="#042015" d="M1746 550.8l-23.3 23.4v23.5z"/><path fill="#d9dfe0" d="M855.5 660.2l390.6 15.6-164-93.8z"/></g></svg>