<svg xmlns="http://www.w3.org/2000/svg" viewBox="0 0 128 64"><path fill="#adc0cb" d="M0 0h128v64H0z"/><g fill-opacity=".5"><path fill="#fbf4ee" d="M16.5 51.5l91 28 36-44z"/><path fill="#6696b1" d="M52.5-15.5l-68 21 10 69z"/><path fill="#709ebd" d="M93.5 38.5l50-34-73-20z"/><path fill="#d2d7d8" d="M61.5-15.5l-44 95 50-31z"/><path fill="#96b2c2" d="M93.5 51.5l-35-19 39-48z"/><path fill="#3f89b3" d="M16.5-15.5l-32 27h25z"/><path fill="#edebe8" d="M143.5 79.5l-131-13 102-17z"/><path fill="#a4c0cd" d="M37.5 51.5l-35-15-15 43z"/><path fill="#cdd4d7" d="M83.5 55.5l-25-18 85 5z"/><path fill="#303235" d="M124.5 28.5l-2-2 2-3z"/><path fill="#87969b" d="M-4.5 35.5l34-6-2 11z"/><path fill="#c7cacf" d="M98.5 28.5l24-3 21 22z"/><path fill="#757b7f" d="M57.5 37.5l-14 1 4-3z"/><path fill="#7c848a" d="M96.5 39.5l12-6 3 4z"/><path fill="#537483" d="M79.5 19.5h-13v4z"/><path fill="#3f4e5d" d="M114.5 18.5l3 1v5z"/><path fill="#c4d4db" d="M51.5 79.5l-35-14 38-33z"/><path fill="#acc4d2" d="M68.5-3.5l-30 23h-31z"/><path fill="#b1c7d3" d="M67.5 12.5l6 33 16 5z"/><path fill="#92a3aa" d="M14.5 20.5l32-1-40 13z"/><path fill="#515c5e" d="M59.5 19.5l-1 4 3-3z"/><path fill="#707e80" d="M94.5 40.5l-1-11 4 6z"/><path fill="#425965" d="M92.5 18.5v5l3-3z"/><path fill="#c3d3d9" d="M95.5 30.5l-2 24 9-13z"/><path fill="#c8d3d6" d="M36.5 67.5l-2-52-9 31z"/><path fill="#395259" d="M85.5 39.5l-6-2 3-1z"/><path fill="#b1c7d2" d="M22.5 60.5l9-5-13-31z"/><path fill="#5b6265" d="M69.5 30.5l-4 7 4-2z"/><path fill="#b6c7ce" d="M68.5 33.5l30 11-22 2z"/><path fill="#5d5e58" d="M37.5 35.5l-2-4-1 7z"/><path fill="#000307" d="M93.5 35.5h1v3z"/><path fill="#9bb8ce" d="M107.5 36.5l-22-30 33 5z"/><path fill="#cdd5d9" d="M53.5 72.5l-19 5 4-65z"/><path fill="#79a7c4" d="M137.5 1.5l-67-7 45 20z"/><path fill="#bccad0" d="M8.5 50.5l8-17 1 14z"/><path fill="#ccd4d8" d="M63.5 18.5l5 14-8 8z"/><path fill="#4a5c67" d="M22.5 29.5l-6 1 8 2z"/><path fill="#515753" d="M50.5 21.5h2l2-2z"/><path fill="#c7d5db" d="M82.5-5.5l-18 25h-32z"/><path fill="#b0c5d1" d="M26.5 25.5l-9 8 8-18z"/><path fill="#dddfe0" d="M76.5 37.5l-25 36 6-35z"/><path fill="#45555c" d="M22.5 37.5l4 1v-2z"/><path fill="#0d2b2b" d="M87.5 20.5v-1l-2 2z"/><path fill="#d8d9d9" d="M123.5 37.5l13 42-32-41z"/><path fill="#5d6065" d="M61.5 30.5l-3-2 4 5z"/><path fill="#d0d4d8" d="M38.5 26.5l24 1-12 11z"/><path fill="#979ca1" d="M56.5 31.5l-9-3-9 3z"/><path fill="#506067" d="M104.5 37.5l-5-7 1 5z"/><path fill="#c3d3d9" d="M24.5 42.5l-6 5 8-17z"/><path fill="#556d79" d="M18.5 36.5l-16 1 7-3z"/><path fill="#aec8db" d="M-15.5 38.5v-8l30 4z"/><path fill="#c6cfd4" d="M122.5 27.5l-25 7 32 2z"/><path fill="#c3d8e1" d="M100.5 36.5l-14-1 10-2z"/><path fill="#d6dbdc" d="M51.5 22.5l-7-9v23z"/><path fill="#4b748a" d="M75.5 16.5l1 8 1-7z"/><path fill="#a9c3d3" d="M.5-15.5l84 38-2-38z"/><path fill="#4c5a65" d="M111.5 36.5l-2-2-3 3z"/><path fill="#4d5e64" d="M34.5 23.5l2-1-2-2z"/><path fill="#a5bac9" d="M118.5 24.5l-12 13-12-18z"/><path fill="#75a5c3" d="M.5 14.5l33-8-8-22z"/><path fill="#b0afb1" d="M123.5 42.5l-10 3h17z"/><path fill="#99b8c7" d="M10.5 35.5l9 38-20-4z"/><path fill="#a9c4d1" d="M18.5 27.5l-9 8 1-10z"/><path fill="#b2bac1" d="M50.5 39.5l-17 5h31z"/><path fill="#4c6a7d" d="M101.5 17.5l-3 3 2 1z"/><path fill="#6f6d6f" d="M125.5 38.5l-5-3v2z"/><path fill="#a5bfd2" d="M62.5 29.5l44-1-22-8z"/><path fill="#93b5cd" d="M142.5 18.5h-74l18-18z"/><path fill="#374c5b" d="M89.5 32.5l-1-1 3-2z"/><path fill="#787c7d" d="M41.5 26.5l-1-4 2-2z"/><path fill="#c6cfd2" d="M53.5 23.5l-23 7-1-9z"/><path fill="#627a76" d="M82.5 30.5l-1-2-3 4z"/><path fill="#6e8998" d="M8.5 22.5l20-2-12-2z"/><path fill="#91a2a9" d="M21.5 41.5l-9 3h19z"/><path fill="#636970" d="M55.5 39.5l3 3-4-7z"/><path fill="#dee4ea" d="M50.5 40.5l6-1 9 6z"/><path fill="#95b6ca" d="M37.5 19.5l7-24-33 24z"/><path fill="#4d5456" d="M28.5 30.5l-2 1 2 1z"/><path fill="#c5d2d5" d="M126.5 22.5l-9 57 26-42z"/><path fill="#beccd4" d="M73.5 2.5l-8-7-7 38z"/><path fill="#acc5d6" d="M77.5 24.5l19 4-12 3z"/><path fill="#a1b1ba" d="M88.5 47.5l12-4h-26z"/><path fill="#1e3142" d="M118.5 24.5l-3-4 1-1z"/><path fill="#a9b9c4" d="M120.5 17.5l-6 11 23-14z"/><path fill="#303c3c" d="M45.5 38.5l3-3-3 1z"/><path fill="#c9d6dc" d="M45.5 50.5l4-21 6 43z"/><path fill="#e1e7e5" d="M27.5 35.5l6-3 9 2z"/><path fill="#dbe0e2" d="M136.5 45.5h-74l5 19z"/><path fill="#b7cbd6" d="M70.5 33.5l10 9 2-11z"/><path fill="#bfcbd3" d="M104.5 32.5l-3 15 8-13z"/><path fill="#8ea9b9" d="M91.5 26.5l-21-1 12-3z"/><path fill="#aac2cf" d="M26.5 76.5l-12-47-1 25z"/><path fill="#aec1cb" d="M20.5 19.5l6 13v-16z"/><path fill="#d1d9dd" d="M51.5 36.5l8-4-2-22z"/><path fill="#b4c8d0" d="M18.5 52.5l15 2-13-24z"/><path fill="#dee5e8" d="M26.5 35.5l6-4-4 1z"/><path fill="#85a5b5" d="M31.5 26.5l-47-13 10 13z"/><path fill="#324d57" d="M14.5 30.5l4 3-1-2z"/><path fill="#011d29" d="M93.5 20.5l-2 1 2-2z"/><path fill="#eeeae7" d="M105.5 76.5l17-30-42 17z"/></g></svg>