<svg xmlns="http://www.w3.org/2000/svg" viewBox="0 0 50 25"><path fill="#adc0cb" d="M0 0h50v25H0z"/><g fill-opacity=".5"><path fill="#f7f1ed" d="M65.5 17.5l-50-3-9 26z"/><path fill="#6795af" d="M-15.5-12.5l40-3-28 47z"/><path fill="#77a1bd" d="M65.5-.5l-34-6-1 22z"/><path fill="#c8d1d6" d="M29.5-15.5l-29 56 23-22z"/><path fill="#f2eee9" d="M59.5 39.5l-38-17 23-3z"/><path fill="#a8b6c0" d="M10.5 16.5l55-16-28 17z"/><path fill="#478bab" d="M3.5 4.5l-19-7h21z"/><path fill="#dbd7d5" d="M65.5 9.5l-21 2 2 10z"/><path fill="#83aac3" d="M45.5 8.5l-19-1 38-23z"/><path fill="#94a4af" d="M10.5 14.5l2-9-28 11z"/><path fill="#a1bbca" d="M13.5 39.5l-8-23-21-11z"/><path fill="#dee2e4" d="M31.5 35.5l11-8-21-16z"/><path fill="#7d8f9d" d="M29.5 9.5l-6-2h7z"/><path fill="#717473" d="M45.5 8.5l20 1v6z"/><path fill="#b2c8d8" d="M24.5-2.5l-18 9h32z"/><path fill="#c4d2d5" d="M47.5 27.5l4-28 14-10z"/><path fill="#d2d6d7" d="M20.5 16.5l-3-11 5-1z"/><path fill="#7ca9c7" d="M3.5 3.5l12-19v20z"/><path fill="#9dadb7" d="M20.5 14.5l12-4 12 4z"/><path fill="#b4c7d4" d="M28.5 10.5l12 7-8 3z"/><path fill="#c5d2d9" d="M12.5 10.5l4 20h-8z"/><path fill="#e1e2e1" d="M56.5 34.5l-15-21 8 27z"/><path fill="#aebcc6" d="M34.5 10.5l-20 2 10-4z"/><path fill="#75a4bf" d="M20.5-3.5l45 10-32-22z"/><path fill="#8ca3b3" d="M40.5 15.5h-4l1-9z"/><path fill="#cdd3d5" d="M37.5 13.5l5 4-4 3z"/><path fill="#7494a8" d="M-11.5-2.5l17 18-14-31z"/><path fill="#cdced1" d="M49.5 15.5l-2-6-6 10z"/><path fill="#cedbe4" d="M29.5 40.5h-13l-1-29z"/><path fill="#8da7b6" d="M-15.5 7.5l1 9 29-9z"/><path fill="#d0d8dc" d="M26.5 11.5l-6 18-19 11z"/><path fill="#a3b9c8" d="M26.5-14.5l-22 27 39-28z"/><path fill="#a8c1cf" d="M35.5 9.5l-5 5-3-6z"/><path fill="#95b0c3" d="M33.5 15.5l2-21-5 13z"/><path fill="#b4c7d0" d="M5.5 15.5l5 1v8z"/><path fill="#b1b0af" d="M65.5-15.5l-1 17-18 13z"/><path fill="#97b4c3" d="M-15.5 33.5l17-21 13 28z"/><path fill="#c5d3db" d="M20.5 2.5l5 6-4-18z"/><path fill="#d5dbde" d="M17.5 10.5l3-4-2 7z"/><path fill="#8aa2ae" d="M11.5 15.5l-4-11-2 4z"/><path fill="#a0a9ad" d="M17.5 15.5l5-2h-9z"/><path fill="#ccd2d5" d="M10.5 8.5h14l-3 3z"/><path fill="#cedae2" d="M17.5 19.5l-1-6-5 7z"/><path fill="#dbdddf" d="M47.5 13.5l5-7 13 3z"/><path fill="#c5d3dc" d="M32.5 22.5l6-2-3-7z"/><path fill="#c9d5dd" d="M6.5 40.5l9-1 6-27z"/><path fill="#97b9cf" d="M49.5 5.5l-13 1-7-5z"/><path fill="#8897a0" d="M27.5 12.5l1-2-3 3z"/><path fill="#eae7e3" d="M45.5 18.5l7 22-26-16z"/><path fill="#acb1b4" d="M16.5 8.5v-3l5 7z"/><path fill="#c7d2da" d="M28.5 15.5l-2 2 2-5z"/><path fill="#bbc9d2" d="M11.5 19.5l-3-5 6 4z"/><path fill="#c8d1d7" d="M22.5 7.5l-3-6-2 10z"/><path fill="#a3bccc" d="M38.5 10.5l-6-3-3 4z"/><path fill="#bfcacd" d="M6.5 9.5l7 2 6-2z"/><path fill="#95bfd4" d="M4.5 4.5v2l4-2z"/><path fill="#b6c8d2" d="M16.5 16.5l-7 4-6-2z"/><path fill="#82959f" d="M11.5 8.5l-1-1 1 2z"/><path fill="#dce0e9" d="M47.5 15.5l-3-1-3 1z"/><path fill="#505a60" d="M9.5 13.5l1 1v-1z"/><path fill="#bac5cc" d="M23.5 11.5h6l-9-4z"/><path fill="#8da4b2" d="M16.5 12.5l-27-8 3 8z"/><path fill="#c4cfd2" d="M11.5 10.5v8l3-9z"/><path fill="#89a1b0" d="M34.5 9.5l2 6v-9z"/><path fill="#7fa7bb" d="M-15.5 40.5l6-37h15z"/><path fill="#ccd7de" d="M14.5 39.5l1-27 7 18z"/><path fill="#85979e" d="M33.5 15.5l-1-2h2z"/><path fill="#abc2d2" d="M31.5 8.5l5 3 2-1z"/><path fill="#b9d3e3" d="M33.5 15.5v4l2-6z"/><path fill="#949a9c" d="M21.5 16.5v-2l-1 3z"/><path fill="#dee3e5" d="M21.5 16.5l1 13 3-6z"/><path fill="#b1c2ca" d="M12.5 11.5l1-7-4 9z"/><path fill="#96b6c7" d="M14.5 3.5l-2 4-9-2z"/><path fill="#aebcc7" d="M40.5 16.5l-3 2-6-2z"/><path fill="#7da6c1" d="M13.5 4.5l2-13-31-6z"/><path fill="#dfe5e8" d="M23.5 12.5l-1 1-2-1z"/><path fill="#627b8e" d="M2.5 15.5l-18 6v-5z"/><path fill="#94b4c6" d="M3.5 9.5l2 4 2-11z"/><path fill="#adb4b6" d="M64.5 1.5l1 14-18 2z"/><path fill="#a3afb5" d="M24.5 10.5l-2 2 4-1z"/><path fill="#f6eee7" d="M40.5 22.5l12 15-31-10z"/><path fill="#84939f" d="M36.5 13.5h7l-1 2z"/><path fill="#677c88" d="M37.5 12.5l-3-1h5z"/><path fill="#dee2e2" d="M56.5 40.5l-15-27 6 24z"/><path fill="#b4c5d0" d="M41.5-14.5l-27 22 9-23z"/><path fill="#d1dadd" d="M37.5 19.5l3-2-2-3z"/><path fill="#5a91ab" d="M2.5-3.5l1 7-17-10z"/><path fill="#829dae" d="M-14.5 15.5l23-7-24-1z"/><path fill="#a3bac7" d="M3.5 8.5h8l-6 2z"/><path fill="#bbcfd8" d="M46.5 29.5l19-18-15 7z"/><path fill="#7a7772" d="M49.5 9.5l11 5 5-5z"/><path fill="#c6cbcc" d="M49.5 11.5l6-23 10 35z"/><path fill="#899ba8" d="M4.5 12.5l1-3 5 3z"/><path fill="#abc2d6" d="M4.5 12.5l-20 4v7z"/><path fill="#6d8699" d="M.5 14.5l-9 2-3 5z"/><path fill="#d9e2e6" d="M32.5 17.5l-1 7-6-7z"/><path fill="#d1d0cc" d="M47.5 16.5h-6l-2 4z"/><path fill="#e5e4e2" d="M48.5 18.5l-7 9-2-9z"/><path fill="#8c9595" d="M14.5 14.5l-2-1h2z"/><path fill="#dde5e5" d="M17.5 13.5h-4l2-1z"/></g></svg>