<svg xmlns="http://www.w3.org/2000/svg" viewBox="0 0 400 200"><path fill="#acc0ca" d="M0 0h400v200H0z"/><path fill="#f6f0ea" fill-opacity=".5" d="M95.4 127l309.3-5.5 1.5 87.5L97 214.4z"/><path fill="#5f90a9" fill-opacity=".5" d="M107.5-11.6L84.8 132l-118.9-19 22.8-143.5z"/><path fill="#79a2bb" fill-opacity=".5" d="M427.1 11.5l-134.3 144-90.2-84.2 134.2-144z"/><path fill="#c3ced2" fill-opacity=".5" d="M228.9 3L134 237.7 60 208l95-234.8z"/><path fill="#f4efea" fill-opacity=".5" d="M187.5 184.6L376.3 158l6.5 46.4L194 231z"/><path fill="#597275" fill-opacity=".5" d="M353.2 58.6l3.9-4.9 38.1 29.8-3.8 5z"/><path fill="#3f8cb3" fill-opacity=".5" d="M30.3 40.6l-52.1-10.1 8.6-44.5L39-4z"/><path fill="#3e524c" fill-opacity=".5" d="M216.3 93.2l7.5 2.1-7.3 25.6-7.5-2.2z"/><path fill="#000801" fill-opacity=".5" d="M186 98.6l6-4.9 4.9 6.1-6 5z"/><path fill-opacity=".5" d="M290.6 112.5l4.6-1.2 3.2 12.1-4.5 1.2z"/><path fill="#162d2a" fill-opacity=".5" d="M336.9 118.7l1.3-9.3L349 111l-1.3 9.2z"/><path fill="#000c0c" fill-opacity=".5" d="M151.7 117.4l-7.3 6-4-5 7.4-5.8z"/><path fill-opacity=".5" d="M183.7 76l4.6-13.4 1.4.5-4.5 13.3zm-70.8-3.2l-5.7-2.6 3.3-7 5.7 2.5z"/><path fill="#86adc0" fill-opacity=".5" d="M62.6 219l-78.8 30.2L-61 132.6l78.8-30.3z"/><path fill="#42443f" fill-opacity=".5" d="M418.7 143l-85.9-1.6V140l86 1.5z"/><path fill="#b1c3cb" fill-opacity=".5" d="M290.7 112.6L276.2 157l-65.4-21 14.5-44.6z"/><path fill="#07211c" fill-opacity=".5" d="M171.1 122.4l-1.5-10.9 7.7-1 1.5 10.8z"/><path fill-opacity=".5" d="M294.3 62.6l1.5.4-4.1 13.5-1.5-.5z"/><path fill="#889397" fill-opacity=".5" d="M137.6 136.8l220.2 7.7v1.5l-220.3-7.7z"/><path fill="#2c3d36" fill-opacity=".5" d="M39.8 120.3H21.1v-7.8h18.7z"/><path fill="#192f2a" fill-opacity=".5" d="M110.5 132l-1.5-.2 3.9-37.2 1.6.1z"/><path fill="#91b2c5" fill-opacity=".5" d="M184.2-8.4L39 105 11 69.4 156.5-44.1z"/><path fill="#16342e" fill-opacity=".5" d="M130 65.2l4.2-2.3 6 11-4 2.2z"/><path fill="#d6d7d8" fill-opacity=".5" d="M135 43.4l45.3.8-1.2 70.3-45.3-.8z"/></svg>