<svg xmlns="http://www.w3.org/2000/svg" viewBox="0 0 16 8"><path fill="#adc0c9" d="M0 0h16v8H0z"/><g fill-opacity=".5"><path fill="#fcf1e6" d="M4.5 5.5l14-1-15 11z"/><path fill="#6291a9" d="M2.5 4.5l5-11-23-5z"/><path fill="#7ba1bc" d="M10.5 5.5l10-7-10-14z"/><path fill="#c4cfd0" d="M-2.5 20.5l11-24-4 27z"/><path fill="#f2f0ed" d="M13.5 6.5l18 17-38-14z"/><path fill="#94b0be" d="M-2.5 19.5l-13 4 24-30z"/><path fill="#79a9cb" d="M15.5 1.5l4-17-35 2z"/><path fill="#709cb3" d="M1.5 3.5l-8 1 13-13z"/><path fill="#b1b9bc" d="M14.5 3.5l-5-1 2 3z"/><path fill="#9fcae5" d="M11.5 1.5l-13-6 2-11z"/><path fill="#bdb9af" d="M5.5 3.5l3 1v-1z"/><path fill="#dbddda" d="M10.5 5.5l-10 18-16-5z"/><path fill="#b7d3e2" d="M7.5 1.5l5-6-9-9z"/><path fill="#5587a2" d="M-10.5-12.5l2 13 9-1z"/><path fill="#94b3c7" d="M8.5 3.5l8-10-5 3z"/><path fill="#88a7b9" d="M11.5 4.5l11-13-3-4z"/><path fill="#b5cbd4" d="M3.5 5.5l1 12-6 3z"/><path fill="#cfcbc7" d="M15.5 4.5l16-9-12 20z"/><path fill="#89b4d0" d="M10.5 1.5v-2l7 2z"/><path fill="#7ca4bf" d="M12.5.5h10l9-7z"/><path fill="#aabbbf" d="M3.5 1.5l1 3v-2z"/><path fill="#c6d0d1" d="M10.5 5.5l-3-1h4z"/><path fill="#8fa4ac" d="M4.5 4.5l-12-3-8-11z"/><path fill="#94b8ca" d="M1.5 5.5l9 12-26-18z"/><path fill="#a9c7d9" d="M14.5 2.5h6l3 4z"/><path fill="#789bae" d="M3.5.5v-16h10z"/><path fill="#a1afb6" d="M10.5 4.5h3l-4-2z"/><path fill="#adc3cc" d="M6.5.5l15-11-29-5z"/><path fill="#afbec3" d="M2.5 5.5v10h4z"/><path fill="#edebe6" d="M14.5 6.5l-15 9 2 8z"/><path fill="#85aec4" d="M3.5.5h-4v3z"/><path fill="#729db4" d="M1.5.5l-15 20-2-9z"/><path fill="#ccd0cc" d="M16.5 23.5l2-7-14-11z"/><path fill="#d2dee5" d="M14.5 4.5l13 5-6-5z"/><path fill="#97aab4" d="M14.5 2.5h17v-8z"/><path fill="#a6c9dd" d="M9.5-6.5l-7-9 7 17z"/><path fill="#e3dcd4" d="M14.5 6.5l1 5h2z"/><path fill="#98b0bf" d="M8.5 1.5l4 2v-2z"/><path fill="#ecede7" d="M5.5 23.5l12-6-10-10z"/><path fill="#97b7c8" d="M2.5.5h1l-2 1z"/><path fill="#b5bec4" d="M12.5 4.5l19-3-12-2z"/><path fill="#9da9aa" d="M2.5 4.5l-9 3-9-2z"/><path fill="#819ead" d="M.5 4.5l-8-20-6 18z"/><path fill="#c3d2d7" d="M6.5 2.5l-1 1-1-1z"/><path fill="#b1cddd" d="M5.5 1.5l5-10 2 6z"/><path fill="#a4c3d5" d="M16.5 3.5l3 12 1-18z"/><path fill="#92a9b7" d="M13.5 1.5h18v5z"/><path fill="#dadfde" d="M8.5 5.5l8 18h-6z"/><path fill="#96a7b0" d="M5.5.5l-3-11-4 3z"/><path fill="#799fb8" d="M22.5 16.5l-8-20 16 15z"/><path fill="#bcd1dc" d="M3.5 6.5l-1 17 7-10z"/><path fill="#edf0ef" d="M13.5 7.5l2 2-5 8z"/><path fill="#a8adad" d="M13.5 3.5v1l-3-1z"/><path fill="#a8bfc7" d="M4.5 2.5h-2l1 1z"/><path fill="#9bbed5" d="M11.5 1.5l-8-14h-6z"/><path fill="#d3d5d0" d="M6.5 6.5l-22 14h16z"/><path fill="#c9d0ce" d="M5.5 5.5l9 18-9-7z"/><path fill="#9cb8c9" d="M9.5 3.5h4l-3-1z"/><path fill="#d9dbd6" d="M1.5 14.5l6-8-16 12z"/><path fill="#cbd1ce" d="M6.5 5.5l-13 18 12-7z"/><path fill="#b1c7d1" d="M7.5.5l4-6-11-4z"/><path fill="#d9d3cb" d="M15.5 6.5l2 17 4-23z"/><path fill="#8fb7d3" d="M13.5.5v1l-3-1z"/><path fill="#9bafba" d="M8.5 2.5v-1h3z"/><path fill="#9baeb3" d="M2.5 3.5h1l1 1z"/><path fill="#9ab2c0" d="M15.5 1.5l15 13-5-13z"/><path fill="#87a3b2" d="M3.5.5l-2-4-1 1z"/><path fill="#85a7b9" d="M1.5 2.5l-9 6-8-3z"/><path fill="#e0e3e4" d="M13.5 6.5l-14 4 1 4z"/><path fill="#b6c1c6" d="M12.5 4.5l19-12-4 8z"/><path fill="#a4c2d5" d="M22.5-3.5l-6 6 4 5z"/><path fill="#bec1c0" d="M13.5 4.5l16-11-4 9z"/><path fill="#bdd5e2" d="M6.5.5h1l1 1z"/><path fill="#85aec9" d="M14.5 1.5l-1-11-9-6z"/><path fill="#8aadc4" d="M14.5 1.5l14-10 3 7z"/><path fill="#d0d7d6" d="M4.5 7.5l7 9 3-6z"/><path fill="#b0c9d5" d="M20.5-15.5l-16 17 20-12z"/><path fill="#7caec7" d="M1.5.5l-17 6 2-6z"/><path fill="#76a1b8" d="M.5 1.5l-16 15 4-14z"/><path fill="#84aabe" d="M3.5 3.5l-12-7 4 5z"/><path fill="#aacee3" d="M9.5.5l-12-14 10-2z"/><path fill="#a1bac8" d="M6.5.5l-5-11-9-4z"/><path fill="#c5cbcf" d="M9.5 4.5h2v2z"/><path fill="#70a0b9" d="M2.5.5l-8-9 6-7z"/><path fill="#aabec6" d="M2.5 6.5l13 17h-11z"/><path fill="#dddcd8" d="M6.5 7.5l15 8-8-1z"/><path fill="#89adc4" d="M8.5-15.5l4 16-11-12z"/><path fill="#83a6b8" d="M.5 3.5l-16 6 9 1z"/><path fill="#acc0c6" d="M2.5 5.5l1 11 6 7z"/><path fill="#d1d3d0" d="M6.5 6.5l-3 13-5 2z"/><path fill="#ced6d5" d="M5.5 7.5l-1 7 11-1z"/><path fill="#dedbd6" d="M14.5 6.5l15 2-1 5z"/><path fill="#c8cecc" d="M5.5 4.5h-1l1 1z"/><path fill="#9fbfd0" d="M9.5.5l7-9-3-3z"/><path fill="#d0d6d7" d="M14.5 5.5l17-5-3-9z"/><path fill="#e2e6e8" d="M10.5 7.5l-26 16 35-3z"/><path fill="#99b6c7" d="M1.5 6.5l-17-4 16 19z"/><path fill="#e5e8e7" d="M12.5 7.5l3 11-16-10z"/><path fill="#8cb1ca" d="M14.5 1.5l10 5 4-4z"/><path fill="#cbcfcc" d="M6.5 4.5l-3 1 1-1z"/></g></svg>