<svg xmlns="http://www.w3.org/2000/svg" viewBox="0 0 128 64"><path fill="#adc0cb" d="M0 0h128v64H0z"/><g fill-opacity=".5"><path fill="#fef8f2" d="M93.5 79.5l50-33-132-2z"/><path fill="#6595b1" d="M-1.5-15.5l43 18-52 77z"/><path fill="#709ebd" d="M72.5-15.5l20 55 51-36z"/><path fill="#d1d7d8" d="M68.5 79.5l-4-95-43 83z"/><path fill="#e5e2df" d="M136.5 22.5l-90 54 97-11z"/><path fill="#9fb6c1" d="M-13.5 73.5l47-21-8-38z"/><path fill="#94adbe" d="M72.5 11.5l71 11-88 12z"/><path fill="#3f89b3" d="M-15.5 7.5l32-21-8 25z"/><path fill="#74878e" d="M7.5 40.5l20-9-20-1z"/><path fill="#8899a1" d="M115.5 37.5l-22-8-14 7z"/><path fill="#c4d2d8" d="M91.5 55.5l-36-18 50 4z"/><path fill="#67787d" d="M57.5 19.5l11 4 1-4z"/><path fill="#00000f" d="M115.5 19.5v3l3-3z"/><path fill="#677a81" d="M8.5 35.5l18 2-11 2z"/><path fill="#c0cfd6" d="M63.5 38.5l-21 30-44-30z"/><path fill="#65696c" d="M124.5 29.5v-9l-2 5z"/><path fill="#636f70" d="M35.5 19.5l8 1-11 2z"/><path fill="#2d373b" d="M66.5 37.5l3-3 1-4z"/><path fill="#2c3532" d="M47.5 38.5h-2v-5z"/><path fill="#d2d5d5" d="M48.5 34.5l-11-20-1 24z"/><path fill="#cbd7dc" d="M61.5 7.5v21l9 7z"/><path fill="#bed0d8" d="M58.5 19.5l-39-1 76-29z"/><path fill="#203540" d="M19.5 20.5v2l-4 1z"/><path fill="#2f3035" d="M56.5 37.5l-1 2v-5z"/><path fill="#e2e3e2" d="M93.5 64.5l-30-5-9-30z"/><path fill="#646662" d="M35.5 38.5v-9l3 11z"/><path fill="#bbc6cf" d="M120.5 26.5l16 16-52-16z"/><path fill="#ccd2d5" d="M62.5 14.5l-30 34 19-45z"/><path fill="#708d98" d="M84.5 40.5l-3-15-1 10z"/><path fill="#b3c9d5" d="M71.5 26.5l-2 10 33-1z"/><path fill="#cddbe4" d="M142.5 29.5l-24-9 17 1z"/><path fill="#9bb9c8" d="M1.5 79.5l17-47-18 15z"/><path fill="#588195" d="M75.5 23.5l7-4h-9z"/><path fill="#c2ccd0" d="M122.5 24.5l-1 37 12 1z"/><path fill="#b3cad5" d="M9.5 26.5h9l-9 11z"/><path fill="#9abbd2" d="M140.5 19.5h-69l4-18z"/><path fill="#e9f0f0" d="M48.5 33.5l-8 3-9-3z"/><path fill="#76a5c1" d="M131.5-15.5l-74 10 86 20z"/><path fill="#84868c" d="M52.5 31.5l-1-3-9 3z"/><path fill="#39525b" d="M91.5 20.5l4 3-1-4z"/><path fill="#eeecea" d="M119.5 51.5l-92 16 84 8z"/><path fill="#afc6d1" d="M19.5 79.5v-51l12 21z"/><path fill="#d7dbd8" d="M34.5 21.5l-1 16-5-3z"/><path fill="#869faf" d="M94.5 18.5l7 1 2 22z"/><path fill="#97b7cc" d="M9.5 17.5l27 1 13-22z"/><path fill="#ece8e8" d="M113.5 37.5l-16 6h32z"/><path fill="#dce1e5" d="M48.5 24.5l-4 5 7 8z"/><path fill="#3a5263" d="M90.5 31.5l-1-2-1 5z"/><path fill="#a5c2d5" d="M76.5 28.5l20 2-17-15z"/><path fill="#aac2d3" d="M97.5 22.5l12-1-4 17z"/><path fill="#617375" d="M96.5 41.5l-2-11-2 10z"/><path fill="#bdcfd6" d="M80.5 51.5l12-19 2 15z"/><path fill="#76a5c2" d="M-4.5 16.5l33-30 7 21z"/><path fill="#8f9694" d="M47.5 21.5h7l-2-3z"/><path fill="#9f9d9f" d="M115.5 34.5l11 3-5 1z"/><path fill="#7a7b7e" d="M59.5 29.5l4 3-3 1z"/><path fill="#ced9de" d="M38.5 35.5l19 44h-34z"/><path fill="#1d2224" d="M24.5 32.5l3-1v-1z"/><path fill="#24333a" d="M27.5 21.5l-1-2h2z"/><path fill="#ced5d9" d="M59.5 26.5l1 16-15-27z"/><path fill="#5a777e" d="M86.5 19.5l1-3v6z"/><path fill="#c5d3d8" d="M96.5 29.5l5 11-9 17z"/><path fill="#4d656f" d="M14.5 19.5l-3 2 7-1z"/><path fill="#3b4148" d="M55.5 35.5l2 5-3-3z"/><path fill="#c8d3d5" d="M26.5 27.5l-2 5 5 4z"/><path fill="#49555a" d="M28.5 40.5l-2-7-1 3z"/><path fill="#a6b6be" d="M98.5 43.5h-31l16 5z"/><path fill="#dee3e5" d="M79.5 37.5l-12 6-11-4z"/><path fill="#000001" d="M17.5 32.5l-2-2h1z"/><path fill="#c7d2d7" d="M21.5 35.5l14-6-7 6z"/><path fill="#333e3e" d="M53.5 19.5l1 2-3-2z"/><path fill="#e0e8ee" d="M62.5 36.5v-5h4z"/><path fill="#5a646e" d="M111.5 33.5l-6 5 5-1z"/><path fill="#627076" d="M101.5 37.5l5 1-8-7z"/><path fill="#b8ccd6" d="M116.5 35.5l-3-6-19 6z"/><path fill="#a1b8c5" d="M18.5 11.5l-1 17-5 1z"/><path fill="#d7dadd" d="M103.5 34.5l11 8h-11z"/><path fill="#161f21" d="M35.5 35.5v2l-1 1z"/><path fill="#b3bec3" d="M19.5 44.5l12-7 12 7z"/><path fill="#657983" d="M22.5 29.5l-5 1 12 3z"/><path fill="#b0cbd6" d="M93.5 24.5l-10-2 8-2z"/><path fill="#d0d7da" d="M46.5 30.5l-11 5h24z"/><path fill="#a9bcc8" d="M13.5 28.5l12 1 1-11z"/><path fill="#9fbcd1" d="M103.5 30.5l-9-5v-15z"/><path fill="#afb8bc" d="M53.5 26.5l-15-6-6 6z"/><path fill="#8a8f95" d="M41.5 34.5l1-7 2 2z"/><path fill="#d7dde2" d="M49.5 30.5l-8-6-7 3z"/><path fill="#aec3ce" d="M27.5 58.5l-13-24-3 16z"/><path fill="#cdd8df" d="M70.5 45.5l20 12 18-11z"/><path fill="#91a6b2" d="M1.5 44.5h21l-33-9z"/><path fill="#7f9eae" d="M-15.5 15.5v11h41z"/><path fill="#cad7db" d="M100.5 41.5l2-9-9 11z"/><path fill="#919ca6" d="M44.5 44.5l7-2 2 2z"/><path fill="#4d636b" d="M18.5 35.5l1 5-5-5z"/><path fill="#b0c7d3" d="M76.5 23.5l-69-39h49z"/><path fill="#d0dada" d="M42.5 12.5l4 12 14-12z"/><path fill="#d0d4d7" d="M122.5 27.5l-3 9-8-4z"/><path fill="#d5dce0" d="M34.5 43.5l21-1-17-5z"/><path fill="#9ebccc" d="M-5.5 69.5l25 1-3-36z"/><path fill="#042338" d="M101.5 20.5l-1-2v2z"/></g></svg>