<svg xmlns="http://www.w3.org/2000/svg" viewBox="0 0 200 100"><path fill="#adc0cb" d="M0 0h200v100H0z"/><g fill-opacity=".5"><path fill="#fcf4ee" d="M215.5 55.5l-195 30 161 30z"/><path fill="#6596b0" d="M-15.5 2.5l92-18-72 114z"/><path fill="#6f9ebc" d="M113.5-15.5l34 79 68-58z"/><path fill="#d4d9da" d="M110.5 99.5l-17-115-56 116z"/><path fill="#96acb8" d="M121.5 18.5l59 41h-114z"/><path fill="#a1becc" d="M56.5 85.5l-53-30-19 60z"/><path fill="#000300" d="M194.5 45.5l-2-6 2-3z"/><path fill="#428cb1" d="M27.5-15.5l-43 25 27 12z"/><path fill="#f4f0e9" d="M180.5 109.5l-100-11 105-20z"/><path fill="#b9c8cf" d="M130.5 80.5l55-10-85-12z"/><path fill="#12242d" d="M180.5 32.5l2-5 2 12z"/><path fill="#819397" d="M44.5 45.5l-53 13 55 2z"/><path d="M147.5 37.5l-3-4 2-3z"/><path fill="#181f19" d="M146.5 55.5l2 8 1-6z"/><path fill="#c8ced6" d="M136.5 43.5l79 19-25-21z"/><path fill="#ced2d2" d="M30.5 56.5l66 1-10-25z"/><path fill="#63706e" d="M56.5 46.5l-6 14 6-1z"/><path d="M72.5 63.5l1-5-2-1z"/><path fill="#111d1e" d="M87.5 55.5v8l-2-5z"/><path fill="#cdd8db" d="M42.5 55.5l11 38 1-53z"/><path fill="#00121d" d="M103.5 31.5l2-1 2 7z"/><path fill="#dfe1e3" d="M88.5 61.5l-3 42 38-44z"/><path fill="#081617" d="M97.5 49.5l-3 4v-6z"/><path fill="#203643" d="M130.5 61.5l-3-7 5 5z"/><path d="M160.5 56.5l-1 5 3 1zm10 2l3 1v-5z"/><path fill="#00000a" d="M24.5 49.5l4-3-3 5z"/><path fill="#c1d6e0" d="M129.5 49.5l29 8h-51z"/><path fill="#4d5858" d="M93.5 34.5l-3-1 7-5z"/><path fill="#050c0e" d="M55.5 36.5l2-5-3 1z"/><path fill="#becfd8" d="M11.5 29.5l108-29-15 30z"/><path fill="#294e5d" d="M117.5 30.5l1 8 3-6z"/><path fill="#4b595a" d="M103.5 58.5l6-2v-10z"/><path fill="#303f4a" d="M44.5 55.5l-2 8-3-8z"/><path fill="#3d535e" d="M148.5 49.5l-9-2-1 5z"/><path fill="#000705" d="M67.5 31.5v3l-2 3z"/><path fill="#cad6dc" d="M94.5 19.5l16 37-13-1z"/><path fill="#98bcd2" d="M105.5 30.5l18-29 82 29z"/><path fill="#2a3139" d="M77.5 45.5l3 4v-3z"/><path fill="#ccd2d3" d="M81.5 43.5l-24 28v-40z"/><path d="M18.5 61.5h2l-1-5z"/><path fill="#00131c" d="M153.5 48.5l3-1-1 4z"/><path fill="#434743" d="M83.5 31.5l-4-1 5 5z"/><path fill="#b9cdd7" d="M145.5 42.5l-14 34 13 11z"/><path fill="#c2d0d6" d="M8.5 63.5l76-2-2 54z"/><path fill="#99b6c7" d="M21.5 61.5l41-77 4 31z"/><path fill="#73888a" d="M45.5 32.5l-18 4-16-7z"/><path fill="#dbe2e6" d="M84.5 47.5l-11 8 31 2z"/><path fill="#000700" d="M66.5 47.5l1 1-3 3z"/><path fill="#142327" d="M44.5 29.5l-2 2 1 6z"/><path fill="#b0bfca" d="M154.5 54.5l48-28-23 29z"/><path fill="#808383" d="M190.5 55.5l9 5h-12z"/><path fill="#415961" d="M9.5 57.5l4-9-1 11z"/><path fill="#aac6d3" d="M-7.5 49.5l36 4-44 7z"/><path fill="#d1d6d6" d="M210.5-3.5l5 100-39 11z"/><path fill="#c0cdd5" d="M147.5 78.5l3-45 8 35z"/><path fill="#7aa7c3" d="M213.5 30.5l-107-40 109 1z"/><path fill="#aabfca" d="M39.5 15.5l-7 21 13 27z"/><path fill="#e3dfdc" d="M185.5 110.5l-24-51 32 1z"/><path fill="#adc5d7" d="M112.5 33.5l38 14-63-1z"/><path fill="#a1bdcb" d="M44.5 85.5l-21-28-34 58z"/><path fill="#3c494c" d="M45.5 46.5l-3 11v-7z"/><path fill="#000e13" d="M135.5 28.5v4l3 1z"/><path fill="#c1ced3" d="M53.5 50.5l-8-23-3 42z"/><path fill="#001816" d="M26.5 34.5l5-1-1-2z"/><path fill="#2e424b" d="M154.5 31.5l4 2v-4z"/><path fill="#b7c3ca" d="M127.5 72.5l5-13 38 11z"/><path fill="#b1c8d3" d="M38.5 43.5l-30-2 13 7z"/><path fill="#213739" d="M125.5 48.5l3 3-2-6z"/><path fill="#2b3e46" d="M28.5 56.5l-4 3 6 2z"/><path fill="#9ea1a2" d="M215.5 72.5l-30-2 24-5z"/><path fill="#a4b3bc" d="M17.5 69.5l6-11 39 11z"/><path fill="#7eaac1" d="M31.5-15.5l29 29-76 33z"/><path fill="#072028" d="M14.5 52.5l-3-5h2z"/><path fill="#d8e5ea" d="M63.5 56.5l-14-5-8 4z"/><path fill="#dee6e8" d="M83.5 33.5l-19 6h33z"/><path fill="#a7c3d2" d="M121.5 32.5l23 2-20 7z"/><path fill="#9cbacd" d="M68.5 11.5l-38 28 4-17z"/><path fill="#d2d7da" d="M77.5 53.5l5-29-14-4z"/><path fill="#d8d4d4" d="M192.5 42.5l-23 19 23-8z"/><path fill="#c5d6db" d="M105.5 60.5l24-11-16 1z"/><path fill="#94a9b3" d="M126.5 73.5l-14-5 30 1z"/><path fill="#d8dfe2" d="M82.5 115.5l89-45-87 1z"/><path d="M40.5 56.5l-1 1 3 2z"/><path fill="#455051" d="M95.5 29.5l-4 3 2 3z"/><path fill="#b7cad3" d="M57.5-2.5l69 10-27 27z"/><path fill="#dadee0" d="M80.5 24.5l11 13v-22z"/><path fill="#a1b8c9" d="M180.5 26.5l-38 14 35 17z"/><path fill="#131e21" d="M55.5 49.5l2 3-1-7z"/><path fill="#dde4e7" d="M62.5 46.5h-21l13-4z"/><path fill="#cad6dc" d="M95.5 79.5l-61 36 46-64z"/><path fill="#adb8bd" d="M58.5 68.5l37-1-13 7z"/><path fill="#9cb4c4" d="M170.5 19.5l45 33v-31z"/><path fill="#242c2b" d="M190.5 59.5v-2l-2 1z"/><path fill="#b9d2dc" d="M45.5 54.5l-19 1 1-5z"/><path fill="#4f666e" d="M34.5 57.5v-9l4-3z"/><path fill="#b0c6d1" d="M26.5 115.5l5-70 15 28z"/><path fill="#455152" d="M56.5 54.5l1 8-3-3z"/><path fill="#d2dadc" d="M60.5 35.5l-4 31 14 2z"/><path fill="#83a0b2" d="M110.5 35.5l20 5-19 1z"/></g></svg>