<svg xmlns="http://www.w3.org/2000/svg" viewBox="0 0 400 200"><path fill="#acc0ca" d="M0 0h400v200H0z"/><g stroke-opacity=".5" fill="none" stroke-width=".8"><path stroke="#fffff6" d="M54.9 198.7q123.9-1.6 344.1-1"/><path stroke="#3a5050" d="M158.7 120q-135.3-6.1-170-.9"/><path stroke="#fffff5" d="M79 187.6q269.8 26.8 307-44.5m11.6 3.5q-122.7 77.6-301 22.9"/><path stroke="#fffff4" d="M82 196q50.6-1.8 332.1-1"/><path stroke="#fffef5" d="M409.7 199.6q-34.8-.6-360.8.3"/><path stroke="#3c4745" d="M374 119.4q-98.2-2.3-112.1 1"/><path stroke="#13353e" d="M-24.2 106q0-8.6 111.9-5.5"/><path stroke="#fffef4" d="M95 161.3q148.7 63 294.3-12.4"/><path stroke="#fffcf3" d="M84.2 187.3q317.8-1.8 323.6 1.3"/><path stroke="#fffaf2" d="M95.7 183.4q280.2.4 313.6.7"/><path stroke="#fff9f0" d="M108.3 155.7q208.6 68.5 308.1-41"/><path stroke="#346d87" d="M22.9 147Q38.3 31.4-24.2-24.2"/><path stroke="#fffbf2" d="M406 188.3Q238.6 199 85.6 186.5"/><path stroke="#2f4e58" d="M254.7 67.3q57.1-2 169.5-1.9"/><path stroke="#082d37" d="M291.1 61.2q5.1 37 4.5 67.4"/><path stroke="#4f666f" d="M369.2 100.6q-93-2.3-153.9 1"/><path stroke="#356b82" d="M34.6 127.7q67-85.1-41.3-132.6"/><path stroke="#264348" d="M-5 117.3q47.1.3 94.9 1.5"/><path stroke="#50646d" d="M397.9 82q-153.2 3.2-211.5-1.5"/><path stroke="#304e53" d="M34 67.5q39.4 1 81-.1"/><path stroke="#fffbf2" d="M395.7 149.2q-16.8 75-294 13"/><path stroke="#607578" d="M334.8 102q-292.1-8-359 9.4"/><path stroke="#fff7f0" d="M111.2 131.4q6.7 55.2 287.5 50.1"/><path stroke="#607077" d="M174 82.2Q10.2 83.9-.6 81.2"/></g></svg>