<svg xmlns="http://www.w3.org/2000/svg" viewBox="0 0 400 200"><path fill="#acc0ca" d="M0 0h400v200H0z"/><g fill-opacity=".5"><path fill="#f5f0ea" d="M78.8 224.2h318.9l2.5-102.5-292.8 5.5z"/><path fill="#5f91aa" d="M-2.6 126.6l86.8-2.2 28.2-130L1-24.1z"/><path fill="#79a3bc" d="M282-23.5L424.1 5.9l-126.9 153-92-89z"/><path fill="#cfd3d5" d="M80.3 115.6l110-139.8 36.5 48-51.2 87.5z"/><path fill="#42595a" d="M389.5 90l5-12.9-40.8-6.1 8.1-13.3z"/><path fill="#428db4" d="M30.5 37.7l18.2-62-73 21L-.7 37.3z"/><path fill="#8f9a9e" d="M345.4 143.8L88 139l130-2 194.7 5.6z"/><path fill="#f2ede9" d="M378.1 157.7l-205.5 20.5-13.9 46H357z"/><path fill="#94b0bd" d="M4.4 224.1L-24.2 130 136-24.2 34.3 224.2z"/><path fill="#586664" d="M33.2 119.5l126.3-.9-129-4.3L12 118z"/><path fill="#687c7e" d="M-20.6 69.5l139.7-.1L266.9 67l-180-2.9z"/><path fill="#76888a" d="M303.1 104L170 98.6l141.8-2.3 16.2 33z"/><path fill="#586b68" d="M217.8 118.3V94.8l14.6 8.9-32.2 14z"/><path fill="#60716f" d="M113.3 54.2l-2.8 11.3-.7 44.6 4 18.8z"/><path fill="#233430" d="M358.6 119l-20.1-.5 2.8-7.8 14 7.8z"/><path fill="#b2c5cf" d="M278.4 180.2l27.8-17.5-50-113.8-38.9 63.6z"/><path fill="#28454a" d="M293.9 62.8l-10 .6 8.7 13 3.4-11.9z"/><path fill="#717a78" d="M217.6 119.2l37.5-1.8 4-2.7 165.1 6.3z"/><path fill="#748382" d="M44.5 94.6l97.7 5-98.3 6.4 4.7-4.8z"/><path fill="#5f6966" d="M174.5 128.7l-15.7-42.2-.7 9 21.4 25.2z"/><path fill="#143033" d="M263 130l-1-11-1.4-5.8-5.8.2z"/><path fill="#2e4443" d="M294.5 114.9l1.6-24.5 1.6 39.7-9.4-17.8z"/><path fill="#bcced5" d="M41.2 168.7l170 55.5L72.4 135l33.4-95.5z"/><path fill="#75a4c3" d="M261 10.6l-67-27.7 213.8-7.1.3 77.6z"/><path fill="#d0d3d6" d="M270.1 198.3l68.8-117 85.3 34.5-120.5-4.6z"/></g></svg>