<svg xmlns="http://www.w3.org/2000/svg" viewBox="0 0 400 200"><path fill="#acc0ca" d="M0 0h400v200H0z"/><g fill-opacity=".5"><path fill="#f5f0ea" d="M96 124.2h304.8v76.6H96z"/><path fill="#5e8fa7" d="M.8.8h89v125H.8z"/><path fill="#709ebc" d="M236.7.8h164v82.8h-164z"/><path fill="#93adb9" d="M208.6 52.3h118.7V143H208.6z"/><path fill="#dddcdc" d="M136.7 29h48.5v85.8h-48.5z"/><path fill="#5c6563" d="M21 116.4h370.4v3.1H21.1z"/><path fill="#639ebf" d="M.8.8h123.4v37.5H.8z"/><path fill="#f3eeea" d="M168 171h201.5v29.8H168z"/><path fill="#415e65" d="M277.3 97.7h37.5v7.8h-37.5z"/><path fill="#4e5b55" d="M110.2 64.8h4.6v62.5h-4.6z"/><path fill="#6f7b80" d="M105.5 138.3H271v3.1H105.5z"/><path fill="#cdd8df" d="M32 83.6h218.8V96H32z"/><path fill="#000e05" d="M360.2 61.7h9.3v11h-9.3z"/><path fill="#86aec1" d="M.8 125.8h40.6v75H.8z"/><path fill="#3c4d4a" d="M39.8 66.4h150V68h-150z"/><path fill="#555857" d="M289.8 141.4h111v1.6h-111z"/><path fill="#03190b" d="M383.6 79h7.8v10.8h-7.8z"/><path fill="#dce2e5" d="M29 107h157.7v6.3H29z"/><path d="M341.4 113.3h7.8v6.2h-7.8z"/><path fill="#687a7b" d="M83.6 97.7h215.6v3H83.6z"/><path fill="#536b6e" d="M161.7 64.8h159.4V68H161.7z"/><path fill="#d6d3d4" d="M349.2 86.7h51.6V118h-51.6z"/><path d="M188.3 97.7h4.7v9.3h-4.7z"/><path fill="#d1d8dc" d="M177.3 107h78.2v32.8h-78.2z"/><path fill="#142c2c" d="M143 113.3h6.2v12.5H143z"/></g></svg>