<svg xmlns="http://www.w3.org/2000/svg" viewBox="0 0 400 200"><path fill="#acc0ca" d="M0 0h400v200H0z"/><g transform="translate(.8 .8) scale(1.5625)" fill-opacity=".5"><ellipse fill="#f7f1eb" cx="200" cy="111" rx="146" ry="33"/><ellipse fill="#5d90aa" cx="18" cy="11" rx="47" ry="71"/><ellipse fill="#7ca3bc" cx="201" cy="23" rx="56" ry="58"/><ellipse fill="#cdd2d4" cx="103" cy="65" rx="31" ry="58"/><ellipse fill="#697776" cx="115" cy="74" rx="127" ry="2"/><ellipse fill="#8a979c" cx="178" cy="89" rx="232" ry="2"/><ellipse fill="#ded7d2" cx="239" cy="76" rx="16" ry="24"/><ellipse fill="#f5efea" cx="196" cy="125" rx="47" ry="18"/><ellipse fill="#687e82" cx="105" cy="42" rx="152" ry="2"/><ellipse fill="#4d5c5f" cx="110" cy="63" rx="153" ry="1"/><ellipse fill="#408cb3" cx="8" cy="2" rx="16" ry="22"/><ellipse fill="#72a4c3" cx="235" cy="3" rx="70" ry="18"/><ellipse fill="#01201a" cx="188" cy="76" rx="2" ry="6"/><ellipse fill="#87afc3" cx="2" cy="126" rx="26" ry="52"/><ellipse fill="#00150a" cx="247" cy="53" rx="2" ry="6"/><ellipse fill="#546267" cx="103" cy="52" rx="148" ry="1"/><ellipse fill="#88b1c9" cx="50" cy="14" rx="32" ry="28"/><ellipse fill="#c7d3d7" cx="62" cy="78" rx="7" ry="55"/><ellipse fill="#c3d2dc" cx="152" cy="57" rx="143" ry="4"/><ellipse fill="#000e11" cx="166" cy="75" rx="2" ry="5"/><ellipse fill="#c5d1d7" cx="199" cy="70" rx="188" ry="4"/><ellipse fill="#485851" cx="71" cy="72" rx="2" ry="13"/><ellipse fill="#cad6db" cx="137" cy="83" rx="111" ry="5"/><ellipse fill="#424c4c" cx="251" cy="75" rx="67" ry="1"/><ellipse fill="#bccfd8" cx="129" cy="12" rx="29" ry="22"/></g></svg>