<svg xmlns="http://www.w3.org/2000/svg" viewBox="0 0 400 200"><path fill="#9e8a6e" d="M0 0h400v200H0z"/><path fill="#ffffeb" fill-opacity=".5" d="M-3.2-54.3l398-20.9 6.8 131-397.9 21z"/><path fill="#271602" fill-opacity=".5" d="M5.2 117.5l397.5 27.8-9.5 135.6-397.5-27.8z"/><path fill="#836e51" fill-opacity=".5" d="M398 165.2l-398.4-7 .8-46.8 398.4 7z"/><path fill="#251a0c" fill-opacity=".5" d="M416.5 202.3L78.8 232l-3.2-36 337.8-29.6z"/><path fill="#f7ddb6" fill-opacity=".5" d="M-27.2-60.3l193.3-13.5 9.5 135.6-193.3 13.5z"/><path fill="#f7deb7" fill-opacity=".5" d="M171.9-35.2h89V71.1h-89z"/><path fill="#b49570" fill-opacity=".5" d="M283.6 76.5l4.2-34.2 139.6 17.2-4.2 34.1z"/><path fill="#a58864" fill-opacity=".5" d="M109.4 86.7V64.8h45.3v22z"/><path fill="#a58b6a" fill-opacity=".5" d="M243.2 126.7l-13-56.4 115.7-26.7 13 56.4z"/><path fill="#ffe6c4" fill-opacity=".5" d="M397.5 60.3l-20.7-11L401 3.8l20.7 11z"/><path fill="#d2c1a3" fill-opacity=".5" d="M115.1-9.3L216.7-11l1 59.3-101.5 1.8z"/><path fill="#ecd7b5" fill-opacity=".5" d="M296-7l13.4 57.8-88.3 20.4-13.3-57.9z"/><path fill="#766348" fill-opacity=".5" d="M111.9 120.1l-4.8 34-139.3-19.5 4.8-34z"/><path fill="#827155" fill-opacity=".5" d="M333.6 147.7H177.3v-18.8h156.3z"/><path fill="#6e5c42" fill-opacity=".5" d="M362.1 176.2l-5.1-41.8 48-6 5.2 42z"/></svg>