<svg xmlns="http://www.w3.org/2000/svg" viewBox="0 0 800 400"><path fill="#9e8a6e" d="M0 0h800v400H0z"/><g fill-opacity=".5"><path fill="#ffffea" d="M32.8-48.4L848.4 64-48.4 176.6z"/><path fill="#261501" d="M-48.4 186l71.8 262.4 825-71.8z"/><path fill="#eed6b1" d="M786-48.4L-48.5 89l896.8 90.6z"/><path fill="#392c17" d="M136 395.3l712.4 37.5-59.3-184.4z"/><path fill="#907859" d="M848.4 92.2l-896.8 125 553 153.1z"/><path fill="#e9d6b5" d="M-48.4-1.6l896.8 3.2-434.3 153z"/><path fill="#967e5d" d="M-7.8 332.8L314 126.6l-362.5 31.2z"/><path fill="#6e5b41" d="M848.4 264L401.6 386l-450-134.4z"/><path fill="#ffffe7" d="M798.4 111l-103-22 153-25z"/><path fill="#342817" d="M764 448.4l-434.3-65.6 518.7-59.4z"/><path fill="#a68d6d" d="M267.2 176.6l581.2 125L717.2 85.9z"/><path fill="#f6deba" d="M189 142.2l-237.4-12.5L20.3-48.4z"/><path fill="#d7c6a8" d="M82.8 92.2L595.3-48.4 776.6 95.3z"/><path fill="#f9e8c7" d="M417.2-48.4l156.2 6.2L489.1 136z"/><path fill="#a28a6a" d="M7.8 223.4L-48.4 136l353 40.7z"/><path fill="#a89071" d="M848.4 251.6l-525-103.2L786 114.1z"/><path fill="#3c2f1d" d="M832.8 392.2l-225 56.2 65.6-140.6z"/><path fill="#d8c8aa" d="M848.4 36L589.1-32.9l-150 175z"/><path fill="#55442c" d="M411 345.3l-440.7-25-18.7 121.9z"/><path fill="#604e34" d="M676.6 342.2L345.3 389l203.1-106.3z"/><path fill="#f3e0bf" d="M267.2 51.6l-290.6 6.2L20.3-48.4z"/><path fill="#766248" d="M504.7 295.3l-553.1 37.5 190.6-109.4z"/><path fill="#f4e1be" d="M517.2 70.3l40.6 46.9-218.7 18.7z"/><path fill="#7a674a" d="M798.4 339l-193.7-59.3 225-28.1z"/><path fill="#a28b6b" d="M32.8 170.3l468.8 68.8-231.3-112.5z"/><path fill="#f2ddb8" d="M117.2 148.4l203.1-31.2-112.5-21.9z"/><path fill="#cab798" d="M401.6 101.6l-150-9.4 40.6-50z"/><path fill="#a99071" d="M445.3 148.4l196.9-56.2 206.2 87.5z"/><path fill="#cdbda0" d="M154.7 82.8l-81.3-25-96.8 34.4z"/><path fill="#d2c1a2" d="M739 95.3L848.5-7.8 454.7 79.7z"/><path fill="#fff1cf" d="M817.2 54.7l3.1 59.4-75-18.8z"/><path fill="#867458" d="M754.7 292.2l-356.3-37.5 190.7-31.3z"/><path fill="#eddaba" d="M398.4 104.7l-181.2-6.3L339 136z"/><path fill="#9a8466" d="M617.2 267.2L492.2 164l356.2 84.3z"/><path fill="#a78e6e" d="M236 126.6l193.7 75 31.2-56.3z"/><path fill="#382c19" d="M161 386l215.6 62.4 9.3-59.3z"/><path fill="#ecdbbe" d="M232.8-48.4h368.8l-9.4 100z"/><path fill="#cbb99d" d="M476.6-48.4l-147 65.6 72 15.6z"/><path fill="#cdbb9d" d="M698.4-48.4l-87.5 150-65.6-9.4z"/><path fill="#d5c098" d="M-7.8 111l137.5 34.3-159.4 3.1z"/><path fill="#ebd9b7" d="M523.4 48.4l-50 87.5H332.8z"/><path fill="#b39978" d="M811 114L670.2 95.4l175 159.4z"/><path fill="#604d32" d="M520.3 311l-350 46.8 231.3 31.3z"/><path fill="#675338" d="M829.7 329.7l-153.1-25 68.7 46.9z"/><path fill="#725c44" d="M-48.4 307.8l406.2 18.8-268.7-90.7z"/><path fill="#d3c2a3" d="M448.4 29.7L326.6 98.4 473.4 86z"/><path fill="#9d8768" d="M173.4 242.2l53.2-90.6-275 3z"/><path fill="#403220" d="M557.8 436l125-112.6 140.6 65.7z"/><path fill="#6d593f" d="M617.2 286l-50 71.8-212.5-37.5z"/><path fill="#ead9ba" d="M645.3 76.6l40.6-3.2-40.6-50z"/><path fill="#978163" d="M301.6 261v-93.8l-122 68.7z"/><path fill="#4a3d25" d="M504.7 386l-100-15.7 143.7-25z"/><path fill="#7c6b4f" d="M679.7 289l-175-40.6-121.9 59.4z"/><path fill="#d1c0a3" d="M664 39l184.4-3-153 56.2z"/><path fill="#7b6e52" d="M17.2 214L164 236l-212.5 25z"/><path fill="#53422d" d="M4.7 364l-12.5 56.3 193.7-31.2z"/><path fill="#e8d6b6" d="M148.4 1.6L-48.4 64l268.7 9.3z"/><path fill="#f0dcb8" d="M773.4 82.8l15.7 28.1-84.4-21.8z"/><path fill="#ead7b7" d="M214 101.6L-48.3 82.8 35.9 136z"/><path fill="#c9b999" d="M167.2-48.4L270.3 7.8 139.1-1.6z"/><path fill="#433522" d="M576.6 351.6l259.3-9.4-25 65.6z"/><path fill="#6d573d" d="M654.7 354.7L551.6 289l115.6 12.5z"/><path fill="#a58d6e" d="M104.7 157.8l181.2 21.9-3-50z"/><path fill="#eddbb9" d="M573.4 107.8l-103-31.2-56.3 59.3z"/><path fill="#9b8567" d="M139 220.3l-187.4-90.6 34.3 78.1z"/><path fill="#a99072" d="M801.6 176.6L648.4 95.3 436 151.6z"/><path fill="#ead7b7" d="M414 61l-90.6-12.6 59.4-21.8z"/><path fill="#b9a380" d="M767.2 129.7l75-6.3-128.1-28z"/><path fill="#e8d5b4" d="M298.4 126.6l65.7 6.2 46.8-37.5z"/><path fill="#756147" d="M736 342.2l96.8-59.4-106.2-12.5z"/><path fill="#413220" d="M748.4 448.4h-50l22-131.2z"/><path fill="#f4e3c2" d="M498.4-48.4l-6.2 128-78.1-128z"/><path fill="#6d5640" d="M64 295.3L-48.3 361l21.8-112.5z"/><path fill="#f1dcbd" d="M307.8-23.4l-12.5 53 125-78z"/><path fill="#d5c2a4" d="M429.7 76.6l-168.8-47 84.4 75z"/><path fill="#9d8668" d="M167.2 220.3l209.4-50 146.8 71.9z"/><path fill="#77664a" d="M286 173.4h18.7L292.2 186z"/><path fill="#d2bfa1" d="M98.4 61L51.6 82.7l134.3 9.4z"/><path fill="#d4c3a4" d="M514 57.8l22 43.8L573.3 14z"/><path fill="#a58d6e" d="M686 207.8l162.4-100-56.2 150z"/><path fill="#deccb0" d="M717.2 98.4L835.9 11l-43.7 59.4z"/><path fill="#c6b28d" d="M139 148.4l-56.2-15.6-43.7 15.6z"/><path fill="#725e43" d="M326.6 254.7L439 326.6l-40.7-56.3z"/><path fill="#f0dcba" d="M239 129.7l-3-28.1-68.8 15.6z"/><path fill="#e7d5b9" d="M639 45.3l59.4-18.7-40.6-3.2z"/><path fill="#a99170" d="M276.6 182.8l18.7-53.1 59.4 6.2z"/><path fill="#5e4c32" d="M236 382.8l193.7-28.1-256.3-34.4z"/><path fill="#3d301e" d="M845.3 448.4l-175-128-56.2 115.5z"/><path fill="#433721" d="M632.8 336l-81.2 31.2 103 3.1z"/><path fill="#392b1a" d="M342.2 373.4l12.5 31.3-59.4-9.4z"/><path fill="#e1cfb1" d="M661-23.4l-78.2 53-103.1-6.2z"/><path fill="#a48d6e" d="M639 157.8L311 136l168.7 62.5z"/><path fill="#dfceaf" d="M104.7 17.2l146.9 40.6-72 6.3z"/><path fill="#715c44" d="M320.3 342.2l-96.9-62.5 253.2 28.1z"/><path fill="#3a2e1d" d="M823.4 448.4L629.7 361l-237.5 37.5z"/><path fill="#7b6a4b" d="M76.6 248.4h156.2l-81.2-21.8z"/><path fill="#9a8366" d="M473.4 223.4l159.4-18.7 93.8 59.4z"/><path fill="#50402a" d="M351.6 389l31.2-25 34.4 31.3z"/><path fill="#5c4a32" d="M186 395.3L20.2 323.4l115.6-3z"/><path fill="#e5d1b2" d="M370.3 104.7l65.6 31.2 72-9.3z"/></g></svg>