<svg xmlns="http://www.w3.org/2000/svg" viewBox="0 0 400 200"><path fill="#9e8a6e" d="M0 0h400v200H0z"/><path fill="#ffffeb" fill-opacity=".5" d="M-.8-23.1l398-20.9 5.1 100L4.5 76.7z"/><path fill="#261602" fill-opacity=".5" d="M4.5 120.9l397.9 20.8-5.3 101.5-398-20.9z"/><path fill="#251b0c" fill-opacity=".5" d="M73.3 197l358-31.3 3.2 35.8-358 31.3z"/><path fill="#856f52" fill-opacity=".5" d="M396.4 164.4l-398.4-7 1-48.4 398.4 7z"/><path fill="#f4dab3" fill-opacity=".5" d="M271.1 68.2l-343.5 12-3.4-96.8 343.5-12z"/><path fill="#b39571" fill-opacity=".5" d="M277.4 38.5l122.2 17.2-6.7 48-122.2-17.2z"/><path fill="#9e8462" fill-opacity=".5" d="M165.6 93.3l-75 4-1.5-29.7 75-4z"/><path fill="#e8d4b3" fill-opacity=".5" d="M189.7-41.8l110.2-29.5 30.7 114.7-110.2 29.5z"/><path fill="#a78d6d" fill-opacity=".5" d="M340.8 45.2l6.5 30.6L232.7 100l-6.5-30.5z"/><path fill="#705d42" fill-opacity=".5" d="M121.9 119.5l-3.6 51.4-198-13.8 3.6-51.5z"/><path fill="#fff1ce" fill-opacity=".5" d="M373.2 53.1l2.4-20.1 49.7 6-2.5 20.2z"/><path fill="#524029" fill-opacity=".5" d="M-37.3 155.8l244.4 21.4-5.7 65.4L-43 221.2z"/><path fill="#807153" fill-opacity=".5" d="M404.7 147.7h-211v-18.8h211z"/><path fill="#d2c1a4" fill-opacity=".5" d="M133.3-22.6l87.5 3-2.5 71.9-87.5-3z"/><path fill="#382b1a" fill-opacity=".5" d="M307.8 202l30.6-47.2 21 13.6-30.6 47.2z"/><path fill="#ac9372" fill-opacity=".5" d="M426.8 62.8l-12.7 72.4-86.2-15.2 12.7-72.4z"/><path fill="#f2e1c2" fill-opacity=".5" d="M93.1 20.7L-83.2 55l-8.4-43L84.8-22.1z"/><path fill="#b39d77" fill-opacity=".5" d="M63.4 69.5l-.2 11-87.5-1.6.2-11z"/><path fill="#d9c1a0" fill-opacity=".5" d="M399.6-18l7.6 54L302 51l-7.6-54.2z"/><path fill="#726045" fill-opacity=".5" d="M363.4 176.7l-5.8-41.8 71.1-10 6 41.8z"/><path fill="#a08767" fill-opacity=".5" d="M111.8 125.2l3-59.3L196 70l-3 59.3z"/><path fill="#f5e5c6" fill-opacity=".5" d="M289.1-5l-46.8 43.6-29.9-32L259.3-37z"/><path fill="#eedbbb" fill-opacity=".5" d="M236.2 71.3l-96.7-5.1.9-17.2 96.7 5.1z"/><path fill="#cab89a" fill-opacity=".5" d="M315 49l-52.7-7.5 2.4-17 52.6 7.4z"/><path fill="#e9d6b6" fill-opacity=".5" d="M109.7 69.6L-23 74.2l-.8-20.3L109 49.3z"/><path fill="#9f8666" fill-opacity=".5" d="M210.3 87.4l165 14.4-2.8 31.1-165-14.4z"/><path fill="#857254" fill-opacity=".5" d="M-28.8 107.8l88.8-6.2 1.6 23.4-88.8 6.2z"/><path fill="#705b42" fill-opacity=".5" d="M82.3 161l1.5-21.8 198 13.8-1.6 21.9z"/><path fill="#3b2f1c" fill-opacity=".5" d="M323.4 195.4l-22.9 5.3-6.7-29 22.9-5.2z"/><path fill="#5b4a30" fill-opacity=".5" d="M176 194.8l-1.2-9.3 107-13.1 1.2 9.3z"/><path fill="#837055" fill-opacity=".5" d="M207 125.9l92-6.4 1.8 25-92 6.3z"/><path fill="#9f8866" fill-opacity=".5" d="M51.7 81.8l-.3-1.5 95.4-16.8.3 1.5z"/><path fill="#d0bd9e" fill-opacity=".5" d="M108 46.4l1.5-17.1 81 7-1.6 17.2z"/><path fill="#9a8262" fill-opacity=".5" d="M47.3 99.3L53.5 80l107 34.8-6.2 19.3z"/><path fill="#aa9171" fill-opacity=".5" d="M324.6 46.6l4.4 16.6-120.7 32.4-4.5-16.6z"/><path fill="#b59d7c" fill-opacity=".5" d="M457.4 70l-4.8 22.9L341 69l4.9-22.9z"/><path fill="#cebb9d" fill-opacity=".5" d="M107.1 42.3l-.3 6.2-93.6-4.9.3-6.2z"/><path fill="#e7d5b6" fill-opacity=".5" d="M95.6-24.3l10.7-15.3 93.5 65.4L189 41.2z"/><path fill="#ffebcf" fill-opacity=".5" d="M382.2 48.7L407.5 15l8.8 6.6-25.4 33.7z"/><path fill="#67543a" fill-opacity=".5" d="M221.7 177.6l-2.1-20.2 110.3-11.6L332 166z"/><path fill="#ebdab9" fill-opacity=".5" d="M337.7 14.2l2.6 24.8-14 1.5-2.6-24.9z"/><path fill="#cab99f" fill-opacity=".5" d="M168 8l40.4-12.4 3.2 10.5-40.3 12.3z"/><path fill="#f0debc" fill-opacity=".5" d="M257 57.8l-51.7 12-4.6-19.8 51.8-12z"/><path fill="#382a19" fill-opacity=".5" d="M188.3 189.9l1 9.3-88.6 9.3-1-9.3z"/><path fill="#cebea2" fill-opacity=".5" d="M73.4 4.9l.1-9.4 67.2 1.2-.2 9.4z"/><path fill="#9d8769" fill-opacity=".5" d="M277 74.7l83.5 20.7-11 44-83.4-20.8z"/><path fill="#6e5740" fill-opacity=".5" d="M-20.5 136.5l20-12 22.6 37.4L2 174z"/><path fill="#d4c4a5" fill-opacity=".5" d="M208.4 49.8L203 22.2l24.6-4.8 5.3 27.6z"/><path fill="#9f8564" fill-opacity=".5" d="M-38 113l-3.2-31.2L42.7 73l3.2 31.1z"/><path fill="#e8d7b7" fill-opacity=".5" d="M52.7 14.7l79.7-2.8.8 25-79.6 2.8z"/></svg>