<svg xmlns="http://www.w3.org/2000/svg" viewBox="0 0 400 200"><path fill="#9e8a6e" d="M0 0h400v200H0z"/><path fill="#ffffea" fill-opacity=".5" d="M-.8-.8l397.5-27.8 5.6 81L5 80.2z"/><path fill="#271602" fill-opacity=".5" d="M5.2 117.5l397.5 27.8-9.5 135.6-397.5-27.8z"/><path fill="#846e51" fill-opacity=".5" d="M398 166L-.4 159l.9-48.4 398.3 7z"/><path fill="#251a0c" fill-opacity=".5" d="M74.8 196.1l373.6-32.7 3.4 39L78.2 235z"/><path fill="#f6dcb7" fill-opacity=".5" d="M-133.6-42.2h396.9v111h-396.9z"/><path fill="#b49672" fill-opacity=".5" d="M397.7 103.3L284 93.3l4.3-48.2 113.6 10z"/><path fill="#9e8361" fill-opacity=".5" d="M157.2 103.6l-78.9 11.1L72.5 73l78.9-11z"/><path fill="#fff5d4" fill-opacity=".5" d="M419.5 61.6l-44.6-7.9 4-23 44.7 7.8z"/><path fill="#a98f6c" fill-opacity=".5" d="M-75.9 80l249.7-13.1.5 11-249.6 13z"/><path fill="#aa9170" fill-opacity=".5" d="M253.8 101l-7.7-33.5 114.2-26.3 7.7 33.5z"/><path fill="#d8c7a8" fill-opacity=".5" d="M220.1 75.8l-96-33L143.9-15l96 33z"/><path fill="#f6e2c1" fill-opacity=".5" d="M279.8-39.7l18.7 61.3-64.2 19.6L215.5-20z"/><path fill="#6d5b41" fill-opacity=".5" d="M442.5 125l3.8 43.6-90.3 8-3.8-43.7z"/><path fill="#3e311e" fill-opacity=".5" d="M287.2 172.7l70.2-21.5 13.2 43.3-70.2 21.5z"/><path fill="#503e28" fill-opacity=".5" d="M203 245.5l-304.6-32 6.4-60.6 304.6 32z"/><path fill="#817054" fill-opacity=".5" d="M364.5 148L124 139.4l.5-14 240.5 8.4z"/><path fill="#766348" fill-opacity=".5" d="M120.8 157l-191.9-27 5-35.5 191.9 27z"/><path fill="#ddc5a2" fill-opacity=".5" d="M415 41L264 54.2l-2.4-28 151-13.2z"/><path fill="#f4e0bd" fill-opacity=".5" d="M188.7 72.6l-3-21.7 89.7-12.6 3 21.7z"/><path fill="#f2e2c2" fill-opacity=".5" d="M-67 74.6L-86 37 68.4-41.8 87.6-4.2z"/><path fill="#a68c6d" fill-opacity=".5" d="M309.4 131.4l-1.5-42.1 100-3.5 1.4 42.1z"/><path fill="#d0be9f" fill-opacity=".5" d="M98.4 48.4V31.3h120.3v17.1z"/><path fill="#9f8768" fill-opacity=".5" d="M119.7 106.2l3-42 43.6 3-3 42z"/><path fill="#d8c2a3" fill-opacity=".5" d="M355.5 52.9L318.2 6.7l71.6-58 37.4 46.1z"/><path fill="#827155" fill-opacity=".5" d="M295.7 121.3l2 23.3-85.6 7.5-2-23.3z"/><path fill="#9f8667" fill-opacity=".5" d="M330.6 72.7l3.7 42L136.6 132l-3.7-42z"/><path fill="#b79f7d" fill-opacity=".5" d="M448.9 87.8L345.8 69.7l3.8-21.6 103 18.2z"/><path fill="#9d8464" fill-opacity=".5" d="M-3.6 75.7L90 77.4l-.5 32.8-93.8-1.6z"/><path fill="#ecdab9" fill-opacity=".5" d="M237.2 69.7l-34.4 1.2-1-26.5 34.4-1.2z"/><path fill="#705a42" fill-opacity=".5" d="M183.5 138.6l-1.6 31.3-192-10.1 1.7-31.2z"/><path fill="#e5d1b0" fill-opacity=".5" d="M58.7 74.3L57 41.5l32.7-1.7 1.8 32.8z"/><path fill="#635036" fill-opacity=".5" d="M180.7 177.3l134.9-33.6 5.3 21.2-135 33.6z"/><path fill="#aa9071" fill-opacity=".5" d="M328.5 45.6l6 22.6-70.8 19-6.1-22.6z"/><path fill="#d3c0a3" fill-opacity=".5" d="M-22.9 41l.8-10.9 121.6 8.5-.8 11z"/><path fill="#cabaa0" fill-opacity=".5" d="M170 15.3l.6-29.7 42.2.7-.6 29.7z"/><path fill="#ffeed1" fill-opacity=".5" d="M391.2 57.3l-9-10.7 25-21.1 9.1 10.7z"/><path fill="#efdbbb" fill-opacity=".5" d="M135.5 63.6l1.1-12.5 63.8 5.6-1 12.5z"/><path fill="#77654a" fill-opacity=".5" d="M424.4 160.5l-132.6-7 1-18.7 132.6 7z"/><path fill="#d2b88b" fill-opacity=".5" d="M1.5 70.8l57.6-4 .4 4.6-57.7 4z"/><path fill="#fae5c2" fill-opacity=".5" d="M342.5 45l.3-1.6 56.9 10-.3 1.6z"/><path fill="#eddbbb" fill-opacity=".5" d="M120.6 16.3l-5 26.1-69-13.4 5-26z"/><path fill="#d3c1a2" fill-opacity=".5" d="M292.6 56.8l-40.3-17.1 9.8-23 40.3 17z"/><path fill="#ad9271" fill-opacity=".5" d="M248.1 89l-82.7-3 .6-17 82.7 2.9z"/><path fill="#725f41" fill-opacity=".5" d="M328.3 175.8l-11.7-4.4 6.7-17.5 11.7 4.4z"/><path fill="#867355" fill-opacity=".5" d="M-39.5 113.2L68 105.6l1.2 17.2-107.5 7.5z"/><path fill="#3a2d1b" fill-opacity=".5" d="M91.1 196.1l209-11 1 17.2-209.1 11z"/><path fill="#d4c3a6" fill-opacity=".5" d="M67.1-15.5l71 19-3.7 13.6-71-19z"/><path fill="#ead8b8" fill-opacity=".5" d="M337 14.2l-.5 26.6-15.6-.3.4-26.6z"/><path fill="#6e583e" fill-opacity=".5" d="M179.5 169.9l.5-14 114 4-.5 14z"/><path fill="#40311f" fill-opacity=".5" d="M375.3 183.4l-12.8 19.7-39.3-25.6 12.7-19.6z"/><path fill="#d1bfa0" fill-opacity=".5" d="M138.8 21.4l47.5 9.2-4.8 24.6-47.5-9.3z"/><path fill="#eddaba" fill-opacity=".5" d="M81.6 52.7l-2.8 20L20 64.6l2.8-20.1z"/><path fill="#a99071" fill-opacity=".5" d="M215.7 89l-2.9-13.8 88.7-18.8 2.9 13.7z"/><path fill="#d2bd9d" fill-opacity=".5" d="M322.6 5.9l-1.5 43.7-23.4-.8 1.5-43.7z"/><path fill="#e3ceb1" fill-opacity=".5" d="M268.2 17.6l30.6-45.4 22 14.9-30.5 45.3z"/><path fill="#d1c1a4" fill-opacity=".5" d="M449.5 8.5L349.5 49l-10-24.6 100-40.4z"/><path fill="#a48d6f" fill-opacity=".5" d="M63.8 97.1l-3.2-20L144 63.7l3.2 20.1z"/><path fill="#9b8365" fill-opacity=".5" d="M311 104l-.2 18.8-198.4-3.4.3-18.8z"/><path fill="#5d4b30" fill-opacity=".5" d="M31.2 169l2.2-14 174.4 27.6-2.2 14z"/><path fill="#ead8b5" fill-opacity=".5" d="M250.3 65.4l-32.4 5.1-1-6.2 32.4-5.1z"/><path fill="#746047" fill-opacity=".5" d="M355.6 165.2l-12.5-9.4 12.2-16.3 12.5 9.4z"/><path fill="#f0e1c1" fill-opacity=".5" d="M245.6 39.4L211.7.4 234.1-19 268 19.9z"/><path fill="#54442c" fill-opacity=".5" d="M295 176.3l.4 6.3-98.3 5.1-.3-6.2z"/><path fill="#dcc9a8" fill-opacity=".5" d="M-2.2 53.8l9.3-1.2L10 76 .7 77z"/><path fill="#745f45" fill-opacity=".5" d="M201.5 136.2l-3.5 32.6-91.6-9.6 3.4-32.7z"/><path fill="#3c2e1e" fill-opacity=".5" d="M280.9 207l3-28 118 12.4-3 28z"/><path fill="#af9676" fill-opacity=".5" d="M470.6 87.6l-8.3 26.9L328 73.4l8.2-27z"/><path fill="#edd9ba" fill-opacity=".5" d="M160 64.7l-71.8-1.3.2-14 71.9 1.2z"/><path fill="#e8d9b9" fill-opacity=".5" d="M169.6-16.5L177.8.3l-36.5 17.8-8.2-16.8z"/><path fill="#69523c" fill-opacity=".5" d="M143 97.3l8-9.6 1.3 1-8 9.6z"/><path fill="#705a42" fill-opacity=".5" d="M18.3 166.2l-29.4 4.7-5.6-35.5 29.3-4.7z"/><path fill="#ccb790" fill-opacity=".5" d="M12.3 73.3L13 67l57.6 5-.6 6.3z"/><path fill="#ead7b8" fill-opacity=".5" d="M203 26l-8.5 13.1-21-13.6 8.6-13z"/><path fill="#e9d8b8" fill-opacity=".5" d="M-18.3 27l77-20.6 4.9 18.1-77 20.6z"/><path fill="#988164" fill-opacity=".5" d="M188.2 117.7l-1.7 12.3-195-27.4 1.7-12.3z"/></svg>