<svg xmlns="http://www.w3.org/2000/svg" viewBox="0 0 256 128"><path fill="#9f8b6f" d="M0 0h256v128H0z"/><g fill-opacity=".5"><path fill="#ffffea" d="M-15.5 58.5l23-74 264 33z"/><path fill="#271602" d="M-14.5 59.5l20 84 266-23z"/><path fill="#f4dcb7" d="M245.5-15.5l-220 58 246 1z"/><path fill="#3d2e1a" d="M271.5 76.5l-243 49 233 18z"/><path fill="#897254" d="M-3.5 40.5l247 51-252 15z"/><path fill="#f4ddb9" d="M240.5-1.5l-243-14-13 68z"/><path fill="#756147" d="M125.5 122.5l-105-44 251 8z"/><path fill="#a28868" d="M271.5 88.5l-43-61-205 43z"/><path fill="#a08766" d="M8.5 82.5l98-44-122 17z"/><path fill="#e0d1b6" d="M271.5 40.5v-56l-182 11z"/><path fill="#2e2415" d="M113.5 126.5l145-21-3 38z"/><path fill="#ffebc8" d="M87.5 32.5h98l-51 14z"/><path fill="#dac8aa" d="M163.5-15.5l-110 48 218-3z"/><path fill="#ae9474" d="M267.5 92.5l-8-56-72-9z"/><path fill="#fcebca" d="M153.5 34.5l-19-50h53z"/><path fill="#fffee2" d="M236.5 30.5l31 7 4-25z"/><path fill="#3d2f1e" d="M203.5 138.5l68-2-56-40z"/><path fill="#9f886a" d="M-15.5 66.5l103-27 114 39z"/><path fill="#5a472f" d="M139.5 113.5l-129-17-26 38z"/><path fill="#d1bfa3" d="M262.5 18.5l-58-25-34 43z"/><path fill="#f4e2c1" d="M5.5-10.5l-21 31 99-6z"/><path fill="#ceba9c" d="M76.5 31.5l16-20 51 16z"/><path fill="#efdbba" d="M178.5 23.5l-90 16 51 5z"/><path fill="#aa9273" d="M271.5 54.5l-162 3 92-27z"/><path fill="#77634a" d="M183.5 115.5l1-40-114 13z"/><path fill="#907a5e" d="M261.5 90.5l-80-26-61 19z"/><path fill="#a78f6e" d="M138.5 45.5l-58-5-35 24z"/><path fill="#887659" d="M29.5 65.5l-12 14 63-1z"/><path fill="#a1896a" d="M-13.5 50.5l92-6-37 29z"/><path fill="#f3e0bf" d="M166.5 39.5l-28-10 50 2z"/><path fill="#685339" d="M188.5 90.5l23 18-93 5z"/><path fill="#d0c0a2" d="M109.5 7.5l4-23 40 40z"/><path fill="#edd9b8" d="M45.5 47.5l-58-19 120 3z"/><path fill="#322615" d="M126.5 143.5l-17-21-47 4z"/><path fill="#d0be9e" d="M222.5 28.5l-55-13 10 17z"/><path fill="#6f5a42" d="M102.5 104.5l-94-28-12 26z"/><path fill="#d2bf9f" d="M4.5 28.5l24-9 33 9z"/><path fill="#ae9676" d="M243.5 65.5l28-26-42-8z"/><path fill="#ceb98f" d="M11.5 46.5l32 1-19-6z"/><path fill="#e9d5b4" d="M77.5 37.5l39 6 30-15z"/><path fill="#7a664b" d="M227.5 85.5l44-5-21 29z"/><path fill="#413422" d="M271.5 127.5l-56-26-22 42z"/><path fill="#665239" d="M258.5 106.5l-18 7-32-18z"/><path fill="#594731" d="M110.5 115.5l-112-12-14 33z"/><path fill="#50402b" d="M125.5 127.5l-20-9 46-3z"/><path fill="#d4c2a6" d="M219.5 30.5l-1-46 53 21z"/><path fill="#edddbe" d="M208.5 8.5l-2 16h11z"/><path fill="#9c8469" d="M77.5 51.5l12 32 108-14z"/><path fill="#efddc0" d="M133.5 11.5l15-27 57 14z"/><path fill="#ccba9d" d="M55.5 2.5l-24-14 52 13z"/><path fill="#7c6a50" d="M15.5 84.5l-31-13 53-1z"/><path fill="#fee4c6" d="M271.5 37.5l-16-11-28 3z"/><path fill="#ac9474" d="M162.5 45.5l-36 9-24-11z"/><path fill="#d0bd9e" d="M88.5 29.5l38 5-34-19z"/><path fill="#eddaba" d="M99.5 13.5l34-1-7 8z"/><path fill="#edd9b8" d="M144.5 44.5l6-27 30 18z"/><path fill="#837154" d="M147.5 98.5l52-18-74 2z"/><path fill="#645136" d="M120.5 110.5l-65-9 39 21z"/><path fill="#725c44" d="M144.5 109.5l-39-28-56 18z"/><path fill="#eedbb9" d="M105.5 40.5l-25-10-25 9z"/><path fill="#9f886a" d="M-.5 47.5l-12 27 71-20z"/><path fill="#d5c2a2" d="M61.5 32.5l-27-6 45-2z"/><path fill="#e5d4b7" d="M189.5-1.5l-37 8 39 9z"/><path fill="#a88f71" d="M200.5 31.5l-40 10 96 34z"/><path fill="#9f886a" d="M271.5 83.5l-102-7 68-16z"/><path fill="#cebc9e" d="M185.5 22.5l13 9 9-33z"/><path fill="#443624" d="M271.5 131.5l-79-19 63-2z"/><path fill="#443321" d="M226.5 121.5l8-1-4-19z"/><path fill="#e2d0b4" d="M226.5 1.5l-21 10 38-5z"/><path fill="#766248" d="M198.5 86.5h27l-19 25z"/><path fill="#cebe9f" d="M209.5 15.5l28 9 10-15z"/><path fill="#806e51" d="M195.5 94.5l34-7-66-4z"/><path fill="#e7d4b6" d="M-15.5 27.5l48-24 38 13z"/><path fill="#ccbda3" d="M136.5 1.5l-29 9 18-26z"/><path fill="#6d5637" d="M94.5 57.5l-4 1 2 2z"/><path fill="#d4c3a4" d="M178.5 11.5l-17 7 16 14z"/><path fill="#d7c6a7" d="M105.5 31.5l38-23 6 16z"/><path fill="#e8d3b1" d="M123.5 44.5l-22-6 43-4z"/><path fill="#a38c6e" d="M39.5 59.5l8-13 35 2z"/><path fill="#f3e2c4" d="M23.5 4.5l-34 15 3-21z"/><path fill="#6a543c" d="M195.5 96.5l14 15 5-14z"/><path fill="#a58d6e" d="M86.5 59.5l-9-18 55 4z"/><path fill="#3f321f" d="M252.5 134.5l-118-12 61-10z"/><path fill="#887457" d="M91.5 80.5l-18 1-6-7z"/><path fill="#dcc6a8" d="M55.5 43.5l-6-8 20 7z"/><path fill="#392c17" d="M56.5 143.5l5-22 37 22z"/><path fill="#735f45" d="M120.5 104.5l-127-21 67-7z"/><path fill="#e5d0b5" d="M269.5-3.5l2 14-32 19z"/><path fill="#e1cea7" d="M-15.5 26.5l33 18-33-1z"/><path fill="#b19878" d="M215.5 41.5l56 19-11-26z"/><path fill="#78644a" d="M240.5 92.5l-15-7 13 26z"/><path fill="#e2d0b2" d="M206.5 8.5l18 21h-16z"/><path fill="#d5c0a3" d="M-14.5 20.5l26 5-10 4z"/><path fill="#d5c3a7" d="M271.5 18.5l-70-17 58-2z"/><path fill="#9a8465" d="M71.5 75.5l4-22-59 12z"/><path fill="#ecdabb" d="M37.5 27.5l-27 1 47 12z"/><path fill="#dac8a9" d="M96.5 17.5l-65-25 40-1z"/><path fill="#cbb695" d="M40.5 47.5l-16-3 7 4z"/><path fill="#a18a6b" d="M188.5 47.5l-82 12 144 17z"/><path fill="#efdcbd" d="M37.5 22.5h26l-39-14z"/></g></svg>