<svg xmlns="http://www.w3.org/2000/svg" viewBox="0 0 400 200"><path fill="#9e8a6e" d="M0 0h400v200H0z"/><path fill="#ffffeb" fill-opacity=".5" d="M-.2-1.2l397.9-20.9 4 78L4 76.8z"/><path fill="#271602" fill-opacity=".5" d="M393.2 281.7L-4.3 253.9l9.6-137.2 397.4 27.8z"/><path fill="#251a0c" fill-opacity=".5" d="M424.3 201.2L77.2 231.5l-3-34.2 347-30.4z"/><path fill="#836d50" fill-opacity=".5" d="M392.8 167.9l-398.2-14 1.6-45.2 398.2 13.9z"/><path fill="#f6dcb5" fill-opacity=".5" d="M-3.4 69.8L-5.9-2l198.3-7 2.5 72z"/><path fill="#f7deb8" fill-opacity=".5" d="M179.6 15.5l94.7-20.2L287.6 58 193 78z"/><path fill="#b59772" fill-opacity=".5" d="M272.2 79.3l7.6-43.1 133.9 23.6-7.6 43z"/><path fill="#e1caa8" fill-opacity=".5" d="M259.1 46.7l2.2-62.4 140.5 4.9-2.2 62.5z"/><path fill="#a08563" fill-opacity=".5" d="M78.5 113.6l-6-38.6L148 63l6.1 38.6z"/><path fill="#d2c1a3" fill-opacity=".5" d="M222.6 46.7l-101.5 3.5-1.5-45.3L221 1.4z"/><path fill="#6f5d42" fill-opacity=".5" d="M413.9 171.5l-49.8 5.2-4.5-43.5 49.7-5.2z"/><path fill="#a78e6e" fill-opacity=".5" d="M269 59.3l94-15 7.1 44.8-94 15z"/><path fill="#382c1a" fill-opacity=".5" d="M362 166l-16.6 30-24.6-13.6 16.6-30z"/><path fill="#837356" fill-opacity=".5" d="M339.3 148.7L194 151.3l-.4-23.5 145.2-2.5z"/><path fill="#746146" fill-opacity=".5" d="M102.2 164.7l-126.4-4.4 1.6-48.4 126.5 4.4z"/><path fill="#503e28" fill-opacity=".5" d="M-1.6 218.8l3.7-53 198 13.8-3.8 53z"/><path fill="#fff9da" fill-opacity=".5" d="M418.3 39.3L415.7 58l-35.6-5 2.6-18.6z"/><path fill="#ac916e" fill-opacity=".5" d="M274.6 89.8L122.6 71l1.2-9.3 152 18.7z"/><path fill="#f1ddba" fill-opacity=".5" d="M164.5 56.3l90.5-4.8.8 15.6-90.5 4.8z"/><path fill="#f8e6c6" fill-opacity=".5" d="M294.9 2l-55.7 34.7-23.1-37 55.6-34.9z"/><path fill="#d0b589" fill-opacity=".5" d="M83.6 73.3l-143.7 5v-3.1l143.6-5z"/><path fill="#f1e0c1" fill-opacity=".5" d="M-67.6 65.7l-16.8-48.8L69.2-36 86 12.8z"/><path fill="#9b8263" fill-opacity=".5" d="M223.2 136.2l-98-8.5 3.2-37.4 98 8.6z"/><path fill="#877355" fill-opacity=".5" d="M76.3 123.6L-4.8 128-6 106l81.2-4.2z"/><path fill="#9f8665" fill-opacity=".5" d="M208.7 89.4l171.2 15-2.6 29.6L206 119z"/><path fill="#d5c4a6" fill-opacity=".5" d="M326.5 42.3L270 60.7 259.4 28 316 9.6z"/><path fill="#a68d6e" fill-opacity=".5" d="M246.3 73l-.6 12.5-131-7 .6-12.4z"/><path fill="#d3c0a3" fill-opacity=".5" d="M414 32l-67.7 19.4-18-63 67.5-19.5z"/><path fill="#d3c0a2" fill-opacity=".5" d="M119.6 42.6l-.7 7.8-152.5-13.3.6-7.8z"/><path fill="#7b6a4e" fill-opacity=".5" d="M207.5 143l1.2-17 198 13.8-1.3 17.1z"/><path fill="#3c301c" fill-opacity=".5" d="M282.5 222.9l-17.1-35.2 50.5-24.6 17.2 35z"/><path fill="#655137" fill-opacity=".5" d="M308.5 177.8l-130.2 16-4-32.6 130.2-16z"/><path fill="#b19978" fill-opacity=".5" d="M417.5 83.3L309.2 68l3-21.7 108.3 15.2z"/><path fill="#ccb99a" fill-opacity=".5" d="M193.2 40l-.6 12.6-68.7-3.6.7-12.5z"/><path fill="#725d44" fill-opacity=".5" d="M253.6 152.5l-1.1 20.3L98 164.7l1-20.3z"/><path fill="#e9d4b3" fill-opacity=".5" d="M97.6 70.8l-46.4 6.6-3.5-24.8 46.4-6.5z"/><path fill="#9a8263" fill-opacity=".5" d="M164.4 127.7L.8 101.8l2-12.3 163.6 25.9z"/><path fill="#ab9171" fill-opacity=".5" d="M245.7 67.4L308 51.9l4.2 16.7L249.9 84z"/><path fill="#fae7c4" fill-opacity=".5" d="M405.9 54l-66.7-8 .2-1.6 66.7 8.2z"/><path fill="#e4d3b6" fill-opacity=".5" d="M291.6 31.4L250.2 13l19.1-42.8 41.4 18.4z"/><path fill="#eeddba" fill-opacity=".5" d="M291 45.4l1.7 9.2-44.7 7.9-1.6-9.3z"/><path fill="#efdbbc" fill-opacity=".5" d="M92.7 49.3l88.9 6.2-.9 12.4L92 61.7z"/><path fill="#f5e5c3" fill-opacity=".5" d="M134.6 27.3l-2 6-53.2-18.4 2-6z"/><path fill="#a78d6e" fill-opacity=".5" d="M337.5 89.8h101.6v37.5H337.5z"/><path fill="#c6b69a" fill-opacity=".5" d="M129 0l-.5 6.2-52.9-4.6.6-6.2z"/><path fill="#ead6b7" fill-opacity=".5" d="M184.9 52l42 2.2-.8 17.2-42.1-2.2z"/><path fill="#3f3120" fill-opacity=".5" d="M321 207l12.9-45 81 23.2-12.8 45z"/><path fill="#cfbc9e" fill-opacity=".5" d="M330.8-13.9l12 10-50.2 60-12-10.1z"/><path fill="#e8d8b8" fill-opacity=".5" d="M129.2 15.2l6.2-35.4 37 6.5-6.3 35.4z"/><path fill="#6d5740" fill-opacity=".5" d="M1.8 126.6l21.5 24.7L-.2 172l-21.6-25z"/><path fill="#bfa985" fill-opacity=".5" d="M-17.9 71l93.7 4.9-.1 1.6-93.6-5z"/><path fill="#372918" fill-opacity=".5" d="M191.4 197.7l-109 7.7-.4-4.7 109.1-7.6z"/><path fill="#ffeace" fill-opacity=".5" d="M391.8 54.2l-4.2-2.2 19-35.9 4.2 2.2z"/><path fill="#eedbb9" fill-opacity=".5" d="M254 38.4l5.1 24.4-45.8 9.8L208 48z"/><path fill="#4d3f28" fill-opacity=".5" d="M165.7 196.1l-.8-7.7L329.6 171l.8 7.7z"/><path fill="#eedabc" fill-opacity=".5" d="M20.4 62.6L22 44l49.8 4.3L70.2 67z"/><path fill="#eedcbd" fill-opacity=".5" d="M163.2 20.6l34.4-.6.1 7.8-34.3.6z"/><path fill="#d3c2a3" fill-opacity=".5" d="M228.5 24.5l4.2 16.6-44 11-4.2-16.7z"/><path fill="#6a563d" fill-opacity=".5" d="M333 155.4l-5.2 18-40.5-11.6 5.2-18z"/><path fill="#5d4b32" fill-opacity=".5" d="M125.4 160.5l.7 20.3-115.6 4-.7-20.3z"/><path fill="#827155" fill-opacity=".5" d="M274.1 139L231 157.5l-9.8-23 43.1-18.3z"/><path fill="#d0bfa0" fill-opacity=".5" d="M256.6 39l3.8-16.8 53.3 12.3-3.8 16.7z"/><path fill="#f3e1c1" fill-opacity=".5" d="M216.9 17.7l-5.6-19.5 39-11.2L256 6.5z"/><path fill="#79664a" fill-opacity=".5" d="M131.5 142.3l-41.9-5.1 2.3-18.6 41.9 5.1z"/><path fill="#78674a" fill-opacity=".5" d="M344.2 138.1l36-10.3 2.2 7.5-36 10.3z"/><path fill="#674f39" fill-opacity=".5" d="M152 87.6l1.1 1.1-6.7 6.5-1.1-1.1z"/><path fill="#f8e3c3" fill-opacity=".5" d="M366.7 49.6l1.7-7.6 32 6.8-1.6 7.7z"/><path fill="#ccb891" fill-opacity=".5" d="M-20.4 72l.3-6.3 85.8 4.5-.3 6.3z"/><path fill="#cdbca0" fill-opacity=".5" d="M229.2-17.9l4.5 10-61.4 27.3-4.4-10z"/><path fill="#9b8568" fill-opacity=".5" d="M370.8 109l2 21.8-64 5.5-1.8-21.7z"/><path fill="#b49c79" fill-opacity=".5" d="M348.6 59.5l3.7-12L406 64l-3.7 12z"/><path fill="#a89172" fill-opacity=".5" d="M73.5 86.8l-1.5-14 46.7-4.9 1.4 14z"/><path fill="#e7d5b4" fill-opacity=".5" d="M319.2 13.8l17.1.6-.8 23.4-17.2-.6z"/><path fill="#cdbc9d" fill-opacity=".5" d="M161.3 23l.8 23.5-21.8.7-.9-23.4z"/><path fill="#5d4b32" fill-opacity=".5" d="M210.4 178.7l-4.6 18.1-33.3-8.3 4.5-18.2z"/><path fill="#443018" fill-opacity=".5" d="M361.3 169.5l-3.8-15.2 1.5-.4 3.8 15.2z"/><path fill="#d0c0a0" fill-opacity=".5" d="M340.4 47l-2.6-29.6 39-3.4 2.5 29.6z"/><path fill="#ecd9ba" fill-opacity=".5" d="M94.6 8.1l-7.4 32-39.6-9.2L55-1z"/><path fill="#735e45" fill-opacity=".5" d="M206.9 139l4 23-56.9 10-4-23z"/><path fill="#b19976" fill-opacity=".5" d="M221.7 69.7l38.9-3.4.5 6.2-38.9 3.4z"/><path fill="#382a19" fill-opacity=".5" d="M278.6 191l.5 14-71.8 2.5-.5-14z"/><path fill="#a88f71" fill-opacity=".5" d="M293.3 88.4l-4.8-34 48-6.8 4.7 34z"/><path fill="#a58c6d" fill-opacity=".5" d="M272.7 76.2l-1.9 26.5-123.1-8.6 1.8-26.5z"/><path fill="#998367" fill-opacity=".5" d="M136.2 114.2l38.8-11.9 6 19.4-38.9 12z"/><path fill="#786449" fill-opacity=".5" d="M394 167.8l-17-20.3 27.4-23.1 17.1 20.3z"/><path fill="#423721" fill-opacity=".5" d="M317.8 180.4l-29.6 3.1-1.3-12.4 29.6-3z"/><path fill="#d0bd9e" fill-opacity=".5" d="M96 50.6L33 38.4l.6-3 62.9 12.1z"/><path fill="#9c8567" fill-opacity=".5" d="M186 127.4l-2.5-23.4 135.2-14.2 2.5 23.3z"/><path fill="#7e6d52" fill-opacity=".5" d="M50.8 123.4H-2.3v-14h53z"/><path fill="#ad9577" fill-opacity=".5" d="M297.1 72.2l-43.4-5.4.8-6.2 43.4 5.4z"/><path fill="#453721" fill-opacity=".5" d="M408.7 235.6l-3 1-25.4-73.8 3-1z"/><path fill="#69573c" fill-opacity=".5" d="M240.6 151.6l46.7 18-4.5 11.6-46.7-18z"/><path fill="#a28969" fill-opacity=".5" d="M16.6 97.5L18 74l95.1 5-1.2 23.4z"/><path fill="#efdcba" fill-opacity=".5" d="M261.2 48l17.2.9-.6 11-17.1-1z"/><path fill="#756248" fill-opacity=".5" d="M201.3 128.9l-1 29.7-43.8-1.6 1-29.6z"/><path fill="#e6d3b2" fill-opacity=".5" d="M67.4 57.2l35.4-6.3 3.2 18.5-35.3 6.2z"/><path fill="#6b5940" fill-opacity=".5" d="M326.2 149.2l6.3-10.9 46 26.6-6.3 10.8z"/><path fill="#e4d1b3" fill-opacity=".5" d="M17.6 19.8l16.9 16.3-38 39.4-16.9-16.3z"/><path fill="#9b8465" fill-opacity=".5" d="M160 123.1L-1.3 103.3 1 84.7l161.3 19.8z"/><path fill="#705942" fill-opacity=".5" d="M-40.1 146.2l137.4-4.8.6 17.1-137.4 4.8z"/><path fill="#cfbd9f" fill-opacity=".5" d="M68.7 44.5v1.6l-89-4.7V40z"/><path fill="#8a7459" fill-opacity=".5" d="M190.6 136.6l-.9-6.2 65-9.2.9 6.2z"/><path fill="#efdebe" fill-opacity=".5" d="M324.2 38.3V32h15.6v6.3z"/><path fill="#f4e3c4" fill-opacity=".5" d="M-20.5 5.5L28 3.8l.4 11-48.4 1.7z"/><path fill="#917b61" fill-opacity=".5" d="M305.8 125.8l-59.3 3-.8-15.5 59.3-3.1z"/><path fill="#e3d0b2" fill-opacity=".5" d="M92.2 62.4l167.1-3V61l-167 3z"/><path fill="#ebd8ba" fill-opacity=".5" d="M300.7 19.2l-9 12.8-12.7-9 9-12.8z"/><path fill="#7c6b4f" fill-opacity=".5" d="M281.2 142.2l126.1-11 .5 6.2-126 11z"/><path fill="#f4e0c2" fill-opacity=".5" d="M157.8 53.6l-.1 1.5-57.7-4 .1-1.6z"/><path fill="#a58d6e" fill-opacity=".5" d="M101 70l57.7-4 1.3 18.7-57.7 4z"/><path fill="#deceae" fill-opacity=".5" d="M134.8 31L132 41.6 73 26.8l2.6-10.6z"/><path fill="#d8c7a9" fill-opacity=".5" d="M27.9-13.7l96.6 26-.8 3-96.6-26z"/><path fill="#d2c0a1" fill-opacity=".5" d="M268.5 49.5L266.3 31l57.3-7 2.3 18.6z"/><path fill="#ae9576" fill-opacity=".5" d="M340.5 48.8l29.6 2.6-2.8 32.6-29.6-2.5z"/><path fill="#5c4b30" fill-opacity=".5" d="M148.6 197.6L125 177l9.2-10.6 23.6 20.5z"/><path fill="#4d3f28" fill-opacity=".5" d="M423.5 174l-66.7 8.2-.6-4.7 66.7-8.1z"/><path fill="#deccae" fill-opacity=".5" d="M291.5 9.8l-43.4 5.3-.6-4.6L291 5.2z"/><path fill="#d3c0a4" fill-opacity=".5" d="M193.5-20.2l23.6 22.8-18.4 19.1L175-1z"/><path fill="#4e3e28" fill-opacity=".5" d="M68.2 202.3l-1-4.6 56.8-11 1 4.6z"/><path fill="#ecd8b8" fill-opacity=".5" d="M100.7 68.7L99.4 50l20.2-1.5 1.3 18.7z"/><path fill="#a38c6d" fill-opacity=".5" d="M250.4 65.2L355 83.6l-3.8 21.6-104.6-18.5z"/><path fill="#3c2e1d" fill-opacity=".5" d="M423.2 196.2l-1.7 20.2-162-14.1 1.9-20.3z"/><path fill="#f1dfbe" fill-opacity=".5" d="M241.6 4.2L254.9 54l-10.5 2.8L231 7z"/><path fill="#776448" fill-opacity=".5" d="M133 137l34.1-11.2 1.5 4.5-34.2 11z"/><path fill="#766248" fill-opacity=".5" d="M313.3 142l.3 1.6-100.4 15.9-.2-1.5z"/><path fill="#ddccae" fill-opacity=".5" d="M385 42.5l-52.7 5.6-.2-1.6 52.8-5.5z"/><path fill="#392b19" fill-opacity=".5" d="M157.3 204l-3.3-7.2 18.4-8.5 3.3 7z"/><path fill="#d2c1a5" fill-opacity=".5" d="M421-24.3l4.7 45-48.2 5.1-4.7-45z"/><path fill="#e1d0b0" fill-opacity=".5" d="M81.4 13.4l-.4 6.3-48.3-3.4.4-6.3z"/><path fill="#ebdabc" fill-opacity=".5" d="M231.1 6.3l-38 24.7-.8-1.3 38-24.7z"/><path fill="#deccb1" fill-opacity=".5" d="M332 14.2l52.7-6.5.5 4.7-52.7 6.4z"/><path fill="#5d4d36" fill-opacity=".5" d="M175.2 171.2l5.9 56h-1.6l-5.9-55.9z"/><path fill="#d2c0a1" fill-opacity=".5" d="M206 28.7l17-13.8 3.9 4.9-17 13.7z"/><path fill="#bfab89" fill-opacity=".5" d="M-38.3 77.7l103-5.4.1 1.6-103 5.4z"/><path fill="#ac9676" fill-opacity=".5" d="M200.4 69.5l.4-1.5 25.4 7.8-.4 1.5z"/><path fill="#53412c" fill-opacity=".5" d="M88.8 207.5l-114-4 .5-12.5 114 4z"/><path fill="#42321e" fill-opacity=".5" d="M358.3 221.8l2.2-64h1.6l-2.3 64z"/><path fill="#5e4c32" fill-opacity=".5" d="M129 173.4h106.2v11H128.9z"/><path fill="#f4e1c1" fill-opacity=".5" d="M-2.6 54.6l.6-6.2 15.6 1.7-.7 6.2z"/><path fill="#846f55" fill-opacity=".5" d="M222.8 146.5l-25.9-11 3.7-8.6 25.9 11z"/><path fill="#837055" fill-opacity=".5" d="M269.1 122l28 3-2.1 20.2-28-3z"/><path fill="#45341d" fill-opacity=".5" d="M377.7 168.3l-2.3 9-1.5-.3 2.3-9z"/><path fill="#6b553a" fill-opacity=".5" d="M139.8 93.8l9-3.1.4 1.5-8.8 3z"/><path fill="#d1bfa1" fill-opacity=".5" d="M331 31l-.7-7.8 65.3-5.7.7 7.8z"/><path fill="#d6c4a5" fill-opacity=".5" d="M152 19.1l44.6 22.7-6.4 12.5-44.6-22.7z"/><path fill="#f9e5c9" fill-opacity=".5" d="M418.7 20.5l.9 1.2-43 31.3-.9-1.3z"/><path fill="#a48c6d" fill-opacity=".5" d="M125.5 65l18.8-.3.5 28.1-18.8.3z"/><path fill="#423521" fill-opacity=".5" d="M328 173.4l7.3-13.8 29 15.4-7.4 13.8z"/><path fill="#d8c8a9" fill-opacity=".5" d="M204.2 30l9-10.8 21.6 18-9 10.8z"/><path fill="#3f2f1c" fill-opacity=".5" d="M294.4 166.8l1.6-.3 4.9 27.7-1.6.3z"/><path fill="#695b40" fill-opacity=".5" d="M312 165.6l1.5.4-2.1 7.5-1.5-.4z"/><path fill="#ad9576" fill-opacity=".5" d="M373.4 53.1l45.8 49.2-16 14.9L357.4 68z"/><path fill="#ddcdaf" fill-opacity=".5" d="M117 13.3L147.8-22l11.8 10.2-30.8 35.4z"/><path fill="#ecd8b3" fill-opacity=".5" d="M234.2 70.7l-79.4-7 .1-1.5 79.4 6.9z"/><path fill="#d2bfa1" fill-opacity=".5" d="M286.7 39.8l30-8.6 4.4 15-30 8.6z"/><path fill="#cfbd9f" fill-opacity=".5" d="M327.6 6l-25 43.4-6.8-4 25-43.2z"/><path fill="#392a18" fill-opacity=".5" d="M93.8 192.9l12.5-1.3 1.4 14-12.4 1.3z"/><path fill="#eedcba" fill-opacity=".5" d="M202.7 46.6l68.6 3.6-.5 11-68.7-3.6z"/><path fill="#f2e2c1" fill-opacity=".5" d="M129.6 26.3L117.8 22l1-3 11.8 4.3z"/><path fill="#f5e4c5" fill-opacity=".5" d="M266.6-6.2l1 9.3-45.1 4.7-1-9.3z"/><path fill="#d2bfa4" fill-opacity=".5" d="M333.7 13l-37.5.6-.2-9.4 37.5-.6z"/><path fill="#847156" fill-opacity=".5" d="M125.4 120.2l-1 7.8-23.2-2.9 1-7.7z"/><path fill="#6c5941" fill-opacity=".5" d="M299.5 177.4h-1.6l1-31.3h1.6z"/><path fill="#6e5b41" fill-opacity=".5" d="M318.2 143.1l7.8-.3 1.1 31.3-7.8.2z"/><path fill="#aa9072" fill-opacity=".5" d="M279.8 65.8l.7 6.2-86.8 10.7-.8-6.3z"/><path fill="#b59e7d" fill-opacity=".5" d="M426.8 68.8l-56-4.9.8-9.3 56 4.9z"/><path fill="#423522" fill-opacity=".5" d="M374.8 197.6l28.7-33 20 17.4-28.6 33z"/><path fill="#7c6a4f" fill-opacity=".5" d="M307.1 146.7l-.1-9.4 71.8-1.2.2 9.4z"/><path fill="#e8d5b5" fill-opacity=".5" d="M91.5 55l-2.1 17L35 65.4l2-17.1z"/><path fill="#cdbd9e" fill-opacity=".5" d="M135.8 47.3l-18.3-9 1.4-2.8 18.3 9z"/><path fill="#a88f6d" fill-opacity=".5" d="M-3.7 82.9l-.3-4.7 46.7-3.3.4 4.7z"/><path fill="#725d44" fill-opacity=".5" d="M220.4 143l1.1 15.6-87.3 6.2-1-15.6z"/><path fill="#d5c29f" fill-opacity=".5" d="M86 64.5l.4-1.5 22.9 5.3-.4 1.5z"/><path fill="#756146" fill-opacity=".5" d="M62 118.8l45.1 4.7-2 18.7-45-4.8z"/><path fill="#e6d3b5" fill-opacity=".5" d="M89 53.2l38-9.4 1.1 4.5-37.9 9.5z"/><path fill="#6a553b" fill-opacity=".5" d="M325 164.7l-70 5-.4-4.7 70.2-5z"/><path fill="#a18a6b" fill-opacity=".5" d="M448.6 145.5l-131.5-40.2 4.6-14.9 131.5 40.2z"/><path fill="#efe0c3" fill-opacity=".5" d="M152.5 5.7l-.3-9.3 15.6-.6.3 9.4z"/><path fill="#e6d3b8" fill-opacity=".5" d="M422.4 14.1L380 48.5l-3.9-4.8 42.5-34.4z"/><path fill="#f1debf" fill-opacity=".5" d="M172.3 60l-28.7-7.7 1.3-4.5 28.6 7.7z"/><path fill="#f1ddb9" fill-opacity=".5" d="M383.6 53.5l.1-1.6 28 2.5-.1 1.5z"/><path fill="#e1ceb0" fill-opacity=".5" d="M176 63.8l-.3-3.2 46.7-4 .3 3z"/><path fill="#9f8769" fill-opacity=".5" d="M145.8 97.6l19-22.8 34.8 29.2-19.1 22.7z"/><path fill="#dfcfaf" fill-opacity=".5" d="M40.8 20.4L43.4 39l-10.8 1.5L30 22z"/><path fill="#3f311d" fill-opacity=".5" d="M260.4 178.4l12.4 1.1-3.5 40.5-12.5-1z"/><path fill="#665538" fill-opacity=".5" d="M121 163.6l-128-2.2v-1.6l128.1 2.3z"/><path fill="#d8c5a3" fill-opacity=".5" d="M-2.7 73l-3.6-13.5 10.5-2.9L8 70.2z"/><path fill="#806f50" fill-opacity=".5" d="M34.5 123l-.2-9.3 45.3-.8.2 9.4z"/><path fill="#685842" fill-opacity=".5" d="M379.7 182H378v-12.5h1.6z"/><path fill="#dcc9a7" fill-opacity=".5" d="M-11 66.6l.2-1.5L50 69.3l-.1 1.6z"/><path fill="#ebd8bc" fill-opacity=".5" d="M343.5 12.5l-16 6.2-.6-1.5 16-6.2z"/><path fill="#44321c" fill-opacity=".5" d="M140.5 182l3.3 12.1-1.5.4-3.3-12z"/><path fill="#9a8366" fill-opacity=".5" d="M348.1 123.3l-4 13.5-68.8-21 4.1-13.5z"/><path fill="#735f45" fill-opacity=".5" d="M386 143.5l7.8-.9 3 28-7.8.8z"/><path fill="#a88e71" fill-opacity=".5" d="M432.6 138L330.9 86.2l10-19.5 101.6 51.8z"/><path fill="#816d52" fill-opacity=".5" d="M27.3 106.8l3.2 5.4-28.1 16.9-3.2-5.4z"/><path fill="#eedcbd" fill-opacity=".5" d="M89.8 25.5L-51 5.7l.2-1.5L90 24z"/><path fill="#e6d3b2" fill-opacity=".5" d="M121.7 60.6l1-6.2 60.3 8.5-1 6.2z"/><path fill="#a48e6e" fill-opacity=".5" d="M63.6 78.9L125.2 68l.2 1.6L64 80.4z"/><path fill="#dac9a5" fill-opacity=".5" d="M222.7 62l31.2 1v1.6l-31.3-1z"/><path fill="#d8c5a7" fill-opacity=".5" d="M25 38v7.7l-48.5-.8.1-7.8z"/><path fill="#d3c0a3" fill-opacity=".5" d="M61.3 36.7l30.2 12.8-1.2 2.9L60 39.6z"/><path fill="#f2e1c0" fill-opacity=".5" d="M263.4 11.2l3 5.5L235 34l-3-5.5z"/><path fill="#e5d3b6" fill-opacity=".5" d="M340.1-2.6l-122 19.3-.4-3.1 122-19.3z"/><path fill="#756146" fill-opacity=".5" d="M183.5 143.8l-90.6-1.6.2-12.5 90.6 1.6z"/><path fill="#deccb1" fill-opacity=".5" d="M346.6 5l2.6-12.3 18.3 4-2.6 12.1z"/><path fill="#6b593f" fill-opacity=".5" d="M355.7 169l-4.7-.5 1.1-10.9 4.7.5z"/><path fill="#725e43" fill-opacity=".5" d="M363.7 146.6l21.1 5.7-3.2 12-21.1-5.6z"/><path fill="#ebdaba" fill-opacity=".5" d="M-19.9 30.6l4.5-23 36.8 7.1-4.4 23z"/><path fill="#d0be9e" fill-opacity=".5" d="M144 44.4l-7.4-8 11.6-10.5 7.4 8z"/><path fill="#dacaab" fill-opacity=".5" d="M103.8 29.8l1-3 39.9 13.7-1 3z"/><path fill="#d2bf9f" fill-opacity=".5" d="M88.3 45.5l28-3.5.1 1.6-28 3.4z"/><path fill="#5d4c33" fill-opacity=".5" d="M185.3 179l19.7-15.5 14.4 18.5-19.7 15.4z"/><path fill="#5d4c31" fill-opacity=".5" d="M152.8 187.5l-105.7-11 1.7-15.6L154.4 172z"/><path fill="#715e44" fill-opacity=".5" d="M78.1 166.7l-23-31.6 9-6.5L87 160.2z"/><path fill="#ceba9b" fill-opacity=".5" d="M157.3 52l-.2-1.5 34-4.2.3 1.6z"/><path fill="#8b755b" fill-opacity=".5" d="M277 128.7l2.3-7.4 35.9 11-2.3 7.4z"/><path fill="#f0e0bf" fill-opacity=".5" d="M-17.3-2.2l120.7 17-.2 1.5-120.7-17z"/><path fill="#e1ceaf" fill-opacity=".5" d="M96.7 44.1l2.6 4-28.8 18.7-2.6-4z"/><path fill="#3e321d" fill-opacity=".5" d="M222.2 182.7l4 32.6-3.1.4-4-32.6z"/><path fill="#dcc9a5" fill-opacity=".5" d="M259 59.5l-12.7 5.9-.7-1.4 12.8-6z"/><path fill="#7e6c51" fill-opacity=".5" d="M334.4 148.7l-65.3-6.8 1.2-11 65.2 7z"/><path fill="#715c44" fill-opacity=".5" d="M18.6 162.3l-32.6 3.4-3-29.5 32.5-3.5z"/><path fill="#e5d3b4" fill-opacity=".5" d="M278.5 57.2l-32.8-18.1L248 35l32.8 18z"/><path fill="#d2c2a3" fill-opacity=".5" d="M345.4 42l-.2 6.2-32.8-1.1.2-6.3z"/><path fill="#a0896b" fill-opacity=".5" d="M170.8 95.7L304.7 84l1 12.5L172 108.2z"/><path fill="#6c5941" fill-opacity=".5" d="M380.2 176.6l-1.6-.2 2.1-17 1.6.1z"/><path fill="#e4d1b3" fill-opacity=".5" d="M185 21.3l36.4 14-1.7 4.4-36.4-14z"/><path fill="#584a2d" fill-opacity=".5" d="M266.3 175.6l.7-1.4 15.2 8-.8 1.4z"/><path fill="#d2be9d" fill-opacity=".5" d="M94.5 68.2l.1-1.6 15.6 1.1-.1 1.6z"/><path fill="#a28a6c" fill-opacity=".5" d="M-7.8 76.6h145.3v14H-7.8z"/><path fill="#d3c1a5" fill-opacity=".5" d="M375.7-23l41.8 21.2L404 24.6 362.2 3.4z"/><path fill="#7e6d4f" fill-opacity=".5" d="M388.3 132.7l-34 4.8-.4-3 34-4.8z"/><path fill="#d1bfa0" fill-opacity=".5" d="M353.6 42.6l-13.8-17L360.5 9l13.7 17z"/><path fill="#ab9373" fill-opacity=".5" d="M313 50.2l3.6 13.6-46.8 12.5-3.6-13.5z"/><path fill="#ebdaba" fill-opacity=".5" d="M273.8 13.3l1 1.2-34.5 27-1-1.3z"/><path fill="#e1cfb3" fill-opacity=".5" d="M364 48.3l-14 .3V47l14-.2z"/><path fill="#66533a" fill-opacity=".5" d="M290 175l10.7-21 1.4.8-10.6 20.8z"/><path fill="#dac8ac" fill-opacity=".5" d="M261.2 36.5l-5.3-5.8 31.4-28.2 5.2 5.8z"/><path fill="#fbe7cb" fill-opacity=".5" d="M410.9 52.3l-24.8-3 1.5-12.5 24.8 3z"/><path fill="#eddabb" fill-opacity=".5" d="M74.2 54H11.7v-6.3h62.5z"/><path fill="#d6c4a6" fill-opacity=".5" d="M62.3 45.2l-22-8 2.1-5.9 22 8z"/><path fill="#d9c9aa" fill-opacity=".5" d="M265.7 47l.9-3 25.5 7.4-.9 3z"/><path fill="#d3c2a5" fill-opacity=".5" d="M90.5-5.6l.4-1.6 57.6 14.4-.4 1.5z"/><path fill="#ecd9b5" fill-opacity=".5" d="M64.8 70l16.8-8.2 2 4.2-16.8 8.2z"/><path fill="#e2d1b3" fill-opacity=".5" d="M57.7-1.8L29 6.4l-.8-3 28.5-8.2z"/><path fill="#5e5030" fill-opacity=".5" d="M327.5 178l-7.2-3 .6-1.5 7.2 3z"/><path fill="#68543b" fill-opacity=".5" d="M228.8 169.6l2.5-15.4 57 9-2.4 15.4z"/><path fill="#e7d4b5" fill-opacity=".5" d="M57.2 58.2l-4.5 11.7-36.5-14 4.5-11.7z"/><path fill="#e1cfac" fill-opacity=".5" d="M206.9 57l.4 1.6-40.8 10.9-.4-1.5z"/><path fill="#d1c0a1" fill-opacity=".5" d="M216.4 20.7l1.1 1-16.7 18.6-1.2-1z"/><path fill="#a68f6f" fill-opacity=".5" d="M229.9 79.1l-1.3 9.3-91.3-12.8 1.3-9.3z"/><path fill="#3c2d1c" fill-opacity=".5" d="M255.2 179.1l1.5.3-7.2 36.8-1.5-.3z"/><path fill="#413222" fill-opacity=".5" d="M447 212.6l-101.9-16.1 3.2-20 101.9 16z"/><path fill="#cebd9d" fill-opacity=".5" d="M82-2.9l1.7-2.5 14 9.8L96 7z"/><path fill="#e2d0b4" fill-opacity=".5" d="M100.9 1.4l1.7-2.6 26.2 17-1.7 2.6z"/><path fill="#998263" fill-opacity=".5" d="M97.6 107.2l10.8 1.3-1.3 10.9-10.9-1.4z"/><path fill="#9a8267" fill-opacity=".5" d="M144.6 129.8l-2.6-18.5 58.8-8.3 2.6 18.6z"/><path fill="#cfbb93" fill-opacity=".5" d="M16.9 74.8l-.3-1.5L44 67.4l.3 1.5z"/><path fill="#6d5941" fill-opacity=".5" d="M320 158.7l-48.4-3.4.7-9.3 48.3 3.4z"/><path fill="#d5c3a6" fill-opacity=".5" d="M100.8 8l31.3 1.1-.1 3.2-31.3-1.1z"/><path fill="#493b26" fill-opacity=".5" d="M370.4 181.4l-1 1.3-32-25 1-1.3z"/><path fill="#f6e5c7" fill-opacity=".5" d="M372.3 50.3l15.8-6.7.6 1.4-15.8 6.7z"/><path fill="#5b4934" fill-opacity=".5" d="M106.6 186.8L-15 180.4l.7-12.5 121.7 6.4z"/><path fill="#3e301f" fill-opacity=".5" d="M297.3 188.5l6-12.8L323 185l-5.9 12.7z"/><path fill="#cfbda2" fill-opacity=".5" d="M344.6.5l2.2 6L310 19.7l-2.2-5.9z"/><path fill="#473621" fill-opacity=".5" d="M172.6 189.7l-10-4.5.7-1.4 10 4.4z"/><path fill="#ebd8b9" fill-opacity=".5" d="M49.8 18.3l42.6 15.5-3.2 8.8-42.6-15.5z"/><path fill="#483824" fill-opacity=".5" d="M191.8 197.3l-1.4.8-5.6-9.4 1.3-.8z"/><path fill="#685439" fill-opacity=".5" d="M257 166.4v6.3H141.4v-6.3z"/><path fill="#e9d8b8" fill-opacity=".5" d="M322.6 33.7l15.6-.2.1 6.2-15.6.3z"/><path fill="#a88f71" fill-opacity=".5" d="M300.2 75.4l-64.6 11.4-3-17 64.6-11.3z"/><path fill="#4a3c22" fill-opacity=".5" d="M268.4 172l1.4-.6 7.2 20.7-1.5.5z"/><path fill="#725c44" fill-opacity=".5" d="M120.8 162.2l.6-11 12.5.7-.6 11z"/><path fill="#b8a685" fill-opacity=".5" d="M87.5 72.6l-.1 1.6-14-1.5.2-1.6z"/><path fill="#deccac" fill-opacity=".5" d="M53.3 12.6l.5-1.5 19.4 6-.4 1.5z"/><path fill="#564531" fill-opacity=".5" d="M159.7 184.4l1 1.2-15.8 12.8-1-1.2z"/><path fill="#9b8566" fill-opacity=".5" d="M70 99.1l2 13.9-12.3 2-2.2-14z"/><path fill="#806f53" fill-opacity=".5" d="M16 124.5l-1.8-10.8 34-5.4 1.7 10.8z"/><path fill="#d1c1a5" fill-opacity=".5" d="M164 10.1l.5-3 44.9 6.2-.5 3.1z"/><path fill="#67563b" fill-opacity=".5" d="M339.4 150.8l-16.6 22.8-1.2-1L338 150z"/><path fill="#7f6e51" fill-opacity=".5" d="M258.4 147.3l-46.8-.8.3-17.2 46.8.8z"/><path fill="#9b8465" fill-opacity=".5" d="M311 115.5l-107.8 1.8-.1-6.2 107.8-1.9z"/><path fill="#e8d5b6" fill-opacity=".5" d="M175.2 26.4l1.6-9.2 27.7 4.8-1.6 9.3z"/><path fill="#3e2e1a" fill-opacity=".5" d="M119.2 187.7l1.6-.2 2.2 13.9-1.6.2z"/><path fill="#7f6f53" fill-opacity=".5" d="M376 127.7l47 2.3-.5 9.4-46.8-2.5z"/><path fill="#c3ac8c" fill-opacity=".5" d="M63.3 75.4l-.1 1.6-9.3-.8v-1.6z"/><path fill="#d8c7a8" fill-opacity=".5" d="M155.4 19.5l-23 18.7-5-6.1 23-18.7z"/><path fill="#d1bd9c" fill-opacity=".5" d="M20.2 74.5l-39-2 .1-1.6 39 2z"/><path fill="#d1bd9a" fill-opacity=".5" d="M229 71l-.4-1.4 44-11 .4 1.5z"/><path fill="#877558" fill-opacity=".5" d="M144.3 130l-.6 1.3-30.2-12.8.6-1.4z"/><path fill="#47351f" fill-opacity=".5" d="M5 202.9l-6 1.7-2.5-9 6-1.7z"/><path fill="#887458" fill-opacity=".5" d="M252.9 116.5l5.8-2.3 5.6 14.6-5.8 2.3z"/><path fill="#d1c0a1" fill-opacity=".5" d="M197.7 37.5l2.2-4.1 16.5 8.8-2.2 4.1z"/><path fill="#ddd0b1" fill-opacity=".5" d="M164.4 30.6l8.8-38 1.5.3-8.8 38z"/><path fill="#c0b192" fill-opacity=".5" d="M350.8 46.6V48l-34.4.6v-1.5z"/><path fill="#dfcdad" fill-opacity=".5" d="M144.9 6.2l1.2-1 32.5 40.1-1.3 1z"/><path fill="#69563d" fill-opacity=".5" d="M383.8 156.6l1.2 1-14 18.6-1.3-.9z"/><path fill="#d6c3a8" fill-opacity=".5" d="M366.4 40.3l-.7-3 28.8-7.3.7 3z"/><path fill="#dac9a9" fill-opacity=".5" d="M339.2 17.2l1.7 2.7-22.3 14.4-1.7-2.6z"/><path fill="#4c3d27" fill-opacity=".5" d="M113.6 196.2l-.2-1.6 30.8-4.8.3 1.5z"/><path fill="#e6d3b5" fill-opacity=".5" d="M82.7 32.5l-1.5 7.7-12.3-2.4 1.5-7.7z"/><path fill="#756548" fill-opacity=".5" d="M351.5 144.6l-7.5 5.5-6.5-8.8 7.6-5.5z"/><path fill="#766247" fill-opacity=".5" d="M229.8 158.2l-.3-1.5 57.8-13.4.4 1.6z"/><path fill="#45321c" fill-opacity=".5" d="M51.5 196l1.4-.6 3.4 7-1.4.7z"/><path fill="#735e45" fill-opacity=".5" d="M-43.8 149.2v-18.7h145.4v18.7z"/><path fill="#b09876" fill-opacity=".5" d="M310 61.4l.3-12.5 40.6.7-.2 12.5z"/><path fill="#e2d1b2" fill-opacity=".5" d="M67.2 8.4L128 4l.1 1.6-60.8 4.2z"/><path fill="#d7caad" fill-opacity=".5" d="M200-8.8l5.5-3 11.7 22.2-5.5 2.9z"/><path fill="#4c3f23" fill-opacity=".5" d="M273.3 184.1l1.8-2.5 6.3 4.6-1.8 2.5z"/><path fill="#e3d1b2" fill-opacity=".5" d="M204.4 46.3l-15.7 10.2-.9-1.3L203.5 45z"/><path fill="#9d8769" fill-opacity=".5" d="M138.3 88.3v15.6H60.2V88.3z"/><path fill="#e1cfb0" fill-opacity=".5" d="M369.3 42.6l1.2 2.9-10.1 4-1.2-2.8z"/><path fill="#968164" fill-opacity=".5" d="M114.4 110.5l3.2-5.4 35.1 20.3-3 5.4z"/><path fill="#9a8166" fill-opacity=".5" d="M22 107.6l-29.7.5-.2-11 29.7-.5z"/><path fill="#8a795b" fill-opacity=".5" d="M175.8 126.9l71.9 2.5v1.5l-72-2.5z"/><path fill="#736045" fill-opacity=".5" d="M454 171.4L343.4 152l1-6.2 110.9 19.6z"/><path fill="#756146" fill-opacity=".5" d="M176.4 143.1l6.3-12.5 36.2 18.5-6.3 12.5z"/><path fill="#3e311d" fill-opacity=".5" d="M226 194.3l-14.4 18.5-11-8.7 14.4-18.4z"/><path fill="#604e35" fill-opacity=".5" d="M382 161.7l1.4-.8 8 13.4-1.3.8z"/><path fill="#968364" fill-opacity=".5" d="M489 126.6v1.5H300v-1.5z"/><path fill="#c0a884" fill-opacity=".5" d="M399.5 59.7l-4.7-4.2 1-1.1 4.7 4.1z"/><path fill="#a6906e" fill-opacity=".5" d="M130.1 64.7l2 10.7-10.6 2.1-2.1-10.7z"/><path fill="#a68e6c" fill-opacity=".5" d="M148 64.8l1.3-.8L163 86.8l-1.4.8z"/><path fill="#dfcfb0" fill-opacity=".5" d="M304.2 22.3l-21.9 8.4-.6-1.4 22-8.4z"/><path fill="#e2d0b1" fill-opacity=".5" d="M71.7 34.2L127 44l-.3 1.5-55.4-9.8z"/><path fill="#e3d2b6" fill-opacity=".5" d="M179.5 19.5l-.8-3 12-3.2.9 3z"/><path fill="#f0debe" fill-opacity=".5" d="M61 15l-.1 6.3-23.5-.4.2-6.3z"/><path fill="#f0dfbe" fill-opacity=".5" d="M115.3 24.9L44.7 4.7l.9-3 70.6 20.2z"/><path fill="#6b5a42" fill-opacity=".5" d="M376.7 158.1l-13.1 17.5-1.3-1 13.2-17.4z"/><path fill="#e2cfb1" fill-opacity=".5" d="M146.6 58.2L131.5 62l-1.6-6.1 15.2-3.8z"/><path fill="#ebd8b9" fill-opacity=".5" d="M106.6 46.2l-.7 18.8-7.8-.3.7-18.7z"/><path fill="#e9d7b4" fill-opacity=".5" d="M188.1 70.2l-1.5.2-1.3-14 1.6-.2z"/><path fill="#776449" fill-opacity=".5" d="M137.2 133.8l-51.4-3.6.4-6.2 51.5 3.6z"/><path fill="#e8d5b5" fill-opacity=".5" d="M221 56.2l1.7 14-1.5.2-1.7-14z"/><path fill="#d4c39f" fill-opacity=".5" d="M86.4 64.1l10.5 3-.5 1.6-10.5-3z"/><path fill="#4f3f29" fill-opacity=".5" d="M197.7 187.5l-11.2 24-1.4-.6 11.2-24z"/><path fill="#e8d8b9" fill-opacity=".5" d="M240.6 15.3l35.9-2.5v1.6l-35.8 2.5z"/><path fill="#f1dbbb" fill-opacity=".5" d="M188.3 66.9v-1.6l34.4.6v1.6z"/><path fill="#e6d3b4" fill-opacity=".5" d="M9.8 47.8l13.5-4.1 6 19.4-13.5 4.1z"/><path fill="#ead8b7" fill-opacity=".5" d="M201.7-27.7l33.8 56.2-1.3.8-33.8-56.2z"/><path fill="#715b43" fill-opacity=".5" d="M202.3 162.9l-.1 1.5L8.7 154.3v-1.6z"/><path fill="#887458" fill-opacity=".5" d="M141 126.8l-.3 1.5-45.8-9.8.3-1.5z"/><path fill="#564429" fill-opacity=".5" d="M403 166.5l-5 7.8-2.6-1.7 5-7.9z"/><path fill="#d8c8a8" fill-opacity=".5" d="M302.3 49.7l-21.5 3.7-.3-1.5 21.5-3.8z"/><path fill="#5e4d37" fill-opacity=".5" d="M225.1 190.6l-.2-10.9h1.6l.2 11z"/><path fill="#ead8b4" fill-opacity=".5" d="M84.5 67.8l-.5 4.7-42-4.4.5-4.7z"/><path fill="#6f5e46" fill-opacity=".5" d="M344.2 156.9l1.5.4-.8 3-1.6-.4z"/><path fill="#614f34" fill-opacity=".5" d="M120.8 168.3l2.1-5.8 48.5 17.6-2.1 5.9z"/><path fill="#e1ceaf" fill-opacity=".5" d="M52.4 62.9L51 56.8l10.7-2.5 1.4 6.1z"/><path fill="#d5c4a4" fill-opacity=".5" d="M256.6 39.1l-2.7-3.8 19.2-13.5 2.7 3.9z"/><path fill="#cfbda0" fill-opacity=".5" d="M126.7 5.4L93.2-2.3l.4-1.5L127 3.9z"/><path fill="#51422e" fill-opacity=".5" d="M292.7 172.6l2.1 12.3-1.5.3-2.2-12.3z"/><path fill="#d2c0a4" fill-opacity=".5" d="M197.4 22.6L181 3.8l10.6-9.3 16.4 19z"/><path fill="#b19a78" fill-opacity=".5" d="M386.5 68l-23.2-3.3 1.7-12.4 23.3 3.3z"/><path fill="#e7d5b4" fill-opacity=".5" d="M153.2 17.4L132 4.2l.8-1.3L154 16z"/><path fill="#ddcbac" fill-opacity=".5" d="M345.4 46.4l-6.2.8-1.8-14 6.3-.7z"/><path fill="#5e4c35" fill-opacity=".5" d="M236 173.4h1.6l-.3 17.2h-1.5z"/><path fill="#5b4931" fill-opacity=".5" d="M120.3 185.4l4.4-6.4 12.8 9-4.4 6.4z"/><path fill="#e6d3b5" fill-opacity=".5" d="M29.7 35.4L13.5 41l-1-3 16.2-5.6z"/><path fill="#dfcba8" fill-opacity=".5" d="M236.4 67.1l28.3-9.1.4 1.4-28.2 9.2z"/><path fill="#edddbe" fill-opacity=".5" d="M329 35.8l-1.3-.9 4.2-6.6 1.3.8z"/><path fill="#d1bf9f" fill-opacity=".5" d="M113.5 45.4l-1.6 2.8-8.2-4.6 1.6-2.7z"/><path fill="#66543a" fill-opacity=".5" d="M221 163.7l33.7 7.2-2.3 10.7-33.6-7.2z"/><path fill="#ab9273" fill-opacity=".5" d="M191.3 74.7l-1 3-20.7-7.1 1-3z"/><path fill="#7e6b4c" fill-opacity=".5" d="M217.2 149.7l51-7.2.5 3.1-51 7.2z"/><path fill="#eddab8" fill-opacity=".5" d="M246.2 33.3l14.4 16.5-17.7 15.4-14.4-16.5z"/><path fill="#776448" fill-opacity=".5" d="M388.3 138.2l28.7 16-6.8 12.2-28.7-15.9z"/><path fill="#4d3c24" fill-opacity=".5" d="M341.6 153l1.2 11-1.6.1-1.1-10.9z"/><path fill="#ead8b8" fill-opacity=".5" d="M106.8 54.8l47.6 9.2-.3 1.5-47.6-9.2z"/><path fill="#5f4c30" fill-opacity=".5" d="M4.7 165.9v-1.6l76.6 2.7-.1 1.5z"/><path fill="#ddccad" fill-opacity=".5" d="M49.9 11.6l.1 1.6-14 1.7-.1-1.5z"/><path fill="#645639" fill-opacity=".5" d="M272.5 176.4l1.6-2.8 8 4.7-1.5 2.7z"/><path fill="#d1bfa0" fill-opacity=".5" d="M162.5 35.3l-11.3 13L136 35l11.3-13z"/><path fill="#e9d8b9" fill-opacity=".5" d="M86.6 19.2l1-1.2 14.9 11.2-1 1.3z"/><path fill="#5d4d37" fill-opacity=".5" d="M263.5 181l4.5-8.1 1.4.7-4.6 8.2z"/><path fill="#e9d7ba" fill-opacity=".5" d="M287 9.2l6.3.3-.7 14-6.2-.2z"/><path fill="#50432c" fill-opacity=".5" d="M224 179.7l.8 1.3-16 9.7-.8-1.4z"/><path fill="#b69e7d" fill-opacity=".5" d="M363.2 50l.8-1.3 18.2 12.2-1 1.3z"/><path fill="#5e4e33" fill-opacity=".5" d="M245.1 186l-1.4-.6L247 175l1.5.5z"/><path fill="#c8af89" fill-opacity=".5" d="M161 67.2h-8v-1.6h7.8z"/><path fill="#6e5a41" fill-opacity=".5" d="M19.4 165.3l-4.7.6-1.3-10.9 4.7-.6z"/><path fill="#d4c3a4" fill-opacity=".5" d="M227.4 19.1L215 21.5l-.3-1.5 12.3-2.4z"/><path fill="#5d4b32" fill-opacity=".5" d="M116.3 195.4l-4.5-1.4 7.8-25.4 4.5 1.4z"/><path fill="#efdcbd" fill-opacity=".5" d="M235.2 57.8l-.1 1.6-59.3-3.1v-1.6z"/><path fill="#dcccae" fill-opacity=".5" d="M118.7 18.5l-22.2-7.6 2-6 22.2 7.7z"/><path fill="#e0ceb3" fill-opacity=".5" d="M271 13l18.2-27 3.8 2.6-18.3 27.2z"/><path fill="#4c3e26" fill-opacity=".5" d="M246.6 193.7l-8.5-13.1 1.3-.9 8.5 13.1z"/><path fill="#cdbf9b" fill-opacity=".5" d="M124.3 62.2l12.5.6-.1 1.6-12.5-.7z"/><path fill="#937e61" fill-opacity=".5" d="M283.5 122.6l.4-1.5 52.9 14.1-.4 1.5z"/><path fill="#e7d6b7" fill-opacity=".5" d="M49.5 31L-.3 34.6l-.8-10.9 49.9-3.5z"/><path fill="#40301c" fill-opacity=".5" d="M104 205.7l-1.4.7-8.2-16.8 1.4-.7z"/><path fill="#e6d6b7" fill-opacity=".5" d="M167.4 17.6L136.3-8.6l1-1.1 31.1 26z"/><path fill="#9f886a" fill-opacity=".5" d="M135.3 96.8l-4.8-8 20.1-12.1 4.8 8z"/><path fill="#b5a380" fill-opacity=".5" d="M256.5 62.6l2.7-1.4 1.5 2.7-2.8 1.5z"/><path fill="#998367" fill-opacity=".5" d="M314.7 122.6l-53-4.6.2-1.6 53 4.7z"/><path fill="#3e311e" fill-opacity=".5" d="M305.4 170.5l16.7 30.1-4.1 2.3-16.7-30z"/><path fill="#b19a77" fill-opacity=".5" d="M236.7 68.6V67l22 .4-.1 1.5z"/><path fill="#40311b" fill-opacity=".5" d="M290.2 182.9l-2.3-10.7 1.6-.4 2.2 10.7z"/><path fill="#d3c0a1" fill-opacity=".5" d="M77.5 46L93 47.8l-.2 1.5-15.5-1.6z"/><path fill="#d1c2a2" fill-opacity=".5" d="M219.2 29.8l.8-1.3 9.3 5.8-.9 1.3z"/><path fill="#e5d5b5" fill-opacity=".5" d="M98.9 63.9l12.2-2.6 1 4.5-12.3 2.6z"/><path fill="#decdad" fill-opacity=".5" d="M115.6 31.6l22.8-5.3.7 3-22.8 5.3z"/><path fill="#6b563c" fill-opacity=".5" d="M219.6 158.7l75 1.3-.1 7.8-75-1.3z"/><path fill="#756248" fill-opacity=".5" d="M110.3 131.2l-90.6 3.2-.3-7.8 90.6-3.2z"/><path fill="#493c22" fill-opacity=".5" d="M312.7 167.8l2.7-1.5 4.7 8-2.7 1.6z"/><path fill="#3d2e1b" fill-opacity=".5" d="M75 198.4h136v1.6H75z"/><path fill="#584a33" fill-opacity=".5" d="M87.8 192l3.1.5-2.2 14-3-.6z"/><path fill="#c8b591" fill-opacity=".5" d="M24.2 71.3v-1.5l31.3 1v1.6z"/><path fill="#594832" fill-opacity=".5" d="M168.5 179.2l-7.8 13.5-2.7-1.6 7.8-13.5z"/><path fill="#826f53" fill-opacity=".5" d="M270.2 134.4l45.3-1.6.2 6.3-45.3 1.5z"/><path fill="#3f2e19" fill-opacity=".5" d="M162.6 210.3l-1.5.4-6.5-22.5 1.5-.5z"/><path fill="#65553a" fill-opacity=".5" d="M307.9 172.1l3-8.8 1.5.5-3 8.9z"/><path fill="#5a4936" fill-opacity=".5" d="M180.7 186.2l-2 10.7-1.6-.3 2-10.7z"/><path fill="#978065" fill-opacity=".5" d="M148.4 120.3l1.5.4-3 10.6-1.5-.5z"/><path fill="#40341c" fill-opacity=".5" d="M358.5 174.2l.2-6.3 3.1.1-.2 6.3z"/><path fill="#4d402b" fill-opacity=".5" d="M348.8 167.7l-4.5-1.3 2.2-7.5 4.5 1.3z"/><path fill="#f2e0c6" fill-opacity=".5" d="M366.4 44.9l25 .8v1.6l-25-.9z"/><path fill="#d7c5a3" fill-opacity=".5" d="M22 66.4L51.5 68l-.1 1.5L21.9 68z"/><path fill="#554631" fill-opacity=".5" d="M195.2 211.5l-6-24.2 1.5-.4 6 24.3z"/><path fill="#a68f6f" fill-opacity=".5" d="M77.3 76.6V78h-90.6v-1.5z"/><path fill="#e5d3b2" fill-opacity=".5" d="M183.7 60.2l.2-1.5 62 7.6-.1 1.6z"/><path fill="#e7d4b3" fill-opacity=".5" d="M113 65.4l21.8-8.8.6 1.5-21.8 8.7z"/><path fill="#a38c6e" fill-opacity=".5" d="M112.5 78.2l1-7.8L239 86l-1 7.7z"/><path fill="#8a755a" fill-opacity=".5" d="M186.8 131l102.8-9 .1 1.6-102.7 9z"/><path fill="#b39e7a" fill-opacity=".5" d="M34.5 74.2l.4-1.5 16.5 4.7-.4 1.5z"/><path fill="#5c4a32" fill-opacity=".5" d="M147.3 193l-2.5-5.6 15.7-7 2.5 5.7z"/><path fill="#ad9573" fill-opacity=".5" d="M285.7 62l.7-7.7 45.1 4-.7 7.7z"/><path fill="#efdebc" fill-opacity=".5" d="M60.2 48.3l-24.9 1.8-.2-3.1 25-1.8z"/><path fill="#d7bc98" fill-opacity=".5" d="M368.6 47.9l.2 1.5-10.9 1.2-.1-1.6z"/><path fill="#957f61" fill-opacity=".5" d="M24.3 107.7l.1-1.6 74.7 6.5v1.6z"/><path fill="#5e4d33" fill-opacity=".5" d="M273.5 172.4l.4 1.5-33.4 8.4-.3-1.6z"/><path fill="#b9a280" fill-opacity=".5" d="M185.2 68.3l9.4.9-.2 1.5-9.3-.8z"/><path fill="#b89f7e" fill-opacity=".5" d="M106.9 71l-9.3-1.3.2-1.6 9.3 1.3z"/><path fill="#9b8466" fill-opacity=".5" d="M17.8 106l.5-9.4 159.2 8.4-.5 9.3z"/><path fill="#977f64" fill-opacity=".5" d="M149.4 119.3l37.5 2-.4 7.8-37.5-2z"/><path fill="#51432d" fill-opacity=".5" d="M381.3 175.7l-3.4 7-1.4-.6 3.4-7z"/><path fill="#5f4b35" fill-opacity=".5" d="M231.9 187.8l2-12.3 4.5.7-2 12.4z"/><path fill="#f0dab9" fill-opacity=".5" d="M378.9 51.7l12.5-.2V53l-12.5.2z"/><path fill="#e8d8b7" fill-opacity=".5" d="M44 .4l45 5.5-.2 1.5-45-5.5z"/><path fill="#e1ceaf" fill-opacity=".5" d="M74.5 66.3l-.8-1.3L105 44.6l.9 1.3z"/><path fill="#eedbbc" fill-opacity=".5" d="M91.4 62.3l-1.2-6.1 23-4.5 1.2 6.2z"/><path fill="#a28b6d" fill-opacity=".5" d="M305.5 79.7v11h-65.7v-11z"/><path fill="#e1cfb1" fill-opacity=".5" d="M110.4 10.5l19.9 4.2-1.6 7.6-20-4.2z"/><path fill="#d0bfa3" fill-opacity=".5" d="M171.4 17l-2.4-5.8 33-14 2.5 5.7z"/><path fill="#3d2e1d" fill-opacity=".5" d="M238.8 213l13.2-28.3 1.4.7-13.2 28.3z"/><path fill="#5c4c35" fill-opacity=".5" d="M373.4 174.1v3.2l-4.6.1-.1-3.1z"/><path fill="#665338" fill-opacity=".5" d="M145 171l-29.6-1.5.4-7.8 29.7 1.6z"/><path fill="#9d8769" fill-opacity=".5" d="M145.6 103.7l-1.4-.8 15-23.8 1.3.8z"/><path fill="#423321" fill-opacity=".5" d="M350.7 207.7l18-31 13.5 7.7-18 31.2z"/><path fill="#433721" fill-opacity=".5" d="M397.5 193.9L380.9 171l1.3-.9 16.5 22.7z"/><path fill="#d9c7ab" fill-opacity=".5" d="M297.3 5.8l-.2-1.5 54-8.6.2 1.6z"/><path fill="#3c2c19" fill-opacity=".5" d="M228.5 186.5l1.5-.4 5.6 19.5-1.5.5z"/><path fill="#554328" fill-opacity=".5" d="M308.2 167l-4.4 1.7-1-3 4.3-1.6z"/><path fill="#d0c0a0" fill-opacity=".5" d="M333 21.3l24.8-3.5 1.3 9.3-24.7 3.5z"/><path fill="#9c8467" fill-opacity=".5" d="M273 115.2l-81 7-1-10.8 81-7.1z"/><path fill="#594732" fill-opacity=".5" d="M26.8 187l2.8-10.5 48.3 13-2.8 10.5z"/><path fill="#dbcaaa" fill-opacity=".5" d="M90.7 30.1l42.1 2.3v1.5l-42.2-2.2z"/><path fill="#f0dfc0" fill-opacity=".5" d="M221.7-1.4L242.2 10l-3 5.4-20.5-11.3z"/><path fill="#a08a6b" fill-opacity=".5" d="M74.5 73.8l49 10.4-2.7 12.3L72 86z"/><path fill="#e9d6b7" fill-opacity=".5" d="M62.8 29.7l44.9 6.3-.2 1.5-44.9-6.3z"/><path fill="#5c4b33" fill-opacity=".5" d="M108.5 195l-1.5-.4 8-31.8 1.4.4z"/><path fill="#e4d2b6" fill-opacity=".5" d="M349.2-3l7.6 1.5-1.3 6.2L348 3z"/><path fill="#4d3d27" fill-opacity=".5" d="M207.3 210.9l-15.6-21.5 2.5-1.8L210 209z"/><path fill="#dbc8ad" fill-opacity=".5" d="M292.5 4.3l-19.8 22.1-1.2-1 19.9-22.1z"/><path fill="#deccae" fill-opacity=".5" d="M183.6 14.3l8.9-3 3.6 10.3-9 3z"/><path fill="#eedcb9" fill-opacity=".5" d="M280.4 56.2l-59.3-3v-1.6l59.4 3z"/><path fill="#b39b79" fill-opacity=".5" d="M318.4 48.4l.4-1.5 33 9.4-.3 1.5z"/><path fill="#d2c2a3" fill-opacity=".5" d="M262 34.5l6.1-9L292.7 42l-6.1 9.1z"/><path fill="#715b43" fill-opacity=".5" d="M147.5 156.3l15.8 6.7-3 7.2-15.8-6.7z"/><path fill="#e4d1b3" fill-opacity=".5" d="M190 56.2l-.2-1.5 21.7-3 .2 1.5z"/><path fill="#d6c5a6" fill-opacity=".5" d="M211.4 46.4L136.5 19l.5-1.4 75 27.2z"/><path fill="#5f4b31" fill-opacity=".5" d="M373.8 163l1.5-.6 2.4 7.5-1.5.5z"/><path fill="#b09776" fill-opacity=".5" d="M405.7 82.7l-6 7.2-28.8-24.1 6-7.2z"/><path fill="#d3c1a2" fill-opacity=".5" d="M196.7 48l-7.6 2-3-12.2 7.6-1.8z"/><path fill="#a28b6d" fill-opacity=".5" d="M329.6 102.1l4.8-13.2 72 26.2-4.9 13.2z"/><path fill="#463926" fill-opacity=".5" d="M221.6 199l.5-9.3 4.7.3-.5 9.3z"/><path fill="#41311e" fill-opacity=".5" d="M283.2 189.3l-.7-6.2 20.2-2.1.7 6.2z"/><path fill="#d9ccaf" fill-opacity=".5" d="M131.5 6l-.3-1.5 20.2-2.8.2 1.6z"/><path fill="#625234" fill-opacity=".5" d="M74.9 165.4l-39-2.7.1-1.6 39 2.8z"/><path fill="#3a2d18" fill-opacity=".5" d="M139.4 205.2l2.4-12.3 1.6.3-2.4 12.3z"/><path fill="#e2d1b1" fill-opacity=".5" d="M29.8 40.5l4.7.2-.2 4.7-4.7-.2z"/><path fill="#766247" fill-opacity=".5" d="M180.8 137l-40.4 4.2-.9-7.8L180 129z"/><path fill="#ceb99c" fill-opacity=".5" d="M284.5 55.9l-4.7.7-.2-1.5 4.6-.8z"/><path fill="#cfbd9e" fill-opacity=".5" d="M307 18.6l4.6-.8 4.9 27.7-4.6.8z"/><path fill="#735d44" fill-opacity=".5" d="M380 161.9l-14.3 6-6.7-15.7 14.4-6.1z"/><path fill="#ac9574" fill-opacity=".5" d="M214.7 77.3l-.4-1.5 110-23.4.4 1.5z"/><path fill="#5e4e3b" fill-opacity=".5" d="M255.7 176.7l1.6-.2 1 7.7-1.5.2z"/><path fill="#9f886a" fill-opacity=".5" d="M231.6 110.6l-46.8-2.5.8-14 46.8 2.4z"/><path fill="#d2c1a1" fill-opacity=".5" d="M368 44.3l-62.5-1.1v-1.6l62.5 1.1z"/><path fill="#987e63" fill-opacity=".5" d="M7.4 103.8l-.8 7.8-12.4-1.3.8-7.8z"/><path fill="#e1d0b0" fill-opacity=".5" d="M84.3 29.5l-.7-1.4 18-9.2.8 1.4z"/><path fill="#f0debe" fill-opacity=".5" d="M103.1 20.3h23.5V25H103z"/><path fill="#7a694d" fill-opacity=".5" d="M283 142.5l.3-1.5 26 5.5-.4 1.6z"/><path fill="#927b5b" fill-opacity=".5" d="M357.8 131.6l7.7-.7.2 1.6-7.8.6z"/><path fill="#e1d0af" fill-opacity=".5" d="M164.2 15.6l-2.3 7.5-9-2.8 2.4-7.4z"/><path fill="#715f45" fill-opacity=".5" d="M385.8 154.6L300 150l.1-3.1 85.9 4.5z"/><path fill="#564d35" fill-opacity=".5" d="M321 168.9l-1.4 10.8-1.5-.1 1.3-10.9z"/><path fill="#ab9274" fill-opacity=".5" d="M309.4 55.4l57.3 20.9-2.7 7.3-57.2-20.8z"/><path fill="#554531" fill-opacity=".5" d="M123.5 197.6H122l-.2-9.3h1.6z"/><path fill="#826f4e" fill-opacity=".5" d="M43.6 117l.5-4.6 32.6 3.4-.5 4.7z"/><path fill="#e5d2b1" fill-opacity=".5" d="M247 48l-.5 1.5-7.5-2.2.4-1.5z"/><path fill="#cfbe9d" fill-opacity=".5" d="M95.4 5.4L91 7l-.5-1.5L94.9 4z"/><path fill="#ddcba8" fill-opacity=".5" d="M-13.5 66l1-4.6L15 66.8l-.9 4.6z"/><path fill="#dacaab" fill-opacity=".5" d="M118.8 32.3l-3.3 18.5-1.5-.3 3.3-18.5z"/><path fill="#584735" fill-opacity=".5" d="M91.3 189.7l1.7 6-1.5.5-1.7-6z"/><path fill="#e5d4b6" fill-opacity=".5" d="M260.8 23l16.8-8.3.7 1.4-16.9 8.2z"/><path fill="#ebd9ba" fill-opacity=".5" d="M-20.1-4.7l48.4 1.6-.4 9.4-48.4-1.7z"/><path fill="#4b3d21" fill-opacity=".5" d="M341.8 160.2l-6.4 8.9-3.8-2.8 6.4-8.8z"/><path fill="#c8b594" fill-opacity=".5" d="M71 75.5l-28-1V73l28.1 1z"/><path fill="#d4c1a6" fill-opacity=".5" d="M427.9 8.2l-7 17.4-56.6-22.9 7-17.3z"/><path fill="#d3c3a4" fill-opacity=".5" d="M216.5 39.9l9.9 4.8-.7 1.4-9.9-4.8z"/><path fill="#c2af91" fill-opacity=".5" d="M103.9 68.6v-1.5l3.2.2-.1 1.6z"/><path fill="#423420" fill-opacity=".5" d="M179.4 191.9l.8-1.4 23.2 13-.8 1.3z"/><path fill="#e2d0b5" fill-opacity=".5" d="M392.8 27.9l2.8-3.8 3.8 2.7-2.8 3.8z"/><path fill="#493d2a" fill-opacity=".5" d="M258 193l-1.4-.4 2.5-9 1.5.4z"/><path fill="#e5d2b4" fill-opacity=".5" d="M195.1 29l-1.6 6.1-12-3.2 1.6-6z"/><path fill="#e9d7b4" fill-opacity=".5" d="M395.4 51.6l1.2 1-2.9 3.6-1.2-1z"/><path fill="#493823" fill-opacity=".5" d="M111.3 184.3l2.4 13.9-1.5.3-2.5-13.9z"/><path fill="#7f6b4e" fill-opacity=".5" d="M402.3 140.7l-93.7-3.3V136l93.7 3.2z"/><path fill="#846f53" fill-opacity=".5" d="M18.1 113l-.2-4.8 15.6-.8.2 4.7z"/><path fill="#6a553c" fill-opacity=".5" d="M294.4 162.4l.4-4.7 37.4 3.3-.4 4.7z"/><path fill="#d2bfa1" fill-opacity=".5" d="M82.4 48.1l-23.1-4 .5-3.1L83 45z"/><path fill="#453620" fill-opacity=".5" d="M373.4 168.3l1.5-.3 3.3 15.3-1.6.3z"/><path fill="#e7d7b7" fill-opacity=".5" d="M230.8 10l-.8 8-15.6-1.4.7-7.8z"/><path fill="#806d51" fill-opacity=".5" d="M71.6 118l-88.4 10.9-.2-1.6 88.4-10.8z"/><path fill="#d7c3a4" fill-opacity=".5" d="M182.3 46.2l-8-17 4.3-2 8 17z"/><path fill="#3b2c19" fill-opacity=".5" d="M127.7 194.3l2.8 1.2-3.5 8.7-2.9-1.2z"/><path fill="#8b755d" fill-opacity=".5" d="M286.7 129.2l-37.5-.6v-6.3l37.6.7z"/><path fill="#e5d4b5" fill-opacity=".5" d="M94.4 11.6l11.8-10.3 1 1.2-11.8 10.2z"/><path fill="#4e3c23" fill-opacity=".5" d="M382.7 165.5l1.4-.6 3.5 8.7-1.4.6z"/><path fill="#ecd8b6" fill-opacity=".5" d="M278.1 57.5l-32.8.6v-1.6l32.8-.5z"/><path fill="#4a3b29" fill-opacity=".5" d="M119.6 204.5l-1.5.2-1.8-10.8 1.6-.2z"/><path fill="#c9b893" fill-opacity=".5" d="M182.8 67.6v1.6l-17.2-.9v-1.6z"/><path fill="#dcc8a9" fill-opacity=".5" d="M84.6 47.5L83.2 43l15-4.6 1.4 4.5z"/><path fill="#e3d1b5" fill-opacity=".5" d="M339.2 14.9l-1.4-.7 2.7-5.6 1.4.7z"/><path fill="#e6d5b7" fill-opacity=".5" d="M344.3 11l.6 1.5-12.6 6.1-.7-1.4z"/><path fill="#4f452f" fill-opacity=".5" d="M355.7 178l1.1-7.8 1.5.3-1 7.7z"/><path fill="#46361f" fill-opacity=".5" d="M247.8 178.8l1.3 9.3-1.6.2-1.3-9.2z"/><path fill="#d0bfa0" fill-opacity=".5" d="M124.7 41.6l2.3-4 12.3 6.7-2.3 4.1z"/><path fill="#f4e4c4" fill-opacity=".5" d="M251.2 25.3l.7 6.2-7.7 1-.8-6.2z"/><path fill="#9f896a" fill-opacity=".5" d="M411 119.2l-.1 7.8-48.5-.9.2-7.8z"/><path fill="#d3be9d" fill-opacity=".5" d="M78.7 71l.8-1.3 2.7 1.5-.7 1.3z"/><path fill="#5d4b31" fill-opacity=".5" d="M134.9 177.4l-112.3-7.9.4-4.7 112.2 7.9z"/><path fill="#52442f" fill-opacity=".5" d="M133.4 190.7l-1.2 14-1.6-.1 1.3-14z"/><path fill="#e5d4ad" fill-opacity=".5" d="M180.8 69.3L167 66.6l.6-3 13.8 2.6z"/><path fill="#9e8569" fill-opacity=".5" d="M318.6 107l25 1.7-1.3 17.2-24.9-1.8z"/><path fill="#e1ceaf" fill-opacity=".5" d="M26.8 69l-6.2-.5 1-14 6.2.4z"/><path fill="#604e34" fill-opacity=".5" d="M250.7 179l-.2 1.5-90.2-7.9.1-1.5z"/><path fill="#958063" fill-opacity=".5" d="M146.2 121.3l-1.2 4.5-30.2-8 1.2-4.6z"/><path fill="#a38c6c" fill-opacity=".5" d="M20.4 77.6l.4-3.1 63.5 8.9-.5 3z"/><path fill="#e2cfb0" fill-opacity=".5" d="M176.2 63.9l-.3-1.5 30.7-6 .3 1.5z"/><path fill="#67583b" fill-opacity=".5" d="M329.1 166l1.3 1-4.8 6-1.3-.9z"/><path fill="#ead6b5" fill-opacity=".5" d="M226.3 23.9L242 39l-1 1-15.9-15z"/><path fill="#e5d1b3" fill-opacity=".5" d="M117.3 54l39 1.4-.1 4.7-39-1.4z"/><path fill="#e2cfb0" fill-opacity=".5" d="M102.5 49L76.3 63 74 58.7l26.2-14z"/><path fill="#decdac" fill-opacity=".5" d="M37.9 22.5l.5 1.4-6 2-.5-1.4z"/><path fill="#584630" fill-opacity=".5" d="M.8 182.7l48.2 5-1.3 12.5L-.5 195z"/><path fill="#493a25" fill-opacity=".5" d="M345.6 158.6h1.6l-.7 9.4-1.5-.1z"/><path fill="#614d32" fill-opacity=".5" d="M3.9 167l8.8-6.3 3.7 5-8.8 6.4z"/><path fill="#d6c2a2" fill-opacity=".5" d="M67.5 70.1l-.8 3-4.5-1 .7-3z"/><path fill="#846d50" fill-opacity=".5" d="M148 90l4.4-4.5 1.1 1-4.3 4.6z"/><path fill="#d9c9a8" fill-opacity=".5" d="M316.2 25.7l.4-6.2 3 .1-.2 6.3z"/><path fill="#b9a383" fill-opacity=".5" d="M208.5 70.6l3-.5.3 1.5-3 .5z"/><path fill="#ddccad" fill-opacity=".5" d="M332 23.2l-10.2 17.6-5.4-3.1 10.2-17.6z"/><path fill="#dcccaa" fill-opacity=".5" d="M239.2 36.7l-13.6 7.6-.8-1.4 13.7-7.5z"/><path fill="#e7d6b8" fill-opacity=".5" d="M134.6 23.5l1.2 1.1-3.2 3.4-1.2-1z"/><path fill="#d3c2a3" fill-opacity=".5" d="M210.4 31.2l-.2-1.6 15.3-3 .3 1.6z"/><path fill="#d1bd9e" fill-opacity=".5" d="M179.3 42.2l6.7 6.5-4.3 4.5-6.8-6.6z"/><path fill="#403220" fill-opacity=".5" d="M330.1 171.8l19.6-5.3 6.1 22.7-19.6 5.2z"/><path fill="#5a482f" fill-opacity=".5" d="M190.2 187.2l.5-1.4 17.6 6.7-.6 1.4z"/><path fill="#b59d7c" fill-opacity=".5" d="M467.6 73l-137-24.1.3-1.6 137 24.2z"/><path fill="#e9d6b8" fill-opacity=".5" d="M71.6 50.4l.5-1.5 23.5 8.5-.5 1.5z"/><path fill="#a68d6f" fill-opacity=".5" d="M296.4 71l110.8 38-2 6-110.8-38.2z"/><path fill="#423524" fill-opacity=".5" d="M331 183.1l-.5 1.5-22.4-6.8.5-1.5z"/><path fill="#dac49e" fill-opacity=".5" d="M107 67v-1.6l9.4.5v1.5z"/><path fill="#705942" fill-opacity=".5" d="M-38 161.1l-.5-9.3 96.8-5.1.5 9.4z"/><path fill="#eedbbd" fill-opacity=".5" d="M185.5 58.2l-44.7-7 .2-1.6 44.8 7z"/><path fill="#d1bfa3" fill-opacity=".5" d="M350.9 14.3l-20.2-8.5 1.2-3 20.2 8.6z"/><path fill="#e0ceaf" fill-opacity=".5" d="M201.4 42.8l1 1.3-14.8 11.5-1-1.2z"/><path fill="#b7a17d" fill-opacity=".5" d="M150 64.3v1.6l-26.6-.5v-1.6z"/><path fill="#eedebe" fill-opacity=".5" d="M273.9 3.8l-14 1.7-1-7.7L273-4z"/><path fill="#d5c3a7" fill-opacity=".5" d="M206.9 15.6l-20.2-25.8 4.9-3.9 20.2 25.9z"/><path fill="#4a3822" fill-opacity=".5" d="M29 201l-1.4.7-2-4.3 1.5-.6z"/><path fill="#d9c8a9" fill-opacity=".5" d="M308.4 11.4l1.2 1-13.3 15.3-1.2-1z"/><path fill="#68553c" fill-opacity=".5" d="M275.2 148l4.5 6.4-34.6 24.2-4.5-6.4z"/><path fill="#e1cfb0" fill-opacity=".5" d="M25.8 44l34.3-.5V45l-34.3.6z"/><path fill="#8c775b" fill-opacity=".5" d="M292.4 126.6l.9-1.3 12.8 9-1 1.3z"/><path fill="#816d52" fill-opacity=".5" d="M203 127.5l21.8 15.2-4.4 6.4-21.8-15.2z"/><path fill="#d1bfa0" fill-opacity=".5" d="M274.4 40l-1.2-6 35.2-6.9 1.2 6.1z"/><path fill="#d5c4a4" fill-opacity=".5" d="M333.9 41.2l-5.6 7.6-1.2-1 5.5-7.5z"/><path fill="#d1c0a1" fill-opacity=".5" d="M216 25.5l-5.6-5.4 3.3-3.4 5.6 5.4z"/><path fill="#d2bea1" fill-opacity=".5" d="M49.7 45.2l-1.4-.7 3.6-7 1.4.8z"/><path fill="#7e6e52" fill-opacity=".5" d="M288 143.4l-42 3.7-1.2-14 42-3.7z"/><path fill="#433523" fill-opacity=".5" d="M369.3 187l59.2-5.2.6 7.8-59.1 5.2z"/><path fill="#867558" fill-opacity=".5" d="M184.5 128.3L239 131l-.1 1.6-54.6-2.9z"/><path fill="#e7d4b8" fill-opacity=".5" d="M293 16.7l-2.9-1 2.7-9 3 1z"/><path fill="#f3e2c0" fill-opacity=".5" d="M101.1 16.9l-.4 1.5-28.4-8.7.5-1.5z"/><path fill="#66563a" fill-opacity=".5" d="M273.7 179l-1-1.3 11.4-8.2 1 1.2z"/><path fill="#d9c8a9" fill-opacity=".5" d="M165.6 20.4l7.8-.2v1.6l-7.8.1z"/><path fill="#44311b" fill-opacity=".5" d="M186.6 191.6l-1.2-3 1.5-.5 1.1 2.9z"/><path fill="#d2c1a2" fill-opacity=".5" d="M95 5.7l-1-9.3 6.3-.6.8 9.4z"/><path fill="#40311b" fill-opacity=".5" d="M163.4 187.6l1.6-2.6 1.3.8-1.6 2.7z"/><path fill="#786449" fill-opacity=".5" d="M219.2 156.7l-.3-1.6 44.8-7 .2 1.5z"/><path fill="#f0debe" fill-opacity=".5" d="M122 55.6l-1.5-4.4 5.9-2.1 1.6 4.4z"/><path fill="#e9d7b8" fill-opacity=".5" d="M172 26.9l35.3-6.9.3 1.6-35.2 6.8z"/><path fill="#dac8ac" fill-opacity=".5" d="M373.7 9l-1 4.5-23-5.3 1.1-4.5z"/><path fill="#dac9aa" fill-opacity=".5" d="M289.5 54.8L252 35.7l.8-1.4 37.5 19.1z"/><path fill="#f3e2c2" fill-opacity=".5" d="M31.7 12.4l-49.6-6 .2-1.6 49.6 6z"/><path fill="#d7c3a5" fill-opacity=".5" d="M1 45.2l30.6-6 .3 1.6-30.7 6z"/><path fill="#5e4933" fill-opacity=".5" d="M360.7 167.9l.5-6.2 1.6.1-.6 6.2z"/><path fill="#d6c5a6" fill-opacity=".5" d="M106.6 12.3l-9-2.8.5-1.5 9 2.9z"/><path fill="#584b34" fill-opacity=".5" d="M301.6 168.8l1.5.4-3.2 10.5-1.5-.5z"/><path fill="#d2c0a4" fill-opacity=".5" d="M356.2 8.3L359.5-7l1.5.3-3.3 15.3z"/><path fill="#dfcfb0" fill-opacity=".5" d="M355.2 48.6l-.5-1.5 10.4-3.5.5 1.5z"/><path fill="#88745b" fill-opacity=".5" d="M131.2 126.7l-10.9-.2v-1.6l11 .2z"/><path fill="#a78f70" fill-opacity=".5" d="M204 84.4l-1.2-9.2 57.2-8 1.3 9.2z"/><path fill="#ebd9b8" fill-opacity=".5" d="M59.1 64.6l21.2 5.3-.3 1.5L58.7 66z"/><path fill="#876e52" fill-opacity=".5" d="M7.9 107l2.8 5.6-1.4.7-2.8-5.6z"/><path fill="#473a23" fill-opacity=".5" d="M421.2 164L378 186l-.7-1.5 43.1-22z"/><path fill="#f2e1c3" fill-opacity=".5" d="M268 14.7l.6 1.5-13.2 5-.5-1.4z"/><path fill="#d9c7ab" fill-opacity=".5" d="M292.2 30.2l-.6 1.4-22.9-10.2.7-1.4z"/><path fill="#998364" fill-opacity=".5" d="M101.2 103.4l3 8.9-13.2 4.6-3-8.9z"/><path fill="#977e64" fill-opacity=".5" d="M252.3 121.8l-37.3 3.3-.2-1.6 37.4-3.3z"/><path fill="#e7d6b7" fill-opacity=".5" d="M104.9 2l1-1.1 9.5 8-1 1.2z"/><path fill="#e1d0b0" fill-opacity=".5" d="M266 20.7l1.1 1.1-19 18.5-1.2-1.2z"/><path fill="#735e43" fill-opacity=".5" d="M382.2 153.3l-2 14-1.5-.3 2-14z"/><path fill="#5a4f35" fill-opacity=".5" d="M318.3 172l-1.5-.3.8-4.6 1.6.3z"/><path fill="#6b553c" fill-opacity=".5" d="M186.7 166.5l46.7-3.3.2 3.1-46.7 3.3z"/><path fill="#b8a786" fill-opacity=".5" d="M232.3 70.7l-.4-1.5 3-.8.4 1.5z"/><path fill="#b09976" fill-opacity=".5" d="M333.4 52.9l42 3.6-1 11-42-3.7z"/><path fill="#9a8365" fill-opacity=".5" d="M50.3 103.8l113.8 8-.3 4.7-113.8-8z"/><path fill="#46341d" fill-opacity=".5" d="M253.7 177.3l1.6.3-1.2 6-1.6-.2z"/><path fill="#3d2f1c" fill-opacity=".5" d="M151.2 202.5l-3.9-4.9 6.2-4.8 3.8 5z"/><path fill="#a18b6d" fill-opacity=".5" d="M291.3 90l3.3-12 43.7 11.7-3.2 12z"/><path fill="#d3c1a4" fill-opacity=".5" d="M199.2-4l7.1 20.6-13.3 4.6-7-20.7z"/><path fill="#67573a" fill-opacity=".5" d="M82.8 164.3l-10.6 2.6-.4-1.5 10.7-2.6z"/><path fill="#f0dfc0" fill-opacity=".5" d="M17.5 11.2l-.2-1.6 48-6.7.2 1.5z"/><path fill="#a0896a" fill-opacity=".5" d="M275.5 86.5l71.2 17.8-1.9 7.6L273.6 94z"/><path fill="#dac5a8" fill-opacity=".5" d="M63 35.2l.4 1.5-6 1.6-.5-1.5z"/><path fill="#f2e0bd" fill-opacity=".5" d="M230.2 48.6l25.9 6-.4 1.5-25.8-6z"/><path fill="#6a5840" fill-opacity=".5" d="M346.3 154.1l9.9 7.7-1 1.3-9.8-7.7z"/><path fill="#56452f" fill-opacity=".5" d="M164.2 184.5l4-4.8 3.6 3-4 4.8z"/><path fill="#5a4832" fill-opacity=".5" d="M1.9 168.9l37.2 4.5-2 15.5L0 184.4z"/><path fill="#5e4a30" fill-opacity=".5" d="M314 166l.7-1.4 4.1 2.2-.7 1.4z"/><path fill="#715d44" fill-opacity=".5" d="M188.9 164.8l-.3-1.5 61.6-10.9.2 1.5z"/><path fill="#e8d7b8" fill-opacity=".5" d="M236.7 13v-1.5l37.5 2V15z"/><path fill="#f8e7ca" fill-opacity=".5" d="M387 54.6l-1.2-1L411.4 22l1.2 1z"/><path fill="#736547" fill-opacity=".5" d="M15 125.7l31.1 1.7v1.5l-31.3-1.6z"/><path fill="#dac6a7" fill-opacity=".5" d="M169.3 31.5l2.9 3.7-8.7 6.7-2.8-3.7z"/><path fill="#efdebe" fill-opacity=".5" d="M12 16l.6 3-23 4.1-.6-3z"/><path fill="#948062" fill-opacity=".5" d="M345.4 135.8l-39.6-9.1.4-1.6 39.5 9.2z"/><path fill="#eedabb" fill-opacity=".5" d="M153.7 63.4l-12.3-1.8.2-1.5 12.4 1.7z"/><path fill="#786449" fill-opacity=".5" d="M107 121.9v1.5H50.8V122z"/><path fill="#77674c" fill-opacity=".5" d="M412.3 147l-76.3-6.6.2-1.5 76.2 6.6z"/><path fill="#5f4c33" fill-opacity=".5" d="M151.1 185.9l-.3-1.6 62.1-15.5.4 1.6z"/><path fill="#806f53" fill-opacity=".5" d="M218.6 131.5l60.9-2 .4 12.4-61 2.1z"/><path fill="#f4e3c2" fill-opacity=".5" d="M403.2 55.7l-.8 1.3-13.4-8 .8-1.3z"/><path fill="#605038" fill-opacity=".5" d="M390.6 170.3l7.3-3 .5 1.5-7.2 3z"/><path fill="#3c2d1a" fill-opacity=".5" d="M170.7 184.4l-.7 20.3h-1.6l.7-20.3z"/><path fill="#c4b08f" fill-opacity=".5" d="M272 59.8l-.3 1.6-4.6-1 .3-1.5z"/><path fill="#d5c5a5" fill-opacity=".5" d="M151.4 23.4l-.4 1.5-22.7-6 .4-1.6z"/><path fill="#f1debb" fill-opacity=".5" d="M232.8 34.1l-1.3-.9 9.2-12.6 1.2.9z"/><path fill="#4e402e" fill-opacity=".5" d="M366.5 170.5l1.4.7-4.8 9.8-1.4-.6z"/><path fill="#deccae" fill-opacity=".5" d="M70.8 23.5l.6-1.4 25 9-.6 1.5z"/><path fill="#4e402a" fill-opacity=".5" d="M106.7 191l.4 1.5-9 2.4-.5-1.5z"/><path fill="#48392a" fill-opacity=".5" d="M174 194.4l1.5.3-1 6.2-1.6-.3z"/><path fill="#a99070" fill-opacity=".5" d="M233.4 76.6l-.1 1.6-90.2-9.5.2-1.6z"/><path fill="#ccb597" fill-opacity=".5" d="M196.3 69.7l-.9 1.3-2.6-1.6.8-1.4z"/><path fill="#7d6a4d" fill-opacity=".5" d="M351.3 141.2l-.6-1.5 27.7-10.6.6 1.5z"/><path fill="#dfceb0" fill-opacity=".5" d="M201.6 46.7v-1.6l20.3.4V47z"/><path fill="#dfd1b4" fill-opacity=".5" d="M209.2 4.2l2.5-1.9 5.7 7.5-2.5 2z"/><path fill="#ddcbae" fill-opacity=".5" d="M31.3 34.9l23-4.1.3 1.5-23 4.1z"/><path fill="#5f4d32" fill-opacity=".5" d="M119.6 183l-6.6-12.4 9.6-5.2 6.6 12.5z"/><path fill="#67543a" fill-opacity=".5" d="M170.6 172.5l-.3 1.5-70.6-13.7.3-1.5z"/><path fill="#e9d9ba" fill-opacity=".5" d="M295.2 17.5l1 3-11.7 4.2-1-3z"/><path fill="#735e46" fill-opacity=".5" d="M157 144.8v4.7l-118.6 4.1-.2-4.7z"/><path fill="#ccb899" fill-opacity=".5" d="M46 72.5l.2-1.6 18.7 2-.2 1.5z"/><path fill="#e3d2b4" fill-opacity=".5" d="M322 16.8l6.5-4.2 4.2 6.5-6.5 4.3z"/><path fill="#877052" fill-opacity=".5" d="M142.7 93.4l.4 1.5-3 .8-.4-1.5z"/><path fill="#ddc6a0" fill-opacity=".5" d="M156.9 65.1l.4-1.5 3 1-.5 1.5z"/><path fill="#3d301e" fill-opacity=".5" d="M295 196.4l-25.2 8.2-3.9-12 25.3-8.1z"/><path fill="#ccb897" fill-opacity=".5" d="M-17 75.6l-.3-4.7 36-1.2.1 4.7z"/><path fill="#e0d1b1" fill-opacity=".5" d="M226.5 17.5l-20.3-.7v-1.5l20.4.7z"/><path fill="#a08a6b" fill-opacity=".5" d="M222 100.7L116 82l1-6.2 106.3 18.8z"/><path fill="#e1cfae" fill-opacity=".5" d="M164.8 18.7l-59.3-3V14l59.3 3z"/><path fill="#e5d4b1" fill-opacity=".5" d="M67.3 64.6l20.2 2-.1 1.6-20.2-2z"/><path fill="#6a593d" fill-opacity=".5" d="M61 162l-.3 1.6-10.7-2.3.3-1.5z"/><path fill="#4c3e26" fill-opacity=".5" d="M230.9 191.4l-1.2-3 16-6.3 1.1 2.8z"/><path fill="#ddcdae" fill-opacity=".5" d="M228 41l-3.5 3.2-10.3-11.8 3.5-3.1z"/><path fill="#ecd8ba" fill-opacity=".5" d="M214.5 53.6L196 51l.4-3 18.6 2.5z"/><path fill="#cfbc9c" fill-opacity=".5" d="M150.7 34.4h6.2l.3 14h-6.3z"/><path fill="#998166" fill-opacity=".5" d="M333.5 121.3l.2 4.7-34.4 1.2-.2-4.7z"/><path fill="#a58e6e" fill-opacity=".5" d="M128.2 67l.4 1.5-45.9 9.8-.3-1.5z"/><path fill="#e3d3b3" fill-opacity=".5" d="M255.7 17.9l-4.7-4.2 7.4-8.1 4.6 4.1z"/><path fill="#e9d7bb" fill-opacity=".5" d="M420 21.2l.8 1.3L378.4 46l-.7-1.3z"/><path fill="#42341d" fill-opacity=".5" d="M239.5 183.5l2.2 9.1-1.5.4-2.2-9z"/><path fill="#5a4c34" fill-opacity=".5" d="M390 174l-.6 1.5-2.9-1.1.6-1.5z"/><path fill="#40331a" fill-opacity=".5" d="M86.4 194.9l-1 3-1.5-.6 1-3z"/><path fill="#edd9ba" fill-opacity=".5" d="M45.2 25.6l-.4-1.5 30.3-7.5.4 1.5z"/><path fill="#d5bf9b" fill-opacity=".5" d="M393.1 57l-.2-1.5 12.4-1.6.2 1.6z"/><path fill="#f1dfbd" fill-opacity=".5" d="M370.8 47.6l1.3-.8 2.4 4-1.3.8z"/><path fill="#af9677" fill-opacity=".5" d="M277.3 64.3l-6.9-3.8.8-1.4L278 63z"/><path fill="#dfcaa8" fill-opacity=".5" d="M210.1 70l.1-1.6 9.4.7-.1 1.5z"/><path fill="#6f5a40" fill-opacity=".5" d="M-.6 160.7l4.6-1 1.3 6.2-4.6 1z"/><path fill="#3d2f21" fill-opacity=".5" d="M420.2 185l3 7.2-45 18.2-2.9-7.3z"/><path fill="#5e4d35" fill-opacity=".5" d="M215 186l7.7-11.9 1.3.9-7.6 11.8z"/><path fill="#e3d1b0" fill-opacity=".5" d="M92 19.4l.6-1.4 17 8-.7 1.3z"/><path fill="#e6d1b2" fill-opacity=".5" d="M199.1 69.6L197.8 54l1.5-.1 1.4 15.5z"/><path fill="#594933" fill-opacity=".5" d="M338.9 158.7l1.5-.2.4 3-1.5.3z"/><path fill="#e8d7b7" fill-opacity=".5" d="M285 52l.2 1.5-21.8 2.3-.1-1.5z"/><path fill="#d6c6a5" fill-opacity=".5" d="M141.4 3.1h3.2l-.1 4.7h-3.1z"/><path fill="#6a533a" fill-opacity=".5" d="M311.4 167.7l-21.7-2.6.4-3.1 21.7 2.6z"/><path fill="#877458" fill-opacity=".5" d="M213 129.2l-20.7 7.1-.6-1.4 20.7-7.2z"/><path fill="#766247" fill-opacity=".5" d="M192.8 152.6l-12.3-2.4 3.3-16.9 12.3 2.4z"/><path fill="#705e45" fill-opacity=".5" d="M353.3 163.3l-1.4-.6 2.6-5.7 1.4.6z"/><path fill="#f1debf" fill-opacity=".5" d="M66.4 51.2l-.3 1.5L54 50.4l.3-1.6z"/><path fill="#4d3822" fill-opacity=".5" d="M67.6 196.1l1.9 4.4-4.3 1.8-1.9-4.3z"/><path fill="#e6d3b2" fill-opacity=".5" d="M227.7 59.2l2.1 9.2-9 2-2.2-9z"/><path fill="#cab291" fill-opacity=".5" d="M380.6 53l3 .3-.1 1.6-3.1-.4z"/><path fill="#a88e71" fill-opacity=".5" d="M265.4 75.3l.9-7.7 82.3 8.6-.8 7.8z"/><path fill="#786448" fill-opacity=".5" d="M129.8 130l.4-1.6 22.8 5.7-.4 1.5z"/><path fill="#8b755a" fill-opacity=".5" d="M271.7 122.3l-69.8 8.5-.2-1.5 69.8-8.6z"/><path fill="#ddc9ab" fill-opacity=".5" d="M190.7 29l1.4 1-9.4 14.4-1.3-.9z"/><path fill="#9b8268" fill-opacity=".5" d="M222.7 112.5v7.8h-62.5v-7.8z"/><path fill="#745e47" fill-opacity=".5" d="M330.8 145.3l.4 1.5-10.4 3.2-.5-1.5z"/><path fill="#9d8668" fill-opacity=".5" d="M77.5 107.2l-82.8-16L-4 85l82.8 16z"/><path fill="#d4c2a4" fill-opacity=".5" d="M52.6 35.8L47.9 40l-2-2.4 4.6-4.1z"/><path fill="#d0bfa3" fill-opacity=".5" d="M118.4 6.3l-.4-1.5 12-3.3.5 1.5z"/><path fill="#d5c2a4" fill-opacity=".5" d="M4.5 61.7l-1 1.3-6.4-4.4.9-1.3z"/><path fill="#e3d2b2" fill-opacity=".5" d="M45.8-3.2l5.9 2.1-2.2 5.9-5.8-2.2z"/><path fill="#53442f" fill-opacity=".5" d="M343 161.1l1.6-.2 1.4 7.7-1.6.2z"/><path fill="#e1cfb3" fill-opacity=".5" d="M291 12.8l.8 1.4-9.3 5.8-.8-1.4z"/><path fill="#c1a78a" fill-opacity=".5" d="M-4.7 75.2l14-.4.1 1.5-14 .5z"/><path fill="#715a42" fill-opacity=".5" d="M386.2 170l-.7-1.4 23.6-12 .7 1.3z"/><path fill="#edddbd" fill-opacity=".5" d="M277.4-5.1l-46.3 22.6-.7-1.4 46.3-22.6z"/><path fill="#decdaf" fill-opacity=".5" d="M33.7 12.8l8.6-3.6.6 1.4-8.6 3.7z"/><path fill="#857351" fill-opacity=".5" d="M66.4 114.8l.1-1.5 15.6 1.6-.2 1.5z"/><path fill="#66533a" fill-opacity=".5" d="M299.1 173.5l-1.5-.2 1.7-14 1.6.2z"/><path fill="#decdae" fill-opacity=".5" d="M164.2 24l11.3 5.3-.6 1.4-11.4-5.3z"/><path fill="#e9d8b8" fill-opacity=".5" d="M47.7 30.8L18.3-9.6l1.2-1L49 30z"/><path fill="#735f43" fill-opacity=".5" d="M220.1 150.3l-9.2 12.7-7.6-5.5 9.2-12.7z"/><path fill="#63523b" fill-opacity=".5" d="M248 183l4.2-11.8 1.5.5-4.3 11.8z"/><path fill="#b39a79" fill-opacity=".5" d="M9.3 75.6l7.7-1.2.3 1.5-7.8 1.3z"/><path fill="#d2c0a1" fill-opacity=".5" d="M189.8 38l6.5 6.7L193 48l-6.5-6.8z"/><path fill="#b59e7f" fill-opacity=".5" d="M95.3 69.2l10.9-1 .1 1.6-10.9 1z"/><path fill="#3a2b19" fill-opacity=".5" d="M112.2 196.3l1.3-.8 4 6.7-1.3.8z"/><path fill="#746045" fill-opacity=".5" d="M366.4 160.8l-1.4-10.9 23.3-2.8 1.3 10.8z"/><path fill="#4e432c" fill-opacity=".5" d="M312.9 173.6l-2.6 5.7-2.9-1.3 2.7-5.7z"/><path fill="#4c3b28" fill-opacity=".5" d="M271 176.7l1.3.9-4.2 6.6-1.3-.8z"/></svg>