<svg xmlns="http://www.w3.org/2000/svg" viewBox="0 0 400 200"><path fill="#9e8a6e" d="M0 0h400v200H0z"/><path fill="#ffffeb" fill-opacity=".5" d="M401.6 55.9L3.7 76.7l-6.9-131 398-20.9z"/><path fill="#271602" fill-opacity=".5" d="M5.2 117.5l397.5 27.8-9.5 135.6-397.5-27.8z"/><path fill="#251b0c" fill-opacity=".5" d="M455.4 199L58.5 233.7l-3-34.2 397-34.8z"/><path fill="#867052" fill-opacity=".5" d="M.5 107.5l398.3 7-.8 48.3-398.4-7z"/><path fill="#f7deb7" fill-opacity=".5" d="M173 71l4-115.5 89 3.1-4 115.6z"/><path fill="#f7ddb7" fill-opacity=".5" d="M175 63.4L-39 71l-3.1-89 214-7.5z"/><path fill="#ac8f6b" fill-opacity=".5" d="M383.7 53.7l-7 66.8-96.4-10.1 7-66.8z"/><path fill="#a88e6d" fill-opacity=".5" d="M232.8 104.7L225 71.2l118.8-27.4 7.7 33.5z"/><path fill="#9c8261" fill-opacity=".5" d="M117 64.5l43.8.7-1.2 68.8-43.8-.8z"/><path fill="#d1c0a2" fill-opacity=".5" d="M134.9 7l85.3-10.5 5.9 48-85.3 10.6z"/><path fill="#fce3c1" fill-opacity=".5" d="M377 51.9L398.3-.3l23.1 9.4-21 52.1z"/><path fill="#6f5d42" fill-opacity=".5" d="M412.7 126.5l5.5 45-54.3 6.7-5.5-45z"/><path fill="#ebd7b5" fill-opacity=".5" d="M289.8-41.6L312 47.9l-94 23.4-22.3-89.5z"/><path fill="#524029" fill-opacity=".5" d="M206.7 229L-47 206.8l4.4-49.8L211 179.2z"/><path fill="#af9575" fill-opacity=".5" d="M338 125.3l3.8-71.8 78 4-3.8 71.8z"/><path fill="#837256" fill-opacity=".5" d="M187.7 124.3l173.4 3-.4 21.9-173.4-3z"/><path fill="#735f45" fill-opacity=".5" d="M-18 150.5l6.7-48L179 129.2l-6.7 48z"/><path fill="#392c1b" fill-opacity=".5" d="M346.4 211.8l-29.8-13.9 19.8-42.5 29.8 13.9z"/><path fill="#d9c2a0" fill-opacity=".5" d="M262 18.1L408.4-5.1l6.1 38.6L268 56.7z"/><path fill="#c9af85" fill-opacity=".5" d="M93.8 71v6.3H-23.5v-6.2z"/><path fill="#f1e1c0" fill-opacity=".5" d="M-76 57.3l-10.2-41L77.5-24.4l10.3 41z"/><path fill="#ab906e" fill-opacity=".5" d="M160.5 65.4l.8 14L91 83.1l-.7-14z"/><path fill="#9d8668" fill-opacity=".5" d="M368.5 96.6l-5.4 38.7-127-17.8 5.5-38.7z"/><path fill="#cebb9c" fill-opacity=".5" d="M183.7 40.8l-.3 9.4-146.8-5.1.3-9.4z"/><path fill="#fff0ce" fill-opacity=".5" d="M224 70.9l-40.4-4.3.2-1.5 40.4 4.2z"/><path fill="#f4e3c5" fill-opacity=".5" d="M279.6 14.6l-38.9 23.3-25-41.5 39-23.4z"/><path fill="#a2896a" fill-opacity=".5" d="M141 132l-8-44.6 137-24.1 7.9 44.6z"/><path fill="#ebd7b5" fill-opacity=".5" d="M46.3 77.3l-3-24.8 77.5-9.5 3 24.8z"/><path fill="#ffefd2" fill-opacity=".5" d="M403.5 35.3l2.6 9-33 9.5-2.6-9z"/><path fill="#3b2f1c" fill-opacity=".5" d="M318.4 167.2l6.2 29-32 6.9-6.3-29z"/><path fill="#8f795b" fill-opacity=".5" d="M56.7 91.8l3.3 31-84 8.9-3.2-31.1z"/><path fill="#b49b79" fill-opacity=".5" d="M332.7 72l5.5-26 99.4 21-5.5 26z"/><path fill="#705a41" fill-opacity=".5" d="M287 173.7l-189-10 1-17 188.7 9.8z"/><path fill="#d3c3a7" fill-opacity=".5" d="M204.3-28.9l28.1 69.5-29 11.7-28-69.5z"/><path fill="#ead7b7" fill-opacity=".5" d="M135.5 4.3l74 19.9-2.8 10.5-74-19.8z"/><path fill="#d5c3a4" fill-opacity=".5" d="M381.3 47.7H254.7v-22h126.6z"/><path fill="#715c43" fill-opacity=".5" d="M89.6 122.7l3.1 35.8-124.5 11-3.1-35.9z"/><path fill="#58482f" fill-opacity=".5" d="M283.3 173.4l1 7.7L171.5 197l-1-7.8z"/><path fill="#9c8465" fill-opacity=".5" d="M-6 86l246.3 17.2-1.5 21.8-246.3-17.2z"/><path fill="#76654a" fill-opacity=".5" d="M287.4 149.7l.2-15.6 126.6 2.2-.3 15.6z"/><path fill="#aa9172" fill-opacity=".5" d="M293.6 73.5L203 97.8l-4.4-16.6L289 56.9z"/><path fill="#a38b6a" fill-opacity=".5" d="M43.8 100l-3.3-18.5L139 64l3.3 18.5z"/><path fill="#634f38" fill-opacity=".5" d="M272.3 159.2l1-12.5 93.5 8.2-1.1 12.4z"/><path fill="#aa9170" fill-opacity=".5" d="M127.8 77.4l1-12.4 104.5 9-1.3 12.6z"/><path fill="#ebd9b9" fill-opacity=".5" d="M339 37.9l-15.7.8-1.3-25 15.6-.8z"/><path fill="#816f54" fill-opacity=".5" d="M294.3 143.7L217 154.5l-3.5-24.7 77.3-10.9z"/><path fill="#cbbb9e" fill-opacity=".5" d="M137.6 1.1l-.2 4.7-64-2.2.1-4.7z"/><path fill="#f1dfbc" fill-opacity=".5" d="M223.7 54.2l1.3-12.4 52.9 5.5-1.4 12.5z"/><path fill="#aa9273" fill-opacity=".5" d="M358.1 48.9l3.5 27.9L277.8 87l-3.4-28z"/><path fill="#edd8b7" fill-opacity=".5" d="M174.1 69.8l-38-8.8 3.8-16.7L178 53z"/><path fill="#d1be9f" fill-opacity=".5" d="M196.9 35.7l-2 18.6-68.3-7.2 2-18.6z"/><path fill="#362918" fill-opacity=".5" d="M95.3 203.1v-7.8h139v7.8z"/><path fill="#3f3120" fill-opacity=".5" d="M336 157.3l72.5 40.1-24.2 43.8-72.5-40.2z"/><path fill="#5f4d31" fill-opacity=".5" d="M193.8 187L81 169l1.7-10.8 112.7 17.9z"/><path fill="#ebd9b9" fill-opacity=".5" d="M91.7 46l-44-16L59.8-3.8l44 16z"/><path fill="#cdbb9d" fill-opacity=".5" d="M318.1 46l-45 4.8-2.2-20.3 45.1-4.7z"/><path fill="#e5d3b6" fill-opacity=".5" d="M253.5 14l13.4-33.4L307.5-3 294 30.3z"/><path fill="#f9e5c2" fill-opacity=".5" d="M341.1 43.1L417 53.8l-.2 1.5L341 44.7z"/><path fill="#c4af88" fill-opacity=".5" d="M29.9 68.6l35.9 1.9-.4 6.2-35.9-1.9z"/><path fill="#5f482f" fill-opacity=".5" d="M140.7 95.7l-.7-1.4 8.4-4 .7 1.3z"/><path fill="#d5c2a5" fill-opacity=".5" d="M425.8 34.3l-129.6-4.5 1.5-43.8 129.6 4.6z"/><path fill="#f2ddbb" fill-opacity=".5" d="M248.4 66.2l-54.6 2v-1.6l54.6-2z"/><path fill="#3a2c1b" fill-opacity=".5" d="M328.4 185.2l.8 15.6-118.6 6.2-.8-15.6z"/><path fill="#745f45" fill-opacity=".5" d="M101.7 122.1L227 148.7l-5.2 24.5-125.3-26.6z"/><path fill="#ecd8b9" fill-opacity=".5" d="M-20 65l-.6-15.7L74.7 46l.5 15.6z"/><path fill="#d5c2a4" fill-opacity=".5" d="M58.8 40l-74.3 10.5-1-7.7 74.2-10.5z"/><path fill="#f7e7c4" fill-opacity=".5" d="M126.6 24.3l-1.6 4.4-47-17 1.7-4.5z"/><path fill="#7b6b4e" fill-opacity=".5" d="M-6.6 124.2l.8-14 89 4.6-.8 14z"/><path fill="#cdbca1" fill-opacity=".5" d="M205.4 9.5l-32.8 10-4.6-15 32.9-10z"/><path fill="#9f876a" fill-opacity=".5" d="M387.1 94.5l3.5 32.7-76.2 8-3.4-32.7z"/><path fill="#fdebce" fill-opacity=".5" d="M401.5 56.7l-12-3.6 7.4-24 12 3.7z"/><path fill="#eddebf" fill-opacity=".5" d="M178.3-.5L153 12l-4.8-10 25.3-12.3z"/><path fill="#a68d6b" fill-opacity=".5" d="M18.6 81.9L19 74l35.9 1.8-.4 7.8z"/><path fill="#d4c1a3" fill-opacity=".5" d="M116 51.8L60 45l.7-4.7 55.8 6.9z"/><path fill="#dac7a4" fill-opacity=".5" d="M-1 75.3L-6 59l14.9-4.6 5 16.5z"/><path fill="#f1ddbd" fill-opacity=".5" d="M188.5 48.3l50 1.8-.4 9.4-50-1.8z"/><path fill="#5e4c33" fill-opacity=".5" d="M186.5 185.3l25.1-23.4 12.8 13.7-25.1 23.4z"/><path fill="#f2dfc1" fill-opacity=".5" d="M97.7 50.8h62.5v3.1H97.7z"/><path fill="#d7c6a8" fill-opacity=".5" d="M91 4l4.4-10 71.4 31.7-4.4 10z"/><path fill="#54422d" fill-opacity=".5" d="M-23.9 184.3l110.5 9.6-1.8 20.3-110.5-9.7z"/><path fill="#8d795d" fill-opacity=".5" d="M214.5 134.8l-.3 1.5-52.1-10.1.3-1.6z"/><path fill="#68543a" fill-opacity=".5" d="M220.9 160.5l50.6-9.8 3 15.3-50.7 9.9z"/><path fill="#d1c0a3" fill-opacity=".5" d="M401.1-6.5l11 20.7-64.8 34.5-11-20.7z"/><path fill="#f2e2c2" fill-opacity=".5" d="M254.5-1.3L218.3 17l-5.6-11 36.2-18.4z"/><path fill="#b19978" fill-opacity=".5" d="M311.7 66.4l2.5-20.1 113.2 13.9-2.5 20.1z"/><path fill="#433522" fill-opacity=".5" d="M372.3 175.6l34-5.3 7.3 46.3-34 5.3z"/><path fill="#776348" fill-opacity=".5" d="M415.6 156l-51.3 13.7-6.5-24.1 51.3-13.8z"/><path fill="#e8d5b2" fill-opacity=".5" d="M102.5 58.5l1.8 7.5L71 74.4l-2-7.6z"/><path fill="#f7e4c3" fill-opacity=".5" d="M366.3 47.7l1.6-4.4 20.5 7.5-1.6 4.4z"/><path fill="#ab9273" fill-opacity=".5" d="M265.2 78.5l-3.9-16.7L320.7 48l3.9 16.7z"/><path fill="#9b8466" fill-opacity=".5" d="M234.6 109l4.2-18.2 115.7 26.7-4.2 18.3z"/><path fill="#705b42" fill-opacity=".5" d="M18 124.4l1.5 42.1-36 1.3-1.4-42.2z"/><path fill="#3c2e1c" fill-opacity=".5" d="M150.2 197l21.4-13 4.8 8.1L155 205z"/><path fill="#a58e6e" fill-opacity=".5" d="M114.4 83.8l1-17.2 81 4.3-.8 17.2z"/><path fill="#eddcbf" fill-opacity=".5" d="M343.3 13l-22 8.3-.5-1.4 21.9-8.4z"/><path fill="#cfbe9f" fill-opacity=".5" d="M136.1 45.3l4.8-24.5 21.4 4.2-4.7 24.5z"/><path fill="#f4e3c4" fill-opacity=".5" d="M28.5 13.8l-42 3.6-1-10.9 42-3.6z"/><path fill="#4a3b27" fill-opacity=".5" d="M93.8 189.3l57.8 1-.1 6.3-57.8-1z"/><path fill="#e3d3b3" fill-opacity=".5" d="M328.5 48.7l-2.2-15.5 15.5-2.2 2.2 15.5z"/><path fill="#f0dbb7" fill-opacity=".5" d="M277.3 60.2H243V57h34.3z"/></svg>