<svg xmlns="http://www.w3.org/2000/svg" viewBox="0 0 400 200"><path fill="#544b47" d="M0 0h400v200H0z"/><path fill="#d4e6f3" fill-opacity=".5" d="M252.3 158.1l-53.9-69L265 37.3l53.9 69z"/><path fill="#c2af96" fill-opacity=".5" d="M302.6 239.4L92.3 179.1l13-45 210.2 60.2z"/><path fill="#00050f" fill-opacity=".5" d="M71.9 104.4l28.7-115.2 69.7 17.4-28.7 115.2z"/><path fill="#040000" fill-opacity=".5" d="M-27.5 189.2l77.7-63 57 70.5-77.7 63z"/><path fill="#311f14" fill-opacity=".5" d="M294.2 185.1l43.5-174.3 122.8 30.6L417 215.8z"/><path fill="#e2f6fd" fill-opacity=".5" d="M225 73.8L265.3 86l-13.7 44.8-40.3-12.3z"/><path fill="#bbbbae" fill-opacity=".5" d="M74 84.1l-46.6 48.4-12.4-12 46.7-48.3z"/><path fill="#dfeef9" fill-opacity=".5" d="M227.7 75.6l-13 5.5L202 51l13-5.5z"/><path fill="#adbcbe" fill-opacity=".5" d="M61.2 50l-79.9 60.2-6.6-8.7 80-60.2z"/><path fill="#000400" fill-opacity=".5" d="M244.6-17l20.9 18.8-46 51.1-21-18.8z"/><path fill="#4f0e00" fill-opacity=".5" d="M152 131.8l-14.8-22 68.6-46.3 14.9 22z"/><path fill="#93b0bc" fill-opacity=".5" d="M210.2-25.5l15 8.3-40.1 72.4-15-8.3z"/><path fill="#1e252c" fill-opacity=".5" d="M54 80.6l-71-68.4 49-50.6L102.8 30z"/><path fill="#c05b3d" fill-opacity=".5" d="M220.5 119.1l-30.1 40-31.2-23.5 30-40z"/><path fill="#1e2126" fill-opacity=".5" d="M241.4 134.4L260 126l12.7 28.6-18.6 8.2z"/><path fill="#bbc2c1" fill-opacity=".5" d="M115.4 90.8l-36.7 48.7-5-3.8 36.7-48.6z"/><path fill-opacity=".5" d="M365.7 274.5l33.1-187.8 33.9 6-33.1 187.7z"/><path fill="#99b0be" fill-opacity=".5" d="M370.3 202.7l14.1-80 6.2 1.1-14.1 80z"/><path fill="#212118" fill-opacity=".5" d="M334.9 21.6L325.8 58 213.6 30l9-36.4z"/><path fill="#9d7568" fill-opacity=".5" d="M229.5 77.6l-5.3-34 44.7-7 5.4 33.9z"/><path fill="#17120d" fill-opacity=".5" d="M111.7 64.8L54.9 149l-18.1-12.2 56.7-84.2z"/><path fill="#794211" fill-opacity=".5" d="M342.2 227l-128.5-39.2 5-16.4 128.5 39.2z"/><path fill="#a08361" fill-opacity=".5" d="M61 128.2l62.5 14.4-5 21.4-62.3-14.5z"/><path fill="#6a8bac" fill-opacity=".5" d="M270.4 96.2L286 73l39 26-15.8 23.3z"/><path fill="#6e7f7e" fill-opacity=".5" d="M365.6 100.7l5.1-32.4 27.8 4.4-5.1 32.4z"/><path fill="#250706" fill-opacity=".5" d="M285.1 143.3l59.6-57.5 21.7 22.5-59.5 57.5z"/><path fill="#b9d0de" fill-opacity=".5" d="M322 193l-1.6 6.1L192 164.7l1.6-6z"/><path fill="#884922" fill-opacity=".5" d="M335.3 174.1l-7.5 20.6-64.6-23.5 7.5-20.6z"/><path fill="#070c18" fill-opacity=".5" d="M27 103.6L16.5 92 84 29.3l10.6 11.4z"/><path fill="#a8c0cb" fill-opacity=".5" d="M209.2 144.5l27.1 28-3.3 3.3-27.2-28z"/><path fill="#00020c" fill-opacity=".5" d="M13.2 176.2l-32.3-6.3 7.5-38.3 32.2 6.3z"/><path fill="#a4a6a0" fill-opacity=".5" d="M46.8 46.6l6.6 6.6-48.6 48.6-6.6-6.6z"/><path fill="#8e7056" fill-opacity=".5" d="M389.3 138.9l-3.3 10.4-55-17.9 3.4-10.4z"/><path fill="#c2d2db" fill-opacity=".5" d="M238.4 176.4l-.5 1.5-162.2-46.5.4-1.5z"/><path fill="#97acbb" fill-opacity=".5" d="M150.4 190.4l6.4-17.6 88.1 32-6.4 17.7z"/><path fill="#3b1b14" fill-opacity=".5" d="M146.7 147L125 110.7 161 89l21.8 36.2z"/><path fill="#000e1b" fill-opacity=".5" d="M-14.8 43.4l27.2-12 13.3 29.9-27.1 12z"/><path fill="#7f93a8" fill-opacity=".5" d="M185.7 84l-12.5-1 5.2-59.2 12.4 1z"/><path fill="#8e615c" fill-opacity=".5" d="M310.5 183.6l-8.8-13 36.3-24.5 8.7 13z"/><path fill="#dcf9fd" fill-opacity=".5" d="M213.4 56.8l-.7-1.4 31.7-16.9.7 1.4z"/><path fill="#070e06" fill-opacity=".5" d="M125.3 97.6l10.4 9.4-28.2 31.3-10.4-9.4z"/><path fill="#8c5520" fill-opacity=".5" d="M220.4 182.5l-2.2 7.5-127.6-36.6 2.1-7.5z"/><path fill="#1c0d08" fill-opacity=".5" d="M315.6 88.3l-35-23.6L286 57l35 23.6z"/><path fill="#9c9483" fill-opacity=".5" d="M28.6 107l16 17.2L23 144.5 7 127.3z"/><path fill="#7a614e" fill-opacity=".5" d="M125.6 13l-51.4 3.6L72.8-2l51.5-3.6z"/><path fill="#000c13" fill-opacity=".5" d="M422.8-3.2l-.4 11-87.4-3 .4-11z"/><path fill="#a9bac3" fill-opacity=".5" d="M117.3 125.6l17.2.3-.2 9.4-17.2-.3z"/><path fill="#656054" fill-opacity=".5" d="M393.3 74L389 92.3l-77.7-18 4.2-18.2z"/><path fill="#1c0300" fill-opacity=".5" d="M234.2 161.6l53.5 11.4-1.6 7.6-53.5-11.4z"/><path fill="#250800" fill-opacity=".5" d="M328.3 170.1l36.6-8.4 5.2 22.8-36.5 8.5z"/><path fill="#256695" fill-opacity=".5" d="M171.6 39.1L151-11.6l10.1-4L181.7 35z"/><path fill="#c4dbdf" fill-opacity=".5" d="M285.2 54.9l-1.6 2.7L254 40.4l1.5-2.7z"/><path fill="#acb1b1" fill-opacity=".5" d="M319.3 190.7l25.2 8.2-2.8 8.9-25.3-8.2z"/><path fill="#616d75" fill-opacity=".5" d="M95.9 155.4l69.7 38.6-9.9 17.8L86 173.2z"/><path fill="#1a0801" fill-opacity=".5" d="M199 77.8l-9.2-1.3 6.5-46.5 9.3 1.3z"/><path fill="#704d72" fill-opacity=".5" d="M125.6 51.8l13.5 3.6-6.8 25.7-13.6-3.7z"/><path fill="#da956f" fill-opacity=".5" d="M196.5 133.7l-3-12.1 27.2-6.8 3 12z"/><path fill="#886f5a" fill-opacity=".5" d="M362 142l25.7-46.4 8.2 4.5-25.8 46.5z"/><path fill="#817a7f" fill-opacity=".5" d="M43 203.6l-1.5-.3 10.8-61.6 1.6.3z"/><path fill="#010908" fill-opacity=".5" d="M26.8 195.4l4.8-31 46.3 7.4-4.9 30.9z"/><path fill="#5686a4" fill-opacity=".5" d="M173.4 68.7l7 6.2-24.1 26.7-7-6.2z"/><path fill="#858393" fill-opacity=".5" d="M77 61.6l37.2-26 .9 1.3-37.1 26z"/><path fill="#932a45" fill-opacity=".5" d="M13.5 148.9l7.8-.7 4.2 48.2-7.7.7z"/><path fill="#a4cbe3" fill-opacity=".5" d="M215 91.5l18.4 19.1-12.4 12-18.4-19.2z"/><path fill="#040c10" fill-opacity=".5" d="M148.4-23.2l17.4 10.5L109.4 81 92 70.6z"/><path fill="#311621" fill-opacity=".5" d="M154 24l10.4-3.4L178.8 65l-10.4 3.4z"/><path fill="#000005" fill-opacity=".5" d="M307.5 46.5l-2 7.5-33.3-8.3 2-7.6z"/><path fill="#a3a09a" fill-opacity=".5" d="M210.9 171.4l-1.8-4.3 50.3-21.3 1.8 4.3z"/><path fill="#526474" fill-opacity=".5" d="M291.2 90l-7.7 39.9-13.8-2.7 7.7-39.9z"/><path fill="#6d6761" fill-opacity=".5" d="M-29.1 28.3l-.7-7.8 110.5-9.7.7 7.8z"/><path fill="#a89882" fill-opacity=".5" d="M206-16.1l15 3.7-9.7 39.5-15.2-3.8z"/><path fill="#302a1f" fill-opacity=".5" d="M324.8 11.7l92.8 13-6.5 46.4-92.8-13z"/><path fill="#15191c" fill-opacity=".5" d="M24.6 2.7l20.1 47.5-11.5 4.9L13.1 7.6z"/><path fill="#99a4a8" fill-opacity=".5" d="M.8 85l-4.4-11.6 26.2-10L27.1 75z"/><path fill="#57717a" fill-opacity=".5" d="M52.3 47.6L86 54.2l-2.4 12.2L50 60z"/><path fill="#7e8789" fill-opacity=".5" d="M387.3 143.2l-26.3 98-6-1.6 26.2-98z"/><path fill="#97bcd5" fill-opacity=".5" d="M284.7 119.6l34.5-27 3.9 5-34.5 27z"/><path fill="#07090d" fill-opacity=".5" d="M-3.3 128l79-71.2 1 1.2-79 71.1z"/><path fill="#4a4037" fill-opacity=".5" d="M239.3 21.3l11.2-32.5 93 32-11.2 32.6z"/><path fill="#3d3526" fill-opacity=".5" d="M129.8 209.5l-14.3 12-56.3-67 14.4-12z"/><path fill="#b6bec1" fill-opacity=".5" d="M258.6 80.4l9 46-21.5 4.2-9-46z"/><path fill="#1b0000" fill-opacity=".5" d="M210.6 62.3l-2.2-5.8 4.5-1.6 2 5.8z"/><path fill="#0e1b23" fill-opacity=".5" d="M219 47l-1 1-51.1-52.8 1.1-1z"/><path fill="#6b3628" fill-opacity=".5" d="M138.7 93.8l78.7-12.5 1.7 10.8-78.7 12.5z"/><path fill="#835f56" fill-opacity=".5" d="M268.8 56.2L265 77.7l-41.6-7.3 3.8-21.6z"/><path fill="#000304" fill-opacity=".5" d="M43 127l61.6-48 3.9 4.9-61.6 48z"/><path fill="#271714" fill-opacity=".5" d="M210.2 161.2l-4 2.4-24.2-42 4-2.3z"/><path fill="#43281f" fill-opacity=".5" d="M313.8 188.4l-207.7-51.8.4-1.5 207.7 51.8z"/><path fill="#01181d" fill-opacity=".5" d="M75.4 28.5l64.4 82.5-7.4 5.8L68 34.3z"/><path fill="#b78b5c" fill-opacity=".5" d="M149.1 160.5l.9-3 171.2 49.1-.9 3z"/><path fill="#00090f" fill-opacity=".5" d="M79.5 127.3l-1.3-.9 22-30.3 1.3 1z"/><path fill="#8d7f84" fill-opacity=".5" d="M29.5 72.7L8 10.7l1.5-.6 21.4 62z"/><path fill="#140900" fill-opacity=".5" d="M324.6 133.6l5.2-7.8 44 29.7-5.2 7.8z"/><path fill="#af9eb0" fill-opacity=".5" d="M276.5 165.7l-14-.2v-7.8l14.1.2z"/><path fill="#daedf3" fill-opacity=".5" d="M270 45.7l-.3 1.5-25.7-7 .4-1.4z"/><path fill="#837874" fill-opacity=".5" d="M54.7 144.3l-9.5 53.9-1.5-.3 9.5-53.9z"/><path fill="#4e1915" fill-opacity=".5" d="M340.9 122.3l26.5-32.8 18.3 14.8L359 137z"/><path fill="#d27c51" fill-opacity=".5" d="M207.3 96.6l2.5 5.7-34.3 15.2-2.5-5.7z"/><path fill="#001417" fill-opacity=".5" d="M212.8 33.7l73 7.6-.1 1.6-73-7.7z"/><path fill="#201514" fill-opacity=".5" d="M316 61l41.1 61-9 6L307 67.1z"/></svg>