<svg xmlns="http://www.w3.org/2000/svg" viewBox="0 0 400 200"><filter id="b"><feGaussianBlur stdDeviation="12" /></filter><path fill="#544b47" d="M0 0h400v200H0z"/><g filter="url(#b)" transform="translate(.8 .8) scale(1.5625)" fill-opacity=".5"><ellipse fill="#cdd9e3" rx="1" ry="1" transform="rotate(36.7 -4.3 276.8) scale(36.97369 29.49681)"/><ellipse fill="#b6a794" cx="111" cy="113" rx="48" ry="20"/><ellipse fill="#080a13" rx="1" ry="1" transform="matrix(-27.89777 -1.85297 3.75738 -56.57011 75.4 24.9)"/><ellipse fill="#050000" rx="1" ry="1" transform="rotate(-156.9 25.6 57.5) scale(55.18423 26.4225)"/><path fill="#2f271f" d="M197-27.8l99.5 147.6-41.5 28L155.5.2z"/><path fill="#d6f1fb" d="M130.5 68.9l20.3-23.4L173.5 65l-20.3 23.4z"/><path fill="#978976" d="M143 143L39 92l26-29z"/><path fill="#bbbbae" d="M46.5 51.2L15 87.4l-7.5-6.6L39 44.6z"/><path fill="#b1c1c2" d="M7 62.7L33.8 29 14.3 39.5l-30.3 15z"/><path fill="#260200" d="M237.5 71.1l-42.2 35.4-14.8-17.6 42.2-35.4z"/><path fill="#bdb19f" d="M137 105l61 34 60-4z"/><ellipse rx="1" ry="1" transform="matrix(8.53354 4.32986 -8.3962 16.54771 147.2 12.2)"/><ellipse fill="#8ba7b8" rx="1" ry="1" transform="rotate(118.4 58.6 41.8) scale(25.08302 6.21553)"/><path fill="#6b2c1e" d="M134 44L57 83l79 20z"/><path fill="#080707" d="M11.3 101.6l64.8-80 8.6 6.8-64.8 80z"/></g></svg>