<svg xmlns="http://www.w3.org/2000/svg" viewBox="0 0 400 200"><path fill="#544b47" d="M0 0h400v200H0z"/><path fill="#d2e5f4" fill-opacity=".5" d="M267.6 37.3l53.1 65.6-68 55-53-65.5z"/><path fill="#c1af97" fill-opacity=".5" d="M294.2 242.3L99.5 190.2l14.1-52.9 194.7 52.2z"/><path fill="#0a0c13" fill-opacity=".5" d="M152.7 122.3L64 114.6 77-33.3l88.7 7.8z"/><path fill-opacity=".5" d="M90.5 243L-22 188.4l26.7-54.8 112.4 54.8z"/><path fill="#381f12" fill-opacity=".5" d="M334.3 11.8l73 16.9-40 173.5-73-16.8z"/><path fill="#cbc9c9" fill-opacity=".5" d="M203 48.4l32.6-4 9.9 80.6-32.6 4z"/><path fill-opacity=".5" d="M395.5 252.2l-23.1-3.7 30.5-192.9 23.2 3.7z"/><path fill="#b7b8ad" fill-opacity=".5" d="M79.4 78.7l-54.3 56.2-12.3-12L67 66.7z"/><path fill="#bbc9c7" fill-opacity=".5" d="M-2 97.6l-7.4-10L41 50.7l7.4 10.1z"/><path fill-opacity=".5" d="M261.3-.3L219 52l-19.4-15.7L242-16z"/><path fill="#591807" fill-opacity=".5" d="M149.4 140.2l-15.6-21.5 74.6-54.2L224 86z"/><path fill="#9ab5bf" fill-opacity=".5" d="M221.1-5l-38.4 57-11.7-8 38.5-57z"/><path fill="#c45c3d" fill-opacity=".5" d="M188 157.4l-27.5-23 31.1-37.2 27.6 23.1z"/><path fill="#d2e9f0" fill-opacity=".5" d="M254.5 129.3l-42.6-9.8L222 75.3l42.6 9.9z"/><path fill="#ccd4d4" fill-opacity=".5" d="M112.3 84.2l3.9 2.7L83 136l-3.9-2.6z"/><path fill="#1b1c1f" fill-opacity=".5" d="M252.5 164.2l-10.2-29.6 19.2-6.6 10.2 29.6z"/><path fill="#31322c" fill-opacity=".5" d="M298.8 91.7l-39-83.5 83.6-39 39 83.6z"/><path fill="#1b222c" fill-opacity=".5" d="M49.5-17.5L73.9 40l-90.6 38.5L-41 20.9z"/><path fill="#ab9171" fill-opacity=".5" d="M114.1 171l-50-22.3L75 124.4l50 22.2z"/><path fill="#90695b" fill-opacity=".5" d="M222.3 74.6l.7-36 46.8.9-.6 36z"/><path fill="#1d0f0e" fill-opacity=".5" d="M28.2 187.4L11.4 176 95.2 51.7 112.1 63z"/><path fill="#090f1d" fill-opacity=".5" d="M2.9 126l-8.7-9L98.7 16.2l8.7 9z"/><path fill="#7d4818" fill-opacity=".5" d="M214 189.3l5.7-17.8 77.3 25.1-5.8 17.8z"/><path fill="#bccfda" fill-opacity=".5" d="M168.4 155.2l197.1 49.1-1.1 4.6-197.1-49.2z"/><path fill="#1e0605" fill-opacity=".5" d="M366.4 109L301 162l-16-19.4 65.6-53z"/><path fill="#7397b7" fill-opacity=".5" d="M324.4 96.6l-20 29.8-27.3-18.3 20.1-29.8z"/><path fill="#606f6e" fill-opacity=".5" d="M353 98.7l7.4-35.2 38.2 8.1-7.5 35.2z"/><path fill="#222219" fill-opacity=".5" d="M211.2 28.2l8.5-31.7 77 20.6-8.6 31.7z"/><path fill="#8698a0" fill-opacity=".5" d="M390 124l-17.6 111-7.7-1.1 17.6-111.2z"/><path fill="#7e7b72" fill-opacity=".5" d="M124-29L-9.1 124.3l-7-6.2L117-35.2z"/><path fill="#16181b" fill-opacity=".5" d="M185.5 121.2l-9.7 14.2-81.6-55 9.6-14.3z"/><path fill="#99aab5" fill-opacity=".5" d="M231.3 195.5l-4.7 16.5-75.1-21.5 4.7-16.6z"/><path fill="#8b5938" fill-opacity=".5" d="M282.3 165.2l61-19.8 7.2 22.3-61 19.7z"/><path fill="#d2f4ff" fill-opacity=".5" d="M216.3 153.5l14.5 5.8-1.8 4.4-14.5-5.9z"/><path fill="#a68866" fill-opacity=".5" d="M328 120l2.7-3.8 39.7 27.8-2.7 3.8z"/><path fill="#110e00" fill-opacity=".5" d="M82.2 201l-26.4-2.2 4.2-48.3 26.4 2.3z"/><path fill="#936435" fill-opacity=".5" d="M60.6 147.2l3-12.1L191 166.8l-3 12.2z"/><path fill="#7f7e77" fill-opacity=".5" d="M365.2 68.7l-1.4 6-86.8-20 1.4-6z"/><path fill="#5997bf" fill-opacity=".5" d="M162.9 91.4l-6.4-6.8 22.8-21.3 6.4 6.8z"/><path fill="#834957" fill-opacity=".5" d="M27.5 122.8L25.6 229l-10.9-.2 1.9-106.2z"/><path fill="#85a3b3" fill-opacity=".5" d="M84.3 50.5l2.5 1.9-22.6 30-2.5-2z"/><path fill="#cde5ef" fill-opacity=".5" d="M217.1 62.2L237.4 84l-9.2 8.6L208 70.8z"/><path fill="#000b10" fill-opacity=".5" d="M148 0L90 109l-8.3-4.4 58-109z"/><path fill="#a8adb2" fill-opacity=".5" d="M118.4 124.4l18.7 1.3-.8 10.9-18.7-1.3z"/><path fill="#000001" fill-opacity=".5" d="M429.2 55.7L394 277.9l-24.7-3.9 35.2-222.2z"/><path fill="#44759b" fill-opacity=".5" d="M180.2 64.2l-27-83.3L162-22l27 83.3z"/><path fill="#3e1a00" fill-opacity=".5" d="M302.3 185l-68.2-17.1 2.6-10.6 68.3 17z"/><path fill="#260b00" fill-opacity=".5" d="M376.3 176.2l-42.1 20.5-9-18.2 42.2-20.6z"/><path fill="#0d130b" fill-opacity=".5" d="M135.3 112.6l-28 27.1-9.8-10.1 28-27.1z"/><path fill="#5e6b73" fill-opacity=".5" d="M88.6 174.8l15-20 62.5 47-15 20z"/><path fill="#e3ffff" fill-opacity=".5" d="M227 46.6l-.3-1.6 32.3-5.6.3 1.5z"/><path fill="#c1d5e2" fill-opacity=".5" d="M170.6 159.2L89.5 136l.8-3 81.2 23.2z"/><path fill="#1b0200" fill-opacity=".5" d="M195.5 37l9.3 1.6-8.1 50.9-9.3-1.5z"/><path fill="#00010a" fill-opacity=".5" d="M353.5-7.8l49.1 9.5-1.5 7.7-49-9.6z"/><path fill="#4f6371" fill-opacity=".5" d="M286.2 51.4l9.2 1.6-14.4 81.6-9.2-1.7z"/><path fill="#917f6f" fill-opacity=".5" d="M313.1 120.6L197 185l-2.3-4 116.2-64.5z"/><path fill="#8c735a" fill-opacity=".5" d="M376.3 145.7l-11.7-4.2 10.7-29.4 11.7 4.3z"/><path fill="#16160e" fill-opacity=".5" d="M82.3 37.1L56 40.8l-2.4-17L80 20.1z"/><path fill="#9b9a83" fill-opacity=".5" d="M24 142.7l-11.1-17 21-13.7 11 17z"/><path fill="#00080d" fill-opacity=".5" d="M256.1 39.7l1.2-4.5L389.2 68l-1.2 4.5z"/><path fill="#b33b27" fill-opacity=".5" d="M137 101.4L151 89l7.3 8.1-14 12.6z"/><path fill="#826052" fill-opacity=".5" d="M124.1 13.5l-29.6-2L96.2-12l29.6 2z"/><path fill="#eb986f" fill-opacity=".5" d="M191.5 122.8l9.4-8.2 12.3 14.2-9.4 8.2z"/><path fill="#a5c3d3" fill-opacity=".5" d="M201 136.5l28.9 37-1.2 1-28.9-37z"/><path fill="#281425" fill-opacity=".5" d="M156.3 19.5l10.7-2.1 9.5 49-10.7 2.2z"/><path fill="#857d82" fill-opacity=".5" d="M51.1 144l1.6.2-8.5 60.3-1.6-.2z"/><path fill="#a99091" fill-opacity=".5" d="M24.6 56.8L10 14l1.4-.5 14.8 42.8z"/><path fill="#6f3f14" fill-opacity=".5" d="M274.7 198l-1.2 4.6-109.1-27.2 1.1-4.6z"/><path fill="#bc9ba4" fill-opacity=".5" d="M260.2 159.4h12.5v7.8h-12.5z"/><path fill="#2b1815" fill-opacity=".5" d="M345.7 104.5l-64.3-38.7 5.7-9.3L351.4 95z"/><path fill="#5f392d" fill-opacity=".5" d="M218 58.7l12.1-9.8L243 64.7l-12.1 9.8z"/><path fill="#6b3324" fill-opacity=".5" d="M171.7 88.3l40.3-17 8.5 20-40.3 17.2z"/><path fill="#596a7a" fill-opacity=".5" d="M244-1.5l.7-4.6 131.5 18.5-.6 4.6z"/><path fill="#64527c" fill-opacity=".5" d="M128.5 49.9l10.4 3.3-9.6 29.8-10.4-3.4z"/><path fill="#98a1a4" fill-opacity=".5" d="M17 67l5.6 24.4-38 8.8-5.7-24.4z"/></svg>