<svg xmlns="http://www.w3.org/2000/svg" viewBox="0 0 400 200"><path fill="#514946" d="M0 0h400v200H0z"/><g fill-opacity=".5"><path fill="#e0e4ec" d="M188.3 155.5l67.2-104.7 73.4 86z"/><path fill="#d0b798" d="M72.7 147.7l237.5 64-193.8 12.5z"/><path fill="#08040c" d="M155.5 166.4l4.7-176.6L58.6 55.5z"/><path fill="#d6f1fc" d="M224.2 146l57.8 11-75-92.2z"/><path fill="#28241f" d="M424.2-24.2L358.6 196 216.4-24.2z"/><path fill="#bebcae" d="M36.7 155.5l-28.1-7.8L82 74.2z"/><path fill="#b9c2c4" d="M-24.2 104l14 25L68 64.7z"/><path fill="#0e0204" d="M-11.7 147.7l15.6 76.5 100-36z"/><path fill="#8da4ad" d="M180.5 43l57.8-56.3L168 107z"/><path d="M196 71l67.3-15.5-34.4-42.2z"/><path fill="#3f180e" d="M368 89.8l-92.2 75 100 59.4z"/><path fill="#a73d1f" d="M160.2 171l71.8-20.2-50-40.6z"/><path d="M424.2 193L382 216.4l17.2-131.2z"/><path fill="#000205" d="M100.8 119.5L32 163.3 141.4 21z"/><path fill="#b5aa9b" d="M138.3-2.3L93 25.7 64.8.8z"/><path fill="#7d93a4" d="M327.3 119.5L179 224.2 288.3 91.4z"/><path fill="#171f28" d="M80.5 21l-100-42 25 117z"/><path fill="#9b847a" d="M239.8 58.6L193 85.2 329 82z"/><path fill="#000e15" d="M424.2 30.5L382-24.2 230.5 2.3z"/><path fill="#0e020d" d="M-.8 149.2l34.4-61 39-9.3z"/><path fill="#737871" d="M397.7 96l-82.9-20.2 79.7 51.5z"/><path fill="#401a11" d="M83.6 150.8L171 146l32.8-56.3z"/><path fill="#60707c" d="M285.2 33.6l43.7-14L233.6 7z"/><path fill="#7e5d4c" d="M286.7 224.2L393 146.1l-53.2 1.6z"/><path fill="#86694b" d="M299.2 218l-182.8 6.2L54 147.7z"/><path fill="#c4cfd1" d="M236.7 157l29.7-48.4-61-26.6z"/><path fill="#561508" d="M194.5 72.7l-14 54.6L221 107z"/><path fill="#a7afad" d="M72.7 155.5l9.3 9.3 23.5-45.3z"/><path fill="#0e0905" d="M380.5 177.3L296 158.6l17.2-21.9z"/><path fill="#a9b6bd" d="M202.3 160.2l53.2 48.4-17.2 7.8z"/><path fill="#b2aeb2" d="M110.2 155.5l25-14v12.4z"/><path fill="#80584e" d="M239.8 99.2l40.7-9.4-81.3-15.6z"/><path fill="#7598b5" d="M283.6 158.6L282 88.3l39 28.1z"/><path fill="#6b849f" d="M147.7 119.5L182 75.8l6.3 20.3z"/><path fill="#521f00" d="M227.3 185.2l70.4-1.6 9.3 25z"/><path fill="#d0825f" d="M180.5 143l-3.2-14 42.2-17.3z"/><path fill="#91a8b4" d="M382 160.2l4.7 64-12.5-26.5z"/><path fill="#c5e3f2" d="M200.8 74.2l21.9 1.6-9.4-9.4z"/><path fill="#20252c" d="M161.7 24.2l15.6 59.4L-7 58.6z"/><path fill="#8d8b86" d="M19.5 172.7l70.3-100-64 53z"/><path fill="#886460" d="M110.2-24.2l15.6 51.5-15.6 22z"/><path fill="#5e3926" d="M224.2 177.3l-29.7-60.9 53.2 54.7z"/><path fill="#21241d" d="M214.8 49.2l126.6 31.3-117.2-72z"/><path fill="#596b7c" d="M338.3 29L421 47.6l-36-23.5z"/><path fill="#231b16" d="M197.7 147.7l-70.4-31.3L93 143z"/><path fill="#69281d" d="M169.5 171l-31.2-95.2v89z"/><path fill="#6a5e87" d="M124.2 105.5l-3.1-18.8 20.3-20.3z"/><path fill="#5c91c0" d="M191.4 58.6l-26.6-34.4 11 42.2z"/><path fill="#231c16" d="M210.2 49.2l-15.7-9.4-3 65.7z"/><path fill="#817576" d="M236.7-24.2L171.1-2.3l34.4 56.2z"/><path fill="#080001" d="M61.7 132l-25 73.5-11-22z"/><path fill="#5e6d7e" d="M283.6 85.2l20.3 29.6-34.4 31.3z"/><path fill="#949594" d="M-24.2 107l36 11 51.5-54.7z"/><path fill="#a8705a" d="M280.5 175.8l34.3 12.5-56.2-3.1z"/><path fill="#895e62" d="M5.5 39.8L27.3 79l-14-56.2z"/><path fill="#bac5cc" d="M182 188.3l-32.8-18.8 62.5 15.7z"/><path fill="#b75a4c" d="M200.8 174.2l-42.2-6.2 4.7-18.8z"/><path fill="#00495d" d="M160.2 47.7l42.1-56.3L168 13.3z"/><path fill="#000102" d="M424.2 188.3l-42.2 11 20.3-114.1z"/><path fill="#3b4f58" d="M86.7 114.8L39.8 5.5l-4.6 46.8z"/><path fill="#e4faff" d="M280.5 82l-11-17.2 12.5 11z"/><path fill="#392a19" d="M424.2 107l-150-79.7 150 18.8z"/><path fill="#89785e" d="M58.6 177.3l-11 18.8 1.6-29.7z"/><path fill="#c4d7e0" d="M255.5 149.2L218 77.3l1.5 62.5z"/><path fill="#2c3235" d="M258.6 149.2l17.2 29.7-32.8-23.4z"/><path fill="#646670" d="M71 80.5l28.2-6.3L119.5 54z"/><path fill="#4e443a" d="M246 14.8L243 54l134.3 11z"/><path fill="#917657" d="M350.8 161.7l34.4 1.6-57.9-25z"/><path fill="#240f00" d="M316.4 213.3l62.5-53.1-14 46.8z"/><path fill="#291010" d="M321 180.5l15.7-79.7-48.4 79.7z"/><path fill="#060002" d="M236.7 186.7l18.8 6.3 6.2-20.3z"/><path fill="#b6c3c6" d="M96 133.6l6.3-17.2 9.4-3.1z"/><path fill="#738695" d="M89.8 222.7l12.5-40.7 117.2 28.2z"/><path fill="#12181d" d="M155.5 22.7L86.7 138.3 77.3 96z"/><path fill="#91989a" d="M275.8 141.4l-20.3 32.8 53-34.4z"/><path fill="#171314" d="M-24.2 33.6l64 1.6-39-47z"/><path fill="#babfbc" d="M255.5 58.6l-25 4.7 50 6.2z"/><path fill="#acb1b6" d="M200.8 182l86 22-11 20.2z"/><path fill="#9d6e41" d="M199.2 218l50-17.2L105.5 168z"/><path fill="#7c4133" d="M208.6 91.4l-34.4 20.3 50 1.6z"/><path fill="#cd8261" d="M222.7 141.4l-29.7-3.1 6.2 23.4z"/><path d="M161.7 97.7l7.8-25 6.3 7.8z"/><path fill="#b41835" d="M41.4 224.2l-21.9-43.7-3 21.8z"/><path fill="#14080b" d="M355.5 113.3l-36-6.3 31.3 43.8z"/><path fill="#281b03" d="M55.5 208.6l34.3-25-37.5-20.3z"/><path fill="#2c1f24" d="M119.5-7l37.5-4.7 34.4 48.4z"/><path fill="#6f5c49" d="M82 16.4L47.7 43l75-17.2z"/><path fill="#111c14" d="M113.3 158.6l-18.8-6.3 42.2-42.1z"/><path fill="#b2c2c8" d="M204 119.5l51.5-18.7 23.4 59.4z"/><path fill="#8f5800" d="M279 171l7.7 28.2 28.1 15.6z"/><path fill="#00040e" d="M-8.6 77.3l7.8 12.5 39-15.6z"/><path fill="#0b242e" d="M100.8 57L43 80.5l-4.7 31.2z"/><path fill="#83584d" d="M222.7 79l28-17.3 22 18.8z"/><path fill="#080d05" d="M154-.8l-37.6 53.1h36z"/><path fill="#000812" d="M305.5 63.3l-9.4 11-36-15.7z"/><path fill="#b46f7d" d="M158.6 97.7l3.1-31.3 3.1 15.6z"/><path fill="#a6927a" d="M60.2 158.6l15.6 1.6-15.6 12.5z"/><path fill="#004151" d="M21 4l54.8 9.3L30.5 21z"/><path fill="#2d2b1c" d="M300.8 79L296 97.6l-14-14.1z"/><path fill="#1e130d" d="M182 224.2l-61-36 33 36z"/></g></svg>