<svg xmlns="http://www.w3.org/2000/svg" viewBox="0 0 400 200"><path fill="#544b47" d="M0 0h400v200H0z"/><path fill="#bdb1ac" fill-opacity=".5" d="M121 182L246.1 38.3l72 62.5L193 244.6z"/><path fill="#0a0c13" fill-opacity=".5" d="M160.7-3L150 121.5 62.7 114 73.6-10.6z"/><path fill="#e0fcff" fill-opacity=".5" d="M215.4 125.2l5.4-51.3 52.8 5.6-5.3 51.3z"/><path fill="#522516" fill-opacity=".5" d="M125 140.3l9-36.4 192.6 48-9 36.4z"/><path fill="#030000" fill-opacity=".5" d="M48.5 128.1l70.3 83.8L53 267.2l-70.3-83.8z"/><path fill="#361c0f" fill-opacity=".5" d="M305.2 186.9L329.8 12l63.4 9-24.5 174.8z"/><path fill="#a9a99d" fill-opacity=".5" d="M76.1 57.9l13.5 13-67.3 69.7-13.5-13z"/><path fill-opacity=".5" d="M421.3 76.6l-21 148.5-23.1-3.2L398 73.3z"/><path fill="#af977c" fill-opacity=".5" d="M135.7 122.3l18.3 43.1-47.5 20.2-18.3-43.2z"/><path fill="#b3c1c0" fill-opacity=".5" d="M52.7 56.9l-74 60-8-9.7 74.1-60z"/><path fill="#030700" fill-opacity=".5" d="M214.6 40.3L212-8l50-2.7 2.5 48.4z"/><path fill="#cbdadd" fill-opacity=".5" d="M132.5 145.8l247.1 61.6-1.1 4.6-247.2-61.6z"/><path fill="#a29592" fill-opacity=".5" d="M279.1 34l4.9 30.8L206.8 77 202 46.1z"/><path fill="#9eb8c1" fill-opacity=".5" d="M181.9 53.5l-11.6-8.1L238.5-52l11.5 8z"/><path fill="#51190d" fill-opacity=".5" d="M138.8 143.7l-16-23 80.5-56.5 16.2 23z"/><path fill="#1a212b" fill-opacity=".5" d="M71.5 37.7l-86.3 44-42.6-83.5 86.3-44z"/><path fill="#ced1c9" fill-opacity=".5" d="M73 140.1l34.9-48 5 3.7-34.9 48z"/><path fill="#2c2a21" fill-opacity=".5" d="M346.5 19.7l-10.2 41L233.2 35l10.2-41z"/><path fill="#86a1b7" fill-opacity=".5" d="M322.8 97.9l-24.1 30.8-48-37.5 24-30.8z"/><path fill="#cb6035" fill-opacity=".5" d="M205.2 140.5L175 111.2l15-15.8 30.3 29.4z"/><path fill="#9a6228" fill-opacity=".5" d="M126.7 163.8l4.3-15 190.7 54.6-4.3 15z"/><path fill="#0a0e0f" fill-opacity=".5" d="M49.2 113.4L134 5l18.4 14.4-84.6 108.4z"/><path fill="#260b0a" fill-opacity=".5" d="M349.4 82.2l19 22.7-69.4 58.3-19-22.8z"/><path fill="#000007" fill-opacity=".5" d="M-11.2 132.5l29.4 4.1-5.4 38.7-29.4-4.1z"/><path fill="#010007" fill-opacity=".5" d="M54 58.5l9.8 10.1-38.2 37L16 95.3z"/><path fill="#beddef" fill-opacity=".5" d="M207.4 100.2l21.9-17.7 30.5 37.6-21.9 17.7z"/><path fill="#8d613f" fill-opacity=".5" d="M283.2 167.3l56.2-19.3 7 20.6-56 19.4z"/><path fill="#202015" fill-opacity=".5" d="M442 34.2l-11 47.2-74.5-17.2L367.4 17z"/><path fill="#646960" fill-opacity=".5" d="M400.3 73.7l-4.2 19.9-88.6-18.9 4.2-19.8z"/><path fill="#836b55" fill-opacity=".5" d="M121.2-16.7l4 27.8L74 18.3 70-9.6z"/><path fill="#7c94a6" fill-opacity=".5" d="M316.5 112.7l-48 32.3-21-31.1 48-32.3z"/><path fill="#8b9ba2" fill-opacity=".5" d="M358.3 232.8l25.7-103 6.1 1.4-25.7 103.1z"/><path fill="#c3d3dd" fill-opacity=".5" d="M239.7 93.5l-12.2 7-28.1-48.7 12.2-7z"/><path fill="#000300" fill-opacity=".5" d="M201.8 40.5L213.2 20l17.8 9.8-11.4 20.5z"/><path fill="#a6d7eb" fill-opacity=".5" d="M230.8 161l-2.4 4-20.1-12 2.4-4z"/><path fill="#967656" fill-opacity=".5" d="M378 139.2l-3.9 8.5L330 128l3.8-8.5z"/><path fill="#968266" fill-opacity=".5" d="M64.3 124l36.9 12.7-7.6 22.1-37-12.7z"/><path fill="#6795b9" fill-opacity=".5" d="M165.8 90l-7-8.4 23.9-20 7 8.3z"/><path fill="#210f07" fill-opacity=".5" d="M204.6 23.8l-3 57.7-11-.6 3.1-57.7z"/><path fill="#693b2a" fill-opacity=".5" d="M244.5 42.5l6.8 8.5-25.5 20.6-6.8-8.5z"/><path fill="#18180c" fill-opacity=".5" d="M118.7 86.6L138 99.8l-27 40.1-19.5-13z"/><path fill="#cbc7c2" fill-opacity=".5" d="M280.7 61.8l-31.9-19.9 3.4-5.3L284 56.5z"/><path fill-opacity=".5" d="M271.5 145l4.2 6.6-33.2 20.7-4.1-6.7z"/><path fill="#000101" fill-opacity=".5" d="M421.5 41.4l-29.1 183.7-15.4-2.5L406 39z"/><path fill="#9baaab" fill-opacity=".5" d="M158.5 173.3l106.1 32.4-6 19.4-106-32.4z"/><path fill="#000005" fill-opacity=".5" d="M271.3 35l39.4 9.9-2.3 9-39.4-9.7z"/><path fill="#200e04" fill-opacity=".5" d="M360.5 205.6L329.9 194l11.2-29.2 30.6 11.7z"/><path fill="#989f9f" fill-opacity=".5" d="M24.8 92.5l-43 8.3-5-26 43-8.4z"/><path fill="#b6c5d2" fill-opacity=".5" d="M165.7 158.4l-81.1-23.2 1.3-4.6 81 23.3z"/><path fill="#2a1c19" fill-opacity=".5" d="M295.7 53.7l48.5 31.5L334 101l-48.5-31.4z"/></svg>