<svg xmlns="http://www.w3.org/2000/svg" viewBox="0 0 400 200"><path fill="#544b47" d="M0 0h400v200H0z"/><path fill="#d0e5f4" fill-opacity=".5" d="M257.5 161L200 99.1l62.8-58.6 57.6 61.7z"/><path fill="#c1b097" fill-opacity=".5" d="M98 190l13-51.5 192.5 48-12.9 51.6z"/><path fill="#0b0b13" fill-opacity=".5" d="M65.9 116.3l10.7-123L163.8.9 153 124z"/><path fill="#010000" fill-opacity=".5" d="M92.6 244L-24 187.3l26.7-54.7 116.6 56.8z"/><path fill="#2f150c" fill-opacity=".5" d="M389 252.1L280.7 144 347 77.6l108.3 108.2z"/><path fill="#d0d5d7" fill-opacity=".5" d="M259 127.2l-33 9.4-24.1-84 33-9.5z"/><path fill="#bcb9aa" fill-opacity=".5" d="M72.4 85.5L23.2 140l-12.7-11.5 49-54.6z"/><path fill="#1e1f18" fill-opacity=".5" d="M414.1-29.7l-23.5 102-178.2-41 23.6-102z"/><path fill="#774533" fill-opacity=".5" d="M326.8 192.2L158 140.6l10.5-34.4 168.8 51.6z"/><path fill="#b6c4c4" fill-opacity=".5" d="M54 53.3l-65 56.4-7.1-8.3L46.8 45z"/><path fill="#9cb7c0" fill-opacity=".5" d="M207.4-10l11.8 7.7-37.5 57.6-11.8-7.6z"/><path fill="#977365" fill-opacity=".5" d="M285.5 47.5l-6.2 35.4-57-10 6.3-35.5z"/><path fill="#19202a" fill-opacity=".5" d="M75 35.9L4.6 70l-28-57.5 70.1-34.3z"/><path fill="#91a7af" fill-opacity=".5" d="M381.6 126.4l9.2 1.8-14.6 75.1-9.2-1.8z"/><path fill="#874e1a" fill-opacity=".5" d="M160.2 173.5l3.6-13.6 149.4 40-3.6 13.6z"/><path fill="#b8b4a8" fill-opacity=".5" d="M107 91.6l6.6 4.3L82 144.3l-6.6-4.2z"/><path fill="#560c00" fill-opacity=".5" d="M207 64.1l13.6 24.6-26 14.4L181 78.5z"/><path fill="#e37d4f" fill-opacity=".5" d="M181.7 109.7l13.7-12.8 24.5 26.3-13.7 12.7z"/><path fill-opacity=".5" d="M373.8 252l24.6-175 26.3 3.7-24.7 175z"/><path fill="#cee1ee" fill-opacity=".5" d="M219 169.4l-1 3-129.1-37 .9-3z"/><path fill="#010f1c" fill-opacity=".5" d="M108.6 28.1l-78.9 73.5L18 89.1l78.8-73.6z"/><path fill="#180c09" fill-opacity=".5" d="M16.5 170.7L82 73.5 97.6 84 32 181.2z"/><path fill="#9e764c" fill-opacity=".5" d="M167.6 160.2l-5.1 18-106.7-30.6 5.2-18z"/><path fill="#000400" fill-opacity=".5" d="M247 3.6l-24.8 48.7-20.8-10.6L226.2-7z"/><path fill="#2d0400" fill-opacity=".5" d="M136.2 139l22-41.4 16.5 8.8-22 41.4z"/><path fill="#baccd9" fill-opacity=".5" d="M219.1 171.7l1.2-4.5 187.2 50.1-1.3 4.6z"/><path fill="#c7dbe2" fill-opacity=".5" d="M245.8 74.8l26.6 30.6-35.4 30.8-26.6-30.7z"/><path fill="#271814" fill-opacity=".5" d="M336.8 101.5l-53.6-32.2 9.7-16 53.6 32.1z"/><path fill="#8d9da3" fill-opacity=".5" d="M62.5 89.3l-7-6.2 27.3-30.2 7 6.2z"/><path fill="#a3b0ba" fill-opacity=".5" d="M194.2 133.5l4.8-4 27.1 32.3-4.8 4z"/><path fill="#6d8dac" fill-opacity=".5" d="M324.5 96.9L306.2 126l-29.1-18.2 18.2-29.1z"/><path fill="#140404" fill-opacity=".5" d="M309.5 131.5l-73.8 40.9-3-5.5 73.8-40.9z"/><path fill="#7b6954" fill-opacity=".5" d="M62 22L58.8 8.3 124-7.9l3.4 13.6z"/><path fill="#96abbb" fill-opacity=".5" d="M258 206.3l-5 16.4-100-30.6 5-16.4z"/><path fill="#aba19e" fill-opacity=".5" d="M276.9 70.2L238.3 53l8.3-18.5L285 51.6z"/><path fill="#8e6e4d" fill-opacity=".5" d="M341.3 142.6l.2-15.6 40.7.7-.3 15.6z"/><path fill="#090909" fill-opacity=".5" d="M316 166.2l-23.5-8.5 15-41.1 23.4 8.5z"/><path fill="#6791b4" fill-opacity=".5" d="M189.7 75.6l-27 15.6-7-12.1 27-15.7z"/><path fill="#080700" fill-opacity=".5" d="M70.7 208.7L48.5 201l16.8-48.7 22.1 7.6z"/><path fill="#00090e" fill-opacity=".5" d="M108.8 80.6L91.5 70l63.8-102 17.2 10.7z"/><path fill="#4d5e6d" fill-opacity=".5" d="M476.4 35.1L257.3.4l5.3-34L481.8 1.3z"/><path fill="#755147" fill-opacity=".5" d="M238.6 40.8l18.9 16.4L238 79.6l-19-16.4z"/><path fill="#a5aca9" fill-opacity=".5" d="M16.3 65.1l12.5 14-18.5 16.7-12.6-14z"/><path fill="#8f4555" fill-opacity=".5" d="M25.6 196.8l-7.8.1-1.3-73.4 7.9-.1z"/><path fill="#2b1f18" fill-opacity=".5" d="M140 63.6l20.7 16.7-49.2 60.8L91 124.3z"/><path fill="#bfd0db" fill-opacity=".5" d="M225.6 93.8L202 49.7l8.3-4.4 23.4 44.1z"/><path fill="#8c7a6d" fill-opacity=".5" d="M129.8 118.4l14.8 13.9-41.5 44.6L88.2 163z"/><path fill="#3a78a4" fill-opacity=".5" d="M184.5 56l-38.2-71.7 8.3-4.4 38.1 71.7z"/><path fill="#ac4b3f" fill-opacity=".5" d="M197.8 127.8l-1.9 26.5-35.8-2.5 1.8-26.5z"/><path fill="#053b56" fill-opacity=".5" d="M240.6 136.3l18.8-7.6 4.7 11.6-18.8 7.6z"/><path fill="#5e6c78" fill-opacity=".5" d="M171.7 230.2l-79-53.3 12.2-18 79 53.2z"/><path fill="#000001" fill-opacity=".5" d="M277.5 41.2l29.2 5.2-1.4 7.7-29.2-5.2z"/><path fill="#200a00" fill-opacity=".5" d="M288.4 182.4L239 167.3l2.3-7.5 49.3 15.1z"/><path fill="#211109" fill-opacity=".5" d="M194 29.2l12.4 1.3-5 48.1-12.5-1.3z"/><path fill="#a1b9be" fill-opacity=".5" d="M217.2 160.9l31.5-9 1.3 4.4-31.5 9z"/><path fill="#633648" fill-opacity=".5" d="M152.7 95.2l-35.1-20.3L130 53.2l35.1 20.3z"/><path fill="#2f2318" fill-opacity=".5" d="M345.7 62.5L355.8 15l68.8 14.6-10 47.4z"/><path fill="#0d0000" fill-opacity=".5" d="M346.8 89.8l16 21.3-17.4 13.1-16-21.2z"/><path fill="#565f6c" fill-opacity=".5" d="M278.7 118l-11.8-10.2 18.5-21.2L297.2 97z"/><path fill="#815c56" fill-opacity=".5" d="M342.7 142.4l8.6 13.1-39.4 25.5-8.5-13z"/><path fill="#84776a" fill-opacity=".5" d="M398.3 84.4l-26.8 63.3-5.8-2.4L392.6 82z"/><path fill="#672519" fill-opacity=".5" d="M136.7 100l55.8-15 3.6 13.5-55.8 15z"/><path fill="#000100" fill-opacity=".5" d="M336.1-8.4l77.2 12.2-1 6.2-77.2-12.2z"/><path fill="#9c8b88" fill-opacity=".5" d="M44.6 183l7.7-39.8 1.6.3-7.8 39.9z"/><path fill="#d6f9ff" fill-opacity=".5" d="M236.7 41l.1-1.6 28 2.5v1.5z"/><path fill="#1b0000" fill-opacity=".5" d="M205.6 51.6l10.2 9.8-1.1 1-10.1-9.7z"/><path fill="#1e1023" fill-opacity=".5" d="M166.4 70l-6.1-49.7 9.3-1.2 6 49.7z"/><path fill="#361d10" fill-opacity=".5" d="M326 193.4l9.7-55.4 43 7.6L369 201z"/><path fill="#270f17" fill-opacity=".5" d="M-6.6 136.2l-7.8-7.7L52 62.2l7.8 7.7z"/><path fill="#858c89" fill-opacity=".5" d="M374.2 71l-.3 1.5L221.1 40l.3-1.5z"/><path fill="#556066" fill-opacity=".5" d="M28.2-20.9l7.4-2.7L67 63.1l-7.3 2.6z"/><path fill="#a78f91" fill-opacity=".5" d="M25.2 53.8l-1.5.5-16-44L9 9.7z"/><path fill="#784900" fill-opacity=".5" d="M283.4 158.8l29.4 20.6-7.1 10.2-29.5-20.6z"/><path fill="#1a1c19" fill-opacity=".5" d="M197.8 36.5L257 21.7l3 12.1-59.1 14.8z"/><path fill="#b79470" fill-opacity=".5" d="M229.2 181.6l-1.3 4.5-83.7-25.6 1.4-4.4z"/><path fill="#6f7b8c" fill-opacity=".5" d="M72.5 61.5l46.4-29 .8 1.3-46.4 29z"/><path fill="#0c1515" fill-opacity=".5" d="M154 101.8l18.7-2 3 28-18.7 2z"/><path fill="#b7afa7" fill-opacity=".5" d="M249 125.7l3.6-51.4 21.8 1.5-3.6 51.5z"/><path fill="#080a05" fill-opacity=".5" d="M140.6 71.2l4.8-54.5 12.4 1.1-4.7 54.5z"/><path fill="#64473a" fill-opacity=".5" d="M57.2 93.4l17.4-15.6L85 89.4 67.6 105z"/><path fill="#001214" fill-opacity=".5" d="M123.8 119.3l-10.7-31 17.8-6 10.6 31z"/><path fill="#261312" fill-opacity=".5" d="M74.8 11.2L42 10.6l.4-20.3 32.8.6z"/><path fill="#a08e97" fill-opacity=".5" d="M274.7 158.8l1.8 9.2-15.3 3-1.8-9.3z"/><path fill="#63889e" fill-opacity=".5" d="M151.7 93.7l35.2-42 3.6 3-35.2 42z"/><path fill="#9b8a83" fill-opacity=".5" d="M205.5 26.3l-26.1-29 10.4-9.5 26.2 29z"/><path fill="#d0fcff" fill-opacity=".5" d="M267.7 42.4l1.2-1L280.7 56l-1.2 1z"/><path fill="#a7abaa" fill-opacity=".5" d="M86.2 128.7l24.7-38 1.3.9-24.7 38z"/><path fill="#8e7a60" fill-opacity=".5" d="M357 145.9l-29-26.2 4.1-4.6 29 26.1z"/><path fill="#1c1b17" fill-opacity=".5" d="M145.8 193.7l17.1 1.8-1 9.3-17-1.8z"/><path fill="#e85e36" fill-opacity=".5" d="M190.7 109l-10.4 11.7-7-6.3 10.5-11.6z"/><path fill="#89897e" fill-opacity=".5" d="M18.5 153.5l-4.8-4 25.7-29.6L44 124z"/><path fill="#af6372" fill-opacity=".5" d="M114.2 27.4L109.3-.3l3-.5 5 27.7z"/><path fill="#562c0c" fill-opacity=".5" d="M211.6 185.4l.8-3L315 209.9l-.8 3z"/><path fill="#31414f" fill-opacity=".5" d="M270.2 121.4l3.5-3.2 17 18.2-3.4 3.2z"/><path fill="#85572b" fill-opacity=".5" d="M155.7 173.8l-56.5-18.4 3-8.9 56.4 18.4z"/><path fill="#7e605f" fill-opacity=".5" d="M319.5 155.3l7.7-11.8 23.6 15.3-7.7 11.8z"/><path fill="#543a29" fill-opacity=".5" d="M406.3 223.3l-.4 1.5-185.6-49.7.4-1.5z"/><path fill="#4e433b" fill-opacity=".5" d="M382 46.2l-5.2 18-129.1-37 5.1-18z"/><path fill="#96a1a3" fill-opacity=".5" d="M112.5 92l-47.2 56.2-1.2-1 47.2-56.3z"/><path fill="#000007" fill-opacity=".5" d="M1.8 68.2L-1.4 61l20-8.9 3.1 7.2z"/><path fill="#221711" fill-opacity=".5" d="M162.8 98.6l49 62.8-1.2 1-49-62.8z"/><path fill="#9e9e9b" fill-opacity=".5" d="M299.4 190.3l1.4-4.5 73.2 22.4-1.4 4.5z"/><path fill="#546675" fill-opacity=".5" d="M58.5 58.3l46-15 1 3-46 15z"/><path fill="#222b34" fill-opacity=".5" d="M205.4 41l-42-48.3 4.7-4L210 37z"/><path fill="#927670" fill-opacity=".5" d="M272.7 75.1l-34.1 4.2-3.5-27.9 34.2-4.2z"/><path fill="#bbc2e0" fill-opacity=".5" d="M191.4 39.9l-1.3.8-17.5-25.9 1.3-.8z"/><path fill="#28110e" fill-opacity=".5" d="M191.9 113l16.7-4 1 4.5-16.6 4.1z"/><path fill-opacity=".5" d="M40.2 195.3l-14-1.7 3.9-31 14 1.7z"/><path fill="#9cbbce" fill-opacity=".5" d="M280.7 121.2l35-23.6 5.2 7.8-35 23.6z"/><path fill="#8f979b" fill-opacity=".5" d="M-36.2 98.8L-39 93l95.5-46.5 2.8 5.6z"/><path fill="#3d281f" fill-opacity=".5" d="M145.4 119.5l-56.1 14-1.9-7.6 56.1-14z"/><path fill="#b7dfec" fill-opacity=".5" d="M117.2 133v-4.8l10.9-.2v4.7z"/><path fill="#405d81" fill-opacity=".5" d="M124.6 72.7l-4.8-4 19.6-24.2 4.9 4z"/><path fill="#59130f" fill-opacity=".5" d="M361 133l-14.5-9 19-30.5 14.6 9.1z"/><path fill="#97b2be" fill-opacity=".5" d="M279 136.2l-9.5 5.4-18.8-32.4 9.5-5.5z"/><path fill="#a4a8a6" fill-opacity=".5" d="M77.7 155.3l.4-1.5 77 20.6-.4 1.5z"/><path fill="#3c260b" fill-opacity=".5" d="M77.5 168.5l-23.4 2-1.9-21.8 23.4-2z"/><path fill="#d88964" fill-opacity=".5" d="M192.7 129l9.1-14.6 13.3 8.2-9.1 14.6z"/><path fill="#8ab7cd" fill-opacity=".5" d="M223.1 122.2l1.2-1 26 26.9-1.1 1z"/><path fill="#473330" fill-opacity=".5" d="M223.3 125.5l12.2 12.1-16.6 16.6-12.2-12.1z"/><path fill="#e19ebb" fill-opacity=".5" d="M159.1 70l2.1-17 3.1.4-2 17z"/><path fill="#000b0c" fill-opacity=".5" d="M45.7 123.7l64.9-49 4.7 6.3-65 49z"/><path fill="#000708" fill-opacity=".5" d="M409.2 11.4l7.7 1L389.3 209l-7.8-1.1z"/><path fill="#887c64" fill-opacity=".5" d="M-25.2 124.6l67.2-2.3.4 10.9-67.2 2.3z"/><path fill="#00050a" fill-opacity=".5" d="M402 71.7l-87.4-17 .6-3 87.4 17z"/><path fill="#0d0a07" fill-opacity=".5" d="M318.6 125.6l4.8-6.1 28.3 22-4.8 6.2z"/><path fill="#200" fill-opacity=".5" d="M309.5 189.7l-2-4.2 44-20.5 2 4.2z"/><path fill="#bed3d6" fill-opacity=".5" d="M212.3 58.2l-.8-1.3L236 40.3l.9 1.3z"/><path fill="#492918" fill-opacity=".5" d="M232 50.5l-5 18.2-7.5-2 4.8-18.2z"/><path fill="#8f7576" fill-opacity=".5" d="M180.8 39l8.6 54-6.2.9-8.5-54z"/><path fill="#0d1621" fill-opacity=".5" d="M-18 182.3l3.3-46.7 34.3 2.4-3.3 46.7z"/><path fill="#736657" fill-opacity=".5" d="M57.2 53.4L-16 119.3l-2-2.4 73-65.8z"/><path fill="#461b20" fill-opacity=".5" d="M216.2 57l-1.3 7.7-7.7-1.4 1.4-7.7z"/><path fill="#828481" fill-opacity=".5" d="M372.4 174.6l9.1 2.3-11.7 47-9.1-2.3z"/><path fill="#8b7b69" fill-opacity=".5" d="M61 149.4l-3.2-31.1 4.6-.5 3.3 31z"/><path fill="#1b1623" fill-opacity=".5" d="M39.8 1.6v14h-53v-14z"/><path fill="#50493b" fill-opacity=".5" d="M81.3 167.1l42.8 28.9-7 10.3-42.7-28.8z"/><path fill="#520d0d" fill-opacity=".5" d="M307.6 122.6l26.6-32.8 9.7 7.9-26.5 32.8z"/><path fill="#6e4d45" fill-opacity=".5" d="M239 143.2l-1 4.6-53.5-11.3 1-4.6z"/><path fill="#e1f5ff" fill-opacity=".5" d="M211 47.4l1 1.2-9 8.6-1-1z"/><path fill="#a0aaae" fill-opacity=".5" d="M51.9 82.8L54 85l-32.5 33.7-2.3-2.1z"/><path fill="#657f86" fill-opacity=".5" d="M389.7 72.6l8.9 3-8.6 25.2-9-3z"/><path fill="#3f1710" fill-opacity=".5" d="M89.1 128l.5-1.5 82.2 25.2-.5 1.5z"/><path fill="#0a1012" fill-opacity=".5" d="M156.2 94.3l35.4-16.5.7 1.4-35.5 16.5z"/><path fill="#0a0704" fill-opacity=".5" d="M124 170l.9-1.3 12.1 9.8-1 1.2z"/><path fill="#57373d" fill-opacity=".5" d="M162 21.3l13.1 19.5L158.3 52l-13.1-19.4z"/><path fill="#76301c" fill-opacity=".5" d="M155.6 134l-12.3 6.8-13-23.2 12.4-6.8z"/><path fill="#643122" fill-opacity=".5" d="M181 106.6l-8.6-20.1L211.2 70l8.6 20.1z"/><path fill="#b86079" fill-opacity=".5" d="M13.4 189.3l-1.1-1.1 16.5-16.6 1.1 1.1z"/><path fill="#6f685f" fill-opacity=".5" d="M86.7 10l.8 6.3-104 12.7-.7-6.2z"/><path fill="#131f24" fill-opacity=".5" d="M105.2-33.5l10.7 2.2-22.7 107-10.7-2.3z"/><path fill="#68737a" fill-opacity=".5" d="M264.5 4l1-10.8 49.7 4.3-1 11z"/><path fill="#ad998a" fill-opacity=".5" d="M264.6 119.1l-7.4-2.5 20.4-59.1L285 60z"/><path fill="#a6adb1" fill-opacity=".5" d="M72.9 128.5l90.5 24.3-.4 1.5L72.5 130z"/><path fill="#1b2321" fill-opacity=".5" d="M34.8 56L15 17l11-5.8 19.9 39z"/><path fill="#3f2d23" fill-opacity=".5" d="M199.6 116l4-28 4.6.7-4 27.9z"/><path fill="#cae4ea" fill-opacity=".5" d="M205.8 66.5l2.6-3.9 24.9 16.2-2.6 4z"/><path fill="#004758" fill-opacity=".5" d="M177.4-9.4l6.2 4.7-18.8 25-6.2-4.7z"/><path fill="#a4c5d1" fill-opacity=".5" d="M230 159.5l-1.7 4.4-16-6.2 1.6-4.4z"/><path fill="#90b2c4" fill-opacity=".5" d="M127.5 130.4l10.6-2.8 1.6 6-10.6 2.9z"/><path fill="#170700" fill-opacity=".5" d="M328.1 171.1l-1.4-.7 9.2-18 1.4.6z"/><path fill="#946974" fill-opacity=".5" d="M14-27.3v56.2H9.5v-56.2z"/><path fill="#645958" fill-opacity=".5" d="M43.7 202.5l-1.5-.3 12.5-50 1.5.3z"/><path fill="#74635b" fill-opacity=".5" d="M315.8 116.5L268.7 147l-1.7-2.6 47.1-30.7z"/><path fill="#752314" fill-opacity=".5" d="M389.1 108.4l-2 5.9-34-11.7 2-6z"/><path fill="#514532" fill-opacity=".5" d="M281.6 67.2l2.8-12.2 73 16.9-2.7 12.2z"/><path fill="#c5d5dc" fill-opacity=".5" d="M225.2 74.6l27.3 6.8-10.6 42.4-27.2-6.8z"/><path fill="#000c13" fill-opacity=".5" d="M272.4 47l.5-9.3 21.9 1.2-.5 9.3z"/><path fill="#232936" fill-opacity=".5" d="M32.7 137.4l6 5-26.1 31.1-6-5z"/><path fill="#000d15" fill-opacity=".5" d="M93.9 43.4l-2.4-5.7 47.4-20.2 2.5 5.8z"/><path fill="#8e5d52" fill-opacity=".5" d="M354.3 161.3l-49 20.8-1.8-4.3 49-20.8z"/><path fill="#99a4a3" fill-opacity=".5" d="M222-18.4l4.8 4-47.2 56.3-4.8-4z"/><path fill="#6e0b18" fill-opacity=".5" d="M28.7 190.3l-19.5-46 4.3-1.8 19.5 46z"/><path fill="#003b51" fill-opacity=".5" d="M108.8 90.3l-.4-9.4 25-.9.3 9.4z"/><path fill="#6f8faa" fill-opacity=".5" d="M312.6 113.2l-35-23.6L289 72.8l35 23.5z"/><path fill="#262c2c" fill-opacity=".5" d="M372.7 91l-2.7 8.9-56.8-17.4 2.7-9z"/><path fill="#c3cacc" fill-opacity=".5" d="M239 101l-.9-1.2 43.1-33.7 1 1.3z"/><path fill="#021417" fill-opacity=".5" d="M79.6 128.1l-1.3-.8L97 98.4l1.3.9z"/><path fill="#483520" fill-opacity=".5" d="M90.7 133.3l-2.6-1.7 29-44.6 2.6 1.7z"/><path fill="#837968" fill-opacity=".5" d="M106.6-15.7l4.1 4.7-31.3 28.2-4.2-4.6z"/><path fill="#8b9195" fill-opacity=".5" d="M108.8 163.8l38.4 27-4.5 6.3-38.4-26.9z"/><path fill="#59676a" fill-opacity=".5" d="M68 136.4L85.3 105l1.3.8-17.4 31.4z"/><path fill="#bf7089" fill-opacity=".5" d="M16.6 108l-1.3-1 7.2-10.2 1.3.9z"/><path fill="#5f666e" fill-opacity=".5" d="M409.6 16l-1.4 7.6-50.7-9.8L359 6z"/><path fill="#bfa5a4" fill-opacity=".5" d="M331.5 150.1l-2.3 9.1-6-1.5 2.2-9.1z"/><path fill="#2c4249" fill-opacity=".5" d="M147.2 31l.8 7.8-34.2 3.6-.8-7.8z"/><path fill="#271e20" fill-opacity=".5" d="M256.8 176.6l-8-18.7 11.6-4.8 8 18.7z"/><path fill="#120000" fill-opacity=".5" d="M177.6 152.8l.4-1.5 24 6.9-.4 1.5z"/><path fill="#a24935" fill-opacity=".5" d="M159.4 96.5l-13 8.8-4.3-6.5 13-8.8z"/><path fill="#d1e7f3" fill-opacity=".5" d="M273.7 47.5l-.8 1.4-13.8-7.3.8-1.4z"/><path fill="#272519" fill-opacity=".5" d="M65.5 38.8l-7.5 2L45.4-6 53-8z"/><path fill="#6e5940" fill-opacity=".5" d="M380.3 115.4l8.3 9.3-26.7 24-8.3-9.3z"/><path fill="#8897ac" fill-opacity=".5" d="M131.4-35.6l1.2-1 62.6 80-1.3 1z"/><path fill="#161c18" fill-opacity=".5" d="M316.1 146.2l7.3 12-16.1 9.7-7.2-12z"/><path fill="#a6b0b8" fill-opacity=".5" d="M149.1 148.5l116.2 31.2-.4 1.5L148.7 150z"/><path fill="#001726" fill-opacity=".5" d="M172.2 97l-5 3.8-6.6-8.8 5-3.7z"/><path fill="#0e2023" fill-opacity=".5" d="M177.5 57.7l-24 30.8-1.3-1 24-30.7z"/><path fill="#000a0b" fill-opacity=".5" d="M90 217.8l-37.6-19.1 9.2-18.1 37.6 19.1z"/><path fill="#180101" fill-opacity=".5" d="M163.2 40l10.6 22.7-4.2 2L159 42z"/><path fill="#0f1216" fill-opacity=".5" d="M81 52.8l-90.6 81.5-1-1.1 90.5-81.6z"/><path fill="#adafaa" fill-opacity=".5" d="M206 170.5l-.4 1.5-107-34.7.5-1.5z"/><path fill="#684e60" fill-opacity=".5" d="M-10.8 102.5l9.7-10.2 13.5 13-9.8 10.2z"/><path fill="#806647" fill-opacity=".5" d="M41 125.8l-1.2-.8L73 75.7l1.3 1z"/><path fill="#2b2b26" fill-opacity=".5" d="M248.8 7.6l6.5 30.5-27.5 5.9-6.5-30.6z"/><path fill="#685d67" fill-opacity=".5" d="M127.6 34.6L84 56l-.6-1.5 43.5-21.2z"/><path fill="#254e6f" fill-opacity=".5" d="M234.9-35.5l1.1 1-72.4 77.8-1.2-1z"/><path fill="#151b11" fill-opacity=".5" d="M146.5 57.7l-9-2.1L158-34.2l9.2 2z"/><path fill="#7b4e00" fill-opacity=".5" d="M302.2 170l-3.2 15.4-18.4-4 3.3-15.2z"/><path fill="#1f0606" fill-opacity=".5" d="M186.8 79.6l6.7-20.8 12 3.8-6.8 20.8z"/><path fill="#94573f" fill-opacity=".5" d="M194.6 87.7l-.1-7.8 25-.4.1 7.8z"/><path fill="#ac9593" fill-opacity=".5" d="M260 168.1l-.5-1.5 16.5-5 .4 1.5z"/><path fill="#8f5f4d" fill-opacity=".5" d="M311.9 177.4l-40.2-24.2 2.4-4 40.2 24.1z"/><path fill="#686171" fill-opacity=".5" d="M18.5 187.3l-28.9 6.6-.3-1.5 28.9-6.7z"/><path fill="#98a4aa" fill-opacity=".5" d="M142.2 172.7l3.3-3.4 32.6 31.5-3.3 3.3z"/><path fill="#1e1215" fill-opacity=".5" d="M348.2 110l-1 1.2-65.7-47.7 1-1.3z"/><path fill="#78848e" fill-opacity=".5" d="M376.8 187.4l-4.6-1 12-56.6 4.6 1z"/><path fill="#c9e3ec" fill-opacity=".5" d="M277 50.2l5.3 16.3-1.5.5-5.3-16.3z"/><path fill="#6c8da3" fill-opacity=".5" d="M299.3 86.2l-1.2 1-17.7-21.9 1.2-1z"/><path fill="#81819a" fill-opacity=".5" d="M41-3.8l5.4 27.6-1.5.3-5.4-27.6z"/><path fill="#201d1b" fill-opacity=".5" d="M376.6 137l15.8-23.3 1.3.9-15.8 23.3z"/><path fill="#8db5cc" fill-opacity=".5" d="M205.1 109.5l15-20 7.6 5.7-15 20z"/><path fill="#091210" fill-opacity=".5" d="M338.8 122.9l5.4-30.8 12.3 2.2-5.4 30.8z"/><path fill="#343f44" fill-opacity=".5" d="M263 129.6l2 15.4-13.8 2-2.2-15.5z"/><path fill="#1f0b0c" fill-opacity=".5" d="M279.5 173.3l-42.1-2.9.3-4.7 42.1 3z"/><path fill="#6a151e" fill-opacity=".5" d="M18.5 88.3l17.9-5.8 2.9 8.9-17.9 5.8z"/><path fill="#badae5" fill-opacity=".5" d="M231.7 131.1l-.7-7.8 32.7-2.8.6 7.7z"/><path fill="#9a7954" fill-opacity=".5" d="M78.4 153.3l5.5-16.3 23.7 8.2-5.6 16.2z"/><path fill="#8c9393" fill-opacity=".5" d="M6.7 97.5L-5.8 76l16.3-9.4L23 88.2z"/><path fill="#73523f" fill-opacity=".5" d="M362.1 206.7L332 170.8l1.2-1 30.1 36z"/><path fill="#211614" fill-opacity=".5" d="M164.7 121l1.5-4.4 23.8 7.7-1.5 4.4z"/><path fill="#9b8995" fill-opacity=".5" d="M262.6 159.5l3.3-5.3 10.6 6.6-3.3 5.3z"/><path fill="#021415" fill-opacity=".5" d="M310.6 54l-37-6.5 1.7-9.3 37 6.5z"/><path fill="#c5d8df" fill-opacity=".5" d="M224.2 72.8l-6.2 1-3.1-20 6.1-1z"/><path fill="#463425" fill-opacity=".5" d="M350.2 56l-33.7-22.6 19.2-28.5 33.7 22.7z"/><path fill="#768c98" fill-opacity=".5" d="M83.8 134.6l-1.3.9-11.6-18.6 1.3-.8z"/><path fill="#0d130e" fill-opacity=".5" d="M370 179.1l-5.7 5.4-17-18.3 5.6-5.3z"/><path fill="#00100d" fill-opacity=".5" d="M193.3 95.1l9.6-5.3L205 94l-9.5 5.3z"/><path fill="#28251a" fill-opacity=".5" d="M71.3 138.7l-4.7.5-5-48.2 4.6-.5z"/><path fill="#8f8a87" fill-opacity=".5" d="M239.7 156.7L286 131l.8 1.3-46.5 25.8z"/><path fill="#131208" fill-opacity=".5" d="M25.7 84.7l52.2-47 1 1-52.2 47.1z"/><path fill="#5c5952" fill-opacity=".5" d="M286 30.3l3-8.8 26.6 9.1-3 8.9z"/><path fill="#bf6240" fill-opacity=".5" d="M196.6 101.3l4.8 8-21.4 12.9-4.8-8z"/><path fill="#b08d64" fill-opacity=".5" d="M277.7 195l-.4 1.4-78.5-21 .4-1.5z"/><path fill="#b06f52" fill-opacity=".5" d="M189.3 152.5l-31-21 .8-1.2 31.1 21z"/><path fill="#778e98" fill-opacity=".5" d="M86.1 53.1l1 1.2-43.6 38-1-1.3z"/><path fill="#080607" fill-opacity=".5" d="M120.9 62.4l-8.5 13.1L90 61l8.5-13z"/><path fill="#626f72" fill-opacity=".5" d="M195.1 37l5.7 7.5-22.5 17-5.6-7.6z"/><path fill="#002a3d" fill-opacity=".5" d="M139.4 49.5l-8 7.5-19.2-20.6 8-7.4z"/><path fill="#1c0104" fill-opacity=".5" d="M37 196l-10.3 3.8-5.9-16.2 10.3-3.7z"/><path fill="#5f3f59" fill-opacity=".5" d="M116.5 70.7l9.2-18.1 12.5 6.4-9.2 18z"/><path fill="#2d1405" fill-opacity=".5" d="M359.1 166.2l-1.2-1 25.1-29.9 1.2 1z"/><path fill="#1c1112" fill-opacity=".5" d="M113.7 39.7l1.2-1L153.5 90l-1.3.9z"/><path fill="#254657" fill-opacity=".5" d="M29 6.3L37.6 3l16.2 42.4-8.8 3.3z"/><path fill="#412527" fill-opacity=".5" d="M244 169l42 12-.3 1.6-42.1-12.1z"/><path fill="#0e3444" fill-opacity=".5" d="M48.2 155.7L45.6 193l-4.7-.3 2.6-37.4z"/><path fill="#1d1412" fill-opacity=".5" d="M199.6 161.2l-4.3-1.9 6.7-15.8 4.3 1.8z"/><path fill="#4f3c30" fill-opacity=".5" d="M226.8 123.3l5.4 7.6-23 16.2-5.4-7.7z"/><path fill="#203d52" fill-opacity=".5" d="M103 20.4l2 5.9-22 8-2.1-5.9z"/><path fill="#d5d0d3" fill-opacity=".5" d="M206.5 61.2l-1.5.5-3.7-12 1.5-.4z"/><path fill="#6c655c" fill-opacity=".5" d="M267.6 143.5l.8 1.4-37.5 22.5-.8-1.3z"/><path fill="#a55d50" fill-opacity=".5" d="M180.4 128.8l6-1.9 6.7 20.8-6 2z"/><path fill="#2c271d" fill-opacity=".5" d="M88.7 18.5l1 6.2-83 14.6-1.1-6.1z"/><path fill="#020e10" fill-opacity=".5" d="M54 123.5l-2.4-4 42.8-25.8 2.5 4z"/><path fill="#7b5d58" fill-opacity=".5" d="M107.2 13.1l-.3-4.6 18.7-1.3.3 4.6z"/><path fill="#00070c" fill-opacity=".5" d="M159.6 63.6l-5.8 2.3-8.7-21.7 5.8-2.3z"/><path fill="#1d0c04" fill-opacity=".5" d="M342.5 196.2l-10.6-2.4 5.3-22.9 10.6 2.5z"/><path fill="#6f4432" fill-opacity=".5" d="M251.8 48.6l-20.1 2.8-.7-4.7 20.1-2.8z"/><path fill="#74666e" fill-opacity=".5" d="M55.1 45.1l-2.8-5.6 9.7-5 2.9 5.6z"/><path fill="#9f6675" fill-opacity=".5" d="M188.5 64l-1.1 1L163 40.7l1-1z"/><path fill="#101411" fill-opacity=".5" d="M219.4 49.5L209 46.7l17-63.4 10.5 2.8z"/><path fill="#a89a80" fill-opacity=".5" d="M50 166.4l-1.6-.4 3.2-12 1.6.3z"/><path fill="#0f0000" fill-opacity=".5" d="M41 152.7l-1.2-1 14.5-18.4 1.2 1z"/><path fill="#00151d" fill-opacity=".5" d="M261.3 36.7l14 1.7-.6 4.6-14-1.7z"/><path fill="#6d4a47" fill-opacity=".5" d="M143 30.2l23 21.3-1.1 1.1L142 31.3z"/><path fill="#487791" fill-opacity=".5" d="M255.4 128.7l.1 6.3-18.7.3-.1-6.2z"/><path fill="#080100" fill-opacity=".5" d="M376.6 146.9v4.7H353v-4.7z"/><path fill="#0a1515" fill-opacity=".5" d="M399.4 201l-20-3.1 13.4-84.9 20 3.2z"/><path fill="#8f806a" fill-opacity=".5" d="M209.8 26.1l-9-2.4 12.9-48.3 9 2.4z"/><path fill="#939087" fill-opacity=".5" d="M17.6 132.7l24.3-42L52.7 97l-24.2 42z"/><path fill="#431d02" fill-opacity=".5" d="M293.3 165.1l11.6 4.7-3 7.3-11.5-4.7z"/><path fill="#574f42" fill-opacity=".5" d="M202.3 44.1l-11-.8L193 20l11 .7z"/><path fill="#615370" fill-opacity=".5" d="M160.2 29.5l-1.9-4.2 14.3-6.4 1.9 4.3z"/><path fill="#280a06" fill-opacity=".5" d="M266.2 176.2l14-12.5 2 2.3-13.9 12.5z"/><path fill="#1b2a30" fill-opacity=".5" d="M85.8 5.3l-34.2 11-1.4-4.4L84.3 1z"/><path fill="#8e4134" fill-opacity=".5" d="M148.1 145.4l-1.3.9-21.5-30.7 1.3-1z"/><path fill="#8c837c" fill-opacity=".5" d="M270.5 112.2l-7.2-3L281 67.5l7.2 3z"/><path fill="#47221d" fill-opacity=".5" d="M297.6 133.7l4 13.5-16.4 5-4-13.4z"/><path fill="#5f5e6b" fill-opacity=".5" d="M28.2 47.4L-1.3 51l-.3-3 29.4-3.7z"/><path fill="#566468" fill-opacity=".5" d="M363.7 93.8l-9.2 1.4-1-6.1 9.2-1.5z"/><path fill="#c28467" fill-opacity=".5" d="M223.7 125.6l-23 5-1-4.7 23-4.8z"/><path fill="#002630" fill-opacity=".5" d="M7.9 151.6l5.6 19.5L-.1 175l-5.6-19.5z"/><path fill="#6e344b" fill-opacity=".5" d="M97.6 96l-1.3-7.8 7.6-1.3 1.4 7.7z"/><path fill="#907670" fill-opacity=".5" d="M259 44l5.2 32.5-18.5 2.9-5.2-32.4z"/><path fill="#030d11" fill-opacity=".5" d="M83.1 32.4l1 17.2-15.7.8-.9-17.2z"/><path fill="#421011" fill-opacity=".5" d="M171.2 125.7l6.2.1-.1 9.4-6.3-.1z"/><path fill="#bdcccf" fill-opacity=".5" d="M231.1 46.3l-.5-1.5 14.8-5.1.5 1.5z"/><path fill="#4f7a8d" fill-opacity=".5" d="M136.8 39.8l1.5.1-1.6 18.7-1.6-.1z"/><path fill="#2e2516" fill-opacity=".5" d="M343.6 22l-48.4-1.8.3-9.3 48.4 1.7z"/><path fill="#020206" fill-opacity=".5" d="M201.1 145.6l1.4-.8 10.4 17.4-1.3.8z"/><path fill="#50473b" fill-opacity=".5" d="M70.3 143.6l5.1-3.5 18.4 27.2-5.2 3.5z"/><path fill="#a35a67" fill-opacity=".5" d="M148.7 79.7l12.6-9.1 1 1.2-12.7 9.2z"/><path fill="#872d0a" fill-opacity=".5" d="M328.6 179.5l3.5 5.2-9.1 6.1-3.5-5.2z"/><path fill="#0d0704" fill-opacity=".5" d="M248-38.8l1.3.7-55 103.5-1.4-.8z"/><path fill="#1f1109" fill-opacity=".5" d="M327.8 166.1l-7.8-1 .7-4.7 7.7 1.1z"/><path fill="#7e5631" fill-opacity=".5" d="M249.6 196.8l-.4 1.5-162.9-49.8.5-1.5z"/><path fill="#8fb4bc" fill-opacity=".5" d="M203.6 141.5l1.2-1 12 16.5-1.3.9z"/><path fill="#261e14" fill-opacity=".5" d="M272.7 17.8l-2 2.4-45-36.4 2-2.4z"/><path fill="#777f9a" fill-opacity=".5" d="M132.7 67.7l-.4 1.5-13.5-4.1.5-1.5z"/><path fill="#410311" fill-opacity=".5" d="M12.3 13.4l5.3-21.2 9.1 2.2-5.3 21.3z"/><path fill="#b6c0c3" fill-opacity=".5" d="M252.8 120l-15.3-3.3 8.1-38.2 15.3 3.2z"/><path fill="#000e14" fill-opacity=".5" d="M126 95.6l11-.6 1 20.3-10.9.6z"/><path fill="#5f3b12" fill-opacity=".5" d="M56.5 150l-.6 17.3-4.6-.2.6-17.2z"/><path fill="#1a191b" fill-opacity=".5" d="M179 18.2l-1.2 1-14.7-20.3 1.3-.9z"/><path fill="#3b4e65" fill-opacity=".5" d="M88.9 68l16 9.7-1.6 2.7-16-9.7z"/><path fill="#1f2929" fill-opacity=".5" d="M363-6.4l1.7 9.2L335.4 8l-1.6-9.3z"/><path fill="#d6a7a5" fill-opacity=".5" d="M181.5 77.5l-.5-6.2 4.7-.4.5 6.2z"/><path fill="#725f51" fill-opacity=".5" d="M-8.4 142.3l-4.4-8.3 29-15.4 4.4 8.3z"/><path fill="#6b7e83" fill-opacity=".5" d="M55.7 42.3l-14.4-26 1.4-.8 14.4 26z"/><path fill="#5e221e" fill-opacity=".5" d="M367.4 136.3l-7.7 1.7-6.8-32.1 7.7-1.7z"/><path fill="#5d343a" fill-opacity=".5" d="M111.6 61.4l-3 1-6.1-16 3-1z"/><path fill="#261c14" fill-opacity=".5" d="M325.6 40.2l.3-1.6 93.8 16.6-.2 1.5z"/><path fill="#523922" fill-opacity=".5" d="M56.6 27L52 28.4 35.6-25.4l4.5-1.4z"/><path fill="#63463c" fill-opacity=".5" d="M360.2 159.2l-.6 1.5-43.2-18.4.6-1.4z"/><path fill="#51535a" fill-opacity=".5" d="M20 147.6L1 158.5.4 157l19-10.9z"/><path fill="#a49684" fill-opacity=".5" d="M226 193.6l-.4 1.5-75-21.5.3-1.5z"/><path fill="#565754" fill-opacity=".5" d="M94.6 185.2l3.5-7 46.3 22.6-3.4 7z"/><path fill="#9ea0a0" fill-opacity=".5" d="M77.8 139.8l29-44.5 1.3.8-29 44.6z"/><path fill="#433321" fill-opacity=".5" d="M92.8 132.5l21.7-36.2 6.7 4-21.7 36.2z"/><path fill="#96808f" fill-opacity=".5" d="M110.7 30.4l-1.3-.8 3.3-5.3 1.3.8z"/><path fill="#d9ebef" fill-opacity=".5" d="M240.6 121.8l-4 4.9-19.4-15.7 4-4.9z"/><path fill="#8c7659" fill-opacity=".5" d="M367 145.9l-.7 1.3L347 137l.7-1.4z"/><path fill="#719db8" fill-opacity=".5" d="M185 46.5l-11.3-10.8 5.4-5.7 11.3 11z"/><path fill="#0c1910" fill-opacity=".5" d="M57.7 132.1l3.2 13.7-7.7 1.8-3.1-13.7z"/><path fill="#a48566" fill-opacity=".5" d="M239.2 186l-77.7-23.7.9-3L240 183z"/><path fill="#0e231d" fill-opacity=".5" d="M373.4 108.8l2.7 9-10.4 3.1-2.8-9z"/><path fill="#193953" fill-opacity=".5" d="M82 83L56 60.4l1-1.2 26 22.6z"/><path fill="#341c1d" fill-opacity=".5" d="M344.5 104.7L297.4 74l3.4-5.2 47.1 30.6z"/><path fill="#88624a" fill-opacity=".5" d="M358.6 128.1v7.8h-18.8v-7.8z"/><path fill="#192826" fill-opacity=".5" d="M105.3 125.8l14.6-14.1 7.6 7.8-14.6 14.1z"/><path fill="#74352d" fill-opacity=".5" d="M171.5 88.4l7 49.5-1.6.2-7-49.5z"/><path fill="#9abbcd" fill-opacity=".5" d="M276.1 127.3l3 7.3-13 5.2-3-7.2z"/><path fill="#563041" fill-opacity=".5" d="M84.4 23.2l5.9 16.1-4.4 1.6L80 24.8z"/><path fill="#2c0d12" fill-opacity=".5" d="M114.4 13.8l-2.6 7.3-6-2 2.8-7.4z"/><path fill="#4b4b45" fill-opacity=".5" d="M326 50.3l103 18.2-.2 1.5-103.1-18.2z"/><path fill="#1b2629" fill-opacity=".5" d="M200.7 105l10.6 9.2-1 1.2-10.7-9.3z"/><path fill="#491115" fill-opacity=".5" d="M213.2 62.2l-4.6-1.2 1.7-6 4.5 1.2z"/><path fill="#7c221c" fill-opacity=".5" d="M150 96v12.6h-11V96z"/><path fill="#512a1e" fill-opacity=".5" d="M223.3 59.6l-1-1.2 15.3-13.3 1 1.2z"/><path fill="#002527" fill-opacity=".5" d="M29.4 80.5l25-9 2.1 5.8-25 9z"/><path fill="#c0d0d4" fill-opacity=".5" d="M212.5 67.8l4.3-1.8 12.9 30.2-4.4 1.8z"/><path fill="#0e100b" fill-opacity=".5" d="M151 145.9l10.5-34.4 1.5.5-10.5 34.3z"/><path fill="#aa5950" fill-opacity=".5" d="M193.9 98.5l-1.2 1-10-12 1.2-1z"/><path fill="#936400" fill-opacity=".5" d="M282 167l3.6-3 12 14.3-3.5 3z"/><path fill="#cbbb88" fill-opacity=".5" d="M182.3 19.6l1.2-1L194.3 32l-1.2 1z"/><path fill="#bc989e" fill-opacity=".5" d="M98.4 43.7l.7-1.4 7.1 3-.6 1.5z"/><path fill="#000404" fill-opacity=".5" d="M324.8 139l-1.1-9.3 12.4-1.5 1.1 9.3z"/><path fill="#52160d" fill-opacity=".5" d="M132.2 79.4l4.5-21.4 7.7 1.6-4.6 21.4z"/><path fill="#91564e" fill-opacity=".5" d="M163.8 99.5l-.7 1.4L141 89.6l.7-1.4z"/><path fill="#241e13" fill-opacity=".5" d="M85.8 190.1l-8.6 3.7L59.5 152l8.6-3.7z"/><path fill="#903d52" fill-opacity=".5" d="M18.4 106.6l-2-2.4L26.8 95l2 2.3z"/><path fill="#2e221b" fill-opacity=".5" d="M188.7 134l10.6 9.3-2 2.3-10.7-9.2z"/><path fill="#000a0d" fill-opacity=".5" d="M41.7 190.3l-10.9.6-2.2-42.1 11-.6z"/><path fill="#6d5845" fill-opacity=".5" d="M64.2 41.7l1.1 1-46.7 48.4-1-1z"/><path fill="#272c29" fill-opacity=".5" d="M213.3 38.3l17.5-13.2 7.5 10-17.5 13.2z"/><path fill="#8f505b" fill-opacity=".5" d="M162 59.7l-1.6.3-5.2-24.4 1.6-.3z"/><path fill="#8b7e6e" fill-opacity=".5" d="M79.8 131.3l3.3 5.3-23.8 15-3.4-5.4z"/><path fill="#0f100b" fill-opacity=".5" d="M302.5 148.7l-.1-1.6 34.1-3.6.2 1.6z"/><path fill="#5f6869" fill-opacity=".5" d="M308.6 61.6L279.3 57l1.2-7.7 29.3 4.6z"/><path fill-opacity=".5" d="M211.5 33l22.7 6-.4 1.5-22.7-6z"/><path fill="#150704" fill-opacity=".5" d="M128 27l-8.3-7 38.2-45.5 8.3 7z"/><path fill="#2e1317" fill-opacity=".5" d="M19.3 116.1l-3.1.4-2.7-21.7 3.1-.4z"/><path fill="#707d80" fill-opacity=".5" d="M27.2 150h-6.3l.3-17.2h6.3z"/><path fill="#052226" fill-opacity=".5" d="M-10.2 10.7l.1-1.6 68.7 3.6v1.6z"/><path fill="#b57150" fill-opacity=".5" d="M211.5 135.7l-7.8.4-1.1-20.3 7.8-.4z"/><path fill="#997d76" fill-opacity=".5" d="M237 71.5l-3-9L273.9 49l3 8.8z"/><path fill="#251e1f" fill-opacity=".5" d="M267.3 145.6l6 12.8-1.5.6-6-12.7z"/><path fill="#1d2a2f" fill-opacity=".5" d="M39 143.8l-14 18.7-6.3-4.7L32.8 139z"/><path fill="#605c53" fill-opacity=".5" d="M62 130.5l.4-1.5 86.6 26.5-.4 1.5z"/><path fill="#7d7b7c" fill-opacity=".5" d="M354.9 201l-1.8 6-31.4-9.6 1.8-6z"/><path fill="#533c26" fill-opacity=".5" d="M355.8 178.9l-1.5-.2 4-37.3 1.5.2z"/><path fill="#4f3e2a" fill-opacity=".5" d="M57.8 119.4l15.5 2-1.4 10.8-15.5-2z"/><path fill="#87767e" fill-opacity=".5" d="M26.5 53.8l-1.5.6-6.2-16 1.5-.6z"/><path fill="#8ca7bb" fill-opacity=".5" d="M287 123l-3.8-5 34.5-26.9 3.8 5z"/><path fill="#550e10" fill-opacity=".5" d="M329 122.7l-11-11 7.7-7.8 11 11z"/><path fill="#140a05" fill-opacity=".5" d="M170.2 47l1.5.4-6 25.9-1.5-.4z"/><path fill="#001317" fill-opacity=".5" d="M97.8 74.9l21.9-32.4 9 6L107 81z"/><path fill="#918a81" fill-opacity=".5" d="M73 79.4l-22.5 26-9.5-8.2 22.6-26z"/><path fill="#2d0e09" fill-opacity=".5" d="M337.9 151.9l-10.2 29.5-1.5-.5 10.2-29.5z"/><path fill="#3e6c7d" fill-opacity=".5" d="M174 79.5l-7.7-5.3 8.1-11.6 7.7 5.4z"/><path fill="#53433a" fill-opacity=".5" d="M454.5 53.7l-.3 1.5-147.7-26 .2-1.6z"/><path fill="#08121b" fill-opacity=".5" d="M.1 71l-3.5-10.4 23.6-8.1 3.6 10.3z"/><path fill="#1d2e2c" fill-opacity=".5" d="M362.4 92l.3-3.2 23.3 2-.2 3.2z"/><path fill="#844f52" fill-opacity=".5" d="M6.3 16L3 32.7l-1.5-.3 3.3-16.9z"/><path fill="#8c4c33" fill-opacity=".5" d="M122.8 117l1-1.3 26.8 18.9-.9 1.2z"/><path fill="#cd996e" fill-opacity=".5" d="M206.5 99.4l-13.8 7.3-.7-1.4 13.8-7.3z"/><path fill="#1c2a33" fill-opacity=".5" d="M155.7 2.2l16.6 37.1-1.5.7-16.5-37.1z"/><path fill="#232529" fill-opacity=".5" d="M132.5-38l4.7-.3 6.8 77.8-4.6.4z"/><path fill="#6d6a69" fill-opacity=".5" d="M300.8 120.3l1.8 2.5-23.7 17.8-1.9-2.4z"/><path fill="#333b36" fill-opacity=".5" d="M91 51.3l1.3 1-16.1 23-1.3-1z"/><path fill="#1c0d0c" fill-opacity=".5" d="M164.6 41.9l-2.7 1.7L134 .3l2.6-1.7z"/><path fill="#850807" fill-opacity=".5" d="M323 105l-4.8-4 1-1.3 4.8 4z"/><path fill="#141601" fill-opacity=".5" d="M-1.2-11.3L11.6 6.4l-8.8 6.4-12.9-17.7z"/><path fill="#615948" fill-opacity=".5" d="M387.5 88L346 80.5l2.4-13.8L390 74z"/><path fill="#31444c" fill-opacity=".5" d="M252.4 32l1-1.3L286.5 54l-.9 1.3z"/><path fill="#493218" fill-opacity=".5" d="M65 148.8l1.3 18.7-14 1-1.4-18.8z"/><path fill="#9d8281" fill-opacity=".5" d="M114.3 12L107.7-.4l1.4-.7 6.6 12.4z"/><path fill="#5b7f99" fill-opacity=".5" d="M61.5 58.7l15.3-7.8.7 1.4L62.2 60z"/><path fill="#9b6757" fill-opacity=".5" d="M329.2 169.4l-2.8 7.3-10.2-4 2.8-7.2z"/><path fill="#491800" fill-opacity=".5" d="M319.3 186.1l-24.8-3.5.3-1.5 24.7 3.5z"/><path fill="#714a25" fill-opacity=".5" d="M228.4 186.5l-.4 1.5-39.2-10.5.4-1.5z"/><path fill="#125f62" fill-opacity=".5" d="M1 122l-5.4-3.3 5-8 5.3 3.4z"/><path fill="#6a8dac" fill-opacity=".5" d="M283 70.7l8.9 3-4.6 13.4-8.9-3z"/><path fill="#a5917a" fill-opacity=".5" d="M71.6 134.3l37 12.7-.5 1.5-37-12.7z"/><path fill="#1c0e11" fill-opacity=".5" d="M46.1 149.4l-15.6 27L21 171l15.7-27.1z"/><path fill="#90735e" fill-opacity=".5" d="M387.1 112.9L369 145.7l-1.3-.8 18.2-32.8z"/><path fill="#7c7668" fill-opacity=".5" d="M242 159.3l-19.4 6.3-.5-1.5 19.3-6.3z"/><path fill="#3a3232" fill-opacity=".5" d="M187.6 74.6l-1.5-.5 9-31.5 1.6.4z"/><path fill="#a4b9c9" fill-opacity=".5" d="M221 113.3l29.5 36.5-1.2 1-29.5-36.5z"/><path fill="#787f82" fill-opacity=".5" d="M197.8 202l-66.5-22.9.6-1.4 66.4 22.9z"/><path fill="#634f3f" fill-opacity=".5" d="M318 67.6L285.6 62l1.1-6.1 32.3 5.7z"/><path fill="#c12336" fill-opacity=".5" d="M24.6 181l-4.8-8 4-2.4 4.8 8z"/><path fill="#4c82a2" fill-opacity=".5" d="M171.1 77.3l2.4 4-15 8.6-2.3-4z"/><path fill="#8d596b" fill-opacity=".5" d="M16.3 183.4l14.1 27.8-1.3.7-14.2-27.8z"/><path fill="#242922" fill-opacity=".5" d="M86 189.7l55.5 16-.9 3-55.5-16z"/><path fill="#5b4643" fill-opacity=".5" d="M243.4 143.7l-6.8 14-25.3-12.3 6.8-14z"/><path fill="#452215" fill-opacity=".5" d="M53.5 123.4L47.8 146l-9-2.3 5.6-22.7z"/><path fill="#886d6a" fill-opacity=".5" d="M257.9 166l10.3-3.8.5 1.5-10.3 3.7z"/><path fill="#554734" fill-opacity=".5" d="M294 17.4l-18.3 4L273.1 9l18.4-3.9z"/><path fill="#988670" fill-opacity=".5" d="M55.6 129.2l1.3-.8 11 19-1.4.7z"/><path fill="#94715f" fill-opacity=".5" d="M168.2.5l1.2-1 17 20.3-1.1 1z"/><path fill="#141611" fill-opacity=".5" d="M386.6 114.7l9-10.8 13.2 11-9 10.9z"/><path fill="#721024" fill-opacity=".5" d="M6.7 193.7l-6 2.2-5.8-16.2 5.9-2.1z"/><path fill="#905e44" fill-opacity=".5" d="M296.9 164.5l8.3-4.2 5.7 11.1-8.3 4.3z"/><path fill="#c9d0d5" fill-opacity=".5" d="M270.4 45.6l12 12.4-1.2 1-12-12.3z"/><path fill="#625540" fill-opacity=".5" d="M208 27.3l21.6-53.6 1.5.6-21.7 53.6z"/><path fill="#2a180b" fill-opacity=".5" d="M211.3 134.5l12.6-6.4.7 1.4L212 136z"/><path fill="#bdcbc8" fill-opacity=".5" d="M228.3 44.9l1.2 1-12.5 14-1.2-1.1z"/><path fill="#0c0d0d" fill-opacity=".5" d="M159.8 196l.4 1.4-5.9 2-.5-1.5z"/><path fill="#95423c" fill-opacity=".5" d="M204.2 92.4l14.2-9.6.9 1.3-14.3 9.6z"/><path fill="#192222" fill-opacity=".5" d="M172.4 84.1l1.5.7-23 51.4-1.3-.7z"/><path fill="#26475c" fill-opacity=".5" d="M282.3 128.5l-.7 1.4-12.3-6.8.7-1.4z"/><path fill="#a9acab" fill-opacity=".5" d="M273.8 184.6l-.9 3-82.6-23.7.9-3z"/><path fill="#7599b1" fill-opacity=".5" d="M213.4 119l-9.1-21.5L210 95l9.2 21.6z"/><path fill="#2b1e10" fill-opacity=".5" d="M462.7 38L298 9l.3-1.6 164.6 29z"/><path fill="#7ea5b6" fill-opacity=".5" d="M227.9 133l.5-6.3 14 1.3-.5 6.2z"/><path fill="#130b00" fill-opacity=".5" d="M6 122.2l-1.4-.8 12.9-23.2 1.3.7z"/><path fill="#191926" fill-opacity=".5" d="M167-9.7l2.6-1.8 21.1 29-2.5 1.9z"/><path fill="#9a4c46" fill-opacity=".5" d="M180.3 155.6l-23.1-18.7 7.9-9.7 23 18.7z"/><path fill="#776550" fill-opacity=".5" d="M329.3 119.7l6.4-4.5 11.6 16.7-6.4 4.4z"/><path fill="#845c4d" fill-opacity=".5" d="M259.6 55l.6-1.4 13 5.5-.6 1.4z"/><path fill="#8e9fae" fill-opacity=".5" d="M116.4 129.7h18.8v4.7h-18.8z"/><path fill="#655137" fill-opacity=".5" d="M86.5 15l-2.6-5.6L99.4 2l2.7 5.7z"/><path fill="#5d3d25" fill-opacity=".5" d="M253.5 183.4l54.3 14.5-.4 1.5-54.3-14.5z"/><path fill="#6b838a" fill-opacity=".5" d="M41 51.8l-.4-1.6 20-3.5.3 1.5z"/><path fill="#323a46" fill-opacity=".5" d="M69.4 43.2L-23.8 63l-.3-1.5L69 41.7z"/><path fill="#715853" fill-opacity=".5" d="M181.7 125.3l26.7 21.6-1 1.2-26.7-21.6z"/><path fill="#63737a" fill-opacity=".5" d="M398.5 74.8l-4.8 34-6.2-.8 4.8-34z"/><path fill="#531905" fill-opacity=".5" d="M174.5 108.2l14.1-9.9 1 1.3-14.2 9.9z"/><path fill="#2c241a" fill-opacity=".5" d="M401 66.8l-7.8-1 4.2-34.1 7.8 1z"/><path fill="#8e7d7d" fill-opacity=".5" d="M220.4 141.2l1-1.2 9.7 7.9-1 1.2z"/><path fill="#9ea1a2" fill-opacity=".5" d="M73 124.8l1.5-.5 4 11.8-1.4.5z"/><path fill="#0e1b1a" fill-opacity=".5" d="M144.8 93.8l-60.2-9.5.3-1.6 60.2 9.6z"/><path fill="#853f1e" fill-opacity=".5" d="M210 122l-5.2-5.9 2.3-2 5.3 5.7z"/><path fill="#6f1f0f" fill-opacity=".5" d="M151.4 135.2l-3.2 12.1-10.6-2.8 3.3-12.1z"/><path fill="#000703" fill-opacity=".5" d="M353.9 97l-7.7 1.3-1.6-9.3 7.7-1.3z"/><path fill="#39545f" fill-opacity=".5" d="M-11 95.1L12.2 94l.3 6.3-23.4 1.2z"/><path fill="#4a4e47" fill-opacity=".5" d="M122.6 167.4l16.4 9.1-.7 1.4-16.4-9.1z"/><path fill="#00486b" fill-opacity=".5" d="M170.4 13.4l-5.8 9.3-5.3-3.3 5.8-9.3z"/><path fill="#725149" fill-opacity=".5" d="M299 141.8l-7 3.4-2-4.2 7-3.4z"/><path fill="#765e49" fill-opacity=".5" d="M49 101.6l6 11-5.6 3-5.9-11z"/><path fill="#79615a" fill-opacity=".5" d="M289.3 153.2l-1.6 4.4-16-6.1 1.6-4.4z"/><path fill="#515158" fill-opacity=".5" d="M25 156.7l3.2-15.3 1.5.3-3.2 15.3z"/><path fill="#00312d" fill-opacity=".5" d="M130.1 124.3l-6-1.8.5-1.5 6 1.8z"/><path fill="#9da8b0" fill-opacity=".5" d="M159.5 193.3l1.7-4.4 24.6 10-1.7 4.3z"/><path fill="#60413b" fill-opacity=".5" d="M21.6 141.4l-1.4.5-5.9-16.1 1.5-.5z"/><path fill="#5f676b" fill-opacity=".5" d="M392.3 121l-6.5 22.5-1.5-.4 6.5-22.5z"/><path fill="#a7606a" fill-opacity=".5" d="M184.8 80.2l-7.5 2-1.2-4.5 7.5-2z"/><path fill="#9ca1a3" fill-opacity=".5" d="M197.3 190.9l-.5 1.5-73.8-25.5.5-1.4z"/><path fill="#c2beb6" fill-opacity=".5" d="M94.9-.8l-2.5 4-1.3-.8 2.4-4z"/><path fill="#110905" fill-opacity=".5" d="M289.5 149.5l-9-2.1.3-1.6 9.1 2.1z"/><path fill="#260b01" fill-opacity=".5" d="M17.1 137.7l3.4 7-14.2 6.7-3.3-7.1z"/><path fill="#4e1922" fill-opacity=".5" d="M14.7 12.4l11.2 32.5-1.5.5L13.2 13z"/><path fill="#1e2625" fill-opacity=".5" d="M298.3 51l1.3-4.6 25.5 7.4-1.3 4.5z"/><path fill="#b3c8cf" fill-opacity=".5" d="M206.7 61.3l24.3 17-1.8 2.6-24.3-17z"/><path fill="#4d5e6d" fill-opacity=".5" d="M265.2 127l.5 1.5-35.6 11.6-.5-1.5z"/><path fill="#7a3943" fill-opacity=".5" d="M22.6 16.1l4.7.7-1.5 9.3-4.6-.7z"/><path fill="#58412b" fill-opacity=".5" d="M334.7 17.5l21.5 4.2-1.8 9.2-21.5-4.2z"/><path fill="#082835" fill-opacity=".5" d="M42.5 78.5l-.8-1.3 64.2-41.7.8 1.3z"/><path fill="#0c0c10" fill-opacity=".5" d="M103.5 51.6l5.5 13-17.2 7.3-5.5-13z"/><path fill="#949794" fill-opacity=".5" d="M9.5 96.1L1 89.4l19.3-24.6 8.6 6.7z"/><path fill="#9b544a" fill-opacity=".5" d="M172.2 113.3l.4-1.5 28.7 7.7-.4 1.5z"/><path fill="#471f26" fill-opacity=".5" d="M306.9 82.2l1-1.2 24.3 19.6-1 1.2z"/><path fill="#930024" fill-opacity=".5" d="M114.6 26.2l2-7.5 1.6.4-2 7.5z"/><path fill="#694a28" fill-opacity=".5" d="M330.9 165.6l1.4-.7 10.3 21-1.4.8z"/><path fill="#877c6b" fill-opacity=".5" d="M39.2 134.3l-29.1-11.2 2.2-5.8 29.2 11.2z"/><path fill="#1a1514" fill-opacity=".5" d="M142.8 37.5l3.4 48.3-3.1.2-3.4-48.3z"/><path fill="#bb8a57" fill-opacity=".5" d="M189.3 153.2l-.4-7.8 4.6-.2.5 7.8z"/><path fill="#a67b9e" fill-opacity=".5" d="M133.7 78.7l1.4.8-1.6 2.7-1.4-.8z"/><path fill="#1d2429" fill-opacity=".5" d="M138.3 125.7l-4.5-16.6 7.6-2 4.4 16.6z"/><path fill="#454037" fill-opacity=".5" d="M276.6 32.3v1.5l-57.9-2v-1.6z"/><path fill="#581709" fill-opacity=".5" d="M150 93.6l4.4 13.4-3 1-4.3-13.4z"/><path fill="#572f2c" fill-opacity=".5" d="M217 89.5l.2 1.5-26.5 2.3v-1.5z"/><path fill="#9fb0ba" fill-opacity=".5" d="M280.8 134.5l-33-28.7 1-1.2 33 28.7z"/><path fill="#30261b" fill-opacity=".5" d="M308.3 154l.2 1.6-27.7 4.4-.3-1.5z"/><path fill="#9c7550" fill-opacity=".5" d="M178.3 171l-1.1 3L92 143l1.1-3z"/><path fill="#3a3635" fill-opacity=".5" d="M265.5 147.5l-18-17.3 1-1.2 18 17.4z"/><path fill="#675e64" fill-opacity=".5" d="M16.4 112.3l1.6-7.7 1.5.3-1.6 7.7z"/><path fill="#aaa9a7" fill-opacity=".5" d="M210.5-7.7l-.6 17.2-6.3-.2.6-17.2z"/><path fill="#5f2d36" fill-opacity=".5" d="M154 64v17.3h-6.3V64z"/><path fill="#17161b" fill-opacity=".5" d="M23.4 109.1l-1.3-.9 9.2-12.6 1.3.9z"/><path fill="#00171e" fill-opacity=".5" d="M11.8 184.7l-14-.7 1.3-26.5 14 .7z"/><path fill="#cb6b41" fill-opacity=".5" d="M197.7 102.2l1.1 6.1-20 3.6-1-6.2z"/><path fill="#451d19" fill-opacity=".5" d="M325 123.1l.7 1.4-46 19.6-.7-1.5z"/><path fill="#421f0a" fill-opacity=".5" d="M356.3 171.3l8.5-23.5 11.8 4.3-8.6 23.5z"/><path fill="#858687" fill-opacity=".5" d="M250 203.5l-2.5 7.4-49-16 2.4-7.4z"/><path fill="#28190f" fill-opacity=".5" d="M59.8 167.1l-10.5 34.4-4.5-1.4 10.6-34.4z"/><path fill="#b9cad2" fill-opacity=".5" d="M218 52.3l-3 5.4-9.6-5.3 3-5.4z"/><path fill="#003a50" fill-opacity=".5" d="M127.4 80l-1.8 9.2-10.8-2 1.8-9.3z"/><path fill="#99a4a9" fill-opacity=".5" d="M244.8 175.5l.4-1.5 83.4 20.8-.4 1.5z"/><path fill="#002c32" fill-opacity=".5" d="M100.9 24l-5 6.1L85 21.3l5-6.1z"/><path fill="#311813" fill-opacity=".5" d="M230 166.8l.3-1.5 56.9 10-.3 1.6z"/><path fill="#820a22" fill-opacity=".5" d="M15.2 174.6l4.3-11.7 4.4 1.6-4.3 11.7z"/><path fill="#9a706e" fill-opacity=".5" d="M314.6 167.7l1.2 1-10 12-1.3-1z"/><path fill="#765d42" fill-opacity=".5" d="M71.7 79l1.3.8-30.6 49-1.3-.8z"/><path fill="#57523b" fill-opacity=".5" d="M356.6 202.4l-2.4-4 9.5-5.5 2.4 4z"/><path fill="#865e4c" fill-opacity=".5" d="M168.2 100.4l17.2-16 1 1.1-17 16z"/><path fill="#043f56" fill-opacity=".5" d="M97.6 72.6l7.3-2.7 2.2 6-7.4 2.6z"/><path fill="#485f5e" fill-opacity=".5" d="M50.3 167.5l-1.5.4-3.8-15.1 1.5-.4z"/><path fill="#7c725b" fill-opacity=".5" d="M82 14.3l-18.6 8.2-3.2-7L78.8 7z"/><path fill="#483c37" fill-opacity=".5" d="M158.3 38.7l-28-2.4.4-4.7 28 2.4z"/><path fill="#5d626f" fill-opacity=".5" d="M279.4 91.1l6.4 14.3-4.3 2-6.4-14.4z"/><path fill="#918b85" fill-opacity=".5" d="M257.3 145.3l1.7 2.7-24.2 14.5-1.6-2.7z"/><path fill="#07110c" fill-opacity=".5" d="M365.3 190.4l-6-2 5.1-14.8 6 2z"/><path fill="#41626f" fill-opacity=".5" d="M28.4 21.3l1.3-6.1 12.2 2.6-1.3 6z"/><path fill="#07060e" fill-opacity=".5" d="M50.8 14.5l-4.6-26.1 7.7-1.4 4.6 26.2z"/><path fill="#674214" fill-opacity=".5" d="M328 192.3l-36.2-9.7.4-1.5 36.3 9.7z"/><path fill="#0a384d" fill-opacity=".5" d="M249.2 142.2h3.1v4.7h-3z"/><path fill="#140d08" fill-opacity=".5" d="M55.3 135.7l-12-10 3-3.6 12 10z"/><path fill="#0a120b" fill-opacity=".5" d="M140-39.8l1.6-.3 16.8 106.5-1.5.2z"/><path fill="#766e52" fill-opacity=".5" d="M52.5 13l2.7 9-3 1-2.7-9z"/><path fill="#aac2d9" fill-opacity=".5" d="M79.8 62.3l-.8 1.3-4-2.4.7-1.4z"/><path fill="#542e2a" fill-opacity=".5" d="M338.5 74.5l7.3 27.2-1.5.4-7.3-27.2z"/><path fill="#4e5053" fill-opacity=".5" d="M217 37.6l9 6.3-.9 1.3-9-6.3z"/><path fill="#030e0f" fill-opacity=".5" d="M334.6 57.7l.3-1.5 104 22-.4 1.6z"/><path fill="#c6e5ec" fill-opacity=".5" d="M185.4 34l-4.8-6.1 1.2-1 4.8 6.2z"/><path fill="#798690" fill-opacity=".5" d="M379.7 131.2l4.2-2.2 3.6 7-4.2 2.1z"/><path fill="#1c0a0a" fill-opacity=".5" d="M170 62.8l-5.4-16.3 4.5-1.5 5.3 16.4z"/><path fill="#13150d" fill-opacity=".5" d="M348 150.9l-4.7-.3.9-15.6 4.6.3z"/><path fill="#745e4a" fill-opacity=".5" d="M240.3 180.5l-.4 1.5-103.7-29.7.5-1.5z"/><path fill="#ae8e79" fill-opacity=".5" d="M266.2 103.8l5.2-29.3L279 76l-5.2 29.2z"/><path fill="#4d657a" fill-opacity=".5" d="M203 27.8l-12.7-6 2-4.2 12.7 5.9z"/><path fill="#8e6151" fill-opacity=".5" d="M187.8 130.7l-.8 1.3-17-11.1.8-1.3z"/><path fill="#653e37" fill-opacity=".5" d="M349.1 165.3l-11.3-5.2 5.3-11.4 11.3 5.3z"/><path fill="#886e67" fill-opacity=".5" d="M331.2 155.4l.8 1.3-24.1 14.5-.8-1.3z"/><path fill="#090403" fill-opacity=".5" d="M330.6 194.3l1.3-18.7 4.7.4-1.3 18.7z"/><path fill="#8197ab" fill-opacity=".5" d="M208.1 151.4l1.1-1 15.5 15.4-1.1 1z"/><path fill="#6e7373" fill-opacity=".5" d="M146.9 177l4.5 21.3-6 1.3-4.6-21.4z"/><path fill="#293f50" fill-opacity=".5" d="M40.4 73.5l45-25 .8 1.4-45 25z"/><path fill="#582a2f" fill-opacity=".5" d="M6.8 20.5l1.5-.6L22.9 56l-1.5.6z"/><path fill="#171715" fill-opacity=".5" d="M310.6 130.7l13.2 24.9-11 5.8-13.2-24.8z"/><path fill="#272317" fill-opacity=".5" d="M105.7 12.7l-16 9.7-3.3-5.4 16.1-9.7z"/><path fill="#443729" fill-opacity=".5" d="M76 185.8l6-26 12.2 2.9-6 25.9z"/><path fill="#001828" fill-opacity=".5" d="M.7 210l14.5-22.3 1.3.8L2 210.8z"/><path fill="#768a91" fill-opacity=".5" d="M260.2 0l.2-1.6L279 1.6l-.3 1.6z"/><path fill="#16484f" fill-opacity=".5" d="M-1 32.3L9.5 53.2l-7 3.5L-8 36z"/><path fill="#856a66" fill-opacity=".5" d="M240.6 78l-1-4.7 30.8-6 .9 4.7z"/><path fill="#6e6660" fill-opacity=".5" d="M109.6 183.3l-21.4-9.6 3.8-8.5 21.4 9.5z"/><path fill="#090d0f" fill-opacity=".5" d="M335.8 11.5l-1.5-.5 6.4-21 1.5.6z"/><path fill="#85222a" fill-opacity=".5" d="M357 110.7l6.8 8.6-3.7 2.9-6.7-8.7z"/><path fill="#72534b" fill-opacity=".5" d="M226.3 61.5l11.8 7.7-3.4 5.2-11.8-7.6z"/><path fill="#c2beba" fill-opacity=".5" d="M261.2 78.3l4.7 11.6-13 5.2-4.7-11.5z"/><path fill="#8d0724" fill-opacity=".5" d="M25.7 188.7l1 1.2-10.2 7.4-1-1.3z"/><path fill="#969791" fill-opacity=".5" d="M37.1 133.6l-2.4-34.3h1.6l2.4 34.2z"/><path fill="#544643" fill-opacity=".5" d="M146.4 85.5l-12.1 9.9-1-1.2 12.1-9.9z"/><path fill="#9f7b89" fill-opacity=".5" d="M175.8 51.8l1.5-.4 11 35.8-1.5.5z"/><path fill="#5f2826" fill-opacity=".5" d="M190.5 114l1.5.3-2.8 20-1.5-.1z"/><path fill="#020e0a" fill-opacity=".5" d="M97.9 78.9l5.8 5.2-9.4 10.5-5.8-5.3z"/><path fill="#02190d" fill-opacity=".5" d="M154.1 83.3l-.5 4.7-9.3-1 .5-4.7z"/><path fill="#241f1b" fill-opacity=".5" d="M16.6 37.5l-.5 6.3L-2.6 42l.6-6z"/><path fill="#854f62" fill-opacity=".5" d="M162.8 28.4l-1.5.4-3.8-11.8 1.5-.5z"/><path fill="#4d443c" fill-opacity=".5" d="M436.6 57l-.1 1.6-90.3-7.9.1-1.5z"/><path fill="#bc7567" fill-opacity=".5" d="M213.5 127l-.4 7.8-15.6-.8.4-7.8z"/><path fill="#071516" fill-opacity=".5" d="M65.6 108.5l1.5-.4 6.4 22.5-1.5.4z"/><path fill="#4a2540" fill-opacity=".5" d="M30.4 6.8L32.3-4 43-2 41 8.6z"/><path fill="#4f585e" fill-opacity=".5" d="M335.8 10.5L337 6l25.7 6.9-1.3 4.5z"/><path fill="#637c81" fill-opacity=".5" d="M206.5 53.9l2.5 5.7-1.4.6-2.6-5.7z"/><path fill="#939592" fill-opacity=".5" d="M2.4 86.3L1.5 85l57-38.5.9 1.3z"/><path fill="#9e999b" fill-opacity=".5" d="M249.9 60l1.7-4.3 18.9 7.7-1.8 4.3z"/><path fill="#603c47" fill-opacity=".5" d="M114 89.7l.1 1.6L97 93l-.2-1.6z"/><path fill="#cbdadd" fill-opacity=".5" d="M229.2 97.6l-4 15-9-2.4 4-15z"/><path fill="#a3afa8" fill-opacity=".5" d="M12.6 15.6l-.2 11h-1.6l.2-11z"/><path fill="#582e2b" fill-opacity=".5" d="M86.6 89.7l-14 9.8-4.5-6.4 14-9.8z"/><path fill="#412d3b" fill-opacity=".5" d="M146.5 76.6l-1 1.2-24.8-21.6 1-1.1z"/><path fill="#401f17" fill-opacity=".5" d="M188.7 89.2l-1.2-1 19.1-22.7 1.2 1z"/><path fill="#68332e" fill-opacity=".5" d="M36 144.5v-6.2h10.9v6.2z"/><path fill="#ac344f" fill-opacity=".5" d="M40 196.8l4.5-1.2 1.5 6-4.5 1.2z"/><path fill="#211d0b" fill-opacity=".5" d="M359.5 131.8l6.2-12.7 1.4.7-6.2 12.6z"/><path fill="#889096" fill-opacity=".5" d="M123.7 189.3l3.4-10.4 16.4 5.3-3.4 10.4z"/><path fill="#ccd3d0" fill-opacity=".5" d="M255.2 41.6l.6-1.4 15.6 7.3-.7 1.4z"/><path fill="#d36059" fill-opacity=".5" d="M157.2 145.9l1.3-6.2 1.5.4-1.3 6z"/><path fill="#381b24" fill-opacity=".5" d="M98.7 100.2l-1.3-1 21.1-29 1.3.9z"/><path fill="#090d07" fill-opacity=".5" d="M51.1 194.8l20.6-38.6 6.9 3.7L58 198.5z"/><path fill="#686f6a" fill-opacity=".5" d="M392.8 73.6l-.3 1.5-30.6-6.5.3-1.5z"/><path fill="#110f0e" fill-opacity=".5" d="M271 147.6l-33.4 20.2-.8-1.4 33.4-20.1z"/><path fill="#859eb1" fill-opacity=".5" d="M284 128.5l-20.6-16.7 1-1.2 20.6 16.7z"/><path fill="#001216" fill-opacity=".5" d="M157.8 93.5l13.8-2.6.3 1.5L158 95z"/><path fill="#2f383b" fill-opacity=".5" d="M262-13l165.2 26-.2 1.6-165.2-26.1z"/><path fill="#4d5f5e" fill-opacity=".5" d="M388 93.9l-1.4 7.7-16.9-3.3 1.5-7.7z"/><path fill="#715c6d" fill-opacity=".5" d="M193.3 11.9L182-1.1l10.6-9.2 11.3 13z"/><path fill="#8f9ba0" fill-opacity=".5" d="M193 214l-43.7-24.2 3-5.4 43.7 24.2z"/><path fill="#021112" fill-opacity=".5" d="M114.1 112.8l22-14.9 4.4 6.5-22 14.9z"/><path fill="#2b707b" fill-opacity=".5" d="M171 32.9l14 22.5-1.3.8-14-22.5z"/><path fill="#6e5d49" fill-opacity=".5" d="M374.6 117.7l5.8 11-9.6 5.2-6-11z"/><path fill="#7b5c67" fill-opacity=".5" d="M156.4 78.7l-11.8-4.3.6-1.5 11.7 4.3z"/><path fill="#230d13" fill-opacity=".5" d="M100.7 55.2l-1-3 35.5-12.1 1 3z"/><path fill="#492a22" fill-opacity=".5" d="M213.2 56.6l-1 1.3-5-3.6.8-1.3z"/><path fill="#5c4d3a" fill-opacity=".5" d="M29 73.3l36.4-24.5.8 1.3L30 74.6z"/><path fill="#252434" fill-opacity=".5" d="M50 166.4l-6.3 19.3-1.5-.5 6.3-19.3z"/><path fill="#364a57" fill-opacity=".5" d="M81.4 116L78 129.7l-1.6-.4 3.4-13.7z"/><path fill="#48343d" fill-opacity=".5" d="M134.5 139.3l-1 3-16.4-5 1-3z"/><path fill="#543824" fill-opacity=".5" d="M94.3 134l-1.4-.7 17.5-31.4 1.3.7z"/><path fill="#7b7771" fill-opacity=".5" d="M78.2 150.9l.8-1.3 31.8 19.8-.8 1.4z"/><path fill="#432311" fill-opacity=".5" d="M315.4 167.1l-.6-1.5 9-3 .4 1.5z"/><path fill="#011f28" fill-opacity=".5" d="M134.8 39.7l.7-18.7 6.2.2-.6 18.7z"/><path fill="#90321b" fill-opacity=".5" d="M349.3 127.1l10.3 3.8-1 3-10.4-3.8z"/><path fill="#391b11" fill-opacity=".5" d="M154 15.5l-18.8.3-.1-7.8 18.7-.4z"/><path fill="#02110f" fill-opacity=".5" d="M369.2 95l-4.6.6-1-7.8 4.7-.6z"/><path fill="#4c4239" fill-opacity=".5" d="M464.5 60.2L296.2 33.5l.3-1.5 168.2 26.6z"/><path fill="#714d3e" fill-opacity=".5" d="M245 42.1l1.1 1.2-24 22.4-1-1.2z"/><path fill="#736474" fill-opacity=".5" d="M190.6 34.6L168.1 13l2.2-2.2 22.5 21.7z"/><path fill="#3d3327" fill-opacity=".5" d="M59.3 42l-1.5.2-3-17 1.5-.2z"/><path fill="#9fb1b9" fill-opacity=".5" d="M290.3 125.5l-1.7-2.6 28.9-18.7 1.7 2.6z"/><path fill="#b2a59b" fill-opacity=".5" d="M256.8 82.1l12.5-.2.4 21.9-12.5.2z"/><path fill="#804e55" fill-opacity=".5" d="M-4 98l13.3 4.7L5.5 113l-13.2-4.8z"/><path fill="#5d3738" fill-opacity=".5" d="M122.7 7.3l-9.1 2.1-3.5-15.2 9.1-2z"/><path fill="#999995" fill-opacity=".5" d="M20.2 119.2l4.5-11.7 16 6.2-4.4 11.6z"/><path fill="#4e4137" fill-opacity=".5" d="M35.6-11.7l.5-1.5 76.8 26.5-.5 1.4z"/><path fill="#584f70" fill-opacity=".5" d="M170.6 31l-6-5.1 7-8.4 6 5z"/><path fill="#51362b" fill-opacity=".5" d="M216.4 138.8l-.1 1.6-25-2.6.3-1.6z"/><path fill="#b67380" fill-opacity=".5" d="M18.6 182l-1-1.2 6-5 1 1.2z"/><path fill="#98805f" fill-opacity=".5" d="M83.4 113.5l-4.9 4-1-1.3 5-4z"/><path fill="#201717" fill-opacity=".5" d="M188.8 125.5l-.6 1.5-31.7-13.5.6-1.4z"/><path fill="#71385d" fill-opacity=".5" d="M118.1 75.7l.5-1.5 14.9 4.8-.5 1.5z"/><path fill="#003e52" fill-opacity=".5" d="M128.7 52.9l-.9-4.6 13.8-2.7 1 4.6z"/><path fill="#00131e" fill-opacity=".5" d="M62.8 34.1l-3.4-8.7 4.4-1.7 3.3 8.7z"/><path fill="#8d3c21" fill-opacity=".5" d="M331.1 177.6l1.5.6-5.9 14.5-1.4-.6z"/><path fill="#361c00" fill-opacity=".5" d="M305 175.2l-1 1.2-10.5-9.4 1-1.2z"/><path fill="#5c4129" fill-opacity=".5" d="M59 140l1.5.3-5.4 27.6-1.5-.3z"/><path fill="#9aa4a1" fill-opacity=".5" d="M118.7 132l10.1-7.4 1 1.3-10.2 7.3z"/><path fill="#000e0d" fill-opacity=".5" d="M112.4 33.8l-.3 1.5-26-5 .2-1.6z"/><path fill="#191109" fill-opacity=".5" d="M266.4 26.3v1.6l-31.2.5v-1.6z"/><path fill="#98b0bc" fill-opacity=".5" d="M247.1 127.5l.3-1.5 35.2 7.4-.3 1.6z"/><path fill="#685054" fill-opacity=".5" d="M25.5 46L2.9 16l1.3-1 22.6 30z"/><path fill="#732a22" fill-opacity=".5" d="M311.5 118.5l-1.5-2.8 8.2-4.5 1.5 2.7z"/><path fill="#000905" fill-opacity=".5" d="M132.7-15.7l3 .4-4.3 35.7-3.1-.4z"/><path fill="#967272" fill-opacity=".5" d="M334.6 161.7l6.5-4.4.9 1.3-6.5 4.4z"/><path fill="#2a241e" fill-opacity=".5" d="M343 48.3L409 61l-.4 1.5-66-12.8z"/><path fill="#856452" fill-opacity=".5" d="M363.3 145.8l-.5-1.5 22.3-7.3.5 1.5z"/><path fill="#584f47" fill-opacity=".5" d="M310.4 23.1l.3 1.6-63.3 10-.3-1.6z"/><path fill="#001115" fill-opacity=".5" d="M27.4-4.8l1.4 20.2-4.6.4-1.5-20.3z"/><path fill="#aa825e" fill-opacity=".5" d="M170 142.2l-12.5-11.8 2.1-2.2 12.6 11.7z"/><path fill="#332721" fill-opacity=".5" d="M225.7 140.4l-4.1-2.1 4.2-8.4 4.2 2.1z"/><path fill="#081315" fill-opacity=".5" d="M339.3-2.9l.2-1.6 63.4 9-.2 1.5z"/><path fill="#2a2831" fill-opacity=".5" d="M164 24.5l-1.5.3-6.2-29 1.5-.3z"/><path fill="#1e160d" fill-opacity=".5" d="M67.3 172l.7-1.5 28.7 12.2-.6 1.5z"/><path fill="#251713" fill-opacity=".5" d="M204.8 105.6l-.3 6.2-4.7-.2.4-6.2z"/><path fill="#1a1005" fill-opacity=".5" d="M354.7 143.8l10.4 7-2.6 3.9-10.4-7z"/><path fill="#15626d" fill-opacity=".5" d="M8.5 189l-.7-1.3 7.1-3.3.7 1.4z"/><path fill="#934b28" fill-opacity=".5" d="M146.1 136.1l-1.2 1-14.4-18.5 1.2-1z"/><path fill="#4f4539" fill-opacity=".5" d="M358.6 83.7L326 80.3l1.3-12.4 32.6 3.4z"/><path fill="#836765" fill-opacity=".5" d="M227.1 143.6l-1 1.2-11-8.7 1-1.2z"/><path fill="#564446" fill-opacity=".5" d="M67-7.9l.4 20.3-7.8.2-.4-20.3z"/><path fill="#581e0b" fill-opacity=".5" d="M338.8 181.3l1.6-4.4 16.1 5.9-1.6 4.4z"/><path fill="#1e1818" fill-opacity=".5" d="M26 57.6l9.5-12.4L38 47l-9.4 12.5z"/><path fill="#5d7590" fill-opacity=".5" d="M208.5 109.4l-6-2 3.1-9 6 2z"/><path fill="#786e6f" fill-opacity=".5" d="M246.9 156.5l-26.6-.5v-1.5l26.6.4z"/><path fill="#834f49" fill-opacity=".5" d="M321.8 175.2l-.7 1.3-41.4-22 .8-1.3z"/><path fill="#a5898e" fill-opacity=".5" d="M25 99.2l-.2 1.5-7.7-1.5.3-1.5z"/><path fill="#8a6845" fill-opacity=".5" d="M123.4 156.4l-2.7 7.4-42.5-15.5 2.6-7.4z"/><path fill="#99807d" fill-opacity=".5" d="M333.5 149.8l-5.1 11.4-7.2-3.2 5.1-11.4z"/><path fill="#601a14" fill-opacity=".5" d="M175.5 106.7l14.9-22 1.3.8-14.9 22z"/><path fill="#10150f" fill-opacity=".5" d="M221 37l31.3-2.2v1.6l-31.1 2.2z"/><path fill="#210805" fill-opacity=".5" d="M158.2 148.1l-1.6.3-3.8-20 1.5-.2z"/><path fill="#631e1d" fill-opacity=".5" d="M177.3 137.9l-10.2-7.3 1-1.3 10 7.3z"/><path fill="#827562" fill-opacity=".5" d="M332.8 123l1.9-2.5 18.5 14.4-2 2.5z"/><path fill="#050e0d" fill-opacity=".5" d="M402.9 125.5l-3.1.3-4.3-40.4 3.1-.3z"/><path fill="#34727c" fill-opacity=".5" d="M47 182l1.4.6-3.2 8.8-1.4-.5z"/><path fill="#a47282" fill-opacity=".5" d="M122.9 116.6l6.1 1.3-.3 1.5-6.1-1.3z"/><path fill="#14414b" fill-opacity=".5" d="M136 25.8v-9.4h4.6v9.4z"/><path fill="#c3d0ce" fill-opacity=".5" d="M212.5 74.5l-2.4-2 4-4.8 2.4 2z"/><path fill="#2b292c" fill-opacity=".5" d="M212.1 93.6l-1-1.2 3.4-3.2 1 1.2z"/><path fill="#d0bfa0" fill-opacity=".5" d="M71.7 66.4l.6-1.5 4.4 1.5-.5 1.5z"/><path fill="#452b37" fill-opacity=".5" d="M13.4 240.5H12l7.5-107.6 1.5.1z"/><path fill="#080b03" fill-opacity=".5" d="M207.2 36.6l26.4-56.7 1.4.7-26.4 56.6z"/><path fill="#2b271b" fill-opacity=".5" d="M115.9 132.6l-1.3 4.5-19.5-5.6 1.3-4.5z"/><path fill="#6c4f40" fill-opacity=".5" d="M323 144.2l-.9-1.3 6.5-4.3.9 1.3z"/><path fill="#a25644" fill-opacity=".5" d="M176.4 126.1l24.4 10.4-.6 1.4-24.4-10.3z"/><path fill="#49352b" fill-opacity=".5" d="M261.5 155.4l2.1-10.7 7.7 1.5-2.1 10.7z"/><path fill="#697d90" fill-opacity=".5" d="M276.5 121.1l-1.1-1.1L300 96l1 1.2z"/><path fill="#71000b" fill-opacity=".5" d="M25 184.1l-5.5-2.8.7-1.4 5.6 2.9z"/><path fill="#000707" fill-opacity=".5" d="M145.8 31.7l.6-9.4 9.4.7-.7 9.3z"/><path fill="#71647d" fill-opacity=".5" d="M140 42.7l-2 4.3-1.4-.6 1.9-4.3z"/><path fill="#511917" fill-opacity=".5" d="M156.4 131l12 20-1.3.9-12-20.1z"/><path fill="#20383d" fill-opacity=".5" d="M51.1 39.3l-13.8 2.4L34.8 28l13.9-2.5z"/><path fill="#0c598c" fill-opacity=".5" d="M176 27l2 4.3-5.6 2.6-2-4.2z"/><path fill="#422311" fill-opacity=".5" d="M145.7 118.4l-5.7 12.9-2.9-1.3 5.7-12.8z"/><path fill="#3f1b24" fill-opacity=".5" d="M125 13.3v9.4h-4.7v-9.4z"/><path fill="#74374c" fill-opacity=".5" d="M125.3 59.2l1.6-4.4 8.8 3.2-1.6 4.4z"/><path fill="#9d8984" fill-opacity=".5" d="M262.4 44.3l6.5 4.4-7.9 11.7-6.5-4.4z"/><path fill="#73828f" fill-opacity=".5" d="M244.5 149.8l8.1-11.5 1.3 1-8 11.4z"/><path fill="#5d3a37" fill-opacity=".5" d="M154.4-5.1l7.7 9.8-2.5 2-7.6-9.9z"/><path fill="#533a37" fill-opacity=".5" d="M172 51.8l-9.6-26.5 1.5-.5 9.6 26.4z"/><path fill="#15151c" fill-opacity=".5" d="M47.8 14.6l-1.5.3-2-9.2 1.6-.3z"/><path fill="#977a5d" fill-opacity=".5" d="M291 212.5l-.5 1.5-86.2-28 .5-1.5z"/><path fill="#93766e" fill-opacity=".5" d="M256.8 50.7l-23.6 20.5-4-4.7L252.6 46z"/><path fill="#1c090a" fill-opacity=".5" d="M353 116.4l4 8.5-8.5 4-4-8.5z"/><path fill="#4e4f48" fill-opacity=".5" d="M256.7 39.5l15.7-7 .6 1.4-15.7 7z"/><path fill="#8e8675" fill-opacity=".5" d="M210.2 14.2l-6.2 9-6.4-4.6 6.2-9z"/><path fill="#000002" fill-opacity=".5" d="M369.4 146l.4-1.5 6 1.6-.3 1.6z"/><path fill="#a14c64" fill-opacity=".5" d="M116.2 17l1.3 1-7.2 10.2-1.2-.9z"/><path fill="#6c8086" fill-opacity=".5" d="M85.4 106.1l1.5.7-2 4.2-1.4-.6z"/><path fill="#423929" fill-opacity=".5" d="M72 151.2l-1.3-.8 5.7-9.4 1.3.8z"/><path fill="#22231f" fill-opacity=".5" d="M216.4 49.4l11-26 1.5.7-11 25.9z"/><path fill="#322213" fill-opacity=".5" d="M200.9 43.5l-10.6-9.2 1-1.2 10.6 9.2z"/><path fill="#cd9165" fill-opacity=".5" d="M192.5 128.5l19.1-7 .6 1.5-19.1 7z"/><path fill="#718a9b" fill-opacity=".5" d="M283.2 69.3L311.9 91l-2.9 3.7-28.7-21.6z"/><path fill="#9f9e9a" fill-opacity=".5" d="M94.8 137.2L72 131.5l.4-1.5 22.8 5.7z"/><path fill="#846e63" fill-opacity=".5" d="M209.8 138.1l7.8 5.3-.9 1.3-7.7-5.3z"/><path fill="#856a60" fill-opacity=".5" d="M255 77.8l-1.4-.7L265.3 55l1.4.7z"/><path fill="#8ea5ac" fill-opacity=".5" d="M224.1 163.8l-1.2 1-23.6-27 1.2-1z"/><path fill="#402c1d" fill-opacity=".5" d="M196.4 26l1.3-.8 10.6 19.1-1.3.8z"/><path fill="#274a5f" fill-opacity=".5" d="M167 88.1L157 93l-.6-1.4 9.8-4.8z"/><path fill="#aaabb1" fill-opacity=".5" d="M271.5 65l-4.1 2.1-3-5.5 4.2-2.2z"/><path fill="#776754" fill-opacity=".5" d="M208.2 28.5l-1.5-.5 17.9-55 1.5.5z"/><path fill="#181c14" fill-opacity=".5" d="M191.5 90l2.6-1.6 6.6 10.6-2.6 1.7z"/><path fill="#100601" fill-opacity=".5" d="M200.8 157.9l-.4 1.5-12.1-3.2.4-1.5z"/><path fill="#91afc2" fill-opacity=".5" d="M209.7 113.4l-.6-18.7 7.8-.3.6 18.7z"/><path fill="#557ca4" fill-opacity=".5" d="M62.7 60.5L57 58.1l.6-1.4 5.7 2.4z"/><path fill="#7c5661" fill-opacity=".5" d="M8.5 25.5l4.9-30.9 1.5.2-4.9 31z"/><path fill="#672d21" fill-opacity=".5" d="M215.1 79.6l-18.5 3.2-.8-4.6 18.5-3.2z"/><path fill="#453332" fill-opacity=".5" d="M246.8 148.9l-15.8 6.7-1.2-2.9 15.8-6.7z"/><path fill="#254957" fill-opacity=".5" d="M46.6 35.6l3.8 2.7-11 15.2-3.8-2.8z"/><path fill="#864558" fill-opacity=".5" d="M-4.6 193.3l-.2-3.2 11-.5.1 3z"/><path fill="#a7b4b7" fill-opacity=".5" d="M210.3 167.1l.4-1.5L238 172l-.4 1.6z"/><path fill="#3b312d" fill-opacity=".5" d="M291.9 130l19.2 37.7-1.4.7-19.2-37.6z"/><path fill="#382719" fill-opacity=".5" d="M361.5 18l56.8 11.1L415 46l-56.7-11z"/><path fill="#752d26" fill-opacity=".5" d="M185 12.1l-7.6 5.5-4.6-6.3 7.6-5.5z"/><path fill="#354441" fill-opacity=".5" d="M77.5 79.6l-8.3 15-1.4-.7 8.3-15z"/><path fill="#465358" fill-opacity=".5" d="M206.7 146l1.9 2.4-1.3 1-1.8-2.5z"/><path fill="#7c6b74" fill-opacity=".5" d="M163.8 51.5l.5 11h-1.5l-.6-10.9z"/></svg>