<svg xmlns="http://www.w3.org/2000/svg" viewBox="0 0 400 200"><path fill="#909b99" d="M0 0h400v200H0z"/><ellipse fill="#93e2ff" fill-opacity=".5" rx="1" ry="1" transform="rotate(-80 145 -152.9) scale(57.00852 115.31631)"/><ellipse fill="#002e34" fill-opacity=".5" rx="1" ry="1" transform="matrix(117.45388 63.34039 -6.94468 12.87771 82.3 100.6)"/><path fill="#fff" fill-opacity=".5" d="M-2.7 106.3L9.7 82.8 145 154.7 132.5 178z"/><ellipse fill="#ffffef" fill-opacity=".5" rx="1" ry="1" transform="matrix(-249.9117 -157.98761 6.10235 -9.65296 176.3 122)"/><path fill="#00303b" fill-opacity=".5" d="M159 239.6L-26.4 157l15.9-35.7L174.9 204z"/><ellipse fill="#00333e" fill-opacity=".5" rx="1" ry="1" transform="matrix(-66.90184 -43.47272 5.6988 -8.77009 201.2 112.7)"/><path fill="#674d45" fill-opacity=".5" d="M300.8 207l96.9-170.3 26.5 118.8z"/><path fill="#223932" fill-opacity=".5" d="M52.3 32.2l87.3 47.4-11.3-28.8L44.5 1.5z"/><ellipse fill="#ffffeb" fill-opacity=".5" rx="1" ry="1" transform="rotate(-146 91.8 4) scale(134.48008 8.21266)"/><ellipse fill="#2a392f" fill-opacity=".5" rx="1" ry="1" transform="rotate(126.7 71.7 57.1) scale(7.62717 169.66977)"/><path fill="#584438" fill-opacity=".5" d="M109.8 181.7l56-31 22.8 41-56 31z"/><path fill="#fff" fill-opacity=".5" d="M94.5 210.2L-7 218l-17.2-56.3z"/><path fill="#fffcfb" fill-opacity=".5" d="M271 55.5l-104.6-39 125 90.5z"/><path fill="#fff" fill-opacity=".5" d="M282.4 206.5l-51.2-5.4 3.6-34.2 51.2 5.4z"/><ellipse fill="#150a00" fill-opacity=".5" rx="1" ry="1" transform="matrix(64.41662 -21.30376 2.04324 6.1782 371.5 172.9)"/></svg>