<svg xmlns="http://www.w3.org/2000/svg" viewBox="0 0 16 8"><path fill="#919b9b" d="M0 0h16v8H0z"/><g fill-opacity=".5"><path fill="#9cddfe" d="M12.5 3.5l15-19h-39z"/><path fill="#2d4040" d="M.5 5.5l17 16 14-6z"/><path fill="#80685b" d="M10.5 4.5l8 6-3-8z"/><path fill="#dbf1f4" d="M4.5 5.5l-11-4-8 4z"/><path fill="#fffef5" d="M9.5 6.5l2 17 12-12z"/><path fill="#404137" d="M3.5 3.5l-19-10 7-2z"/><path fill="#f2e5d3" d="M4.5 2.5l-7-10-13-2z"/><path fill="#696256" d="M3.5 3.5l28 20h-14z"/><path fill="#264957" d="M1.5 5.5l-9 1-6-7z"/><path fill="#aed4e4" d="M3.5 6.5l-19 9v-8z"/><path fill="#625440" d="M5.5 1.5l-18-17v8z"/><path fill="#f3ffff" d="M4.5 3.5l-20 8v-6z"/><path fill="#000403" d="M.5 2.5l-13-7 2-8z"/><path fill="#f0ead4" d="M6.5 1.5l-8-9 2-3z"/><path fill="#7bb2cc" d="M13.5 3.5l-4-7 10-3z"/><path fill="#deded9" d="M2.5.5l-1-16-4 3z"/><path fill="#5e2d17" d="M21.5 4.5l-5 1 8 3z"/><path fill="#fff" d="M10.5 7.5l12 9-24 4z"/><path fill="#cad9da" d="M7.5.5l4 2h-2z"/><path fill="#aab9b9" d="M7.5 5.5l-5 3h-6z"/><path fill="#454d4a" d="M6.5 6.5l-22 7v9z"/><path fill="#635d47" d="M5.5.5l3-16 6 5z"/><path fill="#d1e2e2" d="M5.5 5.5l-21-14 7 10z"/><path fill="#e0b199" d="M19.5 3.5l-19 19 24-9z"/><path fill="#8c9494" d="M11.5 6.5l1-5h4z"/><path fill="#c3beb1" d="M7.5 4.5l-2-1v1z"/><path fill="#517685" d="M13.5 3.5l18-6-3-8z"/><path fill="#606f6f" d="M1.5 5.5l20 9-10 1z"/><path fill="#68635a" d="M-2.5 23.5l10-19-1 18z"/><path fill="#77746e" d="M15.5 21.5l-10-17 12 11z"/><path fill="#92705e" d="M15.5 4.5l-11 12 7 2z"/><path fill="#9c938d" d="M8.5 5.5l-2 18 6-4z"/><path fill="#82bdda" d="M10.5 1.5l21-10-7 10z"/><path fill="#544e3f" d="M4.5 1.5l-15-15 8 2z"/><path fill="#d7c5ad" d="M4.5.5l-13-16h6z"/><path fill="#899089" d="M6.5 1.5v-4l2 7z"/><path fill="#bfe5f5" d="M-8.5-6.5l-7 29 18-10z"/><path fill="#b3cbd1" d="M12.5 3.5l-13-19v10z"/><path fill="#8ab2c5" d="M13.5 2.5l-11-7-2-11z"/><path fill="#fdffff" d="M1.5 4.5l-12 2-3 5z"/><path fill="#8c877a" d="M3.5 1.5l-2-17-4 2z"/><path fill="#abb2b1" d="M.5 4.5l-16-3 11-17z"/><path fill="#ba9c91" d="M10.5 13.5l-8 4 10-11z"/><path fill="#807e6d" d="M11.5-15.5l-7 17 7-8z"/><path fill="#cee4ec" d="M9.5 1.5l-1 1 2-1z"/><path fill="#7b959e" d="M3.5 6.5l-11 6 7 8z"/><path fill="#d3bcb6" d="M10.5 6.5l-9 17 7-4z"/><path fill="#575c58" d="M6.5 6.5l-22 10 12 5z"/><path fill="#fffef6" d="M10.5 7.5l-9 9 25-6z"/><path fill="#616661" d="M9.5 5.5l-13 11-5-4z"/><path fill="#b8b3a9" d="M7.5 5.5l5 14-4 4z"/><path fill="#7e7b76" d="M7.5 6.5l9 7-3 10z"/><path fill="#787874" d="M8.5 4.5l-2-1 1 1z"/><path fill="#aa9083" d="M13.5 6.5l18 12-5-11z"/><path fill="#9c8776" d="M31.5 3.5v14l-17-14z"/><path fill="#97cce3" d="M12.5 1.5l16-17 3 7z"/><path fill="#a6bfc7" d="M4.5 3.5l19-12-7-1z"/><path fill="#82b6ce" d="M12.5.5l-15-4 33-3z"/><path fill="#7f665a" d="M10.5 10.5l4-4-5 12z"/><path fill="#9ab7c1" d="M9.5 3.5l1-1h-2z"/><path fill="#739aaa" d="M15.5 1.5l9 2 7-3z"/><path fill="#9ea39e" d="M.5 3.5l-16-4 9-15z"/><path fill="#22414e" d="M1.5 6.5l-10 4-5-3z"/><path fill="#82867f" d="M8.5 3.5l-3-2h2z"/><path fill="#d4e0dc" d="M5.5 6.5l-4-2 2 2z"/><path fill="#607274" d="M3.5 6.5l-1 17h-8z"/><path fill="#bddbe6" d="M.5 4.5l-14-20 3 13z"/><path fill="#405d64" d="M3.5 7.5l-2 7 14-3z"/><path fill="#f2ffff" d="M1.5 4.5l-17 8 6-7z"/><path fill="#b1d5e4" d="M8.5 1.5l11-13-3-4z"/><path fill="#91afb9" d="M10.5.5l-15-12 13-1z"/><path fill="#788989" d="M7.5.5h-1l1 1z"/><path fill="#5d594d" d="M4.5 1.5l-8-9v-8z"/><path fill="#456675" d="M.5 6.5l-14-9 7-2z"/><path fill="#918074" d="M13.5 5.5l-6 15 5-2z"/><path fill="#92aab2" d="M1.5 5.5l-13 2-3 6z"/><path fill="#61767a" d="M3.5 4.5l-19 2 6 3z"/><path fill="#afb7b4" d="M8.5 2.5l-7-15 6 3z"/><path fill="#c6bdbb" d="M9.5 6.5l9 12-7 5z"/><path fill="#c7d7d6" d="M8.5.5l-3-9-5-1z"/><path fill="#d6d3cf" d="M9.5 7.5l-10 8-15-6z"/><path fill="#76aec8" d="M13.5 1.5l16-2 2-15z"/><path fill="#c2c2bc" d="M6.5 3.5l2 1-1-1z"/><path fill="#81b8d4" d="M11.5 1.5l-1-14 8-2z"/><path fill="#7e8787" d="M31.5-4.5l-16 7 5-6z"/><path fill="#c7c1bf" d="M11.5 7.5l10 6-23 10z"/><path fill="#6f6d66" d="M7.5 4.5l-7 11 6-5z"/><path fill="#5b5c56" d="M6.5 6.5l-1 11h-7z"/><path fill="#84776d" d="M15.5 4.5l-6 11-9 3z"/><path fill="#757166" d="M2.5.5l9-13-6-3z"/><path fill="#9a948e" d="M8.5 6.5l-2 13-7-4z"/><path fill="#8eafbe" d="M1.5 7.5l-13 9 16 7z"/><path fill="#64777c" d="M14.5 2.5h10l-1 4z"/><path fill="#c0baae" d="M4.5 1.5l-12-11-8 7z"/><path fill="#cfcbc1" d="M1.5-15.5l3 8-10 15z"/><path fill="#afa29c" d="M12.5 6.5l-1-1h-2z"/><path fill="#fff2ed" d="M10.5 7.5v16l-13-1z"/><path fill="#686b63" d="M4.5 7.5l11 13-31-12z"/><path fill="#deeceb" d="M1.5 5.5l1-1h1z"/><path fill="#ccc7c4" d="M9.5 6.5l2 11 10 2z"/></g></svg>