<svg xmlns="http://www.w3.org/2000/svg" viewBox="0 0 400 200"><path fill="#909b99" d="M0 0h400v200H0z"/><path fill="#002d37" fill-opacity=".5" d="M1.6 40.7l192.1 111-12.5 21.6-192.1-111z"/><path fill="#fff" fill-opacity=".5" d="M133.1 172.9L-4.7 102.7l10.6-21L143.8 152z"/><path fill="#96e6ff" fill-opacity=".5" d="M155.3 6.5l76.2-101.1L371.2 10.7l-76.1 101z"/><path fill="#06333b" fill-opacity=".5" d="M-18.5 161.2l15.3-36 182.6 77.6-15.2 36z"/><path fill="#fff" fill-opacity=".5" d="M298 233.8l-77.3-50.2L241 152l77.3 50.2zm-87-82L-34.2-1.3-25-16l245 153.2z"/><path fill="#002f3d" fill-opacity=".5" d="M265.2 143l-9.3 14.3-166.4-108 9.3-14.5z"/><path fill-opacity=".5" d="M312.9 201.3l-4.7-11.6 89.8-36.3 4.7 11.6z"/><path fill="#fff1d2" fill-opacity=".5" d="M55.2-31.1l196 142.3-11 15.2-196-142.3z"/><path fill="#3e3b29" fill-opacity=".5" d="M76.7-15.6l7-10.4L240.5 79.7l-7 10.4z"/><path fill="#7e6157" fill-opacity=".5" d="M446.2 87.9l-154.5 78.7-27-52.9L419.3 35z"/><path fill="#fff" fill-opacity=".5" d="M-9.5 195.2l9.7-23 73.4 31-9.8 23z"/><path fill="#3b1a00" fill-opacity=".5" d="M89.7 51L42.8 23l9.7-16.1L99.4 35z"/><path fill="#73c2ea" fill-opacity=".5" d="M262.9 32.6L399.4-40l33 62L296 94.8z"/><path fill="#614739" fill-opacity=".5" d="M109.2 228.3l-19.1-37.6 71-36.2 19.1 37.6z"/><path fill="#fcdbc5" fill-opacity=".5" d="M278.5 75.8l-16.2 23-126.7-88.7 16.1-23z"/><path fill="#06130e" fill-opacity=".5" d="M219.4 81.3l4.6-6.4 58.2 42.3-4.6 6.3z"/><path fill="#150000" fill-opacity=".5" d="M22.5 85.4L-4 75.7l8-22 26.4 9.6z"/><path fill="#fff9f0" fill-opacity=".5" d="M134.2 148.6L122.9 171 1.7 109.2l11.4-22.3z"/><path fill="#fff5ec" fill-opacity=".5" d="M370.4 99l.6 1.4-158.6 74-.6-1.4z"/><path fill="#7d787c" fill-opacity=".5" d="M234 217.1l-48.4 1.7-2.5-71.8 48.4-1.7z"/><path fill="#fff" fill-opacity=".5" d="M175.8 65l2.7-3.9 91 66.2-2.7 3.8z"/><path fill="#f5ad67" fill-opacity=".5" d="M-12 117l4.7-10 133.4 65.2-4.8 9.8z"/><path fill="#cfb4a1" fill-opacity=".5" d="M171.1 171l3.2-45.1 21.8 1.5-3.2 45.2z"/><path fill="#1b0d00" fill-opacity=".5" d="M402.6 107.7l3.1 7.1-44.2 19.7-3.2-7.1z"/><path fill="#fff" fill-opacity=".5" d="M408.4 176.7L321 210.3l-2.8-7.3 87.5-33.6z"/><path fill="#a66f3b" fill-opacity=".5" d="M59.7 6.8l7.1-10.2 162.6 113.8-7.2 10.2z"/><path fill="#eba761" fill-opacity=".5" d="M180 129.4l-4.8 8L56 66l4.8-8z"/><path fill="#fff" fill-opacity=".5" d="M278.5 172l125.2-53.2.6 1.5-125.2 53z"/><path fill="#301705" fill-opacity=".5" d="M269 150l-42.7-9.8 3.2-13.7 42.6 9.9z"/><path fill="#fff5e9" fill-opacity=".5" d="M283 171.6l-2 39-50-2.6 2-39z"/><path fill="#271903" fill-opacity=".5" d="M279.4 169.3l-2.6-5.7 98.5-43.8 2.6 5.7z"/><path fill="#fffff7" fill-opacity=".5" d="M211.4 148.4L-56.3-18.8l5.8-9.3L217.2 139z"/><path fill="#00799f" fill-opacity=".5" d="M25.6 85.7l6.8-12.3 121.7 67.4-6.9 12.3z"/><path fill="#006083" fill-opacity=".5" d="M87.8 186L80 203l-91.3-40.7 7.6-17z"/><path fill="#fff" fill-opacity=".5" d="M212.4 85.7l-4.5 6.4L45.4-21.7l4.5-6.4z"/><path fill="#0082a4" fill-opacity=".5" d="M98.4 57.7l5-7.9 140.4 87.8-5 8z"/><path fill="#6d534c" fill-opacity=".5" d="M443.3 136.5L363.4 172 352 146.4l79.9-35.6z"/><path fill="#100700" fill-opacity=".5" d="M463.4 49.8l-212 103.4-.7-1.4 212-103.4z"/><path fill="#b77d4b" fill-opacity=".5" d="M54.4 54.5L43 74.9l-61.5-34L-7 20.4z"/><path fill="#7db1ca" fill-opacity=".5" d="M81.7 181.5l-98.3-47.9 2-4.2 98.4 48z"/><path fill="#3e1800" fill-opacity=".5" d="M68.5 76.4l106 66.2-.8 1.3-106-66.2z"/><path fill="#143d44" fill-opacity=".5" d="M140.3 10.8L203.9 66l-5 6L135 16.6z"/><path fill="#4b2700" fill-opacity=".5" d="M25.2 143.8l1.9-4.2 90 40-2 4.3z"/><path fill="#fff" fill-opacity=".5" d="M79.1 222.1l-80.7-37.6 5.3-11.3 80.7 37.6z"/><path fill="#462c2b" fill-opacity=".5" d="M305.8 222.4l119.4-50.7 1.8 4.3-119.4 50.7z"/><path fill="#f7e7dc" fill-opacity=".5" d="M262.7 171.4l-6 7.3-52.2-42.3 6-7.3z"/><path fill="#b1a097" fill-opacity=".5" d="M363.2 105.4l5.5 11.3L263.4 168l-5.5-11.2z"/><path fill="#7eb6d0" fill-opacity=".5" d="M305 92.8L149-8.5l47.6-73.4 156 101.3z"/><path fill="#b89062" fill-opacity=".5" d="M228 68.7l-3.9 4.9-85-68.9 4-4.8z"/><path fill="#ddedf7" fill-opacity=".5" d="M282.8 72.4L267 92l-38.8-31.5L243.9 41z"/><path fill="#443319" fill-opacity=".5" d="M29 57.7l1.6-2.6 98.3 63.8-1.7 2.6z"/><path fill="#67655e" fill-opacity=".5" d="M85 194.9l77.3-41.1 19.8 37.3-77.2 41z"/><path fill="#a6d6f1" fill-opacity=".5" d="M57-3.8L34 23.7l-14.5-12L42.6-16z"/><path fill="#fef8f4" fill-opacity=".5" d="M332 119.3l-.8-1.4L413.4 76l.7 1.4z"/><path fill="#c09266" fill-opacity=".5" d="M210.3 105.5l4.3-6.6 48.5 31.5-4.3 6.6z"/><path fill="#88c6de" fill-opacity=".5" d="M422.6 26.5l-82 45.4-24.2-43.7 82-45.4z"/><path fill="#8f6f62" fill-opacity=".5" d="M292.3 189l-6.1-14.4 57.5-24.5 6 14.4z"/><path fill="#fbf6ef" fill-opacity=".5" d="M149.2 149.5l3 5.5-34.2 19-3-5.5z"/><path fill="#fff6e9" fill-opacity=".5" d="M242.1 71.3l3-3.6 42.5 34.4-3 3.6z"/><path fill="#2e2c1d" fill-opacity=".5" d="M102.2 37.4l.9-1.3L265 145.4l-.9 1.3z"/><path fill="#a6b2b8" fill-opacity=".5" d="M124.6 52.4L149.2 69l-3.5 5.2-24.6-16.6z"/><path fill="#fffaf5" fill-opacity=".5" d="M143-9l84.8 61.5-3.7 5L139.4-4z"/><path fill="#18859d" fill-opacity=".5" d="M139.9 30l.9-1.3L286.7 131l-1 1.3z"/><path fill="#3e2307" fill-opacity=".5" d="M290.1 164.6l-19.8 9.3-2.6-5.7 19.8-9.2z"/><path fill="#b09f93" fill-opacity=".5" d="M275 123.3l69.7-38.6 6.8 12.3-69.7 38.6z"/><path fill="#d2ae85" fill-opacity=".5" d="M220.5 101.5l-2.5 4L84.2 22l2.5-4z"/><path fill="#392616" fill-opacity=".5" d="M323.3 184.5l76.3-32.3 3.6 8.6L327 193z"/><path fill="#7f8487" fill-opacity=".5" d="M181.5 188.1l-3.4-38.9 51.3-4.5 3.5 39z"/><path fill="#452b02" fill-opacity=".5" d="M115.5 106.5l.7-1.3 63.6 36.7-.7 1.4z"/><path fill="#ae8f6f" fill-opacity=".5" d="M81.4 31L50 10.5l7.6-11.8 31.5 20.5z"/><path fill="#fffefa" fill-opacity=".5" d="M338.5 90L406 54l.7 1.4-67.6 36z"/><path fill="#412d24" fill-opacity=".5" d="M246.6 151.3L224 134.8l9-12.8 22.7 16.6z"/><path fill="#e4d8ce" fill-opacity=".5" d="M404.2 116l.6 1.4-45 18.2-.5-1.5z"/><path fill="#fffaec" fill-opacity=".5" d="M341.6 146.5l-59 28.7-.7-1.4 59-28.7z"/></svg>