<svg xmlns="http://www.w3.org/2000/svg" viewBox="0 0 128 64"><path fill="#929c9c" d="M0 0h128v64H0z"/><g fill-opacity=".5"><path fill="#94e7ff" d="M89.5 32.5l-45-37 99 6z"/><path fill="#003038" d="M51.5 49.5l-30-30-36-5z"/><path fill="#fff" d="M51.5 50.5l-41-6-26-28z"/><path fill="#0a343e" d="M59.5 67.5l-54-10-21-26z"/><path fill="#fff2d9" d="M11.5 20.5l-20-28 63 43z"/><path fill="#fffdf4" d="M78.5 64.5l36 7-70-44z"/><path fill="#806358" d="M72.5 42.5l71-35-24 68z"/><path fill="#5a5957" d="M76.5 53.5l-35 26 5-41z"/><path fill="#324e49" d="M8.5 2.5l53 33-24-27z"/><path fill="#ffffe9" d="M41.5 17.5l-20-25 46 33z"/><path fill="#fff" d="M28.5 66.5l-44-1 18-10z"/><path fill="#304847" d="M72.5 49.5l14-3-38-26z"/><path fill="#3d240e" d="M26.5 25.5l-42-20v17z"/><path fill="#f8e8e3" d="M57.5 45.5l26 5-43-26z"/><path fill="#ffeef0" d="M83.5 14.5l8 18-41-30z"/><path fill="#454032" d="M24.5-7.5l39 29-29-37z"/><path fill="#17120a" d="M141.5 48.5l-24 1-19 13z"/><path fill="#fff5e6" d="M93.5 42.5l-35-22 11 15z"/><path fill="#fff" d="M66.5 78.5l29 1 35-26z"/><path fill="#fff4e6" d="M36.5 56.5l10-7-40-21z"/><path fill="#445247" d="M76.5 22.5l-18-6 27 21z"/><path fill="#203f41" d="M55.5 43.5l-1 12-19-23z"/><path fill="#866546" d="M59.5 63.5l-6 16-49-42z"/><path fill="#fff8ef" d="M74.5 70.5v-23l51 32z"/><path fill="#c5bcb8" d="M124.5 39.5l-31 13 27-2z"/><path fill="#fff" d="M22.5 18.5l9-2 15 16z"/><path fill="#eacdb6" d="M85.5 31.5l-46-34 20 1z"/><path fill="#74b6d9" d="M143.5 2.5l-124-18 84 41z"/><path fill="#929197" d="M56.5 79.5l19-32-20-1z"/><path fill="#936948" d="M55.5 21.5l-32-8-8-18z"/><path fill="#216880" d="M-14.5 48.5h34l30 23z"/><path fill="#d1c1b3" d="M92.5 50.5l15-14-33 17z"/><path fill="#b37e55" d="M-10.5-.5l41 25-45-13z"/><path fill="#fad9bd" d="M8.5 29.5l28 25-52-23z"/><path fill="#ebeaf3" d="M11.5-.5l10 18-20-11z"/><path fill="#181106" d="M83.5 33.5h11l-8 5z"/><path fill="#3a352c" d="M116.5 35.5h12l-26 12z"/><path fill="#f7d2ba" d="M26.5 5.5l16 10-18-31z"/><path fill="#271d13" d="M74.5 44.5l11 2-15-11z"/><path fill="#0b77a0" d="M30.5 13.5l28 16h-12z"/><path fill="#157a9d" d="M8.5 24.5l12-1 15 18z"/><path fill="#a39890" d="M90.5 32.5l42-3-35 18z"/><path fill="#8e8476" d="M-5.5 42.5l33 15-39-33z"/><path fill="#264c57" d="M71.5 36.5l-26-16 14 15z"/><path fill="#5f5955" d="M5.5 75.5l49 4v-32z"/><path fill="#412415" d="M22.5 7.5l6 7-15-8z"/><path fill="#95887c" d="M74.5 64.5l-27-29 25 14z"/><path fill="#7f7774" d="M139.5 35.5l-44 19h20z"/><path fill="#f2e6e0" d="M50.5 13.5l32 23-20-7z"/><path fill="#98704a" d="M81.5 39.5l-11-2-5-8z"/><path fill="#fff" d="M-4.5 53.5l60 24-27 1z"/><path fill="#ffebe2" d="M76.5 46.5l-25-6-16-18z"/><path fill="#047fa4" d="M41.5 38.5l-11-1 21 11z"/><path fill="#2a3c37" d="M54.5 12.5l13 6-7 1z"/><path fill="#261e1b" d="M120.5 61.5l-12 11-18-2z"/><path fill="#261e16" d="M88.5 44.5l-14-3 7 6z"/><path fill="#f5e2d8" d="M77.5 59.5l-13 20 37-30z"/><path fill="#4e2912" d="M34.5 35.5l-8-8 19 10z"/><path fill="#c88c57" d="M55.5 27.5l-5-9 19 13z"/><path fill="#e2a87c" d="M25.5 25.5l18 10-10-12z"/><path fill="#faf0ec" d="M37.5 53.5l-20-14 31 10z"/><path fill="#090000" d="M-6.5 19.5l14 2v5z"/><path fill="#655d5d" d="M120.5 21.5l9 3-25 12z"/><path fill="#fafaff" d="M11.5 32.5h-13l21 10z"/><path fill="#b2814a" d="M61.5 43.5h-9l-7-9z"/><path fill="#82adc8" d="M-2.5-2.5l14 9 23-21z"/><path fill="#372c25" d="M118.5 53.5l-9 7-14 1z"/><path fill="#5a4b3c" d="M105.5 45.5l-20 10 5-7z"/><path fill="#017fa1" d="M63.5 32.5l-15-3 18 9z"/><path fill="#5f3f22" d="M20.5 48.5l-19-8 11 9z"/><path fill="#303831" d="M73.5 27.5l13 9-3-6z"/><path fill="#fff" d="M127.5 61.5l-15 18 1-13z"/><path fill="#265a6e" d="M27.5 14.5l4-6 13 14z"/><path fill="#7db1d1" d="M.5 41.5l-4 3 17 5z"/><path fill="#103b4e" d="M56.5 12.5h-6l-4-5z"/><path fill="#323128" d="M36.5 57.5h-10l-7-8z"/><path fill="#fff" d="M126.5 38.5l17 5-5-8z"/><path fill="#b1cdda" d="M66.5 19.5l13-35 1 21z"/><path fill="#998e8a" d="M130.5 22.5l-23-1-19 21z"/><path fill="#fff5f9" d="M18.5-15.5l25 26-44-26z"/><path fill="#fff4f5" d="M121.5 57.5l12 1 10-8z"/><path fill="#bcb1a6" d="M81.5 48.5l21-9-13 12z"/><path fill="#4f3d2c" d="M24.5 26.5h-7l-7-8z"/><path fill="#484030" d="M48.5 4.5h-9l20 9z"/><path fill="#4b91ab" d="M34.5 59.5l-24-11 13 11z"/><path fill="#1e7188" d="M19.5 33.5l34 17-15-14z"/><path fill="#d29e74" d="M54.5 7.5l-24-11 4-12z"/><path fill="#c3bbbf" d="M122.5 32.5h-6l13-7z"/><path fill="#4d8496" d="M21.5 26.5l-13 1 2-7z"/><path fill="#0b5269" d="M-2.5 44.5l21 11-32-2z"/><path fill="#81868c" d="M78.5 79.5l-6-33-20 1z"/><path fill="#8e847e" d="M110.5 56.5h-21l38-15z"/><path fill="#140e0d" d="M121.5 38.5l17-15 5 7z"/><path fill="#dddbd2" d="M80.5 34.5l-2 5 12 3z"/><path fill="#e3eaee" d="M48.5.5l18 7 9 13z"/><path fill="#fdf6f3" d="M10.5 7.5l18 11h-8z"/><path fill="#6d5c46" d="M83.5 42.5l17-4-9 5z"/><path fill="#75adc5" d="M53.5-10.5l12 21 34-26z"/><path fill="#f8f6f4" d="M47.5 10.5l6 9-16-12z"/><path fill="#eeedf1" d="M34.5 20.5l15 9-21-5z"/></g></svg>