<svg xmlns="http://www.w3.org/2000/svg" viewBox="0 0 400 200"><path fill="#909b99" d="M0 0h400v200H0z"/><path fill="#002b30" fill-opacity=".5" d="M169.6 165.7L-116 7.4l13.6-24.6L183.2 141z"/><path fill="#91e2ff" fill-opacity=".5" d="M184.6 26l125-143.8L417-24.5 292 119.4z"/><path fill="#fff" fill-opacity=".5" d="M6.4 110.3L19 86.8l120 63.9-12.5 23.4z"/><path fill="#02323b" fill-opacity=".5" d="M140.7 229.9l-201.3-89.6 15.2-34.3L156 195.6z"/><path fill="#ffffe9" fill-opacity=".5" d="M53 32l260.7 169.3-12 18.3L41 50.3z"/><path fill="#7a5c51" fill-opacity=".5" d="M265 109l126-51 39.3 97.1-126 51z"/><path fill="#00343e" fill-opacity=".5" d="M67.2 35.9L77.4 20l166.4 108.1-10.2 15.7z"/><path fill="#fff" fill-opacity=".5" d="M113.6 74l-7.4 11.9L-62.1-19.3l7.5-11.9z"/><path fill="#ffffe8" fill-opacity=".5" d="M227.8 95l-9.2 12.6L58.1-9l9.2-12.7z"/><path fill="#fff" fill-opacity=".5" d="M-9.8 169l95.6 38.7-8.8 21.7-95.6-38.6z"/><path fill="#05211f" fill-opacity=".5" d="M122.3 15.1l5.4-7.6 148.4 104-5.3 7.6z"/><path fill="#f4f3f3" fill-opacity=".5" d="M272.8 99.2l-170-132.7 13.5-17.3L286.3 82z"/><path fill="#0f0800" fill-opacity=".5" d="M323.6 196.6L318 182l78.7-30.2 5.6 14.6z"/><path fill="#5b4d4a" fill-opacity=".5" d="M268.8 146L136 205.1l-9.5-21.4 132.8-59.1z"/><path fill="#fffdf6" fill-opacity=".5" d="M265.1 202.4l-34.3-1.8 2.5-48.3 34.4 1.8z"/><path fill="#fff8ef" fill-opacity=".5" d="M-24.2 100.5l12-25.5 116 54.2L92 154.7z"/><path fill="#844e21" fill-opacity=".5" d="M107.1 26.7L87 52.5 47.5 21.8 67.7-4.1z"/><path fill="#76bfe3" fill-opacity=".5" d="M430.9-47.8l29 57-176.7 90.2L254 42.3z"/><path fill="#fff" fill-opacity=".5" d="M437 160.5l2.2 6-127.8 46.4-2.1-5.9zm-163.3-32.8l-4.4 6.5-57-38.5 4.4-6.4z"/></svg>