<svg xmlns="http://www.w3.org/2000/svg" viewBox="0 0 400 200"><path fill="#cecec9" d="M0 0h400v200H0z"/><g transform="translate(.8 .8) scale(1.5625)" fill-opacity=".5"><ellipse cx="224" cy="119" rx="77" ry="16"/><path d="M48.1 110.6l.8 21-53 1.8-.8-21z"/><ellipse fill="#fff" rx="1" ry="1" transform="rotate(-145.7 106.5 -17.2) scale(100.66414 56.93161)"/><ellipse fill="#fff" cx="19" cy="37" rx="61" ry="61"/><ellipse fill="#90795d" rx="1" ry="1" transform="rotate(-114.6 74.4 -4.6) scale(29.27034 39.93366)"/><path d="M272.7 146.7l-102 3.6-1.4-43 102-3.6z"/><ellipse fill="#fff" rx="1" ry="1" transform="matrix(-71.12707 17.99536 -6.14141 -24.27408 63.6 23.8)"/><path d="M0 114h48v14H0z"/><path fill="#614315" d="M110 102L66 58l15-12z"/><ellipse fill="#b69767" cx="157" cy="115" rx="12" ry="32"/><ellipse fill="#f6fcfe" cx="192" cy="44" rx="49" ry="49"/><path fill="#fff" d="M90 60l19 7 1-26z"/><path fill="#edf4f6" d="M27 111l65-9L31-16z"/><path fill="#795b44" d="M124.4 35.8L95 117.3l23.5-93.6 9.1 9.7z"/><ellipse fill="#160e00" rx="1" ry="1" transform="matrix(53.36274 -2.4503 .73009 15.89984 223.7 124.3)"/></g></svg>