<svg xmlns="http://www.w3.org/2000/svg" viewBox="0 0 400 200"><path fill="#cecec9" d="M0 0h400v200H0z"/><g stroke-opacity=".5" fill="none" stroke-width=".8"><path stroke="#000" d="M-24.2 194.6q331.4 19.4 448.4-17.5m-189.7 1.1q156 46 169.6-16.5"/><path stroke="#090100" d="M-24.2 172.6q97.7 51.6 448.4 1.9"/><path stroke="#000" d="M227 177.5q96-15.7 197.2 33.3m-191.9-18.4q160.4-44 166.3 9.2"/><path stroke="#160a00" d="M112.4 106q261.1 107.8 287.3 92.2"/><path stroke="#190500" d="M402.6 168.3q-185.8 56-290.3-84"/><path stroke="#040000" d="M424.2 159.5q-87.8 59.1-422.9 34.1"/><path stroke="#190a00" d="M109.6 99.8Q309.7 224.2 424.2 184"/><path stroke="#1c1501" d="M424.2 140.2q0 57.4-435.4 49.5"/><path stroke="#130e00" d="M424.2 198.6Q-3.5 154-24.2 224.2"/><path stroke="#000" d="M-24.2 167.5q2.3 54.4 434.7 25.3m13.7-28.2Q318.5 196.8 229.6 199"/><path stroke="#080000" d="M207.7 92.1q-1.5 112 212.2 89.3"/><path stroke="#000" d="M239.7 169q149.4 55.2 160 14"/><path stroke="#241e0c" d="M-24.2 157q29.8 58.5 417.5 11.8"/><path stroke="#000" d="M232.6 164.8q58.4 59.4 191.6 20.3m-179.8-5q125.2-20.2 179.8.5m-12.9-15.8Q171.8 222.6-24.2 191m267.9-23.6q168 55.5 180.5-35.4m-198.9 38.7q134.4-.3 182.7 22.6"/><path stroke="#1d1805" d="M-11.8 186.4q333.8-25.5 436 13"/><path stroke="#000" d="M234.8 172.8q34.7 51.4 189.4 4.8"/><path stroke="#251500" d="M424.2 193q-201.7 31.2-306.5-98.6"/><path stroke="#292514" d="M424.2 185.5Q163 141.8-14 201.8"/></g></svg>