<svg xmlns="http://www.w3.org/2000/svg" viewBox="0 0 400 200"><path fill="#cecec9" d="M0 0h400v200H0z"/><path fill-opacity=".5" d="M417.4 163.3l1.2 68.7-181.3 3.2-1.2-68.8zM76.8 174.2l1 28.1-90.6 3.2-1-28.1z"/><path fill="#fff" fill-opacity=".5" d="M436.6 106.7l-174.8 63.6-59.3-163 174.7-63.6z"/><path fill-opacity=".5" d="M402 166.4l2.1 60.9-135.8 4.7-2.1-60.9z"/><path fill="#fff" fill-opacity=".5" d="M228.7-10.1L14.5 169.7-71 67.9l214.2-179.8z"/><path fill="#8d7659" fill-opacity=".5" d="M237.8 121.5l-87 46.2-43.2-81.4 86.9-46.2z"/><path fill-opacity=".5" d="M2.2 221.3l-2.7-39 74.8-5.2 2.8 39z"/><path fill="#543204" fill-opacity=".5" d="M120.8 77.8l37.6 41.8-15.1 13.6-37.6-41.8z"/><path fill="#bfa171" fill-opacity=".5" d="M227.7 136l32.7-2.9 7.2 82.5-32.7 2.9z"/><path fill="#f5fcff" fill-opacity=".5" d="M34.7 172.3L27.9 42.8l79.6-4.2 6.8 129.5z"/><path fill="#feffff" fill-opacity=".5" d="M-32.4-5.8l398.4 7-.8 46.8-398.4-7z"/><path fill="#fff" fill-opacity=".5" d="M181 80l-24.2 28.7-14.3-12 24-28.8z"/><path fill="#170e00" fill-opacity=".5" d="M398.9 200l-132.7 4.7-1-28.2 132.7-4.6z"/><path fill="#c1c0b9" fill-opacity=".5" d="M246.3 74.7l-45.9 119.6-45.2-17.4 46-119.6z"/><path fill="#673c11" fill-opacity=".5" d="M191.4 44.6l4 6.7L144.5 82l-4-6.7z"/><path fill="#f1f8f8" fill-opacity=".5" d="M225.7 116L256 3l191.7 51.3-30.3 113.2z"/><path fill="#7a5b45" fill-opacity=".5" d="M201.4 46L156 164l-5.8-2.2 45.3-118.2z"/><path fill="#86583f" fill-opacity=".5" d="M217.2 55l5.9 2.1-16.8 48.8-6-2z"/><path fill="#806e5c" fill-opacity=".5" d="M197.5 232.9L226 71.3l3 .5-28.4 161.6z"/><path fill="#dce2dc" fill-opacity=".5" d="M83 181l34.8-62.9 38.3 21.2-34.9 62.9z"/><path fill="#784200" fill-opacity=".5" d="M145.9 61.4l.4-6.3 9.4.7-.5 6.2z"/><path fill="#f8fafb" fill-opacity=".5" d="M140 26l41-28.7 24.2 34.5-41 28.7z"/><path fill="#d6cbac" fill-opacity=".5" d="M150.8 59.3l5.3 11.3-39.7 18.5-5.3-11.3z"/><path fill="#c8cbc4" fill-opacity=".5" d="M174.9 199.2l-29-15.4 43.3-81.4 29 15.4z"/><path fill="#573d2a" fill-opacity=".5" d="M199.6 131.6l-3-1L208.2 95l3 1z"/><path fill="#9e8767" fill-opacity=".5" d="M255.2 214l-26.6-9.1 17.8-51.7 26.6 9.1z"/><path fill="#1d1900" fill-opacity=".5" d="M73.2 184.3l.5 28.1-98.4 1.7-.5-28z"/><path fill="#e3e9e0" fill-opacity=".5" d="M174.2 110.1l-29.7 1.6L143 82l29.6-1.5z"/><path fill="#f3f7f9" fill-opacity=".5" d="M-94.3 53.3l248.4-132 54.2 102-248.3 132z"/><path fill="#98a09b" fill-opacity=".5" d="M74.6 206.6l4-32.5 17 2-4 32.6z"/><path fill="#f2f4f5" fill-opacity=".5" d="M259 139L209.9 37.9l167-81.6 49.4 101.2z"/><path fill="#694d28" fill-opacity=".5" d="M122.3 114l-11-22.4 21.1-10.3 11 22.5z"/><path fill="#e4e5e2" fill-opacity=".5" d="M183.6 141.9l23.6-121.2 7.6 1.5-23.5 121.2z"/><path fill="#231f08" fill-opacity=".5" d="M345.1 207.2l-14.4-26L369 160l14.4 26z"/><path fill="#6a5b46" fill-opacity=".5" d="M153 156.2l-4-2.4 37-61.6 4 2.4z"/><path fill="#794836" fill-opacity=".5" d="M193.7 39.8l5.3 3.4L182.8 68l-5.2-3.4z"/><path fill="#dbe3e1" fill-opacity=".5" d="M426.3 154.2l-167 8.7-2.8-53 167-8.8z"/><path fill="#3d2b1c" fill-opacity=".5" d="M217 129.8l1.4.4-5.6 22.8-1.5-.4z"/><path fill="#9e9087" fill-opacity=".5" d="M169 109.9l7.7-40 15.3 3-7.7 40z"/><path fill="#5e4a2b" fill-opacity=".5" d="M151.2 110.2l8 4.8-12 20.1-8-4.8z"/><path fill="#b2a48c" fill-opacity=".5" d="M133.2 100.2l8.7-9 20.2 19.5-8.7 9z"/><path fill="#fff" fill-opacity=".5" d="M179.1 72l-7.4 2.5-2.4-7.5 7.4-2.4z"/><path fill="#cdc8b5" fill-opacity=".5" d="M227.8 144.6l-7.3-22.3 28.3-9.1 7.2 22.3z"/><path fill="#8f9898" fill-opacity=".5" d="M314.5 157.8l1.1 4.6-37.9 9.4-1.1-4.5z"/><path fill="#ccccc2" fill-opacity=".5" d="M166.2 148.8l46.8 2.5-2.7 51.5-46.8-2.5z"/><path fill="#ad9587" fill-opacity=".5" d="M224.2 58.6v28.1h-15.6V58.6z"/><path fill="#917e6a" fill-opacity=".5" d="M197.5 152.3l-3-.3 6.4-52.8 3.1.4z"/><path fill="#37301b" fill-opacity=".5" d="M264 169l23.3-.5.3 17.2-23.4.4z"/><path fill="#919ca3" fill-opacity=".5" d="M84.4 174.1l-139 4.9v-1.6l139-4.8z"/><path fill="#d2c9ae" fill-opacity=".5" d="M257.3 151.3l1.5-.3 10.5 74.3-1.6.2z"/><path fill="#eef6f4" fill-opacity=".5" d="M159 105.6l-8.4-4.3 17-33.4L176 72z"/><path fill="#5e3700" fill-opacity=".5" d="M167 66.9l-1 1.1-12.8-11.5 1-1.1z"/><path fill="#a29177" fill-opacity=".5" d="M212.8 232.3l37.8-89.2 10 4.3-37.8 89.2z"/><path fill="#c4bfad" fill-opacity=".5" d="M151.1 111.1l-29.5 17.7-2.4-4 29.5-17.7z"/><path fill="#431300" fill-opacity=".5" d="M192.5 45.2l-23 18.7-1-1.3 23-18.6z"/><path fill="#e9eeee" fill-opacity=".5" d="M25.6 172.8l-38.1-61 72.9-45.5 38 61z"/><path fill="#414137" fill-opacity=".5" d="M78 178l-126.3 6.6V183L78 176.4z"/><path fill="#96a29e" fill-opacity=".5" d="M468.8 164v1.5l-167.2-2.9V161z"/><path fill="#c6cac4" fill-opacity=".5" d="M161 177.2l-1.5-.4 18.5-74.3 1.6.4z"/><path fill="#b39a6b" fill-opacity=".5" d="M154 145.9l6 1.7-9.4 33-6-1.7z"/><path fill="#e2e6e0" fill-opacity=".5" d="M127 64.3l1-1.1 37.2 33.4-1 1.2z"/><path fill="#d0c1b7" fill-opacity=".5" d="M183.5 85.2l14-31.4 14.3 6.3-14 31.4z"/><path fill="#2a1703" fill-opacity=".5" d="M167.6 127l1.3.8-6.8 12.3-1.3-.7z"/><path fill="#a79c7d" fill-opacity=".5" d="M231.1 173.4l-3-.5 8-51 3 .5z"/><path fill="#d7e1e1" fill-opacity=".5" d="M220 153l.6-36 11 .3-.7 36z"/><path fill="#f3f5f6" fill-opacity=".5" d="M149.1 28.5l25-72.3L277.4-8.2l-25 72.4z"/><path fill="#a5aea7" fill-opacity=".5" d="M290.6 165.6v-1.5h64v1.5z"/><path fill="#372100" fill-opacity=".5" d="M186.3 60l-23.6 8-.6-1.4 23.7-8.1z"/><path fill="#312b17" fill-opacity=".5" d="M332 181.3h-43.7v-14.1H332z"/><path fill="#1a1706" fill-opacity=".5" d="M269.7 223.2l-2.7-31.1 193-16.9 2.7 31.1z"/><path fill="#5d4426" fill-opacity=".5" d="M150 134.2l-34.2-34.3 4.4-4.4 34.3 34.3z"/><path fill="#837258" fill-opacity=".5" d="M158.4 68.4l3.2 3.4L137 95.7l-3.2-3.4z"/><path fill="#c0ae8f" fill-opacity=".5" d="M147.4 76.6l.5 9.4-28.1 1.4-.5-9.3z"/><path fill="#58452f" fill-opacity=".5" d="M180.2 97.3l-19.8 54.3-1.5-.5 19.8-54.3z"/><path fill="#c7d1cf" fill-opacity=".5" d="M275 169.3l-4.1-13.5 46.3-14.1 4.1 13.4z"/></svg>