<svg xmlns="http://www.w3.org/2000/svg" viewBox="0 0 400 200"><path fill="#cecec9" d="M0 0h400v200H0z"/><path fill-opacity=".5" d="M404.2 162l2.4 68.6-168.6 6-2.4-68.8zM-5 178l81-4.3 2.5 46.8-81.1 4.3z"/><path fill="#fff" fill-opacity=".5" d="M195.9 7l172.7-84.3 80.8 165.7-172.7 84.2zM-63.4 85.8l168-168 91.6 91.7-168 168z"/><path fill-opacity=".5" d="M426.3 217l-157.6 8.2-2.8-53 157.6-8.3z"/><path fill="#876c4e" fill-opacity=".5" d="M143.6 152.4L108 88.2l87.5-48.5L231 104z"/><path fill-opacity=".5" d="M2.3 222.1l-2.8-40.5 74.8-5.3L77 217z"/><path fill="#4f2f03" fill-opacity=".5" d="M147.7 135.9l-39.8-44.1 11.6-10.5 39.8 44.1z"/><path fill="#fff" fill-opacity=".5" d="M168.8 67l15.1 13.6-26.1 29L142.7 96z"/><path fill="#b9a990" fill-opacity=".5" d="M218.8 57.7l50.8 139.5-33.8 12.3L185.1 70z"/><path fill="#fff" fill-opacity=".5" d="M329.3 36.7L3 53.8.4 2.3l326.2-17z"/><path fill="#ebf3f3" fill-opacity=".5" d="M46.4 89.4L155 137.7l-24.8 55.7L21.6 145z"/><path fill="#6e5137" fill-opacity=".5" d="M192 46.9l4.5 1.5-46.3 134.4-4.5-1.5z"/><path fill="#f3f9fb" fill-opacity=".5" d="M224 114l36.8-137.3 191.7 51.4-36.8 137.3z"/><path fill="#1a1200" fill-opacity=".5" d="M433.6 229.7H264.8v-61h168.8z"/><path fill="#e4ecee" fill-opacity=".5" d="M179.3 135l29.2-95.7 7.5 2.3-29.2 95.6z"/><path fill="#562200" fill-opacity=".5" d="M158 65.7l34.7-21 4 6.8L162 72.4z"/><path fill="#604c3d" fill-opacity=".5" d="M209.8 168.5l18-92 1.4.3-17.8 92z"/><path fill="#f4f9fc" fill-opacity=".5" d="M89 145.4L-33.8 103 12.6-31.3l122.6 42.2z"/><path fill="#af9165" fill-opacity=".5" d="M258.1 140.9l8.5 60.3-23.2 3.3L235 144z"/><path fill="#856c5b" fill-opacity=".5" d="M192.8 163.4l-3-.8 28.3-105.7 3 .8z"/><path fill="#8c6b0e" fill-opacity=".5" d="M144.2 59.3l3.6-6.9L170 64.1l-3.7 7z"/><path fill="#fff" fill-opacity=".5" d="M184.8 43.7l-21.3 18.5-9.2-10.6L175.5 33z"/><path fill="#c6c8be" fill-opacity=".5" d="M80.6 179.3l161.6-28.5 3.8 21.5-161.6 28.5z"/><path fill="#e5ece6" fill-opacity=".5" d="M179.7 69.3l-33.2 47.4-9-6.3L170.7 63z"/><path fill="#624621" fill-opacity=".5" d="M147.3 105.7L126 118.9 113.7 99l21.2-13.2z"/><path fill="#61441a" fill-opacity=".5" d="M149.1 159.5l17.8-38.2 4.3 2-17.8 38.2z"/><path fill="#1d1800" fill-opacity=".5" d="M-20 216.7l-3-23.3 94.7-11.6 2.8 23.2z"/><path fill="#957e5e" fill-opacity=".5" d="M259.9 162.3l-17.7 48.5-16.1-6 17.6-48.4z"/><path fill="#402f23" fill-opacity=".5" d="M217.2 123.6l1.5.3-6.2 29-1.5-.3z"/><path fill="#cecbbf" fill-opacity=".5" d="M153.5 142l-5.5-3 25-45.1 5.5 3z"/><path fill="#dae3e0" fill-opacity=".5" d="M437.3 99.2l4.4 49.8L261 164.8l-4.3-49.8z"/><path fill="#9eaaa6" fill-opacity=".5" d="M423.5 164.2L256.3 167v-4.7l167-3z"/><path fill="#c0c7c6" fill-opacity=".5" d="M178.4 149.7l-12.3-6.8 22.7-41 12.3 6.8z"/><path fill="#ccbd9a" fill-opacity=".5" d="M153.6 60l3.5 7.1-43.6 21.2-3.4-7z"/><path fill="#d9e4e3" fill-opacity=".5" d="M227.9 173.8l-11-1.1 6.8-63.7 10.9 1.1z"/><path fill="#1f1c0a" fill-opacity=".5" d="M397.9 188.5l-56 52.3-28.8-30.9 56-52.2z"/><path fill="#4c3013" fill-opacity=".5" d="M163.1 68.6l-.5-1.5 32-12.3.6 1.5z"/><path fill="#f4f8fa" fill-opacity=".5" d="M110.6 70.7L86.6 8l135.6-52.1 24 62.7z"/><path fill="#848f97" fill-opacity=".5" d="M-41.4 178.2l121.7-6.4.1 1.6-121.7 6.4z"/><path fill="#c7d1d1" fill-opacity=".5" d="M222.7 91.8l-12.9 51.5-9-2.3 12.8-51.5z"/><path fill="#98a09e" fill-opacity=".5" d="M76.3 174.5l13.7-3 7.2 33.7-13.8 3z"/><path fill="#614737" fill-opacity=".5" d="M207 92.6l5.8 2.6-9 20-5.6-2.6z"/><path fill="#9d8b82" fill-opacity=".5" d="M169.1 99l19-44.5 10 4.2-19 44.6z"/><path fill="#cecec1" fill-opacity=".5" d="M134.4 115.6v42.2h-17.2v-42.2z"/><path fill="#150000" fill-opacity=".5" d="M192.4 45L182 54.6l-1-1.2 10.2-9.5z"/><path fill="#e3e9eb" fill-opacity=".5" d="M-30.6 164l3.7-53 112.2 7.8-3.7 53z"/><path fill="#af978e" fill-opacity=".5" d="M210.2 51.1l15.3 3-6 30.7-15.3-3z"/><path fill="#cfbf9e" fill-opacity=".5" d="M259.4 152.4l7.8 55.7-3.1.4-7.8-55.7z"/><path fill="#745730" fill-opacity=".5" d="M153.7 78.2l-4-4.9L173 54.6l3.9 4.9z"/><path fill="#f2f4f5" fill-opacity=".5" d="M368.8 26.1l-84.2 90.3L170.3 9.8l84.2-90.3z"/><path fill="#7b7d7a" fill-opacity=".5" d="M301 160l11.4-5.1 3.8 8.6-11.4 5z"/><path fill="#ecf5f2" fill-opacity=".5" d="M168 107.4l-14-.8 1.4-28 14 .7z"/><path fill="#c2c2ba" fill-opacity=".5" d="M195.4 175.7l-26.5-1.4 2.9-54.6 26.5 1.3z"/><path fill="#242312" fill-opacity=".5" d="M77 174.2l3 1-5.4 14.7-3-1z"/><path fill="#dadbcf" fill-opacity=".5" d="M132.5 64.9l9-2.5 5.7 21.2-9 2.4z"/><path fill="#9e8d5f" fill-opacity=".5" d="M229.1 165.1l7.5-38.3 1.5.3-7.5 38.3z"/><path fill="#c6cfcd" fill-opacity=".5" d="M280.2 152.7l32.3-15.8 8.9 18.3-32.3 15.7z"/><path fill="#4a4b43" fill-opacity=".5" d="M362.4 171.9l-89-3.1v-1.6l89.1 3.1z"/><path fill="#644f2f" fill-opacity=".5" d="M139.8 130.3l13.8-19 5 3.7-13.7 19z"/><path fill="#af9669" fill-opacity=".5" d="M151.7 140.8l9.3 1.6-5 27.7-9.2-1.6z"/><path fill="#714000" fill-opacity=".5" d="M147.6 56.4l.5-1.5 9 2.8-.5 1.4z"/><path fill="#4e4c4f" fill-opacity=".5" d="M188.7 92.8l-7.3 17.2-3-1.2 7.4-17.3z"/><path fill="#d4d0be" fill-opacity=".5" d="M243 118.3l9.3 2-9.5 44.2-9.1-2z"/><path fill="#82653e" fill-opacity=".5" d="M141.7 84l.5 3-35.5 5.6-.5-3z"/><path fill="#9d908a" fill-opacity=".5" d="M223 113.4l-5.3-49.7 4.7-.5 5.2 49.7z"/><path fill="#b1bbb9" fill-opacity=".5" d="M386.2 156.5l11.1 8.6-3.8 5-11.1-8.7z"/><path fill="#975c4c" fill-opacity=".5" d="M185 61.8l-4-4.8 16.8-14 4 4.7z"/><path fill="#e9dcd4" fill-opacity=".5" d="M199.7 53.8L208 65l-6.2 4.7-8.5-11.2z"/><path fill="#a39179" fill-opacity=".5" d="M146.2 95.6l4.2 19.9-13.8 3-4.2-20z"/><path fill="#dfe7e6" fill-opacity=".5" d="M338.3 135.3l20 3.2-4.4 27.8-20-3.2z"/><path fill="#f1f4f3" fill-opacity=".5" d="M235.1 112.5L220 4.2l196.5-27.6 15.2 108.3z"/><path fill="#5c5f5d" fill-opacity=".5" d="M-10 182.7l-.3-6.2 40.6-1.4.3 6.2z"/><path fill="#e9eeec" fill-opacity=".5" d="M119.8 118.8l-39.6 22-23.5-42.4 39.7-22z"/><path fill="#1b1503" fill-opacity=".5" d="M270.5 217.5l-4.2-26.3 64.8-10.2 4.2 26.2z"/><path fill="#c8cdc8" fill-opacity=".5" d="M75.2 237.4l-4.6-.7 12-75.7 4.6.8z"/><path fill="#cdccc3" fill-opacity=".5" d="M166.4 145l66.3 35.2-25.7 48.3-66.2-35.2z"/><path fill="#e9ebea" fill-opacity=".5" d="M133.2 60l26 5-.2 1.6-26-5z"/><path fill="#523c28" fill-opacity=".5" d="M170.1 114.8l1.5.5-12 37.1-1.5-.5z"/><path fill="#ccbbaf" fill-opacity=".5" d="M229.4 73.5l.5 7.8-42 3-.6-7.8z"/><path fill="#d8dbd6" fill-opacity=".5" d="M111.1 132l38 9.4-24.3 97-37.9-9.5z"/><path fill="#f1f3f4" fill-opacity=".5" d="M48.3-11l89.3 51.5-34.4 59.6L14 48.5z"/><path fill="#a9987e" fill-opacity=".5" d="M257.5 140.4l-21.7 66.9-7.4-2.4L250 138z"/><path fill="#8c7566" fill-opacity=".5" d="M176.6 87.5l-5.3-3.3 22.4-35.8 5.3 3.3z"/><path fill="#ada58f" fill-opacity=".5" d="M212.5 150.7l3 .7-17 68.2-3-.7z"/><path fill="#faffff" fill-opacity=".5" d="M180.3 63.3l1.6 2.7-10.6 6.6-1.6-2.6z"/><path fill="#505146" fill-opacity=".5" d="M64.7 177l.1 1.6L-10 184l-.1-1.6z"/><path fill="#755c48" fill-opacity=".5" d="M250 184l3 29.6-7.7.8-3-29.5z"/><path fill="#8d7d51" fill-opacity=".5" d="M119 106.7l-12.6-14 1.2-1 12.5 14z"/><path fill="#3c341f" fill-opacity=".5" d="M266.4 173.3l32.7-2.8 1.7 20.2-32.7 2.9z"/><path fill="#83685b" fill-opacity=".5" d="M208.6 67.7l9.7-5 2.8 5.6-9.7 5z"/><path fill="#b0bbbd" fill-opacity=".5" d="M60.7 176.3l-54.4-5.7.2-1.6 54.4 5.7z"/><path fill="#736347" fill-opacity=".5" d="M158.6 75.8l-9.4 5.4-3.2-5.4 9.5-5.5z"/><path fill="#5d4621" fill-opacity=".5" d="M112.9 84.8l9.9 21.3-2.9 1.3L110 86z"/><path fill="#b89b6f" fill-opacity=".5" d="M118.4 80.5l10.6-6.7 4.2 6.7-10.6 6.6z"/><path fill="#998667" fill-opacity=".5" d="M159.5 75.5L149 72.6l2.4-9 10.6 2.8z"/><path fill="#e0e5e4" fill-opacity=".5" d="M13.6 133.5l103.1 1.8-.6 36-103.1-2z"/><path fill="#513410" fill-opacity=".5" d="M186.4 64.6l-13.3-4.4 1.4-4.4L188 60z"/><path fill="#753c16" fill-opacity=".5" d="M172.9 62l-1.1-1.2 19.4-18 1 1z"/><path fill="#8d9492" fill-opacity=".5" d="M300 163.4v4.7l-39 1.3-.1-4.7z"/><path fill="#9aa29f" fill-opacity=".5" d="M6 174.2l10-19.5 1.4.8-10 19.4z"/><path fill="#988978" fill-opacity=".5" d="M194.5 147.3l7.9-55.7 1.5.2-7.8 55.7z"/><path fill="#7d5f3c" fill-opacity=".5" d="M137.8 112l-18.1-19.3 3.4-3.2 18.1 19.4z"/><path fill="#ccccc5" fill-opacity=".5" d="M196 138.7l-10.9-1.3 8-65.2 10.9 1.4z"/><path fill="#78685b" fill-opacity=".5" d="M241.6 178.3l7.5-30.4 1.5.4-7.5 30.3z"/><path fill="#ab9a77" fill-opacity=".5" d="M235.9 115l-3 43.6-1.6-.1 3-43.7z"/><path fill="#6f6250" fill-opacity=".5" d="M221.2 111.4l-8 50.9-1.6-.2 8-51z"/><path fill="#a9ada9" fill-opacity=".5" d="M107.2 172.6l1.6.1-2 28.1-1.5-.1z"/><path fill="#d2d6cf" fill-opacity=".5" d="M211.7 200.9l6.4-73.2 12.4 1.1-6.4 73.2z"/><path fill="#977c52" fill-opacity=".5" d="M155.6 121.9l-3-1 5.9-16.2 3 1z"/><path fill="#b4aaa0" fill-opacity=".5" d="M165.7 143.6l28-86.2 1.5.5-28 86.2z"/><path fill="#a6b0b1" fill-opacity=".5" d="M359.5 157.7l2.2-5.8 11.7 4.5-2.3 5.8z"/><path fill="#f2f8f4" fill-opacity=".5" d="M177 69.7l-24.3 22-3.2-3.6 24.4-22z"/><path fill="#2f2918" fill-opacity=".5" d="M323.4 187.5l-1.2-14 71.6-6.3 1.2 14z"/><path fill="#eff3f3" fill-opacity=".5" d="M36.5-25.6l38 141.8-87.5 23.5L-51-2.2z"/><path fill="#817a6a" fill-opacity=".5" d="M157 157.5l26.7-54.8 1.5.7-26.8 54.8z"/><path fill-opacity=".5" d="M184.6 48l1.1-1 3.2 3.4-1.2 1z"/><path fill="#b9bbb6" fill-opacity=".5" d="M228.6 68.2L218 97.5l-4.5-1.6 10.7-29.4z"/><path fill="#d8af8c" fill-opacity=".5" d="M176.4 53.7l-9.7 7.9-1-1.2 9.8-8z"/><path fill="#91715e" fill-opacity=".5" d="M208.7 83.6l-8.1 28.5-1.5-.4 8.1-28.5z"/><path fill="#a5875e" fill-opacity=".5" d="M246.9 155.5h11v43.7h-11z"/><path fill="#cdcec7" fill-opacity=".5" d="M143 129v46.8h-12.5v-46.9z"/><path fill="#d6c9bf" fill-opacity=".5" d="M207.9 68.4l-12.1-3 4.1-16.7 12.1 3z"/><path fill="#8a5d00" fill-opacity=".5" d="M155.6 57.7l-.4 3-9.3-1.2.5-3.1z"/><path fill="#97835f" fill-opacity=".5" d="M147.5 136.6l-32-29.9 1-1.1 32 29.8z"/><path fill="#d3dcd9" fill-opacity=".5" d="M401.3 163l-41.5-7.4 3-17 41.5 7.4z"/><path fill="#7a6d68" fill-opacity=".5" d="M213.3 53.9l1.3-.8 8 13.4-1.3.8z"/><path fill="#f3f5f7" fill-opacity=".5" d="M257.9 19.9l-22.7 42.8-76-40.4L182-20.5z"/><path fill="#c7b598" fill-opacity=".5" d="M250.2 151.6l-4.9-21.4 9.2-2 4.9 21.2z"/><path fill="#ac9d90" fill-opacity=".5" d="M191.5 47.5l1.4.6-20.3 59-1.5-.5z"/><path fill="#e29981" fill-opacity=".5" d="M199.2 44.7l-12.5-.4v-3.1l12.6.4z"/><path fill="#dbdacf" fill-opacity=".5" d="M235.7 116l3.1-.4L244 148l-3.1.5z"/><path fill="#bfc1ba" fill-opacity=".5" d="M178.7 171.8l-14-1.7 5-40.3 14 1.7z"/><path fill="#684924" fill-opacity=".5" d="M115.5 90.2l20.3-.7.2 6.2-20.3.7z"/><path fill="#ad805c" fill-opacity=".5" d="M174.9 51.6l15.3 3.2-1 4.6-15.3-3.3z"/><path fill="#ecf0ee" fill-opacity=".5" d="M326.2 116l-69 25-22.5-61.6 69-25.1z"/><path fill="#e2e7e0" fill-opacity=".5" d="M153.4 82.8l19.5 5.6-6 21-19.5-5.6z"/><path fill="#dde6e4" fill-opacity=".5" d="M293.8 162.5h-32.9v-32.8h32.9z"/><path fill="#6b3c2d" fill-opacity=".5" d="M198.4 50.3l-13.1 8.5-.9-1.3 13.1-8.5z"/><path fill="#363326" fill-opacity=".5" d="M343.6 179.8l-37-6.6 1.4-7.6 37 6.5z"/><path fill="#8e948d" fill-opacity=".5" d="M333.7 170.2l-.6-1.4 16-6.2.6 1.5z"/><path fill="#473b2e" fill-opacity=".5" d="M163.3 144.4l-1.5-.5 23.4-68 1.5.5z"/><path fill="#141407" fill-opacity=".5" d="M342.7 194.4L405 190l.8 11-62.4 4.3z"/><path fill="#c6b895" fill-opacity=".5" d="M118.7 87.3l-4.4-4.4 15.4-15.5 4.5 4.4z"/><path fill="#8b918e" fill-opacity=".5" d="M373.4 163.6l-8.8-8.9 1-1 8.9 8.8z"/><path fill="#d8dbd2" fill-opacity=".5" d="M166.4 170.3l-19.8 37.2-8.3-4.4 19.8-37.2z"/><path fill="#505049" fill-opacity=".5" d="M413.3 166.8l-27.6 5.4-.6-3 27.6-5.4z"/><path fill="#b5a7a0" fill-opacity=".5" d="M213.3 130.8l-1.5-.5 17.1-47 1.5.5z"/><path fill="#c3c0b6" fill-opacity=".5" d="M198.6 221l-1.6-.3 24.7-140 1.6.2z"/><path fill="#563d1e" fill-opacity=".5" d="M112.2 96l4.5-4.4 19.5 20.3-4.5 4.3z"/><path fill="#b1b7b2" fill-opacity=".5" d="M76.2 201.4l-1.3-.9L94.1 172l1.3 1z"/><path fill="#97847c" fill-opacity=".5" d="M220.9 95.7l5.2-24.5 1.5.3-5.2 24.5z"/><path fill="#717875" fill-opacity=".5" d="M3.1 161l-3.4 5.3-1.3-.8 3.4-5.3z"/><path fill="#bda69a" fill-opacity=".5" d="M192 88.7l-8.5-4 7.3-15.6 8.5 4z"/><path fill="#d6dddb" fill-opacity=".5" d="M47.2 168l-2.2 7.5-37.5-10.7 2.1-7.5z"/><path fill="#f1f3f4" fill-opacity=".5" d="M22.3 102.1L-1.2 40.8l164.8-63.2 23.5 61.2z"/><path fill="#f1f3f3" fill-opacity=".5" d="M439.5 51.6L221 59.3l-2.6-75L437-23.3z"/><path fill="#e6eae8" fill-opacity=".5" d="M411.8 99l2.7 39-118.5 8.3-2.7-39z"/><path fill="#d8d9d4" fill-opacity=".5" d="M231.8 175l-11 36-10.4-3.3 11-35.8z"/><path fill="#c8a88d" fill-opacity=".5" d="M182.8 54.8l.6-1.5 7.2 2.8-.5 1.5z"/><path fill="#c4bda2" fill-opacity=".5" d="M110.4 83.8l1.5.5-5.1 14.7-1.5-.5z"/><path fill="#6b5d56" fill-opacity=".5" d="M183.3 87l1.6-.3 2 9.1-1.5.3z"/><path fill="#b4a79a" fill-opacity=".5" d="M225.7 60.7l-20.3 55.7-1.4-.5 20.3-55.8z"/><path fill="#e4d3c6" fill-opacity=".5" d="M216.5 63.7l-1 1.3-14.8-11.6 1-1.2z"/><path fill="#b5ab98" fill-opacity=".5" d="M148.2 149l32-62.7 1.3.7-32 62.6z"/><path fill="#b4b099" fill-opacity=".5" d="M204 265.6l-1.4-.6 48-132.1 1.5.5z"/><path fill="#4c4d49" fill-opacity=".5" d="M-.6 183l-.1-1.5 77.8-6.8.2 1.6z"/><path fill="#94806f" fill-opacity=".5" d="M225.5 91l-4.1 26.1-1.6-.2 4.2-26.2z"/><path fill="#cfcfc4" fill-opacity=".5" d="M120.6 118.1l9.4-.3 1 28.1-9.4.3z"/><path fill="#5c421f" fill-opacity=".5" d="M138.6 126.7l1-9.3 10.9 1.2-1 9.3z"/><path fill="#302a16" fill-opacity=".5" d="M342 165.1l7.5 2.3-8.7 28.4-7.5-2.3z"/><path fill="#553d2a" fill-opacity=".5" d="M205.6 99.2l1.5.3-1.8 9.2-1.5-.3z"/><path fill="#bdbab3" fill-opacity=".5" d="M196.7 77l-16.9 79.5-3-.7 16.8-79.5z"/><path fill="#b9b8a5" fill-opacity=".5" d="M139.4 99l9-12.9 1.3 1-9 12.7z"/><path fill="#3b3628" fill-opacity=".5" d="M55.4 199.8l-15.6-21.5 6.3-4.6 15.6 21.5z"/><path fill="#e7e4d9" fill-opacity=".5" d="M155 82.5l-1-1.2L171.5 66l1 1.2z"/><path fill="#a6885a" fill-opacity=".5" d="M153.8 159l-4.1-6.7 10.6-6.6 4.1 6.6z"/><path fill="#604019" fill-opacity=".5" d="M175.9 56l2.7 3.8-15.4 10.8-2.7-3.9z"/><path fill="#99866b" fill-opacity=".5" d="M144.5 100.2l-15.3 2.7-.3-1.5 15.4-2.7z"/><path fill="#c9cac2" fill-opacity=".5" d="M185.5 172.7L159 163l10.1-27.9 26.4 9.7z"/><path fill="#846400" fill-opacity=".5" d="M152 53.5l14.3 12-1 1.3-14.4-12z"/><path fill="#b09f89" fill-opacity=".5" d="M153 112.6l-22.7 6-.4-1.5 22.6-6z"/><path fill="#7e8889" fill-opacity=".5" d="M59.4 174.9v1.5l-17.2.3v-1.5z"/><path fill="#909695" fill-opacity=".5" d="M308.4 158.3l4.3-4.6 2.3 2.1-4.3 4.6z"/><path fill="#d5d2c5" fill-opacity=".5" d="M146.2 58.7L135 81l-1.4-.7L144.8 58z"/><path fill="#2e2a1d" fill-opacity=".5" d="M76.4 186l-9.2-1.8 1.7-9.2 9.3 1.8z"/><path fill="#c9d2d1" fill-opacity=".5" d="M314.2 155.4l7.9-9.7 12.1 9.8-7.8 9.7z"/><path fill="#3b372a" fill-opacity=".5" d="M270.4 168l17.4 7-3.5 8.6-17.4-7z"/><path fill="#e0e4e1" fill-opacity=".5" d="M101 213l-13-74 3.1-.5 13 73.8z"/><path fill="#a6aca6" fill-opacity=".5" d="M342.4 167.3l-.4-3.2 14-1.7.4 3.1z"/><path fill="#4d5050" fill-opacity=".5" d="M278.1 171.7l20.1-2.8.2 1.6-20 2.8z"/><path fill="#e0e2df" fill-opacity=".5" d="M116.6 106.8l-10.4 36-15-4.3 10.4-36z"/><path fill="#242113" fill-opacity=".5" d="M73.8 192.7L70.9 216l-83.7-10.3 2.8-23.3z"/><path fill="#bcbcb1" fill-opacity=".5" d="M167.3 109.4l1.3.8-18.7 28.9-1.3-.9z"/><path fill="#eaeeee" fill-opacity=".5" d="M76.7 73l19.5 46L0 159.9l-19.6-46z"/><path fill="#dde0e1" fill-opacity=".5" d="M226 164.7l4.3-49.8 1.6.1-4.4 49.8z"/><path fill="#1c190a" fill-opacity=".5" d="M294.6 180l46.7 4.1-3 34.3-46.7-4.1z"/><path fill="#adb2ae" fill-opacity=".5" d="M95.5 180.3l-15 41-8.8-3.1 15-41.1z"/><path fill="#907871" fill-opacity=".5" d="M198.2 67.4l.3 1.6-13.8 2.6-.3-1.5z"/><path fill="#dce4e2" fill-opacity=".5" d="M305.8 148.7l1-20.3 48.4 2.6-1 20.3z"/><path fill="#ae9c85" fill-opacity=".5" d="M254.4 149.7l1.5.5-27.5 79.8-1.5-.5z"/><path fill="#848f8f" fill-opacity=".5" d="M18.4 174.3l-2.3-5.8 1.4-.6 2.4 5.8z"/><path fill="#bcbfbc" fill-opacity=".5" d="M168.2 145.8l15.9-37.4 8.6 3.6-15.9 37.4z"/><path fill="#725734" fill-opacity=".5" d="M120.6 97.5l-.5-7.8 17.1-1.2.6 7.8z"/><path fill="#a09279" fill-opacity=".5" d="M150.7 150l-1.4-.8 20.3-35.2 1.4.8z"/><path fill="#ba8f74" fill-opacity=".5" d="M207.3 77.7l7.8 1-2.1 17-7.8-1z"/><path fill="#e0e6e3" fill-opacity=".5" d="M14.7 149.8l2.4 2-17.7 21.8-2.4-2z"/><path fill="#d1d8d4" fill-opacity=".5" d="M205.6 128.2l-1.4-.6 10.5-26 1.4.5z"/><path fill="#968879" fill-opacity=".5" d="M204.5 103.4l-2.8 26.5-4.6-.5 2.7-26.4z"/><path fill="#d1dad9" fill-opacity=".5" d="M372 161.4l-.2-4.7 54.7-1 .1 4.8z"/><path fill="#95896e" fill-opacity=".5" d="M239.6 164.9l12.7 6-6 12.7-12.7-6z"/><path fill="#c5bea6" fill-opacity=".5" d="M150.4 104.2l.7-1.4 15.7 7-.7 1.4z"/><path fill="#f3f5f5" fill-opacity=".5" d="M161.4 24.3l15.3 25.4-14.7 8.9L146.7 33z"/><path fill="#c1c1b4" fill-opacity=".5" d="M210.6 174.9L198.4 220l-10.5-2.8L200 172z"/><path fill="#dde0da" fill-opacity=".5" d="M116.2 151.3l10.7 2-16.5 93.8-10.8-1.9z"/><path fill="#e8ece7" fill-opacity=".5" d="M162 82.1l-9 21.6-7.3-3L155 79z"/><path fill="#c1c8c4" fill-opacity=".5" d="M313.9 167.4l-1.5-.5 9.6-26.5 1.5.6z"/><path fill="#6a5a44" fill-opacity=".5" d="M145.4 133.9l15.7-23.3 1.3.8-15.7 23.4z"/><path fill="#d4756b" fill-opacity=".5" d="M201.4 48.5l-5.2-3.5.9-1.3 5.1 3.5z"/><path fill="#c4c1b2" fill-opacity=".5" d="M204.8 172.5l1.3-37.4 6.3.2-1.3 37.5z"/><path fill="#c2c7bb" fill-opacity=".5" d="M219 125.8l9-16.4 1.4.7-9 16.4z"/><path fill="#cdcbbc" fill-opacity=".5" d="M250.3 118l-28.8 94.1-1.5-.4 28.8-94.2z"/><path fill="#523b1e" fill-opacity=".5" d="M149.9 79l-2.4-2 1-1.3 2.4 2z"/><path fill="#c2b091" fill-opacity=".5" d="M147.8 64L158 74l-1 1-10.2-9.7z"/><path fill="#d1d4ce" fill-opacity=".5" d="M203.9 58.4l1.5.3-17 97-1.6-.3z"/><path fill="#6b736c" fill-opacity=".5" d="M12 166.3l-2.3 4.1-1.4-.8 2.3-4z"/><path fill="#e4e7e7" fill-opacity=".5" d="M17.5 170.3l-1.4.8-32-55.5 1.3-.8z"/><path fill="#a79879" fill-opacity=".5" d="M148.4 68.8l-.4 1.5-10.5-3.2.5-1.5z"/><path fill="#443023" fill-opacity=".5" d="M214.2 139.9l-.3 9.3h-1.6l.4-9.4z"/><path fill="#d0cab0" fill-opacity=".5" d="M262.1 163.2l1.5.6-2.3 5.8-1.4-.6z"/><path fill="#c5c3b5" fill-opacity=".5" d="M148.8 169l-2.4 15.5-12.4-2 2.5-15.4z"/><path fill="#ab9b7a" fill-opacity=".5" d="M158.1 160.5l-6.6 4.1-5-8 6.7-4z"/><path fill="#b4986e" fill-opacity=".5" d="M262 207.6l-8.4-60.3 1.5-.2 8.5 60.3z"/><path fill="#7f6b5a" fill-opacity=".5" d="M140.3 90l-.5-1.4 5.9-2 .5 1.4z"/><path fill="#e3e8e7" fill-opacity=".5" d="M316 116.1l2 23.4-60.6 5.3-2-23.3z"/><path fill="#f8c9c6" fill-opacity=".5" d="M189.3 48l4.6 1-.4 1.5-4.5-1z"/><path fill="#e5b097" fill-opacity=".5" d="M175.8 53.7l-1-1.2 13.4-10.9 1 1.3z"/><path fill="#76746f" fill-opacity=".5" d="M313.7 159l1 1.2-8 7.3-1.1-1.1z"/><path fill="#c0c0bb" fill-opacity=".5" d="M219 53.9l8.6 14.9-1.3.8-8.6-15z"/><path fill="#a2885a" fill-opacity=".5" d="M114.1 91.4v6.3h-4.8l.1-6.3z"/><path fill="#6b5a41" fill-opacity=".5" d="M155 66.3l1.3-1 5.8 7.4-1.2 1z"/><path fill="#6c686a" fill-opacity=".5" d="M174.3 121l11-22.4 1.4.7-11 22.4z"/><path fill="#d8d8cd" fill-opacity=".5" d="M140.8 74.7l-3.8 2.8-7.5-10 3.8-2.8z"/><path fill="#cad1ce" fill-opacity=".5" d="M309.6 159.2l-11 .4-.4-14 11-.5z"/><path fill="#f2f4f5" fill-opacity=".5" d="M133.7 26.3l9.4 38-44 11-9.4-38z"/><path fill="#323024" fill-opacity=".5" d="M75.7 176l1.7 6.1L32 194.2l-1.6-6z"/><path fill="#cac6b9" fill-opacity=".5" d="M146.8 95.3l3.3 16.9-1.6.3-3.3-16.9z"/><path fill="#755e3c" fill-opacity=".5" d="M130 105.8l13-5.3.5 1.5-13 5.3z"/><path fill="#1e1f10" fill-opacity=".5" d="M371.7 172.3l-6.3 4.6-7.4-10.1 6.3-4.6z"/><path fill="#44463e" fill-opacity=".5" d="M339.9 172.8l-13.2-5 .6-1.5 13.1 5z"/><path fill="#c7c8be" fill-opacity=".5" d="M228.4 149.3l-16.3 47.2-1.4-.5 16.2-47.2z"/><path fill="#dbdfd9" fill-opacity=".5" d="M109.3 84.3l-7.7 39.8-3.1-.6 7.7-39.8z"/><path fill="#c6c5af" fill-opacity=".5" d="M137.7 135.4l-22-24.4 1.2-1 22 24.3z"/><path fill="#c9cdc3" fill-opacity=".5" d="M74.9 203.4l6.5-30.6 1.5.4-6.5 30.5z"/><path fill="#6f6864" fill-opacity=".5" d="M185.6 96.8l1.4.7-8.5 16.7-1.4-.7z"/><path fill="#c4c8c0" fill-opacity=".5" d="M230.5 115.6h-3.2v-39h3.2z"/><path fill="#240a00" fill-opacity=".5" d="M186.6 49.5l-.7-1.3 4-2.4.8 1.4z"/><path fill="#4f3f2d" fill-opacity=".5" d="M170.7 118.6l1.5.6-10.1 26.2-1.5-.5z"/><path fill="#b5a689" fill-opacity=".5" d="M246.9 150l-15.7 98.7-1.5-.2 15.6-98.8z"/><path fill="#827369" fill-opacity=".5" d="M182 62l1.5-.2 4.8 34-1.5.2z"/><path fill="#e4e2d2" fill-opacity=".5" d="M154.7 62.2l-17.2.6v-1.6l17.2-.6z"/><path fill="#b1b6b4" fill-opacity=".5" d="M294.9 149.2l-2.5 4-1.3-.8 2.4-4z"/><path fill="#959a9b" fill-opacity=".5" d="M21.1 177v-1.5l18.7-1v1.6z"/><path fill="#76614a" fill-opacity=".5" d="M247.9 178.2l1.5.3-5 26-1.6-.2z"/><path fill="#9b847c" fill-opacity=".5" d="M226.8 80.6l3 1-8.2 23.7-3-1z"/><path fill="#6d3328" fill-opacity=".5" d="M196.6 49l1.7 4.4-5.8 2.3-1.7-4.4z"/><path fill="#7a7a77" fill-opacity=".5" d="M50 179.5l-.8-1.4 5.5-3 .8 1.5z"/><path fill="#593f21" fill-opacity=".5" d="M131.2 110.6l7.5-2.3.4 1.5-7.5 2.2z"/><path fill="#b6a491" fill-opacity=".5" d="M169.4 107.9l8.1-30.2 1.5.4-8 30.2z"/><path fill="#32250e" fill-opacity=".5" d="M162.6 63.7l3.5 3.1-2.1 2.3-3.5-3.1z"/><path fill="#baaea7" fill-opacity=".5" d="M198.6 54.2l-.2-1.5 13.9-2.2.2 1.5z"/><path fill="#c2981c" fill-opacity=".5" d="M152.3 56.3h6.3v4.6h-6.3z"/><path fill="#7e6a4c" fill-opacity=".5" d="M157 116.2l-12.3 2-.2-1.6 12.3-2z"/><path fill="#a9906f" fill-opacity=".5" d="M121.1 83.8l-.6-1.4 13-5.3.7 1.5z"/><path fill="#d0cdbd" fill-opacity=".5" d="M143.3 85l1.1-4.6 7.6 1.9-1.1 4.5z"/><path fill="#f3f6f5" fill-opacity=".5" d="M199 31.8l15.1-3.7 4.2 16.6-15.2 3.8z"/><path fill="#d5d7d1" fill-opacity=".5" d="M208.9 119.5l1.5.4L177 229l-1.5-.4z"/><path fill="#c2cac7" fill-opacity=".5" d="M358 156.7l2.3-2 5.2 5.8-2.3 2z"/><path fill="#7d6257" fill-opacity=".5" d="M217 59.4l3.3 7-1.4.8-3.3-7.1z"/><path fill="#d8dbd6" fill-opacity=".5" d="M146.2 143l1.3 26.5-29.6 1.6-1.4-26.6z"/><path fill="#cbb5a6" fill-opacity=".5" d="M184.5 82.4l4-8.5 9.8 4.6-4 8.5z"/><path fill="#e4e4dc" fill-opacity=".5" d="M151.8 87.7l-1.1-1L168.5 67l1.1 1z"/><path fill="#c9c7c2" fill-opacity=".5" d="M183.2 200.2l-28.7-7.7 7.7-28.6 28.6 7.6z"/><path fill="#7f6555" fill-opacity=".5" d="M216.2 72.5l-7.1-3.1 1.2-2.9 7.2 3.2z"/><path fill="#464d42" fill-opacity=".5" d="M337.5 165.6h23.4v1.6h-23.4z"/><path fill="#a2a8ad" fill-opacity=".5" d="M16.4 174.3v-1.6l40.6 1.4v1.6z"/><path fill="#d6dede" fill-opacity=".5" d="M35 155l20.5 11.4-4.6 8.2-20.5-11.3z"/><path fill="#c9b898" fill-opacity=".5" d="M159.4 70.3v-4.7h1.5v4.7z"/><path fill="#d7c9b1" fill-opacity=".5" d="M246 118l9.2 10.5-5.9 5.2-9.2-10.7z"/><path fill="#beb297" fill-opacity=".5" d="M216.2 152l-1.5.5-1.2-2.9 1.5-.6z"/><path fill="#bfa9a3" fill-opacity=".5" d="M198.8 80l-4.7-.7 2.4-17 4.7.6z"/><path fill="#6f5200" fill-opacity=".5" d="M150 54h1.6v3H150z"/><path fill="#dfe7e6" fill-opacity=".5" d="M296.2 131l8.7 21.7-5.8 2.3-8.7-21.7z"/><path fill="#7b3919" fill-opacity=".5" d="M191.4 48.5v-4.7h3l.2 4.6z"/><path fill="#b49775" fill-opacity=".5" d="M151.6 115.9l3-8.9 1.6.5-3 9z"/><path fill="#adb0ac" fill-opacity=".5" d="M85.8 182.7l7.7-1 3.5 24.7-7.7 1z"/><path fill="#938077" fill-opacity=".5" d="M215.8 72l1.3-6.2 6.1 1.3-1.3 6.1z"/><path fill="#d8d8cd" fill-opacity=".5" d="M209.8 53.4l-7.3 27.2-4.5-1.2 7.3-27.2z"/><path fill="#8c6e45" fill-opacity=".5" d="M153.2 143.3l7.2-3 3.6 8.6-7.2 3z"/><path fill="#cdd8d6" fill-opacity=".5" d="M315 159.1l34.2 3.6-.2 1.6-34.1-3.6z"/><path fill="#dde5e3" fill-opacity=".5" d="M295.3 131.5l38.3 7.5-2.3 12.3-38.4-7.5z"/><path fill="#bdbdb9" fill-opacity=".5" d="M162.3 259.8l-1.5-.2L189.3 98l1.5.3z"/><path fill="#9b7d53" fill-opacity=".5" d="M254.4 183.6l-2.5-28 1.6-.1 2.4 28z"/><path fill="#8d776a" fill-opacity=".5" d="M194.5 53.5l1.2 1-16.8 18.6-1.1-1z"/><path fill="#bdc3bd" fill-opacity=".5" d="M219.2 85.7L209 144.2l-1.5-.3 10.3-58.4z"/><path fill="#8d693c" fill-opacity=".5" d="M142 124.5l-1.7 2.6-9-6.3 1.8-2.6z"/><path fill="#eff2f0" fill-opacity=".5" d="M428.1 104.9l-133.8 11.7-8.4-95L420 10z"/><path fill="#ef8774" fill-opacity=".5" d="M197.5 43.2l1.2 1-4 4.8-1.2-1z"/><path fill="#545550" fill-opacity=".5" d="M264.8 169.5V168l43.8 1.5v1.6z"/><path fill="#babcb6" fill-opacity=".5" d="M183.5 141.7l-16.1-6 3.7-10.2 16.2 5.9z"/><path fill="#201d0b" fill-opacity=".5" d="M66.5 203.2l-9.3-5.8 9.1-14.6 9.3 5.8z"/><path fill="#bda684" fill-opacity=".5" d="M125.6 82.4l.8 1.3-6.6 4.2-.9-1.3z"/><path fill="#746b63" fill-opacity=".5" d="M229.9 160.9h1.6l-.5 7.9-1.5-.1z"/><path fill="#f0f2f3" fill-opacity=".5" d="M257.4 35.8l7.5 30.3-36.3 9-7.6-30.3z"/><path fill="#563f31" fill-opacity=".5" d="M209.5 97.7l-3.5 7-1.4-.8 3.5-7z"/><path fill="#83847b" fill-opacity=".5" d="M365.6 161v1.6l-7.8-.2v-1.6z"/><path fill="#d6e0dc" fill-opacity=".5" d="M279.6 151.8l4.1 10.1-8.7 3.5-4-10.1z"/><path fill="#a99a82" fill-opacity=".5" d="M131.3 104l-.6-1.4 11.4-5 .6 1.4z"/><path fill="#2d2e23" fill-opacity=".5" d="M-14 195.5l-.8-4.6 61.7-9.8.7 4.6z"/><path fill="#424741" fill-opacity=".5" d="M322.2 164.8l2.4 5.7-1.4.7-2.5-5.8z"/><path fill="#e1e7e2" fill-opacity=".5" d="M228.6 103l8.4-4.2 7.8 15.3-8.4 4.3z"/><path fill="#dad7cf" fill-opacity=".5" d="M168 81.6l8.2-16.8 4.2 2-8.2 16.9z"/><path fill="#c8c9bf" fill-opacity=".5" d="M205.6 64.4l4.5 1.4-14.2 46.3-4.4-1.3z"/><path fill="#b8a483" fill-opacity=".5" d="M145.3 84l-36 .7V83l36-.6z"/><path fill="#bbab8e" fill-opacity=".5" d="M259.1 176.6h4.7l.5 29.6h-4.7z"/><path fill="#c9ba98" fill-opacity=".5" d="M238.5 142.9l-1.6.1-2-21.8 1.6-.1z"/><path fill="#795e3a" fill-opacity=".5" d="M121.9 96.9l1-1.3 16.2 12.2-1 1.3z"/><path fill="#3e4233" fill-opacity=".5" d="M6.5 186.4l28.8-7.2.4 1.6-28.8 7.1z"/><path fill="#abb3ae" fill-opacity=".5" d="M331 166.3l-1-4.6 6.1-1.4 1 4.6z"/><path fill="#6d554b" fill-opacity=".5" d="M203.8 84.8l1-1.2 2.4 2-1 1.1z"/><path fill="#b69d7a" fill-opacity=".5" d="M148 173.9l4-18.4 1.5.3-3.9 18.4z"/><path fill="#cdab95" fill-opacity=".5" d="M216 72.4l.7 9.4-6.2.4-.7-9.3z"/><path fill="#785f46" fill-opacity=".5" d="M199.8 99.3l1.3-.8 3.8 6.9-1.3.7z"/><path fill="#505349" fill-opacity=".5" d="M389 168.6l-17.2-1.2.2-3.2 17.2 1.2z"/><path fill="#b6a897" fill-opacity=".5" d="M174.2 80l4.2 2-4.1 8.4-4.2-2z"/><path fill="#7e6d60" fill-opacity=".5" d="M249 157.4l1.4.5-7.1 20.7-1.5-.5z"/><path fill="#a19f8c" fill-opacity=".5" d="M159.5 71.8l1.5.1-.1 4.7h-1.6z"/><path fill="#e4e7e9" fill-opacity=".5" d="M48.2 132.2L43 161.5l-61.5-10.9 5.1-29.2z"/><path fill="#a3a8a7" fill-opacity=".5" d="M304.7 145.3l1.3 1-3 3.7-1.2-1z"/><path fill="#bdb5a6" fill-opacity=".5" d="M164 109.9l1.4.6-15.3 34.3-1.4-.6z"/><path fill="#817358" fill-opacity=".5" d="M158.4 117.2l-4.8 9.8-4.2-2 4.8-9.8z"/><path fill="#ebd3bf" fill-opacity=".5" d="M180 45.3l1 1.3-15.7 12.7-1-1.2z"/><path fill="#866133" fill-opacity=".5" d="M161.2 59.5l17 3-.3 1.5-17-3z"/><path fill="#ccd1d0" fill-opacity=".5" d="M360.7 160.4l-4.2-4.6 9.3-8.4 4.2 4.6z"/><path fill="#bab7b1" fill-opacity=".5" d="M217.6 102l5.4-30.8 1.6.3-5.5 30.7z"/><path fill="#4b2920" fill-opacity=".5" d="M192.2 53l-4.7.2v-1.5l4.6-.3z"/><path fill="#bac0bd" fill-opacity=".5" d="M301.5 165.7l-4.7-.1.2-11 4.7.1z"/><path fill="#2d2c22" fill-opacity=".5" d="M316.2 169.8L270 177l-.2-1.5 46.3-7.4z"/><path fill="#b2bdbc" fill-opacity=".5" d="M78.8 172l-1.5-.6 1.8-4.3 1.4.6z"/><path fill="#eed8d1" fill-opacity=".5" d="M189.7 41.2l-11.6 5-.6-1.5 11.5-4.9z"/><path fill="#838882" fill-opacity=".5" d="M363.2 159.8l.5-1.4 6 2-.6 1.6z"/><path fill="#595d5f" fill-opacity=".5" d="M293.8 164.8h1.5v3.2h-1.6z"/><path fill="#8b806c" fill-opacity=".5" d="M211.4 168l-1-28.1h1.6l1 28z"/><path fill="#696d65" fill-opacity=".5" d="M267.2 168.6l-.8-1.3 5.4-3.1.8 1.3z"/><path fill="#cbc6b1" fill-opacity=".5" d="M260.4 177.3l1-18.7h1.6l-1 18.8z"/><path fill="#d3d8d7" fill-opacity=".5" d="M100.5 171.7l.3 1.6-21.6 3.4-.3-1.5z"/><path fill="#998d7b" fill-opacity=".5" d="M202.4 118.3l-4.9 27.7-1.5-.3 5-27.7z"/><path fill="#785a36" fill-opacity=".5" d="M130.5 93.8h-18.8v-7.9h18.8z"/><path fill="#c0b7a5" fill-opacity=".5" d="M240 155.2l7.6-18.8 1.5.6-7.6 18.8z"/><path fill="#2f2f25" fill-opacity=".5" d="M34.8 192.4l-1.2-1L48 174.7l1.2 1z"/><path fill="#868c8a" fill-opacity=".5" d="M368 156.4l1.1-1 2 2.3-1.1 1z"/><path fill="#949ba0" fill-opacity=".5" d="M-11 176l.1-1.6 32.8 1.2v1.5z"/><path fill="#bec4c3" fill-opacity=".5" d="M34.3 168.2l4.3-1.9.6 1.5-4.3 1.8z"/><path fill="#7a6344" fill-opacity=".5" d="M136.4 109.2l-1.2-1 8-9.6 1.3 1z"/><path fill="#aba08f" fill-opacity=".5" d="M137.5 112l13.9-2 .2 1.5-14 2z"/><path fill="#989282" fill-opacity=".5" d="M227.6 165.9l1.5-.4 1.1 4.6-1.5.3z"/><path fill="#3d210a" fill-opacity=".5" d="M184.7 50.8l-.6-6.2 1.5-.1.7 6.2z"/><path fill="#573d17" fill-opacity=".5" d="M127.7 112.8l-1.5.6-8.5-18.4 1.4-.6z"/><path fill="#332915" fill-opacity=".5" d="M335.4 189.4l19.9-22 4.6 4.1-19.9 22z"/><path fill="#8b7f64" fill-opacity=".5" d="M114.9 103l1.3-.8 1.7 2.6-1.3.8z"/><path fill="#43321a" fill-opacity=".5" d="M185.7 61.7l-.9 1.3-6.4-4.4.8-1.3z"/><path fill="#b19c90" fill-opacity=".5" d="M216.4 63.2v3.2h-6.2v-3z"/><path fill="#cfcfc9" fill-opacity=".5" d="M194.6 87l7 3.4-10.3 21-7-3.4z"/><path fill="#7d8280" fill-opacity=".5" d="M.4 160l1.5.4-.8 3-1.5-.4z"/><path fill="#d8dbd2" fill-opacity=".5" d="M230.8 146.1l-2.3-65.6h1.6l2.3 65.5z"/><path fill="#b3b3ae" fill-opacity=".5" d="M108.5 210.6l-1.6.3-4.4-23 1.5-.3z"/><path fill="#f7faf7" fill-opacity=".5" d="M164.3 77.8l-1.2-1.1 8.6-9.1 1.1 1z"/><path fill="#696f6d" fill-opacity=".5" d="M373.4 165.6v-1.5H422v1.5z"/><path fill="#222011" fill-opacity=".5" d="M400 191.2l-12-7.2 10.4-17.4 12 7.2z"/><path fill="#e8ecea" fill-opacity=".5" d="M406.6 122l-56.2-1.9.8-25 56.3 2z"/><path fill="#7b694e" fill-opacity=".5" d="M151.3 77.3l-7.6-1.5.3-1.5 7.6 1.5z"/><path fill="#ad9881" fill-opacity=".5" d="M248.2 175l-1.6-.2 3.7-29.5 1.5.2z"/><path fill="#aeae99" fill-opacity=".5" d="M266.8 166l-6 5-1-1.1 6-5z"/><path fill="#29220f" fill-opacity=".5" d="M265.4 187.6l15-4.5 2.7 9-15 4.5z"/><path fill="#b7c0bd" fill-opacity=".5" d="M333.2 146.2l-1.2-1 2-2.4 1.2 1z"/><path fill="#a7acab" fill-opacity=".5" d="M326 148.3l1.1 4.5-1.5.4-1.2-4.5z"/><path fill="#ccc5ac" fill-opacity=".5" d="M126.4 124l1.8-2.5 12.6 9.2-1.8 2.5z"/><path fill="#bba98a" fill-opacity=".5" d="M252.3 133.1l7.9 31.8-1.5.4-8-31.8z"/><path fill="#503d26" fill-opacity=".5" d="M284.4 176.6l1.5.3-3.1 13.7-1.5-.3z"/><path fill="#e1e5e4" fill-opacity=".5" d="M30.7 171.4l-7.4 2.6-8.7-25.1 7.4-2.6z"/><path fill="#8a6c47" fill-opacity=".5" d="M124.5 92.5l7.3 2.8-1.6 4.4-7.3-2.8z"/><path fill="#b7b5ac" fill-opacity=".5" d="M213.4 95.3l1.4.7-11 25.8-1.4-.6z"/><path fill="#55574d" fill-opacity=".5" d="M365.6 162.4v1.5l-7.8.3v-1.6z"/><path fill="#d0cfc1" fill-opacity=".5" d="M140.2 93.7l5.2-3.5 3.5 5.2-5.2 3.5z"/><path fill="#e5cb92" fill-opacity=".5" d="M166 59.5l-.8 1.3-10.8-6.2.7-1.4z"/><path fill="#f2f4f6" fill-opacity=".5" d="M147.5-4.5l36.7 23.8L160.3 56l-36.7-23.8z"/><path fill="#54413b" fill-opacity=".5" d="M216 132.1l-.8 12.5-1.6-.1.9-12.5z"/><path fill="#bdc6c9" fill-opacity=".5" d="M-18 172.6l84.4-1.5v1.6l-84.3 1.5z"/><path fill="#cacdc6" fill-opacity=".5" d="M192.8 101.4l6.2 1-9 57.1-6.2-1z"/><path fill="#cfd7d4" fill-opacity=".5" d="M228.8 140l-4.7-.3 1.8-34.3 4.7.2z"/><path fill="#ceb29b" fill-opacity=".5" d="M178.8 48.9l.9-1.2 2.5 1.8-1 1.3z"/><path fill="#987c5c" fill-opacity=".5" d="M120.6 84.8l.6 1.5-5.8 2.3-.6-1.4z"/><path fill="#9e9489" fill-opacity=".5" d="M215.4 145.2l.5-7.7h1.6l-.6 7.9z"/><path fill="#ac8e67" fill-opacity=".5" d="M254.5 168.6l3-.7 5.2 24.5-3 .6z"/><path fill="#dfe2df" fill-opacity=".5" d="M99 197.5l3.6-68.6 3.1.1-3.6 68.7z"/><path fill="#d4d8cf" fill-opacity=".5" d="M126.8 118.9l-5.6 19.5-9-2.6 5.6-19.5z"/><path fill="#572d0e" fill-opacity=".5" d="M179.7 53.2v-1.6h4.7V53z"/><path fill="#5e482c" fill-opacity=".5" d="M150.4 114.5l1.5.6-7 15.7-1.5-.6z"/><path fill="#e1e9e5" fill-opacity=".5" d="M7.6 172.4l-1.5.3-2.8-15.4L5 157z"/><path fill="#d8d9cf" fill-opacity=".5" d="M165.2 151.1l1.4.7-27 58-1.5-.6z"/><path fill="#dce3e0" fill-opacity=".5" d="M297.8 159.3l-35.4-6.2.8-4.6 35.4 6.2z"/><path fill="#e6c7bc" fill-opacity=".5" d="M181.1 44.9l4.3-2.1.6 1.4-4.2 2z"/><path fill="#bfbcae" fill-opacity=".5" d="M231.3 189.3l-3.2 20-1.6-.2 3.2-20z"/><path fill="#b2b7b2" fill-opacity=".5" d="M78.2 225.7l-6-1.6 13.7-51.3 6 1.6z"/><path fill="#7a6749" fill-opacity=".5" d="M135 118.5l14 16.7-1.2 1-14-16.7z"/><path fill="#9d855d" fill-opacity=".5" d="M234.3 143.7l.2-4.7 1.6.1-.3 4.7z"/><path fill="#b9ada3" fill-opacity=".5" d="M197.6 119.6l-1.4-9.3 1.5-.2 1.5 9.3z"/><path fill="#cacbbf" fill-opacity=".5" d="M140.8 68.3l-10.6 2.4-.7-3 10.6-2.5z"/><path fill="#e7efeb" fill-opacity=".5" d="M150.3 86.2l1.2-4.5 9.1 2.4-1.2 4.5z"/><path fill="#d0d3cd" fill-opacity=".5" d="M142.5 131.2l4 29.4-3 .4-4.1-29.4z"/><path fill="#978373" fill-opacity=".5" d="M192.7 63.9l-20.2 21.7-1.2-1 20.3-21.8z"/><path fill="#534c45" fill-opacity=".5" d="M315.3 168.2l-1 1.2-6.1-4.8 1-1.2z"/><path fill="#d7d1c4" fill-opacity=".5" d="M243.7 117.5l1.5.3-9.2 47.5-1.5-.3z"/><path fill="#af584f" fill-opacity=".5" d="M198.7 50.3l-3-.6.9-4.6 3 .6z"/><path fill="#737571" fill-opacity=".5" d="M304.7 161l1.3 1-3 3.6-1.2-1z"/><path fill="#919598" fill-opacity=".5" d="M40.7 172.7l26.5 1.4v1.6l-26.6-1.4z"/><path fill="#663c15" fill-opacity=".5" d="M178.7 54l1.4.7-4.1 8.4-1.4-.6z"/><path fill="#d8e1df" fill-opacity=".5" d="M342 156.4l-25.9 6-.3-1.6 25.9-6z"/><path fill="#cccbc0" fill-opacity=".5" d="M230.7 79.7l-1.4.6-5.4-14.7 1.5-.6z"/><path fill="#b09b7c" fill-opacity=".5" d="M150.5 71.7l.5 4.7-3 .3-.6-4.6z"/><path fill="#3e1e0d" fill-opacity=".5" d="M187.4 44.7l4.7-.3.2 3-4.7.4z"/><path fill="#1e1b0e" fill-opacity=".5" d="M369.2 220.5l-27-23.6 24.5-28.3 27.1 23.6z"/><path fill="#a9977e" fill-opacity=".5" d="M128.3 122.2l15.8-12.8 1 1.2-15.8 12.8z"/><path fill="#f1f3f4" fill-opacity=".5" d="M105.3 90.1L67.1 60.3l26-33.2 38.2 29.8z"/><path fill="#43403d" fill-opacity=".5" d="M297.9 171.5l-.4-3.1 6.2-.8.4 3.1z"/><path fill="#4c3c28" fill-opacity=".5" d="M161.7 129.9l1.5-.3 1.7 10.8-1.5.3z"/><path fill="#83796b" fill-opacity=".5" d="M204.3 116l-2.4 7.5-1.5-.5 2.4-7.4z"/><path fill="#dfe7e2" fill-opacity=".5" d="M159.4 104.2l9.5-33 4.5 1.2-9.5 33z"/><path fill="#c6c0aa" fill-opacity=".5" d="M132.7 78.5l6-2 2 6-6 2z"/><path fill="#c6c8bf" fill-opacity=".5" d="M134.3 197.6l8-35 3.1.7-8 35z"/><path fill="#d3c7b9" fill-opacity=".5" d="M174.1 69.8l4.6 1.2-1.3 4.5-4.5-1.2z"/><path fill="#5a3f09" fill-opacity=".5" d="M160.7 66.7l-.6-1.4 5.8-2.4.6 1.5z"/><path fill="#cbcdc4" fill-opacity=".5" d="M220.7 143.1l6 1.8-14.6 51-6-1.7z"/><path fill="#343229" fill-opacity=".5" d="M394.3 169.5l.3 1.5-9.2 1.7-.3-1.6z"/><path fill="#c6c1b0" fill-opacity=".5" d="M146.4 141.4h1.5l1 28.1h-1.5z"/><path fill="#dfe4e1" fill-opacity=".5" d="M74.8 154.5l49.8 3.5-1 14-49.8-3.4z"/><path fill="#b5a499" fill-opacity=".5" d="M203 93.1l-1.3-12.4 3.1-.4 1.3 12.5z"/><path fill="#d6d5cd" fill-opacity=".5" d="M210.6 53.2l-15 39.4-1.5-.5 15-39.4z"/><path fill="#c0b697" fill-opacity=".5" d="M261.3 186.2l1.5-.3 2.5 13.9-1.6.2z"/><path fill="#c1a18c" fill-opacity=".5" d="M196.4 63.7l-1.5.4-2.2-7.5 1.5-.4z"/><path fill="#bfbeb1" fill-opacity=".5" d="M193.1 141.3l1.3-12.4 1.6.1-1.3 12.5z"/><path fill="#8a7a6e" fill-opacity=".5" d="M189 71.2l4.3-1.7.6 1.4-4.4 1.8z"/><path fill="#602819" fill-opacity=".5" d="M197 51.8l-4 2.4-.9-1.3 4-2.5z"/><path fill="#252212" fill-opacity=".5" d="M63 214.3l3.7-34.2 9.3 1-3.6 34.1z"/><path fill="#9c918b" fill-opacity=".5" d="M223 64.3L220.7 75l-1.5-.3 2.3-10.7z"/><path fill="#d1dad8" fill-opacity=".5" d="M309.6 155.7l-36 10.4-.4-1.5 36-10.4z"/><path fill="#edf1f1" fill-opacity=".5" d="M60.5 77.8l39.8 7.8-9.2 47.5-39.9-7.7z"/><path fill="#766953" fill-opacity=".5" d="M162 67.4l1.2 1-8 9.5-1.2-1z"/><path fill="#8e877c" fill-opacity=".5" d="M170 123.4l1-3 4.4 1.5-1 3z"/><path fill="#826d5b" fill-opacity=".5" d="M157.3 141.3l-1.4-.8 22.7-42.7 1.4.7z"/><path fill="#b8b9b3" fill-opacity=".5" d="M132.1 131.7l1-1.3 11.3 8.3-.9 1.2z"/><path fill="#babab5" fill-opacity=".5" d="M187.8 175.2l5.7-21.1 1.5.4-5.7 21.1z"/><path fill="#f1f4f4" fill-opacity=".5" d="M149.2 24.6l20.3-11.8 17.2 29.8-20.3 11.7z"/><path fill="#a69f8f" fill-opacity=".5" d="M200.7 131.6l1.5.5-7.6 22.2-1.5-.5z"/><path fill="#6f6058" fill-opacity=".5" d="M190 62.2l1.4.5-7.9 20.4-1.4-.5z"/><path fill="#555550" fill-opacity=".5" d="M337.8 173l-1.2-1 5.3-5.9 1.1 1z"/><path fill="#d0d2c8" fill-opacity=".5" d="M194 161.3l9-21.6 1.5.6-9.1 21.6z"/><path fill="#a09283" fill-opacity=".5" d="M170.9 99.7l14.6-32.8 1.4.6-14.6 32.8z"/><path fill="#dde0db" fill-opacity=".5" d="M123.2 182.3l4.5 11.7-8.7 3.4-4.5-11.7z"/><path fill="#b8bdbb" fill-opacity=".5" d="M317.9 153.4l4.6 6.3-1.3 1-4.6-6.4z"/><path fill="#a59372" fill-opacity=".5" d="M238 163.4l1.5-.1 2.3 43.7h-1.6z"/><path fill="#6e7767" fill-opacity=".5" d="M263.3 167.6l4 2.5-.9 1.3-4-2.4z"/><path fill="#b5a891" fill-opacity=".5" d="M149.3 148.1l23.5-42.3 1.3.7-23.4 42.4z"/><path fill="#b6aca2" fill-opacity=".5" d="M185.1 86l-7.8 27-1.5-.5 7.8-27z"/><path fill="#e4eae4" fill-opacity=".5" d="M114.8 102.5l-1.5 28-4.7-.2 1.5-28z"/><path fill="#f4f5f6" fill-opacity=".5" d="M48.4 19.1L-5.1 36.5-18.7-5l53.5-17.4z"/><path fill="#c8b798" fill-opacity=".5" d="M146.2 64.9l9.8 4.8-.6 1.4-9.9-4.8z"/><path fill="#6e4f07" fill-opacity=".5" d="M151.5 57.8v1.5l-4.6.1V58z"/><path fill="#c8c6be" fill-opacity=".5" d="M202.6 52.6l-.3-1.5 12.3-2.2.3 1.6z"/><path fill="#d4cbaf" fill-opacity=".5" d="M158.6 163.9l-1.5-.7 4.7-9.9 1.4.7z"/><path fill="#7d6243" fill-opacity=".5" d="M126.6 104.2l.5-1.5 13.4 4-.4 1.6z"/><path fill="#636c5e" fill-opacity=".5" d="M357 164v1.6h-3v-1.5z"/><path fill="#c3b6a0" fill-opacity=".5" d="M249.3 131.5l1.5.4-8 31.9-1.4-.4z"/><path fill="#92999d" fill-opacity=".5" d="M76.4 169.6l3.2 5.3-1.3.8-3.2-5.3z"/><path fill="#241f11" fill-opacity=".5" d="M329.8 197.7l-3.3-31.1 1.5-.2 3.3 31z"/><path fill="#d6d6b8" fill-opacity=".5" d="M128 74l-.9 1.4-6.6-4.2.8-1.3z"/><path fill="#848681" fill-opacity=".5" d="M315 167l-1.4.2-2.1-10.7 1.5-.3z"/><path fill="#707575" fill-opacity=".5" d="M276 166.7l.9-1.2 5 3.7-1 1.3z"/><path fill="#dde4e1" fill-opacity=".5" d="M347 162.9l-37.1-26 .9-1.3 37.1 26z"/><path fill="#736142" fill-opacity=".5" d="M151.6 65.5l4.7.3-.1 1.5-4.7-.3z"/><path fill="#acb2ae" fill-opacity=".5" d="M318.7 163l29.7-1v1.5l-29.6 1z"/><path fill="#97866a" fill-opacity=".5" d="M149.8 68.5l1.9 7.6-3 .7-2-7.6z"/><path fill="#635445" fill-opacity=".5" d="M169.1 118.8l-.7 14h-1.6l.8-14z"/><path fill="#dbe2df" fill-opacity=".5" d="M407.4 147.8L369.7 158l-3.7-13.5 37.8-10.2z"/><path fill="#79604d" fill-opacity=".5" d="M242.7 192.3l6.3-.2.5 14-6.3.3z"/><path fill="#8e786a" fill-opacity=".5" d="M205.6 88.4l-1.7-6 1.5-.5 1.7 6z"/><path fill="#c9b5aa" fill-opacity=".5" d="M194.3 79.8l-7.6-5.5 1.8-2.5 7.6 5.5z"/><path fill="#221e0d" fill-opacity=".5" d="M349.2 169l1.1 1-29.2 28.3-1.1-1.2z"/><path fill="#bdae99" fill-opacity=".5" d="M137.9 98l.6 1.4-3 1.1-.5-1.4z"/><path fill="#ddddd1" fill-opacity=".5" d="M223.4 164.6l5-13.1 3 1-5.1 13.2z"/></svg>