<svg xmlns="http://www.w3.org/2000/svg" viewBox="0 0 400 200"><path fill="#cecec9" d="M0 0h400v200H0z"/><path fill-opacity=".5" d="M236.5 168l176.4-6.2 2.2 62.4-176.5 6.2zM-8.2 178l84.3-4.4 2.4 46.8-84.2 4.4z"/><path fill="#fff" fill-opacity=".5" d="M205 2.2L24.2 177l-90-93.3L115-91.1z"/><path fill="#fff" fill-opacity=".5" d="M333.9 171l-154-148.7L289.5-91.3l154 148.7z"/><path fill-opacity=".5" d="M267 222.3l-2.6-51.5 135.7-7.1 2.7 51.5z"/><path fill="#8f785c" fill-opacity=".5" d="M151.7 168l-43.3-81.3 88.3-47 43.3 81.4z"/><path fill-opacity=".5" d="M77 214.7l-93.5 6.5-2.7-37.4 93.6-6.6z"/><path fill="#6e5127" fill-opacity=".5" d="M165 113.4l-18.8 18.8-40.9-40.9 18.8-18.8z"/><path fill="#fff" fill-opacity=".5" d="M164 74.2l12.9 21.4-26.8 16.1-12.9-21.4z"/><path fill="#f6fcff" fill-opacity=".5" d="M89.6 175l-107.1-28.7L33.8-45.4 141-16.6z"/><path fill="#f5fbfc" fill-opacity=".5" d="M362.3 31.4L318 160l-97.5-33.6L264.8-2.1z"/><path fill="#bfaf8e" fill-opacity=".5" d="M203.8 123.7l51.1-7.1 17.8 126.8-51 7.2z"/><path fill="#180f00" fill-opacity=".5" d="M266.1 227.9l-1-54.7 148.5-2.6 1 54.7z"/><path fill="#d4d6d4" fill-opacity=".5" d="M163.3 216.3l-11.9-3.9L207 41.5l11.9 3.9z"/><path fill="#5f2400" fill-opacity=".5" d="M195.9 42.7l3.9 6.8-37.9 21.9-3.9-6.8z"/></svg>