<svg xmlns="http://www.w3.org/2000/svg" viewBox="0 0 400 200"><path fill="#cecec9" d="M0 0h400v200H0z"/><path fill-opacity=".5" d="M235 235.2l-1.2-68.8 182.8-3.1 1.2 68.7zM76 173.6l2.5 46.8-84.2 4.4-2.5-46.8z"/><path fill="#fff" fill-opacity=".5" d="M402-52.1l47.7 166.7L259 169.3 211.2 2.6zM149.2 3.4L82.6 177l-124-47.6L25.2-44.2z"/><path fill-opacity=".5" d="M264.7 172.5l142-7.4 2 39-142 7.4z"/><path fill="#8a7153" fill-opacity=".5" d="M106.5 89l89.3-51.6 39.9 69-89.3 51.5z"/><path fill="#fff" fill-opacity=".5" d="M-5 4.2l397-34.7 5.1 59.1L.2 63.3z"/><path fill-opacity=".5" d="M77 214.2l-106 7.4-2.6-37.4 106-7.4z"/><path fill="#533406" fill-opacity=".5" d="M142 135l-32.5-40 15.8-12.8 32.4 40z"/><path fill="#c0b69d" fill-opacity=".5" d="M174.2 123.2l78.7-12.4 15.1 95.7-78.7 12.4z"/><path fill="#fff" fill-opacity=".5" d="M170.1 66.2l13.5 13-27.1 28-13.5-13z"/><path fill="#180f00" fill-opacity=".5" d="M267.4 228.2l-1.9-53.1 137.4-4.8 1.9 53z"/><path fill="#541900" fill-opacity=".5" d="M197 51l-24.7 16.7-5.2-7.8 24.6-16.6z"/><path fill="#e6edea" fill-opacity=".5" d="M155.6 144l-39 44.9-61.3-53.3 39-44.8z"/><path fill="#f2f8f9" fill-opacity=".5" d="M406 147.8l-181.5-32 24.1-137 181.6 32z"/><path fill="#7d654d" fill-opacity=".5" d="M190.8 51.9l7.3 2.8-43.6 113.7-7.3-2.8z"/><path fill="#f7fcff" fill-opacity=".5" d="M-74.6 113.4L212.2-32.8l23.4 46-286.8 146.1z"/><path fill="#ecf0f1" fill-opacity=".5" d="M211.2 11.6l9 2.3-29.8 119.8-9.1-2.3z"/><path fill="#442f20" fill-opacity=".5" d="M223.4 99.7l1.5.3-12.3 58.1-1.6-.3z"/><path fill="#825e01" fill-opacity=".5" d="M167.8 66.1l-4.7 6.3-20-15 4.7-6.3z"/><path fill="#a08054" fill-opacity=".5" d="M246.4 214l-19.4-5.9 18.7-61.2 19.5 6z"/><path fill="#8b7166" fill-opacity=".5" d="M224.8 92l-13.3-36.6 5.9-2.2L230.7 90z"/><path fill="#dae4e2" fill-opacity=".5" d="M258.3 116.4l176.3-9.3L437 154l-176.3 9.3z"/><path fill="#f0fcf7" fill-opacity=".5" d="M170.5 106l-23.4.5-.4-23.5 23.4-.4z"/><path fill="#fffffa" fill-opacity=".5" d="M181.2 47.8L161.7 61l-7-10.4 19.5-13.1z"/><path fill="#1d1900" fill-opacity=".5" d="M75.5 214.8l-84.3-1.5.5-29.7 84.3 1.5z"/><path fill="#654824" fill-opacity=".5" d="M132.6 83.8l14.7 20.2-19 13.8-14.7-20.2z"/><path fill="#22200c" fill-opacity=".5" d="M368.3 155.7l28.5 35.3-29.1 23.6-28.6-35.3z"/><path fill="#d7dfde" fill-opacity=".5" d="M235.7 102.5l-10.6 101-12.4-1.3 10.6-101z"/><path fill="#e5edf0" fill-opacity=".5" d="M-4 102.8l75 16-12.4 58-74.9-15.9z"/><path fill="#d0dad9" fill-opacity=".5" d="M198.5 177.2l-6-1.6 26.2-98.1 6 1.6z"/><path fill="#573a29" fill-opacity=".5" d="M210 96.5l-6.1 22.7-6-1.7 6-22.6z"/><path fill="#432709" fill-opacity=".5" d="M173 114l-14.8 42.8-1.5-.5 14.8-42.8z"/><path fill="#959e9a" fill-opacity=".5" d="M97.5 220.5l-14 2.2-7.5-47.9 13.9-2.2z"/><path fill="#c8c2b0" fill-opacity=".5" d="M115.4 126.6l39.3-25.6 3.4 5.3-39.3 25.5z"/><path fill="#c2cacb" fill-opacity=".5" d="M180.6 157l-16.7-8.5 22.7-44.6 16.7 8.5z"/><path fill="#82522c" fill-opacity=".5" d="M196 40.2l3.4 5.2L162 70.7l-3.5-5.2z"/><path fill="#f4f6f8" fill-opacity=".5" d="M297.5 44l-42.6 45.7-91.5-85.3 42.7-45.7z"/><path fill="#c5b9b0" fill-opacity=".5" d="M205 46.6l2.6 1.6-54.7 91.1-2.7-1.6z"/><path fill="#9da8a4" fill-opacity=".5" d="M259.3 165.8l76.3-6.6.4 4.6-76.3 6.7z"/><path fill="#edf5f3" fill-opacity=".5" d="M153.5 105.2l-5.1-3.6L176.2 62l5 3.5z"/><path fill="#838d95" fill-opacity=".5" d="M-50.7 178.4l131-6.8.1 1.5-131 6.9z"/><path fill="#6d4c23" fill-opacity=".5" d="M136.4 90.1l-1.5 7.7-26-5 1.5-7.8z"/><path fill="#5d4625" fill-opacity=".5" d="M157.8 109.6l2.7 1.5-13.6 24.6-2.7-1.5z"/><path fill="#897b73" fill-opacity=".5" d="M179.9 102.6l-9.1-25L181 74l9 25z"/><path fill="#dcd8c2" fill-opacity=".5" d="M146.8 55.7l8.7 6.7-16.4 21-8.6-6.8z"/><path fill="#f0f4f5" fill-opacity=".5" d="M-58.2 27L57.2-66.3l96.3 119-115.3 93.5z"/><path fill="#827365" fill-opacity=".5" d="M193.4 153.9l10.2-41 1.5.4-10.2 41z"/><path fill="#554539" fill-opacity=".5" d="M213.2 155.4l-1.5-.2 4.8-34 1.5.2z"/><path fill="#c4ab7d" fill-opacity=".5" d="M120.3 88.7l-5.7-11.1 16.7-8.5 5.7 11.1z"/><path fill="#bb9c71" fill-opacity=".5" d="M251.7 129l13.6 64.2-6 1.3-13.7-64.2z"/><path fill="#453110" fill-opacity=".5" d="M186.2 60.6l-32.9 10-.4-1.5 32.8-10z"/><path fill="#cacac3" fill-opacity=".5" d="M193.8 145.8l23.1 49.6-62.3 29-23-49.5z"/><path fill="#9e895b" fill-opacity=".5" d="M230.6 159.2l4.4-42 1.6.2-4.4 42z"/><path fill="#745d37" fill-opacity=".5" d="M174.2 57l1.9 2.5-30 22.6-1.9-2.5z"/><path fill="#af986a" fill-opacity=".5" d="M161.4 152.5l-13.9 29.8-4.2-2 13.9-29.8z"/><path fill="#514e48" fill-opacity=".5" d="M315.7 157.4l-6.6 12.5-1.4-.8 6.6-12.4z"/><path fill="#d6d5cb" fill-opacity=".5" d="M163.9 90.4L132 103.3l-.6-1.5L163.3 89z"/><path fill="#9eaaa8" fill-opacity=".5" d="M406.1 166.1l-.2 1.5-51-7.1.1-1.6z"/><path fill="#4f3c26" fill-opacity=".5" d="M167.2 118l4.4 1.5-9.1 26.6-4.5-1.5z"/><path fill="#a7816e" fill-opacity=".5" d="M207.5 97l-5.6-2.6L219 57.6l5.7 2.7z"/><path fill="#c4cdcb" fill-opacity=".5" d="M290.8 160l1.5-14 46.6 5-1.5 14z"/><path fill="#724e00" fill-opacity=".5" d="M145.9 59.6l8.8-6.4 1 1.2-8.9 6.5z"/><path fill="#393729" fill-opacity=".5" d="M78.5 183.7l-48 6-1.2-9.4 48-5.9z"/><path fill="#27220d" fill-opacity=".5" d="M283.3 199.3l-1-29.7 48.4-1.7 1 29.7z"/><path fill="#6c6a6c" fill-opacity=".5" d="M186.5 98l-13.7 28.1-1.4-.7 13.7-28z"/><path fill="#f1e4d6" fill-opacity=".5" d="M175.5 42.9l5.1 7.8-17 11.1-5.1-7.9z"/><path fill="#f1f3f4" fill-opacity=".5" d="M193.6 2.3l84.3-41.1L336 80.5l-84.3 41.1z"/><path fill="#a09687" fill-opacity=".5" d="M217.7 121.8l5.3-21.3 4.6 1.2-5.3 21.2z"/><path fill="#e2dfd4" fill-opacity=".5" d="M136.7 59l22.7 5.6-.8 3L136 62z"/><path fill="#c9b8ab" fill-opacity=".5" d="M185.7 80.2l41.3-8.7 1.3 6-41.3 8.8z"/><path fill="#a1825b" fill-opacity=".5" d="M255.4 153.3l9.3 58.6-12.3 2-9.3-58.7z"/><path fill="#c2baa8" fill-opacity=".5" d="M138.4 103.3l13-5.5 5.5 13-13 5.5z"/><path fill="#dcdbce" fill-opacity=".5" d="M132.7 61.8l1.3-.8 34.9 53.7-1.3.9z"/><path fill="#dee3e4" fill-opacity=".5" d="M24.1 129.2l82.2 19-7 30.4-82.2-19z"/><path fill="#413c28" fill-opacity=".5" d="M284.7 184.6l-21.1-5.6 3.2-12 21.2 5.6z"/><path fill="#171505" fill-opacity=".5" d="M270.5 209l-.3-17.2 129.6-2.3.3 17.2z"/><path fill="#bfbfb7" fill-opacity=".5" d="M167.8 151.7l-1.5-.4 14.3-57.6 1.6.3z"/><path fill="#d1c7a8" fill-opacity=".5" d="M263.3 200l-4.7-54.5 1.5-.2 4.8 54.5z"/><path fill="#ebefeb" fill-opacity=".5" d="M179.3 71.5L150 104l-5.8-5.2 29.3-32.5z"/><path fill="#d6d9d3" fill-opacity=".5" d="M88 216.9l32.5-84.6L151 144l-32.5 84.7z"/><path fill="#816000" fill-opacity=".5" d="M163.8 66.5l-7.2-6 3-3.6 7.2 6z"/><path fill="#4f3716" fill-opacity=".5" d="M151 129.5l-9.4.3-.4-10.9 9.4-.3z"/><path fill="#2a1205" fill-opacity=".5" d="M189 44l2.4 2-7 8.4-2.4-2z"/><path fill="#ccd1ca" fill-opacity=".5" d="M66.8 235.2l18.1-72.7 3 .7L69.8 236z"/><path fill="#f1f3f2" fill-opacity=".5" d="M223.9 1.8l179-15.7L412 90.4l-179 15.7z"/><path fill="#a18655" fill-opacity=".5" d="M154.5 155.4l-8.2-9.4 7-6.1 8.2 9.4z"/><path fill="#4c4e48" fill-opacity=".5" d="M65.5 176.6v1.6l-117 6.1v-1.5z"/><path fill="#c18577" fill-opacity=".5" d="M181.7 57.4L200.2 43l1 1.2-18.5 14.4z"/><path fill="#6b4f3d" fill-opacity=".5" d="M242.8 186.8l6.2-.1.4 25h-6.2z"/><path fill="#d4d8cc" fill-opacity=".5" d="M116.4 102.7L104.3 115l-6.7-6.7 12.2-12.1z"/><path fill="#736053" fill-opacity=".5" d="M190.9 67.8l-19.4 47.8-1.4-.6 19.3-47.8z"/><path fill="#68170f" fill-opacity=".5" d="M199.8 49.2l-6.5 4.4-.9-1.3L199 48z"/><path fill="#9da7a1" fill-opacity=".5" d="M341.6 166.8l-.2-1.5 15.4-2.5.3 1.6z"/><path fill="#a79374" fill-opacity=".5" d="M160.6 63.6l1.8 7.6-18.3 4.2-1.8-7.6z"/><path fill="#dfe5e3" fill-opacity=".5" d="M315.9 131.5l80-14.1 5.4 30.8-80 14z"/><path fill="#947b71" fill-opacity=".5" d="M198.8 72.2l-20.1 2.4-1-7.7 20.2-2.5z"/><path fill="#a89c85" fill-opacity=".5" d="M250 142.4l8.6 3.5L214.1 256l-8.7-3.5z"/><path fill="#533915" fill-opacity=".5" d="M110.5 89.2l4-2.5 14 22.5-4 2.5z"/><path fill="#daccc1" fill-opacity=".5" d="M194.7 54.2l16.2-5.9 5.3 14.7-16.1 5.9z"/><path fill="#eef2f2" fill-opacity=".5" d="M10 25.6l104.9 36-26.5 76.9-104.9-36.1z"/><path fill="#856a4f" fill-opacity=".5" d="M135 91.2l.3-6.3 9.4.5-.3 6.2z"/><path fill="#bcb5a3" fill-opacity=".5" d="M147 149.4L179.9 82l2.8 1.4-32.9 67.4z"/><path fill="#9c835c" fill-opacity=".5" d="M115 81.6l5.2 3.5-8.7 13-5.2-3.5z"/><path fill="#d5dfdd" fill-opacity=".5" d="M261 161.7l1.7-14 37.2 4.6-1.7 14z"/><path fill="#545c59" fill-opacity=".5" d="M7 182.7l-1.5-.4 4.7-16.6 1.5.5z"/><path fill="#f3f5f5" fill-opacity=".5" d="M166.6 26.7l3.7 26.3-66.6 9.4L100 36z"/><path fill="#756356" fill-opacity=".5" d="M249 153.4l1.5.5-7.3 25.5-1.5-.4z"/><path fill="#5f543d" fill-opacity=".5" d="M210.5 158.7l1.6-.2.8 9.4-1.6.1z"/><path fill="#c8ccc9" fill-opacity=".5" d="M214.5 131l-12-3.5 6.4-22.5 12 3.4z"/><path fill="#857167" fill-opacity=".5" d="M210 71.5l.4-7.8 12.5.7-.5 7.8z"/><path fill="#676962" fill-opacity=".5" d="M405.2 161.9l.6 1.4L387 171l-.6-1.4z"/><path fill="#7a624f" fill-opacity=".5" d="M198.8 128.7l-1.4-.5L212 85.4l1.5.5z"/><path fill="#7a603f" fill-opacity=".5" d="M135.9 127.6l-4.6-37.2 6.2-.8 4.6 37.2z"/><path fill="#4d4e46" fill-opacity=".5" d="M300.8 166.4h40.6v3.1h-40.6z"/><path fill="#8a8f8d" fill-opacity=".5" d="M299 165l15.3-8 .7 1.4-15.2 8z"/><path fill="#a69678" fill-opacity=".5" d="M230 171.5l-1.5-.3 8.7-35 1.5.5z"/><path fill="#d0d3cc" fill-opacity=".5" d="M225.8 204l-20.9-6.5 11.4-37.3 21 6.4z"/><path fill="#c3c5be" fill-opacity=".5" d="M157.2 162.6l32.3-60.7 11 5.8-32.2 60.7z"/><path fill="#a5a8a4" fill-opacity=".5" d="M101 223.9l7.4-52.7 1.5.3-7.4 52.6z"/><path fill="#e3e6e4" fill-opacity=".5" d="M96.2 172.6l-4.9-70.1 23.4-1.7 5 70.2z"/><path fill="#eaeeec" fill-opacity=".5" d="M227.9 87.3l22.3-14.5 39.1 60.3-22.3 14.4z"/><path fill="#cdcfcb" fill-opacity=".5" d="M183.2 270.3l-7.8-.7L190.2 100l7.8.7z"/><path fill="#d0d1c7" fill-opacity=".5" d="M117.3 106l41.5 102.9-5.8 2.3-41.5-102.9z"/><path fill="#f3f5f6" fill-opacity=".5" d="M186-13.5l-3.4 64L-15.6 40l3.3-64z"/><path fill="#b0b8b7" fill-opacity=".5" d="M357 163l-1.4-9.3 17-2.6 1.5 9.2z"/><path fill="#9b948e" fill-opacity=".5" d="M205.6 55.3l1.8-6 10.5 3.2-1.9 6z"/><path fill="#90766e" fill-opacity=".5" d="M226.6 76.7l1.5.3-6.2 35.4-1.6-.3z"/><path fill="#c1aca1" fill-opacity=".5" d="M195.9 58l1.3.7L187 78l-1.4-.7z"/><path fill="#a6aca8" fill-opacity=".5" d="M93.5 174.8l5.1 48.2-6.2.6-5-48.1z"/><path fill="#9e8d7b" fill-opacity=".5" d="M206 84.9l-9 57-1.5-.2 9-57z"/><path fill="#b9c3c7" fill-opacity=".5" d="M12.6 175.4l66.8-7 .2 1.5-66.8 7z"/><path fill="#6c6f71" fill-opacity=".5" d="M-13.3 177l.1-1.6 34.3 2.4-.1 1.5z"/><path fill="#3b311e" fill-opacity=".5" d="M272.3 193.4l-.8-21.9 23.4-.8.8 21.9z"/><path fill="#635c58" fill-opacity=".5" d="M178.1 111.2l9.5-21.4 1.5.6-9.6 21.4z"/><path fill="#a9956f" fill-opacity=".5" d="M118.8 111l1-1 16 14.9-1 1.1z"/><path fill="#533b16" fill-opacity=".5" d="M173.3 60.5l13.6-3.7.8 3-13.6 3.7z"/><path fill="#dba88d" fill-opacity=".5" d="M175 50l16.4-9.1.8 1.3-16.4 9.1z"/><path fill="#737871" fill-opacity=".5" d="M263.6 168.3l-.4-1.5 9.1-2.3.4 1.5z"/><path fill="#5a5f5c" fill-opacity=".5" d="M2 163l-1.5.4-1-3 1.6-.4z"/><path fill="#302812" fill-opacity=".5" d="M360.7 180.1L340.9 198l-12.5-14 19.7-17.7z"/><path fill="#262414" fill-opacity=".5" d="M358.9 164.8L405 173l-3 16.9-46.1-8.2z"/><path fill="#ac7900" fill-opacity=".5" d="M150 58.2l.3-1.5L161 59l-.3 1.5z"/><path fill="#d5d9d1" fill-opacity=".5" d="M149.9 140.1l-1.3 25-9.4-.5 1.3-25z"/><path fill="#dcd7c9" fill-opacity=".5" d="M236.7 152.2l1.6-31.2 4.7.2-1.6 31.2z"/><path fill="#9e845e" fill-opacity=".5" d="M153.6 107.7l7.4 2.3-3.6 12-7.5-2.3z"/><path fill="#dfe6e0" fill-opacity=".5" d="M166 108.5l-3.1-.5 7.1-37 3 .6z"/><path fill="#b9b3ab" fill-opacity=".5" d="M179.8 138.8l15.5-67 1.5.4-15.5 67z"/><path fill="#bab2a0" fill-opacity=".5" d="M149.6 82.7l.8 10.9-4.7.3-.8-11z"/><path fill="#8e7769" fill-opacity=".5" d="M190.5 59.9l-15.7 23.3-1.3-.9L189.2 59z"/><path fill="#d5d5c7" fill-opacity=".5" d="M129 65.1l9-2.7 6.4 21-9 2.6z"/><path fill="#b2bab5" fill-opacity=".5" d="M332.4 158.5l1.4-.6 4.1 10.2-1.4.5z"/><path fill="#f5f7f7" fill-opacity=".5" d="M187.2 35.5l4.8-9.8 38 18.5-4.8 9.8z"/><path fill="#b3b1a4" fill-opacity=".5" d="M209.1 163.5l3 .7-10.3 48.9-3-.7z"/><path fill="#f5fbf5" fill-opacity=".5" d="M148.3 93l22.5-26 1.2 1-22.5 26z"/><path fill="#bbb6a1" fill-opacity=".5" d="M253.2 130.6l-40.9 106.5-1.4-.5L251.7 130z"/><path fill="#4a4c45" fill-opacity=".5" d="M77.2 177l-130.8 11.5-.1-1.5L77 175.5z"/><path fill="#cbd1c7" fill-opacity=".5" d="M218.9 133.9l-1.5-.7L232.7 99l1.4.6z"/><path fill="#23200f" fill-opacity=".5" d="M68 178.2l10.8 2.1-7.8 39.9-10.7-2z"/><path fill="#8c9697" fill-opacity=".5" d="M21.5 178l-6.4-8.8 2.5-1.9 6.4 8.9z"/><path fill="#b2b9b8" fill-opacity=".5" d="M282.5 168.3l32.8-14.6.7 1.4-32.9 14.6z"/><path fill="#d2d5ca" fill-opacity=".5" d="M140 227.7l-1.5-.5L174 123.8l1.5.5z"/><path fill="#e9ecec" fill-opacity=".5" d="M59.7 134l-63.3 27-17-40.4 63.2-26.8z"/><path fill="#5c352f" fill-opacity=".5" d="M187.8 50.4l10.7 2.4-.4 1.5-10.6-2.4z"/><path fill="#cdcfc4" fill-opacity=".5" d="M141 147.6l-22.1-19.9 7.3-8.1 22 19.9z"/><path fill="#beaea5" fill-opacity=".5" d="M180.3 95l8.2-20.3 1.5.6-8.2 20.3z"/><path fill="#593e1d" fill-opacity=".5" d="M119.5 102.3l4.9-4 10.8 13.4-4.9 4z"/><path fill="#ced6d3" fill-opacity=".5" d="M336 142.8l1.4 17.2-21.8 1.9-1.5-17.2z"/><path fill="#b6b4af" fill-opacity=".5" d="M227.3 72.3l-1.4.6-8-18.7 1.5-.6z"/><path fill="#9a7c4f" fill-opacity=".5" d="M164.3 146.8l-9.7 7.8-4.9-6 9.7-8z"/><path fill="#dcdeda" fill-opacity=".5" d="M225.6 165.5l2-54.6 4.6.1-2 54.7z"/><path fill="#d7dbd2" fill-opacity=".5" d="M205.9 47l3 .7-10 47.4-3.1-.6z"/><path fill="#d8ceba" fill-opacity=".5" d="M247.4 115.7l7.3 15.6-10 4.6-7.2-15.6z"/><path fill="#61533d" fill-opacity=".5" d="M150 80.6l-5.7-5.4 1-1.1 5.7 5.4z"/><path fill="#898f8c" fill-opacity=".5" d="M13.2 156.4l1.1-1 2.2 2.2-1.2 1.1z"/><path fill="#cccbbe" fill-opacity=".5" d="M149.4 110.3l-7.9-20.5 4.4-1.6 7.9 20.4z"/><path fill="#55453a" fill-opacity=".5" d="M212.2 95.6l-5.9 11-1.3-.7 5.8-11z"/><path fill="#776141" fill-opacity=".5" d="M149.8 132.7l-.9 1.3-12.8-9 1-1.2z"/><path fill="#f2f4f4" fill-opacity=".5" d="M184.8 27.5l-23 31.6-13.8-10 23-31.7z"/><path fill="#644732" fill-opacity=".5" d="M205.5 108.3l-4.3-1.8 4.2-10.1 4.4 1.8z"/><path fill="#e7a398" fill-opacity=".5" d="M191.7 42.1l1.8-2.5 10.1 7.3-1.8 2.6z"/><path fill="#dce4e1" fill-opacity=".5" d="M402 137.8l-5 22.9-44.3-9.4 5-23z"/><path fill="#615134" fill-opacity=".5" d="M148.8 71l1.3-1 5.7 7.4-1.2 1z"/><path fill="#cad1cb" fill-opacity=".5" d="M218.8 157.2l12.4-78.7 1.6.2-12.5 78.7z"/><path fill="#8b7e60" fill-opacity=".5" d="M213.4 160.3l-3-.7 2.8-12.1 3 .7z"/><path fill="#bc9f87" fill-opacity=".5" d="M208.8 91.7L207 80.9l14-2.2 1.6 10.8z"/><path fill="#f2f3f5" fill-opacity=".5" d="M55.2 13.2l84.1-6 4 56.2L59 69.3z"/><path fill="#bbb7a6" fill-opacity=".5" d="M168.2 120.3l-4.6 4.2-5.3-5.8 4.7-4.2z"/><path fill="#c0bfb3" fill-opacity=".5" d="M170.8 105.6l-20 31.8-1.2-.8 19.8-31.8z"/><path fill="#bcbcb8" fill-opacity=".5" d="M191.9 97l-30.7 158-1.5-.4 30.7-158z"/><path fill="#c8d2d5" fill-opacity=".5" d="M-17.2 172.3v-1.6L50 173v1.6z"/><path fill="#b9a88a" fill-opacity=".5" d="M239.5 145.6l-1.5.3-7.2-33.6 1.5-.4z"/><path fill="#dbe2e1" fill-opacity=".5" d="M20.5 158.1l73.4 2.6-.4 10.9-73.4-2.6z"/><path fill="#373325" fill-opacity=".5" d="M342.2 170.3v7.8h-26.6v-7.8z"/><path fill="#d6d8d2" fill-opacity=".5" d="M213 112.2l-44.8 146.4-1.5-.5 44.8-146.4z"/><path fill="#866a47" fill-opacity=".5" d="M133.1 105.6l-4.6 1-3.8-20 4.6-1z"/><path fill="#1a1609" fill-opacity=".5" d="M300 214.8l1.7-32.8 31.2 1.7-1.7 32.7z"/><path fill="#312109" fill-opacity=".5" d="M162 67.9l4.7-4.1 1 1.1L163 69z"/><path fill="#7c746c" fill-opacity=".5" d="M185.2 93.2l1.4.6-14 36.4-1.4-.5z"/><path fill="#bfa998" fill-opacity=".5" d="M187.8 92.4l9-18.3 1.3.7-8.9 18.3z"/><path fill="#6d502e" fill-opacity=".5" d="M136.9 95.7l-26-5.5.7-3 26 5.4z"/><path fill="#ab9d82" fill-opacity=".5" d="M237.1 142.6l-5.5 26-1.5-.3 5.5-26z"/><path fill="#e0e3e0" fill-opacity=".5" d="M100.4 203l-13.3-75.4 4.7-.9 13.2 75.4z"/><path fill="#e6eae8" fill-opacity=".5" d="M413.5 121.1l-153.2 21.6-3.5-24.8L410 96.4z"/><path fill="#b2b7b1" fill-opacity=".5" d="M89.9 204.4l-14.4-6 1.8-4.4 14.4 6.1z"/><path fill="#e5e8e8" fill-opacity=".5" d="M29 146.9l7 22.4-13.5 4.1-6.9-22.4z"/><path fill="#dddac3" fill-opacity=".5" d="M131.7 66l-23.3 20.8-1-1.1 23.2-21z"/><path fill="#b9a079" fill-opacity=".5" d="M253.2 141.2l1.5-.3 12.4 88.2-1.5.3z"/><path fill="#ad9b85" fill-opacity=".5" d="M127.6 118.2l29.7-9.7 1 3-29.7 9.7z"/><path fill="#f0f1f2" fill-opacity=".5" d="M278.5 57.6l-7.6-30.4 183.4-45.7 7.6 30.3z"/><path fill="#bcbbb2" fill-opacity=".5" d="M219.8 112l-11-.7 1.1-15.6 11 .8z"/><path fill="#f4dede" fill-opacity=".5" d="M193.5 50.5l-4.5-1 .3-1.5 4.6 1z"/><path fill="#a59f93" fill-opacity=".5" d="M205.5 115.2L191.3 168l-1.5-.4 14.2-52.8z"/><path fill="#a0b0b1" fill-opacity=".5" d="M408.2 158.7l-20.6 7.5-.5-1.5 20.6-7.5z"/><path fill="#514737" fill-opacity=".5" d="M146.6 132l.5 3-1.5.3-.5-3.1z"/><path fill="#e8ebe7" fill-opacity=".5" d="M250.2 115.1l-14.9 4.8-5.8-17.8 14.9-4.8z"/><path fill="#af9673" fill-opacity=".5" d="M136.5 84.7L122.7 87l-1.4-7.7 13.9-2.4z"/><path fill="#d8d9cf" fill-opacity=".5" d="M126.4 241.7l-5.6-2.8 41.9-82.2 5.5 2.9z"/><path fill="#b6a185" fill-opacity=".5" d="M239.3 209.7l-6.1-1 4-23.1 6.2 1z"/><path fill="#c9c9c2" fill-opacity=".5" d="M198 189.1l-38.6-12.5 9.7-29.8 38.6 12.6z"/><path fill="#e3e7e3" fill-opacity=".5" d="M151.4 79.8l17.1-.3.5 23.5-17.2.3z"/><path fill="#262314" fill-opacity=".5" d="M78.8 212.4l-15.4 2.7-6.2-35.3 15.3-2.8z"/><path fill="#baaa8a" fill-opacity=".5" d="M136.7 67l.3-1.6 18.4 3.6-.3 1.5z"/><path fill="#8d7756" fill-opacity=".5" d="M136.7 106.6l3.4-10.4 6 2-3.4 10.3z"/><path fill="#dce0da" fill-opacity=".5" d="M110 163.2l-3.2.1-2.7-78 3.1-.2z"/><path fill="#655238" fill-opacity=".5" d="M136.7 118.8l15.3-3.2.3 1.5-15.2 3.3z"/><path fill="#513c25" fill-opacity=".5" d="M167 129.1l-6 12.8-1.4-.7 6-12.7z"/><path fill="#bdc0ba" fill-opacity=".5" d="M210.8 113l6.2.9-4.4 31-6.2-1z"/><path fill="#828783" fill-opacity=".5" d="M336.2 169.8l2.8-7.3 1.4.5-2.8 7.3z"/><path fill="#333226" fill-opacity=".5" d="M-61.6 181.3l.3-3.1L63.2 189l-.3 3.2z"/><path fill="#67544c" fill-opacity=".5" d="M219.1 68.7h-1.5l-.8-10.8 1.6-.1z"/><path fill="#6e5f51" fill-opacity=".5" d="M215.7 123.4l3.2-5.4 1.3.8-3.2 5.4z"/><path fill="#7e8685" fill-opacity=".5" d="M27.3 176v-1.7l37.6 1.4v1.5z"/><path fill="#3d3a31" fill-opacity=".5" d="M46 189.9l-1.6-.2 1.9-15.5 1.5.2z"/><path fill="#bfc0b5" fill-opacity=".5" d="M140.9 182.5l-6-5 7-8.4 6 5z"/><path fill="#998175" fill-opacity=".5" d="M195.3 71.6l-6.3.5-1.5-17.1 6.3-.6z"/><path fill="#7b6257" fill-opacity=".5" d="M215.5 66.6l.7 1.4-8.3 4.4-.7-1.4z"/><path fill="#9fa5a8" fill-opacity=".5" d="M21.1 175.8v-1.6l43.7-1.5v1.5z"/><path fill="#baaa8b" fill-opacity=".5" d="M153.7 103.3l14 12.5-1.1 1.2-14-12.5z"/><path fill="#dce5e2" fill-opacity=".5" d="M355.5 141.4v18.8h-18.8v-18.8z"/><path fill="#747977" fill-opacity=".5" d="M367.7 162.8l-2.8-1.3 3.3-7.1 2.8 1.3z"/><path fill="#99694c" fill-opacity=".5" d="M188.3 44.8l-11.3 13-1.2-1 11.3-13z"/><path fill="#784b23" fill-opacity=".5" d="M166.3 65.2l-1-4.5 10.6-2.5 1 4.6z"/><path fill="#c4b9aa" fill-opacity=".5" d="M178.7 72.3L168 101.7l-1.4-.6 10.7-29.3z"/><path fill="#daded8" fill-opacity=".5" d="M106.6 216.4l2.5-35.8 20.3 1.4-2.6 35.9z"/><path fill="#97867b" fill-opacity=".5" d="M219.1 123.2l5.5-45 1.6.2-5.5 45z"/><path fill="#cccdc5" fill-opacity=".5" d="M204 89.6l-12.2 20.1-6.7-4 12.1-20.1z"/><path fill="#dde4e1" fill-opacity=".5" d="M255.7 133.5l18.4-3.9 6.1 29-18.3 4z"/><path fill="#6d5a41" fill-opacity=".5" d="M156.2 68.5l3-.8 1.8 6-3 .8z"/><path fill="#413f34" fill-opacity=".5" d="M411.4 158.6l-29.8 20-.8-1.2 29.8-20.1z"/><path fill="#a08054" fill-opacity=".5" d="M253.5 156.3l5.5 63.8-1.5.2-5.6-63.9z"/><path fill="#66706a" fill-opacity=".5" d="M10.2 167.3l-2 2.4-1.2-1 2-2.4z"/><path fill="#ebf0f0" fill-opacity=".5" d="M38 121.5l13.8-44.9 52.3 16-13.7 44.8z"/><path fill="#0b0000" fill-opacity=".5" d="M186.3 51.6l-1.4-.7 2.3-4.1 1.3.7z"/><path fill="#adb4b1" fill-opacity=".5" d="M317.7 163l-1.3.8-13.8-19 1.3-.8z"/><path fill="#414443" fill-opacity=".5" d="M76.9 172.9l.6 1.4-2.8 1.3-.7-1.4z"/><path fill="#dfe2e0" fill-opacity=".5" d="M101 101.7l16.7 4.2-11 44-16.6-4.2z"/><path fill="#e5d9c6" fill-opacity=".5" d="M179.4 49.4l-1-6.2 3.2-.4.9 6.2z"/><path fill="#e6ebea" fill-opacity=".5" d="M.9 172.6l15.5-50.8 3 1L4 173.4z"/><path fill="#330d00" fill-opacity=".5" d="M193 45.4v1.5h-6.3v-1.6z"/><path fill="#beaa8a" fill-opacity=".5" d="M151.2 170.9l-1.5.2-2.5-15.4 1.6-.3z"/><path fill="#d8c1b8" fill-opacity=".5" d="M205.4 50.5l-10 12-2.4-2 10-12z"/><path fill="#6f5a48" fill-opacity=".5" d="M171.2 112.6L182 88.3l1.5.7-10.8 24.2z"/><path fill="#cedad5" fill-opacity=".5" d="M261.7 160.7l.2-1.5 40.4 3.5-.1 1.6z"/><path fill="#dedbd3" fill-opacity=".5" d="M166.1 92.3l-1.3-.8 14.4-26 1.3.8z"/><path fill="#b08d6a" fill-opacity=".5" d="M187 52.5l.8 4.7-7.7 1.2-.7-4.6z"/><path fill="#5b4942" fill-opacity=".5" d="M217.3 141.6l-.6 1.4-4.3-1.8.6-1.4z"/><path fill="#d4e1db" fill-opacity=".5" d="M315 164l-.3-3.2 12.4-1.3.4 3.1z"/><path fill="#d3d1c4" fill-opacity=".5" d="M230.3 179.5l11.3-42.2 1.5.4-11.3 42.2z"/><path fill="#f1f3f4" fill-opacity=".5" d="M140.1 30.2l-4.6 37.2-121-14.8 4.6-37.2z"/><path fill="#303127" fill-opacity=".5" d="M73.8 191.2l2.4-15.4 1.6.2-2.5 15.4z"/><path fill="#bba395" fill-opacity=".5" d="M216.5 64.6l-6 2-.4-1.5 6-2z"/><path fill="#a04334" fill-opacity=".5" d="M193.2 53l-1-1.2 6.8-6.3 1 1z"/><path fill="#6c3f0f" fill-opacity=".5" d="M170.8 62l-.9-1.4 7.7-5.3 1 1.2z"/><path fill="#6f6158" fill-opacity=".5" d="M185.8 83.6L186 96h-1.5l-.2-12.5z"/><path fill="#c1beac" fill-opacity=".5" d="M142 98.4l-1.4-.7 3.3-7 1.4.6z"/><path fill="#292615" fill-opacity=".5" d="M264.3 214.3l9-46 1.5.2-9 46z"/><path fill="#baafa2" fill-opacity=".5" d="M169.6 132.5l11-35.8 1.4.4-11 35.9z"/><path fill="#5e625c" fill-opacity=".5" d="M373.5 164.9l.2-1.6 29.4 4.7-.3 1.5z"/><path fill="#f3f6f4" fill-opacity=".5" d="M201.6 43.5l23.4.5v4.6l-23.5-.4z"/><path fill="#828583" fill-opacity=".5" d="M280.8 169.8l33.3-8.3.4 1.5-33.3 8.3z"/><path fill="#60482a" fill-opacity=".5" d="M144.8 117.7l6.6 10.6-4 2.5-6.6-10.6z"/><path fill="#eaeeec" fill-opacity=".5" d="M161.8 85.1l-2.3-2 17.8-19.8 2.3 2z"/><path fill="#89766c" fill-opacity=".5" d="M184.8 73l-4.5-1 2-9.1 4.6 1z"/><path fill="#947158" fill-opacity=".5" d="M205.2 83.4l7.7 5.4-1 1.2-7.6-5.3z"/><path fill="#8a7456" fill-opacity=".5" d="M146 88l-.3 1.6-18.3-4.2.4-1.6z"/><path fill="#c1c6c4" fill-opacity=".5" d="M328.2 148l1.2 6.2-12.3 2.4-1.2-6.1z"/><path fill="#685839" fill-opacity=".5" d="M156 119.5l-1.2-.8 3.2-5.4 1.3.8z"/><path fill="#69716e" fill-opacity=".5" d="M16.5 172l1.6-2.6 1.4.8-1.7 2.6z"/><path fill="#82623a" fill-opacity=".5" d="M161.8 138.6l-4.1 4.6-2.4-2 4.2-4.7z"/><path fill="#c6beab" fill-opacity=".5" d="M242.6 171.1l-.8-43.7h1.6l.7 43.7z"/><path fill="#decaa1" fill-opacity=".5" d="M146.2 58.7l9.9 4.6-.7 1.4-10-4.6z"/><path fill="#b1afad" fill-opacity=".5" d="M224.3 78l-1.5.2-1.8-20.3 1.5-.1z"/><path fill="#b9b09e" fill-opacity=".5" d="M151.7 81.2l-5.3 7.8-9-6.1 5.2-7.8z"/><path fill="#a6abad" fill-opacity=".5" d="M36.8 176.6l-1.5-.2 1.3-10.8 1.6.2z"/><path fill="#a99471" fill-opacity=".5" d="M159.2 149.8l2.8 1.4-10.3 19.3-2.7-1.4z"/><path fill="#a38328" fill-opacity=".5" d="M149.6 53.5l11 6-2.4 4.2-10.9-6z"/><path fill="#79624c" fill-opacity=".5" d="M249.1 179l1.5.5-13.8 40-1.4-.6z"/><path fill="#c4b594" fill-opacity=".5" d="M120.8 76.7l1 1-6.7 6.6-1-1.1z"/><path fill="#8e9695" fill-opacity=".5" d="M391 168l-.6-1.5 17-7.9.6 1.4z"/><path fill="#3f2a1a" fill-opacity=".5" d="M214.7 144l-1.3 4.6-1.5-.5 1.3-4.5z"/><path fill="#cdd0c9" fill-opacity=".5" d="M220.1 149l4.5 1.2-18.2 68-4.5-1.3z"/><path fill="#d2dddc" fill-opacity=".5" d="M283.4 158.8l1 1.2-10 7.7-.9-1.2z"/><path fill="#a7adaa" fill-opacity=".5" d="M327.4 162l31.2 1v1.6l-31.3-1z"/><path fill="#726a66" fill-opacity=".5" d="M185.6 90.9l4 2.4-4.8 8-4-2.4z"/><path fill="#6b342a" fill-opacity=".5" d="M192 55.9l-1-3 3-1 1 3z"/><path fill="#404241" fill-opacity=".5" d="M267.2 172l32.6-3.4.2 1.6-32.6 3.4z"/><path fill="#f1f4f2" fill-opacity=".5" d="M161.2 47.2l-15.2 11-11.9-16.4 15.2-11z"/><path fill="#989e9c" fill-opacity=".5" d="M71.8 173l7.5-2.2.5 1.5-7.6 2.2z"/><path fill="#d0b8ac" fill-opacity=".5" d="M195.3 72.7l1.4 7.7-9.2 1.6-1.4-7.7z"/><path fill="#746954" fill-opacity=".5" d="M150 128.5l6.5-12.4 1.4.7-6.6 12.4z"/><path fill="#31261b" fill-opacity=".5" d="M315 172.7l-7.6-1.8 1-4.5 7.7 1.7z"/><path fill="#ccbb97" fill-opacity=".5" d="M151.4 68.4l-10.9-1 .3-3 10.9 1z"/><path fill="#ecf1ef" fill-opacity=".5" d="M311.2 116.4l-43.8 1.5-2-57.7 43.7-1.6z"/><path fill="#70574b" fill-opacity=".5" d="M172.4 112l1.3.7-10.1 17.6-1.4-.8z"/><path fill="#a08f72" fill-opacity=".5" d="M157.9 74.4l-.8 1.4-13.4-8 .8-1.4z"/><path fill="#b6bec0" fill-opacity=".5" d="M22.7 172.7v3H3.9v-3z"/><path fill="#b2b9b9" fill-opacity=".5" d="M301.5 163.9l-10.4 3.4-.4-1.5 10.4-3.4z"/><path fill="#8f7a68" fill-opacity=".5" d="M202.6 100l1.5.1-2 23.4-1.6-.2z"/><path fill="#c4c3b2" fill-opacity=".5" d="M144.3 141.7L115.5 111l1.2-1 28.7 30.8z"/><path fill="#968a66" fill-opacity=".5" d="M243.3 166.5l-4 10.3-2.9-1.2 4-10.2z"/><path fill="#b0b5af" fill-opacity=".5" d="M75.8 181.9l16.8-3.6 8.1 38.2-16.8 3.6z"/><path fill="#755f53" fill-opacity=".5" d="M206.1 87.5l-2.6-3.8 1.3-1 2.6 4z"/><path fill="#4a3b25" fill-opacity=".5" d="M282 191.6l-1.4-15.6 4.6-.4 1.4 15.6z"/><path fill="#ad9886" fill-opacity=".5" d="M186.6 70l-14.1 18.7-1.3-.9 14.1-18.7z"/><path fill="#c4b8b0" fill-opacity=".5" d="M182 88.2l1.5.4-1.5 6-1.5-.4z"/><path fill="#dcd9c6" fill-opacity=".5" d="M121.3 73.4l-.2-1.6 24.8-3 .2 1.5z"/><path fill="#434839" fill-opacity=".5" d="M347.6 167.8l.3-1.5 9.2 1.8-.3 1.5z"/><path fill="#3c311c" fill-opacity=".5" d="M333.5 224.2l-1.5-.4 14.2-49.6 1.5.5z"/><path fill="#656b69" fill-opacity=".5" d="M311.7 156.1l1.5.5-1.5 4.5-1.5-.5z"/><path fill="#353326" fill-opacity=".5" d="M387.9 170.6l-15.2-3.8.4-1.5 15.1 3.8z"/><path fill="#1f1d10" fill-opacity=".5" d="M2.3 194.5h43.8v9.4H2.3z"/><path fill="#c8cec6" fill-opacity=".5" d="M152.6 137l-7.6 7.9-2.3-2.2 7.6-7.9z"/><path fill="#674b0c" fill-opacity=".5" d="M153.3 54l1 1.2-6 4.9-1-1.2z"/><path fill="#dde5e5" fill-opacity=".5" d="M332.7 152.8l-47.5-15.4 2.4-7.4 47.5 15.4z"/><path fill="#1c1a0f" fill-opacity=".5" d="M392.5 179.7l3.7 26.3-46.5 6.5-3.7-26.3z"/><path fill="#bfc3bb" fill-opacity=".5" d="M175.6 157.3L165 154l7.8-25.4 10.4 3.2z"/><path fill="#5d5c4f" fill-opacity=".5" d="M367 160.7l-3.3 3.2-1-1.1 3.3-3.3z"/><path fill="#bdc2bb" fill-opacity=".5" d="M226.8 69.6l-16.2 47.3-1.5-.5L225.4 69z"/><path fill="#f4f6f7" fill-opacity=".5" d="M1.4-12.2l259 13.5-1 18.8L.5 6.5z"/><path fill="#a28c64" fill-opacity=".5" d="M153.4 161.8l-3.1-.6 4.2-21.5 3 .6z"/><path fill="#3f2d1e" fill-opacity=".5" d="M187.9 58.5l-4.4 4.4-1-1 4.3-4.5z"/><path fill="#e3e7e8" fill-opacity=".5" d="M-5.5 133.6h97v18.7h-97z"/><path fill="#f1f4f5" fill-opacity=".5" d="M185.1 21l9.4 12.6-25 18.8-9.3-12.5z"/><path fill="#e7e7db" fill-opacity=".5" d="M77.3 197.3l-1.5 4.4-1.5-.5 1.5-4.5z"/><path fill="#e2d4ca" fill-opacity=".5" d="M212 54.2l-12.2 7-.8-1.3 12.2-7z"/><path fill="#dce2df" fill-opacity=".5" d="M289 155.8l-.4-1.6 36.5-8.4.4 1.5z"/><path fill="#866b49" fill-opacity=".5" d="M141.3 108.5l-1.1 1.1-23.6-22.8 1-1.1z"/><path fill="#cdc290" fill-opacity=".5" d="M149.7 54.1l.4 1.6-4.5 1-.4-1.4z"/><path fill="#8f8a7a" fill-opacity=".5" d="M231 155.4l.5 12.5h-1.6l-.4-12.4z"/><path fill="#4e3700" fill-opacity=".5" d="M164 67.2l-1.4.8-3-5.5 1.3-.8z"/><path fill="#8f7e77" fill-opacity=".5" d="M213.7 53.4l9.9 15.9-1.3.8-10-16z"/><path fill="#5b4225" fill-opacity=".5" d="M131.8 108.5l2 6-1.5.4-2-6z"/><path fill="#9d887e" fill-opacity=".5" d="M220.6 105.5l-.6-18.7 4.7-.2.6 18.8z"/><path fill="#eeddc3" fill-opacity=".5" d="M153.3 61.9l8.2 4.5-.7 1.4-8.2-4.5z"/><path fill="#4b4c44" fill-opacity=".5" d="M24 183.6l-.4 1.5-33.5-7.7.4-1.6z"/><path fill="#a89980" fill-opacity=".5" d="M132.8 103.5l-.7-1.4 8.5-4 .7 1.4z"/><path fill="#c2c9cb" fill-opacity=".5" d="M56.6 171l-1.2 1-7.4-10.2 1.3-1z"/><path fill="#8c6100" fill-opacity=".5" d="M150.7 57.1l.3-1.5 6.1 1.3-.3 1.5z"/><path fill="#b7a98c" fill-opacity=".5" d="M157 106.4l6.2-.3.1 1.5-6.2.4z"/><path fill="#d0d6d4" fill-opacity=".5" d="M363 144l5.3 3.1-7.8 13.6-5.4-3.2z"/><path fill="#d6dfdd" fill-opacity=".5" d="M396.4 155.5l-.8 6.1-21.7-3 .9-6.2z"/><path fill="#bba48b" fill-opacity=".5" d="M253.3 135.3l1.5.3-6.5 37-1.5-.4z"/><path fill="#b8bdbc" fill-opacity=".5" d="M321.8 148l-3 12.2-1.5-.4 3-12.1z"/><path fill="#9fa5a8" fill-opacity=".5" d="M272 167.7l-.2-1.5 20.3-1.1.1 1.6z"/><path fill="#c7c5bc" fill-opacity=".5" d="M207.8 63.2l1.5.4-12.5 43.6-1.5-.5z"/><path fill="#e6ce9b" fill-opacity=".5" d="M154.8 53.8l1-1.2 9.8 7.7-1 1.2z"/><path fill="#cfcfc9" fill-opacity=".5" d="M146.5 142.9l-2.8 1.5-7.3-13.8 2.7-1.5z"/><path fill="#c2a9a1" fill-opacity=".5" d="M195.4 77.2l1.4-15.6 3 .3-1.3 15.6z"/><path fill="#897364" fill-opacity=".5" d="M176 76.8l10.8-15.4 1.2.9-10.7 15.4z"/><path fill="#c8cac1" fill-opacity=".5" d="M228.2 146.8l-15.9 49-1.5-.4 16-49z"/><path fill="#e3e4da" fill-opacity=".5" d="M80.2 186.5l-1.5.3-1.1-6.1 1.5-.3z"/><path fill="#eef1ea" fill-opacity=".5" d="M98.5 91.7L127 65l1.1 1.2-28.6 26.6z"/><path fill="#dadad5" fill-opacity=".5" d="M213.5 200.8l6-24.2 9.2 2.2-6 24.3z"/><path fill="#cdcbbc" fill-opacity=".5" d="M127 134.2l2.3-17 1.6.2-2.4 17z"/><path fill="#cfd2c2" fill-opacity=".5" d="M113.3 100.5l-4 6.8-5.4-3.1 4-6.8z"/><path fill="#f1f3f4" fill-opacity=".5" d="M241.8 102.7l-26.2-72 19.1-6.9 26.2 72z"/><path fill="#c3c4bc" fill-opacity=".5" d="M138.7 196.3l-4.5-1.5L141 174l4.5 1.5z"/><path fill="#5f4a29" fill-opacity=".5" d="M265 177.3l1.3 9.3-1.6.2-1.3-9.3z"/><path fill="#b0b5b4" fill-opacity=".5" d="M289.7 149.6l2.4-2 1 1.2-2.4 2z"/><path fill="#ae8b63" fill-opacity=".5" d="M259.3 175.8h1.6l-3 43.7h-1.6z"/><path fill="#9a8e80" fill-opacity=".5" d="M183.5 77.9l-7.8 15.3-1.4-.7 7.8-15.4z"/><path fill="#32322b" fill-opacity=".5" d="M331.9 164.9l3.1 5.4-12.2 7-3.1-5.4z"/><path fill="#655346" fill-opacity=".5" d="M212.7 151.3l2.7-17 1.6.3-2.7 17z"/><path fill="#9da1a3" fill-opacity=".5" d="M35.2 176.3l-6.2.5-.1-1.6 6.2-.4z"/><path fill="#746e6d" fill-opacity=".5" d="M187.1 99.1l-8.8 16.6-1.4-.8 8.8-16.5z"/><path fill="#ddccc1" fill-opacity=".5" d="M204 61l12-3.2.4 1.5-12 3.2z"/><path fill="#dce2df" fill-opacity=".5" d="M228.6 111.3l3.8-21.6 3 .6-3.7 21.5z"/><path fill="#88663a" fill-opacity=".5" d="M134.7 119l6 5-2 2.4-6-5z"/><path fill="#5c514a" fill-opacity=".5" d="M182.9 86.7h-1.6l-.1-3 1.6-.1z"/><path fill="#af9f7d" fill-opacity=".5" d="M114.1 99.7l-.7 1.3-4.1-2.2.7-1.4z"/><path fill="#dde5e3" fill-opacity=".5" d="M308.6 145.2l-34.7 9.3-2.8-10.6 34.7-9.3z"/><path fill="#e2e9e5" fill-opacity=".5" d="M321 156.3v-11h3.2v11z"/><path fill="#d6b45c" fill-opacity=".5" d="M150.9 61.3l-.2-1.6 6.2-.6.2 1.5z"/><path fill="#8e7b60" fill-opacity=".5" d="M133.6 123.3l-1-1.2 10.4-9.4 1 1.1z"/><path fill="#424035" fill-opacity=".5" d="M344.5 165.8l1 1.2-10.4 9.4-1-1.2z"/><path fill="#b98f68" fill-opacity=".5" d="M172.5 58l-1.5-.7 2-4.3 1.4.6z"/><path fill="#1e1b0c" fill-opacity=".5" d="M266.4 195.9l61.3-12 1.2 6.2-61.3 11.9z"/><path fill="#857148" fill-opacity=".5" d="M125 111.7l3 5.5-1.4.8-3-5.5z"/><path fill="#d6d8d2" fill-opacity=".5" d="M149 147.6l-9.8 12.2-30.4-24.6 9.8-12.2z"/><path fill="#6b583f" fill-opacity=".5" d="M155.1 75.4l-7.8 5.2-.9-1.4 7.9-5z"/><path fill="#c4a896" fill-opacity=".5" d="M195.6 63.8l-4.7.5-.5-4.6 4.6-.6z"/><path fill="#b6a88e" fill-opacity=".5" d="M213.4 156.9l1.3-9.3 1.6.2-1.3 9.3z"/><path fill="#c4c3b1" fill-opacity=".5" d="M133.2 67.5l-7.7 5.4-.9-1.3 7.7-5.4z"/><path fill="#a19877" fill-opacity=".5" d="M241.7 166.5l-1.4.8-2.3-4.1 1.4-.8z"/><path fill="#7b6443" fill-opacity=".5" d="M143.2 100.7l.7 3-13.6 3.4-.8-3z"/><path fill="#29271c" fill-opacity=".5" d="M320.7 180.4l-.3 1.5-55.2-10.7.3-1.6z"/><path fill="#2b2a1b" fill-opacity=".5" d="M412.2 175.9l-27.8 4.4-1.2-7.7 27.7-4.4z"/><path fill="#b3a395" fill-opacity=".5" d="M211 73.2l.3-1.5 16.8 3.5-.3 1.6z"/><path fill="#8a7764" fill-opacity=".5" d="M245.1 166.8l3.6-16.8 1.5.4-3.6 16.8z"/><path fill="#a9b2af" fill-opacity=".5" d="M265.4 161.5l3 .5-1 6.2-3-.6z"/><path fill="#1e1f10" fill-opacity=".5" d="M370.4 164.1l2.4 7.5-10.4 3.3-2.4-7.4z"/><path fill="#c5b191" fill-opacity=".5" d="M112.5 82.6l14 .5v1.5l-14-.5z"/><path fill="#b6ac9d" fill-opacity=".5" d="M219.7 132l-1.5-.1 1.1-9.3 1.6.2z"/><path fill="#c5b38d" fill-opacity=".5" d="M236.3 115.7l-.7 20.3-1.6-.1.7-20.3z"/><path fill="#b29d85" fill-opacity=".5" d="M137.5 82l3 8.9-1.4.5-3-8.9z"/><path fill="#c8c7be" fill-opacity=".5" d="M217.2 113l1.5.4-21.8 81.5-1.5-.4z"/><path fill="#ab997c" fill-opacity=".5" d="M150.6 77.1l-4-4.8 1.3-1 3.9 4.9z"/><path fill="#e4e8e3" fill-opacity=".5" d="M151.2 80.7l19.7 4.9-5 19.7-19.6-5z"/><path fill="#352d1e" fill-opacity=".5" d="M57.5 180.4L62 182l-8.5 23.5L49 204z"/><path fill="#dde0d9" fill-opacity=".5" d="M171.5 94.4l-1.4.6-5.7-12.8 1.4-.7z"/><path fill="#baa29a" fill-opacity=".5" d="M212 135l1-6.2 1.6.3-1 6.1z"/><path fill="#f1f5f6" fill-opacity=".5" d="M151.5 52.2l4-10.1 10.2 4.1-4 10.1z"/><path fill="#8c806f" fill-opacity=".5" d="M210.4 160.1l1-18.7h1.6l-1 18.8z"/><path fill="#d2d9d8" fill-opacity=".5" d="M356.1 158l.2 1.5-42.1 3-.1-1.7z"/><path fill="#9f9790" fill-opacity=".5" d="M219.5 76.4l-1.4-.7 4.6-9.9 1.4.7z"/><path fill="#d2ae9c" fill-opacity=".5" d="M206.5 77.7l8-4.8 2.4 4-8 4.9z"/><path fill="#9d9e95" fill-opacity=".5" d="M311.7 160.5l1.5-.4 1.7 6-1.5.4z"/><path fill="#dee4e0" fill-opacity=".5" d="M13.6 152.7l-8.9 20-4.3-2 9-20z"/><path fill="#d9dad5" fill-opacity=".5" d="M147.4 187.2l6.7 4.2-12.5 19.8-6.6-4.1z"/><path fill="#bbc1be" fill-opacity=".5" d="M83 177.7l-.2-1.5 10.7-2.3.3 1.5z"/><path fill="#2e2e23" fill-opacity=".5" d="M76.3 180.7l-129 13.6-.2-1.6 129-13.5z"/><path fill="#c1b7a2" fill-opacity=".5" d="M238.8 153.2l13.3-21.2 1.3.8L240 154z"/><path fill="#89745a" fill-opacity=".5" d="M146.2 87.5L130.7 89l-.4-3.1 15.6-1.7z"/><path fill="#6c573a" fill-opacity=".5" d="M142.7 133l-2.3-9 9.1-2.3 2.3 9z"/><path fill="#6c3419" fill-opacity=".5" d="M190.3 43.2l2.9 1.3-.7 1.4-2.8-1.3z"/><path fill="#491e11" fill-opacity=".5" d="M193.2 52.4l-2.9 1.3-.6-1.4 2.8-1.3z"/><path fill="#454c49" fill-opacity=".5" d="M76 176.2l1.4-.6 1.3 2.9-1.4.6z"/><path fill="#8e9492" fill-opacity=".5" d="M313.3 162.8l-3-1.2 3-7.2 2.9 1.2z"/><path fill="#e6ebe8" fill-opacity=".5" d="M289.3 109.8l4.3 15-37.6 10.7-4.3-15z"/><path fill="#c7bdab" fill-opacity=".5" d="M140.9 70.2l1.5-.5 5.8 17.9-1.5.5z"/><path fill="#a69675" fill-opacity=".5" d="M241.4 175.2l1.4.6-20.1 47.5-1.5-.7z"/><path fill="#a06244" fill-opacity=".5" d="M181.3 56l-5.5-2.8.7-1.4 5.5 2.8z"/><path fill="#b9c1be" fill-opacity=".5" d="M337.7 146.5l-1.2 1-3.9-5 1.2-1z"/><path fill="#d7d7d3" fill-opacity=".5" d="M147.6 63.2l9.3-1.3.2 1.5-9.3 1.3z"/><path fill="#a28d6f" fill-opacity=".5" d="M110.2 86.5V85l34.3-1.2v1.5z"/><path fill="#c5c3b0" fill-opacity=".5" d="M142.3 185.2l-.2-15.6 4.6-.1.3 15.6z"/><path fill="#c4c4b9" fill-opacity=".5" d="M221.8 211.4l-1.5-.5 15.8-45.8 1.4.5z"/><path fill="#e0e3e0" fill-opacity=".5" d="M120.7 121.8l-16.2 47.3-23.7-8.1 16.3-47.3z"/><path fill="#655752" fill-opacity=".5" d="M189.5 63.6l-1 3-1.4-.5.9-3z"/><path fill="#bcb8ba" fill-opacity=".5" d="M190.1 98.6l-11.6 23.8-1.4-.6 11.6-24z"/><path fill="#73562d" fill-opacity=".5" d="M124 93.8l-.8-1.3 10.6-6.6.8 1.3z"/><path fill="#bbb9ad" fill-opacity=".5" d="M198 211.3l-1.5-.5 16.5-45.5 1.5.5z"/><path fill="#c0af8c" fill-opacity=".5" d="M259.1 190l3-1 5.3 16.3-3 1z"/><path fill="#342c20" fill-opacity=".5" d="M359.2 167l.4 11-7.8.3-.4-11z"/><path fill="#98887a" fill-opacity=".5" d="M200.3 128.1l-1.5-.1 2.4-23.3 1.6.1z"/><path fill="#ad9b82" fill-opacity=".5" d="M135.5 115.2l7.5-8 1.1 1-7.4 8z"/><path fill="#b9b3a3" fill-opacity=".5" d="M146.5 151.7L163 118l1.4.6-16.4 33.8z"/><path fill="#d1d3c9" fill-opacity=".5" d="M126 119.5l5.6 22.8-9 2.2-5.8-22.7z"/><path fill="#211d0b" fill-opacity=".5" d="M57.8 190.6h14v17.2h-14z"/><path fill="#cec6b3" fill-opacity=".5" d="M240.8 125.2l8.5-4 5.2 11.4-8.5 4z"/><path fill="#8e6b43" fill-opacity=".5" d="M160.5 141l-2.3 10.6-1.5-.3 2.3-10.7z"/><path fill="#9a8c6d" fill-opacity=".5" d="M264.4 180.4l-1.5.1-.8-6.2 1.6-.2z"/><path fill="#5e605c" fill-opacity=".5" d="M272.3 169.4l-3.7-5 1.3-1 3.7 5z"/><path fill="#9ba09e" fill-opacity=".5" d="M-1.7 161.3l.8-1.4 4.1 2.2-.7 1.4z"/><path fill="#c07169" fill-opacity=".5" d="M200.7 50.2l-6.8-3.8.7-1.3 6.9 3.8z"/><path fill="#907d57" fill-opacity=".5" d="M138 125.7l4.3 1.8-.6 1.4-4.3-1.7z"/><path fill="#b4b49f" fill-opacity=".5" d="M158.9 73l3 1-.5 1.4-3-.9z"/><path fill="#6b604f" fill-opacity=".5" d="M217.9 122.4l-1.4-.8 4.7-8 1.4.7z"/><path fill="#ecf0f0" fill-opacity=".5" d="M95.6 126.6l-89 1.5-.7-37.5 89-1.5z"/><path fill="#c2b59c" fill-opacity=".5" d="M253.3 132.8l2.7 13.8-1.5.3-2.7-13.8z"/><path fill="#baa282" fill-opacity=".5" d="M155.1 106.6l7.5 2.5-.5 1.4-7.5-2.4z"/><path fill="#553f21" fill-opacity=".5" d="M148.4 118.8v7.8h-4.7v-7.8z"/><path fill="#4d3720" fill-opacity=".5" d="M183.6 57.3l1.3 4.5-4.5 1.3-1.3-4.6z"/><path fill="#b08b6f" fill-opacity=".5" d="M205.2 93.2l4-11.8 6 2-4.1 11.8z"/><path fill="#b0ada0" fill-opacity=".5" d="M194.4 144.6l-1.3-12.5 1.6-.1 1.3 12.4z"/><path fill="#dedfd7" fill-opacity=".5" d="M169.7 94.8l-2 9.2-1.5-.4 2-9.1z"/><path fill="#79593b" fill-opacity=".5" d="M111.2 85.9l1-1.3 12.5 9.2-.9 1.3z"/><path fill="#403625" fill-opacity=".5" d="M167.1 132.5l-3 9-1.5-.6 3-8.9z"/><path fill="#49362a" fill-opacity=".5" d="M214.2 147.6h-1.6l-.2-6.2h1.6z"/><path fill="#735127" fill-opacity=".5" d="M143.8 121.2l-.3 1.5-7.6-1.7.3-1.5z"/><path fill="#e9eeeb" fill-opacity=".5" d="M171 79.4l-16.5 14.3-5.2-5.9 16.5-14.3z"/><path fill="#454342" fill-opacity=".5" d="M304 170.2l-3 .2-.3-4.7 3-.2z"/><path fill="#d8e0e0" fill-opacity=".5" d="M66 160.6l11 .7-.8 11-11-.8z"/><path fill="#c2c3b8" fill-opacity=".5" d="M219.7 119.7l1.6-.3 1.2 6.2-1.6.3z"/><path fill="#626962" fill-opacity=".5" d="M359.8 165.4l-3.5-3.1 1-1.2 3.6 3.2z"/><path fill="#23200d" fill-opacity=".5" d="M348.1 170.4l-12.3 12-1.1-1.2 12.3-12z"/><path fill="#c6bf99" fill-opacity=".5" d="M229.8 155.3l3-1 1.4 4.5-3 1z"/><path fill="#cdaf93" fill-opacity=".5" d="M180.2 49.3l-.6-1.4 4.3-1.9.6 1.5z"/><path fill="#bcb7ad" fill-opacity=".5" d="M211.4 101l-1.3-1 11.3-15 1.3 1z"/><path fill="#bfa28b" fill-opacity=".5" d="M169 101.4l1.5-.7 2.6 5.7-1.4.7z"/><path fill="#c3c5ba" fill-opacity=".5" d="M166.1 114.8l-1 1.2-4.7-4.2 1-1.2z"/><path fill="#e7ece8" fill-opacity=".5" d="M107.4 129.1l4-23 4.7.7L112 130z"/><path fill="#615f59" fill-opacity=".5" d="M392.5 166.5l4.5 1.4-.5 1.5-4.4-1.4z"/><path fill="#d2d2cb" fill-opacity=".5" d="M199.1 150.6l4.5 1.6-16.8 48.7-4.4-1.5z"/><path fill="#6c6c6a" fill-opacity=".5" d="M60.8 175.7l-10 4.7-.6-1.5 9.9-4.6z"/><path fill="#796a4e" fill-opacity=".5" d="M152.4 67.3l-.1-1.5 3-.3.2 1.5z"/><path fill="#acb1ae" fill-opacity=".5" d="M12.8 159l1-4.6 3 .7-1 4.6z"/><path fill="#242013" fill-opacity=".5" d="M402.8 163.8l8 4.8-15.2 25.4-8-4.8z"/><path fill="#f2f4f5" fill-opacity=".5" d="M232.5 33.5l-4 15-90.6-24.2 4-15z"/><path fill="#b3b7af" fill-opacity=".5" d="M313 160.6l1.5-.5 2.2 5.8-1.5.6z"/><path fill="#332d17" fill-opacity=".5" d="M268.2 179.7l1.6.1-2.1 17.1-1.6-.2z"/><path fill="#64472c" fill-opacity=".5" d="M136.9 112.8L123 102.5l1-1.3 13.7 10.4z"/><path fill="#cac7b8" fill-opacity=".5" d="M133.2 136l1-6.2 9.2 1.4-1 6.2z"/><path fill="#521c09" fill-opacity=".5" d="M195.4 52.3l-2.6-1.7.8-1.3 2.7 1.6z"/><path fill="#aa978b" fill-opacity=".5" d="M208.2 62.9l7.7.8-.6 6.2-7.8-.8z"/><path fill="#b1b7b6" fill-opacity=".5" d="M363.9 161.3l-2-2.4 7-6.1 2 2.3z"/><path fill="#f3cfbf" fill-opacity=".5" d="M194.2 43l2.5-4 1.3.8-2.5 4z"/><path fill="#a5958a" fill-opacity=".5" d="M222.2 100l1.4.8-3.6 7-1.4-.8z"/><path fill="#d9cbbe" fill-opacity=".5" d="M214.5 63.7l-9-2.4.3-1.5 9 2.4z"/><path fill="#5a5e56" fill-opacity=".5" d="M338.2 171l-9.9-4.6.7-1.5 9.9 4.7z"/><path fill="#d4d0c4" fill-opacity=".5" d="M240.6 115.4l3.2 26.4-4.7.6L236 116z"/><path fill="#cdcec8" fill-opacity=".5" d="M196.8 79.8l4.7.6-12.4 88.2-4.6-.6z"/><path fill="#705c4e" fill-opacity=".5" d="M190.5 58.5l.3 3.1-1.6.2-.3-3.1z"/><path fill="#818b85" fill-opacity=".5" d="M11.1 170.8l-2.7 1.5-2.3-4 2.7-1.6z"/><path fill="#aa9c94" fill-opacity=".5" d="M225.1 79.7l5.3 3.4-.9 1.3-5.2-3.4z"/><path fill="#af9e88" fill-opacity=".5" d="M169.2 115.4l-3.5-3 1-1.2 3.6 3z"/><path fill="#d4d7d2" fill-opacity=".5" d="M124.8 168.8l2.8 9-16.5 5-2.7-9z"/><path fill="#bdbbab" fill-opacity=".5" d="M230.4 190l1.5.4-4.5 15-1.5-.5z"/><path fill="#b2b0ab" fill-opacity=".5" d="M190.3 165.6l.7 7.8h-1.6l-.7-7.7z"/><path fill="#e3dfb4" fill-opacity=".5" d="M149 52.8l.4-1.5 3 .6-.3 1.5z"/><path fill="#755f4f" fill-opacity=".5" d="M209.5 68.5l1-1.1 3.5 3.1-1 1.2z"/><path fill="#c3c6bd" fill-opacity=".5" d="M207 53.2l-.7-1.4 7-3.4.7 1.4z"/><path fill="#937c5e" fill-opacity=".5" d="M249.5 200.8l-2.1-24.9 1.5-.1 2.2 24.9z"/><path fill="#3c3933" fill-opacity=".5" d="M48.4 181l26.4-2.7.2 1.6-26.4 2.7z"/><path fill="#cfc2aa" fill-opacity=".5" d="M235.7 149.2l.5-31.2h1.6l-.6 31.2z"/><path fill="#d2dbd9" fill-opacity=".5" d="M42.1 165.6l1 3-14.9 4.8-1-3z"/><path fill="#9d8569" fill-opacity=".5" d="M128.4 82.9l-1-1.3 5.2-3.6.9 1.3z"/><path fill="#b9bab6" fill-opacity=".5" d="M180.5 118l9 2.4-6 22.6-9-2.4z"/><path fill="#b6b1a5" fill-opacity=".5" d="M161 118.7l2.6 1.7L153 136l-2.6-1.8z"/><path fill="#a08472" fill-opacity=".5" d="M186.6 62l5.2-7.7 1.3.8L188 63z"/><path fill="#daddd9" fill-opacity=".5" d="M104.7 192.7l-1.5.3-3.3-18.5 1.6-.3z"/><path fill="#c5cfcc" fill-opacity=".5" d="M11.8 172.6l-9.2 1.6-.3-1.5 9.2-1.6z"/><path fill="#1e1f15" fill-opacity=".5" d="M6.6 213.6l-3.4-3.2 23-25.5 3.4 3.1z"/><path fill="#3b3f38" fill-opacity=".5" d="M323 171.2l-1.5-.2.8-6.2 1.5.2z"/><path fill="#c7bda4" fill-opacity=".5" d="M139.8 128.1l-1.7 6-4.5-1.3 1.7-6z"/><path fill="#181606" fill-opacity=".5" d="M338.6 204.8l6.5-15.9 11.6 4.7-6.5 16z"/><path fill="#e2e8e6" fill-opacity=".5" d="M269.8 141.3l-.5-14 131.2-4.6.5 14z"/><path fill="#c5c5bd" fill-opacity=".5" d="M168.3 147l15.1 3.7-6.4 25.8-15.1-3.8z"/><path fill="#56574d" fill-opacity=".5" d="M74.4 201l-1.5-.6 1.1-3 1.5.6z"/><path fill="#dcded6" fill-opacity=".5" d="M222 181.7l-1.5-.4 9-36.4 1.6.4z"/><path fill="#a49b81" fill-opacity=".5" d="M154.3 169l-3-.8 2.2-7.5 3 .8z"/><path fill="#99a09d" fill-opacity=".5" d="M17 171l.3 3.2h-1.6l-.2-3z"/><path fill="#b9816f" fill-opacity=".5" d="M189.6 41.9l.4 1.5-3 .7-.4-1.6z"/><path fill="#303432" fill-opacity=".5" d="M31.3 180.1l-4.1 2.1-.7-1.4 4.1-2z"/><path fill="#aa8965" fill-opacity=".5" d="M151.8 114.7l6.2-7 1.2 1-6.3 7z"/><path fill="#bcb5ab" fill-opacity=".5" d="M226.6 72.7h1.5v28h-1.5z"/><path fill="#dddfda" fill-opacity=".5" d="M118.4 196.1l-.8-46.8 6.2-.1.8 46.8z"/><path fill="#b2b8b6" fill-opacity=".5" d="M327.1 155.3l-3.9-4.9 1.2-1 4 4.9z"/><path fill="#bbbfc0" fill-opacity=".5" d="M40.6 172.7l-1.4.7-3.3-7 1.4-.7z"/><path fill="#e7d4c5" fill-opacity=".5" d="M185 41.7l1 1.2-22.5 17-1-1.3z"/><path fill="#6f5e50" fill-opacity=".5" d="M243.9 172.7l-.3-6.3h1.6l.2 6.2z"/><path fill="#6f552f" fill-opacity=".5" d="M125.2 85.8l1.2 1-6.3 7-1.2-1z"/><path fill="#a2947c" fill-opacity=".5" d="M148.3 64.6l4.6-1 .3 1.5-4.5 1z"/><path fill="#a89c8b" fill-opacity=".5" d="M138.3 98.4l5.5-2.9.7 1.4-5.5 3z"/><path fill="#d4d7d2" fill-opacity=".5" d="M122.2 165l12.5-.3 1 53.2-12.6.2z"/><path fill="#18190a" fill-opacity=".5" d="M6.2 183.5L4.5 188l-2.9-1.1 1.7-4.4z"/><path fill="#5c5f56" fill-opacity=".5" d="M357 162.2l15.7.6v1.5l-15.7-.5z"/><path fill="#d3b9a2" fill-opacity=".5" d="M176 74l1.1-6.1 1.6.3-1.1 6.1z"/><path fill="#f1f2f1" fill-opacity=".5" d="M312 70.8L393.8-30 430-.5l-81.6 100.8z"/><path fill="#444537" fill-opacity=".5" d="M-17.8 179.2l.3-1.5 36.8 7.1-.3 1.6z"/><path fill="#c5cbc8" fill-opacity=".5" d="M296.2 158.9l12.7-6.2 2.7 5.6-12.6 6.2z"/><path fill="#272314" fill-opacity=".5" d="M71.5 179.5L50 204.3l-1.2-1 21.5-24.8z"/><path fill="#a28065" fill-opacity=".5" d="M164.2 61.3l-.2-1.5 4.6-.8.3 1.5z"/><path fill="#bec0b7" fill-opacity=".5" d="M221 92.5l-17.2 29.8-1.4-.8 17.2-29.7z"/><path fill="#d8dfd8" fill-opacity=".5" d="M102.8 116.6l-4.7-4 10-12 4.8 4z"/><path fill="#f2f4f5" fill-opacity=".5" d="M200.8 46.9v-36h50v36z"/><path fill="#b59d8a" fill-opacity=".5" d="M204.4 88.2l1.4.6-2.4 5.8-1.4-.6z"/><path fill="#a1a6a5" fill-opacity=".5" d="M303 146.2l1.5-.2.3 3.1-1.5.2z"/><path fill="#bcb6a4" fill-opacity=".5" d="M230.7 137.4l1-20.2h1.6l-1 20.3z"/><path fill="#dee1dd" fill-opacity=".5" d="M178 67l-9.5 12.3-1.3-1L177 66z"/><path fill="#b6968e" fill-opacity=".5" d="M199.5 49.9l1 4.6-1.6.3-1-4.6z"/><path fill="#947051" fill-opacity=".5" d="M204.2 96l-.4-1.5L210 93l.4 1.5z"/><path fill="#ccb890" fill-opacity=".5" d="M117.3 83.5l-1-1.3 11.7-7.9 1 1.3z"/><path fill="#606163" fill-opacity=".5" d="M32.4 178.1l4.5-1.4 1 3-4.5 1.4z"/><path fill="#d6d7cc" fill-opacity=".5" d="M210.3 54.8L202 78.5l-1.4-.5 8.1-23.7z"/><path fill="#dce4df" fill-opacity=".5" d="M16.3 162.6l1.4.6-4.3 10.1-1.4-.6z"/><path fill="#655a42" fill-opacity=".5" d="M154.4 74.1l1.1 1-2 2.4-1.2-1z"/><path fill="#d8dfdc" fill-opacity=".5" d="M264 155l26.6-.5v7.8l-26.5.4z"/><path fill="#726b66" fill-opacity=".5" d="M180.6 109.6l-1.4-.7 7.4-13.8 1.4.7z"/><path fill="#886d60" fill-opacity=".5" d="M216.8 58.7l3.8 11.8-1.4.5-4-11.9z"/><path fill="#685238" fill-opacity=".5" d="M160.5 71.1l-1.3.8-2.5-4 1.3-.8z"/><path fill="#999487" fill-opacity=".5" d="M227.4 170l1.5-4.5 1.5.5-1.5 4.4z"/><path fill="#846d55" fill-opacity=".5" d="M210.1 92l1.6 4.5-1.5.5-1.5-4.4z"/><path fill="#dfe5e3" fill-opacity=".5" d="M294.6 161.8l7.7-28.7 1.5.4-7.7 28.7z"/><path fill="#535757" fill-opacity=".5" d="M294.8 164l1 7.8-1.6.1-1-7.7z"/><path fill="#2e2d24" fill-opacity=".5" d="M44.4 177.4l-4.6 10-1.4-.7 4.6-10z"/><path fill="#bfb59d" fill-opacity=".5" d="M239.7 163.3l8.2-28.6 1.5.5-8.2 28.5z"/><path fill="#d68a70" fill-opacity=".5" d="M195.2 43l1 1.1-2.4 2-1-1.2z"/><path fill="#dde4e1" fill-opacity=".5" d="M341.5 136.3l15.3 7.8-9.2 18-15.3-7.7z"/><path fill="#85807f" fill-opacity=".5" d="M212.6 52.2l3-1 1.5 4.4-3 1z"/><path fill="#f6e3d9" fill-opacity=".5" d="M187 42.8l-1.2-1 3.7-5 1.3 1z"/><path fill="#b4aa97" fill-opacity=".5" d="M146.6 82.9l3.5 7-1.4.7-3.5-7z"/><path fill="#b5bab8" fill-opacity=".5" d="M300.6 154.5l.3 1.5-3.1.5-.2-1.6z"/><path fill="#80664c" fill-opacity=".5" d="M199.3 104.1l3.4-5.2 2.7 1.7-3.4 5.2z"/><path fill="#b0b8b5" fill-opacity=".5" d="M371 158.3l1.5-.6 1.8 4.3-1.5.6z"/><path fill="#2a2820" fill-opacity=".5" d="M288.3 172.2l.2-1.5 15.4 2.4-.2 1.6z"/><path fill="#abb1ad" fill-opacity=".5" d="M94.2 182.8L71 210.4l-1.2-1 23-27.6z"/><path fill="#9c9088" fill-opacity=".5" d="M224.8 73.5l3.4 10.4-1.5.4-3.4-10.4z"/><path fill="#cad1cd" fill-opacity=".5" d="M44.5 158.9l1.2 1-4.3 4.6-1.1-1z"/><path fill="#e4e2d9" fill-opacity=".5" d="M138.4 75l-5.5-5.6 2.2-2.2 5.5 5.6z"/><path fill="#8f744b" fill-opacity=".5" d="M161.9 147.4l.7 1.4-4.1 2.2-.8-1.4z"/><path fill="#5a4c43" fill-opacity=".5" d="M214.7 137.6l-1.2-7.7 1.5-.3 1.2 7.7z"/><path fill="#aeb4b0" fill-opacity=".5" d="M306.6 157.1l1 1.2-9.5 8-1-1.2z"/><path fill="#ac9a7f" fill-opacity=".5" d="M233.9 218.1l10.4-53.7 1.5.3-10.4 53.7z"/><path fill="#7c6212" fill-opacity=".5" d="M157.2 59l6.7 4-.8 1.4-6.7-4z"/><path fill="#a09483" fill-opacity=".5" d="M161.6 67.5l-1.4 4.5-1.5-.5 1.4-4.4z"/><path fill="#dfe5e4" fill-opacity=".5" d="M112.5 157l-3 13.7-64.2-13.6 3-13.8z"/><path fill="#cfd6d3" fill-opacity=".5" d="M227.2 131l-5.9-2 6.1-17.8 6 2z"/><path fill="#eff2f1" fill-opacity=".5" d="M261.4 89.4l-26.3 3.7-4.3-31 26.3-3.6z"/><path fill="#5b3f16" fill-opacity=".5" d="M161.9 62.2l6.7 4-.8 1.3-6.7-4z"/><path fill="#9d8976" fill-opacity=".5" d="M172.2 103l-1.5.2-.7-4.6 1.5-.3z"/><path fill="#a98c69" fill-opacity=".5" d="M253.4 206.3l-3.4-12 7.5-2.2 3.4 12z"/><path fill="#bbc1ba" fill-opacity=".5" d="M220.3 86l-12.5 64.3-1.5-.3 12.5-64.4z"/><path fill="#9b7b51" fill-opacity=".5" d="M156.4 151.2l1-1 3.4 3.2-1.1 1.2z"/><path fill="#c0d2d1" fill-opacity=".5" d="M426.6 159.4v1.5h-54.7v-1.5z"/><path fill="#b19533" fill-opacity=".5" d="M158 55.8l3.4 3.3-2.3 2.3-3.3-3.4z"/><path fill="#535652" fill-opacity=".5" d="M7.9 184.8l-.5-1.5 20.7-7.1.5 1.4z"/><path fill="#3e3b34" fill-opacity=".5" d="M389.3 167.6l-4 4.9-1.2-1 4-4.9z"/><path fill="#cfd1c8" fill-opacity=".5" d="M204.7 207.8l25-108.1 1.5.3-25 108.1z"/><path fill="#241b05" fill-opacity=".5" d="M280.3 181.2l.3 14-3.1.1-.3-14z"/><path fill="#b9a384" fill-opacity=".5" d="M248.3 139.5l1.5-.4 3.4 13.6-1.5.4z"/><path fill="#bebfaf" fill-opacity=".5" d="M259.6 158.3l5.4 5.7-1.2 1.1-5.3-5.7z"/><path fill="#b49c7b" fill-opacity=".5" d="M157.1 72.5l-3 .3-.3-3.2 3.1-.2z"/><path fill="#e5dbc6" fill-opacity=".5" d="M141.4 134l-4-2.5.9-1.4 4 2.5z"/><path fill="#dfcfa9" fill-opacity=".5" d="M151.4 60.2l2.7 1.7-.8 1.3-2.7-1.6z"/><path fill="#7c685b" fill-opacity=".5" d="M143 84.8l-1.7 4.4-1.5-.6 1.8-4.3z"/><path fill="#5b451a" fill-opacity=".5" d="M145.2 59l.3-1.6 4.6.8-.3 1.6z"/><path fill="#a2a79b" fill-opacity=".5" d="M169 126.9l2.6-1.7 1.7 2.6-2.7 1.7z"/><path fill="#e2dcd2" fill-opacity=".5" d="M200.8 69.5l1.5-21.9 1.6.1-1.5 21.9z"/><path fill="#a4aca4" fill-opacity=".5" d="M377.4 164.2l-.1-1.5 3-.4.2 1.6z"/><path fill="#b5bdbb" fill-opacity=".5" d="M337.1 166.5l-1.5-.2.7-6.2 1.6.2z"/><path fill="#8b6d3f" fill-opacity=".5" d="M114.5 92.6l-1.4 2.8-4.2-2 1.4-2.9z"/><path fill="#48463d" fill-opacity=".5" d="M337 172.4l4.3-6.6 1.3.9-4.2 6.5z"/><path fill="#cac8bc" fill-opacity=".5" d="M219.4 141l1 1.2-3.9 2.8-.9-1.3z"/><path fill="#957853" fill-opacity=".5" d="M156.7 116.8l2.3-7.5 1.5.5-2.3 7.4z"/><path fill="#cbcec6" fill-opacity=".5" d="M123 201.8l2.7-7.3 6 2.1-2.8 7.4z"/><path fill="#e8ece9" fill-opacity=".5" d="M405 105.5l.6 7.8-112.2 7.8-.6-7.8z"/><path fill="#a49570" fill-opacity=".5" d="M232.3 141.3l1-12.4 1.6.1-1 12.5z"/><path fill="#887871" fill-opacity=".5" d="M186.8 88l.8 1.3-4 2.4-.9-1.3z"/><path fill="#7c7267" fill-opacity=".5" d="M229.5 166.3l.4-3.1 1.6.2-.5 3.1z"/><path fill="#6b5f41" fill-opacity=".5" d="M116.3 100.6l1.4.6-1.2 2.9-1.4-.6z"/><path fill="#c6c7c2" fill-opacity=".5" d="M104.7 182.8v14H103v-14z"/><path fill="#594e35" fill-opacity=".5" d="M137 97l-2-4.3 1.5-.6 1.9 4.3z"/><path fill="#967d57" fill-opacity=".5" d="M130.5 121.2l1-1.2 8.3 7.2-1 1.2z"/><path fill="#b39a78" fill-opacity=".5" d="M259 171.9h1.6l.7 39h-1.6z"/><path fill="#251f11" fill-opacity=".5" d="M319.4 168.9l-42.5 36.9-1-1.2 42.5-37z"/><path fill="#71624c" fill-opacity=".5" d="M156.6 70.2l1.6.3-.8 4.6-1.5-.3z"/><path fill="#ced0cc" fill-opacity=".5" d="M160.3 78l1.3-7.8 1.5.3-1.2 7.7z"/><path fill="#f0f4f3" fill-opacity=".5" d="M192 34.7l-23.7 17.8-5.6-7.5 23.7-17.8z"/><path fill="#8a786d" fill-opacity=".5" d="M196 68.7l.1 1.5-9.4.2v-1.6z"/><path fill="#b69b84" fill-opacity=".5" d="M235.8 153.1h-1.5l.2-14h1.6z"/><path fill="#beaca1" fill-opacity=".5" d="M198 65.8l1.5.4-5.3 19.6-1.5-.4z"/><path fill="#b7a386" fill-opacity=".5" d="M151.6 161.7l1.6.4-3.3 12.1-1.5-.4z"/><path fill="#62503b" fill-opacity=".5" d="M149 129.6l-2.2-2.4 5.8-5.2 2.1 2.3z"/><path fill="#c1b49a" fill-opacity=".5" d="M209.7 168.8l-.6-17.2h1.5l.6 17.1z"/><path fill="#b9bec1" fill-opacity=".5" d="M56.6 172l-4.6 1.2-.8-3 4.6-1.2z"/><path fill="#eff3ee" fill-opacity=".5" d="M148.1 96.2L167.8 70l1.3 1-19.8 26.2z"/><path fill="#dbe2e0" fill-opacity=".5" d="M79.9 178.1l-.4-23.4H81l.5 23.4z"/><path fill="#dce1d9" fill-opacity=".5" d="M114.3 103.9l2.6 37.4-1.5.1-2.6-37.4z"/><path fill="#6f4c34" fill-opacity=".5" d="M179.7 51.8l10.9-.4v1.5l-10.9.4z"/><path fill="#797975" fill-opacity=".5" d="M303.3 164.5l-.3-1.5 4.6-1 .3 1.6z"/><path fill="#a99987" fill-opacity=".5" d="M174.8 80.4l1 1.1-2.2 2.2-1-1.2z"/><path fill="#79674d" fill-opacity=".5" d="M161.4 136.6l-1.5.2-1-6.2 1.5-.2z"/><path fill="#f0f2f3" fill-opacity=".5" d="M118.5 58l-62.2-6.6 1.8-17.1 62.2 6.5z"/><path fill="#b9b9b0" fill-opacity=".5" d="M146.6 113.2l-1-1.3 6.2-4.8 1 1.3z"/><path fill="#dae0dd" fill-opacity=".5" d="M420.7 137.5l-.8 21.8-42.1-1.4.7-22z"/><path fill="#d1d0bf" fill-opacity=".5" d="M244.4 133.5l1.5.5-10.7 31-1.4-.5z"/><path fill="#bd9985" fill-opacity=".5" d="M187.6 55.4l-2.6-1.8.9-1.2 2.5 1.8z"/><path fill="#c37c6f" fill-opacity=".5" d="M194.2 46.8l.8-3 6 1.6-.7 3z"/><path fill="#f1f3f4" fill-opacity=".5" d="M113.5 35.8l-2.2 43.7-142-7.5 2.3-43.7z"/><path fill="#c1bcb0" fill-opacity=".5" d="M132.8 79.7l10.5-3 .5 1.4-10.6 3z"/><path fill="#3b4339" fill-opacity=".5" d="M360.9 165.7l-4.7-.2v-1.6l4.8.3z"/><path fill="#dde0d6" fill-opacity=".5" d="M145 95l16.7-20.7 1.2 1L146.2 96z"/><path fill="#c4c9c7" fill-opacity=".5" d="M327.8 153l1.5-.6 3.8 8.6-1.4.6z"/><path fill="#4d4a41" fill-opacity=".5" d="M45.4 181.5l7-3.5.7 1.4-7 3.5z"/><path fill="#d4dad8" fill-opacity=".5" d="M316 160.8l-1.6.2-.7-4.6 1.5-.2z"/><path fill="#bfb393" fill-opacity=".5" d="M108.9 85.9l1 14-1.6.1-1-14z"/><path fill="#e0e7e4" fill-opacity=".5" d="M313.3 146.8l3.2.1-.2 7.8h-3z"/><path fill="#b9b0a1" fill-opacity=".5" d="M144.7 182.8l7.7-11.8 1.3.9-7.7 11.8z"/><path fill="#977d72" fill-opacity=".5" d="M223.2 85.1l.4 22h-1.5l-.4-22z"/><path fill="#8a6b64" fill-opacity=".5" d="M189 51.6V50h4.7v1.5z"/><path fill="#f0f2f4" fill-opacity=".5" d="M219.1 55.4l11.4-37.3 61.3 18.7L280.4 74z"/><path fill="#d1d2c5" fill-opacity=".5" d="M149 181.6l17.9-31.1 1.4.7-18 31.2z"/><path fill="#745832" fill-opacity=".5" d="M171.5 66.3l-1.5-.6 3.8-8.6 1.5.7z"/><path fill="#393831" fill-opacity=".5" d="M65.9 175.6l1.2.9-6.4 8.9-1.3-1z"/><path fill="#9ba29f" fill-opacity=".5" d="M266 168l-.9-1.4 8-4.8.9 1.3z"/><path fill="#676863" fill-opacity=".5" d="M282.8 170.2l-7.8.2V169l7.8-.3z"/><path fill="#5e4725" fill-opacity=".5" d="M145.1 125.1l-1.2-1 6.3-7 1.2 1z"/><path fill="#917362" fill-opacity=".5" d="M189.7 50.2l-1.3 7.7-1.6-.3 1.4-7.7z"/><path fill="#d8dcd1" fill-opacity=".5" d="M111.6 102.6l-5.9 2-3.2-8.7 5.9-2.2z"/><path fill="#737778" fill-opacity=".5" d="M273.5 168.9v-1.6l17.1-.3v1.6z"/><path fill="#a19185" fill-opacity=".5" d="M216.7 74l4.3-6.6 1.3.8-4.2 6.6z"/><path fill="#917664" fill-opacity=".5" d="M241.6 190.6l1.2 17.1-1.6.1-1.2-17.1z"/><path fill="#9c8257" fill-opacity=".5" d="M251.8 162.6l5.7 29.2-1.5.3-5.7-29.2z"/><path fill="#e5e7e8" fill-opacity=".5" d="M10.7 163l-26-10.6 9.3-23.2 26 10.6z"/><path fill="#ccbaa5" fill-opacity=".5" d="M174.7 82.2l1.5-.3.7 3-1.5.4z"/><path fill="#b2a283" fill-opacity=".5" d="M234.7 157.8h-1.5l-.8-42.2h1.6z"/><path fill="#93866f" fill-opacity=".5" d="M147.7 73.5v1.6l-3.2-.2v-1.5z"/><path fill="#9a8b65" fill-opacity=".5" d="M112.5 96.1l1 1.3-2.6 1.8-.9-1.3z"/><path fill="#e8ebec" fill-opacity=".5" d="M-15.7 127.5l1.1-7.7 97.5 13.7-1.1 7.7z"/><path fill="#f2f4f5" fill-opacity=".5" d="M151.6-2.1l24.7 38-42 27.2-24.6-38z"/><path fill="#c0c4bf" fill-opacity=".5" d="M13.8 166.2L9.3 165l.4-1.5 4.5 1.2z"/><path fill="#7f653e" fill-opacity=".5" d="M122 110.3l8.3 4.6-.8 1.3-8.2-4.5z"/><path fill="#cbcac5" fill-opacity=".5" d="M195.2 126.4l-17 87.4-6.2-1.2 17-87.4z"/><path fill="#d4d7ce" fill-opacity=".5" d="M148.4 144l1.5.4-6 22.6-1.6-.4z"/><path fill="#d3caaf" fill-opacity=".5" d="M127 72.5l-20.3 17.1-1-1.2 20.4-17z"/><path fill="#bab7ad" fill-opacity=".5" d="M222.9 77l-5.2 29.2-1.5-.3 5.1-29.2z"/><path fill="#ab9d81" fill-opacity=".5" d="M238.6 213.2l-5.3-37.1 1.6-.2 5.2 37z"/><path fill="#837870" fill-opacity=".5" d="M182.4 107l-2.3-9 1.6-.4 2.2 9.1z"/><path fill="#b6bdbd" fill-opacity=".5" d="M71.8 171.6l.1 1.6-14 .5-.1-1.6z"/><path fill="#c9b2a2" fill-opacity=".5" d="M195.8 77l-4.4 11.7L187 87l4.5-11.6z"/><path fill="#6b3d12" fill-opacity=".5" d="M175.9 56.7l.7 1.4-4 2.3-.8-1.3z"/><path fill="#bfb8a6" fill-opacity=".5" d="M192.2 157v-15.6h1.6V157z"/><path fill="#bfbeb8" fill-opacity=".5" d="M202.5 49.2L207 48l1.4 4.4-4.5 1.4z"/><path fill="#d6caa6" fill-opacity=".5" d="M122.7 77.2l-.7-1.5 10-4.4.7 1.4z"/><path fill="#967c5c" fill-opacity=".5" d="M132.8 99.9l-3.6 3-1-1.2 3.6-3z"/><path fill="#e1e7e4" fill-opacity=".5" d="M229.5 97.8l4-2.5 13.6 21-4 2.5z"/><path fill="#5d370d" fill-opacity=".5" d="M175.5 57l4.3 1.8-.6 1.4-4.3-1.8z"/><path fill="#d0b4a8" fill-opacity=".5" d="M214 61.8l1.5-.1.2 3-1.5.2z"/><path fill="#9e917c" fill-opacity=".5" d="M161.6 129.4l-1.2-1 4.5-6.2 1.3.9z"/><path fill="#bfb497" fill-opacity=".5" d="M260.2 161.3l-7.8-23.7 1.5-.5 7.7 23.8z"/><path fill="#bcc4be" fill-opacity=".5" d="M323.7 162l1.1-1 3.1 3.5-1.2 1z"/><path fill="#dee3df" fill-opacity=".5" d="M-22.2 147.7l52.8 23.5-.6 1.4-52.8-23.5z"/><path fill="#d6dcda" fill-opacity=".5" d="M304.7 151.6l1.5.6-3.1 7.2-1.4-.6z"/><path fill="#645b52" fill-opacity=".5" d="M183.6 83l-1.5-.6 1.5-4.4 1.5.5z"/><path fill="#695b4f" fill-opacity=".5" d="M204.1 108.5l1.1 6.2-1.5.2-1.1-6.1z"/><path fill="#dbd9c4" fill-opacity=".5" d="M159.4 104.2l-.4 1.5-7.5-2.1.4-1.5z"/><path fill="#cad0ce" fill-opacity=".5" d="M363.3 156.5l-9 6.2-3.5-5 9-6.4z"/><path fill="#612b1d" fill-opacity=".5" d="M193.9 49.3l.8 1.3-2.6 1.7-.9-1.3z"/><path fill="#abaa98" fill-opacity=".5" d="M223.1 116.5l-2-2.3 1-1 2.2 2.3z"/><path fill="#dfe4e0" fill-opacity=".5" d="M163 104.2l-5.7-2.4 9.3-23.2 5.8 2.4z"/><path fill="#362e1a" fill-opacity=".5" d="M271.5 191.7l-.7-1.4 31-18 .9 1.4z"/><path fill="#302814" fill-opacity=".5" d="M316.5 180.6l27.7-5 .3 1.6-27.7 5z"/><path fill="#38392d" fill-opacity=".5" d="M6.2 185.6l17-2.4.3 1.5-17 2.4z"/><path fill="#c9b488" fill-opacity=".5" d="M161.2 57.3l4.5 1.1-.3 1.5-4.6-1.1z"/><path fill="#ccd2d0" fill-opacity=".5" d="M224.8 114l3.5 32.7-1.6.2-3.4-32.7z"/><path fill="#b38615" fill-opacity=".5" d="M149.2 58.5l9.2-1.3.3 1.5-9.3 1.3z"/><path fill="#dde3e1" fill-opacity=".5" d="M11.9 162.1l99.8 7-.2 1.6-99.7-7z"/><path fill="#a2917f" fill-opacity=".5" d="M247.7 174l1.4.7-7.8 15.3-1.4-.7z"/><path fill="#d6e0dc" fill-opacity=".5" d="M280 156.6l-.7 7.8-7.8-.7.7-7.8z"/><path fill="#adb0aa" fill-opacity=".5" d="M105 185.1h1.5l-.5 28.2h-1.6z"/><path fill="#c4aea4" fill-opacity=".5" d="M187.7 72.7l-.4-3 1.5-.3.5 3.1z"/><path fill="#c1af91" fill-opacity=".5" d="M154 70.3l-1.2 1-5.2-5.7 1.1-1z"/><path fill="#b5b8bb" fill-opacity=".5" d="M144 137.3l-.7 3-4.5-1 .7-3.1z"/><path fill="#bda798" fill-opacity=".5" d="M175.9 93.3l-4.1-2.4.8-1.3 4 2.3z"/><path fill="#a08b73" fill-opacity=".5" d="M246.7 145.3h1.6l.3 20.3h-1.5z"/><path fill="#cac0a3" fill-opacity=".5" d="M260.7 176.5l.5-7.8 1.6.1-.6 7.8z"/><path fill="#b99472" fill-opacity=".5" d="M169.7 58.5L167 60l-.8-1.3 2.8-1.5z"/><path fill="#9f9282" fill-opacity=".5" d="M201 123.6l1.6.3-5.3 22.9-1.5-.4z"/><path fill="#d8c9b3" fill-opacity=".5" d="M242.1 117.8l10.2 3.9-2.2 5.8-10.2-3.9z"/><path fill="#6a513e" fill-opacity=".5" d="M169.4 120.4l-1.3-.7 7.8-13.6 1.3.8z"/><path fill="#95895d" fill-opacity=".5" d="M231 150.6l.5-3 1.6.2-.6 3z"/><path fill="#2b2112" fill-opacity=".5" d="M384.3 181.4l-36-1.9.2-3 36 1.8z"/><path fill="#847e6f" fill-opacity=".5" d="M176 86.3l1.2-2.9 1.5.6-1.2 2.9z"/><path fill="#adaba0" fill-opacity=".5" d="M218 135.3l-1.5-2.7 1.4-.8 1.5 2.8z"/><path fill="#d0ccc4" fill-opacity=".5" d="M227.2 77.5l-1.3-.8 1.5-2.7 1.4.8z"/><path fill="#baaea4" fill-opacity=".5" d="M153.6 125.2l4.6 1.3-1 3-4.4-1.3z"/><path fill="#6d6c67" fill-opacity=".5" d="M394.6 166.3l-.3 1.6-6.1-1.4.3-1.6z"/><path fill="#d6d6d6" fill-opacity=".5" d="M174.1 72.4l-1.1-1 7.6-8 1.1 1.2z"/><path fill="#7e6848" fill-opacity=".5" d="M135.2 98.1l-9.4.7v-1.6l9.3-.7z"/><path fill="#544236" fill-opacity=".5" d="M164.2 134.7l3-9 1.4.6-2.9 8.9z"/><path fill="#bdcac6" fill-opacity=".5" d="M172.5 141.7l-7.6 18.8-1.5-.6 7.6-18.8z"/><path fill="#332d1e" fill-opacity=".5" d="M44.3 190l3.7-7 12.4 6.7-3.7 6.9z"/><path fill="#2b2a23" fill-opacity=".5" d="M24 186.9l.2 1.5-31 4.4-.2-1.6z"/><path fill="#d4d4cc" fill-opacity=".5" d="M194.4 94.5l-1.5-.6 11.2-27.5 1.4.6z"/><path fill="#221d0d" fill-opacity=".5" d="M331.3 182l14.6 27.6-6.9 3.7-14.6-27.6z"/><path fill="#7a694c" fill-opacity=".5" d="M155.7 76.3l-1 1.2L149 72l1-1.1z"/><path fill="#403529" fill-opacity=".5" d="M285.1 177.6l-21.5 4.2-.3-1.6 21.5-4.1z"/><path fill="#41403b" fill-opacity=".5" d="M402.8 170.1l-7.7-1.2.5-3 7.7 1.1z"/><path fill="#272314" fill-opacity=".5" d="M383.6 167l7.7 28.8-4.6 1.2-7.6-28.7z"/><path fill="#978771" fill-opacity=".5" d="M143.8 117l-7.8.3v-1.5l7.7-.3z"/><path fill="#907855" fill-opacity=".5" d="M128.2 87.2l-11 .6v-1.6l10.9-.5z"/><path fill="#bcb2a9" fill-opacity=".5" d="M173.5 118l-.1 3.1h-1.6l.1-3.2z"/><path fill="#d6d2c5" fill-opacity=".5" d="M205.8 74.3l-8.3-15 1.4-.8 8.3 15z"/><path fill="#e0e6e5" fill-opacity=".5" d="M333.6 127.4l7.5-5.7 20.6 27.5-7.4 5.6z"/><path fill="#b2b8b5" fill-opacity=".5" d="M104.2 177.3l4.6-4.2 1 1.2-4.6 4.2z"/><path fill="#bfc3bf" fill-opacity=".5" d="M7.7 166.3l-.8-1.3 2.6-1.6.8 1.3z"/><path fill="#231e0f" fill-opacity=".5" d="M304.9 195l-7.6 1.8-3.8-15.2 7.6-1.8z"/><path fill="#b8bdbc" fill-opacity=".5" d="M294 147l1.2 1.1-3.3 3.3-1.1-1z"/><path fill="#beb7a1" fill-opacity=".5" d="M145 58.8l2.8 1.4-.7 1.4-2.8-1.5z"/><path fill="#c5c9bb" fill-opacity=".5" d="M134.5 65.3l4.6.6-.2 1.6-4.6-.6z"/><path fill="#a7adb0" fill-opacity=".5" d="M3.1 173l42.2.8v1.6l-42.2-.8z"/><path fill="#d6dbd5" fill-opacity=".5" d="M102.6 181l1 20.3-7.8.5-1-20.3z"/><path fill="#231d0f" fill-opacity=".5" d="M345.7 183.1l18.8 7.7-2.3 5.7-18.9-7.6z"/><path fill="#afa097" fill-opacity=".5" d="M184.2 81.2l.3 7.8H183l-.2-7.7z"/><path fill="#eff2f1" fill-opacity=".5" d="M277.8 104.1l-31.4 9.6L230 60l31.4-9.6z"/><path fill="#cdcec4" fill-opacity=".5" d="M131 146.4l-1.4.5-12.2-35.5 1.5-.5z"/><path fill="#c6ccc7" fill-opacity=".5" d="M211.4 103.9l2.2 21.7-1.5.2-2.3-21.8z"/><path fill="#c5b79b" fill-opacity=".5" d="M147.8 66.5l-6.1 1.4-.4-1.6 6.1-1.4z"/><path fill="#a88b64" fill-opacity=".5" d="M259.4 177.5l-1.5.4-6.4-22.5 1.5-.5z"/><path fill="#745c3a" fill-opacity=".5" d="M160.4 141.6l1.5-.3 1.2 6.1-1.6.3z"/><path fill="#7f5828" fill-opacity=".5" d="M142.3 125.8l-3.1-5.5 1.3-.7 3.1 5.4z"/><path fill="#533e18" fill-opacity=".5" d="M124 106.4l-1.5.5-4.3-11.7 1.5-.6z"/><path fill="#c9cac3" fill-opacity=".5" d="M135.8 218.7h-1.6l3.4-48.4 1.6.1z"/><path fill="#c6c5c7" fill-opacity=".5" d="M222.1 72.6l1.6.2-.5 3-1.6-.2z"/><path fill="#aa9c93" fill-opacity=".5" d="M226.1 82.6l-1-1.1 3.5-3.2 1 1.2z"/><path fill="#c6bb9f" fill-opacity=".5" d="M129.8 121.6l5.7 7.5-1.3.9-5.6-7.5z"/><path fill="#5c4732" fill-opacity=".5" d="M159.8 139.3l8.6-18.4 1.4.7-8.5 18.4z"/><path fill="#cacbc6" fill-opacity=".5" d="M199.6 229.9l21.3-65.4 3 1-21.3 65.3z"/><path fill="#b6b1b0" fill-opacity=".5" d="M216 51.1l.6 1.5-3 1-.5-1.5z"/><path fill="#c3bd9b" fill-opacity=".5" d="M229.7 146h1.6v12.6h-1.6z"/><path fill="#6f654c" fill-opacity=".5" d="M264.2 186.7h1.6l-.3 6.3h-1.6z"/><path fill="#a8aba7" fill-opacity=".5" d="M93.9 183.6l-.3 15.6h-1.5l.2-15.6z"/><path fill="#71726a" fill-opacity=".5" d="M370.4 162l-.7 1.5-4.2-2.1.7-1.4z"/><path fill="#a59d8f" fill-opacity=".5" d="M195.7 146.9l-.8-23.4h1.6l.8 23.3z"/><path fill="#d6d6ca" fill-opacity=".5" d="M230.9 132h-1.6l.7-40.6h1.6z"/><path fill="#6b645e" fill-opacity=".5" d="M311.2 167.7l3-3.6 1.2 1-3 3.6z"/><path fill="#c9cbc1" fill-opacity=".5" d="M199 162l4.6 1.1-13.6 54.6-4.5-1.1z"/><path fill="#8d7969" fill-opacity=".5" d="M202.9 119.6l-1.6-.1.5-15.6h1.6z"/><path fill="#d4d7cd" fill-opacity=".5" d="M228 162.7l1.5.2-9 72.9-1.5-.2z"/><path fill="#cdd3ca" fill-opacity=".5" d="M111.7 209.5l-1.5-20.2 4.7-.4 1.4 20.3z"/><path fill="#a48e70" fill-opacity=".5" d="M152 116.8l2.3-7.5 1.5.5-2.3 7.4z"/><path fill="#646461" fill-opacity=".5" d="M186.7 94.3l1.4 2.8-1.4.7-1.4-2.7z"/><path fill="#c1cac9" fill-opacity=".5" d="M74.7 168.6l4.5-1.2.8 3-4.5 1.2z"/><path fill="#8a7e65" fill-opacity=".5" d="M241.6 169.6l1.6-.1 1 12.4-1.5.2z"/><path fill="#d3dad7" fill-opacity=".5" d="M295 164.3l3.7-12 1.5.5-3.6 12z"/><path fill="#9a9488" fill-opacity=".5" d="M217.6 137.7l-.8 4.6-1.6-.3.8-4.6z"/><path fill="#938279" fill-opacity=".5" d="M221 97.2l4.6 6.2-1.2 1-4.7-6.3z"/><path fill="#87836c" fill-opacity=".5" d="M142 132l.4-3.2 1.6.2-.5 3.1z"/><path fill="#ae7e5b" fill-opacity=".5" d="M178.2 53.3L178 55l-4.6-.4.1-1.6z"/><path fill="#2d2c20" fill-opacity=".5" d="M340 178.5L326.3 168l.9-1.2 13.7 10.3z"/><path fill="#dde5e3" fill-opacity=".5" d="M281.8 138.5l21 6-1.7 6-21-6z"/><path fill="#837b69" fill-opacity=".5" d="M211.8 161.5l1.4.8-1.6 2.7-1.3-.7z"/><path fill="#dae1de" fill-opacity=".5" d="M325.7 162.8l-1.4-.5 7.8-20.4 1.5.5z"/><path fill="#c4ab8c" fill-opacity=".5" d="M252.8 146.8l1.5.5-2.4 7.4-1.5-.4z"/><path fill="#f0f3f3" fill-opacity=".5" d="M72.4 33.4L68 83.2 4.2 77.6l4.4-49.8z"/><path fill="#958079" fill-opacity=".5" d="M187 63l1.3 1-5 5.9-1.3-1z"/><path fill="#dbc2a6" fill-opacity=".5" d="M164.7 56.9l2.9-1.2.5 1.5-2.8 1.1z"/><path fill="#dde4e0" fill-opacity=".5" d="M303.6 139.9l8.6-3.8 4.5 10-8.6 3.8z"/><path fill="#d0d2ca" fill-opacity=".5" d="M157.7 205.8l-12.2-2.8 4.6-19.8 12.2 2.8z"/><path fill="#bab1a2" fill-opacity=".5" d="M199.3 101.7l-1.6-4.4 1.5-.6 1.6 4.5z"/><path fill="#a38c64" fill-opacity=".5" d="M149.3 158.1l8.6-3.6.6 1.4-8.6 3.7z"/><path fill="#bcbab5" fill-opacity=".5" d="M189.4 172.8l-.7 6.2-1.5-.2.6-6.2z"/><path fill="#64574f" fill-opacity=".5" d="M182 81.1l1.5.5-1.4 4.5-1.5-.5z"/><path fill="#8b7560" fill-opacity=".5" d="M178.8 102l-11 17.1-1.3-.9 11-17z"/><path fill="#bf9681" fill-opacity=".5" d="M207.4 83.7l-.5-1.4 6-2 .5 1.5z"/><path fill="#d0c9b4" fill-opacity=".5" d="M145.3 76.7l.8 1.3-5.4 3.1-.8-1.3z"/><path fill="#858e8c" fill-opacity=".5" d="M268.6 168.8l-1.6-.1.4-4.7 1.5.1z"/><path fill="#6b523d" fill-opacity=".5" d="M204 107.1l-1.5-.3 1.2-6.1 1.6.3z"/><path fill="#e9eeeb" fill-opacity=".5" d="M253.3 121.2l-.4-11 48.5-1.7.3 11z"/><path fill="#e4e7e8" fill-opacity=".5" d="M36.2 138.1l3.8 21.6-21.5 3.8-3.8-21.6z"/><path fill="#bdb097" fill-opacity=".5" d="M149.7 176.6l-2.5-13.9 1.6-.2 2.4 13.8z"/><path fill="#a29688" fill-opacity=".5" d="M217.3 144.5h-1.5l-.3-3 1.5-.2z"/><path fill="#656562" fill-opacity=".5" d="M32.1 176.2l9.4.8-.2 1.5-9.3-.8z"/><path fill="#27271b" fill-opacity=".5" d="M29.6 186.7l4.4 1.7-9 23.3-4.3-1.7z"/><path fill="#edf7ea" fill-opacity=".5" d="M145.3 54.3l-.5-1.4 14.6-5.6.5 1.4z"/><path fill="#c6cac9" fill-opacity=".5" d="M1.6 161.7l-2.6-1.8 1-1.3 2.5 1.8z"/><path fill="#cbbfa5" fill-opacity=".5" d="M161.4 104l1.2 1-3.6 5-1.3-.9z"/><path fill="#746457" fill-opacity=".5" d="M247 157.8l-.2 7.8h-1.6l.2-7.8z"/><path fill="#d2c3ba" fill-opacity=".5" d="M200.6 59.4l-1.2-14 1.5-.1 1.3 14z"/><path fill="#b59d7e" fill-opacity=".5" d="M158.6 109.2l-.6 1.4-5.7-2.6.6-1.4z"/><path fill="#b0b5b1" fill-opacity=".5" d="M76.5 205.5l8.2-26.9 6 1.8-8.2 27z"/><path fill="#41321b" fill-opacity=".5" d="M345.4 175.8l1.4.8-3.2 5.4-1.3-.8z"/><path fill="#e5ddd2" fill-opacity=".5" d="M237 155.6l-1.8-2.5 1.3-1 1.8 2.6z"/><path fill="#806e53" fill-opacity=".5" d="M154.2 124.3l-4.3-1.8.6-1.4 4.3 1.7z"/><path fill="#f1f3f5" fill-opacity=".5" d="M351.3 27.3L285 37.8l-6.6-41.7 66.3-10.5z"/><path fill="#c9c3ab" fill-opacity=".5" d="M145.7 79.7l.4 1.5-12 3.2-.5-1.5z"/><path fill="#dde0db" fill-opacity=".5" d="M117.3 150.5l15 4.3-4.3 15-15-4.3z"/><path fill="#d3bda8" fill-opacity=".5" d="M174.5 84.3l1 4.5-1.5.4-1-4.6z"/><path fill="#bdc3c0" fill-opacity=".5" d="M357.3 152.5l4 8.4-1.4.7-4-8.5z"/><path fill="#b1a489" fill-opacity=".5" d="M259 168.8l-1.6-.1.8-11 1.6.2z"/><path fill="#d1c6af" fill-opacity=".5" d="M209.3 160.1l.2 9.4h-1.6l-.2-9.3z"/><path fill="#2d2b1e" fill-opacity=".5" d="M380 180l15.8-9.8.8 1.3-15.9 10z"/><path fill="#8b9090" fill-opacity=".5" d="M40.7 175.6l-.2 1.5-10.9-1.1.2-1.6z"/><path fill="#1a170a" fill-opacity=".5" d="M308.2 172.2l1.6-.2 5.4 38.6-1.5.3z"/><path fill="#413929" fill-opacity=".5" d="M286.6 170.8l-4.5 16.6-1.5-.4 4.5-16.6z"/><path fill="#c3bfb9" fill-opacity=".5" d="M216.9 118l-2.5-15.4 1.6-.3 2.4 15.5z"/><path fill="#8e8474" fill-opacity=".5" d="M165.7 65.5l4.6.2v1.6l-4.7-.2z"/><path fill="#aea18c" fill-opacity=".5" d="M146.7 88.6l.3 1.6-4.6.9-.3-1.6z"/><path fill="#745a3b" fill-opacity=".5" d="M161.5 142.8l-4.1-8.4 1.4-.7 4.1 8.5z"/><path fill="#eef2ef" fill-opacity=".5" d="M255.4 84.2l48.2-4.2 2 21.8-48.3 4.2z"/><path fill="#8f6f5e" fill-opacity=".5" d="M213 71.2l-.6-1.4 4.2-2 .7 1.4z"/><path fill="#303121" fill-opacity=".5" d="M364.2 166.5l-1-1.2 2.3-2 1 1z"/><path fill="#a8967c" fill-opacity=".5" d="M151.6 167.2v4.7H150v-4.7z"/><path fill="#35382d" fill-opacity=".5" d="M74 196.3l-1-3 1.4-.5 1.1 2.9z"/><path fill="#bdb6a3" fill-opacity=".5" d="M147.8 108.9l-4.1-2.3.7-1.4 4.1 2.3z"/><path fill="#ccd2d0" fill-opacity=".5" d="M364.1 153.4l-1.2-2.8 5.8-2.5 1.2 2.9z"/><path fill="#b19e85" fill-opacity=".5" d="M136 116.3l-4.3 1.7-.6-1.5 4.4-1.7z"/><path fill="#717571" fill-opacity=".5" d="M312.5 158.6v3.1h-1.6v-3.1z"/><path fill="#cccab7" fill-opacity=".5" d="M259.6 154.7H258l-.4-11h1.6z"/><path fill="#979c9a" fill-opacity=".5" d="M314.3 159l-1.2 1-4-4.9 1.2-1z"/><path fill="#7f6c56" fill-opacity=".5" d="M182.6 70.6l-1.6 2.6-2.7-1.6L180 69z"/><path fill="#e7b79e" fill-opacity=".5" d="M194.4 44l-3-.4.1-1.6 3.1.4z"/><path fill="#c2c0bb" fill-opacity=".5" d="M174 190.4l-1.6-.3 8.4-47.7 1.5.3z"/><path fill="#594224" fill-opacity=".5" d="M115.1 101.6l1.1-6.1 7.7 1.3-1 6.2z"/><path fill="#d1d2ce" fill-opacity=".5" d="M126.2 183.3l10.5-26.1 4.3 1.7-10.5 26.1z"/><path fill="#2b2b1d" fill-opacity=".5" d="M292 173.8l.2 1.5-23.3 2.5-.2-1.6z"/><path fill="#262012" fill-opacity=".5" d="M334.2 190.4L298 171.9l.7-1.3 36.2 18.4z"/><path fill="#9a8981" fill-opacity=".5" d="M182.1 92.8l1.4.7-1.5 2.8-1.4-.8z"/><path fill="#dcdfd9" fill-opacity=".5" d="M113.9 121.4L125 170l-3 .7-11.3-48.7z"/><path fill="#937655" fill-opacity=".5" d="M122.7 109.5l-.1 1.6-3.1-.3.1-1.6z"/><path fill="#c8beaa" fill-opacity=".5" d="M247.8 139.2l-4.7-.4 1.3-14 4.6.4z"/><path fill="#8b6744" fill-opacity=".5" d="M163.4 62.8l-.2-1.6 3-.5.3 1.5z"/><path fill="#775c39" fill-opacity=".5" d="M121.6 93.5l9.5 10.3-1 1-9.7-10.2z"/><path fill="#755f54" fill-opacity=".5" d="M217 60.2h1.6l.3 6.2h-1.6z"/><path fill="#909691" fill-opacity=".5" d="M323.4 165.4v-1.6l29.7.5v1.6z"/><path fill="#c6c5b6" fill-opacity=".5" d="M153.6 109.2l-2.2 2.3-6.6-6.7 2.2-2.2z"/><path fill="#d7d9db" fill-opacity=".5" d="M231.3 114.2l-3.2 45.2-1.6-.1 3.2-45.2z"/><path fill="#ecf5eb" fill-opacity=".5" d="M206.7 45.6l-1.3.9-10.5-15.6 1.3-.8z"/><path fill="#aea487" fill-opacity=".5" d="M151.3 146.2L149 144l1.2-1 2.1 2.2z"/><path fill="#c6c5ba" fill-opacity=".5" d="M228.5 179l5.6-16.3 1.5.5-5.6 16.3z"/><path fill="#c3c1b6" fill-opacity=".5" d="M194.7 215.2l13.8-48 1.5.4-13.8 48z"/><path fill="#f3f5f4" fill-opacity=".5" d="M-8.7 18.7l28-41.5L32.1-14l-28 41.4z"/><path fill="#cecdc9" fill-opacity=".5" d="M105.7 192.8l.7 1.4-4.3 2-.6-1.4z"/><path fill="#967d59" fill-opacity=".5" d="M142 108.3l-5.7-2.9 1.5-2.7 5.5 2.8z"/><path fill="#423926" fill-opacity=".5" d="M271.9 187.5l1-1.3 3.7 2.9-1 1.2z"/><path fill="#e0e2e0" fill-opacity=".5" d="M94.9 117.9l15.4 2.2-6.7 48-15.5-2.2z"/><path fill="#ad9d85" fill-opacity=".5" d="M132.7 99.5l.3-1.5 4.6.9-.3 1.5z"/><path fill="#bea884" fill-opacity=".5" d="M132 73l1 1.2-13.5 10.6-1-1.2z"/><path fill="#a39376" fill-opacity=".5" d="M136.8 100.1l-.2 1.6-3-.3V100z"/><path fill="#4d4b49" fill-opacity=".5" d="M71.2 173.4l4.2 2-1.3 2.8-4.2-2z"/><path fill="#babfbb" fill-opacity=".5" d="M87.4 180.5l3.5-7 1.4.7-3.5 7z"/><path fill="#6b543a" fill-opacity=".5" d="M183.5 57.6l.2-1.6 3.1.5-.2 1.5z"/><path fill="#906f53" fill-opacity=".5" d="M205.3 100.1l-3.2-.2.5-4.7 3 .3z"/><path fill="#d4d7cd" fill-opacity=".5" d="M143 96v-3h6.2v3.1z"/><path fill="#b3aea5" fill-opacity=".5" d="M212 54l-4.3-1.8.5-1.4 4.4 1.7z"/><path fill="#7d6c54" fill-opacity=".5" d="M134.1 96l.5 3-1.5.3-.5-3z"/><path fill="#8c6556" fill-opacity=".5" d="M194.1 56.8l-2.9-1.2.6-1.5 3 1.3z"/><path fill="#ded5c1" fill-opacity=".5" d="M231 123.4l.5 23.5h-1.6l-.4-23.4z"/><path fill="#c1c5bf" fill-opacity=".5" d="M107.8 193h-1.5v-12.5h1.5z"/><path fill="#d0d2ce" fill-opacity=".5" d="M204 129.4l4.6 1.2-4.9 19.7-4.5-1.2z"/><path fill="#9ca39e" fill-opacity=".5" d="M373.3 160.3l2.7 1.5-.8 1.4-2.7-1.6z"/><path fill="#8a8075" fill-opacity=".5" d="M185.3 92.1l-7.7-9.8 1.2-1 7.7 9.9z"/><path fill="#3b3f39" fill-opacity=".5" d="M28.6 181.2l2.1-2.4 4.7 4.1-2 2.4z"/><path fill="#514b46" fill-opacity=".5" d="M311.4 164.7l1.5.4-.8 3-1.5-.4z"/><path fill="#35382e" fill-opacity=".5" d="M385.3 168.2l-1.4.7-2-4.3 1.4-.6z"/><path fill="#76675d" fill-opacity=".5" d="M185.7 93.8l-1.6-.1.5-7.8 1.6.1z"/><path fill="#a7aca7" fill-opacity=".5" d="M355.5 161l1.2-1 1.9 2.5-1.3 1z"/><path fill="#ac9a78" fill-opacity=".5" d="M160.9 156.5l-4.7-.5.1-1.5 4.7.4z"/><path fill="#bba39b" fill-opacity=".5" d="M207.8 69.5V79h-1.6v-9.4z"/><path fill="#231f11" fill-opacity=".5" d="M315.1 175l4.2 26.3-1.6.2-4.1-26.2z"/><path fill="#9ca5a1" fill-opacity=".5" d="M385 163l1-1.3 2.4 1.9-.9 1.2z"/><path fill="#684e27" fill-opacity=".5" d="M124.8 88.7l.9-1.4 10.4 6.9-.8 1.3z"/><path fill="#d5dad3" fill-opacity=".5" d="M150 61.1l.8 1.4-5.5 3-.8-1.4z"/><path fill="#eaece7" fill-opacity=".5" d="M129.3 67l-.4-1.5 9-2.8.4 1.5z"/><path fill="#b1b5a6" fill-opacity=".5" d="M169.6 125.1l1.7-2.6 1.3.8-1.7 2.7z"/><path fill="#c5c6bc" fill-opacity=".5" d="M144.8 170.3l1.5.4-14.5 54.3-1.6-.4z"/><path fill="#d4d6d1" fill-opacity=".5" d="M133.9 175.6l-23.2 9.3-2.4-5.8 23.2-9.3z"/><path fill="#cecec2" fill-opacity=".5" d="M164.7 112.2l-1.3-1 4.7-6.2 1.3 1z"/><path fill="#907673" fill-opacity=".5" d="M222.8 80.6l1.5-.2 1.3 9.3-1.5.2z"/><path fill="#b1ac9c" fill-opacity=".5" d="M228.4 171.1l-.5-6.2 1.5-.1.6 6.2z"/><path fill="#5a6255" fill-opacity=".5" d="M264 169.5l4.4-1.4.5 1.5-4.5 1.4z"/><path fill="#a0a3a3" fill-opacity=".5" d="M305.7 158.4l1 3-1.5.5-1-3z"/><path fill="#6c665a" fill-opacity=".5" d="M181.6 88l-1.5.4-.8-3 1.5-.4z"/><path fill="#d9e1e1" fill-opacity=".5" d="M39.8 167.8l.1-1.6 37.5 2-.1 1.5z"/><path fill="#ac997b" fill-opacity=".5" d="M136.6 86.7l-9.8-4.8.7-1.4 9.8 4.8z"/><path fill="#c2bea9" fill-opacity=".5" d="M143 94.9l-1.5.5-1.7-4.3 1.5-.6z"/><path fill="#c5ae9e" fill-opacity=".5" d="M218 82.8l-4.8 11.6-1.4-.6 4.7-11.6z"/><path fill="#c2c6c4" fill-opacity=".5" d="M308.2 162.4l-1.5.2-.9-7.8 1.6-.2z"/><path fill="#c3c8bb" fill-opacity=".5" d="M227.6 116.1l-1.5.4-2.1-9.2 1.5-.3z"/><path fill="#645649" fill-opacity=".5" d="M175.3 104.8l-.6-4.7 1.5-.2.7 4.7z"/><path fill="#e6e9e7" fill-opacity=".5" d="M261.2 130l-.4-11 198.3-6.8.4 10.9z"/><path fill="#b4a095" fill-opacity=".5" d="M196.8 65.2l.1 1.6-7.7.8-.2-1.6z"/><path fill="#9c8f6f" fill-opacity=".5" d="M240.1 168.2l-2.1 15.4-1.6-.2 2.2-15.5z"/><path fill="#b69c57" fill-opacity=".5" d="M158 55.2l-.4 1.5-4.6-1 .3-1.5z"/><path fill="#bba98a" fill-opacity=".5" d="M124.2 83v1.5l-12.5-.2v-1.6z"/><path fill="#9f9888" fill-opacity=".5" d="M212.8 157.7l1.5.2-.5 4.7-1.6-.2z"/><path fill="#777469" fill-opacity=".5" d="M179.7 112.9l-3.6-3.1 2-2.4 3.6 3.1z"/><path fill="#765c3b" fill-opacity=".5" d="M133 108l-.3-4.7 4.7-.3.2 4.7z"/><path fill="#292617" fill-opacity=".5" d="M302.5 178l10-9.8 2.2 2.3-10 9.7z"/><path fill="#d0c0b9" fill-opacity=".5" d="M198 73.4l1-20.3h1.5l-1 20.4z"/><path fill="#98a09e" fill-opacity=".5" d="M299.2 163.9v1.6l-6.2.3v-1.6z"/><path fill="#cbcac3" fill-opacity=".5" d="M183.5 185.7L179 194l-23.5-12.5 4.4-8.3z"/><path fill="#bbae9c" fill-opacity=".5" d="M143.9 97.7l-.6 1.5-4.4-1.6.6-1.5z"/><path fill="#5f4b3b" fill-opacity=".5" d="M204.9 109.4l-.4-11h1.6l.3 11z"/><path fill="#1c1c0f" fill-opacity=".5" d="M404.8 209.3l-13.2 11-26-31.1 13-11z"/><path fill="#e0e1e0" fill-opacity=".5" d="M142.6 194.5l2.3 9-1.6.5-2.2-9.1z"/><path fill="#bba18f" fill-opacity=".5" d="M196.6 63.8l-3 .4-1.2-7.7 3.1-.4z"/><path fill="#dde4e0" fill-opacity=".5" d="M262.3 157l-2.2-10.7 22.9-4.9 2.3 10.7z"/><path fill="#9c8761" fill-opacity=".5" d="M250.5 183.7l-2.5-15.4 3.1-.5 2.4 15.5z"/><path fill="#c5bfaf" fill-opacity=".5" d="M151 133l4.5 1.5-1.9 6-4.5-1.5z"/><path fill="#86898a" fill-opacity=".5" d="M393.7 165.7l-7.8-.1V164l7.9.1z"/><path fill="#a46e67" fill-opacity=".5" d="M199.5 43.6l1 4.6-1.6.3-1-4.5z"/><path fill="#b9b3a3" fill-opacity=".5" d="M150.4 146.7l-1.4-.7 17.8-34.9 1.4.8z"/><path fill="#ccc8c1" fill-opacity=".5" d="M219.1 56.6l3.1-.6.8 4.6-3 .6z"/><path fill="#c5c5bf" fill-opacity=".5" d="M219.3 104.7l-10.6 42.5-1.5-.4 10.6-42.4z"/><path fill="#a6977c" fill-opacity=".5" d="M233.6 183.9l10 4.2-.6 1.5-10-4.3z"/><path fill="#2a281a" fill-opacity=".5" d="M370.3 185l6.4-16 1.5.7-6.5 15.9z"/><path fill="#bdbbb4" fill-opacity=".5" d="M197.9 100.7l1.5.3-2 9.2-1.5-.3z"/><path fill="#aca19e" fill-opacity=".5" d="M221.8 63.3h1.5l.2 6.2H222z"/><path fill="#998f81" fill-opacity=".5" d="M184.6 75l-2.2 5.8-3-1.1 2.3-5.8z"/><path fill="#2b2312" fill-opacity=".5" d="M279.5 181.7l-1.5 6-9-2.2 1.4-6z"/><path fill="#cec9bb" fill-opacity=".5" d="M167 145.2l.8 1.3-5 3.6-1-1.2z"/><path fill="#c0c1c0" fill-opacity=".5" d="M170.9 137.6l-1.4-.8 8-13.4 1.4.8z"/><path fill="#d3dbd7" fill-opacity=".5" d="M326.5 158l1.3-.9 3.5 5.2-1.2.9z"/><path fill="#706453" fill-opacity=".5" d="M219.6 114.7l1.4.7-1.5 2.8-1.4-.8z"/><path fill="#b5a594" fill-opacity=".5" d="M176.4 74.2l.3 3-1.6.2-.2-3.1z"/><path fill="#737471" fill-opacity=".5" d="M302.1 163.1l1.4-.7 2.2 4.2-1.4.7z"/><path fill="#573f38" fill-opacity=".5" d="M170.7 118.8l-.7-4.6 1.5-.2.7 4.6z"/><path fill="#805a33" fill-opacity=".5" d="M176.4 61.3l-4.6-.8.2-1.5 4.7.8z"/><path fill="#97815f" fill-opacity=".5" d="M138.5 102.4l3-1.1 2.8 7.3-3 1z"/><path fill="#d0d0c4" fill-opacity=".5" d="M148 83.7l1.6-.2.8 9.4-1.6.1z"/><path fill="#a1876a" fill-opacity=".5" d="M208.5 93.2l-.8-1.4 4.2-2.2.7 1.4z"/><path fill="#ae9387" fill-opacity=".5" d="M211.5 69l-1-1 4.6-4.3 1 1.2z"/><path fill="#ded2c0" fill-opacity=".5" d="M238.4 121.6l-4.6-6.3 1.3-1 4.5 6.4z"/><path fill="#965830" fill-opacity=".5" d="M194.4 47l-1.3.8-1.6-2.7 1.4-.8z"/><path fill="#cdcec8" fill-opacity=".5" d="M211.1 173.4l2.7 51.5-1.5.1-2.7-51.5z"/><path fill="#dbe3e1" fill-opacity=".5" d="M338.7 141l-31.7 8.5-.4-1.5 31.7-8.5z"/><path fill="#878c8b" fill-opacity=".5" d="M53.1 177.3l-2.5-1.8 1-1.3 2.5 1.9z"/></svg>