<svg xmlns="http://www.w3.org/2000/svg" viewBox="0 0 800 400"><path fill="#cecfc9" d="M0 0h800v400H0z"/><g fill-opacity=".5"><path d="M761 448.4l87.4-131.2-456.2 31.2zM161 339l-209.4 31.3 181.2 78.1z"/><path fill="#fff" d="M-48.4 7.8l865.6-56.2 18.7 390.6z"/><path fill="#988367" d="M195.3 192.2L561 448.4 420.3 64.1z"/><path d="M848.4 348.4l-300 100-25-115.6z"/><path fill="#fff" d="M-48.4 17.2l484.3-65.6L48.4 348.4z"/><path d="M-48.4 351.6l159.3 96.8 50-93.7z"/><path fill="#61461f" d="M204.7 157.8l140.6 81.3-28.1 75z"/><path fill="#f4f9f8" d="M401.6 436L507.8-23.5 761-17.2z"/><path fill="#0c0300" d="M732.8 320.3l115.6 71.9-390.6 31.2z"/><path fill="#f2f8fb" d="M245.3 395.3L201.6-48.4l-250 303z"/><path fill="#561f00" d="M401.6 107.8l-25-25-87.5 68.8z"/><path fill="#fff" d="M295.3 173.4l50-40.6-15.6 109.4z"/><path fill="#beb69f" d="M279.7 323.4l262.5 125L514 239.1z"/><path fill="#f7fafd" d="M848.4-29.7v278.1L14.1-48.4z"/><path fill="#614216" d="M292.2 164l-34.4 72-43.7-59.4z"/><path fill="#ced5d5" d="M307.8 354.7l125 21.9-43.7-206.3z"/><path fill="#99794e" d="M451.6 423.4l53-162.5 37.6 172z"/><path fill="#8a6b31" d="M298.4 111l-9.3 46.8 93.7-50z"/><path fill="#e9f0f0" d="M439-48.4l84.4 359.3 265.7 15.7z"/><path fill="#715e55" d="M332.8 254.7l43.8-159.4 3 106.3z"/><path fill="#866550" d="M401.6 264l-6.3-65.6 43.8-75z"/><path fill="#d6dad3" d="M142.2 448.4l190.6-221.8-78.1 181.2z"/><path fill="#1f1903" d="M142.2 448.4l12.5-100-203.1 40.7z"/><path fill="#241f06" d="M845.3 326.6l-75 121.8-234.4-103z"/><path fill="#a2adab" d="M636 298.4l90.6 25-181.3 15.7z"/><path fill="#f2f6f7" d="M476.6-26.6l-522 381.3L-7.7-48.4z"/><path fill="#dee1d9" d="M348.4 176.6l-78-15.7 28 68.8z"/><path fill="#a6ada9" d="M154.7 345.3l68.7 3.1-65.6 72z"/><path fill="#7f6237" d="M339 251.6l-34.3 28-9.4 75z"/><path fill="#dee3e3" d="M117.2 354.7l-165.6-100 356.2 18.7z"/><path fill="#f4f5f5" d="M329.7 123.4L223.4-48.4l209.4 84.3z"/><path fill="#d0dcde" d="M404.7 251.6l9.4 78 28-150z"/><path fill="#241f0d" d="M607.8 326.6l234.4 68.7-321.9 6.3z"/><path fill="#6b5948" d="M420.3 279.7l18.8-34.4-12.5 81.3z"/><path fill="#d4dad5" d="M382.8 304.7l-12.5-93.8 40.6-90.6z"/><path fill="#d2d9d6" d="M398.4 442.2l59.4-243.8 9.4 178.2z"/><path fill="#626763" d="M70.3 367.2L1.6 348.4H139z"/><path fill="#f6f7f9" d="M398.4 139l9.4-171.8 78.1 50z"/><path fill="#8d6500" d="M323.4 120.3l-18.7-12.5-21.9 12.5z"/><path fill="#94867f" d="M426.6 98.4l25 112.5 6.2-71.8z"/><path fill="#d8dbd3" d="M226.6 204.7L185.9 414l118.8-128.2z"/><path fill="#b5c0bb" d="M739 292.2l-56.2 37.5L848.4 314z"/><path fill="#ac8f61" d="M223.4 170.3l75 9.4-50-37.5z"/><path fill="#4a3313" d="M311 242.2l-37.6-6.3 25 28.2z"/><path fill="#9a917b" d="M454.7 326.6l115.6 3-84.4 25z"/><path fill="#322f21" d="M736 314l-40.7 43.8h84.4z"/><path fill="#c8c7bd" d="M429.7 257.8l-28.1 137.5-147-40.6z"/><path fill="#b5ac99" d="M304.7 289l12.5-78h28.1z"/><path fill="#8d675a" d="M354.7 151.6l34.4-9.4 6.2-59.4z"/><path fill="#f0f3f4" d="M251.6 104.7L151.6 314l-200-359.4z"/><path fill="#b09e79" d="M479.7 282.8l-25 62.5 12.5-106.2z"/><path fill="#dee6e4" d="M701.6 326.6L848.4 189l-325 87.5z"/><path fill="#eef7f7" d="M311 164l53-37.4-78 96.8z"/><path fill="#765a39" d="M264 167.2l34.4 40.6-78-15.6z"/><path fill="#d5d2c3" d="M317.2 129.7l-46.9-25 6.3 59.4z"/><path fill="#847354" d="M298.4 145.3l-9.3 37.5 53-68.7z"/><path fill="#5d341b" d="M386 79.7l-18.8 43.7-34.4 6.3z"/><path fill="#674f35" d="M495.3 364l15.6 84.4-43.7-12.5z"/><path fill="#8e7d64" d="M404.7 264l-9.4-21.8-3.1 59.4z"/><path fill="#563f2f" d="M411 226.6l-9.4-22 18.7-15.5z"/><path fill="#b5a890" d="M298.4 207.8l-59.3 37.5 106.2-31.2z"/><path fill="#494840" d="M648.4 357.8l34.4-18.7-65.6-15.7z"/><path fill="#f1f3f2" d="M848.4-48.4L667.2 242.2 389 76.6z"/><path fill="#2a281b" d="M151.6 348.4l-200 31.3 190.6 68.7z"/><path fill="#847066" d="M448.4 220.3l-3-34.4-12.6 65.7z"/><path fill="#543100" d="M326.6 136l9.3-15.7-15.6 3.1z"/><path fill="#563d1a" d="M282.8 226.6l-56.2-40.7 18.7 40.7z"/><path fill="#cbb9ac" d="M454.7 154.7l-78.1-12.5-9.4 34.4z"/><path fill="#e9efed" d="M342.2 132.8l-9.4 78.1-37.5-37.5z"/><path fill="#c7b18a" d="M532.8 411l-25-56.3 15.6-28.1z"/><path fill="#e5eaea" d="M176.6 154.7l-225 140.6L64 342.2z"/><path fill="#886b5d" d="M411 148.4l25-28v21.8z"/><path fill="#261f0e" d="M536 448.4l-3.2-87.5 300-28z"/><path fill="#37281b" d="M323.4 261l22-28.2-22 56.3z"/><path fill="#b4a17c" d="M301.6 279.7l18.7 40.6-28.1 46.9z"/><path fill="#d6dedb" d="M620.3 329.7l59.4-59.4L835.9 286z"/><path fill="#705738" d="M286 229.7l9.3 37.5 28.1-50z"/><path fill="#737673" d="M629.7 320.3l-18.8 21.9-43.7-6.3z"/><path fill="#d8dbd5" d="M445.3 436l-18.7-72 37.5-90.6z"/><path fill="#edf1ef" d="M454.7 211L714 14 585.9 295.4z"/><path fill="#a46f60" d="M404.7 89l-12.5 25-31.3-3z"/><path fill="#909ca0" d="M17.2 336l56.2 18.7H14.1z"/><path fill="#c8c9c1" d="M476.6 448.4L348.4 239.1l-50 143.7z"/><path fill="#9d7f58" d="M523.4 367.2l-15.6 81.2-15.6-143.7z"/><path fill="#d0c7b0" d="M517.2 279.7l-25-50-21.9 62.5z"/><path fill="#d7d1c9" d="M423.4 104.7l-15.6 56.2-15.6-50z"/><path fill="#f2f4f5" d="M276.6 129.7L414-48.4-48.4 89z"/><path fill="#9a876b" d="M289 220.3v-28.1h-34.3z"/><path fill="#d2ccb6" d="M232.8 142.2l65.6 25-15.6-34.4z"/><path fill="#161408" d="M623.4 448.4l225-68.7-306.2 6.2z"/><path fill="#dee8e6" d="M507.8 257.8l90.6 62.5-50 9.4z"/><path fill="#a6aca9" d="M179.7 342.2l-53.1 106.2h75z"/><path fill="#b6bab3" d="M198.4 448.4l25-46.8-9.3-62.5z"/><path fill="#cacabc" d="M236 226.6l71.8 56.2-50 3.1z"/><path fill="#1f1b0e" d="M151.6 389l-197-9.3 187.6 68.7z"/><path fill="#3a3320" d="M611 342.2l-81.3-3.1 34.4 46.8z"/><path fill="#854131" d="M401.6 86l-22 18.7 9.5 6.2z"/><path fill="#ab9f83" d="M439 448.4h47l-3.2-131.2z"/><path fill="#46453e" d="M157.8 367.2l-3.1-21.9L98.4 361z"/></g></svg>