<svg xmlns="http://www.w3.org/2000/svg" viewBox="0 0 2000 1000"><path fill="#cfcfca" d="M0 0h2000v1000H0z"/><g fill-opacity=".5"><path d="M2121 793l-218.7 328L1004 879zM449.2 879l-234.4 242L-121 886.8z"/><path fill="#fff" d="M-121 19.5l2179.6 828.2-39-968.8z"/><path fill="#947f62" d="M1027.3 175.8l406.3 945.3-945.3-648.4z"/><path d="M1324.2 808.6l796.9 78.1-757.8 234.4z"/><path fill="#fff" d="M1004-19.5L113.2 886.7-121.1-43z"/><path d="M402.3 863.3L332 1121l-453-179.7z"/><path fill="#533205" d="M668 410.2L527.3 457l320.4 312.5z"/><path fill="#d3d7ce" d="M1863.3 683.6L925.8 535.2 621 1089.8z"/><path fill="#0e0800" d="M1332 988.3l789 23.4L1847.8 793z"/><path fill="#f1f8fa" d="M207-121l554.7 953-882.8-15.6z"/><path fill="#520" d="M980.5 308.6l-250 46.9 250-140.7z"/><path fill="#fff" d="M714.8 457l172-140.6-62.6 250z"/><path fill="#f8fdfe" d="M933.6-121L2121 82l-757.8 757.8z"/><path fill="#826e55" d="M754 871l-8-281.2 218.8-179.6z"/><path fill="#a18253" d="M1097.7 1097.7l257.8-7.9-86-453z"/><path fill="#90786b" d="M1152.3 425.8L988.3 621l86-382.8z"/><path fill="#886f30" d="M730.5 418V246l125 78.2z"/><path fill="#d1d7d1" d="M824.2 621l-382.8 500-54.7-265.5z"/><path fill="#211d03" d="M1347.7 902.3l562.5 218.8L2121 816.4z"/><path fill="#d9e3e2" d="M1652.3 824.2l-421.8-336 882.8 312.6z"/><path fill="#f6f8fa" d="M1043 254L2121 4 660.3-74.3z"/><path fill="#c2c3bb" d="M1144.5 285.2l39 640.6L839.9 1043z"/><path fill="#887c6e" d="M1129 464.8l-54.8 320.4-39-125z"/><path fill="#6e532a" d="M644.5 441.4l109.4 250L590 543z"/><path fill="#835f51" d="M1004 222.7L918 207l-39 312.5z"/><path fill="#f0f4f2" d="M2121 535.2l-1015.5 39L1793-121z"/><path fill="#dee2dc" d="M894.5 324.2l-250 273.5 218.8-86z"/><path fill="#f4f7f9" d="M1074.2 168L43-121l-156.3 664z"/><path fill="#d8d5d2" d="M1058.6 277.3L957 636.7V277.3z"/><path fill="#919a98" d="M1410.2 847.7l85.9-62.5 211 39z"/><path fill="#1a1700" d="M-121 957l570.2 164-93.7-210.8z"/><path fill="#c7c8bf" d="M988.3 1035.2l-336-62.5 453.2-461z"/><path fill="#5d4426" d="M800.8 629l62.5-39.2-78.1 211z"/><path fill="#cccdc1" d="M847.7 543L652.3 793l31.3 140.6z"/><path fill="#b5bdba" d="M363.3 1121L418 777.4l109.3 343.8z"/><path fill="#d9dfd7" d="M1144.5 519.5l23.5 390.7-156.3 210.9z"/><path fill="#28220e" d="M1879 925.8l-531.3 171.9-23.5-265.7z"/><path fill="#4d534c" d="M-50.8 879l140.6 70.2 234.4-78.1z"/><path fill="#c5b490" d="M714.8 425.8L793 285.2 543 433.6z"/><path fill="#e4eae7" d="M1996 527.3l-578 320.4-281.3-359.4z"/><path fill="#998263" d="M1246 738.3l70.4 226.5-211 156.3z"/><path fill="#573721" d="M1027.3 574.2l15.7-109.4-31.3 39.1z"/><path fill="#4c2e13" d="M1074.2 683.6l-23.4 101.6 31.2-47z"/><path fill="#968776" d="M980.5 754l46.8-140.7-39-148.5z"/><path fill="#6a4e2a" d="M613.3 558.6l-54.7-132.8 171.9 7.8z"/><path fill="#dee4e4" d="M89.8 605.5l586 265.6-609.4-31.3z"/><path fill="#eaf0ee" d="M847.7 558.6l-125-86 125-132.8z"/><path fill="#754e0d" d="M832 339.8l101.6-54.6H761.7z"/><path fill="#f3f6f6" d="M433.6-97.7L832 308.6 1144.5-82z"/><path fill="#c5c5b3" d="M605.5 722.7L746 691.4 582 543z"/><path fill="#a9b6b6" d="M-58.6 777.3L4 886.7h187.5z"/><path fill="#958176" d="M863.3 425.8l70.3 86 70.3-281.3z"/><path fill="#9b9083" d="M1074.2 300.8l78.1 125-39-156.3z"/><path fill="#d0c19e" d="M1316.4 855.5l-31.2 62.5 46.8 93.7z"/><path fill="#675133" d="M785.2 589.8l-31.3 86-140.6-148.5z"/><path fill="#b29a70" d="M1168 597.7l-15.7 218.7 39.1-109.4z"/><path fill="#cad0cd" d="M957 746l86-445.2-148.5 296.9z"/><path fill="#c7c8bf" d="M1238.3 1097.7L785.2 894.5l70.3-257.8z"/><path fill="#f4f6f8" d="M714.8 27.3l461 289.1L980.5 50.8z"/><path fill="#b3a58b" d="M738.3 511.7l-125 101.6L832 543z"/><path fill="#d3d2c2" d="M613.3 355.5l93.7-31.3 39 93.8z"/><path fill="#f0f2f3" d="M-121-11.7L652.2 168 379 816.4z"/><path fill="#1d1c0f" d="M2121 879l-273.3 242-47-296.8z"/><path fill="#867666" d="M1129 566.4l-62.6 125 39-203.1z"/><path fill="#59574d" d="M1480.5 847.7l62.5-39.1 132.8 39z"/><path fill="#a7ada8" d="M464.8 863.3l-78 78.1 78 179.7z"/><path fill="#cad1cd" d="M1058.6 722.7l-62.5-47 101.6-242.1z"/><path fill="#ab8e5a" d="M730.5 933.6L761.7 707l54.7 23.5z"/><path fill="#282618" d="M355.5 1121l23.4-218.7-500 7.9z"/><path fill="#90786c" d="M1136.7 496v-93.7l-31.2 93.8z"/><path fill="#7a8485" d="M1386.7 855.5l-86-31.3 164.1 7.8z"/><path fill="#e4dcd5" d="M980.5 300.8l109.3 15.6-54.6-101.6z"/><path fill="#d0bcac" d="M933.6 371l179.7-7.7-156.3 86z"/><path fill="#c3bcb0" d="M793 668l109.3-218.8-78 54.7z"/><path fill="#d2c9b1" d="M1183.6 574.2l78.1 46.9-46.9 187.5z"/><path fill="#d3d2ca" d="M777.3 355.5L668 277.3l132.8 47z"/><path fill="#654c39" d="M1152.3 1113.3l101.6-78.1-15.6-109.4z"/><path fill="#b0bab7" d="M1879 824.2l-62.6-70.3 234.4 70.3z"/><path fill="#956a00" d="M769.5 300.8l31.3-23.5-62.5 7.9z"/><path fill="#f0f3f4" d="M-27.3 722.7L-43-58.6l984.4 218.8z"/><path fill="#b9a27a" d="M707 449.2l-132.8-46.9 54.7-54.6z"/><path fill="#c0c8c6" d="M1793 832l-179.7-93.7-171.9 54.7z"/><path fill="#322d1d" d="M1722.7 941.4l312.5-93.7-554.7-7.9z"/><path fill="#d4dedb" d="M1324.2 816.4l265.6-70.3-289-39z"/><path fill="#a9a08d" d="M699.2 441.4l39-7.8-46.8 86z"/><path fill="#f7aa8a" d="M941.4 199.2h31.3l23.4 31.3z"/><path fill="#a09377" d="M1144.5 855.5l31.3-23.5-15.6-31.2z"/><path fill="#d5dad8" d="M1097.7 660.2l62.5-203.2-7.9 336z"/><path fill="#dce5e3" d="M1558.6 824.2l320.3-250 242.2 117.2z"/><path fill="#593b20" d="M863.3 308.6l46.9 15.6L957 222.7z"/><path fill="#dcdfd9" d="M707 1121L589.8 543 543 1035.2z"/><path fill="#b9b39f" d="M1058.6 754l23.4 101.5-78 140.6z"/><path fill="#554333" d="M793 683.6l78-125L832 707z"/><path fill="#99a7ab" d="M386.7 855.5l-140.6 7.8 46.9 23.4z"/><path fill="#bec2be" d="M941.4 769.5l-62.5-203L800.8 793z"/><path fill="#ebeff0" d="M808.6 355.5l-39 132.8 132.7-164z"/><path fill="#695644" d="M793 386.7l70.3-78.1-148.5 93.7z"/><path fill="#161506" d="M1332 949.2l62.5 171.9L2004 980.5z"/><path fill="#605a60" d="M894.5 527.3l31.3-31.2-31.3 78.1z"/></g></svg>