<svg xmlns="http://www.w3.org/2000/svg" viewBox="0 0 200 100"><path fill="#525750" d="M0 0h200v100H0z"/><g fill-opacity=".5"><path fill="#b1ac9e" d="M126.5 101.5l-4-117 56 66z"/><path fill="#172016" d="M51.5 20.5l-67 83 26-118z"/><path fill="#140f07" d="M167.5 115.5l48-36-22-95z"/><path fill="#f3f3f0" d="M63.5 32.5l-8 27-13-17z"/><path fill="#d1dedd" d="M167.5 60.5l7-24-36 27z"/><path fill="#1b1006" d="M153.5-4.5l6 41-14-3z"/><path fill="#2f3429" d="M-15.5 99.5l99-45-37 61z"/><path fill="#7a6445" d="M215.5 36.5l-73 72-18-22z"/><path fill="#9c9890" d="M181.5 16.5l-12-13-20 56z"/><path fill="#c9cfca" d="M20.5 78.5l5 10 6-14z"/><path fill="#a9aba1" d="M42.5 9.5l-26-25h83z"/><path fill="#3f4137" d="M113.5 27.5l30 28-1-20z"/><path fill="#cac8c0" d="M59.5 31.5l-2 10h18z"/><path fill="#1e241d" d="M52.5 51.5l-23 20-36-6z"/><path fill="#b7c9ca" d="M151.5 48.5l-10-13 32 4z"/><path fill="#bdc3c2" d="M51.5 93.5l-12 18 3-18z"/><path fill="#304750" d="M142.5 86.5l-85 29 22-46z"/><path fill="#161916" d="M181.5 12.5l6 45 28-73z"/><path fill="#4f616c" d="M83.5 24.5l45-3-21 93z"/><path fill="#cec6b9" d="M73.5 4.5l-3 12 10-10z"/><path fill="#90918a" d="M43.5 65.5l21-4-5-16z"/><path fill="#fff" d="M167.5 58.5l-24-1 19 6z"/><path fill="#9d9e9a" d="M154.5 111.5l-18-2 7-34z"/><path fill="#a39b8f" d="M148.5 28.5l-16 7 10-51z"/><path fill="#1f291f" d="M69.5 112.5l-81-14-4-30z"/><path fill="#2d2b23" d="M145.5 23.5l54-39h-43z"/><path fill="#43372b" d="M142.5 34.5l46-11v14z"/><path fill="#3a3d2f" d="M81.5 36.5l-23 9 23 33z"/><path fill="#2b3129" d="M-15.5 12.5l88-2-68 39z"/><path fill="#777f75" d="M123.5 41.5l56 15-65 1z"/><path fill="#e6e9e5" d="M45.5 43.5l22-9-17 15z"/><path fill="#666d65" d="M-15.5 5.5l33 10-3-31z"/><path fill="#343023" d="M193.5 57.5l-57 58 65-17z"/><path fill="#646b63" d="M60.5 35.5l-19 6-10-13z"/><path fill="#324c57" d="M81.5-15.5l-1 54 54-44z"/><path fill="#868d86" d="M30.5 72.5l-2 11-29-10z"/><path fill="#a2aaaa" d="M169.5 4.5l9-3-6 10z"/><path fill="#4f4e44" d="M112.5 76.5l23-13 3-15z"/><path fill="#151d18" d="M41.5 61.5l2 27 5-20z"/><path fill="#878275" d="M77.5 44.5l-20-3 22-14z"/><path fill="#9f9788" d="M121.5 43.5l2 18 33 10z"/><path fill="#6c7471" d="M192.5 60.5l3-16 20 15z"/><path fill="#776037" d="M157.5 63.5l19-2-18 49z"/><path fill="#2b2d25" d="M145.5 29.5l-7 13 3 12z"/><path fill="#71746e" d="M64.5 74.5l-3 8-18-11z"/><path fill="#1b150e" d="M73.5 88.5l7 10-18 7z"/><path fill="#92979a" d="M119.5 8.5l26-24-22 38z"/><path fill="#42483f" d="M43.5 43.5l-21-7 9 41z"/><path fill="#d6dad5" d="M55.5 47.5l-14-1 17-9z"/><path fill="#465355" d="M83.5 17.5l57 3-33 8z"/><path fill="#060f0f" d="M192.5-15.5l-27 12 26 8z"/><path fill="#172123" d="M118.5 81.5v18l10-14z"/><path fill="#abaea4" d="M33.5 5.5l7-19 5 19z"/><path fill="#484335" d="M134.5 51.5l-4 16 6 1z"/><path fill="#594b38" d="M178.5 15.5l-7 43 18-1z"/><path fill="#545b54" d="M-9.5 35.5l33-11-23-2z"/><path fill="#ada591" d="M140.5 47.5l-8 3 1-12z"/><path fill="#7f776c" d="M153.5 19.5l27-16-15 36z"/><path fill="#9f998d" d="M68.5 10.5l5 6 10-11z"/><path fill="#42453e" d="M63.5 21.5l-25-33 12-4z"/><path fill="#c9cbc5" d="M132.5 94.5l9 21h-14z"/><path fill="#1b231d" d="M-8.5 47.5l46-30v16z"/><path fill="#1c1e17" d="M55.5 74.5l-1-8 14-7z"/><path fill="#a4a099" d="M134.5 71.5l4 15-16-12z"/><path fill="#b3beba" d="M170.5 46.5l-27-9 1 8z"/><path fill="#c4c9bf" d="M61.5 60.5l3-6v5z"/><path fill="#7b8d88" d="M144.5 46.5l36 3-12 9z"/><path fill="#40382e" d="M149.5 92.5l7-9-17 5z"/><path fill="#c7cdc2" d="M54.5 30.5l5-1 1 4z"/><path fill="#606653" d="M9.5 45.5l-23 12 30-6z"/><path fill="#b1b5b3" d="M39.5 34.5l12 14-6-13z"/><path fill="#686860" d="M137.5 1.5l16-8 6 12z"/><path fill="#353926" d="M83.5 50.5l-23-9 11 23z"/><path fill="#18262c" d="M77.5 40.5l6 5 3-14z"/><path fill="#191c19" d="M176.5 8.5l30 7 3 27z"/><path fill="#acb3b0" d="M180.5 3.5l2-4 2 7z"/><path fill="#21261e" d="M40.5 64.5l7-9-32 2z"/><path fill="#4a5049" d="M9.5 70.5l25 5-12-25z"/><path fill="#898176" d="M70.5 23.5l-12-2 21 11z"/><path fill="#070d03" d="M50.5 35.5l-3 4 6-2z"/><path fill="#e2e6db" d="M64.5 37.5l2-4 2 4z"/><path fill="#141410" d="M74.5 2.5l64-14-75-4z"/><path fill="#c7c1af" d="M141.5 63.5l8 8 1-7z"/><path fill="#d0d4ce" d="M177.5 11.5l3 3-5 1z"/><path fill="#3d4a4a" d="M60.5 34.5l27 37 5-12z"/><path fill="#292f27" d="M51.5 83.5l-19-9-4 9z"/><path fill="#4d5c60" d="M123.5 73.5l-35-89-3 131z"/><path fill="#fff" d="M152.5 57.5l4 4 9-3z"/><path fill="#746b5d" d="M63.5 90.5l12-25 1 20z"/><path fill="#413d34" d="M68.5 9.5l4 28-8-12z"/><path fill="#323a30" d="M6.5 37.5l15 14h33z"/><path fill="#405457" d="M127.5 43.5l-12-56-32 18z"/><path fill="#6b7458" d="M36.5 11.5v6l17-11z"/><path fill="#2a3324" d="M62.5 91.5l-17 9 17-21z"/><path fill="#c0beba" d="M49.5 65.5l2-4 2 4z"/><path fill="#565d55" d="M22.5 44.5l22-2-17-3z"/><path fill="#443c32" d="M159.5 9.5l2 16-23 18z"/><path fill="#9a9f9b" d="M37.5 93.5l17 14 17-2z"/><path fill="#a1a9a5" d="M150.5 36.5l24 16-2-16z"/><path fill="#202928" d="M127.5 65.5l-10 4 5-7z"/></g></svg>