<svg xmlns="http://www.w3.org/2000/svg" viewBox="0 0 400 200"><path fill="#51564e" d="M0 0h400v200H0z"/><path fill="#c4c3b3" fill-opacity=".5" d="M355.3 127l-98.1 31.9-20.3-62.5 98-31.8z"/><path fill="#dbdbd5" fill-opacity=".5" d="M102.4 113l-17-20.4 41.9-35.2 17 20.4z"/><path fill="#161209" fill-opacity=".5" d="M341.1 211.7L372.2-9.6l85.1 12-31 221.2z"/><path fill="#161f16" fill-opacity=".5" d="M105.6 35.5L7.3 170.8-51 128.5 47.4-6.7z"/><path fill="#b4afa4" fill-opacity=".5" d="M240.9 4.1l46.3-7.3 11 69.4-46.3 7.3z"/><path fill="#827c6c" fill-opacity=".5" d="M255 216.5L239.2 87.8l48-5.9L303 210.6z"/><path fill="#fff" fill-opacity=".5" d="M291 114.2l42.1 3-.7 10.8-42.1-3z"/><path fill="#141e11" fill-opacity=".5" d="M71.6 238.6l-119.2-25.3 12-56.6 119.2 25.4z"/><path fill="#725c39" fill-opacity=".5" d="M290.7 153.8L426 55.6 445.2 82 310 180.4z"/><path fill="#9b9284" fill-opacity=".5" d="M311.2 43.3l32-32 22.2 22-32 32z"/><path fill="#b3b7ad" fill-opacity=".5" d="M63.4 14.8l6.8-32 33.6 7L97 22z"/><path fill="#b0bbb5" fill-opacity=".5" d="M358.8 104.6l-69.5-11 3.5-21.6 69.4 11z"/><path fill="#babcb8" fill-opacity=".5" d="M130.3 122.3l-9.7 7.8-46.2-57 9.7-8z"/><path fill="#343b2f" fill-opacity=".5" d="M146.5 151.4l-36.3 45-80.2-65 36.4-45z"/><path fill="#292e18" fill-opacity=".5" d="M168.3 112.5l-15 16-38.8-36.3 15-16z"/><path fill="#969d9a" fill-opacity=".5" d="M54.8 172.4L12 157.7l6.6-19.2 42.8 14.7z"/><path fill="#32291d" fill-opacity=".5" d="M325 6.8l-13 67.5-23-4.5 13-67.5z"/><path fill="#25251f" fill-opacity=".5" d="M418 65.4l-34.9 49.9-37.1-26 35-50z"/><path fill="#172319" fill-opacity=".5" d="M273.5 79.7l7.6-2 9.4 38-7.5 1.9z"/><path fill="#455b67" fill-opacity=".5" d="M261 33.6l-31 175.5-73.8-13 31-175.5z"/><path fill="#9a9b95" fill-opacity=".5" d="M125.7 103.3l-27.6 34-9.7-7.8 27.5-34z"/><path fill="#fff" fill-opacity=".5" d="M92.5 88l26-14.3 3 5.4-26 14.4z"/><path fill="#b9b5a6" fill-opacity=".5" d="M144 38l-10-9.7 17.3-18 10.1 9.8z"/><path fill="#9c9888" fill-opacity=".5" d="M247.9 141.2l49.5 7-3 21.6-49.6-7z"/><path fill="#00161c" fill-opacity=".5" d="M241.2 197.2l-11-5.9 14.6-27.6 11 6z"/><path fill="#111e1c" fill-opacity=".5" d="M154 211.7l-23.2-12.9 13.6-24.6 23.3 13z"/><path fill="#302c1e" fill-opacity=".5" d="M266.7 235.6l120.5-120.4 32 32-120.4 120.4z"/><path fill="#222417" fill-opacity=".5" d="M90.7 23.8l23.5-8.5 9.1 25-23.5 8.5z"/><path fill="#c1c8c3" fill-opacity=".5" d="M81.8 192.3l12.2-2.9 3.9 16.8-12.2 2.8z"/><path fill="#4c4739" fill-opacity=".5" d="M265 100l12.3 2-6.3 40.1-12.4-2z"/><path fill="#191e15" fill-opacity=".5" d="M284.4 70.6v-1.5l107.8 5.6-.1 1.6z"/><path fill="#121916" fill-opacity=".5" d="M384 76.3l-24.6-50.6 39.3-19.2 24.7 50.6z"/><path fill="#304d58" fill-opacity=".5" d="M256.8 11.4L170.2 43 151-10l86.6-31.5z"/><path fill="#625439" fill-opacity=".5" d="M364.2 135.5l-21.7-2.7 7.4-60.5 21.7 2.7z"/><path fill="#b3ad9e" fill-opacity=".5" d="M266.2 51.8L289 38.1l8.8 14.8-22.7 13.7z"/><path fill="#5f6256" fill-opacity=".5" d="M74.3 85.8L68.5 68l74.3-24.1 5.8 17.8z"/><path fill="#262a21" fill-opacity=".5" d="M358.6-3.9l-56.9 41.4L289.8 21l56.9-41.3z"/><path fill="#323930" fill-opacity=".5" d="M180 142.1l-16 21.2-42.4-32 16-21.2z"/><path fill="#b1b5b1" fill-opacity=".5" d="M42.8 151.9l7.8-.6 1.9 26.5-7.8.6z"/><path fill="#715a35" fill-opacity=".5" d="M317.8 127.3l36.9 20.4-30.3 54.7-37-20.5z"/><path fill="#fff" fill-opacity=".5" d="M304 113.6l32.2 5.7-1 6.2-32.4-5.7z"/><path fill="#101813" fill-opacity=".5" d="M-1.7 72l55-18 6.2 19.4-55 17.8z"/><path fill="#a6b2af" fill-opacity=".5" d="M336.8 10.4l17.7-6 4 11.7-17.7 6.1z"/><path fill="#697373" fill-opacity=".5" d="M408 125.5l-28.5-12.7 10.8-24.3 28.6 12.8z"/><path fill="#162320" fill-opacity=".5" d="M255.5 131.8l-10.3 9.6-8.5-9.1 10.3-9.6z"/><path fill="#1a201a" fill-opacity=".5" d="M100.7 159L75 179.2l-11.6-14.8 25.9-20.2z"/><path fill="#141e14" fill-opacity=".5" d="M97.2 106.7l2 12.3-44.8 7.1-2-12.3z"/><path fill="#908e81" fill-opacity=".5" d="M290.8 176.7l11.4 22.3-44.6 22.7-11.3-22.3z"/><path fill="#92938d" fill-opacity=".5" d="M291.3 8.4l4.2 26.2-54 8.6-4.2-26.3z"/><path fill="#898570" fill-opacity=".5" d="M138.7 87l14-33 10.1 4.3-14 33z"/><path fill="#28393e" fill-opacity=".5" d="M163.4 129l-10.8-1.2 19.9-189.6 10.9 1.2z"/><path fill="#b6c4c0" fill-opacity=".5" d="M349 77.7l-9.8 23-11.6-5 9.8-23z"/><path fill="#727c72" fill-opacity=".5" d="M84.7 134l-10 21.3-14-6.6 9.8-21.2z"/><path fill="#aca797" fill-opacity=".5" d="M271.5 132.5l5.3-16.4 28.3 9.2-5.4 16.4z"/><path fill="#252c26" fill-opacity=".5" d="M-36.9 50.5L-38 28.7l110.8-5.8 1.1 21.8z"/><path fill="#cbceca" fill-opacity=".5" d="M114.2 82.3l-.3 15.6-32.8-.5.3-15.7z"/><path fill="#74766e" fill-opacity=".5" d="M130 151.7l-3.9 11.9L93.4 153l3.9-12z"/><path fill="#2f3631" fill-opacity=".5" d="M46 164.8l-18.5 48.1-43.8-16.8L2.2 148z"/><path fill="#62675e" fill-opacity=".5" d="M46.2 83.2l.5-1.5 83.7 30.5-.5 1.4z"/><path fill="#5f6054" fill-opacity=".5" d="M320.7 13.4l-48.2-5 2.1-20.3 48.2 5.1z"/><path fill="#1b2217" fill-opacity=".5" d="M133.6 121l4.7 8-29.7 17.2-4.7-8z"/><path fill="#424942" fill-opacity=".5" d="M88.7 87.3l-38.1 29.9-9.7-12.4L79.1 75z"/><path fill="#9a9c8e" fill-opacity=".5" d="M247.2 86.6l21 10.6-10.7 21-21-10.7z"/><path fill="#dfe2df" fill-opacity=".5" d="M108 60.4l.8-1.3 28.5 16.4-.8 1.3z"/><path fill="#82857a" fill-opacity=".5" d="M127 9.4L77.4 23.7 68.4-8l49.5-14z"/><path fill="#413b2e" fill-opacity=".5" d="M263.7 175l9.1-2.1 8.8 38-9.1 2.2z"/><path fill="#4d4838" fill-opacity=".5" d="M240.3 53.9l-1.4-6.1 41.1-9.5 1.4 6z"/><path fill="#151c1a" fill-opacity=".5" d="M27.6 121L20 146.4-1 140l7.8-25.4z"/><path fill="#50422d" fill-opacity=".5" d="M379.9 45.3l-19.1 35.9-23.5-12.5L356.4 33z"/><path fill="#908e82" fill-opacity=".5" d="M141.8 21.7L141 9.3l25-1.4.6 12.5z"/><path fill="#7c7466" fill-opacity=".5" d="M361.2 53.8l-44 16-8-22 44-16z"/><path fill="#5e6352" fill-opacity=".5" d="M26.2 93.4l2 14-27.9 3.9-2-14z"/><path fill="#222f1a" fill-opacity=".5" d="M125.9 164.2l1.3 25-23.4 1.2-1.3-25z"/><path fill="#5c584c" fill-opacity=".5" d="M269.9 140.7l9.3-1.3 5.6 40.2-9.3 1.3z"/><path fill="#aeb9b6" fill-opacity=".5" d="M347 100l-60.2-9.5 2.2-14 60.2 9.6z"/><path fill="#454d46" fill-opacity=".5" d="M46.4 52.3l-13.9 2.2-11.7-74 13.9-2.2z"/><path fill="#c1c6c4" fill-opacity=".5" d="M60.3 148.5l-.2 11-9.4-.2.2-11z"/><path fill="#535f64" fill-opacity=".5" d="M204.8 165.1L163.1 44 203 30.2l41.7 121.2z"/><path fill="#fff" fill-opacity=".5" d="M352 24l1.2-1 8.9 10.9-1.3 1z"/><path fill="#362f26" fill-opacity=".5" d="M138.6 80.5l-7-99.8 3.2-.2 7 99.7z"/><path fill="#b8b9b6" fill-opacity=".5" d="M94.3 123.8l3.4-3.2 9.6 10.3-3.4 3.2z"/><path fill="#d1d3ce" fill-opacity=".5" d="M126.6 180.6l9.9-7.7 1 1.2-10 7.7z"/><path fill="#1e2619" fill-opacity=".5" d="M104 77.5l-2.5 1.9-16.4-21 2.5-1.9z"/><path fill="#384c50" fill-opacity=".5" d="M182 203.7l-26.5.4-1.6-90.6 26.6-.4z"/><path fill="#aca69c" fill-opacity=".5" d="M148.1 70.6L139.4 44l1.5-.5 8.7 26.8z"/><path fill="#826e4c" fill-opacity=".5" d="M291.7 159.9l-6.6-14.2 62.3-29 6.6 14.1z"/><path fill="#191e1a" fill-opacity=".5" d="M76.7 42.4l-8.4 7L3-28.4l8.4-7z"/><path fill="#5f675e" fill-opacity=".5" d="M44.2 151.3l-42 5.1-1-9.3L43 142z"/><path fill="#6c6655" fill-opacity=".5" d="M147.4 129.3l9.1 2.2-11.7 47-9.1-2.2z"/><path fill="#1c1e1e" fill-opacity=".5" d="M291.9 171.7l4.8-4 9.9 12.2-4.9 4z"/><path fill="#7d8686" fill-opacity=".5" d="M351.3 8.3l2.3-5.8 24.8 9.5-2.3 5.8z"/><path fill="#333829" fill-opacity=".5" d="M141.1 53.4l3.7 8.7L126 70l-3.7-8.6z"/><path fill="#414a35" fill-opacity=".5" d="M51.5-2.1l46.8 36.5-7.7 9.9L44 7.7z"/><path fill="#1d1c13" fill-opacity=".5" d="M166-10l4.8 8-22.7 13.6-4.9-8z"/><path fill="#afb6ae" fill-opacity=".5" d="M35 182.6l-4.2-6.5 1.3-.9 4.3 6.6z"/><path fill="#63675b" fill-opacity=".5" d="M243.6 50.6l56.4 58.5-4.5 4.3L239.1 55z"/><path fill="#bfc6bf" fill-opacity=".5" d="M109.1 74.8l-1.3.9L98.7 61l1.3-.8z"/><path fill="#4a4539" fill-opacity=".5" d="M289.6-29.8L263.4 32l-1.5-.6 26.3-61.8z"/><path fill="#211c14" fill-opacity=".5" d="M275.2 76.7l11.4 5.3-4 8.5-11.3-5.3z"/><path fill="#181f1c" fill-opacity=".5" d="M96.9 129.7l4.6 10-15.6 7.2-4.6-10z"/><path fill="#b6b7aa" fill-opacity=".5" d="M294.2 166.9l-10 4.3-5-11.5 10.1-4.3z"/><path fill="#779697" fill-opacity=".5" d="M344 109.1l-57.8 2-.5-15.6 57.8-2z"/><path fill="#676a68" fill-opacity=".5" d="M373.8 144.4l8.7 6.6-4.7 6.2-8.7-6.6z"/><path fill="#9c9c95" fill-opacity=".5" d="M278 31.1L247 .2l11-11L289 20z"/><path fill="#c5beb9" fill-opacity=".5" d="M134 54.7L119.8 45l.9-1.3 14.2 9.6z"/><path fill="#1e231a" fill-opacity=".5" d="M346.4 11l1-1.2 39 33.9-1 1.1z"/><path fill="#61655f" fill-opacity=".5" d="M44.4 117.2L38 106.5l16-9.7 6.5 10.8z"/><path fill="#1a1c1b" fill-opacity=".5" d="M107.6 105.5l-2.6-9 1.5-.4 2.6 9z"/><path fill="#3f3321" fill-opacity=".5" d="M142.6 36.1l12.2-3 4.1 16.7-12.1 3z"/><path fill="#bcc4bd" fill-opacity=".5" d="M267 182.2l-2.8 28-1.6-.2 3-28z"/><path fill="#f9f9ec" fill-opacity=".5" d="M328.3 114.4l1.7 6-25.5 7.4-1.7-6z"/><path fill="#453e2d" fill-opacity=".5" d="M265 182.7l-14-1.4 1.3-12.5 14 1.5z"/><path fill="#3f392e" fill-opacity=".5" d="M354.4 81L326 64.4l5.5-9.5 28.4 16.4z"/><path fill="#44402e" fill-opacity=".5" d="M279.2 96.2l5.6 7.5-18.7 14.1-5.6-7.5z"/><path fill="#121d1c" fill-opacity=".5" d="M329-3.4l1.5-6 57.7 14.3-1.6 6.1z"/><path fill="#88816f" fill-opacity=".5" d="M331.8 130.2l-68.4-7.2.2-1.6 68.3 7.2z"/><path fill="#474740" fill-opacity=".5" d="M130 30.3l-6 5-43-51.5 6-5z"/><path fill="#51534b" fill-opacity=".5" d="M233.3 98.8l23.3 2.4-.8 7.8-23.3-2.4z"/><path fill="#434b46" fill-opacity=".5" d="M356.8 188.7L402 191l-1 18.8-45.2-2.4z"/><path fill="#908773" fill-opacity=".5" d="M268.3 79.4l-17.9-25.6 14-9.8 18 25.6z"/><path fill="#99978b" fill-opacity=".5" d="M260.1 134.7l1.5-.6 26.7 73.4-1.5.6z"/><path fill="#bcb9ad" fill-opacity=".5" d="M296 140.5l-23-31.6 1.3-1 23 31.7z"/><path fill="#a2a599" fill-opacity=".5" d="M130.8 109.6l-.7 14-9.4-.4.8-14z"/><path fill="#334243" fill-opacity=".5" d="M241.8 76.7l-10-57 6.1-1 10 56.9z"/><path fill="#a6aca9" fill-opacity=".5" d="M368.6 17l-1.5.5-9.1-29.9 1.5-.4z"/><path fill="#585b51" fill-opacity=".5" d="M119.7 115.5l-3.3-18.4 9.2-1.7L129 114z"/><path fill="#1a1e17" fill-opacity=".5" d="M137.7 103L119 84l1-1 18.8 18.7z"/><path fill="#e8e9da" fill-opacity=".5" d="M256.4 193l-6-5 1-1.3 6 5z"/><path fill="#989687" fill-opacity=".5" d="M141.8 75.8l2.1 10.7-9.2 1.8-2-10.7z"/><path fill="#beb5a2" fill-opacity=".5" d="M351 98.5l5.7-2.6 3.2 7.2-5.7 2.5z"/><path fill="#4a5046" fill-opacity=".5" d="M49.5 42l1.8 12.4-80.5 11.3-1.7-12.3z"/><path fill="#859a94" fill-opacity=".5" d="M298.5 72l-.2 11-14-.3.2-11z"/><path fill="#fefffa" fill-opacity=".5" d="M139.7 26.7l1-1.1 5.6 5.5-1.1 1.1z"/><path fill="#232b22" fill-opacity=".5" d="M65.5 121.8l30.8-21.6 5.3 7.7L71 129.4z"/><path fill="#253a3e" fill-opacity=".5" d="M226.5 188.8l13.4-33.3 10.2 4.1-13.5 33.3z"/><path fill="#a1a9a2" fill-opacity=".5" d="M370 19.4l5.9 2-.5 1.4-6-2z"/><path fill="#fff" fill-opacity=".5" d="M350.6 22.4l-1.5.4-1.3-6.2 1.5-.3z"/><path fill="#646b5e" fill-opacity=".5" d="M62.4 82.4L54.5 94l-9-6 7.8-11.7z"/><path fill="#645a4d" fill-opacity=".5" d="M327.6 25.5l-5.4 34-13.9-2.2 5.4-34z"/><path fill="#a7afa2" fill-opacity=".5" d="M86.3-9l-7.7 23.8-13.4-4.3L73-13.3z"/><path fill="#151d1a" fill-opacity=".5" d="M355.6 15.3l36.5-21 .8 1.3-36.6 21z"/><path fill="#24251e" fill-opacity=".5" d="M324.2 209l40.2-59.6 13 8.8-40.2 59.6z"/><path fill="#131a14" fill-opacity=".5" d="M33.8 187.3l-47.7 23.2-2.8-5.6 47.8-23.3z"/><path fill="#383b35" fill-opacity=".5" d="M348.6 35L342 1.2l1.6-.3 6.5 33.8z"/><path fill="#30322a" fill-opacity=".5" d="M240.2 128l28 3.4-.6 4.7-28-3.5z"/><path fill="#bbc2bc" fill-opacity=".5" d="M86.6 73.5l2.4-4 4 2.4-2.4 4z"/><path fill="#afb6b3" fill-opacity=".5" d="M259.7 16.7l1 10.9-12.5 1-1-10.8z"/><path fill="#8e8879" fill-opacity=".5" d="M273.5 192.4l15.6-13 17 20.3-15.5 13.1z"/><path fill="#1e282b" fill-opacity=".5" d="M170 86l-10.8-2 3.6-18.5 10.8 2.1z"/><path fill="#3e3b2b" fill-opacity=".5" d="M128.6 249l11.6-165.3 1.5.1-11.5 165.3z"/><path fill="#c6c9c2" fill-opacity=".5" d="M115.3 83.2l.7-9.4 10.9.8-.7 9.4z"/><path fill="#b1b2a7" fill-opacity=".5" d="M269.2 123.2l-1 1.1-23.3-20.9 1-1.2z"/><path fill="#b3afad" fill-opacity=".5" d="M303.9 67.4l.2-1.5 24.8 2.6-.1 1.6z"/><path fill="#121a1a" fill-opacity=".5" d="M417.3 154l-17.8 27.4-18.4-11.9L399 142z"/><path fill="#e7ede6" fill-opacity=".5" d="M347.1 16l-7.1 8.2-1.2-1 7.2-8.3z"/><path fill="#2e2f27" fill-opacity=".5" d="M124.4 24l1.5-.3 7.5 35.1-1.5.3z"/><path fill="#61573a" fill-opacity=".5" d="M368 109.5l-11.6 50.3-22.8-5.3 11.6-50.2z"/><path fill="#1d2520" fill-opacity=".5" d="M52.6 57.3l1.1-15.6 35.9 2.5-1.1 15.6z"/><path fill="#b2b6b2" fill-opacity=".5" d="M73.2 210l26-22.6 1 1.1-26 22.6z"/><path fill="#282f27" fill-opacity=".5" d="M73.4 41.3l34 36.6-1 1-34.2-36.5z"/><path fill="#303127" fill-opacity=".5" d="M306.3-18.6l34.2 34.2-7.7 7.7-34.3-34.2z"/><path fill="#939693" fill-opacity=".5" d="M103.5 132.8l-.5-1.5 23.1-9.4.6 1.5z"/><path fill="#1d231c" fill-opacity=".5" d="M82.4 126.7l-39-3.4.8-7.8 38.9 3.4z"/><path fill="#e6ebe4" fill-opacity=".5" d="M336 9.7l-.2-1.5 4.7-.7.2 1.5z"/><path fill="#f5f7f4" fill-opacity=".5" d="M90.3 82.2l7.2-3.2 1.2 2.9-7.1 3.1z"/><path fill="#e2e9d9" fill-opacity=".5" d="M130.5 174.3l-1.5-.4 1.5-6 1.5.4z"/><path fill="#6b756f" fill-opacity=".5" d="M96 180.3l-8.4-4L93 165l8.4 4z"/><path fill="#212b1d" fill-opacity=".5" d="M43.4 74.4l3.8 35.7-14 1.5-3.8-35.8z"/><path fill="#425659" fill-opacity=".5" d="M229.7-38.4l31.8 19.9L209.4 65l-31.9-20z"/><path fill="#171e19" fill-opacity=".5" d="M316.2 72.7l-25-1.7.4-4.7 25 1.8z"/><path fill="#e8ebe7" fill-opacity=".5" d="M116.4 107.1l-1.4.6-4.9-13.3 1.5-.5z"/><path fill="#282927" fill-opacity=".5" d="M103.6 125.4l.8-4.6 12.3 2.2-.8 4.6z"/><path fill="#384032" fill-opacity=".5" d="M53.1 194.9l9.6-49 7.6 1.4-9.5 49z"/><path fill="#a0a599" fill-opacity=".5" d="M243.5 99l.7-6.2 32.6 3.5-.7 6.2z"/><path fill="#e5e7de" fill-opacity=".5" d="M324.6 126.1l-32.8-2.3.8-10.9 32.7 2.3z"/><path fill="#948f82" fill-opacity=".5" d="M281.9 57.6l9.6-16.1L301 47l-9.6 16.1z"/><path fill="#aeb7b6" fill-opacity=".5" d="M395.6 148l-1.2 1-4-4.8 1.2-1z"/><path fill="#35342f" fill-opacity=".5" d="M373.1 90.6l22 43.1-16.7 8.5-22-43.1z"/><path fill="#adaaa0" fill-opacity=".5" d="M286.1 118.6l1.3.9-31.4 44.8-1.2-1z"/><path fill="#9ca39d" fill-opacity=".5" d="M98.3 154l-2.8-12.3 1.5-.3 2.8 12.2z"/><path fill="#2b2f2b" fill-opacity=".5" d="M77.7 212l-.9-1.3 34.6-24.2.9 1.3z"/><path fill="#3c3127" fill-opacity=".5" d="M285.3 61.2l26-5 1.9 9.1-26.1 5.1z"/><path fill="#82857b" fill-opacity=".5" d="M346.7 54.2l-27.1-23.6 7.1-8.2L354 45.9z"/><path fill="#111613" fill-opacity=".5" d="M160.2 205.4l-11.5 4.9-7.3-17.3 11.5-4.9z"/><path fill="#343b32" fill-opacity=".5" d="M107 66l16.2 5.6-.5 1.5-16.2-5.6z"/><path fill="#707455" fill-opacity=".5" d="M142 113.1l.4-12.5 7.8.3-.4 12.5z"/><path fill="#999f98" fill-opacity=".5" d="M262.6 99l-.9 1.3-22.8-16.5 1-1.3z"/><path fill="#818a7f" fill-opacity=".5" d="M59.5 142.7l.4-1.6 22.8 5.3-.4 1.5z"/><path fill="#252b24" fill-opacity=".5" d="M104.4 147.7l6.1-17.7 14.8 5-6.1 17.8z"/><path fill="#494d46" fill-opacity=".5" d="M44.4 115l-14.5 31-7.1-3.3 14.5-31.1z"/><path fill="#8a8572" fill-opacity=".5" d="M233.6 108.4l60.1 33.4-.7 1.3-60.2-33.3z"/><path fill="#1d2420" fill-opacity=".5" d="M388.6-.5L365.5 29l-2.5-2 23-29.5z"/><path fill="#6d6351" fill-opacity=".5" d="M266.2 62.2l9.6 19.6-15.4 7.6-9.6-19.7z"/><path fill="#555247" fill-opacity=".5" d="M268.6 126l22.1 96-1.5.4-22.1-96z"/><path fill="#31251b" fill-opacity=".5" d="M271 180.2l-10.9 2-1.3-7.8 10.8-1.9z"/><path fill="#58584d" fill-opacity=".5" d="M251.8 50.3l-1.3-.8 49.2-88.8 1.4.7z"/><path fill="#93a3a0" fill-opacity=".5" d="M346.1 83.5l-47.5-9.2.6-3.1 47.5 9.2z"/><path fill="#4a534a" fill-opacity=".5" d="M73.5 143.8l.6 3-39.8 7.8-.6-3z"/><path fill="#495358" fill-opacity=".5" d="M159.4 91.4l21.7-2.6 8 65-21.7 2.8z"/><path fill="#6a6f61" fill-opacity=".5" d="M87.1 106.7l-18.4 3.6-1.2-6.1 18.5-3.6z"/><path fill="#363630" fill-opacity=".5" d="M101.4 31l.4-6.2 39 2-.4 6.2z"/><path fill="#94988e" fill-opacity=".5" d="M269.5 228.5l-1.5.4-17.2-74.6 1.5-.4z"/><path fill="#22271f" fill-opacity=".5" d="M66.5 156.7l43.7.7-.1 9.4-43.8-.8z"/><path fill="#7a6949" fill-opacity=".5" d="M285 234l-5.6-3 65.3-122.8 5.5 3z"/><path fill="#121c14" fill-opacity=".5" d="M68.8 95.7l-14.8 5-2.5-7.3 14.8-5.1z"/><path fill="#80837a" fill-opacity=".5" d="M128.7 104.4l-37.9 21.8-2.3-4 37.9-21.9z"/><path fill="#404740" fill-opacity=".5" d="M48.5 163l.4-1.5 51 14.6-.4 1.5z"/><path fill="#d0d3ce" fill-opacity=".5" d="M82.1 92.2l31.2 1.6-.1 3.1L82 95.3z"/><path fill="#505a50" fill-opacity=".5" d="M37.7 14l-4 18.4L14 28.2l3.9-18.4z"/><path fill="#667041" fill-opacity=".5" d="M70.4 36.4l3.2-13.7 7.6 1.8L78 38.2z"/><path fill="#929892" fill-opacity=".5" d="M46.3 178.1l8-13.3 4 2.4-8 13.4z"/><path fill="#a6aba4" fill-opacity=".5" d="M81.5 54.2l-1.2 1-4-4.7 1.2-1z"/><path fill="#707063" fill-opacity=".5" d="M232.4 124.1l52.7 6.5-.3 3-52.8-6.4z"/><path fill="#32321e" fill-opacity=".5" d="M145.9 132.2l8.4-36.5 7.6 1.8-8.4 36.5z"/><path fill="#8f8067" fill-opacity=".5" d="M312.9 146l-12.4 1.7-2.4-17 12.4-1.8z"/><path fill="#848074" fill-opacity=".5" d="M130.9 163.6l16-12.5 2 2.5-16.1 12.5z"/><path fill="#19211c" fill-opacity=".5" d="M158.6 143.8v7.8h-9.4v-7.8z"/><path fill="#3f5558" fill-opacity=".5" d="M248.7 200.8l-24.2 34.5-71.7-50.1 24.2-34.6z"/><path fill="#8a897d" fill-opacity=".5" d="M139 46.9l18.7 28.8-1.3.9-18.8-28.9z"/><path fill="#7d847d" fill-opacity=".5" d="M10.6 150.1l20.2-1.7.8 9.3-20.2 1.8z"/><path fill="#66827f" fill-opacity=".5" d="M314.5 116.7l-22-14.9.8-1.3 22 14.9z"/><path fill="#232620" fill-opacity=".5" d="M382.6 98.7L348.6-28l1.6-.4 34 126.7z"/><path fill="#b2b7b3" fill-opacity=".5" d="M59 155.7L33.6 163l-.4-1.5 25.5-7.3z"/><path fill="#494d49" fill-opacity=".5" d="M-7.7 185.7l39.3-19.2 2.7 5.6L-5 191.3z"/><path fill="#171e1e" fill-opacity=".5" d="M83.2 195.4l-.8 9.4L62 203l.8-9.3z"/><path fill="#aba599" fill-opacity=".5" d="M275.6 143.3L257 141l.2-1.5 18.6 2.3z"/><path fill="#c4cdc6" fill-opacity=".5" d="M342.2 14.2l1.1-1.1 16 14.9-1 1.1z"/><path fill="#2c312f" fill-opacity=".5" d="M24.7 4.4l13.7-19L67.5 6.5l-13.8 19z"/><path fill="#181d1a" fill-opacity=".5" d="M376.8 102.7l-7.5-2.1 21-73.6 7.7 2z"/><path fill="#6e7268" fill-opacity=".5" d="M317 7.5l-.4 1.5L272.1.4l.3-1.6z"/><path fill="#363a27" fill-opacity=".5" d="M145.1 135l-4.4 1.7L122 85.3l4.4-1.6z"/><path fill="#34392a" fill-opacity=".5" d="M283.7 90.7l1.5.3-4.8 23-1.6-.4z"/><path fill="#3a4235" fill-opacity=".5" d="M91.2 190.6l-38 8.8-5.3-22.8 38-8.8z"/><path fill="#1c1e16" fill-opacity=".5" d="M298.2 37l-1.1-21.8 12.5-.7 1.1 21.9z"/><path fill="#21241f" fill-opacity=".5" d="M125.4 9l2.4-4 10.8 6.3-2.3 4z"/><path fill="#98998c" fill-opacity=".5" d="M294.5 198l-15-4.2 2.6-9 15 4.3z"/><path fill="#61615d" fill-opacity=".5" d="M105.8 89.1l15.3 3-.3 1.6-15.3-3z"/><path fill="#706759" fill-opacity=".5" d="M122.4 136.9l1.8-2.5 11.3 8.4-2 2.5z"/><path fill="#1e251f" fill-opacity=".5" d="M67 12.6l7.6 2-5.7 21.2-7.5-2z"/><path fill="#4e4631" fill-opacity=".5" d="M360.5 96.2L346.8 93l13-56.3 13.7 3.1z"/><path fill="#868d89" fill-opacity=".5" d="M377 7.7l.3 1.5-21.6 3.4-.2-1.5z"/><path fill="#1b1e19" fill-opacity=".5" d="M99 22l24.9 16.2-2.6 3.9-24.9-16.2z"/><path fill="#a2a195" fill-opacity=".5" d="M253.7 123.1l22.9 10.2-.7 1.4-22.8-10.2z"/><path fill="#6e6759" fill-opacity=".5" d="M294.6 18.6L296 45l-7.8.4-1.4-26.5z"/><path fill="#a8a594" fill-opacity=".5" d="M265.5 96.3l-1.3-15.5 6.2-.6 1.4 15.6z"/><path fill="#565950" fill-opacity=".5" d="M128 51.4l-59 25-1.7-4.3 59-25z"/><path fill="#e5e9e8" fill-opacity=".5" d="M363.2 15.8l1.1-1 2.2 2.2-1.2 1z"/><path fill="#657367" fill-opacity=".5" d="M-3.1 22.2L52.7-23l2 2.4-55.9 45.2z"/><path fill="#454337" fill-opacity=".5" d="M164.7 37.6l1.2 1-29 34.7-1.3-1z"/><path fill="#868475" fill-opacity=".5" d="M145 4l15 23.8-6.6 4.2-15-23.9z"/><path fill="#83807a" fill-opacity=".5" d="M119.8 42.8L137 29.4l1 1.2-17.2 13.5z"/><path fill="#3e3a33" fill-opacity=".5" d="M338.7 30.6l-1.7-2.5 10.2-7.2 1.8 2.6z"/><path fill="#4b3b1f" fill-opacity=".5" d="M333.1 200.6l-12-7.2 16-26.8 12.1 7.2z"/><path fill="#74786e" fill-opacity=".5" d="M134.2-18.5l5.6 7.5-41.2 31-5.6-7.4z"/><path fill="#6c6c63" fill-opacity=".5" d="M111.4 191.2l3-5.5 16.4 9-3 5.5z"/><path fill="#8f9185" fill-opacity=".5" d="M339.7 40.8l-1.3 23.4-4.6-.3 1.2-23.4z"/><path fill="#474137" fill-opacity=".5" d="M355.4 42.8l1.7-12.4 1.6.2-1.8 12.4z"/><path fill="#acaaa3" fill-opacity=".5" d="M139 45l1.4-.8 6.6 12.4-1.4.8z"/><path fill="#757872" fill-opacity=".5" d="M260.2 197.1l-26.8 8.7-1.4-4.5 26.7-8.7z"/><path fill="#c8cdc6" fill-opacity=".5" d="M128 181.4l-1.2-1 6.2-7.1 1.1 1z"/><path fill="#737d7f" fill-opacity=".5" d="M258.7 3l4.4 8.2-23.4 12.5-4.4-8.3z"/><path fill="#323b35" fill-opacity=".5" d="M362.4 75.7l-.2 1.6-73-7.7.1-1.6z"/><path fill="#5c756f" fill-opacity=".5" d="M293.3 92.9l3.8 20-10.7 2-3.9-20z"/><path fill="#414541" fill-opacity=".5" d="M375.8 167.3l-4.8 34-10.8-1.4 4.7-34z"/><path fill="#222622" fill-opacity=".5" d="M79 124.9l4.4-1.8 14 34.8-4.3 1.8z"/><path fill="#fffff7" fill-opacity=".5" d="M316.6 125.4l-.3-4.6 12.4-1 .4 4.8z"/><path fill="#52554d" fill-opacity=".5" d="M248.9 69.5l10.6-2.4 5.7 24.3-10.7 2.5z"/><path fill="#d8ddd1" fill-opacity=".5" d="M145.3 27l-1.6 7.6-3-.6 1.6-7.7z"/><path fill="#2e2c22" fill-opacity=".5" d="M361.3-22l1.1 1-62.7 69.6-1.2-1z"/><path fill="#e8e8e1" fill-opacity=".5" d="M349.2 28.1h6.3v1.6h-6.3z"/><path fill="#0e1411" fill-opacity=".5" d="M369.2 11l-1.5-.2 2.1-20.2 1.6.2z"/><path fill="#27251e" fill-opacity=".5" d="M276.3 88.7l-1-12.5 9.3-.8 1 12.4z"/><path fill="#787261" fill-opacity=".5" d="M272.7 124l4.6-37.2 1.5.2-4.5 37.2z"/><path fill="#797e75" fill-opacity=".5" d="M91.6 196l2.3-4.1 19.1 10.6-2.2 4z"/><path fill="#1e2520" fill-opacity=".5" d="M23.7 169.4l-3 8.8-42.9-14.7 3-8.9z"/><path fill="#b1b9b1" fill-opacity=".5" d="M319.5 93.5l-.8-1.3 29-15.4.7 1.3z"/><path fill="#d4d6d2" fill-opacity=".5" d="M112.6 77.5l1.4.8-15.7 27-1.3-.8z"/><path fill="#1d2017" fill-opacity=".5" d="M373.4 36.3l-17.7-12.9 3.7-5L377 31.2z"/><path fill="#2d3731" fill-opacity=".5" d="M174.6 17.4L167.3 43l-9-2.6 7.3-25.6z"/><path fill="#2f4445" fill-opacity=".5" d="M241.2 129.7l6.1 1.3-12 56.5-6-1.3z"/><path fill="#6d695d" fill-opacity=".5" d="M95.9 60.7L98 45.2l14 2-2.2 15.4z"/><path fill="#636960" fill-opacity=".5" d="M51.3 102.4l12 3.6-3.7 12-12-3.7z"/><path fill="#3a3126" fill-opacity=".5" d="M154.7 51.7l-.4 1.5-13.7-3.4.4-1.5z"/><path fill="#1e231f" fill-opacity=".5" d="M387.4 218.3l-9.2 1.8-7.8-40 9.2-1.7z"/><path fill="#3a3225" fill-opacity=".5" d="M297.7 187.4l-2.6-1.7 11.9-18.4 2.6 1.7z"/><path fill="#74715d" fill-opacity=".5" d="M258.3 74.5l8.4 43-1.6.2-8.3-43z"/><path fill="#353328" fill-opacity=".5" d="M367.4 53.4l-10-12 14.3-12 10 12z"/><path fill="#a9aa9d" fill-opacity=".5" d="M149 21l12-10.4 1 1.2L150 22z"/><path fill="#899c9b" fill-opacity=".5" d="M307 97.6l32.7-2.9 1.7 18.7-32.7 2.8z"/><path fill="#483c35" fill-opacity=".5" d="M311.4 67.5l12.4-6.6.7 1.3-12.4 6.6z"/><path fill="#756646" fill-opacity=".5" d="M315.3 128l18.6-2.6 5.4 38.7-18.5 2.6z"/><path fill="#aaada5" fill-opacity=".5" d="M109 106.1l.7 14-4.6.3-.8-14z"/><path fill="#989788" fill-opacity=".5" d="M275 188.2l-7.8.1v-3l7.8-.2z"/><path fill="#716750" fill-opacity=".5" d="M364.4 108.4l-27.3 15.2-3-5.5 27.3-15.1z"/><path fill="#363b2f" fill-opacity=".5" d="M154 162.8l.6 3-32 7.4-.7-3z"/><path fill="#30362f" fill-opacity=".5" d="M132.5 97l.3 1.5-17 3-.2-1.6z"/><path fill="#67685a" fill-opacity=".5" d="M161.2 81l-1.6.2-6.7-63.8 1.6-.1z"/><path fill="#c7c6c5" fill-opacity=".5" d="M137.6 68.1l-10.2 7.2-1-1.3 10.3-7.1z"/><path fill="#f5f4ec" fill-opacity=".5" d="M327.4 67.3v1.5l-9.4-.1V67z"/><path fill="#171d1a" fill-opacity=".5" d="M390.6 171l8-44.6 6 1-7.8 44.7z"/><path fill="#484c47" fill-opacity=".5" d="M111.2 129l9.2-10.6 1.2 1-9.2 10.6z"/><path fill="#4c4a3e" fill-opacity=".5" d="M244.7 161.8l35 23.6-1 1.3-35-23.6z"/><path fill="#555f61" fill-opacity=".5" d="M173 109.5l-5.3-24.4L238 70l5.2 24.5z"/><path fill="#544a35" fill-opacity=".5" d="M276.7 36.9l-13.2 13.3-1.2-1.2 13.3-13.2z"/><path fill="#2b271e" fill-opacity=".5" d="M342 69.6l6.1-11 8.2 4.6-6 11z"/><path fill="#b0b5ab" fill-opacity=".5" d="M246.7 41.2l-1-1.3L261.2 29l1 1.3z"/><path fill="#7e8984" fill-opacity=".5" d="M77.3 192.1l5.6-2.8.7 1.4-5.6 2.8z"/><path fill="#373e38" fill-opacity=".5" d="M343 27.8l-1.5-.6 14-34.7 1.5.6z"/><path fill="#3f4537" fill-opacity=".5" d="M90.1 43.5l10.4 36-1.6.5-10.3-36z"/><path fill="#caccc6" fill-opacity=".5" d="M113.5 71.5l7.3 17.3-1.4.6-7.4-17.3z"/><path fill="#6b6252" fill-opacity=".5" d="M316.2 57.2l46.4-6.5.9 6.2-46.4 6.5z"/><path fill="#5a4f41" fill-opacity=".5" d="M304.3 46l-.7-10.8 21.8-1.6.7 11z"/><path fill="#2a312c" fill-opacity=".5" d="M125.5 188l-37.4-2.6.4-6.2 37.5 2.6z"/><path fill="#51554b" fill-opacity=".5" d="M121.7 113.9l-2 2.4-8.6-6.7 2-2.5z"/><path fill="#342f27" fill-opacity=".5" d="M138.3 42.3l-2.5 5.7-10-4.4 2.5-5.7z"/><path fill="#a4aaa5" fill-opacity=".5" d="M369.4-7.6l-6.1 17.8-3-1 6.1-17.8z"/><path fill="#fff" fill-opacity=".5" d="M351.5 26l.3-1.5 4.6 1-.4 1.5z"/><path fill="#656b66" fill-opacity=".5" d="M258.6 42.6l-4.9 27.7-10.7-2 4.8-27.6z"/><path fill="#c7c4b7" fill-opacity=".5" d="M286.6 132.2l1-1.2 11.8 10.3-1 1.1z"/><path fill="#161d19" fill-opacity=".5" d="M362.5 4.5L363 3l10.4 3.4L373 8z"/><path fill="#202b23" fill-opacity=".5" d="M233.9 96.7l6.2.4-.5 7.8-6.3-.4z"/><path fill="#272113" fill-opacity=".5" d="M269.4 112.3l-1.4 6.1-4.6-1 1.4-6.1z"/><path fill="#727366" fill-opacity=".5" d="M122.3 76.3l.7-1.3 25 12.7-.7 1.4z"/><path fill="#979588" fill-opacity=".5" d="M268.2 140.3l-11.4 16.8-7.8-5.2 11.4-16.8z"/><path fill="#bac5c3" fill-opacity=".5" d="M316.2 27.1l-4-4.8 1.3-1 4 4.9z"/><path fill="#7d8072" fill-opacity=".5" d="M109.5 164.2l-.8-1.4 17.8-9.8.7 1.4z"/><path fill="#b8bdb9" fill-opacity=".5" d="M346.2 93.3l-47 .9v-7.9l46.8-.8z"/><path fill="#d3ddd8" fill-opacity=".5" d="M349.3 19.6l-1.7-6 1.5-.4 1.7 6z"/><path fill="#1d2918" fill-opacity=".5" d="M129.5 105.7l7.6-13.6 6.8 3.7-7.6 13.7z"/><path fill="#fffffd" fill-opacity=".5" d="M138.4 170.2l1.3 4.5-1.5.4-1.3-4.5z"/><path fill="#60605a" fill-opacity=".5" d="M110.4 31.8l-3.2-3.4 9-8.6 3.2 3.3z"/><path fill="#1d2826" fill-opacity=".5" d="M33.3 175.7l-1.2-2.9 14.2-6.3 1.3 2.8z"/><path fill="#3c3f3f" fill-opacity=".5" d="M395.6 64.3l3.1-.3 4.1 38.9-3 .3z"/><path fill="#393c33" fill-opacity=".5" d="M273.5-5l11.8 10.3-1 1.2-11.8-10.3z"/><path fill="#a9a39d" fill-opacity=".5" d="M137 43l-8-11.6 1.2-.9 8 11.5z"/><path fill="#43585a" fill-opacity=".5" d="M163.7 10l16.4-12 20.3 28-16.5 12z"/><path fill="#676e68" fill-opacity=".5" d="M82.2 156.7l-8-30.2 1.4-.4 8.1 30.2z"/><path fill="#7f7560" fill-opacity=".5" d="M292.3 122l27 12.5-.7 1.4-27-12.6z"/><path fill="#414b33" fill-opacity=".5" d="M85.2 19.2l21.5 18-9 10.8L76 30z"/><path fill="#6f756d" fill-opacity=".5" d="M410.8 107.3l-17.5 13.2-5.6-7.5L405 99.8z"/><path fill="#a5a69a" fill-opacity=".5" d="M256 54.8l1-3 26.2 10.6-1.2 3z"/><path fill="#252b26" fill-opacity=".5" d="M-.7 35.3L6.1 23l27.4 15-6.8 12.3z"/><path fill="#625944" fill-opacity=".5" d="M358.4 83.7l7.6 1.9-4.1 16.7-7.6-2z"/><path fill="#9f9586" fill-opacity=".5" d="M142.1 122.1l.8-1.3 4 2.4-.8 1.3z"/><path fill="#757b70" fill-opacity=".5" d="M301 7.6l-2.6 3.9-26-17.5 2.7-3.9z"/><path fill="#9ba59f" fill-opacity=".5" d="M346.9-2l3 1-1.5 4.5-3-1z"/><path fill="#3e4239" fill-opacity=".5" d="M265.7 131l-.4 3-29.4-4 .4-3.1z"/><path fill="#b5b5a5" fill-opacity=".5" d="M249.3 185.3l1-1.2 8.2 7.2-1 1.2z"/><path fill="#101618" fill-opacity=".5" d="M-11.6 72.2l28.2 9.2-3.4 10.4-28.2-9.2z"/><path fill="#e8f1eb" fill-opacity=".5" d="M352 8.2l-3-.8.5-1.5 3 .8z"/><path fill="#54564f" fill-opacity=".5" d="M130.8 87.1l46.6 13.4-.4 1.5-46.6-13.4z"/><path fill="#cdd1ce" fill-opacity=".5" d="M58.5 161.5l-2.8 1.3-3.3-7 2.8-1.4z"/><path fill="#222722" fill-opacity=".5" d="M348.6 158.2l80.8-8.5 1.7 15.5-80.8 8.5z"/><path fill="#2d342f" fill-opacity=".5" d="M243.3 41.1l-8.9-2.9 2-5.9 8.9 2.9z"/><path fill="#4a524b" fill-opacity=".5" d="M27.5 61.3l-43.7-16.8 2.8-7.3L30.3 54z"/><path fill="#3e3a30" fill-opacity=".5" d="M139.9 34l1.2 1-13.8 17-1.2-1z"/><path fill="#e6e9e4" fill-opacity=".5" d="M89 92l-.6-1.4 30.4-12.3.6 1.4z"/><path fill="#2a3734" fill-opacity=".5" d="M162.5 176.8l-29.6 2.6-.1-1.5 29.6-2.6z"/><path fill="#a8a596" fill-opacity=".5" d="M271.2 131l1.4-.7 17.1 40.3-1.4.6z"/><path fill="#7d847e" fill-opacity=".5" d="M103.4 146.3l-6.8-4 1.6-2.6 6.7 3.9z"/><path fill="#91968e" fill-opacity=".5" d="M74.9-16l15.6-.8 1.8 34.3-15.6.9z"/><path fill="#3d372b" fill-opacity=".5" d="M144.8 150.5l-6 2-10.1-29.5 5.9-2z"/><path fill="#cbd3cd" fill-opacity=".5" d="M344.6 9.9l8.5-4 .7 1.4-8.5 4z"/><path fill="#d6d8d2" fill-opacity=".5" d="M110.6 99.7l2.2-14 3.1.6-2.2 13.9z"/><path fill="#121710" fill-opacity=".5" d="M340.2 10.2l-1.5-.2.7-6.2 1.6.2z"/><path fill="#727d75" fill-opacity=".5" d="M-.5 179l6 1.5-.3 1.5-6-1.6z"/><path fill="#463e35" fill-opacity=".5" d="M325.8 26.5l1.6.3-1.7 7.7-1.5-.4z"/><path fill="#1f2726" fill-opacity=".5" d="M154.4 87l.6-7.8 11 1-.7 7.8z"/><path fill="#4a5046" fill-opacity=".5" d="M36.6 41.6l25.1 21-3 3.6-25.1-21z"/><path fill="#fff" fill-opacity=".5" d="M346.8 81.3h-1.6l.2-4.8 1.6.1z"/><path fill="#44433e" fill-opacity=".5" d="M302.7 179.6l1.3 2.9-11.4 5-1.3-2.8z"/><path fill="#464c44" fill-opacity=".5" d="M72.6 96.8l13.5-13 2.2 2.2-13.5 13z"/><path fill="#1c1e17" fill-opacity=".5" d="M75 76.9l-5 11.5-2.8-1.2 4.9-11.5z"/><path fill="#393f3b" fill-opacity=".5" d="M10.7 144l4.6-9.9 10 4.7-4.7 9.9z"/><path fill="#727873" fill-opacity=".5" d="M73.8 68l6.1-4.8 13.5 17.2-6.2 4.8z"/><path fill="#f7fbf4" fill-opacity=".5" d="M355 20.4l-.7 7.8-1.5-.2.7-7.7z"/><path fill="#151c19" fill-opacity=".5" d="M-10.4 130l31.8-8 3 12.1-31.8 8z"/><path fill="#5f6861" fill-opacity=".5" d="M100 195.6L90.7 169l1.5-.5 9.1 26.6z"/><path fill="#4f564d" fill-opacity=".5" d="M282.2 92.7l4.4-27.8 1.5.2-4.4 27.8z"/><path fill="#c9cbc5" fill-opacity=".5" d="M114.3 62.8l23.7 12-.7 1.5-23.7-12.1z"/><path fill="#5c5d54" fill-opacity=".5" d="M94-6.2l46.8 36.5-2 2.5L92.1-3.8z"/><path fill="#b0b1a6" fill-opacity=".5" d="M286.4 54.8l4.6-8 5.5 3-4.7 8.2z"/><path fill="#afae9f" fill-opacity=".5" d="M250.5 114.7l10.2-3.9 2.8 7.3-10.2 4z"/><path fill="#766646" fill-opacity=".5" d="M359.1 139.1l-34.2 3-1.2-14 34.2-3z"/><path fill="#959993" fill-opacity=".5" d="M116.8 60.9l1.5.3L116 72l-1.5-.3z"/><path fill="#eff7f2" fill-opacity=".5" d="M340.3 16.7l4.1-4.7 1.2 1-4 4.7z"/><path fill="#534734" fill-opacity=".5" d="M267.7 76.3l-1.1 9.3-7.8-1 1.2-9.3z"/><path fill="#737b6d" fill-opacity=".5" d="M82.2 165.5l1.5.6-1.9 4.3-1.4-.6z"/><path fill="#474847" fill-opacity=".5" d="M104.4 104l-2.4-5.8 1.5-.6 2.3 5.8z"/><path fill="#424a3d" fill-opacity=".5" d="M109.5 74l-1.3-1 8.9-11 1.2 1z"/><path fill="#1b1d17" fill-opacity=".5" d="M366.4 200.4l-.4 3-34-5.3.5-3.1z"/><path fill="#56554a" fill-opacity=".5" d="M271.6 29l-9.2 1.4-1.2-7.7 9.2-1.5z"/><path fill="#23281c" fill-opacity=".5" d="M289.2 8.3l18 15-1 1.2-18-15z"/><path fill="#545b4c" fill-opacity=".5" d="M.2 91.5L.9 90l31.7 17-.7 1.3z"/><path fill="#5c5f57" fill-opacity=".5" d="M74.4 178.5l-1.5.6-8.2-18.5 1.4-.7z"/><path fill="#30322a" fill-opacity=".5" d="M142.1-12.3l1.5.5-15.4 47.5-1.5-.4z"/><path fill="#b6b4ae" fill-opacity=".5" d="M127.5 48.3l-1 1.1-5.6-5.5 1.1-1.1z"/><path fill="#f8fdea" fill-opacity=".5" d="M333.9 118.7l-2 2.4-4.8-3.9 2-2.4z"/><path fill="#1c201b" fill-opacity=".5" d="M111.1 196l-2.8 1.3-8.5-16.7 2.8-1.4z"/><path fill="#89918b" fill-opacity=".5" d="M380.8 21.3l-1.5-.5.9-3 1.5.5z"/><path fill="#3e443a" fill-opacity=".5" d="M78.5 110.6l17-11 2.6 3.9-17 11z"/><path fill="#1f261a" fill-opacity=".5" d="M3 112.1l12.8-41.8 1.5.4-12.8 41.9z"/><path fill="#202723" fill-opacity=".5" d="M356.5 9.8l-1.2-1 5.3-7.6 1.3.9z"/><path fill="#514d3c" fill-opacity=".5" d="M136.9 70.3l3.1-5.4 12.2 7-3.1 5.4z"/><path fill="#242f27" fill-opacity=".5" d="M54.6 133l3.8 8.6-11.4 5-3.8-8.5z"/><path fill="#212a22" fill-opacity=".5" d="M53 61.3L-8.6 79l-2.2-7.5 61.6-17.7z"/><path fill="#4c554f" fill-opacity=".5" d="M258.5 141.6l-24.6 4.3-.3-1.5 24.7-4.4z"/><path fill="#a8a69e" fill-opacity=".5" d="M282.1 7.7l-3.4 21.6-6.2-1L276 6.7z"/><path fill="#dcdedb" fill-opacity=".5" d="M126.5 118.8l.8 1.3-5.3 3.3-.8-1.3z"/><path fill="#6b6c63" fill-opacity=".5" d="M127.8-30.3l22.4 61.6-1.4.6-22.5-61.7z"/><path fill="#5b5b50" fill-opacity=".5" d="M120 54.8l-.8-1.3L144 37.4l.8 1.3z"/><path fill="#364d50" fill-opacity=".5" d="M215.4 1l6.6-14.2L251.8.6l-6.6 14.2z"/><path fill="#2b302b" fill-opacity=".5" d="M9 127l-3.5-16.7 21.4-4.6 3.6 16.8z"/><path fill="#161c17" fill-opacity=".5" d="M89.6 49l-1.7 2.6-38.4-24L51 25z"/><path fill="#48575b" fill-opacity=".5" d="M198 51l-24.8 21.5-16.4-18.8L181.5 32z"/><path fill="#4f6163" fill-opacity=".5" d="M245 156.2l-22.3 19.5-31.8-36.6 22.4-19.5z"/><path fill="#808274" fill-opacity=".5" d="M164.1 70.2l-32.3 15.7-.6-1.4 32.3-15.7z"/><path fill="#333525" fill-opacity=".5" d="M232 122.2l.2-3.1 12.4.9-.2 3z"/><path fill="#6e675d" fill-opacity=".5" d="M130.4 187.9l.3-1.6 12.3 2.4-.3 1.5z"/><path fill="#d5dadb" fill-opacity=".5" d="M325 68.8h11v1.5h-11z"/><path fill="#141a15" fill-opacity=".5" d="M76.9 162.2l2.4 13.8-4.6.9-2.4-13.9z"/><path fill="#2b322c" fill-opacity=".5" d="M85.1 70.5L90 55.6l1.4.5L86.6 71z"/><path fill="#7e7e6f" fill-opacity=".5" d="M143.4 155.9l3.9-16.8 1.5.4-3.9 16.7z"/><path fill="#656460" fill-opacity=".5" d="M120.4 83.3l-.2 1.5-7.8-1 .2-1.5z"/><path fill="#25302d" fill-opacity=".5" d="M349 10.2l-1-18.7 1.5-.1 1 18.7z"/><path fill="#494e46" fill-opacity=".5" d="M81.6 144.6l-53-27 .8-1.3 52.9 27z"/><path fill="#a09b8b" fill-opacity=".5" d="M284.5 119.3l-5.2 3.4-6-9.2 5.2-3.4z"/><path fill="#404842" fill-opacity=".5" d="M64.9 54l-7.4-13.7 4.2-2.2L69 51.9z"/><path fill="#abaea7" fill-opacity=".5" d="M107 126l1.1 1-4 4.8-1.3-1z"/><path fill="#5f6557" fill-opacity=".5" d="M80.3 30.2L79 27.3l48.5-21.6 1.3 2.9z"/><path fill="#89908a" fill-opacity=".5" d="M19.4 146.8l1.5-.5 5 14.7-1.4.5z"/><path fill="#969a95" fill-opacity=".5" d="M109.5 150.3l-3.7 5-1.3-1 3.8-5z"/><path fill="#1f1b14" fill-opacity=".5" d="M268 128v-1.7l6.3.5-.1 1.5z"/><path fill="#7d8578" fill-opacity=".5" d="M71.3 156.5l4.3-15 1.5.4-4.3 15z"/><path fill="#645e53" fill-opacity=".5" d="M278.2 55l14.5 5.8-.6 1.4-14.5-5.8z"/><path fill="#51584f" fill-opacity=".5" d="M11 142.6l7.4 20.5-5.9 2.2L5 144.7z"/><path fill="#a5a397" fill-opacity=".5" d="M234.1 106.8l.6-1.5 20.3 8.2-.6 1.5z"/><path fill="#73766e" fill-opacity=".5" d="M141.4 161.1l-.7-1.4 19.5-9.9.7 1.4z"/><path fill="#2c302a" fill-opacity=".5" d="M170-8.7l4.3 8.3-20.9 10.7-4.3-8.4z"/><path fill="#555f56" fill-opacity=".5" d="M46.4 140.3l-23.6 8.1-2-5.9 23.6-8.1z"/><path fill="#434a42" fill-opacity=".5" d="M49.4 150l-1-1.4 53.8-37.6 1 1.3z"/><path fill="#a8a99d" fill-opacity=".5" d="M115 4.6l-5.6-5.5 2.2-2.2 5.5 5.5z"/><path fill="#8a8a82" fill-opacity=".5" d="M346.2 34.2l-19.8-12.4.8-1.3L347 32.9z"/><path fill="#605348" fill-opacity=".5" d="M340 62l-.3 6.2-15.6-.5.2-6.3z"/><path fill="#9b9a95" fill-opacity=".5" d="M135.1 35.8v1.5l-9.3.4V36z"/><path fill="#1c201b" fill-opacity=".5" d="M408.6 28.4l-.1 1.6-53-3.7v-1.6z"/><path fill="#322b1f" fill-opacity=".5" d="M276.7 133.2l-.2-1.5 7.8-.9.1 1.6z"/><path fill="#5d554f" fill-opacity=".5" d="M274.5 140.9l1.4-4.5 7.4 2.4-1.4 4.5z"/><path fill="#a9ada0" fill-opacity=".5" d="M245 91l.7-1.4 20.3 11.7-.8 1.3z"/><path fill="#384029" fill-opacity=".5" d="M42.7 173.6l22.8 21.3-19.1 20.6-22.9-21.3z"/><path fill="#545b4d" fill-opacity=".5" d="M-19.3 116L20 87.4l1 1.2-39.3 28.5z"/><path fill="#726e5c" fill-opacity=".5" d="M238.8 120.8l2.6-9 12 3.4-2.6 9z"/><path fill="#98998c" fill-opacity=".5" d="M280.2 96.6L267.9 94l.4-1.5 12.2 2.6z"/><path fill="#939b94" fill-opacity=".5" d="M128.5 170.3h1.6l-.8 14.1h-1.5z"/><path fill="#b6afa2" fill-opacity=".5" d="M274 54.7l-1-1.2 17-16 1.1 1.2z"/><path fill="#191f1b" fill-opacity=".5" d="M83.6 166l9.5-31.4 3 1-9.6 31.3z"/><path fill="#bec5bd" fill-opacity=".5" d="M89.6 191.7l-4.4 6.5-1.3-.9 4.4-6.4z"/><path fill="#2c3429" fill-opacity=".5" d="M12.6 88.8l-.5-1.5 67.5-24.5.5 1.4z"/><path fill="#aba79e" fill-opacity=".5" d="M269.1 123.6l.8-1.3 9.4 5.6-.8 1.4z"/><path fill="#202e2b" fill-opacity=".5" d="M158.6 150l-5.6-11.2 5.5-2.8 5.7 11.1z"/><path fill="#353930" fill-opacity=".5" d="M70.8 102.7l.6-7.8 12.5.9-.6 7.8z"/><path fill="#454b3d" fill-opacity=".5" d="M142.3 205l-1 1.2-50.8-44 1-1.2z"/><path fill="#6d7b6e" fill-opacity=".5" d="M18.3 23.4L18 25l-34.7-9.3.4-1.5z"/><path fill="#393532" fill-opacity=".5" d="M285.5 179.4l-1 1.1-5.9-5.2 1-1.2z"/><path fill="#0f1a18" fill-opacity=".5" d="M159.2 100.4l3.3 12-4.6 1.3-3.2-12.1z"/><path fill="#584935" fill-opacity=".5" d="M316.4 146.5l-16.7 14-2-2.3 16.7-14z"/><path fill="#f2f3ea" fill-opacity=".5" d="M324.9 120.3l-29.6-1.5.1-3.2 29.7 1.6z"/><path fill="#c3c7c1" fill-opacity=".5" d="M131 72.7l-.9 1.2-19-13.7 1-1.3z"/><path fill="#5c624d" fill-opacity=".5" d="M124 67.5l-4.5-1.4 5-16.4L129 51z"/><path fill="#9aa09a" fill-opacity=".5" d="M47.1 178.4l6-9.2 1.3.9-6 9.1z"/><path fill="#3b413d" fill-opacity=".5" d="M52 8.6L76.2 15l-1.7 6-24.1-6.5z"/><path fill="#8b8474" fill-opacity=".5" d="M271.3 64l1 9.3-13.9 1.7-1.1-9.3z"/><path fill="#202726" fill-opacity=".5" d="M255.1 179l-3.4 3.2-11.5-12.8 3.4-3.1z"/><path fill="#666c5d" fill-opacity=".5" d="M28.9 50.4L29 49l18.7 2-.2 1.6z"/><path fill="#3b3f2b" fill-opacity=".5" d="M280.2 155.4l-4.3 10.1-1.4-.6 4.3-10z"/><path fill="#333024" fill-opacity=".5" d="M367.6 45.9l9.4.5-2.5 46.8-9.3-.5z"/><path fill="#474435" fill-opacity=".5" d="M379.7 139l-23.1-27.6 6-5 23 27.5z"/><path fill="#5a635a" fill-opacity=".5" d="M54.5 88.6L67 79.2l1.9 2.5-12.5 9.4z"/><path fill="#5f5a51" fill-opacity=".5" d="M346 24.4l.9 3-19.4 6-1-3z"/><path fill="#aeaea5" fill-opacity=".5" d="M333.5 23.9l.5-1.5 6 2.2-.6 1.4z"/><path fill="#9a9b98" fill-opacity=".5" d="M89.4 90l3-.3 1 9.3-3 .4z"/><path fill="#413d31" fill-opacity=".5" d="M271.8 196.2l-6-2 1.5-4.4 6 2z"/><path fill="#333a2f" fill-opacity=".5" d="M79.5 137.5l1.2-1 28.9 37-1.3 1z"/><path fill="#dad2c0" fill-opacity=".5" d="M351.4 102.1l.7-1.4 4.3 1.8-.6 1.5z"/><path fill="#72684f" fill-opacity=".5" d="M353.9 93l1.5.5-4.6 15-1.5-.5z"/><path fill="#3a4039" fill-opacity=".5" d="M108.2 70.8l-9.9-14.1 1.3-1 9.9 14.2z"/><path fill="#abaa9b" fill-opacity=".5" d="M269.3 164.3l-3-1 3.4-10.4 3 1z"/><path fill="#858980" fill-opacity=".5" d="M130.2 25.7l-4-11.8 1.4-.5 4 11.8z"/><path fill="#373126" fill-opacity=".5" d="M299.9 39.8l-1.5.5-6.1-16 1.4-.6z"/><path fill="#2f3530" fill-opacity=".5" d="M339.8 12.4l.1 4.7-6.2.2-.2-4.7z"/><path fill="#7f8c8a" fill-opacity=".5" d="M312.5 75.7v-1.6l32.8 1.8v1.5z"/><path fill="#625f55" fill-opacity=".5" d="M161.4 53.9l-29.8 20-.8-1.2 29.8-20.1z"/><path fill="#44493f" fill-opacity=".5" d="M91.3 46.3l3.2-.3 3.2 31-3 .4z"/><path fill="#3e3e39" fill-opacity=".5" d="M117.2 93l-3-5.5 1.4-.8 3 5.5z"/><path fill="#b2b3a5" fill-opacity=".5" d="M293.2 158.3l-5.8 9.3-4-2.5 5.8-9.3z"/><path fill="#363a2e" fill-opacity=".5" d="M119.5 113.8l-1.3-.9 4.5-6.4 1.3.9z"/><path fill="#131818" fill-opacity=".5" d="M35.4 7L35 2.5 50.5.8l.5 4.6z"/><path fill="#e2dfdb" fill-opacity=".5" d="M308.7 66l-.3 1.4-3-.5.2-1.5z"/><path fill="#323934" fill-opacity=".5" d="M54.3 35.5l-9.7 14.3-13-8.8 9.7-14.2z"/><path fill="#3d3c36" fill-opacity=".5" d="M389.7 85.2l6.5 4.3-9.3 14.4-6.6-4.3z"/></svg>