<svg xmlns="http://www.w3.org/2000/svg" viewBox="0 0 128 64"><path fill="#535750" d="M0 0h128v64H0z"/><g fill-opacity=".5"><path fill="#afa99c" d="M112.5 29.5l-31 47-3-83z"/><path fill="#161008" d="M138.5 53.5l-33 26 20-95z"/><path fill="#172017" d="M35.5 10.5l-51 61 21-75z"/><path fill="#f9faf4" d="M34.5 34.5l8-13-17 7z"/><path fill="#aeb1a9" d="M109.5 4.5l-24 41 25-7z"/><path fill="#3a2e22" d="M117.5 24.5l-20-23-3 20z"/><path fill="#34403c" d="M41.5 40.5l-51 23 110-6z"/><path fill="#775f3c" d="M92.5 68.5l47-46-45 24z"/><path fill="#4b5e66" d="M53.5 76.5l3-92 37 47z"/><path fill="#a8ac9f" d="M41.5-1.5l-35-14 21 22z"/><path fill="#fffef0" d="M107.5 36.5h-18l15 5z"/><path fill="#2d342d" d="M14.5 46.5l18-13-37-29z"/><path fill="#adb6b2" d="M5.5 46.5l13 2-1 6z"/><path fill="#a0a29b" d="M29.5 40.5l8-12 4 9z"/><path fill="#1b2416" d="M7.5 79.5l-22-38 52 28z"/><path fill="#888071" d="M90.5-15.5l-13 48 20 45z"/><path fill="#908880" d="M100.5 12.5l15-12-4 19z"/><path fill="#bfb9ae" d="M46.5 2.5l4 2-5 8z"/><path fill="#1a1e1a" d="M141.5-15.5l-21 52-7-50z"/><path fill="#bfbdb0" d="M33.5 17.5l13 7-5 1z"/><path fill="#44473e" d="M67.5 19.5l25 4-1 8z"/><path fill="#6c5632" d="M102.5 79.5l-3-40h15z"/><path fill="#2f3225" d="M43.5 47.5l-1-15 16-13z"/><path fill="#27281f" d="M94.5 13.5l4-29 22 10z"/><path fill="#656e64" d="M-15.5 7.5l29-1-18-22z"/><path fill="#afc0bd" d="M90.5 23.5l22 3-13 6z"/><path fill="#cbcdc8" d="M28.5 22.5l-1 7 11 2z"/><path fill="#979591" d="M91.5-8.5l-14 15 18 12z"/><path fill="#1c2316" d="M30.5 50.5l-8 11 5-24z"/><path fill="#a09d8e" d="M75.5 34.5l7 4 6-14z"/><path fill="#34342f" d="M100.5 15.5l-13 9 14-2z"/><path fill="#c5cdc7" d="M30.5 60.5l1 19h-24z"/><path fill="#354c53" d="M52.5-9.5l40-1-40 37z"/><path fill="#595d54" d="M13.5 27.5l11 3 19-19z"/><path fill="#131214" d="M54.5 66.5l-26 13 19-22z"/><path fill="#293025" d="M-1.5 30.5l16-26 29 4z"/><path fill="#332a1b" d="M81.5 79.5l26-6 16-35z"/><path fill="#6d7e80" d="M124.5 36.5l2-7 17 11z"/><path fill="#57584d" d="M84.5 32.5l1 7 13-7z"/><path fill="#959486" d="M48.5 28.5l1-7-13 2z"/><path fill="#242a23" d="M-15.5 48.5l6-14 41 2z"/><path fill="#6e6a5f" d="M50.5 55.5l-2-8h-18z"/><path fill="#777f7d" d="M109.5.5l13 3-15 3z"/><path fill="#505851" d="M10.5 59.5l10-34-17 23z"/><path fill="#a3a9a0" d="M13.5 50.5l3 7 2-9z"/><path fill="#74674b" d="M116.5 42.5v-16l-22 28z"/><path fill="#4b5045" d="M-15.5 41.5l50-9-45-4z"/><path fill="#daddd8" d="M29.5 26.5l10-3-4 6z"/><path fill="#383e30" d="M55.5 40.5l-21-12 17 2z"/><path fill="#504230" d="M95.5 59.5l-1-13 8 1z"/><path fill="#516065" d="M73.5 7.5l-20 9 20 57z"/><path fill="#b5b1a6" d="M45.5 14.5l1 5 3 2z"/><path fill="#555d55" d="M-15.5 24.5v-12l31 3z"/><path fill="#463c2a" d="M119.5 13.5l-1 18-7-4z"/><path fill="#a8b2ae" d="M94.5 23.5h17l-4 11z"/><path fill="#3f4339" d="M74.5 40.5v5l12-4z"/><path fill="#727769" d="M53.5-7.5l-30 18 8-26z"/><path fill="#19262d" d="M72.5 65.5l9-10-4-4z"/><path fill="#273118" d="M34.5 61.5l-2-12 9 4z"/><path fill="#b9ab9a" d="M88.5 35.5l9 9-9-2z"/><path fill="#454f4b" d="M79.5 12.5l-12 10 22-10z"/><path fill="#635f57" d="M78.5-3.5l24 8-7-18z"/><path fill="#a7a9a2" d="M20.5 3.5l4-18 5 16z"/><path fill="#5e5a4f" d="M95.5 79.5l-10-12 3-22z"/><path fill="#afa799" d="M90.5 20.5l-8 3 8-10z"/><path fill="#29302b" d="M22.5 34.5l-12-35 10-3z"/><path fill="#768d8b" d="M113.5 31.5l-16 4-7-6z"/><path fill="#9b9a92" d="M91.5 57.5l-3 3 13 7z"/><path fill="#9f9e93" d="M83.5 40.5l-4 11 9 1z"/><path fill="#2c2820" d="M39.5 45.5l8-5-19 3z"/><path fill="#252725" d="M41.5-12.5v14l15-1z"/><path fill="#161a13" d="M131.5 21.5l-19-16 26 8z"/><path fill="#635c52" d="M42.5 62.5l6-19-8-1z"/><path fill="#969b96" d="M35.5 40.5l-3 2-3-4z"/><path fill="#79756f" d="M100.5 15.5l2 10 17-28z"/><path fill="#c4c8c3" d="M115.5 9.5l-5-5 2-1z"/><path fill="#7d8581" d="M15.5 51.5l-2-5-13 1z"/><path fill="#29332d" d="M114.5 5.5l-9-16-13-5z"/><path fill="#413d34" d="M91.5 25.5l-4-3 4 14z"/><path fill="#35382e" d="M50.5 16.5l7-9-12 4z"/><path fill="#19211e" d="M14.5 18.5l-30 8 30 2z"/><path fill="#3a3832" d="M44.5 42.5l-15-7 16 15z"/><path fill="#423e35" d="M44.5 22.5v-8l4 12z"/><path fill="#a7a299" d="M93.5 28.5l-11 4 4-4z"/><path fill="#2a322d" d="M2.5 56.5l15-5h-23z"/><path fill="#3e423a" d="M32.5-15.5l7 30-14-26z"/><path fill="#373f2d" d="M20.5 79.5l-16-11 21-21z"/><path fill="#9b9d96" d="M37.5 40.5l-6-8 10 7z"/><path fill="#35352a" d="M51.5 42.5l-17 1 13-7z"/><path fill="#8b8f8a" d="M27.5 24.5l-1-4-3 2z"/><path fill="#2d2a1d" d="M47.5 31.5h-6l-3-5z"/><path fill="#b3c0b9" d="M108.5 28.5l-16-4v5z"/><path fill="#1e251d" d="M14.5 31.5l-30 32 13-25z"/><path fill="#161b1b" d="M134.5 57.5l-20-6 29-7z"/><path fill="#425459" d="M84.5 79.5l-34-10 4-44z"/><path fill="#adb4af" d="M26.5 60.5l9 19v-11z"/><path fill="#a0a39a" d="M36.5 24.5l-5-4 5 2z"/><path fill="#7f6f55" d="M102.5 50.5l-7-10 14 1z"/><path fill="#fff" d="M104.5 39.5l-3-3-4 1z"/><path fill="#3f5356" d="M70.5-14.5l11 41-28-23z"/></g></svg>