<svg xmlns="http://www.w3.org/2000/svg" viewBox="0 0 400 200"><path fill="#51564e" d="M0 0h400v200H0z"/><path fill="#a59e8d" fill-opacity=".5" d="M341.5 169L240 163.7 247.6 20 349 25.4z"/><path fill="#f2f3ed" fill-opacity=".5" d="M126.6 58.7l12 16.4-41.8 30.3-12-16.4z"/><path fill="#221b0c" fill-opacity=".5" d="M372.4 1.2L474 26.5l-48 192.6-101.6-25.3z"/><path fill="#121b12" fill-opacity=".5" d="M102.3 40L13.8 149.4l-58.3-47.2L44-7z"/><path fill="#c2d5d2" fill-opacity=".5" d="M290.1 124.3l2.7-50 56.1 3-2.6 50z"/><path fill="#160f06" fill-opacity=".5" d="M296.5 9.1l26.5 2.3-5.5 62.3-26.4-2.3z"/><path fill="#a9aaa5" fill-opacity=".5" d="M301.1-23.6l-17.8 66.4-42.2-11.4L258.9-35z"/><path fill="#7a6646" fill-opacity=".5" d="M390 114L271 229l-25-25.8 119.2-115z"/><path fill="#111b0f" fill-opacity=".5" d="M-50.5 183.3l21.2-43.5 109.5 53.4L59 236.8z"/><path fill="#c4c5c0" fill-opacity=".5" d="M91 89l17.4-10.4 24.1 40.2-17.4 10.4z"/><path fill="#c4c8bd" fill-opacity=".5" d="M75.8-18.2L101-10l-9.7 29.7L66 11.5z"/><path fill="#363e35" fill-opacity=".5" d="M57.4 82.4l123.9 90-34 46.8-123.9-90z"/><path fill="#a8afad" fill-opacity=".5" d="M20.6 161.2l1-14 37.4 2.6-1 14z"/><path fill="#efe9dc" fill-opacity=".5" d="M335.2 113.9l1.1 10.8-63.7 6.7-1.1-10.8z"/><path fill="#141a19" fill-opacity=".5" d="M383 121.2l-23-4.4 27.2-139.6 23 4.5z"/><path fill="#8b8778" fill-opacity=".5" d="M304.3 124l-20.1 113.8-40-7 20-114z"/><path fill="#3f5662" fill-opacity=".5" d="M246.5-7l3.8 217.2-85.9 1.5-3.8-217.2z"/><path fill="#b2ae9c" fill-opacity=".5" d="M142.2 10.3l18.8 1.3-1.7 23.4-18.7-1.3z"/><path fill="#313128" fill-opacity=".5" d="M247.4 83l3.1-13.8 38 8.8-3 13.7z"/><path fill="#313424" fill-opacity=".5" d="M128.7 88l36 .6-1.2 62.5-36-.6z"/><path fill="#b5b6ae" fill-opacity=".5" d="M356 35.8l-22.4-24 5.7-5.4 22.4 24z"/><path fill="#6e7a70" fill-opacity=".5" d="M357.8 117.6L233 109l1.3-18.7L359 99z"/><path fill="#616357" fill-opacity=".5" d="M69.6 61.6L142 36.7l8.7 25.1-72.4 25z"/><path fill="#787b74" fill-opacity=".5" d="M379 106.6l13.4-17.2 27.1 21.2-13.5 17.2z"/><path fill="#9f9e99" fill-opacity=".5" d="M112.4 119l-7.4 17.2-15.8-6.7 7.3-17.3z"/></svg>