<svg xmlns="http://www.w3.org/2000/svg" viewBox="0 0 400 200"><filter id="b"><feGaussianBlur stdDeviation="12" /></filter><path fill="#51564e" d="M0 0h400v200H0z"/><g filter="url(#b)" transform="translate(.8 .8) scale(1.5625)" fill-opacity=".5"><ellipse fill="#bcb9a7" rx="1" ry="1" transform="rotate(-134.3 110.7 -3.1) scale(25.46083 39.29396)"/><ellipse fill="#141108" cx="255" cy="95" rx="27" ry="135"/><path fill="#ededea" d="M56 50.8l-2 8.5 9 10.2 28-26.8z"/><ellipse fill="#172017" rx="1" ry="1" transform="rotate(-146.4 14.2 21.8) scale(33.27385 50.1144)"/><ellipse fill="#b2ada2" rx="1" ry="1" transform="matrix(17.51872 -2.38852 3.50068 25.67591 171.4 19.9)"/><path fill="#c4d6d7" d="M188.8 78.4l3.6-29.8 24.8 3-3.6 29.8z"/><ellipse fill="#131d12" rx="1" ry="1" transform="matrix(-50.34963 -27.7811 8.55833 -15.51086 20.6 127)"/><ellipse fill="#7f6846" rx="1" ry="1" transform="matrix(8.93714 10.83323 -50.47254 41.63853 188.4 112)"/><path fill="#5f6d70" d="M229 69L108 33l15 42z"/><path fill="#bcc0b5" d="M58 13L40 4l23-20z"/><path fill="#c5c7c2" d="M84.4 79.1L70 76.4 52.7 50.8l14 1.2z"/><ellipse fill="#958f84" rx="1" ry="1" transform="matrix(9.47946 -16.92731 8.54805 4.787 216.8 21)"/><path fill="#2d1e04" d="M229 92l1 34-51 17z"/><ellipse fill="#31382e" rx="1" ry="1" transform="rotate(133.6 10.5 67.3) scale(14.29713 104.05669)"/><path fill="#fff" d="M186 74.2l28-.4v6l-28 .4z"/></g></svg>