<svg xmlns="http://www.w3.org/2000/svg" viewBox="0 0 400 200"><path fill="#51564e" d="M0 0h400v200H0z"/><path fill="#a49d8b" fill-opacity=".5" d="M347.4 18l-2.6 151.6-100-1.7 2.6-151.6z"/><path fill="#131c13" fill-opacity=".5" d="M10.7 148.2l-59-51.2L44-9.2l59 51.3z"/><path fill="#1e180b" fill-opacity=".5" d="M328.7 210.3L373-18.2 469.7.6 425.3 229z"/><path fill="#e2e3de" fill-opacity=".5" d="M106.8 112.3L84.6 95l28.9-37 22.2 17.3z"/><path fill="#c5d9d8" fill-opacity=".5" d="M297.2 71.5l48 5.9-6.4 52.7-48.1-6z"/><path fill="#1a150d" fill-opacity=".5" d="M287.9 72.4L298.4 6l27.8 4.4-10.5 66.4z"/><path fill="#735d3a" fill-opacity=".5" d="M274.2 191.4L363.6 85l26.3 22.1-89.4 106.5z"/><path fill="#141e12" fill-opacity=".5" d="M67 228.5L-28 192l15.7-40.9 94.8 36.4z"/><path fill="#9c9c94" fill-opacity=".5" d="M253.8 66.2L242-7.8l43.2-6.9L297 59.4z"/><path fill="#2f372d" fill-opacity=".5" d="M154 248.5L-6.4 88.3l32-32 160.4 160z"/><path fill="#bec2b7" fill-opacity=".5" d="M99.8-2.7l-7.3 22.3-28.2-9.1 7.2-22.3z"/><path fill="#fff" fill-opacity=".5" d="M300.4 115.2l35.8 2.5-.6 9.3-35.9-2.5z"/><path fill="#bbc0bf" fill-opacity=".5" d="M40.6 153l15.1-3.8 5.3 21.2-15.2 3.8z"/><path fill="#99988d" fill-opacity=".5" d="M294 175.8l7.8 36.7-47.4 10-7.8-36.6z"/><path fill="#b8bbb5" fill-opacity=".5" d="M85.4 84.8l15.2-11 31.2 43-15.2 11z"/><path fill="#485b65" fill-opacity=".5" d="M138.8 173.8l65.5-162.2 71 28.6-65.6 162.3z"/><path fill="#3d4237" fill-opacity=".5" d="M123 164.2l-6.8-77.9 59.2-5.1 6.8 77.8z"/><path fill="#b5b09f" fill-opacity=".5" d="M157.6 36.2l-17-2.4L144 9.1l17 2.4z"/><path fill="#2f2f22" fill-opacity=".5" d="M284.7 72l-.7 39-14-.2.7-39z"/><path fill="#636559" fill-opacity=".5" d="M70 68.5L146.8 42l6.6 19.2-76.8 26.5z"/><path fill="#0f1617" fill-opacity=".5" d="M409.4-2.6l-27 117.2-18.3-4.2L391-6.8z"/><path fill="#6e7f7a" fill-opacity=".5" d="M291.4 96.9h68.8V114h-68.8z"/><path fill="#8c877b" fill-opacity=".5" d="M355.8 5.4l5.4 51.3-18.6 2-5.4-51.3z"/><path fill="#797c75" fill-opacity=".5" d="M418.9 104.2l-9.2 21.6-30.2-12.8 9.2-21.6z"/><path fill="#eff2ee" fill-opacity=".5" d="M84.9 90.6L120.3 74l2.6 5.6-35.4 16.5z"/><path fill="#0b2229" fill-opacity=".5" d="M253.1 164.4l-3.2 31.1-20.2-2.1 3.2-31z"/><path fill="#b1b3a4" fill-opacity=".5" d="M240.2 100l1-11 35.8 3.2-1 11z"/><path fill="#969792" fill-opacity=".5" d="M91 126.8l38.2-14 3.2 8.9-38.2 13.9z"/><path fill="#1e1307" fill-opacity=".5" d="M335.3 73.9l1.4-14L357 62l-1.4 14z"/><path fill="#bfb9a9" fill-opacity=".5" d="M274.1 136.2l3.9-20 27.6 5.4-3.9 20z"/><path fill="#25291f" fill-opacity=".5" d="M289.3 20.6l56.6-49.2 16.4 18.9-56.6 49.2z"/><path fill="#1f2016" fill-opacity=".5" d="M98 44.9l-6-21 27.1-7.8 6 21z"/><path fill="#999583" fill-opacity=".5" d="M153.2 74.7l-3.9 16.8-22.8-5.3 3.9-16.7z"/><path fill="#a6aca7" fill-opacity=".5" d="M100.4 186.7l7 17.4-18.8 7.6-7-17.4z"/><path fill="#604b2a" fill-opacity=".5" d="M337 139.1l9.5 49-44.4 8.7-9.6-49z"/><path fill="#92958e" fill-opacity=".5" d="M237 13.5l43-9.1 6.5 30.6-42.8 9z"/><path fill="#1e271c" fill-opacity=".5" d="M80.2 128.1l-11.8-12.5 21.8-20.3 11.7 12.6z"/><path fill="#24291b" fill-opacity=".5" d="M108 147.8l-5.4-11.4 56.7-26.4 5.3 11.4z"/><path fill="#242c21" fill-opacity=".5" d="M63.2 151.4l28 9.7-9 26.6L54 178z"/><path fill="#385058" fill-opacity=".5" d="M189.2 76.2L144.9 39 206-34l44.3 37.2z"/><path fill="#777265" fill-opacity=".5" d="M146.6 147l8.2 4.6-31 56-8.3-4.5z"/><path fill="#7b847d" fill-opacity=".5" d="M19.5 154.6l60.7-15.2L82 147l-60.6 15.1z"/><path fill="#797b74" fill-opacity=".5" d="M125.5 156l-3.6 8.6-30.2-12.8 3.6-8.6z"/><path fill="#96907f" fill-opacity=".5" d="M288.6 178.1l-37-16.5 11.3-25.7 37.2 16.5z"/><path fill="#262924" fill-opacity=".5" d="M239.8 130.5H268v6.2h-28.2z"/><path fill="#252e25" fill-opacity=".5" d="M105.6 75.9l-6 5.1L68 44.4l5.9-5z"/><path fill="#b2bdb7" fill-opacity=".5" d="M347.4 93l-20.2 1.4-1.2-17.1 20.3-1.4z"/><path fill="#b9c4c2" fill-opacity=".5" d="M288.6 78l26.3 3.6-2 14-26.2-3.8z"/><path fill="#a5a090" fill-opacity=".5" d="M238.6 100.7l27.3 6.8-3 12.1-27.3-6.8z"/><path fill="#6c6458" fill-opacity=".5" d="M313 65.2l.7-42.2 46.8.8-.7 42.2z"/><path fill="#101815" fill-opacity=".5" d="M-23.2 88l72.8-32.4L56 69.8l-72.8 32.4z"/><path fill="#bcbebc" fill-opacity=".5" d="M91.5 69l7.3 23.8-7.5 2.3L84 71.2z"/><path fill="#7d8076" fill-opacity=".5" d="M82.8-8.3l35.7-11.6L128 9.8 92.5 21.4z"/><path fill="#dadfda" fill-opacity=".5" d="M341 11.3L364.8 36l-1 1.1-24-24.7z"/><path fill="#aba28f" fill-opacity=".5" d="M258 64.8l-3.6-13.6L296.7 40l3.6 13.6z"/><path fill="#1e251e" fill-opacity=".5" d="M-45 159.4l-2.8-8.9 141.2-45.9 2.9 9z"/><path fill="#52584c" fill-opacity=".5" d="M-49.4 100.6l.7-9.4L91.6 101l-.7 9.4z"/><path fill="#504b3d" fill-opacity=".5" d="M271.2 219.5l-4.7-.8 10.8-67.9 4.6.8z"/><path fill="#72623f" fill-opacity=".5" d="M364.9 118.9L328.7 179l-20.1-12 36.2-60.3z"/><path fill="#81847d" fill-opacity=".5" d="M103.7 97.3l26.2 4.2L126 126l-26.2-4z"/><path fill="#505d63" fill-opacity=".5" d="M231.3 168h-64.1V43h64z"/><path fill="#576157" fill-opacity=".5" d="M30.8 35.3L-6 11.4l11-17 36.7 23.8z"/><path fill="#1c2b2f" fill-opacity=".5" d="M158.9 113.2l-7.6-2.1L167.7 54l7.5 2.1z"/><path fill="#272923" fill-opacity=".5" d="M354.5 224.3l-32-29.8 71.4-76.6 32 29.8z"/><path fill="#1e261e" fill-opacity=".5" d="M387.4 75.5v1.6l-104.5-7.3v-1.6z"/><path fill="#413f34" fill-opacity=".5" d="M244.3 82.3l4.8-13.2 17.6 6.4-4.8 13.2z"/><path fill="#0e1411" fill-opacity=".5" d="M97 132.2l-5 32.4-9.4-1.5 5.2-32.4z"/><path fill="#584c36" fill-opacity=".5" d="M348.4 96V36.8h20.4v59.4z"/><path fill="#0e1613" fill-opacity=".5" d="M351.6 21l2.8-5.7 36.2 18.5-2.8 5.5z"/><path fill="#fffef4" fill-opacity=".5" d="M290.7 122.2l-.1-7.8 39-.7.2 7.8z"/><path fill="#d7d8d9" fill-opacity=".5" d="M125.1 67l11 .4-.3 7.8-11-.4z"/><path fill="#343728" fill-opacity=".5" d="M129.5 78.5l18.5 19-13.5 13.1-18.4-19.1z"/><path fill="#939995" fill-opacity=".5" d="M52.2 164.6l-36.4-9.1 2.3-9.1 36.4 9z"/><path fill="#9f9b8b" fill-opacity=".5" d="M136.8 49.2l3.9-2.5 17.9 27.5-4 2.6z"/><path fill="#38311b" fill-opacity=".5" d="M270.5 102.5l-.4 12.5-7.8-.3.4-12.5z"/><path fill="#dde5e5" fill-opacity=".5" d="M364.6 18.6l.5-7.8 3.1.3-.5 7.7z"/><path fill="#292e2b" fill-opacity=".5" d="M103.9 124l5.2-5.8 10.5 9.4-5.3 5.8z"/><path fill="#182323" fill-opacity=".5" d="M141.4 223l-1.6-46.9 17.2-.6 1.6 46.8z"/><path fill="#656659" fill-opacity=".5" d="M315.9 17.6L260-2.7l3.7-10.2 55.8 20.3z"/><path fill="#565347" fill-opacity=".5" d="M284.7-10l-35.2 66-1.4-.7 35.2-66.2z"/><path fill="#3a545a" fill-opacity=".5" d="M229.9 228.6l-76-9.3 8.4-68.2 76 9.3z"/><path fill="#0b1715" fill-opacity=".5" d="M171.6 6.2L142 4.7l.5-9.4L172-3z"/><path fill="#384038" fill-opacity=".5" d="M81.4 98.2l-22.9 10.2-13.3-30L68 68.2z"/><path fill="#9eaaa5" fill-opacity=".5" d="M289.3 88.7l-.5-15.6 26.5-.9.6 15.6z"/><path fill="#a6aca4" fill-opacity=".5" d="M50.2 168l5.7 2.5-4.5 10-5.7-2.6z"/><path fill="#242f1e" fill-opacity=".5" d="M72 234.7l-4.9-4 56.3-67 4.8 4z"/><path fill="#3d3a2b" fill-opacity=".5" d="M170.6 20.4l8 13.4-32 19.3-8.1-13.4z"/><path fill="#a7a496" fill-opacity=".5" d="M275.3 176.4L254.7 136l2.8-1.4 20.6 40.3z"/><path fill="#f5f2f0" fill-opacity=".5" d="M317.2 67.5l.3-1.5 10.7 2.4-.4 1.6z"/><path fill="#1b1f19" fill-opacity=".5" d="M361.4 28.6l44.3-9.4 9.5 44.3-44.4 9.5z"/><path fill="#1d231f" fill-opacity=".5" d="M82 47.6L65.3 61.7 35 25.8l16.8-14z"/><path fill="#4e544b" fill-opacity=".5" d="M50 44.3l1 9.3-80.6 10-1.1-9.4z"/><path fill="#162116" fill-opacity=".5" d="M106.5 63.4l7 3.5-2.8 5.6-7-3.4z"/><path fill="#c2c5c3" fill-opacity=".5" d="M60.2 153L43 163.7l-1.7-2.6 17.3-10.8z"/><path fill="#c0c7c2" fill-opacity=".5" d="M347.7 13.4L364.4 34l-1.2 1-16.7-20.6z"/><path fill="#141714" fill-opacity=".5" d="M103 101.4l8.7 3.5-.6 1.5-8.7-3.5z"/><path fill="#b3b4b0" fill-opacity=".5" d="M96.5 118.6l9.9 10-4.4 4.4-10-10z"/><path fill="#282c26" fill-opacity=".5" d="M65.4 169.4l-17.7-6.1 1-3 17.7 6.1z"/><path fill="#26251f" fill-opacity=".5" d="M132.8-20l7.7 39.8-9.2 1.8-7.7-39.9z"/><path fill="#ecf4f3" fill-opacity=".5" d="M361.6 10.4l-.7-1.3 4-2.4.8 1.4z"/><path fill="#2a2c1d" fill-opacity=".5" d="M130.2 54l15.4 3-2.4 12.3-15.3-3z"/><path fill="#c5c8c4" fill-opacity=".5" d="M107.9 60.3l.8-1.4 31.8 19.9-.8 1.3z"/><path fill="#949388" fill-opacity=".5" d="M305.5 192l-7.9 13.6-20.2-11.7 7.8-13.6z"/><path fill="#5b6058" fill-opacity=".5" d="M80.6 135l-2.5 7.3-38.4-13.2 2.5-7.4z"/><path fill="#9da69c" fill-opacity=".5" d="M358.8 98l-1 6.2-43.2-6.9 1-6.2z"/><path fill="#2d3f3f" fill-opacity=".5" d="M256.1 128.7l-13.3 23-6.7-3.9 13.3-23z"/><path fill="#13100a" fill-opacity=".5" d="M282.7 87.6l-7.8-.2.2-14 7.8.1z"/><path fill="#dbddda" fill-opacity=".5" d="M91.4 83.6l24.8 13.2-3 5.5-24.7-13.2z"/><path fill="#dfd9d2" fill-opacity=".5" d="M120.4 42.8l5.6 5.4-1 1.2-5.7-5.5z"/><path fill="#a0a39d" fill-opacity=".5" d="M282-34.3l8.2 4.6L254 35.9l-8.2-4.6z"/><path fill="#524426" fill-opacity=".5" d="M341.3 162l10.2 9.8-41.3 42.7-10.1-9.7z"/><path fill="#313229" fill-opacity=".5" d="M317.2-8l18.7-1 1.6 31.1-18.7 1z"/><path fill="#fff" fill-opacity=".5" d="M141 24.6l5.3 7.7-1.3.9-5.4-7.7z"/><path fill="#b4bfb3" fill-opacity=".5" d="M128.6 171.4l4.4 1.6-3.8 10.3-4.4-1.6z"/><path fill="#25301a" fill-opacity=".5" d="M97.6 161.3l5.9-7.3 25.5 20.7-6 7.2z"/><path fill="#604f32" fill-opacity=".5" d="M257 49.6l-1.1-6.1 23-4 1.2 6z"/><path fill="#777c77" fill-opacity=".5" d="M84.6 65.4l7.3 41.5-6.2 1.1-7.3-41.5z"/><path fill="#546138" fill-opacity=".5" d="M92.2 31.1l-19.4 6-4.1-13.5 19.4-6z"/><path fill="#6c7265" fill-opacity=".5" d="M45.3 82.7l13-5.2 4.2 10-13 5.4z"/><path fill="#8c9288" fill-opacity=".5" d="M347.8 51.4l-17 1.8-2-18.7 17-1.8z"/><path fill="#646561" fill-opacity=".5" d="M374.5 156.3l-5.5-9.5 8.1-4.7 5.5 9.5z"/><path fill="#443f35" fill-opacity=".5" d="M272.1 142.5l8.8 38-1.5.4-8.8-38z"/><path fill="#3b3730" fill-opacity=".5" d="M380 126.8l-25-9L368.5 81l25 9.1z"/><path fill="#567774" fill-opacity=".5" d="M302.7 94l2.2 13.8-18.5 3-2.2-14z"/><path fill="#b2b4a8" fill-opacity=".5" d="M287.3 154.6l8.5 13.1-6.5 4.3-8.5-13.1z"/><path fill="#101b1b" fill-opacity=".5" d="M349.3-7.2L391-2.1l-1.3 10.9-41.9-5.2z"/><path fill="#7f8a89" fill-opacity=".5" d="M334.4 11.6l42-4.4.1 1.5-42 4.4z"/><path fill="#292e30" fill-opacity=".5" d="M303.3 186.6l-11 .2-.2-15.6 10.9-.2z"/><path fill="#252c29" fill-opacity=".5" d="M376 3l.9 1.3-35.8 22.4-.8-1.3z"/><path fill="#c2c8bd" fill-opacity=".5" d="M267.3 215.5l-1.5.1-3.4-32.6 1.5-.2z"/><path fill="#151c1b" fill-opacity=".5" d="M2.8 148l-12-12.3 23.6-22.8 12 12.4z"/><path fill="#30231a" fill-opacity=".5" d="M299.2 72.4l-7.5-5.5 13.7-19 7.6 5.5z"/><path fill="#6d7065" fill-opacity=".5" d="M164.5 98.8l-.9 1.3-60.9-41 .9-1.4z"/><path fill="#c3c9c3" fill-opacity=".5" d="M88.3 191.5l5.7 2.6-5.7 12.8-5.7-2.5z"/><path fill="#919791" fill-opacity=".5" d="M104.2 141.9l-7.8 7.6-2.2-2.3 7.9-7.6z"/><path fill="#454b49" fill-opacity=".5" d="M36.5 183L20 171.4 30.7 156l16.6 11.7z"/><path fill="#191c14" fill-opacity=".5" d="M309.6 10.7l-8.5 31.7-6-1.6 8.5-31.7z"/><path fill="#49504b" fill-opacity=".5" d="M398.6 191.7l-.4 7.8-42.1-2.2.4-7.8z"/><path fill="#504f47" fill-opacity=".5" d="M144.9 43.6l-8.4 7-67.3-80.2 8.4-7z"/><path fill="#989a91" fill-opacity=".5" d="M271.4 159l-21.4 5-4.2-18.3 21.3-5z"/><path fill="#6a6c65" fill-opacity=".5" d="M89.6 208.5l-2.4-7.4 34.2-11.1 2.4 7.4z"/><path fill="#18201a" fill-opacity=".5" d="M29.1 180.4l6.6 12.5-41.4 22-6.6-12.4z"/><path fill="#383f37" fill-opacity=".5" d="M56.4 151l-34.2-24.7 7.4-10.2L63.7 141z"/><path fill="#bfc5c2" fill-opacity=".5" d="M363.7 7.8L361.3-6l1.5-.3 2.5 13.9z"/><path fill="#5a5145" fill-opacity=".5" d="M308.5 48.6l35.2 12.8-3.7 10.3L304.7 59z"/><path fill="#e7f0ec" fill-opacity=".5" d="M342.3 23.5l-1.5-.5 2.8-10.5 1.5.4z"/><path fill="#34474a" fill-opacity=".5" d="M248.3 75.7l-7.6 1.6L225 4l7.6-1.6z"/><path fill="#3a473e" fill-opacity=".5" d="M282 68h3.2v50H282z"/><path fill="#5d6254" fill-opacity=".5" d="M30.2 100.4l1 4.5-38 8.8-1-4.6z"/><path fill="#202a1f" fill-opacity=".5" d="M41.2 67.4l3.5 40.4-15.6 1.4-3.5-40.5z"/><path fill="#a3a196" fill-opacity=".5" d="M277.1 67.6l-9.6-14.3 19.4-13 9.7 14.2z"/><path fill="#5d685d" fill-opacity=".5" d="M99.9 169.9l-21 23.2-2.2-2 20.9-23.3z"/><path fill="#abaea8" fill-opacity=".5" d="M254.7 101.7L239.3 82l1.3-1 15.4 19.8z"/><path fill="#b5b0a0" fill-opacity=".5" d="M299 144.8l-26-37.1 1.4-1 26 37.2z"/><path fill="#7e6a47" fill-opacity=".5" d="M288 159.8l-5.5-11.2 71.7-35 5.4 11.3z"/><path fill="#304447" fill-opacity=".5" d="M155.5 218.8V114h9.3v104.7z"/><path fill="#2c302e" fill-opacity=".5" d="M67.7 7.9L42.2 23.2 24.5-6.3 50-21.6z"/><path fill="#b2b1a3" fill-opacity=".5" d="M249.3 110.6l12-3.5 3.5 12-12 3.5z"/><path fill="#98978f" fill-opacity=".5" d="M147 64.2l-1.6.4-6.4-24.1 1.5-.4z"/><path fill="#7b7a6c" fill-opacity=".5" d="M162 10l4.4 1.6-8.1 23.6-4.4-1.5z"/><path fill="#a1a099" fill-opacity=".5" d="M286 7.6l7 12.2-14.9 8.6-7-12.2z"/><path fill="#656c65" fill-opacity=".5" d="M7.6 151.3l.8-6.2 41.8 5.2-.7 6.2z"/><path fill="#261e0c" fill-opacity=".5" d="M271.5 112.6l-4.6 6.3-2.5-1.8 4.6-6.3z"/><path fill="#686d68" fill-opacity=".5" d="M48.2 114.7l-4.5-6.4 12.8-9 4.5 6.4z"/><path fill="#cacdc8" fill-opacity=".5" d="M113.3 95.4l-.5 3.1L82 93.6l.5-3z"/><path fill="#453422" fill-opacity=".5" d="M270.2 186l-12.8-11.5 5.2-5.8 12.8 11.5z"/><path fill="#252b28" fill-opacity=".5" d="M-12.4 20.7L31.2 33l-4.8 16.6L-17 37.2z"/><path fill="#dedbd8" fill-opacity=".5" d="M134.3 36.8l-2.9 1.1-1.7-4.4 3-1z"/><path fill="#c7c8c3" fill-opacity=".5" d="M119.5 88.3h-6.2V72.7h6.2z"/><path fill="#b2b7b1" fill-opacity=".5" d="M98.3 63l1.3-1 19.3 26.6-1.3 1z"/><path fill="#151b19" fill-opacity=".5" d="M418 166.1l-17.2 16-20.3-21.7 17.2-16z"/><path fill="#383f22" fill-opacity=".5" d="M135.8 130l-7.4-2.4 12.3-40.3 7.5 2.3z"/><path fill="#161e18" fill-opacity=".5" d="M9.3 155.4l4.2 16.7-21.3 5.3-4.1-16.7z"/><path fill="#1f271f" fill-opacity=".5" d="M75.5 81.7l-16.2 23-5-3.6 16-23z"/><path fill="#393e36" fill-opacity=".5" d="M62 83l-.2-1.6 46.5-6.5.2 1.5z"/><path fill="#7b796d" fill-opacity=".5" d="M162 49.1l1.3 1-30 39.9-1.3-1z"/><path fill="#b5b0af" fill-opacity=".5" d="M321.8 65.2l.1 1.5-17.2 1V66z"/><path fill="#525d60" fill-opacity=".5" d="M213.3 114L160 52.8l28.3-24.6 53.3 61.4z"/><path fill="#393f37" fill-opacity=".5" d="M249.3 109.9l-22.7-10.6.7-1.4 22.6 10.6z"/><path fill="#5a523a" fill-opacity=".5" d="M362.8 71.4l1.4.7-19.2 39.3-1.4-.7z"/><path fill="#3f3e38" fill-opacity=".5" d="M118.8 95.5l-1.4.6-3.4-8.8 1.5-.5z"/><path fill="#4b4a3f" fill-opacity=".5" d="M264.7 32.3l-3.3-3.4 6.8-6.5 3.2 3.4z"/><path fill="#414030" fill-opacity=".5" d="M152.7 168.2l-24.3 5.6-1.4-6 24.3-5.7z"/><path fill="#8f9a95" fill-opacity=".5" d="M303.5 73.4l44.8 6.3-.2 1.6-44.9-6.3z"/><path fill="#a5a89f" fill-opacity=".5" d="M121.6 112l7.8-.5.6 12.5-7.8.4z"/><path fill="#526163" fill-opacity=".5" d="M203.4 177.1l-3.7-104.6 32.8-1.2 3.7 104.7z"/><path fill="#7d776d" fill-opacity=".5" d="M145.4-14.5L139 31.9l-1.5-.2 6.5-46.4z"/><path fill="#252720" fill-opacity=".5" d="M117.7 44l-5.5-5.4L127.6 23l5.6 5.5z"/><path fill="#2a3023" fill-opacity=".5" d="M86.2 150.6l61.5 55.4-1 1.2L85 151.8z"/><path fill="#d0d2c9" fill-opacity=".5" d="M105.6 119l4.8-6.2 1.2 1-4.8 6.2z"/><path fill="#76786e" fill-opacity=".5" d="M387.1 116.1l20.7-14 3.5 5.2-20.7 14z"/><path fill="#8f948c" fill-opacity=".5" d="M94.8 20l-20.3-1 1-18.7 20.3 1z"/><path fill="#e8ece6" fill-opacity=".5" d="M348.7 29l-.5-15.7h1.5l.6 15.6z"/><path fill="#766a53" fill-opacity=".5" d="M300.2 163.2L268.8 111l1.3-.8 31.4 52.2z"/><path fill="#1b231d" fill-opacity=".5" d="M124 130.9l-3 17-12.2-2.2 3-17z"/><path fill="#7d867b" fill-opacity=".5" d="M77.5 127.4l1.5.3-4.9 30.8-1.5-.2z"/><path fill="#aeb4ac" fill-opacity=".5" d="M112 127l.6 1.4-7.5 2.5-.5-1.5z"/><path fill="#6b6b55" fill-opacity=".5" d="M148 160.8h-1.6l-5.3-60.6 1.6-.2z"/><path fill="#959481" fill-opacity=".5" d="M265.7 109l-6-1.9 7.4-23.9 6 1.9z"/><path fill="#2f2b1f" fill-opacity=".5" d="M339.3 67.8l6.6-6.6 13.3 13.2-6.7 6.6z"/><path fill="#a7a598" fill-opacity=".5" d="M271.2 201.7l-23-16.2.9-1.2 23 16z"/><path fill="#94988e" fill-opacity=".5" d="M104.6-2l20.3-.7.2 6.2-20.3.8z"/><path fill="#647276" fill-opacity=".5" d="M262.8 16.2l-27.4 6.3-2.9-12.1L260 4z"/><path fill="#6f6d61" fill-opacity=".5" d="M288-4.5l3.2-.2 3.6 51.4-3.2.2z"/><path fill="#afb7b3" fill-opacity=".5" d="M395.3 148.3l-1.3.9-3.3-5.3 1.3-.9z"/><path fill="#816b50" fill-opacity=".5" d="M312.4 188.7l-7.8-5.3 9.6-14.2 7.8 5.2z"/><path fill="#333b29" fill-opacity=".5" d="M77.4 34.2L83 19.6 118 33l-5.6 14.6z"/><path fill="#48453c" fill-opacity=".5" d="M343.8 20l9.3 5.7-1.6 2.7-9.3-5.7z"/><path fill="#adb4a8" fill-opacity=".5" d="M32 177.7l1.5-.5 1.7 6-1.6.5z"/><path fill="#3e372a" fill-opacity=".5" d="M267.7 188.1l8.1 15.2-1.4.7-8-15.1z"/><path fill="#34362b" fill-opacity=".5" d="M351.2 17.4l3.7-3 23.6 29.2-3.7 3z"/><path fill="#3a352c" fill-opacity=".5" d="M143 75.3l-1.6.2-10.9-77.4 1.6-.2z"/><path fill="#edf0eb" fill-opacity=".5" d="M120.4 77.6l.4 1.5-27.1 7.3-.5-1.5z"/><path fill="#878c86" fill-opacity=".5" d="M81 53.2l-1.3.7-3-5.5 1.4-.7z"/><path fill="#adb1a5" fill-opacity=".5" d="M325.4 34.3l-1.4.7-4.1-8.4 1.4-.7z"/><path fill="#59625d" fill-opacity=".5" d="M4.4 175l5.4 3.3L3.4 189l-5.4-3.2z"/><path fill="#373627" fill-opacity=".5" d="M144.4 136l-19 44.5-5.7-2.4 19-44.6z"/><path fill="#b8b6b0" fill-opacity=".5" d="M132 55.8l1.8-4.4 1.4.7-1.8 4.3z"/><path fill="#a9a48e" fill-opacity=".5" d="M260 184.5l-1.5.5-4.4-11.6 1.4-.6z"/><path fill="#141a17" fill-opacity=".5" d="M49.5 22.5l39.7 27.8-2.7 3.8-39.7-27.8z"/><path fill="#bbb4af" fill-opacity=".5" d="M274.4 176.2l1.3-1 4.6 6.4-1.3 1z"/><path fill="#bcc9bf" fill-opacity=".5" d="M81.4 192.9l-.2-1.6 7.7-1.3.2 1.5z"/><path fill="#b4c0c0" fill-opacity=".5" d="M350.3 10.1l6-7.2 1.2 1-6 7.2z"/><path fill="#71674b" fill-opacity=".5" d="M332 113.2l19.8 17.8-1 1.1-19.8-17.8z"/><path fill="#918c7b" fill-opacity=".5" d="M264.3 5.6l-3.6 68.6h-1.6l3.6-68.7z"/><path fill="#cccec9" fill-opacity=".5" d="M118.3 108.9l-1.2 1-8.9-11 1.3-1z"/><path fill="#747e75" fill-opacity=".5" d="M32.8 163.5l-1.5-21.8 6.2-.5L39 163z"/><path fill="#ffefda" fill-opacity=".5" d="M357.6 103.6l-1.2 1-3-3.5 1.1-1z"/><path fill="#838885" fill-opacity=".5" d="M230.5 198l.1-1.5 43.6 3.8-.1 1.6z"/><path fill="#737265" fill-opacity=".5" d="M121.2 145.5l10.4 3.4-4.4 13.4-10.4-3.4z"/><path fill="#8e8c80" fill-opacity=".5" d="M308.5 128l-78-2.8v-1.6l78.1 2.8z"/><path fill="#bbc1bd" fill-opacity=".5" d="M299.9 85.4l46.3 7.4-.8 4.6-46.3-7.3z"/><path fill="#d3d4ce" fill-opacity=".5" d="M354.8 31.1l-4.3-1.8 2.5-5.7 4.3 1.8z"/><path fill="#282d26" fill-opacity=".5" d="M319.2 24.7l-3.4-7L335.5 8l3.4 7z"/><path fill="#293126" fill-opacity=".5" d="M140.4 95.7l-20.9 18.8-2-2.3 20.8-18.9z"/><path fill="#1a1d16" fill-opacity=".5" d="M367.7 145.3l4.3 2-28.8 59-4.2-2z"/><path fill="#4f4e43" fill-opacity=".5" d="M141.5 67.5l-2.7-3.9 24.4-17 2.6 3.8z"/><path fill="#1a1813" fill-opacity=".5" d="M120.9 88l-1-4.6 4.5-1 1 4.5z"/><path fill="#394131" fill-opacity=".5" d="M38.3 208L30 187.7l55-22.2 8.2 20.2z"/><path fill="#899c9a" fill-opacity=".5" d="M345.1 100.1l-1.7 10.8-40.1-6.3 1.7-10.8z"/><path fill="#cececc" fill-opacity=".5" d="M91 97.7L90.3 79l4.7-.2.6 18.8z"/><path fill="#565a54" fill-opacity=".5" d="M74 167.2l-1.3 12.4-14-1.5 1.4-12.4z"/><path fill="#4f5953" fill-opacity=".5" d="M28.4 59.3L25.8 63l-40.2-27 2.7-4z"/><path fill="#3c5458" fill-opacity=".5" d="M182 4.7l48-40.2L257-3l-47.8 40z"/><path fill="#666050" fill-opacity=".5" d="M253.5 93.3l6-19.5 10.4 3.2-6 19.5z"/><path fill="#0f1517" fill-opacity=".5" d="M83.3 199.2l-4.8 8-13.4-8 4.8-8z"/><path fill="#1e281f" fill-opacity=".5" d="M35.5 184l2.5-20.2 6.2.7-2.5 20.2z"/><path fill="#7c7e76" fill-opacity=".5" d="M91.7 134.7l-4.5-1.2 3.9-13.6 4.5 1.3z"/><path fill="#424f53" fill-opacity=".5" d="M170 107.8l25.5 31.6-17 13.7-25.6-31.5z"/><path fill="#7b776a" fill-opacity=".5" d="M152.4 135L138 176.4l-1.4-.5 14.2-41.4z"/><path fill="#1d241e" fill-opacity=".5" d="M161.4 142l2 4.2-13.8 7-2.2-4z"/><path fill="#1f3233" fill-opacity=".5" d="M168.5 42l-7.5-2 6.4-24.2 7.6 2z"/><path fill="#555c59" fill-opacity=".5" d="M376.7 23.4l-.6 1.4L328 6.3l.6-1.4z"/><path fill="#434841" fill-opacity=".5" d="M46.1 15.5L51.7-.8 68 4.8l-5.6 16.3z"/><path fill="#b8c0b6" fill-opacity=".5" d="M128.7 169l1.5-.3 2 7.5-1.5.4z"/><path fill="#5c5342" fill-opacity=".5" d="M290.7 65.3l1.8 4.4L261 83l-1.9-4.3z"/><path fill="#141a15" fill-opacity=".5" d="M78.4 155.3l4.8 4-10 12-4.8-4z"/><path fill="#797265" fill-opacity=".5" d="M329.4 60.5l-19.9-9.2 3.3-7.1 19.9 9.2z"/><path fill="#3a3e37" fill-opacity=".5" d="M54 97.6l56.1 4.9-.1 1.5-56-4.9z"/><path fill="#aaaca7" fill-opacity=".5" d="M87.5 90.8l24.4 22-1 1.1-24.4-22z"/><path fill="#2b3320" fill-opacity=".5" d="M59.3 155.2l10-10 1 1.2-9.9 10z"/><path fill="#9b9888" fill-opacity=".5" d="M285 63.3l-4 6.7-27-16.1 4-6.7z"/><path fill="#404945" fill-opacity=".5" d="M391.5-11.6l7.2 22.3-7.4 2.4-7.2-22.3z"/><path fill="#4a4435" fill-opacity=".5" d="M341.6 60l8.6-3.6 34.8 82-8.6 3.6z"/><path fill="#a7a99f" fill-opacity=".5" d="M124.6 100.7l1.4.5-2.1 6-1.5-.6z"/><path fill="#fffff3" fill-opacity=".5" d="M318.4 127.1l-2.6-5.7 14.3-6.3 2.5 5.7z"/><path fill="#59584b" fill-opacity=".5" d="M132.6 62L89 56.7l1.8-14 43.4 5.3z"/><path fill="#4c504a" fill-opacity=".5" d="M58 100.1l-25.5 27.5-4.6-4.3 25.6-27.4z"/><path fill="#282921" fill-opacity=".5" d="M361.7-26.6l1.2 1-51.1 63.1-1.3-1z"/><path fill="#111311" fill-opacity=".5" d="M106 100l.5-4.7h1.5l-.4 4.8z"/><path fill="#222f2f" fill-opacity=".5" d="M225.8 183.2l25.7-14.9 5.5 9.5-25.7 14.8z"/><path fill="#60665e" fill-opacity=".5" d="M92.9 62.5l1.6 4.4L68 76.5l-1.6-4.4z"/><path fill="#4f5042" fill-opacity=".5" d="M129.7 171.3l-7.7-39.9 6.1-1.2 7.7 40z"/><path fill="#3e4540" fill-opacity=".5" d="M24.3 27l12.1-12 22.1 22-12.1 12.2z"/><path fill="#5a5d56" fill-opacity=".5" d="M365.7 174.5l1.6-.2 6 49.6-1.5.2z"/><path fill="#9da7a7" fill-opacity=".5" d="M377.3 8.7l.6 1.4-9.9 4.6-.6-1.4z"/><path fill="#cfdad6" fill-opacity=".5" d="M353.8 7.2l-8.5 4.2-.6-1.5 8.4-4z"/><path fill="#6d7062" fill-opacity=".5" d="M159.4 82H158l-3.3-46.7 1.6-.1z"/><path fill="#6a675c" fill-opacity=".5" d="M295.7 179.3L293 185l-34-16 2.7-5.6z"/><path fill="#98886e" fill-opacity=".5" d="M297.4 145.7l7.3-17.3 5.7 2.5-7.3 17.2z"/><path fill="#575d52" fill-opacity=".5" d="M0 89.6l27.3 6.8-.8 3-27.2-6.8z"/><path fill="#242d24" fill-opacity=".5" d="M92.1 143.6L49 90.2l1.2-1 43.2 53.4z"/><path fill="#e9eee3" fill-opacity=".5" d="M345 76.3l3.1.6-1 4.6-3-.6z"/><path fill="#989281" fill-opacity=".5" d="M253 152l-1.2-17.2 12.4-.8 1.2 17.1z"/><path fill="#6a776b" fill-opacity=".5" d="M22 26.4l-43-7.6.5-3 43.1 7.6z"/><path fill="#daddd7" fill-opacity=".5" d="M115.9 66.2l10.7 2-.3 1.6-10.7-2.1z"/><path fill="#403929" fill-opacity=".5" d="M374.2 39.8v40.7h-9.4V39.8z"/><path fill="#232119" fill-opacity=".5" d="M129.4 37.8l5.8 7.4-3.7 3-5.8-7.5z"/><path fill="#b7bab7" fill-opacity=".5" d="M116 128.4l-1.1-1.2 8.2-7.2 1 1.2z"/><path fill="#7e786d" fill-opacity=".5" d="M345.4 34.8l9.3.8-1.6 18.7-9.4-.8z"/><path fill="#435960" fill-opacity=".5" d="M224.6 135l12.8-5.9 14.5 31.2-12.7 5.9z"/><path fill="#232d2a" fill-opacity=".5" d="M337.1-3l10.2-4 4.6 11.5-10.1 4.1z"/><path fill="#f7f8f1" fill-opacity=".5" d="M137.1 174l.9-3 1.5.4-.9 3z"/><path fill="#5e5b4f" fill-opacity=".5" d="M285.7 134.1l-.6 1.5-25.5-12 .6-1.3z"/><path fill="#272d2a" fill-opacity=".5" d="M63.6 15.7l1.3-4.5L75.4 14l-1.2 4.5z"/><path fill="#363d34" fill-opacity=".5" d="M253.2 128.2l-16.6 4.4-.8-3 16.6-4.4z"/><path fill="#171c18" fill-opacity=".5" d="M406 117.5l-9 39.5-4.6-1 9.1-39.6z"/><path fill="#30302b" fill-opacity=".5" d="M129.9 189l-1.3-1 8.7-12.9 1.3.9z"/><path fill="#1c241e" fill-opacity=".5" d="M36 53.1l36.2 24.5-3.5 5.2-36.2-24.5z"/><path fill="#7b7464" fill-opacity=".5" d="M247.8 41.6l45.9-9.7.6 3-45.8 9.8z"/><path fill="#c9d0d0" fill-opacity=".5" d="M337.5 69.8l-10.8 1-.2-1.6 11-1z"/><path fill="#2c2a22" fill-opacity=".5" d="M303 19.8l7.4 2.5-8.7 25.1-7.4-2.5z"/><path fill="#1b2426" fill-opacity=".5" d="M156.9 84L169 67.8l3.7 2.8L160.6 87z"/><path fill="#bbb8aa" fill-opacity=".5" d="M277 128.9l-4.2 10-1.4-.6 4.2-10z"/><path fill="#676c5c" fill-opacity=".5" d="M141.4 161.1l-31.1 2.8-.2-1.6 31.2-2.7z"/><path fill="#666661" fill-opacity=".5" d="M109.4 29.2l-.8-1.4 14.9-8.6.7 1.4z"/><path fill="#1f2421" fill-opacity=".5" d="M111 64.1l.8-1.2 3.8 2.6-.8 1.3z"/><path fill="#262c29" fill-opacity=".5" d="M168.7 6l-20 3.6-.2-1.6 20-3.5z"/><path fill="#d1dcd7" fill-opacity=".5" d="M348.5 20.6l-1.6-7.7 3-.6 1.7 7.6z"/><path fill="#a9aba6" fill-opacity=".5" d="M103.4 117.4l-2.1 17.1-3.1-.4 2-17z"/><path fill="#44555b" fill-opacity=".5" d="M167.6 109.8L156 91.3l9.2-5.8 11.6 18.5z"/><path fill="#1d231c" fill-opacity=".5" d="M44.3 119.2l2-6L76 123l-2 5.9z"/><path fill="#28351c" fill-opacity=".5" d="M146 119l-9.2 2-6.2-29 9.2-2z"/><path fill="#f8f6ea" fill-opacity=".5" d="M134.5 79.7l-.3-7.8h1.6l.3 7.8z"/><path fill="#46585a" fill-opacity=".5" d="M177.4 8l57.3 8-7.4 52.6-57.3-8z"/><path fill="#161d19" fill-opacity=".5" d="M155.4 204.4l-14-6.8 4.8-9.8 14 6.8z"/><path fill="#43433d" fill-opacity=".5" d="M284.7 182l-9.9-21.2 1.4-.7 10 21.3z"/><path fill="#a4a297" fill-opacity=".5" d="M288.7 133.3l-17.6-6.4 4.3-11.8 17.6 6.5z"/><path fill="#3a4039" fill-opacity=".5" d="M89.1 86.5l-27.6 27.6-2.2-2.2 27.6-27.6z"/><path fill="#7e918d" fill-opacity=".5" d="M300.4 91.2l21 13.6-7.7 11.8-21-13.6z"/><path fill="#dce3d4" fill-opacity=".5" d="M145.7 34.4l-1.5.6-4-8.4 1.5-.7z"/><path fill="#8e836b" fill-opacity=".5" d="M285.3 124.5l46.7 4.1-.1 1.6-46.7-4.1z"/><path fill="#262821" fill-opacity=".5" d="M355.3-13.4L369.7 49l-1.5.4-14.4-62.5z"/><path fill="#1d1f1c" fill-opacity=".5" d="M122.4 37.7l-2.7 3.9-21.8-15.3 2.7-3.8z"/><path fill="#6d7363" fill-opacity=".5" d="M77.5 104.2l-.3 6.2-9.4-.5.3-6.2z"/><path fill="#171b1a" fill-opacity=".5" d="M110.6 194.4l-9.3-1.5 2.2-13.9 9.3 1.5z"/><path fill="#a6af9f" fill-opacity=".5" d="M65.1 7l15.4-17.6 6 5.1L71 12.2z"/><path fill="#222d29" fill-opacity=".5" d="M349.5 10.2L348 10l1-18.7h1.6z"/><path fill="#626a61" fill-opacity=".5" d="M53 85.3l.4-4.7 14 1.3-.4 4.6z"/><path fill="#79827b" fill-opacity=".5" d="M344.6 3.2L350 .1l.8 1.4-5.5 3z"/><path fill="#1e261c" fill-opacity=".5" d="M5.2 121l5.2-59.2 1.6.1L6.8 121z"/><path fill="#1b251e" fill-opacity=".5" d="M129.2 124.6l2.8 5.6-25.3 12.4-2.7-5.7z"/><path fill="#aaab9e" fill-opacity=".5" d="M147.6 22.7l-.8-1.4 13.4-8 .8 1.3z"/><path fill="#878985" fill-opacity=".5" d="M76 69l13.6 7.8-1.6 2.7-13.5-7.8z"/><path fill="#d0cfc5" fill-opacity=".5" d="M296 134.6l-2 4.3-7.1-3.2 1.9-4.3z"/><path fill="#828379" fill-opacity=".5" d="M123.9 96.1l-6-1.7.4-1.5 6 1.7z"/><path fill="#5e5435" fill-opacity=".5" d="M357 133.6v21.9h-21.8v-22z"/><path fill="#727166" fill-opacity=".5" d="M97 57.3l-1.4-6.1 15.1-3.8 1.5 6z"/><path fill="#a3aca9" fill-opacity=".5" d="M311.8 24.8l.8-1.3 5.3 3.2-.8 1.4z"/><path fill="#929b9c" fill-opacity=".5" d="M235.6 15l1-1 16.9 16.2-1 1.2z"/><path fill="#8d8775" fill-opacity=".5" d="M250.5 55l21.7 12.5-2.4 4-21.6-12.4z"/><path fill="#969689" fill-opacity=".5" d="M296.7 197.3l-21.5-4.1 1.5-7.7 21.5 4.2z"/><path fill="#76766a" fill-opacity=".5" d="M112.5 82.5l39 .7v1.5l-39-.7z"/><path fill="#756c5b" fill-opacity=".5" d="M274 195.6l31.1-2.1.7 9.3-31.2 2.2z"/><path fill="#8f8e82" fill-opacity=".5" d="M280.2 98.9l-14.4-6.1 2.4-5.8 14.4 6.1z"/><path fill="#3e3121" fill-opacity=".5" d="M159.6 48.3l-10.3 9.6-4.2-4.6 10.3-9.6z"/><path fill="#687168" fill-opacity=".5" d="M58.3 143.4l25.1-8.6.5 1.5-25.1 8.6z"/><path fill="#74827d" fill-opacity=".5" d="M16.5 8.2L15 5.5l20-12L36.6-4z"/><path fill="#1d1e16" fill-opacity=".5" d="M315.9 204.4l-4.5 1.5-3.8-11.9 4.4-1.4z"/><path fill="#0f1c12" fill-opacity=".5" d="M52.5 139.6l-5.3 7.7-1.3-1 5.4-7.6z"/><path fill="#bdc3bf" fill-opacity=".5" d="M57.3 161l-5.9-2.2 2.3-5.8 5.8 2.2z"/><path fill="#a9aba4" fill-opacity=".5" d="M338.9 24.2l-10 4.6-.6-1.4 10-4.6z"/><path fill="#242a26" fill-opacity=".5" d="M38.4-16.4L62-4.4 50.7 18 27 6z"/><path fill="#5c4c35" fill-opacity=".5" d="M317.3 151.4L296.4 162l-2.8-5.6 20.9-10.6z"/><path fill="#c5cbc4" fill-opacity=".5" d="M97.5 149.7l-1.4 2.8-1.4-.7 1.4-2.8z"/><path fill="#282f26" fill-opacity=".5" d="M81.6 111l14.5-9.5 5 8-14.3 9.3z"/><path fill="#daddda" fill-opacity=".5" d="M126 118.6l1.4.6-1.8 4.4-1.5-.7z"/><path fill="#544a41" fill-opacity=".5" d="M268.2 132.4l4.6 1.1-2 7.6-4.5-1.2z"/><path fill="#d4d8d2" fill-opacity=".5" d="M124 36.6l.9-1.4 2.6 1.7-.8 1.3z"/><path fill="#9b9b8f" fill-opacity=".5" d="M249 108l.2 1.6-15.4 2.7-.2-1.6z"/><path fill="#524b39" fill-opacity=".5" d="M146.8 159.8l-4.6 32.4-3-.4 4.5-32.5z"/><path fill="#3c3d34" fill-opacity=".5" d="M288.3 28.1v-1.5h56.2V28z"/><path fill="#58503b" fill-opacity=".5" d="M363.7 62.6l-3 .6-7.2-33.6 3-.6z"/><path fill="#5b5c54" fill-opacity=".5" d="M420.6 86.2l-34.3 32-8.5-9.1 34.3-32z"/><path fill="#55574d" fill-opacity=".5" d="M265.2 155.9l1.4.7-30.3 54.7-1.4-.8z"/><path fill="#49473e" fill-opacity=".5" d="M272.6 0l13.7 3.2-1 4.6-13.8-3.2z"/><path fill="#60655d" fill-opacity=".5" d="M244.2 41.2l14.1.5-1 28-14-.4z"/><path fill="#b5b8b2" fill-opacity=".5" d="M98.6 156.2h-1.5l-.4-7.7 1.5-.1z"/><path fill="#181f1d" fill-opacity=".5" d="M407.7 84.4L376 6.2l11.5-4.7 31.7 78.2z"/><path fill="#242720" fill-opacity=".5" d="M141.2 9.6l.2 1.6-18.5 2.6-.3-1.6z"/><path fill="#2e2c1a" fill-opacity=".5" d="M136.7 59.2l10.6 13.5-1.2 1L135.5 60z"/><path fill="#3b3e36" fill-opacity=".5" d="M100.5 117l35.8 22.4-.9 1.3-35.7-22.3z"/><path fill="#71726b" fill-opacity=".5" d="M248.9 110.6l-15.7-23.3 3.8-2.6 15.8 23.3z"/><path fill="#656c64" fill-opacity=".5" d="M77.7 183.9l-.9-1.3 22-14.9 1 1.3z"/><path fill="#666c5f" fill-opacity=".5" d="M49.8 52.8l-20.1-2.5.2-1.5L50 51.2z"/><path fill="#303935" fill-opacity=".5" d="M231.5 33.1l.6-1.4 13 5.5-.7 1.4z"/><path fill="#3f5052" fill-opacity=".5" d="M189.6 148.4l-21.9 45-18.3-9 22-45z"/><path fill="#878a81" fill-opacity=".5" d="M128.6 25l-1.5-.2 2-10.8 1.6.3z"/><path fill="#28281b" fill-opacity=".5" d="M299 21.3l-10-12 1.1-1 10 12z"/><path fill="#292e26" fill-opacity=".5" d="M110.5-3.9l.7 1.4-17 8-.7-1.5z"/><path fill="#323834" fill-opacity=".5" d="M14.6 145.7l24.6-19.2 1 1.2L15.4 147z"/><path fill="#262825" fill-opacity=".5" d="M335.9 68.4l8.7-3.5 2.3 5.8-8.7 3.5z"/><path fill="#293229" fill-opacity=".5" d="M240.6 97.6l-1.6 7.7-6.2-1.3 1.7-7.7z"/><path fill="#3f443e" fill-opacity=".5" d="M108.8 134.6l10.8-15.4 1.3 1-10.8 15.3z"/><path fill="#232722" fill-opacity=".5" d="M375.9 200.4l-10.2-15.7 13-8.5 10.3 15.7z"/><path fill="#7d7d73" fill-opacity=".5" d="M145.7 5l1.5.6-7 19-1.4-.5z"/><path fill="#9e9f90" fill-opacity=".5" d="M255.7 115l5.3 13-5.8 2.3-5.3-13z"/><path fill="#d9dcd8" fill-opacity=".5" d="M104 89.8v-9.3h9.3v9.3z"/><path fill="#50584f" fill-opacity=".5" d="M72.8 144.5l-56.1 14-.4-1.5 56-14z"/><path fill="#cac3c0" fill-opacity=".5" d="M129.9 49.6l1.1-1 3.2 3.4-1.1 1z"/><path fill="#61574c" fill-opacity=".5" d="M294.4 64.2l-.9 1.3-14.4-9.4.8-1.3z"/><path fill="#9b9d97" fill-opacity=".5" d="M252.4-2.4l13-5L271.2 7l-13.1 5z"/><path fill="#5a5639" fill-opacity=".5" d="M156 78l-5.8 37-4.7-.8 5.9-37z"/><path fill="#b6bbb4" fill-opacity=".5" d="M336.8 7l7.2 8.3-1.2 1-7.1-8.2z"/><path fill="#736d62" fill-opacity=".5" d="M134.8 142.4l-15.2-3.6.3-1.5 15.2 3.5z"/><path fill="#645d4b" fill-opacity=".5" d="M280 96.5l-10 27.9-1.5-.6L278.6 96z"/><path fill="#282e25" fill-opacity=".5" d="M73.7 42.1l1.2-1L106 78.2l-1.2 1z"/><path fill="#545652" fill-opacity=".5" d="M110.7 92.3l-5-3.7.8-1.2 5 3.6z"/><path fill="#262814" fill-opacity=".5" d="M149.7 111.3l2.4-10.7 9.2 2.2-2.5 10.6z"/><path fill="#1b231f" fill-opacity=".5" d="M320.6 73.5L290 67l.3-1.5L321 72z"/><path fill="#292d1d" fill-opacity=".5" d="M282.7 110.2H278l.2-12.6 4.7.1z"/><path fill="#1a1e18" fill-opacity=".5" d="M315 31.4l-4.4 1.8-5.3-13 4.4-1.8z"/><path fill="#534e39" fill-opacity=".5" d="M372 107.3l-13 21.5-10.6-6.5 12.8-21.4z"/><path fill="#93968b" fill-opacity=".5" d="M342.6 38.3l-7.2 22.3-1.5-.5 7.3-22.3z"/><path fill="#282d28" fill-opacity=".5" d="M100.9 164.9l-4.4 1.7L82 130.4l4.4-1.7z"/><path fill="#7c7f72" fill-opacity=".5" d="M289.8 4h12.5v3h-12.5z"/><path fill="#89918e" fill-opacity=".5" d="M369.9-10.1l1.3.8-14.5 24.1-1.3-.8z"/><path fill="#383e35" fill-opacity=".5" d="M108.5 66.4l13.2 4.8-.5 1.5-13.2-4.8z"/><path fill="#b9b6b2" fill-opacity=".5" d="M138.3 49.3l1-1.1 8.3 7.1-1 1.2z"/><path fill="#ced0c7" fill-opacity=".5" d="M123.5 79.8l1.3-.8 3.3 5.3-1.4.8z"/><path fill="#444943" fill-opacity=".5" d="M139.5 54.1l43.2-51.4 1.2 1L140.7 55z"/><path fill="#6a7572" fill-opacity=".5" d="M371 18.3l10.1 4.1-.5 1.5-10.2-4.1z"/><path fill="#17211f" fill-opacity=".5" d="M374.6 11.9l4.7-.3.8 15.6-4.7.3z"/><path fill="#b2b5ae" fill-opacity=".5" d="M116.4 106.8l-14.3 6.4-1.3-2.9 14.3-6.3z"/><path fill="#676960" fill-opacity=".5" d="M120.7 69.2l20.6 21.4-1 1-20.7-21.3z"/><path fill="#303831" fill-opacity=".5" d="M69.7 141.6l-.2-1.6 18.6-2 .2 1.6z"/><path fill="#7e857f" fill-opacity=".5" d="M36.9 160.4l-1.3 1L21 141l1.3-.9z"/><path fill="#f4fdfa" fill-opacity=".5" d="M353.9 14.5l-1.2-1 4.4-4.6 1.1 1.1z"/><path fill="#615c53" fill-opacity=".5" d="M127.5 120.9l18.6 2-.1 1.5-18.7-2z"/><path fill="#7b837c" fill-opacity=".5" d="M32.6 149l-1.3 9.3-18.6-2.6 1.3-9.3z"/><path fill="#a8a69e" fill-opacity=".5" d="M271.8 33.3l9.6-28 1.5.5-9.7 28z"/><path fill="#1e221f" fill-opacity=".5" d="M80.6 46.2l5.2-3.4L96 58.5l-5.2 3.4z"/><path fill="#5c5e55" fill-opacity=".5" d="M109.6 107.2l17.7 6-1 3-17.7-6z"/><path fill="#1c201b" fill-opacity=".5" d="M380 104.3l-9.3-1 4-37.3 9.3 1z"/><path fill="#252d2a" fill-opacity=".5" d="M363.7-1l-9 10.8-1.2-1 9-10.8z"/><path fill="#505140" fill-opacity=".5" d="M255.6 186.2l7.6-1.9 1.5 6-7.6 2z"/><path fill="#31322a" fill-opacity=".5" d="M344.6 27.7l-1.6-9.3 4.6-.8 1.6 9.3z"/><path fill="#a09987" fill-opacity=".5" d="M310.1 144l-.4 1.5-40.2-13 .5-1.5z"/><path fill="#1d211c" fill-opacity=".5" d="M356.1 25.6l2.8-7.3 36.5 14-2.8 7.3z"/><path fill="#6a6c65" fill-opacity=".5" d="M295.8 188.8l-1.5.2-4.2-26.2 1.6-.3z"/><path fill="#1a1d18" fill-opacity=".5" d="M30.5 48.4H21V37.5h9.4z"/><path fill="#20251d" fill-opacity=".5" d="M338.5 1.7l1.5-.2 1.2 10.9-1.6.2z"/><path fill="#6c624f" fill-opacity=".5" d="M143.5 24.5l1-1.1 13.6 13-1.1 1.1z"/><path fill="#171d19" fill-opacity=".5" d="M364.5 4.3l-.9 1.3-7.8-5.2 1-1.3z"/><path fill="#6f654c" fill-opacity=".5" d="M357.6 102.4l-3-.2 1.8-21.8 3.1.2z"/><path fill="#696a62" fill-opacity=".5" d="M382.9 153.8l-7.8.2-.2-6.3 7.9-.1z"/><path fill="#525949" fill-opacity=".5" d="M120 47.6l9.9 21.3-1.4.6-10-21.2z"/><path fill="#dedad4" fill-opacity=".5" d="M306 121.4l6 1-.7 4.7-6.2-1.1z"/><path fill="#756445" fill-opacity=".5" d="M340.7 165.1l-20 3.6-6.7-38.5 20-3.5z"/><path fill="#383f3a" fill-opacity=".5" d="M343 29l-1.5-.6 20.3-55.8 1.4.6z"/><path fill="#fffff9" fill-opacity=".5" d="M350.7 20.1l-1.6 2.7-1.3-.7 1.5-2.8z"/><path fill="#574d3a" fill-opacity=".5" d="M276.7 39.7l.7 1.3-15 8.4-.8-1.4z"/><path fill="#e3e6df" fill-opacity=".5" d="M121.6 72.5l1.1 1.1-2.1 2.3-1.1-1z"/><path fill="#646b63" fill-opacity=".5" d="M50.9 98.4l12.8 9-3.6 5.1-12.8-9z"/><path fill="#817c6b" fill-opacity=".5" d="M274 63.8l-16.5-28.4 1.4-.8L275.3 63z"/><path fill="#a0acaa" fill-opacity=".5" d="M285.1.1l.7-1.4 5.6 2.7-.7 1.5z"/><path fill="#b1ac99" fill-opacity=".5" d="M314 131l-39 .6V130l39-.7z"/><path fill="#2d302b" fill-opacity=".5" d="M117.8 98.6l3.9-2.6 2.7 3.8-3.9 2.7z"/><path fill="#eff3ea" fill-opacity=".5" d="M141.9 48.5l-1.6-.2.7-4.6 1.5.2z"/><path fill="#71776d" fill-opacity=".5" d="M84.4 165.8L81 171l-1.3-.8 3.4-5.3z"/><path fill="#73776d" fill-opacity=".5" d="M149.8-11.3L86.9 23.6l-.7-1.4L149-12.6z"/><path fill="#222f33" fill-opacity=".5" d="M158 63l7.2-3.3 3.3 7-7.1 3.3z"/><path fill="#797a71" fill-opacity=".5" d="M114.8 29l-1.4-40.7h1.5l1.4 40.6z"/><path fill="#8c9990" fill-opacity=".5" d="M356.2 98L314 95.8v-1.6l42.2 2.2z"/><path fill="#a2a59a" fill-opacity=".5" d="M133.8 84.3l1.4.6-1.8 4.3-1.4-.6z"/><path fill="#706046" fill-opacity=".5" d="M296.9 131.4l1-1.1 35 33.6-1.2 1.1z"/><path fill="#292a26" fill-opacity=".5" d="M134.6 174.5l-1.1-1 5.3-5.8 1.2 1z"/><path fill="#909f99" fill-opacity=".5" d="M327.6 86.4l-1.6-7.6 19.8-4.3 1.7 7.7z"/><path fill="#625e54" fill-opacity=".5" d="M317.6 60l11.7-43.8 1.5.4-11.7 43.8z"/><path fill="#838376" fill-opacity=".5" d="M155.7 72.7l-2-18.7 1.6-.1 2 18.6z"/><path fill="#676155" fill-opacity=".5" d="M280 130.7l-3.8 24.7-1.6-.2 4-24.7z"/><path fill="#1b201c" fill-opacity=".5" d="M348.2 159.3l32.6-2.9.7 7.8-32.7 2.8z"/><path fill="#cfd2cd" fill-opacity=".5" d="M100.4 103.4l-1.3-.8 17.7-29.5 1.3.9z"/><path fill="#474332" fill-opacity=".5" d="M258.7 197.7l-.9 1.3-11.8-7.6.9-1.4z"/><path fill="#cbb594" fill-opacity=".5" d="M289.7 148.5l-1.2-7.7 1.5-.2 1.2 7.7z"/><path fill="#525b53" fill-opacity=".5" d="M61.4 48.6l1.9-2.5 5 3.8-1.9 2.4z"/><path fill="#a9a599" fill-opacity=".5" d="M256.5 161.5l-1.2-.9 17.9-23.7 1.2 1z"/><path fill="#1f241e" fill-opacity=".5" d="M369.4 147.2l-.9-6.2 38.7-5.4.9 6.2z"/><path fill="#7b7e7e" fill-opacity=".5" d="M102.2 188.6l-7.9 9.7-1.2-1 7.9-9.7z"/><path fill="#767e77" fill-opacity=".5" d="M64.5 131l13.6 3.7-.4 1.5-13.6-3.7z"/><path fill="#353e37" fill-opacity=".5" d="M-4 30.4l14.8-8.8 7.2 12-14.7 8.9z"/><path fill="#697c78" fill-opacity=".5" d="M293 101.6h12.5v10.9H293z"/><path fill="#1d2620" fill-opacity=".5" d="M-19.2 90.7L-23 72.4l68.8-14.7 4 18.4z"/><path fill="#4c4d48" fill-opacity=".5" d="M95 101.7l-2.3-4.2 1.4-.7 2.2 4.1z"/><path fill="#5a5d53" fill-opacity=".5" d="M88.3 80.7l20.6-29.5 1.3 1-20.6 29.4z"/><path fill="#43342b" fill-opacity=".5" d="M299.8 42.5l15.8 25.1-1.4.9-15.7-25.2z"/><path fill="#706e5c" fill-opacity=".5" d="M232.2 111.4l3.9-4.9 14.6 11.8-4 4.9z"/><path fill="#b0b6b3" fill-opacity=".5" d="M127.3 184.1l1.7-7.6 1.5.3-1.6 7.7z"/><path fill="#808787" fill-opacity=".5" d="M81.7 193l-1 1.1-4.6-4.3 1-1.1z"/><path fill="#39382b" fill-opacity=".5" d="M161 128.8l-1 4.5-32-7.4 1-4.5z"/><path fill="#373e33" fill-opacity=".5" d="M27.4 75.2l6.7 6.5-13 13.5-6.8-6.6z"/><path fill="#262214" fill-opacity=".5" d="M270.9 148.3l.4-4.7 3.1.3-.4 4.7z"/><path fill="#504c3e" fill-opacity=".5" d="M350 61l-12-10 1-1.2 12 10z"/><path fill="#304140" fill-opacity=".5" d="M235.5 112.7l1.6-.1 7 101.3h-1.5z"/><path fill="#535e62" fill-opacity=".5" d="M188 72.2l37-5.9 13.5 85-37 5.8z"/><path fill="#727a56" fill-opacity=".5" d="M80.2 26.7l1.1 1.1-6.9 6.4-1-1.1z"/><path fill="#c3cdc8" fill-opacity=".5" d="M349.2 16.4v3.1H343v-3z"/><path fill="#3f4139" fill-opacity=".5" d="M94.7 126.3l7.3 13.8-1.4.8-7.3-13.8z"/><path fill="#c4c8b7" fill-opacity=".5" d="M250 187.5l1-1.2 3.7 2.7-1 1.3z"/><path fill="#b1b2a7" fill-opacity=".5" d="M281.2 66.4l-3 .9-4.7-16.5 3-.9z"/><path fill="#999486" fill-opacity=".5" d="M149.4 153.2l.6 1.5-7.2 3-.6-1.4z"/><path fill="#395157" fill-opacity=".5" d="M180.2 26.2L164.5 8.8 180.8-6l15.6 17.4z"/><path fill="#313a26" fill-opacity=".5" d="M51.2 184.8l-40.7 34.1-7-8.4 40.7-34.1z"/><path fill="#35432c" fill-opacity=".5" d="M121 163.3l7 19-16.2 6-7-19.1z"/><path fill="#1d261b" fill-opacity=".5" d="M70.8 163l8.7-12.9 1.3.9-8.7 13z"/><path fill="#b5b4a1" fill-opacity=".5" d="M267.6 40l-1.4-.6 2.1-5.9 1.5.5z"/><path fill="#2d3529" fill-opacity=".5" d="M85 187.7l-1 1.3-26.7-19 .9-1.2z"/><path fill="#3b413a" fill-opacity=".5" d="M21.5 154.8l3.4 13.6-13.6 3.4-3.4-13.6z"/><path fill="#2a332c" fill-opacity=".5" d="M83.7 70.6l4.7-6.2 1.3 1-4.7 6.2z"/><path fill="#ced1cd" fill-opacity=".5" d="M94.8 79.2l8 15.2-5.4 3-8.1-15.2z"/><path fill="#aba187" fill-opacity=".5" d="M287 147.5l-6.5 6.7-3.4-3.2 6.5-6.8z"/><path fill="#222521" fill-opacity=".5" d="M46.8 104.1l.4 1.5-42.5 10.6-.3-1.5z"/><path fill="#22261e" fill-opacity=".5" d="M65 80.8l10.6-6.5 1.7 2.7-10.8 6.5z"/><path fill="#2f2d2a" fill-opacity=".5" d="M102 155.8l9.4-.6.6 9.3-9.3.7z"/><path fill="#797d7c" fill-opacity=".5" d="M249.4 159l-6.2-1 2.7-15.5 6.2 1.1z"/><path fill="#202620" fill-opacity=".5" d="M60 56l-8.8-3.4 12.3-32 8.8 3.3z"/><path fill="#a8b198" fill-opacity=".5" d="M127.2 113.5l-.7-1.3 4-2.3.8 1.4z"/><path fill="#4a4b46" fill-opacity=".5" d="M374.5 179l-10.2 4-2.8-7.3 10.2-4z"/><path fill="#a8a698" fill-opacity=".5" d="M270.7 85.7l.7 7.8-6.2.5-.7-7.8z"/><path fill="#a4aba7" fill-opacity=".5" d="M352.3 4.5l2-2.3 1.2 1-2 2.4z"/><path fill="#1c211b" fill-opacity=".5" d="M94 143.2l-10 31.2-1.5-.4 10.1-31.3z"/><path fill="#686557" fill-opacity=".5" d="M257.8 122.4l.1-1.6 20.3 2.1-.2 1.6z"/><path fill="#a7a8a6" fill-opacity=".5" d="M114.8 125.9l.2-1.5 9.3 1.3-.2 1.5z"/><path fill="#263223" fill-opacity=".5" d="M122.3 162.8l7.7 1.3-3.8 21.6-7.7-1.4z"/><path fill="#333730" fill-opacity=".5" d="M333.4 23.6l-10.1-7.4 7.3-10 10.2 7.3z"/><path fill="#4d5552" fill-opacity=".5" d="M238.2 87.2l-3.4-5.2 22.3-14.5 3.4 5.2z"/><path fill="#798277" fill-opacity=".5" d="M83.6 60.3l1.5.4-4.6 15-1.5-.5z"/><path fill="#a4a697" fill-opacity=".5" d="M263.4 183.3l-6 2-.5-1.4 6-2z"/><path fill="#636c63" fill-opacity=".5" d="M37.4 133l1.2-1 6.9 8.5-1.3 1z"/><path fill="#0d1512" fill-opacity=".5" d="M365 3.2l17.1-7.7 1.3 2.9L366.3 6z"/><path fill="#898778" fill-opacity=".5" d="M272 179.7l2.8 7.3-1.5.5-2.8-7.3z"/><path fill="#e2e7e0" fill-opacity=".5" d="M353.2 27.6l-1.6-6 3-.8 1.6 6z"/><path fill="#aeafaa" fill-opacity=".5" d="M105.4 155.7l-1.4-.8 1.5-2.7 1.4.7z"/><path fill="#202b29" fill-opacity=".5" d="M245.7 43l1 1.2-9.6 8-1-1.1z"/><path fill="#9fa196" fill-opacity=".5" d="M139 9.7l-1.3-4.5 3-.9 1.3 4.5z"/><path fill="#859794" fill-opacity=".5" d="M306.8 99l36.6 8.4-1.8 7.7-36.5-8.5z"/><path fill="#656963" fill-opacity=".5" d="M119.9 1.8l1.5-.2 4 32.6-1.5.1z"/><path fill="#b1b7b1" fill-opacity=".5" d="M375.5 20l-1.2 2.8-1.4-.6 1.2-2.8z"/><path fill="#29261f" fill-opacity=".5" d="M273.8 179.6l2.2 4.1-1.3.8-2.3-4.1z"/><path fill="#5b6054" fill-opacity=".5" d="M7.7 106.4l23-4.9.6 3-23 5z"/><path fill="#303124" fill-opacity=".5" d="M152.7 93l1.3 4.6-27 7.7-1.3-4.5z"/><path fill="#21211d" fill-opacity=".5" d="M278.7 90l3.6-13.6 3 .8-3.6 13.6z"/><path fill="#535040" fill-opacity=".5" d="M266.1 104.6l23 9.7-.6 1.5-23-9.8z"/><path fill="#4a4a43" fill-opacity=".5" d="M377.4 155l23.5-40.5 1.3.7-23.4 40.6z"/><path fill="#dad7d0" fill-opacity=".5" d="M123.4 46.1l-2.4-2 1-1.2 2.4 2z"/><path fill="#555a52" fill-opacity=".5" d="M109 216.7l3.8-35.8 7.8.9-3.7 35.7z"/><path fill="#a0a7a0" fill-opacity=".5" d="M328.2 25.4l-1.6-4.4 3-1 1.6 4.3z"/><path fill="#a1a49f" fill-opacity=".5" d="M263 31l-8 4.8-7.1-12.2 8.1-4.7z"/><path fill="#3b5155" fill-opacity=".5" d="M214.8-14.2l34.2 3.6-2.8 26.4-34.2-3.6z"/><path fill="#878a7d" fill-opacity=".5" d="M75.8 104.7V103h9.4v1.6z"/><path fill="#4d554c" fill-opacity=".5" d="M14.6 29.1L42-12.8l1.3.9L15.9 30z"/><path fill="#6d6e64" fill-opacity=".5" d="M352.8 28.2l-2.4-7.5 1.5-.4 2.4 7.4z"/><path fill="#212b2a" fill-opacity=".5" d="M252.1 165.6l3.2 13.7-15.2 3.5-3.2-13.7z"/><path fill="#97988e" fill-opacity=".5" d="M259.6 166.5l-10.6-19 5.5-3.1 10.6 19.1z"/><path fill="#cdd0ca" fill-opacity=".5" d="M116.3 75.5l-4.1-4.7 1.2-1 4 4.7z"/><path fill="#849893" fill-opacity=".5" d="M299 86.2L285 84l2-12.4 13.9 2.2z"/><path fill="#202a27" fill-opacity=".5" d="M378.7 13.4l-11.9 12.4-3.4-3.3 12-12.3z"/><path fill="#b2b1a9" fill-opacity=".5" d="M288.4 155.6l1.5.5L285 171l-1.4-.5z"/><path fill="#6e706b" fill-opacity=".5" d="M135.2 188L108 211.6l-1-1.2 27.1-23.6z"/><path fill="#afb2ac" fill-opacity=".5" d="M239 109.9l14-1 .2 1.5-14 1z"/><path fill="#5f5f5b" fill-opacity=".5" d="M270.8 57l2.4-4 1.4.9-2.5 4z"/><path fill="#5f6456" fill-opacity=".5" d="M255.2 183.9l-.9 1.3-8-5 1-1.3z"/><path fill="#554e3e" fill-opacity=".5" d="M138.5 83.6l16.4 21-1.2.9-16.4-21z"/><path fill="#899286" fill-opacity=".5" d="M68.4 144l-1.4.6-2.6-5.7 1.4-.7z"/><path fill="#a1a59d" fill-opacity=".5" d="M261.9 28.8l.9 1.3-16.9 11.4-.9-1.3z"/><path fill="#636962" fill-opacity=".5" d="M363.9 193.2l15.3 10.8-.9 1.2-15.3-10.7z"/><path fill="#34332a" fill-opacity=".5" d="M135 43.9l1.6-.2 1.8 20.3h-1.6z"/><path fill="#403d34" fill-opacity=".5" d="M96.9 145.3h54.7v1.6H96.9z"/><path fill="#9b9a90" fill-opacity=".5" d="M272.8 145.5l1.4-6.1 4.6 1-1.4 6.1z"/><path fill="#333835" fill-opacity=".5" d="M49 163.5l2.1-4.2 1.4.7-2 4.2z"/><path fill="#b2b3ad" fill-opacity=".5" d="M265.6 193.5l1.2 1-5.8 7.3-1.2-1z"/><path fill="#222013" fill-opacity=".5" d="M302.6 181l-5-9.7 1.4-.7 5 9.7z"/><path fill="#150f0a" fill-opacity=".5" d="M272.8 127.1l-.5 1.5-3-1 .6-1.5z"/><path fill="#b3b9b4" fill-opacity=".5" d="M316.4 93.8h-25v-11h25z"/><path fill="#414738" fill-opacity=".5" d="M89.4 63.6l4-32.6 6.2.8-4 32.5z"/><path fill="#1d2320" fill-opacity=".5" d="M26.4 137.9l-52.9-5.6 1.7-15.5 52.8 5.6z"/><path fill="#a49f94" fill-opacity=".5" d="M277.3 125l-.4 1.6-12-3.2.4-1.6z"/><path fill="#4c4f46" fill-opacity=".5" d="M132.6 100.8l-2.7-24.9 1.6-.1 2.6 24.8z"/><path fill="#929384" fill-opacity=".5" d="M260.2 77.3v34.4H257V77.3z"/><path fill="#656559" fill-opacity=".5" d="M251.5 145.7l-2.8-10.5 4.5-1.2 2.8 10.5z"/><path fill="#59564b" fill-opacity=".5" d="M277.6 128.7l.8-1.3 8 4.8-.8 1.4z"/><path fill="#c5c5b7" fill-opacity=".5" d="M131.9 68.3l2.4-2 1 1.3-2.5 2z"/><path fill="#91907e" fill-opacity=".5" d="M148.2 87.6l-1 1.2-12.6-9.2 1-1.2z"/><path fill="#7a796c" fill-opacity=".5" d="M143.8 146.4l3-10.5 1.6.5-3 10.5z"/><path fill="#afb5af" fill-opacity=".5" d="M94.2 192.4l.3 1.5-12.1 2.8-.4-1.5z"/><path fill="#5a5e5a" fill-opacity=".5" d="M63 63.7l-.6 1.4L51 59.8l.7-1.4z"/><path fill="#656961" fill-opacity=".5" d="M89.8 201.2l.1-4.7 21.9.8-.2 4.6z"/><path fill="#c1c9be" fill-opacity=".5" d="M87.4 72l.9-1.2 4 2.4-.9 1.4z"/><path fill="#caccc4" fill-opacity=".5" d="M336.6 22.4l3-1 .4 1.5-3 1z"/><path fill="#312d23" fill-opacity=".5" d="M355.7 60.5L350 75.1l-7.3-2.8 5.6-14.6z"/><path fill="#404742" fill-opacity=".5" d="M7.8 121.7l13.8-2.7.3 1.5L8 123.2z"/><path fill="#75786f" fill-opacity=".5" d="M104.8 8.2l-7.4 5.7L93.6 9l7.4-5.8z"/><path fill="#5a5139" fill-opacity=".5" d="M359 84.8l-15 32.6-1.4-.7 15.2-32.5z"/><path fill="#c1c4c0" fill-opacity=".5" d="M325.4 67.7l7.5 2.2-.5 1.5-7.5-2.2z"/><path fill="#585648" fill-opacity=".5" d="M291.1 216.2l-1.2 1-26.3-35 1.2-1z"/><path fill="#a5a89b" fill-opacity=".5" d="M263.3 101.8l-1.3-6 10.7-2.3 1.3 6z"/><path fill="#46575a" fill-opacity=".5" d="M234.6 187.8l-18.8 20.9-39.5-35.6 18.8-20.9z"/><path fill="#2a2e27" fill-opacity=".5" d="M17.2 108.4V107l35.9-1.3v1.6z"/><path fill="#575752" fill-opacity=".5" d="M305.8 158.5l-24.5 26.3-1.2-1.1 24.6-26.3z"/><path fill="#b9bcb8" fill-opacity=".5" d="M106.1 125.5l.2 3.1-7.7.6-.3-3.1z"/><path fill="#b8b6aa" fill-opacity=".5" d="M271.3 60.7l14-20.7 1.2.9-14 20.7z"/><path fill="#616963" fill-opacity=".5" d="M90 164.1l1.6-.4 10.5 42.5-1.5.4z"/><path fill="#64665f" fill-opacity=".5" d="M265.4 15.1l-2.7 15.4-1.5-.3 2.7-15.4z"/><path fill="#323531" fill-opacity=".5" d="M108.3 106.9l-3.8-5 1.3-1 3.7 5z"/><path fill="#2a322d" fill-opacity=".5" d="M6.8 135.3l15.2 8-2.2 4.2-15.2-8z"/><path fill="#2f3128" fill-opacity=".5" d="M128.9 55.5l12.4-1.6.2 1.6L129 57z"/><path fill="#594c30" fill-opacity=".5" d="M333.6 190.6l-11-5.8 11-20.7 11 5.8z"/><path fill="#5f5243" fill-opacity=".5" d="M332.6 43.1l.2 1.6L297 49l-.2-1.6z"/><path fill="#829290" fill-opacity=".5" d="M335.8 77.6l-23.3-2 .1-1.6 23.4 2z"/><path fill="#716347" fill-opacity=".5" d="M338.2 130l6.6-10.6 18.6 11.6-6.7 10.6z"/><path fill="#4b4840" fill-opacity=".5" d="M384.9 91.8l1.8-6 26.9 8.3-1.8 6z"/><path fill="#747262" fill-opacity=".5" d="M245.4 162l.8-1.4 19.3 10.3-.7 1.3z"/><path fill="#626a5a" fill-opacity=".5" d="M4 118l-7.8-11.7 1.3-.8L5.4 117z"/><path fill="#73766e" fill-opacity=".5" d="M258.2 27.4l1 1.2-9.6 8-1-1.1z"/><path fill="#7e8079" fill-opacity=".5" d="M117.4 113.3l-1.5-.2 2.6-18.6 1.5.2z"/><path fill="#3d463f" fill-opacity=".5" d="M344.6 12.4l-1.3 1-2-2.4 1.3-1z"/><path fill="#dcdad6" fill-opacity=".5" d="M305.8 65.1l3 1.1-.6 1.5-2.9-1z"/><path fill="#4e564f" fill-opacity=".5" d="M42.2 156.7l-1.4.7-6.4-12.5 1.4-.7z"/><path fill="#747a76" fill-opacity=".5" d="M354.6 19.2l.2-3 10.9.5-.2 3.1z"/><path fill="#101716" fill-opacity=".5" d="M6.8 191.4l3.5 5.2L-5.2 207l-3.5-5.2z"/><path fill="#787a6f" fill-opacity=".5" d="M310.2 9.6l-.7-1.4 6.9-3.7.7 1.4z"/><path fill="#939990" fill-opacity=".5" d="M81.3 146.1l-.3 1.6-7.6-1.7.3-1.5z"/><path fill="#21281e" fill-opacity=".5" d="M35.7 99.8l-.8-6.2 31-4.3.8 6.2z"/><path fill="#383f36" fill-opacity=".5" d="M106.3 145.9l11.3-5.3 2.7 5.7-11.4 5.3z"/><path fill="#4e554f" fill-opacity=".5" d="M31.4 12.6l7.5 35.1-3.1.7-7.5-35.2z"/><path fill="#353226" fill-opacity=".5" d="M375 140.6l-4.4-1.3 9-31.5 4.5 1.3z"/><path fill="#3b412e" fill-opacity=".5" d="M130.9 106.3l3.8 20-1.5.2-3.9-20z"/><path fill="#c5c8c4" fill-opacity=".5" d="M362.5 17.3l3.7-3 1 1.2-3.7 3z"/><path fill="#4e4335" fill-opacity=".5" d="M320 28.8L296.7 62l-2.6-1.8L317.4 27z"/><path fill="#20211b" fill-opacity=".5" d="M389.4 125.6l1.3.8-12.9 21.4-1.3-.8z"/><path fill="#b0b5b3" fill-opacity=".5" d="M56.2 153.6l2.4 2-3.8 4.9-2.5-2z"/><path fill="#aaaeab" fill-opacity=".5" d="M52 173.4l-1.5.5-7.1-20.7 1.4-.5z"/><path fill="#656a5f" fill-opacity=".5" d="M261.7 71.4l59.4 1V74l-59.4-1z"/><path fill="#535853" fill-opacity=".5" d="M26 174l17.4-13.2 1 1.2-17.5 13.2z"/><path fill="#636153" fill-opacity=".5" d="M146 46l-13.7-3 1.3-6.1 13.8 3z"/><path fill="#b4b1ad" fill-opacity=".5" d="M291 116.6l6.1-4.8 1 1.3-6.2 4.8z"/><path fill="#5f5b53" fill-opacity=".5" d="M161.6 6.7l.6 1.4-12.9 5.5-.6-1.4z"/><path fill="#6e765c" fill-opacity=".5" d="M145.8 103.4l1.6-.3 2 10.7-1.5.3z"/><path fill="#6a6f65" fill-opacity=".5" d="M394 120.2l-6-11 16.4-9 6 10.9z"/><path fill="#434e30" fill-opacity=".5" d="M137.4 105.3l8.5 7-9.8 12-8.5-6.8z"/><path fill="#858579" fill-opacity=".5" d="M247 58.8l2.3-4 17.8 9.8-2.3 4z"/><path fill="#6b634e" fill-opacity=".5" d="M259.5 87.5l-3.3-23.2 1.5-.2 3.3 23.2z"/><path fill="#4a543c" fill-opacity=".5" d="M72.7 12.7l1.5-.5L82 32.6l-1.5.5z"/><path fill="#262e27" fill-opacity=".5" d="M125.6 186.4l-.3 1.5-40-7 .3-1.6z"/><path fill="#4a4021" fill-opacity=".5" d="M338.7 149.7l7.4 2.5-2 6-7.4-2.6z"/><path fill="#363932" fill-opacity=".5" d="M130.5 37L114 25.2l.9-1.3 16.6 11.7z"/><path fill="#c3c4bb" fill-opacity=".5" d="M118.5 91.3l.5-3.1 1.5.2-.4 3.1z"/><path fill="#2f251d" fill-opacity=".5" d="M137.4 151.3l3.3-17 1.6.4-3.3 16.9z"/><path fill="#b1b5b1" fill-opacity=".5" d="M90 82.3l-.3 3-6.2-.4.2-3z"/><path fill="#23322d" fill-opacity=".5" d="M349.5 12.6l1.4-.7 4.3 8.3-1.4.7z"/><path fill="#323c31" fill-opacity=".5" d="M69.9 134.5l-31.5 9-.5-1.4 31.6-9z"/><path fill="#565c55" fill-opacity=".5" d="M80.7 124l1 1.3-7.7 5.4-1-1.3z"/><path fill="#60645c" fill-opacity=".5" d="M73.3 178.8l-1.4.6-6.2-16 1.5-.6z"/><path fill="#5e6556" fill-opacity=".5" d="M97.8 73.7l-2.2 5.8-4.4-1.6 2.3-5.9z"/><path fill="#405055" fill-opacity=".5" d="M180 48.3l-19.2 13.4-8-11.5L172 36.7z"/><path fill="#413b2e" fill-opacity=".5" d="M267.5 44.5l6-7.2 1.2 1-6 7.2z"/><path fill="#444335" fill-opacity=".5" d="M334.8 0l-1.4 7.7L298 1.5l1.4-7.7z"/><path fill="#2e3630" fill-opacity=".5" d="M64.7 34.2l1.5 9.3-32.5 5.1-1.4-9.3z"/><path fill="#2f3225" fill-opacity=".5" d="M233.5 118.4l10.2 4-.6 1.4-10.2-4z"/><path fill="#505750" fill-opacity=".5" d="M394.1 207.7l-9.3-14.4 3.9-2.6 9.4 14.4z"/><path fill="ivory" fill-opacity=".5" d="M323.8 122.1l-.6-3L334 117l.6 3z"/><path fill="#919791" fill-opacity=".5" d="M53.5 175.7l-9.3-1.5.8-4.6 9.2 1.5z"/><path fill="#757773" fill-opacity=".5" d="M103.1 90.7l7.8-.1V92l-7.8.2z"/><path fill="#5c5440" fill-opacity=".5" d="M356.1 57.2l15-18 2.5 2-15 18z"/><path fill="#9a9a8a" fill-opacity=".5" d="M268.9 130.2l-.9 1.3-10.3-7 .8-1.3z"/><path fill="#1e241f" fill-opacity=".5" d="M25.8 6.2l28-3 .1 1.6-28 3z"/><path fill="#262620" fill-opacity=".5" d="M339 183.6h120.4v3.1H339z"/><path fill="#eeeee4" fill-opacity=".5" d="M297.8 120.7l-.2-3 34.3-2.5.2 3.1z"/><path fill="#42493c" fill-opacity=".5" d="M43.2 194l28-50.5L74 145l-28 50.6z"/><path fill="#6b645a" fill-opacity=".5" d="M277.6 31.3l.5-1.5 17.7 6.1-.5 1.5z"/><path fill="#3a3c38" fill-opacity=".5" d="M366 169.2l2.3-4 29.8 17.1-2.4 4.1z"/><path fill="#797d73" fill-opacity=".5" d="M322.9 26.4l-2.4-2 2-2.4 2.4 2z"/><path fill="#373a37" fill-opacity=".5" d="M119.7 127.2l1.5-4.4 4.4 1.5-1.5 4.5z"/><path fill="#2a3224" fill-opacity=".5" d="M112.5 189.9l-1.5.3-9.5-37.9 1.6-.3z"/><path fill="#f4f6ee" fill-opacity=".5" d="M352 24.1l4.4 2-.7 1.3-4.3-1.9z"/><path fill="#3e382d" fill-opacity=".5" d="M262.4 117.8l.2-3.2 4.7.5-.3 3z"/><path fill="#111815" fill-opacity=".5" d="M80.1 174.1l.5 1.5-6 1.8-.5-1.5z"/><path fill="#626654" fill-opacity=".5" d="M118.7 64.7l-6-24.3 1.4-.4 6 24.3z"/><path fill="#817e72" fill-opacity=".5" d="M264 1.7l.5-1.4 20 8.9-.6 1.4z"/><path fill="#4e443b" fill-opacity=".5" d="M338 66.7l-.3 1.6-39.8-8.5.4-1.5z"/><path fill="#20221d" fill-opacity=".5" d="M105 26.4l-2.1-2.3 9.3-8.3 2 2.3z"/><path fill="#23210d" fill-opacity=".5" d="M148.7 165.2l-1.2 1-4-4.8 1.2-1z"/><path fill="#4b4f46" fill-opacity=".5" d="M101.5 21.2l16.2-16.9 1.2 1-16.3 17z"/><path fill="#aeaea1" fill-opacity=".5" d="M288.1 47.7l6.7 4-3.2 5.3-6.7-4z"/><path fill="#817e74" fill-opacity=".5" d="M156.7 163.3l-.8 1.3-17.3-10.7.9-1.4z"/><path fill="#80877f" fill-opacity=".5" d="M287.3 183.7l-2.1-5.9 10.3-3.7 2.1 5.9z"/><path fill="#3d3228" fill-opacity=".5" d="M270 170.4l2 2.3-9.1 8.5-2.1-2.3z"/><path fill="#918a7c" fill-opacity=".5" d="M271.2 43.5l15.6.5-.2 4.7-15.6-.5z"/><path fill="#f0f3e6" fill-opacity=".5" d="M145.5 32.8l-3.1-3.6 1.2-1 3 3.5z"/><path fill="#2e3129" fill-opacity=".5" d="M315.7 10.9l13.6 3.6-2.8 10.6-13.6-3.7z"/><path fill="#242b27" fill-opacity=".5" d="M363.3 21.1l-3 1-3.3-10.4 3-1z"/><path fill="#202825" fill-opacity=".5" d="M20.3 188.2l19.1-22.7 1.2 1-19 22.7z"/><path fill="#434841" fill-opacity=".5" d="M62 16.7l-14.3-6.1L52 .6l14.4 6z"/><path fill="#4e554c" fill-opacity=".5" d="M65 77.5l2.5 12.3-15.4 3-2.4-12.3z"/><path fill="#918b7c" fill-opacity=".5" d="M134.3 180l.7-1.3 4.2 2.2-.8 1.4z"/><path fill="#2e2f2b" fill-opacity=".5" d="M29 168.2l-3.1-8.8 3-1 3 8.8z"/><path fill="#444a41" fill-opacity=".5" d="M33.4 123l2 13.9-7.8 1-2-13.9z"/><path fill="#1f271e" fill-opacity=".5" d="M39.9 64.8l.2-1.6 34 4.8-.2 1.6z"/><path fill="#9c9f99" fill-opacity=".5" d="M246.4 194.7l1.2-1 7.6 10-1.3 1z"/><path fill="#342d21" fill-opacity=".5" d="M271.4 112.3l-3 .3-.8-7.8 3.1-.2z"/><path fill="#7a7c75" fill-opacity=".5" d="M96.3 124.4l.8 3-10.6 2.9-.8-3z"/><path fill="#485250" fill-opacity=".5" d="M253.9 47l-10.2 4-2.3-5.9 10.2-3.9z"/><path fill="#798775" fill-opacity=".5" d="M4 14.4l-1.8 7.5-1.6-.3 2-7.6z"/><path fill="#5f645f" fill-opacity=".5" d="M265.5 91.7l-.6 1.5-25.7-11.5.6-1.4z"/><path fill="#3c311a" fill-opacity=".5" d="M255 171l1.3-1 5.8 7.4-1.2 1z"/><path fill="#72756e" fill-opacity=".5" d="M94.6 118.3l15.6.9-.1 1.5-15.6-.8z"/><path fill="#262a21" fill-opacity=".5" d="M130.5 31.6l-6.1-4.8 2.9-3.7 6.1 4.8z"/><path fill="#a8a293" fill-opacity=".5" d="M319.2 32l4.4 1.7-.6 1.5-4.4-1.8z"/><path fill="#d0d3cd" fill-opacity=".5" d="M106.1 109.3l-1.3.8-3.1-5.4 1.3-.8z"/><path fill="#1c241e" fill-opacity=".5" d="M73.4 54.8l-32.6 2.9-.2-1.6 32.7-2.8z"/><path fill="#262b24" fill-opacity=".5" d="M27.4 21.9l-11.2 24-1.4-.6 11.2-24z"/><path fill="#61584b" fill-opacity=".5" d="M281.8 137.6l-7.5 20.6-1.4-.5 7.5-20.6z"/><path fill="#3b484b" fill-opacity=".5" d="M234 67l3.3-3.4 21 21-3.4 3.3z"/><path fill="#1d1a15" fill-opacity=".5" d="M135 177.2l.3 3.1-3.1.3-.3-3z"/><path fill="#3f392a" fill-opacity=".5" d="M158.7 51L144 37.2l2-2.3 15 13.9z"/><path fill="#48443f" fill-opacity=".5" d="M357.4 33.5l-9.3 1.7-.8-4.7 9.3-1.6z"/><path fill="#7e8076" fill-opacity=".5" d="M127 147.4l-7.3 13.8-1.4-.8 7.3-13.8z"/><path fill="#414840" fill-opacity=".5" d="M19.6 42.7l5.7 12.9L3.9 65l-5.7-12.9z"/><path fill="#2e3733" fill-opacity=".5" d="M416.4 5.5l.3 1.5-47.2 11-.3-1.6z"/><path fill="#797c74" fill-opacity=".5" d="M130.3 78.7l-9.3-1.2.2-1.5 9.3 1.1z"/><path fill="#d1d5ca" fill-opacity=".5" d="M120.3 114.9l2.5 1.8-.9 1.3-2.5-1.9z"/><path fill="#a09c90" fill-opacity=".5" d="M290.7 40.4l-.8 1.4-16.5-8.8.7-1.4z"/><path fill="#696154" fill-opacity=".5" d="M288.3 57l1.6.2-1.7 9.3-1.5-.3z"/><path fill="#959792" fill-opacity=".5" d="M94.7 91.6l6.2 1.2-.3 1.5-6.2-1.2z"/><path fill="#adaaa2" fill-opacity=".5" d="M268.7 17.8l9 8.6-1 1.2-9-8.7z"/><path fill="#6d6b58" fill-opacity=".5" d="M294.6 128.3l-.8-1.4 7-3.6.7 1.3z"/><path fill="#474536" fill-opacity=".5" d="M145.3 74.8l-.5 1.5-7.3-2.7.5-1.5z"/><path fill="#6f6758" fill-opacity=".5" d="M271.7 71l3 .2-1 21.8-3.2-.1z"/><path fill="#3d362d" fill-opacity=".5" d="M270.5 135.2l1.3.8-3.3 5.3-1.3-.8z"/><path fill="#3f3f36" fill-opacity=".5" d="M118.5 94l10.3-9.5 1 1.1-10.2 9.6z"/><path fill="#444b31" fill-opacity=".5" d="M19 195.2l.3-1.5 53.9 9.5-.3 1.5z"/><path fill="#1b2724" fill-opacity=".5" d="M245.4 183.1l2.3 2-7.1 8.3-2.4-2z"/><path fill="#2b3229" fill-opacity=".5" d="M102.3 141.8l-38.2-21.3.7-1.3 38.3 21.2z"/><path fill="#3e3930" fill-opacity=".5" d="M273.7 180.1l-13.9 2.2-.7-4.6 13.9-2.2z"/><path fill="#baaea0" fill-opacity=".5" d="M350 34.5l4.7-.2v1.6l-4.7.1z"/><path fill="#5c6059" fill-opacity=".5" d="M335.6 14.7l.4 1.5-7.6 2-.3-1.6z"/><path fill="#888b84" fill-opacity=".5" d="M113.3 151.5l1.5 10.8-1.5.3-1.6-10.9z"/><path fill="#757b74" fill-opacity=".5" d="M96.4 145.4l1-6.2 7.8 1.4-1.1 6.1z"/><path fill="#121913" fill-opacity=".5" d="M337.6 5.3l-.1-1.6 14-1.2.1 1.6z"/><path fill="#dbccb7" fill-opacity=".5" d="M353.8 100.6l1.6 2.7-1.4.8-1.6-2.7z"/><path fill="#535c5f" fill-opacity=".5" d="M207 100.8h-34.3V53.9H207z"/><path fill="#fdfef2" fill-opacity=".5" d="M314 123.2l17-2.7.3 1.6-17 2.7z"/><path fill="#9a8665" fill-opacity=".5" d="M342.5 116.7l.8 4.6-6.1 1-.8-4.5z"/><path fill="#181d1b" fill-opacity=".5" d="M411.6 25.2L396.9 73l-19.4-6 14.6-47.8z"/><path fill="#a6a79b" fill-opacity=".5" d="M237 105.4l.9-1.3L255 115l-.8 1.3z"/><path fill="#3f3e35" fill-opacity=".5" d="M119 40.5l-19.3 6.3-1.5-4.5 19.3-6.3z"/><path fill="#dbdddb" fill-opacity=".5" d="M124.2 68.6l7 3.6-.7 1.4-7-3.6z"/><path fill="#dfe6e0" fill-opacity=".5" d="M364.8 2.7l-1.5.6-1.6-4.5 1.5-.5z"/><path fill="#353f3d" fill-opacity=".5" d="M314.8 72.3l.1-1.5 31.2 2.2-.1 1.5z"/><path fill="#535b56" fill-opacity=".5" d="M14.5 136.7l1-1.3L30.7 146l-1 1.3z"/><path fill="#3f4542" fill-opacity=".5" d="M75.7 195l6-2 3.5 10.4-6 2z"/><path fill="#21281f" fill-opacity=".5" d="M140.6 92l2.4 2.1-13.3 15.4-2.4-2z"/><path fill="#687279" fill-opacity=".5" d="M246 189l1.7 4.3-1.5.6-1.7-4.4z"/><path fill="#9a9f98" fill-opacity=".5" d="M340.6 12.8l-3 .8-1.6-6.1 3-.8z"/><path fill="#b4b6b2" fill-opacity=".5" d="M129.6 176l4.3-1.8.6 1.4-4.3 1.8z"/><path fill="#2e2e28" fill-opacity=".5" d="M122.9 19.7l3.9 4.9-1.2 1-4-4.9z"/><path fill="#8c8a88" fill-opacity=".5" d="M249.4 190l-3 1.1-.5-1.4 3-1.1z"/><path fill="#282723" fill-opacity=".5" d="M376 154l14 12.3-8.1 9.4-14.2-12.3z"/><path fill="#979691" fill-opacity=".5" d="M131.3 31.7l3 .8-1.5 6-3-.7z"/><path fill="#4b3c28" fill-opacity=".5" d="M299.8 170l13.6-4 .8 3.1-13.5 3.9z"/></svg>