<svg xmlns="http://www.w3.org/2000/svg" viewBox="0 0 400 200"><path fill="#6a676e" d="M0 0h400v200H0z"/><path fill="#d2c4d2" fill-opacity=".5" d="M345.3 160.2H53.1v-150h292.2z"/><path fill-opacity=".5" d="M395.5 242L-2.7 228.3l2.5-71.8L398 170.3z"/><path fill-opacity=".5" d="M-.8 32.8h53.1v198.4h-53zM346.4 222l8.9-170.1 53 2.7-8.9 170.1z"/><path fill="#000003" fill-opacity=".5" d="M49.8 187.7l-26.5-.4 3.4-198.5 26.6.5z"/><path fill="#cb372b" fill-opacity=".5" d="M69.8 52.4l-.5-26.6 96.9-1.6.4 26.5z"/><path fill="#29635d" fill-opacity=".5" d="M178.3 82.4l-.4 26.5-129.7-2.2.5-26.6z"/><path fill="#cbd0e1" fill-opacity=".5" d="M329.7 84.4H134.4v-36h195.3z"/><path fill="#000c12" fill-opacity=".5" d="M378.1-125v345.3h-26.5V-125z"/><path fill="#cf4d42" fill-opacity=".5" d="M224 83.9l117 4-.9 26.6-117-4z"/><path fill="#80a9cc" fill-opacity=".5" d="M379.1 22.1l32.8 1.1-2 56.3-32.7-1.2z"/><path fill-opacity=".5" d="M257 7.8H82v-14h175z"/><path fill="#feffff" fill-opacity=".5" d="M239.8 22.7H83.6v-9.4h156.2z"/><path fill="#3f7060" fill-opacity=".5" d="M273 154l2.5-35.8 62.4 4.3-2.5 35.9z"/><path fill="#194a93" fill-opacity=".5" d="M190.5 116.5l56.2 3-1.3 25-56.2-3z"/><path fill="#0a0a08" fill-opacity=".5" d="M188.7 202.3l.7-40.6 186 3.2-.8 40.6z"/><path fill-opacity=".5" d="M54.2 86.6L52 149l-79.6-2.8 2.2-62.4z"/><path fill="#1b191d" fill-opacity=".5" d="M147 72l-.2-4.6 198.5-3.5v4.7z"/><path fill="#427670" fill-opacity=".5" d="M247.9 50.8l-.5-26.5 96.9-1.7.5 26.6z"/><path fill="#b74b42" fill-opacity=".5" d="M145.3 144.4L61.1 140l1.4-26.6 84.2 4.5z"/><path fill="#080804" fill-opacity=".5" d="M51.6 160.2h120.3v43.7H51.6z"/><path fill="#f5ffff" fill-opacity=".5" d="M60 62l.3-9.4 75 2.6-.3 9.4z"/><path fill="#577490" fill-opacity=".5" d="M29 70.4L-14.3 65l8.8-71.3L37.8-1z"/><path fill-opacity=".5" d="M343-6.3V7.8h-87.5v-14z"/><path fill="#d6e8ff" fill-opacity=".5" d="M232 11h112.5v10.9H232z"/><path fill="#e6f3ff" fill-opacity=".5" d="M248.3 133.3l25.9 6-5.3 22.8-25.9-6z"/><path fill="#eff8ff" fill-opacity=".5" d="M144.5 107.1v7.8l-81.1 1.4-.2-7.8z"/><path fill="#295faf" fill-opacity=".5" d="M213.8 48.8l-39-.7.4-26.6 39 .7z"/><path fill="#e29589" fill-opacity=".5" d="M230 204l-18.6-29 4-2.5 18.7 28.8z"/><path fill="#565c5d" fill-opacity=".5" d="M369.1 153.3l18.3-4.3 20 86.8-18.2 4.2z"/><path fill="#e3ecff" fill-opacity=".5" d="M231.8 156l-171.6-9 .2-4.6 171.6 9z"/><path fill="#e5f1ff" fill-opacity=".5" d="M95.3 58.3l251.4-8.8.2 6.3-251.4 8.7z"/><path fill="#e8f6ff" fill-opacity=".5" d="M104.6 111l104.7-1.8.1 6.3-104.6 1.8z"/><path fill="#cfcbe5" fill-opacity=".5" d="M335.5 14.2l14-.3 1 48.5-14.1.2z"/><path fill="#d8e4f6" fill-opacity=".5" d="M91.1 68.1l-4 78-4.8-.2 4.1-78z"/><path fill="#c08475" fill-opacity=".5" d="M66 172.9l4-2.9 31.2 43-3.8 2.7z"/><path fill="#1c242d" fill-opacity=".5" d="M-43.7 69.7l289-5v1.5l-289 5z"/><path fill="#e78a7d" fill-opacity=".5" d="M155.8 232.8l-2.6-1.7 42.5-65.5 2.7 1.7z"/><path fill="#cd5c56" fill-opacity=".5" d="M182.6 86.6l40.4-4.3 2.2 20.2-40.4 4.3z"/><path fill="#786d6b" fill-opacity=".5" d="M14.9 194.6l-7.5-2.2L21 147.5l7.5 2.3z"/><path fill="#db948b" fill-opacity=".5" d="M330.7 177l2.4 2-21.6 26.7-2.4-2z"/><path fill="#e9f8ff" fill-opacity=".5" d="M232.3 21.6l12.5-.9 2.6 37.4-12.5.9z"/><path fill="#41494d" fill-opacity=".5" d="M325.1 66.2l57 16.4-2.5 9-57-16.4z"/><path fill="#d6e2e4" fill-opacity=".5" d="M186 118v-6.3h135.9v6.3z"/><path fill="#f1e4e8" fill-opacity=".5" d="M299.4 162.5l-5.7-2.4 11.6-27.3 5.7 2.4z"/><path fill="#22534f" fill-opacity=".5" d="M245.6 15.3l10.9-.8L259 52l-10.9.8z"/><path fill="#e1edff" fill-opacity=".5" d="M94.5 81.3v-7.9h100v7.8z"/><path fill="#82b0e9" fill-opacity=".5" d="M360.7 49.2L358-.8h1.5l2.6 50z"/><path fill="#bfcce1" fill-opacity=".5" d="M96 76l-71.5 7.4-.2-1.5 71.5-7.5z"/><path fill="#c5cedf" fill-opacity=".5" d="M340.6 94.3l11 .6-3.2 59.3-10.9-.6z"/><path fill="#3861a8" fill-opacity=".5" d="M146.4 143.4l1-26.6 20.2.8-.9 26.5z"/><path fill="#d4e0f8" fill-opacity=".5" d="M166.6 54l-.4-25 18.7-.3.5 25z"/><path fill="#94a0ac" fill-opacity=".5" d="M355.5 111.8l4.6 43.5-1.6.1L354 112z"/><path fill-opacity=".5" d="M29.6 232.2l-19.9-39 53-27 19.8 39z"/><path fill="#ced5ea" fill-opacity=".5" d="M63.3 55.1l-6.2.5-6.3-90.4 6.2-.5z"/><path fill="#4f7d71" fill-opacity=".5" d="M286.1 110.5l5.6 16.2-32.5 11.2-5.6-16.2z"/><path fill="#fffdff" fill-opacity=".5" d="M262.5 48.4h-4.7V18.8h4.7z"/><path fill="#b3c5eb" fill-opacity=".5" d="M6.4 28.8l3 .6L4.6 57l-3.1-.6z"/><path fill="#b2b3be" fill-opacity=".5" d="M347.5 164.8L200.8 157l.1-1.6 146.7 7.7z"/><path fill="#001c84" fill-opacity=".5" d="M230.2 54l-1.6-.2 2.2-31.2 1.5.1z"/><path fill="#dbdadf" fill-opacity=".5" d="M242.8 56.5l-7.5 85.6-1.5-.1 7.4-85.7z"/><path fill="#e5dee3" fill-opacity=".5" d="M70.5 34L75 12.4l9.2 2-4.5 21.4z"/><path fill="#fffaf7" fill-opacity=".5" d="M283.8 138l1.1-15.6 7.8.5-1 15.6z"/><path fill="#214c44" fill-opacity=".5" d="M333 125.4l-32.7 2.3-.5-7.8 32.7-2.3z"/><path fill="#f6fafd" fill-opacity=".5" d="M256.2 113.5l-1.5 28.1-9.3-.5 1.4-28z"/><path fill="#a39289" fill-opacity=".5" d="M205.5 227.9l-1.2-1.1 54.3-56.2 1.1 1z"/><path fill="#265859" fill-opacity=".5" d="M102 101.9l2.5-20.2 45 5.5-2.5 20.2z"/><path fill="#8b7976" fill-opacity=".5" d="M134.7 159.9l39.8 78-1.4.7-39.8-78z"/><path fill="#eadcd9" fill-opacity=".5" d="M132.7 75l3.4 64h-1.6L131 75z"/><path fill="#fdf1ff" fill-opacity=".5" d="M307 61.8l-3-.2 3-43.7 3.1.2z"/><path fill="#000063" fill-opacity=".5" d="M180.3 52l-1.6.3-4.3-24.6 1.5-.3z"/><path fill="#000809" fill-opacity=".5" d="M39.9-30l15.6.8-3.2 60.8-15.6-.8z"/><path fill="#fff" fill-opacity=".5" d="M177 115.6l.6-32.8h6.3l-.6 32.9z"/><path fill="#ded4ea" fill-opacity=".5" d="M326 46.8l-6.2.1-.6-32.8h6.3z"/><path fill="#000002" fill-opacity=".5" d="M371 136.9l11.5 8.2-55.1 75.9-11.4-8.3z"/><path fill="#49679c" fill-opacity=".5" d="M154.8 136.1l79.7 2.8-.3 7.8-79.6-2.8z"/><path fill="#747d85" fill-opacity=".5" d="M396.6 118.8l-9 46-4.5-.8 9-46z"/><path fill="#325550" fill-opacity=".5" d="M304.5 154.3l31-21 5.3 7.8-31 21z"/><path fill="#987e72" fill-opacity=".5" d="M181 195l-30.3-24.7 1-1.2 30.4 24.6z"/><path fill="#c2d6d4" fill-opacity=".5" d="M157.5 90.3l9.4-.8 2.1 24.9-9.3.8z"/><path fill="#fffdff" fill-opacity=".5" d="M105.4 72.3l1.5.5-7.6 22.1-1.5-.5z"/><path fill="#fcf1ea" fill-opacity=".5" d="M328 135.5l.1 1.5-38.8 4.1-.2-1.6z"/><path fill-opacity=".5" d="M180.1 200l26.3-24.5 21.3 22.9-26.3 24.5z"/><path fill="#080904" fill-opacity=".5" d="M354 93.3l55.4-9.7 3.8 21.5-55.4 9.8z"/><path fill-opacity=".5" d="M74.8 6.5l-14-.5.3-11 14 .6z"/><path fill="#001423" fill-opacity=".5" d="M-.5 48.5L-5 48 2-3.2l4.7.7z"/><path fill="#ddc1a6" fill-opacity=".5" d="M372.8 118.5l6.2-4.8 2.9 3.7-6.2 4.8z"/><path fill="#e4e6fc" fill-opacity=".5" d="M114.2 75.7l229.5 8v1.6l-229.6-8z"/><path fill="#0d3331" fill-opacity=".5" d="M338 47.1l-9.3 1-2.6-24.9 9.3-1z"/><path fill-opacity=".5" d="M37.7 171.5L2.3 88.1l11.5-5 35.4 83.5z"/><path fill="#2d514e" fill-opacity=".5" d="M291.6 144.9l-17.2 7.6-5-11.4 17-7.7z"/><path fill="#c35751" fill-opacity=".5" d="M78.7 17.7l-3 18.6-15.4-2.5 3-18.5z"/><path fill-opacity=".5" d="M361.7-24.4l-6.3 51.2-6.2-.8 6.3-51.2z"/><path fill="#bac1cf" fill-opacity=".5" d="M401.6 146.6l-7.4-11.9 2.6-1.6 7.5 11.9z"/><path fill="#d9d7e4" fill-opacity=".5" d="M145.3 11h7.8v29.6h-7.8z"/><path fill="#040400" fill-opacity=".5" d="M375 44.5l7.9 5-28.2 45-8-5z"/><path fill="#26433c" fill-opacity=".5" d="M100.3 83L89 88.1l-3.3-7L97 75.7z"/><path fill="#faf0e1" fill-opacity=".5" d="M277.7 57h-1.6L274 13.4l1.5-.1z"/><path fill="#98a4b7" fill-opacity=".5" d="M409.9 41.8l9.1 14.6-30.5 19-9-14.6z"/><path fill="#696155" fill-opacity=".5" d="M8 117.6l4.2-2 15.8 34-4.2 2z"/><path fill="#000007" fill-opacity=".5" d="M309.5 31.5l1.5-.3 3 17-1.6.2z"/><path fill="#be9396" fill-opacity=".5" d="M258.6 97.5l-42.9 14.7-7-20.6 42.8-14.8z"/><path fill="#61717b" fill-opacity=".5" d="M366.3 90l-3.8-5 25.8-20.2 3.9 5z"/><path fill="#c1b8c6" fill-opacity=".5" d="M232.8 7.8v4.7h-95.3V7.8z"/><path fill="#96948e" fill-opacity=".5" d="M273.5 173.5h1.6l3 42-1.6.1z"/><path fill="#8e857e" fill-opacity=".5" d="M271.4 158l1.4.5-23.9 69.4-1.4-.5z"/><path fill="#b14644" fill-opacity=".5" d="M255 109.4l-.6-18.7 48.4-1.7.6 18.7z"/><path fill="#cfcedd" fill-opacity=".5" d="M98.6 103l-4 2.4-19.8-31.8 4-2.5z"/><path fill="#1a4e4e" fill-opacity=".5" d="M284.8 20.8l2.2 25-7.8.6-2.1-25z"/><path fill="#89807d" fill-opacity=".5" d="M128 162.4l1.6.5-21.8 66.9-1.4-.5z"/><path fill="#a79185" fill-opacity=".5" d="M19 154.5l-35.6 5-.8-6.2 35.5-5z"/><path fill="#484e5f" fill-opacity=".5" d="M64.6 109.2L42.6 68l6.9-3.7 22 41.4z"/><path fill="#dfc7bc" fill-opacity=".5" d="M-.7 125l1.4-20.3h1.6L.9 125z"/><path fill-opacity=".5" d="M168.8 185.3l4.8-24.5 12.3 2.3-4.8 24.6z"/><path fill="#dddbde" fill-opacity=".5" d="M321.5 26l.6 6.2-26.4 2.8-.6-6.3z"/><path fill="#887568" fill-opacity=".5" d="M85 211.4l24.1-34.6 1.3.9-24.2 34.6z"/><path fill="#f9efd5" fill-opacity=".5" d="M268.7 44.5l-3-28 1.6-.1 3 28z"/><path fill="#961816" fill-opacity=".5" d="M153.9 32.8l-11.2-8.4 1.8-2.5 11.3 8.4z"/><path fill="#8b8d86" fill-opacity=".5" d="M281.3 168.3L306 217l-1.4.7-24.8-48.7z"/><path fill="#77828c" fill-opacity=".5" d="M352 83.8l-1.6-.4 11.7-43.8 1.5.4z"/><path fill="#010300" fill-opacity=".5" d="M381.5 213.3l-4.7-.1 2.6-75 4.7.2z"/><path fill="#eadee9" fill-opacity=".5" d="M78.5 78.4l1.5.4-6.9 25.6-1.5-.4z"/><path fill="#88070e" fill-opacity=".5" d="M232.8 108.2l-26.4 2.3-.2-1.5 26.5-2.3z"/><path fill="#08358d" fill-opacity=".5" d="M190.6 135.3l-1.5-21.8 6.2-.4 1.5 21.8z"/><path fill="#fff" fill-opacity=".5" d="M252.6 35.1l1.6.4-2.1 9-1.6-.3z"/><path fill="#e9e7fa" fill-opacity=".5" d="M64.8 33.6L75.6 45l-4.5 4.3L60.3 38z"/><path fill="#dff" fill-opacity=".5" d="M327.8 103.1l-9.3 1.5-1-6.2 9.3-1.4z"/><path fill-opacity=".5" d="M395.2 170.4l-4.3-24.6 12.3-2.2 4.3 24.7z"/><path fill="#d9efff" fill-opacity=".5" d="M228 53.6L219 14l1.5-.4 9.1 39.6z"/><path fill="#00343b" fill-opacity=".5" d="M312.1 42.3l-4.6-.2.7-20.3 4.7.2z"/><path fill="#d6e7ee" fill-opacity=".5" d="M136 114l3 35.9-1.5.1-3.1-35.8z"/><path fill="#00379d" fill-opacity=".5" d="M200.1 26.6L200 25l35.8-3.1.1 1.5z"/><path fill="#6a6467" fill-opacity=".5" d="M1.4 201.5l21.3-41.8 5.6 2.9L7 204.3z"/><path fill="#d0dfe3" fill-opacity=".5" d="M172.7 120.3L171 75h1.5l1.6 45.3z"/><path fill="#ebe8f1" fill-opacity=".5" d="M157.5 58l-48.2-5 .4-3.2 48.1 5z"/><path fill="#002e2e" fill-opacity=".5" d="M325.3 115.1l3.6-2.9 6.8 8.6-3.7 3z"/><path fill="#8b867f" fill-opacity=".5" d="M293.2 173.4l1-1.2 26.7 21.6-1 1.2z"/><path fill="#6e665e" fill-opacity=".5" d="M392.9 145.1l-20.1-2.8 1.5-10.8 20.1 2.8z"/><path fill="#fff5d7" fill-opacity=".5" d="M94.5 82l8.3 7-2 2.4-8.3-7z"/><path fill="#9e8b84" fill-opacity=".5" d="M138 224.9l-7.2-51.1 1.5-.2 7.2 51z"/><path fill="#000b17" fill-opacity=".5" d="M291.2 25.9l1.6-.1 1.9 21.7-1.6.2z"/><path fill="#908d98" fill-opacity=".5" d="M120.3 72v-1.5L318.7 67v1.6z"/><path fill="#dddfed" fill-opacity=".5" d="M265.1 157l-76-9.3.4-3.1 76 9.3z"/><path fill="#000409" fill-opacity=".5" d="M386.3 66.4l-6 9-18.3-12 6.1-9.1z"/><path fill="#b65954" fill-opacity=".5" d="M79 25l60.8-3.1 1.6 29.6-60.9 3.2z"/><path fill="#d3d5e8" fill-opacity=".5" d="M305.2 7.4l.5 9.3-46.8 2.5-.5-9.4z"/><path fill="#00151e" fill-opacity=".5" d="M266.2 49.2L262 24.5l1.5-.2 4.4 24.6z"/><path fill="#e4e8f8" fill-opacity=".5" d="M256 66.4l-7.5-12 15.9-9.9 7.4 12z"/><path fill="#001b2b" fill-opacity=".5" d="M275.4 21.4l-4 24.7-1.5-.3 4-24.7z"/><path fill="#7dade0" fill-opacity=".5" d="M359 29.7l5 11.6-5.8 2.4-5-11.5z"/><path fill="#003287" fill-opacity=".5" d="M173.7 137.5l-3.6-20 1.6-.3 3.5 20z"/><path fill="#7f0308" fill-opacity=".5" d="M220.7 113.3l-3.9-27.9 1.5-.2 4 27.8z"/><path fill="#c7d4df" fill-opacity=".5" d="M119.4 65.3l-7.7.6-1.5-20.3 7.8-.5z"/><path fill="#fff0c4" fill-opacity=".5" d="M188.3 29l1.5-.1 1.6 15.5-1.5.2z"/><path fill="#002780" fill-opacity=".5" d="M200 25l21.2 16-1 1.2-21.1-16z"/><path fill="#6b0000" fill-opacity=".5" d="M337.2 87.5l1.5.2-2.4 20.1-1.6-.2z"/><path fill="#9c817e" fill-opacity=".5" d="M216.3 182.6l-.7-1.4 29-15.4.7 1.4z"/><path fill="#00040d" fill-opacity=".5" d="M206.2 217l-15.5-1.4 4.6-52.9 15.6 1.4z"/><path fill="#9c9da7" fill-opacity=".5" d="M196.8 158.7l.3-6.2 114 6-.4 6.2z"/><path fill="#bc7f77" fill-opacity=".5" d="M152.5 217.8l38-39.3 2.3 2.1-38 39.4z"/><path fill="#d2f1dd" fill-opacity=".5" d="M77.7 35.4l-10.8-6.2 3.9-6.8 10.8 6.2z"/><path fill-opacity=".5" d="M368.6 101.8l5 46.6-12.5 1.3-5-46.6z"/><path fill="#f9fffd" fill-opacity=".5" d="M192.7 92.7l2.2 2.3-7.9 7.6-2.2-2.3z"/><path fill="#d1ddfe" fill-opacity=".5" d="M87.4 20.2l.2-9.3 98.4 1.7-.2 9.4z"/><path fill="#f4ffff" fill-opacity=".5" d="M120.2 123l2-2.5 6 5-2 2.4z"/><path fill="#a04641" fill-opacity=".5" d="M119.3 138l-29.6 2-1.2-17 29.6-2.1z"/><path fill="#73655f" fill-opacity=".5" d="M113.5 163l.6 1.5-41.7 17.7-.6-1.4z"/><path fill="#577a94" fill-opacity=".5" d="M377.3 52.3V-3.9h28.2v56.2z"/><path fill="#072028" fill-opacity=".5" d="M45.2 69.4l-22.7 5.7-6.8-27.3L38.4 42z"/><path fill="#00090d" fill-opacity=".5" d="M371.9 164.3L217.2 167v-1.6l154.6-2.7z"/><path fill="#003d43" fill-opacity=".5" d="M166.1 85.3l1.6-.2 2.1 25h-1.5z"/><path fill="#395795" fill-opacity=".5" d="M191.7 41.1l31.2 2.2-.6 7.8-31.1-2.2z"/><path fill="#950d12" fill-opacity=".5" d="M248.3 79l2.2 4.2-9.8 5-2.1-4.2z"/><path fill="#bbbbbd" fill-opacity=".5" d="M140.7 100.4l27.8 59.5-1.4.6-27.8-59.4z"/><path fill="#bcbfd9" fill-opacity=".5" d="M357.5-45.1l-15.1 95.7-4.6-.8 15.1-95.7z"/><path fill="#e8ffff" fill-opacity=".5" d="M256 85.5l-4.5 10-2.8-1.3 4.4-10z"/><path fill="#ffffdb" fill-opacity=".5" d="M199.6 22.1L197.2 36l-1.5-.3 2.4-13.9z"/><path fill="#7f0000" fill-opacity=".5" d="M164.3 21.9l1.6.2-3.7 29.4-1.5-.1z"/><path fill="#e0cdbf" fill-opacity=".5" d="M89.8 20.3l1.6 45.3H90l-1.6-45.2z"/><path fill="#cfd5c6" fill-opacity=".5" d="M285.3 99.7L296 139l-1.6.5-10.5-39.3z"/><path fill="#1f3a74" fill-opacity=".5" d="M218 143.7l.1-1.6 31.1 3.3-.1 1.5z"/><path fill="#104946" fill-opacity=".5" d="M161.6 82.8l1.4.5-10.5 26.1-1.5-.6z"/><path fill="#9898a4" fill-opacity=".5" d="M345.7 118.5l7.8.7-4 45.1-7.7-.7z"/><path fill="#000f07" fill-opacity=".5" d="M83.8 7.8l-.4-12.4 46.8-1.7.5 12.5z"/><path fill="#ded0d6" fill-opacity=".5" d="M159.2 53.1l-1.5-.1 3.4-39 1.5.2z"/><path fill="#d9d4ce" fill-opacity=".5" d="M223.3 120.3l1.5.2-2.8 20.1-1.5-.2z"/><path fill="#000416" fill-opacity=".5" d="M350.3 21.8l4.7.1-.7 39h-4.6z"/><path fill="#9b0405" fill-opacity=".5" d="M209 107l-2.3-21.7 1.5-.2 2.3 21.8z"/><path fill="#9b5b52" fill-opacity=".5" d="M216.4 163.4l4.5 19.8-7.6 1.8-4.5-19.8z"/><path fill="#d9cbb3" fill-opacity=".5" d="M104.6 65.6l-3-42 1.6-.2 3 42.1z"/><path fill="#890012" fill-opacity=".5" d="M330.8 86.9l-2.3 21.7-1.5-.1 2.3-21.8z"/><path fill="#d6cbbe" fill-opacity=".5" d="M126.6 148.4V87.5h1.5v61z"/><path fill="#a2a2b0" fill-opacity=".5" d="M159.4 64.3v1.5L57.7 62.3v-1.6z"/><path fill="#a63640" fill-opacity=".5" d="M62.3 46.8l38.3-7.5 1.2 6.1L63.5 53z"/><path fill="#880a1c" fill-opacity=".5" d="M185.2 108.6L183.6 90h1.5l1.7 18.6z"/><path fill="#d7dceb" fill-opacity=".5" d="M156.3 60.2v-9.4h164v9.4z"/><path fill="#790003" fill-opacity=".5" d="M250.7 99l-1.2 1-11-13.1 1.1-1z"/><path fill="#9097b7" fill-opacity=".5" d="M10.3-16.6l4.6-.6 7.6 54.1-4.6.7z"/><path fill="#d1b9a2" fill-opacity=".5" d="M229.1 142.8l6-19.4 3 1-6 19.4z"/><path fill="#fce2eb" fill-opacity=".5" d="M316.6 152.2l9.7 5.1-.7 1.4-9.7-5.1z"/><path fill="#002143" fill-opacity=".5" d="M231 118.9l-2.7 26.4-1.6-.1 2.8-26.5z"/><path fill="#818491" fill-opacity=".5" d="M67.9 83.6L21 82l.2-4.7L68 79z"/><path fill="#972421" fill-opacity=".5" d="M136 30.5h7.8v21.8h-7.9z"/><path fill="#161809" fill-opacity=".5" d="M223.4-4.7h117.2v11H223.4z"/><path fill="#a28678" fill-opacity=".5" d="M373.5 178l1.4-26.5 3.1.2-1.4 26.5z"/><path fill="#1d433d" fill-opacity=".5" d="M86.7 81l-18.4 3.6L68 83l18.4-3.6z"/><path fill="#a5adba" fill-opacity=".5" d="M356.3 118.8h-1.6V98.3h1.6z"/><path fill="#03322b" fill-opacity=".5" d="M106 108.7l-1.2.9-12.5-20 1.4-.7z"/><path fill="#7b818c" fill-opacity=".5" d="M381.3 181.9l-.1-4.7 35.9-1.3.2 4.7z"/><path fill-opacity=".5" d="M380.4 52.2l4-4.8 2.4 2-4 4.8z"/><path fill="#bab6c8" fill-opacity=".5" d="M58.6 73.3l190.6 3.4v1.5L58.6 75z"/><path fill="#ced0c7" fill-opacity=".5" d="M362.4 88.5l7.6-2 .4 1.5-7.6 2z"/><path fill="#cbd1d3" fill-opacity=".5" d="M146.8 133.5l-1.6-.2 6.5-52.7 1.5.2z"/><path fill="#fff" fill-opacity=".5" d="M184.9 24.6L180.7 46l-1.5-.3 4.2-21.4z"/><path fill="#edecff" fill-opacity=".5" d="M267.1 42l3.3-23.2 1.5.2-3.2 23.2z"/><path fill="#403935" fill-opacity=".5" d="M343 64.8v9.4h-22v-9.4z"/><path fill="#7a000b" fill-opacity=".5" d="M154 21.1l4.4 27.8-1.5.3-4.4-27.8z"/><path fill="#11161b" fill-opacity=".5" d="M41.4 159l.1-1.6 74.9 4v1.5z"/><path fill="#eeebf4" fill-opacity=".5" d="M235.4 119.4l43-7.6.3 1.6-43 7.6z"/><path fill="#bec0cf" fill-opacity=".5" d="M63.4 15.7l-.2-6.3L110 7.8l.3 6.2z"/><path fill="#000105" fill-opacity=".5" d="M-5.8 192.7l-5.4-34 18.6-3 5.3 34z"/><path fill="#d8e7eb" fill-opacity=".5" d="M228.3 93l-.3 15.6h-4.7l.3-15.7z"/><path fill="#eff1ff" fill-opacity=".5" d="M237.4 84.5l-64-3.4.1-1.5 64 3.3z"/><path fill="#b5c6e7" fill-opacity=".5" d="M61.8 95.2L57 81.9l1.5-.5 4.8 13.2z"/><path fill="#00050c" fill-opacity=".5" d="M18.6 85.9l21.7-2.3L55 222l-22 2.2z"/><path fill="#d7e3dd" fill-opacity=".5" d="M320 91.3l.6 15.6-4.7.2-.5-15.6z"/><path fill="#00101a" fill-opacity=".5" d="M371.9-21.4l3 43.6-10.9.8-3-43.7z"/><path fill="#001c27" fill-opacity=".5" d="M302.5 48l-9.3.8-.4-4.6 9.3-.8z"/><path fill="#0b4b4c" fill-opacity=".5" d="M285.5 115l.5 1.5-29.3 10.7-.6-1.5z"/><path fill="#292732" fill-opacity=".5" d="M192.2 67.2h-114v-1.6h114z"/><path fill="#e6ecf5" fill-opacity=".5" d="M206.4 26.4l-1.3-.8 8.8-13 1.3.9z"/><path fill="#003b3c" fill-opacity=".5" d="M176.6 82.8l1.6.2-3.3 26.4-1.5-.2z"/><path fill="#00080a" fill-opacity=".5" d="M309.4 25.2l10.4-3.4.5 1.5-10.4 3.4z"/><path fill="#803627" fill-opacity=".5" d="M62.3 138.7l6.9-24 4.5 1.3-7 24z"/><path fill="#d8d3db" fill-opacity=".5" d="M331.5 131.9l8-15.2 5.6 3-8 15.1z"/><path fill="#837665" fill-opacity=".5" d="M376 103.2l-.4-10.9 6.2-.2.4 11z"/><path fill="#e1e6b7" fill-opacity=".5" d="M134.2 32.8l3.5 20-1.5.3-3.6-20z"/><path fill="#d9d2d0" fill-opacity=".5" d="M281.2 39.4l1.4-.5 9.7 26.4-1.5.5z"/><path fill="#d2ddf2" fill-opacity=".5" d="M172 15.3l6 41.7-7.7 1-6-41.7z"/><path fill="#cdcfe1" fill-opacity=".5" d="M333 43.6l-.7 3-19.9-4.2.6-3z"/><path fill="#83a1b8" fill-opacity=".5" d="M4.2 76l-3 .7-3.9-16.8 3-.7z"/><path fill="#7d0000" fill-opacity=".5" d="M309.8 110.1h-1.6l-.8-21.8h1.6z"/><path fill="#efffff" fill-opacity=".5" d="M215.5 95.4l-4.7-.2.3-7.8 4.7.2z"/><path fill="#eff7ff" fill-opacity=".5" d="M161.6 91.6l6 1.5-2.6 10.6-6-1.5z"/><path fill="#2a4d55" fill-opacity=".5" d="M331 49.5l-1.5.2-9-50.7 1.6-.3z"/><path fill="#861315" fill-opacity=".5" d="M225.7 83.1l11 19-1.4.7-11-19z"/><path fill="#235654" fill-opacity=".5" d="M161.7 98.5l4 4.8-7.1 6-4-4.8z"/><path fill="#000a00" fill-opacity=".5" d="M322.2 45.2l.7 3-9.2 2-.6-3.1z"/><path fill="#fdedd4" fill-opacity=".5" d="M217.6 47l-9.8-10 1.2-1 9.7 10z"/><path fill="#dcd8d2" fill-opacity=".5" d="M80 58.6l4.2-13.4 3 .9L83 59.5z"/><path fill="#eddfb1" fill-opacity=".5" d="M120.8 110.2l-1-28.1h1.6l1 28z"/><path fill="#991129" fill-opacity=".5" d="M131.8 43.9l-12.2 2.6-3-13.8 12.3-2.6z"/><path fill="#cee2e1" fill-opacity=".5" d="M127 60.1l-4-21.5 1.6-.3 3.7 21.6z"/><path fill="#bfbfd7" fill-opacity=".5" d="M336.7 76l-4.6 37.2-1.6-.2 4.6-37.2z"/><path fill="#8f0011" fill-opacity=".5" d="M76.6 42L61.4 26.3l1.1-1.1 15.2 15.7z"/><path fill="#7c6665" fill-opacity=".5" d="M160.1 163l31.7 8.5-.4 1.5-31.7-8.5z"/><path fill="#275495" fill-opacity=".5" d="M187.2 142.7L175.5 119l1.4-.7 11.7 23.9z"/><path fill="#d7daea" fill-opacity=".5" d="M73 47.6l-1.4.8-14.9-25.7 1.4-.8z"/><path fill="#fcffff" fill-opacity=".5" d="M205.3 55.4L201 43.6l1.5-.5 4.3 11.7z"/><path fill="#aeb7d2" fill-opacity=".5" d="M349.7 67.1l1.2 1-14.7 16.3-1.1-1z"/><path fill-opacity=".5" d="M101.9 170.9l5.5 7.6-20.2 14.7-5.5-7.6z"/><path fill="#910006" fill-opacity=".5" d="M97.2 42.7l-6.8-20.8 1.5-.5 6.8 20.8z"/><path fill="#fffef0" fill-opacity=".5" d="M261.6 100.8l-1.3-15.5 1.5-.2 1.4 15.6z"/><path fill="#29494f" fill-opacity=".5" d="M335.1 143.1l-53-1.8v-1.6l53 1.9z"/><path fill="#0e233f" fill-opacity=".5" d="M16.4 44.8L-7-42.8l1.5-.4L18 44.3z"/><path fill="#ebfbff" fill-opacity=".5" d="M183.7 130.8l4.5-19.8 1.6.4-4.6 19.8z"/><path fill="#033081" fill-opacity=".5" d="M169.5 25l15.4-3 .3 1.5-15.4 3z"/><path fill="#ffffe9" fill-opacity=".5" d="M253 21l1.4.7-2.7 5.7-1.4-.7z"/><path fill="#d8f1f5" fill-opacity=".5" d="M233.7 97.3l2-6L246 95l-2 6z"/><path fill-opacity=".5" d="M170.7 207.2l-5.4 3.2-22-38 5.5-3z"/><path fill="#940218" fill-opacity=".5" d="M295.3 85.3l6.3 27.4-1.5.4-6.4-27.4z"/><path fill="#cbd2d5" fill-opacity=".5" d="M111.7 57l-1.5 43.8h-1.6l1.5-43.8z"/><path fill="#811f32" fill-opacity=".5" d="M197 106.3l-1.5-.2 2.8-23.3 1.6.2z"/><path fill="#a07250" fill-opacity=".5" d="M64.1 140.8v-1.5L175 145l-.1 1.6z"/><path fill="#fff0f3" fill-opacity=".5" d="M302.9 138.7l6.6 14.1-1.4.7-6.6-14.2z"/><path fill="#ac9389" fill-opacity=".5" d="M228.2 190l12 14.3-1.2 1-12-14.3z"/><path fill="#b6bad3" fill-opacity=".5" d="M145.4 150l-.5 6.2-88.8-7.7.6-6.3z"/><path fill="#24594e" fill-opacity=".5" d="M89.8 101.6h37.5v4.6H89.8z"/><path fill="#c8bcc3" fill-opacity=".5" d="M192.2 124.9l-1.6-.2 6.3-44.9 1.6.2z"/><path fill="#18465f" fill-opacity=".5" d="M414.2 90.6L373.1 81l1.8-7.6 41 9.5z"/><path fill="#dddbed" fill-opacity=".5" d="M243.8 73.8l49.2 8.7-.8 4.6-49.3-8.7z"/><path fill="#cddaec" fill-opacity=".5" d="M174.1 122l1.6-.2 1.7 20.3-1.5.1z"/><path fill="#002d39" fill-opacity=".5" d="M113 83.2l9.6 21.4-2.9 1.3-9.5-21.4z"/><path fill="#c4e1ff" fill-opacity=".5" d="M187.4 118.4l-45.2-2.4v-1.6l45.3 2.4z"/><path fill-opacity=".5" d="M245.7 199.4l7.6-22.2 8.9 3-7.7 22.3z"/><path fill="#031b22" fill-opacity=".5" d="M13.4 58.2l-3.6 12-6-1.9 3.6-12z"/><path fill="#002da5" fill-opacity=".5" d="M185.8 44.5l-1.6-.2 3.5-21.6 1.5.2z"/><path fill="#e4e7e8" fill-opacity=".5" d="M226.4 38l-16-6.1 2.2-5.9 16 6.2z"/><path fill="#154045" fill-opacity=".5" d="M255.5 118.8h75v1.5h-75z"/><path fill="#002625" fill-opacity=".5" d="M299.7 33.4l6.6 8.8-1.3 1-6.6-8.8z"/><path fill="#d6d6e6" fill-opacity=".5" d="M284.4 24.2l1.5.5-3 8.9-1.6-.5z"/><path fill="#e3dbd7" fill-opacity=".5" d="M150.8 24.3l4.6 37.2-1.5.2-4.6-37.2z"/><path fill="#684f44" fill-opacity=".5" d="M335.6 171.6l-34.1 40.7-1.2-1 34.1-40.7z"/><path fill="#00238b" fill-opacity=".5" d="M203.1 22l6.2 29-1.5.4-6.2-29z"/><path fill="#002c39" fill-opacity=".5" d="M138.6 81.2l1.5-.4 7.3 23.9-1.5.5z"/><path fill-opacity=".5" d="M155.5 222.4l-21.3-43.6 5.6-2.7 21.3 43.5z"/><path fill="#91081d" fill-opacity=".5" d="M82.4 21.7l1.6-.4 7 30.5-1.5.3z"/><path fill="#00040c" fill-opacity=".5" d="M247 15.2l8.3 4.1-.6 1.4-8.5-4z"/><path fill="#1f3e6c" fill-opacity=".5" d="M235.8 130.1l.2 1.6-32.8 2.3v-1.6z"/><path fill="#8e9fc1" fill-opacity=".5" d="M5.7 40.2L2.2 18.6l6.2-1 3.4 21.6z"/><path fill-opacity=".5" d="M88.3 209.7l22.7-27.9 8.5 6.9-22.7 28z"/><path fill="#9c1821" fill-opacity=".5" d="M317.8 112l-1-1.2 20-15 1 1.2z"/><path fill="#00040a" fill-opacity=".5" d="M337 164.5l37 12-12.5 38.7-37.1-12z"/><path fill="#fff" fill-opacity=".5" d="M300.1 44.4l-4.7.2-.2-6.2 4.7-.2z"/><path fill="#fffecf" fill-opacity=".5" d="M104.6 100h1.6l.1 11h-1.5z"/><path fill="#919ba5" fill-opacity=".5" d="M388.2 204.4l-1.4-.8 11-19 1.3.8z"/><path fill="#d0cde3" fill-opacity=".5" d="M64.2 113.7l-1.5.3-3.4-13.6 1.5-.4z"/><path fill="#fbf0cb" fill-opacity=".5" d="M110.9 32l1.4.5-2.8 9-1.5-.6z"/><path fill="#e6d3be" fill-opacity=".5" d="M198.7 113.3l-.6 34.4h-1.5l.6-34.4z"/><path fill="#002432" fill-opacity=".5" d="M335.1 121.1l-7.8 25.4-1.5-.4 7.8-25.4z"/><path fill="#7f8892" fill-opacity=".5" d="M392.8 173.6l-3 .6-6-30.6 3-.6z"/><path fill="#d8dbee" fill-opacity=".5" d="M269.7 158.5l-20.8-6.8 4.8-14.9 20.8 6.8z"/><path fill="#001436" fill-opacity=".5" d="M249.2 19.6l-1.5 28h-1.6l1.5-28z"/><path fill="#dde1f3" fill-opacity=".5" d="M179.9 56l5.9-41.8 1.5.2-5.9 41.8z"/><path fill="#00080c" fill-opacity=".5" d="M30.4 235L2 222.3l31.7-71.4 28.6 12.7z"/><path fill="#dfdfdc" fill-opacity=".5" d="M200.8 139.8l1.5-28.1h1.6l-1.5 28.2z"/><path fill="#b0b4cd" fill-opacity=".5" d="M343.4 96.9l-8-17 7.1-3.3 8 17z"/><path fill="#440016" fill-opacity=".5" d="M75.4 138.3l-.8-21.9h1.6l.7 21.8z"/><path fill="#dad6ca" fill-opacity=".5" d="M328.2 83.8l-3.3 31-1.5-.1 3.2-31.1z"/><path fill="#d1e5e0" fill-opacity=".5" d="M126.7 31.9l1.3-15.6 3.1.3-1.3 15.5z"/><path fill="#5b5c58" fill-opacity=".5" d="M36-.3l1.4 39-15.6.6-1.4-39z"/><path fill="#27427e" fill-opacity=".5" d="M224.9 118l-34.7 29.2-1-1.2 34.7-29.1z"/><path fill="#272511" fill-opacity=".5" d="M129 7V-5.5h121.8V7z"/><path fill="#d1d5d8" fill-opacity=".5" d="M116.7 36.7l1 53.1H116l-1-53z"/><path fill="#c4bec7" fill-opacity=".5" d="M76 115.8L74 136l-1.6-.2 2.1-20.2z"/><path fill="#a1a8b8" fill-opacity=".5" d="M145.2 76.3l-.1 1.6L43.9 69l.1-1.5z"/><path fill="#03a" fill-opacity=".5" d="M230.5 22.8l-1.6 18.6-1.6-.1 1.6-18.7z"/><path fill="#002c2a" fill-opacity=".5" d="M291.5 130.7l.7-1.4 8.4 4-.6 1.5z"/><path fill="#ebdae2" fill-opacity=".5" d="M79 88l4.4-4.3 11 11-4.4 4.4z"/><path fill="#c3ab81" fill-opacity=".5" d="M118.8 143.3v-1.5l135.8 7v1.6z"/><path fill="#dcceb8" fill-opacity=".5" d="M306.6 118l-3.8-43.6 1.5-.2 3.9 43.6z"/><path fill="#3c5998" fill-opacity=".5" d="M146.9 142.2v-1.6l45.3 3.2-.1 1.5z"/><path fill="#2b261e" fill-opacity=".5" d="M348.1 96.2l3.9-19.9 4.6.9-3.9 20z"/><path fill="#0e4249" fill-opacity=".5" d="M285.8 22.7l3.4 27.9-1.5.2-3.5-28z"/><path fill="#001b16" fill-opacity=".5" d="M317.7 32.4l.8 1.3-6.5 4.2-.9-1.3z"/><path fill-opacity=".5" d="M9.2 121.1l6 26-22.8 5.2-6-25.9z"/><path fill="#1f4a58" fill-opacity=".5" d="M389.6 21.3l-5.7-40.2 6.2-.9 5.7 40.3z"/><path fill="#971127" fill-opacity=".5" d="M106 21.9l3.6 29.5-1.5.1-3.7-29.4z"/><path fill="#fff5e1" fill-opacity=".5" d="M285.7 32.2l1.3-.8 4 6.7-1.4.8z"/><path fill="#890519" fill-opacity=".5" d="M121.8 23l1.4-.6 9.7 28.1-1.5.5z"/><path fill="#122628" fill-opacity=".5" d="M53.5 95.2l-7-79.4h1.6L55 95z"/><path fill="#e3b992" fill-opacity=".5" d="M271.3 82.3l1.5-.2 4.4 31-1.6.1z"/><path fill="#cad7d1" fill-opacity=".5" d="M331.7 122l-4.2 8.3-1.4-.7 4.2-8.4z"/><path fill="#ece4e1" fill-opacity=".5" d="M135.5 101l-8.8 13-1.2-1 8.7-12.9z"/><path fill="#9b3339" fill-opacity=".5" d="M106.4 132.8l35.4-6.2.3 1.5-35.4 6.3z"/><path fill="#001317" fill-opacity=".5" d="M47.7-20.5l3 85.9-12.5.4-3-85.9z"/><path fill="#285961" fill-opacity=".5" d="M153.7 101l-7-17.4 4.3-1.8 7 17.4z"/><path fill="#650000" fill-opacity=".5" d="M157.7 36.5l.6-1.4 4.3 1.9-.6 1.4z"/><path fill="#f4d3aa" fill-opacity=".5" d="M268.7 139.7v-3l11 .1v3.1z"/><path fill-opacity=".5" d="M20.6 82.6L36.4 115l-21 10.3L-.5 92.9z"/><path fill="#000305" fill-opacity=".5" d="M-15 185.6l-4.2-6.6 35.8-22.4 4.1 6.6z"/><path fill="#cdd5f2" fill-opacity=".5" d="M57.7 119.7l6.5 30.6-1.6.3-6.5-30.6z"/><path fill="#d5d8f0" fill-opacity=".5" d="M331.2 21l-70.3-1.3.1-7.8 70.3 1.2z"/><path fill="#001127" fill-opacity=".5" d="M272 133.6l-.3-9.4h1.6l.3 9.4z"/><path fill="#ddf6cc" fill-opacity=".5" d="M250.4 92.9l-1.3.9-7.3-10.1 1.3-1z"/><path fill-opacity=".5" d="M310.3 198.9l-6.9 3.8-12.1-21.9 6.8-3.8z"/><path fill="#000290" fill-opacity=".5" d="M166.4 118l-1.5 21.9-1.6-.1 1.5-21.9z"/><path fill="#d5ab81" fill-opacity=".5" d="M58.7 56v-1.6l109.2-5.7v1.6z"/><path fill="#000a0f" fill-opacity=".5" d="M407 184.6l-10 19.5-5.5-2.8 9.9-19.5z"/><path fill="#d7def0" fill-opacity=".5" d="M391 60.6l-2 4.1-9.8-5 2.1-4.1z"/><path fill="#000205" fill-opacity=".5" d="M117.8 227.6l-4.5-1.2 17.3-65 4.6 1.3z"/><path fill="#253c31" fill-opacity=".5" d="M73.5 87.4l-4.9 18.2-3-.9 4.8-18z"/><path fill="#ffd9b0" fill-opacity=".5" d="M283.1 90.3l-3.8 15.1-1.5-.4 3.8-15.1z"/><path fill="#000203" fill-opacity=".5" d="M292.7 226l-17.8-51.6 5.9-2 17.8 51.7z"/><path fill="#dbb980" fill-opacity=".5" d="M210.3 35.1l1.6.2-2 15.5-1.5-.2z"/><path fill="#e8f9d9" fill-opacity=".5" d="M145.7 45.4l-1.5-.4 2.3-10.7 1.5.4z"/><path fill="#d4b996" fill-opacity=".5" d="M266.3 114.1L204 111v-1.6l62.5 3.3z"/><path fill="#00228b" fill-opacity=".5" d="M198.4 43.5l-1.5-.5 6.3-19.3 1.5.5z"/><path fill="#dacfc1" fill-opacity=".5" d="M306.6 137.8l12-3.5 1.3 4.5-12 3.5z"/><path fill="#e8d7c6" fill-opacity=".5" d="M327.6 30.6l1.2-4.5 4.5 1.1-1.1 4.5z"/><path fill="#900011" fill-opacity=".5" d="M129 115.6l1.4 26.5-1.6.1-1.4-26.5z"/><path fill="#8996ae" fill-opacity=".5" d="M389.5 15l9.6 31.4-9 2.7-9.5-31.4z"/><path fill="#14454f" fill-opacity=".5" d="M137.5 81l3 16.9-4.6.8-3-17z"/><path fill="#d9a79b" fill-opacity=".5" d="M115.2 98.4l.8 48.5h-1.5l-.9-48.4z"/><path fill="#e5dbbc" fill-opacity=".5" d="M96.1 143.8l-1.6-.1 1.6-29.7 1.6.1z"/><path fill="#d0d6d6" fill-opacity=".5" d="M121.3 11.7l1.5.1-1.9 21.8-1.5-.1z"/><path fill="#3d3841" fill-opacity=".5" d="M328.1 65.6v1.6H129.7v-1.6z"/><path fill="#deb790" fill-opacity=".5" d="M215.2 116.4l.8 21.8-1.6.1-.7-21.9z"/><path fill="#915553" fill-opacity=".5" d="M80.7 194.3l-1.4.6-14.7-34.5 1.4-.6z"/><path fill="#101815" fill-opacity=".5" d="M381.3 153.7l-4.6-1 12.3-58 4.6 1z"/><path fill="#074248" fill-opacity=".5" d="M294.1 156l2.4-13.8 1.6.2-2.5 13.9z"/><path fill-opacity=".5" d="M247.1 178.9l-12.8 13.7-8-7.4 12.8-13.8z"/><path fill="#0038a4" fill-opacity=".5" d="M158.2 116.4l-.8 25h-1.6l.9-25z"/><path fill="#85888f" fill-opacity=".5" d="M61.7 65.6v-1.5h112.5v1.5z"/><path fill="#d4d7ed" fill-opacity=".5" d="M171 141.4h-1.6l-1.3-37.5h1.6z"/><path fill="#050409" fill-opacity=".5" d="M210.1 164.5l-.1 1.6-46.7-4 .1-1.6z"/><path fill-opacity=".5" d="M264 182.9l9.3-1.4 4.8 34-9.3 1.4z"/><path fill="#bebeb3" fill-opacity=".5" d="M276.7 120.5l-29.1 18.2-.9-1.3L276 119z"/><path fill="#094346" fill-opacity=".5" d="M268 136.4l-10-4.1.5-1.5 10.1 4.1z"/><path fill="#871911" fill-opacity=".5" d="M225.1 97.7l-16.9 3-.5-3 16.9-3z"/><path fill="#05252a" fill-opacity=".5" d="M60.6-.6L73 .7l-.8 7.7-12.4-1.3z"/><path fill="#9b0617" fill-opacity=".5" d="M316.8 87.7l1.4.5-5.3 16.3-1.5-.5z"/><path fill="#e7d0ba" fill-opacity=".5" d="M158.6 112.5h1.6l-1.6 29.7H157z"/><path fill="#002e37" fill-opacity=".5" d="M252.7 27.7l7 17.4-1.4.6-7-17.4z"/><path fill="#a2121f" fill-opacity=".5" d="M187.8 85.1l4.1-2.3 3 5.5-4 2.3z"/><path fill="#003436" fill-opacity=".5" d="M279.3 25.8l3.9 24.7-1.5.2-4-24.6z"/><path fill="#e2dcca" fill-opacity=".5" d="M287.7 149.8l1.3-.9 6.1 9.1-1.3.9z"/><path fill="#7a6b68" fill-opacity=".5" d="M119.6 166.7l1.2 1-42 48.4-1.2-1z"/><path fill="#857364" fill-opacity=".5" d="M395.2 93l9.3 1.5-1.3 7.7-9.2-1.4z"/><path fill="#002940" fill-opacity=".5" d="M293 27.2l-.7-1.5 10-4.4.7 1.4z"/><path fill="#b67f7c" fill-opacity=".5" d="M318 201.1l-1.4-.9 10.8-15.4 1.3 1z"/><path fill="#9a8773" fill-opacity=".5" d="M383.9 122.8l-9.3 1.3-.7-4.7 9.3-1.3z"/><path fill="#dab79f" fill-opacity=".5" d="M102.2 136l-1.5-.2 1.8-20.2 1.5.1z"/><path fill="#d6dae8" fill-opacity=".5" d="M324.1 79.2L312 91.3l-3.3-3.3 12.1-12z"/><path fill="#e6f5f8" fill-opacity=".5" d="M210.5 99.8l7.4 2.3-1.8 6-7.5-2.3z"/><path fill="#000995" fill-opacity=".5" d="M193.9 40.6h-1.6l-.3-17.1h1.6z"/><path fill="#942635" fill-opacity=".5" d="M201 107.3l4.4-16.6 1.5.4-4.5 16.6z"/><path fill="#cfbbaf" fill-opacity=".5" d="M293.8 138.5l-1.5.3-9.5-53.9 1.5-.2z"/><path fill="#9798a5" fill-opacity=".5" d="M247.7 70.3L63.3 73.5v-1.6l184.3-3.2z"/><path fill="#002a32" fill-opacity=".5" d="M93.7 104l-1.4.7-3.2-7.2 1.4-.6z"/><path fill="#b11324" fill-opacity=".5" d="M208.6 85.7v-1.5l25 .4v1.6z"/><path fill="#c1becc" fill-opacity=".5" d="M74.2 77.3v-6.2h84.4v6.2z"/><path fill="#00221f" fill-opacity=".5" d="M271.2 47.4l-6 2-.4-1.5 5.9-2z"/><path fill="#c4b8dc" fill-opacity=".5" d="M78.6 136.8l-1.6-.3 2.2-15.4 1.6.2z"/><path fill-opacity=".5" d="M159.4 163.4l18.3 17-4.3 4.6-18.3-17z"/><path fill="#c59e8e" fill-opacity=".5" d="M108.8 114.1l-2 36-1.5-.2 1.9-35.9z"/><path fill="#6a7c97" fill-opacity=".5" d="M-2-34.1L27 66.5l-1.5.4-29-100.6z"/><path fill="#d2d3e7" fill-opacity=".5" d="M140.2 77.6L138 90l-1.6-.3 2.4-12.3z"/><path fill-opacity=".5" d="M412.8 96l-.4 1.5L370 86.9l.4-1.5z"/><path fill="#0d2735" fill-opacity=".5" d="M12.6 36.8L9.3 83.6l-1.6-.1L11 36.7z"/><path fill="#bfcec0" fill-opacity=".5" d="M202.9 81.4l-2.6 29.5h-1.6l2.6-29.7z"/><path fill="#cac7c4" fill-opacity=".5" d="M291.9 69.5l1.5.2-2.4 28-1.6-.2z"/><path fill="#e1f6ff" fill-opacity=".5" d="M179 90l5-11.5 4.3 1.9-5.1 11.4z"/><path fill="#003392" fill-opacity=".5" d="M239.5 145.3l-1.6-.1 2.3-26.5 1.6.2z"/><path fill="#91202c" fill-opacity=".5" d="M277.9 85.1l1.5.2-2.6 24.9-1.5-.2z"/><path fill="#9f454f" fill-opacity=".5" d="M103.9 118.5l37.4-2.6.1 1.5-37.4 2.7z"/><path fill="#eae3e1" fill-opacity=".5" d="M216.8 100.8h-1.6l.8-22 1.6.1z"/><path fill="#78869b" fill-opacity=".5" d="M18.6 67.3l-1.5.4L8 24.9l1.5-.4z"/><path fill="#e7d5cb" fill-opacity=".5" d="M298.3 104.6L286 135l-1.5-.5 12.3-30.5z"/><path fill="#0d323b" fill-opacity=".5" d="M334.8 138.3l1.5.3-3.9 18.4-1.5-.3z"/><path fill="#dadff4" fill-opacity=".5" d="M68.4 72.8l-.9 12.5-3-.3.8-12.4z"/><path fill="#000705" fill-opacity=".5" d="M297.4 171.3l3.6-7 25 12.8-3.5 7z"/><path fill="#204285" fill-opacity=".5" d="M200 49.7l-.3 1.5-10.7-2.5.4-1.5z"/><path fill="#98000d" fill-opacity=".5" d="M77.5 23L70 17.3l1-1.2 7.4 5.6z"/><path fill="#ffde75" fill-opacity=".5" d="M187.4 146.1h-1.6l.2-12.5h1.6z"/><path fill="#c8cee3" fill-opacity=".5" d="M53.4 53.6l9.2-6 4.3 6.6-9.2 6z"/><path fill="#002a4d" fill-opacity=".5" d="M359.8-21.9l1.5.2-3.9 45.1-1.6-.1z"/><path fill="#f5e5e7" fill-opacity=".5" d="M144.9 92.2h-1.6l.9-17.2h1.6z"/><path fill="#848996" fill-opacity=".5" d="M52.5 151.4l-3-.5 9-50.8 3 .6z"/><path fill="#f6db89" fill-opacity=".5" d="M150 139.8v-18.7h1.6v18.7z"/><path fill="#2e525a" fill-opacity=".5" d="M279.2 156.6l7.3-46.3 1.5.3-7.3 46.3z"/><path fill="#d5b499" fill-opacity=".5" d="M330.5 140.5l1.5.4-1.6 7.6-1.5-.3z"/><path fill="#c7d2ea" fill-opacity=".5" d="M89.8 142.8l-1.5.1L83.6 90l1.6-.1z"/><path fill="#003a48" fill-opacity=".5" d="M168.2 94.6l.7-1.4 8.3 4.4-.8 1.4z"/><path fill="#9d969d" fill-opacity=".5" d="M190.7 7l132.7 4.7v1.6L190.6 8.6z"/><path fill="#9e0223" fill-opacity=".5" d="M70.8 14l1.1 1.1-10 10-1-1.1z"/><path fill="#dbd8f2" fill-opacity=".5" d="M106.3 13.3v3.1H57.8v-3.1z"/><path fill="#383e42" fill-opacity=".5" d="M42.9 84.2l5.6-14.5 10.2 3.9L53 88.2z"/><path fill="#746b64" fill-opacity=".5" d="M260.4 166.2l1.2 1-36.1 43.1-1.2-1z"/><path fill="#535759" fill-opacity=".5" d="M375.3 190.6l-4-6.7 17.4-10.4 4 6.6z"/><path fill-opacity=".5" d="M392.6 136.7l2.3 21.8-1.6.1L391 137z"/><path fill="#9b2a30" fill-opacity=".5" d="M231.4 96.9l1.1-1.2 15.8 15.2-1.1 1.2z"/><path fill="#001680" fill-opacity=".5" d="M195.2 115l-6.7 4-.8-1.3 6.7-4z"/><path fill="#931827" fill-opacity=".5" d="M112 47.6l-1.6-.4 4.2-18.2 1.6.3z"/><path fill="#fff1f1" fill-opacity=".5" d="M300.6 124.7l-4.7 6.2-1.2-1 4.7-6.1z"/><path fill="#e0dad8" fill-opacity=".5" d="M219.9 94.6L230.5 81l1.2 1L221 95.5z"/><path fill="#102b39" fill-opacity=".5" d="M379.3 82.7l-3 .1-4-76.4 3-.2z"/><path fill="#194588" fill-opacity=".5" d="M223.6 43.1l-2.4 2-15-18 2.3-2z"/><path fill="#002731" fill-opacity=".5" d="M253.6 20l1.5-.5 2.2 5.8-1.4.6z"/><path fill="#dfc0b4" fill-opacity=".5" d="M118.4 38.5l-1.5.4-5.6-19.5 1.5-.5z"/><path fill="#d7d1ca" fill-opacity=".5" d="M227.5 122.2l-2 7.6-1.5-.4 2-7.6z"/><path fill="#8d0710" fill-opacity=".5" d="M69.8 51.4l-1.5.7-5.2-11.3 1.4-.7z"/><path fill="#e1dce9" fill-opacity=".5" d="M256.3 71.3l-3.3 31-1.5-.1 3.3-31.1z"/><path fill="#ebf2ff" fill-opacity=".5" d="M164.4 93.5l1.3.8L159 105l-1.4-.8z"/><path fill="#c7c9e2" fill-opacity=".5" d="M288.1 26.7l-.5-1.5 35.2-12.8.6 1.5z"/><path fill="#2b4c9a" fill-opacity=".5" d="M167.2 118.5l.3-1.5 16.8 3.6-.3 1.5z"/><path fill="#a4000c" fill-opacity=".5" d="M100.2 21.9l-.4 26.5h-1.6l.5-26.5z"/><path fill="#1c3549" fill-opacity=".5" d="M-1.4-55.4l6 112.3-1.7.1-5.8-112.4z"/><path fill="#e2cbce" fill-opacity=".5" d="M92 62.5l-2.8-23.3 1.6-.1 2.8 23.2z"/><path fill-opacity=".5" d="M98 169.3L81.5 174l-3-10.5 16.5-4.7z"/><path fill="#cdd4dc" fill-opacity=".5" d="M216.3 9.4l1.5-.3L229 57.8l-1.5.3z"/><path fill="#e9d5c8" fill-opacity=".5" d="M297 97.4l3-18.5 1.5.2-3 18.6z"/><path fill="#38576c" fill-opacity=".5" d="M390.6 50l1.5.3-3 16.9-1.5-.3z"/><path fill="#b7b19f" fill-opacity=".5" d="M328.8 53.1l-59.3-3 .1-1.7 59.3 3.2z"/><path fill="#9895a0" fill-opacity=".5" d="M189.9 155.6l78.1 1.3v4.7l-78.2-1.3z"/><path fill="#3e3e46" fill-opacity=".5" d="M100.7 68.1l.2-3.1 40.6 2.8-.3 3.1z"/><path fill="#9c9265" fill-opacity=".5" d="M119.5 109.8l-.2 1.5-27.9-3.9.3-1.5z"/><path fill="#000007" fill-opacity=".5" d="M324.6-.7l6-4.9 8.9 11-6 4.9z"/><path fill="#8a4d50" fill-opacity=".5" d="M81.2 117.8l-.3 1.5L61 115l.3-1.6z"/><path fill="#939591" fill-opacity=".5" d="M373 37.5l-1.4.5-5.6-14.5 1.5-.6z"/><path fill="#003040" fill-opacity=".5" d="M272.5 153.4l-1.2-7.7 4.6-.7 1.2 7.7z"/><path fill="#1c427c" fill-opacity=".5" d="M178 35.2l3.4 15.2-1.5.4-3.5-15.3z"/><path fill="#cec5bd" fill-opacity=".5" d="M300.9 138.3l23.6-29.1 1.2 1-23.6 29z"/><path fill="#9daab5" fill-opacity=".5" d="M384.8-35l37 67-8.1 4.5-37.1-67z"/><path fill="#003232" fill-opacity=".5" d="M76.3 87.5h1.5l.6 17.2H77z"/><path fill="#aba38d" fill-opacity=".5" d="M194 25.2l1.5-.2 2.8 26.4-1.6.2z"/><path fill="#8a3425" fill-opacity=".5" d="M232 110.8l-1-1.2 10.4-9.4 1 1.1z"/><path fill="#336567" fill-opacity=".5" d="M327.6 136.5l-38.3-7.4.3-1.6 38.3 7.5z"/><path fill="#060605" fill-opacity=".5" d="M378.2 39.1L370 64.4l-6-2 8.2-25.2z"/><path fill="#020b0f" fill-opacity=".5" d="M183 234.5l-8.8-3.2 25.6-70.5 8.8 3.2z"/><path fill="#c6c9b9" fill-opacity=".5" d="M220.4 140.6l-1.6-.2 3-17 1.6.3z"/><path fill="#1c232b" fill-opacity=".5" d="M67.3 101.7l-1.1 1.1-22.5-21.7 1-1.1z"/><path fill="#d3d7da" fill-opacity=".5" d="M303.7 125.8l2 21.7-1.6.2-2-21.8z"/><path fill="#093c29" fill-opacity=".5" d="M258.3 132l-1 1.1-4.7-4 1-1.3z"/><path fill="#5b5856" fill-opacity=".5" d="M215.6 7V5.6L298.4 7v1.5z"/><path fill="#840c29" fill-opacity=".5" d="M142.3 26.6l2.9 23.2-1.6.2-2.8-23.3z"/><path fill="#003f43" fill-opacity=".5" d="M93.3 93.5L88 83.8l1.4-.7 5.2 9.6z"/><path fill="#cbd6f7" fill-opacity=".5" d="M241.3 13l.2 7.9-56.2 2-.3-7.9z"/><path fill="#a0a89d" fill-opacity=".5" d="M278.2 157.7l-1.6-.3 6.2-38.5 1.5.2z"/><path fill="#981e14" fill-opacity=".5" d="M192.7 104.3l-4.5 6.4-1.2-1 4.4-6.3z"/><path fill="#d0cad3" fill-opacity=".5" d="M337.2 29.7l7.6 1.9-2.3 9-7.6-1.8z"/><path fill="#00293a" fill-opacity=".5" d="M285 145l-8.5 3.6-.7-1.4 8.7-3.7z"/><path fill="#7f5b50" fill-opacity=".5" d="M163.6 207l-1.2-1 31.8-36.5 1.2 1z"/><path fill="#1d5455" fill-opacity=".5" d="M328.8 130.3l-.3 1.5-18.3-4.2.4-1.6z"/><path fill="#003130" fill-opacity=".5" d="M330.4 32.1l1.5.4-4.5 18.2-1.5-.4z"/><path fill="#003e43" fill-opacity=".5" d="M267 42l-3.2.3-1-20.3 3-.2z"/><path fill="#d7d4e1" fill-opacity=".5" d="M81.3 11.9l-3.3 31-1.5-.1 3.3-31z"/><path fill="#a19eae" fill-opacity=".5" d="M55.4-10.1H57l1.7 96.8H57z"/><path fill="#34549a" fill-opacity=".5" d="M185 133l-28-3.5.2-1.5 28 3.4z"/><path fill="#b4b1b6" fill-opacity=".5" d="M261.6 150.8l.4-1.5 56 14-.3 1.5z"/><path fill="#d2daf8" fill-opacity=".5" d="M244.8 26.4l1 29.7-10.9.3-1-29.6z"/><path fill="#00175b" fill-opacity=".5" d="M218.4 126.5l.6 17.2h-1.5l-.6-17.1z"/><path fill="#002c9a" fill-opacity=".5" d="M179.7 22.2L176.5 36l-1.5-.3 3.2-13.7z"/><path fill="#880010" fill-opacity=".5" d="M100.1 117.2l-.3 17.2h-1.5l.3-17.2z"/><path fill="#002c38" fill-opacity=".5" d="M320 141.2l.4 1.5-10.8 2-.3-1.5z"/><path fill="#f7dce4" fill-opacity=".5" d="M143 22.2l1.3.9-4.6 6.3-1.2-1z"/><path fill="#890e1e" fill-opacity=".5" d="M265.1 91.9l7.1 14-1.4.6-7-13.9z"/><path fill="#813333" fill-opacity=".5" d="M125.4 142.4l-.7 1.5-14.1-6.6.6-1.5z"/><path fill="#f6e3f9" fill-opacity=".5" d="M289.3 139l-.4-3.2 10.9-1.3.3 3.1z"/><path fill="#686a6a" fill-opacity=".5" d="M-13.1 210.7l-1-1.3 28.8-21.6.9 1.2z"/><path fill="#aa1a21" fill-opacity=".5" d="M259.7 84.7l1.5.4-6.8 22.4-1.5-.4z"/><path fill="#cdcdda" fill-opacity=".5" d="M326.6 52.2l-3.1.2-1.7-31.2 3.2-.2z"/><path fill="#e0e2f5" fill-opacity=".5" d="M280.2 61.4l-1.5.3-4.2-21.5 1.5-.3z"/><path fill="#535e65" fill-opacity=".5" d="M19.5 81.3l.1-1.6 43.7 3-.1 1.6z"/><path fill="#efcd88" fill-opacity=".5" d="M208.3 34.3l-1.6.1-.9-17.2h1.6z"/><path fill="#002639" fill-opacity=".5" d="M90 77.6l.6-1.4 8.5 4-.7 1.4z"/><path fill="#000002" fill-opacity=".5" d="M160.5 182l12.2 12.2-6.7 6.6-12.1-12.2z"/><path fill="#fff8ff" fill-opacity=".5" d="M152.2 126.2l1.4-.5 2 6-1.4.4z"/><path fill="#e3d7ca" fill-opacity=".5" d="M268.8 118.7l-23.3 1.6-.3-3 23.4-1.7z"/><path fill="#0b3535" fill-opacity=".5" d="M336.7 118.4v1.6l-40.6.7V119z"/><path fill="#1e342f" fill-opacity=".5" d="M300.7 118l1.1 1-7.1 8.3-1.2-1z"/><path fill="#b6beba" fill-opacity=".5" d="M195.7 140.6l-1.5.7-4-8.5 1.5-.7z"/><path fill="#0d3441" fill-opacity=".5" d="M336.2 49.7l-6.7-19.2 1.5-.5 6.6 19.2z"/><path fill="#001b8d" fill-opacity=".5" d="M209.6 139.8H208l-.4-21.8h1.6z"/><path fill="#0e1817" fill-opacity=".5" d="M385.2 168.2v1.6l-115.7-2v-1.6z"/><path fill-opacity=".5" d="M122.3 167.5l1.5.4-16.4 50.6-1.5-.5z"/><path fill="#00080a" fill-opacity=".5" d="M62.5 218.7l-18.7-46.4 20.3-8.2 18.7 46.4z"/><path fill="#fae0b5" fill-opacity=".5" d="M148.4 109.4V89h1.6v20.3z"/><path fill="#091014" fill-opacity=".5" d="M366.9 206.6l63.4-81.3 1.3 1-63.5 81.2z"/><path fill="#002a3a" fill-opacity=".5" d="M138.4 96l1.5.3-1.7 12.3-1.6-.2z"/><path fill="#8a0a0f" fill-opacity=".5" d="M322.3 86.4l3 1-2.3 6-3-1.2z"/><path fill="#a10000" fill-opacity=".5" d="M94.2 49.2h-1.6l-.8-25h1.5z"/><path fill="#9d3b4a" fill-opacity=".5" d="M198 89l1.5.2-2.1 20.2-1.6-.2z"/><path fill="#c4c3d2" fill-opacity=".5" d="M183.3 140l-7-12.1 1.3-.8 7 12.2z"/><path fill="#5a0b16" fill-opacity=".5" d="M102.5 117.2h1.6l1.2 23.4h-1.6z"/><path fill="#1550aa" fill-opacity=".5" d="M149 118h1.6l-1.2 21.9-1.5-.1z"/><path fill="#83888c" fill-opacity=".5" d="M369 46.2l-3.5 3-8-9.5 3.6-3z"/><path fill="#d3ecfb" fill-opacity=".5" d="M121.7 120.6l6.1 1-1 6.2-6.2-1z"/><path fill="#e6dff6" fill-opacity=".5" d="M315 44.7l-.3-6.3 6.2-.3.4 6.3z"/><path fill="#979ba8" fill-opacity=".5" d="M372.2 77.4L365 87.6l-1.3-.9 7.2-10.2z"/><path fill="#000405" fill-opacity=".5" d="M264.3 166.7l2.5 2-26.4 34.9-2.5-2z"/><path fill="#efce9b" fill-opacity=".5" d="M297 28.1l1.6.4-3.4 13.7-1.6-.4z"/><path fill="#ccd8f7" fill-opacity=".5" d="M176.6 55.6l-114 6-.1-3.1 113.9-6z"/><path fill="#22393f" fill-opacity=".5" d="M35.9 51.6L19 48.1l3-13.8 16.8 3.6z"/><path fill="#d2cac7" fill-opacity=".5" d="M259.2 105.4l1.5.5-12 37.1-1.6-.4z"/><path fill="#678caf" fill-opacity=".5" d="M374.5 15.6h-1.6l1-29.7h1.6z"/><path fill="#807f81" fill-opacity=".5" d="M280 202l-1.5.3-3.8-15.2 1.5-.3z"/><path fill="#edddcd" fill-opacity=".5" d="M311.9 134.2l4.5-8.2 1.4.7-4.5 8.2z"/><path fill="#b19a86" fill-opacity=".5" d="M397 107.4l3 1.1-1.7 4.4-3-1.1z"/><path fill="#d5e6fb" fill-opacity=".5" d="M250.4 121l-16.9-8.2 2-4.2 17 8.2z"/><path fill="#cfc28f" fill-opacity=".5" d="M251.2 129.3l7.3-8.1 1.2 1-7.3 8.2z"/><path fill="#00141a" fill-opacity=".5" d="M122.7 81.3h1.6l1.4 26.5H124z"/><path fill="#003747" fill-opacity=".5" d="M302.6 44l.6 1.5-7.4 2.7-.5-1.5z"/><path fill="#5d686e" fill-opacity=".5" d="M348 11h1.5l4 57.6-1.5.1z"/><path fill="#2c3e5d" fill-opacity=".5" d="M217.2 120.3l.2-1.6 26.3 3.2-.1 1.6z"/><path fill="#d0b7b6" fill-opacity=".5" d="M95.4 34.2l1.4-14 3.1.3-1.4 14z"/><path fill="#5d0000" fill-opacity=".5" d="M118.3 117.2l.9 23.4h-1.6l-.8-23.4z"/><path fill="#9e1a30" fill-opacity=".5" d="M304 86l1.5.4-4.8 22.9-1.6-.3z"/><path fill="#cdb594" fill-opacity=".5" d="M189 50.6l67.2-1.2V51l-67 1z"/><path fill="#f2caa5" fill-opacity=".5" d="M91.7 82.8l10 9.9-1.2 1.1-10-10z"/><path fill="#8993ab" fill-opacity=".5" d="M307.9 75.4l.2-1.5 38.7 5.4-.2 1.5z"/><path fill="#003744" fill-opacity=".5" d="M322.6 145l5.7 2.6-2.5 5.7-5.7-2.5z"/><path fill="#346471" fill-opacity=".5" d="M289 113.4l-6.1 7-4.7-4 6.1-7.1z"/><path fill="#68072a" fill-opacity=".5" d="M226.4 101.8l1.3-.9 3.7 5-1.3 1z"/><path fill="#00353e" fill-opacity=".5" d="M268.6 126.5l.8 1.3-5.1 3.5-1-1.3z"/><path fill="#b6b4b6" fill-opacity=".5" d="M346.6 151.2l.5 1.5-29.6 10.2-.5-1.5z"/><path fill="#5993ec" fill-opacity=".5" d="M188.3 132l-1.6-21.8h1.6l1.5 21.8z"/><path fill="#c3c7db" fill-opacity=".5" d="M243.7 155.5v1.5l-89-4.6v-1.6z"/><path fill="#6f1419" fill-opacity=".5" d="M90 116.4l1.2 21.8-1.6.1-1.1-21.8z"/><path fill="#252724" fill-opacity=".5" d="M363.3 74.3l-10.8 17.3-8-5 10.8-17.2z"/><path fill="#020305" fill-opacity=".5" d="M364.6 101.8l9.2-18 7 3.5-9.3 18z"/><path fill="#736658" fill-opacity=".5" d="M18.6 133.5l4.8 14.9-3 1-4.8-15z"/><path fill="#e8e1ec" fill-opacity=".5" d="M320 30.6l-4.2 2.2-3-5.6L317 25z"/><path fill="#818da0" fill-opacity=".5" d="M65.7 75.7L63 72l16.6-11.7 2.7 3.9z"/><path fill="#000303" fill-opacity=".5" d="M341.8 68.2l4.3-4.6 1.1 1-4.2 4.6z"/><path fill="#d9e3f7" fill-opacity=".5" d="M61 74.7l132.7 6.9v1.6L61 76.2z"/><path fill="#920009" fill-opacity=".5" d="M130.4 45.3L129 25.1l1.5-.1 1.5 20.2z"/><path fill="#0c434b" fill-opacity=".5" d="M106.6 84.5l1.5-.1 2.5 23.3-1.6.1z"/><path fill="#f2e7f5" fill-opacity=".5" d="M233.2 134.2l4.6.4-.6 7.8-4.7-.4z"/><path fill="#878593" fill-opacity=".5" d="M194 76l47.7-8.3.3 1.5-47.7 8.4z"/><path fill-opacity=".5" d="M358.2 129.3l21.6-3.8 1 6.1-21.5 3.8z"/><path fill="#a62034" fill-opacity=".5" d="M294.6 94.3l4.1 2.2-7.3 13.8-4.2-2.2z"/><path fill="#e1d3cf" fill-opacity=".5" d="M255.6 36l-1.2-.9 7.1-10.2 1.3.9z"/><path fill="#ccc9d5" fill-opacity=".5" d="M234.2 69.9l1.6-.2 6.5 46.4-1.5.2z"/><path fill-opacity=".5" d="M132 177.5l-1.5 43.7-7.8-.3 1.5-43.7z"/><path fill="#971e22" fill-opacity=".5" d="M142 145.3l.4-23.4h1.6l-.5 23.4z"/><path fill="#e4d9b4" fill-opacity=".5" d="M66.3 26.2l-1-1.3 7.4-5.7 1 1.2z"/><path fill="#000500" fill-opacity=".5" d="M71.5 94.3l-.6-1.4 2.9-1.3.6 1.5z"/><path fill="#004c5c" fill-opacity=".5" d="M143 109.6l4.8-18 1.5.3-4.9 18.1z"/><path fill="#edecd5" fill-opacity=".5" d="M200.9 54l-1.5-.2 1.3-9.3 1.5.2z"/><path fill="#cfd3e4" fill-opacity=".5" d="M90.7 108.6l89 1.6v4.6l-89.1-1.5z"/><path fill="#c8c6d5" fill-opacity=".5" d="M330.6 38.3L335 63l-1.6.2-4.3-24.6z"/><path fill="#880007" fill-opacity=".5" d="M135.4 44.5l1.1-21.9 1.6.1-1.2 21.9z"/><path fill="#c9aa86" fill-opacity=".5" d="M339 113.2l-51.5 1.8v-1.6l51.5-1.8z"/><path fill="#f1eef7" fill-opacity=".5" d="M287 136.3l4.1-15.1 1.5.4-4 15z"/><path fill="#d6dbea" fill-opacity=".5" d="M248.7 150.4l2.7-17 14 2.2-2.8 17z"/><path fill="#000509" fill-opacity=".5" d="M227.5 187.3l25.4-25.4 5.5 5.5-25.4 25.4z"/><path fill="#7f312d" fill-opacity=".5" d="M61.2 125.8l-1.5-.4 2.6-9 1.5.4z"/><path fill="#050c0e" fill-opacity=".5" d="M16.4 179.1L8.7 191l-23.5-15.3 7.6-11.8z"/><path fill="#264149" fill-opacity=".5" d="M21.7 72.7l.4 11-42.2 1.4-.4-11z"/><path fill="#c0ae99" fill-opacity=".5" d="M208 118l-.3 15.6H206l.3-15.6z"/><path fill="#0c232f" fill-opacity=".5" d="M-10.7 15.1L11.6 3.8l.7 1.4L-10 16.5z"/><path fill="#002473" fill-opacity=".5" d="M218.3 27.4l-4.4-1.8.7-1.5 4.3 1.9z"/><path fill="#eabba7" fill-opacity=".5" d="M66.4 139.1l-1.5-14 1.5-.1 1.5 14z"/><path fill="#0023ab" fill-opacity=".5" d="M243.3 137.5h-1.6l1-17.2h1.5z"/><path fill="#571927" fill-opacity=".5" d="M203.7 95.4l-1.1-11h1.5l1.2 10.8z"/><path fill="#720f1e" fill-opacity=".5" d="M261.7 94.7l-1.5 12.4-1.6-.2 1.5-12.4z"/><path fill="#d3e2e8" fill-opacity=".5" d="M163.1 79.2l1 1.3-10 7.5-1-1.3z"/><path fill="#d2d9cd" fill-opacity=".5" d="M80 103.2l-.7-14L81 89l.7 14z"/><path fill="#7d484d" fill-opacity=".5" d="M192 160.6l4.5 1-2.5 10.7-4.5-1z"/><path fill="#f4e5da" fill-opacity=".5" d="M159.3 99.2l.2-12.5h1.5l-.2 12.5z"/><path fill="#d5d5df" fill-opacity=".5" d="M334.8 150.6l8.8-13 1.3.9-8.8 13z"/><path fill="#001a73" fill-opacity=".5" d="M200.3 145l-.5-3.2 4.6-.8.5 3.1z"/><path fill="#b3b6a9" fill-opacity=".5" d="M279.8 127.6l-1.5-.5 9.1-25 1.5.5z"/><path fill="#757d84" fill-opacity=".5" d="M371.8 83l.4-1.5 10.6 2.7-.3 1.5z"/><path fill="#d3d8e5" fill-opacity=".5" d="M127.5 80.8l6.4-4.5 2.7 3.8-6.4 4.5z"/><path fill="#eddad8" fill-opacity=".5" d="M194.2 93.7l2.2 20.2-1.6.2-2.1-20.2z"/><path fill-opacity=".5" d="M359.5 126.2l-1-1.2 30.4-24.6 1 1.2z"/><path fill="#745d55" fill-opacity=".5" d="M218.9 184.5l-2.9-3.7 13.5-10.6 3 3.7z"/><path fill="#c4c9e6" fill-opacity=".5" d="M305.7 34.7l1.6-.3 4.1 26.3-1.5.2z"/><path fill="#00323e" fill-opacity=".5" d="M166.5 107l1.3-25h1.6l-1.3 25z"/><path fill="#92857a" fill-opacity=".5" d="M159 177.2l1-1.2 16.8 14-1 1.2z"/><path fill="#000e7f" fill-opacity=".5" d="M212.6 132.8h1.6l-.2 11h-1.6z"/><path fill="#777b7f" fill-opacity=".5" d="M55.5 156.3l.1-1.5 34.2 3v1.5z"/><path fill="#004347" fill-opacity=".5" d="M307.5 146l9.4 8.3-1 1.2-9.4-8.2z"/><path fill="#354142" fill-opacity=".5" d="M385.3 91.8l1.5-.5 10.7 31-1.5.5z"/><path fill="#d3ecfd" fill-opacity=".5" d="M151.8 30.9l1 7.8-6.2.7-1-7.7z"/><path fill="#b5b5c7" fill-opacity=".5" d="M333.8 24.7L342 7.8l7 3.5-8.2 16.8z"/><path fill="#001d30" fill-opacity=".5" d="M153.7 107.7l-1.5.1-1.2-17.1 1.5-.1z"/><path fill="#958677" fill-opacity=".5" d="M376.4 132l1.5.5-2.7 9-1.5-.5z"/><path fill="#b5b2a0" fill-opacity=".5" d="M71 139l1.7-23.4 1.6.1-1.7 23.4z"/><path fill="#dddad0" fill-opacity=".5" d="M191.6 24.6l2-4.2 7 3.4-2 4.2z"/><path fill="#001593" fill-opacity=".5" d="M220.3 45.4l.8 1.4-5.4 3.1-.8-1.4z"/><path fill="#001e26" fill-opacity=".5" d="M164.4 82.9l-.7 7.8-1.5-.2.6-7.7z"/><path fill="#e0c8c4" fill-opacity=".5" d="M283.9 31.7l-4.6-1 .9-4.5 4.6.9z"/><path fill="#032f27" fill-opacity=".5" d="M96.4 102.7l7.9-5.1.8 1.3-7.8 5z"/><path fill="#d7d3be" fill-opacity=".5" d="M225.7 147.3l-2.5-1.7 2.6-3.9 2.6 1.8z"/><path fill="#c9c5b8" fill-opacity=".5" d="M126.7 98.5l-1.4-.6 2.6-7.3 1.5.5z"/><path fill="#8e6764" fill-opacity=".5" d="M242.3 207.3l-4.7 4-22.1-26.4 4.8-4z"/><path fill="#000210" fill-opacity=".5" d="M350.9 59.2l4.5-63.9 1.5.1-4.4 64z"/><path fill="#000308" fill-opacity=".5" d="M154.8 162.4l29.2 15-2.8 5.5-29.3-15z"/><path fill="#750010" fill-opacity=".5" d="M122.8 139.7l1.3-9.3 1.5.2-1.3 9.3z"/><path fill="#9c1223" fill-opacity=".5" d="M121.4 49.1l-5.3-27.6 1.5-.3 5.4 27.6z"/><path fill="#0e333f" fill-opacity=".5" d="M285.8 155.6l-1.3-9.2 3.1-.5 1.3 9.3z"/><path fill="#a80017" fill-opacity=".5" d="M249.4 109.4l-1.6-.1 1.3-14 1.5.1z"/><path fill="#7f1325" fill-opacity=".5" d="M281 104.7l.6-17.2h1.5l-.6 17.2z"/><path fill="#d6d3d3" fill-opacity=".5" d="M166.4 127.4l4.8-13.2 1.5.6-4.8 13.2z"/><path fill="#93031b" fill-opacity=".5" d="M272.4 108.5l-1.5.1-1.2-21.8 1.6-.1z"/><path fill="#020001" fill-opacity=".5" d="M225 213.7l-1.5.5-18.7-51.3 1.4-.6z"/><path fill="#27463c" fill-opacity=".5" d="M81.4 94.5l-3.4-12 1.5-.4 3.4 12z"/><path fill="#324b5a" fill-opacity=".5" d="M387.7 51.3L377.6 61l-4.4-4.5 10.2-9.7z"/><path fill="#d8e0f1" fill-opacity=".5" d="M257.8 83.7V79l73.5 1.3-.1 4.7z"/><path fill-opacity=".5" d="M31 75l-.5 1.5-19.3-6.2.5-1.5z"/><path fill="#daeaed" fill-opacity=".5" d="M131.3 104h4.6v3h-4.7z"/><path fill="#d8dff5" fill-opacity=".5" d="M223.2 26l1.6-.2 3.6 34.2-1.6.1z"/><path fill="#cdc7c7" fill-opacity=".5" d="M310 156.5l-7.3-13.8 1.4-.7 7.3 13.8z"/><path fill="#846765" fill-opacity=".5" d="M325 190.9l-25.6 18-1-1.4 25.7-17.9z"/><path fill="#d3ddc7" fill-opacity=".5" d="M156.4 34l2.9-13.7 1.5.3-2.9 13.8z"/><path fill="#6f1a28" fill-opacity=".5" d="M80.4 128.5l-15.6-.8.1-1.5 15.6.8z"/><path fill="#9c9ca5" fill-opacity=".5" d="M86.7 12.5V7.8h71.9v4.7z"/><path fill="#093215" fill-opacity=".5" d="M288.7 47.7l-1.6-.2.8-6.2 1.5.2z"/><path fill="#d2cdd8" fill-opacity=".5" d="M112 114.2l9.4-5.8 2.4 4-9.2 5.8z"/><path fill="#d5e2ff" fill-opacity=".5" d="M120.8 50.8l-8.4 9.3-3.5-3.1 8.4-9.3z"/><path fill="#86011b" fill-opacity=".5" d="M110 132.7l-1.6.1-1.2-17.1 1.6-.1z"/><path fill="#586e7e" fill-opacity=".5" d="M370.8 72.3l.6-1.4 21.9 8.4-.6 1.4z"/><path fill="#002287" fill-opacity=".5" d="M192 24l.3 3.2-4.7.3-.2-3.1z"/><path fill="#9da7ae" fill-opacity=".5" d="M355.7 153.9l1.1-21.9h1.6l-1.2 22z"/><path fill="#6f1630" fill-opacity=".5" d="M264.7 87.5h1.5L265 111l-1.5-.1z"/><path fill="#bceed3" fill-opacity=".5" d="M244.9 98.5l3.8 6.9-1.4.7-3.8-6.8z"/><path fill="#416452" fill-opacity=".5" d="M303.2 149.8L315 160l-1 1.2-11.8-10.3z"/><path fill="#c1c0c5" fill-opacity=".5" d="M245 128.8l10 24.6-1.5.6-10-24.6z"/><path fill="#433c31" fill-opacity=".5" d="M281-3.6l42-2.2.6 11-42.1 2.1z"/><path fill="#91929a" fill-opacity=".5" d="M344-7.6l1.5-.2 5.9 67-1.6.1z"/><path fill="#e0dde0" fill-opacity=".5" d="M216.7 41.9l-7.4-2.6.5-1.5 7.4 2.6z"/><path fill="#8d1019" fill-opacity=".5" d="M87.5 42.3l-13.7 2.9-.4-1.5 13.8-3z"/><path fill="#ffc299" fill-opacity=".5" d="M331.6 152.5l-1.1 1.1-4.3-4.6 1.1-1z"/><path fill="#04242b" fill-opacity=".5" d="M50.4 107.4l-15.6-.8.7-12.5L51 95z"/><path fill="#c4c7d0" fill-opacity=".5" d="M173.7 119.1l1.6-.2 5.7 32.3-1.6.2z"/><path fill="#003b46" fill-opacity=".5" d="M282.7 116.6l-6.4 6.9-1.2-1 6.4-7z"/><path fill="#ced7da" fill-opacity=".5" d="M326 111.7l-2 7.5-4.6-1.2 2-7.5z"/><path fill="#826e6b" fill-opacity=".5" d="M140.3 171.2l16.1 30.3-1.4.8-16.1-30.4z"/><path fill="#5a605b" fill-opacity=".5" d="M287.5 165l30.7 26.6-1 1.2-30.7-26.6z"/><path fill="#922a2a" fill-opacity=".5" d="M152 43l-7.4 10.2-1.2-1 7.3-10z"/><path fill="#002774" fill-opacity=".5" d="M179.7 139.8H178v-6.2h1.6z"/><path fill="#242b35" fill-opacity=".5" d="M45 76.7l-.4-1.5 15.2-3.5.3 1.5z"/><path fill="#e5eaf6" fill-opacity=".5" d="M189.7 60l-1.5.5-7.6-18.8 1.5-.6z"/><path fill="#000506" fill-opacity=".5" d="M113.9 162.9l3.6 3-23.6 29-3.6-2.9z"/><path fill="#f6f0f0" fill-opacity=".5" d="M253.9 15.5l5.6-2.7.7 1.4-5.6 2.7z"/><path fill="#2d3c42" fill-opacity=".5" d="M18.8 64.7l4.8-6.2 12.3 9.6-4.8 6.2z"/><path fill="#00200d" fill-opacity=".5" d="M281.3 110.8l4.7.3-.1 1.5-4.7-.2z"/><path fill="#e5c8ab" fill-opacity=".5" d="M111 145.3v-14h1.5v14z"/><path fill="#aeaaae" fill-opacity=".5" d="M280.5 158l.2-1.6 56 6-.2 1.5z"/><path fill="#494a50" fill-opacity=".5" d="M285.2 164v-1.5h62.5v1.6z"/><path fill="#ccd0e8" fill-opacity=".5" d="M260.2 151l-.1 3.1-103-3.6v-3z"/><path fill="#c4c1c4" fill-opacity=".5" d="M93.1 93l1.5.2-1.8 9.2-1.5-.3z"/><path fill="#d1d7f0" fill-opacity=".5" d="M58.3 57l2.1-40.6H62L59.9 57z"/><path fill="#d2d6e4" fill-opacity=".5" d="M295 160l10.2-19.2 1.4.7-10.3 19.3z"/><path fill="#534f50" fill-opacity=".5" d="M157.2 178l-14-12.6 1.1-1.2 14 12.6z"/><path fill="#002b35" fill-opacity=".5" d="M309.2 47.6l.4-21.8h1.5l-.4 21.9z"/><path fill="#001581" fill-opacity=".5" d="M223.6 129.7h1.5l-.2 14h-1.6z"/><path fill="#637178" fill-opacity=".5" d="M54.6 132.8l3.3 16.9-1.6.3-3.2-16.9z"/><path fill="#efd7be" fill-opacity=".5" d="M95 96l1.4.6-2.3 5.8-1.4-.5z"/><path fill="#e4bf93" fill-opacity=".5" d="M134.9 50.7l-1.6.1-1-28.1h1.6z"/><path fill="#792f25" fill-opacity=".5" d="M62.7 137.7l17 2.7-.2 1.6-17-2.7z"/><path fill="#003092" fill-opacity=".5" d="M185.5 44l2.8-1.4 2.8 5.6-2.9 1.4z"/><path fill="#dbc2ad" fill-opacity=".5" d="M142.6 117.2H141l-.8-23.4h1.6z"/><path fill="#b8ab8c" fill-opacity=".5" d="M211.6 136.7l1.8 12.3-1.6.3-1.7-12.4z"/><path fill="#0e3e40" fill-opacity=".5" d="M116 84.7l-4 23-1.5-.2 4-23z"/><path fill="#5e0000" fill-opacity=".5" d="M79.6 140.6l.2-7.8h1.6l-.3 7.8z"/><path fill="#004a54" fill-opacity=".5" d="M303.4 127.4l1.1-1 6.2 7-1.2 1.1z"/><path fill="#0c151a" fill-opacity=".5" d="M378.3 198.1l-1-1.3 39.7-27.7 1 1.2z"/><path fill="#71859a" fill-opacity=".5" d="M21.8-1L2 4l-.4-1.5 19.7-5z"/><path fill="#2e3238" fill-opacity=".5" d="M233.7 63l-1.9 4.3-1.4-.6 1.8-4.3z"/><path fill="#877e5b" fill-opacity=".5" d="M274 45.4l-1.2-14 1.6-.2 1.2 14z"/><path fill="#7c767a" fill-opacity=".5" d="M99.2 158.8v-1.5l31.3 1v1.6z"/><path fill="#000809" fill-opacity=".5" d="M382.8 174.3l-4.6-18.2 3-.7 4.6 18.2z"/><path fill="#d1defc" fill-opacity=".5" d="M188 110.7l.6-1.4 28 9.6-.5 1.5z"/><path fill="#9d252a" fill-opacity=".5" d="M162.5 41.1l-18.3-17 1.1-1.2 18.3 17z"/><path fill="#555653" fill-opacity=".5" d="M309.8 227.8l-32-62.7 1.5-.7 31.9 62.7z"/><path fill="#a9c3ba" fill-opacity=".5" d="M167.7 80.5l1.5.4-4 15.1-1.6-.4z"/><path fill="#e6b290" fill-opacity=".5" d="M76.6 33.6H78v15.6h-1.5z"/><path fill="#00205d" fill-opacity=".5" d="M209.3 41.5l2.9-1.3 1.9 4.3-2.9 1.2z"/><path fill="#a2203d" fill-opacity=".5" d="M138.1 134.3l.3-17.1h3.2l-.3 17.2z"/><path fill="#ceb39b" fill-opacity=".5" d="M157 107l1.9 2.5-5 3.8-1.9-2.5z"/><path fill="#090f15" fill-opacity=".5" d="M199 180l15 16-24 22.4-15-16z"/><path fill="#cfebff" fill-opacity=".5" d="M253 42.1l.3-4.6h1.5l-.3 4.7z"/><path fill="#8892ae" fill-opacity=".5" d="M15.6 29.9l-6-22.6L14 6l6 22.7z"/><path fill="#c5bbc9" fill-opacity=".5" d="M312 67l.3 1.5-29 6.7-.3-1.5z"/><path fill="#776a62" fill-opacity=".5" d="M19.5 156.3h-25v-7.9h25z"/><path fill="#dee0ff" fill-opacity=".5" d="M307 30l-9 2.4-.4-1.5 9-2.4z"/><path fill="#e1c2a7" fill-opacity=".5" d="M139.6 45.4l3.2-.2.4 7.8-3.1.2z"/><path fill="#e7dae5" fill-opacity=".5" d="M77 82.1l1.4.7-3.8 8.5-1.4-.6z"/><path fill="#c4c7df" fill-opacity=".5" d="M342.5 154l-1.5-.1 2.4-68.8 1.5.1z"/><path fill="#464a4f" fill-opacity=".5" d="M381.4 186.6l34.7-29.1 1 1.2-34.7 29.1z"/><path fill="#dae2d5" fill-opacity=".5" d="M190.7 95.3l-3.1-7.2 1.4-.6 3 7.2z"/><path fill="#a02734" fill-opacity=".5" d="M295.4 90.9l1.5-.3 3 17-1.5.2z"/><path fill="#002835" fill-opacity=".5" d="M301 32.9l1.6-.1 1 14-1.5.1z"/><path fill="#d3be97" fill-opacity=".5" d="M266 104.3l1.5-.4 2.4 9-1.5.4z"/><path fill="#45656b" fill-opacity=".5" d="M289.1 137l-.2 1.6-14-2.2.3-1.6z"/><path fill="#00070a" fill-opacity=".5" d="M133.4 161.2l1-1.2 33.7 30.4-1 1.1z"/><path fill="#f9e7b6" fill-opacity=".5" d="M121.8 105.5h-1.5v-3.2h1.6z"/><path fill="#ebebd7" fill-opacity=".5" d="M249.4 29.5l4.5-8.2 1.4.8-4.5 8.2z"/><path fill="#9a939c" fill-opacity=".5" d="M54 89.1l4.4 35.7-1.5.2-4.4-35.7z"/><path fill="#92132a" fill-opacity=".5" d="M81.9 30l-1.2-7.7 4.6-.7 1.2 7.7z"/><path fill="#001f20" fill-opacity=".5" d="M132 97.1l-4.8 8.1-1.3-.7 4.7-8.2z"/><path fill="#002a41" fill-opacity=".5" d="M308.7 158l-.2-1.5 6.3-.5.1 1.5z"/><path fill="#96a6c3" fill-opacity=".5" d="M5.7 16.4h1.5L5.2 54H3.8z"/><path fill="#d0f3fd" fill-opacity=".5" d="M221.4 100.6l4.6-1 1 4.5-4.5 1z"/><path fill="#797e84" fill-opacity=".5" d="M403.3 148.5l-10.9-19 2.7-1.5 11 19z"/><path fill="#cdb8b0" fill-opacity=".5" d="M65.8 96l-1.6.1-.3-18.7h1.6z"/><path fill="#ced8d2" fill-opacity=".5" d="M266.7 123l1.4-1 4.2 6.6-1.3.9z"/><path fill="#0c0e11" fill-opacity=".5" d="M364.5 34l1.5-.5 11.7 34-1.5.5z"/><path fill="#003a3d" fill-opacity=".5" d="M323 147l1.4-.8 4.1 8.5-1.4.6z"/><path fill="#222220" fill-opacity=".5" d="M384.4 129l-2.7-7.3L414 110l2.7 7.3z"/><path fill="#cec0bf" fill-opacity=".5" d="M301.5 120.3l1.3.9-2.7 3.8-1.3-.9z"/><path fill="#69757c" fill-opacity=".5" d="M395.3 164.3L382.5 182l-1.3-1 12.9-17.7z"/><path fill="#f4a987" fill-opacity=".5" d="M204.7 86h1.6v23.4h-1.6z"/><path fill="#0e2825" fill-opacity=".5" d="M67.2 104.7h14v1.5h-14z"/><path fill="#d1b7a3" fill-opacity=".5" d="M108.5 27.3l1.7 9.2-1.6.3-1.6-9.2z"/><path fill="#001529" fill-opacity=".5" d="M83.3 102.2l-1.5.2-1-6.1 1.5-.3z"/><path fill="#020a0e" fill-opacity=".5" d="M24.3 181.1l3-43.6 25 1.7-3 43.6z"/><path fill="#001e28" fill-opacity=".5" d="M277.5 22.7l.8-1.4 8.2 4.4-.7 1.4z"/><path fill="#cdaf7d" fill-opacity=".5" d="M167.5 48.4l-3.7-23.1 1.5-.3 3.7 23.2z"/><path fill="#d2d2d7" fill-opacity=".5" d="M134.7 139l2.5-23.4 1.5.2-2.4 23.3z"/><path fill="#000006" fill-opacity=".5" d="M269 176l4.6 1.3-13 45-4.5-1.2z"/><path fill="#b1a098" fill-opacity=".5" d="M69.5 94.6l-1.5 28h-1.5l1.4-28z"/><path fill="#c4bec9" fill-opacity=".5" d="M333 96.2l-3-.8 4.1-15 3 .7z"/><path fill="#d3b9b3" fill-opacity=".5" d="M311.3 144.6l1.3-.9 2.7 3.9-1.3.9z"/><path fill="#e3c886" fill-opacity=".5" d="M67.5 34l5.4 7.7-1.3.9-5.4-7.7z"/><path fill="#222f7b" fill-opacity=".5" d="M196 42.8l-1.5.2-1.5-9.2 1.6-.3z"/><path fill="#1f469b" fill-opacity=".5" d="M203.8 141.8l-1.5.3-4.5-23 1.5-.3z"/><path fill="#000108" fill-opacity=".5" d="M356.5 72.8l3.1-.1L367 213l-3.2.2z"/><path fill="#00359e" fill-opacity=".5" d="M193 125.9l1.4.3-4.5 18.2-1.5-.3z"/><path fill="#c9bdd0" fill-opacity=".5" d="M260.2 61.8v1.6l-100-1.8v-1.5z"/><path fill="#f7e1c9" fill-opacity=".5" d="M95.4 55.5l-.2-9.4h1.6l.2 9.4z"/><path fill="#810015" fill-opacity=".5" d="M335.3 86.8l1.5-.1 1.4 25h-1.6z"/><path fill="#5a0103" fill-opacity=".5" d="M135.2 142.2h-6.3v-1.6h6.3z"/><path fill="#00232a" fill-opacity=".5" d="M336.4 142l-3.8-6.8 1.3-.7 3.8 6.8z"/><path fill="#8391a5" fill-opacity=".5" d="M348.5 75.8l-.2 4.7-29.7-1.6.3-4.7z"/><path fill="#002b2c" fill-opacity=".5" d="M336 26.5l-.5 1.5-10.5-3 .4-1.5z"/><path fill="#433932" fill-opacity=".5" d="M305.5 138.5l4.5 1.4-1.4 4.4-4.5-1.3z"/><path fill-opacity=".5" d="M147.4 213.5l-12.7-25 7-3.6 12.7 25z"/><path fill="#cfd6ed" fill-opacity=".5" d="M167.8 61l-1.2-35.9 7.8-.2 1.2 35.9z"/><path fill="#bb994f" fill-opacity=".5" d="M258.3 47l-1-11 1.6-.1 1 10.9z"/><path fill="#685b4c" fill-opacity=".5" d="M236.7 146.1l9.2-1.6.3 1.5-9.3 1.7z"/><path fill="#234" fill-opacity=".5" d="M63.5 92.2l-2-10.7 1.6-.3L65 92z"/><path fill="#123d85" fill-opacity=".5" d="M222.3 21.8l13.6 3.4-.4 1.5-13.6-3.4z"/><path fill="#766963" fill-opacity=".5" d="M225.1 216.2l-1.3-.8 24.5-36.3 1.3.9z"/><path fill="#715c4e" fill-opacity=".5" d="M89.3 174.2l-13.6 10.6-1-1.2L88.4 173z"/><path fill="#5f5651" fill-opacity=".5" d="M371 135l16.8 11.4-1 1.3-16.8-11.3z"/><path fill="#00291f" fill-opacity=".5" d="M282 33l1.2-1.1 2 2.4-1.2 1z"/><path fill="#bf7773" fill-opacity=".5" d="M222.6 188l-1.4.8-11-19 1.4-.8z"/><path fill="#78747b" fill-opacity=".5" d="M178.1 65.6v-1.5h154.7v1.5z"/><path fill="#23396a" fill-opacity=".5" d="M170.3 133.3l1.5-.5 3.2 10.5-1.5.4z"/><path fill="#e5e9ff" fill-opacity=".5" d="M247.4 137l5.3-22.8 1.5.3-5.3 22.9z"/><path fill="#fff0eb" fill-opacity=".5" d="M261.9 130.7l-1.4.7-2-4.3 1.3-.6z"/><path fill="#a22b34" fill-opacity=".5" d="M247 82.8l1.4-.8 3 5.5-1.4.8z"/><path fill="#823736" fill-opacity=".5" d="M93 139l-1.5-.4 4.6-19.8 1.5.4z"/><path fill="#edd5d4" fill-opacity=".5" d="M144.7 114.1h1.6l1.1 32.7H146z"/><path fill="#daf5f5" fill-opacity=".5" d="M223 95.2l-1.3-.7 3.7-7 1.3.8z"/><path fill="#000206" fill-opacity=".5" d="M5.4 207.9L27 177l19.2 13.5-21.5 30.7z"/><path fill="#010000" fill-opacity=".5" d="M370.3 62l-7.5 2.1-3.4-12 7.5-2.2z"/><path fill="#163625" fill-opacity=".5" d="M320 34.1l.5 3.1-10.7 2.1-.6-3z"/><path fill="#2b4534" fill-opacity=".5" d="M272.5 138.5l1.2 1-4 4.8-1.2-1z"/><path fill="#bfbea0" fill-opacity=".5" d="M305.9 101.1l-2.5 9.1-1.5-.4 2.5-9z"/><path fill="#12191b" fill-opacity=".5" d="M332.9 166l-.2 4.6L225 167l.1-4.7z"/><path fill="#d4d5f8" fill-opacity=".5" d="M321.6 102.5l-2.3-2.2 4.5-4.4 2.2 2.2z"/><path fill="#c4d5e4" fill-opacity=".5" d="M59 85.8l.8-7.7 1.5.1-.8 7.8z"/><path fill="#c5b889" fill-opacity=".5" d="M170.4 141.7l-1.5.5-3.4-10.4 1.5-.5z"/><path fill="#87726d" fill-opacity=".5" d="M380.4 174l-1.5.3-1.5-6 1.5-.4z"/><path fill="#bfbdc8" fill-opacity=".5" d="M287.8 65.4l-1.6.2-3.6-23.1 1.5-.3z"/><path fill="#9d6f23" fill-opacity=".5" d="M74.1 108.2l-9.3-.8.1-1.6 9.4.9z"/><path fill="#000f1b" fill-opacity=".5" d="M371.4 29.7l-1.6-.2L374-9.3l1.6.1z"/><path fill="#000b15" fill-opacity=".5" d="M352.3 116.5h1.6l4.7 68.5-1.5.1z"/><path fill="#c3b9cd" fill-opacity=".5" d="M228.9 78.9v-4.7l93.8 1.6v4.7z"/><path fill="#a0a9a9" fill-opacity=".5" d="M330.8 29.6l1.4.6-2 4.3-1.4-.7z"/><path fill="#a1b8df" fill-opacity=".5" d="M243 21.9h-72v-1.6h72z"/><path fill="#b1b4af" fill-opacity=".5" d="M334.4 20.3V22h-57.8v-1.6z"/><path fill="#000002" fill-opacity=".5" d="M420.4 89.3L372 93.5l-.3-3.1 48.3-4.2z"/><path fill="#94888a" fill-opacity=".5" d="M207.3 91l1 1.3-11 8.8-1-1.2z"/><path fill="#0c272c" fill-opacity=".5" d="M387.6 67.1l-16.5 4.7-.9-3 16.5-4.7z"/><path fill="#37657e" fill-opacity=".5" d="M380 72.6L376.3 48l1.5-.2 4 24.7z"/><path fill-opacity=".5" d="M13.9 157.2l4.7-.3.3 6.3-4.7.2z"/><path fill="#0b110e" fill-opacity=".5" d="M394.7 215l-20.5-37 1.4-.7 20.5 36.9z"/><path fill="#5a4f45" fill-opacity=".5" d="M372.4 148.5h1.6l2 39h-1.5z"/><path fill="#981a32" fill-opacity=".5" d="M100 35.2l3 15.3-1.5.3-3-15.4z"/><path fill="#617b84" fill-opacity=".5" d="M1.5 72l14.1-.2v1.5l-14 .3z"/><path fill="#002587" fill-opacity=".5" d="M209.9 24.2l2 9.1-1.5.3-2-9z"/><path fill="#eedad2" fill-opacity=".5" d="M170 94.1l3.8-15.2 1.5.4-3.8 15.2z"/><path fill="#a30916" fill-opacity=".5" d="M104.6 23.2l8.6 3.7-.6 1.4-8.6-3.6z"/><path fill="#e3cdbd" fill-opacity=".5" d="M81.8 91.7l-2-4.2 5.6-2.7 2 4.3z"/><path fill="#00424f" fill-opacity=".5" d="M298.5 145.6L291 148l-.5-1.5 7.4-2.5z"/><path fill="#cfc195" fill-opacity=".5" d="M217.8 33.6l-1.4.6-4.5-10 1.4-.6z"/><path fill="#d1d3ed" fill-opacity=".5" d="M64.3 76.5l23.2 3.3-.2 1.5L64 78z"/><path fill="#0c0e0f" fill-opacity=".5" d="M391.4 180l14.2-46.4 1.4.5-14.1 46.3z"/><path fill="#d6d5f3" fill-opacity=".5" d="M69.2 11.3l.8-1.4 18.6 11.6-.8 1.4z"/><path fill="#000506" fill-opacity=".5" d="M296.1 205l-1.4.7-20.5-40.4 1.4-.7z"/><path fill="#aca6b8" fill-opacity=".5" d="M69.4 113.5l-7.4 5.7-4.8-6.1 7.4-5.8z"/><path fill="#002a35" fill-opacity=".5" d="M119.5 82.8l1.6.2-1.6 10.8-1.5-.2z"/><path fill="#aba5a9" fill-opacity=".5" d="M320.7 74.6l-1.2-1 5-6 1.3 1z"/><path fill="#f8e9e0" fill-opacity=".5" d="M298.2 130.2l-4.6-1.1.4-1.5 4.6 1.1z"/><path fill="#c4c0da" fill-opacity=".5" d="M63.4 149l-4.6.4-2-21.8 4.7-.4z"/><path fill="#0e0f12" fill-opacity=".5" d="M344.5 67l-25 .4v-1.6l25-.4z"/><path fill="#91112e" fill-opacity=".5" d="M241.7 105.6l-2-6 1.4-.5 2 6z"/><path fill="#c4b8b2" fill-opacity=".5" d="M123.3 129.7l1.5.5-2.8 7.3-1.5-.5z"/><path fill="#9a6f7d" fill-opacity=".5" d="M180.7 12.9l-.2-1.6 27.8-3.9.3 1.6z"/><path fill="#b5b1b3" fill-opacity=".5" d="M197.8 157.2l-13.9-14.9 1.2-1 13.8 14.8z"/><path fill="#0c434d" fill-opacity=".5" d="M254.2 19.5h3.2l-.7 18.8h-3.1z"/><path fill="#aa2e3b" fill-opacity=".5" d="M285.2 84l7.7 23.7-1.5.5-7.7-23.8z"/><path fill="#9a1636" fill-opacity=".5" d="M75.3 38.5L62.7 26.7l1-1.1 12.6 11.7z"/><path fill="#8b2428" fill-opacity=".5" d="M228.7 84.3l2 10.8-1.6.3-2-10.8z"/><path fill="#ad9b6c" fill-opacity=".5" d="M180.3 47.6h-1.6l-1.1-21.8h1.5z"/><path fill="#6b4544" fill-opacity=".5" d="M331.4 167.4l4.4 1.7-3.2 8.8-4.4-1.6z"/><path fill="#4b4f4d" fill-opacity=".5" d="M132 175l-1.5-7.6 1.5-.3 1.6 7.7z"/><path fill="#962929" fill-opacity=".5" d="M117.8 118.4l1.3 1-10.4 13.7-1.2-1z"/><path fill="#9fa2ae" fill-opacity=".5" d="M203.1 155.3l-107.8 1.9v-1.6l107.8-1.9z"/><path fill-opacity=".5" d="M189.2 160.8l-3.5 8.7-1.5-.6 3.6-8.7z"/><path fill="#536068" fill-opacity=".5" d="M338.3 73.2l.4-1.5 15.2 3.5-.4 1.5z"/><path fill="#d6d4e3" fill-opacity=".5" d="M106.2 53.3l.1-1.6 79.6 2.8v1.6z"/><path fill="#96263c" fill-opacity=".5" d="M316 111.7L312.2 90l1.5-.2 3.8 21.5z"/><path fill="#b5b0c1" fill-opacity=".5" d="M79.1 140.7l47.2 10.9-.7 3-47.2-10.9z"/><path fill="#001e31" fill-opacity=".5" d="M130 86.7h1.6l-.7 12.6-1.5-.1z"/><path fill="#000029" fill-opacity=".5" d="M219.5 125l-1.2 1-1.9-2.6 1.3-.9z"/><path fill="#c39a47" fill-opacity=".5" d="M221.5 37.6l1.6-.1.7 10.9h-1.5z"/><path fill-opacity=".5" d="M-4.9 86.4L43.5 84l.5 9.4-48.4 2.5z"/><path fill="#786543" fill-opacity=".5" d="M336.5 50l-1.1-10.8 1.5-.2 1.2 10.9z"/><path fill="#5e504b" fill-opacity=".5" d="M76.5 221.5l-1.2-1 40.3-49.8 1.3 1z"/><path fill="#879cb1" fill-opacity=".5" d="M409.3-18.8l1.5.4-21.7 67-1.5-.6z"/><path fill="#aeb3cf" fill-opacity=".5" d="M347.7 63.8l-3.1.4-3.2-26.4 3-.4z"/><path fill="#000103" fill-opacity=".5" d="M121.8 173.6l-9.5 24.8-4.4-1.7 9.5-24.8z"/><path fill="#fce6b8" fill-opacity=".5" d="M195.9 130.6l-1-2.9 1.4-.5 1 3z"/><path fill="#091011" fill-opacity=".5" d="M32.6 188l-1-29.6 34.3-1.2 1 29.7z"/><path fill="#726969" fill-opacity=".5" d="M11.1 171.2l9.2-1.6 1.4 7.7-9.2 1.6z"/><path fill="#00171d" fill-opacity=".5" d="M278.8 126.4l1.5.5-1.3 4.5-1.5-.5z"/><path fill="#eac2ab" fill-opacity=".5" d="M251.4 46.1h-1.6l.4-6.3h1.5z"/><path fill="#2f343a" fill-opacity=".5" d="M129.5 69.8l-5.4-5.7 1-1 5.5 5.6z"/><path fill="#084f5d" fill-opacity=".5" d="M164.6 101.2l-4.5 6.3-1.3-.9 4.6-6.3z"/><path fill="#d6ddea" fill-opacity=".5" d="M295.6 22.4l-4.5 4.4L278 13.5l4.4-4.4z"/><path fill="#a4a7b4" fill-opacity=".5" d="M278.2 14.3v-1.6l67-3.5.1 1.5z"/><path fill="#8b7f70" fill-opacity=".5" d="M383 117.5l-6.8 3.7-1.5-2.8 7-3.6z"/><path fill="#3d3338" fill-opacity=".5" d="M66.5 84.7l5.1-3.5 1 1.2-5.2 3.6z"/><path fill="#b3a498" fill-opacity=".5" d="M380 135.3l-1.1 1.1-4.3-4.6 1.2-1z"/><path fill="#274578" fill-opacity=".5" d="M208.1 117.7l1.2-1 12.3 14-1.2 1.1z"/><path fill="#697983" fill-opacity=".5" d="M359.2 63.4l-4.7-.3.4-6.2 4.7.3z"/><path fill="#4866a0" fill-opacity=".5" d="M149.7 143.8l-2.5-23.3 1.6-.2 2.4 23.3z"/><path fill="#1645a6" fill-opacity=".5" d="M162.7 118l-.4 18.7h-1.5l.3-18.7z"/><path fill="#76232e" fill-opacity=".5" d="M269 96.3l-1.6.5-3.5-10.3 1.5-.5z"/><path fill="#b7b9c8" fill-opacity=".5" d="M46.1 79.2l-18.7 1v-1.6l18.6-1z"/><path fill="#d6def6" fill-opacity=".5" d="M113.5 24.4l-7.3-2.6 3.7-10.3 7.4 2.7z"/><path fill="#8b95a8" fill-opacity=".5" d="M3.2 61L3 72l-4.7-.2.2-10.9z"/><path fill="#d5d9cb" fill-opacity=".5" d="M312.6 133.4l1.4-.6 3 7.2-1.3.6z"/><path fill="#a5bfbb" fill-opacity=".5" d="M329.7 116.4v6.3H328v-6.3z"/><path fill="#c6c9e6" fill-opacity=".5" d="M296.4 49.7l40.5 2.2-.5 9.3-40.5-2.1z"/><path fill="#f9edd0" fill-opacity=".5" d="M142.8 129.3l2.4-2 1 1.2-2.4 2z"/><path fill="#828290" fill-opacity=".5" d="M222.6 156.4l.2-1.5 31.1 2.7-.1 1.6z"/><path fill="#c0d1f1" fill-opacity=".5" d="M100.2 92.8l1.1-15.5 3.1.2-1 15.6z"/><path fill="#890821" fill-opacity=".5" d="M80.6 32l1.3 15.6h-1.5L79 32.2z"/><path fill="#064a4a" fill-opacity=".5" d="M143 82.1l1.4.5-4.5 15-1.5-.5z"/><path fill="#435367" fill-opacity=".5" d="M17.2 60.4l-32.8-.5v-3.2l32.8.6z"/><path fill="#858668" fill-opacity=".5" d="M329 48.6l-.1 1.5-15.6-.2v-1.6z"/><path fill="#b5b9c6" fill-opacity=".5" d="M123.4 93H122V74.2h1.5z"/><path fill="#284b8d" fill-opacity=".5" d="M177.3 117.4l1.5-.3 1.7 10.8-1.5.3z"/><path fill="#000505" fill-opacity=".5" d="M282.4 165l1.3-.8 19.9 31.8-1.4.8z"/><path fill="#951525" fill-opacity=".5" d="M258.9 93.3l-4.7-.7 1-6.2 4.6.7z"/><path fill="#00060c" fill-opacity=".5" d="M355.1 10.8l-4 11.8-1.5-.5 4-11.9z"/><path fill="#24464d" fill-opacity=".5" d="M102.3 107l-1.5-.3 4.7-24.6 1.6.3z"/><path fill="#5f4638" fill-opacity=".5" d="M221 180.1l-1.3.6-8-18.6 1.5-.7z"/><path fill="#003d3e" fill-opacity=".5" d="M314.6 143.4l-4.5 6.3-1.3-1 4.6-6.2z"/><path fill="#8b7e6d" fill-opacity=".5" d="M380.3 104.8l-1.5-.4 1.9-7.6 1.5.4z"/><path fill="#656c75" fill-opacity=".5" d="M353.6 154l2.3-4 1.4.7-2.3 4z"/><path fill="#20386e" fill-opacity=".5" d="M196 142.3l-1.6-.4 1.9-7.6 1.5.4z"/><path fill="#adb09d" fill-opacity=".5" d="M288.5 46.9l-.4-20.3h3.1l.4 20.2z"/><path fill="#cdc8ac" fill-opacity=".5" d="M93.3 128.9l4.5-4.3 1.1 1.2-4.6 4.2z"/><path fill="#8a2d3c" fill-opacity=".5" d="M153.9 41.6l1.5-.3 1.7 9.3-1.6.2z"/><path fill="#0d4244" fill-opacity=".5" d="M156.2 89l3.2 17-1.5.2-3.3-16.8z"/><path fill="#d99f74" fill-opacity=".5" d="M279.6 89.8l1.6.3-3 15.4-1.6-.3z"/><path fill="#bbafaa" fill-opacity=".5" d="M240.2 159.3l.8-23.4h1.6l-.8 23.5z"/><path fill="#002721" fill-opacity=".5" d="M255 48.7l-4.6 1-.7-3 4.6-1z"/><path fill="#f7d5b6" fill-opacity=".5" d="M234.2 93.2l-4.7-.5.4-3 4.6.4z"/><path fill="#888c92" fill-opacity=".5" d="M348.9 161.7h-1.6l2.3-65.6h1.5z"/><path fill="#585053" fill-opacity=".5" d="M256.6 162.2l-35.9 19.1-.7-1.4 35.8-19z"/><path fill="#000a0e" fill-opacity=".5" d="M48.4 56.1l-4.9 19.7-9.1-2.2 5-19.7z"/><path fill="#31485d" fill-opacity=".5" d="M347-6.7l-3.3 15.3-1.6-.3L345.4-7z"/><path fill="#edb9a5" fill-opacity=".5" d="M84.6 39.8h-1.5l-.5-9.3H84z"/><path fill="#11424c" fill-opacity=".5" d="M97.1 78.2l-.6 3-7.7-1.6.7-3z"/><path fill="#b9b6c1" fill-opacity=".5" d="M155.3 66.3L90 61.8v-1.6l65.5 4.6z"/><path fill="#ddf8f5" fill-opacity=".5" d="M203.5 35.4l-.7 3-1.6-.3.7-3z"/><path fill="#980000" fill-opacity=".5" d="M188.3 87.4l-1.8 2.6-1.3-.9 1.8-2.5z"/><path fill="#002c23" fill-opacity=".5" d="M276.6 122v1.5l-4.7-.1v-1.6z"/><path fill="#0c3ca3" fill-opacity=".5" d="M204.2 118h1.6l1 18.7h-1.6z"/><path fill="#001d44" fill-opacity=".5" d="M171.8 130.3l4.5-1.2.4 1.5-4.5 1.2z"/><path fill="#dddbd8" fill-opacity=".5" d="M260.3 118.1l-.2-1.5 15.5-2 .2 1.6z"/><path fill="#7f90a5" fill-opacity=".5" d="M383.9 38.5l7.1-3.2L414.5 88l-7 3.2z"/><path fill="#afab85" fill-opacity=".5" d="M101.7 93.8l-.2 10.9h-1.6l.2-11z"/><path fill="#c2bfaa" fill-opacity=".5" d="M315.4 147.7l1.4-.7 3.7 6.9-1.4.7z"/><path fill="#6e747f" fill-opacity=".5" d="M390.7 131.3l-6.5 17.6-1.4-.5 6.4-17.6z"/><path fill="#a39988" fill-opacity=".5" d="M250.5 137.4l-4.2 11.7-1.5-.5 4.3-11.8z"/><path fill="#050c10" fill-opacity=".5" d="M400.2 163.5l-9.7-28 1.5-.6 9.7 28.1z"/><path fill="#0020a1" fill-opacity=".5" d="M193.1 48.5l-1.5-.1 1.2-17.2 1.5.1z"/><path fill="#003630" fill-opacity=".5" d="M332.5 134.2l-2.6 5.7-1.4-.6 2.5-5.8z"/><path fill="#e2e9ff" fill-opacity=".5" d="M62.5 18.7L59.7 15l1.2-1 2.9 3.8z"/><path fill="#9b9866" fill-opacity=".5" d="M267.7 42.9l-1.5.1-1.1-15.6h1.5z"/><path fill="#e4cfb2" fill-opacity=".5" d="M293.4 124.4l-7.5-2 .3-1.4 7.6 1.8z"/><path fill-opacity=".5" d="M107.3 160.8l-21.6 12.5-.8-1.3 21.6-12.5z"/><path fill="#a1a1a6" fill-opacity=".5" d="M389.3 183.6l-.6-1.5 20.4-7.8.6 1.4z"/><path fill="#162d2f" fill-opacity=".5" d="M53.2.1l-1.7 48.4-6.2-.2L46.9 0z"/><path fill="#daeaff" fill-opacity=".5" d="M78.5 125l-.8-7.7 1.6-.2.8 7.8z"/><path fill="#00267a" fill-opacity=".5" d="M213.3 135.7l-1.5.3-1.7-7.6 1.6-.4z"/><path fill="#d9d0ea" fill-opacity=".5" d="M66.4 44l.6-1.5 5.7 2.6-.7 1.5z"/><path fill="#a22122" fill-opacity=".5" d="M282.4 105.4l.9 1.3-7.9 5.1-.9-1.3z"/><path fill="#ced3e9" fill-opacity=".5" d="M241.2 58.3l-10.1-28 7.3-2.6 10.2 27.9z"/><path fill="#27474d" fill-opacity=".5" d="M320.3 134.7l-1 1.1-6.8-6.5 1-1z"/><path fill="#000a0a" fill-opacity=".5" d="M218.7 173.8l-1.7-4.4 19-7.3 1.7 4.4z"/><path fill="#841012" fill-opacity=".5" d="M132.7 33.6h-1.5l.1-9.4h1.6z"/><path fill="#d0c1ae" fill-opacity=".5" d="M101.6 22.6l3 9-1.6.4-2.8-8.9z"/><path fill="#e0deae" fill-opacity=".5" d="M328.2 125.3l-.1 1.5-7.8-.5v-1.6z"/><path fill="#fde2ce" fill-opacity=".5" d="M172.5 98.5l-1.2 14h-1.6l1.2-14.1z"/><path fill="#00308d" fill-opacity=".5" d="M211 23.6l.4-1.5 7.4 2.7-.6 1.5z"/><path fill="#160e01" fill-opacity=".5" d="M377.8 103.2l1.6-.1.6 17.2h-1.6z"/><path fill="#e5d9d6" fill-opacity=".5" d="M252.1 110.2l-1-31.3h1.5l1 31.2z"/><path fill="#4c4241" fill-opacity=".5" d="M356.8 106.8l-7.3-27.2 1.5-.4 7.3 27.1z"/><path fill="#dadeec" fill-opacity=".5" d="M256.8 50l1.4-2.8 21 10.6-1.5 2.8z"/><path fill="#d9dccb" fill-opacity=".5" d="M162.8 104.3l1.5-.4 2.6 9-1.5.4z"/><path fill="#024e5b" fill-opacity=".5" d="M272.1 48.4h-1.6l-.4-26.5h1.5z"/><path fill="#1b5245" fill-opacity=".5" d="M89.6 104.3l-2.7-1.6 3.2-5.4 2.7 1.6z"/><path fill="#003b48" fill-opacity=".5" d="M252.3 30.6l-4.8 9.8-1.4-.7L251 30z"/><path fill="#c1b7c3" fill-opacity=".5" d="M86.4 74L72.6 91l-1.2-1 13.8-17z"/><path fill="#d3d4d5" fill-opacity=".5" d="M330.9 75.8l.9 1.3-20.5 14.3-.9-1.3z"/><path fill="#58483c" fill-opacity=".5" d="M66.2 163.8l1.3-.8 11.6 18.5-1.3.8z"/><path fill="#c3cadb" fill-opacity=".5" d="M94.6 114.9L185 110v1.6l-90.5 4.7z"/><path fill="#192c2d" fill-opacity=".5" d="M391.3 173.7l-6.8-3.8.7-1.4 6.9 3.8z"/><path fill="#a6cbff" fill-opacity=".5" d="M219.3 141.5l.7-1.5 2.8 1.4-.6 1.4z"/><path fill="#9dabc2" fill-opacity=".5" d="M180 58l-12-3.6.5-1.5 12 3.6z"/><path fill="#8f3033" fill-opacity=".5" d="M113.1 142.7l2-9.2 1.5.4-2 9.1z"/><path fill="#64646e" fill-opacity=".5" d="M144.5 68l87.5-1.6V68l-87.4 1.5z"/><path fill="#cecae2" fill-opacity=".5" d="M307 152.9l2.2-2.2 1 1.1-2.2 2.2z"/><path fill="#7aa5a1" fill-opacity=".5" d="M154.7 94.5V107H153V94.5z"/><path fill="#5c6655" fill-opacity=".5" d="M288.3 198.5v1.6l-12.5-.2v-1.6z"/><path fill="#d8b883" fill-opacity=".5" d="M178.8 81.3l-1.4 26.5H176l1.4-26.6z"/><path fill="#c6c6f1" fill-opacity=".5" d="M233.6 120.6l4.4 6.4-1.2.9-4.5-6.4z"/><path fill="#d7e0f1" fill-opacity=".5" d="M314 57v3.2H115.7V57z"/><path fill="#c9b9bd" fill-opacity=".5" d="M233.5 103.4l-6.8-3.8.7-1.4 6.9 3.8z"/><path fill="#00000b" fill-opacity=".5" d="M4 60.9l1.5-.6L10 72l-1.5.5z"/><path fill="#902" fill-opacity=".5" d="M250.7 98.4l1.5.2-1.3 7.7-1.6-.2z"/><path fill="#073e42" fill-opacity=".5" d="M322.1 138.5l1.3 1-9.6 14.2-1.3-1z"/><path fill="#dcdaf3" fill-opacity=".5" d="M125.6 148.6l8.2-4.6 1.5 2.8-8.2 4.5z"/><path fill="#934b4e" fill-opacity=".5" d="M214 109.2l17-2.7.3 1.5-17 2.7z"/><path fill="#d7e8f9" fill-opacity=".5" d="M178.7 114l2-35.9h1.5l-1.9 36z"/><path fill="#797b81" fill-opacity=".5" d="M146.1 8.7L68 10V8.5L146 7z"/><path fill="#002685" fill-opacity=".5" d="M198.4 41.5l7.6-1.7.3 1.5-7.6 1.7z"/></svg>