<svg xmlns="http://www.w3.org/2000/svg" viewBox="0 0 400 200"><filter id="c"><feGaussianBlur stdDeviation="55" /></filter><path fill="#6a676e" d="M0 0h400v200H0z"/><g filter='url(#c)' fill-opacity='.5'><path fill="#d2c4d2" fill-opacity=".5" d="M54 7.8h293.7v148.4H53.9z"/><path fill-opacity=".5" d="M385.3 234L-13 227l1.2-68.8 398.4 7z"/><path fill-opacity=".5" d="M53.8 32.6l-3 171.8-62.5-1 3-171.9zm298.6 17.6l71.8 1.2-3.1 181.2-71.9-1.2z"/><path fill="#cc392b" fill-opacity=".5" d="M83.6 51.6V21.9h81.2v29.7z"/><path fill-opacity=".5" d="M5.4 81.5L55.2 86l-6 68.5L-.5 150z"/><path fill="#245c57" fill-opacity=".5" d="M170 83.5l-1 26.5-128-4.4L42 79z"/><path fill="#000b12" fill-opacity=".5" d="M377.3-7v200h-25V-7z"/><path fill="#83abce" fill-opacity=".5" d="M381.9 17.7l32.7 2.3-4.3 60.8-32.7-2.3z"/><path fill="#d15a51" fill-opacity=".5" d="M184.1 81l150 5.2-1 28.1-150-5.2z"/></g></svg>