<svg xmlns="http://www.w3.org/2000/svg" viewBox="0 0 400 200"><path fill="#6a676e" d="M0 0h400v200H0z"/><path fill="#d2c4d2" fill-opacity=".5" d="M53.1 8.6h276.6v150H53z"/><path fill-opacity=".5" d="M8.3 59.3L174.7 194 90 298.5-76.2 163.8z"/><path fill-opacity=".5" d="M404.7 236.7H87.5v-75h317.2z"/><path fill="#000305" fill-opacity=".5" d="M350.2 204l2.7-157.8 79.7 1.4-2.7 157.8z"/><path fill="#e6b1b8" fill-opacity=".5" d="M51.5 157.8l1.7-48.4 87.5 3L139 161z"/><path fill-opacity=".5" d="M21.9 202.3V-32h29.7v234.3z"/><path fill="#c93226" fill-opacity=".5" d="M164.8 23.4V50H74.2V23.4z"/><path fill="#014f45" fill-opacity=".5" d="M158.8 105.6L90 106.8l-.3-20.3 68.7-1.2z"/><path fill="#a08b85" fill-opacity=".5" d="M259.3 81.2l90.6 1.6-1.4 81.3-90.6-1.6z"/><path fill="#000c14" fill-opacity=".5" d="M351 132.6l2.8-161 25 .5-2.9 161z"/></svg>