<svg xmlns="http://www.w3.org/2000/svg" viewBox="0 0 400 200"><filter id="c"><feGaussianBlur stdDeviation="55" /></filter><path fill="#6a676e" d="M0 0h400v200H0z"/><g filter='url(#c)' fill-opacity='.5'><path fill="#d3c5d3" fill-opacity=".5" d="M53.7 7.8l271.8 4.7-2.6 150L51 157.8z"/><path fill-opacity=".5" d="M-19.7 157.5l398.4 7-1.2 67.1-398.4-7z"/><path fill-opacity=".5" d="M54.8 34l-3.3 187.6-54.7-1L.1 33.1zm374.7 213.6l-79.7-1.4 3.5-198.4L433 49z"/><path fill="#145d54" fill-opacity=".5" d="M89.7 84.4l87.4-1.6.4 21.9-87.5 1.5z"/><path fill="#b4b0bb" fill-opacity=".5" d="M315.6 6.3h32.8v129.6h-32.8z"/><path fill-opacity=".5" d="M60.5-34.5L34.6 129.1l-15.4-2.4L45-37z"/><path fill="#ca382b" fill-opacity=".5" d="M65.6 54.2l-1.4-26.6 99.9-5.2 1.4 26.5z"/></g></svg>