<svg xmlns="http://www.w3.org/2000/svg" viewBox="0 0 50 25"><path fill="#6b6770" d="M0 0h50v25H0z"/><g fill-opacity=".5"><path d="M65.5 40.5v-22l-77 3z"/><path fill="#ccbfd0" d="M7.5.5l3 19 48-17z"/><path d="M6.5-3.5l-16 40 15-1z"/><path fill="#000001" d="M43.5 24.5l2-29 7 27z"/><path fill="#bcaab6" d="M7.5 18.5l36-14-2 15z"/><path d="M4.5.5l39-1-37-15z"/><path fill="#0c0d0b" d="M65.5 22.5l-68 17 6-20z"/><path d="M5.5 19.5l-14-11 15 3z"/><path fill="#c4c8cc" d="M8.5 5.5l15 6 18-6z"/><path fill="#d8606c" d="M35.5 13.5l-13-2 18-2z"/><path fill="#7c7e92" d="M7.5 6.5l1 11 22-1z"/><path fill="#99b2ce" d="M22.5.5l-4 8 25-8z"/><path fill="#5984a2" d="M48.5 8.5l-2-24 19 30z"/><path fill="#b64a50" d="M16.5 4.5l-7 2-1-4z"/><path fill="#262c32" d="M43.5 3.5l22 23-15 14z"/><path fill="#8ea2b2" d="M20.5 10.5l-4 8 30 1z"/><path fill="#4b6a73" d="M33.5 5.5l-4-4 12 4z"/><path fill="#507570" d="M21.5 9.5l-10 2 10 2z"/><path fill="#070c0d" d="M4.5 18.5l-4 15 12-15z"/><path fill="#4d628c" d="M29.5 17.5l1-3-10 1z"/><path fill="#c28e97" d="M10.5 19.5l18-8-20 3z"/><path fill="#c491a7" d="M23.5 22.5l-3 18-8-4z"/><path fill="#292b2c" d="M45.5 7.5l-3 1-3-1z"/><path fill="#4d4f4f" d="M46.5 21.5l19 19-14-30z"/><path fill="#a28688" d="M27.5 22.5l18 17-7 1z"/><path fill="#ffb7cd" d="M11.5 1.5h10l-7 2z"/><path fill="#a24b55" d="M18.5 3.5l-4 2-6-3z"/><path fill="#547769" d="M41.5 14.5l1 4-10-3z"/><path fill="#07070e" d="M44.5 13.5l2-8 1 12z"/><path fill="#f9ffff" d="M31.5 15.5h1v3z"/><path fill="#c3b7c0" d="M7.5 1.5l-1 8 6-1z"/><path fill="#4c6e88" d="M6.5-13.5l-3 20-19 3z"/><path fill="#ebe1ea" d="M21.5 5.5l5 2h-9z"/><path fill="#5e71a0" d="M26.5 5.5l-5-3 11 2z"/><path fill="#00050f" d="M1.5 15.5l4 1v-13z"/><path fill="#bfbdc0" d="M27.5 10.5l6-4 8 3z"/><path fill="#405f6e" d="M17.5 7.5l2 1 2-1z"/><path fill="#6e676b" d="M22.5 40.5l-14-19 24 19z"/><path fill="#7e8597" d="M60.5-15.5l-15 26 10-7z"/><path fill="#987f87" d="M25.5 7.5v5l9-5z"/><path fill="#8e8e8e" d="M53.5 40.5l-14-17 7 17z"/><path fill="#95556a" d="M17.5 16.5l-6 1 2-2z"/><path fill="#d3d2c5" d="M29.5.5l7 2 1-2z"/><path fill="#eec6be" d="M20.5 7.5l-6-2-6 2z"/><path fill="#e3ced5" d="M22.5 8.5h10l-5 2z"/><path fill="#cb878d" d="M30.5 10.5l1 4-10-5z"/><path fill="#abb2be" d="M19.5 15.5l10-3h-19z"/><path fill="#4c657b" d="M17.5 8.5l-3-1h4z"/><path fill="#819eae" d="M43.5.5l-1 4-5-1z"/><path fill="#3a3747" d="M6.5 10.5l-16-8-6 8z"/><path fill="#325158" d="M13.5 10.5l3 2 4-2z"/><path fill="#4f5256" d="M.5 24.5l2-8 1 3z"/><path d="M3.5 13.5l1 27 11-7zm42 5l3 12-10-2z"/><path fill="#b6daed" d="M18.5 10.5l-6-2h11z"/><path fill="#c56a75" d="M35.5 12.5l-12 1 1-3z"/><path fill="#092746" d="M43.5 3.5l3-1-1-10z"/><path fill="#c5b0b8" d="M22.5 17.5l-8 1 5 1z"/><path fill="#b9d3f0" d="M29.5 7.5l-2-6h3z"/><path fill="#221a18" d="M9.5.5l28-1-21-14z"/><path fill="#5e7971" d="M34.5 16.5l1-2 2 4z"/><path fill="#c1afb5" d="M9.5 18.5l-2 1v-4z"/><path fill="#bcaeb1" d="M6.5.5l4 2-1 1z"/><path fill="#a6b6ad" d="M27.5 12.5l13 4h-7z"/><path fill="#98a5c3" d="M20.5 14.5v-3l5 7z"/><path fill="#606b8a" d="M23.5 17.5l-7-3h13z"/><path fill="#0e0000" d="M25.5 22.5l-24 18h43z"/><path fill="#c3c5da" d="M28.5 17.5l-5 2-6-2z"/><path fill="#050f14" d="M47.5 13.5l17-29 1 21z"/><path fill="#c67d83" d="M18.5 4.5l-1 1 5 1z"/><path fill="#555c5e" d="M40.5 13.5l1 3-3 4z"/><path d="M49.5 18.5l5 11 9-3z"/><path fill="#a65e72" d="M22.5 2.5l-6 3-5-3z"/><path fill="#e4c9cd" d="M34.5 9.5l5-1v2z"/><path fill="#808180" d="M40.5 23.5l-4 17h-12z"/><path fill="#b19c9f" d="M39.5 11.5l4 6 1-6z"/><path d="M1.5 19.5h-6l-4 16z"/><path fill="#af5869" d="M38.5 13.5l2-3h-8z"/><path fill="#d2d1e2" d="M24.5 7.5l5-2 4 2z"/><path fill="#b6bac8" d="M23.5 10.5l-3 6 2-1z"/><path fill="#4d5e6f" d="M47.5 2.5l10-5-10-4z"/><path fill="#6f8784" d="M36.5 7.5l2 1h-3z"/><path fill="#728ba4" d="M48.5 9.5l3-25h14z"/><path fill="#cdddee" d="M39.5 7.5l-3-1-3 1z"/><path fill="#6d8880" d="M32.5 15.5l6 3-1-4z"/><path fill="#bdc1d8" d="M26.5 18.5l6 1-1-2z"/><path fill="#131815" d="M9.5 19.5l16 7 1 14z"/><path fill="#75777a" d="M49.5 16.5l15-6-1 15z"/><path fill="#79798e" d="M8.5 12.5v-5h4z"/><path fill="#131717" d="M-15.5 15.5l2 7 22-10z"/><path fill="#637280" d="M41.5 4.5l-5 1-5-3z"/><path fill="#a9c7b7" d="M36.5 15.5v-1l-3 2z"/><path fill="#727c90" d="M4.5 1.5h-5l3 3z"/><path fill="#c6d3df" d="M37.5 16.5l1 1v-1z"/><path fill="#a7565e" d="M14.5 3.5l3 2-9-1z"/><path fill="#a06168" d="M15.5 14.5l-1 3-3-2z"/><path fill="#53798b" d="M14.5 9.5h5l1 2z"/><path fill="#beddde" d="M40.5 2.5h-6l3-1z"/><path fill="#c9d9db" d="M33.5 17.5l1 2h-2z"/><path fill="#62747d" d="M41.5 2.5l-7 2 1-2z"/></g></svg>