<svg xmlns="http://www.w3.org/2000/svg" viewBox="0 0 400 200"><path fill="#6a676e" d="M0 0h400v200H0z"/><path fill="#d2cada" fill-opacity=".5" d="M115.6 161.7V8.6h198.5v153.1z"/><path fill-opacity=".5" d="M-41.3 241.8l-17-194.5L49 37.9l17 194.5z"/><path fill-opacity=".5" d="M21 158.4l382.8 6.7-1.4 75-382.7-6.7z"/><path fill="#000305" fill-opacity=".5" d="M401.2 247.8l-54.6-2 6.9-198.3 54.6 2z"/><path fill="#d0adb4" fill-opacity=".5" d="M51 7.7l72-1.3 2.6 153.1-71.8 1.3z"/><path fill="#b0afb5" fill-opacity=".5" d="M352 158.1l-50 1-2.5-147 50-.8z"/><path fill="#ce483b" fill-opacity=".5" d="M316.6 87l-.4 26.5-112.5-2L204 85z"/><path fill="#000001" fill-opacity=".5" d="M53.1-7v175H32.8V-7z"/><path fill="#105c54" fill-opacity=".5" d="M91.4 82.8h78.1v23.5h-78z"/><path fill="#000e14" fill-opacity=".5" d="M376-71.3l4.2 240.6-26.5.4-4.2-240.5z"/><path fill-opacity=".5" d="M81.9-2.4l218.6-7.7.5 14-218.7 7.7z"/><path fill="#c62d25" fill-opacity=".5" d="M163.4 24.3l1.2 23.4-85.8 4.5-1.2-23.4z"/><path fill="#87aed0" fill-opacity=".5" d="M420.5 19.5l-2 57.8-40.6-1.5 2-57.7z"/><path fill-opacity=".5" d="M-18.3 85.5l64-2.2 2.3 64-64 2.2z"/><path fill="#e3ecff" fill-opacity=".5" d="M218.8 7.8v14H70.3v-14z"/><path fill="#fff" fill-opacity=".5" d="M54 52.3h150v9.4H54z"/><path fill="#f3fdff" fill-opacity=".5" d="M172.7 61V50h175v11z"/><path fill="#19478f" fill-opacity=".5" d="M188.2 143.3l1.9-26.5 57.6 4-1.8 26.5z"/><path fill="#3c716b" fill-opacity=".5" d="M244.5 51.6l-1.3-25 92-4.8 1.3 25z"/><path fill="#3f6d5f" fill-opacity=".5" d="M335 154.3l-64 2.3-1.3-37.5 64-2.2z"/><path fill="#0c0b09" fill-opacity=".5" d="M16.4 203.6l1.7-46.9 198.3 7-1.7 46.8z"/><path fill="#e9f6ff" fill-opacity=".5" d="M235.2 110.2v6.2H53.9v-6.2z"/><path fill="#fbf7ff" fill-opacity=".5" d="M346.1 83.1l-.1 4.7L149.2 81l.2-4.6z"/><path fill="#ba4f45" fill-opacity=".5" d="M99.7 115.5l50 1.8-1 28.1-50-1.7z"/><path fill="#3d6cb5" fill-opacity=".5" d="M230.5 50.8h-56.3V22.7h56.3z"/><path fill="#19232c" fill-opacity=".5" d="M-53.1 70.7l398.4-7v1.6l-398.4 7z"/><path fill-opacity=".5" d="M343 7h-84.4V-5.5H343z"/><path fill="#de9385" fill-opacity=".5" d="M165.4 204.4l25-35.8 5.2 3.6-25.1 35.8z"/><path fill="#070b08" fill-opacity=".5" d="M362.5 208.6l-134.3-4.7 1.5-42.2 134.3 4.7z"/><path fill="#e6f3fc" fill-opacity=".5" d="M251.6 109.9l18 46.6-10.3 4-17.9-46.7z"/><path fill="#6282a8" fill-opacity=".5" d="M24.2 13.5L19.5 68-.8 66.2 4 11.7z"/><path fill="#dae7fe" fill-opacity=".5" d="M345.2 9l.2 12.6L219 23.8l-.2-12.5z"/><path fill="#d4eaff" fill-opacity=".5" d="M151.6 75l-.1 6.3-98.4-1.7v-6.2z"/><path fill="#565b5d" fill-opacity=".5" d="M367.4 158.6l22-8L406 196l-22 8z"/><path fill="#3a5a62" fill-opacity=".5" d="M48.2 64.5l36 30.1L72 109 36 78.8z"/><path fill="#e6eeff" fill-opacity=".5" d="M246 65.6h-12.4V14.1H246z"/><path fill="#e5e9fc" fill-opacity=".5" d="M117.2 147.7l.3-4.7L272 153.8l-.4 4.7z"/><path fill="#bccfea" fill-opacity=".5" d="M50.6 153.5l.4-10.9 65.6 2.3-.4 11z"/><path fill="#b78171" fill-opacity=".5" d="M98.5 207.9l-5.1 3.6-27.8-39.7 5.1-3.6z"/><path fill="#d79089" fill-opacity=".5" d="M334.5 179l-37 42.5-2.3-2 37-42.5z"/><path fill="#2a4e48" fill-opacity=".5" d="M248.1-.9l9.4.2-1 53.1-9.3-.1z"/><path fill="#dcddee" fill-opacity=".5" d="M335.5 113.4l7.8-.2.9 50-7.8.1z"/><path fill="#789bc3" fill-opacity=".5" d="M358.4 25.6l4.6.5-4.2 40.4-4.7-.5z"/><path fill="#dc988b" fill-opacity=".5" d="M213.5 181.7l3.3-3.2 37 38.2-3.4 3.3z"/><path fill="#caafb7" fill-opacity=".5" d="M212.7 103l-1.9-26.4 43.7-3 1.8 26.4z"/><path fill="#316557" fill-opacity=".5" d="M255.4 118.7l20.2 1.7-1.3 15.6-20.3-1.8z"/><path fill="#e3ddf4" fill-opacity=".5" d="M325 25.8l3 20-10.7 1.8-3.2-20z"/><path fill="#5572a1" fill-opacity=".5" d="M147.4 117.5l37.5-.6.5 29.6-37.5.7z"/><path fill="#bdc1bf" fill-opacity=".5" d="M300.8 153.4l-21.6-26.7 12.1-9.8 21.7 26.7z"/><path fill="#303a3c" fill-opacity=".5" d="M380.8 69l3.5 20-35.4 6.2-3.5-20z"/><path fill="#a95954" fill-opacity=".5" d="M61.5 138.7l2.2-24.9 60.7 5.3-2.2 25z"/><path fill="#d3ecff" fill-opacity=".5" d="M89.5 158.5h-1.6l-4-74.8 1.6-.1z"/><path fill="#dfefff" fill-opacity=".5" d="M56.4-28.1L64 57.5l-3.1.3-7.5-85.6z"/><path fill="#dfe2f6" fill-opacity=".5" d="M129.4 80.6l.7-11 64 4.5-.8 11z"/><path fill="#7c6f66" fill-opacity=".5" d="M19.6 175.4l-6.3-44.8 9.3-1.3 6.3 44.8z"/><path fill="#d8dcfd" fill-opacity=".5" d="M337.5 23l9.3-.6 1.7 31.2-9.4.5z"/><path fill="#fff" fill-opacity=".5" d="M157.8 89.8h7.8v9.4h-7.8z"/><path fill="#ca5859" fill-opacity=".5" d="M337.6 114.7l-40-6.3 3.8-24.7 40.1 6.4z"/><path fill="#d5d1e9" fill-opacity=".5" d="M245.1 82.3l.5-12.5 76.5 2.6-.5 12.5z"/><path fill="#ced5ee" fill-opacity=".5" d="M184.2 26.9l2 37.4-18.8 1-2-37.4z"/><path fill-opacity=".5" d="M23.2 85.7L49 152.8l-17.5 6.8L5.7 92.5z"/><path fill="#031815" fill-opacity=".5" d="M104-7V8.6H60.1V-7z"/><path fill="#fff" fill-opacity=".5" d="M257.5 22.4l1.6-.3 6.8 35.2-1.5.3z"/><path fill-opacity=".5" d="M16.5 159.7L-3.4 209l-11.6-4.7 20-49.2z"/><path fill="#f1edec" fill-opacity=".5" d="M218.3 15.6l4.6-.9 7.2 36.9-4.6.8z"/><path fill="#000c10" fill-opacity=".5" d="M53.2-37.4L51.5 64.2l-15.7-.3 1.8-101.5z"/><path fill="#7d7278" fill-opacity=".5" d="M69.6 7.8l178 3.1v1.6l-178-3.1z"/><path fill="#fff4f0" fill-opacity=".5" d="M96.5 82.1l7.7 1.6-2.3 10.7-7.6-1.6z"/><path fill="#c35a57" fill-opacity=".5" d="M183 109.6l-.4-26.6 26.5-.4.5 26.5z"/><path fill="#000001" fill-opacity=".5" d="M385.1 187.5L366.8 222l-44.1-23.5L341 164z"/><path fill="#000003" fill-opacity=".5" d="M75.5 184.3l-22.8 51.4L4 214.1l23-51.4z"/><path fill="#bcc1d3" fill-opacity=".5" d="M43.7 79.2l-23 4-.3-1.5 23-4z"/><path fill="#ce635f" fill-opacity=".5" d="M62.5 14h14v39.1h-14z"/><path fill="#b25a56" fill-opacity=".5" d="M117.4 22.2l48.5.9-.5 28.1-48.5-.8z"/><path fill="#919aa6" fill-opacity=".5" d="M357 107.8l1.6 45.3H357l-1.5-45.2z"/><path fill="#000068" fill-opacity=".5" d="M179 49.1l-1.6.1-1.7-24.9 1.6-.1z"/><path fill="#929aa5" fill-opacity=".5" d="M386 169.7l-1.7-34.4 6.2-.3 1.8 34.3z"/><path fill="#3b3939" fill-opacity=".5" d="M357 74.2h-34.3v-9.4H357z"/><path fill="#dceff6" fill-opacity=".5" d="M153 47.7l-7.8-.1.2-15.6 7.9.1z"/><path fill="#fff7ff" fill-opacity=".5" d="M304 51.4l2.9-32.7 3.1.2-2.8 32.7z"/><path fill="#080700" fill-opacity=".5" d="M419.5 84.4l2.7 21.7-65.2 8-2.6-21.7z"/><path fill="#e4e4e6" fill-opacity=".5" d="M130.7 91l1.5-.2 7.4 60.4-1.5.2z"/><path fill-opacity=".5" d="M205 224.1l-24.2-28.7 25.2-21 24 28.6z"/><path fill="#a3a8af" fill-opacity=".5" d="M371.8 78.8l3 3.6-10.7 9-3-3.5z"/><path fill="#b4b4b9" fill-opacity=".5" d="M349.2 162.5h-78.1v-4.7h78.1z"/><path fill="#001931" fill-opacity=".5" d="M6.3-12.2L0 61l-4.7-.4 6.4-73.2z"/><path fill="#a7908c" fill-opacity=".5" d="M168.1 226.6l-1.4.7-30.1-61.8 1.4-.6z"/><path fill="#a18c80" fill-opacity=".5" d="M-18.7 156.6l-.1-7.8 39-.7.2 7.8z"/><path fill="#18575a" fill-opacity=".5" d="M178 67.3l-3 42h-1.5l3-42.1z"/><path fill="#dce7f5" fill-opacity=".5" d="M175.8 152.2l-1.6-.1 7.8-74.6 1.6.1z"/><path fill="#1e4848" fill-opacity=".5" d="M296.6 150.6l-23.4-1.2.5-11 23.4 1.3z"/><path fill="#968981" fill-opacity=".5" d="M245.7 232.6l27.5-79.8 1.4.5-27.4 79.8z"/><path fill="#d5cac9" fill-opacity=".5" d="M239.8 114.3l-1.5 29.6-7.8-.4L232 114z"/><path fill="#800" fill-opacity=".5" d="M238.6 82.8l10.5-3 1.3 4.5-10.5 3z"/><path fill="#deedf5" fill-opacity=".5" d="M328.9 97.1l-2 7.6-13.6-3.4 2-7.6z"/><path fill="#1e1c0e" fill-opacity=".5" d="M339.7-8.2l.3 15.6-137.5 2.4-.3-15.6z"/><path fill="#d9e3e9" fill-opacity=".5" d="M324.2 117.2H196.1v-4.7h128.1z"/><path fill="#355853" fill-opacity=".5" d="M333.8 131.3l6 9.2-31.5 20.4-6-9.2z"/><path fill="#3e6260" fill-opacity=".5" d="M288.6 153.7l-7.8.4-2.3-43.7 7.8-.4z"/><path fill="#7d0002" fill-opacity=".5" d="M220.8 82.9l1.5.2-4 23.1-1.6-.3z"/><path fill-opacity=".5" d="M358.6 103.1H371v79.7h-12.5z"/><path fill="#fff6f2" fill-opacity=".5" d="M288.4 136.1l31.1 2.8-.1 1.5-31.1-2.7z"/><path fill="#87807d" fill-opacity=".5" d="M270.7 154.8l1.2 1-41 47.2-1.2-1z"/><path fill="#dd8a86" fill-opacity=".5" d="M164.3 221.5l-1.3-.8 27.3-43.8 1.4.9z"/><path fill="#b3b7c8" fill-opacity=".5" d="M205.4 76.3l-150-2.6.1-4.7 150 2.6z"/><path fill="#9e9996" fill-opacity=".5" d="M273 175.5l1.5-.3 7.3 41.5-1.6.3z"/><path fill="#f6f1f5" fill-opacity=".5" d="M82 84.6l15.6 13.1-3 3.6-15.6-13z"/><path fill="#1f428b" fill-opacity=".5" d="M208.5 46.6l-13.7-3.1 4.5-19.8 13.7 3.1z"/><path fill="#ccdbf8" fill-opacity=".5" d="M156 66.3l-85.8-3 .3-9.3 85.9 3z"/><path fill="#cfdef2" fill-opacity=".5" d="M74.9 45.7l-2.3 2.1-21-23.2 2.4-2.1z"/><path fill="#f6ede1" fill-opacity=".5" d="M274.2 64l1.6-48.4h1.6l-1.7 48.5z"/><path fill="#285655" fill-opacity=".5" d="M146.5 88l1.8 12.4-49.5 7L97 94.8z"/><path fill="#9ba8ba" fill-opacity=".5" d="M51.2 154.6l.7-42.2 7.8.2-.7 42.2z"/><path fill="#897a70" fill-opacity=".5" d="M146.2 165.8l32 25-1 1.2-32-25z"/><path fill="#73716b" fill-opacity=".5" d="M376.2 114.4L423 151l-3.9 4.9-46.8-36.6z"/><path fill="#fffdff" fill-opacity=".5" d="M272.3 21.4l-4 24.7-1.5-.3 4-24.7z"/><path fill="#dad8e1" fill-opacity=".5" d="M77.8 41.4l-1.5-.1 3.7-53 1.5.1z"/><path fill="#aa6b61" fill-opacity=".5" d="M232.3 201.3l-4.1 2.2-18.3-34.5 4-2.2z"/><path fill="#749ace" fill-opacity=".5" d="M357.6-19.4l1.5-.1 3.6 68.6-1.5.1z"/><path fill="#00131c" fill-opacity=".5" d="M267.2 22.1L264 45.3l-1.6-.2 3.3-23.2z"/><path fill="#e1ebff" fill-opacity=".5" d="M89 12.5h120.4v7.8H89z"/><path fill="#0a0c08" fill-opacity=".5" d="M389.1 87.9l-11 126-3.1-.2 11-126.1z"/><path fill="#7a0000" fill-opacity=".5" d="M336.5 108.6l-1.5-.1 1.9-21.8 1.6.1z"/><path fill="#878782" fill-opacity=".5" d="M278 166l1.4-.7 19.1 35.9-1.4.7z"/><path fill="#375c4a" fill-opacity=".5" d="M87.8 86.1l5.3-9.6 8.2 4.6-5.3 9.5z"/><path fill="#daba87" fill-opacity=".5" d="M235 150.6l-140.4-7.4v-1.6l140.5 7.4z"/><path fill="#04291e" fill-opacity=".5" d="M308.2 36.4l11.9-3.8 1.4 4.4-11.9 3.9z"/><path fill="#9aa7bc" fill-opacity=".5" d="M391 74.9l-8.6-16.7 25-12.8 8.6 16.7z"/><path fill="#dee4e1" fill-opacity=".5" d="M150.2 97l1.5.3-6.6 41.6-1.5-.2z"/><path fill="#91a7c5" fill-opacity=".5" d="M1.2 77.2L-.3 77l7-49.5 1.5.2z"/><path fill="#103a33" fill-opacity=".5" d="M279 50v-1.6l43.5-3 .2 1.5z"/><path fill="#002a2a" fill-opacity=".5" d="M277.5 32.6l7.7-1 1.4 9.2-7.8 1.1z"/><path fill="#dee5f9" fill-opacity=".5" d="M270.5 137.2l3.2 10.5-23.9 7.3-3.2-10.5z"/><path fill="#000376" fill-opacity=".5" d="M222.3 26.8l-.4-1.5 13.6-3.7.4 1.6z"/><path fill="#948e87" fill-opacity=".5" d="M319.5 194.3l-25.9-20.2 1-1.2 25.8 20.2z"/><path fill="#defdff" fill-opacity=".5" d="M129.2 121.6l-.6 6.2-9.4-1 .7-6.2z"/><path fill="#c3c7e4" fill-opacity=".5" d="M345.3 139.8h-4.7V77.3h4.7z"/><path fill="#002634" fill-opacity=".5" d="M327.7 44.6l-2.2-25h1.5l2.2 24.8z"/><path fill="#00000f" fill-opacity=".5" d="M355.5-31.3l4.6.2-4.6 89-4.7-.3z"/><path fill="#020200" fill-opacity=".5" d="M381.7 35.8l-23.4 58-7.2-3 23.4-58z"/><path fill="#3d615d" fill-opacity=".5" d="M291.6 132.5l1.4-14 35.8 3.7-1.5 14z"/><path fill="#dac4bb" fill-opacity=".5" d="M.7 101.5l1.6.1L.9 122l-1.6-.1z"/><path fill="#ecdcca" fill-opacity=".5" d="M90.2 46.9L88 14.2l1.6-.2 2.3 32.8z"/><path fill="#827976" fill-opacity=".5" d="M128.9 163.3l1.4.6-20.1 52.5-1.5-.6z"/><path fill="#000717" fill-opacity=".5" d="M295.2 46.7l-1.6.2-2.8-20.1 1.5-.2z"/><path fill="#52746d" fill-opacity=".5" d="M65.8 109l-3.3-26.4L82.7 80l3.2 26.4z"/><path fill="#857a7c" fill-opacity=".5" d="M21.5 159.9l5.6 2.7-9.6 19.7-5.6-2.7z"/><path fill="#af4645" fill-opacity=".5" d="M248.2 106.9l-.8-9.4 68.5-6 .8 9.4z"/><path fill="#8a7c75" fill-opacity=".5" d="M136.8 203.6l-1.6.2-4.8-34 1.6-.2z"/><path fill-opacity=".5" d="M391.8 165.8l-2.3-18.6 17.1-2 2.3 18.5z"/><path fill="#403f47" fill-opacity=".5" d="M246.1 66.8v1.5L114.8 66v-1.5z"/><path fill="#394e55" fill-opacity=".5" d="M21.6-8l15.6.3-1 61-15.6-.3z"/><path fill="#dfd9e3" fill-opacity=".5" d="M259.8 65.8l-10.2-29.5 1.5-.5 10.2 29.5z"/><path fill="#850013" fill-opacity=".5" d="M329.2 115.6L327 86h1.6l2 29.5z"/><path fill="#d7c5d1" fill-opacity=".5" d="M74.6 82.8h3L77 122h-3.1z"/><path fill="#305468" fill-opacity=".5" d="M374-19.4l3.2-.1 6.5 124.8-3 .2z"/><path fill="#c8c5d4" fill-opacity=".5" d="M184.4 63.8L339 61.2v1.5l-154.6 2.7z"/><path fill="#cce5f1" fill-opacity=".5" d="M226.6 101.7v4.7l-17.3-.3.1-4.7z"/><path fill="#14434b" fill-opacity=".5" d="M277.4 26.1v-1.5l43.6-2.3.1 1.6z"/><path fill="#000006" fill-opacity=".5" d="M52 86l-1 31.2-48.4-1.6 1-31.3z"/><path fill="#dcf8d9" fill-opacity=".5" d="M75.7 19.8l1.7 10.8-7.7 1.2L67.9 21z"/><path fill="#b1b7bb" fill-opacity=".5" d="M218.3 140l5.7-29 3 .5-5.6 29.2z"/><path fill="#e0f0ff" fill-opacity=".5" d="M153.9 79.8v-1.6l84.4 3v1.5z"/><path fill="#f6f2ff" fill-opacity=".5" d="M243.4 10.8l37 6.5-.4 1.6-36.9-6.5z"/><path fill="#003296" fill-opacity=".5" d="M193 113.3l-1.7 34.4-1.6-.1 1.8-34.3z"/><path fill="#d4d7c2" fill-opacity=".5" d="M308.5 118.6l-1.6.1-4.4-42 1.5-.1z"/><path fill="#8f7c74" fill-opacity=".5" d="M116.5 169.2l1.3 1-45.3 55.9-1.2-1z"/><path fill="#eee1d8" fill-opacity=".5" d="M289 137l-4.5-1.2 6-24.3 4.6 1.2z"/><path fill="#00162d" fill-opacity=".5" d="M271.3 25l4.2 16.7-1.5.4-4.2-16.7z"/><path fill="#796657" fill-opacity=".5" d="M375.3 188.3h-1.6l2.6-71.9h1.5z"/><path fill="#8c95a1" fill-opacity=".5" d="M347.7 97.7h3v53h-3z"/><path fill="#bcc2d8" fill-opacity=".5" d="M356.6-12.7l-18.1 50-3-1.2 18.2-49.9z"/><path fill="#e2d1d8" fill-opacity=".5" d="M300.4 158.8l-4.8-6.2 8.6-6.7 4.9 6.2z"/><path fill="#0c223a" fill-opacity=".5" d="M24.4 73.4l-1.5.3-36.3-145.5 1.5-.4z"/><path fill="#c8c8c9" fill-opacity=".5" d="M138.5 136.5l-1.5.2-5.2-59.2 1.5-.1z"/><path fill="#605d5a" fill-opacity=".5" d="M122 156.6l.7 1.4-40 21.3-.7-1.4z"/><path fill="#001421" fill-opacity=".5" d="M335.4 43.6l-1.5.2-2.1-20.2 1.5-.2z"/><path fill="#e7eafb" fill-opacity=".5" d="M281.5 12.2l4-2.7 9.5 14.3-3.9 2.6z"/><path fill="#929eac" fill-opacity=".5" d="M51.7 66.3l2.8-53h1.6l-2.8 53.1z"/><path fill="#cbc8d3" fill-opacity=".5" d="M159.3 21.9l3.2 60.8-1.5.1-3.2-60.8z"/><path fill="#ffffe6" fill-opacity=".5" d="M224.4 32.8l-1.4 2.8-8.4-4.3 1.5-2.8z"/><path fill="#001a22" fill-opacity=".5" d="M339 120.7l-39-.7v-1.6l39 .7z"/><path fill="#a5403e" fill-opacity=".5" d="M119.6 35.5l3.6-7 30.6 15.7-3.5 7z"/><path fill="#fafcf7" fill-opacity=".5" d="M192.5 92.4l1.6-.2 2.4 20.1-1.5.2z"/><path fill="#b5524a" fill-opacity=".5" d="M107.7 38.7l.2 14.1-35.9.6-.2-14z"/><path fill="#ebf5ff" fill-opacity=".5" d="M178.7 96.8l.5-14 6.2.1-.5 14z"/><path fill="#d8e1e2" fill-opacity=".5" d="M108.6 56.9l5-14.8 7.5 2.6-5.1 14.7z"/><path fill="#001325" fill-opacity=".5" d="M229.4 136l-3-.3 2-17 3.1.3z"/><path fill="#fff8f4" fill-opacity=".5" d="M294.7 34l-.7-1.4 13-5.6.6 1.4z"/><path fill="#5e7e98" fill-opacity=".5" d="M377.6 49l5.8-67 21.8 1.9-5.8 67z"/><path fill="#ebd8c1" fill-opacity=".5" d="M104 18h1.5l-1.6 31.2h-1.6z"/><path fill="#dcf9eb" fill-opacity=".5" d="M286.4 112.7L284 98.8l3-.5 2.5 13.8z"/><path fill="#c7504f" fill-opacity=".5" d="M81.2 25.8l.1-4.7 42.2 1.5-.2 4.7z"/><path fill="#e2d0b9" fill-opacity=".5" d="M137.6 19.6l-3.3 46.8-1.6-.1 3.3-46.8z"/><path fill="#000805" fill-opacity=".5" d="M127.5-6l-.3 14-21.9-.4.3-14z"/><path fill="#000f19" fill-opacity=".5" d="M373.1 23.5l-11-.2.7-35.9 11 .2z"/><path fill="#05111c" fill-opacity=".5" d="M48.4 82.9l18.4 19-1.1 1.2L47.2 84z"/><path fill="#8d0e1f" fill-opacity=".5" d="M237.4 86.6l1.1-1 16.3 16.8-1.1 1.1z"/><path fill-opacity=".5" d="M157.5 177.9l13.8 17-8.5 6.9-13.8-17z"/><path fill="#897372" fill-opacity=".5" d="M220.6 178.1l25.3-12.3.7 1.4-25.3 12.3z"/><path fill="#920006" fill-opacity=".5" d="M79 44.8L62 26.5l1.1-1 17 18.3z"/><path fill="#fff4e7" fill-opacity=".5" d="M196.3 36.7l-1.5-.3 4.2-21.5 1.5.3z"/><path fill="#cdcee2" fill-opacity=".5" d="M169.5 78.3l93.5-6.6.3 4.7-93.5 6.6z"/><path fill="#f3f5f5" fill-opacity=".5" d="M253.1 125h-1.5V76.6h1.5z"/><path fill="azure" fill-opacity=".5" d="M184.5 111.1l1.6-.2 2.8 20.1-1.5.3z"/><path fill="#000e16" fill-opacity=".5" d="M13.2 71.6l-1.5.2-4.6-29.3 1.5-.3z"/><path fill="#e5eafc" fill-opacity=".5" d="M267 63.2l-13.6-7.8 6.2-10.8 13.6 7.8z"/><path fill="#706e79" fill-opacity=".5" d="M112.6 72.5V71L239 66.5v1.6z"/><path fill="#c0a989" fill-opacity=".5" d="M290.6 114l-86-3 .1-1.6 86 3z"/><path fill="#7aa4d0" fill-opacity=".5" d="M353.5 33l5.7-2.5 4.5 10L358 43z"/><path fill="#e5dce9" fill-opacity=".5" d="M68.8 76.1l-3.3 15.3-1.5-.3 3.3-15.3z"/><path fill="#790000" fill-opacity=".5" d="M165.5 46.7l-1.6.2-2.8-23.3 1.5-.2z"/><path fill="#ddd4d7" fill-opacity=".5" d="M289 137.3l39-2.7.1 1.5-39 2.8z"/><path fill="#a8b7d7" fill-opacity=".5" d="M5 55.5l-1.6-.1L6 18h1.6z"/><path fill="#878c96" fill-opacity=".5" d="M50 149.6l48.5.8-.1 7.8-48.5-.8z"/><path fill="#a13f38" fill-opacity=".5" d="M229 99.2V83.6h6.2v15.6z"/><path fill="#d7e3fb" fill-opacity=".5" d="M69.8 7.7l2.3 4.1-12.2 7-2.3-4z"/><path fill-opacity=".5" d="M181.9 183.1L140 161.8l1.4-2.7 41.8 21.2z"/><path fill="#000a11" fill-opacity=".5" d="M49.3 200.6l-25-1.3 6-114 25 1.4z"/><path fill="#fff" fill-opacity=".5" d="M299.5 38l1 6.1-4.7.8-1-6.2z"/><path fill="#053b45" fill-opacity=".5" d="M312.3 46.1h-4.7l.4-25h4.7z"/><path fill="#7986a0" fill-opacity=".5" d="M19.3-10.6l9.5 41.1L13.5 34 4-7z"/><path fill="#000383" fill-opacity=".5" d="M230.3 25.8l-1.3 25h-1.5l1.3-25z"/><path fill="#263f80" fill-opacity=".5" d="M160.3 145l-.2-1.5 25-2.6v1.5z"/><path fill="#b1b6cb" fill-opacity=".5" d="M62.1 65.4l-4.7.3L52-39l4.6-.2z"/><path fill="#002430" fill-opacity=".5" d="M118.2 101.8l-1.5.4-5.3-21.2 1.6-.4z"/><path fill="#232a36" fill-opacity=".5" d="M18.8 67.2v-1.6h198.4v1.6z"/><path fill="#ddd9d4" fill-opacity=".5" d="M287.2 62.3l-5.6-22.7 1.5-.4 5.6 22.8z"/><path fill="#f9ffff" fill-opacity=".5" d="M187.9 98.8l.8-6.2 6.2.8-.8 6.2z"/><path fill="#000002" fill-opacity=".5" d="M240 168.8l10 10-16.6 16.5-10-10z"/><path fill="#fffcff" fill-opacity=".5" d="M384.3 56.3L387 62l-4.2 2.1-2.8-5.6z"/><path fill="#0c2a6b" fill-opacity=".5" d="M231.6 117l14 6.8-.6 1.4-14-6.8z"/><path fill="#bfc3dd" fill-opacity=".5" d="M76.7 144.5l92.1 4.8-.2 4.7-92.1-4.9z"/><path fill="#002e45" fill-opacity=".5" d="M248 42.1l-1.6-.2 4.1-26.2 1.6.2z"/><path fill="#dcefff" fill-opacity=".5" d="M139.8 76.2V81l-40.5.7-.1-4.7z"/><path fill="#e2e1d8" fill-opacity=".5" d="M134.2 113.2l-63.9-4.5.1-1.6 64 4.5z"/><path fill="#001d9e" fill-opacity=".5" d="M189.3 48.1l-1.6.3-3.5-20 1.5-.3z"/><path fill-opacity=".5" d="M98.7 173.9L104 185l-16.8 8.2-5.5-11.2z"/><path fill="#fff3d2" fill-opacity=".5" d="M91 83l.8-1.3 9.4 5.6-.8 1.3z"/><path fill-opacity=".5" d="M391.3 121.2l1.4 7.7-26.2 4.6-1.4-7.7z"/><path fill="#c7c2d5" fill-opacity=".5" d="M301 10.1l1.4-.3 13.9 78.5-1.6.3z"/><path fill="#cedde2" fill-opacity=".5" d="M241.2 114.7l-1.6.1-4.2-40.4 1.5-.2z"/><path fill="#00080d" fill-opacity=".5" d="M218 162.5h65.6v4.7H218z"/><path fill="#00111e" fill-opacity=".5" d="M166.5 109.3l1.4-26.5h1.5l-1.3 26.6z"/><path fill="#8e4631" fill-opacity=".5" d="M72.9 140l-6 1.8-7-24 6-1.8z"/><path fill="#002d38" fill-opacity=".5" d="M139.8 81.7l1.5-.3 4.9 19.7-1.5.3z"/><path fill="#00216e" fill-opacity=".5" d="M176.4 116.9l1.5-.5 3.5 12-1.5.5z"/><path fill="#fffaf8" fill-opacity=".5" d="M317.3 149.7l5.7 7.5-1.3 1-5.6-7.6z"/><path fill="#840515" fill-opacity=".5" d="M186.2 107.8L182.6 91l1.5-.3 3.6 16.8z"/><path fill="#ffedc9" fill-opacity=".5" d="M208.1 36.2l1-1.1 9.3 8.3-1 1.2z"/><path fill="#ffffe1" fill-opacity=".5" d="M250.5 29.3l2.2-7.5 1.5.5-2.3 7.4z"/><path fill="#27211e" fill-opacity=".5" d="M360 100.5l-4 2.3-11.4-20.5 4.1-2.3z"/><path fill="#000f12" fill-opacity=".5" d="M369.5 72.1l-.8-3 19.6-5.3.8 3z"/><path fill="#e0ebff" fill-opacity=".5" d="M175 47.7h-7.8v-22h7.8z"/><path fill="#7d797c" fill-opacity=".5" d="M6.6 202.4l-1.3-.7 14.6-27.6 1.4.8z"/><path fill="#8f0119" fill-opacity=".5" d="M300.5 111.4l-7.2-27.1 1.5-.4L302 111z"/><path fill="#f4f5ff" fill-opacity=".5" d="M186.2 57.6l-6.8-32 1.5-.4 6.9 32z"/><path fill-opacity=".5" d="M119.6 184.5L103.9 206l-6.3-4.6 15.6-21.5z"/><path fill="#c8bfb2" fill-opacity=".5" d="M274.2 120.6l-4.6 26.2-1.6-.3 4.6-26.1z"/><path fill-opacity=".5" d="M121.6 203.2l5.3-34 6.2 1-5.4 34z"/><path fill="#fffffc" fill-opacity=".5" d="M128.4 89.1l-.6 11-1.5-.1.5-11z"/><path fill="#d1c8da" fill-opacity=".5" d="M319.2 44.3l2.2-31.1 4.7.3-2.2 31.2z"/><path fill="#fee8be" fill-opacity=".5" d="M112.4 30l-3 13.8-1.5-.4 3-13.7z"/><path fill="#a2a8b9" fill-opacity=".5" d="M397.5 132.6l7.4 12-4 2.4-7.4-11.9z"/><path fill-opacity=".5" d="M380.1 141.5l2.1 10.8-7.6 1.5-2.1-10.8z"/><path fill="#00131a" fill-opacity=".5" d="M33 76.1l-7.7-28.7 12-3.2L45 72.9z"/><path fill="#dbd6d5" fill-opacity=".5" d="M170.2 140l-3.1-.3 1.7-25 3.2.3z"/><path fill="#000399" fill-opacity=".5" d="M166 116.4l-.7 18.8h-1.6l.7-18.8z"/><path fill="#1c4653" fill-opacity=".5" d="M397.4 20.8l-6 1.4-6-25.8 6-1.5z"/><path fill="#00242b" fill-opacity=".5" d="M87.6 85.2l1.1-1 9.6 10.3-1.1 1z"/><path fill="#00090a" fill-opacity=".5" d="M82.4 212l-27.9 10-19.7-54.2 27.9-10.2z"/><path fill="#153874" fill-opacity=".5" d="M199.8 144l-1.1-1.1 25-25.9 1 1z"/><path fill="#a3524f" fill-opacity=".5" d="M120.7 118.5l-.8 22-32.8-1.2.8-21.9z"/><path fill="#e4dead" fill-opacity=".5" d="M120.5 105.5l-.4-21.9h1.6l.4 21.9z"/><path fill="#d1daf7" fill-opacity=".5" d="M339.8 51.6v7.8H155.5v-7.8z"/><path fill="#0a1115" fill-opacity=".5" d="M183.4 185.9l-12.4-1.7 3.5-24.8 12.3 1.7z"/><path fill="#e2dddb" fill-opacity=".5" d="M202.9 139.9h-1.6l.5-31.3h1.6z"/><path fill="#ffffe8" fill-opacity=".5" d="M204.6 44.5l.1 6.2-4.6.1-.2-6.2z"/><path fill="#034452" fill-opacity=".5" d="M145.7 108.5l-1.5-.3 5.4-27.6 1.5.3z"/><path fill="#94000c" fill-opacity=".5" d="M92.3 28.8l9 18.3-1.5.7L91 29.5z"/><path fill="#c5b0a5" fill-opacity=".5" d="M109.9 158.5h-1.6l-4.1-59.2h1.5z"/><path fill="#925753" fill-opacity=".5" d="M66 160.2l17.8 40-1.4.6-17.8-40z"/><path fill="#002b33" fill-opacity=".5" d="M295.8 147.3l-1.4-.8 5.2-7.9 1.3.9z"/><path fill="#11474e" fill-opacity=".5" d="M105.3 81.7l6.2.8-2.7 21.7-6.2-.8z"/><path fill="#002930" fill-opacity=".5" d="M308.5 143.2l12.4-2 .2 1.6-12.3 2z"/><path fill="#004953" fill-opacity=".5" d="M285.7 116.9l-22.5 6.8-.4-1.5 22.4-6.8z"/><path fill="#03111c" fill-opacity=".5" d="M379.6 47.8l2.6-1.8 5.4 7.7-2.6 1.8z"/><path fill="#962431" fill-opacity=".5" d="M271.5 84.2l.8 23.5-7.8.2-.8-23.4z"/><path fill="#c8ded4" fill-opacity=".5" d="M108.8 104.6l1.2-23.4 1.5.1-1.2 23.4z"/><path fill="#27403c" fill-opacity=".5" d="M70.4 105.8l-6.1-1L68.6 80l6.2 1.1z"/><path fill="#635a5c" fill-opacity=".5" d="M185.6 173l-35.7-11.6.5-1.5 35.6 11.6z"/><path fill="#7d1b16" fill-opacity=".5" d="M225.9 87l1.3-.8 11 19-1.4.8z"/><path fill="#000093" fill-opacity=".5" d="M194 24.2l-.4 18.8H192l.4-18.8z"/><path fill="#b1b2b8" fill-opacity=".5" d="M72.4 152.4l-1.1-65.7h1.6l1.1 65.6z"/><path fill="#d4daf7" fill-opacity=".5" d="M58.8 128.5l7.3 22.2-1.5.5-7.2-22.3z"/><path fill="#97000c" fill-opacity=".5" d="M125.9 31.7l-5 19.7-1.5-.3 5-19.7z"/><path fill="#00162c" fill-opacity=".5" d="M90.6 78l.7-1.4 7.1 3.2-.6 1.4z"/><path fill="#000005" fill-opacity=".5" d="M211.1 163.2l-9 23.4-11.6-4.5 9-23.4z"/><path fill="#e9ebe4" fill-opacity=".5" d="M163.4 73.5h1.6l1.3 35.8h-1.6z"/><path fill="#1d343f" fill-opacity=".5" d="M-14.5 41.4l40 37.3-3.2 3.4-40-37.3z"/><path fill="#78161a" fill-opacity=".5" d="M220.4 95.3l1.5.3-3.2 16.9-1.6-.3z"/><path fill="#71737b" fill-opacity=".5" d="M399.1 181.6l-21.8-.7.1-4.7 21.9.7z"/><path fill="#43000c" fill-opacity=".5" d="M76 116.4l1 18.7h-1.5l-1-18.6z"/><path fill="#ebc6bb" fill-opacity=".5" d="M115.6 98.4v36h-1.5v-36z"/><path fill="#ffffe3" fill-opacity=".5" d="M188.8 29l1.6-.1.5 15.6h-1.6z"/><path fill="#001d06" fill-opacity=".5" d="M336.3 134.3l2.3 7.5-1.5.4-2.3-7.4z"/><path fill="#8e0000" fill-opacity=".5" d="M74.8 19.7l-10.8-2 .3-1.5 10.8 2z"/><path fill="#cdb792" fill-opacity=".5" d="M286.8 111.6l50 1.8-.1 1.5-50-1.7z"/><path fill-opacity=".5" d="M83.1 172l-2.1-6 21.9-8.4 2.2 5.9z"/><path fill="#c3c7db" fill-opacity=".5" d="M352.2 72l-6.3-.3.4-4.7 6.2.4z"/><path fill="#9d9da7" fill-opacity=".5" d="M220.5 153.4l104.5 7.3-.2 3.1-104.5-7.3z"/><path fill="#8e0113" fill-opacity=".5" d="M146.6 23.2l-5.7 21.2-1.5-.4 5.6-21.2z"/><path fill="#7e000a" fill-opacity=".5" d="M153.3 22l1.5-.1 2.9 23.2-1.6.2z"/><path fill="#615a51" fill-opacity=".5" d="M4.4 112.5l1.4-.9L19 132.8l-1.3.9z"/><path fill="#efe9ee" fill-opacity=".5" d="M314.2 45.2l-1.6-6 6-1.6 1.6 6z"/><path fill="#013e4d" fill-opacity=".5" d="M257.4 15.7L255 48.5l-1.6-.2 2.3-32.7z"/><path fill="#8a95a4" fill-opacity=".5" d="M366.2 49.9l-10.3-19.3 1.4-.8 10.2 19.3z"/><path fill="#10357b" fill-opacity=".5" d="M198.1 28.2l.9-1.3 20 12-.8 1.4z"/><path fill="#88929b" fill-opacity=".5" d="M381.8 213.5l-1.3-.8 17.4-27.8 1.3.8z"/><path fill="#f9fff6" fill-opacity=".5" d="M132.6 139.8l-1.5-.6 3.5-8.7 1.5.6z"/><path fill="#dbeaeb" fill-opacity=".5" d="M143.3 34l7.8-.8 1 9.3-7.8.9z"/><path fill="#dffff2" fill-opacity=".5" d="M129.4 20.3l.5 14-1.5.1-.5-14z"/><path fill="#00070c" fill-opacity=".5" d="M125.1 98.4h-1.5l-.3-17.1h1.5z"/><path fill="#00393f" fill-opacity=".5" d="M119.4 107.8h-1.6l1.9-26.6 1.5.1z"/><path fill="#72554a" fill-opacity=".5" d="M333 172.5l1.1 1-37.3 46.2-1.2-1z"/><path fill="#000005" fill-opacity=".5" d="M43.3 69.9L44 76l-20.2 2.5-.8-6.2z"/><path fill="#003032" fill-opacity=".5" d="M265.4 49.8l-.8-1.3 9-6.1.9 1.3z"/><path fill-opacity=".5" d="M370.3 92.7v-6.3l32.9.6-.1 6.3z"/><path fill="#ebe6f6" fill-opacity=".5" d="M330.8 101.4l1.5-.5 4 11.8-1.4.5z"/><path fill="#002f3d" fill-opacity=".5" d="M135.1 80.5l4.8 24.6-1.6.3-4.7-24.6z"/><path fill="#00322a" fill-opacity=".5" d="M299.3 31.9l7.4 12-1.3.8-7.4-12z"/><path fill-opacity=".5" d="M153.1 209.2l-5.7 2.6L136 186l5.7-2.6z"/><path fill="#024340" fill-opacity=".5" d="M176.6 109.4L173.4 83l1.5-.2 3.3 26.4z"/><path fill="#fbd789" fill-opacity=".5" d="M208 19.5l-.3 15.7H206l.3-15.7z"/><path fill="#002385" fill-opacity=".5" d="M172 25.4l10.2-3.8.5 1.5-10.2 3.7z"/><path fill="#d5af84" fill-opacity=".5" d="M219.5 50v1.6H82V50z"/><path fill-opacity=".5" d="M262.4 176.2l-25.5 39.3-4-2.6 25.6-39.3z"/><path fill="#8c0000" fill-opacity=".5" d="M128.8 119.5l1.5.1-1.3 18.7-1.5-.1z"/><path fill="#dccbcf" fill-opacity=".5" d="M306.1 115.9l-9.3 14.4-1.4-.9 9.4-14.4z"/><path fill="#305369" fill-opacity=".5" d="M419.5 81.4l-2.8 12.2-47.2-11 2.8-12.1z"/><path fill="#896f57" fill-opacity=".5" d="M383.1 96.5l-2.5 7.4-6-2 2.6-7.4z"/><path fill="#e9ddbf" fill-opacity=".5" d="M294.5 148.4l.1 7.8-6.3.1v-7.8z"/><path fill="#a8a2af" fill-opacity=".5" d="M96.1 13.1l250-4.3v1.5L96 14.7z"/><path fill="#675d55" fill-opacity=".5" d="M387.2 148.6l-15.3-7.8 5-9.7 15.3 7.8z"/><path fill="#cac6ca" fill-opacity=".5" d="M331.7 132.1l12-27 4.3 1.8-12 27.1z"/><path fill="#dfd1c7" fill-opacity=".5" d="M196.1 122l1.6-.1 1.5 29.6h-1.5z"/><path fill="#c8c9d4" fill-opacity=".5" d="M308 14l2.7 39-4.6.2-2.8-39z"/><path fill="#a9333a" fill-opacity=".5" d="M143.5 123.1L147 140l-4.5 1-3.6-16.8z"/><path fill="#0032a9" fill-opacity=".5" d="M158.2 141.4h-1.6l-.7-21.8h1.5z"/><path fill="#0e4751" fill-opacity=".5" d="M162.5 81.5l1.4.7-12.3 25.3-1.4-.7z"/><path fill="#fff3e4" fill-opacity=".5" d="M261.8 85.1l1.4 15.6-1.6.1-1.3-15.5z"/><path fill="#888a93" fill-opacity=".5" d="M54.7 64H328v1.6H54.7z"/><path fill="#305550" fill-opacity=".5" d="M96 106.8l-.1 1.5-34.1-4.2.1-1.5z"/><path fill="#e1e2e7" fill-opacity=".5" d="M334.9 85.2l1.5.6-4.1 11.8-1.5-.5z"/><path fill="#003131" fill-opacity=".5" d="M324.2 113.5l10 4.4-.6 1.4-10-4.4z"/><path fill="#c2d7cd" fill-opacity=".5" d="M202.5 113.2l-1.6.1-1.8-34.3 1.6-.1z"/><path fill="#262511" fill-opacity=".5" d="M142-7.6l62.3 4.3-1 12.5L141 4.8z"/><path fill="#cbcde0" fill-opacity=".5" d="M77.8 112.2l10.6-9.2 7.2 8.2-10.6 9.3z"/><path fill="#d9ddf5" fill-opacity=".5" d="M270 146.2l.2 1.5-73 7.7-.2-1.6z"/><path fill="#fff" fill-opacity=".5" d="M151.5 133l1.8-6 3 .9-1.8 6z"/><path fill="#000004" fill-opacity=".5" d="M322.7-.1l9.1-8.5 9.6 10.3-9.1 8.5z"/><path fill="#284e50" fill-opacity=".5" d="M324.2 121l-68.7-1.3v-1.5l68.7 1.2z"/><path fill="#d7daf2" fill-opacity=".5" d="M257 13l65.6-1 .1 7.7-65.6 1.2z"/><path fill-opacity=".5" d="M2 168.3L0 159l18.4-4 1.9 9.3z"/><path fill="#f6e2dc" fill-opacity=".5" d="M254.2 34.6L252 45.4l-1.6-.3 2.1-10.8z"/><path fill="#000306" fill-opacity=".5" d="M-13.5 188.7l14.7-20.3L15 178.5.4 198.8z"/><path fill="#ded0c1" fill-opacity=".5" d="M102.1 132.8l-1.6-.1 2-23.3h1.6z"/><path fill="#193876" fill-opacity=".5" d="M174 144.5l-4.3-24.6 1.6-.3 4.3 24.6z"/><path fill="#9a9aac" fill-opacity=".5" d="M26.7 77.2L46.9 79l-.1 1.6-20.3-1.8z"/><path fill="#dce0f9" fill-opacity=".5" d="M245.3 51.6h-7.8V21.9h7.8z"/><path fill="#960419" fill-opacity=".5" d="M115.7 23.2l1.6-.4 6 24.3-1.5.4z"/><path fill="#dae1dc" fill-opacity=".5" d="M125.4 40.6l2.3 10.7-1.5.3-2.3-10.7z"/><path fill="#00000b" fill-opacity=".5" d="M351.7-33.5l1.6-.1 2.8 81.2h-1.6z"/><path fill="#871110" fill-opacity=".5" d="M222.7 97.6l-15.5 1.6-.2-1.5 15.5-1.6z"/><path fill="#cfc8bf" fill-opacity=".5" d="M259.8 133.1l-1-1.2 17.3-13.5 1 1.3z"/><path fill="#949793" fill-opacity=".5" d="M373.3 37.4l-1.4.6-6.1-14.4 1.4-.6z"/><path fill="#697178" fill-opacity=".5" d="M361.9 40.4l1.5.4L352.2 80l-1.5-.4z"/><path fill="#f7c391" fill-opacity=".5" d="M215.2 118l.8 15.5-1.5.1-.8-15.6z"/><path fill="#fcc7a1" fill-opacity=".5" d="M281.6 88.3l1.5.4-3.8 15.2-1.5-.4z"/><path fill="#c9dbf8" fill-opacity=".5" d="M139.2 111l45.3 1.5-.2 6.3-45.3-1.6z"/><path fill="#00383a" fill-opacity=".5" d="M281.3 23.4l1.6.2-3.3 26.4-1.5-.2z"/><path fill-opacity=".5" d="M10 124.4l6.6 19.2-25 8.6-6.7-19.2z"/><path fill="#a0a392" fill-opacity=".5" d="M279.3 155.4l-1.6-.1 4-37.3 1.5.2z"/><path fill="#e6d5c5" fill-opacity=".5" d="M83.2 54l-1.5-.4 2.3-9.1 1.5.4z"/><path fill="#072e25" fill-opacity=".5" d="M273 139.3l-.7 4.6-3-.4.6-4.6z"/><path fill="#0c3336" fill-opacity=".5" d="M339 49.1l-1.4.8-9.4-16.2 1.4-.8z"/><path fill="#dcdee7" fill-opacity=".5" d="M260.2 147.8l-8.8 3.2-7-19.1 8.9-3.2z"/><path fill="#002524" fill-opacity=".5" d="M329.6 33.6l1.6.3-3 15.3-1.6-.3z"/><path fill="#8a92a5" fill-opacity=".5" d="M77.4 68.9l-.2 3L43 70.3l.2-3.1z"/><path fill="#c0bcc4" fill-opacity=".5" d="M153.5 73l-3.9 24.6-1.5-.2 3.9-24.7z"/><path fill="#9d625f" fill-opacity=".5" d="M197.2 164.1l-15 31-2.9-1.4 15.1-31z"/><path fill="#941d26" fill-opacity=".5" d="M70.6 53.8l-2-2.4 15.5-13 2 2.4z"/><path fill="#cbd6e6" fill-opacity=".5" d="M88.2 138.1l-4.7.3-1.3-25 4.6-.2z"/><path fill="#d5d7e6" fill-opacity=".5" d="M252.4 98.4l-3-.7 6-25.8 3 .7z"/><path fill="#af2930" fill-opacity=".5" d="M228.1 84.4v1.5H186v-1.5z"/><path fill="#640000" fill-opacity=".5" d="M275.6 88.3h1.5l-1.1 21.9-1.6-.1z"/><path fill="#dacec7" fill-opacity=".5" d="M328.2 77.5l-3.3 37.3-1.5-.1 3.2-37.4z"/><path fill="#7e848f" fill-opacity=".5" d="M54.2 97.5l4.7.4-2.2 31.1-4.7-.3z"/><path fill="#bdb9cc" fill-opacity=".5" d="M79.7 94.5v40.7H78V94.5z"/><path fill="#cbd6f3" fill-opacity=".5" d="M121.8 25.7L82 18l.9-4.6 39.8 7.7z"/><path fill="#96353b" fill-opacity=".5" d="M254.7 107.7l-48.3 3.4-.1-1.6 48.3-3.4z"/><path fill="#2d57a7" fill-opacity=".5" d="M187.6 128.2l-.2-14 7.8-.2.2 14z"/><path fill="#eee9f6" fill-opacity=".5" d="M306 132.3l-2.7 15.4-1.5-.3 2.7-15.4z"/><path fill="#e4f0ed" fill-opacity=".5" d="M227.3 88.3v15.6h-3V88.3z"/><path fill="#565a5e" fill-opacity=".5" d="M19.3-20.5l17.1.3-1 57.8-17.2-.3z"/><path fill="#4e483a" fill-opacity=".5" d="M280.2-7l24.5 4.8-2 10.7L278 3.8z"/><path fill="#023344" fill-opacity=".5" d="M273.6 152.5l-1-1.3 14.8-11.5 1 1.2z"/><path fill="#002a14" fill-opacity=".5" d="M307.7 155.6l-2.9 1-1.6-4.4 3-1z"/><path fill="#163c6d" fill-opacity=".5" d="M241.9 135.1l-26.2-4.6.3-1.5 26.1 4.6z"/><path fill-opacity=".5" d="M91.3 102.8l-1.5.5-1.4-4.5 1.5-.5z"/><path fill="#f0ddce" fill-opacity=".5" d="M283.8 26.2l-2 6-1.5-.6 2-5.9z"/><path fill="#d9c9c5" fill-opacity=".5" d="M263.8 119.3l-1.1 1.2-34.3-32 1-1.1z"/><path fill-opacity=".5" d="M306.6 210.9l-15.4-29 6.9-3.7 15.4 29z"/><path fill="#ede5d4" fill-opacity=".5" d="M267.2 21l3 12.2-1.5.4-3-12.1z"/><path fill="#d6cfdd" fill-opacity=".5" d="M234.7 143.7l2.5-35.9 1.6.1-2.6 35.9z"/><path fill="#750000" fill-opacity=".5" d="M309.6 111H308l-.4-23.5h1.6z"/><path fill="#892939" fill-opacity=".5" d="M196.2 110.1l-1.5-.2L199 82l1.5.2z"/><path fill="#aabfdd" fill-opacity=".5" d="M63 91.7l-1.5.4-4.1-13.4 1.4-.5z"/><path fill="#c5b095" fill-opacity=".5" d="M332.5 141.6l-2.6 18.6-1.5-.2 2.6-18.6z"/><path fill="#00231d" fill-opacity=".5" d="M122.5 108.3l-1.1-4.5 4.5-1.2 1.2 4.6z"/><path fill="#cec9d7" fill-opacity=".5" d="M330.7 38.3l4.2 18.3-1.5.4-4.2-18.3z"/><path fill="#9f1d23" fill-opacity=".5" d="M258.3 84.5l5.3 22.8-1.6.4-5.2-22.8z"/><path fill="#6c6971" fill-opacity=".5" d="M211.7 67.2h112.5v1.5H211.7z"/><path fill="#f6e0d6" fill-opacity=".5" d="M259.5 27.6l3.5 3.2-5.4 5.7-3.4-3.2z"/><path fill="#000001" fill-opacity=".5" d="M280 170l21 47.1-4.4 2-21-47.2z"/><path fill="#1b357a" fill-opacity=".5" d="M219.8 48.2l-.6 1.4-21.8-8.7.6-1.5z"/><path fill="#00198a" fill-opacity=".5" d="M209.6 122.7l-.4 21.8h-1.6l.4-21.9z"/><path fill="#d4d0c0" fill-opacity=".5" d="M118.3 33.8l4.1-13.4 1.5.4-4.1 13.5z"/><path fill="#e2d5c0" fill-opacity=".5" d="M96 151.6l-1.3-36h1.5l1.3 36z"/><path fill-opacity=".5" d="M274.2 179.2l-12.8 41.9-6-1.9 12.9-41.8z"/><path fill="#751c0d" fill-opacity=".5" d="M81.1 138.3l-13.3 4.6-.5-1.5 13.3-4.6z"/><path fill="#e2e8fa" fill-opacity=".5" d="M105.6 74.7l-5 21.3-1.5-.4 5-21.3z"/><path fill="#950d04" fill-opacity=".5" d="M321 95l1.7-7.6 1.5.3-1.6 7.7z"/><path fill="#8e93a2" fill-opacity=".5" d="M350-24.2v87.5h-4.7v-87.5z"/><path fill="#dad8e8" fill-opacity=".5" d="M154.9 87.4l-1.3-.9 8.7-13 1.3 1z"/><path fill="#998171" fill-opacity=".5" d="M404 100h-9.4l-.1-4.6 9.4-.2z"/><path fill="#d7bc93" fill-opacity=".5" d="M213.2 54.3l-1.5.3-4.6-19.8 1.5-.3z"/><path fill="#00090e" fill-opacity=".5" d="M394.5 204.8l4.8-24.5 4.6.8-4.8 24.6z"/><path fill="#000101" fill-opacity=".5" d="M120.5 166.2l4.4 1.5-15.7 45.8-4.5-1.5z"/><path fill="#950020" fill-opacity=".5" d="M131 43l-10-14 2.6-1.8 9.9 14.1z"/><path fill="#e7d9d9" fill-opacity=".5" d="M294 28.3l.7-1.4 12.8 5.7-.6 1.4z"/><path fill="#a18e7b" fill-opacity=".5" d="M382.5 123.9l-6.2.6-1-9.3 6.2-.7z"/><path fill="#949da8" fill-opacity=".5" d="M356.6 99.3l-.7 18.7h-1.5l.6-18.8z"/><path fill="#cfc5cc" fill-opacity=".5" d="M143.8 61.7h1.5V93h-1.6z"/><path fill="#000106" fill-opacity=".5" d="M155.9 172.2l5.2-7.7 22 14.8-5.2 7.8z"/><path fill="#cbcbd9" fill-opacity=".5" d="M150.7 153.3l.2-7.8 78.1 2.7-.3 7.8z"/><path fill="#0a4f5d" fill-opacity=".5" d="M250.5 14.6L246.3 28l-1.4-.4 4-13.5z"/><path fill="#003f46" fill-opacity=".5" d="M286 47.1l16.8-3.6.3 1.6-16.8 3.5z"/><path fill="#001047" fill-opacity=".5" d="M217.2 139v-20.3h1.6v20.4z"/><path fill="#7c0000" fill-opacity=".5" d="M164.3 39l-8.8-3.2.5-1.4 8.8 3.2z"/><path fill="#d7d8dc" fill-opacity=".5" d="M324.7 93.7l2.4 1.9-9.6 12.3-2.4-2z"/><path fill="#08333f" fill-opacity=".5" d="M331.1 155.2l3.4-21.6 1.6.3-3.4 21.6z"/><path fill="#c8c5bf" fill-opacity=".5" d="M299.6 64.3l-1.5.5-11.7-30.6 1.4-.6z"/><path fill="#e8dfc7" fill-opacity=".5" d="M197 43h-1.6l-.2-12.5h1.6z"/><path fill="#1a5149" fill-opacity=".5" d="M159 108.7l-8.4-15 1.4-.8 8.3 15z"/><path fill="#853f31" fill-opacity=".5" d="M112.5 140.1l.3-1.5 23.1 4-.3 1.6z"/><path fill="#bcb5c7" fill-opacity=".5" d="M104 58.8l243.7 4.3v1.5l-243.8-4.2z"/><path fill="#840000" fill-opacity=".5" d="M137.6 39.8h-1.5l-.3-15.6h1.6z"/><path fill="#e2e2e4" fill-opacity=".5" d="M311.2 25.5l6.2-.9 1 7.7-6.1 1z"/><path fill="#506a83" fill-opacity=".5" d="M27.9 69.1l-1.5.5-12-37.2 1.4-.4z"/><path fill="#053d7b" fill-opacity=".5" d="M231.2 49.2l-3-21.6 1.5-.3 3 21.7z"/><path fill="#b56e69" fill-opacity=".5" d="M220 185.6l-1.4.6-9-23.4 1.5-.5z"/><path fill="#c4caae" fill-opacity=".5" d="M330.5 126l-.3 1.4-9.2-1.7.3-1.6z"/><path fill="#1a1a24" fill-opacity=".5" d="M59.4 73.8l-20.2 2.4-.2-1.5 20.2-2.5z"/><path fill="#cec0aa" fill-opacity=".5" d="M157.3 91.4h1.6l1 53.1h-1.6z"/><path fill="#e1ffff" fill-opacity=".5" d="M215.2 87.4l1.5.5-2.3 7.5-1.4-.5z"/><path fill="#a3001e" fill-opacity=".5" d="M277 84.8l5 6-1.1 1-5.1-6z"/><path fill="#ffe5b4" fill-opacity=".5" d="M140.1 110.9l1-14h1.6l-1 14z"/><path fill="#00313e" fill-opacity=".5" d="M132.4 92l-1.4.6-5.6-11.1 1.4-.7z"/><path fill="#204598" fill-opacity=".5" d="M175.4 127.4l.3 1.6-21.4 4.5-.3-1.5z"/><path fill="#d7ceb8" fill-opacity=".5" d="M288.8 98.1l2.2-13.9 3 .5-2.2 13.9z"/><path fill="#994043" fill-opacity=".5" d="M139.9 126l.3 1.4-50.4 10.8-.3-1.6z"/><path fill="#030200" fill-opacity=".5" d="M355.2 74.4l9.6-18 9.6 5.2-9.5 17.9z"/><path fill="#002e90" fill-opacity=".5" d="M185.7 26.2l7-3.6 1.3 2.8-7 3.5z"/><path fill-opacity=".5" d="M216.7 164.5l4.3-1.6 4.5 11.6-4.4 1.7z"/><path fill="#002c83" fill-opacity=".5" d="M219.2 22.9l-1.1 4.5-7.6-1.9 1.1-4.5z"/><path fill="#000406" fill-opacity=".5" d="M165.4 196.4l-3.9 2.6-25.3-37.6 3.9-2.6z"/><path fill="#033d47" fill-opacity=".5" d="M285.4 24.3l4.2 21.4-1.6.3-4.1-21.4z"/><path fill="#3d4e7e" fill-opacity=".5" d="M212.5 144.5v-1.6l32.8 1.7v1.6z"/><path fill="#0f1116" fill-opacity=".5" d="M321.2 162l37.5 2.6-.3 3.1-37.4-2.6z"/><path fill="#fff4e6" fill-opacity=".5" d="M95 98.4l1.4.7-2.3 4.1-1.4-.7z"/><path fill="#000209" fill-opacity=".5" d="M351.5 197.2l-1.4-42.2 18.7-.6 1.5 42.1z"/><path fill="#000811" fill-opacity=".5" d="M203.7 177.3l17.8 19.8-26.7 24-17.8-19.7z"/><path fill="#fde5f1" fill-opacity=".5" d="M325 131.6l-7.9-.7.2-1.5 7.8.6z"/><path fill="#012939" fill-opacity=".5" d="M331 126.5l-1.4-.7 3.4-7 1.4.7z"/><path fill="#d9d9dc" fill-opacity=".5" d="M275.8 35.3l4.6 15-1.5.4-4.6-15z"/><path fill="#c5c5d7" fill-opacity=".5" d="M137.3 89l-1.4-.6 3.3-7.1 1.4.6z"/><path fill="#e4dddf" fill-opacity=".5" d="M276.6 115.6h-32.9V111h32.9z"/><path fill="#e8c9ad" fill-opacity=".5" d="M299.8 86.7l1.5.5-2.7 9-1.5-.5z"/><path fill="#dadaf2" fill-opacity=".5" d="M58.8 80.2l-.2-1.5 34.1-4.2.2 1.5z"/><path fill="#970516" fill-opacity=".5" d="M289.5 110.8l.7-10.9 3.1.2-.7 11z"/><path fill="#cdc6c5" fill-opacity=".5" d="M321.1 113.7l1.2 1-13.7 17-1.2-1z"/><path fill="#ebdace" fill-opacity=".5" d="M219.7 121.1l7.1 8.3-1.1 1-7.2-8.2z"/><path fill="#001691" fill-opacity=".5" d="M221.7 39l1.5.6-2.7 7.3-1.5-.5z"/><path fill="#626874" fill-opacity=".5" d="M55.4 153.1l-6-22.6 3-.8 6 22.6z"/><path fill="#a2131b" fill-opacity=".5" d="M336.7 98.1L319 111l-1-1.3 17.7-12.9z"/><path fill="#ffe9d1" fill-opacity=".5" d="M188 104.7l-1.5-.3 2-10.7 1.6.3z"/><path fill="#899db2" fill-opacity=".5" d="M387.5 49.1l21.9-81.5 1.5.4L389 49.5z"/><path fill="#ced6f0" fill-opacity=".5" d="M195.1 14.5l45.2-2.4.5 9.4-45.2 2.3z"/><path fill="#001c2b" fill-opacity=".5" d="M9.6 3.7l.9 1.3-18.6 11.6-.8-1.3z"/></svg>