<svg xmlns="http://www.w3.org/2000/svg" viewBox="0 0 400 200"><path fill="#6a676e" d="M0 0h400v200H0z"/><g transform="translate(.8 .8) scale(1.5625)" fill-opacity=".5"><ellipse fill="#d2c3d1" rx="1" ry="1" transform="matrix(94.6687 20.20463 -9.66657 45.29267 127.9 54.2)"/><path d="M77 143l-93-57 266 32z"/><ellipse rx="1" ry="1" transform="matrix(-18.14555 -1.82434 8.27177 -82.2739 14.5 81.1)"/><ellipse rx="1" ry="1" transform="matrix(-2.1777 -87.74354 20.27931 -.50331 241.5 117.7)"/><ellipse fill="#e3c8d4" cx="72" cy="93" rx="42" ry="9"/><ellipse fill="#acc6d0" cx="188" cy="25" rx="37" ry="22"/><path fill="#020300" d="M0 104h238v24H0z"/><path fill="#f8ffff" d="M33 33h164v7H33z"/><path fill="#dee5fd" d="M53.7 6L11 12l161.7 2.8 13.8-9.3z"/><path fill="#cf493c" d="M39 14h66v20H39z"/><ellipse fill="#00040a" cx="24" cy="84" rx="9" ry="185"/><ellipse fill="#000700" cx="107" cy="1" rx="139" ry="4"/><ellipse fill="#000911" cx="232" cy="23" rx="9" ry="109"/><path fill="#035045" d="M97.1 68l4-14-33.6-1.4-8 16.4z"/><path fill="#cd5146" d="M218.4 71.8l-95-1.6.2-16 95 1.6z"/><path fill="#c8cedd" d="M224.2 104.9L219.6 2.7l-4.8 97.7-94.5-4.7z"/><ellipse fill="#627e99" rx="1" ry="1" transform="rotate(-85.9 12.4 .9) scale(29.10176 12.05238)"/><ellipse fill="#e6eafe" cx="148" cy="50" rx="75" ry="4"/><path fill="#3c5b93" d="M89 75h67v18H89z"/><path fill="#c1a3ab" d="M36 69h85v33H36z"/><path fill="#4d6c6f" d="M157 14h80v17h-80z"/><path fill="#3d7161" d="M214.5 76v22h-41V76z"/><path fill="#a2281b" d="M56 74h20v16H56z"/><ellipse cx="13" cy="72" rx="20" ry="20"/><path fill="#dbc8d8" d="M33.2-4l2.5 35.3L67.5 7.6l-22.6 5.8z"/></g></svg>