<svg xmlns="http://www.w3.org/2000/svg" viewBox="0 0 256 128"><path fill="#d3d3d4" d="M0 0h256v128H0z"/><g fill-opacity=".5"><path d="M79.5 76.5l16-92-84 28z"/><path fill="#fcffff" d="M153.5 143.5l118-138-186-14z"/><path fill="#320000" d="M104.5 37.5l-67 14-7-67z"/><path fill="#f8fcff" d="M6.5-15.5l86 159-108-19z"/><path fill="#ebeff3" d="M51.5 49.5l39 94 181-29z"/><path fill="#481d1a" d="M87.5-15.5l-61 52 68 17z"/><path fill="#9eabaa" d="M94.5 73.5l14-56-58 49z"/><path fill="#fff" d="M31.5-15.5l-47 22 37 34z"/><path fill="#e2e5e7" d="M254.5-15.5l-99 64 113 95z"/><path fill="#502f28" d="M27.5 33.5l61-25-56-24z"/><path fill="#c5cbcd" d="M104.5 8.5l19 46-40-13z"/><path fill="#7d847d" d="M96.5 34.5l-9 27h-42z"/><path fill="#300003" d="M76.5-11.5l13 29-28 21z"/><path fill="#cacfd2" d="M23.5 31.5l79 64-49-3z"/><path fill="#15361c" d="M68.5 47.5l-20 3-15-16z"/><path fill="#f7faff" d="M198.5 107.5l-70 22 45-77z"/><path fill="#ecf1f5" d="M-15.5-3.5l51-2-29 56z"/><path fill="#825656" d="M54.5 22.5l-22-10 45 6z"/><path fill="#2d0000" d="M53.5 8.5l15 18-27-16z"/><path fill="#ced8d5" d="M47.5 52.5l-21 18 48-22z"/><path fill="#d5d5da" d="M-2.5 93.5l143-1-57-27z"/><path fill="#ebedef" d="M117.5 43.5l-33-52 187 8z"/><path fill="#110309" d="M64.5 49.5l-11-4 27-3z"/><path fill="#7bac72" d="M62.5 7.5l11-7-17 2z"/><path fill="#6e6f67" d="M78.5 59.5l-24-1 41-18z"/><path fill="#276963" d="M34.5 11.5l-5-7 23-20z"/><path fill="#98a6a4" d="M90.5 11.5l15 40-16 1z"/><path fill="#3d7d7f" d="M44.5 48.5l-19-27 6 17z"/><path fill="#9e0c31" d="M81.5 6.5l11 2-13-24z"/><path fill="#eaecf0" d="M57.5 89.5l-73 1 30-85z"/><path fill="#150006" d="M85.5 36.5l-9 8-5-28z"/><path fill="#9d263f" d="M68.5 38.5l-11-16 22 14z"/><path fill="#ebecee" d="M150.5 95.5l-95-2 47 50z"/><path fill="#a5abb0" d="M92.5 7.5l19 4-17 2z"/><path fill="#e5fdfc" d="M76.5 47.5l11-8-3-2z"/><path fill="#cccecf" d="M175.5 53.5l35-12 43 11z"/><path fill="#dbddde" d="M141.5 13.5l73-20 57 20z"/><path fill="#79524e" d="M85.5 28.5l-20-21 17 8z"/><path fill="#421b17" d="M32.5 35.5l43 6-45-23z"/><path fill="#b6b9b9" d="M229.5 91.5l-21 6-17-6z"/><path fill="#c89eb5" d="M54.5 14.5l-5 8 4-1z"/><path fill="#d783a6" d="M47.5.5l-1 7 3-5z"/><path fill="#420006" d="M54.5 14.5l-10 5 11-30z"/><path fill="#aac88b" d="M70.5 20.5l-4-4h-8z"/><path fill="#565032" d="M43.5 22.5l14 20-13 7z"/><path d="M68.5 3.5l-9-16-11 7z"/><path fill="#28100d" d="M61.5 6.5l-12 29 8 6z"/><path fill="#0e0205" d="M91.5 6.5l-6 17-2-12z"/><path fill="#cbcecf" d="M129.5 50.5l49-2-23 8z"/><path fill="#f2f4f5" d="M182.5-15.5l75 25-166-1z"/><path fill="#edeff0" d="M122.5 50.5l-10-39 145 37z"/><path fill="#929494" d="M53.5 54.5l14-2-7 16z"/><path fill="#e9ebec" d="M120.5 92.5l-16-38 90-1z"/><path fill="#cbd0d1" d="M54.5 49.5l-5 12-44-11z"/><path fill="#fdfeff" d="M139.5 107.5l33-32-33 2z"/><path fill="#6c6d65" d="M82.5 45.5l10-11 1 9z"/><path fill="#67593f" d="M41.5 3.5l-9 29 12-11z"/><path fill="#b3b5b8" d="M244.5 96.5l9-5-27-1z"/><path fill="#e6e8e9" d="M248.5 91.5l21-38-129 1z"/><path fill="#070000" d="M70.5 19.5l9 9-13 5z"/><path fill="#e27f98" d="M83.5 5.5l5-21h10z"/><path fill="#dddfdf" d="M126.5 136.5l127-44 15 37z"/><path fill="#ed8699" d="M67.5 35.5l3-2v4z"/><path fill="#261306" d="M66.5 17.5l-8-5 30-8z"/><path fill="#c9ccd1" d="M97.5 78.5l2-60 14 36z"/><path fill="#bbc1c4" d="M-2.5 12.5h25l-8-5z"/><path fill="#cccfcf" d="M132.5 6.5l18 5-38 1z"/><path fill="#130200" d="M56.5 34.5l10 1-21 8z"/><path fill="#9e4a57" d="M50.5 35.5l15-6-2-5z"/><path fill="#bfc0c3" d="M116.5 92.5l24-3-5 7z"/><path fill="#5b854e" d="M61.5 39.5l-4 5-12-1z"/><path fill="#a16665" d="M30.5 17.5l5 2-3-11z"/><path fill="#2e0007" d="M69.5 32.5l10 2 2-20z"/><path fill="#cacccd" d="M213.5 12.5l21-8 28 8z"/><path fill="#bcbec2" d="M93.5 63.5l-41 1 17 12z"/><path fill="#540a16" d="M45.5 42.5l-12-23 16 14z"/><path fill="#349687" d="M91.5 13.5l-3 6 3 4z"/><path fill="#400005" d="M85.5 1.5l-12-1 18-11z"/><path fill="#000b00" d="M41.5 3.5l-8-19 23 2z"/><path fill="#daffee" d="M86.5 34.5l-1 5 4-6z"/><path fill="#50000b" d="M68.5 25.5l-11 8 10 4z"/><path fill="#d2ebe4" d="M66.5 52.5l8-4h-8z"/><path fill="#e0e2e3" d="M253.5 93.5l-35 50-25-49z"/><path fill="#eef3c8" d="M47.5-15.5l23 18-13-18z"/><path fill="#b5b6bb" d="M41.5 93.5h-22l8-4z"/><path fill="#282b2b" d="M87.5 33.5l-13 13 7-14z"/><path fill="#a0686c" d="M61.5 11.5l-9-4 15 2z"/><path fill="#bbbcc1" d="M119.5 49.5l-11 4 24-1z"/><path fill="#b2b4b4" d="M166.5 52.5l10-3 11 3z"/><path fill="#528992" d="M27.5 19.5l-2 11 7-3z"/><path fill="#caf1eb" d="M75.5 49.5l2-5-5 5z"/><path fill="#f3f3f8" d="M-12.5 53.5l57 1-26 10z"/><path fill="#8a4745" d="M48.5 33.5l-9 1 6-7z"/><path fill="#f0f8fb" d="M11.5-15.5l12 42 7-41z"/><path fill="#041000" d="M64.5 33.5l1 7-9 5z"/><path fill="#e6e8ea" d="M137.5 89.5l-72 1 77-24z"/><path fill="#480517" d="M66.5 6.5l-12 7-1 10z"/><path fill="#c6e5e2" d="M42.5 47.5l-6-3 2 9z"/><path fill="#446827" d="M40.5 16.5l5 10-14-8z"/><path fill="#6b0013" d="M51.5 3.5l43-19-59 3z"/></g></svg>