<svg xmlns="http://www.w3.org/2000/svg" viewBox="0 0 50 25"><path fill="#d3d3d4" d="M0 0h50v25H0z"/><g fill-opacity=".5"><path d="M4.5 6.5l13-22v27z"/><path fill="#f4f7fb" d="M44.5-12.5l-60 53h81z"/><path fill="#310000" d="M17.5 3.5l-14-19 6 25z"/><path fill="#fcffff" d="M9.5 16.5l-25 22 16-47z"/><path fill="#939899" d="M15.5 15.5l6-8-11 3z"/><path fill="#43130f" d="M17.5 5.5l-6 4-1-25z"/><path fill="#f4f5f7" d="M35.5 31.5l-25-47h26z"/><path fill="#f4fbff" d="M5.5 7.5l-21 2 19-25z"/><path fill="#bfc0c2" d="M23.5 10.5l-8 8 3-15z"/><path fill="#29201b" d="M5.5 3.5h2l1 4z"/><path fill="#d9dbdc" d="M49.5 33.5l16-25h-32z"/><path fill="#5c4c3b" d="M24.5-2.5l3-13-23 18z"/><path fill="#dbdbde" d="M3.5 18.5l32-12-15 12z"/><path fill="#3c1618" d="M15.5 8.5l2-12-5 9z"/><path fill="#939694" d="M18.5 7.5l-9 4 11 1z"/><path fill="#e5e7e6" d="M29.5 14.5l-11-3 21-7z"/><path fill="#57302d" d="M1.5-8.5l6-6 9 26z"/><path fill="#f9fbff" d="M36.5 13.5l-9 3v11z"/><path fill="#e5eaed" d="M9.5 11.5l9 29-31-48z"/><path fill="#f5f7f7" d="M48.5 1.5l-29-1-9-11z"/><path fill="#919d9b" d="M13.5 12.5l3-2-7-1z"/><path fill="#755a49" d="M14.5-15.5h-18l17 18z"/><path fill="#d9dbdf" d="M47.5 16.5l18 9-61 15z"/><path fill="#f0f1f2" d="M37.5 7.5l-18-5h25z"/><path fill="#572726" d="M7.5 4.5h10l-7-3z"/><path fill="#2b0c11" d="M14.5 7.5l-4 1 6-4z"/><path fill="#dfe1e1" d="M28.5 1.5l23 1-1-6z"/><path fill="#402224" d="M16.5 6.5l-5 3-4-5z"/><path fill="#d7d8dd" d="M5.5 17.5l23 1-9-5z"/><path fill="#eef2f4" d="M4.5 7.5l-15-23 16 6z"/><path fill="#c4cec4" d="M4.5 9.5h7l-1 2z"/><path fill="#291e13" d="M-10.5-15.5l29 18-13-16z"/><path fill="#edf0f0" d="M26.5 10.5h21l-13 5z"/><path fill="#775e50" d="M26.5-15.5l-20 2 6 15z"/><path fill="#d3d4d8" d="M38.5 17.5l27-2v8z"/><path fill="#ebecf1" d="M49.5 18.5h-13l-11 7z"/><path fill="#8b748b" d="M17.5.5l-4-13-7-3z"/><path fill="#4f1b1c" d="M9.5 4.5l5 3-4-6z"/><path fill="#d4d4da" d="M4.5 17.5l-11 2-9-5z"/><path fill="#c4c6c7" d="M20.5 5.5l-1 4 3 3z"/><path fill="#c7cdd4" d="M2.5 1.5h-17l8 3z"/><path fill="#c5c7c7" d="M46.5 18.5h14l5-7z"/><path fill="#5c4541" d="M6.5 1.5l7 3-7-1z"/><path fill="#eff2f3" d="M57.5 1.5l-37-1 12-9z"/><path fill="#fffbff" d="M-15.5 17.5l2-7h17z"/><path fill="#e6e9ea" d="M36.5 12.5l-15-1-1 5z"/><path fill="#6c3c39" d="M13.5 3.5l-1-3-1 6z"/><path fill="#dbdede" d="M27.5 9.5l-3 1-4-4z"/><path fill="#d2d4d5" d="M44.5 2.5l16-5-2 5z"/><path fill="#c0c3c3" d="M47.5 10.5h18v-6z"/><path fill="#e1e4e5" d="M37.5 17.5l22-1-20-5z"/><path fill="#3a1810" d="M12.5 4.5l-6-20h-8z"/><path fill="#594a3c" d="M36.5-15.5l-45 10 20 6z"/><path fill="#8c878e" d="M17.5 5.5l1 3v-2z"/><path fill="#d9e7e0" d="M13.5 15.5l-6-4-3 3z"/><path fill="#f3f5f8" d="M29.5 14.5l8 7v-7z"/><path fill="#cbcbcd" d="M28.5 9.5h4l-3 1z"/><path fill="#777579" d="M18.5 10.5l-2-1 1-1z"/><path fill="#e8e9ea" d="M25.5 7.5l19-4 3 6z"/><path fill="#dedee2" d="M54.5 18.5l-19 4-6 9z"/><path fill="#d2d2d8" d="M13.5 17.5l-1-4 4 5z"/><path fill="#ebedf1" d="M-9.5 17.5l20-1-26-8z"/><path fill="#b5bec0" d="M17.5 11.5l-1 2h-5z"/><path fill="#cccfcf" d="M39.5 9.5h-5l3 1z"/><path fill="#dcc5d7" d="M4.5 10.5l-15-7-5 5z"/><path fill="#381719" d="M13.5 5.5l3-1-5 5z"/><path fill="#7a8483" d="M12.5 10.5l4 2-2-2z"/><path fill="#e7e9ea" d="M65.5 3.5l-37-5 37-14z"/><path fill="#c0c1c9" d="M14.5 14.5h-2l3-2z"/><path fill="#e8e9ee" d="M-3.5 26.5l27-7-39-1z"/><path fill="#ebebec" d="M45.5 3.5l-24 1 6 5z"/><path fill="#e4e5e9" d="M26.5 21.5l23 19-65-21z"/><path fill="#faf5fe" d="M-14.5-15.5l33 8-18 9z"/><path fill="#d3d6d7" d="M44.5 8.5l-3 2h9z"/><path fill="#6f3a38" d="M13.5 4.5l1-2h-2z"/><path fill="#5a272d" d="M14.5 5.5l1 2-4-2z"/><path fill="#e6e9e9" d="M32.5 6.5l15-3-1 6z"/><path fill="#fff4fd" d="M10.5-12.5l12 14-30-17z"/><path fill="#3e2221" d="M9.5 8.5l-3-4 5 1z"/><path fill="#d4d5d9" d="M10.5 18.5l6-2 6 2z"/><path fill="#dddee2" d="M37.5 15.5l5 18 5-3z"/><path fill="#523c38" d="M14.5 2.5h2l-3 1z"/><path fill="#e6d9de" d="M21.5.5l-9-10 10-6z"/><path fill="#f4f9f1" d="M4.5 8.5v-3l1 3z"/><path fill="#dadbdd" d="M21.5 11.5l-5 6h5z"/><path fill="#e0e2e3" d="M41.5 14.5l4-3h-11z"/><path fill="#e6e9ea" d="M34.5 11.5h-12l1 5z"/><path fill="#cfcfd5" d="M45.5 17.5l-5-1-5 2z"/><path fill="#f0f2f3" d="M24.5 6.5l13-4h-17z"/><path fill="#dfe2e5" d="M3.5 2.5l4-14-4-4z"/><path fill="#eff0f4" d="M29.5 20.5l1 4 4-7z"/><path fill="#b2b6b2" d="M8.5 9.5l-1 1h4z"/><path fill="#361a0a" d="M17.5-15.5l2 9-6 10z"/><path fill="#77786f" d="M5.5 1.5l2-2-2 4z"/><path fill="#473b32" d="M6.5 2.5l7-13 16-5z"/><path fill="#523128" d="M8.5 2.5l1-11 6-7z"/><path fill="#694c40" d="M-3.5-15.5l13 2 5 16z"/><path fill="#e4e5e7" d="M36.5 11.5l5 6 6-2z"/><path fill="#473434" d="M11.5 9.5v-3h-1z"/><path fill="#d5c0c9" d="M20.5 2.5l-1-1v1z"/></g></svg>