<svg xmlns="http://www.w3.org/2000/svg" viewBox="0 0 800 400"><path fill="#d2d2d3" d="M0 0h800v400H0z"/><g fill-opacity=".5"><path d="M39 36l262.6-84.4-53.2 293.7z"/><path fill="#2e0000" d="M95.3-48.4l21.9 206.2 209.4-34.4z"/><path fill="#f2f7f9" d="M670.3-48.4L-48.4 357.8l896.8 90.6z"/><path fill="#fff" d="M79.7 448.4L-48.4 39.1 85.9-48.4z"/><path fill="#471e14" d="M270.3-48.4l25 228-212.5-75z"/><path fill="#a8b4b5" d="M142.2 232.8l212.5-15.6-43.8-143.8z"/><path fill="#f0f2f4" d="M251.6-48.4L848.4 7.8 504.7 439.1z"/><path fill="#e6eaec" d="M39 14l-78 375 356.2 59.4z"/><path fill="#310100" d="M286 36L229.6-7.9l-50 168.7z"/><path fill="#b9c1c1" d="M211 161l28 162.4-121.8-168.7z"/><path fill="#40443e" d="M79.7 89l31.2 43.8 6.3-150z"/><path fill="#dadbdc" d="M520.3 145.3l218.8 303.1 109.3-350z"/><path fill="#f4fcff" d="M64 95.3l-112.4 28.1 153-134.3z"/><path fill="#cfcfd4" d="M439 295.3l-184.3-90.6-225 93.7z"/><path fill="#858f88" d="M289 195.3l28.2-100L164 192.2z"/><path fill="#133a1d" d="M98.4 104.7l43.8 53.1h75z"/><path fill="#f2f5f6" d="M392.2 111L651.6-48.5 273.4-1.6z"/><path fill="#bec5c5" d="M267.2 123.4l125 53.2-81.3-118.8z"/><path fill="#5b372a" d="M276.6 70.3L145.3-45.3 92.2 67.2z"/><path fill="#f9fbff" d="M617.2 223.4l-184.4 225 9.4-206.2z"/><path fill="#666759" d="M254.7 179.7l50-75-109.4 87.5z"/><path fill="#e7eaec" d="M-45.3 242.2L126.6 139l56.2 168.7z"/><path fill="#1b0008" d="M220.3 64l46.9 53.2-40.6 31.2z"/><path fill="#90233a" d="M223.4 132.8L167.2 61l78.1 53.2z"/><path fill="#e2e4e5" d="M486 36l325 256.2 12.4-300z"/><path fill="#c1c3c5" d="M795.3 292.2l-118.7-31.3-81.3 34.4z"/><path fill="#afe082" d="M198.4 64l15.7-3-28.2-12.6z"/><path fill="#400008" d="M220.3 54.7l-56.2-50-34.4 37.5z"/><path fill="#d6d7da" d="M351.6 157.8h225L198.4 261z"/><path fill="#b996bf" d="M167.2 76.6l3.1-25h-15.6z"/><path fill="#c1eae2" d="M157.8 167.2l81.3-15.6-43.8 21.8z"/><path fill="#6f985e" d="M226.6 4.7h-50v31.2z"/><path fill="#a7c2bf" d="M276.6 76.6l18.7-53.2 40.6 9.4z"/><path fill="#360003" d="M273.4 79.7l6.3-75-21.9 31.2z"/><path fill="#1d0000" d="M179.7 39l12.5 37.6-43.8 40.6z"/><path fill="#b5b6bc" d="M301.6 148.4l53 12.5-121.8 75z"/><path fill="#2c6d5d" d="M89 36l84.4-62.6-65.6-15.6z"/><path fill="#6cb2ae" d="M76.6 92.2l6.2-31.3 34.4 81.3z"/><path fill="#ecf0f3" d="M98.4 157.8L54.7-48.4-48.4 73.4z"/><path fill="#170000" d="M214 11L173.5-4.8 186-42.2z"/><path fill="#cacbce" d="M776.6 167.2l-200 3.1 103-31.2z"/><path fill="#ab143b" d="M282.8 17.2l-31.2 12.5 3-50z"/><path fill="#e3e5e6" d="M848.4 282.8L604.7 286 564 201.6z"/><path fill="#0e0000" d="M195.3 126.6L229.7 89l-68.8 34.3z"/><path fill="#c2ece3" d="M236 154.7l28-15.6 6.3-18.8z"/><path fill="#bdcbcb" d="M36 164l106.2 6.3-12.5-31.2z"/><path fill="#150408" d="M211 154.7l-50-6.3 90.6-15.6z"/><path fill="#818078" d="M161 173.4l75-6.2-50 28.1z"/><path fill="#57963e" d="M164 126.6l22 6.2-53.2 15.6z"/><path fill="#d8dadc" d="M442.2 407.8L789 448.4l59.3-171.8z"/><path fill="#4e7326" d="M104.7 57.8l53.1 50-31.2-56.2z"/><path fill="#4f141a" d="M157.8 104.7L95.3 60.9l9.4 59.4z"/><path fill="#e7e8e9" d="M-48.4 295.3l512.5 3.1-412.5 150z"/><path fill="#e8eaeb" d="M348.4 282.8l-21.8-115.6H714z"/><path fill="#200900" d="M248.4 32.8l-40.6 21.9 65.6-103.1z"/><path fill="#7a3345" d="M139 48.4l50-96.8L79.8 57.8z"/><path fill="#e7e9ea" d="M367.2 157.8l459.4-125-15.7 125z"/><path fill="#f1f4fa" d="M551.6 198.4l75 140.7-172 75z"/><path fill="#2e0002" d="M120.3-7.8l50 56.2-21.9 6.3z"/><path fill="#898f83" d="M304.7 132.8l-31.3 12.5 22-71.9z"/><path fill="#d1d3d5" d="M798.4 32.8l-103 31.3-112.6-31.3z"/><path fill="#f1f3f4" d="M411 42.2h371.8L601.6 95.3zm-109.4-9.4l243.7-18.7-300-62.5z"/><path fill="#8f6b72" d="M239 45.3l-9.3 3.1 21.9 25z"/><path fill="#68b6aa" d="M104.7 145.3l6.2-21.9 22 18.8z"/><path fill="#0b0000" d="M201.6 76.6l50-12.5-12.5 50z"/><path fill="#aa345d" d="M273.4 98.4l-21.8-15.6 12.5-6.2z"/><path fill="#d3d6d8" d="M286 26.6l18.7 40.6 118.7-31.3z"/><path fill="#250000" d="M182.8 23.4l18.8 3.2-15.7 6.2z"/><path fill="#ebabc8" d="M220.3 107.8l-9.4 6.3 9.4 3z"/><path fill="#666a5a" d="M286 111l-18.8 46.8-25 3.1z"/><path fill="#d6d8da" d="M154.7 251.6l100 40.6L89 114z"/><path fill="#90606f" d="M107.8 82.8v15.6l15.6-15.6z"/><path fill="#cd90ba" d="M176.6 26.6l3 6.2-9.3 6.3z"/><path fill="#e8beec" d="M267.2 11l-6.3-3.2v9.4z"/><path fill="#c8caca" d="M457.8 167.2l62.5-21.9 71.9 21.9z"/><path fill="#c8cbcf" d="M339 295.3H126.7l100-31.2z"/><path fill="#d8e1e1" d="M4.7 42.2l112.5-62.5L79.7 39z"/><path fill="#b8babc" d="M611 307.8l-9.4-21.9 87.5 3.2z"/><path fill="#230000" d="M139 82.8L120.4 86l-9.4 37.5z"/><path fill="#bfc0c4" d="M64 304.7l-68.7-18.8h134.4z"/><path fill="#ba90ac" d="M145.3 11l6.3-6.3-3.2 18.7z"/><path fill="#83574c" d="M142.2 92.2l-12.5 15.6H164z"/><path fill="#4d0a0d" d="M157.8-23.4l31.3 53L82.8-32.7z"/><path fill="#d3d3d8" d="M567.2 45.3H414l75-21.9z"/><path fill="#e7e8ea" d="M673.4 54.7l103.2 100-465.7 3.1z"/><path fill="#e2e4e6" d="M473.4 192.2l-59.3 93.7H148.4z"/><path fill="#b0adb3" d="M217.2 220.3l65.6-21.9L142.2 186z"/><path fill="#e4e6e7" d="M39 295.3l522 121.9-597 31.2z"/><path fill="#305043" d="M117.2-36l-15.6 75 40.6-31.2z"/><path fill="#f2f4f5" d="M439 89L289 48.5l265.7-6.2z"/><path fill="#c67497" d="M189 82.8l9.4 3.1-9.3 15.7z"/><path fill="#b0b2b3" d="M439 295.3l-50-6.2 37.6-6.3z"/><path fill="#b5b6ba" d="M42.2 161l-90.6-12.6v25z"/><path fill="#f6f9fc" d="M-48.4 11L89-29.8 76.6 32.8z"/><path fill="#bdc2c5" d="M282.8 92.2l37.5 6.2 28.1 81.3z"/><path fill="#b1b2b5" d="M757.8 161l53.1-3.2-18.7 12.5z"/><path fill="#edeef0" d="M-48.4 157.8V-10.9l165.6 165.6z"/><path fill="#ebecee" d="M151.6 282.8L92.2 170.3-48.4 286z"/><path fill="#35211e" d="M248.4 89l31.3 9.4-43.8 50z"/></g></svg>