<svg xmlns="http://www.w3.org/2000/svg" viewBox="0 0 400 200"><filter id="c"><feGaussianBlur stdDeviation="55" /></filter><path fill="#d2d2d3" d="M0 0h400v200H0z"/><g filter='url(#c)' fill-opacity='.5'><path fill-opacity=".5" d="M49-29l96.7 5-5.6 107.7-96.8-5z"/><path fill="#300000" fill-opacity=".5" d="M36.8 50.6l37.5-73.8 78 39.8-37.6 73.7z"/><path fill="#f6fafd" fill-opacity=".5" d="M162.5 0h242.2v198.4H162.5z"/><path fill="#f8fdff" fill-opacity=".5" d="M-54.7 44.7L22.5 3.6l93.2 175.2-77.3 41z"/><path fill="#798581" fill-opacity=".5" d="M150.7 51.8l16.4 28.4-66.3 38.3-16.4-28.4z"/><path fill="#f1f3f6" fill-opacity=".5" d="M167.7 204.7l-86 1.5-1-56.2 86-1.5z"/><path fill="#340e02" fill-opacity=".5" d="M123.5 71.3l-47.7 8.4-7-40 47.6-8.4z"/><path fill="#fcffff" fill-opacity=".5" d="M234 197.9l-21-68.7 73.3-22.4 21 68.7z"/></g></svg>