<svg xmlns="http://www.w3.org/2000/svg" viewBox="0 0 2000 1000"><path fill="#d2d2d3" d="M0 0h2000v1000H0z"/><g fill-opacity=".5"><path d="M74.2 97.7l578.1 500 86-718.8z"/><path fill="#f2f7f9" d="M-121 894.5l2242 226.6-414-1242.2z"/><path fill="#2e0000" d="M222.7-121l93.7 546.8L793 269.5z"/><path fill="#fff" d="M-121 97.7L175.7 1121l46.9-1242.2z"/><path fill="#400300" d="M230.5 293L707-121l-39 421.8z"/><path fill="#9ea8a6" d="M839.8 550.8l-31.2-375-468.8 390.6z"/><path fill="#f0f2f4" d="M2121-4l-929.6 1125L644.5-121z"/><path fill="#e6eaec" d="M-66.4 1121L-43-121l914 1242z"/><path fill="#b7bfbe" d="M558.6 402.3l-257.8-7.8 296.9 414z"/><path fill="#4d2e21" d="M269.5-121l-23.4 445.2L738.3 82z"/><path fill="#f2fafc" d="M129 363.3l148.3-484.4L-121-27.3z"/><path fill="#6e7167" d="M754 285.2l-39.2 187.5-257.8-7.9z"/><path fill="#dadbdc" d="M2121 175.8L1957 1121l-664-726.6z"/><path fill="#22220f" d="M652.3 324.2L207 246.1l211 156.2z"/><path fill="#d1d2d6" d="M1105.5 738.3l-953.2-7.8L918 363.3z"/><path fill="#b9c9c4" d="M863.3 238.3l-78.1-78.1-211 234.3z"/><path fill="#f1f5f5" d="M1675.8-121L949.2 293 605.5-97.7z"/><path fill="#360a11" d="M722.7 121L558.6-89.7l7.8 468.7z"/><path fill="#4aa397" d="M371 394.5L207 222.7 254 332z"/><path fill="#7a504f" d="M613.3 152.3l-226.6 31.3-93.7-78.1z"/><path fill="#f6f8fe" d="M1082 1019.5L1597.7 832 1121 519.5z"/><path fill="#4a0c18" d="M527.3 386.7l132.9-86L386.7 82z"/><path fill="#e2e4e5" d="M2121 339.8L1832-121 527.3 738.3z"/><path fill="#c5ded7" d="M246 394.5L347.8 457l218.7-62.5z"/><path fill="#91a09d" d="M722.7 50.8l54.6 382.8-117.1 101.6z"/><path fill="#b7b9ba" d="M1707 769.5l172-62.5-375 15.7z"/><path fill="#4d4f3e" d="M199.2 191.4L355.5 207l-39-328z"/><path fill="#64604f" d="M714.8 293L582 402.3l148.5-46.8z"/><path fill="#a3364c" d="M496 191.4l86 117.2-125-70.3z"/><path fill="#310000" d="M441.4 11.7L363.3 82v125z"/><path fill="#cbd3d4" d="M722.7 66.4l7.8 101.6 336-78.2z"/><path fill="#eaeced" d="M-50.8 714.8l484.4-7.8L246 300.8z"/><path fill="#7f4649" d="M535.2 89.8L707 199.2l-46.8 31.3z"/><path fill="#0b0000" d="M558.6 121l46.9 93.8-117.2 86z"/><path fill="#c2c4c7" d="M785.2 339.8l382.8 70.4-484.4 39z"/><path fill="#a8193c" d="M636.7-113.3l70.3 164-70.3 23.5z"/><path fill="#560f1a" d="M261.7 277.3L394.5 293 222.7 121z"/><path fill="#8c8f8b" d="M394.5 418l226.6 54.7-171.9 39z"/><path fill="#79b769" d="M464.8 27.3l109.4-15.6-93.7 46.9z"/><path fill="#ccd2d3" d="M379 433.6L4 410.2l289-62.5z"/><path fill="#d3d5d6" d="M1519.5 308.6l406.3 117.2h-789z"/><path fill="#3c512f" d="M511.7 402.3L363.3 222.7l-7.8 164z"/><path fill="#d7d9da" d="M1074.2 1105.5l1046.9-539-54.7 554.6z"/><path fill="#32726a" d="M238.3 27.3l109.4-39L207 121z"/><path fill="#c0c2c5" d="M332 714.8H11.7l140.6 54.7z"/><path fill="#190d0d" d="M597.7 355.5l-187.5-7.8 46.8 46.8z"/><path fill="#99384c" d="M543 261.7l62.5 15.6-101.6 86z"/><path fill="#eaeced" d="M879 386.7l1210.8 7.8-679.6-343.7z"/><path fill="#e7e8e9" d="M1082 777.3L-97.7 730.5 66.4 1121z"/><path fill="#ac5d82" d="M363.3-66.4h39L371.1 74.2z"/><path fill="#eceff1" d="M168-113.3l-172 500 234.5 7.8z"/><path fill="#cbc2eb" d="M425.8 152.3l-23.5-15.6v54.7z"/><path fill="#1b0000" d="M511.7 27.3l-148.4-78h156.2z"/><path fill="#dadcdd" d="M1660.2-50.8l-547 156.3h922z"/><path fill="#370004" d="M418 66.4l117.2 164-211-171.8z"/><path fill="#f5f7fa" d="M1433.6 504L824.2 699.1l640.6 23.5z"/><path fill="#f0f2f3" d="M2066.4 74.2l-586-195.3L769.6 66.4z"/><path fill="#bccdc2" d="M754 246l23.3-109.3-140.6 203.1z"/><path fill="#2d1109" d="M425.8 160.2l93.7 140.6L371.1 332z"/><path fill="#cfd2d5" d="M1066.4 722.7l-617.2 31.2 156.3-203.1z"/><path fill="#babcbd" d="M1707 714.8l312.5 7.9-179.7 46.8z"/><path fill="#0a0000" d="M558.6 191.4l31.2 125L629 168z"/><path fill="#e2e4e5" d="M1550.8 933.6V738.3H2121z"/><path fill="#a0a5a7" d="M808.6 82l70.3 23.5-140.6-7.8z"/><path fill="#8e263d" d="M347.7 58.6L230.5 121l132.8 15.6z"/><path fill="#1d0000" d="M566.4 97.7l7.8-117.2 54.7 125z"/><path fill="#84a15b" d="M550.8 152.3l-70.3 23.5v-46.9z"/><path fill="#898a68" d="M449.2 11.7l-23.4 93.8 62.5-70.3z"/><path fill="#6a4034" d="M449.2 261.7L332 238.3l31.3 86z"/><path fill="#b47088" d="M644.5 58.6l31.3-171.9 15.6 86z"/><path fill="#380507" d="M691.4 82v148.5L605.4-4z"/><path fill="#e7e9ea" d="M683.6 714.8L1074.2 418l15.6 289z"/><path fill="#bcbfc3" d="M89.8 113.3L-3.9 89.8 183.6 82z"/><path fill="#8a8b84" d="M730.5 418l7.8-218.8L668 402.3z"/><path fill="#520d0d" d="M386.7 43l101.6 23.4L355.5-50.8z"/><path fill="#211d11" d="M433.6 129l86 39-86 31.2z"/><path fill="#f7f8f9" d="M988.3 191.4l-179.7-78.1 429.7-7.8z"/><path fill="#569696" d="M199.2 168l15.6 86 39.1-31.3z"/><path fill="#e4e6e7" d="M2011.7 418l-640.6 31.2 742.2 289z"/><path fill="#4f8234" d="M457 339.8l-109.3 23.5 85.9-54.7z"/><path fill="#1a0f01" d="M597.7 82L543 129l-140.7-15.7z"/><path fill="#c8cbd0" d="M839.8 425.8l70.4-93.8-156.3-140.6z"/><path fill="#cbccce" d="M1824.2 43l-187.5 62.5H2043z"/><path fill="#180401" d="M363.3 269.5l54.7 54.7 78-23.4z"/><path fill="#add9c0" d="M144.5-121l86 148.3 148.4-132.8z"/><path fill="#8ea550" d="M527.3 74.2l-7.8-15.6-31.2 31.2z"/><path fill="#b5b8bc" d="M1066.4 996l367.2 125-117.2-132.7z"/><path fill="#487522" d="M316.4 129L379 238.2l-101.6-93.8z"/><path fill="#babdbe" d="M1988.3 410.2l-132.8-31.3-109.4 39z"/><path fill="#a06769" d="M472.7 199.2l23.4 23.5-62.5 39z"/><path fill="#bdbebe" d="M902.3 722.7l179.7-7.9-15.6 47z"/><path fill="#a6a7ac" d="M605.5 543L496 519.5l257.8-117.2z"/><path fill="#e9ebec" d="M1511.7 82l609.4-164-171.9 164z"/><path fill="#e8eaeb" d="M949.2 707L847.7 418h757.8z"/><path fill="#d6d8d9" d="M269.5 339.8L675.8 707 371 652.3z"/><path fill="#cdcfd0" d="M1355.5 425.8l421.8-15.6-203-70.4z"/><path fill="#e6e8e9" d="M1980.5 386.7l-820.3 7.8L2082 89.8z"/><path fill="#d1a1cb" d="M644.5 191.4l7.8 23.4 15.7-23.4z"/><path fill="#000400" d="M582 308.6l-15.6 54.7 46.9-23.5z"/><path fill="#94897a" d="M574.2 121l23.5-15.5 15.6 46.8z"/></g></svg>