<svg xmlns="http://www.w3.org/2000/svg" viewBox="0 0 400 200"><path fill="#d2d2d3" d="M0 0h400v200H0z"/><g fill-opacity=".5"><path d="M46 .8h97v79.7H46z"/><path fill="#310000" d="M54 .8h84.3v68.7H53.9z"/><path fill="#f8fdff" d="M.8 61.7h64v139H.8z"/><path fill="#585650" d="M86.7 55.5h65.6v45.3H86.7z"/><path fill="#f6fafd" d="M164.8.8h236v198.4h-236z"/><path fill="#eef1f5" d="M61.7 119.5h237.5v81.3H61.7z"/><path fill="#2e0100" d="M74.2 36.7h46.9v40.6H74.2z"/><path fill="#fff" d="M.8.8h39v62.5H.8z"/><path fill="#472019" d="M41.4 14.8h100v36h-100z"/><path fill="#b0b9bb" d="M132 52.3h43.8V104H132z"/><path fill="#a6a8a9" d="M302.3 144.5h98.5v6.3h-98.5z"/><path fill="#c8cbd0" d="M83.6 97.7h101.6v53H83.6z"/><path fill="#808985" d="M110.2 72.7h28V107h-28z"/><path fill="#441414" d="M55.5 39.8h71.8v26.6H55.5z"/><path fill="#e3e4e7" d="M41.4 72.7H68v126.5H41.4z"/><path fill="#f8fbff" d="M219.5 114.8h72V182h-72z"/><path fill="#a9abab" d="M294.5 80.5h79.7v4.7h-79.7z"/><path fill="#39120e" d="M72.7 11.7h71.8v15.6H72.7z"/><path fill="#b2b2b6" d="M.8 144.5h218.7v4.7H.8z"/><path fill="#fafcfc" d="M139.8.8h129.7v9.4H139.8z"/><path fill="#d7d9da" d="M314.8 96h86v104.8h-86z"/><path fill="#b2c5c4" d="M.8 80.5h109.4v4.7H.8z"/><path fill="#bdc0c0" d="M147.7 16.4h253v4.7h-253z"/><path fill="#758652" d="M86.7 5.5H107V18H86.7z"/><path fill="#929d96" d="M139.8 33.6h15.7v50h-15.7z"/></g></svg>