<svg xmlns="http://www.w3.org/2000/svg" viewBox="0 0 100 50"><path fill="#d3d3d5" d="M0 0h100v50H0z"/><g fill-opacity=".5"><path d="M33.5-15.5l4 43-30-18z"/><path fill="#f3f7fa" d="M-6.5 46.5l122 18-22-80z"/><path fill="#300000" d="M36.5 4.5l-29-20 11 38z"/><path fill="#fff" d="M-15.5 38.5l22-45 10 39z"/><path fill="#a4abab" d="M16.5 20.5l16 11 12-16z"/><path fill="#f3f6f6" d="M77.5 4.5l-9 61-40-81z"/><path fill="#350000" d="M33.5 13.5l4-29-15 35z"/><path fill="#e7eaef" d="M21.5 20.5l-37-15 21 60z"/><path fill="#88928a" d="M34.5 21.5l1-20 4 13z"/><path fill="#3f2317" d="M11.5 3.5l3 13 13-3z"/><path fill="#f1f7fa" d="M14.5-15.5l-22 23 16 9z"/><path fill="#d7d9db" d="M16.5 39.5l76-21h-51z"/><path fill="#868584" d="M31.5 25.5l2-10-12 7z"/><path fill="#5c3e35" d="M10.5 6.5l24 1-17-14z"/><path fill="#d7d9d9" d="M52.5 65.5l60-63-15 55z"/><path fill="#031307" d="M33.5 14.5l-5 4h-9z"/><path fill="#989f9a" d="M28.5 19.5h9v-8z"/><path fill="#d2d3d7" d="M25.5 26.5l-15 9 49 2z"/><path fill="#f6f9fd" d="M59.5 21.5l20 20-27 6z"/><path fill="#8c9c70" d="M22.5.5l5 1v-14z"/><path fill="#451613" d="M35.5 2.5l-18-1v6z"/><path fill="#f5f7f7" d="M115.5 1.5l-63-17-15 18z"/><path fill="#edefef" d="M48.5 21.5l36-1-42 14z"/><path fill="#c6cbcd" d="M41.5 24.5l-5-24 9 17z"/><path fill="#d9dbdb" d="M105.5-9.5l-2 14h-45z"/><path fill="#7f2b35" d="M18.5 7.5l5-1 5 7z"/><path fill="#1f0000" d="M30.5 10.5l-3-2-6 6z"/><path fill="#727474" d="M23.5 23.5l13-9-3 9z"/><path fill="#ea4276" d="M32.5 1.5l6-5-2-7z"/><path fill="#b9cbb8" d="M15.5 18.5h14l-11 3z"/><path fill="#f8fafc" d="M48.5 12.5l-7-8 16 1z"/><path fill="#c1c4c5" d="M81.5 37.5l-7-2 15-1z"/><path d="M23.5.5l12-14-5 11z"/><path fill="#270000" d="M20.5 11.5l2-6v5z"/><path fill="#e8ebee" d="M24.5 34.5l-31-50 10 48z"/><path fill="#c8d3d6" d="M29.5 30.5l-11-2-8-15z"/><path fill="#ebebf0" d="M26.5 47.5l30-11-66 1z"/><path fill="#c5d1c9" d="M33.5 14.5l4-9 3 4z"/><path fill="#595a52" d="M11.5 4.5l7 6-3-15z"/><path fill="#461a19" d="M35.5 11.5l-6-27-2 17z"/><path fill="#bfc1c1" d="M94.5 33.5l-8 3h15z"/><path fill="#2a361c" d="M20.5 10.5l-2 9 4-5z"/><path fill="#32080f" d="M31.5 15.5l3-4-5-2z"/><path fill="#e17799" d="M18.5 1.5l7-17-7 3z"/><path fill="#583e3d" d="M28.5 4.5l7 3-2 3z"/><path fill="#3f1a15" d="M12.5 9.5l3 6 9-7z"/><path fill="#c4d7d5" d="M-15.5-2.5l26 7h-26z"/><path fill="#d7a598" d="M29.5.5l-17-8 2-6z"/><path fill="#e5e7e7" d="M67.5 22.5l14 12 25-1z"/><path fill="#92a382" d="M8.5-15.5l10 4 8 15z"/><path fill="#b1b4b7" d="M47.5 18.5l-20 7 10-7z"/><path fill="#29422d" d="M22.5 19.5l-7-4 14 1z"/><path fill="#cbcdcc" d="M86.5 19.5l14 1 11-6z"/><path fill="#e9eaeb" d="M106.5 18.5l-62-2 42-11z"/><path fill="#fafafd" d="M9.5 2.5l10-10-35 9z"/><path fill="#f0f2f3" d="M39.5 3.5l-14-19 71 17z"/><path fill="#cdcfcf" d="M82.5 20.5h-15l11-4z"/><path fill="#035347" d="M14.5 1.5l-2-13 14-4z"/><path fill="#7c4d4d" d="M25.5 6.5l-10 2 2-3z"/><path fill="#cdd1d4" d="M5.5 21.5l9-2-15-1z"/><path fill="#2f0103" d="M28.5-15.5l-8 20-4-20z"/><path fill="#eef2f4" d="M-15.5 22.5v10l35-12z"/><path fill="#d5d7dc" d="M26.5 34.5l17-15-3 18z"/><path fill="#cbcccf" d="M44.5 4.5l5-2-10 1z"/><path fill="#516f53" d="M15.5 15.5l1 2 5-1z"/><path fill="#e2e4e5" d="M77.5 49.5l24-13h-24z"/><path fill="#8e4d5e" d="M27.5 13.5v-1l3 1z"/><path fill="#872b44" d="M26.5 13.5l4 1-5-3z"/><path fill="#f7f8f9" d="M-12.5 4.5l21 8v-8z"/><path fill="#5a3c31" d="M21.5 14.5l-10-5 3-7z"/><path fill="#2d0206" d="M31.5 7.5v7l-6-5z"/><path fill="#36020d" d="M18.5 9.5l-1-6 2 1z"/><path fill="#f7f9fc" d="M70.5 25.5l6 12-20-5z"/><path fill="#380a0a" d="M28.5 3.5v-5l8 6z"/><path fill="#891944" d="M16.5 5.5l6-15-5-6z"/><path fill="#3a0000" d="M23.5 5.5h-2l1 5z"/><path fill="#8f6e61" d="M22.5 4.5l-1-2h1z"/><path fill="#411b0f" d="M16.5 7.5h-3l5 9z"/><path fill="#dbdee2" d="M82.5 40.5l-6 13-20-2z"/><path fill="#b6b9be" d="M21.5 24.5h14l-7 3z"/><path fill="#e6e8e9" d="M67.5 25.5l-36 8 19 1z"/><path fill="#17180f" d="M25.5 15.5l1 3h-7z"/><path fill="#ccccd1" d="M-15.5 29.5v7l22-1z"/><path fill="#eceeed" d="M77.5 4.5h25l-30 14z"/><path fill="#efedf2" d="M.5 34.5h21l-37-12z"/><path fill="#c8cccd" d="M43.5 34.5l7 3 5-3z"/><path fill="#645746" d="M16.5 8.5l-2-1 3-3z"/><path fill="#37180e" d="M23.5 9.5l-6 5 8-13z"/><path fill="#e5e6e9" d="M54.5 36.5l-70 7 67 22z"/><path fill="#cdcfd6" d="M44.5 20.5h6l-11-5z"/><path fill="#e6e7eb" d="M-15.5 30.5l36-10-14 11z"/><path fill="#320003" d="M21.5 4.5l-3 1-1-3z"/><path fill="#f5f8fc" d="M56.5 29.5l9 19-10-1z"/><path fill="#eaedee" d="M60.5 17.5l3-7-27-5z"/><path fill="#c7cdca" d="M22.5 26.5l-4-7v3z"/><path fill="#8c939f" d="M9.5 12.5l2-1-1-7z"/><path fill="#6b696a" d="M29.5 22.5l5-5-11 5z"/><path fill="#e7f0f1" d="M9.5 9.5l5 9-30-6z"/><path fill="#cbcccd" d="M54.5 19.5l5-1 4 2z"/><path fill="#1d1317" d="M29.5 17.5l2-2-7 2z"/></g></svg>