<svg xmlns="http://www.w3.org/2000/svg" viewBox="0 0 200 100"><path fill="#4a4a4a" d="M0 0h200v100H0z"/><g fill-opacity=".5"><path fill="#c5c5c5" d="M145.5 45.5l-77 24-43-74z"/><path d="M199.5-15.5l-75 46 80 27zm-151 49l-58 15 1-62zm47-9l39-28-111-12z"/><path fill="#868686" d="M29.5 95.5l52 20 66-131z"/><path d="M150.5 50.5l-61 25 45 13zm59-66l-85 50 76 17z"/><path fill="#919191" d="M127.5 115.5l33-72 28 11z"/><path fill="#cecece" d="M87.5 18.5l-21 67-3-65z"/><path fill="#d7d7d7" d="M94.5 25.5l19-11 15 21z"/><path d="M70.5 17.5l55-14-81-19zm-86 30l9-61 52 49zm97-11l31-2-16 10z"/><path fill="#141414" d="M54.5 43.5l-49 17 60 10z"/><path fill="#969696" d="M47.5-15.5l21 48-84-48z"/><path fill="#161616" d="M65.5 68.5l15-6 15 16z"/><path d="M118.5 22.5l66-13 31 55z"/><path fill="#878787" d="M171.5 45.5l-51-11 84 44z"/><path d="M49.5 114.5l-35-2 1-29z"/><path fill="#949494" d="M94.5 27.5l84-33-47 5z"/><path fill="#1b1b1b" d="M121.5 75.5l37-7-22-42z"/><path d="M98.5 21.5l54-37-102 14z"/><path fill="#6a6a6a" d="M136.5 94.5l75 1-68-37z"/><path fill="#6c6c6c" d="M146.5 37.5l-88 24 57 9z"/><path d="M-15.5 27.5l1-43 73 58z"/><path fill="#797979" d="M17.5 82.5l7-23 52 56z"/><path fill="#070707" d="M194.5 74.5l2 13-27-24z"/><path fill="#c9c9c9" d="M120.5 25.5l-26 25 32-17z"/><path fill="#c1c1c1" d="M70.5 63.5l3-47h13z"/><path fill="#575757" d="M49.5 50.5l8-16-21-27z"/><path fill="#8f8f8f" d="M80.5 88.5l-25-7 20-28z"/><path d="M133.5-15.5l-51 12 10 31z"/><path fill="#929292" d="M201.5 91.5l-10-36 24 19z"/><path fill="#7c7c7c" d="M23.5 41.5l-23 16 51-15z"/><path fill="#050505" d="M134.5 102.5l77-9-49 22z"/><path d="M134.5 63.5l-49 12 57 2z"/><path fill="#a6a6a6" d="M102.5 65.5l5 4 17-11z"/><path fill="#8a8a8a" d="M174.5 84.5l-10-18 25 14z"/><path fill="#4f4f4f" d="M175.5 60.5l-10 45-12-51z"/><path fill="#232323" d="M77.5 27.5l27 14-16 1z"/><path d="M70.5 16.5l-29-32 87 17zm58 19l50-33 37 52z"/><path fill="#b3b3b3" d="M58.5 22.5l1 35 27-25z"/><path fill="silver" d="M104.5 60.5l15-10-31 9z"/><path fill="#232323" d="M97.5 50.5l14 1-28 7z"/><path fill="#040404" d="M61.5 68.5l-15-7 10-14z"/><path fill="#454545" d="M188.5 3.5l27 31-28-18z"/><path fill="#8a8a8a" d="M151.5 76.5l-16 9 24 13z"/><path fill="#1e1e1e" d="M113.5 61.5l-26 7 9-7z"/><path fill="#929292" d="M163.5 44.5l20 14-53-12z"/><path fill="#606060" d="M154.5 4.5l-42 15 10 10z"/><path fill="#171717" d="M70.5 70.5l43 1-24 6z"/><path fill="#5a5a5a" d="M95.5 115.5l-7-39h29z"/><path fill="#020202" d="M106.5 27.5l-9 14 7-4z"/><path d="M130.5 56.5l22 4 1-8z"/><path fill="#6b6b6b" d="M4.5 64.5l21-25-41 15z"/><path fill="#595959" d="M57.5 90.5l-22-35-45 24z"/><path d="M18.5 57.5l1 8-14-2zm8-21l-42 17 17-69z"/><path fill="#4c4c4c" d="M140.5 77.5l-4-21 26 12z"/><path fill="#3c3c3c" d="M131.5 100.5l-29-24 45 16z"/><path fill="#b7b7b7" d="M85.5 71.5l12-4-10-1z"/><path fill="#a0a0a0" d="M81.5 84.5l-17-10h21z"/><path fill="#979797" d="M5.5 115.5l42-23 28 11z"/><path fill="#303030" d="M160.5 92.5v-15l15 9z"/><path fill="#888" d="M40.5 22.5l23-38h-58z"/><path fill="#d2d2d2" d="M82.5 62.5l-17-8h9z"/><path d="M19.5 115.5l-2-36 19 36zm105-88l91 35v-38z"/><path fill="#5c5c5c" d="M179.5 71.5l5-18 21 18z"/><path d="M82.5 70.5l8-6-10 3z"/><path fill="#545454" d="M109.5 46.5l39-6-19-3z"/><path d="M189.5 81.5l8-1-1 9z"/><path fill="#a0a0a0" d="M108.5 37.5l-2-19 15-11z"/><path fill="silver" d="M78.5 53.5l-19-14 30 11z"/><path fill="#1b1b1b" d="M137.5 46.5l-15 6 30 3z"/><path fill="#989898" d="M127.5 32.5l3 17-14-27z"/><path fill="gray" d="M47.5 48.5l9-6-12-2z"/><path d="M92.5 11.5l9 1-10 17zm26 62l12-15 12 21z"/><path fill="#6c6c6c" d="M107.5 34.5l-27 4 8-9z"/><path fill="#939393" d="M150.5 41.5l20 17 20-4z"/><path fill="#292929" d="M78.5 57.5l9 2-9-6z"/><path fill="#c9c9c9" d="M93.5 27.5l6 8-3-12z"/><path fill="#616161" d="M54.5 2.5l13 13-17-5z"/><path fill="#303030" d="M67.5 67.5l-33 5-2-24z"/><path fill="#8c8c8c" d="M22.5 65.5l-2 9 12-6z"/><path fill="#9a9a9a" d="M98.5 53.5l-12-10 22-1z"/><path d="M203.5 64.5l-29-30 41-11z"/><path fill="#444" d="M163.5 12.5l10-26-35 34z"/><path fill="#787878" d="M172.5 68.5l1 16-22-23z"/><path fill="#828282" d="M86.5 33.5l-9-11 4 17z"/><path fill="#727272" d="M144.5 99.5l47-7-42-5z"/><path d="M8.5 3.5l40 33-64 2z"/><path fill="#a8a8a8" d="M81.5 64.5l17-5h-27z"/><path fill="#9b9b9b" d="M104.5 55.5l27-15-6 10z"/><path fill="#dedede" d="M73.5 67.5l-9-6 4 6z"/><path d="M101.5 38.5l-12 3 11 1z"/><path fill="#525252" d="M106.5 52.5l29-15-15 2z"/><path fill="#505050" d="M53.5 42.5l-29 21 27-10z"/></g></svg>