<svg xmlns="http://www.w3.org/2000/svg" viewBox="0 0 400 200"><path fill="#494949" d="M0 0h400v200H0z"/><path fill="#c5c5c5" fill-opacity=".5" d="M111.7 39.4l139 2.4-1.5 89-139-2.3z"/><path fill-opacity=".5" d="M307-33.4l130 44.7-36.1 105-130-44.8zM20.8 110.2l-75.9-87.3L2.7-27.3l75.8 87.2zm184.3-53.3L113.2 10l27-53L232 4z"/><path fill="#bebebe" fill-opacity=".5" d="M49.2-62.3L177.7 91 143 120.1 14.5-33.1z"/><path fill="#989898" fill-opacity=".5" d="M187.9 181.1l-79 64-45.2-56 79-63.8z"/><path fill-opacity=".5" d="M273.7 91.4l32.4 27.2-53.3 63.4-32.3-27.1z"/><path fill="#9b9b9b" fill-opacity=".5" d="M356.4-56.6L375-27.8 214 77l-18.7-28.8z"/><path fill-opacity=".5" d="M252.9 76.3L257 28l148 13-4.3 48.2z"/><path fill="#b6b6b6" fill-opacity=".5" d="M360.5 130.3l-66.1-28 9.1-21.7 66.2 28.1z"/><path fill-opacity=".5" d="M207 86h-40.6V68.6H207zM85.5 73.4l-113.1 24-9.4-44.3 113-24z"/><path fill="#828282" fill-opacity=".5" d="M330.6 122.8l28.7 33-69.6 60.5-28.7-33z"/><path fill-opacity=".5" d="M231.2-34l25.5 39.3-70.7 46-25.6-39.4zM91.6 144.8l-11.4-37.4 32.9-10 11.4 37.3z"/><path fill="#cfcfcf" fill-opacity=".5" d="M133.2 75.5l.8-40.7 37.4.7-.7 40.6z"/><path fill-opacity=".5" d="M124.4 32.4l-1.8-35.9L227-9l1.9 36zm316.8 30.7l-38.1 61-102-63.8 38-61z"/><path fill="#656565" fill-opacity=".5" d="M269.4 114.7l-96.3 37-12.8-33.6 96.2-37z"/><path fill="#797979" fill-opacity=".5" d="M70.9 75.2l6 19.4-83.7 25.6-6-19.5z"/><path fill-opacity=".5" d="M19.2 90.6L-60.7-11.6l43.1-33.7L62.3 57z"/><path fill="#b2b2b2" fill-opacity=".5" d="M209.5 43L223 32.6l47.2 60.3-13.6 10.6z"/><path fill-opacity=".5" d="M71.7 219.4l-15.4 10.8L20.5 179l15.3-10.8zm185.5-72.7l-.5 11-112.4-6 .6-10.9z"/><path fill="#6e6e6e" fill-opacity=".5" d="M11.8-3.1l9.8-12.2 105.7 85.6-9.9 12.1z"/><path fill-opacity=".5" d="M246.2 35.2l31.5 30.4-9.8 10.1-31.5-30.4zM71 110.6l-48.5 21.6-4.5-10 48.6-21.6z"/><path fill="#6e6e6e" fill-opacity=".5" d="M46.8 119.2l57.5 57.4-27.7 27.7-57.4-57.5z"/><path fill="#585858" fill-opacity=".5" d="M352-14.6l8.6 18.4-120.4 56.1-8.6-18.4z"/><path fill="#888" fill-opacity=".5" d="M400.8 171l-27.4-47.4 14.9-8.6 27.3 47.4z"/><path fill-opacity=".5" d="M258.4 116.4l26.5 46-23 13.3-26.5-46z"/><path fill="#aaa" fill-opacity=".5" d="M131.3 96.7l22.7 69.9-11.9 3.8-22.7-69.8z"/><path fill="#9c9c9c" fill-opacity=".5" d="M172.5 138.8l61.3-11.9 1.5 7.7-61.3 12z"/><path fill-opacity=".5" d="M351.7 133l37 26-4.4 6.4-37.1-26zm-79.8-98.2l110 23.4-8.4 39.8-110-23.4zm-181.2 49L30.9 65.5l5-16.4 59.8 18.2z"/><path fill="#626262" fill-opacity=".5" d="M343 207.8l-66.4-66.3 32-32 66.3 66.2z"/><path fill="#b0b0b0" fill-opacity=".5" d="M248 25.5l-53.8 37.6-6.2-9 53.7-37.6z"/><path fill-opacity=".5" d="M260 103.8l48.3 3.4-1 15.6-48.4-3.4zM141.9 37.5L102.2-6.6 134.7-36l39.7 44.1z"/><path fill="#373737" fill-opacity=".5" d="M239.8 95.9l-69.5 28-2.3-5.7L237.5 90z"/><path fill="#676767" fill-opacity=".5" d="M238.1 193.7l-28.9 44.5-70.8-46 29-44.5z"/><path fill="#2e2e2e" fill-opacity=".5" d="M158.1 143.9l-2.1-7.6 78-22.3 2.2 7.5z"/><path fill="#b1b1b1" fill-opacity=".5" d="M215 120.2l-64.4 12.6-1.5-7.7 64.4-12.5z"/><path fill="#d6d6d6" fill-opacity=".5" d="M206.4 87l32-32.1 6.7 6.6-32 32z"/><path fill-opacity=".5" d="M154.5 9.6l66.8-43.4 29 44.5-67 43.4zm133.7 54.7L418.6-61.6l26 27L314.2 91.3z"/><path fill="#6f6f6f" fill-opacity=".5" d="M238.7 70.3L311 89.7l-4.4 16.6-72.5-19.4z"/><path fill-opacity=".5" d="M385.7 179.2l-11-17 13-8.6 11.1 17zM193.2 77.3l17.3-7 4.1 10.2-17.3 7z"/></svg>