<svg xmlns="http://www.w3.org/2000/svg" viewBox="0 0 256 128"><path fill="#4a4a4a" d="M0 0h256v128H0z"/><g fill-opacity=".5"><path fill="#c4c4c4" d="M86.5 89.5l-51-94 155 61z"/><path d="M156.5 38.5l115 39-19-93zm-92 7l-73-61-7 76zm125-61h-152l83 47z"/><path fill="#b9b9b9" d="M117.5 37.5l35 14 29-61z"/><path fill="#9b9b9b" d="M80.5 88.5l-56 55 112-34z"/><path d="M271.5 80.5l-118-49 83-27zm-81-16l-20 51-49-18z"/><path fill="#909090" d="M203.5 54.5l-34 89 75-74z"/><path fill="#d1d1d1" d="M69.5 27.5l19 59 26-64z"/><path d="M88.5 22.5l88-25-117-10zm15 28l25 6 17-16zm-119 13l15-71 59 51z"/><path fill="#141414" d="M-3.5 78.5l77-19 4 28z"/><path fill="#919191" d="M64.5-13.5l25 62-99-64z"/><path fill="#1b1b1b" d="M201.5 87.5l-40 2 6-66z"/><path d="M47.5 134.5l-33 6 7-33zm76-105l-82-45 139 5z"/><path fill="#979797" d="M245.5 84.5l-38-30h-48z"/><path d="M268.5 79.5l-103-42 69-36z"/><path fill="#6f6f6f" d="M32.5 118.5l-8-40 134 57z"/><path fill="gray" d="M108.5 90.5l46-3 6-51z"/><path fill="#c5c5c5" d="M163.5 43.5l-28 15 4-37z"/><path fill="#7a7a7a" d="M223.5-5.5l-104 55 61-65z"/><path fill="#6a6a6a" d="M202.5 67.5l46 49-95 27z"/><path fill="#030303" d="M248.5 97.5l4 18-38-36z"/><path fill="#494949" d="M131.5 75.5l32-23-61 22z"/><path fill="#959595" d="M260.5 132.5l-16-61 18 12z"/><path fill="#565656" d="M67.5 62.5l-25-54 35 36z"/><path fill="#020202" d="M178.5 82.5l-73 12 70 8z"/><path fill="#767676" d="M69.5 52.5l-85 29 35-28z"/><path d="M49.5 36.5l-59-52-6 84z"/><path fill="#d4d4d4" d="M119.5 73.5l19-3-19 10z"/><path fill="#1a1a1a" d="M108.5 44.5l4 8 10-27z"/><path d="M57.5-15.5l97 23-64 14z"/><path fill="#4d4d4d" d="M212.5 90.5l5 26-59-52z"/><path d="M167.5 44.5l104-19-7 45z"/><path fill="#414141" d="M145.5 95.5l47 27-84-11z"/><path fill="#0f0f0f" d="M219.5 78.5l-50-2-1-15z"/><path fill="#424242" d="M157.5 36.5l-6-15 61-10z"/><path fill="#b6b6b6" d="M99.5 82.5l11-62h-19z"/><path fill="#9f9f9f" d="M73.5 108.5l35-3-23-17z"/><path fill="#0b0b0b" d="M271.5 120.5l-9 23-58-17z"/><path fill="#707070" d="M29.5 77.5l-5 25 34-33z"/><path fill="#202020" d="M112.5 95.5l-6-12-23-7z"/><path d="M129.5 54.5l-17-1 18-6z"/><path fill="#8c8c8c" d="M209.5 84.5l31 18-17 5z"/><path d="M70.5 52.5l-61-50-12 35z"/><path fill="#020202" d="M56.5 75.5l25 12-10-23z"/><path fill="#969696" d="M181.5 102.5l21 14-31-2z"/><path fill="#0e0e0e" d="M26.5 66.5l33-6-45 23z"/><path d="M96.5-5.5l67 7-46 30z"/><path fill="silver" d="M135.5 25.5l-13 5 39 9z"/><path fill="#4a4a4a" d="M123.5 46.5l-13 5-11-16z"/><path fill="#646464" d="M-15.5 100.5v-35l58-17z"/><path fill="#959595" d="M109.5 87.5l33 4v-9z"/><path fill="#1b1b1b" d="M147.5 77.5l-24 8 2-8z"/><path fill="#626262" d="M236.5 69.5l-7 21 31 3z"/><path fill="#ababab" d="M131.5 79.5l27-18-48 16z"/><path fill="#9f9f9f" d="M75.5 73.5l12-5-18-43z"/><path fill="#b6b6b6" d="M111.5 64.5l17 1 18-19z"/><path fill="#292929" d="M205.5 113.5l1-15 23 15z"/><path fill="#666" d="M140.5 86.5l33-38 18 5z"/><path fill="#3f3f3f" d="M47.5 56.5l30 67-39-38z"/><path fill="#8f8f8f" d="M58.5-15.5l-38 16 66 35z"/><path d="M166.5 74.5l17 29-32-12z"/><path fill="#898989" d="M264.5 108.5l-1 12h-30z"/><path d="M160.5 28.5l6 20 41-1z"/><path fill="#9b9b9b" d="M241.5 68.5l-21 8-25-18z"/><path fill="#2b2b2b" d="M93.5 70.5l14 7-2-6z"/><path fill="#6b6b6b" d="M139.5 119.5l-81 24-47-55z"/><path fill="silver" d="M103.5 63.5l-20 24 8-65z"/><path d="M205.5 41.5l28-45 26 83zm-154 92l-27 9-4-30z"/><path fill="#131313" d="M130.5 68.5l6 1 8-7z"/><path d="M131.5 52.5l4-15-8 12z"/><path fill="#626262" d="M216.5 110.5l-21-44 30 11z"/><path fill="#bebebe" d="M106.5 39.5l13 1-17-18z"/><path fill="#a8a8a8" d="M81.5 127.5l-25-8 10 13z"/><path fill="#919191" d="M160.5 38.5l10 21-9 5z"/><path fill="#646464" d="M70.5 2.5l-9 8 27 11z"/><path fill="#626262" d="M170.5 75.5l29 3-13 7z"/><path fill="#878787" d="M176.5 18.5l-43 6 59-40z"/><path fill="#010101" d="M191.5 79.5l5-11-34-4z"/><path d="M106.5 94.5h-7l10-10z"/><path fill="#555" d="M99.5 34.5l-1-10 7 15z"/><path d="M234.5 1.5l17-15 18 33z"/><path fill="#979797" d="M221.5 116.5v13l7-11z"/><path d="M253.5 106.5l-4 8-5-9z"/><path fill="#b1b1b1" d="M117.5 93.5v-8l-6 3z"/><path d="M77.5 12.5l37-28-21 37z"/><path fill="#161616" d="M107.5 98.5l43-13 2 12z"/><path fill="#6b6b6b" d="M80.5 85.5l22 1-44 13z"/><path fill="#c5c5c5" d="M83.5 39.5l9-15 18 29z"/><path fill="#020202" d="M29.5 71.5l-19 8 12 5z"/><path fill="#949494" d="M142.5 80.5h12l13-12z"/><path fill="#909090" d="M50.5 59.5l10-7 9 5z"/><path fill="#3b3b3b" d="M239.5 4.5l1 16 26 20z"/><path fill="#606060" d="M9.5 88.5l35-13-60 46z"/><path d="M117.5 33.5l64-49-71 13z"/></g></svg>