<svg xmlns="http://www.w3.org/2000/svg" viewBox="0 0 128 64"><path fill="#4b4b4b" d="M0 0h128v64H0z"/><g fill-opacity=".5"><path fill="#c8c8c8" d="M20.5.5l74 26-49 16z"/><path d="M139.5 40.5l4-56-64 33zm-140-12l-10-44 40 37zm61-13l-43-25 84-5z"/><path fill="#868686" d="M1.5 79.5l96-95-41 81z"/><path d="M143.5 31.5l-8-47-54 40zm-45 1l-41 16 27 9z"/><path fill="#868686" d="M125.5 36.5l-25-10-21 53z"/><path fill="#cdcdcd" d="M56.5 11.5l-13 37-4-38z"/><path d="M-15.5 34.5l42-14-37-36zm100-34l-41 10-11-26zm-31 23l17-2-7 7z"/><path fill="#b8b8b8" d="M75.5 26.5l3-21-19 12z"/><path fill="#9a9a9a" d="M-14.5-15.5h42l19 40z"/><path fill="#131313" d="M3.5 36.5l38 8-7-14z"/><path d="M81.5 20.5l36-19 10 32zm-42-23l21 17 43-30zm-30 57l27 19-27-6z"/><path fill="#6c6c6c" d="M91.5 23.5l-19 22-22-9z"/><path fill="#0e0e0e" d="M45.5 44.5l23 7 19-6z"/><path fill="#737373" d="M10.5 50.5l62-2-24 31z"/><path fill="#828282" d="M96.5-15.5l-33 38 50-28z"/><path d="M-14.5-15.5l46 39-36 2z"/><path fill="#060606" d="M84.5 30.5l-6 17 22-12z"/><path fill="#595959" d="M125.5 37.5h-39l27 26z"/><path fill="#969696" d="M88.5 25.5l15 12 19-3z"/><path fill="#a6a6a6" d="M42.5 19.5l7 36-13-24z"/><path fill="#0c0c0c" d="M130.5 51.5l-7 4-12-13z"/><path fill="#929292" d="M123.5 35.5l20 21-10 23z"/><path d="M122.5 12.5h-46l63 30z"/><path fill="#707070" d="M-15.5 44.5l52-19-29 2z"/><path fill="#666" d="M16.5 50.5l-32 5 46-24zm87-23l-23-4-25 12z"/><path d="M143.5 59.5l-61 6 61 14z"/><path fill="#bebebe" d="M72.5 13.5l-6 16 14-8z"/><path fill="#737373" d="M126.5 58.5l-13-13-7 15z"/><path fill="#202020" d="M48.5 46.5l-5-3 17-3z"/><path fill="#a1a1a1" d="M63.5 37.5l9 1 12-11z"/><path fill="#5d5d5d" d="M34.5 15.5l-12-7 14 19z"/><path d="M49.5-15.5l10 33 15-33z"/><path fill="#848484" d="M85.5 55.5l14 6 2-15z"/><path d="M78.5 3.5l-59-19 25 25z"/><path fill="#040404" d="M11.5 40.5l7-9-15 10z"/><path fill="#989898" d="M40.5 55.5l-3-10 17 4z"/><path fill="#0f0f0f" d="M56.5 25.5l11 1-1-6z"/><path fill="#2f2f2f" d="M115.5 55.5l-14 2 1-8z"/><path fill="#626262" d="M50.5 18.5l22 2-16 4z"/><path fill="#4a4a4a" d="M50.5 60.5l24-11 23 12z"/><path fill="#0c0c0c" d="M42.5 43.5l-10-12v12z"/><path fill="#464646" d="M120.5 10.5l15 8-13-14z"/><path d="M77.5 14.5l9 10h19z"/><path fill="#868686" d="M23.5 11.5l23 1-37-28z"/><path fill="#a5a5a5" d="M48.5 31.5l22-5-3 6z"/><path fill="#c6c6c6" d="M38.5 25.5l10 8v-20z"/><path fill="#4e4e4e" d="M88.5 46.5l21-7-6-5z"/><path fill="#969696" d="M114.5 32.5l-11-5 14 16z"/><path fill="#2a2a2a" d="M36.5 31.5l-22-1 18 17z"/><path fill="#b2b2b2" d="M70.5 35.5l-13 5 1-5z"/><path fill="#5a5a5a" d="M77.5 40.5l-22 1 25-9z"/><path fill="#6a6a6a" d="M49.5 45.5v-6l-20 8z"/><path d="M11.5 77.5l15 2-15-29z"/><path fill="#616161" d="M16.5 40.5l-5 12 43 11z"/><path fill="#030303" d="M73.5 47.5l12-14 4 16z"/><path fill="#919191" d="M79.5 37.5l-13 3 1 4z"/><path fill="#4a4a4a" d="M56.5 31.5l14 1-17 5z"/><path d="M27.5 17.5l-31 14-12-40z"/><path fill="#525252" d="M96.5 6.5l-23 6 5 5z"/><path fill="#aaa" d="M26.5 59.5l35 10-7 10z"/><path fill="#c5c5c5" d="M53.5 18.5l-1-8 5 5z"/><path fill="#898989" d="M112.5 53.5l-8-13 13 10z"/><path d="M52.5 41.5l3 5-2 1zm91-7l-60-12 32-14z"/><path fill="#969696" d="M65.5 42.5l-8 4-3-3z"/><path fill="#afafaf" d="M54.5 35.5l7-5-11 1z"/><path fill="#939393" d="M75.5 14.5l13-17-22 16z"/><path fill="#323232" d="M70.5 40.5l2-3-10 2z"/><path fill="#535353" d="M100.5 40.5l-18-5 26 16z"/><path fill="#9c9c9c" d="M50.5 44.5l-12-9-1-9z"/><path fill="#191919" d="M75.5 44.5l8 8-28-6z"/><path fill="#616161" d="M78.5 24.5l22 2-4 5z"/><path fill="#b8b8b8" d="M63.5 14.5l20 7-11-8z"/><path d="M39.5 4.5l27 7 28-27z"/><path fill="#0d0d0d" d="M115.5 40.5l-1 4-5 1z"/><path fill="#5f5f5f" d="M60.5 49.5l35 30-45-17z"/><path fill="#1b1b1b" d="M64.5 44.5l-3-5 2 1z"/><path fill="#aaa" d="M14.5 42.5l3 3 2-3z"/><path d="M143.5-6.5l-25 37 14 10z"/><path fill="#d9d9d9" d="M53.5 76.5l-30-14 13 15z"/><path d="M96.5 38.5l-4-2 5-3z"/><path fill="#5f5f5f" d="M17.5 33.5l-20-2 23-7z"/><path fill="#6b6b6b" d="M102.5 56.5v-11l-13 1z"/><path fill="#666" d="M143.5 37.5l-31 3 11 5z"/><path fill="#343434" d="M66.5 23.5l1-6 1 8z"/><path fill="#585858" d="M52.5 41.5h-6l-6-5z"/><path fill="#676767" d="M100.5 57.5l18 2-32 5z"/><path fill="#afafaf" d="M77.5 17.5l4 6-21 7z"/><path fill="#787878" d="M30.5 29.5l7-2-17-2z"/><path d="M109.5 79.5h-50l61-19zm17-28v3l-5-2z"/><path fill="#a5a5a5" d="M131.5 42.5l-4 5 1 9z"/></g></svg>