<svg xmlns="http://www.w3.org/2000/svg" viewBox="0 0 400 200"><path fill="#494949" d="M0 0h400v200H0z"/><path fill="#c5c5c5" fill-opacity=".5" d="M250.5 54l-14.7 75.2-147.2-28.6 14.6-75.1z"/><path fill-opacity=".5" d="M407.6 119.4l-136-46.8L319-64.8 454.9-18zM-65.7 19.3l44.1-50.7 145 126.1-44 50.7zm249.2 39.1L143 6.7l81.2-63.5 40.4 51.7z"/><path fill="#b6b6b6" fill-opacity=".5" d="M152.8 234.6l-43.5-4.6L130 32.6l43.5 4.6z"/><path fill="#b2b2b2" fill-opacity=".5" d="M95.8 52.9L2.2-17.6l25.4-33.7 93.6 70.5z"/><path fill-opacity=".5" d="M220.9 157.3l55.3-63.7 29.5 25.7-55.4 63.6zm179.2-50.6L255.5 73.3 267 23l144.6 33.4z"/><path fill="#a0a0a0" fill-opacity=".5" d="M220.4 69.8l-17-28.2 115.3-69.2L335.6.6z"/><path fill-opacity=".5" d="M125.9 40.6l-13.4-57.8L207-39l13.4 57.8z"/></svg>