<svg xmlns="http://www.w3.org/2000/svg" viewBox="0 0 16 8"><path fill="#4c4c4c" d="M0 0h16v8H0z"/><g fill-opacity=".5"><path fill="#9e9e9e" d="M10.5.5l-4 6-3-13z"/><path d="M5.5-11.5l26 19-47-15z"/><path d="M2.5 1.5l-18 1 4-17z"/><path fill="#acacac" d="M8.5 1.5l19-12-9-5z"/><path d="M11.5 1.5l13 4 7-13z"/><path fill="#a0a0a0" d="M9.5 23.5l-8-2 5-20z"/><path fill="#1c1c1c" d="M6.5 5.5l4-2v2z"/><path fill="#bdbdbd" d="M6.5 3.5l-5-19h-7z"/><path fill="#7e7e7e" d="M11.5 23.5l2-20-6 14z"/><path d="M6.5.5l2-16 12 10z"/><path fill="#191919" d="M10.5 6.5l10 5 11-1z"/><path d="M2.5 1.5l-6 2-6-12z"/><path fill="#6f6f6f" d="M7.5 6.5l-6 1 9-5z"/><path d="M1.5 7.5l11 5-11 11z"/><path fill="#6f6f6f" d="M12.5 3.5l5 1 4 4z"/><path fill="#020202" d="M31.5 2.5h-21l15-10z"/><path fill="#1f1f1f" d="M8.5 2.5l-3-8 2-6z"/><path fill="#979797" d="M4.5.5l5 2-1 1z"/><path fill="#3d3d3d" d="M7.5 2.5l-15 5-8-4z"/><path fill="#767676" d="M2.5 5.5l8 10 2-4z"/><path fill="#1e1e1e" d="M.5 23.5l11-19-2 19z"/><path fill="#5c5c5c" d="M9.5 6.5l22 17-47-9z"/><path fill="#747474" d="M4.5 2.5l2-7h-2z"/><path fill="#757575" d="M8.5 3.5l1 1h-3z"/><path fill="#777" d="M6.5 4.5l1-2h3z"/><path fill="#414141" d="M17.5 23.5l-1-30 13 6z"/><path d="M7.5.5l1-11 11-5zm-4 1l-19-17 4 11z"/><path fill="#3d3d3d" d="M15.5 5.5l14 4 2-9z"/><path fill="#444" d="M12.5 4.5l9 4 10-2z"/><path fill="#525252" d="M2.5 3.5l-14-2v22z"/><path fill="#8d8d8d" d="M9.5 2.5v1l-2-2z"/><path fill="#1e1e1e" d="M3.5 7.5l-19-3 21 16z"/><path fill="#2f2f2f" d="M2.5 5.5l1-3 1 2z"/><path fill="#5a5a5a" d="M4.5 4.5l-17 5 7-5z"/><path fill="#434343" d="M11.5.5l5-13 7-3z"/><path d="M15.5 2.5l16-10-10 16z"/><path fill="#636363" d="M14.5 6.5h15l2-5z"/><path fill="#757575" d="M13.5 4.5l-6 15-5-1z"/><path fill="#3f3f3f" d="M7.5 5.5l14 9 10-2z"/><path fill="#757575" d="M12.5 6.5l-5 17-3-8z"/><path fill="#6c6c6c" d="M2.5.5l12-16h-9z"/><path fill="#919191" d="M9.5 1.5l8-17-1 9z"/><path fill="#646464" d="M4.5-2.5l8 3-12-11z"/><path fill="#070707" d="M1.5 7.5l-13 8-4-7z"/><path d="M8.5.5l-2-15-7 3zm5 2v-14l7-1z"/><path fill="#666" d="M6.5 6.5l11 15 14 1z"/><path fill="#b0b0b0" d="M6.5 2.5l-3-6v3z"/><path fill="#828282" d="M5.5 1.5l-6-7 5-10z"/><path fill="#030303" d="M10.5 4.5h-2l2 1z"/><path fill="#505050" d="M8.5 5.5v18h6z"/><path fill="#252525" d="M6.5.5l-4-16 9 8z"/><path fill="#8c8c8c" d="M9.5 18.5l-5-11 25 10z"/><path fill="#424242" d="M-13.5 8.5l15-2-7 14z"/><path d="M-15.5-9.5l19 11-11-2z"/><path fill="#797979" d="M13.5 3.5l14 7 1-4z"/><path fill="#575757" d="M15.5 5.5l2-21 14 20z"/><path fill="#585858" d="M14.5 5.5l4 3h4z"/><path fill="#111" d="M13.5.5l1-16 9 3z"/><path fill="#010101" d="M11.5.5h7l1 4z"/><path fill="#131313" d="M14.5 1.5l17-7-6 7z"/><path fill="#282828" d="M7.5 4.5l1 1 1-1z"/><path fill="#191919" d="M2.5.5l-11-11 7-5z"/><path fill="#484848" d="M3.5 3.5l-9 2-1 4z"/><path fill="#5f5f5f" d="M7.5 6.5l3 3 4 1z"/><path fill="#575757" d="M1.5 3.5l-9 3-8-2z"/><path d="M8.5.5l-5-13 4-2z"/><path fill="#757575" d="M11.5 6.5l5 6-6 3z"/><path fill="#616161" d="M11.5 7.5l20 13-12 2z"/><path fill="#575757" d="M3.5 5.5l-10-6-9 4z"/><path fill="#4e4e4e" d="M15.5 7.5l8-1 5-22z"/><path fill="#5c5c5c" d="M14.5 5.5v1h3z"/><path fill="#6c6c6c" d="M31.5 5.5l-19-2 13 5z"/><path fill="#3f3f3f" d="M14.5 3.5l17 7v-6z"/><path fill="#5b5b5b" d="M14.5 3.5h17l-6 4z"/><path fill="#3f3f3f" d="M2.5 7.5l4 13-11 3z"/><path fill="#7a7a7a" d="M4.5.5l5-16 8 2z"/><path fill="#414141" d="M1.5 6.5l-3 10-14 2z"/><path fill="#838383" d="M5.5 4.5l-1 2 1-1z"/><path d="M13.5 1.5l8-17-1 9z"/><path fill="#4f4f4f" d="M31.5 10.5l-12-15-3 11z"/><path d="M1.5.5h-3l-2 2z"/><path fill="#898989" d="M9.5 1.5l9-10-2-7z"/><path fill="#6e6e6e" d="M11.5.5l-8-16h6z"/><path fill="#0a0a0a" d="M14.5 3.5l15-6 2-10z"/><path fill="#2c2c2c" d="M31.5-4.5l-13 6-9 22z"/><path fill="#191919" d="M-15.5 7.5l18-6h-18z"/><path fill="#aaa" d="M3.5.5l1 1h2z"/><path fill="#838383" d="M5.5 2.5l-1-14-8-4z"/><path fill="#090909" d="M.5 1.5l-6 5 1-5z"/><path fill="#6e6e6e" d="M5.5 7.5l3 5-13 7z"/><path fill="#bbb" d="M5.5 3.5h1l-1-2z"/><path fill="#979797" d="M5.5 1.5l-7-13-3 3z"/><path fill="#656565" d="M10.5.5l-15-15 8-1z"/><path fill="#343434" d="M13.5 7.5l14 3 4 8z"/><path fill="#434343" d="M12.5 7.5v14l14 2z"/><path fill="#101010" d="M11.5 3.5h-1v1z"/><path fill="#454545" d="M1.5 4.5h-4l2-1z"/><path fill="#363636" d="M14.5 7.5l10 10-26-7z"/></g></svg>