<svg xmlns="http://www.w3.org/2000/svg" viewBox="0 0 400 200"><path fill="#857a71" d="M0 0h400v200H0z"/><path fill="#fff" fill-opacity=".5" d="M-37.6-21L278-32l1.9 54.6-315.5 11z"/><path fill="#1f2b0f" fill-opacity=".5" d="M259.4 13.3h198.4v84.4H259.4z"/><path fill="#feffff" fill-opacity=".5" d="M170.8 104.5l-32.6-3.4L149.5-6 182-2.7z"/><path fill="#333a26" fill-opacity=".5" d="M108.9 82.8L1 120l-20.8-60.5L88 22.2z"/><path fill="#5e3d30" fill-opacity=".5" d="M182.1 133.6l9.7 91.7-197.4 20.8-9.6-91.7z"/><path fill="#edfcff" fill-opacity=".5" d="M306.6 2l-171 55.5L117-.5 287.7-56z"/><path fill="#a1c7f4" fill-opacity=".5" d="M214 25.5l54 31.3-27.3 47.3-54-31.2z"/><path fill="#0f1323" fill-opacity=".5" d="M147.7 106l34-5.3 6.5 41.7-34 5.3z"/><path fill="#e6fdff" fill-opacity=".5" d="M147.7-35l6.5 52.7L.7 36.6l-6.5-52.8z"/><path fill="#cea595" fill-opacity=".5" d="M328.2 157l-89-4.7 3-54.6 88.9 4.7z"/></svg>