<svg xmlns="http://www.w3.org/2000/svg" viewBox="0 0 200 100"><path fill="#867a73" d="M0 0h200v100H0z"/><g fill-opacity=".5"><path fill="#fff" d="M82.5 24.5l-98-22 205-18z"/><path fill="#1e2710" d="M124.5 46.5l91 2-32-64z"/><path fill="#f6ffff" d="M56.5-15.5l21 69 24-67z"/><path fill="#52493a" d="M78.5 10.5l-94 9v96z"/><path fill="#f4ffff" d="M14.5-15.5l-30 33 141-17z"/><path fill="#c3d9f6" d="M87.5-15.5l42 90 1-47z"/><path fill="#604038" d="M90.5 46.5l-106 53 113 16z"/><path fill="#b49289" d="M-15.5 73.5l86-42 9 45z"/><path fill="#d2a694" d="M124.5 48.5l91 6-102 28z"/><path fill="#fff" d="M166.5-4.5l-69-4 2 24z"/><path fill="#405477" d="M92.5 10.5l-9 52 38 1z"/><path fill="#696450" d="M115.5 14.5l60 34 18-64z"/><path fill="#232e19" d="M128.5 24.5l10 24 77-2z"/><path fill="#fff" d="M83.5 51.5l-11-6 12-23z"/><path fill="#94b2db" d="M94.5 27.5l-1 21 37-21z"/><path fill="#2a3e2a" d="M44.5 46.5l-57-19 76 2z"/><path fill="#958b6d" d="M165.5 43.5l28-11-64-8z"/><path fill="#0d090c" d="M74.5 51.5l8 24 8-18z"/><path fill="#9c9ca3" d="M74.5 22.5l-19-15 61 6z"/><path fill="#976d5d" d="M62.5 83.5l153-24-19 56z"/><path fill="#d7e9ff" d="M76.5 1.5l-62-17-30 36z"/><path fill="#442519" d="M53.5 96.5l-41 19 16-32z"/><path fill="#eceaef" d="M73.5-15.5l-8 33 11 28z"/><path fill="#8b6b5e" d="M-9.5 80.5l86 6-54-44z"/><path fill="#301e1a" d="M109.5 62.5l-13 5 10-22z"/><path fill="#635e60" d="M62.5 12.5l9 21-51-21z"/><path fill="#d4b7aa" d="M55.5 40.5l-10 10 32 19z"/><path fill="#3c492c" d="M123.5 15.5l38 1-24 14z"/><path fill="#d1a7a7" d="M158.5 28.5l25 7-6-9z"/><path fill="#1c2915" d="M130.5 34.5h43l-42 15z"/><path fill="#e1a38d" d="M92.5 74.5h26l-10-10z"/><path fill="#adb3bd" d="M125.5 58.5l-7 37-3-29z"/><path fill="#283426" d="M108.5 15.5l7-4 7 6z"/><path fill="#1b291b" d="M188.5 32.5l24-30-31 20z"/><path fill="#f0fcff" d="M184.5-12.5l-72-3-19 34z"/><path fill="#222f47" d="M85.5 33.5l5 18 5-32z"/><path fill="#81513d" d="M114.5 114.5l-17-50 48 51z"/><path fill="#ba9987" d="M201.5 48.5l14 27-98-27z"/><path fill="#6b7e9c" d="M78.5 84.5l14 3 7-37z"/><path fill="#ae9a96" d="M60.5 11.5l-22 14 14 1z"/><path fill="#4b2b1f" d="M112.5 63.5l10-11-6 17z"/><path fill="#879cbc" d="M118.5 52.5l-28-22 23-8z"/><path fill="#485360" d="M89.5 25.5l1-12 7-4z"/><path fill="#d2a392" d="M153.5 11.5l-26 2 12 4z"/><path fill="#3c3b41" d="M91.5 75.5l-2-34-17 35z"/><path fill="#636157" d="M215.5 19.5l-71-12 71-13z"/><path fill="#010f12" d="M84.5 87.5l1 12 5-12z"/><path fill="#735343" d="M215.5 67.5v23l-54-11z"/><path fill="#121e0e" d="M215.5 35.5l-27 13-7-12z"/><path fill="#c4a18a" d="M180.5 93.5l-1 18 32-27z"/><path fill="#0c0b20" d="M62.5 10.5l-4-1 7 7z"/><path fill="#b7a09e" d="M195.5 23.5l20-2-2 44z"/><path fill="#d6d5dd" d="M84.5 23.5l3 28-22-30z"/><path fill="#dfedfc" d="M55.5-15.5l-38 18 41 11z"/><path fill="#62728f" d="M70.5 58.5l1-28-11 18z"/><path fill="#5d6c68" d="M98.5 14.5h11l-12 5z"/><path fill="#9b7c6d" d="M124.5 63.5h36l-32 23z"/><path fill="#1c3600" d="M173.5 37.5l-22-2 8-5z"/><path fill="#5e5b4f" d="M45.5 11.5l-44 6-17 74z"/><path fill="#9b877c" d="M21.5 68.5l41-18-48-2z"/><path fill="#e9f4ff" d="M63.5 10.5l-17-26 69 19z"/><path fill="#deb8a4" d="M143.5 52.5l-15-2v24z"/><path fill="#181f0b" d="M164.5 15.5l-11-2-13 6z"/><path fill="#3c4730" d="M159.5 7.5l-21-3-14 8z"/><path fill="#998e7c" d="M154.5 27.5h-8l-1 16z"/><path fill="#311c22" d="M55.5 21.5l16 11-12-15z"/><path fill="#c6ae9a" d="M166.5 40.5l-11-3h20z"/><path fill="#303722" d="M54.5 27.5l-1 12-31 8z"/><path fill="#171916" d="M170.5 46.5l-39-12 1 13z"/><path fill="#b7a29d" d="M76.5 74.5v-15l-17 6z"/><path fill="#f2f0f3" d="M82.5 23.5l-10 33v-18z"/><path fill="#a59dab" d="M88.5 73.5l-6 1v19z"/><path fill="#e6eefd" d="M53.5 1.5l72 9 35-26z"/><path fill="#e4c2ab" d="M65.5 41.5l-3-8-11 10z"/><path fill="#7b5849" d="M38.5 64.5l62 51-85-36z"/><path fill="#b0adb4" d="M124.5 79.5l-7-18-1 27z"/><path fill="#d1dded" d="M-8.5-15.5l58 16-44 17z"/><path fill="#2e2a30" d="M92.5 83.5l-8-33-10 3z"/><path fill="#8e90a0" d="M89.5 68.5l8-31 2 35z"/><path fill="#746960" d="M55.5 16.5l-22 16-33-16z"/><path fill="#1f2c41" d="M93.5 60.5l-3-21-4 7z"/><path fill="#3f2a1c" d="M8.5 45.5l-1 18-5-5z"/><path fill="#dac2a3" d="M194.5 33.5l21 7-6-9z"/><path fill="#abc0d4" d="M134.5 26.5l-15 15-6-11z"/><path fill="#342e22" d="M169.5 27.5l7-8-25 7z"/><path fill="#abc6e1" d="M119.5 16.5v10l-21-10z"/><path fill="#c7c5c8" d="M91.5 23.5l-23-10 12 23z"/><path fill="#eff4fd" d="M91.5 19.5l26-35 28 6z"/><path fill="#a5888f" d="M176.5 22.5l-5-7h9z"/><path fill="#1f2312" d="M197.5 30.5l-18-6-1 7z"/><path fill="#231519" d="M97.5 24.5l-6-2-4 8z"/><path fill="#270801" d="M104.5 62.5h-5l1 7z"/><path fill="#30363e" d="M75.5 88.5l3 11 3-16z"/><path fill="#d79881" d="M93.5 76.5l14 7-10-14z"/><path fill="#8e7e71" d="M56.5 35.5l3-21 3 18z"/><path fill="#653e2d" d="M115.5 90.5l-11-5 10-6z"/><path fill="#6c5b4d" d="M126.5 78.5l-2-9 3-8z"/><path fill="#4f5361" d="M94.5 69.5l-4 21-5-33z"/><path fill="#c09f91" d="M42.5 64.5h9l-4-23z"/><path fill="#a78a83" d="M168.5 3.5l-10 10h-13z"/></g></svg>