<svg xmlns="http://www.w3.org/2000/svg" viewBox="0 0 400 200"><path fill="#857a71" d="M0 0h400v200H0z"/><path fill="#fff" fill-opacity=".5" d="M-33.7-21.2L270.8-32l2 54.7-304.6 10.6z"/><path fill="#1f2a0e" fill-opacity=".5" d="M416.5 101.4l-157.8-2.8 1.4-82.8L418 18.6z"/><path fill="#fcffff" fill-opacity=".5" d="M138.4-1l36 .5-1.9 103.1-35.9-.6z"/><path fill="#343b28" fill-opacity=".5" d="M-18.5 57L89.3 20l21.4 62L2.9 119z"/><path fill="#cdddf3" fill-opacity=".5" d="M169.8-21.2L197.4-36l84.4 158.7-27.6 14.6z"/><path fill="#5e3c2f" fill-opacity=".5" d="M184.9 133.6l13.1 107L1 264.8l-13-107z"/><path fill="#ecffff" fill-opacity=".5" d="M1.4 34.5l-4.9-46.7L194-32.9l4.9 46.6z"/><path fill="#fff" fill-opacity=".5" d="M185 13.5l146.5-44.7 6.9 22.4-146.5 44.7z"/><path fill="#242e45" fill-opacity=".5" d="M217.3 130.3l-56.5 18.4-14-43.1 56.5-18.4z"/><path fill="#cfa28c" fill-opacity=".5" d="M241 141.3l-.7-40.6 164-3 .7 40.7z"/><path fill="#88acda" fill-opacity=".5" d="M183.8 61.3l73.4-15.6 7.4 35.2-73.3 15.6z"/><path fill="#cda595" fill-opacity=".5" d="M84 99.4l33-20.7 38.1 61-33 20.7z"/><path fill="#081106" fill-opacity=".5" d="M258.8 98.3l-.4-18.8 71.9-1.2.3 18.7z"/><path fill="#6c6754" fill-opacity=".5" d="M321.7-37.2l71.2 48L336.1 95 265 47z"/><path fill="#202f1c" fill-opacity=".5" d="M86.7 87.1l-8.9-14.7 49.6-29.8 8.8 14.7z"/><path fill="#d3d7df" fill-opacity=".5" d="M129.4 52.5l4-45.1 48.2 4.2-4 45.1z"/><path fill="#143052" fill-opacity=".5" d="M188.4 45.4l-6.5 62.1-12.5-1.3L176 44z"/><path fill="#d4ada0" fill-opacity=".5" d="M377.2 69.4l-1.5 6-60.7-15 1.5-6.1z"/><path fill="#f0f5fb" fill-opacity=".5" d="M143.3 54.1l23.4-.4 1 50-23.5.4z"/><path fill="#041303" fill-opacity=".5" d="M405.8 98.4L360.5 97l.9-25 45.3 1.6z"/></svg>