<svg xmlns="http://www.w3.org/2000/svg" viewBox="0 0 400 200"><path fill="#857a71" d="M0 0h400v200H0z"/><g transform="translate(.8 .8) scale(1.5625)" fill-opacity=".5"><ellipse fill="#d2e7fc" cx="112" rx="58" ry="58"/><ellipse fill="#2e351b" cx="223" cy="28" rx="40" ry="40"/><ellipse fill="#f6ffff" cx="26" rx="27" ry="27"/><ellipse fill="#3e3f2d" cx="31" cy="46" rx="30" ry="30"/><ellipse fill="#3c3922" cx="67" cy="34" rx="18" ry="18"/><ellipse fill="#010" cx="179" cy="49" rx="15" ry="15"/><ellipse fill="#633b28" cx="41" cy="127" rx="43" ry="43"/><ellipse fill="#3d4e6f" cx="126" cy="44" rx="19" ry="19"/><ellipse fill="#fff" cx="131" rx="20" ry="20"/><ellipse fill="#fff" cx="60" rx="17" ry="17"/><ellipse fill="#a5c4e8" cx="150" cy="46" rx="17" ry="17"/><ellipse fill="#343647" cx="115" cy="79" rx="20" ry="20"/><ellipse fill="#fff" cx="96" rx="21" ry="21"/><ellipse fill="#fff" cx="99" cy="56" rx="10" ry="10"/><ellipse fill="#e0b8a9" cx="170" cy="78" rx="17" ry="17"/><ellipse fill="#e9ffff" cx="9" rx="22" ry="22"/><ellipse fill="#fff" cx="163" rx="13" ry="13"/><ellipse fill="#4c4e2a" cx="172" cy="21" rx="14" ry="14"/><ellipse fill="#b08979" cx="58" cy="82" rx="28" ry="28"/><ellipse fill="#745144" cx="112" cy="127" rx="39" ry="39"/><ellipse fill="#c79c86" cx="232" cy="79" rx="18" ry="18"/><ellipse fill="#000c00" cx="247" cy="53" rx="10" ry="10"/><ellipse fill="#e5fcff" cx="42" cy="1" rx="16" ry="16"/><ellipse fill="#fff" cx="181" rx="6" ry="6"/><ellipse fill="#555241" cy="52" rx="30" ry="30"/></g></svg>