<svg xmlns="http://www.w3.org/2000/svg" viewBox="0 0 400 200"><path fill="#857a71" d="M0 0h400v200H0z"/><g transform="translate(.8 .8) scale(1.5625)" fill-opacity=".5"><ellipse fill="#fff" cx="66" rx="121" ry="19"/><ellipse fill="#1c290e" rx="1" ry="1" transform="rotate(84.7 91.4 143.3) scale(26.37771 62.52279)"/><ellipse fill="#fff" cx="99" cy="25" rx="13" ry="42"/><ellipse fill="#3f4333" rx="1" ry="1" transform="matrix(66.40926 -21.51357 7.92901 24.4757 14.4 47.5)"/><ellipse fill="#c1d2e9" rx="1" ry="1" transform="matrix(12.10388 -6.17056 26.37269 51.7314 145.8 37)"/><ellipse fill="#5c3726" rx="1" ry="1" transform="rotate(3.9 -1810 778.6) scale(79.8972 26.05455)"/><ellipse fill="azure" cx="55" rx="133" ry="16"/><path fill="#2f374c" d="M156 73l-69 31 27-60z"/><ellipse fill="#d6a790" cx="218" cy="75" rx="65" ry="13"/><path fill="#0b1509" d="M171 41.4l48.9 17.9-50.2 5.5-8.1-10z"/><ellipse fill="#5d5d49" rx="1" ry="1" transform="matrix(-3.42436 -26.25563 64.66744 -8.43417 225.8 18.6)"/><path fill="#ddecff" d="M25.7 18.5l-41.7 9v-39l238.8 9.2z"/><ellipse fill="#bea097" rx="1" ry="1" transform="matrix(-13.72375 -10.68365 14.60204 -18.75715 74.3 69)"/><path fill="#87a5cc" d="M118 34h48v26h-48z"/><path fill="#969092" d="M39 40L76 8l45 8z"/></g></svg>