<svg xmlns="http://www.w3.org/2000/svg" viewBox="0 0 400 200"><path fill="#857a71" d="M0 0h400v200H0z"/><path fill="#fff" fill-opacity=".5" d="M274.8 23L-21.9 33.2l-1.3-39 296.6-10.4z"/><path fill="#222c10" fill-opacity=".5" d="M258.7 17.3L443 11l3 85.9-184.3 6.4z"/><path fill="#f4ffff" fill-opacity=".5" d="M168.4 99.7L127 92.4l18.7-106.2 41.6 7.3z"/><path fill="#363f2e" fill-opacity=".5" d="M123.9 18.3l16 52.3-143.5 43.9-16-52.3z"/><path fill="#5e3d30" fill-opacity=".5" d="M-48.2 159.4l233-24.5 8.7 82.3-233 24.5z"/><path fill="#c8d8ee" fill-opacity=".5" d="M185.1 3.1L215-10.8l64 137.4-29.7 13.9z"/><path fill="#fff" fill-opacity=".5" d="M291.3-25.5L300 1.2 191.5 36.5l-8.7-26.8z"/><path fill="#ebffff" fill-opacity=".5" d="M295.7 7.4L3 33-.4-5.9l292.7-25.6z"/><path fill="#232b40" fill-opacity=".5" d="M217 88.8l11.4 37.3-68.8 21-11.4-37.3z"/><path fill="#ca9e88" fill-opacity=".5" d="M238.3 143.8V98.4h178.1v45.3z"/><path fill="#c29d90" fill-opacity=".5" d="M163.2 135.7l-41.4 28L79 100.2l41.4-28z"/><path fill="#81a7d5" fill-opacity=".5" d="M193.2 101.6l-15.8-32.3 71.6-35 15.8 32.4z"/><path fill="#0a1909" fill-opacity=".5" d="M259.8 95.4l2.5-28 51.3 4.4-2.4 28z"/><path fill="#62624f" fill-opacity=".5" d="M436.3 25.1l-151 64.1-29.4-69L407-44z"/><path fill="#fff" fill-opacity=".5" d="M169.9 69l-5.6 35.5-20.1-3.2 5.6-35.5z"/><path fill="#00173c" fill-opacity=".5" d="M185.2 106.8l-10.9.4-1.7-50 10.9-.3z"/><path fill="#d6aca1" fill-opacity=".5" d="M360.7 78.2l-34.3-15.3 5.1-11.4 34.3 15.3z"/><path fill="#071404" fill-opacity=".5" d="M356.7 71.3l76.5 2.7-.8 25-76.6-2.7z"/><path fill="#635e53" fill-opacity=".5" d="M90 25.6l1.3 39-57.8 2-1.4-39z"/><path fill="#909eb6" fill-opacity=".5" d="M185 93l15.5 1.9-5.9 48-15.5-1.8z"/><path fill="#47546d" fill-opacity=".5" d="M145.8 104.8l-14 1.2-4.1-46.7 14-1.2z"/><path fill="#24311b" fill-opacity=".5" d="M108.8 85.2L58.5 96.8l-6.3-27.4 50.2-11.6z"/><path fill="#885f4c" fill-opacity=".5" d="M279.6 135.2l134.3 4.7-1.3 39-134.3-4.7z"/><path fill="#c0b1b3" fill-opacity=".5" d="M112.9 19.4L124 30.2l-26 27-11.3-10.9z"/><path fill="#534a38" fill-opacity=".5" d="M-33 129l11.7-94.6 55.8 6.9-11.6 94.6z"/><path fill="#1b0f09" fill-opacity=".5" d="M156.8 154.2l-7.1-44.8 17-2.7 7 44.8z"/><path fill="#dca898" fill-opacity=".5" d="M317.3 25.5l-50.6 9.8-1.2-6.1 50.6-9.8z"/><path fill="#402215" fill-opacity=".5" d="M102.6 191.2l-17.8 36.5-42.1-20.5 17.8-36.5z"/><path fill="#935b44" fill-opacity=".5" d="M177.4 182l32.8-37.7 57.7 50.2-32.8 37.8z"/><path fill="#cda899" fill-opacity=".5" d="M209.7 129.3l54 20.7-6.2 16-54-20.7z"/><path fill="#190100" fill-opacity=".5" d="M247.4 109.5l-21 23.2-3.4-3.1 20.9-23.2z"/><path fill="#cbc8cb" fill-opacity=".5" d="M132 20.2l40.4 3.5-2.8 32.7-40.5-3.5z"/><path fill="#172717" fill-opacity=".5" d="M358.2 52.8l35.4-30.7 12.3 14.1L370.5 67z"/><path fill="#1d2c11" fill-opacity=".5" d="M205.8 35.9l-.4-3.1 37.2-4.6.4 3.1z"/><path fill-opacity=".5" d="M309.8 97.1l.8-10.9 37.4 2.6-.8 11z"/><path fill="#0a192b" fill-opacity=".5" d="M183.6 34l-2.1-2.3L196 17.6l2.1 2.3z"/><path fill="#8d6e62" fill-opacity=".5" d="M-1.1 149.6l4.9-27.7 170.8 30-5 27.8z"/><path fill="#b39985" fill-opacity=".5" d="M291.3 55.8l110.1 13.5-.5 4.6-110.1-13.5z"/><path fill="#000007" fill-opacity=".5" d="M169.9 69.6l-1.2-1.1 22.4-24 1.1 1z"/><path fill="#debea9" fill-opacity=".5" d="M98 94.6l26.6-28.5 10.3 9.6-26.7 28.5z"/><path fill="#b4c2d0" fill-opacity=".5" d="M249.9 131.4l-12.5 50-7.6-1.9 12.5-50z"/><path fill="#d8e8ff" fill-opacity=".5" d="M119-15.4l-2.2 43.7-96.8-5 2.3-43.8z"/><path fill="#150807" fill-opacity=".5" d="M285 85.5l1.6 10.8-29.4 4.2-1.6-10.9z"/><path fill="#8ca2bc" fill-opacity=".5" d="M180.2 172.8l-16.8 3.9-4.5-19.8 16.7-3.9z"/><path fill="#8f8e91" fill-opacity=".5" d="M142.4 17.5l46.3 7.3-1.4 9.3-46.3-7.4z"/><path fill="#c1a78f" fill-opacity=".5" d="M321.6 86.1l.5-9.4 23.4 1.3-.4 9.3z"/><path fill="#d0dffa" fill-opacity=".5" d="M26.8 35L.3 33.6l2.5-48.3 26.6 1.4z"/><path fill="#424524" fill-opacity=".5" d="M229.3 24.6l36 15.3-2.4 5.8-36-15.3z"/><path fill="#c7977b" fill-opacity=".5" d="M353.6 185.2l87.4-17 3.9 20-87.5 17z"/><path fill="#00000d" fill-opacity=".5" d="M185.4 41l8 13.3-5.3 3.2-8-13.4z"/><path fill="#71788d" fill-opacity=".5" d="M192 48.6l17-7.6 31.9 71.3-17.2 7.7z"/><path fill="#1c2e17" fill-opacity=".5" d="M293 35.6L337.4 21l2.4 7.4L295.3 43z"/><path fill="#615e56" fill-opacity=".5" d="M392.3-12.3l5.5 45-76 9.3-5.5-45z"/><path fill="#2b3940" fill-opacity=".5" d="M115 12.9l7.3 19-1.4.5-7.3-19z"/><path fill="#2e0f00" fill-opacity=".5" d="M199.8 140.5l-6.2-4.8 14.4-18.4 6.2 4.8z"/><path fill="#aebed0" fill-opacity=".5" d="M254.2 45.7l8 35-27.3 6.4-8.1-35z"/><path fill="#183048" fill-opacity=".5" d="M162.7 217l17-68.3 6 1.5-17 68.3z"/><path fill="#b2989a" fill-opacity=".5" d="M387.4 54.3l4.5-8.2 19.2 10.6-4.6 8.2z"/><path fill="#977567" fill-opacity=".5" d="M251.5 214.8l-3-84.4 86-3 2.9 84.4z"/><path fill="#efecea" fill-opacity=".5" d="M140.6 31.7l23 63.1-8.9 3.2-23-63.1z"/><path fill="#1f4300" fill-opacity=".5" d="M326 62l4.5 13.2-23.6 8.2-4.6-13.3z"/><path fill="#f9ffff" fill-opacity=".5" d="M200.5 19.5l1.3 1-16.4 21-1.2-1z"/><path fill="#1d2412" fill-opacity=".5" d="M344.4 40.6l3 7.3-24.7 10-2.9-7.3z"/><path fill="#c3a295" fill-opacity=".5" d="M292.5 75.3l-5.4-5.7 15.7-15.2 5.4 5.7z"/><path fill="#55543b" fill-opacity=".5" d="M223.5 28.8L274 18.1l1 4.6-50.4 10.7z"/><path fill="#c4a18e" fill-opacity=".5" d="M270.3 97.6l15 4.6-19.7 64.2-15-4.5z"/><path fill="#edf8ff" fill-opacity=".5" d="M234.1 16.3l98.6-39.8 3.5 8.7L237.7 25z"/><path fill="#6b402d" fill-opacity=".5" d="M209.4 162.5l20.1-2.9 3.3 23.2-20.1 2.9z"/><path fill="#a3c4b5" fill-opacity=".5" d="M249 60l34.4-10.5.4 1.5-34.3 10.5z"/><path fill="#987869" fill-opacity=".5" d="M18.2 111.6L41.3 82l70.2 54.9-23.1 29.5z"/><path fill="#c8a99e" fill-opacity=".5" d="M192 159.8l-5.7-35.5 7.7-1.3 5.6 35.5z"/><path fill="#122518" fill-opacity=".5" d="M261.7 62.5l16-6.2 9 23.4-16 6.1z"/><path fill="#50392b" fill-opacity=".5" d="M30.3 108.9l-35 26.3L-13 124l35-26.4z"/><path fill="#bc9c8a" fill-opacity=".5" d="M269.7 41.3l-.7-1.5 56.6-26.4.7 1.4z"/><path fill="#e8f1ff" fill-opacity=".5" d="M189.5.4L185.6 25 74.6 7.5l3.8-24.7z"/><path fill="#6d695c" fill-opacity=".5" d="M97.3 69.1l-45.2-2.3 2.1-40.6 45.3 2.4z"/><path fill="#47566e" fill-opacity=".5" d="M168.8 70.7l9-6 23.7 34.9-9 6.1z"/><path fill="#c9b1a6" fill-opacity=".5" d="M102.4 93.7L151 133l-5 6.1-48.5-39.3z"/><path fill="#293120" fill-opacity=".5" d="M391.3 48.2l.3 17.2-31.3.5-.3-17.2z"/><path fill="#b28e8a" fill-opacity=".5" d="M321.1 64.6l-.9-4.6 38.4-7.4.9 4.6z"/><path fill="#4d553d" fill-opacity=".5" d="M264.5 25.3l-.8-10.9 54.6-3.8.8 11z"/><path fill="#fff" fill-opacity=".5" d="M200 16.3l10-7.7L223.3 26l-9.9 7.7z"/><path fill="#736f6f" fill-opacity=".5" d="M259.6 81.6l-29 62.3-4.3-2 29-62.3z"/><path fill="#6f3e35" fill-opacity=".5" d="M207.6 53.8L189 55.5l-1.2-14 18.7-1.7z"/><path fill="#6f7685" fill-opacity=".5" d="M140.5 123.2l-22-30.3 11.3-8.3 22 30.3z"/><path fill="#3a4855" fill-opacity=".5" d="M155.4 235.3l-3-84.3 9.4-.4 3 84.4z"/><path fill="#89a0be" fill-opacity=".5" d="M223.8 46.6l8.3 26.9-41.9 12.7-8.2-26.8z"/><path fill="#624335" fill-opacity=".5" d="M383 149l13.6-3.4 6.4 25.7-13.6 3.4z"/><path fill="#c4a492" fill-opacity=".5" d="M437.2 122.4l-164-5.7.5-12.5 164 5.7z"/><path fill="#060005" fill-opacity=".5" d="M123.4 45.1l15.4 19.7-1.3 1-15.3-19.7z"/><path fill="#ecf5fc" fill-opacity=".5" d="M118.2 27.3l-5.4 3.2L95.9 2.4l5.4-3.2z"/><path fill="#e0e1e5" fill-opacity=".5" d="M180.7 45.2l-24.3 43.7-13.6-7.5L167 37.6z"/><path fill="#2c3b39" fill-opacity=".5" d="M350.8 14.2L327 7l5-16.4 24 7.3z"/><path fill="#cba188" fill-opacity=".5" d="M275.5 26.6l.4 4.7-34.2 3-.4-4.7z"/><path fill="#2a313e" fill-opacity=".5" d="M117.3 16l12.1 22-1.4.8-12-22z"/><path fill="#3f4b3a" fill-opacity=".5" d="M3.2 60.4l5.3-11.3 83.6 39-5.3 11.3z"/><path fill="#b6adb7" fill-opacity=".5" d="M103.3 50.8l.8-1.3L123.2 60l-.7 1.4z"/><path fill="#c0b5b3" fill-opacity=".5" d="M104.4 42l-.3-1.6 27.5-5.8.3 1.5z"/><path fill="#262729" fill-opacity=".5" d="M175.4 129.3l-8.6-6.7 12.5-16 8.6 6.7z"/><path fill="#d1e9f8" fill-opacity=".5" d="M213 34.2l.3 1.6-24.8 3.4-.2-1.5z"/><path fill="#896756" fill-opacity=".5" d="M72.5 182.7l-9.5-49 59.8-11.7 9.5 49z"/><path fill="#b4bfc6" fill-opacity=".5" d="M230.9 70l10.4-3.1 17 55.2-10.5 3.2z"/><path fill="#be9f92" fill-opacity=".5" d="M82 134.6L80.6 119l23.4-2 1.3 15.5z"/><path fill="#787161" fill-opacity=".5" d="M-20.7 100l15.9-35.6 27 12-15.8 35.8z"/><path fill="#686257" fill-opacity=".5" d="M28.8 72l-6.5-37 66.1-11.6L95 60.3z"/><path fill="#3b4d42" fill-opacity=".5" d="M107.8 24.4l2.7 9-10.5 3.2-2.7-9z"/><path fill="#a97158" fill-opacity=".5" d="M180.6 154.4l45.5-11.4 4.2 16.7-45.5 11.3z"/><path fill-opacity=".5" d="M173.2 188.6l-5.3-3.3 4.2-6.7 5.3 3.3z"/><path fill="#2f4d6f" fill-opacity=".5" d="M186 155l-13.8-2.4 2.7-15.4 13.8 2.4z"/><path fill="#000008" fill-opacity=".5" d="M157.6 117.2L145 105.4l2.1-2.2 12.6 11.7z"/><path fill="#b79592" fill-opacity=".5" d="M357.6 39.8l-20.2-1.5.3-4.6L358 35z"/><path fill="#415348" fill-opacity=".5" d="M200 32l48.5 1.7-.1 1.5-48.4-1.7z"/><path fill="#1d2519" fill-opacity=".5" d="M259.6 82.5l1-6.1L360.8 94l-1 6.2z"/><path fill="#321615" fill-opacity=".5" d="M132.4 61l-1 1.1-24.8-21.5 1-1.2z"/><path fill="#142d0c" fill-opacity=".5" d="M249.7 42l-.6-1.4 21.5-9.2.6 1.5z"/><path fill="#182219" fill-opacity=".5" d="M408.8 36.3l-.5 9.4-43.7-2.3.5-9.4z"/><path fill="#bfd3e6" fill-opacity=".5" d="M175.4 111.9l-1.5.3-7.2-28.8 1.6-.3z"/><path fill="#2f3d2a" fill-opacity=".5" d="M59.1 67.4l47.2-10.8 5 21.3L64 88.8z"/><path fill="#c0a099" fill-opacity=".5" d="M324.8 7.2l-32 7.4-.4-1.5 32-7.4z"/><path fill="#e1b297" fill-opacity=".5" d="M210.3 147.6l-5-8 17.2-10.7 5 8z"/><path fill="#cad0d4" fill-opacity=".5" d="M142.5 90.8l1.6-.2 2.4 23.3-1.5.2z"/><path fill="#868993" fill-opacity=".5" d="M187.8 168.6l-44.3 9.5-1.6-7.7 44.3-9.4z"/><path fill="#3d1c10" fill-opacity=".5" d="M240.6 122.7H236v-12.5h4.7z"/><path fill="#71543d" fill-opacity=".5" d="M253.2 125.8h1.6l-3.3 46.9-1.6-.2z"/><path fill="#58482e" fill-opacity=".5" d="M-9.6 228.4l-14.2-9.6 35-51.9 14.2 9.7z"/><path fill="#796c69" fill-opacity=".5" d="M47 67l85-43.2.7 1.4-85 43.2z"/><path fill="#353e4b" fill-opacity=".5" d="M212.2 122.2l-7.8-.8 3.7-35.8 7.8.8z"/><path fill="#6d5f65" fill-opacity=".5" d="M139.7 78l4.1 6.6-22.5 14L117 92z"/><path fill="#a98d74" fill-opacity=".5" d="M376.2 65.4l1.3 4.5-24 6.9-1.3-4.5z"/><path fill="#75503e" fill-opacity=".5" d="M82.7 176.2L106 153l44.2 44.2-23.2 23.2z"/><path fill="#142538" fill-opacity=".5" d="M173.2 99l-1.5-.5 13-33.5 1.4.5z"/><path fill="#41472b" fill-opacity=".5" d="M342.9 58.4l-60-10.6.8-4.6 60 10.6z"/><path fill="#ecf2ff" fill-opacity=".5" d="M249.5-25.1l7.9 44.6-58.5 10.3-7.9-44.6z"/><path fill="#3d444d" fill-opacity=".5" d="M196.4 15.3l-8.6 18.5-1.4-.7 8.6-18.4z"/><path fill="#18140e" fill-opacity=".5" d="M159.2 156.5l-4.6-4.3 9.6-10.3 4.6 4.3z"/><path fill="#604e48" fill-opacity=".5" d="M214.6 107.6l23.2 37-4 2.5-23.2-37z"/><path fill="#9db5ce" fill-opacity=".5" d="M212.8 54.6l5.3-19.6 33.2 8.9-5.3 19.6z"/><path fill="#243d33" fill-opacity=".5" d="M17 36l.3 6.3-26.5 1.4-.3-6.3z"/><path fill="#95765d" fill-opacity=".5" d="M102.3 83.8L82.5 112l-5-3.6L97 80.2z"/><path fill="#717f60" fill-opacity=".5" d="M105.4 63.8l.1 4.7-25 .5v-4.7z"/><path fill="#e9f3ff" fill-opacity=".5" d="M117.4-4l22.2-7.6L149.8 18l-22.2 7.6z"/><path fill="#526144" fill-opacity=".5" d="M285.7 71.6l1.2-3 54 20.8-1.2 2.9z"/><path fill="#7f6959" fill-opacity=".5" d="M54.8 146.5l-11.1 34.2-59.4-19.4 11-34.1z"/><path fill="#896a59" fill-opacity=".5" d="M361.3 150l17 33.5-59.9 30.5-17-33.4z"/><path fill="#3b4227" fill-opacity=".5" d="M370.3 88.3h-29.7V82h29.7z"/><path fill="#654a37" fill-opacity=".5" d="M357.3 171.6l-14-1 1-15.6 14 1z"/><path fill="#958c88" fill-opacity=".5" d="M168.6 147l3 .5-10.5 66.4-3-.5z"/><path fill="#31470c" fill-opacity=".5" d="M349.1 79.7l-44.6-7.9 1-6.2 44.7 8z"/><path fill="#140e13" fill-opacity=".5" d="M196.2 56l-15.6.5-.2-4.7 15.6-.5z"/><path fill="#79808c" fill-opacity=".5" d="M127.3 64.8H143v40.7h-15.7z"/><path fill="#c6af97" fill-opacity=".5" d="M345 77.8l.3 1.6L319 83l-.2-1.6z"/><path fill="#8e8987" fill-opacity=".5" d="M154.2 133.7l-7.8-13.5 4-2.4 7.9 13.6z"/><path fill="#e9ebed" fill-opacity=".5" d="M151.3 104l-10-32.8 5.9-1.8 10 32.8z"/><path fill="#646c74" fill-opacity=".5" d="M245.6 80l6.2-.5 1 14-6.2.5z"/><path fill="#a48473" fill-opacity=".5" d="M341.1 183.6l43.1-14 10.6 32.7-43 14z"/><path fill="#99a3af" fill-opacity=".5" d="M180.9 45l-15 31-1.5-.7 15-31z"/><path fill="#061412" fill-opacity=".5" d="M108.3 53.4l3 3.7-8.7 6.7-2.9-3.7z"/><path fill="#1a190f" fill-opacity=".5" d="M376.4 24l-14-1 .3-4.7 14 1z"/><path fill="#324733" fill-opacity=".5" d="M255.5 29.1l-1.6-2.6 26.5-16.6 1.6 2.7z"/><path fill="#dad1c6" fill-opacity=".5" d="M384.4 52.3l29.7 1.6-.1 1.6-29.6-1.6z"/><path fill="#a4b2c4" fill-opacity=".5" d="M240.6 57H261v15.7h-20.3z"/><path fill="#7b879b" fill-opacity=".5" d="M191.7 86.4l7.7 1.3-8.3 52.4-7.7-1.2z"/><path fill="#181010" fill-opacity=".5" d="M168.1 109l1.1 9.3-20.1 2.4-1.2-9.3z"/><path fill="#3d513e" fill-opacity=".5" d="M408 5.6l-.4 7.8-35.9-1.8.4-7.8z"/><path fill="#33221a" fill-opacity=".5" d="M50 197.3l13.4-13L79.7 201l-13.5 13z"/><path fill="#f1f6fc" fill-opacity=".5" d="M255.3 2.4l-66.2 35.2-2.2-4.1L253-1.7z"/><path fill="#c7b3bf" fill-opacity=".5" d="M311.1-2.7l-16.5 14.4-1-1.2L310-4z"/><path fill="#be9d9d" fill-opacity=".5" d="M316.8 42.9l-.7-4.6 9.3-1.5.7 4.6z"/><path fill="#887b6e" fill-opacity=".5" d="M231.4 29.6l12.1-7.2 1.6 2.7-12 7.2z"/><path fill="#2b1b14" fill-opacity=".5" d="M150.7 175.4l1.5-.3 5 23-1.6.2z"/><path fill="#bdbab7" fill-opacity=".5" d="M127 36.8l8.6-16.7L162 33.5l-8.5 16.7z"/><path fill="#6d544e" fill-opacity=".5" d="M300 97l167.2 2.9v1.6l-167.2-3z"/><path fill="#c6a694" fill-opacity=".5" d="M423 170.8l1.6 4.3-55.4 21.3-1.7-4.4z"/><path fill="#113626" fill-opacity=".5" d="M260.9 58.4l-5-8 6.6-4.1 5 8z"/><path fill="#879895" fill-opacity=".5" d="M255 71.8l-.3-1.5 17-3 .2 1.5z"/><path fill="#80523c" fill-opacity=".5" d="M230 150.8l-2.2 29.6L206 179l2-29.6z"/><path fill="#7c5f55" fill-opacity=".5" d="M274.5 184.6l-21.2 40-26.3-14 21.3-40z"/><path fill="#aaa6ab" fill-opacity=".5" d="M230.7 166.3l5.9-41.7 9.3 1.3-6 41.7z"/><path fill="#d0dce9" fill-opacity=".5" d="M60.5 22L10.9 36.4 3.6 10.7 53.2-3.5z"/><path fill="#81816b" fill-opacity=".5" d="M401.3 32.9l-.3 1.5-53.8-9.5.2-1.5z"/><path fill="#0a0e0a" fill-opacity=".5" d="M362.7 96.2l-.3-4.7 70.2-4.9.3 4.7z"/><path fill="#1c2c12" fill-opacity=".5" d="M306.1 26.6l11.4 8.3-6.4 8.8-11.4-8.3z"/><path fill="#a78978" fill-opacity=".5" d="M191.4 179l25.8 14.9-4 6.7-25.7-14.8z"/><path fill="#907a75" fill-opacity=".5" d="M357 77.5l-6.2-.4 3-43.7 6.3.5z"/><path fill="#394b25" fill-opacity=".5" d="M308 92l-8.6-23.5 16.1-5.8 8.6 23.5z"/><path fill="#d1d3d3" fill-opacity=".5" d="M140.3 56.7l-9.3-1 2.1-20.2 9.3 1z"/><path fill="#d3b2a8" fill-opacity=".5" d="M91.2 95.2l19-7 3.3 8.8-19.1 7z"/><path fill="#252d3b" fill-opacity=".5" d="M129.8 27l-3.2 5.4-8-4.8 3.2-5.3z"/><path fill="#c3957c" fill-opacity=".5" d="M192.3 159.7l5-6 12 10-5 6z"/><path fill="#17271e" fill-opacity=".5" d="M93 35.5l-.2 1.5-15.5-2.2.2-1.5z"/><path fill="#4f5045" fill-opacity=".5" d="M57.2 39.5L37 37l1.1-9.3 20.2 2.5z"/><path fill="#a1afc3" fill-opacity=".5" d="M165.6 104.7h-14v-11h14z"/><path fill="#50606f" fill-opacity=".5" d="M142.7 144.4l5.6-2.8 13.7 28.1-5.6 2.7z"/><path fill="#837265" fill-opacity=".5" d="M98.5 52.7l-.3 4.7L21.8 52l.3-4.7z"/><path fill="#80685f" fill-opacity=".5" d="M120 101.5l.3 1.6-20 3.2-.3-1.6z"/><path fill="#808163" fill-opacity=".5" d="M253.2 46l42-4.5v1.6l-41.9 4.4z"/><path fill="#96826e" fill-opacity=".5" d="M348.9 149.8l-.8-15.6 82.7-4.3.8 15.6z"/><path fill="#879eaf" fill-opacity=".5" d="M267 61.4l-42.5-19.8.7-1.4L267.7 60z"/><path fill="#35372e" fill-opacity=".5" d="M79.6 45.8l.1 1.6-29.6 2L50 48z"/><path fill="#dbe9f7" fill-opacity=".5" d="M306.4-9.5l1.8 2.6-25.6 18-1.8-2.6z"/><path fill="#645f65" fill-opacity=".5" d="M200.3 107.7l1 1.3-40.7 31.7-1-1.2z"/><path fill="#0a1909" fill-opacity=".5" d="M396 64.3v1.6l-34.3-3.6.2-1.6z"/><path fill="#3e4b3d" fill-opacity=".5" d="M37.8 82l-11.6-7.9 15.7-23.3 11.6 7.9z"/><path fill="#a78a87" fill-opacity=".5" d="M290.7 56.7l64 2.2v1.6l-64-2.2z"/><path fill="#2c3440" fill-opacity=".5" d="M171.6 127.2l13-56.3 1.6.3-13 56.4z"/><path fill="#ae9591" fill-opacity=".5" d="M85.6 38.5l.7-1.4 26.5 13.5-.7 1.4z"/><path fill="#c7c9c6" fill-opacity=".5" d="M172.1 108.7l1.4.8-3.5 5.3-1.3-.9z"/><path fill="#7c6558" fill-opacity=".5" d="M17.9 126.2l1.7-32.8 14 .7L32 127z"/><path fill="#11181f" fill-opacity=".5" d="M258 87.4l6-14.5 1.4.6-5.9 14.5z"/><path fill="#977a6d" fill-opacity=".5" d="M258 197l-15-41 38.1-14 15 41.1z"/><path fill="#b9a28d" fill-opacity=".5" d="M399.2 69.9l-65.6-2.3V66l65.6 2.3z"/><path fill="#808f68" fill-opacity=".5" d="M112.6 68.8l21-6 2.2 7.5-21 6z"/><path fill="#62473d" fill-opacity=".5" d="M101.7 172.2l1.1 15.6-59.2 4.1-1.1-15.6z"/><path fill="#866d64" fill-opacity=".5" d="M69.4 107l-7.7-7.7 11-11 7.8 7.7z"/><path fill="#c6a58e" fill-opacity=".5" d="M405 90l12.4 9.6-24 30.8-12.4-9.7z"/><path fill="#6e5951" fill-opacity=".5" d="M154.8 118.3l-.3 6.3-14-.8.3-6.2z"/><path fill="#25361a" fill-opacity=".5" d="M315.8 31.7l.8 4.6-34 5.4-.7-4.6z"/><path fill="#6f6b64" fill-opacity=".5" d="M56.8 71.1L46 103.8l-4.4-1.5 10.6-32.7z"/><path fill="#a37c67" fill-opacity=".5" d="M152 192.7l-1.4.7-19.8-40.8 1.4-.6z"/><path fill="#595b62" fill-opacity=".5" d="M195 97.9l7.7-9.9 32 25-7.7 9.9z"/><path fill="#d7b6a1" fill-opacity=".5" d="M252.7 115.4l3.5-12 27 7.7-3.4 12z"/><path fill="#74432d" fill-opacity=".5" d="M407.8 207.2l-18.2-14.7 1-1.3 18.2 14.8z"/><path fill="#c29c8f" fill-opacity=".5" d="M268.1 28.2l-.1-1.6 37.3-3.2.2 1.5z"/><path fill="#f6d7bc" fill-opacity=".5" d="M191.4 141.4h3.1v6.3h-3z"/><path fill="#45362a" fill-opacity=".5" d="M199.4 120l15.6.6-.4 11-15.6-.6z"/><path fill="#bdaca6" fill-opacity=".5" d="M323.7 19l-12-3.8.6-1.5 11.9 3.9z"/><path fill="#4e483a" fill-opacity=".5" d="M-59.4 94.3L61 90v1.6l-120.2 4.1z"/><path fill="#a29b98" fill-opacity=".5" d="M161.2 33.3l-13.8-2.7 2.4-12.3 13.8 2.7z"/><path fill="#85867f" fill-opacity=".5" d="M48 82.3l-.8 25-12.5-.5.9-25z"/><path fill="#917e72" fill-opacity=".5" d="M244.3 106.6l-22.1 22-5.5-5.5 22-22z"/><path fill="#8d99a9" fill-opacity=".5" d="M244.1 99.4l-13.4 8L210.6 74l13.4-8z"/><path fill="#aeb9c3" fill-opacity=".5" d="M246.6 158.1l-7.7-1 6.7-48 7.7 1z"/><path fill="#9c9279" fill-opacity=".5" d="M350 78.4L314.2 81l-.1-1.5 35.8-2.5z"/><path fill="#46312e" fill-opacity=".5" d="M115.2 39.8l.7 4.6-10.8 1.7-.7-4.6z"/><path fill="#344329" fill-opacity=".5" d="M390.8 71l1.2 17-28 2-1.3-17.1z"/><path fill="#87967a" fill-opacity=".5" d="M297.2 73.8l-1.1 1-19.9-22 1.2-1z"/><path fill="#aebacc" fill-opacity=".5" d="M173.2 159.3l-5.8 17.8-1.5-.5 5.8-17.8z"/><path fill="#a6a6a6" fill-opacity=".5" d="M150 153.8l3-34.3 1.6.2-3 34.2z"/><path fill="#707d8f" fill-opacity=".5" d="M168 87.3l8-18.7 4.3 1.9-7.9 18.7z"/><path fill="#a58a7e" fill-opacity=".5" d="M305.8 98l35.7 4.3-5.1 42-35.7-4.5z"/><path fill="#546b84" fill-opacity=".5" d="M179 56.8l-1.6-.4 7.7-33.5 1.6.4z"/><path fill="#382224" fill-opacity=".5" d="M126.3 44.3l3.1 3.5-10.4 9.4-3.1-3.5z"/><path fill="#a5b0ba" fill-opacity=".5" d="M253.8 125.8l-3.2-.4 6.6-62.1 3 .3z"/><path fill="#d5d6df" fill-opacity=".5" d="M373.6-8.7l.6-1.5 50.7 20.5-.6 1.4z"/><path fill="#fffffc" fill-opacity=".5" d="M147.6 92.5l-1.4-20.2 10.9-.8 1.4 20.3z"/><path fill="#c2a387" fill-opacity=".5" d="M277.6 29l15.5 1.4-.4 4.6-15.5-1.3z"/><path fill="#ebf2f3" fill-opacity=".5" d="M100.5 17.3l1.9-2.5L119.8 28l-1.8 2.5z"/><path fill="#bf9179" fill-opacity=".5" d="M126.7 147.2l-3.2-18.5 13.8-2.4 3.3 18.4z"/><path fill="#4a4937" fill-opacity=".5" d="M-11.4 200.4l1.5-10.8 60.4 8.4-1.6 10.9z"/><path fill="#8993a0" fill-opacity=".5" d="M175.8 38l20.6-25.5 1.3 1L177 39z"/><path fill="#9c8278" fill-opacity=".5" d="M33 123.9l48.1-18.5 6.2 16L39.2 140z"/><path fill="#312724" fill-opacity=".5" d="M160.6 139.8l10.1-37.8 1.5.4-10 37.8z"/><path fill="#281f20" fill-opacity=".5" d="M157.6 180.5l1.6.1-2.8 31.1-1.5-.1z"/><path fill="#a68882" fill-opacity=".5" d="M197 56.5l-3.3-16.8 4.6-1 3.3 17z"/><path fill="#4a4642" fill-opacity=".5" d="M136.2 114.9l-1.3.9-7-10.4 1.3-.9z"/><path fill="#e0e9f2" fill-opacity=".5" d="M104.3 0l2.2 25-18.7 1.6-2.1-25z"/><path fill="#998374" fill-opacity=".5" d="M83.8 186l-1.4.6-24-49.1 1.4-.7z"/><path fill="#926f5a" fill-opacity=".5" d="M146 146.7l4.6 32.5-26.3 3.7-4.6-32.5z"/><path fill="#87776e" fill-opacity=".5" d="M95.4 47.5L60 67.2l-3.8-6.9 35.6-19.7z"/><path fill="#65504d" fill-opacity=".5" d="M244.4 113.3l-4.6 19.8-4.5-1 4.5-19.9z"/><path fill="#171a13" fill-opacity=".5" d="M288.6 69.3l-14.5 24-8-4.8 14.5-24z"/><path fill="#505f74" fill-opacity=".5" d="M177.2 176.5l-2.9-1.2 15.7-40.8 2.9 1.1z"/><path fill="#d3dae6" fill-opacity=".5" d="M30 11.5l1 20.2L-9.6 34l-1-20.3z"/><path fill="#98acc4" fill-opacity=".5" d="M260.7 55.9l-9.3 8.4-16.8-18.6 9.3-8.4z"/><path fill="#624c3a" fill-opacity=".5" d="M256 124.5l-2.6 12.2-1.6-.3 2.6-12.2z"/><path fill="#8c8173" fill-opacity=".5" d="M365.6 9.3l.5-1.5 38.6 12.6-.5 1.5z"/><path fill="#cbd5df" fill-opacity=".5" d="M144 135.5l-6.6-12.4 1.4-.8 6.6 12.4z"/><path fill="#b69396" fill-opacity=".5" d="M304.8 12l-.7-1.4L328-1.1l.7 1.4z"/><path fill="#706c59" fill-opacity=".5" d="M281.1 10l6 1.7-10.4 39.2-6-1.6z"/><path fill="#392c21" fill-opacity=".5" d="M16.6 120.2l-1.5.1-2-39h1.5z"/><path fill="#45474c" fill-opacity=".5" d="M185.1 26.3l4.2-2.1 2.1 4.2-4.1 2.1z"/><path fill="#565243" fill-opacity=".5" d="M375.3 44.3l2.1 9.1-16.8 3.9-2-9.2z"/><path fill="#d2ab97" fill-opacity=".5" d="M282.7 32l-10 4.5-.7-1.4 10-4.4z"/><path fill="#191f12" fill-opacity=".5" d="M332.3 46.7l1.7-6 16.5 4.8-1.7 6z"/><path fill="#530f04" fill-opacity=".5" d="M199.2 51.4l-1.4-.7 4.6-9.9 1.4.7z"/><path fill="#817f7a" fill-opacity=".5" d="M13 84L-8 97.8l-3.4-5.2L9.6 79z"/><path fill="#a0746d" fill-opacity=".5" d="M198.2 48l11.5-4.8 3 7.2-11.5 4.9z"/><path fill="#c8ac99" fill-opacity=".5" d="M128.8 110.3l-15.6 13.1-6-7.2 15.5-13z"/><path fill="#9a8376" fill-opacity=".5" d="M226.2 183.5l9-6.3 9 12.8-9 6.3z"/><path fill="#d8b3a0" fill-opacity=".5" d="M217 133.9l-1.6-2.7 6.6-4.1 1.7 2.6z"/><path fill="#745f4e" fill-opacity=".5" d="M-1.5 191l-6.3-60.6L3 129.3l6.4 60.6z"/><path fill="#221812" fill-opacity=".5" d="M172.8 136.4l2.7 5.6-15.4 7.5-2.8-5.6z"/><path fill="#310b00" fill-opacity=".5" d="M203 139.3l-2.7 1.4-5-9.7 2.8-1.4z"/><path fill="#2b3231" fill-opacity=".5" d="M37.2 90.9l-3 3.7-7.3-5.8 2.9-3.7z"/><path fill="#cacfd4" fill-opacity=".5" d="M144 94.7l1.6-.2 2.6 18.6-1.6.2z"/><path fill="#78665a" fill-opacity=".5" d="M307 23.4l32.6-10.6 2 6-32.8 10.6z"/><path fill="#e9f1fc" fill-opacity=".5" d="M194.1-23.9l19.2 20.6-30.9 28.8-19.1-20.6z"/><path fill="#372829" fill-opacity=".5" d="M166.8 137.3L146 102.5l1.3-.8 21 34.8z"/><path fill="#9e9faa" fill-opacity=".5" d="M184.4 106l2.6-1.7 8.3 13.2-2.6 1.7z"/><path fill="#b57455" fill-opacity=".5" d="M201.6 157.8l-5.5-13 10-4.2 5.6 13z"/><path fill="#a89b96" fill-opacity=".5" d="M90.7 58.4L110 45l1 1.3-19.3 13.4z"/><path fill="#80655a" fill-opacity=".5" d="M105.5 182.4l-38.8-36.2 10.6-11.4 38.9 36.2z"/><path fill="#838a6a" fill-opacity=".5" d="M44.2 174.6l-20-9 2-4.2 19.9 8.9z"/><path fill="#716458" fill-opacity=".5" d="M11.7 57.8l1.6-18.7 17.2 1.5-1.7 18.7z"/><path fill="#debfa5" fill-opacity=".5" d="M114.1 73.3l14 .3v7.8L114 81z"/><path fill="#af8e84" fill-opacity=".5" d="M403.7 56.6l-7.6 17.1-1.4-.6 7.6-17.1z"/><path fill="#43372f" fill-opacity=".5" d="M3.1 118l4.7-6.3 12.5 9.4-4.7 6.3z"/><path fill="#4a464a" fill-opacity=".5" d="M302 11.2l-2.4-4 28.1-16.9 2.4 4z"/><path fill="#97a8ba" fill-opacity=".5" d="M244 83.8l1-14 15.6 1-1 14.1z"/><path fill="#e3eaf4" fill-opacity=".5" d="M230.3 12.3l45.3-17.4 5 13.1-45.2 17.4z"/><path fill="#70645f" fill-opacity=".5" d="M169.5 138l-4-2.5 10.3-15.7 4 2.5z"/><path fill="#777170" fill-opacity=".5" d="M44.6 88.4L66 83.5l.3 1.5L45 90z"/><path fill="#6c4b3c" fill-opacity=".5" d="M43.2 167.9l3.7-7 42.7 22.8-3.6 6.9z"/><path fill="#283c1f" fill-opacity=".5" d="M389.9 33.5l-3-5.5 12.3-6.8 3 5.5z"/><path fill="#937176" fill-opacity=".5" d="M124.1 43.7L111 57l-2.2-2.3L122 41.5z"/><path fill="#896958" fill-opacity=".5" d="M179 227.8l-13.2-4.6 22.3-65 13.3 4.6z"/><path fill="#2b140b" fill-opacity=".5" d="M225 129.5l-1.1-1 15.2-15.8 1 1z"/><path fill="#243522" fill-opacity=".5" d="M87.8 57.4l.4 1.5-15 4-.5-1.5z"/><path fill="#293120" fill-opacity=".5" d="M80.6 90l-11-15.2 13.9-10 11 15z"/><path fill="#b7cae2" fill-opacity=".5" d="M193 57.8l1.6.2-1.7 14-1.6-.3z"/><path fill="#492e23" fill-opacity=".5" d="M228.4 171l-7.5 12-4-2.5 7.5-12z"/><path fill="#a68f88" fill-opacity=".5" d="M76.6 144.2l1.3-.8 15.8 23.3-1.3.9z"/><path fill="#a38e7f" fill-opacity=".5" d="M239 21h11v9.5h-11z"/><path fill="#464336" fill-opacity=".5" d="M479.7 48.4v1.5l-189 3.3v-1.6z"/><path fill="#654c3f" fill-opacity=".5" d="M398 169.5l-16.6 4.4-2.8-10.6 16.6-4.4z"/><path fill="#605a5d" fill-opacity=".5" d="M152 165.5l2.3-45.3 4.7.3-2.4 45.2z"/><path fill="#3c432a" fill-opacity=".5" d="M282.5 21.3L328 10l.4 1.5-45.5 11.3z"/><path fill="#26364a" fill-opacity=".5" d="M180.7 42.8l10.6-2.6 1.5 6-10.6 2.7z"/><path fill="#354912" fill-opacity=".5" d="M315.7 69.3l2-7.5 18.1 4.8-2 7.6z"/><path fill="#47533a" fill-opacity=".5" d="M264.4 40.5l-30.7-6 .3-1.5 30.7 6z"/><path fill="#254425" fill-opacity=".5" d="M291.4 59.3l-.2 1.6-21.7-3 .2-1.6z"/><path fill="#2f2f33" fill-opacity=".5" d="M182.8 33.4l9.8-10 1.1 1-9.7 10.1z"/><path fill="#424831" fill-opacity=".5" d="M281.4 39.6l-.4-1.5 86-23 .4 1.5z"/><path fill="#515647" fill-opacity=".5" d="M300.1 96L316 76.4l1.2 1-15.8 19.4z"/><path fill="#581a00" fill-opacity=".5" d="M122.3 93.8l-1.4-.7L123 89l1.4.7z"/><path fill="#2f4326" fill-opacity=".5" d="M274.6 79.1l52.6 7.4-.2 1.6-52.6-7.4z"/><path fill="#14311b" fill-opacity=".5" d="M-12.3 57.5l.3-1.5 32.1 6.8-.3 1.5z"/><path fill="#714c3b" fill-opacity=".5" d="M9.1 175.7l3.7-26.3 10.9 1.5-3.7 26.3z"/><path fill="#a6c4da" fill-opacity=".5" d="M215 33.6l9.4 14.4-6.6 4.3-9.4-14.4z"/><path fill="#93827e" fill-opacity=".5" d="M109.2 184.6l1.5.6-5.9 16.1-1.4-.5z"/><path fill="#505869" fill-opacity=".5" d="M144.5 89.7l-2.6 1.8-9.8-14 2.5-1.8z"/><path fill="#9e8b81" fill-opacity=".5" d="M40.6 34.8v3.1l-20.2.7-.1-3z"/><path fill="#050503" fill-opacity=".5" d="M334.6 96.8l-21.4-4.6.6-3 21.4 4.5z"/><path fill="#687a96" fill-opacity=".5" d="M206.4 61.8l13.4 35-5.8 2.3-13.5-35z"/><path fill="#a6bcde" fill-opacity=".5" d="M185.4 37.4l1.4.6-1.9 4.3-1.4-.6z"/><path fill="#ba9989" fill-opacity=".5" d="M311.8 111.2L278 130.7l-7-12.2L304.8 99z"/><path fill="#816458" fill-opacity=".5" d="M345.3 171.6l-60-10.6 2.2-12.3 60 10.6z"/><path fill="#1c271a" fill-opacity=".5" d="M379 95.2l6.9-22.4 17.9 5.5-6.9 22.4z"/><path fill="#633820" fill-opacity=".5" d="M142.8 152.5l3.2 10.4-6 1.8-3.2-10.4z"/><path fill="#80736b" fill-opacity=".5" d="M57.7 33l7.5 2-5.7 21-7.5-2z"/><path fill="#ae9589" fill-opacity=".5" d="M148.2 162.6l-15-29.2 1.5-.7 14.9 29.2z"/><path fill="#a49a8d" fill-opacity=".5" d="M118.7 58.6l7.6-1.6.3 1.5-7.6 1.7z"/><path fill="#dae5f2" fill-opacity=".5" d="M60 28.4l-10.9-44 45.5-11.3 11 44z"/><path fill="#708bae" fill-opacity=".5" d="M187.7 60l5.3 13-7.3 3-5.2-13z"/><path fill="#727e73" fill-opacity=".5" d="M15.6 70.6l30.7 21.5-1 1.3L14.8 72z"/><path fill="#635f60" fill-opacity=".5" d="M156.5 188.6l12.5-.6 1.1 21.8-12.5.7z"/><path fill="#2f4432" fill-opacity=".5" d="M49.2 69.7v1.6l-56.2-2v-1.5z"/><path fill="#7c905e" fill-opacity=".5" d="M107 65.5l.9-3 14.9 4.8-1 3z"/><path fill="#45342a" fill-opacity=".5" d="M230.6 138.5l-4.7-.5 1.4-15.5 4.6.4z"/><path fill="#242814" fill-opacity=".5" d="M308 55.7l-.2-1.5 17-2.1.2 1.5z"/><path fill="#8b634d" fill-opacity=".5" d="M221 151.6v42.2h-15.5v-42.2z"/><path fill="#a3aebe" fill-opacity=".5" d="M171.1 100.4l-21.7 2.3-.2-1.6L171 99z"/><path fill="#928284" fill-opacity=".5" d="M379.2-2.4L368.8 9.2 363 4l10.4-11.6z"/><path fill="#5b4336" fill-opacity=".5" d="M258.6 98.2l37.4-2.6.1 1.5-37.4 2.6z"/><path fill="#a5a1aa" fill-opacity=".5" d="M136 103l1.6-.3 9.1 42.8-1.5.3z"/><path fill="#e8f0f8" fill-opacity=".5" d="M232.4-26.4l19.8 39-36.1 18.5-20-39z"/><path fill="#83563e" fill-opacity=".5" d="M125.2 180.5l-4.4 1.6-16.3-42.3 4.4-1.6z"/><path fill="#333735" fill-opacity=".5" d="M32.1 82.6l-.1-3.1 31.2-1.1.1 3z"/><path fill="#897154" fill-opacity=".5" d="M334.8 98.9l9.4-.9.7 7.8-9.4.8z"/><path fill="#e2ecf7" fill-opacity=".5" d="M118.9-5.5l28-1.5 1.4 26.6-28 1.4z"/><path fill="#18120d" fill-opacity=".5" d="M178.3 175.6l1.6 2.6-6.7 4-1.6-2.6z"/><path fill="#737b8e" fill-opacity=".5" d="M178.7 143.5l.4-10.9 12.5.4-.4 11z"/><path fill="#131013" fill-opacity=".5" d="M169.6 103.1l1.2 1-17 22.4-1.2-.9z"/><path fill="#705e5b" fill-opacity=".5" d="M97 109.4l5.6-2.7 2 4.2-5.6 2.7z"/><path fill="#685541" fill-opacity=".5" d="M76 155.3l-3.9 2.4-9.1-14.5 4-2.5z"/><path fill="#576255" fill-opacity=".5" d="M102.6 56.5l-21.8 8.8-.6-1.5L102 55z"/><path fill="#2a301e" fill-opacity=".5" d="M335.4 31.1l-17-3 .9-4.6 17 3z"/><path fill="#4c5569" fill-opacity=".5" d="M131.3 26l-.4 1.5-7.5-2 .3-1.4z"/><path fill="#8c9cb3" fill-opacity=".5" d="M246.9 46.8l8 11.5-12.7 9-8.1-11.5z"/><path fill="#727d6c" fill-opacity=".5" d="M39 70.4l-5.7 2.5-2-4.2 5.8-2.6z"/><path fill="#364a62" fill-opacity=".5" d="M168.8 156.7l13.5-4 .5 1.6-13.6 3.9z"/><path fill="#ab9b7a" fill-opacity=".5" d="M293.8 68.1l-.4-1.5 26.9-8.2.4 1.5z"/><path fill="#d9c1ad" fill-opacity=".5" d="M261 142l-6.3-35.3 1.5-.3 6.3 35.4z"/><path fill="#7c7272" fill-opacity=".5" d="M357.8 20.7l-.4 1.5-16.7-3.8.3-1.6z"/><path fill="#92796c" fill-opacity=".5" d="M271.4 155.3l-1.5-10.9 75.8-10.6 1.6 10.8z"/><path fill="#3e412c" fill-opacity=".5" d="M346.3 94l-2.9-12 24.4-5.6 2.8 12.1z"/><path fill="#0d1a12" fill-opacity=".5" d="M109.7 62.5l-13.7 3-1-4.6 13.7-3z"/><path fill="#404330" fill-opacity=".5" d="M269.5 21.1v1.6l-28 1.5-.1-1.6z"/><path fill="#afc9dc" fill-opacity=".5" d="M255.8 50.4l-.8 1.3-25-16.2 1-1.3z"/><path fill="#3a512e" fill-opacity=".5" d="M128.4 59.4l1.5.5-3.6 10.4-1.5-.5z"/><path fill="#b48f73" fill-opacity=".5" d="M157.5 164l13.6-15 1.1 1-13.6 15.1z"/><path fill="#ad978c" fill-opacity=".5" d="M188.9 152.7l-2.8 12.2-1.5-.4 2.8-12.2z"/><path fill="#a48378" fill-opacity=".5" d="M351.5 106.3l-95.3-3.3.2-4.7 95.2 3.4z"/><path fill="#222b31" fill-opacity=".5" d="M127.2 31.3l-1.2 1L115 17l1.2-1z"/><path fill="#8e7e74" fill-opacity=".5" d="M357 59v4.8l-34.3.6v-4.7z"/><path fill="#8299b5" fill-opacity=".5" d="M206.6 53l14-1.2 2.5 28-14 1.2z"/><path fill="#7f7768" fill-opacity=".5" d="M373.4 30.2L402 1.5l1.1 1.1-28.7 28.7z"/><path fill="#8d7969" fill-opacity=".5" d="M30.1 195.3l-1.2-1 20.7-25.5 1.2 1z"/><path fill="#8da384" fill-opacity=".5" d="M291.1 56.4L269.5 53l.3-1.6 21.6 3.4z"/><path fill="#afafb4" fill-opacity=".5" d="M130.7 69.1l12.3 2.4-.3 1.6-12.3-2.4z"/><path fill="#96877d" fill-opacity=".5" d="M14.3 44l.4 1.6-21.2 5.6-.4-1.5z"/><path fill="#585d6d" fill-opacity=".5" d="M200.3 117.2l-3.7-26.3 1.5-.3 3.7 26.3z"/><path fill="#3c4b29" fill-opacity=".5" d="M99.4 70.4l3-5.4 12.3 6.8-3 5.4z"/><path fill="#cdd5dc" fill-opacity=".5" d="M171.6 92.2l-4.6 1-5.8-27.6 4.6-1z"/><path fill="#735d52" fill-opacity=".5" d="M140.6 119.8l17.2-.6v3.2l-17.1.6z"/><path fill="#79584d" fill-opacity=".5" d="M348.9 191.4l4.2 10.1-12.9 5.5-4.3-10z"/><path fill="#a5c2d5" fill-opacity=".5" d="M220.8 42.8l2.3-10.7 7.6 1.6-2.2 10.7z"/><path fill="#6c6e67" fill-opacity=".5" d="M122.2 35l-.4 1.5L79.4 26l.3-1.5z"/><path fill="#252526" fill-opacity=".5" d="M102 40.4l-3.5-3 1-1.2 3.6 3z"/><path fill="#484c3a" fill-opacity=".5" d="M280.3 9.8l29 11.7-.6 1.5-29-11.7z"/><path fill="#bdb5b4" fill-opacity=".5" d="M116 35.6l-14 9.8-.9-1.3 14-9.8z"/><path fill="#c79a8b" fill-opacity=".5" d="M279.6 32.6l.2-7.8 11 .4-.3 7.8z"/><path fill="#263447" fill-opacity=".5" d="M174.7 77.8l7.8.8-2.5 23.3-7.8-.8z"/><path fill="#ad9282" fill-opacity=".5" d="M369.4 172.8l2.5-4 32.1 19.3-2.4 4z"/><path fill="#9f876f" fill-opacity=".5" d="M91.4 126l35.6-5 2 14-35.7 5z"/><path fill="#647571" fill-opacity=".5" d="M254.9 22.6l-.8-1.4 20.7-11 .8 1.4z"/><path fill="#a8988b" fill-opacity=".5" d="M82.1 33.3l-9.4.5-.1-3 9.3-.6z"/><path fill="#5d693d" fill-opacity=".5" d="M92.5 86.6l-18.2-4.5.4-1.5L92.9 85z"/><path fill="#3b3a39" fill-opacity=".5" d="M260.8 52L252 41.1l1.2-1 8.9 11z"/><path fill="#79776a" fill-opacity=".5" d="M349.7 27.8l-.4 1.5-34.9-8.7.4-1.5z"/><path fill="#babcbd" fill-opacity=".5" d="M99.6 41.8l3-.6 2.5 12.3-3.1.6z"/><path fill="#78594e" fill-opacity=".5" d="M257.8 221.6l-15.6.5-1.6-45.3 15.6-.5z"/><path fill="#c7b7b4" fill-opacity=".5" d="M114 98.3l-10.4 7-3.5-5.2 10.4-7z"/><path fill="#735847" fill-opacity=".5" d="M313.7 180.4l1.8 6-12 3.5-1.8-6z"/><path fill="#937e65" fill-opacity=".5" d="M120.1 69.4l1.1 1.1-21 21-1-1z"/><path fill="#393c46" fill-opacity=".5" d="M220.8 105.9l-6.9 14-11.2-5.5 6.8-14z"/><path fill="#241b18" fill-opacity=".5" d="M157.7 152.2l-1.6-.4 6.5-30.5 1.6.3z"/><path fill="#bfc3c6" fill-opacity=".5" d="M164.2 58.4l1.3-37.5 12.5.4-1.3 37.5z"/><path fill="#97908e" fill-opacity=".5" d="M161.7 37.5l-6.1 1.3-3.2-15.3 6-1.3z"/><path fill="#6d7560" fill-opacity=".5" d="M-15 66.8L16.2 63l.4 3-31 3.9z"/><path fill="#4c4a44" fill-opacity=".5" d="M314.3 1.7l.5-1.5 44.3 15.3-.5 1.5z"/><path fill="#a2968d" fill-opacity=".5" d="M42.8 109.9l-1 1.2L24.5 98l1-1.2z"/><path fill="#72564c" fill-opacity=".5" d="M68.8 181.5L95.1 157l6.4 6.8-26.3 24.5z"/><path fill="#967263" fill-opacity=".5" d="M394.9 199.2l-16.6 4.4-2.9-10.6 16.6-4.4z"/><path fill="#0a110b" fill-opacity=".5" d="M298.5 93.1l-.3 3.1-32.6-3.4.3-3.1z"/><path fill="#5f525b" fill-opacity=".5" d="M269 83.2l-7.2 8.1-1.2-1 7.3-8.2z"/><path fill="#3d4668" fill-opacity=".5" d="M162.9 104l-1 4.5-7.6-1.5 1-4.6z"/><path fill="#bdccdc" fill-opacity=".5" d="M230.4 65.8l3.8-2.7 12 16.4-3.8 2.8z"/><path fill="#554a40" fill-opacity=".5" d="M403.4 88.3l-7.1 10.2-1.3-.9 7.2-10.2z"/><path fill="#59565a" fill-opacity=".5" d="M157.6 158.4l1.5-.3 9.9 50.7-1.6.3z"/><path fill="#a9847a" fill-opacity=".5" d="M110.4 93.2l-.5-1.4 21.9-8.4.5 1.4z"/><path fill="#6f6957" fill-opacity=".5" d="M11.1 187l9-2.6 7.8 27-9 2.6z"/><path fill="#c99d87" fill-opacity=".5" d="M223.5 147.6l-20.3-8.2 3-7.3 20.2 8.2z"/><path fill="#b59d9e" fill-opacity=".5" d="M332.5 12l4.2-4.7 1.1 1-4.2 4.7z"/><path fill="#5e5b47" fill-opacity=".5" d="M346 56.9l-47.6-15.5 1-3L346.9 54z"/><path fill="#646e62" fill-opacity=".5" d="M61.5 73l.2 1.6-27.9 4-.2-1.6z"/><path fill="#353725" fill-opacity=".5" d="M306.2 43.4l38.4-24 .8 1.3-38.4 24z"/><path fill="#684631" fill-opacity=".5" d="M130.8 178.3l7-3.3 8 17-7.1 3.3z"/><path fill="#363839" fill-opacity=".5" d="M378.3 30.8l4.3 10.1-18.7 8-4.3-10.1z"/><path fill="#889e79" fill-opacity=".5" d="M279 50.4l-10.5 9.4-2.1-2.4 10.4-9.4z"/><path fill="#0a180c" fill-opacity=".5" d="M42.3 72.4l6.8-4 .8 1.4-6.8 4z"/><path fill="#d2cfcb" fill-opacity=".5" d="M136.7 58.4l28.4-22 2.8 3.6-28.3 22.1z"/><path fill="#746d44" fill-opacity=".5" d="M356.8 75.1l-.5 1.5-20.9-6.4.5-1.5z"/><path fill="#7a5c4a" fill-opacity=".5" d="M123.1 174.2l.7 1.4-54.7 26.7-.7-1.4z"/><path fill="#a99a97" fill-opacity=".5" d="M238 141.8l-1.5.3-4.2-19.8 1.5-.4z"/><path fill="#805f52" fill-opacity=".5" d="M365 156.7l-.2-11 46.8-.8.2 11z"/><path fill="#f2f4f7" fill-opacity=".5" d="M194.7 20.6l50.7-9.8 2 10.7-50.6 9.9z"/><path fill="#605945" fill-opacity=".5" d="M364 85l.2 6.2-14 .4-.3-6.2z"/><path fill="#586277" fill-opacity=".5" d="M179.5 178.8l-5.8-27.5 1.5-.4 5.8 27.5z"/><path fill="#7f6b57" fill-opacity=".5" d="M267.2 34.4l29-15.4.7 1.3-29 15.4z"/><path fill="#2a3220" fill-opacity=".5" d="M394.1 57.1l.6 4.7-37.2 4.5-.6-4.6z"/><path fill="#422c22" fill-opacity=".5" d="M88.8 217l-5.5 3-20.5-38.6 5.5-3z"/><path fill="#3c2e2a" fill-opacity=".5" d="M67.2 91.1L47 93.2l-.2-1.5 20.3-2.1z"/><path fill="#aa9187" fill-opacity=".5" d="M82.4 141.2l-1.5-.2 7-40 1.6.2z"/><path fill="#313e32" fill-opacity=".5" d="M218 32.9l18.4-3.3.3 1.6-18.5 3.2z"/><path fill="#331612" fill-opacity=".5" d="M196.3 54.5l-7.3-2.8.6-1.5 7.3 2.8z"/><path fill="#5e5d76" fill-opacity=".5" d="M157 103.1l-4.8 11.6-1.5-.7 5-11.5z"/><path fill="#936f65" fill-opacity=".5" d="M395 167l1.4-.8 7 12.2-1.3.7z"/><path fill="#383639" fill-opacity=".5" d="M179.6 120.8l-6.1 29-1.6-.3 6.2-29z"/><path fill="#7e6861" fill-opacity=".5" d="M51 110.8l12.2-2.6 3 13.8-12.3 2.6z"/><path fill="#3a5038" fill-opacity=".5" d="M268.1 75.4l-7.2-6 10-12 7.2 6z"/><path fill="#644d2e" fill-opacity=".5" d="M92 88.2l1.4.7-2.6 5.7-1.4-.7z"/><path fill="#575f6f" fill-opacity=".5" d="M211.9 98.2l6.3-4.5 9 12.8-6.4 4.5z"/><path fill="#927d75" fill-opacity=".5" d="M308.3 171.5l15.1-11 7.4 10.1-15.2 11z"/><path fill="#3b4634" fill-opacity=".5" d="M71.3 49.6l-4.8-14.9 4.4-1.4L75.7 48z"/><path fill="#656d5d" fill-opacity=".5" d="M228.3 31.4l-1-1.2 8.5-6.9 1 1.2z"/><path fill="#19240d" fill-opacity=".5" d="M412.5 47.5L384.7 43l1.2-7.8 27.8 4.4z"/><path fill="#c9ac99" fill-opacity=".5" d="M123.6 106.2l1.5-.4 9.1 36.4-1.5.4z"/><path fill="#a37b6a" fill-opacity=".5" d="M134.4 139l-6.8 20.7-10.4-3.3 6.8-20.8z"/><path fill="#6e6163" fill-opacity=".5" d="M356 54l-9.7-12.3L355 35l9.6 12.3z"/><path fill="#3c3b3b" fill-opacity=".5" d="M161.7 121v-3h25v3z"/><path fill="#6d625a" fill-opacity=".5" d="M35.5 40.9L38.2 27l12.2 2.3-2.6 13.9z"/><path fill="#9e8576" fill-opacity=".5" d="M356.8 154l-13.1-8.5 23-35.4 13 8.5z"/><path fill="#a7a3a2" fill-opacity=".5" d="M129.7 38.4l-14.1-.2V35l14.1.3z"/><path fill="#e3edf3" fill-opacity=".5" d="M110.2 27.4L96.8 16.6l4-5 13.3 11z"/><path fill="#8e8580" fill-opacity=".5" d="M379.4 27.5l.5 1.5-32.7 10.6-.5-1.4z"/><path fill="#896c60" fill-opacity=".5" d="M287.5 197.7l-33.6 7.1-5.5-26 33.6-7z"/><path fill="#e4e0dc" fill-opacity=".5" d="M170.5 53.7l-14 .4-.4-9.3 14-.5z"/><path fill="#393c40" fill-opacity=".5" d="M119 27.3l1.4-.6 12.2 28.8-1.4.6z"/><path fill="#9c8174" fill-opacity=".5" d="M351.1 173.7l4.7 4.2-36.6 40.6-4.7-4.2z"/><path fill="#9a908f" fill-opacity=".5" d="M109.1 28.3l1.5.4-5.6 22.7-1.6-.4z"/><path fill="#384248" fill-opacity=".5" d="M189.3 27.7l6-10.9 1.4.8-6 10.9z"/><path fill="#4d4e36" fill-opacity=".5" d="M330.7 20l-.2-1.6 52.9-5.5.1 1.5z"/><path fill="#354033" fill-opacity=".5" d="M32.9 52.6L16.8 71.8l-1.2-1 16-19.2z"/><path fill="#42241a" fill-opacity=".5" d="M204.8 136l-1.3 2.9-9.9-4.6 1.3-2.9z"/><path fill="#5e6e61" fill-opacity=".5" d="M261.1 18.6l-.2-1.5 23.3-2.9.2 1.6z"/><path fill="#9b8779" fill-opacity=".5" d="M157.3 176.5l-.6 1.4-25-9 .6-1.5z"/><path fill="#ac9284" fill-opacity=".5" d="M281.4 191.7l-1.4.8-22.3-35.8 1.3-.8z"/><path fill="#b89277" fill-opacity=".5" d="M246.3 36.6l-.5-1.5 18.8-7.6.6 1.5z"/><path fill="#6f6b5f" fill-opacity=".5" d="M55 64l-.6 1.5L28 56.3l.5-1.5z"/><path fill="#010000" fill-opacity=".5" d="M166.2 117l-15.4-2.7.2-1.6 15.4 2.7z"/><path fill="#e2eaf9" fill-opacity=".5" d="M232.2 4.8V3.3l74.6-6.6.2 1.6z"/><path fill="#243b20" fill-opacity=".5" d="M257.6 52.7l.5-7.8 11 .8-.6 7.8z"/><path fill="#6c6d72" fill-opacity=".5" d="M248 97.5l2.6-10.6 6.1 1.5-2.6 10.6z"/><path fill="#b69f97" fill-opacity=".5" d="M99.4 102l-2 23.3-7.8-.7 2-23.3z"/><path fill="#403127" fill-opacity=".5" d="M385.2 171.5l.6-1.4 8.7 3.7-.6 1.4z"/><path fill="#765c50" fill-opacity=".5" d="M345 138.7l1.4.5-17.9 55-1.5-.5z"/><path fill="#435143" fill-opacity=".5" d="M107 25.8l1.5 2.7-23.3 12.9-1.5-2.7z"/><path fill="#6f6952" fill-opacity=".5" d="M271.4 47.8l-8.2-4.6 4.5-8.2 8.2 4.6z"/><path fill="#3e5333" fill-opacity=".5" d="M320.2 84.4L275 82.8v-3.1l45.4 1.6z"/><path fill="#26290f" fill-opacity=".5" d="M77.1 83.7l3-1 3.7 10.2-3 1z"/><path fill="#606345" fill-opacity=".5" d="M39.9 170.6L38 182.9l-13.9-2 1.7-12.3z"/><path fill="#918b8e" fill-opacity=".5" d="M237 143.7l13.6-70.5 1.6.3-13.8 70.5z"/><path fill="#95a5b5" fill-opacity=".5" d="M179.6 29.7l1.5.2-2.8 23.2-1.6-.2z"/><path fill="#1b1d0b" fill-opacity=".5" d="M73.4 81l1 1.2-11.8 10.2-1-1.1z"/><path fill="#dab8a6" fill-opacity=".5" d="M290.6 65.8l5.5 3-.7 1.3-5.6-3z"/><path fill="#998179" fill-opacity=".5" d="M47 103.6l-5 48.2-6.2-.7 5-48.2z"/><path fill="#8b6e60" fill-opacity=".5" d="M343.2 166.7l43.8 16.8-.6 1.4-43.7-16.8z"/><path fill="#968b68" fill-opacity=".5" d="M410 151.3l-9.4 5.6-15.3-25.4 9.4-5.6z"/><path fill="#e4edf7" fill-opacity=".5" d="M181-24.1l10.1 26.3L130 25.7 119.8-.6z"/><path fill="#333c34" fill-opacity=".5" d="M372.8 10.2l-.2-1.6L388.2 7l.1 1.6z"/><path fill="#505a3e" fill-opacity=".5" d="M291.7 67.2h-1.5l.9-26.6h1.6z"/><path fill="#96aecd" fill-opacity=".5" d="M188.6 58.3l6.5 10.7-4 2.4-6.5-10.7z"/><path fill="#bca9a3" fill-opacity=".5" d="M245.4 166.4l-2.5 1.9-27.3-36.2 2.5-2z"/><path fill="#c4a195" fill-opacity=".5" d="M194 179.3l5.4 7.7-1.3.9-5.3-7.7z"/><path fill="#d0dcec" fill-opacity=".5" d="M-6.1 33.3L-8-18.2l31.2-1L25 32.3z"/><path fill="#6a6d3d" fill-opacity=".5" d="M332 63.5l-34.1 4.2-.2-1.5 34.1-4.2z"/><path fill="#344723" fill-opacity=".5" d="M294.2 55.1l-16.4-9 1.5-2.8 16.4 9.1z"/><path fill="#88847f" fill-opacity=".5" d="M331.3 89.5l-.7-1.4L339 84l.7 1.4z"/><path fill="#68544b" fill-opacity=".5" d="M292.8 170.8l4.6.6-1.1 9.3-4.7-.6z"/><path fill="#1c1e1b" fill-opacity=".5" d="M323.5 85.2l-5.5 13-8.7-3.7 5.5-13z"/><path fill="#765936" fill-opacity=".5" d="M340.7 106l-5.6-2.8.7-1.4 5.6 2.8z"/><path fill="#28231f" fill-opacity=".5" d="M155.8 145.4l12.2 3-.4 1.5-12.1-3z"/><path fill="#6d5552" fill-opacity=".5" d="M289 55.8v-1.5l48.5.8v1.6z"/><path fill="#0a2915" fill-opacity=".5" d="M27.4 71.6l-.6 1.4-5.8-2.4.6-1.4z"/><path fill="#ba9f92" fill-opacity=".5" d="M260.4 145.5l.5-1.5 17.8 5.8-.5 1.5z"/><path fill="#a99d91" fill-opacity=".5" d="M387.5 56.3v-4.7h11v4.6z"/><path fill="#57553c" fill-opacity=".5" d="M293.9 31l29.1-5.7.3 1.5-29.1 5.7z"/><path fill="#4d3021" fill-opacity=".5" d="M103.8 215.7L84.3 182l4-2.3 19.6 33.8z"/><path fill="#adaca7" fill-opacity=".5" d="M162.8 19.2l13.5 7.8-3.1 5.4-13.6-7.8z"/><path fill="#4d4e41" fill-opacity=".5" d="M369 38.9l-8-18.7 2.9-1.3 8 18.7z"/><path fill="#aa9c91" fill-opacity=".5" d="M197.6 46l.1 3-6.2.4-.2-3.1z"/><path fill="#7989a0" fill-opacity=".5" d="M186.9 121.5l5.3 14.7-8.8 3.2-5.3-14.7z"/><path fill="#2b0e0e" fill-opacity=".5" d="M105.6 43.1l.7-1.4 8.4 4.3-.7 1.4z"/><path fill="#9a989e" fill-opacity=".5" d="M136.5 64.5l-13.7 44.9-1.5-.5L135 64.1z"/><path fill="#846857" fill-opacity=".5" d="M360.3 187.8l-8.3-7.1 17.4-20 8.3 7z"/><path fill="#090805" fill-opacity=".5" d="M176.1 189.6l-4.4 1.6-2.5-7.4 4.4-1.5z"/><path fill="#2d221e" fill-opacity=".5" d="M158 136.5l21.7-28.7 1.3 1-21.7 28.7z"/><path fill="#d5a991" fill-opacity=".5" d="M192.5 157.1l-.6-18.7 4.6-.2.7 18.7z"/><path fill="#60473e" fill-opacity=".5" d="M142.8 65.2l-5 3.7-1-1.3L142 64z"/><path fill="#c0bec1" fill-opacity=".5" d="M161 64.4l-10.8 2.1-3.3-16.9 10.7-2z"/><path fill="#9e847a" fill-opacity=".5" d="M117.8 109.2L98 104.7l1.4-6.1 19.8 4.5z"/><path fill="#434f35" fill-opacity=".5" d="M390 83.2l-.4 1.5-31.2-10.1.5-1.5z"/><path fill="#586053" fill-opacity=".5" d="M21.3 41.2l-32-7.4.4-1.5 32 7.3z"/><path fill="#b39586" fill-opacity=".5" d="M272.8 32.1l-4.6 1.2-1.9-7.6 4.6-1.2z"/><path fill="#9a9ea5" fill-opacity=".5" d="M135.1 39l.1 4.7-6.3.1v-4.7z"/><path fill="#725954" fill-opacity=".5" d="M32.3 128l-1.4 2.8-21-10.3 1.3-2.8z"/><path fill="#876959" fill-opacity=".5" d="M273 152.4l-6.3 8.9-3.8-2.8 6.4-8.8z"/><path fill="#a57f74" fill-opacity=".5" d="M143 196.9l8.8-3 .5 1.4-8.8 3z"/><path fill="#998077" fill-opacity=".5" d="M10.4 162.4l-1.6.1-2-29.6 1.5-.1z"/><path fill="#79846d" fill-opacity=".5" d="M81 63.4l15 4.5-.5 1.5-15-4.5z"/><path fill="#f2f7fa" fill-opacity=".5" d="M130.6 20.4l-.1-1.6 62.4-3.2V17z"/><path fill="#84685b" fill-opacity=".5" d="M66.3 167.4l-5.7 2.5-16-35.7 5.8-2.5z"/><path fill="#9b857c" fill-opacity=".5" d="M244 171.9l-21.7 22.5-2.2-2.2 21.7-22.5z"/><path fill="#9b8a80" fill-opacity=".5" d="M401.4 13.5l2.2 2.2-6.5 6.7-2.3-2.1z"/><path fill="#535b4c" fill-opacity=".5" d="M377.2 51.2l10.2 4-.5 1.4-10.3-4z"/><path fill="#50403a" fill-opacity=".5" d="M311.3 88.7l-.7 9.3-11-.7.7-9.4z"/><path fill="#917c6e" fill-opacity=".5" d="M98.7 51.8l-24.6-10 .6-1.4 24.6 10z"/><path fill="#77808b" fill-opacity=".5" d="M190 22.4l1 4.6-10.8 2.1-.9-4.6z"/><path fill="#cab0a0" fill-opacity=".5" d="M391.4 120.5l-9 2.3-3.5-13.6 9.1-2.3z"/><path fill="#b4becd" fill-opacity=".5" d="M165.2 167.8l3.1.4-.7 6.2-3.1-.4z"/><path fill="#4c523f" fill-opacity=".5" d="M58.8 33.1l-6 11-6.9-3.8 6-11z"/><path fill="#806b54" fill-opacity=".5" d="M78 101.6l17-20.3 3.6 3-17 20.3z"/><path fill="#64553f" fill-opacity=".5" d="M275 23.7V22l26.5-.5v1.6z"/><path fill="#1d3307" fill-opacity=".5" d="M306.3 75.5l29.4-4.1.2 1.5-29.4 4.2z"/><path fill="#be9995" fill-opacity=".5" d="M308.7 10l3.2-7.2 2.8 1.3-3.1 7.1z"/><path fill="#a58c81" fill-opacity=".5" d="M326.8 34.7l-7.1 8.2-1.2-1 7.2-8.3z"/><path fill="#65768d" fill-opacity=".5" d="M137.6 64.6L131 90.4l-1.5-.4 6.4-25.7z"/><path fill="#767069" fill-opacity=".5" d="M300.7 3.3l-27 21.2-1-1.3 27-21.1z"/><path fill="#816158" fill-opacity=".5" d="M54.5 177.7l3.2 10.4-4.4 1.4L50 179z"/><path fill="#7e6157" fill-opacity=".5" d="M85 131.2l4.5-1 5.2 24.5-4.5 1z"/><path fill="#ccc4c1" fill-opacity=".5" d="M148.1 133.4l4-6.7 1.4.8-4 6.7z"/><path fill="#000003" fill-opacity=".5" d="M180.4 58.2l-1.6 4.4-1.4-.5 1.6-4.4z"/><path fill="#141e0a" fill-opacity=".5" d="M381.6 87l-9 6.3-2.6-3.8 9-6.3z"/><path fill="#a8a0a0" fill-opacity=".5" d="M110.4 51l1.2-1 7.7 10-1.2.9z"/><path fill="#505662" fill-opacity=".5" d="M115 12.4l1.3 4.5-1.5.4-1.4-4.5z"/><path fill="#c4ae94" fill-opacity=".5" d="M105.5 94.2l-1.3-1 23.1-29.5 1.3 1z"/><path fill="#19251a" fill-opacity=".5" d="M344.8 88.1l6.2.4-.5 9.3-6.2-.3z"/><path fill="#383f37" fill-opacity=".5" d="M81.3 32.8v-1.5h23.4v1.5z"/><path fill="#585c48" fill-opacity=".5" d="M401.2 16l-8.2 4.3-5.2-9.6 8.3-4.4z"/><path fill="#0c0300" fill-opacity=".5" d="M152.8 187l4.2-4.7 1.2 1.1-4.3 4.6z"/><path fill="#8b7b7d" fill-opacity=".5" d="M354.7-8.7l4.6 18.2-3 .8L351.6-8z"/><path fill="#6a5856" fill-opacity=".5" d="M70.7 101.5l-1 1.2-26.3-24.5 1-1.2z"/><path fill="#414633" fill-opacity=".5" d="M6.3 54.4l13.1-8.5.9 1.3-13.1 8.5z"/><path fill="#967b6b" fill-opacity=".5" d="M342.6 149.3l5.4 43.4-1.6.2-5.3-43.4z"/><path fill="#2f292c" fill-opacity=".5" d="M259.2 96.8l-1.5-.4 3.4-10.4 1.5.4z"/><path fill="#d7d3d5" fill-opacity=".5" d="M101.9 51.6l1.2-2.9L106 50l-1.3 2.8z"/><path fill="#192110" fill-opacity=".5" d="M353.7 82.7l8.4-4.1 1.4 2.8-8.4 4z"/><path fill="#524031" fill-opacity=".5" d="M22.2 108l1-6.1 6.2 1-1 6.1z"/><path fill="#382f16" fill-opacity=".5" d="M10.4 109.7l7.5-15.4 1.4.7-7.5 15.4z"/><path fill="#e6eef7" fill-opacity=".5" d="M252.6 21.3L211.9 1.5l2.7-5.6 40.7 19.8z"/><path fill="#7a849b" fill-opacity=".5" d="M208.1 85.3l-3.9 13.5-4.5-1.3 3.9-13.5z"/><path fill="#483833" fill-opacity=".5" d="M316.2 7l2.8-1.4.7 1.4-2.8 1.4z"/><path fill="#3b5025" fill-opacity=".5" d="M384.6 31l.7-1.4 28.5 12.8-.6 1.4z"/><path fill="#9b8478" fill-opacity=".5" d="M43.9 111.1l1.3-.7 31.3 61.3-1.4.7z"/><path fill="#474950" fill-opacity=".5" d="M182.9 28.8l1.4-.7 3.2 7.2-1.5.6z"/><path fill="#586354" fill-opacity=".5" d="M235.7 23.4l1.5 2.7-15 8.3-1.6-2.7z"/><path fill="#7b7861" fill-opacity=".5" d="M69.8 133.2l-.6 11-15.6-.9.6-10.9z"/><path fill="#5a5f6c" fill-opacity=".5" d="M195 118l-1.4-.7 9.9-21.2 1.4.6z"/><path fill="#5e6171" fill-opacity=".5" d="M130.7 106.6l-3.8-2.8 6.4-8.8 3.8 2.7z"/><path fill="#ab8d87" fill-opacity=".5" d="M347.4 40.5l-2.1-2.3 5.8-5.3 2 2.4z"/><path fill="#63412f" fill-opacity=".5" d="M132.5 157.3l-1.5.6-2.5-7.4 1.4-.5z"/><path fill="#986c58" fill-opacity=".5" d="M219.7 160.1l-5.1-9.7 11-5.8 5.1 9.6z"/><path fill="#928e87" fill-opacity=".5" d="M246.9 24.1l-.1 1.6-20.3-1.4.1-1.6z"/><path fill="#ad9083" fill-opacity=".5" d="M359.6 70.1L347.2 72l-2.1-15.5 12.3-1.7z"/><path fill="#95857c" fill-opacity=".5" d="M94.2 42l2.2-14 1.6.3-2.2 14z"/><path fill="#818588" fill-opacity=".5" d="M247.7 155.4l-3.4 10.4-3-1 3.4-10.3z"/><path fill="#99806d" fill-opacity=".5" d="M395.2 130.2l-40.8 45.3-1.1-1 40.7-45.3z"/><path fill="#724f44" fill-opacity=".5" d="M1.9 109.3L4.4 145l-4.7.3-2.5-35.8z"/><path fill="#7d6c73" fill-opacity=".5" d="M115 55l-13.7-10.3.9-1.3 13.7 10.4z"/><path fill="#d3a999" fill-opacity=".5" d="M88.5 103.8l28.8-24 2 2.3-28.8 24.1z"/><path fill="#a18479" fill-opacity=".5" d="M103.2 142.1l1 1.2-12.1 9.9-1-1.2z"/><path fill="#adadb0" fill-opacity=".5" d="M244.8 93.4l15 4.3-3 10.5-15-4.3z"/><path fill="#a8806e" fill-opacity=".5" d="M205.8 154l1.5.3-8.4 68.2-1.5-.2z"/><path fill="#423634" fill-opacity=".5" d="M148.3 211l12.9-33.5 1.4.5-12.8 33.6z"/><path fill="#6c4c3f" fill-opacity=".5" d="M146.9 188.7l-73.4 3.8V191l73.3-3.9z"/><path fill="#b4c2d8" fill-opacity=".5" d="M232.3 46l1.6.2-2.2 31.2-1.5-.1z"/><path fill="#908480" fill-opacity=".5" d="M335.4 9.3l-8.7 9-1.1-1 8.6-9z"/><path fill="#444334" fill-opacity=".5" d="M42.8 43l1.9 15.4-1.6.2-1.9-15.5z"/><path fill="#2e322a" fill-opacity=".5" d="M73.6 76.3L64.8 73l3.8-10.3 8.8 3.2z"/><path fill="#223c16" fill-opacity=".5" d="M336.4 46l-3.6 3-5.1-5.9 3.5-3z"/><path fill="#aa8c7d" fill-opacity=".5" d="M382.4 200.8h-1.6l.9-46.9h1.5z"/><path fill="#8498b1" fill-opacity=".5" d="M259.6 62l-31-21 .8-1.4 31.1 21z"/><path fill="#502f21" fill-opacity=".5" d="M60.3 178.7l-.5 3.1-15.4-2.7.5-3z"/><path fill="#9c847d" fill-opacity=".5" d="M337.4 216.8L322 179l1.5-.6 15.2 37.7z"/><path fill="#50433c" fill-opacity=".5" d="M111 205.9l-5.8-5.2 7.3-8.2 5.8 5.3z"/><path fill="#384756" fill-opacity=".5" d="M184.6 155.5L173 143l3.4-3.2 11.7 12.5z"/><path fill="#69676a" fill-opacity=".5" d="M152 149.7l-7.9.6-.7-11 7.8-.5z"/><path fill="#a2a5af" fill-opacity=".5" d="M226.6 81.4L242 107l-1.3.8-15.3-25.5z"/><path fill="#563b30" fill-opacity=".5" d="M82.2 179.6l31 3.3v1.5L82 181.2z"/><path fill="#a49083" fill-opacity=".5" d="M323.4 8.7v1.6l-35.9 1.3V10z"/><path fill="#060000" fill-opacity=".5" d="M125 56.1l-.8-1.3 5.5-3.1.7 1.3z"/><path fill="#9f897c" fill-opacity=".5" d="M294.4 198.3l-.8-3 16.6-4.5.8 3z"/><path fill="#67463f" fill-opacity=".5" d="M382.9 172l-1.5.4-6.4-21 1.5-.4z"/><path fill="#3e4234" fill-opacity=".5" d="M340.3 33.2l-.4-1.5 15.1-4 .4 1.5z"/><path fill="#8f8672" fill-opacity=".5" d="M39.8 160.6l.7 1.4-19.3 10.2-.8-1.3z"/><path fill="#be8e77" fill-opacity=".5" d="M190.7 146.4l17.3 18-3.3 3.3-17.4-18z"/><path fill="#f5f6fb" fill-opacity=".5" d="M222.5 16.2l.7 1.4-34.8 17.7-.7-1.3z"/><path fill="#a8b3be" fill-opacity=".5" d="M160.1 99.3l4.2-6.6 5.3 3.3-4.2 6.6z"/><path fill="#41452c" fill-opacity=".5" d="M287 18.8l.4 1.5-35.4 6.2-.3-1.5z"/><path fill="#57565b" fill-opacity=".5" d="M143.8 95.8l-1.5.3-3.3-15.3 1.5-.3z"/><path fill="#672d18" fill-opacity=".5" d="M198.1 138.3h1.6l.6 9.3-1.5.1z"/><path fill="#4f5763" fill-opacity=".5" d="M147.5 157.2l2.5-2 13.4 17.3-2.4 2z"/><path fill="#795d53" fill-opacity=".5" d="M213.5 127.2l12.3-9.6 2.9 3.7-12.3 9.6z"/><path fill="#766f4f" fill-opacity=".5" d="M273.2 43.7l10.2-11.8 1.2 1-10.2 11.8z"/><path fill="#2b2a11" fill-opacity=".5" d="M9.2 111.1l2.4 2-6.7 8.6-2.5-2z"/><path fill="#919fb4" fill-opacity=".5" d="M138.2 95.2l-4.4-10 1.4-.7 4.5 10z"/><path fill="#d1ac97" fill-opacity=".5" d="M286.2 33.2l2.7-9 1.5.5-2.7 9z"/><path fill="#8e7d72" fill-opacity=".5" d="M376.6 100l-57.8 3v-1.5l57.7-3z"/><path fill="#867665" fill-opacity=".5" d="M417.2 65.6v1.6h-57.8v-1.6z"/><path fill="#6d7887" fill-opacity=".5" d="M223.1 89.3l1.5-.6 7 17.4-1.5.5z"/><path fill="#7f8ea6" fill-opacity=".5" d="M225 66l3 28-7.8.9-2.9-28z"/><path fill="#4a392c" fill-opacity=".5" d="M68 180.4l.9 1.3-38.4 27-1-1.4z"/><path fill="#575732" fill-opacity=".5" d="M402.5 76.4l-19.5-6 .5-1.5 19.4 6z"/><path fill="#9a9b90" fill-opacity=".5" d="M345.3 28l-5.4-3 .7-1.4 5.5 3z"/><path fill="#9f8678" fill-opacity=".5" d="M271.6 194.7l-1.1-1 22-24.4 1 1z"/><path fill="#c3c5cb" fill-opacity=".5" d="M246.1 116.7l7.7 1-1.5 11-7.7-1.2z"/><path fill="#443b35" fill-opacity=".5" d="M211.5 117l.5 14-12.5.5-.5-14z"/><path fill="#806b59" fill-opacity=".5" d="M40.8 193.6l-9.3 5.8-8.2-13.3 9.2-5.8z"/><path fill="#47483b" fill-opacity=".5" d="M61.7 42.4l28.8 12.2-.6 1.4L61 43.8z"/><path fill="#e5d2cf" fill-opacity=".5" d="M107.8 98.6l11-.4v1.6l-11 .4z"/><path fill="#382e25" fill-opacity=".5" d="M286.8 93.9l40.5 2.8v1.6l-40.6-2.8z"/><path fill="#c7aa97" fill-opacity=".5" d="M401.4 66.6l.8 1.4-8.3 4.4-.7-1.4z"/><path fill="#b69a8a" fill-opacity=".5" d="M262.8 127.7l1.5.4-9.9 42.6-1.5-.3z"/><path fill="#a9b5ab" fill-opacity=".5" d="M3.2 85.2l-2 4.3-2.8-1.3 2-4.3z"/><path fill="#8c7265" fill-opacity=".5" d="M75.2 171l-.2-1.6 35.7-4.4.2 1.6z"/><path fill="#bea28e" fill-opacity=".5" d="M243.2 32l36.7-7.8.3 1.6-36.7 7.8z"/><path fill="#83827d" fill-opacity=".5" d="M245.7 145l.8-4.6 3 .5-.7 4.6z"/><path fill="#72747f" fill-opacity=".5" d="M163.2 160.8l1 3-16.5 5-1-3z"/><path fill="#24331c" fill-opacity=".5" d="M296.8 29.3l24.3 5.6-.7 3-24.3-5.6z"/><path fill="#6e675c" fill-opacity=".5" d="M59.9 69l-12.2-2.7 6.5-30.5 12.2 2.6z"/><path fill="#e7e4e2" fill-opacity=".5" d="M153 103.8l-1.6-.4 16-55.6 1.5.4z"/><path fill="#7a725e" fill-opacity=".5" d="M348.3 38.6l-51 7.2-.3-1.6 51-7.2z"/><path fill="#030000" fill-opacity=".5" d="M164.9 116.9l-.4 1.5-9-2.5.3-1.5z"/><path fill="#875c47" fill-opacity=".5" d="M188.4 230.6l-3.3-62.4 6.2-.4 3.3 62.5z"/><path fill="#6d6656" fill-opacity=".5" d="M21.9 97.3l45.1-4 .2 1.6-45.2 4z"/><path fill="#7c7f6e" fill-opacity=".5" d="M8.6 55l12.4-.6.1 1.5-12.5.7z"/><path fill="#9f7a69" fill-opacity=".5" d="M126.5 158.7l-2.8 1.3-20.5-42.1 2.8-1.4z"/><path fill="#6f605e" fill-opacity=".5" d="M408.7 51l-2 4.3-17-8 2-4.2z"/><path fill="#745549" fill-opacity=".5" d="M368.1 139l1.6.1-1.9 26.5h-1.5z"/><path fill="#6e574b" fill-opacity=".5" d="M257 99v-1.6l59.4-1v1.5z"/><path fill="#4f5941" fill-opacity=".5" d="M134.1 55.3l-31.4 20.4-.9-1.3L133.3 54z"/><path fill="#c0a598" fill-opacity=".5" d="M233.4 179.7l-1.6-.1 2-23.4 1.6.2z"/><path fill="#1f2d24" fill-opacity=".5" d="M74.3 47.4l-9.2 2-.3-1.5 9.2-2z"/><path fill="#d0d3d6" fill-opacity=".5" d="M254.2 95.4l1.5-.1 1 20.3h-1.5z"/><path fill="#d0cbca" fill-opacity=".5" d="M138.2 127.8l2.8-1.5 3.6 6.9-2.7 1.5z"/><path fill="#e0bba3" fill-opacity=".5" d="M292.7 27.9l-.5-1.5 7.3-2.7.5 1.5z"/><path fill="#9f7f6d" fill-opacity=".5" d="M368.6 150.4l1.5-.4 25.4 88.6-1.5.5z"/><path fill="#5a4e35" fill-opacity=".5" d="M26 94.7L10.8 91l2.3-9 15.1 3.7z"/><path fill="#b09f91" fill-opacity=".5" d="M79 147.1l7 6.2-1 1.1-7-6.1z"/><path fill="#9b8a7d" fill-opacity=".5" d="M33.6 104.1l25.8-6.4 2.3 9.1-25.8 6.4z"/><path fill="#546348" fill-opacity=".5" d="M126.3 72.3l-2.5-10.7 4.6-1 2.5 10.6z"/><path fill="#967c76" fill-opacity=".5" d="M27.5 140.1l-2.3 9.1-13.6-3.4 2.2-9z"/><path fill="#363c23" fill-opacity=".5" d="M260.5 39.6l-2.4-4 8-5 2.4 4z"/><path fill="#bfbcbf" fill-opacity=".5" d="M169.7 73.5l-1.4.8-8.3-15 1.4-.8z"/><path fill="#3e4a36" fill-opacity=".5" d="M51.4 63.5l34.2 29.7-1 1.2-34.2-29.8z"/><path fill="#74829d" fill-opacity=".5" d="M191.4 78l4.5 1.2-7.6 28.7-4.6-1.2z"/><path fill="#654135" fill-opacity=".5" d="M92.4 165.2l2.8-10.5 1.5.4-2.8 10.5z"/><path fill="#7f7f81" fill-opacity=".5" d="M316-2.4L298.9 8.4 298 7l17.2-10.8z"/><path fill="#4f4d52" fill-opacity=".5" d="M188.6 38.9l1.5-.5 4 11.8-1.4.5z"/><path fill="#9b7d6e" fill-opacity=".5" d="M365.1 168l45.7-20.3.6 1.4-45.6 20.4z"/><path fill="#988570" fill-opacity=".5" d="M387.5 64.3l.4 1.5-33.2 9-.4-1.6z"/><path fill="#9ea894" fill-opacity=".5" d="M53.8 73.5l-1.3.9-1.7-2.6 1.3-.9z"/><path fill="#98958f" fill-opacity=".5" d="M129.7 36l-10.6 3-.4-1.5 10.6-2.9z"/><path fill="#b19888" fill-opacity=".5" d="M71.6 106.4l1-1.3 32.4 24.5-1 1.2z"/><path fill="#745249" fill-opacity=".5" d="M62.4 157.8l-1 3-22.2-7.7 1-3z"/><path fill="#111b0d" fill-opacity=".5" d="M308.2 84.3l-23.5 12.5-.7-1.4 23.5-12.5z"/><path fill="#8a7660" fill-opacity=".5" d="M250.7 27.2l.1 1.5-21.8 2-.1-1.6z"/><path fill="#52676a" fill-opacity=".5" d="M214.8 32.5v1.6l-15.5.5-.1-1.5z"/><path fill="#705c4f" fill-opacity=".5" d="M359.2 48.4l1.5.3-2.7 17-1.5-.3z"/><path fill="#172013" fill-opacity=".5" d="M382.4 65.4l-1.4.7-5.6-11.2 1.4-.7z"/><path fill="#5b4d4d" fill-opacity=".5" d="M184.2 166.3l-6 19.4-1.4-.4 5.9-19.5z"/><path fill="#6e5b57" fill-opacity=".5" d="M103.4 111l-6.4-7 1.2-1 6.3 6.8z"/><path fill="#d0d2d2" fill-opacity=".5" d="M151.6 33.7l-1.8 17-15.5-1.6 1.8-17z"/><path fill="#6f755f" fill-opacity=".5" d="M416.2 6.8L363.7 15l-.2-1.6L416 5.2z"/><path fill="#595956" fill-opacity=".5" d="M374.9 29.8l.7 1.3-27 15.7-.8-1.4z"/><path fill="#0e0d14" fill-opacity=".5" d="M166.1 116.3l-.8 1.3-17.4-10.4.8-1.4z"/><path fill="#50647c" fill-opacity=".5" d="M181.2 68l4.5-1.2 3.4 13.7-4.5 1.1z"/><path fill="#233a22" fill-opacity=".5" d="M274.8 85l5.5-7.6 15.2 11L290 96z"/><path fill="#808ea0" fill-opacity=".5" d="M171 67.2h1.6l-1.4 39h-1.6z"/><path fill="#76513b" fill-opacity=".5" d="M194 170.7l.4-1.4 16.4 5.3-.5 1.5z"/><path fill="#2e351e" fill-opacity=".5" d="M298 42.6l-.4 1.5-19.1-7 .5-1.5z"/><path fill="#313b33" fill-opacity=".5" d="M351 6.7l-12 3.7-.9-3 12-3.7z"/><path fill="#4b251b" fill-opacity=".5" d="M399.2 174l1.4.7-1.4 2.8-1.4-.7z"/><path fill="#191610" fill-opacity=".5" d="M347.3 50.7l-3.8-8.6 1.4-.6 3.8 8.6z"/><path fill="#71707e" fill-opacity=".5" d="M205.3 115l-2.6 4-6.5-4.4 2.7-3.9z"/><path fill="#b7aeac" fill-opacity=".5" d="M156 35.2l-18.6-8.3 2-4.3 18.5 8.3z"/><path fill="#162a16" fill-opacity=".5" d="M256.8 37.9l.4 3-6.2 1-.4-3.2z"/><path fill="#4b4838" fill-opacity=".5" d="M321.1 13.7l-40.6.7V13l40.5-1z"/><path fill="#7a6d62" fill-opacity=".5" d="M268 42.3V47l-12.6-.2.1-4.7z"/><path fill="#adbbce" fill-opacity=".5" d="M253.3 57.9l5.5 17.9-7.5 2.3-5.4-18z"/><path fill="#615852" fill-opacity=".5" d="M232.5 144.4l.6-6.2 1.6.2-.7 6.2z"/><path fill="#a1877b" fill-opacity=".5" d="M330.2 162.8l-23.8 11.7-.7-1.4 23.9-11.7z"/><path fill="#a3897e" fill-opacity=".5" d="M314.2 142l-9.8-17.9 20.5-11.3 9.8 17.7z"/><path fill="#87817e" fill-opacity=".5" d="M174 171.4l-13.8 19-1.3-1 13.8-18.9z"/><path fill="#be9481" fill-opacity=".5" d="M231.3 143.5l-29.6 2-.2-3 29.6-2.1z"/><path fill="#d2b19c" fill-opacity=".5" d="M379.6 190.6l-6 1.5-1.6-6 6-1.6z"/><path fill="#a9907d" fill-opacity=".5" d="M206.2 193.4l8.7-3.5 2.3 5.8-8.7 3.5z"/><path fill="#4d4b34" fill-opacity=".5" d="M128.2 69l-4 2.4-.8-1.4 4-2.3z"/><path fill="#89847f" fill-opacity=".5" d="M174 110.4l-7.7 9.8-1.2-1 7.7-9.8z"/><path fill="#bfa092" fill-opacity=".5" d="M333 107.8l1.4-.9 12.2 18.1-1.3 1z"/><path fill="#091509" fill-opacity=".5" d="M410.8 65.3l1.3 1-24.5 32.4-1.2-1z"/><path fill="#727d60" fill-opacity=".5" d="M100.7 64.5l.3-1.5 15.4 2.2-.2 1.5z"/><path fill="#cdb0a8" fill-opacity=".5" d="M353.8 182.5l.2 1.5-6.2.7-.2-1.6z"/><path fill="#222f42" fill-opacity=".5" d="M185.4 84.4l-1.4.6-5.4-14.7 1.5-.6z"/><path fill="#e6e2db" fill-opacity=".5" d="M138 43.9l4 6.7-6.6 4-4-6.7z"/><path fill="#5e3a2b" fill-opacity=".5" d="M228 181l-6.1.5-1.5-17.1 6.2-.6z"/><path fill="#97a7bc" fill-opacity=".5" d="M220.7 61.7l-12-12.3 3.4-3.3 12 12.4z"/><path fill="#b4968a" fill-opacity=".5" d="M30.8 123l-5-6 1.3-1 4.9 6z"/><path fill="#baa08e" fill-opacity=".5" d="M381.1 172.5l1.2-1 25.6 29.4-1.1 1z"/></svg>