<svg xmlns="http://www.w3.org/2000/svg" viewBox="0 0 50 25"><path fill="#877b74" d="M0 0h50v25H0z"/><g fill-opacity=".5"><path fill="#fff" d="M30.5 3.5l29-19-69 18z"/><path fill="#232a13" d="M65.5 13.5l-33-3 24-26z"/><path fill="#fff" d="M12.5-8.5l13-7-5 28z"/><path fill="#5a4533" d="M16.5 40.5l-6-37-26 6z"/><path fill="#cbdcf3" d="M15.5-15.5l14 10 4 24z"/><path fill="#f9ffff" d="M34.5.5l-43 2 34-18z"/><path fill="#523939" d="M22.5 11.5l3 29h-26z"/><path fill="#ae8c7f" d="M-1.5 16.5l17-6 8 11z"/><path fill="#cfa48e" d="M32.5 12.5l17 1-21 7z"/><path fill="#5f5d4d" d="M29.5 3.5l36-10v21z"/><path fill="#1f1c0d" d="M12.5 10.5h-5l9-5z"/><path fill="#926957" d="M31.5 16.5l-31 24 58-23z"/><path fill="#47546c" d="M19.5 19.5l4-16 5 12z"/><path fill="#8aa8c9" d="M29.5 8.5l1 4-10-6z"/><path fill="#d5dcea" d="M20.5 12.5l-10-28 14 2z"/><path fill="#4f574a" d="M-13.5 24.5l29-21-31 3z"/><path fill="#fff" d="M26.5 2.5l-13-15 46 6z"/><path fill="#20271b" d="M33.5 4.5l4 8h-4z"/><path fill="#6d4535" d="M13.5 17.5l15 23-44-1z"/><path fill="#000100" d="M47.5 10.5l18 5v-10z"/><path fill="#878872" d="M41.5 10.5l-4-3 7-1z"/><path fill="#a9a6a7" d="M23.5 2.5l-2 3-5-2z"/><path fill="#353220" d="M33.5 8.5h19l-11 4z"/><path fill="#e8edf4" d="M17.5 5.5l3 4-1 3z"/><path fill="#dfecff" d="M51.5-2.5l-35-10-32 17z"/><path fill="#c2a091" d="M33.5 18.5l2-5-12 5z"/><path fill="#36292d" d="M19.5 22.5v-10l2 3z"/><path fill="#b19283" d="M49.5 17.5l7-6h-26z"/><path fill="#a99991" d="M17.5 9.5l3 7-15-3z"/><path fill="#071d08" d="M46.5 5.5l19-7v7z"/><path fill="#4c4d55" d="M21.5 13.5l7-2 2 4z"/><path fill="#2d1814" d="M8.5 22.5l-15 18 22-8z"/><path fill="#555345" d="M17.5 7.5l-33 10 17-11z"/><path fill="#876d60" d="M14.5 21.5l-8-11-11 11z"/><path fill="#596a84" d="M29.5 8.5l-4-3 1 2z"/><path fill="#bd9078" d="M44.5 22.5l16-1-1 19z"/><path fill="#6e6a61" d="M43.5 4.5l22-10-30-3z"/><path fill="#7f5340" d="M25.5 16.5l6 22h11z"/><path fill="#755745" d="M42.5 19.5l23 3v-7z"/><path fill="#383021" d="M38.5 12.5l-1-3 7 3z"/><path fill="#998c90" d="M24.5 11.5l1 8-2-3z"/><path fill="#a5bee1" d="M27.5 5.5h4v4z"/><path fill="#b6aaae" d="M31.5 22.5l-1-6-1 4z"/><path fill="#87846f" d="M41.5 10.5l3-3h4z"/><path fill="#636153" d="M-15.5 29.5l30-27-28 12z"/><path fill="#a49188" d="M19.5 16.5l-5-10 1 11z"/><path fill="#4e3e23" d="M2.5 14.5l-10-3-8 9z"/><path fill="#453f33" d="M10.5 11.5l-7-3 10-1z"/><path fill="#58643a" d="M36.5 7.5l3-3-7 1z"/><path fill="#93776b" d="M39.5 40.5h-34l32-25z"/><path fill="#866556" d="M11.5 38.5l3-21 6 2z"/><path fill="#1e1d15" d="M48.5 5.5l-2 2-1-1z"/><path fill="#3f3638" d="M24.5 16.5l3-3-1-2z"/><path fill="#120f00" d="M37.5 10.5h6l-3 1z"/><path fill="#96a7c0" d="M25.5 7.5l8 3-3-4z"/><path fill="#636257" d="M6.5 10.5l3-7-16 4z"/><path fill="#414836" d="M33.5 1.5h2l-4 2z"/><path fill="#eaeef7" d="M36.5-.5l-32 3 34-18z"/><path fill="#97867a" d="M3.5 11.5l4 5 5-5z"/><path fill="#dce5ed" d="M19.5 12.5v-7l2 4z"/><path fill="#4e4229" d="M36.5 5.5l6 1-1-4z"/><path fill="#ceab9c" d="M46.5 12.5l19 13-9-13z"/><path fill="#a2817e" d="M49.5 6.5l16-8-4 22z"/><path fill="#6a665d" d="M-.5 6.5l9-3 3 3z"/><path fill="#5a4532" d="M2.5 21.5l-18-1 17 11z"/><path fill="#2d2226" d="M20.5 14.5v4h3z"/><path fill="#676b55" d="M46.5 10.5l-13-7 4 6z"/><path fill="#b0b4ac" d="M45.5-15.5l20 17-32-4z"/><path fill="#a9a292" d="M40.5 6.5l7 2-3-2z"/><path fill="#271b20" d="M21.5 22.5l6 16-5-3z"/><path fill="#967b71" d="M31.5 16.5l23 24h-16z"/><path fill="#e2e8ee" d="M21.5 11.5l-1-6-2 5z"/><path fill="#f2f6f9" d="M51.5-6.5l-19-9-7 19z"/><path fill="#d2ddef" d="M13.5.5l-29 6 33-22z"/><path fill="#c8ab93" d="M32.5 17.5l6-5-6 1z"/><path fill="#817165" d="M39.5 2.5l2 3-1-5z"/><path fill="#565c61" d="M16.5 11.5h-1l2-1z"/><path fill="#79615b" d="M63.5 39.5l-31 1-2-19z"/><path fill="#82797e" d="M16.5 21.5l6-1 2-3z"/><path fill="#50372e" d="M7.5 21.5l8 19h22z"/><path fill="#474136" d="M41.5-4.5l-1 3 6 4z"/><path fill="#28282b" d="M31.5 11.5l9-3-3 3z"/><path fill="#f0f3fc" d="M23.5 2.5l9-18-21 11z"/><path fill="#c2b8a6" d="M14.5 8.5l-2 5 4-5z"/><path fill="#c3c3c4" d="M19.5 7.5l2 1-3-3z"/><path fill="#9cabc1" d="M31.5 11.5h-2l-2-5z"/><path fill="#a08779" d="M44.5 17.5h-15l11-3z"/><path fill="#674b35" d="M59.5 23.5l-10-3 16-19z"/><path fill="#696056" d="M46.5 6.5l-8-8 7 3z"/><path fill="#47473b" d="M-15.5-12.5v13l20 8z"/><path fill="#65493d" d="M-7.5 40.5h32l-5-19z"/><path fill="#947061" d="M25.5 19.5l7 21-16-6z"/><path fill="#34485a" d="M23.5 6.5v5l-2 1z"/><path fill="#5c5548" d="M11.5 7.5l4-4v5z"/><path fill="#989c8e" d="M1.5 10.5l-12-13-5 5z"/><path fill="#7b7c65" d="M36.5 2.5l-1 3-1-4z"/><path fill="#976f5c" d="M15.5 16.5l3 5-6-4z"/><path fill="#8191a4" d="M23.5 9.5l2-5v7z"/><path fill="#3e3c20" d="M40.5 6.5h-1v-2z"/><path fill="#c7b6b5" d="M29.5 18.5v1l1-2z"/></g></svg>