<svg xmlns="http://www.w3.org/2000/svg" viewBox="0 0 100 50"><path fill="#877b74" d="M0 0h100v50H0z"/><g fill-opacity=".5"><path fill="#fff" d="M-15.5.5l125-16-66 28z"/><path fill="#252b14" d="M115.5 24.5l-29-40-22 39z"/><path fill="#5c4b3a" d="M33.5 6.5l-25 59-24-55z"/><path fill="#f7ffff" d="M-6.5 7.5l82-6-66-17z"/><path fill="#b0b9cd" d="M67.5 15.5l-19-14-37 34z"/><path fill="#3c4155" d="M33.5 56.5l13-50 10 21z"/><path fill="#623728" d="M-14.5 59.5l102 6-61-28z"/><path fill="#d0a99b" d="M58.5 22.5v15l48-8z"/><path fill="#fffffb" d="M35.5 18.5l7-14v20z"/><path fill="#a88172" d="M38.5 43.5l-3-27-38 17z"/><path fill="#04130a" d="M73.5 22.5l-7 2-1-16z"/><path fill="#a1b7d4" d="M46.5 15.5l14-7 9 25z"/><path fill="#f6ffff" d="M53.5 6.5l-69-22 127 5z"/><path fill="#364737" d="M-10.5 12.5l30 12 14-9z"/><path fill="#686355" d="M96.5 20.5l7-30-47 17z"/><path fill="#9b6e5d" d="M46.5 65.5v-34l69 5z"/><path fill="#0e1108" d="M79.5 23.5h36l-21-6z"/><path fill="#170e11" d="M37.5 27.5l6 9 1-11z"/><path fill="#d5e9ff" d="M42.5-.5l-36-15-10 25z"/><path fill="#ecedeb" d="M33.5 9.5l6 15-2-19z"/><path fill="#bca197" d="M64.5 40.5l-17-4 27-11z"/><path fill="#b19b7c" d="M95.5 18.5l-9-5-13 2z"/><path fill="#5d5950" d="M-15.5 47.5l24-41h18z"/><path fill="#8193b0" d="M54.5 10.5l-7 28-1-20z"/><path fill="#142215" d="M102.5 9.5l-11-1v8z"/><path fill="#6e483d" d="M60.5 26.5l-4 19-5-2z"/><path fill="#363d4c" d="M44.5 10.5l5-1-5 18z"/><path fill="#b29a90" d="M32.5 15.5l-14 12 19 8z"/><path fill="#332e39" d="M31.5 4.5l-2 7 5 4z"/><path fill="#2f3018" d="M81.5 24.5l1-9-18 8z"/><path fill="#86675c" d="M17.5 31.5l-33 10 68 2z"/><path fill="#f0f2f6" d="M36.5 19.5l2 5 7-14z"/><path fill="#bc9b85" d="M60.5 24.5l47 13 8-13z"/><path fill="#476177" d="M32.5 28.5l2-13 2 7z"/><path fill="#42271e" d="M25.5 47.5l-17 18 5-22z"/><path fill="#e5f0fe" d="M91.5-15.5l-29 21-50-3z"/><path fill="#939091" d="M51.5 11.5l-3-7-14 2z"/><path fill="#9b8782" d="M84.5 2.5l-7-2-8 8z"/><path fill="#989b85" d="M79.5 19.5l11-1-7 3z"/><path fill="#99837a" d="M10.5 20.5l16 8-20 6z"/><path fill="#705243" d="M114.5 42.5h-32l13-6z"/><path fill="#b6aeb1" d="M63.5 33.5l-4 8-4-8z"/><path fill="#473a37" d="M48.5 34.5l3-9 7 4z"/><path fill="#a7b8ce" d="M52.5 7.5l11 4 1 20z"/><path fill="#c1977d" d="M93.5 43.5h19l-32 11z"/><path fill="#1b2a14" d="M17.5 17.5l-1 5 11-5z"/><path fill="#c2c0be" d="M31.5 5.5l11 14 1-11z"/><path fill="#ecf6fe" d="M64.5-15.5l-17 24 68-21z"/><path fill="#25330d" d="M79.5 10.5l-8-1 8-3z"/><path fill="#818faa" d="M56.5 23.5l-3-12-8 4z"/><path fill="#796966" d="M49.5 8.5l6-1-9 8z"/><path fill="#2e3338" d="M32.5 6.5l-1 2-2-4z"/><path fill="#3a3338" d="M41.5 38.5l-3-13h9z"/><path fill="#c4d2df" d="M41.5 42.5l1 1v-3z"/><path fill="#e1b8aa" d="M51.5 33.5l9 4-6-5z"/><path fill="#7a6f67" d="M15.5 15.5l15-5-32-2z"/><path fill="#b5a89d" d="M98.5 11.5l17 6-11 7z"/><path fill="#2f2e35" d="M44.5 42.5l3 23-7-12z"/><path fill="#796358" d="M67.5 60.5l-8-4 4-24z"/><path fill="#38301d" d="M85.5 10.5l-11 2 12 1z"/><path fill="#ddc8ca" d="M37.5 32.5l-1 1-3-4z"/><path fill="#524333" d="M5.5 33.5l-1-16-3 12z"/><path fill="#635c59" d="M102.5 5.5l-16-9-20 9z"/><path fill="#ecf3fd" d="M45.5 5.5l12-11-44-1z"/><path fill="#dbb59f" d="M65.5 33.5l5-7-7-1z"/><path fill="#75706e" d="M32.5 8.5l-11 5-5-8z"/><path fill="#dab8a9" d="M31.5 18.5l-2 5-10 3z"/><path fill="#9d96a2" d="M45.5 33.5l2-7 3 11z"/><path fill="#b19786" d="M87.5 17.5h7l-7-4z"/><path fill="#3d393f" d="M38.5 39.5l6-5 1-15z"/><path fill="#ab9e9e" d="M24.5 9.5l4 3-4 1z"/><path fill="#5b5d67" d="M43.5 33.5l-1-8 5 3z"/><path fill="#a16b53" d="M49.5 36.5l6 1-13 14z"/><path fill="#d3e0ec" d="M.5 7.5l24-3-38-13z"/><path fill="#b3bdcd" d="M54.5 11.5l-7-3 14 2z"/><path fill="#525256" d="M60.5 27.5l-5 3 5 2z"/><path fill="#695845" d="M-11.5 65.5l26-20-30-9z"/><path fill="#63594e" d="M10.5 14.5l16-7-30 2z"/><path fill="#b5abab" d="M59.5 44.5l-1-11 4-5z"/><path fill="#523933" d="M50.5 13.5h-5l7-4z"/><path fill="#a38376" d="M93.5 35.5v-8l-29 5z"/><path fill="#dde9f4" d="M13.5.5l13-1 4 8z"/><path fill="#b7ab8c" d="M67.5 8.5v-3h10z"/><path fill="#b1c0cc" d="M56.5 20.5h8l1-6z"/><path fill="#ced5cd" d="M86.5-15.5l-2 11 17 5z"/><path fill="#7f8367" d="M73.5 17.5l3-3-11-5z"/><path fill="#8e6853" d="M39.5 52.5l-4-14-10-4z"/><path fill="#829aba" d="M46.5 15.5l9-2 5 9z"/><path fill="#1a2118" d="M82.5 22.5l-13 1-3-7z"/><path fill="#7b796d" d="M91.5 7.5l-3 3-9-1z"/><path fill="#eaf3fc" d="M103.5-15.5h-29l-29 25z"/><path fill="#99969b" d="M44.5 42.5h-3l1-6z"/><path fill="#281613" d="M43.5 35.5l-4 2v-3z"/><path fill="#d6a087" d="M48.5 41.5v-7l2 6z"/><path fill="#52543f" d="M66.5 12.5l9-1-16-4z"/><path fill="#2f3a2a" d="M92.5 11.5l6-6-1 10z"/><path fill="#393e2e" d="M25.5 21.5l-12-2 14-6z"/><path fill="#f9fbfe" d="M37.5 24.5l1-7-2 3z"/><path fill="#686165" d="M58.5 35.5l-4-13 4 3z"/><path fill="#d7d6d3" d="M33.5 11.5l5 4 6-3z"/></g></svg>