<svg xmlns="http://www.w3.org/2000/svg" viewBox="0 0 400 200"><path fill="#857a71" d="M0 0h400v200H0z"/><path fill="#fff" fill-opacity=".5" d="M256.5 45.5L-19 21.5l4.7-53L261.2-7.4z"/><path fill="#192609" fill-opacity=".5" d="M410.3 101.3l-151.5-2.6 1.2-70.3L411.5 31z"/><path fill="#fff" fill-opacity=".5" d="M174 101.2l-29.6 2-7.4-106 29.6-2z"/><path fill="#343d2c" fill-opacity=".5" d="M138.5 70.3L-7 112.1l-14.3-49.6 145.7-41.8z"/><path fill="#573322" fill-opacity=".5" d="M3.7 147.1l187.7 33.1-9.2 52.4-187.7-33.1z"/><path fill="#fff" fill-opacity=".5" d="M193.2 34.3l-6.9-24 150.2-43 6.9 24z"/><path fill="#9cc4f2" fill-opacity=".5" d="M215.9 27.6l52.4 28-26.4 49.6-52.4-27.9z"/><path fill="#eff" fill-opacity=".5" d="M302.3 2.5L-93.9 44.2l-3.8-35.8 396.3-41.6z"/><path fill="#04040f" fill-opacity=".5" d="M181.6 105.2l.9 50-28.2.5-.8-50z"/><path fill="#d6ab99" fill-opacity=".5" d="M357.7 140.2l-115.6 4-1.3-39 115.5-4z"/><path fill="#535641" fill-opacity=".5" d="M467-3.3L288 108.5 241 33 419.8-78.8z"/><path fill="#6e695e" fill-opacity=".5" d="M179 37l117.7-25 4 18.3-117.7 25z"/><path fill="#c7cace" fill-opacity=".5" d="M183.2 49.7l-40.8 19.9L124.6 33l40.8-19.9z"/><path fill="#374a69" fill-opacity=".5" d="M172.5 75.6l51 7.1-7 49.6-51-7.2z"/><path fill="#d0a592" fill-opacity=".5" d="M123.4 157.3L82 102.4l27.4-20.7 41.4 55z"/><path fill="#cfad99" fill-opacity=".5" d="M417.1 77.3L290 61.7l.8-6.2L418 71.1z"/><path fill="#d8ab94" fill-opacity=".5" d="M419.3 128l-65.6-1.2.5-28.2 65.6 1.2z"/><path fill="#24321c" fill-opacity=".5" d="M107.2 86.5L56.8 97.2l-6.2-29L101 57.5z"/><path fill="#504935" fill-opacity=".5" d="M22.7 36.6l7.6 87.2-42 3.7-7.7-87.2z"/><path fill="#9a6e5b" fill-opacity=".5" d="M180 144.1l276-19.3 6.1 88.9L186.3 233z"/><path fill="#bcb0ab" fill-opacity=".5" d="M230.9 166.7l15.6-73.4 33.6 7.2-15.6 73.3z"/><path fill="#081009" fill-opacity=".5" d="M324.3 100l-67-4.7 1.2-18.7 67 4.7z"/><path fill="#040a03" fill-opacity=".5" d="M477.5 91.2l-156 8.2-.6-11 156-8.1z"/><path fill="#8a6354" fill-opacity=".5" d="M-42.7 157.3l6-43.3 193.6 27-6.1 43.4z"/><path fill="#6d645e" fill-opacity=".5" d="M130.8 27.4l-.7 36-93.7-1.7.6-36z"/><path fill="#fff" fill-opacity=".5" d="M172.3 93.5l-20.8 6.8-9.7-29.7 20.8-6.8z"/><path fill="#08192c" fill-opacity=".5" d="M198.8 16.8l-18.6 23-2.5-1.9 18.7-23z"/><path fill="#d6bdac" fill-opacity=".5" d="M103.4 106.7l-9.1-8.5 35.1-37.7 9.2 8.5z"/><path fill="#41312f" fill-opacity=".5" d="M197.3 125.9l2.6-18.6 41.8 5.9-2.6 18.6z"/><path fill="#c09c8e" fill-opacity=".5" d="M358.2 52.7l3.5 20-24.6 4.3-3.5-20z"/><path fill="#f3ffff" fill-opacity=".5" d="M240.5 22.8l-5.8-16.2L311-21.2 317-5z"/><path fill="#aea9ad" fill-opacity=".5" d="M124.2 16.6l-28 41.5-6.4-4.4 28-41.5z"/><path fill="#a5bedb" fill-opacity=".5" d="M253.5 74.4l-44.7-7 4.9-31 44.7 7.2z"/><path fill="#0e2444" fill-opacity=".5" d="M193.6 45.6L179 78.5l-8.6-3.8 14.7-32.9z"/><path fill="#8196b6" fill-opacity=".5" d="M180.6 58.3l42-12 10.8 37.5-42 12.1z"/><path fill="#3b2015" fill-opacity=".5" d="M90.5 222.6l-43.1-14L58 175.9l43 14z"/><path fill="#f5bca6" fill-opacity=".5" d="M274.6 35.8l-.8-3L311.3 22l.9 3z"/><path fill="#c2c1c2" fill-opacity=".5" d="M172 64.4l-40.6-11.6L142 15.3l40.6 11.6z"/><path fill="#e8f5ff" fill-opacity=".5" d="M68.3-23l163.9 8.6-2 39-164-8.6z"/><path fill="#d4e4ff" fill-opacity=".5" d="M71.4 18.2l-66 19-6.5-22.6 66-19z"/><path fill="#172917" fill-opacity=".5" d="M391.7 20.7l12.6 9.2-25.7 35.4L366 56z"/><path fill="#17324e" fill-opacity=".5" d="M166.3 215.8l-7.4-2.4 23.2-71.4 7.4 2.4z"/><path fill="#715444" fill-opacity=".5" d="M403.8 173.1l-70.2 3.7-1.4-26.5 70.2-3.7z"/><path fill="#2b3921" fill-opacity=".5" d="M222.7 26l32.7 10.7-1.5 4.4-32.7-10.6z"/><path fill="#f4bc9f" fill-opacity=".5" d="M224 130l3.2 15.2-21.4 4.6-3.3-15.3z"/><path fill="#713c25" fill-opacity=".5" d="M209.7 185.9l-2.2-31.2 21.9-1.5 2.1 31.2z"/><path fill="#deb8a4" fill-opacity=".5" d="M325.8 76.3l17.4 7-1.8 4.4-17.4-7z"/><path fill="#322018" fill-opacity=".5" d="M200.5 141.4l-6.5-4.2 19.5-30.2 6.6 4.3z"/><path fill="#00122d" fill-opacity=".5" d="M114.4 17l2.4-2 11 13.2-2.4 2z"/><path fill="#748198" fill-opacity=".5" d="M161.4 169.3l31.7-68 12.7 6-31.7 68z"/><path fill="#121f0e" fill-opacity=".5" d="M424.4 77.3l-4.1 26.2-46.3-7.3 4.1-26.3z"/><path fill-opacity=".5" d="M170.5 117.8l-18.5 3.3-2.2-12.3 18.5-3.3z"/><path fill="#ba9c9d" fill-opacity=".5" d="M399.8 70.1l-10.5-17.4 9.4-5.6L409 64.5z"/><path fill="#0b1b0f" fill-opacity=".5" d="M288.4 91.4l-18.4 4-6.8-32.2 18.3-3.9z"/><path fill="#c1a189" fill-opacity=".5" d="M362.6 206l-5-14.8 78.2-27 5.1 14.9z"/><path fill="#96989a" fill-opacity=".5" d="M189.6 41.5l-48.2-5 1.8-17.1 48.2 5z"/><path fill="#878b6f" fill-opacity=".5" d="M272 32.8l31.3 34.9-8 7.3-31.6-35z"/><path fill="#5d5b51" fill-opacity=".5" d="M308.4-31.6L387.1-44l12.3 77-78.7 12.5z"/><path fill="#eff8ff" fill-opacity=".5" d="M98.6 5.1l21.6 24.8-4.8 4L94 9.3z"/><path fill="#adb5be" fill-opacity=".5" d="M241.4 60l21.5 4.2-9 46-21.5-4.1z"/><path fill="#5b5748" fill-opacity=".5" d="M-33.7 124.4l16.6-94 52.3 9.3-16.5 93.9z"/><path fill="#977667" fill-opacity=".5" d="M245.9 180.5l3.7-53 40.5 2.9-3.7 53z"/><path fill="#1a3c00" fill-opacity=".5" d="M299 73.6l.6-6.2 49.8 4.3-.5 6.2z"/><path fill="#081c37" fill-opacity=".5" d="M173 104.3l7.2-33.6 7.7 1.6-7.2 33.6z"/><path fill="#d6d5d3" fill-opacity=".5" d="M179 54.5l-37 12.7-10-29.5L168.7 25z"/><path fill="#ad8f7e" fill-opacity=".5" d="M397.7 138.7l-114-4 1.4-37.5 114 4z"/><path fill="#b5abac" fill-opacity=".5" d="M184.3 104.8l4.6-.9 9.6 49.1-4.6.9z"/><path fill="#a28376" fill-opacity=".5" d="M32 130.2l5.5-38.7 78.9 11.1-5.4 38.7z"/><path fill="#b6c6d6" fill-opacity=".5" d="M230.7 175.2l20-65.8 4.6 1.4-20.1 65.7z"/><path fill="#dcab95" fill-opacity=".5" d="M294.4 25.8l-55.7 7.8-.3-1.6 55.7-7.8z"/><path fill="#bf989b" fill-opacity=".5" d="M353.9 60l-.1 1.6-62.4-4.4.1-1.6z"/><path fill="#1a2c12" fill-opacity=".5" d="M332 23l2.8 9-40.3 12.2-2.8-9z"/><path fill="#b8d2ec" fill-opacity=".5" d="M239.9 38.9l-.3 3.1-49.8-4.3.3-3.2z"/><path fill="#656153" fill-opacity=".5" d="M91.9 56.4l-48.3 4.2-2.7-31 48.3-4.3z"/><path fill="#95827b" fill-opacity=".5" d="M76.7 54.1l-3-7.2 45-18.2 2.9 7.3z"/><path fill="#280d06" fill-opacity=".5" d="M183.2 45.8l12.5-1 .8 11-12.5.9z"/><path fill="#757f92" fill-opacity=".5" d="M143.2 125.1l-17.2-.3 1.1-64 17.2.3z"/><path fill="#c9b2a7" fill-opacity=".5" d="M107.7 99l49.3 36-3.7 5-49.3-35.8z"/><path fill="#4b5562" fill-opacity=".5" d="M155.5 199.3L144.8 149l13.7-3 10.8 50.5z"/><path fill="#484c2d" fill-opacity=".5" d="M228.3 27l84.9-13.4.7 4.6L229 31.7z"/><path fill="#25292f" fill-opacity=".5" d="M195.5 18.7l1.3 1L181 39l-1.2-1z"/><path fill="#b29290" fill-opacity=".5" d="M358.6 33.6v6.2h-18.8v-6.2z"/><path fill="#2a463d" fill-opacity=".5" d="M200.8 33.5v-1.6l34.4 1.8-.1 1.6z"/><path fill="#2f1718" fill-opacity=".5" d="M111.1 39.4l23.7 17.8-3.7 5-23.7-17.9z"/><path fill="#ebf3ff" fill-opacity=".5" d="M263.3 10l-52.9 23.5-15.8-35.7 52.8-23.5z"/><path fill="#bdae8f" fill-opacity=".5" d="M346.1 78.7l-28 2-.2-1.6 28.1-2z"/><path fill="#91a8c7" fill-opacity=".5" d="M196 56.5l7.6 28.7-13.6 3.6-7.7-28.7z"/><path fill="#2e3b25" fill-opacity=".5" d="M110.8 55.1l-1.3 26.5-15.7-.8 1.4-26.5z"/><path fill="#ede5ea" fill-opacity=".5" d="M101.2 48l6.2 1-.8 4.6-6.2-1z"/><path fill="#2a180e" fill-opacity=".5" d="M157.5 109.5l11-.2.6 39-11 .2z"/><path fill="#f6ffff" fill-opacity=".5" d="M146 112.3l-4.4-10 1.4-.6 4.5 10z"/><path fill="#74554b" fill-opacity=".5" d="M241.4 232v-65.6H257V232z"/><path fill="#272e25" fill-opacity=".5" d="M363.5 35.7l25 .5-.5 29.6-25-.4z"/><path fill="#442f20" fill-opacity=".5" d="M19.9 108.8l-32.4 36-5.8-5.2 32.4-36z"/><path fill="#d1ddf0" fill-opacity=".5" d="M-23.7 34l.6-36 48.4.9-.6 35.9z"/><path fill="#5b565b" fill-opacity=".5" d="M241.7 125.9l-13.9 10-21.1-29 14-10z"/><path fill="#c5b1ab" fill-opacity=".5" d="M238.5 162.6l-25-27.8 5.8-5.3 25 28z"/><path fill="#1b3011" fill-opacity=".5" d="M248.5 40.2l15.8-6.7 1.3 2.9-15.9 6.7z"/><path fill="#394737" fill-opacity=".5" d="M14 52.4l76 29-5.7 14.7L8.5 67z"/><path fill="#373c33" fill-opacity=".5" d="M329-1.2l48.8 24.8-2.2 4.2L327 3z"/><path fill="#7b7262" fill-opacity=".5" d="M-4.9 67.6L19.9 77 6.5 112l-24.8-9.5z"/><path fill="#bfc0c3" fill-opacity=".5" d="M170 98.7l3-.4 2.4 17-3.1.5z"/><path fill="#cda895" fill-opacity=".5" d="M290 99.1l6.6 29-38 8.7-6.8-28.9z"/><path fill="#323d23" fill-opacity=".5" d="M340.5 85.4l37.7-15.2 4.7 11.6L345.2 97z"/><path fill="#b4958f" fill-opacity=".5" d="M325.3 6l.5 3-34 5.4-.4-3.1z"/><path fill="#a9bfbd" fill-opacity=".5" d="M281 51.6l-53.6 21.7-.6-1.5 53.6-21.6z"/><path fill="#a7aebd" fill-opacity=".5" d="M167.7 182.5l-5.9-2.1 6.4-17.6 6 2.1z"/><path fill="#3b3c42" fill-opacity=".5" d="M172.7 114.8l12.2 45.3-6 1.6-12.2-45.2z"/><path fill="#230500" fill-opacity=".5" d="M224 131.3l14.8-18.2 1.2 1-14.7 18.2z"/><path fill="#a4b4c8" fill-opacity=".5" d="M174 102l-21 6.4-3.6-12 21-6.4z"/><path fill="#feffff" fill-opacity=".5" d="M186.2 35.7l16.8-14 3 3.5-16.8 14z"/><path fill="#8f8b93" fill-opacity=".5" d="M50.9 89.2l-11.4 5-4.5-10 11.5-5z"/><path fill="#7f6658" fill-opacity=".5" d="M115.9 139.2l1 28.1-125 4.4-1-28.1z"/><path fill="#fff" fill-opacity=".5" d="M151.3 72.6l9 2.7-6.9 22.4-9-2.7z"/><path fill="#323439" fill-opacity=".5" d="M119.3 32l11-8.7 2 2.5-11.1 8.7z"/><path fill="#000212" fill-opacity=".5" d="M161.9 115.2l-1 1.2-15-11.3 1-1.2z"/><path fill="#021100" fill-opacity=".5" d="M347.8 46.8l-.8 3-18.2-4.5.8-3z"/><path fill="#cbc7c4" fill-opacity=".5" d="M132.4 33.7l.3 1.5-19.8 4.6-.3-1.6z"/><path fill="#925b55" fill-opacity=".5" d="M189.8 48.2l10-10 8.8 8.9-10 10z"/><path fill="#334e0b" fill-opacity=".5" d="M335.1 75.6l-27-7.8 2.1-7.5 27 7.8z"/><path fill="#adbed2" fill-opacity=".5" d="M218.8 36l15.2-3.5 11.3 48.7-15.3 3.5z"/><path fill="#ceac92" fill-opacity=".5" d="M291.7 72l-.8-1.3 15.9-10 .8 1.4z"/><path fill="#6d6b5a" fill-opacity=".5" d="M107.5 28.7L90.5 69l-5.8-2.4 17-40.3z"/><path fill="#caa995" fill-opacity=".5" d="M418.6 88.9l-33 35.4-5.8-5.3 33-35.5z"/><path fill="#d4e1ef" fill-opacity=".5" d="M67.6-19.2l.8 45.4-47 .8-.7-45.3z"/><path fill="#eaf7ff" fill-opacity=".5" d="M277.7 6l10.2-15.6 7.9 5-10.3 15.8z"/><path fill="#a7978c" fill-opacity=".5" d="M133 167.5l27 7.3-.7 3-27.2-7.3z"/><path fill="#7686a2" fill-opacity=".5" d="M212.9 65.7l-19.2 41-11.3-5.2 19.2-41z"/><path fill="#5b412b" fill-opacity=".5" d="M254.1 126.7l-2 23.3-1.6-.1 2-23.4z"/><path fill="#120e08" fill-opacity=".5" d="M171 193.9l-4-11.8 7.3-2.6 4 11.9z"/><path fill="#918a88" fill-opacity=".5" d="M252.6 82l5.8 5.2-37.6 41.8-5.8-5.2z"/><path fill="#cf977c" fill-opacity=".5" d="M209.7 162.8l-7.3 6-16.7-20.7 7.2-5.9z"/><path fill="#aca9af" fill-opacity=".5" d="M236.4 123.5l6.8 38.4-3 .6-6.8-38.5z"/><path fill="#f0f8ff" fill-opacity=".5" d="M167-23.7l27.4 6.3-9.8 42.7-27.4-6.4z"/><path fill="#2e2828" fill-opacity=".5" d="M116.1 48l1-1.2L141.7 66l-1 1.3z"/><path fill="#3a4c33" fill-opacity=".5" d="M258.4 35.8l19.7 35.5-6.8 3.8-19.7-35.5z"/><path fill="#9eb1c7" fill-opacity=".5" d="M245.2 36.7l18.4 21.2-26 22.6-18.4-21.2z"/><path fill="#412d23" fill-opacity=".5" d="M305.5 98.6l-.1 1.6-50-3.5.2-1.6z"/><path fill="#597345" fill-opacity=".5" d="M282 80.9l.2-1.6 43.6 3.9-.2 1.5z"/><path fill="#a1969b" fill-opacity=".5" d="M121.4 62.4l-15-11.3 1.9-2.5 15 11.3z"/><path fill="#07101b" fill-opacity=".5" d="M169.2 68.1l18.3-17 1 1.1-18.2 17z"/><path fill="#9d8377" fill-opacity=".5" d="M378.2 144.7l-96.7-5 1.2-23.5 96.8 5.1z"/><path fill="#6d8458" fill-opacity=".5" d="M81.2 68.3v-4.7l48.5.9v4.7z"/><path fill="#b59693" fill-opacity=".5" d="M315.9 41.2l8.5-3.8 2 4.2-8.6 3.9z"/><path fill="#63483c" fill-opacity=".5" d="M408.5 182l-25.9-10.9 7.3-17.3 26 11z"/><path fill="#403a36" fill-opacity=".5" d="M189.7 120.4l-23 9.8-4.9-11.5 23-9.8z"/><path fill="#bfa494" fill-opacity=".5" d="M81.4 118.2l46.2-8.1 1.9 10.7-46.2 8.2z"/><path fill="#eeeae7" fill-opacity=".5" d="M144.2 55.9l-12.5-.9.7-9.3 12.4.8z"/><path fill="#7a715d" fill-opacity=".5" d="M15.1 189.5L26.5 152l22.5 7-11.4 37.3z"/><path fill="#8c7a71" fill-opacity=".5" d="M57.4 68l-3-5.5 42.9-22.7 2.9 5.5z"/><path fill="#453d3f" fill-opacity=".5" d="M207.7 95.7l28.1 46.9-1.3.8-28.2-46.9z"/><path fill="#332b2a" fill-opacity=".5" d="M158.7 177.2l1.3 37.5-7.8.3-1.3-37.5z"/><path fill="#394036" fill-opacity=".5" d="M131 73.2l-3.1.3-4.2-48.3 3-.2z"/><path fill="#b99a80" fill-opacity=".5" d="M293.2 36.5L255 29.1l.3-1.6 38.3 7.5z"/><path fill="#7a675d" fill-opacity=".5" d="M200 189v20.4h-42.2V189z"/><path fill="#9d8580" fill-opacity=".5" d="M339.5 10.4l-29.2 14.8-1.4-2.7 29.2-15z"/><path fill="#7d8ca3" fill-opacity=".5" d="M232.2 101.3l-12.2 2.6-10-47.4 12.2-2.6z"/><path fill="#d8b09f" fill-opacity=".5" d="M87.8 102.7l37.6-30.5 4 4.8-37.7 30.5z"/><path fill="#998970" fill-opacity=".5" d="M330 86.9l44-20.5.6 1.4-43.9 20.5z"/><path fill="#686154" fill-opacity=".5" d="M-33.5 32.7l117 8.1-1.6 21.9L-35 54.5z"/><path fill="#e2eefc" fill-opacity=".5" d="M118.2 26.5l-7 3.5L92.8-6.2l7-3.5z"/><path fill="#21291e" fill-opacity=".5" d="M95.3 72.1l-2.2 10.7-30.6-6.5 2.3-10.7z"/><path fill="#a39b97" fill-opacity=".5" d="M154.5 20.4l10.8 1.5-2.6 18.6-10.8-1.5z"/><path fill="#566170" fill-opacity=".5" d="M196.5 15.8l1 1.2-17.4 15.6-1-1.1z"/><path fill="#8e745a" fill-opacity=".5" d="M103.2 144.2l-5.5-9.5 25.7-14.8 5.5 9.4z"/><path fill="#826e76" fill-opacity=".5" d="M355.6 52.6l-7-12.2 6.7-4 7 12.3z"/><path fill="#e6effe" fill-opacity=".5" d="M143-21.4l4.5 42L124 23l-4.4-42z"/><path fill="#2f3c21" fill-opacity=".5" d="M-12.2 191.3l25-1.3 1 17.1-25 1.4z"/><path fill="#060d02" fill-opacity=".5" d="M409.8 46.5l-24.7-4 .5-3 24.6 3.9z"/><path fill="#6a605f" fill-opacity=".5" d="M183.6 121L165 140l-3.4-3.2 18.5-19z"/><path fill="#887166" fill-opacity=".5" d="M19.3 95l53.1-1 .5 28.2-53.1 1z"/><path fill="#3c1f0e" fill-opacity=".5" d="M194.6 132l14.2-9.6 4.4 6.5-14.2 9.6z"/><path fill="#1c2317" fill-opacity=".5" d="M291.5 92.7L266.7 96l-3.5-24.7 24.8-3.5z"/><path fill="#45474d" fill-opacity=".5" d="M220.7 122.1l-22.8 5.3-4.6-19.8 22.9-5.3z"/><path fill="#665b56" fill-opacity=".5" d="M44.6 73.7l15.5-1.9 3 24.8-15.4 2z"/><path fill="#081c16" fill-opacity=".5" d="M110.8 59.8L88 65.1l-.4-1.5 22.9-5.3z"/><path fill="#be9ca0" fill-opacity=".5" d="M307.2 9l36.5-17.8.7 1.4-36.5 17.8z"/><path fill="#d6cec2" fill-opacity=".5" d="M413.3 53.6v1.6l-28.2-1v-1.6z"/><path fill="#dbe7f7" fill-opacity=".5" d="M115.9-18.7l-5.6 45-49.6-6 5.5-45z"/><path fill="#071804" fill-opacity=".5" d="M367.1 64.3l.2-3.1 29.6 1v3.2z"/><path fill="#69493f" fill-opacity=".5" d="M79.5 198.4l-10.1-14 21.4-15.6 10.2 14z"/><path fill="#b19180" fill-opacity=".5" d="M164.9 163.5L162 153l9-2.5 3 10.6z"/><path fill="#866251" fill-opacity=".5" d="M274.3 234l-90.8-63.7 6.2-9 91 63.7z"/><path fill="#364323" fill-opacity=".5" d="M274 45l47.8 8.4-.6 3.1-47.7-8.4z"/><path fill="#b9a18e" fill-opacity=".5" d="M433.5 70.5L333.6 67v-1.6l100 3.5z"/><path fill="#7f533d" fill-opacity=".5" d="M112.7 142l14.6 47.8L114 194l-14.7-47.8z"/><path fill="#cacfd7" fill-opacity=".5" d="M174.2 43.5l7.2 5.9-19.6 24.3-7.3-6z"/><path fill="#e5eefd" fill-opacity=".5" d="M237.6 3.9l55.6-24.8 8.3 18.6-55.7 24.8z"/><path fill="#283447" fill-opacity=".5" d="M171.1 102l1.6-21.9 10.9.8-1.6 21.8z"/><path fill="#80674e" fill-opacity=".5" d="M106.5 80l2.3 4-32.5 18.8-2.3-4z"/><path fill="#271a10" fill-opacity=".5" d="M155.7 147.8l15.1-13.5 6.3 7-15.1 13.5z"/><path fill="#2b3043" fill-opacity=".5" d="M198.7 39.6L182.5 49l-1.6-2.7 16.3-9.4z"/><path fill="#c0c7cd" fill-opacity=".5" d="M234.6 70.6l7.7-1.5 6 30.6-7.7 1.5z"/><path fill="#0f3017" fill-opacity=".5" d="M273.1 55.6l18.2 4.5-.4 1.5-18.2-4.5z"/><path fill="#968f94" fill-opacity=".5" d="M340.4-6L427 6l-.2 1.5-86.6-12.1z"/><path fill="#c3d2e5" fill-opacity=".5" d="M220.5 46.7l-2 2.4-15.6-13 2-2.4z"/><path fill="#47556b" fill-opacity=".5" d="M192.5 138.1L179 171.4l-4.3-1.7 13.5-33.3z"/><path fill="#4b5349" fill-opacity=".5" d="M80.3 24.1l6.2-1L90 43l-6.2 1z"/><path fill="#5c4844" fill-opacity=".5" d="M245 106.9l-4.2 16.7-3-.8 4.2-16.7z"/><path fill="#b8a198" fill-opacity=".5" d="M154.2 128.6l-7.4 17.3-24.4-10.4 7.3-17.3z"/><path fill="#2c3436" fill-opacity=".5" d="M122.9 34.7l-8.2-20.3 1.5-.6 8.2 20.3z"/><path fill="#3c2c22" fill-opacity=".5" d="M76.9 197.7l-31.1 18-8.6-15 31.1-18z"/><path fill="#363b2a" fill-opacity=".5" d="M327.5 9l.4 1.6-25.7 6.9-.4-1.5z"/><path fill="#1b332b" fill-opacity=".5" d="M13.6 37.6l.5 3-26.1 4.7-.6-3.1z"/><path fill="#a09d9c" fill-opacity=".5" d="M250.6 153.1l-12.9 30.2-8.6-3.6 12.8-30.2z"/><path fill="#708097" fill-opacity=".5" d="M198.2 125.5l-1.6.4-15-65.5 1.4-.3z"/><path fill="#44493c" fill-opacity=".5" d="M358.3-5L339 32.7l-8.3-4.2 19.1-37.6z"/><path fill="#806155" fill-opacity=".5" d="M330.2 170.8l-43.5-12.4 3.4-12 43.6 12.4z"/><path fill="#bfa090" fill-opacity=".5" d="M257.1 131.3l18.5 3.3-3 16.9-18.5-3.3z"/><path fill="#9a735f" fill-opacity=".5" d="M152.6 194.7l-4.3 1.9-27.5-64.8 4.3-1.8z"/><path fill="#b29888" fill-opacity=".5" d="M407.2 198l-35.8-22.3 4.2-6.6 35.8 22.4z"/><path fill="#a3a7ab" fill-opacity=".5" d="M155.1 23.4l2.3-4 32.8 18.1-2.3 4.1z"/><path fill="#1e2a1f" fill-opacity=".5" d="M76.4 46l.2 1.5-17.1 1.8-.2-1.5z"/><path fill="#9c8578" fill-opacity=".5" d="M76.2 172.8l-24.1-40.1 1.3-.8L77.6 172z"/><path fill="#a56a4d" fill-opacity=".5" d="M219.7 143.1l4.8 14.9-20.8 6.7L199 150z"/><path fill="#655b49" fill-opacity=".5" d="M348.8 86.4l15.5-2.4 1 6.1-15.5 2.5z"/><path fill="#4c3025" fill-opacity=".5" d="M229.8 169.8l-6.9 14-4.2-2 6.8-14z"/><path fill="#99847a" fill-opacity=".5" d="M55 145.3l-17.1 1.5-3.8-43.6 17-1.5z"/><path fill="#8892a3" fill-opacity=".5" d="M168.1 66.4l12.2 7-3.1 5.5-12.2-7z"/><path fill="#f2f6fb" fill-opacity=".5" d="M195.4 20.9l47.8-14.7 3.6 12L199 32.8z"/><path fill="#355025" fill-opacity=".5" d="M316.6 72.5l1.5 6-39.4 10-1.5-6.1z"/><path fill="#563a32" fill-opacity=".5" d="M112.4 101.6l.8 1.3-5.3 3.3-.8-1.3z"/><path fill="#dabca9" fill-opacity=".5" d="M197.6 136.3l1.6 12.4-7.8 1-1.5-12.5z"/><path fill="#454b3b" fill-opacity=".5" d="M243 31.3l-34.3 3-.1-1.5 34.2-3z"/><path fill="#574633" fill-opacity=".5" d="M2.8 93.5l9.9-7.6L30 108l-9.9 7.7z"/><path fill="#7a6a5f" fill-opacity=".5" d="M60.8 55.9l-41.5-7.3L22 33.2l41.5 7.3z"/><path fill="#484d3e" fill-opacity=".5" d="M58.9 33.7L40.2 47.8l-3.8-5 18.7-14z"/><path fill="#69311e" fill-opacity=".5" d="M123.6 97.8l-3-.4 1-9.3 3.2.4z"/><path fill="#edf2f6" fill-opacity=".5" d="M246 3.1l1 1.2-35.2 28.5-1-1.2z"/><path fill="#37383a" fill-opacity=".5" d="M192.5 28L182 37.2l-1-1.1 10.6-9.3z"/><path fill="#7a8aa3" fill-opacity=".5" d="M178.4 123.2l14 .5-.5 14-14-.4z"/><path fill="#354537" fill-opacity=".5" d="M106 31.9l-38.2 8-.3-1.4 38.2-8.2z"/><path fill="#595f67" fill-opacity=".5" d="M254.5 85.6l-1.3 9.3-6.2-.8 1.3-9.3z"/><path fill="#3b462a" fill-opacity=".5" d="M356.5 63.6l50.8-50.8 3.4 3.3-50.9 50.8z"/><path fill="#774f3a" fill-opacity=".5" d="M409.6 206.6l-3.4 3.2-17.4-18 3.4-3.2z"/><path fill="#110f0e" fill-opacity=".5" d="M175.9 174.2l1.5.5-14.2 49.5-1.5-.4z"/><path fill="#314a37" fill-opacity=".5" d="M284.1 9.1l1.7 2.7-18.3 11.9-1.7-2.6z"/><path fill="#555253" fill-opacity=".5" d="M126.5 101l1.4-.8 9.6 16-1.3.8z"/><path fill="#7e7a5e" fill-opacity=".5" d="M300 43.7L254.8 47l-.1-1.6 45.2-3.1z"/><path fill="#67371c" fill-opacity=".5" d="M146 162.5l-7.6 1.4-1.7-9.2 7.7-1.4z"/><path fill="#85685c" fill-opacity=".5" d="M351.7 101.6l-.8 4.6-35.4-6.2.8-4.6z"/><path fill="#aba4a3" fill-opacity=".5" d="M102 41.9l-.3-1.6 29.1-5.6.3 1.5z"/><path fill="#8a6e64" fill-opacity=".5" d="M98.4 105.5l3-1.1 11.1 29.2-2.9 1z"/><path fill="#898e72" fill-opacity=".5" d="M428 34.3l-.1 1.5-57.5-6 .2-1.6z"/><path fill="#3b4728" fill-opacity=".5" d="M312 27l-53 27-.7-1.4 53-27z"/><path fill="#786c61" fill-opacity=".5" d="M374 4.4l-44.6 19-1.8-4.4L372.2.1z"/><path fill="#867880" fill-opacity=".5" d="M302.9 5.2l-8.2 4.6-2.3-4.1 8.2-4.6z"/><path fill="#634330" fill-opacity=".5" d="M21.6 188l-19-13.8 5.5-7.5 19 13.7z"/><path fill="#3e0000" fill-opacity=".5" d="M199.4 48.3l-1.4-.9 4.2-6.6 1.3.8z"/><path fill="#a78a82" fill-opacity=".5" d="M95.4 168.3l-1.2.9-19.3-26.5 1.2-1z"/><path fill="#b49485" fill-opacity=".5" d="M128.6 126.8l1.4-.7 24.2 45.5-1.4.7z"/><path fill="#5f3e30" fill-opacity=".5" d="M48 160.8l25 18.8-3.8 5-25-18.9z"/><path fill="#403e50" fill-opacity=".5" d="M166.3 108l-17.3 7.3-1.2-3 17.3-7.2z"/><path fill="#ccaa97" fill-opacity=".5" d="M110.9 99.5l-8.9-8.8 20-20 8.8 9z"/><path fill="#b2bbc3" fill-opacity=".5" d="M240.9 166.2l-1.5-.4 18.2-68 1.5.5z"/><path fill="#a7917b" fill-opacity=".5" d="M346.7 116.5l89.5 14.2-3.2 20-89.5-14.2z"/><path fill="#8295af" fill-opacity=".5" d="M248.1 59L228 44.5l3.7-5L251.8 54z"/><path fill="#90776b" fill-opacity=".5" d="M275.7 183.4l-10.6 9.2-26.7-30.7 10.6-9.2z"/><path fill="#987a69" fill-opacity=".5" d="M368.8 187.7l-10.1-27.9 14.7-5.3 10.1 27.9z"/><path fill="#91706d" fill-opacity=".5" d="M114.3 49.4l4.7-8.1 2.7 1.5L117 51z"/><path fill="#f2faff" fill-opacity=".5" d="M137.9 22.8L127 24l-.8-7.8 10.9-1.1z"/><path fill="#0a0e09" fill-opacity=".5" d="M342.9 98.9l-29.2-5.7 1.2-6.1 29.2 5.6z"/><path fill="#ae9891" fill-opacity=".5" d="M88 39.6l.7-1.5 18.6 8.3-.7 1.4z"/><path fill="#504c52" fill-opacity=".5" d="M322.9-6.6l-20.4 17.1-2-2.4 20.4-17z"/><path fill="#1b3721" fill-opacity=".5" d="M-2.8 57l26.3 3.2-.4 3.1-26.3-3.2z"/><path fill="#bd9f8e" fill-opacity=".5" d="M272.6 109.1l.4-6.2 118.5 8.3-.5 6.2z"/><path fill="#c5c9d0" fill-opacity=".5" d="M143.8 86.9l1.6-.2 3 28-1.6.1z"/><path fill="#36221f" fill-opacity=".5" d="M118.8 58.4l-2.6-1.8 7.2-10.3 2.6 1.8z"/><path fill="#c0927c" fill-opacity=".5" d="M256.3 34.2l-.9 1.3-16.4-12 .9-1.2z"/><path fill="#dbac97" fill-opacity=".5" d="M303.3 23.6l-20 9-.6-1.5 20-9z"/><path fill="#c9d4de" fill-opacity=".5" d="M137.3 124.7l1.4-.8 6.8 12.3-1.4.8z"/><path fill="#324a35" fill-opacity=".5" d="M264.2 74.5l-3-15.4 20-3.9 3 15.4z"/><path fill="#2b4339" fill-opacity=".5" d="M373.2 9.5l.5-6.2 14 1.2-.5 6.3z"/><path fill="#a58d83" fill-opacity=".5" d="M343 59.1l-49.7 5.2-.4-3 49.8-5.3z"/><path fill="#b39c8a" fill-opacity=".5" d="M92.3 116.3l3-34.3 1.5.2-3 34.2z"/><path fill="#957f7a" fill-opacity=".5" d="M101.1 213.4l-1.4-.5 10.1-27.9 1.5.5z"/><path fill="#a99c99" fill-opacity=".5" d="M234.5 121l2.8 53.1-1.5.1-2.8-53z"/><path fill="#00010d" fill-opacity=".5" d="M163.2 118.2l-1.4-.7 7.8-15.4 1.4.8z"/><path fill="#667186" fill-opacity=".5" d="M129 103.5l1.4-25 14 .8-1.3 25z"/><path fill="#806d64" fill-opacity=".5" d="M70 86.8L89.4 100l-7.8 11.7L62 98.5z"/><path fill="#605753" fill-opacity=".5" d="M120.7 31.2L97.2 43.6l-.7-1.3L120 29.8z"/><path fill="#363a19" fill-opacity=".5" d="M77 92l4.2-13.4 9 2.8L86 94.8z"/><path fill="#20341f" fill-opacity=".5" d="M89.1 60.4l-.2 1.5-14-2 .3-1.5z"/><path fill="#87846b" fill-opacity=".5" d="M25.8 157.8l23.7 17.9-1.9 2.4L24 160.3z"/><path fill="#545e70" fill-opacity=".5" d="M213.3 86l17 24.3-7.7 5.3-17-24.3z"/><path fill="#322f25" fill-opacity=".5" d="M25.4 84.1l10 4.3-3 7.2-10-4.3z"/><path fill="#787e8e" fill-opacity=".5" d="M192.1 36.7L211 83l-1.5.6-18.7-46.3z"/><path fill="#97887f" fill-opacity=".5" d="M-8 54.9l-.6-1.4 21.2-10 .7 1.5z"/><path fill="#5a4940" fill-opacity=".5" d="M301 88.9l9.1-2.4L313 97l-9 2.5z"/><path fill="#624530" fill-opacity=".5" d="M344.5 166.5l1.8-9.2 13.8 2.7-1.7 9.2z"/><path fill="#7f7f73" fill-opacity=".5" d="M-3 96.7l-1.1-1 21-25.2 1.3 1z"/><path fill="#2a201d" fill-opacity=".5" d="M158.4 140.6l-1.3-.9 23.6-35 1.3 1z"/><path fill="#75675b" fill-opacity=".5" d="M364.3 48.4l-59-25 .7-1.5 59 25z"/><path fill="#544c49" fill-opacity=".5" d="M152.6 119.9l1.5-.2 7.4 52.6-1.5.2z"/><path fill="#c3bfbd" fill-opacity=".5" d="M152 52.5l-24.6-19.2 9.6-12.4 24.7 19.3z"/><path fill="#aca19c" fill-opacity=".5" d="M131.4 71.4l-6.5 52.7-1.6-.2 6.5-52.7z"/><path fill="#343c2b" fill-opacity=".5" d="M36.2 55.1l.5-1.4 13 5.2-.5 1.5z"/><path fill="#dcbeab" fill-opacity=".5" d="M258.6 121.7l-6.8-6.5 13-13.5 6.8 6.5z"/><path fill="#786c65" fill-opacity=".5" d="M160.3 179.8l7.8-.2 1.3 39-7.8.3z"/><path fill="#2f3631" fill-opacity=".5" d="M32 82v-1.5L63.2 79l.1 1.5z"/><path fill="#2b420d" fill-opacity=".5" d="M328.6 75.9l-23.3 2.8-1.1-9.3 23.3-2.8z"/><path fill="#a07f76" fill-opacity=".5" d="M280.9 36.7l-9.2-1.8 2-10.7L283 26z"/><path fill="#d9dcde" fill-opacity=".5" d="M159.4 88.1l1.5-43.7 9.4.3-1.5 43.7z"/><path fill="#bd9579" fill-opacity=".5" d="M173 146l-8.6 16.6-1.4-.7 8.5-16.7z"/><path fill="#aba9ab" fill-opacity=".5" d="M153.6 154.6l-3.9-6.8 1.4-.8 3.9 6.8z"/><path fill="#9f9a93" fill-opacity=".5" d="M113.4 55.6l15.5 1.3v1.6L113.1 57z"/><path fill="#bea596" fill-opacity=".5" d="M197.9 49.8l-7.3-2.8.6-1.5 7.3 2.8z"/><path fill="#303122" fill-opacity=".5" d="M333.2 25.5l-.3-1.5 19.8-4.2.4 1.5z"/><path fill="#a58579" fill-opacity=".5" d="M265.7 105.4v-1.6l129.5-4.5.1 1.6z"/><path fill="#222115" fill-opacity=".5" d="M73.6 89.8L62 94.1l-2.7-7.4L71 82.5z"/><path fill="#60635e" fill-opacity=".5" d="M108.5 26.4v1.5l-49.8 3.5-.1-1.5z"/><path fill="#976c63" fill-opacity=".5" d="M120 87.8l.3 1.5-10.6 2.6-.4-1.5z"/><path fill="#96aabd" fill-opacity=".5" d="M248.3 72.8l12.4 1.3-1.1 10.9-12.5-1.3z"/><path fill="#2d261d" fill-opacity=".5" d="M257 95v-1.5l106.3 3.7v1.5z"/><path fill="#233316" fill-opacity=".5" d="M385 35.6l4.7-6.2 23.7 17.8-4.7 6.3z"/><path fill="#725e4f" fill-opacity=".5" d="M3.3 193L-.2 93h1.6l3.5 100z"/><path fill="#92946f" fill-opacity=".5" d="M114 69.2l12-3.7 2.2 7.5-12 3.7z"/><path fill="#d1dcea" fill-opacity=".5" d="M-26 .5l53-1 .6 32.8-53 1z"/><path fill="#785b53" fill-opacity=".5" d="M194.9 176.9l-4.3 6.6-18.3-12 4.2-6.5z"/><path fill="#97796d" fill-opacity=".5" d="M308.7 150.3l-38-8.8 3.4-15.2 38 8.8z"/><path fill="#766769" fill-opacity=".5" d="M389.5 45.6l.9-1.3L408.9 56l-.8 1.3z"/><path fill="#8a6953" fill-opacity=".5" d="M254.1 123.4l1.6.1-2 39H252z"/><path fill="#ad9489" fill-opacity=".5" d="M253 167.2l2-10.8 15.4 3-2 10.7z"/><path fill="#f5f4f2" fill-opacity=".5" d="M154.5 68.7l6 19.4-13.5 4.1-6-19.4z"/><path fill="#a9a29d" fill-opacity=".5" d="M171.3 111.1l1 3-4.6 1.4-.9-3z"/><path fill="#af8f7c" fill-opacity=".5" d="M343 72.4V66l31.3.6-.1 6.2z"/><path fill="#a5a4a8" fill-opacity=".5" d="M239.4 82.2l9.4 23.1-11.6 4.7-9.4-23.2z"/><path fill="#7c665b" fill-opacity=".5" d="M288.7 174.3l4.3-6.4 32.4 21.8-4.4 6.5z"/><path fill="#dcd8d4" fill-opacity=".5" d="M139.7 41.5l17.5 25.9-7.8 5.2-17.5-25.9z"/><path fill="#be9d8d" fill-opacity=".5" d="M407 179.4l-35.6 15.8-2-4.2 35.8-16z"/><path fill="#a4897a" fill-opacity=".5" d="M340 162.7l32.3 66-1.4.7-32.2-66z"/><path fill="#29341e" fill-opacity=".5" d="M354.7 86.3l-2.1-7.5 25.5-7.3 2.1 7.5z"/><path fill="#d4cdcf" fill-opacity=".5" d="M109.8 102.3l-2.2-7.5 6-1.8 2.2 7.5z"/><path fill="#9c9da4" fill-opacity=".5" d="M139.2 133.6l-3.4-49.9 1.5-.1 3.5 49.9z"/><path fill="#e3ecf5" fill-opacity=".5" d="M213.2 7.4l7.1-20.7 40 13.7-7.2 20.7z"/><path fill="#7d8c68" fill-opacity=".5" d="M277.8 41l1.3 1-11.6 18.5-1.3-.9z"/><path fill="#74776f" fill-opacity=".5" d="M55.7 81.5l-1.5.4L49 60.7l1.6-.4z"/><path fill="#c1a692" fill-opacity=".5" d="M319.7 78.5l21.7 2.3-.1 1.6-21.8-2.3z"/><path fill="#dfe9f7" fill-opacity=".5" d="M119.6 20.6L113.2-2l37.5-10.7 6.5 22.5z"/><path fill="#6a4a38" fill-opacity=".5" d="M15.5 171l-5.3-14.8 10.2-3.7 5.4 14.7z"/><path fill="#b09c9e" fill-opacity=".5" d="M293.1 12.4l-1-1.2 19.5-15.8 1 1.2z"/><path fill="#381915" fill-opacity=".5" d="M188.5 49.6l9.3.8-.4 4.7-9.3-.8z"/><path fill="#8b7567" fill-opacity=".5" d="M331.2 158.8l-1.4-20.3 28-2 1.5 20.3z"/><path fill="#1f2f22" fill-opacity=".5" d="M51.6 68.6l-2.5 5.7-8.6-3.8 2.6-5.7z"/><path fill="#202b17" fill-opacity=".5" d="M316.4 28l3.6 8.7-13 5.5-3.6-8.6z"/><path fill="#27381e" fill-opacity=".5" d="M395.3 58.6l-12.7 6-1.4-2.9 12.8-6z"/><path fill="#6d7460" fill-opacity=".5" d="M-16.4 67.5v-4.7l34.3-.6.1 4.7z"/><path fill="#d2deec" fill-opacity=".5" d="M-8.8-9l70.2-3.8 2 39-70 3.8z"/><path fill="#d1daf6" fill-opacity=".5" d="M162.5 102.9l-14 .5v-1.6l14-.5z"/><path fill="#977464" fill-opacity=".5" d="M363 204.6l32-16.3 2.9 5.5-32 16.4z"/><path fill="#a6746c" fill-opacity=".5" d="M208.6 42.7l2 2.3-11.3 10.7-2.2-2.3z"/><path fill="#928981" fill-opacity=".5" d="M381.6-11L365 13.4l-1.3-.8L380.3-12z"/><path fill="#1a1c25" fill-opacity=".5" d="M135.8 64.4l-12-20.1 1.3-.8 12 20z"/><path fill="#837569" fill-opacity=".5" d="M85 55.8l-.2 1.5L16.6 49l.2-1.5z"/><path fill="#757f70" fill-opacity=".5" d="M45.6 93.2l-31.1-21 .9-1.3 31 21z"/><path fill="#bd9687" fill-opacity=".5" d="M195.1 180.5l8.5 9.2-3.4 3.2-8.5-9.2z"/><path fill="#90705e" fill-opacity=".5" d="M109.6 152.7l10.4-9.4 22 24.3-10.5 9.5z"/><path fill="#340800" fill-opacity=".5" d="M197.5 133.2l5.6 2.8-2.2 4.2-5.5-2.8z"/><path fill="#75665e" fill-opacity=".5" d="M47.7 43.4l-21.8 8.8-6.4-16 21.7-8.7z"/><path fill="#2c371c" fill-opacity=".5" d="M253 25.4l13-5.3 1.3 3-13 5.2z"/><path fill="#73534a" fill-opacity=".5" d="M148.1 121l-3 5.5-4.1-2.2 3-5.5z"/><path fill="#97a7be" fill-opacity=".5" d="M188.6 59.3l6-1.7 9 31.5-6 1.8z"/><path fill="#90766b" fill-opacity=".5" d="M224.1 181.5l15.4 3-2.7 13.7-15.3-3z"/><path fill="#937d73" fill-opacity=".5" d="M323.7 222.5l-9 6.1-52.5-77.7 9-6.1z"/><path fill="#7d746c" fill-opacity=".5" d="M357.9 37l35-23.7.8 1.3-35 23.6z"/><path fill="#292a1a" fill-opacity=".5" d="M329.8 50.4l-.2 4.6-20.3-.7.2-4.7z"/><path fill="#f0f4f9" fill-opacity=".5" d="M222.7 9.8L192.5 37l-4.2-4.6 30.2-27.2z"/><path fill="#606242" fill-opacity=".5" d="M339.4 31.2l-51 52.8-1.2-1.1 51-52.8z"/><path fill="#384557" fill-opacity=".5" d="M175.1 141.2l12.6 6.3-5 9.8-12.5-6.4z"/><path fill="#424f34" fill-opacity=".5" d="M309.6 15l-15.7 7-2-4.2 15.8-7z"/><path fill="#616f81" fill-opacity=".5" d="M179.5 53.7l-1.5-.3 6.5-30.6 1.5.4z"/><path fill="#131512" fill-opacity=".5" d="M284.2 77.1l-21.3 5-1.8-7.7 21.3-4.9z"/><path fill="#8f9184" fill-opacity=".5" d="M347.1 27.7l-7.8.8-.5-4.6 7.8-.9z"/><path fill="#2f341d" fill-opacity=".5" d="M358.3 16.5l.5-1.5 18.9 7.6-.6 1.5z"/><path fill="#5f687e" fill-opacity=".5" d="M190.9 134.8l1.1 1-25 27.9-1.2-1z"/><path fill="#6d7361" fill-opacity=".5" d="M237 29l-12.5 1.3-.5-4.6 12.4-1.3z"/><path fill="#af8e82" fill-opacity=".5" d="M396.5 166.4l3.9 18.4-1.6.3-3.9-18.3z"/><path fill="#99ad8b" fill-opacity=".5" d="M264.5 59.5l-.9-1.3 14-9.9 1 1.3z"/><path fill="#646b5f" fill-opacity=".5" d="M49.6 79.5l-1 1.2-21.6-18 1-1.2z"/><path fill="#312019" fill-opacity=".5" d="M15 118l-2-18.6 1.6-.2 2 18.6z"/><path fill="#5d5b46" fill-opacity=".5" d="M280 61.4l-.6-1.5 79.7-32.2.6 1.5z"/><path fill="#5d342a" fill-opacity=".5" d="M94.5 165l-1.6-.4 1.7-9.2 1.5.3z"/><path fill="#51533b" fill-opacity=".5" d="M273.4 43.9l-36.2-9.7.4-1.5 36.2 9.7z"/><path fill="#b5b2b5" fill-opacity=".5" d="M232.9 147.2l9.3 1-1.6 15.5-9.4-1z"/><path fill="#997e71" fill-opacity=".5" d="M379.3 150.8l1.5-.4 10.2 44.2-1.5.3z"/><path fill="#060404" fill-opacity=".5" d="M267.4 91.8l2-5.9 14.8 5.1-2 5.9z"/><path fill="#5f6050" fill-opacity=".5" d="M42.9 97.7l-.8-1.3 26-14.4.7 1.3z"/><path fill="#ced2d6" fill-opacity=".5" d="M255.2 90.6h1.5l-1 26.6h-1.5z"/><path fill="#baa898" fill-opacity=".5" d="M78.2 31.5l-4 2.4-.8-1.3 4-2.4z"/><path fill="#0e1f08" fill-opacity=".5" d="M388.2 71.8l24.6 16.6-2.6 3.9-24.6-16.6z"/><path fill="#9c887f" fill-opacity=".5" d="M8.8 135.1l1.5.2L8.4 157l-1.5-.2z"/><path fill="#a27d70" fill-opacity=".5" d="M92.9 127.6l7.8-.5 1.7 25-7.8.5z"/><path fill="#cfd2d2" fill-opacity=".5" d="M387-6.2l.9-1.3 23.5 15.3-.8 1.3z"/><path fill="#a2978e" fill-opacity=".5" d="M87.7 60.6l-.7-1.4 23.7-12 .7 1.4z"/><path fill="#896856" fill-opacity=".5" d="M209.9 133.7l18.2-17 1.1 1.1-18.3 17z"/><path fill="#7e7d84" fill-opacity=".5" d="M139.2 134.3l10.9.2-.2 11-11-.3z"/><path fill="#77584d" fill-opacity=".5" d="M368.8 178.2l-3.1-.1 1.4-42.2 3.2.1z"/><path fill="#c6997f" fill-opacity=".5" d="M125.4 116.8l6-1.5 7.3 28.8-6.1 1.5z"/><path fill="#c6c8cc" fill-opacity=".5" d="M161 28.8l15.6-1.3 1.5 17.1-15.6 1.4z"/><path fill="#494840" fill-opacity=".5" d="M366.7 46.4l.3-1.5 58.5 10.3-.3 1.5z"/><path fill="#635453" fill-opacity=".5" d="M177.8 131.4l.5 4.7-23.2 2.8-.6-4.6z"/><path fill="#a48782" fill-opacity=".5" d="M354.5 51.5l4.6 6.3-15.2 11-4.6-6.3z"/><path fill="#aba19f" fill-opacity=".5" d="M133.1 33.3l-2.1-6 25-9 2 5.9z"/><path fill="#4f4e36" fill-opacity=".5" d="M297 10.4l1.1 1.1-21.7 20.3-1-1.2z"/><path fill="#b28370" fill-opacity=".5" d="M194.3 167.7l-2.9-1.3 15.9-35.7 2.9 1.3z"/><path fill="#724a35" fill-opacity=".5" d="M135.6 199l-8-13.4 13.4-8 8 13.4z"/><path fill="#384030" fill-opacity=".5" d="M16.6 51.8l-8.5 4-1.3-2.9 8.5-4z"/><path fill="#262e36" fill-opacity=".5" d="M193.7 14h1.6v4.7h-1.5z"/><path fill="#3f432d" fill-opacity=".5" d="M114 71.8l-11.6 14.7-8.6-6.7L105.4 65z"/><path fill="#684b41" fill-opacity=".5" d="M40.7 182.3l14-6.9 6.2 12.7-14 6.8z"/><path fill="#b0a596" fill-opacity=".5" d="M323.3 14.9l-10 4.4-.6-1.4 10-4.4z"/><path fill="#8b878b" fill-opacity=".5" d="M250 74.7l1.6.3-12.6 64.4-1.5-.3z"/><path fill="#090000" fill-opacity=".5" d="M165.6 117.1l-.2 1.6-17-3 .3-1.6z"/><path fill="#031018" fill-opacity=".5" d="M184.2 54.7l-2.7-10.6 1.5-.4 2.7 10.6z"/><path fill="#8c776a" fill-opacity=".5" d="M330.4 34.2l-18 9.5-.6-1.3 17.9-9.6z"/><path fill="#e8f1fb" fill-opacity=".5" d="M190.2 19.9l-10.6 6.6-18.2-29.2L172-9.3z"/><path fill="#63463a" fill-opacity=".5" d="M377.3 165.7l24.5-4.8.6 3-24.5 4.9z"/><path fill="#7a5948" fill-opacity=".5" d="M63.5 152.4l4.8-16.5 13.5 3.9-4.8 16.5z"/><path fill="#0d2712" fill-opacity=".5" d="M263.1 55.3l-3.8-6.8 4.1-2.3 3.8 6.9z"/><path fill="#6f676d" fill-opacity=".5" d="M203 41.6l-14-2 .2-1.5 14 2z"/><path fill="#8d533d" fill-opacity=".5" d="M199 140.6l2 14-1.6.1-2-13.9z"/><path fill="#9f9185" fill-opacity=".5" d="M37.3 38.7l-17-2.4.2-1.6 17 2.4z"/><path fill="#4e4740" fill-opacity=".5" d="M401.6 88.3l2.8 3.8-7.6 5.5-2.8-3.8z"/><path fill="#19250f" fill-opacity=".5" d="M327.7 25.4l9 2.4-.3 1.5-9.1-2.4z"/><path fill="#4e5a44" fill-opacity=".5" d="M338.7 93.4l-32.8-18.2.7-1.4L339.4 92z"/><path fill="#9b8170" fill-opacity=".5" d="M345.8 183.8l43.2-51.4 1.2 1-43.2 51.4z"/><path fill="#8a6d63" fill-opacity=".5" d="M261 163.1l15.8 32.3-11.3 5.5-15.7-32.3z"/><path fill="#a58d82" fill-opacity=".5" d="M186.2 149.7l4.6 1-3.6 16.8-4.6-1z"/><path fill="#49494c" fill-opacity=".5" d="M295.6-5.8l.6-1.4L334 7.3l-.6 1.5z"/><path fill="#474f4c" fill-opacity=".5" d="M300 4.4l-.7 1.3-4-2.2.7-1.4z"/><path fill="#a2adc3" fill-opacity=".5" d="M175.3 159L165 174.7l-1.3-.9 10.2-15.7z"/><path fill="#ecf3f6" fill-opacity=".5" d="M107.2 9.4L118.8 28l-2.6 1.6-11.6-18.5z"/><path fill="#a38a81" fill-opacity=".5" d="M83.7 112.4l3 42.1-3.2.2-3-42z"/><path fill="#684b3e" fill-opacity=".5" d="M384.4 144.5l4.6-.9 6.3 32.2-4.6 1z"/><path fill="#c1a090" fill-opacity=".5" d="M269.2 23.4l8.3 13.3-1.4.8-8.2-13.2z"/><path fill="#836459" fill-opacity=".5" d="M76 188l-14.4-39.6 1.5-.5 14.4 39.6z"/><path fill="#7a623f" fill-opacity=".5" d="M342.6 104l-1 4.6-7.6-1.7 1-4.5z"/><path fill="#6f817c" fill-opacity=".5" d="M271.3 66.6l.5 1.5-13.4 4.3-.5-1.4z"/><path fill="#131f18" fill-opacity=".5" d="M95.5 64l12-7.2 1.7 2.6-12 7.3z"/><path fill="#424760" fill-opacity=".5" d="M145.1 105.8l.6-3 13.8 2.4-.5 3z"/><path fill="#c4a38d" fill-opacity=".5" d="M414.3 113l1 14-31.2 2.2-1-14z"/><path fill="#57555d" fill-opacity=".5" d="M137.5 73.7l6.2 16-1.5.6-6.2-16z"/><path fill="#2a2f1e" fill-opacity=".5" d="M343.9 40l3.8 7-15 8.2-3.8-6.8z"/><path fill="#765a51" fill-opacity=".5" d="M22.6 104.1l8.7 3.4L19.6 138l-8.8-3.4z"/><path fill="#a2a2ac" fill-opacity=".5" d="M134.5 51.9l-1.5.4-3.4-12 1.5-.4z"/><path fill="#16120e" fill-opacity=".5" d="M398.5 95l-.3 3.1-38.9-4 .3-3.2z"/><path fill="#283021" fill-opacity=".5" d="M288.8 63.5l-1-6.1 3-.6L292 63z"/><path fill="#7b5d49" fill-opacity=".5" d="M132.8 236l-3-86h1.5l3 85.9z"/><path fill="#574951" fill-opacity=".5" d="M271.9 83.6l-10 7.5-1-1.2 10-7.6z"/><path fill="#222b23" fill-opacity=".5" d="M401.1 37.8l-.8 7.7L366 42l.8-7.7z"/><path fill="#14301b" fill-opacity=".5" d="M29.2 68.1l.8 4.6-7.7 1.4-.8-4.6z"/><path fill="#c0a498" fill-opacity=".5" d="M105.1 108.1l25-2.1.7 9.3-24.9 2.2z"/><path fill="#150903" fill-opacity=".5" d="M154.1 190.5l-1.3-.8 4-6.7 1.4.8z"/><path fill="#6d7365" fill-opacity=".5" d="M55.9 58.8l.3-1.6L102 67.8l-.3 1.5z"/><path fill="#191819" fill-opacity=".5" d="M168 187.7l6.8-14 5.7 2.7-6.9 14z"/><path fill="#29150b" fill-opacity=".5" d="M238.4 114.1l1 1.2-13.7 12.8-1-1.2z"/><path fill="#8090aa" fill-opacity=".5" d="M187.2 64.8l19 30.5-1.2.8-19-30.5z"/><path fill="#9998a1" fill-opacity=".5" d="M135 64.6l1.4-.7 8.3 16.8-1.4.7z"/><path fill="#453329" fill-opacity=".5" d="M193.1 133.8l24-11.2.7 1.4-24 11.2z"/><path fill="#8e6c5c" fill-opacity=".5" d="M257.1 97.5l28 2v1.5l-28-2z"/><path fill="#a5b9d0" fill-opacity=".5" d="M240.3 53.2L235 61l-27-18.8 5.5-7.7z"/><path fill="#9eb8d0" fill-opacity=".5" d="M260.3 57.6l-2.3 2.1-19.9-22 2.3-2.1z"/><path fill="#27391d" fill-opacity=".5" d="M300.1 37.4l-16.5 4.8-.9-3 16.5-4.8z"/><path fill="#5f6e83" fill-opacity=".5" d="M182.4 165.8l-4.4 10-5.7-2.5 4.4-10z"/><path fill="#afa9a8" fill-opacity=".5" d="M107.7 33.6l.2 1.6-14 1.5-.2-1.6z"/><path fill="#918380" fill-opacity=".5" d="M353.8 14.5l4.9-27.7 1.5.3-4.8 27.7z"/><path fill="#857c6c" fill-opacity=".5" d="M366.5 9l.5-1.4L432 30l-.5 1.5z"/><path fill="#4d563c" fill-opacity=".5" d="M412.5-7.5l-27 40.2-2.7-1.8L410-9.2z"/><path fill="#a5bac9" fill-opacity=".5" d="M202.3 56l-18 9.6-.7-1.4 18-9.5z"/><path fill="#2c3116" fill-opacity=".5" d="M271.2 32.5l.6 1.4-10.2 4-.6-1.5z"/><path fill="#7c6257" fill-opacity=".5" d="M326 182.7l5-3.9 28.9 37-5 3.8z"/><path fill="#738364" fill-opacity=".5" d="M102.3 64.7l.1-1.5 34.3 1.8v1.5z"/><path fill="#484b32" fill-opacity=".5" d="M384.6 19l-10.9 1-.5-6.2 10.9-1z"/><path fill="#847d66" fill-opacity=".5" d="M384.8 69.6l-1.4-.5 2-5.9 1.6.5z"/><path fill="#553728" fill-opacity=".5" d="M89.8 212.6l-6-30.7 12.3-2.3 6 30.6z"/><path fill="#2e382e" fill-opacity=".5" d="M93 37.5h-9.4v-4.7H93z"/><path fill="#9b8072" fill-opacity=".5" d="M388.7 180.5l-75.4 20.2-.5-1.5 75.5-20.2z"/><path fill="#8ba586" fill-opacity=".5" d="M286.5 50.6l.3 1.5-9.2 2-.3-1.5z"/><path fill="#6e615c" fill-opacity=".5" d="M158.9 138.1l-1.6.2-2.1-15.5 1.5-.2z"/><path fill="#615f50" fill-opacity=".5" d="M55.5 36.3l1.1 1.1-45 43.5-1-1.2z"/><path fill="#9c786d" fill-opacity=".5" d="M136.4 208.8l-1.1-1.1 17.4-18 1 1z"/><path fill="#e0e3e3" fill-opacity=".5" d="M134.2 41l-1.9-4.3 10.1-4.3 1.8 4.3z"/><path fill="#3c4450" fill-opacity=".5" d="M218 106.3l-9.2 8.6-9.6-10.3 9.2-8.5z"/><path fill="#9b7d6d" fill-opacity=".5" d="M426 142.9l-53 23.5-.6-1.5 52.8-23.5z"/><path fill="#605a42" fill-opacity=".5" d="M287 51.4l2.7-5.6 15.5 7.5-2.8 5.6z"/><path fill="#474242" fill-opacity=".5" d="M160.4 155.3l.9 4.7-10.8 1.9-.8-4.7z"/><path fill="#7e6157" fill-opacity=".5" d="M57.1 136.6L45.3 162l-7.1-3.3L50 133.3z"/><path fill="#434e32" fill-opacity=".5" d="M132 63.3h-21.8v-3.1H132z"/><path fill="#9a8176" fill-opacity=".5" d="M300.4 178.6l37.5-22.6.8 1.4-37.5 22.5z"/><path fill="#68694a" fill-opacity=".5" d="M309.4 78.1v-1.5h48.4V78z"/><path fill="#998e81" fill-opacity=".5" d="M20.4 94.4l24 14.5-.7 1.4-24.1-14.5z"/><path fill="#ac887c" fill-opacity=".5" d="M322.7 99.8l-.1 6.2-65.6-1v-6.3z"/><path fill="#41342b" fill-opacity=".5" d="M292.3 95.2l64 3.4-.1 1.5-64-3.3z"/><path fill="#87705d" fill-opacity=".5" d="M59.4 112.5l-.8-1.4L111 79.7l.8 1.4z"/><path fill="#b2958e" fill-opacity=".5" d="M351.8 38.6l-7.7 1-.6-4.7 7.7-1z"/><path fill="#8d9dab" fill-opacity=".5" d="M181 25.1l-2.6 29.6-1.6-.1 2.6-29.6z"/><path fill="#b3b2b0" fill-opacity=".5" d="M104.8 44.3l-3.4 10.4-1.5-.5 3.4-10.4z"/><path fill="#797157" fill-opacity=".5" d="M296.8 40l1-1.3 10 7.3-.9 1.3z"/><path fill="#a08479" fill-opacity=".5" d="M97.8 46.3l-4.7-.5 1.3-12.4 4.7.5z"/><path fill="#4a5775" fill-opacity=".5" d="M176.2 89.6l11-1 .6 7.8-10.9 1z"/></svg>