<svg xmlns="http://www.w3.org/2000/svg" viewBox="0 0 400 200"><path fill="#9e8a6e" d="M0 0h400v200H0z"/><path fill="#ffffeb" fill-opacity=".5" d="M401.6 55.9L3.7 76.7l-6.9-131 398-20.9z"/><path fill="#251501" fill-opacity=".5" d="M5 122.5l397.9 20.8-6.3 120.2-398-20.9z"/><path fill="#826c50" fill-opacity=".5" d="M-2.6 109l398.3 7-.9 51.5-398.3-7z"/><path fill="#271c0d" fill-opacity=".5" d="M73.3 196.8l355-31 3 35.8-354.8 31z"/><path fill="#f4dbb4" fill-opacity=".5" d="M-89-4.6L276.7-11l1.4 79.7L-87.6 75z"/><path fill="#b49570" fill-opacity=".5" d="M405 55.7l-4.7 38.8L284 80.2l4.8-38.8z"/><path fill="#9f8563" fill-opacity=".5" d="M90.4 68.4l74.9-4 2.1 40.6-74.9 4z"/><path fill="#a58a68" fill-opacity=".5" d="M247.4 66.5l100.5-23.2L351 57 250.6 80.2z"/><path fill="#514029" fill-opacity=".5" d="M-56.4 158l266.2 23.3-5 56-266-23.3z"/><path fill="#fff5d2" fill-opacity=".5" d="M415.9 58L374 52.8l2.3-18.6 41.9 5.2z"/><path fill="#725e44" fill-opacity=".5" d="M-21 149.8l5.6-45L138 123.7l-5.5 45z"/><path fill="#382c1a" fill-opacity=".5" d="M356.2 210.2l-29.4-3.6 6-49.6 29.5 3.6z"/><path fill="#7d6d50" fill-opacity=".5" d="M206.4 153.3l-.3-20.3 198.4-3.5.3 20.3z"/><path fill="#f6e2c1" fill-opacity=".5" d="M233.6 50v20.3H196V50z"/><path fill="#d3c2a3" fill-opacity=".5" d="M214.7 56.8l-87.1-7.6 6.1-70 87.2 7.6z"/><path fill="#dfc7a5" fill-opacity=".5" d="M424 37.8l-155 19-10.3-83.7 155.1-19z"/><path fill="#f6e6c7" fill-opacity=".5" d="M304.9-5l-68.2 44.3-21.3-32.8 68.2-44.2z"/><path fill="#ae9574" fill-opacity=".5" d="M406.1 57.1l-11.5 72.6-64.8-10.3L341.3 47z"/><path fill="#f1e0c0" fill-opacity=".5" d="M-74 8.5l156.2-39 12 48.6-156 39z"/><path fill="#bea57e" fill-opacity=".5" d="M-44.6 74.5l.4-7.8L93 74l-.4 7.8z"/><path fill="#a18869" fill-opacity=".5" d="M123.2 62.1L211.8 81l-8.4 39.7-88.7-18.8z"/><path fill="#736045" fill-opacity=".5" d="M403.8 127.4l6 43.3-46.4 6.6-6-43.4z"/><path fill="#a08767" fill-opacity=".5" d="M364.8 136.2l-96-13.4 5.5-38.7 96 13.5z"/><path fill="#7f6c51" fill-opacity=".5" d="M131.6 149l-.6-18.7 170.2-6 .6 18.8z"/><path fill="#614e34" fill-opacity=".5" d="M178.3 197.3l-4.4-24.6L314 148l4.4 24.6z"/><path fill="#aa9071" fill-opacity=".5" d="M246.5 73.5l70-26.9 7.3 19-70 26.9z"/><path fill="#9b8263" fill-opacity=".5" d="M-15.6 79.6L242 111.2l-2.9 23.3-257.4-31.6z"/><path fill="#f0dcbc" fill-opacity=".5" d="M177.6 67.6l-57.7-4 1-14 57.6 4z"/><path fill="#f1debb" fill-opacity=".5" d="M211.5 50.4l48.7-11.2 4.9 21.3-48.7 11.2z"/><path fill="#3b301d" fill-opacity=".5" d="M289.3 168.3l49.3 7.8-7.5 47.8-49.4-7.8z"/><path fill="#d2bfa0" fill-opacity=".5" d="M192.7 52.4L99 49.1l.5-15.6 93.7 3.3z"/><path fill="#d3c09b" fill-opacity=".5" d="M74.8 76.2L4.6 73.8l.2-7.8 70.3 2.4z"/><path fill="#a58d6d" fill-opacity=".5" d="M119.2 65l106 7.5-2.3 32.7-106-7.4z"/><path fill="#ffefd2" fill-opacity=".5" d="M399.2 29l13.5 10.6L399.3 57l-13.6-10.6z"/><path fill="#d1bfa2" fill-opacity=".5" d="M452-5.3L347.1 50.4 334 25.6 438.8-30z"/><path fill="#d0bd9f" fill-opacity=".5" d="M96.2 50l-73-7.8 1-9.3 73 7.7z"/><path fill="#cdbc9d" fill-opacity=".5" d="M315.4 30.8l-1.3 18.7-53-3.7 1.3-18.7z"/><path fill="#e5d3b7" fill-opacity=".5" d="M294.3 31.6l-40.3-17 19-44.7L313.1-13z"/><path fill="#e6d5b6" fill-opacity=".5" d="M106.3-24.4l96 49-7 13.9-96.1-49z"/><path fill="#725d44" fill-opacity=".5" d="M132.6 167l2.2-31.2 71.7 5-2.2 31.2z"/><path fill="#ebd8b8" fill-opacity=".5" d="M188.3 72.6L184.5 51l53.8-9.5 3.8 21.6z"/><path fill="#a28b6b" fill-opacity=".5" d="M51.7 78.2l88-14 3.9 24.8-88 14z"/><path fill="#827054" fill-opacity=".5" d="M290 122.2l1.2 25-79.6 4-1.3-24.9z"/><path fill="#ab9272" fill-opacity=".5" d="M326.3 47.2l3.3 12.1-98.1 26.3-3.3-12z"/><path fill="#edd9b9" fill-opacity=".5" d="M91.5 72.6L17 64.8l2.5-23.3L94 49.3z"/><path fill="#624e37" fill-opacity=".5" d="M-10 131.9l13.8-2.2 7.8 49.4-13.9 2.2z"/><path fill="#362918" fill-opacity=".5" d="M216.4 196v6.3H94.5v-6.2z"/><path fill="#9c8567" fill-opacity=".5" d="M114.4 118l1-31.2 175 6.1-1.2 31.2z"/><path fill="#6b563d" fill-opacity=".5" d="M301.5 144.9l3.7 23.1-86.4 13.7-3.7-23.1z"/><path fill="#d3c2a5" fill-opacity=".5" d="M52.2-3.7L55-14.4l78.8 19.7-2.6 10.6z"/><path fill="#837255" fill-opacity=".5" d="M49.5 106.8l1 18.8-67.2 3.5-1-18.7z"/><path fill="#5f4d33" fill-opacity=".5" d="M31 156.7l109.2 3.8-.8 25L30 181.7z"/><path fill="#cbbca2" fill-opacity=".5" d="M168-10.7l40.3-5 3.4 28-40.3 5z"/><path fill="#f5e5c3" fill-opacity=".5" d="M87.1 16l1.4-4.5 47.8 14.7-1.4 4.4z"/><path fill="#b69e7d" fill-opacity=".5" d="M354.2 47.9l72 14-3.8 20-72.1-14z"/><path fill="#ebdab9" fill-opacity=".5" d="M320 16.6l12.2-2.8 5.6 24.3-12.2 2.8z"/><path fill="#ead7b7" fill-opacity=".5" d="M119.5 67.8l-39 3.4L79 52.5l39-3.4z"/><path fill="#d3c3a4" fill-opacity=".5" d="M230 19.5l-2.2 29.7-21.8-1.6 2-29.6z"/><path fill="#382b1a" fill-opacity=".5" d="M289.6 205.8l-79.5 5.6-1.3-18.8 79.5-5.5z"/><path fill="#e0ceb0" fill-opacity=".5" d="M43.2 35l-77.3 37.7-7.5-15.5 77.2-37.7z"/><path fill="#413321" fill-opacity=".5" d="M382.2 183.5l-9.2 18-47.4-24 9.2-18.1z"/><path fill="#f7e2c0" fill-opacity=".5" d="M409.2 51.5l-70-6.1v-1.6l70.1 6.1z"/><path fill="#746146" fill-opacity=".5" d="M140.1 153.5l-99.6-8.7 2.2-24.9 99.6 8.7z"/><path fill="#4f3824" fill-opacity=".5" d="M145.2 92.5l.8-1.4 4 2.3-.7 1.4z"/><path fill="#cbba9a" fill-opacity=".5" d="M140 45.5l3-20.1 18.5 2.6-2.8 20z"/><path fill="#d0bd9f" fill-opacity=".5" d="M283.3 44.6l52.3-62.3 10.7 9-52.2 62.3z"/><path fill="#9e8669" fill-opacity=".5" d="M351 136.5l-40.5-2.8 2.6-37.4 40.5 2.8z"/><path fill="#ead8b8" fill-opacity=".5" d="M90 43.2L39 27.7l7-22.5 50.8 15.6z"/><path fill="#ae9573" fill-opacity=".5" d="M129.8 67.3l114 6-.2 1.6-113.9-6z"/><path fill="#a58d6f" fill-opacity=".5" d="M130 81l4.6-18.1 68.2 17-4.5 18.2z"/><path fill="#7a684d" fill-opacity=".5" d="M322.6 150.4l-1.8-9.2 61.3-12 1.8 9.3z"/><path fill="#cfbb9d" fill-opacity=".5" d="M-28.1 41.9v-1.6l107.8 3.8v1.5z"/><path fill="#f0e2c4" fill-opacity=".5" d="M150-2.2L174.5-7l2.1 10.8-24.5 4.7z"/><path fill="#f0debc" fill-opacity=".5" d="M261.6 63.2l-18.2 4.5L227.5 4l18.2-4.5z"/><path fill="#6f5e44" fill-opacity=".5" d="M335.6 150.1l10.4-13.7 20 15-10.4 13.8z"/><path fill="#a58d6e" fill-opacity=".5" d="M258.2 60.7l147.7 34-6.3 27.5L251.9 88z"/><path fill="#e7d6b4" fill-opacity=".5" d="M265.2 59.3l-1.1-4.5 37.9-9.5 1 4.7z"/><path fill="#e2d0ae" fill-opacity=".5" d="M67.7 76.6L66 72.2l33.5-12.9 1.7 4.4z"/><path fill="#f1dab7" fill-opacity=".5" d="M412.8 60.9l-56-14 .7-3 56 14z"/><path fill="#68573b" fill-opacity=".5" d="M335.2 144.9l5.6 2.7-15 31-5.7-2.8z"/><path fill="#d2c0a2" fill-opacity=".5" d="M358 47l-4.7-29.2 24.7-4 4.6 29.4z"/><path fill="#a48c6b" fill-opacity=".5" d="M42.8 75l-1.3 18.8L18.1 92l1.3-18.7z"/><path fill="#9b8467" fill-opacity=".5" d="M134.9 97.4l30.6-6.5 7.4 35.1-30.5 6.5z"/><path fill="#5d4c33" fill-opacity=".5" d="M390.8 161.1l2.5 13.9-17 3-2.3-14z"/><path fill="#ad9575" fill-opacity=".5" d="M317 78.6l-2.4-21.8 54.4-5.7 2.3 21.8z"/><path fill="#efdcbd" fill-opacity=".5" d="M-47.5 56.3l-.2-4.7L74 45.3l.3 4.6z"/><path fill="#d7c5a2" fill-opacity=".5" d="M245 65.7l-.7-4.6 21.6-3.4.7 4.6z"/><path fill="#51432b" fill-opacity=".5" d="M213.3 183.3l99.7-8.7.2 3-99.6 8.8z"/><path fill="#786348" fill-opacity=".5" d="M406.2 160.2l-17.9 9.5-11.7-22 18-9.6z"/><path fill="#6e5841" fill-opacity=".5" d="M43.4 143.1l2.7 17-88 14-2.6-17z"/><path fill="#edd9b6" fill-opacity=".5" d="M171.6 61.3l49.2 8.7-.2 1.5-49.3-8.7z"/><path fill="#f3e3c3" fill-opacity=".5" d="M29.2 3.7l.9 12.5-51.5 3.6-.8-12.5z"/><path fill="#a88f6f" fill-opacity=".5" d="M254.1 87.8l-69.8 8.6-2.5-20.2 69.8-8.5z"/><path fill="#806f53" fill-opacity=".5" d="M197.6 125.2l119.9 10.5-1 12.5-120-10.5z"/><path fill="#e2d0b1" fill-opacity=".5" d="M240 62.8l-.7 4.7-55.8-6.9.6-4.6z"/><path fill="#a0896b" fill-opacity=".5" d="M350.2 107.3l40.6-2.1 1.2 23.4-40.6 2.1z"/><path fill="#735e44" fill-opacity=".5" d="M156 126.5l26.3 3.7-5.5 38.6-26.3-3.7z"/><path fill="#e8d9ba" fill-opacity=".5" d="M220 9.5l2.6 4-28.6 19-2.6-3.8z"/><path fill="#9a8264" fill-opacity=".5" d="M65 107.9l-84.3 3-.5-14.1 84.4-3z"/><path fill="#403420" fill-opacity=".5" d="M317.6 167.4l-.8 23.5-14-.5.7-23.5z"/><path fill="#e3d2b8" fill-opacity=".5" d="M400-29.7v61h-1.6v-61z"/><path fill="#766347" fill-opacity=".5" d="M73.8 112.5l63.1 18-6 21-63.1-18z"/><path fill="#e9d6b6" fill-opacity=".5" d="M196 69.4L79.6 57l1-9.3L197 60.1z"/><path fill="#8a7757" fill-opacity=".5" d="M142.1 128.7l-95.7-15.2.5-3 95.7 15z"/><path fill="#e4d3b3" fill-opacity=".5" d="M63.8 29.2l4-15.1 54.4 14.5-4 15.1z"/><path fill="#53412c" fill-opacity=".5" d="M96 231.6l-189.5-40.3 5.2-24.4L101.3 207z"/><path fill="#d7c6a9" fill-opacity=".5" d="M252.8 37.8l30.7-35.4 6 5.1L258.6 43z"/><path fill="#a48c6d" fill-opacity=".5" d="M66.8 88.7L65.3 78l85-12 1.6 10.9z"/><path fill="#cdbc9f" fill-opacity=".5" d="M129.9 6.6l-49.5-7L81-5l49.6 7z"/><path fill="#ead8bb" fill-opacity=".5" d="M290.2 9.8l7.8 11.6-11.6 7.9-7.9-11.7z"/><path fill="#a78e70" fill-opacity=".5" d="M290.1 93.7l-11-35.8 10.5-3.2 11 35.9z"/><path fill="#614e34" fill-opacity=".5" d="M342.4 154.8L309.8 170l-.6-1.4 32.5-15.2z"/><path fill="#e4d3b3" fill-opacity=".5" d="M149.7 18l-49-9.5 1.1-6.2L151 12z"/><path fill="#e9d8b8" fill-opacity=".5" d="M342.4 31.7l1 7.8-18.6 2.2-1-7.7z"/><path fill="#6a573d" fill-opacity=".5" d="M277.7 140l22.5 26-20 17.4-22.6-26z"/><path fill="#7b6a4e" fill-opacity=".5" d="M308.8 148.8l-.4-10.9 112.5-4 .4 11z"/><path fill="#5d4c32" fill-opacity=".5" d="M142.9 167.8l12.9 23.2-9.6 5.3-12.9-23.2z"/><path fill="#f5e2c3" fill-opacity=".5" d="M141.8 47.8l31 10.7-.5 1.5-31-10.7z"/><path fill="#cfbd9f" fill-opacity=".5" d="M287.2 48.6l31.9-8 1.5 6.1-31.9 8z"/><path fill="#dccbab" fill-opacity=".5" d="M84.2 18l-.3 1.5-44.6-7.8.2-1.6z"/><path fill="#f6e5c6" fill-opacity=".5" d="M268.5-7.9l1.6 10.8-46.5 6.6-1.5-10.9z"/><path fill="#d1c0a0" fill-opacity=".5" d="M339.3 48.6l-.5-29.7 17.2-.3.5 29.7z"/><path fill="#4e3e29" fill-opacity=".5" d="M145.7 188.5L59.3 202l-.3-1.5 86.4-13.7z"/><path fill="#392b19" fill-opacity=".5" d="M151.3 193.2l21.6-3.4 2.4 15.4-21.6 3.4z"/><path fill="#c5b189" fill-opacity=".5" d="M14.6 77l-.6-3 32.4-5.7.5 3z"/><path fill="#ecdabd" fill-opacity=".5" d="M341.6 10.5l1.7 2.7-14.6 9-1.7-2.6z"/><path fill="#594831" fill-opacity=".5" d="M181 215.8l22-45 11.2 5.6-21.9 44.9z"/><path fill="#8d775d" fill-opacity=".5" d="M251.9 124.6l1.7-9.2 43 8.4-1.8 9.2z"/><path fill="#d3c2a2" fill-opacity=".5" d="M222 47.2l-53-13.3 1.1-4.5 53 13.2z"/><path fill="#3a2c19" fill-opacity=".5" d="M184 208l-3.7-15.2 9-2.3 3.9 15.2z"/><path fill="#6b573d" fill-opacity=".5" d="M273.6 163.3l-.4 10.9-132.7-4.6.4-11z"/><path fill="#dfccad" fill-opacity=".5" d="M105.1 24.4l8.1 7.4-32.4 36-8.1-7.4z"/><path fill="#43351e" fill-opacity=".5" d="M380.5 167.2l6-1.3 3.3 15.3-6 1.3z"/><path fill="#5d4d36" fill-opacity=".5" d="M172.9 170.7l10.4 53.6-1.5.3-10.4-53.6z"/><path fill="#403221" fill-opacity=".5" d="M331.9 163.2l92.1 30-10.6 32.6-92.1-29.9z"/><path fill="#eeddba" fill-opacity=".5" d="M275 47.8l1.3 10.8-37.2 4.6-1.3-10.9z"/><path fill="#cebc9d" fill-opacity=".5" d="M123.8 40.7l57.5 6-.5 4.7-57.4-6z"/><path fill="#fbe6c9" fill-opacity=".5" d="M382.7 53.6L383 38l32.8.6-.3 15.6z"/><path fill="#9c8567" fill-opacity=".5" d="M261.1 119.4l-.4-23.4 73.5-1.3.4 23.4z"/><path fill="#dfcdb0" fill-opacity=".5" d="M248.9 16.1l-1-4.5L312-2.1l1 4.6z"/><path fill="#7f6d51" fill-opacity=".5" d="M52.7 125.5l-71.8 3.7-.8-15.6 71.8-3.8z"/><path fill="#9d8669" fill-opacity=".5" d="M151.9 80.4l70.3 15-6.9 32-70.3-15z"/><path fill="#8c765b" fill-opacity=".5" d="M269.6 119.8l-78 16.6-.3-1.5 78-16.6z"/><path fill="#d0bea3" fill-opacity=".5" d="M342 1l1.1 6.2-46 9L296 10z"/><path fill="#d5c5a3" fill-opacity=".5" d="M85.2 65.2l.2-1.5 24.7 3.9-.2 1.5z"/><path fill="#6d5840" fill-opacity=".5" d="M296.6 151l34-4.9 2.5 17-34 4.8z"/><path fill="#736045" fill-opacity=".5" d="M212.1 165.3l-42.4-19.8 7.2-15.5 42.5 19.8z"/><path fill="#dcccac" fill-opacity=".5" d="M105.3 37l.4-11 31.2 1.1-.4 11z"/><path fill="#ecdaba" fill-opacity=".5" d="M122.6 42l8.2 7.2-14.3 16.5-8.3-7.1z"/><path fill="#eedcbc" fill-opacity=".5" d="M164.8 22.7h22v3h-22z"/><path fill="#f5e3c4" fill-opacity=".5" d="M398.6 54.2l-30.8-5.4.8-4.6 30.8 5.4z"/><path fill="#998365" fill-opacity=".5" d="M62.1 105.5L66 90.3l98.5 24.6-3.7 15.1z"/><path fill="#ccbfa1" fill-opacity=".5" d="M179.6 7.6l-1.5 12.5-9.3-1.2 1.5-12.4z"/><path fill="#af9677" fill-opacity=".5" d="M376.5 68.7l28.3-13.2L422 92.3l-28.4 13.2z"/><path fill="#3e2f1b" fill-opacity=".5" d="M94 190l10.8-1.6 2.8 20.1-10.8 1.5z"/><path fill="#3f331e" fill-opacity=".5" d="M193.6 201.7l30-16.7 3.1 5.5-30 16.7z"/><path fill="#705b44" fill-opacity=".5" d="M199.3 160.8l-.5 6.3-152.7-10.7.4-6.3z"/><path fill="#d6c3a5" fill-opacity=".5" d="M90.4 46.5l-.3 3-125.9-13.2.4-3z"/><path fill="#a78e6d" fill-opacity=".5" d="M150.4 64l2.3 10.7-1.5.3-2.3-10.7z"/><path fill="#a88f70" fill-opacity=".5" d="M269.7 75l-.5 9.4-149.8-7.9.5-9.3z"/><path fill="#a1896a" fill-opacity=".5" d="M90.3 75.8l.6 18.8-85.9 3-.6-18.8z"/><path fill="#d1c0a1" fill-opacity=".5" d="M224 15.8l1 1.1-35 31.4-1-1.2z"/><path fill="#4b381f" fill-opacity=".5" d="M361.3 175.8l-3.8-21.6 1.5-.3 3.8 21.6z"/><path fill="#4f4029" fill-opacity=".5" d="M382.3 174.3l-4.5 10-8.5-3.9 4.4-10z"/><path fill="#dac8a7" fill-opacity=".5" d="M-2.4 73.2l-4.1-13.5L4 56.5 8 70z"/><path fill="#816a4e" fill-opacity=".5" d="M153.8 88.2l-20.8 14-.8-1.3 20.7-14z"/><path fill="#a28b6c" fill-opacity=".5" d="M339 80.5v18.7H181.3V80.5z"/><path fill="#d1c0a1" fill-opacity=".5" d="M338.4 43.6l-.5 4.7-68.4-6 .4-4.7z"/><path fill="#715e45" fill-opacity=".5" d="M382.5 151.7L380 175l-1.5-.1 2.4-23.4z"/><path fill="#6e5c43" fill-opacity=".5" d="M354.7 169l-6-22.7 4.4-1.2 6.1 22.6z"/><path fill="#decbb0" fill-opacity=".5" d="M378.5 19.5l-55.5-32 3.2-5.4 55.4 32z"/><path fill="#edd9ba" fill-opacity=".5" d="M110.6 36.8l-1 4.5-56.2-14 1.2-4.5z"/><path fill="#d1c0a1" fill-opacity=".5" d="M385 16.8l.5 3L257.1 38l-.4-3z"/><path fill="#f3e3c2" fill-opacity=".5" d="M35.1 2.5l50.4 10.7-.3 1.5L34.8 4z"/><path fill="#a88f72" fill-opacity=".5" d="M300.8 58.9L412.3 95l-5.3 16.3-111.5-36.2z"/><path fill="#e4d0b0" fill-opacity=".5" d="M217 71.4l2-14 6.2 1-2 13.8z"/><path fill="#3b2c1b" fill-opacity=".5" d="M261.1 177l3 1-1.8 6-3-1z"/><path fill="#7b684c" fill-opacity=".5" d="M227.7 153.5l76.4-16.3 1 4.6-76.4 16.3z"/><path fill="#4a3c25" fill-opacity=".5" d="M338.8 152.5l24.3 24.3-6.6 6.6-24.3-24.3z"/><path fill="#5f4d33" fill-opacity=".5" d="M237.4 184l-114-4 .2-6.2 114 4z"/><path fill="#cab193" fill-opacity=".5" d="M11 75.9l-20.3 1.4-.1-1.6 20.3-1.4z"/><path fill="#a08a6b" fill-opacity=".5" d="M188 82.6l.6 1.5-59.5 19.3-.5-1.5z"/><path fill="#735f47" fill-opacity=".5" d="M-39.4 151.4l-.8-23.4 81.2-2.8.8 23.4z"/><path fill="#5a4934" fill-opacity=".5" d="M103.6 194l-116.5-22.6 1.5-7.7L105 186.4z"/><path fill="#d2c1a5" fill-opacity=".5" d="M190.4-8.2l17.1-2.1 3.6 29.5-17 2z"/><path fill="#e8d6b4" fill-opacity=".5" d="M198.7 54l1 14-21.8 1.5-1-14z"/><path fill="#efddba" fill-opacity=".5" d="M72 74.2l-7.6-5.5 2.7-3.8 7.6 5.5z"/><path fill="#67543b" fill-opacity=".5" d="M297 175.5l3-15.3 1.5.2-3 15.4z"/><path fill="#bca586" fill-opacity=".5" d="M223.4 70.2v1.5l-17.1.3v-1.5z"/><path fill="#c7b192" fill-opacity=".5" d="M62.6 70l1.1 6.2-12.3 2.2-1-6.2z"/><path fill="#eedbbc" fill-opacity=".5" d="M104.4 64.2L100.6 49l9-2.2 3.9 15.1z"/><path fill="#e6d4b4" fill-opacity=".5" d="M216.4 3.6L242 39l-3.8 2.7-25.7-35.4z"/><path fill="#e9d6b6" fill-opacity=".5" d="M80.4 66.7l-1.6 6-48.3-12.9 1.6-6z"/><path fill="#e5d1b7" fill-opacity=".5" d="M418.3 17.4L374.8 48l-1-1.3 43.6-30.4z"/><path fill="#ebd9b9" fill-opacity=".5" d="M199.9 50.6l63.4-9 .9 6.3-63.5 8.9z"/><path fill="#f1e0c0" fill-opacity=".5" d="M244.5 30l-3.2-7 31.4-14 3.3 7z"/><path fill="#d4c1a2" fill-opacity=".5" d="M127.7 38.3L80.5 49.2l-.4-1.5 47.2-11z"/><path fill="#d7c7a7" fill-opacity=".5" d="M229.7 41.3L222 17.5l3-1 7.7 23.8z"/><path fill="#b09876" fill-opacity=".5" d="M310.2 49.2H357v12.5h-46.8z"/><path fill="#4c3f26" fill-opacity=".5" d="M412.9 154.5l-26.1 31-1.2-1 26-31z"/></svg>