<svg xmlns="http://www.w3.org/2000/svg" viewBox="0 0 400 200"><path fill="#9e8a6e" d="M0 0h400v200H0z"/><path fill="#ffffeb" fill-opacity=".5" d="M-3.2-54.3l398-20.9 6.8 131-397.9 21z"/><path fill="#271602" fill-opacity=".5" d="M5.2 117.5l397.5 27.8-9.5 135.6-397.5-27.8z"/><path fill="#261b0d" fill-opacity=".5" d="M73.4 193.4l346-24.2L422 205 76 229.2z"/><path fill="#877053" fill-opacity=".5" d="M396.9 159.4H-1.6v-51.6H397z"/><path fill="#f7ddb6" fill-opacity=".5" d="M265 71l-348.4-6 1.3-75 348.4 6z"/><path fill="#af926f" fill-opacity=".5" d="M274 111.4l11.4-72.5 126.6 20-11.5 72.5z"/><path fill="#a18765" fill-opacity=".5" d="M184.8 68.6l-4.2 48.3-67-5.9 4.3-48.2z"/><path fill="#aa8f6d" fill-opacity=".5" d="M246.3 79.3l-2.2-14 114.2-18 2.2 13.9z"/><path fill="#6d5d43" fill-opacity=".5" d="M314.2 164.5l-2.7-26.4 129-13.6 2.7 26.5z"/><path fill="#e6d1af" fill-opacity=".5" d="M351.4 41.2L200.7 76l-13-56.3 150.7-34.8z"/><path fill="#d2c1a3" fill-opacity=".5" d="M121.9 50v-70.3h98.4V50z"/><path fill="#53422b" fill-opacity=".5" d="M-66.5 145.8l275.4 38.7-9.6 68.1L-76 214z"/><path fill="#fde3c2" fill-opacity=".5" d="M376 48.6l25.5-50 21 10.6-25.6 50z"/><path fill="#715e44" fill-opacity=".5" d="M-45.9 104l160.3 14-4.5 51.4-160.3-14z"/><path fill="#837357" fill-opacity=".5" d="M337.3 148.9l-139-2.5.3-21.8 139 2.4z"/><path fill="#392c1b" fill-opacity=".5" d="M307.9 202.8l33.2-47.4 30.7 21.5-33.2 47.4z"/><path fill="#f5e6c6" fill-opacity=".5" d="M242.5 41.4L214.6 5.7l38.2-29.9 27.9 35.7z"/><path fill="#d2b78b" fill-opacity=".5" d="M80.3 77.5L-16.5 74l.2-6.3 96.8 3.4z"/><path fill="#d5c0a0" fill-opacity=".5" d="M293.8 34.4v-39h117.1v39z"/><path fill="#f0e0c0" fill-opacity=".5" d="M80.8 10L-63.4 74.2l-15.8-35.7L64.9-25.7z"/><path fill="#b69e7b" fill-opacity=".5" d="M461.9 68l-3.8 21.5L336.5 68l3.8-21.5z"/><path fill="#a2896a" fill-opacity=".5" d="M138 81.3L263.6 66l6.3 51.2-125.7 15.4z"/><path fill="#a68c6a" fill-opacity=".5" d="M64.1 88.6L62.2 78l84.6-15 2 10.8z"/><path fill="#ecd9b8" fill-opacity=".5" d="M233.6 70.3h-68.8V50h68.8z"/><path fill="#a38b6d" fill-opacity=".5" d="M326.5 44.7l15.5 54-82.6 23.8L244 68.4z"/><path fill="#8d7859" fill-opacity=".5" d="M-14.5 128.6l-2-28L66 94.8l2 28z"/><path fill="#58482e" fill-opacity=".5" d="M327.5 177.2L181.2 190l-.9-9.4 146.4-12.8z"/><path fill="#ffefd0" fill-opacity=".5" d="M374.1 41.5l44.6-7.8 2.5 13.8-44.6 7.9z"/><path fill="#705a41" fill-opacity=".5" d="M102 164.7l1-18.7 184 9.6-.9 18.7z"/><path fill="#ccb99a" fill-opacity=".5" d="M259.6 25.3l60 10.6-2.7 15.4-60-10.6z"/><path fill="#9b8568" fill-opacity=".5" d="M357.6 101.6l-5.4 34-86.4-13.7 5.4-34z"/><path fill="#d1be9f" fill-opacity=".5" d="M201.4 49.2l-270.2-4.7.2-11 270.2 4.8z"/><path fill="#ac9171" fill-opacity=".5" d="M127.7 65L237 72.5l-.6 7.8-109.1-7.7z"/><path fill="#746045" fill-opacity=".5" d="M400.6 144.5l3.2 26.4-40.3 5-3.2-26.5z"/><path fill="#3a2e1b" fill-opacity=".5" d="M330.3 197.2l-80.6 34.2-12.8-30.2 80.6-34.2z"/><path fill="#eddcba" fill-opacity=".5" d="M272.8 37.1l3.4 21.6-75.6 12-3.4-21.6z"/><path fill="#ebd6b4" fill-opacity=".5" d="M94.8 69.3L61.3 77l-4.6-19.7 33.5-7.8z"/><path fill="#bfa983" fill-opacity=".5" d="M-33.5 78.5l99.7-7 .1 1.6-99.7 7z"/><path fill="#f0dcbd" fill-opacity=".5" d="M128 64.2l-23 4.1-3.3-18.5 23-4z"/><path fill="#9d8465" fill-opacity=".5" d="M-1.6 106.4L.7 79.9 175 95.2l-2.3 26.4z"/><path fill="#eddbbb" fill-opacity=".5" d="M99.2 11.3l-8 30.2-51.4-13.8L48-2.4z"/><path fill="#ebdab9" fill-opacity=".5" d="M218-22.5l-101 56-5.4-9.5 101.2-56z"/><path fill="#816f53" fill-opacity=".5" d="M292.3 145.8l-77.8 6.8-2.2-25 77.9-6.7z"/><path fill="#68543a" fill-opacity=".5" d="M312.7 165.9l-83.5 11.7-2.9-20 83.6-11.8z"/><path fill="#705b44" fill-opacity=".5" d="M-30.5 133.1l93.2-9.8 3.8 35.8-93.3 9.8z"/><path fill="#af9777" fill-opacity=".5" d="M328.9 47.3l95.9 13.5-5.2 37.2-96-13.5z"/><path fill="#3f3120" fill-opacity=".5" d="M410 193l-16.2 42.2-77.3-29.7 16.2-42.3z"/><path fill="#362817" fill-opacity=".5" d="M257 203.1H94.5v-7.8H257z"/><path fill="#dac6a5" fill-opacity=".5" d="M305.5 28.1h75v20.3h-75z"/><path fill="#cdbc9e" fill-opacity=".5" d="M125.8 3.7l-.3 3.1-56-5.8.3-3.2z"/><path fill="#eedcbc" fill-opacity=".5" d="M175.3 16.5l25.8 6.4-3 12.2-25.8-6.5z"/><path fill="#e6d3b7" fill-opacity=".5" d="M293.3 30.2L253 13l17.7-41.7 40.3 17z"/><path fill="#cbbba1" fill-opacity=".5" d="M170.3 14V-9.3h36v23.5z"/><path fill="#e9d9bb" fill-opacity=".5" d="M338.5 39.6l-12.4 1.8-3.7-26.3 12.4-1.8z"/><path fill="#cdbb9b" fill-opacity=".5" d="M160.2 48l-18.6 2.3-3.4-28 18.6-2.2z"/><path fill="#ecd9b9" fill-opacity=".5" d="M25.7 43.3l60 10.6-3.6 20-60-10.6z"/><path fill="#cbba9d" fill-opacity=".5" d="M307 47.2l-11.1-5.6 20.5-40.4 11.2 5.7z"/><path fill="#ecd9b9" fill-opacity=".5" d="M162 63.8l-59.4 2-.5-15.5 59.3-2.1z"/><path fill="#5f4c33" fill-opacity=".5" d="M176 174.4l37.6 1.3-.6 17.1-37.5-1.3z"/><path fill="#8a765a" fill-opacity=".5" d="M106.2 118.2l111.6 13.7-.5 4.6-111.7-13.7z"/><path fill="#7b6a4e" fill-opacity=".5" d="M246 146l.2-12.5 187.5 3.3-.2 12.5z"/><path fill="#d4c5a6" fill-opacity=".5" d="M234.9 44l-23.2 3.8-4.4-27.8 23.2-3.7z"/><path fill="#d2bfa1" fill-opacity=".5" d="M346.2 45.2L338 24.9l76.8-31 8.2 20.3z"/><path fill="#a99071" fill-opacity=".5" d="M165.3 72.3l114-4 .7 20.3-114 4z"/><path fill="#fbe7c7" fill-opacity=".5" d="M365.7 42.1l15.8 6.8-1.8 4.3-15.9-6.7z"/><path fill="#5f4d31" fill-opacity=".5" d="M34.5 157.7l93.3 8.1-1.3 15.6-93.4-8.2z"/><path fill="#7a634a" fill-opacity=".5" d="M140.4 102l-1.2-1 12.6-14 1.1 1z"/><path fill="#f4e4c2" fill-opacity=".5" d="M132 29.7L59.2 6.1l1-3L133 26.7z"/><path fill="#735e46" fill-opacity=".5" d="M218.1 159.4L149 171.6l-3-17 69.3-12.1z"/><path fill="#54462e" fill-opacity=".5" d="M364.5 171l49.6-6 1.1 9.3-49.6 6z"/><path fill="#d4c4a4" fill-opacity=".5" d="M254.6 36.2l11.3-16.8 31.1 21-11.4 16.8z"/><path fill="#cfbc9d" fill-opacity=".5" d="M190.5 54.8l-46.2-8.1 1.1-6.2 46.2 8.1z"/><path fill="#ab9273" fill-opacity=".5" d="M279.2 57.1L328 46.7l6.8 32.1-49 10.4z"/><path fill="#7c6d50" fill-opacity=".5" d="M-21.9 113.3H79.7v9.4H-22z"/><path fill="#a48c6d" fill-opacity=".5" d="M138.4 83.2L89.6 94.4l-4.5-19.8 48.7-11.2z"/><path fill="#fbe9cd" fill-opacity=".5" d="M400.1 56.8L385.5 45l12.8-15.8L413 41z"/><path fill="#a18b6d" fill-opacity=".5" d="M338.2 131l-1.3-25 79.6-4.2 1.3 25z"/><path fill="#eedcbc" fill-opacity=".5" d="M-38.4 49.5l99.8-5.2.5 7.8-100 5.2z"/><path fill="#54412d" fill-opacity=".5" d="M91.6 217.1l-124.5-10.9 2.2-24.9 124.5 11z"/><path fill="#9a8466" fill-opacity=".5" d="M163 97.7l-6.8 32.1-49-10.4 7-32z"/><path fill="#eddbb9" fill-opacity=".5" d="M259 63.3l-18 5.1-7.8-27 18-5.2z"/><path fill="#4b3e26" fill-opacity=".5" d="M280.5 189.2l-3.7-6.9 31.8-16.8 3.6 6.9z"/><path fill="#d9c8a9" fill-opacity=".5" d="M99.3 5.2l64.2 19.6-1.8 6L97.4 11z"/><path fill="#9c8466" fill-opacity=".5" d="M199 91.2l159.3 22.4-2.6 18.6-159.3-22.4z"/><path fill="#e0ccb0" fill-opacity=".5" d="M314-17.6l69.9 31.1-2.5 5.7-70-31.1z"/><path fill="#5e4b32" fill-opacity=".5" d="M216.2 183l-72.9 9-1.7-14 72.9-9z"/><path fill="#a68d6f" fill-opacity=".5" d="M159.7 74.8l-19.2 13.5-8-11.6 19.2-13.4z"/><path fill="#44331d" fill-opacity=".5" d="M362 187.4l-1.5.1-2.3-32.7 1.6-.1z"/><path fill="#e7d6b7" fill-opacity=".5" d="M146.5-7l29.9 32-5.7 5.4-29.9-32z"/><path fill="#ceba9c" fill-opacity=".5" d="M91.4 50.7L44.2 39.8l.3-1.5 47.2 11z"/><path fill="#69563b" fill-opacity=".5" d="M282.4 184.4l-12.8-5.7 12-27.2 12.9 5.8z"/><path fill="#f1e0c1" fill-opacity=".5" d="M30.6 17.5l-37 6.5-7-40 37-6.5z"/><path fill="#decdad" fill-opacity=".5" d="M87.5 21.4l-52.2-10 .6-3.2 52.2 10.2z"/><path fill="#dccaa7" fill-opacity=".5" d="M120.3 65l-42 4.4-.1-1.6 42-4.4z"/><path fill="#382a18" fill-opacity=".5" d="M176.2 204.9l-18 5.2-4.7-16.6 18-5.1z"/><path fill="#e8d1a9" fill-opacity=".5" d="M-1.3 71l-.2-1.5L27.8 65l.3 1.5z"/><path fill="#e8d9ba" fill-opacity=".5" d="M220.5 9l1 1.2-31 26.1-1-1.2z"/><path fill="#a58d6c" fill-opacity=".5" d="M36.7 83.6L1.5 91.1-.7 80.4 34.4 73z"/><path fill="#776449" fill-opacity=".5" d="M412.3 160l-22.8 10-12.7-28.5 22.8-10.2z"/><path fill="#79674c" fill-opacity=".5" d="M127.5 132.8l-43.7 1.6-.4-12.5 43.7-1.6z"/><path fill="#6b553c" fill-opacity=".5" d="M331.3 155.4l-4.2 18.3-38-8.8 4.1-18.3z"/><path fill="#5c4a31" fill-opacity=".5" d="M248.4 188.3l-21.6 3L225 179l21.7-3z"/><path fill="#deccac" fill-opacity=".5" d="M125.6 50.2l-28.1-.4.4-23.5 28 .5z"/><path fill="#b39b79" fill-opacity=".5" d="M353.8 65.8l5.2-18 45 13-5.1 18z"/><path fill="#7d6c51" fill-opacity=".5" d="M-3.1 129v-18.8h51.5v18.7z"/><path fill="#ead7b4" fill-opacity=".5" d="M282.7 48.8l1.3 4.5-52.6 15L230 64z"/><path fill="#4c3d20" fill-opacity=".5" d="M339 153.3l2.7 1.6-7.3 12-2.6-1.5z"/><path fill="#ab9273" fill-opacity=".5" d="M297.8 70.2l-53.3 12.3-3.2-13.7 53.3-12.3z"/><path fill="#746146" fill-opacity=".5" d="M133 134.7l35-8 3.6 15.2-35 8z"/><path fill="#f7e5c6" fill-opacity=".5" d="M219-2.2l40.3-5 1.4 11-40.4 4.9z"/><path fill="#e7d5b4" fill-opacity=".5" d="M175.8 54.7H207v14h-31.2z"/><path fill="#a28b6d" fill-opacity=".5" d="M361.6 83.4l-2 18.6-113.4-12 2-18.6z"/><path fill="#ab9573" fill-opacity=".5" d="M105 69.3l.4 1.5L80.9 76l-.3-1.5z"/><path fill="#e3d1b3" fill-opacity=".5" d="M46.6 36.6l-90 11-1.7-13.9 90-11z"/><path fill="#a38c6d" fill-opacity=".5" d="M145.5 67l40.5 3.6-1.8 20.2-40.5-3.5z"/><path fill="#ccbd9e" fill-opacity=".5" d="M196.5 31.5l19.9 9.3-2 4.2-19.8-9.2z"/><path fill="#d1c0a2" fill-opacity=".5" d="M390.3 20.3l-128 20.3-1-6.2 128-20.3z"/><path fill="#decdae" fill-opacity=".5" d="M286.9 10l-40.4 5-.5-4.7 40.3-5z"/><path fill="#d0bea4" fill-opacity=".5" d="M299.3 4.6l47.9-7.5 2 12.3-48 7.6z"/><path fill="#867358" fill-opacity=".5" d="M284.9 138.3L251 118.7l3-5.4 34 19.5z"/><path fill="#cbb690" fill-opacity=".5" d="M65.4 68.5l.1 1.6-76.2 6.7-.2-1.6z"/><path fill="#584831" fill-opacity=".5" d="M193 218l-8.3-4.4 17.6-33.1 8.3 4.4z"/><path fill="#423422" fill-opacity=".5" d="M402.3 205l-74-29.8 5.4-13 73.8 29.8z"/><path fill="#ead6b7" fill-opacity=".5" d="M216.3 72L215 45.6l7.8-.4 1.4 26.6z"/><path fill="#f0ddbe" fill-opacity=".5" d="M238.2 59l-.1 1.5L116.5 52l.1-1.6z"/><path fill="#6e5840" fill-opacity=".5" d="M-70.4 158.5l176.3-9.2.5 9.4-176.3 9.2z"/><path fill="#d1c0a1" fill-opacity=".5" d="M307.3 48.3L307 42l62.3-4.3.5 6.2z"/><path fill="#998266" fill-opacity=".5" d="M193.8 127l-53 3.7-1.8-25 53-3.6z"/><path fill="#65543c" fill-opacity=".5" d="M356.5 167l-25-18.7 1-1.3 25 18.8z"/><path fill="#7f6e51" fill-opacity=".5" d="M231.9 155.3l-3.8-21.5 35.4-6.3 3.8 21.6z"/><path fill="#e4d2b1" fill-opacity=".5" d="M63.3 63.4l20.1-8.6 4.9 11.5L68.2 75z"/><path fill="#44361e" fill-opacity=".5" d="M389.1 187l-3 .6-5-23 3.1-.6z"/><path fill="#978264" fill-opacity=".5" d="M304.7 130.2l.6-3.1 38.4 6.8-.5 3z"/><path fill="#e5d1b7" fill-opacity=".5" d="M354.6 10.6l.2 4.7-20.3.7-.2-4.7z"/><path fill="#e3d1b0" fill-opacity=".5" d="M255.3 57.2l.3 6.2-53 2.8-.4-6.2z"/><path fill="#ddcaa7" fill-opacity=".5" d="M271.4 59l-40.9 10-.4-1.5 41-10.2z"/><path fill="#aa9173" fill-opacity=".5" d="M332.3 46.2l87.3 63.4-12.9 17.7-87.2-63.4z"/><path fill="#57452f" fill-opacity=".5" d="M57 191.7l106.2-3.7.1 3.1-106.2 3.7z"/><path fill="#998363" fill-opacity=".5" d="M112.5 105.7l-4.7 16.5-37.5-10.7L75 94.9z"/><path fill="#e2d1b2" fill-opacity=".5" d="M153.5 11.7L19.8-2.3 20-4l133.6 14z"/><path fill="#614934" fill-opacity=".5" d="M148.4 92.2l-1 1.3-3.6-3 1-1.2z"/><path fill="#7b6e51" fill-opacity=".5" d="M368.8 129.6l.2-1.5 23.2 3.2-.2 1.6z"/><path fill="#d5c2a7" fill-opacity=".5" d="M395 36.1l-20.3-.3.6-36 20.3.4z"/><path fill="#f7e5c5" fill-opacity=".5" d="M385 54.5l.3-11 25 .5-.2 10.9z"/><path fill="#3b2e1c" fill-opacity=".5" d="M208 208.2l-.3-17.2 42.1-.7.3 17.1z"/><path fill="#edd9b7" fill-opacity=".5" d="M376.2 51.2l-35.5-5.6.3-1.5 35.5 5.6z"/><path fill="#847155" fill-opacity=".5" d="M229.3 136.6L227 144l-36-10.4 2.1-7.5z"/><path fill="#756147" fill-opacity=".5" d="M88.5 130.2L-4.7 140l-1-9.3 93.2-9.8z"/><path fill="#f2e0c0" fill-opacity=".5" d="M230.6 34.5L225.7-12l20.2-2.1 5 46.6z"/><path fill="#d0bf9f" fill-opacity=".5" d="M97 10.1L87 2.8l8.3-11.4 10 7.4z"/><path fill="#efe0c3" fill-opacity=".5" d="M175-4.4l1.2 6.2-21.5 4.1-1.2-6.1z"/><path fill="#a18a6a" fill-opacity=".5" d="M25.2 106.2l-3-24.9 63.5-7.8 3 24.8z"/><path fill="#e3d1b2" fill-opacity=".5" d="M78 25.7l37.3 3.3-1 12.5-37.4-3.3z"/><path fill="#746248" fill-opacity=".5" d="M263.5 143.1l84.2 4.4-.2 4.7-84.3-4.4z"/><path fill="#3d301e" fill-opacity=".5" d="M255.2 211.7l6-33.9 50.8 9-6 33.8z"/><path fill="#ecd8b9" fill-opacity=".5" d="M121.6 66.1L60.7 46.3l.5-1.5 61 19.8z"/><path fill="#3d2e18" fill-opacity=".5" d="M295.9 166.4l2 12.3-1.6.3-2-12.4z"/><path fill="#d3c0a1" fill-opacity=".5" d="M-1.5 42.1v-1.5l182.7 6.3v1.6z"/><path fill="#8a765a" fill-opacity=".5" d="M108.7 117.9l38.2 8-1 4.7-38.1-8.1z"/><path fill="#e4d1b1" fill-opacity=".5" d="M92.8 49.8l.3 20.3-18.7.4-.4-20.3z"/><path fill="#9a8366" fill-opacity=".5" d="M135 99l5.4-14.7 7.3 2.7-5.3 14.6z"/><path fill="#5c4c36" fill-opacity=".5" d="M174.7 199.1l7-19 1.4.5-7 19z"/><path fill="#ebdabb" fill-opacity=".5" d="M300 17l-4 10.2-13.1-5 3.9-10.3z"/><path fill="#e7d7b8" fill-opacity=".5" d="M342 32.1l-1.6 7.7L316 35l1.5-7.6z"/><path fill="#d8c5a3" fill-opacity=".5" d="M85.9 65.5l.6-3 23 4.8-.7 3z"/><path fill="#d1bfa1" fill-opacity=".5" d="M269.4 48.3L268.3 36l51.4-4.5 1 12.4z"/><path fill="#9a8165" fill-opacity=".5" d="M-29.4 99.1L42 91.6l1.5 14L-28 113z"/><path fill="#8e765d" fill-opacity=".5" d="M218.9 121.3l79.6 2.7-.2 6.3-79.6-2.8z"/><path fill="#d3c2a3" fill-opacity=".5" d="M56 41.8L37.4 44l-1.2-9.3 18.6-2.3z"/><path fill="#f0debc" fill-opacity=".5" d="M244.7 61.7l-35.8-3.1 1-12.5 35.9 3.1z"/><path fill="#cfbc9a" fill-opacity=".5" d="M64.1 69.7V76l-23.5-.4v-6.3z"/><path fill="#f0debc" fill-opacity=".5" d="M277.5 59.4l-26.3-3.2 1-7.8 26.3 3.2z"/><path fill="#d8c7a7" fill-opacity=".5" d="M162.4 27.4l65.5 4.6-1.2 17.1-65.5-4.5z"/><path fill="#735f44" fill-opacity=".5" d="M214 166.4L191.5 155l8.5-16.7 22.3 11.4z"/><path fill="#735e45" fill-opacity=".5" d="M364.4 170l11-22.4 5.5 2.7-11 22.5z"/><path fill="#604e33" fill-opacity=".5" d="M160.3 183.1l-74.1-11.7 2-12.3 74 11.7z"/><path fill="#e6d3b5" fill-opacity=".5" d="M199.4 30.6l-9.6 5.2-9.6-18 9.7-5.1z"/><path fill="#e1d0b0" fill-opacity=".5" d="M162 24.3l-30.2-22 4.5-6.3 30.4 22z"/><path fill="#dbcbac" fill-opacity=".5" d="M143.1 38.6l-.3 1.5L74 25.5l.4-1.5z"/><path fill="#a88d6f" fill-opacity=".5" d="M203.1 68.6l2.9 1.3-4.5 10-2.8-1.3z"/><path fill="#e8d6b9" fill-opacity=".5" d="M360.4-6.6l.2 1.6-107 13-.2-1.5z"/><path fill="#806e53" fill-opacity=".5" d="M334.4 146l-87-9.2 1-9.3 87 9.1z"/><path fill="#d1c0a1" fill-opacity=".5" d="M137.2 48.7l-6.6-12.4 27.6-14.7 6.6 12.4z"/><path fill="#62513a" fill-opacity=".5" d="M377 180.4l5.5-13 1.4.7-5.5 12.9z"/><path fill="#d4c1a0" fill-opacity=".5" d="M7 77L-.7 56.4l1.5-.5 7.5 20.5z"/><path fill="#a0896b" fill-opacity=".5" d="M150 101.6V84.4h120.3v17.2z"/><path fill="#a58e6b" fill-opacity=".5" d="M149.6 65.5l.3 1.5-41.7 6.6-.3-1.5z"/><path fill="#524227" fill-opacity=".5" d="M273.8 185.6l-8-11.6 2.5-1.7 8.1 11.5z"/><path fill="#ae9977" fill-opacity=".5" d="M215.2 74.8l-.2-1.5 33.8-6 .3 1.6z"/><path fill="#e2d1b1" fill-opacity=".5" d="M63.5 7.2l1.2-14 14 1.2-1.2 14z"/><path fill="#43331f" fill-opacity=".5" d="M372.8 165.8l1.6-.1 4.4 42h-1.6z"/><path fill="#46391f" fill-opacity=".5" d="M317.8 174.7l-4.6.5-1.3-10.8 4.6-.6z"/><path fill="#d1c1a5" fill-opacity=".5" d="M187-10.1l19.5-5.3 8.1 30.2-19.6 5.3z"/><path fill="#b09676" fill-opacity=".5" d="M307 53.7l10.6-6.6 8.2 13.2-10.6 6.7z"/><path fill="#f3e0c1" fill-opacity=".5" d="M147.3 51.9l.5-1.5L176 59l-.4 1.5z"/><path fill="#dec9a6" fill-opacity=".5" d="M-.8 68l50-1.7V68l-50 1.7z"/><path fill="#705b43" fill-opacity=".5" d="M91.7 153.3l112.3 5.9-.4 7.8-112.3-5.9z"/><path fill="#e6d3b4" fill-opacity=".5" d="M201.7 44.4l9.1 14.5-17.2 10.8-9.1-14.6z"/><path fill="#ddccad" fill-opacity=".5" d="M288.3 50l-1.4 4.5-29.9-9.2 1.4-4.5z"/><path fill="#655337" fill-opacity=".5" d="M56.9 162L-55 173.9l-.3-3L56.6 159z"/><path fill="#69553c" fill-opacity=".5" d="M291 157.6l-49.2 24-6.2-12.7 49.2-24z"/><path fill="#e7d6b6" fill-opacity=".5" d="M123.4 48l-43-33.8.9-1.2 43 33.7z"/><path fill="#e7d7b8" fill-opacity=".5" d="M213.2 14l43.3-6 .6 4.6-43.3 6z"/><path fill="#cdbba0" fill-opacity=".5" d="M111.2-3.7l17.2 1.2-.6 7.8L110.7 4z"/><path fill="#d1c1a3" fill-opacity=".5" d="M183 11.7l.7 1.4-15.1 8-.8-1.3z"/><path fill="#5d4f3b" fill-opacity=".5" d="M150.7 192l-4.8 6-1.3-.9 4.8-6.1z"/><path fill="#af9776" fill-opacity=".5" d="M424.8 88.8l-6.1 12.6L333 59.6l6.2-12.6z"/><path fill="#a18a6c" fill-opacity=".5" d="M415 132.8L285 93.1l4.6-15 130 39.8z"/><path fill="#ecd9ba" fill-opacity=".5" d="M106.9 69.2L90.2 57.5l4.5-6.4 16.6 11.7z"/><path fill="#6a5941" fill-opacity=".5" d="M298.8 161.7h1.6l-.8 15.7-1.6-.1z"/><path fill="#9a8265" fill-opacity=".5" d="M255.8 120l-58.8 8.3-1.3-9.3 58.8-8.2z"/><path fill="#776449" fill-opacity=".5" d="M189.8 133v1.6L121 131v-1.5z"/><path fill="#594731" fill-opacity=".5" d="M94.1 197.3l-102.8-7.2.5-7.7 102.9 7.1z"/><path fill="#d1c0a1" fill-opacity=".5" d="M348.6 11l28.1 17-11.2 18.7-28.2-16.9z"/><path fill="#6d5a3e" fill-opacity=".5" d="M320.8 172.7L323 159l7.7 1.2-2.2 13.9z"/><path fill="#3a2c19" fill-opacity=".5" d="M88.1 205.1l10.4-13.7 2.5 1.9L90.6 207z"/><path fill="#dbcaaa" fill-opacity=".5" d="M89 31l.2-1.5 51.4 3.6v1.5z"/><path fill="#715b43" fill-opacity=".5" d="M3.6 167.5l-24.4-22L-2 124.8l24.4 22z"/><path fill="#ddcbae" fill-opacity=".5" d="M313.8-4.7l-59.6 37.3-.8-1.4L313-6z"/><path fill="#f3deba" fill-opacity=".5" d="M211.7 67.8l-.3 1.6-27.8-4.4.3-1.6z"/><path fill="#d3c1a6" fill-opacity=".5" d="M425.7 4.3l-50.5 34-8.7-12.9 50.5-34z"/><path fill="#e6d3b3" fill-opacity=".5" d="M148 49.2l1.5 4.4L110 68l-1.6-4.4z"/><path fill="#594931" fill-opacity=".5" d="M195.6 187.7l-.2-1.5 63.7-6.7.2 1.5z"/><path fill="#3f3320" fill-opacity=".5" d="M386.5 236.5l16.3-76.5 9.1 2-16.2 76.4z"/><path fill="#9b8566" fill-opacity=".5" d="M54.3 95L77 89.9l4.6 19.8-22.9 5.3z"/><path fill="#69573e" fill-opacity=".5" d="M310.5 173.4l-1.5-.4 3.9-16.7 1.5.3z"/><path fill="#846d4f" fill-opacity=".5" d="M145 93l-6.3 4.4-1-1.3 6.5-4.4z"/><path fill="#403220" fill-opacity=".5" d="M298.7 203l-1.5.4-10-32.9 1.5-.4z"/><path fill="#40311e" fill-opacity=".5" d="M166.3 185.1l8.9 3-8.7 25.2-8.8-3z"/><path fill="#402f19" fill-opacity=".5" d="M143 185.2v25h-3.2v-25z"/><path fill="#a18a6b" fill-opacity=".5" d="M95.7 74.8l47.7 8.5-3.2 18.4-47.7-8.4z"/><path fill="#e8d5b1" fill-opacity=".5" d="M84.6 74l-33.8-6 .5-3 33.9 6z"/><path fill="#d0be9f" fill-opacity=".5" d="M188.2 52.3l-72-14 .2-1.5 72.1 14z"/><path fill="#3c2d1c" fill-opacity=".5" d="M254.7 200.8l-3-21.7 1.5-.2 3 21.7z"/><path fill="#e5d4b7" fill-opacity=".5" d="M324.9 20.5l19-11 1.5 2.8-19 11z"/><path fill="#e3d2b7" fill-opacity=".5" d="M379 47.2l-2-2.4L403.9 23l2 2.5z"/><path fill="#dbcaac" fill-opacity=".5" d="M358.6 6.6l1.4 2.8-39 19.9-1.4-2.8z"/><path fill="#9d8669" fill-opacity=".5" d="M220.2 107.3l-3.4 13.7-69.8-17.4 3.4-13.6z"/><path fill="#50442d" fill-opacity=".5" d="M318.9 180.7l-.3-6.3 11-.4.2 6.3z"/><path fill="#e8d6b4" fill-opacity=".5" d="M80.4 66.2l-1.6 7.6-4.6-1 1.7-7.6z"/><path fill="#f1e0bf" fill-opacity=".5" d="M103.2 20l26.5.5v4.7l-26.6-.4z"/><path fill="#635239" fill-opacity=".5" d="M388.7 173.2l20.3-11.8.8 1.4-20.3 11.7z"/><path fill="#ab9270" fill-opacity=".5" d="M53.8 75.3l.1 1.6-28 2.4-.1-1.5z"/><path fill="#d3c3a4" fill-opacity=".5" d="M213.6 20.6l17.7 12.8-2.7 3.8-17.7-12.8z"/><path fill="#9e8768" fill-opacity=".5" d="M384.5 126.7l-24.4 5.7-2.4-10.7 24.3-5.6z"/><path fill="#725d45" fill-opacity=".5" d="M176.1 163l-124-15.2 1.5-12.4 124 15.2z"/><path fill="#6c563c" fill-opacity=".5" d="M211.7 161.2l115.6-2v6.2l-115.5 2z"/><path fill="#f1e0c0" fill-opacity=".5" d="M-5.3 10.3l77.7-8.1.1 1.5L-5.2 12z"/><path fill="#c8b190" fill-opacity=".5" d="M101 69.5l-.3-1.5 6-1.5.4 1.5z"/><path fill="#3d311e" fill-opacity=".5" d="M301 171.5l6-1.6 6 22.6-6 1.7z"/><path fill="#4a3c27" fill-opacity=".5" d="M367.5 181.1l-1 1.3-32.4-24.5 1-1.2z"/><path fill="#685439" fill-opacity=".5" d="M113.4 166.2v-1.6L232 173v1.6z"/><path fill="#c0af91" fill-opacity=".5" d="M345.3 48.8l-36-.7v-1.5l36 .6z"/><path fill="#a78e70" fill-opacity=".5" d="M396.9 108.9l-80.7-24.7 4.1-13.4L401 95.5z"/><path fill="#d6c2a5" fill-opacity=".5" d="M11.7 40.5l-.3 1.5-12.2-2.8.4-1.5z"/><path fill="#e0cead" fill-opacity=".5" d="M168.7 67l-.4-1.5 39.6-9.1.3 1.5z"/><path fill="#e6d2b4" fill-opacity=".5" d="M11.7 47.5l13.6-3.7 5.2 19.7L17 67z"/><path fill="#dbc9ae" fill-opacity=".5" d="M316.6 2l-43.8 11.6-.4-1.5L316.2.4z"/><path fill="#ead6b7" fill-opacity=".5" d="M207.2 69.8l2.8-20.1 6.2.8-2.8 20.1z"/><path fill="#7f6e53" fill-opacity=".5" d="M207.7 142.4l.2-12.5 64 1.1-.1 12.5z"/><path fill="#43311b" fill-opacity=".5" d="M-3.9 196.3l7.6-1.8 1.8 7.6-7.6 1.8z"/><path fill="#e1cfb1" fill-opacity=".5" d="M224.6 37.3l-1.3 3L199 29.7l1-2.7z"/><path fill="#f6e4c7" fill-opacity=".5" d="M393 46.5l-21.2 5.3-.8-3 21.3-5.3z"/><path fill="#836e53" fill-opacity=".5" d="M-1 127l-3.4-8.8 32-12.3 3.4 8.7z"/><path fill="#f3e2c2" fill-opacity=".5" d="M247.4 31.6l-2.9-3.7 22.2-17.3 2.9 3.7z"/><path fill="#7c6a4d" fill-opacity=".5" d="M352.5 131l18.7.4-.2 14-18.8-.3z"/><path fill="#6e5d43" fill-opacity=".5" d="M353 168l-1.5-.4 3.3-15.2 1.5.3z"/><path fill="#d3c2a3" fill-opacity=".5" d="M226.7 16.6l-38.3 32.1-1-1.2 38.3-32.1z"/><path fill="#e5d6b7" fill-opacity=".5" d="M228.6-7.6L217.3 13l-6.9-3.8 11.4-20.5z"/><path fill="#d8c7a8" fill-opacity=".5" d="M143.5 11.3l-2.1-5.9 7.3-2.6 2.1 5.8z"/><path fill="#d6c5a5" fill-opacity=".5" d="M127.5 22.6l-.3-4.6 21.8-1.6.4 4.7z"/><path fill="#e6d5b7" fill-opacity=".5" d="M114.3 4.3l-.7 4.6-13.9-2.2.8-4.6z"/><path fill="#a89173" fill-opacity=".5" d="M60.3 77.4l55.7-7.9.2 1.6-55.7 7.8z"/><path fill="#3f321d" fill-opacity=".5" d="M171 211.4l-.5-1.4 63.1-23 .6 1.5z"/><path fill="#ad9878" fill-opacity=".5" d="M258.7 65.2l-.1-1.6 43.7-2.2v1.5z"/><path fill="#d8c6a7" fill-opacity=".5" d="M372.6 42.9L326 47.8l-.2-1.6 46.6-4.9z"/><path fill="#564832" fill-opacity=".5" d="M223.9 192.6l2.3-9 1.5.3-2.3 9.1z"/><path fill="#eedbbc" fill-opacity=".5" d="M55.2 51.3l18-5.5 1.3 4.5-18 5.5z"/><path fill="#eddabb" fill-opacity=".5" d="M103.6 38.6L19.4 14.5 20 13l84 24z"/><path fill="#776347" fill-opacity=".5" d="M169.6 133.3L154 141l-3.4-7 15.5-7.6z"/><path fill="#f2e1bf" fill-opacity=".5" d="M74.2 9.2l29.2 5.1-1 6.2L73 15.3z"/><path fill="#b79f7d" fill-opacity=".5" d="M390.4 68l-1-11 18.7-1.5 1 10.8z"/><path fill="#d2bc9b" fill-opacity=".5" d="M386 53.4l-.1 1.6-7.8-.6V53z"/><path fill="#e8d4b7" fill-opacity=".5" d="M85.7 41.6l-18-5.2 1.3-4.5L87 37z"/><path fill="#dfceaf" fill-opacity=".5" d="M64 14v1.5l-32.8-2.9.2-1.5z"/><path fill="#392a16" fill-opacity=".5" d="M185.6 195.2l.7-7.8 1.5.2-.6 7.8z"/><path fill="#988265" fill-opacity=".5" d="M155.8 120l-8.1 11.6-26.9-18.8 8-11.6z"/><path fill="#84714e" fill-opacity=".5" d="M90.6 118.4L45.3 116v-1.6l45.3 2.4z"/><path fill="#8b775b" fill-opacity=".5" d="M185 129.2l2-4.3 14 6.9-2 4.2z"/><path fill="#817255" fill-opacity=".5" d="M389.7 133.3l13-8.5 6 9.1-13 8.5z"/><path fill="#e9d8b8" fill-opacity=".5" d="M18.1 38.8l-27.4-6.3L-4 9.6 23.4 16z"/><path fill="#e2cfb1" fill-opacity=".5" d="M88.1 55.3l.3 4.7-37.5 2-.2-4.8z"/><path fill="#dccbab" fill-opacity=".5" d="M103 27l43 14.8-.5 1.5-42.9-14.8z"/><path fill="#cfbe9e" fill-opacity=".5" d="M130.5 49.5l-1-4.6 22.8-5.3 1 4.6z"/><path fill="#b8a686" fill-opacity=".5" d="M86 73.4H71.8V72h14z"/><path fill="#412f19" fill-opacity=".5" d="M52.3 197.3l1.5-.5 1.7 4.3-1.4.6z"/><path fill="#9c8568" fill-opacity=".5" d="M331.9 123.1l-50.5-10.7 4-18.3 50.4 10.7z"/><path fill="#deceae" fill-opacity=".5" d="M321 15.5l8.8 8.8-5.5 5.5-8.8-8.8z"/><path fill="#b29b78" fill-opacity=".5" d="M182.4 67.7l3 .6-.6 3-3-.5z"/><path fill="#dbd0b2" fill-opacity=".5" d="M167-2l5.2-3.5 6.1 9-5.2 3.6z"/><path fill="#d0bea2" fill-opacity=".5" d="M316.5 20l-2.3-4 27-15.7 2.4 4z"/><path fill="#d9c9a5" fill-opacity=".5" d="M151.6 63.8l-29.7.5v-1.5l29.6-.6z"/><path fill="#d1bea0" fill-opacity=".5" d="M319.3 46.8l-21.7 3-2.8-20 21.6-3.1z"/><path fill="#d6c4a8" fill-opacity=".5" d="M391.3 24.6L395 35l-22.2 7.7-3.5-10.4z"/><path fill="#a98f70" fill-opacity=".5" d="M211.1 72l-.4 7.9-67.1-3.5.4-7.8z"/><path fill="#655338" fill-opacity=".5" d="M303.4 166.3l.3 1.5-46.2 8.1-.2-1.5z"/><path fill="#eddbb9" fill-opacity=".5" d="M253.4 55.6l-18.3 11.9L223 49l18.4-11.9z"/><path fill="#725d43" fill-opacity=".5" d="M373 169.7l-13-11.2 12.3-14.2 13 11.3z"/><path fill="#3d2d19" fill-opacity=".5" d="M154.2 187.5l1.5-.5 7.3 24-1.5.4z"/><path fill="#d1be9f" fill-opacity=".5" d="M186.1 46.4l-.5 6.2-42-3.7.5-6.2z"/><path fill="#c6b38c" fill-opacity=".5" d="M50 73l-.1 1.6-26.5-2.3.2-1.6z"/><path fill="#463823" fill-opacity=".5" d="M231.3 218l-1.6.4-9.4-38 1.5-.3z"/><path fill="#e9d8b8" fill-opacity=".5" d="M205.3 21.5l-40 7-.3-1.5 40-7z"/><path fill="#5e4c33" fill-opacity=".5" d="M198.6 172.3l9.4.8-2 21.8-9.3-.8z"/><path fill="#42321d" fill-opacity=".5" d="M96.4 195.6l-3.4-7 2.8-1.4 3.4 7z"/><path fill="#998265" fill-opacity=".5" d="M251 114.3l2.6-12.2 62.6 13.3-2.6 12.2z"/><path fill="#ddc9aa" fill-opacity=".5" d="M97.5 38l-1.3 14-10.9-1 1.3-14z"/><path fill="#5a4731" fill-opacity=".5" d="M122.7 191l-.1-7.8 40.6-.7.1 7.8z"/><path fill="#40311e" fill-opacity=".5" d="M69.9 203.9l61.5-10.9.3 1.6L70 205.4z"/><path fill="#5d4c32" fill-opacity=".5" d="M176.7 191.4l-4.1-2 8.5-16.8 4.2 2.1z"/><path fill="#dcc8ac" fill-opacity=".5" d="M372.5 8.7l-7.3 8.2-26.7-24 7.3-8.2z"/><path fill="#eedcbd" fill-opacity=".5" d="M335.7 33.1l-13 5.5-.6-1.4 13-5.5z"/><path fill="#41321d" fill-opacity=".5" d="M240.4 205.5l-2.6-24.9 1.5-.1 2.6 24.8z"/><path fill="#806e50" fill-opacity=".5" d="M41.6 107.3l19.5 9.9-4.3 8.3-19.5-9.9z"/><path fill="#cfbfa2" fill-opacity=".5" d="M172.3 17.4l-3.6-6.8 26.2-14 3.6 7z"/><path fill="#d6c4a7" fill-opacity=".5" d="M98.5 9l.1-1.5 35.8 3.8-.2 1.5z"/><path fill="#a99073" fill-opacity=".5" d="M269.5 67.2L283.3 57l11.2 15-13.7 10.3z"/><path fill="#e8d5b6" fill-opacity=".5" d="M222 27l-.3-4.7 11-.8.3 4.7z"/><path fill="#d5c3a7" fill-opacity=".5" d="M329.2 1l-30.7 11.8-1.1-3L328-1.8z"/><path fill="#988465" fill-opacity=".5" d="M397.5 129.6l-24.8-3 .1-1.6 24.9 3z"/><path fill="#473622" fill-opacity=".5" d="M109.1 184.6l1.6-.2 3.6 29.5-1.5.1z"/><path fill="#d6c3a5" fill-opacity=".5" d="M46.2 44l.2-1.5 46.5 5.7-.2 1.5z"/><path fill="#584329" fill-opacity=".5" d="M398 163.4l3.8 8.5-1.4.7-3.8-8.6z"/><path fill="#5c4933" fill-opacity=".5" d="M27.3 185.2v-18.8h81.3v18.8z"/><path fill="#d7c5a8" fill-opacity=".5" d="M288.5 6l-21 31-1.3-.8 21-31z"/><path fill="#5d462e" fill-opacity=".5" d="M149.2 93.8l-3.1-.1V92l3.1.1z"/><path fill="#9e8669" fill-opacity=".5" d="M121.7 102.5l39-11.2.4 1.5-39 11.2z"/><path fill="#f2e1c2" fill-opacity=".5" d="M236-1l33.6-7 2.3 10.7-33.7 7.1z"/><path fill="#e9d7b5" fill-opacity=".5" d="M72 64l4.6 4.1-6.3 7-4.7-4.2z"/><path fill="#e3d2af" fill-opacity=".5" d="M184.7 58.4l.8 7.8-18.6 2-.9-7.8z"/><path fill="#9c8467" fill-opacity=".5" d="M5 112.7L-17.5 91l14.1-14.6L19.1 98z"/><path fill="#b29a77" fill-opacity=".5" d="M372.2 55.2l-1.1 7.7-51-7.2 1-7.7z"/><path fill="#d1c0a2" fill-opacity=".5" d="M198.5 5.2l1.4 15.6-6.2.5-1.4-15.5z"/><path fill="#e4d1b3" fill-opacity=".5" d="M204.4 57L172 52.4l.2-1.6 32.5 4.6z"/><path fill="#715e47" fill-opacity=".5" d="M379 164l1.3 10.9-1.5.2-1.3-10.9z"/><path fill="#d1bda0" fill-opacity=".5" d="M63 39.5l.6-1.5 21.8 8.4L85 48z"/><path fill="#977f64" fill-opacity=".5" d="M140 118l78 1.4-.1 7.8-78.1-1.3z"/><path fill="#5c4b30" fill-opacity=".5" d="M119.9 183.7l16-17.1 11.4 10.6-16 17.2z"/><path fill="#e3d1b2" fill-opacity=".5" d="M30.2 42.7l-7-3.6L34 18.3l7 3.5z"/><path fill="#e0ceae" fill-opacity=".5" d="M102.3 37.3l37.1-12 .5 1.4-37.1 12.1z"/><path fill="#4b3b26" fill-opacity=".5" d="M119.8 187.6l1.6.4-5.3 19.7-1.5-.4z"/><path fill="#5d4d34" fill-opacity=".5" d="M188.5 193.2l4.3-13.4 1.5.5-4.3 13.3z"/><path fill="#c7b091" fill-opacity=".5" d="M-7.6 71.1l17.1 1.5-.4 4.7-17-1.5z"/><path fill="#766347" fill-opacity=".5" d="M403.6 140l.6 17.2-34.4 1.2-.6-17.2z"/><path fill="#f4e0c2" fill-opacity=".5" d="M-5.4 52.2l15-4.3.5 1.5-15 4.3z"/><path fill="#e8d6b7" fill-opacity=".5" d="M243.5 39l22.9-21.3 1 1.1-22.8 21.3z"/><path fill="#3e3120" fill-opacity=".5" d="M291.8 215l32.8-37.7 7 6.1-32.7 37.8z"/><path fill="#d5c3a4" fill-opacity=".5" d="M217.2 41.5l-1.5 6-50-12.4 1.4-6z"/><path fill="#e8d7b7" fill-opacity=".5" d="M-55.3-2.1L85 5.2v1.6L-55.5-.6z"/><path fill="#4b3d2a" fill-opacity=".5" d="M263.6 176.8l-5.5 11.2-1.4-.7 5.5-11.2z"/><path fill="#7c6b50" fill-opacity=".5" d="M292.4 143.6l.4-1.5 25.7 6.4-.3 1.6z"/><path fill="#f1ddbe" fill-opacity=".5" d="M115.7 53.6l32.5-4 .2 1.5-32.6 4z"/><path fill="#fdeacf" fill-opacity=".5" d="M393.6 45.2l-1.2-1 12.5-16 1.2 1z"/><path fill="#4c3b23" fill-opacity=".5" d="M341.7 163.3l-1.6-.1 1-9.3 1.6.1z"/><path fill="#806e52" fill-opacity=".5" d="M50.1 111.4l-.2 14-48.5-.8.3-14z"/><path fill="#d6c6a7" fill-opacity=".5" d="M272.5 45.2l25.7 6.5-.3 1.5-25.8-6.4z"/><path fill="#756146" fill-opacity=".5" d="M91.3 120.4l22.9 4.9-4 18.3-22.8-4.8z"/><path fill="#e7d3b3" fill-opacity=".5" d="M120 17.7l-.3-1.5L166 8.8l.2 1.6z"/><path fill="#cebc9c" fill-opacity=".5" d="M154.5 41.1l-17.8-5.8 1-3 17.8 5.8z"/><path fill="#e2d0ae" fill-opacity=".5" d="M291.7 50.3l.5 1.5-7.4 2.6-.5-1.5z"/><path fill="#d0bfa0" fill-opacity=".5" d="M347 42l-6-22.6 13.5-3.6 6.1 22.6z"/><path fill="#4b3f23" fill-opacity=".5" d="M283 182.2l-10.3 7.2-1-1.3 10.3-7.2z"/><path fill="#6b563e" fill-opacity=".5" d="M354.3 167.5l4-15 1.5.3-4 15.1z"/><path fill="#efdcbd" fill-opacity=".5" d="M226.5 59l-67.1-2.4v-1.5l67.2 2.3z"/><path fill="#4e4127" fill-opacity=".5" d="M310.9 168.8l-2 4.2-5.7-2.7 2-4.2z"/><path fill="#604e35" fill-opacity=".5" d="M237.7 184.3l-43.5-4.6 1-9.3 43.5 4.6z"/><path fill="#d0bd98" fill-opacity=".5" d="M43.4 67.2l.2 1.5L-1.2 75l-.3-1.5z"/><path fill="#7b6a4d" fill-opacity=".5" d="M386.1 132l.8 6.1-52.7 6.5-.8-6.2z"/><path fill="#dbc9a8" fill-opacity=".5" d="M5.7 56.3l3.6 10.4L-1 70.2-4.6 60z"/><path fill="#f3e2c0" fill-opacity=".5" d="M403.4 58.4L392 53.5l3-7.2 11.6 4.9z"/><path fill="#594932" fill-opacity=".5" d="M340 155.5l13.6 3.2-1.4 6-13.7-3z"/><path fill="#3c2e1d" fill-opacity=".5" d="M252.1 185.5l6.5 22.6-6 1.7-6.5-22.5z"/><path fill="#ecdab8" fill-opacity=".5" d="M143 63l.1-1.6 21.8 2.2-.2 1.6z"/><path fill="#3c2d19" fill-opacity=".5" d="M75.8 200.6V199l68.7-1.2v1.6z"/><path fill="#5f492e" fill-opacity=".5" d="M382 160.4l4.3 4.7-1.2 1-4.2-4.6z"/><path fill="#d1bd9e" fill-opacity=".5" d="M111.8 46.7L111 48l-5.7-2.6.7-1.4z"/><path fill="#9c8567" fill-opacity=".5" d="M2.9 103.6l.7-14L164.3 98l-.7 14z"/><path fill="#6d5941" fill-opacity=".5" d="M284.1 151.7l1.3-6.1 35.2 7.4-1.3 6.1z"/><path fill="#b8a183" fill-opacity=".5" d="M66.4 75v1.6H44.5V75z"/><path fill="#eddcb9" fill-opacity=".5" d="M266.7 49.5l3.8 10.3-4.4 1.6-3.8-10.3z"/><path fill="#877357" fill-opacity=".5" d="M88 114.3l35.5 12.2-.6 1.4-35.4-12.2z"/><path fill="#eed9b3" fill-opacity=".5" d="M84.4 70.5l7-3.4.7 1.4-7 3.4z"/><path fill="#51412e" fill-opacity=".5" d="M294.2 186.7l-4-12 1.6-.4 3.8 11.9z"/><path fill="#66553a" fill-opacity=".5" d="M121 163.9L43 161v-1.5l78.1 2.7z"/><path fill="#eeddbe" fill-opacity=".5" d="M66.7 12.7L34.3 7.6l.5-3.1 32.4 5.1z"/><path fill="#584831" fill-opacity=".5" d="M82 175.4l7.8 25.4-1.5.4-7.8-25.4z"/><path fill="#e1cfb1" fill-opacity=".5" d="M186 11.8l1 1.3-15.2 11-1-1.3z"/><path fill="#d9c2a1" fill-opacity=".5" d="M72.6 71.5l.1-1.5 12.5.6v1.6z"/><path fill="#746047" fill-opacity=".5" d="M154.4 139l81 17.3-.7 3-81-17.2z"/><path fill="#ac9473" fill-opacity=".5" d="M317.8 56.6l-1.5 10.8-26.3-3.7 1.5-10.8z"/><path fill="#d2c1a2" fill-opacity=".5" d="M119.5 1v1.5L66.4.6V-.9z"/><path fill="#5c4931" fill-opacity=".5" d="M112 166.4h6.2l-.5 28.2-6.2-.1z"/><path fill="#ead7b8" fill-opacity=".5" d="M100.2 69l-10-9.9 11.1-11 10 10z"/><path fill="#f1ddbf" fill-opacity=".5" d="M75 21.2l-26.6-1.8.1-1.6L75 19.7z"/><path fill="#9d8668" fill-opacity=".5" d="M284.8 111.3l-66.8 7-1.3-12.4 66.8-7z"/><path fill="#453620" fill-opacity=".5" d="M174.2 189.3l-1.3 1-4.9-6.1 1.2-1z"/><path fill="#705c42" fill-opacity=".5" d="M158.2 170.8l-.3-1.6L287 146.4l.3 1.6z"/><path fill="#5b4931" fill-opacity=".5" d="M123.4 166.4v31.3H122v-31.3z"/><path fill="#6d5c40" fill-opacity=".5" d="M80.4 155.6l4.5 4.3-7.4 8-4.6-4.3z"/><path fill="#43341e" fill-opacity=".5" d="M195 188.3l3.8 21.6-1.6.2-3.8-21.5z"/><path fill="#b5a37d" fill-opacity=".5" d="M22.7 72.7l21.9 1.5-.1 1.6-21.9-1.6z"/><path fill="#d4c1a5" fill-opacity=".5" d="M418.2-.5l-14.4 26L361.5 2l14.4-26z"/><path fill="#e3cfb1" fill-opacity=".5" d="M190 59l.2-1.5 49.5 7-.2 1.5z"/><path fill="#e5d5b4" fill-opacity=".5" d="M109 2.4L93.4 13l-.8-1.3L108 1.1z"/><path fill="#dcc9aa" fill-opacity=".5" d="M168 22.8l10.5 22.7-4.2 2-10.6-22.7z"/><path fill="#907b5b" fill-opacity=".5" d="M324.2 134.3l9.4.2v1.5l-9.4-.1z"/><path fill="#a28a6d" fill-opacity=".5" d="M148.7 70.7l-2.1 20.2-6.2-.7 2-20.2z"/><path fill="#3e301c" fill-opacity=".5" d="M184.3 191.8l-3 12.1-1.5-.4 3-12.1z"/><path fill="#a88f71" fill-opacity=".5" d="M195.2 77.8l103.4-16.4 1.5 9.3L196.7 87z"/><path fill="#a38c6e" fill-opacity=".5" d="M303.9 72.7l105 44.6-5 11.5-105-44.5z"/><path fill="#8a755a" fill-opacity=".5" d="M307.2 135.6l-26.3-4.1 1-6.2 26.2 4.2z"/><path fill="#d0be9f" fill-opacity=".5" d="M303.2 42.6L336 45l-.2 1.6-32.7-2.3z"/><path fill="#41341f" fill-opacity=".5" d="M358.4 165l1.6-.2 2 18.7-1.6.1z"/><path fill="#ead9b9" fill-opacity=".5" d="M-64 30.4l129.6-4.5v1.5L-64 32z"/><path fill="#5e4d31" fill-opacity=".5" d="M102.8 173.6l-48.3-3.4.5-7.8 48.3 3.4z"/><path fill="#d9c8aa" fill-opacity=".5" d="M318.5 28.7L326 31l-2.3 7.5-7.5-2.3z"/><path fill="#d7c6a3" fill-opacity=".5" d="M-13 66.5L24.2 71l-.2 1.6-37.2-4.6z"/><path fill="#b39c7a" fill-opacity=".5" d="M420.4 73.8l-59.8-18.2 1.8-6 59.8 18.3z"/><path fill="#3d2e21" fill-opacity=".5" d="M376.7 205.2l-1.2-7.7 46.3-7.4 1.2 7.7z"/><path fill="#bca686" fill-opacity=".5" d="M216.2 69.6l.3 1.6-6 1.4-.4-1.6z"/><path fill="#66543d" fill-opacity=".5" d="M249 173.7l1.6-.3 1.9 7.5-1.5.4z"/><path fill="#8d755a" fill-opacity=".5" d="M287.4 123l-82.5 7.2-.1-1.6 82.5-7.2z"/><path fill="#413220" fill-opacity=".5" d="M365.7 197.9l-14 6.8-15.8-32.3 14-6.8z"/><path fill="#e2cfaf" fill-opacity=".5" d="M194.6 34.3l-10.5 3-2.2-7.5 10.6-3z"/><path fill="#a28b6c" fill-opacity=".5" d="M-11.7 77.3h140.6v9.4H-11.7z"/><path fill="#d3c09f" fill-opacity=".5" d="M263.3 61l-9 3-.4-1.6 9-2.9z"/><path fill="#decbac" fill-opacity=".5" d="M84.2 55.9l.3 4.7-10.9.7-.3-4.7z"/><path fill="#decead" fill-opacity=".5" d="M89.3 26l9.7-5 .8 1.4-9.8 5z"/><path fill="#e3d0b1" fill-opacity=".5" d="M164 60.7l-.3 1.5-32.3-5.7.2-1.5z"/><path fill="#e0cdb0" fill-opacity=".5" d="M375 44.7L358 46l-.1-1.5 17.1-1.2z"/><path fill="#cebd9d" fill-opacity=".5" d="M316.4 19l-3.3 18.4-9.2-1.6 3.3-18.5z"/><path fill="#a38d6e" fill-opacity=".5" d="M202.2 94.8L201 82.3l42-3.6 1.1 12.4z"/><path fill="#62513f" fill-opacity=".5" d="M264.7 176.4l1.5.4-1.2 4.6-1.5-.4z"/><path fill="#d6c3a7" fill-opacity=".5" d="M343.3 14.6l-.7-1.4L370.7-.5l.7 1.4z"/><path fill="#ccba98" fill-opacity=".5" d="M397 55.7l-7.8 1-.2-1.5 7.7-1z"/><path fill="#ad9475" fill-opacity=".5" d="M309 53.8l76 17.6-1.7 7.6-76.1-17.6z"/><path fill="#e2d1b3" fill-opacity=".5" d="M136.8 29.6L82.5-17.5l1-1.2 54.3 47.2z"/><path fill="#8a775c" fill-opacity=".5" d="M271.6 127.6l-18-5.4 1.4-4.5 18 5.5z"/><path fill="#e7d7b6" fill-opacity=".5" d="M130.9 9l-.5-1.4 9-2.6.5 1.5z"/><path fill="#3c2e1c" fill-opacity=".5" d="M308 204l-79.6 2.9-.5-12.5 79.7-2.8z"/><path fill="#5b4b34" fill-opacity=".5" d="M144.5 196.2l-1.3-.9 7.6-11.8 1.3.9z"/><path fill="#e5d4b5" fill-opacity=".5" d="M265.4 14l-18.5 3.2-1.3-7.7L264 6.2z"/><path fill="#a68e6e" fill-opacity=".5" d="M141.7 81.4l-20-9 3.8-8.5 20 9z"/><path fill="#675842" fill-opacity=".5" d="M371 176l-1.2-3 1.4-.5 1.2 2.9z"/><path fill="#5f4b33" fill-opacity=".5" d="M176.8 178.8l-8.7 9-9-8.7 8.7-9z"/><path fill="#65553b" fill-opacity=".5" d="M281 182.8l-1.5-.4 3.6-13.6 1.5.4z"/><path fill="#382a17" fill-opacity=".5" d="M104.9 199.2h-1.6l-.4-6.2h1.6z"/><path fill="#725c43" fill-opacity=".5" d="M377.6 150.2l6.9-3.7 11.3 20.4-6.8 3.8z"/><path fill="#473a24" fill-opacity=".5" d="M336.4 162.7l95 40.3-.6 1.5-95-40.3z"/><path fill="#c1b18c" fill-opacity=".5" d="M177.1 69.4L171 68l.3-1.5 6.1 1.3z"/><path fill="#c8b48e" fill-opacity=".5" d="M291.5 53.5l-.1-1.6 9.3-.7.1 1.6z"/><path fill="#947f64" fill-opacity=".5" d="M260.5 117.3l43.3 6-.2 1.6-43.3-6z"/><path fill="#705941" fill-opacity=".5" d="M45.8 147.6l.5 12.5-90.6 3.2-.4-12.5z"/><path fill="#ebd8b5" fill-opacity=".5" d="M234.4 66.2l-23.3 2-.2-1.6 23.4-2z"/><path fill="#5a4d38" fill-opacity=".5" d="M362.7 171.8l1.5.1-.3 4.7-1.6-.1z"/><path fill="#e6d5b9" fill-opacity=".5" d="M356.9 2.2l-.7 1.4-8.4-4.3.7-1.3z"/><path fill="#d8c6a5" fill-opacity=".5" d="M87.5 67.4V66l29.7-.5V67z"/><path fill="#3e2f1a" fill-opacity=".5" d="M233 195.6l-1.5.4-3.6-11.9 1.5-.5z"/><path fill="#d9c8ab" fill-opacity=".5" d="M308 18l-5.6 5.6-8.8-8.9 5.5-5.5z"/><path fill="#69563d" fill-opacity=".5" d="M369.1 165.3l9.1-2.3 1.1 4.5-9 2.3z"/><path fill="#deccaf" fill-opacity=".5" d="M52.2 31.3l.1 1.6-34.2 3-.1-1.6z"/><path fill="#9f886a" fill-opacity=".5" d="M190.1 92.8l-.6 9.4-40.6-2.8.7-9.4z"/><path fill="#e6d4b8" fill-opacity=".5" d="M283 26.4l24.8-48.8 1.4.7-24.8 48.8z"/><path fill="#7b6b4f" fill-opacity=".5" d="M382.3 143l-7 3.3-6-12.7 7-3.3z"/><path fill="#8b7255" fill-opacity=".5" d="M-2.4 112l18.6-2.2.2 1.6-18.6 2.2z"/><path fill="#decdaf" fill-opacity=".5" d="M251.2 31.3L267 44l-1 1.2-15.8-12.8z"/><path fill="#ead7b9" fill-opacity=".5" d="M225.3 51.8L195.9 56l-.9-6.1 29.4-4.2z"/><path fill="#e3d1b1" fill-opacity=".5" d="M154 10.8l14 2-1.8 12.3-13.9-2z"/><path fill="#978363" fill-opacity=".5" d="M352.2 128.4l-1.6 7.7-16.8-3.6 1.6-7.6z"/><path fill="#a48d6f" fill-opacity=".5" d="M110.7 76.5l.7-7.8 73.2 6.4-.7 7.8z"/><path fill="#d3c2a3" fill-opacity=".5" d="M264.4 38.5l4.3-8.4 27.8 14.2-4.2 8.4z"/><path fill="#776348" fill-opacity=".5" d="M225.2 154.5l57.1-9 .3 1.5-57.1 9z"/><path fill="#3e2f1b" fill-opacity=".5" d="M123.1 209.2l-1.5.2-2.5-20.2 1.5-.2z"/><path fill="#d0bfa0" fill-opacity=".5" d="M196 34.4l.8-1.4 18 9.2-.6 1.4z"/><path fill="#766347" fill-opacity=".5" d="M161.4 128l33.4 8.3-1.5 6-33.4-8.3z"/><path fill="#edddbe" fill-opacity=".5" d="M169.4 4.2l-.4 1.5-18-5.2.4-1.5z"/><path fill="#ae9777" fill-opacity=".5" d="M289.8 55.2l-1.5 7.7-4.6-1 1.5-7.6z"/><path fill="#d4c1a2" fill-opacity=".5" d="M191.8 52.3l-7.5-2 3.6-13.6 7.5 2z"/><path fill="#947f64" fill-opacity=".5" d="M48.4 104.6v1.5l-64 3.4v-1.6z"/><path fill="#453621" fill-opacity=".5" d="M381.5 166.6l1.6-.2 2.6 24.9-1.6.1z"/><path fill="#dbc8a4" fill-opacity=".5" d="M92.9 69.6l1.9-7.6 4.5 1.2-1.9 7.6z"/><path fill="#e4d3b4" fill-opacity=".5" d="M77.1-2.6l.2 1.5-49.7 5.3-.2-1.6z"/><path fill="#735f46" fill-opacity=".5" d="M-48.9 135.5L61.5 124l1.4 14-110.3 11.6z"/><path fill="#3b2d19" fill-opacity=".5" d="M140 191.1l1.5-.4 4.4 16.6-1.5.4z"/><path fill="#ebd9b7" fill-opacity=".5" d="M42.9 63.2l28-1.4.3 4.6-28 1.5z"/><path fill="#dfd2b6" fill-opacity=".5" d="M127.5-2.4l25 1.7L152 4l-24.9-1.8z"/><path fill="#deccac" fill-opacity=".5" d="M188.9 22l-26.4-3.3.2-1.6 26.4 3.3z"/><path fill="#dbcbab" fill-opacity=".5" d="M113.6 28.8l9 2.2-3.3 13.7-9.1-2.3z"/><path fill="#ecd9b9" fill-opacity=".5" d="M69.6 70.7L100 54.5l.7 1.4L70.3 72z"/><path fill="#c2b08f" fill-opacity=".5" d="M228.6 68.3l.5 1.5-3 1-.5-1.6z"/></svg>