<svg xmlns="http://www.w3.org/2000/svg" viewBox="0 0 400 200"><filter id="c"><feGaussianBlur stdDeviation="55" /></filter><path fill="#9e8a6e" d="M0 0h400v200H0z"/><g filter='url(#c)' fill-opacity='.5'><path fill="#ffffea" fill-opacity=".5" d="M401.6 56.7L3.7 77.5-3.2-55l397.9-21z"/><path fill="#271602" fill-opacity=".5" d="M393.2 281L-4.3 253l9.5-135.6 397.5 27.8z"/><path fill="#261b0d" fill-opacity=".5" d="M74.3 197.1l397-34.7L474 195 77 229.7z"/><path fill="#867052" fill-opacity=".5" d="M391.7 164.4l-398.4-7 1-51.5 398.3 7z"/><path fill="#f5dcb6" fill-opacity=".5" d="M-84.4-18l356.2 6.3-1.5 84.3-356.2-6.2z"/><path fill="#ad8f6b" fill-opacity=".5" d="M249.5 63.9l119.2-25.3 8.4 39.7L258 103.6z"/><path fill="#a28764" fill-opacity=".5" d="M90.8 67.6l74.9-4 1.3 26.6-74.8 4z"/><path fill="#e5ccab" fill-opacity=".5" d="M282.3-26.9l247 61.6-13.1 53.1L269 26.2z"/></g></svg>