<svg xmlns="http://www.w3.org/2000/svg" viewBox="0 0 400 200"><path fill="#9e8a6e" d="M0 0h400v200H0z"/><path fill="#ffffe8" fill-opacity=".5" d="M398.5 61.8L.3 75.7-3.2-25.8l398.2-14z"/><path fill="#271703" fill-opacity=".5" d="M5.4 120.1L403.2 141l-7 134.2-397.9-20.9z"/><path fill="#271c0d" fill-opacity=".5" d="M417.1 199.4L46.7 231.8 43.8 199l370.5-32.4z"/><path fill="#846e52" fill-opacity=".5" d="M-1.1 111.4l398.4 7-.9 46.8-398.3-7z"/><path fill="#ae8f6c" fill-opacity=".5" d="M279.3 38.7L411 57.2l-7.4 52.6L272 91.3z"/><path fill="#f6dcb7" fill-opacity=".5" d="M269.6 70.2l-348.4-6 1.4-76.6 348.4 6z"/><path fill="#fff4d5" fill-opacity=".5" d="M398.2 58.2L382 53l18.3-56.4 16.4 5.3z"/><path fill="#a78d6c" fill-opacity=".5" d="M203.2 72.7l157-27.6 7 40-157 27.6z"/><path fill="#9f8461" fill-opacity=".5" d="M162.5 64v51.6h-54.7V64.1z"/><path fill="#52402a" fill-opacity=".5" d="M205.4 228.2l-393-55.2 5.6-40.3L211 188z"/><path fill="#ebd7b6" fill-opacity=".5" d="M231.3-.3l65-17.4L314 48.7l-64.9 17.4z"/><path fill="#766347" fill-opacity=".5" d="M-45.4 96.3l186.7 29.6-3.7 23.1L-49 119.4z"/><path fill="#d2c1a3" fill-opacity=".5" d="M132.2 51.6l-1.9-54.7 92.2-3.2 1.9 54.7z"/><path fill="#817154" fill-opacity=".5" d="M418.6 150.4l-229.7-4 .3-17.2 229.7 4z"/><path fill="#392c1a" fill-opacity=".5" d="M336.7 153.9l27.7 10.6-15.1 39.4-27.7-10.6z"/><path fill="#e8d5b5" fill-opacity=".5" d="M38.3 13l42-5.2 8 65.2-42 5.1z"/><path fill="#d7c1a1" fill-opacity=".5" d="M262 55l-3.8-28 150-21 4 27.8z"/><path fill="#eedbba" fill-opacity=".5" d="M236.1 69.8l-54.6 1-.5-23.4 54.7-1z"/><path fill="#af9676" fill-opacity=".5" d="M447.6 90.9L298.2 77.8l2.6-29.6 149.4 13z"/><path fill="#f0dfc0" fill-opacity=".5" d="M-16.1-4.4l115 12-3.1 29.6-115-12z"/></svg>