<svg xmlns="http://www.w3.org/2000/svg" viewBox="0 0 400 200"><path fill="#9e8a6e" d="M0 0h400v200H0z"/><g stroke-opacity=".5" fill="none" stroke-width=".8"><path stroke="#000" d="M424.2 194.4q-148.5 2.7-435.6 3.5m435.6.1Q129.6 200.4-9 200m433.2-8.4q-244.6-.5-427.5 0m-20.9-5.4q21 .7 448.4.3"/><path stroke="#fffff4" d="M2 12.6q5.6-25.3 406.3-1.4"/><path stroke="#000" d="M4.3 192.1q216.2 12.1 420-13.8"/><path stroke="#080000" d="M424.2 161.5q-28.9 43-442 6"/><path stroke="#000" d="M-24.2 185.5q328.1 18.6 426.7-.6"/><path stroke="#070000" d="M408.2 177Q240 187.3-24.2 184"/><path stroke="#000" d="M421.9 199.8q-446.1 3.5-446.1-15.6"/><path stroke="#fffffa" d="M-24.2 44.8Q51 64.7 405.5 42.6"/><path stroke="#fffff7" d="M424.2 13.5q-85.7 4.3-448.4 2.6"/><path stroke="#fffff3" d="M-4.8-9.4q19.5 130.6 429 23.2"/><path stroke="#030000" d="M-24.2 196q68 3.7 429 1"/><path stroke="#120400" d="M-24.2 157q17.7 42.6 448.4 13"/><path stroke="#fffff2" d="M-9.7 21.9q79.5-1.6 434-.4"/><path stroke="#050000" d="M39 188.7q286.3 0 385.2-.8"/><path stroke="#fffff4" d="M-12.8 15.4q215-31.3 433 47.5"/><path stroke="#180a00" d="M-24.2 186q207.8-26.2 448.4-2.6"/><path stroke="#fffff1" d="M424.2 13.2H5M6.8 24q178.5 1 417.4-.3"/><path stroke="#ffe" d="M424.2 10.6Q23.5 122-6.8-24.2"/><path stroke="#ffffea" d="M3.2 26.2q163.1 1.4 409.6 1.4"/><path stroke="#180900" d="M-24.2 161.7q411.3 40.5 418.4-2.9"/><path stroke="ivory" d="M395.3 16q-267-24.4-419.5-1.2"/></g></svg>