<svg xmlns="http://www.w3.org/2000/svg" viewBox="0 0 400 200"><path fill="#9e8a6e" d="M0 0h400v200H0z"/><path fill="#ffffec" fill-opacity=".5" d="M-3.1-53.5l397.9-20.9 6.8 129.5L3.6 76z"/><path fill="#271602" fill-opacity=".5" d="M393.2 281L-4.3 253l9.5-135.6 397.5 27.8z"/><path fill="#877153" fill-opacity=".5" d="M394.8 162.8l-398.3-7 .9-51.5 398.3 7z"/><path fill="#251a0c" fill-opacity=".5" d="M74.9 196.2l339.3-29.7 3.1 35.8L78 232z"/><path fill="#f4dab3" fill-opacity=".5" d="M-108.6-16.8L269.3-30l3.4 98.4-377.9 13.2z"/><path fill="#b19470" fill-opacity=".5" d="M285 102.7L298.8 37l114.6 24.4-14 65.7z"/><path fill="#9d8361" fill-opacity=".5" d="M163.8 63.9l2 39-68.6 3.6-2-39z"/><path fill="#a88e6d" fill-opacity=".5" d="M339.7 43l9 33.3-108.7 29-9-33.1z"/><path fill="#fff4d1" fill-opacity=".5" d="M408.4 59.3l-35-8.1 4.2-18.3 35 8.1z"/><path fill="#7a6b4f" fill-opacity=".5" d="M421 130.5v18.7H224.3v-18.7z"/><path fill="#e2c9a6" fill-opacity=".5" d="M273.8 52l-5.2-74.7 84.2-6 5.2 74.9z"/><path fill="#513f29" fill-opacity=".5" d="M-47.9 224l5.9-66.9 197.7 17.3-5.9 67z"/><path fill="#ccba9c" fill-opacity=".5" d="M124.2 49.2V30.5h100v18.7z"/><path fill="#f2e0be" fill-opacity=".5" d="M192 68.3l.4-26.6 54.7 1-.5 26.5z"/><path fill="#f7e6c7" fill-opacity=".5" d="M215 6.6l45.6-35.5 26 33.2L241 39.9z"/><path fill="#b09974" fill-opacity=".5" d="M-31.8 82.9l-.4-11 93.7-3.2.4 11z"/><path fill="#715e44" fill-opacity=".5" d="M110.2 117.7l-3.6 51.4L-39.9 159l3.6-51.5z"/><path fill="#392d1b" fill-opacity=".5" d="M317.6 192.4l19.2-39.3 25.3 12.3-19.2 39.3z"/><path fill="#f1e0c1" fill-opacity=".5" d="M-86.4 54l-8.7-49.2L88-27.5l8.7 49.3z"/><path fill="#d9c2a1" fill-opacity=".5" d="M330.7-9.4l108.7-29.1 15.8 58.8-108.7 29.2z"/><path fill="#9e8667" fill-opacity=".5" d="M217 77.4l-10.2 64.8-94.2-14.9L123 62.5z"/><path fill="#756248" fill-opacity=".5" d="M125.4 168.1l.7-40.6 162.5 2.8-.7 40.6z"/><path fill="#736045" fill-opacity=".5" d="M364.5 177l-6.6-41.7 47.9-7.6 6.6 41.7z"/><path fill="#a08869" fill-opacity=".5" d="M203.6 82.7l181.8 19.1-3 29.5-181.9-19z"/><path fill="#53432b" fill-opacity=".5" d="M319.5 170.4l.8 9.4-194.5 17-.8-9.4z"/></svg>