<svg xmlns="http://www.w3.org/2000/svg" viewBox="0 0 100 50"><path fill="#9d8a6e" d="M0 0h100v50H0z"/><g fill-opacity=".5"><path fill="#ffe" d="M-15.5 19.5l131-9-100-26z"/><path fill="#251401" d="M-15.5 23.5l30 42 101-22z"/><path fill="#f7ddb7" d="M115.5.5l-131-4 69 21z"/><path fill="#413220" d="M115.5 65.5v-38l-125 28z"/><path fill="#836c50" d="M49.5 46.5l-65-21 128 6z"/><path fill="#f1d9b5" d="M-.5 16.5l-10-25 72 24z"/><path fill="#b89b78" d="M68.5 8.5l31 5 8 23z"/><path fill="#322817" d="M65.5 65.5l50-23-121 7z"/><path fill="#9c8362" d="M5.5 18.5l36-3-57 28z"/><path fill="#dac9aa" d="M76.5-15.5l-53 27h92z"/><path fill="#fffedb" d="M95.5 11.5l20-18v25z"/><path fill="#735e45" d="M35.5 40.5l32-10 34 9z"/><path fill="#faeac9" d="M59.5 14.5l20-30h-25z"/><path fill="#78644a" d="M50.5 32.5l-48 8-17-15z"/><path fill="#b09574" d="M49.5 19.5l66 1-31-10z"/><path fill="#55432d" d="M66.5 43.5l-82-5v25z"/><path fill="#d3c2a4" d="M81.5-15.5l-11 28 45-8z"/><path fill="#f0dbb8" d="M17.5 18.5l15-6-36-1z"/><path fill="#a58b6a" d="M50.5 30.5l40-14-88 2z"/><path fill="#cebc9d" d="M26.5 10.5l13-5 16 6z"/><path fill="#9a8365" d="M114.5 33.5l-33-14-47 11z"/><path fill="#817051" d="M43.5 31.5l29-1-14 7z"/><path fill="#f2e1c2" d="M24.5 2.5l-30-11-7 19z"/><path fill="#3c2f1f" d="M107.5 53.5l-23-15-6 27z"/><path fill="#9e8668" d="M33.5 15.5l-34 8 55 8z"/><path fill="#f2debc" d="M47.5 16.5l17-2-1-6z"/><path fill="#a89072" d="M80.5 12.5l-28 6 56 10z"/><path fill="#725e46" d="M89.5 35.5l3 7 19-5z"/><path fill="#715b44" d="M-2.5 40.5l5-11 33 8z"/><path fill="#d5c4a5" d="M89.5 11.5l-26-4 52-14z"/><path fill="#392c1b" d="M61.5 65.5l-40-16 65-4z"/><path fill="#ae9373" d="M31.5 19.5l-3-4h14z"/><path fill="#66523d" d="M87.5 38.5l-20 6 2-9z"/><path fill="#c7bba1" d="M58.5-15.5l-16 19 9-1z"/><path fill="#ffe0c0" d="M92.5 11.5l16 4 7-15z"/><path fill="#b69e80" d="M79.5 11.5l28 2 8 11z"/><path fill="#ecd9b8" d="M43.5 14.5l-14-5-4 6z"/><path fill="#7d674c" d="M80.5 33.5l35-3v12z"/><path fill="#a18869" d="M3.5 18.5l-1 9-18-12z"/><path fill="#ecd6b8" d="M42.5 16.5l-1-5 17 5z"/><path fill="#625037" d="M37.5 46.5l17-7h-41z"/><path fill="#413422" d="M110.5 42.5l5 15-43-14z"/><path fill="#d6c3a4" d="M27.5 6.5l17 6 15-4z"/><path fill="#827053" d="M77.5 32.5l-17 5-12-7z"/><path fill="#988264" d="M51.5 31.5l-15-10-23 4z"/><path fill="#817153" d="M6.5 25.5l-17 6 36-2z"/><path fill="#d6c7a6" d="M42.5 7.5l-28-23h-30z"/><path fill="#f0dfc0" d="M54.5 2.5l14 12-16-30z"/><path fill="#d6c3a1" d="M10.5 7.5l11 3-9 1z"/><path fill="#e8d8b8" d="M86.5 11.5l-3-8-2 3z"/><path fill="#e6d4b9" d="M75.5 5.5l-13-3 11-4z"/><path fill="#cfba9b" d="M70.5 13.5l8-3 3-11z"/><path fill="#57462f" d="M-3.5 45.5l35-2-47 20z"/><path fill="#cdbe9f" d="M88.5 9.5l15-8-19 4z"/><path fill="#eedabb" d="M16.5 10.5l4 7-21-7z"/><path fill="#a18b6d" d="M88.5 21.5l27 10h-37z"/><path fill="#584a37" d="M51.5 47.5l-5 4 3-6z"/><path fill="#d1bd9e" d="M65.5 5.5l13 3-11 2z"/><path fill="#efdbb9" d="M58.5 9.5l10 4-18 1z"/><path fill="#a98f70" d="M25.5 19.5l21-1-12-3z"/><path fill="#cdb593" d="M14.5 18.5l5-2h-8z"/><path fill="#d2b892" d="M-7.5 14.5l19 2-27 5z"/><path fill="#ad9476" d="M85.5 11.5l19 10-30-6z"/><path fill="#dfd1b1" d="M34.5 7.5l-11 2-6-6z"/><path fill="#ddcab1" d="M78.5 3.5l17-1-7-3z"/><path fill="#67533f" d="M70.5 43.5l-10-5-7 5z"/><path fill="#ead8b9" d="M24.5 8.5l-14-9-4 7z"/><path fill="#725d44" d="M7.5 30.5l-23 5 43 4z"/><path fill="#ccb89a" d="M36.5 8.5l6 3h-9z"/><path fill="#ebdbbc" d="M42.5 5.5l4 1 2-4z"/><path fill="#6d5741" d="M67.5 36.5h11l5 6z"/><path fill="#9f8569" d="M19.5 23.5l-29-6-6 11z"/><path fill="#755f47" d="M52.5 40.5l-16-1 9-7z"/><path fill="#3d2f1e" d="M23.5 65.5l1-18 28 2z"/><path fill="#a58f70" d="M10.5 19.5l5 3 12-5z"/><path fill="#756448" d="M41.5 36.5l6-4-20-1z"/><path fill="#d3c2a6" d="M56.5 6.5l-7 1 5-4z"/><path fill="#988266" d="M53.5 30.5h-26l19-8z"/><path fill="#e5d9bd" d="M32.5 3.5l9-1 5-6z"/><path fill="#a99272" d="M84.5 12.5l-14 2 11 5z"/><path fill="#ead8b8" d="M22.5 13.5l6 3 8-5z"/><path fill="#e5d1b2" d="M-15.5 17.5l5-7 22 5z"/><path fill="#ac9172" d="M37.5 16.5l12 1-11 3z"/><path fill="#40321f" d="M69.5 65.5l17-8-1-19z"/><path fill="#988365" d="M84.5 25.5l-21 2 18 4z"/><path fill="#a68f70" d="M27.5 19.5l5-4 3 1z"/><path fill="#d2bfa0" d="M31.5 10.5l12 1-8-4z"/><path fill="#544531" d="M96.5 44.5l2-2-8-1z"/><path fill="#705f48" d="M97.5 38.5l-6-1 1 4z"/><path fill="#edd9ba" d="M60.5 14.5l-9 2-1-6z"/><path fill="#a1896a" d="M49.5 25.5l20-6 17 6z"/><path fill="#ffeccd" d="M94.5 12.5l21-14-6 13z"/><path fill="#847155" d="M75.5 31.5l-15 4 4-6z"/><path fill="#dec9a8" d="M-.5 9.5l8 1 8-4z"/><path fill="#624b36" d="M-10.5 39.5h32l-16 5z"/><path fill="#e8d6b9" d="M53.5 4.5l-12 1 6 2z"/><path fill="#f5e7cb" d="M54.5.5l34-3-20-13z"/><path fill="#ccbb9a" d="M31.5.5l12-16-25 10z"/><path fill="#ecd8b9" d="M17.5 6.5l-15 2-8-7z"/><path fill="#422f1a" d="M-11.5 38.5l-4 23 35 4z"/></g></svg>