<svg xmlns="http://www.w3.org/2000/svg" viewBox="0 0 400 200"><path fill="#9e8a6e" d="M0 0h400v200H0z"/><g fill-opacity=".5"><path fill="#ffffea" d="M-24.2 88.3L18-24.2 424.2 32z"/><path fill="#251501" d="M424.2 188.3L-24.2 93l36 131.2z"/><path fill="#3c2d19" d="M399.2 124.2L36.7 197.7l361 26.5z"/><path fill="#f8e0bc" d="M424.2.8L-22.7-.8 211.7 82z"/><path fill="#887153" d="M-4 64.8l362.6 84.4-361 12.5z"/><path fill="#e4d3b6" d="M424.2-22.7L104 5.5l293.8 53z"/><path fill="#746146" d="M424.2 125.8L5.5 128.9l204.7 62.5z"/><path fill="#e0ccab" d="M246-24.2L-24.1 74.2l448.4-25z"/><path fill="#a28967" d="M.8 79L-18 136.6l187.5-75z"/><path fill="#302415" d="M166.4 197.7L382 224.2l42.2-64z"/><path fill="#a38968" d="M349.2 43l75 98.4L43 108.6z"/><path fill="#f3dcba" d="M171 61.7l-195.2-75V68z"/><path fill="#ffffe2" d="M363.3 47.7l56.2 10.9 4.7-34.4z"/><path fill="#f2e1c0" d="M277.3-24.2l-28 90.6-70.4 1.6z"/><path fill="#bba280" d="M424.2 118L404 55.5 249.2 28.9z"/><path fill="#a18868" d="M249.2 72.7L41.4 119.5 118 63.3z"/><path fill="#d0bfa1" d="M244.5 43l-50-45.3-125 53z"/><path fill="#3d2f1e" d="M339.8 152.3l-45.3 72 129.7-14.1z"/><path fill="#d3c2a5" d="M372.7 49.2L424.2.8 232 35.2z"/><path fill="#5a472f" d="M216.4 174.2l-240.6 39 39-60.9z"/><path fill="#806f53" d="M210.2 149.2l40.6-40.6L393 141.4z"/><path fill="#f4e3c4" d="M297.7-24.2l-86 14 29.7 57.9z"/><path fill="#a48d6e" d="M-24.2 118l157.8-45.3L32 71z"/><path fill="#6f5a40" d="M275.8 179l75-37.6L152.3 154z"/><path fill="#efdebe" d="M133.6 24.2l-157.8 6.3 18.7-51.6z"/><path fill="#aa9072" d="M180.5 82l243.7 20.3-112.5-53z"/><path fill="#eedcba" d="M282 58.6L171 68l76.7-32.8z"/><path fill="#776346" d="M361.7 171l25-45.2 37.5 40.6z"/><path fill="#d4c3a5" d="M313.3-10.2l106.2 36-139 28.1z"/><path fill="#e4d1b1" d="M71 11.7l-17 64 70.2-12.4z"/><path fill="#41331f" d="M61.7 200.8l187.5-20.3-112.5 43.7z"/><path fill="#847456" d="M55.5 105.5l-45.3 18.7 106.2-3.1z"/><path fill="#9b8466" d="M149.2 104l165.6-22 37.5 50z"/><path fill="#cfbb9d" d="M50.8 30.5L96 46 8.6 41.4z"/><path fill="#d4c2a4" d="M79-2.3l107.7 56.2-84.4-78.1z"/><path fill="#5f4d33" d="M211.7 168l-6.2 29.7-92.2-18.8z"/><path fill="#705c44" d="M168 157l-192.2-56.2 4.7 64z"/><path fill="#fde4c7" d="M424.2 61.7l-46.9-12.5 47-56.2z"/><path fill="#d5c09a" d="M-24.2 55.5v21.8L57 69.5z"/><path fill="#69543a" d="M255.5 144.5l79.7 9.4-9.4 21.9z"/><path fill="#eddaba" d="M146 10.2l42.3 23.4 18.7-11z"/><path fill="#403220" d="M307 224.2l28.2-67.2 89 47z"/><path fill="#eddabc" d="M157 64.8l-40.6-18.7 87.5 9.4z"/><path fill="#a08a6b" d="M127.3 105.5L-8.6 86.7 143 63.3z"/><path fill="#584630" d="M141.4 182L25.8 158.6l-50 54.7z"/><path fill="#ceba9b" d="M141.4 27.3l-14 22 64-1.6z"/><path fill="#e4d4b4" d="M321 19.5l8 25 31.2 1.6z"/><path fill="#a99172" d="M424.2 139.8l-157.8-78 100-12.6z"/><path fill="#a58e6e" d="M238.3 72.7L196 93l-65.6-26.6z"/><path fill="#756047" d="M147.7 168L257 152.3l-93.7-26.5z"/><path fill="#d2c1a2" d="M280.5 54l46.8-28.2-73.4-1.6z"/><path fill="#ad9574" d="M319.5 47.7l86 25-175-1.6z"/><path fill="#cbbaa1" d="M202.3-24.2l-32.8 34.4 43.8 3z"/><path fill="#eedaba" d="M86.7 71l-111-21.8L55.6 43z"/><path fill="#eddbb9" d="M210.2 46l85.9 4.8-82.8 18.7z"/><path fill="#e4d3b7" d="M297.7-5.5l-57.9 15.7 54.7 17.1z"/><path fill="#d3c2a5" d="M413.3-24.2L396 35.2l-71.9 12.5z"/><path fill="#b49b79" d="M374.2 72.7l50-14.1-79.7-9.4z"/><path fill="#79684d" d="M293 138.3l73.4 15.6 51.6-25z"/><path fill="#817054" d="M-24.2 129l37.5-22 67.2 11z"/><path fill="#cfbc9f" d="M286.7 54l40.6-76.7L316.4 43z"/><path fill="#f9e9ca" d="M188.3-22.7H296l-61 32.9z"/><path fill="#e8d4b4" d="M227.3 69.5l-60.9-4.7 43.8-18.7z"/><path fill="#79624a" d="M150.8 93h-11l15.7-7.8z"/><path fill="#372817" d="M172.7 196l-78.2-1.5-28 29.7z"/><path fill="#483824" d="M360.2 155.5l-4.7 21.8 15.6 18.8z"/><path fill="#857256" d="M130.5 118l25 15.6-54.7-14z"/><path fill="#9d8667" d="M-24.2 79l57.8 29.6 1.6-34.4z"/><path fill="#9a8466" d="M405.5 122.7l-68.8 12.5-78.1-34.4z"/><path fill="#eddabc" d="M122.7 47.7l-59.4 1.5L118 66.4z"/><path fill="#f1ddbe" d="M350.8 43l28.1 9.3v-7.8z"/><path fill="#e6d5b6" d="M341.4 10.2l-18.7 31.2 1.5-25z"/><path fill="#413321" d="M396 224.2l-103-48.4 123.4-1.6z"/><path fill="#d0bfa0" d="M354 47.7l40.5-34.4-61 6.2z"/><path fill="#d6c4a5" d="M230.5 44.5l-72 3.2 68.8-32.9z"/><path fill="#ebdaba" d="M-11.7 19.5l156.2 4.7-159.3-48.4z"/><path fill="#deccad" d="M79 14.8l1.5 43.8 53-28.1z"/><path fill="#806d51" d="M216.4 152.3l7.8-31.2 109.4 15.6z"/><path fill="#e7d5b6" d="M36.7-5.5l75 43.8L29 28.9z"/><path fill="#392b1a" d="M108.6 224.2H182l-11-39z"/><path fill="#d2c1a3" d="M33.6-5.5l70.3-18.7L152.3 7z"/><path fill="#a18a6c" d="M416.4 125.8L233.6 97.7l70.3-34.4z"/><path fill="#937c60" d="M252.3 129l-6.2-17.3-59.4 17.2z"/><path fill="#9b8467" d="M146 129l100-14.2-142-29.6z"/><path fill="#a58d6d" d="M127.3 63.3l78.2 9.4L85.2 99.2z"/><path fill="#5f4d33" d="M149.2 193l39-25-96.8 9.3z"/><path fill="#624f37" d="M363.3 177.3l54.7-14-51.6-1.6z"/><path fill="#998365" d="M107 89.8l61 32.9-147-17.2z"/><path fill="#d6c2a4" d="M50.8 36.7l39 14 28.2-9.3z"/><path fill="#54422d" d="M-14.8 183.6l101.5 11-111 29.6z"/><path fill="#6a573d" d="M282 182l17.2-36-43.7 4.8z"/><path fill="#52432b" d="M275.8 171l-70.3 12.6 28 7.8z"/><path fill="#e3d1b1" d="M168 7l-62.5-3L168 24.1z"/><path fill="#857157" d="M318 147.7l-22-25-50-4.7z"/><path fill="#c8b48a" d="M52.3 72.7l-15.6 1.5-9.4-6.2z"/><path fill="#d3c2a5" d="M263.3 24.2l17.2-9.4-1.6 34.4z"/><path fill="#f9e7c9" d="M424.2 52.3L397.7 32l-17.2 22z"/><path fill="#7b694d" d="M422.7 169.5l-72-39h45.4z"/><path fill="#423421" d="M408.6 224.2h-25l-1.6-64z"/><path fill="#9a8366" d="M244.5 105.5l67.2-7.8 11 35.9z"/></g></svg>