<svg xmlns="http://www.w3.org/2000/svg" viewBox="0 0 400 200"><path fill="#9e8a6e" d="M0 0h400v200H0z"/><path fill="#ffffe9" fill-opacity=".5" d="M401.7 57.5L3.7 78.3l-7-134.2 398-20.8z"/><path fill="#271602" fill-opacity=".5" d="M5.2 117.5l397.5 27.8-9.5 135.6-397.5-27.8z"/><path fill="#251a0c" fill-opacity=".5" d="M74 197.1l397-34.7 3.4 39-397 34.6z"/><path fill="#867052" fill-opacity=".5" d="M-10.5 107.5l398.4 7-.9 48.3-398.3-7z"/><path fill="#f7ddb7" fill-opacity=".5" d="M-17.5-2l192-10 3.9 74.9-192 10z"/><path fill="#b1936e" fill-opacity=".5" d="M395.5 101.8L277.9 85.3l6.3-45L401.8 57z"/><path fill="#f6ddb8" fill-opacity=".5" d="M293.8-9.9l14 61-112.6 26-14-61z"/><path fill="#a08461" fill-opacity=".5" d="M161.4 112.4L99 115.7l-2.6-48.4 62.4-3.3z"/><path fill="#6e5c41" fill-opacity=".5" d="M361.8 179.7l-7.1-44.7 63.2-10 7.1 44.7z"/><path fill="#a88e6e" fill-opacity=".5" d="M344.5 43.7l8.4 39.8-114.6 24.3-8.4-39.7z"/><path fill="#fde4c3" fill-opacity=".5" d="M397.4 60.9l-21-10.3L401 .1l21 10.2z"/><path fill="#cfbd9d" fill-opacity=".5" d="M230 46.3l-123.4 4.3-.7-20.3L229.3 26z"/><path fill="#503f29" fill-opacity=".5" d="M207.3 249.2l-360.5-37.9 6.8-65.2L214.2 184z"/><path fill="#3a2d1c" fill-opacity=".5" d="M310.4 195.9l28.9-42.8 36.2 24.5-28.8 42.7z"/><path fill="#847256" fill-opacity=".5" d="M366.6 146.2l-171.9 3-.3-22 171.8-3z"/><path fill="#f2e1bf" fill-opacity=".5" d="M269.2 61.3l-36.4 9L210.5-19l36.4-9z"/><path fill="#7a674b" fill-opacity=".5" d="M141.4 140l-155-19.1 1.9-15.5 155 19z"/><path fill="#dbc4a4" fill-opacity=".5" d="M264.8-46h115.7v93.7H264.8z"/><path fill="#aa906d" fill-opacity=".5" d="M-28 70.4l164 3-.2 17-164-2.8z"/><path fill="#b29a78" fill-opacity=".5" d="M332.1 71.3l4-24.7 74 11.8-4 24.7z"/><path fill="#a78e6e" fill-opacity=".5" d="M410.5 83.4l2.3 45.2-99.8 5.2-2.4-45.2z"/><path fill="#f2ddbb" fill-opacity=".5" d="M230.4 72.5L126 63.4l1.3-15.6L231.7 57z"/><path fill="#a18969" fill-opacity=".5" d="M113.8 65.5l95.2 5-2.5 46.8-95.2-5z"/><path fill="#f0e0c0" fill-opacity=".5" d="M84.6-23.9l9.8 39.5L-83 59.8l-9.8-39.4z"/><path fill="#cbba9c" fill-opacity=".5" d="M316.3 44.3l-62.5-1.1.3-17.2 62.5 1.1z"/><path fill="#735d45" fill-opacity=".5" d="M243 170.4L29.1 159.2l1.3-25 213.8 11.3z"/><path fill="#d2bea0" fill-opacity=".5" d="M350.2 48.6l-10-26.2 83-32 10.1 26.3z"/><path fill="#6e5841" fill-opacity=".5" d="M-20.9 162.5l8.5-39.7 47.3 10-8.4 39.8z"/><path fill="#e6d3b2" fill-opacity=".5" d="M131.6 36.4l4.4 27.8-84.8 13.4L46.8 50z"/><path fill="#a2896a" fill-opacity=".5" d="M146.3 74.5l99.9-5.2 2.8 54.6-99.8 5.2z"/><path fill="#3d301d" fill-opacity=".5" d="M334.9 206.4l-42.9 19-19-42.7 42.8-19.1z"/><path fill="#f2e1c3" fill-opacity=".5" d="M293.6-.6l-50 37.7-26.3-35 50-37.6z"/><path fill="#fff0d3" fill-opacity=".5" d="M406.8 35.6l2.1 7.5-36 10.4-2.2-7.6z"/><path fill="#d1be9f" fill-opacity=".5" d="M1.5 41.7l.4-7.8 198.2 10.4-.4 7.8z"/><path fill="#d9c8a9" fill-opacity=".5" d="M226.2 49.5L66.2.7l9.2-30 159.9 49z"/><path fill="#69553b" fill-opacity=".5" d="M229.6 154.3l96.5-8.5 2 23.4-96.4 8.4z"/><path fill="#5c4b31" fill-opacity=".5" d="M158.2 177.1l127.8-8.9 1.1 15.6-127.8 9z"/><path fill="#77654b" fill-opacity=".5" d="M466 142l-1 18.6-198.2-10.3 1-18.8z"/><path fill="#a78e6f" fill-opacity=".5" d="M328.3 78.5l-64.2 19.7-9.6-31.4L318.7 47z"/><path fill="#9c8566" fill-opacity=".5" d="M131.8 103l200-24.5 3.6 29.4-200 24.6z"/><path fill="#997f5f" fill-opacity=".5" d="M101 95.9l-.6 17.2-121.8-4.3.6-17.2z"/><path fill="#9e8769" fill-opacity=".5" d="M35.2 78l115-12 3.7 35.7-115 12z"/><path fill="#af9677" fill-opacity=".5" d="M416.8 63.3l-8.8 38-70-16.1 8.7-38.1z"/><path fill="#d7c39d" fill-opacity=".5" d="M49.4 72.9L-.5 75.5l-.5-9.3 50-2.7z"/><path fill="#372818" fill-opacity=".5" d="M254.6 203.7L93.7 201l.1-6.2 161 2.8z"/><path fill="#ac9373" fill-opacity=".5" d="M122.7 63.2l73.2 6.4-1.4 15.6-73.2-6.4z"/><path fill="#817054" fill-opacity=".5" d="M213 130.6l61.6-10.8 4.6 26.1-61.6 10.9z"/><path fill="#7f6f52" fill-opacity=".5" d="M59.2 123.7L-24.5 134l-2-15.5 83.8-10.3z"/><path fill="#e3d1b1" fill-opacity=".5" d="M340.8 13.7l1.2 32.8-21.9.7-1.1-32.7z"/><path fill="#ebd8b6" fill-opacity=".5" d="M240.5 39.9l5.8 27.5-32 6.8-6-27.5z"/><path fill="#cfbd9e" fill-opacity=".5" d="M160.2 51l-27.5-5.8 5.5-26 27.5 5.9z"/><path fill="#654e37" fill-opacity=".5" d="M145 93.8l6.2-7 2.3 2.2-6.3 7z"/><path fill="#efdbbb" fill-opacity=".5" d="M171.6 30.4l.6-11 32.8 1.8-.6 10.9z"/><path fill="#eddabb" fill-opacity=".5" d="M122.7 63.6l-151-13.2.9-9.3 151 13.2z"/><path fill="#f7e7c4" fill-opacity=".5" d="M92.2 17.9l2.1-5.9 33.8 12.3-2.1 5.9z"/><path fill="#79664a" fill-opacity=".5" d="M375.5 127.8l45 5.5-3.8 31-45-5.5z"/><path fill="#ad9474" fill-opacity=".5" d="M303 66.5l-108.5 23-2.2-10.7 108.5-23z"/><path fill="#9f8767" fill-opacity=".5" d="M11.3 76.2L37.7 74l2.6 29.6-26.5 2.3z"/><path fill="#403120" fill-opacity=".5" d="M333 164.6L442 198l-11 35.8-109-33.3z"/><path fill="#9c8567" fill-opacity=".5" d="M237 89.3l113.7 28.3-4.9 19.7L232.1 109z"/><path fill="#d3c1a2" fill-opacity=".5" d="M238.4 39l-4 5-61.9-50.2 4-4.9z"/><path fill="#fae7c5" fill-opacity=".5" d="M364 43.4l40 7-.8 4.7-40-7.1z"/><path fill="#e3d3b8" fill-opacity=".5" d="M292 30l-37.3-19.8 20.5-38.6 37.3 19.8z"/><path fill="#5e4c34" fill-opacity=".5" d="M187 191.9l7.6-15.5 16.8 8.3L204 200z"/><path fill="#735e44" fill-opacity=".5" d="M123.7 126.6l55 11.7-7.1 33.6-55-11.7z"/><path fill="#877458" fill-opacity=".5" d="M246 135.3l-.2 1.5L118 125.7l.2-1.6z"/><path fill="#3c2e1c" fill-opacity=".5" d="M226 221.5l-9-23.3 55.5-21.3 9 23.3z"/><path fill="#cdbc9f" fill-opacity=".5" d="M130.8 6.8L64 1l.6-6.3L131.4.6z"/><path fill="#d5c2a6" fill-opacity=".5" d="M375.8 47.8l-25.5-20.6 44.2-54.7L420-6.8z"/><path fill="#45351f" fill-opacity=".5" d="M357.3 158.5l1.5-.4 7.3 25.5-1.5.5z"/><path fill="#ebd9b9" fill-opacity=".5" d="M40 26.8l11.7-34L99 9.1l-11.7 34z"/><path fill="#6a563c" fill-opacity=".5" d="M231.4 181.4l-4.6-19.8 71.5-16.5L303 165z"/><path fill="#f0e1c2" fill-opacity=".5" d="M149.4 3.1l23.2-12.9 4.6 8.2-23.3 13z"/><path fill="#e7d6b2" fill-opacity=".5" d="M69.5 66.6l49.9-3.5.2 3.1-49.9 3.5z"/><path fill="#cfbc9f" fill-opacity=".5" d="M300.2 53.3l-11.8-7.6L323.3-8 335-.4z"/><path fill="#aa9272" fill-opacity=".5" d="M330.7 95.1L307.1 87l13.7-40 23.7 8.2z"/><path fill="#5d4b32" fill-opacity=".5" d="M134.2 187.8l-123.4-2.2.3-21.8 123.5 2.1z"/><path fill="#cfbb96" fill-opacity=".5" d="M9.4 68.6l.4-3.2 66.7 8.2-.4 3.1z"/><path fill="#e2d0b2" fill-opacity=".5" d="M40.6 15l7 12.2-86.6 50-7-12.2z"/><path fill="#725c44" fill-opacity=".5" d="M31.1 158.8l-53.5 11.4-7.1-33.7L24 125.2z"/><path fill="#d2bfa3" fill-opacity=".5" d="M175.3-18.8l35.3 7-6.2 32.1-35.3-6.8z"/><path fill="#d2bfa1" fill-opacity=".5" d="M71 38.5l.1 3-112.3 6-.2-3.1z"/><path fill="#ebd7b8" fill-opacity=".5" d="M11 47.7h60.9v18.7h-61z"/><path fill="#3d2e1c" fill-opacity=".5" d="M160.5 214.7l-9.6-21.4 21.4-9.6 9.6 21.5z"/><path fill="#d6c29d" fill-opacity=".5" d="M239 68.2l-.7-3 27.3-6.8.8 3z"/><path fill="#a28b6b" fill-opacity=".5" d="M108 90.8L68.8 102l-6.5-22.5 39-11.2z"/><path fill="#998365" fill-opacity=".5" d="M120.7 90l42.8 19.1-10.8 24.3-42.8-19z"/><path fill="#746045" fill-opacity=".5" d="M59.6 143.3l9-31.5 42.1 12-9 31.6z"/><path fill="#e2d1b1" fill-opacity=".5" d="M131 27.1l1.6 10.9-37.1 5.2L94 32.4z"/><path fill="#ead7b3" fill-opacity=".5" d="M194.7 70.5l-29.6-2 1.1-15.6 29.6 2z"/><path fill="#483c25" fill-opacity=".5" d="M324.6 183.5l-36.7-7.8 1.6-7.6 36.7 7.8z"/><path fill="#6a573c" fill-opacity=".5" d="M326.8 174.3l-14-6.9 8.8-18.2 14 6.8z"/><path fill="#d0bfa0" fill-opacity=".5" d="M302.9 50.1L302 44l40.3-5 .8 6.3z"/><path fill="#d4c0a2" fill-opacity=".5" d="M48.9 39.2l1.3-4.4 49.4 15-1.4 4.5z"/><path fill="#44351e" fill-opacity=".5" d="M381.5 164.5l3.1-.5 4.2 26.2-3.1.5z"/><path fill="#f2e0c0" fill-opacity=".5" d="M326.6 39l-1-3 15-4.6 1 3z"/><path fill="#67563d" fill-opacity=".5" d="M356.5 167.8l-12.7-6.1 7.6-15.5 12.6 6.2z"/><path fill="#f1e0c1" fill-opacity=".5" d="M-5 .4l29.8-9.1 6.8 22.4-29.8 9.1z"/><path fill="#a58c6e" fill-opacity=".5" d="M401 96.2l-12.4 32.1-59.8-23 12.3-32z"/><path fill="#725d44" fill-opacity=".5" d="M152 160.7l74.3-10.4 1.3 9.3-74.2 10.4z"/><path fill="#5d4b32" fill-opacity=".5" d="M145.3 196.6l-5.3-13 31.9-13 5.3 13z"/><path fill="#dcccac" fill-opacity=".5" d="M36 12.8l.5-3 44.7 7-.5 3.1z"/><path fill="#cdbd9d" fill-opacity=".5" d="M371.8 13.8l2 7.6-37.7 10-2-7.5z"/><path fill="#f3e1c0" fill-opacity=".5" d="M236 35.3L222.6-1.4l11.7-4.2L247.7 31z"/><path fill="#deccae" fill-opacity=".5" d="M290.7 7.2l-41.5 7.4-.8-4.7 41.5-7.3z"/><path fill="#827054" fill-opacity=".5" d="M319.5 148.7L227 134l2-12.3 92.6 14.6z"/><path fill="#a28b6c" fill-opacity=".5" d="M148.8 76.8L316 82.6l-.7 20.3-167-5.8z"/><path fill="#efdcba" fill-opacity=".5" d="M278.7 61l-90.5-4.8.3-6.2 90.5 4.7z"/><path fill="#e5d3b2" fill-opacity=".5" d="M100.1 65L65.6 75l-4.8-16.6 34.6-9.9z"/><path fill="#f8e6c9" fill-opacity=".5" d="M386.4 56.7L379.9 46l22.8-13.7 6.4 10.7z"/><path fill="#b29978" fill-opacity=".5" d="M354.5 68.9l7.8-20.5 16 6.2-7.8 20.4z"/><path fill="#8e785e" fill-opacity=".5" d="M329.5 136.5l-77.2-12.2 1-6.2 77.2 12.3z"/><path fill="#cbb493" fill-opacity=".5" d="M186.8 68.4l21.8.7v1.6l-21.9-.8z"/><path fill="#d0bd9e" fill-opacity=".5" d="M130 42.8l48.2 5-.5 4.7-48.1-5z"/><path fill="#bca582" fill-opacity=".5" d="M73.3 78l-42-3v-1.5l42.1 3z"/><path fill="#513f2b" fill-opacity=".5" d="M127.8 190L2.2 205.3l-.4-3.1 125.7-15.5z"/><path fill="#ecdcbd" fill-opacity=".5" d="M120.2 54.6L116 42.8l6-2 4 11.7z"/><path fill="#b59d7b" fill-opacity=".5" d="M375.3 54.6l40.3 5-1.9 15.5-40.3-5z"/><path fill="#998265" fill-opacity=".5" d="M-6.2 94.5l161.8 14.2-1 10.9-161.8-14.2z"/><path fill="#aa9272" fill-opacity=".5" d="M296.2 53.2l3.3 8.7-37.9 14.6-3.3-8.8z"/><path fill="#826f52" fill-opacity=".5" d="M-8 120.5l95.1-6.6.6 7.8-95.1 6.6z"/><path fill="#e5d3b3" fill-opacity=".5" d="M115.5 53.5l39-.7.3 11-39 .6z"/><path fill="#e7d5b8" fill-opacity=".5" d="M349.2 14.4l-30.5 7-.7-3 30.5-7z"/><path fill="#5d4c34" fill-opacity=".5" d="M183.8 170.2l-9.8 55.4-3-.5 9.7-55.4z"/><path fill="#e9dabb" fill-opacity=".5" d="M194.6 25l39-20 1.4 3-39 19.8z"/><path fill="#57472e" fill-opacity=".5" d="M293.5 176.1l.3 3.1-79.5 5.6-.2-3.1z"/><path fill="#6f5a41" fill-opacity=".5" d="M-62.6 154.2l207.8-3.7.2 9.4-207.8 3.6z"/><path fill="#e5d5b4" fill-opacity=".5" d="M335.2 45.2l.2-1.6 27.9 3.4-.2 1.6z"/><path fill="#d2c2a4" fill-opacity=".5" d="M266.8 18.6l29 21.1-11 15.2-29-21.2z"/><path fill="#766147" fill-opacity=".5" d="M395.6 137l10.5 26.1-18.8 7.6-10.6-26z"/><path fill="#413421" fill-opacity=".5" d="M381.3 221.5l-14.6-11.8 44.2-54.6 14.6 11.8z"/><path fill="#5b4329" fill-opacity=".5" d="M147.5 94.2l-6.2-.9.2-1.5 6.2.8z"/><path fill="#715e45" fill-opacity=".5" d="M362.4 175.5l1.8-34.3 9.3.5-1.7 34.3z"/><path fill="#483a25" fill-opacity=".5" d="M378 179.5l-32.8-1.2.2-6.2 32.8 1.1z"/><path fill="#9c8468" fill-opacity=".5" d="M299.9 109l49.7-5.3 2.1 20.2L302 129z"/><path fill="#e6d4b5" fill-opacity=".5" d="M246.4 33.3l21 10.6-3 5.6L243.7 39z"/><path fill="#e4d2b2" fill-opacity=".5" d="M179.4 51.6l56 14-.7 3-56-14z"/><path fill="#68563b" fill-opacity=".5" d="M290.8 172l-8.1 11.6-28.2-19.7 8.1-11.5z"/><path fill="#e8d4b4" fill-opacity=".5" d="M174.8 18.7l12.1-7 8.6 14.9-12.1 7z"/><path fill="#d1bf9c" fill-opacity=".5" d="M84 64.1l12.1 3-.4 1.6-12.1-3z"/><path fill="#7c6b4e" fill-opacity=".5" d="M384.8 128.7l.9 4.6-75.2 14.6-.9-4.6z"/><path fill="#d4c3a4" fill-opacity=".5" d="M197.6 38.5l21-25.2 7.3 6-21.1 25.2z"/><path fill="#ddcaaf" fill-opacity=".5" d="M381.4 21L344.9 3.2l3.4-7L384.8 14z"/><path fill="#f5e4c4" fill-opacity=".5" d="M271 5.4L227.1 4l.3-7.8 43.7 1.5z"/><path fill="#d1c0a3" fill-opacity=".5" d="M406.3 20.2l-50 18.1-4.8-13.2 50-18.1z"/><path fill="#3b2e1d" fill-opacity=".5" d="M313.7 218.2l-38-14.6 9-23.3 38 14.5z"/><path fill="#766247" fill-opacity=".5" d="M206.8 137l-4 16.8-48.6-11.2 3.8-16.8z"/><path fill="#a78e6c" fill-opacity=".5" d="M166.7 74.6l-45-5.5.6-4.7 45 5.6z"/><path fill="#857156" fill-opacity=".5" d="M187.7 131.7l3.2-7.1 38.6 17.1-3.2 7.2z"/><path fill="#9d8668" fill-opacity=".5" d="M20.8 88.1l245 12.9-.7 12.4-245-12.8z"/><path fill="#a38c6e" fill-opacity=".5" d="M71.3 74.3l73.2-6.4 1.4 15.6-73.2 6.4z"/><path fill="#ead9bb" fill-opacity=".5" d="M287.4 27.5l-5.8-9.3 10.6-6.6 5.8 9.3z"/><path fill="#433721" fill-opacity=".5" d="M342.8 184.9l-16.3-5.3 7.2-22.3 16.4 5.3z"/><path fill="#a88f70" fill-opacity=".5" d="M216 69.8l.7 6.2-24.9 2.6-.7-6.2z"/><path fill="#d9c6a6" fill-opacity=".5" d="M174.3 55.3l-3.9-18.4 44.3-9.4 4 18.4z"/><path fill="#f1dfc1" fill-opacity=".5" d="M188.7 58.4L128.3 51l.1-1.6 60.5 7.4z"/><path fill="#e4d3b5" fill-opacity=".5" d="M359.2-6.8l-147.8 26-.2-1.5 147.7-26z"/><path fill="#f0dab9" fill-opacity=".5" d="M217.3 64.5l-.2 4.7-26.5-1 .1-4.6z"/><path fill="#8d765c" fill-opacity=".5" d="M210.8 123.9l76.4-4 .5 7.8-76.5 4z"/><path fill="#f3e3c2" fill-opacity=".5" d="M103.9 17.3L44.3 4.6l.3-1.5 59.6 12.6z"/><path fill="#e6d3b2" fill-opacity=".5" d="M127.6 14.5l1.6-9.2 38.5 6.8-1.6 9.2z"/><path fill="#847054" fill-opacity=".5" d="M47 110.7l-.5 3-29.4-4 .4-3.2z"/><path fill="#d0c0a3" fill-opacity=".5" d="M165.6 11.1l24.1-14.4 5.6 9.3-24 14.5z"/><path fill="#63513a" fill-opacity=".5" d="M383.9 162.2l-5.3 21.3-1.5-.4 5.3-21.2z"/><path fill="#d1c1a2" fill-opacity=".5" d="M149 47.6l-32-7.9 1.1-4.5 31.9 7.9z"/><path fill="#705d43" fill-opacity=".5" d="M332.5 154.6l.8-9.3 54.5 4.8-.8 9.3z"/><path fill="#9d8567" fill-opacity=".5" d="M2.2 76L20 89 2.5 113l-17.7-13z"/><path fill="#d0bda1" fill-opacity=".5" d="M307 23.7l-3.8-8.6 41.4-18.4 3.8 8.5z"/><path fill="#d4c3a6" fill-opacity=".5" d="M206.6-3.9l9.3 14.5-21 13.6-9.3-14.4z"/><path fill="#5f4d31" fill-opacity=".5" d="M164 184.8l-78-16.6 1.6-7.6 78 16.5z"/><path fill="#d4c2a4" fill-opacity=".5" d="M41.4 38.4l1.6-6 45.3 12-1.6 6z"/><path fill="#b09776" fill-opacity=".5" d="M160.3 67.5l25 1-.3 6.2-25-1z"/><path fill="#ac9374" fill-opacity=".5" d="M301.1 51.5L385 70.8l-3.2 13.7L298 65.2z"/><path fill="#958262" fill-opacity=".5" d="M336.2 133.6l88.4-10.9.2 1.6-88.4 10.8z"/><path fill="#977e64" fill-opacity=".5" d="M143.8 118h64v9.3h-64z"/><path fill="#e2cfb1" fill-opacity=".5" d="M154.7 60.3v-1.5l82.8 4.3-.1 1.6z"/><path fill="#e4d1b6" fill-opacity=".5" d="M378.2 45.4l41.1-31 1 1.2-41.2 31z"/><path fill="#56432e" fill-opacity=".5" d="M-4.7 209.4V189H75v20.3z"/><path fill="#a18a6b" fill-opacity=".5" d="M309.4 75l64.3 38.6-9.7 16-64.3-38.5z"/><path fill="#41311e" fill-opacity=".5" d="M381.5 224l-1.5.1-6.9-55.8 1.6-.2z"/><path fill="#a48d6d" fill-opacity=".5" d="M60 82.3l-40.6-2.1.3-4.7 40.6 2.1z"/><path fill="#c8b491" fill-opacity=".5" d="M41 69.6l26 4.6-.2 1.5-26.2-4.6z"/><path fill="#ccb993" fill-opacity=".5" d="M43.4 68.7l.2 1.6-44.8 6.3-.3-1.6z"/><path fill="#7e6d50" fill-opacity=".5" d="M219.7 129.3l46.9.8-.4 20.3-46.8-.8z"/><path fill="#725e45" fill-opacity=".5" d="M-23 148.5l-.8-20.3 92.2-3.2.7 20.3z"/><path fill="#6b563d" fill-opacity=".5" d="M312.3 149.9L311 167l-40.6-2.8 1.2-17.2z"/><path fill="#443823" fill-opacity=".5" d="M319 189.3l-6.5-22.6 4.5-1.3 6.5 22.6z"/><path fill="#f1debc" fill-opacity=".5" d="M194.5 49.7l.2-1.6 53 3.8-.2 1.5z"/><path fill="#e4d4b4" fill-opacity=".5" d="M211.7-10.4l7.8.5L218 12l-7.8-.6z"/><path fill="#e5d2b4" fill-opacity=".5" d="M-3.2 35.3l.9-4.6L36 38l-.9 4.6z"/><path fill="#f1ddbe" fill-opacity=".5" d="M129 54.1l-34 4.2-.6-4.6 34-4.2z"/><path fill="#d5c2a6" fill-opacity=".5" d="M304 2.2l2.7 10.6-9.1 2.2-2.7-10.6z"/><path fill="#69563e" fill-opacity=".5" d="M299.7 181.3H298l.7-36h1.5z"/><path fill="#3a2b17" fill-opacity=".5" d="M100.2 202.7l-6.4-12.5 1.4-.7 6.3 12.5z"/><path fill="#5c4f36" fill-opacity=".5" d="M328.3 180.4l-3.4-8.7 1.5-.6 3.4 8.8z"/><path fill="#f1dfc1" fill-opacity=".5" d="M390 45.9l-6.8 8.5-6-5L384 41z"/><path fill="#3e311d" fill-opacity=".5" d="M191.8 206.9l32.4-21.8 4.3 6.4-32.4 21.9z"/><path fill="#3f2e19" fill-opacity=".5" d="M145.5 214.7L139 184l1.5-.3 6.5 30.5z"/><path fill="#cfbfa0" fill-opacity=".5" d="M203.3 35.8l13 5.5-2.5 5.7-12.9-5.5z"/><path fill="#51412b" fill-opacity=".5" d="M270.8 176.6l.5 1.5-46.8 12.5-.4-1.5z"/><path fill="#e9d7b9" fill-opacity=".5" d="M117.7 7.8l-.5 1.5-17.7-6.1.5-1.5z"/><path fill="#ebd8b6" fill-opacity=".5" d="M89.7 68.4l-.6 3-52.2-10 .6-3.2z"/><path fill="#eddbbc" fill-opacity=".5" d="M-23.6 19.7l.4-7.8 82.7 4.3-.4 7.8z"/><path fill="#dbcaaa" fill-opacity=".5" d="M95.7 32.5L74 23.7l.6-1.5L96.3 31z"/><path fill="#594731" fill-opacity=".5" d="M33.4 185.4l59.3-2 .5 14-59.3 2z"/><path fill="#40301c" fill-opacity=".5" d="M293 193.4l4.6-26.1 1.6.2-4.6 26.2z"/><path fill="#69553a" fill-opacity=".5" d="M192.3 167.8l-.5 6.2-67-5.8.6-6.3z"/><path fill="#d3c0a1" fill-opacity=".5" d="M108.2 69.7l-1.2-1 2-2.4 1.2 1z"/><path fill="#42331f" fill-opacity=".5" d="M306 167.6l3 1.3-10.4 24.4-2.9-1.2z"/><path fill="#f0dfbf" fill-opacity=".5" d="M335.4 37.2l-8.2-4.4 1.4-2.8 8.3 4.4z"/><path fill="#ead7b6" fill-opacity=".5" d="M111.4 56.7l54 8.5-.2 1.6-54-8.6z"/><path fill="#ebdbb8" fill-opacity=".5" d="M223 46.4l.2-1.5L288 55l-.2 1.6z"/><path fill="#a78f73" fill-opacity=".5" d="M286.3 54.4l19 13.8-12 16.4-19-13.7z"/><path fill="#cfbd9e" fill-opacity=".5" d="M155.5 24.7l2.9 18.5-15.4 2.4-3-18.5z"/><path fill="#a99072" fill-opacity=".5" d="M437.3 114.7l-4.5 10L298.7 65l4.4-10z"/><path fill="#dccdae" fill-opacity=".5" d="M212.2 32.2l4.4-4.4 16.6 16.6-4.5 4.4z"/><path fill="#766247" fill-opacity=".5" d="M185.8 146.6l-57.8-1 .3-15.6 57.8 1z"/><path fill="#433523" fill-opacity=".5" d="M412.7 202.2l-58-18.9 3-8.9 57.9 18.8z"/><path fill="#5c4b33" fill-opacity=".5" d="M188.9 172.8l6.6 33.8-1.6.3-6.5-33.8z"/><path fill="#d2bfa0" fill-opacity=".5" d="M267.7 46l.5-14.1 53.1 1.8-.5 14.1z"/><path fill="#f2debf" fill-opacity=".5" d="M-4 49.5l15.6-.6.2 6.3-15.6.5z"/><path fill="#e3d0b2" fill-opacity=".5" d="M47 54.4l35.9.6-.2 7.8-35.9-.6z"/><path fill="#d9c7ac" fill-opacity=".5" d="M277 15.8l8-11.7 5.1 3.5-7.8 11.7z"/><path fill="#62533b" fill-opacity=".5" d="M293.3 168l1.6.3-2.3 9-1.5-.3z"/><path fill="#b09a76" fill-opacity=".5" d="M247.2 72.6l-1.4-2.8 17.9-9.5 1.5 2.7z"/><path fill="#d1c0a0" fill-opacity=".5" d="M338.5 15l24.4 10.3-6 14.4-24.5-10.4z"/><path fill="#6d5a41" fill-opacity=".5" d="M309.1 173.2l3.7-26.3 1.5.2-3.7 26.3z"/><path fill="#3d301c" fill-opacity=".5" d="M289 169.5l3.3 37.4-1.6.1-3.3-37.3z"/><path fill="#dbc9a8" fill-opacity=".5" d="M-6.6 69.2l.7-12.5 14 .7L7.5 70z"/><path fill="#7f6d52" fill-opacity=".5" d="M-38.5 114l87.3-4.6.7 12.5-87.4 4.6z"/><path fill="#7c6d50" fill-opacity=".5" d="M382.4 131.2l-6 17.7-10.4-3.5 6.1-17.8z"/><path fill="#cfbe9e" fill-opacity=".5" d="M100.1 4l-8.2 4.5-6-11L94-7z"/><path fill="#b09775" fill-opacity=".5" d="M345 47.7l28 14.2-7.2 13.9L338 61.6z"/><path fill="#dccbab" fill-opacity=".5" d="M134.6 41.8L128 8.1l7.7-1.5 6.6 33.7z"/><path fill="#e4d1b3" fill-opacity=".5" d="M187 53.7l14.1-9.8 7.2 10.2-14.1 9.9z"/><path fill="#f1dec0" fill-opacity=".5" d="M199.2 55.4v1.5L165 58.7v-1.5z"/><path fill="#dfcdb0" fill-opacity=".5" d="M382.3 41.1l.4 1.6-22.8 5.2-.4-1.5z"/><path fill="#786448" fill-opacity=".5" d="M219.3 158l-.6-4.6 48-6.7.6 4.6z"/><path fill="#9c8567" fill-opacity=".5" d="M319.9 122l-57.8-2 .9-25 57.7 2.1z"/><path fill="#d0bea0" fill-opacity=".5" d="M291.9 46.4l32-6.8 1.4 6.1-32.1 6.9z"/><path fill="#6a553b" fill-opacity=".5" d="M214.7 177.8l-3.6-13.6 22.6-6 3.7 13.5z"/><path fill="#51422b" fill-opacity=".5" d="M246.8 192.3l-30.5-6.5 1-4.6 30.5 6.5z"/><path fill="#e3d2b2" fill-opacity=".5" d="M172.8 24.6l-9 6.1-13.2-19.4 9.1-6.1z"/><path fill="#463521" fill-opacity=".5" d="M359 203.1l-.8-48.4h3.1l.8 48.4z"/><path fill="#5f4c34" fill-opacity=".5" d="M235.4 186.5l-36.4-9.1 1.5-6 36.4 9z"/><path fill="#e0cdaf" fill-opacity=".5" d="M127.3 48.4h28.2V50h-28.2z"/><path fill="#665637" fill-opacity=".5" d="M319.1 178.5l-1-1.2 8.1-7.3 1 1.1z"/><path fill="#f7e6c6" fill-opacity=".5" d="M372.7 45.4l34.7 9.3-.4 1.5-34.7-9.3z"/><path fill="#746048" fill-opacity=".5" d="M357 167.1l-4.6-26.1 1.5-.3 4.6 26.2z"/><path fill="#705d44" fill-opacity=".5" d="M378.6 160.4l1.6-.3 2.1 12.3-1.5.3z"/><path fill="#e5d4b5" fill-opacity=".5" d="M51.5-2.3l.1 4.7-79.7 1.4V-.9z"/><path fill="#d9c6a8" fill-opacity=".5" d="M8.9 48l-18.3-4 2.1-9.2L11 39z"/><path fill="#6a5a3f" fill-opacity=".5" d="M385.2 170.4V169l12.4-.3v1.6z"/><path fill="#eedbbc" fill-opacity=".5" d="M71.3 49.3l-.8 4.7-30.8-5 .7-4.5z"/><path fill="#e5d2b2" fill-opacity=".5" d="M67 72l30-27.2 3.2 3.5L70 75.5z"/><path fill="#a78e70" fill-opacity=".5" d="M198.9 79.4l83.5-11.8 1.5 10.9-83.5 11.7z"/><path fill="#ebdabb" fill-opacity=".5" d="M217.3 11.5l57.8 2-.2 4.7-57.8-2z"/><path fill="#5b4a32" fill-opacity=".5" d="M67.3 162.4l1.2 17.1-93.6 6.6-1.2-17.2z"/><path fill="#d1bc9d" fill-opacity=".5" d="M148.5 45.9l.4-3 41.7 6.5-.5 3.1z"/><path fill="#e0ceae" fill-opacity=".5" d="M261.3 22.7l2.6 1.7-11 17-2.7-1.7z"/><path fill="#948062" fill-opacity=".5" d="M339.4 136.8l-38.2-8.1 1.6-7.7 38.2 8.1z"/><path fill="#7e6648" fill-opacity=".5" d="M143 95.1l-3 .4-.2-1.6 3-.3z"/><path fill="#715d43" fill-opacity=".5" d="M61.9 154.5l16.1-23L96 144l-16.2 23z"/><path fill="#d3c0a4" fill-opacity=".5" d="M133.5 11.4l-.4 1.5-15-4 .3-1.5z"/><path fill="#5a4229" fill-opacity=".5" d="M146.3 92.5l1.3-2.8 1.4.6-1.3 2.9z"/><path fill="#d6c4a8" fill-opacity=".5" d="M381.7 26.5l5.1-3.6 8 11.5-5 3.6z"/><path fill="#3f2f1b" fill-opacity=".5" d="M122.2 199.2l-3.7-12 1.5-.4 3.7 12z"/><path fill="#c8b38b" fill-opacity=".5" d="M31.2 75.5l-20.3-1v-1.6l20.4 1z"/><path fill="#9b8268" fill-opacity=".5" d="M151.3 113.7l1.4-9.2 72.6 11.5-1.5 9.2z"/><path fill="#6f5b42" fill-opacity=".5" d="M463.2 171.2l-.2 1.5L272.7 146l.2-1.6z"/><path fill="#cdbba0" fill-opacity=".5" d="M127.3-2.2L125.5 7l-16.9-3.3 1.8-9.2z"/><path fill="#efdcbc" fill-opacity=".5" d="M258.6 43.7l-.2 1.5-28-3 .2-1.5z"/><path fill="#847153" fill-opacity=".5" d="M71.9 114.2l.4-1.5 57.4 15.3-.4 1.5z"/><path fill="#d1bfa0" fill-opacity=".5" d="M93 43.1l.3-1.5 24.6 4.3-.3 1.6z"/><path fill="#443620" fill-opacity=".5" d="M271 172.6l1.7 18.7-1.6.1-1.6-18.6z"/><path fill="#d7c5a5" fill-opacity=".5" d="M197.4 40.4l-2.5 5.8-53.2-22.6 2.4-5.7z"/><path fill="#43311b" fill-opacity=".5" d="M4.6 202.5l-1.4.6L0 196l1.5-.7z"/><path fill="#cdbd99" fill-opacity=".5" d="M135 63.2l6.2-1.4.3 1.5-6 1.4z"/><path fill="#f2e2c2" fill-opacity=".5" d="M122.4 21.8l.8-1.3 9.1 6.1-.9 1.3z"/><path fill="#776549" fill-opacity=".5" d="M401.9 146.7l-1.5 9.3-66.3-10.5 1.4-9.3z"/><path fill="#5f4c33" fill-opacity=".5" d="M206.9 194.3l-7.8.4-1.3-25 7.8-.4z"/><path fill="#a58d6f" fill-opacity=".5" d="M205.6 77.2l-1 7.8-86.8-10.7 1-7.7z"/><path fill="#5b4a31" fill-opacity=".5" d="M348.5 159l-2.6 4-11.6-8 2.6-3.8z"/><path fill="#f3e2c2" fill-opacity=".5" d="M269.2 17.8l-29.7 9.6-1-3 29.8-9.6z"/><path fill="#e5d2b2" fill-opacity=".5" d="M30.9 58L10.2 69 5 59.2l20.6-11z"/><path fill="#e6d4b1" fill-opacity=".5" d="M262 55.4l.6 1.5L230.1 68l-.5-1.5z"/><path fill="#ecd8b9" fill-opacity=".5" d="M49.7 23.9L94 34l-1.4 6-44.3-10z"/><path fill="#e7d9bc" fill-opacity=".5" d="M175.7 4l-46.9-1.7.2-4.7 46.8 1.7z"/><path fill="#9f886a" fill-opacity=".5" d="M147.3 98.5l12.4-19.8 4 2.4-12.5 20z"/><path fill="#e2ceb0" fill-opacity=".5" d="M179.5 36.2l-.4-1.5 27.3-6.8.4 1.5z"/><path fill="#dbc8a8" fill-opacity=".5" d="M358.6 48.7l-12.5-.5v-1.5l12.5.4z"/><path fill="#554734" fill-opacity=".5" d="M261.2 176.2l-3.7 15.2-1.6-.4 3.8-15.2z"/><path fill="#725d45" fill-opacity=".5" d="M206.4 166L110 155.9l.8-7.8 96.4 10.1z"/><path fill="#f2e1c2" fill-opacity=".5" d="M56.3 6.4l-79.7 2.8V7.6L56.2 5z"/><path fill="#a38c6e" fill-opacity=".5" d="M276.6 72.7l60.2 9.5-2.5 15.4-60.1-9.5z"/><path fill="#3c2c17" fill-opacity=".5" d="M155.2 187.6l1.6-.1 2 23.3-1.5.2z"/><path fill="#f7e4c9" fill-opacity=".5" d="M399.6 51.6L397.3 25l1.5-.1 2.4 26.4z"/><path fill="#735f44" fill-opacity=".5" d="M226.6 154l-6.2 10.8-29.8-17.2 6.2-10.8z"/><path fill="#e1d1b1" fill-opacity=".5" d="M83.6 7.9l-.3 1.5L65 6.2l.2-1.6z"/><path fill="#3c2e1b" fill-opacity=".5" d="M273.4 204.5l-1.4.7-12.6-27 1.4-.6z"/><path fill="#5d4c31" fill-opacity=".5" d="M128 167.7l13 5.3-8.1 20.2-13-5.2z"/><path fill="#392a17" fill-opacity=".5" d="M164.9 185.1l1.5 28.1-1.6.1-1.5-28z"/><path fill="#e0d0b1" fill-opacity=".5" d="M255.4 46.3l2.2-7.5 13.5 4-2.1 7.4z"/><path fill="#958063" fill-opacity=".5" d="M57.8 109l-.2 1.6-63.8-5.6.1-1.5z"/><path fill="#6e5a40" fill-opacity=".5" d="M318 169.1l6.7-20.8 9 2.9-6.8 20.8z"/><path fill="#e6d3b5" fill-opacity=".5" d="M116.3 38.3l-.2 1.6L41.5 32l.2-1.5z"/><path fill="#3f3120" fill-opacity=".5" d="M329.6 176.2l21.3-9.9 8.5 18.4-21.2 10z"/><path fill="#705942" fill-opacity=".5" d="M63.3 146v12.6h-50V146z"/><path fill="#7a6a4e" fill-opacity=".5" d="M281.9 144.2l.6-4.6 37.2 5.2-.7 4.7z"/><path fill="#3c2e20" fill-opacity=".5" d="M373.4 213.4L370 203l55-18 3.4 10.5z"/><path fill="#e6d3b3" fill-opacity=".5" d="M244.4 67.6L160 51.2l.3-1.6L244.7 66z"/><path fill="#6b553b" fill-opacity=".5" d="M265.7 165.6l-88.9 6.3-.3-4.7 88.9-6.2z"/><path fill="#655538" fill-opacity=".5" d="M10.2 160.5V159l112.4 3.9v1.6z"/><path fill="#eddab8" fill-opacity=".5" d="M79.4 70l-.3 1.5-44.5-8.6.3-1.6z"/><path fill="#44311b" fill-opacity=".5" d="M54.8 203.9l-3.2-8.8 1.4-.6 3.2 8.9z"/><path fill="#dfceae" fill-opacity=".5" d="M87 20.5l-.4 1.5-31.4-9.6.4-1.5z"/><path fill="#ecd9ba" fill-opacity=".5" d="M121.1 54.4L117.2 68l-18-5.1 3.9-13.5z"/><path fill="#a18b6c" fill-opacity=".5" d="M8.6 87.5v-11h168.7v11z"/><path fill="#d0be9c" fill-opacity=".5" d="M23.4 69.5v1.6l-45.2 1.6V71z"/><path fill="#715e44" fill-opacity=".5" d="M369.7 141.4h1.6l1.2 34.3-1.6.1z"/><path fill="#4c3f26" fill-opacity=".5" d="M408.1 168.7l1.1 3-22 8-1-3z"/><path fill="#cdbd9e" fill-opacity=".5" d="M120.4 36l18 12.6-1 1.3-17.9-12.6z"/><path fill="#7f6f53" fill-opacity=".5" d="M217 142.4l.3-12.5 70.3 1.2-.2 12.5z"/><path fill="#887659" fill-opacity=".5" d="M260.9 130l-5.7-12.8 4.2-2 5.8 13z"/><path fill="#d2c0a4" fill-opacity=".5" d="M184.7 6.4l26.3-22L220-5l-26.3 22.1z"/><path fill="#a68d70" fill-opacity=".5" d="M100 73.8l3.2-5.4 10.8 6.2-3.1 5.5z"/><path fill="#d7c3a4" fill-opacity=".5" d="M177.2 27.3l16.4 18.9-3.6 3-16.4-18.8z"/><path fill="#493b28" fill-opacity=".5" d="M96.8 193.6l.8-3 19.7 4.9-.8 3z"/><path fill="#9a8464" fill-opacity=".5" d="M60.2 102.6l7.7 1.1-1.5 10.9-7.7-1.1z"/><path fill="#5e4d32" fill-opacity=".5" d="M311.2 169l-13.8 2.5-.8-4.6 13.8-2.5z"/><path fill="#3a2b18" fill-opacity=".5" d="M89 200.6V199l64.1-1.1v1.5z"/><path fill="#cbbb9b" fill-opacity=".5" d="M146 39.9l-9.8-5 .7-1.4 9.7 5z"/><path fill="#dbc8ab" fill-opacity=".5" d="M68.2 39.7L33 32.2l.4-1.5L68.5 38z"/><path fill="#443620" fill-opacity=".5" d="M263.8 183.6l29.5-3.1.7 6.2-29.5 3.1z"/><path fill="#d1c0a1" fill-opacity=".5" d="M339.6 41.6l.3 4.7-62.3 4.3-.3-4.7z"/><path fill="#877558" fill-opacity=".5" d="M235.1 129.5l-49.8 3.5-.1-1.6L235 128z"/><path fill="#decaac" fill-opacity=".5" d="M87.9 58.5l-13.3 4.6-1.5-4.4L86.4 54z"/><path fill="#b39b78" fill-opacity=".5" d="M398.7 55.8l8.5 31.7-7.5 2-8.5-31.7z"/><path fill="#7c6c50" fill-opacity=".5" d="M352.3 147.5l-1.2-6.2 95-18.5 1.3 6.2z"/><path fill="#e9d7ba" fill-opacity=".5" d="M342.4 10.6L332 20.2l-1-1.1 10.2-9.6z"/><path fill="#3c2e1d" fill-opacity=".5" d="M261.9 208.6l-.3-17.2 87.5-1.5.3 17.1z"/><path fill="#d1c0a0" fill-opacity=".5" d="M321.7 23l-38 21.8L280 38l37.9-21.9z"/><path fill="#42301b" fill-opacity=".5" d="M254 177.2l1.3 6.2-1.5.3-1.3-6.1z"/><path fill="#9a8366" fill-opacity=".5" d="M351 136.2l-71.5-27.5 2.3-5.8 71.5 27.4z"/><path fill="#5d4b32" fill-opacity=".5" d="M170.5 182l24-11.2 5.3 11.3-24 11.2z"/><path fill="#5a4a33" fill-opacity=".5" d="M145.3 197.8l-1.3-.9 12.2-18.1 1.3.9z"/><path fill="#dac8a7" fill-opacity=".5" d="M88.7 66.9l1.2-4.6 13.6 3.7-1.2 4.5z"/><path fill="#a18a6b" fill-opacity=".5" d="M73 71.7l22.5 26-1.2 1-22.6-26z"/><path fill="#3a2b18" fill-opacity=".5" d="M232.4 210.2l-4.7-.1.8-21.9 4.7.2z"/><path fill="#e5d3b3" fill-opacity=".5" d="M97 17.3l73.1-6.4.1 1.5-73.1 6.4z"/><path fill="#d4c1a6" fill-opacity=".5" d="M363.7 4.9l15.8-34 55.3 25.8-15.9 34z"/><path fill="#e5d4b4" fill-opacity=".5" d="M275.3 8.8l-28.4 8.7-1.9-6 28.4-8.7z"/><path fill="#d2c1a2" fill-opacity=".5" d="M201 33.3l3 3.7-16 12.5-3-3.7z"/><path fill="#ad9876" fill-opacity=".5" d="M224.3 75.6l-.5-1.4 22.2-7.7.5 1.5z"/><path fill="#dac8a8" fill-opacity=".5" d="M2.4 69.3L36.5 65l.2 1.5-34.1 4.2z"/><path fill="#e0cfb2" fill-opacity=".5" d="M293.6 23.6l1 3L283 31l-1.1-2.9z"/><path fill="#5e4c31" fill-opacity=".5" d="M19.8 162.2l100 5.3-.6 9.3-99.8-5.2z"/><path fill="#c1af8a" fill-opacity=".5" d="M292.9 52.2l6-1.3.4 1.6-6.1 1.3z"/><path fill="#ecdabd" fill-opacity=".5" d="M368.8 49.3l22.5-14 .8 1.3-22.5 14z"/><path fill="#a08a6b" fill-opacity=".5" d="M479.6 155.1L287.9 92.8l2.9-8.9 191.7 62.3z"/><path fill="#473925" fill-opacity=".5" d="M191.9 196.2l2.8-3.7 8.7 6.6-2.8 3.7z"/><path fill="#7e6b4e" fill-opacity=".5" d="M374.5 132.2l.2 1.5-75.8 10.7-.2-1.6z"/><path fill="#968265" fill-opacity=".5" d="M147 131.3l-4.8-16.5 3-.8 4.8 16.5z"/><path fill="#c9b694" fill-opacity=".5" d="M70.3 73v1.5l-29.6 1V74z"/><path fill="#f2e1bf" fill-opacity=".5" d="M71.1 7.5l47.3 16.3-.5 1.5L70.6 9z"/><path fill="#dfcfae" fill-opacity=".5" d="M101.6 27.3h35.9v3.2h-36z"/><path fill="#3f301d" fill-opacity=".5" d="M168.4 184.7l1.5-.5 10.1 29.5-1.4.5z"/><path fill="#d9cbae" fill-opacity=".5" d="M168-2l11.7-4.6 3.9 10.2-11.7 4.5z"/><path fill="#756146" fill-opacity=".5" d="M158.9 134.6l-1.4 10.9-105.4-13 1.3-10.8z"/><path fill="#e6d5b5" fill-opacity=".5" d="M339 37l-16.7 4-.4-1.5 16.7-4.2z"/><path fill="#897559" fill-opacity=".5" d="M308 130.6l-1.5 6-38-9.4 1.6-6z"/><path fill="#d5c4a5" fill-opacity=".5" d="M97.8 8.5l12.4 1.8-.2 1.5-12.4-1.7z"/><path fill="#5d4b34" fill-opacity=".5" d="M224.3 191.1l-1.3-.8 10.5-17.4 1.3.8z"/><path fill="#d7c79f" fill-opacity=".5" d="M186 67.8l-.2 1.5-10.9-1.1.2-1.6z"/><path fill="#756348" fill-opacity=".5" d="M116.4 125.5l-2 12.4-35.5-5.6 2-12.4z"/><path fill="#a0886a" fill-opacity=".5" d="M11 82.8h114v11H11z"/><path fill="#d5c4a5" fill-opacity=".5" d="M227.4 45.4l-40.6 1.4-.2-6.2 40.6-1.5z"/><path fill="#cdbfa2" fill-opacity=".5" d="M175.3 18.4l-4.3-2L176.3 5l4.2 2z"/><path fill="#a58e6e" fill-opacity=".5" d="M-15.4 76l.3-1.6L20.1 82l-.3 1.5z"/><path fill="#e0cfb3" fill-opacity=".5" d="M393.5 26.4l10.8-1.2.7 6.2-10.9 1.2z"/><path fill="#9b8465" fill-opacity=".5" d="M108.3 119.6l-38.8-11.9 5-16.4 38.8 11.9z"/><path fill="#d8c5a8" fill-opacity=".5" d="M331.6 25.2l50-37.6.9 1.2-50 37.7z"/><path fill="#e4d1b3" fill-opacity=".5" d="M150 52.1l1 4.6-24.5 5.2-1-4.6z"/><path fill="#d2bd97" fill-opacity=".5" d="M118.7 65.4l.1-1.6 4.7.5-.2 1.6z"/><path fill="#c3ac87" fill-opacity=".5" d="M88.2 71.7l.2-1.5 3 .3V72z"/><path fill="#a0896b" fill-opacity=".5" d="M161.2 85.5l71.3 8.8-1.5 12.4-71.3-8.8z"/><path fill="#d9c7ac" fill-opacity=".5" d="M273.2 24.8L289.6 4l1.2 1-16.3 20.9z"/><path fill="#f3e1c2" fill-opacity=".5" d="M243 8.4l-25 .4V2.6l25-.5z"/><path fill="#897559" fill-opacity=".5" d="M107.2 117.1l31.4 9.6-.5 1.5-31.4-9.6z"/><path fill="#ebd9ba" fill-opacity=".5" d="M187.5 24.9l-.2 1.5-23.2-2.8.1-1.6z"/><path fill="#e8d6b6" fill-opacity=".5" d="M233.2 44.8l-.8-1.3L277.7 13l.9 1.3z"/><path fill="#f1debe" fill-opacity=".5" d="M384.4 52.7l-.8 1.3-13.3-8.3.8-1.3z"/><path fill="#c6b38a" fill-opacity=".5" d="M45.3 73.5l-.2 1.5L25 71.8l.2-1.5z"/><path fill="#cab393" fill-opacity=".5" d="M222.8 70.7l-.4 1.5-3-.7.4-1.5z"/><path fill="#dcc8aa" fill-opacity=".5" d="M159.4 37.2l3.8-6.9 16.4 9.1-3.8 6.8z"/><path fill="#b7a07f" fill-opacity=".5" d="M418.7 64.2l-.3 1.5L354.7 50l.4-1.6z"/><path fill="#a99171" fill-opacity=".5" d="M226.7 75.4l57-16.4.5 1.5-57 16.4z"/><path fill="#dac9aa" fill-opacity=".5" d="M125.9 16.8l74.9 4-.1 1.5-75-4z"/><path fill="#ecdbbb" fill-opacity=".5" d="M-62.2 9.3l.2-1.6L88.7 23.6l-.1 1.5z"/><path fill="#deccad" fill-opacity=".5" d="M337 31.6l4.7-.6 1 7.7-4.7.6z"/><path fill="#745f46" fill-opacity=".5" d="M34 128.2l.7 11-42 2.9-.8-11z"/><path fill="#eddabc" fill-opacity=".5" d="M203.6 58l-.8-9.3 23.3-2 .8 9.3z"/><path fill="#493820" fill-opacity=".5" d="M237 176.2l1.6-.4 4 15.1-1.5.4z"/><path fill="#635037" fill-opacity=".5" d="M242.8 171.4l.3 7.8-28.1 1-.3-7.8z"/><path fill="#5a452c" fill-opacity=".5" d="M399 163.6l4.6 4-4 4.8-4.8-4.1z"/><path fill="#806d4f" fill-opacity=".5" d="M229.2 143.3l29.5-3.7 1.1 9.3-29.4 3.7z"/><path fill="#d0bd9e" fill-opacity=".5" d="M89.3 49.7L68 44l.4-1.5 21.2 5.7z"/><path fill="#e1ceaf" fill-opacity=".5" d="M207.7 58.2l.1 1.6-26.4 2.3-.2-1.6z"/><path fill="#4b3a24" fill-opacity=".5" d="M111.6 184.3l1.7 10.8-1.5.3-1.7-10.8z"/><path fill="#ddcbb0" fill-opacity=".5" d="M381.5 43.9l-3-1 4-13.4 3 1z"/><path fill="#735d43" fill-opacity=".5" d="M380.5 150.7l1.4 14-17 1.8-1.5-14z"/><path fill="#d9c6ab" fill-opacity=".5" d="M385.4 19.4l-42-4.4.9-7.8 42 4.4z"/><path fill="#443722" fill-opacity=".5" d="M220.3 181.7l1.6-.3 6.2 32.2-1.5.3z"/><path fill="#968065" fill-opacity=".5" d="M271.4 117l40.4 5-.4 3.1-40.3-5z"/><path fill="#887658" fill-opacity=".5" d="M187.6 131.3l-.1-1.6 60.9-3.2v1.6z"/><path fill="#75624b" fill-opacity=".5" d="M345.6 155.6l-.6 3.1-1.5-.3.6-3z"/><path fill="#988064" fill-opacity=".5" d="M253.8 120.4l-68.4 6-.2-1.5 68.5-6z"/><path fill="#e6d5b6" fill-opacity=".5" d="M194.1 25.4l-.3-1.6 16.7-3.8.4 1.5z"/><path fill="#d4c5a5" fill-opacity=".5" d="M229.7 42.9L212 21l3.6-3 17.7 22z"/><path fill="#3a2d1b" fill-opacity=".5" d="M220.2 190.6l4.3 13.4-11.9 3.8-4.3-13.3z"/><path fill="#e4d3b5" fill-opacity=".5" d="M29.4 5.5L28.7.9l34-4.8.7 4.6z"/><path fill="#6a563c" fill-opacity=".5" d="M287 174l-8.1 4.5-14.4-26 8.2-4.5z"/><path fill="#4f422d" fill-opacity=".5" d="M340 166.6l-.3-6.2 12.5-.5.2 6.3z"/><path fill="#725f45" fill-opacity=".5" d="M319.5 150.9l62.4-3.3.2 3.1-62.4 3.3z"/><path fill="#49361e" fill-opacity=".5" d="M340.5 155.5h1.5l.3 3-1.5.2z"/><path fill="#a58e6e" fill-opacity=".5" d="M44.2 80l-16.7 4-1.5-6.2 16.7-3.9z"/><path fill="#bfac89" fill-opacity=".5" d="M87.5 73.4H70.3V72h17.2z"/><path fill="#5b4934" fill-opacity=".5" d="M108.6 188.5l-94.8-10 1-9.2 94.8 10z"/><path fill="#766247" fill-opacity=".5" d="M170.1 139.4l-13.6 3.6-3.2-12 13.6-3.7z"/><path fill="#f1e0bf" fill-opacity=".5" d="M239.1 10.4l14.7 20.3-10.1 7.3L229 17.8z"/><path fill="#e0cdb2" fill-opacity=".5" d="M289.7-15.1l-11 34.2-7.5-2.4 11.1-34.2z"/><path fill="#54462f" fill-opacity=".5" d="M300.7 179l-1.4-9.3 1.5-.2 1.5 9.2z"/><path fill="#4e3f2c" fill-opacity=".5" d="M115.2 191.9l1.5-.4 4 15-1.5.5z"/><path fill="#e4d3b6" fill-opacity=".5" d="M140.4 9.2l-23.2-2.8.2-1.6 23.2 2.9z"/><path fill="#ecdcbb" fill-opacity=".5" d="M120 26.6l-.5 1.4-16-6.1.5-1.5z"/><path fill="#584c30" fill-opacity=".5" d="M356.1 165.6l.9 1.3-5.3 3.4-.8-1.3z"/><path fill="#e5d2b6" fill-opacity=".5" d="M347.9-2.5l9.6 5.2-.7 1.3-9.7-5.1z"/><path fill="#dacaab" fill-opacity=".5" d="M315.5 22.8L328.8 12l1 1.2L316.5 24z"/><path fill="#705a42" fill-opacity=".5" d="M19.4 165.5L-13.4 139l5-6 32.7 26.5z"/><path fill="#e8d7b7" fill-opacity=".5" d="M5.5 31.3l5.2-18L24.2 17 19 35z"/><path fill="#e0ceaf" fill-opacity=".5" d="M-11 44.4L59.5 43v1.6L-11 45.9z"/><path fill="#e6d6b6" fill-opacity=".5" d="M95.6 12.4l-.9-1.3 14.4-9.4.9 1.3z"/><path fill="#67553b" fill-opacity=".5" d="M114.2 159.2l1-1.2 16 12.5-1 1.2z"/><path fill="#ecd9b5" fill-opacity=".5" d="M179.7 67.4l51.4-3.6.1 1.6-51.4 3.6z"/><path fill="#5f4d33" fill-opacity=".5" d="M212 184.5l-48.3-3.4.8-10.9 48.3 3.4z"/><path fill="#e0cfb0" fill-opacity=".5" d="M223.8 38.7l-15.5-2.5.8-4.6 15.4 2.5z"/><path fill="#e1cfb1" fill-opacity=".5" d="M188 11l3-.1.8 14-3.1.2z"/><path fill="#e1ceae" fill-opacity=".5" d="M197.8 52.2l-.5 3-15.4-2.7.5-3z"/><path fill="#52462e" fill-opacity=".5" d="M356.3 179v-15.7h1.5v15.6z"/><path fill="#d1bfa3" fill-opacity=".5" d="M350 11.4l-.9 1.3L329.7-.4l.9-1.3z"/><path fill="#43371f" fill-opacity=".5" d="M388.7 172.4l-6 4.9-1-1.2 6-5z"/><path fill="#806f50" fill-opacity=".5" d="M79.8 118.6l-57.2 8-.9-6.1 57.3-8z"/><path fill="#ae9576" fill-opacity=".5" d="M398.4 89.7l-38.8-16.5 6-14.4 38.9 16.5z"/><path fill="#dacaaa" fill-opacity=".5" d="M118 33.5l-.3 1.5-27.8-4.4.2-1.5z"/><path fill="#a78e70" fill-opacity=".5" d="M286.4 65.8l87.1 25-2.1 7.5-87.1-25z"/><path fill="#57442c" fill-opacity=".5" d="M374.1 166.1l1.4-.6 2 4.3-1.5.6z"/><path fill="#776449" fill-opacity=".5" d="M141.3 129.6v1.5l-68.6-6 .2-1.5z"/><path fill="#d8c7a7" fill-opacity=".5" d="M141.4 2.8l10.3 7.2-1 1.3L140.6 4z"/><path fill="#ead7b4" fill-opacity=".5" d="M64.8 68.1l1.8-2.5 7.7 5.3-1.8 2.6z"/><path fill="#d4c7aa" fill-opacity=".5" d="M213.9 12.3l-2.9 1.2-10.8-24.2 2.9-1.3z"/><path fill="#eadab9" fill-opacity=".5" d="M83.6 20.5l28-3.5.1 1.6-28 3.4z"/><path fill="#ead7b6" fill-opacity=".5" d="M155.3 56.9l3 7.2-5.7 2.4-3.1-7.2z"/><path fill="#e8d6b8" fill-opacity=".5" d="M105.6 67.9l-6.2.2-.3-9.4 6.2-.2z"/><path fill="#f2e1c2" fill-opacity=".5" d="M27.8 8.9L26.6 15 8.2 11.4l1.2-6.1z"/><path fill="#b09975" fill-opacity=".5" d="M145.3 64l4.7.1v1.6l-4.7-.1z"/><path fill="#e9d6b7" fill-opacity=".5" d="M108.5 47.7L101.7 60l-5.5-3 6.8-12.3z"/><path fill="#e2d2b3" fill-opacity=".5" d="M105.9 36.2l.7-1.3L127 46.6l-.7 1.3z"/><path fill="#dac7a9" fill-opacity=".5" d="M-7.2 39.4l43.7-2.3.4 6.3-43.7 2.3z"/><path fill="#e0cfae" fill-opacity=".5" d="M31.4 25.2l-.3-4.7 7.8-.4.3 4.7z"/><path fill="#806f53" fill-opacity=".5" d="M402.8 131.7l-1.1 7.7-27.9-3.9 1.1-7.7z"/><path fill="#d2c1a2" fill-opacity=".5" d="M221.4 18.5l-15.2 15.7-1-1 15.1-15.8z"/><path fill="#604c35" fill-opacity=".5" d="M238.6 175.4l1 9.3-7.8.8-1-9.3z"/><path fill="#e5d4b0" fill-opacity=".5" d="M242.9 66.5l-34.3-1.8v-1.5L243 65z"/><path fill="#edd7b7" fill-opacity=".5" d="M210.2 67.2l.3-1.5 12.2 3-.4 1.5z"/><path fill="#4b3c2a" fill-opacity=".5" d="M295.3 176l-1.5 12.4-3.1-.4 1.5-12.4z"/><path fill="#3b2c1a" fill-opacity=".5" d="M183.7 205.2l-1.7-10.8 7.7-1.2 1.7 10.8z"/><path fill="#473a23" fill-opacity=".5" d="M216.1 183.5l.6 6.2-3.1.3-.6-6.3z"/><path fill="#867454" fill-opacity=".5" d="M170.3 129.5V128l17.2.3v1.5z"/><path fill="#bdac8d" fill-opacity=".5" d="M311 46.3l14 1.2V49l-14.1-1.2z"/><path fill="#e2d1b2" fill-opacity=".5" d="M130.3-14.5l1.2-1 39.7 44-1.1 1.1z"/><path fill="#dbc9aa" fill-opacity=".5" d="M306.2 13l-1.5 10.8-6.2-.9 1.5-10.8z"/><path fill="#a9906f" fill-opacity=".5" d="M143.1 67l.3-1.5 33.8 6.5-.3 1.6z"/><path fill="#7e6c51" fill-opacity=".5" d="M335.4 140.4l-1 4.5-24.5-5.6 1.1-4.6z"/><path fill="#40311d" fill-opacity=".5" d="M124.3 191.5l1.1-1 14.4 16.5-1.2 1z"/><path fill="#dbc7a8" fill-opacity=".5" d="M88 48.8l4.3-11.7 8.8 3.2L96.8 52z"/><path fill="#3d301f" fill-opacity=".5" d="M325.8 195.5l-36.5 14-7.3-19 36.5-14z"/><path fill="#ac9374" fill-opacity=".5" d="M452.7 105l-2 5.9L308.1 59l2.1-5.8z"/><path fill="#d2c0a3" fill-opacity=".5" d="M194.7-15.8l7.8.4-1.9 35.9-7.8-.4z"/><path fill="#ead9bb" fill-opacity=".5" d="M296 24.5l-15.6-2.2.3-1.5L296 23z"/><path fill="#66553c" fill-opacity=".5" d="M265.5 176.1l-42.2-2.2.3-4.7 42.1 2.2z"/><path fill="#a28b6d" fill-opacity=".5" d="M100 69.3l18.4 21.3-1.2 1-18.4-21.2z"/><path fill="#f3e1be" fill-opacity=".5" d="M243.1 49.5l19 7.3-.6 1.5-19-7.3z"/><path fill="#43351f" fill-opacity=".5" d="M247 180.4l1.6.1-.3 9.4h-1.6z"/><path fill="#dacaaa" fill-opacity=".5" d="M280 52.3L252 35l1-1.3L280.6 51z"/><path fill="#e2d1ac" fill-opacity=".5" d="M166.9 68l-.4-1.5 21.3-4.9.4 1.5z"/><path fill="#ebd9ba" fill-opacity=".5" d="M233.5 36.7L229 8.9l1.5-.3 4.4 27.8z"/><path fill="#d0bea0" fill-opacity=".5" d="M293.3 47.1l19.1-37.6 8.4 4.3-19.2 37.6z"/><path fill="#604f33" fill-opacity=".5" d="M275.7 179.6l-1.3.9-7.9-11.7 1.3-.8z"/><path fill="#9b8566" fill-opacity=".5" d="M127.2 100.4l33-9.5 4.8 16.5-33 9.5z"/><path fill="#806c52" fill-opacity=".5" d="M-10.7 130.4l-1.7-14 37.2-4.6 1.7 14z"/><path fill="#3c2f17" fill-opacity=".5" d="M86.6 194.7l-1.3 9.3-1.6-.2 1.3-9.3z"/><path fill="#efddbe" fill-opacity=".5" d="M168.2 4.3l-1.8 2.6-14.2-9.6 1.7-2.6z"/><path fill="#ebd8b9" fill-opacity=".5" d="M71.5 46l5.7 5.3L64.4 65l-5.7-5.3z"/><path fill="#fce9ce" fill-opacity=".5" d="M406.2 33l.9 1.2-18 12.6-.9-1.3z"/><path fill="#dac7a9" fill-opacity=".5" d="M63.3 35.5L61 43l-16.5-5 2.3-7.5z"/><path fill="#f1dfbf" fill-opacity=".5" d="M39.3 20.6l-.2-1.6 23.1-3.6.3 1.5z"/><path fill="#e3d0b1" fill-opacity=".5" d="M154 49.4l-68.8 1.2V49l68.7-1.2z"/><path fill="#c3ab87" fill-opacity=".5" d="M249.4 66.8l-3 .7-.4-1.5 3-.7z"/><path fill="#f1dfc0" fill-opacity=".5" d="M153.7 50.1l19.8 9.3-.6 1.4-19.9-9.2z"/><path fill="#e3d1b1" fill-opacity=".5" d="M187.4 33.9l7.6-2 .4 1.4-7.6 2z"/><path fill="#5b4a31" fill-opacity=".5" d="M117.4 175.8l-.4 18.8-4.7-.1.4-18.8z"/><path fill="#413221" fill-opacity=".5" d="M370.7 190l-9.2 10.7-30.7-26.7 9.3-10.6z"/><path fill="#947d5e" fill-opacity=".5" d="M150.3 85.4l1.2-1 2.9 3.7-1.2 1z"/><path fill="#4d3d21" fill-opacity=".5" d="M334.4 157h4.7v6.3h-4.7z"/><path fill="#554530" fill-opacity=".5" d="M160.5 194.2l-2.7-1.7 8.3-13.2 2.6 1.6z"/><path fill="#705a42" fill-opacity=".5" d="M153.8 163.6l40.6-2.2.2 4.7-40.5 2.1z"/><path fill="#a7906f" fill-opacity=".5" d="M109 71.2l2.9-3.7 8.7 6.6-2.8 3.7z"/><path fill="#d2bfa0" fill-opacity=".5" d="M79 42.2l-.2 3-43.7-1.4.1-3.2z"/><path fill="#9f8869" fill-opacity=".5" d="M276.9 86.8l107 34.7-3 9-107-34.8z"/><path fill="#54442f" fill-opacity=".5" d="M99.7 186.4l-12.3 14.2-1.2-1 12.3-14.2z"/><path fill="#bcad8f" fill-opacity=".5" d="M332 47.8l.1-1.6 15.6 1.4-.1 1.5z"/><path fill="#6a553d" fill-opacity=".5" d="M302.8 158l1.4.7-5.4 13-1.5-.7z"/><path fill="#d1c1a1" fill-opacity=".5" d="M102 3.7l-.3 1.5-27.2-7.3.4-1.5z"/><path fill="#66543c" fill-opacity=".5" d="M248.8 181.8l2.4-12.3 1.5.3-2.3 12.3z"/><path fill="#705a41" fill-opacity=".5" d="M3.5 169.2L-8 163.9l6-12.8 11.3 5.3z"/><path fill="#544533" fill-opacity=".5" d="M178.3 188.1l2.7 1.6-4.6 8.1-2.8-1.6z"/><path fill="#5d4a32" fill-opacity=".5" d="M183.6 192.8l-1.4-.5 4.5-11.7 1.4.6z"/><path fill="#e6d2b2" fill-opacity=".5" d="M367.9 49l-.5 1.4-11.8-4 .5-1.5z"/><path fill="#e8d5b6" fill-opacity=".5" d="M177.4 16.3l9.1-2.5 3.2 12.1-9 2.4z"/><path fill="#66553e" fill-opacity=".5" d="M372.5 169.4l1.5.6-1.2 2.8-1.5-.6z"/><path fill="#998166" fill-opacity=".5" d="M-12.2 98.4l2-4.2 27 12-1.8 4.3z"/><path fill="#3b2c1a" fill-opacity=".5" d="M172 201.5l-18.2 4.5-2.3-9 18.2-4.6z"/><path fill="#ead8b8" fill-opacity=".5" d="M215.6 23.2l32.8.5v1.6l-32.8-.6z"/><path fill="#d2c2a0" fill-opacity=".5" d="M397.8 56l-3.1.5-.3-1.6 3.1-.4z"/><path fill="#a89071" fill-opacity=".5" d="M272 74.9l-95.3 3.3-.2-4.7 95.3-3.3z"/><path fill="#dac7a7" fill-opacity=".5" d="M6 64l-9.3 1.6-1-6.1 9.2-1.7z"/><path fill="#c7b08a" fill-opacity=".5" d="M152.3 66.6l.1-1.5 12.5 1-.1 1.6z"/><path fill="#5a4529" fill-opacity=".5" d="M382 159.2l1.6 4.5-1.5.5-1.6-4.4z"/><path fill="#d8bf9b" fill-opacity=".5" d="M78 71l11-1.3.2 1.5-10.8 1.5z"/><path fill="#f3e1bd" fill-opacity=".5" d="M389.4 51.5l16.8 3.3-.3 1.5-16.8-3.3z"/><path fill="#6c553d" fill-opacity=".5" d="M313.4 153.8l4.7 8-8.1 4.8-4.7-8.2z"/><path fill="#907d5f" fill-opacity=".5" d="M313.2 134.5l.2-3.1 25 1.3-.2 3.1z"/><path fill="#d4c3a4" fill-opacity=".5" d="M133.3 20.9l9-2.6 1 3-9 2.6z"/><path fill="#deccaa" fill-opacity=".5" d="M147.8 18.4l-.6-1.4 12.8-5.7.6 1.4z"/><path fill="#968265" fill-opacity=".5" d="M145 110.4l.6 11-20.3 1-.6-11z"/><path fill="#b9a37f" fill-opacity=".5" d="M193.8 70l-14 .6-.1-1.6 14-.5z"/><path fill="#473a23" fill-opacity=".5" d="M333.3 164.2l.6-1.5 25 9-.6 1.5z"/><path fill="#e4d3b4" fill-opacity=".5" d="M325.5 23.9l-2.7-5.7 12.6-6.1 2.8 5.6z"/><path fill="#d1bfa3" fill-opacity=".5" d="M320 18.3L299.5 6.5l.8-1.3 20.3 11.7z"/><path fill="#483926" fill-opacity=".5" d="M367 183.9l-5.3-3.3 4.1-6.7 5.3 3.3z"/><path fill="#d3c1a5" fill-opacity=".5" d="M325-21.5l8.4-15 124.4 69-8.4 15z"/><path fill="#dfcdb0" fill-opacity=".5" d="M114.5 8.5l8.2 4.4-4.4 8.3-8.2-4.4z"/><path fill="#3d2f1c" fill-opacity=".5" d="M107.2 206.2l-6.3.1-.2-14 6.2-.2z"/><path fill="#d3c1a4" fill-opacity=".5" d="M395.4 17l-.3 4.7-39-2.8.4-4.6z"/><path fill="#e1d0b1" fill-opacity=".5" d="M33.5 16.3l.1-6.2 9.4.1v6.3z"/><path fill="#4b3923" fill-opacity=".5" d="M143.4 189.3l.4 1.5-10.6 2.7-.4-1.5z"/><path fill="#d8c7a8" fill-opacity=".5" d="M340 42.2l24.8 3-.1 1.6-24.9-3z"/><path fill="#d3c1a5" fill-opacity=".5" d="M358.5 15.8l-3-17 3.1-.5 3 17z"/><path fill="#d9c5a1" fill-opacity=".5" d="M48.4 69.7l.1-1.5 17.2 1.2-.2 1.5z"/><path fill="#8a765c" fill-opacity=".5" d="M197.3 130.3l-1 4.5-4.6-1 1-4.6z"/><path fill="#a38c6e" fill-opacity=".5" d="M182.8 90.6v-7.8h86v7.8z"/><path fill="#6c563d" fill-opacity=".5" d="M216.3 167.1l-.8-4.6 35.4-6.2.8 4.6z"/><path fill="#ebdabb" fill-opacity=".5" d="M213.1 6.8l.5-1.5 37.3 11.4-.4 1.5z"/><path fill="#ecd9ba" fill-opacity=".5" d="M107.6 52.8l.7 1.4-30 13.3-.6-1.4z"/><path fill="#e9d8b8" fill-opacity=".5" d="M48.4 27.2v1.6L-3 30.6V29z"/><path fill="#eddab7" fill-opacity=".5" d="M70.6 71.9l-.3-1.6 20-3.1.3 1.5z"/><path fill="#9c8667" fill-opacity=".5" d="M333.5 115.5l27.9 10.1-2.7 7.4-27.9-10.2z"/><path fill="#ebdbba" fill-opacity=".5" d="M101.5 28.2l-.6 1.4-7.1-3.1.6-1.5z"/><path fill="#ead5b7" fill-opacity=".5" d="M139.8 10.6V9l22 .8-.1 1.5z"/><path fill="#d3c3a4" fill-opacity=".5" d="M266.7 42.4l2.6-18.5 6.2.8-2.6 18.6z"/><path fill="#dbccad" fill-opacity=".5" d="M283.7 55.4l-1.6-7.6 7.6-1.7 1.7 7.7z"/><path fill="#4b3621" fill-opacity=".5" d="M68.7 198.4l-3.6 2.9-1-1.2 3.6-3z"/><path fill="#4e3d24" fill-opacity=".5" d="M384.8 172.7l-1.5-.5 2.2-5.9 1.5.6z"/><path fill="#8a7b5c" fill-opacity=".5" d="M402.4 129l-21.9 1.4V129l21.8-1.5z"/><path fill="#f2dfbe" fill-opacity=".5" d="M212.9 53.7l26 5.1-.2 1.5-26.1-5z"/><path fill="#eedcc0" fill-opacity=".5" d="M393 37.4l-17.7 15.4-1-1.2 17.6-15.3z"/><path fill="#8d755c" fill-opacity=".5" d="M221 125.6l40.4-4.3.5 4.7-40.4 4.2z"/><path fill="#766147" fill-opacity=".5" d="M304.7 147.2l-42.2-.7V145l42.2.8z"/><path fill="#988263" fill-opacity=".5" d="M117.6 116.6l-.2 1.5-102.2-14.3.3-1.6z"/><path fill="#d5c3a7" fill-opacity=".5" d="M374.7 29l.6-1.4 17.2 7.4-.6 1.4z"/><path fill="#ab8f71" fill-opacity=".5" d="M203.8 69.5l.2 9.4h-3.1l-.2-9.3z"/><path fill="#574834" fill-opacity=".5" d="M109.7 194.8l-1.2 1-4.1-4.7 1.2-1z"/><path fill="#615033" fill-opacity=".5" d="M88.2 162.6v1.6l-81 2.8v-1.5z"/><path fill="#715c43" fill-opacity=".5" d="M92.5 153.9l-12.4 12-5.4-5.7 12.4-12z"/><path fill="#5e4c32" fill-opacity=".5" d="M168 185.4l-63.6-6.7 1-9.4L169 176z"/><path fill="#635136" fill-opacity=".5" d="M184.8 168.5l.4 3-37.1 5.3-.5-3z"/><path fill="#6b5b43" fill-opacity=".5" d="M389.8 175l-1.5-10.8 1.6-.2 1.5 10.8z"/><path fill="#d4c3a4" fill-opacity=".5" d="M225.7 22l-9.3-.2V17l9.4.2z"/><path fill="#9c8465" fill-opacity=".5" d="M237.6 114.6l8.2-13.2 12 7.4-8.3 13.3z"/><path fill="#e1d0b0" fill-opacity=".5" d="M84.2 32.4l-.8-1.3 18.3-12 .9 1.4z"/><path fill="#605538" fill-opacity=".5" d="M317.6 169l3-.5.9 4.6-3.1.6z"/><path fill="#453828" fill-opacity=".5" d="M317.4 180.7l-.3-1.6 14-2 .2 1.6z"/><path fill="#847150" fill-opacity=".5" d="M94.7 117.4l-.6 4.6-27.9-3.4.6-4.7z"/><path fill="#7d6a4d" fill-opacity=".5" d="M356.4 131.5l4.6 8.2-9.6 5.3-4.5-8.2z"/><path fill="#988266" fill-opacity=".5" d="M347.7 134.3l-60.9-14 1.4-6.2 61 14.1z"/><path fill="#b7a47c" fill-opacity=".5" d="M21.1 75.2v-1.6l18.7-.3v1.5z"/><path fill="#b29a78" fill-opacity=".5" d="M384.6 65.9l-47.4-10 1.6-7.7 47.4 10z"/><path fill="#d1c0a1" fill-opacity=".5" d="M216 46l-10.4-3.2 1.8-6 10.5 3.2z"/><path fill="#a0886c" fill-opacity=".5" d="M265.3 88.8l9.4 5.6-7.2 12.1-9.4-5.6z"/><path fill="#66553b" fill-opacity=".5" d="M353.4 167.3l-1.4-.8 2.4-4 1.4.7z"/><path fill="#b29f7d" fill-opacity=".5" d="M267.8 62.8l-3-.6.2-1.5 3 .5z"/><path fill="#ecd9ba" fill-opacity=".5" d="M97.8 36l-.4 1.5-71.8-22 .5-1.4z"/><path fill="#eddbba" fill-opacity=".5" d="M28.3 45.7l.3-1.6 26 5.6-.4 1.5z"/><path fill="#877355" fill-opacity=".5" d="M145.1 129.4l-.5 1.5-16.3-5.6.5-1.5z"/><path fill="#e0cdae" fill-opacity=".5" d="M56.6 62l-4.4-4.5 2.2-2.2 4.4 4.4z"/><path fill="#746147" fill-opacity=".5" d="M371.9 155l-30.8-5.4 1-6.2L373 149z"/><path fill="#755f46" fill-opacity=".5" d="M413.7 157l-26 10.5-3-7.3 26-10.5z"/><path fill="#dccaa9" fill-opacity=".5" d="M252.4 57.6l6.9 3.8-.8 1.3-6.8-3.8z"/><path fill="#e6d3b4" fill-opacity=".5" d="M90.2 39l-.7 1.3-22-12 .9-1.4z"/><path fill="#41321f" fill-opacity=".5" d="M270.7 186l-1.5.6-4-8.5 1.5-.6z"/><path fill="#e9d6b7" fill-opacity=".5" d="M35 48l14 1-1.2 17-14-.9z"/><path fill="#756447" fill-opacity=".5" d="M-16 134l-.2-1.5 55.6-8.8.2 1.6z"/><path fill="#e5d2b3" fill-opacity=".5" d="M113.3 57.3l.1-1.5 46.7 4-.1 1.6z"/><path fill="#eedbb8" fill-opacity=".5" d="M273.4 60l-9.8-4.8 2-4.2 9.9 4.8z"/><path fill="#dccaab" fill-opacity=".5" d="M212.7 35.9l-1.1 1L201.3 25l1.2-1z"/><path fill="#decdb0" fill-opacity=".5" d="M296.3 12.2l.5 1.5-38.4 13.2-.5-1.5z"/><path fill="#e6d3b4" fill-opacity=".5" d="M-.8 55.4V54L93 55.5v1.6z"/><path fill="#52452f" fill-opacity=".5" d="M209.3 184.8l.4-1.5 7.6 2.2-.5 1.5z"/><path fill="#d1c0a1" fill-opacity=".5" d="M368.5 40.8L346.7 42l-1.2-22 21.9-1.1z"/><path fill="#b09876" fill-opacity=".5" d="M304.2 50l68.5 15.7-.3 1.6-68.5-15.9z"/><path fill="#eeddbd" fill-opacity=".5" d="M112.6 20.8l.4-1.5 19.7 5.2-.4 1.5z"/><path fill="#f5e5c4" fill-opacity=".5" d="M379.1 52.1l-10.6-2.8.8-3L380 49z"/><path fill="#63523b" fill-opacity=".5" d="M268 171.3l1.4.8-4.6 8.2-1.3-.8z"/><path fill="#ac9476" fill-opacity=".5" d="M106 68h1.6l.4 6.2h-1.5z"/><path fill="#e7d6b7" fill-opacity=".5" d="M288.4 11.2l9.5 10.4-3.5 3.2-9.4-10.5z"/><path fill="#e4d0b3" fill-opacity=".5" d="M64.7 34.6l19.5 5.9-.5 1.5-19.4-6z"/><path fill="#4f3c26" fill-opacity=".5" d="M189.6 192.9l-4-8.5 1.4-.7 4 8.5z"/><path fill="#e6d2b3" fill-opacity=".5" d="M16.6 51.2L-3 45.6l.4-1.5L17 49.7z"/><path fill="#a88f71" fill-opacity=".5" d="M189.2 69.5l7.3 5.8-2.8 3.7-7.4-5.8z"/><path fill="#ead9ba" fill-opacity=".5" d="M272.6 4.3l-21.5 3.8-.3-1.5 21.6-3.8z"/><path fill="#3f311e" fill-opacity=".5" d="M241.7 187.1l15.7 21.5-3.8 2.7L238 190z"/><path fill="#d8c5a7" fill-opacity=".5" d="M31 39.6l.4 4.7-29.6 2-.4-4.6z"/><path fill="#473b23" fill-opacity=".5" d="M274.2 189.1l-.7-1.4 7-3.4.7 1.4z"/><path fill="#e8d5b6" fill-opacity=".5" d="M250.3 35.4L261.8 46l-4.3 4.6L246 39.9z"/><path fill="#594732" fill-opacity=".5" d="M93.7 195.8l-95.9-13.5.7-4.6L94.4 191z"/><path fill="#cbb79a" fill-opacity=".5" d="M280.8 54.2l3 1-.5 1.5-3-1z"/><path fill="#786448" fill-opacity=".5" d="M143.1 135.9l-.1-1.6 34.2-3 .1 1.6z"/><path fill="#655539" fill-opacity=".5" d="M281.4 182.8h-1.6l-.3-17.2h1.6z"/><path fill="#cfbda0" fill-opacity=".5" d="M342.3 4.5L310 20.3l-.7-1.4L341.6 3z"/><path fill="#d3c1a1" fill-opacity=".5" d="M197.2 46.7l-1.1 1-10.5-11.6 1.2-1z"/><path fill="#836f50" fill-opacity=".5" d="M52.2 110.4l-1.4 7.7-10.8-2 1.4-7.6z"/><path fill="#a58d6e" fill-opacity=".5" d="M159 69.9l.2 1.6L42.5 81.7l-.2-1.6z"/><path fill="#a28b6c" fill-opacity=".5" d="M24.3 74.8l32 6.8-.9 4.6-32-6.8z"/><path fill="#d8c5a6" fill-opacity=".5" d="M130 47.8l4.5 1.3-.4 1.5-4.5-1.3z"/><path fill="#dac6a9" fill-opacity=".5" d="M28.2 67.7l-.1-1.6 14-1 .1 1.6z"/><path fill="#bda382" fill-opacity=".5" d="M15.6 76.8l-26.5-.5v-1.5l26.5.4z"/><path fill="#7e6e53" fill-opacity=".5" d="M48.8 123.8L16 126.1l-.7-10.9L48 113z"/><path fill="#dfceaf" fill-opacity=".5" d="M107.1 65.5l1.4-.8 1.6 2.6-1.4.8z"/><path fill="#7e694f" fill-opacity=".5" d="M222.9 149.1L184.3 132l.7-1.4 38.5 17.1z"/><path fill="#bcab8a" fill-opacity=".5" d="M234.5 69.8l-4.6 1-.3-1.5 4.6-1z"/><path fill="#aa9173" fill-opacity=".5" d="M406.7 92l-2 6-75.4-26 2-5.9z"/><path fill="#cab695" fill-opacity=".5" d="M19.5 72.8v1.5L1 75.7.7 74z"/><path fill="#ad9573" fill-opacity=".5" d="M281.3 65.6l-1.4-7.7 18.5-3.2 1.4 7.7z"/><path fill="#b19977" fill-opacity=".5" d="M329.9 56.4l6.1-9 1.3.8-6.1 9.1z"/><path fill="#d2c0a1" fill-opacity=".5" d="M139.5 28.2l17-3 2.4 13.8-17 3z"/><path fill="#4f402d" fill-opacity=".5" d="M123.2 193l.5 12.4H122l-.4-12.4z"/><path fill="#d3c2a4" fill-opacity=".5" d="M125.6 37.3l.9-1.3 8.9 6.4-1 1.3z"/><path fill="#ddccad" fill-opacity=".5" d="M75.7 2.1l15.6-1 .1 1.5-15.5 1z"/><path fill="#55452e" fill-opacity=".5" d="M205.2 195.4l-1.4-.6 2-4.3 1.3.6z"/><path fill="#3f321f" fill-opacity=".5" d="M317.2 194l-13.5-19 2.6-1.8 13.4 19.2z"/><path fill="#9f8869" fill-opacity=".5" d="M40.6 96.9l.1-9.4L133 89l-.2 9.4z"/><path fill="#cebd9d" fill-opacity=".5" d="M309.9 19l5.9 2-5.4 14.8-5.9-2.2z"/><path fill="#423420" fill-opacity=".5" d="M220 184l9.8 14-1.3.9-9.9-14z"/><path fill="#9b8567" fill-opacity=".5" d="M358.8 133.3l-.4-1.4 34.3-10.6.5 1.5z"/><path fill="#725d45" fill-opacity=".5" d="M184.4 153.6l-.7 7.7L-4.7 145l.7-7.8z"/><path fill="#d8c6a7" fill-opacity=".5" d="M323.1 28.8l-1.4.6-5.7-12.8 1.4-.7z"/><path fill="#59492b" fill-opacity=".5" d="M324.8 173.4l.9 1.3-5.2 3.5-.9-1.3z"/><path fill="#5d482c" fill-opacity=".5" d="M358.6 153.7l1.4.7-1.4 2.8-1.4-.7z"/><path fill="#decdae" fill-opacity=".5" d="M338.8 42l-17-2.7.3-1.6 17 2.7z"/><path fill="#d1c0a0" fill-opacity=".5" d="M366.1 19.3l-1 12.4-29.7-2.5 1.1-12.5z"/><path fill="#d3c3a4" fill-opacity=".5" d="M218.5 22.2l-4.8 9.9-5.6-2.8 4.8-9.8z"/><path fill="#483928" fill-opacity=".5" d="M149.1 203.5l-4.6.7-1.5-9.2 4.7-.8z"/><path fill="#9f886a" fill-opacity=".5" d="M151.1 88.9l49.9 3.5-.6 7.8-49.8-3.5z"/><path fill="#443720" fill-opacity=".5" d="M374.9 180.4l-1.4-.7 3.2-5.5 1.3.8z"/><path fill="#ded0b4" fill-opacity=".5" d="M129.7.4l23.5.8-.1 3.1-23.5-.8z"/><path fill="#decdae" fill-opacity=".5" d="M214.9 24.8l.4-1.5 12 3.5-.4 1.5z"/><path fill="#594831" fill-opacity=".5" d="M139.5 183.3l11 8.7-1 1.2-11-8.6z"/><path fill="#dcccad" fill-opacity=".5" d="M161.4 9.5L161 8l10.4-3.4.4 1.5z"/><path fill="#4f412d" fill-opacity=".5" d="M130.6 206.2l1.3-14h1.5l-1.2 14z"/><path fill="#5e4c35" fill-opacity=".5" d="M258.4 181l-7-6.2 1.1-1.2 7 6.3z"/><path fill="#ddcdae" fill-opacity=".5" d="M195.5 42.3l2-2.4 8.5 6.9-2 2.4z"/><path fill="#cfbd9e" fill-opacity=".5" d="M137.5 32l15.3 3.3-1.3 6.1-15.3-3.2z"/><path fill="#54432d" fill-opacity=".5" d="M92.9 189.4l.6 1.5-25.4 11.8-.7-1.4z"/><path fill="#d0bca1" fill-opacity=".5" d="M189.8 5l1 3-13.4 4.3-1-3z"/><path fill="#d4c7aa" fill-opacity=".5" d="M215 11.2L200.9 21l-1.8-2.6 14-9.9z"/><path fill="#d9c7ac" fill-opacity=".5" d="M283 8.5l-5.2 22.8-3-.7L280 7.8z"/><path fill="#ddccad" fill-opacity=".5" d="M117.2 50.9l-4.6-18.2 3-.8 4.6 18.2z"/><path fill="#463722" fill-opacity=".5" d="M165.7 184.4l2.8 7.2-1.4.6-2.8-7.3z"/><path fill="#d2c0a1" fill-opacity=".5" d="M51.4 45l-3 .5-1.4-7.7 3-.5z"/><path fill="#efdcbd" fill-opacity=".5" d="M174.7 57.2l-.3 1.5-35-8 .3-1.6z"/><path fill="#d5c2a3" fill-opacity=".5" d="M157.1 36l13.3 4.7-1 3-13.3-4.7z"/><path fill="#a7906e" fill-opacity=".5" d="M90.7 73.3l57.5-6 .2 1.5-57.5 6z"/><path fill="#dfccae" fill-opacity=".5" d="M83 17.2l.6 1.5-8.8 3.2-.6-1.5z"/><path fill="#eddcbc" fill-opacity=".5" d="M40.5-7.5l1.7-2.6 37.6 25.4-1.7 2.6z"/><path fill="#7f6b50" fill-opacity=".5" d="M216.7 146.8l-5.7-2.5 5-11.4 5.8 2.5z"/><path fill="#524228" fill-opacity=".5" d="M308.2 169.6l-6-1.8.5-1.5 6 1.8z"/><path fill="#d6c19c" fill-opacity=".5" d="M372.8 50.7l-.6 1.4-2.8-1.2.6-1.4z"/><path fill="#e6d3b5" fill-opacity=".5" d="M-9.1 31.3l35.8 3-.4 4.8-35.8-3.2z"/><path fill="#847558" fill-opacity=".5" d="M293.8 129l-89 1.5-.1-1.6 89-1.6z"/><path fill="#90775e" fill-opacity=".5" d="M146.5 86.4l3 .7-.6 3-3.1-.6z"/><path fill="#8a7758" fill-opacity=".5" d="M350 134.6v1.6l-26.6-.5v-1.6z"/><path fill="#79644a" fill-opacity=".5" d="M90.6 120.5l36.4 9-.4 1.6-36.4-9.1z"/><path fill="#d3c6a7" fill-opacity=".5" d="M141.4 5.1l-15.6-.8V2.7l15.6.8z"/><path fill="#8d7a57" fill-opacity=".5" d="M64.8 113.6l.1-1.5 12.5.8-.1 1.6z"/><path fill="#cdbb9a" fill-opacity=".5" d="M259.5 61.3l-.3 1.5-4.6-.6.2-1.6z"/><path fill="#a18b6c" fill-opacity=".5" d="M164.6 77l.7 1.4-22 11.8-.8-1.4z"/><path fill="#5f4f31" fill-opacity=".5" d="M245.5 182.6l-4.7.4-.3-4.7 4.6-.3z"/><path fill="#baa384" fill-opacity=".5" d="M208 72.5l-.2-1.5 10.8-1.3.2 1.5z"/><path fill="#e3d1b1" fill-opacity=".5" d="M254.2 29l2.7 1.6-6.4 10.7-2.7-1.6z"/><path fill="#63523b" fill-opacity=".5" d="M346 155l7.4 6-1 1.2-7.3-6z"/><path fill="#a28b6c" fill-opacity=".5" d="M361.1 114.3l2.7-9 33 10-2.8 9z"/><path fill="#68523a" fill-opacity=".5" d="M306.2 159.4L290 171.6l-1-1.3 16.3-12.2z"/><path fill="#d9c5aa" fill-opacity=".5" d="M347.7-4.7l.3 1.5-37.9 9.5-.3-1.6z"/><path fill="#e2cfb0" fill-opacity=".5" d="M24.9 69.4L18 57l5.4-3 6.9 12.3z"/><path fill="#e3d5b7" fill-opacity=".5" d="M217 10.5l1.1 1.1-14.8 13.9-1.1-1.2z"/><path fill="#eddabb" fill-opacity=".5" d="M214.9 57.3l-.1 1.6-40.6-2.2v-1.5z"/><path fill="#524029" fill-opacity=".5" d="M118.9 185l3-1 1.4 4.4-3 1z"/><path fill="#4a3924" fill-opacity=".5" d="M233 189.2l-1.5.6-3.5-8.7 1.4-.6z"/><path fill="#e4d3b3" fill-opacity=".5" d="M194.3 24.3l-1.5.6-4.2-10.1 1.4-.6z"/><path fill="#9c8566" fill-opacity=".5" d="M198.5 104.8l43.1 7.6-1 6.2-43.2-7.6z"/><path fill="#735f43" fill-opacity=".5" d="M101.3 146l-42.2-1.4.5-14 42.2 1.4z"/><path fill="#746147" fill-opacity=".5" d="M185 155l.3-9.4 31.3 1-.4 9.4z"/><path fill="#4a3822" fill-opacity=".5" d="M27.3 196.4l-1.5 6-1.5-.3 1.5-6.1z"/><path fill="#e9d7b5" fill-opacity=".5" d="M227 44.4l26 5-.3 1.6-26-5.1z"/><path fill="#4a3d2c" fill-opacity=".5" d="M308.5 176.8l1-1 2.3 2-1 1.2z"/><path fill="#644d34" fill-opacity=".5" d="M356.2 164.9l-1-1.2 5.8-5.1 1 1.1z"/><path fill="#e8d7b8" fill-opacity=".5" d="M330.2 28.5l3.6 3-6.2 7.2-3.5-3.1z"/><path fill="#ebd8bd" fill-opacity=".5" d="M288.7 2.8l-.5-1.5 9-2.6.5 1.5z"/><path fill="#6c573f" fill-opacity=".5" d="M269.1 160.3l1-10.9 49.8 4.4-1 10.9z"/><path fill="#d7c6a7" fill-opacity=".5" d="M296.7 26.7L310 11.4l1.2 1-13.4 15.3z"/><path fill="#887256" fill-opacity=".5" d="M41.4 109.8v1.6l-25-.9v-1.6z"/><path fill="#7b6b4d" fill-opacity=".5" d="M305.5 144.2l-43.7 2.3v-1.6l43.6-2.3z"/><path fill="#b9a17e" fill-opacity=".5" d="M117.3 68l-4.4 1.5-.5-1.5 4.4-1.5z"/><path fill="#3b2c18" fill-opacity=".5" d="M130.1 194.4l-4 10.2-1.5-.6 4-10.1z"/><path fill="#e9d7b8" fill-opacity=".5" d="M192.7 32.7l.6-10.9 3 .2-.5 10.9z"/><path fill="#68563b" fill-opacity=".5" d="M330.2 154.8l4.1 2.3-9.8 17.8-4.1-2.3z"/><path fill="#3e311f" fill-opacity=".5" d="M325.5 178.3l5 3.8-17 22.4-5-3.7z"/><path fill="#f3e2c2" fill-opacity=".5" d="M246.5 32l-3.8-2.8 9.2-12.7 3.8 2.8z"/><path fill="#9a8266" fill-opacity=".5" d="M19.7 91.1L5 111.4l-1.3-1 14.7-20.2z"/><path fill="#e6d3b3" fill-opacity=".5" d="M218 57.9l17 8-1.4 2.8-17-8z"/><path fill="#6a563c" fill-opacity=".5" d="M286.8 170.6l-33.7-7.1 2.3-10.7 33.6 7.1z"/><path fill="#b69f82" fill-opacity=".5" d="M374.8 51.6l3.1 3.6-1.2 1-3-3.6z"/><path fill="#e1cfac" fill-opacity=".5" d="M147.8 63.3l-6.1 1.4-.4-1.5 6.1-1.4z"/><path fill="#ddcbac" fill-opacity=".5" d="M194 14.4l-7.2 8.2-1.2-1 7.3-8.2z"/><path fill="#665338" fill-opacity=".5" d="M145.2 166.7l-42-2.2V163l42.1 2.2z"/><path fill="#e2d0b4" fill-opacity=".5" d="M381.4 38.3l-.2-1.5 10.8-1.7.2 1.5z"/><path fill="#705b43" fill-opacity=".5" d="M334.7 152l-3 8.9-14.8-5.1 3-8.9z"/><path fill="#d0bd9e" fill-opacity=".5" d="M185.8 47.4l-13.2 5-.5-1.4 13-5z"/><path fill="#9f8c6d" fill-opacity=".5" d="M335.2 96.9h-15.7V89h15.7z"/><path fill="#d9c8a8" fill-opacity=".5" d="M336.3 29.7l-7.6-1.8 2.1-9.1 7.7 1.7z"/><path fill="#483926" fill-opacity=".5" d="M261.5 176l5 8-1.4.9-5-8z"/><path fill="#6a533c" fill-opacity=".5" d="M147.8 91.3l-.6 1.4-2.8-1.2.5-1.4z"/><path fill="#594833" fill-opacity=".5" d="M92.8 189.7l.3 6.2-6.2.4-.3-6.3z"/><path fill="#e6d5b1" fill-opacity=".5" d="M2 62.7l-1 4.6-1.5-.3 1-4.6z"/><path fill="#3c2e1d" fill-opacity=".5" d="M265.6 188l3 10.4-42 12.1-3-10.5z"/><path fill="#9f886a" fill-opacity=".5" d="M144.5 84.4v7.8h-9.3v-7.8z"/><path fill="#e9d7b5" fill-opacity=".5" d="M73.4 67.2l-.1 1.5-29.6-3L44 64z"/><path fill="#e8d6bb" fill-opacity=".5" d="M289 10.3l4.3-1.7.6 1.4-4.4 1.8z"/><path fill="#5d4d37" fill-opacity=".5" d="M363.2 169l-1.4.7-1.5-2.7 1.3-.8z"/><path fill="#a59270" fill-opacity=".5" d="M79.7 72l5.4 3.1-.8 1.4-5.4-3.2z"/><path fill="#584732" fill-opacity=".5" d="M169.3 183.2l-23.9 11.6-.6-1.4 23.8-11.6z"/><path fill="#89755a" fill-opacity=".5" d="M315.7 133.5l-17.1 1.8-.2-1.6 17.1-1.8z"/><path fill="#524128" fill-opacity=".5" d="M386.5 172.2l-4.6.8-1.2-6 4.6-1z"/><path fill="#5d4c30" fill-opacity=".5" d="M71.4 168.2l-4 2.5-6-9.2 4-2.5z"/><path fill="#ddcdae" fill-opacity=".5" d="M30.1 31.2l2.6-1.7 4.4 6.5-2.6 1.7z"/><path fill="#806e52" fill-opacity=".5" d="M304 139.1l-87.5 4.6-.1-3.1 87.4-4.6z"/><path fill="#dbc8ae" fill-opacity=".5" d="M124.2 4.4V6l-9.3.5V4.9z"/><path fill="#423321" fill-opacity=".5" d="M175.7 205.5l-1.3-.8 7.7-11.8 1.3.8z"/><path fill="#5e4a2f" fill-opacity=".5" d="M10 160.9l1.9 7.5-1.6.4-1.8-7.6z"/><path fill="#d8c6a5" fill-opacity=".5" d="M100.4 66.2l.5 1.5-6 2-.5-1.5z"/><path fill="#3d301a" fill-opacity=".5" d="M143.8 194.1l-4.1 2.2-.7-1.4 4.1-2.2z"/><path fill="#d4c4a4" fill-opacity=".5" d="M50.6 36.6l-14.8 4.8-.5-1.4 14.9-5z"/><path fill="#6f5b42" fill-opacity=".5" d="M74.9 152.3l-22.5 11-.7-1.5 22.5-11z"/><path fill="#433721" fill-opacity=".5" d="M392.6 191.4l-6.4-10.7 13.4-8 6.4 10.7z"/><path fill="#4b3c28" fill-opacity=".5" d="M170.8 182.3l5.1 11.4-1.4.6-5.1-11.4z"/><path fill="#e6d2b4" fill-opacity=".5" d="M213.2 55l-21.8-.7v-1.6l21.9.8z"/><path fill="#cebc94" fill-opacity=".5" d="M14.9 72.4L49 68.2l.2 1.6L15 74z"/><path fill="#66543a" fill-opacity=".5" d="M305.4 164.7l1.5 2.7-1.4.8-1.5-2.8z"/><path fill="#eddcbc" fill-opacity=".5" d="M272.6 12l1 1.2-25.9 20.2-1-1.3z"/><path fill="#988064" fill-opacity=".5" d="M243.6 119.3l.2 3.1-51.4 3.6-.3-3.1z"/><path fill="#68553b" fill-opacity=".5" d="M170.3 177.3l-3-8.8 1.4-.5 3.1 8.8z"/><path fill="#a58e6f" fill-opacity=".5" d="M-6.1 81.6l-.1-1.6 54.5-3.8.1 1.6z"/><path fill="#eeddbe" fill-opacity=".5" d="M17.8.4l2-2.4 14 12.6-2.1 2.3z"/><path fill="#b9a280" fill-opacity=".5" d="M251.4 64.8l4.5-1.4.5 1.5-4.5 1.4z"/><path fill="#aa9374" fill-opacity=".5" d="M259.4 65l39-2v1.6l-39 2z"/><path fill="#e4d3b4" fill-opacity=".5" d="M347.7 46.9v-1.6h18.7V47z"/><path fill="#ddcbaf" fill-opacity=".5" d="M374 8.2l-1.3 6.1-10.7-2.2 1.3-6.1z"/><path fill="#dfccad" fill-opacity=".5" d="M185.5 37.3l-3-3.6 8.6-7 3 3.7z"/><path fill="#9a8367" fill-opacity=".5" d="M39.6 93.4L38.5 109l-11-.8 1.2-15.6z"/><path fill="#dac8ad" fill-opacity=".5" d="M377.9 41.4l-6.4 4.4-1-1.2L377 40z"/><path fill="#3d321d" fill-opacity=".5" d="M335 184l-3.2.5-2.7-17 3.1-.5z"/><path fill="#443724" fill-opacity=".5" d="M252.1 183l8 9.6-1.3 1-7.9-9.7z"/><path fill="#e6d2b2" fill-opacity=".5" d="M96 35.5l1.1-3 14.7 5.4-1 3z"/><path fill="#715e45" fill-opacity=".5" d="M309.4 149.8l.1-1.5 32.7 3.4-.2 1.6z"/><path fill="#a18a6b" fill-opacity=".5" d="M56.3 84.3l-1.2 1-6.7-8.7 1.2-1z"/><path fill="#d7c7a8" fill-opacity=".5" d="M144.4 22.5l.3-6.3 6.2.4-.3 6.2z"/><path fill="#9c8469" fill-opacity=".5" d="M335 123.1l-28.2-1 .5-12.4 28 1z"/><path fill="#847054" fill-opacity=".5" d="M23 105.6l3.7 5.1-1.3.9-3.6-5.1z"/><path fill="#766248" fill-opacity=".5" d="M234.4 155.4l-.9 1.2-10.1-7.3 1-1.3z"/><path fill="#ecdbbb" fill-opacity=".5" d="M18.4 8.3l-35.9-2.5.7-9.4L19-1z"/><path fill="#3d2e19" fill-opacity=".5" d="M186.3 207l-.8-15.5 1.6-.1.8 15.6z"/><path fill="#ceb99a" fill-opacity=".5" d="M14.5 75L-.8 71.8l.4-1.5 15.2 3.2z"/><path fill="#d8c7a8" fill-opacity=".5" d="M172.2 17.7l-4.1 4.7-1.2-1 4-4.7z"/><path fill="#e2cfb0" fill-opacity=".5" d="M80.8 52.7l19.2-6.6 2 5.9-19.2 6.6z"/><path fill="#4c4022" fill-opacity=".5" d="M272.3 185.2l2.5-4 1.3.8-2.4 4z"/><path fill="#493c26" fill-opacity=".5" d="M228 189.6l-1.4 4.5-3-.9 1.3-4.5z"/><path fill="#68573b" fill-opacity=".5" d="M272.7 178.8l1.5-12.4 1.6.1-1.6 12.5z"/><path fill="#f9e7cb" fill-opacity=".5" d="M407 39.9l-8 11.5-7.7-5.4 8.1-11.5z"/><path fill="#ccb88f" fill-opacity=".5" d="M287.4 54.1l.4-1.5 4.5 1.1-.4 1.5z"/><path fill="#e7d3b4" fill-opacity=".5" d="M75.7 16.5l3 10.6-6 1.7-3-10.5z"/><path fill="#e1cfa8" fill-opacity=".5" d="M179.7 67.3l-14-.2v-1.6l14 .2z"/><path fill="#d6c6a7" fill-opacity=".5" d="M293.2 52.4L264 41.2l.6-1.4L293.8 51z"/><path fill="#9e856c" fill-opacity=".5" d="M190.4 110.5l-13.4-4.3 3-9 13.3 4.4z"/><path fill="#7d6c50" fill-opacity=".5" d="M416.5 147l-48.3-13 1.2-4.5 48.3 13z"/><path fill="#e9d8b9" fill-opacity=".5" d="M-3.6 10.1l34.2 11.1-.5 1.5L-4 11.6z"/><path fill="#e7d7b7" fill-opacity=".5" d="M109.4 25.7l26.5-1.4V26l-26.5 1.4z"/><path fill="#c9b595" fill-opacity=".5" d="M60.9 74.2l10.8-1.5.2 1.5-10.8 1.6z"/><path fill="#dbcbaa" fill-opacity=".5" d="M62.6-.4l17.1.9V2l-17.2-.9z"/><path fill="#9d8667" fill-opacity=".5" d="M-28 91.7l.4-4.7 154 13.5-.3 4.7z"/><path fill="#a38b6d" fill-opacity=".5" d="M103.7 70.2l45.8 9.8-1.6 7.6-45.9-9.7z"/><path fill="#6e5c44" fill-opacity=".5" d="M378.3 161.7h1.6l-.4 12.5h-1.6z"/><path fill="#968163" fill-opacity=".5" d="M416.4 128.5l-40.6-.7v-1.6l40.6.7z"/><path fill="#a0896a" fill-opacity=".5" d="M369.3 125.9l.6-6.3 28 3-.6 6.2z"/><path fill="#5a4b35" fill-opacity=".5" d="M175 187.3l1.4-.5 3.4 8.7-1.5.6z"/><path fill="#e7d7b7" fill-opacity=".5" d="M166.6 13.5l-2 9.2-1.5-.3 2-9.2z"/><path fill="#dbc5a5" fill-opacity=".5" d="M213.3 70.4v-1.6l3-.1.1 1.6z"/><path fill="#53412b" fill-opacity=".5" d="M-1.4 194.1l26.7 8.7-.4 1.5-26.8-8.7z"/><path fill="#dfcdae" fill-opacity=".5" d="M74 24.1l19.6 5-.3 1.5-19.7-5z"/><path fill="#d6c4a7" fill-opacity=".5" d="M259.3 26.2l23.4-.8.2 6.2-23.4.8z"/><path fill="#c0a889" fill-opacity=".5" d="M60.9 74.7v1.5l-7.7.7-.1-1.6z"/><path fill="#d9c6a7" fill-opacity=".5" d="M97 50.9L96 52 82.7 41.3l1-1.2z"/><path fill="#554631" fill-opacity=".5" d="M237.3 190.7l-1.5-.1.3-4.7 1.6.1z"/><path fill="#5f4e33" fill-opacity=".5" d="M164.8 179l-2.2 5.9-32.1-12.4 2.2-5.8z"/><path fill="#68553a" fill-opacity=".5" d="M273.3 172.8l-95.2-5 .1-1.5 95.2 5z"/><path fill="#6a5941" fill-opacity=".5" d="M388.4 170.4l-1.7-4.3 1.5-.6 1.7 4.4z"/><path fill="#e0cfb1" fill-opacity=".5" d="M335.1 32.8l2-2.5 1.2 1-2 2.4z"/><path fill="#877359" fill-opacity=".5" d="M125.5 126.2l-7.3-2.7 1.6-4.4 7.3 2.7z"/><path fill="#4f4027" fill-opacity=".5" d="M282.4 177.6l1.5-.4.9 3-1.6.4z"/><path fill="#d2c1a3" fill-opacity=".5" d="M263.7 37.7l6.4-12.6L291 35.8l-6.4 12.5z"/><path fill="#58472b" fill-opacity=".5" d="M285.6 177.1l.7-3 1.5.3-.7 3z"/><path fill="#dccbab" fill-opacity=".5" d="M130 35.4l-.4 1.5-26.9-8.2.5-1.5z"/><path fill="#67563a" fill-opacity=".5" d="M73 168l-1.4-2.8 7-3.5 1.4 2.8z"/><path fill="#dcc9a6" fill-opacity=".5" d="M249.2 66.1l-2.6-1.7 2.6-4 2.6 1.8z"/><path fill="#decbab" fill-opacity=".5" d="M133 54.2l7.7 1-.2 1.6-7.8-1.1z"/><path fill="#cfbc9e" fill-opacity=".5" d="M111.9 42.8l-2 4.2-1.5-.7 2-4.2z"/><path fill="#d1c0a1" fill-opacity=".5" d="M196.1 37.8l12-3.7.4 1.5-11.9 3.7z"/><path fill="#ae9770" fill-opacity=".5" d="M288 56.5l15.2-3.5 1 4.6L289 61z"/><path fill="#d2c0a2" fill-opacity=".5" d="M89-5l11 6-3 5.5L86 .6z"/><path fill="#f1ddbf" fill-opacity=".5" d="M122 56.9l6.3-7 1.2 1-6.3 7z"/><path fill="#594832" fill-opacity=".5" d="M130 193.4l2.5-10.6 1.5.3-2.4 10.7z"/><path fill="#a78d6f" fill-opacity=".5" d="M431 128.8l-.6 1.4-78.7-41.8.8-1.4z"/><path fill="#705b43" fill-opacity=".5" d="M358.2 152.8l1.2-1 15.2 15.7-1.2 1z"/><path fill="#decdae" fill-opacity=".5" d="M133.6 37.4l-.2 1.6-18.6-3 .3-1.5z"/><path fill="#705a42" fill-opacity=".5" d="M143.2 160.3l18.9 7.6-.6 1.5-18.9-7.6z"/><path fill="#aa9274" fill-opacity=".5" d="M276 60l31.1 3.4-.3 3-31.1-3.2z"/><path fill="#d6c4a8" fill-opacity=".5" d="M393.9 25.3l1 7.7-18.5 2.6-1-7.7z"/><path fill="#b5a484" fill-opacity=".5" d="M326.7 47.4l-.4 1.5-4.5-1 .3-1.5z"/><path fill="#f1e0bf" fill-opacity=".5" d="M101 16.6l-12.3 2.6-.6-3 12.2-2.6z"/><path fill="#b59d7e" fill-opacity=".5" d="M100 68.4l11 .7-.1 1.6-11-.8z"/><path fill="#c4af8a" fill-opacity=".5" d="M46.9 71.8v1.5l-14 .3-.1-1.6z"/><path fill="#d0c3a6" fill-opacity=".5" d="M174 2.4l8 7.6-7.6 7.9-8-7.6z"/><path fill="#a48d6f" fill-opacity=".5" d="M366.1 100.2l-1 3-73.4-26.8 1-3z"/><path fill="#e1ceaf" fill-opacity=".5" d="M170.3 53.3v-1.5l23.4-.4v1.5z"/><path fill="#68553a" fill-opacity=".5" d="M157.2 170l-.8 3-15.1-3.8.7-3z"/><path fill="#bcab8b" fill-opacity=".5" d="M385.3 56.6l-.2-1.5 6.2-.8.2 1.6z"/><path fill="#6b5b41" fill-opacity=".5" d="M337.8 150.7l.8-1.4 19 11-.9 1.3z"/><path fill="#897154" fill-opacity=".5" d="M-4.7 112.7L9 109.3l.4 1.5-13.7 3.4z"/><path fill="#ebd7b9" fill-opacity=".5" d="M141.5 13l-.1-1.7 9.3-.8.1 1.6z"/><path fill="#3d301d" fill-opacity=".5" d="M260.8 217.6l-3.5-3.1 30.3-33.7 3.5 3.2z"/><path fill="#987f62" fill-opacity=".5" d="M211.7 127l-25-.9v-1.5l25 .8z"/><path fill="#e6d5b5" fill-opacity=".5" d="M93.1 11.7l-60-17.2.4-1.5 60 17.2z"/><path fill="#806e52" fill-opacity=".5" d="M342.8 138l-21.2 5.2-.4-1.5 21.3-5.3z"/><path fill="#65563c" fill-opacity=".5" d="M284.4 176.6l-3.8 2.7-1-1.3 3.9-2.6z"/><path fill="#d3c1a5" fill-opacity=".5" d="M388.6 21.7l-15 20-7.5-5.6 15-20z"/><path fill="#453722" fill-opacity=".5" d="M350.6 166.6l-1.3-.8 1.6-2.7 1.4.8z"/><path fill="#3c2c19" fill-opacity=".5" d="M131.2 197.9v1.5l-32.7 1.2V199z"/><path fill="#d4c0a1" fill-opacity=".5" d="M193.2 49.9l-1.4.6-5.3-11.3 1.4-.7z"/><path fill="#e1d1b1" fill-opacity=".5" d="M319.2 23l1.1-3 5.8 2.3-1 3z"/><path fill="#af9775" fill-opacity=".5" d="M317.9 52l32.5 4-1 9.2-32.7-4z"/><path fill="#d2c0a5" fill-opacity=".5" d="M371.2 15.3l37.5.7-.2 7.8L371 23z"/><path fill="#e1d2b5" fill-opacity=".5" d="M219.7-10l1.5.3-5 21.3-1.5-.3z"/><path fill="#a99072" fill-opacity=".5" d="M363.7 79.1l74.2 33-3.2 7.2-74.2-33z"/><path fill="#cfbe9f" fill-opacity=".5" d="M338.3 28.9l3.6-8.7 5.8 2.5-3.7 8.6z"/><path fill="#3e2f1e" fill-opacity=".5" d="M175.1 194.6l-.3 4.6-23.4-1.6.4-4.7z"/><path fill="#87775c" fill-opacity=".5" d="M255.4 121.4l13.8 2.7-1.2 6-13.8-2.6z"/><path fill="#745f47" fill-opacity=".5" d="M66.4 133.8L.8 134.9v-4.6l65.6-1.2z"/><path fill="#705b43" fill-opacity=".5" d="M44.1 151l154.1 13.6-.1 1.5L44 152.6z"/><path fill="#594b33" fill-opacity=".5" d="M205.7 178.2l12.7 6.2-.7 1.4-12.6-6.1z"/><path fill="#998264" fill-opacity=".5" d="M54.8 106.8l11.4 5.3-.7 1.4-11.3-5.3z"/><path fill="#443621" fill-opacity=".5" d="M139.2 200.1l-6.1-7 1.1-1 6.2 7z"/><path fill="#968165" fill-opacity=".5" d="M143.6 128.6l-14.8-13.9 1-1.1 14.9 13.8z"/><path fill="#c9b192" fill-opacity=".5" d="M193.3 68.3l3 1-.5 1.5-3-1z"/><path fill="#a68d6f" fill-opacity=".5" d="M142.4 69.1L164 67l1.3 12.4-21.7 2.3z"/><path fill="#d6c5a6" fill-opacity=".5" d="M102.8 6.7l5.9 2.3-.6 1.4-5.8-2.2z"/><path fill="#dbc8aa" fill-opacity=".5" d="M75.6 37.5l.2 1.6-21.7 3-.2-1.5z"/><path fill="#f3e0c1" fill-opacity=".5" d="M-5.5 49.9L7 50v1.6l-12.5-.2z"/><path fill="#493c24" fill-opacity=".5" d="M388.1 179.1l15.2-8 .7 1.3-15.1 8.1z"/><path fill="#f0debc" fill-opacity=".5" d="M243.7 26.7l-3.8 2.7-10.1-13.9 3.8-2.7z"/><path fill="#e9d7b8" fill-opacity=".5" d="M169.2 22.8l16.6 4.5-.4 1.5-16.6-4.5z"/><path fill="#dbcaaa" fill-opacity=".5" d="M324 26.7l3 7.3-8.8 3.4-2.8-7.3z"/><path fill="#eddbb6" fill-opacity=".5" d="M223.8 50.3l2.2-4.1 20.5 11.3-2.2 4.1z"/><path fill="#5b4930" fill-opacity=".5" d="M24 159.3l1.6.2-1.2 10.9-1.5-.2z"/><path fill="#433621" fill-opacity=".5" d="M238.1 190.6l1.5-2.8 8.2 4.4-1.4 2.8z"/><path fill="#746045" fill-opacity=".5" d="M384.8 146.1l2.5 7.4-23.6 8.2-2.6-7.4z"/><path fill="#a18a6c" fill-opacity=".5" d="M65.7 92.4L3.9 82.6l.8-4.6 61.7 9.7z"/><path fill="#e1d0af" fill-opacity=".5" d="M102 13.2l.7-1.5 18.7 8-.6 1.4z"/><path fill="#b6a07d" fill-opacity=".5" d="M130.5 65.7V64h6.2v1.5z"/><path fill="#d7c4a5" fill-opacity=".5" d="M188.5 48.6l-20.3-19.5 1.1-1.1 20.3 19.5z"/><path fill="#e1ceb3" fill-opacity=".5" d="M342.6 9.5l-2.7 5.7-2.8-1.3 2.6-5.7z"/><path fill="#e5d1b3" fill-opacity=".5" d="M13.8 33l4.7-.3.5 7.8-4.7.3z"/><path fill="#dec8a7" fill-opacity=".5" d="M253.2 61.4l-.1-1.6 17.2-.9v1.6z"/><path fill="#938063" fill-opacity=".5" d="M314.7 132.9L286.2 120l.6-1.4 28.6 12.7z"/><path fill="#90795a" fill-opacity=".5" d="M255.2 114l8.6 3.6-1.8 4.4-8.6-3.7z"/><path fill="#d1bfa2" fill-opacity=".5" d="M348.9 5.5l-2.7 7.3-3-1 2.8-7.4z"/><path fill="#40331e" fill-opacity=".5" d="M315.4 179.6l.4-7.8 1.6.1-.4 7.8z"/><path fill="#7b6a4f" fill-opacity=".5" d="M316.7 147.6l-2 2.5-11-8.7 1.9-2.4z"/><path fill="#d4c1a3" fill-opacity=".5" d="M9.4 42v-1.6l20.3.4v1.6z"/><path fill="#e9d7b8" fill-opacity=".5" d="M232 11.6l-18.2 4.9-.4-1.5 18.1-4.9z"/><path fill="#e4d1b1" fill-opacity=".5" d="M204 57.5l-6.2.6-.2-1.5 6.2-.7z"/><path fill="#3d2f1a" fill-opacity=".5" d="M295.9 183.6l-1.1-12.4 1.5-.2 1.1 12.5z"/><path fill="#5b4933" fill-opacity=".5" d="M92.4 189.3l-93-11.4.4-3.1 93 11.4z"/><path fill="#b39a78" fill-opacity=".5" d="M312 47.8l31 4.4-.3 1.5-31-4.3z"/><path fill="#9b8368" fill-opacity=".5" d="M227.2 114.3v1.6l-65.3 5.7-.1-1.5z"/><path fill="#4a3c29" fill-opacity=".5" d="M188.4 192.1l7.3 10.2-1.3.9-7.3-10.1z"/><path fill="#d0be9f" fill-opacity=".5" d="M307.6 45.8l.5-4.7 20.2 2.2-.5 4.6z"/><path fill="#857158" fill-opacity=".5" d="M130.8 127.7l-26-5.5.3-1.5 26 5.5z"/><path fill="#e0cfab" fill-opacity=".5" d="M48.4 67.4l14-.5.1 1.6-14 .5z"/><path fill="#e6d4b0" fill-opacity=".5" d="M236.5 40l-.7-1.4 4.2-2 .7 1.4z"/><path fill="#d6c6a5" fill-opacity=".5" d="M254 34.8l2.8-3.8 6.3 4.6-2.7 3.7z"/><path fill="#a88f6d" fill-opacity=".5" d="M129.3 74.7l10.6-11.4 1.2 1-10.7 11.5z"/><path fill="#4e3f29" fill-opacity=".5" d="M381.6 176.7l-.7 4.6-1.6-.2.8-4.6z"/><path fill="#403320" fill-opacity=".5" d="M358.8 189.9l-.4-21.9h3.1l.4 21.8z"/><path fill="#ead8b6" fill-opacity=".5" d="M75 68.2l4.8-4 3 3.6-4.8 4z"/><path fill="#d7c6a7" fill-opacity=".5" d="M129.4 17.4l27.5 5.9-.3 1.5-27.5-5.9z"/><path fill="#463820" fill-opacity=".5" d="M79.3 194.7l1.5-.2.9 6.1-1.6.3z"/><path fill="#f3e2c4" fill-opacity=".5" d="M238.2 6l26-14.5 2.3 4.1-26 14.4z"/><path fill="#cebe9e" fill-opacity=".5" d="M141.5 44.7l-7.7 5.4-1.8-2.6 7.7-5.4z"/><path fill="#ddccad" fill-opacity=".5" d="M47.6 10.8v1.6l-12.4.2V11z"/><path fill="#5e492f" fill-opacity=".5" d="M381.4 169.6l-.3-6.3h1.5l.4 6.2z"/><path fill="#e4d3b3" fill-opacity=".5" d="M29.2 43l6 1.6-.4 1.5-6-1.6z"/><path fill="#483926" fill-opacity=".5" d="M97.8 199.8l4.6-8.2 1.3.8-4.5 8.2z"/><path fill="#f5e3bf" fill-opacity=".5" d="M233.3 27.2l1.2-1 5.7 7.5-1.3 1z"/><path fill="#dfcdac" fill-opacity=".5" d="M164.3 17.2l-1 1.2-7.3-5.9 1-1.2z"/><path fill="#a08a6c" fill-opacity=".5" d="M179.6 96.1l.3-9.4 89 3.1-.3 9.4z"/><path fill="#d7c5a9" fill-opacity=".5" d="M99.2 10.7V9l28.2.5v1.6z"/><path fill="#7a654b" fill-opacity=".5" d="M251.6 151.8l-17 2.7-.2-1.6 17-2.7z"/><path fill="#eddcba" fill-opacity=".5" d="M258 50l.6-1.5 19.3 6.2-.5 1.5z"/><path fill="#57462d" fill-opacity=".5" d="M267.2 176.4l3.8-2.6 1 1.3-4 2.6z"/><path fill="#6e5941" fill-opacity=".5" d="M284 146.5l43.4 13.3-.5 1.5-43.3-13.3z"/><path fill="#d7c1a0" fill-opacity=".5" d="M232.1 68.5l-3 .5-.3-1.5 3-.6z"/><path fill="#b49c7c" fill-opacity=".5" d="M367 52.1l61.7 17.7-.5 1.5-61.5-17.7z"/><path fill="#735e45" fill-opacity=".5" d="M58.8 145.8l74.9 5.3-.4 4.6-74.8-5.2z"/><path fill="#a6906e" fill-opacity=".5" d="M130.4 63.7l.7 1.4-19.3 10.3-.7-1.4z"/><path fill="#413120" fill-opacity=".5" d="M368.8 219.5l-3.2-46.7 1.5-.1 3.3 46.7z"/><path fill="#624e32" fill-opacity=".5" d="M382.4 163l.8-3 1.6.4-.9 3z"/><path fill="#6c5940" fill-opacity=".5" d="M265.7 151.3l.3 1.6-42.6 9.8-.4-1.5z"/><path fill="#d0bd9e" fill-opacity=".5" d="M126.6 46l.1-1.6 57.6 5-.1 1.6z"/><path fill="#958164" fill-opacity=".5" d="M32.2 109l-.2-1.6 18.6-2.3.2 1.6z"/><path fill="#dbc69f" fill-opacity=".5" d="M91.3 70.1l.2-1.5 3.1.3-.2 1.6z"/><path fill="#5b4a32" fill-opacity=".5" d="M196.3 189.3l7.6-5.3 4.5 6.4-7.7 5.3z"/><path fill="#ead5b7" fill-opacity=".5" d="M272.3 50.7l1.2-1 5.8 7.4-1.2 1z"/><path fill="#d1bea0" fill-opacity=".5" d="M2.8 60l-4.5-1.3.5-1.5 4.5 1.3z"/><path fill="#a78e70" fill-opacity=".5" d="M217.5 81.7L217 77l101.4-7.1.3 4.7z"/><path fill="#d4c4a7" fill-opacity=".5" d="M204 19.5l-4.2-2L216.3-18l4.2 2z"/><path fill="#968465" fill-opacity=".5" d="M335.9 133l.5-1.4 7.4 2.5-.5 1.5z"/><path fill="#b7a483" fill-opacity=".5" d="M223.6 71l-.2-1.5 10.8-1.5.2 1.5z"/><path fill="#a28b6d" fill-opacity=".5" d="M272.1 77.3l29 6.7-2.9 12.1-29-6.6z"/><path fill="#ead6b8" fill-opacity=".5" d="M216.3 48l1.5 6-10.6 2.7-1.5-6z"/><path fill="#a08f6f" fill-opacity=".5" d="M180.6 78.1l-.3 3.1-21.8-1.5.2-3.1z"/><path fill="#e5d4b1" fill-opacity=".5" d="M66.7 65.7l5-3.7 3.8 5.1-5.1 3.7z"/><path fill="#ecdbbb" fill-opacity=".5" d="M274.3-1.4l-.2 4.7-6.2-.3.2-4.7z"/><path fill="#eddcbd" fill-opacity=".5" d="M252.6 3.2l.9 1.3-23.3 15.7-.9-1.3z"/><path fill="#e3d2b3" fill-opacity=".5" d="M254.5 4.7l6.4 4.5-4.5 6.4-6.4-4.5z"/><path fill="#725b44" fill-opacity=".5" d="M393 163l4 2.4-.9 1.3-4-2.4z"/><path fill="#dccbac" fill-opacity=".5" d="M159.5 31.8L163 23l7.2 3-3.5 8.6z"/><path fill="#e3cfae" fill-opacity=".5" d="M139.3 14l-1.7 2.7-6.6-4.2 1.7-2.6z"/><path fill="#8b7554" fill-opacity=".5" d="M364.7 130.6l.2 1.6-12.4 1.3-.2-1.6z"/><path fill="#d1bfa3" fill-opacity=".5" d="M350.7 6.8L326.2 12l-.3-1.6 24.4-5.2z"/><path fill="#423321" fill-opacity=".5" d="M298.4 178.5l-9.4 23.2-1.4-.6 9.3-23.1z"/><path fill="#6d5a41" fill-opacity=".5" d="M13.4 159.3l4.5-1.2 1.5 6-4.5 1.2z"/><path fill="#d9c09f" fill-opacity=".5" d="M234.4 67.3v-1.6l10.9-.2v1.6z"/><path fill="#7a664b" fill-opacity=".5" d="M164.8 131.8l-15.6-1.1v-1.6l15.7 1.1z"/><path fill="#e2d0b4" fill-opacity=".5" d="M264.4 10.3l-.4-1.5 82.6-17.6.3 1.6z"/><path fill="#4e432b" fill-opacity=".5" d="M310.5 171.8l1.4.7-2.1 4.2-1.4-.7z"/><path fill="#3e2f19" fill-opacity=".5" d="M233.6 193.5l-1.4.8-4.8-8 1.3-.9z"/><path fill="#e1cfb4" fill-opacity=".5" d="M311.3-12L279 24l-1.2-1 32.5-36z"/><path fill="#3d311d" fill-opacity=".5" d="M296 210l-36-25.2 1.9-2.5 35.8 25z"/><path fill="#a48d6e" fill-opacity=".5" d="M208 84.8l33.3-8.4 2.3 9.1-33.4 8.4z"/><path fill="#9d846b" fill-opacity=".5" d="M271 99.2v12.5h-12.4V99.2z"/><path fill="#4f412f" fill-opacity=".5" d="M362.3 173.5l1.6-.1.4 7.8h-1.6z"/><path fill="#e6d2ab" fill-opacity=".5" d="M154.7 65.3v-1.5l17.2.6v1.5z"/><path fill="#e1ceb1" fill-opacity=".5" d="M-14 47.4v-1.6l29.6-1v1.6z"/><path fill="#574732" fill-opacity=".5" d="M108.7 184.3l1.5.3-1.7 10.8-1.5-.3z"/><path fill="#e7d5b8" fill-opacity=".5" d="M326.3 21l-.7-1.4 15.3-7.8.7 1.4z"/><path fill="#d6b994" fill-opacity=".5" d="M363.4 49.7l-3 .6-.4-1.6 3.1-.5z"/><path fill="#d7c6a7" fill-opacity=".5" d="M140.1 36.8l4 11.8-1.4.5-4-11.8z"/><path fill="#4b3c26" fill-opacity=".5" d="M219.6 188.8l-1 1.1-2.3-2.1 1-1.2z"/><path fill="#524027" fill-opacity=".5" d="M198.2 184.7l-1.2 7.7-3-.5 1.2-7.7z"/><path fill="#a0896b" fill-opacity=".5" d="M314 91.9l67.5 24.6-3.2 8.8-67.6-24.6z"/><path fill="#ecd9ba" fill-opacity=".5" d="M27.6 51.7l12.7 6.1-.7 1.5L26.9 53z"/></svg>