<svg xmlns="http://www.w3.org/2000/svg" version="1.1" width="1024" height="512"><style>@keyframes a{ from {opacity: 0} to {opacity: 1} } g > * { opacity: 0; animation: a .5s forwards; }</style>
<rect x="0" y="0" width="1024" height="512" fill="#514946"/>
<g transform="scale(4.000000) translate(0.5 0.5)">
<g transform="translate(162.427338 69.719637) rotate(137.025798) scale(29.217463 33.400395)" style="animation-delay: 0.000s;"><ellipse fill="#d7e3ec" fill-opacity="0.501961" cx="0" cy="0" rx="1" ry="1" style="animation-delay: 0.127s;"/></g>
<g transform="translate(77.892952 45.516997) rotate(378.630324) scale(25.388343 42.341452)" style="animation-delay: 0.254s;"><ellipse fill="#060912" fill-opacity="0.501961" cx="0" cy="0" rx="1" ry="1" style="animation-delay: 0.381s;"/></g>
<g transform="translate(124 127) rotate(375) scale(138 21)" style="animation-delay: 0.507s;"><rect fill="#d1b897" fill-opacity="0.501961" x="-0.5" y="-0.5" width="1" height="1" style="animation-delay: 0.632s;"/></g>
<g transform="translate(255.000000 46.933408) rotate(213.099082) scale(99.818700 56.478886)" style="animation-delay: 0.756s;"><ellipse fill="#26261f" fill-opacity="0.501961" cx="0" cy="0" rx="1" ry="1" style="animation-delay: 0.878s;"/></g>
<g transform="translate(153.168207 79.438067) rotate(431.620919) scale(15.996882 19.969574)" style="animation-delay: 0.999s;"><ellipse fill="#d5e6ea" fill-opacity="0.501961" cx="0" cy="0" rx="1" ry="1" style="animation-delay: 1.119s;"/></g>
<ellipse fill="#0d0302" fill-opacity="0.501961" cx="0" cy="127" rx="60" ry="26" style="animation-delay: 1.236s;"/>
<polygon fill="#bdcccc" fill-opacity="0.501961" points="34,45 -13,90 -13,65" style="animation-delay: 1.351s;"/>
<g transform="translate(24 85) rotate(40) scale(12 37)" style="animation-delay: 1.463s;"><rect fill="#c2bba9" fill-opacity="0.501961" x="-0.5" y="-0.5" width="1" height="1" style="animation-delay: 1.573s;"/></g>
<polygon fill="#8ca9c3" fill-opacity="0.501961" points="184.030316,97.162990,158.794138,113.947667,194.806888,67.719084,212.606095,73.294995" style="animation-delay: 1.680s;"/>
<g transform="translate(124.768289 28.155603) rotate(124.574219) scale(24.103020 5.743388)" style="animation-delay: 1.784s;"><ellipse fill="#9baeb2" fill-opacity="0.501961" cx="0" cy="0" rx="1" ry="1" style="animation-delay: 1.885s;"/></g>
<g transform="translate(211.749609 114.948345) rotate(201.309132) scale(28.016088 38.363698)" style="animation-delay: 1.982s;"><ellipse fill="#461c0a" fill-opacity="0.501961" cx="0" cy="0" rx="1" ry="1" style="animation-delay: 2.076s;"/></g>
<ellipse fill="#bbb6a6" fill-opacity="0.501961" cx="64" cy="2" rx="20" ry="9" style="animation-delay: 2.166s;"/>
<g transform="translate(124.771707 86.117871) rotate(19.828719) scale(11.341929 29.072347)" style="animation-delay: 2.252s;"><ellipse fill="#a44b34" fill-opacity="0.501961" cx="0" cy="0" rx="1" ry="1" style="animation-delay: 2.334s;"/></g>
<polygon fill="#07100a" fill-opacity="0.501961" points="160,-16 121,47 164,34" style="animation-delay: 2.412s;"/>
<ellipse fill="#131d27" fill-opacity="0.501961" cx="0" cy="17" rx="38" ry="38" style="animation-delay: 2.486s;"/>
<polygon fill="#100c0d" fill-opacity="0.501961" points="62.109946,74.305760,110.538736,-13.064495,52.581799,56.802890,4.885333,131.347713" style="animation-delay: 2.555s;"/>
<polygon fill="#000000" fill-opacity="0.501961" points="243,133 271,132 254,69" style="animation-delay: 2.619s;"/>
<ellipse fill="#7d4631" fill-opacity="0.501961" cx="155" cy="51" rx="14" ry="11" style="animation-delay: 2.679s;"/>
<rect fill="#1f0700" fill-opacity="0.501961" x="67" y="77" width="43" height="17" style="animation-delay: 2.734s;"/>
<g transform="translate(216.874173 0.000000) rotate(97.164880) scale(13.811021 68.878876)" style="animation-delay: 2.784s;"><ellipse fill="#001115" fill-opacity="0.501961" cx="0" cy="0" rx="1" ry="1" style="animation-delay: 2.829s;"/></g>
<polygon fill="#aba597" fill-opacity="0.501961" points="57,107 48,100 69,68" style="animation-delay: 2.869s;"/>
<g transform="translate(26 65) rotate(45) scale(10 80)" style="animation-delay: 2.903s;"><rect fill="#0a0d19" fill-opacity="0.501961" x="-0.5" y="-0.5" width="1" height="1" style="animation-delay: 2.933s;"/></g>
<g transform="translate(173.257908 11.048957) rotate(99.668308) scale(4.328185 104.701877)" style="animation-delay: 2.957s;"><ellipse fill="#5a6671" fill-opacity="0.501961" cx="0" cy="0" rx="1" ry="1" style="animation-delay: 2.976s;"/></g>
<polygon fill="#796f67" fill-opacity="0.501961" points="253,60 244,125 228,54" style="animation-delay: 2.989s;"/>
<polygon fill="#ada29f" fill-opacity="0.501961" points="166.051090,141.883370,120.821277,98.037866,147.319449,57.852761,133.319155,103.910596" style="animation-delay: 2.997s;"/>
</g>
</svg>