<svg xmlns="http://www.w3.org/2000/svg" version="1.1" width="1024" height="568"><style>@keyframes a{ from {opacity: 0} to {opacity: 1} } g > * { opacity: 0; animation: a .5s forwards; }</style>
<rect x="0" y="0" width="1024" height="568" fill="#7c7b76"/>
<g transform="scale(4.000000) translate(0.5 0.5)">
<g transform="translate(87.003449 135.075667) rotate(370.957113) scale(254.174690 35.734282)" style="animation-delay: 0.000s;"><ellipse fill="#080600" fill-opacity="0.501961" cx="0" cy="0" rx="1" ry="1" style="animation-delay: 0.001s;"/></g>
<g transform="translate(58 58) rotate(276) scale(50 77)" style="animation-delay: 0.012s;"><rect fill="#fffff1" fill-opacity="0.501961" x="-0.5" y="-0.5" width="1" height="1" style="animation-delay: 0.040s;"/></g>
<ellipse fill="#d6dbe2" fill-opacity="0.501961" cx="181" cy="81" rx="62" ry="35" style="animation-delay: 0.094s;"/>
<g transform="translate(126.063780 3.484566) rotate(136.862259) scale(54.558322 38.653076)" style="animation-delay: 0.183s;"><ellipse fill="#5a544e" fill-opacity="0.501961" cx="0" cy="0" rx="1" ry="1" style="animation-delay: 0.316s;"/></g>
<g transform="translate(32.121691 53.790569) rotate(76.471975) scale(26.816325 57.403987)" style="animation-delay: 0.502s;"><ellipse fill="#c2bbab" fill-opacity="0.501961" cx="0" cy="0" rx="1" ry="1" style="animation-delay: 0.750s;"/></g>
<ellipse fill="#fbfaf5" fill-opacity="0.501961" cx="77" cy="62" rx="18" ry="18" style="animation-delay: 0.998s;"/>
<ellipse fill="#696e6a" fill-opacity="0.501961" cx="199" cy="119" rx="57" ry="11" style="animation-delay: 1.184s;"/>
<g transform="translate(74.698184 98.308478) rotate(152.430117) scale(14.678093 16.836435)" style="animation-delay: 1.317s;"><ellipse fill="#8b939b" fill-opacity="0.501961" cx="0" cy="0" rx="1" ry="1" style="animation-delay: 1.406s;"/></g>
<ellipse fill="#979999" fill-opacity="0.501961" cx="240" cy="47" rx="89" ry="21" style="animation-delay: 1.460s;"/>
<g transform="translate(12.063141 131.245470) rotate(205.124450) scale(51.190052 29.382331)" style="animation-delay: 1.488s;"><ellipse fill="#1d1a0a" fill-opacity="0.501961" cx="0" cy="0" rx="1" ry="1" style="animation-delay: 1.499s;"/></g>
</g>
</svg>