<svg xmlns="http://www.w3.org/2000/svg" version="1.1" width="1024" height="568"><style>@keyframes a{ from {opacity: 0} to {opacity: 1} } g > * { opacity: 0; animation: a .5s forwards; }</style>
<rect x="0" y="0" width="1024" height="568" fill="#7c7b76"/>
<g transform="scale(4.000000) translate(0.5 0.5)">
<g transform="translate(56.281562 130.821155) rotate(279.408030) scale(35.800517 237.875597)" style="animation-delay: 0.000s;"><ellipse fill="#060300" fill-opacity="0.501961" cx="0" cy="0" rx="1" ry="1" style="animation-delay: 0.000s;"/></g>
<g transform="translate(59.370693 56.067149) rotate(106.732229) scale(28.708407 36.855930)" style="animation-delay: 0.001s;"><ellipse fill="#fffff3" fill-opacity="0.501961" cx="0" cy="0" rx="1" ry="1" style="animation-delay: 0.003s;"/></g>
<g transform="translate(183.196046 83.880909) rotate(178.193167) scale(64.305183 31.169270)" style="animation-delay: 0.008s;"><ellipse fill="#d7dee5" fill-opacity="0.501961" cx="0" cy="0" rx="1" ry="1" style="animation-delay: 0.015s;"/></g>
<ellipse fill="#c9c3b3" fill-opacity="0.501961" cx="30" cy="52" rx="65" ry="30" style="animation-delay: 0.026s;"/>
<g transform="translate(114.448149 0.782876) rotate(87.572273) scale(32.538933 144.442337)" style="animation-delay: 0.041s;"><ellipse fill="#605a50" fill-opacity="0.501961" cx="0" cy="0" rx="1" ry="1" style="animation-delay: 0.061s;"/></g>
<g transform="translate(193.966699 47.608062) rotate(165.050815) scale(83.537872 14.521799)" style="animation-delay: 0.086s;"><ellipse fill="#a4a5a8" fill-opacity="0.501961" cx="0" cy="0" rx="1" ry="1" style="animation-delay: 0.118s;"/></g>
<g transform="translate(78.263418 62.114345) rotate(68.583946) scale(25.465757 13.949636)" style="animation-delay: 0.158s;"><ellipse fill="#f5f5f2" fill-opacity="0.501961" cx="0" cy="0" rx="1" ry="1" style="animation-delay: 0.205s;"/></g>
<polygon fill="#696b6a" fill-opacity="0.501961" points="32,79 135,86 69,124" style="animation-delay: 0.260s;"/>
<ellipse fill="#2c2817" fill-opacity="0.501961" cx="16" cy="123" rx="45" ry="41" style="animation-delay: 0.325s;"/>
<ellipse fill="#262e28" fill-opacity="0.501961" cx="246" cy="141" rx="19" ry="25" style="animation-delay: 0.400s;"/>
<g transform="translate(190.298498 117.763448) rotate(94.955659) scale(10.163102 51.267312)" style="animation-delay: 0.485s;"><ellipse fill="#737774" fill-opacity="0.501961" cx="0" cy="0" rx="1" ry="1" style="animation-delay: 0.582s;"/></g>
<ellipse fill="#a7a191" fill-opacity="0.501961" cx="41" cy="31" rx="45" ry="15" style="animation-delay: 0.691s;"/>
<rect fill="#d1d2d2" fill-opacity="0.501961" x="158" y="64" width="21" height="56" style="animation-delay: 0.809s;"/>
<g transform="translate(243 90) rotate(19) scale(38 48)" style="animation-delay: 0.918s;"><rect fill="#a2a8a8" fill-opacity="0.501961" x="-0.5" y="-0.5" width="1" height="1" style="animation-delay: 1.015s;"/></g>
<polygon fill="#373328" fill-opacity="0.501961" points="138.748240,107.559136,104.802142,100.891173,96.905669,46.618852,87.368180,157.000000" style="animation-delay: 1.100s;"/>
<g transform="translate(79 91) rotate(299) scale(30 14)" style="animation-delay: 1.175s;"><rect fill="#abb7c3" fill-opacity="0.501961" x="-0.5" y="-0.5" width="1" height="1" style="animation-delay: 1.240s;"/></g>
<rect fill="#d9e6ef" fill-opacity="0.501961" x="210" y="75" width="23" height="22" style="animation-delay: 1.295s;"/>
<g transform="translate(52.731525 104.456188) rotate(313.709980) scale(15.469552 27.090902)" style="animation-delay: 1.342s;"><ellipse fill="#56534a" fill-opacity="0.501961" cx="0" cy="0" rx="1" ry="1" style="animation-delay: 1.382s;"/></g>
<ellipse fill="#8b8f8e" fill-opacity="0.501961" cx="244" cy="47" rx="40" ry="32" style="animation-delay: 1.414s;"/>
<g transform="translate(117.879921 23.140097) rotate(216.494673) scale(21.009349 30.251737)" style="animation-delay: 1.439s;"><ellipse fill="#5f5b57" fill-opacity="0.501961" cx="0" cy="0" rx="1" ry="1" style="animation-delay: 1.459s;"/></g>
<ellipse fill="#858d98" fill-opacity="0.501961" cx="125" cy="85" rx="12" ry="19" style="animation-delay: 1.474s;"/>
<ellipse fill="#2a271c" fill-opacity="0.501961" cx="123" cy="141" rx="31" ry="22" style="animation-delay: 1.485s;"/>
<rect fill="#60625c" fill-opacity="0.501961" x="186" y="110" width="51" height="24" style="animation-delay: 1.492s;"/>
<rect fill="#6a6e73" fill-opacity="0.501961" x="151" y="79" width="6" height="33" style="animation-delay: 1.497s;"/>
<g transform="translate(19 139) rotate(391) scale(77 32)" style="animation-delay: 1.499s;"><rect fill="#1d1c11" fill-opacity="0.501961" x="-0.5" y="-0.5" width="1" height="1" style="animation-delay: 1.500s;"/></g>
</g>
</svg>