<svg xmlns="http://www.w3.org/2000/svg" version="1.1" width="1024" height="568"><style>@keyframes a{ from {opacity: 0} to {opacity: 1} } g > * { opacity: 0; animation: a .5s forwards; }</style>
<rect x="0" y="0" width="1024" height="568" fill="#7c7b76"/>
<g transform="scale(4.000000) translate(0.5 0.5)">
<g transform="translate(69.175584 127.239344) rotate(10.337690) scale(247.195165 30.170392)" style="animation-delay: 0.000s;"><ellipse fill="#060400" fill-opacity="0.501961" cx="0" cy="0" rx="1" ry="1" style="animation-delay: 0.000s;"/></g>
<ellipse fill="#d6dce3" fill-opacity="0.501961" cx="182" cy="82" rx="65" ry="33" style="animation-delay: 0.000s;"/>
<g transform="translate(57.340400 57.661657) rotate(-79.381613) scale(26.647937 40.884934)" style="animation-delay: 0.000s;"><ellipse fill="#fffff3" fill-opacity="0.501961" cx="0" cy="0" rx="1" ry="1" style="animation-delay: 0.001s;"/></g>
<g transform="translate(29.668596 53.897260) rotate(169.698653) scale(58.730515 28.170216)" style="animation-delay: 0.002s;"><ellipse fill="#c4bead" fill-opacity="0.501961" cx="0" cy="0" rx="1" ry="1" style="animation-delay: 0.004s;"/></g>
<g transform="translate(106.670124 0.000000) rotate(272.452835) scale(25.217778 146.210129)" style="animation-delay: 0.006s;"><ellipse fill="#59544b" fill-opacity="0.501961" cx="0" cy="0" rx="1" ry="1" style="animation-delay: 0.009s;"/></g>
<ellipse fill="#e0e5e8" fill-opacity="0.501961" cx="81" cy="71" rx="12" ry="36" style="animation-delay: 0.012s;"/>
<g transform="translate(73.301939 100.443795) rotate(279.357410) scale(17.540409 52.294831)" style="animation-delay: 0.017s;"><ellipse fill="#55544d" fill-opacity="0.501961" cx="0" cy="0" rx="1" ry="1" style="animation-delay: 0.022s;"/></g>
<g transform="translate(219.462593 41.662408) rotate(170.827121) scale(92.166532 14.692395)" style="animation-delay: 0.029s;"><ellipse fill="#9b9d9f" fill-opacity="0.501961" cx="0" cy="0" rx="1" ry="1" style="animation-delay: 0.037s;"/></g>
<g transform="translate(196.299069 116.664862) rotate(92.256081) scale(10.244387 58.679544)" style="animation-delay: 0.046s;"><ellipse fill="#717571" fill-opacity="0.501961" cx="0" cy="0" rx="1" ry="1" style="animation-delay: 0.057s;"/></g>
<ellipse fill="#282413" fill-opacity="0.501961" cx="16" cy="129" rx="36" ry="47" style="animation-delay: 0.069s;"/>
<g transform="translate(246 134) rotate(278) scale(34 27)" style="animation-delay: 0.082s;"><rect fill="#2b332d" fill-opacity="0.501961" x="-0.5" y="-0.5" width="1" height="1" style="animation-delay: 0.098s;"/></g>
<polygon fill="#333026" fill-opacity="0.501961" points="89,157 96,54 131,157" style="animation-delay: 0.115s;"/>
<polygon fill="#cac9c8" fill-opacity="0.501961" points="178.724579,120.391494,160.839155,117.507525,148.476596,57.623704,187.613373,59.528938" style="animation-delay: 0.134s;"/>
<g transform="translate(242.527660 98.293428) rotate(24.138396) scale(42.601860 15.383694)" style="animation-delay: 0.155s;"><ellipse fill="#b4bcbf" fill-opacity="0.501961" cx="0" cy="0" rx="1" ry="1" style="animation-delay: 0.179s;"/></g>
<g transform="translate(119.385629 80.192214) rotate(35.250844) scale(17.818263 22.610563)" style="animation-delay: 0.204s;"><ellipse fill="#7f8387" fill-opacity="0.501961" cx="0" cy="0" rx="1" ry="1" style="animation-delay: 0.232s;"/></g>
<polygon fill="#8b8f8e" fill-opacity="0.501961" points="271,123 249,7 192,36" style="animation-delay: 0.262s;"/>
<g transform="translate(117.348236 19.969481) rotate(122.277880) scale(32.806064 24.316570)" style="animation-delay: 0.295s;"><ellipse fill="#605b56" fill-opacity="0.501961" cx="0" cy="0" rx="1" ry="1" style="animation-delay: 0.330s;"/></g>
<g transform="translate(76.060621 97.167015) rotate(175.159720) scale(14.956463 16.081808)" style="animation-delay: 0.368s;"><ellipse fill="#868e97" fill-opacity="0.501961" cx="0" cy="0" rx="1" ry="1" style="animation-delay: 0.409s;"/></g>
<rect fill="#f0ece2" fill-opacity="0.501961" x="61" y="45" width="32" height="34" style="animation-delay: 0.453s;"/>
<g transform="translate(216 85) rotate(84) scale(23 11)" style="animation-delay: 0.499s;"><rect fill="#eaf6ff" fill-opacity="0.501961" x="-0.5" y="-0.5" width="1" height="1" style="animation-delay: 0.549s;"/></g>
<g transform="translate(25.865332 36.512383) rotate(167.149997) scale(42.493245 17.721938)" style="animation-delay: 0.602s;"><ellipse fill="#a39d8e" fill-opacity="0.501961" cx="0" cy="0" rx="1" ry="1" style="animation-delay: 0.659s;"/></g>
<ellipse fill="#4e4b39" fill-opacity="0.501961" cx="2" cy="6" rx="21" ry="15" style="animation-delay: 0.719s;"/>
<polygon fill="#565246" fill-opacity="0.501961" points="60.839186,81.822385,-16.000000,84.551798,44.201548,116.191730,85.856560,134.171620" style="animation-delay: 0.781s;"/>
<polygon fill="#676a66" fill-opacity="0.501961" points="147,124 226,104 255,134" style="animation-delay: 0.841s;"/>
<ellipse fill="#6c7276" fill-opacity="0.501961" cx="155" cy="97" rx="3" ry="20" style="animation-delay: 0.898s;"/>
<g transform="translate(133.004504 131.994509) rotate(310.303239) scale(20.053862 40.935934)" style="animation-delay: 0.951s;"><ellipse fill="#363328" fill-opacity="0.501961" cx="0" cy="0" rx="1" ry="1" style="animation-delay: 1.001s;"/></g>
<g transform="translate(168 91) rotate(263) scale(12 20)" style="animation-delay: 1.047s;"><rect fill="#e4eaee" fill-opacity="0.501961" x="-0.5" y="-0.5" width="1" height="1" style="animation-delay: 1.091s;"/></g>
<polygon fill="#aab9ce" fill-opacity="0.501961" points="121,100 152,64 147,110" style="animation-delay: 1.132s;"/>
<g transform="translate(6.164431 141.000000) rotate(322.248806) scale(22.970920 51.089736)" style="animation-delay: 1.170s;"><ellipse fill="#1e1c11" fill-opacity="0.501961" cx="0" cy="0" rx="1" ry="1" style="animation-delay: 1.205s;"/></g>
<rect fill="#8d9293" fill-opacity="0.501961" x="156" y="106" width="34" height="14" style="animation-delay: 1.238s;"/>
<polygon fill="#e0e8ed" fill-opacity="0.501961" points="228,95 232,69 225,77" style="animation-delay: 1.268s;"/>
<polygon fill="#969794" fill-opacity="0.501961" points="229.387998,56.180850,271.000000,92.181397,203.305000,112.482188,231.921596,92.025015" style="animation-delay: 1.296s;"/>
<rect fill="#b3b1a7" fill-opacity="0.501961" x="15" y="37" width="30" height="45" style="animation-delay: 1.321s;"/>
<polygon fill="#afbac3" fill-opacity="0.501961" points="95.383771,73.151152,76.948128,81.190602,75.627930,99.342080,83.494224,97.582657" style="animation-delay: 1.345s;"/>
<ellipse fill="#27261d" fill-opacity="0.501961" cx="55" cy="138" rx="93" ry="6" style="animation-delay: 1.366s;"/>
<rect fill="#b3b0aa" fill-opacity="0.501961" x="177" y="75" width="34" height="35" style="animation-delay: 1.385s;"/>
<g transform="translate(244.908379 0.000000) rotate(77.309345) scale(6.756780 15.926632)" style="animation-delay: 1.402s;"><ellipse fill="#424840" fill-opacity="0.501961" cx="0" cy="0" rx="1" ry="1" style="animation-delay: 1.418s;"/></g>
<rect fill="#5b513f" fill-opacity="0.501961" x="181" y="110" width="26" height="3" style="animation-delay: 1.431s;"/>
<polygon fill="#565858" fill-opacity="0.501961" points="97,118 93,90 59,123" style="animation-delay: 1.443s;"/>
<polygon fill="#9b9895" fill-opacity="0.501961" points="111.094891,65.056489,203.579121,60.840859,266.486497,93.662897,203.028022,36.581028" style="animation-delay: 1.454s;"/>
<polygon fill="#56544f" fill-opacity="0.501961" points="142.627910,108.552304,153.783600,111.392757,156.432891,132.265082,109.933843,100.081360" style="animation-delay: 1.463s;"/>
<rect fill="#898d92" fill-opacity="0.501961" x="118" y="56" width="16" height="47" style="animation-delay: 1.471s;"/>
<g transform="translate(231 86) rotate(351) scale(1 22)" style="animation-delay: 1.478s;"><rect fill="#fdffff" fill-opacity="0.501961" x="-0.5" y="-0.5" width="1" height="1" style="animation-delay: 1.483s;"/></g>
<g transform="translate(186.085267 25.015329) rotate(263.825742) scale(11.052467 36.405653)" style="animation-delay: 1.488s;"><ellipse fill="#787876" fill-opacity="0.501961" cx="0" cy="0" rx="1" ry="1" style="animation-delay: 1.491s;"/></g>
<polygon fill="#716e6a" fill-opacity="0.501961" points="166,16 95,74 94,47" style="animation-delay: 1.494s;"/>
<polygon fill="#d2cfcf" fill-opacity="0.501961" points="155.506447,65.610610,192.143918,64.385197,159.681411,76.880105,143.891976,78.676795" style="animation-delay: 1.496s;"/>
<polygon fill="#383930" fill-opacity="0.501961" points="246,118 252,157 271,117" style="animation-delay: 1.498s;"/>
<polygon fill="#7a7467" fill-opacity="0.501961" points="101,7 90,30 18,8" style="animation-delay: 1.499s;"/>
<g transform="translate(224 83) rotate(353) scale(2 22)" style="animation-delay: 1.500s;"><rect fill="#707e82" fill-opacity="0.501961" x="-0.5" y="-0.5" width="1" height="1" style="animation-delay: 1.500s;"/></g>
<ellipse fill="#f1faff" fill-opacity="0.501961" cx="84" cy="67" rx="9" ry="7" style="animation-delay: 1.500s;"/>
</g>
</svg>