<svg xmlns="http://www.w3.org/2000/svg" version="1.1" width="1024" height="512"><style>@keyframes a{ from {opacity: 0} to {opacity: 1} } g > * { opacity: 0; animation: a .5s forwards; }</style>
<rect x="0" y="0" width="1024" height="512" fill="#7e7e79"/>
<g transform="scale(4.000000) translate(0.5 0.5)">
<polygon fill="#030000" fill-opacity="0.501961" points="-1,67 -4,143 271,126" style="animation-delay: 0.000s;"/>
<polygon fill="#d3d6d6" fill-opacity="0.501961" points="178,110 -16,20 271,50" style="animation-delay: 0.047s;"/>
<polygon fill="#ede8d6" fill-opacity="0.501961" points="93,72 86,9 -16,56" style="animation-delay: 0.094s;"/>
<polygon fill="#4b4841" fill-opacity="0.501961" points="158,-16 91,143 97,-14" style="animation-delay: 0.141s;"/>
<polygon fill="#babfc1" fill-opacity="0.501961" points="130,78 271,102 188,14" style="animation-delay: 0.188s;"/>
<polygon fill="#b0ab98" fill-opacity="0.501961" points="-16,81 8,6 92,11" style="animation-delay: 0.235s;"/>
<polygon fill="#575b56" fill-opacity="0.501961" points="102,88 253,143 257,100" style="animation-delay: 0.282s;"/>
<polygon fill="#1d1b07" fill-opacity="0.501961" points="-12,143 75,120 -15,77" style="animation-delay: 0.329s;"/>
<polygon fill="#899299" fill-opacity="0.501961" points="82,106 53,82 95,63" style="animation-delay: 0.376s;"/>
<polygon fill="#919392" fill-opacity="0.501961" points="262,65 108,32 260,3" style="animation-delay: 0.423s;"/>
<polygon fill="#eff0e9" fill-opacity="0.501961" points="50,58 94,68 92,24" style="animation-delay: 0.469s;"/>
<polygon fill="#6c6a63" fill-opacity="0.501961" points="105,40 45,-14 271,-9" style="animation-delay: 0.516s;"/>
<polygon fill="#322f22" fill-opacity="0.501961" points="169,136 93,64 91,133" style="animation-delay: 0.562s;"/>
<polygon fill="#554d38" fill-opacity="0.501961" points="-14,69 58,96 72,67" style="animation-delay: 0.608s;"/>
<polygon fill="#ccd1d3" fill-opacity="0.501961" points="157,97 180,103 171,39" style="animation-delay: 0.654s;"/>
<polygon fill="#858c92" fill-opacity="0.501961" points="133,91 100,80 148,6" style="animation-delay: 0.700s;"/>
<polygon fill="#898f8d" fill-opacity="0.501961" points="271,131 208,20 253,-16" style="animation-delay: 0.746s;"/>
<polygon fill="#e6f6ff" fill-opacity="0.501961" points="210,78 218,54 223,83" style="animation-delay: 0.792s;"/>
<polygon fill="#9b9d92" fill-opacity="0.501961" points="-16,-15 -3,69 39,66" style="animation-delay: 0.837s;"/>
<polygon fill="#2c3028" fill-opacity="0.501961" points="270,105 244,103 244,143" style="animation-delay: 0.882s;"/>
<polygon fill="#c4beae" fill-opacity="0.501961" points="59,67 12,21 70,15" style="animation-delay: 0.927s;"/>
<polygon fill="#51504b" fill-opacity="0.501961" points="100,41 103,94 78,113" style="animation-delay: 0.972s;"/>
<polygon fill="#3f3d27" fill-opacity="0.501961" points="58,-5 -16,8 -13,-16" style="animation-delay: 1.016s;"/>
<polygon fill="#b9cfe7" fill-opacity="0.501961" points="149,58 151,95 137,91" style="animation-delay: 1.060s;"/>
<polygon fill="#6f7477" fill-opacity="0.501961" points="148,101 159,106 155,62" style="animation-delay: 1.104s;"/>
<polygon fill="#a8a6a0" fill-opacity="0.501961" points="212,98 209,54 165,60" style="animation-delay: 1.148s;"/>
<polygon fill="#919aa4" fill-opacity="0.501961" points="95,68 77,93 62,70" style="animation-delay: 1.191s;"/>
<polygon fill="#dde8f1" fill-opacity="0.501961" points="230,59 233,85 224,77" style="animation-delay: 1.235s;"/>
<polygon fill="#d5d4d2" fill-opacity="0.501961" points="155,55 162,88 184,43" style="animation-delay: 1.277s;"/>
<polygon fill="#e8e7e0" fill-opacity="0.501961" points="94,57 89,26 65,21" style="animation-delay: 1.320s;"/>
<polygon fill="#848581" fill-opacity="0.501961" points="164,89 158,108 229,101" style="animation-delay: 1.362s;"/>
<polygon fill="#55564f" fill-opacity="0.501961" points="66,119 93,102 36,68" style="animation-delay: 1.404s;"/>
<polygon fill="#989d9a" fill-opacity="0.501961" points="235,101 271,99 232,47" style="animation-delay: 1.445s;"/>
<polygon fill="#36342a" fill-opacity="0.501961" points="261,125 93,106 149,143" style="animation-delay: 1.486s;"/>
<polygon fill="#3d392b" fill-opacity="0.501961" points="-16,69 32,70 74,143" style="animation-delay: 1.527s;"/>
<polygon fill="#423d32" fill-opacity="0.501961" points="141,96 91,77 113,104" style="animation-delay: 1.567s;"/>
<polygon fill="#bbb8ab" fill-opacity="0.501961" points="55,67 13,66 62,14" style="animation-delay: 1.607s;"/>
<polygon fill="#686b67" fill-opacity="0.501961" points="228,92 256,120 164,109" style="animation-delay: 1.647s;"/>
<polygon fill="#80817e" fill-opacity="0.501961" points="199,29 118,25 205,5" style="animation-delay: 1.686s;"/>
<polygon fill="#807f79" fill-opacity="0.501961" points="271,60 271,23 211,45" style="animation-delay: 1.725s;"/>
<polygon fill="#c3c2c1" fill-opacity="0.501961" points="160,44 131,65 215,51" style="animation-delay: 1.763s;"/>
<polygon fill="#6a6760" fill-opacity="0.501961" points="94,35 65,-16 189,-1" style="animation-delay: 1.801s;"/>
<polygon fill="#a9b4bf" fill-opacity="0.501961" points="155,104 184,100 173,93" style="animation-delay: 1.839s;"/>
<polygon fill="#f3fbff" fill-opacity="0.501961" points="94,40 74,55 91,59" style="animation-delay: 1.876s;"/>
<polygon fill="#999797" fill-opacity="0.501961" points="127,39 122,63 189,22" style="animation-delay: 1.912s;"/>
<polygon fill="#dee3e7" fill-opacity="0.501961" points="176,83 176,68 158,79" style="animation-delay: 1.948s;"/>
<polygon fill="#8f9391" fill-opacity="0.501961" points="233,23 224,78 217,8" style="animation-delay: 1.984s;"/>
<polygon fill="#cad0cd" fill-opacity="0.501961" points="208,69 214,53 227,52" style="animation-delay: 2.019s;"/>
<polygon fill="#949489" fill-opacity="0.501961" points="4,11 -16,69 20,66" style="animation-delay: 2.054s;"/>
<polygon fill="#9ca5a4" fill-opacity="0.501961" points="260,15 248,32 224,25" style="animation-delay: 2.088s;"/>
<polygon fill="#dad4c6" fill-opacity="0.501961" points="80,64 57,66 65,19" style="animation-delay: 2.121s;"/>
<polygon fill="#9f9e99" fill-opacity="0.501961" points="164,60 211,54 202,70" style="animation-delay: 2.154s;"/>
<polygon fill="#a3b2c2" fill-opacity="0.501961" points="151,95 140,46 129,89" style="animation-delay: 2.187s;"/>
<polygon fill="#75736b" fill-opacity="0.501961" points="174,94 234,98 222,111" style="animation-delay: 2.219s;"/>
<polygon fill="#a1adba" fill-opacity="0.501961" points="80,63 92,80 72,79" style="animation-delay: 2.250s;"/>
<polygon fill="#72716c" fill-opacity="0.501961" points="100,78 113,85 113,30" style="animation-delay: 2.281s;"/>
<polygon fill="#1f1d12" fill-opacity="0.501961" points="63,127 -13,143 -2,111" style="animation-delay: 2.312s;"/>
<polygon fill="#777570" fill-opacity="0.501961" points="71,66 52,67 76,99" style="animation-delay: 2.341s;"/>
<polygon fill="#b3b3b0" fill-opacity="0.501961" points="213,96 185,41 176,91" style="animation-delay: 2.370s;"/>
<polygon fill="#838d90" fill-opacity="0.501961" points="226,73 217,94 226,92" style="animation-delay: 2.399s;"/>
<polygon fill="#26241a" fill-opacity="0.501961" points="99,118 148,123 75,135" style="animation-delay: 2.427s;"/>
<polygon fill="#9ca3a1" fill-opacity="0.501961" points="244,77 251,103 217,88" style="animation-delay: 2.454s;"/>
<polygon fill="#575142" fill-opacity="0.501961" points="3,69 68,94 41,68" style="animation-delay: 2.481s;"/>
<polygon fill="#908d7a" fill-opacity="0.501961" points="22,1 -16,17 64,7" style="animation-delay: 2.507s;"/>
<polygon fill="#696350" fill-opacity="0.501961" points="15,-1 42,-16 64,4" style="animation-delay: 2.533s;"/>
<polygon fill="#aba7a4" fill-opacity="0.501961" points="168,34 122,55 205,42" style="animation-delay: 2.558s;"/>
<polygon fill="#b5b0a0" fill-opacity="0.501961" points="40,11 5,44 79,20" style="animation-delay: 2.582s;"/>
<polygon fill="#54544e" fill-opacity="0.501961" points="182,107 156,118 177,123" style="animation-delay: 2.606s;"/>
<polygon fill="#4d4b45" fill-opacity="0.501961" points="94,73 97,43 101,55" style="animation-delay: 2.629s;"/>
<polygon fill="#d2dee8" fill-opacity="0.501961" points="221,66 215,88 210,61" style="animation-delay: 2.651s;"/>
<polygon fill="#86888b" fill-opacity="0.501961" points="158,70 150,79 153,62" style="animation-delay: 2.673s;"/>
<polygon fill="#7b7b77" fill-opacity="0.501961" points="129,17 101,62 192,4" style="animation-delay: 2.694s;"/>
<polygon fill="#8b867b" fill-opacity="0.501961" points="109,45 86,14 96,43" style="animation-delay: 2.714s;"/>
<polygon fill="#626364" fill-opacity="0.501961" points="58,99 95,77 84,105" style="animation-delay: 2.734s;"/>
<polygon fill="#c6c9c8" fill-opacity="0.501961" points="92,69 92,62 66,65" style="animation-delay: 2.753s;"/>
<polygon fill="#979694" fill-opacity="0.501961" points="198,48 222,48 208,20" style="animation-delay: 2.772s;"/>
<polygon fill="#d2dadf" fill-opacity="0.501961" points="158,96 158,69 172,70" style="animation-delay: 2.789s;"/>
<polygon fill="#e1e6ea" fill-opacity="0.501961" points="226,60 231,61 228,78" style="animation-delay: 2.806s;"/>
<polygon fill="#a8acaa" fill-opacity="0.501961" points="170,91 171,65 176,86" style="animation-delay: 2.823s;"/>
<polygon fill="#8b8e8b" fill-opacity="0.501961" points="271,100 248,40 244,102" style="animation-delay: 2.838s;"/>
<polygon fill="#848c95" fill-opacity="0.501961" points="124,46 113,85 134,91" style="animation-delay: 2.853s;"/>
<polygon fill="#807d73" fill-opacity="0.501961" points="176,92 161,91 164,96" style="animation-delay: 2.867s;"/>
<polygon fill="#444c49" fill-opacity="0.501961" points="266,115 227,115 249,125" style="animation-delay: 2.881s;"/>
<polygon fill="#a0998b" fill-opacity="0.501961" points="87,19 50,4 20,18" style="animation-delay: 2.894s;"/>
<polygon fill="#696a64" fill-opacity="0.501961" points="204,17 253,-16 195,-11" style="animation-delay: 2.906s;"/>
<polygon fill="#b8c3d0" fill-opacity="0.501961" points="141,91 151,96 150,59" style="animation-delay: 2.917s;"/>
<polygon fill="#353329" fill-opacity="0.501961" points="23,113 -16,68 92,129" style="animation-delay: 2.928s;"/>
<polygon fill="#606055" fill-opacity="0.501961" points="235,97 217,92 209,98" style="animation-delay: 2.938s;"/>
<polygon fill="#b2aa96" fill-opacity="0.501961" points="61,30 59,45 47,18" style="animation-delay: 2.947s;"/>
<polygon fill="#625e54" fill-opacity="0.501961" points="150,95 125,97 167,107" style="animation-delay: 2.955s;"/>
<polygon fill="#cac7bb" fill-opacity="0.501961" points="42,27 40,54 72,65" style="animation-delay: 2.963s;"/>
<polygon fill="#413c2e" fill-opacity="0.501961" points="264,116 235,100 268,107" style="animation-delay: 2.970s;"/>
<polygon fill="#a9a69a" fill-opacity="0.501961" points="93,31 87,20 80,20" style="animation-delay: 2.976s;"/>
<polygon fill="#a9a79c" fill-opacity="0.501961" points="25,15 26,67 1,33" style="animation-delay: 2.982s;"/>
<polygon fill="#66635c" fill-opacity="0.501961" points="86,73 90,76 95,70" style="animation-delay: 2.987s;"/>
<polygon fill="#474742" fill-opacity="0.501961" points="57,120 41,87 96,104" style="animation-delay: 2.991s;"/>
<polygon fill="#b3b4af" fill-opacity="0.501961" points="161,63 171,68 187,51" style="animation-delay: 2.994s;"/>
<polygon fill="#767c7b" fill-opacity="0.501961" points="239,112 194,103 232,99" style="animation-delay: 2.997s;"/>
<polygon fill="#433f35" fill-opacity="0.501961" points="101,100 94,76 149,105" style="animation-delay: 2.999s;"/>
<polygon fill="#91928e" fill-opacity="0.501961" points="192,61 197,66 215,52" style="animation-delay: 3.000s;"/>
</g>
</svg>