<svg xmlns="http://www.w3.org/2000/svg" version="1.1" width="1024" height="512"><style>@keyframes a{ from {opacity: 0} to {opacity: 1} } g > * { opacity: 0; animation: a .5s forwards; }</style>
<rect x="0" y="0" width="1024" height="512" fill="#687a3a"/>
<g transform="scale(4.000000) translate(0.5 0.5)">
<rect fill="#efe4ff" fill-opacity="0.501961" x="60" y="3" width="101" height="42" style="animation-delay: 0.000s;"/>
<rect fill="#0f2300" fill-opacity="0.501961" x="206" y="20" width="50" height="108" style="animation-delay: 0.188s;"/>
<rect fill="#aecb0a" fill-opacity="0.501961" x="47" y="76" width="170" height="46" style="animation-delay: 0.376s;"/>
<rect fill="#081600" fill-opacity="0.501961" x="0" y="30" width="42" height="98" style="animation-delay: 0.562s;"/>
<rect fill="#fff7ae" fill-opacity="0.501961" x="111" y="22" width="45" height="42" style="animation-delay: 0.746s;"/>
<rect fill="#4278cd" fill-opacity="0.501961" x="0" y="0" width="256" height="24" style="animation-delay: 0.927s;"/>
<rect fill="#152000" fill-opacity="0.501961" x="160" y="27" width="96" height="39" style="animation-delay: 1.104s;"/>
<rect fill="#273900" fill-opacity="0.501961" x="0" y="44" width="97" height="41" style="animation-delay: 1.277s;"/>
<rect fill="#feebde" fill-opacity="0.501961" x="91" y="15" width="56" height="25" style="animation-delay: 1.445s;"/>
<rect fill="#dec7ba" fill-opacity="0.501961" x="161" y="4" width="45" height="16" style="animation-delay: 1.607s;"/>
<rect fill="#8a9dc9" fill-opacity="0.501961" x="192" y="23" width="33" height="11" style="animation-delay: 1.763s;"/>
<rect fill="#8caa09" fill-opacity="0.501961" x="21" y="87" width="79" height="41" style="animation-delay: 1.912s;"/>
<rect fill="#aaa600" fill-opacity="0.501961" x="108" y="54" width="81" height="34" style="animation-delay: 2.054s;"/>
<rect fill="#1a0e61" fill-opacity="0.501961" x="123" y="99" width="29" height="12" style="animation-delay: 2.187s;"/>
<rect fill="#004b91" fill-opacity="0.501961" x="213" y="0" width="43" height="20" style="animation-delay: 2.312s;"/>
<rect fill="#9ea5b5" fill-opacity="0.501961" x="24" y="17" width="72" height="15" style="animation-delay: 2.427s;"/>
<rect fill="#ffb95e" fill-opacity="0.501961" x="115" y="41" width="34" height="25" style="animation-delay: 2.533s;"/>
<rect fill="#054d81" fill-opacity="0.501961" x="0" y="0" width="85" height="12" style="animation-delay: 2.629s;"/>
<rect fill="#172200" fill-opacity="0.501961" x="0" y="34" width="65" height="11" style="animation-delay: 2.714s;"/>
<rect fill="#5e7d0b" fill-opacity="0.501961" x="195" y="61" width="39" height="67" style="animation-delay: 2.789s;"/>
<rect fill="#546500" fill-opacity="0.501961" x="40" y="48" width="74" height="30" style="animation-delay: 2.853s;"/>
<rect fill="#101900" fill-opacity="0.501961" x="240" y="17" width="16" height="69" style="animation-delay: 2.906s;"/>
<rect fill="#010100" fill-opacity="0.501961" x="0" y="57" width="29" height="32" style="animation-delay: 2.947s;"/>
<rect fill="#22380a" fill-opacity="0.501961" x="165" y="22" width="24" height="46" style="animation-delay: 2.976s;"/>
<rect fill="#b2c432" fill-opacity="0.501961" x="73" y="82" width="53" height="38" style="animation-delay: 2.994s;"/>
</g>
</svg>