<svg xmlns="http://www.w3.org/2000/svg" width="1024" height="660"><style>@keyframes a{ from {opacity: 0} to {opacity: 1} } g > * { opacity: 0; animation: a .5s forwards; }</style><path fill="#9fbac6" d="M0 0h1024v660h-1024z"/><g transform="scale(4) translate(.5 .5)"><ellipse fill="#fff6ed" fill-opacity=".502" cx="177" cy="164" rx="136" ry="52" style="animation-delay: 0.000s;"/><path fill="#4289ab" fill-opacity=".502" d="M99-11l-84 125-31-112z" style="animation-delay: 0.000s;"/><ellipse fill="#5090b6" fill-opacity=".502" rx="1" ry="1" transform="matrix(113.103 47.894 -18.658 44.062 199.737 0)" style="animation-delay: 0.000s;"/><ellipse fill="#d4d7d4" fill-opacity=".502" rx="1" ry="1" transform="matrix(42.487 -54.914 18.332 14.184 96.327 90.497)" style="animation-delay: 0.001s;"/><ellipse fill="#257fa7" fill-opacity=".502" rx="1" ry="1" transform="matrix(-16.058 -11.884 70.663 -95.484 0 22.106)" style="animation-delay: 0.003s;"/><ellipse fill="#89aabb" fill-opacity=".502" rx="1" ry="1" transform="matrix(82.039 -100.025 21.656 17.762 14.538 96.794)" style="animation-delay: 0.006s;"/><path fill="#8badbf" fill-opacity=".502" d="M151 37h55v93h-55z" style="animation-delay: 0.010s;"/><ellipse fill="#2a443c" fill-opacity=".502" cx="21" cy="111" rx="201" ry="1" style="animation-delay: 0.016s;"/><path fill="#dcd6cf" fill-opacity=".502" d="M221.821 125.855l2.45-34.93 45.908 3.22-2.45 34.93z" style="animation-delay: 0.025s;"/><ellipse fill="#f1eee8" fill-opacity=".502" cx="173" cy="156" rx="69" ry="15" style="animation-delay: 0.035s;"/><ellipse fill="#607d80" fill-opacity=".502" cx="163" cy="78" rx="197" ry="2" style="animation-delay: 0.048s;"/><path fill="#0e2b21" fill-opacity=".502" d="M245 80l3 14 2-6z" style="animation-delay: 0.064s;"/><ellipse fill="#3f5c5c" fill-opacity=".502" cx="92" cy="88" rx="164" ry="1" style="animation-delay: 0.083s;"/><ellipse fill="#2e504e" fill-opacity=".502" cx="86" cy="125" rx="86" ry="1" style="animation-delay: 0.105s;"/><ellipse fill="#425c56" fill-opacity=".502" cx="71" cy="96" rx="2" ry="21" style="animation-delay: 0.132s;"/><path fill-opacity=".502" d="M187 110h3v7h-3z" style="animation-delay: 0.162s;"/><path fill="#001411" fill-opacity=".502" d="M234.076 85.032l-4.78-1.46 2.628-8.604 4.78 1.46z" style="animation-delay: 0.197s;"/><path fill="#022119" fill-opacity=".502" d="M30 97h5v7h-5z" style="animation-delay: 0.236s;"/><ellipse fill="#afc7cf" fill-opacity=".502" rx="1" ry="1" transform="matrix(-12.797 11.54 -20.351 -22.569 41.649 140.512)" style="animation-delay: 0.280s;"/><ellipse fill="#c5d4dd" fill-opacity=".502" cx="118" cy="93" rx="113" ry="4" style="animation-delay: 0.329s;"/><path fill="#5a736f" fill-opacity=".502" d="M0 99h106v2h-106z" style="animation-delay: 0.384s;"/><path fill="#4e6a6a" fill-opacity=".502" d="M176 98h27v5h-27z" style="animation-delay: 0.445s;"/><path fill="#d9ddde" fill-opacity=".502" d="M106.052 98.955l47.028 81.045-57.378-134.855 26.752 24.399z" style="animation-delay: 0.511s;"/><ellipse fill-opacity=".502" cx="204" cy="112" rx="2" ry="4" style="animation-delay: 0.584s;"/><path fill="#d8dee0" fill-opacity=".502" d="M89.635 52.265l-3.896 57.901 11.752-4.24 8.326-40.264z" style="animation-delay: 0.664s;"/><path fill="#001307" fill-opacity=".502" d="M54 117l-3-6 1-6z" style="animation-delay: 0.750s;"/><path fill="#002522" fill-opacity=".502" d="M90.319 117.631l-.63-8.982 3.992-.28.63 8.982z" style="animation-delay: 0.836s;"/><path fill="#445e5a" fill-opacity=".502" d="M142.714 106.326l-1.866-8.45-2.043-.723-3.512 4.461z" style="animation-delay: 0.916s;"/><path fill="#000b02" fill-opacity=".502" d="M118 85l3-11-3 5z" style="animation-delay: 0.989s;"/><ellipse fill="#4b6763" fill-opacity=".502" cx="255" cy="126" rx="93" ry="1" style="animation-delay: 1.055s;"/><path fill="#d4dbdc" fill-opacity=".502" d="M29.596 107.827l53.726.762-15.085-28.121 4.416 22.487z" style="animation-delay: 1.116s;"/><path fill-opacity=".502" d="M133 75h2v8h-2z" style="animation-delay: 1.171s;"/><path fill="#001f17" fill-opacity=".502" d="M163 115l4-8v7z" style="animation-delay: 1.220s;"/><ellipse fill="#b2c9d4" fill-opacity=".502" rx="1" ry="1" transform="matrix(-14.502 29.199 -14.828 -7.364 136.978 49.291)" style="animation-delay: 1.264s;"/><path fill="#031e10" fill-opacity=".502" d="M120 97h4v8h-4z" style="animation-delay: 1.303s;"/><ellipse fill="#1f3732" fill-opacity=".502" rx="1" ry="1" transform="matrix(4.136 -2.237 .959 1.772 220.537 110.138)" style="animation-delay: 1.338s;"/><path fill="#87aec5" fill-opacity=".502" d="M111 14l153 28-14 41z" style="animation-delay: 1.368s;"/><path fill="#213932" fill-opacity=".502" d="M14 100h3v17h-3z" style="animation-delay: 1.395s;"/><path fill="#c0d1d8" fill-opacity=".502" d="M173.103 101.958l23.979 5.025-54.386 5.91-2.126-11.102z" style="animation-delay: 1.417s;"/><path fill="#cfd9dd" fill-opacity=".502" d="M71.156 115.949l86.546-2.998-69.338 11.968-81.336-4.495z" style="animation-delay: 1.436s;"/><ellipse fill="#6b9eba" fill-opacity=".502" rx="1" ry="1" transform="matrix(-166.523 -10.178 .884 -14.466 199.51 8.293)" style="animation-delay: 1.452s;"/><path fill="#a8c2cd" fill-opacity=".502" d="M14 62h69v17h-69z" style="animation-delay: 1.465s;"/><path fill="#c8d6da" fill-opacity=".502" d="M135.294 132.025l46.846 23.954 10.891-55.086 16.939 23.335z" style="animation-delay: 1.475s;"/><path fill="#000100" fill-opacity=".502" d="M25.352 116.356l-.988.156-1.716-10.868.988-.156z" style="animation-delay: 1.484s;"/><ellipse fill="#1f3021" fill-opacity=".502" rx="1" ry="1" transform="matrix(-.306 -2.145 2.044 -.291 134.731 109.512)" style="animation-delay: 1.490s;"/><path fill="#465e56" fill-opacity=".502" d="M54 77h3v28h-3z" style="animation-delay: 1.494s;"/><ellipse fill-opacity=".502" cx="110" cy="112" rx="2" ry="4" style="animation-delay: 1.497s;"/><path fill="#33493e" fill-opacity=".502" d="M247 112l-6-5-2 4z" style="animation-delay: 1.499s;"/><path fill="#001711" fill-opacity=".502" d="M43 98h4v6h-4z" style="animation-delay: 1.500s;"/><path fill-opacity=".502" d="M185 77h2v6h-2z" style="animation-delay: 1.500s;"/></g></svg>