<svg xmlns="http://www.w3.org/2000/svg" width="1024" height="660"><style>@keyframes a{ from {opacity: 0} to {opacity: 1} } g > * { opacity: 0; animation: a .5s forwards; }</style><path fill="#9fbac6" d="M0 0h1024v660h-1024z"/><g transform="scale(4) translate(.5 .5)"><ellipse fill="#fff6ed" fill-opacity=".502" rx="1" ry="1" transform="matrix(-119.463 17.256 -6.014 -41.636 150.823 158.025)" style="animation-delay: 0.000s;"/><ellipse fill="#3082aa" fill-opacity=".502" rx="1" ry="1" transform="matrix(-83.078 65.7 -37.413 -47.309 11.593 0)" style="animation-delay: 0.000s;"/><ellipse fill="#5291b7" fill-opacity=".502" rx="1" ry="1" transform="matrix(-128.901 -53.627 19.255 -46.281 204.082 0)" style="animation-delay: 0.000s;"/><ellipse fill="#d0d5d3" fill-opacity=".502" rx="1" ry="1" transform="matrix(-40.209 58.609 -21.815 -14.966 97.999 86.655)" style="animation-delay: 0.000s;"/><ellipse fill="#7da5b8" fill-opacity=".502" rx="1" ry="1" transform="matrix(-82.969 109.799 -23.283 -17.594 16.787 91.193)" style="animation-delay: 0.001s;"/><ellipse fill="#92afbc" fill-opacity=".502" cx="174" cy="100" rx="37" ry="37" style="animation-delay: 0.002s;"/><ellipse fill="#2a82a7" fill-opacity=".502" rx="1" ry="1" transform="matrix(13.95 8.719 -50.047 80.076 16.98 0)" style="animation-delay: 0.003s;"/><ellipse fill="#e8e9e5" fill-opacity=".502" cx="174" cy="164" rx="70" ry="38" style="animation-delay: 0.005s;"/><path fill="#e1dad4" fill-opacity=".502" d="M224 89l47 6-42 72z" style="animation-delay: 0.008s;"/><ellipse fill="#5e7b7f" fill-opacity=".502" cx="192" cy="78" rx="245" ry="2" style="animation-delay: 0.011s;"/><ellipse fill="#596e69" fill-opacity=".502" rx="1" ry="1" transform="matrix(-.011 1 -84.478 -.929 55.475 111.377)" style="animation-delay: 0.015s;"/><path fill="#bfd0d4" fill-opacity=".502" d="M22 131l22 49 128-80z" style="animation-delay: 0.021s;"/><ellipse fill="#89aec4" fill-opacity=".502" rx="1" ry="1" transform="matrix(135.166 58.813 -6.956 15.987 214.161 58.39)" style="animation-delay: 0.027s;"/><ellipse fill="#718888" fill-opacity=".502" cx="246" cy="99" rx="249" ry="2" style="animation-delay: 0.034s;"/><ellipse fill="#30504e" fill-opacity=".502" cx="47" cy="125" rx="121" ry="1" style="animation-delay: 0.042s;"/><path fill-opacity=".502" d="M186 109h4v7h-4z" style="animation-delay: 0.052s;"/><path fill="#08251f" fill-opacity=".502" d="M236.678 79.145l-6.062 4.758 1.119-10.535 3.368 2.727z" style="animation-delay: 0.063s;"/><ellipse fill="#64736d" fill-opacity=".502" cx="232" cy="111" rx="34" ry="2" style="animation-delay: 0.076s;"/><path fill="#344941" fill-opacity=".502" d="M140 105l-9 10 10-20z" style="animation-delay: 0.090s;"/><path fill="#d6dbdb" fill-opacity=".502" d="M87 60h31v49h-31z" style="animation-delay: 0.106s;"/><ellipse fill="#3b595a" fill-opacity=".502" cx="108" cy="88" rx="153" ry="1" style="animation-delay: 0.123s;"/><ellipse fill="#446361" fill-opacity=".502" cx="205" cy="126" rx="45" ry="1" style="animation-delay: 0.143s;"/><path fill-opacity=".502" d="M250.131 95.088l-1.932.518-2.331-8.694 1.932-.518zM85.604 84.486l-2.178-8.73.97-.242 2.178 8.73z" style="animation-delay: 0.164s;"/><path fill="#133028" fill-opacity=".502" d="M51.465 104.805l-1.192 10.809 2.753.613-.04-4.777z" style="animation-delay: 0.188s;"/><ellipse fill="#405c5a" fill-opacity=".502" cx="112" cy="111" rx="109" ry="1" style="animation-delay: 0.213s;"/><path fill="#001b13" fill-opacity=".502" d="M72.716 96.131l-2.44 19.86-.993-.122 2.44-19.86z" style="animation-delay: 0.241s;"/><ellipse fill="#000e08" fill-opacity=".502" cx="204" cy="114" rx="2" ry="4" style="animation-delay: 0.271s;"/><path fill="#d6dddf" fill-opacity=".502" d="M156.179 110.311l-90.927 10.261 70.632 5.46 12.364-36.404z" style="animation-delay: 0.304s;"/><path fill="#12312d" fill-opacity=".502" d="M14 101h3v13h-3z" style="animation-delay: 0.339s;"/><path fill="#cad3d7" fill-opacity=".502" d="M255 111l-54-13 69-5z" style="animation-delay: 0.376s;"/><path fill="#d1d9d9" fill-opacity=".502" d="M61.955 109.848l-15.496-34.671 26.438 34.562 17.515-20.925z" style="animation-delay: 0.416s;"/><path fill="#ccd7dc" fill-opacity=".502" d="M124 61l-1 50 16-6z" style="animation-delay: 0.459s;"/><path fill-opacity=".502" d="M122.586 102.445l-2.997.105-.175-4.995 2.997-.105zM109.222 117.701l2.59-9.66.966.259-2.59 9.66z" style="animation-delay: 0.505s;"/><path fill="#001e1b" fill-opacity=".502" d="M188 81l-2-6-2 9z" style="animation-delay: 0.554s;"/><path fill="#001109" fill-opacity=".502" d="M136 80l-3-7v12z" style="animation-delay: 0.606s;"/><ellipse fill="#000c04" fill-opacity=".502" cx="165" cy="111" rx="2" ry="4" style="animation-delay: 0.661s;"/><ellipse fill="#659ab6" fill-opacity=".502" rx="1" ry="1" transform="matrix(4.166 -20.516 103.829 21.084 199.287 0)" style="animation-delay: 0.720s;"/><ellipse fill="#000f03" fill-opacity=".502" cx="24" cy="111" rx="2" ry="4" style="animation-delay: 0.780s;"/><path fill="#a3bfca" fill-opacity=".502" d="M40 172l27-26-83-51z" style="animation-delay: 0.839s;"/><ellipse fill="#142316" fill-opacity=".502" cx="220" cy="111" rx="3" ry="3" style="animation-delay: 0.894s;"/><path fill="#e3e1de" fill-opacity=".502" d="M234 104l-30 19 41 2z" style="animation-delay: 0.946s;"/><ellipse fill="#1b3931" fill-opacity=".502" cx="70" cy="80" rx="3" ry="3" style="animation-delay: 0.995s;"/><path fill="#001512" fill-opacity=".502" d="M153.431 76.107l-.87 9.96-1.992-.174.87-9.96z" style="animation-delay: 1.041s;"/><ellipse fill="#cbd5d7" fill-opacity=".502" rx="1" ry="1" transform="matrix(5.324 1.036 -4.337 22.3 63.18 96.466)" style="animation-delay: 1.084s;"/><path fill="#455c59" fill-opacity=".502" d="M102 93l2 5-7 5z" style="animation-delay: 1.124s;"/><path fill="#002017" fill-opacity=".502" d="M36 84l1-8 4 1z" style="animation-delay: 1.161s;"/><path fill="#adc6d2" fill-opacity=".502" d="M127.953 78.061l-12.826-51.41 34.92-8.712 12.826 51.41z" style="animation-delay: 1.196s;"/><path fill="#a8c4d2" fill-opacity=".502" d="M177.807 68.086l-42.607 24.596 35.705 36.753-12.213-31.184z" style="animation-delay: 1.229s;"/><path fill="#102f28" fill-opacity=".502" d="M30.021 103.951l-.973-6.93 6.93-.973.973 6.93z" style="animation-delay: 1.259s;"/><ellipse fill="#032925" fill-opacity=".502" cx="91" cy="111" rx="3" ry="3" style="animation-delay: 1.287s;"/><ellipse fill="#e2e6e6" fill-opacity=".502" cx="81" cy="113" rx="9" ry="9" style="animation-delay: 1.312s;"/><path fill="#4e6f75" fill-opacity=".502" d="M177 98h25v5h-25z" style="animation-delay: 1.336s;"/><path fill="#b7cdd8" fill-opacity=".502" d="M199.766 116.138l-15.071-29.304-19.684 76.021 28.521-79.674z" style="animation-delay: 1.357s;"/><path fill-opacity=".502" d="M119.882 77.005l-2.849 6.398-.914-.407 2.849-6.398z" style="animation-delay: 1.377s;"/><path fill="#a7c2d1" fill-opacity=".502" d="M38 87l5-22 38-9z" style="animation-delay: 1.394s;"/><ellipse fill="#84adc3" fill-opacity=".502" rx="1" ry="1" transform="matrix(7.407 9.256 -80.593 64.495 50.999 42.948)" style="animation-delay: 1.410s;"/><path fill="#c6d1d5" fill-opacity=".502" d="M202.244 123.085l7.979-19.409-.399-4.279 10.646 17.883z" style="animation-delay: 1.424s;"/><ellipse fill="#bbced5" fill-opacity=".502" rx="1" ry="1" transform="matrix(-1.435 -9.089 27.094 -4.278 180.838 136.796)" style="animation-delay: 1.437s;"/><path fill-opacity=".502" d="M55.241 96.969l.97.242-1.452 5.82-.97-.242z" style="animation-delay: 1.448s;"/><ellipse fill="#c4d3da" fill-opacity=".502" cy="106" rx="242" ry="2" style="animation-delay: 1.458s;"/><path fill="#0d291e" fill-opacity=".502" d="M240 109h4v3h-4z" style="animation-delay: 1.466s;"/><path fill-opacity=".502" d="M54 76h2v9h-2z" style="animation-delay: 1.473s;"/><path fill="#5b7778" fill-opacity=".502" d="M39.741 104.945l-8.637 6.61 4.927 5.606 7.245-24.128z" style="animation-delay: 1.479s;"/><path fill="#091f11" fill-opacity=".502" d="M200 75h4v5h-4z" style="animation-delay: 1.485s;"/><path fill="#d2d9dd" fill-opacity=".502" d="M82.9 109.906l27.419-8.403-10.786 33.684 2.188-70.103z" style="animation-delay: 1.489s;"/><path fill="#ccd7da" fill-opacity=".502" d="M21 117h193v8h-193z" style="animation-delay: 1.492s;"/><path fill="#173e3e" fill-opacity=".502" d="M13 98l2 2 6-4z" style="animation-delay: 1.495s;"/><path fill="#03281d" fill-opacity=".502" d="M83 98h3v6h-3z" style="animation-delay: 1.497s;"/><ellipse fill="#011c0b" fill-opacity=".502" rx="1" ry="1" transform="matrix(-1.55 2.707 -.868 -.497 105.208 77.919)" style="animation-delay: 1.498s;"/><path fill-opacity=".502" d="M43 99h3v4h-3z" style="animation-delay: 1.499s;"/><ellipse fill="#8db4cd" fill-opacity=".502" cx="193" cy="65" rx="52" ry="11" style="animation-delay: 1.500s;"/><path fill="#889a96" fill-opacity=".502" d="M202 126h54v2h-54z" style="animation-delay: 1.500s;"/><ellipse fill="#769197" fill-opacity=".502" cx="140" cy="89" rx="54" ry="1" style="animation-delay: 1.500s;"/></g></svg>