<svg xmlns="http://www.w3.org/2000/svg" version="1.1" width="1024" height="512"><style>@keyframes a{ from {opacity: 0} to {opacity: 1} } g > * { opacity: 0; animation: a .5s forwards; }</style>
<rect x="0" y="0" width="1024" height="512" fill="#aac0c9"/>
<g transform="scale(4.000000) translate(0.5 0.5)">
<polygon fill="#faf4eb" fill-opacity="0.501961" points="270,69 249,143 24,115" style="animation-delay: 0.000s;"/>
<polygon fill="#6497ad" fill-opacity="0.501961" points="85,4 0,-16 1,129" style="animation-delay: 0.047s;"/>
<polygon fill="#71a0b9" fill-opacity="0.501961" points="271,2 192,92 146,-16" style="animation-delay: 0.094s;"/>
<polygon fill="#d5dad8" fill-opacity="0.501961" points="114,-13 42,143 149,143" style="animation-delay: 0.141s;"/>
<polygon fill="#91acb8" fill-opacity="0.501961" points="145,25 256,50 103,80" style="animation-delay: 0.188s;"/>
<polygon fill="#3f8bb0" fill-opacity="0.501961" points="-16,6 10,28 38,-14" style="animation-delay: 0.235s;"/>
<polygon fill="#a2c1cc" fill-opacity="0.501961" points="18,75 76,116 -16,143" style="animation-delay: 0.282s;"/>
<polygon fill="#bec4c3" fill-opacity="0.501961" points="243,42 151,96 257,90" style="animation-delay: 0.329s;"/>
<polygon fill="#001208" fill-opacity="0.501961" points="235,37 232,48 229,42" style="animation-delay: 0.376s;"/>
<polygon fill="#000000" fill-opacity="0.501961" points="53,78 49,73 53,71" style="animation-delay: 0.423s;"/>
<polygon fill="#000000" fill-opacity="0.501961" points="95,73 90,77 90,72" style="animation-delay: 0.469s;"/>
<polygon fill="#f3efe8" fill-opacity="0.501961" points="231,143 96,126 238,100" style="animation-delay: 0.516s;"/>
<polygon fill="#000300" fill-opacity="0.501961" points="166,70 164,75 168,81" style="animation-delay: 0.562s;"/>
<polygon fill="#00180f" fill-opacity="0.501961" points="249,45 249,56 245,50" style="animation-delay: 0.608s;"/>
<polygon fill="#425d61" fill-opacity="0.501961" points="200,75 219,69 225,75" style="animation-delay: 0.654s;"/>
<polygon fill="#dee2e0" fill-opacity="0.501961" points="158,76 113,75 109,143" style="animation-delay: 0.700s;"/>
<polygon fill="#000000" fill-opacity="0.501961" points="189,72 189,81 185,73" style="animation-delay: 0.746s;"/>
<polygon fill="#22372f" fill-opacity="0.501961" points="17,60 13,79 18,77" style="animation-delay: 0.792s;"/>
<polygon fill="#102e26" fill-opacity="0.501961" points="117,38 118,46 122,38" style="animation-delay: 0.837s;"/>
<polygon fill="#3c5047" fill-opacity="0.501961" points="140,59 131,77 139,69" style="animation-delay: 0.882s;"/>
<polygon fill="#000400" fill-opacity="0.501961" points="136,44 132,40 132,46" style="animation-delay: 0.927s;"/>
<polygon fill="#082419" fill-opacity="0.501961" points="88,41 86,46 83,39" style="animation-delay: 0.972s;"/>
<polygon fill="#000700" fill-opacity="0.501961" points="108,72 113,73 111,78" style="animation-delay: 1.016s;"/>
<polygon fill="#32473b" fill-opacity="0.501961" points="71,58 68,80 73,72" style="animation-delay: 1.060s;"/>
<polygon fill="#000000" fill-opacity="0.501961" points="30,62 31,65 35,60" style="animation-delay: 1.104s;"/>
<polygon fill="#394f46" fill-opacity="0.501961" points="57,66 42,62 56,61" style="animation-delay: 1.148s;"/>
<polygon fill="#000c01" fill-opacity="0.501961" points="122,67 119,59 123,62" style="animation-delay: 1.191s;"/>
<polygon fill="#000500" fill-opacity="0.501961" points="34,71 34,81 37,74" style="animation-delay: 1.235s;"/>
<polygon fill="#bfd0d6" fill-opacity="0.501961" points="170,-16 132,39 33,39" style="animation-delay: 1.277s;"/>
<polygon fill="#000000" fill-opacity="0.501961" points="101,57 104,62 101,63" style="animation-delay: 1.320s;"/>
<polygon fill="#0e3738" fill-opacity="0.501961" points="152,37 156,40 151,47" style="animation-delay: 1.362s;"/>
<polygon fill="#0e2a22" fill-opacity="0.501961" points="197,61 199,69 201,60" style="animation-delay: 1.404s;"/>
<polygon fill="#294036" fill-opacity="0.501961" points="74,41 70,51 70,39" style="animation-delay: 1.445s;"/>
<polygon fill="#a9c1cf" fill-opacity="0.501961" points="211,77 191,44 254,43" style="animation-delay: 1.486s;"/>
<polygon fill="#e9eae5" fill-opacity="0.501961" points="62,60 54,71 77,71" style="animation-delay: 1.527s;"/>
<polygon fill="#072825" fill-opacity="0.501961" points="188,48 189,39 184,40" style="animation-delay: 1.567s;"/>
<polygon fill="#122a21" fill-opacity="0.501961" points="36,41 37,47 42,38" style="animation-delay: 1.607s;"/>
<polygon fill="#b3c5ce" fill-opacity="0.501961" points="39,50 55,72 44,22" style="animation-delay: 1.647s;"/>
<polygon fill="#b4cbd3" fill-opacity="0.501961" points="131,62 204,100 163,104" style="animation-delay: 1.686s;"/>
<polygon fill="#001000" fill-opacity="0.501961" points="27,79 23,77 24,72" style="animation-delay: 1.725s;"/>
<polygon fill="#c2d2d5" fill-opacity="0.501961" points="89,143 16,77 123,83" style="animation-delay: 1.763s;"/>
<polygon fill="#d5d9d6" fill-opacity="0.501961" points="89,59 55,59 80,39" style="animation-delay: 1.801s;"/>
<polygon fill="#000f05" fill-opacity="0.501961" points="242,75 245,71 238,75" style="animation-delay: 1.839s;"/>
<polygon fill="#062620" fill-opacity="0.501961" points="205,79 205,72 200,74" style="animation-delay: 1.876s;"/>
<polygon fill="#cad5d7" fill-opacity="0.501961" points="191,82 222,114 190,51" style="animation-delay: 1.912s;"/>
<polygon fill="#1e3429" fill-opacity="0.501961" points="105,39 100,41 105,42" style="animation-delay: 1.948s;"/>
<polygon fill="#75a5c0" fill-opacity="0.501961" points="271,-14 120,-16 271,37" style="animation-delay: 1.984s;"/>
<polygon fill="#d2d8d8" fill-opacity="0.501961" points="116,77 92,33 121,55" style="animation-delay: 2.019s;"/>
<polygon fill="#334c45" fill-opacity="0.501961" points="86,58 84,68 82,63" style="animation-delay: 2.054s;"/>
<polygon fill="#577172" fill-opacity="0.501961" points="177,60 178,67 201,62" style="animation-delay: 2.088s;"/>
<polygon fill="#273c34" fill-opacity="0.501961" points="57,44 54,35 54,48" style="animation-delay: 2.121s;"/>
<polygon fill="#97bcd0" fill-opacity="0.501961" points="247,37 153,1 132,39" style="animation-delay: 2.154s;"/>
<polygon fill="#000000" fill-opacity="0.501961" points="199,38 203,40 202,42" style="animation-delay: 2.187s;"/>
<polygon fill="#baced5" fill-opacity="0.501961" points="164,87 187,56 182,113" style="animation-delay: 2.219s;"/>
<polygon fill="#95b8c9" fill-opacity="0.501961" points="71,39 6,39 97,-4" style="animation-delay: 2.250s;"/>
<polygon fill="#dbdad6" fill-opacity="0.501961" points="220,74 271,46 271,69" style="animation-delay: 2.281s;"/>
<polygon fill="#abbfc8" fill-opacity="0.501961" points="29,66 44,39 9,73" style="animation-delay: 2.312s;"/>
<polygon fill="#9ab9c6" fill-opacity="0.501961" points="58,112 0,143 -16,57" style="animation-delay: 2.341s;"/>
<polygon fill="#e6e7e3" fill-opacity="0.501961" points="222,76 258,88 185,87" style="animation-delay: 2.370s;"/>
<polygon fill="#2d443b" fill-opacity="0.501961" points="178,42 173,42 172,35" style="animation-delay: 2.399s;"/>
<polygon fill="#c6d1d4" fill-opacity="0.501961" points="119,9 127,96 137,57" style="animation-delay: 2.427s;"/>
<polygon fill="#000e07" fill-opacity="0.501961" points="235,40 234,47 231,39" style="animation-delay: 2.454s;"/>
<polygon fill="#b9d1db" fill-opacity="0.501961" points="145,72 139,55 177,70" style="animation-delay: 2.481s;"/>
<polygon fill="#000c04" fill-opacity="0.501961" points="217,71 223,77 221,71" style="animation-delay: 2.507s;"/>
<polygon fill="#3c4f46" fill-opacity="0.501961" points="161,65 162,58 158,62" style="animation-delay: 2.533s;"/>
<polygon fill="#cdd6d5" fill-opacity="0.501961" points="92,28 119,19 77,69" style="animation-delay: 2.558s;"/>
<polygon fill="#74a5be" fill-opacity="0.501961" points="73,15 -16,38 46,-16" style="animation-delay: 2.582s;"/>
<polygon fill="#a1bfcf" fill-opacity="0.501961" points="153,35 165,63 206,54" style="animation-delay: 2.606s;"/>
<polygon fill="#9eb0b4" fill-opacity="0.501961" points="64,88 18,75 9,90" style="animation-delay: 2.629s;"/>
<polygon fill="#9bbbce" fill-opacity="0.501961" points="202,35 188,23 188,50" style="animation-delay: 2.651s;"/>
<polygon fill="#a6babf" fill-opacity="0.501961" points="178,98 142,88 211,87" style="animation-delay: 2.673s;"/>
<polygon fill="#445750" fill-opacity="0.501961" points="134,77 141,67 140,59" style="animation-delay: 2.694s;"/>
<polygon fill="#d9e0df" fill-opacity="0.501961" points="98,143 111,89 264,92" style="animation-delay: 2.714s;"/>
<polygon fill="#07241e" fill-opacity="0.501961" points="44,59 45,65 49,68" style="animation-delay: 2.734s;"/>
<polygon fill="#dbe0e1" fill-opacity="0.501961" points="129,72 109,62 76,70" style="animation-delay: 2.753s;"/>
<polygon fill="#bacad0" fill-opacity="0.501961" points="143,77 121,50 122,23" style="animation-delay: 2.772s;"/>
<polygon fill="#07251b" fill-opacity="0.501961" points="73,67 70,63 72,59" style="animation-delay: 2.789s;"/>
<polygon fill="#ccd8da" fill-opacity="0.501961" points="62,135 114,143 77,52" style="animation-delay: 2.806s;"/>
<polygon fill="#beced3" fill-opacity="0.501961" points="58,71 29,71 42,65" style="animation-delay: 2.823s;"/>
<polygon fill="#b0bcc0" fill-opacity="0.501961" points="139,87 64,87 100,98" style="animation-delay: 2.838s;"/>
<polygon fill="#d3e0e3" fill-opacity="0.501961" points="73,106 73,89 133,89" style="animation-delay: 2.853s;"/>
<polygon fill="#00271f" fill-opacity="0.501961" points="133,38 135,47 136,40" style="animation-delay: 2.867s;"/>
<polygon fill="#304c46" fill-opacity="0.501961" points="56,57 56,65 53,67" style="animation-delay: 2.881s;"/>
<polygon fill="#c4cfd0" fill-opacity="0.501961" points="54,70 68,38 71,111" style="animation-delay: 2.894s;"/>
<polygon fill="#b1c8cf" fill-opacity="0.501961" points="157,-6 76,3 137,40" style="animation-delay: 2.906s;"/>
<polygon fill="#0b302b" fill-opacity="0.501961" points="93,79 92,73 89,78" style="animation-delay: 2.917s;"/>
<polygon fill="#a8bfca" fill-opacity="0.501961" points="106,50 155,47 161,65" style="animation-delay: 2.928s;"/>
<polygon fill="#cad8dc" fill-opacity="0.501961" points="60,53 43,59 78,59" style="animation-delay: 2.938s;"/>
<polygon fill="#bbcccc" fill-opacity="0.501961" points="243,138 271,118 254,43" style="animation-delay: 2.947s;"/>
<polygon fill="#526159" fill-opacity="0.501961" points="28,43 23,37 30,40" style="animation-delay: 2.955s;"/>
<polygon fill="#163031" fill-opacity="0.501961" points="22,80 25,80 23,71" style="animation-delay: 2.963s;"/>
<polygon fill="#000a03" fill-opacity="0.501961" points="247,48 249,49 248,52" style="animation-delay: 2.970s;"/>
<polygon fill="#9bb4c1" fill-opacity="0.501961" points="234,52 236,18 262,41" style="animation-delay: 2.976s;"/>
<polygon fill="#b0c4c9" fill-opacity="0.501961" points="38,103 18,97 17,67" style="animation-delay: 2.982s;"/>
<polygon fill="#a6b3b5" fill-opacity="0.501961" points="55,52 88,52 58,43" style="animation-delay: 2.987s;"/>
<polygon fill="#042f2a" fill-opacity="0.501961" points="168,77 167,71 164,73" style="animation-delay: 2.991s;"/>
<polygon fill="#b8c8cf" fill-opacity="0.501961" points="208,75 207,53 254,58" style="animation-delay: 2.994s;"/>
<polygon fill="#728c97" fill-opacity="0.501961" points="201,52 213,48 227,52" style="animation-delay: 2.997s;"/>
<polygon fill="#263c33" fill-opacity="0.501961" points="74,73 71,79 70,73" style="animation-delay: 2.999s;"/>
<polygon fill="#d2dcde" fill-opacity="0.501961" points="107,79 67,85 73,75" style="animation-delay: 3.000s;"/>
</g>
</svg>