<svg xmlns="http://www.w3.org/2000/svg" viewBox="0 0 400 200"><style>@keyframes a{ from {opacity: 0} to {opacity: 1} } g > * { opacity: 0; animation: a .5s forwards; }</style><path fill="#514946" d="M0 0h400v200H0z"/><g stroke-opacity=".5" fill="none" stroke-width=".8"><path stroke="#fbffff" d="M218 77.5q12.5 106 105.6 42" style="animation-delay: 0.000s;"/><path stroke="#f4ffff" d="M214 82.3q23.3 105.2 105 43.6" style="animation-delay: 0.188s;"/><path stroke="#cfd9d8" d="M338.3 224.2Q321.8 211.5 0 136.6" style="animation-delay: 0.376s;"/><path stroke="#f4ffff" d="M316 125.8q-51.2-62-111.3 27.7" style="animation-delay: 0.562s;"/><path stroke="#faffff" d="M220 73.7q-8.1 104.8 84.2 66.9" style="animation-delay: 0.746s;"/><path stroke="azure" d="M317.8 129q-68.6 39.7-106.3-62" style="animation-delay: 0.927s;"/><path stroke="#ecffff" d="M316.1 120.8q-81.3 58-100.2-52" style="animation-delay: 1.104s;"/><path stroke="#ddfdff" d="M174 38.2q72.2 100 106.2 119.7" style="animation-delay: 1.277s;"/><path stroke="#eaffff" d="M317.2 130.2q-59-66-109 16" style="animation-delay: 1.445s;"/><path stroke="#f2fcff" d="M313.3 128.9q-51.5-54-108.4 26.2" style="animation-delay: 1.607s;"/><path stroke="#f6ffff" d="M284.9 208.3Q143.2 174.7 72 151" style="animation-delay: 1.763s;"/><path stroke="#effbff" d="M252.6 175.8q-60.6-75.5 32.5-93" style="animation-delay: 1.912s;"/><path stroke="#f5ffff" d="M281.1 154.2q-11.6 3.4-74-87.6" style="animation-delay: 2.054s;"/><path stroke="#e6ffff" d="M322.4 127.3q-62.5 45-118.9-49" style="animation-delay: 2.187s;"/><path stroke="#deffff" d="M311.2 115.8q-72.6 68.3-100.2-3.1" style="animation-delay: 2.312s;"/><path stroke="#e3f1f7" d="M118.2 161.2q113.2 39.3 170.5 40.8" style="animation-delay: 2.427s;"/><path stroke="#fff" d="M198.4 146.4q43.6 2.2 84-65.2" style="animation-delay: 2.533s;"/><path stroke="#fbffff" d="M209.8 129.3q69.9 29.2 70.4-55.6" style="animation-delay: 2.629s;"/><path stroke="#ddeaf7" d="M321.2 127q-57-68-120.4 22" style="animation-delay: 2.714s;"/><path stroke="#d9f9ff" d="M204.5 77q61 80 118.6 40.7" style="animation-delay: 2.789s;"/><path stroke="#f4ffff" d="M269.8 167.7q10.2-47.9-65.2-85.5" style="animation-delay: 2.853s;"/><path stroke="#ecf3fc" d="M244.4 166.8q-51.6-67.3 32.1-96.4" style="animation-delay: 2.906s;"/><path stroke="#e0ffff" d="M307.7 131.7q-76.8 49-92.8-61" style="animation-delay: 2.947s;"/><path stroke="#d4cbc3" d="M258.9 64q1.7 160.2-122.2 129.2" style="animation-delay: 2.976s;"/><path stroke="#f9ffff" d="M278.3 72.7q4 64-79.2 53.5" style="animation-delay: 2.994s;"/></g></svg>