<svg xmlns="http://www.w3.org/2000/svg" viewBox="0 0 400 200"><style>@keyframes a{ from {opacity: 0} to {opacity: 1} } g > * { opacity: 0; animation: a .5s forwards; }</style><path fill="#514946" d="M0 0h400v200H0z"/><path fill="#d2e3ef" fill-opacity=".5" d="M261.8 59.3l58.6 65-65 58.6-58.6-65z"/><path fill="#cfb596" fill-opacity=".5" d="M269.9 243.8L89.7 192.2l10.7-37.6 180.3 51.7z"/><path fill="#0c0d15" fill-opacity=".5" d="M65.3 35.2l92.1-3.2 3.9 109.3-92.2 3.2z"/><path fill="#c9c7c7" fill-opacity=".5" d="M202.8 69.9l41.5-7.3 13.9 78.4-41.6 7.4z"/><path fill="#181e1a" fill-opacity=".5" d="M238.7-51.8l259.2 64.6-25.7 103.1L213 51.3z"/><path fill="#bab5a8" fill-opacity=".5" d="M61.9 90.4l13.3 10.8-51.1 63.1-13.4-10.8z"/><path fill="#330d05" fill-opacity=".5" d="M361.7 103.8l16.6 24.7L261.7 207l-16.6-24.6z"/><path fill="#0e0203" fill-opacity=".5" d="M-12.6 150l112 34.2-19.6 64.3-112-34.3z"/><path fill="#aebbc0" fill-opacity=".5" d="M-14.5 128.4l-7.5-10 72.4-54.6 7.5 10z"/><path fill="#9c432b" fill-opacity=".5" d="M220 99.8l-17.3 74.6-30.4-7 17.2-74.6z"/><path fill="#151f2a" fill-opacity=".5" d="M41.6-15.4l32.3 76.2L.6 92l-32.4-76.3z"/><path fill="#b7ad9d" fill-opacity=".5" d="M85.7 30L67.8-6.5l45-22 17.8 36.6z"/><path fill-opacity=".5" d="M377.6 230.1l24.7-140 18.5 3.2-24.7 140z"/><path fill="#9db3ba" fill-opacity=".5" d="M230.2 5l-48.9 64.8-10-7.5 49-65z"/><path fill="#804e3e" fill-opacity=".5" d="M274.1 76l-5.4 27.6-47.5-9.3 5.4-27.6z"/><path fill="#d5d8d2" fill-opacity=".5" d="M81.4 162.7l-5.2-3.4 31.5-48.5 5.2 3.4z"/><path fill="#07090e" fill-opacity=".5" d="M105.2 116.5l-20.7-11 80.7-151.7 20.6 11z"/><path fill="#7d543f" fill-opacity=".5" d="M336.4 196.2l-10 21.2-133-62 9.8-21.3z"/><path fill="#bfdee9" fill-opacity=".5" d="M238.4 158.8l-33-28.7L235 95.9l33 28.7z"/><path fill="#2f0900" fill-opacity=".5" d="M337.9 158.1l39.5 9.1-16.8 73.1-39.6-9.1z"/><path fill="#65717c" fill-opacity=".5" d="M330.6 36.5l-112-21.7L221 2.5l112 21.8z"/><path fill="#010400" fill-opacity=".5" d="M221.7 74.8l-19.2-10.6 24.3-43.7L245.9 31z"/><path fill-opacity=".5" d="M31 120.7l-10.5-11.6 31.4-28.2 10.4 11.6z"/><path fill="#38110c" fill-opacity=".5" d="M219.2 111L197 122.2l-17.7-34.8L201.5 76z"/><path fill="#b1c4d0" fill-opacity=".5" d="M209.5 192.6l3.2-18.4 20 3.5-3.2 18.5z"/></svg>