<svg xmlns="http://www.w3.org/2000/svg" viewBox="0 0 400 200"><style>@keyframes a{ from {opacity: 0} to {opacity: 1} } g > * { opacity: 0; animation: a .5s forwards; }</style><path fill="#514946" d="M0 0h400v200H0z"/><g fill-opacity=".5"><path fill="#d5e8f6" d="M236.7 182l-36-115.6L329 118z" style="animation-delay: 0.000s;"/><path fill="#cdb394" d="M54 143l220.2 57.8-146.9 14z" style="animation-delay: 0.188s;"/><path fill="#07030b" d="M63.3 57l96.9 114L157-11.6z" style="animation-delay: 0.376s;"/><path fill="#262420" d="M402.3 205.5L191.4-24.2h211z" style="animation-delay: 0.562s;"/><path fill="#ccb6ae" d="M174.2 179l75-122L307 79z" style="animation-delay: 0.746s;"/><path fill="#170d0b" d="M66.4 199.2l-90.6 20.3L108.6 75.8z" style="animation-delay: 0.927s;"/><path fill="#b7b6aa" d="M30.5 164.8L72.7 82 8.6 149.2z" style="animation-delay: 1.104s;"/><path fill="#bfc8ca" d="M8.6 116.4l-20.3-15.6 78.1-39z" style="animation-delay: 1.277s;"/><path fill="#4b2c1f" d="M424.2 160.2l-120.3 64-103.1-75z" style="animation-delay: 1.445s;"/><path fill="#98adb5" d="M179 86.7l56.2-95.3-61 59.4z" style="animation-delay: 1.607s;"/><path d="M229 13.3l-33 59.4 61-23.5z" style="animation-delay: 1.763s;"/><path fill="#a9988b" d="M114.8 33.6L18-24.2h123.4z" style="animation-delay: 1.912s;"/><path fill="#151e27" d="M77.3 19.5l-101.5-36L5.5 93z" style="animation-delay: 2.054s;"/><path fill="#c5e2ef" d="M211.7 138.3l71.9 18.7-64-73.4z" style="animation-delay: 2.187s;"/><path fill="#a04d39" d="M241.4 58.6l-84.4 100 29.7 23.4z" style="animation-delay: 2.312s;"/><path fill="#2a0300" d="M375.8 132l-39-34.3-50 84.3z" style="animation-delay: 2.427s;"/><path fill="#796e65" d="M349.2 83.6l48.5 11-14.1 89z" style="animation-delay: 2.533s;"/><path d="M424.2 179l-23.4-84.5-23.5 129.7z" style="animation-delay: 2.629s;"/><path fill="#a3a195" d="M54 169.5l59.3-59.3-32.8 59.3z" style="animation-delay: 2.714s;"/><path fill="#000e15" d="M408.6 27.3l-181.3-25 197-26.5z" style="animation-delay: 2.789s;"/><path fill="#758ca0" d="M275.8 80.5l-14 95.3 64-54.7z" style="animation-delay: 2.853s;"/><path fill="#0a0e1a" d="M39.8 83.6l-42.1 65.6 110.9-98.4z" style="animation-delay: 2.906s;"/><path fill="#745b52" d="M324.2 80.5l-128.1-4.7 50 23.4z" style="animation-delay: 2.947s;"/><path fill="#abc0ce" d="M219.5 191.4l26.6 9.4-46.9-43.8z" style="animation-delay: 2.976s;"/><path fill="#201517" d="M5.5 224.2l-28.2-84.4 122 50z" style="animation-delay: 2.994s;"/></g></svg>