<svg xmlns="http://www.w3.org/2000/svg" viewBox="0 0 400 200"><style>@keyframes a{ from {opacity: 0} to {opacity: 1} } g > * { opacity: 0; animation: a .5s forwards; }</style><path fill="#514946" d="M0 0h400v200H0z"/><g transform="translate(.8 .8) scale(1.5625)" fill-opacity=".5"><ellipse fill="#ddf2ff" cx="164" cy="76" rx="33" ry="25" style="animation-delay: 0.000s;"/><ellipse fill="#b28871" cx="104" cy="116" rx="48" ry="23" style="animation-delay: 0.188s;"/><ellipse fill="#070812" cx="75" cy="50" rx="27" ry="40" style="animation-delay: 0.376s;"/><ellipse fill="#292019" cx="243" cy="20" rx="46" ry="132" style="animation-delay: 0.562s;"/><ellipse fill="#bba59e" cx="155" cy="53" rx="27" ry="15" style="animation-delay: 0.746s;"/><ellipse fill="#0d0102" cx="15" cy="127" rx="39" ry="26" style="animation-delay: 0.927s;"/><ellipse fill="#dff4fa" cx="151" cy="79" rx="13" ry="17" style="animation-delay: 1.104s;"/><ellipse fill="#b7ac9d" cx="61" rx="20" ry="13" style="animation-delay: 1.277s;"/><ellipse fill="#877e7b" cx="14" cy="77" rx="19" ry="24" style="animation-delay: 1.445s;"/><ellipse fill="#6c2013" cx="107" cy="89" rx="22" ry="21" style="animation-delay: 1.607s;"/><ellipse fill="#151f2a" cx="6" cy="20" rx="32" ry="34" style="animation-delay: 1.763s;"/><ellipse fill="#000400" cx="148" cy="25" rx="14" ry="15" style="animation-delay: 1.912s;"/><ellipse fill="#8ba6be" cx="116" cy="46" rx="5" ry="20" style="animation-delay: 2.054s;"/><ellipse fill="#88878d" cx="128" rx="14" ry="29" style="animation-delay: 2.187s;"/><ellipse fill="#000e17" cx="217" cy="1" rx="70" ry="9" style="animation-delay: 2.312s;"/><ellipse fill="#6d8aa7" cx="188" cy="77" rx="17" ry="12" style="animation-delay: 2.427s;"/><ellipse fill="#020000" cx="198" cy="104" rx="9" ry="14" style="animation-delay: 2.533s;"/><ellipse fill="#000200" cx="91" cy="17" rx="11" ry="17" style="animation-delay: 2.629s;"/><ellipse fill="#827f7b" cx="243" cy="94" rx="4" ry="38" style="animation-delay: 2.714s;"/><ellipse fill="#ff9a64" cx="131" cy="93" rx="8" ry="6" style="animation-delay: 2.789s;"/><ellipse fill="#5b1000" cx="128" cy="67" rx="11" ry="10" style="animation-delay: 2.853s;"/><ellipse cx="23" cy="65" rx="7" ry="7" style="animation-delay: 2.906s;"/><ellipse fill="#6a5950" cx="182" cy="56" rx="42" ry="8" style="animation-delay: 2.947s;"/><ellipse fill="#b1a186" cx="124" cy="127" rx="38" ry="9" style="animation-delay: 2.976s;"/><ellipse fill="#ac977c" cx="53" cy="103" rx="15" ry="7" style="animation-delay: 2.994s;"/></g></svg>