<svg xmlns="http://www.w3.org/2000/svg" viewBox="0 0 400 200"><style>@keyframes a{ from {opacity: 0} to {opacity: 1} } g > * { opacity: 0; animation: a .5s forwards; }</style><path fill="#514946" d="M0 0h400v200H0z"/><g transform="translate(.8 .8) scale(1.5625)" fill-opacity=".5"><ellipse fill="#d5dee6" rx="1" ry="1" transform="rotate(-40.4 176 -182.2) scale(30.07573 34.0156)" style="animation-delay: 0.000s;"/><ellipse fill="#c6aa8b" rx="1" ry="1" transform="rotate(16.3 -383.8 471.3) scale(79.73888 13.52671)" style="animation-delay: 0.188s;"/><ellipse fill="#0f0e17" rx="1" ry="1" transform="rotate(20.9 -99.5 231.1) scale(30.82303 44.72566)" style="animation-delay: 0.376s;"/><ellipse fill="#2a2622" rx="1" ry="1" transform="matrix(-43.44028 19.20613 -58.96296 -133.362 220 23)" style="animation-delay: 0.562s;"/><ellipse fill="#9eb7c9" rx="1" ry="1" transform="rotate(-101.9 121.5 -30.9) scale(15.72724 27.95545)" style="animation-delay: 0.746s;"/><ellipse fill="#bbb8ac" rx="1" ry="1" transform="matrix(-17.91882 21.81472 -4.25084 -3.49168 27.1 80.6)" style="animation-delay: 0.927s;"/><path fill="#0a0001" d="M48.6 146.2l-61.8-16.5 8.6-32 61.8 16.6z" style="animation-delay: 1.104s;"/><ellipse fill="#dff0f3" cx="153" cy="78" rx="16" ry="16" style="animation-delay: 1.277s;"/><path fill="#000200" d="M161 15.7l-14.5 34-17.5-7.4 14.5-34z" style="animation-delay: 1.445s;"/><path fill="#bec9cd" d="M-14 90l10-28 45-22z" style="animation-delay: 1.607s;"/><ellipse fill="#913721" rx="1" ry="1" transform="matrix(-7.95264 24.28626 -11.46486 -3.75422 123.7 81.2)" style="animation-delay: 1.763s;"/><path fill="#b1a192" d="M36.2.6l9-17.8L81.9 1.4l-9 17.8z" style="animation-delay: 1.912s;"/><path fill="#97a2a5" d="M149.9-10l-49.5 59.6L128.7 34l20.1-37.6z" style="animation-delay: 2.054s;"/><ellipse fill="#181f2a" rx="1" ry="1" transform="matrix(-21.40288 -13.36545 23.3905 -37.4566 13 19.6)" style="animation-delay: 2.187s;"/><path fill="#1e0000" d="M197.4 119.6l-12.6-9.9 33.8-43.3 12.6 9.9z" style="animation-delay: 2.312s;"/><path fill="#89888e" d="M171 106l37-31-61-36z" style="animation-delay: 2.427s;"/><path fill="#96948d" d="M55.8 107l36.3-13.6-53.3 11.4 29.6-32.2z" style="animation-delay: 2.533s;"/><path fill="#90766e" d="M117 83l58 19-32 21z" style="animation-delay: 2.629s;"/><path fill="#111011" d="M96.4-1.2L13 115.5l39.9-22.3L118.2-16z" style="animation-delay: 2.714s;"/><path fill="#7e7770" d="M239 58h8v70h-8z" style="animation-delay: 2.789s;"/><ellipse fill="#000e14" rx="1" ry="1" transform="matrix(-1.11582 9.22065 -91.5517 -11.07897 224 4.5)" style="animation-delay: 2.853s;"/><path fill="#210d09" d="M85 75.2l28.6 4.2-16.4 31-56-85.2z" style="animation-delay: 2.906s;"/><path d="M256 62l15 81h-29z" style="animation-delay: 2.947s;"/><ellipse fill="#906d62" rx="1" ry="1" transform="matrix(1.2048 -8.0422 23.00718 3.44667 151.6 51.1)" style="animation-delay: 2.976s;"/><path fill="#060010" d="M50 47L2 91l21-34z" style="animation-delay: 2.994s;"/></g></svg>