<svg xmlns="http://www.w3.org/2000/svg" viewBox="0 0 400 200"><style>@keyframes a{ from {opacity: 0} to {opacity: 1} } g > * { opacity: 0; animation: a .5s forwards; }</style><path fill="#514946" d="M0 0h400v200H0z"/><ellipse fill="#d2dde7" fill-opacity=".5" rx="1" ry="1" transform="rotate(-46.6 258 -241) scale(47.83669 54.12639)"/><ellipse fill="#ccaf8e" fill-opacity=".5" rx="1" ry="1" transform="matrix(-4.4708 16.13066 -141.2222 -39.14137 200.5 197.9)"/><ellipse fill="#090a12" fill-opacity=".5" rx="1" ry="1" transform="matrix(-35.60678 -11.50068 23.57908 -73.00223 122.2 78.8)"/><ellipse fill="#292520" fill-opacity=".5" rx="1" ry="1" transform="matrix(-121.99254 -252.3537 65.34915 -31.59101 340.5 33.6)"/><ellipse fill="#ddf8ff" fill-opacity=".5" rx="1" ry="1" transform="rotate(-107 165.7 -25) scale(28.66362 20.22673)"/><ellipse fill="#0e0203" fill-opacity=".5" rx="1" ry="1" transform="rotate(101.9 -65 109.8) scale(35.14118 62.78036)"/><ellipse fill="#b2aa9a" fill-opacity=".5" rx="1" ry="1" transform="rotate(-54.3 148.9 25.2) scale(40.10637 12.21472)"/><ellipse fill="#b8c2c4" fill-opacity=".5" rx="1" ry="1" transform="rotate(-128.8 28.5 53.2) scale(8.29052 60.28443)"/><ellipse fill="#9cc0e0" fill-opacity=".5" rx="1" ry="1" transform="rotate(43.5 -8.6 448.3) scale(10.1548 21.52101)"/><ellipse fill="#8e9fa5" fill-opacity=".5" rx="1" ry="1" transform="matrix(-7.99524 -5.286 26.57232 -40.19146 198.6 39.2)"/><ellipse fill="#24242a" fill-opacity=".5" rx="1" ry="1" transform="rotate(-139.6 55.8 20.2) scale(120.1724 33.27511)"/><ellipse fill="#b3aa9b" fill-opacity=".5" rx="1" ry="1" transform="rotate(176.6 50 1.9) scale(32.40856 20.59779)"/><ellipse fill="#c4593b" fill-opacity=".5" rx="1" ry="1" transform="rotate(-143.2 119.5 43.7) scale(22.00425 27.10558)"/><ellipse fill="#0b0d05" fill-opacity=".5" rx="1" ry="1" transform="matrix(32.82633 -17.03086 7.9119 15.24988 231.5 45.8)"/><ellipse fill="#330b06" fill-opacity=".5" rx="1" ry="1" transform="matrix(-39.69029 30.12657 -12.46205 -16.41814 329 147.6)"/><ellipse fill="#b5bcb5" fill-opacity=".5" rx="1" ry="1" transform="matrix(-3.23692 -2.55238 17.88784 -22.68525 91.2 140.3)"/><ellipse fill="#4d1002" fill-opacity=".5" rx="1" ry="1" transform="rotate(51.7 .3 258.1) scale(24.02034 10.01991)"/><ellipse fill="#001018" fill-opacity=".5" rx="1" ry="1" transform="rotate(96.2 173.2 161.5) scale(16.33462 146.74061)"/><ellipse fill="#110d09" fill-opacity=".5" rx="1" ry="1" transform="rotate(135.2 14.6 75.6) scale(50.3988 11.87456)"/><ellipse fill="#797d7d" fill-opacity=".5" rx="1" ry="1" transform="matrix(-9.42485 62.48835 -6.43222 -.97014 384.7 152.6)"/><ellipse fill-opacity=".5" rx="1" ry="1" transform="matrix(-12.79673 84.53 -9.12614 -1.38158 399.2 151.3)"/><ellipse fill="#865644" fill-opacity=".5" rx="1" ry="1" transform="matrix(-23.81577 2.50314 -1.7827 -16.96125 244 80.8)"/><ellipse fill="#0a111f" fill-opacity=".5" rx="1" ry="1" transform="matrix(5.36566 5.12817 -50.17889 52.50272 57.1 87.3)"/><ellipse fill="#b4b6b6" fill-opacity=".5" rx="1" ry="1" transform="rotate(-134.6 137 1.5) scale(41.73575 13.42093)"/><ellipse fill="#67696e" fill-opacity=".5" rx="1" ry="1" transform="rotate(150.9 97.5 116) scale(28.1404 14.77955)"/></svg>