<svg xmlns="http://www.w3.org/2000/svg" viewBox="0 0 400 200"><style>
  @keyframes fadeIn {
    from {opacity: 0}
    to {opacity: 1}
  }
  g.animated > * {
    opacity: 0;
    animation: fadeIn .5s forwards;
  }</style><path fill="#544b47" d="M0 0h400v200H0z"/><g class="animated"><ellipse fill="#d1dee8" fill-opacity=".5" rx="1" ry="1" transform="rotate(137.9 109.7 93.6) scale(47.92233 52.02737)" style="animation-delay: 0.00s;"/><ellipse fill="#bea88e" fill-opacity=".5" rx="1" ry="1" transform="matrix(7.02171 -25.66707 128.59891 35.18068 210 187.7)" style="animation-delay: 0.19s;"/><ellipse fill="#0a0d15" fill-opacity=".5" rx="1" ry="1" transform="matrix(-43.25024 -9.50507 17.38352 -79.099 115.6 54.6)" style="animation-delay: 0.38s;"/><ellipse fill="#040000" fill-opacity=".5" rx="1" ry="1" transform="matrix(-14.76197 33.60162 -63.94505 -28.09254 40.8 181.2)" style="animation-delay: 0.56s;"/><ellipse fill="#32170d" fill-opacity=".5" rx="1" ry="1" transform="matrix(65.67307 12.64664 -9.75708 50.66781 360.8 148.6)" style="animation-delay: 0.75s;"/><ellipse fill="#2b271e" fill-opacity=".5" rx="1" ry="1" transform="matrix(-3.81666 46.42296 -61.06292 -5.02029 342.6 50.6)" style="animation-delay: 0.93s;"/><ellipse fill="#ddf3fa" fill-opacity=".5" rx="1" ry="1" transform="matrix(-20.36852 12.23864 -14.03041 -23.35053 240.7 103.5)" style="animation-delay: 1.10s;"/><ellipse fill="#bcbcb0" fill-opacity=".5" rx="1" ry="1" transform="matrix(-27.76622 30.65823 -6.7263 -6.0918 44.8 102.4)" style="animation-delay: 1.28s;"/><ellipse fill="#b1bfbe" fill-opacity=".5" rx="1" ry="1" transform="matrix(43.72072 -30.956 4.42264 6.24632 14.2 78.2)" style="animation-delay: 1.45s;"/><ellipse fill="#000600" fill-opacity=".5" rx="1" ry="1" transform="rotate(-134 121.6 -40.9) scale(17.70115 38.92219)" style="animation-delay: 1.61s;"/><ellipse fill="#7f9eb8" fill-opacity=".5" rx="1" ry="1" transform="matrix(-9.00927 -15.6676 30.1193 -17.31937 290 109.3)" style="animation-delay: 1.76s;"/><ellipse fill="#93adb7" fill-opacity=".5" rx="1" ry="1" transform="rotate(-143.9 100.6 -18.4) scale(9.74876 30.92224)" style="animation-delay: 1.91s;"/><ellipse fill="#7a8788" fill-opacity=".5" rx="1" ry="1" transform="matrix(-6.29075 -.8953 13.49151 -94.79631 378.7 164.8)" style="animation-delay: 2.05s;"/><ellipse fill="#5d1c0b" fill-opacity=".5" rx="1" ry="1" transform="matrix(-35.28927 26.42203 -11.26541 -15.04609 180.3 102.9)" style="animation-delay: 2.19s;"/><ellipse fill="#aeb2aa" fill-opacity=".5" rx="1" ry="1" transform="rotate(-52.6 165.5 -33.4) scale(30.52945 5.10807)" style="animation-delay: 2.31s;"/><ellipse fill="#cf7451" fill-opacity=".5" rx="1" ry="1" transform="matrix(-11.4538 12.921 -15.65357 -13.87608 198.3 120.6)" style="animation-delay: 2.43s;"/><ellipse fill="#1a202a" fill-opacity=".5" rx="1" ry="1" transform="rotate(-136.5 10.3 5.6) scale(43.42892 59.47939)" style="animation-delay: 2.53s;"/><ellipse fill="#000001" fill-opacity=".5" rx="1" ry="1" transform="matrix(-8.1346 75.93971 -8.93812 -.95744 396.5 145.2)" style="animation-delay: 2.63s;"/><ellipse fill="#814e3c" fill-opacity=".5" rx="1" ry="1" transform="matrix(-21.26508 -1.8014 1.536 -18.13215 244.2 61.2)" style="animation-delay: 2.71s;"/><ellipse fill="#0f0f0f" fill-opacity=".5" rx="1" ry="1" transform="matrix(-67.39985 86.69725 -9.93781 -7.72582 98.7 70.6)" style="animation-delay: 2.79s;"/><ellipse fill="#b7c4c9" fill-opacity=".5" rx="1" ry="1" transform="rotate(17 -493.2 1144) scale(58.59685 3.71775)" style="animation-delay: 2.85s;"/><ellipse fill="#adb9c2" fill-opacity=".5" rx="1" ry="1" transform="matrix(-.5741 2.26895 -147.31804 -37.27558 203.2 164)" style="animation-delay: 2.91s;"/><ellipse fill="#0d121f" fill-opacity=".5" rx="1" ry="1" transform="matrix(-5.37381 -5.48756 66.39987 -65.02356 45.5 76.7)" style="animation-delay: 2.95s;"/><ellipse fill="#7f4b1c" fill-opacity=".5" rx="1" ry="1" transform="matrix(-65.89542 -15.57702 1.92151 -8.12857 260 192)" style="animation-delay: 2.98s;"/><ellipse fill="#889ba8" fill-opacity=".5" rx="1" ry="1" transform="matrix(2.33077 -14.43531 59.73805 9.6455 177 195.6)" style="animation-delay: 2.99s;"/></g></svg>