<svg xmlns="http://www.w3.org/2000/svg" viewBox="0 0 400 200"><style>
  @keyframes fadeIn {
    from {opacity: 0}
    to {opacity: 1}
  }
  g.animated > * {
    opacity: 0;
    animation: fadeIn .5s forwards;
  }</style><path fill="#909b99" d="M0 0h400v200H0z"/><g transform="translate(.8 .8) scale(1.5625)" fill-opacity=".5" class="animated"><ellipse fill="#8ee3ff" cx="185" cy="7" rx="70" ry="44" style="animation-delay: 0.00s;"/><ellipse fill="#233a3a" cx="70" cy="117" rx="46" ry="11" style="animation-delay: 0.19s;"/><ellipse fill="#fff" cx="165" cy="127" rx="21" ry="23" style="animation-delay: 0.38s;"/><ellipse fill="#816a5f" cx="235" cy="82" rx="90" ry="36" style="animation-delay: 0.56s;"/><ellipse cx="14" cy="44" rx="18" ry="9" style="animation-delay: 0.75s;"/><ellipse fill="#003747" cx="19" cy="102" rx="22" ry="13" style="animation-delay: 0.93s;"/><ellipse fill="ivory" cx="40" cy="83" rx="22" ry="12" style="animation-delay: 1.10s;"/><ellipse fill="ivory" cx="71" cy="99" rx="20" ry="11" style="animation-delay: 1.28s;"/><ellipse fill="#fffffc" cy="68" rx="34" ry="12" style="animation-delay: 1.45s;"/><ellipse fill="#003c42" cx="42" cy="57" rx="18" ry="10" style="animation-delay: 1.61s;"/><ellipse fill="#003c45" cx="65" cy="70" rx="17" ry="9" style="animation-delay: 1.76s;"/><ellipse fill="#fff" cy="127" rx="34" ry="13" style="animation-delay: 1.91s;"/><ellipse fill="#00363f" cx="93" cy="86" rx="15" ry="9" style="animation-delay: 2.05s;"/><ellipse fill="#fffee2" cx="62" cy="48" rx="15" ry="9" style="animation-delay: 2.19s;"/><ellipse fill="#4f2d0b" cx="53" cy="21" rx="14" ry="9" style="animation-delay: 2.31s;"/><ellipse fill="#bcdfea" cx="179" cy="52" rx="22" ry="14" style="animation-delay: 2.43s;"/><ellipse fill="#fffede" cx="84" cy="61" rx="15" ry="8" style="animation-delay: 2.53s;"/><ellipse fill="#e6e3de" cx="14" cy="5" rx="15" ry="24" style="animation-delay: 2.63s;"/><ellipse fill="#fff1d1" cx="36" cy="33" rx="15" ry="9" style="animation-delay: 2.71s;"/><ellipse fill="#3a2010" cx="206" cy="118" rx="17" ry="6" style="animation-delay: 2.79s;"/><ellipse fill="#0e1207" cx="161" cy="88" rx="16" ry="6" style="animation-delay: 2.85s;"/><ellipse fill="#fffee4" cx="109" cy="75" rx="13" ry="8" style="animation-delay: 2.91s;"/><ellipse fill="#003c4d" cx="122" cy="67" rx="10" ry="7" style="animation-delay: 2.95s;"/><ellipse fill="#fff8e4" cx="125" cy="87" rx="13" ry="8" style="animation-delay: 2.98s;"/><ellipse fill="#716968" cx="115" cy="118" rx="34" ry="26" style="animation-delay: 2.99s;"/></g></svg>