<svg xmlns="http://www.w3.org/2000/svg" viewBox="0 0 400 200"><style>@keyframes fade { from {opacity: 0} to {opacity: 1} } ellipse, path { opacity: 0; animation: fade .5s forwards; }</style><path fill="#909b99" d="M0 0h400v200H0z"/><g fill-opacity=".5"><path fill="#002a2f" d="M184 143.8l-17.5 16.7-190.7-97.2L3.4 38.7z" style="animation-delay: 0.00s;"/><path fill="#fffff1" d="M-24.2-7.8l314.7 232h60.3L138.5 82.7z" style="animation-delay: 0.19s;"/><path fill="#94e6ff" d="M384.5-24.2H110l174.5 129.4 139.7-81z" style="animation-delay: 0.38s;"/><path fill="#fff" d="M6.8 80.3l-31 18.8 149.8 72.7 27.8-15.3z" style="animation-delay: 0.56s;"/><path fill="#07343b" d="M194.5 210.6l-201.8-88-17 39.8 115.9 43.8z" style="animation-delay: 0.75s;"/><path fill="#193c3b" d="M47 15.1l86.3 34.2 232.5 175-322-199.5z" style="animation-delay: 0.93s;"/><path fill="#7f6257" d="M418.9 31L415 168l-109.7 32.8-66.7-73.2z" style="animation-delay: 1.10s;"/><path fill="#ffffe8" d="M215.3 84L62.3-24.2 125.7 49l176 99.1z" style="animation-delay: 1.28s;"/><path fill="#1f322a" d="M260 96.6L85-24.2l51.4 51 155 107z" style="animation-delay: 1.45s;"/><path fill="#6d625e" d="M172.4 127.2l60.8 28.2-6.4 68.8H85.3z" style="animation-delay: 1.61s;"/><path fill="#1b1208" d="M424.2 161.4v-18.6l-93.2 34-28.5 25z" style="animation-delay: 1.76s;"/><path fill="#fff" d="M40.4 188.8l-64.6-27 33 60.9 125.7 1.5z" style="animation-delay: 1.91s;"/><path fill="#fff8f3" d="M10 1.8l-34.2 5.7 126 75.2 134.4 72.7z" style="animation-delay: 2.05s;"/><path fill="#ffeee4" d="M269.8 84.9l9.4-17.6-169.3-91.5 178.2 134.4z" style="animation-delay: 2.19s;"/><path fill="#fffbf4" d="M227.3 190.9l39.2 33.3 17-46.8 134.7-64.5z" style="animation-delay: 2.31s;"/><path fill="#2c220f" d="M424.2 95.1l-26.5 22.6-134.4 58.4 11.8-9.2z" style="animation-delay: 2.43s;"/><path fill="#b37e4e" d="M58.1-9.1l140.3 94.9 79 56.3L52.5 17z" style="animation-delay: 2.53s;"/><path fill="#d59b62" d="M36.5 61.2L-24.2 42 37 41l210.8 134z" style="animation-delay: 2.63s;"/><path fill="#deccc2" d="M226 167.3l100.6-49.6 33.3-16-123.7 91.2z" style="animation-delay: 2.71s;"/><path fill="#fffcf7" d="M347.6 202.4l-96.3 21.8 173-60v4.6z" style="animation-delay: 2.79s;"/><path fill="#2f2c1f" d="M248.9 129.6l30.7 9-30.4 16.3-74.7-69.4z" style="animation-delay: 2.85s;"/><path fill="#0986ab" d="M82.3 48.2L239.4 148 212 118.7 105.6 47.3z" style="animation-delay: 2.91s;"/><path fill="#fff3ec" d="M270.4 124.3L43.2-22.7l223.3 156.4 56.1-35.8z" style="animation-delay: 2.95s;"/><path fill="#0e7fa1" d="M104.4 131L28.3 87.4l-5.7-23.8L197 166.2z" style="animation-delay: 2.98s;"/><path fill="#fff7f0" d="M25.7 89.6l122.3 66-38.5 7.2-133.7-66z" style="animation-delay: 2.99s;"/></g></svg>