<svg xmlns="http://www.w3.org/2000/svg" viewBox="0 0 400 200"><style>
  @keyframes fadeIn {
    from {opacity: 0}
    to {opacity: 1}
  }
  g.animated > * {
    opacity: 0;
    animation: fadeIn .5s forwards;
  }</style><path fill="#909b99" d="M0 0h400v200H0z"/><g transform="translate(.8 .8) scale(1.5625)" fill-opacity=".5" class="animated"><ellipse fill="#8ce3ff" cx="183" rx="58" ry="58" style="animation-delay: 0.00s;"/><ellipse fill="#fff" cx="166" cy="126" rx="21" ry="21" style="animation-delay: 0.19s;"/><ellipse fill="#84675c" cx="222" cy="91" rx="43" ry="43" style="animation-delay: 0.38s;"/><ellipse fill="#070000" cx="10" cy="41" rx="12" ry="12" style="animation-delay: 0.56s;"/><ellipse fill="#003b4a" cx="17" cy="101" rx="16" ry="16" style="animation-delay: 0.75s;"/><ellipse fill="#ffffed" cx="26" cy="76" rx="15" ry="15" style="animation-delay: 0.93s;"/><ellipse fill="#0c424b" cx="50" cy="120" rx="19" ry="19" style="animation-delay: 1.10s;"/><ellipse fill="#fffff1" cx="60" cy="93" rx="14" ry="14" style="animation-delay: 1.28s;"/><ellipse fill="#443329" cx="93" cy="127" rx="23" ry="23" style="animation-delay: 1.45s;"/><ellipse fill="#003642" cx="37" cy="55" rx="12" ry="12" style="animation-delay: 1.61s;"/><ellipse fill="#003a48" cx="72" cy="75" rx="11" ry="11" style="animation-delay: 1.76s;"/><ellipse fill="#fff" cx="9" cy="127" rx="15" ry="15" style="animation-delay: 1.91s;"/><ellipse fill="#261401" cx="157" cy="87" rx="10" ry="10" style="animation-delay: 2.05s;"/><ellipse fill="#fff" cx="9" cy="65" rx="12" ry="12" style="animation-delay: 2.19s;"/><ellipse fill="#00393f" cx="92" cy="85" rx="11" ry="11" style="animation-delay: 2.31s;"/><ellipse fill="#fff" cx="80" cy="100" rx="9" ry="9" style="animation-delay: 2.43s;"/><ellipse fill="#004151" cx="56" cy="66" rx="11" ry="11" style="animation-delay: 2.53s;"/><ellipse fill="#f4d7c0" cx="14" cy="19" rx="16" ry="16" style="animation-delay: 2.63s;"/><ellipse fill="#643911" cx="52" cy="19" rx="12" ry="12" style="animation-delay: 2.71s;"/><ellipse fill="#fff" cx="46" cy="83" rx="11" ry="11" style="animation-delay: 2.79s;"/><ellipse fill="#fffde4" cx="65" cy="49" rx="11" ry="11" style="animation-delay: 2.85s;"/><ellipse fill="#fff2d2" cx="43" cy="37" rx="11" ry="11" style="animation-delay: 2.91s;"/><ellipse fill="#fffcdd" cx="99" cy="70" rx="10" ry="10" style="animation-delay: 2.95s;"/><ellipse fill="#fffde9" cx="122" cy="84" rx="10" ry="10" style="animation-delay: 2.98s;"/><ellipse fill="#7ac5ea" cx="226" cy="7" rx="31" ry="31" style="animation-delay: 2.99s;"/></g></svg>