<svg xmlns="http://www.w3.org/2000/svg" viewBox="0 0 400 200"><style>@keyframes a{ from {opacity: 0} to {opacity: 1} } g > * { opacity: 0; animation: a .5s forwards; }</style><path fill="#909b99" d="M0 0h400v200H0z"/><g stroke-opacity=".5" fill="none" stroke-width=".8"><path stroke="#fff" d="M318.1 208Q188 115.1-24.2-1.7m0 4.9q343.5 186.1 334.5 221m31.9 0Q294.9 190.6-24.2 4" style="animation-delay: 0.000s;"/><path stroke="#000" d="M173.2 143Q52.6 60.7-2 60.5" style="animation-delay: 0.248s;"/><path stroke="#fff" d="M331.5 224.2Q293.7 175.2-19.4-2M4.2 5Q312.5 224.3 364 224.3M-5.8 10.4q67.1 42.4 330 196.8" style="animation-delay: 0.494s;"/><path stroke="#00333f" d="M388.1 109.1q-96 108.2-334.4-93" style="animation-delay: 0.736s;"/><path stroke="#2a1300" d="M117.7 44.4Q344.2 218 394 162.4" style="animation-delay: 0.974s;"/><path stroke="#000" d="M-18.7 84.6Q15.7 43.1 175 141.3" style="animation-delay: 1.205s;"/><path stroke="#fff" d="M-24.2 4.6q188.6 113.6 365.9 218m-63-87.8Q68.5-10.7 27.4-24.2" style="animation-delay: 1.428s;"/><path stroke="#381e00" d="M43.7 20.8Q80.6 7.6 314 184.6" style="animation-delay: 1.641s;"/><path stroke="#160000" d="M180.5 201.2Q-24.2 135.8-24.2 90.6" style="animation-delay: 1.843s;"/><path stroke="#1a2422" d="M-9.4 169.7q168.7 40.8 414.5-92.5" style="animation-delay: 2.032s;"/><path stroke="#02353c" d="M42.4 18.7Q263 139.7 323 201.8" style="animation-delay: 2.207s;"/><path stroke="#160600" d="M279.1 116.5Q173.6 37 109.8.4" style="animation-delay: 2.367s;"/><path stroke="#002e3f" d="M-24.2 47q213.5 151.3 320.9 82.7" style="animation-delay: 2.511s;"/><path stroke="#00303f" d="M319.9 118.7q-127.2 79.6-318.5-51" style="animation-delay: 2.638s;"/><path stroke="#191500" d="M-12.7 47.8q193.6 62.1 178 148.7" style="animation-delay: 2.747s;"/><path stroke="#000e12" d="M290.2 133.4Q207 65.8 106 2.4" style="animation-delay: 2.837s;"/><path stroke="#fff" d="M297.9 206.5Q81.2 44.5.7 9.1" style="animation-delay: 2.908s;"/><path stroke="#073b44" d="M47.7 19.4q279.7 204.8 353.7 144.5" style="animation-delay: 2.959s;"/><path stroke="#fff" d="M274.2 131.5Q143.8 32.8 67.2-4.9M260 124Q147.4 53.4 52.1-24.2" style="animation-delay: 2.990s;"/></g></svg>