<svg xmlns="http://www.w3.org/2000/svg" viewBox="0 0 400 200"><style>@keyframes fade { from {opacity: 0} to {opacity: 1} } ellipse, path { opacity: 0; animation: fade .5s forwards; }</style><path fill="#cecec9" d="M0 0h400v200H0z"/><g transform="translate(.8 .8) scale(1.5625)" fill-opacity=".5"><ellipse rx="1" ry="1" transform="matrix(-1.17043 20.11687 -85.78751 -4.99126 235.8 125)" style="animation-delay: 0.00s;"/><ellipse rx="1" ry="1" transform="matrix(48.24881 -8.41315 2.34609 13.45465 4.4 126.9)" style="animation-delay: 0.19s;"/><ellipse fill="#fff" rx="1" ry="1" transform="matrix(43.7109 53.85274 -45.51938 36.94693 201.8 37.5)" style="animation-delay: 0.38s;"/><ellipse rx="1" ry="1" transform="matrix(71.41109 .01956 -.00387 14.1465 239.1 119.3)" style="animation-delay: 0.56s;"/><path fill="#fff" d="M-16-2l193-14-193 130z" style="animation-delay: 0.75s;"/><ellipse fill="#927d62" rx="1" ry="1" transform="matrix(-33.12293 13.2933 -12.77103 -31.82157 112.2 63)" style="animation-delay: 0.93s;"/><path d="M-16 117l58 26 8-31z" style="animation-delay: 1.10s;"/><path fill="#604217" d="M80.7 49.2l27.1 39.2-8 3.7-35-34z" style="animation-delay: 1.28s;"/><ellipse fill="#f5fcff" rx="1" ry="1" transform="rotate(-117.3 38.7 21.3) scale(48.40048 32.56665)" style="animation-delay: 1.45s;"/><ellipse fill="#b19464" cx="157" cy="127" rx="13" ry="44" style="animation-delay: 1.61s;"/><ellipse fill="#fdffff" cx="131" cy="13" rx="255" ry="15" style="animation-delay: 1.76s;"/><ellipse fill="#fff" rx="1" ry="1" transform="rotate(-57.1 103.4 -65.4) scale(16.15764 5.67284)" style="animation-delay: 1.91s;"/><path fill="#160e00" d="M170 109h86v19h-86z" style="animation-delay: 2.05s;"/><path fill="#693410" d="M122.9 24.7l-5 6.5-21 12 31-4z" style="animation-delay: 2.19s;"/><path fill="#684d28" d="M111 69L97 89v21z" style="animation-delay: 2.31s;"/><ellipse fill="#f3f8f9" cx="199" cy="27" rx="57" ry="57" style="animation-delay: 2.43s;"/><path fill="#c2c4bc" d="M154.8 78.3l-21.5 44-34.1-16.6 21.5-44z" style="animation-delay: 2.53s;"/><ellipse fill="#f7fafd" cx="103" cy="6" rx="19" ry="30" style="animation-delay: 2.63s;"/><path fill="#dce1da" d="M90 88.8l20.4-20L71 140.1 58.3 47.7z" style="animation-delay: 2.71s;"/><path fill="#f0f0f1" d="M126.5 28.6l-6.6 59.7L145.7 2 7.7-16z" style="animation-delay: 2.79s;"/><path fill="#432b13" d="M139.7 75.7l1 .2-6.4 32.4-1-.2z" style="animation-delay: 2.85s;"/><path fill="#543309" d="M87 56H69l12 17z" style="animation-delay: 2.91s;"/><path fill="#b9c5c3" d="M249.5 94.4L187.6 93l-3 11.3 38.3 3.5z" style="animation-delay: 2.95s;"/><path fill="#a18765" d="M160 90l10 32-32 21z" style="animation-delay: 2.98s;"/><path fill="#b9c2c1" d="M53.7 95.3l-42 17H74L43.7 143z" style="animation-delay: 2.99s;"/></g></svg>