<svg xmlns="http://www.w3.org/2000/svg" viewBox="0 0 400 200"><style>@keyframes fade { from {opacity: 0} to {opacity: 1} } ellipse, path { opacity: 0; animation: fade .5s forwards; }</style><path fill="#51564e" d="M0 0h400v200H0z"/><g stroke-opacity=".5" fill="none" stroke-width=".8"><path stroke="#fff" d="M338 121.8q-68-20.5-70.1 42.6" style="animation-delay: 0.00s;"/><path stroke="#fffff6" d="M242.1 109.3q27.2 19.4 108.3 7.8" style="animation-delay: 0.20s;"/><path stroke="#fcfff5" d="M345.9 81q-4 58-96.7 29.7" style="animation-delay: 0.39s;"/><path stroke="#f9fdf0" d="M272 132.3q77-3.1 74.4-52.6" style="animation-delay: 0.59s;"/><path stroke="#ffffe9" d="M257.8 127.7q20.6-5.8 93-4.8" style="animation-delay: 0.78s;"/><path stroke="#e0e0d7" d="M290.7-24.2q-53.1 113.7 52.9 118" style="animation-delay: 0.96s;"/><path stroke="#eff0e4" d="M347.5 78q-17.4 50.2-99.7 70.3" style="animation-delay: 1.15s;"/><path stroke="#fff" d="M143.9 83.4q-11.4-23.3-65.2 14.7m259.4-20.3q8 55.5-50.7 38.3" style="animation-delay: 1.33s;"/><path stroke="#e0e1d3" d="M290.4 224.2Q278.6 74.4 347.3 83" style="animation-delay: 1.50s;"/><path stroke="#d4d6cc" d="M289.3-24.2q-42 121.9 48.2 120.1" style="animation-delay: 1.67s;"/><path stroke="#fff" d="M83 95.5q45.7-20 63.6-36.3" style="animation-delay: 1.83s;"/><path stroke="#c1bbae" d="M241 220.5q122.4-118.3-.7-232.4" style="animation-delay: 1.98s;"/><path stroke="#fff" d="M108.2 118.5Q84.4 80 135.8 72.7" style="animation-delay: 2.12s;"/><path stroke="#cac9bc" d="M251.3 161.7q64.2-14.6 100-144" style="animation-delay: 2.26s;"/><path stroke="#d9dacd" d="M346.3 77q-79.3 50-53.5 119.2" style="animation-delay: 2.38s;"/><path stroke="#beb7a9" d="M235.5-24.2q144 145.3-9.9 248.4" style="animation-delay: 2.49s;"/><path stroke="#fffceb" d="M256 168.2q27.2-65.6 81.5-43.5" style="animation-delay: 2.60s;"/><path stroke="#e4eae2" d="M347.5 90.6q-27-3.9-102.8 8.8" style="animation-delay: 2.69s;"/><path stroke="#fff" d="M85.9 96.9q43.3-22.6 54.9-22" style="animation-delay: 2.77s;"/><path stroke="#d1ccbc" d="M269.6-24.2q-45.2 148 78 149.7" style="animation-delay: 2.84s;"/><path stroke="#dae0d8" d="M242.7 110.6q55.7 33.7 102.7-28.3" style="animation-delay: 2.90s;"/><path stroke="#ccc9bb" d="M249.6 158.6q87.5-11.4 93.1-143.5" style="animation-delay: 2.94s;"/><path stroke="#d0d2ca" d="M345.3 92.7q-64.9.8-94.8-80.8" style="animation-delay: 2.97s;"/><path stroke="#fff" d="M143.8 76.4q-43.1 7.5-58.1 8" style="animation-delay: 2.99s;"/></g></svg>