<svg xmlns="http://www.w3.org/2000/svg" viewBox="0 0 400 200"><style>@keyframes a{ from {opacity: 0} to {opacity: 1} } g > * { opacity: 0; animation: a .5s forwards; }</style><path fill="#6a676e" d="M0 0h400v200H0z"/><g transform="translate(.8 .8) scale(1.5625)" fill-opacity=".5"><ellipse fill="#d2c3d1" rx="1" ry="1" transform="matrix(94.6687 20.20463 -9.66657 45.29267 127.9 54.2)" style="animation-delay: 0.000s;"/><path d="M77 143l-93-57 266 32z" style="animation-delay: 0.188s;"/><ellipse rx="1" ry="1" transform="matrix(-18.14555 -1.82434 8.27177 -82.2739 14.5 81.1)" style="animation-delay: 0.376s;"/><ellipse rx="1" ry="1" transform="matrix(-2.1777 -87.74354 20.27931 -.50331 241.5 117.7)" style="animation-delay: 0.562s;"/><ellipse fill="#e3c8d4" cx="72" cy="93" rx="42" ry="9" style="animation-delay: 0.746s;"/><ellipse fill="#acc6d0" cx="188" cy="25" rx="37" ry="22" style="animation-delay: 0.927s;"/><path fill="#020300" d="M0 104h238v24H0z" style="animation-delay: 1.104s;"/><path fill="#f8ffff" d="M33 33h164v7H33z" style="animation-delay: 1.277s;"/><path fill="#dee5fd" d="M53.7 6L11 12l161.7 2.8 13.8-9.3z" style="animation-delay: 1.445s;"/><path fill="#cf493c" d="M39 14h66v20H39z" style="animation-delay: 1.607s;"/><ellipse fill="#00040a" cx="24" cy="84" rx="9" ry="185" style="animation-delay: 1.763s;"/><ellipse fill="#000700" cx="107" cy="1" rx="139" ry="4" style="animation-delay: 1.912s;"/><ellipse fill="#000911" cx="232" cy="23" rx="9" ry="109" style="animation-delay: 2.054s;"/><path fill="#035045" d="M97.1 68l4-14-33.6-1.4-8 16.4z" style="animation-delay: 2.187s;"/><path fill="#cd5146" d="M218.4 71.8l-95-1.6.2-16 95 1.6z" style="animation-delay: 2.312s;"/><path fill="#c8cedd" d="M224.2 104.9L219.6 2.7l-4.8 97.7-94.5-4.7z" style="animation-delay: 2.427s;"/><ellipse fill="#627e99" rx="1" ry="1" transform="rotate(-85.9 12.4 .9) scale(29.10176 12.05238)" style="animation-delay: 2.533s;"/><ellipse fill="#e6eafe" cx="148" cy="50" rx="75" ry="4" style="animation-delay: 2.629s;"/><path fill="#3c5b93" d="M89 75h67v18H89z" style="animation-delay: 2.714s;"/><path fill="#c1a3ab" d="M36 69h85v33H36z" style="animation-delay: 2.789s;"/><path fill="#4d6c6f" d="M157 14h80v17h-80z" style="animation-delay: 2.853s;"/><path fill="#3d7161" d="M214.5 76v22h-41V76z" style="animation-delay: 2.906s;"/><path fill="#a2281b" d="M56 74h20v16H56z" style="animation-delay: 2.947s;"/><ellipse cx="13" cy="72" rx="20" ry="20" style="animation-delay: 2.976s;"/><path fill="#dbc8d8" d="M33.2-4l2.5 35.3L67.5 7.6l-22.6 5.8z" style="animation-delay: 2.994s;"/></g></svg>