<svg xmlns="http://www.w3.org/2000/svg" viewBox="0 0 400 200"><style>@keyframes a{ from {opacity: 0} to {opacity: 1} } g > * { opacity: 0; animation: a .5s forwards; }</style><path fill="#6a676e" d="M0 0h400v200H0z"/><g transform="translate(.8 .8) scale(1.5625)" fill-opacity=".5"><ellipse fill="#c9bcca" cx="120" cy="16" rx="88" ry="88" style="animation-delay: 0.000s;"/><ellipse cy="99" rx="49" ry="49" style="animation-delay: 0.188s;"/><ellipse fill="#06100d" cx="255" cy="120" rx="66" ry="66" style="animation-delay: 0.376s;"/><ellipse cx="108" cy="127" rx="31" ry="31" style="animation-delay: 0.562s;"/><ellipse fill="#bfa8a6" cx="193" cy="75" rx="33" ry="33" style="animation-delay: 0.746s;"/><ellipse cx="167" cy="127" rx="27" ry="27" style="animation-delay: 0.927s;"/><ellipse cx="65" cy="127" rx="28" ry="28" style="animation-delay: 1.104s;"/><ellipse fill="#eebac2" cx="50" cy="84" rx="18" ry="18" style="animation-delay: 1.277s;"/><ellipse fill="#000109" cy="54" rx="35" ry="35" style="animation-delay: 1.445s;"/><ellipse fill="#000508" cx="238" cy="55" rx="17" ry="17" style="animation-delay: 1.607s;"/><ellipse fill="#a4becb" cx="205" cy="24" rx="19" ry="19" style="animation-delay: 1.763s;"/><ellipse fill="#f7ffff" cx="166" cy="95" rx="9" ry="9" style="animation-delay: 1.912s;"/><ellipse cx="225" cy="120" rx="17" ry="17" style="animation-delay: 2.054s;"/><ellipse cx="18" cy="127" rx="30" ry="30" style="animation-delay: 2.187s;"/><ellipse fill="#adb8d8" cx="131" cy="32" rx="28" ry="28" style="animation-delay: 2.312s;"/><ellipse fill="#a45b5b" cx="67" cy="3" rx="31" ry="31" style="animation-delay: 2.427s;"/><ellipse fill="#213f50" cx="2" cy="15" rx="32" ry="32" style="animation-delay: 2.533s;"/><ellipse fill="#080401" cx="143" cy="127" rx="25" ry="25" style="animation-delay: 2.629s;"/><ellipse fill="#00041a" cx="233" cy="8" rx="10" ry="10" style="animation-delay: 2.714s;"/><ellipse fill="#577371" cx="182" rx="32" ry="32" style="animation-delay: 2.789s;"/><ellipse fill="#0b0e0b" cx="191" cy="127" rx="25" ry="25" style="animation-delay: 2.853s;"/><ellipse fill="#000c16" cx="234" cy="31" rx="11" ry="11" style="animation-delay: 2.906s;"/><ellipse fill="#034e42" cx="74" cy="60" rx="10" ry="10" style="animation-delay: 2.947s;"/><ellipse fill="#ce8b88" cx="75" cy="84" rx="18" ry="18" style="animation-delay: 2.976s;"/><ellipse fill="#9b5a52" cx="177" cy="69" rx="16" ry="16" style="animation-delay: 2.994s;"/></g></svg>