<svg xmlns="http://www.w3.org/2000/svg" viewBox="0 0 400 200"><style>
  @keyframes fadeIn {
    from {opacity: 0}
    to {opacity: 1}
  }
  g.animated > * {
    opacity: 0;
    animation: fadeIn .5s forwards;
  }</style><path fill="#6a676e" d="M0 0h400v200H0z"/><g class="animated"><ellipse fill="#cfc1cf" fill-opacity=".5" rx="1" ry="1" transform="rotate(-96.1 139.6 -49.9) scale(77.26715 148.97032)" style="animation-delay: 0.00s;"/><ellipse fill-opacity=".5" rx="1" ry="1" transform="matrix(1.01433 -38.99358 398.30276 10.36098 201.5 199.2)" style="animation-delay: 0.19s;"/><ellipse fill-opacity=".5" rx="1" ry="1" transform="matrix(8.32332 -119.02895 26.81294 1.87494 26.4 114.3)" style="animation-delay: 0.38s;"/><ellipse fill="#000408" fill-opacity=".5" rx="1" ry="1" transform="rotate(84.5 105.9 283) scale(152.10278 24.62335)" style="animation-delay: 0.56s;"/><ellipse fill="#e1a1a5" fill-opacity=".5" rx="1" ry="1" transform="matrix(.44038 33.5531 -60.625 .7957 113.2 40.7)" style="animation-delay: 0.75s;"/><ellipse fill="#eef8ff" fill-opacity=".5" rx="1" ry="1" transform="matrix(.12017 -6.71464 41.00212 .7338 304.8 15)" style="animation-delay: 0.93s;"/><ellipse fill-opacity=".5" rx="1" ry="1" transform="matrix(-12.34418 5.94085 -57.63893 -119.76486 42.3 153.1)" style="animation-delay: 1.10s;"/><ellipse fill="#000400" fill-opacity=".5" rx="1" ry="1" transform="matrix(-141.41102 -1.4575 .04758 -4.61591 197 5)" style="animation-delay: 1.28s;"/><ellipse fill="#edfcff" fill-opacity=".5" rx="1" ry="1" transform="matrix(-.0134 7.68139 -94.82115 -.1655 254.6 57)" style="animation-delay: 1.45s;"/><ellipse fill="#dbdef6" fill-opacity=".5" rx="1" ry="1" transform="matrix(85.13971 -.79904 .07622 8.12096 130.3 17.4)" style="animation-delay: 1.61s;"/><ellipse fill="#ae3028" fill-opacity=".5" rx="1" ry="1" transform="matrix(-45.2147 2.64944 -.81199 -13.85715 123.3 36.7)" style="animation-delay: 1.76s;"/><ellipse fill="#26645c" fill-opacity=".5" rx="1" ry="1" transform="matrix(-62.7495 2.9509 -.55189 -11.73567 116.6 96)" style="animation-delay: 1.91s;"/><ellipse fill="#d6dae2" fill-opacity=".5" rx="1" ry="1" transform="matrix(-101.16403 -6.89667 .4086 -5.99348 216.8 153.8)" style="animation-delay: 2.05s;"/><ellipse fill="#dfe3f7" fill-opacity=".5" rx="1" ry="1" transform="matrix(-.0956 6.22989 -129.14596 -1.98184 193.5 77.6)" style="animation-delay: 2.19s;"/><ellipse fill="#ce5d54" fill-opacity=".5" rx="1" ry="1" transform="matrix(91.51143 3.6008 -.5394 13.70858 266.8 98.4)" style="animation-delay: 2.31s;"/><ellipse fill="#c58e91" fill-opacity=".5" rx="1" ry="1" transform="matrix(-5.4397 -22.03422 30.39325 -7.50333 80.9 136.9)" style="animation-delay: 2.43s;"/><ellipse fill="#000503" fill-opacity=".5" rx="1" ry="1" transform="rotate(-155.1 196.6 48.4) scale(14.33823 108.94499)" style="animation-delay: 2.53s;"/><ellipse fill="#bcc6ce" fill-opacity=".5" rx="1" ry="1" transform="matrix(-6.49558 29.79144 -9.4575 -2.06207 340.4 138.3)" style="animation-delay: 2.63s;"/><ellipse fill="#305a97" fill-opacity=".5" rx="1" ry="1" transform="rotate(171.1 93.8 73.6) scale(44.96629 11.76843)" style="animation-delay: 2.71s;"/><ellipse fill="#597691" fill-opacity=".5" rx="1" ry="1" transform="rotate(-64.4 33.8 20) scale(56.72423 27.50185)" style="animation-delay: 2.79s;"/><ellipse fill="#12100d" fill-opacity=".5" rx="1" ry="1" transform="matrix(-144.92744 -1.53821 .41434 -39.038 168.5 199.2)" style="animation-delay: 2.85s;"/><ellipse fill="#598697" fill-opacity=".5" rx="1" ry="1" transform="matrix(-110.01114 1.92025 -.19675 -11.2717 286 38.3)" style="animation-delay: 2.91s;"/><ellipse fill="#6f98b7" fill-opacity=".5" rx="1" ry="1" transform="rotate(-164.9 202.3 -9.8) scale(18.07047 50.79586)" style="animation-delay: 2.95s;"/><ellipse fill="#00040a" fill-opacity=".5" rx="1" ry="1" transform="matrix(-11.92807 -.48154 4.28662 -106.1818 40.2 95.6)" style="animation-delay: 2.98s;"/><ellipse fill="#c6d0e5" fill-opacity=".5" rx="1" ry="1" transform="rotate(-83.8 137.4 16.5) scale(7.28955 46.86515)" style="animation-delay: 2.99s;"/></g></svg>