<svg xmlns="http://www.w3.org/2000/svg" viewBox="0 0 400 200"><style>@keyframes a{ from {opacity: 0} to {opacity: 1} } g > * { opacity: 0; animation: a .5s forwards; }</style><path fill="#7f7d7a" d="M0 0h400v200H0z"/><ellipse fill="#080100" fill-opacity=".5" rx="1" ry="1" transform="matrix(355.25771 67.10591 -8.5387 45.20373 125.7 178.3)"/><ellipse fill="#fffded" fill-opacity=".5" rx="1" ry="1" transform="matrix(7.30277 -43.04384 64.9348 11.01676 85.3 65)"/><ellipse fill="#d6dae1" fill-opacity=".5" rx="1" ry="1" transform="matrix(-89.8882 9.02529 -5.47208 -54.49969 284.6 106.5)"/><ellipse fill="#dee3ea" fill-opacity=".5" rx="1" ry="1" transform="rotate(98.3 21.3 104.5) scale(53.53464 17.52219)"/><ellipse fill="#b2ab9c" fill-opacity=".5" rx="1" ry="1" transform="matrix(18.4511 37.99853 -69.42345 33.71022 37.4 59.4)"/><ellipse fill="#2e2719" fill-opacity=".5" rx="1" ry="1" transform="matrix(18.05001 68.31656 -69.9945 18.49334 19.2 178.3)"/><ellipse fill="#58544f" fill-opacity=".5" rx="1" ry="1" transform="rotate(94.6 -12.2 116) scale(32.04379 81.53292)"/><ellipse fill="#4e514f" fill-opacity=".5" rx="1" ry="1" transform="matrix(6.56562 -18.05655 111.34979 40.48838 394.9 192.6)"/><ellipse fill="#5d5651" fill-opacity=".5" rx="1" ry="1" transform="matrix(64.86143 -23.98794 16.6119 44.91723 196 .8)"/><ellipse fill="#bbbec0" fill-opacity=".5" rx="1" ry="1" transform="matrix(161.3835 24.07205 -4.55294 30.52373 370 120)"/><ellipse fill="#959697" fill-opacity=".5" rx="1" ry="1" transform="matrix(135.54282 7.18046 -2.16007 40.77479 396.1 56.6)"/><ellipse fill="#848382" fill-opacity=".5" rx="1" ry="1" transform="rotate(99.1 70 199.2) scale(15.08194 55.02089)"/><ellipse fill="#eae7e0" fill-opacity=".5" rx="1" ry="1" transform="rotate(-108.1 88.7 -4.3) scale(40.69444 24.07698)"/><ellipse fill="#322c25" fill-opacity=".5" rx="1" ry="1" transform="rotate(-99.8 146.1 8.6) scale(67.85238 9.13868)"/><ellipse fill="#333530" fill-opacity=".5" rx="1" ry="1" transform="matrix(14.94185 35.29357 -18.58028 7.86613 399.2 197.3)"/><ellipse fill="#dbd9da" fill-opacity=".5" rx="1" ry="1" transform="rotate(79.5 64.5 212) scale(33.41597 14.98239)"/><ellipse fill="#838791" fill-opacity=".5" rx="1" ry="1" transform="matrix(23.91836 .31554 -.3495 26.4923 119.4 130)"/><ellipse fill="#362f28" fill-opacity=".5" rx="1" ry="1" transform="rotate(83.8 -14.2 191.7) scale(48.91318 44.23278)"/><ellipse fill="#91949c" fill-opacity=".5" rx="1" ry="1" transform="matrix(17.9428 -53.69733 18.19409 6.0795 209 85.3)"/><ellipse fill="#d5e1ee" fill-opacity=".5" rx="1" ry="1" transform="matrix(2.09134 21.40705 -10.58928 1.03451 340.6 112.8)"/><ellipse fill="#28221b" fill-opacity=".5" rx="1" ry="1" transform="rotate(87.7 -89.6 114.2) scale(68.18945 48.13064)"/><ellipse fill="#484231" fill-opacity=".5" rx="1" ry="1" transform="matrix(.6421 8.95773 -57.64285 4.1319 2 .8)"/><ellipse fill="#9b9486" fill-opacity=".5" rx="1" ry="1" transform="rotate(-177.8 31 11.7) scale(75.21484 10.23998)"/><ellipse fill="#8a8d8d" fill-opacity=".5" rx="1" ry="1" transform="matrix(-25.62945 -83.09748 26.30235 -8.11234 385.6 84.3)"/><ellipse fill="#6c6865" fill-opacity=".5" rx="1" ry="1" transform="matrix(53.9264 -10.08791 4.94866 26.45377 308.6 .8)"/></svg>