<svg xmlns="http://www.w3.org/2000/svg" viewBox="0 0 400 200"><style>@keyframes a{ from {opacity: 0} to {opacity: 1} } g > * { opacity: 0; animation: a .5s forwards; }</style><path fill="#7f7d7a" d="M0 0h400v200H0z"/><g fill-opacity=".5"><path fill="#060000" d="M424.2 199.5L198 149l-222.1-47.5L4.3 224.2z" style="animation-delay: 0.000s;"/><path fill="#d6d6d4" d="M39.2 18.3L-24.2 72l310.6 92 137.8-64.3z" style="animation-delay: 0.188s;"/><path fill="#4b4744" d="M229.2-24.2l-40 171.5-48.2 9.1L155.2-6.2z" style="animation-delay: 0.376s;"/><path fill="#ece5d8" d="M140.2 109L20 105.6 114.5 21l38.8 43.3z" style="animation-delay: 0.562s;"/><path fill="#b8bbc0" d="M333.3 35.8l91 120.1-217.5-17.5 47.7-92.5z" style="animation-delay: 0.746s;"/><path fill="#606261" d="M228 174.4l45.7-29.6L411.9 166l-10.3 30.8z" style="animation-delay: 0.927s;"/><path fill="#706f6e" d="M113.6 104.4l42.2 15.9-31.7 63-78.2-75z" style="animation-delay: 1.104s;"/><path fill="#211a0c" d="M12.3 126.3L-24.2 163l8.7 61.3L109 193z" style="animation-delay: 1.277s;"/><path fill="#909292" d="M344.5 75l59.7 93 2-172.6-213.8 68.2z" style="animation-delay: 1.445s;"/><path fill="#39332b" d="M157.5 121.4l3.8-68.5-34.5 149.5 170.7.3z" style="animation-delay: 1.607s;"/><path fill="#dde1e5" d="M150 90.2l-12.6-51.4-32.6 30.4L123 150z" style="animation-delay: 1.763s;"/><path fill="#b0a999" d="M-24.2 110l36-101.4 107.9 15-47.4 81z" style="animation-delay: 1.912s;"/><path fill="#c9c9cc" d="M280.3 169.9l-30-2-7.8-85 32.7-5.7z" style="animation-delay: 2.054s;"/><path fill="#484133" d="M88.8 109l13.6 104.8L-8.2 109.1l126-2z" style="animation-delay: 2.187s;"/><path fill="#888c96" d="M200.5 26.5l-30.4 108.8 42.3 7.7 5.9-108z" style="animation-delay: 2.312s;"/><path fill="#dbe6f2" d="M364.7 132.2l-1.4-32.6-30.7 42.8-4.3-59z" style="animation-delay: 2.427s;"/><path fill="#2d3029" d="M381.9 163l-2.2 61.2 39-6.7-2.6-53.9z" style="animation-delay: 2.533s;"/><path fill="#6a6460" d="M218.9 30.3l192-34-275.1-20.5 13.5 115.1z" style="animation-delay: 2.629s;"/><path fill="#777a7d" d="M227.7 176l17.8-88 3.8 95.4 25.8-56.1z" style="animation-delay: 2.714s;"/><path fill="#7c818c" d="M106.4 106.7l40.8 3.3-9.3 39h-36.2z" style="animation-delay: 2.789s;"/><path fill="#514a39" d="M33.3-24.2l-57.5 43.9L34.4 4.3l51.2 1.6z" style="animation-delay: 2.853s;"/><path fill="#f2f5f3" d="M144.5 102l-12.2-9.6-22.1-2 37.4-41.6z" style="animation-delay: 2.906s;"/><path fill="#afbbd1" d="M235.9 152.9l3.5-89.5-33.8 77.4 6.4 3.7z" style="animation-delay: 2.947s;"/><path fill="#dcdee4" d="M285.8 109.2l-37.8 1 2 23.6 25-1.3z" style="animation-delay: 2.976s;"/><path fill="#615e5b" d="M319.9 177.6l-122-13-2.8-26.4 14.1 7.8z" style="animation-delay: 2.994s;"/></g></svg>