<svg xmlns="http://www.w3.org/2000/svg" viewBox="0 0 400 200"><style>@keyframes a{ from {opacity: 0} to {opacity: 1} } g > * { opacity: 0; animation: a .5s forwards; }</style><path fill="#7f7d7a" d="M0 0h400v200H0z"/><g stroke-opacity=".5" fill="none" stroke-width=".8"><path stroke="#000" d="M396.3 199.3q-288.4.2-410.2-.4m438.1-2.5q-448.4-1.7-448.4 3.4m4.7-6.7q58.7-.8 421.6 1m4.7 2.9q-88.2-13.6-431-6m429.4-1.5Q-7.4 170-23.3 185.9m-.9 5.9q374.6-3.5 427.6.1M1.1 170.8q281-.5 423.1 38.5" style="animation-delay: 0.000s;"/><path stroke="#040000" d="M396.6 191q-221.9-11.5-420.8-8.7" style="animation-delay: 0.248s;"/><path stroke="#090300" d="M424.2 220.4q-53.7-57.4-422.9-43" style="animation-delay: 0.494s;"/><path stroke="#000" d="M411.4 197q-194.5 3.5-435.6-4.5" style="animation-delay: 0.736s;"/><path stroke="#090200" d="M398.2 208.8Q15.7 114.8-1 200.5" style="animation-delay: 0.974s;"/><path stroke="#070100" d="M-10.6 186.7Q267.7 188 422 182" style="animation-delay: 1.205s;"/><path stroke="#000" d="M-10.3 164q294 46.5 411.4 34" style="animation-delay: 1.428s;"/><path stroke="#0c0700" d="M420.3 179.5Q209.4 224.2-24.2 122" style="animation-delay: 1.641s;"/><path stroke="#e8eae9" d="M6 46.6q214.7 79 418.2 77.7" style="animation-delay: 1.843s;"/><path stroke="#070000" d="M334 182.4q-337 0-345.5-59.3" style="animation-delay: 2.032s;"/><path stroke="#eaebe9" d="M-16.8 32q366.3 122 380.5 70.9" style="animation-delay: 2.207s;"/><path stroke="#060000" d="M361 194.6Q-1.4 224.2-.3 100.6" style="animation-delay: 2.367s;"/><path stroke="#eaecec" d="M-24.2 40.6Q290 146.2 372.7 121.3" style="animation-delay: 2.511s;"/><path stroke="#0b0400" d="M294.1 171.8Q23.8 180-.3 130.3" style="animation-delay: 2.638s;"/><path stroke="#e4e6e5" d="M18.1 34.4q228.2 158.7 360.6 52" style="animation-delay: 2.747s;"/><path stroke="#e5e6e5" d="M3.5 41Q354.4 168 373 97" style="animation-delay: 2.837s;"/><path stroke="#0f0802" d="M-24.2 205.1q88.7-113 383.7 14.5" style="animation-delay: 2.908s;"/><path stroke="#e4e6e7" d="M16.7 55.8q330.5 109.2 377.7 55" style="animation-delay: 2.959s;"/><path stroke="#090200" d="M336.5 195.6q-142 5.6-360.7-42.3" style="animation-delay: 2.990s;"/></g></svg>