<svg xmlns="http://www.w3.org/2000/svg" viewBox="0 0 400 200"><style>@keyframes a{ from {opacity: 0} to {opacity: 1} } g > * { opacity: 0; animation: a .5s forwards; }</style><path fill="#7f7d7a" d="M0 0h400v200H0z"/><g transform="translate(.8 .8) scale(1.5625)" fill-opacity=".5"><ellipse fill="#010000" cx="30" cy="115" rx="48" ry="48" style="animation-delay: 0.000s;"/><ellipse fill="#fff8e9" cx="60" cy="43" rx="34" ry="34" style="animation-delay: 0.188s;"/><ellipse fill="#d5d7dc" cx="180" cy="63" rx="43" ry="43" style="animation-delay: 0.376s;"/><ellipse fill="#020000" cx="115" cy="127" rx="41" ry="41" style="animation-delay: 0.562s;"/><ellipse fill="#2f2c28" cx="189" cy="127" rx="33" ry="33" style="animation-delay: 0.746s;"/><ellipse fill="#c6cfd4" cx="230" cy="73" rx="23" ry="23" style="animation-delay: 0.927s;"/><ellipse fill="#c1bbab" cx="28" cy="38" rx="31" ry="31" style="animation-delay: 1.104s;"/><ellipse fill="#212624" cx="244" cy="126" rx="24" ry="24" style="animation-delay: 1.277s;"/><ellipse fill="#b9bfca" cx="147" cy="68" rx="29" ry="29" style="animation-delay: 1.445s;"/><ellipse fill="#fff" cx="79" cy="51" rx="16" ry="16" style="animation-delay: 1.607s;"/><ellipse fill="#5d564e" cx="54" cy="84" rx="20" ry="20" style="animation-delay: 1.763s;"/><ellipse fill="#5d5651" cx="111" rx="36" ry="36" style="animation-delay: 1.912s;"/><ellipse fill="#292011" cy="117" rx="48" ry="48" style="animation-delay: 2.054s;"/><ellipse fill="#3b342d" cx="101" cy="107" rx="27" ry="27" style="animation-delay: 2.187s;"/><ellipse fill="#74706f" cx="173" cy="10" rx="31" ry="31" style="animation-delay: 2.312s;"/><ellipse fill="#94989a" cx="236" cy="33" rx="31" ry="31" style="animation-delay: 2.427s;"/><ellipse fill="#38302a" cx="136" cy="127" rx="33" ry="33" style="animation-delay: 2.533s;"/><ellipse fill="#a3aebd" cx="79" cy="73" rx="11" ry="11" style="animation-delay: 2.629s;"/><ellipse fill="#887e70" cx="61" rx="23" ry="23" style="animation-delay: 2.714s;"/><ellipse fill="#a2a5a7" cx="173" cy="97" rx="12" ry="12" style="animation-delay: 2.789s;"/><ellipse fill="#3d3933" cx="99" cy="76" rx="9" ry="9" style="animation-delay: 2.853s;"/><ellipse fill="#dddcdc" cx="170" cy="77" rx="13" ry="13" style="animation-delay: 2.906s;"/><ellipse fill="#d4dde8" cx="222" cy="71" rx="12" ry="12" style="animation-delay: 2.947s;"/><ellipse fill="#e9e5dd" cx="77" cy="41" rx="17" ry="17" style="animation-delay: 2.976s;"/><ellipse fill="#959a99" cx="254" cy="83" rx="21" ry="21" style="animation-delay: 2.994s;"/></g></svg>