<svg xmlns="http://www.w3.org/2000/svg" viewBox="0 0 400 200"><style>@keyframes a{ from {opacity: 0} to {opacity: 1} } g > * { opacity: 0; animation: a .5s forwards; }</style><path fill="#7f7d7a" d="M0 0h400v200H0z"/><g fill-opacity=".5"><path fill="#050000" d="M422.7 197.7L7 224.2l-31.2-123.4z" style="animation-delay: 0.000s;"/><path fill="#d2d3d4" d="M424.2 77.3l-146.9 98.5L-24.2 28.9z" style="animation-delay: 0.188s;"/><path fill="#eee7d8" d="M133.6 13.3L-24.2 89.8l171.9 22z" style="animation-delay: 0.376s;"/><path fill="#4b4541" d="M149.2 224.2L147.7.8l92.1-25z" style="animation-delay: 0.562s;"/><path fill="#bbbfc3" d="M199.2 129l98.5-103.2 126.5 132.8z" style="animation-delay: 0.746s;"/><path fill="#555655" d="M368 219.5l-209.4-84.3 265.6 28z" style="animation-delay: 0.927s;"/><path fill="#b0aa99" d="M139.8 18L-8.6 116.4-24.2 13.3z" style="animation-delay: 1.104s;"/><path fill="#909293" d="M421-7l3.2 123.4-198.4-70.3z" style="animation-delay: 1.277s;"/><path fill="#8a909b" d="M86.7 127.3l37.5 40.7 26.6-67.2z" style="animation-delay: 1.445s;"/><path fill="#211a0d" d="M-13.3 219.5l125-29.7-123.4-78z" style="animation-delay: 1.607s;"/><path fill="#f8faf9" d="M147.7 93l-59.4 6.2L141.4 43z" style="animation-delay: 1.763s;"/><path fill="#6f6966" d="M71-24.2L389.9-4 158.6 60z" style="animation-delay: 1.912s;"/><path fill="#322b23" d="M274.2 224.2l-125-15.6-3.1-106.3z" style="animation-delay: 2.054s;"/><path fill="#585043" d="M18 108.6L135.2 182l-37.5-76.5z" style="animation-delay: 2.187s;"/><path fill="#9ba4b2" d="M291.4 164.8L172.7 132l31.2-75z" style="animation-delay: 2.312s;"/><path fill="#e1dfe1" d="M247.7 155.5l29.6-43.8-29.6-42.2z" style="animation-delay: 2.427s;"/><path fill="#dae5f3" d="M366.4 125.8l-36-39 1.6 42.1z" style="animation-delay: 2.533s;"/><path fill="#868586" d="M269.5 13.3l-86 32.8 1.7 90.6z" style="animation-delay: 2.629s;"/><path fill="#9f9f97" d="M72.7 104L2.3 27.2l-14 81.3z" style="animation-delay: 2.714s;"/><path fill="#2f322a" d="M383.6 224.2l40.6-62.5H382z" style="animation-delay: 2.789s;"/><path fill="#52504a" d="M168 143l-42.2 29.7 29.7-103.2z" style="animation-delay: 2.853s;"/><path fill="#8b8f8f" d="M322.7 25.8l89 156.2-1.5-175z" style="animation-delay: 2.906s;"/><path fill="#c2baad" d="M61.7 107L118 25.8l-87.5 3.1z" style="animation-delay: 2.947s;"/><path fill="#413b2a" d="M-21 13.3l-3.2-37.5L88.3-7z" style="animation-delay: 2.976s;"/><path fill="#70706d" d="M355.5 141.4l-117.2 32.8 146.9 3.1z" style="animation-delay: 2.994s;"/></g></svg>