<svg xmlns="http://www.w3.org/2000/svg" viewBox="0 0 400 200"><style>@keyframes a{ from {opacity: 0} to {opacity: 1} } g > * { opacity: 0; animation: a .5s forwards; }</style><path fill="#7f7d7a" d="M0 0h400v200H0z"/><path fill="#040000" fill-opacity=".5" d="M373 288.8l-389.8-82.9 20.4-96.2 389.8 82.8z"/><path fill="ivory" fill-opacity=".5" d="M144.6 110l-109-7.7 5.7-82.6 109.1 7.7z"/><path fill="#dce1e7" fill-opacity=".5" d="M205.7 144.6l2.8-81.2 174.9 6-2.8 81.3z"/><path fill="#b9b2a3" fill-opacity=".5" d="M-32.8 19.9l128.1-2.3 1.6 89-128.1 2.3z"/><path fill="#5c5550" fill-opacity=".5" d="M163.9 76.3L116 10.5l87.2-63.3L251 12.9z"/><path fill="#fffffe" fill-opacity=".5" d="M148.3 101.4l-37.4 3.3-4.5-51.4 37.4-3.3z"/><path fill="#342d25" fill-opacity=".5" d="M134.3 139.6l15.7-25.1 61 38-15.7 25.2z"/><path fill="#9e9fa0" fill-opacity=".5" d="M279.8 114.8l-19.8-74L415.5-.7l19.8 74z"/><path fill="#21190b" fill-opacity=".5" d="M96.8 188l-39.4 56.3-115.2-80.7 39.5-56.3z"/><path fill="#474845" fill-opacity=".5" d="M466.6 154.7l3.5 40.5-197.6 17.3-3.6-40.5z"/><path fill="#9196a2" fill-opacity=".5" d="M136.1 159.3l-38.4-6.8 8.4-47.7 38.4 6.8z"/><path fill="#c8c7c8" fill-opacity=".5" d="M282 51.6v117.2h-34.3V51.5z"/><path fill="#4b4232" fill-opacity=".5" d="M10.5 154.7l.9-46.9 85.9 1.5-.8 47z"/><path fill="#919593" fill-opacity=".5" d="M402.8 64.9l11.2 91.5-43.4 5.3-11.2-91.5z"/><path fill="#edf9ff" fill-opacity=".5" d="M328.4 93.6l17.1-1.2 2.7 37.4L331 131z"/><path fill="#979ba6" fill-opacity=".5" d="M203.3 145.7l-26.6-13 46.5-95.5 26.7 13z"/><path fill="#948c7e" fill-opacity=".5" d="M137 10.7l-.5 23.4-146.8-2.6.4-23.4z"/><path fill="#33302a" fill-opacity=".5" d="M159.9 76.3l-5.7 65.4-9.4-.8 5.7-65.4z"/><path fill="#686564" fill-opacity=".5" d="M219.5 171.4l3-18.5L335 170.8l-2.9 18.5z"/><path fill="#362f27" fill-opacity=".5" d="M111 200.3l52.3-72 96 69.8-52.3 72z"/><path fill="#423d2d" fill-opacity=".5" d="M-13 14.2l-2.7-15.4 64.6-11.4 2.7 15.4z"/><path fill="#6c706f" fill-opacity=".5" d="M374.3 159.4l-32.6 33.8-27-26 32.6-33.8z"/><path fill="#605d5b" fill-opacity=".5" d="M144.7 163.7l-23.2 23.2-55.3-55.3 23.2-23.2z"/><path fill="#e5dcd3" fill-opacity=".5" d="M126.7 104.6L86.2 93 103 34.4l40.5 11.7z"/><path fill="#908c8a" fill-opacity=".5" d="M196.2 70.6l1.6-31.2L396 49.7 394.4 81z"/></svg>