<svg xmlns="http://www.w3.org/2000/svg" viewBox="0 0 400 200"><style>@keyframes a{ from {opacity: 0} to {opacity: 1} } g > * { opacity: 0; animation: a .5s forwards; }</style><path fill="#7f7d7a" d="M0 0h400v200H0z"/><g transform="translate(.8 .8) scale(1.5625)" fill-opacity=".5"><ellipse fill="#080100" rx="1" ry="1" transform="rotate(-170.5 39.8 55.4) scale(175.66799 35.38133)" style="animation-delay: 0.000s;"/><ellipse fill="#fffff2" rx="1" ry="1" transform="matrix(38.84022 11.4005 -7.5623 25.7639 57.5 41.4)" style="animation-delay: 0.188s;"/><ellipse fill="#d6dbe2" rx="1" ry="1" transform="matrix(62.59137 -2.851 1.46603 32.18536 184 68.7)" style="animation-delay: 0.376s;"/><path fill="#34332f" d="M261 101l-159 24 155 18z" style="animation-delay: 0.562s;"/><ellipse fill="#dbdbdc" cx="77" cy="59" rx="16" ry="35" style="animation-delay: 0.746s;"/><ellipse fill="#b9b2a3" cx="24" cy="38" rx="37" ry="31" style="animation-delay: 0.927s;"/><ellipse fill="#575450" cx="67" cy="86" rx="46" ry="19" style="animation-delay: 1.104s;"/><ellipse fill="#2a2214" rx="1" ry="1" transform="rotate(-29.8 217 15.1) scale(32.55787 43.94318)" style="animation-delay: 1.277s;"/><path fill="#5b5450" d="M64-9l42 45 114-52z" style="animation-delay: 1.445s;"/><ellipse fill="#767777" rx="1" ry="1" transform="matrix(-50.05975 -6.5905 1.39194 -10.57282 193.5 105.3)" style="animation-delay: 1.607s;"/><ellipse fill="#97999a" cx="255" cy="32" rx="101" ry="22" style="animation-delay: 1.763s;"/><ellipse fill="#dcdada" rx="1" ry="1" transform="matrix(-11.88634 .59499 -1.11862 -22.34723 168.7 69.4)" style="animation-delay: 1.912s;"/><path fill="#b4bec1" d="M199.2 83.7l9.3-24.2 80.3 30.8-9.3 24.2z" style="animation-delay: 2.054s;"/><path fill="#37312a" d="M122 143L97 39l-9 85z" style="animation-delay: 2.187s;"/><ellipse fill="#e5e7e6" rx="1" ry="1" transform="matrix(1.75786 -29.4494 10.10108 .60294 83.2 51.6)" style="animation-delay: 2.312s;"/><ellipse fill="#9d9485" rx="1" ry="1" transform="rotate(93.6 14.9 27.5) scale(8.83327 46.70451)" style="animation-delay: 2.427s;"/><path fill="#e0e8f3" d="M221.1 53L211 58.8l.5 28.7 11.7-6.3z" style="animation-delay: 2.533s;"/><ellipse fill="#b2b7c1" rx="1" ry="1" transform="matrix(13.2214 -.72733 .23963 4.3559 169.6 101.5)" style="animation-delay: 2.629s;"/><ellipse fill="#7c8088" rx="1" ry="1" transform="matrix(12.98032 12.10894 -11.56804 12.40049 76.6 82.8)" style="animation-delay: 2.714s;"/><ellipse fill="#8a8e8e" cx="255" cy="42" rx="26" ry="62" style="animation-delay: 2.789s;"/><path fill="#93959d" d="M161 25l-35 65-15-37z" style="animation-delay: 2.853s;"/><path fill="#544d42" d="M-16 71.4l50.8 24.2L89.3 125l-41-58z" style="animation-delay: 2.906s;"/><ellipse fill="#38342f" rx="1" ry="1" transform="rotate(-88.1 147 -24.3) scale(8.75882 113.84466)" style="animation-delay: 2.947s;"/><path fill="#6c7076" d="M151 64h6v37h-6z" style="animation-delay: 2.976s;"/><path fill="#453f2e" d="M48.7-2.2l-70 12.3-1.4-7.9 70-12.3z" style="animation-delay: 2.994s;"/></g></svg>