<svg xmlns="http://www.w3.org/2000/svg" viewBox="0 0 400 200"><style>@keyframes a{ from {opacity: 0} to {opacity: 1} } g > * { opacity: 0; animation: a .5s forwards; }</style><path fill="#7f7d7a" d="M0 0h400v200H0z"/><g transform="translate(.8 .8) scale(1.5625)" fill-opacity=".5"><ellipse fill="#030000" cx="50" cy="120" rx="119" ry="40" style="animation-delay: 0.000s;"/><path fill="#d8d5cf" d="M-16 62l287 29L30-1z" style="animation-delay: 0.188s;"/><ellipse fill="#c2c7ce" rx="1" ry="1" transform="rotate(168.2 89.6 43) scale(60.18308 35.48242)" style="animation-delay: 0.376s;"/><ellipse fill="#494541" rx="1" ry="1" transform="matrix(15.983 1.32166 -6.35463 76.84702 110.9 36.9)" style="animation-delay: 0.562s;"/><ellipse fill="#28241d" cx="180" cy="124" rx="254" ry="16" style="animation-delay: 0.746s;"/><ellipse fill="#fffff9" cx="75" cy="47" rx="20" ry="22" style="animation-delay: 0.927s;"/><ellipse fill="#33291a" rx="1" ry="1" transform="matrix(-2.96231 -22.4682 43.73446 -5.76615 15 90.8)" style="animation-delay: 1.104s;"/><ellipse fill="#7b7c7e" rx="1" ry="1" transform="matrix(7.43575 -17.43286 23.50478 10.02564 71.6 85.9)" style="animation-delay: 1.277s;"/><ellipse fill="#989fa1" rx="1" ry="1" transform="matrix(5.9084 -60.1689 33.30143 3.2701 251 42.8)" style="animation-delay: 1.445s;"/><ellipse fill="#6a635b" cx="113" rx="124" ry="15" style="animation-delay: 1.607s;"/><ellipse fill="#c0c1c2" rx="1" ry="1" transform="matrix(1.15771 -23.47372 48.59455 2.39665 187.5 69.3)" style="animation-delay: 1.763s;"/><ellipse fill="#646766" rx="1" ry="1" transform="matrix(-1.4713 10.74073 -46.98452 -6.43608 222.2 107.3)" style="animation-delay: 1.912s;"/><ellipse fill="#898c95" rx="1" ry="1" transform="matrix(17.03982 4.69717 -8.84781 32.09698 129.2 57.6)" style="animation-delay: 2.054s;"/><path fill="#cec6b4" d="M66.1 67.8l-39.7-5L32 18.3l39.7 5z" style="animation-delay: 2.187s;"/><path fill="#676767" d="M139 97.1l21 28.6-5-71.7-4.4 40z" style="animation-delay: 2.312s;"/><path fill="#a4adbd" d="M70 85.6l7.5-24.3 11 19.1-12.2 15z" style="animation-delay: 2.427s;"/><path fill="#8c8a89" d="M168 6.7L282.4 31 276 61.3 161.6 37z" style="animation-delay: 2.533s;"/><path fill="#443f3a" d="M110.4 127.3L98.6 40.4l-9.2 49.7L58 126z" style="animation-delay: 2.629s;"/><path fill="#524b40" d="M32 68h32v34H32z" style="animation-delay: 2.714s;"/><path fill="#35322e" d="M269 122l-153-10 82 31z" style="animation-delay: 2.789s;"/><path fill="#a49e8e" d="M3 69L-16 8l85-3z" style="animation-delay: 2.853s;"/><ellipse fill="#6c6663" cx="114" cy="14" rx="29" ry="29" style="animation-delay: 2.906s;"/><ellipse fill="#2d281d" cx="5" cy="115" rx="39" ry="46" style="animation-delay: 2.947s;"/><path fill="#e5f1ff" d="M211 61h10v23h-10z" style="animation-delay: 2.976s;"/><path fill="#a4a19c" d="M178 56h31v32h-31z" style="animation-delay: 2.994s;"/></g></svg>