<svg xmlns="http://www.w3.org/2000/svg" viewBox="0 0 400 200"><style>@keyframes a{ from {opacity: 0} to {opacity: 1} } g > * { opacity: 0; animation: a .5s forwards; }</style><path fill="#d2d2d3" d="M0 0h400v200H0z"/><path d="M153.8-.4Q95-3.1 77.8 77M43.6 24.6Q95 96.8 145.4 12m-101 38.9q96.5 51 96-52.3M41.2 43.8q83.2 58 97.8-38M38.7 33.5q73 69.4 99.3-29.6M107 109Q148 2.2 44 3.3m2.4 18.5q107.4-17.1 74.8 89.5M41.5 35.1Q126.2-24.2 145 66M68.8 77q87.5 1.4 64-72.6m6.8-7.1Q111.2 88 36.8 25.9m7.6 13.3q57.8 72.8 100.3 3m-28.9 53Q130.8-4.4 39 30m103.8 66.6Q129.6-16.7 41 43.6m73.7 70.7Q149 42.5 46.4 6.3M139.5 4q-21 96.6-99.4 36.2M47.3-3Q70 85 143.9 22.7M146 10Q82.7 97 39.8 21.5m82.3 78.6q21.1-87-78-90.4m14.5 63.5q-2.3-84.4 91.9-49.8m-17.8 70.8Q155-24.2 43.8 12m2 40.5Q122 109.3 145.8 7M61 71.6q9.8-95.8 85.6-52.7m-17.7-17Q116.8 76 45.5 26.5m65 81.4Q149 45.7 46.9 11.4m-.4 15.3Q107.3 94 137.2 5.8" stroke-width=".8" stroke="#000" stroke-opacity=".5" fill="none"/></svg>