<svg xmlns="http://www.w3.org/2000/svg" viewBox="0 0 400 200"><style>@keyframes fade { from {opacity: 0} to {opacity: 1} } ellipse, path { opacity: 0; animation: fade .5s forwards; }</style><path fill="#d2d2d3" d="M0 0h400v200H0z" style="animation-delay: 0.00s;"/><ellipse fill-opacity=".5" rx="1" ry="1" transform="matrix(-43.62446 24.18143 -32.10485 -57.91868 98 36.6)" style="animation-delay: 0.18s;"/><ellipse fill="#2b0000" fill-opacity=".5" rx="1" ry="1" transform="matrix(46.03212 -22.32899 20.9488 43.18681 92.8 30.9)" style="animation-delay: 0.36s;"/><ellipse fill="#f3f8fa" fill-opacity=".5" rx="1" ry="1" transform="matrix(140.64582 2.75701 -7.80887 398.36097 282.8 39)" style="animation-delay: 0.54s;"/><ellipse fill="#f7fbfe" fill-opacity=".5" rx="1" ry="1" transform="matrix(-115.26807 -222.60213 45.115 -23.3615 59.6 178.7)" style="animation-delay: 0.72s;"/><ellipse fill="#a9b1b0" fill-opacity=".5" rx="1" ry="1" transform="rotate(-97.3 99.9 -5) scale(17.39841 63.28147)" style="animation-delay: 0.89s;"/><ellipse fill="#491f15" fill-opacity=".5" rx="1" ry="1" transform="rotate(15.2 -54 385.2) scale(43.8966 53.65674)" style="animation-delay: 1.06s;"/><ellipse fill="#959b97" fill-opacity=".5" rx="1" ry="1" transform="matrix(-15.79594 25.83589 -15.8829 -9.71073 148.4 68)" style="animation-delay: 1.23s;"/><ellipse fill="#fbffff" fill-opacity=".5" rx="1" ry="1" transform="matrix(-34.25515 38.58087 -28.44538 -25.25606 257.8 153.2)" style="animation-delay: 1.39s;"/><ellipse fill="#f4fbfd" fill-opacity=".5" rx="1" ry="1" transform="matrix(33.56346 -77.10495 27.46948 11.95735 17.9 3.1)" style="animation-delay: 1.55s;"/><ellipse fill="#cedfdb" fill-opacity=".5" rx="1" ry="1" transform="matrix(-32.32334 2.31471 -.44353 -6.19352 70 86)" style="animation-delay: 1.70s;"/><ellipse fill="#eff1f4" fill-opacity=".5" rx="1" ry="1" transform="matrix(-15.46266 19.3062 -24.99525 -20.01911 136 175.1)" style="animation-delay: 1.85s;"/><ellipse fill="#d6d8d9" fill-opacity=".5" rx="1" ry="1" transform="matrix(3.655 102.31043 -66.90257 2.39007 372.7 172.9)" style="animation-delay: 1.99s;"/><ellipse fill="#f1f3f3" fill-opacity=".5" rx="1" ry="1" transform="matrix(-53.59217 -39.65612 30.6485 -41.41907 230.4 23.2)" style="animation-delay: 2.12s;"/><ellipse fill="#1c0000" fill-opacity=".5" rx="1" ry="1" transform="matrix(-11.09399 -6.36784 5.17495 -9.01574 114.3 45.4)" style="animation-delay: 2.25s;"/><ellipse fill="#6b8454" fill-opacity=".5" rx="1" ry="1" transform="rotate(115.2 49.9 32.2) scale(12.94526 13.43701)" style="animation-delay: 2.36s;"/><ellipse fill="#7fc3bb" fill-opacity=".5" rx="1" ry="1" transform="matrix(12.75556 10.71237 -3.04017 3.62003 56 67.7)" style="animation-delay: 2.47s;"/><ellipse fill="#b1b3b5" fill-opacity=".5" rx="1" ry="1" transform="matrix(-44.907 .07838 -.0051 -2.92167 343.3 147.3)" style="animation-delay: 2.57s;"/><ellipse fill="#afb2b3" fill-opacity=".5" rx="1" ry="1" transform="matrix(241.46602 .84288 -.00545 1.56249 312 16.5)" style="animation-delay: 2.66s;"/><ellipse fill="#575f58" fill-opacity=".5" rx="1" ry="1" transform="matrix(10.5943 4.31026 -14.54754 35.75675 58.2 13.9)" style="animation-delay: 2.74s;"/><ellipse fill="#a5a7a7" fill-opacity=".5" rx="1" ry="1" transform="matrix(-212.58383 -.37103 .00273 -1.5625 327.1 82.3)" style="animation-delay: 2.81s;"/><ellipse fill="#787f72" fill-opacity=".5" rx="1" ry="1" transform="matrix(-20.94768 13.86497 -4.88336 -7.37795 130.3 78)" style="animation-delay: 2.86s;"/><ellipse fill="#c3d2d0" fill-opacity=".5" rx="1" ry="1" transform="matrix(-37.5009 33.76597 -1.59093 -1.7669 149 49.6)" style="animation-delay: 2.91s;"/><ellipse fill="#cccfd4" fill-opacity=".5" rx="1" ry="1" transform="matrix(-15.42778 -2.89408 8.71564 -46.4614 161.3 105)" style="animation-delay: 2.95s;"/><ellipse fill="#a11938" fill-opacity=".5" rx="1" ry="1" transform="rotate(46.6 -9.3 148.2) scale(13.57261 5.51253)" style="animation-delay: 2.98s;"/><ellipse fill="#dfe0e3" fill-opacity=".5" rx="1" ry="1" transform="matrix(12.02068 -8.44745 50.55511 71.93969 88.8 132)" style="animation-delay: 2.99s;"/></svg>