<svg xmlns="http://www.w3.org/2000/svg" viewBox="0 0 400 200"><style>@keyframes a{ from {opacity: 0} to {opacity: 1} } g > * { opacity: 0; animation: a .5s forwards; }</style><path fill="#494949" d="M0 0h400v200H0z"/><g fill-opacity=".5"><path fill="#c2c2c2" d="M55.5-5.5l82.8 143.8 164-51.6z" style="animation-delay: 0.000s;"/><path d="M396-24.2L244.6 58.6l179.7 64zM94.5 69.5L-10.2-24.2-24.2 96zm4.7-71.8l198.5-22-111 73.5z" style="animation-delay: 0.261s;"/><path fill="#959595" d="M207 193L38.3 224.2l96.9-98.4z" style="animation-delay: 0.521s;"/><path d="M233.6 197.7l29.7-147 142.2-67.1z" style="animation-delay: 0.776s;"/><path fill="#b8b8b8" d="M300.8-24.2l-64 96.9L193 49.2z" style="animation-delay: 1.026s;"/><path fill="#7f7f7f" d="M418 127.3l-118.8-50-29.7 136z" style="animation-delay: 1.268s;"/><path fill="#d2d2d2" d="M174.2 33.6l-59.4 6.2 20.4 100z" style="animation-delay: 1.500s;"/><path d="M91.4-24.2L257 3.9 138.3 35.2zm-104.7 1.5l100 87.5-109.4 36zm250 73.5l134.4-34.4 53.1 109.4zM164.8 68l23.5 25L218 74.2z" style="animation-delay: 1.721s;"/><path fill="#080808" d="M314.8 108.6l-145.3 40.6L271.1 168z" style="animation-delay: 1.928s;"/><path fill="#909090" d="M144.5 83.6L99.2-24.2.8-14.8z" style="animation-delay: 2.121s;"/><path fill="#9d9d9d" d="M330.5 88.3l-86-4.7L379 130.5z" style="animation-delay: 2.298s;"/><path fill="#161616" d="M121 138.3L-2.2 125.8l114-39z" style="animation-delay: 2.457s;"/><path d="M204 41.4l84.3-65.6-175 43.7z" style="animation-delay: 2.598s;"/><path fill="#8e8e8e" d="M279 97.7l-76.7 50 20.4-118.8z" style="animation-delay: 2.719s;"/><path d="M388.3 149.2l6.2 29.7-54.7-48.4zM66.4 202.3L25.8 204l7.8-36z" style="animation-delay: 2.819s;"/><path fill="#707070" d="M116.4 224.2L68 113.2 11.7 143z" style="animation-delay: 2.898s;"/><path fill="#404040" d="M219.5 111.7L252.3 82l-93.7 36z" style="animation-delay: 2.954s;"/><path d="M107 77.3l-131.2 3.2 9.4-104.7zm131.3-35.9l182.8 86-26.6-89.1z" style="animation-delay: 2.989s;"/></g></svg>