<svg xmlns="http://www.w3.org/2000/svg" viewBox="0 0 400 200"><style>
  @keyframes fadeIn {
    from {opacity: 0}
    to {opacity: 1}
  }
  g.animated > * {
    opacity: 0;
    animation: fadeIn .5s forwards;
  }</style><path fill="#494949" d="M0 0h400v200H0z"/><g transform="translate(.8 .8) scale(1.5625)" fill-opacity=".5" class="animated"><ellipse fill="#c7c7c7" cx="113" cy="51" rx="51" ry="30" style="animation-delay: 0.00s;"/><ellipse cx="255" cy="32" rx="84" ry="33" style="animation-delay: 0.19s;"/><ellipse cy="31" rx="47" ry="27" style="animation-delay: 0.38s;"/><ellipse cx="115" rx="41" ry="27" style="animation-delay: 0.56s;"/><ellipse fill="#8f8f8f" cx="78" cy="113" rx="46" ry="21" style="animation-delay: 0.75s;"/><ellipse fill="#b0b0b0" cx="53" cy="12" rx="23" ry="16" style="animation-delay: 0.93s;"/><ellipse cx="239" cy="35" rx="81" ry="22" style="animation-delay: 1.10s;"/><ellipse fill="silver" cx="87" cy="35" rx="28" ry="16" style="animation-delay: 1.28s;"/><ellipse cx="163" cy="94" rx="17" ry="18" style="animation-delay: 1.45s;"/><ellipse fill="#797979" cx="208" cy="92" rx="27" ry="36" style="animation-delay: 1.61s;"/><ellipse cx="120" cy="49" rx="15" ry="6" style="animation-delay: 1.76s;"/><ellipse cx="23" cy="35" rx="32" ry="18" style="animation-delay: 1.91s;"/><ellipse fill="#c3c3c3" cx="90" cy="66" rx="10" ry="43" style="animation-delay: 2.05s;"/><ellipse cx="113" cy="1" rx="45" ry="20" style="animation-delay: 2.19s;"/><ellipse fill="#8d8d8d" cx="167" cy="17" rx="25" ry="10" style="animation-delay: 2.31s;"/><ellipse fill="#252525" cx="60" cy="66" rx="13" ry="34" style="animation-delay: 2.43s;"/><ellipse cx="179" cy="76" rx="18" ry="12" style="animation-delay: 2.53s;"/><ellipse cx="119" cy="11" rx="11" ry="21" style="animation-delay: 2.63s;"/><ellipse cy="29" rx="28" ry="30" style="animation-delay: 2.71s;"/><ellipse cx="255" cy="38" rx="51" ry="32" style="animation-delay: 2.79s;"/><ellipse fill="#b5b5b5" cx="146" cy="36" rx="11" ry="21" style="animation-delay: 2.85s;"/><ellipse cx="145" cy="95" rx="34" ry="5" style="animation-delay: 2.91s;"/><ellipse fill="#888" cx="181" cy="58" rx="31" ry="6" style="animation-delay: 2.95s;"/><ellipse fill="#aeaeae" cx="224" cy="70" rx="16" ry="6" style="animation-delay: 2.98s;"/><ellipse fill="#898989" cx="185" cy="5" rx="25" ry="7" style="animation-delay: 2.99s;"/></g></svg>