<svg xmlns="http://www.w3.org/2000/svg" viewBox="0 0 400 200"><style>@keyframes a{ from {opacity: 0} to {opacity: 1} } g > * { opacity: 0; animation: a .5s forwards; }</style><path fill="#697a3c" d="M0 0h400v200H0z"/><g fill-opacity=".5"><path fill="#f5e2ff" d="M232 96L279-5.4 11.6 32z" style="animation-delay: 0.000s;"/><path fill="#041300" d="M424.2 224.2L246.1 46.1l159.4-18.8z" style="animation-delay: 0.188s;"/><path fill="#000500" d="M100.8 58.6l-125-21.9 25 187.5z" style="animation-delay: 0.376s;"/><path fill="#bcc80d" d="M14.8 224.2l337.5-57.8L214.8 63.3z" style="animation-delay: 0.562s;"/><path fill="#4777c5" d="M424.2-24.2L77.3 5.5l276.6 50z" style="animation-delay: 0.746s;"/><path fill="#165cba" d="M18-24.2l-42.2 68.7L152.3 29z" style="animation-delay: 0.927s;"/><path fill="#ffe8bb" d="M254 44.5L136.6 18l67.2 96.8z" style="animation-delay: 1.104s;"/><path fill="#4a6400" d="M19.5 224.2l25-164L182 77.3z" style="animation-delay: 1.277s;"/><path fill="#608701" d="M305.5 69.5l-103.2 42.2 222 100z" style="animation-delay: 1.445s;"/><path fill="#0052a1" d="M368-24.2l56.2 46.9-107.8 15.6z" style="animation-delay: 1.607s;"/><path fill="#e5cab3" d="M232 33.6l98.5-6.3L310.2 7z" style="animation-delay: 1.763s;"/><path fill="#a2c819" d="M329 102.3L18 143l118.7 39z" style="animation-delay: 1.912s;"/><path fill="#111700" d="M418 114.8L286.7 79l137.5-67.2z" style="animation-delay: 2.054s;"/><path fill="#03035a" d="M211.7 149.2l32.8 17.2-56.2 7.8z" style="animation-delay: 2.187s;"/><path fill="#151f00" d="M-24.2 141.4l184.4-18.7L8.6 78.9z" style="animation-delay: 2.312s;"/><path fill="#fe9f3e" d="M161.7 63.3l45.3 56.2 47-48.4z" style="animation-delay: 2.427s;"/><path fill="#262909" d="M257 32l-15.6 79.7L304 35.2z" style="animation-delay: 2.533s;"/><path fill="#f8e8da" d="M194.5 24.2L96.1 66.4l153.1-6.2z" style="animation-delay: 2.629s;"/><path fill="#617c0d" d="M88.3 68L-4 224.2h125z" style="animation-delay: 2.714s;"/><path fill="#283600" d="M424.2 191.4l-115.6 31.3 28.1-50z" style="animation-delay: 2.789s;"/><path fill="#61480e" d="M169.5 119.5l92.2-6.2L157 91.4z" style="animation-delay: 2.853s;"/><path fill="#738490" d="M85.2 54L-24.2 35.1 205.5-8.6z" style="animation-delay: 2.906s;"/><path fill="#bbcb45" d="M232 143l14 45.3 79.8-36z" style="animation-delay: 2.947s;"/><path fill="#b29f85" d="M218 149.2l-75 11 21.8 18.7z" style="animation-delay: 2.976s;"/><path fill="#004b91" d="M-18-24.2L138.3-2.3-13.3 21z" style="animation-delay: 2.994s;"/></g></svg>