<svg xmlns="http://www.w3.org/2000/svg" viewBox="0 0 400 200"><style>@keyframes a{ from {opacity: 0} to {opacity: 1} } g > * { opacity: 0; animation: a .5s forwards; }</style><path fill="#697a3c" d="M0 0h400v200H0z"/><g transform="translate(.8 .8) scale(1.5625)" fill-opacity=".5"><ellipse fill="#d4d0ff" rx="1" ry="1" transform="rotate(175.8 56.5 11) scale(67.4082 29.68226)" style="animation-delay: 0.000s;"/><ellipse fill="#081900" rx="1" ry="1" transform="matrix(-70.53837 -21.97025 9.38035 -30.11685 230.8 55.5)" style="animation-delay: 0.188s;"/><ellipse fill="#000a00" rx="1" ry="1" transform="rotate(67.3 -45.1 39.8) scale(34.04459 53.01573)" style="animation-delay: 0.376s;"/><ellipse fill="#b2be11" cx="147" cy="114" rx="71" ry="71" style="animation-delay: 0.562s;"/><path fill="#367ae0" d="M177.3-2.4l81.2-31.2 16.2 42-81.2 31.2z" style="animation-delay: 0.746s;"/><ellipse fill="#ffeebc" cx="133" cy="42" rx="25" ry="25" style="animation-delay: 0.927s;"/><ellipse fill="#225fb2" rx="1" ry="1" transform="rotate(-98.7 40.1 -34.4) scale(17.28753 232.71548)" style="animation-delay: 1.104s;"/><ellipse fill="#253700" cx="242" cy="119" rx="38" ry="103" style="animation-delay: 1.277s;"/><ellipse fill="#556e00" rx="1" ry="1" transform="matrix(-68.82243 58.15946 -16.38312 -19.3868 39.1 103.7)" style="animation-delay: 1.445s;"/><path fill="#afcc20" d="M40 86h81v33H40z" style="animation-delay: 1.607s;"/><ellipse fill="#ffe7cf" cx="112" cy="32" rx="38" ry="14" style="animation-delay: 1.763s;"/><path fill="#d9c1af" d="M188.4 10l-29.5 7.6 52 5.3L199.3 2z" style="animation-delay: 1.912s;"/><ellipse fill="#23235d" rx="1" ry="1" transform="matrix(-16.6224 .51602 -.21765 -7.01108 137.1 104.7)" style="animation-delay: 2.054s;"/><ellipse fill="#004e8f" rx="1" ry="1" transform="matrix(-24.00724 7.93964 -6.37307 -19.27038 238.2 4)" style="animation-delay: 2.187s;"/><path fill="#273204" d="M167 26l104 23-125 22z" style="animation-delay: 2.312s;"/><ellipse fill="#192200" cx="3" cy="102" rx="22" ry="76" style="animation-delay: 2.427s;"/><ellipse fill="#465302" cx="77" cy="63" rx="41" ry="20" style="animation-delay: 2.533s;"/><ellipse fill="#8993a6" rx="1" ry="1" transform="matrix(30.7105 1.53134 -.49987 10.0247 42.6 23.4)" style="animation-delay: 2.629s;"/><ellipse fill="#699810" rx="1" ry="1" transform="matrix(-29.66244 -22.67865 11.37041 -14.87188 206 85.7)" style="animation-delay: 2.714s;"/><path fill="#ffad47" d="M113 41h44v23h-44z" style="animation-delay: 2.789s;"/><ellipse rx="1" ry="1" transform="rotate(150.3 123.8 47.9) scale(24.62095 12.30517)" style="animation-delay: 2.853s;"/><path fill="#13330d" d="M111 123h56v5h-56z" style="animation-delay: 2.906s;"/><ellipse fill="#bde402" cx="127" cy="82" rx="39" ry="6" style="animation-delay: 2.947s;"/><path fill="#607b07" d="M59 40l76 37L-2 51z" style="animation-delay: 2.976s;"/><path fill="#bbcd3e" d="M206.9 97.8L134.6 91l33.2 27.9 2.7-3.5z" style="animation-delay: 2.994s;"/></g></svg>