<svg xmlns="http://www.w3.org/2000/svg" viewBox="0 0 400 200"><style>@keyframes a{ from {opacity: 0} to {opacity: 1} } g > * { opacity: 0; animation: a .5s forwards; }</style><path fill="#697a3c" d="M0 0h400v200H0z"/><g fill-opacity=".5"><path fill="#f9eaff" d="M97.7 8.6h154.6V71H97.7z" style="animation-delay: 0.000s;"/><path fill="#002114" d="M332 .8h68.8v200H332z" style="animation-delay: 0.188s;"/><path fill="#081500" d="M.8 47.7h65.6v153H.8z" style="animation-delay: 0.376s;"/><path fill="#a4c108" d="M44.5 119.5h306.3V193H44.5z" style="animation-delay: 0.562s;"/><path fill="#fff6ac" d="M175.8 36.7H243v65.6h-67.2z" style="animation-delay: 0.746s;"/><path fill="#4b7ed3" d="M.8.8h400v37.5H.8z" style="animation-delay: 0.927s;"/><path fill="#171d00" d="M250.8 43h150v61h-150z" style="animation-delay: 1.104s;"/><path fill="#263700" d="M.8 69.5h151.5v64H.8z" style="animation-delay: 1.277s;"/><path fill="#ffe3c8" d="M146 24.2h70.4v50h-70.3z" style="animation-delay: 1.445s;"/><path fill="#8398ae" d="M296 10.2h53.2v43.7h-53.1z" style="animation-delay: 1.607s;"/><path fill="#a0aa02" d="M150.8 88.3h146.9v64h-147z" style="animation-delay: 1.763s;"/><path fill="#dec6b4" d="M254 8.6h62.4V32H254z" style="animation-delay: 1.912s;"/><path fill="#140c5c" d="M191.4 157h45.3v17.2h-45.3z" style="animation-delay: 2.054s;"/><path fill="#a4a7b7" d="M41.4 30.5h117.2v21.8H41.4z" style="animation-delay: 2.187s;"/><path fill="#ffb054" d="M179 64.8h54.6v40.7h-54.7z" style="animation-delay: 2.312s;"/><path fill="#4d6004" d="M316.4 94.5h79.7v106.3h-79.7z" style="animation-delay: 2.427s;"/><path fill="#b4c930" d="M111.7 129h86v59.3h-86z" style="animation-delay: 2.533s;"/><path fill="#0a4e83" d="M.8.8h132.8v21.9H.8z" style="animation-delay: 2.629s;"/><path fill="#111600" d="M375.8 27.3h25v107.9h-25z" style="animation-delay: 2.714s;"/><path fill="#060d00" d="M.8 54h87.5v14H.8z" style="animation-delay: 2.789s;"/><path fill="#5d6e03" d="M75.8 80.5h104.7v29.7H75.8z" style="animation-delay: 2.853s;"/><path fill="#101413" d="M258.6 33.6h42.2V71h-42.2z" style="animation-delay: 2.906s;"/><path fill="#005d99" d="M329 .8h71.8v29.7h-71.9z" style="animation-delay: 2.947s;"/><path fill="#090900" d="M.8 89.8h59.4v48.5H.8z" style="animation-delay: 2.976s;"/><path fill="#cecb5a" d="M239.8 149.2H279v36h-39z" style="animation-delay: 2.994s;"/></g></svg>