<svg xmlns="http://www.w3.org/2000/svg" viewBox="0 0 400 200"><style>@keyframes a{ from {opacity: 0} to {opacity: 1} } g > * { opacity: 0; animation: a .5s forwards; }</style><path fill="#697a3c" d="M0 0h400v200H0z"/><g stroke-opacity=".5" fill="none" stroke-width=".8"><path stroke="#ffeaff" d="M333.4 10.8Q145.9 89.5 31 30.9" style="animation-delay: 0.000s;"/><path stroke="#fff9ff" d="M45.8 34.6q201.3 67.3 227.5-28" style="animation-delay: 0.188s;"/><path stroke="#fff6ff" d="M270.7 6.6Q246.5 93.2 52 23.6" style="animation-delay: 0.376s;"/><path stroke="#f5e4ff" d="M326.3 3Q209.8 75.4 64.6 38.5" style="animation-delay: 0.562s;"/><path stroke="#fff2ff" d="M289.6-20.4Q250.7 106.6 61.7 34" style="animation-delay: 0.746s;"/><path stroke="#f7e8ff" d="M348-13.7Q203 79.5 94.2 33.5" style="animation-delay: 0.927s;"/><path stroke="#ffe1f7" d="M21.9 35.5q229.8 66 251-21" style="animation-delay: 1.104s;"/><path stroke="#e9dfff" d="M49.8 24.3q40.9 39 276-2.2" style="animation-delay: 1.277s;"/><path stroke="#f9ebff" d="M318.5 18.1q-196.6 36.6-221 14" style="animation-delay: 1.445s;"/><path stroke="#f8f6ff" d="M49 32.7q195-14.5 193.2 53.8" style="animation-delay: 1.607s;"/><path stroke="#fff" d="M278.3 11Q260.1 72.3 88 53.8" style="animation-delay: 1.763s;"/><path stroke="#fae0f5" d="M397.2-24.2Q122.3 109.2 79.9 46.4" style="animation-delay: 1.912s;"/><path stroke="#fff" d="M62 36.9q163.8-19.4 174 52.3" style="animation-delay: 2.054s;"/><path stroke="#fff9ff" d="M70 29.1q181.4-15.4 175.2 61.7" style="animation-delay: 2.187s;"/><path stroke="#0e5fe3" d="M424.2 6.6Q360.1 3.1 3.1 4" style="animation-delay: 2.312s;"/><path stroke="#5285ee" d="M424.2-.1q-272.5-5.6-266.7 77" style="animation-delay: 2.427s;"/><path stroke="#e9ddff" d="M81 39.6Q229.6 73 350.6-24.2" style="animation-delay: 2.533s;"/><path stroke="#fffbff" d="M58.7 36.4Q64 56.7 254.3 57.6" style="animation-delay: 2.629s;"/><path stroke="#f8f4ff" d="M280.4-13Q226 100.5 93.8 18.7" style="animation-delay: 2.714s;"/><path stroke="#ffefff" d="M232.3 97.8q.5-79.3-182.8-56" style="animation-delay: 2.789s;"/><path stroke="#2d77eb" d="M402.1 14Q-4.4 10-20.4 5.3" style="animation-delay: 2.853s;"/><path stroke="#89a8fb" d="M36.1 23.5q189.1 1.6 342.6.8" style="animation-delay: 2.906s;"/><path stroke="#feeeff" d="M229.1 100.9q4.7-93-163.9-68" style="animation-delay: 2.947s;"/><path stroke="#f3ecff" d="M240.4 88.3Q239.3 8 44.3 37.6" style="animation-delay: 2.976s;"/><path stroke="#fffcf9" d="M261 3.3q-19.6 87-156.6 57.2" style="animation-delay: 2.994s;"/></g></svg>