<svg xmlns="http://www.w3.org/2000/svg" viewBox="0 0 400 200"><style>@keyframes a{ from {opacity: 0} to {opacity: 1} } g > * { opacity: 0; animation: a .5s forwards; }</style><path fill="#697a3c" d="M0 0h400v200H0z"/><ellipse fill="#d8d2ff" fill-opacity=".5" rx="1" ry="1" transform="matrix(98.74516 -6.73068 3.7318 54.74876 179.4 24.4)"/><ellipse fill="#061600" fill-opacity=".5" rx="1" ry="1" transform="matrix(-134.26783 -56.16545 18.75247 -44.82923 387.9 103.3)"/><ellipse fill="#010d00" fill-opacity=".5" rx="1" ry="1" transform="matrix(-39.13672 -48.10246 71.88448 -58.48604 .8 120.5)"/><ellipse fill="#fff1af" fill-opacity=".5" rx="1" ry="1" transform="matrix(20.35265 -32.75273 39.65818 24.64371 203.6 62.6)"/><ellipse fill="#b9d50b" fill-opacity=".5" rx="1" ry="1" transform="matrix(5.7673 40.02234 -123.40894 17.7835 202.6 156.1)"/><ellipse fill="#3876d9" fill-opacity=".5" rx="1" ry="1" transform="matrix(70.97012 -32.027 18.37126 40.70973 350 .8)"/><ellipse fill="#2461b3" fill-opacity=".5" rx="1" ry="1" transform="matrix(-3.94293 -26.07138 310.07255 -46.89406 137.4 .7)"/><ellipse fill="#405400" fill-opacity=".5" rx="1" ry="1" transform="matrix(9.01153 30.70885 -68.70552 20.16168 109.7 106.3)"/><ellipse fill="#060b00" fill-opacity=".5" rx="1" ry="1" transform="matrix(70.01216 -22.2303 10.67747 33.62765 399.2 62.7)"/><ellipse fill="#527200" fill-opacity=".5" rx="1" ry="1" transform="matrix(-91.15174 -75.0097 21.22424 -25.79168 342.9 147.7)"/><ellipse fill="#ffad3b" fill-opacity=".5" rx="1" ry="1" transform="matrix(-7.2738 -20.88752 32.13627 -11.19103 207.7 87.6)"/><ellipse fill="#6c8c00" fill-opacity=".5" rx="1" ry="1" transform="matrix(-35.72754 -17.39156 26.1083 -53.63436 64.2 176.8)"/><ellipse fill="#010055" fill-opacity=".5" rx="1" ry="1" transform="matrix(23.64508 -1.7317 .6378 8.70871 214.1 166.8)"/><ellipse fill="#ffefed" fill-opacity=".5" rx="1" ry="1" transform="rotate(-179.3 93.8 25) scale(53.64905 14.5822)"/><ellipse fill="#e7c6aa" fill-opacity=".5" rx="1" ry="1" transform="rotate(-97.9 158.9 -117.7) scale(8.53742 31.36629)"/><ellipse fill="#a4aab6" fill-opacity=".5" rx="1" ry="1" transform="matrix(-76.30536 1.60186 -.28458 -13.55627 104.2 40.1)"/><ellipse fill="#005093" fill-opacity=".5" rx="1" ry="1" transform="matrix(44.44019 -10.34156 5.1604 22.17548 375.7 10)"/><ellipse fill="#95b321" fill-opacity=".5" rx="1" ry="1" transform="matrix(-21.74225 47.34056 -44.49387 -20.43484 288.5 152.9)"/><ellipse fill="#131c00" fill-opacity=".5" rx="1" ry="1" transform="rotate(29.3 -177 57.6) scale(53.82088 48.83975)"/><ellipse fill="#343d09" fill-opacity=".5" rx="1" ry="1" transform="rotate(-125.1 240.8 1.3) scale(40.37717 74.61111)"/><ellipse fill="#405600" fill-opacity=".5" rx="1" ry="1" transform="matrix(-.55302 -20.1785 60.79166 -1.66607 48 74.7)"/><ellipse fill="#202900" fill-opacity=".5" rx="1" ry="1" transform="matrix(-3.44282 -14.96582 44.75813 -10.2964 13.2 199.2)"/><ellipse fill="#0a5289" fill-opacity=".5" rx="1" ry="1" transform="matrix(-.35803 16.6311 -96.63443 -2.0803 40.6 .8)"/><ellipse fill="#919ea7" fill-opacity=".5" rx="1" ry="1" transform="matrix(103.8394 -1.20017 .14418 12.4744 226.2 20.2)"/><ellipse fill-opacity=".5" rx="1" ry="1" transform="matrix(-.17091 -7.20666 25.888 -.61395 120.3 120.9)"/></svg>