<svg xmlns="http://www.w3.org/2000/svg" viewBox="0 0 400 200"><style>
  @keyframes fadeIn {
    from {opacity: 0}
    to {opacity: 1}
  }
  g.animated > * {
    opacity: 0;
    animation: fadeIn .5s forwards;
  }</style><path fill="#857a71" d="M0 0h400v200H0z"/><g transform="translate(.8 .8) scale(1.5625)" fill-opacity=".5" class="animated"><ellipse fill="#fff" cx="60" rx="128" ry="19" style="animation-delay: 0.00s;"/><ellipse fill="#2b341a" cx="219" cy="33" rx="58" ry="34" style="animation-delay: 0.19s;"/><ellipse fill="#fff" cx="99" cy="18" rx="14" ry="48" style="animation-delay: 0.38s;"/><ellipse fill="#353d2b" cx="38" cy="39" rx="39" ry="23" style="animation-delay: 0.56s;"/><ellipse fill="#a3cbfb" cx="147" cy="42" rx="20" ry="21" style="animation-delay: 0.75s;"/><ellipse fill="#5a3625" cx="32" cy="123" rx="91" ry="26" style="animation-delay: 0.93s;"/><ellipse fill="azure" cx="16" rx="173" ry="16" style="animation-delay: 1.10s;"/><ellipse fill="#0b0e1b" cx="107" cy="79" rx="10" ry="18" style="animation-delay: 1.28s;"/><ellipse fill="#d6aa95" cx="214" cy="76" rx="63" ry="14" style="animation-delay: 1.45s;"/><ellipse fill="#080f05" cx="206" cy="57" rx="50" ry="6" style="animation-delay: 1.61s;"/><ellipse fill="#475978" cx="123" cy="57" rx="16" ry="34" style="animation-delay: 1.76s;"/><ellipse fill="#f3ffff" cx="131" rx="24" ry="20" style="animation-delay: 1.91s;"/><ellipse fill="#c3a094" cx="74" cy="71" rx="20" ry="22" style="animation-delay: 2.05s;"/><ellipse fill="#494531" cy="54" rx="20" ry="33" style="animation-delay: 2.19s;"/><ellipse fill="#797d82" cx="92" cy="16" rx="31" ry="4" style="animation-delay: 2.31s;"/><ellipse fill="#f8ffff" cx="101" cy="53" rx="8" ry="14" style="animation-delay: 2.43s;"/><ellipse fill="#d5e9ff" cx="8" rx="24" ry="22" style="animation-delay: 2.53s;"/><ellipse fill="#b8aaa8" cx="159" cy="79" rx="11" ry="27" style="animation-delay: 2.63s;"/><ellipse fill="#c09f91" cx="208" cy="38" rx="22" ry="4" style="animation-delay: 2.71s;"/><ellipse fill="#3b2c2a" cx="139" cy="76" rx="15" ry="8" style="animation-delay: 2.79s;"/><ellipse fill="#986c59" cx="219" cy="113" rx="105" ry="31" style="animation-delay: 2.85s;"/><ellipse fill="#9cb0ca" cx="140" cy="44" rx="25" ry="12" style="animation-delay: 2.91s;"/><ellipse fill="#061808" cx="179" cy="52" rx="14" ry="9" style="animation-delay: 2.95s;"/><ellipse fill="#847863" cx="185" cy="13" rx="20" ry="9" style="animation-delay: 2.98s;"/><ellipse fill="#876454" cx="47" cy="99" rx="58" ry="14" style="animation-delay: 2.99s;"/></g></svg>