<svg xmlns="http://www.w3.org/2000/svg" viewBox="0 0 400 200"><style>
  @keyframes fadeIn {
    from {opacity: 0}
    to {opacity: 1}
  }
  g.animated > * {
    opacity: 0;
    animation: fadeIn .5s forwards;
  }</style><path fill="#857a71" d="M0 0h400v200H0z"/><g class="animated"><ellipse fill="#fff" fill-opacity=".5" rx="1" ry="1" transform="matrix(.00513 30.03455 -183.19642 .03127 112.1 .8)" style="animation-delay: 0.00s;"/><ellipse fill="#1d2a0e" fill-opacity=".5" rx="1" ry="1" transform="rotate(-96.2 206.5 -130.6) scale(42.56184 101.18701)" style="animation-delay: 0.19s;"/><ellipse fill="#fff" fill-opacity=".5" rx="1" ry="1" transform="matrix(-21.4824 .70257 -2.65367 -81.14061 153.7 20.7)" style="animation-delay: 0.38s;"/><ellipse fill="#3a3f2e" fill-opacity=".5" rx="1" ry="1" transform="matrix(67.57589 -24.77418 12.27725 33.48834 56.3 67.2)" style="animation-delay: 0.56s;"/><ellipse fill="#c7daf2" fill-opacity=".5" rx="1" ry="1" transform="matrix(17.80029 -9.09418 55.95982 109.53164 212 27.7)" style="animation-delay: 0.75s;"/><ellipse fill="#6a4334" fill-opacity=".5" rx="1" ry="1" transform="matrix(2.6261 37.55505 -158.47448 11.08162 73.2 177.1)" style="animation-delay: 0.93s;"/><ellipse fill="#eaffff" fill-opacity=".5" rx="1" ry="1" transform="matrix(242.26339 -2.42442 .27143 27.12327 61.2 .8)" style="animation-delay: 1.10s;"/><ellipse fill="#293248" fill-opacity=".5" rx="1" ry="1" transform="matrix(-5.91403 -23.37203 36.39042 -9.2082 185.5 117.6)" style="animation-delay: 1.28s;"/><ellipse fill="#dbab95" fill-opacity=".5" rx="1" ry="1" transform="rotate(.9 -7511 22412.9) scale(90.15922 16.36773)" style="animation-delay: 1.45s;"/><ellipse fill="#bf9b8e" fill-opacity=".5" rx="1" ry="1" transform="matrix(23.58714 33.14905 -24.97579 17.77147 119.7 123.5)" style="animation-delay: 1.61s;"/><ellipse fill="#000600" fill-opacity=".5" rx="1" ry="1" transform="matrix(18.22201 -7.4793 4.80912 11.71659 275 86.7)" style="animation-delay: 1.76s;"/><ellipse fill="#87a6cf" fill-opacity=".5" rx="1" ry="1" transform="matrix(-37.467 10.20463 -7.09961 -26.06671 223.8 69)" style="animation-delay: 1.91s;"/><ellipse fill="#585746" fill-opacity=".5" rx="1" ry="1" transform="matrix(.79664 30.36409 -93.87432 2.4629 341.3 30.6)" style="animation-delay: 2.05s;"/><ellipse fill="#d6e6ff" fill-opacity=".5" rx="1" ry="1" transform="matrix(-71.3919 28.69936 -8.5552 -21.28173 51.2 .9)" style="animation-delay: 2.19s;"/><ellipse fill="#9f8d78" fill-opacity=".5" rx="1" ry="1" transform="matrix(-.86303 5.98902 -69.1336 -9.9623 333.3 61.7)" style="animation-delay: 2.31s;"/><ellipse fill="#b58e7d" fill-opacity=".5" rx="1" ry="1" transform="matrix(-4.48868 -20.5609 87.91762 -19.19345 267.2 141)" style="animation-delay: 2.43s;"/><ellipse fill="#151710" fill-opacity=".5" rx="1" ry="1" transform="rotate(90.9 128.2 217) scale(6.71353 100.28903)" style="animation-delay: 2.53s;"/><ellipse fill="#7e7f85" fill-opacity=".5" rx="1" ry="1" transform="matrix(-44.80729 .17988 -.02194 -5.4643 147 26.4)" style="animation-delay: 2.63s;"/><ellipse fill="#e9f0f6" fill-opacity=".5" rx="1" ry="1" transform="matrix(10.93828 30.76414 -11.00746 3.91374 156.7 71.1)" style="animation-delay: 2.71s;"/><ellipse fill="#2c384b" fill-opacity=".5" rx="1" ry="1" transform="matrix(-13.32684 71.10274 -4.62402 -.86668 178.6 89.2)" style="animation-delay: 2.79s;"/><ellipse fill="#40271a" fill-opacity=".5" rx="1" ry="1" transform="matrix(-10.9097 20.95223 -28.62962 -14.90727 71.2 199.2)" style="animation-delay: 2.85s;"/><ellipse fill="#514d3b" fill-opacity=".5" rx="1" ry="1" transform="rotate(94.1 -38.4 42) scale(48.71307 36.14742)" style="animation-delay: 2.91s;"/><ellipse fill="#fbffff" fill-opacity=".5" rx="1" ry="1" transform="matrix(-3.37905 -9.15817 48.06053 -17.73267 238.9 13.6)" style="animation-delay: 2.95s;"/><ellipse fill="#293822" fill-opacity=".5" rx="1" ry="1" transform="matrix(33.19156 -11.10574 4.92657 14.72397 85 74.4)" style="animation-delay: 2.98s;"/><ellipse fill="#906553" fill-opacity=".5" rx="1" ry="1" transform="matrix(-5.051 -25.98517 118.73517 -23.07978 300.7 178)" style="animation-delay: 2.99s;"/></g></svg>