<svg xmlns="http://www.w3.org/2000/svg" viewBox="0 0 400 200"><style>@keyframes fade { from {opacity: 0} to {opacity: 1} } ellipse, path { opacity: 0; animation: fade .5s forwards; }</style><path fill="#857a71" d="M0 0h400v200H0z" style="animation-delay: 0.00s;"/><path fill="#fff" fill-opacity=".5" d="M0-21l277.9-9.6 1.8 53-278 9.8z" style="animation-delay: 0.18s;"/><path fill="#212c10" fill-opacity=".5" d="M258.6 13.2l164-3 1.6 87.6-164 2.8z" style="animation-delay: 0.36s;"/><path fill="#cbe2fb" fill-opacity=".5" d="M148 103.9L117-4.3l102.2-29.3 31 108.2z" style="animation-delay: 0.54s;"/><path fill="#353a26" fill-opacity=".5" d="M-29.5 75.6l117-52.1L112.3 79l-117 52.1z" style="animation-delay: 0.72s;"/><path fill="#0f1528" fill-opacity=".5" d="M174 150.7l-19.7-5.3L184 35.3l19.6 5.2z" style="animation-delay: 0.89s;"/><path fill="#553220" fill-opacity=".5" d="M-51.4 138.5l243.2 43-13.9 78.4L-65.2 217z" style="animation-delay: 1.06s;"/><path fill="azure" fill-opacity=".5" d="M3 29.4L.4-17.4l198.1-10.4L201 19z" style="animation-delay: 1.23s;"/><path fill="#fff" fill-opacity=".5" d="M196.4 34L186-2l106.7-30.5 10.3 36z" style="animation-delay: 1.39s;"/><path fill="#daaf9c" fill-opacity=".5" d="M424.2 100v32.8H239.8V100z" style="animation-delay: 1.55s;"/><path fill="#fdf9f4" fill-opacity=".5" d="M173 103.3l-26.3 3.7-8.7-61.9 26.3-3.7z" style="animation-delay: 1.70s;"/><path fill="#88a4c4" fill-opacity=".5" d="M268.5 59.6l-37.5 48-48-37.5 37.5-48z" style="animation-delay: 1.85s;"/><path fill="#c9a696" fill-opacity=".5" d="M292 61l1.3-7.8L372 65.7l-1.2 7.7z" style="animation-delay: 1.99s;"/><path fill="#b49184" fill-opacity=".5" d="M146.9 142.4l-120-8.4 2.8-40.5 120 8.4z" style="animation-delay: 2.12s;"/><path fill="#3a3d4b" fill-opacity=".5" d="M163.5 150.1l-13.3-38.4 75.4-26 13.2 38.5z" style="animation-delay: 2.25s;"/><path fill="#041406" fill-opacity=".5" d="M262 68.8l45.1 3.1-1.8 26.5-45.2-3.1z" style="animation-delay: 2.36s;"/><path fill="#d0a592" fill-opacity=".5" d="M314.1 16l2.6 9-48 13.7-2.6-9z" style="animation-delay: 2.47s;"/><path fill="#22331c" fill-opacity=".5" d="M136.8 62.7L77.5 94.3l-9.6-18 59.3-31.5z" style="animation-delay: 2.57s;"/><path fill="#000300" fill-opacity=".5" d="M400 96.1l-89 1.6-.2-11 89.1-1.5z" style="animation-delay: 2.66s;"/><path fill="#7f8499" fill-opacity=".5" d="M195 37.6l17 3L194 142l-16.9-3z" style="animation-delay: 2.74s;"/><path fill="#996c59" fill-opacity=".5" d="M405.4 228.5l-219.5 19.2-8.5-96.5L397 132z" style="animation-delay: 2.81s;"/><path fill="#bdaaa2" fill-opacity=".5" d="M267.1 176.6l-36.9-12.7 19.8-57.7 37 12.8z" style="animation-delay: 2.86s;"/><path fill="#ecc6b2" fill-opacity=".5" d="M105.8 108.4l-9.8-7.7L123.9 65l9.8 7.7z" style="animation-delay: 2.91s;"/><path fill="#845f50" fill-opacity=".5" d="M162.8 147.2l-7.6 43.1L4.4 163.7l7.6-43z" style="animation-delay: 2.95s;"/><path fill="#66635c" fill-opacity=".5" d="M131.2 45.4l-140 12.2-2.1-23.3L129 22z" style="animation-delay: 2.98s;"/><path fill="#aebcce" fill-opacity=".5" d="M228.8 61.7l33.6 7.2-8.4 39.7-33.6-7.1z" style="animation-delay: 2.99s;"/></svg>