<svg xmlns="http://www.w3.org/2000/svg" viewBox="0 0 400 200"><style>@keyframes fade { from {opacity: 0} to {opacity: 1} } ellipse, path { opacity: 0; animation: fade .5s forwards; }</style><path fill="#857a71" d="M0 0h400v200H0z"/><g fill-opacity=".5"><path fill="#fff" d="M.8.8h271.9v28.1H.7z" style="animation-delay: 0.00s;"/><path fill="#202b0f" d="M260.2 13.3h140.6v86H260.2z" style="animation-delay: 0.19s;"/><path fill="#bfd5ef" d="M132 .8h125V96H132z" style="animation-delay: 0.38s;"/><path fill="#613f32" d="M.8 139.8h184.4v61H.8z" style="animation-delay: 0.56s;"/><path fill="#353d2a" d="M.8 35.2h107.8v59.3H.8z" style="animation-delay: 0.75s;"/><path fill="#37425c" d="M172.7 39.8h42.1v97h-42.1z" style="animation-delay: 0.93s;"/><path fill="#d8ad98" d="M243 100.8h157.8v37.5H243z" style="animation-delay: 1.10s;"/><path fill="#f4ffff" d="M.8.8h257.8v23.4H.8z" style="animation-delay: 1.28s;"/><path fill="#fff" d="M144.5 39.8h25V104h-25z" style="animation-delay: 1.45s;"/><path fill="#0a0910" d="M154 105.5h26.5v45.3h-26.6z" style="animation-delay: 1.61s;"/><path fill="#726550" d="M224.2 22.7h140.6v17.1H224.2z" style="animation-delay: 1.76s;"/><path fill="#bc988c" d="M89.8 82h56.3v73.5H89.8z" style="animation-delay: 1.91s;"/><path fill="#e7f8ff" d="M7 .8h289v9.4H7z" style="animation-delay: 2.05s;"/><path fill="#0a1208" d="M258.6 82h142.2v15.7H258.6z" style="animation-delay: 2.19s;"/><path fill="#ac967c" d="M288.3 55.5h78.1V71h-78.1z" style="animation-delay: 2.31s;"/><path fill="#5b5c51" d="M39.8 27.3H132v45.4H39.8z" style="animation-delay: 2.43s;"/><path fill="#4d3521" d="M.8 91.4h26.5v43.8H.8z" style="animation-delay: 2.53s;"/><path fill="#f4ffff" d="M.8 24.2H32v11H.8z" style="animation-delay: 2.63s;"/><path fill="#797675" d="M118 21h75v8h-75z" style="animation-delay: 2.71s;"/><path fill="#97b3d5" d="M188.3 55.5h73.4v25h-73.4z" style="animation-delay: 2.79s;"/><path fill="#ddd7d0" d="M130.5 30.5h48.4V57h-48.4z" style="animation-delay: 2.85s;"/><path fill="#9d705d" d="M189.8 133.6h211v67.2h-211z" style="animation-delay: 2.91s;"/><path fill="#b7c8d9" d="M233.6 127.3h15.6v37.5h-15.6z" style="animation-delay: 2.95s;"/><path fill="#422519" d="M47.7 177.3h53v23.5h-53z" style="animation-delay: 2.98s;"/><path fill="#4d5d6f" d="M130.5 55.5H143v61h-12.5z" style="animation-delay: 2.99s;"/></g></svg>