<svg xmlns="http://www.w3.org/2000/svg" viewBox="0 0 400 200"><style>@keyframes fade { from {opacity: 0} to {opacity: 1} } ellipse, path { opacity: 0; animation: fade .5s forwards; }</style><path fill="#857a71" d="M0 0h400v200H0z"/><g fill-opacity=".5"><path fill="#fff" d="M-5-4l-19.2 26 199.8 22.3L310.4 1z" style="animation-delay: 0.00s;"/><path fill="#1c290e" d="M256 97.5l168.2 3.3-28.6-117.3-128.4 61.8z" style="animation-delay: 0.19s;"/><path fill="#f8ffff" d="M149.1 99.5L120-2.8l70.7-21.4-24.6 130z" style="animation-delay: 0.38s;"/><path fill="#3b3f2f" d="M126.9 24.1l13.7 41L1.1 129l-25.3-90z" style="animation-delay: 0.56s;"/><path fill="#cfe3f9" d="M272.3 156.9L247.7 33l44.5-57.2H163z" style="animation-delay: 0.75s;"/><path fill="#4d332c" d="M132 151.7l50.2-65 6.7 137.5-213.1-32.4z" style="animation-delay: 0.93s;"/><path fill="#eff" d="M63.9 26.2L302.7 7.9 18.9-24.2l-43.1 64.6z" style="animation-delay: 1.10s;"/><path fill="#d1a590" d="M424.2 99l-25.1 30.6-174 27.6 34.9-53.7z" style="animation-delay: 1.28s;"/><path fill="#6a6956" d="M345.4 91.7l71.2-116-237.2 64.4-4-20.2z" style="animation-delay: 1.45s;"/><path fill="#2f3647" d="M147.7 107l12.2 46.2 86.4-37.1-29.9-17.4z" style="animation-delay: 1.61s;"/><path fill="#cda696" d="M44.9 133.3l81-62.3 9 94.8 24.2-43.1z" style="animation-delay: 1.76s;"/><path fill="#121a0f" d="M419 93.3l-108.2-8.7L268.9 56l-13.3 45.6z" style="animation-delay: 1.91s;"/><path fill="#8093b0" d="M177.5 158.4L239 34.6 81.4 11.2l109.8 36z" style="animation-delay: 2.05s;"/><path fill="#bd9b89" d="M359 51.2L356.5 76l67.7-7.9-133.5-2.7z" style="animation-delay: 2.19s;"/><path fill="#815c4c" d="M-24.2 112l208.6 43.2 192.4 53.9-401-22.7z" style="animation-delay: 2.31s;"/><path fill="#122c4d" d="M191.3 35.1L170.5 68l4.7 40.2 3.6 22.8z" style="animation-delay: 2.43s;"/><path fill="#eef0f5" d="M175.4 45.3L140.7 47l6.1 57.4 13.5-3.3z" style="animation-delay: 2.53s;"/><path fill="#23361d" d="M110 54.9l3.2 24.6-29.6 14.7L41 72z" style="animation-delay: 2.63s;"/><path fill="#8d6250" d="M297.8 192.4l121.2-23-21.7-25.6-134-12z" style="animation-delay: 2.71s;"/><path fill="#feffff" d="M329.2-24.2L246.6 26l-32-50.2-24.8 62.4z" style="animation-delay: 2.79s;"/><path fill="#8fa8c8" d="M218.1 39.5l-34.9 33.3 74.6 36.9 3-66.5z" style="animation-delay: 2.85s;"/><path fill="#957a6f" d="M133 173.3l75.3 6L39 81.1l-21.4 47.5z" style="animation-delay: 2.91s;"/><path fill="#7a716b" d="M137.4 26.2l-74-1.4-87.6 22.9 140.3 11z" style="animation-delay: 2.95s;"/><path fill="#192515" d="M352.2 94.9l72 3.8-69.5-49.6 69.5-35.3z" style="animation-delay: 2.98s;"/><path fill="#dcedff" d="M94.6-24.2L2.5 11.4l112.5 18 4.4-1.4z" style="animation-delay: 2.99s;"/></g></svg>