<svg xmlns="http://www.w3.org/2000/svg" viewBox="0 0 400 200"><style>@keyframes a{ from {opacity: 0} to {opacity: 1} } g > * { opacity: 0; animation: a .5s forwards; }</style><path fill="#acc0ca" d="M0 0h400v200H0z"/><g transform="translate(.8 .8) scale(1.5625)" fill-opacity=".5"><ellipse fill="#fef5ec" cx="203" cy="127" rx="52" ry="52" style="animation-delay: 0.000s;"/><ellipse fill="#6394ac" cx="18" cy="23" rx="57" ry="57" style="animation-delay: 0.188s;"/><ellipse fill="#f3efeb" cx="112" cy="127" rx="52" ry="52" style="animation-delay: 0.376s;"/><ellipse fill="#7ba3bb" cx="201" cy="24" rx="56" ry="56" style="animation-delay: 0.562s;"/><ellipse fill="#c7cccd" cx="94" cy="53" rx="39" ry="39" style="animation-delay: 0.746s;"/><ellipse fill="#e1d9d3" cx="249" cy="81" rx="28" ry="28" style="animation-delay: 0.927s;"/><ellipse fill="#3f8bb2" cx="6" cy="5" rx="19" ry="19" style="animation-delay: 1.104s;"/><ellipse fill="#000d08" cx="134" cy="42" rx="3" ry="3" style="animation-delay: 1.277s;"/><ellipse cx="232" cy="41" rx="3" ry="3" style="animation-delay: 1.445s;"/><ellipse fill="#9db1ba" cx="184" cy="75" rx="23" ry="23" style="animation-delay: 1.607s;"/><ellipse fill="#000402" cx="52" cy="75" rx="3" ry="3" style="animation-delay: 1.763s;"/><ellipse fill="#000500" cx="219" cy="73" rx="3" ry="3" style="animation-delay: 1.912s;"/><ellipse fill="#86aec2" cy="108" rx="30" ry="30" style="animation-delay: 2.054s;"/><ellipse fill="#00201b" cx="84" cy="42" rx="3" ry="3" style="animation-delay: 2.187s;"/><ellipse fill="#000505" cx="92" cy="75" rx="3" ry="3" style="animation-delay: 2.312s;"/><ellipse fill="#0c2c25" cx="71" cy="63" rx="3" ry="3" style="animation-delay: 2.427s;"/><ellipse fill="#17342e" cx="71" cy="75" rx="3" ry="3" style="animation-delay: 2.533s;"/><ellipse fill="#46595b" cx="108" cy="76" rx="4" ry="4" style="animation-delay: 2.629s;"/><ellipse cx="247" cy="52" rx="3" ry="3" style="animation-delay: 2.714s;"/><ellipse fill="#0a2f2b" cx="121" cy="62" rx="3" ry="3" style="animation-delay: 2.789s;"/><ellipse fill="#bfd1da" cx="126" cy="8" rx="31" ry="31" style="animation-delay: 2.853s;"/><ellipse fill="#152f2c" cx="119" cy="42" rx="3" ry="3" style="animation-delay: 2.906s;"/><ellipse fill="#75a4c2" cx="228" rx="30" ry="30" style="animation-delay: 2.947s;"/><ellipse fill="#011b10" cx="188" cy="76" rx="3" ry="3" style="animation-delay: 2.976s;"/><ellipse fill="#f3ece9" cx="210" cy="127" rx="28" ry="28" style="animation-delay: 2.994s;"/></g></svg>