<svg xmlns="http://www.w3.org/2000/svg" viewBox="0 0 400 200"><style>@keyframes a{ from {opacity: 0} to {opacity: 1} } g > * { opacity: 0; animation: a .5s forwards; }</style><path fill="#acc0ca" d="M0 0h400v200H0z"/><path fill="#f7f1eb" fill-opacity=".5" d="M401.3 270.8L102.9 276l-2.6-148.4 298.4-5.2z"/><path fill="#5f90a9" fill-opacity=".5" d="M86 130.5l-133-18.7 22-156.3 133 18.7z"/><path fill="#78a2bb" fill-opacity=".5" d="M289.2 156.1l-86.6-83.5L340.5-70.2 427 13.4z"/><path fill="#ccd3d5" fill-opacity=".5" d="M165.6 16.3l44.9 21.9-87 178.3-45-21.9z"/><path fill="#1f3632" fill-opacity=".5" d="M389.8 89.7l-11.1-5.6 5-9.8 11 5.7z"/><path fill-opacity=".5" d="M364.2 73.1l-5.5-9.5 6.8-3.9 5.5 9.5z"/><path fill="#f7efe9" fill-opacity=".5" d="M379.3 193.1l-125.5 38.4-12.8-41.8 125.5-38.4z"/><path fill="#3f8cb3" fill-opacity=".5" d="M-21 26.2l19.2-62.8 49.3 15.1-19.2 62.8z"/><path fill="#8cacbb" fill-opacity=".5" d="M17.3 184l-50-35 114-162.6 49.9 35z"/><path fill="#5f6665" fill-opacity=".5" d="M103.1 116.5v-1.6l129.7 4.6v1.5z"/><path fill="#767f82" fill-opacity=".5" d="M425 144v1.6l-198.4-6.9v-1.5z"/><path fill="#000500" fill-opacity=".5" d="M291.8 109.7l7 19.1-1.5.5-7-19z"/><path fill="#576b6b" fill-opacity=".5" d="M328.1 63.9v1.6l-198.4 3.4v-1.5z"/><path fill="#2b403b" fill-opacity=".5" d="M21.8 114.4l39-.7.2 4.7-39 .7z"/><path fill="#354645" fill-opacity=".5" d="M354.5 119.5l-12.4 1.5-1.3-10.8 12.4-1.5z"/><path fill-opacity=".5" d="M260.7 116.4l1.5.3-2.6 12.2-1.5-.3z"/><path fill="#001211" fill-opacity=".5" d="M220.4 92.2l-.2 14h-4.7l.2-14z"/><path fill="#000a08" fill-opacity=".5" d="M311.8 105.5l-5.9-2 2.6-7.4 5.9 2z"/><path fill="#cad3d9" fill-opacity=".5" d="M225.9 115.6l-.2-11 171.8-3 .2 11z"/><path fill="#74a5c3" fill-opacity=".5" d="M252.8-38.4l163.6 25.9-8.3 52.5-163.6-26z"/><path fill-opacity=".5" d="M145.6 125.4l-4.6-1 2.5-10.7 4.5 1zm49.2-22.5l-6.2.4-.6-7.8 6.3-.4z"/><path fill="#081a15" fill-opacity=".5" d="M317.9 114.9l6.2-.1.2 12.5-6.2.1z"/><path fill="#132520" fill-opacity=".5" d="M46.4 106.7L51 95l7.2 3-4.7 11.5z"/><path fill="#747d82" fill-opacity=".5" d="M239.8 138.3l-87.4 4.6v-1.5l87.3-4.6z"/></svg>