<svg xmlns="http://www.w3.org/2000/svg" viewBox="0 0 400 200"><style>@keyframes a{ from {opacity: 0} to {opacity: 1} } g > * { opacity: 0; animation: a .5s forwards; }</style><path fill="#acc0ca" d="M0 0h400v200H0z"/><g stroke-opacity=".5" fill="none" stroke-width=".8"><path stroke="#fffff4" d="M69.9 192.1q305 32.1 314.4-67.5" style="animation-delay: 0.000s;"/><path stroke="#fffff5" d="M397.3 194.4Q107.2 224.2 117.4 85" style="animation-delay: 0.188s;"/><path stroke="#123135" d="M83.2 117.8q-76 .7-100-2" style="animation-delay: 0.376s;"/><path stroke="#fffff4" d="M90.4 191.4q296.3 32.8 324.4-100.5" style="animation-delay: 0.562s;"/><path stroke="#fffff7" d="M424.2 189.8q-31.7 1.8-303 1.7" style="animation-delay: 0.746s;"/><path stroke="#fffdf4" d="M422.7 185.6L94 184.7" style="animation-delay: 0.927s;"/><path stroke="#425253" d="M320.5 120.4q-43.7-2.8-116.2-1.2" style="animation-delay: 1.104s;"/><path stroke="#fffbf3" d="M84 181.3q207.4 2.8 333.5-2.5" style="animation-delay: 1.277s;"/><path stroke="#fffef4" d="M87.7 199.3q41.5-13.2 328.4 1.9" style="animation-delay: 1.445s;"/><path stroke="#fffef5" d="M88.8 189.6q333-3.5 335.4 1" style="animation-delay: 1.607s;"/><path stroke="#fff9f1" d="M424.2 108.4q0 98.3-336.5 60" style="animation-delay: 1.763s;"/><path stroke="#3f5c63" d="M147.4 68.4Q17.8 63.5-16.8 72.2" style="animation-delay: 1.912s;"/><path stroke="#384f52" d="M144.9 100.4H-24.2" style="animation-delay: 2.054s;"/><path stroke="#336b84" d="M37.7 123.5Q98.5 29-12.5-2.9" style="animation-delay: 2.187s;"/><path stroke="#4d6e7c" d="M424.2 68.2q-206-9.5-218.8 9.9" style="animation-delay: 2.312s;"/><path stroke="#697e83" d="M-18.8 104.6q342.7-10.2 376.2.6" style="animation-delay: 2.427s;"/><path stroke="#fff7f0" d="M91.1 153.6q262.6 57.3 333.1-30" style="animation-delay: 2.533s;"/><path stroke="#7f8584" d="M424.2 144Q28.6 133-8.6 146" style="animation-delay: 2.629s;"/><path stroke="#fffcf3" d="M114.8 146.1q2.4 78.1 309 42.8" style="animation-delay: 2.714s;"/><path stroke="#24464f" d="M296.2 132.5q.3-31.2-5.8-77.7" style="animation-delay: 2.789s;"/><path stroke="#25617c" d="M26.1 124.5Q25.2 9.3 8.1 1.2" style="animation-delay: 2.853s;"/><path stroke="#3c4340" d="M398.9 119.2q-59-1-108.5-.8" style="animation-delay: 2.906s;"/><path stroke="#fff7f0" d="M96.5 143.2q41 61.2 325.3 23.2" style="animation-delay: 2.947s;"/><path stroke="#65818a" d="M313.8 107.4Q293.2 47.4 10 75.9" style="animation-delay: 2.976s;"/><path stroke="#fff5ef" d="M186.8 27.7q-54.3 189.1 207.7 171.1" style="animation-delay: 2.994s;"/></g></svg>