<svg xmlns="http://www.w3.org/2000/svg" viewBox="0 0 400 200"><style>@keyframes fade { from {opacity: 0} to {opacity: 1} } ellipse, path { opacity: 0; animation: fade .5s forwards; }</style><path fill="#9e8a6e" d="M0 0h400v200H0z"/><g transform="translate(.8 .8) scale(1.5625)" fill-opacity=".5"><ellipse fill="#ffffe9" rx="1" ry="1" transform="matrix(-1.5059 -29.126 245.66796 -12.70173 123.8 15.1)" style="animation-delay: 0.00s;"/><ellipse fill="#261602" rx="1" ry="1" transform="matrix(244.42471 15.58359 -2.81478 44.14916 137.3 127)" style="animation-delay: 0.19s;"/><ellipse fill="#836d50" rx="1" ry="1" transform="matrix(-.42505 17.3921 -150.96242 -3.68944 114.8 87.1)" style="animation-delay: 0.38s;"/><ellipse fill="#291d0e" rx="1" ry="1" transform="matrix(.6505 12.4124 -152.1174 7.97214 185.4 124.9)" style="animation-delay: 0.56s;"/><ellipse fill="#f5dbb6" cx="61" cy="13" rx="132" ry="30" style="animation-delay: 0.75s;"/><ellipse fill="#aa8d6b" rx="1" ry="1" transform="matrix(-47.85268 4.8607 -2.5328 -24.93493 207.2 54.9)" style="animation-delay: 0.93s;"/><path fill="#9b8364" d="M151.8 101.1l109-35.4L87.4 39.9l-37 7.3z" style="animation-delay: 1.10s;"/><path fill="#fff8d5" d="M266.7 39.3L237 32.5l26.2-21.4 7.9-9.4z" style="animation-delay: 1.28s;"/><ellipse fill="#725e44" cx="10" cy="86" rx="66" ry="18" style="animation-delay: 1.45s;"/><ellipse fill="#fae3bd" cx="140" cy="37" rx="24" ry="8" style="animation-delay: 1.61s;"/><path fill="#716146" d="M131 83h125v20H131z" style="animation-delay: 1.76s;"/><ellipse fill="#af9575" rx="1" ry="1" transform="rotate(-81.1 145.8 -111.2) scale(17.07922 55.75855)" style="animation-delay: 1.91s;"/><ellipse fill="#ccba9b" cx="109" cy="24" rx="35" ry="8" style="animation-delay: 2.05s;"/><ellipse fill="#55442c" cx="21" cy="116" rx="136" ry="12" style="animation-delay: 2.19s;"/><path fill="#3c2f1d" d="M225.6 104.7l45.4 31-160.9 4.4 110.3-41.4z" style="animation-delay: 2.31s;"/><ellipse fill="#f2e1c1" rx="1" ry="1" transform="matrix(-57.57609 -7.25455 1.60676 -12.75212 7 4.9)" style="animation-delay: 2.43s;"/><path fill="#f7e5c5" d="M177.7-1L106-2.2l33 1.8 15.3 31z" style="animation-delay: 2.53s;"/><ellipse fill="#dac2a1" rx="1" ry="1" transform="matrix(1.7898 14.19607 -56.0135 7.062 219.5 14.8)" style="animation-delay: 2.63s;"/><ellipse fill="#d4bb8f" cx="23" cy="46" rx="27" ry="3" style="animation-delay: 2.71s;"/><path fill="#9e8666" d="M74 42h30v41H74z" style="animation-delay: 2.79s;"/><ellipse fill="#a58d6e" rx="1" ry="1" transform="rotate(-116.3 94.8 -18.7) scale(12.26632 41.29012)" style="animation-delay: 2.85s;"/><path fill="#c8b99e" d="M133.4 14l-25.8-3.2 3-24.8 25.8 3.2z" style="animation-delay: 2.91s;"/><ellipse fill="#685439" cx="145" cy="107" rx="66" ry="10" style="animation-delay: 2.95s;"/><ellipse fill="#867459" cx="175" cy="85" rx="50" ry="8" style="animation-delay: 2.98s;"/><path fill="#f0dcba" d="M176.6 38.4l-17.1.3L51.3 33l132.4-2.5z" style="animation-delay: 2.99s;"/></g></svg>