<svg xmlns="http://www.w3.org/2000/svg" viewBox="0 0 400 200"><style>
  @keyframes fadeIn {
    from {opacity: 0}
    to {opacity: 1}
  }
  g.animated > * {
    opacity: 0;
    animation: fadeIn .5s forwards;
  }</style><path fill="#9e8a6e" d="M0 0h400v200H0z"/><g fill-opacity=".5" class="animated"><path fill="#ffffe6" d="M.8.8h400v68.7H.8z" style="animation-delay: 0.00s;"/><path fill="#281803" d="M.8 130.5h400v70.3H.8z" style="animation-delay: 0.19s;"/><path fill="#a18664" d="M247.7 54h153v96.8h-153z" style="animation-delay: 0.38s;"/><path fill="#312414" d="M80.5 175.8h320.3v25H80.5z" style="animation-delay: 0.56s;"/><path fill="#f4dab6" d="M.8.8H268v71.9H.8z" style="animation-delay: 0.75s;"/><path fill="#7f694e" d="M.8 111.7h303.1v50H.8z" style="animation-delay: 0.93s;"/><path fill="#a38b6b" d="M294.5 49.2h78.2v86h-78.2z" style="animation-delay: 1.10s;"/><path fill="#a58c6c" d="M104 66.4h296.8v54.7H103.9z" style="animation-delay: 1.28s;"/><path fill="#68573b" d="M.8 118h123.4v12.5H.8z" style="animation-delay: 1.45s;"/><path fill="#ead7b8" d="M.8.8h86v75H.7z" style="animation-delay: 1.61s;"/><path fill="#fff8d8" d="M379 35.2h21.8v20.3h-21.9z" style="animation-delay: 1.76s;"/><path fill="#f1debd" d="M229 .8h54.6v59.4h-54.7z" style="animation-delay: 1.91s;"/><path fill="#68553a" d="M82 160.2h172v29.6H82z" style="animation-delay: 2.05s;"/><path fill="#382c1b" d="M288.3 169.5h112.5v31.3H288.3z" style="animation-delay: 2.19s;"/><path fill="#9a8363" d="M118 64.8h43.7v61H118z" style="animation-delay: 2.31s;"/><path fill="#7b694f" d="M132 129h268.8v26.5H132z" style="animation-delay: 2.43s;"/><path fill="#d1bfa1" d="M.8 33.6H232v14H.8z" style="animation-delay: 2.53s;"/><path fill="#f3e0bf" d="M164.8 54h70.4v15.5h-70.4z" style="animation-delay: 2.63s;"/><path fill="#513f2a" d="M.8 166.4h93.7v34.4H.8z" style="animation-delay: 2.71s;"/><path fill="#ac9374" d="M254 61.7h146.8v28.1H253.9z" style="animation-delay: 2.79s;"/><path fill="#dcc4a4" d="M257 5.5h126.6v43.7H257z" style="animation-delay: 2.85s;"/><path fill="#372b1a" d="M211.7 185.2h143.8v15.6H211.7z" style="animation-delay: 2.91s;"/><path fill="#826e50" d="M.8 105.5h79.7v17.2H.8z" style="animation-delay: 2.95s;"/><path fill="#958063" d="M191.4 105.5h171.9v29.7H191.4z" style="animation-delay: 2.98s;"/><path fill="#372a19" d="M332 161.7h20.3v23.5H332z" style="animation-delay: 2.99s;"/></g></svg>