<svg xmlns="http://www.w3.org/2000/svg" viewBox="0 0 400 200"><style>@keyframes a{ from {opacity: 0} to {opacity: 1} } g > * { opacity: 0; animation: a .5s forwards; }</style><path fill="#9e8a6e" d="M0 0h400v200H0z"/><g transform="translate(.8 .8) scale(1.5625)" fill-opacity=".5"><ellipse fill="#fbe8c5" cx="87" rx="79" ry="79" style="animation-delay: 0.000s;"/><ellipse fill="#47331a" cx="87" cy="127" rx="87" ry="87" style="animation-delay: 0.188s;"/><ellipse fill="#1a0c00" cx="211" cy="127" rx="47" ry="47" style="animation-delay: 0.376s;"/><ellipse fill="#f9e6c4" cx="204" rx="57" ry="57" style="animation-delay: 0.562s;"/><ellipse fill="#fff7d6" cx="20" cy="9" rx="40" ry="40" style="animation-delay: 0.746s;"/><ellipse fill="#947a5a" cx="204" cy="68" rx="39" ry="39" style="animation-delay: 0.927s;"/><ellipse fill="#ad9373" cx="131" cy="67" rx="25" ry="25" style="animation-delay: 1.104s;"/><ellipse fill="#ead8b9" cx="97" rx="55" ry="55" style="animation-delay: 1.277s;"/><ellipse fill="#57452e" cx="20" cy="127" rx="58" ry="58" style="animation-delay: 1.445s;"/><ellipse fill="#4e3e27" cx="122" cy="127" rx="43" ry="43" style="animation-delay: 1.607s;"/><ellipse fill="#957e5f" cx="33" cy="72" rx="29" ry="29" style="animation-delay: 1.763s;"/><ellipse fill="#f0e1c1" cx="158" cy="8" rx="34" ry="34" style="animation-delay: 1.912s;"/><ellipse fill="#312512" cx="209" cy="127" rx="30" ry="30" style="animation-delay: 2.054s;"/><ellipse fill="#977f62" cx="120" cy="75" rx="32" ry="32" style="animation-delay: 2.187s;"/><ellipse fill="#e8d8bd" cx="248" cy="6" rx="30" ry="30" style="animation-delay: 2.312s;"/><ellipse fill="#69573a" cx="246" cy="97" rx="16" ry="16" style="animation-delay: 2.427s;"/><ellipse fill="#a58b6a" cx="81" cy="61" rx="21" ry="21" style="animation-delay: 2.533s;"/><ellipse fill="#a88f6e" cx="223" cy="59" rx="30" ry="30" style="animation-delay: 2.629s;"/><ellipse fill="#746247" cx="165" cy="94" rx="21" ry="21" style="animation-delay: 2.714s;"/><ellipse fill="#f2dcbc" cy="23" rx="26" ry="26" style="animation-delay: 2.789s;"/><ellipse fill="#312514" cx="149" cy="127" rx="16" ry="16" style="animation-delay: 2.853s;"/><ellipse fill="#493923" cx="67" cy="127" rx="26" ry="26" style="animation-delay: 2.906s;"/><ellipse fill="#2e2212" cx="250" cy="127" rx="19" ry="19" style="animation-delay: 2.947s;"/><ellipse fill="#a28a6a" cx="165" cy="61" rx="23" ry="23" style="animation-delay: 2.976s;"/><ellipse fill="#ac9474" cx="43" cy="59" rx="15" ry="15" style="animation-delay: 2.994s;"/></g></svg>