<svg xmlns="http://www.w3.org/2000/svg" viewBox="0 0 400 200"><style>@keyframes a{ from {opacity: 0} to {opacity: 1} } g > * { opacity: 0; animation: a .5s forwards; }</style><path fill="#9e8a6e" d="M0 0h400v200H0z"/><g fill-opacity=".5"><path fill="#ffffea" d="M424.2 53.3l-1-60-447.4 2.4L0 78.6z" style="animation-delay: 0.000s;"/><path fill="#281803" d="M406 224.2L-.3 213.4-24.2 118l448.4 24.4z" style="animation-delay: 0.188s;"/><path fill="#271c0e" d="M344.9 170.6L-4.3 205l396.9 19.1 24.8-51.3z" style="animation-delay: 0.376s;"/><path fill="#846f52" d="M-20 100.1L424.2 131l-16.4 26-432 5z" style="animation-delay: 0.562s;"/><path fill="#f5dcb6" d="M-24.2 57.6l7.9-56.3L336-24.2l-87.2 98z" style="animation-delay: 0.746s;"/><path fill="#b19370" d="M326 44l68.3 12.5 30 53-221.5-29.2z" style="animation-delay: 0.927s;"/><path fill="#9c8363" d="M-13.1 98.2L263.5 151 159.3 66.7l-29-3.8z" style="animation-delay: 1.104s;"/><path fill="#fff1cf" d="M410.6-3.3l-13.7 36.7-35 16 62.3 14.2z" style="animation-delay: 1.277s;"/><path fill="#53412b" d="M267.2 180.2L-5.7 163.9l-17.3-5.3 2.7 54.5z" style="animation-delay: 1.445s;"/><path fill="#d0bea1" d="M95 49.4L218-20l-10.6 70.8-67-1.5z" style="animation-delay: 1.607s;"/><path fill="#f5e3c2" d="M248.5 68.9l-39.2-93.1 72 38.6-98.8 55z" style="animation-delay: 1.763s;"/><path fill="#ac9473" d="M406 100.1l4.4-40.3L334.6 47 218.1 72.3z" style="animation-delay: 1.912s;"/><path fill="#7c6b4f" d="M424.2 171.7l-239.7-47.2 148.4 8.9 85.9-7.6z" style="animation-delay: 2.054s;"/><path fill="#735e45" d="M122.6 120.8L244 167.6-12 159l15-51.8z" style="animation-delay: 2.187s;"/><path fill="#f0dcbb" d="M122.1 23L-24.2-24.3 86.3 71.2l-110.5-4.5z" style="animation-delay: 2.312s;"/><path fill="#392c1b" d="M211.2 194.1l113-9 12.9-33 87.1 72.1z" style="animation-delay: 2.427s;"/><path fill="#ab926f" d="M-8.5 75.3l49.2-4.8L224.4 84l-202 6.2z" style="animation-delay: 2.533s;"/><path fill="#dac3a2" d="M302.4-24.2l-52.2 70.1 94.7 2.4 79.3-35.5z" style="animation-delay: 2.629s;"/><path fill="#67533a" d="M198.6 194l202.6-49.7-194.3 14-36.6 38.4z" style="animation-delay: 2.714s;"/><path fill="#d2bfa2" d="M38.2 30L115 46.6 66.2 46 0 43.3z" style="animation-delay: 2.789s;"/><path fill="#a08868" d="M140.6 63.8L.8 88.8l375.8 44.6-194.2-63z" style="animation-delay: 2.853s;"/><path fill="#827055" d="M388.3 141.2l-80.2-9-45-18.6-63.2 36.7z" style="animation-delay: 2.906s;"/><path fill="#eedab8" d="M297.3 51.5l-46-8.1L81 63.9l157 .5z" style="animation-delay: 2.947s;"/><path fill="#f2e1c2" d="M97.7 19l-122-26.2L15 41.2 46-10z" style="animation-delay: 2.976s;"/><path fill="#ead4b4" d="M27.6 43l-48.1 9.6 81.8 24.8 78.9-18.6z" style="animation-delay: 2.994s;"/></g></svg>