<svg xmlns="http://www.w3.org/2000/svg" viewBox="0 0 100 50"><path fill="#534949" d="M0 0h100v50H0z"/><path fill="#cec8c9" d="M81 33L64 16 27 66z"/><path fill="#0a060f" d="M38 40l1-40-24 14z"/><path fill="#d9f0fe" d="M71 40L52 16l4 19z"/><path fill="#8f6b5a" d="M68 38L41 66 16 37z"/><path fill="#2c2520" d="M116 5L61-15l33 81z"/><path fill="#0b0002" d="M16 66l5-20-36-12z"/><path fill="#bcb6b0" d="M20 22L10 38H1z"/><path fill="#cbd1d2" d="M13 19L-2 33l-13-1z"/><path fill="#62312b" d="M32 21l7 21 48 12z"/><path fill="#93a1aa" d="M58-1L45 14l1 10z"/><path fill="#b2a188" d="M23 39l12 27 35-15z"/><path fill="#1a2426" d="M113 1L48 18l20-33z"/><path fill="#beb2a7" d="M9-15L33 1 23 6z"/><path fill="#191f2c" d="M8-15l9 27-32 22z"/><path fill="#0b0b11" d="M25 15l4 10L7 47z"/><path fill="#1c0000" d="M79 47l7-18-14 11z"/><path fill="#786a69" d="M100 26l-5 28-3-32z"/><path fill="#948a92" d="M51 20l14-6 23 23z"/><path fill="#616263" d="M94 8l-24 2-13-9z"/><path d="M94 66l9-52 13 24z"/><path fill="#ccdce1" d="M68 27l-12-3 3 16z"/><path fill="#521004" d="M55 27l-6-8-2 13z"/><path fill="#2f0002" d="M87 28l10 7-18-1z"/><path fill="#dc7656" d="M49 36l-4-3 7-3z"/><path fill="#1d2029" d="M45 6L28 40l8-49z"/><path fill="#201e17" d="M81 17L56 5l-2 8z"/><path fill="#1d0a0e" d="M13 25l-6-1-6 14z"/><path fill="#a3b7c8" d="M80 65l-17-2-9-20z"/><path fill="#7693a8" d="M81 30L64 44l6-23z"/><path fill="#928782" d="M29 28l-8 16-2-5z"/><path fill="#39454e" d="M56 38l15 2-23 5z"/><path fill="#362221" d="M45 34L34 21 23 39z"/><path fill="#300500" d="M68 59l22 1 5-18z"/><path fill="#88684d" d="M20 40l46 12-11 14z"/><path fill="#85777f" d="M53 12l9-27H31z"/><path fill="#6a5d5a" d="M102 25l-22 1-12-9z"/><path fill="#859daf" d="M20 23l-1-1 4-3z"/><path fill="#221e1d" d="M79 27l-8-6 16 5z"/><path fill="#3f342a" d="M73 18L56 6l34 3z"/><path fill="#af948d" d="M65 28l-2-12 10 3z"/><path fill="#101920" d="M116-15l-5 22-53-6z"/><path fill="#a09895" d="M6 44l9-19-8 9z"/><path fill="#06121a" d="M12 20L7 30l11-9z"/><path fill="#230908" d="M36 42l8-14-1 7z"/><path fill="#222128" d="M26 14l-1 18-8 7z"/><path fill="#221715" d="M48 24l2-12 4 1z"/><path fill="#908f90" d="M14 18L4 30l-19 1z"/><path fill="#886950" d="M85 37h15l-9 5z"/><path fill="#6283a2" d="M41 6l8 9-2 6z"/><path fill="#c65a4b" d="M55 37l-11 5-2-3z"/><path fill="#8d5439" d="M66 45h21l-7 7z"/><path fill="#6d5e4f" d="M22 4l10 2-22 6z"/><path fill="#b4bec2" d="M66 25l-13 4 17 12z"/><path fill="#6b4f61" d="M35 18l-4 5 5 5z"/><path fill="#657d90" d="M39 28l8-2-4-2z"/><path fill="#926763" d="M61 25l9-5-13-2z"/><path fill="#685a50" d="M15 37l-3 15 10-19z"/><path fill="#3a1917" d="M95 26l-1 9-22 5z"/><path fill="#565f6b" d="M58 48l1-7 8-3z"/><path fill="#1f1400" d="M18 43l15 23H4z"/><path fill="#2f1e25" d="M40 15L23 38l22-17z"/><path fill="#f38d65" d="M51 38l-2-1 3-2z"/><path fill="#a39681" d="M36 35l-6 3 4 1z"/><path fill="#55483f" d="M87 19l-25-9 25 2z"/><path fill="#2d271f" d="M70 17l46-9v17z"/><path fill="#625f58" d="M-6 8l19 2-25 6z"/><path fill="#100900" d="M2 9l7-21-24 15z"/><path fill="#28191c" d="M66 45l8 8-13-7z"/><path fill="#ced5d3" d="M52 21l8 10 6-2z"/><path fill="#4b363e" d="M-15 37l11-8H9z"/><path fill="#211005" d="M93 44l-17-5 5-3z"/><path fill="#926c5b" d="M74 45l-5-2-5 4z"/><path fill="#5f310a" d="M72 41l11 22-17-2z"/><path fill="#788487" d="M96 40l1 26-6-6z"/><path fill="#5f6c6f" d="M94 9l22-6v12z"/><path fill="#b2abac" d="M72 21l-4-5h-6z"/><path fill="#161318" d="M35 7L10 40l18-13z"/><path fill="#6a3832" d="M50 25l4 3-15 3z"/><path fill="#525d66" d="M20 19v4l8-7z"/><path fill="#b5a897" d="M53 47l-11 1-11-7z"/><path fill="#916b4d" d="M29 42l35 21 1-11z"/><path fill="#25282f" d="M14 2l7 5-17 3z"/><path fill="#bbcddb" d="M52 31l10-2-1 11z"/><path fill="#5a546d" d="M12 10l2-25L9-1z"/><path fill="#892c43" d="M6 42L3 66l5-10z"/><path fill="#b0b4b4" d="M46 51l5 15-16-18z"/><path fill="#381d13" d="M95 41l-4 22-30 3z"/><path fill="#67646c" d="M37 31l6-4-2-7z"/><path fill="#686f75" d="M78 6l-7-2-7 3z"/><path fill="#5c6174" d="M16 15l-3-2 3 8z"/><path fill="#00040f" d="M1 23l5-3-7-1z"/><path fill="#041417" d="M31 33l-2-9 8 11z"/><path fill="#621e23" d="M38 27l-4 7 4 8z"/><path fill="#000a0b" d="M116 27L95 66l6-45z"/><path fill="#171414" d="M63 13l-11 4 5-13z"/><path fill="#8ca3b6" d="M80 29l-8 11 1-9z"/><path fill="#5b5876" d="M69 29l3 4 3-4z"/><path fill="#877d78" d="M29 9l-5-24h10z"/><path fill="#a6938b" d="M70 31l-2-13-3 18z"/><path fill="#001621" d="M4 40L3 61l-18-20z"/></svg>