<svg xmlns="http://www.w3.org/2000/svg" viewBox="0 0 256 128"><path fill="#534948" d="M0 0h256v128H0z"/><path fill="#c7c8cf" d="M114 144l30-111 68 44z"/><path fill="#ccaf91" d="M41 94l146 38-103 12z"/><path fill="#0b050f" d="M101 2l2 109-68-80z"/><path fill="#291f1a" d="M179-4l93-11-49 159z"/><path fill="#dcf1fe" d="M145 93l-15-53 50 58z"/><path fill="#6c3024" d="M215 136L81 53l16 55z"/><path fill="#050600" d="M128 46l16-37 46 18z"/><path fill="#b4b1a8" d="M23 101L1 97l56-52z"/><path fill="#c0cbd0" d="M-15 96l9-32 42-20z"/><path fill="#1c1011" d="M37 143l-52 1L75 37z"/><path fill="#98acb8" d="M111 63l38-66-34 33z"/><path d="M243 144l19-118 10 89z"/><path fill="#c5baba" d="M152 103l10-66 22 10z"/><path fill="#bcb1a3" d="M84 3L58 16 31-15z"/><path fill="#191e2b" d="M52 11L-15-7 4 62z"/><path fill="#1e0000" d="M180 105l48-36-27 51z"/><path fill="#c3bbb0" d="M37 109l31-31-16 28z"/><path fill="#001019" d="M134-1l113-14 25 36z"/><path fill="#4f0800" d="M142 69l-20 11 3-33z"/><path fill="#c36a54" d="M137 94l-35 31 19-53z"/><path fill="#885f56" d="M126 50l56 18-21-28z"/><path fill="#0a1021" d="M27 54L5 92l60-56z"/><path fill="#1a1017" d="M81 136L-2 97l-13 28z"/><path fill="#6d6d64" d="M251 57l4 21-69-29z"/><path fill="#c9dbe4" d="M179 58l-29 40-16-22z"/><path fill="#280000" d="M234 140l-28-11 36-24z"/><path fill="#4b4850" d="M182 123l-16-27-54 4z"/><path fill="#84684e" d="M175 134L28 94l59 50z"/><path fill="#1f1715" d="M125 94L78 64 65 94z"/><path fill="#000002" d="M192 37h-29l34 12z"/><path fill="#9d7152" d="M208 90l24 18 14-9z"/><path fill="#f4ffff" d="M146 49l-12-5-4 3z"/><path fill="#6d95b7" d="M122 62L97 73l17-20z"/><path fill="#4a4e4e" d="M159 39l113-18L157 5z"/><path fill="#bfaeb0" d="M89 91l-13 6 11 5z"/><path fill="#7096b8" d="M208 76l-28-18-6 48z"/><path fill="#0e151d" d="M51 93L92-15l12 35z"/><path d="M122 113l16 4-9-11z"/><path fill="#bcc3c5" d="M101 118l25-1-46-13z"/><path fill="#736154" d="M81 20L18 30 77 3z"/><path fill="#94a4b3" d="M234 144l12-8-1-33z"/><path fill="#9cb3c2" d="M150 131l29 10-50-38z"/><path fill="#6384aa" d="M122 36l-19-24 15 49z"/><path fill="#5c607e" d="M61 84l30-50-5 26z"/><path fill="#8b5338" d="M170 115l26 18 36-20z"/><path fill="#050306" d="M175 126l-17-11-11 6z"/><path fill="#847479" d="M104-1l50-14-19 44z"/><path fill="#050d10" d="M260 61l-39-9 51-2z"/><path fill="#000104" d="M260 42l-15 89 27-15z"/><path fill="#35090f" d="M227 96l-44-43 60 31z"/><path fill="#1f1d1a" d="M169 35l-47 11 4-18z"/><path fill="#9a9896" d="M13 86l1 25 23-47z"/><path d="M106 59l8-8-8-9z"/><path fill="#141319" d="M62 45l21 20-54 30z"/><path fill="#3b2a19" d="M272 29L170 18l102 42z"/><path fill="#502930" d="M20 138l-35-70 25 9z"/><path fill="#655e54" d="M59 79l-30 29v22z"/><path fill="#00475c" d="M106 11l-2 17 27-34z"/><path fill="#c6b9b7" d="M178 44l4 11-28-17z"/><path fill="#816266" d="M18 51L0 27l8-6z"/><path fill="#6f312c" d="M84 93l18-39-5 55z"/><path fill="#c2cbd0" d="M132 53l40 19-14 24z"/><path fill="#251603" d="M59 117l-25-9v36z"/><path fill="#b3cfe0" d="M159 108l-26-27 14 1z"/><path fill="#7f8994" d="M115 129l-56-16 12 31z"/><path fill="#521f0c" d="M144 50l3 9 3-16z"/><path fill="#5f7083" d="M185 8l29 11-46-4z"/><path fill="#5b6b7e" d="M272 20l-23 7-22-9z"/><path fill="#b35a51" d="M102 107l31 5-29-15z"/><path fill="#776f7e" d="M80 35L57 49l9-10z"/><path fill="#96918e" d="M38 45L19 64l-31 1z"/><path fill="#dc7751" d="M115 82l19-7-17 16z"/><path fill="#1a140c" d="M58 98l13 2 14-23z"/><path fill="#996c46" d="M120 135l36-7-74-18z"/><path fill="#e38965" d="M124 89l19 4-16 8z"/><path fill="#626572" d="M178 71l13 5-18 18z"/><path fill="#200608" d="M38 103l-4-16-16 34z"/><path fill="#000009" d="M-1 59l26-11-40 5z"/><path fill="#190004" d="M128 67l1-23-8 20z"/><path fill="#111518" d="M107 70l5 13-17 26z"/><path fill="#3e1d1c" d="M108 12l4-17-48 20z"/><path fill="#401a1f" d="M21 62l-5 23-18 10z"/><path fill="#c0bbb1" d="M66 83l-5-1 11-10z"/><path fill="#b395a4" d="M168 121l3-9 5 6z"/><path fill="#21211a" d="M140 10l39 7-38 28z"/><path fill="#8e7377" d="M82-10l-9 41-4-46z"/><path fill="#4b2b21" d="M145 92l-13 11 13 10z"/><path fill="#9fa19e" d="M137 115l32-7-16 9z"/><path fill="#aba39f" d="M157 81l15 18 9-47z"/><path fill="#100b00" d="M-10 7L1 25l15-36z"/><path fill="#0f222f" d="M69 36l-1-26-48 63z"/><path fill="#517188" d="M53 53l-20-3 25-4z"/><path fill="#160600" d="M223 111h14l-33-20z"/><path fill="#b18f91" d="M206 111l10-4-5 9z"/><path fill="#2e1313" d="M205 116l-17-2 25-47z"/><path d="M81 123l14 15 20 5z"/><path fill="#692f25" d="M121 60l-11 25 31-14z"/><path fill="#00070f" d="M32 16l2-17 6 34z"/><path fill="#482800" d="M165 121l27-1 14 24z"/><path fill="#97aaba" d="M189 96l21-21-40 13z"/></svg>