<svg xmlns="http://www.w3.org/2000/svg" viewBox="0 0 800 400"><path fill="#514946" d="M0 0h800v400H0z"/><path fill="#cbd5de" d="M658 236L408 414l12-281z"/><path fill="#cdb394" d="M145 298l88 150 465-9z"/><path fill="#06050d" d="M311-14l6 337-212-209z"/><path fill="#25251f" d="M802 408L389-45l416 22z"/><path fill="#c7bcb9" d="M523 108L361 320l241-103z"/><path fill="#6c311d" d="M270 192l38 144 403 94z"/><path fill="#acaca3" d="M45 352l-18-72 146-138z"/><path fill="#0b0000" d="M-48 280l78 168 162-78z"/><path fill="#bcc9cb" d="M-2 245l125-112-171 75z"/><path fill="#8da5b1" d="M345 92L467-14 352 180z"/><path fill="#350e03" d="M561 330l197 115-53-247z"/><path d="M395 145l119-40-62-85z"/><path fill="#d0f0fb" d="M436 167l122 135-110-13z"/><path fill="#000205" d="M58 333l153-110 72-184z"/><path fill="#bcb4a4" d="M102-48l84 96 75-43z"/><path fill="#161f28" d="M158 33L-48 252V-33z"/><path fill="#8c7771" d="M389 145l216 110-103-141z"/><path fill="#7a6f69" d="M761 423l31-234-75-19z"/><path d="M798 208l-43 240 93-112z"/><path fill="#53170c" d="M411 164L267 277l169-54z"/><path fill="#05000c" d="M152 155L5 289l68-112z"/><path fill="#000d15" d="M848 64L777-48 505 8z"/><path fill="#b05e4c" d="M348 345l10-190 62 156z"/><path fill="#7c5d4c" d="M570 448l110-156 93 10z"/><path fill="#5f6e7a" d="M545 61l128-16L439 5z"/><path fill="#18110d" d="M233 220l-28 66 184 6z"/><path fill="#474a4b" d="M367 311l216 84-63-97z"/><path fill="#698fad" d="M511 345l62-165 75 62z"/><path fill="#b5c3c6" d="M177 305l28-66-63 78z"/><path fill="#110a09" d="M580 317l56-47 103 78z"/><path fill="#a9a29e" d="M498 120l35 41h103z"/><path fill="#5b829e" d="M370 192l13-84-81 128z"/><path fill="#896a4b" d="M108 308l337 81-178 59z"/><path fill="#bfd0d5" d="M561 177l-88 137-53-72z"/><path fill="#d4eff7" d="M405 152l12 31 35 12z"/><path fill="#311718" d="M748 286L558 173l203 50z"/><path fill="#596b7b" d="M739 42l100 44-159-19z"/><path fill="#ababab" d="M302 311l-69-3 15-19z"/><path fill="#b1aea9" d="M298 370l107-3-203-56z"/><path fill="#847575" d="M323-11l147-37-50 140z"/><path fill="#09181a" d="M583 108H480l193 56z"/><path fill="#876966" d="M261 5l-38 93-6-84z"/><path fill="#686055" d="M717 170l10 60-160-88z"/><path fill="#1f0d07" d="M377 189l31 13-10-125z"/><path fill="#a8e5ff" d="M408 323l25 38 22 3z"/><path fill="#194662" d="M314 67l88-115-60 178z"/><path fill="#5f3019" d="M461 136l12 56-34-28z"/><path fill="#49516f" d="M261 205l-63 37 85-134z"/><path d="M514 352l-56 21 53 10z"/><path fill="#170711" d="M336 180l-22-82 47 79z"/><path fill="#8e623a" d="M145 308l210 59-113 6z"/><path fill="#d5f9ff" d="M417 133l28 28-34-19z"/><path fill="#0f0809" d="M127 252L70 417l-22-56z"/><path fill="#44221d" d="M295 333l113-144-150 63z"/><path fill="#748696" d="M217 448l247-15-275-78z"/><path fill="#8a747d" d="M208 142l19-28-47 25z"/><path fill="#b4564e" d="M317 333l13-41 72 56z"/><path fill="#7f5e62" d="M61 167L2 83l21-22z"/><path fill="#270f00" d="M577 448l156-34 25-91z"/><path fill="#7f7063" d="M111 364l-25 53 16-94z"/><path fill="#8094a1" d="M742 408l28 40-6-137z"/><path fill="#c39ea1" d="M533 377l-6-22 31 9z"/><path fill="#abced8" d="M514 120l-41-3-37 19z"/><path fill="#adc7dc" d="M542 433l-112-60 237 54z"/><path fill="#423627" d="M455 120l328-25-281-53z"/><path fill="#374e5a" d="M61 83l97 122L67-20z"/><path fill="#e2895f" d="M442 292l-50 22-3-37z"/><path fill="#18282a" d="M45 167l103-84-81 15z"/><path fill="#091216" d="M430 370l-22-40-19 25z"/><path fill="#a5aaa7" d="M198 239l-9 38 41-57z"/><path fill="#a01f3a" d="M30 408l28-3-25-69z"/><path fill="#141a1f" d="M308 64L161 177l6 109z"/><path fill="#9f9a93" d="M55 255l72-60-88 147z"/><path fill="#170b19" d="M380 73L308-48 295-8z"/><path fill="#e6834c" d="M383 270l37-37-78 37z"/><path fill="#96a9b7" d="M617 217l16 41-97 75z"/><path fill="#907c5b" d="M745 333l-59-19-34-44z"/><path fill="#633926" d="M398 239l72 88-28 25z"/><path fill="#32240f" d="M183 298l53-90-13 106z"/><path fill="#876157" d="M458 133l78 53-59 9z"/><path fill="#839cbb" d="M386 117l-28 6-16-59z"/><path fill="#0e100b" d="M252 77l68 109L295 8z"/><path fill="#552c00" d="M511 386l59-22 110 84z"/><path fill="#0e0b00" d="M-5 83l38-63L8-48z"/><path fill="#79564c" d="M52 223l-63 100 44-18z"/><path fill="#001416" d="M283 245l-72-87 28 122z"/><path fill="#5e636b" d="M545 220h44l-37 72z"/><path fill="#2e1514" d="M577 358h65l41-172z"/><path fill="#975d2e" d="M661 380l-100-25 19 72z"/><path fill="#2f251a" d="M839 192L789 80l-153 72z"/><path fill="#0e110b" d="M461 8l-13 125-46 3z"/><path fill="#92371b" d="M292 320l13-37-50-10z"/><path fill="#b4c0c3" d="M567 148l-3 38-28-56z"/><path fill="#1e2b2f" d="M523 308l10 22-47-19z"/><path fill="#8a8986" d="M-23 202l162-85-81 85z"/><path fill="#201905" d="M145 333l60 115-103-68z"/><path fill="#a1a194" d="M380 77l40 12V33z"/><path fill="#00020b" d="M11 148l-38 41 82-31z"/><path fill="#6b1c15" d="M711 230l-3 59 78-31z"/><path fill="#658b9f" d="M492 305l22 47-84-75z"/></svg>