<svg xmlns="http://www.w3.org/2000/svg" viewBox="0 0 128 64"><path fill="#564b49" d="M0 0h128v64H0z"/><path fill="#c7c1c4" d="M83 9L31 80l72-46z"/><path fill="#b49f87" d="M94 59L51 76 24 41z"/><path fill="#140e13" d="M-15 80l62-46 7-49z"/><path fill="#daf3ff" d="M68 16l24 27-21-5z"/><path fill="#46271d" d="M134 70l10-27-106-3z"/><path fill="#25251f" d="M57 5l87-7v31z"/><path fill="#0f080c" d="M-10 74l5-34 84 40z"/><path fill="#bdb6ae" d="M5 39l21-19-14 23z"/><path fill="#ab9b85" d="M32 49l-12-3 15-16z"/><path fill="#200" d="M108 24l14 10-28 14z"/><path fill="#b1b9bd" d="M3 32h-18l36-18z"/><path fill="#201e2a" d="M56 43L54 7-10-4z"/><path d="M140 63l-9-54-9 58z"/><path fill="#89a1ae" d="M61 0l-7 27L70-1z"/><path fill="#908072" d="M48 80l67-16-94-24z"/><path fill="#803426" d="M49 47l21 4-5-35z"/><path fill="#070b08" d="M61 17l19-6 2-23z"/><path fill="#9da7b4" d="M62 13l41 17-15 16z"/><path fill="#74888b" d="M121 71l4-28-17 37z"/><path fill="#d3dee6" d="M76 44l-6-22 13 4z"/><path fill="#0b0612" d="M12 21L4 38l18-20z"/><path fill="#927570" d="M99 31L67 20l10-7z"/><path fill="#7e4213" d="M106 71L87 58H69z"/><path fill="#39140c" d="M64 32l-2-16 9 11z"/><path fill="#1b262a" d="M-5 25L35 5l-50 9z"/><path fill="#220c01" d="M121 48l-5 19-3-22z"/><path fill="#26181b" d="M115 37L94 22l11-3z"/><path fill="#a77b6a" d="M66 31l7 25-14-21z"/><path fill="#9e5e3d" d="M83 50l19 8 6-5z"/><path fill="#101819" d="M8 60l46 3 3 17z"/><path fill="#5b6771" d="M68 5l-8 20-13 5z"/><path fill="#99a8b5" d="M47 55l26 7-2 18z"/><path fill="#82394d" d="M8 46L4 70l6-11z"/><path fill="#576067" d="M131 7L99-15 81-1z"/><path fill="#0f1921" d="M69-10L22 12l12 11z"/><path fill="#5f7f9e" d="M101 29l-9-7-6 21z"/><path fill="#89531d" d="M56 58l9-1-15-5z"/><path fill="#5c2d2d" d="M48 46l-7-29 31 35z"/><path fill="#b66956" d="M51 43l21-6-12 11z"/><path fill="#5c655b" d="M30 1L17 16 12 6z"/><path fill="#0a0900" d="M20 52l-5 26 14-28z"/><path fill="#221b15" d="M37 30l17 6-25 6z"/><path fill="#82756e" d="M44 39l-18 9 27 27z"/><path fill="#526273" d="M38 12L25 22l-7-2z"/><path fill="#00090d" d="M132 9l-13 71 25-9z"/><path fill="#6084ab" d="M60 6v12L53 2z"/><path fill="#c2d0d8" d="M67 32l24-10-19 16z"/><path fill="#a0b3b7" d="M68 48l7 8v-6z"/><path fill="#1f110e" d="M64 8l5 1-8 15z"/><path fill="#635e54" d="M15 49l6-6-6 19z"/><path fill="#84694a" d="M125 45l-14-1-5-7z"/><path fill="#b1a9a3" d="M93 59l15 9 18-1z"/><path fill="#31140d" d="M101 59l19-10-4 15z"/><path fill="#6c655a" d="M107 25l18-2-30-6z"/><path fill="#101317" d="M30 36l12-20-29 25z"/><path fill="#282623" d="M77 10l32 9-50-34z"/><path fill="#151110" d="M102 38l10 6-19 7z"/><path fill="#34070a" d="M113 41l9-5-18-7z"/><path fill="#a1a9a8" d="M29 39l3-9 3 1z"/><path fill="#4e4963" d="M46 10L36 26l7-1z"/><path fill="#a09d9a" d="M8 47l11-22L8 36z"/><path fill="#6c6a65" d="M128 23l-8 1 3 27z"/><path fill="#a88f88" d="M68 8l2-14-18-2z"/><path fill="#b8adb2" d="M66 23l2-5 7-4z"/><path fill="#815955" d="M105 46l10 4-18 8z"/><path fill="#8a685d" d="M100 53l-10-6-6 5z"/><path fill="#3d3b53" d="M51-15L68-5 51 17z"/><path fill="#504a44" d="M31 34L16 48l4-9z"/><path fill="#402633" d="M10 31l-25 22 12-23z"/><path fill="#775852" d="M79 17l-12 1 15 7z"/><path fill="#4b5259" d="M85 48l-25-3 24-4z"/><path fill="#926034" d="M56 55l-28-8h17z"/><path fill="#4f453d" d="M81 9l-6-24 32 30z"/><path fill="#502937" d="M58 19L44 31l10-18z"/><path fill="#001821" d="M25 12l-6 11 12-10z"/><path fill="#b3a293" d="M60 56L39 45l18 4z"/><path fill="#9c9c9c" d="M-9 31l16-3 14-15z"/><path fill="#1c0f09" d="M50 42l10-11-11 6z"/><path fill="#bdb9b4" d="M73 14l6-2v2z"/><path fill="#31251a" d="M123 6l21 20-40-9z"/><path fill="#8294a5" d="M73 41l9 7-4-6z"/><path fill="#877568" d="M23 28L12 43 1 41z"/><path fill="#3e2d25" d="M91 21l42 20-24-21z"/><path fill="#00151c" d="M6 57l-14-2L4 44z"/><path fill="#000b1b" d="M144 2v-17L91-1z"/><path fill="#1b0809" d="M83 51l-8 2 13 2z"/><path fill="#b6a7a1" d="M91 17l-8-5 7 16z"/><path fill="#63413a" d="M72 50l-7-17 12 12z"/><path fill="#879cb6" d="M105 31L90 44l6-18z"/><path fill="#6d6b79" d="M49 31l3-12 2 11z"/><path fill="#c1c5ca" d="M84 29l-18-9 21 24z"/><path fill="#976d44" d="M73 57l-29-9 14 10z"/><path fill="#7e8288" d="M24 26l3-9-13 14z"/><path fill="#0f1508" d="M16-15l6 26L8-15z"/><path fill="#000313" d="M10 17l-14 7 6-7z"/><path fill="#4d1f19" d="M69 51l-8-14-2 5z"/><path fill="#5a3023" d="M63 31l2-12 5 10z"/><path fill="#7f8a94" d="M56 11l4 14 1-13z"/><path fill="#ada1a7" d="M78 59l-6-6 17 5z"/><path fill="#7d573c" d="M68 55l44 25-5-16z"/></svg>