<svg xmlns="http://www.w3.org/2000/svg" viewBox="0 0 2000 1000"><path fill="#514946" d="M0 0h2000v1000H0z"/><path fill="#dee2e9" d="M1645 691l-711 94 328-531z"/><path fill="#cfb698" d="M660 1121l906-70L309 731z"/><path fill="#07040b" d="M277 262L785-27l8 875z"/><path fill="#2a241d" d="M1152-121l657 1242 281-1242z"/><path fill="#d7f0fb" d="M1035 316l367 461-296-62z"/><path fill="#bdbaac" d="M418 379L27 754l157 16z"/><path fill="#bacacd" d="M4 621l258-273-321 148z"/><path fill="#080105" d="M-121 1020l227 78 437-649z"/><path d="M1316 270l-304 62 117-273z"/><path fill="#859ea8" d="M879 223l297-274-321 578z"/><path fill="#9f3d22" d="M785 840l406-31-273-282z"/><path d="M2121 910l-94-664-117 820z"/><path fill="#8498a5" d="M1629 590l-703 531 468-695z"/><path fill="#200000" d="M1395 824l164 110 250-469z"/><path fill="#b5ab9c" d="M473 121l414-242H145z"/><path fill="#171f28" d="M418 98L-121-74 19 481z"/><path fill="#8c7063" d="M1145 496l547-86-594-117z"/><path fill="#1a0f0b" d="M-121 738l562 164-109 219z"/><path fill="#001015" d="M2074-121l-78 266L1145 4z"/><path fill="#511609" d="M1113 543L996 402 754 691z"/><path fill="#070210" d="M184 441L4 723l414-360z"/><path fill="#070a0d" d="M238 699l461-578-203 485z"/><path fill="#cad6d9" d="M1262 738l70-164-336-195z"/><path fill="#727872" d="M1957 637l47-172-344-55z"/><path fill="#5d707b" d="M1160 27l500 79-273 54z"/><path fill="#38221d" d="M684 387L449 754l469-31z"/><path fill="#b2bdbe" d="M520 590L340 816l109-62z"/><path fill="#84919d" d="M1606 637l-250 179-39-523z"/><path fill="#482a1d" d="M1152 926l-148-297 430 391z"/><path fill="#9b9b96" d="M106 684v187l226-430z"/><path fill="#8f7156" d="M1926 856V692l-235 85z"/><path fill="#866749" d="M1551 1106L215 723l461 398z"/><path fill="#bbb9b8" d="M699 777l-23-62-102 47z"/><path fill="#adb4bb" d="M1168 324l-133 125-15-78z"/><path fill="#290400" d="M1887 816l-71 305-211-117z"/><path fill="#6c93b3" d="M731 582l203-101-39-63z"/><path fill="#8e4c24" d="M1856 871l-407 180-47-133z"/><path fill="#1f1716" d="M723-98l179 563L629 74z"/><path fill="#1f0d04" d="M1043 270l-78-47v289z"/><path fill="#746351" d="M191 223L582 27l47 125z"/><path fill="#1e241d" d="M1113 238l492 157-468-375z"/><path fill="#b3c3cd" d="M1035 824l141 86h-102z"/><path fill="#5b7281" d="M2121 231l-422-71 203-39z"/><path fill="#595279" d="M590 473l78 62 31-250z"/><path fill="#ea834e" d="M949 691l78-101-148 55z"/><path fill="#000001" d="M1887 1121l125-687 109 468z"/><path fill="#b7a090" d="M1293 668l23-352 125 63z"/><path fill="#722f22" d="M645 699l148-242-47 383z"/><path fill="#005670" d="M1004-35L832 207l-47-62z"/><path fill="#3b0907" d="M1527 496l321 110-32 195z"/><path fill="#819bab" d="M1895 1012l47-250-63 117z"/><path fill="#b9b8b5" d="M887 957l219-16-422-117z"/><path fill="#887371" d="M1035 223l180-344H731z"/><path fill="#001416" d="M715 668l-172 16 70-188z"/><path fill="#282317" d="M1645 387l429 93-47-281z"/><path fill="#445b6a" d="M629 270L262 402h195z"/><path fill="#7fa2c0" d="M1324 801l180-281 125 70z"/><path fill="#b4544a" d="M910 731l86 148-211-55z"/><path fill="#536a7e" d="M1504 582l-86-211-47 383z"/><path fill="#bdd2da" d="M1301 504l-110 281-156-203z"/><path fill="#8e6969" d="M129 371L74 176l-62 23z"/><path fill="#6590b7" d="M965 293l-63 70-78-234z"/><path fill="#2d0000" d="M1074 426l8-24-47-31z"/><path fill="#897864" d="M332 551L20 731l156 62z"/><path fill="#788a96" d="M824 988l-281-86-109 149z"/><path fill="#132c3a" d="M1301 824l-102-47 102-31z"/><path fill="#a81f38" d="M145 981l-32 140-31-258z"/><path fill="#85887d" d="M223 910l31-86v125z"/><path fill="#a17c5b" d="M1637 691l86 94 62-23z"/><path fill="#051821" d="M527 98L277 387l266-86z"/><path fill="#9a6a3d" d="M1043 1121h609L574 832z"/><path fill="#d98054" d="M941 668l78 117 87-70z"/><path fill="#93948f" d="M82 566l203-226-328 148z"/><path fill="#bf9699" d="M1402 910l-101 31 15-54z"/><path fill="#aec6db" d="M1473 1027l-172 94-156-172z"/><path fill="#a5adb4" d="M535 535l24 31-78 102z"/><path fill="#12181f" d="M426 402l-8 313 344-516z"/><path fill="#070b08" d="M1106 348l-86-24 132-289z"/><path fill="#e5ffff" d="M996 371l31-23 55 7z"/><path fill="#1e1718" d="M856 527L731 684l156 86z"/><path fill="#130505" d="M1270 965l39-102-157 71z"/><path fill="#2d2127" d="M660-19l78-102 258 352z"/><path fill="#4b4336" d="M1402 121l-218 110 726 179z"/><path fill="#040d15" d="M98 434l125-94-344 94z"/><path fill="#9d9389" d="M1332 816l-226 102h109z"/><path fill="#0b0a00" d="M20-121L-82 316 82 51z"/><path fill="#1c0f07" d="M1871 879l-344-86 55-102z"/><path fill="#2e201c" d="M1410 434l86-39 172 210z"/><path fill="#bbd8e1" d="M1090 371l125-70-71 15z"/><path fill="#5a2e00" d="M1238 1121l172-226 274 211z"/><path fill="#170f00" d="M504 1082L340 848l-133 234z"/><path fill="#88625b" d="M1223 316l125 149-227 8z"/><path fill="#49647f" d="M168 215L207-4l31 227z"/><path fill="#c19693" d="M1621 910v-78l47 24z"/><path fill="#a0a69e" d="M1059 90l-16 94-156 62z"/><path fill="#592c37" d="M-59 574l141 78 78-70z"/><path fill="#070000" d="M824 457V332l55 55z"/><path fill="#001620" d="M106 1121L43 809l-164 23z"/><path fill="#291206" d="M1098 926l-141-55 39-47z"/><path fill="#2d2515" d="M582 785l-141-31 196-219z"/></svg>