<svg xmlns="http://www.w3.org/2000/svg" viewBox="0 0 200 100"><path fill="#534948" d="M0 0h200v100H0z"/><path fill="#c9cad0" d="M164 60l-50-32-28 88z"/><path fill="#cbae90" d="M37 75l101 26-82 6z"/><path fill="#090511" d="M29 30l46 49 7-86z"/><path fill="#1c201c" d="M195-15L97 26l119 24z"/><path fill="#daeefb" d="M118 76l-16-38 42 32z"/><path fill="#68261a" d="M67 82l20-30 58 49z"/><path fill="#371108" d="M186 109l2-66-46 40z"/><path fill="#c5c3b9" d="M9 71l8 10 18-37z"/><path fill="#bcc3c3" d="M4 59l31-27-37 17z"/><path fill="#0c0005" d="M11 116l37-23-63-21z"/><path fill="#eae0e1" d="M140 35l5 12-24-18z"/><path fill="#94a4b0" d="M116-1L91 46l-5-18z"/><path d="M192 103l23-6-9-80z"/><path fill="#b3aa9e" d="M22-15L70 2 46 13z"/><path fill="#06060a" d="M48 64L14 82l57-65z"/><path fill="#171d2a" d="M4 46L39 9-15-8z"/><path fill="#252a2b" d="M198 2L90 41l36-56z"/><path fill="#6b747d" d="M111 4l32 13 22-7z"/><path fill="#571308" d="M98 36l13 19-25 10z"/><path fill="#c26a55" d="M83 92l12-36 14 18z"/><path fill="#c9dae3" d="M135 48l-12 29-20-17z"/><path fill="#070f1f" d="M17 44l34-15-38 33z"/><path fill="#9e7c72" d="M131 29l-30 7 37 16z"/><path fill="#6b8193" d="M96 107l59-37-7-24z"/><path fill="#140406" d="M153 45l24 31 1-22z"/><path fill="#9e8469" d="M177 83l-9-11 25 9z"/><path fill="#62463b" d="M129 76l-48 2 81 24z"/><path fill="#2e1914" d="M66 56l34 19-54-1z"/><path fill="#c7ccce" d="M54 57l-3 10-9 7z"/><path fill="#896a4e" d="M140 104L29 79l42 37z"/><path fill="#8a8c8d" d="M48 33L25 53l1 14z"/><path fill="#7893af" d="M93 49L75 59l18-21z"/><path fill="#091419" d="M216-15l-17 29-83-12z"/><path fill="#c3b3b1" d="M69 80l-9-4 9-4z"/><path fill="#080400" d="M115 32l-13 2 15-34z"/><path fill="#97655e" d="M143 113l21-29 14 4z"/><path fill="#5e6b78" d="M165 14l51 12-22-13z"/><path fill="#6b736d" d="M198 64V48l-31-7z"/><path fill="azure" d="M110 38h-8l2-3z"/><path fill="#978181" d="M105 24l10-25L92 9z"/><path fill="#cbcbcd" d="M79 91l-10-7 24 6z"/><path fill="#89776c" d="M24 73L7 71l4 16z"/><path fill="#a5b6c5" d="M103 83l25 18-15-4z"/><path d="M134 98l-7-8-12 3z"/><path fill="#693d2f" d="M124 34l-13 3 5 11z"/><path fill="#211415" d="M73 43l16-1-24-52z"/><path fill="#875e63" d="M55-4l8 16-8 16z"/><path fill="#000300" d="M104 84l-9 4 9 3z"/><path fill="#889ca6" d="M194 80l-14 36 11-5z"/><path fill="#1c0c0c" d="M137 85l37-2-12-15z"/><path fill="#95b5d6" d="M137 79l16-23 7 8z"/><path fill="#becfd7" d="M108 71l3-18 33 26z"/><path fill="#5f3e4d" d="M59 47l19 20-9-35z"/><path fill="#000002" d="M193 99l23 6-10-87z"/><path fill="#251e21" d="M12 98l41-41-2-33z"/><path fill="#537db3" d="M93 41l-1-18-12-13z"/><path fill="#242d34" d="M50 20l-32 3-30 31z"/><path fill="#2a0d02" d="M159 103l24 11 6-31z"/><path fill="#815f61" d="M-3 22l10-4 7 19z"/><path fill="#45535b" d="M28 18l13 35-28-35z"/><path fill="#312121" d="M164 59l-22-16h22z"/><path fill="#514034" d="M131 12l52 17-62 1z"/><path fill="#38060e" d="M18 47l-2 14L0 74z"/><path fill="#8b7665" d="M29 92l-5 7 1-15z"/><path fill="#924f08" d="M144 116l12-22-14-5z"/><path fill="#502723" d="M67 73l44-18H72z"/><path fill="#9b9a96" d="M55 58L34 82l12-4z"/><path fill="#897c89" d="M55 34l-11 2 14-7z"/><path fill="#094d66" d="M81 11v10l22-24z"/><path fill="#af5254" d="M84 74h21L80 86z"/><path fill="#7a736a" d="M33 85l-3-10 15-11z"/><path fill="#b9aca3" d="M130 76l12-35-19 20z"/><path fill="#828c97" d="M70 116L47 89l76 21z"/><path fill="#c2c3bf" d="M124 35l5-4 9 3z"/><path fill="#302111" d="M59 78l-12-1 4-11z"/><path fill="#060a09" d="M13 113l51-8-47-14z"/><path fill="#b79992" d="M134 90l9 2-12 2z"/><path fill="#c6dbe4" d="M108 35h5l-3 10z"/><path fill="#cf1e47" d="M12 94l-7 15 12-3z"/><path fill="#ce7450" d="M104 78L88 65l12-4z"/><path fill="#0e0600" d="M96 116L62 95l15 17z"/><path fill="#040004" d="M97 44l4-10-1 14z"/><path fill="#936471" d="M85 29l-5 6 1 11z"/><path fill="#1e4660" d="M122 77l3 7 10-10z"/><path fill="#cedbe0" d="M110 68l19-17-17-2z"/><path fill="#999797" d="M31 31L18 48 0 51z"/><path fill="#000008" d="M137 35l14-1-13-5z"/><path fill="#130c01" d="M16-15L2 19l-17-5z"/><path fill="#000003" d="M25 13l1-17 5 22z"/><path fill="#0d1015" d="M79 63l7-1-9 23z"/><path fill="#3f2a19" d="M139 14l71 10-7 19z"/><path fill="#2d0700" d="M133 116l11-25-8 5z"/><path fill="#04161c" d="M72 62L54 75l9-26z"/><path fill="#09161f" d="M69 6L41 65l26-29z"/><path fill="#9a6d46" d="M159 111l-59 5-27-28z"/><path fill="#806d60" d="M185 75l10 10-2-20z"/><path fill="#2a272f" d="M86 25l-38 1 39 12z"/><path fill="#162431" d="M61 16L31 48l3-23z"/><path fill="#a6c3db" d="M116 70l9 13-8-6z"/><path fill="#977871" d="M117 48l21-11-17-7z"/></svg>