<svg xmlns="http://www.w3.org/2000/svg" viewBox="0 0 128 64"><path fill="#534949" d="M0 0h128v64H0z"/><path fill="#cdc8ca" d="M39 80l64-39-21-24z"/><path fill="#0d0612" d="M51-2L19 21l34 33z"/><path fill="#c7a586" d="M116 72l-79 8-10-31z"/><path fill="#d6e7f3" d="M91 45L64 20l11 29z"/><path fill="#272521" d="M71 6l54-21 19 89z"/><path fill="#4d2a22" d="M144 79l-33-33-69 5z"/><path fill="#120203" d="M-15 58l33-8 24 26z"/><path fill="#aeaaa2" d="M7 56l22-31L8 41z"/><path fill="#b6bfc1" d="M21 23L-9 34l7 6z"/><path fill="#8e92a0" d="M82-15L54 33l13-48z"/><path fill="#0c080d" d="M7 56l27-20L46 6z"/><path fill="#000702" d="M83 17l-20 6L75 2z"/><path fill="#b9ab9f" d="M20 1l35-9L33 7z"/><path fill="#1c212a" d="M27 7L-9 40l1-55z"/><path fill="#8c99ab" d="M86 54l-6-30 25 15z"/><path fill="#a74f38" d="M60 36l10 10-23 33z"/><path fill="#2a0205" d="M107 33L93 58l27-19z"/><path fill="#786d67" d="M123 61l5-31-13-2z"/><path d="M144 28l-10-43-12 92z"/><path fill="#011119" d="M125-15l18 26L41-4z"/><path fill="#9a847d" d="M77 19l-14 8 42-1z"/><path fill="#100e1c" d="M12 28L3 45l28-27z"/><path fill="#602017" d="M39 50l33-15-8-7z"/><path fill="#65727e" d="M100 4l-4 6-21-5z"/><path fill="#a49787" d="M17 55l17-16-6 15z"/><path fill="#d1dfe5" d="M70 46l16-10-15-6z"/><path fill="#aa8e8b" d="M32 52l12-6 4 3z"/><path fill="#36201d" d="M30 49l25-5-7-19z"/><path fill="#999a99" d="M7 36l14-15-34 16z"/><path fill="#986845" d="M80 54l26 7-8 5z"/><path fill="#495c6a" d="M39 19L24 29l-9-2z"/><path fill="#1f0900" d="M121 52l-3 20-28 8z"/><path fill="#a9a09a" d="M42 53l53 13-4 14z"/><path fill="#8d623d" d="M76 64l6 16-45-26z"/><path fill="#677f91" d="M61 19l-1 12-11 7z"/><path fill="#95abb2" d="M123 57l-14 23 12-9z"/><path fill="#5c2e2c" d="M46 25l24 34-26-7z"/><path fill="#85584d" d="M77 22l-5 7 14 2z"/><path fill="#a0a4a2" d="M68 13l-12 6L69 5z"/><path fill="#b3665c" d="M52 49l5 8 13-11z"/><path fill="#2a2213" d="M62 23l2-9 3 19z"/><path fill="#f1eef8" d="M71 26v-2l-3-2z"/><path fill="#1e1b23" d="M39 20l19 9L47-5z"/><path fill="#49140e" d="M120 33l-1 15-8-2z"/><path fill="#5c6a71" d="M144 16l-5-9-30 3z"/><path fill="#7094b3" d="M103 37l-8-5-12 22z"/><path fill="#4c475a" d="M72-10L51 29l1-37z"/><path fill="#0e0e0e" d="M106 48l-5 11-6-9z"/><path fill="#bba19b" d="M84 20l7 3-6 20z"/><path fill="#a0b7ba" d="M79 57H68l5 2z"/><path fill="#000c13" d="M95 18l9 7-16-4z"/><path fill="#979087" d="M12 51l-9-3 23-22z"/><path fill="#514c66" d="M46 19L30 41l14-10z"/><path fill="#050d1b" d="M6 50l-21 2L1 80z"/><path fill="#8d7662" d="M115 53l-9-8 21 9z"/><path fill="#845057" d="M35 17l6-9-6-1z"/><path fill="#151d27" d="M43 22L30 10l-3 36z"/><path fill="#c97d66" d="M57 46l10-8-10 4z"/><path fill="#4a3f32" d="M81 19l34-1L78 6z"/><path fill="#bad5e1" d="M78 33l1 19-11-13z"/><path fill="#3e2120" d="M68 49l5-2-3 8z"/><path fill="#221c1b" d="M34 45l7-13 20 15z"/><path fill="#566064" d="M17 15L3 13l20-3z"/><path fill="#75869c" d="M55 11l4 21 4-15z"/><path fill="#5b6a78" d="M95 38l-3-12-5 22z"/><path fill="#c2cacf" d="M84 49L68 28l12 5z"/><path fill="#221123" d="M45-3v-12l17 27z"/><path fill="#24191f" d="M15 25L2 43l21-16z"/><path fill="#5f594f" d="M94 26h20l10 10z"/><path fill="#190900" d="M120 56l-18-11 9 10z"/><path fill="#302318" d="M111 26l15-13 17 19z"/><path fill="#232a2d" d="M28 14l-12-1L6 27z"/><path fill="#746762" d="M17 63l-2-9h3z"/><path fill="#070000" d="M61 32h3l1-9z"/><path fill="#020406" d="M18 49l-5 15-4-6z"/><path fill="#0f0800" d="M2 11L7-9l-22 19z"/><path fill="#916861" d="M87 73l21-19-12 26z"/><path fill="#401900" d="M77 60l26 7-8-7z"/><path fill="#b4aeaf" d="M40 53l26 6-13 1z"/><path fill="#b8cad1" d="M90 50l-11-4-9-19z"/><path fill="#3d5362" d="M88 58l-4-10-8 3z"/><path fill="#896849" d="M52 58H28l-8-9z"/><path fill="#675d5e" d="M78 4L47-15 57 6z"/><path fill="#171714" d="M74 10L63 20l8 2z"/><path fill="#782a43" d="M17-5L6 2h19z"/><path fill="#764851" d="M45 42l7-3 2-17z"/><path fill="#a7ada7" d="M73 80L42 60l30 9z"/><path fill="#35030b" d="M58 27h-4l-4-12z"/><path fill="#735458" d="M4 9l-4 3 10 12z"/><path fill="#9d837f" d="M92 58l-9 2 3-3z"/><path fill="#281c0c" d="M24 53L12 71l25 9z"/><path fill="#49342f" d="M26 28l6 4-19 15z"/><path fill="#525f6b" d="M28 80l3-21 72 21z"/><path fill="#625760" d="M34 19h7l-15 6z"/><path fill="#d43256" d="M7 61l1 12 12 7z"/><path fill="#806751" d="M32 9l-4-4-11 9z"/><path fill="#00121d" d="M46 42l-7-2-6-14z"/><path fill="#56616a" d="M108 9l-15 1 8-4z"/><path fill="#1e1626" d="M12 25L6 11l4-10z"/><path fill="#180815" d="M84 57l-7 5 1-4z"/></svg>