<svg xmlns="http://www.w3.org/2000/svg" viewBox="0 0 400 200"><path fill="#544b47" d="M0 0h400v200H0z"/><path fill="#c0b4b1" d="M133 174L253 36l69 60-120 138z"/><path fill="#070812" d="M70 113L98-29l77 15-28 142z"/><path fill="#dcf5fe" d="M269 132l-56-7 7-52 56 6z"/><path fill="#512314" d="M297 185l-159-42 11-39 158 42z"/><path fill="#030000" d="M51 126l69 96-69 51-70-96z"/><path fill="#2e150c" d="M350 75l109 105-67 69-108-106z"/><path fill="#998c79" d="M101 103l83 80-36 37-83-80z"/><path fill="#1e190d" d="M476 46l-9 41-194-41 9-41z"/><path fill="#bfbdb0" d="M11 128l50-56 11 11-50 56z"/><path fill="#d6e6eb" d="M237 172l110 28-2 4-109-27z"/><path fill="#d7e8f3" d="M211 45l31 56-11 6-31-56z"/><path fill="#b3c0bf" d="M-10 107l-8-10 67-52 8 10z"/><path fill="#020800" d="M263 39h-49v-58h48z"/><path fill="#94aeba" d="M168 45l41-57 13 9-42 57z"/><path fill="#98b2be" d="M390 131l-13 79-9-2 13-79z"/><path fill="#98632d" d="M335 220L54 145l4-14 280 76z"/><path fill="#1e262d" d="M-24 14l63-58 68 76-64 57z"/><path fill="#0a0b04" d="M129 91l14 16-36 32-14-16z"/><path d="M398 255l-23-3 25-181 24 3z"/><path fill="#6f210c" d="M196 64l25 17-34 50-25-16z"/><path fill="#abaeaa" d="M59 54L-4 89l-3-7 62-35z"/><path fill="#8c98a4" d="M231 73l45-27 42 70-46 27z"/><path fill="#bfd8e4" d="M207 98l29-22 30 40-29 22z"/><path fill="#1d0c09" d="M286 57l76 44-6 9-76-43z"/><path fill="#090300" d="M53 136l-11-11 47-47 11 11z"/><path fill="#d76f45" d="M183 100l37 24-7 12-38-24z"/><path fill="#986154" d="M311 184l-9-13 36-22 8 13z"/><path fill="#9f786c" d="M228 77l-1-34 43-3 2 35z"/><path fill="#cedbde" d="M92 119l-1-1 22-29 1 1z"/><path fill="#c0ced5" d="M164 159l-93-29 1-3 93 29z"/><path fill="#876e52" d="M355 151l-8-20 38-15 7 20z"/><path fill="#78624e" d="M61 23l-5-33 63-11 5 32z"/><path fill="#000610" d="M19 138l-7 46-29-4 6-47z"/><path fill="#1b0a0a" d="M298 137l-56 36-4-5 56-37z"/><path fill="#220b14" d="M11 119l-8-6 54-62 7 7z"/><path d="M188 65l50-74 4 2-50 74z"/><path fill="#a3d9f1" d="M212 145l14 17-5 4-14-17z"/><path fill="#608caf" d="M154 88l31-31 6 6-30 32z"/><path fill="#e9ffff" d="M279 52l-1 1-21-13 1-1z"/><path fill="#3b1b17" d="M180 126l-36 9-10-38 36-9z"/><path fill="#bcc6c3" d="M219 57l-1-3 27-16 1 3z"/><path fill="#4581ac" d="M192 51l-7 3-32-59 7-4z"/><path fill="#8fbbdd" d="M286 129l-7-9 40-28 6 9z"/><path fill="#bdced5" d="M279 188l-153-44v-2l153 44z"/><path fill="#00000d" d="M-11 74l-5-15 32-10 4 15z"/><path fill="#010b0e" d="M163-8l-54 88-17-11 53-88z"/><path fill="#818a9b" d="M75 61l44-28 1 2-44 27z"/><path fill="#626b72" d="M256 127l29 30-14 14-30-29z"/><path fill="#100706" d="M294 136l29-21 16 23-29 21z"/><path fill="#000d15" d="M333 5V-6l86 3V8z"/><path fill="#8a9ca6" d="M117 175l107 17-2 12-107-16z"/><path fill="#9c243e" d="M17 237l-1-75h9l1 75z"/><path fill="#120a00" d="M309 8l96 19v1L309 9z"/><path fill="#0f0f02" d="M49 210l15-57 26 7-15 57z"/><path fill="#4a4137" d="M341 57L239 22l9-24 102 35z"/><path fill="#998a76" d="M50 109l4 4-33 39-5-4z"/><path fill="#000001" d="M32 146l14 2-5 54-14-1z"/><path fill="#9c8f8c" d="M45 186l7-43h2l-8 44z"/><path fill="#35231a" d="M198 39l10 76-8 1-9-76z"/><path fill="#1b1222" d="M177 69l-11 1-4-40 11-1z"/><path fill="#5e4e73" d="M125 49l14 4-10 30-13-4z"/><path fill="#a7aeb4" d="M79 135l29-45 2 2-29 44z"/><path fill="#181812" d="M198 23l27 8-6 19-27-7z"/><path fill="#8b5611" d="M284 159l29 5-4 23-30-5z"/><path fill="#100003" d="M270 176l-34-5 1-8 34 5z"/><path fill="#a44338" d="M157 151l4-27 34 5-4 26z"/><path fill="#0a181e" d="M77 57L61 30l39-23 16 27z"/><path fill="#998364" d="M358 146l-28-23 4-4 28 22z"/><path fill="#320708" d="M330 92l45 18-9 22-45-18z"/><path fill="#a1b0b0" d="M209 171l-1-3 50-22 1 3z"/><path fill="#00080d" d="M314 48l-2 6-46-13 1-6z"/><path fill="#2b1303" d="M355 146l21 5-10 45-22-5z"/><path fill="#79949e" d="M399 77l-9 27-6-2 9-26z"/><path fill="#823c2c" d="M138 132l-9-6 22-38 9 6z"/><path fill="#201004" d="M116 129l-2 9-25-6 2-9z"/><path fill="#341011" d="M215 165L99 129v-1l117 35z"/><path fill="#b79b88" d="M272 47l10 2-12 62-10-2z"/><path fill="#678faf" d="M286 69l35 31-14 17-36-31z"/><path fill="#6d8290" d="M65 62l-1 1L39 5l2-1z"/><path fill="#62340d" d="M298 206l-1 2-140-38v-1z"/><path fill="#040c15" d="M-3 127l94-85 1 1-94 85z"/><path fill="#080503" d="M194 145l4-3 16 17-4 4z"/><path fill="#89979c" d="M84 55l4 5-61 55-4-4z"/><path fill="#de906f" d="M191 131l11-14 12 10-11 13z"/><path fill="#cdb0b2" d="M328 158l-6-4 4-8 7 4z"/><path fill="#8e9698" d="M13 68l10 19-34 19-11-19z"/><path fill="#97abb5" d="M278 140l-12 2-8-36 12-3z"/><path fill="#af9595" d="M24 55L10 16l2-1 14 40z"/><path fill="#acbabb" d="M252 40l-45 18-1-3 45-17z"/><path fill="#70493c" d="M218 60l23-17 8 11-22 17z"/><path fill="#191815" d="M174 109l-13 26-21-11 13-26z"/><path fill="#a8a9a4" d="M225 87l2 4-32 17-2-4z"/><path fill="#abaca7" d="M176 182l-89-24 1-1 89 24z"/><path fill="#3f0600" d="M309 188l3-11 33 8-2 11z"/><path fill="#a8c1ce" d="M119 128l21 5-1 3-21-5z"/><path fill="#8f8990" d="M177 82l4-54 10 1-5 54z"/><path fill="#201313" d="M82 6l-34 9-4-14 35-8z"/><path fill="#566576" d="M283 119l-15-9 13-21 15 9z"/><path fill="#b7a082" d="M232 200l1-6 21 4-1 6z"/><path fill="#150801" d="M282 143l-46 26-1-1 46-26z"/><path fill="#80817a" d="M376 157l3 1-10 43-3-1z"/><path fill="#000d0e" d="M380 204l15-109 17 3-15 108z"/><path fill="#131d20" d="M150 193l10 2-2 11-11-3z"/><path fill="#978882" d="M182 2l11-11 23 24-11 11z"/><path fill="#9d5765" d="M106-13h6l5 40-6 1z"/><path fill="#d1dfde" d="M263 92l-59-28v-1l60 28z"/><path fill="#071316" d="M291 51l1-6 129 25-2 6z"/><path fill="#200404" d="M202 58l6 14-18 9-6-15z"/><path fill="#07100c" d="M151 21l7 45-14 2-7-45z"/><path fill="#8b8e8b" d="M368 68v2L249 49v-1z"/><path fill="#a2c8db" d="M222 114l31 39-1 1-32-39z"/><path fill="#b1895e" d="M385 226l-260-69 1-3 260 69z"/><path fill="#242b36" d="M184 22L165 1l9-8 19 20z"/><path fill="#271e1b" d="M102 56l-50 83-9-6 50-83z"/><path fill="#6e6b61" d="M48 169l-5-4 35-45 5 4z"/><path fill="#2f0000" d="M213 64l-6-7 3-3 7 6z"/><path fill="#c87f92" d="M160 72l2-27 2 1-3 26z"/><path fill="#3b2f1d" d="M119 201l-7 9-61-54 7-8z"/><path fill="#200a11" d="M-12-14l45 5-3 25-45-6z"/><path fill="#00181e" d="M106 60l40 52-10 8-40-52z"/><path fill="#463026" d="M205 137l15-12 11 15-15 12z"/><path fill="#5f1212" d="M323 100l10 4-13 29-10-4z"/><path fill="#154158" d="M263 140l-15 9-7-13 15-8z"/><path fill="#aeb4b5" d="M173 159l1-5 92 26-1 5z"/><path fill="#9d8990" d="M9-12l2-1 4 39h-2z"/><path fill="#b09393" d="M259 171l-1-3 18-9 2 3z"/><path fill="#79372c" d="M220 94l-36-4 1-8 36 5z"/><path fill="#8a6e6a" d="M234 56h21v21h-21z"/><path fill="#a9b3ca" d="M193 42l-1 1-24-33 1-1z"/><path fill="#396a87" d="M81 48l2 4-28 14-2-4z"/><path fill="#223441" d="M272 122l1-2 19 16-1 2z"/><path fill="#9a5335" d="M147 131l-3 4-20-18 3-3z"/><path fill="#80585b" d="M14 131l-3-1 11-34 3 1z"/><path fill="#613d4f" d="M172 20l-3 26-14-1 3-27z"/><path fill="#2d2321" d="M310 60l50 33-13 18-49-33z"/><path fill="#7e2f22" d="M357 98l31 10-3 9-31-11z"/><path fill="#918266" d="M64 22l-2-8 26-6 2 8z"/><path fill="#70615a" d="M269 146l-1-2 42-29 2 2z"/><path fill="#111009" d="M367 149l-4 7-41-22 4-7z"/><path fill="#546d7d" d="M321 5l-1 6-74-14 1-6z"/><path fill="#825653" d="M274 144l39 26-4 6-39-25z"/><path fill="#312010" d="M359 17l55 8-2 19-56-8z"/><path fill="#3f3f38" d="M124 170l1-1 25 16-1 1z"/><path fill="#1c343e" d="M129 57l-14-21 27-17 13 21z"/><path fill="#9da09f" d="M308 189l-2 6-65-17 1-5z"/><path fill="#c8dbe4" d="M236 132l-1 1-19-82 1-1z"/><path fill="#001318" d="M89 110l1 1-11 18-2-1z"/><path fill="#393128" d="M276 41l-28-5 6-34 28 5z"/><path fill="#5b262c" d="M164 73l-12 21-27-15 12-22z"/><path fill="#121511" d="M204 42l22-49 15 7-21 49z"/><path fill="#68473d" d="M321 139l39 19-1 5-40-20z"/><path fill="#c0d4d7" d="M228 95l-24-37 1-1 24 37z"/><path fill="#3f2727" d="M171 151l-1 2-80-22 1-1z"/><path fill="#475c6c" d="M404 10l-2 12-54-8 2-13z"/><path fill="#c0c9cb" d="M260 80l-4 34-39-4 4-35z"/><path fill="#5a3f37" d="M61 88l17-11 9 14-16 12z"/><path fill="#020e0c" d="M341 123V91h13v32z"/><path fill="#080000" d="M337 151l-6 21h-1l6-21z"/><path fill="#5c554e" d="M325 52l1-1 60 11-1 2z"/><path fill="#6c2618" d="M149 144l-12-2 6-46 12 1z"/><path fill="#201e1b" d="M46 35l-7 14-27-14 7-14z"/><path fill="#846d58" d="M387 102l6 2-19 40-6-3z"/><path fill="#8cbfdf" d="M213 115l-8-7 8-9 9 7z"/><path fill="#d1ecf5" d="M283 69l-9-20 1-1 9 20z"/><path fill="#9f9e99" d="M63 146l-1-1 36-30 1 1z"/><path fill="#5c564a" d="M207 111l23 16-1 1-23-16z"/><path fill="#230b00" d="M333 186l-6-9 26-15 6 9z"/><path fill="#92767b" d="M173 50l6-3 12 27-6 3z"/><path fill="#d67142" d="M176 108l21-7 3 9-21 6z"/><path fill="#5e4e5e" d="M-10 111L2 93l10 7-12 18z"/><path fill="#5a4a34" d="M284 55l43 9-3 10-43-8z"/><path fill="#628ca7" d="M152 97l24-31 1 1-23 31z"/><path fill="#131911" d="M73 115l-2 22h-5l2-22z"/><path fill="#57524c" d="M273 27l3-10 46 14-3 10z"/><path fill="#66605b" d="M81 18l-84 7-1-4 84-7z"/><path fill="#040d13" d="M62 47l46-19 3 8-46 18z"/><path fill="#18181b" d="M191 120v1l-21 11v-2z"/><path fill="#8d6a50" d="M63 132l-7-1 2-11 6 1z"/><path fill="#a7495d" d="M31 174l-14 15-2-2 13-15z"/><path fill="#402f21" d="M45 180l-2-2 36-37 2 2z"/><path fill="#1e1713" d="M159 96l-1-2 47-22 1 1z"/><path fill="#354c64" d="M158 52l50-62 1 1-50 62z"/><path fill="#747c85" d="M95 177l7-14 42 21-7 14z"/><path fill="#000b0c" d="M50 195l7-16 51 24-7 16z"/><path fill="#99a1a4" d="M190 220l-31-7 9-35 30 8z"/><path fill="#d3e9f0" d="M259 43l-19-2v-1l19 2z"/><path fill="#240f0a" d="M244 162l40 14-2 4-39-14z"/><path fill="#0a1118" d="M61 62l1 1-40 48-1-1z"/><path fill="#b66755" d="M165 134l31 11-3 7-31-11z"/><path fill="#a38774" d="M263 112l12-40 7 2-11 40z"/><path fill="#5c4029" d="M93 125l17-28 8 5-17 28z"/><path fill="#1b0a06" d="M108-57l68 119-4 3-69-119z"/><path fill="#8d2921" d="M364 115l-7 21-7-3 7-20z"/><path fill="#005162" d="M164 21l-6-4 17-24 6 4z"/><path fill="#261c1b" d="M113 22l-10 2-8-45 10-1z"/><path fill="#000a0b" d="M114 75l-64 52-3-4 64-52z"/><path fill="#867863" d="M-23 125l63-3v11l-62 3z"/><path fill="#6c838b" d="M73 126l-1-1 16-21 1 1z"/><path fill="#95b7be" d="M203 140l15 18-1 1-15-18z"/><path fill="#a78b66" d="M195 34l-1 1-34-49 1-1z"/></svg>