<svg xmlns="http://www.w3.org/2000/svg" viewBox="0 0 400 200"><path fill="#514946" d="M0 0h400v200H0z"/><path fill="#c7cbd0" d="M179 224l44-167 106 63z"/><path fill="#06030c" d="M157 163l2-164L56 57z"/><path fill="#c8ae8d" d="M65 148l59 76 188-14z"/><path fill="#271d17" d="M291-16L424 2l-83 222z"/><path fill="#e0f6fd" d="M206 81l65 37-34 41z"/><path fill="#6d3220" d="M135 98l228 115-209-43z"/><path fill="#b5b3ac" d="M26 127l-11 55L81 79z"/><path fill="#080000" d="M18 224l80-40-122-36z"/><path fill="#c0ccd1" d="M59 66l-74 36 19 18z"/><path fill="#080a03" d="M229 13l62 33-98 27z"/><path fill="#d5cfce" d="M238 59l57 43-19-36z"/><path fill="#9bb0b8" d="M174 52l58-56-55 92z"/><path d="M379 224l45-53-19-114z"/><path fill="#030307" d="M112 107l-85 64L149 7z"/><path fill="#b6aa9c" d="M95 24L38-18l136-6z"/><path fill="#141d27" d="M-24-16L6 93l70-75z"/><path fill="#1d0000" d="M312 187l-32-24 77-61z"/><path fill="#000f17" d="M226 4l187 25-22-53z"/><path fill="#4d1409" d="M201 76l-58 67 77-33z"/><path fill="#b66652" d="M179 79l-2 106 32-37z"/><path fill="#00020f" d="M73 81l-33 3-19 47z"/><path fill="#f6ffff" d="M201 79l6-13 11 7z"/><path fill="#71746c" d="M396 129l-94-55 89 19z"/><path fill="#bdd3dd" d="M270 93l-64 27 34 40z"/><path fill="#240000" d="M374 166l-90 58 84-3z"/><path fill="#000003" d="M324 77l-42-26-12 14z"/><path fill="#353c42" d="M276 152l-86 5 9 25z"/><path fill="#8babc1" d="M249 134l77-16-55 48z"/><path fill="#a5a49b" d="M90 154l9-25-48 45z"/><path fill="#8c6641" d="M46 149l217 56-86 19z"/><path fill="#86594b" d="M238 54l-18 34 54 11z"/><path fill="#1f150d" d="M93 146h95l-70-36z"/><path fill="#b9b1b5" d="M134 141l6 14-22-1z"/><path fill="#6796b9" d="M152 113l35-19-5-18z"/><path fill="#a37a55" d="M326 137l26 28 27-3z"/><path fill="#5b6d7c" d="M376 24l48 21-90-11z"/><path fill="#9ab2c0" d="M281 224l-36-1-41-61z"/><path fill="#8b9fa8" d="M373 195l9-38 2 64z"/><path fill="#8e8b81" d="M-9 157l55-16 47-75z"/><path fill="#c0cfd1" d="M101 118l11-5-14 21z"/><path fill="#0b0000" d="M226 185l50 14-20-17z"/><path fill="#8b574a" d="M270 218l62-52 28 14z"/><path fill="#231b19" d="M18 198L95 70v61z"/><path fill="#516979" d="M351 32l-50-22-50 11z"/><path fill="#6f5a82" d="M116 90l13 12 11-36z"/><path fill="#b3c1c8" d="M198 181l-44 1-30-19z"/><path fill="#557b9d" d="M313 110l-28-20-14 58z"/><path fill="#837778" d="M207 49l31-73-73 18z"/><path fill="#8b5f5f" d="M126 27L110 6v43z"/><path fill="#8c6968" d="M12 31l14 42L2 41z"/><path fill="#340a0b" d="M379 131l-25 18-64-65z"/><path fill="#024e63" d="M173 9l-16 40 56-67z"/><path fill="#b8b1aa" d="M237 138l47-65-22 79z"/><path fill="#3f3628" d="M249 21l141 20-155 19z"/><path fill="#000101" d="M404 62l-23 162 43-65z"/><path fill="#211613" d="M177 88l-54-72 22-31z"/><path fill="#84757f" d="M84 73l20-3 17-16z"/><path fill="#5683ab" d="M193 62l-9 17-25-62z"/><path fill="#040703" d="M232 37l-33 37 33-73z"/><path fill="#635a4a" d="M88 124l-42 44 3 31z"/><path fill="#732f25" d="M131 146l26-59-9 81z"/><path fill="#14282b" d="M13 87l30-36 48-16z"/><path fill="#29201c" d="M193 38l17 14-20 55z"/><path fill="#a2b2b9" d="M176 201l8 23-63-40z"/><path fill="#c8dae1" d="M251 151l-28-10-7-70z"/><path fill="#425762" d="M43 68L38 2l41 102z"/><path fill="#2b1306" d="M182 173l31 11-7-16z"/><path fill="#b1564b" d="M184 149l-27 16 44 11z"/><path fill="#acc8d0" d="M235 62l36 3-14-8z"/><path fill="#0c0200" d="M18 135l-3-16-16 25z"/><path fill="#a38c8d" d="M266 190l22-14-23 3z"/><path fill="#da845e" d="M193 138l5 21 28-16z"/><path fill="#b81d3d" d="M18 201l2-24 18 47z"/><path fill="#966d47" d="M124 168l85 56 32-23z"/><path fill="#49453c" d="M359 62l-119-3 37-22z"/><path fill="#613a26" d="M227 70l25-3-31 18z"/><path fill="#302322" d="M149 168l10-58 40-11z"/><path fill="#263d48" d="M243 149l17 2 13 25z"/><path fill="#261600" d="M51 224h69l-64-58z"/><path fill="#6b6f72" d="M166 207l-93-42 47 59z"/><path fill="#d0723e" d="M195 137l12-19-33 11z"/><path fill="#17190d" d="M112 157l23-39-47 31z"/><path fill="#000b0e" d="M424 79l-20 14-42-8z"/><path fill="#613800" d="M262 224l18-48 55 48z"/><path fill="#120c00" d="M-24-4L7 37l14-56z"/><path fill="#5c291a" d="M199 81l22 26-30 16z"/><path fill="#010004" d="M29 177l6 38 17-61z"/><path fill="#09212d" d="M109 21l-2 38-78 47z"/><path fill="#958b7b" d="M31 81l28-11-41 39z"/><path fill="#5f3a2a" d="M223 174l-24-50 50 47z"/><path fill="#24150e" d="M287 157l32-20 55 39z"/><path fill="#000007" d="M26 79L6 76l-22 20z"/><path fill="#403a2f" d="M351 87l30 33-104-35z"/><path fill="#000007" d="M177 81l-14 15 3-28z"/><path fill="#191c18" d="M216 71l4-51 23 34z"/><path fill="#669cba" d="M252 171l-20-19 9-4z"/><path fill="#0a3946" d="M10 13L71 1 59 23z"/><path fill="#22111e" d="M138-10l50 45-23-37z"/><path fill="#7d7366" d="M365 145l19 31 6-28z"/><path fill="#867d77" d="M259 120l23-30v62z"/></svg>