<svg xmlns="http://www.w3.org/2000/svg" viewBox="0 0 400 200"><path fill="#514946" d="M0 0h400v200H0z"/><g transform="translate(1 1) scale(1.5625)"><ellipse fill="#d2dde7" rx="1" ry="1" transform="rotate(-48 162 -149) scale(30.45652 34.76252)"/><ellipse fill="#c3a88a" rx="1" ry="1" transform="matrix(-84.67148 -25.24166 3.8088 -12.77639 121 127)"/><ellipse fill="#0b0c17" rx="1" ry="1" transform="matrix(-18.06575 36.01842 -27.84032 -13.96386 77 47)"/><ellipse fill="#262420" rx="1" ry="1" transform="matrix(84.1822 72.05399 -49.11936 57.38719 255 22)"/><ellipse fill="#d9f0f6" rx="1" ry="1" transform="matrix(-12.9273 8.67898 -9.9939 -14.88588 153 80)"/><ellipse fill="#130706" rx="1" ry="1" transform="matrix(-39.87523 -3.64876 1.68996 -18.46862 19 120)"/><ellipse fill="#b9c3c5" rx="1" ry="1" transform="matrix(-28.60773 21.47929 -3.70803 -4.93863 0 70)"/><path fill="#b8b9b1" d="M12 113l1-29 40-37z"/><ellipse fill="#3e1e13" cx="224" cy="114" rx="38" ry="38"/><path fill="#839ca8" d="M109 67l4-43 41-34-54 84z"/><path fill="#0b0c06" d="M133 38l-25 54 41-97 22 44z"/><ellipse fill="#141e29" rx="1" ry="1" transform="matrix(-32.03111 20.54348 -16.79077 -26.17993 3 24)"/><ellipse fill="#b8b0a1" cx="63" cy="3" rx="20" ry="9"/><path fill="#a3523d" d="M140 113l-43-7 40-55z"/><path fill="#7a8a98" d="M209 72l-11 20-83 45 70-70z"/><ellipse fill="#879192" rx="1" ry="1" transform="matrix(4.81135 -36.54582 3.47705 .45776 245 95)"/><path fill="#1d0200" d="M74 77h39v16H74z"/><ellipse fill="#130e0d" rx="1" ry="1" transform="matrix(-51.01655 71.78725 -6.1701 -4.38486 64 55)"/><path fill="#a2a8a1" d="M47 97l26-29-16 32z"/><ellipse fill="#001017" rx="1" ry="1" transform="matrix(.77033 -9.15802 90.84966 7.64182 239 6)"/><path fill="#866354" d="M143 40l2 21 70-10z"/><path fill="#000002" d="M246 119l11-71 8 72-22 21z"/><path fill="#cadde4" d="M127 46l6-3 24 37-6 3z"/><path fill="#0a0412" d="M22 63l-38 47 65-59-21 4z"/><ellipse fill="#5e6874" rx="1" ry="1" transform="rotate(9 10 1157) scale(88.14949 3.81986)"/></g></svg>