<svg xmlns="http://www.w3.org/2000/svg" viewBox="0 0 400 200"><style>@keyframes a{from{opacity: 0}to{opacity: 1}}g&gt;*{opacity: 0;animation: a .5s forwards}</style><path fill="#544b47" d="M0 0h400v200H0z"/><path fill="#c3bfc0" d="M217 48l40-10 71 65-176 121z" style="animation-delay:0s"/><path fill="#b29f86" d="M354 201l-134-36-170-42 104 101z" style="animation-delay:.188s"/><path fill="#0a0911" d="M73 21l81-27 12 139-100-22z" style="animation-delay:.376s"/><path fill="#dff9ff" d="M264 130l-1-47-43-11-8 52z" style="animation-delay:.562s"/><path fill="#030000" d="M-13 224l-11-92 100 20 46 72z" style="animation-delay:.746s"/><path fill="#331f13" d="M257 174l29-14L392-24l32 242z" style="animation-delay:.927s"/><path fill="#622819" d="M281 181l-131-34 57-116 4 82z" style="animation-delay:1.104s"/><path fill="#acafa6" d="M86 51l4 1-68 97-12-26z" style="animation-delay:1.277s"/><path fill="#070c07" d="M239-24l-46 78 50-18 70 18z" style="animation-delay:1.445s"/><path fill="#adb9ba" d="M-24 132l3-48 86-41-34 32z" style="animation-delay:1.607s"/><path fill="#88a8ba" d="M234-24L166 79h22l-17-48z" style="animation-delay:1.763s"/><path fill="#7e8788" d="M366 224l17-150 14-4-15 116z" style="animation-delay:1.912s"/><path fill="#0d0d0c" d="M99 53L20 162l16 8L143 32z" style="animation-delay:2.054s"/><path fill="#895523" d="M206 188L40 137l144 28 230 59z" style="animation-delay:2.187s"/><path d="M377 210l28-153 3 143-48 13z" style="animation-delay:2.312s"/><path fill="#c6cfce" d="M80 140l34-49-12 7-18 26z" style="animation-delay:2.427s"/><path fill="#19202a" d="M-24 9v80l92-55-14-58z" style="animation-delay:2.533s"/><path fill="#0d141e" d="M109-2L7 104l-9 24 106-94z" style="animation-delay:2.629s"/><path fill="#bed1dc" d="M203 64V47l11-3 20 50z" style="animation-delay:2.714s"/><path fill="#33332c" d="M294 78l-36-64 166-28v86z" style="animation-delay:2.789s"/><path fill="#330a0a" d="M328 99l-52 52 117-42-110-42z" style="animation-delay:2.853s"/><path fill="#8199ac" d="M296 78l-27-42-7 113 67-50z" style="animation-delay:2.906s"/><path fill="#75523a" d="M237 136l7-7 95 45-42 9z" style="animation-delay:2.947s"/><path fill="#ac573e" d="M227 126l-73 26 32-62 18 19z" style="animation-delay:2.976s"/><path fill="#502017" d="M111 111l98-42 11 21-38 17z" style="animation-delay:2.994s"/></svg>