<svg xmlns="http://www.w3.org/2000/svg" viewBox="0 0 400 200"><style>@keyframes a{from{opacity: 0}to{opacity: 1}}g&gt;*{opacity: 0;animation: a .5s forwards}</style><path fill="#544b47" d="M0 0h400v200H0z"/><path fill="#d1e1ef" d="M260 35l61 70-64 55-60-70z"/><path fill="#c6b297" d="M264 223L86 175l11-40 178 47z"/><path fill="#0a0c13" d="M66 120l8-152 87 5-8 151z"/><path fill="#040000" d="M-52 194l21-71 135 41-22 71z"/><path fill="#2d221a" d="M340 223L302 8l128-23 38 215z"/><path fill="#e3f7fc" d="M253 131l-40-10 11-47 40 9z"/><path fill="#b7b5aa" d="M19 140L8 129l59-61 11 10z"/><path fill="#afbfbf" d="M-38 112l85-66 8 9-85 67z"/><path fill="#e4f3fd" d="M215 80l-15-28 11-5 15 27z"/><path fill="#020600" d="M213 0l48 1v38l-49-1z"/><path fill="#482919" d="M238 172l5-40 79 10-5 40z"/><path fill="#95acb3" d="M169 49l44-67 13 8-43 67z"/><path fill="#983d28" d="M182 71l36 9-20 79-37-10z"/><path fill="#e2edec" d="M107 99l-29 40-3-2 30-40z"/><path fill="#95a7b0" d="M384 125l8 1-24 113-8-1z"/><path fill="#d2e3eb" d="M267 179l72 21-1 4-72-21z"/><path fill="#19202a" d="M-50 22l94-46 30 60-95 46z"/><path d="M398 200l-19-4 22-110 18 4z"/><path fill="#240503" d="M341 84l24 23-61 61-23-23z"/><path fill="#9a7768" d="M226 36l61 15-8 33-61-15z"/><path fill="#42150c" d="M146 131l-12-20 72-44 12 21z"/><path fill="#c17a57" d="M193 92l32 32-16 17-32-32z"/><path fill="#8f5621" d="M98 157l4-14 192 52-4 13z"/><path fill="#69726e" d="M352 63l48 13-7 25-48-13z"/><path fill="#00050a" d="M53 56l12 14-29 23-11-15z"/></svg>