<svg xmlns="http://www.w3.org/2000/svg" viewBox="0 0 800 400"><path fill="#544b47" d="M0 0h800v400H0z"/><path fill="#c6c8ca" d="M280 448L498 55l147 153z"/><path fill="#b5a389" d="M120 248l178 200 457-37z"/><path fill="#000009" d="M120 64l188 228 12-312z"/><path fill="#d2e8f3" d="M405 73l168 197-134-28z"/><path fill="#3c2317" d="M817 208l-512 84 522 131z"/><path fill="#040000" d="M267 448L102 255-48 383z"/><path fill="#1e2017" d="M402 55l390 90 56-184z"/><path fill="#b0b3a9" d="M48 302l-18-69 131-119z"/><path fill="#b7c6c7" d="M-48 170l65 25L120 89z"/><path fill="#000104" d="M77 270l112-168 59 56z"/><path fill="#000200" d="M511 67L389 95l88-143z"/><path fill="#210000" d="M580 317l175-109-91-50z"/><path fill="#90aeba" d="M358 139l81-159-87 75z"/><path fill="#a03b1f" d="M317 298l141-34-94-103z"/><path d="M848 361l-96 78 59-369z"/><path fill="#1d2329" d="M17-48l-65 228L167 39z"/><path fill="#8399a1" d="M720 420l47-43 3-125z"/><path fill="#4a1307" d="M442 173l-159 82 115-138z"/><path fill="#8da2b3" d="M536 298l-41-153 163 47z"/><path fill="#87562a" d="M802 439L280 305l250 143z"/><path fill="#090b1a" d="M70 136L11 236 189 89z"/><path fill="#ad9d95" d="M405 108l175 3-75-41z"/><path fill="#000007" d="M-48 261l84 12-19 97z"/><path fill="#cfdce0" d="M473 277l69-122H436z"/><path fill="#91a5b1" d="M258 333l284 75-190 3z"/><path fill="#9d6537" d="M670 336l-162-34 90 68z"/><path fill="#27170e" d="M245 170l138 78-197 4z"/><path fill="#9b9a8f" d="M220 186L80 323l87-46z"/><path fill="#251310" d="M567 133l116 9 50 100z"/><path fill="#9a7656" d="M636 227l137 53-56 9z"/><path fill="#2e1000" d="M755 286l-138 84 110 32z"/><path fill="#9db1bf" d="M439 342l78 19-106-78z"/><path fill="#4f6472" d="M436-17l200-31L848 52z"/><path fill="#7b4b3c" d="M492 158l-65-38 68-37z"/><path fill="#87473d" d="M255 258l75-147-35 178z"/><path fill="#6e8fac" d="M311 177l66-29-13-43z"/><path fill="#615576" d="M208 170l72-81-16 63z"/><path fill="#b3b5b4" d="M423 327l-159-41 53 44z"/><path fill="#cf764f" d="M417 270l-15-75-54 22z"/><path fill="#12181a" d="M252 127L139 273l-25-53z"/><path fill="#0b0f0f" d="M186 398L52 448l6-171z"/><path fill="#5a7fa0" d="M570 136l-25 122 88-75z"/><path fill="#6a5b50" d="M117 323l-15-50-16 122z"/><path fill="#a6b5b9" d="M236 261l44 12-13-31z"/><path fill="#23180f" d="M377 155l12-103h44z"/><path fill="#b72440" d="M36 320l19 25-19 69z"/><path fill="#1d2b2f" d="M311 386l-84 12 165 41z"/><path fill="#7a756f" d="M742 267l47-119-16 144z"/><path fill="#955d27" d="M377 358l-169-44 90-9z"/><path fill="#110503" d="M389 270l13 47 37 13z"/><path fill="#617782" d="M227 73l-79 66-3-28z"/><path fill="#00080a" d="M798 167l50 128-100 153z"/><path fill="#09212a" d="M223-33L77 167l125-90z"/><path fill="#140707" d="M558 283l-103 56 53-3z"/><path fill="#17100d" d="M270-48l91 187L248 14z"/><path fill="#9d9085" d="M455-48L414 61 336-48z"/><path fill="#cee6ed" d="M448 170l22-12-65-44z"/><path fill="#bea89a" d="M564 111l-34 103 6-131z"/><path fill="#252016" d="M452 248l3 25-63 4z"/><path fill="#caa5a1" d="M670 302l-15-10-13 31z"/><path fill="#326da3" d="M314-14l56 69-25 18z"/><path fill="#443c30" d="M495-8l244 85H467z"/><path fill="#756e73" d="M586 305l-59 28-54-60z"/><path fill="#2e1813" d="M348 170l-31 119-47-59z"/><path fill="#bd5f52" d="M398 292l-78-34 22 47z"/><path fill="#766b55" d="M67 45L220-8l-65 53z"/><path fill="#cbeaf6" d="M442 136l3-38-12 10z"/><path fill="#231310" d="M689 195l-66 138-59-50z"/><path fill="#9fb0b7" d="M611 364l66 38-141-35z"/><path fill="#703f00" d="M548 314l41 53 75 13z"/><path fill="#895156" d="M252 20l-29 35-3-103z"/><path fill="#c6a6ab" d="M23 27l-3 18 13 10z"/><path fill="#471b21" d="M17 189l6 53 60-72z"/><path fill="#b6d4e4" d="M414 189l9 41 119 22z"/><path fill="#181910" d="M177 255l40 15 85-93z"/><path fill="#6b7880" d="M292 348l13 100-150-146z"/><path fill="#000005" d="M-48 155v-41l112-3z"/><path fill="#000006" d="M627 92L517 73l53 25z"/><path fill="#77868b" d="M152 267l-7-31 25-19z"/><path fill="#0c0f0a" d="M442 95l13-122-47 113z"/><path fill="#010000" d="M745 305l-87-44 44 44z"/><path fill="#621d17" d="M720 186l-25 72 91-38z"/><path fill="#001318" d="M258 14l22 53-97 119z"/><path fill="#937067" d="M508 80l34 72-87-7z"/><path fill="#231804" d="M186 323l-94 88 19-116z"/><path fill="#040f13" d="M673 8l-59-56L820 8z"/><path fill="#8cadc6" d="M620 170l-93 113 115-78z"/><path fill="#926334" d="M177 314l-38-40 144 31z"/><path fill="#656466" d="M548 252l38-63-41-6z"/><path fill="#416a82" d="M120 105l41-3-53 25z"/><path fill="#938471" d="M83 255l65-103-168 118z"/><path fill="#2a1821" d="M-14-48l-34 81 231-22z"/><path fill="#1b1d1b" d="M417 223l-12-15-19 25z"/><path fill="#445a6c" d="M67 36l-3-84 63 156z"/><path fill="#7f504c" d="M608 367l-3-40 131-19z"/><path fill="#c0d1dd" d="M280 302l-44-19h31z"/><path fill="#673d18" d="M577 402l-157-41 153 87z"/><path fill="#090008" d="M352 120l-22-31-7 66z"/><path fill="#85a9be" d="M361 52l25 25-41 21z"/><path fill="#969794" d="M448 348l-34-18 116-44z"/></svg>