<svg xmlns="http://www.w3.org/2000/svg" viewBox="0 0 16 8"><path fill="#544949" d="M0 0h16v8H0z"/><path fill="#b29e9b" d="M12 3l-27 21h31z"/><path fill="#2a241d" d="M32 6L3-12l24 36z"/><path fill="#2e2225" d="M10 7L-15-8 4-4z"/><path fill="#211412" d="M14 6L-8 24H4z"/><path fill="#e2d9df" d="M9 6h3l-2-1z"/><path fill="#b1a9b0" d="M6 1L5-15-7-8z"/><path d="M3 8l-18-6 13 12z"/><path fill="#6a5c59" d="M15 4L-1 24h-13z"/><path fill="#8a8088" d="M8 3V-9l3 4z"/><path fill="#180c0e" d="M4 3l3-3 1-5z"/><path fill="#00000d" d="M10 2l1-17 3 8z"/><path fill="#836b63" d="M32 24l-9-13L1 5z"/><path fill="#241a17" d="M5 4l-20 20h9z"/><path fill="#393942" d="M15 5L-3-15 9-9z"/><path fill="#131111" d="M15 1l17-2L0-11z"/><path fill="#b4b1b9" d="M10 3l1 2V4z"/><path fill="#8a7a7a" d="M9 4v9l2-2z"/><path fill="#656a78" d="M2 5V3L0 6z"/><path fill="#6e5a4a" d="M16 6l16 10-9-24z"/><path fill="#a78f83" d="M14 10l5 11L4 7z"/><path fill="#221715" d="M13 7l-1 17H4z"/><path fill="#484951" d="M10 3l8-18 6 4z"/><path fill="#45291e" d="M4 7l1-3 2 2z"/><path fill="#91766c" d="M5 7l27 9-10 8z"/><path fill="#2e1a0e" d="M16 7L7 18l2 6z"/><path fill="#28191a" d="M5 4l4-14 3 3z"/><path fill="#695552" d="M26 17l-3 7L7 4z"/><path fill="#3d383b" d="M15 5l-4-20-9 4z"/><path fill="#766a61" d="M15 4l7 7 10-3z"/><path fill="#524b48" d="M2 7l-3-1h4z"/><path fill="#846d61" d="M6 7l6 17 4-3z"/><path fill="#585660" d="M5 2l-9-17h-8z"/><path fill="#110400" d="M15 3l17 8-7-7z"/><path fill="#222f40" d="M1 3l3-6-17-2z"/><path fill="#413638" d="M12-15L5 2l7-8z"/><path fill="#49464b" d="M15 3L3-15 7-2z"/><path fill="#422f25" d="M-15 24L4 8l28 2z"/><path fill="#474752" d="M2 4l-13-2-4-17z"/><path fill="#3d2f24" d="M13 4l14 7v6z"/><path fill="#61554b" d="M16 5l5 6 6-1z"/><path fill="#31201d" d="M7 6H4l1-2z"/><path fill="#423330" d="M14 7L5 24h-20z"/><path fill="#2a282c" d="M14 1L-7-15l18 7z"/><path fill="#574c4f" d="M9 1L-7-15l13 3z"/><path fill="#88716b" d="M7 7l12 11 13-3z"/><path fill="#464143" d="M1 6l-9 5-7-20z"/><path fill="#291a1a" d="M6 1L5 2l2 3z"/><path fill="#725a52" d="M7 5L6 17l-4 1z"/><path fill="#848083" d="M2 6l-12 2-5 6z"/><path fill="#99837c" d="M8 8L4 7l6 4z"/><path fill="#43393c" d="M8 1L0-3l-2-5z"/><path fill="#7c787b" d="M-15-5l1 10H1z"/><path fill="#1d1e29" d="M-15-13L-4 2l17-8z"/><path fill="#4a4442" d="M14 3l1-2h-2z"/><path fill="#5a5052" d="M11 7l2 9-3 8z"/><path fill="#ad9387" d="M5 8l27 10-32 6z"/><path fill="#4d392e" d="M16 7L32-5 19 20z"/><path fill="#777681" d="M9 1l13-16-8 1z"/><path fill="#615959" d="M3 5l-18 2 5 4z"/><path fill="#524a4a" d="M3 5l2 1-1-1z"/><path fill="#432a20" d="M3 8L-9 18l25-6z"/><path fill="#474850" d="M13 2L9-11l-4 1z"/><path fill="#403736" d="M3 6l-14 3-4 7z"/><path fill="#715e56" d="M5 7L4 6l2 1z"/><path fill="#28232f" d="M9 3l3-11 2 3z"/><path fill="#49454c" d="M10 1l1-7 12-2z"/><path fill="#7f7b84" d="M16-15L4 1l2-12z"/><path fill="#181315" d="M2 8l10 16L9 9z"/><path fill="#4f4644" d="M3 7h-9l-9-6z"/><path fill="#33282a" d="M15-9h-5L5 3z"/><path fill="#81675c" d="M6 7l2 6 8 5z"/><path fill="#9e9aa0" d="M11 6V4l1 1z"/><path fill="#614f48" d="M15 7L6 20l5 4z"/><path fill="#403c44" d="M4 2l-8-17h6z"/><path fill="#37221f" d="M6 6V5h1z"/><path fill="#392c23" d="M15 3L32-9l-4 9z"/><path fill="#454249" d="M8 2l17-17-3 9z"/><path fill="#483a30" d="M15 6l7 7 10-2z"/><path fill="#21171b" d="M6 2l6-14-1 8z"/><path fill="#372c30" d="M7 1L3-12l12-3z"/><path fill="#35343a" d="M13 1L-3-15l9 2z"/><path fill="#736564" d="M6 1L3-8l-11-7z"/><path fill="#242123" d="M13 1l4-12 13-4z"/><path fill="#322016" d="M15 8l17 5-23 3z"/><path fill="#3d343d" d="M10 1l13-16-11 2z"/><path fill="#454039" d="M14-5l18 6-6 17z"/><path fill="#363439" d="M10 2l5-6 4 1z"/><path fill="#555053" d="M2 5l-17 11 3-7z"/><path fill="#271f16" d="M32 8l-44-23 44 2z"/><path fill="#4e4241" d="M12 8l-2 12 20 4z"/><path fill="#624741" d="M8 6V5l1 2z"/><path fill="#3c3c42" d="M12 1l9-14-6 1z"/><path fill="#434048" d="M6 4L-7-5l-2 4z"/><path fill="#2c2b36" d="M2 2l-12 11 2-7z"/><path fill="#2e2828" d="M13-15l1 16L9-9z"/><path fill="#4d4849" d="M4 6l-10 4-7-2z"/><path fill="#52505a" d="M2 3l-9 7-6-3z"/><path fill="#5a4d4d" d="M12 7L3 17l5 3z"/><path fill="#282325" d="M21 15L-15 2 6 24z"/><path fill="#201c20" d="M14 1v-12l10 1z"/></svg>