<svg xmlns="http://www.w3.org/2000/svg" viewBox="0 0 2000 1000"><path fill="#544b47" d="M0 0h2000v1000H0z"/><path fill="#c4c7c9" d="M1621 520l-383-383-523 984z"/><path fill="#b6a389" d="M731 1121L324 621l1407 375z"/><path fill="#05040d" d="M793-121L277 184l532 562z"/><path fill="#402518" d="M2066 574L660 699l1461 383z"/><path fill="#ddf8ff" d="M1082 582l-16-336 352 430z"/><path fill="#030000" d="M-121 957l758 164-391-500z"/><path fill="#2a2217" d="M1832 668L1027-19l1016 140z"/><path fill="#b4b5ac" d="M418 285L106 746 82 566z"/><path fill="#bacacb" d="M43 481l-164-55 422-203z"/><path fill="#03070a" d="M777-121L566 434 168 691z"/><path d="M1902 1004l102-672 117 688z"/><path fill="#93afba" d="M871 152l16 172 281-445z"/><path d="M1012 223l164-344 94 305z"/><path fill="#a74327" d="M1168 660l-414 86 172-281z"/><path fill="#beb6b4" d="M1184 691l250-429-164-78z"/><path fill="#1e2329" d="M35-121l-156 586L410 82z"/><path fill="#230100" d="M1449 793l407-250-188-148z"/><path fill="#8aa5b1" d="M1848 895l39 226 39-422z"/><path fill="#0e060e" d="M129 379l250-102-406 391z"/><path fill="#b0bac0" d="M1059 348l140-157-203 71z"/><path fill="#814e1e" d="M1324 1121L879 809l773 203z"/><path fill="#511609" d="M1106 441L996 301 652 637z"/><path fill="#7f665b" d="M1137 379l-31-188 656 125z"/><path fill="#7196b5" d="M1277 770l352-289-219-125z"/><path fill="#000009" d="M27 934l79-250-125-16z"/><path fill="#98978c" d="M535 488L277 731l110 15z"/><path fill="#301c12" d="M699 395l258 234-484-8z"/><path fill="#769bba" d="M926 387l-164 70 164-187z"/><path fill="#6e7671" d="M1988 371l-23 164-344-250z"/><path fill="#9b6438" d="M1676 840l-406-86 218 172z"/><path fill="#8f541a" d="M629 816l453 125-195-125z"/><path fill="#2b0f00" d="M1582 918l234 86 79-313z"/><path fill="#8d7963" d="M1629 606l297 164V660z"/><path fill="#90a3ad" d="M1504 1051l-555 70-265-273z"/><path fill="#bad5e3" d="M1004 488l289-93-86 297z"/><path fill="#a7cde2" d="M1137 793l-110-78 86 140z"/><path fill="#afa5a3" d="M699 606l-125 39 110 39z"/><path fill="#1c0a03" d="M988 121l47 266-86-8z"/><path fill="#bdc2c4" d="M824 816L645 715l289 70z"/><path fill="#000106" d="M2121-121L1590-12l531 55z"/><path fill="#653334" d="M801 348l-180-78 133 461z"/><path fill="#6b5d4d" d="M160 113l453-54 102-180z"/><path fill="#0e1d20" d="M527 465l-211 86 24 140z"/><path fill="#a1213a" d="M82 1004l63-102-47-148z"/><path fill="#ccd9de" d="M1145 496l148-55-266-140z"/><path fill="#080008" d="M801 168l47 188 39-55z"/><path fill="#405e6e" d="M621 160L277 293l71 70z"/><path fill="#c9cbca" d="M1410 277l-78-70 63 164z"/><path fill="#2d393a" d="M449 957l508 164-148-148z"/><path fill="#180400" d="M1004 715l-70 62 156 39z"/><path fill="#b8594c" d="M988 754L887 629l-47 141z"/><path fill="#1e2017" d="M965 191l133 55 281-351z"/><path fill="#adbfce" d="M1121 863l164-8 110 79z"/><path fill="#d5764d" d="M1051 676l-55-180-117 47z"/><path fill="#070e0e" d="M145 731l359 281-367 47z"/><path fill="#6c5e4e" d="M215 981l31-258 195-203z"/><path fill="#06171e" d="M309 270l211-63 39-273z"/><path fill="#4d5780" d="M613 301l110-110-118 243z"/><path fill="#171c15" d="M762 301L582 684l-133-32z"/><path fill="#8a5e5b" d="M1637 738l148 47-281 125z"/><path fill="#969ea1" d="M1238 426l110 305 195-149z"/><path fill="#2a271d" d="M2074 371l-680-148 649-125z"/><path fill="#25221b" d="M1106 629l78 70-149-23z"/><path fill="#2766a0" d="M902 113L785-27l78 211z"/><path fill="#000a0b" d="M2082 988l-203 39 133-601z"/><path fill="#926b44" d="M387 668l47 156 523 8z"/><path fill="#6a7982" d="M746 1121L410 762l328 125z"/><path fill="#afbbc3" d="M520 457l-55 109 101-109z"/><path fill="#938774" d="M379 363L12 629l164 55z"/><path fill="#4f2700" d="M1238 856l266-24 55 94z"/><path fill="#21120f" d="M1379 723l312-196-117 289z"/><path fill="#a9b9c2" d="M1598 988l-149-86h-172z"/><path fill="#a18c98" d="M1301 824l101-86-31 94z"/><path fill="#565c66" d="M1457 488l-78-62-8 211z"/><path fill="#caeaf7" d="M1121 238l-94 8 55 31z"/><path fill="#9b8e85" d="M1145-121L926-4l93 141z"/><path fill="#986f6f" d="M66 66l55 180-78-125z"/><path fill="#080e06" d="M684 332l101-23-47-360z"/><path fill="#251620" d="M66 74l375-47L90-121z"/><path fill="#6c7477" d="M1902 918l-31-344 78 78z"/><path fill="#a5b4bd" d="M543 731l-125-71 258 63z"/><path fill="#4c4438" d="M1801 113l93 203-742-218z"/><path fill="#2f1f1e" d="M1606 316l31 172-219-164z"/><path fill="#0d0b00" d="M1777 762l-156-102 258 78z"/><path fill="#000711" d="M1293 184l203 86 8-63z"/><path fill="#1f1504" d="M277 738l-62 344 242-281z"/><path fill="#6c2c20" d="M1926 543l-141-78-39 289z"/><path fill="#5e311c" d="M1168 371l-23-140-39 86z"/><path fill="#060601" d="M988 566l71 8-47-39z"/><path fill="#000009" d="M-90 379l274-109-305 23z"/><path fill="#577186" d="M238 113L207-4l-47 125z"/><path fill="#989a95" d="M176 324L82 465l-203-78z"/><path fill="#83402a" d="M996 512l102-102-63-70z"/><path fill="#94a1a8" d="M2090 1082l-625-164 351 203z"/><path fill="#234351" d="M1301 645l-117 23 156 63z"/><path fill="#001724" d="M363 316l-101-23-141 133z"/><path fill="#030504" d="M215 629l258-242 7 109z"/><path fill="#9f9e97" d="M1215 801l117-102-226 110z"/><path fill="#0f090b" d="M1207 809l94 70-8-117z"/><path fill="#9f5c6d" d="M559 145l31-55-39-102z"/></svg>