<svg xmlns="http://www.w3.org/2000/svg" viewBox="0 0 400 200"><style>@keyframes fadeIn{from{opacity: 0}to{opacity: 1}}g.animated&gt;*{opacity: 0;animation: fadeIn .5s forwards}</style><path fill="#544b47" d="M0 0h400v200H0z"/><g class="animated"><path fill="#dce4ec" d="M209 49h86v82h-86z" style="animation-delay:0s"/><path fill="#b29e8b" d="M106 143h136v58H106z" style="animation-delay:.19s"/><path fill="#0d0e14" d="M68 1h91v122H68z" style="animation-delay:.38s"/><path d="M1 151h84v50H1z" style="animation-delay:.56s"/><path fill="#302219" d="M315 1h86v192h-86z" style="animation-delay:.75s"/><path fill="#acc2d2" d="M218 84h100v39H218z" style="animation-delay:.93s"/><path fill="#403a32" d="M223 1h133v72H223z" style="animation-delay:1.1s"/><path fill="#afaaa9" d="M231 40h50v100h-50z" style="animation-delay:1.28s"/><path fill="#a1866a" d="M160 174h167v27H160z" style="animation-delay:1.45s"/><path fill="#8d422f" d="M176 71h39v88h-39z" style="animation-delay:1.61s"/><path fill="#bac7c8" d="M1 70h23v23H1z" style="animation-delay:1.76s"/><path fill="#aba49a" d="M18 98h25v37H18z" style="animation-delay:1.91s"/><path fill="#7c9cb6" d="M174 20h16v62h-16z" style="animation-delay:2.05s"/><path fill="#000300" d="M213 1h33v39h-33z" style="animation-delay:2.19s"/><path fill="#938772" d="M74 107h28v50H74z" style="animation-delay:2.31s"/><path d="M388 110h13v91h-13z" style="animation-delay:2.43s"/><path fill="#472215" d="M298 115h67v73h-67z" style="animation-delay:2.53s"/><path fill="#5f7588" d="M271 76h30v55h-30z" style="animation-delay:2.63s"/><path fill="#787874" d="M374 71h13v114h-13z" style="animation-delay:2.71s"/><path fill="#d3e8ee" d="M221 76h31v50h-31z" style="animation-delay:2.79s"/><path fill="#b1b5b1" d="M191 1h24v20h-24z" style="animation-delay:2.85s"/><path fill="#59180e" d="M141 91h36v58h-36z" style="animation-delay:2.91s"/><path fill="#20232c" d="M1 1h65v45H1z" style="animation-delay:2.95s"/><path fill="#000906" d="M52 188h71v13H52z" style="animation-delay:2.98s"/><path fill="#b5b1a1" d="M40 88h19v21H40z" style="animation-delay:2.99s"/></g></svg>