<svg xmlns="http://www.w3.org/2000/svg" viewBox="0 0 16 8"><path fill="#584c4b" d="M0 0h16v8H0z"/><path fill="#af9f98" d="M19 24L11 1 7 7z"/><path fill="#2e1a16" d="M13 6l11-21 8 27z"/><path fill="#2c2126" d="M11 0L7-13 2 8z"/><path fill="#988d85" d="M2 4l15 13 8-2z"/><path fill="#cec7c6" d="M10 3L9 4l3 1z"/><path fill="#190b09" d="M3 5l5 9-23-2z"/><path fill="#352c2f" d="M12 6L-5-10 1 1z"/><path fill="#827a7e" d="M10 3L8-5 4-3z"/><path fill="#715b55" d="M7 3l15 11-1 10z"/><path fill="#2a262a" d="M-15-6L9-8l8 10z"/><path fill="#211318" d="M8 5L3-8l-12-7z"/><path fill="#5d595a" d="M4 6L3 1-8 3z"/><path fill="#67595b" d="M32 17L14 2l18 7z"/><path fill="#ad9990" d="M9 7L-3 24h20z"/><path fill="#2a1b21" d="M4 4l6-8-1-11z"/><path fill="#1c0c0c" d="M9 15L0 6l10 5z"/><path fill="#6b5954" d="M15 5l17 6-6 4z"/><path fill="#736c6c" d="M-8 4l-7-17L3 5z"/><path fill="#9f9b9c" d="M13 4l-2-2H9z"/><path fill="#988a8f" d="M8 1l4-6-2-2z"/><path fill="#463f36" d="M6 8l10 7-2 9z"/><path fill="#372828" d="M2 6l1 18L-8-2z"/><path fill="#93837b" d="M4 6l28 16-11-12z"/><path fill="#604b43" d="M11 6l8 18-6-1z"/><path fill="#312f31" d="M-10 4l8-13 15 7z"/><path fill="#291a14" d="M14 4l18 20-11-6z"/><path fill="#786e6e" d="M9 3L8 4l1 1z"/><path fill="#513a32" d="M16 5L3 20l5 4z"/><path fill="#32251f" d="M11 6l1-1h1z"/><path fill="#4b3e42" d="M13 3l12-18 7 2z"/><path fill="#826e61" d="M15 8l12 15-19-7z"/><path fill="#c0b5b2" d="M10 3L9 5l2-1z"/><path fill="#867872" d="M13 4l-28 20 15-4z"/><path fill="#40393c" d="M5 3L1-6l-9-4z"/><path fill="#b0a69d" d="M8 8l8 16 6-14z"/><path fill="#806861" d="M13 8l-3-1-4 10z"/><path fill="#513d35" d="M14 6l2 9-3 5z"/><path fill="#2f201f" d="M15 4l17 13V6z"/><path fill="#120409" d="M6 1l8-16H7z"/><path fill="#63595d" d="M7 2h1L7 3z"/><path fill="#56443f" d="M13 5H9l4 2z"/><path fill="#7c625a" d="M11 7l2 9-3 7z"/><path fill="#6b6869" d="M2 2l-17 11h9z"/><path fill="#303638" d="M20-15h-5L12 2z"/><path fill="#262223" d="M10 1L9-6l8-9z"/><path fill="#301d22" d="M15 1l7 2-4 1z"/><path fill="#433736" d="M3 5l-15 9-1-5z"/><path fill="#695859" d="M16 4l8-14 8 4z"/><path fill="#4c3c39" d="M15 6L28-4l2 10z"/><path fill="#645a59" d="M3 3l-18 12V8z"/><path fill="#928681" d="M4 6l6 4h6z"/><path fill="#74615c" d="M10 6l9 10-9-3z"/><path fill="#7d7066" d="M7 8L-8 18l40 6z"/><path fill="#584d4c" d="M9 5v1L8 5z"/><path fill="#120804" d="M3 8l7 15-6 1z"/><path fill="#868180" d="M12 2v1H9z"/><path fill="#2e2d2e" d="M13 2l-1-17-5 4z"/><path fill="#402d26" d="M15 7l-2 11-11 1z"/><path fill="#a28e86" d="M9 7l5 11-14 5z"/><path fill="#4f4746" d="M3 4l-8 5-10-1z"/><path fill="#55464b" d="M16 1l4-11 11 7z"/><path fill="#957b76" d="M12 8l-1 8-13-1z"/><path fill="#4f4748" d="M14 1L5-9l8-1z"/><path fill="#493739" d="M32 8v9L15 2z"/><path fill="#454a49" d="M12 1L1-11l4-4z"/><path fill="#d2cbcb" d="M11 4h-1l1-1z"/><path fill="#392f30" d="M12 2l11-12v5z"/><path fill="#81736e" d="M11 9V3l2 7z"/><path fill="#6e534a" d="M12 7L6 19l4 1z"/><path fill="#725952" d="M11 7v11l7 4z"/><path fill="#2c1a12" d="M8 24l18-1-5-24z"/><path fill="#a3968f" d="M10 4h2L9 5z"/><path fill="#756e71" d="M-6-15h7l9 17z"/><path fill="#6f6969" d="M1 3l-16 2 6-5z"/><path fill="#53454a" d="M9 2L-8-15 3-9z"/><path fill="#291719" d="M-14-3L4 7l-18-4z"/><path fill="#63524e" d="M15 5l4 2 2-1z"/><path fill="#3b3d3d" d="M24-15L-6-8-9 8z"/><path fill="#8d7870" d="M-10 11l20-3 12 16z"/><path fill="#34272b" d="M4 1l-8-9 19-2z"/><path fill="#787e85" d="M10 1l1 1V1z"/><path fill="#6a5851" d="M11 6l1 15 6 3z"/><path fill="#806760" d="M11 8l-2 7-24-1z"/><path fill="#453e3f" d="M14 1l2-16 5 3z"/><path fill="#382822" d="M13 6l11 5 2-3z"/><path fill="#36272c" d="M7 2L3-7 2-3z"/><path fill="#a09d9e" d="M11 2l-1 2 1-1z"/><path fill="#a29890" d="M8 8l6 15-8 1z"/><path fill="#473e3d" d="M1 6l-6-6-1 6z"/><path fill="#3e2d28" d="M16 5l6-11 10 5z"/><path fill="#5a4f4c" d="M5 5V4H4z"/><path fill="#241a1e" d="M6 2L2-6l1 5z"/><path fill="#302a2c" d="M5 1L0-10l3-5z"/><path fill="#312121" d="M15 4l15 1-7 2z"/><path fill="#544e41" d="M5 8l7 16 2-8z"/><path fill="#95817a" d="M9 7l5 7-3 1z"/><path fill="#221915" d="M4 8l11 15-19-4z"/><path fill="#513e37" d="M15 16L14 6l4 9z"/><path fill="#857970" d="M8 7l-7 9v8z"/><path fill="#342f30" d="M14 2L6-15l-5 4z"/></svg>