<svg xmlns="http://www.w3.org/2000/svg" viewBox="0 0 50 25"><path fill="#534949" d="M0 0h50v25H0z"/><path fill="#d1c2c1" d="M33 8l7 8L6 37z"/><path fill="#261921" d="M-15-6L19 6l9 18z"/><path fill="#2a221e" d="M48 41l17-28-33-28z"/><path fill="#dbe5f1" d="M27 9l8 7-4 3z"/><path fill="#b99681" d="M22 41L11 19l54 15z"/><path fill="#111319" d="M21-4L4 24l15-14z"/><path fill="#865443" d="M23 12l-5 21 13-11z"/><path fill="#c3cad2" d="M7 10l-18 14-4-6z"/><path fill="#0c0000" d="M11 23l-26-6 42 24z"/><path fill="#90919c" d="M25-15l-2 27 7-15z"/><path fill="#192323" d="M39-13L59 0 25 8z"/><path fill="#9e928e" d="M15-15h20L9 6z"/><path fill="#a49295" d="M0 20h5l4-8z"/><path fill="#4b352e" d="M27 20l29-2 1 22z"/><path fill="#8c929e" d="M30 8l7 11 3-4z"/><path fill="#4d4b46" d="M55 5L30 1l28 21z"/><path d="M66 22l-18 7 2-13z"/><path fill="#88757e" d="M48 19l3 22h-6z"/><path fill="#8e8476" d="M6 21l5-1 3-5z"/><path fill="#391915" d="M48 22l-11-1 9-7z"/><path fill="#2f271e" d="M64 15l2-11-33 3z"/><path fill="#9d8b89" d="M36 8h-7l8 7z"/><path fill="#2f323a" d="M13 5l-18 9-10-29z"/><path fill="#bda89d" d="M20 22l30 19 8-9z"/><path fill="#27222d" d="M21 10l-8 11 8-24z"/><path fill="#292228" d="M7 13l-15 6-7 17z"/><path fill="#755548" d="M35 28l8-10 6 1z"/><path fill="#573d41" d="M13 9l14 5-6 2z"/><path fill="#7b818d" d="M37 13l-4 6 2 5z"/><path fill="#4b4e52" d="M8 4H-7l18 7z"/><path fill="#705856" d="M29 10l6-4-5 6z"/><path fill="#8c7e73" d="M26 32l-9-13-5 2z"/><path fill="#161821" d="M20 3l-7 2-3 13z"/><path fill="#676469" d="M58 14l1 6-17-9z"/><path fill="#28180c" d="M46 22l3 7-9-11z"/><path fill="#a7afb9" d="M34 20v-3h4z"/><path fill="#9c533c" d="M26 16h-3l1 4z"/><path fill="#3b1b11" d="M19 13l-4 3 10 3z"/><path fill="#c0c6cf" d="M34 19v-7l-6 4z"/><path fill="#1b1e19" d="M27 9l7-24h10z"/><path fill="#575457" d="M41 5L10-4 9-15z"/><path fill="#19262d" d="M15 9l-5-2-6 6z"/><path fill="#9c8c81" d="M32 22L4 41l-18-7z"/><path fill="#13171f" d="M48 3L65-7 17-3z"/><path fill="#b0a296" d="M11 1l28-5L4-15z"/><path fill="#7b502a" d="M35 21l7 20 7-9z"/><path fill="#36221f" d="M3 24l8-11-7 20z"/><path fill="#816869" d="M20 12l-2 3 4-2z"/><path fill="#777e85" d="M34 19h4l-2-7z"/><path fill="#212727" d="M7 7l-20 13 9-14z"/><path fill="#8c898e" d="M-5 15l-1 8L7 9z"/><path fill="#000b0f" d="M50 15l10 8-13 18z"/><path fill="#4c4348" d="M37-3l7 16-7-5z"/><path fill="#190a18" d="M40 18l-3 2 4 3z"/><path fill="#e2d3d2" d="M28 18v-6l2 4z"/><path fill="#332728" d="M25 5L14-3l-3-12z"/><path fill="#2a1b0d" d="M47 22L31 34l21 7z"/><path fill="#ad989a" d="M4 19l3-4-3 2z"/><path fill="#825f49" d="M51 28l-32-4 39 17z"/><path fill="#bcaea5" d="M33 8l2 2h-1z"/><path fill="#576366" d="M11 9l-2 2 3 1z"/><path fill="#831c48" d="M3 22L2 41l9-5z"/><path fill="#241c18" d="M19 17v-3l-8 5z"/><path fill="#442a2f" d="M25 14l2 3-1-9z"/><path fill="#3a342d" d="M38 4l-3 4 18 2z"/><path fill="#411109" d="M21 15l-3 6 2-1z"/><path fill="#211f24" d="M20 6V-4L7 18z"/><path fill="#c5ccd0" d="M32 16l-2-3-4 4z"/><path fill="#4b2b33" d="M33 20l4 20 8 1z"/><path fill="#544751" d="M41-15H15l7 21z"/><path fill="#8b5f67" d="M42 22l-1 10-11 6z"/><path fill="#4a3238" d="M20 14l-1 7-2-13z"/><path fill="#998b8b" d="M32 8l3 9v-7z"/><path fill="#001715" d="M2 20l3 10-20-9z"/><path fill="#a27168" d="M27 19l-1-4h-2z"/><path fill="#231c24" d="M6 9L3-7 0-2z"/><path fill="#3a352b" d="M6 18L5 41l7-9z"/><path fill="#000006" d="M5 24l37 8-31 5z"/><path fill="#6e646b" d="M47 20l2-2v-5z"/><path fill="#31120c" d="M47 19l-5-5v3z"/><path fill="#646069" d="M47 4l9 6 4-2z"/><path fill="#3e333d" d="M16 4l-5 5 6-2z"/><path fill="#a5a29f" d="M28 23l8 14 20 4z"/><path fill="#0d0b08" d="M30 6l-5 2 3-3z"/><path fill="#2d1c24" d="M-15 24L5 14l-20 20z"/><path fill="#3e3831" d="M41 9l4-4-12 2z"/><path fill="#7b6956" d="M44 19l1 2h3z"/><path fill="#0d0d19" d="M12 6h5L8 9z"/><path fill="#a3959d" d="M9 13l-2 2v-1z"/><path fill="#1e2826" d="M3 10l-5-4-13 13z"/><path fill="#6b5a54" d="M7 23l4 12-4 6z"/><path fill="#827768" d="M13 22l-5-3 9 1z"/><path fill="#917d7e" d="M28 12h6l-8-3z"/><path fill="#596160" d="M-6 8l-5 8L3 8z"/><path fill="#251419" d="M24 4L6-15h8z"/><path fill="#452f20" d="M29 33l-12-8 16 3z"/><path fill="#080707" d="M5 14v-3h2z"/><path fill="#91878c" d="M39-10L26 4l9-19z"/><path fill="#84888c" d="M33 41l13-5 2-12z"/><path fill="#1e2225" d="M66 5L56-8 29 0z"/></svg>