<svg xmlns="http://www.w3.org/2000/svg" viewBox="0 0 400 200"><style>@keyframes a{from{opacity: 0}to{opacity: 1}}g&gt;*{opacity: 0;animation: a .5s forwards}</style><path fill="#544b47" d="M0 0h400v200H0z"/><g fill="none"><path stroke="#fdffff" d="M312 113q-81 45-96-63" style="animation-delay:0s"/><path stroke="#e7f7fa" d="M340 204Q75 122 62 144" style="animation-delay:.188s"/><path stroke="azure" d="M214 45q29 113 106 58" style="animation-delay:.376s"/><path stroke="#e9ffff" d="M319 103q-69 61-115-55" style="animation-delay:.562s"/><path stroke="#f8ffff" d="M312 101q-56-58-111 35" style="animation-delay:.746s"/><path stroke="#dde3dd" d="M69 141q59-5 327 83" style="animation-delay:.927s"/><path stroke="#f9ffff" d="M221 49q-12 88 67 81" style="animation-delay:1.104s"/><path stroke="#efffff" d="M216 52q31 95 100 51" style="animation-delay:1.277s"/><path stroke="#ced0cf" d="M109 178q138 46 151-138" style="animation-delay:1.445s"/><path stroke="#d2dde2" d="M415 224q-283-88-350-88" style="animation-delay:1.607s"/><path stroke="#ccf1ff" d="M275 141Q185 36 163 3" style="animation-delay:1.763s"/><path stroke="#e3ffff" d="M315 99q-53 45-109-57" style="animation-delay:1.912s"/><path stroke="#e7edea" d="M75 129q69 23 208 61" style="animation-delay:2.054s"/><path stroke="#eaffff" d="M215 95q18 57 100 6" style="animation-delay:2.187s"/><path stroke="#dfffff" d="M203 57q63 103 116 36" style="animation-delay:2.312s"/><path stroke="#f8ffff" d="M277 50q11 88-73 57" style="animation-delay:2.427s"/><path stroke="#d4e2e3" d="M422 221q-21-10-294-72" style="animation-delay:2.533s"/><path stroke="#e5ffff" d="M317 99q-41-55-104 21" style="animation-delay:2.629s"/><path stroke="#e7f8ff" d="M251 151q-61-58 23-108" style="animation-delay:2.714s"/><path stroke="#e9fdff" d="M212 127q54-76 99-21" style="animation-delay:2.789s"/><path stroke="#dafaff" d="M304 122q-82 30-89-76" style="animation-delay:2.853s"/><path stroke="#c8c9c9" d="M109 182q138 42 158-141" style="animation-delay:2.906s"/><path stroke="#f7ffff" d="M201 100q60 41 80-46" style="animation-delay:2.947s"/><path stroke="#d7ffff" d="M321 106q-87 44-107-1" style="animation-delay:2.976s"/><path stroke="#cad1d2" d="M120 186q139 38 117-131" style="animation-delay:2.994s"/></g></svg>