<svg xmlns="http://www.w3.org/2000/svg" viewBox="0 0 400 200"><path fill="#544b47" d="M0 0h400v200H0z"/><path fill="#c4c3c5" d="M327 99l-95-70-86 195z"/><path fill="#b6a38a" d="M357 201L62 124l86 100z"/><path fill="#03020c" d="M156 145L54 32l105-44z"/><path fill="#0c0201" d="M-24 195l128 29-39-120z"/><path fill="#341e12" d="M407-16L265 177l150 25z"/><path fill="#d0e7f2" d="M288 123l-82-80 20 86z"/><path fill="#652514" d="M273 176l-141-35 44-62z"/><path fill="#100f05" d="M198 46l23-47 142 16z"/><path fill="#b3b7ae" d="M18 113l6 36 63-98z"/><path fill="#bccbcb" d="M13 93l46-48-83 40z"/><path fill="#81a0ae" d="M171 84l52-97-47 37z"/><path fill="#b2a49e" d="M251 37l20 108 13-96z"/><path fill="#070a0e" d="M34 138l78-50 42-112z"/><path fill="#7c807d" d="M366 134l10 70 25-142z"/><path d="M376 224l26-170 22 127z"/><path fill="#2e2b26" d="M266 34l132-58-50 150z"/><path fill="#1f252c" d="M87 21L-1 73l-1-97z"/><path fill="#490a00" d="M179 102l16-56 25 44z"/><path fill="#656861" d="M276 48l115 23 7 41z"/><path fill="#0a030c" d="M74 59l-79 70 45-69z"/><path fill="#acaea6" d="M109 96l-24 39-36 17z"/><path fill="#86562a" d="M332 201l-189-47 125 70z"/><path fill="#7f5447" d="M237 76l-33-19 58-17z"/><path fill="#b75e45" d="M184 84l-14 65 48-22z"/><path fill="#7f5637" d="M295 185l40-16-100-42z"/><path fill="#171517" d="M-12 123l183 101L1 184z"/><path fill="#c7dfe9" d="M240 137l-33-41 53-22z"/><path fill="#2b0b00" d="M360 201l-44-17 63-44z"/><path fill="#6e92ae" d="M262 149l17-83 45 33z"/><path fill="#251a12" d="M127 79l60 44-97 4z"/><path fill="#92a3ae" d="M195 224h145l-211-59z"/><path fill="#200a09" d="M363 76l-82 67 31 20z"/><path fill="#b2bbc2" d="M220 87l1-39-22 1z"/><path fill="#3b4044" d="M224 123l61 22-101 12z"/><path fill="#a4d8e9" d="M204 141l28 22h-14z"/><path fill="#a19593" d="M141 157l-25-30 22-6z"/><path fill="#a1263f" d="M29 174l-13 39 2-61z"/><path fill="#8e6a44" d="M81 159l-32-33 116 33z"/><path fill="#7188a2" d="M187 56v20l-43 18z"/><path fill="#1b1913" d="M196 51l-3-27 67 2z"/><path fill="#5a4f71" d="M116 68l18 19 6-49z"/><path fill="#d5ecf3" d="M265 38h-19l39 16z"/><path fill="#abbfcc" d="M259 185l34-1-44-11z"/><path fill="#aa845f" d="M332 123l27 6 7 19z"/><path fill="#b4b7b7" d="M210 163l-81-22 34 24z"/><path fill="#84949d" d="M381 140l-19 80 22-41z"/><path fill="#8d5f59" d="M327 145l32 12-58 27z"/><path fill="#5d7282" d="M382 6l-37 7 79 10z"/><path fill="#060000" d="M170 45l9 17-17 6z"/><path fill="#6c2e28" d="M134 59l26 11-12 76z"/><path fill="#000c0f" d="M335 59l-31-22h-49z"/><path fill="#051216" d="M73 101l6 28 39-64z"/><path fill="#615b4e" d="M45 149v38l45-86z"/><path fill="#946233" d="M149 151H99l102 36z"/><path fill="#3c1b17" d="M327 123l93-2-103-56z"/><path fill="#a18f83" d="M181-7l40 3-14 31z"/><path fill="#2a6aa4" d="M181 24l-7 16-17-49z"/><path fill="#283438" d="M159 193l51 31-114-26z"/><path fill="#726c7a" d="M88 51l13-13 25-3z"/><path fill="#534a40" d="M340 52l-92-28 40-23z"/><path fill="#110b08" d="M221 166l-20-11-11-20z"/><path fill="#918370" d="M6 126l65-50-34 64z"/><path fill="#896d67" d="M206 57l48 22 45-28z"/><path fill="#7e7760" d="M77 21l-42-1L88 6z"/><path fill="#03070b" d="M231 165l28-11v19z"/><path fill="#865156" d="M126 9l-17 22v-55z"/><path fill="#946c70" d="M12 7l14 44-16-22z"/><path fill="#acb7bf" d="M226 179l36-2-50-14z"/><path fill="#a3a5aa" d="M115 90l-22 26 11-26z"/><path fill="#c5d6dd" d="M254 121l-41-72 21 82z"/><path fill="#94b3cb" d="M324 98l-45 34 33-44z"/><path fill="#565a63" d="M274 93l2 33 15-33z"/><path fill="#843d25" d="M212 73l11 17-33-2z"/><path fill="#030906" d="M226-24l-17 69 43-52z"/><path fill="#ccccc8" d="M282 56l-6 18-3-26z"/><path fill="#b65b4f" d="M204 154l-44-9 3-16z"/><path fill="#141101" d="M52 124l2 83 23-12z"/><path fill="#071921" d="M98 7L54 57l64-25z"/><path fill="#de966c" d="M221 123l-28-3 11 15z"/><path fill="#010609" d="M35 213l13-67-19-9z"/><path fill="#7a522d" d="M362 212l-94 1-58-44z"/><path fill="#000d10" d="M424 77l-65-15 65-3z"/><path fill="#757976" d="M20 85l43-40-11-13z"/><path fill="#19191b" d="M171 85l-26 33 31 9z"/><path fill="#221520" d="M85 6l-72 9 13-39z"/><path fill="#68757e" d="M81 152l64 24 3 48z"/><path fill="#0d0201" d="M202 43l-12 27 8 11z"/><path fill="#532d1c" d="M240 43l-19 14 5 13z"/><path fill="#000d0f" d="M421 210L404 57l-28 156z"/><path fill="#00010d" d="M-24 79l59-25-58 3z"/><path fill="#d97946" d="M170 115h22l12-19z"/><path fill="#1a1616" d="M141-24l29 56-27 49z"/><path fill="#aac0d2" d="M287 191l25-1-25-6z"/><path fill="#0d140f" d="M112 134l31-43-50 39z"/><path fill="#8db0ce" d="M176 16l8 32 4-13z"/><path fill="#16415a" d="M254 146l-14-12 25-7z"/><path fill="#c3a7ad" d="M281 160l-14 6v-7z"/><path fill="#00131d" d="M412 7L293-5l88-19z"/><path fill="#101009" d="M374 151l-64-14 19-11z"/><path fill="#8d5c00" d="M301 181l-13 3-11-30z"/></svg>