<svg xmlns="http://www.w3.org/2000/svg" viewBox="0 0 200 100"><path fill="#564b4a" d="M0 0h200v100H0z"/><path fill="#c6c4c8" d="M163 53l-36-40-61 103z"/><path fill="#b6a189" d="M32 62l41 49 122-6z"/><path fill="#351c1e" d="M130 86L56-15 33 63z"/><path fill="#dbf5ff" d="M108 26v35l35 6z"/><path fill="#070000" d="M26 63l41 51-82-18z"/><path fill="#341f15" d="M200-15l16 125-78-23z"/><path fill="#1f2018" d="M216 41L103 13l25-28z"/><path fill="#b8b8ae" d="M16 71l27-44L7 61z"/><path fill="#16212b" d="M93-15L64 63-9-5z"/><path fill="#c3cccc" d="M8 46l22-22-45 20z"/><path fill="#c96a50" d="M73 82l22-35 19 15z"/><path fill="#88a6b9" d="M84 44l30-52-25 23z"/><path fill="#7f7b7d" d="M199 31l-9 65-5-39z"/><path fill="#bdc8c6" d="M46 65l8-17-17 19z"/><path d="M206 10l-19 106 29-17z"/><path fill="#cdd4da" d="M102 29l21 33 13-17z"/><path fill="#87511f" d="M73 85l66 16-31-17z"/><path fill="#020603" d="M127 18l-29 6 18-25z"/><path fill="#2b0a0e" d="M174 59l38 2-70-29z"/><path fill="#0f0f14" d="M60 40l23-55-70 89z"/><path fill="#09000f" d="M18 34L4 59l35-31z"/><path fill="#8a7d71" d="M87 106L69 62l-39 9z"/><path fill="#d6d8da" d="M102 27l22-8-12 9z"/><path fill="#694740" d="M85 68l44-2 39 26z"/><path fill="#58150d" d="M92 47l19-3-13-20z"/><path fill="#7a6555" d="M64 4l5-19-56 29z"/><path fill="#6d96b9" d="M162 49l-17-13-15 37z"/><path fill="#7391aa" d="M74 47l20-10-1-10z"/><path fill="#98a3a8" d="M191 76l-12 40h11z"/><path fill="#c3ddeb" d="M114 79l-12-6 9 9z"/><path fill="#161e2d" d="M-15 45l43-24-24-7z"/><path fill="#6f7471" d="M206 38l-11 10-35-19z"/><path fill="#00050e" d="M-15 67h27L3 90z"/><path fill="#200607" d="M159 80l-18-8 32-23z"/><path fill="#7d5147" d="M123 39l-17-9 19-9z"/><path fill="#9e695f" d="M165 74l-17 19 24-10z"/><path fill="#3c3934" d="M193-15l-91 29 114 22z"/><path fill="#bdcad0" d="M116 65l26-32-41 17z"/><path fill="#2f0f02" d="M161 92l31-23-13 30z"/><path fill="#bed1d3" d="M79 80l-13-8 27 7z"/><path fill="#703b16" d="M158 99l-35 6 7-13z"/><path fill="#97a0a7" d="M102 116L64 82l115 34z"/><path fill="#778797" d="M131 0l26 4 3-19z"/><path fill="#1b0d0c" d="M57 55l40 9-15-13z"/><path fill="#605a73" d="M70 20L45 58l23-19z"/><path fill="#a17f65" d="M175 70l13 2-24-15z"/><path fill="#101e21" d="M86 116L24 96l57 2z"/><path fill="#a5968f" d="M109 5l-5 9-21-29z"/><path fill="#284858" d="M131 78l2-15-12 3z"/><path fill="#6e5f50" d="M24 91l19-36-18 17z"/><path fill="#090009" d="M86 25l-5 12 9-6z"/><path fill="#ded7d5" d="M141 32l-12-12 12 6z"/><path fill="#bfc5d3" d="M136 92l-23-6 13-1z"/><path fill="#572900" d="M163 94l-41-9 23-2z"/><path fill="#757b82" d="M32 24l-7-10-8 21z"/><path fill="#001012" d="M70 47l-3 11-21-29z"/><path fill="#5d8bbf" d="M80-3l16 22-9-3z"/><path fill="#5b6b7a" d="M216 0l-2 12-40-5z"/><path fill="#8a2c4a" d="M6 111l9-11-4-25z"/><path fill="#946b46" d="M29 66l75 19-36 3z"/><path fill="#b4d3e2" d="M69 64l-8 1 5 2z"/><path fill="#1c0c09" d="M100 80l-2-13 10 13z"/><path fill="#8194a0" d="M45 26l-7 13-15 4z"/><path fill="#08141d" d="M50 23l-22 5L56-3z"/><path fill="#2e2623" d="M166 32h-24l29 22z"/><path fill="#000008" d="M134 20l22 2-8 4z"/><path fill="#0e0e0b" d="M58-15l19 52 2-41z"/><path fill="#070900" d="M44 116l-22-8 15-35z"/><path fill="#1c1a17" d="M130-7l-19 32-13-7z"/><path d="M21 98V73l-7 24z"/><path fill="#8da0b6" d="M164 49l-23 19 9-28z"/><path fill="#acb5b4" d="M142 95l13-2-27-5z"/><path fill="#38271a" d="M204 39l12-26-65-8z"/><path fill="#62241d" d="M67 31l14 21-10 20z"/><path fill="#907f93" d="M83 40l-5 6 4-20z"/><path fill="#6e7985" d="M48 83l24 26 3-23z"/><path fill="#1c170d" d="M57 68l5-12-17 9z"/><path fill="#746e77" d="M44 26l17-11-6 8z"/><path fill="#a16861" d="M95 45l-2-15-7 19z"/><path fill="#956037" d="M165 84l-16 8-9-14z"/><path fill="#170b10" d="M135 87l-19-3 14-7z"/><path fill="#c5d5dc" d="M111 40V25l-5 9z"/><path fill="#80595d" d="M6 17l10 13L7 3z"/><path fill="#ec8e6f" d="M99 68l-1-9 10 3z"/><path fill="#aa8588" d="M143 76l-12 4 3 4z"/><path fill="#28221c" d="M95 42l11-26-8-4z"/><path fill="#6e6767" d="M187 47l5 38 7-46z"/><path fill="#88786b" d="M12 78l23-35L9 61z"/><path fill="#001119" d="M216 5l-48-5 31-15z"/><path fill="#cabcb0" d="M49 54l4-7 4-1z"/><path fill="#d8e0eb" d="M104 24l9 4-10-1z"/><path fill="#000b0e" d="M202 34l-13 73 27-23z"/><path fill="#461514" d="M157 61l52-5-45-9z"/><path fill="#000006" d="M42 62l5-19 2 7z"/><path fill="#140700" d="M185 76h-12l-10-13z"/><path fill="#a89d9a" d="M137 70V25l-10 31z"/><path fill="#aea9a8" d="M121 80l-5-1 13-5z"/><path fill="#a25c6d" d="M60 8l-4 6V-6z"/><path fill="#5b616e" d="M140 44l-2 19 10-15z"/><path fill="#493e3d" d="M127 75l-17-16-2 7z"/></svg>