<svg xmlns="http://www.w3.org/2000/svg" viewBox="0 0 400 200"><path fill="#544b47" d="M0 0h400v200H0z"/><g transform="translate(1 1) scale(1.5625)"><ellipse fill="#d4e3ef" cx="164" cy="59" rx="31" ry="31"/><ellipse fill="#b69f8c" cx="113" cy="127" rx="42" ry="42"/><ellipse fill="#070915" cx="76" cy="32" rx="34" ry="34"/><ellipse fill="#050000" cx="20" cy="127" rx="40" ry="40"/><ellipse fill="#301910" cx="232" cy="93" rx="39" ry="39"/><ellipse fill="#2c2b24" cx="227" cy="11" rx="54" ry="54"/><ellipse fill="#e1f6fc" cx="153" cy="65" rx="16" ry="16"/><ellipse fill="#000500" cx="151" cy="11" rx="15" ry="15"/><ellipse fill="#a08d76" cx="74" cy="98" rx="18" ry="18"/><ellipse fill="#742919" cx="109" cy="75" rx="23" ry="23"/><ellipse fill="#847d78" cx="11" cy="64" rx="23" ry="23"/><ellipse fill="#7da8ce" cx="193" cy="63" rx="11" ry="11"/><ellipse fill="#986d49" cx="181" cy="127" rx="29" ry="29"/><ellipse fill="#d9e7f1" cx="135" cy="37" rx="7" ry="7"/><ellipse fill="#926759" cx="155" cy="37" rx="14" ry="14"/><ellipse fill="#191e29" cy="2" rx="39" ry="39"/><ellipse fill="#cc8b6e" cx="128" cy="74" rx="12" ry="12"/><ellipse fill="#739bb5" cx="115" cy="23" rx="10" ry="10"/><ellipse fill="#1f2223" cx="66" cy="61" rx="24" ry="24"/><ellipse cx="23" cy="51" rx="7" ry="7"/><ellipse fill="#a7acad" cx="128" cy="5" rx="9" ry="9"/><ellipse fill="#9f9a8e" cx="54" cy="83" rx="9" ry="9"/><ellipse fill="#120503" cx="195" cy="92" rx="12" ry="12"/><ellipse fill="#42525d" cx="161" cy="90" rx="9" ry="9"/><ellipse fill="#6d7875" cx="243" cy="55" rx="11" ry="11"/></g></svg>