<svg xmlns="http://www.w3.org/2000/svg" viewBox="0 0 400 200"><style>@keyframes fadeIn{from{opacity: 0}to{opacity: 1}}g.animated&gt;*{opacity: 0;animation: fadeIn .5s forwards}</style><path fill="#544b47" d="M0 0h400v200H0z"/><g class="animated"><ellipse fill="#d1dee8" rx="1" ry="1" transform="matrix(-35.61323 32.0663 -34.8131 -38.66387 255 90)" style="animation-delay:0s"/><ellipse fill="#bea88e" rx="1" ry="1" transform="matrix(7.02171 -25.66707 128.59891 35.18068 210 188)" style="animation-delay:.19s"/><ellipse fill="#0a0d15" rx="1" ry="1" transform="matrix(-43.25024 -9.50507 17.38352 -79.099 116 55)" style="animation-delay:.38s"/><ellipse fill="#040000" rx="1" ry="1" transform="matrix(-14.76197 33.60162 -63.94505 -28.09254 41 181)" style="animation-delay:.56s"/><ellipse fill="#32170d" rx="1" ry="1" transform="matrix(65.67307 12.64664 -9.75708 50.66781 361 149)" style="animation-delay:.75s"/><ellipse fill="#2b271e" rx="1" ry="1" transform="matrix(-3.81666 46.42296 -61.06292 -5.02029 343 51)" style="animation-delay:.93s"/><ellipse fill="#ddf3fa" rx="1" ry="1" transform="matrix(-20.36852 12.23864 -14.03041 -23.35053 241 104)" style="animation-delay:1.1s"/><ellipse fill="#bcbcb0" rx="1" ry="1" transform="matrix(-27.76622 30.65823 -6.7263 -6.0918 45 102)" style="animation-delay:1.28s"/><ellipse fill="#b1bfbe" rx="1" ry="1" transform="matrix(43.72072 -30.956 4.42264 6.24632 14 78)" style="animation-delay:1.45s"/><ellipse fill="#000600" rx="1" ry="1" transform="rotate(-134 122 -41) scale(17.70115 38.92219)" style="animation-delay:1.61s"/><ellipse fill="#7f9eb8" rx="1" ry="1" transform="matrix(-9.00927 -15.6676 30.1193 -17.31937 290 109)" style="animation-delay:1.76s"/><ellipse fill="#93adb7" rx="1" ry="1" transform="matrix(-7.88691 -5.73018 18.17564 -25.01662 193 27)" style="animation-delay:1.91s"/><ellipse fill="#7a8788" rx="1" ry="1" transform="matrix(-6.29075 -.8953 13.49151 -94.79631 379 165)" style="animation-delay:2.05s"/><ellipse fill="#5d1c0b" rx="1" ry="1" transform="matrix(-35.28927 26.42203 -11.26541 -15.04609 180 103)" style="animation-delay:2.19s"/><ellipse fill="#aeb2aa" rx="1" ry="1" transform="matrix(18.37308 -24.3819 4.07949 3.07411 92 119)" style="animation-delay:2.31s"/><ellipse fill="#cf7451" rx="1" ry="1" transform="matrix(-11.4538 12.921 -15.65357 -13.87608 198 121)" style="animation-delay:2.43s"/><ellipse fill="#1a202a" rx="1" ry="1" transform="rotate(-137 10 6) scale(43.42892 59.47939)" style="animation-delay:2.53s"/><ellipse fill="#000001" rx="1" ry="1" transform="matrix(-8.1346 75.93971 -8.93812 -.95744 397 145)" style="animation-delay:2.63s"/><ellipse fill="#814e3c" rx="1" ry="1" transform="matrix(-21.26508 -1.8014 1.536 -18.13215 244 61)" style="animation-delay:2.71s"/><ellipse fill="#0f0f0f" rx="1" ry="1" transform="matrix(-67.39985 86.69725 -9.93781 -7.72582 99 71)" style="animation-delay:2.79s"/><ellipse fill="#b7c4c9" rx="1" ry="1" transform="rotate(17 -493 1144) scale(58.59685 3.71775)" style="animation-delay:2.85s"/><ellipse fill="#adb9c2" rx="1" ry="1" transform="matrix(-.5741 2.26895 -147.31804 -37.27558 203 164)" style="animation-delay:2.91s"/><ellipse fill="#0d121f" rx="1" ry="1" transform="matrix(-5.37381 -5.48756 66.39987 -65.02356 46 77)" style="animation-delay:2.95s"/><ellipse fill="#7f4b1c" rx="1" ry="1" transform="matrix(-65.89542 -15.57702 1.92151 -8.12857 260 192)" style="animation-delay:2.98s"/><ellipse fill="#889ba8" rx="1" ry="1" transform="matrix(2.33077 -14.43531 59.73805 9.6455 177 196)" style="animation-delay:2.99s"/></g></svg>