<svg xmlns="http://www.w3.org/2000/svg" viewBox="0 0 128 64"><path fill="#929c9c" d="M0 0h128v64H0z"/><path fill="#95e7ff" d="M33-11L144 1 92 33z"/><path fill="#02353c" d="M-15 15l42 7 29 30z"/><path fill="#fff" d="M13 45l40 10-68-40z"/><path fill="#11363e" d="M-15 46l72 11-4 19z"/><path fill="#fff3e2" d="M-4-3l75 45-46-13z"/><path fill="#6f6458" d="M103 63l41-15L17 8z"/><path fill="#fffffc" d="M95 80L52 33l74 47z"/><path fill="#fff" d="M56 26l23 8L40 7zM19 63L3 80l-18-31z"/><path fill="#5a6362" d="M18 23l56 29 1 28z"/><path fill="#fff9ee" d="M31 54l20-3L8 29z"/><path fill="#fff" d="M90 42L70 28l10 14z"/><path fill="#1f393a" d="M12 6l20 3 13 16z"/><path fill="#fcedee" d="M88 18l7 18L59 9z"/><path fill="#826c66" d="M58 53l74-16 9-30z"/><path fill="#9e6e3f" d="M17 53L-6 34l52 22z"/><path fill="#1e0f09" d="M115 52l18-1-34 14z"/><path fill="#594d39" d="M45-6L21-9l47 33z"/><path fill="#095666" d="M62 27l20 20-46-26z"/><path fill="#fff" d="M45 14L12-10l12-5z"/><path fill="#ffd5b3" d="M76 23L32-6l11-9z"/><path fill="#1f5568" d="M-15 32l14 23 39 4z"/><path fill="#3e3427" d="M35 31L-13 7 2 25z"/><path fill="#d1bdb7" d="M115 53l-29 3 42-17z"/><path fill="#fff5e9" d="M102 66L73 80l3-33z"/><path fill="#afa297" d="M94 28l-9 25 33-15z"/><path fill="#17130e" d="M72 43l7 5 13-4z"/><path fill="#f7d8bc" d="M70 25l7 14-26-19z"/><path fill="#73b5d8" d="M138 7L92 32 72-14z"/><path fill="#fff0e0" d="M45 30l29 16-15 1z"/><path fill="#fffff7" d="M77 75l19 5 28-23z"/><path fill="#6d584b" d="M25 67l28 13 3-34z"/><path fill="#faeeee" d="M20 18L13 3H-4z"/><path fill="#304843" d="M33 32l24 12-5 7z"/><path fill="#264649" d="M69 27L59 14l23 17z"/><path fill="#f5e7e0" d="M37 56L3 34l47 15z"/><path fill="#0e7292" d="M42 44L2 22l25 6z"/><path fill="#2a1f15" d="M105 47l11-9h9z"/><path fill="#fff" d="M52 35L22 20l16 2z"/><path fill="#ba8154" d="M28 23L-15-1 5 19z"/><path fill="#a36738" d="M18 9l3-13 12 15z"/><path fill="#0e86a9" d="M31 34l13 14h11z"/><path fill="#2883a0" d="M61 36L28 15l17 3z"/><path fill="#e4aa76" d="M44 31l-16-4 28 16z"/><path fill="#1e170a" d="M93 36l-5 3-7-7z"/><path fill="#fff" d="M-5 54l67 24-30 2z"/><path fill="#756b68" d="M129 51l-32 3 44-19z"/><path fill="#9e9998" d="M56 80l1-37 16 5z"/><path fill="#b68053" d="M70 31L37 11l12 14z"/><path fill="#190200" d="M-9 20l17 7 2-7z"/><path fill="#f0e7e4" d="M37 43L1 37l-11-17z"/><path fill="#f5c8a3" d="M42 8l13 15L23 3z"/><path fill="#fffcf9" d="M118 61l25-8-2-10z"/><path fill="#3d88a6" d="M27 66l3-8L4 46z"/><path fill="#462e28" d="M124 61l-17 19-3-13z"/><path fill="#6b615d" d="M113 26L98 40l29-14z"/><path fill="#d8c8bb" d="M83 49l7 1 9-9z"/><path fill="#080000" d="M124 37l20-10v11z"/><path fill="#f7feff" d="M75 30L50 15l11 12z"/><path fill="#28120a" d="M106 58l1 3h-8z"/><path fill="#085872" d="M26 61L4 56l-1-8z"/><path fill="#37403e" d="M41 1l6 9 13 4z"/><path fill="#88aec6" d="M20-15L15 9-9-6z"/><path fill="#342619" d="M72 37l14 9-6 2z"/><path fill="#f5ede8" d="M86 44l-8-10 10 6z"/><path fill="#fffdfd" d="M17 12l17 9H23z"/><path fill="#e4c09a" d="M90 35l-12-8h6z"/><path fill="#508699" d="M26 29l-15-8-2 6z"/><path fill="#93724d" d="M91 46L75 36l6 7z"/><path fill="#2e2820" d="M110 59l29-8 5-12z"/><path fill="#60a2c7" d="M71 8l6-23H21z"/><path fill="#544437" d="M15 7l15 10L19 1z"/><path fill="#3b3a31" d="M44 19l16 9-9-2z"/><path fill="#e3bc93" d="M26 50L-3 37l16 2z"/><path fill="#422715" d="M90 53l3-4h7z"/><path fill="#008ca2" d="M58 33l5 6 7 1z"/><path fill="#f3e2d9" d="M62 80l36-28-23 9z"/><path fill="#86868a" d="M76 70L54 47l20 1z"/><path fill="#aea5a0" d="M114 42l12-13-28 13z"/><path fill="#fff" d="M62 10L43-15l4 14zm-17 5h7L38 7z"/><path fill="#9e9491" d="M120 28L96 39l22-19z"/><path fill="#9f9592" d="M128 48l-28 10 10-11z"/><path fill="#200819" d="M127 25l-4 3 8-3z"/><path fill="#1e0800" d="M103 49h-4l8-4z"/><path fill="#464838" d="M34 12l8 5h-7z"/><path fill="#594630" d="M21 24l11 7-7 1z"/><path fill="#67645d" d="M55 80H-1l56-32z"/><path fill="#9aadba" d="M13 50l-16-5-12-14z"/><path fill="#f8e3d8" d="M111 66l24-5-14 14z"/><path fill="#fff8f5" d="M49 35L31 23h8z"/><path fill="#f6eee9" d="M-8 31l36 15-18-14z"/><path fill="#b69575" d="M21 5l22 8L12-9z"/><path fill="#4d321c" d="M32 55l-7 1-11-9z"/><path fill="#c6ebff" d="M65 11l11-2 5-6z"/><path fill="#5b433f" d="M134 59h-10v3z"/><path fill="#768e94" d="M20 50L7 48l22 10z"/><path fill="#c99977" d="M14 15l11 12 15 3z"/><path fill="#bd956f" d="M51 19l22 14-12-2z"/><path fill="#fbefe9" d="M114 45l-14 5h7z"/></svg>