<svg xmlns="http://www.w3.org/2000/svg" viewBox="0 0 400 200"><style>@keyframes a{from{opacity: 0}to{opacity: 1}}g&gt;*{opacity: 0;animation: a .5s forwards}</style><path fill="#909b99" d="M0 0h400v200H0z"/><ellipse fill="#91e1ff" rx="1" ry="1" transform="matrix(.4355 -63.5352 109.8846 .75319 288 18)"/><ellipse fill="#00282f" rx="1" ry="1" transform="rotate(117 1 60) scale(15.40462 134.5115)"/><ellipse fill="#fff" rx="1" ry="1" transform="matrix(-94.3528 -47.24836 7.2087 -14.39545 56 121)"/><ellipse fill="#fffff2" rx="1" ry="1" transform="matrix(-6.39004 10.14722 -119.0995 -75.00096 89 66)"/><ellipse fill="#05343e" rx="1" ry="1" transform="matrix(261.83512 95.30019 -6.50063 17.86034 33 161)"/><ellipse fill="#fff" rx="1" ry="1" transform="matrix(-40.94145 -42.15192 16.81751 -16.33457 270 199)"/><ellipse fill="#3c4e46" rx="1" ry="1" transform="matrix(6.98532 -10.75645 158.02248 102.621 202 112)"/><ellipse fill="#0e0000" rx="1" ry="1" transform="matrix(-75.40096 30.31099 -3.03693 -7.55461 383 166)"/><ellipse fill="#fff" rx="1" ry="1" transform="matrix(-139.95138 -95.8267 3.46877 -5.066 158 50)"/><ellipse fill="#82675d" rx="1" ry="1" transform="rotate(-118 205 -53) scale(33.74492 107.45734)"/><ellipse fill="#fff" rx="1" ry="1" transform="matrix(2.99366 -7.22732 58.90993 24.4013 37 195)"/><ellipse fill="#513b2d" rx="1" ry="1" transform="matrix(19.00462 10.8528 -25.97708 45.48917 141 199)"/><ellipse fill="#152922" rx="1" ry="1" transform="matrix(-3.94257 5.51026 -125.72407 -89.9551 154 31)"/><ellipse fill="#fff5e7" rx="1" ry="1" transform="matrix(-102.002 -82.483 4.66415 -5.76788 194 29)"/><ellipse fill="#fcf4f0" rx="1" ry="1" transform="rotate(-59 186 -95) scale(8.092 115.71427)"/><ellipse fill="#ffeee4" rx="1" ry="1" transform="matrix(-1.02038 -2.32777 197.46536 -86.55935 309 161)"/><ellipse fill="#2f200e" rx="1" ry="1" transform="matrix(-1.62938 -3.50353 76.51833 -35.58627 345 135)"/><ellipse fill="#13596a" rx="1" ry="1" transform="matrix(121.52301 69.03468 -3.4558 6.08332 169 93)"/><ellipse fill="#027191" rx="1" ry="1" transform="matrix(3.42946 -6.3692 89.85413 48.38147 101 121)"/><ellipse fill="#553811" rx="1" ry="1" transform="matrix(-2.31416 4.85173 -91.21274 -43.50625 17 138)"/><ellipse fill="#fff" rx="1" ry="1" transform="matrix(-79.61496 28.98007 -1.53504 -4.2171 360 191)"/><ellipse fill="#d5beaf" rx="1" ry="1" transform="matrix(-34.60487 16.13652 -4.3015 -9.2246 279 150)"/><ellipse fill="#fffced" rx="1" ry="1" transform="matrix(-3.10606 4.46404 -64.64736 -44.98135 206 86)"/><ellipse fill="#d6975c" rx="1" ry="1" transform="matrix(86.26924 50.55414 -3.70548 6.3233 61 65)"/><ellipse fill="#e6a15f" rx="1" ry="1" transform="matrix(89.7785 57.40098 -2.05553 3.21497 158 67)"/></svg>