<svg xmlns="http://www.w3.org/2000/svg" viewBox="0 0 400 200"><path fill="#909b99" d="M0 0h400v200H0z"/><path fill="#00252d" d="M167 131l-13 23-175-93 12-23z"/><path fill="#95e5ff" d="M297 114L165 14l74-98 132 99z"/><path fill="#fff" d="M2 3l312 195-9 13L-5 16zm-7 72l146 77-13 25-146-78z"/><path fill="#05323a" d="M162 238l-200-85 15-36 200 85z"/><path fill="#00344a" d="M269 147l-8 13-154-96 9-13z"/><path fill="#1b0000" d="M395 148l7 16-89 39-7-15z"/><path fill="#fff" d="M279 211l-50-5 3-37 50 4zm-34-106l-7 9L76 0l6-9z"/><path fill="#272f22" d="M52 6l80 47-10 17-80-46z"/><path fill="#fff" d="M-20 197l13-29 75 34-12 28z"/><path fill="#876b60" d="M296 184l-36-68 155-82 36 67z"/><path fill="#022320" d="M129 6l85 61-7 10-85-61z"/><path fill="#574336" d="M133 214l-18-38 53-26 19 38z"/><path fill="#71c0e6" d="M395-61l44 81-145 77-43-81z"/><path fill="#fce3d3" d="M268 94L142 12l13-20 126 82z"/><path fill="#0f0200" d="M426 96l2 4-153 71-2-4z"/><path fill="#0f2729" d="M278 124l-87-61 4-7 87 61z"/><path fill="#f8d9ba" d="M220 134l-14 23L41 58l14-23z"/><path fill="#fff" d="M430 106l1 3-137 61-1-3z"/><path fill="#361700" d="M106 36l153 107-1 1L105 37z"/><path fill="#726f75" d="M190 201l-2-55 42-1 2 54z"/><path fill="#fff" d="M408 168l3 7-143 55-3-7z"/><path fill="#007ea3" d="M60 88l105 56-8 13-105-55z"/><path fill="#eba866" d="M-41 100l5-10 163 83-5 10z"/><path fill="#1d0000" d="M-10 47l40 17-9 22-40-17z"/><path fill="#fff" d="M269 134l-44-33 4-5 44 33z"/><path fill="#fff7f1" d="M-33 77l156 63-7 19-157-63z"/><path fill="#bfafa6" d="M368 97l8 15-121 62-8-16z"/><path fill="#29190a" d="M225 137l8-14 34 20-8 13z"/><path fill="#0092b9" d="M91 43l121 78-5 7L88 49z"/><path fill="#9d7144" d="M131 127L-4 43 8 24l135 85z"/><path fill="#eaa460" d="M180 77l-4 6L75 12l4-6z"/><path fill="#1d150a" d="M443 59l1 1-176 86-1-1z"/><path fill="#016385" d="M89 185l-8 19-100-41 8-18z"/><path fill="#77562c" d="M181 132l-11 17-37-23 11-17z"/><path fill="#7eb4cd" d="M77 181l-79-40 2-5 79 41z"/><path fill="#ffeee1" d="M229 195l16-31 78 40-16 30z"/><path fill="#f3f2f3" d="M147 89l-7 14L-27 6l8-13z"/><path fill="#bd8b58" d="M265 107L134 5l6-7 131 102z"/><path fill="#fff" d="M75 203l-3 8-73-28 3-8z"/><path fill="#927e77" d="M402 129l7 17-113 46-7-18z"/><path fill="#117f9c" d="M208 74l62 47-1 1-62-47z"/><path fill="#523615" d="M137 191l-3 6-107-52 3-6z"/><path fill="#2d2415" d="M340 191l-5-12 114-43 5 11z"/><path fill="#634426" d="M149 31L110 7l5-8 39 24z"/><path fill="#6b635c" d="M80 242l-18-36 97-50 19 37z"/><path fill="#aed7ef" d="M35 25L22 14l20-24L55 1z"/><path fill="#1c1700" d="M107 103l1-2 71 42-1 1z"/><path fill="#20758e" d="M24 87l8-17 74 35-8 17z"/></svg>