<svg xmlns="http://www.w3.org/2000/svg" viewBox="0 0 50 25"><path fill="#929b9b" d="M0 0h50v25H0z"/><path fill="#99e6ff" d="M36 12L3-15 60-2z"/><path fill="#22403e" d="M66 39L-6 14l36 27z"/><path fill="#fffffe" d="M7 18L-4 6l24 14z"/><path fill="#1c4037" d="M-2 9L-9-3l29 19z"/><path fill="#715b4e" d="M25 13l16 11 25-10z"/><path fill="#fff8e9" d="M61 37l-15 4-27-29z"/><path fill="#fff4e6" d="M18 10L-9 2 1-1z"/><path fill="#646160" d="M30 19l-12-4 11 25z"/><path fill="#fff" d="M38 35l-53-2 10-13z"/><path fill="#4f4631" d="M7 2l2-6L19 9z"/><path fill="#ffebcb" d="M2-15L23 8l-38-23z"/><path fill="#352d11" d="M23 5L12-8 5-6z"/><path fill="#fffaef" d="M-15 12l26 3-13-7z"/><path fill="#3b351d" d="M8 10L-3 8l3-5z"/><path fill="#fffffc" d="M26 9l5 6 5 1z"/><path fill="#ffdac9" d="M32 9L20-5l-3 4z"/><path fill="#423837" d="M66 6l-9 12-19 6z"/><path fill="#938681" d="M65-11L33 21l23-3z"/><path fill="#0c465a" d="M21 18l-2-4h-7z"/><path fill="#01546f" d="M19 9l4 5 2-1z"/><path fill="#2e5d66" d="M-15 23l26-2-13-7z"/><path fill="#fce9e0" d="M14 21L4 13l12 5z"/><path fill="#fffce6" d="M17 11l-2-3h-5z"/><path fill="#73b6da" d="M39 8l26-8L4-10z"/><path fill="#ecf4ee" d="M17 11l6 2 2 4z"/><path fill="#28393e" d="M27 14h5l2 5z"/><path fill="#445a5b" d="M32 12L21 5l7 2z"/><path fill="#fff9ee" d="M30 19l28 21-27-6z"/><path fill="#d0e1e6" d="M29 4l1-6 6 15z"/><path fill="#405c5d" d="M28 13l-8-4 1 3z"/><path fill="#fae1da" d="M50 22L23 41l-11-6z"/><path fill="#8f8885" d="M42 22L36 9h30z"/><path fill="#594b3f" d="M22 18l-1 23H3z"/><path fill="#605855" d="M43 17L63-4l-8 15z"/><path fill="#9e9da1" d="M28 23l-6 18 1-24z"/><path fill="#135b68" d="M15 13H8L3 9z"/><path fill="#fffef6" d="M20 8h4l-4-2z"/><path fill="#ede5dd" d="M26 7h-4l9 7z"/><path fill="#fcffff" d="M1 22l17 19 10-8z"/><path fill="#b99258" d="M5 5l-20-9 6 10z"/><path fill="#b7ada4" d="M35 22h8l4-5z"/><path fill="#b2885d" d="M-2 18l-2-6 12 6z"/><path fill="#deefed" d="M17 21l2-2-7-2z"/><path fill="#ffedd8" d="M16 3l-2-4-4-1z"/><path fill="#f6f7ed" d="M23 13l-7-3v3z"/><path fill="#4d685e" d="M2 6l20 9-13-2z"/><path fill="#2c2522" d="M59 11L43 23l21-8z"/><path fill="#596d65" d="M4 18h7l6 9z"/><path fill="#fee8ff" d="M9 6L-9-15l-4 6z"/><path fill="#1b5f73" d="M1 20l11 4-9-7z"/><path fill="#7f7780" d="M38 13L66-4v16z"/><path fill="#332722" d="M43 23l-9 17-13 1z"/><path fill="#ffe9f4" d="M5 4l8 4-4-4z"/><path fill="#656756" d="M10 5l9 3L5-4z"/><path fill="#c8a07f" d="M-3-15L16 4-6-6z"/><path fill="#d3d6d7" d="M27 6l11 7-7-9z"/><path fill="#c9bdae" d="M35 19l1-2h4z"/><path fill="#3c6a7a" d="M19 6l2 5-7-5z"/><path fill="#0e0003" d="M5 9l-20-5 11-1z"/><path fill="#5c4b3d" d="M32 10l-2 1 5 3z"/><path fill="#f2dbd9" d="M11 20l-4-7 5 5z"/><path fill="#7eb4ce" d="M41 11L26 1 36-9z"/><path fill="#5c605a" d="M21 17l-5 9 5 12z"/><path fill="#86b7a1" d="M6 2l7-17-26 4z"/><path fill="#4f655b" d="M25 8l-3-4 4 2z"/><path fill="#725d5a" d="M48 24L36 37l2-9z"/><path fill="#828b85" d="M7 20l-9-4 7 1z"/><path fill="#d6e8e7" d="M32 7l-1 4 4-1z"/><path fill="#6a5049" d="M31 39l10-6-31-13z"/><path fill="#2a2320" d="M29 16l2 2h4z"/><path fill="#ada08f" d="M39 13l-7 7 12-5z"/><path fill="#d5bea4" d="M23 18h4l-7-4z"/><path fill="#b78f66" d="M27 12h-3l-4-5z"/><path fill="#37585d" d="M19 9l5 4 2-1z"/><path fill="#e6f3ff" d="M26 17l-1-2 4 3z"/><path fill="#775439" d="M21 17l-5-3 4 1z"/><path fill="#a1938c" d="M42 16L61 0l-4 9z"/><path fill="#baa7a1" d="M2 24l17 17-7-13z"/><path fill="#c7c3bc" d="M65 4L45 17l13-4z"/><path fill="#7b848f" d="M29 18l-9 13 8-5z"/><path fill="#f9ded6" d="M33 15l-1 1-1-2z"/><path fill="#394a38" d="M11 6V3l2 1z"/><path fill="#2e6169" d="M26 13v1l-2 1z"/><path fill="#807977" d="M66 10l-22 9h16z"/><path fill="#c5af9f" d="M26 5L3-9l6-6z"/><path fill="#464e3d" d="M45 14h3l-6 3z"/><path fill="#a78a6d" d="M-15-4l9 11L7 6z"/><path fill="#ffe1cf" d="M19 5L11-5l-1 4z"/><path fill="#958883" d="M47 9l-1 5-13 2z"/><path fill="#bbf1f9" d="M38-12l-6-2-2 17z"/><path fill="#e9e8f2" d="M10 6l4 3-1-2z"/><path fill="#e1e1e6" d="M13-7L28 6 15-15z"/><path fill="#e6ae96" d="M14 20l1 1v1z"/><path fill="#b0d6e2" d="M36 9l-1 1-2-4z"/><path fill="#f1dcd4" d="M13 17l-15-7 7 7z"/><path fill="#8cadc2" d="M27 3L14-7l36-8z"/><path fill="#506162" d="M28 17l-2-4 8 4z"/><path fill="#315c6c" d="M16 17l-3-4 9 4z"/><path fill="#f3e2d4" d="M37 21L24 41H2z"/><path fill="#dbcbc5" d="M45 24l15-11-4 7z"/></svg>