<svg xmlns="http://www.w3.org/2000/svg" viewBox="0 0 400 200"><path fill="#909b99" d="M0 0h400v200H0z"/><path fill="#002c34" d="M151 155l28-11L24 49l-48 14z"/><path fill="#94e5ff" d="M418-10L108-24l176 130 118-69z"/><path fill="#fffffa" d="M0-2l231 177 5 43 91-12z"/><path fill="#fff" d="M-9 107l-15-42 167 85-12 25z"/><path fill="#0a363d" d="M207 216L-24 115v48l134 51z"/><path fill="#1c3f3e" d="M309 170L40-7l6 32 184 117z"/><path fill="#170000" d="M424 162v-24l-115 51-4 14z"/><path fill="#fff" d="M233 111l56 27L89-5 80 6z"/><path fill="#1a2920" d="M142 13L104 3l170 119 22 4z"/><path fill="#fff" d="M-24-24L36-4-24 8l156 92z"/><path fill="#2f1100" d="M345 142l79-42-73 27-89 47z"/><path fill="#fff" d="M3 173l-27-16 34 67 75-18z"/><path fill="#695d59" d="M169 148L36 224l199-28-8-49z"/><path fill="#fff0e5" d="M283 69l-15 13 14 22L110-24z"/><path fill="#795c54" d="M281 106l121-64 22 32-175 79z"/><path fill="#fffef9" d="M354 199l70-34-84 27-56 28z"/><path fill="#e0a368" d="M0 47l-9-10 230 121L-24 2z"/><path fill="#fef4ec" d="M-24 99l157 74 2-24L24 87z"/><path fill="#007b9f" d="M19 82l83 47 71 31L63 84z"/><path fill="#fffbf3" d="M210 138l-19-2L35 42l68 17z"/><path fill="#037a9c" d="M75 45l36 10 94 59 71 55z"/><path fill="#f7e6dd" d="M238 145l-7 56 95 5L113 70z"/><path fill="#e6a05b" d="M108 163l15 19-147-68 50 9z"/><path fill="#310c00" d="M29 65l-53-42v43l47 20z"/><path fill="#feefe3" d="M292 144L61-24 16 43 61-4z"/></svg>