<svg xmlns="http://www.w3.org/2000/svg" viewBox="0 0 400 200"><path fill="#909b99" d="M0 0h400v200H0z"/><path fill="#00262d" d="M-15 64l13-23 175 93-13 24z"/><path fill="#fff" d="M134 175L-15 99l11-22 149 76z"/><path fill="#87e0ff" d="M363-77l57 107-156 83L207 6z"/><path fill="#03323c" d="M252 277L-28 158l15-36 280 119z"/><path fill="#fff" d="M40 43l7-12 168 106-7 11zm253 186l-73-45 19-30 73 45z"/><path fill="#090000" d="M317 201l-6-15 96-38 6 14z"/><path fill="#00242e" d="M92 29l169 113-8 12L85 40z"/><path fill="#fffffd" d="M-16 10l8-14 129 77-8 14z"/><path fill="#fff" d="M90-5l159 116-6 8L84 4z"/></svg>