<svg xmlns="http://www.w3.org/2000/svg" viewBox="0 0 400 200"><path fill="#909b99" d="M0 0h400v200H0z"/><ellipse fill="#8ee2ff" rx="1" ry="1" transform="matrix(114.31434 -18.25038 12.6465 79.21353 300 1)"/><ellipse fill="#002d32" rx="1" ry="1" transform="rotate(118 6 66) scale(15.79457 135.69636)"/><ellipse fill="#fff" rx="1" ry="1" transform="matrix(98.1583 48.09415 -7.02054 14.32865 51 119)"/><ellipse fill="#02333c" rx="1" ry="1" transform="matrix(-7.78156 18.4308 -186.74658 -78.84516 35 163)"/><ellipse fill="#fffae2" rx="1" ry="1" transform="rotate(-59 111 -48) scale(13.36747 155.12828)"/><ellipse fill="#190000" rx="1" ry="1" transform="rotate(-22 613 -888) scale(75.01915 9.99617)"/><ellipse fill="#fff" rx="1" ry="1" transform="matrix(-16.24216 17.93021 -39.40807 -35.69797 271 199)"/><ellipse fill="#0d3939" rx="1" ry="1" transform="matrix(116.79655 75.27024 -5.97402 9.26986 167 89)"/><ellipse fill="#fff" rx="1" ry="1" transform="matrix(-95.49136 -65.81918 3.96436 -5.75155 173 61)"/><ellipse fill="#0e2824" rx="1" ry="1" transform="matrix(3.70205 -5.36286 85.48702 59.01278 196 61)"/><ellipse fill="#fff" rx="1" ry="1" transform="matrix(3.61146 -11.88672 42.32826 12.8603 14 190)"/><ellipse fill="#8c7066" rx="1" ry="1" transform="matrix(-107.4638 50.39093 -21.13994 -45.08307 366 113)"/><ellipse fill="#544135" rx="1" ry="1" transform="matrix(18.08032 16.86017 -28.20362 30.24468 147 188)"/><ellipse fill="#fff6ed" rx="1" ry="1" transform="rotate(38 49 312) scale(118.36943 7.94752)"/><ellipse fill="#fff8f8" rx="1" ry="1" transform="matrix(-160.25511 -95.15252 3.53344 -5.95099 125 86)"/><ellipse fill="#f8efe7" rx="1" ry="1" transform="matrix(184.76137 -80.08098 1.10988 2.5607 325 154)"/><ellipse fill="#140900" rx="1" ry="1" transform="rotate(66 65 335) scale(3.40151 65.71715)"/><ellipse fill="#c3874f" rx="1" ry="1" transform="rotate(-58 118 -39) scale(6.27604 131.03434)"/><ellipse fill="#fff5ec" rx="1" ry="1" transform="matrix(5.56661 -8.90844 89.40643 55.86734 43 114)"/><ellipse fill="#3b2d21" rx="1" ry="1" transform="matrix(-2.91589 4.56689 -30.3704 -19.39104 70 36)"/><ellipse fill="#fff4ef" rx="1" ry="1" transform="rotate(69 72 379) scale(5.54202 87.21892)"/><ellipse fill="#1b0200" rx="1" ry="1" transform="matrix(-6.32064 7.93071 -21.18252 -16.8821 6 67)"/><ellipse fill="#f1e7de" rx="1" ry="1" transform="matrix(.69158 1.40111 -92.12911 45.47439 311 128)"/><ellipse fill="#e8a566" rx="1" ry="1" transform="matrix(-2.65195 3.7236 -90.01957 -64.11195 170 72)"/><ellipse fill="#00769a" rx="1" ry="1" transform="matrix(-4.0181 7.24886 -78.57802 -43.5565 92 116)"/></svg>