<svg xmlns="http://www.w3.org/2000/svg" viewBox="0 0 400 200"><path fill="#909b99" d="M0 0h400v200H0z"/><path fill="#002931" d="M-27 59l15-26 165 91-14 26z"/><path fill="#fff" d="M134 178L-20 99l12-25 155 79z"/><path fill="#99e7ff" d="M232-75l128 95-69 91-127-95z"/><path fill="#03323b" d="M2 126l164 73-16 36-164-73z"/><path fill="#1f0300" d="M311 205l-7-16 143-64 7 16z"/><path fill="#fff" d="M7 5l220 138-8 13L-1 18zm210 178l20-32 79 49-20 32z"/><path fill="#003137" d="M109 63l10-16 152 95-10 16z"/><path fill="#fff" d="M91 12l7-11 163 114-7 10z"/><path fill="#272a1a" d="M126 50l-10 18-69-41L58 9z"/><path fill="#70c2ea" d="M393-87l54 102-157 83L236-4z"/><path fill="#313428" d="M169 221l-27-2 7-92 26 2z"/><path fill="#062828" d="M284 134L126 19l7-10 158 114z"/><path fill="#806358" d="M440 98l-151 68-25-56 152-67z"/><path fill="#fff" d="M70 226l-81-31 8-22 82 31z"/></svg>