<svg xmlns="http://www.w3.org/2000/svg" viewBox="0 0 400 200"><path fill="#909b99" d="M0 0h400v200H0z"/><path fill="#86e0ff" d="M385-85l56 101-174 96-56-101z"/><path fill="#00262c" d="M-27 55l13-23 174 96-13 23z"/><path fill="#fff" d="M143 152l-14 26-160-85 14-26z"/><path fill="#1d3b3b" d="M-10 124l186 64-14 40-186-64z"/><path fill="#fff" d="M220 181l20-29 70 47-20 29z"/><path fill="#fff" d="M244 171L-70-25l9-13 314 196z"/><path fill="#002c37" d="M255 157L74 40l10-14 181 117z"/><path fill="#fff" d="M82 8l7-10 165 111-7 10z"/><path d="M435 152l-119 48-5-13 118-48z"/><path fill="#fff" d="M125-38L282 81l-11 15L113-23z"/><path fill="#0b211b" d="M287 120l-6 9L120 13l7-9z"/><path fill="#210300" d="M496 70L277 172l-3-6L494 64z"/><path fill="#fff" d="M74 203l-10 25-80-33 10-24z"/><path fill="#303329" d="M154 131l23 3-7 59-24-3z"/><path fill="#ffd39c" d="M43 142l6-13 76 37-7 13z"/><path fill="#5b3009" d="M86 53L46 23 60 4l40 30z"/><path fill="#68483c" d="M430 52l6 11-177 87-6-12z"/><path fill="#056580" d="M-18 64l8-15 174 92-9 15z"/><path fill="#747075" d="M233 208l-47 1-2-62 47-2z"/><path fill="#fff" d="M468 89v2l-181 81-1-2zm-34 68l3 7-120 49-3-7z"/><path fill="#3a0000" d="M-9 47l41 16-9 23-41-16z"/><path fill="#005e84" d="M88 184l-8 19-78-32 7-19z"/><path fill="#fff7eb" d="M281 213l-50-3 3-41 49 4z"/><path fill="#e4a365" d="M131 99l-7 10-140-81 6-11z"/><path fill="#e3a264" d="M207 90l-5 8L35-10l5-8z"/><path fill="#0084aa" d="M238 137l-4 7-127-83 4-6z"/><path fill="#fff7f2" d="M124 143l-12 22-115-59L8 84z"/><path fill="#7cc2e0" d="M132-21l22-31 103 75-22 30z"/><path fill="#8c7670" d="M433 46l-153 91-11-18 152-92z"/><path fill="#e6a36b" d="M84-43l195 147-5 6L79-37z"/><path fill="#fffffc" d="M40 31l171 102-6 9L35 40z"/><path fill="#efb579" d="M190 131l-6 11-60-34 6-11z"/><path fill="#fffff4" d="M251 112l23 9-4 12-24-9z"/><path fill="#856961" d="M303 192l-9-19 130-57 8 18z"/><path fill="#db9e62" d="M-9 117l5-10 90 46-5 10z"/><path fill="#3e1e00" d="M34 147l3-5 77 37-2 6z"/><path fill="#fffffe" d="M121 21l110 80-4 5-110-80z"/><path fill="#fff" d="M67 214l-71-32 4-10 71 32z"/><path fill="#31180a" d="M251 154l-28-15 9-16 28 14z"/><path fill="#715c51" d="M105 185l56-31 20 35-56 31z"/><path fill="#301802" d="M285 115l-14 5-5-12 15-5z"/><path fill="#4d3009" d="M15 50l2-4 154 93-2 4z"/><path fill="#79abc2" d="M64 175l-107-55 3-6 107 55z"/><path fill="#b08862" d="M31 54l-8 12-46-31 7-12z"/><path fill="#fff4ea" d="M68-14l76 48-4 6L64-7z"/><path fill="#fde6da" d="M373 98l-162 79-1-2 162-78z"/><path fill="#3c2618" d="M325 184l106-43 5 11-106 43z"/><path fill="#21190e" d="M255 150L480 41l1 1-225 110z"/><path fill="#d69a61" d="M258 129l-4 6-58-40 5-7z"/><path fill="#f8efe7" d="M147 149l5 10-35 16-5-10z"/><path fill="#27a3c2" d="M154 37l1-1 96 72-1 2z"/><path fill="#c4b4a5" d="M325 97l4 6-62 33-4-7z"/><path fill="#a0d4ef" d="M62-7L34 23 18 9l27-31z"/><path fill="#dfe4e6" d="M282 67l-18 24-38-28 18-24z"/><path fill="#462d2b" d="M401 187l-46 20-2-5 46-19z"/><path fill="#76b7d9" d="M388 47l-95 47-39-80 95-47z"/><path fill="#7d5634" d="M143 16l-8 10L93-8l8-10z"/><path fill="#8a716e" d="M333 118l100-44 7 15-100 45z"/><path fill="#fff4eb" d="M35 42L-9 14l7-10 44 27z"/><path fill="#56340f" d="M203 107L94 31l1-2 109 76z"/><path fill="#adbdc8" d="M142 74l-20-17 3-4 20 17z"/><path fill="#fffdef" d="M285 99l-3 4L123-16l3-4z"/><path fill="#107994" d="M39 96l6-13 112 57-7 13z"/><path fill="#d7e4e8" d="M204 35l42-29 5 7-42 30z"/><path fill="#84868a" d="M170 149l59-2 3 68-60 2z"/><path fill="#92a5ae" d="M27 67l79 44v2L26 69z"/><path fill="#a68769" d="M103 23l-9 14L51 7 61-7z"/><path fill="#bbc9ce" d="M207 91l1-25 11 1-1 25z"/><path fill="#f8f0e9" d="M409 55l-119 61-1-1 120-61z"/><path fill="#fff1e6" d="M406 190l1 4-46 15-1-5z"/><path fill="#f0dfd2" d="M235 194l-1-1 86-42 1 1z"/><path fill="#4e3b1b" d="M-1 124l63 40-1 2-62-41z"/><path fill="#948b87" d="M277 137l-5-10 146-75 5 10z"/><path fill="#c8a27b" d="M125 173l-4 7-63-32 4-7z"/><path fill="#c59f72" d="M140 107l58 33-5 8-58-33z"/><path fill="#0b0a00" d="M253 151l-3-5 21-11 3 5z"/><path fill="#fff" d="M209 147l-35-3v-1l35 2z"/><path fill="#372d17" d="M299 156l123-58 2 4-123 58z"/><path fill="#fffcf2" d="M222 92l50 40-2 2-50-39z"/><path fill="#442913" d="M304 191l3-5 16 9-3 5z"/><path fill="#b09f94" d="M1 83l154 82-1 1L0 84z"/><path fill="#313029" d="M51 26l4-7 36 26-4 6z"/><path fill="#f7e3d8" d="M339 215l-12 19-83-50 12-19z"/><path fill="#52badb" d="M95 47l16 11-4 6-17-11z"/><path fill="#738992" d="M65 89l1-1 108 62-1 1z"/><path fill="#0c5064" d="M-6 162l8-15 34 17-8 15z"/><path fill="#d4d0ca" d="M239 149l-1 1-44-28 1-1z"/><path fill="#181702" d="M25 75l-6 10-30-17 7-11z"/><path fill="#f8fbff" d="M128 97l1-3 70 39-2 3z"/><path fill="#72b2cb" d="M242-2l-20 37-56-31 20-37z"/><path fill="#bf9e77" d="M146 5l-8 11-26-19 8-12z"/><path fill="#080e0c" d="M269 124l-1-2 21-13 1 1z"/><path fill="#3386a0" d="M67 172l27 8-6 18-27-8z"/><path fill="#6b645a" d="M153 158l4 7-90 50-4-7z"/><path fill="#fff" d="M151 158l-1 1L11 84v-1z"/><path fill="#716767" d="M366 59l5 9-51 31-5-9z"/><path fill="#71a9c2" d="M279 91l-15-9 5-8 15 8z"/><path fill="#f5e9e3" d="M97 15l-6-26 10-3 7 26z"/><path fill="#f9e5de" d="M356 109l-1-2 88-48v1z"/><path fill="#3c2804" d="M269 169l16-7 1 2-16 7z"/><path fill="#bfa194" d="M324 140l-44 22-8-16 43-22z"/><path fill="#242714" d="M69 165l3-5 33 17-3 6z"/><path fill="#584224" d="M177 87l74 47-2 3-73-48z"/><path fill="#f9f4f0" d="M99 138l37 18-6 11-36-18z"/><path fill="#f8e5df" d="M435 168l-116 42-3-7 116-43z"/><path fill="#ffe9db" d="M285 109l-10-13 4-3 10 13z"/><path fill="#fbeae0" d="M420 114l-96 42-1-2 95-43z"/><path fill="#625a54" d="M289 113v-1l126-64 1 1z"/><path fill="#9fb1b6" d="M-14 141l4-12 25 7-3 12z"/><path fill="#9e8072" d="M-4 186l39 16-1 1-39-16z"/><path fill="#18485b" d="M113 6l111 76-1 1L112 8z"/><path fill="#74b2ce" d="M261 59l-20-82 50-13 20 83z"/><path fill="#a19c99" d="M350 155l5 11-41 18-5-11z"/><path fill="#f5e6de" d="M332 150v2l-97 43v-1z"/><path fill="#bcb5ae" d="M109 67l-1 1L-1 0l1-1z"/><path fill="#453923" d="M178 141l-4 7-32-19 4-7z"/><path fill="#352100" d="M-3 124l61 31v1l-62-31z"/><path fill="#09839f" d="M104 59l4-6 59 39-5 7z"/><path fill="#4997b3" d="M-4-4l3-5L30 5l-2 6z"/><path fill="#4c4535" d="M136 9l63 46-5 6-63-46z"/><path fill="#586877" d="M44 25l-3-3 32-39 4 3z"/><path fill="#876b56" d="M286 183l-3-4 36-20 2 4z"/><path fill="#f1e3db" d="M238 153l17 2-4 50-17-2z"/><path fill="#d3a879" d="M60 144l-4 8-49-26 5-8z"/><path fill="#86c1db" d="M403-22l24 50-62 30-24-49z"/><path fill="#1d2833" d="M94 32l3 1-8 21-3-1z"/><path fill="#e4ddd6" d="M279 145l64-36 1 1-64 36z"/><path fill="#5f4123" d="M272 112l-74-55 1-2 73 56z"/><path fill="#868a8c" d="M171 196l2-49 57 2-1 49z"/><path fill="#f1e5de" d="M271 128L158 47l1-2 113 82z"/><path fill="#987352" d="M286 111l-3 4-20-15 3-4z"/><path fill="#186f86" d="M205 71l-65-42v-2l66 43z"/><path fill="#655954" d="M350 148v-2l73-30 1 2z"/><path fill="#a99272" d="M198 144L84 75l1-1 114 68z"/><path fill="#463c21" d="M-5 57l34 2v11l-35-2z"/><path fill="#137894" d="M163 153h-18v-14h18z"/><path fill="#d4ccc7" d="M333 93l91-48 1 1-91 48z"/><path fill="#a08a6e" d="M-10 109l1-2 111 54-1 2z"/><path fill="#685f5a" d="M303 113l-1-1 169-86v1z"/><path fill="#c2a079" d="M171 70l-4 6-90-63 5-6z"/><path fill="#997756" d="M248 121l19 14-4 5-19-14z"/><path fill="#f8ede8" d="M408 82l-67 33-1-2 68-33z"/><path fill="#fffffc" d="M5 176l76 32-3 6-76-33z"/><path fill="#07526c" d="M270 118l-1 1-44-32 1-1z"/><path fill="#626056" d="M148 158l26 3-7 61-27-4z"/><path fill="#5a8fa5" d="M30 151l71 35-1 2-72-35z"/><path fill="#e9ecea" d="M177 21l16-9 4 6-17 9z"/><path fill="#60504d" d="M152 135l-1 1-70-41 1-2z"/><path fill="#89786f" d="M251 159l187-87v2l-187 87z"/><path fill="#f2ebe8" d="M82 68l9-14 26 17-10 14z"/><path fill="#3a4c50" d="M151 69l-13 7-3-6 13-7z"/><path fill="#e3d2c5" d="M247 162l-18-9 3-7 19 9z"/><path fill="#25809a" d="M43 94l-18-7 5-13 18 6z"/><path fill="#6b656f" d="M421 30l6 11-56 30-6-11z"/><path fill="#312c28" d="M341 107l100-48 1 1-100 49z"/><path fill="#dbeaf2" d="M279 64l-2 14-26-3 2-14z"/><path fill="#a68c74" d="M31 40l-7 14-32-18 8-13z"/><path fill="#d7b082" d="M40 50l109 65-3 5L37 55z"/><path fill="#faf0ed" d="M222 55L148-5l1-1 74 60z"/><path fill="#fffbfa" d="M220 143v2l-48 1v-2z"/><path fill="#d4ad81" d="M50 145l3-5 64 32-3 6z"/><path fill="#9e9793" d="M359 88l3 5-57 30-3-5z"/><path fill="#50564a" d="M14 144l3-7 74 33-3 7z"/><path fill="#bc9a84" d="M259 167l-3-12 25-5 2 12z"/><path fill="#f7f0e9" d="M170 114l58 29-2 5-59-30z"/><path fill="#7ebcd2" d="M75 189h2l-4 20h-1z"/><path fill="#746861" d="M409 123l-128 57-1-1 128-57z"/><path fill="#9f9087" d="M316 140l52-26 2 4-52 26z"/><path fill="#e8e0d7" d="M245 162v-2l55-29 1 1z"/><path fill="#efecea" d="M116 165l-92-45 5-11 93 45z"/><path fill="#e5f1f4" d="M247 22l-9-4 4-10 9 3z"/><path fill="#332817" d="M126 16l13 9-1 1-13-9z"/><path fill="#135b6d" d="M68 173l-6 15-25-10 6-14z"/><path fill="#f9ede1" d="M174 68l-1 1L65-10l1-1z"/><path fill="#719db0" d="M-37 127l108 46-1 1-108-45z"/><path fill="#100708" d="M234 142l-7-7 3-3 7 6z"/><path fill="#c4bbb1" d="M359 135v1l-38 18-1-1z"/><path fill="#72afc7" d="M180-12l30-15 21 44-30 14z"/><path fill="#574e3b" d="M81-12l1 1-36 37-1-1z"/><path fill="#bbd2dc" d="M256 61l-7 9-28-23 7-9z"/><path fill="#8d7663" d="M290 181l10-15 12 7-10 16z"/><path fill="#f5eae1" d="M151 97l-1 2L4 8l1-2z"/><path fill="#d9d3cf" d="M58-25l1-2 122 88-1 2z"/><path fill="#077f9f" d="M224 130l-2 3-103-65 1-2z"/><path fill="#0b6d83" d="M107 51l36 24-4 7-37-25z"/><path fill="#96b1b6" d="M141 60l-2 8-16-5 2-7z"/><path fill="#363018" d="M176 141l-1 1L67 80v-2z"/><path fill="#4d3b2a" d="M311 197l-2-9 25-8 3 9z"/><path fill="#f0f1ec" d="M151 154l1 1-23 14-1-1z"/><path fill="#4a3c21" d="M273 172l-2-3 39-20 2 3z"/><path fill="#a3c6d3" d="M241 51l-9 1-6-80h9z"/><path fill="#af9779" d="M216 60L141 0l1-2 74 60z"/><path fill="#fbebe0" d="M196 82l2-3 64 47-2 3z"/><path fill="#ceb498" d="M195 51l-50-39 2-2 50 39z"/><path fill="#7a7a7c" d="M117 51l-1 2-25-15v-2z"/><path fill="#54352a" d="M409 193l1 2-21 10-1-1z"/><path fill="#ffe9d8" d="M257 83l29 22-1 1-29-22z"/><path fill="#c3c0bd" d="M122 75l-1 2-70-44 1-2z"/><path fill="#313031" d="M271 106l2 14-8 1-2-14z"/><path fill="#5aafce" d="M141 77v-1l14 8-1 1z"/><path fill="#674d36" d="M129 15l-1 2-18-12 1-1z"/><path fill="#a8938e" d="M452 151l1 1-160 58-1-1z"/><path fill="#d3c9c4" d="M335 117l-1-1 48-26 1 2z"/><path fill="#173c48" d="M7 173l11-36 2 1-12 36z"/><path fill="#e9ded4" d="M301 190l-6 11-60-33 6-11z"/><path fill="#d3e8ee" d="M210 37l-3-6 12-7 4 5z"/><path fill="#3b3f3c" d="M0-2h1l1 6H0z"/><path fill="#b29375" d="M90 27L58 7l7-11 32 21z"/><path fill="#69625b" d="M166 180L61 241l-13-22 106-61z"/><path fill="#85898a" d="M192 159l39-3 4 62-39 3z"/><path fill="#f3efea" d="M196 138l-94-63 3-6 95 64z"/><path fill="#bea282" d="M248 132l-75-51 5-8 75 51z"/><path fill="#a59a99" d="M322 218v-1l142-49v1z"/><path fill="#c79c6b" d="M-8 120l3-7 34 16-3 7z"/><path fill="#adc5c8" d="M160 99l1-1 50 32-1 2z"/><path fill="#977f60" d="M-3 21l127 77-1 1L-4 23z"/><path fill="#eee5e2" d="M23 106l-6 13-39-21 7-12z"/><path fill="#65543b" d="M22 59l-3 7-39-17 3-7z"/><path fill="#131f1a" d="M137 29l-1-1 3-15 2 1z"/><path fill="#c8dce4" d="M262 82l-5-4 20-24 5 4z"/><path fill="#68a0b4" d="M177 12L163 2l8-12 14 10z"/><path fill="#71b1c9" d="M277 15l-37 29-6-8 37-28z"/><path fill="#f4e9e3" d="M238 151l5 45-7 1-6-45z"/><path fill="#6dbbcf" d="M253 108l9 6-1 2-9-7z"/><path fill="#d3d0c9" d="M213 83l61 44-1 1-61-44z"/><path fill="#96908d" d="M364 144l7 16-58 26-7-16z"/><path fill="#c9b195" d="M266 103l-53-41 1-1 53 41z"/><path fill="#d7d1c9" d="M216 142l-37 3v-1l37-3z"/><path fill="#697274" d="M20 87L9 81l1-1 11 6z"/><path fill="#86bed5" d="M342 72l-55-95 60-34 55 94z"/><path fill="#0a1005" d="M30 59l1 1-15 20-2-1z"/><path fill="#7d959d" d="M130 124l-15-8v-1l16 8z"/><path fill="#daccba" d="M300 112l-26 14-1-2 26-14z"/><path fill="#c0b8af" d="M233 142l22 20-1 1-22-20z"/><path fill="#616463" d="M191 103l-50-33 1-2 50 32z"/><path fill="#818382" d="M204 174v-28h25v28z"/><path fill="#2686a3" d="M92 48l3-5 18 13-4 5z"/><path fill="#95877f" d="M320 85l4 7-33 18-4-6z"/><path fill="#634c2c" d="M200 100l-1 1-91-61 1-2z"/><path fill="#3093ac" d="M210 75l45 34-1 2-45-34z"/><path fill="#0d586f" d="M-11 164l15-16 9 9-15 15z"/><path fill="#6c6765" d="M350 113l98-48 1 2-99 48z"/><path fill="#b1bdc2" d="M208 65l9 8-1 1-9-8z"/><path fill="#cbb192" d="M128 41l-4 7-22-16 4-6z"/><path fill="#423c34" d="M204 69l-17-11 5-7 16 12z"/><path fill="#70615d" d="M410 182l-80 27-1-1 80-28z"/><path fill="#715d47" d="M115 1l20 15-5 6-20-15z"/><path fill="#758588" d="M233 145l13-8 1 1-13 8z"/><path fill="#68737d" d="M166 38l46 33-1 2-46-33z"/><path fill="#806847" d="M93 29l-3 9-34-12 3-9z"/><path fill="#f3ede7" d="M131 32l2-4 132 95-3 4z"/><path fill="#a08975" d="M314 115l-40 18-2-6 40-18z"/><path fill="#a78f74" d="M212 100L10-41l1-1L213 99z"/><path fill="#7b7270" d="M375 142l37-21 9 17-37 20z"/><path fill="#1e7d94" d="M115 66l29 18-1 2-29-19z"/><path fill="#535247" d="M29 59l101 60-1 2L28 60z"/><path fill="#a7896d" d="M-10 39l3-5 37 19-2 6z"/><path fill="#443d28" d="M242 130l-1 1-50-34 1-1z"/><path fill="#353223" d="M181 46l-1 1-21-19 1-1z"/><path fill="#68a6bb" d="M227 28l1 1-10 16-1-1z"/><path fill="#473e2f" d="M59 25l-10 5-3-7 9-5z"/><path fill="#070c08" d="M263 140l1 1-13 11-1-1z"/><path fill="#b79a75" d="M141 12l-6 2-8-18 5-3z"/><path fill="#43341a" d="M51 152v2l-41-23v-2z"/><path fill="#125d72" d="M69 96l-6 11-24-14 6-11z"/><path fill="#1d7e9d" d="M93 194l-18-6 2-6 18 7z"/><path fill="#1d758c" d="M164 146l-5 10-34-16 5-10z"/><path fill="#565551" d="M172 142h2l-4 42h-1z"/><path fill="#7d8386" d="M153 141l1-2 44 16v1z"/><path fill="#4e6368" d="M83 50l-1-2 18-15 1 1z"/><path fill="#f9e1d2" d="M21 208l-28-11 3-7 28 11z"/><path fill="#525a57" d="M183 93v-1l64 48-1 1z"/><path fill="#2a6270" d="M119 60v-2l64 40-1 1z"/><path fill="#bfa480" d="M141 118L4 39l1-2 136 79z"/><path fill="#3992ab" d="M156 39l-17-13v-1l18 13z"/><path fill="#8eb0ba" d="M105 60l-12-5 1-1 11 5z"/><path fill="#80b7cd" d="M269 87l17-42 27 10-16 43z"/><path fill="#43423a" d="M265 116l-1-4 26-4 1 3z"/><path fill="#b5cbd7" d="M29 18l26-29 5 4-26 29z"/><path fill="#919da6" d="M114-4l3 3-10 10-4-4z"/><path fill="#756d68" d="M347 91l-1-1 65-36v1z"/><path fill="#aea096" d="M-6 83v-1l30 14-1 2z"/><path fill="#1f2b21" d="M49 147h1l-3 14h-2z"/><path fill="#898186" d="M346 75l54-31 2 4-54 31z"/><path fill="#3c7e8a" d="M88 122l1-2 18 10-1 1z"/><path fill="#9c908b" d="M291 143l74-36 5 11-74 36z"/><path fill="#848a89" d="M83-11L52 15l-2-2 31-26z"/><path fill="#6f6b6f" d="M28 63l31 18-1 2-31-19z"/><path fill="#35311c" d="M103 182l-33-15 3-7 33 15z"/><path fill="#fcf9f4" d="M0 80l1-2 29 16-1 1z"/><path fill="#c4d6dd" d="M253 72l31 1-1 6-31-1z"/><path fill="#a1cbe0" d="M249 36l13 19-6 5-13-20z"/><path fill="#ceab84" d="M196 89l-4 5-24-19 4-5z"/><path fill="#618c9a" d="M48 160l3-3 21 16-3 3z"/><path fill="#8f8787" d="M299 115l97-48 3 7-97 48z"/><path fill="#c2bcb2" d="M91-5l52 39-1 1L90-4z"/><path fill="#040606" d="M255 152l-1-1 12-8v1z"/><path fill="#b19173" d="M278 108l-40-32 1-1 40 32z"/><path fill="#412c08" d="M6 129l-6 2-1-2 6-2z"/><path fill="#f0e9e5" d="M232 184l18-2 4 33-17 2z"/><path fill="#6d9caf" d="M9 148l2-4 32 12-2 5z"/><path fill="#c4b5a3" d="M44 131l80 39-1 1-80-39z"/><path fill="#4c3c29" d="M279 169v1l-13-3 1-1z"/><path fill="#4e4a40" d="M256 106l-31-23 2-3 31 23z"/><path fill="#dad1ce" d="M227 54l1-1 59 47-1 2z"/><path fill="#222c2e" d="M265 114l8-5 7 10-8 5z"/><path fill="#17828d" d="M166 46l26 18-1 1-25-18z"/><path fill="#7eb9d0" d="M433 3l9 18-120 56-9-18z"/><path fill="#564e41" d="M342 141l61-29v1l-60 30z"/><path fill="#3c879f" d="M222 134v-3l7-1 1 3z"/><path fill="#53514b" d="M275 128l2 1-4 10-2-1z"/><path fill="#c1a98d" d="M187 40l55 41-2 3-55-42z"/><path fill="#0d141a" d="M93 43l1 1-7 8-1-1z"/><path fill="#f7e7de" d="M378 204l20-10v1l-19 10z"/><path fill="#3e3630" d="M426 69l-90 43-1-2 91-42z"/><path fill="#f4f2ef" d="M164 56l31 26-1 1-31-26z"/><path fill="#13221d" d="M81 49l-1-1 13-14 1 1z"/><path fill="#116b81" d="M106 121l1-1 42 32-1 1z"/><path fill="#ede6e0" d="M106 70l-6 11-89-56 7-10z"/><path fill="#173e51" d="M198 65l-1 1-55-41 1-2z"/><path fill="#fff" d="M99-1l4 2v1l-5-1z"/><path fill="#8d8786" d="M340 135l-6-13 90-42 6 12z"/><path fill="#dcd1c8" d="M224 141l2-2 21 19-3 2z"/><path fill="#1c5766" d="M74 177l3 1-6 19-3-1z"/><path fill="#8c7d70" d="M307 166l10 12-16 13-10-12z"/><path fill="#baa180" d="M77 72l1-1 90 52v1z"/><path fill="#8c8d90" d="M204 145l2 42-30 1-2-42z"/><path fill="#71696a" d="M285 105l3-4 6 5-3 4z"/><path fill="#215d6e" d="M-2 159l5-12 51 24-5 11z"/><path fill="#ebe3dc" d="M336 146v2l-98 48-1-2z"/><path fill="#ece5dd" d="M208 89l55 38v1l-56-37z"/><path fill="#0d1004" d="M30 63L11 81l-2-2 19-18z"/><path fill="#ecebeb" d="M124 168l-65-34 3-7 65 35z"/><path fill="#d8c9b5" d="M66 60l-1 2-42-27 1-1z"/><path fill="#6f756b" d="M105 185v-2l26-10 1 2z"/><path fill="#7cb3c9" d="M201 33l-7-16 32-14 7 16z"/><path fill="#2a271d" d="M109 103l7 10-1 1-8-10z"/><path fill="#c6a47b" d="M150 122l4-6 29 17-4 6z"/><path fill="#857054" d="M275 105l9 1-1 6-9-1z"/><path fill="#696953" d="M74 169l-10-7 1-1 10 7z"/><path fill="#202821" d="M91 102h-2l3-9 2 1z"/><path fill="#e2d9d5" d="M453 163l-108 37v-2l108-37z"/><path fill="#aba9a2" d="M43 27l-1 2-24-17 1-2z"/><path fill="#6a7571" d="M139 168l26-20 1 1-26 20z"/><path fill="#5b8f9c" d="M-30 160l62 24-1 1-61-23z"/><path fill="#92c2cd" d="M60 109l1-2 33 17v2z"/><path fill="#58514f" d="M323 214l-1-2 98-33v1z"/><path fill="#f0e8e5" d="M122 160l19-4 1 4-19 5z"/><path fill="#b7c7cc" d="M226 94l-92-67 1-1 92 67z"/><path fill="#3e3f34" d="M171 146l-38-23 1-2 37 24z"/><path fill="#9fb5be" d="M303 90l98-52 1 2-98 52z"/><path fill="#336d7b" d="M21 85l45 21-1 1-45-21z"/><path fill="#75b4cc" d="M287-11l-25 52-20-10 26-52z"/><path fill="#80776d" d="M297 131l63-30 1 1-64 30z"/><path fill="#ede5df" d="M439 66l-170 83v-1l170-83z"/><path fill="#53493a" d="M45 23l5-8 29 20-6 8z"/><path fill="#243032" d="M259 139l-11 15-9-7 11-15z"/><path fill="#443e28" d="M95 95l-1 1-65-39v-2z"/><path fill="#9aaeb1" d="M123 53l1-1 17 15-1 1z"/><path fill="#ece8e2" d="M146 39l-5 6L37-28l5-6z"/><path fill="#dad2cf" d="M407 170l-96 38-1-1 96-39z"/><path fill="#08181e" d="M16 74h7v10h-7z"/><path fill="#736047" d="M259 135l3-4 9 7-3 4z"/><path fill="#6b7a7b" d="M164 37l-1 1-16-14 1-1z"/><path fill="#297083" d="M126 126v1L47 82l1-1z"/><path fill="#f1efe9" d="M93 66l73 44-4 7-74-44z"/><path fill="#b19578" d="M123 173l-42-21 1-1 42 21z"/><path fill="#13626d" d="M211 118l-46-27 1-1 46 27z"/><path fill="#1b596b" d="M-7 171v-19H8l1 19z"/><path fill="#3f3821" d="M115 43l-1 1-21-14 1-1z"/><path fill="#37322c" d="M387 165l3 5-32 14-2-6z"/><path fill="#e2f3f1" d="M144 151l7 5-2 4-8-5z"/><path fill="#f5e9e3" d="M204 142l-2-9 11-2 2 9z"/><path fill="#78a4b5" d="M32-9l-1 20H20l1-21z"/><path fill="#252111" d="M275 141h-2l-2-5 1-1z"/><path fill="#d8ccc2" d="M54 207l-1 1-55-22 1-2z"/><path fill="#78b4cb" d="M309 63l8 12-34 23-7-12z"/><path fill="#16130a" d="M131 22l4-3 1 2-4 2z"/><path fill="#145969" d="M88 196l-11 2-1-8 11-2z"/><path fill="#076f87" d="M127 140l-31-21 4-7 31 21z"/><path fill="#6e6d72" d="M405 41l-38 21-1-1 38-22z"/><path fill="#85887c" d="M16 140l-16-7 2-3 15 8z"/><path fill="#6b767c" d="M75-11L41 23l-2-1 35-34z"/><path fill="#a39284" d="M324 105l3 5-49 24-3-5z"/><path fill="#517a87" d="M23 86l8-18h1l-8 19z"/><path fill="#6a6b5f" d="M45 155l-1 1-21-12v-2z"/><path fill="#5c5547" d="M125 55l-1 1-38-28 1-1z"/><path fill="#69665d" d="M55 214l97-54 7 12-97 54z"/><path fill="#287386" d="M141 133l27 16-1 1-27-16z"/><path fill="#9f8165" d="M255 126l9 6-2 4-9-7z"/><path fill="#111a0a" d="M100 182l4-7 1 1-4 7z"/><path fill="#277d92" d="M141 25l67 51-1 1-67-51z"/><path fill="#7eb7cd" d="M260 61l-5-20 36-9 6 19z"/><path fill="#5e696d" d="M169 88l1-1 85 58-1 1z"/><path fill="#af8c63" d="M62 11l3-3 28 20-3 3z"/><path fill="#dad5cd" d="M372 133l-1-2 27-12 1 1z"/><path fill="#bbb2a5" d="M301 107l1 1-30 18-1-2z"/><path fill="#4f4330" d="M317 149l-47 21-1-2 47-21z"/><path fill="#6cadc6" d="M197-2l-6 14-20-8 5-14z"/><path fill="#accfd7" d="M225 33l-2-3 22-11 2 2z"/><path fill="#b3a9a2" d="M103 138L-5 84l1-2 107 55z"/><path fill="#085065" d="M220 82h5v6h-5z"/><path fill="#403832" d="M420 160l-36 14-5-13 36-14z"/><path fill="#82b9ce" d="M227 12l-1-5 24-2v5z"/><path fill="#b9afa7" d="M97 62L29 19l1-1 67 42z"/><path fill="#e9dfd9" d="M237 193l19-29 39 26-18 29z"/><path fill="#4a4134" d="M360 100l-77 38-1-2 77-38z"/><path fill="#7f6742" d="M52 25l-1-1 39-47 1 1z"/><path fill="#81bad2" d="M315-4l-7 84-28-2 7-84z"/><path fill="#d0cecc" d="M199 127l-91-60v-1l92 59z"/><path fill="#5b5b53" d="M246 92l26 22-1 2-26-23z"/><path fill="#d3b089" d="M52 138l-2 7-19-7 2-7z"/><path fill="#4389a0" d="M62 191l25 16-1 1-25-16z"/><path fill="#067893" d="M203 123l-38-28 3-4 37 28z"/><path fill="#4a3d30" d="M313 186l12-4 4 11-11 5z"/><path fill="#478ea4" d="M94 45l10 3-2 6-11-4z"/><path fill="#eae3e1" d="M273 128l-1 1-24-11v-2z"/><path fill="#f4e8dd" d="M176 19l110 87-1 1-110-86z"/><path fill="#b1cbcd" d="M22 12l-1 1-32-23 1-2z"/><path fill="#3696b4" d="M140 82l3-6 12 6-2 6z"/><path fill="#a7cbda" d="M241 58l5-20 8 2-5 20z"/><path fill="#393227" d="M358 130l50-24 1 3-49 24z"/><path fill="#6f787a" d="M160 82l1-1 18 13-1 2z"/><path fill="#998776" d="M272 126l34-16 5 9-34 17z"/><path fill="#e5f3f7" d="M245 47l-6 6-1-1 6-7z"/><path fill="#919396" d="M175 159h3l-4 59h-3z"/><path fill="#aed0d7" d="M198 9h1l-4 12-2-1z"/><path fill="#34738a" d="M103 186l-23-10v-1l23 10z"/><path fill="#151c1b" d="M251 149l-1-3 17-3v3z"/><path fill="#ebf4f5" d="M250 68l5-6 9 9-5 6z"/><path fill="#2d2e1c" d="M134 126l4-10h1l-3 11z"/><path fill="#c7a889" d="M267 102l-65-51 1-1 65 51z"/><path fill="#554e3f" d="M294 108l1 2-10 5v-1z"/><path fill="#ece6e0" d="M31 104l108 54-3 6-107-55z"/><path fill="#649fb3" d="M78 212h-1l-4-25h2z"/><path fill="#9c928d" d="M309 96l2 4-18 9-2-4z"/><path fill="#4b443c" d="M403 81l-7 3-1-1 7-3z"/><path fill="#c4a277" d="M181 83l-1 2-57-39 1-1z"/><path fill="#eae2de" d="M-7 107l8-19 30 13-8 19z"/><path fill="#76746b" d="M129 168l14-3 1 6-13 3z"/><path fill="#1c1f27" d="M223 133l16 6-1 2-16-7z"/><path fill="#b0a7a0" d="M256 153l20-11 1 1-21 11z"/><path fill="#4d4a2a" d="M139 12l1-1 19 19-1 1z"/><path fill="#fcf5f0" d="M-22 172l121 50v1l-122-49z"/><path fill="#bb9f75" d="M53 146l15 8-1 1-15-7z"/><path fill="#3d3c2c" d="M101 37l1-2 46 30-1 1z"/><path fill="#a4c7cf" d="M210 37l-1 1-17-14 1-1z"/><path fill="#9b8466" d="M160 13l-1 2-20-17 1-2z"/><path fill="#e2d0c7" d="M61 113l58 30v1l-59-29z"/><path fill="#207b92" d="M216 131l-34-22 1-1 34 22z"/><path fill="#666854" d="M65 166l-15-9 2-2 15 8z"/><path fill="#6a6c70" d="M179 45l1-1 8 9-1 1z"/><path fill="#8e7555" d="M66 26l-9-8 3-5 10 8z"/><path fill="#575b57" d="M82 97L58 84l2-4 25 13z"/><path fill="#8d785e" d="M111-4l1-2 26 21-1 1z"/><path fill="#cba780" d="M176 76L78 11l1-1 97 65z"/><path fill="#907766" d="M294 183l-1 1-13-9 1-1z"/><path fill="#81b9d0" d="M210 73l2 4-1 1-2-4z"/><path fill="#86afc4" d="M-8 136l22 12-1 1-22-11z"/><path fill="#4f4234" d="M339 179l1 1-34 12-1-2z"/><path fill="#e9ded2" d="M290 187l27 15-5 9-28-14z"/><path fill="#868174" d="M303 160v-1l45-21 1 2z"/><path fill="#214854" d="M76 175h-2l2-5 1 1z"/><path fill="#f9f0e3" d="M148 96l1-1 64 42-1 1z"/><path fill="#546977" d="M140 28l-1-5 7-2 1 5z"/><path fill="#1d1f15" d="M70 79l1 1-5 6-1-1z"/><path fill="#9fbcca" d="M35 1l13-11 9 10-13 12z"/><path fill="#769ba4" d="M99 188l-38-17 1-1 38 17z"/><path fill="#907655" d="M90 165l28 14-1 1-27-14z"/><path fill="#b49975" d="M186 135l15 5-1 2-15-6z"/><path fill="#146174" d="M46 173l18 13-6 8-17-13z"/><path fill="#c7a586" d="M36 51L15 41l1-3 21 10z"/><path fill="#534d47" d="M378 66l1 2-59 30v-2z"/><path fill="#5b98ab" d="M7 2l5-10 14 7-5 10z"/><path fill="#776d69" d="M304 134l84-39v1l-83 39z"/><path fill="#f1e9e5" d="M236 67l1-1 50 37-1 2z"/><path fill="#463f2f" d="M272 109l-1 1-42-27 1-1z"/><path fill="#635e57" d="M167 176l6 40-44 7-7-40z"/><path fill="#b9def1" d="M228 6V4l8-2v2z"/><path fill="#81b5c7" d="M235 52l-4-2 4-7 4 2z"/><path fill="#78b6cd" d="M416 27l1 2-122 64-1-1z"/><path fill="#a9ada8" d="M21 87l-1 1-21-11 1-1z"/><path fill="#534a3a" d="M289 162l47-21 1 2-47 21z"/><path fill="#886b50" d="M-12 44l1-2 40 16v1z"/><path fill="#3a3521" d="M177 141l-6 2v-1l6-2z"/><path fill="#c3b9b2" d="M147 160l-49-24v-1l50 24z"/><path fill="#31616b" d="M194 107l1-2 35 24-1 1z"/><path fill="#ecd6c1" d="M61-12l1-1 38 30-1 1z"/><path fill="#6d8f9d" d="M60 87l-1 1-30-20 1-1z"/><path fill="#87a6b9" d="M93 56v-3l6-1v3z"/><path fill="#6a706a" d="M230 85l-1 1-11-10 1-1z"/><path fill="#e8ffff" d="M74 116l-1 1-30-16 1-1z"/><path fill="#bedce6" d="M230 20l6 8-5 3-6-7z"/><path fill="#b6dae4" d="M62 198l5-2v2l-4 1z"/><path fill="#ecdfd2" d="M46 104l-1 1-24-11 1-1z"/><path fill="#c5b6a7" d="M263 166l101 65-1 2-101-66z"/><path fill="#5d5e5f" d="M140 130l-26-19v-2l27 19z"/><path fill="#8b8284" d="M352 80l-1-1 27-17v2z"/><path fill="#9e8e79" d="M268 96l-1 2-86-68 1-1z"/></svg>