<svg xmlns="http://www.w3.org/2000/svg" viewBox="0 0 400 200"><path fill="#909b99" d="M0 0h400v200H0z"/><path fill="#002a30" d="M166 163L-25 62l14-27 191 102z"/><path fill="#fff" d="M131 176L-5 107 8 82l136 69z"/><path fill="#95e4ff" d="M164 15l79-105L378 12l-79 105z"/><path fill="#03323b" d="M169 242l-195-83 15-36 195 83z"/><path fill="#fffff9" d="M205 154L-64-21l11-16 268 175z"/><path fill="#160000" d="M309 187l133-57 7 16-134 57z"/><path fill="#fff" d="M307 245l-88-56 22-35 89 55z"/><path fill="#002f3c" d="M85 26l182 118-10 16L75 42z"/><path fill="#806256" d="M424 110l-146 59-22-55 146-59z"/><path fill="#fff" d="M104 20l6-8 162 114-5 7zM74 203l-11 29-89-36 12-29z"/><path fill="#5b4436" d="M183 187l-56 28-18-35 57-28z"/><path fill="#70bee4" d="M446 21L286 92 237-19l160-71z"/><path fill="#0b201b" d="M97-17l172 125-5 8L92-9z"/><path fill="#4e3014" d="M105 38L94 55 41 23 51 6z"/><path fill="#fffded" d="M153-8L289 99l-6 7L147 0z"/><path fill="#fffff6" d="M132 27l-9 11L69-7l9-11z"/><path fill="#fffffa" d="M450 154l3 9-173 60-3-9z"/><path fill="#d5985c" d="M211 151l-5 8L84 82l5-8z"/><path fill="#fffbf4" d="M-42 66l181 92-8 15-181-92z"/><path fill="#190d00" d="M437 91l2 4-168 78-2-4z"/><path fill="#fffaf3" d="M259 161l-6 11L92 72l7-11z"/><path fill="#727077" d="M195 147l36-2 4 59-36 3z"/><path fill="#fffff8" d="M271 179l205-96 1 3-205 95z"/><path fill="#c4b5ab" d="M263 170l-8-17 92-43 9 17z"/><path fill="#130000" d="M-21 48l50 19-7 18-49-19z"/><path fill="#0882a7" d="M128 125l-7 14-98-56 8-14z"/><path fill="#130a00" d="M473 44L251 153l-1-2L472 43z"/><path fill="#f8ae65" d="M121 181L20 132l4-8 101 49z"/><path fill="#fff7f0" d="M228 170v-2l177-86v1z"/><path fill="#b48454" d="M190 82l-10 14L52 7 62-7z"/><path fill="#0097bf" d="M174 105L86 50l4-6 88 54z"/><path fill="#d59458" d="M87 87L-26 29l6-11L93 76z"/><path fill="#896e65" d="M460 98l9 20-171 76-9-20z"/><path fill="#ece9ec" d="M243 43l41 28-16 22-41-28z"/><path fill="#237896" d="M92 180l-11 24-90-42 11-24z"/><path fill="#fff6ee" d="M109 10l118 82-6 9-118-82z"/><path fill="#fff3e6" d="M228 209l18-43 56 23-18 44z"/><path fill="#f7ece7" d="M4 1l115 72-9 15L-5 16z"/><path fill="#4c2500" d="M14 137l2-6 91 46-3 6z"/><path fill="#8a999c" d="M75 167l-5 10-84-39 5-10z"/><path fill="#311909" d="M268 138l-4 13-37-12 4-13z"/><path fill="#101002" d="M286 115l-15 8-6-12 16-7z"/><path fill="#d89e6c" d="M63-26l110 45-3 8L60-17z"/><path fill="#261e0b" d="M101 33l95 66-1 1-95-66z"/><path fill="#1a7d95" d="M261 116L49-38l1-1 212 154z"/><path fill="#fff" d="M-5 173l67 25-5 12-67-26z"/><path fill="#402624" d="M306 220l-1-3 112-39 1 3z"/><path fill="#0082a7" d="M171 98l5-6 52 40-5 6z"/><path fill="#dca777" d="M141 1l131 96-5 6L136 8z"/><path fill="#007696" d="M91 105l70 40-6 11-71-40z"/><path fill="#6c6762" d="M127 234l-25-50 69-35 26 50z"/><path fill="#8bb6cb" d="M16-27L60 1 42 29-2 1z"/><path fill="#86c1da" d="M461 8L329 78 284-6l133-70z"/><path fill="#3e1e00" d="M47 71l1-2 128 71v2z"/><path fill="#daa46e" d="M150 63l5-7 109 77-5 6z"/><path fill="#776668" d="M303 94l138-73 4 8-138 73z"/><path fill="#fff" d="M-2 77l100 53-1 1-99-53z"/><path fill="#094e62" d="M67 177l-7 17-82-35 7-17z"/><path fill="#70543a" d="M-4 44l67 28-5 10-66-28z"/><path fill="#372c1c" d="M314 188l109-47 6 13-110 47z"/><path fill="#63452d" d="M109 11l4-9 36 17-4 8z"/><path fill="#87898f" d="M169 221l4-75 56 3-4 75z"/><path fill="#5aa3c4" d="M221 23L160 3l8-24 61 20z"/><path fill="#fff8eb" d="M317 226l-1-3 137-50 1 3z"/><path fill="#afa094" d="M278 138l-6-11 74-41 6 11z"/><path fill="#da9855" d="M-7 120l6-11 29 16-6 11z"/><path fill="#fcf8f3" d="M145 149l6 6-14 13-5-6z"/><path fill="#fff" d="M174 145v-3l28 2v3z"/><path fill="#fffdf2" d="M273 128l-3 4-38-27 3-4z"/><path fill="#d9af80" d="M190 141l-2 4L49 64l2-4z"/><path fill="#dbaf83" d="M80 9l74 49-4 6-75-48z"/><path fill="#9fc0d2" d="M221 71l-4 13-11-3 4-13z"/><path fill="#ffeee4" d="M138-12l123 93-3 5L134-7z"/><path fill="#a78a67" d="M197 144L-115-44l1-1 312 187z"/><path fill="#fff1e8" d="M240 148l7 67-11 1-7-67z"/><path fill="#cee4ef" d="M210 39l-4-7 42-26 4 7z"/><path fill="#a59990" d="M-19-10l1-2 157 99v1z"/><path fill="#7ab3cb" d="M284-28l72 57-44 57-73-57z"/><path fill="#fbede5" d="M58-12l5-8 62 43-6 8z"/><path fill="#4b3e29" d="M171 138l-4 6L55 80l4-7z"/><path fill="#cfcbc7" d="M320 98l126-62 1 2-126 62z"/><path fill="#77afc5" d="M289 101l-21-16 17-22 21 16z"/><path fill="#553613" d="M174 84v-1l88 59v2z"/><path fill="#676057" d="M154 158l20 37-86 46-20-38z"/><path fill="#6f5f55" d="M388 130v1l-105 47-1-1z"/><path fill="#a78969" d="M1 114l1-2 123 60v2z"/><path fill="#534630" d="M241 86l-3 3-93-67 3-4z"/><path fill="#778b99" d="M29 65l59 33-3 4-58-33z"/><path fill="#fff" d="M95 129l1-1 54 29-1 1z"/><path fill="#a08579" d="M28 202l-49-23 1-1 49 23z"/><path fill="#43392b" d="M93 44l-6 9-41-29 6-9z"/><path fill="#a3a09a" d="M413 142l1 2-100 40-1-1z"/><path fill="#fde9de" d="M272 177l79-38v1l-78 38z"/><path fill="#eae9e8" d="M95 82L81 67l16-16 14 15z"/><path fill="#a3dbfa" d="M140 65l-1 2-15-9 1-1z"/><path fill="#81746c" d="M369 105l-123 59v-1l122-60z"/><path fill="#201c09" d="M18 69l16-15 3 3-16 16z"/><path fill="#434532" d="M17 136l70 32-3 7-70-32z"/><path fill="#54412e" d="M305 196l-1-11 18-1v11z"/><path fill="#bad4e2" d="M43-2l9 7-15 18-9-7z"/><path fill="#3c5b6a" d="M125 53l-4 7-32-21 4-6z"/><path fill="#3e5055" d="M143 63l67 49-4 5-67-49z"/><path fill="#7e93a0" d="M168 146l-1 2-84-49 1-1z"/><path fill="#a9c7d0" d="M144 88l80 50-1 1-80-50z"/><path fill="#443f3d" d="M422 43v2l-114 60-1-1z"/><path fill="#6e9eb2" d="M-14 131l116 54-2 4-116-54z"/><path fill="#29281b" d="M139 28l-8-3 7-14 7 3z"/><path fill="#987c61" d="M308 119l-3 5-39-19 3-6z"/><path fill="#110d00" d="M-12 64l3-6 32 20-3 6z"/><path fill="#a0a7a5" d="M17 136l-3 9-14-5 4-8z"/><path fill="#f8f3ef" d="M203 131l-5 8L43 42l5-8z"/><path fill="#3f2300" d="M22 138l-30-13v-2l30 13z"/><path fill="#b89367" d="M110 174l-1 2-117-55v-1z"/><path fill="#fff7e8" d="M264 89l1-1 22 18-1 1z"/><path fill="#141316" d="M222 135l1-2 31 18v2z"/><path fill="#213031" d="M259 114l8-9 10 8-8 9z"/><path fill="#fffbf6" d="M47 194l-4 8-44-19 3-9z"/><path fill="#a3948f" d="M382 175v1l-68 29-1-1z"/><path fill="#0a7c95" d="M217 124l-4 5-65-42 3-5z"/><path fill="#453c2b" d="M437 94l2 4-162 72-2-4z"/><path fill="#e3dcd6" d="M262 153l-1-1 173-85v2z"/><path fill="#908b8d" d="M430 93l-85 40-5-12 85-39z"/><path fill="#fae8e3" d="M320 203l60-22 2 5-61 22z"/><path fill="#ded5cf" d="M89-11l1-2 38 42-1 1z"/><path fill="#70aec8" d="M190-4l33-10 10 35-32 10z"/><path fill="#9c7859" d="M27 61L-3 47l3-6 30 14z"/><path fill="#1c1b15" d="M277 117l16-9 1 1-17 10z"/><path fill="#434432" d="M34 60l42 21-2 4-42-21z"/><path fill="#efded3" d="M303 203l-108-82 1-1 108 82z"/><path fill="#a2b5c0" d="M206 66l1-1 16 14v2z"/><path fill="#848788" d="M233 151l-4 84-48-3 4-84z"/><path fill="#86c0d8" d="M334 76l-34-44 80-63 34 45z"/><path fill="#e1eff4" d="M257 76l-4-11 23-8 4 10z"/><path fill="#6f7881" d="M82-17L46 23l-5-4 37-41z"/><path fill="#343321" d="M108 185l-39-16 3-9 39 16z"/><path fill="#fef6ee" d="M185 73l3-5 57 42-4 5z"/><path fill="#9d806d" d="M269 171l-14-10 6-9 14 10z"/><path fill="#418ea3" d="M23 85l69 37-1 1-69-37z"/><path fill="#dbd0c7" d="M317 99l1 2-37 20-1-1z"/><path fill="#eeeae7" d="M-5 7l48 22-5 10-48-23z"/><path fill="#16394b" d="M190 57l81 61v2l-82-62z"/><path fill="#e6d7cc" d="M272 145v1l-39 20-1-1z"/><path fill="#38798c" d="M80 200v1l-84-30 1-2z"/><path fill="#252620" d="M279 140l-35 12-2-6 35-12z"/><path fill="#8b8e92" d="M174 145l30 1-4 74-30-2z"/><path fill="#80797e" d="M365 95l-6-11 59-34 6 11z"/><path fill="#5b5a50" d="M147 213l4-57 22 1-4 58z"/><path fill="#272018" d="M86 39l13-9 1 2-13 8z"/><path fill="#3d352c" d="M267 144L512 25l1 1-246 120z"/><path fill="#e1e6eb" d="M187 11l9 2-4 15-8-2z"/><path fill="#5c90a4" d="M91 55l5-14 15 6-6 14z"/><path fill="#ead9cb" d="M310 196l-3 4-62-39 2-4z"/><path fill="#f0e5df" d="M347 143l59-28 2 3-60 28z"/><path fill="#15758e" d="M163 149l-5 9-51-27 5-10z"/><path fill="#095972" d="M140 27l2-3 57 42-2 2z"/><path fill="#766e6c" d="M429 138l-51 21-8-20 50-21z"/><path fill="#096177" d="M46 82l41 23-6 11-41-23z"/><path fill="#f8ebe3" d="M78 144l-1 2-122-57 1-2z"/><path fill="#8faab6" d="M141 70l-17-14 2-3 17 15z"/><path fill="#958c84" d="M364 93l-73 39-1-1 74-39z"/><path fill="#9c9795" d="M357 150l6 14-43 19-6-14z"/><path fill="#b2946f" d="M147 5l-9 11-24-20 9-11z"/><path fill="#3f90aa" d="M28 2l-6 8L8 0l6-8z"/><path fill="#554d3e" d="M248 137v1l-73-49 1-1z"/><path fill="#006e87" d="M134 69l-2 4-30-19 2-4z"/><path fill="#424633" d="M141 11l35 29-3 4-35-29z"/><path fill="#997952" d="M55 18l8-11 15 11-8 11z"/><path fill="#94867c" d="M343 81l-50 29-3-5 50-30z"/><path fill="#836b53" d="M248 131l2-5 20 10-3 6z"/><path fill="#cdac87" d="M117 103L18 46l4-7 99 57z"/><path fill="#c9dae6" d="M237 54l-13 3-3-16 13-2z"/><path fill="#a99275" d="M240 73l-1 1-124-92 1-2z"/><path fill="#bfa79c" d="M108 141L-16 78l1-2 123 64z"/><path fill="#79b5cf" d="M298 33l-38 30-22-29 38-29z"/><path fill="#c6a481" d="M229 114l-3 4-60-43 3-3z"/><path fill="#867f80" d="M325 124l25-13 5 10-25 13z"/><path fill="#cbae8f" d="M73-52L248 90l-1 1L72-51z"/><path fill="#68635d" d="M310 107l68-36 1 2-68 36z"/><path fill="#f1e8e1" d="M199 75l73 53-4 5-73-53z"/><path fill="#bfc5c8" d="M259 81L170 6l1-1 89 75z"/><path fill="#675c5a" d="M411 182l-59 26-2-4 59-26z"/><path fill="#7d6550" d="M281 173l28 20-1 1-28-19z"/><path fill="#227993" d="M95 182l-1 11-40-1v-11z"/><path fill="#fefcff" d="M173 145v-1h50v1z"/><path fill="#eefbfc" d="M248 21l-11-1 1-11 11 1z"/><path fill="#7ac2de" d="M76 192l1 1-4 10-2-1z"/><path fill="#e3fbfd" d="M92 126l-1 1-41-23 1-1z"/><path fill="#21222b" d="M83 41l2-2 9 12-3 2z"/><path fill="#9e979a" d="M122-2l-16 12-5-6 16-12z"/><path fill="#fefbf3" d="M131 147l-1 2L-1 79l1-1z"/><path fill="#707a80" d="M242 137l1 2-8 6-1-1z"/><path fill="#dab489" d="M116 176l-59-27v-2l60 28z"/><path fill="#ccc7c4" d="M152 97L59 37v-2l93 61z"/><path fill="#5c605d" d="M14 51l115 70-1 1L13 53z"/><path fill="#3e3a28" d="M174 139l-3 6-38-19 4-7z"/><path fill="#b6d7e4" d="M234 52l19-15 8 9-19 16z"/><path fill="#987552" d="M0 21l31 21-1 1-31-20z"/><path fill="#483919" d="M115 105l-1 1-87-50 1-1z"/><path fill="#53412c" d="M221 75l1-2 46 35-1 1z"/><path fill="#eaddda" d="M340 203l-3-6 69-26 2 5z"/><path fill="#fffefc" d="M20 188l2-4 72 26-2 4z"/><path fill="#71675e" d="M114 176l13 17-39 30-13-18z"/><path fill="#8c7d76" d="M287 105l18-10 4 8-18 10z"/><path fill="#bab3aa" d="M15 8l69 43-1 2-69-43z"/><path fill="#3092a6" d="M219 83l-74-50 1-2 73 50z"/><path fill="#f4eeec" d="M46 121l85 41-4 7-84-41z"/><path fill="#cec3bb" d="M68 214l-1 1-70-30v-1z"/><path fill="#f8f1f1" d="M175 21L145-4l3-3 30 25z"/><path fill="#f5ebe0" d="M183 72l-1 1-60-40 1-1z"/><path fill="#becbcc" d="M192 71l1-2 54 37-1 1z"/><path fill="#ddcfc4" d="M268 183l-2-4 43-23 2 4z"/><path fill="#f8eee4" d="M80 67l1-1 125 75-1 1z"/><path fill="#f1e4de" d="M237 165l33 7-5 27-34-6z"/><path fill="#f7ebe2" d="M251 75l36 30-2 2-36-29z"/><path fill="#c4bcb2" d="M137 32L95 0l1-2 42 32z"/><path fill="#309fbe" d="M155 92l-14-13 3-3 14 12z"/><path fill="#2787a1" d="M233 93l30 21-1 1-29-21z"/><path fill="#a7c9d8" d="M286 73l1 6-24 6-2-6z"/><path fill="#c7a77f" d="M182 129l-5 8-60-33 4-8z"/><path fill="#78b7ce" d="M369 55l-83 44-6-11 83-44z"/><path fill="#80796b" d="M296 162l37-17 1 1-37 17z"/><path fill="#5a3b2e" d="M395 196l9 2-1 4-9-1z"/><path fill="#f1f0ee" d="M210 84v1L63-14l1-1z"/><path fill="#3e4133" d="M125 53l-1 2-29-22 2-2z"/><path fill="#856948" d="M77 23l13 4-3 11-13-5z"/><path fill="#162b2b" d="M45 169h-2l7-21 2 1z"/><path fill="#9abdd0" d="M-8 138l18 9-1 1-18-9z"/><path fill="#1f3236" d="M21 134h1l-10 21h-2z"/><path fill="#8c7d7a" d="M400 167l1 1-43 20-1-1z"/><path fill="#e0dad5" d="M347 88v-1l98-55 1 2z"/><path fill="#1c2f3b" d="M135 18l70 52-1 1-70-52z"/><path fill="#cab9ae" d="M147 161l-58-31v-2l58 31z"/><path fill="#f1e9e2" d="M277 177v-1l82-39v2z"/><path fill="#c0b8aa" d="M296 113l1 2-26 11-1-2z"/><path fill="#808583" d="M219 148l9-1 8 76-9 1z"/><path fill="#719fb1" d="M-3 142l1-3 60 27-1 3z"/><path fill="#998573" d="M309 119l-35 15-3-7 34-15z"/><path fill="#71b0c5" d="M225 13h3l-7 32h-3z"/><path fill="#5c4a34" d="M275 164l-7 6-1-1 8-6z"/><path fill="#a18466" d="M-5 22l62 34-1 2-61-34z"/><path fill="#225d6d" d="M91 41l1-1 103 67-1 1z"/><path fill="#22221a" d="M268 147l-26-16 1-1 26 15z"/><path fill="#cbc3be" d="M306 107v-1l24-12v2z"/><path fill="#594a31" d="M-2 124l1-1 26 14-1 1z"/><path fill="#3f7589" d="M60 166l41 19v1l-41-19z"/><path fill="#53534f" d="M168 183l5-37h1l-4 38z"/><path fill="#cbd0d6" d="M186 144l20-4v2l-20 4z"/><path fill="#71726b" d="M180 139l1 1-50 36-1-2z"/><path fill="#111509" d="M32 62L18 77l-2-3 14-14z"/><path fill="#cfb595" d="M109 27l16 14-4 5-16-14z"/><path fill="#a6998f" d="M315 129l2 6-55 25-3-5z"/><path fill="#71b2ca" d="M281 17L237 6l5-21 44 10z"/><path fill="#8c8587" d="M317 104l77-36 3 8-77 35z"/><path fill="#ebdfd6" d="M316 203l-7 10-80-52 7-10z"/><path fill="#73acc2" d="M172-5l13 9-6 9-13-9z"/><path fill="#4e442e" d="M171 82l1-1 59 41-1 2z"/><path fill="#625c54" d="M288 113l37-20 1 1-37 21z"/><path fill="#5d7476" d="M98 39l-15 9-1-1 15-9z"/><path fill="#dfd8d4" d="M392 176l-63 26v-2l62-25z"/><path fill="#71acba" d="M268 80l23 19-1 1-23-19z"/><path fill="#1a6d81" d="M129 142l-56-31 6-11 56 31z"/><path fill="#453a2e" d="M302 153l131-59 1 2-131 58z"/><path fill="#4c3b25" d="M4 54l17 8-5 11-17-8z"/><path fill="#05171d" d="M234 131l5 7-6 5-5-8z"/><path fill="#6b919c" d="M162 146L35 73l1-2 127 74z"/><path fill="#abc8d1" d="M112 65l35 26-1 1-35-25z"/><path fill="#fff" d="M104-1l1 1-4 3-1-1z"/><path fill="#a1c1d0" d="M59-3L42 15 30 5l17-19z"/><path fill="#87705a" d="M313 168l-29 13-2-4 29-13z"/><path fill="#f6e0d2" d="M18 207l-33-5 2-11 32 5z"/><path fill="#c7a98b" d="M68-43L250 84l-1 1L67-42z"/><path fill="#00738e" d="M160 94l-1 2-52-35 1-2z"/><path fill="#90c1d2" d="M279 80l-5-24 17-4 5 25z"/><path fill="#e1e5e6" d="M212 47l-6-3 9-17 6 3z"/><path fill="#d5ac7e" d="M64 151L8 123l2-4 56 28z"/><path fill="#abbcc4" d="M372 52l1 2-62 36-1-2z"/><path fill="#454232" d="M201 63l-36-32 1-1 36 31z"/><path fill="#635c57" d="M377 75l-1-1 36-20 1 2z"/><path fill="#999189" d="M320 86l4 7-30 16-4-7z"/><path fill="#5c777d" d="M140 17l1-1 2 13h-1z"/><path fill="#56636a" d="M30 62l80 51v1L29 64z"/><path fill="#577684" d="M114 112l1-1 39 28-1 2z"/><path fill="#3a342e" d="M395 156l4 11-42 16-4-10z"/><path fill="#e8eeef" d="M243 69l13-9 9 13-13 9z"/><path fill="#978d82" d="M265 167l99-46 1 1-99 46z"/><path fill="#2e2a22" d="M116 104l3 5-8 4-3-5z"/><path fill="#827a78" d="M313 97l-3-6 44-23 3 5z"/><path fill="#000e18" d="M276 115v5l-6 1-1-5z"/><path fill="#676e74" d="M41 23l-1-1 30-34 1 1z"/><path fill="#b89e7d" d="M167 122l31 18-1 2-31-18z"/><path fill="#a18c6e" d="M36 45l133 79-1 2L36 46z"/><path fill="#aeb7b3" d="M209 65l9 8-1 1-9-8z"/><path fill="#907f6e" d="M312 172v14h-19v-14z"/><path fill="#a69178" d="M132 42l-1 1-24-18 1-1z"/><path fill="#19768d" d="M163 154l-40-21 3-7 40 21z"/><path fill="#b79271" d="M63 15l7-14 15 7-6 14z"/><path fill="#755c3a" d="M55 15L80-9l1 2-25 24z"/><path fill="#65625a" d="M168 190l-13 9-21-31 13-9z"/><path fill="#d1c7c2" d="M134 82l118 77v1L134 84z"/><path fill="#1f6174" d="M63 192l-40-17 6-15 40 17z"/><path fill="#34312c" d="M141 71l2-9h2l-2 9z"/><path fill="#cbb89f" d="M125 173l-11 5-3-6 11-5z"/><path fill="#1e5362" d="M6 149l12 3-6 23-12-4z"/><path fill="#bbc0bb" d="M270 125l-27-19 1-1 27 19z"/><path fill="#495c5f" d="M216 75l14 6v2l-15-6z"/><path fill="#8c9194" d="M188 197h-16l1-39h16z"/><path fill="#6b6469" d="M341 74l88-48v1l-87 49z"/><path fill="#5a696f" d="M206 111l-1 1-56-37 1-2z"/><path fill="#4c3c2c" d="M313 197l-9-7 4-4 8 7z"/><path fill="#1a1a15" d="M-14 61l34 20-2 3-33-20z"/><path fill="#74573c" d="M118 7l15 11-2 2-15-11z"/><path fill="#bf9e79" d="M254 132l-40-24 3-4 39 24z"/><path fill="#7c7473" d="M333 123l-1-2 53-27v2z"/><path fill="#b28d64" d="M266 104l3-5 10 5-3 5z"/><path fill="#1b2620" d="M68 80l-2 8-1-1 2-7z"/><path fill="#f4f3f9" d="M-2 4h2l3 18-1 1z"/><path fill="#4e432a" d="M142 64l2-2 22 16-2 2z"/><path fill="#a99991" d="M-4 189l1-2 61 23v1z"/><path fill="#eddad0" d="M69 117v1L-2 82v-2z"/><path fill="#868a88" d="M41 22L72-6l1 1-31 28z"/><path fill="#99836a" d="M197 85l67 49-1 1-66-49z"/><path fill="#75b4ca" d="M259 13l28 35-16 13-28-36z"/><path fill="#89afb7" d="M67 112L9 82v-1l59 29z"/><path fill="#f1ece6" d="M140 92l61 38-5 8-61-38z"/><path fill="#86898b" d="M233 220l-58 2-3-75 58-2z"/><path fill="#c9ab87" d="M161 72l3-4 36 21-3 4z"/><path fill="#6f7174" d="M116 55L94 39l1-2 22 17z"/><path fill="#52432a" d="M302 154l1 4-31 14-2-4z"/><path fill="#d9d5d2" d="M287 102l-64-52 1-1 64 52z"/><path fill="#f5f7fb" d="M-2 185l3-12h3l-3 12z"/><path fill="#0c0500" d="M256 149l-6 5-1-1 6-5z"/><path fill="#f5eae5" d="M155 7l3-4 76 57-3 4z"/><path fill="#92aab9" d="M125 59l1-1 13 9-1 2z"/><path fill="#cdbfb1" d="M345 220l-89-56 1-1 89 56z"/><path fill="#646c6e" d="M184 54l-42-33 1-1 42 33z"/><path fill="#634f40" d="M124-5l-10 16-2-1 10-16z"/><path fill="#f2f4ea" d="M269 135l-1-1 2-4h1z"/><path fill="#817265" d="M272 129l-1-2 46-23 1 1z"/><path fill="#030f11" d="M254 152l-3-4 9-8 3 4z"/><path fill="#097da0" d="M173 101v-1l47 29-1 1z"/><path fill="#007188" d="M139 71l1 3-12 3-1-3z"/><path fill="#87bacd" d="M219 82v2l-12-9 1-1z"/><path fill="#515f5f" d="M219 119l30 22-1 1-30-22z"/><path fill="#878389" d="M389 57l1 1-40 21-1-1z"/><path fill="#7e7b73" d="M278 131l-1 6-6-1v-6z"/><path fill="#6d553b" d="M-9 51l2-5 33 14-2 5z"/><path fill="#b5aa9f" d="M235 148l1-1 18 10-1 1z"/><path fill="#92a8b3" d="M95 56l-5-1 1-6h4z"/><path fill="#7db0c5" d="M30 16L22 6l9-8 8 10z"/><path fill="#978f8b" d="M398 171l-94 36v-1l93-36z"/><path fill="#ddd6d1" d="M362 78l1 1-27 14v-2z"/><path fill="#d9d4d0" d="M419 73v1l-42 23-1-1z"/><path fill="#24404a" d="M2 3h-3l1-5 3 1z"/><path fill="#2e2d18" d="M143 16v1l-12 6-1-1z"/><path fill="#f4f5f1" d="M44 103l1-1 106 56-1 1z"/><path fill="#99becc" d="M207 32l-1 2-17-12 1-1z"/><path fill="#6b6a61" d="M121 190l-5-8 40-27 5 8z"/><path fill="#403e2d" d="M204 107l1-2 49 34-1 1z"/><path fill="#9c826a" d="M-6 35l36 15-3 7-36-15z"/><path fill="#18211e" d="M90 101h-1l1-7 1 1z"/><path fill="#eae0d8" d="M231 150l81 50-1 2-81-51z"/><path fill="#efe1d8" d="M144 155l-1 1-79-40 1-2z"/><path fill="#66a3b8" d="M74 188l5 23h-2l-4-23z"/><path fill="#f1efe8" d="M184 120l38 21-1 3-39-21z"/><path fill="#c1dce7" d="M281 57l1 1-24 9v-1z"/><path fill="#988572" d="M251 157l10-3 2 6-10 3z"/><path fill="#87c0d7" d="M455 47L307 21l12-66 147 26z"/><path fill="#686449" d="M54 156l1-2 21 14-1 1z"/><path fill="#c0a182" d="M60 63l-4 6-58-36 4-7z"/><path fill="#98908d" d="M311 134l59-29 5 10-59 28z"/><path fill="#f0eeea" d="M202 86L18-43v-1L203 85z"/><path fill="#352f27" d="M419 104l-41 21-1-3 40-20z"/><path fill="#8e7147" d="M64 74v-1l43 26-1 2z"/><path fill="#5b8e9e" d="M73 113v-1l25 14-1 1z"/><path fill="#777069" d="M384 70l1 1-42 20-1-1z"/><path fill="#3a6e7b" d="M52 84v-2l95 55-1 1z"/><path fill="#273238" d="M252 151l-3 2-9-11 3-2z"/><path fill="#fae7de" d="M364 209l-1-2 47-17 1 1z"/><path fill="#473a22" d="M177 139l-8 6-1-1 9-7z"/><path fill="#a9d1dd" d="M226 21l19-5 3 11-20 5z"/><path fill="#0e1518" d="M274 114l7 3v2l-8-3z"/><path fill="#2d2d27" d="M93 50l-2 3-26-17 2-3z"/><path fill="#0c1311" d="M9 80l1-9 14 1-1 9z"/><path fill="#3a2c11" d="M93 177v-2l19 3v2z"/><path fill="#7b7963" d="M-1 128l14 6-1 2-14-6z"/><path fill="#3e413b" d="M168 217l1-36h2l-1 36z"/><path fill="#f2ebe6" d="M246 74l1-1 40 30-1 1z"/><path fill="#978f87" d="M317 180l1 1-18 9-1-1z"/><path fill="#3c2d10" d="M0 125l55 29v1l-56-29z"/><path fill="#68919e" d="M65 171l1-4 8 1-1 5z"/><path fill="#696e72" d="M178 47l1-1 10 5-1 2z"/><path fill="#f1e9e5" d="M70 132l2-4 69 32-2 4z"/><path fill="#1a586a" d="M76 177l1 1-7 18h-2z"/><path fill="#11758e" d="M223 84l26 20-1 1-26-20z"/><path fill="#cca782" d="M100 163l12 12-1 1-12-12z"/><path fill="#bbb2af" d="M354 146l-1-1 26-14 1 1z"/><path fill="#c9b59c" d="M130 38l21 15-1 1-21-14z"/><path fill="#a88859" d="M246 91l1-1 21 14-1 1z"/><path fill="#7fb9d0" d="M333 77l-36 14-22-53 36-15z"/><path fill="#71b3cb" d="M236 43l48-69 4 3-49 69z"/><path fill="#136378" d="M91 191l-13 6-1-2 12-6z"/><path fill="#a5c3ca" d="M147 34l43 33-1 1-43-33z"/><path fill="#b79a7a" d="M123 173l-73-37v-2l74 38z"/><path fill="#f6e7d8" d="M224 99l36 27-1 1-36-26z"/><path fill="#d9d2cc" d="M367 98l1 1-50 27v-2z"/><path fill="#e8e7e1" d="M120 138v7h-1v-7z"/><path fill="#1a1413" d="M87 46l4 6-1 1-4-7z"/><path fill="#ded4c8" d="M300 110l-29 17-1-1 30-17z"/><path fill="#666867" d="M195 60l13 8-1 2-13-8z"/><path fill="#b2a99f" d="M1 85l1-1 36 20v1z"/><path fill="#17190a" d="M101 183l-2-1 5-10 1 1z"/><path fill="#c3ac93" d="M70 65L15 32l1-2 55 34z"/><path fill="#95c3d1" d="M111 134l33 17v1l-34-17z"/><path fill="#66605d" d="M429 112l1 2-61 28-1-1z"/><path fill="#ede5e0" d="M236 207l-5-48 19-2 4 48z"/><path fill="#ede6dc" d="M3 22l2-3 75 45-2 3z"/><path fill="#534940" d="M68 35l-1 1-30-16v-1z"/><path fill="#b0a196" d="M296 151l-26 14-5-8 26-14z"/><path fill="#e9dccb" d="M77-1l52 37-1 1L76 0z"/><path fill="#a58462" d="M67 14l1-1 32 18v1z"/><path fill="#c9a579" d="M186 141l-68-45 1-1 68 44z"/><path fill="#38899d" d="M108 62l-1 1-14-21 2-1z"/><path fill="#897975" d="M371 192v1l-31 14-1-1z"/><path fill="#e8f2f4" d="M59 203l-2 1-5-12h2z"/><path fill="#2c8dad" d="M92 191l-1 1-16-9 1-2z"/><path fill="#6d6f66" d="M107 183l37-17 1 3-37 17z"/><path fill="#0f6a80" d="M138 133l-4 9-42-21 4-8z"/><path fill="#ece6e1" d="M76 145l-82-38 7-16 82 38z"/><path fill="#8f7b59" d="M141 9l1 1-9 7-1-1z"/><path fill="#25565f" d="M174 94l1-1 59 39-1 2z"/><path fill="#f1ece8" d="M164 111l-60-39 2-4 61 40z"/><path fill="#5b524e" d="M290 110h-2l-1-9h1z"/><path fill="#c19f76" d="M32 137L0 124l4-9 32 13z"/><path fill="#151f13" d="M79 163h1l-4 10-2-1z"/><path fill="#218197" d="M83 103l4 2-6 13-4-2z"/><path fill="#676759" d="M46 156l-23-10 1-3 23 10z"/><path fill="#dbe9ef" d="M233 64l9-18 2 1-10 18z"/><path fill="#5d6365" d="M103 42l1-1 20 16-1 1z"/><path fill="#7b7370" d="M306 132l145-67v1l-144 68z"/><path fill="#484f46" d="M74 86l1-1 40 28-1 1z"/><path fill="#76afc5" d="M216 44l13-16 1 1-13 16z"/><path fill="#2e7a87" d="M133 79l-1 1-19-14 1-1z"/><path fill="#9a8d75" d="M266 95l17 11-1 1-17-11z"/><path fill="#413b24" d="M162 140l-13-12 3-3 13 11z"/><path fill="#393a27" d="M83 89l1-1 25 15-1 1z"/><path fill="#d3e3e7" d="M197 22l-9 5-5-10 8-4z"/><path fill="#e8e2de" d="M17 22l3-6 65 42-4 5z"/><path fill="#258091" d="M143 29l36 24-1 1-36-24z"/><path fill="#cfcdc8" d="M206 142l-26 3v-1l26-3z"/><path fill="#aa967d" d="M198 90l-96-67 1-2 96 67z"/><path fill="#3b7887" d="M193 61h1l6 11h-2z"/><path fill="#7b6a55" d="M268 138l-17-14 1-1 17 14z"/><path fill="#2f5266" d="M45 157l4 5-2 1-3-5z"/><path fill="#a2a19a" d="M320 152l64-29v1l-63 30z"/><path fill="#bfafab" d="M297 227l173-60v2l-173 59z"/><path fill="#c9b197" d="M191 48l-44-33 1-2 44 33z"/><path fill="#20697c" d="M52 100l26 12-1 2-25-12z"/><path fill="#2c2e2d" d="M158 77l3 3-2 1-2-4z"/><path fill="#8a9897" d="M261 111l1 3-2 1-2-2z"/><path fill="#8e8787" d="M350 151l23-10 7 16-24 10z"/><path fill="#4498b4" d="M143 78l1-1 15 9-1 1z"/><path fill="#876e51" d="M-5 42l34 16v1L-6 44z"/><path fill="#473e28" d="M266 139l2-4 5 3-2 4z"/><path fill="#caab84" d="M89 80l-4 6-47-30 3-6z"/><path fill="#e0d9d2" d="M2 106l-11-7 9-13 10 7z"/><path fill="#77b0c5" d="M171 8V5l66 4v3z"/><path fill="#c8cac8" d="M126-27L283 96l-1 1L125-26z"/><path fill="#b1a69f" d="M109 141v-1l34 17-1 1z"/><path fill="#bedaf5" d="M236 0v5l-5-1 1-4z"/><path fill="#d1ab7f" d="M179 139l-57-34v-2l58 35z"/><path fill="#4b4134" d="M388 162l1 2-85 29v-2z"/><path fill="#494437" d="M246 90v3l-13-3 1-3z"/><path fill="#dbd3cc" d="M251 154l5 47h-2l-5-47z"/><path fill="#413635" d="M99 32l-4 5-2-2 4-5z"/><path fill="#8dadbe" d="M-11 134l25 14-1 1-25-14z"/><path fill="#cdaa81" d="M117 171l-2 6-49-24 2-6z"/><path fill="#95c0cd" d="M194 28V8h4v20z"/><path fill="#ccad8b" d="M239 80l31 21-1 1-31-20z"/><path fill="#4a4b3b" d="M31 57l17 9-3 4-16-9z"/><path fill="#edebe7" d="M183 64l-2 4L90 9l3-4z"/><path fill="#55493d" d="M291 108v4l-12 1v-5z"/><path fill="#e5dfda" d="M335 149l87-39 1 2-87 39z"/><path fill="#c6a983" d="M230 120l-2-9 6-1 2 9z"/><path fill="#655742" d="M52 20l1-1 28 16-1 1z"/><path fill="#bfc3bc" d="M151 40l-39-27 1-1 39 27z"/><path fill="#8e8278" d="M306 134l1 1-46 20-1-1z"/><path fill="#7a7068" d="M280 123l107-55 1 1-108 55z"/><path fill="#a39a95" d="M333 137l-40 17-5-11 40-18z"/><path fill="#abc1c1" d="M285 99l9-5 1 2-10 5z"/><path fill="#5b8c93" d="M98 127v-1l34 17-1 1z"/><path fill="#8e8786" d="M343 130l-4-9 88-44 5 10z"/><path fill="#1c6678" d="M70 175l-25 15-1-1 25-15z"/><path fill="#564433" d="M110 5l27 19-1 1-27-19z"/><path fill="#ebe1d3" d="M173 19l70 52-2 3-70-53z"/><path fill="#536668" d="M153 79l-10-9 3-4 10 10z"/><path fill="#80bcd3" d="M402 36l-58 32-10-18 58-32z"/><path fill="#1484a1" d="M220 135l-8-7 4-5 8 7z"/><path fill="#2e261d" d="M13 78l-27-9 3-8 26 9z"/><path fill="#918a87" d="M333 110l-5-8 35-19 4 8z"/><path fill="#31332a" d="M176 43l-1 1-18-17 1-1z"/><path fill="#5e6d5f" d="M222 79l1-2 16 15-1 1z"/><path fill="#1d1a04" d="M90 91h2l1 7h-2z"/><path fill="#a88a6f" d="M10 30l-1 9-17-1 1-10z"/><path fill="#ebe7de" d="M197 85l5-7 24 17-4 6z"/><path fill="#736a74" d="M410 47l-16 10-5-8 16-10z"/><path fill="#3e2d10" d="M59 153l47 23v1l-48-23z"/><path fill="#2c2824" d="M418 70l1 1-39 20-1-1z"/><path fill="#36302a" d="M420 154l2 4-94 36-1-4z"/><path fill="#a28b73" d="M275 104l-86-67 1-2 86 68z"/><path fill="#dccfc1" d="M251 156v-1l9-3v1z"/><path fill="#4d4435" d="M320 184l36-15 1 2-37 14z"/><path fill="#575752" d="M273 115l-1 1-22-17 1-1z"/><path fill="#e0f2f9" d="M21 88l1-1 6 5-1 1z"/><path fill="#8bbfd4" d="M245 22l-10 31-3-1 10-31z"/><path fill="#656159" d="M133 183l37-36 5 6-37 36z"/><path fill="#b29478" d="M265 101v-1l9-3v2z"/><path fill="#726d6a" d="M336 155l48-22 1 1-49 22z"/><path fill="#f7f4f1" d="M3 175l98 41-3 8-98-42z"/><path fill="#acced8" d="M62 198l5-2v2l-4 1z"/><path fill="#272b26" d="M192 56l1-2 10 8-1 1z"/><path fill="#635c5b" d="M309 215v-1l140-40v1z"/><path fill="#c0a379" d="M133 51v-1l61 44-1 1z"/><path fill="#d9f4fb" d="M28 90l12 8-1 1-12-8z"/><path fill="#5c6462" d="M28 66l1-5 10 3-1 4z"/><path fill="#12161b" d="M132 20l1-1 6 6-2 1z"/><path fill="#a68769" d="M102 22l-1 1-45-34 1-1z"/><path fill="#edece9" d="M69 57l5-7 55 38-5 8z"/><path fill="#78b2ca" d="M196 8l27-12 11 22-27 13z"/><path fill="#6a939d" d="M97 188l-19-11 1-1 19 11z"/><path fill="#948992" d="M356 65l4 5-8 7-4-5z"/><path fill="#d4d6d5" d="M133 84l-1 1-42-30 1-1z"/><path fill="#bdb09e" d="M127 171l-11 6-1-3 11-6z"/><path fill="#87633a" d="M61 152l37 18-1 1-37-17z"/><path fill="#657d83" d="M172 145l-17 13-1-1 17-14z"/><path fill="#769ca7" d="M103 110v2L51 82l1-1z"/><path fill="#838482" d="M232 163l-36 4-1-16 35-4z"/><path fill="#297a8b" d="M172 48l-1 2-22-16 1-1z"/><path fill="#cfaf8b" d="M103 25l31 22-1 1-31-22z"/><path fill="#9c896f" d="M-2 112v-2l59 30-1 1z"/><path fill="#413b28" d="M121 49l1-1 43 29-1 2z"/><path fill="#b6d8e2" d="M219 39l-4-1 2-9 4 1z"/><path fill="#9b908b" d="M334 102l-39 23-2-4 39-23z"/><path fill="#aaa49e" d="M3 76l9 8-1 1-9-8z"/><path fill="#c5a57c" d="M19 131l1-1 63 31-1 1z"/><path fill="#a69383" d="M259 163l-3-7 6-2 2 7z"/><path fill="#faf0eb" d="M137 161l5-3 1 2-6 2z"/><path fill="#ddd2c9" d="M231 149l18 9v1l-19-9z"/><path fill="#306e83" d="M41 183h-9v-11h10z"/><path fill="#e2d9d3" d="M48 205l-1 2-25-14 1-1z"/><path fill="#eeeae6" d="M137-13l1-1L277 99l-1 1z"/><path fill="#a9cddc" d="M219 23l-7 7-1-1 6-7z"/><path fill="#151910" d="M15 147l5-12 1 1-5 12z"/><path fill="#101310" d="M267 144l-15 10-2-3 15-9z"/><path fill="#628e99" d="M45 160l-30-14 1-1 30 13z"/><path fill="#394344" d="M244 133l1-1 13 14-1 1z"/><path fill="#56635a" d="M140 17l23 16-1 2-23-17z"/><path fill="#ad9170" d="M176 27l-7-2 1-3 7 2z"/><path fill="#233238" d="M242 98l-24-18 1-1 24 17z"/><path fill="#867d7a" d="M365 146l61-28 7 16-61 27z"/><path fill="#097690" d="M201 120l-40-24 2-5 40 25z"/><path fill="#c3dbe5" d="M281 75l-1 3-25-2 1-3z"/><path fill="#578695" d="M80 204l-34-14v-2l35 14z"/><path fill="#ae9873" d="M98 83L75 71v-2l24 12z"/><path fill="#4d5a59" d="M83 49l-1-1 18-14 1 1z"/><path fill="#007385" d="M130 66l12 11-2 2-12-10z"/><path fill="#202626" d="M278 113l-4 8-3-1 4-9z"/><path fill="#eee5dc" d="M307 128l1 1-26 14-1-2z"/><path fill="#acced9" d="M246 57v-1l35 7v2z"/><path fill="#283334" d="M277 117l-1 3-14-4 1-3z"/><path fill="#2b6e84" d="M84 119l4-14 8 3-5 13z"/><path fill="#2a3437" d="M16 82l-4 1-2-4 5-1z"/><path fill="#21220a" d="M45 155l4-6h1l-4 7z"/><path fill="#8bb8c6" d="M180 13l13-4 1 1-14 5z"/><path fill="#948171" d="M275 138l-1-1 28-17 1 1z"/><path fill="#7cb6ca" d="M277 67l11-10 5 6-11 9z"/><path fill="#c5dee6" d="M222 45l7-6 4 5-7 6z"/><path fill="#cca980" d="M94 84l36 19-3 5-36-18z"/><path fill="#dbd6d3" d="M134 167l-1-2 4-2 1 1z"/><path fill="#2c8999" d="M244 101l-1 2-17-12 1-1z"/><path fill="#e8e5e1" d="M138 38L58-17l3-4 79 56z"/><path fill="#494630" d="M205 61l-1 1-64-46 1-2z"/><path fill="#265a67" d="M1 147l47 22-1 2-46-23z"/><path fill="#8d765b" d="M45 49l-1 2-46-27 1-1z"/><path fill="#8f9295" d="M175 206l-5-1 7-53 4 1z"/><path fill="#20606f" d="M49 186l11 5-1 3-11-5z"/><path fill="#b4c6d0" d="M71-17l1 2-38 36-1-1z"/><path fill="#a8a69c" d="M381 126l35-17 1 1-35 17z"/><path fill="#929492" d="M107 6l8-9 2 1-9 9z"/><path fill="#6498a7" d="M30 71l1-1 15 7v2z"/><path fill="#b2b7bd" d="M211 69l-1 1-4-3 1-1z"/><path fill="#7c7369" d="M328 140l33-17 1 1-34 17z"/><path fill="#514b3c" d="M329 144l-24 14-1-1 24-14z"/><path fill="#d2ab80" d="M53 146l-11-1v-8l12 1z"/><path fill="#558993" d="M125 141v-1l27 14-1 1z"/><path fill="#7ab5cb" d="M315 70l-36 25-5-7 36-25z"/><path fill="#1e7d8e" d="M207 77l-39-29 2-2 38 30z"/><path fill="#dfd6cd" d="M-3 106l30 16v1l-31-15z"/><path fill="#23819a" d="M230 132l-1 1-29-16 1-1z"/><path fill="#4c3822" d="M215 68l1-1 8 8-1 1z"/><path fill="#4e5449" d="M157 135l1-1 12 11-1 1z"/><path fill="#ede1dc" d="M282 201l-41 15-9-25 41-15z"/><path fill="#28758d" d="M43 82l-4 11-12-4 5-12z"/><path fill="#ab8c6c" d="M36 52l-1 6-10-2 1-6z"/><path fill="#3c3b33" d="M177 93l-2-1 3-5h1z"/><path fill="#bbaea5" d="M218 134l20 13-1 1-20-12z"/><path fill="#101a0c" d="M137 125h-2l-1-8h1z"/><path fill="#50554b" d="M89 98l-13-6 2-4 13 6z"/><path fill="#d0cec7" d="M111 70l1-1 19 12v2z"/><path fill="#e1dcd7" d="M408 171l1 2-128 54-1-1z"/><path fill="#c4a175" d="M162 64l-1 1-43-21v-1z"/><path fill="#9f805f" d="M154 11L131-9l1-1 24 20z"/><path fill="#a5c8d9" d="M252 38l-5 23-3-1 5-23z"/><path fill="#4f4336" d="M282 117l-2-3 8-4 2 2z"/><path fill="#dcecf2" d="M261 65l-4 6-10-6 4-7z"/><path fill="#edffff" d="M112 137l1-2 30 17-1 2z"/><path fill="#4c7080" d="M13 152l-1-1 8-8 1 2z"/><path fill="#0d4051" d="M10 167l-1-1 5-13 1 1z"/><path fill="#3d7385" d="M73 172l22 9-1 2-21-10z"/><path fill="#2c3637" d="M250 152l-13-8 2-4 13 8z"/><path fill="#77b5c9" d="M266-15l5 2-26 52-5-3z"/><path fill="#5b5c50" d="M192 54l-12-7 2-3 11 8z"/><path fill="#6b6159" d="M121 204l-29 8-5-18 29-8z"/><path fill="#283136" d="M121 51h2l1 6h-2z"/><path fill="#4c8494" d="M149 33l-10-7 1-2 10 8z"/><path fill="#65625e" d="M272 129l1-1 4 7-2 1z"/><path fill="#91a8af" d="M131 64l-7-9 3-2 7 9z"/><path fill="#a49174" d="M36 131L0 112v-1l36 19z"/><path fill="#7f7b73" d="M296 111l-2 2-4-7 2-2z"/><path fill="#616552" d="M55 151l2 8-4 1-2-8z"/><path fill="#4f493f" d="M424 102l1 2-91 42-1-1z"/><path fill="#dec2a7" d="M127 171v2l-46-24v-1z"/><path fill="#534b3a" d="M201 101v2l-48-31 1-1z"/><path fill="#0e1621" d="M232 134v3h-6v-3z"/><path fill="#9fc9d7" d="M224 37l38 14v2l-38-15z"/><path fill="#7c6d52" d="M223 71l17 14-1 1-17-13z"/><path fill="#617074" d="M25 147l1-1 16 9-1 1z"/><path fill="#ebe9e7" d="M8 105l45 19-4 7-44-19z"/><path fill="#176377" d="M47 82l24 13-7 12-24-12z"/><path fill="#5f6564" d="M63 85L32 64v-1l32 21z"/><path fill="#248199" d="M150 146l-15-14 1-1 15 13z"/><path fill="#898080" d="M357 97l-3-7 72-35 3 7z"/><path fill="#bf997a" d="M102 24l-4 6L69 8l3-5z"/><path fill="#977750" d="M104 96l35 21-1 1-35-20z"/><path fill="#978e88" d="M320 93l-14 6-3-6 15-6z"/><path fill="#e1dbd7" d="M394 176l2 4-32 14-2-4z"/><path fill="#d1cac7" d="M398 87l-19 11-1-2 19-11z"/><path fill="#9e856e" d="M248 132l1-4 17 4-1 5z"/><path fill="#70583f" d="M85 37l-1-6 5-1v6z"/><path fill="#907858" d="M9 129l1-1 26 14-1 1z"/><path fill="#4c8291" d="M191 66h7v1h-7z"/><path fill="#413a23" d="M255 98l15 11-1 1-15-11z"/><path fill="#f1f1ef" d="M4 82l1-2 8 5-1 2z"/><path fill="#e8ddd4" d="M-23 195l48 7v1l-48-6z"/><path fill="#878d91" d="M37 20l1-1 5 3-1 1z"/><path fill="#86aab8" d="M102 60l-12-7v-2l13 7z"/><path fill="#efe6e5" d="M225 146l-21-7 1-2 20 7z"/><path fill="#8f7c6e" d="M308 175v7l-20 1-1-8z"/><path fill="#9bcce1" d="M232 14l-1 1-6-12h2z"/><path fill="#74635d" d="M417 195l1 1-37 8v-2z"/><path fill="#e8d0b7" d="M86 151v1l-68-33 1-1z"/><path fill="#256d7c" d="M27 69l24 15-1 2-24-16z"/><path fill="#493e27" d="M47 26l-1-1 12-12 1 1z"/><path fill="#639fb2" d="M213 76l8 8-2 1-7-8z"/><path fill="#8c7353" d="M82 26l-2 4-23-13 2-4z"/><path fill="#7d8e95" d="M16 143v1l-30-13v-2z"/><path fill="#736b69" d="M365 108l-1-1 36-19v1z"/><path fill="#808c8f" d="M123 53l1-1 5 3-1 1z"/><path fill="#f0fdfc" d="M84 123l1-2 30 17-1 1z"/><path fill="#dad1bf" d="M151 54l1-1 33 23-1 1z"/><path fill="#bfbfb9" d="M222 143v1l-20-1v-1z"/><path fill="#3f4631" d="M53 72l-3 1-2-6 3-1z"/><path fill="#c1a381" d="M113-21l118 92-1 2-119-93z"/><path fill="#4d4459" d="M225 134l-3 4-1-1 2-4z"/><path fill="#9d9693" d="M329 166l4 5-14 11-3-5z"/><path fill="#427686" d="M102 187l-22-11 1-2 22 11z"/><path fill="#122f3e" d="M154 32l10 8-1 1-10-8z"/><path fill="#616060" d="M246 99l1-1 21 14-1 1z"/><path fill="#619cb1" d="M77 190l-3 19-2-1 3-18z"/><path fill="#9dbcca" d="M41 14L28-2l14-10L54 4z"/><path fill="#bedbe6" d="M227 21l9 7-2 2-9-7z"/><path fill="#817570" d="M327 81l20-9 2 4-20 10z"/><path fill="#a49d90" d="M229 158h2l1 39h-2z"/><path fill="#605540" d="M289 134l-1-1 18-9 1 1z"/><path fill="#7b7a6b" d="M14 137l-1-2 3-1 1 1z"/><path fill="#d0e4ed" d="M276 69l1 3-17 4-1-3z"/><path fill="#7f6853" d="M260 140l-2-2 5-8 3 2z"/><path fill="#1a8894" d="M218 82l10 8-1 1-10-7z"/><path fill="#ada59d" d="M321 199l2-3 1 1-1 2z"/><path fill="#2f3f48" d="M194 60l1 1-3 3-1-1z"/><path fill="#87bfd6" d="M415-26l16 40-85 33-16-41z"/><path fill="#7a6f58" d="M290 163l3-1v2h-3z"/><path fill="#6c6a74" d="M125 119l1-1 7 5-1 2z"/><path fill="#f5e0e6" d="M172 56l-27-16 1-1 26 16z"/><path fill="#786959" d="M291 176l-11 1v-1l11-2z"/><path fill="#c8ad8c" d="M102 24l16 16-3 3-16-15z"/><path fill="#66767d" d="M186 101l-30-20 1-2 29 20z"/><path fill="#c9bbb9" d="M116 146l-19-11 1-1 19 11z"/><path fill="#0d1d11" d="M87 42l-5 4-1-2 5-4z"/><path fill="#59656e" d="M62 86L35 70l1-1 27 16z"/><path fill="#3a3430" d="M364 181l-1-2 40-18 1 3z"/><path fill="#398ea5" d="M105 52l-1 1-13-3v-1z"/><path fill="#72929a" d="M101 110l1-1 26 14v1z"/><path fill="#76a7ba" d="M30 9h-8V-7h8z"/><path fill="#79b7cf" d="M285 95l60-36 3 4-60 36z"/><path fill="#2b6678" d="M8 171l26 11v1L8 173z"/><path fill="#277f93" d="M74 188v-2l22 3v2z"/><path fill="#7a6b51" d="M122 7l15 8-1 2-15-9z"/><path fill="#514330" d="M277 168l-7 3-1-3 7-3z"/><path fill="#7b8f8d" d="M235 142v-2l3 1v2z"/><path fill="#687e87" d="M96 40l1 1-4 5-1-1z"/><path fill="#e1f1f6" d="M250 10l1 1-9 6-1-1z"/><path fill="#104c60" d="M40 183l7-18 2 1-7 17z"/><path fill="#eee8e4" d="M205 37l-1 2-57-44 1-1z"/><path fill="#e8e4df" d="M137 154l3 9-16 6-3-8z"/><path fill="#707f93" d="M23 88h-1v-5h1z"/><path fill="#86817f" d="M106-5l3 11h-1l-3-10z"/><path fill="#c8af93" d="M229 72l1-1 30 27-1 1z"/><path fill="#534637" d="M312 189l7 1-2 7-6-1z"/><path fill="#918079" d="M273 170l3 1-1 2-2-2z"/><path fill="#3f403e" d="M227 76l18 17-1 1-18-17z"/><path fill="#493c2c" d="M266 169v-1l7-1v1z"/><path fill="#ac8e6c" d="M140 12L113-9l1-1 27 21z"/><path fill="#898085" d="M381 85l-5-8 23-14 5 9z"/><path fill="#b39979" d="M163 121l33 18-1 1-33-18z"/><path fill="#696561" d="M105 180l20 10-10 19-20-10z"/><path fill="#292a12" d="M94 35l-4 2-1-1 4-3z"/><path fill="#807b75" d="M316 87l25-13 1 3-25 13z"/><path fill="#64727b" d="M39 19l2-4 3 2-2 4z"/><path fill="#eae2d2" d="M222 93l1-1 28 20-1 1z"/><path fill="#b6d5e4" d="M254 48h3l-3 12h-3z"/><path fill="#403a25" d="M177 140v1l-5 2-1-1z"/><path fill="#4d5351" d="M99 32l1 1-16 15-1-2z"/><path fill="#31809a" d="M69 195h-5v-13h5z"/><path fill="#242729" d="M240 138l-12 2-1-2 13-1z"/><path fill="#5f5e53" d="M115 111l1-2 18 13-1 1z"/><path fill="#eee5d7" d="M284 106l-36-28 1-1 36 27z"/><path fill="#4e463d" d="M303 127l48-25 1 1-49 25z"/><path fill="#2b6473" d="M6 150l1-1 82 37v1z"/><path fill="#605134" d="M105 179l4-2v2l-4 2z"/><path fill="#2d3328" d="M82 169l3-4 15 11-2 4z"/><path fill="#b49a7a" d="M206 97l3-4 11 8-2 4z"/><path fill="#fff9f3" d="M103 1l-3 1-1-1 3-2z"/><path fill="#efe8e0" d="M236 179h-2l-3-34 2-1z"/><path fill="#a8bac0" d="M214 71l-2 1-2-4 1-1z"/><path fill="#98bec8" d="M45 190v1l-26-11v-1z"/><path fill="#b29b81" d="M10 116l1-1 49 26v2z"/><path fill="#1e6072" d="M39 187l2-6 21 6-2 6z"/><path fill="#6d8186" d="M100 45l1-2 26 17-1 2z"/><path fill="#626a6d" d="M153 29l-1 1-10-8 1-1z"/><path fill="#666358" d="M172 167l-21 18-12-12 21-19z"/><path fill="#8f7957" d="M270 110v-5h11v4z"/><path fill="#3d4e61" d="M173 46l-1 1-9-7 1-2z"/><path fill="#24475e" d="M16 148l-2 1v-5h1z"/><path fill="#ede4e0" d="M350 110l-1-1 21-11 1 1z"/><path fill="#c4aa8c" d="M215 65l-35-31 1-1 35 31z"/><path fill="#f5f2f1" d="M25 188l1-3 19 7-1 3z"/><path fill="#decfb9" d="M-7 19l1-1 24 11-1 2z"/><path fill="#82bbd3" d="M289 20l49-25 28 56-49 24z"/><path fill="#5f8c99" d="M47 159l1-1 25 15-1 2z"/><path fill="#6e6a59" d="M244 93l1-1 7 7-2 1z"/><path fill="#3b555e" d="M88 38l30 18-1 1-30-17z"/><path fill="#483e33" d="M319 188l106-45 2 4-107 46z"/><path fill="#2f8196" d="M91 122h-2l3-14h2z"/><path fill="#2b2f31" d="M113 112l2 2-2 1-1-3z"/><path fill="#938c8b" d="M366 143l5 10-45 21-5-10z"/><path fill="#edebe8" d="M229 146l-47-1v-2l47 1z"/><path fill="#8c8282" d="M397 188l1 2-25 11v-2z"/><path fill="#83aab8" d="M5 141l1-1 9 11-1 1z"/><path fill="#3e3529" d="M416 104l2 3-61 25-1-3z"/><path fill="#77b3cb" d="M221 36l41-9v1l-41 9z"/><path fill="#2c3831" d="M192 97h3l-1 5-3-1z"/><path fill="#c8a67d" d="M189 140l-2 2-62-40 2-2z"/><path fill="#d0c9c2" d="M230 148h1v9h-1z"/><path fill="#7e8587" d="M42 24l29-35 1 1-29 35z"/><path fill="#c9c5d0" d="M222 88v2l-18-11 1-1z"/><path fill="#4d4133" d="M79 45L61 32l3-4 17 13z"/><path fill="#e0dad7" d="M362 192l-4-3 3-4 4 3z"/><path fill="#99bdcd" d="M271 79v3h-6v-3z"/><path fill="#3e6b81" d="M226 134l-6 1-1-2 7-1z"/><path fill="#9d928a" d="M307 98l-12 8-3-5 11-8z"/><path fill="#8b8076" d="M333 121l-80 39v-1l80-39z"/><path fill="#c5aa8e" d="M226 72l34 22v1l-34-22z"/><path fill="#e6f1f1" d="M1 175l1-1 52 21-1 1z"/><path fill="#f5ebe3" d="M108 161l-43-22v-1l44 21z"/><path fill="#398fa4" d="M106 55L94 45l1-1 12 10z"/><path fill="#efeee9" d="M217 98l-73-51 3-6 73 51z"/><path fill="#c0a68b" d="M140 5l18 14-2 3-18-15z"/><path fill="#65655a" d="M328 92l4-2 1 1-4 2z"/><path fill="#c6a375" d="M164 69l-3 3-36-27 3-4z"/><path fill="#a7a39a" d="M202 148v-2l26-1v1z"/><path fill="#8f8785" d="M396 96l4 9-50 25-4-8z"/><path fill="#564b39" d="M-1 53l1-1 22 12-1 1z"/><path fill="#757078" d="M179 49l1-1 11 8-1 1z"/><path fill="#c1a889" d="M180 141v-3l14 1v3z"/><path fill="#635e5a" d="M119 205l13-29 38 18-13 28z"/><path fill="#9ab2bd" d="M128 61l-1 1-4-5 2-1z"/><path fill="#b7ccd6" d="M203 124l6 5-1 1-6-4z"/><path fill="#446872" d="M30 66l2 1-7 19-2-1z"/><path fill="#585a57" d="M175 92l2-3 12 8-2 3z"/><path fill="#051017" d="M17 82l4-2 1 2-4 2z"/><path fill="#689099" d="M3-5l1-1L18 6l-1 2z"/><path fill="#e0d3c9" d="M312 126l-2 4-2-1 3-4z"/><path fill="#c7ccc8" d="M152-10l21 21-1 1-21-21z"/><path fill="#155d6e" d="M84 195l-5 1-2-8 5-1z"/><path fill="#c5d9e0" d="M251 67l-1 1-27-21 1-1z"/><path fill="#f1ece6" d="M137 100l-1 1-65-40 1-1z"/><path fill="#e4ddd8" d="M399 85l-27 14v-1l26-14z"/><path fill="#3c3f3f" d="M160 138l-1 1-27-16 1-1z"/><path fill="#4b96b2" d="M22 2l-3 4-8-6 2-4z"/><path fill="#584f3e" d="M287 165l27-14 1 1-28 14z"/><path fill="#70adc2" d="M152-5l1-4 53 16-2 4z"/><path fill="#a49b94" d="M335 120l-1-2 21-11v1z"/><path fill="#a9d0dc" d="M249 16l-1 4h-2l2-4z"/><path fill="#14101c" d="M92 44l-1 4h-3v-4z"/><path fill="#3b3a26" d="M31 57l34 20-1 2-33-20z"/><path fill="#bfcdd4" d="M34 23l-5-4 7-9 5 4z"/><path fill="#6c6c61" d="M343 79l12-2v2l-12 1z"/><path fill="#83787d" d="M395 52l-36 20-2-4 35-20z"/><path fill="#3a3a20" d="M158 135l-50-32 1-2 50 33z"/><path fill="#47656d" d="M74 169l-1 1-11-6 1-1z"/><path fill="#877f77" d="M339 95l-19 10-1-1 19-11z"/><path fill="#696049" d="M218 70l-1 1-8-8 1-1z"/><path fill="#c8d1ca" d="M177 110l-6-2 1-1 6 2z"/><path fill="#155665" d="M66 90l1 1-6 14h-1z"/><path fill="#3d3832" d="M363 98l-1-1 42-22 1 2z"/><path fill="#403221" d="M236 132l-5-4 3-5 5 3z"/><path fill="#565849" d="M58 76l8 5-1 1-8-5z"/><path fill="#6b625d" d="M367 197l-1-2 34-12 1 1z"/><path fill="#8e7c70" d="M309 178h-28v-1h28z"/><path fill="#453f2d" d="M92 91l1-1 16 17-1 1z"/><path fill="#79b3ca" d="M197 24l70-30 1 2-71 30z"/><path fill="#98bac6" d="M374 52l40-23 1 1-40 24z"/><path fill="#847c79" d="M340 153l11-9 1 2-11 8z"/><path fill="#555448" d="M228 123l-1 1-16-11 1-1z"/><path fill="#1a666d" d="M169 90l11 8-1 2-11-9z"/><path fill="#e7e6e3" d="M72 60L-18 8V7l91 52z"/><path fill="#7e7b77" d="M314 98l32-21 1 1-33 22z"/><path fill="#596b6d" d="M211 115l30 20-1 1-30-20z"/><path fill="#8b7e72" d="M308 169l1 19-6 1-1-19z"/><path fill="#61523e" d="M271 138l-6 5-3-4 6-5z"/><path fill="#d6ebf0" d="M214 38l-5-1 1-7h4z"/><path fill="#f1e2cd" d="M199 138l-1 2-42-27 1-1z"/><path fill="#555956" d="M221 72l6 9-2 2-7-9z"/><path fill="#d1d5df" d="M177 11l1-1 3 6h-1z"/><path fill="#223b42" d="M141 24l1-1 19 14-1 1z"/><path fill="#c9ac90" d="M171 30l2 3-1 1-3-2z"/><path fill="#a8907b" d="M299 115l1 3-22 12-1-3z"/><path fill="#08748d" d="M140 144l19 6v1l-20-6z"/><path fill="#cdc6bf" d="M242 156l1-2 10 8-1 1z"/><path fill="#c8a880" d="M159 120l-3 6-45-26 3-5z"/><path fill="#8d7759" d="M180 140l-1 1-35-20v-1z"/><path fill="#a0cddf" d="M288 70l1 1-6 5-1-1z"/><path fill="#2c3333" d="M264 114l9 7-1 1-9-7z"/><path fill="#29363d" d="M245 150l7-12 1 1-6 12z"/><path fill="#9f9e92" d="M232 205l-1-14h1l1 14z"/><path fill="#514d47" d="M251 152l3-1v2h-3z"/><path fill="#56675f" d="M234 141h1l2 4h-2z"/><path fill="#b7d7ed" d="M248 39v-1l6 3-1 1z"/><path fill="#cca276" d="M27 132l-1 3-30-19 2-2z"/><path fill="#23727e" d="M165 98l-10-5 1-2 9 5z"/><path fill="#eeeeeb" d="M199 136l-38-23 4-7 38 23z"/><path fill="#0e1003" d="M11 79l13-14 1 1-13 14z"/><path fill="#a98d6e" d="M103 162v1l-27-14 1-1z"/><path fill="#b29066" d="M146 54l-13-8 1-2 13 9z"/><path fill="#e1dcd2" d="M223 136l-2 6-4-1 1-6z"/><path fill="#aea59c" d="M62 36l4 3-2 1-3-3z"/><path fill="#5b6863" d="M68 89l4-6 3 1-5 7z"/><path fill="#f8f4f0" d="M-2 79l1-2 35 21v1z"/><path fill="#888a8e" d="M210 187l-19 1-2-33 18-1z"/><path fill="#f1ebe2" d="M82 56l1-1 139 87v1z"/><path fill="#0c596a" d="M112 116l1 16h-1l-2-15z"/><path fill="#b79e83" d="M249 82l2 1-5 8-1-1z"/><path fill="#75756f" d="M288 109l2-2 1 1-2 2z"/><path fill="#4e483c" d="M148 122l-9 8-4-3 9-9z"/><path fill="#74b9d2" d="M382 47l-1-3 32-18 2 3z"/><path fill="#796e63" d="M299 171l25-14v1l-24 15z"/><path fill="#818b84" d="M130 57l1-1 10 7-1 2z"/><path fill="#14110a" d="M275 113l6 3-1 1-6-3z"/><path fill="#85969c" d="M114 3l-4 2-4-6 4-3z"/><path fill="#1b6270" d="M133 145l-2-1 4-12 1 1z"/><path fill="#282013" d="M66 77l2-1 2 5h-2z"/><path fill="#817d76" d="M140 163l1 1-8 9-1-1z"/><path fill="#242e30" d="M278 118v2l-17-5 1-2z"/><path fill="#57504e" d="M337 210v-1l118-46 1 2z"/><path fill="#ccc5c2" d="M381 68l36-17 1 1-37 17z"/><path fill="#b09874" d="M194 52l7-7 1 2-7 6z"/><path fill="#4d818b" d="M194 116l21 15-1 1-21-14z"/><path fill="#d2c9c3" d="M313 105l-1-1 17-11 1 1z"/><path fill="#66605b" d="M403 74l1 2-34 17v-2z"/><path fill="#af9270" d="M70 13h-2L63-8h2z"/><path fill="#e2dcd4" d="M313 157l40-17 1 1-40 18z"/><path fill="#937e68" d="M101-11l1-1 33 24-1 2z"/><path fill="#3f321e" d="M207 62l-1 1-2-2 1-1z"/><path fill="#31393c" d="M166 40l24 17-1 2-24-18z"/><path fill="#594c41" d="M320 186v2l-10 2-1-1z"/><path fill="#97c8d8" d="M233 35l-15-11 1-1 15 11z"/><path fill="#2e2a1b" d="M275 112l-1 2-7-6 1-1z"/><path fill="#8f8682" d="M312 105v-1l12 2v1z"/><path fill="#342d1e" d="M157 137l-6-3 3-7 6 3z"/><path fill="#485155" d="M67 88l-3 1-2-6 3-1z"/><path fill="#4f5042" d="M244 129l-1 5-8-2 2-5z"/><path fill="#5a625e" d="M93 99l4-2 3 6-5 2z"/><path fill="#c9a57a" d="M187 139l-2 3-36-20 2-3z"/><path fill="#8d8a6f" d="M283 166l3-1 1 2-3 1z"/><path fill="#cac1b8" d="M267 149l-2-2 1-1 2 2z"/><path fill="#938265" d="M163 29l8-7 2 1-8 7z"/><path fill="#f0eae8" d="M215 97l3-5 18 9-3 6z"/><path fill="#6a7783" d="M106 45l-1 2-9-6 1-2z"/><path fill="#323634" d="M158 74h2l-1 7h-1z"/><path fill="#585454" d="M170 156l-1-1 3-6h1z"/><path fill="#aa9b98" d="M373 192l33-14 1 1-33 14z"/><path fill="#99bfcd" d="M240 25l-11-9 1-1 11 8z"/><path fill="#aea79f" d="M26 15l26 17-1 1-26-17z"/><path fill="#99c2d1" d="M226 92l-2 1-10-11 1-1z"/><path fill="#666761" d="M128 170l7 6-15 18-7-6z"/><path fill="#89bacb" d="M72 199v2l-5-1v-2z"/><path fill="#ddcab3" d="M161 118l-46-27 1-1 46 27z"/><path fill="#e0f4fb" d="M83 121h-5v-3h5z"/><path fill="#bb9d7e" d="M235 114l1-1 9 6-1 1z"/><path fill="#8b858b" d="M20 85l3 2-1 1-3-2z"/><path fill="#628589" d="M159 153l1 1-8 4-1-1z"/><path fill="#736a66" d="M405 85v2l-67 33-1-2z"/><path fill="#795837" d="M92 167l21 11-1 1-20-11z"/><path fill="#140800" d="M49 153h-1l1-5 2 1z"/><path fill="#489ba5" d="M144 75l1 1-3 4-1-1z"/><path fill="#14738a" d="M145 150l18-6v2l-18 5z"/><path fill="#b39c7f" d="M174 129l-60-36 1-2 60 37z"/><path fill="#205d6f" d="M8 173l-11-2 3-17 11 2z"/><path fill="#a7c6c4" d="M191 64l1 4-3 1-2-4z"/><path fill="#aa9d93" d="M277 159l-8 7-4-5 9-7z"/><path fill="#534e44" d="M273 118l-27-27 1-1 27 27z"/><path fill="#cdab83" d="M43 136v-2l60 32-1 1z"/><path fill="#635c54" d="M291 113l-1-1 46-24 1 2z"/><path fill="#22566d" d="M133 66l2 1-1 3-2-1z"/><path fill="#00778e" d="M140 75l-5 6-5-4 5-6z"/><path fill="#186072" d="M63 171l-3 16-15-4 3-15z"/><path fill="#c7b6a9" d="M126 21l-2 1-1-4 1-1z"/><path fill="#9bc5cf" d="M251 8l1 8h-2V8z"/><path fill="#675c4b" d="M132 20l-2 2-20-18 3-3z"/><path fill="#dbc8bf" d="M86 71l6 5-1 1-6-4z"/><path fill="#ae9f8f" d="M260 159l15-6 1 3-15 5z"/><path fill="#776142" d="M79 28v-2l13 7-1 2z"/><path fill="#8f9897" d="M112-3l2 6-3 1-2-6z"/><path fill="#bed6e2" d="M268 59v3l-25 3v-3z"/><path fill="#636256" d="M24 142l-1 1-4-2v-1z"/><path fill="#98928e" d="M359 165l-46 20-2-4 46-21z"/><path fill="#c8a67f" d="M203 98l-56-39 1-3 57 40z"/><path fill="#c5e0eb" d="M212 33l7-9 2 1-7 9z"/><path fill="#16708d" d="M152 34l11 8-1 1-11-8z"/><path fill="#635649" d="M278 137v3h-2l1-3z"/><path fill="#9d8f87" d="M12 193l-1 2-12-5 1-2z"/><path fill="#1a5e7d" d="M157 94l1-9h2l-1 10z"/><path fill="#efeae5" d="M117 148l-2 4-62-33 2-4z"/><path fill="#3f3628" d="M-3 62l1-4 19 7-1 4z"/><path fill="#117a96" d="M130 75l-25-23 1-1 25 23z"/><path fill="#e1dbd7" d="M389 184l-1-2 22-8v1z"/><path fill="#f2ede6" d="M181 124v2l-39-21 1-1z"/><path fill="#29758f" d="M64 177l5-2 3 9-5 2z"/><path fill="#be9a75" d="M132 51l11 2-1 4-11-2z"/><path fill="#473a2e" d="M322 146l44-23 1 2-44 22z"/><path fill="#675f62" d="M367 72l-3 2-1-1 2-2z"/><path fill="#efebe6" d="M145-1l1-1 123 92-1 1z"/><path fill="#afcdc9" d="M244 104v1l-21-14 1-1z"/><path fill="#3f372c" d="M314 197l41-19 1 1-41 20z"/><path fill="#e0d7d3" d="M389 204l-2-1 4-8h1z"/><path fill="#433b37" d="M381 165l8-11 10 7-8 12z"/><path fill="#b8aea6" d="M245 151l3 1v1h-4z"/><path fill="#a29693" d="M295 101v6h-4v-6z"/><path fill="#808b85" d="M-1 133v-2l16 7v1z"/><path fill="#115d71" d="M153 152v-12h2v12z"/><path fill="#585647" d="M177 39h-3v-1l3-1z"/><path fill="#79b6d0" d="M260-23l42 1-1 47-42-2z"/><path fill="#ebeae6" d="M265 86l-1 1-65-49 1-1z"/><path fill="#80a8b6" d="M165-1l10 9-1 1-10-9z"/><path fill="#928171" d="M306 120v1l-23 14v-2z"/><path fill="#658390" d="M165 146l-20-11 1-1 20 11z"/><path fill="#e8e1dc" d="M91 61L4 11l1-2 86 51z"/><path fill="#5b4c39" d="M202 106h-2v-7h2z"/><path fill="#0f464b" d="M100 178v1l-8 1v-1z"/><path fill="#9bbfcb" d="M207 35l-14-10 1-2 14 10z"/><path fill="#6b7b84" d="M28 70l8-5v1l-8 5z"/><path fill="#2c403b" d="M140 65h2v3h-1z"/><path fill="#b0a49d" d="M-5 83l1-2 11 6-1 2z"/><path fill="#645e51" d="M75 209l-2-3 25-16 2 2z"/><path fill="#706960" d="M128 173l28-17 2 4-28 17z"/><path fill="#b7b0af" d="M89 56l8 4v2l-8-5z"/><path fill="#78a1b3" d="M50 164v2l-5-1v-1z"/><path fill="#9c8670" d="M262 132l-4 5-6-5 4-5z"/><path fill="#95abb1" d="M136 67l3-3 2 2-3 3z"/><path fill="#c3b8a8" d="M184 142v-2l15 1v2z"/><path fill="#455e62" d="M157 85l-3-8 3-1 3 8z"/><path fill="#566b6e" d="M72 170l-24-12 1-1 23 11z"/><path fill="#9c7f5f" d="M60 11l29 16-1 1-28-16z"/><path fill="#f8faf8" d="M42 195l1-3 29 11-1 3z"/><path fill="#776d5e" d="M313 196l7 1-1 2-6-1z"/><path fill="#29596a" d="M131 66l-11-4v-2l12 5z"/><path fill="#c3bab0" d="M140 159l-14-8 1-2 14 8z"/><path fill="#1b5f76" d="M76 199l-1-1 10-8 1 1z"/><path fill="#eae7e4" d="M51 129l-2 4-48-26 2-4z"/></svg>