<svg xmlns="http://www.w3.org/2000/svg" viewBox="0 0 400 200"><path fill="#909b99" d="M0 0h400v200H0z"/><g transform="translate(1 1) scale(1.5625)"><ellipse fill="#8ee3ff" cx="185" rx="72" ry="52"/><ellipse fill="#003a46" cx="30" cy="106" rx="28" ry="12"/><ellipse fill="#fff" cx="165" cy="126" rx="20" ry="23"/><ellipse fill="#283a3a" cx="73" cy="119" rx="42" ry="11"/><ellipse fill="#7e6254" cx="218" cy="89" rx="64" ry="29"/><ellipse cx="15" cy="44" rx="18" ry="9"/><ellipse fill="ivory" cx="59" cy="93" rx="22" ry="11"/><ellipse fill="#ffe" cx="21" cy="73" rx="23" ry="12"/><ellipse fill="#003645" cx="41" cy="58" rx="16" ry="10"/><ellipse fill="#003d45" cx="84" cy="81" rx="17" ry="9"/><ellipse fill="#fff" cx="4" cy="127" rx="28" ry="13"/><ellipse fill="#00384b" cx="61" cy="69" rx="14" ry="9"/><ellipse fill="#fffee4" cx="60" cy="46" rx="15" ry="9"/><ellipse fill="#203531" cx="102" cy="98" rx="9" ry="16"/><ellipse fill="#2c1800" cx="55" cy="23" rx="13" ry="7"/><ellipse fill="#fff" cx="43" cy="81" rx="16" ry="8"/><ellipse fill="#fffbdc" cx="99" cy="70" rx="13" ry="9"/><ellipse fill="#070a02" cx="160" cy="89" rx="13" ry="7"/><ellipse fill="#e6e7e6" cx="14" cy="7" rx="15" ry="19"/><ellipse fill="#ffeccd" cx="35" cy="32" rx="16" ry="9"/><ellipse fill="#fff" cx="78" cy="99" rx="17" ry="7"/><ellipse fill="#fff9de" cx="80" cy="58" rx="14" ry="9"/><ellipse fill="#455850" cx="4" cy="93" rx="23" ry="18"/><ellipse fill="#392213" cx="207" cy="118" rx="17" ry="6"/><ellipse fill="#fffeec" cx="126" cy="87" rx="12" ry="8"/></g></svg>