<svg xmlns="http://www.w3.org/2000/svg" viewBox="0 0 400 200"><path fill="#909b99" d="M0 0h400v200H0z"/><g transform="translate(1 1) scale(1.5625)"><ellipse fill="#8ce3ff" cx="183" rx="58" ry="58"/><ellipse fill="#fff" cx="166" cy="124" rx="20" ry="20"/><ellipse fill="#83685c" cx="219" cy="89" rx="42" ry="42"/><ellipse fill="#070000" cx="11" cy="41" rx="12" ry="12"/><ellipse fill="#003b4a" cx="19" cy="102" rx="16" ry="16"/><ellipse fill="#ffffed" cx="32" cy="79" rx="15" ry="15"/><ellipse fill="#18464d" cx="51" cy="123" rx="22" ry="22"/><ellipse fill="#fffff1" cx="60" cy="93" rx="14" ry="14"/><ellipse fill="#46372d" cx="95" cy="126" rx="23" ry="23"/><ellipse fill="#fff" cx="11" cy="65" rx="12" ry="12"/><ellipse fill="#003947" cx="41" cy="58" rx="12" ry="12"/><ellipse fill="#003948" cx="70" cy="74" rx="11" ry="11"/><ellipse fill="#100000" cx="159" cy="88" rx="9" ry="9"/><ellipse fill="#fff" cx="10" cy="127" rx="15" ry="15"/><ellipse fill="#00393f" cx="92" cy="85" rx="11" ry="11"/><ellipse fill="#fff" cx="81" cy="100" rx="9" ry="9"/><ellipse fill="#f4d6be" cx="16" cy="20" rx="16" ry="16"/><ellipse fill="#412406" cx="53" cy="22" rx="10" ry="10"/><ellipse fill="#fff3dd" cx="55" cy="42" rx="12" ry="12"/><ellipse fill="#fffcde" cx="101" cy="71" rx="10" ry="10"/><ellipse fill="#fffee0" cx="79" cy="58" rx="10" ry="10"/><ellipse fill="#0f4953" cx="24" cy="48" rx="12" ry="12"/><ellipse fill="#ffeecf" cx="37" cy="33" rx="11" ry="11"/><ellipse fill="#004556" cx="56" cy="66" rx="10" ry="10"/><ellipse fill="#bdd5dc" cx="128" rx="29" ry="29"/></g></svg>