<svg xmlns="http://www.w3.org/2000/svg" viewBox="0 0 400 200"><path fill="#909b99" d="M0 0h400v200H0z"/><path fill="#002831" d="M-23 28l202 112-14 25L-37 53z"/><path fill="#fff" d="M150 155l-11 22-141-71 12-22z"/><path fill="#95e3ff" d="M297 120L170 16l75-93L373 26z"/><path fill="#05333b" d="M147 232l-186-79 16-36 185 79z"/><path fill="#fffbe5" d="M37 21l288 187-13 20L24 40z"/><path fill="#003b48" d="M274 149l-11 15L97 56l10-16z"/><path fill="#fff" d="M90-5l170 123-8 10L83 5z"/><path fill="#7a5c52" d="M314 208l-48-98 144-70 48 98z"/><path fill="#695a56" d="M235 181l-123 35-11-39 123-35z"/><path fill="#fff" d="M51 234l-84-34 14-35 84 34z"/><path fill="#011c19" d="M271 109l-5 8L124 14l6-8z"/><path fill="#3e2408" d="M107 37L94 57 41 24 54 4z"/><path fill="#73c1e6" d="M413-55l37 67-155 85-37-67z"/><path fill="#fffbf4" d="M268 218l-35 1-2-67 34-1z"/><path fill="#030000" d="M313 187l84-34 4 12-84 34z"/><path fill="#fffdfb" d="M-36 2l8-14 172 99-8 14z"/><path fill="#ffebd7" d="M269 92L145 12l10-15 123 80z"/><path fill="#fff" d="M265 181l-1-3 157-66 1 2z"/><path fill="#b0753a" d="M24 52l5-9 168 97-6 9z"/><path fill="#fff6ed" d="M125 173l-135-72L2 79l135 72z"/><path fill="#bcaea8" d="M262 169l-7-15 178-87 8 15z"/><path fill="#fff" d="M329 207l-3-8 97-35 3 7z"/><path fill="#fdf6f4" d="M230 142l-9 13-118-74 9-13z"/><path fill="#160000" d="M30 66l-9 20-28-13 9-20z"/><path fill="#160d00" d="M454 92l-145 62-2-4 145-62z"/><path fill="#f5aa60" d="M-2 114l125 56-4 8-125-56z"/><path fill="#1f0900" d="M316 151l-45 21-2-3 46-20z"/><path fill="#3a1a08" d="M273 139l-5 15-43-17 6-14z"/><path fill="#007ca2" d="M37 92l7-13 118 65-7 13z"/><path fill="#5b5448" d="M181 195l-39 20-21-40 39-20z"/><path fill="#d39657" d="M133 52l4-6 131 88-4 6z"/><path fill="#006083" d="M85 185l-7 17-96-41 7-17z"/><path fill="#4b2600" d="M111 182L5 133l2-4 106 49z"/><path fill="#1a1205" d="M272 142v-2l179-83 1 1z"/><path fill="#878d96" d="M223 208l-54-6 6-59 54 6z"/><path fill="#c08351" d="M37 44L26 63l-42-24 11-19z"/><path fill="#d49458" d="M65-1l71 44-6 9L60 8z"/><path fill="#a07952" d="M121-12l118 86-8 12L112-1z"/><path fill="#679eb4" d="M-24 131l5-8 113 60-4 8z"/><path fill="#191506" d="M278 102l7 14-15 8-7-14z"/><path fill="#fff" d="M49 204l-62-26 3-8 62 25z"/><path fill="#008bb4" d="M100 58l4-6 91 57-4 6z"/><path fill="#ffebe5" d="M277 236l-52-29 25-45 52 29z"/><path fill="#fffff9" d="M274 127l-4 5-45-29 3-6z"/><path fill="#f0eae3" d="M196 183L401 83l1 1-205 100z"/><path fill="#fffce2" d="M285 106l-34-22 3-4 34 22z"/><path fill="#fffef6" d="M178 59l-6 7L58-13l6-8z"/><path fill="#462c2a" d="M408 179l2 5-73 29-1-4z"/><path fill="#cfe3f0" d="M81-23L21 35 11 25l60-58z"/><path fill="#403219" d="M28 57l2-4 97 63-2 4z"/><path fill="#89c9e3" d="M331-9l83-36 29 68-84 35z"/><path fill="#5e4329" d="M88 31l3-4 147 100-2 4z"/><path fill="#4a341f" d="M110 8l4-7 31 21-4 7z"/><path fill="#31250a" d="M177 141l-3 4-74-43 2-4z"/><path fill="#7c7f81" d="M233 222l-36 2-4-76 36-2z"/><path fill="#0988ab" d="M136 25l1-2 100 73-1 1z"/><path fill="#e0d5cb" d="M394 62l-135 72-1-1 135-72z"/><path fill="#e1ebf3" d="M227 63l15-21 35 25-14 21z"/><path fill="#fff6ee" d="M255 112l-5 8-100-68 5-8z"/><path fill="#d9af88" d="M167 19l106 80-4 5-106-80z"/><path fill="#fffdf3" d="M477 85l1 1-182 81v-1z"/><path fill="#353d35" d="M135 14l2-3 101 74-2 2z"/><path fill="#78b4cf" d="M197-72L349 2l-35 72L162 0z"/><path fill="#a19d9d" d="M379 158l-63 25-5-14 62-26z"/><path fill="#acc1d1" d="M120 55l3-4 21 17-3 4z"/><path fill="#0088b2" d="M200 112l30 19-3 6-30-20z"/><path fill="#d2e5ea" d="M245 9l6 9-45 28-6-9z"/><path fill="#777374" d="M333 135l-5-12 109-53 6 11z"/><path fill="#ccaa86" d="M73 65l-6 9-38-22 6-9z"/><path fill="#acbbc0" d="M17 136l-7 13-9-5 6-13z"/><path fill="#fff4ef" d="M135-9l6-7 75 61-6 7z"/><path fill="#a9b6b8" d="M222 61l-5 23-10-3 6-22z"/><path fill="#b19f96" d="M111 140v2L-16 77l1-1z"/><path d="M247 150l16-10 4 5-16 10z"/><path fill="#26251f" d="M92 46l-4 5-31-20 3-5z"/></svg>