<svg xmlns="http://www.w3.org/2000/svg" viewBox="0 0 400 200"><path fill="#909b99" d="M0 0h400v200H0z"/><g fill="none"><path stroke="#fff" d="M315 202Q63 47-17 6m352 213Q106 62-24-2m362 226Q181 115-19 10m332 198Q8 19-24 10"/><path stroke="#090000" d="M-24 46q86 20 199 98"/><path stroke="#fff" d="M1 12q235 134 333 212"/><path stroke="#160200" d="M105 40q121 78 184 125"/><path stroke="#060900" d="M162 224Q211 115-24 52"/><path stroke="#1c2926" d="M401 164Q330 211 56 14"/><path stroke="#0a0000" d="M-24 115q139 70 223 96"/><path stroke="#fff" d="M45-18q17 6 231 152"/><path stroke="#002a3c" d="M308 126Q158 203-24 39"/><path stroke="#fff" d="M-9 12q167 92 327 206"/><path stroke="#003643" d="M371 176Q330 215 48 22"/><path stroke="#00100a" d="M-24 67q214 38 191 123"/><path stroke="#00333e" d="M325 114Q183 205-13 47"/><path stroke="#03150e" d="M263 143Q197 97 44 22"/><path stroke="#fff" d="M-24-4Q164 97 277 179"/><path stroke="#00060e" d="M76-24q119 88 205 147"/><path stroke="#261000" d="M108-2q70 40 183 127"/><path stroke="#fff" d="M268 126L85 1m247 219Q-24-6-24-18"/><path stroke="#010000" d="M279 165q145-60 145-77"/><path stroke="#170800" d="M1 129q190 95 265 95"/><path stroke="#fff" d="M67-11q109 85 206 143"/></g></svg>