<svg xmlns="http://www.w3.org/2000/svg" viewBox="0 0 400 200"><filter id="a"><feGaussianBlur stdDeviation="55"/></filter><path fill="#909b99" d="M0 0h400v200H0z"/><g filter="url(#a)"><path fill="#002a30" d="M-14 67L0 42l175 93-14 25z"/><path fill="#fff" d="M142 150l-12 24-136-70L6 81z"/><path fill="#93e2ff" d="M300 120L169 17l85-110L386 10z"/><path fill="#01323b" d="M155 195l-16 36-174-78 16-35z"/><path fill="#fff5e0" d="M119 103l14-21 165 111-14 21z"/><path fill="#fff" d="M-69-44l261 163-9 14L-78-30z"/><path fill="#002f43" d="M110 63l9-13 141 92-8 13z"/><path fill="#fff" d="M54-28l211 148-7 10L46-18z"/><path fill="#050000" d="M312 202l-5-13 95-39 5 13z"/><path fill="#322c16" d="M111 64L45 25 56 6l66 40z"/></g></svg>