<svg xmlns="http://www.w3.org/2000/svg" viewBox="0 0 256 128"><path fill="#929b9c" d="M0 0h256v128H0z"/><path fill="#95e7ff" d="M76-15l108 84 88-67z"/><path fill="#00303d" d="M-15 40l128 64-73-66z"/><path fill="#fff" d="M-6 42L6 80l97 28z"/><path fill="#01333e" d="M-15 73l26 44 98 13z"/><path fill="#fff" d="M151 129l50-1-52-35z"/><path fill="#fffee7" d="M-15-11l49 59 87 26z"/><path fill="#61554a" d="M93 57l179 43-63 26z"/><path fill="#174244" d="M76 21l49 50L23 13z"/><path fill="#ffedd0" d="M85 42l72 26L42-15z"/><path fill="#fff" d="M-1 130l57 2-64-25z"/><path fill="#32403d" d="M107 144L81 72l35 17z"/><path fill="#fffffb" d="M159 97L71 43l37 41z"/><path fill="#fffef2" d="M72 113L9 55l88 44z"/><path fill="#80665f" d="M259 25l-92 50 92 21z"/><path fill="#382514" d="M1 27l-16 22 73 6z"/><path fill="#fffcef" d="M183 84h-25l-32-36z"/><path fill="#031916" d="M107 33L85 4l50 37z"/><path fill="#185d6f" d="M41 21l67 21 47 52z"/><path fill="#d9c9c5" d="M216 112h-43l83-36z"/><path fill="#fff5ef" d="M112 14l67 25-8 21z"/><path fill="#211008" d="M262 103l-72 31 29-25z"/><path fill="#14221f" d="M137 42l44 32-22-3z"/><path fill="#604c41" d="M116 144H13l90-44z"/><path fill="#12110a" d="M126 63l48 29-16 5z"/><path fill="#e6d0c7" d="M192 98l25-25-59 27z"/><path fill="#fff4ed" d="M259 111l-113 33h60z"/><path fill="#9c6a44" d="M38 23L26-13l94 62z"/><path fill="#a47954" d="M83 65L29 53-15 4z"/><path fill="#70b7da" d="M182 62l90-44-120-33z"/><path fill="#0e1811" d="M90 10L71 4l32 22z"/><path fill="#0b698a" d="M6 50l29-8 45 47z"/><path fill="#fef3ee" d="M108 49L76 10l77 53z"/><path fill="#005c7d" d="M72 138l-39-33-48-3z"/><path fill="#b5804e" d="M-15 90l89 16-85-41z"/><path fill="#37290f" d="M116 90l-28-5-22-23z"/><path fill="#2e251b" d="M208 94l26-20 30-3z"/><path fill="#fcc59c" d="M97-15l48 59-85-58z"/><path fill="#127e9f" d="M90 79l26 29-73-40z"/><path fill="#fff" d="M30 30l37 8 31 33z"/><path fill="#fff1e3" d="M151 128l-3-34 55 34z"/><path fill="#ab7b54" d="M108 42l23 31 42 14z"/><path fill="#827672" d="M178 116l90-42-51 43z"/><path fill="#0e506a" d="M151 60l-15-19-20-4z"/><path fill="#ffeef1" d="M58 43L-11 8l35 3z"/><path fill="#5a443d" d="M266 114l-70 23 25 7z"/><path fill="#fffdfd" d="M46-2l10-13 33 43z"/><path fill="#eaaf75" d="M103 70l27 28-58-34z"/><path fill="#fff" d="M40 144l8-14-50-20z"/><path fill="#fff8f2" d="M20 63l-35-1 75 36z"/><path fill="#fff" d="M136 61l38 22-15-17z"/><path fill="#a79e9b" d="M272 60l-46 4-33 33z"/><path fill="#000404" d="M173 78l-7-7h22z"/><path fill="#1e0600" d="M19 41l-7 14-27-22z"/><path fill="#241814" d="M231 108l29 1 11-19z"/><path fill="#333328" d="M27 102l16-2L2 81z"/><path fill="#7bafce" d="M37 108l-52-23H9z"/><path fill="#fff5eb" d="M125 94L92 61l54 31z"/><path fill="#3d1a00" d="M41 100l40 16-26-3z"/><path fill="#7a7a7f" d="M148 96l2 48-57-53z"/><path fill="#503728" d="M122 59l-21-4-12-17z"/><path fill="#493423" d="M58 32L26 14l14-7z"/><path fill="#128cb1" d="M107 52l23 27-59-38z"/><path fill="#a7d6f3" d="M47-10l-33-5 6 31z"/><path fill="#3b2e22" d="M193 122l18 4 30-22z"/><path fill="#534d49" d="M236 51l-26 23 57-27z"/><path fill="#e1bc97" d="M87 21l25 31-57-40z"/><path fill="#fffbff" d="M91-3l32 13 4 15z"/><path fill="#ab9a8f" d="M196 62l43-5-72 32z"/><path fill="#e7b888" d="M18 87l57 26-19-20z"/><path fill="#4b92b0" d="M49 123L23 97l43 22z"/><path fill="#fffbf5" d="M229 144l-25-4 59-20z"/><path fill="#faebe5" d="M169 40l-21 1 36 28z"/><path fill="#f2ebeb" d="M75 108l21-9-59-31z"/><path fill="#885a34" d="M102 15L64-15l9 20z"/><path fill="#aa8760" d="M98 73l30 17-14 2z"/><path fill="#130901" d="M156 101l22-12-9-1z"/><path fill="#066d90" d="M135 69l-33-8 50 28z"/><path fill="#3c2611" d="M46 58L34 44l23 13z"/><path fill="#433116" d="M191 97l11 2-28 11z"/><path fill="#ccb3a6" d="M171 107l15-7-35-2z"/><path fill="#6a635b" d="M107 97l-71 37 76-9z"/><path fill="#32434a" d="M90 37L47 27l11-9z"/><path fill="#f5ebe6" d="M192 104l32-14-12 11z"/><path fill="#c0926d" d="M118 20l22 28 33 13z"/><path fill="#9b9190" d="M187 124l75-31-51 5z"/><path fill="#5ea4c5" d="M146 16L104 2l40-16z"/><path fill="#e6b388" d="M67 61L47 40l-22-4z"/><path fill="#fff" d="M242 81l21-9 9 5z"/><path fill="#238eb1" d="M64 25l27 23-29-13z"/><path fill="#3f270d" d="M68 71l17 2-32-18z"/><path fill="#d2cbc7" d="M242 66l-20 3 33-15z"/><path fill="#fff7f2" d="M250 111l-12 10 34-11z"/><path fill="#6f6865" d="M249 60l-31 15h16z"/><path fill="#989191" d="M208 72l23-27 27 2z"/><path fill="#78655a" d="M200 112l16-14-38 16z"/><path fill="#d29e73" d="M82 62l-10 3-8-12z"/><path fill="#fcf8fb" d="M110 67l21 22-41-23z"/><path fill="#d0e2f3" d="M161 3l-2 12-32 11z"/><path fill="#3e3834" d="M114 55l16 19 23 6z"/><path fill="#4c8097" d="M59 65L16 54l4-14z"/></svg>