<svg xmlns="http://www.w3.org/2000/svg" viewBox="0 0 400 200"><path fill="#909b99" d="M0 0h400v200H0z"/><g transform="translate(1 1) scale(1.5625)"><ellipse fill="#90e2ff" cx="183" cy="12" rx="70" ry="38"/><ellipse fill="#002c34" rx="1" ry="1" transform="matrix(4.79567 -9.05745 58.82559 31.14655 48 62)"/><ellipse fill="#fff" rx="1" ry="1" transform="matrix(58.75368 29.45079 -4.66673 9.31001 32 76)"/><ellipse fill="#04343d" rx="1" ry="1" transform="matrix(-4.80207 11.84951 -123.83415 -50.18436 23 105)"/><ellipse fill="#fff" rx="1" ry="1" transform="matrix(-28.17603 -25.36981 9.75574 -10.83484 175 127)"/><path fill="#fff" d="M1 0l152 95-6 9L-5 9z"/><ellipse fill="#080000" rx="1" ry="1" transform="matrix(-41.9497 17.47505 -1.99698 -4.79385 241 106)"/><ellipse fill="#6a584e" rx="1" ry="1" transform="matrix(2.75567 7.30112 -107.74169 40.66509 112 108)"/><ellipse fill="#194041" rx="1" ry="1" transform="matrix(-3.49232 5.4635 -89.52257 -57.22364 115 62)"/><ellipse fill="#fffffb" rx="1" ry="1" transform="matrix(68.66661 48.2597 -2.81497 4.0053 106 37)"/><path fill="#172d27" d="M79 11l4-7 104 73-4 7z"/><path fill="#fff" d="M-16 103l73 30-73 5z"/><ellipse fill="#90756c" rx="1" ry="1" transform="matrix(72.42311 -39.65952 14.11032 25.76716 240 66)"/><path fill="#fff7ee" d="M185 72L74-14l104 57-3 6z"/><path fill="#3e453b" d="M112 83l-3 43-17-1 3-43z"/><path d="M212 93l-1-3 53-24 1 2z"/><path fill="#270500" d="M23 34l-39 2 28 18z"/><ellipse fill="#d1905a" rx="1" ry="1" transform="matrix(2.05423 -2.8274 57.18749 41.54914 128 31)"/><path fill="#6a4728" d="M90 37L30 19l4-20z"/><ellipse fill="#f9eee4" rx="1" ry="1" transform="matrix(-.77913 -1.67085 175.20685 -81.7003 204 100)"/><ellipse fill="#e4a260" rx="1" ry="1" transform="rotate(-60 80 -27) scale(4.08539 73.00224)"/><path fill="#fff5f0" d="M229 118l42-15-12 11-80 28z"/><ellipse fill="#0084ae" rx="1" ry="1" transform="matrix(-1.98344 3.11338 -39.91805 -25.4306 99 56)"/><ellipse fill="#017fa4" rx="1" ry="1" transform="matrix(-45.97064 -24.51519 2.63713 -4.94512 60 74)"/><path fill="#fff1e5" d="M165 143l-25-58 23 19 36 25z"/></g></svg>