<svg xmlns="http://www.w3.org/2000/svg" viewBox="0 0 400 200"><path fill="#909b99" d="M0 0h400v200H0z"/><path fill="#002731" d="M182 142l-13 23L-5 69 8 46z"/><path fill="#fff" d="M144 151l-12 24-177-90 12-24z"/><path fill="#89dfff" d="M209 15l170-76 42 95-170 75z"/><path fill="#05333b" d="M-23 117l191 81-15 36-191-81z"/><path fill="#fff" d="M236 163L-11 14l8-13 247 149zm57 64l-69-42 19-30 69 43z"/><path fill="#2c1003" d="M304 183l108-43 7 19-107 43z"/><path fill="#001f26" d="M149 84l9-13 107 75-9 13z"/><path fill="#fff" d="M84 6l6-9 162 114-6 9z"/><path fill="#33362a" d="M99-18l224 162-8 10L92-8z"/><path fill="#1a3632" d="M142 84L39 22 50 5l103 62z"/><path fill="#fff" d="M138-24L292 91l-10 13L129-12zM71 202l-9 23-72-29 9-23z"/><path fill="#90766c" d="M387 63l34 80-122 52-34-80z"/><path fill="#574133" d="M183 193l-46 21-18-40 45-21z"/><path fill="#080000" d="M322 152l-3-5 117-57 3 6z"/><path fill="#030000" d="M-14 69l7-15 35 16-7 15z"/><path fill="#fff" d="M269 231l-3-8 145-55 2 7z"/><path fill="#0082ab" d="M230 139L107 65l5-8 123 74z"/><path fill="#fff0e3" d="M268 198l-34 5-7-47 34-4z"/><path fill="#fff" d="M404 120l-152 71-1-3 151-71z"/><path fill="#67c1e9" d="M236 1l-25 34-48-34 24-35z"/><path fill="#0080a5" d="M163 147l-7 12L23 83l7-12z"/><path fill="#fff4eb" d="M16 87l125 64-12 23L4 110z"/><path fill="#726363" d="M320 86l103-55 15 29-103 55z"/><path fill="#e6a260" d="M123 181L-94 84l4-10 217 97z"/><path fill="#cdbcb1" d="M266 148l56-28 7 15-55 28z"/><path fill="#747074" d="M198 191l-4-42 35-3 3 42z"/><path fill="#020000" d="M280 139l-30 16-3-5 30-16z"/><path fill="#f5ab64" d="M-18 18l203 117-3 5L-21 23z"/><path fill="#fffffd" d="M272 135L66-9l4-6 206 145z"/><path fill="#f2c29d" d="M270 106l-73-53 10-14 73 53z"/><path fill="#b97943" d="M65-5l38 27-13 19-39-27z"/><path fill="#181104" d="M278 140l-1-1 178-87 1 1z"/><path fill="#3c2c14" d="M360 133l-91 41-3-6 92-40z"/><path fill="#fffff5" d="M183 115l-7 11L6 24l7-11z"/><path fill="#fffffe" d="M437 66l1 1-173 84-1-1z"/><path fill="#684b2d" d="M124 121L-24 35l4-8 149 86z"/><path fill="#e7a361" d="M258 128l-5 6L103 33l5-6z"/><path fill="#016183" d="M86 203l-108-44 6-16 109 44z"/><path fill="#83b6d0" d="M73 174l-2 4-86-44 2-4z"/><path fill="#2d251b" d="M428 143l5 14-116 42-5-13z"/><path fill="#432500" d="M108 185l-96-45 3-7 97 45z"/><path fill="#7cbad7" d="M243 37l60-35 40 69-60 35z"/><path fill="#e3ecf0" d="M228 61l17-21 35 29-17 20z"/><path fill="#25271f" d="M282 117l-6 7-47-36 6-7z"/><path fill="#f9ede3" d="M347 143l-119 55-1-1 119-56z"/><path fill="#fff" d="M2 174l89 37-4 11-89-38z"/><path fill="#a4a2a3" d="M313 186l-4-10 63-29 5 9z"/><path fill="#523936" d="M488 155l-247 95-2-6 246-95z"/><path fill="#ebad74" d="M104-13l5-6 92 65-5 6z"/><path fill="#372416" d="M266 151l-41-10 4-15 41 10z"/><path fill="#a5c9db" d="M42 27L2 4l17-30L59-2z"/><path fill="#70665f" d="M84 248l-22-42 105-55 22 41z"/><path fill="#fce9de" d="M240 194l13-26 65 33-13 27z"/><path fill="#85858a" d="M174 211l-2-62 59-2 2 62z"/><path fill="#fffcf4" d="M173 144v-1l62 2v1z"/><path fill="#e2ddd5" d="M478 17v1l-167 89v-2z"/><path fill="#109abe" d="M141 28l1-2 96 73-1 1z"/><path fill="#492f1b" d="M96 40l-5 9-42-22 5-9z"/><path fill="#4e3413" d="M116 104l61 37-4 6-61-36z"/><path fill="#dfe6ec" d="M89 55l5-5 40 37-5 6z"/><path fill="#283c39" d="M187 61l-51-40 6-9 52 41z"/><path fill="#fffffa" d="M213 145l-38-22 4-7 38 22z"/><path fill="#b18b6a" d="M-10 41L1 23l32 19-10 18z"/><path fill="#f9f0ea" d="M152 152l1 6-31 8-2-6z"/><path fill="#72a1b8" d="M146 133l-1 1L28 69v-1z"/><path fill="#fffdf8" d="M121-25l3-4 104 87-3 4z"/><path fill="#a7815c" d="M207 47l85 69-3 4-85-69z"/><path fill="#c2deec" d="M139 67l-15-8 1-3 15 8z"/><path fill="#79bad7" d="M422 31L297 94 251 5l126-63z"/><path fill="#341f09" d="M-1 52l28 16-9 16-28-16z"/><path fill="#057d9d" d="M147 79l-5 7-50-35 5-7z"/><path fill="#b3a092" d="M270 125l52-25 4 8-52 25z"/><path fill="#b0927e" d="M261 147l10 6-8 15-11-7z"/><path fill="#5a4124" d="M205 110L96 31l1-2 109 79z"/><path fill="#0a1113" d="M268 121l-2-4 20-9 2 5z"/><path fill="#fff8ea" d="M419 186l1 3-40 14-1-3z"/><path fill="#cce3ec" d="M200 35l47-28 4 7-47 28z"/><path fill="#eddbd1" d="M18 10l1-1 89 58-1 1z"/><path fill="#a7b5ba" d="M17 139l-4 10-29-12 4-10z"/><path fill="#f2e5db" d="M77-9l31 6-3 14-30-6z"/><path fill="#867d78" d="M415 143l-117 47-8-19 117-47z"/><path fill="#418499" d="M99 181l-12 27-28-13 12-27z"/><path fill="#2f290d" d="M102 102L30 57l1-1 72 45z"/><path fill="#fffbea" d="M288 102l-3 4-18-12 2-4z"/><path fill="#f6edeb" d="M16 119l-30-19 9-14 30 19z"/><path fill="#8bb4cb" d="M211 67l12 8-8 10-11-8z"/><path fill="#3b2607" d="M-17 119l1-2 38 19-1 1z"/><path fill="#cfa880" d="M74 8l51 27-4 9-51-28z"/><path fill="#6aabc0" d="M273 76l23 18-5 6-23-18z"/><path fill="#676056" d="M162 152l9 16-103 62-10-16z"/><path fill="#afa199" d="M77 127l-91-51 1-1 91 50z"/><path fill="#057d9a" d="M135 75l82 57-1 1-81-57z"/><path fill="#e6e4db" d="M416 118l-64 21-1-2 64-21z"/><path fill="#d4cac1" d="M253 162l-53-36 2-2 53 36z"/><path fill="#313024" d="M141 13l7 6-10 10-6-6z"/><path fill="#cca87d" d="M102 82l55 36-5 8-55-36z"/><path fill="#ede2dc" d="M263 227l-31-29 31-33 31 29z"/><path fill="#57452e" d="M201 104l40 23-3 5-40-23z"/><path fill="#938e89" d="M322 101l52-27 6 11-53 27z"/><path fill="#2e3c3c" d="M191 52l21 13-4 7-21-14z"/><path fill="#bf9c7a" d="M153 4l-3 11L89-3l3-10z"/><path fill="#3e8da8" d="M29 5l-4 6L4-3l4-6z"/><path fill="#dfd3ca" d="M290 137l-59 32-1-2 59-31z"/><path fill="#73b1c8" d="M201 32L185-8l31-13 17 40z"/><path fill="#cea97f" d="M-4 119l4-8 115 56-4 8z"/><path fill="#2f7d90" d="M32 89l92 51-1 1-92-51z"/><path fill="#e7b279" d="M178 142l1-9 14 1-1 10z"/><path fill="#74553a" d="M280 178l19-9v2l-18 8z"/><path fill="#be9364" d="M103 88L7 27l1-1 96 61z"/><path fill="#a8897a" d="M-6 188l1-1 43 17v2z"/><path fill="#9d9088" d="M266 170l-7-14 93-46 6 14z"/><path fill="#72747a" d="M63-3l5 5-24 21-4-5z"/><path fill="#fff3e1" d="M268 129l-1 1-37-23 1-2z"/><path fill="#2a4141" d="M152 68l5 4-8 8-4-4z"/><path fill="#1583a3" d="M259 111l-1 1-43-30 1-2z"/><path fill="#534a3f" d="M298 155l56-27 3 6-57 27z"/><path fill="#74b2cb" d="M288-17l13 68-43 8-13-67z"/><path fill="#f6efe7" d="M437 105v2l-159 67-1-1z"/><path fill="#a0c8d8" d="M252 56l-5 7-35-23 5-8z"/><path fill="#888c90" d="M173 155l50 3-4 76-50-3z"/><path fill="#b2a49b" d="M150 163l-1 1-54-31 1-2z"/><path fill="#584939" d="M142 29L109 6l4-5 33 23z"/><path fill="#f3f1f0" d="M130 159l-6 11-81-43 6-11z"/><path fill="#f5eae1" d="M-6 19L2 5l18 9-7 14z"/><path fill="#cec8c1" d="M251 158L0 1l1-1 250 157z"/><path fill="#382811" d="M307 153l-34 19-1-1 35-19z"/><path fill="#353934" d="M89 27l12 6-10 20-12-7z"/><path fill="#f9e7e0" d="M319 205l96-38 2 4-96 39z"/><path fill="#fff2e0" d="M235 111L78 1l1-1 157 110z"/><path fill="#9e9894" d="M360 165l-47 21-6-15 47-21z"/><path fill="#2a4655" d="M151 29l110 80-1 1-110-80z"/><path fill="#91796f" d="M338 78l-50 29-2-3 50-28z"/><path fill="#796c70" d="M343 75l76-46 6 10-77 46z"/><path fill="#6f766f" d="M-34 123l1-2 106 45-1 2z"/><path fill="#fcffff" d="M140 152l-1 2L-4 77l1-1z"/><path fill="#746656" d="M274 126l8 3-4 12-8-3z"/><path fill="#5d5d55" d="M143 203l8-51 23 3-8 51z"/><path fill="#dfeced" d="M188 23l-3-3 10-10 3 3z"/><path fill="#363117" d="M81 85l92 53-2 3-92-53z"/><path fill="#185566" d="M62 174l-5 13-77-31 5-13z"/><path fill="#6a6160" d="M407 84l1 1-70 36v-2z"/><path fill="#3a3320" d="M429 95l3 5-72 35-3-6z"/><path fill="#cfe0e6" d="M281 79l-21 2-2-21 21-2z"/><path fill="#6b615a" d="M295 173v-2l115-48v1z"/><path fill="#fffffc" d="M52 204l-56-24 3-7 56 24zm73-60l25 13-1 1-25-13z"/><path fill="#228097" d="M138 27l1-1 65 45-1 2z"/><path fill="#4a3725" d="M318 191l-10 5-3-7 10-5z"/><path fill="#615c55" d="M288 114l-1-2 139-71 1 2z"/><path fill="#a68767" d="M244 120l21 13-4 5-21-13z"/><path fill="#faefe9" d="M235 204l-4-53h8l4 53z"/><path fill="#b29573" d="M191 84L72 3l1-1 119 81z"/><path fill="#73695f" d="M279 124l109-58v2l-108 58z"/><path fill="#f8f1e7" d="M268 96l-67-54 1-2 67 54z"/><path fill="#b29c86" d="M274 124l15-9 7 12-15 9z"/><path fill="#cdad8d" d="M218 59l38 33-4 4-37-33z"/><path fill="#74afc5" d="M225 24L162 4l9-27 62 21z"/><path fill="#f4eeea" d="M149 2l2-3 130 98-2 2z"/><path fill="#cbccc7" d="M200 76L73-16l1-2 126 92z"/><path fill="#6c543b" d="M-1 46l24 14-5 8-24-14z"/><path fill="#faf1ea" d="M204 142L92 75l5-10 113 68z"/><path fill="#c5a27e" d="M122-8l4-5 79 60-4 5z"/><path fill="#e6d7c8" d="M316 206l-51-31 2-4 51 31z"/><path fill="#097e9a" d="M155 92l2-4 71 43-2 4z"/><path fill="#94b1bc" d="M221 86l-4 2-11-22 4-2z"/><path fill="#c29f76" d="M188 142l-38-24 4-6 38 25z"/><path fill="#0c0f05" d="M35 59L9 81l-1-1 26-22z"/><path fill="#4a3517" d="M151 67l116 79-1 1-116-79z"/><path fill="#c8a87f" d="M109 34l91 64-1 1-91-64z"/><path fill="#4f646e" d="M170 147l-1 2L63 82l1-1z"/><path fill="#838687" d="M234 252l-38 2-3-108 37-1z"/><path fill="#7c6447" d="M94 27l-2 9-47-11 2-10z"/><path fill="#181f24" d="M255 153l-31-18 1-2 31 18z"/><path fill="#fef0e6" d="M237 103l34 25v1l-35-24z"/><path fill="#d6cec7" d="M177 145v-2l51-2v1z"/><path fill="#1b697e" d="M89 120L22 86l3-7 67 34z"/><path fill="#e4f3f6" d="M251 10l-15 12-1-3 15-11z"/><path fill="#8e9ba6" d="M110-7l8 6-8 10-7-6z"/><path fill="#9b8c76" d="M189 81l62 42-1 1-62-42z"/><path fill="#434945" d="M240 86l-6 7-19-15 6-7z"/><path fill="#acd6ea" d="M228 10l-3-4 21-14 2 3z"/><path fill="#42afce" d="M157 86l-1 1-15-8 1-2z"/><path fill="#617181" d="M62 84l-1 2-31-22 1-1z"/><path fill="#59462c" d="M70 1l1 1-24 24-1-1z"/><path fill="#bfb2ab" d="M59 116l1-2 79 41v1z"/><path fill="#066d86" d="M92 108l45 26-6 10-44-27z"/><path fill="#556369" d="M248 139l-1 1-109-71 1-1z"/><path fill="#89acbc" d="M-8 131l21 9-3 8-22-8z"/><path fill="#74b7d0" d="M73 207h-2l5-19 1 1z"/><path fill="#8b6d57" d="M285 172l15 8-3 6-15-8z"/><path fill="#fffff6" d="M143 159l1 1-8 5v-1z"/><path fill="#5f4135" d="M350 218l97-39 1 1-97 40z"/><path fill="#2b2c1d" d="M106 177l-3 6-35-18 2-5z"/><path fill="#b3d0e0" d="M34 21l-4-3 38-38 3 4z"/><path fill="#a1b8bf" d="M124 53l1-1 15 16-1 1z"/><path fill="#488aa4" d="M92 45l5-5 13 13-6 6z"/><path fill="#4e4129" d="M159 31l1-2 64 45-1 1z"/><path fill="#68a8be" d="M215 46l11-16 1 1-10 16z"/><path fill="#111617" d="M22 83l-2 3-31-21 2-2z"/><path fill="#ece6df" d="M275 124l-1-1 59-30 1 1z"/><path fill="#d2d2cc" d="M199 74l1-1 65 48-1 1z"/><path fill="#46422f" d="M124 116L53 74l3-4 71 42z"/><path fill="#eae2da" d="M359 136v1l-69 35-1-1z"/><path fill="#8e8482" d="M396 47l3 6-103 55-3-6z"/><path fill="#89c2db" d="M441-28l-1 60-117-2 1-60z"/><path fill="#5d8c9c" d="M37 154l62 33v1l-62-33z"/><path fill="#c7ae93" d="M216 66l-72-54 1-1 71 54z"/><path fill="#ede8e4" d="M118 147l-8 15-117-57 8-15z"/><path fill="#b29271" d="M101 21l-9 13L60 9l9-13z"/><path fill="#17130c" d="M275 138l1 1-22 12-1-1z"/><path fill="#b1d2df" d="M261 49l-16 10-8-13 16-10z"/><path fill="#a8928c" d="M433 156v2l-130 50v-2z"/><path fill="#463925" d="M269 170l57-27v1l-56 27z"/><path fill="#335a66" d="M92 40v-1l56 38-1 2z"/><path fill="#8f7d6d" d="M265 166l-12-4 3-8 11 5z"/><path fill="#b6a8a6" d="M168 146v-2l9 2v2z"/><path fill="#847a72" d="M252 160l116-57 1 1-117 57z"/><path fill="#e3c19c" d="M120 173l-1 3-12-4 1-3z"/><path fill="#3c3019" d="M43 145l-1 1-46-20 1-2z"/><path fill="#867f7f" d="M361 165l-7-16 55-22 7 16z"/><path fill="#9a8d85" d="M297 128l-5-8 47-25 5 8z"/><path fill="#f9e4d6" d="M20 200l-3 8-23-9 3-9z"/><path fill="#6f5f42" d="M241 95l1-1 50 19-1 1z"/><path fill="#a9c8d7" d="M262 78l13-8 6 10-14 7z"/><path fill="#e6fdfd" d="M23 90l41 20-1 2-41-21z"/><path fill="#51524b" d="M167 238h-2l7-97h2z"/><path fill="#9e8a72" d="M-6 110l1-1 125 61-1 1z"/><path fill="#fff" d="M101 0h3v2h-3z"/><path fill="#1d3a42" d="M20 136l-5 21-2-1 5-21z"/><path fill="#6ab0ca" d="M262 35l-19 5-4-14 20-5z"/><path fill="#ab9d94" d="M263 167l-4-10 64-29 4 10z"/><path fill="#fff8f7" d="M174 145v-2l50 1v2z"/><path fill="#177890" d="M117 69l2-4 100 65-2 4z"/><path fill="#303b3f" d="M236 145l5-12 16 8-6 11z"/><path fill="#82bad1" d="M346-13l-16 94-53-10 17-94z"/><path fill="#78a4bb" d="M25 156l-46-21 1-2 45 21z"/><path fill="#f4eee7" d="M99 11l152 102-2 3L98 14z"/><path fill="#beaeab" d="M345 209l92-30 1 1-92 30z"/><path fill="#3b342e" d="M431 137l5 11-71 32-5-11z"/><path fill="#177891" d="M139 130l21 17-7 9-21-17z"/><path fill="#4c575d" d="M232 139l10-4 2 6-10 4z"/><path fill="#564e4d" d="M352 203l62-25 1 2-62 25z"/><path fill="#1c2316" d="M49 147h1l-3 14h-2z"/><path fill="#74583b" d="M259 137l3-6 9 6-3 5z"/><path fill="#cdb292" d="M127 50l-22-15 4-5 22 15z"/><path fill="#8c8e91" d="M171 247l2-102h17l-2 102z"/><path fill="#8d9f9e" d="M124 52l17 12-1 2-17-13z"/><path fill="#b2977d" d="M28 58L5 44l6-9 23 13z"/><path fill="#858a8b" d="M63 2l1 1-22 22-1-1z"/><path fill="#d4af84" d="M107 174l-84-41 3-6 84 41z"/><path fill="#5b666d" d="M218 80l-39-32 1-1 39 31z"/><path fill="#226074" d="M33 184l-45-18 3-8 45 19z"/><path fill="#a3bec7" d="M396 41l-111 62-1-2 111-61z"/><path fill="#3e4848" d="M4-3L2 5l-4-1 1-8z"/><path fill="#121610" d="M131 23l1-6 8 2-2 6z"/><path fill="#463b22" d="M93 32l1-2 33 21-1 1z"/><path fill="#67615b" d="M96 233l-16-35 73-33 16 36z"/><path fill="#19657a" d="M79 180l-7 14-24-10 6-14z"/><path fill="#65614c" d="M17 139l56 25-1 2-56-25z"/><path fill="#71949d" d="M185 156l-1 1-73-42v-2z"/><path fill="#cad0cf" d="M271 89L108-39l1-1L272 88z"/><path fill="#ba9b76" d="M142 117l44 26-1 1-44-26z"/><path fill="#d8cfcb" d="M431 167v1l-63 26-1-1z"/><path fill="#b7b9b0" d="M216 70l-1 1-8-5 1-1z"/><path fill="#f5e9e1" d="M418 76l-89 45-1-1 89-46z"/><path fill="#544736" d="M303 188l12 4-1 3-12-4z"/><path fill="#646c6a" d="M134 124l-20-14 1-1 19 13z"/><path fill="#454b49" d="M77 93l2-4 39 23-2 4z"/><path fill="#fff5ec" d="M283 107l2-6h2l-2 6z"/><path fill="#e8f2ef" d="M100 133l1-2 50 26v1z"/><path fill="#071316" d="M239 136l-4 5-6-4 3-5z"/><path fill="#908789" d="M339 97l104-55 3 7-103 55z"/><path fill="#1a211c" d="M95 31l1 1-15 16-1-1z"/><path fill="#666f72" d="M104 48l-12-4 3-9 12 4z"/><path fill="#473629" d="M56 27l25 19-1 1-25-19z"/><path fill="#98c5d6" d="M243 19l-6 34-7-2 7-33z"/><path fill="#2e2924" d="M374 94l-1-1 52-29 1 1z"/><path fill="#454027" d="M179 45l-1 1-40-33 1-1z"/><path fill="#8e7e6c" d="M310 167l7 18-16 6-7-18z"/><path fill="#4f4437" d="M38 21v-2l51 21-1 2z"/><path fill="#a27f5a" d="M122 1l17 10-4 5-16-9z"/><path fill="#d8bfa4" d="M108 87l-1 1-60-39 1-1z"/><path fill="#efe0d3" d="M268 131l-1 2-43-32 1-1z"/><path fill="#393c34" d="M134 125l1-1 33 18-1 1z"/><path fill="#5e6564" d="M181 97l-38-26 2-4 39 26z"/><path d="M89 50v1l-5-2 1-2z"/><path fill="#646865" d="M193 59l-54-40 1-1 54 39z"/><path fill="#0e1615" d="M254 138l8-1 1 11-8 1z"/><path fill="#116377" d="M72 112L40 93l5-9 33 18z"/><path fill="#c9d0d3" d="M101 62l1-1 61 41-1 1z"/><path fill="#e9e1db" d="M235 200l7-35 28 5-7 36z"/><path fill="#857c65" d="M16 136l-1 2-23-10 1-2z"/><path fill="#b59c7d" d="M261 136l-1 1-35-21 1-2z"/><path fill="#6c686b" d="M435 27l-80 40-1-1 80-41z"/><path fill="#b59976" d="M193 141L30 43v-1l164 98z"/><path fill="#e7e1de" d="M26 123l-39-18 8-17 38 17z"/><path fill="#c9a885" d="M273 107l-1 1-28-25 1-2z"/><path fill="#36290f" d="M17 135l1-1 39 20-1 1z"/><path fill="#b8d7e1" d="M282 56l1 4-16 5-2-5z"/><path fill="#2d7585" d="M146 152l-22-13 1-2 21 13z"/><path fill="#be976b" d="M22 135l-34-19 1-2 34 18z"/><path fill="#8aacc0" d="M102 58l-1 1-11-9 1-1z"/><path fill="#4f4333" d="M271 143l-1-1 23-12 1 2z"/><path fill="#a89790" d="M57 210L1 190v-2l56 21z"/><path fill="#feebe2" d="M346 212l81-27 1 2-82 26z"/><path fill="#7ab4ca" d="M275 88l37-34 12 13-38 34z"/><path fill="#7badc1" d="M34-10l1 20-14 1-1-20z"/><path fill="#6d7376" d="M238 142l9-5 1 1-10 5z"/><path fill="#deebef" d="M273 76l-17-1 1-12 17 1z"/><path fill="#70acc4" d="M215 9l-44 1V-7l43-2z"/><path fill="#6e746d" d="M268 112l-1 1-46-33 1-1z"/><path fill="#e4dad1" d="M235 166l40-22 1 1-40 22z"/><path fill="#e9d9d0" d="M69 119L4 84l1-2 64 36z"/><path fill="#348ca2" d="M262 115l-1 1-30-23 1-1z"/><path fill="#3c3b2f" d="M197 64l-4-7 5-3 4 6z"/><path fill="#b2a79e" d="M30 100l-1 2-32-20 1-1z"/><path fill="#6f5a42" d="M136 17l-5 6-19-17 6-6z"/><path fill="#6a655c" d="M379 126l-53 23v-1l52-24z"/><path fill="#d9d5ce" d="M373 133l-1-2 32-15 1 1z"/><path fill="#0c6173" d="M77 192l4-5 6 4-3 5z"/><path fill="#928883" d="M302 121l-4-7 36-21 4 7z"/><path fill="#c19d7b" d="M104 34L72 15l3-6 33 18z"/><path fill="#4b4336" d="M420 104l1 2-136 60-1-1z"/><path fill="#997d5c" d="M74 27L58 15l4-6 16 12z"/><path fill="#a48a70" d="M1 21l9 6-9 16-10-6z"/><path fill="#c7b49b" d="M125 172l-11 6-3-4 11-6z"/><path fill="#6c6d65" d="M166 152l2 2-60 34-2-3z"/><path fill="#007797" d="M102 54l2-3 14 12-2 3z"/><path fill="#ccac85" d="M94 84l-4 5-51-33 4-6z"/><path fill="#1c575f" d="M226 128l-1 1-68-46 1-1z"/><path fill="#eadfdb" d="M1 12l4-5 58 36-4 5z"/><path fill="#a58d71" d="M231 71L129-9l1-1 102 80z"/><path fill="#dae8ef" d="M210 41l4-12 3 1-4 12z"/><path fill="#7db9d0" d="M292 94l-7-12L432 7l6 13z"/><path fill="#84888a" d="M190 250l-3-100 43-1 4 100z"/><path fill="#847e7a" d="M326 162l-2-4 42-18 2 4z"/><path fill="#363029" d="M314 199l-1-1 81-33 1 1z"/><path fill="#9a9087" d="M295 108l-4-8 25-13 4 9z"/><path fill="#69645e" d="M274 135h-1l1-9h2z"/><path fill="#f1e9e4" d="M40 43l5-10 58 35-6 9z"/><path fill="#8b8586" d="M349 129l-5-10 106-47 4 10z"/><path fill="#c6aa8a" d="M262 99l-1 1L121-13l1-1z"/><path fill="#7eb6ca" d="M233-24h2l-13 66-2-1z"/><path fill="#7d7572" d="M413 138l-35 15-5-11 35-16z"/><path fill="#f5e9d9" d="M223 142l-1 2-16-13 1-1z"/><path fill="#000c0e" d="M22 82l-9-4 4-8 9 3z"/><path fill="#b6b0a7" d="M231 176h2v40h-1z"/><path fill="#94c9d3" d="M83 120v1l-30-17 1-2z"/><path fill="#243339" d="M277 117h-14v-4l14-1z"/><path fill="#000c1e" d="M88 51l3-7h1l-3 8z"/><path fill="#57472f" d="M263 106l-41-31 1-1 41 30z"/><path fill="#247d91" d="M153 147l11-6 4 7-12 6z"/><path fill="#e9f3f6" d="M244 20l-5-9 3-2 5 10z"/><path fill="#fdf8f6" d="M20 191l2-6 65 23-2 5z"/><path fill="#ac9375" d="M265 92l9 6-6 8-9-6z"/><path fill="#5b7378" d="M81 49l8-7 1 1-8 7z"/><path fill="#1b2621" d="M66 88l-2-1 3-7h2z"/><path fill="#21677e" d="M64 193l-1 2-41-17 1-3z"/><path fill="#eee4da" d="M287 138l55-26 1 1-55 27z"/><path fill="#697569" d="M68 169v-5h6v5z"/><path fill="#3b7686" d="M9 173l1-1 48 22-1 1z"/><path fill="#9facc1" d="M140 70l-8-5 1-2 8 5z"/><path fill="#8f775d" d="M4 27l1-1 55 33-1 1z"/><path fill="#6f787f" d="M39 24l-1-1 37-36 1 1z"/><path fill="#aab7bc" d="M208 67l1-1 9 9-1 1z"/><path fill="#caaa86" d="M161 71l3-4 42 29-2 4z"/><path fill="#6c6461" d="M364 80l54-28 1 1-54 28z"/><path fill="#f1ebe6" d="M117 27l4-7 67 49-5 6z"/><path fill="#228390" d="M159 41l1-1 48 36-1 1z"/><path fill="#917860" d="M265 141l-16-13 3-5 17 13z"/><path fill="#e6e1dd" d="M-6 16L1 4l35 22-8 12z"/><path fill="#dae8ed" d="M248 51l-8 6-5-7 8-5z"/><path fill="#7b736e" d="M330 89l-3-8 23-9 3 7z"/><path fill="#4b778f" d="M224 135l-1 2-8-5 1-2z"/><path fill="#337b90" d="M27 75l17 6-3 11-18-6z"/><path fill="#ddcfc9" d="M66 210l-1 2-107-39v-2z"/><path fill="#248dac" d="M90 192l-17-9 1-2 16 10z"/><path fill="#ece7e3" d="M122 153l2-3 18 12-2 2z"/><path fill="#48351a" d="M65 157v-1l47 23-1 1z"/><path fill="#7b694e" d="M91 33l-3 5-34-19 3-5z"/><path fill="#7db4ca" d="M193 21l36-16 4 10-36 16z"/><path fill="#2e3228" d="M166 36l1-2 13 9-2 3z"/><path fill="#4f4235" d="M309 188l22-10 5 11-21 10z"/><path fill="#f4eae5" d="M183 24l-2 3-63-49 2-3z"/><path fill="#cdcac4" d="M181 142v-2l52 4v2z"/><path fill="#103e55" d="M136 22l1-1 26 18-1 1z"/><path fill="#efe6e0" d="M255 203l-12 3-12-52 12-2z"/><path fill="#ebded7" d="M270 90l2-2 16 17-2 2z"/><path fill="#5c5a58" d="M288 110l3-6 1 1-3 5z"/><path fill="#887356" d="M34 140l-1 1-34-17 1-1z"/><path fill="#968e8d" d="M328 167l36-24 7 11-37 23z"/><path fill="#c9dde2" d="M195 25h-11V11h12z"/><path fill="#666459" d="M167 142l8 1-6 42-8-1z"/><path fill="#372f27" d="M286 116h-5v-2l5-1z"/><path fill="#8a7155" d="M3 49l3-5 24 12-3 5z"/><path fill="#44483d" d="M124 53l-1 1-24-18 1-1z"/><path fill="#8ec2d2" d="M271 60l-35-21 1-1 35 21z"/><path fill="#d4c3b4" d="M103 5l27 18v2L102 6z"/><path fill="#73b3cd" d="M236-6l39-1V7l-39 1z"/><path fill="#0a768f" d="M160 88l41 28-3 4-41-28z"/><path fill="#3b2b12" d="M34 56l1 1-14 10-1-1z"/><path fill="#1e5769" d="M-9 162l6-16 32 12-6 16z"/><path fill="#524a37" d="M265 143l-3-6 9-3 2 5z"/><path fill="#9d8979" d="M309 110l-34 27-1-1 34-28z"/><path fill="#7d7f7d" d="M4 76l17 11-1 1L3 77z"/><path fill="#9ebfce" d="M52 6l-7 6L28-4l7-7z"/><path fill="#9f9995" d="M334 127l3 6-32 16-3-5z"/><path fill="#ece5da" d="M240 74L156 8l2-2 84 65z"/><path fill="#5f7789" d="M142 20l1 1-2 7h-1z"/><path fill="#2f2f26" d="M106 107l3-4 8 7-2 4z"/><path fill="#848e8c" d="M17 136l-1 6-22-4 1-6z"/><path fill="#9c978f" d="M373 129l-35 17v-1l35-18z"/><path fill="#352b26" d="M406 78l-13 6-1-1 13-6z"/><path fill="#514430" d="M198 102l-64-45 1-1 64 45z"/><path fill="#afd3dd" d="M239 15l6 7-13 11-6-7z"/><path fill="#f1e4dc" d="M95 14l5-8 19 13-4 8z"/><path fill="#0e3542" d="M170 44l1-1 20 18-1 1z"/><path fill="#42382b" d="M449 89l-99 44v-2l98-43z"/><path fill="#769ca7" d="M99 188l-38-17 1-1 38 17z"/><path fill="#d4cec8" d="M362 79l73-42 1 1-73 42z"/><path fill="#352e23" d="M10 79l-21-8 6-14 21 8z"/><path fill="#526970" d="M34 60l-5 16h-2l5-16z"/><path fill="#a7a397" d="M295 165l-1-2 37-17 1 2z"/><path fill="#1c2414" d="M47 151l3 1-2 5-3-1z"/><path fill="#09171d" d="M270 121l-1-3h7v3z"/><path fill="#e1d7d3" d="M268 223v-2l125-45v1z"/><path fill="#2a5c6b" d="M79 181l-1 2-18-10 1-1z"/><path fill="#cca981" d="M90 86l3-4 34 24-2 4z"/><path fill="#564e4c" d="M367 73l48-27 1 2-48 26z"/><path fill="#c8bebb" d="M157 99L84 54l1-2 73 46z"/><path fill="#247b93" d="M79 115l3-10 13 3-3 11z"/><path fill="#a18972" d="M134 9l-2 2-20-12 1-2z"/><path fill="#8c8482" d="M339 192l95-37v2l-94 36z"/><path fill="#a3b6ba" d="M273 90l1-2 11 9-1 1z"/><path fill="#6d6764" d="M337 153l70-31 1 1-70 32z"/><path fill="#3e3222" d="M265 145l46-24 1 2-46 23z"/><path fill="#554b31" d="M208 63l-1 1-64-48 2-1z"/><path fill="#bea68a" d="M204 56l-19-12 1-1 18 11z"/><path fill="#4c9fae" d="M140 85l5-10 1 1-5 10z"/><path fill="#697d7e" d="M172 145l-26 19-1-1 26-20z"/><path fill="#968778" d="M251 159l40-18v1l-39 19z"/><path fill="#191205" d="M271 109l10 7-1 2-10-8z"/><path fill="#315364" d="M224 82l-35-20 1-2 35 21z"/><path fill="#ece7e2" d="M138-13l86 64-1 2-86-65z"/><path fill="#38312c" d="M346 188l-2-5 84-32 1 5z"/><path fill="#317081" d="M78 98l87 48-1 2-87-49z"/><path fill="#433a23" d="M141 122l1-1 34 21-1 1z"/><path fill="#aea59f" d="M393 85l1 2-48 23-1-1z"/><path fill="#a59c92" d="M257 153l43-24v1l-42 24z"/><path fill="#3385a0" d="M67 182l3 1-5 12-2-2z"/><path fill="#90a9b1" d="M138 69l-15-11 3-4 15 11z"/><path fill="#cef5fe" d="M108 135l-30-17 1-1 29 17z"/><path fill="#e1d7cc" d="M272 145v1l-17 11-1-2z"/><path fill="#e3e0dc" d="M347 142l38-15v1l-37 16z"/><path fill="#6e9ca6" d="M167 102l1-1 60 39-1 1z"/><path fill="#707f7e" d="M172 91l-12-10 1-1 12 9z"/><path fill="#817a78" d="M386 81l-17 10-7-11 18-10z"/><path fill="#e9dfd8" d="M299 233l-64-34 18-33 63 34z"/><path fill="#bcaea4" d="M54 35l1-3 24 16-2 2z"/><path fill="#6b7177" d="M95 41l2-4 22 15-2 4z"/><path fill="#3b849c" d="M98 45l1 1-8 8-1-2z"/><path fill="#928b8a" d="M370 162l-23 9-6-16 23-9z"/><path fill="#fbf4f1" d="M23 191l-40-14 2-4 40 14z"/><path fill="#067182" d="M104 59v-1l38 16-1 1z"/><path fill="#e8e5e1" d="M117 157l10-7 10 14-10 7z"/><path fill="#d7d0c9" d="M390 63l1 2-108 54v-1z"/><path fill="#847c7d" d="M375 85l-5-8 23-14 4 8z"/><path fill="#518fa4" d="M23 1l-6 7L7 1l5-8z"/><path fill="#6a665e" d="M156 156l7 12-86 50-7-12z"/><path fill="#78a0a9" d="M26 70l1-2 33 17-1 2z"/><path fill="#be9d75" d="M179 132l20 8-1 2-20-9z"/><path fill="#e9f2f5" d="M256 75l-7-10 6-4 7 10z"/><path fill="#e1d2c1" d="M47 48l-1 2-54-34 1-2z"/><path fill="#978e7f" d="M326 209l-24-18 1-1 24 17z"/><path fill="#0e6d89" d="M156 151l-2 4-21-14 2-4z"/><path fill="#73a5b9" d="M23 154l1-2 20 8-1 2z"/><path fill="#c39f6f" d="M163 73l-34-22 3-4 34 22z"/><path fill="#5e8d9d" d="M49 161v-2l26 13-1 1z"/><path fill="#70b3cb" d="M208 76v-1l11 7-1 1z"/><path fill="#172622" d="M77 175h-2v-11h1z"/><path fill="#d0b38f" d="M112 30l-2 6-11-5 2-6z"/><path fill="#d8cdc5" d="M353 109l-13 4-1-1 13-5z"/><path fill="#e6dacf" d="M124 146l-1 2-24-15 1-1z"/><path fill="#8db7c3" d="M68 110l26 14-1 2-26-14z"/><path fill="#856843" d="M95 32l-1 1-12-7v-1z"/><path fill="#d8d4d0" d="M421 115l-43 17-1-1 44-18z"/><path fill="#46362b" d="M290 110v3l-9 1-1-4z"/><path fill="#ceac83" d="M184 137L88 82l1-2 96 56z"/><path fill="#1b7686" d="M246 102l-1 1-27-19 1-1z"/><path fill="#c8d8df" d="M224 54l-6-6 10-10 6 6z"/><path fill="#206074" d="M60 176l-6 15-44-19 7-14z"/><path fill="#b69a80" d="M-12 20l51 30-4 7-51-31z"/><path fill="#0b84a3" d="M143 83l29 12-1 2-29-12z"/><path fill="#76b5cd" d="M273 45l-30-11 20-55 30 10z"/><path fill="#0e0b00" d="M19 141l-1 1-1-7h1z"/><path fill="#212f35" d="M246 139l5 3-5 8-5-3z"/><path fill="#f2e3d8" d="M270 134l-1 1-15-20 1-1z"/><path fill="#2b1622" d="M224 137l-1-1 2-3 1 1z"/><path fill="#837a77" d="M345 113l1 1-24 12-1-1z"/><path fill="#494035" d="M351 105l-80 39-1-1 80-39z"/><path fill="#9d9793" d="M337 173l-30 14-1-3 29-13z"/><path fill="#6e9caa" d="M106 113L70 93l1-1 35 20z"/><path fill="#1c86a3" d="M227 131l-1 1-26-14 1-2z"/><path fill="#7c664a" d="M274 109l3-5 7 4-3 5z"/><path fill="#c4bab3" d="M110 143l-44-24 1-1 44 24z"/><path fill="#767f83" d="M66-6l3 4-27 25-3-3z"/><path fill="#c6a782" d="M254 130l-2 3-27-21 2-3z"/><path fill="#0f191d" d="M89 102v-5h2v5z"/><path fill="#494033" d="M59 26l-2 4-12-8 3-4z"/><path fill="#c5caca" d="M242 151l-1 1-75-48 1-2z"/><path fill="#ece1d8" d="M230 149l2-2 12 19-3 1z"/><path fill="#433927" d="M85 41l-5 6-10-8 5-6z"/><path fill="#857c75" d="M311 94l4-10 10 5-4 10z"/><path fill="#efede5" d="M227 145l-1 1-29-14v-1z"/><path fill="#a9a296" d="M-8-4l1-1 60 39-1 1z"/><path fill="#5a4f40" d="M86 39L46 25l1-3 40 14z"/><path fill="#a1cada" d="M279 81l-4-4 11-9 3 3z"/><path fill="#2e2c1b" d="M158 129l-2 8-6-2 2-8z"/><path fill="#1b7881" d="M176 106l-1 1-22-17 1-2z"/><path fill="#776e6a" d="M326 213l-1-1 88-36 1 1z"/><path fill="#111507" d="M102 182h-2l3-9h2z"/><path fill="#fefbf5" d="M129 146l-1 2L19 90l1-2z"/><path fill="#8e9294" d="M170 212l6-64 6 1-6 64z"/><path fill="#99918d" d="M365 117l-53 24-3-6 52-25z"/><path fill="#503f21" d="M86 165l-1 1-32-14 1-1z"/><path fill="#467c92" d="M63 167l39 19-1 2-39-19z"/><path fill="#536064" d="M56 81l1-1 54 31-1 1z"/><path fill="#554a30" d="M278 169l2-6 3 1-2 6z"/><path fill="#3d99af" d="M101 56l-2-6 4-1 3 5z"/><path fill="#0c3d4b" d="M238 93l10 8-1 1-9-7z"/><path fill="#515857" d="M212 116l-55-38 1-2 55 39z"/><path fill="#808381" d="M211 149l17-2 3 18-17 2z"/><path fill="#73b0c8" d="M221 27L200 5l9-9 21 23z"/><path fill="#0f4554" d="M8 172l-1-1 5-10 2 1z"/><path fill="#eddabb" d="M282 107l-8-8 2-1 7 8z"/><path fill="#5f6964" d="M45 158l-27-15 1-2 28 14z"/><path fill="#ede0d1" d="M111 164l-61-31v-2l62 32z"/><path fill="#a4b3b3" d="M175 13L149-9l2-3 26 23z"/><path fill="#dfecee" d="M15 178l25 13-1 1-25-13z"/><path fill="#483a19" d="M170 138l9 3-1 1-8-3z"/><path fill="#566466" d="M98 38l-9 5-1-1 9-6z"/><path fill="#317485" d="M43 168l-5 16h-1l5-17z"/><path fill="#356d77" d="M51 102l1-2 11 6-1 1z"/><path fill="#dacfc0" d="M272 124v-1l4-2 1 2z"/><path fill="#76b3c9" d="M232 52l-1-1 29-35 1 1z"/><path fill="#756e77" d="M410 46l-17 11-5-8 17-11z"/><path fill="#eae7e5" d="M55 115l33 17-7 14-33-17z"/><path fill="#67756d" d="M238 141l-2 4h-1l2-4z"/><path fill="#1e5d70" d="M48 187h-2l-1-28h1z"/><path fill="#664f3e" d="M118 11l-1 1-8-6 1-1z"/><path fill="#e9e1dc" d="M95 0l-6 9-13-7 5-10z"/><path fill="#575038" d="M143 11l1 1-4 7-1-1z"/><path fill="#cebba2" d="M263 129l-1 1-67-45 1-1z"/><path fill="#a37f5c" d="M276 102l2 4-6 3-2-5z"/><path fill="#ad9d90" d="M294 143l4 8-34 17-5-8z"/><path fill="#ede0cd" d="M163 118l-57-33 1-1 57 32z"/><path fill="#00768d" d="M141 76l-5 4-6-7 4-4z"/><path fill="#f1ede8" d="M284 105l-24-23 1-1 24 23z"/><path fill="#e0c8ad" d="M90 11l1-1 24 18-1 1z"/><path fill="#c8e2ea" d="M212 32l3-9 6 3-3 8z"/><path fill="#3d3417" d="M7 131l-9-2v-2l9 2z"/><path fill="#ede6e1" d="M231 99l33 25-3 4-33-26z"/><path fill="#b8cbda" d="M134 81l10 7-1 2-10-8z"/><path fill="#cddee4" d="M254 49l-5 17-1-1 4-17z"/><path fill="#faf9f6" d="M147 158l-9-6 1-2 9 6z"/><path fill="#9a908c" d="M303 116l44-25 2 4-44 25z"/><path fill="#1a5e6f" d="M209 71l-2 4h-1l1-5z"/><path fill="#595f57" d="M188 51l-10-3 1-3 10 3z"/><path fill="#515649" d="M97 100l-1 1-29-18 1-2z"/><path fill="#705c44" d="M-21 45l47 14-1 1-46-14z"/><path fill="#595544" d="M191 54l-1 1-14-17 1-1z"/><path fill="#84684d" d="M-3 26l1-3 7 3-1 3z"/><path fill="#605c54" d="M141 222l-1-44 30-1 1 44z"/><path fill="#292e1c" d="M131 24l-1-1 10-8 1 2z"/><path fill="#63777b" d="M126 119v1l-13-6v-1z"/><path fill="#838584" d="M111 4l-1 3-7-3 1-3z"/><path fill="#473c2d" d="M21 64v3l-41-4 1-3z"/><path fill="#585859" d="M274 117l-1 1-20-17 1-1z"/><path fill="#c6cac3" d="M253 113l-33-23 1-2 33 24z"/><path fill="#e4e3e0" d="M22 30L-3 19 2 9l24 11z"/><path fill="#948e8a" d="M349 156l-35 16-2-4 35-17z"/><path fill="#f4f5f7" d="M98 1l1-2 4 2v1z"/><path fill="#8e8689" d="M385 84l-8-4 5-10 8 5z"/><path fill="#9d8877" d="M296 115l5 8-23 14-5-9z"/><path fill="#1f2521" d="M235 143l1-1 5 4-1 1z"/><path fill="#a0805e" d="M69 18l1-2 19 8-1 2z"/><path fill="#71abc1" d="M219 44l-1-1 12-14 1 1z"/><path fill="#2b8091" d="M211 119l18 13-1 1-18-13z"/><path fill="#c0a47e" d="M153 123l-1 1-78-45v-2z"/><path fill="#edded5" d="M13 201l-1-2 11-1 1 2z"/><path fill="#c4a88b" d="M263 100l-92-71 2-2 91 71z"/><path fill="#cea97f" d="M83 79l93 54-1 2-94-54z"/><path fill="#7eb7d0" d="M292 11l35 67-23 12-36-66z"/><path fill="#736c65" d="M356 85l70-39 1 2-70 38z"/><path fill="#217a91" d="M152 35l23 15v2l-24-16z"/><path fill="#8b7e73" d="M318 180l-14 5-4-13 13-5z"/><path fill="#caa375" d="M32 133l-1 3-37-17 2-3z"/><path fill="#ddebf2" d="M90 55l1-1 21 14-1 2z"/><path fill="#dceadb" d="M5-2l2 5H6L4-1z"/><path fill="#8e8685" d="M401 90v2l-62 32-1-2z"/><path fill="#977f64" d="M142-1l9 8-1 1-9-7z"/><path fill="#c1ced1" d="M231 56l-55-43 1-2 55 44z"/><path fill="#352f2b" d="M166 31h1l-3 6-1-1z"/><path fill="#576461" d="M223 123l26 17-1 1-26-17z"/><path fill="#20383e" d="M185 54l24 17-1 2-24-18z"/><path fill="#4f4638" d="M341 107l-48 27-1-2 48-26z"/><path fill="#978d8a" d="M292 110l-5-8 7-4 5 8z"/><path fill="#091412" d="M255 152h-5v-8h5z"/><path fill="#25281c" d="M91 99l-1-1 2-4h1z"/><path fill="#bdb1a7" d="M218 135l29 18-1 1-29-18z"/><path fill="#6ba5bd" d="M178 9l-12-6 5-10 12 6z"/><path fill="#888b8d" d="M176 146l34 2-3 54-34-1z"/><path fill="#453930" d="M354 129l1 1-32 18-1-2z"/><path fill="#e5ded9" d="M71 125L-4 87v-1l76 38z"/><path fill="#918991" d="M358 68l3 3-7 6-4-3z"/><path fill="#a88b6e" d="M31 54l-2 3-34-22 2-3z"/><path fill="#38290d" d="M266 105h2l2 4-1 1z"/><path fill="#64919d" d="M259 112h3v3h-4z"/><path fill="#565a57" d="M123 56l-1 1-28-23 1-2z"/><path fill="#87b7cb" d="M267 84l-1-2 10-2v2z"/><path fill="#b0cfe2" d="M239-3l-1 8-9-1v-7z"/><path fill="#173e50" d="M236 92l-1 1-16-11v-2z"/><path fill="#efeceb" d="M89 136l35 13-5 13-35-13z"/><path fill="#f1e9e3" d="M162 105l-1 1-99-62v-2z"/><path fill="#4b4135" d="M487 126l-182 67v-2l182-66z"/><path fill="#99b7c3" d="M333 75L456 7v1L333 76z"/><path fill="#78b8d1" d="M343 69v-1l75-45v1z"/><path fill="#3e3d27" d="M100 98l1-1 63 41-1 1z"/><path fill="#6d6761" d="M108 220l-13-4 11-37 13 3z"/><path fill="#403a29" d="M237 134l-1 1-6-15h2z"/><path fill="#9c8265" d="M96 18l-1 1L69-1v-1z"/><path fill="#5c6d73" d="M236 134l-68-46 1-1 68 45z"/><path fill="#363e3c" d="M90 171l-2 6-5-2 3-6z"/><path fill="#6d797d" d="M14 83l1-3 1 1-1 3z"/><path fill="#e3d8cf" d="M248 159l30-18 1 2-30 17z"/><path fill="#9dbecd" d="M34-7l14-1 1 17-14 1z"/><path fill="#a58d6d" d="M22 35l68 43-1 1-68-42z"/><path fill="#efe6e1" d="M370 99l58-29 1 1-59 30z"/><path fill="#393d39" d="M37 59L23 75l-2-1 14-17z"/><path fill="#99c0ce" d="M207 33l-1 2-15-14 1-1z"/><path fill="#343032" d="M210 114l-4-7 1-1 4 7z"/><path fill="#95bfd1" d="M261 63l-8-10 6-5 8 10z"/><path fill="#7c664a" d="M246 132l-85-58 1-1 85 58z"/><path fill="#a38a6f" d="M152 56l-1 1-33-24 1-1z"/><path fill="#d1c3b5" d="M269 171l1-1 85 57-1 2z"/><path fill="#67a3b8" d="M77 193l-3 5-3-2 4-5z"/><path fill="#b7b5ad" d="M274 124l-1 2-8-5 1-1z"/><path fill="#9c968a" d="M232 166l-1 26h-2l1-26z"/><path fill="#aa947d" d="M269 96l-1 1-60-45 1-1z"/><path fill="#7d7470" d="M378 99l-38 21-1-1 38-22z"/><path fill="#dfd2c8" d="M275 178l-46-31 1-1 45 30z"/><path fill="#6aadc1" d="M230 10l7-4v1l-6 4z"/><path fill="#1f2421" d="M137 26l-3-9 3-1 3 9z"/><path fill="#9aa8ad" d="M110 2l3-3 1 1-3 3z"/><path fill="#5c584f" d="M336 88l-17 11-1-1 17-11z"/><path fill="#353432" d="M160 79l-1 1-2-1 1-2z"/><path fill="#ddd5cf" d="M256 208l-1 1-7-53h2z"/><path fill="#bab3a6" d="M99 0l2 4-1 1-2-4z"/><path fill="#72716b" d="M275 133l-5 1v-3l5-1z"/><path fill="#9dafb6" d="M219 76l-1 1-4-4 1-2z"/><path fill="#715f40" d="M27 138l1-1 28 14-1 1z"/><path fill="#a38d73" d="M206 94v-1l46 30-1 1z"/><path fill="#6a7c87" d="M39 72l-11-3v-2l11 3z"/><path fill="#514430" d="M308 154l-31 17-3-4 32-17z"/><path fill="#1e7383" d="M171 103l1-1 24 15-1 1z"/><path fill="#8b8680" d="M415 142v1l-56 23-1-1z"/><path fill="#3f3e2c" d="M189 94l1-1 44 33-1 1z"/><path fill="#bb9d74" d="M78 160l-46-20 1-2 46 21z"/><path fill="#1e1812" d="M-5 66l13 4-1 6-14-4z"/><path fill="#75736a" d="M144 164l-10 9-1-1 10-9z"/><path fill="#efece8" d="M250 118l-1 1-75-54 1-1z"/><path fill="#78a5b4" d="M61 171l-1 1-26-13 1-2z"/><path fill="#b3a18e" d="M101 159l26 12-2 3-25-12z"/><path fill="#5b4c41" d="M307 194l-1-6 14-3 1 6z"/><path fill="#2e302e" d="M228 140l-1-1 32-3v2z"/><path fill="#342d27" d="M343 107l46-23 1 1-46 23z"/><path fill="#b8b5b3" d="M93 60L76 46l1-1 17 14z"/><path fill="#cccec6" d="M122 19l36 25-1 1-36-25z"/><path fill="#161c03" d="M134 123l1-7h1v7z"/><path fill="#889ea5" d="M130 65l6-7 1 1-6 7z"/><path fill="#bc997d" d="M72 4l8 4-3 6-8-5z"/><path fill="#7e716a" d="M377 211l-1-3 45-21 1 3z"/><path fill="#2a2b1c" d="M160 78l-1-1 2-3 1 1z"/><path fill="#235563" d="M112 54l1-1 33 23-1 1z"/><path fill="#5e6564" d="M204 66l-1 2-8-8 1-1z"/><path fill="#352e29" d="M177 85l-1 7-2-1 2-6z"/><path fill="#c4e0ea" d="M233 29l-6-1 1-6 6 1z"/><path fill="#e7d9d4" d="M286 171l-10 5-1-1 10-6z"/><path fill="#3299b7" d="M141 76l1-1 16 13-1 1z"/><path fill="#7fb5c6" d="M180 13l2-25 8 1-2 25z"/><path fill="#a49a93" d="M333 138l-22 9-5-11 22-10z"/><path fill="#534d4a" d="M372 94v-2h4v2z"/><path fill="#5d5553" d="M317 216l-1-2 119-41v2z"/><path fill="#bfb6af" d="M-6 83v-2l105 54-1 1z"/><path fill="#d7c4b0" d="M69 143v2L1 112l1-2z"/><path fill="#96bfcb" d="M241 25l-13-6 1-2 13 6z"/><path fill="#096f86" d="M155 151l-2-4 9-3 2 4z"/><path fill="#e7e6e1" d="M117 167l2-7 9 3-2 7z"/><path fill="#85bed6" d="M355-20l25 61-52 21-25-61z"/><path fill="#82b8c7" d="M279 71l-3-9 12-3 3 8z"/><path fill="#125772" d="M85 118l5-10 1 1-4 10z"/><path fill="#54594b" d="M238 128l8 11-1 1-9-11z"/><path fill="#ceab82" d="M69 149l47 21-2 4-47-21z"/><path fill="#eee6e1" d="M239 210l-4-42 16-1 3 42z"/><path fill="#1e2a2e" d="M270 120v-1l9-3v1z"/><path fill="#867662" d="M299 177l-18 1v-3l17-1z"/><path fill="#135362" d="M59 104l7-14 1 1-6 14z"/><path fill="#41382b" d="M55 16l1 1-9 10-2-1z"/><path fill="#94bdcb" d="M144 151l-1 1-26-14 1-1z"/><path fill="#285363" d="M113 54l-1 2-20-15 1-1z"/><path fill="#231f06" d="M79 161l1 1-4 7-1-1z"/><path fill="#3e8798" d="M222 129l8 1v2l-8-1z"/><path fill="#291b0c" d="M66 78l1-1 3 2-2 2z"/><path fill="#0e5165" d="M77 196l6-5 1 2-6 5z"/><path fill="#efebe7" d="M118 165L-8 104l1-2 126 62z"/><path fill="#050704" d="M267 144l-6 2-1-1 6-2z"/><path fill="#b7d5dd" d="M232 45h-6v-7h6z"/><path fill="#074357" d="M42 177l4-10 2 1-5 10z"/><path fill="#303b3a" d="M268 119l-7-2v-3l8 2z"/><path fill="#4f8890" d="M146 31l-6-2v-2l6 2z"/><path fill="#403c2c" d="M206 67l-16-15 3-2 15 15z"/><path fill="#836947" d="M60 151l26 14-1 1-26-14z"/><path fill="#a39b96" d="M293 144h9v8h-9z"/><path fill="#a58e64" d="M60 70l17 11-1 1-17-11z"/><path fill="#dfedf5" d="M241 56l-1 3h-4v-4z"/><path fill="#c2a378" d="M122 98l8 14-1 1-8-14z"/><path fill="#c5a584" d="M51 63L15 38l1-2 37 24z"/><path fill="#c9a77c" d="M182 81l-63-43v-2l64 43z"/><path fill="#ebe6e3" d="M140 157l2 4-15 6-2-5z"/><path fill="#6e9093" d="M72 93l-1 1-6-4 1-2z"/><path fill="#a38b63" d="M5 116l1-1 28 14-1 1z"/><path fill="#083e52" d="M10 164l-1-1 4-6 2 1z"/><path fill="#3d7e91" d="M72 112l21 8-1 1-20-8z"/><path fill="#e8dde1" d="M144 37l23 13v2l-24-13z"/><path fill="#8f8171" d="M259 154l1 1-5 5-1-1z"/><path fill="#161503" d="M50 148l1 1-2 4-2-1z"/><path fill="#63818e" d="M157 139l10 7v1l-11-7z"/><path fill="#3b8ca2" d="M94 48l12 3-1 3-12-3z"/><path fill="#877764" d="M272 127l26-14 1 2-27 14z"/><path fill="#e2d6cf" d="M377 200v-2h13v2z"/><path fill="#baa186" d="M239 123l-1 1-53-36 1-1z"/><path fill="#6b5538" d="M88 28l5 4-5 4-4-4z"/><path fill="#cbc2bd" d="M386 176v1l-61 24v-2z"/><path fill="#0b1011" d="M17 145l-2-1 1-3 1 1z"/><path fill="#4e4839" d="M295 133h-7v-1l6-1z"/><path fill="#88663f" d="M34 56l-6 1-1-2 6-1z"/><path fill="#2b6470" d="M29 158l32 16-1 1-32-16z"/><path fill="#6c6154" d="M341 134l37-18 1 2-37 17z"/></svg>