<svg xmlns="http://www.w3.org/2000/svg" viewBox="0 0 400 200"><path fill="#cecec9" d="M0 0h400v200H0z"/><ellipse rx="1" ry="1" transform="matrix(-.3795 24.17583 -124.11093 -1.94825 358 188)"/><ellipse rx="1" ry="1" transform="matrix(4.10306 20.2995 -67.33167 13.6095 16 199)"/><ellipse rx="1" ry="1" transform="matrix(83.24591 .55236 -.17709 26.6888 346 193)"/><ellipse fill="#fff" rx="1" ry="1" transform="matrix(-98.84918 -101.69494 68.19426 -66.28597 308 35)"/><ellipse fill="#927c61" rx="1" ry="1" transform="matrix(-24.69926 -40.90385 54.00214 -32.6085 171 97)"/><ellipse fill="#fff" rx="1" ry="1" transform="matrix(-39.16938 -57.90845 284.8292 -192.659 63 42)"/><ellipse rx="1" ry="1" transform="matrix(3.13982 18.07639 -64.95486 11.2825 13 199)"/><ellipse fill="#5d4019" rx="1" ry="1" transform="matrix(30.34689 26.13694 -7.3586 8.54386 140 111)"/><ellipse fill="#f3fbfd" rx="1" ry="1" transform="matrix(27.27549 -34.91104 69.88677 54.60153 61 111)"/><ellipse fill="#b39668" rx="1" ry="1" transform="matrix(-5.16581 -49.1494 18.45077 -1.93925 247 179)"/><ellipse fill="#fcffff" rx="1" ry="1" transform="matrix(0 27.57251 -300.46004 0 198 18)"/><ellipse fill="#f7fefa" rx="1" ry="1" transform="matrix(-14.7084 22.68071 -9.90858 -6.4257 162 90)"/><ellipse fill="#1b1400" rx="1" ry="1" transform="rotate(81 65 300) scale(22.25368 83.96879)"/><ellipse fill="#664924" rx="1" ry="1" transform="matrix(3.93241 1.60479 -11.49432 28.16598 162 139)"/><ellipse fill="#632a07" rx="1" ry="1" transform="matrix(-20.97614 11.73203 -2.64416 -4.7276 181 58)"/><ellipse fill="#796654" rx="1" ry="1" transform="matrix(-8.45142 48.28943 -2.61727 -.45806 218 128)"/><ellipse fill="#f1f7f8" rx="1" ry="1" transform="matrix(57.65565 60.97284 -81.23418 76.81468 329 52)"/><ellipse fill="#e1e3e1" rx="1" ry="1" transform="matrix(-5.69874 -1.0871 16.70947 -87.59413 199 84)"/><ellipse fill="#272511" rx="1" ry="1" transform="matrix(1.58196 -18.36983 69.04967 5.94638 6 193)"/><ellipse fill="#2a210b" rx="1" ry="1" transform="matrix(11.73766 22.65602 -10.68101 5.53363 279 188)"/><ellipse fill="#7f633b" rx="1" ry="1" transform="matrix(12.48213 24.46372 -12.19646 6.223 129 102)"/><ellipse fill="#222113" rx="1" ry="1" transform="rotate(53 -148 162) scale(7.60342 9.98065)"/><ellipse fill="#998465" rx="1" ry="1" transform="matrix(-9.45682 -2.68695 11.46928 -40.36663 244 181)"/><ellipse fill="#7b6256" rx="1" ry="1" transform="matrix(6.33838 1.10622 -6.26178 35.8784 184 77)"/><ellipse fill="#d2d2c6" rx="1" ry="1" transform="matrix(-16.44495 32.30623 -3.3434 -1.7019 158 129)"/></svg>