<svg xmlns="http://www.w3.org/2000/svg" viewBox="0 0 400 200"><filter id="a"><feGaussianBlur stdDeviation="55"/></filter><path fill="#cecec9" d="M0 0h400v200H0z"/><g filter="url(#a)"><path d="M422 207l-182 3-1-44 182-3zM78 221l-115 4-2-47 116-4z"/><path fill="#fff" d="M261 169L208 6l189-61 53 163zm-160 10l-129-23L7-40l129 23z"/><path d="M265 173l144-8 3 61-144 7z"/><path fill="#927c60" d="M108 87l88-49 48 86-89 49z"/><path fill="#fff" d="M-25 13L358-97l25 86L0 99z"/><path d="M77 219l-82 3-1-42 81-3z"/></g></svg>