<svg xmlns="http://www.w3.org/2000/svg" viewBox="0 0 400 200"><path fill="#cecec9" d="M0 0h400v200H0z"/><path d="M235 167l189-4 2 69-189 3zM-6 226l-3-49 86-4 2 48z"/><path fill="#fff" d="M334-121L439 94l-162 79L172-42z"/><path d="M268 209l-1-39 132-5 2 39z"/><path fill="#fff" d="M132 3l-31 175-132-23L0-20z"/><path fill="#897254" d="M234 118l-85 45-41-76 86-45z"/><path fill="#fff" d="M325 5L8 96l-22-75 317-91z"/><path d="M77 200l-89 6-1-23 89-6z"/><path fill="#4c2b00" d="M150 131l-42-36 10-12 42 36z"/><path fill="#beac89" d="M221 219l-16-91 48-8 16 91z"/><path fill="#fff" d="M182 78l-29 29-12-12 29-29z"/><path fill="#f4fafb" d="M254-33L447 5l-30 155-194-38z"/><path fill="#191000" d="M265 174l139-5 1 28-139 5z"/><path fill="#e3e8e8" d="M180 146l23-102 9 2-23 102z"/><path fill="#5c1500" d="M201 49l-28 17-4-7 28-17z"/><path fill="#452a0b" d="M171 119l-10 31-6-2 10-31z"/><path fill="#a48b7c" d="M198 63l26-5 8 40-26 5z"/><path fill="#f5fafd" d="M229 0L15 145l-27-41L202-40z"/><path fill="#e1e8e3" d="M87 163l21-46 47 22-20 45z"/><path fill="#8a6c27" d="M151 54l17 8-8 17-17-8z"/><path fill="#e3e6dc" d="M137 113l34-20 3 5-34 20z"/><path fill="#bec0ba" d="M239 124l-31 63-52-25 31-63z"/><path fill="#694d25" d="M109 95l21-14 16 23-21 14z"/><path fill="#3f2a17" d="M213 168h-2l6-44 1 1z"/><path fill="#9d815b" d="M247 204l-18-5 16-54 18 5z"/></svg>