<svg xmlns="http://www.w3.org/2000/svg" viewBox="0 0 400 200"><path fill="#cecec9" d="M0 0h400v200H0z"/><g transform="translate(1 1) scale(1.5625)"><ellipse cx="218" cy="120" rx="72" ry="17"/><ellipse cx="25" cy="120" rx="31" ry="10"/><ellipse cx="223" cy="120" rx="55" ry="15"/><ellipse fill="#fff" cx="199" cy="30" rx="59" ry="70"/><ellipse fill="#8f795c" cx="110" cy="62" rx="37" ry="31"/><ellipse fill="#fff" cx="26" cy="14" rx="52" ry="98"/><ellipse fill="#fff" cx="57" rx="241" ry="33"/><ellipse cx="5" cy="123" rx="43" ry="10"/><ellipse fill="#b89a6a" cx="157" cy="115" rx="12" ry="31"/><ellipse fill="#553100" cx="79" cy="60" rx="10" ry="10"/><ellipse fill="#601900" cx="120" cy="32" rx="7" ry="6"/><ellipse fill="#fff" cx="103" cy="57" rx="8" ry="11"/><ellipse fill="#150d00" cx="227" cy="127" rx="58" ry="19"/><ellipse fill="#f8fcfe" cx="67" cy="17" rx="32" ry="37"/><ellipse fill="#f1f7f8" cx="248" cy="45" rx="101" ry="53"/><ellipse fill="#e0e7e4" cx="66" cy="108" rx="18" ry="47"/><ellipse fill="#806a47" cx="99" cy="87" rx="7" ry="18"/><ellipse fill="#c0bcb3" cx="134" cy="98" rx="18" ry="68"/><ellipse fill="#674316" cx="111" cy="39" rx="11" ry="4"/><ellipse fill="#462800" cx="92" cy="78" rx="7" ry="5"/><ellipse fill="#161403" cx="43" cy="116" rx="7" ry="7"/><ellipse fill="#f8fbfe" cx="96" cy="9" rx="34" ry="26"/><ellipse fill="#f3fafd" cx="24" cy="58" rx="42" ry="29"/><ellipse fill="#c9d6d4" cx="203" cy="98" rx="39" ry="8"/><ellipse fill="#604521" cx="84" cy="66" rx="8" ry="8"/></g></svg>