<svg xmlns="http://www.w3.org/2000/svg" viewBox="0 0 400 200"><path fill="#cecec9" d="M0 0h400v200H0z"/><path d="M239 237l-3-69 167-6 3 69zM-3 226l-2-49 81-4 3 48z"/><path fill="#fff" d="M298-114L431 69 294 169 161-15z"/><path d="M265 172l170-8 2 34-170 9z"/><path fill="#fff" d="M-53 95L113-83l89 83L36 178z"/><path fill="#978469" d="M103 84l93-44 47 99-94 44z"/><path d="M0 182l74-5 3 39-75 5z"/><path fill="#5e411a" d="M175 135l-14 15-57-59 15-14z"/><path fill="#c8c4b3" d="M178 104l102 35-28 83-102-35z"/><path fill="#fbffff" d="M-96-3l267-148L257 5-10 153z"/><path fill="#f4fbfc" d="M452-11l5 161-198 7-5-161z"/><path fill="#eaf2f1" d="M116 197l-81-59 41-55 81 58z"/><path fill="#fff" d="M161 108l-15-11 20-28 15 11z"/><path fill="#491500" d="M154 69l39-24 4 7-39 23z"/><path fill="#ab9b92" d="M168 68l52-17 16 49-52 17z"/><path fill="#180f00" d="M401 200l-134 3-1-30 135-2z"/><path fill="#a9895b" d="M230 147l31-3 8 108-32 2z"/><path fill="#d9dedd" d="M179 176l-9-2 34-127 9 3z"/><path fill="#917838" d="M155 52l12 13-18 16-11-13z"/><path fill="#836f64" d="M191 59l9 3-27 69-8-4z"/><path fill="#362215" d="M222 112l-9 44h-2l9-45z"/><path fill="#c9d4d2" d="M354 126l3 37-81 6-3-37z"/><path fill="#f8fcff" d="M266 114l-34 3-9-130 34-2z"/><path fill="#cecfc3" d="M169 92l7 3-43 105-7-2z"/><path fill="#5f411a" d="M145 103l-19 14-13-18 19-14z"/><path fill="#cccfcd" d="M146 204l26-79 40 13-26 79z"/><path fill="#75523a" d="M202 120l-6-2 13-37 6 2z"/><path fill="#dfe9e8" d="M218 153l13-66 9 2-13 66z"/><path fill="#eef7f1" d="M173 62l6 5-31 44-7-4z"/><path fill="#1d1800" d="M75 209l-90 7-2-27 90-6z"/><path fill="#a89384" d="M212 101l-5-39 17-2 5 39z"/><path fill="#d2c7ac" d="M120 87l-6-9 34-20 5 9z"/><path fill="#351b00" d="M190 58v2l-28 8-1-1z"/><path fill="#22200b" d="M325 198l44-41 24 25-45 41z"/><path fill="#cedbda" d="M224 86l-15 51-6-2 15-51z"/><path fill="#45290c" d="M156 156l16-42h1l-15 43z"/><path fill="#959d98" d="M82 218l-6-42 16-2 5 42z"/><path fill="#734129" d="M177 60l15-18 7 6-15 18z"/><path fill="#767a76" d="M318 161l-22 11-4-7 23-11z"/><path fill="#f5f7fa" d="M-79-27h360v68H-79z"/><path fill="#eaeeed" d="M103 80l17 32-34 19-17-32z"/><path fill="#997b49" d="M147 160l7-19 10 4-7 19z"/><path fill="#a7b2b8" d="M8 177l86-7v1l-86 8z"/><path fill="#885c00" d="M170 66l-24-7 1-5 24 8z"/><path fill="#e2e8ea" d="M103 173l-113-6 3-42 112 6z"/><path fill="#e2e8e6" d="M383 143l-122 19-8-47 122-20z"/><path fill="#6b5849" d="M210 97l-14 46h-1l13-47z"/><path fill="#8c6f51" d="M249 243l-12-1 9-87 12 1z"/><path fill="#9a8464" d="M151 116l-7 3-22-43 7-3z"/><path fill="#50381a" d="M157 122l-11 12-8-8 11-11z"/><path fill="#baa079" d="M252 131l16 72-10 2-15-72z"/><path fill="#d8cabc" d="M195 92l-12-7 18-31 12 7z"/><path fill="#807060" d="M230 75l-19 95h-2l19-95z"/><path fill="#39321c" d="M281 168l3 22-17 2-3-21z"/><path fill="#d0d9d1" d="M230 187l-4-2 14-39 5 1z"/><path fill="#d2d5cd" d="M117 228l-27-53 51-26 27 53z"/><path fill="#8c7060" d="M198 46l-20 44-6-3 21-44z"/><path fill="#a3b1b1" d="M355 160v-3l73 9v3z"/><path fill="#f3f4f5" d="M419-30L396 88 201 50l23-118z"/><path fill="#fbf9f5" d="M152 48l21-17 11 13-21 17z"/><path fill="#212112" d="M75 173l5 1-4 17-4-1z"/><path fill="#5b3e1b" d="M137 112l-8 5-17-24 8-5z"/><path fill="#542108" d="M183 44h11v5l-11-1z"/><path fill="#a89a7f" d="M236 221l-14-4 9-39 14 3z"/><path fill="#c8d0cd" d="M280 149l4-10 59 20-3 10z"/><path fill="#92796c" d="M214 55l9 3-4 16-9-2z"/><path fill="#7f6743" d="M157 125l-6-2 3-12 6 2z"/><path fill="#b8a892" d="M159 112l-30 10-2-4 30-11z"/><path fill="#ebf3ef" d="M165 80l3 23-15 3-4-23z"/><path fill="#393a2d" d="M263 172l110-6v1l-110 6z"/><path fill="#a4906a" d="M231 112h2l3 34h-1z"/><path fill="#544334" d="M165 133l20-56 2 1-21 56z"/><path fill="#c7ccc7" d="M186 106l7 4-37 79-7-3z"/><path fill="#785835" d="M112 88l29-4 2 8-30 4z"/><path fill="#45473d" d="M-2 179l58-2v5l-57 2z"/><path fill="#c3beb1" d="M169 103l5 3-26 43-5-3z"/><path fill="#eef3f2" d="M152 66h-46v-5h46z"/><path fill="#edf1ee" d="M257 61l31 58-31 16-30-58z"/><path fill="#d7dcd8" d="M213 216l13-103 9 1-12 103z"/><path fill="#1f1a07" d="M310 166l32 29-32 35-32-30z"/><path fill="#cbd1c9" d="M71 218l11-48 5 1-11 48z"/><path fill="#bfc0bc" d="M201 111l-20 51-15-6 21-51z"/><path fill="#836f4e" d="M129 122l1-1 20 15-1 1z"/><path fill="#d7dfdd" d="M411 159l-95 1v-20l95-2z"/><path fill="#798482" d="M12 166h1l-4 10H7z"/><path fill="#c8bfa5" d="M262 148l4 74h-5l-3-73z"/><path fill="#dce5e3" d="M299 165l-40-4 3-25 40 5z"/><path fill="#919791" d="M295 165l59-2v2l-59 2z"/><path fill="#e39886" d="M204 51l-17-12 1-1 17 12z"/><path fill="#dcdcd0" d="M146 80l-9 2-3-10 9-3z"/><path fill="#eaeeeb" d="M166 95l-8-3 12-26 7 3z"/><path fill="#a07f54" d="M251 205l1-40h8l-1 41z"/><path fill="#dbded9" d="M98 161l2-25 50 4-2 26z"/><path fill="#eee1ce" d="M159 66v1l-7-3v-1z"/><path fill="#e7d6ca" d="M203 58l1-3 14 7-2 3z"/><path fill="#9b8273" d="M192 53l6 18-8 2-5-18z"/><path fill="#91877f" d="M222 67l-15-18 1-1 15 18z"/><path fill="#a19585" d="M192 151l10-42 4 1-9 42z"/><path fill="#c1c1b7" d="M216 117l3-33 1 1-3 32z"/><path fill="#eaeff0" d="M93 141l-118-15 6-46L99 94z"/><path fill="#4d2a1a" d="M181 49l15 5-1 2-14-6z"/><path fill="#8e9795" d="M259 166v-2h31v1z"/><path fill="#a4a6a3" d="M103 219h-2l7-46h2z"/><path fill="#eff2f0" d="M482 68l-61 79-105-82 62-79z"/><path fill="#685747" d="M153 71l3 4-7 6-3-4z"/><path fill="#91999c" d="M-15 175v-2l72 4v2z"/><path fill="#684c30" d="M169 119h2l-17 36-1-1z"/><path fill="#f1f4f5" d="M-4-20l135 58-25 59-135-58z"/><path fill="#d6dcd4" d="M208 59l-17 65h-3l17-65z"/><path fill="#191709" d="M270 194l170-12 1 22-170 12z"/><path fill="#555756" d="M180 112l-1-1 8-18h1z"/><path fill="#646760" d="M374 166v-2l38 3v2z"/><path fill="#b3a693" d="M183 83l-22 46-2-1 23-46z"/><path fill="#c0bdaf" d="M151 92v1l-19 11v-2z"/><path fill="#f2f5f6" d="M220 61L196-2l26-10 24 63z"/><path fill="#d0d5d0" d="M211 113l6 2-17 52-6-2z"/><path fill="#352f1e" d="M332 181l-68 4v-11l67-4z"/><path fill="#c6b4a7" d="M229 83h-41V72h41z"/><path fill="#7a6242" d="M133 89l14 14-9 10-15-14z"/><path fill="#ecefea" d="M181 65l-28 19-1-1 28-19z"/><path fill="#cc9081" d="M201 45l-15 10-1-1 15-11z"/><path fill="#8f5825" d="M185 55l-11 9-4-5 11-9z"/><path fill="#dbdbcf" d="M167 162l-12 22-5-3 12-22z"/><path fill="#bbbbb1" d="M216 113l-18 173-3-1 18-172z"/><path fill="#ac9064" d="M161 145l-12 29-2-2 11-28z"/><path fill="#8d6a00" d="M151 54l1-1 12 10-1 1z"/><path fill="#f2f4f5" d="M194 31l-68 36-12-24 68-36z"/><path fill="#c6c2b1" d="M159 105l-19 8v-1l18-8z"/><path fill="#cecfc9" d="M193 94h7l-14 108-6-1z"/><path fill="#b5bfc0" d="M42 176H32v-10h9z"/><path fill="#d4d7cf" d="M99 96l7-4 37 76-7 4z"/><path fill="#977650" d="M153 109l7 3-2 6-7-3z"/><path fill="#7d8789" d="M15 168l2-1 4 10-2 1z"/><path fill="#e1e6e4" d="M31 133l88 5-2 34-87-5z"/><path fill="#412c26" d="M212 148l1-13h2l-1 13z"/><path fill="#8e362f" d="M199 45h1l-4 9-1-1z"/><path fill="#3a3629" d="M57 195l-20-5 4-15 20 5z"/><path fill="#715b46" d="M242 215l3-31h5l-3 31z"/><path fill="#bc9275" d="M191 54l-10 4-1-1 10-4z"/><path fill="#977e4c" d="M111 100l-3-10 5-1 2 10z"/><path fill="#050000" d="M187 48l-3 3h-1l3-4z"/><path fill="#e6c8b4" d="M184 51l-8-2 1-7 8 1z"/><path fill="#684a22" d="M145 129l-8-4 4-9 8 5z"/><path fill="#bbb9b2" d="M161 249l32-166 1 1-32 165z"/><path fill="#898e88" d="M333 168l4-2 1 2-5 2z"/><path fill="#5c625f" d="M0 160l1-1 1 5H0z"/><path fill="#bfc5c3" d="M291 165l-1-6 36-10 1 6z"/><path fill="#332d19" d="M350 193l-32-13 6-15 32 13z"/><path fill="#d4c298" d="M127 72l1 1-13 13-1-1z"/><path fill="#b39e75" d="M235 143l-2-25h2l2 25z"/><path fill="#787e7a" d="M313 163l-1-1 1-7h2z"/><path fill="#907871" d="M222 100h-1l5-23h2z"/><path fill="#9a8b70" d="M249 154h1l-25 63-2-1z"/><path fill="#8a9190" d="M372 164l-6-10h1l6 9z"/><path fill="#e3e6e7" d="M45 140l-13 33-76-30 14-33z"/><path fill="#524130" d="M160 149l12-34h1l-12 34z"/><path fill="#d2cfc2" d="M215 249l29-125h2l-29 125z"/><path fill="#d7d3c7" d="M138 89l11 6-1 2-11-6z"/><path fill="#bfb9a9" d="M155 172l-14 19-7-5 14-19z"/><path fill="#e3e8e6" d="M257 121l91-10 3 29-91 10z"/><path fill="#be9b81" d="M219 87l-15 8-3-5 15-9z"/><path fill="#b5a68f" d="M160 76l-16-12 1-1 16 12z"/><path fill="#818884" d="M13 156l1-1 2 3-1 1z"/><path fill="#f2f5f5" d="M138 16l62-26 17 39-62 26z"/><path fill="#a99c8e" d="M182 80l3 14-12 3-3-14z"/><path fill="#45361e" d="M285 193l-7-14 11-5 6 14z"/><path fill="#c3b7ac" d="M176 113l-2-1 11-26 2 1z"/><path fill="#aeb4b0" d="M82 202l-3-25 16-2 3 25z"/><path fill="#573222" d="M198 51l-16 4-1-1 17-4z"/><path fill="#d0d4cd" d="M221 147l11 3-33 101-10-3z"/><path fill="#e5e9e3" d="M150 94l19 6-2 7-19-5z"/><path fill="#c2a04d" d="M166 59v3h-15v-3z"/><path fill="#a9987d" d="M153 64h1l-5 11h-2z"/><path fill="#7f7166" d="M248 149l2 1-6 34-2-1z"/><path fill="#9fa6a9" d="M80 174l-39 2v-1l39-2z"/><path fill="#ada284" d="M235 116h1l-3 48h-2z"/><path fill="#af9d85" d="M255 149l1 1-12 37-2-1z"/><path fill="#c1bfac" d="M121 113l26 31-1 1-26-31z"/><path fill="#cdcec5" d="M145 139l9-7 2 3-9 6z"/><path fill="#a49076" d="M136 119v-1l26-10 1 1z"/><path fill="#d2c7b1" d="M248 118l9 20-13 5-9-20z"/><path fill="#8e6200" d="M157 61l-9-3v-1l9 2z"/><path fill="#4e3813" d="M171 63l-1-2 17-3v1z"/><path fill="#644824" d="M127 90l6-3 4 9-6 3z"/><path fill="#84766b" d="M188 94l-1 1-5-31 2-1z"/><path fill="#5b3e29" d="M209 98l-3 7-4-1 3-8z"/><path fill="#c7ccc1" d="M232 89l-14 62h-2l15-63z"/><path fill="#c9c8c1" d="M151 207l15-54 28 7-14 55z"/><path fill="#e1e3df" d="M116 105l3 37-17 2-4-38z"/><path fill="#353125" d="M47 188l-1-6 30-6 2 6z"/><path fill="#e1e7e4" d="M331 156l21-42 18 10-21 41z"/><path fill="#e3e9e6" d="M305 107h1l13 56h-1z"/><path fill="#aea298" d="M218 117l-1-1 14-34h1z"/><path fill="#886759" d="M218 61l2 1-6 10-1-1z"/><path fill="#f4f4f1" d="M160 21l2-4 52 29-3 4z"/><path fill="#88735d" d="M144 89l-12-2v-2l13 2z"/><path fill="#7d6e58" d="M153 80l-1-1 9-13 1 1z"/><path fill="#9b825d" d="M155 140l10 6-5 10-11-7z"/><path fill="#4a4c46" d="M61 177v2l-61 5v-2z"/><path fill="#252011" d="M368 161l11 11-29 31-12-11z"/><path fill="#eff2f2" d="M243 119l-21-90 52-12 21 90z"/><path fill="#dfe3e0" d="M99 231l-5-1 6-78 4 1z"/><path fill="#b9b6a7" d="M212 166l-17 68-3-1 17-68z"/><path fill="#84633c" d="M159 151l-2-16h2l1 16z"/><path fill="#c3bcab" d="M141 91l1-1 12 24-1 1z"/><path fill="#1d0200" d="M187 45l1-1 2 3-1 1z"/><path fill="#777978" d="M286 170l-1-1 28-6v1z"/><path fill="#89766b" d="M224 66v5l-15 2-1-4z"/><path fill="#5d4736" d="M212 95l-8 15h-2l8-16z"/><path fill="#c7bb9b" d="M132 68l3 7-6 2-3-7z"/><path fill="#867965" d="M212 140l1 22h-2v-22z"/><path fill="#dde5e2" d="M397 162l-17-2 3-39 17 2z"/><path fill="#e3d5ca" d="M211 53l2 5-16 7-2-6z"/><path fill="#bfc1ba" d="M222 57l9 25h-1l-10-25z"/><path fill="#a5987b" d="M266 204h-2v-19h2z"/><path fill="#bcbeb9" d="M182 111l12 5-15 34-12-5z"/><path fill="#c3ced2" d="M-16 173l74-2v1l-74 3z"/><path fill="#5f6059" d="M388 171l21-14 1 2-21 13z"/><path fill="#c7b9a6" d="M145 96l1 2-12 4v-1z"/><path fill="#d6d7cc" d="M174 132l1 1-50 109-2-1z"/><path fill="#a68b65" d="M250 176h11v34h-11z"/><path fill="#edf1f1" d="M89 138l-41-15 21-56 41 15z"/><path fill="#eff0f2" d="M147 57l-5 6-12-9 4-6z"/><path fill="#d8dcd7" d="M108 198l8-24 21 8-8 23z"/><path fill="#bea682" d="M138 86h-21v-5h21z"/><path fill="#585850" d="M344 166l1 1-9 6-1-1z"/><path fill="#cfd1ca" d="M116 114l3-1 20 52-3 2z"/><path fill="#dfded6" d="M179 72l-24 31-1-1 24-31z"/><path fill="#765c48" d="M167 124l-2-1 11-17h1z"/><path fill="#d5cec1" d="M134 73l14-2 1 1-14 3z"/><path fill="#d4d5cf" d="M198 157h-1l13-47h1z"/><path fill="#2e2e21" d="M66 186l-77 6v-5l76-5z"/><path fill="#7a817f" d="M285 171l-18-5v-1l18 5z"/><path fill="#868b84" d="M371 160v2l-40 7v-1z"/><path fill="#e0a994" d="M201 45l-1 1-12-5 1-1z"/><path fill="#d8dad2" d="M200 90h-1l6-44h1z"/><path fill="#b2b7b1" d="M77 206l-2-11 12-2 2 11z"/><path fill="#c7ccc4" d="M217 129l2-1 6 29-2 1z"/><path fill="#e6eae6" d="M151 101l-6-5 12-14 6 5z"/><path fill="#beb6a0" d="M146 178h-1l7-42h2z"/><path fill="#baae9b" d="M245 149l-3-2 9-13 2 2z"/><path fill="#5d4d43" d="M214 149v-22h2v22z"/><path fill="#b5a08d" d="M170 106l7-23h1l-6 23z"/><path fill="#c1b695" d="M107 99l2-9h1l-2 9z"/><path fill="#5c411a" d="M184 60v2l-23 5v-2z"/><path fill="#ebccb7" d="M167 59l-1-1 18-16 1 2z"/><path fill="#5a480d" d="M165 69l-1 1-6-9 2-1z"/><path fill="#b1b7b5" d="M308 151l-2 1-3-7 2-1z"/><path fill="#5d5138" d="M156 78l-1 1-3-6h1z"/><path fill="#7e6848" d="M148 135l-14-14 1-2 14 15z"/><path fill="#dcdbd7" d="M231 156h-4v-22h4z"/><path fill="#696c6e" d="M21 177v-2l19 3v2z"/><path fill="#5d4225" d="M134 114l-3 2-16-25 2-2z"/><path fill="#2d1600" d="M183 49v-1l5 1-1 2z"/><path fill="#503c2a" d="M160 139l8-15 2 1-9 15z"/><path fill="#987c53" d="M252 156l5 33h-2l-4-32z"/><path fill="#2c2715" d="M403 177l-79 8-1-7 80-9z"/><path fill="#c8cfcc" d="M356 160l-1 5-6-1 1-5z"/><path fill="#c7b3a1" d="M195 84l-10 1v-8l9-1z"/><path fill="#d6d8cb" d="M238 157l-1-34h2v34z"/><path fill="#afb8b6" d="M78 174h-1l3-6 1 1z"/><path fill="#856640" d="M130 101l-8-3 3-7 7 3z"/><path fill="#dbe1e0" d="M56 151l2 16-34 5-2-15z"/><path fill="#d5dfdc" d="M280 163l1-8 19 2-1 8z"/><path fill="#c8aa9d" d="M191 65l9-13h1l-8 14z"/><path fill="#644c3d" d="M244 209h-2v-20h1z"/><path fill="#f7f8f8" d="M1 36L-33 6 1-31 34-1z"/><path fill="#dfe1da" d="M175 64h2l-10 36h-1z"/><path fill="#9c9688" d="M228 172l3-9 2 1-3 9z"/><path fill="#beb59f" d="M241 168l2-19h2l-2 19z"/><path fill="#24200e" d="M76 185l-18 25-8-5 19-26z"/><path fill="#d3cdc4" d="M213 49l-6 18-6-2 7-18z"/><path fill="#4c524a" d="M9 170H8v-4h2z"/><path fill="#bbb3a4" d="M148 113h-1l-3-12h2z"/><path fill="#abb5b4" d="M386 163l1-3 7 4-2 3z"/><path fill="#a69f85" d="M119 108h-1l-4-8 1-1z"/><path fill="#816846" d="M143 115l-8 10h-2l9-11z"/><path fill="#bcc1bb" d="M226 67h1l-17 52h-1z"/><path fill="#302914" d="M328 229l14-61 6 2-14 60z"/><path fill="#e6ebe7" d="M230 69l6 29h-2l-6-29z"/><path fill="#a8a599" d="M202 134l-14 43h-1l14-43z"/><path fill="#cdcfc9" d="M201 73l6 3-16 34-5-3z"/><path fill="#cdc8b1" d="M146 82l-12 2v-1l12-3z"/><path fill="#6f7674" d="M17 173v-4h2v5z"/><path fill="#b2baba" d="M300 162v3l-17 3v-3z"/><path fill="#c5cac2" d="M205 153l6-48h5l-7 48z"/><path fill="#8f8173" d="M227 98l-7 22h-1l6-23z"/><path fill="#d9dcd6" d="M234 94l-2 26h-5l2-26z"/><path fill="#a0938a" d="M224 101l2-28h1l-1 28z"/><path fill="#e6eae8" d="M409 116l-13 22-35-21 14-22z"/><path fill="#f2f2ec" d="M155 91h-1l14-25 2 1z"/><path fill="#eff2f1" d="M288 70l115-12 4 42-115 12z"/><path fill="#ada369" d="M149 53h4v2l-5-1z"/><path fill="#1f1e11" d="M1 195l45-5 1 11-45 4z"/><path fill="#c7c9c1" d="M148 166l-9 30-4-1 9-30z"/><path fill="#b6b0a5" d="M171 128l11-36 2 1-11 35z"/><path fill="#303122" d="M393 177l-1 1-12-12 1-1z"/><path fill="#70645d" d="M188 95h-2l-3-7h1z"/><path fill="#765833" d="M129 87l1 6-20 3-1-6z"/><path fill="#bac3bf" d="M348 163l-35 2v-2l35-1z"/><path fill="#8f7a6a" d="M193 56l1 1-17 20-1-1z"/><path fill="#3a3a33" d="M330 169l-68 6v-2l68-6z"/><path fill="#e7eaeb" d="M40 138L3 162l-16-27 37-23z"/><path fill="#a29d85" d="M224 213l17-52h2l-17 52z"/><path fill="#c1c8c8" d="M356 161l-2-3 14-8 1 3z"/><path fill="#5a2c00" d="M174 54l5 2-2 4-4-1z"/><path fill="#cebc99" d="M161 70l-2-1 1-3 1 1z"/><path fill="#dddbcb" d="M144 66v-2l10-3 1 1z"/><path fill="#5e4224" d="M130 114l-1-3 8-5 1 3z"/><path fill="#ebf1ed" d="M257 125l-19-21 16-15 19 21z"/><path fill="#d5d8d4" d="M147 169l-17 1-1-31 17-1z"/><path fill="#100400" d="M186 47l3 3-1 1-4-3z"/><path fill="#e7e8d9" d="M153 51l1 1-46 30-1-1z"/><path fill="#717171" d="M176 120l-2-1 5-9h1z"/><path fill="#aeb2b0" d="M293 151l-4-2 1-2 4 3z"/><path fill="#beb49c" d="M144 56h1v5h-1z"/><path fill="#958267" d="M128 102l17-4v2l-16 3z"/><path fill="#918173" d="M202 129l-5-1 3-18 5 1z"/><path fill="#e4e6d8" d="M240 109l4 8-7 4-4-9z"/><path fill="#9e988d" d="M211 62l1 1-2 4-2-1z"/><path fill="#9b8f7f" d="M185 73l-14 28-1-1 14-28z"/><path fill="#34372d" d="M271 166l4 3-7 10-4-3z"/><path fill="#b3b8b5" d="M320 147l2 1-3 7-2-1z"/><path fill="#b6916d" d="M181 57l2-4 3 1-2 4z"/><path fill="#bfc2b7" d="M163 70h1l-3 9-2-1z"/><path fill="#dee4e3" d="M81 180h-2l1-30h2z"/><path fill="#afacaa" d="M192 50l-2 1-2-2 1-1z"/><path fill="#cbcec6" d="M209 179l14-43 7 2-14 43z"/><path fill="#726253" d="M173 118l-2-1 14-43 2 1z"/><path fill="#b8a39f" d="M199 66h1l-3 14-2-1z"/><path fill="#af9d80" d="M236 209h-2l10-45 1 1z"/><path fill="#d8a18d" d="M201 43v1l-16-1v-1z"/><path fill="#dedfd9" d="M180 63l1 1-6 6-1-2z"/><path fill="#9b896d" d="M144 68l14 5-1 1-13-5z"/><path fill="#f2f4f5" d="M236 57l-36-13 3-9 37 13z"/><path fill="#91735d" d="M211 87v1l-8-1v-2z"/><path fill="#846d49" d="M157 120l-1-1 4-9h2z"/><path fill="#cec19f" d="M129 70l2 2-14 13-2-3z"/><path fill="#e3e8e7" d="M320 113h2l3 44h-2z"/><path fill="#b9bcb6" d="M185 127l3 7-18 9-4-7z"/><path fill="#555656" d="M298 170h-1l-3-4h2z"/><path fill="#554d47" d="M307 168v-3h6v3z"/><path fill="#b3bbb8" d="M337 146h-3l-1-3h3z"/><path fill="#323229" d="M326 168l7-3 5 12-7 3z"/><path fill="#7e7066" d="M192 67l2 2-3 3-2-2z"/><path fill="#f1f2f4" d="M-31 21l143 2-1 58-143-3z"/><path fill="#e7e8da" d="M141 72l-8 1v-3l7-1z"/><path fill="#6a5748" d="M203 105h2v11h-2z"/><path fill="#bfb59b" d="M256 144l2-1 15 112h-1z"/><path fill="#ab8e6d" d="M233 144l3-3 1 1-3 3z"/><path fill="#6a5b45" d="M149 76h3l-2 6-3-1z"/><path fill="#212113" d="M370 186l-11-20 7-3 11 19z"/><path fill="#b5bbbc" d="M276 166v2l-3-1v-2z"/><path fill="#bd9c79" d="M172 58h-1l-1-5h2z"/><path fill="#5b472e" d="M144 133l6-12h2l-7 13z"/><path fill="#3f4039" d="M77 176v3l-15-1v-3z"/><path fill="#493918" d="M146 60l-1-1 5-2v2z"/><path fill="#c99d89" d="M209 77h2l-3 7h-2z"/><path fill="#d3af56" d="M149 60v-1l7 1-1 2z"/><path fill="#cdcbbf" d="M219 217l25-86 1 1-25 85z"/><path fill="#a49988" d="M202 127l-7 24-1-1 6-24z"/><path fill="#d1d9d7" d="M384 153l-12 9-1-1 12-9z"/><path fill="#c3c2bc" d="M204 117l4 4-1 2-4-5z"/><path fill="#5e5c55" d="M386 167l1-2 10 5-1 1z"/><path fill="#767b7a" d="M265 169v-2h22v2z"/><path fill="#9a8772" d="M142 117l-5-1 1-6h4z"/><path fill="#888c89" d="M311 163h-2l4-9 1 1z"/><path fill="#857865" d="M158 74l-1-1 21-11 1 1z"/><path fill="#b7b3a8" d="M215 99l6-22h3l-6 23z"/><path fill="#aba89c" d="M178 109l-6 24h-2l7-24z"/><path fill="#c0b396" d="M127 118l7-2v2l-7 2z"/><path fill="#ced6d8" d="M28 174v-2l45-3v1z"/><path fill="#948984" d="M218 61l-5-6 2-2 5 6z"/><path fill="#2b281a" d="M75 193l-5-1 4-14 4 1z"/><path fill="#e48470" d="M196 44l2 2-2 2-2-2z"/><path fill="#ae926b" d="M134 84l-11-4 1-3 11 4z"/><path fill="#533d18" d="M115 92l2-1 10 19-1 1z"/><path fill="#e1e3e0" d="M100 104l17 5-12 45-17-5z"/><path fill="#1d180b" d="M311 174l22 20-11 12-22-21z"/><path fill="#c1b1a1" d="M173 93h-2l8-16 1 1z"/><path fill="#a69470" d="M109 99l-1-11 3-1 1 11z"/><path fill="#c8ccc4" d="M81 176h1l-5 31h-2z"/><path fill="#bbc4c5" d="M11 172l1 2-9 2-1-1z"/><path fill="#e2e6e8" d="M19 135l68 11-4 23-68-10z"/><path fill="#dbe3e0" d="M266 163l-4-15 27-7 4 16z"/><path fill="#1d1b10" d="M7 203l-5-20h2l5 20z"/><path fill="#d4cec2" d="M173 80v-5h3v5z"/><path fill="#331707" d="M188 48v-1l3-3 1 1z"/><path fill="#c2ac9c" d="M186 89l7-13 4 2-7 14z"/><path fill="#7c7b72" d="M229 159h2l1 6h-2z"/><path fill="#af8a6f" d="M209 80l6 2-4 15-6-2z"/><path fill="#98908a" d="M220 77l-1-1 3-10h1z"/><path fill="#c4c5bf" d="M140 168h3l-6 50h-3z"/><path fill="#bebdb0" d="M235 170l-13 59h-2l12-60z"/><path fill="#d9d8d1" d="M196 166h1l-19 58-2-1z"/><path fill="#b5a791" d="M136 87l1-1 7 10-2 1z"/><path fill="#c6c6be" d="M219 111h1l-18 52-2-1z"/><path fill="#7e6350" d="M214 74l-5-4 1-1 5 3z"/><path fill="#2e2a1f" d="M363 175l-46 3v-5l45-2z"/><path fill="#dce1e0" d="M40 161l1-8 62 13-2 8z"/><path fill="#f5f6f6" d="M379-3l14-11 27 35-14 10z"/><path fill="#a89b80" d="M162 152h1l-14 23-1-1z"/><path fill="#727a6c" d="M262 170l5-3 1 2-5 3z"/><path fill="#18160a" d="M382 211l-41-13 4-10 40 13z"/><path fill="#dfece7" d="M-2 171l1-4 8 1-1 4z"/><path fill="#b49f84" d="M254 141l-4 11-2-1 4-10z"/><path fill="#948057" d="M122 113l1-1 6 5-1 1z"/><path fill="#777c7a" d="M366 161l3-5h1l-3 6z"/><path fill="#b5ada1" d="M143 96l-2 5-4-2 2-4z"/><path fill="#a48967" d="M156 111l-3 5h-1l3-6z"/><path fill="#301806" d="M188 46l2 1-2 2h-1z"/><path fill="#46463b" d="M5 180l4-3 6 7-3 3z"/><path fill="#d7d6cb" d="M242 137h-1l-3-22h1z"/><path fill="#f1c3a9" d="M175 53l-1-1 2-3 1 1z"/><path fill="#afb3af" d="M76 214l5-31 14 2-5 31z"/><path fill="#d7dfdc" d="M438 163l-79-11 1-10 79 11z"/><path fill="#bcbebb" d="M189 100l3 2-17 40-3-1z"/><path fill="#a25d58" d="M198 48l1-4h1v4z"/><path fill="#99825b" d="M246 193l8-32h1l-7 33z"/><path fill="#645138" d="M136 97l-2-1 4-7 1 1z"/><path fill="#decac0" d="M212 58h3l-1 5-3-1z"/><path fill="#766e6a" d="M184 93l5 1-3 9-4-1z"/><path fill="#dadfde" d="M142 64v-2l14 1v2z"/><path fill="#f5f6f0" d="M163 80l6-13 1 1-6 13z"/><path fill="#c3a792" d="M220 84l-12-2 1-11 13 2z"/><path fill="#585954" d="M342 164l2 2-7 6-2-2z"/><path fill="#5c493f" d="M219 60v3h-2v-3z"/><path fill="#ebefef" d="M96 119l-112 13-3-27L92 91z"/><path fill="#8f9694" d="M267 163l6 2-1 2-6-2z"/><path fill="#dbdcd5" d="M204 236l24-80 1 1-24 79z"/><path fill="#9f855f" d="M126 85v2l-9 1-1-1z"/><path fill="#5c6660" d="M316 167l1-3 9 1v4z"/><path fill="#78675f" d="M191 60l-4 10-2-1 5-9z"/><path fill="#f1f4f3" d="M195 17l7 9-39 33-7-8z"/><path fill="#bdbfb8" d="M160 129l-17 14-1-1 17-15z"/><path fill="#776855" d="M152 121l3 5-3 2-2-6z"/><path fill="#bdb296" d="M163 109l-1 1-2-5h2z"/><path fill="#caccc5" d="M193 109l6 1-9 57-6-1z"/><path fill="#bec3bb" d="M206 138l11-19 1 1-11 19z"/><path fill="#b3a68f" d="M151 144l-1-3 4-2 1 3z"/><path fill="#8b6c40" d="M136 119l6 10h-2l-5-9z"/><path fill="#634500" d="M154 55l-5 5-1-1 5-5z"/><path fill="#c7cdcb" d="M363 158l1-15h3l-1 16z"/><path fill="#dad6ca" d="M148 98l-2 1-2-8h2z"/><path fill="#cdd1c2" d="M140 66l-18 8-1-1 18-8z"/><path fill="#c0bbaa" d="M151 83v1l-16-6v-2z"/><path fill="#463d2b" d="M286 171l-3 20-2-1 3-20z"/><path fill="#bdaa9a" d="M168 113h-1l10-21h1z"/><path fill="#d8d9cb" d="M170 106l-1 1-24-5v-1z"/><path fill="#252213" d="M392 193l-7-14 22-11 7 13z"/><path fill="#ccc1a8" d="M213 174h-1l-5-21 2-1z"/><path fill="#968272" d="M176 82l-1-1 16-23h1z"/><path fill="#c8d4d4" d="M375 159v-2l30 5-1 1z"/><path fill="#aa913b" d="M158 57l3-1 1 4-3 1z"/><path fill="#e5e9e7" d="M435 107l1 22-179 9-1-22z"/><path fill="#968377" d="M192 62l3 9h-1l-3-9z"/><path fill="#c6c6bc" d="M189 200l6-26 11 3-6 25z"/><path fill="#c1c6bc" d="M262 167l-3-4 6-3 2 4z"/><path fill="#f6e3bd" d="M154 52l10 5-1 2-10-5z"/><path fill="#a29584" d="M145 73l-4 1v-2h4z"/><path fill="#d8e0d7" d="M100 103l7-6 7 8-7 6z"/><path fill="#a1a49e" d="M200 109h-1v-4h1z"/><path fill="#aaafac" d="M14 155h3l-1 5-3-1z"/><path fill="#d2d3ca" d="M128 124l6 16-11 3-5-16z"/><path fill="#dacab1" d="M238 116l12 4-2 9-12-4z"/><path fill="#756455" d="M244 164h2l-1 14h-2z"/><path fill="#cbcdc1" d="M219 185h-1l8-40h2z"/><path fill="#aab1b4" d="M-5 174l37-1v2H-5z"/><path fill="#a8acae" d="M41 175l-2 1-3-6h1z"/><path fill="#d6ddda" d="M44 174l-10-10 8-8 10 10z"/><path fill="#a8976d" d="M234 147l2 7-3 1-2-7z"/><path fill="#f2f4f6" d="M154 34l-3-20 197-24 3 20z"/><path fill="#c6cbc5" d="M8 166v-3l5 1-1 3z"/><path fill="#383c36" d="M34 187l-5-9 1-1 5 9z"/><path fill="#b8a999" d="M207 88l-1 8-5-1 1-8z"/><path fill="#8d704d" d="M132 107l-6-11 3-1 6 10z"/><path fill="#f0f1f0" d="M319 32l112-6 2 44-112 6z"/><path fill="#a1aca8" d="M8 174H7l-1-6h2z"/><path fill="#c1c5c0" d="M216 115l-6 26-3-1 6-26z"/><path fill="#90776c" d="M198 52l1 1-17 18-1-1z"/><path fill="#903728" d="M196 52l-4-4 2-1 3 3z"/><path fill="#7e775e" d="M213 166h-2v-9h1z"/><path fill="#dcdfd8" d="M126 233h-2l-10-118h1z"/><path fill="#f0f2f3" d="M249 92l-30-40 52-39 30 40z"/><path fill="#6b6764" d="M48 177l8-1v2h-8z"/><path fill="#c9c9c7" d="M103 209v-36h2v36z"/><path fill="#ecdbcd" d="M197 38v3h-11v-3z"/><path fill="#26210f" d="M306 182l-3 15-17-2 3-16z"/><path fill="#b39c78" d="M263 189l-10-39h2l9 39z"/><path fill="#aaa089" d="M152 81l-1-4h2v4z"/><path fill="#7c5533" d="M165 65l-1-1 13-6 1 2z"/><path fill="#bdc3c1" d="M323 152l1-1 11 5-1 1z"/><path fill="#5d615b" d="M332 166l1-1 2 5h-1z"/><path fill="#c9c9c2" d="M221 123l2 4-1 1-3-4z"/><path fill="#aeb3b6" d="M53 169l1-1 4 5-1 1z"/><path fill="#3d321b" d="M348 177l-8 17-2-1 8-17z"/><path fill="#c9bfa8" d="M214 149h2l-1 19h-1z"/><path fill="#826e5b" d="M144 88l-6-1 1-2 6 2z"/><path fill="#524e4b" d="M308 170l-1 1-7-5 1-1z"/><path fill="#231d0e" d="M325 178l17 1-3 42-17-1z"/><path fill="#ecefef" d="M143 59l1 3-17 5v-3z"/><path fill="#242010" d="M73 216l-5-40h1l5 40z"/><path fill="#dde4e2" d="M262 152l81-18v3l-81 18z"/><path fill="#d8e0dc" d="M274 165l-1-2 42-17 1 3z"/><path fill="#776555" d="M245 156l1-1 2 10h-2z"/><path fill="#aba9a3" d="M205 51v-1l11 3-1 2z"/><path fill="#5d4a38" d="M169 122l1 1-9 12h-2z"/><path fill="#685f4e" d="M157 77l-1-5h1l1 4z"/><path fill="#dacec4" d="M198 54l9 3-3 9-9-3z"/><path fill="#b2957f" d="M138 92l-1-1 2-3 1 1z"/><path fill="#c2cacb" d="M6 171l30 2v1l-30-1z"/><path fill="#74716c" d="M309 166l-2-1 5-5 1 1z"/><path fill="#7e6c5e" d="M179 77l-2-1 8-14 2 1z"/><path fill="#a19175" d="M156 66l-4-1v-1l4 1z"/><path fill="#b29c7a" d="M151 166l-4-2 4-7 4 2z"/><path fill="#c0c0be" d="M188 129l-4-28h2l4 28z"/><path fill="#40423f" d="M48 177l-2 1-1-3 1-1z"/><path fill="#edf2f1" d="M288 114l-30-13 27-60 30 13z"/><path fill="#c5c2b8" d="M227 102l-1-14 2-1 1 15z"/><path fill="#735c4e" d="M208 68l8 1-1 2-7-1z"/><path fill="#bebeb7" d="M187 177l7-24h2l-7 24z"/><path fill="#26261a" d="M268 175l8-5 2 3-9 5z"/><path fill="#d1dcd7" d="M314 164v-3l17-2v4z"/><path fill="#cab5a9" d="M215 56v11h-3l-1-11z"/><path fill="#dadad4" d="M146 186l9 3-9 24-9-4z"/><path fill="#e1e3db" d="M162 76l-5 7-2-1 6-7z"/><path fill="#b9bdbc" d="M105 180v-8h4v8z"/><path fill="#b7afa4" d="M216 87l2 1-14 36-2-1z"/><path fill="#abaeaa" d="M90 179h2l7 40h-2z"/><path fill="#a0875d" d="M157 148l2 7-8 2-2-8z"/><path fill="#ebefed" d="M285 106l148-21 2 14-148 21z"/><path fill="#2e2b1e" d="M334 178v-2l15-8v1z"/><path fill="#343327" d="M386 175l-5-8 4-3 5 8z"/><path fill="#aa9679" d="M151 77h-3v-5h3z"/><path fill="#504028" d="M185 61l-2-3 3-2 1 3z"/><path fill="#dcddd9" d="M225 186l1 1-8 25h-2z"/><path fill="#c9aca6" d="M192 52l-3-3 2-2 3 3z"/><path fill="#eff3f4" d="M60 87l-84 19-13-56 84-20z"/><path fill="#bbb39f" d="M246 144h1l-4 14-1-1z"/><path fill="#ebede8" d="M166 70l1 1-13 30-1-1z"/><path fill="#7c8082" d="M78 171l1 1-2 2h-1z"/><path fill="#dbe4dc" d="M257 142l16 13-1 1-16-12z"/><path fill="#685a3b" d="M156 113l1 6-2 1-1-6z"/><path fill="#4e5256" d="M73 175l1-2 4 1v1z"/><path fill="#d1d3cd" d="M208 132l-2 26h-6l2-27z"/><path fill="#c9c0a6" d="M128 122l12 10-1 1-12-10z"/><path fill="#574327" d="M151 126l-1 2-9-9 1-1z"/><path fill="#6e5233" d="M137 110l-1 2-25-24 1-1z"/><path fill="#e6ece8" d="M114 103l-2 27h-3l2-27z"/><path fill="#775c39" d="M164 145l-2 1-5-8 1-1z"/><path fill="#785805" d="M164 63l-2 1-2-4 1-1z"/><path fill="#c8c9bf" d="M174 140l12 16-11 9-13-17z"/><path fill="#bfbaaf" d="M199 121h-2l-1-25h2z"/><path fill="#bdc5c0" d="M165 161l14-43 2 1-15 43z"/><path fill="#b2b4a9" d="M221 124l-1-8h1l1 7z"/><path fill="#d5c2a2" d="M154 71l-8-5 1-1 8 5z"/><path fill="#bbb3a7" d="M163 115l-8 22h-1l8-22z"/><path fill="#322a19" d="M54 210l-10-4 7-20 10 3z"/><path fill="#2d2e25" d="M44 178l1 2-16 12-1-1z"/><path fill="#d6d9d6" d="M94 191l3-16 5 2-4 15z"/><path fill="#6d5433" d="M134 106l4-5 1 1-3 5z"/><path fill="#cfd0cb" d="M142 166l1 1-18 12-1-1z"/><path fill="#c4b694" d="M109 85l8-5 1 2-8 5z"/><path fill="#dad2ca" d="M205 48l3 1-5 14-3-1z"/><path fill="#dce2de" d="M12 172l7-15h2l-7 16z"/><path fill="#8e7654" d="M146 103l-6 5-3-3 6-5z"/><path fill="#756057" d="M185 89l-1-3 1-1 2 3z"/><path fill="#849291" d="M397 163v-1l5 1-1 2z"/><path fill="#b9b8b3" d="M177 143l3-29 7 1-3 29z"/><path fill="#ab997a" d="M229 206l3-17 6 1-3 17z"/><path fill="#ced4cb" d="M118 197l-6 2-3-11 6-1z"/><path fill="#624523" d="M180 61l-14 6-1-1 14-6z"/><path fill="#979d99" d="M3 163l-4 2-1-1 5-2z"/><path fill="#e1e5e1" d="M177 73l-20 27-4-2 20-28z"/><path fill="#d8dad9" d="M229 109h2l-2 56h-2z"/><path fill="#ccc4a5" d="M237 137l-2-13h1l3 13z"/><path fill="#c1c7c5" d="M312 154l3-3 6 5-3 4z"/><path fill="#6d583b" d="M151 118l-4-2v-1l5 2z"/><path fill="#8c765b" d="M203 97l2 1-4 7-1-1z"/><path fill="#544329" d="M264 177h2v10h-2z"/><path fill="#c1c6c6" d="M39 166v4h-5v-4z"/><path fill="#a98a78" d="M162 60l5-1v1l-4 1z"/><path fill="#d2cfbe" d="M148 93l-1-1 3-5 2 1z"/><path fill="#c0ae94" d="M253 149l-4-15h3l4 15z"/><path fill="#d7dedc" d="M298 162l-9 3-1-6 9-3z"/><path fill="#cbcec4" d="M209 61l-15 51h-1l14-51z"/><path fill="#4c4942" d="M44 179l9-2 1 5-9 2z"/><path fill="#ebe1d9" d="M164 56l26-18 1 2-26 17z"/><path fill="#edf1ea" d="M128 63l1 1-24 24-2-1z"/><path fill="#686259" d="M215 140l1-13h2l-1 13z"/><path fill="#928667" d="M265 182h-2l-1-9h2z"/><path fill="#cdc2af" d="M145 69l-1 2-6-1v-2z"/><path fill="#241905" d="M275 181h2l6 17-2 1z"/><path fill="#7f7873" d="M176 122l-2 1-1-3 1-1z"/><path fill="#7b7461" d="M266 191l-1 4-1-1v-3z"/><path fill="#d2d3cb" d="M140 206l13-32 9 3-13 32z"/><path fill="#b2a48e" d="M136 102l-1-1 9-5v2z"/><path fill="#5a2d26" d="M190 54l-1-1 4-3 1 2z"/><path fill="#b5bab8" d="M295 149l-3 2-1-1 3-2z"/><path fill="#b4a692" d="M145 179h1l1 3h-1z"/><path fill="#b48818" d="M156 58l-1 2-6-1v-1z"/><path fill="#3d2b18" d="M185 60v1h-6v-2z"/><path fill="#6c6660" d="M177 114l5-12 1 1-4 12z"/><path fill="#8a7351" d="M156 118l-1-5 3-1 1 5z"/><path fill="#5d190b" d="M192 50h5v1l-5 1z"/><path fill="#f4f2ee" d="M159 83l13-18 2 1-14 17z"/><path fill="#b8b6ab" d="M201 210l8-38 1 1-8 38z"/><path fill="#e3e8e8" d="M94 143l-64 20-4-11 65-19z"/><path fill="#7b582e" d="M136 120l2-1 5 7-1 1z"/><path fill="#7e8383" d="M273 169v-2h21v2z"/><path fill="#858985" d="M344 167l-1 1-4-5 1-1z"/><path fill="#daded9" d="M150 138l1 1-43 37-1-1z"/><path fill="#c4c7bb" d="M153 102l2 1-7 9-1-1z"/><path fill="#2e2d1f" d="M380 178l12-7 1 2-11 8z"/><path fill="#302c1b" d="M288 171h7l-1 19h-6z"/><path fill="#a48f81" d="M221 73v2l-9-3v-1z"/><path fill="#504334" d="M205 110l-1-5h2l1 4z"/><path fill="#52524a" d="M370 164v1l-5-2 1-1z"/><path fill="#8e9395" d="M-34 175h73v2h-73z"/><path fill="#cecdbf" d="M227 187l18-55 1 1-17 55z"/><path fill="#e0e2df" d="M106 110l-4 64-9-1 3-64z"/><path fill="#d4b59b" d="M177 74l-1-5h2v4z"/><path fill="#73523e" d="M174 109l1 1-4 5-1-2z"/><path fill="#b4b8b0" d="M106 184l2 7-3 2-2-8z"/><path fill="#262115" d="M321 184l-22-12 1-1 22 12z"/><path fill="#bab29b" d="M231 139l1-17h1l-1 17z"/><path fill="#b4a8a4" d="M222 64l-3-4 2-1 2 4z"/><path fill="#7b5c35" d="M177 56h11v2h-11z"/><path fill="#b7a184" d="M252 140h2l-4 25h-2z"/><path fill="#bbb995" d="M230 157l-1-9h2l1 9z"/><path fill="#d3af8e" d="M180 48l1-1h3v2z"/><path fill="#f1f4f4" d="M176 40l-1-21 35-1 1 21z"/><path fill="#ac9d89" d="M145 113l-1 2-6-5 1-1z"/><path fill="#d3d3c9" d="M170 92h2l-6 21h-2z"/><path fill="#bca788" d="M123 79l-6 7-1-1 6-7z"/><path fill="#211e0c" d="M70 209l-9-3 5-16 9 2z"/><path fill="#5f5f48" d="M75 198v3h-1l-1-3z"/><path fill="#b0a38f" d="M142 109v3h-1l-1-3z"/><path fill="#434a46" d="M323 168l-2-3h2l1 2z"/><path fill="#b5a383" d="M128 119l1-1 4 5-1 1z"/><path fill="#d3c8bb" d="M171 80l1 13h-1l-1-12z"/><path fill="#cbd2d1" d="M225 120h2l-7 40h-1z"/><path fill="#9f9185" d="M216 141h1v4h-1z"/><path fill="#c2aea3" d="M183 87l-1-2 11-11 1 2z"/><path fill="#f0f5ff" d="M156 55l4-6 1 1-4 5z"/><path fill="#d4d5cc" d="M193 99l-2-1 15-36 1 1z"/><path fill="#a1aca6" d="M267 163v1l-4 3-1-2z"/><path fill="#dccba4" d="M140 66v-2h6v2z"/><path fill="#8b9088" d="M78 179v6h-1v-6z"/><path fill="#7b644d" d="M244 185l1-1 3 24h-1z"/><path fill="#988a64" d="M243 165l-4 12h-2l4-12z"/><path fill="#d0d2ca" d="M227 130l-32 117h-1l31-118z"/><path fill="#6d7370" d="M394 165l-20 1v-2h20z"/><path fill="#b77e5f" d="M173 53h6v2h-6z"/><path fill="#d0d1cb" d="M213 50l-12 1v-2l12-1z"/><path fill="#636464" d="M40 179l-50-1v-2l50 1z"/><path fill="#4f3e2a" d="M215 150h-2l-1-8h2z"/><path fill="#684e2b" d="M138 93l-3 4-6-4 3-4z"/><path fill="#7b5c3a" d="M111 87v-1l14 7v1z"/><path fill="#c4beb6" d="M210 142l2-8 2 1-3 7z"/><path fill="#a9a193" d="M196 146h-1l1-25h2z"/><path fill="#90958f" d="M377 162l-1 1-7-1v-2z"/><path fill="#836842" d="M135 88l-6 2v-1l6-3z"/><path fill="#c1c8c9" d="M53 165l-1 1-3-4 1-1z"/><path fill="#e1e7e5" d="M311 139v-14l176-3 1 14z"/><path fill="#232318" d="M49 205l-8 10-26-22 8-9z"/><path fill="#ebf0f0" d="M95 127l-46-11 8-35 46 11z"/><path fill="#f0f2f2" d="M263 57l-6 44-25-4 6-43z"/><path fill="#bea793" d="M193 62l-2-1 3-3 1 2z"/><path fill="#b9bbbc" d="M144 139l-1 1-7-6 1-1z"/><path fill="#9ea5a3" d="M365 159l2-4h1l-2 4z"/><path fill="#1a1b0f" d="M367 191l12-9 18 25-12 10z"/><path fill="#9f8d83" d="M188 84l-1 1-4-2v-1z"/><path fill="#81786c" d="M230 163l2 3-1 1-2-3z"/><path fill="#dad3c0" d="M229 111h2l1 36h-2z"/><path fill="#7c5800" d="M148 56h6v2h-6z"/><path fill="#41341f" d="M286 186l1 1-16 4v-2z"/><path fill="#5c5144" d="M215 134l1-11 2 1-1 11z"/><path fill="#958b7f" d="M215 133h2l1 11h-2z"/><path fill="#eef2ea" d="M152 93h-2l3-9h2z"/><path fill="#43473b" d="M355 171l-1-2 8-7 1 1z"/><path fill="#e2e5e7" d="M21 158l-19-7 4-11 19 8z"/><path fill="#c8c0ad" d="M146 82l-13-3v-3l14 3z"/><path fill="#c2a696" d="M190 64l1-3 8 2-1 3z"/><path fill="#b0b6b4" d="M302 165h-2v-3h1z"/><path fill="#93857e" d="M191 62l-11 8-1-2 12-8z"/><path fill="#8f8362" d="M215 153l-2 6-1-1 1-6z"/><path fill="#e2e6df" d="M236 104l1-1 13 16-1 1z"/><path fill="#9e7d53" d="M161 152l-2 3-6-6 2-2z"/><path fill="#dae1da" d="M232 77l-1 29h-2l1-29z"/><path fill="#d2bd8f" d="M124 79l-1-3h5v3z"/><path fill="#877565" d="M203 122h-1v-14h1z"/><path fill="#938b83" d="M214 129v-3h1l1 3z"/><path fill="#e0e4e1" d="M23 161l-22 6v-1l21-6z"/><path fill="#b6a98e" d="M149 171l2 1-2 6-1-1z"/><path fill="#433927" d="M167 133l-3 8-1-1 3-7z"/><path fill="#e7b7a4" d="M196 45l-4-3 1-1 4 3z"/><path fill="#b2bcb5" d="M20 170h-1v-4h2z"/><path fill="#b39872" d="M133 75v2h-5v-2z"/><path fill="#a18966" d="M255 216l-6-32 8-2 5 33z"/><path fill="#444646" d="M404 165l-1 5-8-2 1-5z"/><path fill="#fef4e3" d="M203 48h-1v-3h1z"/><path fill="#f1f3f4" d="M297-2l8 57-79 11-8-57z"/><path fill="#d5dad0" d="M109 106h-2l-2-14h2z"/><path fill="#b9c0be" d="M334 166l4-6 1 1-3 5z"/><path fill="#ad9c8e" d="M249 173h-2v-10h1z"/><path fill="#ad9671" d="M117 109l1-2 4 5-1 1z"/><path fill="#614628" d="M133 116l-4-3 2-5 5 2z"/><path fill="#5d5e5a" d="M306 169l-3 1-1-6 3-1z"/><path fill="#555454" d="M297 171l-24-1v-2l24 1z"/><path fill="#bca382" d="M155 69l1 4-3 1-1-5z"/><path fill="#e1e3de" d="M111 154l15 5-4 13-15-4z"/><path fill="#6a5438" d="M159 67l2 4-3 1-2-4z"/><path fill="#bfa886" d="M113 82l16 1v2l-16-1z"/><path fill="#564a43" d="M206 106l1-5 2 1-2 4z"/><path fill="#c1c1b6" d="M203 193h-1l9-65h1z"/><path fill="#9b8156" d="M138 125l-2 2-1-1 2-2z"/><path fill="#c2b69a" d="M262 181h1l2 30h-2z"/><path fill="#b8ad8f" d="M113 100h-3v-2h3z"/><path fill="#9c8a71" d="M250 153l-3 1-2-6 3-1z"/><path fill="#302d20" d="M389 172l-1 1-19-6v-1z"/><path fill="#201c0f" d="M364 167l7 2-11 38-8-3z"/><path fill="#231f0e" d="M274 182l-7 35h-2l7-36z"/><path fill="#c8b6ab" d="M184 82l14-10 1 1-14 10z"/><path fill="#b3b9b8" d="M79 171v1l-3-1v-1z"/><path fill="#5a4933" d="M148 78l2-1v3l-1 1z"/><path fill="#a59b8b" d="M179 75l5 4-1 1-5-4z"/><path fill="#dde5e1" d="M401 133l-69 25v-2l69-25z"/><path fill="#c5bca7" d="M244 147l3-24 1 1-2 23z"/><path fill="#5d6261" d="M19 182l-1-1 8-5 1 1z"/><path fill="#b2b1a6" d="M148 88l-2-1 5-8 1 1z"/><path fill="#9aa19d" d="M342 164h3l-1 2-3-1z"/><path fill="#bcbab1" d="M227 70l-14 28-1-1 14-28z"/><path fill="#846b48" d="M135 85l-4 5-2-1 4-5z"/><path fill="#bbb3a3" d="M152 146l-2-1 9-27 2 1z"/><path fill="#c9cfcd" d="M307 152h2l1 7h-1z"/><path fill="#c6c5b1" d="M122 112l-3 4-2-1 4-4z"/><path fill="#ad9d81" d="M156 66l-8-1v-1h8z"/><path fill="#aeb4af" d="M349 162v2h-34v-1z"/><path fill="#474842" d="M341 165l2 3-4 3-2-3z"/><path fill="#aab1b1" d="M370 156l1-1 2 3-2 1z"/><path fill="#d9dfd9" d="M103 101l10 4-5 11-10-4z"/><path fill="#bbc4c4" d="M282 164v1l-9 1v-2z"/><path fill="#525049" d="M53 176l11 1v1H53z"/><path fill="#c2b8ae" d="M175 101h-1l-1-3h2z"/><path fill="#534038" d="M215 140l1 2-1 1-2-2z"/><path fill="#37372a" d="M-3 189l7-9 1 1-7 9z"/><path fill="#aa9d89" d="M149 72l1 1-7 4-1-2z"/><path fill="#cec1ac" d="M175 76l-1-2 3-1 1 1z"/><path fill="#988077" d="M227 86l-2 20h-3l1-20z"/></svg>