<svg xmlns="http://www.w3.org/2000/svg" viewBox="0 0 400 200"><style>@keyframes a{from{opacity: 0}to{opacity: 1}}g&gt;*{opacity: 0;animation: a .5s forwards}</style><path fill="#cecec9" d="M0 0h400v200H0z"/><g transform="translate(1 1) scale(1.5625)"><ellipse rx="1" ry="1" transform="matrix(-1.17043 20.11687 -85.78751 -4.99126 236 125)" style="animation-delay:0s"/><ellipse rx="1" ry="1" transform="matrix(48.24881 -8.41315 2.34609 13.45465 4 127)" style="animation-delay:.188s"/><ellipse fill="#fff" rx="1" ry="1" transform="matrix(43.7109 53.85274 -45.51938 36.94693 202 38)" style="animation-delay:.376s"/><ellipse rx="1" ry="1" transform="matrix(71.41109 .01956 -.00387 14.1465 239 119)" style="animation-delay:.562s"/><path fill="#fff" d="M-16-2l193-14-193 130z" style="animation-delay:.746s"/><ellipse fill="#927d62" rx="1" ry="1" transform="matrix(-33.12293 13.2933 -12.77103 -31.82157 112 63)" style="animation-delay:.927s"/><path d="M-16 117l58 26 8-31z" style="animation-delay:1.104s"/><path fill="#604217" d="M81 49l27 39-8 4-35-34z" style="animation-delay:1.277s"/><ellipse fill="#f5fcff" rx="1" ry="1" transform="rotate(-117 39 21) scale(48.40048 32.56665)" style="animation-delay:1.445s"/><ellipse fill="#b19464" cx="157" cy="127" rx="13" ry="44" style="animation-delay:1.607s"/><ellipse fill="#fdffff" cx="131" cy="13" rx="255" ry="15" style="animation-delay:1.763s"/><ellipse fill="#fff" rx="1" ry="1" transform="rotate(-57 103 -65) scale(16.15764 5.67284)" style="animation-delay:1.912s"/><path fill="#160e00" d="M170 109h86v19h-86z" style="animation-delay:2.054s"/><path fill="#693410" d="M123 25l-5 6-21 12 31-4z" style="animation-delay:2.187s"/><path fill="#684d28" d="M111 69L97 89v21z" style="animation-delay:2.312s"/><ellipse fill="#f3f8f9" cx="199" cy="27" rx="57" ry="57" style="animation-delay:2.427s"/><path fill="#c2c4bc" d="M155 78l-22 44-34-16 22-44z" style="animation-delay:2.533s"/><ellipse fill="#f7fafd" cx="103" cy="6" rx="19" ry="30" style="animation-delay:2.629s"/><path fill="#dce1da" d="M90 89l20-20-39 71-13-92z" style="animation-delay:2.714s"/><path fill="#f0f0f1" d="M127 29l-7 59 26-86L8-16z" style="animation-delay:2.789s"/><path fill="#432b13" d="M140 76h1l-7 32h-1z" style="animation-delay:2.853s"/><path fill="#543309" d="M87 56H69l12 17z" style="animation-delay:2.906s"/><path fill="#b9c5c3" d="M250 94l-62-1-3 11 38 4z" style="animation-delay:2.947s"/><path fill="#a18765" d="M160 90l10 32-32 21z" style="animation-delay:2.976s"/><path fill="#b9c2c1" d="M54 95l-42 17h62l-30 31z" style="animation-delay:2.994s"/></g></svg>