<svg xmlns="http://www.w3.org/2000/svg" viewBox="0 0 50 25"><path fill="#cfcfca" d="M0 0h50v25H0z"/><path d="M26 41l5-19 27-2zM8 36l-23-14h26z"/><path fill="#fff" d="M53 16L-15 4l66-19z"/><path fill="#9e8c77" d="M14 11l13-7 15 37z"/><path d="M36 21h25L23 41z"/><path fill="#fff" d="M15 21h-30l29-35z"/><path fill="#f8fdfd" d="M38 20l28-7-55-28z"/><path d="M7 35L1 22h9z"/><path fill="#776952" d="M19 18l-4-8 7 5z"/><path fill="#d9dbd2" d="M22 19l1 22 10-30z"/><path fill="#f7fafc" d="M-3-15l4 31L38-2z"/><path fill="#694a39" d="M24 6l1 5-2-1z"/><path fill="#130c00" d="M35 23l31-3-26 11z"/><path fill="#e5e6e1" d="M14 28l5-10-8-6z"/><path fill="#e9d7c6" d="M22 10l-3-2v5z"/><path fill="#938d8f" d="M25 18l3-10v9z"/><path fill="#dae0df" d="M66 7l-7 14-22-2z"/><path fill="#413023" d="M21 9h-1l2-1z"/><path fill="#f4f5f5" d="M-6 9l-1-24L61 2z"/><path fill="#5d4e37" d="M14 12l6 3-3-3z"/><path fill="#b29876" d="M32 18l7 23-11-11z"/><path fill="#4b4f46" d="M43 21l-7 2 3-3z"/><path fill="#e7ebe4" d="M30 9l4 10 12 2z"/><path fill="#edf2f3" d="M-15 8l26 11 7-18z"/><path fill="#fce9d5" d="M20 15l-1-2 3-3z"/><path fill="#cfcec8" d="M11 41h22l-8-28z"/><path fill="#8a8173" d="M19 22v-8l4 1z"/><path fill="#685d4c" d="M17 14l-2-1 6-4z"/><path fill="#d6d0c3" d="M39 41H26L13 11z"/><path fill="#15170c" d="M9 24l-7 8-17-10z"/><path fill="#b5a093" d="M29 10l-8-2 7 4z"/><path fill="#757161" d="M19 20l2-1v-2z"/><path fill="#c8c7c1" d="M11 41l17-19-3-9z"/><path fill="#51584f" d="M2 24l-3-2h8z"/><path fill="#f0f2f0" d="M58 13L40-9 29 15z"/><path fill="#1d1a0b" d="M29 30l32-3-22-5z"/><path fill="#927c76" d="M24 13v-1l-2-1z"/><path fill="#acaeac" d="M12 22l5 19H8z"/><path fill="#adaea5" d="M32 38l1-17 3 14z"/><path fill="#f3f2f2" d="M19 11l-3-23-8-3z"/><path fill="#191911" d="M4 24l-19 17V20z"/><path fill="#725f44" d="M20 15l-6-3 4 4z"/><path fill="#f0e5d7" d="M12 12l5 4h-3z"/><path fill="#f0f3f3" d="M10 16L-15-1l34 6z"/><path fill="#cbc8bd" d="M22 18l5-2-6 9z"/><path fill="#947c5b" d="M32 20l-2 12 6 9z"/><path fill="#b4b4ac" d="M26 19l2-2-10-2z"/><path fill="#e5e8e8" d="M53 12l-18 3 31 9z"/><path fill="#dfdfdd" d="M13 14l-1 8 4-2z"/><path fill="#cad2d0" d="M37 18l5 2 1-2z"/><path fill="#352d1a" d="M57 37l-7 4-16-19z"/><path fill="#c5cdc7" d="M3 20l-12 4 6-4z"/><path fill="#f4f4f4" d="M26-15l8 4-8 19z"/><path fill="#e5d4d0" d="M25 13v-2l1 3z"/><path fill="#d4cec4" d="M21 38l-9 3 13-28z"/><path fill="#827776" d="M27 12l-2 2h1z"/><path fill="#dee1df" d="M20 17L6 20l10 1z"/><path fill="#dbd4c5" d="M28 21l1-3 1 6z"/><path fill="#bfc0c0" d="M14 22l4 14-4 5z"/><path fill="#e0e8eb" d="M9 17H0l14 5z"/><path fill="#988a86" d="M23 12l-2 2 3 1z"/><path fill="#baa294" d="M27 6h-2l2 2z"/><path fill="#b4ac9f" d="M30 21h6l-11-4z"/><path fill="#c8c9c1" d="M27 15l-7 9 5-1z"/><path fill="#cfcbc2" d="M31 15l-6 8 4-3z"/><path fill="#afaa98" d="M34 41h9L30 24z"/><path fill="#f1f3f2" d="M58-2L25 4l10 7z"/><path fill="#54402e" d="M23 7l2 2-1-2z"/><path fill="#e2e8e3" d="M40 17l-6-1 1 4z"/><path fill="#e9ddcb" d="M21 12l1 3-5-5z"/><path fill="#ebdbca" d="M22 10l-3 4h3z"/><path fill="#1c190e" d="M40 22l8 19H13z"/><path fill="#6d604b" d="M19 16l-1-5-3 1z"/><path fill="#9ba29e" d="M27 18v4l1-3z"/><path fill="#d1d4ca" d="M28 20l6 21-8-11z"/><path fill="#666b62" d="M5 23l-13-5-7 3z"/><path fill="#968161" d="M28 36l5-8-1-7z"/><path fill="#e6e7e6" d="M43 14l1 6 5-5z"/><path fill="#e7f0f1" d="M12 11l-3 6-18-1z"/><path fill="#f0f9ff" d="M26 2L-3-3l36-7z"/><path fill="#a4988e" d="M20 7l-1 2h3z"/><path fill="#f9f5f1" d="M26 4L16 8l3-9z"/><path fill="#f3f3f1" d="M17 2l-6 15V7z"/><path fill="#c9cdc6" d="M26 18l-1 17 5-2z"/><path fill="#f3efea" d="M19 4l-3 6h-3z"/><path fill="#25241c" d="M50 21h-9l-3 7z"/><path fill="#d3c2b0" d="M32 17l-4 5 2-7z"/><path fill="#b3b3a6" d="M35 21l3-1h-4z"/><path fill="#dfdbd8" d="M20 23L8 36l18 5z"/><path fill="#c6c6bf" d="M16 40l11-16-2-10z"/><path fill="#e1e0d2" d="M28 24l-5 17 8-9z"/><path fill="#f8f6e7" d="M34 16l-1-5h-3z"/><path fill="#d3cfc2" d="M23 41h8l-2-23z"/><path fill="#1c1708" d="M64 24l-29 1 7 10z"/><path fill="#85847a" d="M56 29l-5-9 8-17z"/><path fill="#c9c4bd" d="M48 41H35L18 22z"/><path fill="#988c85" d="M21 16l3-3-2-1z"/><path fill="#c6c7c0" d="M32 41l-8-28v28z"/><path fill="#6d6455" d="M17 11l1 2h-3z"/><path fill="#e2e3d9" d="M39 19l-5-1-3-3z"/></svg>