<svg xmlns="http://www.w3.org/2000/svg" viewBox="0 0 400 200"><path fill="#cecec9" d="M0 0h400v200H0z"/><path d="M421 163l1 60-185 3-1-60zM78 219l-78 3-1-46 78-2z"/><path fill="#fff" d="M336-88l94 177-155 82L181-6zM49 172L-59 82 69-70l107 90z"/><path d="M266 170l134-5 2 42-135 5z"/><path fill="#866e4f" d="M106 85l82-41 36 69-82 42z"/><path d="M74 177l3 39-90 6-3-39z"/><path fill="#fff" d="M322 3L-23 108l-23-75L299-72z"/><path fill="#b7a48b" d="M284 240l-34 12-64-188 34-11z"/><path fill="#553509" d="M146 135l-40-42 15-14 40 42z"/><path fill="#fff" d="M144 100l26-34 13 11-26 33z"/><path fill="#f5fbfd" d="M454-3l-34 162-194-42 34-162z"/><path fill="#181000" d="M439 215H266v-44h173z"/><path fill="#ebf2f2" d="M58 85l97 54-31 56-97-54z"/><path fill="#6e3318" d="M169 62l25-23 10 10-25 23z"/><path fill="#54340d" d="M178 110l-24 59-5-2 24-59z"/><path fill="#b0aba5" d="M223 65l-4 98-50-1 4-99z"/><path fill="#e6e8e4" d="M216 34l-24 98-10-2 25-98z"/><path fill="#895e01" d="M148 54l29 6-1 7-29-7z"/><path fill="#3c2917" d="M221 111h2l-11 42h-2z"/></svg>