<svg xmlns="http://www.w3.org/2000/svg" viewBox="0 0 400 200"><style>@keyframes fadeIn{from{opacity: 0}to{opacity: 1}}g.animated&gt;*{opacity: 0;animation: fadeIn .5s forwards}</style><path fill="#cecec9" d="M0 0h400v200H0z"/><g class="animated"><path d="M424 157l-229 19 189 48zM63 224l19-53-106 11z" style="animation-delay:0s"/><path fill="#fff" d="M401 165L424-1-24 1z" style="animation-delay:.2s"/><path fill="#988368" d="M101 96l178 128-70-193z" style="animation-delay:.39s"/><path d="M346 224l-101-59 179 1z" style="animation-delay:.59s"/><path fill="#fff" d="M24 179L215-24-24 7z" style="animation-delay:.78s"/><path d="M-5 171l87 17-72 36z" style="animation-delay:.96s"/><path fill="#684c26" d="M173 118l-66-37 50 84z" style="animation-delay:1.15s"/><path fill="#d5d8d0" d="M356 135l-230 89 64-128z" style="animation-delay:1.33s"/><path fill="#0e0500" d="M265 168l9 56 150-31z" style="animation-delay:1.5s"/><path fill="#f0f7f9" d="M-9-24l166 172-181 32z" style="animation-delay:1.67s"/><path fill="#f8fdff" d="M281 160L424 9 170-24z" style="animation-delay:1.83s"/><path fill="#714116" d="M188 71l-42-14 56-14z" style="animation-delay:1.98s"/><path fill="#faffff" d="M143 88l38-26-19 61z" style="animation-delay:2.12s"/><path fill="#a48355" d="M220 221l50-12-18-80z" style="animation-delay:2.26s"/><path fill="#59380d" d="M146 85l-22 30-15-28z" style="animation-delay:2.38s"/><path fill="#90786b" d="M196 134l35-61-18-24z" style="animation-delay:2.49s"/><path fill="#1b1700" d="M76 173l-2 45-90-25z" style="animation-delay:2.6s"/><path fill="#7a6c60" d="M226 98l-13 62-4-28z" style="animation-delay:2.69s"/><path fill="#cfd1c9" d="M54 166l164 58 19-55z" style="animation-delay:2.77s"/><path fill="#775a14" d="M148 79l23-16-19-11z" style="animation-delay:2.84s"/><path fill="#262108" d="M238 224l66-64 120 27z" style="animation-delay:2.9s"/><path fill="#f6fafc" d="M57-15l109 75 75-84z" style="animation-delay:2.94s"/><path fill="#897862" d="M149 176l10-66 31-22z" style="animation-delay:2.97s"/><path fill="#f6f8f9" d="M206 66l46-90-67 19z" style="animation-delay:2.99s"/></g></svg>