<svg xmlns="http://www.w3.org/2000/svg" viewBox="0 0 400 200"><style>@keyframes fadeIn{from{opacity: 0}to{opacity: 1}}g.animated&gt;*{opacity: 0;animation: fadeIn .5s forwards}</style><path fill="#cecec9" d="M0 0h400v200H0z"/><g fill="none" class="animated"><path stroke="#000" d="M-24 195q331 19 448-18m-189 1q156 46 169-16" style="animation-delay:0s"/><path stroke="#090100" d="M-24 173q98 51 448 1" style="animation-delay:.26s"/><path stroke="#000" d="M227 178q96-16 197 33m-192-19q161-44 167 10" style="animation-delay:.52s"/><path stroke="#160a00" d="M112 106q262 108 288 92" style="animation-delay:.78s"/><path stroke="#190500" d="M403 168q-186 56-291-84" style="animation-delay:1.03s"/><path stroke="#040000" d="M424 160q-88 59-423 34" style="animation-delay:1.27s"/><path stroke="#190a00" d="M110 100q200 124 314 84" style="animation-delay:1.5s"/><path stroke="#1c1501" d="M424 140q0 58-435 50" style="animation-delay:1.72s"/><path stroke="#130e00" d="M424 199Q-3 154-24 224" style="animation-delay:1.93s"/><path stroke="#000" d="M-24 168q2 54 435 25m13-28q-105 32-194 34" style="animation-delay:2.12s"/><path stroke="#080000" d="M208 92q-2 112 212 89" style="animation-delay:2.3s"/><path stroke="#000" d="M240 169q149 55 160 14" style="animation-delay:2.46s"/><path stroke="#241e0c" d="M-24 157q30 59 417 12" style="animation-delay:2.6s"/><path stroke="#000" d="M233 165q58 59 191 20m-180-5q126-20 180 1m-13-16q-239 58-435 26m268-24q168 56 180-35m-199 39q135-1 183 22" style="animation-delay:2.72s"/><path stroke="#1d1805" d="M-12 186q334-25 436 13" style="animation-delay:2.82s"/><path stroke="#000" d="M235 173q35 51 189 5" style="animation-delay:2.9s"/><path stroke="#251500" d="M424 193q-201 31-306-99" style="animation-delay:2.95s"/><path stroke="#292514" d="M424 186q-261-44-438 16" style="animation-delay:2.99s"/></g></svg>