<svg xmlns="http://www.w3.org/2000/svg" viewBox="0 0 400 200"><path fill="#cecec9" d="M0 0h400v200H0z"/><path d="M413 218l-175 6-2-56 175-6zm-429-12l-1-30 94-2 1 30z"/><path fill="#fff" d="M497 77l-231 93L198 2l231-93zM68-74l108 94L46 170-62 75z"/><path d="M451 166l1 47-186 4-1-47z"/><path fill="#866d4f" d="M231 107l-79 51-43-67 78-51z"/><path d="M-2 180l77-2v41l-76 1z"/><path fill="#fff" d="M22 93L-2 7l191-54 24 85z"/><path fill="#674d27" d="M104 94l15-17 56 50-14 16z"/><path fill="#fff" d="M171 66l12 13-36 34-12-12z"/><path fill="#bfac8a" d="M272 244l-48 5-16-125 48-6z"/><path fill="#180f00" d="M465 169l1 38-198 3-1-37z"/><path fill="#f5fbfc" d="M421 150l-196-27 27-197 197 28z"/><path fill="#673006" d="M203 50l-47 26-4-9 46-25z"/><path fill="#e0e1df" d="M215 37l-26 111-12-2 26-112z"/><path fill="#ebf3f5" d="M-2 167l4-53 126 8-3 53z"/><path fill="#aa9a8d" d="M222 51l16 70-21 5-16-70z"/><path fill="#60421a" d="M111 97l21-14 15 22-21 14z"/><path fill="#d7d9d0" d="M180 88l-58 123-7-3 58-124z"/><path fill="#fcffff" d="M179-39l84 51-31 51-84-51z"/><path fill="#5d442a" d="M186 79l-35 97-1-1 35-96z"/><path fill="#c1c2b9" d="M236 144l-26 60-60-27 26-60z"/><path fill="#fbfcfb" d="M187 40l-19 23-25-20 18-23z"/><path fill="#c6b37f" d="M125 87l-6-9 35-26 7 9z"/><path fill="#3b2613" d="M221 119l-10 48h-2l10-48z"/><path fill="#f0f6f8" d="M114 125l-130 21-18-113L96 12z"/><path fill="#9f825b" d="M245 216l-15-4 18-68 15 5z"/><path fill="#dbe5e2" d="M259 161l-2-48 198-7 2 48z"/><path fill="#f5ffff" d="M169 79v25h-17V79z"/><path fill="#dce9eb" d="M226 238h-10l7-128 9 1z"/><path fill="#201f0a" d="M339 175l32-17 20 41-32 16z"/><path fill="#8b6e5a" d="M216 67l-18 81-6-1 18-81z"/><path fill="#a4a79c" d="M355 163l-149 8v-1l149-8z"/><path fill="#8f7c72" d="M185 112l-17-5 14-48 17 4z"/><path fill="#1e1901" d="M-50 216l-1-29 125-4 1 28z"/><path fill="#d3dfe0" d="M212 126l-7-2 9-30 8 2z"/><path fill="#daded7" d="M101 161l27-38 26 18-27 38z"/><path fill="#ced6d7" d="M70 151l2 24-72 3-1-23z"/><path fill="#9da6a2" d="M78 170l17 1-2 36-18-1z"/><path fill="#754a00" d="M148 56v-1l25 9-1 2z"/><path fill="#997a49" d="M163 134l-13 41-5-1 13-42z"/><path fill="#e9edee" d="M133 79V51h11v28z"/><path fill="#5c4423" d="M145 136l-10-12 13-11 10 12z"/><path fill="#5f240e" d="M195 40l2 4-12 8-2-4z"/><path fill="#98837a" d="M232 92l-8 3-14-39 8-2z"/><path fill="#eaf1ed" d="M177 66l-8 27-4-1 8-27z"/><path fill="#c7bea8" d="M121 121l49-19 2 3-50 19z"/><path fill="#615347" d="M212 149l-1-1 13-42 1 1z"/><path fill="#747978" d="M317 157l-13 14-4-5 13-13z"/><path fill="#a18b6b" d="M223 207l26-54 21 11-26 53z"/></svg>