<svg xmlns="http://www.w3.org/2000/svg" viewBox="0 0 400 200"><style>@keyframes a{from{opacity: 0}to{opacity: 1}}g&gt;*{opacity: 0;animation: a .5s forwards}</style><path fill="#cecec9" d="M0 0h400v200H0z"/><path d="M411 212l-172 6-2-50 172-6zM77 173l2 48-89 5-2-49z"/><path d="M268 233l-3-60 140-8 4 61z"/><path fill="#fff" d="M271 171L191-9l164-73 80 180z"/><path fill="#896f52" d="M108 94l88-57 41 64-87 57z"/><path fill="#fff" d="M-75 63l176-164L202 7 26 171z"/><path d="M77 217l-81 5-2-41 81-4z"/><path fill="#4d2900" d="M121 77l24 29-15 12-23-29z"/><path fill="#bf9f6e" d="M260 134l7 81-31 3-7-81z"/><path fill="#feffff" d="M379 22L-17 70l-7-62 395-49zm-221 91l-18-20 25-23 18 19z"/><path fill="#f0f7f8" d="M5 97l34-43 113 88-33 43z"/><path fill="#180f00" d="M415 168l3 55-147 7-3-54z"/><path fill="#bcb8af" d="M159 195l36-144 44 11-36 144z"/><path fill="#f3f9fb" d="M224 112l33-124 183 49-33 124z"/><path fill="#643307" d="M161 73l-5-10 38-18 5 10z"/><path fill="#705534" d="M148 180l-4-2 37-97 5 1z"/><path fill="#412600" d="M145 113l12 13-10 9-12-12z"/><path fill="#2f1600" d="M212 156l8-45h1l-8 45z"/><path fill="#9e790d" d="M160 68l-16-7 4-9 16 7z"/><path fill="#8a634e" d="M215 57l9 3-19 56-8-2z"/><path fill="#e6e9e8" d="M213 5l9 2-34 137-9-3z"/><path fill="#eff4f7" d="M12 0l103 14-22 160-104-15z"/><path fill="#f7ffff" d="M181 70l-22 22-7-7 22-22z"/><path fill="#f8f9fa" d="M140 33l32-25 24 29-32 26z"/></svg>