<svg xmlns="http://www.w3.org/2000/svg" viewBox="0 0 400 200"><style>@keyframes a{from{opacity: 0}to{opacity: 1}}g&gt;*{opacity: 0;animation: a .5s forwards}</style><path fill="#cecec9" d="M0 0h400v200H0z"/><ellipse rx="1" ry="1" transform="matrix(-118.92959 -.62272 .1388 -26.50727 352 189)"/><ellipse rx="1" ry="1" transform="matrix(-57.32967 4.00888 -1.14928 -16.43545 33 191)"/><ellipse rx="1" ry="1" transform="matrix(84.10085 .33449 -.10181 25.5986 350 190)"/><ellipse fill="#fff" rx="1" ry="1" transform="rotate(-112 178 -83) scale(120.17399 94.65232)"/><ellipse fill="#fff" rx="1" ry="1" transform="matrix(35.67222 54.72108 -330.17435 215.23795 59 48)"/><ellipse fill="#8c7557" rx="1" ry="1" transform="rotate(82 30 147) scale(43.62122 58.82425)"/><ellipse rx="1" ry="1" transform="matrix(-3.8354 -18.53578 51.42134 -10.64002 25 199)"/><ellipse fill="#6d542d" rx="1" ry="1" transform="matrix(27.5327 34.61106 -10.09432 8.02992 140 117)"/><ellipse fill="#b59767" rx="1" ry="1" transform="rotate(177 121 98) scale(17.36228 63.97111)"/><ellipse fill="#f1f8f9" rx="1" ry="1" transform="matrix(-19.85325 37.43046 -88.2215 -46.793 58 118)"/><ellipse fill="#fdffff" rx="1" ry="1" transform="matrix(1.31685 -29.12297 398.0308 17.99767 219 17)"/><ellipse fill="#fff" rx="1" ry="1" transform="matrix(-8.34595 -5.8439 14.69112 -20.9811 162 87)"/><ellipse fill="#632100" rx="1" ry="1" transform="matrix(4.2428 6.92264 -13.58544 8.32634 186 54)"/><ellipse fill="#1c1500" rx="1" ry="1" transform="rotate(-176 186 88) scale(101.90023 21.15492)"/><ellipse fill="#b8b2ab" rx="1" ry="1" transform="matrix(24.27493 5.3073 -14.42812 65.9924 200 118)"/><ellipse fill="#857059" rx="1" ry="1" transform="rotate(-66 179 -69) scale(61.24604 5.88604)"/><ellipse fill="#f4fafb" rx="1" ry="1" transform="rotate(-108 177 -70) scale(49.96837 69.88933)"/><ellipse fill="#cdcfc5" rx="1" ry="1" transform="matrix(20.82078 19.68923 -35.0857 37.10209 118 170)"/><ellipse fill="#f8fcff" rx="1" ry="1" transform="matrix(3.18589 -25.57783 79.61543 9.91663 67 51)"/><ellipse fill="#d6d8d4" rx="1" ry="1" transform="matrix(-14.05964 57.03733 -6.54033 -1.61218 193 106)"/><ellipse fill="#73614c" rx="1" ry="1" transform="rotate(-79 189 -66) scale(36.70941 2.63056)"/><ellipse fill="#62431c" rx="1" ry="1" transform="matrix(-6.1094 6.94618 -13.96966 -12.2868 125 102)"/><ellipse fill="#221e07" rx="1" ry="1" transform="matrix(-28.4358 19.03611 -7.59231 -11.34126 48 197)"/><ellipse fill="#85654f" rx="1" ry="1" transform="matrix(4.6794 .88067 -4.29955 22.84556 205 99)"/><ellipse fill="#a38967" rx="1" ry="1" transform="matrix(15.52094 .89493 -1.91576 33.22525 251 190)"/></svg>