<svg xmlns="http://www.w3.org/2000/svg" viewBox="0 0 128 64"><path fill="#cfceca" d="M0 0h128v64H0z"/><path d="M105 80L76 55l68-4zm-80-3V56l-40 1z"/><path fill="#fff" d="M130-15L-15 3l157 53z"/><path fill="#978169" d="M95 80L69 12 34 30z"/><path d="M92 80l-6-26 58-1z"/><path fill="#fff" d="M-15 48l32-63 30 72z"/><path d="M22 80l3-22-36-1z"/><path fill="#553208" d="M37 29l9-1 8 22z"/><path fill="#fbffff" d="M-15-13l159 3-6 49z"/><path fill="#713c20" d="M64 22l-15-3 15-5z"/><path fill="#d8dcd8" d="M53 48l22 16 5-36z"/><path fill="#170f00" d="M86 55l58 2-56 23z"/><path fill="#f7fcff" d="M73-3l-88 3L8 47z"/><path fill="#fff" d="M56 21v13l-11-2z"/><path fill="#eff6f5" d="M68 9l65 26-45 17z"/><path fill="#867664" d="M62 29L48 57l3-21z"/><path fill="#ad8f6a" d="M88 74l-18 6 12-39z"/><path fill="#9b8c86" d="M74 17l-9 11 4 24z"/><path fill="#765f36" d="M48 17v9l8-6z"/><path fill="#664e27" d="M41 38l-5-11 11 5z"/><path fill="#dbdfde" d="M67 23l-3 15-11 9z"/><path fill="#f5f5f5" d="M-9-7l96-8-32 34z"/><path fill="#d5d5cc" d="M35 78l18-38-19 16z"/><path fill="#201c06" d="M24 56l-35 9 36 11z"/><path fill="#5b5b4e" d="M112 52l-17 1 9 3z"/><path fill="#80695e" d="M61 29l-9 15 9-32z"/><path fill="#f3f3f6" d="M69-12l-5 36 27-39z"/><path fill="#e1e9e6" d="M131 35l-61-2 43 20z"/><path fill="#1e1e0a" d="M98 80l46-3-25-27z"/><path fill="#cac9be" d="M70 35L44 58l20 22z"/><path fill="#d9c8bd" d="M53 33v6l6-12z"/><path fill="#352c1e" d="M52 42l4-4-3 6z"/><path fill="#beae9a" d="M44 22l3 15 3-16z"/><path fill="#f1f4f4" d="M46 13L22 46l-37-61z"/><path fill="#a6aba6" d="M22 80l5-26 8 13z"/><path fill="#76593a" d="M79 60l7 7-10 10z"/><path fill="#d9ddda" d="M43 38l-15-1 8 43z"/><path fill="#dde0d7" d="M73 62L62 74l13-32z"/><path fill="#f1f3f5" d="M87-15L-15-3l146 31z"/><path fill="#c0b199" d="M79 80l7-5-1-22z"/><path fill="#7a402e" d="M61 17l-6 2 8-6z"/><path fill="#535754" d="M25 55l-9 1-1 3z"/><path fill="#696d69" d="M72 43l-1-5-2 10z"/><path fill="#f0f2f1" d="M79 20l-8 25 32-41z"/><path fill="#6f635c" d="M67 41l-1-7-1 6z"/><path fill="#f0f2f0" d="M144 22L70 10l13 34z"/><path fill="#ddd3ce" d="M71 38l-1-7-5 10z"/><path fill="#b7bbb7" d="M84 52l15-1-5 3z"/><path fill="#836753" d="M68 27l-4 7 5-2z"/><path fill="#26200d" d="M132 56l-34-2-24 18z"/><path fill="#cdd8d6" d="M107 49l37-8-18 11z"/><path fill="#f0f5ef" d="M59 21L49 34l1-8z"/><path fill="#e3e9eb" d="M30 55l4-28-49 23z"/><path fill="#f3f3f4" d="M1 10l64 2-29 9z"/><path fill="#684735" d="M59 20l-9 2 12-7z"/><path fill="#958f8a" d="M65 36l1 7-3 5z"/><path fill="#d3d2c9" d="M45 60l-8-27 12 18z"/><path fill="#c6baa8" d="M75 36l8 8-8 8z"/><path fill="#70562f" d="M46 30l-9-3h6z"/><path fill="#cdc0bb" d="M63 33l2-16-4 7z"/><path fill="#484134" d="M90 56l1 5 10-9z"/><path fill="#998781" d="M58 33l-2-6 2 1z"/><path fill="#d5c5a9" d="M41 26l10-7-4 6z"/><path fill="#c9c8c0" d="M46 80l11-43 18 29z"/><path fill="#3b2d20" d="M52 46l1-5 1 2z"/><path fill="#624935" d="M44 42l7-4-2-1z"/><path fill="#847f7d" d="M70 39l4-5-2-4z"/><path fill="#faf1e9" d="M55 18l-7-3 21-8z"/><path fill="#f0f3f3" d="M30 44L43 5l-58 3z"/><path fill="#a78d6b" d="M47 51l3-1 2-8z"/><path fill="#8a9292" d="M95 53l8-4-2 3z"/><path fill="#e4ccc4" d="M71 30v-4l-3 7z"/><path fill="#dce4e3" d="M134 45l-37-7-12 14z"/><path fill="#b39876" d="M35 28l6-4 4 3z"/><path fill="#181404" d="M88 61l-7 19 54-19z"/><path fill="#a08c74" d="M73 68l13-15-9 1z"/><path fill="#a2805c" d="M81 71l-1-23 4 11z"/><path fill="#e3ded8" d="M68 45l-4 6 3-11z"/><path fill="#d3d2ca" d="M38 35l11 10-4 35z"/><path fill="#ecf0f0" d="M-15 51l52-25-30-1z"/><path fill="#d1c2b2" d="M53 41l-9 7 11-15z"/><path fill="#6c7578" d="M1 52l-7 3-9-18z"/><path fill="#dfe4e5" d="M47 47l-36 8-25-13z"/><path fill="#55380e" d="M41 35v-5l-3 2z"/><path fill="#98614b" d="M56 18l9-3-2 3z"/><path fill="#e6d9c9" d="M82 36h-5v12z"/><path fill="#5c4939" d="M67 35l-2-4h2z"/><path fill="#ebeade" d="M49 27l4 3-5 6z"/><path fill="#a08780" d="M69 18l-3 12 5-9z"/><path fill="#6c573e" d="M84 80l-7-2 3-18z"/><path fill="#664e38" d="M44 37l5 5 2-4z"/><path fill="#dadbd4" d="M71 48l4-24 3 9z"/><path fill="#828e8e" d="M3 56l1-2 3 4z"/><path fill="#baaaa2" d="M74 24l-13-1 14 7z"/><path fill="#ada597" d="M75 54V39l3 5z"/><path fill="#b0b3b0" d="M35 58l-4 22 6-7z"/><path fill="#918074" d="M60 33l-1-13 4 2z"/><path fill="#d8c6ba" d="M66 26l-6 1 8-9z"/><path fill="#eaefeb" d="M46 31l8-1 3-9z"/><path fill="#795e4b" d="M48 24l4-3-2 4z"/></svg>