<svg xmlns="http://www.w3.org/2000/svg" viewBox="0 0 2000 1000"><path fill="#cfcfca" d="M0 0h2000v1000H0z"/><path d="M981 879l921 242 219-328zm-1102 16l367 226 219-250z"/><path fill="#fff" d="M2035 832l86-953L-121 12z"/><path fill="#988468" d="M1410 1121L481 488l578-328z"/><path d="M2121 895l-758 226-31-297z"/><path fill="#fff" d="M1160-105L74 871-121 12z"/><path d="M371 879l-492 62 500 180z"/><path fill="#553507" d="M699 426l-172 23 297 328z"/><path fill="#d0d3c9" d="M1285 481l-172 632-734-203z"/><path fill="#100a00" d="M2121 816l-789 47 570 258z"/><path fill="#f8fdff" d="M2121-27L942 20l468 820z"/><path fill="#f1f9fb" d="M-121 801l453-922L699 879z"/><path fill="#734719" d="M723 285l195 86 78-141z"/><path fill="#fff" d="M824 559l-109-94 180-149z"/><path fill="#72593a" d="M762 684l179-203-203 414z"/><path fill="#a98a5b" d="M1363 1090l-86-399-156 352z"/><path fill="#c8c9c2" d="M1199 926L941 512l-312 609z"/><path fill="#d2d8d2" d="M395 707l422-47-415 461z"/><path fill="#ecf1f0" d="M1215-121l-78 687 648 258z"/><path fill="#221d04" d="M1184 1121l336-305 593 180z"/><path fill="#978378" d="M1082 238L973 684l187-282z"/><path fill="#5a2b09" d="M785 348l141-47 39-102z"/><path fill="#f5f8fa" d="M816 301l305-203-711-219z"/><path fill="#f6f7fa" d="M1012 379L988-74h258z"/><path fill="#5b4634" d="M1074 770l-8-86 47-86z"/><path fill="#84692a" d="M754 410l-16-140 125 39z"/><path fill="#70615a" d="M949 488l-31-148-109 351z"/><path fill="#23220e" d="M176 1121l211-211-508-39z"/><path fill="#795c32" d="M535 449l102-101 101 304z"/><path fill="#f3f6f8" d="M1285 12L20-121l-141 812z"/><path fill="#cddad8" d="M2121 684l-617 31 461 117z"/><path fill="#61421b" d="M777 613l-93 24 132-102z"/><path fill="#d6dbd5" d="M1145 473l23 437-164 211z"/><path fill="#e5ebe8" d="M676 582l195-258-39 203z"/><path fill="#767d7a" d="M1566 785l-171 63 218 8z"/><path fill="#caccc6" d="M910 1121l110-765-289 570z"/><path fill="#1d1b09" d="M2106 1035l-438 16 164-258z"/><path fill="#cbd4d3" d="M1043 816l-23-218 86-164z"/><path fill="#735844" d="M1043 543l-55 109 39-234z"/><path fill="#65451e" d="M848 621l-94 117 55 24z"/><path fill="#f1f4f4" d="M2121-27L629 20l1305 664z"/><path fill="#959c99" d="M488 1082l-109-94 86-109z"/><path fill="#c4c5bc" d="M1121 1043L887 535 785 895z"/><path fill="#d2d4cc" d="M340 1121l328-148 164-391z"/><path fill="#9a896c" d="M1113 1121l86-312 164 15z"/><path fill="#869395" d="M35 832l24 70 172-23z"/><path fill="#dcd7be" d="M520 441l265-125-101-31z"/><path fill="#292412" d="M2121 871l-765 195-32-218z"/><path fill="#dee6e3" d="M1246 598l133 242 742-328z"/><path fill="#7a544c" d="M934 215l70 23-86 180z"/><path fill="#f7ffff" d="M840 340l-55 101 125-117z"/><path fill="#e1e6e6" d="M-121 481l242 390 555-70z"/><path fill="#87776b" d="M1129 457v109l-70 94z"/><path fill="#4b320f" d="M637 590l39-47-102-94z"/><path fill="#eef2f2" d="M613 293L434 715l-555-219z"/><path fill="#a2a8a5" d="M1715 824l133-54 31 39z"/><path fill="#dbded8" d="M457 652l-70 313 304-399z"/><path fill="#e5eae8" d="M676 504l187-172v86z"/><path fill="#897251" d="M1066 824V715l-23 86z"/><path fill="#51544c" d="M215 879l55 55 125-71z"/><path fill="#baa178" d="M1238 1106l117 15-62-383z"/><path fill="#8c6d49" d="M1270 809l-55 179 101 86z"/><path fill="#ad9a7d" d="M668 590l117-71 47 32z"/><path fill="#211e0d" d="M332 1106L-74 988l469-101z"/><path fill="#b6a078" d="M1160 832l8-250 39 109z"/><path fill="#beb6a0" d="M731 520l-86-188h86z"/><path fill="#958274" d="M863 418l125-86-39-55z"/><path fill="#d3cab2" d="M1293 668l-86-102-31 250z"/><path fill="#a09480" d="M973 777l47-117-24-94z"/><path fill="#cfd1ca" d="M1051 824l15-312-172 500z"/><path fill="#d0d2c6" d="M754 809L566 504l157 617z"/><path fill="#f2f4f5" d="M832 301L965 20 395-27z"/><path fill="#a18253" d="M809 652l-16 149-47-32z"/><path fill="#eff2f0" d="M1191 582l-78-367 1008 226z"/><path fill="#e1c0ab" d="M848 285l70-39 39-78z"/><path fill="#121104" d="M1684 926l-344 47 62 148z"/><path fill="#d3d7d2" d="M1043 324l-86 328-8-172z"/><path fill="#61422d" d="M1051 473l-24 86-15-78z"/><path fill="#71564b" d="M1090 332l31 24-78-8z"/><path fill="#d3d9d7" d="M1152 481l-62 195 62 54z"/><path fill="#e7ebea" d="M746 418l156-86-93 133z"/><path fill="#dce4e2" d="M1551 676l179 148 391-234z"/><path fill="#373222" d="M1332 863l320-23-242 117z"/><path fill="#675133" d="M746 684v-86l-117-78z"/><path fill="#a7b3b4" d="M1551 801l-102 47-117-24z"/><path fill="#3c3c34" d="M43 895l203 70 133-78z"/><path fill="#cdd7d3" d="M-43 809l117-47 235 117z"/><path fill="#867461" d="M793 363l-94 94 32-78z"/><path fill="#f0f2f2" d="M441 4l321 422-524-313z"/><path fill="#c3b392" d="M535 434l110-86 125 70z"/><path fill="#d8cabe" d="M1082 316l-47-70-70 55z"/><path fill="#a29177" d="M1262 676l-86 289 86-78z"/><path fill="#39372b" d="M1785 856l-195 46v-70z"/><path fill="#c1c5c0" d="M1027 559l94-180-78 398z"/><path fill="#b5a17c" d="M754 699l47 86-78 149z"/><path fill="#422e1f" d="M863 590l-78 94 55-32z"/><path fill="#dfe7e5" d="M1246 559l266 257h-180z"/><path fill="#a47e66" d="M1074 426l-47-8-31 125z"/><path fill="#acb3b2" d="M387 863l70-8 24 141z"/><path fill="#150f04" d="M941 254l-23-8 31-15z"/></svg>