<svg xmlns="http://www.w3.org/2000/svg" viewBox="0 0 400 200"><path fill="#cecec9" d="M0 0h400v200H0z"/><path d="M235 168l217-8 2 61-217 8zm-159 5l1 26-82 5-2-27z"/><path fill="#fff" d="M425 146l-200-3 2-147 200 3zM68-77l109 91L49 166-60 75z"/><path d="M268 213l-2-40 171-9 2 40z"/><path fill="#866a49" d="M220 102l-84 41-29-59 84-41z"/><path fill="#fff" d="M-12 11l393-63 11 68L-1 78z"/><path d="M-7 183l81-6 3 39-81 6z"/><path fill="#b3a289" d="M287 240l-39 14-67-186 38-14z"/><path fill="#604520" d="M161 149l-52-54 16-15 52 54z"/><path fill="#feffff" d="M136 100l31-29 14 15-31 29z"/><path fill="#eff7fa" d="M-18 92l132 7-4 73-132-7z"/><path fill="#181000" d="M408 172l-1 50-142-2 1-50z"/><path fill="#744118" d="M204 50l-51 27-5-10 51-27z"/><path fill="#f6fbfd" d="M235 120L218 10l196-31 17 109z"/><path fill="#e9eced" d="M206 30l10 2-20 87-11-3z"/><path fill="#735a3a" d="M147 159l24-52 9 4-25 52z"/><path fill="#dce1d9" d="M165 109l5 3-30 53-6-4z"/><path fill="#9c9187" d="M232 68l-16 86-25-5 17-86z"/><path fill="#b99c6e" d="M242 123l13-2 11 68-13 1z"/><path fill="#fcffff" d="M216 17l-52 45-25-28 52-45z"/><path fill="#e2e7e1" d="M88 136l26-28 37 33-25 28z"/><path fill="#d7e1dd" d="M216 84l8 2-20 72-7-2z"/><path fill="#5e411a" d="M135 84l13 21-22 13-13-22z"/><path fill="#f7ffff" d="M164 100l-10-5 15-31 10 5z"/><path fill="#d3c599" d="M116 77l39-23 5 8-39 23z"/><path fill="#f3f7f9" d="M140 70L17 123-1 81l124-52z"/><path fill="#d2d6cc" d="M199 230l29-126 21 5-29 126z"/><path fill="#bbbfb9" d="M176 166l-16-6 19-50 16 7z"/><path fill="#5b4a37" d="M224 103l-14 65h-1l14-66z"/><path fill="#875e05" d="M149 62l1-7 28 4-1 6z"/><path fill="#1d1800" d="M-21 190l95-7 2 25-95 7z"/><path fill="#d2dfde" d="M259 169l-2-28 161-8 1 28z"/><path fill="#272613" d="M355 168l10-12 34 28-10 12z"/><path fill="#a38861" d="M220 225l25-69 25 9-25 69z"/><path fill="#7a6157" d="M180 106l-8-2 15-61 8 2z"/><path fill="#7c563d" d="M204 119l-5-2 12-37 4 1z"/><path fill="#97a09b" d="M96 214l-17 1-2-40 17-1z"/><path fill="#f3f5f7" d="M139 12l23-44 153 78-22 44z"/><path fill="#e9f0ea" d="M177 101l-6 10-25-13 6-11z"/><path fill="#4a473b" d="M299 164l14-7 8 15-14 7z"/><path fill="#9ea7a2" d="M313 166l142-7v1l-142 8z"/><path fill="#988153" d="M236 117l-3 40h-2l3-41z"/><path fill="#a3aeb5" d="M-20 179l85-8v2l-85 7z"/><path fill="#92713f" d="M151 177l-5-2 14-41 5 2z"/><path fill="#4e2f14" d="M165 62l17-5 2 4-18 6z"/><path fill="#93774c" d="M125 76l6 8-20 16-6-7z"/><path fill="#cec4ac" d="M142 65l4 15-27 7-4-15z"/><path fill="#48331f" d="M161 152l-3-1 11-33 3 1z"/><path fill="#2d0600" d="M183 47l8-4 2 6-7 3z"/><path fill="#eaefec" d="M176 64l5 3-14 21-6-4z"/><path fill="#c6c4ba" d="M163 206v-58h48v58z"/><path fill="#2d2612" d="M263 173l50-6 3 27-49 7z"/><path fill="#47300f" d="M144 131l-2-11 9-2 3 10z"/><path fill="#ebf1ef" d="M299 147l-30 14-47-100 30-14z"/><path fill="#dee3e2" d="M20 159l8-32 107 28-8 32z"/><path fill="#c0b8a1" d="M161 104l1 3-43 19-1-3z"/><path fill="#ae8d7c" d="M226 59l-16 37-9-3 16-38z"/><path fill="#45453b" d="M78 180l-139 4v-3l139-4z"/><path fill="#988d83" d="M170 106l1-30 17 1-1 29z"/><path fill="#f1f4f4" d="M187 30l-21 32-32-22 20-31z"/><path fill="#f2f5f8" d="M-93-43l212-37 26 143-213 38z"/><path fill="#d6a689" d="M193 41l-27 21-1-1 27-21z"/><path fill="#cdcfcc" d="M214 57l-50 94-1-1 49-93z"/><path fill="#d0c3a5" d="M265 200h-4l-3-48h5z"/><path fill="#181504" d="M402 217l-107-7 2-28 107 7z"/><path fill="#5d411e" d="M129 117l-19-28 7-4 18 27z"/><path fill="#dfe7e6" d="M403 158l-144-15 2-25 145 15z"/><path fill="#f1f3f4" d="M165-30l61-40 89 136-62 40z"/><path fill="#685839" d="M153 70l3 9-7 3-4-9z"/><path fill="#776250" d="M243 216l5-64h1l-4 64z"/><path fill="#eff2f1" d="M423-21l5 134-169 6-4-134z"/><path fill="#d9e0de" d="M226 185l-6-1 9-82h6z"/><path fill="#908674" d="M146 183l40-87 1 1-40 86z"/><path fill="#eff2f2" d="M121 58l-34 84-47-20 34-84z"/></svg>