<svg xmlns="http://www.w3.org/2000/svg" viewBox="0 0 400 200"><filter id="a"><feGaussianBlur stdDeviation="55"/></filter><path fill="#51564e" d="M0 0h400v200H0z"/><g filter="url(#a)"><path fill="#c3c1af" d="M337 68l17 66-99 25-17-67z"/><path fill="#eff0ec" d="M100 109L84 93l34-34 15 15z"/><path fill="#221b0b" d="M315 227l61-244 76 19-61 244z"/><path fill="#b9b4a8" d="M301 58l-38 18-28-61 38-18z"/><path fill="#131c13" d="M103 40L12 152l-60-50L42-9z"/><path fill="#b3c3c1" d="M346 73l1 52-58 1V74z"/><path fill="#827c6c" d="M257 235L244 86l45-4 13 149z"/><path fill="#82683b" d="M377 110l-49 78-25-15 49-78z"/><path fill="#141e12" d="M-75 179l18-45 140 54-18 45z"/><path fill="#b6b8b2" d="M91 65l42 55-13 10-42-54z"/></g></svg>