<svg xmlns="http://www.w3.org/2000/svg" viewBox="0 0 400 200"><style>@keyframes fadeIn{from{opacity: 0}to{opacity: 1}}g.animated&gt;*{opacity: 0;animation: fadeIn .5s forwards}</style><path fill="#51564e" d="M0 0h400v200H0z"/><g class="animated"><path fill="#b0ac9d" d="M357 98L246-24l8 231z" style="animation-delay:0s"/><path fill="#f9f9f6" d="M134 66L87 82l20 36z" style="animation-delay:.19s"/><path fill="#151107" d="M390-24l34 212-94 36z" style="animation-delay:.38s"/><path fill="#162016" d="M-24 196L112 31 16-13z" style="animation-delay:.56s"/><path fill="#cfe1dd" d="M285 123l63-49-11 50z" style="animation-delay:.75s"/><path fill="#1b1309" d="M304-18l-13 89 28 2z" style="animation-delay:.93s"/><path fill="#30382e" d="M159 220l-183-21 192-97z" style="animation-delay:1.1s"/><path fill="#796545" d="M424 79L277 224l-29-59z" style="animation-delay:1.28s"/><path fill="#b2b7b6" d="M59 151l-38-2 33 27z" style="animation-delay:1.45s"/><path fill="#919087" d="M371-9l-56 124 3-83z" style="animation-delay:1.61s"/><path fill="#a7aba0" d="M157-15L81 21 46-24z" style="animation-delay:1.76s"/><path fill="#43473c" d="M227 60l58 8 5 50z" style="animation-delay:1.91s"/><path fill="#161b17" d="M376 127L357-5l67-19z" style="animation-delay:2.05s"/><path fill="#b9cccc" d="M291 71l57 6-49 24z" style="animation-delay:2.19s"/><path fill="#20271f" d="M52 145l60-44-121 23z" style="animation-delay:2.31s"/><path fill="#4b5e67" d="M251 160l-5-184-136 223z" style="animation-delay:2.43s"/><path fill="#bfc1b9" d="M143 79l-23-19-39 35z" style="animation-delay:2.53s"/><path fill="#878981" d="M124 81l7 42-41 6z" style="animation-delay:2.63s"/><path fill="#172a2f" d="M235 160l41 14-55 22z" style="animation-delay:2.71s"/><path fill="#b7b4a6" d="M165 12l-22-5-2 31z" style="animation-delay:2.79s"/><path fill="#1d261a" d="M-24 140v56l139 19z" style="animation-delay:2.85s"/><path fill="#fffffe" d="M318 126l-31-10 53-1z" style="animation-delay:2.91s"/><path fill="#d3d8d4" d="M96 190l-9 34-3-36z" style="animation-delay:2.95s"/><path fill="#878578" d="M227 82l50 9 22 133z" style="animation-delay:2.98s"/><path fill="#98968f" d="M296 59l-56-41 48-42z" style="animation-delay:2.99s"/></g></svg>