<svg xmlns="http://www.w3.org/2000/svg" viewBox="0 0 400 200"><style>@keyframes a{from{opacity: 0}to{opacity: 1}}g&gt;*{opacity: 0;animation: a .5s forwards}</style><path fill="#51564e" d="M0 0h400v200H0z"/><path fill="#a59e8c" d="M246 16h100v149H246z" style="animation-delay:0s"/><path fill="#fff" d="M87 77h34v22H87z" style="animation-delay:.188s"/><path fill="#15120b" d="M360 1h41v200h-41z" style="animation-delay:.376s"/><path fill="#172018" d="M1 15h73v126H1z" style="animation-delay:.562s"/><path fill="#bfd3d1" d="M290 76h58v50h-58z" style="animation-delay:.746s"/><path fill="#150f07" d="M295 12h28v61h-29z" style="animation-delay:.927s"/><path fill="#4e3611" d="M301 140h59v61h-59z" style="animation-delay:1.104s"/><path fill="#a6a8a0" d="M101 60h28v63h-28z" style="animation-delay:1.277s"/><path fill="#1f281e" d="M1 163h80v38H1z" style="animation-delay:1.445s"/><path fill="#9ea19d" d="M243 1h48v37h-48z" style="animation-delay:1.607s"/><path fill="#c0c5c3" d="M43 151h16v26H43z" style="animation-delay:1.763s"/><path fill="#968e7d" d="M254 118h42v83h-42z" style="animation-delay:1.912s"/><path fill="#b5b9b0" d="M66 1h30v17H66z" style="animation-delay:2.054s"/><path fill="#fff" d="M291 116h41v10h-41z" style="animation-delay:2.187s"/><path fill="#62563e" d="M335 101h66v36h-66z" style="animation-delay:2.312s"/><path fill="#394035" d="M116 84h52v117h-52z" style="animation-delay:2.427s"/><path fill="#232a1c" d="M51 21h58v42H51z" style="animation-delay:2.533s"/><path fill="#1f2114" d="M274 73h11v37h-11z" style="animation-delay:2.629s"/><path fill="#a39f8f" d="M141 7h21v28h-21z" style="animation-delay:2.714s"/><path fill="#2b3428" d="M77 132h44v56H77z" style="animation-delay:2.789s"/><path fill="#405763" d="M163 1h86v200h-86z" style="animation-delay:2.853s"/><path fill="#cdcec7" d="M115 68h23v14h-23z" style="animation-delay:2.906s"/><path fill="#635f54" d="M313 6h55v68h-55z" style="animation-delay:2.947s"/><path fill="#7b867c" d="M240 93h119v20H240z" style="animation-delay:2.976s"/><path fill="#23281e" d="M304 1h34v23h-34z" style="animation-delay:2.994s"/></svg>