<svg xmlns="http://www.w3.org/2000/svg" viewBox="0 0 16 8"><path fill="#52574e" d="M0 0h16v8H0z"/><path fill="#b4a388" d="M11 1l3 3-2 8z"/><path fill="#1c1b0f" d="M11 21l13 3-5-33z"/><path fill="#101c1a" d="M-13 0L4 2l-15 22z"/><path fill="#41453d" d="M27 12L8 18 3 5z"/><path fill="#40626f" d="M10 9L7 0l3 1z"/><path fill="#7f7664" d="M5 5l3-15-4 2z"/><path fill="#2d332b" d="M2 2h3l-7-6z"/><path fill="#a49883" d="M12 3l2 1v2z"/><path fill="#655a45" d="M11 4l6-5-1-14z"/><path fill="#575548" d="M12 7l20-21v9z"/><path fill="#161d17" d="M24-2v26L15-2z"/><path fill="#959584" d="M12 2L9-7l10-8z"/><path fill="#937d62" d="M14 3v-18l5 2z"/><path fill="#242922" d="M5 7l-17 11-2-6z"/><path fill="#37240a" d="M13 2l8-17h-6z"/><path fill="#334e59" d="M7 4l8 16-6 4z"/><path fill="#4d4331" d="M19 24h-8L3 3z"/><path fill="#384b4d" d="M-9 6L5-4-8 18z"/><path fill="#30352c" d="M6 1l-18 16-3-10z"/><path fill="#727467" d="M10 4l5 10 6 2z"/><path fill="#7a7b71" d="M5 4l5-8-1-6z"/><path fill="#3b433e" d="M5 2l25-16-14-1z"/><path fill="#634c2f" d="M14 7L8 20l4 4z"/><path fill="#526566" d="M9 6l7 18-8-7z"/><path fill="#111710" d="M16 7l8-15 8 6z"/><path fill="#555446" d="M15 1L5-12l12 3z"/><path fill="#5f6661" d="M3 7h-14l5-3z"/><path fill="#080b02" d="M32-8L30 7 17 2z"/><path fill="#474639" d="M6 11V5l5 11z"/><path fill="#484f48" d="M16 4l14 5-2-12z"/><path fill="#58584c" d="M6 7l-6 5-1 12z"/><path fill="#3a4f53" d="M11-15L8 3l6-10z"/><path fill="#868271" d="M4 1l7-16-5 1z"/><path fill="#384c4c" d="M10 7L7 18l4 6z"/><path fill="#425050" d="M7-15L-9 3l2 15z"/><path fill="#293836" d="M3 4L-8-2l-7 22z"/><path fill="#465c62" d="M3-8l-10-4L10 2z"/><path fill="#4b3314" d="M14 8v9l13 7z"/><path fill="#5b7070" d="M10 1l9-10-6-2z"/><path fill="#465b60" d="M15 14l5-1L7 7z"/><path fill="#3e3524" d="M4 7L2 21h-4z"/><path fill="#5f5e51" d="M6 1l7-10-12-1z"/><path fill="#667a7d" d="M2 7l-12 1 2 4z"/><path fill="#6e7c78" d="M10 4h1l-1 1z"/><path fill="#2a2f27" d="M11 21l6-17 12-7z"/><path fill="#4d534c" d="M15 3l12 2 5 6z"/><path fill="#828272" d="M11 4l2 2-2-4z"/><path fill="#615643" d="M3 6l9 18h8z"/><path fill="#5d4f3c" d="M4 1L2-10l-5-1z"/><path fill="#9e9b8a" d="M12 1L5-7l1-8z"/><path fill="#6f654f" d="M13 7L5 22l-11 2z"/><path fill="#6c6755" d="M12 1v-14l6-2z"/><path fill="#29291c" d="M3 2l-17 11 5-9z"/><path fill="#3a4d4f" d="M8 3l6-14-4-4z"/><path fill="#324140" d="M2 1l-5 6 1-6z"/><path fill="#4c5856" d="M1-1l-3 9-7 6z"/><path fill="#4e6368" d="M-15 14V7L2 6z"/><path fill="#273b3d" d="M8 24L-15 3 6 9z"/><path fill="#3b301b" d="M13 1v-16l10 5z"/><path fill="#2e444b" d="M7 8L2 24l18-11z"/><path fill="#959180" d="M12 2L5-15h6z"/><path fill="#736f60" d="M4 2L3 3l2-1z"/><path fill="#43504f" d="M-13 3l8-2 7 6z"/><path fill="#4e636a" d="M8 2L5-15l-3 5z"/><path fill="#475a5d" d="M-4-15L0-5l10 7z"/><path fill="#373c35" d="M15 7l17 16-7-13z"/><path fill="#a29f91" d="M6 4V3H5z"/><path fill="#394543" d="M8 6L6 4l1 2z"/><path fill="#485c61" d="M7 7l19 10-1 7z"/><path fill="#50544c" d="M14 5L32-6l-6 8z"/><path fill="#394d4f" d="M7 1l15-16-6 12z"/><path fill="#2e2310" d="M3 2l-18 1 9 2z"/><path fill="#233" d="M2 3l-14-4-3 4z"/><path fill="#716e5d" d="M11 7L9 19l4-8z"/><path fill="#3c4f4e" d="M9 8l17 16-30-12z"/><path fill="#20231a" d="M15 2l4-4 5 1z"/><path fill="#22312f" d="M2 4l-17 1 6 4z"/><path fill="#6f644f" d="M10 19l-9 5L14 6z"/><path fill="#21251b" d="M30-15l2 18-16 4z"/><path fill="#575445" d="M6 2v-8l3 1z"/><path fill="#5e5f54" d="M6 1L-6-15h19z"/><path fill="#3a4643" d="M2 4l-17-19 7 17z"/><path fill="#354342" d="M2 24h-17L2 8z"/><path fill="#4e4e42" d="M5 6l-7 13 5-4z"/><path fill="#656758" d="M12 8l3 12-6-10z"/><path fill="#645946" d="M13 8l5 15H2z"/><path fill="#435559" d="M8 8l-9 13 24 3z"/><path fill="#6e5f49" d="M15 1L8-15l-8 1z"/><path fill="#404741" d="M15 1l1-16 5 6z"/><path fill="#8b7e68" d="M14 3l18 1-3 4z"/><path fill="#3d3829" d="M4 7l-1 3-5 2z"/><path fill="#a89f8d" d="M12 5l1-1-1 2z"/><path fill="#797664" d="M12 4L9 18l6 6z"/><path fill="#67614f" d="M13 7l-3 10-23 7z"/><path fill="#777261" d="M11 18l-5-5 7-7z"/><path fill="#696351" d="M13 7L2 24l1-11z"/><path fill="#51676b" d="M8 3l1 2 1-2z"/><path fill="#c4b7a2" d="M12 5l2-1h-1z"/><path fill="#6c6654" d="M13 7l-6 3-2 8z"/><path fill="#2c2f26" d="M20-15l10 36-20-32z"/></svg>