<svg xmlns="http://www.w3.org/2000/svg" viewBox="0 0 400 200"><path fill="#51564e" d="M0 0h400v200H0z"/><g transform="translate(1 1) scale(1.5625)"><ellipse fill="#c2c2b2" rx="1" ry="1" transform="matrix(-14.88368 -15.4125 29.36718 -28.35955 190 75)"/><ellipse fill="#908c7e" cx="173" cy="11" rx="17" ry="203"/><ellipse fill="#141109" cx="250" cy="95" rx="22" ry="125"/><path fill="#131c13" d="M-29 59L26-7l39 33-55 65z"/><path fill="#e6e7e2" d="M73 77l9-40-29 19z"/><path fill="#fff" d="M213 79l-24 1v-7l24-1z"/><path fill="#2b3226" d="M113 89L9 144l-12-21 105-55z"/><ellipse fill="#989184" rx="1" ry="1" transform="matrix(8.98594 5.51088 -8.83421 14.4049 216 23)"/><ellipse fill="#aaaea3" rx="1" ry="1" transform="matrix(-.514 11.70579 -13.9117 -.61086 55 0)"/><ellipse fill="#535f64" cx="143" cy="62" rx="41" ry="32"/><ellipse fill="#59421e" cx="212" cy="106" rx="25" ry="26"/><ellipse fill="#b4b9b9" rx="1" ry="1" transform="matrix(-.18797 -9.40962 5.5896 -.11166 32 104)"/><ellipse fill="#9a9990" cx="171" cy="16" rx="16" ry="30"/><path fill="#232014" d="M185 4l41-11-45 53h14z"/><path fill="#c3d4d4" d="M184 50h38v10h-38z"/><path fill="#7b6a4a" d="M182 132l78-67-38-5z"/><ellipse fill="#141b14" rx="1" ry="1" transform="matrix(1.34417 4.81903 -33.99314 9.4817 30 79)"/><ellipse fill="#131a17" rx="1" ry="1" transform="matrix(7.3136 2.39045 -11.76137 35.98395 223 123)"/><path fill="#d7d9d3" d="M89 49L64 60l-3-7 25-11z"/><ellipse fill="#1e271d" rx="1" ry="1" transform="matrix(-112.58701 -64.4792 8.94585 -15.62034 17 127)"/><path fill="#ada996" d="M152 53l7 26 15-20z"/><path fill="#a19e8e" d="M89-1l14 16-12 8 1 34z"/><path fill="#344445" d="M185 114L43 134l138-32-14-20z"/><path fill="#393c2e" d="M74 53h33v15H74z"/><path fill="#35341f" d="M175 44h8v25h-8z"/></g></svg>