<svg xmlns="http://www.w3.org/2000/svg" viewBox="0 0 400 200"><path fill="#51564e" d="M0 0h400v200H0z"/><g transform="translate(1 1) scale(1.5625)"><ellipse fill="#aea895" cx="187" cy="67" rx="35" ry="42"/><ellipse fill="#16130a" cx="252" cy="102" rx="26" ry="131"/><ellipse fill="#232c23" cx="25" cy="99" rx="30" ry="108"/><ellipse fill="#fff" cx="67" cy="56" rx="11" ry="9"/><ellipse fill="#aeaba1" cx="171" cy="20" rx="17" ry="23"/><ellipse fill="#bed3d4" cx="202" cy="64" rx="18" ry="18"/><ellipse fill="#a3a9a5" cx="22" cy="98" rx="16" ry="7"/><ellipse fill="#21170d" cx="195" cy="27" rx="8" ry="21"/><ellipse fill="#563c16" cx="209" cy="110" rx="20" ry="30"/><ellipse fill="#c8c7be" cx="81" cy="47" rx="10" ry="7"/><ellipse fill="#bdc1b7" cx="52" rx="10" ry="12"/><ellipse fill="#7f7b6c" cx="174" cy="106" rx="16" ry="84"/><ellipse fill="#999083" cx="217" cy="23" rx="12" ry="16"/><ellipse fill="#fff" cx="200" cy="76" rx="14" ry="3"/><ellipse fill="#21281a" cx="49" cy="21" rx="30" ry="11"/><ellipse fill="#3e5560" cx="129" cy="71" rx="32" ry="105"/><ellipse fill="#9a9c95" cx="71" cy="71" rx="11" ry="11"/><ellipse fill="#b3b6b5" cx="32" cy="103" rx="6" ry="9"/><ellipse fill="#393f34" cx="88" cy="117" rx="25" ry="61"/><ellipse fill="#2c3024" cx="178" cy="59" rx="5" ry="15"/><ellipse fill="#6b7167" cx="228" cy="67" rx="107" ry="6"/><ellipse fill="#b1ac9d" cx="94" cy="14" rx="7" ry="8"/><ellipse fill="#35342d" cx="206" cy="43" rx="26" ry="4"/><ellipse fill="#121b15" cx="13" cy="47" rx="26" ry="10"/><ellipse fill="#ced0cb" cx="61" cy="57" rx="11" ry="7"/></g></svg>