<svg xmlns="http://www.w3.org/2000/svg" viewBox="0 0 50 25"><path fill="#535650" d="M0 0h50v25H0z"/><path fill="#aea797" d="M44 11L34 31 32-3z"/><path fill="#141105" d="M49-4l-9 45L63 9z"/><path fill="#1e2721" d="M12 4L-4-9l2 50z"/><path fill="#c0c3b8" d="M19 8l-7 5-1-4z"/><path fill="#bfc5ba" d="M36 17l3-7 6 3z"/><path fill="#3d4642" d="M-15 30l6-25 47 17z"/><path fill="#241c0c" d="M39 8L38-7l10-8z"/><path fill="#715c3f" d="M39 17l15-7-22 20z"/><path fill="#959a8e" d="M8 21l-1-4H2z"/><path fill="#48616a" d="M33 9L21 41l5-56z"/><path fill="#cccec2" d="M16 15h-3l1-5z"/><path fill="#948d7e" d="M40 7l6-8-2 8z"/><path fill="#aeb2aa" d="M12 2L-8-15h35z"/><path fill="#292e27" d="M-7 13L17 2-2 21z"/><path fill="#202618" d="M10 22l-17 3 17 16z"/><path fill="#3d3d36" d="M36 10l4-4-9 5z"/><path fill="#60625a" d="M21 6L5 11 20 1z"/><path fill="#43453c" d="M2 12l23 23-12-23z"/><path fill="#93948d" d="M57 34L12 24-3 41z"/><path fill="#38413b" d="M16 11l6-1 2 9z"/><path fill="#232220" d="M43 9l23-5-12-16z"/><path fill="#69706c" d="M4 2L2-15-15 3z"/><path fill="#acb8b3" d="M42 16l1-6-5-1z"/><path fill="#909798" d="M60-15L30-5l2 9z"/><path fill="#5d5e52" d="M48 12l-5 2-7-2z"/><path fill="#332c18" d="M48 16L23 41l19-5z"/><path fill="#514e41" d="M41 4l-4 5h4z"/><path fill="#bfc4ba" d="M43 15l-5-1 5-4z"/><path fill="#838780" d="M37 22L-2 41h43z"/><path fill="#999b9b" d="M19 4v-16l8-3z"/><path fill="#3a4c53" d="M21-8l25-5-25 23z"/><path fill="#89837d" d="M31 13l3-6-1 9z"/><path fill="#7c766b" d="M45 2l-3 1 5 5z"/><path fill="#62523b" d="M39 18l4 2-6 12z"/><path fill="#777c76" d="M6 20l8-5h-4z"/><path fill="#323732" d="M11 13l3 7-18-6z"/><path fill="#121614" d="M19 23l-1 18h16z"/><path fill="#595142" d="M34 17l2-5h-2z"/><path fill="#525d60" d="M21 17l3-14 8 13z"/><path fill="#495454" d="M16-3l10 1 12 15z"/><path fill="#677274" d="M50 13L61-4l5 36z"/><path fill="#9c9486" d="M34 16l-1 5 4-7z"/><path fill="#2e3129" d="M9 5l8-1L4 0z"/><path fill="#68685d" d="M40 12l6 2-2-2z"/><path fill="#3f3c30" d="M39 9l-5-24h8z"/><path fill="#a0988f" d="M36 8l-3-23h7z"/><path fill="#4c534e" d="M8 13l-23 2 7-6z"/><path fill="#777d77" d="M8 19l1-2h1z"/><path fill="#171a17" d="M64-14L47 13l6-23z"/><path fill="#1c2222" d="M5 13l-13 6-6 22z"/><path fill="#a5b2af" d="M37 12v-2l4 2z"/><path fill="#34301d" d="M18 17l-5 1 5-3z"/><path fill="#171e1a" d="M-3 12V7L7 8z"/><path fill="#646357" d="M19 20L1 40l8 1z"/><path fill="#797e78" d="M4 20l6-2H-1z"/><path fill="#6f614a" d="M45 18l-7 3 8-10z"/><path fill="#727a7b" d="M40 4l14-15-3 9z"/><path fill="#b0b2ac" d="M34 12v-1l1 1z"/><path fill="#ced1c8" d="M14 11l2-3-1 3z"/><path fill="#00060c" d="M1 20l-16 13 6-22z"/><path fill="#525854" d="M17 4L8 9l22-3z"/><path fill="#89898d" d="M34 41H23L11 24z"/><path fill="#5c605c" d="M39 1l-49-16h70z"/><path fill="#8e9187" d="M16 14l-3 2 2-5z"/><path fill="#232d31" d="M29 24l3-3-1-1z"/><path fill="#7d827a" d="M10 4l17-19-17 8z"/><path fill="#676357" d="M35 18l2 12-4 2z"/><path fill="#343733" d="M15 20l-8 2 2-3z"/><path fill="#948c7f" d="M38 20h-7l5-5z"/><path fill="#565950" d="M11 21l11-2-9-1z"/><path fill="#2d3127" d="M41 28l7-14 18 12z"/><path fill="#424a47" d="M46 24l19-3-5 20z"/><path fill="#475e62" d="M29 17v18l-6-18z"/><path fill="#202520" d="M9 7L4-5l3-7z"/><path fill="#5b4a33" d="M40 21l-3 1 1-4z"/><path fill="#3a3f37" d="M21 10l1 8-4-4z"/><path fill="#c9ccc6" d="M14 12h-2V9z"/><path fill="#293136" d="M46 2l20-17V4z"/><path fill="#34362e" d="M10 6l1-2 3 6z"/><path fill="#242920" d="M6 14l6 2-2-2z"/><path fill="#dcd7c5" d="M41 14h-5l-2 2z"/><path fill="#7b6f5e" d="M35 17l1-5 5 9z"/><path fill="#fff" d="M39 15l2-1h-2z"/><path fill="#a69783" d="M38 17l-3-2-1 3z"/><path fill="#8b8f89" d="M33 23l5 6-17 12z"/><path fill="#62635d" d="M18 6l4 1-4 4z"/><path fill="#939d97" d="M41 9l-2 4h3z"/><path fill="#353a2c" d="M14 20l-1 1 4 2z"/><path fill="#4f4d49" d="M28 15l2 2 4-2z"/><path fill="#999d95" d="M12 9l2 1-1-1z"/><path fill="#3d4e50" d="M21 36l7-4-7-24z"/><path fill="#3a3b37" d="M19 6l1-2v2z"/><path fill="#a9aea7" d="M12 1l-2-5-9-2z"/><path fill="#4d534a" d="M4 18l1-3h7z"/><path fill="#2f3130" d="M12 13L8 25l5-7z"/><path fill="#566063" d="M27 9v11h5z"/><path fill="#797161" d="M40 4l3 1-2-2z"/><path fill="#626862" d="M35 13h6l-5-2z"/><path fill="#63665b" d="M13 1l6 2L8-7z"/><path fill="#3a4243" d="M23 7l-2-4v11z"/></svg>