<svg xmlns="http://www.w3.org/2000/svg" viewBox="0 0 400 200"><path fill="#51564e" d="M0 0h400v200H0z"/><path fill="#c2c1b0" d="M242 99l98-37 23 59-98 38z"/><path fill="#eef0eb" d="M120 58l15 16-35 33-15-16z"/><path fill="#1f180a" d="M472-11l-51 237-94-20 50-237z"/><path fill="#192218" d="M55 151l-77-31L28-5l77 31z"/><path fill="#b5aea3" d="M303 62l-44 15-23-65 44-15z"/><path fill="#868070" d="M259 230L239 88l48-7 20 142z"/><path fill="#fff" d="M296 114l42 5-1 10-42-6z"/><path fill="#2d352a" d="M16 232l-21-40 166-88 21 40z"/><path fill="#b2b4af" d="M121 130L68 74l13-12 52 56z"/><path fill="#7f653a" d="M383 123l-66 66-27-26 67-66z"/><path fill="#cacece" d="M60 174l-14 2-4-23 14-2z"/><path fill="#b5b9ad" d="M97 24L65 12l8-19 32 13z"/><path fill="#a09689" d="M317 43l27-30 22 20-27 30z"/><path fill="#b7c6c6" d="M350 98l-62-5 1-21 63 6z"/><path fill="#372d21" d="M318 74l-30-5 18-100 29 5z"/><path fill="#17201b" d="M42 243l-38 9-29-125 38-9z"/><path fill="#252a1f" d="M286 108h-14V75h14z"/><path fill="#b5b0a2" d="M160 14l-10 23-14-6 9-23z"/><path fill="#545a4f" d="M53 96l-5-15 82-28 5 14z"/><path fill="#3f5864" d="M163 238l4-260 78 2-4 259z"/><path fill="#0b1313" d="M401 9l19 53-41 15-19-53z"/><path fill="#111b0f" d="M101 111l-39 19-6-12 40-18z"/><path fill="#7a7e76" d="M379 107l22-20 15 17-22 20z"/><path fill="#625949" d="M368 90l-13 11-53-64 13-11z"/><path fill="#0e2022" d="M241 161l16 10-15 26-16-10z"/><path fill="#fff" d="M334 124l-22 2-1-11 22-2z"/><path fill="#8d948f" d="M5 158l2-12 52 7-1 12z"/><path fill="#b3b9b5" d="M96 187l8 19-14 6-8-19z"/><path fill="#0d1c1c" d="M155 223l-24-6 9-41 25 6z"/><path fill="#9c9685" d="M291 172l-44-11 7-25 44 11z"/><path fill="#cdcfc9" d="M91 91l44-23 4 8-44 24z"/><path fill="#3b3d27" d="M113 91l15-17 35 31-14 16z"/><path fill="#484134" d="M271 141l-11-1 5-39 11 1z"/><path fill="#bbbcb8" d="M99 117l10 14-7 4-9-14z"/><path fill="#2a3024" d="M38 48l81-36 10 23-81 36z"/><path fill="#0f1814" d="M-9 96l-6-21 66-19 6 21z"/><path fill="#8d8d82" d="M246-33l44-3 6 93-43 3z"/><path fill="#8a8573" d="M131 89l18-30 12 7-18 30z"/><path fill="#727064" d="M149 152l-3 14-50-11 3-13z"/><path fill="#101a1a" d="M292 68l55 5v2l-55-6z"/><path fill="#918e80" d="M249 210l2-26 49 5-3 26z"/><path fill="#29383b" d="M160 160l-10-1L167-2l9 1z"/><path fill="#20251d" d="M293 29l60-45 8 11-60 45z"/><path fill="#181f19" d="M74 113l11-3 14 57-11 2z"/><path fill="#4e4d40" d="M279 37l1 9-38 6-2-9z"/><path fill="#7a6848" d="M364 125l-91 34-4-10 91-35z"/><path fill="#cbcdca" d="M89 100l-1-20h28v20z"/><path fill="#a0aba7" d="M338 7h16v16h-16z"/><path fill="#4f4330" d="M381 45l-20 37-25-13 20-37z"/><path fill="#232724" d="M400 196l-50-17 20-64 51 17z"/><path fill="#293421" d="M127 189l-24 6-7-29 24-6z"/><path fill="#d5d2c7" d="M301 114l-8 26-8-3 8-25z"/><path fill="#586166" d="M193 163L183 49l44-4 10 114z"/><path fill="#c4c2c1" d="M334 71l-29-5v-1l29 5z"/><path fill="#5f4a2b" d="M290 173l24-21 26 29-25 22z"/><path fill="#757367" d="M349 21l3 38-37 3-3-38z"/><path fill="#454034" d="M287 212l-9 4-17-42 9-4z"/><path fill="#96978c" d="M270 95l-7 26-29-8 8-26z"/><path fill="#1e2521" d="M-8 40l5-18 35 9-5 18z"/><path fill="#5b5e57" d="M36 105l73-8 1 9-73 8z"/><path fill="#252f2c" d="M261 129l1 6-28 4-1-7z"/><path fill="#b2bdb8" d="M300 81l47-4 1 16-46 4z"/><path fill="#ada798" d="M266 60l19-21 13 12-19 21z"/><path fill="#8da09c" d="M359 105l-40 3-1-11 40-3z"/><path fill="#6f745f" d="M155-20L75 37l-7-9 81-57z"/><path fill="#576257" d="M41 19L29 35-14 5l11-17z"/><path fill="#232924" d="M81 67l-21 6L27-34l21-7z"/><path fill="#4e462c" d="M343 147h-2l11-90 2 1z"/><path fill="#2a3228" d="M79 163l-1 67H54l1-68z"/><path fill="#e0d8d0" d="M140 48l1-1 5 10-1 1z"/><path fill="#1d2420" d="M-24 170l31-60 22 12-31 60z"/><path fill="#d4dad4" d="M361 34l-21-22 1-1 21 22z"/><path fill="#595d52" d="M322-3l-2 15-50-7 3-16z"/><path fill="#a6b1b3" d="M364 19l-1-1 12-10 1 1z"/><path fill="#5c6251" d="M28 107l-40 6-2-15 40-7z"/><path fill="#30453e" d="M289 117l-12-4 4-10 12 4z"/><path fill="#484840" d="M284 184l-14-37 3-1 14 37z"/><path fill="#716b5a" d="M149 177l-11-1 5-45 11 1z"/><path fill="#b4afa0" d="M301 149l-28-32 6-5 28 32z"/><path fill="#171f18" d="M121 130l-1 20h-14v-20z"/><path fill="#17210c" d="M100 82l-7-4 6-8 6 4z"/><path fill="#373d36" d="M89 88l-16 15-32-36 16-15z"/><path fill="#9c9787" d="M272 101l-10-18 8-4 10 18z"/><path fill="#d1d4d0" d="M107 59l1-1 25 16-1 1z"/><path fill="#e7eae5" d="M83 95l41-21v2L84 96z"/><path fill="#2f322b" d="M169 7l-39 8-3-20 38-8z"/><path fill="#3b3d27" d="M134 139l-9-46 24-5 9 46z"/><path fill="#949386" d="M282 208l-8-21 15-5 7 20z"/><path fill="#b3bab5" d="M365 7l-31 20-1-1 31-20z"/><path fill="#c0c3bd" d="M91 72l18 48-2 1-17-49z"/><path fill="#0a1505" d="M107 66h6v4h-6z"/><path fill="#9a9d96" d="M270 164h-23v-20h24z"/><path fill="#1a1d14" d="M321 32l-4 5-27-24 4-5z"/><path fill="#8e9086" d="M160 6l9 9-12 12-9-9z"/><path fill="#fefcf7" d="M303 112l10 9-5 6-10-9z"/><path fill="#766243" d="M313 187l-23-39 33-20 23 38z"/><path fill="#23271e" d="M381 42l-64-56 1-1 64 55z"/><path fill="#3c5053" d="M172 144l31 51-33 19-30-51z"/><path fill="#323729" d="M49 255l93-115 5 4-93 115z"/><path fill="#525950" d="M84 131l-6 24-50-12 6-25z"/><path fill="#3e3121" d="M151 32l10 22-8 3-9-22z"/><path fill="#d1ccc3" d="M117 42l1-1 7 6-1 1z"/><path fill="#636359" d="M242 52l9-5 18 37-9 5z"/><path fill="#65675f" d="M128 115l-7 1-6-29 6-1z"/><path fill="#464237" d="M292-30h1l-30 62-1-1z"/><path fill="#152122" d="M410 33L366 4l13-20 44 30z"/><path fill="#a1a7a6" d="M240 31V17l22 1-1 14z"/><path fill="#787870" d="M374 146l9 5-2 4-10-5z"/><path fill="#979c92" d="M56-8l14-12L96 9 82 22z"/><path fill="#adb3a6" d="M128 184h-1l6-20 1 1z"/><path fill="#4a4942" d="M344 5l9 38h-1L342 5z"/><path fill="#50564d" d="M52 44l1 10-47 6-1-9z"/><path fill="#1a1d1a" d="M369 102l13-80 17 2-13 81z"/><path fill="#312e27" d="M315 73l-26-1V60l27 1z"/><path fill="#2c3428" d="M42 162l12 50-32 8-12-50z"/><path fill="#757a6f" d="M126 162l-15 1-1-11 15-1z"/><path fill="#2f2c1b" d="M147 70l-8 3-6-16 7-3z"/><path fill="#c7c8bd" d="M283 158l3-1 4 12-3 1z"/><path fill="#1f231b" d="M62 160l49-4v7l-48 5z"/><path fill="#a09e98" d="M250-30l37 54-10 7-38-54z"/><path fill="#6d7670" d="M102 166l2 4-14 10-2-4z"/><path fill="#747871" d="M92 67l6 7-20 20-6-7z"/><path fill="#bcbeb9" d="M121 91l-1 1-21-29 1-1z"/><path fill="#999b91" d="M136-22l3-1 8 56-3 1z"/><path fill="#474039" d="M144 9l-7 45-11-2 7-45z"/><path fill="#92958e" d="M135 89l-16-6 4-11 16 6z"/><path fill="#b9bfbc" d="M52 148l8 3-4 12-8-3z"/><path fill="#687168" d="M52 153H-3v-8h55z"/><path fill="#22221d" d="M307 171l-3 15-9-2 3-15z"/><path fill="#383e2a" d="M124 27l-3 19-50-9 4-18z"/><path fill="#6a6a64" d="M101-23l16-5 15 53-16 4z"/><path fill="#585649" d="M232 98l49 9-2 6-49-9z"/><path fill="#9c9e95" d="M271 126l-3 1-24-42 2-1z"/><path fill="#ecf1e6" d="M144 27l2 2-4 5-2-2z"/><path fill="#1e1e15" d="M363 159l-11 49-14-3 12-49z"/><path fill="#c1c8c2" d="M376 20l-2 3-1-1 2-3z"/><path fill="#2b2820" d="M342 59l17 13-5 8-18-13z"/><path fill="#9ca59f" d="M33 183l-1-1 2-7 2 1z"/><path fill="#524526" d="M314 210l-11-11 38-39 11 11z"/><path fill="#53797a" d="M295 113l-11-11 7-8 11 12z"/><path fill="#eff1ee" d="M114 102h-5v-6h5z"/><path fill="#364f53" d="M165 19l-2-26 86-4 2 26z"/><path fill="#32271a" d="M259 181l1-9 11 2-2 9z"/><path fill="#99948e" d="M122 47l1-1 13 9-1 1z"/><path fill="#939793" d="M102 159l-2 1-6-18h1z"/><path fill="#4b4e48" d="M49 163l1-1 21 8v1z"/><path fill="#1c2220" d="M354-26h3l7 54h-4z"/><path fill="#e3e0d4" d="M135 84l-1-17h2v17z"/><path fill="#b9bdb3" d="M129 111l2 1-5 13-2-1z"/><path fill="#817e6f" d="M360 59l-41-28 4-7 41 28z"/><path fill="#898b83" d="M115 113l-23 19-5-6 23-19z"/><path fill="#1d2526" d="M166 66l7 3-9 23-8-3z"/><path fill="#1d281c" d="M45 107l-12 1-4-45 12-1z"/><path fill="#1d231f" d="M107 76l-1 2L29 0l1-1z"/><path fill="#110f0a" d="M284 81l1 6-11 2-1-6z"/><path fill="#464236" d="M350 122l11-21 31 16-11 21z"/><path fill="#809b9f" d="M337 114l-39-3 1-17 39 3z"/><path fill="#bac0ba" d="M93 199l-9-1v-7h9z"/><path fill="#6a7169" d="M61 112l-6 3-8-16 6-3z"/><path fill="#1f2e2b" d="M308 72v-1l20 2v2z"/><path fill="#6a7368" d="M64 138l18-4 3 14-18 4z"/><path fill="#44443f" d="M138 93l-1 1-29-4v-1z"/><path fill="#0c1513" d="M96 144h-8l-1-11h8z"/><path fill="#746542" d="M345 112l19 16-32 40-20-16z"/><path fill="#e2e1df" d="M134 37l-1 1-3-5 1-1z"/><path fill="#e0e3de" d="M91 82l35-3v3l-34 3z"/><path fill="#586459" d="M284 94h-1l6-37 2 1z"/><path fill="#2b312a" d="M131 135v1l-45-22 1-1z"/><path fill="#33322b" d="M342 33l-1-1 6-13 1 1z"/><path fill="#2b2313" d="M273 110l-8 9-2-2 8-9z"/><path fill="#171f19" d="M36 59l4-5 35 26-4 5z"/><path fill="#bdc5c3" d="M362-1l4 10h-1l-5-10z"/><path fill="#2b2b24" d="M122 83l25 16-2 4-25-16z"/><path fill="#afb6b1" d="M392 149l-1-5 3-1 1 5z"/><path fill="#1a1d1a" d="M400 143l13 16-24 18-12-16z"/><path fill="#c1c3bd" d="M118 94l-5 14h-2l6-15z"/><path fill="#594e37" d="M357 48l12 1-2 51h-13z"/><path fill="#333f3f" d="M237 64l-5-42h8l4 42z"/><path fill="#8c9a95" d="M297 78v-6l52 5-1 6z"/><path fill="#34423f" d="M248 123l9 7-16 21-9-7z"/><path fill="#686558" d="M115 46l4 12-20 7-4-12z"/><path fill="#595449" d="M265 25l14-31 2 1-15 31z"/><path fill="#5c644a" d="M139 123l3-23 8 1-3 23z"/><path fill="#413b2f" d="M130 142l9 52h-2l-9-52z"/><path fill="#bac3bd" d="M267 183l-6 33-2-1 7-32z"/><path fill="#4b595c" d="M218 40l1 20-64 2-1-20z"/><path fill="#393126" d="M294 43l-2-9 22-4 1 10z"/><path fill="#4f544d" d="M56 3l12 7-6 11-13-7z"/><path fill="#21271f" d="M43 116l35 1-1 9-34-1z"/><path fill="#969b95" d="M60 156l1 1-13 23-1-1z"/><path fill="#acb5b2" d="M345 10l11-5 1 2-12 5z"/><path fill="#fffff5" d="M302 124v-2l32-4v2z"/><path fill="#93978e" d="M109 3l3-9 15 5-3 9z"/><path fill="#9a988e" d="M142 51l-3-12 2-1 3 12z"/><path fill="#fafff9" d="M358 30h-1l-4-8 1-1z"/><path fill="#495255" d="M154 133l14-29 30 14-15 30z"/><path fill="#a4a79d" d="M298 166l-15 5-4-10 15-6z"/><path fill="#959489" d="M291 217l-1 1-45-130 1-1z"/><path fill="#c6c9c1" d="M124 78l-2 3-10-8 2-2z"/><path fill="#52564e" d="M69 161l5 16-13 4-5-16z"/><path fill="#0f1614" d="M74 190l7 8-12 10-7-8z"/><path fill="#414a45" d="M398 190l1 18-36 1-1-19z"/><path fill="#8f8c7c" d="M311 129v1l-73-7v-2z"/><path fill="#6c7267" d="M47 90v-6l14-1v7z"/><path fill="#37382d" d="M326-9l15 26-9 6-15-26z"/><path fill="#85887e" d="M344 29l9 7-17 24-9-7z"/><path fill="#3f311e" d="M265 45l15-5v1l-15 5z"/><path fill="#656c66" d="M242 62l26-43 4 2-26 43z"/><path fill="#fff4e2" d="M354 102l1-1 2 2-1 1z"/><path fill="#afb1ab" d="M101 116h2l-2 17h-2z"/><path fill="#515343" d="M128 67l-20-10 6-13 20 10z"/><path fill="#fffffa" d="M140 174h-2l-1-2 1-1z"/><path fill="#d8dcd7" d="M135 174l-8 8-1-1 7-8z"/><path fill="#aaaea9" d="M81 91h11v4H81z"/><path fill="#131916" d="M49 26l2-4 40 29-3 3z"/><path fill="#55554b" d="M118 68l1-1 30 32-1 1z"/><path fill="#687479" d="M247 142l6 23-5 1-6-23z"/><path fill="#17201f" d="M353-1v-1l18 11-1 1z"/><path fill="#a5a99f" d="M126 102l1 2-20 8-1-1z"/><path fill="#1e1f19" d="M128 200l26-11 4 9-26 11z"/><path fill="#2d2c2a" d="M103 34l26-12 4 8-26 12z"/><path fill="#28332e" d="M157 42l7-21 12 4-7 21z"/><path fill="#242c27" d="M136-2l36-2v8l-36 1z"/><path fill="#1f281d" d="M68 93v3l-50-3v-3z"/><path fill="#d0d5ce" d="M345 19l-2 1-8-12 1-1z"/><path fill="#535e62" d="M173 69l44-11 24 90-44 12z"/><path fill="#59635c" d="M4 175l6 5-6 9-6-4z"/><path fill="#5b584e" d="M271 154h2l20 75h-2z"/><path fill="#686861" d="M131 201l-40 6-2-9 40-7z"/><path fill="#dbded8" d="M100 106l1-1 7 3-1 1z"/><path fill="#5c5248" d="M330 56l11 5-4 10-11-5z"/><path fill="#394f52" d="M207 250l33-113 7 2-32 113z"/><path fill="#1d2315" d="M163 114l-9 2-3-16 9-2z"/><path fill="#4e4e47" d="M383 88l32-1 1 17-33 1z"/><path fill="#857f6f" d="M282 159L267 56l3-1 15 104z"/><path fill="#2e3728" d="M144 97l1 2-28 15-1-2z"/><path fill="#838a83" d="M77 55l-1-8 5-1 1 8z"/><path fill="#121918" d="M27 136l-32 6-2-11 33-5z"/><path fill="#737a71" d="M394 119l-6-8 16-12 6 7z"/><path fill="#847053" d="M283 233l41-81 1 1-41 81z"/><path fill="#8f9892" d="M98 141h6v4h-6z"/><path fill="#9ea39f" d="M77 70h13v5H77z"/><path fill="#222d21" d="M49 145l-2-6 15-4 2 6z"/><path fill="#edf5f0" d="M356 9l3 1v1h-4z"/><path fill="#a4a59d" d="M249 186l42 25-1 1-42-25z"/><path fill="#8e8c80" d="M292 37l-48 6v-3l48-6z"/><path fill="#bec2bf" d="M58 153l1 1-16 10-1-1z"/><path fill="#3e3c31" d="M238 130l1-3 34 7-1 3z"/><path fill="#55574d" d="M276 144l-39 64h-1l38-65z"/><path fill="#464c43" d="M6 152l26 7-2 9-26-6z"/><path fill="#575b4d" d="M121 72l-2 1-35-37 1-1z"/><path fill="#4e4a35" d="M351 83l3 12-6 2-3-12z"/><path fill="#4b4c40" d="M258 120l1-1 12 10-1 1z"/><path fill="#7a7968" d="M161 57l-14 33-6-2 14-33z"/><path fill="#41362c" d="M152 52l-5-23 3-1 5 23z"/><path fill="#9a9d97" d="M99 132l13-5v2l-13 5z"/><path fill="#72756a" d="M303-9l4 15-18 5-4-15z"/><path fill="#848986" d="M270 201l-39-2v-2l39 2z"/><path fill="#959082" d="M301 123l-46 20-1-2 46-20z"/><path fill="#b5b6b1" d="M125 39l-2-2 4-3 2 3z"/><path fill="#6f6d5d" d="M156 156l-23 13-3-4 23-13z"/><path fill="#768077" d="M77 191v-2l17 3v1z"/><path fill="#3c3a2f" d="M141 53v-2l19-5 1 1z"/><path fill="#858c86" d="M378 21l2-3 3 3-2 3z"/><path fill="#566056" d="M20 30l-40-11 8-29L28 2z"/><path fill="#808274" d="M162 70l-31 19-1-1 32-20z"/><path fill="#5b6059" d="M111 105v2L65 90l1-1z"/><path fill="#737d7e" d="M260-8l6 4-24 33-7-5z"/><path fill="#959490" d="M304 67l1-2 8 4-1 2z"/><path fill="#b8b6ab" d="M243 109l1-2 52 30-1 1z"/><path fill="#a9a798" d="M251 121l38 17v2l-39-17z"/><path fill="#26341f" d="M117 181l-2-2 19-15 2 3z"/><path fill="#eeeee6" d="M292 115l34 3v6l-35-3z"/><path fill="#6d6356" d="M135 136l1 6-13 2-1-6z"/><path fill="#fbf9f1" d="M353 30l-5-1 1-1 4 1z"/><path fill="#1a2117" d="M140 134l-23-2v-5l24 2z"/><path fill="#2f3a37" d="M353 18l-6-8 2-1 5 8z"/><path fill="#484842" d="M370 167l6 6-11 11-5-5z"/><path fill="#868278" d="M137 7l1-1 23 7v2z"/><path fill="#141c18" d="M-17 209l-2-6 50-22 2 5z"/><path fill="#706558" d="M330 63l-17 3-4-21 17-3z"/><path fill="#d3d6d2" d="M101 103l-2-1 12-25h1z"/><path fill="#fff" d="M345 78l1-1 2 3-2 1z"/><path fill="#141c0c" d="M285 109h-2l-4-10 2-1z"/><path fill="#2f3126" d="M366 55h-3l7-43h3z"/><path fill="#585e55" d="M86 60l5 7-16 12-5-7z"/><path fill="#1a241a" d="M97 104l-26 26-1-1 26-26z"/><path fill="#2b302c" d="M48 163l1-1 7 1v2z"/><path fill="#9ea091" d="M279 145l14 45-2 1-13-45z"/><path fill="#b4b3a9" d="M278 20l1 1-11 20-2-1z"/><path fill="#191e17" d="M140 10v3h-16v-3z"/><path fill="#23261d" d="M292 16l17-6 7 23-17 5z"/><path fill="#6a807d" d="M313 104l-1 11-29-2v-11z"/><path fill="#595b56" d="M105 20L86-12l4-3 19 32z"/><path fill="#b4beb9" d="M349 12l2 6-11 2-1-6z"/><path fill="#3a2c22" d="M296 54l5-5 8 8-6 5z"/><path fill="#25312e" d="M257 184l-20 2-2-12 20-2z"/><path fill="#182825" d="M237 99l2 4-5 3-3-4z"/><path fill="#3d4640" d="M5 66l-20-12 12-19 20 13z"/><path fill="#3f4239" d="M352 16l-97-29 1-2 97 30z"/><path fill="#454941" d="M91 118l13-2v2l-12 2z"/><path fill="#fffff8" d="M143 27l4 6-1 1-4-6z"/><path fill="#1f221b" d="M317 32l-1-1 37-49 1 1z"/><path fill="#869b94" d="M284 76l12-3 3 9-13 3z"/><path fill="#161a1c" d="M113 182l-3 11-9-2 3-11z"/><path fill="#515245" d="M281 204l-30-21 1-1 30 21z"/><path fill="#a7aeab" d="M367 7l1 9-2 1-1-10z"/><path fill="#7a8278" d="M80 130l-7 23-1-1 6-22z"/><path fill="#3b413e" d="M3 193l-4-7 43-24 4 6z"/><path fill="#afb3b0" d="M56 159v2l-23-3v-2z"/><path fill="#6b6d63" d="M131-20l19 51-1 1-19-52z"/><path fill="#cccfc9" d="M130 120v3h-8v-3z"/><path fill="#d0d3cd" d="M115 88l-5 14-2-1 6-14z"/><path fill="#898879" d="M247 55l31 12-2 4-30-11z"/><path fill="#262722" d="M136 43l-1 3-32-13 1-3z"/><path fill="#2a3621" d="M154 123l-2 2-30-28 2-2z"/><path fill="#646968" d="M244 98l-15-4 4-15 15 4z"/><path fill="#a1a59f" d="M251 16l12 15-6 5-12-15z"/><path fill="#989688" d="M267 186v-2l33 10v1z"/><path fill="#969180" d="M245 157l64-17v2l-63 17z"/><path fill="#534a3f" d="M282 31l38 10-1 2-37-10z"/><path fill="#464e4b" d="M263 77l-21 6-4-12 22-6z"/><path fill="#3d433b" d="M65 98l4-15 15 5-4 15z"/><path fill="#2e352c" d="M84 140l-1 2-40-6v-1z"/><path fill="#20281e" d="M15 169l-9 6-19-27 9-6z"/><path fill="#657168" d="M30 141l8-4 6 11-8 4z"/><path fill="#d3dcd8" d="M357 3l-5 9-1-1 4-8z"/><path fill="#20241f" d="M370 184l9-3 12 33-9 4z"/><path fill="#746447" d="M335 161l-15 3-7-36 16-3z"/><path fill="#4e5647" d="M90 164l3-3 16 17-4 3z"/><path fill="#929793" d="M108 149h2l-4 7-2-1z"/><path fill="#343629" d="M234 124l12-4v2l-12 3z"/><path fill="#747366" d="M148 159l-5-31 1-1 6 31z"/><path fill="#a6a599" d="M297 46l1 8-19 1v-8z"/><path fill="#464744" d="M118 121v1l-15 3-1-2z"/><path fill="#3d4138" d="M128 78h4l-2 27-5-1z"/><path fill="#b9b8b1" d="M277 123l5-5 8 8-4 4z"/><path fill="#161c1c" d="M34 3l29-9 1 4L36 8z"/><path fill="#181816" d="M307 198l7-2 2 4-7 3z"/><path fill="#707567" d="M35 50v-1l13 2-1 2z"/><path fill="#70726b" d="M86 130l3-6 1 1-2 6z"/><path fill="#524b3d" d="M271 73l4 1v17h-5z"/><path fill="#1f1e1b" d="M103 29l-2-2 13-11 2 3z"/><path fill="#1d261e" d="M77 184h-1l2-35h1z"/><path fill="#e1e0d8" d="M123 47l-2-4 1-1 3 4z"/><path fill="#473f2d" d="M148 162l-18 63-1-1 18-63z"/><path fill="#828a80" d="M43 177l12-4 1 2-13 3z"/><path fill="#313832" d="M44 149l1 1-6 3-1-2z"/><path fill="#3a4135" d="M58 178l-3-1 14-32 3 2z"/><path fill="#f2f7f0" d="M350 13v10h-1l-1-10z"/><path fill="#353125" d="M380 34l-9 51-9-2 9-51z"/><path fill="#605d4a" d="M153 89l-12-29 1-1 13 29z"/><path fill="#2a3428" d="M92 114l-1 12-34-4 1-12z"/><path fill="#b6b5ae" d="M141 44l3 10-2 1-3-11z"/><path fill="#a9aa9e" d="M252 150l17 3-1 5-17-3z"/><path fill="#766859" d="M266 79l34-27 1 2-34 26z"/><path fill="#7d817e" d="M97 197l-6-7 4-4 7 7z"/><path fill="#202823" d="M45 66l29-53 2 1-30 53z"/><path fill="#f9ffef" d="M329 113l6 7-6 6-6-7z"/><path fill="#171a16" d="M400 148l-12-5 11-21 11 6z"/><path fill="#4f5647" d="M5 90l-1 28h-7V90z"/><path fill="#7a8581" d="M16 7L31-7l1 2L17 8z"/><path fill="#3f453b" d="M107 74v3l-18 3-1-3z"/><path fill="#b3bab1" d="M93 70l-4 6h-2l4-7z"/><path fill="#5e6058" d="M110-23l17 63h-1l-17-63z"/><path fill="#dbd7ce" d="M318 69l6-3v1l-5 3z"/><path fill="#3b412e" d="M275 168l3-13 1 1-2 12z"/><path fill="#c9cbc7" d="M119 125v2l-5-1v-1z"/><path fill="#635949" d="M350 59l-4-27 12-2 4 27z"/><path fill="#40463f" d="M86 90L21 25l1-1 65 65z"/><path fill="#333d23" d="M24 198l21-23 14 13-21 23z"/><path fill="#1d261e" d="M24 63l-35 14-2-4 35-14z"/><path fill="#b9bdba" d="M114 60l1 1-6 3v-2z"/><path fill="#554830" d="M257 168l9 4-3 5-8-3z"/><path fill="#9a9e92" d="M129 110l-2 13h-1l1-13z"/><path fill="#464237" d="M315 168l-37 11-1-1 38-12z"/><path fill="#0c1410" d="M365 7l1-13 14 1-1 13z"/><path fill="#778f8c" d="M301 106l41 9-1 3-41-9z"/><path fill="#5f6658" d="M87 179l-1 6-9-3 2-6z"/><path fill="#a3aba7" d="M371 8l2 1-8 10-2-1z"/><path fill="#9d9c96" d="M288 10l4 12-19 7-4-11z"/><path fill="#55524a" d="M353 23l-29 10-1-1 30-11z"/><path fill="#585549" d="M275 138l-1-1 8-8 1 2z"/><path fill="#686c65" d="M112 188l7-2 2 9-7 2z"/><path fill="#86837a" d="M340 54l-2 1-26-33 1-1z"/><path fill="#afa899" d="M288 136l-15 3v-2l15-2z"/><path fill="#5f5d52" d="M137 17l7 27h-1l-7-27z"/><path fill="#a2aa9b" d="M65-6l14-3 4 17-14 3z"/><path fill="#aeafa4" d="M274 66V51h6v15z"/><path fill="#584832" d="M298 156l20-9 2 5-20 8z"/><path fill="#534732" d="M261 73h1l4 21-2 1z"/><path fill="#424a38" d="M98 81L87 24h1l11 57z"/><path fill="#383a38" d="M105 96h2l2 9h-2z"/><path fill="#d7d2cb" d="M136 53l-2 2-3-4 2-2z"/><path fill="#9ea8a5" d="M242 43l14-11 1 2-14 10z"/><path fill="#39402a" d="M145 112l-10 28-10-3 10-29z"/><path fill="#262720" d="M139-3l-6 27h-1l5-28z"/><path fill="#585d52" d="M88 103l-58 19-1-2 58-18z"/><path fill="#49422b" d="M388 108l-62 88-3-2 62-88z"/><path fill="#4f4f4b" d="M113 83h4v2l-5-1z"/><path fill="#506265" d="M241 124l-9 48-19-4 10-48z"/><path fill="#b8bbb7" d="M91 85l-9-1v-2l10 2z"/><path fill="#9a9a8f" d="M280 197l-3-17h1l3 17z"/><path fill="#5d625b" d="M84 76l4 3-14 18-4-2z"/><path fill="#636f43" d="M76 25l5 8-6 3-4-8z"/><path fill="#605441" d="M277 138l11 3-1 1-10-3z"/><path fill="#d4d2ce" d="M363 33l-4 3-1-1 3-3z"/><path fill="#242019" d="M277 91l1-12h6l-1 13z"/><path fill="#525c5c" d="M246 61l-8-5 15-19 7 6z"/><path fill="#3a352e" d="M136 66h-2l3-58h2z"/><path fill="#685d4d" d="M266 200v-2h39v2z"/><path fill="#4a4b42" d="M118 105l15-24h1l-15 24z"/><path fill="#3c4337" d="M14 87l21-11 2 4-20 11z"/><path fill="#63685c" d="M32 102l1 1-23 6-1-2z"/><path fill="#838a85" d="M26 163l-10-10 6-5 10 10z"/><path fill="#73766f" d="M278 169l3-4 15 15-4 3z"/><path fill="#b4bbb6" d="M347 94h-55v-8h55z"/><path fill="#dbded7" d="M126 70l-10-3v-1l11 3z"/><path fill="#cccabf" d="M131 69l1-3 4 1-1 3z"/><path fill="#242721" d="M21 52l-6-21 12-3 6 20z"/><path fill="#8e9792" d="M320 74l4 1-1 18h-5z"/><path fill="#655d45" d="M356 127l-15-3 4-21 15 3z"/><path fill="#232721" d="M4 115l-1-2 48-7v1z"/><path fill="#a8ac9e" d="M248 96l24-1v5h-23z"/><path fill="#494237" d="M277 183l2 1-8 10-1-1z"/><path fill="#232d1d" d="M119 165h6l2 21-7 1z"/><path fill="#66695f" d="M130 117v2l-18-10 1-1z"/><path fill="#2e3628" d="M103 155l1 1-53 47-1-2z"/><path fill="#343c38" d="M390 15l-2-20 20-2 2 20z"/><path fill="#364d4f" d="M162 154l8 58-8 1-8-58z"/><path fill="#978c73" d="M312 139l-20-16 1-1 20 16z"/><path fill="#242c22" d="M65 108L41 86l1-2 24 23z"/><path fill="#36392e" d="M339 21l-3 3-29-28 2-2z"/><path fill="#697069" d="M30 171l6-10h1l-6 11z"/><path fill="#aead9f" d="M260 120l-7 1-2-11 7-1z"/><path fill="#202a2b" d="M168 148l-18 4-1-5 18-3z"/><path fill="#1d2318" d="M144 94l-4 10-8-3 5-10z"/><path fill="#1e2624" d="M40 167L9 204l-1-1 31-37z"/><path fill="#4f544d" d="M49 160l26 18-1 1-25-18z"/><path fill="#6e7c6e" d="M7 25l-15-6 3-5 14 6z"/><path fill="#90978e" d="M18 152l14-6 2 3-15 6z"/><path fill="#293028" d="M316 72l-33-1v-4l33 1z"/><path fill="#a3aaa5" d="M241 86l1-1 16 15-1 1z"/><path fill="#1d221d" d="M356 20h12v3h-12z"/><path fill="#3b3c34" d="M129 60l-3-11 3-1 3 11z"/><path fill="#3c4e30" d="M131 175l-25 3v-1l24-4z"/><path fill="#1b2119" d="M12 79l2 1-9 33H3z"/><path fill="#393930" d="M286 6l-1 1-16-11 1-1z"/><path fill="#545c57" d="M62 44l7 6-1 1-7-5z"/><path fill="#c8cfc7" d="M88 97l-7-4 1-1 7 4z"/><path fill="#343934" d="M340 17h-6l-1-4 7-1z"/><path fill="#dde0d8" d="M119 73l1 1-10 5v-1z"/><path fill="#1c1f1a" d="M336 194l31 6-1 5-31-6z"/><path fill="#74705d" d="M274 56l-1 1-20-18 1-1z"/><path fill="#5f654a" d="M153 114l-9 2-2-13 9-1z"/><path fill="#2e2c24" d="M352 58l4 3-13 14-3-3z"/><path fill="#5d5145" d="M309 41l5-10 16 8-5 10z"/><path fill="#c5c8c4" d="M106 130l-8-4 1-1 7 3z"/><path fill="#919792" d="M371 22l2-3 1 1-2 3z"/><path fill="#41412f" d="M278 105l-9 5-1-4 8-5z"/><path fill="#7b7e78" d="M77 74l1-1 18 4v2z"/><path fill="#7e765b" d="M160 24l-5 12-4-2 5-12z"/><path fill="#414637" d="M283 117h-2l3-14h2z"/><path fill="#524e42" d="M272 25l1 1-9 4-1-1z"/><path fill="#949f9b" d="M345 3l4-5 1 1-4 5z"/><path fill="#a6aca2" d="M264 181l3 31h-1l-4-31z"/><path fill="#a7aba3" d="M118 121l-20-18 1-1 20 18z"/><path fill="#b8bcba" d="M45 166l1-2 7 7-1 1z"/><path fill="#515b5e" d="M232 68l7 19-73 25-6-19z"/><path fill="#403a2c" d="M275 153h-1l-4-10 2-1z"/><path fill="#a7a495" d="M283 129h-1l-7-19h1z"/><path fill="#333e46" d="M256 80l-2 9-6-2 2-9z"/><path fill="#acafa5" d="M329 20l2 4-2 1-2-4z"/><path fill="#818579" d="M253 181l-2 6-2-1 2-6z"/><path fill="#919288" d="M139 29l-2-5 26-14 2 5z"/><path fill="#b2b5ac" d="M126 115l-12 8-1-2 12-8z"/><path fill="#666b63" d="M374 209l-2 1-6-21h1z"/><path fill="#7f7151" d="M342 113l8 17-6 3-8-17z"/><path fill="#5b5e57" d="M108 119l14-1v2l-14 1z"/><path fill="#757c70" d="M66 152l16-7 1 2-16 6z"/><path fill="#747a74" d="M40 132h1l2 6h-1z"/><path fill="#2b3531" d="M366 7l1-1 12 17-1 1z"/><path fill="#505049" d="M393 130l-11 24-2-1 12-24z"/><path fill="#b8b5a9" d="M143 79l-9-2v-2l9 3z"/><path fill="#373832" d="M29 132l3-15 15 2-2 16z"/><path fill="#3f423c" d="M108 88l2 2-1 1-2-1z"/><path fill="#41413b" d="M119 92l-2 1-3-5 1-1z"/><path fill="#252d1f" d="M75 165l-16-9 2-4 16 9z"/><path fill="#282c22" d="M154 128l-69 13v-2l69-13z"/><path fill="#9e9987" d="M265 65l-4-3 13-19 4 3z"/><path fill="#c8cac6" d="M119 127l-2-1 3-4 2 1z"/><path fill="#959a91" d="M340 47l-6-1 2-11 6 2z"/><path fill="#464a42" d="M259 199l-17-8 1-1 17 8z"/><path fill="#454c45" d="M6 4l4-3 29 34-4 3z"/><path fill="#715b3b" d="M292 143h4l1 12-4 1z"/><path fill="#40413f" d="M122 129l-1-5 6-1 1 4z"/><path fill="#1a2118" d="M369 141l-1 23h-7v-23z"/><path fill="#938a86" d="M143 119l2 4h-2l-2-4z"/><path fill="#56554f" d="M130 22l-18 8-3-7 18-8z"/><path fill="#565b53" d="M116 144l4 8-6 3-4-9z"/><path fill="#d2d6c7" d="M141 35l-1-1 5-5 1 1z"/><path fill="#4c524a" d="M393 208l-12-7 6-11 12 7z"/><path fill="#494c48" d="M244 107l1-1 6 4-1 2z"/><path fill="#656861" d="M258 102l-4 6-4-2 4-7z"/><path fill="#8b8678" d="M141 153l1-1 9 10-1 1z"/><path fill="#63665a" d="M314 5l3 1-4 10-3-1z"/><path fill="#c0c5c1" d="M321 70v-1h13v2z"/><path fill="#707770" d="M72 135l6-5 5 6-6 5z"/><path fill="#4e544d" d="M43 166v1l-75-21v-2z"/><path fill="#495840" d="M65 69l1-11h5l-1 11z"/><path fill="#878376" d="M285 60l-29-11 1-1 29 11z"/><path fill="#44595b" d="M158 218l40-69 39 22-40 69z"/><path fill="#9ba598" d="M70 144h-7v-2h6z"/><path fill="#464136" d="M276 202l-3 2-7-14 3-2z"/><path fill="#b7b8af" d="M239 110v-1l14 1v1z"/><path fill="#2d2f26" d="M151 175l1 2-17 2-1-1z"/><path fill="#2a3d3d" d="M247 228l-13-69 2-1 13 69z"/><path fill="#534e3c" d="M366 71l-28-20 1-1 28 19z"/><path fill="#22261d" d="M117 20V10h2v10z"/><path fill="#3f5557" d="M235 36l-61 1-1-25 61-1z"/><path fill="#171f1c" d="M356 12v-1l9 4-1 1z"/><path fill="#1d2320" d="M353 7l1-1 4 1-1 2z"/><path fill="#534a37" d="M292 183l1-2 16 10v1z"/><path fill="#1c201c" d="M394 87l-19-2 5-42 19 2z"/><path fill="#7a7568" d="M274 124l-10-4 1-2 10 4z"/><path fill="#2f342e" d="M55 5L4 45l-1-2L54 4z"/><path fill="#242c23" d="M121 147l-16-2 1-12 16 1z"/><path fill="#8b8d89" d="M335 14l2 4-2 1-2-4z"/><path fill="#4e4c3e" d="M145 70h2l-3 12h-1z"/><path fill="#adafa6" d="M255-8l1-1 12 19h-1z"/><path fill="#7d7e6e" d="M96 49l13 2-1 2-12-2z"/><path fill="#242b24" d="M100 107l-13 11-4-5 13-11z"/><path fill="#616253" d="M139 40l1 1-21 24-1-1z"/><path fill="#9ba299" d="M31 180l1-1 4 2-1 1z"/><path fill="#646a5a" d="M110 164l-1-1 27-4v2z"/><path fill="#17221b" d="M353 11v11h-2l1-11z"/><path fill="#5e6559" d="M45 81l21 2v3l-22-2z"/><path fill="#5d6d64" d="M309 115l1-1h4v2z"/><path fill="#3c3a2f" d="M156 162l1 3-24 9-1-3z"/><path fill="#83857a" d="M263 210l-14-61 2-1 14 61z"/><path fill="#625942" d="M358 80l7 21-6 2-7-21z"/><path fill="#554e30" d="M337 140l22 1-1 18-22-2z"/><path fill="#19211c" d="M341 7l2-14 5 1-2 14z"/><path fill="#3c392b" d="M356 43l19-11 5 8-19 11z"/><path fill="#111b17" d="M67 92l-9 5-2-3 10-5z"/><path fill="#79766c" d="M337 60l14-27 4 2-14 28z"/><path fill="#434f53" d="M162 152v-46h18v46z"/><path fill="#989b95" d="M128 73l1 1-2 10h-2z"/><path fill="#171e1a" d="M73 165v-8l16 1-1 8z"/><path fill="#8a9b97" d="M343 115l-32-1 1-18 31 1z"/><path fill="#a2a18f" d="M254 112l17-26 1 1-16 26z"/><path fill="#919287" d="M244 144l1-1 32 30-1 1z"/><path fill="#9fa296" d="M125 108l-3-7 1-1 4 7z"/><path fill="#262922" d="M347 156l58 2-1 19-57-2z"/><path fill="#57584f" d="M371 154l1-6 9 2-1 6z"/><path fill="#5c6255" d="M11 93l2-2 12 11-3 2z"/><path fill="#4f5850" d="M-11 37l41 23-1 1-41-22z"/><path fill="#191f18" d="M317 30l4-12h1l-3 12z"/><path fill="#6e6557" d="M286 44v-1l55 14-1 2z"/><path fill="#424c4b" d="M233 58l12-24 2 1-13 23z"/><path fill="#8f928e" d="M254 109l-13-9 1-1 13 9z"/><path fill="#404c34" d="M78 26l8-7 16 19-8 7z"/><path fill="#9da6a4" d="M285-2l7 4-1 1-7-4z"/><path fill="#969890" d="M356 20l1 1-8 8-1-1z"/><path fill="#1e2a1f" d="M44 137h2l2 9h-1z"/><path fill="#747369" d="M154 170v1l-16 2v-2z"/><path fill="#95988c" d="M121 4v2l-15-5v-2z"/><path fill="#4c5147" d="M44 126l1-3 32 18-2 3z"/><path fill="#897a68" d="M288 158l-25-10 1-1 24 10z"/><path fill="#3c3427" d="M290 69l20-31h1l-20 32z"/><path fill="#8a8d87" d="M95 13l-8 6-24-31 8-6z"/><path fill="#3a3b35" d="M397 181l-4 5-29-18 3-5z"/><path fill="#343c30" d="M93 103l-56-6v-2l56 7z"/><path fill="#62665e" d="M136-4l1 2-37 20-1-1z"/><path fill="#d4d1cc" d="M309 127l-11-6 1-2 11 5z"/><path fill="#424a45" d="M175 6v2l-26 3-1-1z"/><path fill="#323c3c" d="M159 60l10 2-1 11-11-2z"/><path fill="#1d221b" d="M69 37l-24-9 4-10 23 8z"/><path fill="#5c675f" d="M98 187l-8-22 2-1 7 23z"/><path fill="#646153" d="M293 31l-3-1 3-13 3 1z"/><path fill="#0f1517" d="M16 80l-1 9-29-1V78z"/><path fill="#817c6c" d="M267 145l-33-40 1-1 33 40z"/><path fill="#b5b9b0" d="M110 106l-1 11h-2l2-11z"/><path fill="#333732" d="M95 52l-9 20h-1l8-21z"/><path fill="#3f3b32" d="M345 30l-3-4 5-4 3 4z"/><path fill="#64573d" d="M335 154l-4-6 36-25 4 6z"/><path fill="#e2e5df" d="M114 96v1l-14-4v-1z"/><path fill="#4e4732" d="M369 40h2l-23 53h-1z"/><path fill="#282e1d" d="M139 63l1 1-9 3v-1z"/><path fill="#a4a69a" d="M326 33l-3 2-3-7 2-2z"/><path fill="#2e2b25" d="M403 135l-26-6 3-12 26 6z"/><path fill="#7e8379" d="M131 14l-2 11h-2l2-11z"/><path fill="#1c201b" d="M120 100l8-3v2l-7 2z"/><path fill="#cdc1a6" d="M354 99h-1l1-3h1z"/><path fill="#b1b6ad" d="M130 177l-1-9h2l1 9z"/><path fill="#4b585b" d="M168 66l-3-26 47-4 2 26z"/><path fill="#737069" d="M365 181l4-5 1 1-3 5z"/><path fill="#5e665d" d="M34 14l-1 17h-3l1-17z"/><path fill="#757566" d="M256 74l7 22-2 1-6-23z"/><path fill="#707069" d="M99 68h-2l3-16 2 1z"/><path fill="#a8afa5" d="M108 74l-1 1-7-10 1-1z"/><path fill="#a6a594" d="M273 131l31-3v2l-31 3z"/><path fill="#363735" d="M403 104l-1 1-7-39h2z"/><path fill="#141e17" d="M67 59l-3 2-13-15 2-2z"/><path fill="#534c3d" d="M270 48l-2-2 7-8 3 2z"/><path fill="#fffff5" d="M331 117h3v2h-4z"/><path fill="#394134" d="M108 71l6-7 1 1-6 7z"/><path fill="#4e463f" d="M271 140l-5 1-1-8h5z"/><path fill="#44453e" d="M327 30l-7-4 1-1 7 4z"/><path fill="#b0ad9c" d="M257 176l2 6h-2l-1-6z"/><path fill="#6b6b62" d="M345 27l-12 20h-1l11-21z"/><path fill="#b4b4a2" d="M256 194l-6-7 1-1 7 7z"/><path fill="#88837d" d="M134 42h-1V31h1z"/><path fill="#b5afa0" d="M280 44l8-7 3 2-9 7z"/><path fill="#46443b" d="M145 187l-17 28-6-4 17-28z"/><path fill="#242f20" d="M78 114l-2 4-15-5 2-4z"/><path fill="#c6c0a9" d="M264 53l-1 3-3-1 1-3z"/><path fill="#383d36" d="M320 22v-2l21-6v2z"/><path fill="#847256" d="M278 158l-1-1 56-23 1 1z"/><path fill="#7f857e" d="M53 101l7 6-2 3-7-6z"/><path fill="#8b927f" d="M128 111l-2-4 1-1 2 4z"/><path fill="#737968" d="M280 68l1-1 10 10-1 1z"/><path fill="#ced0d1" d="M293 113l9 2v2l-9-3z"/><path fill="#50574e" d="M86 187l17-1v3l-17 1z"/><path fill="#363d38" d="M51 48L40 36l8-8 11 13z"/><path fill="#4b4b45" d="M359 33v1l-11-2 1-2z"/><path fill="#2c322e" d="M113 134l-1-1 4-12 2 1z"/><path fill="#8f968d" d="M63 9l1-2 18 5v1z"/><path fill="#5d6258" d="M87 104l-47 11v-2l47-11z"/><path fill="#5e6669" d="M257 18l-2 1-10-33h1z"/><path fill="#81755f" d="M258 75l1-12 9 1-1 12z"/><path fill="#3f3a21" d="M151 90l4 21-1 1-5-22z"/><path fill="#a3a396" d="M254 134v2h-3v-1z"/><path fill="#1c2829" d="M239 169l11-2 3 12-11 2z"/><path fill="#242923" d="M95 179l3-2 15 18-3 2z"/><path fill="#8e8e82" d="M235 124l38-1v1l-38 2z"/><path fill="#454c31" d="M64 199l-36 4v-3l36-4z"/><path fill="#514e4b" d="M275 136l6 7-1 1-6-7z"/><path fill="#1f241c" d="M303 5h2l3 20h-2z"/><path fill="#49412d" d="M264 115h-1l-1-6h2z"/><path fill="#434841" d="M106 132l3 2-7 8-3-2z"/><path fill="#1d241f" d="M-5 80v-2l77-12v1z"/><path fill="#6f7572" d="M237 33l3-11 9 3-3 10z"/><path fill="#bbc2be" d="M360 5h1l2 4-1 1z"/><path fill="#b1b9b2" d="M57 155l-1-1 4-5 1 1z"/><path fill="#40492f" d="M129 107l12-1 3 20-12 1z"/><path fill="#73624a" d="M298 131l2-2 7 7-3 2z"/><path fill="#c2bfb3" d="M286 128l15 13-1 1-15-12z"/><path fill="#323434" d="M31 159v6h-4v-6z"/><path fill="#1e221d" d="M88 62l-6-2 4-11 6 2z"/><path fill="#9b9b90" d="M246 196l1-2 11 9-1 1z"/><path fill="#b2a894" d="M289 135l-9 17-2-1 9-17z"/><path fill="#444a44" d="M265 179l-1 1-27-26 1-1z"/><path fill="#555144" d="M280 204l-2-1 3-8h2z"/><path fill="#b8a88e" d="M291 137l-1 12h-1v-12z"/><path fill="#aeb6b0" d="M345 10V7h5v3z"/><path fill="#232c20" d="M62 63l45-44 1 1-45 44z"/><path fill="#9e9e92" d="M263 88l4-3 6 10-4 2z"/><path fill="#6f5c41" d="M314 128v2h-11v-2z"/><path fill="#949589" d="M138 76l1 1-6 14-2-1z"/><path fill="#26373a" d="M232 175l15 20-5 4-15-20z"/><path fill="#2f2920" d="M291 66v-2h23v2z"/><path fill="#898375" d="M139 182l-4 2-1-1 4-3z"/><path fill="#5c6255" d="M9 112l-1-1 16-12 1 1z"/><path fill="#847458" d="M326 156l-19 4v-2l18-4z"/><path fill="#4b4539" d="M260 187v5h-3v-4z"/><path fill="#222b1e" d="M88 177h1v14h-2z"/><path fill="#8e8d80" d="M243 113l-11-4 2-4 10 3z"/><path fill="#969783" d="M149 87l-1 1-8-5 1-1z"/><path fill="#9d9a8b" d="M263 136l-6 30h-3l6-31z"/><path fill="#2f312a" d="M112 154l1 1-14 8-1-1z"/><path fill="#ecf1eb" d="M353 22l3 3-1 1-3-3z"/><path fill="#6f6e5e" d="M137 68l16 11v2l-17-12z"/><path fill="#8a8c7f" d="M346 44l1 4-22 7-2-4z"/><path fill="#3b4132" d="M-7 98l2-6 23 9-2 6z"/><path fill="#535f5d" d="M32 4l-1-1 7-6 1 2z"/><path fill="#a2a4a2" d="M100 98l12 4-1 2-12-5z"/><path fill="#303021" d="M136 35l14 2v2l-14-3z"/><path fill="#3d413c" d="M117 71l1-2 4 3-1 1z"/><path fill="#71756e" d="M119 76l4 1v1h-4z"/><path fill="#706f64" d="M130 147l-19 18-2-1 19-18z"/><path fill="#4b5656" d="M171 10l3 4-12 9-3-4z"/><path fill="#232b25" d="M-7 132v-1l28 14v1z"/><path fill="#3b4132" d="M11 8L1 14l-1-2 10-5z"/><path fill="#747c79" d="M373 11l3-4 2 3-3 3z"/><path fill="#213432" d="M167 15h2l6 24-2 1z"/><path fill="#57513b" d="M361 76l2 1-20 39-1-1z"/><path fill="#959d99" d="M351 12v-2l6 2v1z"/><path fill="#8c9d94" d="M350 95l-8 10-2-2 7-10z"/><path fill="#e4e0db" d="M305 66l4-1 1 2h-5z"/><path fill="#747a74" d="M21 142l1-1 27 28-1 1z"/><path fill="#595d56" d="M127 63l2 6-1 1-3-6z"/><path fill="#919692" d="M259 32l-24-15 1-1 24 15z"/><path fill="#6b6d62" d="M317 8v1l-26-5V2z"/><path fill="#e5e6e3" d="M91 88l13-4 1 2-14 3z"/><path fill="#a2a191" d="M274 93l6-1 1 1-7 1z"/><path fill="#434a3d" d="M60 169l11-24h2l-12 24z"/><path fill="#7c8079" d="M70 74l17-4v1l-16 5z"/><path fill="#d5ddd7" d="M350 21l-3-5 1-1 4 5z"/><path fill="#4c544a" d="M63 126l-10 25-2-1 11-24z"/><path fill="#aeafa2" d="M274 131l2 17h-2l-1-17z"/><path fill="#1e211b" d="M384 181l1 4-27 5v-5z"/><path fill="#6c7069" d="M120 108l-5-10 1-1 5 10z"/><path fill="#222118" d="M156-6l-2 14-5-1 2-14z"/><path fill="#b0aea2" d="M294 58l-1 1-10-9 1-1z"/><path fill="#364244" d="M244 45l1 31h-6l-1-31z"/><path fill="#232310" d="M279 109l-2-6 5-1 1 6z"/><path fill="#473f30" d="M150 58l-8-8 10-10 8 8z"/><path fill="#3b423b" d="M5 140l1-1 12 7-1 1z"/><path fill="#70735f" d="M149 74l11 5-1 2-11-6z"/><path fill="#706960" d="M384 108l6-1 2 9-6 1z"/><path fill="#4c524d" d="M353 191l1-1 13 5v1z"/><path fill="#2e372e" d="M4 24l10 1v6L3 30z"/><path fill="#393832" d="M138 168l-4 19-1-1 3-18z"/><path fill="#7c7b6e" d="M143 59l8 10-2 2-8-10z"/><path fill="#6f644d" d="M321 216l-11-46h2l10 46z"/><path fill="#ababa7" d="M365 20l-4-2v-2l5 2z"/><path fill="#1b2524" d="M143 178l2-2 17 36-3 1z"/><path fill="#41453b" d="M97 5l-2-6 13-3 1 6z"/><path fill="#777970" d="M126 98l-4-2v-1l5 1z"/><path fill="#5f645a" d="M74 180l-1 1-8-16 2-1z"/><path fill="#dae0db" d="M340 17l4-5 1 1-3 5z"/><path fill="#1e2a29" d="M239 129l9 8-1 1-9-8z"/><path fill="#1d1f1a" d="M378 159l1-7 41 10-1 6z"/><path fill="#272f22" d="M67 185h-4l-1-12h5z"/><path fill="#988d7f" d="M292 187l19 23-2 1-18-23z"/><path fill="#696752" d="M345 119l-14-4 1-1 13 3z"/><path fill="#d2d2cf" d="M138 76l-1 1-14-7 1-2z"/><path fill="#373c37" d="M64-1l3 4-23 18-3-3z"/><path fill="#3a2f28" d="M136 160h-2l7-37h2z"/><path fill="#7f7f79" d="M95 123l1 1-8 5-1-1z"/><path fill="#2c2d25" d="M129 92l-1 1-9-9 2-1z"/><path fill="#cdcbc5" d="M260 19l-1 8h-1v-8z"/><path fill="#797a73" d="M373 147l9 3-1 2-8-4z"/><path fill="#2a332e" d="M350 10h-2l1-3h1z"/><path fill="#181f1c" d="M389 3l-12 12-1-1 11-12z"/><path fill="#676b67" d="M59 62l2-2 1 1-2 2z"/><path fill="#292c22" d="M120 149v2l-4 1-1-1z"/><path fill="#908e84" d="M148 6l1 1-11 1-1-1z"/><path fill="#34382a" d="M240 116l-6 5-1-1 6-5z"/><path fill="#6e6a57" d="M240 111l12 7-3 4-12-7z"/><path fill="#000503" d="M349 4l2-6h1l-1 6z"/><path fill="#1c281e" d="M263 187v3h-2v-3z"/><path fill="#726d5a" d="M280 102l-13 26h-2l13-27z"/><path fill="#423a23" d="M308 197v-1l35-7 1 1z"/><path fill="#5a605e" d="M39 5l3 3-1 1-3-3z"/><path fill="#535449" d="M371 145l12-11 1 1-12 11z"/><path fill="#474c47" d="M7 70v2l-12 3v-1z"/><path fill="#716954" d="M271 114l2-1 17 34h-2z"/><path fill="#252c26" d="M75 122l1-1 19 27-1 1z"/></svg>