<svg xmlns="http://www.w3.org/2000/svg" viewBox="0 0 400 200"><path fill="#51564e" d="M0 0h400v200H0z"/><path fill="#a09a89" d="M340 174l-104-9L249 9l104 9z"/><path fill="#221b0c" d="M310 263l64-280L479 7l-64 280z"/><path fill="#dbdcd5" d="M85 91l38-35 19 20-38 36z"/><path fill="#141d14" d="M44-10l61 51-91 109-61-52z"/><path fill="#bdcbc3" d="M290 78l61-2 1 53-60 3z"/><path fill="#241f15" d="M324 74l-33-2 9-126 33 2z"/><path fill="#68532f" d="M290 170l77-86 29 26-77 86z"/><path fill="#111b10" d="M81 192l-34 72-123-57 34-73z"/><path fill="#a09d94" d="M248-2l33-9 19 71-33 9z"/><path fill="#b2b6ab" d="M62 10l8-20 35 14-8 20z"/><path fill="#fffffc" d="M278 126v-10h55v10z"/><path fill="#908978" d="M250 113l45-1 6 173-45 2z"/><path fill="#2e372c" d="M76 196l-43-94 39-18 44 93z"/><path fill="#797e77" d="M123 101l9 16-103 62-10-16z"/><path fill="#1a2f35" d="M247 194l-14-1 6-76 14 1z"/><path fill="#242916" d="M161 118l-46-21 7-14 45 21z"/><path fill="#bcb9aa" d="M144 35l-8-8 19-17 7 8z"/><path fill="#b1b3af" d="M76 79l12-10 44 51-12 10z"/><path fill="#405762" d="M153 4l69-30 46 108-69 30z"/><path fill="#0b1315" d="M394-5l20 5-28 104-20-5z"/></svg>