<svg xmlns="http://www.w3.org/2000/svg" viewBox="0 0 400 200"><path fill="#51564e" d="M0 0h400v200H0z"/><path fill="#c3c3b4" d="M334 61l25 56-97 45-26-55z"/><path fill="#131c13" d="M47-8l58 50L8 154l-58-50z"/><path fill="#efefea" d="M100 108L86 93l41-34 13 15z"/><path fill="#211a0b" d="M487 21l-61 261-114-26L372-6z"/><path fill="#bab3a8" d="M259 75L240 7l40-11 19 67z"/><path fill="#857e6f" d="M309 274l-42 6-31-196 42-6z"/><path fill="#fff" d="M292 116l40 1v10l-41-2z"/><path fill="#121c10" d="M54 251l-134-66 28-56 133 65z"/><path fill="#c2c4bf" d="M119 128L79 75l10-8 40 54z"/><path fill="#866b40" d="M354 100l26 27-67 62-25-27z"/><path fill="#a9a398" d="M320 32l26-20 16 20-25 21z"/><path fill="#b7bbb0" d="M64 10l6-16 33 13-6 16z"/><path fill="#333a2f" d="M111 195l-91-69 33-44 92 68z"/><path fill="#b7c8c9" d="M345 81l-3 23-54-8 3-24z"/><path fill="#bdc2c2" d="M60 150l-4 25-14-2 4-25z"/><path fill="#3f4536" d="M275 124l-14-10 22-30 14 10z"/><path fill="#1c1a0f" d="M345-3l-38 44-16-15 38-43z"/><path fill="#aba696" d="M160 35l-20-1 2-27 20 2z"/><path fill="#0a1416" d="M408 87l-34-2 4-107 34 1z"/><path fill="#2e3222" d="M127 94l35-3 6 60-34 4z"/><path fill="#9fa09b" d="M108 95l10 4-15 36-10-4z"/><path fill="#405764" d="M166-16l83 1-4 199-83-2z"/><path fill="#7d817a" d="M408 124l-26-8 9-26 25 8z"/><path fill="#5e6255" d="M70 65l59-23 9 23-59 23z"/><path fill="#112424" d="M242 193l-17-11 16-23 17 11z"/><path fill="#0f1b1a" d="M165 189l-22 34-19-13 22-34z"/><path fill="#4d4133" d="M371 58v17l-91-3 1-17z"/><path fill="#948c79" d="M279 111l35 26-35 45-35-27z"/><path fill="#bdc3bf" d="M85 209l-4-17 14-3 3 17z"/><path fill="#212416" d="M122 44l-31-3 1-20 31 2z"/><path fill="#959690" d="M290 7l5 26-52 11-5-26z"/><path fill="#ebedea" d="M118 79v11l-28 2-1-11z"/><path fill="#9ba19e" d="M21 145l31 10-3 11-31-10z"/><path fill="#424231" d="M140 112l-26-18 13-20 26 18z"/><path fill="#393d34" d="M240 127l29-5 2 12-29 5z"/><path fill="#837969" d="M354 31l10 24-44 19-11-24z"/><path fill="#fff" d="M336 121l-2 6-28-9 2-6z"/><path fill="#242b21" d="M101 159l-41 38-13-14 41-38z"/><path fill="#869792" d="M305 100l56-6 1 11-56 6z"/><path fill="#8a8572" d="M132 88l18-31 10 6-17 32z"/><path fill="#192017" d="M104 112l-67 17-2-8 67-17z"/><path fill="#2b3026" d="M279 116l-3-39 9-1 3 39z"/><path fill="#8d8a7c" d="M251 179l52 11-5 23-52-11z"/><path fill="#9a9d90" d="M282 88l-1 14-39-1V87z"/><path fill="#222724" d="M423 139l-23 60-53-21 23-59z"/><path fill="#2c3f42" d="M152 206l13-255 13 1-14 254z"/><path fill="#18211b" d="M93 57L-1 92l-6-17 94-34z"/><path fill="#b0ab9c" d="M298 50l-19 22-13-11 19-22z"/><path fill="#576265" d="M170 52l45-10 26 114-45 10z"/><path fill="#413d33" d="M308 169l1 9-56 5-1-10z"/><path fill="#504f42" d="M279 45l-39 9-2-9 39-10z"/><path fill="#dfe2de" d="M83 91l33 3-1 5-32-4z"/><path fill="#31291f" d="M315 73l-16 1-6-64 16-1z"/><path fill="#717b70" d="M59 150l8-22 16 5-8 22z"/><path fill="#73756e" d="M96 140l33 12-5 13-32-12z"/><path fill="#2b2d23" d="M139 143l-30 10-6-20 30-9z"/><path fill="#8c9696" d="M378 12v3l-30-6 1-3z"/><path fill="#b5c0b9" d="M345 76l4 4-21 21-4-4z"/><path fill="#9f9988" d="M281 123h8l13 152-8 1z"/><path fill="#d8dad9" d="M135 74l-1 1-27-16 1-1z"/><path fill="#644e28" d="M348 167l-30 54-21-11 31-55z"/><path fill="#6a6c63" d="M284-3l-36 73-5-3 35-73z"/><path fill="#5c6151" d="M30 106l-55 11-3-15 55-11z"/><path fill="#dae5e0" d="M350 7l-10 17-1-1 10-17z"/><path fill="#fffffe" d="M362 34l-1 1-9-11 1-1z"/><path fill="#404741" d="M47 53L2 66-8 26l45-12z"/><path fill="#fcfcf6" d="M294 113l21 6-1 4-21-6z"/><path fill="#7c6a4a" d="M275 164l-6-16 79-29 6 16z"/><path fill="#3a565d" d="M155 177l80-14 9 49-80 14z"/><path fill="#1c2823" d="M363 75v2l-72-7 1-1z"/><path fill="#c4c9c2" d="M127 185l6-13 1 1-6 13z"/><path fill="#74766c" d="M117-17l10 24-27 12L90-6z"/><path fill="#283321" d="M97 188l2-27 28 3-2 26z"/><path fill="#3a3b2f" d="M168 17l12 15-28 24-12-14z"/><path fill="#63563f" d="M346 35l11-2 11 62-11 2z"/><path fill="#091012" d="M23 121l2 14-46 8-2-14z"/><path fill="#424541" d="M113 106l-1 2-20-9 1-2z"/><path fill="#d7d1c7" d="M147 58h-2l-6-14 1-1z"/><path fill="#2f312a" d="M132 17l-6-18 40-14 6 18z"/><path fill="#7a7363" d="M154 134l-6 32-9-1 5-33z"/><path fill="#d1d7d2" d="M102 62l6 11-2 1-6-11z"/><path fill="#759190" d="M324 117l-39-4 2-22 39 4z"/><path fill="#dce4e6" d="M319 68l14 2v1l-14-2z"/><path fill="#b6b5aa" d="M295 141l-20-21 7-7 20 22z"/><path fill="#464032" d="M262 170l7-2 11 39-7 2z"/><path fill="#a5a696" d="M268 128l-12 4-7-21 12-4z"/><path fill="#050b09" d="M378 25l-2 7-18-5 2-8z"/><path fill="#70776c" d="M50 92l-3-5 15-9 3 6z"/><path fill="#101411" d="M78 42l-7 6-25-26 7-6z"/><path fill="#363b2d" d="M140 63l-13 8-6-11 13-8z"/><path fill="#171e14" d="M108 79l-1 1-22-22 1-2z"/><path fill="#443f37" d="M348 20l4 5-14 10-4-5z"/><path fill="#42493a" d="M63 201l-15 8-22-39 15-9z"/><path fill="#999b95" d="M105 120l2 13-14 2-2-13z"/><path fill="#5e6156" d="M124 87l8 25-11 3-7-25z"/><path fill="#999b93" d="M272 163l-20 3-4-25 20-2z"/><path fill="#1d2320" d="M-4 38l6-13 32 13-6 13z"/><path fill="#9d9692" d="M134 55l-15-8 2-4 15 8z"/><path fill="#e9efe8" d="M143 32l-3-9 3-1 3 9z"/><path fill="#1f2521" d="M87 156l-11-39 10-3 12 39z"/><path fill="#3b3c36" d="M269 137l2-1 8 35h-1z"/><path fill="#ebeee8" d="M122 82l-14 2-1-8 14-2z"/><path fill="#6d695d" d="M134 139l-16 27-7-4 16-27z"/><path fill="#838579" d="M279 0v-2l38 10-1 2z"/><path fill="#aab5af" d="M286 92l2-17 19 3-3 17z"/><path fill="#6c726d" d="M49 115l-6-9 12-7 6 9z"/><path fill="#828077" d="M139 4l29 6-2 9-29-6z"/><path fill="#463f30" d="M262 125l-1-1 22-38 1 1z"/><path fill="#242723" d="M107 106l-2-10h2l2 9z"/><path fill="#4a473c" d="M372 157l-8-41 12-3 8 42z"/><path fill="#949a94" d="M61 154l-9 27-5-2 9-27z"/><path fill="#3a3425" d="M374 69l-6 16-31-11 6-17z"/><path fill="#606960" d="M-19 148l67-5 1 11-67 5z"/><path fill="#2b3325" d="M7 218l-2-33 77-4 2 33z"/><path fill="#3d423c" d="M49 163l3-3 13 13-3 3z"/><path fill="#4c5538" d="M68 31l8-12 35 24-8 11z"/><path fill="#adb5ac" d="M287 171l-7-11 6-5 8 12z"/><path fill="#1e1f18" d="M348 218l-12-4 18-58 12 3z"/><path fill="#566155" d="M37 13l-5 18-39-11 5-18z"/><path fill="#041011" d="M383 9l-16 1-1-17 15-2z"/><path fill="#aeaeac" d="M305 66v-2l29 6v2z"/><path fill="#372b25" d="M315 64v3l-25-4v-3z"/><path fill="#9e9e99" d="M280 31l-45-48 6-6 44 48z"/><path fill="#242b2b" d="M157 90l3-30 13 2-3 29z"/><path fill="#959c9b" d="M360-10l8 30-1 1-9-30z"/><path fill="#28281a" d="M128 57l1-1 19 17-1 1z"/><path fill="#1c221d" d="M331 7l-1-9 31-4 1 10z"/><path fill="#212f31" d="M229 194l-1-17 22-1 1 17z"/><path fill="#232a1e" d="M127 104l13-18 6 5-12 18z"/><path fill="#365053" d="M253 8l-50 22-16-36 50-22z"/><path fill="#262016" d="M285 74l-1 14-11-1 1-14z"/><path fill="#2e2d25" d="M123 26l3-1 9 25-3 1z"/><path fill="#232827" d="M27-7h39V9L27 8z"/><path fill="#202821" d="M73 74l5 4-18 27-5-3z"/><path fill="#595f56" d="M89 89L36 45l1-1 53 44z"/><path fill="#5e685f" d="M106 167l-1 12H90v-13z"/><path fill="#1f2723" d="M352 21l-1-2 52-32 1 1z"/><path fill="#534f43" d="M261 29l34-57 2 1-34 56z"/><path fill="#a8b2b0" d="M356 2l1 1-8 18h-2z"/><path fill="#242d24" d="M102 110l-33 23-7-10 33-24z"/><path fill="#b7bcb8" d="M345 96l-58-3 1-9 58 3z"/><path fill="#525049" d="M410 72l-21 46-10-4 21-46z"/><path fill="#fefff1" d="M334 120l-18 5-2-6 18-5z"/><path fill="#3a332b" d="M140 76L129-24h2l10 99z"/><path fill="#c3cbc6" d="M346 17l-1 1-9-9 2-1z"/><path fill="#363835" d="M119 121l-17 5v-2l16-4z"/><path fill="#2a3835" d="M234 142l15-16 6 6-14 16z"/><path fill="#62593e" d="M340 123l16-48 3 1-16 48z"/><path fill="#fffef7" d="M122 42l3 5-1 1-4-6z"/><path fill="#1a1a14" d="M128 92l-8-1 1-6 8 1z"/><path fill="#20251e" d="M61 158l48-2 1 9-49 3z"/><path fill="#a0a299" d="M126 128l-6-2 6-15 5 2z"/><path fill="#a9ada8" d="M77 51l2-1 1 4-1 1z"/><path fill="#191b19" d="M405 28l-25 77-12-3 25-78z"/><path fill="#bab9ac" d="M242 109l1-1 23 13-1 1z"/><path fill="#383932" d="M44 223l101-49v1L44 225z"/><path fill="#ada99b" d="M302 141l-5 4-25-32 5-4z"/><path fill="#7b807c" d="M74 67l7-5 9 13-8 5z"/><path fill="#c3c5c1" d="M92 88l16 25-2 1-15-26z"/><path fill="#3a352b" d="M292 171h12v16l-13-1z"/><path fill="#5b5e56" d="M100 134l-7 4-6-11 6-4z"/><path fill="#adb4b1" d="M358 17h-2l-3-7 2-1z"/><path fill="#857f6e" d="M270 81l-24-24 11-11 24 24z"/><path fill="#a3aaa5" d="M261 102l-2 2-18-20 2-2z"/><path fill="#ccd1cf" d="M57 152v8l-7-1 1-8z"/><path fill="#97a49f" d="M347 86l-46-8 1-6 46 8z"/><path fill="#959489" d="M302 221h-2l-38-68 2-1z"/><path fill="#777767" d="M134 84l19-23 12 10-19 23z"/><path fill="#a4a8a3" d="M102 132v-2l10-4v2z"/><path fill="#bbc5be" d="M268 215l-2 1-4-33h1z"/><path fill="#a4aaa5" d="M54 177l-8-1 2-11 7 1z"/><path fill="#eaede5" d="M348 15h1l2 12h-2z"/><path fill="#232c20" d="M68 47l45-31 2 4-45 31z"/><path fill="#a8b0a2" d="M69 12L66-8l14-2 2 20z"/><path fill="#646d69" d="M366 21l1-3 15 3v3z"/><path fill="#7a786d" d="M341 63l-26-27 17-16 26 27z"/><path fill="#252d22" d="M106 145l-4-11 38-11 3 10z"/><path fill="#596861" d="M285 120l-5-6 15-14 5 6z"/><path fill="#282f2b" d="M357 26l47-30 1 1-48 31z"/><path fill="#a1a298" d="M107 3l2-8 14 4-3 8z"/><path fill="#404a44" d="M339 13l1-5 13 3v5z"/><path fill="#34362c" d="M318-21l22 38-9 5-23-37z"/><path fill="#d6d0cc" d="M129 33l1-1 5 6-1 1z"/><path fill="#8d8f86" d="M293-9l-2 36-8-1 3-36z"/><path fill="#d1c3ac" d="M354 96l1-1 2 11h-1z"/><path fill="#e0e3d6" d="M141 34l4-5 3 2-4 4z"/><path fill="#6e5b3c" d="M345 167l-37 16-14-30 37-16z"/><path fill="#524a37" d="M371 138h-7l-9-96 8-1z"/><path fill="#807c6c" d="M273 130l31-6v1l-31 6z"/><path fill="#585a55" d="M396 149l-23 5-1-4 22-6z"/><path fill="#a6aca8" d="M246 17l17 2-1 13-17-3z"/><path fill="#141b16" d="M140 193l11-7 13 19-10 7z"/><path fill="#424939" d="M73 171l-29 37-9-8 28-37z"/><path fill="#786a56" d="M264 139l2-4 43 12-1 5z"/><path fill="#9f9c8f" d="M263 62l-2-9 37-8 2 10z"/><path fill="#626968" d="M34 162l4 21-5 1-4-22z"/><path fill="#1c1f1b" d="M424 135l-27 43-22-15 26-42z"/><path fill="#c4cbc9" d="M317 23l-3 3h-1l3-4z"/><path fill="#2d3332" d="M-24 168l67-5 1 14-67 5z"/><path fill="#e4e7e2" d="M97 86l-1-2 31-6v2z"/><path fill="#404743" d="M356 210l-1-20 44-2 1 21z"/><path fill="#333a30" d="M100 83L81 54l5-4 19 29z"/><path fill="#63685f" d="M39 115v-2l49-10v1z"/><path fill="#cdd0ca" d="M114 78h2l-4 30h-1z"/><path fill="#192018" d="M8 152l3 20-17 3-3-20z"/><path fill="#959792" d="M101 159h-2l-5-13 2-1z"/><path fill="#344545" d="M247 65l-6 2-15-53 6-1z"/><path fill="#3b413a" d="M101 64v-2l22 10-1 2z"/><path fill="#1a211f" d="M362 17l-8-22 2-1 7 22z"/><path fill="#999c92" d="M126 101l1 2-27 13v-1z"/><path fill="#121818" d="M30 182l2 4-45 21-2-4z"/><path fill="#5b625d" d="M14 179l-16 6-1-3 16-6z"/><path fill="#575448" d="M263 90l-13-2 5-23 12 2z"/><path fill="#4b5557" d="M183 91l-10 51-17-4 11-50z"/><path fill="#20291e" d="M25 61l27 31-16 14L9 75z"/><path fill="#5b584f" d="M320 28v-1l40 6v2z"/><path fill="#292d26" d="M163 9l-14 1-1-17 14-1z"/><path fill="#0e140e" d="M157 114l-3-12 6-2 3 12z"/><path fill="#747670" d="M120 124l-8-40h4l8 39z"/><path fill="#b6b3a2" d="M285 143l-5 10-1-1 5-10z"/><path fill="#898d86" d="M274 242l-29-104h1l30 103z"/><path fill="#322f25" d="M406 85v2l-89-24v-1z"/><path fill="#676c49" d="M152 102l-1 12-11-1 1-13z"/><path fill="#2f3734" d="M292 67v-2l55 11v1z"/><path fill="#47585a" d="M220 36l-52 32-11-18 51-32z"/><path fill="#424641" d="M19 138l29-42 7 5-30 42z"/><path fill="#7d857c" d="M84 150l-20-10 1-1 19 10z"/><path fill="#a8a497" d="M277 135l1 1-19 18-1-1z"/><path fill="#b6b1a5" d="M135 177l5-6 1 1-4 6z"/><path fill="#8f8e84" d="M144 39v14h-5V39z"/><path fill="#cccecc" d="M49 161h-8v-5h7z"/><path fill="#1f2520" d="M86 176l-4-2 12-45 4 1z"/><path fill="#62605b" d="M108 24l20-9 3 6-20 9z"/><path fill="#d4d4ce" d="M120 68l1-2 20 12-1 1z"/><path fill="#464338" d="M271 138l-26-6 2-6 25 6z"/><path fill="#879590" d="M348 77l-16 2v-5l15-1z"/><path fill="#7d7c6d" d="M235 127l35-7v2l-35 6z"/><path fill="#ccd1cc" d="M85 195l5-2 2 4-6 2z"/><path fill="#757b75" d="M391 152l3-9 1 1-3 8z"/><path fill="#323f2d" d="M126 170l1 5-61 19-1-5z"/><path fill="#64615a" d="M113 59l-16 6-5-13 16-6z"/><path fill="#7b7465" d="M293 47l-7-1 3-26 8 1z"/><path fill="#585849" d="M166 17l1 1-47 42-1-1z"/><path fill="#828172" d="M232 107l32-7 2 7-32 7z"/><path fill="#aca897" d="M270 83l2 14h-6l-2-14z"/><path fill="#c0c4b6" d="M249 185l1-1 6 8-2 1z"/><path fill="#635140" d="M302 48l13-18 13 8-13 18z"/><path fill="#889a99" d="M336 118l-23-3 3-22 23 3z"/><path fill="#464b45" d="M67 4l-4 13-12-3 4-14z"/><path fill="#8a8476" d="M291 177l17 28-10 7-17-28z"/><path fill="#788079" d="M79 188l22 1v6l-22-1z"/><path fill="#434838" d="M250 178l12 13-1 1-12-13z"/><path fill="#2a2715" d="M279 96h3v13h-3z"/><path fill="#181c1c" d="M111 193h-11v-12h11z"/><path fill="#3b3429" d="M271 92l-1-1 11-4v2z"/><path fill="#c7cec7" d="M86 71l6 2-1 1-6-1z"/><path fill="#4a4637" d="M141 200l-16-70h1l16 70z"/><path fill="#939995" d="M354 16l-1-1 22-30 2 1z"/><path fill="#e2e8df" d="M121 65l-5 4-1-1 5-4z"/><path fill="#e8ece7" d="M102 80l5 4-4 6-5-3z"/><path fill="#7e938b" d="M289 72l6 15-4 2-7-15z"/><path fill="#82837c" d="M98 121l-8 11-2-1 8-12z"/><path fill="#72736c" d="M128 201l-18-15 1-1 18 15z"/><path fill="#555e56" d="M-7 39l38 22-1 2-37-23z"/><path fill="#3b4833" d="M84 61l-16 9-4-7 17-9z"/><path fill="#211d0f" d="M311 207l-3-15 4-1 4 15z"/><path fill="#b9bcb8" d="M95 85l-9 13-4-3 9-13z"/><path fill="#909387" d="M325 54l-1-4 18-6 1 5z"/><path fill="#e1e3df" d="M124 119l1-1 3 5-1 1z"/><path fill="#7d8488" d="M254 202l-23-4 1-1 23 3z"/><path fill="#74756b" d="M137-15l5-1 4 42-5 1z"/><path fill="#6f7369" d="M392 122l-7-10 21-14 7 10z"/><path fill="#4d5244" d="M230 110l20 8-3 8-20-8z"/><path fill="#bbbfb9" d="M124 36l1-1 2 2v1z"/><path fill="#a4a5a1" d="M139 69l-16 15-1-1 15-16z"/><path fill="#4e4f42" d="M335 3l-26 15-11-19 26-15z"/><path fill="#9da197" d="M297 163l-5 4-6-7 5-4z"/><path fill="#3e3124" d="M140 50v-2l15 4v1z"/><path fill="#415051" d="M141 166l32-25 22 29-32 24z"/><path fill="#776746" d="M364 133l-54 3-1-8 55-3z"/><path fill="#181a17" d="M103 126v-3h8v3z"/><path fill="#4c4c45" d="M374 171l-5 13-7-3 5-13z"/><path fill="#242820" d="M297 10l11 2-4 29-11-1z"/><path fill="#fff" d="M366 7l-5 1V7l4-1z"/><path fill="#9a9c92" d="M163 11v1l-24 17-1-2z"/><path fill="#121312" d="M104 31v-2l19 7-1 2z"/><path fill="#aaa99e" d="M285 8l1 1-19 32-1-1z"/><path fill="#c3c4bf" d="M121 91l-9-4v-1l9 3z"/><path fill="#151911" d="M366 34l-10-16 1-1 10 16z"/><path fill="#eff5e8" d="M319 114l12 6-1 2-13-6z"/><path fill="#656c65" d="M297 178l-77-21v-2l77 21z"/><path fill="#2c2b23" d="M139 10h1l-12 23-1-1z"/><path fill="#8e9289" d="M75 19l3-25 14 1-3 25z"/><path fill="#aeb5a8" d="M33 179l3 1-1 3-3-2z"/><path fill="#6f7a7b" d="M236 18l21-18 5 6-21 18z"/><path fill="#53544e" d="M97 99h2l-1 19h-1z"/><path fill="#4f5f62" d="M197 143l25-9 14 44-25 8z"/><path fill="#afaca0" d="M252 123l26 11-1 1-26-11z"/><path fill="#b6beba" d="M363 14l6-3 1 1-6 3z"/><path fill="#7a6648" d="M289 213l37-68 6 3-38 68z"/><path fill="#b9bbb7" d="M103 120l-3 15h-2l4-16z"/><path fill="#5b5f57" d="M40 125l1-1 39 8v2z"/><path fill="#5d6259" d="M63 158l1-1 9 21-1 1z"/><path fill="#575c50" d="M16 51l32-3 1 3-33 3z"/><path fill="#666055" d="M135 146l-14-7 2-5 14 6z"/><path fill="#51544b" d="M106-9v19H95V-9z"/><path fill="#4a473d" d="M279 129l7 3-1 3-7-3z"/><path fill="#a4ada4" d="M336 46l6-10 1 1-5 9z"/><path fill="#4b514d" d="M105 188l-40 5v-1l40-6z"/><path fill="#212319" d="M301 61l2 4-12 7-2-4z"/><path fill="#3c3a32" d="M349 34l-4-15 1-1 5 15z"/><path fill="#73766e" d="M84 102l7-10 2 1-8 10z"/><path fill="#505d5d" d="M256 142l-40 11-2-6 41-11z"/><path fill="#1f2a29" d="M251 167l4 15-14 3-4-15z"/><path fill="#0c1215" d="M16 79l-1 12-30-3 2-12z"/><path fill="#1f221a" d="M370 134l28 20-1 1-28-20z"/><path fill="#1e271f" d="M237 97l2 6-6 2-2-6z"/><path fill="#404742" d="M398 11l-7 2-3-10 7-2z"/><path fill="#575b51" d="M110 109l1-1 12 6-1 2z"/><path fill="#1e2420" d="M363 4l-8 5-1-2 8-5z"/><path fill="#1d2320" d="M-21 143l-2-4 45-33 3 4z"/><path fill="#4a4e43" d="M279 154l3 1-6 18-3-1z"/><path fill="#535b50" d="M67 89l-21-3 1-8 21 3z"/><path fill="#232a25" d="M42 66l26-55 7 3-26 55z"/><path fill="#1b221f" d="M159 144l1 6-11 2-1-6z"/><path fill="#3f311f" d="M279 41l1 2-14 2v-2z"/><path fill="#646b55" d="M126 54l4 6-11 6-3-5z"/><path fill="#222e23" d="M44 143l18-8 2 5-19 7z"/><path fill="#f3f0e4" d="M305 117l19-1 1 9-19 2z"/><path fill="#546063" d="M198 153l-2-79 36-1 1 80z"/><path fill="#444f55" d="M247 74l10 2-2 14-11-2z"/><path fill="#3e3b31" d="M277 185l-3 2-6-14 3-2z"/><path fill="#a2a095" d="M283 7l-10 18-4-2 10-18z"/><path fill="#36372f" d="M333 24l-6-26 4-1 7 26z"/><path fill="#697349" d="M76 34l-4-6 7-4 3 5z"/><path fill="#929a93" d="M97 146l-1-1 9-5v1z"/><path fill="#66675c" d="M238 98l26 7-1 2-25-7z"/><path fill="#a7a191" d="M259 135l2 6-6 1-2-6z"/><path fill="#1d261f" d="M16 66l1-7 50 8-1 7z"/><path fill="#d0d6d0" d="M131 177l-2 4h-2l2-5z"/><path fill="#4b483a" d="M352 121l4-17 19 5-5 16z"/><path fill="#babebb" d="M92 82l-1 5-9-2 1-5z"/><path fill="#848274" d="M142 158l4-8 7 3-3 8z"/><path fill="#5a6463" d="M253 37l8 5-13 17-7-6z"/><path fill="#e9decd" d="M357 105l-4-1 1-5 4 2z"/><path fill="#1b1613" d="M271 129l-4-2 1-1 4 2z"/><path fill="#4a4236" d="M304 32l3-1 9 42h-3z"/><path fill="#505a50" d="M73 142l1 6-36 5-1-6z"/><path fill="#35352c" d="M137 175l1 1-11 16-1-1z"/><path fill="#686e62" d="M10 110l16-10v1l-16 10z"/><path fill="#282f22" d="M145 101l-1 1-28-4 1-2z"/><path fill="#999d91" d="M277 187l15-3 2 9-15 3z"/><path fill="#594e38" d="M366 98l-9 4-9-24 9-3z"/><path fill="#fdfff7" d="M351 26l1-2 4 2v1z"/><path fill="#262d27" d="M246 34v2l-12 3v-1z"/><path fill="#6c716a" d="M96 194l11 6-2 4-11-6z"/><path fill="#353732" d="M244 104l6 5-1 1-7-5z"/><path fill="#76847f" d="M16 7L35-7l1 2L17 8z"/><path fill="#474b46" d="M18 164l13-6 6 14-13 6z"/><path fill="#4d4e3e" d="M263 126l-5-4 3-3 4 5z"/><path fill="#2e3c23" d="M105 179l-2-14 25-2 2 14z"/><path fill="#3f4c32" d="M81 39l-4-16 15-4 5 16z"/><path fill="#cdd0ca" d="M113 72l1-1 6 6-2 1z"/><path fill="#93866e" d="M299 146l1-19 9 1-1 18z"/><path fill="#1c231c" d="M352 13l14 19-1 1-14-19z"/><path fill="#3a3f39" d="M97 54l2 1-13 18-2-1z"/><path fill="#28261a" d="M384 204l-1 5-66-14 1-5z"/><path fill="#13191c" d="M69 209l-7-6 11-13 7 6z"/><path fill="#737e71" d="M298 93l-23 5v-2l23-4z"/><path fill="#808076" d="M140 76l5 4-8 11-5-4z"/><path fill="#dee1d2" d="M345 78l4 4-2 1-3-4z"/><path fill="#20261f" d="M69 110l-11 19-4-3 11-19z"/><path fill="#342b1c" d="M266 117h-1l5-14 1 1z"/><path fill="#646e64" d="M84 167l-4 7-3-2 4-7z"/><path fill="#545c59" d="M186 103l-37-9 1-4 37 8z"/><path fill="#696c61" d="M156 34l3 46h-1l-3-46z"/><path fill="#3d5356" d="M175 37l-7-34 61-13 7 34z"/><path fill="#22261f" d="M326-3l4-5 18 13-4 5z"/><path fill="#a5a497" d="M265 123v-1l38 10-1 1z"/><path fill="#d0cdc5" d="M134 54l-2-2 1-1 2 2z"/><path fill="#3a3929" d="M146 73l-6 2-6-19 5-2z"/><path fill="#d7dbd7" d="M367 16l-3 2-1-1 2-2z"/><path fill="#202a21" d="M44 184h-8v-16h8z"/><path fill="#494b47" d="M106 90l1-3 4 3-1 2z"/><path fill="#b0aea0" d="M281 70l-9-25 2-1 8 25z"/><path fill="#493d2a" d="M307 161l-11-2 1-6 11 2z"/><path fill="#edeee6" d="M330 116l-1 10-36-3 1-10z"/><path fill="#a2a596" d="M248 98l1-4 26 4v3z"/><path fill="#3a3223" d="M346 59h3l6 27-3 1z"/><path fill="#84887f" d="M131 25h-2l-2-11h2z"/><path fill="#202420" d="M22 138l3-25 5 1-3 25z"/><path fill="#3d392c" d="M126 23l35 29-1 1-35-29z"/><path fill="#b8bbb6" d="M119 95l1 1-9 8-1-1z"/><path fill="#1f231e" d="M372 179l10-1 3 42-9 1z"/><path fill="#4f514f" d="M90 81l-13-2v-2l14 2z"/><path fill="#7f8079" d="M372 146l11 5v1l-12-4z"/><path fill="#1c241e" d="M80 149l-1 29h-4l1-30z"/><path fill="#c6cdbc" d="M129 175l1-8h2l-1 8z"/><path fill="#bebaae" d="M288 138l1-5 12 3-1 4z"/><path fill="#322d17" d="M155 115l-2 19-6-1 2-18z"/><path fill="#4c4e46" d="M297 4v2l-24-2 1-2z"/><path fill="#222722" d="M115 129h5l1 25h-5z"/><path fill="#91877a" d="M147 125h-4v-4l3-1z"/><path fill="#7c837e" d="M13 152l3-5 13 9-3 5z"/><path fill="#363d35" d="M58 102l20-9 3 7-20 9z"/><path fill="#697568" d="M22 23l-1 3-32-10 1-3z"/><path fill="#2b2a20" d="M369 90l3-60 8 1-3 59z"/><path fill="#c0c9c3" d="M354 25l-10-10 1-1 10 10z"/><path fill="#151914" d="M355 11h-2V6h2z"/><path fill="#413c34" d="M342 30l-2-3 8-5 1 2z"/><path fill="#262924" d="M109 102v1h-7v-1z"/><path fill="#161914" d="M137 12v2l-13-3 1-1z"/><path fill="#2b312a" d="M67 134l7 8-1 1-8-8z"/><path fill="#767a73" d="M106 150l15 5-1 3-15-5z"/><path fill="#656b63" d="M371 206l-5-16 2-1 5 17z"/><path fill="#192014" d="M7 113H6l-2-12h1z"/><path fill="#747b74" d="M72 136l6-6 5 4-7 7z"/><path fill="#222620" d="M328 9l4 5-15 13-4-5z"/><path fill="#9b998a" d="M268 187l6-2v1l-5 3z"/><path fill="#5b5b4f" d="M286 222l-9-68h1l10 68z"/><path fill="#354a4a" d="M233 176l6-35h5l-7 36z"/><path fill="#d2d9d1" d="M92 72l-2 2-3-4 3-2z"/><path fill="#5d635c" d="M63 46l8 5-1 1-8-4z"/><path fill="#252821" d="M22 23h3l4 31h-2z"/><path fill="#dae0cc" d="M129 111l-2 3-1-1 1-3z"/><path fill="#1a211f" d="M8 134l1-1 13 13-1 1z"/><path fill="#a8aca0" d="M112 119l-5-1 2-7 4 1z"/><path fill="#acaaa0" d="M280 125l2 1-14 23-1-1z"/><path fill="#63604e" d="M260 170l5-14h2l-6 15z"/><path fill="#96a09b" d="M348-2l1 1-2 4-1-1z"/><path fill="#646e6b" d="M97 186l-6-14 1-1 6 15z"/><path fill="#2c2b25" d="M140 96l-1 1-21-13 1-2z"/><path fill="#494e48" d="M83 92l-1-1 6-7 1 1z"/><path fill="#808076" d="M241 85l7 1-3 18-6-1z"/><path fill="#2a322c" d="M159 89l-7-5 10-12 6 5z"/><path fill="#3d3225" d="M259 173l11-1 1 9-11 2z"/><path fill="#e5e2de" d="M309 66l-1 2-3-1 1-2z"/><path fill="#34382e" d="M111 160l-4 12-13-6 4-11z"/><path fill="#706a5a" d="M294 132l9-2 1 5-9 2z"/><path fill="#5f6961" d="M35 158l-4-19 8-1 3 18z"/><path fill="#373426" d="M351 145l72-41 3 6-72 40z"/><path fill="#5d6354" d="M72 105l17-2v6l-17 2z"/><path fill="#364525" d="M125 103l7-6 17 20-7 6z"/><path fill="#787b76" d="M122-19v49h-1l-1-49z"/><path fill="#675d51" d="M290 37l-11-2 1-4 11 1z"/><path fill="#e1e8e2" d="M357 29l-4-8 1-1 4 8z"/><path fill="#3b3325" d="M300 188l-6-2 7-19 6 2z"/><path fill="#9b9b8e" d="M253 31l40 10-1 1-39-9z"/><path fill="#2f332d" d="M72 164H48v-1h24z"/><path fill="#7b6b4b" d="M315 153l23 3-1 11-23-3z"/><path fill="#9ea8a3" d="M349 9l6-5 1 1-6 5z"/><path fill="#20150e" d="M278 2l-1 1-3-3 1-1z"/><path fill="#908f82" d="M261 72h-2V-2h2z"/><path fill="#26393c" d="M244 201l-13-12 5-4 12 12z"/><path fill="#fffff7" d="M332 122l-7 4-3-6 7-3z"/><path fill="#616960" d="M59 114l-11-13 4-4 11 13z"/><path fill="#536259" d="M285 66l2 47h-1l-3-46z"/><path fill="#dddbd2" d="M324 71l-7-3 1-3 7 3z"/><path fill="#21281a" d="M120 167h2l7 24h-2z"/><path fill="#b1b5ad" d="M122 76l6 8-2 1-5-8z"/><path fill="#757c77" d="M42 138l-3-5 2-1 2 6z"/><path fill="#d5d4ca" d="M338 25h-5v-1l4-1z"/><path fill="#797771" d="M149 18l-17 20-1-1 17-20z"/><path fill="#232a1e" d="M62 151l17 19-2 2-17-18z"/><path fill="#565447" d="M126 77l23 16-1 1-23-16z"/><path fill="#0d1715" d="M374 11l1 1-7 10-1-1z"/><path fill="#4a5249" d="M61 64L42 45l1-1 19 19z"/><path fill="#9ea69a" d="M64 142l6 1-1 1-6-1z"/><path fill="#414735" d="M109 153h3l-1 27h-3z"/><path fill="#2a2c26" d="M112 21l-9 25-7-3 9-25z"/><path fill="#7a776e" d="M294 60l-1 1-22-7v-1z"/><path fill="#4f4f43" d="M130 54l-28 9-2-6 28-9z"/><path fill="#938a81" d="M364 37l-14-2v-1l14 1z"/><path fill="#121d19" d="M318 71l-9 2v-1l9-3z"/><path fill="#878579" d="M322 41l-2-1 4-16h1z"/><path fill="#1a1f17" d="M368 137l6 2-9 25-6-2z"/><path fill="#91958b" d="M131 91l4-9 1 1-3 8z"/><path fill="#91988d" d="M71 151l8-8 1 2-8 7z"/><path fill="#1d231c" d="M298 22l11-6 7 14-11 6z"/><path fill="#473c30" d="M305 35l5 2-10 30-6-2z"/><path fill="#8e8778" d="M136 182l1-2 4 2-1 2z"/><path fill="#828986" d="M372 23v-2l5 2-1 1z"/><path fill="#2e2e27" d="M115 95l-1-6 3-1 1 6z"/><path fill="#a7a99f" d="M327 21l1-1 3 4-2 1z"/><path fill="#1f241e" d="M384-18l2 1-9 49-2-1z"/><path fill="#434136" d="M262 30l8-7 1 1-8 8z"/><path fill="#504d38" d="M250 192l1-1 7 6-1 1z"/><path fill="#635b51" d="M336 70l-25-9 1-4 26 9z"/><path fill="#bcbfb7" d="M118 108l-19-1v-1l19 1z"/><path fill="#939995" d="M237 18l1-3 24 16-2 2z"/><path fill="#52594b" d="M3 117h-4l2-26h5z"/><path fill="#dbdace" d="M137 72l-2 11h-1l1-11z"/><path fill="#53524a" d="M279 131v8h-3v-8z"/><path fill="#443d2c" d="M147 159l2 1-13 45-2-1z"/><path fill="#4a5249" d="M23 159l-3 5-29-15 3-5z"/><path fill="#9f9e8f" d="M253 129h-2l10-32 2 1z"/><path fill="#b5aeab" d="M142 53h-2l-2-4 2-1z"/><path fill="#6d7260" d="M143 165v1l-29-7 1-2z"/><path fill="#7c8174" d="M296 6l-15 7-1-2 16-7z"/><path fill="#2f3023" d="M308 38L289 8l1-1 20 30z"/><path fill="#b8bcb8" d="M389 145l5 1v1h-5z"/><path fill="#aeaca0" d="M273 62l-1-1 16-21 1 1z"/><path fill="#554b39" d="M270 104l6 2-4 16-6-1z"/><path fill="#9b9b92" d="M235 106l20 4-1 5-20-5z"/><path fill="#a5aba1" d="M108 75l-9-10h1l9 9z"/><path fill="#3e392c" d="M303 49l-1-1 25-30 1 1z"/><path fill="#444a46" d="M265 93l-27-24 2-1 26 24z"/><path fill="#827e6c" d="M256 89l4-18 2 1-5 18z"/><path fill="#787769" d="M146 55l16 17-6 6-16-17z"/><path fill="#53482a" d="M357 147l4 5-60 59-5-5z"/><path fill="#504934" d="M354 31l2-1 10 31-1 1z"/><path fill="#717570" d="M146 173v-5l10 1-1 5z"/><path fill="#162b2b" d="M170 16h2l-3 20h-2z"/><path fill="#52554f" d="M115 127l-14-10 1-2 14 10z"/><path fill="#8f8f80" d="M271 182h-1l1-28h2z"/><path fill="#353e37" d="M-5 32l18-9 6 12-18 9z"/><path fill="#82928e" d="M290 114l47-3v2l-47 2z"/><path fill="#5e625a" d="M383 200l-1-2 11-9 1 2z"/><path fill="#73695c" d="M309 44l16 3-2 7-15-2z"/><path fill="#252b27" d="M38-16L57-5 45 18 25 7z"/><path fill="#373730" d="M139 56l-2 1-15-36 2-1z"/><path fill="#a3a59d" d="M121 108l-1-1 4-7 2 1z"/><path fill="#787a71" d="M112 66L95 52l1-1 17 14z"/><path fill="#49362a" d="M151 32h2l-3 28h-1z"/><path fill="#6f664c" d="M345 121l-1 1-12-7 1-2z"/><path fill="#b2b3a7" d="M265 150l2 1-12 13-1-1z"/><path fill="#4d554f" d="M39 24L29 10l2-1 10 14z"/><path fill="#455759" d="M205-3l37 27-33 44-36-28z"/><path fill="#3b312a" d="M139 153l-5-21 6-2 5 21z"/><path fill="#3a413b" d="M341 33h-1l14-37 1 1z"/><path fill="#393f36" d="M12 91l12-12 7 7-13 12z"/><path fill="#393a31" d="M398 184l-52-12 1-4 52 12z"/><path fill="#979b91" d="M105 114l3-3 10 8-3 3z"/><path fill="#efebe3" d="M353 30h-5v-2h5z"/><path fill="#838581" d="M123 127l-14-10 1-2 14 10z"/><path fill="#b8a78b" d="M289 136h2v14h-2z"/><path fill="#1f2b23" d="M352 22l-1-4h5v3z"/><path fill="#7e7d75" d="M336 34l3-7 8 3-3 8z"/><path fill="#6f786f" d="M32 135h1l3 31h-2z"/><path fill="#34392c" d="M124 111l-4 3-1-2 4-2z"/><path fill="#535c5f" d="M233 60l11 31-63 23-11-31z"/><path fill="#584629" d="M306 173l-2-8 11-2 1 8z"/><path fill="#6b5f4d" d="M292 60l1 1-33 28-1-1z"/><path fill="#80857d" d="M112 5l30-9v1l-29 9z"/><path fill="#514d44" d="M326 20l4 14-4 1-4-14z"/><path fill="#414742" d="M1 190l3-15 12 2-3 15z"/><path fill="#5f6761" d="M84 144l-3 14-1-1 3-13z"/><path fill="#867751" d="M335 116l12 3-3 13-12-2z"/><path fill="#414745" d="M73 188l10 9-1 1-10-9z"/><path fill="#e6efea" d="M343 20h-1v-5l2 1z"/><path fill="#969285" d="M277 177l-16-39 2-1 15 39z"/><path fill="#5d6057" d="M114 126l17-14 1 1-17 14z"/><path fill="#1e231e" d="M45 121l1-3 32 6v3z"/><path fill="#2b332f" d="M35 24l10-2 6 24-10 3z"/><path fill="#d4d6d1" d="M107 96L91 79l1-1 16 17z"/><path fill="#3a3934" d="M406 101l-6 2-8-27 6-2z"/><path fill="#282d20" d="M110 134v-1l41-9v1z"/><path fill="#a7aaa5" d="M105 131l3-2 1 1-3 2z"/><path fill="#3b3932" d="M304 171l-27 8-1-2 27-7z"/><path fill="#44575a" d="M167 179l22-27 45 36-21 27z"/><path fill="#bdc5bf" d="M58 151l1 1-3 2-1-1z"/><path fill="#bdc4bc" d="M86 190l6 5-1 1-6-5z"/><path fill="#4c483e" d="M143 185l2 2-24 27-2-2z"/><path fill="#131b14" d="M104 146v-2l6 2v2z"/><path fill="#6f7170" d="M107 97l-2 5-1-1 2-4z"/><path fill="#8c8e8a" d="M75 74v-1l8 1v2z"/><path fill="#899a97" d="M302 99l2-6 39 16-2 6z"/><path fill="#1b2422" d="M26 182l11-13 1 1-11 13z"/><path fill="#c0c4bd" d="M335 8h3v2l-3-1z"/><path fill="#394031" d="M99 80L88 31h2l11 49z"/><path fill="#969d97" d="M245 43l-1-1 16-15 1 1z"/><path fill="#9a9a8d" d="M246 197l1-2 21 7-1 1z"/><path fill="#1e241d" d="M378 156l1 7-31 5-1-8z"/><path fill="#8f968d" d="M19 154v-1l13-5 1 1z"/><path fill="#665d4b" d="M366 58l-36 5-1-7 36-5z"/><path fill="#3c372a" d="M272 194l-6-1 1-4h6z"/><path fill="#2c2c24" d="M351 77l-11-4 5-11 10 3z"/><path fill="#262a22" d="M323 22l24-31 1 1-24 31z"/><path fill="#737c73" d="M7 147l38-1v2l-38 1z"/><path fill="#5b4f37" d="M253 168l1-1 10 7-1 1z"/><path fill="#0f1f24" d="M162-1l8 4-2 3-8-5z"/><path fill="#242d28" d="M132 179v-2l22-1v2z"/><path fill="#07100d" d="M351 2v-3h9v3z"/><path fill="#6d7573" d="M246 52l12 3-3 11-12-4z"/><path fill="#c4c7c3" d="M106 78l1 1-24 17-1-1z"/><path fill="#434a3d" d="M74 138l2 2-17 30-3-2z"/><path fill="#a6a9a1" d="M124 114l1 1-10 7-1-1z"/><path fill="#495041" d="M115 67l1 1-7 7-1-1z"/><path fill="#78756c" d="M300 157l3 3-17 16-3-3z"/><path fill="#707367" d="M150 29l14-13 3 3-13 14z"/><path fill="#3d3f39" d="M122 147l-2-23 3-1 2 24z"/><path fill="#242a22" d="M73 88l-38 14v-1l38-14z"/><path fill="#363c2d" d="M15 105l-24-7 2-4 24 7z"/><path fill="#5b5445" d="M275 199l17-1v1l-17 2z"/><path fill="#5f625b" d="M119 71l1-1 6 4-1 2z"/><path fill="#060907" d="M377 142l5 4-1 1-5-4z"/><path fill="#5f6158" d="M152 139l-3-6 4-2 3 6z"/><path fill="#c5c7c4" d="M117 127v-1l8-5 1 2z"/><path fill="#fff" d="M345 77l1-1 1 5h-1z"/><path fill="#242924" d="M82 164l5-31 11 2-5 31z"/><path fill="#b0ac9e" d="M293 134v2l-22 3v-1z"/><path fill="#c0b19d" d="M320 126l-17 1v-2h17z"/><path fill="#3c4539" d="M86 165h2l2 25h-1z"/><path fill="#5c5a55" d="M298 183v5l-7-1 1-4z"/><path fill="#909790" d="M96 149l-2-5h2l2 4z"/><path fill="#181d1a" d="M404 15l4 51-23 2-4-52z"/><path fill="#ced2cc" d="M341 22V8h1v14z"/><path fill="#a7a89f" d="M268 15l-9-4 3-8 9 3z"/><path fill="#535a52" d="M82 125l-14 15-1-1 14-15z"/><path fill="#263231" d="M240 128l9 3-3 8-9-3z"/><path fill="#a0a6a0" d="M245 97l2-6 10 5-3 5z"/><path fill="#5b544a" d="M334 44v1l-13 3-1-1z"/><path fill="#373d36" d="M341 13v-2h4v2z"/><path fill="#596159" d="M262 34l-11 16-2-1 11-16z"/><path fill="#7d827d" d="M255 186l-10 8-1-1 10-8z"/><path fill="#454a30" d="M143 127h-12v-18h12z"/><path fill="#534b36" d="M347 88l9-25 11 4-9 25z"/><path fill="#a3a298" d="M250 185l21 14-1 2-20-15z"/><path fill="#a3a292" d="M147 14l6 14h-1l-7-14z"/><path fill="#30382c" d="M137 157l-59 64-1-1 59-64z"/><path fill="#7c8078" d="M131 77v2l-11-2 1-1z"/><path fill="#636762" d="M84 81v6H74v-7z"/><path fill="#232a23" d="M49 146h-1l-5-18h1z"/><path fill="#434a41" d="M-5 61l1-16 30 2-1 16z"/><path fill="#777c77" d="M323 86l-5 3-1-1 5-4z"/><path fill="#58534d" d="M271 141l-5 1-1-6 5-1z"/><path fill="#2c3426" d="M79 64l-18 9-1-1 18-9z"/><path fill="#23251b" d="M380 21l2 2-20 20-2-2z"/><path fill="#d2cdc2" d="M141 54l1-2 3 1-2 3z"/><path fill="#6c6c64" d="M107 208l27-22 1 2-27 21z"/><path fill="#454d46" d="M10 7l2-2 30 33-3 2z"/><path fill="#1c1e13" d="M236 122v-1l8-1v2z"/><path fill="#1e2521" d="M63 68l-1 8-101-2v-8z"/><path fill="#434740" d="M118 73l2-4 1 1-2 4z"/><path fill="#2c2b26" d="M125 45v-7l4-1 1 8z"/><path fill="#211d18" d="M273 128h-3l-1-1 3-1z"/><path fill="#645a51" d="M383 102l7 15-3 1-7-14z"/><path fill="#82867a" d="M349 42l-13 18-2-1 13-18z"/><path fill="#4e5953" d="M320 73h-13v-1h13z"/><path fill="#c8c7ba" d="M134 66l2 1-3 3-1-1z"/><path fill="#4a4b44" d="M392 133l-10 14-1-1 10-14z"/><path fill="#586567" d="M238 10l17 3-1 3-17-3z"/><path fill="#473f30" d="M267 44l7-6 1 1-7 6z"/><path fill="#6e5d3c" d="M348 150l-56 6-1-7 56-7z"/><path fill="#646451" d="M260 97v-5h4l-1 5z"/><path fill="#e6e8e2" d="M142 27l1-1 4 5-1 1z"/><path fill="#4f544f" d="M50 163v-1l17 8v1z"/><path fill="#737669" d="M154 53l7 1-4 23-7-1z"/><path fill="#b7b3ac" d="M129 50l3-2 3 4-3 2z"/><path fill="#54493d" d="M309 41l3-9 12 4-3 9z"/><path fill="#beb9a5" d="M257 179l-1-1 1-2h2z"/><path fill="#161e1a" d="M9 144H2l1-14h6z"/><path fill="#b7c0bd" d="M370 12l1-4h1l-1 5z"/><path fill="#c0c3bf" d="M94 93l20-8v1l-20 9z"/><path fill="#626a62" d="M101 167l1 2-23 15-1-1z"/><path fill="#979d92" d="M279 195l-2-2 15-14 1 1z"/><path fill="#858673" d="M143 88v-9h6v10z"/><path fill="#9b9f92" d="M129 111h2l-2 11h-2z"/><path fill="#161812" d="M120 99l1-1 1 5h-1z"/><path fill="#343224" d="M136 35l1-1 13 4-1 2z"/><path fill="#545b52" d="M54 77l8 4-5 13-9-4z"/><path fill="#718681" d="M301 104l15 8-3 4-15-8z"/><path fill="#64675d" d="M317 5l-5 9-2-2 4-8z"/><path fill="#b5bdba" d="M339 18l-1 1-3-1 1-1z"/><path fill="#595d55" d="M100 115l1 1-15 11-1-1z"/><path fill="#bcc2b5" d="M132 176l-4-2 1-1 4 2z"/><path fill="#4a5047" d="M38 115l23-2v2l-23 2z"/><path fill="#53594d" d="M12 90l22 13-3 5L9 96z"/><path fill="#7b7f70" d="M129 153l1 1-11 4v-1z"/><path fill="#656045" d="M267 50l-1 1-6-2 1-2z"/><path fill="#262c1f" d="M110 175l-2 1-6-25h1z"/><path fill="#999f9b" d="M126 185l5-4 1 1-5 4z"/><path fill="#34392f" d="M132 84l5 23-8 1-5-23z"/><path fill="#2c2c26" d="M139 169l-3 6-4-2 3-6z"/><path fill="#455052" d="M153 123l15-18 31 27-16 18z"/><path fill="#676e62" d="M68 101h1l2 9h-1z"/><path fill="#acb1ad" d="M42 151l6 8-1 1-6-8z"/><path fill="#4e5b47" d="M71 67h-5l-1-7 5-1z"/><path fill="#a5a294" d="M261 48l4 5-5 4-4-5z"/><path fill="#928679" d="M306 212l-12-25 1-1 13 26z"/><path fill="#414541" d="M49 15v-2l26-1v1z"/><path fill="#6e6e65" d="M352 22l2 1-11 19-2-1z"/><path fill="#888275" d="M289 34l-35 10v-1l34-10z"/><path fill="#707269" d="M94 202v-2l20-3v1z"/><path fill="#7c8076" d="M87 104v1l-13-1v-2z"/><path fill="#434b46" d="M380 17l-1-2 5-5 1 1z"/><path fill="#cbcfc9" d="M96 78l20 26-1 1-20-26z"/><path fill="#867c6a" d="M256 146l1-1 29 10v2z"/><path fill="#5a5851" d="M163 5l1 1-13 7-1-2z"/><path fill="#7a7c6e" d="M112 52l-1 2-15-4 1-2z"/><path fill="#66604d" d="M280 128h-1l-17-26 1-1z"/><path fill="#151b1a" d="M75 38l16 19-2 1-16-19z"/><path fill="#23261e" d="M427 173l-1 1-54-39v-1z"/><path fill="#a3a6a4" d="M99 189v2h-6v-2z"/><path fill="#2d3524" d="M15 201l65-17v1l-65 17z"/><path fill="#8f8c7c" d="M269 51l8 15-13 7-8-16z"/><path fill="#282d26" d="M0 113l51-7 1 2-52 6z"/><path fill="#60625b" d="M373 175l1 2-8 6-1-2z"/><path fill="#434142" d="M276 138l2-1 3 5-1 1z"/><path fill="#1b231f" d="M54 80l-1 1-36-9v-1z"/><path fill="#deeae6" d="M349 19h-2v-5h1z"/><path fill="#403d23" d="M153 120l-5-28 4-1 5 28z"/><path fill="#bdbdba" d="M297 116l-7 5-1-1 7-5z"/><path fill="#525a55" d="M156 57h2l3 25h-1z"/><path fill="#293227" d="M23 66L-2 78l-4-8 26-12z"/><path fill="#767e76" d="M64-2l3 4-2 1-2-4z"/><path fill="#c0c5bc" d="M89 196l3-4 1 1-2 4z"/><path fill="#e5ede9" d="M365 2l-1 1-2-3 1-1z"/><path fill="#716c56" d="M301 127l-6 2-1-5 6-1z"/><path fill="#ceccc2" d="M139 176l-1 1-1-5h2z"/><path fill="#c0beb3" d="M293 135l-1 1-12-10 1-1z"/><path fill="#989488" d="M252 137l13-2v1l-12 3z"/><path fill="#52554d" d="M169 52l-24-26 1-1 24 26z"/><path fill="#746d68" d="M139 22l-6 5-1-1 6-5z"/><path fill="#676659" d="M137 43l7-6 2 3-8 5z"/><path fill="#7a7e78" d="M158 165l-12-5 1-1 11 4z"/><path fill="#6f7b84" d="M248 152l7 6-4 4-7-6z"/><path fill="#454c2e" d="M26 199l1-4 33 4-1 5z"/><path fill="#565640" d="M154 87h-1l-6-16h2z"/><path fill="#31322c" d="M119 37h-1l-1-28h1z"/><path fill="#59584a" d="M145 73l2 11-3 1-2-11z"/><path fill="#56615e" d="M227 51l-1-1 27-18 1 1z"/><path fill="#585549" d="M296 31h-3V17h3z"/><path fill="#544b37" d="M261 143l5 1-1 2-4-1z"/><path fill="#2b2817" d="M150 167h-2l-2-4 1-1z"/><path fill="#8d897e" d="M270 161l-16 6-1-1 16-7z"/><path fill="#b4b2a6" d="M288 170l-6-12 3-2 6 13z"/><path fill="#8c7c57" d="M329 141l-7 3-3-6 8-3z"/><path fill="#7a6e47" d="M341 156l4 4-6 7-5-4z"/><path fill="#4d5145" d="M133 79v6h-5v-6z"/><path fill="#adada0" d="M285 55l3-8 7 2-3 9z"/><path fill="#4b4c44" d="M126 33l-2 1-29-46 1-1z"/><path fill="#3e3e32" d="M338 0l-2 9-35-8 2-9z"/><path fill="#b5b2ad" d="M307 115l-16-1v-2l16 1z"/><path fill="#969b96" d="M365 6h2l1 5h-2z"/><path fill="#74654e" d="M307 174l1-1 27 39-1 1z"/><path fill="#1c1f1a" d="M345 210l-8-9 13-13 9 9z"/><path fill="#909594" d="M40 159l-1 2-14-6v-1z"/><path fill="#464d43" d="M11 38l-1-1 43-67 1 1z"/><path fill="#21261c" d="M8 25l18 10-1 1L7 26z"/><path fill="#949f99" d="M304 74l-14 12-2-2 14-12z"/><path fill="#2e2d26" d="M384 73l15 12-7 9-14-12z"/><path fill="#342d1f" d="M266 116l6-9 1 1-6 9z"/><path fill="#bec1bd" d="M104 126v3h-6v-3z"/><path fill="#6e6c60" d="M285-1l-24 23-1-1 24-23z"/><path fill="#30484b" d="M227-9l20 14-3 6-21-15z"/><path fill="#949a96" d="M314 26l-2-3 1-1 2 3z"/><path fill="#67695d" d="M149 153l-8-22 2-1 8 22z"/><path fill="#3f4c37" d="M124 176l-27 6-1-4 28-5z"/><path fill="#69736b" d="M-5 180l1-1 10 2v2z"/><path fill="#707670" d="M52 152v2l-39 2v-2z"/><path fill="#4e4229" d="M330 179l9 6-11 16-9-6z"/><path fill="#7e807b" d="M105 126l1 6h-3l-1-6z"/><path fill="#6f7369" d="M89 25l-1-1 34-41 1 1z"/><path fill="#7c8479" d="M48 173l-2 6h-2l2-6z"/><path fill="#7c837c" d="M23 142l4 20h-2l-4-19z"/><path fill="#595a52" d="M279 187l-1-2 23-23 1 1z"/><path fill="#939184" d="M136 81l2-6 6 2-3 6z"/><path fill="#5e563b" d="M336 135l28-4 2 10-28 5z"/><path fill="#52574a" d="M114 50l6-5 15 19-6 5z"/><path fill="#4c585c" d="M199 30l13 26-37 19-14-26z"/><path fill="#6a695e" d="M96 57l-1-1 36-21v2z"/><path fill="#0c1610" d="M61 49l-2 4-6-3 2-4z"/><path fill="#292e25" d="M108-2v1L97 4l-1-2z"/><path fill="#141c1a" d="M-5 201l5-11 16 7-5 11z"/><path fill="#181e1b" d="M379 4v3h-16V4z"/><path fill="#322c25" d="M384 113l-4 3-15-18 3-3z"/><path fill="#c9d1ce" d="M335 69v2l-3-1v-2z"/><path fill="#c7c2bb" d="M278 180l1 1-2 3-1-1z"/><path fill="#242621" d="M122 41l-19-11 2-4 19 11z"/><path fill="#3e4338" d="M86 98l1 1-37 17-1-1z"/><path fill="#676250" d="M283 91l1 1-15 31-1-1z"/><path fill="#919793" d="M247 35l-4-7 9-5 3 7z"/><path fill="#5a6058" d="M116 181l2 1-5 35h-1z"/><path fill="#797873" d="M140 68l-8 5-1-2 8-5z"/><path fill="#9fa098" d="M246 149l-1-1 11-5v2z"/><path fill="#606458" d="M118 108l1-1 11 8-1 2z"/><path fill="#191609" d="M270 147l1-3 1 1-1 3z"/><path fill="#303730" d="M10 153h1l-4 33H6z"/><path fill="#abb2aa" d="M99 154l-4-5 2-1 3 5z"/><path fill="#252c27" d="M131 8h-1l-7-14 2-1z"/><path fill="#444a43" d="M58 158h1l7 35-2 1z"/><path fill="#494d40" d="M257 188l5-2 1 3-5 2z"/><path fill="#b7b5a6" d="M281 129v2l-7 1-1-2z"/><path fill="#3b423e" d="M251 49l-1-1 7-5 1 2z"/><path fill="#171c11" d="M135-8h1V9h-2z"/><path fill="#666c63" d="M394 90h3l1 25h-2z"/><path fill="#1c1f1c" d="M280 87l-1-9 5-1 1 9z"/><path fill="#999a96" d="M89 93l1-1 4 7-1 1z"/><path fill="#acb3ad" d="M347 87l-2 7-18-4 1-8z"/><path fill="#717268" d="M359 27l-2 1-1-3 1-1z"/><path fill="#2a2e28" d="M24 137l27-24 1 2-27 23z"/><path fill="#434130" d="M348 102l2 1-3 6-2-1z"/><path fill="#1d2718" d="M110 68l-2 2-1-2 2-2z"/><path fill="#747971" d="M68 71v-1l19 4-1 2z"/><path fill="#151d13" d="M91 186l-2-1 3-4 1 1z"/><path fill="#303a37" d="M355 13v3h-5v-3z"/><path fill="#596152" d="M59 130l-2 11-2-1 2-10z"/><path fill="#7a6b49" d="M287 136l3 10-3 1-4-10z"/><path fill="#283026" d="M50 134l15 4-1 2-15-5z"/><path fill="#baa58e" d="M306 134v-1l6 3-1 1z"/><path fill="#746751" d="M321 146l-1 1-21-10 1-1z"/><path fill="#3c4231" d="M81 18l1-1 29 23-1 1z"/><path fill="#444a42" d="M34-19l38 39-1 1-38-39z"/><path fill="#e7e8ec" d="M127 73v-1h4l-1 2z"/><path fill="#a9a598" d="M251 110h11l1 9-11 1z"/><path fill="#677069" d="M27 18l-1-1 8-2v1z"/><path fill="#cacdc7" d="M126 70l-10-3v-1l11 3z"/><path fill="#59605f" d="M250 183l-5-3v-2l6 3z"/><path fill="#848474" d="M276 97l-11-16 1-1 11 16z"/><path fill="#3b311e" d="M324 211l25-42 4 3-25 41z"/><path fill="#4a4d43" d="M95 111h8v1l-8 1z"/><path fill="#b7b9a8" d="M270 160l-2-6h1l2 6z"/><path fill="#c0c5c2" d="M48 160l-1-1 10-5 1 1z"/><path fill="#534d38" d="M307 128v1l-3 1v-2z"/><path fill="#5e6759" d="M85 167l-5 6-1-1 5-6z"/><path fill="#c5c7c0" d="M113 98l1-5 3 1-1 5z"/><path fill="#1f211c" d="M358 187v-1l23-6v1z"/><path fill="#b1b4ad" d="M107 121l-1-1 8-17 1 1z"/><path fill="#1f221f" d="M110 195l-8-1 2-10 8 2z"/><path fill="#464942" d="M63 131v2L7 111l1-1z"/><path fill="#bcbeba" d="M99 94l5 16-2 1-4-17z"/><path fill="#e2ebe0" d="M313 114l10 4v1l-10-4z"/><path fill="#344041" d="M238 44h5l-1 33-5-1z"/><path fill="#534b43" d="M286 59l3-1 4 6-2 2z"/><path fill="#c4cdc6" d="M112 62l-3 1-1-1 3-2z"/><path fill="#909185" d="M239 126l17-5v2l-16 4z"/><path fill="#191e19" d="M340 18l-10-8 1-1 10 8z"/><path fill="#3c3b34" d="M390 102l-10-2 4-16 9 2z"/><path fill="#3d362c" d="M112 143v-2l28 5-1 2z"/><path fill="#5b5448" d="M318 40l-1 1-14-4v-2z"/><path fill="#424940" d="M31 145l-20 4v-2l20-4z"/><path fill="#686355" d="M368 40h3v3h-3z"/><path fill="#161b18" d="M397 173h-3l7-48 3 1z"/><path fill="#e9ede6" d="M91 95l4 1v2l-4-2z"/><path fill="#686f60" d="M48 53l-11-2 1-3 11 2z"/><path fill="#bdc3be" d="M302 86h10v8h-10z"/><path fill="#3e382e" d="M347 33v-1l11-1v1z"/><path fill="#1a211a" d="M27 108l-20 9-1-1 20-10z"/><path fill="#e9ece7" d="M98 93l4-12h1l-3 12z"/><path fill="#3a3c38" d="M107 127l-1-2 11-3v2z"/><path fill="#2a2c22" d="M339 20v1l-4 1-1-1z"/><path fill="#3c3725" d="M375 70l-9 3-5-16 9-3z"/><path fill="#554e40" d="M156 96l-1 1-21-10v-1z"/><path fill="#202a1e" d="M63 189l-1-11h5l1 11z"/><path fill="#323a2d" d="M81 105l9 5-3 6-10-6z"/><path fill="#8b9891" d="M351 98v2l-50-3v-1z"/><path fill="#232722" d="M94 110h-1l2-9h1z"/><path fill="#dee3de" d="M346 7l2 1-2 2h-1z"/><path fill="#3c3f33" d="M231 101l12 4v1l-12-3z"/><path fill="#a3a09d" d="M274 22l15-4 1 3-15 3z"/><path fill="#b4b7b1" d="M266 203h-2l-3-7 1-1z"/><path fill="#7e8173" d="M154 143l-9 1-1-1 10-1z"/><path fill="#5c605d" d="M100 184l3 1-1 7h-3z"/><path fill="#727a6f" d="M92 70h-2l1-8 2 1z"/><path fill="#636b60" d="M64 82v1l-16 5-1-1z"/><path fill="#585953" d="M120 24l-13 6v-2l12-6z"/><path fill="#919682" d="M152 80l-1-1 5-10 1 1z"/><path fill="#bfc1b4" d="M323 30l-2 2-1-1 1-2z"/><path fill="#646e5b" d="M5 115l-1 3-7-3 1-3z"/><path fill="#7c7662" d="M241 118l5-7 5 4-4 6z"/><path fill="#7f7970" d="M299 48l1 1-7 10-1-1z"/><path fill="#57613d" d="M79 36l-5 1-4-12 4-1z"/><path fill="#6c796c" d="M6 24l-5 1-2-10 5-1z"/><path fill="#56594e" d="M120 94l12 2v2l-13-2z"/><path fill="#656b69" d="M236 92l-2-3 13-10 2 2z"/><path fill="#1a201d" d="M30 6L68-6v2L31 7z"/><path fill="#d7dad4" d="M124 74l-14 11-1-1 14-11z"/><path fill="#8d8b7a" d="M278 92l3 1-1 4-3-1z"/><path fill="#493e2a" d="M260 83l2-9 2 1-2 9z"/><path fill="#7f827b" d="M114 106l-1 14h-3v-14z"/><path fill="#999a96" d="M91-7l2 14-4 1-3-14z"/><path fill="#6c706c" d="M296 180l-2 2-4-4 2-2z"/><path fill="#474c44" d="M357 195v-5l22 1v5z"/><path fill="#253736" d="M162 37l6-16 9 3-6 16z"/><path fill="#544c45" d="M131 135l3-2 5 9-3 1z"/><path fill="#4d585b" d="M218 178l-17 5-36-99 16-6z"/><path fill="#838780" d="M382 22l-3-1v-1l3 1z"/><path fill="#263022" d="M115 161l2-1 13 15-1 1z"/><path fill="#363b31" d="M26 101l18-2v1l-18 3z"/><path fill="#a4aba7" d="M374 23l-1-3 2-1 1 3z"/><path fill="#a49c87" d="M293 123l2-1 7 26h-1z"/><path fill="#a8b0a6" d="M34 181h-1v-4h1z"/><path fill="#404139" d="M105 56l-3 7-3-1 4-8z"/><path fill="#3c3411" d="M343 157l-7-2v-1l8 2z"/><path fill="#323a28" d="M-3 14l-1-1 9-3 1 1z"/><path fill="#18201b" d="M66 93v1l-15 2v-1z"/><path fill="#80847b" d="M107 104l-1 16-2-1 1-15z"/><path fill="#24251c" d="M148 7l2-14 6 1-2 14z"/><path fill="#263f40" d="M146 176h2l23 37h-1z"/><path fill="#595f5b" d="M39 9h-1l3-4 1 1z"/><path fill="#6a6e63" d="M269 191l-6-11 1-1 6 11z"/><path fill="#40453d" d="M31 139h-2l5-26h1z"/><path fill="#181f18" d="M30 43l-8 4-4-7 9-4z"/><path fill="#454d45" d="M79 101L50 74l1-1 29 26z"/><path fill="#c0c4be" d="M249 23v-2l10 1-1 2z"/><path fill="#1a231e" d="M237 118l-3 4-1-1 3-4z"/><path fill="#686e69" d="M15 147l-9 3v-2l8-3z"/><path fill="#dce1d7" d="M141 49l-1-5h2v4z"/><path fill="#1c2628" d="M169 66l1 1-9 21h-1z"/><path fill="#3c5356" d="M150 175l11-9 28 35-11 9z"/><path fill="#707770" d="M72 134l-6-3 1-1 6 3z"/><path fill="#6a6b61" d="M142 175l-1-2 13-2v1z"/><path fill="#2b332d" d="M344 12l-2-1 4-12 1 1z"/><path fill="#505348" d="M377 143l-1-1 5-8 1 1z"/><path fill="#8f9389" d="M321 25v-1l3-1v2z"/><path fill="#8d8f82" d="M156 21L138 7l1-2 18 15z"/><path fill="#343630" d="M116 34l-1-3 18-4 1 3z"/><path fill="#7b7058" d="M355 84l2-4h2l-3 4z"/><path fill="#3f3f33" d="M162 128v1l-35-5v-2z"/><path fill="#2a3427" d="M283 90l-1 16-1-1 1-15z"/><path fill="#787366" d="M357 47l-37 12v-1l37-12z"/><path fill="#252c29" d="M361 15l-1-1 6-3v2z"/><path fill="#202620" d="M80 41L70 51 46 26l10-10z"/><path fill="#47483a" d="M341 51l2 2-1 1-2-2z"/><path fill="#3e4438" d="M97 68l12 11-1 1-12-10z"/><path fill="#9a9f99" d="M109 150l1 1-5 4-1-1z"/><path fill="#525750" d="M122 120l-1 2-4-3 1-2z"/><path fill="#aaa7a0" d="M308 126l-4 2-1-2 4-2z"/><path fill="#8e918a" d="M313 24l4 2-1 2-3-3z"/><path fill="#aeb7b3" d="M370 10l5-1v2h-5z"/><path fill="#535958" d="M399 163h1v7h-2z"/><path fill="#353b30" d="M153 175v1l-17 1v-2z"/><path fill="#1a211e" d="M365-4l6-5 10 15-7 4z"/><path fill="#727f6c" d="M65 147l-7-4 1-1 6 4z"/><path fill="#151d15" d="M4 155l2 1-8 22-2-1z"/><path fill="#383426" d="M271 173h1l-3 12h-2z"/><path fill="#181f1a" d="M385 24l-1 1-11-41 1-1z"/><path fill="#cbc5bc" d="M277 125v2h-3v-2z"/><path fill="#594a2e" d="M337 181v2l-34 10-1-2z"/><path fill="#cccecc" d="M113 81l-6-3 1-1 5 2z"/><path fill="#565c54" d="M111 150l-1-1 9-4 1 2z"/><path fill="#2d321d" d="M132 120v-2l22-2v2z"/><path fill="#3f3623" d="M284 116l-3-1 2-4 3 1z"/><path fill="#796444" d="M300 154l-6-12 1-1 6 13z"/><path fill="#393d39" d="M266 198h2l-2 3-1-1z"/><path fill="#3e4440" d="M64 40v2l-26-5v-2z"/><path fill="#545954" d="M5 70l1 2H-4v-1z"/><path fill="#484436" d="M153 36l-3 16-8-2 4-15z"/><path fill="#3f3a2b" d="M158 44l1 1-12 10-1-1z"/><path fill="#918571" d="M280 109l-7 7-1-1 6-7z"/><path fill="#56544c" d="M129 183l1-2 9 7-1 1z"/><path fill="#888978" d="M254 181l8 7-1 2-8-8z"/><path fill="#77786a" d="M308 3l-21 6V8l21-6z"/><path fill="#202e2c" d="M248 187l1 1-18 2v-2z"/><path fill="#fbfbf0" d="M350 23h-2l1-4 1 1z"/><path fill="#31352d" d="M115 9l-14 22-2-1 14-22z"/><path fill="#28301f" d="M102 77h-1l-2-9h2z"/><path fill="#787c78" d="M132 16l-9-1v-2l9 2z"/><path fill="#3c413a" d="M50-8l10-2 4 29-10 2z"/><path fill="#2b3327" d="M11 90v2l-17 10-1-1z"/><path fill="#212923" d="M363 154l7 21-3 1-7-21z"/><path fill="#9d9d99" d="M366 17l1 1-3 1-1-1z"/><path fill="#bec5bf" d="M344 12l1 1-6 2-1-2z"/><path fill="#3c2e26" d="M310 60l-5 3-7-12 5-3z"/><path fill="#262c26" d="M12 186l11-21 1 1-11 20z"/><path fill="#5a4936" d="M316 149l-18 17-3-4 18-17z"/><path fill="#4f4f44" d="M142-2l1 15h-2l-1-15z"/><path fill="#343c30" d="M101 158l1 2-23 18-1-2z"/><path fill="#717368" d="M136 86l-6-11h1l6 11z"/><path fill="#485350" d="M171 7l-11 29-2-1 12-29z"/><path fill="#20231d" d="M365 18l3-1 3 11h-3z"/><path fill="#6c6f59" d="M147 113h-2l4-12h1z"/><path fill="#4a4f44" d="M118 112l1 5h-1l-1-4z"/><path fill="#382f24" d="M129 148l6-2 3 11-6 2z"/><path fill="#657376" d="M242 199v-3h5v3z"/><path fill="#5e635c" d="M34 164h1l-5 11h-1z"/><path fill="#6d6f67" d="M94 10l3-7 14 7-3 7z"/><path fill="#454c45" d="M27 151l2 2-1 1-2-2z"/><path fill="#3b3f3a" d="M99 151l4 1v2l-5-2z"/><path fill="#67725c" d="M121 66l-2-8 3-1 2 8z"/><path fill="#1d2218" d="M255 179l-2 1-3-8h2z"/><path fill="#706444" d="M359 105l2 1-41 47-1-1z"/><path fill="#58554f" d="M281 164l4 10-1 1-5-10z"/><path fill="#bcc1bc" d="M57 160l-2 2-1-1 2-3z"/><path fill="#747568" d="M252 123l10-5v2l-10 4z"/><path fill="#525b56" d="M348 16l-3-1v-1h3z"/><path fill="#5b564f" d="M131 45l1-2 11 11-1 1z"/><path fill="#bdc2b5" d="M263 181l2 1-2 4h-1z"/><path fill="#293320" d="M50 185l-14 11-6-8 14-10z"/><path fill="#7f8687" d="M248 12v-1l15 3v2z"/><path fill="#626357" d="M298 13l-5-17 5-1 4 17z"/><path fill="#3c423b" d="M41 151l-1 1-4-1v-2z"/><path fill="#6b6f65" d="M95 131l-1 1-9-5 1-2z"/><path fill="#6d6a59" d="M258 142l-14 4v-2l13-4z"/><path fill="#282d25" d="M76 77L64 97l-1-1 12-20z"/><path fill="#adafae" d="M111 59l6 2-1 3-6-2z"/><path fill="#8b9288" d="M73 142v2h-7v-1z"/><path fill="#656c60" d="M287 109h1l2 9h-1z"/><path fill="#4f5754" d="M375 8v8l-2-1 1-7z"/><path fill="#323c3e" d="M250 78l6 2-2 6-6-2z"/><path fill="#253230" d="M238 51l-1-1 7-6 1 1z"/><path fill="#636159" d="M349 29h-1l-2-9 2-1z"/><path fill="#787774" d="M289 29l-10 4-1-1 10-4z"/><path fill="#b6b5ac" d="M278 49l2 12-3 1-2-12z"/><path fill="#343931" d="M276 147l-4-1v-1l5 1z"/><path fill="#8a918a" d="M60 156l-5-1 2-6 5 1z"/><path fill="#19221d" d="M109 129l10 8-1 1-10-8z"/><path fill="#464c3f" d="M53 76l3 6-11 6-3-6z"/><path fill="#6d6d6b" d="M116 85l-3-1 1-2 3 2z"/></svg>