<svg xmlns="http://www.w3.org/2000/svg" viewBox="0 0 800 400"><path fill="#51564e" d="M0 0h800v400H0z"/><path fill="#afac9d" d="M505 408L489-48l225 240z"/><path fill="#fdfefb" d="M264 136l-47 94-50-57z"/><path fill="#151207" d="M783-48l65 421-190 66z"/><path fill="#162015" d="M33-23l-81 415L223 64z"/><path fill="#d3e3e0" d="M702 139l-38 106-97 4z"/><path fill="#1b1408" d="M633 145h-53l37-193z"/><path fill="#2b3223" d="M-48 408l290-31 91-179z"/><path fill="#8e9790" d="M727-48l-75 278-82-25z"/><path fill="#7c6a48" d="M498 327l35 121 315-278z"/><path fill="#a9afad" d="M27 292l90 10-9 50z"/><path fill="#a5a99d" d="M339-48L170 42 92-33z"/><path fill="#485b63" d="M595 198L377-48l-72 496z"/><path fill="#1a1b14" d="M692 161l156-34-81-175z"/><path fill="#94978f" d="M270 242l-53-69-34 91z"/><path fill="#141c11" d="M67 236l147-34-50 59z"/><path fill="#bab6a9" d="M330 23l-47 50 3-59z"/><path fill="#cdcfc8" d="M180 183l59-53 53 25z"/><path fill="#b0c1bd" d="M702 158l-129-16v63z"/><path fill="#30454a" d="M236 448l78-159 269 56z"/><path fill="#1c261a" d="M261 448L-48 280v109z"/><path fill="#948e7c" d="M592 248l-125-96 122 296z"/><path fill="#fff" d="M673 239l-71 9-29-25z"/><path fill="#9d9789" d="M598 111L564-48l-44 193z"/><path fill="#484031" d="M498 164l275-37-153-29z"/><path fill="#313828" d="M227 167l93 16 19 140z"/><path fill="#c4cbc9" d="M192 377l-15 25-22-22z"/><path fill="#25281e" d="M633-45L580 70 805-48z"/><path fill="#bbbebb" d="M236 214l-50-72-47-6z"/><path fill="#c6c2b6" d="M727 64l-19 9-13-43z"/><path fill="#6b562e" d="M602 355l62 72 84-310z"/><path fill="#423a24" d="M520 239l47-97 3 69z"/><path fill="#646c62" d="M-48 20l90-53 35 97z"/><path fill="#9f9c8b" d="M561 180l-81-3 15 71z"/><path fill="#1b231a" d="M86 170l-134 7L245 23z"/><path fill="#9ba1a0" d="M508 77l40-82-71 38z"/><path fill="#284048" d="M333-48l-19 271 97-271z"/><path fill="#53605f" d="M148 289l322 19-25 81z"/><path fill="#707976" d="M848 211l-68 28v-62z"/><path fill="#627b76" d="M567 227v-47l144 43z"/><path fill="#3b4237" d="M117 298L242-42 33 242z"/><path fill="#898a7c" d="M323 145l-50 28-65-59z"/><path fill="#1b1c10" d="M289 345l-19 47 88 56z"/><path fill="#7e7362" d="M620 108l57-94 62 100z"/><path fill="#070f0c" d="M195 258l-22 75-3-60z"/><path fill="#202420" d="M845-48L739 289 736 5z"/><path fill="#d9dbd8" d="M230 145l-10 47-53-3z"/><path fill="#2c484f" d="M492 30l22-78L280 5z"/><path fill="#2a291c" d="M533 255l12 15-56-12z"/><path fill="#0d1d1f" d="M480 320l28 28-41 41z"/><path fill="#4b5048" d="M567 80l-90 31-22-34z"/><path fill="#b5b19f" d="M620 248l-72-18 38 50z"/><path fill="#514533" d="M686 139l28-78 44 197z"/><path fill="#a7b2ae" d="M605 208l-22-66 115 13z"/><path fill="#2c3225" d="M108 148l165-96L89 33z"/><path fill="#434b3f" d="M11 302l128 137-53-116z"/><path fill="#262316" d="M648 383l38 40 66-156z"/><path fill="#fffff6" d="M642 252l-37-22 65 3z"/><path fill="#b4c0c3" d="M530 377l34 71h-69z"/><path fill="#4c4e45" d="M548 280l-6 84 28-3z"/><path fill="#535f64" d="M505 139l-60 228L314 77z"/><path fill="#9f9a89" d="M323 142l-31-12-12-38z"/><path fill="#fff" d="M680 45l9-12-6-6z"/><path fill="#747a73" d="M186 145l-22 47-6-72z"/><path fill="#9ba096" d="M155-48l-22 71 72 13z"/><path fill="#6c6e60" d="M577-48L542 8l97 9z"/><path fill="#1a1f19" d="M814 95L695 20l88 116z"/><path fill="#372f22" d="M630 408l-47-66 22-12z"/><path fill="#656d66" d="M61 320l-69-28 113-6z"/><path fill="#888872" d="M717 202l-53-4 6 63z"/><path fill="#a8aca9" d="M95 358l-12-56h34z"/><path fill="#0c1213" d="M58 248l-106 79 9-97z"/><path fill="#989a90" d="M486 302l41-22 31 75z"/><path fill="#282a20" d="M592 27l75 6-81 56z"/><path fill="#4a4d3f" d="M230 180l40 62-6-90z"/><path fill="#3d5356" d="M448-48L333 20l181 160z"/><path fill="#979c98" d="M602 386l-25-28-35 31z"/><path fill="#5d6351" d="M-48 233l87-56 19 28z"/><path fill="#4d563c" d="M180 42l37 85L105 8z"/><path fill="#222725" d="M133 5L42-48l81 153z"/><path fill="#838c88" d="M752 17l-50-6 28 19z"/><path fill="#222015" d="M567 142l-22 19 16 25z"/><path fill="#989e96" d="M217 155l13-7-38-25z"/><path fill="#888c84" d="M214 192l31 63-59-63z"/><path fill="#514731" d="M695 220l60-153-53 41z"/><path fill="#7e7f77" d="M198 280l50 40-59-22z"/><path fill="#92907e" d="M464 214l84-56-28 84z"/><path fill="#191f19" d="M245 277l-22-38-15 3z"/><path fill="#c9cfc6" d="M258 342h9l-12 28z"/><path fill="#7a6543" d="M720 214l-147 88 63 28z"/><path fill="#2b3626" d="M180 111l34 41-22 3z"/><path fill="#2f2c1c" d="M292 139l-12 6-10-50z"/><path fill="#24261c" d="M273 45v-93l-18 62z"/><path fill="#e0e2e1" d="M667 136l-15-6-16 3z"/><path fill="#a9aca8" d="M202 264l21-9-37-13z"/><path fill="#b9bebb" d="M270 136l-43-9 50 34z"/><path fill="#3f3f2e" d="M255 355l103-238-94 88z"/><path fill="#73756a" d="M264 177l69 9-103-56z"/><path fill="#4d554a" d="M-48 133l150-31L-5 89z"/><path fill="#131a18" d="M848 386l-118-72 103-22z"/><path fill="#3b392b" d="M745 148l10-53-100 50z"/></svg>