<svg xmlns="http://www.w3.org/2000/svg" viewBox="0 0 400 200"><path fill="#51564e" d="M0 0h400v200H0z"/><path fill="#c4c4b4" d="M237 103l97-40 24 57-96 41z"/><path fill="#171f17" d="M73 14l17 116-115 17-16-116z"/><path fill="#dadcd6" d="M85 94l32-39 21 18-31 39z"/><path fill="#171309" d="M369 2l51 7-25 197-51-7z"/><path fill="#b8b2a6" d="M281-4l21 64-44 14-21-64z"/><path fill="#847e6e" d="M299 244l-45 3-11-161 45-3z"/><path fill="#fff" d="M333 116v9l-45 1-1-9z"/><path fill="#141e12" d="M62 236l-141-54 18-48 142 54z"/><path fill="#795d31" d="M378 119l-63 81-26-20 63-82z"/><path fill="#998f82" d="M332 70l-21-16 34-42 20 17z"/><path fill="#b5b9ae" d="M99 22L65 11l6-19 34 11z"/><path fill="#b3c6c7" d="M295 98l5-26 47 9-5 26z"/><path fill="#293024" d="M20-32l103 93-16 19L3-13z"/><path fill="#b9bbb6" d="M89 67l44 53-11 9-44-53z"/><path fill="#323a30" d="M168 106l19 41-112 52-19-41z"/></svg>