<svg xmlns="http://www.w3.org/2000/svg" viewBox="0 0 400 200"><path fill="#51564e" d="M0 0h400v200H0z"/><g transform="translate(1 1) scale(1.5625)"><ellipse fill="#b3b1a2" cx="187" cy="61" rx="34" ry="34"/><ellipse fill="#19221a" cy="42" rx="51" ry="51"/><ellipse fill="#f3f4f0" cx="66" cy="55" rx="11" ry="11"/><ellipse fill="#040400" cx="255" cy="29" rx="28" ry="28"/><ellipse fill="#130f04" cx="254" cy="115" rx="38" ry="38"/><ellipse fill="#b7b2a8" cx="171" cy="17" rx="17" ry="17"/><ellipse fill="#bccece" cx="202" cy="64" rx="18" ry="18"/><ellipse fill="#a59883" cx="176" cy="93" rx="18" ry="18"/><ellipse fill="#1a0d06" cx="194" cy="38" rx="9" ry="9"/><ellipse fill="#131d12" cx="6" cy="127" rx="27" ry="27"/><ellipse fill="#9c9488" cx="218" cy="21" rx="13" ry="13"/><ellipse fill="#546064" cx="146" cy="60" rx="37" ry="37"/><ellipse fill="#c9cac1" cx="79" cy="46" rx="8" ry="8"/><ellipse fill="#b4b8ad" cx="54" rx="12" ry="12"/><ellipse fill="#343e38" cx="77" cy="127" rx="46" ry="46"/><ellipse fill="#a9aaa2" cx="74" cy="72" rx="9" ry="9"/><ellipse fill="#988e7e" cx="176" cy="127" rx="17" ry="17"/><ellipse fill="#7b5b2c" cx="207" cy="98" rx="19" ry="19"/><ellipse fill="#b7bbba" cx="32" cy="102" rx="7" ry="7"/><ellipse fill="#3d4233" cx="63" cy="31" rx="19" ry="19"/><ellipse fill="#2f2c20" cx="199" cy="12" rx="14" ry="14"/><ellipse fill="#bdc0bb" cx="57" cy="126" rx="6" ry="6"/><ellipse fill="#a6a193" cx="94" cy="12" rx="8" ry="8"/><ellipse fill="#271d12" cx="239" cy="59" rx="11" ry="11"/><ellipse fill="#6d776c" cx="8" cy="6" rx="11" ry="11"/></g></svg>