<svg xmlns="http://www.w3.org/2000/svg" viewBox="0 0 400 200"><path fill="#51564e" d="M0 0h400v200H0z"/><path fill="#c2c0af" d="M261 160l-22-63 98-34 22 64z"/><path fill="#e4e5df" d="M86 92l38-33 16 19-37 33z"/><path fill="#171309" d="M369 2l85 10-24 197-85-10z"/><path fill="#141d14" d="M41-8l62 52L1 166l-62-52z"/><path fill="#b5b1a6" d="M296 66l-47 3-5-73 46-4z"/><path fill="#847e6e" d="M259 232L241 88l45-6 18 144z"/><path fill="#b4c6c5" d="M292 76l54 2-1 48-55-2z"/><path fill="#6e5630" d="M364 86l28 25-80 92-28-25z"/><path fill="#151f13" d="M83 184l-13 40-95-31 13-40z"/><path fill="#9b9184" d="M330 65l-20-21 33-33 21 22z"/><path fill="#b0b4a9" d="M65 11l9-24 32 13-9 24z"/><path fill="#bfc1bc" d="M119 128L83 83l12-10 36 46z"/><path fill="#2d3119" d="M114 90l15-14 33 36-15 13z"/><path fill="#363d33" d="M54 185l11-66 101 16-10 66z"/><path fill="#fff" d="M303 116l31 1-1 9-31-1z"/><path fill="#a5aba9" d="M61 150l-6 30-18-3 6-31z"/><path fill="#303b31" d="M285 117l-18-39 13-6 17 39z"/><path fill="#405865" d="M159 207l12-245 78 4-12 245z"/><path fill="#221e13" d="M288 31l40-51 19 16-39 50z"/><path fill="#b4ae9d" d="M157 37l-19-2 4-24 18 3z"/><path fill="#32392f" d="M97 115l-50 38-39-51 50-38z"/><path fill="#747872" d="M393 125l-15-16 27-26 15 16z"/><path fill="#0e1615" d="M378-2l47 3-5 87-46-2z"/><path fill="#9e9f99" d="M104 109l11 9-14 18-11-8z"/><path fill="#2b2a1f" d="M305 208l82-94 31 26-82 95z"/><path fill="#292f1f" d="M47 20l83 2v22l-83-2z"/><path fill="#0e2125" d="M242 162l17 8-15 29-17-8z"/><path fill="#3b3125" d="M369 77l-81-7 1-11 81 7z"/><path fill="#686d62" d="M134 67L78 86l-5-14 57-19z"/><path fill="#b7beb9" d="M97 210l-16-1 2-20 15 1z"/><path fill="#6d7971" d="M363 99l-1 19-123-9 1-19z"/><path fill="#dfe2de" d="M122 72l4 8-40 22-4-9z"/><path fill="#939a96" d="M5 146l49 8-1 8-49-9z"/><path fill="#9e9b8d" d="M247 144l52 10-3 16-53-10z"/><path fill="#253230" d="M147 134l20-112 9 2-20 112z"/><path fill="#77633e" d="M366 140l-57 25-11-25 57-26z"/><path fill="#a79c8a" d="M287 36l12 12-31 33-13-12z"/><path fill="#4c4535" d="M269 141l-12-3 10-37 12 4z"/><path fill="#89887d" d="M244 189l52-13 8 33-51 13z"/><path fill="#86816d" d="M145 97l-12-8 17-28 12 7z"/><path fill="#0b1410" d="M54 70L5 90 0 78l50-20z"/><path fill="#aab6b3" d="M337 20l17-14 4 4-17 14z"/><path fill="#949691" d="M284 25l-38 15-9-23 37-15z"/><path fill="#cececc" d="M336 71l-31-5 1-1 31 5z"/><path fill="#222c21" d="M32 163l13-1 3 29-13 2z"/><path fill="#fffff2" d="M293 120l1-6 37 9-2 6z"/><path fill="#757064" d="M148 133l8 3-28 64-7-3z"/><path fill="#171d16" d="M94 149l8 13-25 16-9-13z"/><path fill="#575d4e" d="M82 96l57 18-1 1-56-18z"/><path fill="#576062" d="M175 102l42-28 41 61-42 27z"/><path fill="#443529" d="M302 31l18 2-5 41-18-3z"/><path fill="#23271b" d="M86 139l68-18 2 7-68 19z"/><path fill="#151e14" d="M98 107l2 10-52 12-2-10z"/><path fill="#524e40" d="M277 203l-8-1 3-59h8z"/><path fill="#141d1c" d="M127 205l19-25 19 13-19 26z"/><path fill="#45463b" d="M233 45l45-5 1 8-46 4z"/><path fill="#686a62" d="M127 165l-36-15 5-13 37 15z"/><path fill="#6e776c" d="M80 130v19H59v-18z"/><path fill="#6e7067" d="M100 20L89-6l28-12 11 26z"/><path fill="#e0e6e0" d="M343 14l20 19-1 1-20-19z"/><path fill="#5e685e" d="M19 8l18 5-4 18-19-5z"/><path fill="#b7b4a5" d="M272 123l7-8 22 17-6 8z"/><path fill="#51564b" d="M62 101l-3 17-69-11 2-17z"/><path fill="#1c190b" d="M278 109V80h5v29z"/><path fill="#d2d3cf" d="M143 80l-35-19 1-2 34 19z"/><path fill="#5d5e55" d="M248 68l-4-2 44-92 4 2z"/><path fill="#32392b" d="M90 62l9-4 7 19-9 4z"/><path fill="#25311d" d="M128 187l-25 5-4-24 24-5z"/><path fill="#9aaba6" d="M307 85l-21 1-1-13 22-1z"/><path fill="#9c9c90" d="M268 94l-6 22-22-5 5-23z"/><path fill="#47473b" d="M179 26l-51 44-8-10 51-44z"/><path fill="#978e84" d="M118 46v-2l38 15-1 2z"/><path fill="#838782" d="M88 60l9 22-14 6-10-21z"/><path fill="#222d28" d="M235 137l19-12 3 6-19 11z"/><path fill="#615337" d="M370 48l-14 77-12-3 14-76z"/></svg>