<svg xmlns="http://www.w3.org/2000/svg" viewBox="0 0 400 200"><filter id="a"><feGaussianBlur stdDeviation="55"/></filter><path fill="#6a676e" d="M0 0h400v200H0z"/><g filter="url(#a)"><path fill="#d3cadb" d="M311 8v151H112V8z"/><path d="M398 240l-399-7 2-75 398 7z"/><path d="M-50 33H52v176H-50z"/><path fill="#000102" d="M350 204l3-154h52l-3 155z"/><path fill="#d1b0b6" d="M111-37l3 194-58 1-3-194z"/><path fill="#beb8c1" d="M347 7l4 133-43 1-5-132z"/><path d="M59 8V-6h186V8z"/><path fill="#000001" d="M49 192H24L28-6h25z"/><path fill="#ce4d41" d="M187 84l144 5-1 25-144-5z"/><path fill="#105b51" d="M179 86l-2 25-76-5 2-25z"/></g></svg>