<svg xmlns="http://www.w3.org/2000/svg" viewBox="0 0 400 200"><path fill="#6a676e" d="M0 0h400v200H0z"/><path fill="#d3c5d3" d="M55 9h273v150H55z"/><path d="M-8 154l389 14-3 67-388-14z"/><path d="M52 31v180h-68V31zm297 171l5-142 52 2-5 142z"/><path fill="#c83327" d="M167 50l-88 2V24l87-2z"/><path fill="#000c13" d="M348-43l27-1 7 198-27 1z"/><path fill="#26655c" d="M179 85l-2 22-116-6 1-22z"/><path fill="#feffff" d="M277 63H144V52h133z"/><path d="M0 151l5-67 50 4-5 67z"/><path fill="#d1564b" d="M193 83l148 6-1 26-148-5z"/><path fill="#a9c1d0" d="M349 8l3 55-53 2-3-54z"/><path fill="#e3e3f3" d="M347 163h-11l3-78h11z"/><path d="M244-8V7L96 10 95-6zM52-34V67H34V-34z"/><path fill="#2c599b" d="M245 146l-92-2v-26l93 2z"/><path fill="#fdffff" d="M91 21v-9l154 3-1 9z"/><path fill="#3e706a" d="M329 23l-1 28-83-3 1-28z"/><path fill="#b74e43" d="M64 116h83v26H64z"/><path fill="#507d6f" d="M339 121l-2 42-65-4 2-42z"/><path d="M259-5l83-2V7l-83 2z"/></svg>