<svg xmlns="http://www.w3.org/2000/svg" viewBox="0 0 400 200"><style>@keyframes a{from{opacity: 0}to{opacity: 1}}g&gt;*{opacity: 0;animation: a .5s forwards}</style><path fill="#6a676e" d="M0 0h400v200H0z"/><ellipse fill="#cfc1cf" rx="1" ry="1" transform="matrix(-8.07662 -76.84387 148.15425 -15.57164 204 84)"/><ellipse rx="1" ry="1" transform="matrix(1.01433 -38.99358 398.30276 10.36098 202 199)"/><ellipse rx="1" ry="1" transform="matrix(8.32332 -119.02895 26.81294 1.87494 26 114)"/><ellipse fill="#000408" rx="1" ry="1" transform="matrix(13.25663 151.52398 -24.52965 2.14607 379 153)"/><ellipse fill="#e1a1a5" rx="1" ry="1" transform="matrix(.44038 33.5531 -60.625 .7957 113 41)"/><ellipse fill="#eef8ff" rx="1" ry="1" transform="matrix(.12017 -6.71464 41.00212 .7338 305 15)"/><ellipse rx="1" ry="1" transform="matrix(-12.34418 5.94085 -57.63893 -119.76486 42 153)"/><ellipse fill="#000400" rx="1" ry="1" transform="matrix(-141.41102 -1.4575 .04758 -4.61591 197 5)"/><ellipse fill="#edfcff" rx="1" ry="1" transform="matrix(-.0134 7.68139 -94.82115 -.1655 255 57)"/><ellipse fill="#dbdef6" rx="1" ry="1" transform="matrix(85.13971 -.79904 .07622 8.12096 130 17)"/><ellipse fill="#ae3028" rx="1" ry="1" transform="matrix(-45.2147 2.64944 -.81199 -13.85715 123 37)"/><ellipse fill="#26645c" rx="1" ry="1" transform="matrix(-62.7495 2.9509 -.55189 -11.73567 117 96)"/><ellipse fill="#d6dae2" rx="1" ry="1" transform="matrix(-101.16403 -6.89667 .4086 -5.99348 217 154)"/><ellipse fill="#dfe3f7" rx="1" ry="1" transform="matrix(-.0956 6.22989 -129.14596 -1.98184 194 78)"/><ellipse fill="#ce5d54" rx="1" ry="1" transform="matrix(91.51143 3.6008 -.5394 13.70858 267 98)"/><ellipse fill="#c58e91" rx="1" ry="1" transform="matrix(-5.4397 -22.03422 30.39325 -7.50333 81 137)"/><ellipse fill="#000503" rx="1" ry="1" transform="rotate(-155 197 48) scale(14.33823 108.94499)"/><ellipse fill="#bcc6ce" rx="1" ry="1" transform="matrix(-6.49558 29.79144 -9.4575 -2.06207 340 138)"/><ellipse fill="#305a97" rx="1" ry="1" transform="rotate(171 94 74) scale(44.96629 11.76843)"/><ellipse fill="#597691" rx="1" ry="1" transform="matrix(24.86627 -50.9834 24.7185 12.05602 1 42)"/><ellipse fill="#12100d" rx="1" ry="1" transform="matrix(-144.92744 -1.53821 .41434 -39.038 169 199)"/><ellipse fill="#598697" rx="1" ry="1" transform="matrix(-110.01114 1.92025 -.19675 -11.2717 286 38)"/><ellipse fill="#6f98b7" rx="1" ry="1" transform="matrix(-17.45473 -4.67698 13.14694 -49.06503 400 33)"/><ellipse fill="#00040a" rx="1" ry="1" transform="matrix(-11.92807 -.48154 4.28662 -106.1818 40 96)"/><ellipse fill="#c6d0e5" rx="1" ry="1" transform="rotate(-84 137 16) scale(7.28955 46.86515)"/></svg>