<svg xmlns="http://www.w3.org/2000/svg" viewBox="0 0 400 200"><path fill="#6a676e" d="M0 0h400v200H0z"/><path fill="#deccdc" d="M265 165L363 7H43z"/><path d="M424 163l-448-4 214 65z"/><path d="M51-24l4 248-79-56zm373 203l-75 45 3-248z"/><path fill="#b5afbb" d="M351 162l-299-7V13z"/><path d="M9 51l82 173-115-28z"/><path fill="#b58a85" d="M349 76L154 87l197 75z"/><path fill="#000200" d="M384 224l-218-62 200 3z"/><path fill="#c62c22" d="M168 46l-64-26-48 31z"/><path d="M302 7H95l92-31z"/><path fill="#42719a" d="M220 148l-74-30 183-2z"/><path fill="#0d574c" d="M176 85l-70-3-5 30z"/><path fill="#cad3e4" d="M284 87L149 49l208 2z"/><path fill="#37716b" d="M248 13l-2 35h116z"/><path fill="#c3433d" d="M220 110l115-1-50-27z"/><path fill="#0f0c09" d="M82 156l-106 59 298-20z"/><path fill="#001115" d="M382 12l-20-36L260 2z"/><path fill="#ebc7d0" d="M57 107l69 20 64-17z"/><path fill="#00050c" d="M52-24l-1 220-36-84z"/><path fill="#c8d1e2" d="M52 54l61 28 86-31z"/><path fill="#b4453b" d="M104 145l-25-30 66 1z"/><path fill="#000301" d="M362 173l-5-77 58-25z"/><path fill="#c0afc0" d="M349 156l-3-79-45-6z"/><path fill="#2259a7" d="M184 24l4 27 52-30z"/><path fill="#e9e9f2" d="M151 145l97 3-52 12z"/><path fill="#393b43" d="M185 65l31 9 33-11z"/><path fill="#c6daf3" d="M146 10l86 25 86-23z"/><path fill="#e6eeff" d="M173 7l-94 6 55 11z"/><path fill="#766b65" d="M29 159l-17-44v76z"/><path fill="#ef9a8e" d="M148 224l46-56-17 41z"/><path fill="#f7fbff" d="M249 151l-3-47 25 52z"/><path fill="#ba4438" d="M110 21l55 3 1 25z"/><path fill="#467d73" d="M335 106l-69 45 74 3z"/><path fill="#54535b" d="M140 76l-39-11 78-2z"/><path fill="#eaf5ff" d="M201 68l42 14-87-1z"/><path fill="#78a0c2" d="M379 13l5 64 40-34z"/><path fill="#c2b6c3" d="M48 157l111-3-89-22z"/><path fill="#0d2736" d="M351-24l5 133 26-88z"/><path fill="#000905" d="M60 6l5-30 76 31z"/><path fill="#bf7f75" d="M237 199l-3 25-25-62z"/><path fill="#d6d6f3" d="M340 63l-2-47 14 44z"/><path fill="#666067" d="M252 63l50 16 55-16z"/><path fill="#dee5fb" d="M345 84l-47-18-49 18z"/><path fill="#dee0f3" d="M90 70l45 12 45-12z"/><path fill="#748ca6" d="M360 9l6 37-12 22z"/><path fill="#ab564d" d="M138 141l-75-26-1 25z"/><path fill="#35494e" d="M76 81l-66-8 60 34z"/><path fill="#03392f" d="M338 21l-3 20-16-20z"/><path fill="#14413a" d="M260 24l-11-11-5 25z"/><path d="M357 152l-55 72h93z"/><path fill="#4d504e" d="M374 116l38-15-38 123z"/><path fill="#fef2f3" d="M316 135l-14-3-4 24z"/><path fill="#cbbac9" d="M52-16l25 76-23 3z"/><path fill="#e9f6ff" d="M251 60l-11-48-8 45z"/><path fill="#193c7e" d="M237 23l-35-2-7 11z"/><path fill="#f9eae6" d="M288 115l52-8-25 11z"/><path fill="#b85b59" d="M337 112l-108-5 111-25z"/><path fill="#b75f60" d="M263 109l-73-29-9 29z"/><path d="M51 84h-70l70 64z"/><path fill="#bec9df" d="M356-9l-18 47-4-25z"/><path fill="#a36d60" d="M90 224l-25-62 47 62z"/><path d="M227 201l-64 23 38-59z"/><path fill="#3a6756" d="M268 135l16 19v-49z"/><path fill="#b47b71" d="M335 168l-22 48-23 7z"/><path fill="#090a06" d="M376 24l-30 60 30-14z"/><path fill="#e3e8fa" d="M116 60l55-15 45 15z"/><path fill="#417775" d="M171 81l11 26-100-6z"/><path fill="#616875" d="M110 66l-56-6-42 25z"/><path fill="#e9edff" d="M88 70v9l-32-3z"/><path fill="#dfedef" d="M252 123l-29-13h58z"/><path fill="#cccfe1" d="M143 157l-42-12 81 1z"/><path fill="#ccd1e6" d="M173 131h17l-10-44z"/><path fill="#3d5791" d="M173 141l56-26v30z"/><path fill="#bc625d" d="M177 51L63 12l3 39z"/><path fill="#eaf2ff" d="M196 15l-53-5 9 13z"/><path fill="#a39088" d="M24 149l-48 17v-18z"/><path fill="#000005" d="M104 224H5l30-86z"/><path fill="#d8dffb" d="M120 10l-58 2 45 11z"/><path fill="#e9f2ff" d="M306 56l-66 6 20-16z"/><path fill="#cce2f3" d="M88 141l-1-39-8 10z"/><path fill="#f1ebff" d="M326 18l-2 25h-8z"/><path fill="#b4c4d5" d="M334 168l17-22-8-53z"/><path fill="#486785" d="M37 23l-61-42 39 89z"/><path fill="#33615b" d="M277 21l4 13 43-13z"/><path fill="#dbe4ea" d="M152 60V32h-7z"/><path fill="#e4e2e8" d="M62 57l59-9-5 17z"/><path fill="#fffff8" d="M293 123l-8 3 6 11z"/><path fill="#c85954" d="M145 116l-27 24 25 1z"/><path fill="#41649e" d="M195 49l6-28 31 24z"/><path fill="#e5eaff" d="M331 12l-38 11-34-10z"/><path fill="#e5f5ff" d="M166 15v45l10-14z"/><path fill="#fff" d="M168 99l-6-12-3 9z"/><path fill="#091011" d="M104 159h78l-1 21z"/><path fill="#2e504d" d="M340 137l-9 18-22-15z"/><path fill="#cbe8f5" d="M135 102l-20 11 50 3z"/><path fill="#446865" d="M65 104l70-19 31 22z"/><path fill="#6176a8" d="M154 141l77-18-82-8z"/><path fill="#848994" d="M384 141l7-11-1 38z"/><path fill="#001527" d="M7-24l-8 83-23-46z"/><path fill="#615b66" d="M285 65l-53-2 24 10z"/></svg>