<svg xmlns="http://www.w3.org/2000/svg" viewBox="0 0 100 50"><path fill="#6c6871" d="M0 0h100v50H0z"/><path d="M116 43l-130-5 44 28z"/><path fill="#ddc8d9" d="M5 2h85L70 41z"/><path d="M13-3L-9 40l24 26zm93 50L90-10l-2 65z"/><path fill="#afafbe" d="M14 8v32h70z"/><path fill="#a69aa4" d="M17 37l70 3V1z"/><path fill="#13100f" d="M62 66l41-26H-12z"/><path d="M12 41l-27-18 29-3z"/><path fill="#c6372e" d="M17 5l3 8 21-5z"/><path fill="#071118" d="M45-15L-6 2l78-2z"/><path fill="#bf5c59" d="M88 22l-43-1 25 9z"/><path fill="#ccc9da" d="M87 12H22l36 12z"/><path fill="#2b645f" d="M14 26l34-1-14-5z"/><path fill="#466993" d="M57 36l-22-7h47z"/><path fill="#507c84" d="M52 12h51L78 5z"/><path fill="#82a4c7" d="M97 18l17 3L96 4z"/><path d="M28 1l58-1-59-15z"/><path fill="#b4c3e5" d="M74 2H22l29 8z"/><path fill="#2b4f8c" d="M47 12l1-6 13-1z"/><path fill="#9f8b95" d="M79 15L57 28 20 15z"/><path fill="#bc534c" d="M30 36l-16-7 22 1z"/><path fill="#020605" d="M92 23l10-2-15 30z"/><path fill="#dfe2eb" d="M66 27l-6 1 6 12z"/><path fill="#b8adb6" d="M29 19L14-1l7 29z"/><path fill="#00080f" d="M5 25l10 28-3-53z"/><path fill="#4e4f52" d="M94 42l2-20 16 44z"/><path fill="#d6c5db" d="M37 32l15-4-30-1z"/><path fill="#8f868a" d="M7 40l-3 7 1-14z"/><path fill="#b68e90" d="M54 42l8 21 10 3z"/><path fill="#536d8e" d="M5 17L-5 4 12-6z"/><path fill="#c29391" d="M41 66V54l8-12z"/><path fill="#c7cbdb" d="M67 21L53 5l32 16z"/><path fill="#b35757" d="M43 6l-8 6-17-7z"/><path fill="#4b6e66" d="M64 28l5 9 12 2z"/><path fill="#e9e4f7" d="M36 19l11-2 7 4z"/><path fill="#d2c9d2" d="M36 35l-13 4h27z"/><path fill="#141313" d="M29 39H15l22 18z"/><path fill="#72858e" d="M26 24l-1-5H8z"/><path fill="#828799" d="M56 20l-12-5 28 1z"/><path fill="#4d706f" d="M65 11l9-1-12-7z"/><path fill="#646792" d="M62 30l-34-1 19 7z"/><path fill="#f9e2f7" d="M64 18l-11 3-2-3z"/><path fill="#152a42" d="M88-1l4 20 4-17z"/><path fill="#ecd2de" d="M28 1l13 3-26 2z"/><path fill="#3e545a" d="M19 26l-8-7 10 4z"/><path fill="#bd6263" d="M51 20l-4 7 29-2z"/><path fill="#dce7f5" d="M87 11l-3 1 1-9z"/><path fill="#bdacb4" d="M87 38l-7-21 7 5z"/><path fill="#997c73" d="M29 66h10L18 43z"/><path fill="#f4fbff" d="M35 15l11-3 11 3z"/><path fill="#3c655c" d="M85 38h-8l7-10z"/><path fill="#000002" d="M27 59L0 64l10-31z"/><path fill="#060d13" d="M93 34l-5-13 6-11z"/><path fill="#c99a99" d="M63 66h11l8-20z"/><path d="M52 44l16 19-42 3z"/><path fill="#b4545a" d="M44 12L27 5l-11 7z"/><path fill="#d4e4ec" d="M65 5l14-4v4z"/><path fill="#303f4a" d="M91 22l-11-6 25 4z"/><path fill="#bdc9da" d="M52 40l10-3-17-2z"/><path fill="#d4eee8" d="M77 34l-1 3 2 3z"/><path fill="#19141d" d="M55-1l30 3v-17z"/><path fill="#0a1228" d="M82-11l-97-4L28 2z"/><path fill="#c3c6dd" d="M46 21l2 11-4 3z"/><path fill="#516795" d="M44 36l4-7 14 6z"/><path fill="#c6cedc" d="M87 15l-2-1 2-7z"/><path d="M90 40l15 26-35-3z"/><path fill="#ffebf4" d="M22 14l10 1 2-3z"/><path fill="#cbffff" d="M26 19l8 1-2-2z"/><path fill="#e7ffff" d="M59 8l2-3 2 9z"/><path fill="#666275" d="M85 19l5-4-16 1z"/><path fill="#fcf4ff" d="M15 10l1 5h2z"/><path fill="#e9c6c7" d="M16 29l6-3 9 2z"/><path fill="#7b726f" d="M-5 39l11-3v3z"/><path fill="#5473a4" d="M46 12l-2-7 14 4z"/><path fill="#356265" d="M46 20l-16 6-3-6z"/><path fill="#ab6d6d" d="M13 34l15-6 14 8z"/><path fill="#ac5a5f" d="M67 23l14 4 6-6z"/><path fill="#6c7887" d="M46 18l-17-1 9-2z"/><path fill="#e6e3ff" d="M56 2l-7 3-9-2z"/><path d="M99 37l14-1-9 12z"/><path fill="#c8d5e1" d="M27 17h11v4z"/><path fill="#e3edfc" d="M77 12l6 3H67z"/><path fill="#969dab" d="M92 6l-2 1 1 4z"/><path fill="#d1b9b2" d="M77 26l-8 3 13-1z"/><path fill="#647f88" d="M62 11l22-6H63z"/><path fill="#6a6e77" d="M5-15l5 25-7-9z"/><path fill="#c6cee5" d="M42 5l-1 8 6-2z"/><path fill="#757c83" d="M99 40l-2-6v13z"/><path fill="#ddeaf3" d="M67 34l-7 5 7-1z"/><path fill="#beb0b9" d="M14 39l1-6 16 4z"/><path fill="#ad5f60" d="M56 27l16-5 13 4z"/><path fill="#e7ecff" d="M52 15l5-3 10 3z"/><path fill="#dcd3de" d="M66 21l14-4H60z"/><path fill="#dcd2e6" d="M63 38l2-11-3 1z"/><path fill="#728195" d="M116-15V2L91 22z"/><path fill="#dfb9c1" d="M23 1h-4l1 7z"/><path fill="#000307" d="M2 22l11-2-2 21z"/><path fill="#94696e" d="M28 35l-10-6-2 6z"/><path fill="#dda3a2" d="M81 28l3-1-4-4z"/><path fill="#01050d" d="M89 21l2-7 6 2z"/></svg>