<svg xmlns="http://www.w3.org/2000/svg" viewBox="0 0 400 200"><path fill="#6a676e" d="M0 0h400v200H0z"/><path fill="#d4c6d3" d="M53 12h270v147H53z"/><path d="M404 219L6 212l1-55 398 8z"/><path d="M52 215h-68V34h68z"/><path fill="#000305" d="M353 47l52 1-3 175-52-1z"/><path fill="#bdbac5" d="M348 162h-20V18h20z"/><path fill="#c72c22" d="M166 52l-86-7 2-24 86 8z"/><path d="M53 215L1 91l26-11 52 124z"/><path fill="#105a50" d="M103 107l2-26 65 4-1 27z"/><path fill="#8fb5d8" d="M406 81l-27-4 7-51 28 4z"/><path fill="#cd4f46" d="M182 109l1-27 133 5-1 26z"/><path fill="#fff" d="M292 50v11L94 64V53z"/><path fill="#000b11" d="M352 194v-311h25v311z"/><path d="M34 132V-12h18v144z"/><path fill="#f2f9ff" d="M243 21L68 24V12l175-3z"/><path d="M286-1V9H87V-1z"/><path fill="#b54d44" d="M146 116v27l-88-2 1-26z"/><path fill="#2a579c" d="M160 145v-27l84-1 1 26z"/><path fill="#3b726b" d="M338 24l1 24-91 1V26z"/><path fill="#457769" d="M262 118l74-2v33l-73 2z"/><path fill="#0f161f" d="M275 66v1L77 71v-2z"/><path fill="#e6efff" d="M348 62l-63 2V52l62-2z"/><path fill="#d7e2ee" d="M245 160l4-31 27 3-5 32z"/><path fill="#121210" d="M394 202l-397-7 1-36 397 7z"/><path fill="#ede9ff" d="M330 76v11l-124-2V74z"/><path fill="#d4e3f6" d="M328 9v14l-89-2V7z"/><path fill="#607ea0" d="M21 68l-24-3L9-20l23 3z"/><path d="M343-7V8l-56 1V-6z"/><path fill="#e6f2ff" d="M98 71l112 2v11L98 82z"/><path fill="#19343a" d="M39 78l37 5-4 25-37-5z"/><path fill="#e4e9f0" d="M269 110v10l-196-4v-9z"/><path fill="#3c6eb8" d="M173 24l57-3 2 28-58 3z"/><path fill="#5b6164" d="M390 149l16 75-20 4-16-75z"/><path fill="#f4998c" d="M157 222l37-54 4 2-37 55z"/><path fill="#d4d8f2" d="M291 11h57v11h-57z"/><path fill="#bd8076" d="M204 161l6-3 31 54-5 3z"/><path fill="#c1c3d2" d="M268 149v16l-175-6v-16z"/><path fill="#746b6c" d="M31 152l-33 75-6-2 34-76z"/><path fill="#252523" d="M348 74l-23 5-2-11 23-4z"/><path d="M-12 88l57-3 3 60-56 3z"/><path fill="#cedbf3" d="M186 25l-1 39h-19l1-39z"/><path fill="#c25f58" d="M262 86l78 3-1 26-78-2z"/><path fill="#eefeff" d="M245 23l2 33-12 1-3-33z"/><path fill="#c34d46" d="M116 36l-2 18-50-4 2-19z"/><path fill="#d4d3dd" d="M328 165l-61-5v-1l61 4z"/><path fill="#b2b9cd" d="M130 72v3L21 83v-3z"/><path fill="#c6887e" d="M334 180l-23 26-3-3 23-26z"/><path fill="#303238" d="M361 70l-133-5v-2l133 5z"/><path fill="#164e48" d="M259 38l-12 1-1-22 12-1z"/><path fill="#e9f1ff" d="M58 62V52l39 4-1 9z"/><path fill="#84b1ec" d="M358-4h2l2 53h-1z"/><path fill="#000064" d="M177 49l-1-25h1l2 25z"/><path fill="#fff7f6" d="M288 140v-5l35-1v5z"/><path fill="#b8806e" d="M73 170l36 55-5 3-37-54z"/><path fill="#416964" d="M76 94l64-2 1 16-64 2z"/><path fill="#dce3fa" d="M53-9h7l4 63-6 1z"/><path fill="#cfcbdb" d="M317 45l-2-22 11-1 2 22z"/><path fill="#d7d2e1" d="M346 77l-3 79h-6l3-79z"/><path fill="#c1c9e1" d="M93 148l-41 10-2-8 41-9z"/><path fill="#e4f5ff" d="M90 92l-2 46-5-1 3-45z"/><path fill="#f6eef2" d="M264 62h-3l-5-53h3z"/><path fill="#fff" d="M165 102l-7-1V90l8 1z"/><path fill="#fff7e9" d="M230 53l-6 1-6-27 6-2z"/><path fill="#4a6960" d="M293 156l-40-26 6-9 39 25z"/><path fill="#08170e" d="M60 9V1l94-2v8z"/><path fill="#000001" d="M185 204l12-45 16 4-11 45z"/><path d="M340 164l31 15-16 34-31-15z"/><path fill="#85929a" d="M378 73l-12 18-5-3 12-18z"/><path fill="#274f48" d="M341 141l-28 17-6-10 29-16z"/><path fill="#6f6659" d="M26 148l-4 1-15-32 4-2z"/><path fill="#d9dbdd" d="M131 138l1-47h4v47z"/><path fill="#d9dbf9" d="M339 51l-3-40 8-1 3 41z"/><path fill="#88929d" d="M356 155l-2-1 5-51h1z"/><path fill="#c19da0" d="M257 99l-46 9-4-20 46-9z"/><path fill="#c56867" d="M63 47l1-31 13 1-2 31z"/><path fill="#070702" d="M355 91l48-7 3 23-48 8z"/><path fill="#000b0e" d="M38-15l16 1-3 53-16-1z"/><path fill="#fffff6" d="M284 133l8-22 4 1-8 22z"/><path fill="#efeef6" d="M176 73l14 59h-2l-14-59z"/><path fill="#9a887f" d="M257 175l-49 50-1-1 49-50z"/><path fill="#e1f4fb" d="M145 41l1-14h7v14z"/><path fill="#002820" d="M178 89l-3 21h-1l3-22z"/><path fill="#8f96a0" d="M389 134l4 42-5 1-4-42z"/><path fill="#bdcff4" d="M6 17h2L5 53H3z"/><path fill="#f9f0fe" d="M308 18h2l-4 47h-2z"/><path fill="#00020a" d="M33 238L21 100l26-2 12 138z"/><path fill="#65849d" d="M379 2l26 1-1 71h-26z"/><path fill="#4e5b5f" d="M346 86l19-46 3 1-19 46z"/><path fill="#002a29" d="M335 25v1l-41-2 1-2z"/><path fill="#001f36" d="M8-3L-2 55h-5L4-4z"/><path fill="#fff" d="M306 141l4 5-8 5-4-5z"/><path fill="#d0daf3" d="M181 51l108 2v13l-108-2z"/><path fill="#0b3a2f" d="M280 51v-2l42-4v1z"/><path fill="#00000e" d="M350 28l4-40 7 1-4 40z"/><path fill="#800" d="M339 87h1l-2 22-1-1z"/><path fill="#a59ca7" d="M319 13L55 9V7l264 5z"/><path fill="#c7c3d6" d="M315 70v14l-82-3 1-14z"/><path fill="#283942" d="M46 83l-6-21 12-3 6 21z"/><path fill="#e0e3f3" d="M155 153v-7l79 3v6z"/><path fill="#d4bcba" d="M328 89l-1 30h-10l2-30z"/><path fill="#9e897d" d="M-17 153l37-6 1 8-37 5z"/><path fill="#e1dfe6" d="M198 96l-4 5-18-11 3-6z"/><path fill="#f7f1f0" d="M175 119l3 23h-1l-4-23z"/><path fill="#e9eaff" d="M272 154l-17 3-3-19 17-2z"/><path d="M374 110l-2 67-13-1 2-67z"/><path fill="#cee5ff" d="M60 150l-4-22 5-1 3 22z"/><path fill="#001719" d="M279 45l1-23h2l-2 23z"/><path fill="#ecf1f3" d="M247 143l-2-30 9-1 3 30z"/><path fill="#001218" d="M93 91l-1 1-2-13h1z"/><path fill="#97817c" d="M135 165l29 49h-1l-29-48z"/><path fill="#dfc7bc" d="M2 105l-1 20H0v-20z"/><path fill="#0e1014" d="M272 160v5l-70 1v-4z"/><path fill="#fffeff" d="M268 46h-1l4-25h2z"/><path fill="#ab9587" d="M177 189l-1 1-23-18 1-2z"/><path fill="#c1b7b1" d="M231 122h7l1 36h-6z"/><path fill="#f5eee2" d="M275 60h-1l2-47h2z"/><path fill="#949ba3" d="M406 154l-17-26 4-3 17 27z"/><path fill="#080c0a" d="M115 216l-31-28 18-21 32 28z"/><path fill="#a4a4ac" d="M343 163l-131-7v-2l131 7z"/><path fill="#807975" d="M127 158h2l-20 82h-2z"/><path fill="#deffff" d="M72 46l-10-7 2-2 10 7z"/><path fill="#5e6f6c" d="M288 116l2 1-49 125-1-1z"/><path fill="#8c766a" d="M113 174l1 1-32 40-1-1z"/><path fill="#000001" d="M385 66l-5 8-17-11 5-8z"/><path fill="#123984" d="M197 115v22h-8v-22z"/><path fill="#b65048" d="M124 33l-1-9 42-2 1 9z"/><path fill="#d9e4ff" d="M84 13h130v7H84z"/><path fill="#000004" d="M210 222l-28-25 19-21 28 26z"/><path fill="#eee5f7" d="M328 58l-2 1-6-37 2-1z"/><path fill="#81847e" d="M298 202h-2l-17-36 1-1z"/><path fill="#780004" d="M220 84h2l-3 28h-2z"/><path fill="#445051" d="M38-5l-2 50-16-1 2-50z"/><path fill="#13353b" d="M296 123v-1l44-3v1z"/><path fill="#001620" d="M265 22l3 26h-4l-2-26z"/><path fill="#dcd5e1" d="M158 19h2l2 45h-1z"/><path fill="#7eaee0" d="M360 30l4 10-7 3-4-10z"/><path fill="#001940" d="M226 144l4-28 2 1-4 28z"/><path fill="#264489" d="M199 51l-7-4 14-21 6 4z"/><path fill="#386465" d="M58 84l42-6v2l-42 6z"/><path d="M379 168l-2-31h5l2 31z"/><path fill="#000205" d="M83 201l-48 35-29-38 48-36z"/><path fill="#120f0f" d="M350 81l15 28-4 2-15-28z"/><path d="M235 221l22-47 7 3-22 47z"/><path fill="#dfeced" d="M290 118l27-6 1 3-27 6z"/><path fill="#00181e" d="M314 48h-2l-2-23h1z"/><path fill="#0e1315" d="M82 173v-13h81v13z"/><path fill="#918f89" d="M277 206l-4-32 2-1 3 33z"/><path d="M398 146l12 14-9 8-13-14z"/><path fill="#001a2c" d="M271 21l5 22h-2l-4-22z"/><path fill="#e3ecff" d="M111 82v-5l117 2v5z"/><path fill="#76635b" d="M72 185l-1-2 37-19 1 1z"/><path fill="#cecada" d="M333 131l5-15 12 5-5 14z"/><path fill="#193e3d" d="M326 25l10-1 2 25-9 1z"/><path fill="#33343c" d="M233 65l-61 4v-1l61-4z"/><path fill="#99877e" d="M138 222l-7-48h1l8 47z"/><path fill="#0a4552" d="M136 105l-3-20 11-1 3 20z"/><path fill="#e0dde2" d="M320 27v3l-26 4v-3z"/><path d="M-3 191l4-35 13 1-4 36z"/><path fill="#e2e1d4" d="M89 45l-1-1 2-31h2z"/><path fill="#e5eafe" d="M86 87l13 13-2 2-13-13z"/><path fill="#c4c5ce" d="M336 40h-1l18-50h2z"/><path fill="#002321" d="M101 104l-2 1-5-14h2z"/><path fill="#a3030b" d="M77 23l-9-6 1-1 9 6z"/><path fill="#d8d2dc" d="M79 41h-2l2-46h2z"/><path d="M151 203l-9 3-7-23 9-3zm20-8l-8 7-14-17 9-7z"/><path fill="#1e1c07" d="M191 6v-8h119v8z"/><path fill="#004b4e" d="M260 121l26-5v2l-26 5z"/><path fill="#a24a4e" d="M252 82l-7 14-8-5 7-13z"/><path fill="#5a5a55" d="M373 189l7-133h2l-7 133z"/><path fill="#1e3d7a" d="M214 143l33 2v1l-33-2z"/><path fill="#002d95" d="M209 26l27-5 1 2-28 4z"/><path fill="#a24c48" d="M90 143l-2-25 30-3 2 25z"/><path fill="#00186d" d="M222 43l-9-8 1-1 9 8z"/><path fill="#3d424d" d="M133 67l-86 4v-2l86-4z"/><path fill="#00293d" d="M252 14l-4 34h-1l3-35z"/><path fill="#e1d8c6" d="M255 21l-3 22h-2l3-22z"/><path fill="#4873b6" d="M158 119v20h-11v-20z"/><path fill="#a40f18" d="M122 52l-3-1 4-20 3 1z"/><path fill="#0035a7" d="M189 49h-1l-4-28h2z"/><path fill="#d4d5d6" d="M151 84l2 1-5 48h-2z"/><path fill="#7d7972" d="M320 197l-27-26 1-1 27 26z"/><path fill="#a43c41" d="M271 110l-17-1 1-24 17 1z"/><path fill="#dfd2c4" d="M167 117h2l3 33h-1z"/><path fill="#254b5f" d="M405 75v11h-36V75z"/><path fill="#950b0d" d="M206 107l4-25h1l-4 25z"/><path fill="#09443f" d="M77 105h-2l6-24h2z"/><path fill="#e5ddc4" d="M104 20h2l-2 28h-2z"/><path fill="#960008" d="M331 102h-1l-3-15h1z"/><path fill="#fff" d="M389 63l-6 1-1-6 6-1z"/><path fill="#d6e0e7" d="M137 121v7l-16-1v-6z"/><path fill="#eefbff" d="M253 101h-2l4-25h1z"/><path fill="#001422" d="M295 48h-1l-3-23h1z"/><path fill="#cdd6e2" d="M242 111h-2l-5-42h2z"/><path fill="#856e6b" d="M254 165l-40 17-1-1 40-18z"/><path fill="#8f0d19" d="M133 116l-2 26h-3l2-26z"/><path fill="#315352" d="M272 154l2-14 15 2-2 14z"/><path fill="#385489" d="M199 119h19v26h-19z"/><path fill="#00151e" d="M45 46l-1 33-19-1 2-33z"/><path fill="#951828" d="M189 87l-6 22-1-1 5-21z"/><path fill="#963a2f" d="M243 112l-18-21 2-2 19 21z"/><path fill="#01373a" d="M327 113l9 4-2 6-9-4z"/><path fill="#7b7b86" d="M270 66v2l-132 5v-2z"/><path fill="#dff0ed" d="M110 62l-2-1 9-18 1 1z"/><path fill="#deedf4" d="M137 155l-2-39h2l1 39z"/><path fill="#000e18" d="M8 39h2l2 33h-1z"/><path fill="#a41c22" d="M316 112l21-17 1 1-21 17z"/><path fill="#1a2e45" d="M24 71L-5-31l1-1L26 70z"/><path fill="#022537" d="M379-2l-1 53h-8l1-53z"/><path fill="#000609" d="M325 12l-3-19 17-3 3 19z"/><path fill="#8b9cb8" d="M-1 72l11-43 2 1L1 72z"/><path fill="#00080d" d="M55 85L37 234l-19-2L37 83z"/><path fill="#fff8fd" d="M195 29l4-13h1l-3 14z"/><path fill="#969cad" d="M58 149l-6-1 4-48h6z"/><path fill="#3b5f75" d="M373 21l1-41 20 1-1 40z"/><path d="M253 162l5 6-28 25-5-6z"/><path fill="#00291d" d="M259 44l-9 8-1-1 9-8z"/><path fill="#001520" d="M250 29l1-1 7 10-1 1z"/><path fill="#002373" d="M230 25l3 26-2 1-3-27z"/><path fill="#e4e8dd" d="M265 81l-1 18-3-1 1-17z"/><path fill="#dee1f6" d="M345 84l-1 3-59-4v-3z"/><path fill="#003b40" d="M284 21l4 22h-1l-5-22z"/><path fill="#b69e85" d="M374 122l-1-7 8-1 1 7z"/><path fill="#8c000d" d="M293 92l2-1 7 19-1 1z"/><path fill="#e5ebff" d="M294 12v8l-33 1v-8z"/><path fill="#002210" d="M310 39l9-6 1 2-10 5z"/><path fill="#d1d7ef" d="M61 72h27v8H61z"/><path fill="#00222d" d="M120 104l-8-18 1-1 8 19z"/><path fill="#870006" d="M132 52h-1l-9-30h2z"/><path fill="#9a1d1d" d="M65 53l18-12 1 1-19 12z"/><path fill="#f0e2e2" d="M330 40h1l3 12h-1z"/><path fill="#e2e6c6" d="M75 33l-9-6 4-8 10 6z"/><path fill="#ebecfb" d="M185 63l-6-36h3l6 35z"/><path fill="#a87b76" d="M219 182l26 24-3 4-27-24z"/><path fill="#dde5c5" d="M308 116h-2l-3-24h2z"/><path fill="#a9544e" d="M202 110l56-6 1 3-56 6z"/><path fill="#a0afa4" d="M334 110l-9 35h-1l9-35z"/><path fill="#f8e8c1" d="M108 43l3-13h2l-4 14z"/><path fill="#000414" d="M358 7l-5 47h-3l5-47z"/><path fill="#8e8e98" d="M67 158v-6l199 4v6z"/><path fill="#00313d" d="M309 34l1-14 2 1-2 14z"/><path fill="#dad2e0" d="M310 65l-7-50h1l7 50z"/><path fill="#00272c" d="M331 155l3-18h2l-3 19z"/><path fill="#fff0c3" d="M212 32l2-4 7 4-3 4z"/><path fill="#e8deb6" d="M121 79h1v28h-2z"/><path fill="#7b000e" d="M155 22l3 26h-2l-3-26z"/><path fill="#dfe8fa" d="M183 70l3 1-5 45-3-1z"/><path fill="#d7ccbe" d="M283 84h2l9 55-2 1z"/><path fill="#9299b8" d="M16-17l4 54h-3l-4-54z"/><path fill="#031622" d="M381 49l10 4-2 3-9-5z"/><path fill="#125445" d="M318 159l-1 1-14-5v-1z"/><path fill="#d5cfc6" d="M288 63l-7-24h1l7 24z"/><path fill="#8b0000" d="M68 31h-2l-4-13 1-1z"/><path fill="#7f848f" d="M413 179l-31 2v-2l31-2z"/><path fill="#6c0000" d="M156 37v-2l8 2v1z"/><path fill="#abaab8" d="M69 60l129 5v1L69 62z"/><path d="M295 174l18 31-7 4-18-31z"/><path fill="#7f0003" d="M164 45l-3-22h2l2 21z"/><path fill="#053d9f" d="M245 137h-8l1-16h8z"/><path fill="#e8eaef" d="M151 33h1l2 23h-1z"/><path fill="#970512" d="M318 84l1-1 5 10h-1z"/><path fill="#c9cac4" d="M226 121l-4 20-3-1 4-20z"/><path fill="#1d5154" d="M303 121l1 1-8 33h-2z"/><path fill="#881412" d="M206 99l18-4v2l-18 3z"/><path d="M290 206l-14-31 4-2 15 31zm-24-26l9 2-5 30-9-1z"/><path fill="#bbaa95" d="M378 98l3-1 2 7-3 1z"/><path fill="#7d797e" d="M25 167l-31 65-2-1 32-64z"/><path fill="#b3c8ea" d="M62 96l-6-15h2l6 14z"/><path fill="#8996a2" d="M351 145h-2l2-45h1z"/><path fill="#2e4a88" d="M149 145v-2l35-2v2z"/><path fill="#d3e0ff" d="M59 62v-3l109-4v3z"/><path fill="#e4f4ed" d="M222 89l3-1 5 13-3 1z"/><path fill="#c6c7b4" d="M195 131l7-39 2 1-8 38z"/><path fill="#7f8898" d="M353 70l10-33 1 1-9 33z"/><path fill="#e4effa" d="M165 18l3-1 6 36h-2z"/><path fill="#edd5c6" d="M140 98h1l2 15h-1z"/><path fill="#001522" d="M169 109h-1l-1-22h1z"/><path fill="#d7daec" d="M158 146v6l-33 1v-7z"/><path fill="#fbfff2" d="M201 44l7 13-1 1-8-14z"/><path fill="#dad3d1" d="M323 111l4-36h2l-4 36z"/><path fill="#921016" d="M136 47V33h8v14z"/><path d="M180 182l-30-13 3-6 30 14z"/><path fill="#6e5b5c" d="M193 173l-1 2-43-16 1-1z"/><path fill="#00127e" d="M206 52l-1-11h3l1 11z"/><path fill="#ffeee1" d="M271 125l-11 7-1-2 11-7z"/><path fill="#fff" d="M296 37h4v6h-5z"/><path fill="#a4a9b7" d="M346 63l-1-34h4l2 34z"/><path fill="#f2ecfa" d="M298 156l7-24 1 1-6 24z"/><path fill="#ffffe3" d="M190 28l1 17h-1l-2-17z"/><path fill="#9f7167" d="M166 212l-5-4 18-22 5 4z"/><path fill="#00111e" d="M1 57h1l11 19h-1z"/><path fill="#e0e1e6" d="M66 90l-2-1 3-12 2 1z"/><path fill="#c7c5c0" d="M140 94l-8-62h2l7 62z"/><path fill="#990d22" d="M105 49l-4 2-11-17 4-2z"/><path fill="#fffbe9" d="M128 99h-2l1-12h1z"/><path fill="#ebf2ff" d="M217 21l2-1 9 14-1 1z"/><path fill="#070602" d="M362 110l24-8 3 8-23 9z"/><path fill="#ebf2f9" d="M277 115v2l-37-2v-2z"/><path fill="#d1d0ca" d="M370 87l-1 2-6-3 1-1z"/><path fill="#2c5448" d="M67 107v-1l36-2v1z"/><path fill="#d2c0ba" d="M136 72l-3 36h-1l2-36z"/><path fill="#000108" d="M345 171l39 20-18 36-39-20z"/><path fill="#e4ffe8" d="M244 84l9 6-2 3-9-7z"/><path fill="#fff" d="M153 126l4 8-2 1-4-9z"/><path fill="#f3e9c3" d="M198 22l-2 23h-1l1-23z"/><path fill="#edc37e" d="M106 55v2l-42-4v-2z"/><path d="M364 133v-6l23-2 1 6zm20 15l-2 4-21-11 3-4z"/><path fill="#00010a" d="M367-7v28h-5l1-28z"/><path fill="#003743" d="M110 80l-7 24-2-1 7-24z"/><path fill="#d5e4f9" d="M92 110l118 4v3l-119-4z"/><path fill="#d2e9dc" d="M247 107l-10-18 2-1 10 18z"/><path fill="#fee5bf" d="M186 117h2v36h-2z"/><path fill="#000c77" d="M190 113l1 31h-2v-31z"/><path fill="#910016" d="M61 27l2-2 16 15-3 2z"/><path fill="#8c1929" d="M277 108h-2l3-24 1 1z"/><path fill="#0b3f8c" d="M192 26l-20-2v-2l20 2z"/><path fill="#91131e" d="M239 88l2-1 15 17-1 1z"/><path fill="#e5dec6" d="M95 145l1-36h1v36z"/><path fill="#000603" d="M326 181l-5 8-27-19 5-8z"/><path fill="#f1cba8" d="M280 140l-14-2v-2l14 3z"/><path fill="#f1eef8" d="M320 44l-4 2-3-7 4-2z"/><path fill="#bb9a55" d="M209 149l40-4v2l-40 3z"/><path fill="#ebe3dc" d="M202 136l-1-23h2v23z"/><path fill="#ddc5b2" d="M103 113h1l-2 22h-2z"/><path fill="#869199" d="M399 186l-17 27h-1l17-28z"/><path fill="#a29daf" d="M55 14v-1l192-4v2z"/><path fill="#436763" d="M325 140l-21-7 4-12 21 7z"/><path fill="#bdb7bc" d="M328 162v1l-73-8v-1z"/><path fill="#590000" d="M118 117l1 24h-1l-1-24z"/><path fill="#080a0a" d="M388 179l20-27 3 1-21 28z"/><path fill="#0d4847" d="M150 90l1-1 10 20h-1z"/><path fill="#e7f2fe" d="M104 73h2l-6 21h-1z"/><path fill="#002726" d="M307 43l-2 1-7-10 1-1z"/><path fill="#64696d" d="M353 7v1l-108 2V9z"/><path fill="#f2c4b9" d="M115 102h1l-1 28h-2z"/><path fill="#780000" d="M308 88h2l-1 22h-2z"/><path fill="#d9cab5" d="M184 122l1 1-8 13-2-1z"/><path fill="#e4ded4" d="M287 30l1-1 8 37h-1z"/><path fill="#3e5181" d="M195 118h43v3l-43 1z"/><path fill="#f2f6e9" d="M166 109h-2V83h2z"/><path fill="#823a31" d="M72 134l-9 2-2-13 9-1z"/><path fill="#dbc6cc" d="M332 87h1l3 28h-2z"/><path fill="#7f8d9f" d="M73 70v2l-29-3v-2z"/><path fill="#8492a8" d="M385 24l9-2 10 52-9 2z"/><path fill="#bac0be" d="M70 137l7-51h2l-8 51z"/><path fill="#d8edef" d="M213 107l2-19h2l-3 19z"/><path fill="#ffe6be" d="M216 45l-10-10 1-1 10 10z"/><path d="M-5 150l-5-18 23-5 4 18z"/><path fill="#cdafa0" d="M110 152h-1l-5-53h1z"/><path fill="#254071" d="M196 138v-1l38-8v2z"/><path d="M-3 97V86l48-3 1 11z"/><path fill="#dadde9" d="M187 19l-6 29h-1l6-29z"/><path fill="#0b0c08" d="M345 84l22-28 11 8-22 29z"/><path fill="#820012" d="M338 93h2l-5 19-1-1z"/><path fill="#cacedd" d="M54 17l19 29-1 1-19-29z"/><path fill="#c59964" d="M179 149l-88-8v-1l89 8z"/><path fill="#3b6e6c" d="M273 126l10-16 5 3-10 16z"/><path fill="#002b1c" d="M257 25l-5-10 2-1 5 10z"/><path fill="#02534e" d="M174 98h-1l4-17 2 1z"/><path fill="#d3dedf" d="M111 95h-1l-1-25h2z"/><path fill="#a92b38" d="M139 116h5l-1 22h-4z"/><path fill="#71859d" d="M348 81l-28-1v-6l28 1z"/><path fill="#b7b6c2" d="M190 125l7-48h2l-7 48z"/><path fill="#efd4bf" d="M331 32l-3-5 2-1 3 5z"/><path fill="#b6b1c2" d="M181 70v6L70 78v-6z"/><path fill="#edf4f9" d="M140 30l-2-1 5-10 1 1z"/><path fill="#00141e" d="M98 79l-2 3-5-4 2-2z"/><path fill="#dcd9cf" d="M295 161l-2 1-5-15 2-1z"/><path fill="#595557" d="M352 70l5 39h-1l-6-38z"/><path fill="#001214" d="M124 83h2l-2 26h-1z"/><path fill="#00353b" d="M109 105l-3-24h2l3 24z"/><path fill="#676a6d" d="M387 151l-4-2 9-29 5 1z"/><path fill="#001472" d="M189 114l1-1 4 2-1 2z"/><path fill="#0b2c88" d="M175 130l-10 3-1-2 11-3z"/><path fill="#174695" d="M199 22h6l4 23-7 1z"/><path fill="#bbab8c" d="M332 142l-2 18h-1l1-19z"/><path fill="#d3c7b5" d="M302 143l-1-5 27-4v5z"/><path fill="#003a37" d="M268 49l6-9h1l-6 9z"/><path d="M124 176h8l-1 40h-8z"/><path fill="#b3b2bf" d="M344 57v6l-77 3v-6z"/><path fill="#03373f" d="M311 145l-1-1 28-6v1z"/><path fill="#980d20" d="M239 99l10 10-2 3-10-10z"/><path fill="#1c4448" d="M337 120h-82v-1h82z"/><path fill="#d6c4d4" d="M84 103l8 4-2 7-9-3z"/><path fill="#eec08f" d="M214 118h2v19h-2z"/><path fill="#ccc5c6" d="M316 151l1-1 15 13-1 1z"/><path fill="#e6e9d2" d="M145 47l-1-1 3-10h1z"/><path fill="#d4dcf8" d="M255 59l1-8 81 1v8z"/><path fill="#8d3734" d="M83 119l-17-4v-1l17 3z"/><path fill="#f2e5fc" d="M281 31l4-5 1 1-4 5z"/><path fill="#d6cfdc" d="M236 108l3 36h-1l-4-36z"/><path fill="#c4cac4" d="M292 74h2l-3 22h-2z"/><path fill="#ab9684" d="M377 131l2 1-5 10-1-1z"/><path fill="#ac3f4a" d="M235 88l-25-4v-2l25 4z"/><path fill="#430011" d="M75 117h2l-1 24h-1z"/><path fill="#d2e9f7" d="M316 104l4-8 3 1-4 9z"/><path fill="#80223f" d="M200 89l-3 17h-2l3-17z"/><path fill="#cdd5ef" d="M61 108l24 3v5l-25-4z"/><path fill="#d6d4e8" d="M68 8l2 3-11 10-2-2z"/><path fill="#d9ffff" d="M224 98l2 8h-1l-3-7z"/><path fill="#facba5" d="M280 105l-2-1 3-13h2z"/><path fill="#1e2e31" d="M72 107L50 89l1-1 22 18z"/><path fill="#024e49" d="M97 94l-1 1-10-12 1-1z"/><path fill="#d9dfcf" d="M131 23l-3 9h-1l2-9z"/><path fill="#960516" d="M75 18l-11 2v-2l11-2z"/><path fill="#e9d4d3" d="M134 102l-9 20h-1l8-21z"/><path fill="#8f0316" d="M248 82l-6 2-1-2 6-2z"/><path fill="#9c5957" d="M66 163l5 1-1 9-5-1z"/><path fill="#930000" d="M131 24v20h-2l1-21z"/><path fill="#7c735a" d="M180 29l-1 22h-1l1-22z"/><path fill="#840d15" d="M232 96h-2l-4-12h2z"/><path fill="#000004" d="M362 114l-6-5 22-25 5 6z"/><path fill="#044176" d="M157 134l-1-47h1l1 47z"/><path fill="#283b5b" d="M218 123v-1l25-3v1z"/><path fill="#000a91" d="M194 50h-1l-1-17h1z"/><path fill="#d6dfda" d="M318 84l-8 10-1-1 7-10z"/><path fill="#d2cec6" d="M128 55h-2l-2-17h1z"/><path fill="#beb9d1" d="M80 138h-2V95h2z"/><path fill="#d9d8d7" d="M237 102l16 28-1 1-16-29z"/><path fill="#8c8fa1" d="M194 75l21-6 2 4-21 7z"/><path fill="#8a7363" d="M393 96l2-2 10 8-2 2z"/><path fill="#00565c" d="M173 97v2l-7-4v-1z"/><path fill="#1f4e49" d="M267 136l-14-7 1-1 13 7z"/><path fill="#91a1c3" d="M3 13h1l8 22-2 1z"/><path fill="#e9dff0" d="M166 71l-11 17-1-1 11-17z"/><path fill="#bbbdd0" d="M298 11h39v11h-38z"/><path fill="#cbbba5" d="M259 52l-75-1v-2l75 2z"/><path fill="#e4efff" d="M258 44l1-1 10 12-1 1z"/><path fill="#000202" d="M72 163l29-3 1 7-30 3z"/><path fill="#f4f0fa" d="M175 126l1-1 7 10-1 1z"/><path fill="#95061e" d="M296 94l-5 17-1-1 5-16z"/><path fill="#212433" d="M51 77v-2l9-3v1z"/><path fill="#716861" d="M145 166l1-1 27 21-1 1z"/><path fill="#00080d" d="M211 179l7 10-40 27-7-10z"/><path fill="#a8a7b5" d="M58-2v65h-5V-2z"/><path fill="#ffefba" d="M194 133v8h-2v-8z"/><path d="M119 172l4 1-21 48-5-2z"/><path fill="#ece4d3" d="M256 104h2l3 15-1 1z"/><path fill="#d7c5b3" d="M121 23h2l-2 12h-2z"/><path fill="#ead0a0" d="M208 13v23h-1l-1-23z"/><path fill="#ced6f3" d="M246 49h-9V12h9z"/><path fill="#94918c" d="M366 25h1l6 11h-1z"/><path fill="#25232f" d="M182 66v2l-59-1v-2z"/><path fill="#003551" d="M326 30l4 13-1 1-5-14z"/><path fill="#040d12" d="M412 185l-15 33-10-4 15-33z"/><path fill="#82858c" d="M59 71l-5 88-2-1 5-87z"/><path fill="#fee8e4" d="M145 81l1 11h-2l-1-11z"/><path fill="#d3c7c2" d="M92 16l2-1 6 21-1 1z"/><path fill="#7e695e" d="M267 173l3 1-16 39-3-1z"/><path fill="#800003" d="M105 22h1v20h-1z"/><path fill="#9d0000" d="M94 29l-1 22h-1l1-22z"/><path fill="#002c2c" d="M257 45l-3-1 3-6 3 1z"/><path fill="#cecfd8" d="M305 59l3-39h1l-3 39z"/><path fill="#696668" d="M390 184l10-14 2 1-10 14z"/><path fill="#9b0919" d="M122 52l-6-30 1-1 7 31z"/><path fill="#736665" d="M11 175l13-17 4 3-13 17z"/><path fill="#000303" d="M265 167l2 2-36 47-3-2z"/><path fill="#265453" d="M316 128l-2-2 19-12 1 3z"/><path fill="#8492ab" d="M384 6l5 33h-3l-5-32z"/><path fill="#842a3d" d="M206 107h-1l-3-22h1z"/><path fill="#595f65" d="M51 83v1l-35-3v-1z"/><path fill="#666860" d="M248 180l13-13 1 1-12 14z"/><path fill="#00271e" d="M96 84l-1-1 4-3 1 1z"/><path d="M92 195l-10-10 9-9 10 10z"/><path fill="#3057a2" d="M150 117h1l-2 21-2-1z"/><path fill="#ddd7bd" d="M265 17l3-1 3 28-4 1z"/><path fill="#536a82" d="M3 0h1l26 70-1 1z"/><path fill="#003e50" d="M149 87h1l-6 21h-2z"/><path fill="#ead5c3" d="M252 131l-1-38h2l1 37z"/><path fill="#e7f6e8" d="M201 33h2v8h-1z"/><path fill="#225861" d="M266 127l27 19-1 1-27-19z"/><path fill="#003440" d="M142 84h2l-6 24h-2z"/><path fill="#000003" d="M10 84l25 41-12 8-25-41z"/><path d="M147 167l23 39-6 4-23-40z"/><path fill="#77001d" d="M63 42l5 7-1 2-5-8z"/><path fill="#96605b" d="M198 164l-13 29-6-3 13-28z"/><path fill="#940f20" d="M83 23h2l5 31h-1z"/><path fill="#e2ca94" d="M296 27l2 17h-1l-3-17z"/><path d="M368 50l7 20-10 4-8-20z"/><path fill="#b59c7e" d="M96 109v-1h110v1z"/><path fill="#1f4340" d="M336 138l-20-4v-2l20 5z"/><path fill="#bcb6a2" d="M279 127l-1-1 7-14 2 1z"/><path fill="#dbdedd" d="M211 94l10-16 1 1-10 16z"/><path fill="#003b4e" d="M288 112l-4 16h-2l5-17z"/><path fill="#002f35" d="M279 35l1-1 20 14v1z"/><path fill="#7c3524" d="M82 140l-19 1v-1l19-2z"/><path fill="#bfc0d9" d="M60 150v-8l57 3-1 8z"/><path fill="#040904" d="M377 146l9 28-2 1-10-29z"/><path fill="#d4dcd7" d="M269 121h2l-1 19h-2z"/><path fill="#6f6562" d="M107 231h-2l21-64 2 1z"/><path fill="#feebd5" d="M187 105l1-11h2l-2 11z"/><path fill="#cdd2e3" d="M207 159l68-17 1 1-69 17z"/><path fill="#003327" d="M92 103l-1 1-3-6h1z"/><path fill="#921b27" d="M82 25l2 17h-1l-3-17z"/><path fill="#bad8ff" d="M86 120l3 20-1 1-4-20z"/><path fill="#deb788" d="M81 52v-2h89v2z"/><path fill="#981129" d="M312 106l5-20h1l-5 20z"/><path fill="#002168" d="M210 41l2-1 4 8-1 1z"/><path fill="#c4c5d5" d="M25 80v-2h20v2z"/><path fill="#00184f" d="M217 120h2v22l-2-1z"/><path fill="#604c42" d="M299 213l37-45 1 1-37 45z"/><path fill="#00393e" d="M288 27l-12-4v-1l12 3z"/><path fill="#93796e" d="M375 177h-2l4-25 1 1z"/><path fill="#dfe1e7" d="M275 38l2-1 3 14-2 1z"/><path fill="#000073" d="M245 137l1 5h-2l-1-4z"/><path fill="#04090e" d="M161 159l24 4v5l-25-4z"/><path fill="#003247" d="M129 85l1-1 2 14h-1z"/><path fill="#0026a3" d="M191 26h2l2 9h-2z"/><path fill="#040b0b" d="M383 95h3l5 34h-3z"/><path fill="#970002" d="M337 103l-1 1-6-5 1-1z"/><path fill="#e1dbe5" d="M285 133v-2l19 7v1z"/><path fill="#00172d" d="M154 108h-2l-1-17h1z"/><path fill="#f3dbb9" d="M88 85l-8 5-1-1 8-5z"/><path fill="#9c4043" d="M142 127v2l-54 8v-2z"/><path fill="#a1a6be" d="M343 26l6-29h3l-6 30z"/><path fill="#9b2f2e" d="M105 136l-2-1 19-19 1 1z"/><path fill="#cab694" d="M341 112l-53 4v-1l53-5z"/><path fill="#bfb7aa" d="M213 153l-4-17h2l3 17z"/><path fill="#bb8f6e" d="M340 88h2l-3 25h-1z"/><path fill="#a63739" d="M280 90l7-3 3 9-7 3z"/><path fill="#9e4449" d="M140 120l-22-2v-2l22 2z"/><path fill="#000b96" d="M165 140l-2-22h2l1 22z"/><path fill="#08161d" d="M391 183l3 1-8 22-3-1z"/><path fill="#003044" d="M317 157h-1l-4-9h2z"/><path fill="#ecd8d9" d="M297 126v-3l4-1 1 4z"/><path fill="#c5b7a3" d="M206 115h2v31h-2z"/><path fill="#e4d4cf" d="M118 46l-8-37h2l8 37z"/><path fill="#b0bebb" d="M200 109h-1l2-26h2z"/><path fill="#00303a" d="M119 108l-1-27h2l1 27z"/><path fill="#0d413b" d="M291 50l-2 1-6-18 1-1z"/><path fill="#00414e" d="M317 147l1-1 11 8-1 2z"/><path fill="#08202e" d="M10 4L-7 26l-2-1L9 3z"/><path fill="#808486" d="M365 42l4 7-5 2-3-7z"/><path fill="#29434c" d="M25 72l1 12-44 2V74z"/><path fill="#e3dde4" d="M132 87l-2-1 2-9 2 1z"/><path fill="#fff5dd" d="M116 81l2 8h-2l-1-8z"/><path fill="#c0c6df" d="M59 100l1-1 4 9-1 1z"/><path fill="#d4dcf4" d="M167 28h8v30h-8z"/><path fill="#585159" d="M116 160l-43-1v-2l43 2z"/><path fill="#dce2f4" d="M323 86l-78-6v-2l78 6z"/><path fill="#e7e8dc" d="M173 80l1 1-2 12h-1z"/><path fill="#d3d0af" d="M267 105l3 13-1 1-4-14z"/><path fill="#def0ff" d="M169 79v-1l17 7v2z"/><path fill="#cbd4e5" d="M164 119l-43-4 1-8 43 4z"/><path fill="#002474" d="M214 38l-6-11 2-1 5 11z"/><path fill="#001c32" d="M84 106h-2l-1-14h1z"/><path fill="#000d12" d="M366-40l11 90h-1l-11-89z"/><path fill="#9a1e32" d="M300 105h-1l5-21h2z"/><path fill="#fddd85" d="M150 139v-20h1l1 20z"/><path fill="#b07876" d="M327 188l-19 23-2-1 19-23z"/><path fill="#961119" d="M107 52l-2-2 5-6 2 2z"/><path fill="#cde5e2" d="M287 112l-2-9 1-1 3 9z"/><path fill="#001418" d="M46-24l5 86-11 1-5-86z"/><path fill="#e5dbcf" d="M332 128h7l-1 5-6-1z"/><path fill="#778394" d="M77 75l-8-2 2-9 8 2z"/><path fill="#fff1ca" d="M279 148l1 8h-1l-2-7z"/><path fill="#003844" d="M266 126l3 1-3 8-3-2z"/><path fill="#c3c3d4" d="M335 146l11-3 2 10-11 2z"/><path fill="#d2dae3" d="M277 14l3-4 14 12-3 4z"/><path fill="#000005" d="M357 96l4-1 6 67-5 1z"/><path fill="#033941" d="M134 82l7 19h-2l-6-19z"/><path fill="#8d121f" d="M114 44l-3-14h2l2 14z"/><path fill="#97abb9" d="M392-16l18 38-4 2-18-38z"/><path fill="#000106" d="M21 232l-9-2 22-98 9 2z"/><path d="M136 172l20 41-3 1-20-41z"/><path fill="#79889f" d="M5 14h1l13 51-2 1z"/><path fill="#d2c4b8" d="M197 114h1v33h-1z"/><path fill="#c8d3f3" d="M194 24V14l39-2v10z"/><path fill="#072e8f" d="M216 50l6-9 1 1-6 9z"/><path fill="#000209" d="M3 69l1-2 22 7v1z"/><path fill="#d3c9bd" d="M162 89l-2 14h-2l3-14z"/><path fill="#580006" d="M80 137l-1-10h2l1 10z"/><path fill="#7c8295" d="M325 9l1 18h-2l-1-17z"/><path fill="#cbdbef" d="M260 17l2-1 1 35h-1z"/><path fill="#e8fcff" d="M133 139v-5l5 1-1 4z"/><path fill="#002634" d="M272 133v-11h2l-1 11z"/><path fill="#090807" d="M371 77h-5l2-40h5z"/><path fill="#8b868a" d="M367 77l9 5v2l-10-6z"/><path fill="#302929" d="M318 67v-1l28 3v1z"/><path fill="#757372" d="M279 222l-5-45h2l5 45z"/><path fill="#050c0f" d="M33 73l1-2 19 8-1 1z"/><path fill="#083e32" d="M83 95l-14-2v-1l14 1z"/><path fill="#000006" d="M352 155h13v29h-13z"/><path fill="#cfdcf1" d="M227 53v2L72 58v-2z"/><path fill="#8e7d75" d="M337 71l-17-2v-1l17 2z"/><path fill="#981f2c" d="M150 32l-6-9 1-1 6 10z"/><path fill="#f4ddde" d="M295 29l7-2 2 5-8 2z"/><path fill="#0e4238" d="M257 26l-7-12 1-1 8 12z"/><path fill="#b7bacd" d="M348 71l5-4 1 1-5 4z"/><path fill="#cea9b3" d="M317 143l1 1-5 6-1-1z"/><path fill="#163c45" d="M333 121l1 1-6 24h-1z"/><path fill="#051b20" d="M55 94l-2 19-22-3 2-18z"/><path fill="#9599a6" d="M351 153h-6V92h6z"/><path fill="#06353f" d="M116 81l-4 21h-2l5-21z"/><path fill="#0c3088" d="M190 144l11-9 1 1-11 9z"/><path fill="#e2eebf" d="M300 82v16h-2V82z"/><path fill="#dedff5" d="M73 79v-2l15 2v2z"/><path fill="#254954" d="M395 20h-3l-8-38 3-1z"/><path fill="#e1f7ff" d="M121 121l1-1 6 8-2 1z"/><path fill="#0d3b4b" d="M273 151l14-11 1 1-14 11z"/><path fill="#233f4e" d="M20 69l-1-33h9l2 33z"/><path fill="#001e29" d="M337 46l-2 1-4-13 1-1z"/><path fill="#757276" d="M230 160l-71 2v-2l71-1z"/><path d="M406 93l-36-1v-5l36 1z"/><path fill="#d5e1ca" d="M156 35l4-15h1l-3 15z"/><path fill="#9c0012" d="M187 84l7 4-1 2-7-5z"/><path fill="#919480" d="M270 142l31 1v1l-31-1z"/><path fill="#91919d" d="M92 152l-38 7-1-3 39-7z"/><path fill="#042d90" d="M203 22h1l-5 23h-1z"/><path fill="#69615e" d="M146 185l-14-26 1-1 15 26z"/><path fill="#003c39" d="M293 124l4 9-1 1-4-9z"/><path fill="#f6eeff" d="M168 120h2l1 11h-2z"/><path fill="#c8c9c2" d="M302 124l-8 8-1-2 8-7z"/><path fill="#905553" d="M81 196l-15-27 2-1 14 28z"/><path fill="#204251" d="M373 71l11-8 4 5-11 8z"/><path fill="#f4f3e2" d="M170 115l1-16h2l-2 16z"/><path fill="#2f2d1b" d="M204-5V7h-75V-5z"/><path fill="#d2c2a1" d="M206 113v-1l74-2v2z"/><path fill="#767b83" d="M218 66h-94v-2h94z"/><path fill="#ab8f7a" d="M402 112l-6 1v-1l6-2z"/><path fill="#4c5159" d="M349 165l-59-1v-2l59 1z"/><path fill="#c9e3df" d="M293 117l1-14h2l-1 14z"/><path fill="#e0b8a5" d="M83 55l-1-24h2l1 24z"/><path fill="#000709" d="M275 163l6-1 5 36-6 1z"/><path fill="#c5b089" d="M168 55h-3V22h3z"/><path fill="#a8b3b9" d="M358 154h-1l-1-16h1z"/><path fill="#862524" d="M78 46l2-1 3 7-2 1z"/><path fill="#9d3432" d="M206 101v-2l15-4v1z"/><path fill="#000507" d="M402 146l-2 17-10-1 2-17z"/><path fill="#605436" d="M79 105l1 1-17 4v-2z"/><path fill="#e0d2d4" d="M297 144l11 1-1 6-11-1z"/><path fill="#ced8e4" d="M330 79l1 1-19 8-1-1z"/><path fill="#7e8d9e" d="M385 149h1l3 19h-2z"/><path fill="#c8aa7c" d="M208 39h2l2 14h-1z"/><path fill="#e7dbaf" d="M93 82l11 12-2 1-10-12z"/><path fill="#000309" d="M273 163h3l-13 63h-3z"/><path fill="#c3c9ca" d="M318 135l-8 6-1-3 7-5z"/><path fill="#02449a" d="M174 29h2l4 21-1 1z"/><path fill="#f1faff" d="M226 27h1l-1 17h-1z"/><path d="M96 199l13-13 6 7-13 13z"/><path fill="#000007" d="M185 179l-7 8-12-11 8-8z"/><path fill="#bfb6aa" d="M246 130l5 16-1 1-6-17z"/><path fill="#574e45" d="M375 191l-4-37h2l4 37z"/><path fill="#eed9c7" d="M290 119l4 8-4 2-4-8z"/><path fill="#5b0d1d" d="M105 116v22h-2v-22z"/><path fill="#c7cbc5" d="M304 131l-2 6-1-1 1-6z"/><path fill="#a50019" d="M98 52l1-30h2l-1 30z"/><path fill="#a2b6b8" d="M288 118l35-1v1l-36 1z"/><path fill="#9f0010" d="M92 24l3 10h-1l-3-10z"/><path fill="#cedaeb" d="M61 84h-2v-7h2z"/><path fill="#003142" d="M249 36l-1 14h-2l2-14z"/><path fill="#013733" d="M306 44l-7 6-1-1 7-7z"/><path fill="#030c0e" d="M7 247l-20-14 57-82 21 14z"/><path fill="#cae9ec" d="M82 94l-1 11h-2l1-11z"/><path fill="#ca837f" d="M184 190l-1-1 10-18 1 1z"/><path fill="#acc3ab" d="M107 106h-2l-1-17h2z"/><path fill="#b4afbb" d="M326 64H216v-5h110z"/><path fill="#8b8b93" d="M245 163v-2h68v2z"/><path fill="#f6dde0" d="M254 37h1l-4 9-1-1z"/><path fill="#ece5ce" d="M250 13l1-1 6 5-1 1z"/><path fill="#e5d1c2" d="M309 129l1-4h2l-2 5z"/><path fill="#023d8b" d="M169 24v-2l11 3-1 1z"/><path fill="#a79da6" d="M148 8l162 3v1l-162-2z"/><path fill="#faffff" d="M164 93l1 1-2 5h-2z"/><path fill="#00423f" d="M318 148l-8 10-1-1 7-10z"/><path fill="#00373e" d="M285 32l3-7 1 1-3 7z"/><path fill="#bfb9cb" d="M303 74l-85 8-1-5 86-7z"/><path fill="#a6625f" d="M217 182l-1 1-6-20h1z"/><path fill="#c1c5e1" d="M339 143l7-48 1 1-7 48z"/><path fill="#124669" d="M358 30h-1l2-49h2z"/><path fill="#000a88" d="M224 144l-1-11h2v11z"/><path fill="#b5b78b" d="M280 32v-6h1v6z"/><path fill="#aaacab" d="M281 131v2l-19 6-1-1z"/><path fill="#090b0a" d="M388 170l1 1-13 8-1-1z"/><path fill="#00339e" d="M230 23h1l-3 12h-1z"/><path fill="#8f9bb8" d="M10 10h2l5 22-2 1z"/><path fill="#002b29" d="M321 50l-12-3v-2l12 4z"/><path fill="#a13e2b" d="M142 31h2l-6 21h-2z"/><path fill="#820011" d="M98 138l1-22h2l-2 22z"/><path fill="#d0c8c4" d="M221 123h6v6h-6z"/><path fill="#720011" d="M125 144h-2v-14h2z"/><path fill="#d5d5cf" d="M152 39l-4 1-4-12 4-1z"/><path fill="#77111e" d="M281 89h2v17h-2z"/><path fill="#781e23" d="M91 114l-1 30h-2l2-30z"/><path fill="#000104" d="M326 9l-2-15 11-2 2 16z"/><path fill="#0f3d81" d="M212 21l1-1 8 8-2 1z"/><path fill="#345645" d="M75 80l-6 26h-2l6-26z"/><path fill="#dcdfc4" d="M251 92l-1 1-8-5 1-1z"/><path fill="#ecdad4" d="M195 113l-3-21 2-1 3 22z"/><path fill="#d2d3d4" d="M206 110v2l-58 2v-2z"/><path fill="#f2ebdb" d="M212 39l1-1 5 6-1 1z"/><path fill="#fecdaa" d="M134 37l-2-13h2l1 13z"/><path fill="#8a2731" d="M193 102l-5 8-2-1 6-8z"/><path fill="#000103" d="M-8 168l-2-5 29-7 1 4z"/><path fill="#173c32" d="M301 140v1l-19-1v-2z"/><path fill="#eaecf7" d="M226 86l-2-3 8-5 2 3z"/><path fill="#00080e" d="M54 69l-1 1-14-12 1-1z"/><path fill="#382b25" d="M309 142l-1 1-3-2 1-1z"/><path fill="#8c172e" d="M242 94l-3-11h2l3 10z"/><path fill="#dae2e9" d="M79 34l-1 1-9-11 1-1z"/><path fill="#000813" d="M385 52l-3-1v-4h3z"/><path fill="#95484c" d="M225 96l-29 5-1-2 30-4z"/><path fill="#d7b7a1" d="M274 74h2l-2 38h-1z"/><path fill="#9fa2af" d="M319 15v-5l26-1v4z"/><path fill="#922f3b" d="M188 90l-4 16h-2l5-17z"/><path fill="#000609" d="M10 189l-19-8 3-9 20 8z"/><path fill="#e7cca9" d="M324 139l-1-2 4-2 1 1z"/><path fill="#d9c2bb" d="M120 139l-2-1 4-7 2 1z"/><path fill="#a39ea7" d="M241 122h2l-1 23h-2z"/><path fill="#6f0000" d="M137 32h-2l2-6h1z"/><path fill="#e19e85" d="M140 30l1 23h-2V30z"/><path fill="#0b4746" d="M312 142l-2 9-2-1 3-9z"/><path fill="#f1ba9c" d="M204 109l1-23h2l-1 24z"/><path fill="#003332" d="M308 137l-1-1 8-12 1 1z"/><path fill="#8b2e37" d="M197 83l3 10-1 1-4-11z"/><path fill="#050d12" d="M227 200l-14 21-32-22 14-21z"/><path fill="#00217f" d="M185 137l-8-12 2-1 8 12z"/><path fill="#15473c" d="M92 108l13-12 1 1-13 12z"/><path fill="#d5d9f3" d="M99 75h41v5H99z"/><path fill="#b5886b" d="M290 109v2h-81v-2z"/><path fill="#37352b" d="M280-9l47 11-2 9-47-11z"/><path fill="#435993" d="M165 116l19 5v2l-20-5z"/><path fill="#bcbdd4" d="M54 120l5-1 7 32-4 1z"/><path fill="#868d95" d="M381 184l27-8v1l-27 8z"/><path fill="#0f5459" d="M170 83h2l-3 17h-2z"/><path fill="#091110" d="M90 8l-8-1 2-14 8 1z"/><path fill="#41707c" d="M156 101l-4 1-3-20 3-1z"/><path fill="#c1c1ba" d="M296 60l-1 1-8-29h1z"/><path fill="#817e87" d="M316 65l-81 1v-1l81-2z"/><path fill="#685c54" d="M21 162l-4-28 4-1 5 28z"/><path fill="#a09ea5" d="M337 160v4l-69-3v-5z"/><path fill="#001f8f" d="M210 140h-2v-22h1z"/><path fill="#bcac94" d="M227 145l-49 4-1-2 50-4z"/><path fill="#9d1839" d="M329 97l2 17h-2l-2-17z"/><path fill="#7d878c" d="M372 83h14v1h-14z"/><path fill="#002c91" d="M193 45l1 2-7 4-1-3z"/><path fill="#000205" d="M274 193l2 11-14 2-2-11z"/><path fill="#9c171e" d="M275 111l7-6 1 1-7 6z"/><path fill="#645753" d="M89 207l-1-1 31-39 1 1z"/><path fill="#e0ae91" d="M66 141l-1-18h1l2 17z"/><path fill="#a82427" d="M117 35l-1 1-10-14 1-1z"/><path fill="#dfccb1" d="M213 27l9 2-2 5-9-3z"/><path fill="#020608" d="M9 121l2 27-12 1-2-26z"/><path fill="#6e92db" d="M190 131h-2l-1-23h2z"/><path fill="#002d2e" d="M311 33l8 3v2l-9-4z"/><path fill="#162f31" d="M50 50h-3l4-80 3 1z"/><path fill="#70685a" d="M379 92l4 1-1 4-4-1z"/><path fill="#225a7d" d="M378 68h-2l1-47h2z"/><path fill="#7c8893" d="M355 101h1v34h-1z"/><path fill="#8a8c96" d="M394 133l3-2 7 13-2 1z"/><path fill="#b0222d" d="M254 89l5-1 1 16h-5z"/><path fill="#efd39c" d="M186 127l-1 1-7-6 1-2z"/><path fill="#e0e7f7" d="M261 51l1 9-18 3-2-9z"/><path fill="#7f3f2e" d="M119 142v-2l26 1v2z"/><path fill="#8f1528" d="M299 99h-1l-5-15h2z"/><path fill="#7e0621" d="M107 117l2-1 1 25h-1z"/><path fill="#79350b" d="M233 107v-1l4-2 1 1z"/><path fill="#164a9b" d="M155 120l-1 1-4-5 1-1z"/><path fill="#e5dac0" d="M170 121l-2 7h-2l2-8z"/><path fill="#8f1624" d="M88 41l-15 5v-1l15-5z"/><path fill="#d5b68e" d="M66 52l45 3v1l-45-3z"/><path fill="#6c2030" d="M264 86l2-1 3 15-2 1z"/><path fill="#07283d" d="M371 79l56 2v1l-56-2z"/><path fill="#1c3634" d="M269 143l6-4 1 1-6 4z"/><path fill="#003947" d="M295 47h-2l-2-17h2z"/><path fill="#c2b7a1" d="M283 138l-4 7-1-1 4-6z"/><path fill="#c9c3c2" d="M176 136l7 17-2 1-6-18z"/><path fill="#e2ccb0" d="M191 31h1l-3 12h-1z"/><path fill="#dbe2f5" d="M119 48v6h-5v-6z"/><path fill="#d6e9ed" d="M242 100l-9-7 1-1 9 7z"/><path fill="#1f5541" d="M291 131l7-1v4h-7z"/><path fill="#11387a" d="M239 147h-1l2-14h2z"/><path fill="#040b12" d="M197 163l12 2-7 45-12-2z"/><path fill="#840011" d="M143 32l-2-1 5-8 2 1z"/><path fill="#d6bbbc" d="M182 132l2 6h-2l-2-6z"/><path fill="#dccd91" d="M178 107h-2l1-25h2z"/><path fill="#929099" d="M122 67l10 8-3 3-10-7z"/><path fill="#d2c1ad" d="M127 145l-1-29h2l1 29z"/><path fill="#000606" d="M304 200l-12-12 9-9 12 13z"/><path fill="#c8d4e0" d="M75 105l-5-1 1-4h4z"/><path fill="#7b7075" d="M74 10l5-17 5 2-5 16z"/><path fill="#a9b9aa" d="M127 102h-2V91h1z"/><path fill="#003c1d" d="M142 82l1 6h-2l-1-6z"/><path fill="#9f9e95" d="M67 96h2v13h-2z"/><path fill="#d5d1d6" d="M325 115l-33 2v-2l33-2z"/><path fill="#3e6753" d="M256 120h11v5h-11z"/><path fill="#f4e8e4" d="M260 131h-2l3-4h1z"/><path fill="#b5a79a" d="M377 116l3 7h-2l-3-7z"/><path fill="#945143" d="M62 121l5-3 7 12-5 3z"/><path fill="#d0d2df" d="M315 100l2-6 10 4-2 6z"/><path fill="#56535d" d="M295 66v2l-23 2v-2z"/><path fill="#e2e3ca" d="M165 105l1 2-4 2-1-2z"/><path fill="#cbcfe2" d="M305 43h5l-1 16h-4z"/><path fill="#a16d7f" d="M194 13V8h14v5z"/><path fill="#7d8384" d="M361 85l9-2 2 6-9 2z"/><path fill="#aaa88d" d="M219 53h-8v-5l8 1z"/><path fill="#3758ae" d="M163 126l-11 16-1-1 11-15z"/><path fill="#000806" d="M242 175l-19 10-1-2 19-10z"/><path fill="#000407" d="M227 189l17-19 6 5-18 20zm174-32h-1l-9-18 1-1z"/><path fill="#7c838d" d="M56 117h1l-5 37h-1z"/><path fill="#dbd7e8" d="M87 97l-5-9 4-3 6 10z"/><path fill="#e6c49f" d="M141 133h2l-1 14h-2z"/><path fill="#f5cde1" d="M324 131h-3v-2l3 1z"/><path fill="#d1cadc" d="M320 46h-1l3-12h2z"/><path fill="#a22936" d="M252 88l-3 1-2-6 3-1z"/><path fill="#003543" d="M304 39l-7-3v-1l8 2z"/><path fill="#353633" d="M367 122v-1l40 15-1 1z"/><path fill="#e9dcf3" d="M118 117l-1 2-5-4 1-1z"/><path fill="#9c817f" d="M239 194l-3 8-1-1 3-7z"/><path fill="#d8d5d7" d="M152 110l-7 22h-1l6-22z"/><path fill="#9f2837" d="M270 112l-2-1 4-27h2z"/><path fill="#003b52" d="M173 92h2v17h-2z"/><path fill="#c7c7da" d="M101 116l-42-3 1-6 42 3z"/><path fill="#184c51" d="M162 83h1l-8 17h-1z"/><path fill="#000004" d="M221 174l-3-7 10-5 3 7z"/><path fill="#deeafe" d="M212 117h-16v-4h16z"/><path fill="#0e414d" d="M279 111h1l2 7-1 1z"/><path fill="#00424b" d="M263 33h1l3 14h-2z"/><path fill="#dad1bd" d="M95 104l-2-9h1l2 9z"/><path fill="#bdbccc" d="M69 53L56 66l-5-4 13-14z"/><path fill="#e2a899" d="M76 55l1-15h2l-1 15z"/><path fill="#3a3d44" d="M236 67h-3l-1-4 3-1z"/><path fill="#620016" d="M229 105l-1-1 1-4h1z"/><path fill="#dbdded" d="M153 24l-13-9 3-3 12 9z"/><path fill="#687e74" d="M310 136l-1-1 20-20 1 1z"/><path fill="#000100" d="M100 161l2 4-19 10-2-4z"/><path fill="#00101a" d="M358 19h-2l-9-36 1-1z"/><path fill="#014254" d="M298 141l1 1-8 6-1-1z"/><path fill="#1a4337" d="M295 29l-2-6h1l2 6z"/><path fill="#fbbbaf" d="M261 107V85h2v22z"/><path fill="#9c2330" d="M78 22l-1 1-6-6 1-1z"/><path fill="#a3a2b2" d="M109 157l52-8 1 2-53 7z"/><path fill="#dadfef" d="M108 75v2H66v-2z"/><path fill="#020c0d" d="M56 219l-15-52 23-7 15 53z"/><path fill="#021824" d="M-2-32h2l3 66H2z"/><path fill="#00222c" d="M336-2l8 1-1 8-7-1z"/><path fill="#c3a7ab" d="M215 92h2v30h-1z"/><path fill="#7a1d0a" d="M321 93l2-2 1 2-2 2z"/><path fill="#bd977e" d="M84 143l-2-28h1l2 28z"/><path fill="#d8e2f3" d="M309 56v2l-191 3v-1z"/><path fill="#b9b290" d="M200 38h-2l-5-18h1z"/><path fill="#28366c" d="M172 144l-2-1 4-13h1z"/><path fill="#a50010" d="M249 98l2 1-2 11-1-1z"/><path fill="#676561" d="M280 166l14 25-1 1-14-25z"/><path fill="#a3afbe" d="M386 177l1 1-6 3v-1z"/><path fill="#000708" d="M122 162l-30 32-3-2 30-32z"/><path fill="#cbcddb" d="M306 48l3 3-7 6-3-3z"/><path fill="#000004" d="M102 173l-21 13-1-1 22-13z"/><path fill="#2c0724" d="M60 120l-1-1 1-3 2 1z"/><path fill="#1b402e" d="M309 122h1l-2 5-1-1z"/><path fill="#e5def0" d="M187 23l-1 1-6-8 1-1z"/><path fill="#c09629" d="M224 43l-1 6h-1v-6z"/><path fill="#776964" d="M224 177l6-7 1 1-6 7z"/><path fill="#eeeee8" d="M159 97l1-11h1v11z"/><path fill="#c8dee6" d="M222 107l-1-1 9-8 1 1z"/><path fill="#30503a" d="M304 151l7 8-1 1-7-8z"/><path fill="#d4b984" d="M77 36l-1 1-8-12 1-1z"/><path fill="#686869" d="M15 186l-24 27-1-1 24-27z"/><path fill="#e1fff3" d="M252 19l2 1-2 6h-1z"/><path fill="#dcdcd7" d="M289 28h-2l4-11 1 1z"/><path fill="#0c0f13" d="M25 77h-1l-7-21h1z"/><path fill="#00323c" d="M248 36l-1-1 7-4 1 2z"/><path fill="#842e3c" d="M233 110l-27-2v-1l27 2z"/><path fill="#d8c2bc" d="M71 89l5-6 1 1-5 6z"/><path fill="#bfc5c1" d="M163 91l-4 14-2-1 5-13z"/><path fill="#760000" d="M164 40l1 9h-2l-1-9z"/><path fill="#d7edfe" d="M250 95l3-8 2 1-3 7z"/><path fill="#7db5c0" d="M168 97h-2l-1-14h2z"/><path fill="#e3dfef" d="M288 128l6 9-3 2-5-9z"/><path fill="#c1c5c1" d="M220 99l2-1 12 17-1 1z"/><path fill="#7f0000" d="M315 108h6v1h-6z"/><path fill="#5d7388" d="M388 69l18-74h2l-19 74z"/><path fill="#0e242d" d="M61-5l14-1V7H61z"/><path fill="#384b4d" d="M392 112l-6-19 2-1 5 20z"/><path fill="#6c7d88" d="M-12 73l25-2v2l-25 1z"/><path fill="#003c51" d="M279 30l1 20h-1l-1-20z"/><path fill="#bfc3d9" d="M327 43h-1l-5-25h2z"/><path fill="#0029a2" d="M192 45l1-20h1l-1 20z"/><path fill="#c9d2f0" d="M159 148l96 4v1l-96-3z"/><path fill="#dbebd8" d="M212 106l-2-6 1-1 3 6z"/><path fill="#4f5151" d="M94 175l-1-2 21-12v2z"/><path fill="#c7c5c9" d="M267 90l4-13h1l-3 14z"/><path fill="#0d100d" d="M383 133l3-36h1l-2 36z"/><path fill="#ecebd8" d="M261 123l-14 1v-1l14-2z"/><path fill="#0a347f" d="M202 146l-1-1 14-20h1z"/><path fill="#27564f" d="M269 137l-3-6 1-1 3 6z"/><path d="M134 163l-21 66h-1l20-66z"/><path fill="#f8c7af" d="M90 54h-1V32h2z"/><path fill="#d08870" d="M277 89l2 17h-2l-1-17z"/><path fill="#f3e4c5" d="M150 93v19h-2l1-19z"/><path fill="#acb8a5" d="M231 36h-1l3-11 1 1z"/><path fill="#d3af6d" d="M234 135l-2 7h-2l2-8z"/><path fill="#000001" d="M147 189l6 16-11 5-6-16z"/><path fill="#594433" d="M370 136v-2l12 4v1z"/><path fill="#32514f" d="M64 100l6-21h2l-6 22z"/><path fill="#e4eeee" d="M314 33h-1l-1-8h2z"/><path fill="#d6be7d" d="M65 113l-2 14-1-1 1-14z"/><path fill="#525c67" d="M351 66h-1V29h2z"/><path fill="#dfc1a6" d="M111 145v-14h1l1 14z"/><path fill="#513f37" d="M196 162l-17 28-1-1 17-28z"/><path fill="#8c1c23" d="M150 24l1 6-3 1-1-6z"/><path fill="#b8b5c3" d="M95 63l93-1v1l-93 2z"/><path fill="#071924" d="M352 124l6 25-2 1-6-26z"/><path fill="#e5b16e" d="M137 52h-2l-4-15h1z"/><path fill="#797774" d="M370 38l-1-6h3l1 6z"/><path fill="#9896a3" d="M320 59l31 4v1l-32-3z"/><path fill="#d5e5fc" d="M189 110l-3 19h-2l4-19z"/><path fill="#d1ddfa" d="M253 114l-2 33h-3l2-33z"/><path fill="#001719" d="M247 48v-2l8 1v2z"/><path fill="#00313b" d="M147 96l-1 10-1-1 1-9z"/><path fill="#dbc5bb" d="M86 52l-5 1v-7h5z"/><path fill="#1a49a1" d="M162 120l1 24h-1l-2-24z"/><path fill="#00137a" d="M215 141h-2l-1-6h2z"/><path fill="#599eb7" d="M247 17l-1 33h-1l1-33z"/><path fill="#bbc2d9" d="M96 152l-4-8 7-4 4 9z"/><path fill="#70121c" d="M260 111h-1l1-14h2z"/><path fill="#7a2f1f" d="M147 41h5v4h-5z"/><path fill="#dad0ba" d="M317 157v-9h2v9z"/><path fill="#000d10" d="M341 216l-20-9 17-43 21 8z"/><path d="M381 110l-22 18-1-2 22-18z"/><path fill="#9d916c" d="M274 47h-1l1-17h2z"/><path fill="#a0b9ae" d="M110 82h2l-2 22h-1z"/><path fill="#0b2d2a" d="M337 29l1 1-4 2-1-1z"/><path fill="#182c25" d="M322 27l-12-4 1-1 12 3z"/><path fill="#b7b49e" d="M248 29l4-10h1l-3 11z"/><path fill="#32504e" d="M284 153l-2-26h1l2 26z"/><path fill="#0e4cab" d="M156 126h2v15h-2z"/><path fill="#3d4247" d="M54 87l-11-1 1-15 11 1z"/><path fill="#12242d" d="M347 73l2 2-1 1-2-2z"/><path fill="#002e95" d="M186 28l6-5 1 1-6 5z"/><path fill="#dfb18c" d="M104 39l1 14h-1l-2-14z"/><path fill="#afaba5" d="M255 130l2 1-11 19-1-1z"/><path fill="#89191a" d="M131 22h2v14h-2z"/><path fill="#888489" d="M119 159l-59-3v-1l60 3z"/><path fill="#000506" d="M306 203l-24-38h2l23 37z"/><path fill="#717178" d="M106 71l33-4v2l-33 3z"/><path fill="#100f09" d="M403 132l-2 1-6-20h2z"/><path fill="#1c2225" d="M377 181l9-1 1 3-9 1z"/><path fill="#e0ffff" d="M189 98l3-5 2 1-4 5z"/><path fill="#838293" d="M218 159v-4h28v4z"/><path fill="#a9b3cb" d="M7 37L6 59H4l1-22z"/><path fill="#d9e1ec" d="M252 82l54 2v1l-54-2z"/><path fill="#9e2923" d="M143 46l4 2-1 4-4-1z"/><path fill="#f2edbe" d="M327 125v2l-6-1v-1z"/><path fill="#950e2a" d="M130 43h-1l-8-18 2-1z"/><path fill="#dbbd9b" d="M310 105l4 6-1 1-4-6z"/><path fill="#415c6d" d="M399 72l-18 15-1-1 19-15z"/><path fill="#bcb09a" d="M284 154l-2-6h2l1 6z"/><path fill="#878995" d="M380 74l14-10 3 4-15 10z"/><path fill="#babec1" d="M306 157v2l-23-2v-2z"/><path fill="#000908" d="M325 178l-37-12 1-2 37 12z"/><path fill="#020a03" d="M376 184l4-2 5 10-4 2z"/><path fill="#000102" d="M222 204l-3 1-18-42 3-1z"/><path fill="#fff0c3" d="M222 134v8h-2v-8z"/><path fill="#7e90a7" d="M379 42l3-5 28 19-3 6z"/><path fill="#851c31" d="M67 127l-1 11-3-1 1-11z"/><path fill="#c3c0a0" d="M196 49l-2 2-1-1 2-2z"/><path fill="#003ea3" d="M242 127l4 12-2 1-4-12z"/><path fill="#cecfeb" d="M122 148l13-5 1 5-13 4z"/><path fill="#0e2d2a" d="M131 99l-2 5-2-2 1-4z"/><path fill="#d9d1dc" d="M331 43h-1v-3h1z"/><path d="M360 136l-1-3 20-7 1 2z"/><path fill="#d67f7d" d="M221 187h-1l-5-10h1z"/><path fill="#98adbc" d="M184 60l-11-5 1-1 11 5z"/><path fill="#9d2830" d="M231 84l1-1 5 7h-2z"/><path fill="#0c5d7a" d="M161 105h-1l3-6 1 1z"/><path d="M402 101l1 2-6 4-2-3z"/><path fill="#4c4e54" d="M63 69v-1l10-5v2z"/><path fill="#ccc0b0" d="M158 147v-30h1l1 30z"/><path fill="#7a4e50" d="M337 163l-9 23-1-1 9-23z"/><path fill="#88192a" d="M113 140l-1-22h2v22z"/><path fill="#bcdbcd" d="M202 134h1v6h-2z"/><path fill="#3c3731" d="M377 106l-11 9-1-1 11-9z"/><path fill="#002e36" d="M272 126l5 1v1h-5z"/><path fill="#1f373e" d="M3 60l7-4 7 14-7 4z"/><path fill="#cbb8ac" d="M309 68h1l-8 50h-1z"/><path fill="#173c3f" d="M106 97h2l-6 11-2-1z"/><path fill="#c5c3d6" d="M327 15l5-4 11 13-4 4z"/><path fill="#093b44" d="M131 87l-2 2-5-6 1-1z"/><path fill="#dbd5d8" d="M137 134h-2l2-23h1z"/><path fill="#c7c4c8" d="M318 132v-2l6-1v2z"/><path fill="#a22a2f" d="M320 108v-2l8-3 1 2z"/><path fill="#bdc2cc" d="M102 30l-2-1 3-10h2z"/><path fill="#a9a8ad" d="M285 158l-1 2-21-10 1-2z"/><path fill="#e3eaff" d="M233 142v-5h5v5z"/><path fill="#d5d6ea" d="M64 56h-1l-4-29h2z"/><path fill="#c4cabe" d="M205 45l-7 10-2-1 8-10z"/><path fill="#d1e3ff" d="M235 117l-1-6 4-1 2 6z"/><path fill="#cd8d8e" d="M90 118h2l1 19h-2z"/><path fill="#cebb58" d="M113 32h2l1 12-1 1z"/><path fill="#ffc6be" d="M96 51l-1-6 1-1 2 7z"/><path fill="#9a929e" d="M53 96h1l7 16h-1z"/><path fill="#004033" d="M168 109l-2 1-1-5h2z"/><path fill="#2f363b" d="M125 68l-2-4 4-2 2 4z"/><path fill="#0b3d40" d="M97 92l6 11h-1l-6-10z"/><path fill="#ecc7c3" d="M271 120l2 1-2 4h-1z"/><path fill="#d0cbe0" d="M62 36l2-1 10 12-2 1z"/><path fill="#e0b38a" d="M108 133h-2v-17h2z"/></svg>