<svg xmlns="http://www.w3.org/2000/svg" viewBox="0 0 200 100"><path fill="#6b6770" d="M0 0h200v100H0z"/><path fill="#e0cbdd" d="M131 83l51-79H18z"/><path d="M192 86L-15 74l62 42z"/><path d="M26-15l2 131-43-33zM216 89l-41 27 2-131z"/><path fill="#b4b1c0" d="M30 15l148 66-152-3z"/><path fill="#0c0a0a" d="M6 80l127 36 83-34z"/><path fill="#b9a8ad" d="M173 22L26 27l150 53z"/><path fill="#c0342e" d="M31 12l63-1-46 15z"/><path fill="#876a74" d="M179 45l-62 29-70-34z"/><path d="M116-15L64 4l106-1z"/><path fill="#00070c" d="M26-4l2 120-43-14z"/><path d="M72 4L39-15 31 3z"/><path fill="#3c716b" d="M120 24l19-14 36 13z"/><path fill="#155e57" d="M36 53l39-12 7 11z"/><path fill="#f2feff" d="M100 54H57l21 6z"/><path fill="#e0f6ff" d="M152 30l-33-9-29 9z"/><path fill="#80a5cb" d="M190 8l26 21-25 9z"/><path fill="#cfe9ff" d="M88 16l37-10H60z"/><path fill="#4776a4" d="M109 72l49-12-92-2z"/><path d="M189 48l-25 54 19 14z"/><path fill="#3b5491" d="M109 11H73l39 14z"/><path fill="#ce4e45" d="M105 55l37-13 29 13z"/><path fill="#f6f9ff" d="M123 54l3 23 13 1z"/><path fill="#ce584e" d="M63 73L29 61l43-3z"/><path fill="#eea19f" d="M71 116l16-7 10-24z"/><path fill="#bdb5c6" d="M26 79l50-15 42 14z"/><path fill="#776b68" d="M-1 72l11 21 4-19z"/><path fill="#d9e1fb" d="M114 32H53l36-11z"/><path fill="#da9e9b" d="M106 86l18 30 8-5z"/><path fill="#bb473a" d="M58 25l24-13 2 12z"/><path fill="#427169" d="M134 75l34 2-1-22z"/><path d="M20 51L-5 36l38 68z"/><path fill="#050a0a" d="M168 36l-14-4h23z"/><path fill="#e6e2f3" d="M74 9l-43 6L47 5z"/><path fill="#2a4050" d="M2 38l3-19 38 35z"/><path fill="#deefff" d="M144 13l17-8h-39z"/><path fill="#d7dbf9" d="M166 29l8 2 1-16z"/><path fill="#c5b7c8" d="M27 11l32 28-28 1z"/><path fill="#e0f0ff" d="M146 34l20 7-36 1z"/><path fill="#225252" d="M125 27l6-7-7-17z"/><path fill="#0f293b" d="M175-12l19-3-13 72z"/><path fill="#3d4856" d="M82 32l21 6 21-6z"/><path fill="#dadff7" d="M70 35l46 1-26 8z"/><path fill="#9bb9db" d="M181 11l3 14-6-7z"/><path fill="#fff3fb" d="M151 65l-2 12 8-8z"/><path fill="#455c92" d="M116 72V58L71 71z"/><path fill="#79848f" d="M191 90l4-26 3 27z"/><path fill="#bfc5da" d="M167 62l9 21-1-36z"/><path fill="#fff3ff" d="M43 52l10 4-25 1z"/><path fill="#033335" d="M163 11l3 13 3-10z"/><path fill="#000002" d="M-5 116l56-4-29-40zm221-84l-36 17 1 15z"/><path fill="#dbefff" d="M114 6l9 23V7z"/><path fill="#cec7d3" d="M89 59l50-1-26-8z"/><path fill="#e3f4ff" d="M146 32l20-6-29-1z"/><path fill="#30353e" d="M75 32l-3 4-14-3z"/><path fill="#b95452" d="M35 26L32 8l44 14z"/><path fill="#4f5764" d="M47 37l-17-4 31-1z"/><path fill="#f3f7ff" d="M43 32l26-5-20-2z"/><path fill="#c57370" d="M89 53l38-13-3 15z"/><path fill="#e7c0c2" d="M162 59l1-14-15 13z"/><path fill="#aa5b59" d="M55 58l28 14-46-3z"/><path fill="#2f5750" d="M136 76l1-17 11 13z"/><path fill="#5a7394" d="M9 33l-21-23 31-5z"/><path fill="#1b1e1e" d="M112 80l16 36 47-33z"/><path fill="#ced8ee" d="M62 41l20-7-36 2z"/><path fill="#d1ccdf" d="M87 79l8-19-4-19z"/><path fill="#5c78af" d="M124 24l-34 1-1-10z"/><path fill="#1b1a08" d="M172 3H72l65-18z"/><path fill="#fff" d="M88 20l-4 9V8z"/><path fill="#5f7979" d="M143 25l-16-14 33 1z"/><path fill="#316569" d="M90 43l-37-3-1 10z"/><path fill="#dad5e6" d="M32 76l-4-6 22 2z"/><path fill="#dbc6cc" d="M68 47l3 22-10-8z"/><path fill="#a16a66" d="M35 84l5 16 8 2z"/><path fill="#000006" d="M27 43l-5 43-23-45z"/><path fill="#595664" d="M145 37l-16-4 20-1z"/><path fill="#f5f4f7" d="M106 72l-3 5h18z"/><path fill="#cdcfe2" d="M111 36l46-2-25 8z"/><path d="M178 47l5-22h10z"/><path fill="azure" d="M76 16l-4 3 6 1z"/><path fill="#ad7c78" d="M157 106l10-19-15 15z"/><path fill="#000004" d="M154 107l26-30 19 39z"/><path fill="#010102" d="M65 115L41 90l24 4z"/><path fill="#c25a61" d="M169 57l-41-15 41 2z"/><path fill="#f7fafa" d="M131 13l-2 7 3 4z"/><path fill="#e3d5da" d="M36 12l4 7V1z"/><path fill="#ddeadc" d="M147 69l-4-3 4-9z"/><path fill="#c2b6c5" d="M44 74V49l-8 29z"/><path fill="#000004" d="M101 83l-21 33 45-3z"/><path fill="#d2cfe0" d="M29 1l6 20-8-1z"/><path fill="#9c3f3c" d="M34 58l-2 11 11 2z"/><path fill="#00001d" d="M1 24l-16 21L0-2z"/><path fill="#edecfd" d="M53 54l11 3-15 1z"/><path fill="#60788a" d="M195 42l-18 2 38-24z"/><path fill="#d8deec" d="M158 21l4 2 1-12z"/><path fill="#91898f" d="M24 42l-12-3 12-1z"/><path fill="#e7ffff" d="M113 13l2 9-8-9z"/><path fill="#1a463f" d="M169 69l-13 10 10-14z"/><path fill="#d6d9f5" d="M92 27l-3-6 3-9z"/></svg>