<svg xmlns="http://www.w3.org/2000/svg" viewBox="0 0 400 200"><path fill="#6a676e" d="M0 0h400v200H0z"/><path fill="#cfc8d8" d="M349 144l-224-4 3-133 223 4z"/><path d="M-6 158l399 7-2 72-398-7z"/><path d="M-32 205V34h84v171z"/><path fill="#000001" d="M408 49l-3 161-55-1 3-161z"/><path fill="#d6b2b7" d="M138 9v149H54V9z"/><path fill="#e3e9f2" d="M117 160v-16h189v16z"/><path fill="#06554d" d="M92 109l-1-23 69-3v24z"/><path fill="#ce3c32" d="M338 88l-1 24-98-2V87z"/><path d="M-4 152l6-69 53 5-6 68z"/><path fill="#01141a" d="M389 150l-28 3-15-170 29-3z"/><path fill="#87afd1" d="M419 79l-41-1 1-59 41 1z"/><path fill="#c83c33" d="M66 23h101v27H66z"/><path fill="#fff" d="M131 53l186-3v11l-186 3z"/><path d="M281-6V8H83V-6zM52-33V75H34V-33z"/><path fill="#305a9e" d="M244 144h-74v-27h74z"/><path fill="#f5fdff" d="M74 25V14l166-3v11z"/><path fill="#497769" d="M273 155l1-39 64 2-1 39z"/><path fill="#030401" d="M131 239l-90-1 1-79 91 2z"/><path fill="#111822" d="M83 71v-2l198-3v1z"/><path fill="#40746d" d="M333 22v28l-86-1V20z"/><path fill="#efffff" d="M57 53h106v8H57z"/><path d="M277 10l-1-16 68-2V7z"/><path fill="#b5463c" d="M144 119l-1 26-55-3 2-26z"/><path fill="#030806" d="M238 167l134-5 1 41-134 5z"/></svg>