<svg xmlns="http://www.w3.org/2000/svg" viewBox="0 0 128 64"><path fill="#6c6771" d="M0 0h128v64H0z"/><path fill="#d8c6d5" d="M1 4l94 49 22-50z"/><path d="M139 54L38 80l-53-31z"/><path d="M17-13l2 92-32-20zm95 93l30-18-29-71z"/><path fill="#b7b4c3" d="M19 9l-1 41 77 1z"/><path fill="#c92c29" d="M27 17l25-8-31-1z"/><path d="M19 1l48-16 59 17zm-3 48L2 45 16-1z"/><path fill="#bea8b0" d="M34 17l79 34-1-36z"/><path fill="#130f0e" d="M115 80L11 53l107-1z"/><path fill="#877276" d="M24 26l89 2-20 21z"/><path fill="#6f98bc" d="M121 25l2-40 19 39z"/><path fill="#d1d9f9" d="M81 3L42 4l13 7z"/><path fill="#18635f" d="M57 33l-15-7-15 8z"/><path fill="#c2c8da" d="M63 29L16 16h95z"/><path fill="#d8c9d0" d="M56 29l-19 8h48z"/><path fill="#cad4e6" d="M87 51l-28-3 28-6z"/><path fill="#59759e" d="M97 7H45l19 9z"/><path fill="#335d9d" d="M77 36l3 10-27-2z"/><path fill="#497a76" d="M111 15l-36 1 31-10z"/><path fill="#cd656b" d="M58 26l56 2-39 9z"/><path fill="#232c34" d="M139 41l-17-21h-22z"/><path fill="#c3453d" d="M47 45l-27-3 16-5z"/><path fill="#38516a" d="M-8 15L2-10l22 43z"/><path d="M2 25l17 55 9-14z"/><path fill="#5b5c6b" d="M88 20l-14 5-17-5z"/><path d="M119 80V29l-15 51z"/><path fill="#d7eafe" d="M80 4l-1 15H68z"/><path fill="#ce949a" d="M63 54L44 75l11-5z"/><path fill="#e1fbff" d="M96 3L85 7h23z"/><path fill="#2c645e" d="M107 49L95 37l12 1z"/><path fill="#fff" d="M41 4l2 3-12-2z"/><path fill="#c2493f" d="M55 16l-23-1 21-7z"/><path fill="#7b8495" d="M27 20l26 1-35 8z"/><path fill="#d0bdc8" d="M44 43l18 7-41-2z"/><path fill="#c49495" d="M92 78L69 56l12 24z"/><path fill="#867e7f" d="M6 40l3 9-4 11z"/><path fill="#161214" d="M44 52l-26-2 36 30z"/><path fill="#c6c5d2" d="M70 25l33-7 2 10z"/><path fill="#c9def3" d="M73 36l9-1 2 11z"/><path fill="#2b4c64" d="M110-14l6 31 23-32z"/><path fill="#d1d8eb" d="M43 26l-8-5-11 3z"/><path fill="#fde9fd" d="M59 19l-5-2 1-11z"/><path fill="#000002" d="M18 26l-4 17-21-14z"/><path fill="#386a6b" d="M57 27v7l-26-2z"/><path fill="#585c61" d="M120 48l15 11-15-1z"/><path fill="#beccdf" d="M112 51V34l-4 6z"/><path fill="#a9babf" d="M112 52H96l1-6z"/><path fill="#bcc0df" d="M108 13l5 5-1-19z"/><path fill="#3c736b" d="M83 41l8-5 3 13z"/><path fill="#ead2eb" d="M35 3h-9l-2 8z"/><path fill="#aa8f8d" d="M107 56l-7 15-17 9z"/><path fill="#fff2f7" d="M30 37l8-2-17-1z"/><path fill="#50545e" d="M91 23l5-3H83z"/><path fill="#707c97" d="M8-15L-2 25 11 7z"/><path fill="#080e12" d="M120 48l-6-19 7-21z"/><path fill="#75879a" d="M116 28l20-26 8 18z"/><path fill="#d79da2" d="M112 22l-9 16-8-1z"/><path fill="#b54e46" d="M76 33l18-5 13 7z"/><path fill="#e0f2ff" d="M91 7l1-4-11 1z"/><path fill="#eff5ff" d="M88 20l14-4H78z"/><path fill="#a86267" d="M21 36l33 8-33 1z"/><path fill="#ccb8c3" d="M18-1l8 22h-7z"/><path fill="#000c11" d="M17 21L16 0l-6 24z"/><path fill="#4c608f" d="M63 16l2-7 11 6z"/><path fill="#50776d" d="M94 12l-13 1-1-9z"/><path d="M66 52l6 13-25 15z"/><path fill="#000105" d="M-6 80l21-33 22 33z"/><path fill="#637ba9" d="M79 38l-28-1 4 10z"/><path fill="#122829" d="M108 10l1 5-4-6z"/><path fill="#977274" d="M27 57l-5-4 4 8z"/><path fill="#362a3b" d="M36 22h11l-5-2z"/><path fill="#ac4957" d="M66 31l5 4-12-2z"/><path fill="#e8ffff" d="M73 10l1 4-5-5z"/><path fill="#000309" d="M143 77l-32-25-8 13z"/><path fill="#d0c1cf" d="M83 29l-20-6 39-1z"/><path fill="#e2e6f8" d="M38 26l12-4 11 3z"/><path fill="#eff3fb" d="M56 20l-17-2 13-2z"/><path fill="#4f5564" d="M50 19l9 2-12 1z"/><path fill="#a8afcb" d="M115 9l3 5-3 1z"/><path fill="#767e82" d="M130 42l-6 7 1-9z"/><path fill="#011b27" d="M120 8l-7-1 7-22z"/><path fill="#dce5ff" d="M70 3l11 4-18-1z"/><path fill="#1a1707" d="M28-15l1 17h60z"/><path fill="#526b69" d="M32 33l-11 1-3-7z"/><path fill="#e0ecf0" d="M100 8l5 5-1-4z"/><path fill="#3d5352" d="M98 54l2-7 7-4z"/><path fill="#dfdeed" d="M69 15l-16 5h31z"/><path fill="#ac565e" d="M28 7l-7 10L44 7z"/><path fill="#caf7ff" d="M52 28l2 3-1 6z"/><path fill="#bee2ff" d="M57 16l3-1-2-11z"/><path fill="#5d6f93" d="M79 39l-1 8-25-3z"/><path fill="#f3eaf6" d="M58 36l3 4-2-13z"/><path fill="#dccad3" d="M112 31l-3 6 1-11z"/><path fill="#d9dad7" d="M50 46l8 4 9-4z"/><path fill="#95908b" d="M8 47l-23 8v-8z"/><path fill="#e8edfe" d="M80 42l1 7 7-3z"/><path fill="#000004" d="M126 44l2 10h9z"/><path fill="#c5f4ec" d="M94 37l-2 7 4-1z"/><path fill="#beb9bf" d="M26 38l3-7v15z"/></svg>