<svg xmlns="http://www.w3.org/2000/svg" viewBox="0 0 400 200"><path fill="#6a676e" d="M0 0h400v200H0z"/><path fill="#d2c6d3" d="M347 163l-267-4L83 7l267 5z"/><path d="M-4 158l398 7-1 47-398-7z"/><path d="M52 31v199H0V31zm360 22l-5 161-58-2 5-161z"/><path fill="#c7a6ad" d="M59 156L54 9l42-1 5 147z"/><path fill="#c4261c" d="M80 27l84-3 1 23-84 3z"/><path d="M-5 81l59 3-4 68-59-3z"/><path fill="#21625d" d="M170 84l-1 25-112-4V80z"/><path fill="#001420" d="M379-10V93h-28V-10z"/><path fill="#fcffff" d="M293 52v12l-122-2V50z"/><path fill="#ce4c42" d="M220 85l122 2-1 27-122-3z"/><path fill="#77a2c4" d="M412 7l-4 74-31-2 4-73z"/><path d="M55-20l-7 95-17-1 7-95z"/><path fill="#295698" d="M172 144l1-26 72 2-1 27z"/><path fill="#376b5c" d="M332 153l-61-3 2-32 60 2z"/><path d="M358 8H59V-6h299z"/><path fill="#b14540" d="M89 116l61-1v27l-61 1z"/><path fill="#0a0c0b" d="M172 213l-181-4 1-51 181 3z"/><path fill="#fff" d="M111 13h86v7h-86z"/><path fill="#eefaff" d="M62 56l103-6v11L62 67z"/><path fill="#6988ab" d="M-13 79l-21-21 49-48 21 21z"/><path fill="#ebe6fa" d="M313 84l-143 2-1-12 144-3z"/><path fill="#346e66" d="M314 22l1 27-68 2-1-26z"/><path fill="#0a0b09" d="M190 179l172-18 6 59-172 18z"/><path fill="#dff1ff" d="M202 22V11h138v11z"/><path fill="#3667b2" d="M173 48l2-27 47 4-2 27z"/><path fill="#f8ffff" d="M247 155l2-20 21 2-1 20z"/><path fill="#e7f2ff" d="M99 72l95 1v10l-96-2z"/><path d="M359 91h12v119h-12z"/><path fill="#292c2b" d="M320 75l1-11 42 3-1 11z"/><path fill="#1a1e26" d="M77 65l264 5v1L77 66z"/><path fill="#002c23" d="M327 48l-3-25 13-1 3 25z"/><path fill="#e3978b" d="M211 175l5-3 22 32-6 4z"/><path fill="#e9f9ff" d="M210 111v7l-137-2v-8z"/><path fill="#8d8284" d="M28 159L4 211l-6-3 25-52z"/><path fill="#ecf6ff" d="M124 146l122 4v6l-122-4z"/><path fill="#76838d" d="M390 135l4 59-7 1-5-60z"/><path fill="#e4efff" d="M346 62l-62-2V49l62 1z"/><path fill="#ca5c57" d="M221 113l-39-4 2-26 39 3z"/><path fill="#e6e6ff" d="M119 15l-1 9-64-6 1-9z"/><path fill="#bd8171" d="M70 170l38 52-5 3-38-51z"/><path d="M5 91l19-7 69 179-19 8z"/><path fill="azure" d="M234 60l-1-33h13v32z"/><path fill="#de8e7e" d="M151 220l38-45 5 4-38 45z"/><path fill="#bfcae5" d="M335 46l10-54 9 1-10 54z"/><path fill="#e5f3ff" d="M175 18l2 44h-10l-1-44z"/><path fill="#bec2c0" d="M289 114l25 30-11 9-25-30z"/><path fill="#d5e4fe" d="M65 61l-10 1-2-34 9-1z"/><path fill="#f1f7fa" d="M202 119v-7l72-1v6z"/><path fill="#4c75b4" d="M173 146l-28-2 2-28 28 2z"/><path fill="#b5c1d6" d="M51 144l52-3 1 14-52 3z"/><path fill="#235554" d="M248 46l-2-31h11l2 31z"/><path fill="#90b3e3" d="M362 11l-2 42h-2l3-42z"/><path fill="#b9bfcc" d="M350 163l-12-1 1-67h12z"/><path fill="#fff" d="M266 61l-2 1-6-41h1z"/><path fill="#c38278" d="M328 176l4 2-24 44-4-2z"/><path fill="#9fadb9" d="M68 60l39 20-11 21-39-20z"/><path fill="#41625d" d="M334 156h-20v-39h21z"/><path fill="#dee2f2" d="M185 12h3l-9 81h-3z"/><path fill="#b9615b" d="M166 53l-81-1V24l82 1z"/><path d="M200 162l11 5-19 41-11-5z"/><path fill="#d7d5d6" d="M250 19h1l4 117h-1z"/><path fill="#909395" d="M366 93l-6-6 10-10 6 7z"/><path fill="#a44d43" d="M64 144l-3-25 21-2 2 25z"/><path fill="#040804" d="M356 92l41-4 2 25-41 4z"/><path fill="#fff" d="M161 90h6l-1 13-6-1z"/><path fill="#9a8579" d="M25 155l-33-1v-7h33z"/><path fill="#d3d4ef" d="M53 115l5-1 6 32-5 1z"/><path fill="#b6c0cf" d="M50 81v1l-27-2v-1z"/><path fill="#cfd7f3" d="M223 24L79 21V9l144 2z"/><path fill="#000c11" d="M36-25h14v86H36z"/><path fill="#deffff" d="M143 41l1-12h8l-1 13z"/><path fill="#496f67" d="M253 127l10-12 33 32-11 11z"/><path fill="#bd9ea0" d="M224 106l-6-16 31-10 6 16z"/><path fill="#fff" d="M310 50h-2l-4-26 2-1z"/></svg>