<svg xmlns="http://www.w3.org/2000/svg" viewBox="0 0 400 200"><path fill="#6a676e" d="M0 0h400v200H0z"/><path fill="#d1c3d1" d="M54 10h294v152H54z"/><path d="M1 160h400v41H1z"/><path d="M1 34h51v167H1zM351 1h33v200h-33z"/><path fill="#cd4336" d="M63 23h105v29H63z"/><path fill="#276159" d="M54 82h106v27H54z"/><path fill="#010908" d="M359 79h42v81h-42z"/><path fill="#f3feff" d="M81 51h246v14H81z"/><path fill="#000003" d="M26 1h26v200H26z"/><path fill="#efffff" d="M76 13h272v10H76z"/><path fill="#cf5349" d="M184 85h156v27H184z"/><path d="M60 1h180v8H60z"/><path fill="#325d9b" d="M152 120h94v26h-94z"/><path fill="#dfe2f5" d="M101 71h222v14H101z"/><path d="M231 1h112v8H231z"/><path fill="#517d70" d="M274 120h63v43h-63z"/><path fill="#4e7b83" d="M246 21h155v28H246z"/><path fill="#070907" d="M31 159h137v42H31z"/><path fill="#b64a3f" d="M62 118h83v25H62z"/><path d="M2 84h50v64H2z"/><path fill="#0a0b09" d="M190 165h183v36H190z"/><path fill="#e8edfa" d="M73 110h192v8H73z"/><path fill="#54718b" d="M1 1h34v69H1z"/><path fill="#c9ceda" d="M124 146h147v16H124z"/><path fill="#2d63b0" d="M176 23h39v28h-39z"/></svg>