<svg xmlns="http://www.w3.org/2000/svg" viewBox="0 0 400 200"><path fill="#6a676e" d="M0 0h400v200H0z"/><path fill="#d0c3d0" d="M348 162H54V9h294z"/><path d="M174 190L92 303-69 186 13 74z"/><path d="M383 239l-234-4 1-75 234 4z"/><path d="M353 49l52 1-3 165-52-1zM54 0L43 219l-33-2L21-1z"/><path fill="#d5abae" d="M52 104l87-2 1 55-87 2z"/><path fill="#ca352a" d="M64 29l101-6 1 25-101 5z"/><path fill="#09544c" d="M158 81v27H97V81z"/><path fill="#000d14" d="M352-31h25v198h-25z"/><path fill="#cf5549" d="M341 90l-1 24-151-3V88z"/><path fill="#89b1d4" d="M401 76l-22 1-1-55h22z"/><path fill="#fff" d="M103 64V53l199-3v11z"/><path fill="#ac524d" d="M59 143l-1-27 88-1v26z"/><path fill="#000200" d="M23 160h124v41H23z"/><path fill="#275597" d="M248 121l-2 28-61-6 2-28z"/><path fill="#02151e" d="M-58 81L44 38l28 67-102 43z"/><path d="M342 9H106V-7h236z"/><path fill="#f2f4ff" d="M243 20L62 24V13l181-4z"/><path fill="#507c70" d="M336 117v47l-64-1v-47z"/><path fill="#f2f0ff" d="M100 78v-8l199 10-1 8z"/><path fill="#41786f" d="M313 50l-67 3-1-30 67-2z"/><path fill="#050907" d="M366 166l-1 34-136-2 1-34z"/><path fill="#c8d7ee" d="M123 146l-1 12-65-8 1-12z"/><path fill="#e7f3ff" d="M263 163l-22-12 10-19 22 12z"/><path fill="#607995" d="M-1 65L17-37l26 5L25 70z"/><path fill="#e5f2ff" d="M304 23l-45 6-2-16 45-6z"/><path fill="#2c61af" d="M176 22l39 2-2 27-39-2z"/><path fill="#293438" d="M380 82l-59-3V63l60 3z"/><path fill="#f3ffff" d="M187 118l-82-3v-6l83 3z"/><path fill="#000802" d="M60-8l75 2V9L60 8z"/><path fill="#edf8ff" d="M136 150v-5l105 7-1 5z"/><path fill="#eaf4ff" d="M136 62l-83-2v-8l83 2z"/><path fill="#e6f7ff" d="M246 20l-1 33h-14l1-33z"/><path fill="#002521" d="M336 46h-11V24h11z"/><path d="M209 175l17 25-30 20-17-25z"/><path fill="#f3feff" d="M194 109l73 7v5l-73-8z"/><path fill="#2f343d" d="M95 69v-5h199v5z"/><path fill="#b77e70" d="M72 168l27 42-7 5-27-42z"/><path fill="#84766e" d="M21 181l-9-1 6-44 9 2z"/><path fill="#dde8ff" d="M297 60V49l51-1 1 11z"/><path d="M2 85h48v60H2z"/><path fill="#d8e1fe" d="M269 10l77 4-1 9-76-4z"/><path fill="#d27d70" d="M194 166l5 3-22 32-6-3z"/><path fill="#8c9aa7" d="M86 77v7H19v-7z"/><path fill="#fff" d="M179 25h5l1 26-5 1z"/><path fill="#d1d5ed" d="M343 75v12l-72-4V71z"/><path fill="#c6a7af" d="M81 42H52V9h28z"/><path fill="#c28279" d="M307 212l-2-2 27-36 3 2z"/><path fill="#3d655a" d="M68 109l-5-26 17-3 5 26z"/><path fill="#ce8373" d="M247 228l-4 2-32-59 4-3z"/></svg>