<svg xmlns="http://www.w3.org/2000/svg" viewBox="0 0 400 200"><style>@keyframes a{from{opacity: 0}to{opacity: 1}}g&gt;*{opacity: 0;animation: a .5s forwards}</style><path fill="#6a676e" d="M0 0h400v200H0z"/><path fill="#d1c3d1" d="M358 12L55 8l-3 149 268 4z" style="animation-delay:0s"/><path d="M44-24l-68 248 448-40-362-32z" style="animation-delay:.188s"/><path d="M424 203L355-24l-7 189-361 32z" style="animation-delay:.376s"/><path fill="#000104" d="M8 66L51 7l4 217-79-47z" style="animation-delay:.562s"/><path fill="#ca362b" d="M74 52l9-26 79-4 5 28z" style="animation-delay:.746s"/><path fill="#2e635d" d="M178 87l1 20-106 2-62-33z" style="animation-delay:.927s"/><path fill="#010800" d="M388-15L18 5l102 4 211-1z" style="animation-delay:1.104s"/><path fill="#f5ffff" d="M246 64L51 61l117-12 186 5z" style="animation-delay:1.277s"/><path fill="#cd574e" d="M177 112l147-1 38-22-170-5z" style="animation-delay:1.445s"/><path fill="#8c9aa6" d="M33 159l318-66 3 72-29-3z" style="animation-delay:1.607s"/><path fill="#030b0b" d="M386 224L374-24l-24 189-79-2z" style="animation-delay:1.763s"/><path fill="#e1ecff" d="M57 16l15-5 281 4-205 12z" style="animation-delay:1.912s"/><path fill="#0b0b0a" d="M244 162l-205-1-26 31 376-26z" style="animation-delay:2.054s"/><path fill="#b6625d" d="M162 144H52l4-33 61 9z" style="animation-delay:2.187s"/><path fill="#3e5c99" d="M129 145l120-1-4-27-54 4z" style="animation-delay:2.312s"/><path fill="#537f8d" d="M177 46l183 6 64-27-145-3z" style="animation-delay:2.427s"/><path fill="#dedeeb" d="M240 109l12 35-145 9 173 4z" style="animation-delay:2.533s"/><path fill="#d8e1f5" d="M289 83l-132 2-132-6 210-5z" style="animation-delay:2.629s"/><path fill="#487060" d="M270 117l4 38 62-1-5-34z" style="animation-delay:2.714s"/><path fill="#7c5550" d="M183 166l74 53-45-53-54 56z" style="animation-delay:2.789s"/><path fill="#1d282a" d="M337 61l-26 11 113 7v76z" style="animation-delay:2.853s"/><path fill="#ccd7f2" d="M64 144l80 4-90 5v-48z" style="animation-delay:2.906s"/><path fill="#dad8eb" d="M252 88l98-3-122-24 14-59z" style="animation-delay:2.947s"/><path d="M54 88L-7 78l-17-27 73 136z" style="animation-delay:2.976s"/><path fill="#d8d0df" d="M342 77l-6 56 11 32V80z" style="animation-delay:2.994s"/></svg>