<svg xmlns="http://www.w3.org/2000/svg" viewBox="0 0 400 200"><style>@keyframes fadeIn{from{opacity: 0}to{opacity: 1}}g.animated&gt;*{opacity: 0;animation: fadeIn .5s forwards}</style><path fill="#6a676e" d="M0 0h400v200H0z"/><g class="animated"><path fill="#d1c4d1" d="M334 159H56V8h278z" style="animation-delay:0s"/><path d="M-1 158l398 7-1 42-398-7z" style="animation-delay:.2s"/><path d="M1 203L-5 32l56-2 6 171zm384 3h-34V8h34z" style="animation-delay:.39s"/><path fill="#00473e" d="M104 103l2-22 54 5-2 22z" style="animation-delay:.59s"/><path d="M51 150l-56-3 3-64 56 3z" style="animation-delay:.78s"/><path fill="#cc3c2f" d="M166 51L65 54l-1-28 101-4z" style="animation-delay:.96s"/><path fill="#081212" d="M427 76l-1 91-74-1 2-91z" style="animation-delay:1.15s"/><path fill="#d15248" d="M203 111V85l139 2v27z" style="animation-delay:1.33s"/><path d="M51-55l2 121H35L33-54z" style="animation-delay:1.5s"/><path fill="#f7ffff" d="M297 61L74 65l-1-12 224-4z" style="animation-delay:1.67s"/><path fill="#dee4f4" d="M354 99l-4 55-14-1 3-55z" style="animation-delay:1.83s"/><path fill="#e8efff" d="M348 9v52h-14V9z" style="animation-delay:1.98s"/><path d="M293-4V9H177V-4z" style="animation-delay:2.12s"/><path fill="#385f98" d="M157 148v-29h88v29z" style="animation-delay:2.26s"/><path fill="#3e7061" d="M332 119l1 37-60 2-2-37z" style="animation-delay:2.38s"/><path fill="#fdffff" d="M224 21L68 24v-9l156-3z" style="animation-delay:2.49s"/><path fill="#6b98ba" d="M377 81V6h44v75z" style="animation-delay:2.6s"/><path fill="#3c736d" d="M339 46l-94 5-1-23 94-5z" style="animation-delay:2.69s"/><path d="M81-6l80-2V7l-79 3z" style="animation-delay:2.77s"/><path fill="#b3544a" d="M153 121l-1 25-91-3 1-25z" style="animation-delay:2.84s"/><path fill="#6382a4" d="M6 12l26 5-11 54-26-5z" style="animation-delay:2.9s"/><path fill="#0c0a08" d="M216 163l-1 45-198-3 1-46z" style="animation-delay:2.94s"/><path fill="#f3f7ff" d="M317 76v9l-198-3v-9z" style="animation-delay:2.97s"/><path fill="#00060a" d="M289-9l87 4v15l-88-3z" style="animation-delay:2.99s"/></g></svg>