<svg xmlns="http://www.w3.org/2000/svg" viewBox="0 0 400 200"><path fill="#6a676e" d="M0 0h400v200H0z"/><path fill="#d3c5d2" d="M57 9h275v149H57z"/><path d="M-4 153l386 13-2 45-385-13z"/><path d="M52 29v175h-83V29zm304 33l99 7-12 177-100-7z"/><path fill="#000e19" d="M381-52v161h-29V-52z"/><path fill="#f8ffff" d="M345 63H69V51h276z"/><path fill="#ca3b2e" d="M168 51L66 54l-1-28 102-4z"/><path d="M59-90L42 236l-21-1L38-91z"/><path fill="#095349" d="M158 110l-69-4 1-23 69 3z"/><path fill="#d25950" d="M342 115l-164-6 1-25 164 6z"/><path d="M248 7L82 10V-2l166-3z"/><path fill="#215196" d="M183 118l62 2-1 26-62-2z"/><path fill="#7b9a92" d="M351 163h-85v-53h85z"/><path fill="#b1483d" d="M59 142v-26h74v26z"/><path fill="#e8f3ff" d="M98 9h128v12H98z"/><path d="M54 88l-4 61-50-4 4-61z"/><path fill="#dee3ff" d="M338 10h12l1 53h-12z"/><path fill="#7da5c7" d="M405 24l-2 55-25-1 2-55z"/><path fill="#6d8bae" d="M-35 65L14 8l23 19-50 57z"/><path fill="#326e66" d="M317 23l-1 26-69-1 1-27z"/><path fill="#e5e7ff" d="M344 77l-1 11-117-7 1-11z"/><path fill="#050700" d="M342-7V9H175V-7z"/><path fill="#070906" d="M173 160v59H34v-59z"/><path fill="#cacdd9" d="M249 161l-133 2-1-16 133-2z"/><path fill="#e2dcf4" d="M340 87h9l-3 72-10-1z"/><path fill="#f7ffff" d="M257 22v-9l62-2 1 9z"/><path fill="#0c0c0a" d="M365 173l-3 40-173-12 3-41z"/><path fill="#1850a3" d="M187 51l-2-26 29-3 3 27z"/><path fill="#e9f4ff" d="M249 135l20 1-1 28-20-1z"/><path fill="#eaf4ff" d="M227 84L99 82V71l128 2z"/><path fill="#121922" d="M84 71v-2l199-3v1z"/><path fill="#e8effc" d="M202 116l-112 2v-8l112-2z"/><path fill="#2f574f" d="M338 146l-25 8-9-30 25-8z"/><path fill="#2d474d" d="M31 80l9-13 40 30-9 13z"/><path fill="#e3f5ff" d="M235 56l-6-43 13-2 5 44z"/><path d="M376 89l-3 77-16-1 3-76z"/><path fill="#c58176" d="M208 164l4-2 28 57-4 2z"/><path fill="#bbbfd0" d="M117 161l-64-3 1-18 64 4z"/><path fill="#c7857b" d="M315 206l-4-3 20-29 4 2z"/><path fill="#305b54" d="M283 154l-25-28 11-10 24 29z"/><path fill="#dc8578" d="M197 170l-32 52-4-2 32-53z"/><path fill="#d8ddf3" d="M53 65v-78h8v78z"/><path fill="#ecf4f9" d="M266 116l-1 4-73-6v-5z"/><path fill="#ae7769" d="M63 174l6-5 35 43-6 5z"/><path fill="#847a7c" d="M25 151l4 2-24 63-4-2z"/><path fill="#dce4ff" d="M342 11v11h-23V11z"/><path fill="#a0c9f8" d="M366 44l-7 2-5-13 8-3z"/><path fill="#054544" d="M337 50l-6 1-7-27 6-2z"/><path fill="#3e66a8" d="M147 145v-25l26-1 1 25z"/><path fill="azure" d="M168 51l-3-24 9-1 3 23z"/><path fill="#fff" d="M260 20l5 39h-1l-6-38z"/><path fill="#eaffff" d="M178 113V79h5v34z"/><path fill="#8e9ba5" d="M393 174h-7l-2-37h6z"/><path fill="#bdc8dd" d="M98 77l-76 5v-1l76-5z"/><path fill="#343737" d="M319 65h17v13l-18-1z"/><path fill="#d8fdff" d="M87 148l-2-51h1l3 51z"/><path fill="#e3efff" d="M131 15l-1 8-50-2 1-8z"/><path fill="#fffbff" d="M306 18l4 40-2 1-3-41z"/><path fill="#667884" d="M366 91l-4-10 30-14 4 10z"/><path fill="#d2cdc9" d="M105 87l-12 14-6-5 12-14z"/><path fill="#b24b47" d="M257 110V86l53-1v24z"/><path fill="#fffff6" d="M299 140l26-5v2l-26 4z"/><path fill="#ba1e1b" d="M145 140h-7v-22h7z"/><path fill="#9f8a7f" d="M-20 164l-1-6 42-11 2 6z"/><path fill="#000001" d="M60 165l15 23-58 39-16-23z"/><path fill="#0c1e1b" d="M58 8V-6l48-1V7z"/><path d="M384 54l-12 16-14-10 12-16z"/><path fill="#000b8f" d="M177 25l2 26-1 1-3-27z"/><path fill="#34363d" d="M163 66v-2l197 3v2z"/><path fill="#448677" d="M162 85l16-1 2 26-15 2z"/><path fill="#000003" d="M373 199l-40 5-5-39 41-5z"/><path fill="#9b8a80" d="M224 213l-2-2 34-41 2 2z"/><path fill="#d3bdc4" d="M91 14L71 47l-11-6L80 7z"/><path fill="#f5f3ff" d="M251 134h-2l5-54h1z"/><path fill="#000178" d="M234 24l-5 26h-1l4-27z"/><path d="M44 118l-23 14-23-39 23-14z"/><path fill="#fdeaea" d="M327 113v5l-37-2v-4z"/><path fill="#050b0f" d="M185 160v2l-90 1v-1z"/><path fill="#596b6b" d="M239 251l-1-1 49-136h2z"/><path fill="#e3dae7" d="M125 129l-4-2 12-23 4 2z"/><path fill="#e8ffff" d="M154 39h-10l1-8h9z"/><path fill="#000d12" d="M33 76l6-101h11L44 77z"/><path fill="#000002" d="M358-12l-4 70h-4l3-71z"/><path fill="#002139" d="M-8 55l-15-4L9-54l15 5z"/><path fill="#c8b5c2" d="M347 164l-74-4 1-3 73 3z"/><path fill="#001e30" d="M246 44l5-31h1l-4 31z"/><path fill="#90858f" d="M277 11v2L78 9V8z"/><path fill="#950000" d="M76 45L62 23l1-1 15 22z"/><path d="M225 197l-29 26-19-21 29-26z"/><path fill="#fffff7" d="M185 116h2l1 20h-1z"/><path fill="#edebe6" d="M280 50h-1l-8-42h2z"/><path fill="#e3f7ff" d="M187 64h-3l-4-39h3z"/><path fill="#9b8a7d" d="M374 190l3-35 1 1-3 34z"/><path fill="#a2a09c" d="M279 223l-5-47h1l6 46z"/><path fill="#a48b87" d="M137 167l29 48-2 1-28-49z"/><path fill="#353f4c" d="M43 71v-1l66-5v2z"/><path fill="#4c6e72" d="M166 88L10 77v-1l156 11z"/><path fill="#002628" d="M328 120l-32 4-1-2 33-3z"/><path fill="#8c9dc0" d="M20-7L6 54l-5-1L15-8z"/><path fill="#475558" d="M36 3l2 45-16 1-2-45z"/><path fill="#4c6d64" d="M66 109l-3-27 20-2 3 27z"/><path fill="#d7d5e1" d="M80 68l-7 47-1-1 6-46z"/><path fill="#c3c8e3" d="M60 112l3 33-6 1-3-33z"/><path fill="#f8e4d8" d="M238 120l-1 21h-5l1-21z"/><path fill="#00050d" d="M51 185H26V85h25z"/><path fill="#fffdf4" d="M270 41h-4V23h4z"/><path fill="#788088" d="M409 133l-5 12-18-8 6-11z"/><path fill="#62829b" d="M417 66l-41-2 3-69 40 2z"/><path fill="#984c4e" d="M142 116l-89 5v-1l89-5z"/><path fill="#eff5ee" d="M284 98h2l7 40h-2z"/><path fill="#134195" d="M189 113l6-1 2 30h-6z"/><path fill="#8e8f87" d="M284 173l26 52-2 1-25-52z"/><path fill="#7f7571" d="M130 165l-26 69-1-1 26-68z"/><path fill="#0a100e" d="M345 85l39-38 4 4-40 38z"/><path fill="#917b6f" d="M147 169l1-1 31 24-1 1z"/><path fill="#d6eef1" d="M316 93h10v9h-10z"/><path fill="#e8dad2" d="M133 85l3 41h-2l-3-41z"/><path fill="#776c5d" d="M25 149l-3 1-14-35 3-1z"/><path fill="#e9f8ff" d="M246 13h1l-4 48h-1z"/><path fill="#6f96c7" d="M359-12h3l-1 63h-3z"/><path fill="#dfd9d9" d="M168 137h-1l7-60h2z"/><path fill="#1c519b" d="M237 23l-44 7v-2l43-6z"/><path fill="#d7e0fd" d="M123 151v-5l125 5-1 4z"/><path fill="#0e110b" d="M408 106l-34 8-5-22 34-7z"/><path fill="#e1e0cd" d="M151 96l-5 35h-2l6-36z"/><path fill="#a8a4b4" d="M174 67l126 2v9l-127-2z"/><path fill="#d9c7cf" d="M344 147l-15-44 3-1 15 44z"/><path fill="#001b22" d="M282 22l-2 27-2-1 3-26z"/><path fill="#b04748" d="M81 42l2-18 62 7-2 19z"/><path d="M388 146l9-3 13 31-9 4z"/><path fill="#fff4e0" d="M294 27h11v7h-11z"/><path fill="#00010b" d="M312 48l-2-16h1l3 15z"/><path fill="#deeeff" d="M231 60h-1l-13-50h2z"/><path fill="#395957" d="M326 113l10 1-7 40-10-1z"/><path fill="#8c99a2" d="M360 159h-1l-5-67h1z"/><path fill="#d3dfff" d="M147 63v-5l192-7v5z"/><path fill="#867f78" d="M295 173l1-1 26 25-1 1z"/><path fill="#fffaea" d="M195 38l4-22 1 1-3 21z"/><path fill="#fff" d="M159 98l2-8 6 1-2 8z"/><path fill="#dce1fd" d="M63 110l28-3 1 7-28 2z"/><path fill="#7e6a63" d="M117 170l1 1-40 46-1-1z"/><path fill="#e2ffff" d="M234 81l1-1 8 19-2 1z"/><path fill="#900015" d="M328 111h-1l2-27 2 1z"/><path fill="#00122c" d="M23 62h-2L4 2h2z"/><path fill="#e6d9cd" d="M94 54l-1 1-8-42h2z"/><path fill="#9a877f" d="M134 171l4 56h-1l-5-56z"/><path fill="#00111c" d="M262 23h1l5 24-2 1z"/><path fill="#f7ffff" d="M195 100l-9-2 2-6 9 2z"/><path fill="#e1e5ee" d="M250 109l8 45-6 1-9-45z"/><path fill="#92746e" d="M213 183l28-16 1 1-29 17z"/><path fill="#002e1e" d="M300 139l-7 14h-1l7-14z"/><path fill="#dce6ff" d="M273 12L117 23l-1-2 157-11z"/><path fill="#b0b5c0" d="M319 77l34-84h1l-34 84z"/><path fill="#001227" d="M295 24l-1 20h-3l1-21z"/><path fill="#780000" d="M164 52l-3-31h1l4 31z"/><path fill="#001319" d="M100 99L88 85l1-1 12 14z"/><path fill="#9897a2" d="M73 152l278 5v5l-278-5z"/><path fill="#f0e9ef" d="M310 133l-9 24-3-1 9-24z"/><path fill="#d1cedf" d="M313 85l-62-1V70l62 1z"/><path fill="#a73e3c" d="M279 99l-35 14-3-7 35-14z"/><path fill="#f2d6c9" d="M251 110l25-1v8l-25 1z"/><path d="M185 176l-6 11-16-9 6-11z"/><path fill="#7186a1" d="M15 51l6 1-3 17-6-1z"/><path fill="#001f2c" d="M254 19l5 20h-2l-5-20z"/><path fill="#002824" d="M310 45l19 3v2l-19-3z"/><path fill="#dae0f4" d="M325 51l-3-34 1-1 4 35z"/><path fill="#cfd3db" d="M222 88l53 71-1 1-54-71z"/><path fill="#e6f1ff" d="M176 117l11-42h2l-12 42z"/><path fill="#003a27" d="M307 159l-1-1 11-3v1z"/><path fill="#004148" d="M289 122l-20-4v-1l20 4z"/><path fill="#c4b097" d="M376 115l6 1v8l-6-1z"/><path fill="#001095" d="M171 26l-1-1 11-3v2z"/><path fill="#001b40" d="M230 118h1l-3 28h-2z"/><path fill="#cbc7c4" d="M274 113l-4 50h-1l3-50z"/><path fill="#9492a2" d="M343 99h8l1 53h-8z"/><path fill="#e2ddc7" d="M138 62h-1l-5-32h2z"/><path fill="#1e4d4d" d="M104 86l23 3-1 14-24-3z"/><path fill="#d0d8e3" d="M81-12l-1 50h-3l1-50z"/><path fill="#dcceb5" d="M106 64h-1l-3-42h1z"/><path fill="#17181c" d="M270 169l-154-2v-7l154 3z"/><path fill="#fff" d="M382 58l4-2 2 6-4 2z"/><path fill="#7c6c66" d="M74 185l-1-2 43-22v1z"/><path fill="#000b84" d="M217 37l6 5-1 1-6-5z"/><path fill="#000010" d="M168 85l1 22h-1l-1-22z"/><path fill="#ac857e" d="M252 211l-2 3-31-27 2-2z"/><path fill="#b5c8d4" d="M50 72l-5-3v-1l6 2z"/><path fill="#790009" d="M154 22l4 29h-1l-4-29z"/><path fill="#bd252b" d="M77 19l-17 5-1-4 17-5z"/><path fill="#fff4c4" d="M189 27l3 16h-2l-2-15z"/><path fill="#9c4640" d="M208 112l-1-2 71-11 1 2z"/><path fill="#f3f4ff" d="M99 93h-1l7-19h2z"/><path fill="#939495" d="M366 93l-6-6 10-10 6 6z"/><path fill="#002d33" d="M174 109h-1l4-26h2z"/><path fill="#a8b8d8" d="M5 14l2 42H6L4 14z"/><path fill="#042522" d="M311 22l23 3v1l-23-2z"/><path fill="#dce4fb" d="M63 60l-3-43h1l3 43z"/><path fill="#c9cbde" d="M58 80l44-12 1 3-44 12z"/><path fill="#ded5df" d="M159 58h-1l3-46 2 1z"/><path fill="#002132" d="M353-13l21 2-3 35-22-3z"/><path fill="#dde0e3" d="M219 76l-4 31h-4l3-31z"/></svg>