<svg xmlns="http://www.w3.org/2000/svg" viewBox="0 0 16 8"><path fill="#69646c" d="M0 0h16v8H0z"/><path d="M1 7l1 10L30 5z"/><path fill="#cfc5d7" d="M4 6h10L9-15z"/><path d="M2 1L-9 13l14 2z"/><path fill="#000b08" d="M15 2l1 17L32 7z"/><path fill="#a1a0ad" d="M15 6l-1-19L3 2z"/><path fill="#0d0a0b" d="M32 24L-1 3l16 21z"/><path fill="#9b8691" d="M3 5l10 1-1-3z"/><path fill="#100a0c" d="M6 7l11 1 1 16z"/><path fill="#b4a5b8" d="M13 2L-2-4l8 7z"/><path fill="#4c5554" d="M14 7L32-4V6z"/><path fill="#82838e" d="M6 4L1-15l7 2z"/><path d="M2 4l-6 3-11-10z"/><path fill="#7c6d7d" d="M6-7L-12 7l-3 17z"/><path fill="#7a908e" d="M14 6L9 5l4-2z"/><path fill="#38434a" d="M16 2l-6-14 5-2z"/><path fill="#b0a1b5" d="M12 6L9-15 5-2z"/><path fill="#473e42" d="M1 7L-4-8l-11 1z"/><path fill="#a8aeb5" d="M13 3l5-12-3-6z"/><path fill="#121b1a" d="M16 4l16-5-5 8z"/><path fill="#798c93" d="M13 1L-1-9l33-6z"/><path fill="#748a8f" d="M6 3l3 1H5z"/><path fill="#aa8da5" d="M3 2l9-3v-14z"/><path fill="#6b8a82" d="M12 5l2-1-1 2z"/><path d="M0 7l18 6-31 11z"/><path fill="#b6859a" d="M5 6l3-2H3z"/><path fill="#36282d" d="M-3 14l4 10L15 6z"/><path fill="#cbb4c6" d="M12 3h1l-1-1z"/><path fill="#7f8e92" d="M16 2l14 3 2 6z"/><path fill="#4e4147" d="M11 6H7l2 1z"/><path fill="#9d7e92" d="M13 3L7 5l2-2z"/><path fill="#a098aa" d="M11-13l-6 1L9 4z"/><path fill="#313c37" d="M4 7L3 24l10-4z"/><path fill="#0a0000" d="M9 8l9 16-11-1z"/><path fill="#353a3b" d="M7 7l4 13-4-5z"/><path fill="#170e1a" d="M2 3l-12-2-5 19z"/><path fill="#aeb0ba" d="M5 3l3-1 2 1z"/><path fill="#070606" d="M15 7l5 17-8-13z"/><path fill="#7a8185" d="M5 4L3-3v6z"/><path fill="#9f8ea5" d="M-2-15H8l2 18z"/><path fill="#a4879b" d="M3 2L4-8l11-7z"/><path fill="#b8bece" d="M10 2l5-11-4-6z"/><path fill="#463549" d="M2 2l3-7-3-10z"/><path fill="#44494e" d="M16 2l-3-17-1 9z"/><path fill="#080b0c" d="M8 8l12 13-7 3z"/><path fill="#232d2b" d="M3 7l20 10-11-1z"/><path fill="#8cbaad" d="M10 4v1l1-1z"/><path fill="#1b2623" d="M15 6l13 14-8-4z"/><path fill="#bba7c0" d="M8 2L7-8H4z"/><path fill="#464850" d="M15 2l17 2-5 8z"/><path fill="#96aab1" d="M12 2l5-11 4 1z"/><path fill="#020006" d="M2 4l-13 6 3-5z"/><path fill="#424b4b" d="M32-13l-1 30L17 5z"/><path fill="#3b3938" d="M18 24L13 7l12 17z"/><path fill="#2e2a32" d="M2 3l-17-8v8z"/><path fill="#9ba0af" d="M9 2l3-12h8z"/><path fill="#26242e" d="M15 3l10 4 5 8z"/><path fill="#878d97" d="M12 1l15-13-16 5z"/><path fill="#021310" d="M6 8l15 16-36-13z"/><path d="M3 8l-18 16 23-6z"/><path fill="#ab899c" d="M14 4l-1-2h1z"/><path fill="#c2a8bd" d="M11 2l-1-5-1 6z"/><path fill="#617878" d="M3 3l1 1 1-1z"/><path fill="#947387" d="M13 3v1l-1-1z"/><path fill="#1d2a28" d="M-12 24l9-2L6 7z"/><path fill="#a1798e" d="M8 6L5 5h3z"/><path fill="#26121c" d="M14 14L1 12l10-4z"/><path fill="#637276" d="M28 5L10-3l17-4z"/><path fill="#a68da2" d="M7 2l-22-17h12z"/><path fill="#a5acbb" d="M14-15L10 1l12-13z"/><path fill="#36222b" d="M12 7l3 9-3 8z"/><path fill="#6e8b85" d="M14 4l-3 1 1-1z"/><path fill="#363736" d="M2 7L-10-3v6z"/><path fill="#40464c" d="M15 1l3-13 8-3z"/><path fill="#ac98ae" d="M11 4L2-15l-5 4z"/><path fill="#9a96a8" d="M10 2L7-11l-8-4z"/><path fill="#38262e" d="M11 7L0 21l6 1z"/><path fill="#313231" d="M4 8L2 24l7-7z"/><path fill="#94a2a5" d="M10-6l4 8-1-8z"/><path fill="#b6aec0" d="M7 3v-18h5z"/><path fill="#c79db5" d="M10 2h2l-1 1z"/><path fill="#b39cb4" d="M6 2l1-1V0z"/><path fill="#0f0107" d="M14 8l4 7 8 3z"/><path fill="#2f2329" d="M-7 15L0 5l-3-3z"/><path fill="#2e292a" d="M14 7L1 20l6 4z"/><path fill="#030b09" d="M15 8L8 20H0z"/><path fill="#172120" d="M5 7l15 17H10z"/><path fill="#17060f" d="M-13 6l8 2 7-3z"/><path fill="#beabbd" d="M10 3h3l-3-1z"/><path fill="#3c3d3b" d="M16 7l7-11-1 8z"/><path fill="#7e8189" d="M14 3l4-13-4-5z"/><path fill="#90989f" d="M14 1l15-16H-2z"/><path fill="#222727" d="M6 7L1 24l-5-1z"/><path fill="#8b8892" d="M7 5l3 1H8z"/><path fill="#aa93ab" d="M8 2v-17l5 5z"/><path fill="#9896a4" d="M11 3l5-18-5 5z"/><path fill="#828d98" d="M12 1L1-15l20 3z"/><path fill="#1d1014" d="M1 5l-16-20 1 11z"/><path fill="#2a2226" d="M10 8L-1 9l16 10z"/><path fill="#9e929e" d="M4 1l6-9-4-7z"/><path fill="#293533" d="M15 6l13 1-2 4z"/></svg>