<svg xmlns="http://www.w3.org/2000/svg" viewBox="0 0 128 64"><path fill="#817e7b" d="M0 0h128v64H0z"/><path fill="#050000" d="M136 64L-15 31 4 80z"/><path fill="#d5d7d9" d="M86 53L-15 10l159 16z"/><path fill="#4b4642" d="M51-15h30L45 80z"/><path fill="#e8e0d2" d="M41 4l-56 30 65-1z"/><path fill="#bdbfc6" d="M96 8l32 40-65-5z"/><path fill="#aea998" d="M42 6l-57 41L9 3z"/><path fill="#939596" d="M133-2L71 18l66 19z"/><path fill="#5b5d5e" d="M128 71L56 45l72 6z"/><path fill="#8a8e97" d="M50 31l-9 21-13-8z"/><path fill="#231d0e" d="M33 61L-6 79V31z"/><path fill="#352e27" d="M48 28l26 36-27 3z"/><path fill="#f6f7fa" d="M46 15l1 21-16-8z"/><path fill="#6e6964" d="M55 17L8-10l133 4z"/><path fill="#8d929c" d="M52 40l20 7-1-38z"/><path fill="#504a3d" d="M-15 36l59 25-15-27z"/><path fill="#d1ced1" d="M76 27l13 29 1-30z"/><path fill="#313632" d="M123 52l21 3-38 23z"/><path fill="#8e9292" d="M120 51l24-1-30-65z"/><path fill="#d2cbc2" d="M40 12l-30-2 34 31z"/><path fill="#e0e8f1" d="M105 34l7-9-2 17z"/><path fill="#95989f" d="M82 56l13-4-19-14z"/><path fill="#939389" d="M12 34l-27-2L6 4z"/><path fill="#3f3d2b" d="M-15 6l30-6-16-13z"/><path fill="#e0e3e6" d="M81 45l11-11-12 3z"/><path fill="#b7c5db" d="M77 48l-4-20-4 17z"/><path fill="#575350" d="M41 55l11-12-1-24z"/><path fill="#a8a6a0" d="M105 27l-18 2 18 20z"/><path fill="#e8e7e3" d="M45 14l-11-2 8 23z"/><path fill="#7f7d79" d="M137 32l-28-9 35-15z"/><path fill="#b4aa9c" d="M30 22L6 10l30-6z"/><path fill="#83807f" d="M66 7l55-4-68 25z"/><path fill="#787a83" d="M80 36l-2 9-1-14z"/><path fill="#38332c" d="M124 63L20 80l28-27z"/><path fill="#54514f" d="M55 44l30 20 14-8z"/><path fill="#9da3a2" d="M144 57l-33-11 14-11z"/><path fill="#fbffff" d="M115 31v9l3 1z"/><path fill="#9b999a" d="M144 7l-38 17-33-6z"/><path fill="#ccc7c6" d="M86 23l22 3-42 6z"/><path fill="#949aa9" d="M47 33l-8 13-4-9z"/><path fill="#5f5b5b" d="M38 57l10-9-31-13z"/><path fill="#797777" d="M67 47l-15-8-2-24z"/><path fill="#adafb6" d="M78 45l11 5-6 3z"/><path fill="#6a6d6f" d="M112 60l13-4-14-11z"/><path fill="#3f3a36" d="M67 47l1 12-21-19z"/><path fill="#b5bbbd" d="M105 48l10-9-27 6z"/><path fill="#6d6863" d="M14-15l44 35 52-35z"/><path fill="#221c15" d="M43 68l-50 8-8-26z"/><path fill="#eff4f6" d="M47 30V19l-9 8z"/><path fill="#7e7973" d="M84 46l19 10 10-5z"/><path fill="#3e3830" d="M-11 35h26l26 35z"/><path fill="#554e40" d="M22 35l12 12L0 36z"/><path fill="#8c8f97" d="M64 44l3-23-11 21z"/><path fill="#d1e4f7" d="M111 37v7l-4-4z"/><path fill="#c6c0b5" d="M33 34L22 11l-2 19z"/><path fill="#8e8f8e" d="M111 32V5l10 20z"/><path fill="#989694" d="M94 32l8 1 6-6z"/><path fill="#7f7972" d="M62 21l-9 5L42 7z"/><path fill="#72737d" d="M76 48l4 6-1-12z"/><path fill="#9d9a93" d="M18 34h-33L-1 9z"/><path fill="#959082" d="M7 2h29l-46 13z"/><path fill="#747067" d="M24 34l14 2-5 6z"/><path fill="#352f2a" d="M75 56l-44 4 71 18z"/><path fill="#d4d5da" d="M84 36l-4-5 1 18z"/><path fill="#6b6768" d="M92-15l30 12-17 10z"/><path fill="#828280" d="M141 50l-28-36 31 9z"/><path fill="#dbcfc1" d="M44 13L31 25l2-14z"/><path fill="#514e4a" d="M52 31l-2-8-2 4z"/><path fill="#7a7b80" d="M90 51H77l17 5z"/><path fill="#828691" d="M34 47l7-1 5-7z"/><path fill="#c0bfbf" d="M113 27l-4-1-7 6z"/><path fill="#727375" d="M107 53l16 8-12-18z"/><path fill="#686352" d="M33 3l-44-8 7-10z"/><path fill="#bcc0ca" d="M85 49v2l6-1z"/><path fill="#a2a4a7" d="M110 45l7-4 8 10z"/><path fill="#8a8d92" d="M142-1l-30 17-34-1z"/><path fill="#453f3a" d="M55 45l-7-9-3 31z"/><path fill="#72706c" d="M52 40l7 4-8-24z"/><path fill="#b8b3a7" d="M8 24L6 12l34-2z"/><path fill="#acafbb" d="M68 45l7-17-6-2z"/><path fill="#565a5a" d="M129 62l-6-6-18 2z"/><path fill="#d9e0e9" d="M111 36l-6 4 6-9z"/><path fill="#dae4ee" d="M117 37l-3-2 1-5z"/><path fill="#8f979d" d="M113 34l-1 11 3-1z"/><path fill="#b4b0ac" d="M98 47V26l-11 5z"/><path fill="#a0a4b2" d="M40 33l-3 7 6 1z"/><path fill="#aeaead" d="M85 43l20 5v-8z"/><path fill="#8f8c84" d="M-3 0l-12 32 20 3z"/><path fill="#aba5a3" d="M93 18l14 7-36-3z"/><path fill="#34312b" d="M125 53l19-3v15z"/><path fill="#8f908b" d="M122 27l22 20-16 5z"/><path fill="#63605b" d="M105 57l-13-4 2 4z"/><path fill="#e2e0dd" d="M32 23l14-5-8 15z"/><path fill="#c4c2ce" d="M44 32l-6 1 9 1z"/><path fill="#4a4745" d="M45 65L29 54l19-3z"/><path fill="#81786d" d="M32 4l11 4-16-23z"/><path fill="#d9cfc6" d="M30 32l6 1-4-17z"/><path fill="#c2c9d6" d="M73 39l3 9-1-18z"/><path fill="#7b7775" d="M61 21l-4-6L80 5z"/><path fill="#262e2e" d="M144 80h-34l34-36z"/><path fill="#999491" d="M58 27l36-10-19-2z"/></svg>