<svg xmlns="http://www.w3.org/2000/svg" viewBox="0 0 2000 1000"><path fill="#7f7e79" d="M0 0h2000v1000H0z"/><path fill="#030000" d="M-113 1121L20 527l2101 469z"/><path fill="#cecfd2" d="M1910 816L-121 363l1945-203z"/><path fill="#f7f0e1" d="M715 598l-836-430 836-23z"/><path fill="#4e4845" d="M1262-121L770 4l-71 1070z"/><path fill="#c3cad3" d="M949 660l446 196 54-594z"/><path fill="#585b58" d="M1856 723l-758 117 1023 148z"/><path fill="#b9b3a4" d="M-121 543l656-31-203-633z"/><path fill="#868788" d="M2121-12L738 238l1328 188z"/><path fill="#848b92" d="M660 848L395 637l343-125z"/><path fill="#1e1b08" d="M-121 527l656 422-500 172z"/><path fill="#b6b9ba" d="M1949 801L863 371l1258 55z"/><path fill="#353125" d="M707 1121l47-492 477 148z"/><path fill="#f2f3ef" d="M723 223l-250-8 258 336z"/><path fill="#544d3e" d="M418 527L20 543l742 414z"/><path fill="#6f6965" d="M332-121l1789 31L824 332z"/><path fill="#a9a395" d="M684 82L-27 449 20 98z"/><path fill="#e2f2ff" d="M1668 699l86-93-102-188z"/><path fill="#474540" d="M793 316l-8 555-179 16z"/><path fill="#2e322a" d="M1879 801l234 31-148 289z"/><path fill="#9198a3" d="M1074 152l258 711-461-226z"/><path fill="#8a8e8e" d="M2121-59l-523 196 359 601z"/><path fill="#4c4535" d="M418 12L121-59-82 35z"/><path fill="#dddedc" d="M1246 738l156-156-164-211z"/><path fill="#bfc9d9" d="M1176 332l-8 406-125-31z"/><path fill="#d4cdc2" d="M637 129L184 527l390-8z"/><path fill="#676b69" d="M1723 668l-172 242h437z"/><path fill="#605c55" d="M1199 738l305 211-594-195z"/><path fill="#96a1af" d="M574 527l16 219 133-141z"/><path fill="#2c2a20" d="M1457 1121l-351-258-719 78z"/><path fill="#f0fbff" d="M1809 465l15 180-62-133z"/><path fill="#82807f" d="M1629 82l-578 31-219 360z"/><path fill="#939185" d="M-121 793l62-719 289-62z"/><path fill="#bfbeba" d="M1254 363l375 368-211 7z"/><path fill="#edf3f4" d="M520 465l203 23 8-179z"/><path fill="#787a7d" d="M1246 707l-70 55 39-274z"/><path fill="#bab5a9" d="M82 176l555-63-414 422z"/><path fill="#919797" d="M2121 824l-492-125 359-125z"/><path fill="#403b2d" d="M231 527l367 594-719-555z"/><path fill="#a19c98" d="M1465 574l250-156-367 39z"/><path fill="#5d5953" d="M629 918L238 543l250 8z"/><path fill="#6b6560" d="M1856-82L754 215 262-121z"/><path fill="#969a9b" d="M1277 715l-23 117 305-31z"/><path fill="#c6c2c2" d="M1262 340l390 70-640 110z"/><path fill="#9fa6a8" d="M1785 199l336-125-195 180z"/><path fill="#878c94" d="M887 660l125 47 47-406z"/><path fill="#d5dce1" d="M1723 418l-86 39 109 195z"/><path fill="#90887a" d="M621 82l-680 31L277 4z"/><path fill="#3e3930" d="M1066 762v187L699 590z"/><path fill="#848380" d="M2121 301l-656-156 656 437z"/><path fill="#73736f" d="M1957 895l-726-55 515-102z"/><path fill="#1e1c12" d="M551 1012l-672-172 250 281z"/><path fill="#a9a2a1" d="M996 418l633-78-414-78z"/><path fill="#6a6b6c" d="M465 684l273-63-54 180z"/><path fill="#a09f98" d="M293 520L20 543l62-391z"/><path fill="#909392" d="M1785 246l-31 375-63-336z"/><path fill="#a2afbe" d="M723 496L535 652l117-23z"/><path fill="#969692" d="M2121 668h-281l-55-352z"/><path fill="#ded7cb" d="M504 184l23 320 157-313z"/><path fill="#86817a" d="M777 356l196 78L621 90z"/><path fill="#b5c2d1" d="M1465 801l-149-24 55-23z"/><path fill="#574e3f" d="M356 535H-90l594 180z"/><path fill="#aba297" d="M426 51l-133 86 422 47z"/><path fill="#514e42" d="M277-59l-398 172 250-234z"/><path fill="#d8dee2" d="M1231 660l148-15 8-118z"/><path fill="#666661" d="M1691-59l-109 204 414-266z"/><path fill="#676053" d="M1481 785l-79-39 196 8z"/><path fill="#3d3932" d="M738 598l39-157 24 329z"/><path fill="#8c8f92" d="M1254 199l867-133-445 211z"/><path fill="#dce4ec" d="M1824 645l-23-110-24 102z"/><path fill="#4c504d" d="M1816 973l227-86h-547z"/><path fill="#797465" d="M1293 707l-47 39 125-23z"/><path fill="#a2a5a2" d="M1340 551l70 226-70-101z"/><path fill="#bfc2c0" d="M1645 441v86l172-148z"/><path fill="#7a7a7a" d="M941 246L785 613l141 71z"/><path fill="#bac8d9" d="M1176 496l-71 180 55 70z"/><path fill="#50514e" d="M613 934l-164-86 305-164z"/><path fill="#989894" d="M1738 356l-203 117 8 86z"/><path fill="#d0d7dd" d="M1238 785l94-242-86 70z"/><path fill="#514e48" d="M754 332l47 39-55 63z"/><path fill="#c9c3b8" d="M262 168l234 180-148 70z"/><path fill="#9ba6b5" d="M1121 738l-23-344-110 274z"/><path fill="#3a3325" d="M2074 895l-219-94 250 31z"/><path fill="#717373" d="M723 613l-47-39 47-31z"/><path fill="#797263" d="M520 652l39-125-289-8z"/><path fill="#b2afac" d="M1262 488l226-93 78 226z"/><path fill="#d5d3d3" d="M1457 402l-289 94 133-101z"/><path fill="#7b7367" d="M309-121L20-43 723 90z"/><path fill="#dedad1" d="M754 496l-250-8-55-117z"/><path fill="#4f4b46" d="M1121 895l-8-157-195-47z"/><path fill="#828380" d="M1848 270l-110 218 328-273z"/><path fill="#2e2b21" d="M777 957l821 31-524 133z"/><path fill="#949291" d="M856 496l500-250-297 55z"/><path fill="#778791" d="M1840 637l-47 31-47-31z"/><path fill="#595649" d="M1684 770l31-39 78 31z"/><path fill="#d6dfe3" d="M1762 473l31 164 16-149z"/><path fill="#8b8a8e" d="M1207 723l16-227-47 86z"/><path fill="#93928a" d="M35 106l71 421-227 32z"/><path fill="#aba18f" d="M465 254v94l-47-102z"/><path fill="#b2b5b3" d="M1301 637l-16 70 172 16z"/><path fill="#737371" d="M1215 707l-39 39 133 125z"/></svg>