<svg xmlns="http://www.w3.org/2000/svg" viewBox="0 0 256 128"><path fill="#807e7b" d="M0 0h256v128H0z"/><path fill="#060000" d="M-1 68l3 76 270-16z"/><path fill="#d6d6d9" d="M272 54l-98 57-189-91z"/><path fill="#f1e9db" d="M96 69L86 9-15 64z"/><path fill="#4c4742" d="M155-15L96 144 95-15z"/><path fill="#bec0c5" d="M184 17l-57 68 145 15z"/><path fill="#b5ae9d" d="M2 70l87-58-90-2z"/><path fill="#595958" d="M270 98l-167-5 167 51z"/><path fill="#716e69" d="M-15 51l95 60 17-27z"/><path fill="#949596" d="M266 66l6-64-168 30z"/><path fill="#211a0c" d="M68 123l-83 20V67z"/><path fill="#e3e4e5" d="M99 36L79 93 64 18z"/><path fill="#332d25" d="M94 64l77 73-77-2z"/><path fill="#6f6966" d="M254-4L113 41 34-15z"/><path fill="#99a1af" d="M109 84l23-50 54 73z"/><path fill="#443c2f" d="M60 134l-75-65 72 1z"/><path fill="#e5e4e5" d="M159 51l1 43 21-19z"/><path fill="#919494" d="M268 106l-36-7 6-114z"/><path fill="#2d2f2b" d="M247 144l-2-40 27 2z"/><path fill="#bcb5a9" d="M26 69L9 22l73-5z"/><path fill="#e5f3ff" d="M218 51l6 31-13 1z"/><path fill="#828b9c" d="M80 101l15-35-31 15z"/><path fill="#838284" d="M143 7l-13 84-29-12z"/><path fill="#9f9e97" d="M42 67L5 12-7 70z"/><path fill="#413d2a" d="M64-5l-79-10 6 23z"/><path fill="#4c4744" d="M155 99L96 81l-35 33z"/><path fill="#504c47" d="M95 77l10-11-9-35z"/><path fill="#f1f1ef" d="M61 66l34-9-4-29z"/><path fill="#c1ccde" d="M151 96l-13-7 13-41z"/><path fill="#a6a39e" d="M174 58l35-1 6 47z"/><path fill="#6b6c6d" d="M148 110l11-13-3-31z"/><path fill="#ecf5ff" d="M226 64l6-5v24z"/><path fill="#cec8c7" d="M139 57l28 10 27-24z"/><path fill="#848380" d="M272 5l-47 54 47 13z"/><path fill="#71706f" d="M224 93l-66 19 95 3z"/><path fill="#b8bdc2" d="M176 93l8 10-26-4z"/><path fill="#8a8789" d="M243 17l-75-7-58 42z"/><path fill="#aab1b6" d="M224 75l14 25 18 4z"/><path fill="#9a9585" d="M19 3l50 3-84 27z"/><path fill="#7a706a" d="M95-7L75 1l33 58z"/><path fill="#36342e" d="M188 118l72 8-115 18z"/><path fill="#9e9c9c" d="M212 49l60-35-128 24z"/><path fill="#696a70" d="M82 108l12-27-34 5z"/><path fill="#7a7267" d="M77 67L66 85 44 68z"/><path fill="#c7c1b7" d="M76 66L32 18l-2 50z"/><path fill="#b2b8c2" d="M228 79l-17 18-17-2z"/><path fill="#b8afa0" d="M66 14l-34 1 29 28z"/><path fill="#201b14" d="M-14 108l76 20-73 16z"/><path fill="#99a2b0" d="M69 82l11-17 12 16z"/><path fill="#777471" d="M122 89l-19-66-1 58z"/><path fill="#d1d7dd" d="M214 88l-3-30 13-6z"/><path fill="#93979a" d="M213 47l13 13v11z"/><path fill="#ddd5c7" d="M57 68l11-47 23 6z"/><path fill="#a09f9c" d="M225 48l-26 21h-32z"/><path fill="#302b25" d="M182 144L56 122l70-9z"/><path fill="#cacac5" d="M167 50h51l-23 8z"/><path fill="#9d9c9a" d="M227 42l45 40-35-2z"/><path fill="#7a7772" d="M233 100l-66-7 49 20z"/><path fill="#7f7f7d" d="M215 24l47 15 4 29z"/><path fill="#6b6660" d="M183 0l-61 23L35-1z"/><path fill="#8d857b" d="M44-5L80 6l22 30z"/><path fill="#525150" d="M78 120L44 99l54-6z"/><path fill="#f2f7ff" d="M228 82h6l-2-9z"/><path fill="#f1f5fb" d="M93 67L78 50l14-5z"/><path fill="#3c342d" d="M123 122l-2-29-30-19z"/><path fill="#dbdee7" d="M166 71l-7 9 1 19z"/><path fill="#55595b" d="M253 113l-7 12-39-11z"/><path fill="#9a9890" d="M4 15l19 52-38 3z"/><path fill="#878677" d="M4 7l23-4-42 38z"/><path fill="#fdffff" d="M179 84l-2-14-2 13z"/><path fill="#807f76" d="M176 93l-11 5-3-6z"/><path fill="#7b7878" d="M229 9l-84-1-52 37z"/><path fill="#879096" d="M272 37l-57-25 51-27z"/><path fill="#89898e" d="M151 87l2-22 4 11z"/><path fill="#aca9a2" d="M16 67L9 28l42 38z"/><path fill="#868e96" d="M224 71l-1 21 6-2z"/><path fill="#a69f95" d="M59 8L15 19l73 3z"/><path fill="#777674" d="M151 100l8 9 19-1z"/><path fill="#b2abab" d="M201 44l-80 15 41-21z"/><path fill="#b6b5b3" d="M211 73l-1 21-51-35z"/><path fill="#d4d1cd" d="M92 60l-40-2 37 14z"/><path fill="#8b8b88" d="M255 50l-52-2 23-15z"/><path fill="#584d3c" d="M23 86l17-17-32 1z"/><path fill="#9b999a" d="M124 66l49-37-48 19z"/><path fill="#413b33" d="M241 104l13-1 13 16z"/><path fill="#abb0b8" d="M190 103l-29-1 16-6z"/><path fill="#514d49" d="M208 120h-51l11-12z"/><path fill="#67645f" d="M221 91l17 9-26-2z"/><path fill="#9c9fa1" d="M211 90l27-9 34 26z"/><path fill="#36312b" d="M66 117H23L11 79z"/><path fill="#504b4a" d="M95 62l5-14 2 24z"/><path fill="#c7c7c6" d="M230 54l-11-1-9 9z"/><path fill="#97a2b4" d="M126 86l8-30 8 38z"/><path fill="#9c9992" d="M94 47l1-14 4 10z"/><path fill="#5b5857" d="M96 91l-9 15 5-35z"/><path fill="#675e55" d="M63 71l-5 21-15-22z"/><path fill="#8c8d8b" d="M252 50l-5 52 25 6z"/><path fill="#686765" d="M203 19l53-34h-32z"/><path fill="#d1cdcf" d="M146 66l15-15 30-2z"/><path fill="#939392" d="M199 60l-1 13 14-19z"/><path fill="#ddd8cc" d="M74 64L57 51l29-27z"/></svg>