<svg xmlns="http://www.w3.org/2000/svg" viewBox="0 0 50 25"><path fill="#807e7b" d="M0 0h50v25H0z"/><path fill="#060000" d="M-15 10l75 17-70 10z"/><path fill="#d1d1d0" d="M-11 2l67 8-21 11z"/><path fill="#4b4643" d="M19-15L29 1l-9 24z"/><path fill="#eee5d6" d="M18 4l1 9H-9z"/><path fill="#c2c3c8" d="M59 20L33 6l-2 10z"/><path fill="#50504d" d="M5 15l61 26-3-18z"/><path fill="#919495" d="M52 12L27 7 66-3z"/><path fill="#2e291f" d="M64 27L6 38l-21-21z"/><path fill="#afa796" d="M1 14L17 2l-32 2z"/><path fill="#777375" d="M12 14l1 9 5-5z"/><path fill="#726d69" d="M25 9L-2-12l68 2z"/><path fill="#bdbec3" d="M40 8l-6 13-8-8z"/><path fill="#fff" d="M12 12l6-1V8z"/><path fill="#33302c" d="M19 14l23 19-17 3z"/><path fill="#868889" d="M66 17v24L40 3z"/><path fill="#8a8e8f" d="M22 11l3 6 7-14z"/><path fill="#272212" d="M-15 22l35 19L5 17z"/><path fill="#373a3a" d="M49 21l17-6-26 18z"/><path fill="#474238" d="M11 15l-13-1 26 15z"/><path fill="#97958d" d="M4 2l2 10-21 3z"/><path fill="#d4d6db" d="M43 17l3-4-4-1z"/><path fill="#c7beaf" d="M16 4l-7 7-2-8z"/><path fill="#7c7c7d" d="M39 18l-6 3 19 2z"/><path fill="#676158" d="M1 1l-16-16L41 0z"/><path fill="#9a9b9a" d="M43 10l11-7-23 4z"/><path fill="#908f95" d="M16 19l-3-4 5-1z"/><path fill="#e0e2e3" d="M32 12l1 5 2-3z"/><path fill="#aba9aa" d="M42 10l-7 3 6 6z"/><path fill="#e2e1db" d="M14 7l6 1-2 5z"/><path fill="#6a6563" d="M20 16l-3-31h9z"/><path fill="#4c4b48" d="M39 31l10-8-18-1z"/><path fill="#908b77" d="M24-15L-1 5l52-16z"/><path fill="#dcd8cc" d="M14 5l5 2-10 4z"/><path fill="#40482f" d="M-10-7l8 8 26-5z"/><path fill="#808a97" d="M28 20l3-6v3z"/><path fill="#7f817e" d="M46 7l20-2-11 14z"/><path fill="#817f7a" d="M22 9l15-6H26z"/><path fill="#555154" d="M13 15l6 9-8-4z"/><path fill="#bfb6ab" d="M7 13L3 5h11z"/><path fill="#c0c5c6" d="M28 12l5-2h-6z"/><path fill="#413a38" d="M14 41l6-28 6 26z"/><path fill="#adb0b5" d="M50 20l-6-9v5z"/><path fill="#35312a" d="M17 41L0 14l39 27z"/><path fill="#35302a" d="M-13 41l40-2 1-19z"/><path fill="#acaaaa" d="M35 21l7-11-4-1z"/><path fill="#6e6b69" d="M45-4l-6-5L19 8z"/><path fill="#b1b0b8" d="M16 14l1 1-2 1z"/><path fill="#9ea1a3" d="M27 16l-1-7 3 1z"/><path fill="#6c6e71" d="M46 18h-4l-3 4z"/><path fill="#afb2b3" d="M39 16l3 1 1 2z"/><path fill="#908b83" d="M3 11l-17-9 1 19z"/><path fill="#c0c2c6" d="M19 12l-1 2h-1z"/><path fill="#e2e0dd" d="M13 12l5 1-1-6z"/><path fill="#676c74" d="M23 16l-4-3 1-1z"/><path fill="#c2bbb3" d="M13 11v2l-6-3z"/><path fill="#776b66" d="M20-15L-15-5l34 7z"/><path fill="#bdc7d8" d="M29 18v-1l-2-1z"/><path fill="#241e18" d="M1 23l3 18 38-10z"/><path fill="#888884" d="M43 2h-8l-5 6z"/><path fill="#5f5448" d="M10 17l-6-3 7 1z"/><path fill="#757b7a" d="M31 21v-1l2 1z"/><path fill="#717371" d="M53-6L31 0l8 4z"/><path fill="#999ea5" d="M28 18l-2-1 1-6z"/><path fill="#83868d" d="M21 15l6 2-2-3z"/><path fill="#9f9a8a" d="M16 4H1l6-3z"/><path fill="#797a79" d="M21 7l3 2-1 7z"/><path fill="#6f6e59" d="M-13-14L5 1l45-16z"/><path fill="#c9c8c7" d="M37 10l-4 3-2-3z"/><path fill="#504d49" d="M37 21l-4 3 8-3z"/><path fill="#e0e1e5" d="M43 16v-3l2 3z"/><path fill="#393732" d="M52 25l-22-1 36 17z"/><path fill="#56514b" d="M16 22l2-3 1 3z"/><path fill="#4e4d4b" d="M20 10l-1 9 2-4z"/><path fill="#969797" d="M46 11l20 30-2-26z"/><path fill="#a4a6aa" d="M44 15l4 1-2 2z"/><path fill="#d6d1cf" d="M35 14v2l-2-3z"/><path fill="#8a8e8e" d="M50-1l-6 4v6z"/><path fill="#796f6c" d="M17-15l3 22-5-11z"/><path fill="#b4b2b3" d="M41 17l-3 1-2-6z"/><path fill="#787f70" d="M-12-15l2 10L3 4z"/><path fill="#989fa3" d="M48 5l18 5-2-15z"/><path fill="#8e8f93" d="M24 11l1 1-1 2z"/><path fill="#403a38" d="M-13 41l21-2 16-21z"/><path fill="#949597" d="M43 6l-4 7 5-4z"/><path fill="#b9c0c7" d="M27 16l3-6-1 5z"/><path fill="#a29f9a" d="M3 5l3 6-21-7z"/><path fill="#f5f2ee" d="M16 10l1 1 1-3z"/><path fill="#969494" d="M39 19h-4l2-1z"/><path fill="#b1afaf" d="M37 9l6 1-8 3z"/><path fill="#675e5b" d="M15-15l9 23-2-18z"/><path fill="#45433c" d="M30 20l4 14 11 7z"/><path fill="#7c7c7c" d="M36 21h8l-2-2z"/><path fill="#3f4041" d="M29 22l-2-3-7-1z"/><path fill="#d5d1ca" d="M12 11l2-2v4z"/><path fill="#7c8d95" d="M50 3l-7-18L66 6z"/><path fill="#c9c8c7" d="M36 10h4l-3 1z"/><path fill="#312b20" d="M32 25l-21 9 10-10z"/><path fill="#8f8f8a" d="M50 19l-1-8 17 9z"/><path fill="#7b7774" d="M31 6l-1-3-5 3z"/><path fill="#6e6f72" d="M40 19h6l-3 3z"/></svg>