<svg xmlns="http://www.w3.org/2000/svg" viewBox="0 0 16 8"><path fill="#817e7a" d="M0 0h16v8H0z"/><path d="M16 8l-29-5 4 13z"/><path fill="#c5c3c1" d="M15 6L-2 2l34-2z"/><path fill="#55504b" d="M8 6L6-15l7 10z"/><path fill="#e3dfcd" d="M-15 0v6L7 3z"/><path fill="#bab7b8" d="M15 4L8 3l3 4z"/><path fill="#727078" d="M11-15L32 9-1-4z"/><path fill="#49443c" d="M21 16l11-5-35-7z"/><path fill="#221b0c" d="M3 6l-16-3 26 13z"/><path fill="#847f6e" d="M4 5L-8-13l-7 5z"/><path fill="#2e2a25" d="M7 5l10 13-7 1z"/><path fill="#63605b" d="M6-15L9 4 0-14z"/><path fill="#c7c3b6" d="M6 6L4-7 1-4z"/><path fill="#535048" d="M5 6l9 12 16 6z"/><path fill="#848074" d="M9 2L-8-10l3 7z"/><path fill="#605f66" d="M23 16l-9-9 3 15z"/><path fill="#929095" d="M15 2l17-3L19 9z"/><path fill="#cbcac9" d="M11 6V4h3z"/><path fill="#6f6c6a" d="M10 2l13-7-16-8z"/><path fill="#35312b" d="M3 7l29 17-11-14z"/><path fill="#aba697" d="M2 2l-17 1 1-5z"/><path fill="#524d44" d="M5 7L2 6h3z"/><path fill="#a6a19f" d="M10 2H9v3z"/><path fill="#c1bdbc" d="M10 5l2-2-3 1z"/><path fill="#2d291e" d="M3 6l1 12-19-16z"/><path fill="#bebbb0" d="M2 4l-17 1 3 4z"/><path fill="#edebe2" d="M5 2v2h1z"/><path fill="#8c8883" d="M8 5l1-2H8z"/><path fill="#918e83" d="M5 2l1-9 6-7z"/><path fill="#979386" d="M2 1l-17 5 11 3z"/><path fill="#89888c" d="M16 5l9-20-3 32z"/><path fill="#757264" d="M2 1l-17-8 10-4z"/><path fill="#4c4a4d" d="M9 7l17 8 6-4z"/><path fill="#7c7971" d="M6 1l-8-12 7-1z"/><path fill="#c3c0c7" d="M15 5l17 1-3 5z"/><path fill="#959395" d="M12 2V1h3z"/><path fill="#272525" d="M9 8l10 4-8 12z"/><path fill="#292723" d="M8 8l8 13-7 3z"/><path fill="#6e6a5e" d="M3 5l-18-6 3 6z"/><path fill="#262219" d="M-15 6L9 19-3 1z"/><path fill="#98969c" d="M15 2l13-3 4-14z"/><path fill="#868486" d="M16 3l11-3 5 3z"/><path fill="#8b8779" d="M2 1v-15l16-1z"/><path fill="#7a7571" d="M10 2v-16l5 4z"/><path fill="#aba8ac" d="M15 4l10 5 2-3z"/><path fill="#99969b" d="M13 2v1h1z"/><path fill="#717076" d="M15 7l15 1-3 5z"/><path fill="#b2b1b1" d="M11 4l2 3-1-4z"/><path fill="#635f5b" d="M9 1L2-5l14-4z"/><path fill="#b9b4a5" d="M2 2L-8 3v3z"/><path fill="#9b979e" d="M16 6L29-4 27 6z"/><path fill="#6b6a6e" d="M14 1L6-4l6 1z"/><path fill="#454138" d="M3 6l23 13-6 4z"/><path fill="#817f84" d="M16 1L2-7l3-6z"/><path fill="#3e3d3c" d="M12 8L-9 24l41-5z"/><path fill="#575555" d="M14 8L3 24h-9z"/><path fill="#27221b" d="M3 8l11 6-11 5z"/><path fill="#353029" d="M3 7l-14 14 7 3z"/><path fill="#b5b0a6" d="M3 4l-9 3-9-2z"/><path fill="#3f3b36" d="M8 7L3 24V14z"/><path fill="#302c28" d="M7 7l15 6-9-1z"/><path fill="#555147" d="M3 7h2L4 6z"/><path fill="#312b24" d="M3 7L1 24l-12-3z"/><path fill="#363229" d="M2 6v18l4-5z"/><path fill="#2d2720" d="M2 8l-13 16h34z"/><path fill="#403f46" d="M15 8l14-3-4-10z"/><path fill="#c4c1bf" d="M10 3l1 2 1-2z"/><path fill="#9c998e" d="M-3-3l1 6 4 1z"/><path fill="#706b67" d="M7-15l3 16-4-8z"/><path fill="#5f5b58" d="M8 1l4-16 3 4z"/><path fill="#403b3a" d="M10 8l2 12-11 2z"/><path fill="#7e7b73" d="M8 3H7L6 5z"/><path fill="#969496" d="M16 5l7-2 9 7z"/><path fill="#aca9ac" d="M14 5l-1-3h-2z"/><path fill="#676356" d="M2 5l-12-5-5-15z"/><path fill="#c2c0be" d="M11 4v1l1 1z"/><path fill="#adaa9f" d="M6 1L5 2 4 1z"/><path fill="#6b695c" d="M6 1l1-12 13-4z"/><path fill="#a09c8f" d="M1 2l-12 5-4 9z"/><path fill="#817f81" d="M16 7l9-15 7 3z"/><path fill="#918d83" d="M5 1L0-15-1-4z"/><path fill="#726e6a" d="M7 4l8-10v-9z"/><path fill="#696662" d="M8 2l8-9v-8z"/><path fill="#777472" d="M9 2l23-17-13 2z"/><path fill="#b3b1b3" d="M14 3l-2 2 1-2z"/><path fill="#3c362f" d="M2 7l-17 8v-5z"/><path fill="#736f6b" d="M9 1l9-10 6 1z"/><path fill="#bbb7ab" d="M2 3l-17 1 7 4z"/><path fill="#7b797b" d="M14 1v-9l12-6z"/><path fill="#716f73" d="M13 1l4-7-3-9z"/><path fill="#464548" d="M13 8L9 9l5 8z"/><path fill="#9c988c" d="M2 3l-16-16-1 14z"/><path fill="#737275" d="M10-10l2 11L7-9z"/><path fill="#736f63" d="M2 5L1 4h3z"/><path fill="#635f54" d="M1 5l-12-9-4 9z"/><path fill="#88868d" d="M5-10L32 0v13z"/><path fill="#504e4f" d="M15 8l5 11 12 1z"/><path fill="#918f93" d="M14 2h14l4-5z"/><path fill="#747066" d="M2 5l-17 3 7 2z"/><path fill="#999589" d="M-7 5l-6 11L1 4z"/><path fill="#8c8a8d" d="M15 3l17 11V8z"/></svg>