<svg xmlns="http://www.w3.org/2000/svg" viewBox="0 0 100 50"><path fill="#817f7b" d="M0 0h100v50H0z"/><path fill="#060000" d="M-8 25L7 66l102-15z"/><path fill="#d6d5d7" d="M-15 7l86 34 45-21z"/><path fill="#4d4744" d="M60 0L38-15v67z"/><path fill="#e5dfcf" d="M-15 23l53 4-6-24z"/><path fill="#bdc0c5" d="M54 34L71 8l34 30z"/><path fill="#909092" d="M116 29V1L39 11z"/><path fill="#51504e" d="M115 43L63 58l10-20z"/><path fill="#e0e4e7" d="M38 12l-7 28-2-28z"/><path fill="#656363" d="M11 27h30l-8 19z"/><path fill="#a7a193" d="M7 27L35 4l-50-1z"/><path fill="#20190d" d="M28 47l-43 19V26z"/><path fill="#6d6763" d="M116-7L-8-15l54 29z"/><path fill="#373129" d="M34 66l25-25-21-11z"/><path fill="#7e7f82" d="M69 45l16-8-33 1z"/><path fill="#888992" d="M41 31L57 8l-7 27z"/><path fill="#8c8f90" d="M80 8l30-14 6 65z"/><path fill="#e5e0e0" d="M63 33V18l7 14z"/><path fill="#463f33" d="M39 66L20 28l-24-1z"/><path fill="#e4e1dc" d="M26 9l8 24 3-22z"/><path fill="#e7eefa" d="M84 34l4-5-4-8z"/><path fill="#494642" d="M39 18l4 15-9 19z"/><path fill="#94948e" d="M-2 3l13 22-26 7z"/><path fill="#444131" d="M-15 5l51-9-39-11z"/><path fill="#81858e" d="M37 30l-5 11-7-15z"/><path fill="#778290" d="M62 27v10l-4 1z"/><path fill="#323531" d="M116 45l-19-4-6 25z"/><path fill="#c3bdaf" d="M29 9L16 25 9 6z"/><path fill="#f1ede7" d="M27 26l10-6-11-3z"/><path fill="#6d685f" d="M25-15l23 28-11-1z"/><path fill="#c0bdbc" d="M54 26l35-5-27-5z"/><path fill="#b1bfd6" d="M61 37l-2-14-7 12z"/><path fill="#989898" d="M76 28l31-25-25 8z"/><path fill="#3b3730" d="M7 55l45-18 55 25z"/><path fill="#e8f6ff" d="M91 31l-2 1 2-7z"/><path fill="#7f7d78" d="M116 10l-29 5 24 18z"/><path fill="#787674" d="M89 47L68 37l25 2z"/><path fill="#999b99" d="M92 20l24 20-23-1z"/><path fill="#5b5857" d="M28 47l-8-19 15 11z"/><path fill="#b4b3aa" d="M8 7L7 26l17 1z"/><path fill="#a2a3a7" d="M63 39l3 5 7-10z"/><path fill="#5e5c5e" d="M76 44H59l-11-8z"/><path fill="#858281" d="M84 5L49 20l4-14z"/><path fill="#9f9c9c" d="M78 13L48 23l9-10z"/><path fill="#9ea8b3" d="M28 30l8-3-4 7z"/><path fill="#ecf0f4" d="M38 17h-8l6 9z"/><path fill="#aca8a7" d="M81 14l3 25-13-14z"/><path fill="#d7cfc2" d="M26 26l-9-2 17-14z"/><path fill="#938f82" d="M28 2h-43l12 9z"/><path fill="#d9dbdd" d="M63 36l8-9-8 2z"/><path fill="#80858c" d="M60 30l2 5-1-10z"/><path fill="#8e93a2" d="M57 36l-7-16-3 11z"/><path fill="#c7c6c5" d="M55 26l5-7 20 2z"/><path fill="#6c6967" d="M72-11L36 14 90-5z"/><path fill="#6a6e72" d="M63 38l-3-1v-2z"/><path fill="#251f17" d="M26 51L13 65l-28-28z"/><path fill="#413b35" d="M37 32l16 5 7 14z"/><path fill="#332e26" d="M82 61L50 41 9 66z"/><path fill="#564e42" d="M13 27H0l27 10z"/><path fill="#737177" d="M37 32l-12 1 7 5z"/><path fill="#717173" d="M97 45l-14-2 4-7z"/><path fill="#aba395" d="M26 5L14 4l4 6z"/><path fill="#858f97" d="M91 35l-3-11v18z"/><path fill="#9d9c93" d="M11 26L6 9l-21 18z"/><path fill="#a5a2a1" d="M83 22l-14 1 13 7z"/><path fill="#7d7778" d="M41 31l1-16 8 19z"/><path fill="#373129" d="M13 47l8-6-27-15z"/><path fill="#9a9899" d="M85 20l-4-10-14 1z"/><path fill="#d1d7e0" d="M87 21l-3 8 3 5z"/><path fill="#a2aaad" d="M97 39l-3-6H79z"/><path fill="#55524e" d="M82 43l-19 7 4-7z"/><path fill="#3d3934" d="M67 46l44 5-74 15z"/><path fill="#77736f" d="M93 39l-21-1 13 5z"/><path fill="#7f786d" d="M24-2v-13l16 28z"/><path fill="#a1a2a5" d="M62 38l5-2 9 5z"/><path fill="#b6c1d2" d="M55 31l4 3v4z"/><path fill="#736c60" d="M-15-6L34 4l29-19z"/><path fill="#a6aebb" d="M56 36l2-17-5 3z"/><path fill="#4b4846" d="M28 47L14 33l25 9z"/><path fill="#6f6965" d="M80 7l6-22h28z"/><path fill="#d9dae4" d="M84 32l-1-8 5 9z"/><path fill="#555d63" d="M94 48l-6-4 9 1z"/><path fill="#979ea3" d="M37 28l-9 5 1-7z"/><path fill="#8c8c84" d="M3 24l-6-38-12 56z"/><path fill="#b6b7bd" d="M82 38l-2-1 3-1z"/><path fill="#91908f" d="M96 40l1-17 19 15z"/><path fill="#a8aaad" d="M65 40l8-1-11-3z"/><path fill="#6a6560" d="M24 27l-2 5 11 11z"/><path fill="#5a595e" d="M84 37h4l3 2z"/><path fill="#75736f" d="M85 46l-16-9 23 3z"/><path fill="#55554c" d="M9-10L-15 9 4 2z"/><path fill="#cbc6bc" d="M16 22l21 6-23-15z"/><path fill="#7d7e81" d="M71 36l5 3-11-3z"/><path fill="#918f91" d="M47 19l1 15 5-18z"/><path fill="#a9b5c2" d="M30 33l1-3 1 1z"/><path fill="#565962" d="M50 36l10 3h-6z"/><path fill="#b9bbb8" d="M72 37l-4-6-2 2z"/><path fill="#e0e9f2" d="M89 28l1-4 1 5z"/><path fill="#d3d0cc" d="M76 19H66l-3 5z"/><path fill="#9a9fa6" d="M116 9l-15-3-13 6z"/><path fill="#978f84" d="M26 2l11 6-23-5z"/></svg>