<svg xmlns="http://www.w3.org/2000/svg" viewBox="0 0 400 200"><path fill="#7f7d7a" d="M0 0h400v200H0z"/><path fill="#060000" d="M424 198l-437 26 12-118z"/><path fill="#cccdce" d="M387 31L-24 71l400 95z"/><path fill="#f9f2e2" d="M143 27l3 88-170-81z"/><path fill="#4d4844" d="M140 224L154 1l84-3z"/><path fill="#c3c8d1" d="M195 135l84 38 12-125z"/><path fill="#585a58" d="M215 170l145-25 64 48z"/><path fill="#bab4a4" d="M62-24l42 126-128 7z"/><path fill="#818181" d="M424 95l-3-86-319 20z"/><path fill="#878c95" d="M148 102l-71 24 55 42z"/><path fill="#211a0d" d="M110 190l-133-86 5 120z"/><path fill="#362f27" d="M241 156l-92 68-3-101z"/><path fill="#dbe9f7" d="M368 107l-41 36 5-55z"/><path fill="#564e42" d="M135 190L10 107l88 2z"/><path fill="#e8e5df" d="M148 101l-19-70-67 73z"/><path fill="#a6a092" d="M-2 81l136-63-147-6z"/><path fill="#6a645f" d="M59-24l101 76 249-62z"/><path fill="#9da5a5" d="M335 143l61 17 27-109z"/><path fill="#343832" d="M404 221l-36-62 55 7z"/><path fill="#46433d" d="M157 63l-34 132 36-30z"/><path fill="#76797d" d="M243 91l-11 69 20 8z"/><path fill="#453f2f" d="M79-24L-16 6l92-4z"/><path fill="#888b92" d="M235 9l-73 120 36 9z"/><path fill="#c6c3c2" d="M207 90l99-31-4 89z"/><path fill="#8b8f8f" d="M420 148L309 41l89-65z"/><path fill="#e2e6ed" d="M248 109h29l-29 45z"/><path fill="#f2f8fc" d="M148 91l-35-1 33-39z"/><path fill="#757573" d="M243 168l106-27 50 38z"/><path fill="#a2abba" d="M113 102l8 46 25-43z"/><path fill="#bdb7ac" d="M104 106L88 10l-70 94z"/><path fill="#2e2922" d="M251 224l-6-50-161 14z"/><path fill="#b4c3d9" d="M235 87l-23 48 25 16z"/><path fill="#788186" d="M354 87l-2 37-7-31z"/><path fill="#d7dee3" d="M366 101l-14-8 7 42z"/><path fill="#898679" d="M-4 12L70 2l-83 58z"/><path fill="#66635f" d="M277 184l-34-36-48 3z"/><path fill="#817d7b" d="M324 10L143 51l30 40z"/><path fill="#aeadab" d="M265 99l70 58-12-105z"/><path fill="#d8dee5" d="M346 82l-20 14 20 38z"/><path fill="#443e33" d="M110 215L74 110l-98-1z"/><path fill="#989b9d" d="M252 140l-1 25 53-6z"/><path fill="#716c64" d="M291 148l68 6-88 26z"/><path fill="#dcd4c9" d="M96 98l50-49-50-28z"/><path fill="#69696e" d="M99 129l50 2-37 40z"/><path fill="#979790" d="M12 20l31 86-59 3z"/><path fill="#8f95a1" d="M179 132l28-86 11 100z"/><path fill="#423d36" d="M146 118l16 39 97 20z"/><path fill="#989c9b" d="M412 159l-53-89 12 89z"/><path fill="#7f7e7a" d="M421 124l3-59-81-25z"/><path fill="#9d9488" d="M146 43L109 9H32z"/><path fill="#808288" d="M248 109l-8 23-3-34z"/><path fill="#949698" d="M351 9l73 25-167 43z"/><path fill="#1f1a11" d="M-24 168l137 36-90 16z"/><path fill="#696561" d="M177 63l-73-76 178-3z"/><path fill="#d4d1d1" d="M227 85l18 13 51-21z"/><path fill="#595f61" d="M377 193l-65-17 81-2z"/><path fill="#52504f" d="M162 129l-41 56-33-17z"/><path fill="#3d392c" d="M-24 6l12 12L15 6z"/><path fill="#5f574d" d="M31 106l59 1 20 58z"/><path fill="#cacaca" d="M307 91l25-14-34 2z"/><path fill="#f7f8fd" d="M271 109l5 23 1-23z"/><path fill="#9e9a98" d="M337 82l-68 16 51 8z"/><path fill="#383226" d="M373 162l50 25 1-22z"/><path fill="#acb1bd" d="M248 71l-33 74-6-58z"/><path fill="#c9c3ba" d="M126 110L48 79l3-48z"/><path fill="#e5e9ee" d="M356 112l4-21 5 36z"/><path fill="#b3bdcb" d="M256 157l32 3-12-9z"/><path fill="#5c5b54" d="M371 159l-11-11-28 1z"/><path fill="#e2e1dc" d="M129 35l14 19-34 47z"/><path fill="#918e8f" d="M334 35L190 81l78-50z"/><path fill="#686561" d="M338-24l-17 50 56-35z"/><path fill="#838378" d="M243 149l38-1-14-7z"/><path fill="#9ea6b4" d="M118 115l25 8-33 11z"/><path fill="#b2a99a" d="M104 20L93 67 65 27z"/><path fill="#969d9e" d="M410 163l-58-39-12 17z"/><path fill="#b2b5b3" d="M335 148l-8-41-73 33z"/><path fill="#78756f" d="M77 107l46 45-18-45z"/><path fill="#7c7979" d="M213 21l-36 50L331 9z"/><path fill="#807872" d="M159 71l-39-59 62 53z"/><path fill="#7e7469" d="M138 18L41 4l72-14z"/><path fill="#b2afa6" d="M62 106L12 57l40-26z"/><path fill="#a8a1a1" d="M329 77l-30-26-65 12z"/><path fill="#36322b" d="M149 118l10 25-4-41z"/><path fill="#b4b5b2" d="M310 112l28-39 21 11z"/><path fill="#898989" d="M209 57l-33 22 14 59z"/><path fill="#ced1d6" d="M249 156l-1-66 14 31z"/><path fill="#676865" d="M141 112l-12 4 19-1z"/><path fill="#302a24" d="M198 224l121-26-148-8z"/><path fill="#73716d" d="M185 137L165 35l-8 88z"/><path fill="#9a9995" d="M359 76l9 47 39-21z"/><path fill="#898784" d="M316 162l-47-18 27 23z"/><path fill="#898987" d="M416 113l-72-87-54-2z"/><path fill="#bbb4ab" d="M107 23L81 38l51-1z"/><path fill="#38322c" d="M107 187l-61-2-42-72z"/><path fill="#b8c7d7" d="M220 143l14 6v-42z"/><path fill="#b0aead" d="M270 123l-3-25 9-14z"/><path fill="#9ca2a3" d="M384 51l40-38-58 30z"/><path fill="#585350" d="M298 165l-27 9 67 19z"/><path fill="#4d4945" d="M282 185l-83-41 44 43z"/><path fill="#bdc5c8" d="M127 112l-6-11 25 1z"/><path fill="#d3dbe7" d="M337 87l-7 44h18z"/></svg>