<svg xmlns="http://www.w3.org/2000/svg" viewBox="0 0 400 200"><path fill="#d2d2d3" d="M0 0h400v200H0z"/><g transform="translate(1 1) scale(1.5625)"><ellipse rx="1" ry="1" transform="matrix(-16.13702 -38.01643 30.3488 -12.8823 62 22)"/><ellipse fill="#2c0000" cx="59" cy="18" rx="32" ry="32"/><ellipse fill="#f3f7fa" cx="200" cy="52" rx="111" ry="255"/><ellipse fill="#f5fafc" rx="1" ry="1" transform="matrix(-67.31101 -103.64987 31.46117 -20.43113 12 74)"/><path fill="#9da5a3" d="M104 38l6 24-60 16-6-24z"/><path fill="#d6d9dd" d="M23 98l39-47-73-2 163 46z"/><path fill="#fdffff" d="M148 125l-14-46 50-14 14 46z"/><ellipse fill="#48261d" rx="1" ry="1" transform="rotate(-108 37 -10) scale(28.10032 32.6023)"/><path fill="#888f89" d="M107 33L96 21 65 64l21-1z"/><ellipse fill="#f3fcff" rx="1" ry="1" transform="matrix(-8.21452 -6.49546 19.63339 -24.82949 16 9)"/><ellipse fill="#d6d8d9" rx="1" ry="1" transform="matrix(-43.02415 -7.15808 13.59217 -81.69671 231 127)"/><path fill="#f3f6f9" d="M68 93l28 5-8 41z"/><path fill="#97ccc7" d="M41 58l2-13-21-18 2 4z"/><path d="M69 21h12v12H69z"/><path fill="#bed0c8" d="M49 62l39-23-13 13-48-1z"/></g></svg>