<svg xmlns="http://www.w3.org/2000/svg" viewBox="0 0 400 200"><path fill="#d2d2d3" d="M0 0h400v200H0z"/><path d="M44 79l3-94 98 4-3 93z"/><path fill="#300000" d="M39 51l44-74 71 43-45 73z"/><path fill="#f7fcfe" d="M93 232l166-340 178 87-166 340z"/><path fill="#f8fdff" d="M112 171l-82 44-93-175L18-4z"/><path fill="#7b8783" d="M84 91l67-40 17 28-67 40z"/><path fill="#f5fcfd" d="M224 32l-81 5-3-68 81-4z"/><path fill="#4d221a" d="M37 43l23-67 77 27-23 66z"/><path fill="#fbfeff" d="M307 174l-78 24-21-70 77-24z"/><path fill="#868d85" d="M150 40l15 14-48 51-15-13z"/><path fill="#dddfe0" d="M439 256l-142-5 6-180 142 5z"/><path fill="#e3e5e8" d="M-50 149l88-98 148 133-88 98z"/><path fill="#360004" d="M108 31l29 24-15 18-29-24z"/><path fill="#dfffff" d="M110 82l30-26 1 2-30 25z"/><path fill="#ccced3" d="M154 50l35 4-10 98-36-4z"/><path fill="#f2f7fa" d="M-27 60L37-77l41 19L14 79z"/><path fill="#88918f" d="M139 79l-1 23-59-1V78z"/><path fill="#2f250d" d="M116 77l-48 2-1-20 48-2z"/><path fill="#7cba6d" d="M113 7l-23 6-1-6 22-6z"/><path fill="#909294" d="M301 149v-2l65-3v1z"/><path fill="#a62b49" d="M93 39l23 22-5 5-22-22z"/><path fill="#edeff0" d="M233 55l-29 24-69-82 28-24z"/><path fill="#cffef2" d="M123 75L91 88v-2l32-13z"/><path fill="#a4a7a8" d="M281 79v2l-132 4v-1z"/><path fill="#400a0f" d="M109-1l30-1 1 55h-30z"/><path fill="#a5a7a7" d="M372 81l-86 4v-2l86-4z"/><path fill="#b2cbca" d="M165 16l-4 26-22-4 5-26z"/><path fill="#68665c" d="M108 99l-6-9 33-19 5 10z"/><path fill="#a3a3a8" d="M188 144v1l-199 4v-2z"/><path fill="#499492" d="M54 63l-5 1-10-34 4-2z"/><path fill="#a8aaaa" d="M408 23l-89-5v-2l89 5z"/><path fill="#7b6958" d="M129 26v6l-50 3v-6z"/><path fill="#afb0b2" d="M262 22l-119-4v-1l119 4z"/><path fill="#babcc3" d="M82 99l77-6 1 19-76 5z"/><path fill="#1b0000" d="M86 29l11 3-6 19-11-3z"/><path fill="#c5d3d0" d="M55 63l30 33-13 12-30-34z"/><path fill="#dc5a82" d="M144-7l-14 19-3-3 13-19z"/><path fill="#595b54" d="M59 34l-18-7 8-22 18 7z"/><path fill="#90314c" d="M70 28l-7-2 15-49 8 2z"/><path fill="#d7e5df" d="M123 75l45-55 1 1-44 55z"/><path fill="#340000" d="M65 17l14-8 8 13-14 8z"/><path fill="#c5a2ca" d="M80 27l5 1-1 12h-5z"/><path d="M101 40l5-7 19 13-4 7z"/><path fill="#e8eaed" d="M63 106l-29 11L-2 17 27 7z"/><path fill="#a6b7b5" d="M-19 85v-2l117-4v2z"/><path fill="#e082ab" d="M126 40l6-3 3 5-6 4z"/><path fill="#eaeced" d="M59 209l4-61 60 4-3 60z"/><path fill="#9ea0a1" d="M177 144l41 3v1l-41-2z"/><path fill="#3d0c08" d="M49 54l30-20 5 7-30 21z"/><path fill="#aab5b8" d="M-1 19v-1l44 2v2z"/><path fill="#69754d" d="M49-28l75 54-3 4-74-54z"/><path fill="#270200" d="M111 17l1 8-34 3-1-7z"/><path fill="#dee1e2" d="M440 41l-59 182-47-16 58-181z"/><path fill="#b8baba" d="M336 22l-77-4v-1l77 4z"/><path fill="#abadae" d="M406 144v5l-72-1v-5z"/><path fill="#edeff0" d="M328 77l-156-3 1-53 156 3z"/><path fill="#b1b3b3" d="M444 81l-89 6v-3l88-7z"/><path fill="#180200" d="M101 49l6 2-9 27-6-2z"/><path fill="#598541" d="M77 53L61 28l2-1 15 25z"/><path fill="#4c6a34" d="M105 64l1 5-37 6-1-5z"/><path fill="#200" d="M103 61v3l-45-5v-3z"/><path fill="#9f495e" d="M125 56v4l-21-1 1-5z"/><path fill="#978a80" d="M87 20l-1-1L96 7l1 1z"/><path fill="#43060d" d="M143 11v1l-78 4v-1z"/><path fill="#d9f8f1" d="M103 83l-33 3v-2l33-3z"/><path fill="#85897a" d="M149 38l1 1-12 46h-2z"/><path fill="#b4888d" d="M59 39l-3 9-1-1 3-9z"/><path fill="#040000" d="M120 72l-9-45h2l8 44z"/><path fill="#4a9185" d="M71 76l-2 2-20-18 2-2z"/><path fill="#091a15" d="M129 31l3-16 12 3-3 15z"/><path fill="#bce899" d="M91 26l1-2 12 8-1 2z"/><path fill="#461014" d="M95 15l3 2-29 57-3-2z"/><path fill="#bec0c0" d="M348 85v2l-129-5v-2z"/><path fill="#f2f3f4" d="M322 18l-171-3v-25l172 3z"/><path fill="#171200" d="M96-8l17 29-1 1L94-7z"/><path fill="#3f8286" d="M42 20l23-41 4 3-23 40z"/><path fill="#2b1f02" d="M90 60l-1 1-37-41 1-1z"/><path fill="#78000c" d="M125 17l12-13 5 6-12 12z"/><path fill="#cdcfd3" d="M109 142l-44-21 12-24 43 21z"/><path fill="#d8dadb" d="M257 235l-14-31 90-40 14 31z"/><path fill="#af8fa3" d="M78-2l-3 15h-2l4-15z"/><path fill="#577c2e" d="M51 26l17 8-2 4-17-7z"/><path fill="#4e0001" d="M86-9l3 18-10 2-4-18z"/><path fill="#1c4934" d="M76-9L58 16l-8-6 19-25z"/><path fill="#e8efee" d="M135-3l8-10 20 18-8 9z"/><path fill="#b7b585" d="M79 61l-5 3-1-1 5-4z"/><path fill="#ffd0e5" d="M97 45l-3-3 1-1 3 3z"/><path fill="#140000" d="M124 21l-4 1-8-35 4-1z"/><path fill="#3d8277" d="M143 20l1 11h-5V20z"/><path fill="#132d17" d="M96 75l-23 5-1-7 23-4z"/><path fill="#e4e6e7" d="M215 213H-66v-50h281z"/><path fill="#010008" d="M112 75l-2-10 8-1 1 10z"/><path fill="#cfd3d6" d="M155 21l28 61-12 5-27-61z"/><path fill="#b8e8e8" d="M38 19h2l2 36h-2z"/><path fill="#969276" d="M110 10l-6-2 3-7 6 2z"/><path fill="#0e0000" d="M85 24l14 9-1 1-14-9z"/><path fill="#e0beca" d="M107 60l-1-5 4-1 1 5z"/><path fill="#b13f5f" d="M45 20l28 7-1 1-27-6z"/><path fill="#f7fcfc" d="M13-5l14-12L48 6 34 19z"/><path fill="#110" d="M53 40l5-8 3 2-5 8z"/><path fill="#4b0409" d="M122 45l8-89 3 1-8 88z"/><path fill="#a79773" d="M121 30v2l-25-1v-1z"/><path fill="#397c71" d="M66 78l1-2 24 4v1z"/><path fill="#f2f5fc" d="M262 169v29h-44v-29z"/><path fill="#7f6553" d="M100 46L72 66l-1-1 28-20z"/><path fill="#f5809f" d="M68 50l2 4-2 1-2-5z"/><path fill="#f0f3f9" d="M271 190l-26-52 42-20 26 52z"/><path fill="#400009" d="M132 50l-2 2-20-26 3-2z"/><path fill="#eeeef0" d="M-3 85l53-1 1 58-53 1z"/><path fill="#6f7065" d="M100 98l-2-4 47-31 3 4z"/><path fill="#740117" d="M109 75h-1l-6-36h1z"/><path fill="#151d17" d="M71 66l-3 4-16-16 4-3z"/><path fill="#b0b5ba" d="M119 114l-2-4 53-32 2 4z"/><path fill="#741721" d="M89 34l1-1 26 22-1 1z"/><path fill="#e0b9d8" d="M90 19l-5-4 1-1 5 4z"/><path fill="#e2afc0" d="M135 7l-5 2V7l4-2z"/><path fill="#771c20" d="M44 26l20-4v3l-20 4z"/><path fill="#5d5b37" d="M126 15l1-1 5 23h-1z"/><path fill="#858883" d="M92 85l17 7-2 6-18-7z"/><path fill="#acaeb4" d="M265 198v2h-47v-1z"/><path fill="#b5b5bb" d="M313 73l1-6 6 2-1 6z"/><path fill="#7d7b52" d="M61 35l1-1 16 17-1 1z"/><path fill="#e7e8ea" d="M174 86l49 4-5 54-48-5z"/><path fill="#3f090f" d="M86 16l11 44-3 1-11-44z"/><path fill="#cac9cf" d="M-66 147h175v1H-66z"/><path fill="#ecf1f1" d="M65 77l-1 3-46-12v-3z"/><path fill="#201909" d="M143 18l-43 6-1-3 43-6z"/><path fill="#9b9ba0" d="M137 96l-6-5 21-29 7 5z"/><path fill="#608a46" d="M92 66l-22 9-1-2 22-9z"/><path fill="#959357" d="M110 15v1l-9 2v-1z"/><path fill="#d3d8db" d="M162 87l15 14-43 48-15-14z"/><path fill="#240200" d="M93 78l-1-1 23-41 1 1z"/><path fill="#71ba77" d="M90 6V5l13 6-1 2z"/><path fill="#eef0f0" d="M203 89l202-3v8l-202 3z"/><path fill="#6d0818" d="M120 63l-9 2-2-8 9-2z"/><path fill="#526b6a" d="M143 10h2l-5 38-2-1z"/><path fill="#300d03" d="M105 30L86 7l1-1 19 23z"/><path fill="#f5f6f7" d="M148 31v-8h184v8z"/><path fill="#650518" d="M135 19L108-9l3-2 26 28z"/><path fill="#86baac" d="M145 49h-2l-2-21 2-1z"/><path fill="#d3a4b5" d="M120 59l1-4h2l-2 5z"/><path fill="#cdced1" d="M298 56l-8-5 4-8 8 4z"/><path fill="#f5f7fb" d="M216 130l65-26 14 36-65 26z"/><path fill="#bbbcbf" d="M305 148l36-2v2l-36 1z"/><path fill="#092113" d="M137 51l-9 13-1-1 9-13z"/><path fill="#700018" d="M136 42l-7 10-1-1 7-10z"/><path fill="#cca8c0" d="M81 36l-3-7 2-1 3 7z"/><path fill="#556442" d="M108 39l-21-3 1-1 20 2z"/><path fill="#caf2ec" d="M136 60l-1-1 6-8 1 1z"/><path fill="#ffc4e3" d="M96 42l2 2-2 3-2-2z"/><path fill="#b57788" d="M121 25l-4-3 1-1 4 2z"/><path fill="#cccece" d="M281 18l130 5v1l-130-4z"/><path fill="#d2f1e8" d="M102 85v-1l10-5v1z"/><path fill="#6a132d" d="M102-1L72 4l-1-1 31-6z"/><path fill="#96c3c0" d="M51-7L40 37h-2L49-7z"/><path fill="#1e181c" d="M115 64l7-7 8 9-6 7z"/><path fill="#588c89" d="M41 44l4-5 7 7-5 4z"/><path fill="#6b0015" d="M140 9L126-4l1-1 14 13z"/><path fill="#be748b" d="M47 29l-1-1 5-6 1 1z"/><path fill="#f3f6f9" d="M2 22l37 3-2 24-37-4z"/><path fill="#6d3336" d="M44 35L69 6l1 1-25 29z"/><path fill="#721826" d="M141 50l-10-2 2-9 9 2z"/><path fill="#030000" d="M110 51l-1-14 14-2 1 14z"/><path fill="#bdbfc1" d="M220 82l-53 5v-2l52-5z"/><path fill="#ab88a2" d="M62 14l1-2 5 4-1 1z"/><path fill="#d4d7db" d="M263 172h5l-1 55h-5z"/><path fill="#402126" d="M53 58h-2l-2-27h1z"/><path fill="#200000" d="M60 57l-2-1 9-15 1 1z"/><path fill="#e0e2e3" d="M354 85l45-1 2 58-46 1z"/><path fill="#bdbdba" d="M64 82l1-2 22 12v1z"/><path fill="#f8c1c9" d="M64 25v-1l5-1v2z"/><path d="M97 34l-9-2 1-2 9 2z"/><path fill="#586d52" d="M128 57l-1-2 6-4 1 1z"/><path fill="#c9cbcc" d="M166 143l51 8v1l-51-7z"/><path fill="#2c1f00" d="M53 20l1-1 10 12-1 1z"/><path fill="#bcbec1" d="M166 80l-8 2-9-45 7-1z"/><path fill="#130c00" d="M95-2l10 7-1 2-10-8z"/><path fill="#040c00" d="M88 62l-12 4v-2l12-3z"/><path fill="#640724" d="M71 25l3-1 9 18-2 2z"/><path fill="#3c040e" d="M67 49l-1 1-22-19 1-1z"/><path fill="#a6b05f" d="M110 33l-5 1-1-3 5-1z"/><path fill="#98bdb0" d="M116 77l8-7 2 2-8 7z"/><path fill="#060309" d="M137 25l3 9-6 2-3-9z"/><path fill="#566022" d="M108 29l-3-12 2-1 2 13z"/><path fill="#dddfe2" d="M159 27l7-3 20 54-7 3z"/><path fill="#8fa160" d="M87 5l8-2 1 3-8 2z"/><path fill="#adc197" d="M107 4l-5-6 2-1 4 7z"/><path fill="#e0e0e3" d="M58 84l42 52-12 10-43-52z"/><path fill="#ebf6f3" d="M154-2l1 1-17 5V2z"/><path fill="#d3d4d6" d="M166 20v-2l64 5v1z"/><path fill="#250d0a" d="M97 63l-18-3v-6l19 3z"/><path fill="#891f3a" d="M105 56h2l-5 15h-1z"/><path fill="#1b0300" d="M101 37L86 47l-1-1 15-11z"/><path fill="#848283" d="M113 89h19v8h-19z"/><path fill="#331618" d="M107 8l8-2 5 16-8 2z"/><path fill="#ac8790" d="M57 41l2 6-1 1-3-6z"/><path fill="#bd8493" d="M70 29l-5-4 1-2 5 3z"/><path fill="#a17d7f" d="M119 27l-1 2-4-5 1-1z"/><path fill="#0d1100" d="M85 77l-1-2 14-9 1 1z"/><path fill="#c1c2c6" d="M76 94l43 19-3 7-43-18z"/><path fill="#e2e3e6" d="M219 146l-89-5v-7l89 4z"/><path fill="#e7e9ea" d="M407 163l-81-3v-6l81 3z"/><path fill="#6b9b95" d="M40 46l1-1 18 23-2 1z"/><path fill="#aeb0b1" d="M366 145v-1l67 3v2z"/><path fill="#739c9b" d="M57-9l2 1-14 25-2-1z"/><path fill="#cacbce" d="M78 85l-80-1v-2l80 1z"/><path fill="#770119" d="M61 52l1-1 9 8v1z"/><path fill="#c7c8cc" d="M148 191l-7 17-3-1 7-17z"/><path fill="#e2e4e5" d="M360 70l11-40 64 18-10 39z"/><path fill="#acabb1" d="M139 109l-49-6 1-8 49 7z"/><path fill="#630526" d="M82 22l15-4 1 2-15 4z"/><path fill="#3e0006" d="M67 1l10 24-2 1L65 1z"/><path fill="#0c2a2d" d="M105 80l-24-4v-1l25 3z"/><path fill="#7d9d6e" d="M124 6l-1 3-1-1V6z"/><path fill="#cb99b6" d="M132 40l-2 4-1-1 2-4z"/><path fill="#406128" d="M56 30l12-3 3 10-12 4z"/><path fill="#496727" d="M79 64l-2-1 5-10 2 1z"/><path fill="#405b4e" d="M67 11l-5 4-9-12 6-3z"/><path fill="#4c767b" d="M44 47h-1l-1-26 1-1z"/><path fill="#130e00" d="M116 20l15-39h2l-16 40z"/><path fill="#e8e8ec" d="M-17 146l44 7-8 59-45-7z"/><path fill="#2d524c" d="M70 72L53 59l1-1 17 13z"/><path fill="#e9ebeb" d="M49 77l-73-8 2-16 73 8z"/><path fill="#c7cbce" d="M146 86l20-3 2 20-20 3z"/><path fill="#dfe3e4" d="M160 5l2 11-18 2-1-11z"/><path fill="#4d4d15" d="M107-3l8 3-2 4-7-2z"/><path fill="#cfd1d4" d="M32 16v6L1 23v-6z"/><path fill="#f5f7fb" d="M12 18l-23-1 1-30 23 1z"/><path fill="#908e53" d="M57 29l-8 3-1-3 7-3z"/><path fill="#471922" d="M107 77l11-22 2 1-12 22z"/><path fill="#636a5e" d="M117 84l-1-2 22-17 1 1z"/><path fill="#b4b4ba" d="M108 138l-5 9-3-2 5-9z"/><path fill="#2a0003" d="M84 12l-2 14-8-2 2-14z"/><path fill="#740721" d="M131 38l3-2 5 9-2 2z"/><path fill="#0e554f" d="M47 42l3-5h1l-2 6z"/><path fill="#b68698" d="M91 13v1l-5 3-1-1z"/><path fill="#c9cbd0" d="M330 165l1 1-60 27-1-1z"/><path fill="#858277" d="M147 59l-7 8-4-2 7-9z"/><path fill="#c1c3c5" d="M280 81v-1l192 6v2z"/><path fill="#d2d3d6" d="M396 148v1l-94 2v-2z"/><path fill="#936581" d="M122 25l-3 9-2-1 3-9z"/><path fill="#421319" d="M127 25l-14 6-1-1 14-6z"/><path fill="#290b04" d="M65 63l24-17 1 2-24 17z"/><path fill="#dfe1e1" d="M315 150h41l-1 61h-41z"/><path fill="#b3aa83" d="M99 17l3-2 1 1-3 2z"/><path fill="#54988c" d="M100 80v2l-17-1v-1z"/><path fill="#ebedee" d="M42 76L0 79l-3-44 42-3z"/><path fill="#217271" d="M101 79v1l-13-1v-1z"/><path fill="#7c0318" d="M102 54l-4-15 2-1 3 16z"/><path fill="#9dc6c3" d="M45 60l-5-18h1l5 18z"/><path fill="#d3d5d8" d="M148 142v2H-34v-2z"/><path fill="#c4e1b8" d="M49-2l1 2-7 3-1-1z"/><path fill="#64392f" d="M89 45l10 10-1 1-11-10z"/><path fill="#79504c" d="M69 55v-1l10-4 1 1z"/><path fill="#eeeef3" d="M0 162v-7h98v7z"/><path fill="#1c0c16" d="M55 12v-1h11v2z"/><path fill="#0f2720" d="M137 52l1 1-8 9-1-1z"/><path fill="#310000" d="M67 45l-5 11-6-2 5-12z"/><path fill="#080600" d="M79 50l-1-2 11-3v2z"/><path fill="#e4c8db" d="M74 4h2l-2 6h-1z"/><path fill="#e4e5e6" d="M228 113l38-17 5 11-38 18z"/><path fill="#413121" d="M75 70l30 4-1 2-29-5z"/><path fill="#dfe1e3" d="M218 184v17l-71 4-1-17z"/><path fill="#691023" d="M74 54l1 1-10 5-1-1z"/><path fill="#130d0c" d="M106 78l-29-2v-2l29 2z"/><path fill="#000c00" d="M94 34l-4 1-1-8 4-1z"/><path fill="#83b5ae" d="M68 76l-1 1-14-10 1-2z"/><path fill="#2e1209" d="M134 35h-5l1-16 5 1z"/><path fill="#1d0000" d="M110 31l3 1-6 14-3-1z"/><path fill="#578e42" d="M80 70l7-2 1 1-8 2z"/><path fill="#a28d96" d="M104 70l-1-3 1-1 1 3z"/><path fill="#c3e3da" d="M115 80l-1-1 19-14 1 1z"/><path fill="#d2d3d4" d="M225 19v2l-48-4v-2z"/><path fill="#c99fab" d="M134 3v1l-4 1V3z"/><path fill="#765c42" d="M74 35L57 46l-1-1 17-11z"/><path fill="#2d040a" d="M91 40l-21 2v-2l21-2z"/><path fill="#b4b1c7" d="M79 29l2-1 4 7-2 1z"/><path fill="#aeadb2" d="M171 17v1l-21 4-1-1z"/><path fill="#943c4d" d="M81 4l-1-5 6-1 1 4z"/><path fill="#846b5d" d="M125 19l1-1 4 5-2 1z"/><path fill="#dedfe3" d="M217 155l-126-5v-3l126 4z"/><path fill="#abb0ae" d="M161 68l-2 2-18-24 2-2z"/><path fill="#3f5b66" d="M48 19l-1-7 10-2 1 8z"/><path fill="#eef1f6" d="M304 152l-67 42-14-22 67-43z"/><path fill="#dbdddd" d="M289 113l-1-6 88-6v6z"/><path fill="#89646f" d="M58 14l7-2 1 3-8 2z"/><path fill="#642221" d="M116 66l-14 2-1-4 14-3z"/><path fill="#a67083" d="M60 23l-4-5 1-1 4 5z"/><path d="M121 69l-1 1-5-6 1-1z"/><path fill="#96847e" d="M108 11l-2-7 3-1 2 7z"/><path fill="#4e1128" d="M59 10h1l-5 16h-1z"/><path fill="#080000" d="M99 24l6-7 1 1-6 7z"/><path fill="#e9ebeb" d="M254 80l-72-1V49l72 2z"/><path fill="#bcbec1" d="M117 144l99 3v2l-99-4z"/><path fill="#1f1307" d="M114 26l-1 3-16-4 1-3z"/><path fill="#d4d6d9" d="M288-7h6l-2 16-6-1z"/><path fill="#cbcdce" d="M320 16l112 2v2l-112-2z"/><path fill="#6b4e4a" d="M73 1l1 1-7 8-2-1z"/><path fill="#f0f1f5" d="M26 158h228v1H26z"/><path fill="#859653" d="M100 26l8 7-1 2-8-8z"/><path fill="#760c1b" d="M128 37l1 1-2 10h-1z"/><path fill="#320004" d="M125 59h-1l2-26h2z"/><path fill="#f3f4f7" d="M-35 83l72 8-1 6-71-8z"/><path fill="#193411" d="M67 7l-2 1-5-10 1-1z"/><path fill="#e7e9ea" d="M310 24l47 17-12 36-48-16z"/><path fill="#1c5145" d="M118 73l2-4h1l-2 5z"/><path fill="#ccd1d4" d="M124 129l-26 3-2-19 27-3z"/><path fill="#405a53" d="M48 7h11v6l-10 1z"/><path fill="#1e0900" d="M78 50l-9-13 1-1 10 13z"/><path fill="#9a999c" d="M127 102l-43-7v-2l43 8z"/><path fill="#b1e0db" d="M145 16l3 19h-1l-3-18z"/><path fill="#7f0520" d="M124 14l16-6v1l-16 7z"/><path fill="#e9ebec" d="M298-12h62v29h-62z"/><path fill="#6f6f66" d="M119 86l-4-4 8-7 4 4z"/><path fill="#230507" d="M123 68h-1l-6-12 1-1z"/><path fill="#717360" d="M103 34v2H89v-2z"/><path fill="#edeff0" d="M389 23v7l-86 2v-8z"/><path fill="#5a0b1a" d="M44 30l2-2 5 6-2 2z"/><path fill="#5c0a13" d="M89 7l-1 1-10-7 1-2z"/><path fill="#6d694a" d="M124 9l-1 1-2-2 1-1z"/><path fill="#b08fa0" d="M121 29l1 1-4 2-1-1z"/><path fill="#5d6d56" d="M148 38l1 1-1 3-2-1z"/><path fill="#7c847c" d="M104 82l9 8-6 7-9-8z"/><path fill="#cacad0" d="M175 135l-4 2-4-8 4-2z"/><path fill="#3c1603" d="M64 16l1 1-5 3-1-1z"/><path fill="#abaeb2" d="M140 86l40-6v2l-40 5z"/><path fill="#4e653b" d="M112 21l1 1-8 3v-2z"/><path fill="#669189" d="M68 75l-8-3 2-5 7 3z"/><path fill="#686959" d="M126 81l-1-1 13-15 1 1z"/><path fill="#ae9292" d="M60 12l3 1v1h-3z"/><path fill="#c5c9cc" d="M157 43h6l3 37-6 1z"/><path fill="#62181e" d="M128 42l11 6-3 6-11-7z"/><path fill="#99284e" d="M119-1l1 2-3 1-1-1z"/><path fill="#613033" d="M49 42l6-1 1 13h-7z"/><path fill="#7e021a" d="M107 66l8-13 2 1-9 13z"/><path fill="#dbdee3" d="M145 25l3-5 25 16-4 5z"/><path fill="#37642a" d="M94 66v-1l4-2 1 2z"/><path fill="#68814b" d="M80 10l7-1 1 2h-8z"/><path fill="#5c040a" d="M90 46l16 8v2l-17-9z"/><path fill="#99886b" d="M75 52l-3-4 2-1 2 4z"/><path fill="#6e0b23" d="M78 13v1l-7 3-1-2z"/><path fill="#eff1f2" d="M160-16l94 2v31l-94-1z"/><path fill="#f5f6fb" d="M217 184l2-61 16 1-3 61z"/><path fill="#610001" d="M64 20l1-1 7 3-1 1z"/><path fill="#eef0f1" d="M188 87h67v9h-68z"/><path fill="#74744b" d="M128 32l1-1 4 4-1 1z"/><path fill="#99b08e" d="M47-2l1 5h-3l-1-4z"/><path fill="#4a0812" d="M49 47l8 10-1 1-8-10z"/><path fill="#580216" d="M72 31h-2V6h2z"/><path fill="#5a122b" d="M123 24l1 9-1 1-2-10z"/><path fill="#450b11" d="M66 55l6-1 2 14-7 1z"/><path fill="#170000" d="M138 22v2l-9-4 1-1z"/><path fill="#786549" d="M74 77h-3v-8h3z"/><path fill="#e6e8e9" d="M312 80l-76-9 3-25 76 10z"/><path fill="#cdcbc7" d="M82 85l1 1-10 15-1-1z"/><path fill="#d6d8d9" d="M227 20v-2l54 4v2z"/><path fill="#642e32" d="M99 20l-9-3v-1l9 3z"/><path fill="#63031e" d="M82 23l5-10h1l-4 10z"/><path fill="#8d8f8d" d="M145 79l1 2-17 11-2-3z"/><path fill="#7a1432" d="M63 53l-1-3 5-1 1 3z"/><path fill="#e5e8e9" d="M56 70l-2 9-18-4 2-9z"/><path fill="#290006" d="M105 73l-14 4v-1l13-5z"/><path fill="#5e1c37" d="M85 31l2 8h-1l-3-7z"/><path fill="#211401" d="M87 54l1 1-11 15-1-1z"/><path fill="#d2d4d5" d="M366 144h-62v-2h63z"/><path d="M116 72h-1l1-8h2z"/><path fill="#e7e8eb" d="M-24 85l96 29-9 30-96-29z"/><path fill="#d5d6d8" d="M66 98l6-5 23 30-6 4z"/><path d="M96 56l6 4-2 4-7-4z"/><path fill="#748c57" d="M96 6h-1l-2-4 1-1z"/><path fill="#dddfe3" d="M124 142l-2-11 53-9 1 11z"/><path fill="#b5b7bb" d="M140 84l14 4-2 7-14-3z"/><path fill="#bddfdd" d="M47 61l18 19-1 1-18-19z"/><path fill="#0d150c" d="M56 38l-6 2-1-1 6-2z"/><path fill="#7e7e5e" d="M103 8l4-3 1 1-4 3z"/><path fill="#648781" d="M141 43h-1l2-13 1 1z"/><path fill="#eef0f1" d="M219 36h44v17h-43z"/><path fill="#0e201c" d="M138 22l-1-1 4-7 2 1z"/><path fill="#77051e" d="M108 44l-13 9-1-2 13-8z"/><path fill="#7e9764" d="M93 28l6-2v1l-6 2z"/><path fill="#1a0000" d="M92 12l9 1v1H91z"/><path fill="#e2f2ee" d="M100 85l-17-1v-2l17 2z"/><path fill="#c9eae4" d="M38 27l-1-1 20-45h1z"/><path fill="#64001a" d="M50 19l11 6v1l-11-6z"/><path fill="#376744" d="M97 11h8v2l-8-1z"/><path fill="#abafb2" d="M27 18l-9 1v-1l9-1z"/><path fill="#492029" d="M128 67l-9-1 1-7 9 2z"/><path fill="#170a00" d="M94 65H80v-3l14-1z"/><path fill="#979ba0" d="M157 79l1 2-11 4v-2z"/><path fill="#5a8544" d="M90 69l-1 1-5-3v-1z"/><path fill="#2f0e06" d="M108 47l-6-14 1-1 6 15z"/><path fill="#1e0500" d="M86 9l-3 1-2-5 3-1z"/><path fill="#481b10" d="M75 40v2l-23 1v-2z"/><path fill="#50704d" d="M50-8L66 9l-2 1L50-7z"/><path fill="#371403" d="M79 4l14 7-2 2-14-6z"/><path fill="#d7d7dd" d="M313 58l2 17h-5l-2-17z"/><path fill="#3d0200" d="M130 19l-1 1-5-6 2-1z"/><path fill="#e5e7ea" d="M202 142v2l-90-3v-2z"/><path fill="#200806" d="M130 59l-6-2 1-2 6 2z"/><path fill="#eef2f6" d="M266 136l28-11 17 47-28 11z"/><path fill="#181b07" d="M104 6l-4 1-3-11 5-1z"/><path fill="#020407" d="M129 27l1-1 8 7-1 2z"/><path fill="#afb1b3" d="M330 144l1 2-28 2-1-2z"/><path fill="#2f1700" d="M73 60l4-4 2 1-5 4z"/><path fill="#d6bfcc" d="M88 18l-1-1 1-2h2z"/><path fill="#2b5909" d="M59 33l-2-1 5-7 1 1z"/><path fill="#7f3643" d="M80 27l-1 10h-1l1-10z"/><path fill="#8f846e" d="M89 51l1 1-8 5-1-1z"/><path fill="#3d4124" d="M83 48v9h-2v-9z"/><path fill="#3d1c27" d="M111 74l-9 5-2-4 9-5z"/><path fill="#e3e5e6" d="M200 111h17v33h-17z"/><path fill="#dacfca" d="M109 57l-2-3h2l1 3z"/><path fill="#370004" d="M102 20v2l-18 6v-1z"/><path fill="#2e0300" d="M125 45l6 7-1 1-6-7z"/><path fill="#cccdd2" d="M311 154l-3 2-5-6 3-2z"/><path fill="#9cabaf" d="M142 18l14-1v1l-14 2z"/><path fill="#1a1c02" d="M113 23l2-7h2l-3 8z"/><path fill="#ebeeed" d="M31 77h34v1H31z"/><path fill="#aab37c" d="M105 14l-1 3-1-1v-3z"/><path fill="#215f57" d="M137 30h2v7h-1z"/><path fill="#e1e3e5" d="M-3 189l145 2v9l-145-2z"/><path fill="#dee1e4" d="M264 172l11 28-3 1-11-27z"/><path fill="#780f27" d="M133 3l3-1 5 13-3 1z"/><path fill="#63895e" d="M67 75l1-1 4 2-1 2z"/><path fill="#8c5a4f" d="M52 27l2 7h-1l-2-7z"/><path fill="#894a75" d="M71 10l1-3h2l-1 3z"/><path fill="#000e00" d="M110 21l-1 4h-2l1-5z"/><path fill="#000300" d="M109 38l14 6-2 4-14-6z"/><path fill="#c4c9cc" d="M123 109l39-2 1 1-39 2z"/><path fill="#060900" d="M95 15v-2l8-1v2z"/><path fill="#d1fbe3" d="M146 37l2 1-5 8-1-1z"/><path fill="#e2e2e7" d="M199 104l-26 25-8-10 26-24z"/><path fill="#8a4966" d="M66 15l2 2-1 1-2-2z"/><path fill="#523133" d="M104 67l5-3 1 2-5 3z"/><path fill="#706d42" d="M107-2l2-1 4 7h-1z"/><path fill="#67aba2" d="M80 78l1 1-7 1v-2z"/><path fill="#c0c2c3" d="M400 79v2l-61 4v-2z"/><path fill="#5a0a1b" d="M88 2v-3h10v3z"/><path fill="#c6a8ad" d="M56 46h-1v-3h1z"/><path fill="#070000" d="M100 54l4 2-2 4-4-2z"/><path fill="#30463f" d="M58-13h4l-2 28h-5z"/><path fill="#514937" d="M102 36v1l-9 1v-2z"/><path fill="#5f3f31" d="M124 17l-1-11h2v11z"/><path fill="#683a40" d="M74 31l-1-1 4-3 1 1z"/><path fill="#9b7e4c" d="M107 30l-1-5h1l1 4z"/><path fill="#3d3f0c" d="M62 40l2-4h1l-2 5z"/><path fill="#d2d3d7" d="M100 146l83 2v1l-83-1z"/><path fill="#6f7950" d="M67 34l-3-3 2-1 2 3z"/><path fill="#8a6f74" d="M56 49l-3-5 1-1 4 5z"/><path fill="#e4e6e7" d="M419 52l1 27-81 1-1-26z"/><path fill="#bfb074" d="M107 29h1l-1 3-1-1z"/><path fill="#310005" d="M101 36l19 19-1 1-19-18z"/><path fill="#94c1b8" d="M88 82l10-1v2H88z"/><path fill="#3c2c16" d="M74 66l1 1-6 6h-2z"/><path fill="#ac96ad" d="M82 30h1l-1 8-1-1z"/><path fill="#bababe" d="M118 106l-1 6-28-4 2-6z"/><path fill="#673b3f" d="M143 8l-5 8-1-1 4-8z"/><path fill="#660a23" d="M82-4h2l1 9h-1z"/><path fill="#7f3f4e" d="M131 33h2v11h-2z"/><path fill="#773651" d="M73-10l1 22h-2l-1-22z"/><path fill="#f0eff2" d="M209 23h-60v-1h60z"/><path fill="#83051c" d="M103 59l12 4-1 1-12-3z"/><path fill="#b8b3b7" d="M49 79l20 4-1 2-20-4z"/><path fill="#600c17" d="M84 25l1-1 4 9h-1z"/><path fill="#527274" d="M46 37l-5 1-1-11 5-1z"/><path fill="#f5f8fb" d="M-4 33l-1-10 42-1 1 9z"/><path fill="#d7d9d9" d="M216 145l-40-2v-1l40 1z"/><path fill="#3e3724" d="M52 29l-5 1v-1l4-1z"/><path fill="#c5929f" d="M134 8l-5-4 1-1 5 4z"/><path fill="#45060d" d="M70 31l5-2 1 1-6 2z"/><path fill="#1a0000" d="M124 2h1v4h-2z"/><path fill="#dfe1e2" d="M385 123l-1 19-67-1v-19z"/><path fill="#d7e6e7" d="M76 84h-6l-1-3 7-1z"/><path fill="#7e504c" d="M139 36l2 4-3 1-2-4z"/><path fill="#a2aca6" d="M148 34l1 3h-2v-3z"/><path fill="#120400" d="M83 61l-3-3 1-1 3 3z"/><path fill="#4b1216" d="M99 20l-3 2-6-9 3-2z"/><path fill="#b9d5d5" d="M133 62l2 2-7 7-2-2z"/><path fill="#710005" d="M109 52l-6 8-1-1 5-8z"/><path fill="#eff2f7" d="M260 162v34h-41v-34z"/><path fill="#41050d" d="M113 37v-1h22v2z"/><path fill="#885465" d="M122 53l3 4-2 1-2-4z"/><path fill="#d7d9da" d="M400 187l1 23-37 2-1-23z"/><path fill="#b3688a" d="M110 54l2 1-2 2-1-1z"/><path fill="#d6d9dc" d="M138 141l-9-7 19-26 9 6z"/><path fill="#c9c4c7" d="M-33 84l89-5v1l-89 5z"/><path fill="#ad9082" d="M73 66l-2-1 5-4 1 1z"/><path fill="#8b8d8a" d="M141 72l1-17h6l-1 17z"/><path fill="#581020" d="M74 38l13 3v1l-14-3z"/><path fill="#762532" d="M132-1l-2 4h-1l2-5z"/><path fill="#bdbfc1" d="M370 18v-2l53 5v2z"/><path fill="#852c3d" d="M76 35h-3l-1-3h4z"/><path fill="#e9e9ed" d="M102 138l-1 6-82-5v-7z"/><path fill="#dfe1e3" d="M59 93l26 35-11 8-26-34z"/><path fill="#48061d" d="M90 59l-1 2-5-3v-1z"/><path fill="#7f7f74" d="M143 58l-8 27-1-1 8-27z"/><path fill="#bdc1c2" d="M319 179l-4-5 2-1 4 5z"/><path fill="#639698" d="M41 43V24h1v19z"/><path fill="#574f31" d="M91 52l-1-1 2-4 1 1z"/><path fill="#e2e3e7" d="M121 150h20l-1 14h-20z"/><path fill="#a87980" d="M64 29l-1-3 6-3 1 3z"/><path fill="#69414b" d="M85 28l-1 2-5-4 1-1z"/><path fill="#bd6c8d" d="M54 21l-2 5-4-2 1-4z"/><path fill="#679c94" d="M98 80v-2h6v2z"/><path fill="#6c8f89" d="M50 57h-2l-6-12 2-1z"/><path fill="#a9aaaf" d="M109 146l-1 1-6-4 1-1z"/><path fill="#21534d" d="M62 67l-3-3 2-4 4 3z"/><path fill="#2b1818" d="M66 3l6-5 1 1-6 5z"/><path fill="#850b2a" d="M108 54v-2l7-1 1 2z"/><path fill="#e7e9ea" d="M163 148l57 4v2l-57-4z"/><path fill="#a8aaad" d="M153 50h1l-2 30h-2z"/><path fill="#2a1f07" d="M97 27v-1l11-1v1z"/><path fill="#a7ba81" d="M100 28l4 3-3 2-3-3z"/><path fill="#f0f2f5" d="M-1-9L44 4l-4 13L-5 4z"/><path fill="#e6e8e9" d="M47 66l-1 6-72-14 1-6z"/><path fill="#dcdedf" d="M347 105l85-22 4 13-85 23z"/><path fill="#2e6528" d="M68 30l-6 5-1-1 7-5z"/><path fill="#140900" d="M91 36l2 1-5 7-1-1z"/><path fill="#30110f" d="M131 32l-2-12 5-1 1 13z"/><path fill="#e8ebed" d="M143 10l-4-10 13-5 4 10z"/><path fill="#607054" d="M83 72v2l-5-1v-1z"/><path fill="#bbbdbe" d="M310 149l-1-2 77-4v2z"/><path fill="#686a3b" d="M60 37l2-4h2l-3 4z"/><path fill="#b4d7c1" d="M140 51l1-2 2 2-1 1z"/><path fill="#cccdcf" d="M145 15l28 1v2l-28-2z"/><path fill="#c9cbcc" d="M247 22v-1l111-4v1z"/><path fill="#24100a" d="M90 56l-1-2 4-2 1 2z"/><path fill="#cdcfcf" d="M195 80h93v1h-93z"/><path fill="#3d140f" d="M113 23h2l-1 12-2-1z"/><path fill="#671607" d="M58 27l-1 1-7-3 1-1z"/><path fill="#1d0f05" d="M119 8l9 20h-1L117 8z"/><path fill="#050800" d="M110 16l-1 4h-2l2-4z"/><path fill="#291707" d="M100 70l-1-1 2-6 2 1z"/><path fill="#4e0716" d="M117-13l-3 28h-1l3-28z"/><path fill="#a1a49e" d="M91 90l-8 7-1-1 8-7z"/><path fill="#111e1b" d="M54 57l1-1 11 7v2z"/><path fill="#757a76" d="M91 94v-1l36-1v1z"/><path fill="#b9bec0" d="M58 83v-1l17 2v2z"/><path fill="#8f716d" d="M120 26v1l-4-1v-2z"/><path fill="#650d1b" d="M63 54l11 2-1 4-11-1z"/><path fill="#390401" d="M84 20l7 10-1 1-8-10z"/><path fill="#f3f5f6" d="M255 29l-46 1v-8h46z"/><path fill="#493513" d="M109 31l1 1-5 8-1-1z"/><path fill="#648847" d="M103 10L89 6l1-2 13 5z"/><path fill="#dceded" d="M32 46l6-3 10 19-6 3z"/><path fill="#9db385" d="M94 5l-5-1V3l5 1z"/><path fill="#e5f5f1" d="M91 82v2l-11 1v-2z"/><path fill="#b2b7bb" d="M147 78l16-12 1 2-16 11z"/><path fill="#874648" d="M114 62v-3l1-1 1 4z"/><path fill="#c7c9ca" d="M312 79l50 1v5l-50-1z"/><path fill="#0c0000" d="M116 19l7-3 1 1-8 3z"/><path fill="#e2e4e4" d="M414 69l-43 8-8-44 43-9z"/><path fill="#4f1623" d="M129 59l-4 5-2-2 3-5z"/><path fill="#750112" d="M127 15h-1l1-28h2z"/><path fill="#973548" d="M69 22l-1 5-1-1 1-4z"/><path fill="#8d586f" d="M89 2l-5-1 1-1 4 1z"/><path fill="#c3c2c7" d="M167 22h-20v-2h20z"/><path fill="#397677" d="M44 42v-2l4-2 1 2z"/><path fill="#e6e8e9" d="M193 73l-5-8 30-17 5 8z"/><path fill="#cdd1d3" d="M168 63l10 4-7 16-10-5z"/><path fill="#274f44" d="M102 76v2l-6 1v-2z"/><path fill="#356923" d="M91 64v1l-9 1v-2z"/><path fill="#bababc" d="M147 42l3-1 14 28-3 1z"/><path fill="#c2dada" d="M151 34h-2l-4-13 1-1z"/><path fill="#eaebee" d="M61 86l2 6-34 11-2-6z"/><path fill="#e6e7e8" d="M-5 186v-27h90v27z"/><path fill="#400000" d="M127-3l2 2-4 6-3-2z"/><path fill="#679394" d="M142 20h2v9h-2z"/><path fill="#ad8586" d="M118 23l1-2 2 2-1 1z"/><path fill="#97a29e" d="M98 11h-4V9l4 1z"/><path fill="#73815a" d="M130 30l-1 1-1-3 1-1z"/><path fill="#393f2c" d="M140 47l-6 9-1-1 6-9z"/><path fill="#edf1f5" d="M298 150l10 24-36 15-10-24z"/><path fill="#424018" d="M108 3l-2-1 4-3 1 1z"/><path fill="#280300" d="M91 39v-2l13 1v1z"/><path fill="#53212c" d="M70 18l-5-5 1-1 5 4z"/><path fill="#482e31" d="M142 13l-4 2-1-1 5-2z"/><path fill="#1f3634" d="M45 34l1-1 5 6-1 1z"/><path fill="#955c66" d="M57 21l-2-1 2-2 2 1z"/><path fill="#858581" d="M102 89l-1 1-10-2v-2z"/><path fill="#d7d9dc" d="M169 89l10 20-12 6-11-19z"/><path fill="#e6e8e9" d="M385 95H213v-1h172z"/><path fill="#e7e9ea" d="M93 179l78-21 3 12-78 21z"/><path fill="#688" d="M112 75l3 1-1 1-3-1z"/><path fill="#29481d" d="M65 27l1 2-4 2-1-2z"/><path fill="#e7e9e9" d="M320 80l-1-39 28-1 1 39z"/><path fill="#cbcdce" d="M147 190v6h-5v-6z"/><path fill="#c4c5c9" d="M319 74l-1 2-7-5 1-1z"/><path fill="#d9d9de" d="M262 119l2-3 1 1-2 3z"/><path fill="#9fcccb" d="M39 27v-5h2v5z"/><path fill="#dceff3" d="M137 60l-2-1 5-5 1 1z"/><path fill="#c9ced1" d="M170 86l-40 30-1-1 40-30z"/><path fill="#0d1000" d="M92 68l1-2 4 2-1 2z"/><path fill="#dedde3" d="M70 155l-85-1v-2l85 2z"/><path fill="#81aaa3" d="M51 62l-1 1-3-4 2-1z"/><path fill="#84616b" d="M50 27l1 3-2 1-1-3z"/><path fill="#551e49" d="M113 10l-4 2-1-1 4-3z"/><path fill="#dddfe0" d="M323 183l2-20 104 9-2 20z"/><path fill="#dfe1e1" d="M323 16v2l-89-2v-1z"/><path fill="#a0a1a4" d="M87 95l31 1v4H87z"/><path fill="#967f5b" d="M98 17l2-2 1 1-3 2z"/><path fill="#854c3e" d="M60 42l-3-1 1-3 3 1z"/><path fill="#bdbfc0" d="M281 83v-2h137v2z"/><path fill="#5d4c12" d="M64 18l1 1-2 2-1-1z"/><path fill="#e5e7e7" d="M293 112l45-5 2 14-45 5z"/><path fill="#d8dadd" d="M306 154v-2l62-4v1z"/><path fill="#122719" d="M72 78v-2l17-2v1z"/><path fill="#563b2e" d="M121 25l-1 1-11-12 1-1z"/><path fill="#700518" d="M129 50l-5-10 2-1 4 10z"/><path fill="#ebedef" d="M196 78l122-3v2l-122 2z"/><path fill="#5a1f35" d="M114 32l1-2 4 2-1 2z"/><path fill="#2e0200" d="M134 20l-2 2-5-3 2-2z"/><path fill="#678d89" d="M105 78l1 1-7 1v-2z"/><path fill="#bbd4dc" d="M38 44h-1l1-11h2z"/><path fill="#b1d4ca" d="M144 42V9h1v33z"/><path fill="#7e0115" d="M103 43l-1 1-6-4 1-2z"/><path fill="#000e00" d="M133 53l1 1-3 4-1-1z"/><path fill="#a2b49d" d="M45 3l-1-4 3-1 1 5z"/><path fill="#a3b778" d="M106 4l5-1v1l-5 1z"/><path fill="#989b9b" d="M151 53l-4 4-5-5 3-4z"/><path fill="#828683" d="M121 93l23-21 2 2-23 21z"/><path fill="#48323b" d="M101-1l-5 5-1-2 4-4z"/><path fill="#aeb0b1" d="M203 146v-2l14-1v2z"/><path fill="#86163e" d="M84 15h2v3h-2z"/><path fill="#060000" d="M117 71l-3-3 5-6 3 3z"/><path fill="#8a7765" d="M113 26l1-2 3 2-1 1z"/><path fill="#eeeff0" d="M39 74v6l-45-2v-7z"/><path fill="#b3b4b9" d="M134 100l-28 9-1-1 28-9z"/><path fill="#dddfe1" d="M166 35l8-2 11 40-7 2z"/><path fill="#c9cacf" d="M305 176l1 1-37 17-1-1z"/><path fill="#e3e6e7" d="M272 207h-8v-19h7z"/><path fill="#543e45" d="M61 15L44 26l-1-2 17-11z"/><path fill="#051112" d="M136 20h1l1 15h-2z"/><path fill="#210e00" d="M58 36l1 2-6 2-1-1z"/><path fill="#c8c9cd" d="M174 131l-1 6h-5l1-7z"/><path fill="#315050" d="M82 78v-2l9 1v1z"/><path fill="#450d14" d="M88 41l-14 7-1-3 14-7z"/><path fill="#240000" d="M129 37l-5 2-1-3 4-2z"/><path fill="#787758" d="M68 37l5 8-2 1-5-8z"/><path fill="#3c1a27" d="M105 76l1-10h3v10z"/><path fill="#d1d1d7" d="M294 5l-4 2-1-1 4-2z"/><path fill="#f7f8fc" d="M238 147l-17 1-1-25 17-1z"/><path fill="#c8cdd0" d="M105 123l-1-5 37-8 1 5z"/><path fill="#c4c7c0" d="M83 94l-6 2-2-4 6-2z"/><path fill="#d3d5d7" d="M171 67l-16-30 4-3 16 31z"/><path fill="#e9eaed" d="M328 160l-19 2v-5l18-1z"/><path fill="#1e0000" d="M84 53l-2-1 8-10 1 1z"/><path fill="#d9dadd" d="M287 44h8l1 11h-8z"/><path fill="#a3b67f" d="M101 32l-8-5 1-1 8 5z"/><path fill="#dcdedf" d="M365 133v7l-34 1-1-8z"/><path fill="#daf0e9" d="M106 82l-1 1-3-1v-1z"/><path fill="#460003" d="M78 6l5-1v3l-5 1z"/><path fill="#554f4c" d="M101 69l1-3 1 1v3z"/><path fill="#2a2a27" d="M60 8l4 3-1 1-4-2z"/><path fill="#3a100d" d="M75 70l-8-2 1-5 7 2z"/><path fill="#9fb8be" d="M45 10l1 1-2 3-1-1z"/><path fill="#79847b" d="M128 68l2-1 3 4-2 1z"/><path fill="#e4e6e7" d="M203 114l39-1v9l-39 1z"/><path fill="#231315" d="M107 76l6-5 1 2-7 4z"/><path fill="#3d5e1e" d="M78 67v-4l1-1 1 5z"/><path fill="#580003" d="M134 50l-5-4 1-1 5 4z"/><path fill="#665a46" d="M75 33l-7 8-1-1 7-8z"/><path fill="#0f0000" d="M78 22l3-6 2 1-3 6z"/><path fill="#3c0000" d="M119 5l-1 1-7-6 1-2z"/><path fill="#60001a" d="M77 32l2 6h-1l-2-6z"/><path fill="#d8dade" d="M84 134v-7h55v7z"/><path fill="#857e65" d="M88 54l-1-1 1-2 2 1z"/><path fill="#a4a4a5" d="M142 85l-3 11-4-1 2-11z"/><path fill="#999b96" d="M95 88l-2 9-9-2 2-9z"/><path fill="#510914" d="M98 2L87 1l1-2 11 2z"/><path fill="#68727c" d="M45 27l-3-1 2-7h3z"/><path fill="#93113b" d="M49 21l3-1v1l-2 2z"/><path fill="#e3e5e6" d="M144 199l-16 21-27-21 16-21z"/><path fill="#44380a" d="M71 48l2 2-2 1-1-2z"/><path fill="#eef0f1" d="M236 15l-50 3-1-16 50-3z"/><path fill="#395525" d="M96 68l-4-5 1-1 4 5z"/><path fill="#480e04" d="M68 53l1-8h2l-1 8z"/><path fill="#422e17" d="M106 29l-3-1 2-6 3 1z"/><path fill="#588383" d="M51 57l17 14-1 1-17-13z"/><path fill="#550a18" d="M81-7l-2 22h-2l2-22z"/><path fill="#2b5012" d="M56 27l2-2 7 6-3 2z"/><path fill="#457273" d="M50 18l-5-2v-1l6 2z"/><path fill="#e1e3e5" d="M292 102l19 38-7 3-19-37z"/><path fill="#5f6d3c" d="M98 29l4 5-1 1-5-5z"/><path fill="#dfe2e4" d="M331 164v1l-32 20-1-2z"/><path fill="#0f1f00" d="M86 12v1l-5-1 1-2z"/><path fill="#660018" d="M77 31l2 4-4 2-2-5z"/><path fill="#e3e5e6" d="M161 16l64-1v2l-64 1z"/><path fill="#670517" d="M51 36l-2-4 2-1 1 4z"/><path fill="#69242c" d="M71 1l9-3 1 3-9 2z"/><path fill="#2e0004" d="M136 23l-6-5 2-2 6 5z"/><path fill="#121100" d="M119 7l-1-1 2-2 1 1z"/><path fill="#6d000f" d="M57 20l1 1-4 5-1-1z"/><path fill="#d4d7db" d="M263 171h1v44h-1z"/><path fill="#c15d94" d="M95 47v-2h3v2z"/><path fill="#444b4e" d="M53 60l-3-5h2l2 4z"/><path fill="#85afa7" d="M96 81v-2l6 2v1z"/><path fill="#c4c6c7" d="M329 85l-66-4v-2l66 4z"/><path fill="#def2ee" d="M80 84l-1 1-8-5 1-1z"/><path fill="#578684" d="M48 48h-2l-5-13h2z"/><path fill="#cfc2d7" d="M80 32l-1-3h2l1 3z"/><path fill="#dbddde" d="M308 188h48v20h-48z"/><path fill="#8eba8f" d="M70 79l-1 1-3-1 1-1z"/><path fill="#597477" d="M129 64l1 1-4 4-1-1z"/><path fill="#541116" d="M116 60l-1-6h1l2 6z"/><path fill="#dcdddf" d="M97 137l-4 3-35-44 3-3z"/><path fill="#5e8d8b" d="M115 75v-2l3 1v1z"/><path fill="#696b66" d="M111 82l8 5-1 1-8-5z"/><path fill="#3b4b60" d="M60 10l-1 1-2-4 1-1z"/><path fill="#e5e7e8" d="M321 156l56 7v1l-56-6z"/><path fill="#5c3441" d="M75 7h2l-1 6h-1z"/><path fill="#3e0c12" d="M118 35l-2 1-4-10 1-1z"/><path fill="#391c0b" d="M67 35l8-5 1 2-8 5z"/><path fill="#e6e6eb" d="M13-15l2-1 14 33-1 1z"/><path fill="#45651e" d="M60 3l-3-1 1-3 3 1z"/><path fill="#342723" d="M78 44l1-1 4 2-1 1z"/><path fill="#301427" d="M55 40l-2 4-3-1 1-4z"/><path fill="#c5c5ca" d="M106 145l59 1v1l-59-1z"/><path fill="#e9eaec" d="M218 136l-40-7 2-14 40 7z"/><path fill="#88958d" d="M112 80h3v1h-3z"/><path fill="#461b1c" d="M58 58l-6-3 1-2 6 3z"/><path fill="#c8f3c9" d="M143 41h2l1 4h-1z"/><path fill="#6a4a46" d="M54 48l-4-2v-1l5 1z"/><path fill="#2f3900" d="M102 6V5h4v1z"/><path fill="#173d35" d="M85 75v1l-9 1v-2z"/><path fill="#56542b" d="M108 29l-8-2v-1l8 1z"/><path fill="#dfe2e2" d="M120 195v1l-89-5v-1z"/><path fill="#731a18" d="M61 24v-3h4l1 3z"/><path fill="#c7a4c0" d="M129 44h-1l1-5h1z"/><path fill="#5e262c" d="M123 23h1l-1 3-2-1z"/><path fill="#e9ebeb" d="M371 18L254-7l2-9L373 9z"/><path fill="#b0b7b1" d="M98 84v2H76v-1z"/><path fill="#75776b" d="M144 66v2l-11 2v-2z"/><path fill="#446668" d="M46 14l2-3 7 5-1 3z"/><path fill="#40080e" d="M75 17l-3 5-5-3 3-5z"/><path fill="#030700" d="M96 32v2l-6 1v-2z"/><path fill="#9e9fa3" d="M107 101v-2l31-5v2z"/><path fill="#878887" d="M100 93v2l-11 1v-2z"/><path fill="#b5b6ba" d="M105 110L84 96v-1l21 13z"/><path fill="#dfdfdf" d="M66 78v2h-96v-2z"/><path fill="#edf0f6" d="M246 160l18 2-2 26-18-1z"/><path fill="#5b6947" d="M75 71l3-4 1 1-2 4z"/><path fill="#e1dfe0" d="M63 98l-5-4 8-9 5 4z"/><path fill="#bfc1c2" d="M362 141l2-1 3 5-1 1z"/><path fill="#d2dedf" d="M40 23l-10-5 1-2 9 6z"/><path fill="#761827" d="M100 42l6 1-1 8-6-2z"/><path fill="#c0c1c5" d="M134 108v2l-32 2v-2z"/><path fill="#eceeef" d="M238 51l-1-11 55-2v11z"/><path fill="#3d0a19" d="M85 61l4-7 3 2-5 7z"/><path fill="#061300" d="M68 41l1-3 5 1-1 3z"/><path fill="#ecedee" d="M174 161l44-6v2l-43 5z"/></svg>