<svg xmlns="http://www.w3.org/2000/svg" viewBox="0 0 50 25"><path fill="#d3d3d4" d="M0 0h50v25H0z"/><path d="M5 5l13-20-1 30z"/><path fill="#f4f7fb" d="M58-15l-73 47 81-6z"/><path fill="#360000" d="M20 10L10-15 8 8z"/><path fill="#fff" d="M-15 14L3-14l5 32z"/><path fill="#a7b1b0" d="M10 13l11-7v8z"/><path fill="#f4f5f7" d="M36 3L10-15l30 53z"/><path fill="#c6c7c9" d="M7 8l8 11 6-1z"/><path fill="#eff2f9" d="M-15 16L7-4 2 26z"/><path fill="#461a15" d="M7 6l9 2 5-23z"/><path fill="#d6d8db" d="M66-9v28L18 41z"/><path fill="#422827" d="M7 2l10 8-7-1z"/><path fill="#e3eaea" d="M12 11l-20 3v27z"/><path fill="#87745f" d="M13 2L4-11l22-4z"/><path fill="#dfe0e1" d="M47 11l-36 5L34 6z"/><path fill="#e5e6e7" d="M18 6l21 8V8z"/><path fill="#6d7573" d="M17 10l-4 2 5-1z"/><path fill="#f7f9f9" d="M43-8v9L17 2z"/><path fill="#f8f9fd" d="M28 17l8-3-8 27z"/><path fill="#331011" d="M17 4v-5l-5 11z"/><path fill="#cfcdd0" d="M20 2l-1 17 5-9z"/><path fill="#4b453f" d="M7 8V5l2-3z"/><path fill="#e5efee" d="M-4 7l8-6 6 13z"/><path fill="#d8d9de" d="M28 19l-8-5-15 4z"/><path fill="#672e2e" d="M9 3v3l7-2z"/><path fill="#b1b5ae" d="M10 10v2l4-2z"/><path fill="#958397" d="M18 1l-5-5 4-2z"/><path fill="#f1f2f2" d="M47 3L25 9l-4-6z"/><path fill="#c2c3c5" d="M45 19l18-6-6 6z"/><path fill="#dee1e0" d="M50 3H31l33-15z"/><path fill="#371920" d="M18 3l-2 6h-3z"/><path fill="#909595" d="M18 12l-1-3-8 4z"/><path fill="#360207" d="M11 7h-1l2-2z"/><path fill="#cfcfd4" d="M18 12l-2 7-1-4z"/><path fill="#4e3d36" d="M11 7L9-2 8 5z"/><path fill="#d1d4d3" d="M50 11h-7l9-3z"/><path fill="#d0cfd2" d="M34 11h-6l3-1z"/><path fill="#b3b5b7" d="M20 12l-2 2 2-7z"/><path fill="#e9e9ee" d="M-15 19l13 19 43-17z"/><path fill="#e9eaeb" d="M22 10l18-6 15 5z"/><path fill="#d8d1d9" d="M6 11h-21V5z"/><path fill="#eff2f3" d="M50 2l2-17L22 2z"/><path fill="#d8dbdc" d="M35 11h11l3-4z"/><path fill="#eef1f6" d="M5 7L7-8-9 13z"/><path fill="#763a3a" d="M14 3l-1 3V4z"/><path fill="#d1d2d3" d="M46 3l20-6v6z"/><path fill="#e5e7e7" d="M61 11l-10 7-16-6z"/><path fill="#d8e7df" d="M4 15l7-4-2 3z"/><path fill="#cdcdd2" d="M38 19l7-1-4-1z"/><path fill="#e1e3e7" d="M-7 22l61 4-40 10z"/><path fill="#e1e3e5" d="M43 18l-7-6 15 3z"/><path fill="#f3f5f8" d="M39 21l-11 3 6-10z"/><path fill="#d1cfd5" d="M4 19l-12-4-7 4z"/><path fill="#c8cfd6" d="M3 3h-9l-9-6z"/><path fill="#391417" d="M11 6L8 7l7 1z"/><path fill="#231800" d="M27-15L15 3l5-15z"/><path fill="#eaedee" d="M27 11l-6 6 19-6z"/><path fill="#d9dadc" d="M15 19l8-1-1-8z"/><path fill="#eaeaf0" d="M-1 17l14 1-21-8z"/><path fill="#97949a" d="M18 6l1 1-4 3z"/><path fill="#562b2d" d="M10 4l5 3-5 2z"/><path fill="#e7eaea" d="M45 10l5-5-16 2z"/><path fill="#fff4ff" d="M22 2L0-15h11z"/><path fill="#dfe0e4" d="M33 24l2 16 10-20z"/><path fill="#594033" d="M8 1l11-2v-14z"/><path fill="#401b1c" d="M13 8H9l1-2z"/><path fill="#fcf8ff" d="M-15 7l30-22 31 1z"/><path fill="#7a817f" d="M12 12h6v-2z"/><path fill="#dfe1e1" d="M66 11v8l-30-6z"/><path fill="#3a0408" d="M14 5v1l3-2z"/><path fill="#cfd4d4" d="M25 11h-4l1-4z"/><path fill="#e3e6e6" d="M23 14l11 1-2-3z"/><path fill="#fff4ff" d="M3 11h-18v9z"/><path fill="#c4c4cb" d="M14 16l-2-1 5-3z"/><path fill="#ece8ec" d="M32 5v5l-9-2z"/><path fill="#e6e7e8" d="M54 2L40-7 24-3z"/><path fill="#d8cbd0" d="M22 3h-1l-1-1z"/><path fill="#c7c8c9" d="M48 11l18-2-11-4z"/><path fill="#d9d9de" d="M19 14L7 19h17z"/><path fill="#eff0f4" d="M8 21l3-2H2z"/><path fill="#e8eded" d="M28 5l-4 6 1-4z"/><path fill="#e6e6eb" d="M38 19h13l-7 3z"/><path fill="#dcdde0" d="M40 21l26-1-21 16z"/><path fill="#423331" d="M8 5L7 3 6 6z"/><path fill="#4f3331" d="M10 5v2L7 4z"/><path fill="#dfdcdd" d="M9 14l5 3-1-3z"/><path fill="#ecece8" d="M2-15h-6L6 5z"/><path fill="#ced0d0" d="M40 10v1l-3-1z"/><path fill="#e6e9ed" d="M6 10L4 7l-5 2z"/><path fill="#312623" d="M10 7l5 2h-5z"/><path fill="#c1c3c3" d="M21 9l-3 3 1 2z"/><path fill="#d2d4d5" d="M35 3l1-1h-3z"/><path fill="#5d3c31" d="M13 1l2 4-1-10z"/><path fill="#725b4d" d="M12 2l3-9 3 4z"/><path fill="#574443" d="M14 8l-1 1h-2z"/><path fill="#eceeef" d="M24 11h15l-9 3z"/><path fill="#e4e8e8" d="M22 13l10-1-3 3z"/><path fill="#eaf8fc" d="M-15 7l13-5 6 3z"/><path fill="#321208" d="M11 1v2l-1-2z"/><path fill="#e4e5e9" d="M26 22l-35-2 57 21z"/><path fill="#2c2320" d="M18 5L12-7l3-3z"/></svg>