<svg xmlns="http://www.w3.org/2000/svg" viewBox="0 0 400 200"><path fill="#d2d2d3" d="M0 0h400v200H0z"/><path d="M147-46l-7 130-98-5 7-130z"/><path fill="#2f0000" d="M112 94L42 58l38-75 70 35z"/><path fill="#f6fafd" d="M167-1l256 5-4 198-256-4z"/><path fill="#f7fcff" d="M132 206l-82 45-96-174 82-45z"/><path fill="#7c8884" d="M84 90l67-38 16 28-66 38z"/><path fill="#feffff" d="M-5-59l69 29-39 91-69-30z"/><path fill="#320000" d="M139 52l-23 26-25-22 23-26z"/><path fill="#f2f5f8" d="M132 231l-23-71 176-58 24 71z"/><path fill="#522a21" d="M72-37l41 19-33 75-42-18z"/><path fill="#839089" d="M82 81l52-9 4 23-52 9z"/><path fill="#eaf2f3" d="M189 29l-42 8-12-64 41-8z"/><path fill="#d5d7d8" d="M306 229l-5-149 129-4 5 148z"/><path fill="#e3eded" d="M54 98L27 74l15-17 27 23z"/><path fill="#490000" d="M145 21l-18 9-24-49 18-9z"/><path fill="#99a196" d="M152 38l10 7-25 34-10-7z"/><path fill="#dddfe1" d="M95 202v-93h125v93z"/><path fill="#c5e3db" d="M66 93l-1-3 59-16v3z"/><path fill="#bec2c8" d="M171 63l17 18-57 52-17-19z"/><path fill="#acacb0" d="M133 144h86v4h-86z"/><path fill="#dffffc" d="M125 75l-1-1 18-22 1 1z"/><path fill="#6b685f" d="M153 65l-40 37-8-9 40-37z"/><path fill="#a2a3a7" d="M-20 149v-1l126-5v2z"/><path fill="#86ca76" d="M105 7l-2 6-16-5 2-6z"/><path fill="#341e0a" d="M109 56L94 82 53 58l14-26z"/><path fill="#a1a2a5" d="M300 148v-4h102v4z"/><path fill="#88243a" d="M113 65L76 34l6-7 37 31z"/><path fill="#4c878a" d="M42 56l-3-38h8l3 37z"/><path fill="#eff1f1" d="M136 0l56-67 99 84-56 67z"/><path d="M126 46l-8 10-18-16 9-10z"/><path fill="#aeb0b0" d="M231 84v-4h189v4z"/><path fill="#f6f9ff" d="M310 165l-70 30-27-62 71-30z"/><path fill="#1f0000" d="M94 51h-9l1-32 9 1z"/><path fill="#8faca6" d="M144 82l-5-64 9-1 6 64z"/><path fill="#cdd5d5" d="M70 118L41 75l16-10 28 43z"/><path fill="#acaeaf" d="M245 19v-2l199 4v1z"/><path fill="#dbedff" d="M84 29l-3 9h-1l3-9z"/><path fill="#2c1200" d="M99 25l30-40 8 7-30 40z"/><path fill="#abadb0" d="M188 15v5l-40 1v-5z"/><path fill="#ebf1f4" d="M35-6l12 77-49 8-12-77z"/><path fill="#e7e9eb" d="M-7 217l-5-56 165-14 5 56z"/><path fill="#b8babb" d="M249 80v4h-78v-4z"/><path fill="#1a2c1a" d="M75 71l35-3 1 9-35 3z"/><path fill="#c8da83" d="M110 28v2l-12 3v-2z"/><path fill="#58a99d" d="M44 58l3-4 23 21-3 3z"/><path fill="#020b0a" d="M139 34l-9-3 4-16 9 2z"/><path fill="#fbc0e6" d="M73 11l1-20h2l-1 20z"/><path fill="#5c573c" d="M51-15l5-1 29 89-5 1z"/><path fill="#310000" d="M82 12l4 12-14 4-3-12z"/><path fill="#d85b83" d="M128 9l2-17 6 1-2 17z"/><path fill="#babcbd" d="M261 21l-73 1v-3l73-2z"/><path fill="#b9bbbc" d="M-3 81v-2l101 7v2z"/><path fill="#a7c17f" d="M109 9l-3-1 3-15h3z"/><path fill="#ffbbde" d="M100 43l-4 4-1-1 4-4z"/><path fill="#ffb6e7" d="M129 43l2-4h1l-2 5z"/><path fill="#b5b4bc" d="M82 97l59-2 1 16-60 2z"/><path fill="#aeb7ba" d="M45 18l-50 5v-2l49-4z"/><path fill="#eff1f2" d="M401-16l1 23-198 11-1-24z"/><path fill="#1b4d44" d="M55 19l-8-7 25-30 8 7z"/><path fill="#56923e" d="M70 75l-1-2 29-9v2z"/><path fill="#3d0009" d="M67 48l-2 2-21-18 2-2z"/><path fill="#95936b" d="M55 47l9-15 2 1-10 14z"/><path fill="#b96576" d="M101 69l9-16 3 1-9 17z"/><path fill="#e7e9ea" d="M374 133l-89 1-1-46 89-2z"/><path fill="#c7ced1" d="M152 12l30 99-10 3-31-98z"/><path fill="#ffedff" d="M89 14l1 1-3 4-1-1z"/><path fill="#e7eff0" d="M56 79l-7 3-13-25 7-3z"/><path fill="#a5bf75" d="M109 36L91 26l1-1 18 10z"/><path fill="#de5b80" d="M62 27v-5h9v4z"/><path fill="#54161f" d="M135 39l7 5-16 22-7-6z"/><path fill="#31090c" d="M98 66L70 39l6-7 28 27z"/><path fill="#afb069" d="M107 17v1l-9-2v-1z"/><path fill="#791b2c" d="M72 23l-27 7-3-7 27-8z"/><path fill="#6a5c3e" d="M94 47l1 1-22 19-1-1z"/><path fill="#1f1301" d="M76 64l1-7 33 6-1 6z"/><path fill="#538985" d="M42 35l10 10-5 6-10-10z"/><path fill="#cffaee" d="M112 82l-1-1 19-14 1 1z"/><path fill="#b1c6c4" d="M109 80v1l-95 3v-1z"/><path fill="#850017" d="M136 5l7 4-6 9-6-4z"/><path fill="#f0f2f2" d="M344 48H183V22h161z"/><path fill="#e0b5c5" d="M117 33l-1-2 6-3 1 1z"/><path fill="#b52f54" d="M63 53l6-2 1 4-6 2z"/><path fill="#71814a" d="M77 52L58 32l1-1 19 20z"/><path fill="#d69ab0" d="M121 55l2 3-1 1-2-3z"/><path fill="#060701" d="M106 77l-1 1-34-3v-2z"/><path fill="#73746d" d="M139 84l-38 16-4-10 38-16z"/><path fill="#cdcfd4" d="M84 96l38 19-14 28-38-19z"/><path fill="#b8babd" d="M217 143v3l-173 3v-3z"/><path fill="#000003" d="M115 74l-4-7 10-5 4 7z"/><path fill="#548482" d="M51 1l5 3-8 18-6-2z"/><path fill="#1c1100" d="M97 24v-3l42-6v3z"/><path fill="#2f5710" d="M69 28l-2 14-13-2 3-14z"/><path fill="#460308" d="M101 44h-1L66-17l1-1z"/><path fill="#390605" d="M137 34v6h-35v-6z"/><path fill="#ecedf0" d="M-12 87h75v50h-75z"/><path fill="#100" d="M94 63l28-26 1 2-28 25z"/><path fill="#9e9a9d" d="M160 54l-18 42-10-5 18-41z"/><path fill="#c1e7e7" d="M41 16l2 1-4 40h-2z"/><path fill="#438e89" d="M83 83v-1l17-4v1z"/><path fill="#dbdee2" d="M125 126l51-42 16 19-51 43z"/><path fill="#300000" d="M66 57l-8-1 2-14 8 1z"/><path fill="#d7d9da" d="M303 177l13 30-36 15-13-30z"/><path fill="#200" d="M99 35L71 18v-1l29 16z"/><path fill="#f4f6fb" d="M217 132l31-1 2 67-31 1z"/><path fill="#e6d5d7" d="M108 58l-2-2 3-3 2 2z"/><path fill="#8ec39e" d="M93 10l6-1v1l-6 2z"/><path fill="#3d0c05" d="M57-18l58 47-2 3-58-47z"/><path fill="#cfdcdb" d="M39 82v-1l64 4v2z"/><path fill="#64202d" d="M68 5V1l43-5 1 5z"/><path fill="#d090a7" d="M52 23l-5 4-1-2 5-3z"/><path fill="#cbced2" d="M180 69l-18 5-10-35 18-5z"/><path fill="#6c0817" d="M104 47l8 30h-1l-9-30z"/><path fill="#604534" d="M134 39h-2l-24-73h2z"/><path fill="#e4e5e6" d="M-4 213l6-52 197 25-6 51z"/><path fill="#140000" d="M114 19l16-34 1 1-15 34z"/><path fill="#edf0f4" d="M309 171l-61 27-18-39 61-28z"/><path fill="#ebeced" d="M187 131l-6-39 68-9 6 39z"/><path fill="#79936c" d="M89 36v-1l14-1v2z"/><path fill="#98a885" d="M103-7l6 15-1 1-7-16z"/><path fill="#eaeced" d="M293 31v49H177V31z"/><path fill="#3c706c" d="M144 12h1l-6 28-1-1z"/><path fill="#2b0100" d="M68 64l17-15 2 1-18 15z"/><path fill="#a87f78" d="M72 66l3-6 2 1-4 5z"/><path fill="#000b00" d="M104 6l-7-1 1-9h6z"/><path fill="#0e0e00" d="M85 61l1 2-13 5-1-1z"/><path fill="#760117" d="M138 38l3 2-9 11-2-2z"/><path fill="#aec7c0" d="M81 79v3H52v-3z"/><path fill="#eff1f2" d="M223 86h140v8H224z"/><path fill="#895d58" d="M121 20l3 3-9 9-3-4z"/><path fill="#580517" d="M60-11l5-2 17 54-4 1z"/><path fill="#6b6d5f" d="M146 67l-31 21-3-3 31-22z"/><path fill="#2d2921" d="M125 69l-5-3 16-21 5 4z"/><path fill="#8a0014" d="M133 16l-6 2-3-11 6-1z"/><path fill="#ac7396" d="M68 16v1l-9-3v-1z"/><path fill="#5e000e" d="M135-3l1 6-10 2-1-6z"/><path fill="#cfd1d2" d="M430 24l-267-5v-1l267 5z"/><path fill="#330004" d="M90 19l12 1v6H90z"/><path fill="#838377" d="M145 80h-2l-2-27 2-1z"/><path fill="#b7babe" d="M162 50l2 25-12 1-2-25z"/><path fill="#818380" d="M133 87v11l-43-2 1-11z"/><path fill="#b7b6b3" d="M86 101l-11 1V85l11-1z"/><path fill="#5c5931" d="M104 34l8-35h2l-9 35z"/><path fill="#965673" d="M75-12h1l1 26h-2z"/><path fill="#d4d4d9" d="M8 148v-1h198v2z"/><path fill="#9a696a" d="M78 49l1 1-11 6-1-1z"/><path fill="#2b180d" d="M113 13l-18 2-1-1 19-3z"/><path fill="#b8b2c8" d="M85 28l-4 6-2-1 5-6z"/><path fill="#cbe7e3" d="M148-13h1l-4 53h-2z"/><path fill="#3c6c60" d="M75 78l-1 1-23-21 1-1z"/><path fill="#f2f2f4" d="M144 10l-7-14 8-4 7 13z"/><path fill="#478a38" d="M81 66v-1l17-2 1 2z"/><path fill="#f2f3f4" d="M161 17v-33l33 1v33z"/><path fill="#67020f" d="M113 47l-7 12-11-7 7-12z"/><path d="M117 50l-11-14 3-3 12 14z"/><path fill="#aaacb0" d="M96 98l42-4 2 12-42 5z"/><path fill="#00110b" d="M47 40v-1l11-3v2z"/><path fill="#9ea0a3" d="M149 84l-1-1 27-3v1z"/><path fill="#91994a" d="M55 27l1 1-6 3-1-1z"/><path fill="#f294ac" d="M96 46h-2l-1-3h2z"/><path fill="#171212" d="M72 63l-4 5-13-11 3-5z"/><path fill="#cdd0d3" d="M264 171l3 19h-2l-2-19z"/><path fill="#0d0000" d="M116 70l6-32h1l-6 32z"/><path fill="#204d4c" d="M70 79v-2l30-1v1z"/><path fill="#3c1623" d="M112 75l-11 4-2-6 11-4z"/><path fill="#450006" d="M124 28l4 23-3 1-5-23z"/><path fill="#eef2f1" d="M66 76l-36 4v-2l36-3z"/><path fill="#8f0019" d="M109 66l-7-3 3-6 7 4z"/><path fill="#e0e1e3" d="M54 99l50 32-10 16-50-33z"/><path fill="#7c5857" d="M66 11l-1-1 8-10 1 1z"/><path fill="#4e0000" d="M60 24l-5 2-1-1 5-3z"/><path fill="#e1b7c1" d="M131 9l-1-1 3-5h2z"/><path fill="#947f8b" d="M61 21l-1 1-4-4 1-1z"/><path fill="#cbf2e7" d="M57-14L40 23l-2-1 17-37z"/><path fill="#f5f7fb" d="M36 37l-50 5-2-15 50-5z"/><path fill="#d9dadc" d="M408 155l-99-2v-6l99 2z"/><path fill="#d4d5d8" d="M287 53l1-11 14 1-1 11z"/><path fill="#59974b" d="M90 68v2l-10-2 1-2z"/><path fill="#c1a1ae" d="M91 18l-4-5 1-1 4 5z"/><path fill="#260000" d="M107 38v1l-18 3-1-1z"/><path fill="#1a0303" d="M123 23l-8-4 4-9 9 4z"/><path fill="#f4f7fa" d="M-23 15l-1-20 67-2 1 20z"/><path fill="#420f14" d="M50 58l-1-1 19-16 1 1z"/><path fill="#bdbdc3" d="M309 73l2-6 9 3-2 6z"/><path fill="#0f0000" d="M80 62l6-8 1 1-5 8z"/><path fill="#71a058" d="M99 4l-8 7-1-1 8-7z"/><path fill="#d7d9da" d="M365 217l-14-26 57-32 15 26z"/><path fill="#380e14" d="M57 11h31v2l-31-1z"/><path fill="#220a02" d="M103 73l-7 3-3-7 7-3z"/><path fill="#a7a9ad" d="M171 19l-22 3v-2l22-3z"/><path fill="#c48999" d="M62 25v-2l9 4-1 1z"/><path fill="#cda6a8" d="M109 55l-2 5-1-1 1-4z"/><path fill="#a47d95" d="M57 44l2 3-1 1-3-3z"/><path fill="#eaecee" d="M309 157l83-1v4l-83 2z"/><path d="M97 35l-9-4 1-1 9 3z"/><path fill="#e0e2e7" d="M114 144v-9l73-3 1 10z"/><path fill="#852650" d="M74 12l-1 1-2-24h2z"/><path fill="#6a0824" d="M108-4l27 8-1 1-27-7z"/><path fill="#ca7a94" d="M126 42l1-5 5 1-1 5z"/><path fill="#570013" d="M79 57l-10 4-2-4 10-4z"/><path fill="#e0e2e3" d="M428 125l-130 18-6-41 130-19z"/><path fill="#8aa068" d="M94 26l11 4v2l-12-5z"/></svg>