<svg xmlns="http://www.w3.org/2000/svg" viewBox="0 0 400 200"><path fill="#d2d2d3" d="M0 0h400v200H0z"/><path d="M46 1h99v81H46z"/><path fill="#320000" d="M52 1h86v69H52z"/><path fill="#f8fdff" d="M1 63h65v138H1z"/><path fill="#5d665e" d="M85 65h67v37H85z"/><path fill="#f6fafd" d="M165 1h236v198H165z"/><path fill="#330b01" d="M60 37h63v39H60z"/><path fill="#f6fafc" d="M63 149h102v52H63z"/><path fill="#fff" d="M1 1h40v62H1z"/><path fill="#46221b" d="M41 16h100v30H41z"/><path fill="#b2b8bb" d="M132 52h44v58h-44z"/><path fill="#fcffff" d="M218 115h80v67h-80z"/><path fill="#e5e6e9" d="M1 70h67v131H1z"/><path fill="#d6d8d8" d="M302 79h99v122h-99z"/><path fill="#f7f9fa" d="M141 1h174v12H141z"/><path fill="#959f98" d="M141 35h14v50h-14z"/><path fill="#b5cecb" d="M1 79h114v5H1z"/><path fill="#081d0c" d="M73 71h33v10H73z"/><path fill="#858987" d="M112 73h23v36h-23z"/><path fill="#3f090f" d="M112 4h28v52h-28z"/><path fill="#ecf3f3" d="M1 59h53v22H1z"/><path fill="#d5d8dd" d="M63 98h119v53H63z"/><path fill="#a1a3a5" d="M315 145h86v4h-86z"/><path fill="#adb0b1" d="M149 81h202v4H149z"/><path fill="#786654" d="M79 27h53v7H79z"/><path fill="#7bb665" d="M90 4h19v8H90z"/></svg>