<svg xmlns="http://www.w3.org/2000/svg" viewBox="0 0 16 8"><path fill="#d4d4d6" d="M0 0h16v8H0z"/><path d="M5 3L-7-15h21z"/><path fill="#f2f7f7" d="M28 2l-4-17-27 28z"/><path fill="#1b020d" d="M4 3l5-8-6-10z"/><path fill="#fffbfe" d="M5 6l-16 6 5-19z"/><path fill="#32242b" d="M7 3l-22-18h11z"/><path fill="#65565d" d="M6 4l-7-19-1 11z"/><path fill="#2d1d24" d="M4 2L15-9 2-2z"/><path fill="#f1eff1" d="M13-15l-1 27L7-3z"/><path fill="#d6dbdb" d="M5 20L18-3l14 4z"/><path fill="#dedee0" d="M2 1l1 23 5-13z"/><path fill="#bab5b8" d="M7 4L4 5l2-2z"/><path fill="#fffbff" d="M3 4l-7-17-9 1z"/><path fill="#66555e" d="M3 1l16-16h13z"/><path fill="#73656d" d="M6 1l5-16 1 7z"/><path fill="#dadcde" d="M8 2l10 5 5-2z"/><path fill="#dfe5e5" d="M9 4L3 24l-18-13z"/><path fill="#c1a5b0" d="M3 2l-4-8 2-7z"/><path fill="#f6fbfb" d="M10 4l4 3-4-1z"/><path fill="#d9dddd" d="M12 7L0 17l32-5z"/><path fill="#ebd7e1" d="M-15-4L2 4-8-10z"/><path fill="#191215" d="M5 1l12-13-4-3z"/><path fill="#fff" d="M2 4L-8 5l-7 6z"/><path fill="#e3edec" d="M1 6v2l3-2z"/><path fill="#e8dde3" d="M10 4L1-8l4-7z"/><path fill="#d8dfde" d="M4 8l-16-5L0 14z"/><path fill="#f3ebf0" d="M11 2l-26-17H4z"/><path fill="#1c1317" d="M7-13l4 2L5 2z"/><path fill="#e8eced" d="M8 5l-8 8v6z"/><path fill="#d7dadb" d="M8 7L2 21l-17 3z"/><path fill="#e7f0ef" d="M14 2h12l6-5z"/><path fill="#fff0fb" d="M12-15L-1 3l6-18z"/><path fill="#f7fdfc" d="M11 4v2l1-2z"/><path fill="#d7d9db" d="M32 18L27 5 8 9z"/><path fill="#d4d7d8" d="M14 6h3V5z"/><path fill="#e4e7e8" d="M9 4l12-17 11 1z"/><path fill="#dde2e2" d="M12 2l13 5V2z"/><path fill="#dddedf" d="M8 6L7 24H2z"/><path fill="#d2d8d8" d="M3 8l-14 7 17 6z"/><path fill="#eaf0f0" d="M-4 24L3 7 2 24z"/><path fill="#2b1f25" d="M5 1l1-9 10-6z"/><path fill="#23161c" d="M4 2l5-6v-5z"/><path fill="#eaf2f1" d="M5 8l-20 16h47z"/><path fill="#dce2e2" d="M2 8l14 12-29-6z"/><path fill="#bab2b7" d="M8 4L7 3H6z"/><path fill="#dde6e5" d="M15 1L-7-15l29 2z"/><path fill="#fff1f8" d="M1 2L0-6l-15-7z"/><path fill="#e2dade" d="M9 3L7-4 6-2z"/><path fill="#eeebee" d="M12 2L0-3l5-12z"/><path fill="#ebefef" d="M13 7l-1-3v2z"/><path fill="#e7e5e8" d="M9 1l11-13-11-3z"/><path fill="#e2e5e7" d="M-8 14H3l10-7z"/><path fill="#eae6ea" d="M-15 0v5H3z"/><path fill="#dce1e2" d="M5 6l6 5-4-1z"/><path fill="#e6eaeb" d="M6 6l1 18-5-7z"/><path fill="#d8e0df" d="M6 8l15 6-21 4z"/><path fill="#dcdfe0" d="M11 8l3 6-15 10z"/><path fill="#ded6db" d="M-15 14L2 6l-17 2z"/><path fill="#b9aab1" d="M3 1l-13-13 6-3z"/><path fill="#e1e2e3" d="M7 4l7 20-6-2z"/><path fill="#e6eaeb" d="M8 8l-13 4h16z"/><path fill="#281e22" d="M6 1L5-14l-13-1z"/><path fill="#d7dede" d="M15 3l17-7-3-4z"/><path fill="#e5e7e9" d="M3 6l-12 5-6-3z"/><path fill="#e8dee4" d="M-15 6l10 2 8-4z"/><path fill="#d5d5d6" d="M5 6V5l1 2z"/><path fill="#e3ebea" d="M5 7l5 3-8 8z"/><path fill="#dbdedf" d="M8 7l-21 15 15-2z"/><path fill="#e9e9eb" d="M1 4h-13l8 3z"/><path fill="#d8dede" d="M4 8l6 8 20-3z"/><path fill="#d5d8d9" d="M13 8L2 23l-17 1z"/><path fill="#dbdedf" d="M14 8L-9 24l32-4z"/><path fill="#fff5fc" d="M-1 1l16-6H2z"/><path fill="#e6e9ea" d="M18 18L7 7l25 14z"/><path fill="#dee4e5" d="M12 4l20-2-7-4z"/><path fill="#ffeff6" d="M4 3l-15-8-4-10z"/><path fill="#f4eaef" d="M9 1L-5-15l13 3z"/><path fill="#e9eeef" d="M5 8L0 24l16-9z"/><path fill="#fff5fc" d="M27-15L-3 1l18-4z"/><path fill="#e0e5e6" d="M16 2l9 4 7-2z"/><path fill="#dae1e1" d="M16 4l9 1 2 9z"/><path fill="#dee6e5" d="M1 7l-14 2 9 2z"/><path fill="#22181c" d="M6 2L1-8l4-7z"/><path fill="#d9e1e1" d="M10-4l14 9 8-9z"/><path fill="#281d22" d="M5 1v-16l7 2z"/><path fill="#f0f4f4" d="M12 5h-2L8 7z"/><path fill="#ebe2e7" d="M7 1l12-16L7-7z"/><path fill="#eaeeee" d="M12 2L8-9l3-6z"/><path fill="#e7ecec" d="M7 6L1 17l-13 7z"/><path fill="#dee6e5" d="M6 7l1 11 10 6z"/><path fill="#dce1e2" d="M6 8l26 16-23-4z"/><path fill="#dfe1e3" d="M14 7l15-5-5-2z"/><path fill="#d9dcdd" d="M15 8l1 5h-5z"/><path fill="#7d7177" d="M-15 9V4L3 3z"/><path fill="#e4e7e8" d="M10 8l15 9-15 1z"/><path fill="#e5e8e9" d="M9 8L-8 19l5 4z"/><path fill="#dde1e2" d="M13 2l10 6-2-6z"/><path fill="#d8dfdf" d="M16 3l8-14 8-2z"/><path fill="#d5d8d9" d="M16 8l-31 5 43 10z"/><path fill="#edf3f3" d="M-15 13L3 7l-18 1z"/><path fill="#d8dbdc" d="M12 8l-15 7-12-3z"/></svg>