<svg xmlns="http://www.w3.org/2000/svg" viewBox="0 0 400 200"><style>@keyframes a{from{opacity: 0}to{opacity: 1}}g&gt;*{opacity: 0;animation: a .5s forwards}</style><path fill="#d2d2d3" d="M0 0h400v200H0z"/><ellipse rx="1" ry="1" transform="matrix(-43.62446 24.18143 -32.10485 -57.91868 98 37)"/><ellipse fill="#2b0000" rx="1" ry="1" transform="matrix(46.03212 -22.32899 20.9488 43.18681 93 31)"/><ellipse fill="#f3f8fa" rx="1" ry="1" transform="matrix(140.64582 2.75701 -7.80887 398.36097 283 39)"/><ellipse fill="#f7fbfe" rx="1" ry="1" transform="matrix(-115.26807 -222.60213 45.115 -23.3615 60 179)"/><ellipse fill="#a9b1b0" rx="1" ry="1" transform="rotate(-97 100 -5) scale(17.39841 63.28147)"/><ellipse fill="#491f15" rx="1" ry="1" transform="rotate(15 -54 385) scale(43.8966 53.65674)"/><ellipse fill="#959b97" rx="1" ry="1" transform="matrix(-15.79594 25.83589 -15.8829 -9.71073 148 68)"/><ellipse fill="#fbffff" rx="1" ry="1" transform="matrix(-34.25515 38.58087 -28.44538 -25.25606 258 153)"/><ellipse fill="#f4fbfd" rx="1" ry="1" transform="matrix(33.56346 -77.10495 27.46948 11.95735 18 3)"/><ellipse fill="#cedfdb" rx="1" ry="1" transform="matrix(-32.32334 2.31471 -.44353 -6.19352 70 86)"/><ellipse fill="#eff1f4" rx="1" ry="1" transform="matrix(-15.46266 19.3062 -24.99525 -20.01911 136 175)"/><ellipse fill="#d6d8d9" rx="1" ry="1" transform="matrix(3.655 102.31043 -66.90257 2.39007 373 173)"/><ellipse fill="#f1f3f3" rx="1" ry="1" transform="matrix(-53.59217 -39.65612 30.6485 -41.41907 230 23)"/><ellipse fill="#1c0000" rx="1" ry="1" transform="matrix(-11.09399 -6.36784 5.17495 -9.01574 114 45)"/><ellipse fill="#6b8454" rx="1" ry="1" transform="rotate(115 50 32) scale(12.94526 13.43701)"/><ellipse fill="#7fc3bb" rx="1" ry="1" transform="matrix(12.75556 10.71237 -3.04017 3.62003 56 68)"/><ellipse fill="#b1b3b5" rx="1" ry="1" transform="matrix(-44.907 .07838 -.0051 -2.92167 343 147)"/><ellipse fill="#afb2b3" rx="1" ry="1" transform="matrix(241.46602 .84288 -.00545 1.56249 312 17)"/><ellipse fill="#575f58" rx="1" ry="1" transform="matrix(10.5943 4.31026 -14.54754 35.75675 58 14)"/><ellipse fill="#a5a7a7" rx="1" ry="1" transform="matrix(-212.58383 -.37103 .00273 -1.5625 327 82)"/><ellipse fill="#787f72" rx="1" ry="1" transform="matrix(-20.94768 13.86497 -4.88336 -7.37795 130 78)"/><ellipse fill="#c3d2d0" rx="1" ry="1" transform="matrix(-37.5009 33.76597 -1.59093 -1.7669 149 50)"/><ellipse fill="#cccfd4" rx="1" ry="1" transform="matrix(-15.42778 -2.89408 8.71564 -46.4614 161 105)"/><ellipse fill="#a11938" rx="1" ry="1" transform="matrix(9.2565 9.92638 -4.0316 3.75954 105 54)"/><ellipse fill="#dfe0e3" rx="1" ry="1" transform="matrix(12.02068 -8.44745 50.55511 71.93969 89 132)"/></svg>