<svg xmlns="http://www.w3.org/2000/svg" viewBox="0 0 400 200"><style>@keyframes fadeIn{from{opacity: 0}to{opacity: 1}}g.animated&gt;*{opacity: 0;animation: fadeIn .5s forwards}</style><path fill="#d2d2d3" d="M0 0h400v200H0z"/><g class="animated"><path d="M143 2L44-24l2 92 96 36z" style="animation-delay:0s"/><path fill="#2f0000" d="M71 85l64-22 9-87L37 30z" style="animation-delay:.19s"/><path fill="#f2f6f9" d="M270-22L-24 215l420-17 12-214z" style="animation-delay:.38s"/><path fill="#f3f9fc" d="M-16 197l-7-215 95 96 12 82z" style="animation-delay:.56s"/><path fill="#95a09d" d="M157 133L49 80l67-3 44-43z" style="animation-delay:.75s"/><path fill="#f2f4f6" d="M250 224l96-248H122l71 114z" style="animation-delay:.93s"/><path fill="#42160f" d="M147 18l-21 52-33 13L40-24z" style="animation-delay:1.1s"/><path fill="#f5fcff" d="M58-12L-24 6l56 76 11-63z" style="animation-delay:1.28s"/><path fill="#929795" d="M185 85L75 81l41 43 26-72z" style="animation-delay:1.45s"/><path fill="#d0d1d6" d="M-2 148l147-48 23-62 21 114z" style="animation-delay:1.61s"/><path fill="#f8fbff" d="M317 179l-38-79-61 32 1 59z" style="animation-delay:1.76s"/><path fill="#6c814f" d="M89 2l44-26-39 54 10 4z" style="animation-delay:1.91s"/><path fill="#a3a5a6" d="M341 149l-43-3 64-3 62 4z" style="animation-delay:2.05s"/><path fill="#474d41" d="M40 51l2-28 30-47-11 96z" style="animation-delay:2.19s"/><path fill="#b7b9ba" d="M410 83l-85-5-190 6 185 2z" style="animation-delay:2.31s"/><path fill="#dce7e6" d="M62 79l52 5-83 8-13-75z" style="animation-delay:2.43s"/><path fill="#6b6d61" d="M144 72l11-16-62 39 25 2z" style="animation-delay:2.53s"/><path fill="#b8c8c2" d="M100 93l29-25 12-19 40-20z" style="animation-delay:2.63s"/><path fill="#100" d="M113 33l-11 8 13 12 22-2z" style="animation-delay:2.71s"/><path fill="#82384c" d="M38 13l45 16 44 39-53-35z" style="animation-delay:2.79s"/><path fill="#bfc1c2" d="M136 17l124 7 164-4-126-2z" style="animation-delay:2.85s"/><path fill="#cee4df" d="M-3 95l115-16 28-17-29 22z" style="animation-delay:2.91s"/><path fill="#3e0f10" d="M54 61l82-3-34 20-56-51z" style="animation-delay:2.95s"/><path fill="#f8fafa" d="M221 18l53-41-189 2 81 37z" style="animation-delay:2.98s"/><path fill="#d8dada" d="M419 222l-210 2 147-77 60 5z" style="animation-delay:2.99s"/></g></svg>