<svg xmlns="http://www.w3.org/2000/svg" viewBox="0 0 400 200"><path fill="#d2d2d3" d="M0 0h400v200H0z"/><path d="M20 15l104 112 27-151z"/><path fill="#f3f7fa" d="M424 196L295-24-24 199z"/><path fill="#310000" d="M121-24l36 109L40 56z"/><path fill="#fff" d="M38 224l6-248-68 39z"/><path fill="#b1bbbb" d="M79 102l83 50 4-118z"/><path fill="#f0f3f4" d="M132-15L424 2 252 213z"/><path fill="#3e1308" d="M46-24l94 75-77 29z"/><path fill="#e7ecef" d="M-5 188L106 79l-130 5z"/><path fill="#f5fdff" d="M-24-1l56 61 17-83z"/><path fill="#3a0305" d="M143 20l-20-44L91 81z"/><path fill="#dddfe0" d="M226 57l198-26-43 193z"/><path fill="#562f2a" d="M57 68l63-92-80 50z"/><path fill="#c4cbce" d="M40 51l62 98 52-3z"/><path fill="#8b9995" d="M129 110l33-34-19-53z"/><path fill="#1d3018" d="M74 79L41 44l72 30z"/><path fill="#6c6e63" d="M146 65L85 93l49 2z"/><path fill="#e2e3e6" d="M-10 224l264-112-256-3z"/><path fill="#f5f9ff" d="M279 90l-85 114 114-31z"/><path fill="#f1f3f5" d="M279-24l-86 81-58-61z"/><path fill="#a9cc7c" d="M109 35L91 24l16 5z"/><path fill="#c6cfcc" d="M124 73l44-63 3 25z"/><path fill="#c9cbce" d="M143 93l109-12-98-22z"/><path fill="#170308" d="M91 76h24l25-25z"/><path fill="#d3afd5" d="M81 37l-2-10 6 4z"/><path fill="#c2c4c5" d="M424 154l-61-22-59 13z"/><path fill="#87a771" d="M85 16l30-14-20 3z"/><path fill="#4e9895" d="M43 51l17 20-15-39z"/><path fill="#e9ebec" d="M424 77L335-24 170 79z"/><path fill="#a92d4a" d="M93 37l14 28 6-8z"/><path fill="#eaecef" d="M76 138L16-24l-40 169z"/><path fill="#cecfd3" d="M93 93l-23 55 151-4z"/><path fill="#a3b4ad" d="M85 104l42-34-51 22z"/><path fill="#c9cbcd" d="M309 66l57 18-118-2z"/><path d="M121 52L99 32l25 3z"/><path fill="#3f0000" d="M68 21l27-33-18 41z"/><path fill="#872435" d="M141 7l-26 27 20-44z"/><path fill="#0d1006" d="M138 35l-25-22 27 5z"/><path fill="#aebbbe" d="M145 24l-2-12 36 6z"/><path fill="#1f5e53" d="M98-24l-35 3-22 44z"/><path fill="#cdd5d5" d="M54 68L-1 82l80 3z"/><path fill="#d8dadb" d="M373 145l51 53-231 26z"/><path fill="#d4d6d8" d="M359 21L298 2l-63 18z"/><path fill="#686a58" d="M124 77l22-26-5 17z"/><path fill="#ebedee" d="M157 20l195 59-164-2z"/><path fill="#507835" d="M74 63l-6 14 28-12z"/><path fill="#4c1418" d="M90 62l-39-8-3-25z"/><path fill="#190400" d="M101 62l-35 4 44-20z"/><path fill="#feffff" d="M218 173l42-57-39 7z"/><path fill="#937f81" d="M123 35l-3-12-5 1z"/><path fill="#70714b" d="M66 35l4-17-19 31z"/><path fill="#def4f3" d="M40 29L52-6 20 30z"/><path fill="#260004" d="M96 37l-9-19-5 33z"/><path fill="#e2e4e5" d="M295 141l125 2-32-66z"/><path fill="#d9839f" d="M131 6l1-10 3 13z"/><path fill="#528989" d="M41 48l2-24 8 33z"/><path fill="#e6e8ea" d="M102 141l160-54-55 53z"/><path fill="#b5d4cb" d="M59 77l50 3-38 8z"/><path fill="#a9a7ad" d="M101 113l34-15-53-5z"/><path fill="#b2638d" d="M71 10l5-8 1 10z"/><path fill="#f2f4f5" d="M348 15l-203-2 78-37z"/><path fill="#c1c2c5" d="M6 148h61l-29-10z"/><path fill="#cdcfcf" d="M181 21h61l-27-9z"/><path fill="#675238" d="M76 73l-8-36 11 17z"/><path fill="#873e44" d="M127 40l2-14 11 23z"/><path fill="#4e0d17" d="M73-24v50L57-12z"/><path fill="#6c5354" d="M73 35l-7-20L45-1z"/><path fill="#060d00" d="M98 68l-21 5 10 3z"/><path fill="#b9dfd4" d="M138 62l5-16-22 28z"/><path fill="#270400" d="M96 15l13-5H88z"/><path fill="#71a55e" d="M109 18L88 4l13-2z"/><path fill="#9a9b9c" d="M132 102l22-23-5-42z"/><path fill="#c3c5c6" d="M376 12l31 7-59 2z"/><path fill="#439492" d="M63 73L52 59l14 9z"/><path fill="#060900" d="M106 9l-7-33-18 3z"/><path fill="#c5c7cc" d="M37 21l-22-8-27 7z"/><path fill="#d6adb3" d="M109 59l1-5-3-2z"/><path fill="#eaecee" d="M43 101l56 39-76 3z"/><path fill="#acb0b4" d="M185 81l-34-4-19 13z"/><path fill="#392726" d="M140 49l-14 17 14-43z"/><path fill="#4f040b" d="M138 4l-18 23 22-12z"/><path fill="#cae6a9" d="M110 4L98-6v-12z"/><path fill="#ce7f9e" d="M95 45l6 1-7-8z"/><path fill="#a9abae" d="M301 145l17 4 14-6z"/><path fill="#6f8262" d="M101 34l-2 3-9-2z"/><path fill="#730116" d="M98 49l4-9 13 16z"/><path fill="#3a711d" d="M66 26l4 14-21-14z"/><path fill="#777871" d="M82 90l47-13-31 19z"/><path fill="#eceff1" d="M-5 79h73l-86-61z"/><path fill="#181700" d="M96 26v-8l27-2z"/><path fill="#e8eaeb" d="M224 157L4 207l-5-59z"/><path fill="#200" d="M112-4l11 10-2 15z"/><path fill="#c44a69" d="M65 20l-2 6 10-2z"/><path fill="#c3c4c6" d="M157 143l31 11 33-11z"/><path fill="#3d000a" d="M85 26l-22-6 49-3z"/><path fill="#360a0b" d="M107 35l-37 2 6 9z"/><path fill="#e4e6e8" d="M104 152l117 57-9-63z"/><path fill="#ebecee" d="M220 12l143-36 61 40z"/><path fill="#eef0f1" d="M96-24l70 40 68-21z"/><path fill="#922945" d="M73 54l-7-6-1 11z"/><path fill="#b7babb" d="M387 87l20-8h-44z"/></svg>