<svg xmlns="http://www.w3.org/2000/svg" viewBox="0 0 800 400"><path fill="#d2d2d3" d="M0 0h800v400H0z"/><path d="M239 248L49 36l256-84z"/><path fill="#2d0000" d="M330 145l-235-9 13-184z"/><path fill="#f2f6f9" d="M-48 370l896 78L611-48z"/><path fill="#feffff" d="M86-48L-48 36 70 448z"/><path fill="#380100" d="M289 105L264-48 130 158z"/><path fill="#99a4a2" d="M342 220L311 73 158 220z"/><path fill="#f0f3f4" d="M848 14L502 449 255-48z"/><path fill="#e8ecee" d="M-48 411L39-42l175 456z"/><path fill="#c3c9cb" d="M86 120l125 172 216 3z"/><path fill="#1e280e" d="M136 152L80 80l150 75z"/><path fill="#7f8a80" d="M314 98l-166 94 135-3z"/><path fill="#4e2e20" d="M302 36L105-48 86 111z"/><path fill="#dbddde" d="M486 161l291 287 71-371z"/><path fill="#d6ffff" d="M155 164l75-9-35 15z"/><path fill="#cacfd3" d="M323 252l50-100-96-194z"/><path fill="#481519" d="M120-17l135 150-78 28z"/><path fill="#fafcff" d="M602 223l-166 25v200z"/><path fill="#acc3ba" d="M314 105l-91 53 88-91z"/><path fill="#fafbfc" d="M202-48l337 65-222 16z"/><path fill="#eef5f8" d="M111-17L-48 2l90 112z"/><path fill="#2f0000" d="M223 30l54 37-38-115z"/><path fill="#656357" d="M280 164l-72 28 75-75z"/><path fill="#9d2841" d="M186 80l28 47 31-13z"/><path fill="#bdbec1" d="M811 286l-109 31-104-28z"/><path fill="#c2a2c5" d="M170 61l-6 16-6-29z"/><path fill="#5eb0ad" d="M83 64l25 66-28-32z"/><path fill="#407942" d="M195 123l-43 38-29-19z"/><path fill="#e3e5e6" d="M795-48L280 208l568 65z"/><path fill="#010000" d="M198 114l22-50 32 22z"/><path fill="#8ead62" d="M173 52l50 6-12 9z"/><path d="M223 152l35-25-31 3z"/><path fill="#e4e5e6" d="M86 105L-30 445l328-18z"/><path fill="#5c5054" d="M155 17L83 77l34-125z"/><path fill="#a9b0b0" d="M355 170l-63-12-6-113z"/><path fill="#a41337" d="M255-48l6 81 22-16z"/><path fill="#2f0000" d="M158 14l59 72-69-44z"/><path fill="#f6f8f9" d="M567 42L377 98l-47-56z"/><path fill="#d2d3d8" d="M355 189L20 292l238 3z"/><path fill="#d8dadb" d="M380 448l468-59-109-94z"/><path fill="#cbcdcf" d="M733 164l-122-31-100 34z"/><path fill="#d4d5d7" d="M617 8L502 39l234 3z"/><path fill="#f2f6fc" d="M548 177l72 153-140 62z"/><path fill="#e9ebec" d="M817 155l-503 3L702 42z"/><path fill="#e6e8ea" d="M427 283l-219 3 240-87z"/><path fill="#ebedef" d="M80 164L-48 283l240 3z"/><path fill="#eef0f1" d="M773 33l41-81-303 81z"/><path fill="#c7c8cc" d="M311 170l141-3-125-31z"/><path fill="#85a16b" d="M180 8l18 6-25 22z"/><path fill="#246a58" d="M111 30l37-72-56 59z"/><path fill="#ca6385" d="M145 55l-15-3V39z"/><path fill="#170005" d="M283 27l-22-4 13 54z"/><path fill="#5a0e16" d="M142 139L95 61l63 50z"/><path fill="#231d0a" d="M130 64l72 44 6 50z"/><path fill="#2a1a06" d="M177 20l21 28 50-12z"/><path fill="#96535c" d="M173 108h19l10-38z"/><path fill="#51a29e" d="M148 148l-40-28 9 19z"/><path fill="#e2e4e5" d="M848 298l-193 66-50-69z"/><path fill="#54121c" d="M120 8l32-28 96 18z"/><path fill="#67838d" d="M86 92l28-3-28-12z"/><path fill="#522321" d="M258 127l25-35-35-84z"/><path fill="#cbd0d2" d="M2 167h150l-47-28z"/><path fill="#8e9d97" d="M305 123l-16 63-9-134z"/><path fill="#4e7926" d="M152 92L98 55l38 9z"/><path fill="#aa6d84" d="M136-48h28l-16 71z"/><path fill="#babcbd" d="M723 42l75-3-46-12z"/><path fill="#c5e7e2" d="M236 148l44-37-19 31z"/><path fill="#bdbfbf" d="M467 173l-31-15 62 3z"/><path fill="#120000" d="M217 73l41-9-22 53z"/><path fill="#c1c5c9" d="M52 27l31 15H-2z"/><path fill="#b5738b" d="M270-48h35l-47 71z"/><path fill="#00120d" d="M202 155l-50-3 34-13z"/><path fill="#76766d" d="M270 177l28-69-96 81z"/><path fill="#a5afb2" d="M292 33l53 3-43 9z"/><path fill="#dd87b9" d="M264 89h-6v-9z"/><path fill="#c3c5c7" d="M689 164l113 6-25-25z"/><path fill="#b5d6cd" d="M123 158l47 15 57-15z"/><path fill="#975f70" d="M248 58l-15 6 6-22z"/><path fill="#edf0f2" d="M89 161L74 11 17 145z"/><path fill="#b1b1b3" d="M392 292l50 3-22-12z"/><path fill="#a7a5ad" d="M320 158l-134 56 81-3z"/><path fill="#bfede5" d="M286 92l12-34-9-41z"/><path fill="#c0c1c6" d="M161 286l-69 19-65-19z"/><path fill="#8f222c" d="M95 39l-3 22 44-22z"/><path fill="#1c080a" d="M102 108l31 22-6-38z"/><path fill="#4c0b13" d="M145 48l3-43-28-28z"/><path fill="#6c0212" d="M208 86l-28 22h43z"/><path fill="#8d9752" d="M208 36l12-9-25 6z"/><path fill="#92cf7b" d="M220 14l-31-31 9-25z"/><path fill="#384d3c" d="M208 161l-69-6-6-22z"/><path fill="#86634a" d="M158 102l-25 9 9-19z"/><path fill="#ae6578" d="M220 108h-18l25 12z"/><path fill="#abb0b8" d="M505 395l-60 53-6-53z"/><path fill="#2e0007" d="M192 77l-34 18-19-22z"/><path fill="#1e0000" d="M180 111l3 12 31-15z"/><path d="M205 8l12-56h-78z"/><path fill="#e7e8ea" d="M458 311L98 448-48 292z"/><path fill="#6f0006" d="M248 11l29 19-22 6z"/><path fill="#231c0b" d="M223 58l-18-16 56-47z"/><path fill="#8a8c8f" d="M289 145l-75 53 56-6z"/><path fill="#b4b8bb" d="M255 292l-32-12-43 12z"/></svg>