<svg xmlns="http://www.w3.org/2000/svg" viewBox="0 0 400 200"><filter id="a"><feGaussianBlur stdDeviation="12"/></filter><path fill="#d2d2d3" d="M0 0h400v200H0z"/><g filter="url(#a)" transform="translate(1 1) scale(1.5625)"><ellipse rx="1" ry="1" transform="matrix(27.99015 -13.35275 17.97726 37.68409 62 21)"/><ellipse fill="#2a0000" rx="1" ry="1" transform="matrix(3.54277 28.13015 -32.33788 4.0727 59 23)"/><ellipse fill="#f6fafd" rx="1" ry="1" transform="matrix(-44.81359 251.03136 -75.36161 -13.4534 178 69)"/><ellipse fill="#f7fbfe" rx="1" ry="1" transform="matrix(29.8535 -17.19897 77.34688 134.25659 22 88)"/><ellipse fill="#97a09f" rx="1" ry="1" transform="matrix(30.81002 -7.73894 3.15446 12.55843 81 58)"/><ellipse fill="#4a140f" cx="66" rx="25" ry="49"/><path fill="#a8b4b1" d="M89 16l-1 45 22-30z"/><ellipse fill="#fcffff" rx="1" ry="1" transform="rotate(127 58 89) scale(31.6073 23.5686)"/><ellipse fill="#c7d7d2" cx="45" cy="54" rx="19" ry="5"/><ellipse fill="#d7d9da" cx="243" cy="90" rx="50" ry="50"/><path fill="#eff1f4" d="M62 96h34v32H62z"/><path fill="#f5fbfe" d="M16 28l27-44H-1l-4 60z"/><ellipse fill="#f0f2f3" rx="1" ry="1" transform="matrix(-11.79888 19.51098 -48.3075 -29.213 135 14)"/><path fill="#74915d" d="M53 1l6-8L73 3l-6 8z"/><path fill="#ccd1d3" d="M118 13l-13 102-11-92-16 27z"/></g></svg>