<svg xmlns="http://www.w3.org/2000/svg" viewBox="0 0 100 50"><path fill="#d3d3d5" d="M0 0h100v50H0z"/><path d="M36-15l-1 42L8 10z"/><path fill="#f3f7f9" d="M82-15L-8 54l124-3z"/><path fill="#300000" d="M39 14L8-15l9 35z"/><path fill="#feffff" d="M-4 52l7-67 14 46z"/><path fill="#9fa3a4" d="M42 25l-23 2L43 8z"/><path fill="#360000" d="M35 10v-25L22 19z"/><path fill="#eff2f3" d="M116-10L36 0l27 52z"/><path fill="#eff4f8" d="M-3-15l8 49 7-33z"/><path fill="#b7bec1" d="M37 27l-4 12-19-22z"/><path fill="#d9dbdb" d="M69 20l47-11-23 55z"/><path fill="#4e231f" d="M13 14l4-28 14 32z"/><path fill="#888987" d="M40 17L27 27l-5-7z"/><path fill="#e4e6eb" d="M7 7l31 40-50 16z"/><path fill="#c5c9cc" d="M36 9l4 19 9-9z"/><path fill="#f9fcff" d="M55 32l20-7-19 41z"/><path fill="#1b2b17" d="M27 18l-10 1 7-7z"/><path fill="#57332e" d="M12 5l17-20 7 25z"/><path fill="#d3d5da" d="M45 37H-1l45-14z"/><path fill="#8d9a90" d="M33 17l3-6 3 8z"/><path fill="#f4f5f7" d="M72-15H20l31 28z"/><path fill="#1a0500" d="M24 6l7-2 2-5z"/><path fill="#a0c795" d="M26 3L22-7l-5-1z"/><path fill="#6e9c98" d="M13 16l-1-3 5 4z"/><path fill="#c5d3cd" d="M41 7V-4l-7 20z"/><path fill="#340001" d="M35 4l-7-5 7 9z"/><path fill="#d0ddd0" d="M21 22l-7-2h10z"/><path fill="#70524b" d="M11 8l5-4 5 4z"/><path fill="#edf4f7" d="M6-13l10-1-9 32z"/><path fill="#00110e" d="M25 16v3l6-3z"/><path fill="#e4e6e7" d="M41 24l75-11-3-28z"/><path fill="#bfc1c2" d="M87 36l25 5-11-6z"/><path fill="#e84277" d="M33 2l22-17-18 3z"/><path fill="#d6d8d0" d="M25 19h4l-4 2z"/><path fill="#3e3526" d="M29 18L12 8l9 12z"/><path fill="#79675a" d="M28 8l4-2h-9z"/><path fill="#070000" d="M31 9h-5l4 4z"/><path fill="#eef0f4" d="M23 35h-38L3 22z"/><path fill="#70182b" d="M17 4l15 12-8-2z"/><path fill="#38110c" d="M20 13l7 3-4-10z"/><path fill="#717172" d="M22 23l7 1 7-7z"/><path fill="#35030a" d="M17 4l4 2 2-6z"/><path fill="#d2d3d7" d="M21 37l6-11 28 11z"/><path fill="#624244" d="M15 4l2-6 10 6z"/><path fill="#bbd3cd" d="M2 4l8-1-3 2z"/><path fill="#bfc2c4" d="M90 35l-14 1 8 2z"/><path fill="#dee0e1" d="M116-15L43 5h73z"/><path fill="#f2f4f5" d="M38-15L99 2 40 4z"/><path fill="#117262" d="M12 2l4-1 1-7z"/><path fill="#a3aaa5" d="M40 12l-4-7 3 16z"/><path fill="#f2f5fa" d="M77 43l-3-13-20 18z"/><path fill="#d9dadb" d="M84 20l-17 5-19-6z"/><path fill="#eceeef" d="M42 35l10-14h36z"/><path fill="#dfe2e3" d="M81 37h35L67 55z"/><path fill="#e3e6e7" d="M55 35l-1-11-26 10z"/><path fill="#e0818c" d="M21 9V8l1 1z"/><path fill="#eff2f3" d="M59 16L37 5h60z"/><path fill="#daac90" d="M27-6l8 1-8 6z"/><path fill="#babfc2" d="M22 28l10-1-14-6z"/><path fill="#5e5142" d="M21 18l-1-2 4-5z"/><path fill="#2f0804" d="M19 6l4-3-2-3z"/><path fill="#390706" d="M22 15l2-6-2-2z"/><path fill="#d7d9da" d="M56 50l54-3-12 19z"/><path fill="#c5cbce" d="M11 19l-5 1 9 1z"/><path fill="#bc5a79" d="M19 2v-7l3 2z"/><path fill="#cdcfd0" d="M110 14l-25 7h24z"/><path fill="#e9eaeb" d="M81 7l35 11-63 1z"/><path fill="#734554" d="M33 11V6l1 3z"/><path fill="#1b0000" d="M28 7l1 3 5 1z"/><path fill="#dbcfd7" d="M39 9l7 6-7 1z"/><path fill="#763448" d="M31 13l-5 5 2-5z"/><path fill="#686c6a" d="M32 23l5-8-10 8z"/><path fill="#311015" d="M35 12l-1-4-1 6z"/><path fill="#d7d9da" d="M115 5H74l39-11z"/><path fill="#e8e9ed" d="M4 37h50L-4 66z"/><path fill="#edeff0" d="M74 4l42-16-15 14z"/><path fill="#2d1009" d="M25 13l-7 1 4 2z"/><path fill="#e5e6e8" d="M72 23l44 11-40 1z"/><path fill="#511e11" d="M15 13l4 2-4-10z"/><path fill="#f8f7fb" d="M11 2L-4 4l18-19z"/><path fill="#7e6a5d" d="M30 8l-5-1 5-1z"/><path fill="#472522" d="M33 7l-6-1 3 2z"/><path fill="#022700" d="M26 1L11-15l22 2z"/><path fill="#081f11" d="M22 19l-1-2h7z"/><path fill="#e8e4e7" d="M5 21h-8l14-10z"/><path fill="#5e4336" d="M23 6l-10 6 2-4z"/><path fill="#e3e6e7" d="M70 25l-30-3 7 9z"/><path fill="#b2e1cf" d="M37 9l3-7h-2z"/><path fill="#f2f4f5" d="M38 3L26-15 72 2z"/><path fill="#ebedef" d="M44 19l31-1L46 6z"/><path fill="#ebf2f4" d="M-15 19l29-1-5-7z"/><path fill="#e9eaed" d="M-15 33l42 2L9 24z"/><path fill="#616046" d="M23 4l-2-19 6 5z"/><path fill="#cacacf" d="M48 5l-8-1 4-1z"/><path fill="#36210c" d="M35-2l-7 8h-7z"/><path fill="#833a46" d="M24 11l1 2h-2z"/><path fill="#476345" d="M17 17l7-1v2z"/><path fill="#360909" d="M41-15L16-8l5 9z"/><path fill="#871240" d="M18-15L17 4l8-19z"/><path fill="#c7c8cc" d="M3 35h11l-4 2z"/><path fill="#7c8664" d="M17-15H7L28 4z"/></svg>