<svg xmlns="http://www.w3.org/2000/svg" viewBox="0 0 200 100"><path fill="#d4d3d5" d="M0 0h200v100H0z"/><path d="M14 10l45 53 18-78z"/><path fill="#350000" d="M74 45L19 27l49-42z"/><path fill="#f0f5f8" d="M-15 64l215-79-12 131z"/><path fill="#f6fbfe" d="M53 116L12-15-15 95z"/><path fill="#42221d" d="M26-15l-1 47 46 17z"/><path fill="#f5f8f9" d="M71 0l92-12-28 126z"/><path fill="#859391" d="M79 23L39 49l43 5z"/><path fill="#faffff" d="M15 39L25-8-15 5z"/><path fill="#f1f4f6" d="M81 116l91-39-157 2z"/><path fill="#451716" d="M72 8L8-15l56 48z"/><path fill="#cdced3" d="M9 73l76 1 13-42z"/><path fill="#abb8b7" d="M61 37l-27 5 11 15z"/><path fill="#5b4039" d="M21 23l42-9-32-29z"/><path fill="#818b85" d="M48 48l25-1 4-27z"/><path fill="#113215" d="M34 32l21 6-19 1z"/><path fill="#e1e3e3" d="M216-5v120L102 39z"/><path fill="#200007" d="M58 38l-3-25 14 13z"/><path fill="#c7cbcf" d="M88 26l-3 26L69-6z"/><path fill="#e8e9ec" d="M-15 72L4-1l47 71z"/><path fill="#7c9167" d="M49-15L45 9l11-7z"/><path fill="#bcbec2" d="M202 71h-45l22 8z"/><path fill="#f9fcff" d="M104 66l37-16 15 33z"/><path fill="#f8fbfb" d="M75 8L60-15l85 21z"/><path fill="#c7cfcb" d="M82 9l-2 15-15 9z"/><path fill="#686964" d="M43 48l29-15-8 13z"/><path fill="#3b0004" d="M59 13l-26-2 9-8z"/><path fill="#d3d8da" d="M33 61l14-20-27-4z"/><path fill="#87203a" d="M65 30l-11 2-19-19z"/><path fill="#c1d69c" d="M49 14l5 3 2-3z"/><path fill="#120000" d="M50 32l11-12-20 11z"/><path fill="#a3acae" d="M75 47l-3-36 13 29z"/><path fill="#e54e70" d="M66 5l7-12-10-8z"/><path fill="#ecf1f4" d="M-15-9l46-1-37 68z"/><path fill="#f9fbfd" d="M127 11L97 22 76 12z"/><path fill="#49676c" d="M35-5L21 19l3-15z"/><path fill="#3f090b" d="M71 25l-8-36-9 6z"/><path fill="#dadcdd" d="M216 101l-37-27-66 33z"/><path fill="#d6d9db" d="M133 41l-52-4-8 16z"/><path fill="#130000" d="M54 3l-8-14-23 3z"/><path fill="#cdcfd0" d="M156 33l-33 9h55z"/><path fill="#eaecec" d="M89 39l70-51 49 50z"/><path fill="#290b0b" d="M47 11v14l-9 1z"/><path fill="#355f64" d="M22 23l3-6 8 20z"/><path fill="#bba2ba" d="M42 17l-1-2 1-3z"/><path fill="#51131a" d="M28 29l12-1-17-15z"/><path fill="#ebecee" d="M179 43H88l-1 29z"/><path fill="#507841" d="M49 33l-12-1-2 6z"/><path fill="#d1d3d4" d="M165 11l-39-1 18-6z"/><path fill="#254848" d="M72 6v11l-3-7z"/><path fill="#a8abb0" d="M52 52l27-14-13 18z"/><path fill="#d2d4d6" d="M54 74l54-1-75-25z"/><path fill="#aab2b1" d="M43 44l22-9-22 18z"/><path fill="#bec1c2" d="M174 42l18-5 10 5z"/><path fill="#2e0a08" d="M44 14l16-5H38z"/><path fill="#81424c" d="M65 12l4 11-3 3z"/><path fill="#adcdcb" d="M22 26l18 17H28z"/><path fill="#cf7a9b" d="M34-15h6L38 6z"/><path fill="#b78685" d="M45 9V7l-4-2z"/><path fill="#787671" d="M74 36V25L58 46z"/><path fill="#1e1114" d="M52 39l-14-2 26-5z"/><path fill="#0a0000" d="M52 17l9 1-1 10z"/><path fill="#7d797a" d="M63 47l-23-1 17-5z"/><path fill="#eff1f2" d="M214 8l-46-23L93 8z"/><path fill="#3a0005" d="M44 5l-2-20-6 32z"/><path fill="#e5e7e7" d="M118 116L-15 84l117-8z"/><path fill="#a4bb9c" d="M50 15h-2l-1-3z"/><path fill="#e6e8ea" d="M52 71l79-29-29 28z"/><path fill="#c1c3c3" d="M169 8l12 4 14-4z"/><path fill="#b8bbbc" d="M172 71l-14 5-7-4z"/><path fill="#f7fafe" d="M145 51l-35 13 2 36z"/><path fill="#b6bdbd" d="M92 10l-22 1 10-4z"/><path fill="#715a43" d="M34 5l2 11-9 10z"/><path fill="#ae7a88" d="M61 16v-5l-3 1z"/><path fill="#e2e4e6" d="M216 74l-64 1 11 19z"/><path fill="#121b07" d="M33 2l-7-14 21 9z"/><path fill="#bdbfbe" d="M13 39l-3 3-10-2z"/><path fill="#450a10" d="M70 4L52 5l19 8z"/><path fill="#caced1" d="M11 6l12 5-26-1z"/><path fill="#845949" d="M35 28l4-3-5-5z"/><path fill="#e77487" d="M48 23l-1-1 5-1z"/><path fill="#f1f4f4" d="M8 53l33-11-42 1z"/><path fill="#b6c1b9" d="M69 27l-7 9 15-8z"/><path fill="#340503" d="M47 22l-9-4-13 8z"/><path fill="#809370" d="M56 2L45 3l9 3z"/><path fill="#e5e8e9" d="M153 40l46-29 17 28z"/><path fill="#b93f54" d="M57 27l-4 7 1-8z"/><path fill="#899579" d="M54 7l-5 1 5 1z"/><path fill="#c0c0c5" d="M-1 71l19 1-13 3z"/><path fill="#edf1f2" d="M31 40L17 22l-6 16z"/><path fill="#fda8b7" d="M54 28l1-1 1 3z"/><path fill="#220803" d="M59 4l3 6-9-4z"/><path fill="#787773" d="M75 25l-9 22-4-6z"/><path fill="#662531" d="M67 26l-14 9 4-9z"/><path fill="#bec0bf" d="M109 72l-22-1 11 4z"/><path fill="#a55649" d="M26 10l3 4-5 2z"/><path fill="#650013" d="M50 25v-6l11 9z"/><path fill="#445f29" d="M29 16l10 8-5-11z"/><path fill="#bfc1c4" d="M49 58l15-1-33-18z"/><path fill="#bfbdbf" d="M23 43l-9-3h20z"/><path fill="#7b132a" d="M71 4L61 5l8 3z"/></svg>