<svg xmlns="http://www.w3.org/2000/svg" viewBox="0 0 400 200"><style>@keyframes a{from{opacity: 0}to{opacity: 1}}g&gt;*{opacity: 0;animation: a .5s forwards}</style><path fill="#d2d2d3" d="M0 0h400v200H0z"/><path d="M49-21l97 5-6 98-96-5z"/><path fill="#2e0000" d="M36 47l43-69 71 45-43 69z"/><path fill="#f6fafd" d="M164 0h261v198H164z"/><path fill="#f8fdff" d="M-56 42L17 0l100 172-73 42z"/><path fill="#7a8682" d="M85 92l65-39 17 28-66 40z"/><path fill="#eef0f4" d="M242 60l72 100-160 116-73-100z"/><path fill="#3e0000" d="M109-36h28v92h-28z"/><path fill="#818880" d="M147 45l15 14-45 48-15-14z"/><path fill="#e4f5f7" d="M141-8l15-2 5 42-16 1z"/><path fill="#d5d7d8" d="M305 203l2-125 124 2-2 125z"/><path fill="#3e180c" d="M116 48L85 85 51 57l31-37z"/><path fill="#5d3b30" d="M39 34l7-19 44 15-6 19z"/><path fill="#e1e2e5" d="M-3 219l4-115 198 7-4 115z"/><path fill="#f3f8fc" d="M21 64l-47-22L22-60l46 22z"/><path fill="#85918b" d="M81 81l69-9 2 17-69 9z"/><path fill="#c3cbcd" d="M158 19l33 85-19 7-33-85z"/><path fill="#d9e5e5" d="M69 75L57 97 32 83l12-22z"/><path fill="#f9fcff" d="M284 107l18 65-69 19-18-64z"/><path fill="#ccf8ee" d="M136 67l-35 19-1-2 35-18z"/><path fill="#a2a4a8" d="M-39 145v-1l198 3v2z"/><path fill="#929496" d="M302 147l135-3v2l-135 2z"/><path fill="#eff1f1" d="M198-81l85 105-76 62-86-105z"/><path fill="#320008" d="M137 53l-19 23-22-18 19-23z"/><path fill="#6e8b4c" d="M114-2l-6 19-21-7 7-19z"/><path fill="#a92b43" d="M115 65L95 47l4-4 20 18z"/></svg>