<svg xmlns="http://www.w3.org/2000/svg" viewBox="0 0 400 200"><path fill="#d2d2d3" d="M0 0h400v200H0z"/><path d="M143 84L43 80l3-90 100 3z"/><path fill="#2f0000" d="M37 50l39-72 73 39-39 72z"/><path fill="#f6fafd" d="M406 198H164V0h242z"/><path fill="#f8fdff" d="M-63-149l193 348-65 36-194-348z"/><path fill="#7f8986" d="M172 80l-67 41-19-31 67-40z"/><path fill="#320000" d="M111 78L89 54l26-24 23 24z"/><path fill="#f1f4f8" d="M306 177l-175 54-23-75 175-54z"/><path fill="#7c877f" d="M134 73l3 22-50 9-4-22z"/><path fill="#512c26" d="M85 52L40 42l7-36 46 9z"/><path fill="#d6d8d8" d="M310 237l-8-156 139-7 8 156z"/><path fill="#f6f9fc" d="M49 210L3 236l-51-88 46-26z"/><path fill="#d9dee0" d="M165 97L125-52l33-9 40 149z"/><path fill="#ebeef0" d="M-17 53L0 30l68 50-16 23z"/><path fill="#f1f6f9" d="M9 79l-33-18L52-77l33 18z"/><path fill="#410206" d="M140-50V52h-28V-50z"/><path fill="#9aa497" d="M126 73l24-35 10 7-24 35z"/><path fill="#31270d" d="M105 58L91 82 46 56l14-24z"/><path fill="#dddfe1" d="M98 108l122 8-7 97-122-9z"/><path fill="#a7a9aa" d="M424 81l-265 4v-1l265-5z"/><path fill="#eef0f0" d="M121-26l79-51 90 139-79 51z"/><path fill="#aec6c4" d="M-18 86v-5l134-2v4z"/><path fill="#939597" d="M302 147l110-4v2l-110 4z"/><path fill="#bcd9d0" d="M130 69l1 1-50 26-1-2z"/><path fill="#afb1b1" d="M411 17v2l-199 3v-1z"/><path fill="#6a665d" d="M143 63l5 7-43 31-5-7z"/></svg>