<svg xmlns="http://www.w3.org/2000/svg" viewBox="0 0 400 200"><style>@keyframes a{from{opacity: 0}to{opacity: 1}}g&gt;*{opacity: 0;animation: a .5s forwards}</style><path fill="#d2d2d3" d="M0 0h400v200H0z"/><g transform="translate(1 1) scale(1.5625)"><ellipse cx="59" cy="17" rx="33" ry="33" style="animation-delay:0s"/><ellipse fill="#320900" cx="64" cy="29" rx="32" ry="32" style="animation-delay:.188s"/><ellipse fill="#f6fafc" cx="219" cy="70" rx="119" ry="119" style="animation-delay:.376s"/><ellipse fill="#f1f5f8" cx="18" cy="97" rx="56" ry="56" style="animation-delay:.562s"/><ellipse fill="#421c16" cx="57" cy="20" rx="31" ry="31" style="animation-delay:.746s"/><ellipse fill="#93a0a1" cx="93" cy="52" rx="18" ry="18" style="animation-delay:.927s"/><ellipse fill="#fff" cy="20" rx="25" ry="25" style="animation-delay:1.104s"/><ellipse fill="#e8edee" cx="119" cy="21" rx="30" ry="30" style="animation-delay:1.277s"/><ellipse fill="#97a7a8" cx="63" cy="63" rx="15" ry="15" style="animation-delay:1.445s"/><ellipse fill="#f2f5f8" cx="88" cy="119" rx="26" ry="26" style="animation-delay:1.607s"/><ellipse fill="#fcffff" cx="165" cy="96" rx="27" ry="27" style="animation-delay:1.763s"/><ellipse fill="#d6d8d8" cx="255" cy="103" rx="63" ry="63" style="animation-delay:1.912s"/><ellipse fill="#78827c" cx="80" cy="55" rx="11" ry="11" style="animation-delay:2.054s"/><ellipse cx="73" cy="27" rx="7" ry="7" style="animation-delay:2.187s"/><ellipse fill="#a0a8a6" cx="97" cy="38" rx="11" ry="11" style="animation-delay:2.312s"/><ellipse fill="#7aa267" cx="62" rx="7" ry="7" style="animation-delay:2.427s"/><ellipse fill="#dcdee2" cx="109" cy="76" rx="23" ry="23" style="animation-delay:2.533s"/><ellipse fill="#e9f4f8" cx="6" rx="25" ry="25" style="animation-delay:2.629s"/><ellipse fill="#c391b7" cx="52" cy="20" rx="3" ry="3" style="animation-delay:2.714s"/><ellipse fill="#4e000b" cx="82" cy="7" rx="9" ry="9" style="animation-delay:2.789s"/><ellipse fill="#a5d1cc" cx="36" cy="47" rx="7" ry="7" style="animation-delay:2.853s"/><ellipse fill="#eef0f2" cy="54" rx="33" ry="33" style="animation-delay:2.906s"/><ellipse fill="#5f5143" cx="35" cy="20" rx="11" ry="11" style="animation-delay:2.947s"/><ellipse fill="#eff0f0" cx="148" cy="7" rx="44" ry="44" style="animation-delay:2.976s"/><ellipse fill="#ff9dce" cx="61" cy="28" rx="2" ry="2" style="animation-delay:2.994s"/></g></svg>