<svg xmlns="http://www.w3.org/2000/svg" viewBox="0 0 400 200"><style>@keyframes a{from{opacity: 0}to{opacity: 1}}g&gt;*{opacity: 0;animation: a .5s forwards}</style><path fill="#d2d2d3" d="M0 0h400v200H0z"/><g transform="translate(1 1) scale(1.5625)"><ellipse rx="1" ry="1" transform="matrix(17.38857 35.13068 -28.9384 14.32359 61 21)" style="animation-delay:0s"/><ellipse fill="#2d0000" cx="59" cy="17" rx="33" ry="33" style="animation-delay:.188s"/><ellipse fill="#f6fafd" rx="1" ry="1" transform="matrix(75.87531 -243.45007 72.8112 22.69284 178 66)" style="animation-delay:.376s"/><ellipse fill="#eff3f5" cy="108" rx="87" ry="70" style="animation-delay:.562s"/><ellipse fill="#89928f" rx="1" ry="1" transform="matrix(-4.07352 -11.13141 31.37264 -11.48076 77 57)" style="animation-delay:.746s"/><ellipse fill="#f9ffff" rx="1" ry="1" transform="matrix(-28.56382 53.72073 -14.88931 -7.91679 5 25)" style="animation-delay:.927s"/><path fill="#c2cbcc" d="M101-16L95 89l31-42-42-8z" style="animation-delay:1.104s"/><ellipse fill="#491911" cx="64" cy="20" rx="26" ry="29" style="animation-delay:1.277s"/><path fill="#fbfeff" d="M179 63l21 46-45 20-21-46z" style="animation-delay:1.445s"/><path fill="#f0f3f3" d="M77-15l49 63h60l-11-64z" style="animation-delay:1.607s"/><ellipse fill="#d7dada" rx="1" ry="1" transform="matrix(17.49747 -48.62785 32.95375 11.85755 230 94)" style="animation-delay:1.763s"/><path fill="#818981" d="M88 59l-37 3 52-36z" style="animation-delay:1.912s"/><path fill="#c3c8ca" d="M29 48v2l37 1 5 47z" style="animation-delay:2.054s"/><path fill="#3e746c" d="M28 35l10 11 7 3-21-36z" style="animation-delay:2.187s"/><path fill="#6d8253" d="M72-4l-1 15-15-1 1-15z" style="animation-delay:2.312s"/><path fill="#100000" d="M69 14l18 22-20-5 7-30z" style="animation-delay:2.427s"/><ellipse fill="#acadae" cx="177" cy="52" rx="91" ry="2" style="animation-delay:2.533s"/><path fill="#edeff2" d="M-1-16L-2 91l52-3-29-67z" style="animation-delay:2.629s"/><path fill="#a1a3a6" d="M191 92h65v3h-65z" style="animation-delay:2.714s"/><path fill="#685c54" d="M42 12l19 11-35-1 6-28z" style="animation-delay:2.789s"/><path fill="#a0a1a6" d="M4 92h135v2H4z" style="animation-delay:2.853s"/><ellipse fill="#b9bbbc" cx="182" cy="12" rx="91" ry="2" style="animation-delay:2.906s"/><path fill="#767771" d="M90 50l-41 7 21 8 20-13z" style="animation-delay:2.947s"/><path fill="#c2d1d0" d="M91 5l1 24 25 20z" style="animation-delay:2.976s"/><path fill="#b7c2c1" d="M0 51h58v3H0z" style="animation-delay:2.994s"/></g></svg>