<svg xmlns="http://www.w3.org/2000/svg" viewBox="0 0 400 200"><filter id="a"><feGaussianBlur stdDeviation="55"/></filter><path fill="#d2d2d3" d="M0 0h400v200H0z"/><g filter="url(#a)"><path d="M43 80l5-125 98 4-4 125z"/><path fill="#300000" d="M83-24l69 45-46 71-69-45z"/><path fill="#f6fafd" d="M167 0l243 4-3 198-244-4z"/><path fill="#f7fcff" d="M129 183l-76 47L-49 66l75-48z"/><path fill="#7c8884" d="M171 77l-70 42-17-28 70-42z"/><path fill="#eff2f6" d="M309 182l-187 33-13-77 186-33z"/><path fill="#380402" d="M103 19l36 34-24 26-37-34z"/><path fill="#ecf5f7" d="M146 35l-5-38 37-5 5 37z"/><path fill="#fbffff" d="M19-51l46 30-52 80-45-30z"/><path fill="#7f8c85" d="M82 99V79l56-2 1 20z"/></g></svg>