<svg xmlns="http://www.w3.org/2000/svg" viewBox="0 0 400 200"><style>@keyframes fadeIn{from{opacity: 0}to{opacity: 1}}g.animated&gt;*{opacity: 0;animation: fadeIn .5s forwards}</style><path fill="#d2d2d3" d="M0 0h400v200H0z"/><g class="animated"><path d="M49-21l97 5-6 98-96-5z" style="animation-delay:0s"/><path fill="#2e0000" d="M36 47l43-69 71 45-43 69z" style="animation-delay:.19s"/><path fill="#f6fafd" d="M164 0h261v198H164z" style="animation-delay:.38s"/><path fill="#f8fdff" d="M-56 42L17 0l100 172-73 42z" style="animation-delay:.56s"/><path fill="#7a8682" d="M85 92l65-39 17 28-66 40z" style="animation-delay:.75s"/><path fill="#eef0f4" d="M242 60l72 100-160 116-73-100z" style="animation-delay:.93s"/><path fill="#3e0000" d="M109-36h28v92h-28z" style="animation-delay:1.1s"/><path fill="#818880" d="M147 45l15 14-45 48-15-14z" style="animation-delay:1.28s"/><path fill="#e4f5f7" d="M141-8l15-2 5 42-16 1z" style="animation-delay:1.45s"/><path fill="#d5d7d8" d="M305 203l2-125 124 2-2 125z" style="animation-delay:1.61s"/><path fill="#3e180c" d="M116 48L85 85 51 57l31-37z" style="animation-delay:1.76s"/><path fill="#5d3b30" d="M39 34l7-19 44 15-6 19z" style="animation-delay:1.91s"/><path fill="#e1e2e5" d="M-3 219l4-115 198 7-4 115z" style="animation-delay:2.05s"/><path fill="#f3f8fc" d="M21 64l-47-22L22-60l46 22z" style="animation-delay:2.19s"/><path fill="#85918b" d="M81 81l69-9 2 17-69 9z" style="animation-delay:2.31s"/><path fill="#c3cbcd" d="M158 19l33 85-19 7-33-85z" style="animation-delay:2.43s"/><path fill="#d9e5e5" d="M69 75L57 97 32 83l12-22z" style="animation-delay:2.53s"/><path fill="#f9fcff" d="M284 107l18 65-69 19-18-64z" style="animation-delay:2.63s"/><path fill="#ccf8ee" d="M136 67l-35 19-1-2 35-18z" style="animation-delay:2.71s"/><path fill="#a2a4a8" d="M-39 145v-1l198 3v2z" style="animation-delay:2.79s"/><path fill="#929496" d="M302 147l135-3v2l-135 2z" style="animation-delay:2.85s"/><path fill="#eff1f1" d="M198-81l85 105-76 62-86-105z" style="animation-delay:2.91s"/><path fill="#320008" d="M137 53l-19 23-22-18 19-23z" style="animation-delay:2.95s"/><path fill="#6e8b4c" d="M114-2l-6 19-21-7 7-19z" style="animation-delay:2.98s"/><path fill="#a92b43" d="M115 65L95 47l4-4 20 18z" style="animation-delay:2.99s"/></g></svg>