<svg xmlns="http://www.w3.org/2000/svg" viewBox="0 0 400 200"><path fill="#d2d2d3" d="M0 0h400v200H0z"/><path d="M45 80l2-95 97 2-2 95z"/><path fill="#300000" d="M80-23l72 38-40 75-72-38z"/><path fill="#f6fafd" d="M421 198H165V0h256z"/><path fill="#f7fcff" d="M68 266L-106-1l84-54 174 267z"/><path fill="#7a8681" d="M167 78l-66 41-17-26 67-42z"/><path fill="#4f2e26" d="M75 57L37 46 52-5 89 6z"/><path fill="#eff2f5" d="M102 171l161-90 49 88-161 89z"/><path fill="#3f180b" d="M135 61L68 80 55 32l66-19z"/><path fill="#808b85" d="M148 93l-63 10-3-22 63-10z"/><path fill="#e9f1f3" d="M146 31l-10-51 51-9 10 50z"/><path fill="#d6d7d8" d="M401 78l2 131-96 2-3-131z"/><path fill="#f3f8fb" d="M-26 61l37-83L52-3 16 80z"/><path fill="#cdd3d5" d="M36 77l11-15 68 50-11 15z"/><path fill="#b4b9b9" d="M173 95l-42-32 16-22 42 32z"/><path fill="#44030c" d="M114-22h25l-1 77-25-1z"/><path fill="#5d5744" d="M43 35l86-14 2 8-87 14z"/><path fill="#dcdfe1" d="M221 208l-117 8-7-100 117-8z"/><path fill="#e8ffff" d="M144 54l-26 26-1-1 26-26z"/><path fill="#6d6b61" d="M113 100l-8-10 40-32 8 9z"/><path fill="#d1fffa" d="M121 75v1L93 86v-1z"/></svg>