<svg xmlns="http://www.w3.org/2000/svg" viewBox="0 0 400 200"><path fill="#d2d2d3" d="M0 0h400v200H0z"/><g fill="none"><path stroke="#000" d="M141 2Q108 103 39 33m11 25q89 47 89-51m0-9q-15 103-98 44"/><path stroke="#0f0000" d="M48 4q35-28 112 89"/><path stroke="#000" d="M43 22q48 75 102-9m-7-13q-33 95-93 50m68 51q28-92-67-80m72 89Q149 7 41 16m97-23q4 102-92 63m102-12Q72 119 43 16m-2-5q115-35 99 86M31-1q112-1 73 118M39 44q68 52 87-44m10 11q-22 70-92 21m23 46q97 10 58-81m17 18Q90 89 43 4m4 5q119-11 86 89M49 14q98-8 75 89M45 29q54-32 99 80M141-2q-96 23-35 108M57 67q106 16 78-78M122 0q-5 69-84 29m110 31Q42 101 59-9M34 19q113-16 80 92m34-44Q131-13 39 45"/></g></svg>