<svg xmlns="http://www.w3.org/2000/svg" viewBox="0 0 400 200"><path fill="#494949" d="M0 0h400v200H0z"/><g transform="translate(1 1) scale(1.5625)"><ellipse fill="#bdbdbd" cx="120" cy="57" rx="49" ry="34"/><ellipse cx="248" cy="33" rx="82" ry="30"/><ellipse cy="32" rx="49" ry="27"/><ellipse fill="#bcbcbc" rx="1" ry="1" transform="matrix(12.41328 -10.64769 38.63937 45.04653 74 35)"/><ellipse rx="1" ry="1" transform="matrix(37.2407 .28477 -.20306 26.55507 117 1)"/><ellipse fill="#919191" cx="81" cy="119" rx="42" ry="28"/><ellipse cx="252" cy="25" rx="46" ry="46"/><ellipse fill="#0a0a0a" rx="1" ry="1" transform="rotate(145 67 69) scale(33.48838 20.37488)"/><ellipse fill="#a0a0a0" rx="1" ry="1" transform="matrix(-33.82124 -12.86129 3.18079 -8.36449 218 68)"/><path fill="#ddd" d="M85 21h27v19H85z"/><ellipse rx="1" ry="1" transform="rotate(14 -126 91) scale(45.87974 18.68606)"/><ellipse fill="#a5a5a5" rx="1" ry="1" transform="matrix(4.58465 7.65328 -34.75352 20.81887 159 18)"/><path d="M115-21l29 35-25 21L90 0z"/><ellipse cx="203" cy="37" rx="45" ry="16"/><path d="M106 44h30v10h-30z"/><ellipse fill="#777" cx="202" cy="114" rx="28" ry="37"/><ellipse fill="#5c5c5c" cx="122" cy="79" rx="32" ry="14"/><path fill="#111" d="M81 89L3 76l66-17z"/><path d="M89-23l24 26-22 20L67-3z"/><ellipse fill="#898989" rx="1" ry="1" transform="matrix(46.6657 38.9855 -12.13321 14.52347 42 2)"/><path d="M48 41L7-5-16 8 1 61z"/><path fill="#bababa" d="M75 18l6 66 4 26 20-64z"/><ellipse cx="114" rx="45" ry="20"/><path d="M135 90l-34 5 79 12-3-28zm-79 53l-63-18 22 15 4-34z"/></g></svg>