<svg xmlns="http://www.w3.org/2000/svg" viewBox="0 0 400 200"><filter id="a"><feGaussianBlur stdDeviation="55"/></filter><path fill="#494949" d="M0 0h400v200H0z"/><g filter="url(#a)"><path fill="#bfbfbf" d="M84 109l16-83 152 29-16 83z"/><path d="M267 68l45-124L447-7l-45 125zM-11-24L126 99l-44 49L-55 24zm142-5l94 33-17 48-94-32z"/><path fill="#afafaf" d="M146 138L-1-58l41-31 147 196z"/><path fill="#939393" d="M143 277l-82-88 73-68 82 88z"/><path d="M220 157l59-65 28 25-59 65z"/><path fill="#a7a7a7" d="M191 50L357-50l13 23L204 73z"/><path d="M403 36l-5 55-143-13 5-54z"/><path fill="#999" d="M423 152L215 80l7-21 208 72z"/></g></svg>