<svg xmlns="http://www.w3.org/2000/svg" viewBox="0 0 400 200"><path fill="#494949" d="M0 0h400v200H0z"/><path fill="#c2c2c2" d="M108 25l141 30-18 84-141-30z"/><path d="M408 117L267 71l42-127 141 46zM-39 33L1-11l124 111-40 44zM134-8l69-49 46 67-69 48z"/><path fill="#b4b4b4" d="M180 96l-38 30L26-19l37-31z"/><path fill="#939393" d="M149 279l-86-93 71-66 86 93z"/><path d="M225 160l50-70 33 24-50 69z"/><path fill="#a4a4a4" d="M217 68l-15-25 114-69 15 26z"/><path d="M305 68l78-135L493-4l-78 135z"/><path fill="#7f7f7f" d="M316 84l72 31-40 93-72-30z"/><path d="M187-15l7 45-70 11-7-45zm-15 80l38 5-2 20-39-5zM-38 41L18-1l44 59-56 42z"/><path fill="#777" d="M7 112L3 94l114-26 4 18z"/><path d="M376 76l-119 2V32l118-2z"/><path fill="#b4b4b4" d="M230 30l37 64-20 12-37-64z"/><path d="M258 4l-73 51-22-32 73-51z"/><path fill="#d4d4d4" d="M183 54l-38 29-17-23 38-29z"/><path d="M190 158l-1-11 82-13 1 11z"/><path fill="#a6a6a6" d="M363 127l-70-27 8-19 70 27z"/><path d="M92 80L-23 66l5-38L96 42zM23 181l11-10 36 37-12 10z"/><path fill="#020202" d="M399 164l-6 9-50-35 6-9z"/><path fill="#737373" d="M238 79l10 54-75 14-10-53z"/><path fill="#b4b4b4" d="M107 79l32-12 24 61-32 13z"/><path fill="#030303" d="M130 137l-18 10-22-38 18-10z"/><path fill="#626262" d="M58 199l-35-61 52-29 34 61z"/><path fill="#535353" d="M361-16l7 16-131 58-7-15z"/><path d="M142 37L93-18l20-17 49 54z"/><path fill="gray" d="M74 42l32-37 37 33-31 37z"/><path fill="#898989" d="M281 207l-13-35 34-12 13 36z"/><path fill="#8f8f8f" d="M417 184l-13 5-23-65 14-5z"/><path d="M26 135l-6-15 30-13 6 15z"/><path fill="#2a2a2a" d="M240 119l-95 32-2-6 95-32z"/><path d="M398 60l-11 45-115-29 11-45z"/><path fill="#a1a1a1" d="M163 155l-11 26-35-15 11-26z"/><path d="M22-2l29 80-53 20-29-81zm296 206v-6l56-4v6z"/><path fill="#444" d="M164 124l-3-8 124-45 2 8z"/><path fill="#505050" d="M65 109l36-51 23 16-36 51z"/><path fill="#bdbdbd" d="M133 59l-2-23 31-3 3 23z"/><path fill="#c7c7c7" d="M202 103l-6-7 47-41 6 7z"/><path fill="#868686" d="M328 99l-86 3V90l86-3z"/><path d="M195 155l-52-9 1-6 52 9zm45-104l13-12 27 28-13 12z"/><path fill="#bbb" d="M170 137l27-2v8l-26 2z"/><path fill="#0a0a0a" d="M240 177l-16-42 44-17 16 43z"/><path fill="#2d2d2d" d="M345 191l-28-12 8-19 29 13z"/><path d="M196-52l46 65-58 41-46-66z"/><path fill="#4e4e4e" d="M332 114l5 25-55 11-5-25z"/></svg>