<svg xmlns="http://www.w3.org/2000/svg" viewBox="0 0 200 100"><path fill="#4a4a4a" d="M0 0h200v100H0z"/><path fill="#c4c4c4" d="M69 69l80-24L27-4z"/><path d="M206-15l-83 45 93 32zM-9-15l58 50-64 15zM40-5l55 30 45-32z"/><path fill="#b5b5b5" d="M98 25l58-40-42 59z"/><path fill="#969696" d="M123 113L69 64l-46 47z"/><path d="M123 27l86 34-4-67zm10 61l21-37-59 24z"/><path fill="#878787" d="M199 60l-38-18-35 73z"/><path fill="#d4d4d4" d="M57 23l15 45 15-51z"/><path d="M44-15l26 33 62-16zm-56 2l67 52-70 2zM95 47l15-11-26-2z"/><path fill="#161616" d="M61 71l-4-27L8 59z"/><path fill="#959595" d="M-15-15L53-2l19 36z"/><path d="M122 18l13 29 75-24z"/><path fill="#919191" d="M126 39l72 32-31-27z"/><path d="M149-15H72l21 42z"/><path fill="#747474" d="M108 71l-46-9 84-22z"/><path d="M54 116L17 86l-3 20z"/><path fill="#080808" d="M157 57l-23-10-20 36z"/><path fill="silver" d="M128 35l-16-18-6 29z"/><path fill="#757575" d="M41 104L6 65l98 16z"/><path fill="#080808" d="M194 75l6 16-33-28z"/><path fill="#686868" d="M151 100l-15-41 72 33z"/><path d="M182 3l34 62-77-32zM0-12l37 46L2 47z"/><path fill="#767676" d="M196-15h-51L98 38z"/><path fill="#747474" d="M14 42l-29 28 60-28z"/><path fill="#636363" d="M62 30l-8 18L31 6z"/><path d="M116 10l-47 7-23-30z"/><path fill="#141414" d="M76 65v9l24 4z"/><path fill="#afafaf" d="M103 45L59 59V39z"/><path fill="#a3a3a3" d="M216 59l-15 34-4-31z"/><path fill="#323232" d="M175 89l-11 2-13-29z"/><path fill="#343434" d="M123 46l-8-3-17 14z"/><path fill="#a4a4a4" d="M64 72l6 15 17-10z"/><path fill="#adadad" d="M88 69l33-7-15 8z"/><path fill="#131313" d="M216 93l-56 6 15 17z"/><path fill="#484848" d="M111 75l-63 41 100-21z"/><path fill="#444" d="M189 17l27 19-26-33z"/><path fill="#b7b7b7" d="M110 18l21 18-36-11z"/><path fill="#afafaf" d="M89 60l15 3 21-15z"/><path fill="#2d2d2d" d="M93 52l16 1-28 7z"/><path fill="#050505" d="M21 64L2 67l32-17z"/><path fill="#6f6f6f" d="M43 57l-21 3-2 19z"/><path fill="#858585" d="M159 70l-24 18 22 8z"/><path d="M102 44l-18-4 21-1z"/><path fill="#060606" d="M138 68l3 14-54-8z"/><path fill="#8a8a8a" d="M174 85l-8-17 23 13z"/><path fill="#080808" d="M41 63l25 6-8-13z"/><path fill="#6f6f6f" d="M6 47l31-9 20 8z"/><path fill="#1a1a1a" d="M101 71l3-10-7 1z"/><path fill="#bababa" d="M67 68l1-51 21 3z"/><path fill="#404040" d="M37 56l26 36-32-18z"/><path d="M66-1l29 25 55-37z"/><path fill="#424242" d="M166 11l-49 8 8 11z"/><path fill="#727272" d="M86 49l2-12-12-18z"/><path fill="#9a9a9a" d="M153 44l39 11-26 3z"/><path fill="#575757" d="M180 55l24 13-14 7z"/><path fill="#535353" d="M165 68l-30-10 22 26z"/><path fill="#575757" d="M113 68l35-23-10-6z"/><path d="M177 38l4-37 35 75z"/><path fill="#898989" d="M62 34L49-15 17 4z"/><path fill="#adadad" d="M90 67l6 6-10-3z"/><path fill="#8d8d8d" d="M127 42L88 56l-8-11z"/><path d="M146 68l-16-7-12 10z"/><path fill="#212121" d="M101 39l6-13-1 13z"/><path d="M47 35L-5-7l1 52zm152 48l-4 7-5-9z"/><path fill="#a3a3a3" d="M71 68l8-1 1 4z"/><path d="M132 37l61 12-8-47zm-95 79L19 82l-3 34z"/><path fill="#040404" d="M153 62l-10-11-16 1z"/><path fill="#484848" d="M156 61l27 7-19-13z"/><path fill="#242424" d="M143 79l-43-9 26 22z"/><path fill="#686868" d="M53 11l18 8L51-2z"/><path fill="#767676" d="M172 99l32-10h-30z"/><path fill="#b8b8b8" d="M83 64l-8-5 17 2z"/><path d="M93-9l27-6-28 44z"/><path fill="#141414" d="M71 72l12 3 5-9z"/><path fill="#959595" d="M131 54l-13 11-2-4z"/><path fill="#c8c8c8" d="M90 24l-4 10-6-11z"/><path fill="#646464" d="M21 84h84l31 32z"/><path fill="#575757" d="M57 46l-8-24-14-8z"/><path fill="#a0a0a0" d="M52 116l-5-23 42 17z"/><path fill="#9b9b9b" d="M116 15L96 39l-2-10z"/><path fill="#5a5a5a" d="M113 45l40-3-21-4z"/><path d="M180 96l35 20-52-5z"/><path fill="#868686" d="M56 69l30 20-26-4z"/><path fill="#515151" d="M95 40l-3-13-7 7z"/><path fill="#080808" d="M80 56l3 4 2-4zm-29 2l10 8-5-20z"/><path d="M51-9l57 8-37 19z"/><path fill="#616161" d="M11 64L-8 96l21-15z"/><path d="M141 55l14-1-1 7z"/><path fill="#505050" d="M81 69l-15-8 16 3z"/><path fill="#070707" d="M152 68l-3-4 11 5z"/><path fill="#c5c5c5" d="M72 37l-3-20 19 26z"/><path fill="#bdbdbd" d="M63 63l8 4v-8z"/></svg>