<svg xmlns="http://www.w3.org/2000/svg" viewBox="0 0 400 200"><filter id="a"><feGaussianBlur stdDeviation="12"/></filter><path fill="#494949" d="M0 0h400v200H0z"/><g filter="url(#a)" transform="translate(1 1) scale(1.5625)"><ellipse fill="#bbb" rx="1" ry="1" transform="rotate(29 -56 231) scale(53.53576 28.937)"/><ellipse rx="1" ry="1" transform="matrix(-86.44097 7.24072 -2.61176 -31.17962 251 30)"/><ellipse rx="1" ry="1" transform="rotate(-161 8 14) scale(53.17932 21.07906)"/><ellipse cx="113" cy="3" rx="42" ry="20"/><path fill="#cecece" d="M142 62l-16-35 24-11 17 35z"/><path fill="#b9b9b9" d="M106 33L91 143 64 2z"/><ellipse rx="1" ry="1" transform="matrix(-6.76129 22.11518 -59.18958 -18.09607 241 44)"/><ellipse fill="#b6b6b6" rx="1" ry="1" transform="rotate(-47 20 -47) scale(16.20516 33.65265)"/><ellipse fill="#848484" rx="1" ry="1" transform="rotate(-83 109 12) scale(25.03351 49.61173)"/><ellipse fill="#040404" rx="1" ry="1" transform="matrix(-30.00352 22.20143 -9.30544 -12.57558 165 91)"/><path fill="#9d9d9d" d="M169 51l51 5 43 46z"/><ellipse cy="30" rx="36" ry="29"/><ellipse rx="1" ry="1" transform="matrix(43.75272 -5.39573 1.50519 12.20522 117 9)"/><ellipse fill="#767676" rx="1" ry="1" transform="matrix(-6.46743 -36.19357 27.74745 -4.9582 204 114)"/><path fill="#979797" d="M186-15l25 20-101 36z"/></g></svg>