<svg xmlns="http://www.w3.org/2000/svg" viewBox="0 0 800 400"><path fill="#494949" d="M0 0h800v400H0z"/><path fill="#bebebe" d="M283 280L77-27l528 204z"/><path d="M489 117l325 116-9-281zm-500 72l206-53L-27-48zM589-48L380 98 189 14z"/><path fill="#b5b5b5" d="M380 105L605-48 461 167z"/><path fill="#969696" d="M83 448l334-59-153-128z"/><path d="M817-36L467 402l63-294z"/><path fill="#7e7e7e" d="M823 245l-237-87-37 290z"/><path fill="#d1d1d1" d="M233 80l40 228 75-238z"/><path d="M745 27L473 95l375 157zM-33-48l28 209h222zm460 168l-16 53-84-12zm-50-28L595-48 214 2z"/><path fill="#080808" d="M633 205L530 355l-153-57z"/><path fill="#9f9f9f" d="M486 170l178 7 88 78z"/><path fill="#161616" d="M248 277l-25-97-250 65z"/><path fill="#919191" d="M-48-48l337 181-94-178z"/><path d="M789 352l-112-94 100 44zM277 67L192-36l291 53zM70 442l113 6L55 330z"/><path fill="#6f6f6f" d="M464 283l94-138-328 135z"/><path fill="#707070" d="M133 230L14 292l219 156z"/><path d="M5 189l187-84L-48-8z"/><path fill="#c1c1c1" d="M436 67l75 69-81 34z"/><path d="M730-2L602 123l246 147z"/><path fill="#5e5e5e" d="M517 214l163 178 125-31z"/><path fill="#6f6f6f" d="M664 5L464 105 570-48z"/><path fill="#717171" d="M189 148L39 173l-81 110z"/><path fill="#979797" d="M261 286l141 44-163 15z"/><path d="M370 111L523-48 302-30z"/><path fill="#595959" d="M230 180L52 5l162 90z"/><path d="M342 305l3-41-37-3z"/><path fill="#909090" d="M633 298l-25 85-69-35z"/><path fill="#5c5c5c" d="M520 361l-103 87L77 317z"/><path fill="#060606" d="M336 302l237 21-53-65z"/><path fill="#1e1e1e" d="M358 173l-44-56 103 44z"/><path fill="#9f9f9f" d="M789 252l59 128-50 3z"/><path d="M595 205l32 37-116-12z"/><path fill="#353535" d="M320 242l150-44h-84z"/><path fill="#afafaf" d="M311 236l44-159-50-13z"/><path fill="#242424" d="M702 348l-66 22 9-62z"/><path fill="#8b8b8b" d="M364 152l91-22-66-41z"/><path fill="#9b9b9b" d="M486 245l-72 41-72-9z"/><path fill="#b5b5b5" d="M358 242l65 3 69-56z"/><path fill="#a2a2a2" d="M277 280l-32-169-15 112z"/><path fill="#0e0e0e" d="M648 395l138-15 63 56z"/><path d="M705 186l-188-44-22-69z"/><path fill="#0f0f0f" d="M198 255l-3-44 113 84z"/><path d="M411 30L280 70 186-45z"/><path fill="#b6b6b6" d="M361 202l75-44-22 50z"/><path fill="#7b7b7b" d="M123 177l79 12 43-31z"/><path fill="#464646" d="M486 114l-19-37 150-19z"/><path fill="#343434" d="M377 264l128 122 25-66z"/><path fill="#949494" d="M630 217l-7-44 135 41z"/><path fill="#767676" d="M695 402l-25-116 88 31z"/><path fill="#080808" d="M317 220l19 10-34 3z"/><path d="M848 95l-287 10 287 159z"/><path fill="#929292" d="M470 239h35l18-25z"/><path fill="#cdcdcd" d="M298 67l-31 50 50 97z"/><path d="M70 317l50 103-59 28z"/><path fill="#141414" d="M420 108l-31 69 38-22z"/><path d="M152 139L-11-48v237z"/><path fill="#a4a4a4" d="M392 145l75-78-87 28z"/><path d="M598 258l41 19-31-4z"/><path fill="#313131" d="M467 173l38-6-75 47z"/><path fill="#0b0b0b" d="M239 248l-34 10 9-97z"/><path fill="#181818" d="M380 252l9 15 56-19z"/><path fill="#0c0c0c" d="M139 192l-62 66-69 9z"/><path d="M542-14L233-42 373 98z"/><path fill="#a1a1a1" d="M505 170l22 22-72 25z"/><path fill="#878787" d="M277 83l-72 56-41-187z"/><path d="M783 352l-31-25h43z"/><path fill="#afafaf" d="M270 236h128l-59 19z"/><path fill="#575757" d="M298 267l32-9-88-25z"/><path fill="#8e8e8e" d="M333 358l-56 9-22-122z"/><path fill="#424242" d="M123 230l104-60-104 157z"/><path fill="#7a7a7a" d="M123 270l-37-31-9 88z"/><path fill="#393939" d="M752 11l3 56 93 72z"/><path fill="#5c5c5c" d="M498 158l138 12-44 44z"/><path fill="#656565" d="M642 292l-50 60-44-75z"/><path fill="#0a0a0a" d="M333 302l-44-16 53-13z"/><path fill="#a5a5a5" d="M173 370l144 57-87 15z"/><path fill="#505050" d="M733 223l-10 60 85-13z"/><path fill="#898989" d="M636 170l134 53-100 10z"/><path d="M408 280l-72 22 106-4z"/><path fill="#595959" d="M286 70l-81-34 21-16z"/><path fill="#616161" d="M448 133l-21 19-29-25z"/><path d="M508 105l159 34-150 13z"/><path fill="#141414" d="M686 270l31-6v38z"/><path fill="#4b4b4b" d="M89 352L30 227l-78 187z"/><path fill="#343434" d="M658 223l19 22-57 3z"/><path fill="#5e5e5e" d="M417 327l-12 121-91-153z"/><path d="M130 83l-175 3 259 78z"/><path fill="#666" d="M245 270L92 358l81 28z"/><path fill="#bdbdbd" d="M295 211l72-6-134-47z"/><path fill="#bababa" d="M339 67h-44l44 60z"/><path fill="#2e2e2e" d="M736-23l-84 81-110 22z"/><path fill="#aeaeae" d="M342 270l3 16 47-9z"/><path fill="#646464" d="M139 152l-156 43h162z"/><path fill="#666" d="M305 77l18 37-9 13z"/></svg>