<svg xmlns="http://www.w3.org/2000/svg" viewBox="0 0 400 200"><path fill="#494949" d="M0 0h400v200H0z"/><path fill="#c4c4c4" d="M121 133l-12-89 134-19 12 89z"/><path d="M418 124L274 72l50-138 144 52zM250 7l-69 52-48-64 69-52zM18 106l-60-84 61-42 59 84z"/><path fill="#bbb" d="M144 101L12-10l30-36L174 65z"/><path fill="#9a9a9a" d="M181 177l-77 64-42-50 76-65z"/><path d="M422 102L254 76l7-45 168 26zm-150-7l33 24-50 69-33-24z"/><path fill="#818181" d="M350 199l-68-23 32-92 68 23z"/><path fill="#919191" d="M255 51l-19-31 89-53 18 30z"/><path d="M209 44L106 24l8-41L217 3zm3 25l-1 19-40-3 1-18zM-13 94l-10-51L80 23l10 51zm380 10l-60-21 33-98 61 21z"/><path fill="#090909" d="M92 152l-19-36 36-19 19 36z"/><path fill="#c3c3c3" d="M116 109l29-79 37 13-29 79z"/><path fill="#6f6f6f" d="M176 151l-13-30 103-46 13 30z"/><path fill="#ababab" d="M300 100l7-16 63 27-7 16z"/><path fill="#787878" d="M-41 136l-8-21L68 75l7 21z"/><path d="M289-19L184 55l-24-35 105-73z"/></svg>