<svg xmlns="http://www.w3.org/2000/svg" viewBox="0 0 400 200"><style>@keyframes fadeIn{from{opacity: 0}to{opacity: 1}}g.animated&gt;*{opacity: 0;animation: fadeIn .5s forwards}</style><path fill="#494949" d="M0 0h400v200H0z"/><g fill="none" class="animated"><path stroke="#fff" d="M245 54q-84 98-134-6" style="animation-delay:0s"/><path stroke="#dbdbdb" d="M34-5q200 57 59 205" style="animation-delay:.19s"/><path stroke="#fefefe" d="M132 141Q151 9 251 72" style="animation-delay:.38s"/><path stroke="#cacaca" d="M372 110Q90 44 28-9" style="animation-delay:.56s"/><path stroke="#e3e3e3" d="M125 158Q199 28-1-8" style="animation-delay:.75s"/><path stroke="#eee" d="M60-24q106 171 188 87" style="animation-delay:.93s"/><path stroke="#ececec" d="M103 42q21 134 160 46" style="animation-delay:1.1s"/><path stroke="#cecece" d="M69 26q201 63 286 93" style="animation-delay:1.28s"/><path stroke="#dbdbdb" d="M281-4Q142 127 74 3" style="animation-delay:1.45s"/><path stroke="#e0e0e0" d="M33-7q179 51 93 174" style="animation-delay:1.61s"/><path stroke="#fff" d="M239 56q-74 105-136-13" style="animation-delay:1.76s"/><path stroke="#ededed" d="M254 67q-110 83-145-36" style="animation-delay:1.91s"/><path stroke="#f7f7f7" d="M132 131q19-119 124-54" style="animation-delay:2.05s"/><path stroke="#bbb" d="M417 130Q40 12-2-15" style="animation-delay:2.19s"/><path stroke="#f6f6f6" d="M244 62q-124-47-114 71" style="animation-delay:2.31s"/><path stroke="#f7f7f7" d="M172 40q-69 5-24 131" style="animation-delay:2.43s"/><path stroke="#d0d0d0" d="M53 2q146 22 84 186" style="animation-delay:2.53s"/><path stroke="#fafafa" d="M109 76q74 64 127-20" style="animation-delay:2.63s"/><path stroke="#e2e2e2" d="M-8-11q187 31 150 143" style="animation-delay:2.71s"/><path stroke="#d3d3d3" d="M131 173Q209 27 48-3" style="animation-delay:2.79s"/><path stroke="#c7c7c7" d="M161 211Q73 94 285 2" style="animation-delay:2.85s"/><path stroke="#dadada" d="M158 178Q88 46 229 47" style="animation-delay:2.91s"/><path stroke="#fff" d="M169 128q-79-29-18-92" style="animation-delay:2.95s"/><path stroke="#eee" d="M243 72q-122-48-124 40" style="animation-delay:2.98s"/><path stroke="#cdcdcd" d="M53 10q160 112 225-34" style="animation-delay:2.99s"/></g></svg>