<svg xmlns="http://www.w3.org/2000/svg" viewBox="0 0 400 200"><path fill="#494949" d="M0 0h400v200H0z"/><path fill="#c5c5c5" d="M251 54l-15 75-147-28 14-75z"/><path d="M408 119L272 73l47-138 136 47zM-66 19l44-50L123 95l-44 50zm250 39L143 7l81-64 41 52z"/><path fill="#b6b6b6" d="M153 235l-44-5 21-197 44 4z"/><path fill="#b2b2b2" d="M96 53L2-18l26-33 93 70z"/><path d="M221 157l55-63 30 25-56 64zm179-50L256 73l11-50 145 33z"/><path fill="#a0a0a0" d="M220 70l-17-28 116-70 17 29z"/><path d="M126 41l-13-58 94-22 13 58z"/></svg>