<svg xmlns="http://www.w3.org/2000/svg" viewBox="0 0 400 200"><path fill="#494949" d="M0 0h400v200H0z"/><path fill="#c4c4c4" d="M252 35l5 90-139 8-5-91z"/><path d="M270 71l33-97 148 50-34 98zM77 57l-57 49-64-74 56-49zm60-100l94 50-26 50-94-50z"/><path fill="#bebebe" d="M141 122L40-3l36-30L177 92z"/><path fill="#979797" d="M120 254l-54-56 75-73 54 57z"/><path d="M218 154l58-63 30 28-59 63z"/><path fill="#949494" d="M194 48L363-54l16 27L210 74z"/><path d="M451 73l-24 56-142-60 24-56z"/><path fill="#b6b6b6" d="M363 130l-67-29 8-20 68 29z"/><path d="M155 12l78-53 29 43-78 53zM92 84L0 76l4-46 92 8zm75-15h42v17h-42z"/><path fill="#7f7f7f" d="M263 183l59-64 39 37-60 64z"/><path d="M257 29l54 38-17 24-54-38z"/><path fill="#d5d5d5" d="M174 36l-1 31-39-1 1-31z"/><path d="M126 132l-32 18-16-27 33-19zm49-95l-63-17 15-56 63 17zm230 87L305 64l54-90 100 60z"/><path fill="#666" d="M262 70l16 30-94 50-16-30z"/><path d="M-3-33l64 89L4 97-60 9zm37 201l28 34-16 13-28-34z"/><path fill="#787878" d="M-28 129l-7-19L71 76l6 19z"/><path d="M145 149v-8l137 12-1 8zM69 99l5 10-51 25-5-10z"/><path fill="#757575" d="M-10-43L125 66l-11 13L-20-30z"/><path fill="#727272" d="M20 146l26-27 54 52-26 27z"/><path fill="#4f4f4f" d="M355-3l4 13-124 45-5-13z"/><path fill="#7c7c7c" d="M399 161l-48-32 17-26 48 32z"/><path fill="#dedede" d="M242 56l4 5-40 35-4-5z"/><path d="M161 16l73-51 26 37-73 51z"/><path fill="#a0a0a0" d="M242 122l2 7-66 16-1-6z"/><path d="M259 176l-23-39 26-15 22 39z"/><path fill="#767676" d="M312 107l-75-9 3-22 74 9z"/><path fill="#b6b6b6" d="M188 51l40-22 4 9-39 22z"/><path fill="#030303" d="M365 146l10-7 24 32-10 8z"/><path fill="#979797" d="M279-11l8 10-84 61-7-10z"/><path fill="#a1a1a1" d="M130 141l36 16-10 23-36-16z"/><path d="M344 92l-89-20 6-25 88 21z"/><path fill="#bababa" d="M267 87l2 6-84 34-2-6z"/><path fill="#2c2c2c" d="M196 136l-2-6 86-36 3 5z"/><path d="M107-4l21-19 36 41-22 19z"/><path fill="#767676" d="M345 156l31-2 2 39-31 2z"/><path fill="#b2b2b2" d="M403 142l-3 46-4-1 2-45z"/><path fill="#313131" d="M313 185l11-28 17 7-10 27z"/><path fill="#292929" d="M227 95l2 4-51 20-2-4z"/><path d="M84 74l-49 9-5-25 50-8z"/><path fill="#b8b8b8" d="M258 71l-10 12-42-37 10-12z"/><path fill="#bcbcbc" d="M166 68l-15 54-35-10 16-54z"/><path d="M345 208l-2-6 32-12 2 6z"/><path fill="#8f8f8f" d="M280 175l26-22 15 18-26 22z"/><path d="M267 101l42 6-3 16-41-7z"/><path fill="#5f5f5f" d="M232 194l-43 51-48-40 43-51z"/><path fill="#757575" d="M299 129l-3 7-25-10 3-7z"/><path d="M210 71l3 11-28 8-3-11z"/><path fill="#404040" d="M386 12l35 28-15 18-35-28z"/><path d="M369 106l-41-87 36-18 41 88z"/><path fill="gray" d="M118 95l-38-1 1-12h37z"/><path fill="#191919" d="M70 98l42-3 1 12-42 3z"/><path fill="#737373" d="M159 129V60h14v69z"/><path d="M1 95l-23-58 54-21 23 58z"/><path fill="#2f2f2f" d="M223 152l47 2-1 30-47-2z"/><path d="M306 37l8 18-52 22-8-18z"/><path fill="#2c2c2c" d="M169 122l-20-10 2-4 20 9z"/><path fill="#5f5f5f" d="M127 139l1 46-78 2-2-45z"/><path d="M370 156l-24-18 4-5 24 18z"/><path fill="#f3f3f3" d="M142 137l-13-9 3-4 12 9z"/><path d="M40 178l31 31-13 12-30-31z"/><path fill="#767676" d="M139 36l-9 9L88 3l8-9z"/><path d="M213-14l2 44-79 4-3-44z"/><path fill="#727272" d="M313 186l115-10 1 8-115 10z"/><path d="M181 157l-2-11 36-5 1 11z"/><path fill="#080808" d="M214 56l1 1-15 23-1-1z"/><path d="M186 33l-3 26h-2l3-26z"/><path fill="#b6b6b6" d="M144 51l2-19 24 3-2 19z"/><path d="M304 131l11 9-2 2-11-9z"/><path fill="#323232" d="M258 121l-35 27-4-5 35-27z"/><path fill="#acacac" d="M171 136l18-3 1 8-18 2z"/><path d="M107 87L51 58l3-5 56 28z"/><path fill="#0c0c0c" d="M100 104l32 32-8 8-32-32z"/><path fill="#575757" d="M173 60l26 10-4 12-27-10z"/><path fill="#b5b5b5" d="M193 125l-36 3-1-7 36-4z"/><path fill="#a8a8a8" d="M129 211l-40-17 2-6 41 17z"/><path fill="#676767" d="M311 107l41 15-8 23-41-15z"/><path fill="#6b6b6b" d="M178 99h-1l-25-55 1-1z"/><path fill="#aaa" d="M47 142l2-8 12 4-2 7z"/><path fill="#2c2c2c" d="M251 84l-37 25-1-1 37-25z"/><path fill="#939393" d="M137 52l-17 16-80-80 16-17z"/><path fill="#080808" d="M202 131l-46 7v-1l46-8z"/><path fill="#a0a0a0" d="M214 97l-62 18-2-8 62-17z"/><path d="M230-40l28 39-74 52-28-39z"/><path fill="#373737" d="M63 148l5-50 27 3-5 50z"/><path fill="#7d7d7d" d="M358 174l-37-26 10-14 37 26z"/><path d="M261 157l-22-15 17-26 22 15z"/><path fill="#353535" d="M291 192l-41-6 1-7 41 5z"/><path fill="#afafaf" d="M215 128l5 7-12 7-4-6z"/><path d="M69 75L-60-38l11-13L81 62z"/><path fill="#7d7d7d" d="M100 154l12-14 46 35-12 15z"/><path fill="#2f2f2f" d="M358 182l-29-6 2-9 29 5z"/><path d="M343 22l21 38-52 29-21-38zM40 119l-2 14-17-3 2-14z"/><path fill="#0e0e0e" d="M168 81l1-6 37 8-2 6z"/><path fill="#1b1b1b" d="M448 186v8l-172 18-1-8z"/><path fill="#4f4f4f" d="M44 137l-17 56-42-12 18-57z"/><path fill="#999" d="M112 92l23-5 4 16-23 6z"/><path fill="#737373" d="M266 35l-51 11-1-8 50-10z"/><path fill="#535353" d="M77 37l37 48-5 4-37-48zm291 75l5 2-15 44-4-1z"/><path fill="#6b6b6b" d="M315 97l-50 3V89l50-3z"/><path fill="#646464" d="M277 150l11-19 37 24-12 18z"/><path fill="#bfbfbf" d="M200 73l-14-17 3-2 14 17z"/><path fill="#515151" d="M144 123l17 8-3 7-17-8z"/><path fill="#989898" d="M247 209l57-21 1 1-57 22z"/><path fill="#999" d="M311 91l54 24-5 11-54-24z"/><path fill="#818181" d="M20 2l5-10L60 9l-5 10z"/><path fill="#cdcdcd" d="M137 37l9-2 9 45-9 2z"/><path fill="#b2b2b2" d="M181 92l-59-30 2-3 58 30z"/><path fill="#5f5f5f" d="M198 196l-3 11-157-36 3-11z"/><path fill="#161616" d="M218 103l1 1-26 11-1-2z"/><path fill="#b0b0b0" d="M193 96l40-28 4 7-40 27z"/><path d="M173 150l-8 1-2-15 8-1z"/><path fill="#7b7b7b" d="M265 109l-48 31-2-4 47-31z"/><path fill="#949494" d="M357 100l85 53-1 1-85-52z"/><path fill="#4e4e4e" d="M197 106l-24 15-2-3 23-16z"/><path fill="#5b5b5b" d="M380 144l-2 3-128-71 2-3z"/><path fill="#949494" d="M273 182l-3-6 18-10 3 7z"/><path fill="#787878" d="M-45 113l91-32 1 2-92 31z"/><path d="M375 164l5-6 15 14-5 6z"/><path fill="#2e2e2e" d="M192 129l-1-2 38-4v2z"/><path fill="#8f8f8f" d="M253 88l6 11-54 30-6-11z"/><path fill="#828282" d="M178 148l-2-11 14-2 1 11z"/><path fill="#c8c8c8" d="M74 194l8 4-4 7-8-5z"/><path fill="#646464" d="M289 29L273-5l46-22 16 33z"/><path d="M456 106l-33 38-80-70 33-38zM207 43l-16-16 32-30 15 15z"/><path fill="#8d8d8d" d="M342 194l9-10 6 5-9 10z"/><path fill="#c6c6c6" d="M133 83l31 15-5 8-30-15z"/><path d="M326 154h1l-4 15h-2z"/><path fill="#656565" d="M-6 169l28-39 8 6-29 39z"/><path fill="#a6a6a6" d="M154 162l-19-4 4-12 18 4z"/><path fill="#8b8b8b" d="M258 97l-21-20 7-6 20 19z"/><path d="M162 12l-25 20-35-42 26-21z"/><path fill="#2a2a2a" d="M40 112l-1-4 28-12 2 4z"/><path d="M351 203l1-9 20 2-1 9z"/><path fill="#555" d="M371 191l-5-1 12-51 4 1z"/><path fill="#cbcbcb" d="M228 50l15 24-4 2-15-23z"/><path fill="#5d5d5d" d="M175 98l-1 1-22-8 1-1z"/><path fill="#444" d="M212 61l3 16-7 1-2-16z"/><path fill="#8e8e8e" d="M257 76l-2 2-20-30 3-2z"/><path fill="#0a0a0a" d="M112 97l7 41-8 1-6-41z"/><path fill="#717171" d="M44 148l19 39-8 4-20-39z"/><path d="M51 32l14 44L3 94l-13-43z"/><path fill="#171717" d="M139 144l1-5 54 13-1 4z"/><path fill="#232323" d="M22 117l2 1-23 32-1-1z"/><path fill="#353535" d="M373 13l11-3 7 29-11 3z"/><path fill="gray" d="M190 101l34-13 3 9-33 13z"/><path fill="#b0b0b0" d="M141 134l1-1 16 6-1 1z"/><path fill="#707070" d="M165 150l27 15-12 21-27-15z"/><path fill="#3b3b3b" d="M238 110l39-16 2 4-39 16z"/><path fill="#cecece" d="M133 107l31 18-1 1-31-18z"/><path fill="#333" d="M239 150l4 14-31 7-3-14z"/><path fill="#c2c2c2" d="M207 112l-1 7-11-1 1-8z"/><path fill="#414141" d="M325 26l-20 8-7-17 20-9z"/><path fill="#454545" d="M334 202l-23 9-6-14 23-10z"/><path fill="#525252" d="M112 182l-54-35 6-9 54 35z"/><path fill="#8a8a8a" d="M323 98l3-9 22 9-4 8z"/><path fill="#5d5d5d" d="M151 33l7 19-1 1-7-19z"/><path d="M306 109l1 5-21 6-1-4z"/><path fill="#313131" d="M85 55l-3 4-56-47 3-4z"/><path d="M270 71l-8 5-11-17 8-5z"/><path fill="#3a3a3a" d="M318 122l5-9 14 7-5 10z"/><path fill="#949494" d="M100 83l3 4-14 7-2-4z"/><path fill="#4f4f4f" d="M388 170l-1-25 5-1 1 26z"/><path fill="#515151" d="M325 140l-55-22 1-3 55 22z"/><path fill="#b8b8b8" d="M166 62l2-17 11 1-2 17z"/><path fill="#595959" d="M368 168l20 26-11 8-20-25z"/><path fill="#323232" d="M218 72l-1-1 10-7 1 1z"/><path fill="#9f9f9f" d="M237 34l-41 28-7-9 42-28z"/><path fill="#444" d="M256 42l-15 12-5-6 15-12z"/><path fill="#5d5d5d" d="M187 212l-24-11 20-46 25 11z"/><path fill="#0c0c0c" d="M371 161l-8-15 5-3 8 16z"/><path d="M207 154l75-23v1l-75 23z"/><path fill="#3e3e3e" d="M362 116l10-4 5 11-10 4z"/><path fill="#575757" d="M309 141l8-8 29 28-8 8z"/><path fill="#5f5f5f" d="M153 51h1l7 12-1 1z"/><path fill="#595959" d="M262 93l3-17 31 5-3 17z"/><path fill="#626262" d="M82 74l5 18-36 10-5-18z"/><path fill="#aaa" d="M175 136l4 3-6 8-3-3z"/><path d="M160 114l8 4-1 1-8-4z"/><path fill="#6f6f6f" d="M200 79l-21-8 4-11 21 9z"/><path fill="#7f7f7f" d="M290 90l8-7 29 28-8 8z"/><path fill="#666" d="M30 12l4-5 75 45-4 5z"/><path fill="#5d5d5d" d="M145 140l-31 5-1-5 31-5z"/><path fill="#242424" d="M186 127l14-1v8l-14 1z"/><path fill="#707070" d="M376 178l39 8-2 9-39-8z"/><path fill="#010101" d="M70 109l-10 3-3-10 10-3z"/><path fill="#0b0b0b" d="M429 49l-86-65 23-31 86 65z"/><path fill="#848484" d="M398 131l9 2-6 26-9-3z"/><path fill="#767676" d="M129 26l12 11-6 7-12-10z"/><path fill="#323232" d="M305 108l-27-7v-1l27 7z"/><path fill="#363636" d="M33 162l9 7-23 27-9-7z"/><path fill="#d4d4d4" d="M229 71l-10 10-3-3 10-10z"/><path d="M47 50l13-13 29 30-13 13zm298 155l-1-1 35-14v2z"/><path fill="#363636" d="M244 51l64-32 3 7-64 32z"/><path d="M358 133l-7 9-1-1 7-9zm30 17l-4 24h-5l4-25z"/><path fill="#737373" d="M135 76l2-1 10 13-1 1z"/><path fill="#646464" d="M130 115l2 9-10 3-3-9z"/><path fill="#414141" d="M285 195l-12 2-3-15 12-3z"/><path fill="gray" d="M328 145l4-6 42 27-4 6z"/><path fill="#737373" d="M335 123v8l-31 1v-8z"/><path fill="#848484" d="M12 104l3 3-25 19-3-4z"/><path fill="#474747" d="M41 101l6-7 11 10-7 7z"/><path fill="#b8b8b8" d="M156 55l20-16 1 1-20 17z"/><path fill="#2c2c2c" d="M156 110l9 2-1 7-9-1z"/><path fill="#d7d7d7" d="M398 173h1l2 5-2 1z"/><path fill="#d8d8d8" d="M168 53l-4 2-8-15 4-3z"/><path fill="#969696" d="M302 190l-12-6 3-7 13 6z"/><path fill="#454545" d="M248 120l5 4-18 17-5-4z"/><path fill="#b6b6b6" d="M193 64l-7-10 10-7 7 10z"/><path fill="#010101" d="M206 76l2 5-15 7-3-5z"/><path fill="#8a8a8a" d="M71 94l-7 1-2-9 7-2z"/><path d="M309 50l44-40 46 51-44 40z"/><path fill="#343434" d="M117 140l-33 6-2-12 32-7z"/><path fill="#939393" d="M224 130l28-19 1 1-28 20z"/><path d="M274 57l39 8-5 20-38-8z"/><path fill="#4c4c4c" d="M42 156l35-22 8 12-36 22z"/><path fill="#010101" d="M60 83l-1 1-27-44 1-1z"/><path fill="#7c7c7c" d="M358 143l1-4 6 1v4zM190 98l-17 3-2-12 17-4z"/><path fill="#040404" d="M64 218l-35-24 9-13 35 24z"/><path fill="#575757" d="M88 109l2 4-42 17-2-4z"/><path fill="#929292" d="M126 117l-9 1-4-52 9-1z"/><path fill="#181818" d="M100 122l29 8-3 9-28-8z"/><path fill="#939393" d="M81 147l1-1 5 15-2 1z"/><path d="M184 57l-1-1 16-46 1 1z"/><path fill="#b5b5b5" d="M203 93l1 1-31 12v-2z"/><path fill="#585858" d="M266 120l1-3 28 14-1 3z"/><path fill="#494949" d="M352 99l6 5-2 2-6-5z"/><path fill="#7a7a7a" d="M330 210l-1-21h5l1 20z"/><path fill="#8b8b8b" d="M39 160l7-19 1 1-7 19z"/><path fill="#494949" d="M101 0l1-1 18 15-1 1z"/><path fill="#090909" d="M258 73l-7-19 37-13 6 19z"/><path fill="#505050" d="M186 61l2 16-16 1-2-15z"/><path d="M190 18l-48 17-9-23 49-18z"/><path fill="silver" d="M139 65l16-9 11 21-17 9z"/><path fill="#999" d="M221 77l21-7 4 14-21 7z"/><path fill="#404040" d="M3 222l-11-36 35-10 10 36z"/><path d="M-11-5l24-8 12 32-24 9z"/><path fill="#c3c3c3" d="M132 136l-3-5 9-6 3 5z"/><path fill="#060606" d="M267 163l-4-58h3l4 57z"/><path fill="#7b7b7b" d="M75-5l10-10 33 34-10 10z"/><path fill="#5d5d5d" d="M114 69l-5 11-9-3 5-12z"/><path fill="#4f4f4f" d="M181 107l7-4 1 1-7 4z"/><path fill="#888" d="M156 115l-11-2 1-7 11 1z"/><path fill="#848484" d="M278-7l8 11-56 39-8-11z"/><path fill="#3a3a3a" d="M60 133l9-14 38 24-9 15z"/><path fill="#434343" d="M69 194l1 1-22 10v-1z"/><path fill="#afafaf" d="M350 101l-1 5-10-3 1-4z"/><path fill="#aeaeae" d="M212 53l12-7 7 12-13 7z"/><path fill="#121212" d="M5 103v1l-8 4-1-1z"/><path fill="#8a8a8a" d="M109 161l6-7 18 15-6 7z"/><path fill="#0a0a0a" d="M189 153l11-15 9 7-11 15z"/><path fill="#757575" d="M177 94l17-9 2 4-16 9z"/><path d="M279-35l11 16-105 71-11-16z"/><path fill="#6c6c6c" d="M277 85l1 2-70 42v-2z"/><path fill="#9e9e9e" d="M38-32l1-1 134 144-1 1z"/><path fill="#404040" d="M176 122v2l-6-1v-1z"/><path fill="#a1a1a1" d="M262 87l-59 35-1-1 59-35z"/><path fill="#242424" d="M316 25l40-30 5 6-40 30z"/><path fill="#555" d="M367 143l-5-4 19-30 6 3z"/><path fill="#1f1f1f" d="M322 172h-2v-20h2z"/><path fill="#464646" d="M97 94l4 18-9 2-4-18z"/><path fill="#101010" d="M345 179l-1-1 6-5 1 1z"/><path fill="#272727" d="M210 131l-1-1 20-10 1 2z"/><path fill="#1c1c1c" d="M210 147l22-12v1l-21 12z"/><path fill="#979797" d="M388 117l10 7-3 4-10-7z"/><path fill="#3e3e3e" d="M195 82l-1-1 19-24 1 1z"/><path fill="#353535" d="M74 75l17 2-1 9-17-2z"/><path fill="#5e5e5e" d="M326 111l52 29-3 4-51-30z"/><path fill="#6e6e6e" d="M258 75l1 2-34 21-1-1z"/><path fill="#8d8d8d" d="M117 65L97 48l15-18 20 17z"/><path fill="#797979" d="M312 179l-36-3 1-16 36 3z"/><path fill="#c1c1c1" d="M153 78l-6-1 2-43h6z"/><path fill="#080808" d="M372 156l-7-16h2l7 15z"/><path fill="#444" d="M44 119h1l-31 86-1-1z"/><path fill="#535353" d="M301 95l-1-4 13-4 1 5z"/><path fill="#5f5f5f" d="M387 165l2-6 4 2-2 6z"/><path fill="#a4a4a4" d="M316 105l-6-7 10-8 6 7z"/><path fill="#1e1e1e" d="M250 146l27 12-10 23-27-13z"/><path fill="#afafaf" d="M199 133l1-2 12 4-1 1z"/><path fill="#6f6f6f" d="M274 31l-4-5 55-40 3 5z"/><path fill="#3c3c3c" d="M176 154v-1l53 7v2z"/><path fill="#191919" d="M-4 136l1-1 9 12-1 1z"/><path fill="#353535" d="M231 180l1-17 33 2-1 17z"/><path d="M198 8l14 30-12 5-14-29z"/><path fill="#b6b6b6" d="M199 119v1l-25 4v-2z"/><path fill="#616161" d="M159 141l-13 3-1-2 14-3z"/><path d="M303 120l-5-11 4-2 5 11z"/><path fill="#080808" d="M122 130l-1 1-17-32h2z"/><path fill="#767676" d="M209 143l-1-1 19-12 1 2z"/><path fill="#a9a9a9" d="M144 155l-4 4-11-9 4-5z"/><path fill="#525252" d="M67 105l12-24 6 3-13 24z"/><path fill="#030303" d="M230 139h42v8l-42-1z"/><path fill="#646464" d="M189 127l-3 20h-2l4-20z"/><path fill="#303030" d="M141 128l1-2 6 4v2z"/><path fill="#010101" d="M310 139l-14-10 1-1 14 10z"/><path fill="#303030" d="M372 32l8-11 34 27-9 11z"/><path fill="#696969" d="M51 173h34v15H51z"/><path fill="#474747" d="M284 143l12-22 6 3-12 22z"/><path fill="#838383" d="M215 53l-19 21-3-3 18-21z"/><path fill="#8b8b8b" d="M161 125v-1l30 3-1 1z"/><path fill="#363636" d="M112 93l-1 1-6-17h2z"/><path d="M385 168h9l1 9-9 1z"/><path fill="#242424" d="M221 101l21-11 1 1-21 11z"/><path d="M325 48l63 31-14 28-63-31zm-66 31l-2-6 48-16 2 6z"/><path fill="#2d2d2d" d="M333 162l-5 19h-3l5-20z"/><path fill="#010101" d="M473-50L290 56l-2-4L471-54z"/><path d="M396 197l6-4 1 2-7 4z"/><path fill="#b4b4b4" d="M178 141l7-4 1 2-7 4z"/><path fill="#727272" d="M376 158v6l-41 2v-6z"/><path fill="#e5e5e5" d="M134 109l10 7-1 2-10-8z"/><path fill="#5d5d5d" d="M385 174l-74 16v-3l73-16z"/><path fill="#868686" d="M395 180h-2l11-21h1z"/><path fill="#757575" d="M99 51l21 23-8 8-21-23z"/><path fill="#8a8a8a" d="M116 84l36 29-1 2-36-30z"/><path fill="#0b0b0b" d="M29 118l37-8v1l-36 9z"/><path fill="#898989" d="M157 132h-1l-9-18 2-1z"/><path fill="#3d3d3d" d="M64 34l-1 2L22 8l1-2z"/><path fill="#090909" d="M258 142l9-6 17 23-8 7z"/><path fill="#747474" d="M-2 121l4-2 5 8-4 3z"/><path fill="#7f7f7f" d="M370 111l8-4 3 5-8 5z"/><path fill="#707070" d="M301 167l-21-14 5-6 21 14z"/><path fill="#646464" d="M256 41l-33-1v-5l33 1z"/><path fill="#5b5b5b" d="M364 189l19-58 2 1-20 57z"/><path fill="#282828" d="M209 103l5-3 1 2-6 2z"/><path fill="#969696" d="M134 34l-1 4-28-4 1-5z"/><path fill="#555" d="M313 188l25-38 1 1-25 38z"/><path fill="#303030" d="M184 111l1 2-11 5-1-1z"/><path fill="#686868" d="M302 101l-34-4v-6l35 4z"/><path fill="#b8b8b8" d="M167 95l1 5-12 3-1-4z"/><path d="M293 110l-5 12-11-5 5-12z"/><path fill="#c8c8c8" d="M236 57l1 1-25 30-1-1z"/><path fill="#929292" d="M58 133l-1 8-8-1 2-8z"/><path fill="#b9b9b9" d="M124 63l13 23-6 3-13-23z"/><path fill="#4f4f4f" d="M223 196v-14l59 1v14z"/><path fill="#434343" d="M269 105l-4-24h2l4 24z"/><path fill="#9f9f9f" d="M168 115l-3-15 6-1 3 15z"/><path fill="#999" d="M160 124l-1 2-42-11v-2z"/><path fill="#858585" d="M262 209l39-23 1 3-39 23z"/><path fill="#949494" d="M136 134l20 4v2l-20-5z"/><path fill="#3d3d3d" d="M163 61l2 4-1 1-2-5z"/><path fill="#0e0e0e" d="M173 84v-2l6-2v2z"/><path fill="#9a9a9a" d="M97 196l29-1 1 5-30 1z"/><path fill="#313131" d="M15 101l10 1-1 5-9-1z"/><path fill="#0f0f0f" d="M326 196v2l-6 4-1-1z"/><path fill="#131313" d="M176 131v-2l6 1v2z"/><path fill="#666" d="M233 89l35-14 1 3-35 14z"/><path fill="#616161" d="M169 183l36 3-1 17-36-3z"/><path fill="#222" d="M260 116l29 21-1 1-29-20z"/><path fill="#575757" d="M134 135v1l-35 18v-1z"/><path fill="#585858" d="M349 119l1 1-32 22-1-1z"/><path fill="#292929" d="M25 170l6-6 14 15-5 5z"/><path fill="#757575" d="M358 126l-11 9-3-4 11-8z"/><path fill="#444" d="M253 158l-47 25-1-2 47-25z"/><path fill="#545454" d="M3 172l22-33 14 9-21 33z"/><path d="M248 138l-1-1 19-26 2 1z"/><path fill="silver" d="M171 66l-5 1-4-19 5-1z"/><path fill="#878787" d="M307 182l-35-2 1-11 34 2z"/><path fill="#575757" d="M311 87v-1l17 3v2z"/><path d="M176 86v-2l28-3v2zm8-39l-9-28 27-8 9 28z"/><path fill="#9a9a9a" d="M37 154l11-17 1 1-11 17z"/><path fill="#717171" d="M160 208l-62-16v-1l62 15z"/><path fill="#747474" d="M206 87l-1-2 13-11 1 1z"/><path fill="#969696" d="M168 38h6v11h-6z"/><path fill="#858585" d="M131 139l40 25-1 1-39-24z"/><path fill="#555" d="M352 205l-2 1-19-34 2-1z"/><path fill="#3f3f3f" d="M82 195l11 7-1 1-11-6z"/><path d="M1 93l-14-49 57-17 14 50z"/><path fill="#6f6f6f" d="M-8 102l68-23v1l-68 24z"/><path fill="#434343" d="M195 140l1-2 7 2v2z"/><path fill="#272727" d="M92 113l5 7-22 15-4-6z"/><path fill="#4b4b4b" d="M223 65l5-2v2l-4 1z"/><path fill="#3b3b3b" d="M351-2l-11 15-11-9 11-15z"/><path fill="#999" d="M235 23l5 8-14 10-5-8z"/><path fill="#b9b9b9" d="M149 89l-18-46 6-3 18 47z"/><path fill="#161616" d="M264 51l17-14 4 5-17 13z"/><path fill="#414141" d="M189 79l-2 3-18-13 2-2z"/><path fill="#484848" d="M263 42l62-32 2 3-63 32z"/><path fill="#555" d="M360 178l-7-4 4-10 8 4z"/><path fill="#717171" d="M41 166l41 29-2 3-41-29z"/><path fill="#838383" d="M254 67l-1 1-34-33 1-1z"/><path fill="#9e9e9e" d="M298 87l2 1-3 7h-1z"/><path fill="#010101" d="M206 152v1l-42-6v-2z"/><path fill="#7d7d7d" d="M394 141l7-1 4 24-8 1z"/><path fill="#474747" d="M259 115l-1 4-9-1 1-4z"/><path fill="#0c0c0c" d="M244 168l22-17 1 2-22 16z"/><path d="M354 144l-1-8h4l1 7z"/><path fill="#3e3e3e" d="M50 127l-2-4 60-33 2 5z"/><path fill="#929292" d="M354 158l-2 2-11-13 3-2z"/><path fill="#565656" d="M159 109h6v3h-6z"/><path fill="#a5a5a5" d="M185 93l-19-7 1-2 19 7z"/><path fill="#3e3e3e" d="M59 98l2 1-25 36-1-1z"/><path fill="#989898" d="M185 123l-1-1 11-9 1 1z"/><path d="M169 136l2 1-4 10-2-1z"/><path fill="#151515" d="M150 133h14v1h-14z"/><path fill="#757575" d="M297 125v-1l30 9-1 1z"/><path d="M156 146l9 2v2l-9-3z"/><path fill="#7a7a7a" d="M344 113l-17-11 2-4 18 10z"/><path fill="#484848" d="M329 140l-12 8-3-5 11-8z"/><path fill="#4b4b4b" d="M107 88L71 39l2-1 35 49z"/><path d="M41 33l1-2 56 48-1 1z"/><path fill="#747474" d="M27-3l2-3 58 48-2 3z"/><path fill="#5f5f5f" d="M113 19l27 15-1 2-27-16z"/><path fill="#020202" d="M201 33l-17 24-2-1 17-24z"/><path fill="#868686" d="M168 89l-8-2 2-9 8 2z"/><path fill="#9e9e9e" d="M253 71l-55 29-3-4 56-29z"/><path fill="#727272" d="M176 61l4-4 15 14-5 5z"/><path fill="#595959" d="M303 101l-11 7-3-4 11-7z"/><path fill="#171717" d="M201 133l-8-7 1-1 8 7z"/><path d="M158 18l-20 16-32-41 20-15z"/><path fill="#464646" d="M242 131l-1 4-12-2v-4z"/><path fill="#4d4d4d" d="M214 76l-2 2-9-12 3-2z"/><path fill="#131313" d="M372 141l3 9-11 4-4-9z"/><path fill="#a1a1a1" d="M198 53l-1-1 32-25 1 1z"/><path fill="#3e3e3e" d="M228 182l-42 1v-1l42-1z"/><path fill="#373737" d="M380 125l-12-10 1-1 11 10z"/><path fill="#3b3b3b" d="M334 129l-14-7 4-8 14 6z"/><path fill="#414141" d="M283 183l1-1 10 5-1 1z"/><path fill="#6f6f6f" d="M140 174l41 7v3l-42-7z"/><path fill="#343434" d="M3 150l19-34 1 1-18 34z"/><path fill="#020202" d="M216 143l-36 11-1-2 36-10z"/><path fill="#5f5f5f" d="M16 126l-1-1 5-6 1 1z"/><path fill="#3b3b3b" d="M273 85l-1 1-12-4 1-1z"/><path fill="#414141" d="M346 95l14 7-1 2-14-8z"/><path fill="#444" d="M161 151l1-2 28 8v2z"/><path fill="#262626" d="M191 144l-1 1-5-3 1-1z"/><path fill="#1f1f1f" d="M370 13l7-10 52 39-8 10z"/><path fill="#474747" d="M271 139v-2l32 13-1 2z"/><path fill="#959595" d="M357 130l11-25 1 1-10 25z"/><path fill="#a9a9a9" d="M191 94l2-3 12 11-2 2z"/><path fill="#7e7e7e" d="M67 10l48 51-2 2-48-51z"/><path fill="#bdbdbd" d="M201 122l-3-2 9-9 3 2z"/><path fill="#767676" d="M113 40l25-7 1 3-26 7z"/><path fill="#717171" d="M291 175l-1-18 30-2 1 17z"/><path fill="#5f5f5f" d="M420 115l-46 32-1-1 46-32z"/><path fill="#b1b1b1" d="M190 61l10 6-1 1-9-5z"/><path fill="#c4c4c4" d="M135 102l6-13 10 4-6 13z"/><path fill="#212121" d="M253 42v14h-5l1-14z"/><path fill="#6d6d6d" d="M216 60l-3 1-5-10 3-1z"/><path fill="#393939" d="M155 53l-1-11h2l1 11z"/><path fill="#ababab" d="M256 76l-1 1-29-29 2-1z"/><path d="M388 111l6-6 13 14-6 5z"/><path fill="#565656" d="M123 127l-1-1 10-8 1 1z"/><path fill="#b8b8b8" d="M134 114l-17-19 1-1 17 19z"/><path fill="#898989" d="M113 91l-3-2 13-22 3 1z"/><path fill="#323232" d="M359 176v3h-22v-3z"/><path fill="#454545" d="M197 111l-26 6v-1l25-7z"/><path fill="#585858" d="M176 143l7 5-1 1-7-4z"/><path fill="#9f9f9f" d="M351 108l2 5-14 6-3-6z"/><path fill="#5b5b5b" d="M359 144l-1-6 47-5 1 6z"/><path fill="#7b7b7b" d="M270-19l21 9-12 30-22-8z"/><path fill="#303030" d="M114 105l-57 28-1-2 58-28z"/><path fill="#bebebe" d="M154 33l3-1 6 24-3 1z"/><path d="M340 202h-1l-3-5 2-1z"/><path fill="#0f0f0f" d="M412 200l-1 2-24-10v-2z"/><path d="M331 55l45 21-11 27-46-21z"/><path fill="gray" d="M175 144v-11h2v11z"/><path fill="#505050" d="M268 222l-6 6-72-67 6-7z"/><path fill="#444" d="M314 127l7-9 1 1-7 9z"/><path fill="#6b6b6b" d="M353 164l16 29-2 1-16-29z"/><path fill="#727272" d="M224 94l1 1-29 13v-2z"/><path fill="#4e4e4e" d="M83 151l14-7 12 25-14 7z"/><path fill="#050505" d="M109 97l5 1-3 10-4-1z"/><path fill="#a4a4a4" d="M155 62l1-1 9 13-1 1z"/><path fill="#5c5c5c" d="M203 129l-2-8 11-2 1 8z"/><path fill="#333" d="M64 82l-6 5-1-2 6-4z"/><path fill="#8d8d8d" d="M345 193l9-9 3 3-9 9z"/><path fill="#5d5d5d" d="M283 132l2-4 39 20-2 4z"/><path fill="#4c4c4c" d="M159 92v-1l6 3-1 1z"/><path fill="#6b6b6b" d="M251 26l22-12 6 11-22 12z"/><path fill="#505050" d="M22-6l11 7-4 6-11-6z"/><path fill="#c4c4c4" d="M127 127l5-4 2 2-5 4z"/><path fill="#0c0c0c" d="M327 16l6-3 7 10-5 3z"/><path fill="#858585" d="M132 92l-2 6-10-3 1-6z"/><path fill="#d4d4d4" d="M228 57l9 5v1l-10-5z"/><path fill="#949494" d="M126 118l3-6 21 9-2 6z"/><path fill="#313131" d="M261 104l-42 23-1-1 43-24z"/><path fill="#959595" d="M116 53L53-8l5-6 63 61z"/><path fill="#666" d="M177 133l10 3v2l-10-4z"/><path fill="#ababab" d="M217 70l-1-1 3-25 1 1z"/><path fill="#9d9d9d" d="M113 63l-6-6 19-18 6 5z"/><path fill="#b5b5b5" d="M165 128l1-1 2 3-1 1z"/><path fill="#828282" d="M116 112l16-11 1 1-17 12z"/><path fill="#3c3c3c" d="M155 142v-1l7-3 1 1z"/><path fill="#4f4f4f" d="M42 172l2-1 50 52-2 1z"/><path fill="#9b9b9b" d="M191 135l6 3-2 4-6-3z"/><path fill="#bdbdbd" d="M183 119l2 3-4 4-2-2z"/><path fill="#606060" d="M220 123l-1-1 31-19 1 2z"/><path fill="#858585" d="M391 121l-21-14 1-1 20 13z"/><path fill="#bdbdbd" d="M214 78l27-12v1l-27 12z"/><path fill="#9e9e9e" d="M148 132l4 5-5 4-4-5z"/><path fill="#787878" d="M63 77l1-1 6 8-1 1z"/><path fill="#666" d="M213 139l1 1-7 4-1-1z"/><path d="M79 64l2 10-46 7-2-9z"/><path fill="#5f5f5f" d="M50 125h1l-5 33-2-1z"/><path fill="#4e4e4e" d="M395 196l-1 2-12-2v-2z"/><path fill="#4c4c4c" d="M362 148l1 1-7 8-2-1z"/><path fill="#191919" d="M160 138l16-7v2l-16 6z"/><path fill="#030303" d="M198 78l3-5 9 6-3 6z"/><path fill="#333" d="M254 197l1-3 12 4-1 3z"/><path fill="#acacac" d="M181 101l48-24 1 1-48 25z"/><path fill="#484848" d="M293 81v9h-12V80z"/><path fill="#ccc" d="M222 69l13-4 1 5-13 4z"/><path fill="#4f4f4f" d="M250 43l-1-1 50-18v1z"/><path fill="#030303" d="M61 103l2 1-10 14-2-1z"/><path fill="#676767" d="M338 187l4-9 10 6-5 8z"/><path fill="#202020" d="M84 98l1 8-11 1-1-8z"/><path fill="#444" d="M237 155l1 1-36 16-1-2z"/><path fill="#0d0d0d" d="M40 115l-1 13-12-1 1-13z"/><path fill="#656565" d="M111 150l23-16 1 2-24 16z"/><path fill="#848484" d="M360 149l5 9-2 1-4-10z"/><path fill="#4c4c4c" d="M296 201l37-5 1 1-38 6z"/><path fill="#616161" d="M59 123l6-7 3 3-6 7z"/><path fill="#7a7a7a" d="M331 162v-2l24 8v2z"/><path fill="gray" d="M215 41l21-8 1 3-21 8z"/><path fill="#909090" d="M79 14l22-12 2 4-21 12z"/><path fill="#181818" d="M250 150l1 1-25 16-1-1z"/><path fill="#616161" d="M278 154l2-10 29 7-3 9z"/><path fill="#7b7b7b" d="M347 142l-3 6-17-7 2-6z"/><path d="M170 30l65-34 9 16-65 35z"/><path fill="#3f3f3f" d="M198 84l1 1-4 5-2-1z"/><path fill="#9a9a9a" d="M115 157l1-1 14 10-1 1z"/><path fill="#030303" d="M243 140l-1-7 39-2v6z"/><path fill="#ababab" d="M213 135l-7 3-2-6 7-3z"/><path fill="#0b0b0b" d="M249 58l45-17 3 6-46 17z"/><path fill="#2c2c2c" d="M236 94l7-3 1 1-7 3z"/><path fill="#383838" d="M106 85l-2 1-20-26 1-1z"/><path fill="#616161" d="M66 41l-3-7 14-5 2 8z"/><path fill="#8e8e8e" d="M259 88l3 7-23 9-3-7z"/><path fill="#919191" d="M270 180l17-7 1 1-17 8z"/><path fill="#313131" d="M84 55l-1 1-40-31 1-1z"/><path d="M367 8l13 45-23 6-13-45z"/><path fill="#686868" d="M347 120l1 1-31 17-1-1z"/><path fill="#6c6c6c" d="M318 174l-30 39-1-1 30-39z"/><path fill="#292929" d="M359 154h-2l-1-16h1z"/><path fill="#2b2b2b" d="M278 101l1 1-49 37-1-2z"/><path fill="#919191" d="M222 54v2l-24-8 1-2z"/><path fill="#939393" d="M324 110l-7-4 11-17 6 4z"/><path fill="#a7a7a7" d="M140 128h1l8 11-1 1z"/><path fill="#6c6c6c" d="M190 133l-9-6 2-2 9 6z"/><path fill="#909090" d="M102 69l-4-1 2-8 4 2z"/><path fill="#050505" d="M394 198v2h-11v-1z"/><path fill="#858585" d="M201 114v-1l24-7 1 2z"/><path fill="#d6d6d6" d="M174 139l-1 1-2-3h1z"/><path fill="#7e7e7e" d="M160 132l-16-11 1-1 15 11z"/><path fill="#636363" d="M234 197l-51 3v-1l51-4z"/><path fill="#6c6c6c" d="M355 147l-68 12v-2l68-11z"/><path d="M146-15l38 5-6 45-39-5z"/><path fill="#636363" d="M155 128l-1 2-17-4 1-1z"/><path fill="#555" d="M96 169l38 15-1 2-37-16z"/><path fill="#404040" d="M376 174l-2-24h1l3 23z"/><path fill="#767676" d="M113 73h-2l-10-38h2z"/><path fill="#0a0a0a" d="M13 134l-1 1-2-2 1-1z"/><path fill="#b5b5b5" d="M185 59l5-5 5 4-6 6z"/><path fill="#434343" d="M224 192v3l-25-1v-3z"/><path fill="#030303" d="M265 109h2l-12 37h-2z"/><path fill="silver" d="M396 179l6-5 1 1-6 5z"/><path fill="#bebebe" d="M121 87l-1-1 10-15h1z"/><path fill="#080808" d="M379 160l8-12h1l-7 12z"/><path fill="#6a6a6a" d="M-5 119l48-21 2 3-49 21z"/><path fill="#424242" d="M285 184v5l-47-6 1-5z"/><path fill="#a2a2a2" d="M212 115l35-22 2 3-35 21z"/><path fill="#4d4d4d" d="M105 94l-12 8-3-4 12-8z"/><path fill="#3d3d3d" d="M266 125l7-12 3 1-7 12z"/><path fill="#212121" d="M100 129l1 1-15 18-1-1z"/><path fill="#747474" d="M183 165l-19 20-11-11 19-20z"/><path fill="#282828" d="M39 178l-5-1 1-15h4z"/><path fill="#5d5d5d" d="M136 38l-11 2v-1l11-3z"/><path fill="#242424" d="M365 192l1 1-14 4v-1z"/><path fill="#959595" d="M160 92l-5-10h2l5 9z"/><path fill="#535353" d="M128 122v2l-11-7 1-1z"/><path fill="#050505" d="M190 133v-2h9v2z"/><path fill="#3d3d3d" d="M175 81l-6-6 4-5 7 7z"/><path fill="#202020" d="M372 197l-1-1 5-7 2 1z"/><path fill="#828282" d="M36 8l2-7 34 11-2 8z"/><path fill="#424242" d="M355-22l-35 46-1-1 35-46z"/><path fill="#373737" d="M36 199l-5 7-13-9 6-8z"/><path fill="#848484" d="M227 137l-7-9 1-1 7 9z"/><path fill="#8c8c8c" d="M135 35v2L69 17l1-2z"/><path fill="#3b3b3b" d="M73 116h-2l5-28 1 1z"/><path fill="#585858" d="M40 160l5-4 16 17-4 4z"/><path fill="#5f5f5f" d="M53 14l4 2-8 12-4-2z"/><path d="M277 76l6-29 48 10-7 29z"/><path fill="#727272" d="M231 95l-14 9-2-4 13-9z"/><path fill="#535353" d="M290 83l19-1v2l-19 1z"/><path fill="#2b2b2b" d="M16 123l11 11-1 1-11-11z"/><path fill="#474747" d="M47 96l9 7-5 6-8-7z"/><path fill="#9a9a9a" d="M358 112l-2-1 3-9 2 1z"/><path fill="#1c1c1c" d="M101 98l10 5-4 7-10-5z"/><path fill="#ababab" d="M158 44l3 14h-2l-2-14z"/><path fill="#6b6b6b" d="M364 107l-6 10-1-1 5-9z"/><path fill="#191919" d="M44 110l-1-1 5-5 1 2z"/><path fill="#7b7b7b" d="M224 115l-6 2-3-9 6-2z"/><path fill="#707070" d="M277 84l9 11-5 4-9-11z"/><path fill="#494949" d="M375 152v-3l11-2v3z"/><path fill="#adadad" d="M181 48l-7 7-1-2 7-6z"/><path fill="#898989" d="M52 142l7-7 3 3-6 7z"/><path fill="#454545" d="M254 123l1 1-23 17-1-1z"/><path fill="#0d0d0d" d="M2 198l1 1-3 2-1-1z"/><path fill="#181818" d="M331 24l-76 33-1-2 77-32z"/><path fill="#969696" d="M271 197l4 3-1 1-4-2z"/><path fill="#3d3d3d" d="M44 81v-2l14 1v2z"/><path fill="#6e6e6e" d="M188 112l-3-2 7-11 3 2z"/><path fill="#383838" d="M151 133l-7-4 1-1 7 4z"/><path fill="#202020" d="M220 103l-12 7-1-2 12-7z"/><path fill="#b5b5b5" d="M163 103l-34-25v-1l35 25z"/><path fill="#4a4a4a" d="M23 114L1 141l-4-3 22-27z"/><path d="M371 201l-16-4 1-3 15 4z"/><path fill="#898989" d="M211 74l3-12h2l-4 12z"/><path fill="#353535" d="M156 148l-20-8v-2l21 8z"/><path fill="#4e4e4e" d="M223 142l-6 6-1-1 6-6z"/><path fill="#787878" d="M153 33l4 10-2 1-4-11z"/><path fill="#3b3b3b" d="M368 184l1-5 5 1-1 5z"/><path fill="#a4a4a4" d="M174 127v1l-9-6 1-2z"/><path fill="#333" d="M381 9l2 27h-6l-2-26z"/><path fill="#cacaca" d="M144 66l-4-15 12-3 4 15z"/><path fill="#656565" d="M305 106l2-2 9 11-3 2z"/><path fill="#616161" d="M335 95l6-2 1 1-6 2z"/><path fill="#404040" d="M314 181l1 1-8 5-1-2z"/><path fill="#898989" d="M51 185l-2-5h2l1 4z"/><path fill="#050505" d="M22 36L1 13 15 0l20 23z"/><path fill="#797979" d="M368 133l-7-7 1-1 7 7z"/><path fill="#3b3b3b" d="M276 147l7-9 2 1-7 9z"/><path d="M38 197l-2-8 12-3 2 8z"/><path fill="#040404" d="M57 31l5 23-8 1-5-23z"/><path fill="#292929" d="M206 158v-1l36-7 1 1z"/><path fill="#222" d="M275 111l-15-8 1-3 15 8z"/><path fill="#5b5b5b" d="M205 140l-1 1-10-7 1-2z"/><path fill="#6d6d6d" d="M309 119l20-10 1 2-20 9z"/><path fill="#4d4d4d" d="M84 149l-22-9 2-6 22 9z"/><path fill="#7f7f7f" d="M83 195l9-11 5 4-9 11z"/><path fill="#494949" d="M40 132l6 3-19 41-6-3z"/><path fill="#585858" d="M14 116l-9 27-1-1 8-27z"/><path fill="#6e6e6e" d="M385 120l4 2-10 16-4-3z"/><path fill="#4c4c4c" d="M375 205l-2-2 10-12 2 2z"/><path fill="#696969" d="M389 186l9-15 2 1-9 15z"/><path fill="#959595" d="M276-7l-2 16-5-1 2-15z"/><path fill="#8a8a8a" d="M119 111h-2l-3-20h2z"/><path fill="#535353" d="M103 85l-14-3 1-3 13 3z"/><path fill="#555" d="M346 172l-1 1-30-28 1-1z"/><path fill="#0d0d0d" d="M33 115l15-3 2 6-16 3z"/><path fill="#757575" d="M378 136l9 10-1 1-9-10z"/><path fill="#707070" d="M169 65l3 1-5 8-3-1z"/><path fill="#787878" d="M395 142l-2-1 7-16 2 1z"/><path fill="#b4b4b4" d="M211 85l32-20 1 2-32 19z"/><path fill="#858585" d="M150 153l7-4 10 15-7 5z"/><path fill="#707070" d="M41 141v-2l20 6-1 2z"/><path fill="#727272" d="M197 103l-26 13-1-1 27-14z"/><path fill="#313131" d="M237 131v1l-19 10-1-1zM81 60L70 36l1-1 11 24z"/><path fill="#ccc" d="M144 115l-13-6 2-3 12 6z"/><path fill="#0e0e0e" d="M302 27l1 1-3 12-2-1z"/><path fill="#6f6f6f" d="M52 83v11h-9V83z"/><path fill="#afafaf" d="M139 66h-3l-2-27 3-1z"/><path fill="#575757" d="M24 3l48 34v2L23 5z"/><path fill="#484848" d="M-14 111l-1-1 59-23v2z"/><path fill="#a6a6a6" d="M116 86l3-1 4 15-3 1z"/><path fill="#535353" d="M182 113l14-8 1 2-13 9z"/><path fill="#454545" d="M368 141l2-5 7 2-2 6z"/><path fill="#6b6b6b" d="M82-4l14 3-1 6-14-3z"/><path fill="#232323" d="M209 128v2h-16v-2z"/><path fill="#242424" d="M191 147v-2l7-3v2z"/><path fill="#494949" d="M46 179l8 12h-1l-8-11z"/><path fill="#a9a9a9" d="M189 62l6-16 9 3-7 16z"/><path fill="#767676" d="M262 79l9-2v2l-9 2z"/><path fill="#717171" d="M225 85l2 1-10 18-1-1z"/><path fill="#5b5b5b" d="M278 27l54-26v1l-53 27z"/><path fill="#8d8d8d" d="M164 109l-9 3-2-4 9-3z"/><path fill="#6c6c6c" d="M400 180v3l-42 11-1-3z"/><path fill="#040404" d="M274 128l-29 26-5-5 29-26z"/><path fill="#969696" d="M163 85h-2l3-12h1z"/><path fill="#636363" d="M404 195l-39-24 2-2 38 24z"/><path fill="#484848" d="M94 49l2 2-7 5-2-2z"/><path fill="#838383" d="M323 125l1 7-5 1-1-8z"/><path fill="#6a6a6a" d="M244 54l12 14-1 1-12-14z"/><path d="M47 69l42-2v6l-42 3z"/><path fill="#282828" d="M286 161l-4 1-1-3 4-1z"/><path fill="#262626" d="M254 157v2l-44 11v-2z"/><path fill="#929292" d="M252 65l-1 1-29-26 1-1z"/><path fill="#636363" d="M132 174l1-2 43 15-1 2z"/><path fill="#b2b2b2" d="M217 111l-29 12v-1l29-12z"/><path fill="#838383" d="M339 98v4l-36 2v-5z"/><path fill="#101010" d="M387-17l28 9-9 30-29-9z"/><path fill="#686868" d="M91 85L77 96l-1-2 14-10z"/><path d="M-1 78l6 17-2 1-6-18z"/><path fill="#919191" d="M181 62l-7 1V52h6z"/><path fill="#3f3f3f" d="M324 167l1 1-7 8-1-1z"/><path fill="#585858" d="M202 191l-50 2v-1l50-2z"/><path fill="#6f6f6f" d="M357 130l1-1 8 12h-1z"/><path fill="#343434" d="M88 142v-2l38-5v1z"/><path fill="#5c5c5c" d="M32 133l4 5-48 33-3-5z"/><path fill="#5d5d5d" d="M184 93l-12 8-1-1 12-8z"/><path fill="#353535" d="M43 110l-15 8-1-1 16-8z"/><path fill="#aaa" d="M129 133l6-3v1l-5 3z"/><path fill="#0c0c0c" d="M163 118l3-1 1 1-3 1z"/><path fill="#0f0f0f" d="M71 107v6l-15 1-1-7z"/><path fill="#939393" d="M38 159l-1-1 4-9h2z"/><path fill="#999" d="M105 159l-2-1v-2h2z"/><path fill="#a6a6a6" d="M120 203l-20-6v-1l20 5z"/><path fill="#606060" d="M183 199l-1 3-100-31v-3z"/><path fill="#1b1b1b" d="M354 174l-6 5-1-1 6-5z"/><path fill="#4b4b4b" d="M196 70l2 7-5 2-2-8zm-88 81v9h-2v-9z"/><path fill="#717171" d="M215 94l1 1-17 16-1-1z"/><path fill="#636363" d="M273 38l-1-1 29-45 1 1z"/><path fill="#040404" d="M26 132l-4-8 7-4 4 8z"/><path fill="#4c4c4c" d="M241 108l1 1-19 19-1-1z"/><path fill="#a8a8a8" d="M346 102l2-1 1 11-1 1z"/><path fill="#222" d="M215 128v-5l6 1v4z"/><path fill="#585858" d="M190 109v1l-10-5 1-1z"/><path fill="#4a4a4a" d="M90 93l-44 10v-1l44-10z"/><path fill="#282828" d="M192 85l-10 2v-2l9-1z"/><path fill="#070707" d="M255 147l14-11 9 13-14 10z"/><path fill="#a2a2a2" d="M159 40l3-7 9 3-3 8z"/><path fill="#838383" d="M91 95l-4-3 8-10 4 3z"/><path fill="#7d7d7d" d="M165 85l4-1 2 11-4 1z"/><path fill="#6c6c6c" d="M213 110l-6-1v-2l6 2z"/><path fill="#6f6f6f" d="M184 115l-12 8-1-2 12-8z"/><path fill="#0e0e0e" d="M321 33l59-41 1 1-59 42z"/><path fill="#929292" d="M396 154l-1-8 7-1 2 7z"/><path fill="#070707" d="M357 139h-9v-5l9 1z"/><path fill="gray" d="M46 169l1-1 9 11-2 1z"/><path fill="#6a6a6a" d="M78 181l2-5 65 20-1 5z"/><path fill="#484848" d="M129 25l-1 1-21-21 1-1z"/><path fill="#020202" d="M391 170l-1-3 5-1 1 3z"/><path fill="#2b2b2b" d="M264 103l-14 7v-2l14-7z"/><path fill="#8f8f8f" d="M216 128l3-2 4 7-3 2z"/><path d="M322 163v-8h1l1 7z"/><path fill="#5d5d5d" d="M178 45h-1l-1-3 2-1z"/><path fill="#010101" d="M391 97l-9 14-15-9 8-15z"/><path fill="#959595" d="M190 122v-2h12v2z"/><path fill="#8a8a8a" d="M133 40l1 1-12 20-1-1z"/><path fill="#6c6c6c" d="M121 19l-1 1-20-18 1-1z"/><path fill="#353535" d="M177 81l-4 3-5-8 4-2z"/><path fill="#b1b1b1" d="M168 109h2l-2 6-2-1z"/><path fill="#525252" d="M327 128l23 7-1 1-22-7z"/></svg>