<svg xmlns="http://www.w3.org/2000/svg" viewBox="0 0 2000 1000"><path fill="#494949" d="M0 0h2000v1000H0z"/><path fill="#c4c4c4" d="M1465 426L707 707 238-27z"/><path d="M1215 301l906 305-141-727zM-113 481l617-125L-19-82zm1601-602L941 246 293-121z"/><path fill="#838383" d="M887 1098l539-1219L129 1121z"/><path d="M1340 879l203-360-695 243zm758-336l-836-187L1824 4z"/><path fill="#929292" d="M1332 1121l250-695 297 117z"/><path fill="#ccc" d="M863 168L684 762 559 215z"/><path d="M691 176l750-211-984-86zm-812 351L4-4l492 281z"/><path fill="#cdcdcd" d="M1293 371l-156-234-180 117z"/><path d="M1098 356H816l157 101z"/><path fill="#131313" d="M652 691L551 465-4 621z"/><path fill="#868686" d="M-4-121h531l110 586z"/><path d="M949 231L441-98l1047-23zm1172-336l-867 398 867 320z"/><path fill="#939393" d="M1660 4L887 309l578-430z"/><path d="M418 1098L176 848l-86 273z"/><path fill="#676767" d="M2121 934l-726 54-8-406z"/><path fill="#0f0f0f" d="M645 684l195-32 39 125z"/><path fill="#030303" d="M1137 824l195-343 250 93z"/><path fill="#5d5d5d" d="M1254 363l406 78-844 141z"/><path fill="#727272" d="M496 1121L98 715l211-141z"/><path fill="#8d8d8d" d="M1957 574l149 274-664-422z"/><path fill="#a5a5a5" d="M902 699l180 8 172-125z"/><path d="M-105-121l-16 453 688 78z"/><path fill="#1f1f1f" d="M1582 543l383 367V746z"/><path fill="#a1a1a1" d="M652 699l250 133-328 31z"/><path fill="#747474" d="M574 426l-695 187 367-219z"/><path fill="#bebebe" d="M1270 379l-63-102-328 250z"/><path d="M918 262l344-250-516-133z"/><path fill="#474747" d="M1637 684l39 203-422-360z"/><path fill="#0b0b0b" d="M1059 316l-8 94-196 8z"/><path fill="#8f8f8f" d="M1879 809l-203-125 47 156z"/><path fill="#adadad" d="M1145 582l-235 16 422-157z"/><path d="M1426 262l594 351-188-578z"/><path fill="#545454" d="M582 504l-62-281L270 98z"/><path d="M418-121l281 289 461-70z"/><path fill="#999" d="M1832 613l-164-164-273 24z"/><path fill="#080808" d="M1371 668l16 156-594-93z"/><path fill="#949494" d="M1551 941l-211-62 117-94z"/><path fill="#bdbdbd" d="M731 176L574 574l266-62z"/><path fill="#020202" d="M1926 231l-758-16 211 203z"/><path fill="#0a0a0a" d="M1770 965l-63 156 414-180z"/><path fill="#484848" d="M871 418l149-55-227-70z"/><path fill="#434343" d="M1871 27l8 149 242 125z"/><path fill="#565656" d="M1215 762l-196 359-202-336z"/><path fill="#919191" d="M512 223l281 500-187-102z"/><path fill="#8f8f8f" d="M481-74l211 390-758-437z"/><path fill="#0e0e0e" d="M121 660l305-179-188 15z"/><path fill="#2a2a2a" d="M777 668l282-55-79 71z"/><path fill="#414141" d="M996 582l133-94-352 86z"/><path fill="silver" d="M895 223l-71-55 8 203z"/><path fill="#0d0d0d" d="M535 481L434 723l195-71z"/><path fill="#979797" d="M863 1051L434 926l-204 164z"/><path d="M-51-121l-70 555 570-63z"/><path fill="#919191" d="M2121 879l-133-266-15 313z"/><path fill="#545454" d="M1848 559l-55 148 328 31z"/><path d="M910 301V27l242-148z"/><path fill="#626262" d="M27 668l305-289-453 133z"/><path d="M1988 879l-86-23V723z"/><path fill="#c2c2c2" d="M1043 543l-62 63-125 7z"/><path fill="#4a4a4a" d="M1379 488l-102-125 196 47z"/><path d="M145 887l422 234-360-31zm1187-336l-156 156 242 94z"/><path fill="#b0b0b0" d="M856 668v47l125-39z"/><path fill="#606060" d="M1527 74l-297 211-124-94z"/><path fill="#474747" d="M285 762l102-383 172 516z"/><path fill="#717171" d="M1207 668l-125 63 195-305z"/><path fill="#555" d="M1559 723l-188-110 406-15z"/><path fill="#2a2a2a" d="M1621 918l110-47-125-109z"/><path fill="#404040" d="M754 621h-55l94 78z"/><path fill="#909090" d="M785 410l344 55-289 101z"/><path fill="#c2c2c2" d="M934 277l47-46 23 132z"/><path fill="#636363" d="M199 598l477 304-407 47z"/><path fill="#2c2c2c" d="M1191 738l188 180-289-31z"/><path fill="#878787" d="M879 770L731 934 504 762z"/><path fill="#444" d="M1082 543l164-102-328 94z"/><path d="M629 129l422 70 281-320z"/><path fill="#828282" d="M1621 754l-133 55-39 304z"/><path d="M1027 395H856l62 39z"/><path fill="#757575" d="M1012 231l125 93-71 47z"/><path fill="#606060" d="M1535 637l336 31-305-133z"/><path fill="#040404" d="M746 738h110v-78z"/><path fill="#bbb" d="M1074 418l8-242 141 148z"/><path fill="#a2a2a2" d="M1777 941l-39-39 8 78z"/><path fill="#c1c1c1" d="M691 598l188 31-289-133z"/><path d="M2074 285l-500-148 438 492z"/><path fill="#0c0c0c" d="M1566 699l-125-187-132-16z"/><path fill="#050505" d="M238 535L59 645l117 7z"/><path fill="#4b4b4b" d="M238 74L137 59l203 148z"/><path fill="#060606" d="M934 777l62-93 86 78z"/><path fill="#686868" d="M551 43l-55 47 219 94z"/><path fill="#131313" d="M840 582l-63 16 32-47z"/><path fill="#9d9d9d" d="M262 660l47 31-118 39z"/><path fill="#bababa" d="M863 316L738 160h86z"/><path fill="#363636" d="M1363 996l102-62-63-39z"/><path fill="#5d5d5d" d="M98 637L-51 910l258-140z"/><path fill="#757575" d="M1590 481l-266-16 203-47z"/></svg>