<svg xmlns="http://www.w3.org/2000/svg" viewBox="0 0 400 200"><path fill="#494949" d="M0 0h400v200H0z"/><g transform="translate(1 1) scale(1.5625)"><ellipse fill="#bebebe" cx="116" cy="56" rx="50" ry="35"/><ellipse cx="250" cy="32" rx="80" ry="32"/><ellipse cy="33" rx="49" ry="25"/><ellipse cx="114" rx="40" ry="27"/><ellipse fill="#8f8f8f" cx="79" cy="114" rx="44" ry="23"/><ellipse fill="#c6c6c6" cx="84" cy="34" rx="29" ry="16"/><ellipse cx="239" cy="35" rx="81" ry="22"/><ellipse fill="#b4b4b4" cx="52" cy="9" rx="21" ry="18"/><ellipse fill="#040404" cx="159" cy="90" rx="21" ry="24"/><ellipse fill="#797979" cx="209" cy="92" rx="26" ry="37"/><ellipse cy="29" rx="32" ry="30"/><ellipse cx="113" cy="4" rx="44" ry="18"/><ellipse fill="#1e1e1e" cx="122" cy="46" rx="17" ry="9"/><ellipse fill="#8f8f8f" cx="169" cy="15" rx="23" ry="11"/><ellipse fill="#c6c6c6" cx="87" cy="55" rx="13" ry="31"/><ellipse fill="silver" cx="143" cy="38" rx="9" ry="22"/><ellipse fill="#282828" cx="59" cy="63" rx="15" ry="36"/><ellipse cx="121" cy="3" rx="17" ry="28"/><ellipse cx="255" cy="43" rx="47" ry="27"/><ellipse cx="185" cy="71" rx="13" ry="7"/><ellipse fill="#202020" cx="133" cy="89" rx="40" ry="11"/><ellipse cx="13" cy="36" rx="41" ry="17"/><ellipse fill="#767676" cx="129" cy="77" rx="31" ry="14"/><ellipse fill="#8b8b8b" cx="186" cy="118" rx="14" ry="17"/><ellipse fill="#838383" cx="46" cy="56" rx="31" ry="5"/></g></svg>