<svg xmlns="http://www.w3.org/2000/svg" viewBox="0 0 400 200"><path fill="#494949" d="M0 0h400v200H0z"/><ellipse fill="#c6c6c6" rx="1" ry="1" transform="matrix(0 46.48629 -77.49194 0 177 80)"/><ellipse rx="1" ry="1" transform="matrix(132.67944 -4.22459 1.6126 50.6461 399 51)"/><ellipse rx="1" ry="1" transform="matrix(11.94941 -40.48803 75.14784 22.17871 1 45)"/><ellipse rx="1" ry="1" transform="matrix(5.93467 -42.2274 60.20128 8.46074 177 1)"/><ellipse fill="#b9b9b9" rx="1" ry="1" transform="matrix(-18.26643 17.63969 -72.90745 -75.49787 98 30)"/><ellipse fill="#909090" rx="1" ry="1" transform="matrix(4.70046 -44.34557 68.15383 7.22404 132 190)"/><ellipse rx="1" ry="1" transform="rotate(-158 197 1) scale(93.06843 34.38828)"/><ellipse rx="1" ry="1" transform="matrix(-18.61347 -15.65336 31.62454 -37.60485 263 143)"/><ellipse fill="#aeaeae" rx="1" ry="1" transform="rotate(106 129 178) scale(11.2116 52.10889)"/><ellipse rx="1" ry="1" transform="matrix(2.76396 -29.23964 92.7277 8.76535 1 53)"/><ellipse rx="1" ry="1" transform="matrix(22.46668 1.45038 -.53983 8.3621 189 79)"/><ellipse fill="#929292" rx="1" ry="1" transform="matrix(9.98527 17.01948 -58.4802 34.31013 270 20)"/><ellipse rx="1" ry="1" transform="matrix(-27.81971 -5.56904 9.74383 -48.67456 195 1)"/><ellipse fill="#b5b5b5" rx="1" ry="1" transform="matrix(-9.61934 56.84333 -25.01872 -4.2338 145 89)"/><ellipse fill="#777" rx="1" ry="1" transform="matrix(37.90737 17.43544 -31.5907 68.6831 318 173)"/><ellipse rx="1" ry="1" transform="rotate(16 -68 1045) scale(40.46201 21.55332)"/><ellipse fill="#282828" rx="1" ry="1" transform="matrix(21.03584 -.80812 1.94993 50.75815 98 121)"/><ellipse rx="1" ry="1" transform="rotate(175 80 4) scale(47.24107 33.08248)"/><ellipse rx="1" ry="1" transform="matrix(25.49262 50.03208 -52.4495 26.72436 383 51)"/><ellipse fill="#010101" rx="1" ry="1" transform="matrix(-.38471 -7.34073 63.20382 -3.31237 223 148)"/><ellipse fill="#757575" rx="1" ry="1" transform="matrix(-62.90714 20.181 -6.78504 -21.14994 204 116)"/><ellipse rx="1" ry="1" transform="matrix(41.0687 20.03054 -20.92437 42.9013 1 48)"/><ellipse rx="1" ry="1" transform="matrix(-11.0611 5.9541 -16.15755 -30.01633 45 200)"/><ellipse fill="#6d6d6d" rx="1" ry="1" transform="matrix(-64.44012 14.33273 -2.5564 -11.49357 42 96)"/><ellipse rx="1" ry="1" transform="matrix(-12.38627 -18.3634 51.15217 -34.50257 225 2)"/></svg>