<svg xmlns="http://www.w3.org/2000/svg" viewBox="0 0 128 64"><path fill="#4b4b4b" d="M0 0h128v64H0z"/><path fill="#c2c2c2" d="M12-4l35 47 49-14z"/><path d="M80 19l61-34 3 56zm-91 12l42-9-43-37zM27-4l34 20 42-31z"/><path fill="#888" d="M19 59l25 21 57-95z"/><path d="M130-4L88 14 74 62z"/><path fill="#858585" d="M85 80l35-45-25-10z"/><path fill="#cecece" d="M55 11L45 52l-7-37z"/><path d="M-2-1l35 19-37 14z"/><path fill="#060606" d="M87 55l-30-7 42-13z"/><path d="M87 20l28-18 29 40zm-24-7L33 6l78-21z"/><path fill="#191919" d="M53 23l10 7 10-9z"/><path fill="#bcbcbc" d="M74 9l-13 8 25 14z"/><path fill="#161616" d="M4 39l48 8-26-16z"/><path fill="#959595" d="M10 2l22-14 10 28z"/><path fill="#7c7c7c" d="M52 27h44L69 45z"/><path fill="#8d8d8d" d="M125 36l9 17-43-26z"/><path d="M10 55l17 12-17-1zm44-13l6 9-10-5zm-69-57v36l51 5zm61 26L84 0 23-15zm98 3l-65 1 65 29z"/><path fill="#616161" d="M135 61h-28L85 35z"/><path fill="#888" d="M88-3l31-3-62 30z"/><path fill="#767676" d="M13 54l39 21-36-36z"/><path fill="#373737" d="M58 36h11l11-8z"/><path fill="#090909" d="M111 41l14 15 3-5z"/><path fill="#939393" d="M42 45l21 7-23 4z"/><path fill="#0d0d0d" d="M36 25l-5 25 7-9z"/><path fill="#090909" d="M99 34l1 10-18-12z"/><path d="M104-15L60-4l-1 21z"/><path fill="#666" d="M36 15L10-1l24 26z"/><path fill="#0c0c0c" d="M89 66l9 14 41-21z"/><path fill="#c2c2c2" d="M64 33l10-18 5 5z"/><path fill="#6e6e6e" d="M-11 48l41-24-33 8z"/><path fill="#575757" d="M83 51l-27-2 6 31z"/><path fill="#8e8e8e" d="M106 44l15 7-10 3z"/><path fill="#7b7b7b" d="M77 32l34-1-30-8z"/><path fill="#040404" d="M64 28l7-5-16 3z"/><path fill="#aaa" d="M36 24l4 15 25-10z"/><path fill="#aeaeae" d="M43 12l15 4-3-6z"/><path fill="#636363" d="M43 38l8 6 11-9z"/><path fill="#0c0c0c" d="M92 42l-5 11-32-6z"/><path d="M105 27l-22-4 53-32z"/><path fill="#595959" d="M2 48l21-12 21 26z"/><path fill="#9a9a9a" d="M98 52l-9 3 9 5z"/><path fill="#bcbcbc" d="M45 40l-3-24 15-1z"/><path fill="#404040" d="M75 12l4 7 23-11z"/><path fill="#878787" d="M32 26l-8 4h15z"/><path fill="#9e9e9e" d="M127 43l5 37 4-20z"/><path fill="#585858" d="M113 71l-1-34-22 2z"/><path d="M61 14l48-29H13z"/><path fill="#1f1f1f" d="M54 43l11-2-6-1z"/><path fill="#acacac" d="M45 38l13 3 7-4z"/><path fill="#6f6f6f" d="M60 25l-9-7 19 1z"/><path fill="#b2b2b2" d="M73 13l-5 11 14-1z"/><path fill="#8d8d8d" d="M58 45l16-5 1 5z"/><path fill="#a2a2a2" d="M98 32l6-4 14 12z"/><path fill="#2c2c2c" d="M84 56L72 44l-3 13z"/><path fill="#b8b8b8" d="M71 38l8-7-18 7z"/><path fill="#414141" d="M56 39l3-4H49z"/><path fill="#010101" d="M18 62l-9 3 4-11z"/><path d="M-7-15l-8 49 39-12z"/><path fill="#505050" d="M116 44l3-7 16 9z"/><path fill="#878787" d="M38 29L25-11l19 23z"/><path d="M140 44L120 9l-17 14z"/><path fill="#989898" d="M21 64l20-1-11-3z"/><path fill="#6d6d6d" d="M61 52l14 28-41-21z"/><path fill="#111" d="M7 37l17-4L9 43z"/><path fill="#242424" d="M114 57l-10-6 1 6z"/><path fill="#0d0d0d" d="M37 41l-5-9 5-1z"/><path fill="#737373" d="M102 61L90 45l12 1z"/><path fill="#6f6f6f" d="M119 54l-17 8 25-2z"/><path fill="#a1a1a1" d="M73 15L83 5 59 17z"/><path fill="#676767" d="M14 52l1-14 20 31z"/><path fill="#070707" d="M83 45l9 7-7-20z"/><path fill="#acacac" d="M66 17v5l-6-4z"/><path fill="#101010" d="M46 45l7 1v2z"/><path fill="#3d3d3d" d="M88 36H75l23-11z"/><path fill="#020202" d="M83 25v-7l12-1z"/><path fill="#a5a5a5" d="M144 46v12l-19-20z"/><path d="M76-15L59 19l5-34z"/><path d="M45 11L30-14l55 8z"/><path fill="#878787" d="M106 47l14 6-13-11z"/><path d="M109 80H51l70-19zM97 38l-4 1-5-7z"/><path fill="#8e8e8e" d="M44 25l29 5-15 5z"/><path fill="#8c8c8c" d="M55 57L42 44l-7 6z"/><path fill="#868686" d="M90 52l-4 6 14-1z"/><path fill="#1e1e1e" d="M47 41l1 2h4z"/><path fill="#434343" d="M79 65l8-9 7 4z"/><path fill="#7d7d7d" d="M25 28l-4-3-3 7z"/><path fill="#313131" d="M122 10l-5-20 18 31z"/><path fill="#151515" d="M34 35l9 8-16-2z"/><path fill="#3d3d3d" d="M24 27l10 18-11 3z"/><path fill="#767676" d="M54 22h-3l-1-8z"/><path fill="#222" d="M66 39h8l-10 3z"/><path fill="#c4c4c4" d="M44 36l9-10-5-14z"/><path fill="#424242" d="M101 38l13 7-9-9z"/></svg>