<svg xmlns="http://www.w3.org/2000/svg" viewBox="0 0 400 200"><style>@keyframes fadeIn{from{opacity: 0}to{opacity: 1}}g.animated&gt;*{opacity: 0;animation: fadeIn .5s forwards}</style><path fill="#494949" d="M0 0h400v200H0z"/><g class="animated"><path fill="#bcbcbc" d="M46-13l140 231-86-63 202-65z" style="animation-delay:0s"/><path d="M379 108L239 60l160-84 25 169zM65 76l49 10L-10-24 1 96zM98-24l24 52 71 21 98-69z" style="animation-delay:.25s"/><path fill="#b3b3b3" d="M303-24L230 86l-39-38 9-3z" style="animation-delay:.49s"/><path fill="#050505" d="M239 135L311 7l-37 177-99-40z" style="animation-delay:.74s"/><path fill="#d2d2d2" d="M120 41l10 100 25-25 20-81z" style="animation-delay:.97s"/><path fill="#8d8d8d" d="M269 224l52-141 103 52-69-3z" style="animation-delay:1.21s"/><path d="M424 135l-58-33-117-36 161-90z" style="animation-delay:1.43s"/><path fill="#7b7b7b" d="M191 156l31 68-139-4-65-88z" style="animation-delay:1.64s"/><path d="M-1 88L-9-16l88 69 15 21zm163-18l56 3-9 9-27 10zm-38-47l-23-36 180-1-80 60z" style="animation-delay:1.84s"/><path fill="#141414" d="M109 91l-46 13-65 20 127 16z" style="animation-delay:2.03s"/><path fill="#969696" d="M267 103l-51 41-49-1 62-20z" style="animation-delay:2.21s"/><path d="M413 39l-182 1 35 38 158 20z" style="animation-delay:2.37s"/><path fill="#8e8e8e" d="M296 81l98 34-39 8-110-34z" style="animation-delay:2.51s"/><path fill="#6d6d6d" d="M328 118l56 62-111 44-5-50z" style="animation-delay:2.64s"/><path fill="#8f8f8f" d="M63 34l77 10-52-68L16-9z" style="animation-delay:2.75s"/><path fill="#c9c9c9" d="M259 66l-51-27 24 24-42 41z" style="animation-delay:2.84s"/><path d="M278 150l32-46-110 53-62-12zM25 224l55-19-26-12-23-33zM182 63l49-63-103 41 45-65z" style="animation-delay:2.91s"/><path fill="#3b3b3b" d="M183 120l-20-8-31 17 185-67z" style="animation-delay:2.96s"/><path fill="#101010" d="M392 180l8-15 5 4-84-55z" style="animation-delay:2.99s"/></g></svg>