<svg xmlns="http://www.w3.org/2000/svg" viewBox="0 0 400 200"><path fill="#494949" d="M0 0h400v200H0z"/><path fill="#bcbcbc" d="M100 25l152 27-16 87-152-26z"/><path d="M449 20l-35 102-143-50 35-102zM-31-36L124 95l-38 45L-69 11zm173-16l89 49-34 60-88-49z"/><path fill="#b4b4b4" d="M47 7l39-31 97 119-39 31z"/><path fill="#949494" d="M205 189l-74 72-65-67 74-72z"/><path fill="#7c7c7c" d="M272 205l46-119 77 29-46 120z"/><path d="M286 95l24 34-75 55-25-34z"/><path fill="#a1a1a1" d="M208 77l-17-25 125-81 16 25z"/><path d="M402 94L253 76l6-47 149 19zM239-52l31 45-85 60-32-45zM-23 47l75-28 19 51-74 28zm193 20l41 2-2 19-40-3z"/><path fill="#767676" d="M3 118l-5-22 113-28 6 21z"/><path d="M353-18l96 51-47 90-97-51z"/><path fill="#b0b0b0" d="M246 108l-26-39 24-16 25 40z"/><path fill="#cacaca" d="M146 122l-19-8 32-81 19 7z"/><path d="M204 14l-75 26-13-37 75-26z"/><path fill="#a4a4a4" d="M291 102l7-21 63 22-7 21z"/><path fill="#020202" d="M86 105l26-8 13 40-26 8z"/><path d="M64 230l-43-49 14-13 43 50zM53 77L-4 98-49-25 9-46z"/><path fill="#676767" d="M179 149l-14-34 80-34 14 33z"/><path d="M399 171l-6 7-47-41 6-7z"/><path fill="#707070" d="M70 196l-48-46 29-29 47 46z"/><path fill="#303030" d="M109 84l-31-2 2-39 31 2z"/><path d="M147 151l1-11 84 7-1 11z"/><path fill="#515151" d="M354-14l7 15-119 59-8-16z"/><path fill="#a5a5a5" d="M141 174l-32-93 17-6 32 93z"/><path d="M285 161l-20 12-23-39 20-12z"/><path fill="#707070" d="M321 124l-6 73-41-4 7-73z"/><path fill="#040404" d="M317 207l-1-9 91-7v10z"/><path fill="#9d9d9d" d="M389 121l8-1 12 76-8 1z"/><path fill="#7d7d7d" d="M-17-50L127 59l-11 15L-29-35z"/><path d="M164 23l102-66 18 28-102 66zM64 99l4 8-46 27-4-8z"/><path fill="#a5a5a5" d="M221 139l-48 8-2-10 48-7z"/><path d="M338 84l-95-26 5-18 95 25z"/><path fill="#d2d2d2" d="M122 79l23-44 13 6-23 45z"/><path fill="#111" d="M166 120v-1l60-19v2z"/><path fill="#9f9f9f" d="M189 74l-8-10 91-71 8 10z"/><path d="M311 108l-4 15-38-8 3-15z"/><path fill="#c7c7c7" d="M246 65l-43 39-7-8 43-39z"/><path d="M84 71L39 84l-9-35 45-12z"/><path fill="#151515" d="M159 151l-49-20 1-3 49 20z"/><path fill="#c6c6c6" d="M150 126l66-15 1 5-66 15z"/><path fill="#3a3a3a" d="M196 138l-4-8 61-26 3 9z"/><path fill="#4c4c4c" d="M93 105l16 73-37 9-17-73z"/><path d="M210 72l4 7-25 13-4-7z"/><path fill="#515151" d="M232 149l19 42-72 34-19-43z"/><path fill="#333" d="M354 177l-13 15-28-24 14-15z"/><path d="M141 38L112 1l39-31 29 37zm167 3l45-34 47 63-45 34z"/><path fill="#404040" d="M383 11l36 33-13 15-36-32z"/><path fill="#909090" d="M27-13l17-23 100 76-17 22zm244 194l3-17 41 7-2 17z"/><path fill="#686868" d="M250 84l6-13 49 25-7 13z"/><path fill="gray" d="M73 86l-1 12-31-4 1-12z"/><path fill="#aaa" d="M209 113l43-22 3 7-43 22z"/><path d="M-44 31L11-9l47 65L3 95z"/><path fill="#0a0a0a" d="M261 181l-29-34 24-20 29 34z"/><path fill="#737373" d="M176 106l-28-72 3-1 27 72z"/><path fill="#7b7b7b" d="M344 185l74-10 2 10-74 11z"/><path d="M496 160L280 64l10-23 216 96z"/><path fill="#cacaca" d="M190 63l-5-4 11-14 5 4z"/><path fill="#3e3e3e" d="M212 79l-8-2 5-23 7 2z"/><path fill="#969696" d="M370 107l-10 23-26-11 10-23z"/><path fill="#cacaca" d="M154 36l15-4 6 24-15 4z"/><path fill="#0c0c0c" d="M157 109l12 7-3 5-12-7z"/><path d="M24 205l12-23 23 11-12 24zM174 5l44-38 31 36-43 38z"/><path fill="#ccc" d="M236 72l-19-23 8-6 19 23z"/><path fill="#0b0b0b" d="M209 127v2l-51 8v-2z"/><path fill="#1b1b1b" d="M97 148l-14-26 31-16 14 27z"/><path fill="#919191" d="M126 141l42 13-8 25-42-12z"/><path fill="#707070" d="M240 138l-11-7 17-29 11 6z"/><path fill="#202020" d="M212 106l40-22v2l-39 22z"/><path d="M314 140l-1 1-16-10 1-1z"/><path fill="#848484" d="M368 163l-8 10-36-28 8-10z"/><path d="M53 53l6-8 39 32-6 7zm205 2l44 6-3 20-43-6z"/><path fill="#5f5f5f" d="M244 56l-8-15 112-64 9 15z"/><path fill="#e9e9e9" d="M135 134l-7-1 1-9 8 1z"/><path d="M184 61l-4-1 3-10 4 1z"/><path fill="#080808" d="M187 155v-14l31-1v14z"/><path d="M386 180l-7-32 6-1 7 32z"/><path fill="#a3a3a3" d="M126 213l-39-19 4-8 39 18z"/><path fill="#8d8d8d" d="M362 105l1-3 30 17-2 3z"/><path fill="#696969" d="M174 61l28 10-3 7-28-10z"/><path fill="#555" d="M45 12l52 37-6 9-52-37z"/><path fill="#353535" d="M290 191l-15 5-4-14 15-4z"/><path fill="#b0b0b0" d="M47 135l11-1v8l-11 1z"/><path fill="#9f9f9f" d="M193 86l6 8-31 21-6-8z"/><path fill="#707070" d="M190 91l-1 9-34-5 1-9z"/><path fill="#5d5d5d" d="M40 142l-26 39-18-12 26-39z"/><path d="M469 121l-30 36L311 49l30-36zm-111 86l-3-12 14-3 3 12z"/><path fill="#3c3c3c" d="M122 27L89-19l3-3 33 46z"/><path d="M37 133l-17-4 4-14 16 4z"/><path fill="#606060" d="M140 134l2 11-43 7-2-11z"/><path fill="#6d6d6d" d="M45 168l38-14 9 23-38 15z"/><path fill="#303030" d="M214 177l3-25 55 7-3 25z"/><path fill="#030303" d="M286 137l-17 28-31-19 17-28z"/><path fill="#5d5d5d" d="M271 117l97 54-3 4-97-54z"/><path d="M134-6l80-1v39l-79 2z"/><path fill="#4c4c4c" d="M320 109l36 18-6 13-36-19z"/><path fill="#8e8e8e" d="M104 85l1 6-26 4-1-6z"/><path fill="#3e3e3e" d="M86 90l15 16-35 34-15-16z"/><path d="M163 150l-2-16 9-1 2 15z"/><path fill="#5f5f5f" d="M34 113l-6-28 24-5 6 27z"/><path fill="#111" d="M170 73l18 9-3 6-18-9z"/><path fill="#616161" d="M195 157l20 40-59 29-20-41z"/><path fill="#050505" d="M263 102l46 10-2 10-46-11z"/><path fill="#c9c9c9" d="M156 77l-16 2-4-42 16-2z"/><path fill="#cbcbcb" d="M78 205l-8-5 4-7 8 6z"/><path d="M376 147l-12 7-4-5 12-8z"/><path fill="#5d5d5d" d="M365 116l38 11-7 24-38-11z"/><path fill="#919191" d="M209 142l-1-2 47-30 1 1z"/><path fill="#0d0d0d" d="M201 124l2 8-9 2-2-8z"/><path fill="#727272" d="M1 96l17 13-17 22-17-13z"/><path fill="#787878" d="M124 78l-12 8-21-31 11-8z"/><path fill="#a3a3a3" d="M176 53l-9-13 6-4 8 13z"/><path d="M337 40l-9 47-38-6 8-48z"/><path fill="#939393" d="M175 131l-31-3 1-11 31 3z"/><path fill="#434343" d="M41 141l-14 61-17-4 14-61z"/><path fill="#b5b5b5" d="M252 78l-35-21 5-8 34 21z"/><path fill="#535353" d="M134 184l-8 10-40-30 8-10z"/><path fill="#404040" d="M235 141l-17 8-5-10 18-8z"/><path fill="#adadad" d="M200 103l-68-41 1-1 68 41z"/><path fill="#b3b3b3" d="M115 104l13-33 28 11-14 33z"/><path fill="#717171" d="M76-24l63 61-7 7-63-61z"/><path d="M112 128l-7-27 6-2 7 27z"/><path fill="#4c4c4c" d="M350 172l7-6 53 57-6 6z"/><path fill="#8d8d8d" d="M195 70l16-23 5 3-16 24z"/><path fill="#7b7b7b" d="M282 181l-2-19 40-4 2 19z"/><path fill="#cfcfcf" d="M127 123l1-1 22 16-1 1z"/><path fill="#454545" d="M285 227l43-67 13 9-43 66z"/><path fill="#8f8f8f" d="M275 208l-3-4 36-26 3 3z"/><path fill="#606060" d="M276 75v1l-94 38v-1z"/><path fill="#acacac" d="M203 135l16-7 2 4-16 7z"/><path d="M361 51l-5-52 16-1 4 51z"/><path fill="#202020" d="M188 134l37-12 1 2-37 11z"/><path fill="#898989" d="M31 3l20-26L80-1 60 25z"/><path fill="#525252" d="M156 56l18 17v1l-19-17z"/><path fill="#989898" d="M303 97l19-6 5 13-20 7z"/><path fill="#636363" d="M21 89l50-12 4 17-50 12z"/><path d="M-19-8l8-10 97 84-8 10z"/><path fill="#2f2f2f" d="M245 54l-2-7 67-22 2 8z"/><path fill="#636363" d="M86 115l-31 14-2-5 31-14z"/><path fill="#c4c4c4" d="M404 173l-2 7-7-1 1-8z"/><path fill="#a1a1a1" d="M183 61l55-41 2 2-55 41z"/><path d="M191 48L164 8l78-54 27 39z"/><path fill="#676767" d="M386 177l-87 19-2-6 87-19z"/><path d="M325 155h2l-4 11-1-1z"/><path fill="#525252" d="M183 147l23-9v1l-23 9z"/><path fill="#424242" d="M-8 112l-2-4 45-18 2 4z"/><path fill="#a9a9a9" d="M170 138l26-4 1 5-26 4z"/><path fill="#1f1f1f" d="M266 101l-30 16-1-1 31-16z"/><path fill="#191919" d="M131 133l-8 10-11-9 7-10z"/><path fill="#bdbdbd" d="M205 111l1 3-18 14-2-3z"/><path fill="#8e8e8e" d="M146 111l36-12 1 5-35 11z"/><path fill="#7a7a7a" d="M250 83l-45 22-4-8 45-22z"/><path fill="#343434" d="M381 122l-3 5-14-10 3-5z"/><path fill="#040404" d="M292 120l4-16 11 2-5 17z"/><path fill="#797979" d="M355 173l-22-12 10-19 22 11z"/><path fill="#898989" d="M40 159l-4-2 14-24 4 2z"/><path fill="#737373" d="M189 161l-9 22-27-11 9-22z"/><path fill="#4c4c4c" d="M161 136l-19-5 1-6 20 5z"/><path fill="#c4c4c4" d="M194 99l37-32 1 2-37 31z"/><path fill="#9c9c9c" d="M16-68L153 90l-5 4L11-64z"/><path fill="#404040" d="M57 100l-6 13-10-5 7-13z"/><path fill="#4f4f4f" d="M399 156l1 10-13 1-1-9z"/><path fill="#575757" d="M191 68l-20 13-7-10 19-13z"/><path d="M353 133l4 7-5 3-4-7z"/><path fill="#515151" d="M209 82l-1-1 19-18 1 1z"/><path d="M139-27l24 32-32 23-23-31z"/><path fill="#797979" d="M207 125l20-14 2 3-21 14z"/><path d="M365 206l-13-6 3-7 13 5z"/><path fill="#727272" d="M255 41l-14-22 86-58 15 22z"/><path fill="#464646" d="M208 103l2 4-39 14-1-5z"/><path fill="#c7c7c7" d="M124 77l38 24-3 5-38-24z"/><path fill="#020202" d="M252 58l34-12 7 19-34 12z"/><path fill="#818181" d="M129 124l-6 3-9-18 5-3z"/><path fill="#4f4f4f" d="M267 120l5-7 29 22-6 7z"/><path fill="#939393" d="M385 122l2-4 21 11-3 5z"/><path fill="#222" d="M343 172l14 2-1 6-14-2z"/><path fill="#9d9d9d" d="M150 168l-24-20 7-8 24 20z"/><path d="M199 86l-2-2 8-12 3 2z"/><path fill="#9b9b9b" d="M167 36l4-2 14 28-5 2z"/><path fill="#1d1d1d" d="M143 147l1-6 21 5-1 6z"/><path fill="#535353" d="M367 186l10-40 4 1-9 40z"/><path fill="#929292" d="M266 97l-11 5-7-16 12-5z"/><path fill="#7a7a7a" d="M147 191l-47-37 11-15 47 37z"/><path fill="#5c5c5c" d="M353 158l14-32 4 2-14 32z"/><path fill="#666" d="M280 88l44 25-3 4-43-25z"/><path fill="#020202" d="M227 152l50-47 1 1-50 47z"/><path fill="#222" d="M-2 149l29-35 1 1-28 35z"/><path d="M211 153l-29 4-1-8 29-4z"/><path fill="#939393" d="M255 75l-17-21 3-2 16 21z"/><path fill="#888" d="M93 50l16-30 18 9-16 31z"/><path fill="#323232" d="M63 128l8-13 37 24-9 13z"/><path fill="#454545" d="M154 52l2-9h1l-2 9z"/><path fill="#858585" d="M93 91l-5-4 5-8 5 4z"/><path fill="#b0b0b0" d="M186 54l19-11 1 1-19 12z"/><path fill="#2f2f2f" d="M336 126l-21-5 1-4 21 4z"/><path fill="#4b4b4b" d="M274 138l28-1 1 11-28 1z"/><path fill="#272727" d="M210 110l-1-2 36-19v1z"/><path fill="#bbb" d="M193 98l-18 8-1-2 19-8z"/><path fill="#0d0d0d" d="M52 121l-2-2 18-23 2 2z"/><path fill="#b7b7b7" d="M151 123l2-6 13 5-2 6z"/><path fill="#959595" d="M324 106l2-4 39 22-2 4z"/><path fill="#515151" d="M279 103l-23-23 4-4 23 24z"/><path fill="#232323" d="M321 146l-20-12 1-3 21 12z"/><path d="M12 88L2 41l53-12 10 48z"/><path fill="#ababab" d="M207 44l8-5 14 21-8 5z"/><path fill="#969696" d="M271 182l-3-6 13-6 3 5z"/><path fill="#0f0f0f" d="M411 37L354-9l15-20 57 46z"/><path fill="#dedede" d="M135 107l11 2-2 8-11-3z"/><path fill="#656565" d="M317 115l27 41-13 8-27-40z"/><path fill="#8e8e8e" d="M400 139l4 39h-6l-4-38z"/><path fill="gray" d="M158 142l-18-1 1-6 17 1z"/><path fill="#898989" d="M154 116l-1 1-34-28 1-1z"/><path d="M292 124l-13-17 2-2 14 17z"/><path fill="#8c8c8c" d="M352 215h-2l-3-34 1-1z"/><path fill="#1c1c1c" d="M326 18l44-30 5 8-44 30z"/><path fill="#030303" d="M380 191l-26 18-1-1 26-19z"/><path fill="#303030" d="M27 101l-9 6-3-4 10-5z"/><path fill="#5b5b5b" d="M-31 185l-5-8 91-57 5 8z"/><path fill="#303030" d="M207 108v-8h13l-1 8z"/><path fill="#5f5f5f" d="M241 125l1 1-32 17v-2z"/><path fill="#363636" d="M348 100l3-4 9 6-3 4z"/><path fill="#0d0d0d" d="M78 68v-2l34 18-1 1z"/><path d="M381 164l11 12-3 2-10-12zM179 84v-4h22v4zM43 216l-13-30 16-7 13 30z"/><path fill="#313131" d="M23 206l-5-3 17-42 5 3z"/><path fill="#cdcdcd" d="M170 63l-14-19 4-3 14 19z"/><path fill="#848484" d="M69 78l-5 15-3-1 5-15z"/><path fill="#4b4b4b" d="M183 131l19-8 1 1-19 8z"/><path fill="#444" d="M319 87v2l-40-9 1-2z"/><path fill="#6b6b6b" d="M268 97l1-11 25 3-2 11z"/><path fill="#8d8d8d" d="M234 75l2 4-37 28-3-3z"/><path d="M140 23l24-56 50 21-23 56z"/><path fill="#060606" d="M251 64l-1-1L398-6v1z"/><path fill="#828282" d="M12 100l1 1-14 22-2-1z"/><path d="M223-17l21 31-41 27-20-32zm144 172l6-7 2 1-5 8z"/><path fill="#343434" d="M253 124l-24 18-2-2 24-18z"/><path fill="#707070" d="M366 133l-62-2v-6l63 2z"/><path fill="#0b0b0b" d="M290 139l-23-12 1-2 23 13z"/><path fill="#909090" d="M48 139l10-6 5 8-10 6z"/><path fill="#8c8c8c" d="M303 188l1 1-56 22v-2z"/><path fill="#464646" d="M17-2l62 52-1 1L16-1z"/><path fill="#676767" d="M158 185l-2 14-109-13 2-14z"/><path fill="#a5a5a5" d="M175 44l-27-10 1-2 26 11z"/><path d="M395 163l3 1-7 13-3-2z"/><path fill="#696969" d="M160 93l28-1v4l-28 1z"/><path fill="#434343" d="M294 189l-41 16-1-4 40-17z"/><path fill="#636363" d="M287 0l44 2-1 9-43-2z"/><path fill="#9d9d9d" d="M231 128l-1-1 16-10 1 1z"/><path fill="#2d2d2d" d="M214 57l-10 19h-1l10-20z"/><path fill="#303030" d="M214 154v5l-39-2v-5z"/><path fill="#afafaf" d="M187 56l4-2 11 16-4 3z"/><path fill="#343434" d="M385 212l-6-13 32-13 5 13z"/><path fill="#7e7e7e" d="M184 118l-28 14-1-1 28-15z"/><path fill="#040404" d="M390 151l-13 20-3-2 13-20z"/><path fill="#888" d="M331 135l30 28-3 3-30-27z"/><path fill="#606060" d="M120 126l-1-8 12-1 2 7z"/><path fill="#525252" d="M70 33l41 57-2 1-40-58z"/><path fill="#545454" d="M76 106l-6 2-3-13 6-1z"/><path d="M283 52l88 37-6 14-88-37z"/><path fill="#d2d2d2" d="M239 63l-22 15-1-2 22-15z"/><path fill="#919191" d="M327 115l-12-4 6-24 12 3z"/><path d="M214 37l-7 4-10-17 7-4zM87 74l-44 2V62l44-2z"/><path fill="#575757" d="M357 217l-50-35 1-1 49 35z"/><path fill="#a6a6a6" d="M246 100l-22 12-2-4 21-12z"/><path fill="#c3c3c3" d="M146 37l12 31-14 6-13-31z"/><path fill="#1a1a1a" d="M203 150l-9-23h1l10 23z"/><path fill="#969696" d="M176 143v-1l18-2 1 1z"/><path d="M182 55l8-34 1 1-7 33z"/><path fill="#404040" d="M237 178l-9 9-23-26 9-9z"/><path fill="#b1b1b1" d="M169 64l-8-10 12-10 8 10z"/><path fill="#161616" d="M284 160v1l-63-13v-1z"/><path fill="#292929" d="M54 85l3-6 6 3-3 6z"/><path fill="#646464" d="M399 171l2 1-24 31-1-1z"/><path fill="#070707" d="M67 100l3 10-10 4-4-10z"/><path fill="#4e4e4e" d="M219 70v-1l10-7 1 2z"/><path fill="#404040" d="M-1 197l22-17 16 21-22 17z"/><path fill="#353535" d="M157 117l8-7 2 2-8 8z"/><path fill="#9c9c9c" d="M199 94l18-19 1 1-18 19z"/><path fill="#2a2a2a" d="M24 9l1-1 37 32-1 1z"/><path fill="#747474" d="M381 138l22 25-1 1-22-25z"/><path fill="#0b0b0b" d="M47 106l-16 25-1-1 16-25z"/><path fill="#393939" d="M393 39l-5 6-14-14 6-5z"/><path fill="#8c8c8c" d="M86 160h-1l-4-15h2z"/><path fill="#b4b4b4" d="M204 118v4l-25 3v-5z"/><path d="M99 82L58 52l1-1 41 29z"/><path fill="#3a3a3a" d="M303 106l-45-6v-2l45 7z"/><path fill="#717171" d="M377 161l-39 7v-3l38-7z"/><path fill="#797979" d="M179 134l25 4v1l-25-3z"/><path fill="#525252" d="M79 143l1 20-35 2-2-20zm16 16l-1-1 35-22v2z"/><path fill="#0b0b0b" d="M287 54l-27 16-8-13 27-16z"/><path fill="#e1e1e1" d="M137 127l1 7h-1l-2-7z"/><path fill="#313131" d="M87 78l-14 7-3-6 15-6z"/><path fill="#737373" d="M-20 104l59-20 1 1-59 20z"/><path fill="#3c3c3c" d="M325 146l-4-2 2-10 5 1z"/><path fill="#3a3a3a" d="M321 167l12-3 4 18-12 3z"/><path fill="#838383" d="M157 168l-3 9-44-15 3-9z"/><path fill="#767676" d="M144 84l-2 1-6-11 1-1z"/><path fill="#474747" d="M44 117l40 30-2 3-40-30z"/><path fill="#6f6f6f" d="M97 43l-2 2L30 3l1-3z"/><path d="M402 195v1l-6 2v-2z"/><path fill="#adadad" d="M122 203l-24-6v-2l25 7z"/><path fill="#2e2e2e" d="M371 18l7-12 6 3-7 12z"/><path fill="#959595" d="M173 95l-16-8 3-6 16 9z"/><path fill="#696969" d="M409 190l-1 3-71-10v-3z"/><path fill="#818181" d="M176 125l-11-13 1-1 11 13z"/><path fill="#919191" d="M306 187l-10 3-4-13 11-3z"/><path fill="#979797" d="M252 64l5 8-23 15-5-7z"/><path fill="#585858" d="M191 158l54 54-15 16-55-54z"/><path fill="#535353" d="M245 125l-1-1 19-16 1 1z"/><path d="M143 34L98-8l20-21 45 41z"/><path fill="#6a6a6a" d="M358 142l1-14h9v14z"/><path fill="#686868" d="M200 129l44-24 1 2-44 24zm15-28l-1-1 54-25 1 2z"/><path fill="#474747" d="M185 145l-12 4v-1l12-5z"/><path fill="#4c4c4c" d="M298 30l-47 13v-3l46-13z"/><path d="M223 152l-1-1 25-17 1 1zm209-65l-34 36-32-30 34-36z"/><path fill="#282828" d="M334 201l4-9 14 6-3 9z"/><path fill="#242424" d="M269 108l7-9 6 4-6 9z"/><path fill="#010101" d="M166 142l17 10v1l-18-10z"/><path fill="#555" d="M303 92l17-6 1 2-18 6z"/><path fill="#d0d0d0" d="M174 143h-2v-6h1z"/><path fill="#414141" d="M91 115l-3-14 11-2 2 14z"/><path fill="#272727" d="M91 95l2 9-20 3-2-9z"/><path fill="#7b7b7b" d="M182 86l9 2-3 12-9-2z"/><path fill="#6c6c6c" d="M322 111l-2 8-12-3 2-8z"/><path fill="#686868" d="M229 43l-2-3 11-6 2 3z"/><path fill="#4f4f4f" d="M205 164l-40-12v-1l41 11z"/><path fill="#767676" d="M207 144l-1-1 23-17 1 2z"/><path d="M267 107h2l-19 35-2-1zM32 85L0 94l-9-34 32-8z"/><path fill="#333" d="M348-17l9 6-19 30-9-6z"/><path fill="#5c5c5c" d="M356 128l-15 14-8-9 15-14z"/><path fill="#6f6f6f" d="M127 28l-1 3-30-14 2-3z"/><path fill="#a2a2a2" d="M228 48l-13 23-4-2 13-23z"/><path fill="#929292" d="M96 62h7v6h-8z"/><path fill="#717171" d="M41 171l2-4 30 20-2 4z"/><path fill="#b0b0b0" d="M121 67l11-13 14 12-11 13z"/><path fill="#8f8f8f" d="M378 111l-31 3-1-4 31-4z"/><path fill="#262626" d="M322 153l-1 20h-1l1-20z"/><path fill="#9c9c9c" d="M116 85h11v28h-11z"/><path fill="#6f6f6f" d="M129 100l4 4-1 1-4-4z"/><path fill="#494949" d="M413 207l-1 1-39-19 1-2z"/><path d="M186 52l-28-40 26-18 28 40z"/><path fill="#272727" d="M8 150l-4 2-11-19 4-2z"/><path fill="#2e2e2e" d="M359 144l1 10h-5l-1-9z"/><path fill="#454545" d="M161 140l-20 5v-2l19-5z"/><path fill="#828282" d="M161 133l-26-14 2-4 26 14z"/><path fill="#727272" d="M280 148l3-4 33 32-4 3z"/><path d="M359 10l17 14-52 62-17-14z"/><path fill="#4e4e4e" d="M200 182l-1-2 46-19 1 1z"/><path fill="#6b6b6b" d="M217 103v-1l17-10 1 1z"/><path fill="#0d0d0d" d="M274 145l10 14-9 7-10-14z"/><path d="M200 87l-4-7 9-6 4 7z"/><path fill="#a1a1a1" d="M186 122v1l-20 7-1-2z"/><path fill="#5b5b5b" d="M331 89l19 10-1 1-19-10z"/><path fill="#2b2b2b" d="M251 180l-4-3 16-21 4 3z"/><path fill="#686868" d="M114 65l-3 28h-1l3-28z"/><path fill="#878787" d="M44 167h-2l-3-20h2z"/><path d="M28 123l12 1v5l-13-1z"/><path fill="#5f5f5f" d="M205 208L51 170l2-8 153 39z"/><path fill="#252525" d="M374 139l-1 5-8-1 1-4z"/><path fill="#858585" d="M278-7l5 7-43 31-6-8z"/><path fill="#626262" d="M44 20l9-6 5 9-10 5z"/><path fill="#8d8d8d" d="M346 194l9-9 3 4-8 8z"/><path fill="#474747" d="M75 192l24 14-1 1-24-14z"/><path fill="#707070" d="M143 35v1l-31 6v-2z"/><path fill="#464646" d="M213 150l-1-1 18-10v1z"/><path d="M66 200h-3v-2l3 1zm146-58v2l-31 9-1-1z"/><path fill="#515151" d="M296 109l-6-7 3-3 6 7z"/><path fill="#131313" d="M162 132l1 2-14 1-1-1z"/><path fill="#3a3a3a" d="M222 126l35-24 1 2-35 23z"/><path fill="#525252" d="M278 197h-17v-11h17z"/><path fill="#9b9b9b" d="M201 136v-2l25-2v1z"/><path fill="#636363" d="M200 60l15 14-1 2-15-14z"/><path fill="#9c9c9c" d="M175 123l39-15v2l-39 15z"/><path fill="#0e0e0e" d="M103 125l9-30 3 1-9 30z"/><path fill="#959595" d="M154 142l-8-4 1-3 9 4z"/><path fill="#444" d="M186 108l-5-4 1-1 4 4z"/><path fill="#969696" d="M237 49l-1 1-24-10v-1z"/><path fill="#272727" d="M185 131l-15 4v-2l15-4z"/><path fill="#bfbfbf" d="M160 67l-3 23-10-2 4-23z"/><path fill="#d4d4d4" d="M238 61l-2 3-10-5 2-3z"/><path fill="#505050" d="M389 168l-3-1 8-40 3 1z"/><path fill="#939393" d="M363 117l2 9-14 3-2-10z"/><path fill="#4b4b4b" d="M91 49l4 2-6 14-5-2z"/><path fill="#525252" d="M57 99l-3 14-6-1 3-14z"/><path fill="#535353" d="M341 149l1 1-29 37-1-1z"/><path d="M183 58V47h1v11z"/><path fill="#838383" d="M174 50l-4-3 5-8 4 3z"/><path fill="#7e7e7e" d="M86 185l43 14-1 3-43-14z"/><path fill="#747474" d="M126 179v-6l59 6v6z"/><path fill="#6e6e6e" d="M92 84v1l-26 5v-2z"/><path d="M266 63l50 7-2 13-50-8z"/><path fill="#8c8c8c" d="M180 110v1l-37-4v-1z"/><path fill="#202020" d="M5 107H0v-3h5z"/><path fill="#363636" d="M172 122h5v1l-5 1z"/><path fill="#1d1d1d" d="M259 151l-34 16-1-1 34-16z"/><path fill="#8b8b8b" d="M156 148l12 17-7 4-11-17z"/><path fill="#606060" d="M68 218l-5-56h5l5 56z"/><path fill="#090909" d="M303 132l12 8-1 1-12-7z"/><path fill="#575757" d="M359 137l7-16 14 6-7 16z"/><path fill="#232323" d="M89 113l17 14-9 11-17-14z"/><path fill="#636363" d="M-7 175l29-46 2 1-29 46z"/><path fill="#464646" d="M252 184v2l-71-3v-1z"/><path fill="#040404" d="M351 146l1-13 5 1-1 12z"/><path fill="#8c8c8c" d="M120 32v-1l18 4v1z"/><path fill="#959595" d="M161 84l6-23 2 1-7 22z"/><path fill="#101010" d="M160 115l7 2v1l-8-2z"/><path fill="#010101" d="M282 130v6l-28 1v-6z"/><path fill="#323232" d="M47 185l-16-24h2l15 23z"/><path fill="#727272" d="M277 175l-4-3 8-11 4 3z"/><path fill="#676767" d="M149 109l2-1 4 6-1 1z"/><path fill="#4b4b4b" d="M-3 120l1-3 22 6v3z"/><path fill="#d4d4d4" d="M402 180h-2l-3-5 1-1z"/><path fill="#949494" d="M108 32l-9 9-68-71 9-9z"/><path fill="#373737" d="M397 159l-1 7-11-1 2-8z"/><path fill="#2e2e2e" d="M214 105v1l-29 9-1-1z"/><path fill="#525252" d="M161 96l-2-3 7-3 1 3z"/><path fill="#6c6c6c" d="M283 89l-41 19-1-1 41-20z"/><path fill="#939393" d="M294 95l9-11 1 1-8 11z"/><path fill="#787878" d="M237 111l-34 13v-2l33-13z"/><path fill="#6e6e6e" d="M170 122l61-34 1 1-62 34z"/><path fill="#0c0c0c" d="M106 121l22 11-1 2-22-12z"/><path fill="#a1a1a1" d="M179 142l-8-5 1-2 9 4z"/><path fill="#2a2a2a" d="M156 52h-2l1-6h2z"/><path fill="#858585" d="M116 169v-2l33 16-1 1z"/><path fill="#717171" d="M112 106l1-42h1v42z"/><path fill="#a0a0a0" d="M228 44l28 32-1 1-28-32z"/><path fill="#595959" d="M184 70l16 2-1 6-16-2z"/><path fill="#474747" d="M163 138l1 2-13 5-1-2z"/><path fill="silver" d="M146 92l4 5-16 16-5-5z"/><path fill="#4c4c4c" d="M90-24l36 49-2 1-35-49z"/><path fill="#787878" d="M277 36h-5l3-33h4z"/><path fill="#707070" d="M277 211l41-25 1 1-42 26z"/><path fill="#393939" d="M305 31l-3-11 19-6 4 11z"/><path fill="#7d7d7d" d="M231 90l-15 14-5-5 16-14z"/><path fill="#555" d="M35 136l36-22 2 4-36 22z"/><path fill="#222" d="M93 137l-8 16-1-1 7-15z"/><path fill="#5a5a5a" d="M349 199l-2 1-16-25 1-1z"/><path fill="#a9a9a9" d="M218 81l3 5-31 16-3-6z"/><path fill="#b2b2b2" d="M149 118v-1l19 7v1z"/><path fill="#787878" d="M360 148l11 26-2 1-10-26z"/><path fill="#2f2f2f" d="M27 119l-1-2 24-12v1z"/><path fill="#a8a8a8" d="M172 114h-6l1-8 6 1z"/><path d="M391 200h-8v-2h8zM220 24l-8 13-21-13 8-13z"/><path fill="#505050" d="M41 16l-2 2L17 1l2-2z"/><path fill="#686868" d="M21 116l-4-4 32-30 4 5z"/><path fill="#bababa" d="M164 51l17-5v2l-16 4z"/><path fill="#6a6a6a" d="M415 150l-36-21 4-8 37 20z"/><path fill="#b1b1b1" d="M159 33v1l-16 7-1-2z"/><path fill="#5d5d5d" d="M40 128l5-10 4 2-5 10z"/><path fill="#3a3a3a" d="M141 130l1-3 6 1-1 3z"/><path fill="#010101" d="M325 75l-2 1-24-47h1z"/><path fill="#777" d="M319 163v11l-24-1 1-11z"/><path fill="#a7a7a7" d="M148 162l-18-9 2-4 18 9z"/><path fill="#2e2e2e" d="M109 82l-35-2v-1l35 2z"/><path fill="#333" d="M176 68l6 6-10 10-5-6z"/><path fill="#7a7a7a" d="M137 142h-2l-8-13 2-1z"/><path fill="#818181" d="M327 133l-8 1-1-9 8-1z"/><path fill="#090909" d="M249 45l1-1 9 16-1 1z"/><path fill="#5c5c5c" d="M189 140v5l-4 1-1-5z"/><path fill="#121212" d="M221 124v1l-6 3v-2z"/><path fill="#494949" d="M257 76l14 17-2 1-13-17z"/><path fill="#313131" d="M214 144l38-22 1 1-38 22z"/><path fill="#6b6b6b" d="M378 107h2l-4 28h-1z"/><path fill="#878787" d="M87 36l-3-2 31-68 2 1z"/><path fill="#bebebe" d="M164 96l-3 7h-1l3-8z"/><path fill="#474747" d="M107 161l-1-11h1l1 11z"/><path fill="#3f3f3f" d="M324 112l1-1 6 13-1 1z"/><path fill="#1e1e1e" d="M305 121l1 2-13 2v-2z"/><path fill="#4b4b4b" d="M374 137h2l2 34h-2z"/><path fill="#b8b8b8" d="M199 58l-5 4-7-9 5-4z"/><path fill="#090909" d="M374 153l-6 4-6-11 6-4z"/><path fill="#8e8e8e" d="M244 87l17 1v8l-18-1z"/><path fill="#575757" d="M303 129l-30-2 1-5 29 2z"/><path fill="#727272" d="M235 126l27-21 1 1-27 22z"/><path fill="#010101" d="M369 6V1l32-5 1 5z"/><path fill="#8d8d8d" d="M268 198l6 1v2l-6-2z"/><path fill="#a8a8a8" d="M311 95l13-2 1 4-13 3z"/><path fill="#aaa" d="M168 119h31v2l-31-1z"/><path fill="gray" d="M131 96l-1 1-9-7 1-1z"/><path fill="#787878" d="M345 118l1 6-8 1-1-7z"/><path d="M348 203v-2l21-5v1z"/><path fill="#7e7e7e" d="M70 21L35 9l3-9 35 12z"/><path fill="#393939" d="M347 140l1-1 10 10-1 1z"/><path fill="#7f7f7f" d="M204 52l4-2 6 9-4 2z"/><path d="M170 136l-3 12-1-1 3-12z"/><path fill="#575757" d="M347 185l1 1-25 21-1-1z"/><path fill="#7a7a7a" d="M5 128l-1 1-7-21 1-1z"/><path fill="#101010" d="M267 153l-21 16-2-2 21-16z"/><path fill="#525252" d="M177 73l-11 7-1-2 11-6z"/><path fill="#0c0c0c" d="M184 132l15-1v1l-15 1z"/><path fill="#727272" d="M169 102l-1-2 27-13 1 2z"/><path fill="#8a8a8a" d="M90 93l2-11 5 1-3 11z"/><path fill="#020202" d="M174 149l-19-1 1-2 18 2z"/><path fill="#3a3a3a" d="M316 126l-2-3 12-10 2 3z"/><path d="M372 106l-24-12 13-29 24 11z"/><path fill="#898989" d="M310 180h-37v-5h37z"/><path fill="#7c7c7c" d="M212 141l15-16 1 1-15 16z"/><path fill="#5a5a5a" d="M273 37l29-52 1 1-28 52z"/><path fill="#7c7c7c" d="M179 105l31-4v2l-31 4z"/><path fill="#a8a8a8" d="M347 105l-9-7 1-1 9 6z"/><path fill="#454545" d="M186 137h2l-1 6h-1z"/><path fill="#010101" d="M334 33l-1 28-25-1 1-28z"/><path fill="#585858" d="M212 69l-2 8-5-1 2-8z"/><path fill="#6d6d6d" d="M411 182l-47 11-1-5 47-11z"/><path fill="#535353" d="M91 82l1 1-31 18-1-1z"/><path fill="#b7b7b7" d="M211 131l2 2-6 7-3-3z"/><path fill="#868686" d="M66 93l2-7h2l-2 8z"/><path fill="#494949" d="M217 108v-1l20-14 1 1z"/><path fill="#0b0b0b" d="M46 112l1 3-25 12-2-3z"/><path fill="#070707" d="M321 167l3-11 3 1-3 10z"/><path fill="#333" d="M328 158h3l-2 20h-3z"/><path fill="#565656" d="M277 152l22-13v1l-21 13z"/><path fill="#1b1b1b" d="M9 127h1l5 10h-2z"/><path fill="#cdcdcd" d="M200 50l3 3-1 2-3-4z"/><path fill="#9c9c9c" d="M115 156l1-1 11 9-1 1z"/><path fill="#6b6b6b" d="M147 180l1 4-43 13-2-5z"/><path fill="#c3c3c3" d="M234 65l1 2-24 22-1-1z"/><path fill="#4b4b4b" d="M193 105l3 4-12 10-3-4z"/><path fill="#575757" d="M390 142l-85-21v-2l85 21z"/><path fill="#5a5a5a" d="M363 107l-2 4-1-1 2-4z"/><path fill="#484848" d="M241 125l1 1-12 10-1-1z"/><path fill="#6b6b6b" d="M221 93l52-17 1 1-52 17z"/><path fill="#434343" d="M87 132l-1 16-21-1v-15z"/><path fill="#585858" d="M354 172l20-2 2 15-20 3z"/><path fill="#747474" d="M141 123l26 7v1l-26-6z"/><path fill="#0a0a0a" d="M335 14l5 4-8 10-5-4z"/><path fill="#bababa" d="M197 112l9 1-1 8-9-1z"/><path fill="#6f6f6f" d="M178 67l3-5 14 7-3 5z"/><path fill="#757575" d="M340 142v8h-16v-8z"/><path fill="#505050" d="M316 137l8 12-4 3-8-12z"/><path fill="#666" d="M116 144l9-3 4 14-9 2z"/><path fill="#494949" d="M331 188v10h-7v-10z"/><path fill="#9a9a9a" d="M168 43l-6-2 3-8 6 3z"/><path fill="#585858" d="M242 57l-7-7 9-8 7 6z"/><path fill="#181818" d="M202 131v2l-9-3v-2z"/><path fill="#3d3d3d" d="M31 93v-1l11-6 1 2z"/><path fill="#6f6f6f" d="M98-1v5L76 2v-4z"/><path d="M200-29l-5 64-62-4 5-64z"/><path fill="#020202" d="M321 198l6 1v1h-6z"/><path fill="#222" d="M243 149v3l-22 4v-3z"/><path fill="#8b8b8b" d="M202 61l1-20h3l-1 20z"/><path fill="#d5d5d5" d="M138 134l-1-2 5-2v2z"/><path fill="#060606" d="M382 151l6 1-3 20-6-1z"/><path fill="#adadad" d="M180 137h4v6h-4z"/><path fill="#888" d="M349 100v2l-34-13 1-2z"/><path fill="#414141" d="M204 192v-1l22 3v1z"/><path fill="#c3c3c3" d="M161 53l-3 3-1-1 2-3z"/><path fill="#949494" d="M233 77l-5 15-3-1 5-15z"/><path fill="#616161" d="M321 193l-4 7-15-10 5-7z"/><path fill="#606060" d="M347 171l-22-14 1-2 22 15z"/><path fill="#6e6e6e" d="M165 109l-1 1-6-5 1-1z"/><path fill="#565656" d="M381 195l-9 9-1-1 9-9z"/><path fill="#595959" d="M4 141l-1-1 7-14 1 1z"/><path fill="#a0a0a0" d="M121 92h-3l3-17 3 1z"/><path fill="#7e7e7e" d="M343 113l-16-13 3-5 17 12z"/><path fill="#646464" d="M172 175l11-18 12 7-10 18z"/><path fill="#303030" d="M114 109l-36-2v-2l36 3z"/><path fill="#797979" d="M172 81l-7 9-1-1 7-9z"/><path fill="#3e3e3e" d="M323 184l-1-1 29-13v2z"/><path fill="#616161" d="M291 153l9-16 17 9-9 16z"/><path fill="#151515" d="M310 35l-61 24-1-1 61-25z"/><path fill="#272727" d="M34 185l14-10 1 1-14 10z"/><path fill="#404040" d="M274 140l-1 1-2-5h1z"/><path fill="#8a8a8a" d="M370 112l3-4 5 4-3 4z"/><path fill="#767676" d="M368 159l4 12-7 3-4-12z"/><path fill="#3f3f3f" d="M210 178l75 7v1l-75-7z"/><path fill="#3c3c3c" d="M150 130l-4 2-1-1 4-2z"/><path fill="#212121" d="M305 82l-11 1v-1l11-1z"/><path d="M243 12L233-2l13-9 10 14z"/><path fill="#525252" d="M243 108l3 3-10 8-2-4z"/><path fill="gray" d="M98 10h1l20 94-1 1z"/><path fill="#585858" d="M361 101l-10 4-1-1 10-5z"/><path fill="#7f7f7f" d="M271 175l1-6 37 4-1 7z"/><path fill="#020202" d="M254 139l23 4-1 7-23-4z"/><path d="M337 202l-3-3 2-2 3 3z"/><path fill="#686868" d="M291 84l1-3 19 12-2 2z"/><path fill="#4c4c4c" d="M279 88l1-7 11 1-1 8z"/><path fill="#afafaf" d="M222 32l2-6 6 3-3 6z"/><path fill="#2f2f2f" d="M114 129l3 9-14 3-2-9z"/><path fill="#969696" d="M156 113l-24-11 1-1 24 11z"/><path fill="#515151" d="M45 137l-31 47-11-7 32-47z"/><path fill="#5f5f5f" d="M30 135l3 8-20 8-4-8z"/><path fill="#474747" d="M97 139l5 18-7 2-5-18z"/><path fill="#3b3b3b" d="M252 154l1 1-29 21-1-1z"/><path fill="#414141" d="M188 86l1-2 9 4-1 1z"/><path fill="#b7b7b7" d="M206 46v-1l21 7v2z"/><path fill="#505050" d="M115 13l20 18-1 1-20-18z"/><path fill="#2d2d2d" d="M6 149l-1-1 12-24 1 1z"/><path fill="#8a8a8a" d="M332 193l-2-1 2-2 2 1z"/><path fill="#7b7b7b" d="M149 34l2-1 8 13-2 1z"/><path fill="#636363" d="M388 167l9-14h1l-9 15z"/><path fill="#757575" d="M399 153l-1 24-2-1 2-23z"/><path fill="#888" d="M56 147l-2-1 8-10 1 1z"/><path fill="#797979" d="M240 27l-5-3 4-8 6 3z"/><path fill="#5a5a5a" d="M189 127l2 2-3 5-3-2z"/><path fill="#979797" d="M382 121l9-4v1l-8 4z"/><path fill="#c8c8c8" d="M166 54l-11-14 3-2 10 14z"/><path fill="#787878" d="M62 186l1-2 67 29v1z"/><path fill="#8d8d8d" d="M237 21l5 6-15 16-5-6z"/><path fill="#777" d="M248 89l-2-1 11-16 1 1z"/><path fill="#313131" d="M170 133l-10 2-1-1 11-2z"/><path fill="#282828" d="M266 100l-14 9-1-1 15-9z"/><path d="M342 28l3-5 83 47-3 6z"/><path fill="#ababab" d="M147 87l11-4 2 7-10 4z"/><path fill="#bababa" d="M185 122l-2 2-7-3 2-3z"/><path fill="#0d0d0d" d="M111 109l9 17-7 4-9-17z"/><path fill="#909090" d="M130 32l-9 9-5-6 8-9z"/><path fill="#7f7f7f" d="M335 161l1-1 18 9-1 1z"/><path fill="#0d0d0d" d="M-2 200l1-3 5 2-2 3z"/><path fill="#1b1b1b" d="M87 65l-2 1-8-14h2z"/><path fill="#202020" d="M370 12l3-5 49 26-3 6z"/><path fill="#505050" d="M385 110l-7 19h-2l7-19z"/><path fill="#787878" d="M367 140l-6 1-1-1 6-2z"/><path fill="#565656" d="M62 126l-2-3 36-16 1 3z"/><path fill="#acacac" d="M167 82l2-1 6 7-1 1z"/><path fill="#5c5c5c" d="M137 36l1 2-8 2v-1z"/><path fill="#585858" d="M239 195l-23 19-9-11 23-19z"/><path fill="#7d7d7d" d="M170 66l1 2-8 5-1-2z"/><path fill="#a5a5a5" d="M111 52l-1-1 40-17 1 1z"/><path fill="#9a9a9a" d="M301 93l-2 1-4-7 1-1z"/><path fill="#252525" d="M71 107l3 2-6 8-3-3z"/><path fill="gray" d="M120 103l5 3-3 5-5-3z"/><path fill="#7d7d7d" d="M275 93h-1l3-9h1z"/><path fill="#b8b8b8" d="M254 74l-4-1 1-5 4 1z"/><path fill="#515151" d="M75 185l1 1-9 9-1-1z"/><path fill="#505050" d="M260 74l-1 1-14-19 1-1z"/><path fill="#242424" d="M23 101l1 1-4 5-2-1z"/><path fill="#434343" d="M267 81l8 5-3 4-8-6z"/><path fill="#686868" d="M352 102h4l-1 10h-3z"/><path d="M48 184l4 9-11 6-4-9z"/><path fill="#424242" d="M75 96l3 21-4 1-4-21z"/><path fill="#5e5e5e" d="M111 17l8-2 3 7-8 3z"/><path fill="#020202" d="M271 127l-25 23-6-6 25-24z"/><path fill="#d0d0d0" d="M147 113l-1 6-11-2 2-6z"/><path fill="#555" d="M240 133l-1-1 7-5 1 2z"/><path fill="#767676" d="M225 118l-32 8-1-2 32-7z"/><path fill="#6f6f6f" d="M348 133l-3-4 9-4 2 4z"/><path fill="#323232" d="M379 21l25 28-3 3-25-28z"/><path fill="#282828" d="M304 130l-5 3-2-2 6-3z"/><path fill="#3a3a3a" d="M307 106h2l-2 11h-1z"/><path fill="#484848" d="M197 72l2 1-4 7-1-1z"/><path fill="#515151" d="M307 14l7-8 9 7-7 8z"/><path fill="#757575" d="M205 104l1 1-6 2-1-1z"/><path fill="#afafaf" d="M153 40l2 11-6 1-2-11z"/><path fill="#6f6f6f" d="M179 146l6-1v1l-6 1z"/><path fill="#8a8a8a" d="M176 63h-1l3-12h2z"/><path fill="#676767" d="M133 173l1-1 37 16v1z"/><path fill="#8d8d8d" d="M135 56l-4 5-11-9 4-5z"/><path fill="#9d9d9d" d="M357 123l12-17 1 1-12 17z"/><path fill="#787878" d="M199 90l8-8 1 2-8 7z"/><path fill="#272727" d="M209 81l-2-1 5-6 1 1z"/><path fill="#222" d="M265 104l9-3 3 12-9 3z"/><path fill="#6d6d6d" d="M152 52l2-12h1l-1 12z"/><path fill="#161616" d="M217 103v3l-7 2-1-3z"/><path fill="#888" d="M250 63l-1 1-29-28 1-1z"/><path fill="#737373" d="M302 127l4-5 9 6-4 5z"/><path fill="#717171" d="M119 156l-1-1 18-22 1 1z"/><path fill="#2d2d2d" d="M388 156v5h-3v-5z"/><path fill="#8b8b8b" d="M54 185l-1 1-5-3 1-2z"/><path fill="#545454" d="M174 121l-1-2 14-7 1 2z"/><path fill="#666" d="M41 92l6 9-18 12-6-9z"/><path fill="#505050" d="M204 99l2-2 7 5-2 3z"/><path fill="#6a6a6a" d="M56 144l-3 5-7-4 3-5z"/><path fill="#070707" d="M299 119l-5-10 9-4 4 10z"/><path fill="#575757" d="M176 45l-1-1v-3l2 1z"/><path fill="#515151" d="M129 181l-1 2-39-16v-1z"/><path fill="#afafaf" d="M160 125l-22-19 1-1 22 19z"/><path fill="#3c3c3c" d="M311 17l3 4-30 17-2-4z"/><path fill="#9b9b9b" d="M119 110l22 8-2 4-22-7z"/><path fill="#323232" d="M268 50l-11 1-1-6 11-1z"/><path fill="#555" d="M184 70l-2 3-11-7 1-3z"/><path fill="#353535" d="M246 198v-2l19 2v1z"/><path fill="#464646" d="M18 208l-10 2-9-35 11-2z"/><path fill="#9d9d9d" d="M348 101l6 18-3 1-6-18z"/><path fill="#444" d="M50 98l-13 16-1-1 13-16z"/><path fill="#030303" d="M287 122l-10-5 3-6 10 5z"/><path fill="gray" d="M217 115l39-18v2l-38 18z"/><path fill="#686868" d="M155 53l5 7-1 1-5-7z"/><path fill="#a9a9a9" d="M168 104l-1-1 23-5v1z"/><path fill="#656565" d="M219 196l-68 8v-2l68-7z"/><path fill="#434343" d="M383 144l2 4-7 3-2-4z"/><path fill="#6b6b6b" d="M106 87l3 7-4 2-3-7z"/><path fill="#787878" d="M206 63l-2 4-6-3 3-4z"/><path fill="#959595" d="M160 56l10 10-1 1-10-10z"/><path d="M299 74l-40 3v-3l40-3z"/><path fill="#4a4a4a" d="M15 105l-1-2 29-15 1 1z"/><path fill="#aaa" d="M186 120l-3 9-2-1 3-8z"/><path fill="#787878" d="M304 9l-3-4 12-12 3 3z"/><path fill="#898989" d="M256 12l3 3-16 21-4-3z"/><path fill="#0e0e0e" d="M351 174l1 2-5 2v-2z"/><path fill="#6e6e6e" d="M48 19l44 22-1 1-43-22z"/><path fill="#aeaeae" d="M152 65l7-3 6 15-7 3z"/><path fill="#3b3b3b" d="M207 172v-2l34-18 1 1z"/><path fill="#1a1a1a" d="M157 148l-1-3 13-4 2 3z"/><path fill="#cbcbcb" d="M155 57l1 6h-16v-6z"/><path fill="#a9a9a9" d="M128 123l6 11-1 1-6-11z"/><path fill="#7a7a7a" d="M160 179l-16-15 4-4 15 15z"/><path fill="#4e4e4e" d="M81 140l2 6-28 9-2-6z"/><path fill="#373737" d="M191 125l1-1 12 6v1z"/><path fill="#828282" d="M224 129l-1 8-8-2 1-8z"/><path fill="#090909" d="M219 148l1 4-41 2v-5z"/><path fill="#292929" d="M21 128l4-1 2 6-4 1z"/><path fill="#777" d="M304 90l5-7 1 1-5 6z"/><path fill="#4d4d4d" d="M337 121l11 19h-2l-11-19z"/><path fill="#3e3e3e" d="M25 165l6 1-4 23-6-1z"/><path fill="#3f3f3f" d="M52 200v-2l7 1v1z"/><path fill="#454545" d="M372 193l-17 1v-1l17-1z"/><path fill="#505050" d="M221 171l-4 15-8-2 4-15z"/><path fill="#3b3b3b" d="M64 34l-1 3-16-10 1-3z"/><path fill="#4e4e4e" d="M157 112v5h-3v-4z"/><path fill="#959595" d="M111 27l4 34-3 1-4-34z"/><path fill="#898989" d="M38 160v-9h4v9z"/><path fill="#010101" d="M16 23L2-19l9-3 13 42z"/><path fill="#5b5b5b" d="M22 2l1-1 47 36-1 1z"/><path fill="#a5a5a5" d="M342 118l-1 1-6-7 1-1z"/><path fill="#2a2a2a" d="M253 8l-1-1 9-8 2 2z"/><path fill="#787878" d="M180 124l-1 2-4-2 1-1z"/><path fill="#565656" d="M266 42l-1-1 83-54 1 2z"/><path fill="#212121" d="M87 78l2 1-3 4-1-1z"/><path fill="#3d3d3d" d="M233 179l-1-1 28-15v2z"/><path d="M38 80l-1-6 52-9 1 7z"/><path fill="#5d5d5d" d="M42 155l27 11-3 9-28-11z"/><path fill="#a1a1a1" d="M240 102l1 2-17 2-1-2z"/><path fill="#646464" d="M121 118l4-1 3 7-5 2z"/><path fill="#565656" d="M160 59l5 8-1 1-5-8z"/><path fill="#bababa" d="M122 96l1-1 10 4-1 2z"/><path fill="#7a7a7a" d="M326 139l4-6 17 11-3 5z"/><path fill="#4a4a4a" d="M330 185l-24 1v-4h24z"/><path fill="#555" d="M45 181l9-2v1l-9 2z"/><path fill="#979797" d="M99 188v1l-6 3v-2z"/><path fill="#020202" d="M57 199l-29-14 1-1 28 13z"/><path fill="#a9a9a9" d="M133 46l6 2-2 7-6-1z"/><path fill="#4b4b4b" d="M298 150l-11-16 1-1 11 16z"/><path fill="#656565" d="M175 135v-2l11 3v1z"/><path fill="#4a4a4a" d="M322 16l25-28 1 1-25 28z"/><path fill="#a0a0a0" d="M221 65l6-5 1 1-6 5z"/><path fill="#7c7c7c" d="M388 148h-2l-3-7h1z"/><path fill="#5d5d5d" d="M12 158l-8 10-14-12 7-10z"/><path fill="#6a6a6a" d="M324-1l3 2-6 8-2-2z"/><path fill="#7f7f7f" d="M291-18l-48 39-1-2 48-38z"/><path fill="#323232" d="M212 65l-11 11-2-2 11-10z"/><path fill="#686868" d="M98 181l-25 12-4-7 26-12z"/><path fill="#cbcbcb" d="M397 175l2-2 3 4-3 2z"/><path fill="#7f7f7f" d="M216 107l7-1v1l-7 1z"/><path fill="#686868" d="M362 178l1 1-61 13-1-1z"/><path fill="#696969" d="M310 108l20 3-1 4-20-2z"/><path fill="#5d5d5d" d="M78 82l7 1-2 11-7-1z"/><path fill="#919191" d="M53-5l19-7 7 19-18 7z"/><path fill="#909090" d="M339 146l1-1 13 13-1 2z"/><path fill="#848484" d="M292 197l-1-2 18-15 1 1z"/><path fill="#5f5f5f" d="M152 128v1l-12-2v-1z"/><path fill="#909090" d="M155 135l1 1-6 3-1-2z"/><path fill="#494949" d="M220 140l1 1-5 8-1-1z"/><path fill="#8d8d8d" d="M214 53l-1 2-16-10 1-1z"/><path fill="#383838" d="M182 47l-1 2h-2l1-3z"/><path fill="#545454" d="M232 199v-3l31-9 1 3z"/><path fill="#232323" d="M242 128l1 1-17 14-1-1z"/><path fill="#262626" d="M54 122h-2l-7-17 1-1z"/><path fill="#424242" d="M281 184l2-3 9 9-2 2z"/><path fill="#aaa" d="M187 60l1-2 11 9-1 1z"/><path fill="#919191" d="M182 108v2l-16-4 1-1z"/><path fill="#161616" d="M216 143l-1 7h-5l2-8z"/><path fill="#343434" d="M57 101l2 1-5 8-2-1z"/><path fill="#7a7a7a" d="M254 14l-21 13-1-2 21-13z"/><path fill="#5a5a5a" d="M252 103l-32 22-1-1 32-23z"/><path fill="#8e8e8e" d="M105 151l-1 3h-1v-3z"/><path fill="#818181" d="M187 117l-3 3-1-1 3-3z"/><path fill="#404040" d="M105 99l-18 8-3-7 18-8z"/><path fill="#0c0c0c" d="M173 79l6 5-1 1-6-5z"/><path fill="#545454" d="M168 114l1-1 5 6-1 1z"/><path fill="#9f9f9f" d="M214 43l-22 8-1-1 22-9z"/><path fill="#565656" d="M247 85l-1 5-6-2v-4z"/><path fill="#c3c3c3" d="M128 71l19 24-1 1-20-24z"/><path fill="#454545" d="M43 120h2l-21 56-1-1z"/><path fill="#646464" d="M350 120l-35 19v-1l34-19z"/><path fill="#181818" d="M46 185l20 14-1 2-20-15z"/><path fill="#7e7e7e" d="M123 124l-2-6h1l2 6z"/><path fill="#444" d="M112 92L98 76l1-1 14 16z"/><path fill="#7c7c7c" d="M30 89l3-5h1l-3 6z"/><path fill="#a0a0a0" d="M391 124v-2l4 3v1z"/><path fill="#5e5e5e" d="M164 62l-4 1-1-1 5-2z"/><path fill="#6a6a6a" d="M214 75v5h-1l-1-5z"/><path fill="#535353" d="M152 191v-1l28 2v1z"/><path fill="#333" d="M173 119l-1-1 10-8 1 2z"/><path fill="#848484" d="M334 103v2l-32-4v-1z"/><path fill="#9e9e9e" d="M92 26l19 14-1 1-19-13z"/><path fill="#747474" d="M118 16l-2 2-10-7 1-3z"/><path fill="#4a4a4a" d="M85 46l8 7-2 3-8-8z"/><path fill="#767676" d="M238 83l1 1-13 13-1-1z"/><path fill="#b1b1b1" d="M217 90l-6-9 2-1 5 10z"/><path fill="#727272" d="M197 141l-5-3 3-6 5 4z"/><path fill="#242424" d="M170 80l1-2 26 3v2z"/><path fill="#3c3c3c" d="M81 79l-1-1 9-2 1 1z"/><path fill="#686868" d="M269 31l47-30 1 1-47 31z"/><path fill="#838383" d="M79-10L68 31l-2-1 12-40z"/><path fill="#717171" d="M319 170l-33 1v-14l32-1z"/><path fill="#2d2d2d" d="M94 122l-36 9-1-2 37-8z"/><path fill="#878787" d="M199 96l17 2-1 2-17-3z"/><path fill="#323232" d="M263 111l-17 18-1-1 17-18z"/><path fill="#040404" d="M257 56l11 13-5 4-11-13z"/><path fill="#4d4d4d" d="M388 196l-15 2v-2l15-2z"/><path fill="#8c8c8c" d="M94 84l8 4-1 2-8-5z"/><path fill="#adadad" d="M161 102l1 2-22 5v-2z"/><path fill="#8e8e8e" d="M81 37l3-10h2l-3 11z"/><path fill="#4b4b4b" d="M253 49l-4-7 19-11 4 7z"/><path d="M47 56l19-13 11 15-19 13z"/><path fill="#444" d="M7 119l2 20H7l-2-20z"/><path fill="#474747" d="M289 188l-13 11-1-1 13-11z"/><path fill="#5c5c5c" d="M343 158l-1 1-70-37v-2z"/><path fill="#919191" d="M146 119l-1 6-14-2 1-6z"/><path fill="#010101" d="M57 73l2 5-2 1-2-6z"/><path fill="#7e7e7e" d="M58 182l-1 1-14-17 1-1z"/><path fill="#626262" d="M368 181l-20 19-1-1 19-20z"/><path fill="#414141" d="M163 142l-1 1-5-8 1-1z"/><path fill="#757575" d="M185 146v-2l3-1v2zm182 16l-10-6 3-4 9 6z"/><path fill="#7d7d7d" d="M55 140l-5-6 3-3 5 6z"/><path fill="#404040" d="M375 122l-7 4-3-6 6-4z"/><path fill="#676767" d="M65 124l-4-8 1-1 4 8z"/><path fill="#313131" d="M321 16l7 5-3 5-8-5z"/><path fill="#131313" d="M282 162l-15 1-1-8 16-1z"/><path fill="#494949" d="M298 125l-4 9-9-4 4-9z"/><path fill="#757575" d="M42 82l9 2-1 2-9-3z"/><path fill="#8f8f8f" d="M41 152h-1l5-12 1 1z"/><path d="M394 163v10h-2v-10zm-85-84l2-5 28 15-2 4z"/><path fill="#282828" d="M302 27l1 1-13 16-1-1z"/><path d="M-3 23l27 63-20 9-27-64zm361 4l-7-12 14-9 8 12z"/><path fill="#797979" d="M-4 103l-1-5 11-2 1 4z"/><path fill="#b0b0b0" d="M72 193l6 5-1 1-6-5z"/><path fill="#7e7e7e" d="M161 154l-1 1-31-14v-1z"/><path fill="#4e4e4e" d="M327 129l1-1 18 4v1z"/><path fill="#ababab" d="M176 61l-11-16 2-1 10 16z"/><path fill="#595959" d="M134 121l-10 2v-2l9-2z"/><path fill="gray" d="M123 52l6-7 3 2-7 7z"/><path fill="#0f0f0f" d="M369 141l6 9-5 4-6-9z"/><path fill="#777" d="M155 188l-32-11 1-4 33 11z"/><path d="M198 85v1l-10-3v-2z"/><path fill="#4a4a4a" d="M15 112l4-1 2 10-4 1z"/><path fill="#cecece" d="M223 73l-1-1 13-9 1 1z"/><path fill="#646464" d="M269 19l1 1-12 18-1-1z"/><path fill="#313131" d="M238 89l1-1 3 6-1 1z"/><path fill="#9c9c9c" d="M163 100l1-4 6 2-2 5z"/><path fill="#565656" d="M328 167l-9 18-2-1 10-18z"/><path fill="#4f4f4f" d="M163 92v2h-6v-2z"/><path fill="#303030" d="M182 128l2 4-2 1-2-4z"/><path fill="#7e7e7e" d="M217 65l-1 1-6-1v-2z"/><path fill="#b3b3b3" d="M128 108l-12-14 1-1 13 14z"/><path fill="#7f7f7f" d="M275 22l10-24h1l-10 25z"/><path fill="#515151" d="M346 174l-1 1-24-23 1-1z"/><path fill="#3b3b3b" d="M156 32l-7 1v-1l6-1z"/><path fill="#454545" d="M310 12l-4 18h-2l5-18z"/><path fill="#050505" d="M377 193l-3-2 1-1 2 1z"/><path fill="#828282" d="M162 88l1-1 8 8-2 1z"/><path fill="#707070" d="M6 104h8v12H6z"/><path fill="#878787" d="M170 81l-8 8-2-2 7-9z"/><path fill="#c7c7c7" d="M143 52l2-1 10 36-1 1z"/><path fill="#7e7e7e" d="M64 84l7 8-5 4-7-8z"/><path fill="#858585" d="M158 59l2 5h-1l-2-4z"/><path fill="#cbcbcb" d="M170 55l1 1-5 6-1-1z"/><path fill="#3e3e3e" d="M230 118l41-17v1l-40 17z"/><path fill="#7e7e7e" d="M71 192h2l-2 14h-2z"/><path fill="#575757" d="M114 172l-15 6-5-11 15-6z"/><path fill="#2f2f2f" d="M254 123l-9 7-1-1 9-7z"/><path fill="#626262" d="M22 145l10-12 1 1-10 12z"/><path fill="#1c1c1c" d="M146 142l-1 1-2-2 1-1z"/><path fill="#959595" d="M135 147v-1l22 8v2z"/><path fill="#8f8f8f" d="M271 13h-2l6-18h1z"/><path fill="#828282" d="M199 72l-1-1 7-10 2 1z"/><path fill="#252525" d="M339 8l-13 12-1-1 13-12z"/><path fill="#858585" d="M399 160l-9-10 10-8 8 9z"/><path fill="gray" d="M185 120l2-5 1 1-2 4z"/><path fill="#5f5f5f" d="M187 162l-1 1-31-14 1-1z"/><path d="M354 199l15-5 1 3-15 5z"/><path fill="#7b7b7b" d="M155 112v-1l10-3 1 2z"/><path fill="#9f9f9f" d="M207 61l-1-11h2v11z"/><path fill="#8b8b8b" d="M291 178l15 4-2 8-15-5z"/><path fill="#252525" d="M253 149l1 1-9 18-1-1z"/><path fill="#787878" d="M161 181l-6-4 11-18 5 3z"/><path fill="#5d5d5d" d="M171 177l44-7v1l-44 8z"/><path fill="#777" d="M359 136l-1-1 3-7 1 1z"/><path fill="#6a6a6a" d="M140 81l3 1v1l-3-1z"/><path fill="#838383" d="M352 186l-3 12-2-1 3-12z"/><path fill="#727272" d="M116 74L93 47l2-1 23 28z"/><path fill="#272727" d="M50 30l1-2 32 28-1 1z"/><path fill="#0a0a0a" d="M348 137h9v6h-9z"/><path fill="#3e3e3e" d="M291 139l-13 9-1-1 13-9z"/><path fill="#bebebe" d="M222 73l2 6-7 3-2-6z"/><path fill="#434343" d="M146 129l-1 2-2-2 1-2z"/><path fill="#b6b6b6" d="M156 53l9 4-1 1-8-4z"/><path fill="#3b3b3b" d="M19 91l-3-1 1-1 3 1z"/><path fill="#7f7f7f" d="M9 108l-15 9-1-2 15-8z"/><path fill="#4a4a4a" d="M93 69l7 7-1 1-7-7z"/><path fill="#727272" d="M191 59l-27 13v-2l27-12z"/><path fill="#adadad" d="M195 47l5 4-9 13-5-4z"/><path fill="#959595" d="M202 89v1l-33 1v-2z"/><path fill="#5f5f5f" d="M317 89l-17 3v-2l17-2z"/><path fill="#2e2e2e" d="M175 146v-3h1l1 3z"/><path fill="#3c3c3c" d="M114 101v6h-1l-1-6z"/><path fill="#434343" d="M329 195l-12 4-1-2 12-4z"/><path fill="#383838" d="M221 163l-19-4 1-4 18 3z"/><path fill="#7f7f7f" d="M154 131v-1h3v1z"/><path fill="#5d5d5d" d="M301 101l-1 2-36-9v-1z"/><path fill="#3b3b3b" d="M226 143l-28-1v-2l28 1z"/><path fill="#222" d="M90 95v2l-16 6v-1z"/><path fill="#989898" d="M332 91l1 2-14 8v-2z"/><path d="M209 76l1 1-8 8-1-2z"/><path fill="#454545" d="M370 180h6v5l-7-1z"/><path fill="#282828" d="M358 141v13h-1l-1-13z"/><path fill="#999" d="M195 111l6 2-1 3-6-2z"/><path fill="#6b6b6b" d="M67 96l4-16h1l-4 17z"/><path fill="#656565" d="M363 193l-10-46 2-1 9 46z"/><path fill="#898989" d="M355 125l-10-10 8-7 10 10z"/><path fill="#040404" d="M254 139l16-12 6 8-17 12z"/><path fill="#464646" d="M385 179v-2l6 2v1z"/><path fill="#9c9c9c" d="M154 88l1 6-5 1v-7z"/><path fill="#0e0e0e" d="M163 119v-2h3l1 2z"/><path fill="#555" d="M53 185l3-2 5 9-3 1z"/><path fill="#505050" d="M228 160l1 1-34 9v-2z"/><path fill="#171717" d="M346 200l-1 1-2-2 1-1z"/><path fill="#7b7b7b" d="M216 52l-3 6-5-2 2-6z"/><path fill="#1f1f1f" d="M207 62l1-1 2 3-1 1z"/><path fill="#565656" d="M223 92l-2 6-1-1 1-6z"/><path fill="#121212" d="M251 149l1 1-17 12-1-1z"/><path fill="#aeaeae" d="M245 66l1 2-55 30-1-1z"/><path fill="#9c9c9c" d="M205 104l-13-3 1-6 14 3z"/><path fill="#646464" d="M53 100l-4-19 6-2 4 20z"/><path fill="#272727" d="M98 133l-12 14h-1l12-15z"/><path fill="#545454" d="M213 126l-14 1-1-1 14-2z"/><path fill="#343434" d="M103 148l-10-7 6-9 10 7z"/><path fill="#2c2c2c" d="M215 169v-1l12-4v1z"/><path fill="#5c5c5c" d="M332 173l14 17-2 1-13-17z"/><path fill="#7b7b7b" d="M101 84l-4 8-6-2 4-9z"/><path fill="#515151" d="M134 140l-1-2 10-1v2z"/><path fill="#141414" d="M114 7l6 5-1 1-6-5z"/><path fill="#6e6e6e" d="M221 133l-5 8-1-1 5-8z"/><path fill="#9a9a9a" d="M123 202l-10-4v-2l10 5z"/><path fill="#2c2c2c" d="M38 166l2 16-11 1-2-16z"/><path fill="#6e6e6e" d="M389 123v1l-16 11-1-1z"/><path fill="#696969" d="M171 99l12-7 1 1-12 8z"/><path fill="#0a0a0a" d="M255 155l4 2-3 5-4-1z"/><path fill="#8e8e8e" d="M263 85l2 11-7 2-3-11zm-114 38l-1-1 7-6 1 1z"/><path fill="#0a0a0a" d="M209 150l-1 2-12-10 1-1z"/><path fill="#202020" d="M285 142l-1 1-8-5 1-2z"/><path fill="#1b1b1b" d="M281 38l2 2-15 12-2-3z"/><path fill="#595959" d="M390 135l8-10 1 1-8 10z"/><path fill="#b6b6b6" d="M132 56l1-1 24 35h-1z"/><path fill="#323232" d="M268 175v4l-25 1v-5z"/><path fill="#7f7f7f" d="M183 98l-3-7h1l3 7z"/><path fill="#515151" d="M2 189l2-1 11 19h-1z"/><path fill="#a5a5a5" d="M195 50l6 7-4 3-6-6z"/><path fill="#1b1b1b" d="M395 160h1l-1 10-2-1z"/><path fill="#969696" d="M168 131l-5-1 2-6 5 1z"/><path fill="#494949" d="M67 76l-6 7-1-1 6-7z"/><path fill="#4c4c4c" d="M119 141l-10 8-1-1 10-8z"/><path fill="#797979" d="M405 126l-10 13-2-1 11-13z"/><path fill="#6e6e6e" d="M174 143l-3 1v-2h3z"/><path fill="#9f9f9f" d="M325 110l-6-7 2-2 6 7z"/><path fill="gray" d="M249 111l1 1-7 10-1-1z"/><path fill="#242424" d="M215 127l-1 1-2-3 1-1z"/><path fill="#252525" d="M37 85l-7-1 1-2 6 1z"/><path fill="#525252" d="M69 100l5 3v1l-6-2z"/><path fill="#686868" d="M112 65l-2 19-1-1 1-18z"/><path fill="#aaa" d="M228 29l1 5-8 1-1-4z"/><path fill="#ababab" d="M164 60h1l1 6h-2z"/><path fill="#1e1e1e" d="M179 154v-3l6-1v4z"/><path fill="#747474" d="M225 95l-12-3 1-1 12 3z"/><path fill="#616161" d="M299 126l23 11v2l-24-12z"/><path fill="#6a6a6a" d="M374 183l42 3-1 5-42-3z"/><path fill="#787878" d="M240 52l-1 1-6-10h1z"/><path fill="#060606" d="M44 180l6 7-14 10-6-8z"/><path fill="#bdbdbd" d="M213 46l3-1 3 7-3 1z"/><path fill="#606060" d="M21 136l-7-7 2-1 6 7z"/><path fill="#383838" d="M276 113l1 1-11 9v-1z"/><path fill="#666" d="M340 166l-7-3 4-9 7 4z"/><path fill="#a0a0a0" d="M214 74l10-19 1 1-10 19z"/><path fill="#7a7a7a" d="M375 118l-2-6 7-3 2 5z"/><path fill="#3a3a3a" d="M310 117l-5 6-1-1 5-6z"/><path fill="#343434" d="M373 104l6 5-1 1-6-5z"/></svg>