<svg xmlns="http://www.w3.org/2000/svg" viewBox="0 0 2000 1001"><path fill="#687a3c" d="M0 0h2000v1000H0z"/><path fill="#f8e4ff" d="M1395-19L106 145l1054 351z"/><path fill="#031300" d="M2121 1098l-898-867 898-102z"/><path fill="#000500" d="M-51 199l32 922 531-828z"/><path fill="#c2cb10" d="M231 973l1461-63-563-617z"/><path fill="#4a7ac9" d="M395 12l1726-125-414 383z"/><path fill="#1259bc" d="M738 113L74-121l-195 359z"/><path fill="#ffeec1" d="M684 98l586 133-282 304z"/><path fill="#4a6200" d="M949 371L74 1121l125-805z"/><path fill="#5d8400" d="M2106 1121l-977-601 414-211z"/><path fill="#0053a9" d="M2121 12l-281 195-422-328z"/><path fill="#0f105b" d="M1199 848l-86-94-281 102z"/><path fill="#e8ccb4" d="M1551 35l78 110-461 7z"/><path fill="#ffa746" d="M1262 316l-250 258-188-242z"/><path fill="#a1c21b" d="M731 1059L176 699l1047-133z"/><path fill="#141a00" d="M2082 176l-828 164 867 250z"/><path fill="#353a01" d="M590 660l562-125L35 465z"/><path fill="#212308" d="M1512 137l-274 383 32-321z"/><path fill="#f5d0a9" d="M434 270l140 93 360-125z"/><path fill="#0b1300" d="M324 652L35 191l-156 532z"/><path fill="#9ad10b" d="M1566 684l-578-47 641-164z"/><path fill="#768797" d="M481 285l617-328-1219 203z"/><path fill="#293800" d="M2121 957l-640 164 211-258z"/><path fill="#fffcfb" d="M1231 285L949 137 824 316z"/><path fill="#54690a" d="M74 691l-15 422 836 8z"/><path fill="#46550b" d="M1762 426l-758 172 352-274z"/><path fill="#b2a27c" d="M1082 738l-391 71 164 93z"/><path fill="#668409" d="M910 574L441 340l-453 78z"/><path fill="#9b9d8d" d="M1488 254l203 8 141-110z"/><path fill="#c7c959" d="M1488 746L918 934l406-16z"/><path d="M1715 254l359 55-62-196z"/><path fill="#ffa42f" d="M887 434l383-32-305 157z"/><path fill="#0f5e8e" d="M1277 113L1129-51 926-12z"/><path fill="#708d09" d="M1606 1090l86-227-899 102z"/><path fill="#004988" d="M-121 121l8-226 711 86z"/><path fill="#3d4306" d="M918 566l-70-195-352-23z"/><path fill="#000004" d="M520 637l234-47-266-24z"/><path fill="#c1df07" d="M738 551l117 133 204-47z"/><path fill="#006093" d="M2121 90l-203-211-312 305z"/><path fill="#d0c7b4" d="M1410 43l-242-62 211 148z"/><path fill="#6f9410" d="M152 824l391 133-70-461z"/><path fill="#3c5511" d="M1035 1051L715 941l625 24z"/><path fill="#bfa663" d="M1316 996l24 125 258-234z"/><path fill="#e9c781" d="M1191 488l55-164-555-23z"/><path fill="#161a03" d="M465 449l-586-8v336z"/><path fill="#b1bcc2" d="M1098 82L699 277 434 137z"/><path fill="#181f16" d="M1465 160l78 196-273-164z"/><path fill="#101700" d="M-59 207l500 70-484 63z"/><path fill="#577116" d="M1582 449l-23 274 562 195z"/><path fill="#c6d143" d="M668 816l219 141 336-16z"/><path fill="#282e3f" d="M1012 879l195-70-195-47z"/><path fill="#dbc2a6" d="M1215 777h140l40 63z"/><path fill="#7b870b" d="M1246 395h141l-297 148z"/><path fill="#67808a" d="M1918 160l-359 109-94-132z"/><path fill="#283a14" d="M59 1121l304-320-484 289z"/><path fill="#192905" d="M2106 691l-469-54 414-78z"/><path fill="#ffb300" d="M895 496l62-86 164 39z"/><path fill="#9d9f91" d="M1231 207L793 66l742 32z"/><path fill="#a2c115" d="M410 770l485-141-235 391z"/><path fill="#7e9614" d="M981 551L496 418l141 133z"/><path fill="#4f651a" d="M770 973l101-32-250-46z"/><path fill="#322d0a" d="M856 551l-39 47 179-16z"/><path fill="#a0c024" d="M1449 832l-265-109 539 47z"/><path fill="#f3ede8" d="M1035 316l164-78-500-133z"/><path fill="#e3d9c9" d="M1543 74l23 71-101-8z"/><path fill="#ceb4a6" d="M1387 856l-39-63-94 117z"/><path fill="#b89c9e" d="M1613 856l-31 31-109-117z"/><path fill="#4b7795" d="M520-121l250 328L301-4z"/><path fill="#c56d9c" d="M1152 457l-62 70-102 8z"/><path fill="#7b7f82" d="M348 113l109 149-437-55z"/><path fill="#c2bd3a" d="M598 934l523 101-281 63z"/><path fill="#d7b887" d="M504 238l39 102 266-8z"/><path fill="#466683" d="M1191-113l243 219 195-227z"/><path fill="#162408" d="M746 629H434l289-94z"/><path fill="#96ac00" d="M1145 910l140-117 63 39z"/><path fill="#ceb0bc" d="M816 809l-47 47 94 46z"/><path fill="#566b2e" d="M957 801l-117 54 297 16z"/><path fill="#4b7714" d="M1395 723l-274-24 141-31z"/><path fill="#476a11" d="M434 910l109-94-78 266z"/><path fill="#f5d79b" d="M590 856l39 7 55-54z"/><path fill="#986b17" d="M848 449l297 157-219-39z"/><path fill="#ffe696" d="M941 426l-132-86 328 62z"/><path fill="#385107" d="M1816 668l-242-211h547z"/><path fill="#628a18" d="M512 738l172-86-461-70z"/><path fill="#53710c" d="M184 793l250-156-469 101z"/><path fill="#accb26" d="M988 699l344 32-133 78z"/><path fill="#3a4b0b" d="M395 590L-35 285l586 196z"/><path fill="#a9c613" d="M1152 574l438 94-422 23z"/><path fill="#cde107" d="M801 590l117 55 156-39z"/><path fill="#769414" d="M1418 848l227 273-102-312z"/><path fill="#7c960f" d="M262 395l367 86-180-110z"/><path fill="#6aa014" d="M1309 606l343 15 16-125z"/><path fill="#a29d39" d="M340 863l23 149 102-196z"/><path fill="#59701e" d="M1879 824l-508-125 352-15z"/><path fill="#5e4e20" d="M1231 496l-180 24 31 78z"/><path fill="#3b6e94" d="M184 168L590 51 66 43z"/><path fill="#87807c" d="M1215 770l-86 31-63-39z"/><path fill="#768391" d="M1613 121l133-242-195 140z"/><path fill="#929084" d="M1621 270l-117-102v70z"/><path fill="#3d6c87" d="M1871 184l-398-289 234 296z"/><path fill="#005586" d="M379 66l-500-31 352-86z"/></svg>