<svg xmlns="http://www.w3.org/2000/svg" viewBox="0 0 800 400"><path fill="#697a3c" d="M0 0h800v400H0z"/><path fill="#fde9ff" d="M467 192l91-206L64 67z"/><path fill="#041500" d="M845 45L489 92l356 356z"/><path fill="#000400" d="M192 117L8 448-23 77z"/><path fill="#bac70c" d="M445 127L14 439l688-97z"/><path fill="#4778c7" d="M848-48L698 111 145 2z"/><path fill="#1d60c5" d="M298 55L42-48-48 92z"/><path fill="#4c6600" d="M108 114l272 59L27 448z"/><path fill="#ffefc4" d="M386 211L283 45l225 41z"/><path fill="#5c8400" d="M827 448L448 202l169-66z"/><path fill="#0054a8" d="M583-48l265 62-115 66z"/><path fill="#dfc6b3" d="M489 58l169 3-38-56z"/><path fill="#161b00" d="M848 48l-343 97 318 82z"/><path fill="#96b524" d="M5 289l634-87 6 218z"/><path fill="#0b035b" d="M373 348l116-12-66-41z"/><path fill="#ffa242" d="M317 123l91 110 94-91z"/><path fill="#172000" d="M-36 283l25-110 397 60z"/><path fill="#1b170a" d="M514 70l84-9-109 122z"/><path fill="#8d959b" d="M5 64L308 8l-56 131z"/><path fill="#f8e6da" d="M498 117l-296 19 165-88z"/><path fill="#4e620c" d="M23 267l229 131-229 13z"/><path fill="#2c3b00" d="M686 345l-78 72 240-28z"/><path fill="#597304" d="M80 323l87-181 178 3z"/><path fill="#465408" d="M536 133l181 28-315 78z"/><path fill="#b6c536" d="M311 198l100 182-125-19z"/><path fill="#818982" d="M633 120l128-59-172 22z"/><path fill="#2d4d00" d="M317 383l135 40 93-43z"/><path fill="#004581" d="M177 2L2 45l-47-65z"/><path fill="#3c3811" d="M348 155l22 84-143-100z"/><path fill="#cbc062" d="M536 364l-147 6 181-68z"/><path fill="#085a8d" d="M467-14l-125-3 153 56z"/><path fill="#aed204" d="M323 236L164 339l359-100z"/><path fill="#debe87" d="M205 130l50-57 103 69z"/><path fill="#121e00" d="M-20 161l212-47-222-34z"/><path fill="#5b6f15" d="M517 280l228-16 103 88z"/><path fill="#a09278" d="M311 314l9 47 135-66z"/><path fill="#ffad00" d="M370 195l-12-28 106 13z"/><path fill="#789c11" d="M186 202l31 175-159-44z"/><path fill="#d2c5b2" d="M558 23l6 47-112-93z"/><path fill="#ffd385" d="M495 142l-112 10 72 53z"/><path fill="#005f92" d="M848 42L648 64 755-48z"/><path fill="#050700" d="M664 114l184 9-40-78z"/><path fill="#674016" d="M352 230l106-32-13 41z"/><path fill="#151b0b" d="M183 214l40 47 100-22z"/><path fill="#5a7a03" d="M117 123l128 50-259-3z"/><path fill="#050900" d="M-48 111l150 150-104 22z"/><path fill="#b0babf" d="M283 114l-91-53 272-31z"/><path fill="#1c2313" d="M508 80l72-19 59 84z"/><path fill="#2a3904" d="M739 98l109 244-293-225z"/><path fill="#aec818" d="M148 292l94 6 69 144z"/><path fill="#8bae0c" d="M264 220l-56-47 94 19z"/><path fill="#f6f2ed" d="M480 98l-88 32-100-85z"/><path fill="#394238" d="M417 308l53 34H339z"/><path fill="#447297" d="M305 30L61 70 195-48z"/><path fill="#67800f" d="M592 336l119 37-209 10z"/><path fill="#dbbdac" d="M555 336l-69-25h44z"/><path fill="#969890" d="M617 27L330 39l178 41z"/><path fill="#737c81" d="M192 105L-48 77l196-35z"/><path fill="#d1ae7c" d="M155 102l172 25-97 12z"/><path fill="#5a880d" d="M627 267l112-84-137 19z"/><path fill="#b99973" d="M436 448l187-93-78 78z"/><path fill="#96bc11" d="M311 242l-131 72 268-16z"/><path fill="#95ae00" d="M436 358l94-19-16-22z"/><path fill="#416485" d="M570 33l172-81H480z"/><path fill="#304113" d="M148 317L39 448l-84-15z"/><path fill="#e3c9af" d="M308 342l56 28-47-43z"/><path fill="#1e3d0e" d="M211 448l-38-78 191 78z"/><path fill="#b69f8e" d="M580 305l65 37-22 10z"/><path fill="#405d0f" d="M311 389l-56-34 109 31z"/><path fill="#dfb879" d="M317 136l178 34 3-53z"/><path fill="#ced732" d="M258 320l-47 38 128-38z"/><path fill="#90c408" d="M420 255l207 18-22-71z"/><path fill="#e6872b" d="M342 192l69 38 31-53z"/><path fill="#313a09" d="M208 186L45 161l107 78z"/><path fill="#d7b8b8" d="M558 333l-25 25h-38z"/><path fill="#52680c" d="M89 273l-91 10 138 165z"/><path fill="#a3c512" d="M295 220l32-12 15 62z"/><path fill="#60790b" d="M495 148h128l-143 54z"/><path fill="#d7cec1" d="M580 58l59-16-31-22z"/><path fill="#7f8a96" d="M358 45l62-53-172 41z"/><path fill="#a6a339" d="M142 389l-15-31 71-41z"/><path fill="#d6ca71" d="M467 405l-31 43-150-56z"/><path fill="#1e3532" d="M670 239l-56 19 88-3z"/><path fill="#131800" d="M167 105h-56l91 34z"/><path fill="#44728c" d="M664 5l94 65-141 16z"/><path fill="#699c11" d="M708 245l-88-50-115 50z"/><path fill="#1c2c00" d="M-36 161L-48 61l162 87z"/><path fill="#282b35" d="M439 348l-34-37 62 6z"/><path fill="#74900a" d="M639 414l72-141-163 175z"/><path fill="#969381" d="M680 102l-66 6-16-28z"/><path fill="#161713" d="M617 102l47 25-150 12z"/><path fill="#6b9712" d="M117 242l44 25 50-56z"/><path fill="#7ca0ad" d="M170 27l138 40-125 3z"/><path fill="#55790e" d="M180 420l40-97-50 29z"/><path fill="#058" d="M80-48L-48 8l193 15z"/><path fill="#ffb300" d="M452 183l-88 9 41-25z"/><path fill="#aecc1d" d="M598 295l-34 28-97-34z"/><path fill="#fee396" d="M336 142l91 31 43-21z"/><path fill="#467898" d="M386-8l78 53 72-6z"/><path fill="#547814" d="M505 267l-53 13 112 12z"/><path fill="#ef9177" d="M405 217l-7-25 79-12z"/></svg>