<svg xmlns="http://www.w3.org/2000/svg" viewBox="0 0 200 100"><path fill="#6b7a3f" d="M0 0h200v100H0z"/><path fill="#f7e3ff" d="M116 48L9 17 142-3z"/><path fill="#061400" d="M205 17l11 99-92-93z"/><path fill="#000700" d="M49 30l-59-11 13 97z"/><path fill="#c4ca14" d="M109 30l68 65-145-1z"/><path fill="#4474c5" d="M180 28l36-43L30 2z"/><path fill="#1a5cbb" d="M74 14l-89 10 26-39z"/><path fill="#ffeec9" d="M99 53L69 11l59 11z"/><path fill="#506700" d="M26 30L8 116l85-78z"/><path fill="#628702" d="M156 35l-44 16 98 65z"/><path fill="#0d1100" d="M160 31l40-18 16 64z"/><path fill="#0b0d58" d="M112 76l10 10H90z"/><path fill="#eed2c1" d="M162 15l-7-12-33 12z"/><path fill="#0052a3" d="M166 18l50-8-44-25z"/><path fill="#9fc11e" d="M143 54l-74 46-57-29z"/><path fill="#ffa84b" d="M124 38l-41-8 17 28z"/><path fill="#2c3302" d="M-15 77l132-23-132-13z"/><path fill="#323711" d="M120 57l64-24-54-18z"/><path fill="#2b3903" d="M165 86l46 10-55 20z"/><path fill="#f6e3d7" d="M119 30l-68 5 41-25z"/><path fill="#9ac512" d="M86 61l83-12-19 21z"/><path fill="#6c8810" d="M47 53l16 63L6 87z"/><path fill="#798695" d="M50 28l-65-10L99-3z"/><path fill="#a1a39c" d="M175 23l-17 5-11-9z"/><path fill="#7e9c13" d="M84 54L33 32l21 23z"/><path fill="#c7ca61" d="M149 74l-15 17-37 2z"/><path fill="#ac9a85" d="M75 93l4-14 31-3z"/><path fill="#0a1000" d="M-7 0l31 67-23 3z"/><path fill="#b2b2b0" d="M44 14l68-7-59 28z"/><path fill="#00488c" d="M40 5L0-13l-15 24z"/><path fill="#ffa63a" d="M101 59l23-18-31 2z"/><path fill="#1f1d1f" d="M128 39l24-24-23 5z"/><path fill="#08598b" d="M66-15l56 25-5-18z"/><path fill="#385e00" d="M95 99l11 11 43-19z"/><path fill="#b0aba3" d="M161 10l-46 12 10-20z"/><path fill="#58730b" d="M57 34l-64 6 34 7z"/><path fill="#36350c" d="M86 38l-28-1 30 17z"/><path fill="#6d6220" d="M135 39L96 58l20 3z"/><path fill="#f2c576" d="M115 52l12-19H79z"/><path fill="#050b05" d="M47 63l11-9 19 8z"/><path fill="#849327" d="M157 109l24-43-77 50z"/><path fill="#a4bc1b" d="M32 75l54 41-9-45z"/><path fill="#5b7319" d="M205 88l-53-15 14-22z"/><path fill="#0d1000" d="M-15 20l57 8-35 5z"/><path fill="#fbf8f9" d="M73 13l31 18 19-5z"/><path fill="#c1dd13" d="M105 66L75 55l11 14z"/><path fill="#c9a461" d="M44 26l37 6-23 5z"/><path fill="#32420d" d="M11 116l-12-13 40-24z"/><path fill="#d2d756" d="M112 93L73 83l13 11z"/><path fill="#005f94" d="M216 1l-43-16 13 34z"/><path fill="#2d3a07" d="M185 19l31 71-64-51z"/><path fill="#404732" d="M90 84l16-7 11 12z"/><path fill="#f39f0c" d="M110 46L92 56l1-14z"/><path fill="#000105" d="M216 4l-38 21 18 5z"/><path fill="#455507" d="M73 97l-5-7 23 6z"/><path fill="#466686" d="M143 12l-15-27 41 5z"/><path fill="#3a5604" d="M43 89l46 26-43-6z"/><path fill="#acc538" d="M143 89L97 71l56 3z"/><path fill="#5e7916" d="M10 82L2 72l45-6z"/><path fill="#6f9823" d="M46 76L26 57l34 9z"/><path fill="#d3b2ab" d="M133 78l-3 12 10-6z"/><path fill="#a9a49a" d="M75 9l28-4 27 17z"/><path fill="#cbcbc7" d="M141 9l-31-24 18 24z"/><path fill="#547011" d="M146 35l-44 24 46-9z"/><path fill="#c0ab6a" d="M151 93l-28 10 13 13z"/><path fill="#97ba1b" d="M171 69h-68l23-16z"/><path fill="#7f8c8a" d="M149 25l18 2 15-10z"/><path fill="#3d6d96" d="M85-15L10 11l53-2z"/><path fill="#4a6f88" d="M117 4v8l16-2z"/><path fill="#334715" d="M184 65l28-21-53 21z"/><path fill="#2b3b04" d="M21 25l33 9-69 8z"/><path fill="#1b2015" d="M142 31l34 8-38-22z"/><path fill="#2d3616" d="M55 54l5 13 21-7z"/><path fill="#596c0f" d="M61 36L51 56 22 32z"/><path fill="#abbf28" d="M116 96l-29-2 42-12z"/><path fill="#5b8210" d="M112 72l29-1-16-4z"/><path fill="#e4d95c" d="M69 82l-10 9v-7z"/><path fill="#b8afa7" d="M131 15l29-9 6 10z"/><path fill="#1a200a" d="M32 43l-44 10 51 5z"/><path fill="#757a79" d="M48 28L-9 18l43-4z"/><path fill="#b6b393" d="M154 85l10 2-15-9z"/><path fill="#5b840d" d="M156 89l-29 10 18-15z"/><path fill="#cecd59" d="M73 98l43 4-71 14z"/><path fill="#f3d18b" d="M94 43L76 29l47 12z"/><path fill="#55788a" d="M188 18l-37 8 8-14z"/><path fill="#8d9113" d="M110 53l26-12h-12z"/><path fill="#6e97b3" d="M79 22L46 11l25-1z"/><path fill="#7c8822" d="M37 99l-11-8 36-10z"/><path fill="#735a1d" d="M87 60h15L87 43z"/><path fill="#485f17" d="M158 51l28-6 2 13z"/><path fill="#c4d70c" d="M92 61l37-1-17 6z"/><path fill="#9ec316" d="M59 84l26-13-2-19z"/><path fill="#3f5106" d="M113 97l-29-1 22 7z"/><path fill="#2c2d00" d="M16 82l-25 34-6-27z"/><path fill="#e3c89e" d="M52 33l25 1-12-9z"/><path fill="#889348" d="M87 88v-9l16 4z"/><path fill="#88aa1b" d="M49 42l19 13 4-6z"/><path fill="#c88051" d="M92 49v8l18-6z"/><path fill="#707f91" d="M58 8L86-7l10 19z"/><path fill="#44540d" d="M71 34l17 16-37-10z"/><path fill="#6c9f19" d="M157 65l13-11-48 4z"/></svg>