<svg xmlns="http://www.w3.org/2000/svg" viewBox="0 0 256 128"><path fill="#6b7a3f" d="M0 0h256v128H0z"/><path fill="#fee6ff" d="M147 64L20 23 182-5z"/><path fill="#061400" d="M157 29l115 114-13-124z"/><path fill="#000700" d="M65 37l-76-11L2 144z"/><path fill="#bdc610" d="M143 40L3 144l220-34z"/><path fill="#4b79c7" d="M53 1l219-11-57 47z"/><path fill="#1e60c8" d="M102 13L0-12l-9 43z"/><path fill="#3b4d00" d="M-15 50l129-5-26 44z"/><path fill="#fff2cb" d="M91 12l73 17-42 36z"/><path fill="#587702" d="M227 143l44-39-112-67z"/><path fill="#0052ab" d="M234 27l38-22-82-20z"/><path fill="#506702" d="M2 142l95-3-81-56z"/><path fill="#010062" d="M120 110l18-14 16 12z"/><path fill="#2d3406" d="M166 19l-14 52 115-20z"/><path fill="#e4caba" d="M209 20h-57l49-17z"/><path fill="#ffa74e" d="M131 75l-27-35 59 4z"/><path fill="#a0c616" d="M90 116l118-53L14 92z"/><path fill="#060800" d="M212 37l48 27-2-49z"/><path fill="#1d2700" d="M126 75L-6 55l-9 36z"/><path fill="#6c770b" d="M154 75l-99-2-20-33z"/><path fill="#7b8a9a" d="M63 37l73-41L-9 22z"/><path fill="#93b327" d="M209 60l-6 84-61-52z"/><path fill="#fce9dd" d="M160 38l-39-20-58 25z"/><path fill="#7c8b93" d="M200 36l-10-14 58-2z"/><path fill="#6a8c0c" d="M48 64l26 26-63 27z"/><path fill="#b6a28a" d="M137 97l-33 19-11-15z"/><path fill="#355105" d="M90 120l44 15 34-11z"/><path fill="#c7ca53" d="M164 121l-53-1 86-24z"/><path fill="#313a0a" d="M272 127l-84 14 37-30z"/><path fill="#115f8e" d="M162 15L104-6l37-7z"/><path fill="#d4b379" d="M64 43l-5-18 60 22z"/><path fill="#004483" d="M47 4L16-15l-31 33z"/><path fill="#121b00" d="M-15 55V25l69 11z"/><path fill="#201c22" d="M193 20l-33 31 6-27z"/><path fill="#576c11" d="M170 44l-38 32 81-16z"/><path fill="#ffb03c" d="M116 56l12 14 36-19z"/><path fill="#b3d01a" d="M98 67l-3 50 21-37z"/><path fill="#050802" d="M6 54l30 31-45 6z"/><path fill="#006194" d="M246-15l26 27-66 12z"/><path fill="#a2a39d" d="M222 4l-66 23-50-16z"/><path fill="#3c4205" d="M84 43L72 55l46-2z"/><path fill="#ffe79b" d="M156 57l-39-5 40-6z"/><path fill="#5c6d1f" d="M255 110l-26-26-47 7z"/><path fill="#283508" d="M181 34l91 5-14 66z"/><path fill="#64840c" d="M63 41L21 52l74 12z"/><path fill="#cfb6a0" d="M176 103l-2 8-19-13z"/><path fill="#a8b1b8" d="M115 26L62 13l-2 27z"/><path fill="#d3e509" d="M106 76l11 12 24-9z"/><path fill="#131811" d="M97 74L77 86 62 71z"/><path fill="#d8d2c7" d="M161 9l-11-19 31 22z"/><path fill="#33470d" d="M-15 139l64-37-25 38z"/><path fill="#f0eff1" d="M85 13l66 17-18 11z"/><path fill="#1d2324" d="M126 111h19l7-10z"/><path fill="#cccc4e" d="M146 117l-37 4-28-18z"/><path fill="#a39b8b" d="M219 34l-27-8 2 8z"/><path fill="#ffb106" d="M115 54l4 10 26-7z"/><path fill="#6c441e" d="M139 77l-32-5 54-9z"/><path fill="#5c8910" d="M160 51l45 34 24-18z"/><path fill="#444714" d="M116 77l-6-28-30-1z"/><path fill="#5a7b07" d="M204 114l-47 13 32-20z"/><path fill="#c5a76b" d="M169 144h-46l74-27z"/><path fill="#82a11c" d="M44 79l19-7-13 68z"/><path fill="#c2a0ab" d="M207 109l-4 3-12-11z"/><path fill="#516c0f" d="M61 81l-46 23L0 92z"/><path fill="#294217" d="M55 144l3-24 27 9z"/><path fill="#cbd031" d="M82 102l7 27-19-15z"/><path fill="#7fb711" d="M195 90l-45-22 55 3z"/><path fill="#426186" d="M224-15l-39 27-32-27z"/><path fill="#383f0e" d="M57 56l8 15-59 9z"/><path fill="#657439" d="M109 110l19 2 3-14z"/><path fill="#8bac1a" d="M97 64l-15 5-19-16z"/><path fill="#d9ca8b" d="M84 144l16-18 57 5z"/><path fill="#4d6e12" d="M162 84l16 9-23-2z"/><path fill="#b3bd46" d="M172 93l-39 4 40 10z"/><path fill="#7c7d7c" d="M48 18l19 18-63-9z"/><path fill="#ea8648" d="M140 59l-21 6 12 10z"/><path fill="#212618" d="M187 21l9 21-35 8z"/><path fill="#374505" d="M49 34L10 44l60 1z"/><path fill="#376d92" d="M152 16l15-3-34-21z"/><path fill="#ebc9da" d="M101 107l-3 3 13 5z"/><path fill="#2c431e" d="M242 70l-7 13h-37z"/><path fill="#d5b5c0" d="M165 111l13-3-13 8z"/><path fill="#010201" d="M236 33l36 10-11-31z"/><path fill="#9da903" d="M160 101l12 7-29 8z"/><path fill="#769216" d="M200 139l26-49-14-9z"/><path fill="#d5b17f" d="M156 52l7-14-50 5z"/><path fill="#3b698b" d="M198 4l20-8 23 30z"/><path fill="#afcd0e" d="M148 74l-25 12 67-1z"/><path fill="#738220" d="M75 105l-45 12 12 27z"/><path fill="#36481b" d="M223 96h-25l7-7z"/><path fill="#e2d3c6" d="M202 16l-18 3 14-9z"/><path fill="#ceb387" d="M71 45L49 29l60 12z"/><path fill="#376995" d="M103-13L10 11l64 1z"/><path fill="#5b7613" d="M85 115l34 7-26 2z"/><path fill="#e3899b" d="M134 68l4-7 13-2z"/><path fill="#373547" d="M130 101l26 5-8-7z"/><path fill="#5a800e" d="M32 54L0 56l18-7z"/><path fill="#627b1f" d="M130 89l29 2-15-6z"/><path fill="#799cb0" d="M104 23L86 12l-35 9z"/><path fill="#527a00" d="M150 122l16-3 15 7z"/><path fill="#29320d" d="M91 68l8 10-15 6z"/></svg>