<svg xmlns="http://www.w3.org/2000/svg" viewBox="0 0 100 50"><path fill="#6b7a3f" d="M0 0h100v50H0z"/><path fill="#f2e0ff" d="M58 24L72-1 5 8z"/><path fill="#071400" d="M63 11l53-2-1 56z"/><path fill="#000900" d="M24 14L-1 66V11z"/><path fill="#aecb0f" d="M3 37l78-12-2 41z"/><path fill="#3773cb" d="M59-15L-15 7l131 1z"/><path fill="#fff2bc" d="M64 11L34 4l16 22z"/><path fill="#394a00" d="M46 21L-3 60l-5-50z"/><path fill="#9ba2b9" d="M90 10l-12 4L60-4z"/><path fill="#ffb039" d="M64 18l-20-3 5 17z"/><path fill="#547005" d="M62 15l35 50 19-21z"/><path fill="#004e91" d="M116 6L99-15 78 11z"/><path fill="#0f1200" d="M77 21l31-20 4 24z"/><path fill="#295b8c" d="M-15 8l55-23-23 27z"/><path fill="#241c44" d="M49 43l12-1-9-5z"/><path fill="#aeca23" d="M71 28l-59 9 26 9z"/><path fill="#1a2d13" d="M43 66l24-18-24 1z"/><path fill="#e1d0c2" d="M63 17L50 1 24 18z"/><path fill="#6d760a" d="M49 29L9 20l33-4z"/><path fill="#000002" d="M-15 37l6-33 22 29z"/><path fill="#cebca3" d="M64 8V0l17 7z"/><path fill="#23211e" d="M75 8L63 23l2-15z"/><path fill="#6e890e" d="M34 66L5 44l19-19z"/><path fill="#000200" d="M24 32l2-4 11 3z"/><path fill="#bcc54b" d="M67 38L49 48l37-8z"/><path fill="#f9ede3" d="M38 18l22-5-20-5z"/><path fill="#567a94" d="M67-15L60 3 10 7z"/><path fill="#5c5c00" d="M44 30h19l14-10z"/><path fill="#00487c" d="M-10 8L45-6l-47-9z"/><path fill="#ac9e82" d="M52 39l-13 6 1-7z"/><path fill="#9cca0f" d="M47 33l33 1-5-8z"/><path fill="#344009" d="M87 44l-7 8 35-2z"/><path fill="#84898d" d="M27 15L25 5 0 8z"/><path fill="#2d3806" d="M93 14l23 35-48-35z"/><path fill="#ffb83d" d="M62 21l-8 6-7-5z"/><path fill="#c6cc4e" d="M35 42l27 4-17 2z"/><path fill="#728a22" d="M82 23l11 15-34 28z"/><path fill="#cdbd9c" d="M26 16l18 1-3-9z"/><path fill="#9ba0a0" d="M63 10l18-7-38 1z"/><path fill="#a7c40c" d="M31 53l8-25 9 3z"/><path fill="#070900" d="M15 14L1 17l-1-5z"/><path fill="#365e6f" d="M60-7L72 5l11-20z"/><path fill="#3f470c" d="M43 19l-18-1 17 8z"/><path fill="#0061a0" d="M88 6l6-21 22 20z"/><path fill="#6b8193" d="M83 1l5 12-11-1z"/><path fill="#23648b" d="M65 6L47-15H15z"/><path fill="#54620f" d="M39 47l19 9-7-9z"/><path fill="#ecc072" d="M62 16l-2 8-15-8z"/><path fill="#333f09" d="M11 30L-4 15l42 15z"/><path fill="#85a221" d="M22 30l14-6-6-1z"/><path fill="#d4d2c9" d="M79 6l-7 1 6-5z"/><path fill="#253f10" d="M91 33l-11-1 12-3z"/><path fill="#b6c246" d="M64 47l-5-11 17 2z"/><path fill="#acc71c" d="M19 37l17 14-6-14z"/><path fill="#000002" d="M93 12l23-15-15 18z"/><path fill="#3b4a07" d="M3 51l15-10L5 66z"/><path fill="#151711" d="M72 10l-2 7h13z"/><path fill="#71971c" d="M21 39l-5-10 16 5z"/><path fill="#4b6502" d="M85 21l-23 6 3-9z"/><path fill="#5a7512" d="M48 27L25 17 0 21z"/><path fill="#ffd790" d="M59 22l-20-6 9 6z"/><path fill="#7c8591" d="M31 3l19 4-7-9z"/><path fill="#4e4936" d="M55 39l-11 4 13 1z"/><path fill="#9e9564" d="M81 43L57 66l5-13z"/><path fill="#9ca0a1" d="M64 11V5H42z"/><path fill="#2b3f00" d="M23 47l8 11v-7z"/><path fill="#8aa1b2" d="M41 10l-7-5-15 5z"/><path fill="#bfb8bd" d="M54-5l1-9L72 9z"/><path fill="#f7f4ed" d="M42 7l9 9 9-3z"/><path fill="#0d1305" d="M15 28l-23-1 18-5z"/><path fill="#7c501c" d="M54 30l7-5-19 4z"/><path fill="#566916" d="M74 46l-11 5 1-5z"/><path fill="#586a1a" d="M90 34l-17 2 30 7z"/><path fill="#c3c35d" d="M31 42l10-2 8 6z"/><path fill="#eba800" d="M43 25l6-3 6 1z"/><path fill="#ee9746" d="M51 29l-1-3 3 3z"/><path fill="#958711" d="M65 24l-2-3-6 4z"/><path fill="#597c9d" d="M93 9l-6 1-1-4z"/><path fill="#77a91b" d="M71 32l11-6-23 2z"/><path fill="#546323" d="M6 51L4 35h8z"/><path fill="#b4b770" d="M68 46l2-4-14 4z"/><path fill="#181d09" d="M32 32l4-4 2 2z"/><path fill="#faf1df" d="M51 11l11 4-18 1z"/><path fill="#94ab23" d="M26 42l-8 7 3-15z"/><path fill="#b9b963" d="M37 49l-8 17 17-17z"/><path fill="#c0dc14" d="M58 30l-11 4-4-3z"/><path fill="#ccb78b" d="M39 15l-15-2 4 5z"/><path fill="#749117" d="M37 25l-20-7 11 8z"/><path fill="#acbe26" d="M82 42l-10 1-10-6z"/><path fill="#353f07" d="M18 25l10-1-18-3z"/><path fill="#5f5d89" d="M58 38l-11 3 3-3z"/><path fill="#7b8b0b" d="M34 46l4 1-4-7z"/><path fill="#a0bf14" d="M41 31l-15 7 36-1z"/><path fill="#4e6b12" d="M90 24l-10 1 14 4z"/><path fill="#49491a" d="M45 27l-1-6-15-3z"/><path fill="#ecbe70" d="M58 25v-5l-4 6z"/><path fill="#26301e" d="M74 9l-9 10 9-4z"/><path fill="#44698c" d="M34 7l-49-21 38-1z"/><path fill="#b9a9a1" d="M79 43l2 1-3-3z"/><path fill="#ffe189" d="M60 22l2-3H52z"/><path fill="#ae742a" d="M41 23l9 4-3 1z"/></svg>