<svg xmlns="http://www.w3.org/2000/svg" viewBox="0 0 128 64"><path fill="#6b7a3f" d="M0 0h128v64H0z"/><path fill="#f7e4ff" d="M94-8L75 30 14 13z"/><path fill="#061500" d="M80 14l64 66V7z"/><path fill="#000500" d="M31 19l-46-8L1 73z"/><path fill="#abc70e" d="M0 47l101 33 6-49z"/><path fill="#3e76d0" d="M-15 9l159 1-68-25z"/><path fill="#ffefb1" d="M81 14L66 37 45 6z"/><path fill="#394b00" d="M59 25L-9 15l3 65z"/><path fill="#a1a8c2" d="M102 17l16-5L75-4z"/><path fill="#f2a722" d="M59 21l-1 27 23-25z"/><path fill="#00529d" d="M104 13l40-7-31-18z"/><path fill="#516d05" d="M80 16l64 45-25 19z"/><path fill="#336298" d="M29-15l2 31-46-5z"/><path fill="#0f1400" d="M144 51l-2-50-40 20z"/><path fill="#adcb21" d="M19 46l76-12-53 26z"/><path fill="#160a4e" d="M80 55l-10-7-8 6z"/><path fill="#efddd7" d="M74 18l-44 4L65 4z"/><path fill="#22360c" d="M51 61h33l-1 9z"/><path fill="#000002" d="M4 27l-19 21 34-7z"/><path fill="#5a6704" d="M28 42L18 21l57 15z"/><path fill="#c9cd4d" d="M82 60l20-12-41 10z"/><path fill="#333e06" d="M109 24L83 11l-5 26z"/><path fill="#b6ab9d" d="M69 12L85 1l16 8z"/><path fill="#004883" d="M-15 6L2-15 25 4z"/><path fill="#0e180f" d="M32 35l15 1-4 8z"/><path fill="#718c11" d="M43 80L30 37 5 53z"/><path fill="#0d5679" d="M24-14L79 6 69-15z"/><path fill="#929390" d="M43 20L30 6 0 11z"/><path fill="#b9b161" d="M65 47l-3 12-23-5z"/><path fill="#9d9f9d" d="M77 14L47 5l60-2z"/><path fill="#f4c374" d="M75 33l5-11-37-4z"/><path fill="#333e0b" d="M137 61l-26-5-21 20z"/><path fill="#9ab81b" d="M85 34l-51 9 78 11z"/><path fill="#fffaf8" d="M65 11l15 9-24-1z"/><path fill="#080900" d="M5 21l-20-8 36 4z"/><path fill="#a6bc19" d="M54 32L36 59l11 16z"/><path fill="#1f2022" d="M83 13l26 14-15-17z"/><path fill="#657f10" d="M9 26l55 12-32-17z"/><path fill="#6a7609" d="M65 40l33-15-18 1z"/><path fill="#657a21" d="M125 53l-41-8 32-3z"/><path fill="#0b6299" d="M119 13L106-7l30 4z"/><path fill="#99c812" d="M102 44l-40-4 33-6z"/><path fill="#6e8a96" d="M110 16l-16 1 28-10z"/><path fill="#385670" d="M106-9l-44-6L93 5z"/><path fill="#dcbc88" d="M49 22l-17-2 14-6z"/><path fill="#ffa125" d="M63 36l9-7-14-3z"/><path fill="#bcc155" d="M87 56l7-9H70z"/><path fill="#6f7e89" d="M36 8l25-3 5-20z"/><path fill="#6f8021" d="M119 49L78 61l26 1z"/><path fill="#334309" d="M96 21l27 2 21 43z"/><path fill="#304a00" d="M29 58l27 14H32z"/><path fill="#cbc3bd" d="M89 10l13-9-1 6z"/><path fill="#4e4e0e" d="M37 24l19-1 3 15z"/><path fill="#a4aeb4" d="M30 19l3-12 25 6z"/><path fill="#0d120e" d="M49 40H34l13-5z"/><path fill="#cbd453" d="M57 60l-12-6 27 4z"/><path fill="#1b2005" d="M-5 32l33 5-8-10z"/><path d="M144-3l-25 19 23 6z"/><path fill="#b1d015" d="M70 40l-17-2-23 15z"/><path fill="#88a420" d="M44 35l14 1-25-9z"/><path fill="#3e4e0b" d="M23 52l-38 20 27 8z"/><path fill="#6aa519" d="M114 39l-32-1 16-5z"/><path fill="#404146" d="M74 50l-1 5-18-2z"/><path fill="#6f9320" d="M40 43l-22-6 10 12z"/><path fill="#aca176" d="M97 60L23 80h54z"/><path fill="#69702c" d="M43 57l76 23H70z"/><path fill="#c5cc83" d="M47 63l58 4-9 13z"/><path fill="#cfccc8" d="M77-2l-1-13 15 25z"/><path fill="#f5cc9e" d="M54 19l24 7H58z"/><path fill="#9ba847" d="M105 53l-3 6-15-15z"/><path fill="#a4986f" d="M57 48l-6 8 18-8z"/><path fill="#9db422" d="M34 50l-9-6-1 16z"/><path fill="#477086" d="M75 3l10 3-10 2z"/><path fill="#202603" d="M17 21L3 16l25 2z"/><path fill="#23242a" d="M82 17v8l13-14z"/><path fill="#243218" d="M144 43V32l-40 9z"/><path fill="#e3e3e7" d="M77 15L46 7l10 9z"/><path fill="#72631f" d="M59 38l26-11-8 9z"/><path fill="#004f86" d="M28 0l-6-15L-5 4z"/><path fill="#343d0f" d="M29 29L16 40 9 27z"/><path fill="#bcba7d" d="M81 58l4-7 6 4z"/><path fill="#d7bf6e" d="M36 21l11-2 10 4z"/><path fill="#c0cb1e" d="M39 57l15 11-4 12z"/><path fill="#242105" d="M35 22H25l-7-6z"/><path fill="#536b7c" d="M110 15l13-5H95z"/><path fill="#51779a" d="M48-15L9 12l98-21z"/><path fill="#005a9c" d="M118 9l17-11-21-13z"/><path fill="#719020" d="M35 45L6 59l21-22z"/><path fill="#132008" d="M30 41l12-3-9-2z"/><path fill="#4d6812" d="M125 35l-35-8 17 9z"/><path fill="#9eaa00" d="M85 53l-8 3 3-5z"/><path fill="#4d6479" d="M-15 6l18 8L17 4z"/><path fill="#cca64e" d="M65 21h-8l-3 3z"/><path fill="#bfb1b8" d="M80 18l1-4-5-1z"/><path fill="#5c750f" d="M13 28l-17-1 8-2z"/><path fill="#7d9000" d="M55 55l6 2-2-4z"/><path fill="#465d1b" d="M111 48l-6-4-11 2z"/><path fill="#a97b1f" d="M69 37l-13-7 2 5z"/><path fill="#c7ab87" d="M29 17l12 6-3-8z"/><path fill="#14110c" d="M111 17l-21 3 13 2z"/><path fill="#364a07" d="M36 27l12 2-2-6z"/></svg>