<svg xmlns="http://www.w3.org/2000/svg" viewBox="0 0 16 8"><path fill="#6d7a41" d="M0 0h16v8H0z"/><path fill="#d9d9e7" d="M10 4l5-19-29 5z"/><path fill="#001700" d="M11 3l16 8 5-13z"/><path fill="#000f00" d="M4 3l-19-3v24z"/><path fill="#c2c126" d="M13 7l-3-4-9 7z"/><path fill="#4353ab" d="M26 2L-3-12-15-1z"/><path fill="#c9caad" d="M8 3L4-13l26 4z"/><path fill="#53638d" d="M-12 4l44-8L3-15z"/><path fill="#384c00" d="M11 2l21 5-2 17z"/><path fill="#2a4200" d="M-7 0l-5 7L7 4z"/><path fill="#959d2e" d="M4 6l8-2 5 3z"/><path fill="#00160b" d="M15 3l17 4-7-14z"/><path fill="#9caaeb" d="M6 1L3 2V1z"/><path fill="#617000" d="M7 4L-5 20l-7-8z"/><path fill="#052200" d="M2 5L-9-9l-6 17z"/><path fill="#bdc153" d="M4 13l3-7-1 10z"/><path fill="#51649c" d="M10 2l12-8-4 6z"/><path fill="#7c811b" d="M9 7L-2 9l3 15z"/><path fill="#afb19d" d="M5 3l17-18h-8z"/><path fill="#495b0e" d="M14 5l7 4-7 6z"/><path fill="#385682" d="M15-5l-25-2-5 16z"/><path fill="#e2e3ac" d="M9 3l1-6-3-6z"/><path fill="#706f71" d="M14-15L10 1l-25-6z"/><path fill="#8ea245" d="M4 6l7 18-7-3z"/><path fill="#8c8d17" d="M8 2L7 5V2z"/><path fill="#8594b5" d="M14 2l-1-15-3 10z"/><path fill="#314208" d="M4 22V9L-15-7z"/><path fill="#223d7c" d="M15 1l17 4-4-20z"/><path fill="#f9ff86" d="M7 2l3 1-1-1z"/><path fill="#a0a846" d="M12 5L3 24h13z"/><path fill="#758433" d="M13 7L1 13l12 11z"/><path fill="#2f4401" d="M16 5l5 11 7-31z"/><path fill="#1e3952" d="M-4-8l24-7-32 24z"/><path fill="#67721d" d="M6 3H3l6 2z"/><path fill="#b1ad45" d="M8 6l-9 18 13-4z"/><path fill="#807c19" d="M10 6L7 23l-4-7z"/><path fill="#5b6c8e" d="M2 2l7-6-5 2z"/><path fill="#35571d" d="M-8 5l-7 7L4 3z"/><path fill="#061b00" d="M-15-8L4 5l-19-3z"/><path fill="#888c16" d="M12 4H8l3 1z"/><path fill="#808272" d="M10 1L-1-11l16-1z"/><path fill="#7c8d24" d="M3 6l14 18h12z"/><path fill="#001b00" d="M16 2l16 11V2z"/><path fill="#aab050" d="M12 7l-1-1-1 1z"/><path fill="#dfe88d" d="M7 2l3 1V2z"/><path fill="#203604" d="M12 3l20 4v6z"/><path fill="#8c8d29" d="M10 7l22 8-1 9z"/><path fill="#4b5900" d="M6 4L1 6l2-2z"/><path fill="#7e8c2a" d="M3 6l12 18v-8z"/><path fill="#a7b040" d="M5 7l8 3v3z"/><path fill="#4b500e" d="M5 4l1-1h1z"/><path fill="#667510" d="M14 5l3 10-3 1z"/><path fill="#f4f8c8" d="M9 3L8 2v1z"/><path fill="#2a3c00" d="M3 5l-18 2 10 3z"/><path fill="#051950" d="M8-15l9 16 13 6z"/><path fill="#a2a539" d="M10 4L0 15l1 9z"/><path fill="#758533" d="M14 7L9 24H3z"/><path fill="#284824" d="M16 4L32-6 20-3z"/><path fill="#596937" d="M15 7l4 6-4 1z"/><path fill="#5d6f42" d="M2 7l-12 5-5-3z"/><path fill="#7880a7" d="M6 1l5-7-4-8z"/><path fill="#97a03f" d="M13 5H9L7 3z"/><path fill="#858b18" d="M10 4l3 1-1-1z"/><path fill="#334600" d="M14 6L29-5V5z"/><path fill="#4f6687" d="M1 2l14-8-3-9z"/><path fill="#4c5c1f" d="M32 24L1 7l17 17z"/><path fill="#445a7e" d="M12-15L-1-2l23 3z"/><path fill="#415416" d="M15 6l17 8-4 4z"/><path fill="#6a7c2d" d="M14 7h-1V4z"/><path fill="#486535" d="M4 4L2 3h2z"/><path fill="#96a243" d="M13 7L-1 22l8-2z"/><path fill="#4b580f" d="M10 4l1-1h2z"/><path fill="#8597bc" d="M13 1l2-16 6 7z"/><path fill="#8c9b28" d="M6 8L5 18l13 2z"/><path fill="#1d3c00" d="M1 3l-16 9 12-2z"/><path fill="#b1b04c" d="M7 7l3 9 4 1z"/><path fill="#92922f" d="M10 7L-9 24l-6-5z"/><path fill="#36481e" d="M14 3l-2-1 2 2z"/><path fill="#7a781e" d="M14 24L9 7l12 14z"/><path fill="#475516" d="M15 8l10 16-4-18z"/><path fill="#c1c4df" d="M6 2l2-1 1 1z"/><path fill="#707165" d="M8 1l1-16h8z"/><path fill="#c1c95d" d="M6 6v1l1-1z"/><path fill="#868c13" d="M27 22l-3-12L5 8z"/><path fill="#81837c" d="M1-15h11L10 1z"/><path fill="#878c94" d="M11 1l14-16-2 9z"/><path fill="#39517d" d="M15 2l17 7-7-6z"/><path fill="#a8a942" d="M8 7L-4 22l8 2z"/><path fill="#082500" d="M32 1L20 13 17 2z"/><path fill="#728126" d="M4 8l9 5-1 11z"/><path fill="#021600" d="M2 5l-12 1-5 6z"/><path fill="#0d2b00" d="M13 3l8-5 9 3z"/><path fill="#868c1d" d="M10 5V4h1z"/><path fill="#9aa4b9" d="M12 1L3-8l4-7z"/><path fill="#2f4400" d="M14 4l14 5 1 7z"/><path fill="#1e430d" d="M2 3l-14 1 1 4z"/><path fill="#afb876" d="M5 3V2l2 1z"/><path fill="#8d9931" d="M12 4h-1v1z"/><path fill="#293a00" d="M14 3l-3-1h4z"/><path fill="#898da8" d="M24-9l-6-3L4 2z"/><path fill="#7d8183" d="M8 1l-22-16 11 2z"/></svg>