<svg xmlns="http://www.w3.org/2000/svg" viewBox="0 0 400 200"><filter id="a"><feGaussianBlur stdDeviation="55"/></filter><path fill="#857a71" d="M0 0h400v200H0z"/><g filter="url(#a)"><path fill="#fff" d="M0-53l264 33-9 74L-9 22z"/><path fill="#253014" d="M427 101H259V10h168z"/><path fill="#fff" d="M168 37l8 64-33 4-8-64z"/><path fill="#373f2e" d="M126 21l12 56-194 41-12-56z"/><path fill="#5d3c2f" d="M194 218L2 242l-10-84 192-23z"/><path fill="#fff" d="M288-33l12 37-102 31-11-37z"/><path fill="#7995b8" d="M186 105l-4-76 75-4 4 76z"/><path fill="#f1ffff" d="M-13-14l220-19 4 48L-8 35z"/></g></svg>