<svg xmlns="http://www.w3.org/2000/svg" viewBox="0 0 400 200"><path fill="#857a71" d="M0 0h400v200H0z"/><path fill="#fff" d="M-24 4l186 47 203-75z"/><path fill="#1c270e" d="M424 98L371-24 241 98z"/><path fill="#f8ffff" d="M16-24l-40 59L209 9z"/><path fill="#353b2b" d="M137 23l-53 84-108-67z"/><path fill="#acc0db" d="M263 96L232-24 91 101z"/><path fill="#5d433d" d="M-24 193l203 31 47-150z"/><path fill="#d6ad9c" d="M248 99l176 8-193 55z"/><path fill="#182639" d="M188 113V23l-40 151z"/><path fill="#fff" d="M132 43l42 5-19 59zm222-56L201 29 62-13z"/><path fill="#b39284" d="M51 118l108 58-18-117z"/><path fill="#5e5c49" d="M212 31l170 48 42-103z"/><path fill="#3e4530" d="M143 62l-167 72V52z"/><path fill="#0e1c0c" d="M265 51l-8 47 84-2z"/><path fill="#c4a091" d="M359 51l1 23-64-17z"/><path fill="#677a97" d="M176 177l50-103-35-56z"/><path fill="#795746" d="M310 196l-334-92 8 105z"/><path fill="#091506" d="M391 96l-78-5 111-26z"/><path fill="#d3e9ff" d="M7 35l-31-45L156 1z"/><path fill="#3d2722" d="M171 70l10-32 28 3z"/><path fill="#987362" d="M84 163l312 55 28-105z"/><path fill="#343135" d="M196 91l3 44 42-19z"/><path fill="#15141a" d="M166 107l-20-5 36 61z"/><path fill="#a5bed7" d="M206 27l48 99 5-83z"/><path fill="#222129" d="M138 62l-17-10-3-37z"/><path fill="#f1f2f0" d="M145 95l29 9-14-61z"/><path fill="#797169" d="M29 27l108-3-78 46z"/><path fill="#3d2519" d="M26 224l106-11-72-44z"/><path fill="#132514" d="M359 49l18 16 47-61z"/><path fill="#505b3a" d="M310 87l-72-53 106-3z"/><path fill="#f8ffff" d="M210-24l-19 58 88-27z"/><path fill="#b4c0cd" d="M257 106l-20 75-8-35z"/><path fill="#a59087" d="M156 148l-13-64-119 18z"/><path fill="#e2ac91" d="M221 124l6 19-46 8z"/><path fill="#5a667a" d="M141 60l-23 36 27 22z"/><path fill="#b69683" d="M396 146L221 96l203 3z"/><path fill="#bba88c" d="M312 76l28 12 9-12z"/><path fill="#404240" d="M196 16l-20 14 11 5z"/><path fill="#c5a497" d="M288 71l41-15-34 1z"/><path fill="#70503f" d="M326 168l98 8-36-36z"/><path fill="#b2a7a9" d="M107 52l14-39-34 43z"/><path fill="#21405d" d="M188 146l-18 55 4-70z"/><path fill="#90766b" d="M43 82L9 148l193 29z"/><path fill="#b89079" d="M324 18l-47 20-37-8z"/><path fill="#7a4229" d="M234 168l-16 17-23-53z"/><path fill="#e8f4ff" d="M120 29L107-1 66 9z"/><path fill="#1e2c16" d="M266 40l82-22-35 22z"/><path fill="#d1b2a2" d="M110 81L93 99l58 38z"/><path fill="#8da6c1" d="M181 59l17 32 82-40z"/><path fill="#d1d0d0" d="M179 54l-44 2-5-41z"/><path fill="#c9a6a1" d="M396 71l-1-23 29 29z"/><path fill="#be9c85" d="M354 201l22-30 48 17z"/><path fill="#686560" d="M424-21L298 2l61 46z"/><path fill="#606148" d="M202 32l100-22-46 27z"/><path fill="#af9c96" d="M184 171l4-67 13 52z"/><path fill="#1c2c19" d="M51 66l61 7-39 14z"/><path fill="#e5f4ff" d="M129 23l95-17L81-24z"/><path fill="#5c5d50" d="M65 24L27 74l83-47z"/><path fill="#101e35" d="M185 90l-17 14 13-36z"/><path fill="#b69786" d="M356 71l39-3-58-11z"/><path fill="#94a5b9" d="M162 152l4 29 11-27z"/><path fill="#d5b3a0" d="M257 101l27 4-28 57z"/><path fill="#edf4fe" d="M218-15l-34 55 86-49z"/><path fill="#364b5d" d="M146 143l19 23-8 35z"/><path fill="#264705" d="M315 62l-28 20 54-11z"/><path fill="#545661" d="M227 93l-29-8 37 63z"/><path fill="#3b4a31" d="M270 31l-21 6 27 36z"/><path fill="#1c2614" d="M396 62l-40 1 6-14z"/><path fill="#423023" d="M20 93l-30 36 28-6z"/><path fill="#35150d" d="M240 110v13l-19 4z"/><path fill="#d4af93" d="M131 82l-39 20 32-39z"/><path fill="#2d1b10" d="M159 102l1 57 11-19z"/><path fill="#485156" d="M115 12l8 25 14 8z"/><path fill="#e4effd" d="M315-24l-63 45L151 1z"/><path fill="#2c2920" d="M357 51l-16-11-32 15z"/><path fill="#404b30" d="M249 26l69-8-36-8z"/><path fill="#191715" d="M173 188l-8-6 20-12z"/><path fill="#a3b1c5" d="M227 34l30 11-28 75z"/><path fill="#5c4a35" d="M27 149l-32 20 9 55z"/><path fill="#76859f" d="M185 76l3 69 24-78z"/><path fill="#be9988" d="M298 21l-47 8 36 5z"/><path fill="#afacab" d="M193 40l-39-21-33 16z"/><path fill="#ceccc9" d="M146 68l35-20-50-8z"/><path fill="#9a7d6f" d="M351 115l-106 58 6-41z"/><path fill="#fbfaf5" d="M146 98l24-16-25-16z"/><path fill="#a2765f" d="M179 171l39 53-11-86z"/><path fill="#72675a" d="M43 27l50 39-105-15z"/><path fill="#0f110d" d="M287 93l-27 2 19-33z"/><path fill="#36402a" d="M49 93l58-11V52z"/><path fill="#a99696" d="M109 43l-24-6 34 22z"/><path fill="#a2847e" d="M359 32l-7 9-20-6z"/><path fill="#9f614e" d="M210 43l-16-6 2 20z"/><path fill="#0b0709" d="M195 54l-14 2 3-13z"/><path fill="#9a857e" d="M166 132l7 2v-10z"/><path fill="#bfa897" d="M138 146l14-15-43-25z"/><path fill="#37281f" d="M218 113l-19 28-1-23z"/><path fill="#d4dff0" d="M148-9L18 32-24-2z"/><path fill="#2c1f1b" d="M138 59l-28-18 14 19z"/><path fill="#6c6461" d="M246 81l3 15 5-11z"/><path fill="#919293" d="M171 101l6 4-12 16z"/></svg>