<svg xmlns="http://www.w3.org/2000/svg" viewBox="0 0 128 64"><path fill="#867a73" d="M0 0h128v64H0z"/><path fill="#fff" d="M58 15l75-30L-14 2z"/><path fill="#212913" d="M116-14L80 30l63 1z"/><path fill="#f7ffff" d="M50 34l18-49L40 0z"/><path fill="#534939" d="M-1 12l49-4L2 66z"/><path fill="#ecffff" d="M16-15L-7 11 99 2z"/><path fill="#5e3e35" d="M62 74l-4-42-65 33z"/><path fill="#c4d9f5" d="M82 16L60 0l26 47z"/><path fill="#d4a592" d="M82 32l-8 21 70-20z"/><path fill="#b6948a" d="M46 22l6 32L4 41z"/><path fill="#3c4e70" d="M76 39L59 9l-3 37z"/><path fill="#8e98ac" d="M75 32L37 5l36 4z"/><path fill="#6d6558" d="M72 10l44 13 18-35z"/><path fill="#feffff" d="M47 26l8 7V15z"/><path fill="#121b0b" d="M112 31L88 18l-4 13z"/><path fill="#feffff" d="M65 10l37-11-39-14z"/><path fill="#2a3c2b" d="M2 20l40-1-13 11z"/><path fill="#966c5d" d="M37 51l86 29 21-41z"/><path fill="#605d53" d="M36 9L11 8l-26 42z"/><path fill="#212936" d="M59 41l1-26-12 36z"/><path fill="#0e1102" d="M121 23l-13 8 36-1z"/><path fill="#c1a291" d="M105 19l17 7-9-9z"/><path fill="#482a1b" d="M16 56l-5 24 26-22z"/><path fill="#907166" d="M15 30L1 48l70 11z"/><path fill="#deecff" d="M11-15L87 1l-92 9z"/><path fill="#8490a9" d="M67 27L63 6l-4 42z"/><path fill="#473028" d="M68 12H57l6 6z"/><path fill="#9b9674" d="M95 24l-5-8 12 3z"/><path fill="#e7e0e4" d="M51 30l-8-20 14 2z"/><path fill="#dabdaf" d="M35 27l-4 5 19 12z"/><path fill="#3d5033" d="M81 11l6 11 18-11z"/><path fill="#b8bac5" d="M82 35l-6 23-1-14z"/><path fill="#4b4f57" d="M38 5l9 19-6-1z"/><path fill="#170a08" d="M49 35l5 1v10z"/><path fill="#3c281d" d="M70 41l-2-12-4 15z"/><path fill="#131e15" d="M119 20l12-9h-14z"/><path fill="#d4a18d" d="M71 41l-11 5 16 1z"/><path fill="#343d51" d="M60 45l-2 27-10 7z"/><path fill="#cbbeab" d="M109 28l-6-3h6z"/><path fill="#8a5e4a" d="M41 80l27-32 25 20z"/><path fill="#a99f9c" d="M38 9l-3 7-10 1z"/><path fill="#2c3b3d" d="M75 8l-6 3h8z"/><path fill="#f4fcff" d="M66-2l16 6-20 7z"/><path fill="#c19d8a" d="M101 78l20-22h15z"/><path fill="#8ca7ca" d="M61 29l27-12-24 1z"/><path fill="#755343" d="M140 57l4-17-38 13z"/><path fill="#bb9a88" d="M85 34l46-1 4 15z"/><path fill="#815d4e" d="M30 42L0 51l49 12z"/><path fill="#493132" d="M75 46l-1-5 5-7z"/><path fill="#e3cfba" d="M43 24l-5-1-2 6z"/><path fill="#e4e4ee" d="M47 12v20l9-1z"/><path fill="#e6d3c6" d="M124 21l20 6v-6z"/><path fill="#646258" d="M87 6l57 5-15-24z"/><path fill="#687084" d="M46 20l-7 11 8 4z"/><path fill="#a5bddb" d="M82 15l3 9-21-13z"/><path fill="#b19a89" d="M51 40l-1 8-27-11z"/><path fill="#8491ab" d="M54 57l-1-7 9 1z"/><path fill="#d1dcef" d="M8 11l17-26L-5 7z"/><path fill="#150f16" d="M57 20l6-4-4-2z"/><path fill="#252a18" d="M120 31l-5-7 29-1z"/><path fill="#221517" d="M35 14l7 2 3 4z"/><path fill="#ebf6ff" d="M37 3l-8-1 10 8z"/><path fill="#1d2a17" d="M35 24l-14 5 2-7z"/><path fill="#998279" d="M15 39l-7-9 32 3z"/><path fill="#452e1f" d="M6 39l-5 1 8-15z"/><path fill="#ab9a95" d="M127 15l3 11 14-16z"/><path fill="#403c2c" d="M95 18l19-2-14-7z"/><path fill="#5a5c62" d="M59 14l4-8-6 6z"/><path fill="#9a8973" d="M87 11l20-5-4-5z"/><path fill="#17181b" d="M38 11l1-4 2 2z"/><path fill="#302322" d="M52 34l-2 17 6-5z"/><path fill="#c9c7cc" d="M45 24l13-8V9z"/><path fill="#294707" d="M100 26l-3-5h12z"/><path fill="#ab9b8b" d="M113 23l-1-4 10 3z"/><path fill="#debaab" d="M82 33l5 9 5-9z"/><path fill="#413534" d="M65 34l6 2-7 10z"/><path fill="#a7a1a4" d="M76 40l-2 8 11 7z"/><path fill="#464633" d="M79 9l19-3-7-3z"/><path fill="#9c7f70" d="M82 41l46-3-47 17z"/><path fill="#201213" d="M50 63l1-6 1 7z"/><path fill="#e5effb" d="M81 7L26-5l87-10z"/><path fill="#8a8181" d="M109 10l-7 3h13z"/><path fill="#6a6459" d="M-8 16l35-8 9 13z"/><path fill="#1b1a17" d="M87 31l6-2-8-11z"/><path fill="#66676f" d="M53 54l-6 6 1-16z"/><path fill="#bcb1aa" d="M44 8l6 10 2-12z"/><path fill="#bc9182" d="M67 51l-5-10-2 11z"/><path fill="#231f0d" d="M116 20l8-2 4 3z"/><path fill="#a7bbd2" d="M79 13l-7-1 8 21z"/><path fill="#6a392d" d="M73 59l-4-9h6z"/><path fill="#3e271c" d="M21 55L11 80l23-4z"/><path fill="#8898b3" d="M73 17l-9 10-5-8z"/><path fill="#50605d" d="M74 9l-7 1 5 1z"/><path fill="#38435f" d="M59 52l2-8-5 4z"/><path fill="#161a27" d="M52 40l-3-6 6-1z"/><path fill="#eaf2fb" d="M43 7L21-14 72 1z"/><path fill="#b39580" d="M111 26l-5-1 9-1z"/><path fill="#3c331a" d="M102 4l-7 1 5 1z"/><path fill="#898879" d="M46 24l-6-6-4 2z"/><path fill="#c1aa97" d="M94 8l-6 2 6 1z"/><path fill="#a2adbb" d="M53 26l3 4v6z"/></svg>