<svg xmlns="http://www.w3.org/2000/svg" viewBox="0 0 400 200"><style>@keyframes a{from{opacity: 0}to{opacity: 1}}g&gt;*{opacity: 0;animation: a .5s forwards}</style><path fill="#857a71" d="M0 0h400v200H0z"/><g transform="translate(1 1) scale(1.5625)"><ellipse fill="#fff" rx="1" ry="1" transform="matrix(-.28065 -16.0783 105.06103 -1.83385 81 3)" style="animation-delay:0s"/><path fill="#242e12" d="M166 61l5-56 93 8-5 56z" style="animation-delay:.188s"/><ellipse fill="#fff" cx="98" cy="32" rx="12" ry="35" style="animation-delay:.376s"/><ellipse fill="#383f2d" rx="1" ry="1" transform="matrix(6.1868 22.1586 -43.48381 12.1409 34 42)" style="animation-delay:.562s"/><ellipse fill="#c1d8f3" rx="1" ry="1" transform="matrix(22.1752 58.52554 -13.8812 5.25955 143 23)" style="animation-delay:.746s"/><ellipse fill="#5a3625" rx="1" ry="1" transform="rotate(-176 23 59) scale(80.79367 20.44438)" style="animation-delay:.927s"/><ellipse fill="azure" cx="15" rx="173" ry="17" style="animation-delay:1.104s"/><path fill="#080917" d="M119 97l-20 3-4-33 20-3z" style="animation-delay:1.277s"/><path fill="#d8a892" d="M165 63h91v25h-91z" style="animation-delay:1.445s"/><path fill="#0c1707" d="M166 46h43v17h-43z" style="animation-delay:1.607s"/><path fill="#6a6651" d="M215 58l-75-43L266-3z" style="animation-delay:1.763s"/><ellipse fill="#374159" rx="1" ry="1" transform="matrix(3.22808 -10.40588 22.58844 7.00731 130 70)" style="animation-delay:1.912s"/><ellipse fill="#c8a497" rx="1" ry="1" transform="rotate(118 16 59) scale(14.45998 23.13289)" style="animation-delay:2.054s"/><path fill="#dbeaff" d="M22 20L180 0-11-2l-5 27z" style="animation-delay:2.187s"/><path fill="#c1c6cd" d="M64-1l64 27V3l-25 51z" style="animation-delay:2.312s"/><path fill="#5e7292" d="M136 31l20 44-51-15 15-49z" style="animation-delay:2.427s"/><path fill="#6d6966" d="M84 43L-4 26l85-14 20 82z" style="animation-delay:2.533s"/><ellipse fill="#0d1707" rx="1" ry="1" transform="matrix(-.80045 -8.13198 27.09816 -2.66733 249 54)" style="animation-delay:2.629s"/><path fill="#283444" d="M123 26l-11 69-2-52 8-17z" style="animation-delay:2.714s"/><path fill="#f9ffff" d="M116-10l16 30 102-35z" style="animation-delay:2.789s"/><path fill="#454432" d="M-16 120l38-57 56-14-67-13z" style="animation-delay:2.853s"/><ellipse fill="#d7ada3" rx="1" ry="1" transform="matrix(16.02493 4.41002 -.8754 3.18097 219 41)" style="animation-delay:2.906s"/><ellipse fill="#edf4f9" rx="1" ry="1" transform="matrix(3.7448 14.69142 -8.31384 2.11917 101 52)" style="animation-delay:2.947s"/><ellipse fill="#cab0a6" rx="1" ry="1" transform="matrix(-13.98958 17.96478 -8.36863 -6.51684 163 87)" style="animation-delay:2.976s"/><path fill="#8ba6c8" d="M114 71l48-46-46 14 11 38z" style="animation-delay:2.994s"/></g></svg>