<svg xmlns="http://www.w3.org/2000/svg" viewBox="0 0 400 200"><path fill="#857a71" d="M0 0h400v200H0z"/><ellipse fill="#fff" rx="1" ry="1" transform="matrix(.38502 -29.53047 193.2108 2.51907 101 1)"/><ellipse fill="#253016" rx="1" ry="1" transform="matrix(128.21232 -36.03886 14.85297 52.84111 388 39)"/><ellipse fill="#fff" rx="1" ry="1" transform="matrix(8.6053 68.39233 -20.20477 2.54222 152 36)"/><ellipse fill="#3f4230" rx="1" ry="1" transform="matrix(-95.29424 27.86599 -10.76898 -36.82703 38 74)"/><ellipse fill="#c4dbf6" rx="1" ry="1" transform="matrix(19.85625 -8.62557 43.17264 99.3844 217 29)"/><ellipse fill="#6a4334" rx="1" ry="1" transform="matrix(-140.69809 9.83857 -2.76654 -39.5634 91 179)"/><ellipse fill="#eff" rx="1" ry="1" transform="matrix(258.30172 -24.2519 2.00018 21.3035 143 1)"/><ellipse fill="#daac95" rx="1" ry="1" transform="matrix(-.10807 15.4796 -93.3422 -.65166 332 116)"/><ellipse fill="#0c172b" rx="1" ry="1" transform="rotate(-163 94 45) scale(12.80585 36.74335)"/><ellipse fill="#000700" rx="1" ry="1" transform="rotate(-13 507 -1121) scale(20.2829 12.37155)"/><ellipse fill="#be9a8d" rx="1" ry="1" transform="matrix(22.96926 -18.80013 27.25306 33.29673 118 121)"/><ellipse fill="#0e1607" rx="1" ry="1" transform="matrix(-60.41338 8.3592 -1.7123 -12.37516 394 85)"/><ellipse fill="#1d1c29" rx="1" ry="1" transform="rotate(115 67 125) scale(21.20781 10.05801)"/><ellipse fill="#89a9d2" rx="1" ry="1" transform="rotate(169 109 44) scale(38.60721 23.10266)"/><ellipse fill="#cea698" rx="1" ry="1" transform="rotate(103 147 170) scale(8.35783 19.96018)"/><ellipse fill="#c59b8a" rx="1" ry="1" transform="matrix(-4.30313 -16.97674 50.07132 -12.69168 236 144)"/><ellipse fill="#fdffff" rx="1" ry="1" transform="matrix(-3.80689 -10.09958 56.63293 -21.34695 247 10)"/><ellipse fill="#e2eaf3" rx="1" ry="1" transform="matrix(9.90822 3.932 -15.27112 38.48165 162 67)"/><ellipse fill="#616347" rx="1" ry="1" transform="rotate(-67 175 -197) scale(30.7428 35.83819)"/><ellipse fill="#8b8383" rx="1" ry="1" transform="matrix(-1.78931 -6.24007 46.46968 -13.32497 119 33)"/><ellipse fill="#1d311a" rx="1" ry="1" transform="matrix(-4.0439 -14.37652 26.48889 -7.45093 86 73)"/><ellipse fill="#3d2115" rx="1" ry="1" transform="matrix(-10.89453 16.21277 -26.44924 -17.77315 76 199)"/><ellipse fill="#956a57" rx="1" ry="1" transform="matrix(5.30202 34.28993 -170.93013 26.42976 349 179)"/><ellipse fill="#353b51" rx="1" ry="1" transform="matrix(-6.3349 -5.48745 15.07988 -17.40869 185 57)"/><ellipse fill="#4e5439" rx="1" ry="1" transform="matrix(-43.03083 -6.52557 .63483 -4.18619 257 37)"/></svg>