<svg xmlns="http://www.w3.org/2000/svg" viewBox="0 0 400 200"><filter id="a"><feGaussianBlur stdDeviation="55"/></filter><path fill="#857a71" d="M0 0h400v200H0z"/><g filter="url(#a)"><path fill="#fff" d="M286 22L-8 33-9-2l294-10z"/><path fill="#29341b" d="M443 103l-178-6 3-102 178 7z"/><path fill="#cde2fc" d="M245 73l-94 30-44-137 93-30z"/><path fill="#343b27" d="M-32 130l-21-62L90 21l20 63z"/><path fill="#24293a" d="M208 45l-42 128-22-7 41-128z"/><path fill="#563220" d="M182 235l-294-52 10-54 294 52z"/><path fill="#fff" d="M191 3l113-35 10 31-114 35z"/><path fill="#eff" d="M230 16L-60 36l-3-37 290-21z"/><path fill="#b7c3d7" d="M245 35l31 95-29 9-31-95z"/><path fill="#081503" d="M314 72l-2 30-53-4 2-29z"/></g></svg>