<svg xmlns="http://www.w3.org/2000/svg" viewBox="0 0 400 200"><path fill="#857a71" d="M0 0h400v200H0z"/><path fill="#fff" d="M252 52L-2 26l8-77 254 27z"/><path fill="#152306" d="M431 101l-171-3 1-66 172 3z"/><path fill="#f2feff" d="M135 99l4-113 37 1-4 113z"/><path fill="#353d2c" d="M141 72l-158 46-16-54 158-46z"/><path fill="#5d3c2f" d="M-4 236l-9-77 197-25 9 78z"/><path fill="azure" d="M-32-11l328-23 4 47-329 23z"/><path fill="#98bdeb" d="M267 56l-20 51-60-24 21-51z"/><path fill="#4f533e" d="M241 27l153-68 32 72-153 68z"/><path fill="#263149" d="M216 83l14 38-69 25-14-38z"/><path fill="#d5ab9b" d="M326 145h-85v-45h85z"/><path fill="#b59990" d="M98 79l45-8 14 80-45 8z"/><path fill="#5d5f5f" d="M193 53l-4-16 57-14 4 17z"/><path fill="#fdffff" d="M265-22l9 36-75 19-9-36z"/><path fill="#102a4e" d="M185 97l-11-1 9-73 10 1z"/><path fill="#cda28a" d="M413 104l-1 41-86-3 1-41z"/><path fill="#c6a693" d="M289 55l137 17-1 6-137-17z"/><path fill="#5a5449" d="M96 25l1 20-64 4-1-21z"/><path fill="#bab5b7" d="M128 24l43-7 5 33-43 6z"/><path fill="#fff" d="M161 65l6 38-17 3-6-39z"/><path fill="#27331e" d="M110 85l-54 15-8-27 54-15z"/><path fill="#8599b7" d="M180 151l4-94h15l-3 94z"/><path fill="#000a02" d="M301 78l-2 21-39-3 2-22z"/><path fill="#875d4b" d="M410 143l-3 34-134-12 3-34z"/><path fill="#4c2f1e" d="M-18 157l-13-14 51-46 13 14z"/><path fill="#3f2115" d="M58 172l45 18-15 36-45-18z"/><path fill="#071605" d="M413 100l-48-3 2-27 48 4z"/><path fill="#1d0e05" d="M153 107l17-3 7 44-17 2z"/><path fill="#a2b9d4" d="M209 76l11-42 41 10-11 43z"/><path fill="#aa907b" d="M355 48l9 27-30 10-9-27z"/><path fill="#955c45" d="M269 239l-90-68 23-30 89 68z"/><path fill="#c69f91" d="M210 128l65 33-8 16-65-34z"/><path fill="#4e6581" d="M145 104l-14 1-2-42 14-1z"/><path fill="#d4af9e" d="M134 75l-50 55-10-9 50-56z"/><path fill="#8e8383" d="M85 68L74 54l46-39 11 13z"/><path fill="#977363" d="M15 126l26-45 115 67-26 44z"/><path fill="#b6c8d7" d="M237 180l-8-2 20-69 8 2z"/><path fill="#effcff" d="M230 11l77-28 5 14-76 28z"/><path fill="#8ca4c2" d="M181 172l-17 6-6-17 17-7z"/><path fill="#0f130e" d="M297 93l1-11 67 8-2 10z"/><path fill="#cca089" d="M303 34l-33 6-2-12 32-7z"/><path fill="#4c3830" d="M200 135l-4-17 46-11 4 17z"/><path fill="#1b2e13" d="M282 38l57-16 2 8-57 15z"/><path fill="#d6d5d6" d="M162 24l20 28-30 22-20-27z"/><path fill="#d1e2ff" d="M2 34l3-58 25 1-3 58z"/><path fill="#1d2d1b" d="M360 58l33-39 15 12-34 39z"/><path fill="#fff" d="M120 29l-6 4-7-10 6-5z"/><path fill="#9c9c9c" d="M193 23l-1 21-52-3 1-21z"/><path fill="#1b3045" d="M182 142l8 2-18 57-7-3z"/><path fill="#5b584a" d="M-61 57L54 27l8 30-115 30z"/><path fill="#818769" d="M277 34l31 31-12 12-31-31z"/><path fill="#c7977b" d="M354 187l87-19 4 19-87 18z"/><path fill="#434930" d="M228 23l46 24-4 7-45-24z"/><path fill="#d4beb3" d="M273 133l-31-9 8-27 31 9z"/><path fill="#284107" d="M367 76l-1 6-65-10 1-6z"/><path fill="#1d1b21" d="M167 70l26-29 4 3-26 29z"/><path fill="#212e41" d="M175 119l-5-45 13-1 5 45z"/><path fill="#dfeeff" d="M32 23L31 1 229-9l1 22z"/><path fill="#333d46" d="M114 14l2-1 18 34-1 1z"/><path fill="#e9cbb2" d="M347 78v1l-26 4-1-2z"/><path fill="#a88b87" d="M360 39l-42 5-1-7 42-4z"/><path fill="#cbaab1" d="M400 64l-9-11 7-6 9 11z"/><path fill="#977567" d="M259 217l-11-85 82-10 11 85z"/><path fill="#73412b" d="M214 182l-4-29 19-2 3 29z"/><path fill="#ba9e8e" d="M80 118l12-23 61 33-12 22z"/><path fill="#29323c" d="M180 41l18-28 1 1-17 28z"/><path fill="#728098" d="M241 112l-16 8-30-59 16-7z"/><path fill="#bfcdda" d="M147 32l98 7v3l-98-7z"/><path fill="#846759" d="M-25 135l181 6-1 35-181-6z"/><path fill="#6c665b" d="M91 58l-46 8-6-35 46-8z"/><path fill="#d29d81" d="M228 138l-35 26-7-10 35-26z"/><path fill="#d2cfcc" d="M152 26l10 24-25 10-10-24z"/><path fill="#300900" d="M199 142l-6-5 9-11 6 5z"/><path fill="#40452b" d="M212 34l68-15 1 2-69 14z"/><path fill="#b5a0a1" d="M91 46l3-6 23 13-3 5z"/><path fill="#0b130c" d="M268 95l6-31 13 2-6 31z"/><path fill="#b69e8f" d="M341 82l-5 8-9-5 4-8z"/><path fill="#acbbcd" d="M232 51l31 3-3 28-31-3z"/><path fill="#85524a" d="M207 56l-20-10 5-10 19 10z"/><path fill="#f0f8ff" d="M231-8l6 32-38 8-7-33z"/><path fill="#bc9d86" d="M379 68v6l-41-3 1-6z"/><path fill="#251b20" d="M124 46l20 22-3 3-21-22z"/><path fill="#4a533b" d="M271 9l45 4-1 11-45-4z"/><path fill="#fff" d="M198 25l4 5-11 9-4-5z"/><path fill="#f6f8fa" d="M169 91l-22-2 2-22 21 2z"/><path fill="#3d423a" d="M330-7l52 31-4 6-52-30z"/><path fill="#6e4c3b" d="M74 189l38-35 28 31-37 35z"/><path fill="#384433" d="M110 54l6 24-68 17-6-24z"/><path fill="#455461" d="M165 191l-12 2-7-51 12-2z"/><path fill="#c79d89" d="M308 23l-67 10v-2l66-9z"/><path fill="#2f1613" d="M232 135l-9-3 3-12 9 3z"/><path fill="#67493b" d="M375 157l15-11 15 21-15 11z"/><path fill="#869bbb" d="M181 60l15-4 9 36-15 4z"/><path fill="#404f40" d="M63 73l-5 15-120-41 5-15z"/><path fill="#38531f" d="M281 88l-3-11 55-16 3 10z"/><path fill="#a7bdb9" d="M278 51l-38 23-1-2 38-22z"/><path fill="#d0af9a" d="M254 105h14l1 45h-14z"/><path fill="#a98881" d="M294 77l-7-4 11-20 7 4z"/><path fill="#99acc2" d="M173 102l-12 2-1-7 12-3z"/><path fill="#e5eeff" d="M296-16l5 20-48 13-6-19z"/><path fill="#be9a9a" d="M357 57v4h-41v-5z"/></svg>