<svg xmlns="http://www.w3.org/2000/svg" viewBox="0 0 400 200"><path fill="#857a71" d="M0 0h400v200H0z"/><g fill="none"><path stroke="#fff" d="M0 22q299-38 306-11M-21 6l315-1m2-2q-2 10-305 7m358-20Q254 21-3 22m-21 11q261-57 307-17m141-40Q263 20 0 18M302 4Q229 22-24 24M291 3Q40 5-10 2m-14 3q2 7 301 1m-301 7h299m25-20Q274 43-24 0m432-24Q281 22-21 20m-3-4q224 3 395-28m-93 23Q159 9-19 10m298 3Q-13 34-22 19m282 0Q203-1-24 6m276 15Q73 8-18 12"/><path stroke="#e1f6ff" d="M-24 54Q143-3 366-1"/><path stroke="#fff" d="M-24 9q72-4 316-1"/><path stroke="#fdffff" d="M307-24Q265 65-20 5"/><path stroke="#faffff" d="M254 86Q249-24-13 37"/><path stroke="#f3ffff" d="M-24 17q278-41 271 110"/><path stroke="#fff" d="M270 4Q260 40-12 7m-12 27Q197-8 288 9m2-2q-155 24-137 97"/></g></svg>