<svg xmlns="http://www.w3.org/2000/svg" viewBox="0 0 400 200"><path fill="#857a71" d="M0 0h400v200H0z"/><g transform="translate(1 1) scale(1.5625)"><ellipse fill="#d2e7fc" cx="112" rx="58" ry="58"/><ellipse fill="#30361c" cx="223" cy="30" rx="40" ry="40"/><ellipse fill="#f6ffff" cx="26" rx="27" ry="27"/><ellipse fill="#41412f" cx="31" cy="47" rx="31" ry="31"/><ellipse fill="#3d3a24" cx="67" cy="33" rx="18" ry="18"/><ellipse fill="#001200" cx="181" cy="49" rx="15" ry="15"/><ellipse fill="#633b28" cx="41" cy="127" rx="43" ry="43"/><ellipse fill="#3f4f6f" cx="126" cy="43" rx="19" ry="19"/><ellipse fill="#fff" cx="132" rx="20" ry="20"/><ellipse fill="#fdffff" cx="65" rx="19" ry="19"/><ellipse fill="#333646" cx="116" cy="79" rx="20" ry="20"/><ellipse fill="#a1c1e7" cx="148" cy="43" rx="18" ry="18"/><ellipse fill="#fff" cx="100" cy="55" rx="10" ry="10"/><ellipse fill="#e1b8a8" cx="170" cy="79" rx="17" ry="17"/><ellipse fill="#e9ffff" cx="9" rx="22" ry="22"/><ellipse fill="#feffff" cx="98" rx="21" ry="21"/><ellipse fill="#48451f" cx="170" cy="21" rx="12" ry="12"/><ellipse fill="#fff" cx="162" rx="13" ry="13"/><ellipse fill="#b08979" cx="58" cy="83" rx="28" ry="28"/><ellipse fill="#cca08c" cx="231" cy="78" rx="17" ry="17"/><ellipse fill="#745045" cx="113" cy="123" rx="36" ry="36"/><ellipse fill="#000d00" cx="247" cy="53" rx="10" ry="10"/><ellipse fill="#e9feff" cx="44" rx="17" ry="17"/><ellipse fill="#fff" cx="180" rx="6" ry="6"/><ellipse fill="#ca9c8b" cx="204" cy="76" rx="15" ry="15"/></g></svg>