<svg xmlns="http://www.w3.org/2000/svg" viewBox="0 0 400 200"><path fill="#857a71" d="M0 0h400v200H0z"/><path fill="#fff" d="M281 22L-9 32l-2-52 291-10z"/><path fill="#232d11" d="M403 14l-1 89-141-3 2-89z"/><path fill="#cbe1fb" d="M249 80l-102 23-29-128 102-23z"/><path fill="#333a26" d="M87 23l22 58-125 48-23-58z"/><path fill="#151c31" d="M185 34l19 5-28 113-19-5z"/><path fill="#563220" d="M-12 203l8-54 196 31-8 54z"/><path fill="#eff" d="M-87-11l289-31 6 55-289 30z"/><path fill="#e8c2b3" d="M298 135l-58-2 1-35 58 2z"/><path fill="#fff" d="M187 4l118-36 9 30-118 36z"/><path fill="#cca18b" d="M259 134V98h168v36z"/><path fill="#fffcf6" d="M161 38l12 65-23 4-12-65z"/><path fill="#3e404e" d="M220 85l15 43-75 26-15-43z"/><path fill="#8ba6c6" d="M215 24l57 33-30 51-56-32z"/><path fill="#c6a193" d="M82 98l41-25 34 56-41 25z"/><path fill="#0a150b" d="M353 99l-96-6 1-16 96 7z"/><path fill="#d6ada1" d="M368 64l-4 13-37-11 4-14z"/><path fill="#2c3727" d="M45 82l85-38 8 19-85 38z"/><path fill="#cea491" d="M321 26l-53 14-3-11 53-14z"/><path fill="#8394b0" d="M207 59l-13 90-18-3 12-90z"/><path fill="#000f00" d="M415 91l-54 8-3-20 54-8z"/><path fill="#59594f" d="M400-56l31 48-101 66-31-49z"/><path fill="#caa394" d="M266 164l-63-14 5-22 62 15z"/><path fill="#866051" d="M158 183L21 171l4-39 137 12z"/><path fill="#935e49" d="M289 191l-32 62-89-45 32-63z"/><path fill="#505439" d="M199 36l62-16 1 5-62 16z"/><path fill="#10161c" d="M196 16l1 1-16 25-1-1z"/><path fill="#211005" d="M173 148l-17 2-5-40 17-2z"/><path fill="#855845" d="M460 172l-167 6-1-30 167-6z"/><path fill="#000006" d="M126 36l-11-19 1-1 12 19z"/><path fill="#a18377" d="M24 100l24-19 35 46-23 18z"/><path fill="#222e1a" d="M251 35l12-4 25 67-11 4z"/><path fill="#b7c7d5" d="M248 109l9 2-19 70-9-3z"/><path fill="#abbdd3" d="M257 42l4 46-35 3-4-46z"/><path fill="#c5ae91" d="M331 89l-2-9 16-5 3 9z"/><path fill="#130e0e" d="M192 41l4 3-24 29-4-3z"/><path fill="#666157" d="M-13 37l93-13 4 28-93 13z"/><path fill="#3a1e15" d="M59 176l44 20-10 23-44-20z"/><path fill="#b99e90" d="M287 58l39-3 1 8-39 2z"/><path fill="#7c7e8e" d="M190 38l22-8 19 53-22 8z"/><path fill="#d3d9da" d="M131 34h103v5H131z"/><path fill="#1d2b1a" d="M408 17l10 14-52 38-10-14z"/><path fill="#c29379" d="M385 217l-30-17 18-31 30 17z"/><path fill="#d3cbc4" d="M131 54l5-32 41 6-5 33z"/><path fill="#1d3350" d="M164 196l16-55 8 2-17 55z"/><path fill="#624635" d="M31 129l-47 15-13-44 46-14z"/><path fill="#c8ab94" d="M335 69v-4l57 2-1 4z"/><path fill="#9e7a6b" d="M255 185l-6-57 76-8 6 57z"/><path fill="#d1e3ff" d="M-3-4l90-31 14 41-90 31z"/><path fill="#efffff" d="M237 25l-5-13 85-35 6 13z"/><path fill="#1c321a" d="M223 31l1-3 33 11-1 3z"/><path fill="#361f1a" d="M245 110l-17 27-2-2 16-26z"/><path fill="#32211d" d="M194 138l15-34 8 3-15 35z"/><path fill="#1c2838" d="M174 66h9l1 54h-9z"/><path fill="#c9a6a3" d="M403 73l-9-1 1-21h10z"/><path fill="#66778f" d="M145 65l-2 56h-14l2-56z"/><path fill="#e6c3ad" d="M122 70l7 6-25 28-6-6z"/><path fill="#79452d" d="M229 150l1 33h-23l-1-33z"/><path fill="#1f271d" d="M258 99l4-40 28 3-4 40z"/><path fill="#173c00" d="M337 76l-31 1-1-11 32-1z"/><path fill="#7d8c6e" d="M303 62l-6 11-33-18 6-11z"/><path fill="#2b0f12" d="M113 40l20 17-3 5-21-17z"/><path fill="#feffff" d="M104 23l3-4 12 10-3 3z"/><path fill="#c5b1a4" d="M152 140l-39-22 5-10 40 23z"/><path fill="#8e7877" d="M360 63l-13-1 1-39 13 1z"/><path fill="#937f78" d="M106 43L62 67l-4-9 44-23z"/><path fill="#f5fbff" d="M192 22l-50-3 2-36 50 3z"/><path fill="#3f4c36" d="M288 16l-30 14-4-7 31-14z"/><path fill="#d7a48b" d="M203 161l-10 3-7-24 10-3z"/><path fill="#1a2d13" d="M296 44l-2-7 43-14 2 7z"/><path fill="#fffefa" d="M166 94l-21 3-3-27 20-2z"/><path fill="#2c321e" d="M351 40l2 11-40 7-2-11z"/><path fill="#9296a3" d="M174 163l-10 34-6-2 10-34z"/><path fill="#87827f" d="M169 21l1 5-47 1v-4z"/><path fill="#434b3a" d="M-7 36L95 90l-8 14-102-55z"/><path fill="#415160" d="M158 138l6 46-11 2-6-47z"/><path fill="#c3b2aa" d="M245 96l10-4 21 57-11 4z"/><path fill="#2c3b37" d="M352 14l-27-7 6-20 27 8z"/><path fill="#633525" d="M183 43l18-6 5 15-18 6z"/><path fill="#e0ecfd" d="M48-16l60-7 5 43-60 8z"/><path fill="#ae8773" d="M70 124l6-16 65 25-6 17z"/><path fill="#96afcc" d="M182 56l19 4-4 14-18-4z"/><path fill="#6b6458" d="M36 27l45 4-2 25-46-4z"/><path fill="#eff7ff" d="M244-17l8 38-54 10-7-38z"/><path fill="#c19884" d="M244 30l57-6 1 4-58 6z"/><path fill="#111e0d" d="M373 63l1-5 51 6v5z"/><path d="M168 187l5-10 7 3-5 10z"/><path fill="#a9b6c3" d="M253 50l12 6-23 43-12-7z"/><path fill="#dabca6" d="M321 83l-1-1 23-4 1 1z"/><path fill="#b2a8b1" d="M120 61L99 45l1-1 21 16z"/><path fill="#90766b" d="M16 110l61-21 5 15-60 21z"/><path fill="#928477" d="M306 45l-1-1 82-16v2z"/><path fill="#4d5259" d="M177 40l15-22 4 3-15 22z"/><path fill="#0d0f19" d="M147 104l27 14v2l-28-15z"/><path fill="#505e75" d="M196 115l-4-28 26-4 4 28z"/><path fill="#212e1c" d="M82 92L60 80l10-17 22 11z"/><path fill="#b19284" d="M310 100l-3 30-37-4 2-29z"/><path fill="#1c1410" d="M520 100l-264-5v-3l264 5z"/><path fill="#8e6e60" d="M366 177l-27 60-78-35 26-60z"/><path fill="#304049" d="M116 14l15 32-1 1-16-32z"/><path fill="#2f4a31" d="M262 67l-1-8 32-6 1 8z"/><path fill="#836758" d="M-28 140l153-2 1 33-153 2z"/><path fill="#604437" d="M394 178l-15-9 10-17 15 8z"/><path fill="#b1bcc5" d="M175 116h-1l-7-52 2-1z"/><path fill="#fff" d="M226 17l-36 21-2-3 37-21z"/><path fill="#3d2919" d="M217 126l-16 9-4-6 16-10z"/><path fill="#b09280" d="M308 101l110 8-2 39-111-8z"/><path fill="#8e8067" d="M279 39l1 3-26 6-1-3z"/><path fill="#3e402a" d="M365 73l9 16-22 12-9-17z"/><path fill="#14291d" d="M-14 42l29-4 1 3-30 4z"/><path fill="#bec2c6" d="M147 112h-2l-3-50h2z"/><path fill="#435147" d="M87 36l19-10 3 5-20 11z"/><path fill="#5a614c" d="M411 3l1 31-40 2-2-31z"/><path fill="#e8f1ff" d="M104 2l17-20 33 27-17 20z"/><path fill="#a38e87" d="M336 11l1 3-24 8-1-3z"/><path fill="#393d43" d="M124 22l7 5-7 9-6-5z"/><path fill="#d8a488" d="M188 150l34-23 4 6-34 22z"/><path fill="#746d71" d="M145 129l-29-37 9-7 29 37z"/><path fill="#d2d2d2" d="M137 36l39 11-5 18-39-11z"/><path fill="#f1bead" d="M298 65l1 4-8 2-1-4z"/><path fill="#18141d" d="M161 123l-9-3 5-16 9 2z"/><path fill="#d0cdca" d="M143 39l-31-3v-1l31 2z"/><path fill="#9d8a8a" d="M407 51l-4 12-15-6 5-12z"/><path fill="#c9a894" d="M421 106l-33 21-10-16 33-21z"/><path fill="#2a262b" d="M151 213l1-34h8l-1 34z"/><path fill="#9b6c60" d="M191 50l4-13 15 5-4 13z"/><path fill="#201107" d="M155 148l6-3 4 9-6 2z"/><path fill="#1f3218" d="M316 40l-19 3-2-13 19-3z"/><path fill="#301810" d="M224 135l12-19 1 1-12 18z"/><path fill="#14141d" d="M120 39l1-1 10 16h-1z"/><path fill="#6f7e5b" d="M144 63l1 4-41 6v-5z"/><path fill="#cfd9e9" d="M-27 34l3-50 53 3-3 50z"/><path fill="#18241c" d="M404 46l-42-3 1-9 42 3z"/><path fill="#2f3f27" d="M97 78l-3-21 17-2 3 20z"/><path fill="#96afcc" d="M251 46l-31 20-7-10 31-21z"/><path fill="#fdfcf8" d="M213 32l-3-9 10-4 3 9z"/><path fill="#958776" d="M275 21l48-17v2l-47 16z"/><path fill="#000510" d="M182 44l3-1 3 12-3 1z"/><path fill="#7b7760" d="M30 161l18 6-11 30-18-7z"/><path fill="#464f5d" d="M184 160l-16-5 6-20 16 6z"/><path fill="#927d70" d="M157 165l-1 13-33-4 1-12z"/><path fill="#7e8a6e" d="M85 68v-1l60-2v1z"/><path fill="#baa9a5" d="M199 156l-13-51h1l13 51z"/><path fill="#a56e54" d="M199 141l28 8-6 21-28-8z"/><path fill="#93847b" d="M34 82h11l3 62-10 1z"/><path fill="#4c4c35" d="M267 48l-1 2-38-25 1-1z"/><path fill="#ae8f86" d="M299 63l63-10v1l-63 10z"/><path fill="#4f4235" d="M25 81l13 8-23 41-14-8z"/><path fill="#98867f" d="M94 59L84 47l17-14 10 12z"/><path fill="#674a32" d="M250 158l3-30h1l-2 30z"/><path fill="#767161" d="M-17 104l12-37 24 8-13 37z"/><path fill="#778dac" d="M205 51l17 9-19 37-17-8z"/><path fill="#948474" d="M326 76l17 3-2 12-17-3z"/><path fill="#4b403c" d="M156 135l24-27 9 8-23 27z"/><path fill="#bda193" d="M84 117l44-10 3 12-45 10z"/><path fill="#9ab69c" d="M257 61l-1-1 26-10 1 1z"/><path fill="#303d52" d="M180 58l9 33-7 2-10-33z"/><path fill="#676059" d="M235 124l-2 17-4-1 2-17z"/><path fill="#374129" d="M396 83l-49 13-4-15 49-13z"/><path fill="#423e36" d="M368 66l-10-1 4-29 9 1z"/><path fill="#353e2d" d="M246 33l-44-1v-1l44 1z"/><path fill="#5a5b51" d="M283 9l4 19-9 2-4-19z"/><path fill="#a4a8ad" d="M230 93h29v15l-28 1z"/><path fill="#c8a38f" d="M276 37l37-17v1l-37 17z"/><path fill="#cca895" d="M422 169l2 4-51 22-1-4z"/><path fill="#b1aaad" d="M238 139h-3l-3-17h4z"/><path fill="#8b6f5c" d="M82 146l42-26 5 8-41 25z"/><path fill="#475233" d="M290 14l25-1v9l-25 1z"/><path fill="#614337" d="M42 168l3-7 59 26-4 7z"/><path fill="#afabab" d="M149 63l2-37h8l-3 38z"/><path fill="#09130d" d="M310 94l1-8 34 3-1 8z"/><path fill="#a8c1d7" d="M208 40l13-6 7 15-13 6z"/><path fill="#2e3a20" d="M-9 195l20-5 3 14-20 4z"/><path fill="#999eb3" d="M175 158l2 15-13 2-2-15z"/><path fill="#666562" d="M279 18l21-17 1 1-21 17z"/><path fill="#aeacad" d="M136 110l12-4 3 11-12 3z"/><path fill="#443f2a" d="M93 81l13-9 5 8-13 9z"/><path fill="#604134" d="M220 160h11v22h-11z"/><path fill="#805843" d="M90 157l9-10 57 51-10 10z"/><path fill="#858589" d="M252 76l-10 47h-2l10-48z"/><path fill="#1e371b" d="M296 90l-5 3-20-34 5-3z"/><path fill="#e3eeff" d="M222-4h67V9h-67z"/><path fill="#34201e" d="M107 45l12-6 1 2-13 5z"/><path fill="#747d8d" d="M174 84l-6-2 6-15 6 3z"/><path fill="#aea8a8" d="M150 155l3-31h1l-2 32z"/><path fill="#71685c" d="M-1 41l69 12-2 14-70-12z"/><path fill="#010" d="M344 77l-6-1 1-2 6 2z"/><path fill="#967b67" d="M407 140l-78 17-3-14 78-17z"/><path fill="#0e2015" d="M79 45l1 2-14 3v-1z"/><path fill="#d0b4ae" d="M96 102l-1-9 23-3 1 9z"/><path fill="#6a6255" d="M322 38l-1-5 59-10v5z"/><path fill="#5c3e29" d="M345 158h11v11h-11z"/><path fill="#d4b4a0" d="M275 130l-20-6 6-21 20 5z"/><path fill="#4e4e58" d="M186 24v9l-4 1-1-10z"/><path fill="#ac8a7e" d="M249 29l-4 4-8-7 4-5z"/><path fill="#af8e7c" d="M249 165l11-37 18 5-11 38z"/><path fill="#060d1b" d="M139 63l-1 2-10-8 1-1z"/><path fill="#374c28" d="M304 69l14 16-14 13-14-16z"/><path fill="#8b786f" d="M410 16l-2 8-26-5 2-7z"/><path fill="#d0a58c" d="M222 146l-19-2 2-11 18 3z"/><path fill="#52543b" d="M261 32l83 21v1l-83-21z"/><path fill="#394760" d="M117 16l13 13-1 1-14-13z"/><path fill="#826a5d" d="M16 137l4-43 16 2-5 43z"/><path fill="#e2edf9" d="M116 25l-25 1-2-50 25-1z"/><path fill="#7c6358" d="M173 202l12-45 9 2-12 45z"/><path fill="#2c4332" d="M9 67l56 1v4L9 71z"/><path fill="#a98978" d="M218 197l-3 5-25-16 3-5z"/><path fill="#7d6b68" d="M174 127l3 4-9 6-3-4z"/><path fill="#927163" d="M102 105l19 39-6 3-18-40z"/><path fill="#37291f" d="M38 200l34-12 4 11-34 11z"/><path fill="#713c29" d="M121 88h3v10h-3z"/><path fill="#665c54" d="M159 219l2-40h10l-3 41z"/><path fill="#75574e" d="M242 173l16 1-1 51h-16z"/><path fill="#576351" d="M235 24l-21 11-1-2 21-10z"/><path fill="#17321d" d="M25 62l-1 3-32-7 1-3z"/><path fill="#b1917e" d="M166 167h-1l5-20h1z"/><path fill="#937a71" d="M275 99l86-1v4l-86 2z"/><path fill="#7b8692" d="M199 13l1 1-13 12-1-1z"/><path fill="#93a2b6" d="M162 108l-7-7 10-10 6 6z"/><path fill="#5c2c11" d="M146 161l-2 3-7-5 2-2z"/><path fill="#8f9fad" d="M127 93l6-31h2l-7 31z"/><path fill="#b1977e" d="M337 69v-2l97 3v2z"/><path fill="#b4968a" d="M130 126l21 16-7 9-21-17z"/><path fill="#5c5c4f" d="M66 81l2 3-33 18-1-3z"/><path fill="#7f7674" d="M60 36l-1-7 23-4 1 7z"/><path fill="#b8a49d" d="M235 185l-6-1 3-36 6 1z"/><path fill="#e3eef5" d="M104 18l6-5 9 11-6 5z"/><path fill="#b29490" d="M401 70l-6-15 3-1 5 14z"/><path fill="#c5ccd4" d="M199 31l1 1-16 10-1-1z"/><path fill="#ad9287" d="M77 175h-1l-14-29 1-1z"/><path fill="#d8d9de" d="M382-8l35 16v1L381-6z"/><path fill="#855b47" d="M403 198l-11 11-9-8 11-12z"/><path fill="#b2968e" d="M323 7l-29 8v-2l29-7z"/><path fill="#1a361f" d="M266 45l4 7-10 5-3-7z"/><path fill="#ada7a1" d="M139 29v-9l36 2v10z"/><path fill="#635754" d="M157 140h-4l1-22h4z"/><path fill="#100f0d" d="M283 69l-12 26-6-3 12-26z"/><path fill="#475d42" d="M274 73l-10-5 5-11 10 4z"/><path fill="#313024" d="M376 20l-3 7-13-5 3-7z"/><path fill="#6c6f53" d="M255 49v-1l60-8 1 2z"/><path fill="#554643" d="M234 142l-2 1-21-42 3-2z"/><path fill="#7b7d6a" d="M438 37l-99-12v-1l99 12z"/><path fill="#987567" d="M273 166l-11-13 36-30 11 13z"/><path fill="#6a6d71" d="M250 97l-5-10 6-4 6 9z"/><path fill="#6b4c42" d="M90 169l10 13-19 16-11-13z"/><path fill="#c5cbd5" d="M136 126l3-2 8 11-3 2z"/><path fill="#95845c" d="M91 85l6-3 4 6-6 4z"/><path fill="#8e6f5e" d="M126 155l30 40-3 2-29-40z"/><path fill="#5b667d" d="M157 109l-26-12 1-1 26 11z"/><path fill="#465244" d="M50 56L34 82l-8-5 16-26z"/><path fill="#d1d1d1" d="M157 72l-14-16 24-21 14 17z"/><path fill="#d1d5d7" d="M144 115l3-19h1l-3 19z"/><path fill="#141e1c" d="M110 63l-14 2-1-8 14-2z"/><path fill="#e3ebf8" d="M252 20l-8-18 46-21 8 19z"/><path fill="#464f43" d="M20 39l-1 5-37-7 1-4z"/><path fill="#6a5348" d="M146 113l3 11-6 2-3-11z"/><path fill="#a6a3a6" d="M106 53l-5-1 4-19 5 1z"/><path fill="#9d9c78" d="M115 67l10 1-1 7h-9z"/><path fill="#0e160e" d="M365 87l34 1v8l-34-1z"/><path fill="#f9fdfe" d="M191 34l-1-1 27-28 1 1z"/><path fill="#160000" d="M195 51v1l-7 2-1-1z"/><path fill="#86766d" d="M318 51l-4-12 11-3 3 12z"/><path fill="#a7b3bc" d="M259 72h2l-6 29h-2z"/><path fill="#2e2224" d="M147 102l31 49-2 1-30-49z"/><path fill="#6d6866" d="M121 29l-21 13-1-1 21-13z"/><path fill="#333e25" d="M312 42l-31 1-1-6 32-1z"/><path fill="#494f42" d="M42 37l14-10 4 6-14 10z"/><path fill="#857672" d="M239 110l-17 18-6-5 17-18z"/><path fill="#636746" d="M244 34l89 17v1l-89-17z"/><path fill="#3a3e48" d="M221 121l-9 3-10-24 9-4z"/><path fill="#8996a7" d="M179 130l17-12 4 7-16 11z"/><path fill="#aa8d83" d="M351 34l1 3-11 6-1-3z"/><path fill="#e5d1d0" d="M328 1l-3 1-1-1 3-1z"/><path fill="#d2b2a2" d="M228 145l-3 2-8-19 3-1z"/><path fill="#162438" d="M166 111l-1-1 17-26 2 1z"/><path fill="#311e18" d="M201 138h-1l-3-22h2z"/><path fill="#131c0c" d="M337 52l-3-8 8-4 4 9z"/><path fill="#212112" d="M74 82L64 96l-2-2 10-13z"/><path fill="#cda494" d="M274 37v-2l22-11 1 1z"/><path fill="#c9a391" d="M257 149l8-53 2 1-9 52z"/><path fill="#6b6260" d="M266-21l3-4 94 48-2 4z"/><path fill="#d2a897" d="M128 77l2 3-41 23-2-3z"/><path fill="#b1846c" d="M211 158l-5 14-21-6 5-15z"/><path fill="#a58974" d="M346 178l23 14-7 10-23-14z"/><path fill="#360000" d="M199 46l-1-1 5-2v1z"/><path fill="#787670" d="M55 71l2 1-26 37-2-1z"/><path fill="#bea290" d="M395 108v6l-107-2v-6z"/><path fill="#9ca6ac" d="M179 49l-2-25h1l3 25z"/><path fill="#47566f" d="M174 142h6v33h-6z"/><path fill="#846c62" d="M22 33l16-1 1 17-16 1z"/><path fill="#4a472b" d="M289 19l1 1-43 10v-2z"/><path fill="#97977c" d="M297 74l-16-14 1-2 16 15z"/><path fill="#ab8e78" d="M257 37l-18-10 3-6 18 10z"/><path fill="#31302b" d="M373 53v-1l34-4v2z"/><path fill="#eaf2fc" d="M167-15h23l1 37-23 1z"/><path fill="#23332a" d="M372 8V6l17 3v2z"/><path fill="#020000" d="M166 111v8h-11v-8z"/><path fill="#8398b4" d="M226 40l2-2 35 27-2 2z"/><path fill="#9d8682" d="M111 186l-9 24-2-1 9-23z"/><path fill="#917b6f" d="M47 126l-4-25 46-6 4 24z"/><path fill="#90919e" d="M196 37l11 62h-2l-10-62z"/><path fill="#2b120b" d="M240 114l1 1-17 16-1-1z"/><path fill="#ab9188" d="M356 67l-9-1 1-10 10 2z"/><path fill="#a0b3c6" d="M184 62l22-8 2 4-22 8z"/><path fill="#263520" d="M284 56l2-1 6 9-1 1z"/><path fill="#957372" d="M122 42l1 1-9 10-1-1z"/><path fill="#40412d" d="M304 49l34-1v8l-34 1z"/><path fill="#8a897b" d="M131 56l1 1-12 5v-2z"/><path fill="#b8bfc6" d="M249 125l-17-65 5-2 17 65z"/><path fill="#2c3c26" d="M387 22l26 3-1 8-26-3z"/><path fill="#927a71" d="M307 25l16-14 3 3-16 14z"/><path fill="#405651" d="M199 32l25 2v1l-25-2z"/><path fill="#241910" d="M159 150l-2-6 17-8 2 6z"/><path fill="#2f2317" d="M15 118h-2l2-22h2z"/><path fill="#e8f0fa" d="M215 32L188 8l27-29 26 24z"/><path fill="#1c2818" d="M402 84l-4 5-20-15 3-5z"/><path fill="#a2867b" d="M266 30l7-10 7 5-8 10z"/><path fill="#999084" d="M304 62v1l-32-14 1-1z"/><path fill="#a7afb8" d="M172 91v23h-2V91z"/><path fill="#251d1b" d="M162 133l18-25 1 1-18 25z"/><path fill="#d0cdc9" d="M149 73l-22-38 10-6 22 38z"/><path fill="#384339" d="M68 38l37-7v2l-37 6z"/><path fill="#192617" d="M366 59l22-4 1 6-22 4z"/><path fill="#273d03" d="M347 75v1l-49-2v-2z"/><path fill="#7c5e3d" d="M336 106l-1-1 9-3 1 1z"/><path fill="#5a5343" d="M326 40l-1-3 42-13 1 3z"/><path fill="#031106" d="M292 97l-3-2 12-13 2 3z"/><path fill="#90776d" d="M278 228l-28-45 36-22 28 45z"/><path fill="#3f3d3b" d="M333-9v2l-33 17V9z"/><path fill="#4d4a3a" d="M59 94v1l-73-2v-2z"/><path fill="#c2a48e" d="M404 203l-15-23 5-4 15 24z"/><path fill="#beaca2" d="M80 148l5 5-1 1-5-5z"/><path fill="#8599b3" d="M206 63l18-8 13 31-19 7z"/><path fill="#644331" d="M19 165l6 16-14 6-6-16z"/><path fill="#87827b" d="M-8 98l19-21 1 1-18 21z"/><path fill="#837160" d="M350 84l6 5-1 1-6-5z"/><path fill="#2e432b" d="M82 58l-3 9-6-2 3-9z"/><path fill="#826552" d="M255 123h1l-3 34h-1z"/><path fill="#adacb3" d="M237 168l-7-2 12-39 8 2z"/><path fill="#7b6154" d="M299 149l44 11-3 11-44-11z"/><path fill="#9a999b" d="M145 173v-2l15 5v1z"/><path fill="#60718c" d="M198 60h2l19 44-1 1z"/><path fill="#ba9194" d="M309 4l8-2v5l-7 1z"/><path fill="#563e34" d="M261 96l64 2v2l-64-3z"/><path fill="#a0867a" d="M372 139l-56-4 1-19 56 4z"/><path fill="#4b5c39" d="M304 79l1 2-30 4v-1z"/><path fill="#a87d6a" d="M131 136l-3 25-11-2 3-24z"/><path fill="#7b503d" d="M208 167l3-10 24 9-4 10z"/><path fill="#bcb4b0" d="M160 43l-28-13 3-9 29 13z"/><path fill="#585b52" d="M72 70l45-22v2L72 72z"/><path fill="#a67a6d" d="M110 93l15-7 1 1-16 7z"/><path fill="#262e24" d="M72 64l23 9-3 8-23-8z"/><path fill="#646b6a" d="M130 34h1l-3 9-2-1z"/><path fill="#3d4a2b" d="M248 30l-1-2 29-12v1z"/><path fill="#91837a" d="M252 146l1 1-31 74h-2z"/><path fill="#d5e0ec" d="M47 25l-1-48 33-1 1 49z"/><path fill="#6b7489" d="M130 102l-2-23 15-2 3 24z"/><path fill="#8f7261" d="M381 184l-17 3-6-25 17-4z"/><path fill="#81726d" d="M42 27v1L1 53l-1-1z"/><path fill="#78574c" d="M42 161l-1-9 37-5 1 9z"/><path fill="#866656" d="M191 157l41 42-6 5-40-42z"/><path fill="#82553f" d="M123 175l-8 3-11-36 7-2z"/><path fill="#8a805c" d="M359 77l-11-1 1-4h11z"/><path fill="#9d8e8f" d="M322-8l1 1-31 20-1-1z"/><path fill="#bea29c" d="M86 113l12-18 5 3-12 18z"/><path fill="#d8b29c" d="M200 159h-2l-5-23h1z"/><path fill="#9b8476" d="M382 152l5 28h-2l-5-27z"/><path fill="#916d64" d="M102 158l-22-18 8-9 21 18z"/><path fill="#6e7b93" d="M186 110l-5-18 12-3 5 18z"/><path fill="#5a5c65" d="M158 175l-16-32 8-4 16 32z"/><path fill="#bdd7e2" d="M199 37l16-2v1l-16 3z"/><path fill="#97887f" d="M46 113l-2 2-19-17 2-2z"/><path fill="#7b5646" d="M388 142l23 51-3 1-23-51z"/><path fill="#b6b8b8" d="M104 40h1l-4 15h-2z"/><path fill="#324a22" d="M300 50v2l-23-4v-1z"/><path fill="#5f5a54" d="M19 52l49 46-1 1-49-46z"/><path fill="#7c6d60" d="M166 121l-1-1 5-8 1 1z"/><path fill="#b3aab0" d="M125 107l-2-1 4-11h2z"/><path fill="#786f67" d="M338 37l1-2 25 14-1 1z"/><path fill="#a3997a" d="M328 85l-9-3 2-6 9 3z"/><path fill="#907e74" d="M374 30l16-15 1 1-16 15z"/><path fill="#a2a4ac" d="M129 80l-3-4 16-8 2 4z"/><path fill="#9eb8cb" d="M224 33l24 6-2 8-24-6z"/><path fill="#1e2226" d="M180 59l1 1-9 7-1-1z"/><path fill="#8f7268" d="M49 131L8 148l-5-15 40-16z"/><path fill="#7c879c" d="M234 105l-9 3-8-27 9-3z"/><path fill="#7e4e3d" d="M198 141h1l2 14h-2z"/><path fill="#311a1f" d="M117 51l6 1-1 5-6-2z"/><path fill="#8e8d76" d="M19 172l16-10 1 2-16 10z"/><path fill="#777063" d="M344 28l-33-9v-2l33 10z"/><path fill="#fffbf9" d="M150 69l10 3-6 20-9-3z"/><path fill="#c5c3b2" d="M398 55l-13-1v-1h13z"/><path fill="#798580" d="M48 92l-1 1-24-15 1-1z"/><path fill="#9f7c6c" d="M155 225h-1l-11-67h2z"/><path fill="#4e3225" d="M228 167l2 2-9 16-3-2z"/><path fill="#5f311e" d="M397 196l6 2-2 5-6-3z"/><path fill="#5b5758" d="M126 100l2-1 7 16h-2z"/><path fill="#3e312b" d="M215 118v13h-9v-13z"/><path fill="#42543a" d="M339 93l-30-14 1-2 29 15z"/><path fill="#b7b7ba" d="M170 73l-24-22 1-1 24 22z"/><path fill="#a4a8a7" d="M184 33l-8 4-6-9 9-5z"/><path fill="#705d4b" d="M274 28l1-1 9 9-1 1z"/><path fill="#2a2d1c" d="M346 22l-12 3v-1l12-4z"/><path fill="#a37e75" d="M298 69l-6-11 6-3 5 11z"/><path fill="#b4b5b3" d="M168 111l2-1 1 3-2 1z"/><path fill="#9a867c" d="M300 179l-1-3 30-16 2 3z"/><path fill="#4b5042" d="M303 26l67 7v2l-67-7z"/><path fill="#1f1e1b" d="M179 176l-2 16-8-1 2-16z"/><path fill="#38393c" d="M184 34l11-14 1 1-11 14z"/><path fill="#96a2b6" d="M175 155l1 1-11 22-2-1z"/><path fill="#8b755c" d="M383 68v2l-18 4v-2z"/><path fill="#8b8484" d="M155 18h1l3 15-1 1z"/><path fill="#735449" d="M370 177h-2l-2-37h2z"/><path fill="#35342a" d="M325 2l1 2-6 5-1-2z"/><path fill="#ddccbd" d="M257 101h2l-2 19-2-1z"/><path fill="#66463d" d="M50 193l-9-9 14-13 8 9z"/><path fill="#765543" d="M318 185l-12 5-3-7 11-6z"/><path fill="#424c39" d="M32 76l54 8v1l-55-8z"/><path fill="#7d6357" d="M117 101l1 2-12 4v-2z"/><path fill="#3e4328" d="M130 67l1 1-6 4-1-1z"/><path fill="#84746e" d="M240 130l-1-1 7-29 1 1z"/><path fill="#161a14" d="M264 83l-2-9 22-6 3 9z"/><path fill="#7a716c" d="M52 70l-3-1 13-40 3 1z"/><path fill="#59595f" d="M192 38h2l-3 13h-2z"/><path fill="#74825c" d="M115 65l-8 4-2-4 8-4z"/><path fill="#b2958c" d="M83 115h3l-2 25h-3z"/><path fill="#24170d" d="M156 184l-1 1-6-5 1-1z"/><path fill="#393826" d="M34 53l-9 9-1-1 9-9z"/><path fill="#3f1d0d" d="M204 134l-6 5-4-5 6-5z"/><path fill="#311c14" d="M226 127l14-16 1 1-14 16z"/><path fill="#a18d81" d="M85 40l1-2 18 5-1 2z"/><path fill="#888173" d="M371-4l5 2-8 20-5-2z"/><path fill="#cfaa95" d="M133 113l-2 25h-3l2-25z"/><path fill="#3f3625" d="M10 125H3l1-14h7z"/><path fill="#4d622a" d="M287 83l21-19 1 1-21 19z"/><path fill="#694c3a" d="M129 155l2-1 13 84h-2z"/><path fill="#9c9fa9" d="M129 49l5-6 1 1-5 6z"/><path fill="#a0837e" d="M325 64l-1-6 24-5 2 6z"/><path fill="#dfdcd6" d="M137 42l20 26-5 4-20-26z"/><path fill="#574a50" d="M269 81l1 1-9 10-2-1z"/><path fill="#5d5e68" d="M204 119l-7-30h1l7 30z"/><path fill="#a9897e" d="M259 104l240-4v1l-240 4z"/><path fill="#998278" d="M8 162H7l2-28h2z"/><path fill="#897364" d="M81 133l-48 19-3-5 48-20z"/><path fill="#333f2a" d="M16 48L2 61l-1-1 14-13z"/><path fill="#9296a1" d="M140 85v38h-3V85z"/><path fill="#d9dfe2" d="M159 99l-4-3 13-21 4 2z"/><path fill="#55545c" d="M142 96l-6-21h1l7 20z"/><path fill="#7e685e" d="M158 119v4l-17 1-1-5z"/><path fill="#2f2b2b" d="M98 42l4-5 1 1-4 5z"/><path fill="#2d3944" d="M118 19l8 9-2 2-8-10z"/><path fill="#404830" d="M266 36l1 6-16 2-1-6z"/><path fill="#a99894" d="M338 9l-5 3-1-1 5-3z"/><path fill="#3a432a" d="M377 88l-18 4-3-16 18-4z"/><path fill="#272433" d="M140 67l-11-13 1-1 11 13z"/><path fill="#b0ccdd" d="M247 42l12 14-1 1-12-14z"/><path fill="#f4f6f8" d="M195 22l4-8 20 9-4 9z"/><path fill="#5c728d" d="M181 58l10 32-2 1-10-33z"/><path fill="#816459" d="M79 189h-2l-16-39h1z"/><path fill="#55392f" d="M90 190l-5-6 11-9 5 6z"/><path fill="#464b53" d="M174 116h5l-1 38h-5z"/><path fill="#909eb7" d="M205 86l-8 4-10-18 8-4z"/><path fill="#78716f" d="M233 148h-2l3-23h2z"/><path fill="#080e07" d="M299 98l-1 1-33-11 1-1z"/><path fill="#665b51" d="M400 88l2 1-4 9-1-1z"/><path fill="#100" d="M156 119l-8-4v-1l9 4z"/><path fill="#866353" d="M382 191l1 2-10 8-1-1z"/><path fill="#98706a" d="M213 46l-7 8-5-4 7-9z"/><path fill="#deedf6" d="M283 10l-1-1 11-17 2 1z"/><path fill="#f1f6ee" d="M198 30l21-3 1 1-22 3z"/><path fill="#c3a79a" d="M106 105l20-1 1 11-21 1z"/><path fill="#9a928f" d="M111 37l-17-2v-2l17 3z"/><path fill="#5d626b" d="M133 23v3l-14 2v-3z"/><path fill="#656063" d="M378 27l-28 21-1-2 28-20z"/><path fill="#a9a7a8" d="M103 52l1-1 16 8v1z"/><path fill="#79828e" d="M172 99h-2V59h2z"/><path fill="#bbb8bb" d="M245 154h-17v-6h17z"/><path fill="#555761" d="M202 121l-8-5 9-16 8 4z"/><path fill="#1c2a39" d="M181 72l1 1-8 28h-1z"/><path fill="#6d6060" d="M117 48l4-15 5 2-5 15z"/><path fill="#524443" d="M301 97l-2-5 11-6 2 4z"/><path fill="#a39c8c" d="M92 59l-1-1 6-6 1 1z"/><path fill="#715544" d="M359 174l-19-29 3-2 19 29z"/><path fill="#a8a094" d="M314 14l12 4-1 1-12-4z"/><path fill="#3e3129" d="M151 160l23-19 1 1-23 19z"/><path fill="#31371b" d="M258 32l14 3-1 3-13-3z"/><path fill="#af9f8b" d="M78 33l-1 2-7-4 1-2z"/><path fill="#7b6759" d="M195 188l-14 26-12-7 14-26z"/><path fill="#e5edf7" d="M135 26l-16-9 10-19 16 9z"/><path fill="#b9c7d7" d="M244 79l-14 1-1-14 14-1z"/><path fill="#243421" d="M124 64l-1-2 11-5 1 1z"/><path fill="#18240f" d="M348 50l-20-6 1-1 19 5z"/><path fill="#333239" d="M196 55l-21 5-1-1 22-5z"/><path fill="#856f65" d="M77 115l-23 7-4-14 23-6z"/><path fill="#1c2615" d="M359 64v-3l30 1v3z"/><path fill="#211814" d="M171 105l-7 26h-2l7-26z"/><path fill="#bfb1a4" d="M381 28v2h-8v-2z"/><path fill="#917565" d="M355 175v-2l38-18 1 2z"/><path fill="#2e292a" d="M153 198l6-20 2 1-6 19z"/><path fill="#c0a491" d="M276 25v2l-22 6-1-2z"/><path fill="#4b533e" d="M432-29l-64 82-2-1 65-82z"/><path fill="#5d6574" d="M206 89l7-4 17 24-7 5z"/><path fill="#775f51" d="M19 139l-39-15 3-8 39 15z"/><path fill="#473e2e" d="M12 82l7 28-2 1-6-29z"/><path fill="#6b4d44" d="M90 142l8 27h-2l-8-27z"/><path fill="#c6a38e" d="M219 128l5 5-13 15-6-5z"/><path fill="#675950" d="M49 42l-34 4v-5l34-4z"/><path fill="#78655a" d="M311 21v-3h39v3z"/><path fill="#8f9eb1" d="M238 46l3-1 10 39-3 1z"/><path fill="#ad8f81" d="M276 132l-3-10 59-15 3 10z"/><path fill="#9c7b70" d="M85 164l-1-1 26-31 1 1z"/><path fill="#766f59" d="M257 47l-1-8 23-3 1 8z"/><path fill="#b48d74" d="M161 161l-1-1 12-13 1 1z"/><path fill="#333d36" d="M349 2v7h-9V2z"/><path fill="#d2dbe4" d="M48 25l-30 8-5-19 30-8z"/><path fill="#b59996" d="M317 42l-1-1 9-3 1 1z"/><path fill="#909387" d="M341 28l6-3 1 2-6 2z"/><path fill="#354159" d="M187 96l-4 2-9-17 4-2z"/><path fill="#3b4759" d="M184 172l-1 1-6-37 1-1z"/><path fill="#24351c" d="M293 39v-6l25-2v7z"/><path fill="#9b8b7e" d="M37 106l22-8 3 7-22 9z"/><path fill="#dddcdf" d="M155 77l21-40h1l-20 41z"/><path fill="#6e483d" d="M1 115l4 30-4 1-5-30z"/><path fill="#735950" d="M114 189v2L12 150l1-2z"/><path fill="#5a5e5b" d="M82 24l9 6-3 4-9-6z"/><path fill="#62463a" d="M382 146l14 28-2 1-13-29z"/><path fill="#a89e9c" d="M107 38v-9h3v9z"/><path fill="#85766b" d="M34 145l14 29-3 1-13-28z"/><path fill="#2b3f28" d="M290 56l-25 10v-2l24-10z"/><path fill="#4d3330" d="M239 119h1l-2 8-1-1z"/><path fill="#ac897b" d="M298 108l-42-5 1-6 42 5z"/><path fill="#826254" d="M327 181l3-3 20 27-4 3z"/><path fill="#2d1815" d="M109 40l6 1v5l-7-1z"/><path fill="#3c4d40" d="M371 9V8l25-3v1z"/><path fill="#070607" d="M168 185l-1-1 8-2v1z"/><path fill="#bb9e8f" d="M335 115l20-10 5 10-20 10z"/><path fill="#fff" d="M110 28v-2l7 1-1 2z"/><path fill="#594c45" d="M328 55l52-10v2l-52 9z"/><path fill="#8b909e" d="M186 110l4-2 7 15-5 2z"/><path fill="#0c1208" d="M365 79v1l-9 5-1-1z"/><path fill="#a38c78" d="M251 22l1 1-7 10-2-1z"/><path fill="#735949" d="M373 172l-48-3v-2l48 3z"/><path fill="#9c887c" d="M126 167l32 6-1 2-32-6z"/><path fill="#81685a" d="M108 180l-16-9 7-12 17 9z"/><path fill="#e0c4a2" d="M290 31v3l-3-1v-3z"/><path fill="#5b6754" d="M210 30l1 1-7 3-1-1z"/><path fill="#455a40" d="M262 14l9 7-3 4-9-7z"/><path fill="#d6ccc9" d="M106 95l6-2 2 8-6 1z"/><path fill="#626f4a" d="M286 75l1-5 16 4-1 4z"/><path fill="#142115" d="M41 72l7-3v1l-7 3z"/><path fill="#404152" d="M168 103l1 1-20 10-1-1z"/><path fill="#987c6d" d="M383 143L282 256l-1-1 101-113z"/><path fill="#5a6c26" d="M329 63v2l-19 2v-2z"/><path fill="#614031" d="M104 163l-2-7 8-2 2 8z"/><path fill="#646f85" d="M185 138l2 1-21 28-1-1z"/><path fill="#cbb09e" d="M393 123l-9 2-3-12 9-2z"/><path fill="#b9bec7" d="M189 34h1l-2 6-2-1z"/><path fill="#987f73" d="M221 192l-2-4 21-13 2 4z"/><path fill="#c7cad0" d="M174 104l-1 6h-2l2-6z"/><path fill="#373728" d="M38 51l10 7v2l-11-7z"/><path fill="#a3847a" d="M402 167l2 6-8 2-1-6z"/><path fill="#7c6f6f" d="M110 47l-6 3-3-5 6-3z"/><path fill="#6c6c5b" d="M95 60l-2 2-24-27 2-2z"/><path fill="#667163" d="M60 74v2l-18 1-1-1z"/><path fill="#937467" d="M251 158l20 22-8 7-20-22z"/><path fill="#796c60" d="M305 43l-1 1-7-4 1-1z"/><path fill="#9a8175" d="M287 169l20 26-8 6-20-26z"/><path fill="#d5b9a4" d="M279 32v1h-6v-2z"/><path fill="#e2ecf8" d="M133 16l-1-19 159-11 1 19z"/><path fill="#4d4b48" d="M334-6l-8 27-2-1 8-27z"/><path fill="#6d7e63" d="M96 64v4l-12 1-1-4z"/><path fill="#2f3c32" d="M20 72l1-2 23 10-1 1z"/><path fill="#906049" d="M186 193l-3-27 8-1 2 27z"/><path fill="#778394" d="M149 166l2-1 5 8-3 1z"/><path fill="#b89e8e" d="M260 129h2l-8 43h-1z"/><path fill="#543f30" d="M22 108l2-7 6 2-2 7z"/><path fill="#404f3d" d="M279 9l3 3-16 15-3-3z"/><path fill="#585d67" d="M168 194v8h-9v-8z"/><path fill="#90807d" d="M355-1l3 1-2 12-3-1z"/><path fill="#697387" d="M138 103h-8l3-30 7 1z"/><path fill="#595255" d="M154 122l4 45h-1l-4-45z"/><path fill="#63553c" d="M302 24l-24-1v-1h24z"/><path fill="#989196" d="M236 130h6l-1 17h-6z"/><path fill="#bd9a8e" d="M192 177l10 11-2 2-10-10z"/><path fill="#7f6e65" d="M280 100v-2h142v2z"/><path fill="#697763" d="M27 80l9-15 1 1-9 14z"/><path fill="#5f412e" d="M21 162l-8-12 2-1 8 12z"/><path fill="#f0f7fa" d="M180 25L169 8l6-4 10 18z"/><path fill="#9a8d81" d="M38 37v2l-15-3v-1z"/><path fill="#5d6f5e" d="M273 71v2l-10-5v-1z"/><path fill="#ca9a83" d="M203 169l-6-18h2l5 18z"/><path fill="#607062" d="M16 35l-17 5v-2l16-4z"/><path fill="#746c74" d="M60 87l-19-2 1-2 18 3z"/><path fill="#39495e" d="M184 142l6 3-10 18-6-3z"/><path fill="#bbada5" d="M238 109l2-11 2 1-3 10z"/><path fill="#2a333f" d="M194 14h1l1 5h-2z"/><path fill="#e1c5aa" d="M113 84l-1-2 17-8 1 1z"/><path fill="#a88478" d="M201 54l-8-9 1-1 9 9z"/><path fill="#a89086" d="M293 60v-2l63 2v2z"/><path fill="#734831" d="M138 152h3v14h-3z"/><path fill="#727b8e" d="M180 140l6-5 4 5-6 5z"/><path fill="#5c583e" d="M27 171l9-1 1 10-9 2z"/><path fill="#b6bdc7" d="M239 155l11-41 3 1-11 41z"/><path fill="#8e766a" d="M313 178l-52-24 2-5 53 23z"/><path fill="#849169" d="M113 130l8-12 5 4-8 11z"/><path fill="#383930" d="M36 89l-4 7-10-5 4-7z"/><path fill="#8b95a8" d="M139 89l-12 12-2-1 13-12z"/><path fill="#9b8075" d="M38 139l-10-20 20-9 10 19z"/><path fill="#765e55" d="M290 149h2l7 32h-2z"/><path fill="#394c37" d="M81 65v2l-29 4v-2z"/><path fill="#223512" d="M388 33l3-3 13 13-3 4z"/><path fill="#a09693" d="M153 120v36h-1v-36z"/><path fill="#5e5d47" d="M345 10V8l59 15v2z"/><path fill="#b18872" d="M130 122l2-1 14 37h-1z"/><path fill="#5f392b" d="M142 184l-9 31h-2l10-32z"/><path fill="#715148" d="M379 172l-6-18 6-2 6 18z"/><path fill="#555b4c" d="M241 25l-23 9-1-1 23-9z"/><path fill="#c4a492" d="M367 195l4-10 7 3-4 10z"/><path fill="#483f3f" d="M179 129l-8 25h-1l7-26z"/><path fill="#6c7a8c" d="M183 39l-3 15h-1l2-16z"/><path fill="#663226" d="M197 42l1-2 7 4-1 1z"/><path fill="#7a757d" d="M174 167l10-5 3 7-10 5z"/><path fill="#748a74" d="M281 63l-1-2 7-4v2z"/><path fill="#918175" d="M-12 52v-2l26-6v1z"/><path fill="#795e52" d="M243 166h1l27 38-1 1z"/><path fill="#a18375" d="M368 226l-1 1-27-64h1z"/><path fill="#7a5f56" d="M44 182h13v6l-12 1z"/><path fill="#89766e" d="M33 168l-4 1-11-39 5-1z"/><path fill="#445139" d="M71 33l-5 17-1-1 5-16z"/><path fill="#afc1d8" d="M192 58l3 14h-1l-3-14z"/><path fill="#b2a393" d="M78 109l-1 2-7-3 1-2z"/><path fill="#755b4c" d="M306 191l-3-1 2-29h3z"/><path fill="#92a6bf" d="M258 50l2 6-39 8-1-6z"/><path fill="#b18f80" d="M280 157l-19-39 1-1 20 39z"/><path fill="#655758" d="M103 111l-5-6 1-1 5 5z"/><path fill="#e9eef5" d="M259 13l-23 13-3-6 23-13z"/><path fill="#685a3e" d="M62 144l5-4 7 8-5 4z"/><path fill="#5c5846" d="M359 87l6-4 3 3-7 5z"/><path fill="#d8cbb9" d="M191 140h4v6h-4z"/><path fill="#7f8381" d="M35 82l8-1 2 14-8 1z"/><path fill="#8d7358" d="M340 97l4 9-5 2-3-9z"/><path fill="#232819" d="M86 57v2l-11 1v-1z"/><path fill="#aab1b8" d="M168 21l3-1 10 30-3 1z"/><path fill="#695d4c" d="M314 56l1 1-5 4-1-1z"/><path fill="#464c30" d="M365 73l1 2-29 16-1-2z"/><path fill="#b1c2da" d="M227 48l6-1 4 26-6 1z"/><path fill="#a49e8f" d="M380 10l1 2-7 1v-1z"/><path fill="#6a7e9f" d="M200 59l12 15-4 3-12-15z"/><path fill="#9c7e71" d="M133 163l-27-13v-1l27 12z"/><path fill="#97a87f" d="M121 70l5-8 2 1-6 8z"/><path fill="#434449" d="M250 94l-2-4 3-1 2 4z"/><path fill="#161e11" d="M307 82l1 2-23 13-1-1z"/><path fill="#333e4b" d="M205 97l3-3 8 11-4 2z"/><path fill="#b29b89" d="M389 139l-17-3v-1l17 2z"/><path fill="#707393" d="M152 107l6-4 1 1-6 4z"/><path fill="#9c857d" d="M334 69l-1-1 19-11 1 2z"/><path fill="#6d5148" d="M104 213l-11-58 1-1 12 59z"/><path fill="#070000" d="M130 52v1l-5 3-1-1z"/><path fill="#83684f" d="M82 101l-1-3 23-16 1 3z"/><path fill="#d3dae6" d="M27 15v19h-53V15z"/><path fill="#d7b29f" d="M295 70l-2-4h1l2 4z"/><path fill="#73785e" d="M16 71l9 6-2 4-9-6z"/><path fill="#181c11" d="M70 85l-10 7-1-1 11-7z"/><path fill="#aab5ae" d="M3 86l-3 2-1-1 3-2z"/><path fill="#c0a898" d="M301 11h-13v-1l13-1z"/><path fill="#503f3a" d="M10 111l14 16-1 1-14-16z"/><path fill="#5a4e4a" d="M165 215l-1-1 19-43 2 1z"/><path fill="#d8b59f" d="M303 27l-11 1v-3l11-1z"/><path fill="#d5d5d1" d="M156 38l-1 2-19-8 1-1z"/><path fill="#8a6958" d="M124 158l11 44-4 1-11-44z"/><path fill="#767162" d="M68 35l2 5-24 8-2-5z"/><path fill="#baafaa" d="M130 35l-2-4 15-8 2 4z"/><path fill="#655e5d" d="M166 136l12-18 1 1-12 18z"/><path fill="#6d6465" d="M301-6l1-1 17 14-1 2z"/><path fill="#ac9185" d="M277 184l-1 1-17-27 1-1z"/><path fill="#404243" d="M375 31l1 2-18 12-1-1z"/><path fill="#7a5f50" d="M321 135l1-1 6 30h-2z"/><path fill="#b39490" d="M310 12l-1-2 30-20 1 1z"/><path fill="#554539" d="M276 97l-19 3v-2l19-3z"/><path fill="#70665d" d="M68 95l3-9 6 2-3 9z"/><path fill="#85766a" d="M73 58l-29-6v-2l29 6z"/><path fill="#374333" d="M380 82l12-4 2 7-12 4z"/><path fill="#5e636a" d="M142 97v17h-1V97z"/><path fill="#f7f7f9" d="M188 35l22-13v1l-21 13z"/><path fill="#765b50" d="M82 159h2l-2 31h-2z"/><path fill="#6a6a55" d="M409 65l-26-11 1-2 25 11z"/><path fill="#a9bad0" d="M250 77l-3-20 8-1 2 20z"/><path fill="#1e2d15" d="M283 40v-3l14 3-1 3z"/><path fill="#a57c68" d="M141 170l-1 1-14-37h2z"/><path fill="#34322e" d="M168 200l6-6 1 2-6 5z"/><path fill="#9c8072" d="M321 198v-2l50-11v1z"/><path fill="#d6e0ed" d="M55 29L47 1l12-3 8 27z"/><path fill="#161610" d="M104 81l-1-2 4-2 1 1z"/><path fill="#745a4f" d="M216 129l-2-8 9-2 2 8z"/><path fill="#16190b" d="M380 83l1 1-19 13-1-2z"/><path fill="#4d4e46" d="M366-12h1l-9 32-2-1z"/><path fill="#8d9094" d="M250 145l-9 31h-2l10-32z"/><path fill="#a1abb9" d="M149 103l-1-1 24-4v2z"/><path fill="#0b170f" d="M108 58v2l-14 5-1-1z"/><path fill="#5f6345" d="M365 77v1h-25v-1z"/><path fill="#bc9b81" d="M389 129l1-23 16 1-1 23z"/><path fill="#30372d" d="M77 34l1-1 15 3v1z"/><path fill="#9e8473" d="M356 156l-4-2 15-33 4 2z"/><path fill="#5a4336" d="M276 199l-2-5h2l1 4z"/><path fill="#846254" d="M225 150h2l5 51-1 1z"/><path fill="#8b5940" d="M231 164l-26-4v-3l26 4z"/><path fill="#988b70" d="M380 67l1-1 31 9v2z"/><path fill="#53281b" d="M124 90l1 3h-3l-1-3z"/><path fill="#9d8074" d="M335 161l-2 1-22-65 1-1z"/><path fill="#29190e" d="M64 196l4-12h1l-4 12z"/><path fill="#3e4735" d="M311 17l-8 4-3-5 8-5z"/><path fill="#675c57" d="M105 45v-2l16-5 1 2z"/><path fill="#85817b" d="M59 62l15-2v1l-15 3z"/><path fill="#79695e" d="M99 45l2 4-30 11-1-4z"/><path fill="#7a716f" d="M348 45l15 1v2l-15-2z"/><path fill="#a48376" d="M201 199h-2l5-25 2 1z"/><path fill="#697852" d="M110 64l1-2 21 4v2z"/><path fill="#48423e" d="M149 183l1-7 12 2-1 7z"/><path fill="#83685e" d="M275 187l-40-18 1-2 40 19z"/><path fill="#7a7360" d="M14 188v-1l33 8v1z"/><path fill="#040319" d="M148 108v-2l6 3-1 2z"/><path fill="#948072" d="M78 172l-1 1-22-37 1-1z"/><path fill="#5e4437" d="M281 176v1l-5-1 1-2z"/><path fill="#95908f" d="M156 37l4-2 1 1-4 2z"/><path fill="#a4948c" d="M126 58l-9 3-1-1 9-4z"/><path fill="#484931" d="M67 78l19 16-1 1-19-15z"/><path fill="#454f5b" d="M184 74l-12-7 2-4 12 7z"/><path fill="#735243" d="M11 158l1-1 20 37-2 1z"/><path fill="#6a3d2e" d="M204 137l1 1-7 8-2-1z"/><path fill="#816045" d="M204 172h5l1 20h-5z"/><path fill="#06140e" d="M264 67l-1-1 2-3h2z"/><path fill="#4e5335" d="M341 41l-46 8v-1l46-8z"/><path fill="#917366" d="M319 189l-2 1-50-52 2-1z"/><path fill="#a0a8b8" d="M236 89l-8 1-3-21 8-2z"/><path fill="#182c16" d="M272 56l1-1 7 6-1 1z"/><path fill="#5c3c2f" d="M84 182l33-2v2l-32 2z"/><path fill="#f1f5f8" d="M169 18l-45 4-1-4 46-4z"/><path fill="#746756" d="M6 189H-5l1-39H7z"/><path fill="#a9a2a0" d="M118 28l1 2-11 3v-2z"/><path fill="#ab988d" d="M236 174l-4-10 2-2 5 10z"/><path fill="#c4a693" d="M254 146l-1-1 19-33h2z"/><path fill="#958a83" d="M226 121l14-16 1 1-14 16z"/><path fill="#8ba5c5" d="M219 78l-13-19 1-1 14 19z"/><path fill="#8c95a8" d="M140 93l-2 1-10-13 1-1z"/><path fill="#6a4a3c" d="M122 213l-6 1-9-38 7-1z"/><path fill="#89765e" d="M1 109l8-14 1 1-8 13z"/><path fill="#85806b" d="M49 176l-9 4-3-7 9-4z"/><path fill="#202b3a" d="M187 49h-1l3-9 2 1z"/><path fill="#d8dcdc" d="M142 106l1-1 4 6-1 1z"/><path fill="#735d4a" d="M372 65v1l-17-1v-2z"/><path fill="#b0958e" d="M109 122h-2l-2-24h2z"/><path fill="#a88476" d="M181 166l11-17 4 2-11 17z"/><path fill="#918c67" d="M409 160l-25-30 5-4 25 30z"/><path fill="#474f35" d="M252 27l72-16v1l-71 17z"/><path fill="#bfaa9e" d="M102 121l-4 5-7-5 3-5z"/><path fill="#324151" d="M186 116l3 4h-2l-2-4z"/><path fill="#bba7a0" d="M395 17h8v2l-8-1z"/><path fill="#2d333a" d="M207 107l2 16h-2l-2-16z"/><path fill="#c8c2c1" d="M155 56l-14 19-1-1 14-19z"/><path fill="#6b4e40" d="M337 159v18h-3l-1-18z"/><path fill="#7d6d5c" d="M41 121l-2 2-19-30 2-2z"/><path fill="#aa958b" d="M380 171l-10 10-1-1 10-10z"/><path fill="#888b92" d="M131 54l1-1 4 4v1z"/><path fill="#0e1608" d="M387 44l25-9v1l-25 9z"/><path fill="#0e120d" d="M311 88l2-4 22 11-2 4z"/><path fill="#595c5b" d="M295 5V3h18v2z"/><path fill="#6c4c41" d="M241 221l3-44 1 1-3 43z"/><path fill="#545453" d="M196 129l7-11 2 2-6 10z"/><path fill="#ae99a2" d="M374-2l2 1-2 4h-1z"/><path fill="#758398" d="M187 122l2 7-8 4-3-8z"/><path fill="#c5c6ca" d="M161 75l16-34 1 1-16 34z"/><path fill="#b88d7f" d="M110 91l15-7 1 1-15 8z"/><path fill="#73574e" d="M330 192l-15 4v-2l15-4z"/><path fill="#181c10" d="M348 48l-1 1-6-7 1-1z"/><path fill="#93927c" d="M278 18l10-5 1 2-10 5z"/><path fill="#504833" d="M332 19v-2l28-3v2z"/><path fill="#7e7662" d="M348 11v5h-11v-5z"/><path fill="#6a5750" d="M342 57l-55-1v-2l55 1z"/><path fill="#513225" d="M46 181v-2l12-2 1 2z"/><path fill="#424a2f" d="M295 28l4 11h-2l-3-10z"/><path fill="#e3dedc" d="M166 56l-10-5 4-8 10 4z"/><path fill="#77808b" d="M191 20l1 1-6 7-1-1z"/><path fill="#9e7c75" d="M151 193l-8 10-1-1 7-10z"/><path fill="#a77763" d="M227 147l-4 7-11-6 4-7z"/><path fill="#c3c6cd" d="M167 168l2 1-3 5-2-1z"/><path fill="#9f8677" d="M271 194l21-25 1 1-21 25z"/><path fill="#031208" d="M388 96l21-29 1 1-20 29z"/><path fill="#a9a4a4" d="M242 144l-2-1 8-48 1 1z"/><path fill="#735642" d="M357 184l-1-1 7-15 2 1z"/><path fill="#28281c" d="M376 23l-10-3v-1l11 3z"/><path fill="#7d675b" d="M350 32l1 1-28 6v-2z"/><path fill="#20391e" d="M248 38l6-3 2 4-5 3z"/><path fill="#ada09e" d="M236 120v27h-2v-27z"/><path fill="#6c4631" d="M118 166l1-1 9 33-2 1z"/><path fill="#785b4a" d="M128 170l-2-3 10-4 2 2z"/><path fill="#ac9e7f" d="M95 88h-2l2-6h1z"/><path fill="#354c47" d="M245 23l-4 1v-1l4-2z"/><path fill="#cdad9b" d="M279 126l2-17 1 1-2 17z"/><path fill="#c09d9a" d="M298 10l-4-1V5h5z"/><path fill="#3a1d0f" d="M94 208h-2l3-17h2z"/><path fill="#717f8b" d="M174 59l6-8 1 1-6 8z"/><path fill="#2a3833" d="M11 41L0 44v-2l11-3z"/><path fill="#987f75" d="M292 161l37 29-1 1-37-29z"/><path fill="#0e190d" d="M350 93l-10 2-1-5 10-2z"/><path fill="#534535" d="M256 42l15-3v2l-15 3z"/><path fill="#c6d2dd" d="M242 152l4-3 1 1-4 3z"/><path fill="#374e10" d="M324 70l-24 4v-5l23-3z"/><path fill="#92827e" d="M96 117l5-18 2 1-6 18z"/><path fill="#a48e87" d="M89 159l-2 1-8-15h1z"/><path fill="#6b6361" d="M51 29l-19 4v-1l18-4z"/><path fill="#7c5b52" d="M215 209l-1 1-15-20 1-1z"/><path fill="#303834" d="M106 53l10 7-1 2-10-8z"/><path fill="#9eaf90" d="M280 51l-10 4-1-1 10-5z"/><path fill="#292219" d="M320 34l1 1-14 8-1-2z"/><path fill="#544f3f" d="M56 194l-38 12v-2l37-11z"/><path fill="#6d6c69" d="M362 20l1 17-8 1-1-18z"/><path fill="#827562" d="M60 128l12 12-15 15-12-12z"/><path fill="#555c68" d="M147 149l18 25-1 1-19-25z"/><path fill="#b0806c" d="M260 31v2l-9 3v-1z"/><path fill="#dde7f1" d="M108 26l-39-2 3-49 39 3z"/><path fill="#a1b6cc" d="M212 37l18-1 1 16-19 1z"/><path fill="#b7a790" d="M319 78l30 1-1 1-29-1z"/><path fill="#797c5b" d="M290 45v1l-26-8 1-1z"/><path fill="#9f807a" d="M93 170l-2-1 2-6 2 1z"/><path fill="#27311c" d="M395 66l-33-16 1-1 32 15z"/><path fill="#e5eef8" d="M158 0l1-1 34 18v1z"/><path fill="#252431" d="M145 103l1-1 10 9-1 2z"/><path fill="#6a747f" d="M188 24l8-10 2 1-8 10z"/><path fill="#535c56" d="M107 27v1H70v-2z"/><path fill="#ccc3c6" d="M109 40l-1-2 3-1 1 1z"/><path fill="#807a64" d="M225 28v-1l17 3v1z"/><path fill="#abafab" d="M151 21v-2l28 6v1z"/><path fill="#263244" d="M182 76l4 7-10 5-4-7z"/><path fill="#f3c3a4" d="M132 121l-2-1 2-2 2 1z"/><path fill="#000009" d="M178 58l1 3-2 1-2-3z"/><path fill="#89867c" d="M241 29v-2l22-10 1 1z"/><path fill="#25190b" d="M16 105v4h-5v-4z"/><path fill="#5c6243" d="M-22 185l49 7v3l-50-7z"/><path fill="#25392e" d="M220 33l4-3 1 1-4 3z"/><path fill="#424349" d="M318-3l2 6-5 2-2-6z"/><path fill="#7b5a4e" d="M91 170v-1l105 60-1 1z"/><path fill="#727964" d="M-15 66v-1l31-1v1z"/><path fill="#5e433b" d="M261 204l-12-8 1-1 12 7z"/><path fill="#8b5d4e" d="M81 139h-3l-1-14h3z"/><path fill="#141700" d="M84 89l-1 1-3-6h1z"/><path fill="#93817b" d="M110 96l9-1 1 2h-10z"/><path fill="#966e5e" d="M214 182l-2-1 7-17h2z"/><path fill="#74564c" d="M18 108l1-1 15 24-2 1z"/><path fill="#9b8581" d="M79 46l9 2v2l-9-3z"/><path fill="#374233" d="M346 30v-1l9 2v1z"/><path fill="#987e72" d="M214 211l-1-1 30-23 1 2z"/><path fill="#7c6257" d="M322 176h2l-7 46h-2z"/><path fill="#2f3424" d="M322 25l1-2 16 7-1 2z"/><path fill="#876b59" d="M341 202l23-6v1l-23 6z"/><path fill="#4e3f3a" d="M165 136l-2-1 8-13 2 1z"/><path fill="#9f8577" d="M289 140l-1-11 18-2 2 11z"/><path fill="#6c5a4f" d="M234 145l-11-15 1-1 11 15z"/><path fill="#a69397" d="M137 115l13 20-1 1-13-20z"/><path fill="#a5857c" d="M67 109l10 27h-2l-10-26z"/><path fill="#0c0e15" d="M171 103l-8 15h-1l8-16z"/><path fill="#9b7d70" d="M369 152h2l11 29h-1z"/><path fill="#987b6b" d="M364 168l60-27 1 2-60 27z"/><path fill="#110708" d="M274 86l2 2-15 9-1-2z"/><path fill="#beac9c" d="M386 67h27v2h-27z"/><path fill="#78675f" d="M10 115l24 27-2 1-23-27z"/><path fill="#6e4f40" d="M412 180l-4 2-21-35 4-2z"/><path fill="#a07f72" d="M384 183l4-1 5 31-5 1z"/><path fill="#92997e" d="M384 29v2l-7 1v-2z"/><path fill="#686a58" d="M6 58l33-4v2L7 60z"/><path fill="#3f5735" d="M312 83l-25-2v-6l25 2z"/><path fill="#625d31" d="M87 93l-3-10 5-2 4 10z"/><path fill="#423731" d="M164 208v-17h2v17z"/><path fill="#483933" d="M47 93l13-5 1 2-14 4z"/><path fill="#8b8082" d="M153 144l-10 4-4-9 10-4z"/><path fill="#111b17" d="M390 50l-6 2-1-3 6-2z"/><path fill="#3a402a" d="M272 48l-4 4-1-1 4-4z"/><path fill="#998573" d="M427 66v1h-68v-1z"/><path fill="#666356" d="M30 100l1-6 6 1-1 6z"/><path fill="#61553f" d="M0 91l25 16-1 1-25-16z"/><path fill="#aa8273" d="M93 141l-1-2 29-6 1 1z"/><path fill="#495a70" d="M182 161l1 7-8 1v-8z"/><path fill="#d3baaa" d="M185 157l2-4 1 1-1 4z"/><path fill="#7a5035" d="M146 162h-1l-5-10h1z"/><path fill="#40492e" d="M268 19v8l-10-1 1-7z"/><path fill="#212319" d="M273 68l13 8-7 13-14-7z"/><path fill="#545138" d="M367 51l-9 13-1-1 9-13z"/><path fill="#85695b" d="M343 138l11 119h-2l-10-118z"/><path fill="#383026" d="M296 98v-1l34-3v1z"/><path fill="#a3857a" d="M316 19l1 2-6 5-1-1z"/><path fill="#21292d" d="M189 25l2-4 3 2-2 4z"/><path fill="#62666d" d="M213 47l-11 8-1-1 11-8z"/><path fill="#979ea8" d="M177 74h-1l-2-2 2-1z"/><path fill="#918d5d" d="M312 63l-15 5-1-1 15-5z"/><path fill="#747b67" d="M170 201l11-5 1 2-12 4z"/><path fill="#83878e" d="M252 98l2-13h2l-2 13z"/><path fill="#a38c82" d="M301 197v-1l15-4v1z"/><path fill="#99897c" d="M326 35l-2 7h-2l3-8z"/><path fill="#816e63" d="M161 194v-9h8l-1 10z"/><path fill="#7f5a47" d="M194 161l-3 4-5-3 2-4z"/><path fill="#5a3e39" d="M295 98v-1h89v2z"/><path fill="#373826" d="M39 47v-3l5 1-1 3z"/><path fill="#e5c2ab" d="M206 135l3-2 2 6-2 1z"/><path fill="#8894ac" d="M202 65l-7 32-1-1 6-32z"/><path fill="#a2adb8" d="M186 124l2-1 5 8-1 1z"/><path fill="#5f6662" d="M343 5l-9-1v-7h9z"/><path fill="#423c39" d="M153 123l-1-2 34-5 1 2z"/><path fill="#cbb19b" d="M112 107l4 18-1 1-5-19z"/><path fill="#c9b697" d="M359 194l-1-5h3l1 4z"/><path fill="#cfcacb" d="M104 53l-2-4 1-1 3 5z"/><path fill="#4c4c47" d="M317-7L305 9h-1l11-17z"/><path fill="#7c8fa8" d="M222 54l-20 5v-2l19-5z"/><path fill="#796e76" d="M148 113v-2h5v2z"/><path fill="#2e321d" d="M308 55l23-4v2l-23 3z"/><path fill="#837369" d="M50 51v3l-30-3v-3z"/><path fill="#3e4428" d="M102 69l1-1 9 8-1 2z"/><path fill="#2b1a17" d="M159 132l-2-8 8-1 1 7z"/><path fill="#0c0000" d="M57 200h-3v-2l3 1z"/><path fill="#474839" d="M-4 74l8-1 1 7-7 2z"/><path fill="#c7a18d" d="M164 163h-2l4-9h1z"/><path fill="#506152" d="M369-10l1-1 25 26-1 1z"/><path fill="#6e4b38" d="M130 195l-2-1 13-16 1 1z"/><path fill="#bec2c4" d="M157 51l-25-12v-1l26 12z"/><path fill="#828891" d="M134 41v1h-7v-1z"/><path fill="#6e5c51" d="M290 185l5-16h1l-5 17z"/><path fill="#3a4738" d="M99 34l2-4h2l-3 5z"/><path fill="#9c8177" d="M314 143l8-27 6 2-8 27z"/><path fill="#b29080" d="M194 166l-1 2-10-5 1-1z"/><path fill="#8c5744" d="M138 151l-1 2-14-2 1-2z"/><path fill="#616155" d="M74 34l16 10v1l-16-9z"/><path fill="#413f30" d="M6 52l11-1v1L6 54z"/><path fill="#84787a" d="M156 139l1-8h1l-1 8z"/><path fill="#827d7a" d="M155 27l5 3-1 1-5-3z"/><path fill="#c4bdbc" d="M153 135h-1l-4-9h2z"/><path fill="#6b5440" d="M354 155h4l-1 17h-4z"/><path fill="#3c3d3c" d="M31 78l27 3v2l-27-3z"/><path fill="#9f8478" d="M371 121h7l-1 28h-6z"/><path fill="#5f4535" d="M40 160l1-1 11 7v2z"/><path fill="#e1bba2" d="M116 75l1-1 9 9-1 1z"/><path fill="#6d4c3f" d="M218 195l-1-25h1l1 24z"/><path fill="#656a75" d="M202 39l-11 3v-1l10-3z"/><path fill="#af9691" d="M345 38l8-4 1 1-9 4z"/><path fill="#384147" d="M198 16l-8 14-2-1 8-13z"/><path fill="#dabaa4" d="M256 115v-10l11 1v9z"/><path fill="#6a5649" d="M281 32l-1 1-6-4v-1z"/><path fill="#2b1e18" d="M163 155l-4-3 11-15 4 3z"/><path fill="#525256" d="M169 111l-1 3-4-1 1-3z"/><path fill="#bec7d1" d="M238 68l7-1 3 20-7 1z"/><path fill="#b79c8f" d="M295 70l-1 1-6-2 1-1z"/><path fill="#482917" d="M91 187v3h-6v-3z"/><path fill="#474d35" d="M352 96l-1-2 30-16 1 1z"/><path fill="#71797c" d="M183 39l-3-4 4-3 3 3z"/><path fill="#997b6f" d="M296 167l5-45h1l-4 45z"/><path fill="#7f7d5b" d="M314 77v-1l39 1v2z"/><path fill="#60654a" d="M23 169l24 6v2l-24-7z"/><path fill="#8b9fbd" d="M218 79v1l-28-10v-2z"/><path fill="#343d33" d="M53 86l-1-2 37-12 1 2z"/><path fill="#53574a" d="M223 28v-2l21 10v2z"/><path fill="#5d4844" d="M147 163h2l-1 7-2-1z"/><path fill="#a5887d" d="M94 116l-4 2-8-17 5-2z"/><path fill="#ceb1a5" d="M126 134l4-5 5 4-4 5z"/><path fill="#a6877c" d="M209 193l1 4-11 2-1-4z"/><path fill="#674333" d="M200 174l-6-5 1-1 6 5z"/><path fill="#697891" d="M210 67l-5 31-1-1 5-31z"/><path fill="#40352d" d="M49 48v-1h7v1z"/><path fill="#7b5344" d="M113 140l3 3-12 12-3-3z"/><path fill="#ac9385" d="M129 107l1 2-20 4v-1z"/><path fill="#242928" d="M384 38l-18 9-2-2 19-10z"/><path fill="#525b3c" d="M287 53v-2l43-5v1z"/><path fill="#6e5950" d="M333 144h1l4 10-2 1z"/><path fill="#2d4133" d="M95 65l-11-5v-1l12 4z"/><path fill="#2f2c32" d="M184 33l4-6 2 1-5 6z"/><path fill="#483832" d="M107 206l5-14h1l-5 15z"/><path fill="#767063" d="M41 58l3 2-3 5-2-1z"/><path fill="#836a5b" d="M286 200l-15-32h1l15 31z"/><path fill="#c3bebb" d="M168 66l-29-10 1-2 29 11z"/><path fill="#131d00" d="M83 89l-6-3 1-1 6 2z"/><path fill="#8c98af" d="M181 134l6-4 3 4-7 4z"/><path fill="#806e69" d="M254 45l12-3v2l-12 3z"/><path fill="#544f3d" d="M121 73l8-5 1 1-8 5z"/><path fill="#919698" d="M42 27h21v1H42z"/><path fill="#62522e" d="M17 85l9 2-1 8-9-2z"/><path fill="#776156" d="M315 205h-1l-21-36 1-1z"/><path fill="#7a6a69" d="M389 47l1-2 20 10-1 1z"/><path fill="#d4dbde" d="M9 28v-2l58-2v2z"/><path fill="#bfc3c7" d="M180 38l-5 8-16-10 5-8z"/><path fill="#0f0f11" d="M262 88h-2l5-12 1 1z"/><path fill="#e7eff5" d="M251 20l-2-38h8l2 37z"/><path fill="#2b3b27" d="M3 68l27 1v2L3 70z"/><path fill="#937f64" d="M121 70l-14 16-1-1 14-16z"/><path fill="#977c6b" d="M369 190l-7-32h2l7 32z"/><path fill="#85746d" d="M65 99l8-10 1 1-8 10z"/><path fill="#4f2a1b" d="M214 186v-5h2v5z"/><path fill="#646052" d="M57 37L24 69l-1-1 33-32z"/><path fill="#ddc3b1" d="M215 136l-1-2 7-2 1 1z"/><path fill="#916f5d" d="M103 179l23-54h1l-23 55z"/><path fill="#d6d8df" d="M31 27v3l-16 4-1-3z"/><path fill="#212b17" d="M83 82v-5l11-1v5z"/><path fill="#dee9f7" d="M100 15L98 3l104-17 2 13z"/><path fill="#7a5c4f" d="M92 148h-7l-1-13h8z"/><path fill="#907266" d="M264 163l1 1-24 49-1-1z"/><path fill="#59697e" d="M153 170l4-10h1l-4 10z"/></svg>