<svg xmlns="http://www.w3.org/2000/svg" viewBox="0 0 16 8"><path fill="#adc0c9" d="M0 0h16v8H0z"/><path fill="#fcf1e6" d="M6 5h26L-7 24z"/><path fill="#6291a9" d="M3 5l8-20L-7-2z"/><path fill="#769ebb" d="M27-7L12 5l-1-5z"/><path fill="#c4cfcf" d="M-3 19L9-1 6 19z"/><path fill="#f2f0ed" d="M14 7L7 8l12 4z"/><path fill="#b3bcbe" d="M11 3l4 3L5 4z"/><path fill="#98b3bf" d="M5 1L2 13l-16 11z"/><path fill="#a6cde4" d="M11 1L5 2l11-12z"/><path fill="#6195b0" d="M2 1l-6-16-11 30z"/><path fill="#86aec9" d="M9 3l23-6-12-12z"/><path fill="#c8cfcd" d="M7 3l2 13-4-8z"/><path fill="#a0afb8" d="M16 2L9 4l3 1z"/><path fill="#79a5c3" d="M21-11l-31 5L28 4z"/><path fill="#c0d3dc" d="M7 1h1v3z"/><path fill="#9ab3bf" d="M10-15L4 3l13-16z"/><path fill="#cfcac6" d="M16 5v11l8-16z"/><path fill="#7f99a6" d="M2 4h-17l3 4z"/><path fill="#93b6ca" d="M2 6l3 18-17-22z"/><path fill="#b6d1e0" d="M4 7l3 17 4-5z"/><path fill="#bcbcb6" d="M9 4L8 5 6 4z"/><path fill="#5c8ba3" d="M-9-15l-6 21L3-1z"/><path fill="#d9dddc" d="M10 6L2 24l7-5z"/><path fill="#87b4cc" d="M3 1l-18 6V1z"/><path fill="#b7b9b9" d="M14 4l18 5-7-5z"/><path fill="#a9cbde" d="M10 2L5-10l5-5z"/><path fill="#84a1b0" d="M5 1l5-16-19 9z"/><path fill="#edebe6" d="M5 12l10-5L3 18z"/><path fill="#a4c1d3" d="M15 4h13v-6z"/><path fill="#96bcd5" d="M13 2L3-12l-11-3z"/><path fill="#7ca0b7" d="M16 1L9-13l9 7z"/><path fill="#9ca4a2" d="M3 5l-18 1 3 4z"/><path fill="#d5dfe5" d="M16 6h16V0z"/><path fill="#87b0cc" d="M16 2l-6-6 1 4z"/><path fill="#7ca2b4" d="M-15 4L1 2l-8 10z"/><path fill="#d0d3ce" d="M8 6l-23 18h12z"/><path fill="#96aebc" d="M13 2h-3l4 2z"/><path fill="#b2c2c8" d="M3 6l5 14-5 4z"/><path fill="#e3dcd4" d="M15 7l1 17 4-2z"/><path fill="#9eb7c1" d="M4 3L2 4l1-2z"/><path fill="#8ab3cf" d="M14 1l11 3 4-3z"/><path fill="#85a8bf" d="M13 3l4-10v6z"/><path fill="#b7cdd7" d="M5 4l9-15 9-2z"/><path fill="#aabbc4" d="M10 2H7l6 2z"/><path fill="#9dafb8" d="M15 3l9-2 8-16z"/><path fill="#aec6d2" d="M8 1L5-6l7 1z"/><path fill="#a7cfe7" d="M10 1L4-6l-1-9z"/><path fill="#789fb9" d="M29 5L7-15v11z"/><path fill="#dedbd5" d="M3 18L8 7l-1 7z"/><path fill="#b9bdbb" d="M8 5l2-1H6z"/><path fill="#a1b3b9" d="M5 3V2H4z"/><path fill="#edf0ef" d="M14 8l5 11 13 5z"/><path fill="#8ab3cd" d="M14 1h10l3 4z"/><path fill="#85a8b9" d="M3 3l-16 3-2-5z"/><path fill="#b9d1dd" d="M7 3l11-15-4-3z"/><path fill="#a5c9de" d="M10 2L9-15 6-9z"/><path fill="#7b9daf" d="M2 3l-9-9 2 7z"/><path fill="#afc7d3" d="M7 1l2-5h3z"/><path fill="#92aab8" d="M14 3l15-5-4 5z"/><path fill="#d9d3cc" d="M17 6l3-1-4 6z"/><path fill="#73a4bd" d="M1 2h-12l-4-12z"/><path fill="#ced2d0" d="M8 6l-23 18 15-6z"/><path fill="#97adb9" d="M10 2v1l3-1z"/><path fill="#d2d8d5" d="M8 7l-23 8v9z"/><path fill="#cad0ce" d="M6 6L0 24l11-5z"/><path fill="#bacfd7" d="M4 6l-1 6 2-1z"/><path fill="#95b6cb" d="M10 4l2-1-1-6z"/><path fill="#85acc6" d="M12 1l20-8-23-6z"/><path fill="#e0e3e4" d="M14 7L4 10l-3 6z"/><path fill="#d2dbdf" d="M15 6h15l-2-6z"/><path fill="#b9c6cf" d="M12 5l1 1V5z"/><path fill="#cfd4d5" d="M16 6l16-3-9-8z"/><path fill="#97abb5" d="M5 1v-12l9-4z"/><path fill="#dddedb" d="M-1 24H9l1-17z"/><path fill="#80a3b5" d="M4 1l-15-16 27 3z"/><path fill="#c1ced1" d="M8 4L7 3v1z"/><path fill="#a2c0d0" d="M10 1v-8l12-8z"/><path fill="#d2d5d2" d="M7 7l-20 12 11 1z"/><path fill="#88adc5" d="M16 2l6-17 5 15z"/><path fill="#97b0bb" d="M3 2L2 3l2-1z"/><path fill="#b3bec1" d="M5 2l2 1-1-1z"/><path fill="#99b1bf" d="M16 2l13 4-1-4z"/><path fill="#89afc3" d="M2 4l-12 1-5 7z"/><path fill="#bbc3c5" d="M13 5l13-2 6-8z"/><path fill="#a6bbc5" d="M6 1l3-11 8-5z"/><path fill="#9abfd6" d="M5-11l7 13-6-6z"/><path fill="#87abc2" d="M15-15l2 8-5 8z"/><path fill="#a1a5a4" d="M11 4h1l-2 1z"/><path fill="#a1c0d1" d="M11 1L-3-15l11 1z"/><path fill="#e8e9e3" d="M8 8l-2 9 11 7z"/><path fill="#72a1b9" d="M3 1l-13-15 8-1z"/><path fill="#83a8bc" d="M2 3l-14 13-3-8z"/><path fill="#99b6c7" d="M2 6L0 24-13 6z"/><path fill="#82abc7" d="M7-8L1-6l14 7z"/><path fill="#d1d2d4" d="M10 6l1 1 1-1z"/><path fill="#dee0dd" d="M10 7L6 19l-14 5z"/><path fill="#abc3d2" d="M16 4l7-13 9 8z"/><path fill="#90a9b8" d="M15 2h-3v1z"/><path fill="#dedfdc" d="M10 18L9 7l8 11z"/><path fill="#e5e8e7" d="M13 8l7 6L1 9z"/><path fill="#98b1c1" d="M12 4V3l1 1z"/></svg>