<svg xmlns="http://www.w3.org/2000/svg" viewBox="0 0 50 25"><path fill="#adc0cb" d="M0 0h50v25H0z"/><path fill="#f7f1ed" d="M66 18l-50-3-9 26z"/><path fill="#6795af" d="M-15-12l40-3-28 47z"/><path fill="#77a1bd" d="M66 0L32-6l-1 22z"/><path fill="#c8d1d6" d="M30-15L1 41l23-22z"/><path fill="#f2eee9" d="M60 40L22 23l23-3z"/><path fill="#a8b6c0" d="M11 17L66 1 38 18z"/><path fill="#478bab" d="M4 5l-19-7H6z"/><path fill="#dbd7d5" d="M66 10l-21 2 2 10z"/><path fill="#83aac3" d="M46 9L27 8l38-23z"/><path fill="#94a4af" d="M11 15l2-9-28 11z"/><path fill="#a1bbca" d="M14 40L6 17-15 6z"/><path fill="#dee2e4" d="M32 36l11-8-21-16z"/><path fill="#7d8f9d" d="M30 10l-6-2h7z"/><path fill="#717473" d="M46 9l20 1v6z"/><path fill="#b2c8d8" d="M25-2L7 7h32z"/><path fill="#c4d2d5" d="M48 28l4-28 14-10z"/><path fill="#d2d6d7" d="M21 17L18 6l5-1z"/><path fill="#7ca9c7" d="M4 4l12-19V5z"/><path fill="#9dadb7" d="M21 15l12-4 12 4z"/><path fill="#b4c7d4" d="M29 11l12 7-8 3z"/><path fill="#c5d2d9" d="M13 11l4 20H9z"/><path fill="#e1e2e1" d="M57 35L42 14l8 27z"/><path fill="#aebcc6" d="M35 11l-20 2 10-4z"/><path fill="#75a4bf" d="M21-3L66 7 34-15z"/><path fill="#8ca3b3" d="M41 16h-4l1-9z"/><path fill="#cdd3d5" d="M38 14l5 4-4 3z"/><path fill="#7494a8" d="M-11-2L6 16-8-15z"/><path fill="#cdced1" d="M50 16l-2-6-6 10z"/><path fill="#cedbe4" d="M30 41H17l-1-29z"/><path fill="#8da7b6" d="M-15 8l1 9 29-9z"/><path fill="#d0d8dc" d="M27 12l-6 18L2 41z"/><path fill="#a3b9c8" d="M27-14L5 13l39-28z"/><path fill="#a8c1cf" d="M36 10l-5 5-3-6z"/><path fill="#95b0c3" d="M34 16l2-21-5 13z"/><path fill="#b4c7d0" d="M6 16l5 1v8z"/><path fill="#b1b0af" d="M66-15L65 2 47 15z"/><path fill="#97b4c3" d="M-15 34L2 13l13 28z"/><path fill="#c5d3db" d="M21 3l5 6-4-18z"/><path fill="#d5dbde" d="M18 11l3-4-2 7z"/><path fill="#8aa2ae" d="M12 16L8 5 6 9z"/><path fill="#a0a9ad" d="M18 16l5-2h-9z"/><path fill="#ccd2d5" d="M11 9h14l-3 3z"/><path fill="#cedae2" d="M18 20l-1-6-5 7z"/><path fill="#dbdddf" d="M48 14l5-7 13 3z"/><path fill="#c5d3dc" d="M33 23l6-2-3-7z"/><path fill="#c9d5dd" d="M7 41l9-1 6-27z"/><path fill="#97b9cf" d="M50 6L37 7l-7-5z"/><path fill="#8897a0" d="M28 13l1-2-3 3z"/><path fill="#eae7e3" d="M46 19l7 22-26-16z"/><path fill="#acb1b4" d="M17 9V6l5 7z"/><path fill="#c7d2da" d="M29 16l-2 2 2-5z"/><path fill="#bbc9d2" d="M12 20l-3-5 6 4z"/><path fill="#c8d1d7" d="M23 8l-3-6-2 10z"/><path fill="#a3bccc" d="M39 11l-6-3-3 4z"/><path fill="#bfcacd" d="M7 10l7 2 6-2z"/><path fill="#95bfd4" d="M5 5v2l4-2z"/><path fill="#b6c8d2" d="M17 17l-7 4-6-2z"/><path fill="#82959f" d="M12 9l-1-1 1 2z"/><path fill="#dce0e9" d="M48 16l-3-1-3 1z"/><path fill="#505a60" d="M10 14l1 1v-1z"/><path fill="#bac5cc" d="M24 12h6l-9-4z"/><path fill="#8da4b2" d="M17 13l-27-8 3 8z"/><path fill="#c4cfd2" d="M12 11v8l3-9z"/><path fill="#89a1b0" d="M35 10l2 6V7z"/><path fill="#7fa7bb" d="M-15 41l6-37H6z"/><path fill="#ccd7de" d="M15 40l1-27 7 18z"/><path fill="#85979e" d="M34 16l-1-2h2z"/><path fill="#abc2d2" d="M32 9l5 3 2-1z"/><path fill="#b9d3e3" d="M34 16v4l2-6z"/><path fill="#949a9c" d="M22 17v-2l-1 3z"/><path fill="#dee3e5" d="M22 17l1 13 3-6z"/><path fill="#b1c2ca" d="M13 12l1-7-4 9z"/><path fill="#96b6c7" d="M15 4l-2 4-9-2z"/><path fill="#aebcc7" d="M41 17l-3 2-6-2z"/><path fill="#7da6c1" d="M14 5l2-13-31-6z"/><path fill="#dfe5e8" d="M24 13l-1 1-2-1z"/><path fill="#627b8e" d="M3 16l-18 6v-5z"/><path fill="#94b4c6" d="M4 10l2 4L8 3z"/><path fill="#adb4b6" d="M65 2l1 14-18 2z"/><path fill="#a3afb5" d="M25 11l-2 2 4-1z"/><path fill="#f6eee7" d="M41 23l12 15-31-10z"/><path fill="#84939f" d="M37 14h7l-1 2z"/><path fill="#677c88" d="M38 13l-3-1h5z"/><path fill="#dee2e2" d="M57 41L42 14l6 24z"/><path fill="#b4c5d0" d="M42-14L15 8l9-23z"/><path fill="#d1dadd" d="M38 20l3-2-2-3z"/><path fill="#5a91ab" d="M3-3l1 7-17-10z"/><path fill="#829dae" d="M-14 16L9 9l-24-1z"/><path fill="#a3bac7" d="M4 9h8l-6 2z"/><path fill="#bbcfd8" d="M47 30l19-18-15 7z"/><path fill="#7a7772" d="M50 10l11 5 5-5z"/><path fill="#c6cbcc" d="M50 12l6-23 10 35z"/><path fill="#899ba8" d="M5 13l1-3 5 3z"/><path fill="#abc2d6" d="M5 13l-20 4v7z"/><path fill="#6d8699" d="M1 15l-9 2-3 5z"/><path fill="#d9e2e6" d="M33 18l-1 7-6-7z"/><path fill="#d1d0cc" d="M48 17h-6l-2 4z"/><path fill="#e5e4e2" d="M49 19l-7 9-2-9z"/><path fill="#8c9595" d="M15 15l-2-1h2z"/><path fill="#dde5e5" d="M18 14h-4l2-1z"/></svg>