<svg xmlns="http://www.w3.org/2000/svg" viewBox="0 0 800 400"><path fill="#9e8a6e" d="M0 0h800v400H0z"/><path fill="#ffffe9" d="M848 67L27-48l-75 228z"/><path fill="#251500" d="M23 448l825-71-896-188z"/><path fill="#fff3d2" d="M808 120l3-159-587-9z"/><path fill="#44351e" d="M327 258l521 6-71 184z"/><path fill="#8f7859" d="M-48 333V117l815 160z"/><path fill="#efd7b3" d="M848-20L-48 5l500 156z"/><path fill="#2c2111" d="M780 448l43-131-518 72z"/><path fill="#f6deb9" d="M-48 155L20-48l282 168z"/><path fill="#9f8665" d="M-42 158l372-28L42 248z"/><path fill="#cbb695" d="M523 92l304 75L708-48z"/><path fill="#705c41" d="M152 230l656 93-416 54z"/><path fill="#f4e2c0" d="M402 142l153-28-63-162z"/><path fill="#4f3e28" d="M-48 308l84 140 497-84z"/><path fill="#fff8d7" d="M848 117V73L683 89z"/><path fill="#ad916e" d="M730 92l118 116-462-56z"/><path fill="#a28969" d="M595 236L283 123l-331 63z"/><path fill="#3d311f" d="M686 311L414 420l406-25z"/><path fill="#d2c0a1" d="M127 98l346-9-62-97z"/><path fill="#847256" d="M836 267l-531 63 234-110z"/><path fill="#efdbb8" d="M236 123l256-50-31 66z"/><path fill="#a18969" d="M542 139l163 138-510-135z"/><path fill="#322815" d="M339 377l66 71-250-56z"/><path fill="#6b573f" d="M155 242l-203 69 431 47z"/><path fill="#d4c4a8" d="M848 61L480 80 667-48z"/><path fill="#eddebe" d="M-48 61L23-48 273 52z"/><path fill="#786446" d="M720 348l63-93 65 75z"/><path fill="#6d583e" d="M642 277l-203 37 222 34z"/><path fill="#ac9273" d="M848 252l-40-144-291 15z"/><path fill="#eeddba" d="M498 92l88 13-156 37z"/><path fill="#f1e0c3" d="M664-48L477 67 405-48z"/><path fill="#d4c3a5" d="M727 98L505 70 848-30z"/><path fill="#cfbb9d" d="M14 83l85-22 87 28z"/><path fill="#e9d5b2" d="M311 117l-206 35-147-72z"/><path fill="#857659" d="M-20 255l206-19-213-38z"/><path fill="#efdbb9" d="M298 98l135 35-100 3z"/><path fill="#c6b38d" d="M61 127l-25 21 91-3z"/><path fill="#cdba9a" d="M292 45l-37 44 122 13z"/><path fill="#ecdab9" d="M295 30l97 37 31-28z"/><path fill="#403220" d="M673 314l172 88-234 37z"/><path fill="#a0896b" d="M552 136L2 155l303 106z"/><path fill="#725d44" d="M320 255l235 81-382-19z"/><path fill="#ffebcb" d="M848 120l-50-50-59 28z"/><path fill="#9c8465" d="M639 270l-153-90 362 68z"/><path fill="#a78f6f" d="M255 177l165-32-178-18z"/><path fill="#9d8668" d="M102 208l-150 15 31-87z"/><path fill="#837155" d="M477 308l56-69-166 19z"/><path fill="#4f4228" d="M502 361l115-31 56 31z"/><path fill="#7a6a4d" d="M848 314l-243-34 243-32z"/><path fill="#ebdabb" d="M683 73l-31-46-10 53z"/><path fill="#d3c2a4" d="M348 105l113-19-9-56z"/><path fill="#3d2f1e" d="M364 395l484-53-153 106z"/><path fill="#aa9172" d="M636 95l162 72H377z"/><path fill="#927d5f" d="M298 177l-125 56 129 31z"/><path fill="#5d4b32" d="M395 348l-443 66L73 311z"/><path fill="#6b573d" d="M564 361l34-69-125 19z"/><path fill="#e3d2b5" d="M486 27l103 28 34-103z"/><path fill="#cdbca1" d="M445-33l-31 63-84-16z"/><path fill="#cebc9c" d="M630 92l3-94-69 116z"/><path fill="#c6b99a" d="M270 8L5-11l162-37z"/><path fill="#dfcfaf" d="M192 80l85-13-175-50z"/><path fill="#5c4a30" d="M345 339l203 6-165 44z"/><path fill="#d3c1a3" d="M717 95l131-53-200-6z"/><path fill="#746046" d="M33 223l-81 113 396-69z"/><path fill="#443620" d="M742 392l-25-34 3-44z"/><path fill="#d1c0a0" d="M536 95l-6-56 159 53z"/><path fill="#a28b6c" d="M233 136l72-9-50 90z"/><path fill="#a28a6b" d="M848 258l-418-85 209-31z"/><path fill="#eddaba" d="M180 98l150 4-107 31z"/><path fill="#ead8bb" d="M667 20l31 7-53 12z"/><path fill="#817153" d="M-48 261l231-25-138-22z"/><path fill="#f1e1c2" d="M417 36l56-75 119 28z"/><path fill="#4b3f26" d="M714 352l75 31-19-50z"/><path fill="#e4d0b1" d="M-48 136V92l146 41z"/><path fill="#f3e1be" d="M192 14l-78 3 134 32z"/><path fill="#9a8267" d="M658 239l-356 6 184-53z"/><path fill="#ead8b9" d="M330 30l-57-3 75-57z"/><path fill="#53422d" d="M73 448l-121-78 237 19z"/><path fill="#6f5a3f" d="M680 292l-41 31 6 29z"/><path fill="#705942" d="M30 252l-69 53 212 18z"/><path fill="#e8d5b5" d="M414 95l-9 35-122-7z"/><path fill="#725c44" d="M311 339l191-28-300-38z"/><path fill="#b39c78" d="M742 102l-53 31 156-3z"/><path fill="#9b8466" d="M520 245L52 214l243-50z"/><path fill="#efddbb" d="M80 114l81-16-113-9z"/><path fill="#604f33" d="M408 339l-138-3 25 50z"/><path fill="#e7d3b6" d="M748 92l69-37-31-7z"/><path fill="#3a2f1c" d="M364 436l75-69 128 60z"/><path fill="#d4c0a3" d="M33 83l-81-25 59 37z"/><path fill="#7f6c50" d="M127 220l62 38 84-10z"/><path fill="#7b6b4f" d="M564 280l153-10-81 28z"/><path fill="#e6d4b5" d="M236 77L64 61l-3-78z"/><path fill="#584833" d="M280 189l12-9 3 3z"/><path fill="#f4e2c3" d="M798 86l-81 6 116 22z"/><path fill="#3c2f1b" d="M192 383l188 19-200 46z"/><path fill="#a88e6f" d="M411 136l84 59-128-37z"/><path fill="#a28c6d" d="M302 183l-104-44-112 28z"/><path fill="#efddbb" d="M448 105l66-72-22 100z"/><path fill="#f1e0c1" d="M-48-5v66L89 11z"/><path fill="#d2c0a4" d="M798-48l-9 112-125 28z"/><path fill="#ddccb0" d="M758 23l-53 4-16-47z"/></svg>