<svg xmlns="http://www.w3.org/2000/svg" viewBox="0 0 400 200"><path fill="#9e8a6e" d="M0 0h400v200H0z"/><g transform="translate(1 1) scale(1.5625)"><ellipse fill="#ffffe9" rx="1" ry="1" transform="matrix(254.99736 -1.16134 .20747 45.55407 73 0)"/><ellipse fill="#261602" rx="1" ry="1" transform="matrix(246.33588 16.94618 -2.16074 31.4093 142 115)"/><ellipse fill="#271c0d" rx="1" ry="1" transform="matrix(-178.63139 15.62822 -1.02822 -11.75264 156 127)"/><ellipse fill="#816c4f" rx="1" ry="1" transform="matrix(-.5624 16.1052 -219.29374 -7.6579 83 86)"/><ellipse fill="#f4dbb5" rx="1" ry="1" transform="matrix(-2.26205 -26.938 182.43387 -15.3194 19 22)"/><ellipse fill="#b0926e" rx="1" ry="1" transform="matrix(51.28687 -4.11635 1.35327 16.86079 206 48)"/><ellipse fill="#fff7d5" rx="1" ry="1" transform="matrix(-20.15365 -.739 .21898 -5.97196 254 30)"/><ellipse fill="#a08665" rx="1" ry="1" transform="matrix(-5.58623 18.50241 -36.83463 -11.12108 101 62)"/><ellipse fill="#fae1b9" rx="1" ry="1" transform="matrix(-30.85362 7.69267 -2.05932 -8.25949 152 33)"/><ellipse fill="#7d6c50" cx="195" cy="88" rx="136" ry="6"/><ellipse fill="#a99070" cx="212" cy="49" rx="45" ry="19"/><ellipse fill="#735f45" cx="22" cy="85" rx="56" ry="15"/><ellipse fill="#d2c1a2" rx="1" ry="1" transform="matrix(29.00707 -5.11473 3.04267 17.25583 112 15)"/><ellipse fill="#52412a" rx="1" ry="1" transform="matrix(99.92118 0 0 9.97956 52 118)"/><ellipse fill="#3b2d1d" rx="1" ry="1" transform="matrix(14.27841 24.03628 -11.74643 6.9778 229 126)"/><ellipse fill="#f1e1c0" cx="18" cy="10" rx="50" ry="11"/><path fill="#f8e7c7" d="M155 24l39-40-57 18z"/><ellipse fill="#d9c2a1" rx="1" ry="1" transform="matrix(-3.84065 -14.3335 50.85787 -13.62732 214 12)"/><ellipse fill="#f1dcba" rx="1" ry="1" transform="matrix(-49.13715 -5.51161 .44397 -3.95807 102 37)"/><path fill="#fff0d1" d="M244 34l27 2V-7l-22 32z"/><ellipse fill="#a28969" rx="1" ry="1" transform="rotate(179 44 30) scale(53.37688 16.61434)"/><ellipse fill="#9e8667" rx="1" ry="1" transform="matrix(27.55265 16.26385 -8.13797 13.78657 200 65)"/><path fill="#b39a79" d="M194 27l75 55-12-46z"/><path fill="#867458" d="M208 83l-94-3 36 17z"/><path fill="#ebd8b7" d="M-16 25l121 9-63 13z"/></g></svg>