<svg xmlns="http://www.w3.org/2000/svg" viewBox="0 0 400 200"><style>@keyframes a{from{opacity: 0}to{opacity: 1}}g&gt;*{opacity: 0;animation: a .5s forwards}</style><path fill="#9e8a6e" d="M0 0h400v200H0z"/><g fill="none"><path stroke="#000" d="M424 194q-148 3-435 4m435 0l-433 2m433-8H-3m-21-6h448" style="animation-delay:0s"/><path stroke="#fffff4" d="M2 13q6-26 406-2" style="animation-delay:.224s"/><path stroke="#000" d="M4 192q217 12 420-14" style="animation-delay:.447s"/><path stroke="#080000" d="M424 162q-29 43-442 6" style="animation-delay:.668s"/><path stroke="#000" d="M-24 186q328 18 427-1" style="animation-delay:.884s"/><path stroke="#070000" d="M408 177q-168 10-432 7" style="animation-delay:1.096s"/><path stroke="#000" d="M422 200q-446 3-446-16" style="animation-delay:1.302s"/><path stroke="#fffffa" d="M-24 45q75 20 430-2" style="animation-delay:1.5s"/><path stroke="#fffff7" d="M424 14q-86 4-448 2" style="animation-delay:1.69s"/><path stroke="#fffff3" d="M-5-9q20 130 429 23" style="animation-delay:1.87s"/><path stroke="#030000" d="M-24 196q68 4 429 1" style="animation-delay:2.041s"/><path stroke="#120400" d="M-24 157q18 43 448 13" style="animation-delay:2.199s"/><path stroke="#fffff2" d="M-10 22q80-2 434-1" style="animation-delay:2.345s"/><path stroke="#050000" d="M39 189l385-1" style="animation-delay:2.479s"/><path stroke="#fffff4" d="M-13 15q215-31 433 48" style="animation-delay:2.598s"/><path stroke="#180a00" d="M-24 186q208-26 448-3" style="animation-delay:2.703s"/><path stroke="#fffff1" d="M424 13H5m2 11h417" style="animation-delay:2.793s"/><path stroke="#ffe" d="M424 11Q24 122-7-24" style="animation-delay:2.867s"/><path stroke="#ffffea" d="M3 26q163 2 410 2" style="animation-delay:2.925s"/><path stroke="#180900" d="M-24 162q411 40 418-3" style="animation-delay:2.966s"/><path stroke="ivory" d="M395 16Q128-8-24 15" style="animation-delay:2.992s"/></g></svg>