<svg xmlns="http://www.w3.org/2000/svg" viewBox="0 0 400 200"><path fill="#9e8a6e" d="M0 0h400v200H0z"/><path fill="#ffffea" d="M-6-49l398-21 6 127L0 78z"/><path fill="#271703" d="M5 120l398 21-7 128-398-21z"/><path fill="#897255" d="M395 158H-3v-52h398z"/><path fill="#251a0c" d="M455 202L78 235l-3-39 377-33z"/><path fill="#f6ddb7" d="M-22-55l293 21-7 109-293-20z"/><path fill="#ab8e6a" d="M361 38l10 38-140 35-9-38z"/><path fill="#fff3d4" d="M380 51l19-54 19 6-19 55z"/><path fill="#ae9372" d="M434 59l-6 76-123-11 6-76z"/><path fill="#a08563" d="M157 63l6 45-100 12-5-45z"/><path fill="#503e28" d="M-189 139l395 49-6 46-395-48z"/></svg>