<svg xmlns="http://www.w3.org/2000/svg" viewBox="0 0 400 200"><path fill="#9e8a6e" d="M0 0h400v200H0z"/><path fill="#ffffeb" d="M-3-54l398-21 7 131L4 77z"/><path fill="#271602" d="M5 118l398 27-10 136-397-28z"/><path fill="#836e51" d="M398 165L0 158v-47l399 7z"/><path fill="#251a0c" d="M417 202L79 232l-3-36 337-30z"/><path fill="#f7ddb6" d="M-27-60l193-14 10 136-194 13z"/><path fill="#f7deb7" d="M172-35h89V71h-89z"/><path fill="#b49570" d="M284 77l4-35 139 17-4 35z"/><path fill="#a58864" d="M109 87V65h46v22z"/><path fill="#a58b6a" d="M243 127l-13-57 116-26 13 56z"/><path fill="#ffe6c4" d="M398 60l-21-11 24-45 21 11z"/><path fill="#d2c1a3" d="M115-9l102-2 1 59-102 2z"/><path fill="#ecd7b5" d="M296-7l13 58-88 20-13-58z"/><path fill="#766348" d="M112 120l-5 34-139-19 5-34z"/><path fill="#827155" d="M334 148H177v-19h157z"/><path fill="#6e5c42" d="M362 176l-5-42 48-6 5 42z"/></svg>