<svg xmlns="http://www.w3.org/2000/svg" viewBox="0 0 400 200"><path fill="#9e8a6e" d="M0 0h400v200H0z"/><g transform="translate(1 1) scale(1.5625)"><ellipse fill="#fbe8c5" cx="87" rx="79" ry="79"/><ellipse fill="#47331a" cx="87" cy="127" rx="87" ry="87"/><ellipse fill="#1a0c00" cx="211" cy="127" rx="47" ry="47"/><ellipse fill="#f9e6c4" cx="204" rx="57" ry="57"/><ellipse fill="#fff6d5" cx="23" cy="12" rx="37" ry="37"/><ellipse fill="#967d5c" cx="206" cy="66" rx="38" ry="38"/><ellipse fill="#ab9272" cx="130" cy="68" rx="26" ry="26"/><ellipse fill="#ead9b9" cx="97" rx="54" ry="54"/><ellipse fill="#57452e" cx="20" cy="127" rx="58" ry="58"/><ellipse fill="#4d3d27" cx="122" cy="127" rx="43" ry="43"/><ellipse fill="#978060" cx="33" cy="71" rx="28" ry="28"/><ellipse fill="#f1e2c2" cx="160" cy="10" rx="32" ry="32"/><ellipse fill="#312512" cx="209" cy="127" rx="29" ry="29"/><ellipse fill="#977f62" cx="118" cy="75" rx="33" ry="33"/><ellipse fill="#e8d9bd" cx="251" rx="36" ry="36"/><ellipse fill="#6b593c" cx="246" cy="96" rx="16" ry="16"/><ellipse fill="#a48a6a" cx="84" cy="62" rx="22" ry="22"/><ellipse fill="#756246" cx="165" cy="94" rx="21" ry="21"/><ellipse fill="#f3debe" cy="24" rx="25" ry="25"/><ellipse fill="#a78e6e" cx="222" cy="59" rx="30" ry="30"/><ellipse fill="#483922" cx="67" cy="127" rx="25" ry="25"/><ellipse fill="#998264" cx="177" cy="65" rx="28" ry="28"/><ellipse fill="#2e2211" cx="250" cy="127" rx="19" ry="19"/><ellipse fill="#322614" cx="149" cy="127" rx="16" ry="16"/><ellipse fill="#ddcdb0" cx="199" cy="2" rx="30" ry="30"/></g></svg>