<svg xmlns="http://www.w3.org/2000/svg" viewBox="0 0 400 200"><path fill="#9e8a6e" d="M0 0h400v200H0z"/><path fill="#ffffeb" d="M-1-23l398-21 5 100L5 77z"/><path fill="#271703" d="M397 266L-1 245l6-125 398 21z"/><path fill="#261b0c" d="M65 198l353-31 3 34-353 31z"/><path fill="#877053" d="M-3 108l399 7-1 48-398-7z"/><path fill="#f6dcb5" d="M-6 75l-6-94 198-14 6 94z"/><path fill="#f9e0b9" d="M268 69l-80 3-4-117 80-3z"/><path fill="#b29470" d="M278 90l7-49 126 17-7 50z"/><path fill="#ab906f" d="M354 44l4 21-154 33-4-21z"/><path fill="#a08461" d="M152 64l2 43-48 2-2-42z"/><path fill="#513f29" d="M-33 159l242 25-6 56-242-26z"/><path fill="#d1c0a2" d="M217-2l6 49-92 10-5-50z"/><path fill="#715e45" d="M135 166l-163-14 4-45 163 14z"/><path fill="#fff6d3" d="M376 52l2-18 42 6-3 18z"/><path fill="#827255" d="M127 123l276 9v16l-277-10z"/><path fill="#e1c9a6" d="M378-11l6 55-120 12-6-54z"/><path fill="#392d1b" d="M341 201l-24-17 21-31 25 18z"/><path fill="#f3dfbc" d="M165 68V53l78 2v16z"/><path fill="#d0b890" d="M108 72l-142 8v-7l142-7z"/><path fill="#f6e5c6" d="M240 39L217 6l63-44 23 33z"/><path fill="#a2896a" d="M144 75l256 13-2 42-256-13z"/><path fill="#f0e0c1" d="M-74 58l-18-76L76-57l17 77z"/><path fill="#726045" d="M359 135l53-7 5 42-52 7z"/><path fill="#b29979" d="M346 47l74 15-9 40-73-16z"/><path fill="#6e583f" d="M330 169l-211 4v-19l211-3z"/><path fill="#a28a6b" d="M121 64l101 9-4 40-101-9z"/><path fill="#3b2f1c" d="M287 171l32-6 8 44-32 5z"/><path fill="#d1bea0" d="M186 39v9l-199-4 1-9z"/><path fill="#a78f70" d="M321 48l6 17-81 26-5-17z"/><path fill="#837256" d="M214 153l-2-25 88-8 3 25z"/><path fill="#9b8467" d="M210 87l-1 42-89-2 1-42z"/><path fill="#d2be9f" d="M352 50l-14-23 68-41 14 23z"/><path fill="#715c43" d="M-69 138l164-18 4 38-165 17z"/><path fill="#5e4c32" d="M173 180l88-11 2 15-88 11z"/><path fill="#ebd8b8" d="M58 77l-4-20 74-13 4 20z"/><path fill="#857355" d="M-5 104h55v22H-5z"/><path fill="#9c8362" d="M146 101l-3 20-197-24 3-20z"/><path fill="#f5e2bd" d="M277 60l-52 1V48l52-1z"/><path fill="#735e45" d="M124 127l80 10-4 34-81-10z"/><path fill="#eddabb" d="M69 45v17h-92V46z"/><path fill="#c0ab85" d="M76 74v4l-53-3v-5z"/><path fill="#d0be9e" d="M314 16l10 16-40 25-10-16z"/><path fill="#ffe9cb" d="M414 31l-18 26-11-8 17-26z"/><path fill="#dfceaf" d="M71-21l128 37-6 19L65-1z"/><path fill="#a48c6c" d="M136 76l-43 7-2-10 43-8z"/><path fill="#f1ddbe" d="M129 49l41 2-1 11-40-3z"/><path fill="#e7d5b8" d="M248 17l5-24 48 11-6 24z"/><path fill="#342616" d="M93 205v-6l78-6v7z"/><path fill="#ccbba1" d="M170-14l39-1 1 31-39 1z"/><path fill="#a58d6e" d="M338 137l-11-49 58-14 11 49z"/><path fill="#f3ddba" d="M346 46l1-5 74 15-1 4z"/><path fill="#d4c2a4" d="M223 18l8 13-43 25-8-13z"/><path fill="#392c1a" d="M310 182l2 16-130 18-2-15z"/><path fill="#af9775" d="M323 48l62 6-3 25-62-7z"/><path fill="#5d4b32" d="M-31 184v-22l177 3-1 22z"/><path fill="#c8b69b" d="M75-4l55 4-1 6-54-4z"/><path fill="#f5e5c3" d="M78 6l53 19-2 5-52-19z"/><path fill="#e9d7b7" d="M205 47l21-3 5 26-21 4z"/><path fill="#cbb999" d="M143 26l18 3-2 21-19-2z"/><path fill="#d4c3a4" d="M264 17l35 21-12 19-34-22z"/><path fill="#d5c2a5" d="M352 50l-13-37 73-27 13 37z"/><path fill="#ab9374" d="M286 63l1 6-78 10v-6z"/><path fill="#4c351f" d="M148 89l1 1-2 4-1-1z"/><path fill="#68543b" d="M230 156l80-8 2 20-80 8z"/><path fill="#e6d5b4" d="M341 38l-18 5-6-23 18-5z"/><path fill="#9b8466" d="M349 112l-7 25-89-22 6-26z"/><path fill="#a89070" d="M206 79l-3 16-76-17 3-15z"/><path fill="#eddabb" d="M203 32l-34-6 2-9 34 5z"/><path fill="#eedabc" d="M93 44l-37-9 3-12 36 9z"/><path fill="#e9d5b3" d="M150 66V56l64 5v9z"/><path fill="#cfbda0" d="M332-11l10 9-50 56-10-10z"/><path fill="#78684c" d="M385 142l-47 10-3-14 47-10z"/><path fill="#3e301f" d="M335 162l47 21-15 34-47-20z"/><path fill="#ab9372" d="M323 53l-80 24-1-6 79-24z"/><path fill="#463520" d="M364 188l-6-34h1l7 34z"/><path fill="#d4c2a3" d="M134 49l-70-1v-8l70 1z"/><path fill="#4c3e27" d="M237 181l99-7v6l-98 7z"/><path fill="#e3cfb1" d="M34 69L0 70l-1-37 34-2z"/><path fill="#ecdab8" d="M250 40l4 24-21 4-4-24z"/><path fill="#a48c6a" d="M0 79l37-6 2 15-37 6z"/><path fill="#e8d7b7" d="M141 16l8-35 24 5-8 35z"/><path fill="#c3b08c" d="M-18 81l-1-5 57-9 1 5z"/><path fill="#5f4d34" d="M161 172l5 5-19 21-5-5z"/><path fill="#4e3f28" d="M386 166l5 11-19 9-5-12z"/><path fill="#a28968" d="M77 108l-8-30 33-9 8 30z"/><path fill="#ebd8b9" d="M159 64h-54V50h54z"/><path fill="#9b8267" d="M184 120l-40 13-1-4 39-14z"/><path fill="#6a583b" d="M272 181l3-16 11 3-3 15z"/><path fill="#b39b7a" d="M414 60l-4 22-63-12 4-22z"/><path fill="#817054" d="M272 123l-22 31-14-10 22-31z"/><path fill="#e4d1af" d="M244 65l50-18 1 2-50 18z"/><path fill="#5d4b31" d="M206 197l-38-9 6-24 38 9z"/><path fill="#7a644a" d="M382 160l23-27 11 9-23 27z"/><path fill="#d4c4a4" d="M186 47V35l45-3 1 13z"/><path fill="#f2e1c1" d="M26-2l5 18-55 16-6-18z"/><path fill="#e6d4b3" d="M233 59l-1 12-57-3V56z"/><path fill="#e1d0ad" d="M121 64v2l-47 3v-2z"/><path fill="#d1c0a1" d="M346 48l-13-25 25-13 13 25z"/><path fill="#6f5941" d="M0 172l-22-23 24-22 21 22z"/><path fill="#ead6b7" d="M34 45l54 4-2 24-54-5z"/><path fill="#d0bfa1" d="M346 48l-52 2v-9l51-2z"/><path fill="#8a765a" d="M192 126l22 4-2 8-21-4z"/><path fill="#7a694a" d="M110 127l-3 8-40-17 3-7z"/><path fill="#d4c1a2" d="M138 25l57 8-3 22-57-8z"/><path fill="#af9573" d="M211 73v2l-70-6v-2z"/><path fill="#aa9072" d="M399 121l-92-47 14-28 92 47z"/><path fill="#54422c" d="M94 193v14l-108-2v-14z"/><path fill="#e9d7ba" d="M325 21l-1-4 18-5 1 4z"/><path fill="#a38c6e" d="M144 66l3 24-42 5-3-24z"/><path fill="#6a583d" d="M339 150l-14 27-6-4 14-26z"/><path fill="#f7e2c4" d="M369 50l3-7 13 5-2 7z"/><path fill="#9c8467" d="M251 95l2 25-74 8-3-25z"/><path fill="#dbc8ae" d="M271 9l13-13 9 9-13 13z"/><path fill="#dbcaaa" d="M84 18v2l-51-8v-2z"/><path fill="#dfcdae" d="M128 29L71 68l-3-5 56-39z"/><path fill="#735f46" d="M169 151l62-4 2 16-63 4z"/><path fill="#f1e0c1" d="M282-13l3 15-68 13-3-15z"/><path fill="#d2bfa1" d="M-8 44v-5h80v5z"/><path fill="#7f6d52" d="M-31 110h86v13h-86z"/><path fill="#7e6d50" d="M230 129l242 17v2l-242-17z"/><path fill="#65563d" d="M359 161l-5 6-15-14 5-6z"/><path fill="#f4e3c2" d="M235 36l-2-5 36-18 3 4z"/><path fill="#9b8566" d="M142 114l-83-1 1-22 82 1z"/><path fill="#ebdabb" d="M299 14l3 8-18 6-3-7z"/><path fill="#ecd9b7" d="M291 52v1l-46 9v-1z"/><path fill="#e8d7b8" d="M189 33l34-26 2 2-34 26z"/><path fill="#9b8266" d="M2 115l-18-31L0 74l18 31z"/><path fill="#3a2b19" d="M103 204l-11-4 3-9 12 5z"/><path fill="#e4d1af" d="M270 57l-50 14v-1l49-15z"/><path fill="#806d51" d="M245 156l-39-11 3-12 40 11z"/><path fill="#d5c3a0" d="M-68 60L69 72v1L-68 61z"/><path fill="#756348" d="M106 130l-116 8v-10l115-8z"/><path fill="#7d6d51" d="M323 140l-1 10-59-7 1-11z"/><path fill="#746044" d="M190 146l-34-7 3-12 33 7z"/><path fill="#3a2c1a" d="M173 186l2 25-9 1-2-25z"/><path fill="#8b7759" d="M126 126l-45-8 1-5 45 8z"/><path fill="#eddabb" d="M73 55H-46v-8H73z"/><path fill="#ebddbf" d="M153 8l-1-5 24-6 1 5z"/><path fill="#e3d0b1" d="M155 60l-35 6-2-9 36-6z"/><path fill="#54462c" d="M406 160l3 4-16 15-3-4z"/><path fill="#574530" d="M-15 198l13-30 78 33-13 30z"/><path fill="#d2c1a2" d="M258 30l44 19-2 4-44-19z"/><path fill="#e8d5b3" d="M68 73l25-12v2L69 75z"/><path fill="#a89071" d="M284 59l3 14-82 19-3-14z"/><path fill="#a18b6d" d="M392 125L276 88l6-18 116 38z"/><path fill="#eeddbe" d="M325 32h17v6h-17z"/><path fill="#3e3120" d="M373 206l-103 10-3-32 102-11z"/><path fill="#e3d2b4" d="M348-10L245 16l-1-5 103-25z"/><path fill="#d8c7a8" d="M169 28l-1 3L80 2l1-3z"/><path fill="#3f3019" d="M295 166l3 16h-1l-3-15z"/><path fill="#6c5a42" d="M383 164l-2 15h-3l2-16z"/><path fill="#675338" d="M296 162l30-5 1 11-29 4z"/><path fill="#cfbfa3" d="M172 20l-6-9 32-20 6 9z"/><path fill="#423422" d="M407 197l-7 14-71-38 8-13z"/><path fill="#7d6f52" d="M426 136l-54-3v-5l55 3z"/><path fill="#eddcbc" d="M134 28l-51-4v-7l51 5z"/><path fill="#fbe6cb" d="M384 54l-4-5 31-23 4 5z"/><path fill="#e9d6b7" d="M89 33l1-1 32 11v2z"/><path fill="#cebca0" d="M347-1l2 8-38 14-2-7z"/><path fill="#e3ceac" d="M231 68l15-5v2l-15 4z"/><path fill="#715b43" d="M173 160H-9v-12h182z"/><path fill="#5d452c" d="M143 94v-1l3-1v1z"/><path fill="#e6d3b5" d="M205 47l3 12-27 8-3-12z"/><path fill="#766246" d="M85 121l90 16-2 12-91-16z"/><path fill="#ccba9a" d="M184 52l-51-7v-2l51 7z"/><path fill="#3a2b1a" d="M188 208l-8-14 5-3 8 13z"/><path fill="#e6d2b3" d="M176 16l14-3 5 19-14 4z"/><path fill="#8c755b" d="M187 132l87-12v3l-87 12z"/><path fill="#a38b6b" d="M33 78l73-3 1 17-74 3z"/><path fill="#eedbba" d="M215 54l34-21 7 11-35 21z"/><path fill="#dccaaf" d="M385 8v6l-46 4-1-6z"/><path fill="#e2d1b2" d="M45 33l-24 4-2-12 24-4z"/><path fill="#e1ccaf" d="M392 25l6 2-4 12-6-2z"/><path fill="#c7b290" d="M41 77v-1l23-5v2z"/><path fill="#d7c7a7" d="M107 31l1-4 28 12-2 4z"/><path fill="#d4c0a3" d="M89 51L46 33l1-1 43 18z"/><path fill="#b39c7a" d="M333 54l1-6 47 6-1 6z"/><path fill="#5c4a30" d="M87 168l160 17-1 2-160-17z"/><path fill="#d7c5a4" d="M102 63v4H87v-5z"/><path fill="#a08a6b" d="M145 90l2-13 128 16-1 12z"/><path fill="#decdb0" d="M108 11l43-10 2 9-43 10z"/><path fill="#a98f71" d="M214 88l-10 5-10-20 10-5z"/><path fill="#e2d0b1" d="M222 41l-32-12 2-6 32 12z"/><path fill="#e2cfb0" d="M177 57l67 5v4l-67-4z"/><path fill="#3b2d1b" d="M261 196h-1l3-19 1 1z"/><path fill="#b09876" d="M331 61l35-13 5 12-36 12z"/><path fill="#ab926f" d="M161 67l3-1 5 9-3 2z"/><path fill="#f0ddbe" d="M105 54v-2l67 2v2z"/><path fill="#dbc9a9" d="M3 75l-9-2 4-18 10 2z"/><path fill="#d0be9f" d="M314 42l-42 3-1-13 43-3z"/><path fill="#dfceae" d="M351 47l-1 1-21-9 1-2z"/><path fill="#52412c" d="M51 202l-1-3 88-12 1 3z"/><path fill="#3b2f1a" d="M204 201l18-17 4 4-19 17z"/><path fill="#473920" d="M382 160l8 28-2 1-7-29z"/><path fill="#41341c" d="M309 166l-4 14-3-1 4-13z"/><path fill="#725c43" d="M361 163l37-11 2 6-37 11z"/><path fill="#9b8365" d="M107 102l-1 11-121-10 1-11z"/><path fill="#988266" d="M115 109l46 9-2 9-46-9z"/><path fill="#69553c" d="M250 182l-8-14 41-23 8 14z"/><path fill="#806c51" d="M110 125v-1l28 2v2z"/><path fill="#cdbc98" d="M124 62l19 1v1h-19z"/><path fill="#4b3d26" d="M366 185l-34-27 3-4 34 28z"/><path fill="#bca686" d="M368 54l47 5v1l-47-5z"/><path fill="#a58d6d" d="M50 76v6H20v-7z"/><path fill="#725d44" d="M141 144l41-2v25l-40 2z"/><path fill="#43321f" d="M359 160l7 38h-2l-6-38z"/><path fill="#aa9273" d="M331 56v17h-50V56z"/><path fill="#d1c0a1" d="M336 19l33-8 6 25-33 7z"/><path fill="#eddbba" d="M278 59l-37-6 1-8 37 7z"/><path fill="#deccad" d="M178 44l-4 3-38-52 4-3z"/><path fill="#ead7b9" d="M86 61l3-9 24 8-3 8z"/><path fill="#453523" d="M375 167l16 64h-2l-16-63z"/><path fill="#3f3320" d="M381 177h18v45h-19z"/><path fill="#d8c7a7" d="M199 19l-31 3v-2l31-3z"/><path fill="#d5c2a6" d="M399-1l9 8-30 34-9-9z"/><path fill="#4e3f2a" d="M215 207l-32-17 1-2 31 18z"/><path fill="#cfbc9a" d="M263 60v1l-9 2v-1z"/><path fill="#57462f" d="M251 181v-1l24-7 1 2z"/><path fill="#9a8266" d="M188 131l-54-21 5-14 54 20z"/><path fill="#6e5b42" d="M374 153h2l-5 24-1-1z"/><path fill="#e1d0b0" d="M86 11L52-6l2-3L87 8z"/><path fill="#645236" d="M123 164v1l-138-2v-2z"/><path fill="#f3e2c3" d="M58 6l-26 4-1-1 27-5z"/><path fill="#9e8768" d="M372 112l-6 19-74-23 6-19z"/><path fill="#d5c3a6" d="M134 12l-35-2V8l35 3z"/><path fill="#806d51" d="M-12 125l104-8v4l-104 7z"/><path fill="#3e2f1b" d="M121 188l2 10h-1l-3-10z"/><path fill="#e2d1b3" d="M139 29l-1 1-51-44 1-2z"/><path fill="#6f5d44" d="M357 168l-7-18h1l7 17z"/><path fill="#d4c3a4" d="M189 44l-1-2 40-25 1 2z"/><path fill="#998265" d="M246 101l72 17-3 10-71-16z"/><path fill="#f1dec1" d="M163 60l-1-2 33-4v2z"/><path fill="#d0be9a" d="M29 67l1-2 24 7-1 2z"/><path fill="#cdbd9e" d="M136 46l-1 1-19-10v-1z"/><path fill="#d2c1a2" d="M134 51l-8-6 23-28 7 6z"/><path fill="#e7d5b4" d="M39 50l43 15-3 9-43-15z"/><path fill="#efdbb8" d="M180 64l54 3v2l-54-3z"/><path fill="#69573e" d="M310 173l2-19h2l-3 19z"/><path fill="#ecdab8" d="M218 54h53v6h-53z"/><path fill="#68563e" d="M298 154h2v25h-1z"/><path fill="#745f46" d="M396 148l6 2-9 22-6-2z"/><path fill="#5a4a34" d="M231 180l-6 11h-1l5-12z"/><path fill="#e1d0b0" d="M139 33l-1 3-75-20v-3z"/><path fill="#594931" d="M352 161l-4 5-14-10 4-5z"/><path fill="#d2c1a5" d="M189 15l24-29 9 7-24 29z"/><path fill="#a98f6f" d="M221 81l-97-15v-2l98 16z"/><path fill="#6f5d45" d="M319 152l1-4 46 4v5z"/><path fill="#ae9575" d="M418 81l-4 12-105-32 3-12z"/><path fill="#5f4e32" d="M117 169l53 2-1 11-53-2z"/><path fill="#6a573e" d="M292 176h-1v-28h1z"/><path fill="#d1c0a1" d="M306 24l43 5v2l-43-5z"/><path fill="#a68d70" d="M280 77l3-11 79 18-2 11z"/><path fill="#cdbc95" d="M177 67v1l-11 1v-1z"/><path fill="#eeddb9" d="M66 71l23-4v1l-23 4z"/><path fill="#d5c5a4" d="M213 22l1-1 21 18-1 1z"/><path fill="#d4c3a4" d="M110 71l-10-4 1-2 10 5z"/><path fill="#e9d8b9" d="M28 14l-3 25-30-4 4-25z"/><path fill="#584730" d="M144 189l26-12 3 8-26 11z"/><path fill="#7e664c" d="M152 87v1l-2 2-1-2z"/><path fill="#e5d5b6" d="M359 45v2h-22v-1z"/><path fill="#d7c9ab" d="M164 9l31-20 3 4-32 20z"/><path fill="#756247" d="M400 155l-73-7v-5l73 8z"/><path fill="#b39b79" d="M350 61l1-11 54 9-2 11z"/><path fill="#dacaab" d="M296 54l-34-8v-1l34 7z"/><path fill="#efdcbd" d="M46 17l12-3 4 15-12 3z"/><path fill="#826f54" d="M240 132v-3l97 10-1 3z"/><path fill="#eddbbf" d="M398 26l5 8-3 1-5-8z"/><path fill="#d0bf9f" d="M92 9L87-3l10-4 5 12z"/><path fill="#3f301d" d="M76 204l-1-2 42-7v1z"/><path fill="#766247" d="M284 145v1l-57 11v-1z"/><path fill="#d2bfa0" d="M113 45v2l-47-3v-1z"/><path fill="#5f5238" d="M330 179h-2l-3-12 2-1z"/><path fill="#43361f" d="M317 182l-4-15 3-1 4 15z"/><path fill="#8c765d" d="M240 132l-1-3 42-9v3z"/><path fill="#6c573f" d="M297 146l34 16-5 9-34-15z"/><path fill="#5b4933" d="M109 191l-145-2v-22l146 2z"/><path fill="#dac8ab" d="M303 25l-3 1-4-22h3z"/><path fill="#d2c0a1" d="M287 36l33-8 4 19-33 7z"/><path fill="#e2d0b3" d="M330-2v1l-89 14-1-1z"/><path fill="#584833" d="M189 187l1-1 7 26h-1z"/><path fill="#f5e4c4" d="M225 2l7-13 19 11-6 12z"/><path fill="#836f54" d="M213 144l-16-7 4-10 16 7z"/><path fill="#d6c5a1" d="M-23 69v-1l47 2v2z"/><path fill="#d7c5a7" d="M-2 48l59-14v1L-2 49z"/><path fill="#725e44" d="M63 152l19-21 16 16-19 20z"/><path fill="#746146" d="M172 141l6-11 42 21-6 11z"/><path fill="#dfcdb1" d="M376 13l-51-23 1-2 51 24z"/><path fill="#6a563c" d="M215 159l36-2 1 17-36 2z"/><path fill="#e7d4b3" d="M145 10l-4 8-9-4 4-8z"/><path fill="#e7d6b7" d="M213 15l1-8 19 4-2 8z"/><path fill="#44321b" d="M0 195h1l4 8-1 1z"/><path fill="#f3e1bf" d="M231 31l11-19 10 5-11 19z"/><path fill="#d1c1a3" d="M147 7v1L61-5v-2z"/><path fill="#84714f" d="M46 113l38 4v3l-39-4z"/><path fill="#968064" d="M297 129l2-8 24 5-1 8z"/><path fill="#e5d4b5" d="M253 31l-1-2 22-14 1 1z"/><path fill="#dbc7a4" d="M263 59l1 1-26 8v-2z"/><path fill="#5f4d34" d="M206 192l-7 2-7-24 8-3z"/><path fill="#866e4f" d="M140 97l-1-1 4-4 1 1z"/><path fill="#ebd7b5" d="M110 59h6v8h-6z"/><path fill="#705942" d="M34 142l4 15-36 9-4-15z"/><path fill="#d3c0a2" d="M93 48v2L40 38v-2z"/><path fill="#f0dfbe" d="M115 26L45 4l1-3 70 22z"/><path fill="#edd9b6" d="M169 65l-1 2-29-6v-1z"/><path fill="#e1d0b1" d="M30 2l45-5v3L30 5z"/><path fill="#5a4b37" d="M175 196v-9h4l1 9z"/><path fill="#9e8769" d="M40 102V88h97v14z"/><path fill="#d1bfa3" d="M304 12V4l43-2 1 8z"/><path fill="#e1cdaf" d="M61 61l-6 3-5-8 6-3z"/><path fill="#d0be9e" d="M165 43v6l-34 1v-7z"/><path fill="#ddccad" d="M330 21l-8 17-7-4 8-17z"/><path fill="#ebdabb" d="M162 23l1-3 14 6-1 3z"/><path fill="#b89f7a" d="M152 65l-18 1v-2h18z"/><path fill="#e5d5b6" d="M123 52l-6-1 3-11 6 2z"/><path fill="#d2c1a2" d="M201 43l-1-1 19-24 1 1z"/><path fill="#473722" d="M140 186l17 26-1 1-18-26z"/><path fill="#615237" d="M288 177l-5 8-10-8 5-7z"/><path fill="#e7d6b7" d="M98 4l8-2 1 5-8 2z"/><path fill="#5e4c30" d="M127 173l-1 8-101-12 1-8z"/><path fill="#5a4731" d="M76 199l-19-1v-11l19 1z"/><path fill="#e9d7b7" d="M46 29v-1l66-12v2z"/><path fill="#41331f" d="M324 184l-62 7v-5l62-6z"/><path fill="#e4d2b3" d="M131 60l1-6 35 3v7z"/><path fill="#5a4931" d="M252 178v1l-80 10-1-1z"/><path fill="#3b2c19" d="M149 201l7-11 12 8-7 10z"/><path fill="#efddbb" d="M196 50v-1l53 2v2z"/><path fill="#50422a" d="M231 187l14-3v3l-13 3z"/><path fill="#decdad" d="M96 22l44 19v2L96 23z"/><path fill="#a28b6d" d="M202 95V80l116 2v15z"/><path fill="#f4e1c2" d="M123 51l1-2 29 2v1z"/><path fill="#493c22" d="M266 184l1-7 13 4-2 6z"/><path fill="#c3ac8a" d="M180 70v-1h20v1z"/><path fill="#867355" d="M142 129l-1 2-25-12v-1z"/><path fill="#d0be9f" d="M168 46l-38-14v-1l39 13z"/><path fill="#e8d5b3" d="M219 61l5 8-4 3-5-8z"/><path fill="#9b8367" d="M285 112l3-9 63 21-3 9z"/><path fill="#a58e6e" d="M-19 81l62-6v1l-62 7z"/><path fill="#d3c1a5" d="M373-15l32 13-7 19-32-13z"/><path fill="#7f6d50" d="M407 129v8l-53 4v-7z"/><path fill="#927f60" d="M386 127v2l-57 8-1-2z"/><path fill="#cfbc9e" d="M303 28l9-3 8 20-9 4z"/><path fill="#69583c" d="M338 150l1 1-19 26-1-1z"/><path fill="#4a3e2b" d="M259 193l-2-9h1l2 9z"/><path fill="#cab792" d="M34 73l1-5 23 5-1 4z"/><path fill="#f1e0bf" d="M104 24v-2l22 3v1z"/><path fill="#463921" d="M409 168l-13 20-6-5 13-19z"/><path fill="#dbc8aa" d="M95 44l-1 2-65-13v-2z"/><path fill="#746349" d="M346 161h-1l-2-20h2z"/><path fill="#766247" d="M66 136v-9l69 1v9z"/><path fill="#beaa8a" d="M375 53l-1 2-7-4 1-1z"/><path fill="#3e2f1b" d="M104 207l-10-18 1-1 10 18z"/><path fill="#725e44" d="M202 162l-1-1 93-15v1z"/><path fill="#9a8364" d="M51 112v-4l37-6v4z"/><path fill="#e6d5b7" d="M345 13v1l-23 6v-1z"/><path fill="#ebd9ba" d="M106 47v20h-4l-1-20z"/><path fill="#5d4b32" d="M134 181l-1 12h-6l1-13z"/><path fill="#e2d1b1" d="M345 41l-26-3v-3l26 3z"/><path fill="#baa780" d="M16 75v-2l36 1v1z"/><path fill="#9a8267" d="M5 93l16 9-5 10-17-9z"/><path fill="#3d2e1b" d="M253 177h1l1 20h-1z"/><path fill="#d7c7a8" d="M346 48l9-8 1 1-9 8z"/><path fill="#a78f6f" d="M140 67v2L52 81v-1z"/><path fill="#3d311c" d="M219 190l-16 21-4-3 16-21z"/><path fill="#3c2e1c" d="M326 191v16h-97v-16z"/><path fill="#7b674b" d="M226 150l37-3v5l-37 2z"/><path fill="#e5d3af" d="M391 54l-8 1v-1l7-1z"/><path fill="#8c755b" d="M307 138l-30-12 2-6 31 12z"/><path fill="#f6e5c5" d="M371 47v-1l10 5-1 2z"/><path fill="#735f46" d="M62 124l1 9-86 17-1-10z"/><path fill="#a88f70" d="M198 76l-11-5 1-2 11 5z"/><path fill="#d9c8a9" d="M101 30v2l-9 2-1-2z"/><path fill="#6c573e" d="M190 168v1l-72-7v-2z"/><path fill="#d3c3a3" d="M339 36h30v8h-30z"/><path fill="#5f523b" d="M393 171l-2 4-1-1 2-4z"/><path fill="#cfbea0" d="M342 20h42v6h-42z"/><path fill="#e0cdad" d="M52 68v2l-77-5v-2z"/><path fill="#7e6e52" d="M220 129l65 1v14l-66-1z"/><path fill="#e8d6b9" d="M292-5l3 1-4 32h-3z"/><path fill="#d9c8ab" d="M272 27l-2-1 19-23 2 1z"/><path fill="#413220" d="M328 182l2-15 25 3-2 15z"/><path fill="#f4e3c3" d="M27 7l-1 5-23-2V6z"/><path fill="#9b8667" d="M338 132v-5l104-7v5z"/><path fill="#e6d3b4" d="M220 21l12 1v5l-13-1z"/><path fill="#d1c0a1" d="M217 45l-8 2-2-9 7-2z"/><path fill="#9a8365" d="M100 100l12 4-5 16-12-4z"/><path fill="#e7d5b6" d="M181 27l-2-3 10-11 2 2z"/><path fill="#dfd1b4" d="M136 10l-9-12 7-6 10 12z"/><path fill="#d2c1a2" d="M261 37l3-12 27 8-3 12z"/><path fill="#e8d5b6" d="M114 38v1l-39-3v-2z"/><path fill="#3d2e1c" d="M171 185l5 29h-1l-6-29z"/><path fill="#dec2a1" d="M273 58h3v1l-3 1z"/><path fill="#e0cfb0" d="M71 16l-34-4v-2l34 5z"/><path fill="#e2ceaf" d="M106 48L72 64l-1-1 34-16z"/><path fill="#988366" d="M152 129l-8 1v-8h7z"/><path fill="#5d4e36" d="M294 165h2l-4 15h-2z"/><path fill="#dfcbb1" d="M398 35l-18 6-1-3 18-6z"/><path fill="#aa9273" d="M277 71l1-14 34 1v14z"/><path fill="#bea685" d="M213 72v-2h10v2z"/><path fill="#877054" d="M29 107v2l-53 10-1-1z"/><path fill="#dbc8a8" d="M192 29l1 9-30 3-1-9z"/><path fill="#6b553b" d="M237 164l-66 8-1-3 67-8z"/><path fill="#6b553c" d="M303 164l-29 10-3-9 29-10z"/><path fill="#e4d3b4" d="M268 45l-3 5-16-9 3-5z"/><path fill="#e4cfaf" d="M64 69l1-1 7 5-1 2z"/><path fill="#4c3f2a" d="M247 193l-3-6h1l3 5z"/><path fill="#40311f" d="M379 201l-8-28h2l7 27z"/><path fill="#d3c2a5" d="M195 21l-5-11 17-8 5 12z"/><path fill="#e6d3b3" d="M26 67L8 65l2-18 18 2z"/><path fill="#e1d0b1" d="M34 22l5 2-6 18-4-2z"/><path fill="#f9e7ca" d="M409 28l5 8-24 19-6-8z"/><path fill="#d8c6a9" d="M326 28l-1-2 38-24 1 1z"/><path fill="#a08a6b" d="M151 97l2-14 69 9-1 14z"/><path fill="#aa9173" d="M323 61l92 35-3 7-91-35z"/><path fill="#eddcbd" d="M329 38l-3-7 6-2 3 7z"/><path fill="#e0d0b0" d="M86 8l1-3 38 14-1 3z"/><path fill="#e6d4b5" d="M-18 35v-9l47 3-1 9z"/><path fill="#c8b495" d="M72 74v1H52v-2z"/><path fill="#7c6a4e" d="M381 140l-27 7-3-11 28-6z"/><path fill="#463a24" d="M225 181l3 17-5 1-2-17z"/><path fill="#45331c" d="M53 196l3 6h-1l-3-5z"/><path fill="#4d3b24" d="M113 184l1 1-3 7h-1z"/><path fill="#f1debf" d="M10 50l-14 6-1-1 14-7z"/><path fill="#725f47" d="M378 173v-11l2 1v11z"/><path fill="#dbc5a4" d="M234 70l-8-2 1-2 8 2z"/><path fill="#a78e70" d="M221 80l-1 8-74-13 1-8z"/><path fill="#473726" d="M296 179l-4 16h-2l4-17z"/><path fill="#e0cfaf" d="M198 51l-3-2 6-8 2 2z"/><path fill="#d0bfa2" d="M169 21l38-35 1 1-38 35z"/><path fill="#776448" d="M387 137l30 13-6 15-30-14z"/><path fill="#79694e" d="M286 140l52 6v3l-53-6z"/><path fill="#e7d6b6" d="M134 28v2l-60-7v-1z"/><path fill="#ccb994" d="M48 70L0 77v-1l48-8z"/><path fill="#e9d7b7" d="M40 20l19 1-1 11-18-1z"/><path fill="#d1bfa0" d="M82 45v2l-47-6v-2z"/><path fill="#b19978" d="M311 49l74 9v4l-75-9z"/><path fill="#e2d2b2" d="M258 16l-7-8 5-4 7 8z"/><path fill="#3d301c" d="M291 213l-4-39h2l3 38z"/><path fill="#d3c2a3" d="M131 50l-1 1-9-15 1-1z"/><path fill="#e6d5b4" d="M237 45l31 4v2l-31-5z"/><path fill="#e7d5b2" d="M207 64v-2l37 4v1z"/><path fill="#5a4932" d="M93 161l-8 73h-1l7-73z"/><path fill="#d2c0a1" d="M107 40l8 1-2 8-7-1z"/><path fill="#887659" d="M223 135l-54-7v-2l54 7z"/><path fill="#a18a6b" d="M365 127v-10l69 2v9z"/><path fill="#baa080" d="M45 76v-1h18v2z"/><path fill="#a88f71" d="M370 85l63 24-5 11-62-24z"/><path fill="#62523a" d="M386 170l14-3v3l-14 3z"/><path fill="#dccba9" d="M91 65l6-5 4 5-6 5z"/><path fill="#4d3f2c" d="M119 204l-3-12 1-1 3 12z"/><path fill="#dbc8a9" d="M90 45l-1 1-34-11 1-2z"/><path fill="#5d4c34" d="M159 176l7 1-2 14-6-1z"/><path fill="#b5a281" d="M268 65l-1-2 4-4 1 1z"/><path fill="#efdebc" d="M25 50v-2l30-2v1z"/><path fill="#957f63" d="M242 118v-2l64 6v1z"/><path fill="#ddccab" d="M95 19l25 18-1 1-25-17z"/><path fill="#463927" d="M331 180l-12 2-1-4 12-3z"/><path fill="#4a3a24" d="M164 185l1-1 4 5-1 1z"/><path fill="#decca9" d="M262 58v2l-16 5v-1z"/><path fill="#614d37" d="M237 187h-4v-10h5z"/><path fill="#af9678" d="M10 77v-2h6v1z"/><path fill="#69563c" d="M306 169h-1v-5h1z"/><path fill="#d5c4a5" d="M164 28l-2 4-27-11 1-4z"/><path fill="#e9d6b6" d="M139 14l23-6v2l-22 5z"/><path fill="#3d301e" d="M313 192l-6 1-6-17 6-2z"/><path fill="#cfbc9d" d="M182 52l-6-1v-1h6z"/><path fill="#d4c4a5" d="M215 17l16 17-3 3-17-17z"/><path fill="#dbcaab" d="M103 35l-1-1 38-5v2z"/><path fill="#e2d0ad" d="M194 58l1 1-28 10-1-1z"/><path fill="#625239" d="M258 181h-1l2-14h2z"/><path fill="#655438" d="M243 173l6 2-3 7-6-2z"/><path fill="#5a4933" d="M146 199l-3-1 6-18 3 2z"/><path fill="#4c3e25" d="M331 167l-1-1 22-3v1z"/><path fill="#41321d" d="M143 191l1 1-10 15h-2z"/><path fill="#dfd1b4" d="M221-11l3 2-9 21-3-1z"/><path fill="#e1cfae" d="M165 19l-59-4v-1l59 4z"/><path fill="#43351e" d="M240 182l3 9-3 1-3-9z"/><path fill="#534631" d="M366 172l-1 5-2-1 2-4z"/><path fill="#50402a" d="M193 188l10 9-1 1-10-9z"/><path fill="#6e5942" d="M356 149l1-1 14 23-2 1z"/><path fill="#50422e" d="M377 184l-1-1 4-6 2 1z"/><path fill="#6a583e" d="M352 158l5 1-2 9h-4z"/><path fill="#3e301c" d="M128 192l2 2-6 9-3-2z"/><path fill="#4d3c28" d="M179 190l1-1 5 4-1 1z"/><path fill="#9e8769" d="M133 96l25-17 1 2-25 16z"/><path fill="#dac7ac" d="M307 1l1 1-29 11-1-1z"/><path fill="#7d6d51" d="M405 145l-31-14 1-3 31 14z"/><path fill="#eedabb" d="M116 61l-20 1-1-9 20-1z"/><path fill="#988065" d="M169 120l20 1v8l-20-1z"/><path fill="#8d735a" d="M251 128l-29-3v-2l30 4z"/><path fill="#3d2e21" d="M407 194v7l-34 4-1-8z"/><path fill="#594129" d="M148 94l-2-1 2-4 1 1z"/><path fill="#817052" d="M48 108l2 5-15 6-2-6z"/><path fill="#eedbbc" d="M229 59l-25-2v-8l25 2z"/><path fill="#eddab9" d="M38 62l26 4v1l-26-3z"/><path fill="#ecd8bd" d="M417 23l-35 23-1-2 36-23z"/><path fill="#443420" d="M187 188l7 22-1 1-7-23z"/><path fill="#9e8668" d="M284 99l1 11-105 2v-11z"/><path fill="#665338" d="M139 163l19 10-1 3-20-10z"/><path fill="#7f6d52" d="M46 125l-88-3 1-11 87 3z"/><path fill="#e9d6b7" d="M73 48v-1l22 13-1 1z"/><path fill="#392d14" d="M84 196h1l2 6h-2z"/><path fill="#d9c6aa" d="M379 26l14-2 1 11-14 2z"/><path fill="#3b2b19" d="M183 199l-4 2-1-2 4-1z"/><path fill="#3d2e1d" d="M148 206l-1-11 28-2 1 11z"/><path fill="#d9c9a8" d="M309 14l1 1-17 16-1-1z"/><path fill="#dbcbad" d="M227 47l-24-1v-1l24 1z"/><path fill="#f2e0be" d="M246 53v-1l23 6-1 1z"/><path fill="#e4d1b6" d="M275 8l-1-8 15-3 1 8z"/><path fill="#b49d7c" d="M419 68l-1 1-50-16v-2z"/><path fill="#6d5a40" d="M21 157l-5 10-1-1 5-9z"/><path fill="#a99071" d="M169 68l77 11v2l-78-11z"/><path fill="#e3cfb0" d="M87 51v-2l34-2v2z"/><path fill="#978363" d="M363 129v1l-40 2v-1z"/><path fill="#978163" d="M33 106l89 10-1 2-88-11z"/><path fill="#d2c09e" d="M98 69l-10-4v-2l10 5z"/><path fill="#a48e6f" d="M74 79v-2l54-7v1z"/><path fill="#bdac8d" d="M330 47v1l-18 1v-2z"/><path fill="#d1bd9f" d="M191 48v1l-33 2v-2z"/><path fill="#958265" d="M142 126l-17-4 3-12 17 4z"/><path fill="#53432f" d="M123 188v22h-1v-22z"/><path fill="#d2c0a2" d="M46 34h2l4 12h-2z"/><path fill="#604e33" d="M52 161v1l-65 10v-1z"/><path fill="#a18a6c" d="M297 89l3-6 82 33-2 6z"/><path fill="#6c573e" d="M274 167l-2-16 21-3 3 15z"/><path fill="#3c2c19" d="M230 213l-2-27h3l2 26z"/><path fill="#4e402c" d="M131 204l1-9h1v9z"/><path fill="#d6c4a7" d="M127 10l-28 2v-2l28-1z"/><path fill="#3a2b18" d="M101 199l28-1v2l-28 1z"/><path fill="#ccb58a" d="M292 54l-1 1-3-1 1-1z"/><path fill="#5f4c33" d="M214 172l1 6-68 8-1-6z"/><path fill="#d3c1a6" d="M378 43l-15-9 11-19 15 8z"/><path fill="#d0bd9e" d="M149 29l10 16-10 6-9-16z"/><path fill="#f0dfbd" d="M107 20l-1 2-18-12 1-2z"/><path fill="#877359" d="M102 121v-2l23 5v2z"/><path fill="#f1debf" d="M161 53l12 3-1 5-12-3z"/><path fill="#5c492e" d="M314 168l-1-1 6-2 1 1z"/><path fill="#7e6b4e" d="M387 133v2l-100 8v-1z"/><path fill="#d9c6a5" d="M8 70l-9-13 1-1 9 13z"/><path fill="#594832" d="M93 198l-6-2 9-27 6 2z"/><path fill="#5a4b33" d="M211 183l1 1-9 9-1-1z"/><path fill="#dbc9ae" d="M363 18l-3-5 12-7 4 5z"/><path fill="#e6d2b7" d="M367 47l-1-1 19-4v1z"/><path fill="#e6d4b8" d="M342 15l-5-2 1-4 5 1z"/><path fill="#d5caae" d="M212 14l-4-1 6-26 5 2z"/><path fill="#9e8769" d="M-38 78l79 13-2 8-78-14z"/><path fill="#b3a27f" d="M237 71l-13-1v-2l13 1z"/><path fill="#f0dfc1" d="M33 9l-5 9-13-7 6-9z"/><path fill="#e6d3ab" d="M152 65v-1h32v2z"/><path fill="#e9d8b8" d="M203 22v1l-36 4v-2z"/><path fill="#988065" d="M195 122l59-4v2l-59 4z"/><path fill="#ead7b6" d="M230 31l20 10-1 1-19-9z"/><path fill="#5f472d" d="M363 164l-2 1-3-5 1-1z"/><path fill="#66543d" d="M249 182l2-9h1l-1 9z"/><path fill="#ddcbad" d="M72 24l1-1 25 8v1z"/><path fill="#735e45" d="M178 161L60 149l1-8 118 12z"/><path fill="#e0d0b0" d="M271 18l1 1-16 12-1-1z"/><path fill="#b69e80" d="M99 70v-1h10v1z"/><path fill="#dcc8a9" d="M90 37l9 1-3 14-9-1z"/><path fill="#3c2e1d" d="M321 202l5-15 27 9-6 15z"/><path fill="#5e4c31" d="M83 173l2-11 34 7-2 11z"/><path fill="#655037" d="M381 165l-2 5-5-2 2-5z"/><path fill="#9a8166" d="M-5 106H6v3H-5z"/><path fill="#ead8b9" d="M80 27v2l-62 2v-2z"/><path fill="#725f45" d="M381 155l-64-4v-4l64 3z"/><path fill="#d6c3a4" d="M176 28l11 9-6 6-10-10z"/><path fill="#ddcaad" d="M-4 42v-2l34-2v1z"/><path fill="#e1c49e" d="M369 49v2l-8-1v-2z"/><path fill="#d2bb99" d="M248 66l-13 2v-1l13-2z"/><path fill="#e6d5b5" d="M99 10v2L71 7V6z"/><path fill="#d1bea2" d="M184 7l3-7 15 7-3 7z"/><path fill="#e8d7b9" d="M19-15l18 31-1 1-18-31z"/><path fill="#dfcdaf" d="M187 23l-3-8 6-2 3 7z"/><path fill="#eedbb9" d="M364 46l6 2-1 2-6-3z"/><path fill="#a1896b" d="M-65 79l213 7-1 5-212-7z"/><path fill="#f1dfbf" d="M61 21l-27-5 1-1 26 5z"/><path fill="#e6d4b8" d="M113 12l-1-1 1-6 2 1z"/><path fill="#3d301e" d="M255 183l1 1-9 13-1-1z"/><path fill="#e4cdae" d="M377 52l6-1 1 2-6 1z"/><path fill="#e2d0b4" d="M358-1l-1 6-11-2 2-6z"/><path fill="#af9776" d="M317 55l2-7 75 20-2 8z"/><path fill="#d1c0a1" d="M211 26l-1-2 12-8 1 2z"/><path fill="#4b3922" d="M26 196l4 6-1 1-5-6z"/><path fill="#e0cfaf" d="M324 33l2-15h5l-2 16z"/><path fill="#5b4932" d="M182 193l5-10 1 1-4 9z"/><path fill="#d8c7a8" d="M319 20l7 13-3 1-7-12z"/><path fill="#dccaae" d="M274 24v-2l16 6v1z"/><path fill="#e3d0b2" d="M207 22l1 2-16 12-1-2z"/><path fill="#7e6d51" d="M309 148l-2-6 24-7 1 6z"/><path fill="#736246" d="M19 130v-5h45v5z"/><path fill="#4d3c27" d="M266 178l6-3 1 1-6 4z"/><path fill="#756146" d="M92 142l1-13 101 6-1 12z"/><path fill="#a88e71" d="M325 65v11l-67 4V69z"/><path fill="#d4c4a6" d="M161 8V7l14 2v2z"/><path fill="#bfac8b" d="M265 62l-6 1-1-1 7-2z"/><path fill="#3c2d1a" d="M108 204l-13 1-1-11 12-1z"/><path fill="#a38c6e" d="M197 80v5L89 78v-5z"/><path fill="#635136" d="M225 169v1l-76 7-1-2z"/><path fill="#d9c8a9" d="M141 26l-13-5 1-2 13 5z"/><path fill="#705a42" d="M154 166l24-7 1 5-24 6z"/><path fill="#483c22" d="M274 190l-1-5 8-1 1 4z"/><path fill="#eedcbb" d="M234 52l-1-1 25-30 1 1z"/><path fill="#cfbca1" d="M125 0l-4 7-10-6 4-6z"/><path fill="#938061" d="M344 136l-27-3v-2l27 3z"/><path fill="#82704f" d="M58 111l1 4-3 1-1-5z"/><path fill="#d2c0a3" d="M319 28L299 7l2-3 21 22z"/><path fill="#d5c4a4" d="M326 47l21-9 1 1-22 9z"/><path fill="#826f50" d="M103 123l-1 1-37-11v-1z"/><path fill="#e0cfae" d="M160 24l-11-6 5-9 11 5z"/><path fill="#d5c3a7" d="M319 16l69-19 1 1-70 19z"/><path fill="#cebe9e" d="M322 11l1 1-18 19-1-1z"/><path fill="#a68d6f" d="M209 86l-1-10 66-1v10z"/><path fill="#d8c19e" d="M88 73l-3-2 1-1 2 1z"/><path fill="#d4c39c" d="M178 67l14 1v1l-14-1z"/><path fill="#e3d0b2" d="M226 59l-41 4v-2l41-3z"/><path fill="#e6d5b4" d="M127 7V5l13 2v2z"/><path fill="#4c3921" d="M143 193l-4-8 1-1 4 8z"/><path fill="#5e4b30" d="M344 155l-7 3-1-2 7-3z"/><path fill="#665639" d="M28 159h92v2H28z"/><path fill="#6e593f" d="M319 168l-2-4 15-11 3 4z"/><path fill="#776349" d="M83 121l49 10-1 3-49-10z"/><path fill="#4a3a25" d="M158 187l2 2-10 10-2-2z"/><path fill="#eeddbd" d="M40-11l1-2 30 26-1 1z"/><path fill="#483a1d" d="M337 157l1 1-5 11h-1z"/><path fill="#50452a" d="M314 166l2-1 6 11-2 1z"/><path fill="#ead9ba" d="M246 19l-6-1 3-11 6 2z"/><path fill="#4d422d" d="M358 179h-2v-6h2z"/><path fill="#8a775b" d="M259 130l-4-13 6-2 4 13z"/><path fill="#d2c1a1" d="M101 2l-1 3-21-5 1-3z"/><path fill="#665639" d="M278 172l1 6-6 1-1-6z"/><path fill="#e0cdae" d="M88 61l-14 2-1-7 14-1z"/><path fill="#6f5941" d="M13 159v-7h63v7z"/><path fill="#6f5c43" d="M381 170h-2l-2-10 2-1z"/><path fill="#66553b" d="M265 155l1 26h-2v-26z"/><path fill="#e2d1b2" d="M155 18l11-9 5 6-11 9z"/><path fill="#cdbd97" d="M250 62l6 1-1 2-6-2z"/><path fill="#594c38" d="M107 195l-1-3 1-1 1 3z"/><path fill="#ddccac" d="M273 49l-6 3-4-9 6-2z"/><path fill="#c9af8b" d="M362 49v1h-7v-2z"/><path fill="#f3e2c3" d="M224-2l38-2v8l-38 2z"/><path fill="#e4d1b2" d="M131 63l-2-5 16-7 2 5z"/><path fill="#4e4028" d="M388 180l22-22 1 1-22 22z"/><path fill="#a0896a" d="M262 94l2-9 66 13-2 9z"/><path fill="#d7bd9b" d="M284 57l-4-1 1-1h3z"/><path fill="#9b8566" d="M307 113v3l-138-5 1-3z"/><path fill="#e8d4b3" d="M225 69l-1-2 12-3 1 2z"/><path fill="#d7c6a7" d="M293 53l-16-9v-2l17 10z"/><path fill="#584932" d="M228 189l-1 1-3-9h1z"/><path fill="#c1ae8d" d="M73 72h6v2l-6-1z"/><path fill="#ddc9aa" d="M187 34h1l-4 12-2-1z"/><path fill="#9e866a" d="M311 115l1-5 41 8-1 4z"/><path fill="#e9d7b7" d="M38 57l-9 2-3-14 9-2z"/><path fill="#9e856b" d="M176 98l16-2 2 20-16 2z"/><path fill="#a68f6f" d="M232 87l5-18 8 2-5 18z"/><path fill="#4e402a" d="M236 187l3 1-1 5-3-1z"/><path fill="#d0bd9d" d="M79 46l12-1 1 1-13 2z"/><path fill="#d1c0a1" d="M147 44l-14 6-1-2 15-6z"/><path fill="#ddccad" d="M120 26l14 1v11l-14-1z"/><path fill="#f5e4c4" d="M409 49l-38 2v-1l38-3z"/><path fill="#dcc9ab" d="M27 64l14 4-1 1-13-4z"/><path fill="#c8b492" d="M56 77l-14-4 1-2 13 5z"/><path fill="#877659" d="M289 128l-101 4-1-2 102-4z"/><path fill="#b6a07d" d="M137 66h-7v-2h7z"/><path fill="#564532" d="M205 195l-1 2-7-3v-1z"/><path fill="#cfbe98" d="M41 68v3H29v-3z"/><path fill="#dccbac" d="M344 30l2 12-7 1-2-12z"/><path fill="#ddcdac" d="M102 64l5 3-1 2-6-3z"/><path fill="#d3c2a3" d="M148 45l-1 2-25-9 1-2z"/><path fill="#e0cdae" d="M159 52v-2h12v2z"/><path fill="#d4c3a4" d="M328 45l-1-1 44-3v1z"/><path fill="#958061" d="M402 126l-5 4-1-2 5-3z"/><path fill="#433521" d="M380 191v-12h39v13z"/><path fill="#f0ddbd" d="M76 51l-19 1v-1l19-2z"/><path fill="#e9d6b7" d="M85 59l88 4v2l-88-5z"/><path fill="#d2c0a0" d="M190 38l5 8-3 2-4-8z"/><path fill="#ddcaa2" d="M174 66v1h-11v-2z"/><path fill="#a38c6e" d="M178 91v-6l148-6 1 7z"/><path fill="#746047" d="M171 154v-12l38-1v13z"/><path fill="#897657" d="M347 134v1l-23 2v-2z"/><path fill="#cdbb99" d="M394 57l-6-1v-2l7 1z"/><path fill="#e5d2b3" d="M167 54v-2l42 2v2z"/><path fill="#ac9575" d="M286 60v1l-39 9-1-2z"/><path fill="#58462f" d="M48 191l-1 9-37-5 1-9z"/><path fill="#e4d1b2" d="M27 63l-14-6 2-6 14 6z"/><path fill="#d8c8a9" d="M138 2V1l10 8v1z"/><path fill="#ae9676" d="M291 57l-20 8-1-1 20-9z"/><path fill="#f0dcbd" d="M158 54v1l-39-4v-1z"/><path fill="#e5d4b4" d="M67 7V5l21 3-1 1z"/><path fill="#e4d1b2" d="M-11 45l27 4-1 2-26-5z"/><path fill="#4d3d26" d="M230 181l3 7-2 1-3-7z"/><path fill="#413121" d="M353 174l39 28-9 13-39-28z"/><path fill="#e0ceaf" d="M140 10v1l-25 9v-1z"/><path fill="#d5c6aa" d="M214 14l-10 5-4-6 10-6z"/><path fill="#e6d3b4" d="M233 25l-17 1v-2l17-1z"/><path fill="#f3e1c1" d="M269 17l-36 6v-1l35-6z"/><path fill="#e0cdad" d="M195 61l11-3v1l-10 4z"/><path fill="#e2cfb1" d="M19 38v-6h8v6z"/><path fill="#d0bf9f" d="M356 26l-4 9-16-7 4-8z"/><path fill="#cbb494" d="M192 71v-2l8-1v2z"/><path fill="#d3c3a4" d="M226 46l-16-4v-2l17 4z"/><path fill="#d1bb9a" d="M90 71l-9 2-1-2 10-1z"/><path fill="#d4be9e" d="M68 74l-4-2 1-1 4 2z"/><path fill="#d4c1a5" d="M368 6l11-27 42 17-11 27z"/><path fill="#6c5940" d="M270 151l1-2 54 5v1z"/><path fill="#ecd8b7" d="M141 63v-2l14 3-1 1z"/><path fill="#5c4a31" d="M157 180l-3 12-3-1 3-12z"/><path fill="#6b563d" d="M248 160l-32 15-3-5 32-16z"/><path fill="#f4e2c4" d="M381 51l7-11 1 2-7 10z"/><path fill="#574a2c" d="M275 185l-2-1 1-4h1z"/><path fill="#e6d4b6" d="M185 14l1 1-13 14-1-1z"/><path fill="#725d44" d="M-7 145l7-16 27 12-6 15z"/><path fill="#7e694f" d="M0 128l7-3 1 2-8 2z"/><path fill="#68573c" d="M128 162h2l-3 9h-2z"/><path fill="#624f35" d="M237 180l-35-10 1-1 34 10z"/><path fill="#dec8a7" d="M254 60v-1l13 1-1 2z"/><path fill="#756146" d="M235 158l-37-13v-1l37 12z"/><path fill="#e1d0b0" d="M55 32v2l-24-2v-2z"/><path fill="#6c5941" d="M394 166l-4 7-4-3 4-7z"/><path fill="#7d6c50" d="M374 145l-1-1 14-15 1 1z"/><path fill="#4b3a23" d="M341 162l-1-6 2-1 1 7z"/><path fill="#7f6d4f" d="M271 139v2l-40 12-1-1z"/><path fill="#d8c5a7" d="M65 43l-1 1-21-10 1-1z"/><path fill="#42361f" d="M212 187l2-2 4 5-3 2z"/><path fill="#e7dab3" d="M188 68l-9-2v-1l9 2z"/><path fill="#665638" d="M83 163l-10 5-1-2 10-4z"/><path fill="#deccaf" d="M399 23l-4 9-2-1 4-8z"/><path fill="#68573a" d="M327 165l3 3-5 6-4-3z"/><path fill="#dfd1b4" d="M171-5h1l-4 12h-1z"/><path fill="#bead8f" d="M349 48l-1 1-17-1v-2z"/><path fill="#836e4e" d="M352 134l4-2v1l-4 2z"/><path fill="#998065" d="M228 117l1 4-43 8-1-5z"/><path fill="#ead9bc" d="M294 24l-1 1-13-3v-2z"/><path fill="#4b3b25" d="M174 190l-1 1-5-8 1-1z"/><path fill="#eadaba" d="M102 30l-9-4 1-1 8 3z"/><path fill="#817050" d="M79 120l-1-1 1-6 1 1z"/><path fill="#4d3f2f" d="M178 196v2l-5-2 1-1z"/><path fill="#725f44" d="M48 144l2-13 69 11-2 14z"/><path fill="#66543a" d="M62 162l-53 1v-2l53-1z"/><path fill="#816d52" d="M263 134h61v5h-61z"/><path fill="#725c42" d="M387 165h-5l1-10 5 1z"/><path fill="#826f53" d="M24 117l-1-1 1-9h2z"/><path fill="#d1bd9e" d="M144 42l42 7v1l-42-6z"/><path fill="#3e3419" d="M308 170v5h-1l-1-5z"/><path fill="#816c52" d="M200 132h23v6h-23z"/><path fill="#eedbb8" d="M241 30l-9-7 1-1 9 6z"/><path fill="#76644a" d="M305 149l-31-4v-2l31 4z"/><path fill="#7b6a4e" d="M394 136l1-1 6 12-1 1z"/><path fill="#c7b191" d="M1 74v-1l19 1v2z"/><path fill="#ad9476" d="M384 84l-35-13 3-9 35 13z"/><path fill="#ddcdae" d="M341 43l14 1v2l-14-1z"/><path fill="#f0dcbd" d="M252 48l-16-5 1-2 16 6z"/><path fill="#f1dfc0" d="M158 3l2-6 6 2-2 6z"/><path fill="#e2d1b3" d="M279 17l-1 1-9-8 1-1z"/><path fill="#827256" d="M231 131l46-3v2l-46 3z"/><path fill="#e5d1b2" d="M225 16l5 1-1 9h-4z"/><path fill="#d0bda2" d="M344-6l2 17h-1l-2-17z"/><path fill="#ead6b8" d="M59 45l1 1-24 11-1-1z"/><path fill="#dfcfad" d="M225 47l-1-2 15-9 1 2z"/><path fill="#e8d5b5" d="M69 73l-2-1 6-24h2z"/><path fill="#493a26" d="M347 158v8h-1l-1-8z"/><path fill="#d4c3a1" d="M106 66h8v1h-8z"/><path fill="#e7d6b6" d="M94 10l17-8v2l-17 8z"/><path fill="#4c3a23" d="M14 198l1 1-2 2-1-1z"/><path fill="#a38c6d" d="M428 122l-1 6-56-14 1-6z"/><path fill="#554027" d="M386 170l-5-1v-3l5 1z"/><path fill="#5b492f" d="M23 166l1-6h2l-2 7z"/><path fill="#3c2e1a" d="M144 206l-5-12 3-1 5 11z"/><path fill="#a28b6c" d="M150 81v3H-48v-3z"/><path fill="#e6d3b3" d="M154 58l1-1 15 8-1 2z"/><path fill="#3d301d" d="M284 180l10 15-1 2-11-16z"/><path fill="#3b2d1c" d="M244 196l1 2-47 5v-2z"/><path fill="#e4d0b1" d="M154 48v2h-25v-1z"/><path fill="#65553f" d="M375 167l-3 9-2-1 3-9z"/><path fill="#eddbb8" d="M55 67h-9v-1h9z"/><path fill="#e1ceaf" d="M79 50v-2h19v2z"/><path fill="#eddbbd" d="M213 48v-1l10 3v2z"/><path fill="#e7d6b7" d="M29 25l-1 8-18-3 1-8z"/><path fill="#988266" d="M352 132l-69-14 1-2 68 15z"/><path fill="#aa9173" d="M213 72l-27 3v-2l26-2z"/><path fill="#534226" d="M332 163l-1-1 8-5 1 1z"/><path fill="#453520" d="M105 190v3h-2v-3z"/><path fill="#3b2d1b" d="M263 185h5l2 28h-5z"/><path fill="#d0bfa0" d="M318 40l14 3-2 6-13-3z"/><path fill="#a7906c" d="M121 70v-5l28 1v5z"/><path fill="#5c4a32" d="M117 191l-1 1-10-22 2-1z"/><path fill="#61543f" d="M372 170v1l-11 2v-2z"/><path fill="#5f4a30" d="M382 172h-1l1-11h2z"/><path fill="#f3e2c0" d="M75 10l17 2v2l-17-3z"/><path fill="#d8c7a6" d="M70 1l-3 1-1-2h3z"/><path fill="#453622" d="M142 191l-6 17-1-1 5-16z"/><path fill="#5b5238" d="M310 171h1v3h-2z"/><path fill="#dbc9ad" d="M300 2l2 1-7 15h-1z"/><path fill="#46371d" d="M249 180l-1 5-2-1 1-4z"/><path fill="#ead9b9" d="M24-1l-1 4H6v-5z"/><path fill="#b6a27d" d="M43 73v2H21v-2z"/><path fill="#eddbc0" d="M293 0l-6 3V1l5-2z"/><path fill="#e9d8b5" d="M257 53l-22-7v-1l22 7z"/><path fill="#d8c5a6" d="M174 31l-7 14-5-3 6-14z"/><path fill="#554830" d="M215 180h1l2 7-1 1z"/><path fill="#9c8667" d="M170 100l-1 8-93-3v-8z"/><path fill="#988064" d="M145 122l33-3v8l-32 2z"/><path fill="#705a42" d="M0 144h6l-1 20h-7z"/><path fill="#d2bfa1" d="M80 46l-24-4v-2l24 4z"/><path fill="#eedbb8" d="M386 54l20-2v2l-20 1z"/><path fill="#dbcbab" d="M305 22l-4 2-1-1 4-2z"/><path fill="#cebe9e" d="M310 36l-6-3 6-14 6 2z"/><path fill="#e5d2b4" d="M83 42l-11-4 3-7 10 4z"/><path fill="#e8d5b6" d="M107 50l-8 2-1-4 8-2z"/><path fill="#e2d1b0" d="M38 29l-8-5 2-4 8 4z"/><path fill="#69563b" d="M310 161l3 1-3 7-3-1z"/><path fill="#5a4833" d="M-15 185v-13l50-2v13z"/><path fill="#564227" d="M358 166v-12h2l-1 12z"/><path fill="#615437" d="M320 172l-3-3 3-2 2 3z"/><path fill="#f0dfbd" d="M225 57l1-2 16 6v1z"/><path fill="#e3d5b6" d="M225 16l-17 3v-2l17-3z"/><path fill="#e7d4b5" d="M77 54l-37 4v-1l37-4z"/><path fill="#f0d9ba" d="M215 65l-22 4v-2l22-3z"/><path fill="#bda385" d="M-1 77l-1-1 8-2v2z"/><path fill="#ecd7b9" d="M280 54l3-1 1 1-3 1z"/><path fill="#7f6d4e" d="M265 147l-47 3v-5l47-3z"/><path fill="#e6d4b2" d="M252 58l1-2 12 3v2z"/><path fill="#b49c7c" d="M348 48l44 11-1 1-44-11z"/><path fill="#9f8f6e" d="M161 80v-4l20 2v3z"/><path fill="#836d50" d="M43 107l4 5-1 1-4-5z"/><path fill="#5e5038" d="M301 169l-2 5-2-1 3-5z"/><path fill="#5e4c33" d="M199 172l13 3-4 17-12-3z"/><path fill="#d5c3a7" d="M395 35l-23-3v-3l23 3z"/><path fill="#514530" d="M350 161l-10 3-1-1 10-4z"/><path fill="#e4d0b1" d="M112 37l-25 4v-1l24-4z"/><path fill="#5b4931" d="M126 185l-3 7h-1l3-8z"/><path fill="#9a8263" d="M155 84l1 1-3 4-1-1z"/><path fill="#ebd8ba" d="M58 17v-2l33 11-1 1z"/><path fill="#d4c2a7" d="M361 13h-2l-2-25h1z"/><path fill="#d1c1a2" d="M143 25l14-1 1 9-14 1z"/><path fill="#9b8368" d="M224 110l1 10-41 3-1-10z"/><path fill="#ae9576" d="M197 69h2l-1 5h-1z"/><path fill="#d8c19e" d="M251 65l-1 1-2-1 1-2z"/><path fill="#423321" d="M337 173l14-6 5 12-15 5z"/><path fill="#3e3120" d="M342 178v2l-32 6v-2z"/><path fill="#746047" d="M333 145l5 8-7 4-5-9z"/><path fill="#ecdbb6" d="M244 63l-20-11 2-4 21 11z"/><path fill="#68563b" d="M283 179l-22-20 4-5 23 20z"/><path fill="#e2d4b9" d="M137 1v-2l15 2v2z"/><path fill="#413620" d="M363 177h-5v-6h4z"/><path fill="#e0cdaf" d="M86 21H75v-3h11z"/><path fill="#958165" d="M52 107l-27 2v-2l26-2z"/><path fill="#cbbb9c" d="M141 34l-4 3-1-1 3-3z"/><path fill="#d9c6a8" d="M8 45l-6 1-2-8 6-1z"/><path fill="#decbb0" d="M107 16l-1-4 14-2 1 5z"/><path fill="#e6d4b8" d="M286 20l-2-8 9-2 2 8z"/><path fill="#e6d3ba" d="M116 6h10v2h-10z"/><path fill="#9f896b" d="M271 91v4l-90 3-1-4z"/><path fill="#b5a383" d="M338 47v1l-3 1v-2z"/><path fill="#483d27" d="M309 178l4-6 2 1-5 6z"/><path fill="#3f3320" d="M311 188l3-16 5 1-3 16z"/><path fill="#e0cfb0" d="M217 29l5 6-3 3-5-6z"/><path fill="#e1cdae" d="M248 34h8v5h-8z"/><path fill="#d0bfa3" d="M172 17l-1-1 30-25 1 1z"/><path fill="#715c43" d="M372 170l-7-4 6-12 7 3z"/><path fill="#5e4d2f" d="M72 167l-12-5 1-2 11 5z"/><path fill="#d9c8a9" d="M141 24l-2-6 12-3 2 6z"/><path fill="#534224" d="M273 172l-2 5-1-1 1-4z"/><path fill="#d0bfa0" d="M199 34l14 7-1 1-14-6z"/><path fill="#eed7b6" d="M222 70l-17-3v-1l17 3z"/><path fill="#dfceab" d="M84 68l-1-1 6-5 1 1z"/><path fill="#715b43" d="M10 144l8 19-1 1-9-19z"/><path fill="#e9d7b4" d="M85 72l-1-1 7-4 1 1z"/><path fill="#e5d2b3" d="M8 57l-11-2v-1l11 2z"/><path fill="#8f7a5d" d="M107 118l19 2v1l-19-2z"/><path fill="#dac8ac" d="M286 7l-9 20-2-1 9-20z"/><path fill="#4d3f2b" d="M292 183l-2-1 4-7 2 1z"/><path fill="#614a31" d="M396 170l-1-2 8-5 1 1z"/><path fill="#514427" d="M275 180v-1l5 2-1 1z"/><path fill="#6e5a41" d="M361 154l-3 5-4-2 2-5z"/><path fill="#ead6b7" d="M179 20l9 8-3 4-9-9z"/><path fill="#594a33" d="M377 178l3-5h1l-3 6z"/><path fill="#edd9b8" d="M260 56l1-3 18 2v3z"/><path fill="#4f3f22" d="M241 183l-1 1-1-6 1-1z"/><path fill="#867357" d="M119 125l13-3 1 1-14 4z"/><path fill="#e9d8b7" d="M72 14v-2l11 4-1 2z"/><path fill="#746146" d="M335 143l67 17-1 1-67-16z"/><path fill="#e5d5b5" d="M193 21l16-1v1l-16 1z"/><path fill="#d9c7aa" d="M330 21l35-11v2l-34 11z"/><path fill="#504431" d="M320 179h-1v-3h1z"/><path fill="#c2a77e" d="M162 65l1 2-8 1v-2z"/><path fill="#c3af88" d="M294 54v-2l7-1 1 2z"/><path fill="#766349" d="M113 124v3l-64 1v-3z"/><path fill="#866f54" d="M9 107l2 9-3 1-2-10z"/><path fill="#e0ceae" d="M-5 67l-1-1 16-6 1 1z"/><path fill="#41331e" d="M132 192l3-2 3 8-3 1z"/><path fill="#e0ceb0" d="M48 10v2l-13 4v-1z"/><path fill="#ebd9ba" d="M93 36L65 26v-1l28 10z"/><path fill="#9d846b" d="M270 113l-12-2 1-10 13 3z"/><path fill="#9b8465" d="M171 111H84v-8h87z"/><path fill="#5a4a31" d="M251 175l3-2 3 4-3 2z"/><path fill="#776348" d="M189 133v2l-36-4v-2z"/><path fill="#a48f6e" d="M91 79l-12-5 1-1 11 5z"/><path fill="#8b755c" d="M283 126l-67 4v-2l67-3z"/><path fill="#68553a" d="M196 166l1 5-10 2-1-4z"/><path fill="#c9b793" d="M184 67v2h-11v-1z"/><path fill="#806c52" d="M228 143l-6 7-11-10 7-7z"/><path fill="#9b8262" d="M49 111l-1-8h2v8z"/><path fill="#69573e" d="M334 153l3 2-7 9-3-2z"/><path fill="#423423" d="M257 205v-14h3v14z"/><path fill="#e5d4b0" d="M182 64l-1 5-17-4 1-4z"/><path fill="#f6e5c5" d="M403 53l-1 3-7-4 2-3z"/><path fill="#7f6d51" d="M-14 129l-1-4 81-8v3z"/><path fill="#d5c09f" d="M232 67v2h-3v-2z"/><path fill="#f1e0c1" d="M116 22l14 3v1l-14-2z"/><path fill="#b4a17d" d="M244 68l-8 2v-2l8-1z"/><path fill="#423423" d="M394 190l-1 6-32-7 1-6z"/><path fill="#e8d7b7" d="M21 20l-1 1-11-8 1-1z"/><path fill="#715b43" d="M176 163l-1 2-102-11v-2z"/><path fill="#dfcfb0" d="M172 26l-9 6-2-3 9-6z"/><path fill="#ddcbaf" d="M359-10l7 21h-2l-6-20z"/><path fill="#9f886a" d="M380 126l-88-27 1-5 89 27z"/><path fill="#4c3f29" d="M167 192l1-5 1 1-1 4z"/><path fill="#ebdabb" d="M257 4l1 1-14 5V9z"/><path fill="#efdcbc" d="M2 48h11l-1 5H3z"/><path fill="#9b8267" d="M28 106l-1-6 25-1 1 6z"/><path fill="#d4c5a5" d="M230 40l-1 1-11-14 1-1z"/><path fill="#6d553e" d="M300 166l-1-2 18-9 1 1z"/><path fill="#594b33" d="M390 176l-4-2v-1l5 1z"/><path fill="#decaab" d="M171 35l5-1 1 11-5 1z"/><path fill="#cdc2a3" d="M179 18h-5l-1-9 4-1z"/><path fill="#68563b" d="M60 162l-1-1 11-3v1z"/><path fill="#c5b089" d="M29 72h12v1l-12 1z"/><path fill="#64543c" d="M295 168l-2 4-2-1 2-4z"/><path fill="#d2c0a4" d="M382 22l32-12 2 4-32 12z"/><path fill="#decaab" d="M190 23l-5-6 2-1 4 6z"/><path fill="#9c8569" d="M144 99l-1-3 15-3 1 3z"/><path fill="#c9b597" d="M109 68v1h-7v-2z"/><path fill="#998465" d="M337 132l3-9 12 3-3 9z"/><path fill="#806f53" d="M218 134l22-1v10h-22z"/><path fill="#76654a" d="M360 148l-26-6 1-1 26 6z"/><path fill="#ccbc9d" d="M138 46l-9-1v-2l9 2z"/><path fill="#5c4b33" d="M147 195h-1l9-20 1 1z"/><path fill="#a68d6f" d="M157 74v2l-62-5v-1z"/><path fill="#decdae" d="M119 49l-9-21 1-1 9 22z"/><path fill="#dbc9a9" d="M218 17l1-1 8 3v1z"/><path fill="#e2cfb1" d="M187 34v-8l3 1v7z"/><path fill="#d3c3a5" d="M231-19l-37 40-2-1 38-40z"/><path fill="#e1cdb1" d="M60 45l6 1v1l-6-1z"/><path fill="#998466" d="M310 117l-3 6-28-13 3-6z"/><path fill="#e6d2b4" d="M64 23v-2l14 1v2z"/><path fill="#d4c4a4" d="M208 30l5-8 5 3-4 8z"/><path fill="#3e321c" d="M224 185l-3 29h-3l3-30z"/><path fill="#816e4f" d="M50 124v-5l42-4v5z"/><path fill="#ddcdae" d="M261 43l27 10-1 2-26-10z"/><path fill="#a99072" d="M317 72l2-7 34 11-2 8z"/><path fill="#e1d2b4" d="M216 11l-5-4 3-4 5 4z"/><path fill="#574a38" d="M257 185l-1-1 1-4h2z"/><path fill="#715b42" d="M225 158v2l-36 5v-2z"/><path fill="#e7d6b6" d="M8 22l49 9-1 2L7 23z"/><path fill="#483923" d="M369 180l-4-8 2-1 4 9z"/><path fill="#7e6e52" d="M372 134v-1l55 3-1 2z"/><path fill="#e0cbaa" d="M363 47v1l-9 1v-2z"/><path fill="#a58e6f" d="M43 82l8-7 1 1-8 7z"/><path fill="#9c8468" d="M305 115l1-6 44 12-2 6z"/><path fill="#978163" d="M91 114v-2l35 7v2z"/><path fill="#5b4b37" d="M179 197h-2l-1-8h2z"/><path fill="#584630" d="M73 212l-4 3-22-28 4-3z"/><path fill="#bca586" d="M61 75v1l-8 1v-2z"/><path fill="#5c4e3a" d="M363 174l-1-2 1-1 2 3z"/><path fill="#d7c4a6" d="M314 36l2-4 6 3-2 4z"/><path fill="#d2c0a4" d="M441 35l-1 2-82-42 1-2z"/><path fill="#f1debf" d="M227 55v1l-25 1v-2z"/><path fill="#c4b18f" d="M92 72h-3l-1-1 3-1z"/><path fill="#d3c1a6" d="M356 12l27 7v2l-27-7z"/><path fill="#887056" d="M147 88v-1l5 1-1 2z"/><path fill="#604e33" d="M110 169l-1 3-17-8 1-3z"/><path fill="#988262" d="M65 113l-1 2-18-11 1-1z"/><path fill="#ddc9ac" d="M54 45l5-11 1 1-5 11z"/><path fill="#604b31" d="M11 169l-5-5 3-3 6 5z"/><path fill="#ae976f" d="M292 55l11-2v7l-10 1z"/><path fill="#d8c4a5" d="M172 47l13-9 1 1-13 9z"/><path fill="#4e3923" d="M64 198l3-2 2 5-3 1z"/><path fill="#53412c" d="M94 188l1-2 4 3-1 1z"/><path fill="#7a664b" d="M213 146l-15-8v-1l15 8z"/><path fill="#433420" d="M197 196l2 5-4 2-2-6z"/><path fill="#eeddbc" d="M230 15l39 1v2l-39-1z"/><path fill="#d0bfa0" d="M117 39l1-1 10 2v2z"/><path fill="#3e2e18" d="M156 190h1l1 6h-1z"/><path fill="#e3d1b3" d="M327 23l-5-5 6-5 4 5z"/><path fill="#4d3d26" d="M206 206l-1 1-13-18 1-1z"/><path fill="#5b4830" d="M192 194l-4-2 3-6 4 2z"/><path fill="#c3b092" d="M338 49l-1-1 8-2v2z"/><path fill="#a18a6b" d="M124 79v9H43v-9z"/><path fill="#dbcaaa" d="M200 45h14v2h-14z"/><path fill="#d2c0a1" d="M38 42v-2l32 4v2z"/><path fill="#d0bea2" d="M334 4l2 6-21 7-2-6z"/><path fill="#8f7458" d="M15 109v2H6v-1z"/><path fill="#d5c4a5" d="M292 51l-2 2-11-8 2-3z"/><path fill="#554830" d="M210 189l5-8h1l-4 9z"/><path fill="#735d46" d="M169 145v5l-111 3v-4z"/><path fill="#dac8ab" d="M282 32l-1-2 14-4v2z"/><path fill="#615234" d="M275 177l1 1-2 3-1-1z"/><path fill="#d4c1a1" d="M89 46v2l-11 1v-1z"/><path fill="#3c2e1b" d="M295 222l1-52h1l-1 52z"/><path fill="#dccaae" d="M357 2l-5 10h-1l4-10z"/><path fill="#ebd7b8" d="M218 53l-31 6v-1l31-6z"/><path fill="#5e4b36" d="M231 182h1l1 3h-1z"/></svg>