<svg xmlns="http://www.w3.org/2000/svg" viewBox="0 0 400 200"><filter id="a"><feGaussianBlur stdDeviation="55"/></filter><path fill="#9e8a6e" d="M0 0h400v200H0z"/><g filter="url(#a)"><path fill="#ffffeb" d="M-3-54l398-21 7 131L4 77z"/><path fill="#271602" d="M5 118l397 27-9 127-397-28z"/><path fill="#251a0c" d="M76 197l397-35 3 39-397 35z"/><path fill="#8c7557" d="M389 157H-9V98h398z"/><path fill="#f4dab3" d="M57 68l2-138 198 4-2 137z"/><path fill="#b19471" d="M396 125l-119-16 10-70 119 17z"/><path fill="#fde4be" d="M-29 71l-3-75 91-3 2 75z"/><path fill="#9d8463" d="M156 65l1 65-42 1-2-66z"/><path fill="#756449" d="M465 166l-264-9 1-31 264 9z"/><path fill="#f1dcb9" d="M234 65l-15-80 73-14 16 80z"/></g></svg>