<svg xmlns="http://www.w3.org/2000/svg" viewBox="0 0 400 200"><path fill="#9e8a6e" d="M0 0h400v200H0z"/><g transform="translate(1 1) scale(1.5625)"><ellipse fill="#ffffea" cx="56" cy="12" rx="249" ry="33"/><ellipse fill="#271602" cx="55" cy="112" rx="255" ry="32"/><ellipse fill="#887154" cx="142" cy="84" rx="254" ry="18"/><ellipse fill="#291e0f" cx="253" cy="127" rx="200" ry="16"/><ellipse fill="#f4dbb5" rx="198" ry="48"/><ellipse fill="#ae916e" cx="222" cy="54" rx="69" ry="24"/><ellipse fill="#a08765" cx="85" cy="59" rx="43" ry="19"/><ellipse fill="#fffddc" cx="255" cy="29" rx="19" ry="7"/><ellipse fill="#6f5c42" cx="24" cy="87" rx="65" ry="17"/><ellipse fill="#fce4bd" cx="138" cy="37" rx="25" ry="8"/><ellipse fill="#ac9272" cx="213" cy="44" rx="41" ry="15"/><ellipse fill="#5b492f" cx="107" cy="116" rx="77" ry="7"/><ellipse fill="#7f6e51" cx="163" cy="87" rx="114" ry="7"/><ellipse fill="#d2c1a2" cx="111" cy="17" rx="35" ry="16"/><ellipse fill="#372a19" cx="218" cy="124" rx="11" ry="27"/><ellipse fill="#f4e2c0" cx="158" rx="14" ry="40"/><ellipse fill="#513f2b" cx="18" cy="118" rx="59" ry="12"/><ellipse fill="#f2e2c1" cx="12" cy="9" rx="54" ry="10"/><ellipse fill="#9f8769" cx="90" cy="61" rx="50" ry="20"/><ellipse fill="#dcc4a3" cx="216" cy="14" rx="48" ry="15"/><ellipse fill="#3e301f" cx="213" cy="127" rx="63" ry="20"/><ellipse fill="#a1896b" cx="176" cy="57" rx="38" ry="19"/><ellipse fill="#6f5940" cx="139" cy="102" rx="74" ry="7"/><ellipse fill="#736146" cx="253" cy="94" rx="41" ry="12"/><ellipse fill="#f4dfbb" cx="156" cy="34" rx="26" ry="5"/></g></svg>