<svg xmlns="http://www.w3.org/2000/svg" viewBox="0 0 400 200"><path fill="#9e8a6e" d="M0 0h400v200H0z"/><path fill="#ffffe9" d="M-24 90l448-56L13-24z"/><path fill="#251401" d="M424 188L-13 96 6 224z"/><path fill="#fff3d2" d="M402-24L170-5l232 64z"/><path fill="#392b17" d="M54 199l370 25-3-105z"/><path fill="#887153" d="M385 143L-1 63l-14 103z"/><path fill="#efd7b3" d="M-23 1l247 76L424-1z"/><path fill="#736045" d="M196 191L31 124l393 10z"/><path fill="#a28967" d="M20 127l-44-50 194-12z"/><path fill="#f5ddb9" d="M10-24l155 84-189 17z"/><path fill="#2f2415" d="M182 198l216 26 26-62z"/><path fill="#ccb697" d="M251 35l151 52-21-111z"/><path fill="#f0debc" d="M174 70l86-89 19 79z"/><path fill="#a28a6a" d="M140 62L-24 93l295 33z"/><path fill="#ffffe4" d="M359 46l50-12-8 20z"/><path fill="#a78c6a" d="M357 46l67 95-300-54z"/><path fill="#3c2e1d" d="M338 152l-37 72 123-11z"/><path fill="#d2c0a1" d="M65 49l170-4-29-52z"/><path fill="#58452e" d="M215 177L-9 209l2-60z"/><path fill="#af9474" d="M424 113L256 62l168-6z"/><path fill="#f1debb" d="M241 68l18-28-96 28z"/><path fill="#8e795d" d="M291 98l-72 28 189 15z"/><path fill="#705b41" d="M141 162l143 17 22-41z"/><path fill="#eedebe" d="M-15 29l155-3L-6-24z"/><path fill="#d6c6ab" d="M424 20l-76 29-97-73z"/><path fill="#d2c2a5" d="M366-24L255 26l32 34z"/></svg>