<svg xmlns="http://www.w3.org/2000/svg" viewBox="0 0 100 50"><path fill="#9d8a6e" d="M0 0h100v50H0z"/><path fill="#ffffef" d="M-14 20l130-10-99-25z"/><path fill="#251401" d="M13 66l103-22-131-20z"/><path fill="#f6dcb5" d="M-15 1l131-3-59 21z"/><path fill="#413220" d="M116 28l-11 38L-1 54z"/><path fill="#826b4f" d="M-15 26l129 6-67 16z"/><path fill="#d4be9e" d="M113-15L63 9l44 12z"/><path fill="#302716" d="M25 48l91-5-58 23z"/><path fill="#f1d9b5" d="M60 17l-75-28 8 28z"/><path fill="#b09371" d="M55 19l32-9 29 19z"/><path fill="#9e8464" d="M37 15l-52 13 62 3z"/><path fill="#ffd" d="M111 16l4-14-22 10z"/><path fill="#52422b" d="M6 40l63 4-83 22z"/><path fill="#d1c0a3" d="M16 12l42-1-5-12z"/><path fill="#705c44" d="M67 31L30 42h76z"/><path fill="#7a664b" d="M-5 42l-10-16 66 7z"/><path fill="#f8e5c4" d="M54 17l12-3-1-29z"/><path fill="#a68c6c" d="M-6 29l37-11H1z"/><path fill="#d9caad" d="M116 5l-31 7-14-23z"/><path fill="#9e8666" d="M100 31L53 18 42 32z"/><path fill="#3c2f1f" d="M85 39l15 10-22 17z"/><path fill="#837253" d="M62 38l14-7H36z"/><path fill="#ead8b8" d="M-15-15v30l56 1z"/><path fill="#a78d6c" d="M32 16l7 10 30-6z"/><path fill="#aa9273" d="M116 24L87 12l-37 7z"/><path fill="#d4c2a4" d="M103-15L68 12l27-2z"/><path fill="#cdba9a" d="M36 7l13 4-17 1z"/><path fill="#e2cdad" d="M16 19L28 8l-38 2z"/><path fill="#ffeacb" d="M95 12l20 1 1-16z"/><path fill="#edddc1" d="M58 5L35-15 79 6z"/><path fill="#f1dfc1" d="M25 3l-40 5v-20z"/><path fill="#3c2f1e" d="M97 66l6-21-82 5z"/><path fill="#625037" d="M12 39l21 8 25-5z"/><path fill="#e0cfb1" d="M6-6l19-9 46 30z"/><path fill="#998365" d="M36 21l-1 11 40-3z"/><path fill="#d6c3a4" d="M-1 11h20L9 7z"/><path fill="#f2ddbc" d="M68 14l-17-3-1 6z"/><path fill="#685440" d="M71 44l4-8-20 7z"/><path fill="#715b43" d="M-11 39l55 1-27-8z"/><path fill="#867559" d="M4 31l-19-8 37 5z"/><path fill="#e9d9b9" d="M81 8l2-4 5 7z"/><path fill="#a68e6f" d="M56 26l-32-9h61z"/><path fill="#a0896b" d="M72 18l12 15 21-2z"/><path fill="#eedbbc" d="M16 17L4 13l25-1z"/><path fill="#806b4f" d="M81 34l35-3v10z"/><path fill="#b19777" d="M93 13l23 4-31 3z"/><path fill="#cbbea3" d="M85-15l-44 4 5 15z"/><path fill="#cfbb9d" d="M82 1l-4 11-8-2z"/><path fill="#d5c5a5" d="M24 13l10-4-18 1z"/><path fill="#d7c3a5" d="M44 13l14-3-16-1z"/><path fill="#443624" d="M76 44l40-1v12z"/><path fill="#d0c09f" d="M87 4l-1 8 15-7z"/><path fill="#735f47" d="M112 32l-21 5 2 6z"/><path fill="#ecdabb" d="M34 6l-49 4 9-16z"/><path fill="#624c35" d="M9 45l16-4-30-1z"/><path fill="#a68f6f" d="M7 18l11 6 16-6z"/><path fill="#6f5e47" d="M85 37l-3-1-1 8z"/><path fill="#eedcbb" d="M30 16l7-2-14-1z"/><path fill="#826f52" d="M65 37l7-7-25 3z"/><path fill="#766147" d="M37 41l5-9 17 5z"/><path fill="#d7c3a5" d="M66 6l5-2-7 7z"/><path fill="#cfbe9c" d="M67-15L30 1l-45-7z"/><path fill="#a99273" d="M62 18l24 1-5-7z"/><path fill="#eddcbd" d="M42 7l5-3 4 3z"/><path fill="#efe0be" d="M49-15l15 31 3-31z"/><path fill="#9b8266" d="M23 26l-32-8-5 9z"/><path fill="#dbcab0" d="M89-1l13 5H86z"/><path fill="#edd8b8" d="M60 17l3-8-14 7z"/><path fill="#d0c1a1" d="M97 11L84 6l8-3z"/><path fill="#d8be97" d="M11 18H-5l-5-6z"/><path fill="#d3c3a8" d="M42-15H27l33 25z"/><path fill="#ecd9bb" d="M17 11H-3l6 5z"/><path fill="#837054" d="M116 31v9l-26-7z"/><path fill="#dfcfaf" d="M16 3l16 5H22z"/><path fill="#5d4d39" d="M48 47l6-6-3 8z"/><path fill="#594a2f" d="M26 41l20 5-25 2z"/><path fill="#9a8465" d="M38 23l-22 4 28 3z"/><path fill="#e9dbbe" d="M30-15h15L41 5z"/><path fill="#53402b" d="M-13 43l34 7-17 6z"/><path fill="#a48b6c" d="M37 16h-5l-4 9z"/><path fill="#7c674a" d="M27 30l-11 3-5-4z"/><path fill="#eddfc3" d="M72-15L65-2 50 6z"/><path fill="#816d51" d="M72 33l18 1-14 3z"/><path fill="#d1be9f" d="M78 7L64 8l18 4z"/><path fill="#e3d1b6" d="M76 3L61 4l13-7z"/><path fill="#978366" d="M89 34l-6-8-23 1z"/><path fill="#806b4f" d="M52 33l4 5 15-2z"/><path fill="#a1896a" d="M73 20l-33 2 24 5z"/><path fill="#3c2e1e" d="M25 48h20L11 66z"/><path fill="#edd9b7" d="M62 15h6l-3-9z"/><path fill="#42331f" d="M44 58l-2-12 6 6z"/><path fill="#e4cfae" d="M115-12l1 11-24 13z"/><path fill="#68553d" d="M80 37l14 4-4-4z"/><path fill="#413321" d="M86 39l29 21-40 5z"/><path fill="#ffeacb" d="M97 13l19-17v17z"/><path fill="#d1bfa4" d="M78-15L76 8l23-23z"/><path fill="#d1c2a6" d="M43 4h10L47-6z"/><path fill="#3b311c" d="M77 44l35 22-57-15z"/><path fill="#554632" d="M94 42v3l8-3z"/><path fill="#e6cdad" d="M92 11l-5 1 1-2z"/><path fill="#6a553e" d="M85 39l-25 5 13-8z"/></svg>