<svg xmlns="http://www.w3.org/2000/svg" viewBox="0 0 400 200"><path fill="#9e8a6e" d="M0 0h400v200H0z"/><path fill="#ffffe8" d="M399 62L0 76-3-26l398-14z"/><path fill="#271703" d="M5 120l398 21-7 134-398-21z"/><path fill="#271c0d" d="M417 199L47 232l-3-33 370-32z"/><path fill="#846e52" d="M-1 111l398 7-1 47-398-7z"/><path fill="#ae8f6c" d="M279 39l132 18-7 53-132-19z"/><path fill="#f6dcb7" d="M270 70l-349-6 2-76 348 6z"/><path fill="#fff4d5" d="M398 58l-16-5 18-56 17 5z"/><path fill="#a78d6c" d="M203 73l157-28 7 40-157 28z"/><path fill="#9f8461" d="M163 64v52h-55V64z"/><path fill="#52402a" d="M205 228l-393-55 6-40 393 55z"/><path fill="#ebd7b6" d="M231 0l65-18 18 67-65 17z"/><path fill="#766347" d="M-45 96l186 30-3 23-187-30z"/><path fill="#d2c1a3" d="M132 52l-2-55 92-3 2 54z"/><path fill="#817154" d="M419 150l-230-4v-17l230 4z"/><path fill="#392c1a" d="M337 154l27 11-15 39-27-11z"/><path fill="#e8d5b5" d="M38 13l42-5 8 65-42 5z"/><path fill="#d7c1a1" d="M262 55l-4-28L408 6l4 28z"/><path fill="#eedbba" d="M236 70l-55 1V47l55-1z"/><path fill="#af9676" d="M448 91L298 78l3-30 149 13z"/><path fill="#f0dfc0" d="M-16-4L99 8l-3 29-115-12z"/></svg>