<svg xmlns="http://www.w3.org/2000/svg" viewBox="0 0 400 200"><path fill="#9e8a6e" d="M0 0h400v200H0z"/><ellipse fill="#ffffe9" rx="1" ry="1" transform="matrix(2.50843 59.84937 -398.08801 16.68483 161 12)"/><ellipse fill="#291804" rx="1" ry="1" transform="matrix(398.16134 14.83195 -1.69795 45.58109 187 173)"/><ellipse fill="#271c0d" rx="1" ry="1" transform="rotate(85 11 230) scale(18.58037 267.24133)"/><ellipse fill="#877153" rx="1" ry="1" transform="matrix(326.71086 9.439 -.7795 26.98059 138 133)"/><ellipse fill="#f5dbb6" rx="1" ry="1" transform="matrix(-215.6078 -3.14804 .58414 -40.00726 97 27)"/><ellipse fill="#b59772" rx="1" ry="1" transform="matrix(1.3948 -24.19027 81.82892 4.71823 349 72)"/><ellipse fill="#9f8564" rx="1" ry="1" transform="rotate(-81 131 -37) scale(32.52013 64.36059)"/><ellipse fill="#fff4d3" rx="1" ry="1" transform="rotate(-88 225 -184) scale(11.06598 30.12023)"/><ellipse fill="#f4dfba" rx="1" ry="1" transform="rotate(166 113 42) scale(39.84172 14.70486)"/><ellipse fill="#705d43" rx="1" ry="1" transform="matrix(.42001 24.06255 -90.96456 1.5878 20 134)"/><ellipse fill="#513f28" rx="1" ry="1" transform="matrix(148.3445 -3.10737 .70214 33.51977 62 207)"/><ellipse fill="#a58c6c" rx="1" ry="1" transform="matrix(-6.49104 -31.45932 67.65832 -13.96003 313 83)"/><ellipse fill="#d3c1a1" rx="1" ry="1" transform="matrix(158.48112 -3.3197 .18775 8.9632 191 40)"/><ellipse fill="#957f62" rx="1" ry="1" transform="matrix(.50154 -26.15356 71.7951 1.3768 252 121)"/><ellipse fill="#f8e7c7" rx="1" ry="1" transform="matrix(1.99553 -38.077 23.4865 1.23088 245 1)"/><ellipse fill="#3b2f1d" rx="1" ry="1" transform="matrix(18.07508 3.18553 -7.20459 40.87971 338 194)"/><ellipse fill="#ead7b6" rx="1" ry="1" transform="matrix(-4.13627 45.87947 -96.1805 -8.67116 24 30)"/><ellipse fill="#746247" rx="1" ry="1" transform="matrix(34.98207 -.18548 .09741 18.37205 385 147)"/><ellipse fill="#a78b67" rx="1" ry="1" transform="rotate(-176 77 33) scale(31.95537 5.73896)"/><ellipse fill="#dcc4a2" rx="1" ry="1" transform="matrix(.49933 -32.27861 53.64687 .82988 349 17)"/><ellipse fill="#d1c0a2" rx="1" ry="1" transform="matrix(47.35364 -28.22844 7.49923 12.58007 173 20)"/><ellipse fill="#645137" rx="1" ry="1" transform="matrix(-111.4883 7.79602 -1.04508 -14.94537 222 172)"/><ellipse fill="#c3ac85" rx="1" ry="1" transform="rotate(-89 50 23) scale(5.5074 42.15705)"/><ellipse fill="#b19878" rx="1" ry="1" transform="matrix(-62.7424 0 0 -12.17042 348 64)"/><ellipse fill="#ffeacc" rx="1" ry="1" transform="matrix(14.97197 -6.29364 3.853 9.16595 396 45)"/></svg>