<svg xmlns="http://www.w3.org/2000/svg" viewBox="0 0 200 100"><path fill="#9e8a6e" d="M0 0h200v100H0z"/><path fill="#ffe" d="M12-15l204 34-231 23z"/><path fill="#241400" d="M216 94L7 116l-20-68z"/><path fill="#f0d7b2" d="M208 40L-8 29l205-44z"/><path fill="#463520" d="M192 116L85 65l131 2z"/><path fill="#937a5c" d="M-15 63l157 25 40-67z"/><path fill="#ead7b6" d="M216 0L-15 1l123 37z"/><path fill="#2d2213" d="M216 79l-26 37L63 99z"/><path fill="#a28764" d="M-14 39l5 26 90-33z"/><path fill="#a68d6d" d="M173 71L79 38l134-12z"/><path fill="#deceb2" d="M68 1l119-16 29 46z"/><path fill="#f6e0bc" d="M61 10L-5-15l9 50z"/><path fill="#756047" d="M-15 78l53-23 90 30z"/><path fill="#c7b598" d="M127 16l81-12-51 24z"/><path fill="#5e4b34" d="M139 72l67 11L88 96z"/><path fill="#d4c1a3" d="M109 0L19 21l95 5z"/><path fill="#ffffdf" d="M216 29l-33-5 21-7z"/><path fill="#4d3c28" d="M-15 112L4 83l95 10z"/><path fill="#fae9c9" d="M122 19L97-15l43 16z"/><path fill="#f0dbb8" d="M14 21l54 10-43 7z"/><path fill="#836f53" d="M164 78l-45-18 96 5z"/><path fill="#ad9273" d="M188 26l28 46-68-48z"/><path fill="#a78f71" d="M60 32l88 6-52 19z"/><path fill="#f5e2c2" d="M89 34l51-5-16-12z"/><path fill="#736045" d="M81 86L3 68l130-6z"/><path fill="#9f886a" d="M-2 57l-13-18 78-3z"/><path fill="#3c2f1d" d="M213 108l-43-31-17 39z"/><path fill="#382b1c" d="M41 97l116-1-71 20z"/><path fill="#d5c4a9" d="M216 6l-39 19-60-40z"/><path fill="#8c7b5b" d="M56 59l-71-16 12 19z"/><path fill="#796449" d="M180 85l14-21 22 19z"/><path fill="#eed9b8" d="M84 33l37 1-14-12z"/><path fill="#cfbc9d" d="M115 22L72 12l-9 12z"/><path fill="#9f8769" d="M68 32l-83 18 146 14z"/><path fill="#eddebe" d="M-15 16l1-28 85 25z"/><path fill="#aa9173" d="M216 64l-52-41-28 7z"/><path fill="#6a543d" d="M179 74l-92 6 50 10z"/><path fill="#766148" d="M-9 85l-5-31 85 9z"/><path fill="#877358" d="M95 64l24 14 35-21z"/><path fill="#d0bda0" d="M132 24l44-31-26 32z"/><path fill="#ead8ba" d="M161 19l2-13 11 14z"/><path fill="#9c8466" d="M157 67l-37-20 87 15z"/><path fill="#d4ba92" d="M11 31l19 5-29 1z"/><path fill="#ecd9b9" d="M3 24l34 12 39-11z"/><path fill="#e6d5b5" d="M5-5l34 25 26-3z"/><path fill="#fce5c5" d="M216 30l-28-5 27-26z"/><path fill="#d6c1a2" d="M43 22l-20-8-25 8z"/><path fill="#ab9374" d="M216 49l-31-25-82 13z"/><path fill="#e7d5b5" d="M67 4l27 14 15-10z"/><path fill="#cdbca0" d="M104-15l1 25-20-5z"/><path fill="#5d4b32" d="M-15 83l53 19 36-22z"/><path fill="#5d4b35" d="M104 84L89 96l15 2z"/><path fill="#725d43" d="M20 72l70-8 9 22z"/><path fill="#e8d4b3" d="M15 22l35 12-52-1z"/><path fill="#e5d4b5" d="M144 14l-19-9 28-11z"/><path fill="#3f321f" d="M187 116l29-29-107 6z"/><path fill="#f1debf" d="M78 32l24-5-35-2z"/><path fill="#d0bfa1" d="M172 9l1 14 26-7z"/><path fill="#705c43" d="M156 75l8 14 2-16z"/><path fill="#9f896b" d="M50 38h-65v20z"/><path fill="#443622" d="M168 80l-7 14 45 2z"/><path fill="#7f6d50" d="M200 73l7-9h-22z"/><path fill="#d4c2a2" d="M127 17l10-7 16 16z"/><path fill="#eedabb" d="M110 35l33-8-24-7z"/><path fill="#d6c5a5" d="M115 6L87 25l28-6z"/><path fill="#f1dab9" d="M176 23l12 2-2-3z"/><path fill="#a68f6f" d="M64 32L41 46l57-10z"/><path fill="#f4e3c5" d="M113-4l18 5-25 7z"/><path fill="#7c6b4f" d="M129 64l-22 11 54-3z"/><path fill="#847154" d="M53 63l17-1-15-4z"/><path fill="#847153" d="M17 53L-4 63l54-3z"/><path fill="#433320" d="M181 80l-6 36 9-18z"/><path fill="#f2e1c1" d="M76 4l2-19 27 10z"/><path fill="#d1be9b" d="M46 2l18-1-31-14z"/><path fill="#735d45" d="M-15 62l92 11-48 7z"/><path fill="#443522" d="M86 93l-77 9 94 14z"/><path fill="#3e301f" d="M206 101l-68 14 8-30z"/><path fill="#7d654a" d="M70 47l8-3-4 3z"/><path fill="#e8d4b5" d="M43 35l-20-9 47 4z"/><path fill="#5e4c33" d="M73 97l-28-9 51-3z"/><path fill="#a48c6e" d="M127 35l88 34-43-33z"/><path fill="#9a8166" d="M111 49l43 11-73 4z"/><path fill="#6e583f" d="M152 84l3-12-41 5z"/><path fill="#f2e1c2" d="M-15 0v16L25 2z"/><path fill="#9a8364" d="M55 58L2 52l53-8z"/><path fill="#e7d6b6" d="M17 1L6 19l47-7z"/><path fill="#e6d4b3" d="M102 23L75 33l34-2z"/><path fill="#3d2f1c" d="M93 116l48-1-5-27z"/><path fill="#cfbda2" d="M152 13V2l22-1z"/><path fill="#cfb794" d="M12 36l-27 4 6-10z"/><path fill="#b1997a" d="M184 24h-26l13 13z"/><path fill="#9f8869" d="M162 47l34 15-27 5z"/><path fill="#433523" d="M198 116l-6-34 12 20z"/><path fill="#cebb9c" d="M66 22l29 4-19-9z"/><path fill="#a38c6d" d="M73 50L49 36l26-3z"/><path fill="#746046" d="M175 68l-7 1 10 11z"/><path fill="#d3bfa0" d="M135 13l9 13 20-4z"/><path fill="#a78f71" d="M111 45l-29-9 62-2z"/><path fill="#c5b694" d="M34 37l-12-1 7-2z"/><path fill="#756247" d="M76 72l6-9 32 12z"/><path fill="#d3c1a6" d="M167 14l24 8 18-37z"/></svg>