<svg xmlns="http://www.w3.org/2000/svg" viewBox="0 0 2000 1000"><path fill="#9d8a6d" d="M0 0h2000v1000H0z"/><path fill="#ffffe9" d="M59-121l-180 578 2242-320z"/><path fill="#251500" d="M-121 473l2242 468L59 1121z"/><path fill="#f0d8b3" d="M-4 262l2125 156-180-539z"/><path fill="#3b2d18" d="M1981 621L152 1020l1969 93z"/><path fill="#887153" d="M1902 715L27 324l-148 508z"/><path fill="#e9d5b4" d="M2121-4H-121l1164 391z"/><path fill="#9f8665" d="M1856 231L113 496l2008 227z"/><path fill="#725f44" d="M215 621l1906 55L965 965z"/><path fill="#2e2414" d="M2121 809L926 988l1148 133z"/><path fill="#9e8765" d="M-121 449l852-140-516 336z"/><path fill="#fffce0" d="M2121 293V137l-422 86z"/><path fill="#f2dbb7" d="M-121 387L51-121l742 422z"/><path fill="#d7c6a7" d="M176 238l1945-15-648-344z"/><path fill="#f2e1bf" d="M1160-121l258 398-391 78z"/><path fill="#a78f6f" d="M2090 262l31 328L895 371z"/><path fill="#3c2f1d" d="M1520 1066l179-304 422 289z"/><path fill="#9f8869" d="M-121 434L988 645 769 316z"/><path fill="#56442d" d="M1027 895L-121 754v305z"/><path fill="#d0c0a1" d="M2098 74l-821 24 86 203z"/><path fill="#f6e5c6" d="M1231 168L981-105l664-16z"/><path fill="#a78f70" d="M1090 395l516-172 515 226z"/><path fill="#f1e0be" d="M51-121l-172 273 789-23z"/><path fill="#d3c2a3" d="M1184 246l-672-8 539-312z"/><path fill="#715c41" d="M1473 707l-703 94 664 93z"/><path fill="#efddb9" d="M1238 340l-422-8 422-148z"/><path fill="#fff0d1" d="M1840 238l281-125v196z"/><path fill="#827155" d="M902 676l969 47-492-164z"/><path fill="#9c8666" d="M238 387l-359 375V371z"/><path fill="#d3c3a5" d="M1910 215l211-305-789 344z"/><path fill="#a78f6e" d="M613 332l633 31-203 125z"/><path fill="#796a4e" d="M488 582l-609-47L59 676z"/><path fill="#3f331e" d="M481 988l711-78-399 211z"/><path fill="#e9d7b6" d="M941 168l141-86-414-31z"/><path fill="#d1bea0" d="M441 223H-20l258-71z"/><path fill="#ccb999" d="M731 129l-86 94 297 39z"/><path fill="#6d5941" d="M809 816L215 613l-336 188z"/><path fill="#685439" d="M1637 887l-336-149 367 32z"/><path fill="#685437" d="M1723 793l140 86 211-55z"/><path fill="#998364" d="M1606 684l445-55-860-141z"/><path fill="#ae9574" d="M2074 285l-547-31 594 367z"/><path fill="#c6b187" d="M184 332l125 31-219 8z"/><path fill="#413420" d="M1676 816l-164 305 609-203z"/><path fill="#cdbb9c" d="M1660-35l-297 266 172 23z"/><path fill="#e8d8b8" d="M1496 137l-8-203-414 117z"/><path fill="#eedcb8" d="M1441 262l-296-32 70 102z"/><path fill="#756247" d="M1379 746l-594 94 47-195z"/><path fill="#e9d6b4" d="M348 371l453-86-594-62z"/><path fill="#5f4d32" d="M1066 816l-601 78 562 87z"/><path fill="#ead7b5" d="M1113 356l156-157-648 102z"/><path fill="#7a6a4d" d="M2074 629l47 187-664-117z"/><path fill="#a28c6c" d="M746 324L621 488l-508-86z"/><path fill="#ecdabb" d="M1598 191l101-7-70-118z"/><path fill="#7e6c4f" d="M684 613l-94 71-266-118z"/><path fill="#54432e" d="M-121 902l703 32-555 125z"/><path fill="#a78f70" d="M1606 238l273 219-828-78z"/><path fill="#d6c5a6" d="M1387 223l86-321-211 289z"/><path fill="#cbbb9c" d="M324-4l360-117-47 141z"/><path fill="#f4e2c3" d="M1731-121h-633l-24 203z"/><path fill="#e6d4b5" d="M590 191L293 27-27 144z"/><path fill="#9b8567" d="M410 410l328 242 453-164z"/><path fill="#d1bfa2" d="M2121 4l-476 125 218 86z"/><path fill="#6c5e45" d="M707 473l55-39-16 39z"/><path fill="#cdbda1" d="M973-121L856 66l187 24z"/><path fill="#806f53" d="M1473 637l-313 140-211-148z"/><path fill="#362b18" d="M871 965l-422 31 453 125z"/><path fill="#f1debe" d="M785 59l219-180H668z"/><path fill="#413320" d="M1801 785l70 336-94-125z"/><path fill="#b09876" d="M1801 238h-250l484 196z"/><path fill="#e9d6b5" d="M4 340l570-31-414-94z"/><path fill="#d3c0a1" d="M301 215l305-16-125 55z"/><path fill="#9c8668" d="M1441 371L973 582l1054 47z"/><path fill="#d5c4a5" d="M1129 66l47 164H910z"/><path fill="#9b8567" d="M-19 551l-39-180 500 148z"/><path fill="#a78f6e" d="M535 410l297-70-203-24z"/><path fill="#806f52" d="M137 535l-219 94 492-24z"/><path fill="#d2c199" d="M51 379l156-55-328 16z"/><path fill="#a58e6f" d="M1035 340l-234 39 500 102z"/><path fill="#3e311f" d="M1598 863l304 156-789-62z"/><path fill="#5f4d32" d="M754 973L262 801l648 47z"/><path fill="#725c43" d="M1863 895l8-149-70 8z"/><path fill="#756145" d="M1957 871l94-156-133 23z"/><path fill="#c9b48c" d="M277 348l-54 31h133z"/><path fill="#735e44" d="M379 637l422 211 133-196z"/><path fill="#d4c5a9" d="M2121-82l-47 234-726-242z"/><path fill="#433622" d="M2121 1090V934l-469-110z"/><path fill="#715d44" d="M-35 848l406-235-430 32z"/><path fill="#a38c6e" d="M2121 652l-305-258-15 227z"/><path fill="#e2d2b3" d="M1676-82L1246 51l164 62z"/><path fill="#dfcfaf" d="M598 145H395L277 51z"/><path fill="#69563b" d="M1402 731l-15 156 328-117z"/><path fill="#6d593f" d="M1691 762l-93 125V762z"/><path fill="#ffebcc" d="M1918 270l31-71 157-47z"/><path fill="#362c19" d="M481 957l-79 156 133-140z"/><path fill="#d0bd9e" d="M1637 231l-110-102-242 47z"/><path fill="#d6c3a3" d="M676 90l406 109-180 63z"/><path fill="#f2e0bd" d="M848 309l-133-63 211 31z"/><path fill="#e6d6b3" d="M1488 254l-273 62 86-93z"/><path fill="#cebea1" d="M1527 113L1754 4l-266 23z"/><path fill="#dfceb0" d="M1590 82l156-31-156 125z"/><path fill="#ead6b7" d="M871 113l78 63 102-70z"/></svg>