<svg xmlns="http://www.w3.org/2000/svg" viewBox="0 0 400 200"><style>@keyframes a{from{opacity: 0}to{opacity: 1}}g&gt;*{opacity: 0;animation: a .5s forwards}</style><path fill="#544b47" d="M0 0h400v200H0z"/><g transform="translate(1 1) scale(1.5625)"><ellipse fill="#d4e3ef" cx="164" cy="59" rx="31" ry="31" style="animation-delay:0s"/><ellipse fill="#b69f8c" cx="113" cy="127" rx="42" ry="42" style="animation-delay:.188s"/><ellipse fill="#070915" cx="75" cy="31" rx="34" ry="34" style="animation-delay:.376s"/><ellipse fill="#050000" cx="22" cy="127" rx="39" ry="39" style="animation-delay:.562s"/><ellipse fill="#30180f" cx="231" cy="91" rx="37" ry="37" style="animation-delay:.746s"/><ellipse fill="#2b2921" cx="217" cy="22" rx="40" ry="40" style="animation-delay:.927s"/><ellipse fill="#e1f6fc" cx="153" cy="65" rx="16" ry="16" style="animation-delay:1.104s"/><ellipse fill="#000300" cx="151" cy="10" rx="15" ry="15" style="animation-delay:1.277s"/><ellipse fill="#9d8b77" cx="75" cy="100" rx="19" ry="19" style="animation-delay:1.445s"/><ellipse fill="#772716" cx="110" cy="76" rx="22" ry="22" style="animation-delay:1.607s"/><ellipse fill="#bacacb" cx="5" cy="52" rx="9" ry="9" style="animation-delay:1.763s"/><ellipse fill="#8cbae2" cx="196" cy="63" rx="9" ry="9" style="animation-delay:1.912s"/><ellipse fill="#b5b19f" cx="19" cy="76" rx="10" ry="10" style="animation-delay:2.054s"/><ellipse fill="#aaa4a3" cx="139" cy="37" rx="10" ry="10" style="animation-delay:2.187s"/><ellipse fill="#1a202a" cx="5" cy="8" rx="32" ry="32" style="animation-delay:2.312s"/><ellipse fill="#916657" cx="157" cy="37" rx="14" ry="14" style="animation-delay:2.427s"/><ellipse fill="#9a6e48" cx="181" cy="127" rx="28" ry="28" style="animation-delay:2.533s"/><ellipse fill="#cd8768" cx="127" cy="75" rx="12" ry="12" style="animation-delay:2.629s"/><ellipse fill="#1c2122" cx="65" cy="62" rx="23" ry="23" style="animation-delay:2.714s"/><ellipse fill="#7398b4" cx="114" cy="22" rx="10" ry="10" style="animation-delay:2.789s"/><ellipse fill="#a9aeaa" cx="129" cy="5" rx="9" ry="9" style="animation-delay:2.853s"/><ellipse fill="#a29c90" cx="54" cy="83" rx="9" ry="9" style="animation-delay:2.906s"/><ellipse fill="#b6b09f" cx="30" cy="63" rx="8" ry="8" style="animation-delay:2.947s"/><ellipse fill="#1e3d4e" cx="161" cy="88" rx="7" ry="7" style="animation-delay:2.976s"/><ellipse cx="137" cy="22" rx="8" ry="8" style="animation-delay:2.994s"/></g></svg>