<svg xmlns="http://www.w3.org/2000/svg" viewBox="0 0 400 200"><path fill="#544b47" d="M0 0h400v200H0z"/><path fill="#dae1e9" d="M207 49h88v83h-88z"/><path fill="#b3a18d" d="M106 145h134v56H106z"/><path fill="#0b0d14" d="M68 1h91v117H68z"/><path d="M1 151h84v50H1z"/><path fill="#302219" d="M316 1h85v194h-85z"/><path fill="#aec6d5" d="M216 82h97v41h-97z"/><path fill="#3d3a32" d="M223 1h172v72H223z"/><path fill="#afaaa8" d="M234 40h45v100h-45z"/><path fill="#77372b" d="M140 73h76v78h-76z"/><path fill="#a2886c" d="M162 176h165v25H162z"/><path fill="#b7c2c2" d="M1 70h25v23H1z"/><path fill="#aba399" d="M18 98h27v36H18z"/><path fill="#9e886e" d="M74 129h64v31H74z"/><path fill="#85a6be" d="M176 20h14v57h-14z"/><path d="M388 107h13v94h-13z"/><path fill="#000100" d="M215 1h31v39h-31z"/><path fill="#4d2814" d="M282 127h83v58h-83z"/><path fill="#747470" d="M373 70h12v131h-12z"/><path fill="#5e7181" d="M271 73h24v64h-24z"/><path fill="#d5eaf0" d="M221 77h31v49h-31z"/><path fill="#a9b1b1" d="M190 1h23v22h-23z"/><path fill="#27272c" d="M1 1h164v47H1z"/><path fill="#020c09" d="M52 187h71v14H52z"/><path fill="#7f4c3c" d="M179 120h48v37h-48z"/><path fill="#1d130d" d="M106 101h67v26h-68z"/></svg>