<svg xmlns="http://www.w3.org/2000/svg" viewBox="0 0 400 200"><style>@keyframes a{from{opacity: 0}to{opacity: 1}}g&gt;*{opacity: 0;animation: a .5s forwards}</style><path fill="#544b47" d="M0 0h400v200H0z"/><g transform="translate(1 1) scale(1.5625)"><ellipse fill="#dbf3ff" cx="165" cy="62" rx="32" ry="25" style="animation-delay:0s"/><ellipse fill="#bfa98e" rx="1" ry="1" transform="matrix(5.0791 -16.61296 75.24332 23.0042 126 118)" style="animation-delay:.188s"/><ellipse fill="#060a13" rx="1" ry="1" transform="matrix(9.2657 -52.54843 26.25588 4.62962 76 30)" style="animation-delay:.376s"/><ellipse fill="#040000" rx="1" ry="1" transform="matrix(-6.41523 27.9861 -48.6567 -11.15353 15 118)" style="animation-delay:.562s"/><ellipse fill="#2e221a" rx="1" ry="1" transform="rotate(173 115 45) scale(30.21683 139.46801)" style="animation-delay:.746s"/><ellipse fill="#c2afa8" cx="158" cy="44" rx="24" ry="20" style="animation-delay:.927s"/><path fill="#adaba0" d="M50 40L14 98 7 74z" style="animation-delay:1.104s"/><path fill="#b8c6c5" d="M4 63l-7-7 23-23 7 7z" style="animation-delay:1.277s"/><ellipse fill="#020701" rx="1" ry="1" transform="matrix(8.55631 8.82345 -25.65688 24.88008 158 4)" style="animation-delay:1.445s"/><path fill="#cfe3ec" d="M130 32l40 41-23 10z" style="animation-delay:1.607s"/><path fill="#7e99a4" d="M115 12l-7 43 25-40 10-24z" style="animation-delay:1.763s"/><path fill="#bebeb4" d="M58 87l-13 1 25-31z" style="animation-delay:1.912s"/><path fill="#777a84" d="M183 38l25 28-25 23-38-53z" style="animation-delay:2.054s"/><ellipse fill="#a9a093" rx="1" ry="1" transform="matrix(1.2719 -4.7068 66.62458 18.00378 209 128)" style="animation-delay:2.187s"/><ellipse fill="#1d0100" rx="1" ry="1" transform="matrix(-7.19791 -6.48103 18.59543 -20.65231 204 82)" style="animation-delay:2.312s"/><ellipse fill="#af5238" rx="1" ry="1" transform="matrix(14.02724 -13.40472 10.91338 11.4202 120 82)" style="animation-delay:2.427s"/><ellipse fill="#1d232c" rx="1" ry="1" transform="matrix(9.55003 22.20885 -45.86784 19.72363 0 20)" style="animation-delay:2.533s"/><path fill="#2e0900" d="M77 58l14 36 24-15-8-15z" style="animation-delay:2.629s"/><path fill="#110d0f" d="M74 49l7-26 20-39-115 150z" style="animation-delay:2.714s"/><path d="M246 103l-6 40 31-10-14-102z" style="animation-delay:2.789s"/><path fill="#97acb7" d="M245 82l5 1-11 54-5-1z" style="animation-delay:2.853s"/><ellipse fill="#14050c" rx="1" ry="1" transform="matrix(-17.2956 20.65298 -3.84567 -3.22051 19 57)" style="animation-delay:2.906s"/><path fill="#530b00" d="M118 46l8-7 15 18-9 6z" style="animation-delay:2.947s"/><ellipse fill="#33322a" rx="1" ry="1" transform="matrix(-19.32236 -2.04374 2.61823 -24.75375 198 27)" style="animation-delay:2.976s"/><path fill="#7d4817" d="M105 112l56 3 95 28-92-15z" style="animation-delay:2.994s"/></g></svg>