<svg xmlns="http://www.w3.org/2000/svg" viewBox="0 0 100 50"><path fill="#564b4a" d="M0 0h100v50H0z"/><path fill="#cbc5c7" d="M24 66l57-41L64 9z"/><path fill="#2b191b" d="M64 40L23-15l-6 40z"/><path fill="#b29c82" d="M49 66l67-9L14 31z"/><path fill="#070001" d="M44 66l-59-24 29-9z"/><path fill="#e2faff" d="M67 25L53 13l6 20z"/><path fill="#2f1e17" d="M75 38l27-53 2 81z"/><path fill="#c2bcb3" d="M10 33H2l16-16z"/><path fill="#222118" d="M53-15l63 36L56 7z"/><path fill="#8d6054" d="M41 45l5-44 12 46z"/><path fill="#090b1b" d="M10 34L38-4l6 13z"/><path fill="#c0c8cc" d="M-15 23l11 5 17-14z"/><path fill="#7998a9" d="M50-14l-7 34 18-32z"/><path d="M108 64l-13-6 7-42z"/><path fill="#756863" d="M100 17L90 32l5 21z"/><path fill="#1e222b" d="M19 6L-6-15l7 33z"/><path fill="#a59795" d="M74 14L63 9l-15 5z"/><path fill="#533a30" d="M61 32l-14 6 42 11z"/><path fill="#16222d" d="M71-15l-31 1L4 25z"/><path fill="#070c0c" d="M58 10l9-21-20 24z"/><path fill="#c0cdd5" d="M70 34l-3-16-13 9z"/><path fill="#909494" d="M15 26l-6-1 14-12z"/><path fill="#411f17" d="M96 27l-5 33-12-44z"/><path fill="#a59f92" d="M28 23l-4 12-2-3z"/><path fill="#2a0105" d="M52 19L50 8l-3 12z"/><path fill="#341d1b" d="M22 33l25-3-10-13z"/><path fill="#f78057" d="M54 31l-2 3-6-7z"/><path fill="#827973" d="M34 29l13 32-23-19z"/><path fill="#866458" d="M70 49l16-17 11 1z"/><path fill="#230d0b" d="M72 34l18-9-13 16z"/><path fill="#586375" d="M47 18l-9 7 6-22z"/><path fill="#7a9dc0" d="M72 21l-1 13 11-10z"/><path fill="#687371" d="M87 16l9 7 9-4z"/><path fill="#7a4319" d="M88 51l-12 6-23-11z"/><path fill="#d7e2f2" d="M58 23l6 1-12-9z"/><path fill="#98a8a9" d="M56 66L36 43l59 15z"/><path fill="#5a4863" d="M38 22l-8-4 5-7z"/><path fill="#7a6d5f" d="M32-10L31 3H21z"/><path fill="#525e65" d="M104 5L60-15 9-8z"/><path fill="#a4a3a1" d="M56 44l-4-8 13 10z"/><path fill="#8d6d68" d="M65 10l5 10-19-6z"/><path fill="#3c2834" d="M10 66L5 27l-20-14z"/><path fill="#1d0c07" d="M85 38l6-1-11-8z"/><path fill="#88382c" d="M53 18L39 35l7 3z"/><path fill="#675141" d="M22 37l-11 5 6-13z"/><path fill="#b69f8b" d="M29 35l22 6-13 1z"/><path fill="#492117" d="M48 25l8-3-8-10z"/><path fill="#333d3f" d="M41 48H26l31 13z"/><path fill="#2a1a1d" d="M31 29l14-15-7-6z"/><path fill="#220d19" d="M66 43l-9-2 8-2z"/><path fill="#44485a" d="M40 17l1-30 7 15z"/><path fill="#51667b" d="M61 33l8-1-10 9z"/><path fill="#7b868a" d="M94 50l3-14-4 6z"/><path fill="#0b090b" d="M52 66L8 65V39z"/><path fill="#16151b" d="M83 23l-11-7h8z"/><path fill="#3e1a0d" d="M77 46l12 3 7-12z"/><path fill="#999392" d="M68 45l33 7 1 11z"/><path fill="#867874" d="M10 34l-5-6 2 10z"/><path fill="#906b4c" d="M25 42h22l-23-8z"/><path fill="#061012" d="M80 13l-6-5H64z"/><path fill="#463e34" d="M96 15L90-3 69 8z"/><path fill="#bec3c5" d="M53 24l17-6-7 13z"/><path fill="#020002" d="M7 25l9-8-5 1z"/><path fill="#8d5435" d="M86 41l-23-2 15 6z"/><path fill="#ad998f" d="M53-15H37L53 6z"/><path fill="#28140e" d="M13 32l7 1-4-8z"/><path fill="#ccdce4" d="M65 32l-6-8-5 5z"/><path fill="#a7a1a2" d="M71 13l-3-2 3 11z"/><path fill="#0d111d" d="M5 35l-20-2L3 52z"/><path fill="#7a8087" d="M8 18l5-10 2 3z"/><path fill="#647d95" d="M72 18l-5 14 12-10z"/><path fill="#43150d" d="M49 22l-13 7v7z"/><path fill="#001a1e" d="M34 24l-3 6-3-14z"/><path fill="#000b13" d="M26 9l-6 3-4-5z"/><path fill="#a9a4a3" d="M69 35l-1-17-4 8z"/><path fill="#775437" d="M79 66l2-16-23-6z"/><path fill="#bea290" d="M17 37l-1-3 2 1z"/><path fill="#61727f" d="M47 16l-6 6-2-5z"/><path fill="#bfaeac" d="M61 43l6 4h8z"/><path fill="#9c8074" d="M4 5l-19 7V1z"/><path fill="#9ba9af" d="M60 39l-6-1-3 4z"/><path fill="#291d21" d="M36-1l-51 6 37-20z"/><path fill="#50454b" d="M5 66l8-23v14z"/><path fill="#9aa4a8" d="M52 11l5 1-6 3z"/><path fill="#000a0d" d="M109 30L95 60l6-40z"/><path fill="#1b1b1c" d="M54 12l3-27 6 22z"/><path fill="#69737b" d="M46 11v10l5-16z"/><path fill="#0d0009" d="M49 39l2-3 1 2z"/><path fill="#000316" d="M6 14l-21-1 5 9z"/><path fill="#bc725b" d="M51 32l-2-6-4 2z"/><path fill="#979294" d="M14 12l-25 13 2 12z"/><path fill="#3b2b2c" d="M-15 20l22 5-18 19z"/><path fill="#8c7c71" d="M85 32l5 1-8-4z"/><path fill="#1e3a52" d="M65 32l-3 2 5 1z"/><path fill="#362c22" d="M113 26l3-18-40-6z"/><path fill="#312016" d="M87 43l6-7-1 18z"/><path fill="#737364" d="M15 5L27-5l-2 6z"/><path fill="#53616a" d="M15 10l-5-6v-6z"/><path fill="#a8a7a2" d="M25 27l-6 6 2 1z"/><path fill="#737366" d="M98 40l-5-7 3-5z"/><path fill="#99818b" d="M67 39l-1 3 5-3z"/></svg>