<svg xmlns="http://www.w3.org/2000/svg" viewBox="0 0 400 200"><path fill="#544b47" d="M0 0h400v200H0z"/><path fill="#d3e9f9" d="M320 105l-66 52-50-64 66-52z"/><path fill="#bfae94" d="M88 184l13-49 191 52-13 48z"/><path fill="#0b0b13" d="M154 123l-87-7L79-21l87 7z"/><path fill="#050000" d="M-39 223l29-93 119 36-28 93z"/><path fill="#e3f5fd" d="M261 116l-12 8-49-70 12-8z"/><path fill="#311f14" d="M416 209l-120-23 34-175 120 23z"/><path fill="#b3b0a2" d="M21 143L8 131l57-63 13 12z"/><path fill="#aebdbd" d="M-23 118l-8-10 80-65 8 10z"/><path fill="#1d2019" d="M327 60L213 29l15-56L342 4z"/><path fill="#d5e6ea" d="M220 75l35 7-8 47-35-6z"/><path fill="#9fb8c6" d="M389 129l-17 105-6-1 17-105z"/><path fill="#9bb9c7" d="M207-11l10 7-38 57-10-7z"/><path fill="#c45839" d="M193 96l27 24-34 39-27-24z"/><path fill="#272225" d="M265 174l-25-1 3-42 25 1z"/><path fill="#19202a" d="M-37 9l80-39 33 66-80 39z"/><path fill="#e1ebed" d="M112 93l-31 43-4-2 31-44z"/><path fill="#a58275" d="M227 78l-9-30 47-15 10 30z"/><path d="M425 33l-34 213-17-3 34-213z"/><path fill="#04141d" d="M37 96L23 81l45-41 14 15z"/><path fill="#c7d8e1" d="M277 182l108 31-1 4-108-31z"/><path fill="#5c2315" d="M219 88l-92 54-11-19 93-53z"/><path fill="#1a0b08" d="M78 74l14 8-59 102-13-8z"/><path fill="#70889f" d="M306 125l-43-32 20-26 43 32z"/><path d="M202 42l21-36 18 10-22 36z"/><path fill="#697270" d="M354 101l7-36 40 8-7 35z"/><path fill="#bac9d3" d="M316 198L69 132l1-3 247 66z"/><path fill="#2c0d0b" d="M379 105l-73 61-21-25 73-62z"/><path fill="#88511e" d="M352 224l-184-49 4-13 184 49z"/><path fill="#8d7b64" d="M61 142l16-20 54 44-15 20z"/><path fill="#23160d" d="M287 55l34 22-7 10-34-22z"/><path fill="#835d44" d="M393 131l-101 68-11-16 101-68z"/><path fill="#b0b6b5" d="M253 149l2 4-50 18-2-4z"/><path fill="#866c57" d="M126 12l-50 6-3-28 49-6z"/><path fill="#94a8b6" d="M140 170l79 25-4 15-80-25z"/><path fill="#311914" d="M166 91l19 36-33 18-20-36z"/><path fill="#a1bcc4" d="M130 121l8 10-11 9-7-10z"/><path fill="#6286a2" d="M190 67l-33 34-8-7 33-34z"/><path fill="#010c10" d="M170-25L90 113l-15-8 80-138z"/><path fill="#8a9395" d="M43 115l-5-4 46-61 5 3z"/><path fill="#2f1308" d="M329 187l14-48 36 10-14 48z"/><path fill="#b5d2e1" d="M207 149l4-4 15 14-4 4z"/><path fill="#657482" d="M268-4l64 7-1 9-64-7z"/><path fill="#230d15" d="M-16 128l65-63 9 9-65 63z"/><path fill="#1a0000" d="M205 37l-8 51-10-2 9-50z"/><path fill="#853f55" d="M18 135l10 1-4 71h-9z"/><path fill="#a1a9aa" d="M7 95L0 71l16-5 8 24z"/><path fill="#ad9b7b" d="M331 121l3-3 21 18-3 4z"/><path fill="#40769b" d="M186 65l-38-84 9-4 37 84z"/><path fill="#bad6e4" d="M206 108l12-16 37 26-12 17z"/><path fill="#737168" d="M354 73l-73-15 1-8 74 16z"/><path fill="#000008" d="M337-10l94 13-1 9-94-13z"/><path fill="#743c01" d="M277 153l32 8-7 26-31-9z"/><path fill="#60666a" d="M102 148l91 74-18 22-91-74z"/><path fill="#947871" d="M268 75h-37V39h37z"/><path fill="#ccecf1" d="M213 55l31-16 1 1-32 17z"/><path fill="#05110b" d="M107 137l-10-10 35-31 10 10z"/><path fill="#ef9c73" d="M198 116l15 7-6 13-15-7z"/><path fill="#8c8380" d="M50 145l3 1-4 35h-3z"/><path fill="#57717b" d="M35 15l7-4 24 48-7 3z"/><path fill="#9c6633" d="M174 179l-91-27 4-13 91 26z"/><path fill="#070d0c" d="M131 204l-6 19-101-31 6-20z"/><path fill="#180008" d="M171 43l5 23-11 2-5-23z"/><path fill="#bec1bd" d="M264 130l-22-2 5-50 21 2z"/><path fill="#081516" d="M241 31l2-7 68 25-3 7z"/><path fill="#e0faff" d="M248 44l1-4 17 1-1 5z"/><path fill="#74496f" d="M120 80l3-26 15 2-4 26z"/><path fill="#8aaac4" d="M315 115l-19-9 10-19 18 8z"/><path fill="#a79c89" d="M207 25l-13-5 16-43 13 5z"/><path fill="#ac9192" d="M26 55l-1 1-15-41 1-1z"/><path fill="#001521" d="M98 14l14 21-34 21-13-21z"/><path fill="#546777" d="M276 93l15 2-6 36-15-3z"/><path fill="#19191a" d="M174 129h-16l-2-40 16-1z"/><path fill="#000509" d="M445 78l-1 3-156-33 1-3z"/><path fill="#f78850" d="M177 109l20-8 2 4-20 8z"/><path fill="#47596a" d="M58 60l78-32 2 5-79 31z"/><path fill="#12150f" d="M237 42l-26-7 10-38 26 7z"/><path fill="#715450" d="M251 71l-3 7-42-16 3-8z"/><path fill="#d2e5ee" d="M222 53l-5 31-3-1 5-31z"/><path fill="#a48082" d="M263 156l13-4 4 12-14 4z"/><path fill="#a03724" d="M161 99l-19 10-5-9 19-11z"/><path fill="#54483d" d="M246 38V24l100 2v14z"/><path fill="#825450" d="M350 162l-42 21-6-12 41-21z"/><path fill="#80776f" d="M392 76l6 2-23 63-6-2z"/><path fill="#bd9b75" d="M255 192l-87-26 1-3 86 26z"/><path fill="#603512" d="M282 201v3l-97-26 1-3z"/><path fill="#020000" d="M213 162l-1 1-24-29 1-1z"/><path fill="#777560" d="M36 26l-1-6 49-10 1 6z"/><path fill="#080d05" d="M156-7l-1 72h-13l2-72z"/><path fill="#562114" d="M221 89l-13 9-24-32 13-10z"/><path fill="#2d0d00" d="M295 180l-64-13 1-5 64 13z"/><path fill="#98a0a4" d="M248 180l2-6 85 23-2 6z"/><path fill="#b14c45" d="M174 154l-18-10 9-15 18 10z"/><path fill="#8e8e84" d="M375 175l-8 37-3-1 8-37z"/><path fill="#96917c" d="M16 125l20-12 9 16-20 12z"/><path fill="#858892" d="M191 33l-5 50-13-2 5-49z"/><path fill="#131d25" d="M154-17l2-3 57 61-2 2z"/><path fill="#35160d" d="M244 169l-3-6 51-27 3 6z"/><path fill="#b0937f" d="M269 119l-12-3 16-56 12 4z"/><path fill="#101615" d="M323 135l-8 31-21-6 8-30z"/><path fill="#000302" d="M46 129l-2-4 39-28 3 4z"/><path fill="#9aabc8" d="M158-2l37 43-2 1-36-43z"/><path fill="#d18fa8" d="M159 75l4-23h2l-5 23z"/><path fill="#865d5a" d="M264 138l51 34-3 4-50-34z"/><path fill="#c0a6aa" d="M323 159l1-14h4v14z"/><path fill="#8aadc3" d="M262 134l53-43 6 7-53 44z"/><path fill="#00020b" d="M-14 55l33-1v11l-33 1z"/><path fill="#64473b" d="M82 81l4 9-26 11-4-8z"/><path fill="#0a0d0c" d="M160 205l-12-3 3-9 12 3z"/><path d="M328 166l10-16 1 1-10 16z"/><path fill="#181302" d="M83 158l-20 38-17-8 21-39z"/><path fill="#99a4af" d="M118 129l20 3-1 6-20-3z"/><path fill="#a38b6d" d="M70 149l-4 2-10-23 5-2z"/><path fill="#080003" d="M189 118l5 7-6 5-6-7z"/><path fill="#a7a69f" d="M85 128l28-37 1 1-28 37z"/><path fill="#1a1b27" d="M-15 243l4-111 31 1-4 111z"/><path fill="#766b6c" d="M38 232l15-88 2 1-16 87z"/><path fill="#320a06" d="M217 164l-68-18 1-2 68 18z"/><path fill="#868f96" d="M109 160l38 33-8 8-37-33z"/><path fill="#8e6f50" d="M22 85l-1-1 40-37 1 2z"/><path fill="#173650" d="M168-40l5 81-11 1-5-81z"/><path fill="#7d2516" d="M356 97l33 10-3 7-33-10z"/><path fill="#7b220c" d="M140 146l-3-23 12-2 3 24z"/><path fill="#554939" d="M285 53l88 26-3 10-89-25z"/><path fill="#989692" d="M28 126l-10-10 43-43 10 10z"/><path fill="#00161d" d="M93 52l43 46-9 8-43-46z"/><path fill="#83a1b4" d="M207 93l14 15-8 7-14-15z"/><path fill="#2f2417" d="M428 61l-76-15 6-30 76 14z"/><path fill="#1e3d4e" d="M259 128l4 12-14 5-4-12z"/><path fill="#0d0e0a" d="M316 130l4-7 46 27-4 6z"/><path fill="#401a0a" d="M223 65l-3-2 15-20 3 2z"/><path fill="#2a3b49" d="M276 120l11 11-5 4-11-11z"/><path fill="#000b0e" d="M399 79l29 4-29 184-29-5z"/><path fill="#7b6963" d="M264 145l50-32 2 3-50 32z"/><path fill="#568ca9" d="M141 43l-7 19h-2l8-19z"/><path fill="#2c1c23" d="M84-6l2 14-90 9-2-14z"/><path fill="#000708" d="M339 122l5-26 12 2-4 26z"/><path fill="#2c281e" d="M82 20v11l-65 4-1-11z"/><path fill="#403e34" d="M127 193l-5 13-45-19 6-13z"/><path fill="#c1d3da" d="M209 71l5-6 28 22-5 6z"/><path fill="#4f5b5d" d="M66 142l-2-2 24-36 3 1z"/><path fill="#9e5b69" d="M106-10l3-1 9 38-3 1z"/><path fill="#7a817f" d="M313 56l79 20v1l-79-20z"/><path fill="#0b1c20" d="M110-1L93 51l-7-2 16-52z"/><path fill="#451608" d="M313 186l4-11 37 12-4 12z"/><path fill="#83859e" d="M37-23l11 47-2 1-11-48z"/><path fill="#7f6d5b" d="M-15 140l-2-11 49-11 2 11z"/><path fill="#793d2c" d="M207 68l14 17-17 14-14-17z"/><path fill="#a06a79" d="M8 24l6-25h2L9 25z"/><path fill="#9b6900" d="M298 180l-10 4-7-15 10-5z"/><path fill="#271416" d="M337 100l-54-34 3-5 55 34z"/><path fill="#7a7481" d="M72 63l41-26 1 2-41 25z"/><path fill="#b81e32" d="M19 183l4-11 7 3-4 10z"/><path fill="#989195" d="M220 168l-27-43 1-1 27 44z"/><path fill="#5e3337" d="M146 34l15-11 13 20-15 10z"/><path fill="#823d4b" d="M161 66l4 10-15 6-4-10z"/><path fill="#6a5463" d="M13 102L3 118l-14-9 9-16z"/><path fill="#4c321a" d="M91 129l20-31 9 5-20 32z"/><path fill="#61362d" d="M230 146l-10 9-14-15 10-9z"/><path fill="#634831" d="M235 179l91 22v3l-91-22z"/><path fill="#000905" d="M200 105l9 9-1 1-9-9z"/><path fill="#90a4b3" d="M227 128l1-2 25 26-1 1z"/><path fill="#500f0f" d="M316 127l-9-9 32-28 8 9z"/><path fill="#87938d" d="M44 108l1 1-24 44-2-1z"/><path fill="#180a0a" d="M205 78l-13 1-1-21 12-1z"/><path fill="#675e74" d="M212-5l-21 19-7-8 20-19z"/><path fill="#7e6877" d="M-6 197v-1l26-14 1 2z"/><path fill="#03141c" d="M39 179l-20-25 13-9 19 24z"/><path fill="#929b9e" d="M56 52l-70 41-3-6 70-41z"/><path fill="#000300" d="M205 99l-11 2-1-8 11-1z"/><path fill="#875239" d="M145 131l-4 3-18-16 3-4z"/><path fill="#a4b6bf" d="M264 133l-31-26 11-13 31 25z"/><path fill="#b0a28e" d="M99 144l-1 1-26-9v-1z"/><path fill="#7b6a53" d="M351 146v-7l37-2 1 7z"/><path fill="#163d50" d="M126 89L92 75l3-6 33 14z"/><path fill="#912721" d="M362 108l-3 27-7-1 4-27z"/><path fill="#4f6474" d="M357 15l1-9 46 9-1 9z"/><path fill="#281f15" d="M139 177l-2 3-9-6 2-2z"/><path fill="#c4667f" d="M17 99l7-3 2 4-7 3z"/><path fill="#0e150b" d="M74 133l-7 1-5-24 7-2z"/><path fill="#b4603c" d="M174 114v-3l38 8v3z"/><path fill="#896861" d="M243 70l31-4 1 10-31 3z"/><path fill="#a4b3be" d="M260 178l-1 3-45-14 1-3z"/><path fill="#4b3317" d="M79 163l-25 4-3-15 25-5z"/><path fill="#834e4a" d="M165 102l-1 2-37-26 1-2z"/><path fill="#001012" d="M94 31l60-5 1 4-61 6z"/><path fill="#183f4e" d="M42 48L27 12l10-5 16 36z"/><path fill="#3d2c33" d="M101 97L89 75l8-5 13 22z"/><path fill="#857668" d="M228 164l40-24 3 4-41 24z"/><path fill="#260000" d="M214 60l-1 1-7-7 2-1z"/><path fill="#afb4b7" d="M185 165l-85-28 1-3 85 28z"/><path fill="#22211c" d="M218 5l25-4 6 36-25 5z"/><path fill="#c57c54" d="M195 132l-2-7 29-6 2 8z"/><path fill="#7a6c5a" d="M85 59l1 1-60 82-1-1z"/><path fill="#bfd9e1" d="M260 43l-25-2v-1l25 1z"/><path fill="#9bb0bf" d="M178 211l-18-17 7-7 18 18z"/><path fill="#1d1203" d="M61 51l1 1-41 39-1-1z"/><path fill="#c4d8de" d="M278 53l-21-13 1-1 21 13z"/><path fill="#545953" d="M350 69l11-2 3 29-11 1z"/><path fill="#52473c" d="M333 39l-8 13-57-36 9-13z"/><path fill="#a38786" d="M258 168v-3l13-3 1 3z"/><path fill="#9b6370" d="M154 34l1-1 8 29h-1z"/><path fill="#637d97" d="M279 95l21-17 13 16-21 17z"/><path fill="#43160e" d="M285 135l15 20-6 5-15-20z"/><path fill="#000a10" d="M276 48l2-11 17 4-3 10z"/><path fill="#bac7c9" d="M202 60l2-2 21 25-2 2z"/><path fill="#528cb3" d="M169 71l5 4-13 18-5-4z"/><path fill="#071112" d="M56 25L50-1l5-1 6 26z"/><path fill="#412c25" d="M88 132l1-5 47 11-1 5z"/><path fill="#421214" d="M141 57l15 8-11 20-15-8z"/><path fill="#944843" d="M156 145l8-21 26 11-8 20z"/><path fill="#ac9b86" d="M191 182l-1 2-107-27v-1z"/><path fill="#afb6ba" d="M167 152l53 17-1 3-53-17z"/><path fill="#00171f" d="M71 59l3 4-28 20-2-3z"/><path fill="#874e40" d="M168 98l20-18 5 5-20 17z"/><path fill="#c4c9ce" d="M283 58l2 1-14 19-1-1z"/><path fill="#1e1213" d="M144 8l34 55-4 2-34-54z"/><path fill="#001922" d="M-9 187l-5-28 25-4 4 28z"/><path fill="#aa5325" d="M327 183l4 3-6 7-4-3z"/><path fill="#d0edff" d="M217 49l-13 5-1-2 14-4z"/><path fill="#000b09" d="M102 81l-19 43-2-1 19-42z"/><path fill="#826367" d="M17 25l-31 4-1-9 31-4z"/><path fill="#94acbe" d="M314 95l6 9-32 24-7-9z"/><path fill="#0f0a0a" d="M86 54l17-6 6 18-16 6z"/><path fill="#030d0f" d="M152-29L107 89l-8-2 46-119z"/><path fill="#7f7866" d="M105-6l1 2-44 27-1-1z"/><path fill="#86684a" d="M129 163l-48-15 4-12 48 15z"/><path fill="#6d838e" d="M394 102h-8V81h8z"/><path fill="#a78d8f" d="M330 160l-8-3 3-9 7 3z"/><path fill="#cfdde3" d="M219 115l5-10 34 16-5 10z"/><path fill="#4b4c42" d="M201 23l5 2-18 45-5-3z"/><path fill="#1a2426" d="M384 94l-73-16v-1l73 15z"/><path fill="#969690" d="M286 184l1-1 109 31v2z"/><path fill="#698894" d="M63 73l20-18 2 2-20 18z"/><path fill="#2e0006" d="M27 178l12 17-8 6-13-16z"/><path fill="#502f20" d="M326 159l34 37-4 3-33-37z"/><path fill="#30140d" d="M289 175l-1 6-32-8 2-6z"/><path fill="#beced4" d="M248 94l-5 6-30-30 5-5z"/><path fill="#3a2c1b" d="M361 17l-2 13-68-11 2-13z"/><path fill="#111c1f" d="M183 83l-27 13v-2l27-13z"/><path fill="#282830" d="M115 16L89 41 77 29l26-25z"/><path fill="#86b7cf" d="M183 30l6 8-8 5-5-7z"/><path fill="#000002" d="M71 52l-3-1 7-17 2 1z"/><path fill="#7c9199" d="M262-2l16 3v3l-17-3z"/><path fill="#0d0000" d="M153 148l3-20h2l-3 20z"/><path fill="#573525" d="M224 52l5 1-1 18h-5z"/><path fill="#311401" d="M211 135l13-8 2 2-14 8z"/><path fill="#192c2a" d="M106 124l23-4 1 5-23 4z"/><path fill="#000807" d="M77 174l-16 40-12-5 17-40z"/><path fill="#64899a" d="M203 107l40 27-1 2-40-28z"/><path fill="#22120f" d="M244 166l-2-3 81-46 2 2z"/><path fill="#c86640" d="M195 102l3 7-19 10-4-7z"/><path fill="#65696d" d="M97 178l4-7 51 37-5 6z"/><path fill="#361102" d="M303 184l67-19 1 3-68 19z"/><path fill="#120c05" d="M50 123h5l3 28h-5z"/><path fill="#726049" d="M340 139l-10-19 7-4 10 19z"/><path fill="#2f404b" d="M321 1l44 1v8l-44-1z"/><path fill="#6f7c85" d="M382 183l-9-1 6-42 9 2z"/><path fill="#a6886a" d="M200 172l-2 6-56-20 2-6z"/><path fill="#9e6575" d="M187 65l-24-25h1l24 24z"/><path fill="#004771" d="M134 56l-5-3 5-8 5 4z"/><path fill="#443428" d="M340 139l1 7-24 2v-8z"/><path fill="#5b121b" d="M7 138l6-2 13 34-6 2z"/><path fill="#120b05" d="M190 78l-2-1 37-78 1 1z"/><path fill="#996552" d="M302 179l22-12 3 6-22 11z"/><path fill="#8796b9" d="M120 66l1-3 11 3-1 3z"/><path fill="#a1aaaf" d="M72 131l1-1 31 9v1z"/><path fill="#033437" d="M163-1l16-8 6 12-15 8z"/><path fill="#040605" d="M324 122l1-1 28 31-1 1z"/><path fill="#06120f" d="M135 87l6 25-21 6-7-26z"/><path fill="#1d0000" d="M24 93l-13 23-2-1 13-23z"/><path fill="#98bbc3" d="M222 165l-18-24 1-1 18 24z"/><path fill="#1e1c18" d="M20 41l4-15 17 3-4 16z"/><path fill="#100c07" d="M344 180l-4 16-10-3 3-15z"/><path fill="#17181d" d="M16 66l-3-6 22-12 3 6z"/><path fill="#cc9ca1" d="M104 48l-5-4 2-2 5 3z"/><path fill="#403636" d="M274 159l-1 1-18-27 2-1z"/><path fill="#190b16" d="M18-16l16 2-4 31-15-1z"/><path fill="#483827" d="M76 160l14-4 7 27-13 4z"/><path fill="#294653" d="M114 41l-1-8 22-1v8z"/><path fill="#ae748c" d="M157 21l5 6-2 1-4-6z"/><path fill="#76504d" d="M356 159l-16 10-4-7 16-10z"/><path fill="#855f39" d="M206 182l-1 4-78-22 1-5z"/><path fill="#271b19" d="M169 119l2-4 21 11-2 4z"/><path fill="#774d36" d="M258 43l-23 8v-2l22-7z"/><path fill="#64413c" d="M220 154l1-14 20 1-1 14z"/><path fill="#0b1b2a" d="M160 82l-2-1 12-18 1 1z"/><path fill="#5e4a31" d="M61 117l10 18-5 3-10-18z"/><path fill="#b86376" d="M27 174l-11 14-1-1 11-14z"/><path fill="#c09a6d" d="M170 140l-11-8 1-2 11 9z"/><path fill="#3b2419" d="M209 109l1 5-14 3-1-4z"/><path fill="#321d12" d="M195 144l9-2 3 15-9 2z"/><path fill="#1a1614" d="M330 87h22l1 28h-22z"/><path fill="#93908e" d="M290 128l1 1-52 29-1-1z"/><path fill="#7c5948" d="M370 213l-39-42 1-1 39 42z"/><path fill="#747d81" d="M279 52l50 9-1 1-49-8z"/><path fill="#000204" d="M43 190l-10 1-2-30h9z"/><path fill="#1e333e" d="M43 195l5-54h1l-4 54z"/><path fill="#6b7479" d="M209 28l-21-6 1-5 21 7z"/><path fill="#c0c8cc" d="M220 77l41 2-1 26-41-1z"/><path fill="#dfbdb9" d="M187 76l-1 1-6-7 1-1z"/><path fill="#000f10" d="M367 184l-11-6 4-7 11 6z"/><path fill="#c26f7b" d="M194 3l-5 4-7-8 5-4z"/><path fill="#316173" d="M169 66l7-4 6 11-6 4z"/><path fill="#9f8467" d="M197 34l-2 1-53-68 2-1z"/><path fill="#1d1e21" d="M22 151l41-36 1 1-41 36z"/><path fill="#a37b4f" d="M225 179l109 31-1 3-109-31z"/><path fill="#acc6d1" d="M216 156h13v5h-13z"/><path fill="#463b2f" d="M322 53l6-35 36 5-6 36z"/><path fill="#a1b1b9" d="M218 169v-3l94 26-1 3z"/><path fill="#9d6c7f" d="M110 29l2-7h1l-1 8z"/><path fill="#000a0f" d="M158 63l-13 1-1-16 12-1z"/><path fill="#213d56" d="M80 75l-2 4-26-15 3-4z"/><path fill="#696b63" d="M149 190l-9-13 3-3 10 13z"/><path fill="#917080" d="M17 98h2l3 12h-2z"/><path fill="#36312b" d="M270 41l-45-7 4-26 45 7z"/><path fill="#947b75" d="M240 80l-9-14 33-23 10 15z"/><path fill="#836e59" d="M50 113l-7-5 12-17 7 6z"/><path fill="#d4e9ec" d="M274 48l8 10-2 2-7-11z"/><path fill="#9a9d9a" d="M30 60l5 4L9 98l-5-4z"/><path fill="#29454d" d="M19 161l9-22 5 2-10 21z"/><path fill="#7a6e61" d="M13 116l10 4-6 13-10-5z"/><path fill="#59809c" d="M56 61l17-9v1l-16 9z"/><path fill="#686c74" d="M291 94l-11 19-10-6 11-19z"/><path fill="#a48f8d" d="M108 1l8 11-1 1-8-11z"/><path fill="#9e9a8d" d="M62 149l27-26 1 1-27 26z"/><path fill="#667378" d="M89 103l1 1-18 22-1-1z"/><path fill="#8f9193" d="M192 193l4-10 55 22-4 10z"/><path fill="#1f1209" d="M360 132l11-19 2 1-12 18z"/><path fill="#552e28" d="M144 139h-4l-4-82 3-1z"/><path fill="#000203" d="M223-7l14 3-3 15-13-2z"/><path fill="#b67754" d="M187 142h9v11h-9z"/><path fill="#580b17" d="M23 84l15 1v11l-15-1z"/><path fill="#5e5f6c" d="M27 49l-52 5-1-5 53-4z"/><path fill="#501e1c" d="M173 141l-4-17 6-1 4 17z"/><path fill="#619fbb" d="M170 12l-1 1-16-24h2z"/><path fill="#4e3933" d="M226 141l-41-4v-2l41 5z"/><path fill="#80a3c0" d="M208 111l-4-4 15-16 3 3z"/><path fill="#708fab" d="M295 97l-13-28 2-2 14 28z"/><path fill="#3b231a" d="M334 163l-29 6v-2l29-6z"/><path fill="#091704" d="M-1-9l11 1-2 22-10-1z"/><path fill="#b9ccd1" d="M240 43l-15 5-1-2 15-5z"/><path fill="#989ea0" d="M64 74l-51 51-1-1 51-51z"/><path fill="#0e0611" d="M278 165l3 1-5 8-2-1z"/><path fill="#26201b" d="M120 168l1-2 13 12-1 1z"/><path fill="#003f53" d="M113 82l2-4 20 7-1 4z"/><path fill="#9e6c46" d="M196 87l-1-1 14-3v2z"/><path fill="#a6c0cd" d="M262 133l11-6 4 7-11 6z"/><path fill="#b9a6ae" d="M274 164h-6v-5h6z"/><path fill="#875f6f" d="M65 39l-13 6v-2l13-5z"/><path fill="#005277" d="M166 21l-5-11 2-1 6 11z"/><path fill="#877270" d="M215 136l1-1 17 15-1 2z"/><path fill="#4a3d39" d="M145 38l-9-30h2l9 30z"/><path fill="#b35950" d="M182 85l10 12-1 1-10-12z"/><path fill="#003d50" d="M87 28v-8h12v8z"/><path fill="#131209" d="M182 153l29 7-1 1-29-7z"/><path fill="#071c1d" d="M138 18h1l6 53h-2z"/><path fill="#6b0f1e" d="M8 195l-6 2-8-18 5-3z"/><path fill="#3e5e6f" d="M255 128l4 6-15 9-4-7z"/><path fill="#c8864e" d="M201 99l3 3-7 7-3-4z"/><path fill="#cdc8c5" d="M261 81l13-9 1 2-13 8z"/><path fill="#2b0709" d="M143 146l1-8 11 2-1 8z"/><path fill="#9ab4c1" d="M116 132l1-2 18 2v2z"/><path fill="#8c908f" d="M1 94l-8-13 26-17 9 13z"/><path fill="#111006" d="M19 144l-18 5-3-7 19-5z"/><path fill="#afa59d" d="M244 179l-1 2-60-18v-1z"/><path fill="#0d1417" d="M104 31L-4 131l-1-1L102 30z"/><path fill="#391a00" d="M291 164l15 13-1 1-15-13z"/><path fill="#53361e" d="M51 209h-2l8-67 2 1z"/><path fill="#633c4a" d="M79 24l3-1 6 17-3 1z"/><path fill="#051210" d="M410 70l-34-1v-7l34 2z"/><path fill="#c2795f" d="M193 121l18-1 1 14-19 1z"/><path fill="#4b4c47" d="M402 65l-81-14v-2l82 15z"/><path fill="#4b3e35" d="M312 36l1-6 89 14-1 6z"/><path fill="#8d5e4e" d="M318 174l-1 2-43-20 2-3z"/><path fill="#b1c9d0" d="M192 39l-1 1-12-15 1-1z"/><path fill="#906d52" d="M342 132l1-5 17 5-2 5z"/><path fill="#5d5e5b" d="M154 198l-1 7-21-5 1-6z"/><path fill="#a5a7a6" d="M165 181l-48-15 1-1 48 14z"/><path fill="#0d0100" d="M369 154l-3-5 7-5 3 6z"/><path fill="#4c3d2d" d="M331 68l-1 6-47-9 1-6z"/><path fill="#3a270f" d="M78 142l-19 19-1-2 19-18z"/><path fill="#281f25" d="M209 160l1-1 8 5-1 1z"/><path fill="#8d9190" d="M82 125l17-21 5 4-17 21z"/><path fill="#5b6d7c" d="M39 24l-6-1 1-8 6 1z"/><path fill="#1b1a16" d="M297 138l16-7 10 26-16 7z"/><path fill="#723f49" d="M97 91l7 3-2 4-7-3z"/><path fill="#704f76" d="M173 18v9h-7v-9z"/><path fill="#6e7b83" d="M390 126l-15 41-1-1 15-41z"/><path fill="#553a34" d="M289 140l5-3 16 25-6 3z"/><path fill="#8a8980" d="M83-4l12 3-1 6-12-3z"/><path fill="#564b57" d="M129 132l2 2-8 8-2-3z"/><path fill="#575f63" d="M1 159l-1-2 35-20 1 1z"/><path fill="#597481" d="M174 42l18-2 2 14-19 2z"/><path fill="#9e3d24" d="M130 128v-11h7v11z"/><path fill="#d8e8ea" d="M221 103l15 20-5 4-15-20z"/><path fill="#001215" d="M274 45l1-3 28 9-1 3z"/><path fill="#26516f" d="M170 34l47-52 2 1-47 52z"/><path fill="#4c433a" d="M281 29l-6 8-29-21 5-8z"/><path fill="#010f13" d="M98 100l-42 18-2-4 42-18z"/><path fill="#6b473a" d="M229 72l-8-3 8-20 7 2z"/><path fill="#866e56" d="M393 102l1 1-26 43-1-1z"/><path fill="#42322e" d="M84 84l-20 23-6-5 20-23z"/><path fill="#8a8887" d="M369 211l-69-19 1-4 70 18z"/><path fill="#02212b" d="M249 146l9-5 1 2-10 5z"/><path fill="#6a777c" d="M57 42L43 20l2-1 13 23z"/><path fill="#070006" d="M248 165l-12 6-2-3 13-6z"/><path fill="#66343a" d="M109 56h-1l-3-17h2z"/><path fill="#821418" d="M324 99h2l-8 19h-1z"/><path fill="#222422" d="M378 136l-1-1 15-20 1 1z"/><path fill="#121d1c" d="M173 86l-18 46h-1l18-47z"/><path fill="#615343" d="M350 67l38 6-2 15-38-6z"/><path fill="#a07c6d" d="M277 67l-11-18 3-1 10 17z"/><path fill="#2e151c" d="M181 21L170 6l1-1 11 16z"/><path fill="#987a5e" d="M270 84l12-15 3 2-12 15z"/><path fill="#3a191f" d="M308 84l6-9 24 18-7 9z"/><path fill="#1c1c14" d="M365 53l38 7v2l-39-8z"/><path fill="#988f85" d="M21 143l18-20 1 1-18 20z"/><path fill="#4d3422" d="M334 206v1l-104-30v-1z"/><path fill="#a85848" d="M152 96v-1l13 4v2z"/><path fill="#001113" d="M404 8L347-5l1-1 56 13z"/><path fill="#8b000b" d="M16 175v-1l10-4 1 2z"/><path fill="#49141d" d="M218 60l-2 4-7-3 2-5z"/><path fill="#8f5e3b" d="M228 126l-1 2-22-12 1-1z"/><path fill="#827967" d="M67 11l5 8-6 3-5-8z"/><path fill="#1d0b0b" d="M54 132h2l-18 32-2-1z"/><path fill="#020a0f" d="M85 51l-1-1 58-37v1z"/><path fill="#7c6955" d="M16 93l31-39 1 1-31 39z"/><path fill="#2c1b12" d="M328 172l1-1 51 56-2 1z"/><path fill="#160a07" d="M172 46l-7 26-1-1 7-25z"/><path fill="#180a03" d="M337 170l15-5 3 11-15 4z"/><path fill="#662605" d="M302 181l29 4v5l-30-4z"/><path fill="#863b24" d="M134 140l15-11 3 4-15 11z"/><path fill="#021514" d="M369 88v10h-5V88z"/><path fill="#4a4234" d="M70 2v-3l40 10-1 3z"/><path fill="#271a13" d="M156 21l-23-5 7-32 23 5z"/><path fill="#c6d5d9" d="M214 53l-1 1-10-5 1-2z"/><path fill="#93989d" d="M274 118l-17 2-2-14 17-2z"/><path fill="#281c14" d="M1 36l12-4 3 8-11 5z"/><path fill="#847168" d="M310 169l-1-1 17-11 1 2z"/><path fill="#7d572b" d="M39 127l16-19 1 1-16 19z"/><path fill="#855b6a" d="M162 74v3l-16 1v-3z"/><path fill="#a08a70" d="M73 136l44 13-1 1-44-12z"/><path fill="#06141e" d="M0 72l-4-7 15-8 4 7z"/><path fill="#2b3d42" d="M493 23L306-4v-1l187 26z"/><path fill="#7e8b92" d="M78 138l-6-21h2l5 21z"/><path fill="#bdced3" d="M249 115l-39-65 2-1 39 65z"/><path fill="#b192a5" d="M160 69l-1-1 4-13h2z"/><path fill="#580b07" d="M185 94l1 1-10 12-1-1z"/><path fill="#57535c" d="M4 92l10 5-17 29-9-6z"/><path fill="#836c54" d="M281 160l-2 1-8-17h1z"/><path fill="#a54e4b" d="M174 126l6-1 7 22-6 2z"/><path fill="#4c3827" d="M95 135l-6-5 23-35 7 4z"/><path fill="#000404" d="M208 35v-2l26 6v2z"/><path fill="#701f35" d="M124 77l-11 2-1-4 11-3z"/><path fill="#2c1e20" d="M135 63l9 63h-2l-9-63z"/><path fill="#959896" d="M22 116l29-33 3 3-28 33z"/><path fill="#132227" d="M85 115l1 1-7 11-1-1z"/><path fill="#642c2a" d="M340 88h4l-1 13h-4z"/><path fill="#767577" d="M118 174l-4 10-18-6 4-10z"/><path fill="#466372" d="M256 135l-1-1 9-8 1 1z"/><path fill="#8593a2" d="M24 142l1 1-4 7-1-1z"/><path fill="#abc4dd" d="M75 59l5 4v1l-6-3z"/><path fill="#52524d" d="M288 21l26 10-3 9-27-10z"/><path fill="#251d11" d="M440 33L309 10V9l131 23z"/><path fill="#495f70" d="M93 71l10 9-1 1-10-9z"/><path fill="#292d2f" d="M192 62l-1-19h6l1 19z"/><path fill="#002b37" d="M27 10l20-1v5H27z"/><path fill="#856f59" d="M106 146v-2l115 31-1 1z"/><path fill="#132830" d="M128 55l-4-2 18-40 4 2z"/><path fill="#17454d" d="M10 55L0 60l-9-20 10-5z"/><path fill="#a1c0d0" d="M251 152l-20-24 1-1 20 24z"/><path fill="#5f5b4f" d="M187 31l2-1 10 16-2 1z"/><path fill="#513937" d="M203 146l1-1 35 7v2z"/><path fill="#0d2323" d="M299 80l-12-13 3-2 12 13z"/><path fill="#624145" d="M28 49L4 19l1-1 24 30z"/><path fill="#969382" d="M47 156l2-1 2 9-1 1z"/><path fill="#d12a51" d="M22 191h1l-2 4h-2z"/><path fill="#2c2116" d="M248 4l4-6 21 15-5 6z"/><path fill="#a39290" d="M275 166l-4-3 6-6 3 4z"/><path fill="#856761" d="M235 79v-2l38-11v2z"/><path fill="#cfcbaa" d="M184 24l3-2 5 5-2 3z"/><path fill="#264a53" d="M83 64l-1-1 8-13 2 1z"/><path fill="#041311" d="M100 78l3 3-36 39-3-3z"/><path fill="#2f2a20" d="M105 129l9-40 11 3-9 39z"/><path fill="#291912" d="M152 105v-5h22v4z"/><path fill="#817b65" d="M142 133l-3 2-4-4 2-2z"/><path fill="#875c08" d="M298 178l-6 6-13-14 6-5z"/><path fill="#4b221b" d="M36 160l10-41 1 1-10 41z"/><path fill="#aeb5b0" d="M11 26V16h2l-1 10z"/><path fill="#a0b8c8" d="M281 127l-2-5 23-10 2 5z"/><path fill="#c0d4dd" d="M266 126l-27 3v-7l26-2z"/><path fill="#02191e" d="M68 34l-3 1-6-11 3-1z"/><path fill="#611324" d="M24 9L13 8l3-16 10 2z"/><path fill="#5c7b8b" d="M165 75l3 2-13 18-2-2z"/><path fill="#050908" d="M210 42l10 7v1l-11-7z"/><path fill="#6f6968" d="M270 143l-1-1 44-24 1 1z"/><path fill="#6f593c" d="M49 12l14 30h-1L48 13z"/><path fill="#2c4554" d="M42 34l10-1 1 16H43z"/><path fill="#9c958a" d="M205 21l-8-4 9-18 8 4z"/><path fill="#711821" d="M361 125l-10-13 6-4 9 13z"/><path fill="#6d8da7" d="M276 86l13-15 8 7-13 15z"/><path fill="#512913" d="M372 157l-5 16-12-3 5-17z"/><path fill="#8a696b" d="M334 166l3-7 6 2-3 7z"/><path fill="#403252" d="M41 9l-11 1-1-17 11-1z"/><path fill="#3c251d" d="M219 131l6-3 4 8-5 3z"/><path fill="#00090b" d="M160 92v-2l10 5-1 1z"/><path fill="#8f4a53" d="M8 102l1 6-12 4-2-6z"/><path fill="#111012" d="M77 78l40-40 1 2-40 39z"/><path fill="#2a2323" d="M203 103l3 7-1 1-3-7z"/><path fill="#770016" d="M115 29l-1-1 3-8h2z"/><path fill="#232119" d="M305 160l-24-4v-2l24 4z"/><path fill="#bb977e" d="M276 78l-6 21-4-1 6-21z"/><path fill="#040f11" d="M396 70v2l-66-16 1-1z"/><path fill="#9e6879" d="M175 78l4-1 1 6-5 1z"/><path fill="#6d4323" d="M245 195l2-6 34 12-2 6z"/><path fill="#814a4b" d="M5 35L1 17h2l4 18z"/><path fill="#a9afb1" d="M128 143l150 43-1 1-150-43z"/><path fill="#b0aeab" d="M270 83l-17 42-6-3 17-42z"/><path fill="#26231c" d="M204 32l84-7v1l-84 7z"/><path fill="#070c0c" d="M83 36l-4 14-10-3 3-14z"/><path fill="#460b16" d="M111 11v14h-5V11z"/><path fill="#2c221c" d="M379 50v1l-60-12v-1z"/><path fill="#64403a" d="M353 162l-9 5-8-15 9-5z"/><path fill="#337580" d="M43 191l5-6 1 1-4 6z"/><path fill="#55433a" d="M160 36l-1 6-17-4 1-6z"/><path fill="#899398" d="M140 195l-16-5 3-11 16 5z"/><path fill="#14150f" d="M348 136l-1 5-28-4 1-4z"/><path fill="#564f46" d="M306 23v2l-60 9v-1z"/><path fill="#105758" d="M2 123l-6-2 4-11 6 2z"/><path fill="#817c82" d="M209 163l-2 1-5-6 2-1z"/><path fill="#07080a" d="M338-4l2 1-5 15-1-1z"/><path fill="#621b19" d="M315 119v-8l18-1 1 8z"/><path fill="#c4d9da" d="M245 85l-39-20 1-1 39 20z"/><path fill="#4c3c24" d="M204 41l-12-4 3-10 12 3z"/><path fill="#4f5963" d="M282 2v-3l144 23-1 3z"/><path fill="#803c45" d="M24 16l2 1-2 9h-1z"/><path fill="#715a49" d="M18 133l-21 3-1-8 21-3z"/><path fill="#0a100a" d="M159 69h-1L145 5l2-1z"/><path fill="#272a25" d="M325 53l-3 5-23-9 2-6z"/><path fill="#a5908c" d="M266 51l-6 5-9-8 6-6z"/><path fill="#885e4f" d="M263 55l13-1v5l-12 1z"/><path fill="#9b2e45" d="M43 196h2l-2 6h-2z"/><path fill="#83292f" d="M129 57l13 5-1 2-13-6z"/><path fill="#000907" d="M355 97l-3 4-9-9 4-4z"/><path fill="#284357" d="M131 116v-3h14v4z"/><path fill="#3c0f14" d="M205 62l-7 10-1-1 7-10z"/><path fill="#698292" d="M381 131l7-1 2 6-8 1z"/><path fill="#88747b" d="M175-8l3-4 21 22-4 3z"/><path fill="#4d3b31" d="M318 142l12-4 3 9-12 4z"/><path fill="#0d181a" d="M386 167h-2l7-32h2z"/><path fill="#001319" d="M263 37l23 7-1 1-22-6z"/><path fill="#261d20" d="M22 168l16-32 1 1-16 32z"/><path fill="#231b11" d="M361 145l-55 3v-1l55-3z"/><path fill="#405965" d="M92 50l-23 6v-2l23-5z"/><path fill="#0f1711" d="M223 39v-1l31-4v2z"/><path fill="#2f1c1a" d="M357 111l2-6 20 8-2 6z"/><path fill="#5b4437" d="M289 161l-1 2-28-10v-1z"/><path fill="#9a9b99" d="M56 47l1 1-9 6-1-1z"/><path fill="#1f1415" d="M143 74l12 17-3 2-11-17z"/><path fill="#472d24" d="M160 104l28-27 1 1-28 28z"/><path fill="#827258" d="M332 121l35 24-1 1-34-24z"/><path fill="#825935" d="M212 187l-1 1-112-39 1-1z"/><path fill="#1e1910" d="M76 155l6 37-10 2-5-37z"/><path fill="#92715b" d="M50 157h-2l4-16 1 1z"/><path fill="#664b29" d="M341 184l-2 1-6-18h1z"/><path fill="#494d54" d="M16 113l3-5 4 2-3 6z"/><path fill="#46798d" d="M177 85h-11l-1-15 11-1z"/><path fill="#b884a0" d="M128 118l-4 2-1-2 5-2z"/><path fill="#8b483d" d="M182 135l-4 20-8-1 4-20z"/><path fill="#7c4542" d="M199 117v2l-18-3v-2z"/><path fill="#97afc1" d="M207 108l2-3 8 8-2 2z"/><path fill="#4c2622" d="M66 99l25-26 4 5-25 25z"/><path fill="#707475" d="M136 179l120 39v2l-120-39z"/><path fill="#7e97ac" d="M323 95v1l-31 17-1-1z"/><path fill="#504c4e" d="M387 141l-8-1 1-5 8 2z"/><path fill="#002225" d="M39 82l16-13 4 4-16 13z"/><path fill="#b1a587" d="M69 67l1-3 6 2-1 3z"/><path fill="#979fa3" d="M186 208l-33-17 6-13 34 17z"/><path fill="#927960" d="M77 134l4-1 6 22-4 2z"/><path fill="#969288" d="M41 112l-4 23-11-1 4-24z"/><path fill="#acafb6" d="M280 64l-1 1-16-2v-2z"/><path fill="#282720" d="M301 36l-1 2-30-7v-2z"/><path fill="#2c203b" d="M174-17l17 33-4 2-17-33z"/><path fill="#8a434a" d="M121 1h1l3 12h-2z"/><path fill="#413c3b" d="M58 62l-3-2 20-42 3 2z"/><path fill="#391e1f" d="M225 165l52 11v1l-52-11z"/><path fill="#0a4248" d="M-6 152l9-5 5 9-10 5z"/><path fill="#b7c8cd" d="M218 50l1 1-17 4v-1z"/><path fill="#2a2d3d" d="M172 39l-19-29 2-1 18 29z"/><path fill="#9a9e9f" d="M100 136l-1 2-25-7v-2z"/><path fill="#726048" d="M221-9h1l-13 35h-2z"/><path fill="#693013" d="M42-8L52 8l-2 1L40-7z"/><path fill="#0b5588" d="M172 36l-3-3 7-8 4 3z"/><path fill="#8f566a" d="M114 23l-2-1 4-12 1 1z"/><path fill="#731f18" d="M153 97l3 10-13 4-4-10z"/><path fill="#6c5958" d="M235 75h-6v-4l6-1z"/><path fill="#62696d" d="M313 9L229-6v-1l85 15z"/><path fill="#220e05" d="M281 163l2 2-9 8-2-2z"/><path fill="#9b856e" d="M67 139l1 1-8 10-2-1z"/><path fill="#704e2b" d="M57 149l-2 17-1-1 2-16z"/><path fill="#8e5b57" d="M305 167l-22-8 1-2 22 8z"/><path fill="#975852" d="M162 145l1 5h-5v-5z"/><path fill="#514248" d="M247 149l-1 1-17-16 2-1z"/><path fill="#91abb0" d="M206 142l19 23-1 1-19-23z"/><path fill="#907c64" d="M86 8v6l-11 1V9z"/><path fill="#4e3e2a" d="M260 8l1-4 34 5-1 5z"/><path fill="#615340" d="M374 134l-8-2 3-14 7 2z"/><path fill="#132e3c" d="M129 122l-8 5-2-4 8-5z"/><path fill="#914a37" d="M209 90l-3-10 9-3 3 11z"/><path fill="#4f3f2b" d="M67 139l-4-20h3l4 20z"/><path fill="#ad3f3f" d="M179 122l-1-1 7-7 1 1z"/><path fill="#2b201b" d="M65 46l68-73 1 1-68 73z"/><path fill="#704338" d="M144 91h-1l-8-21h2z"/><path fill="#d8dada" d="M263 42l11 7-1 1-11-7z"/><path fill="#0e0000" d="M334 153h2l-3 11h-1z"/><path fill="#b2b6b5" d="M232 48l-2-3 18-7 1 3z"/><path fill="#060000" d="M289 150l-5-3v-1l6 2z"/><path fill="#9f888a" d="M265 156l1-1 6 9-2 1z"/><path fill="#454f52" d="M215 39l1-1 11 6-1 1z"/><path fill="#3b1009" d="M366 135l-16-17 1-1 16 17z"/><path fill="#9d4c38" d="M175 113l-3 5-1-1 3-5z"/><path fill="#9ca4aa" d="M316 197l-44-11 1-3 44 10z"/><path fill="#161110" d="M59 110l2-8 19 5-2 8z"/><path fill="#af7d71" d="M328 169l-7 3-1-1 7-4z"/><path fill="#463d28" d="M371 207l-4 3-11-19 4-2z"/><path fill="#7e9fa9" d="M234 130v-2h25v2z"/><path fill="#362a21" d="M205 154l-11-9 3-4 11 9z"/><path fill="#0e1110" d="M354 122l-12 3-4-14 13-3z"/><path fill="#060c09" d="M68 190v-1l51 16-1 2z"/><path fill="#271e14" d="M73 176l1-3 23 9v3z"/><path fill="#9a7e9e" d="M183 26l-2 1-12-14 1-1z"/><path fill="#8d857b" d="M58 78l7 3-12 24-7-4z"/><path fill="#1c1d1a" d="M151 116l11-9 11 13-11 9z"/><path fill="#1e1817" d="M251 165l3-3 12 12-3 3z"/><path fill="#131202" d="M180 124h-2l-3-9h2z"/><path fill="#4e3c2d" d="M355 151h2l2 37h-2z"/><path fill="#1a1b1b" d="M151 195l1-2 17 11v1z"/><path fill="#925048" d="M201 138l-23-8 1-1 22 8z"/><path fill="#251103" d="M347 167v-2l26-8 1 1z"/><path fill="#1f1b17" d="M95 98l-6 2-10-31 6-2z"/><path fill="#30150e" d="M160 128l-2 21-7-1 2-20z"/><path fill="#3b3534" d="M256 134l5 8-6 4-5-8z"/><path fill="#6d4b40" d="M238 44l5 4-4 6-5-3z"/><path fill="#505a5b" d="M174 191l1-1 6 5-1 1z"/><path fill="#773c34" d="M292 137l3 15h-1l-3-15z"/><path fill="#0c1015" d="M-11 195l23-1 1 10h-24z"/><path fill="#4b453d" d="M344 46l67 11-1 1-66-10z"/><path fill="#5f332f" d="M16 16l2 29h-1l-2-29z"/><path fill="#9bb9c7" d="M277 126l3 3-8 9-4-3z"/><path fill="#7f786e" d="M25 121l-22 9-1-2 21-10z"/><path fill="#b0727c" d="M188 72l-9 10-3-2 10-10z"/><path fill="#876e70" d="M283 154v-1l7-2 1 1z"/><path fill="#080c09" d="M30 138h2l-1 48h-2z"/><path fill="#00151a" d="M130 118l-4-10 11-5 4 10z"/><path fill="#8b6c59" d="M226 139l1-1 11 9-1 1z"/><path fill="#576466" d="M49 165h-1l-2-9 2-1z"/><path fill="#61533e" d="M101 12l-8-2 1-5 8 2z"/><path fill="#0c1512" d="M368 177l-2 14-8-1 3-14z"/><path fill="#666c6c" d="M397 76l-83-18v-1l83 17z"/><path fill="#573531" d="M219 145l8 4-3 7-9-4z"/><path fill="#7b6556" d="M218 147l-11-9 1-2 11 9z"/><path fill="#32494d" d="M224 41v-1l17-1v1z"/><path fill="#2f2318" d="M359 34l2-11 47 11-2 10z"/><path fill="#50565c" d="M-19 195v-2l40-8v2z"/><path fill="#5f555b" d="M29 146l1 1-4 8h-1z"/><path fill="#140408" d="M115 31l-1-2 54-52 1 1z"/><path fill="#490e16" d="M165 148l-5-6 2-1 4 6z"/><path fill="#7c767b" d="M321 104l1 1-29 24-1-1z"/><path fill="#1a1216" d="M153 52l-1 1-35-38 1-1z"/><path fill="#4f4b45" d="M97 188l4-8 17 8-5 9z"/><path fill="#461411" d="M188 80l6-1 1 11-6 1z"/><path fill="#862d23" d="M355 101l30 8-1 1-30-8z"/><path fill="#b8775c" d="M221 128l-27 4v-5l26-4z"/><path fill="#643831" d="M45 145l-12-6 2-4 12 6z"/><path fill="#6f4241" d="M93 51l11-5 1 1-11 6z"/><path fill="#976c5b" d="M170 126l1 2-11 7-1-2z"/><path fill="#3f505b" d="M429 20L360 5V4l69 14z"/><path fill="#827976" d="M44 59l16-11 1 1-17 11z"/><path fill="#670d10" d="M328 112l-9-11 2-1 8 11z"/><path fill="#9e9f9b" d="M89 124l20-28 1 1-20 27z"/><path fill="#997654" d="M256 194l-64-19v-2l65 20z"/><path fill="#828489" d="M24 45v9h-3v-9z"/><path fill="#230d0d" d="M121 52l-10 4-5-13 10-4z"/><path fill="#90747b" d="M174 43l9 20-3 1-8-19z"/><path fill="#2f2515" d="M113 135l-1 3-23-9 1-3z"/><path fill="#3c2d21" d="M380 41l-91-23 1-1 91 23z"/><path fill="#182f32" d="M33 36h8v17h-8z"/><path fill="#3597af" d="M137 50l2 1-3 4-1-1z"/><path fill="#170e05" d="M6 122l-1-1 15-29 2 1z"/><path fill="#112c3f" d="M274 122l4 3-1 1-4-2z"/><path fill="#8095aa" d="M314 97l-31 18-1-1 31-18z"/><path fill="#001d26" d="M14 171l-21 6-5-15 21-6z"/><path fill="#5d5852" d="M367 197h-1l15-61h2z"/><path fill="#44464b" d="M315 10l7-23 15 5-7 22z"/><path fill="#828583" d="M137 173h3l6 40h-3z"/><path fill="#72593b" d="M61 103l-19 19-1-1 18-19z"/><path fill="#160400" d="M18 143L3 154l-1-2 15-11z"/><path fill="#860024" d="M25 189l1 1-6 4v-1z"/><path fill="#8a2f1e" d="M323 182l6-2 2 5-5 3z"/><path fill="#0f090a" d="M329 189l5-6 10 8-5 6z"/><path fill="#7b322f" d="M180 17l-5-8 3-2 5 8z"/><path fill="#603e36" d="M351 164l-6 3-10-23 6-3z"/><path fill="#60697d" d="M296 96l-1 8-17-1v-8z"/><path fill="#3a242d" d="M119 74l-22 29-1-1 21-28z"/><path fill="#2e0000" d="M335 172l-7 7-2-2 7-7z"/><path fill="#8a1b35" d="M27 98v2l-6-3 1-1z"/><path fill="#6f614e" d="M151 159l-63-21 1-1 62 20z"/><path fill="#828789" d="M372 193l9-51 2 1-10 50z"/><path fill="#7993a1" d="M279 69l3-3 7 7-4 3z"/><path fill="#a7825e" d="M108 146l1-1 103 35v2z"/><path fill="#594245" d="M162 31h1l2 36h-2z"/><path fill="#231a17" d="M202 89l4 6-3 2-4-7z"/><path fill="#474543" d="M145 36l-20 1v-3l20-1z"/><path fill="#605143" d="M83 168l15 2-1 8-15-3z"/><path fill="#0b0b0e" d="M51-11h6v24l-6-1z"/><path fill="#5e5c5a" d="M142 189l19 20-1 1-19-20z"/><path fill="#55605c" d="M386 106l-6-1 4-28 6 1z"/><path fill="#02161b" d="M131 51l-9 7-10-14 8-6z"/><path fill="#455a5f" d="M43 21l-17 3-1-6 17-3z"/><path fill="#510810" d="M20 182l7-3 5 9-7 4z"/><path fill="#002835" d="M140 56l-2-1 2-9h2z"/><path fill="#1c1000" d="M60 150l2-2 11 10-3 2z"/><path fill="#acafac" d="M183 165l-80-27v-1l80 26z"/><path fill="#ba675e" d="M164 143l-1-5 9-1 1 5z"/><path fill="#6993b7" d="M166 85h-2l6-9 2 1z"/><path fill="#ae8768" d="M206 98l1 1-8 5-1-1z"/><path fill="#54564e" d="M285 35l-18 2-1-1 19-3z"/><path fill="#8399a3" d="M204 143l-1 1-2-4 1-1z"/><path fill="#77323b" d="M139 106l1-1 7 10-1 1z"/><path fill="#857c75" d="M274 113h-2l9-43h2z"/><path fill="#0b1b1e" d="M113 14l1 2-32 9v-2z"/><path fill="#041b1d" d="M29 16h-6l-1-30h7z"/><path fill="#929895" d="M16 94H-8V80h24z"/><path fill="#847a66" d="M20 136l-1-1 22-13 1 1z"/><path fill="#522e31" d="M168 39l-17 4-1-5 16-4z"/><path fill="#715258" d="M141 44l-1 1-7-6 1-1z"/><path fill="#a94f2f" d="M360 133l-12-3v-2l12 3z"/><path fill="#b2b6b3" d="M233 44l-13 12-1-2 13-11z"/><path fill="#21210f" d="M60 39h-2l-7-14h2z"/><path fill="#43565d" d="M364 88v5l-11-2v-4z"/><path fill="#860a23" d="M17 177l4-15h1l-4 15z"/><path fill="#143140" d="M88 100l8 5-4 6-8-5z"/><path fill="#564334" d="M107 108l8-19 1 1-7 19z"/><path fill="#190f07" d="M373 160h-2l5-18h1z"/><path fill="#665f78" d="M119 65l17 5-1 1-16-5z"/><path fill="#584333" d="M282 58v-2l66 13v2z"/><path fill="#bc797f" d="M186 82l-1 6h-1l1-6z"/><path fill="#004b62" d="M159 7l4-1 5 13-5 2z"/><path fill="#765236" d="M311 187v-1l18 7-1 1z"/><path fill="#5a4936" d="M62 51L34 74l-1-1 28-23z"/><path fill="#6c0902" d="M145 137v5h-7l-1-4z"/><path fill="#7b7472" d="M345 198l-1 5-12-3 1-4z"/><path fill="#8f7076" d="M333 155l-7-3 2-6 7 4z"/><path fill="#051113" d="M30 86l-1-2 24-24 1 1z"/><path fill="#4f1b09" d="M352 189l-11-12 6-5 10 11z"/><path fill="#9da7ac" d="M214-6l2 1-22 22-2-1z"/><path fill="#304d52" d="M25 201l-6-2 1-2 6 3z"/><path fill="#69859b" d="M51 35h1l5 9-1 1z"/><path fill="#826c59" d="M65 150h-2l-4-29 1-1z"/><path fill="#431915" d="M323 125l-47 22v-1l46-23z"/><path fill="#644c35" d="M352 26l-18-6v-1l18 6z"/><path fill="#110406" d="M163 73l-1-1 11-15 1 1z"/><path fill="#5b646b" d="M381 17l-33-1v-3l33 1z"/><path fill="#1d0300" d="M358 148l10-1v6l-9 1z"/><path fill="#573c58" d="M81 26l8-1v3l-7 1z"/><path fill="#70737b" d="M251 142l-1-2 4-2 1 1z"/><path fill="#422225" d="M35 54L24 23h2l11 30z"/><path fill="#470e18" d="M15 191l10 16h-1l-10-15z"/><path fill="#7e6765" d="M137 134l2 1-6 7h-1z"/><path fill="#000302" d="M108 36v2l-18-7 1-1z"/><path fill="#000f0e" d="M42 188l-7 3-7-15 7-3z"/><path fill="#010b08" d="M134-25h2l-6 61h-2z"/><path fill="#2f2323" d="M271 147l2 10-4 1-3-11z"/><path fill="#322d3f" d="M134 88h-2l-2-31h2z"/><path fill="#886e4a" d="M179 91h-9v-2h9z"/><path fill="#a06c00" d="M288 171l-7-8 1-1 7 8z"/><path fill="#c47862" d="M151 93l1-1 5 4-1 1z"/><path fill="#2e322f" d="M341 85l-2 4-47-19 1-4z"/><path fill="#693a51" d="M157 17l2-1 4 10h-1z"/><path fill="#0f0e0a" d="M251-39l2 1-49 85-3-1z"/><path fill="#524d4e" d="M76 159l-6-13 6-3 6 13z"/><path fill="#18271d" d="M32 54L15 11l1-1 18 44z"/><path fill="#7d6d60" d="M343 138l-5-5 9-7 4 5z"/><path fill="#7e9396" d="M240 132l-26-14 1-1 26 14z"/><path fill="#5e5a62" d="M12 0h2l-3 14h-1z"/><path fill="#725847" d="M341 122l-10 4-2-6 10-4z"/><path fill="#595552" d="M313 43l-1 2-11-5 1-2z"/><path fill="#afbdc3" d="M258 104l-7 17-13-4 6-18z"/><path fill="#1e1c14" d="M113 98l-1-4 33-3 1 4z"/><path fill="#7d868b" d="M30 61L-2 83l-1-1 32-23z"/><path fill="#1f2c20" d="M122-2l-7 7-1-1 7-7z"/><path fill="#4d2f38" d="M17 163l-3-1 6-26 3 1z"/><path fill="#020b0b" d="M20 63L6 64v-7h14z"/><path fill="#9d866f" d="M236 197v2l-46-17 1-1z"/><path fill="#1c3744" d="M59 59l1 1-27 26-1-1z"/><path fill="#8194a0" d="M42 9h2v11h-2z"/><path fill="#493923" d="M62 155l6 2-4 12-6-2z"/><path fill="#281e15" d="M332 12l2 8-17 4-2-8z"/><path fill="#693e3a" d="M66 8l-6-1 4-14 6 2z"/><path fill="#8f3b39" d="M188 122l6-8 4 3-6 8z"/><path fill="#894646" d="M159 101v-2l18-1v1z"/><path fill="#203747" d="M283 129l-1 1-10-8 1-1z"/><path fill="#564e4d" d="M266 148l-23 13-1-1 23-13z"/><path fill="#32393e" d="M370 17l4-14h1l-3 14z"/><path fill="#042228" d="M46 148l-5 43h-1l5-43z"/><path fill="#160002" d="M272 167l1 1-3 1-1-1z"/><path fill="#6a3a46" d="M157 44h2l1 26h-2z"/><path fill="#3a1b1f" d="M164 30l1 1-2 18h-1z"/><path fill="#667077" d="M295 54l1-1 13 4v1z"/><path fill="#11181a" d="M55 60l-1-2 39-22 1 1z"/><path fill="#979890" d="M12 90l11-22 4 3-11 22z"/><path fill="#6d5842" d="M84 14l1 5-17 3-1-4z"/><path fill="#110f0e" d="M114 73l1 1-65 48-1-1z"/><path fill="#4d3e32" d="M314 143l1-2 16 5v2z"/><path fill="#191c1c" d="M394 239l3-92h8l-4 92z"/><path fill="#a1bfb7" d="M123 128h6v2h-6z"/><path fill="#0e0e07" d="M63 167l1 1-13 32-1-1z"/><path fill="#ab6b5a" d="M192 91v7h-1v-7z"/><path fill="#161315" d="M237 165l16-8 3 4-17 9z"/><path fill="#323733" d="M221 29l29 2v4l-30-1z"/><path fill="#51400b" d="M298 185l7-12h2l-8 12z"/><path fill="#65727b" d="M395 93h-8l1-19h7z"/><path fill="#98301c" d="M188 108l-2 2-7-7 2-2z"/><path fill="#958982" d="M264 145l-28 16-1-1 28-17z"/><path fill="#d6e2e4" d="M280 69h-2V58h2z"/><path fill="#402f1b" d="M73 30L96 8l1 1-23 22z"/><path fill="#73475f" d="M189 7l-3 1-5-10 3-1z"/><path fill="#43697e" d="M-1 55l1-9h3L2 56z"/><path fill="#2f2924" d="M317 43l46 11-1 2-45-12z"/><path fill="#37332d" d="M329 41v2l-47-17v-2z"/><path fill="#1b1b19" d="M85 120l-1 1-2-2 1-1z"/><path fill="#90726a" d="M237 68l-7-8 22-17 7 8z"/><path fill="#c1ced4" d="M232 76l17 6-11 31-16-6z"/><path fill="#531b27" d="M316 74l1 1-13 9-1-2z"/><path fill="#8a8070" d="M210 10l3 5-12 8-3-5z"/><path fill="#111614" d="M17 112l3 1-1 2-3-1z"/><path fill="#525d61" d="M209 148l-2 2-12-12 3-2z"/><path fill="#000400" d="M399 100l-1-26h1l2 26z"/><path fill="#042e39" d="M103 81l18 5-1 3-18-5z"/><path fill="#38505f" d="M71 124l-1-6 10-3 2 6z"/><path fill="#222325" d="M176 56l1 1-26 35-1-1z"/><path fill="#864032" d="M186 127l15 9-1 1-15-9z"/><path fill="#060806" d="M329 139l-7-3 4-11 7 4z"/><path fill="#4f5854" d="M368 93l19 11v1l-20-10z"/><path fill="#83776a" d="M369 211l-5-1 6-23 5 2z"/><path fill="#cf683c" d="M189 113v-5l8-1v5z"/><path fill="#291a17" d="M318 118l7 14-19 11-8-14z"/><path fill="#6d6153" d="M81 69l-1 3-12-2v-3z"/><path fill="#58635f" d="M260 116l-1 4h-2l1-5z"/><path fill="#896742" d="M90 148l32 6-1 10-32-7z"/><path fill="#152c3a" d="M142 24l1 2-18 4-1-1z"/><path fill="#675145" d="M262 149l-1-1 6-7 2 1z"/><path fill="#000a04" d="M156 32l-6 1-4-13 6-2z"/><path fill="#845767" d="M98 93l2-4 1 1-2 4z"/><path fill="#561011" d="M335 114l-12 3-3-14 12-3z"/><path fill="#4a4b48" d="M351 56l1-2 23 8v1z"/><path fill="#4a1900" d="M196 115v1l-3-1v-1z"/><path fill="#626b70" d="M390 127h1l-14 66h-1z"/><path fill="#62080d" d="M44 198l4-1 1 4h-5z"/><path fill="#3c6f83" d="M242 38l14-1v2h-14z"/><path fill="#d3e5ea" d="M241 127l-9-1v-7h10z"/><path fill="#5f3a15" d="M-2 129l4-1 2 7-4 1z"/><path fill="#a49ea3" d="M259 56l-1 5h-6v-5z"/><path fill="#835141" d="M120 138l-1 1-6-4 1-1z"/><path fill="#493444" d="M44 181l6-14h1l-6 15z"/><path fill="#7294ab" d="M184 34l3 3-6 9-4-3z"/><path fill="#5d513d" d="M229-22l-17 47-2-1 17-47z"/><path fill="#0c1009" d="M325 138l-1-2 12-9 1 1z"/><path fill="#220400" d="M134 73l1-10 2 1-2 9z"/><path fill="#946a53" d="M373 143l-3-7 5-3 4 7z"/><path fill="#c7846d" d="M205 122l1 14h-6l-1-14z"/><path fill="#46140f" d="M142 16l-7-4 3-5 7 4z"/><path fill="#193342" d="M72 60l-1-1 15-12 1 2z"/><path fill="#402c35" d="M13 59l-5-4 9-9 4 4z"/><path fill="#a9665a" d="M194 121l-1-1 5-5 1 1z"/><path fill="#06393b" d="M164 1l11-9 7 9-11 9z"/><path fill="#623c1e" d="M225 185l52 17v2l-52-17z"/><path fill="#525e68" d="M1 73l58-30 1 1L2 74z"/><path fill="#93754b" d="M83 118l-3-5 1-1 3 5z"/><path fill="#1e252a" d="M169 89l1 1-6 22h-2z"/><path fill="#87735a" d="M348 141l1-5 11 3-1 5z"/><path fill="#699faf" d="M244 140l-1 1-8-7 2-2z"/><path fill="#223234" d="M91 66L65 99l-1-1 25-33z"/><path fill="#18181d" d="M34 95l-9 13-1-1 9-13z"/><path fill="#9f796e" d="M305 181l6-11 1 1-6 11z"/><path fill="#4a3129" d="M244 149v2l-11 2v-2z"/><path fill="#84757a" d="M269 156l-1 2-4-3 1-2z"/><path fill="#505865" d="M198 19l4 6-8 5-4-7z"/><path fill="#b9c1cb" d="M216 82l5-13 2 1-5 13z"/><path fill="#90999c" d="M49 49l2 2-30 21-2-3z"/><path fill="#52212b" d="M109 59l-5-1 1-9 5 1z"/><path fill="#895273" d="M132 82l2-4 2 1-3 4z"/><path fill="#9ca8ae" d="M176 205l-3-5 9-6 3 5z"/><path fill="#1f1c14" d="M176 128l-1 1-15-15 1-1z"/><path fill="#64533a" d="M357 142l21-26 4 3-21 26z"/><path fill="#443933" d="M186 68l16-32 1 1-16 32z"/><path fill="#934f33" d="M148 135l-1 2-22-21 1-1z"/><path fill="#494b37" d="M142 43h1l2 9h-2z"/><path fill="#1a0c11" d="M143 73l-4-3 7-7 4 4z"/><path fill="#7d817e" d="M62 19l-1-1 3-7 2 1z"/><path fill="#7a664f" d="M48 113l22-32 2 1-22 33z"/><path fill="#79686a" d="M234 154v2l-10 1-1-2z"/><path fill="#9b9795" d="M208 144l-1 1-7-6 1-1z"/><path fill="#5a718b" d="M72 76l-8-1v-5l8 1z"/><path fill="#34291e" d="M251 12v-2l34-5v2z"/><path fill="#241911" d="M372 213l-22-26 1-1 22 26z"/><path fill="#5a2a1f" d="M140 131l-3-7 12-4 3 8z"/><path fill="#231f21" d="M339 194v-2l18 7-1 1z"/><path fill="#6b5235" d="M356 158v-17h2v17z"/><path fill="#380e09" d="M340 176l-31 11v-2l31-11z"/><path fill="#2b3a3f" d="M347 15h-5V2h5z"/><path fill="#010b02" d="M173 113h-2l-2-6h2z"/><path fill="#97b9c7" d="M209 94l9 6v1l-10-5z"/><path fill="#8f3334" d="M218 86v2l-12 6-1-2z"/><path fill="#72504d" d="M259 161l9 3v1l-9-2z"/><path fill="#4c757e" d="M207 57h-1l1-3h1z"/><path fill="#4f3c37" d="M155-6l6 13h-2l-6-12z"/><path fill="#5c4f40" d="M340 69l50 6v5l-50-6z"/><path fill="#452716" d="M195 99v3l-14 1v-3z"/><path fill="#0e2436" d="M109 76l-2 4-21-14 2-4z"/><path fill="#d8d6d7" d="M204 59l-1-1 1-6 1 1z"/><path fill="#321c1c" d="M205 65l-1 1-8-14 2-1z"/><path fill="#a70028" d="M18 166l5-4 1 2-5 3z"/><path fill="#39090f" d="M17 116h-2l-2-15h1z"/><path fill="#000d0b" d="M154 3l-13 6-2-4 12-6z"/><path fill="#8c614b" d="M212 136h-19v-1l19-1z"/><path fill="#a88765" d="M239 186l-52-15v-3l53 15z"/><path fill="#060d03" d="M149 119l1-8h3l-1 8z"/><path fill="#645641" d="M225 164l2-3 5 2-1 3z"/><path fill="#1f2a31" d="M255 132l-3-2 1-1 3 2z"/><path fill="#a48f8a" d="M248 49v-1l28 5-1 1z"/><path fill="#001912" d="M51 137l2-2 4 5-2 2z"/><path fill="#8382a4" d="M168 41l-2 2-1-1 2-2z"/><path fill="#88665a" d="M307 162l-2 4-4-1 2-5z"/><path fill="#454039" d="M51 14l1-2 27 20-1 1z"/><path fill="#620a1d" d="M39 88v1l-14 3v-2z"/><path fill="#575752" d="M123 196l17-1 1 7-17 2z"/><path fill="#1c1515" d="M206 38l13 5-2 5-13-5z"/><path fill="#58423b" d="M346 156l5-11h2l-6 12z"/><path fill="#442c18" d="M284 182h-2l-5-24 2-1z"/><path fill="#0d0000" d="M53 176h-2l1-10 2 1z"/><path fill="#c7c0c0" d="M182 71l3-1 1 5h-3z"/><path fill="#cb8b62" d="M191 101l5 5-1 1-5-5z"/><path fill="#61584d" d="M274 10l13 2v2l-14-3z"/><path fill="#0a1312" d="M135 37l2-3 17 8-2 3z"/><path fill="#8a959b" d="M136 192v-2l20 1v2z"/><path fill="#5085a6" d="M180 26l-4-6 2-1 4 7z"/><path fill="#110100" d="M19 135v2l-11 4-1-1z"/><path fill="#2e2e36" d="M170 49l-2-18h1l3 18z"/><path fill="#896055" d="M145 89h1l2 11h-2z"/><path fill="#886c62" d="M252 63h10l1 13h-11z"/><path fill="#2c0301" d="M164 147l1-1 4 5-1 1z"/><path fill="#94445a" d="M20 195l-2-17h1l3 17z"/><path fill="#2f2522" d="M323 156v2l-16 9-1-1z"/><path fill="#1e0f0d" d="M323 163v-1l6 1v2z"/><path fill="#313245" d="M98 28l1-4 11 2-1 5z"/><path fill="#9da9ad" d="M80 128l4-2 4 7-4 2z"/><path fill="#712817" d="M368 112l-3-4 13-6 2 4z"/><path fill="#66717c" d="M227 129l14 11-1 1-14-11z"/><path fill="#403939" d="M124 118l-11 13-1-1 11-13z"/><path fill="#857672" d="M285 133l1 1-19 13-1-1z"/><path fill="#451e25" d="M147 65l10-1v8h-9z"/><path fill="#849cac" d="M221 163l-1 1-11-13 1-1z"/><path fill="#767674" d="M111 167v1l-33-14v-2z"/><path fill="#2b2011" d="M282 12v3l-6-1v-3z"/><path fill="#4e595c" d="M-16 106l36-16 1 3-36 16z"/><path fill="#185859" d="M14 188l-7 2-1-1 8-3z"/><path fill="#98a3a9" d="M129 135v-1l9-2v2z"/><path fill="#999f9b" d="M45 16l1 6-2 1-1-6z"/><path fill="#652d1d" d="M187 97l-12-12 2-2 12 12z"/><path fill="#35281c" d="M70-8l7 1-2 17-6-1z"/><path fill="#a85f53" d="M177 136l20 16-1 1-20-16z"/><path fill="#040706" d="M307 149l12-16 1 1-12 16z"/><path fill="#040300" d="M355 163v7h-5v-7z"/><path fill="#003042" d="M134 49l-5 7-5-4 4-6z"/><path fill="#998b7c" d="M65 142l-2 1-4-12h1z"/><path fill="#3e666d" d="M173 83l4-18h2l-5 18z"/><path fill="#1f1d19" d="M409 83l1 1-26 44-2-1z"/><path fill="#af5e71" d="M156 72l3 4-1 1-3-4z"/><path fill="#020a03" d="M84 118l5-8 1 1-5 8z"/><path fill="#14191e" d="M23 157l8 11-2 2-8-12z"/><path fill="#4b1616" d="M354 127l-1-1 4-26h1z"/><path fill="#6a605c" d="M5 126v-3l14-1v3z"/><path fill="#66302f" d="M203 90l13-3 2 6-14 3z"/><path fill="#705744" d="M205 171l45 11v2l-46-12z"/><path fill="#455351" d="M263 37l-4 4-1-1 4-5z"/><path fill="#b2aaa0" d="M95-1l-1 4h-3l1-5z"/><path fill="#210d03" d="M337 143l1 1-8 2v-1z"/><path fill="#4a3227" d="M82 93l-17 7-2-4 17-7z"/><path fill="#694306" d="M304 185l-23-27 1-1 23 27z"/><path fill="#201d19" d="M216 22h48v1l-48 1z"/><path fill="#2f2d24" d="M298 24l-5-4 11-14 5 4z"/><path fill="#38252d" d="M23 103l26-37 2 1-27 37z"/><path fill="#6f716e" d="M220 65l1-7 1 1-1 6z"/><path fill="#684e56" d="M21 105l-3 9-3-1 3-9z"/><path fill="#7591a0" d="M266 126l4 4-3 2-4-4z"/><path fill="#4e1f1c" d="M348 84l-11 13-2-2 11-13z"/><path fill="#947d5d" d="M100 156l77 23-1 1-76-23z"/><path fill="#325758" d="M-1 34l2-20h2L0 34z"/><path fill="#5d7d90" d="M80 58l2 7-1 1-2-8z"/></svg>