<svg xmlns="http://www.w3.org/2000/svg" viewBox="0 0 400 200"><style>@keyframes a{from{opacity: 0}to{opacity: 1}}g&gt;*{opacity: 0;animation: a .5s forwards}</style><path fill="#544b47" d="M0 0h400v200H0z"/><path fill="#c5c7ca" d="M327 99L146 224l97-193z" style="animation-delay:0s"/><path fill="#b7a389" d="M56 123l368 95-268 6z" style="animation-delay:.188s"/><path fill="#121119" d="M157-16l5 167L-12-2z" style="animation-delay:.376s"/><path fill="#d8eff9" d="M201 41l30 91 46-16z" style="animation-delay:.562s"/><path fill="#040000" d="M49 126l80 98-153-33z" style="animation-delay:.746s"/><path fill="#321e13" d="M274 174L398-24l26 244z" style="animation-delay:.927s"/><path fill="#67311f" d="M129 66l231 132-200-49z" style="animation-delay:1.104s"/><path fill="#babdb4" d="M20 110l4 35 60-88z" style="animation-delay:1.277s"/><path fill="#0d0d03" d="M195 51l29-53 108 14z" style="animation-delay:1.445s"/><path fill="#bfcfd0" d="M57 46l-81 39L6 98z" style="animation-delay:1.607s"/><path fill="#8fabb8" d="M231-24l-57 55 2 40z" style="animation-delay:1.763s"/><path fill="#020509" d="M32 145L152-24 115 84z" style="animation-delay:1.912s"/><path fill="#7e7f7a" d="M398 71l-22 142-11-78z" style="animation-delay:2.054s"/><path fill="#22221a" d="M340-2l84 79-156-34z" style="animation-delay:2.187s"/><path d="M379 202l25-150 20 146z" style="animation-delay:2.312s"/><path fill="#b09e96" d="M259 37l32 22-93-8z" style="animation-delay:2.427s"/><path fill="#824915" d="M221 170h-69l122 32z" style="animation-delay:2.533s"/><path fill="#c3d9e2" d="M274 73l-37 62-33-34z" style="animation-delay:2.629s"/><path fill="#0d040d" d="M-7 132l81-75-42 13z" style="animation-delay:2.714s"/><path fill="#1b070a" d="M348 85l15 38-90-64z" style="animation-delay:2.789s"/><path fill="#4c0f04" d="M191 41l29 47-38 14z" style="animation-delay:2.853s"/><path fill="#b95e47" d="M166 159l50-32-31-43z" style="animation-delay:2.906s"/><path fill="#290d00" d="M363 201l-39-22 57-41z" style="animation-delay:2.947s"/><path fill="#70756c" d="M424 76l-50 12-59-31z" style="animation-delay:2.976s"/><path fill="#776b58" d="M124 9l-4-28-97 43z" style="animation-delay:2.994s"/></svg>