<svg xmlns="http://www.w3.org/2000/svg" viewBox="0 0 400 200"><path fill="#544b47" d="M0 0h400v200H0z"/><path fill="#d6e9f6" d="M200 88l67-49 50 68-67 49z"/><path fill="#c1af96" d="M308 239L88 180l12-45 220 59z"/><path fill="#0a0b13" d="M66 115L81-23l85 9-14 138z"/><path fill="#040000" d="M-14 130l119 34-21 70-118-34z"/><path fill="#312118" d="M404 210l-111-25L338-9l111 26z"/><path fill="#c7c3c2" d="M204 49l42-4 7 80-42 3z"/><path fill="#aea796" d="M7 129l46-48 17 17-46 47z"/><path fill="#90311d" d="M181 157l-25-13 40-78 25 13z"/><path fill="#b6c3c1" d="M52 58l-60 49-8-10 60-49z"/><path fill="#000400" d="M266 8l-50 46-18-20 50-45z"/><path fill="#96acb6" d="M181 59l-13-9 33-51 14 9z"/><path fill="#8c6356" d="M268 75l-44 3-3-35 44-4z"/><path fill="#313235" d="M271 153l-29 12-11-26 29-12z"/><path fill="#b6bab3" d="M68 145l44-61 6 4-44 61z"/><path fill="#19202a" d="M-26 16l73-36 27 56L1 72z"/></svg>