<svg xmlns="http://www.w3.org/2000/svg" viewBox="0 0 400 200"><path fill="#544b47" d="M0 0h400v200H0z"/><path fill="#cedfed" d="M200 101l57-63 66 60-56 62z"/><path fill="#c4b198" d="M97 182l12-45 192 51-12 46z"/><path fill="#0b0c14" d="M171-10l-19 137-87-12L84-23z"/><path fill="#050000" d="M112 201l-64 53-61-76 64-52z"/><path fill="#392013" d="M287 178l61-157 73 28-61 157z"/><path fill="#d1d8dc" d="M201 52l32-10 27 83-32 10z"/><path fill="#bebcb0" d="M19 137L8 126l52-52 11 11z"/><path d="M433 87l-34 193-34-6 34-194z"/><path fill="#4a2c1d" d="M293 181l-55-11 8-40 55 11z"/><path fill="#b5c3c4" d="M56 53l-78 63-7-8 78-63z"/><path fill="#060903" d="M201 41l30-57 32 17-30 57z"/><path fill="#a8c7d3" d="M210-7l7 6-38 47-7-6z"/><path fill="#28271d" d="M247 37l12-45 145 38-12 46z"/><path fill="#9b7668" d="M219 74l5-36 59 8-5 36z"/><path fill="#bc5b3e" d="M193 94l31 26-34 41-31-26z"/><path fill="#afa696" d="M115 99l-34 50-10-6 34-50z"/><path fill="#19202a" d="M45-24l30 60L0 73l-29-61z"/><path fill="#511203" d="M221 88l-60 39-15-22 60-40z"/><path fill="#00111d" d="M21 83l72-63 12 14-72 63z"/><path fill="#a0886a" d="M114 138l-7 26-50-13 7-26z"/><path fill="#bdd1dc" d="M389 218l-125-36 2-4 124 35z"/><path fill="#7c8282" d="M394 94l-19 133-11-1 19-133z"/><path fill="#bcccd6" d="M123 148l2-6 151 40-2 6z"/><path fill="#89511c" d="M286 193l-5 15-118-34 4-15z"/><path fill="#280d0c" d="M296 161l-15-24 77-52 16 23z"/><path fill="#cadce2" d="M255 130l-44-12 14-47 43 13z"/><path fill="#251816" d="M330 102l-49-36 9-13 49 36z"/><path fill="#60716f" d="M398 72l-6 31-41-8 5-30z"/><path fill="#848589" d="M245 132l11 23-37 17-11-22z"/><path fill="#0f1110" d="M160 11L41 162l-15-12L145-1z"/><path fill="#8ba2ad" d="M54 86l30-36 5 4-31 36z"/><path fill="#00020c" d="M-10 133l30 5-9 46-29-5z"/><path fill="#a46b51" d="M329 180l-65-17 3-11 64 18z"/><path fill="#94a9b6" d="M232 215l-86-24 5-17 86 25z"/><path fill="#718aa4" d="M175 78l-3-64h14l3 64z"/><path fill="#3b1911" d="M146 145l-18-36 37-18 18 36z"/><path fill="#ab926d" d="M363 147l-34-25 4-5 34 25z"/><path fill="#856c57" d="M76-8l45-7 4 25-45 7z"/><path fill="#9ea4a0" d="M-2 77l20-15 14 19-21 15z"/><path fill="#968979" d="M23 149l-7-5 54-73 6 5z"/><path fill="#ddf2f4" d="M236 40l26-1 1 4-27 1z"/><path fill="#14170e" d="M116 135l-20-15 27-38 20 15z"/><path fill="#cf7752" d="M217 126l-10 12-32-28 10-12z"/><path fill="#280f00" d="M378 150l-14 46-24-7 14-46z"/><path fill="#b6cdd9" d="M138 137l-22-3 1-7 22 3z"/><path fill="#000102" d="M400 87l25 4-27 149-24-4z"/><path fill="#000005" d="M275 47l1-8 42 9-2 8z"/><path fill="#7e5f56" d="M251 79l-28-4 6-34 27 5z"/><path fill="#000e17" d="M438-3V8L329 4V-7z"/><path fill="#688baa" d="M310 124l-34-15 12-29 35 16z"/><path fill="#160000" d="M195 84l-8-2 14-48 7 2z"/><path fill="#9f2843" d="M20 220l-9-2 8-49 10 2z"/><path fill="#5f90af" d="M177 65l4 5-28 29-4-5z"/><path fill="#956433" d="M87 139l81 22-3 14-82-22z"/><path fill="#2c171a" d="M-28 146l73-81 10 9-73 82z"/><path fill="#98918e" d="M46 190l5-45 2 1-6 45z"/><path fill="#ceeef9" d="M222 81l-12-14 7-6 12 15z"/><path fill="#b1c6ca" d="M265 41l23 13-4 7-23-14z"/><path fill="#200b06" d="M320 123l-70 41-2-4 69-41z"/><path fill="#0a0c0a" d="M81 165l-1 57-53-1 1-57z"/><path fill="#616d75" d="M178 234l-89-60 13-19 89 60z"/><path fill="#206495" d="M180 33l-7 3-20-46 7-3z"/><path fill="#b89799" d="M322 160v-12h11v12z"/><path fill="#657988" d="M241-8l76 11-1 6-75-10z"/><path fill="#aabac0" d="M270 146l-20-46 7-3 20 46z"/><path fill="#9e9088" d="M218 12l-12 12-25-25 12-12z"/><path fill="#b1bdc4" d="M110 91l1 1-32 47-1-1z"/><path fill="#734922" d="M242 192l4-12 88 27-4 12z"/><path fill="#643539" d="M167 101l-16 11-32-46 16-11z"/><path fill="#10384f" d="M243 134l16-6 6 14-16 7z"/><path fill="#b39795" d="M24 52L7 16h2l16 35z"/><path fill="#845100" d="M306 189l-29-12 6-14 29 11z"/><path fill="#bde5f5" d="M226 158l-3 6-10-5 3-6z"/><path fill="#c8e6ec" d="M237 42l-25 16-1-2 25-15z"/><path fill="#6a6458" d="M289 52l101 20-2 9-101-20z"/></svg>