<svg xmlns="http://www.w3.org/2000/svg" viewBox="0 0 400 200"><filter id="a"><feGaussianBlur stdDeviation="55"/></filter><path fill="#544b47" d="M0 0h400v200H0z"/><g filter="url(#a)"><path fill="#c2b6b3" d="M320 97L195 230l-64-59L256 37z"/><path fill="#070812" d="M92-38l79 11-21 151-79-11z"/><path fill="#e6ffff" d="M215 125l5-49 45 4-5 49z"/><path fill="#4f2112" d="M304 187l-171-46 9-33 170 46z"/><path fill="#030000" d="M51 127l51 69-74 54-50-70z"/><path fill="#351e13" d="M334-10l65 10-31 196-65-10z"/><path fill="#9b8c77" d="M101 103l73 68-36 37-73-68z"/><path d="M431 70l-35 219-29-4 35-220z"/><path fill="#b4b2a6" d="M79 81l-59 59-13-13 59-59z"/><path fill="#b6c3c1" d="M-15 95l62-48 7 10-61 48z"/></g></svg>