<svg xmlns="http://www.w3.org/2000/svg" viewBox="0 0 400 200"><path fill="#544b47" d="M0 0h400v200H0z"/><path fill="#d2e4f2" d="M253 157l-54-69 68-53 54 69z"/><path fill="#c6b398" d="M293 187l-11 42-192-51 11-43z"/><path fill="#080a12" d="M79-13l86 8-11 126-86-8z"/><path fill="#050000" d="M84 234l-112-35 21-68 112 34z"/><path fill="#e2f4f9" d="M255 131l-43-9 10-49 43 9z"/><path fill="#31160c" d="M474 138l-41 96-143-61 41-96z"/><path fill="#bcb9aa" d="M25 139l-13-12 49-55 13 12z"/><path fill="#322e27" d="M226 15l80-89L453 59l-79 88z"/><path fill="#b19991" d="M274 61l-65 16-7-27 66-16z"/><path fill="#b0bfbf" d="M53 57l-87 70-8-10 87-70z"/></svg>