<svg xmlns="http://www.w3.org/2000/svg" viewBox="0 0 400 200"><path fill="#544b47" d="M0 0h400v200H0z"/><path fill="#bfb5b2" d="M262 37l63 61-132 136-63-61z"/><path fill="#dcf6ff" d="M263 129l-54-9 8-51 54 9z"/><path fill="#0a0b13" d="M167-37l-14 159-87-8L80-45z"/><path fill="#502314" d="M353 198l-229-57 9-38 229 57z"/><path fill="#050000" d="M117 211l-83 62-65-86 83-62z"/><path fill="#2d241d" d="M467 168l-105 47-81-181 106-47z"/><path fill="#968974" d="M88 101l81 61-31 42-81-62z"/><path fill="#c1bfb2" d="M63 71l11 11-51 55-11-11z"/><path fill="#b3c0be" d="M-3 104l-8-9 56-48 8 10z"/><path fill="#eafcff" d="M202 53l11-5 12 22-12 6z"/><path fill="#080c04" d="M215-8l58 3-2 46-58-3z"/><path fill="#b9bbb7" d="M215 163l121 35-3 9-120-34z"/><path fill="#91acb8" d="M182 56l-15-10 34-50 15 9z"/><path fill="#1f0200" d="M365 102l-58 63-21-19 59-63z"/><path d="M380 202l17-106 22 3-17 107z"/><path fill="#181f2a" d="M42-23l30 61-75 36-29-60z"/><path fill="#7c9eb8" d="M249 103l44-34 28 35-44 35z"/><path fill="#995c1f" d="M128 166l3-13 193 49-3 12z"/><path fill="#c15a2f" d="M208 141l-33-29 15-17 33 28z"/><path fill="#97aab3" d="M391 136l-23 100-8-1 24-101z"/><path fill="#cdd6dc" d="M109 88l3 2-23 36-2-2z"/><path fill="#141610" d="M148 90l-38 51-19-13 38-52z"/><path fill="#0c121e" d="M-36 141L96 18l10 12-131 122z"/><path fill="#9e8077" d="M223 41l35-4 5 42-35 4z"/><path fill="#7e6f61" d="M380 75l18 4-17 70-18-5z"/><path fill="#101313" d="M48 124l48-74 24 15-49 75z"/><path fill="#cae4f0" d="M240 76l11 54-21 5-11-54z"/><path fill="#520e01" d="M200 59l21 30-20 13-20-29z"/><path fill="#6e6b60" d="M393 91l-92-25 4-15 92 25z"/><path fill="#3a3831" d="M311-31l50 83-61 37-50-83z"/><path fill="#866c57" d="M122-15l4 26-50 6-3-26z"/><path fill="#c9d7e2" d="M181 162L73 131l1-3 108 31z"/><path fill="#6c7371" d="M78 48l10 4-20 51-11-4z"/><path fill="#00030e" d="M-2 174l6-39 15 2-5 39z"/><path fill="#a1c4cd" d="M235 166l-24-7 2-8 24 7z"/><path d="M236 172l-2-5 38-21 2 4z"/><path fill="#0c0c05" d="M197 49l-3-21 30-3 2 20z"/><path fill="#aa8f67" d="M365 142l-4 5-34-25 4-5z"/><path fill="#936448" d="M330 183l-68-18 3-12 68 18z"/><path fill="#a1b3be" d="M137 136l-20-1v-10l21 1z"/><path fill="#1f0a08" d="M148 117l22-31 15 11-22 31z"/><path fill="#6c8daf" d="M157 74l27-8 4 14-26 9z"/><path fill="#9ba6a9" d="M-4 88l-4-7 64-36 4 7z"/><path fill="#e7fcff" d="M281 57l-24-17 1-1 24 16z"/><path fill="#341204" d="M322 181l38-39 17 16-39 39z"/><path fill="#00090d" d="M111 77L95 67l67-111 16 10z"/><path fill="#8a9496" d="M266 204l-6 24-159-43 7-24z"/><path fill="#a8b4b7" d="M249 36l1 3-44 23-1-2z"/><path fill="#526979" d="M349 2l58 6-2 14-57-6z"/><path fill="#8e475a" d="M29 131l-7 100-8-1 7-100z"/></svg>