<svg xmlns="http://www.w3.org/2000/svg" viewBox="0 0 400 200"><path fill="#544b47" d="M0 0h400v200H0z"/><g fill="none"><path stroke="#efffff" d="M315 112q-103 37-94-66"/><path stroke="#f7ffff" d="M215 51q35 106 106 48"/><path stroke="azure" d="M213 63q26 107 102 46"/><path stroke="#ecffff" d="M77 129q38 20 329 85"/><path stroke="#edffff" d="M318 105q-61 56-114-51"/><path stroke="#e8fbff" d="M408 224q-224-69-318-88"/><path stroke="#f1fcff" d="M318 98q-48-58-114 36"/><path stroke="#c5e7ff" d="M320 102q-54 50-152-92"/><path stroke="#eaffff" d="M210 128q24-84 110-21"/><path stroke="#edffff" d="M213 52q46 95 98 50"/><path stroke="#cfd3d3" d="M119 184q120 40 148-140"/><path stroke="#f1ffff" d="M219 49q-6 104 83 68"/><path stroke="#ebffff" d="M213 96q19 60 98 4"/><path stroke="#dadbd2" d="M83 138q291 71 321 86"/><path stroke="#e2fcff" d="M216 50q-7 109 94 66"/><path stroke="#fffff6" d="M196 129q102-40 79-82"/><path stroke="#f8ffff" d="M281 136q-83-57-57-85"/><path stroke="#ebfcff" d="M283 59q-90 20-36 89"/><path stroke="#e6f7ff" d="M319 104q-77-60-110 29"/><path stroke="#e4ffff" d="M212 50q43 83 103 53"/><path stroke="#d3c8c7" d="M319 99q-67-57-186 96"/><path stroke="#d1d4d5" d="M260 43q-37 178-107 148"/><path stroke="#fffff9" d="M276 47q20 33-81 80"/><path stroke="#effbff" d="M276 137q-85-38-17-96"/><path stroke="#c9cecc" d="M110 179q130 41 132-112"/></g></svg>