<svg xmlns="http://www.w3.org/2000/svg" viewBox="0 0 400 200"><path fill="#544b47" d="M0 0h400v200H0z"/><path fill="#dbeffe" d="M278 141l-67-17-2-77 118 51z"/><path fill="#c2b096" d="M65 127l264 67 65 30-274-30z"/><path fill="#050204" d="M161 224l-96-59 97-189-186 233z"/><path fill="#171821" d="M175 128L161-18l-185 2 147 139z"/><path fill="#301f15" d="M422 38L320 3l-10 181 104 40z"/><path fill="#c0b9b6" d="M285 56l-24-19-60 17 42 93z"/><path fill="#b3b8b0" d="M24 148L91 47l-71 66-1 16z"/><path fill="#b2bdbc" d="M12 97l-36-12 38-18 51-25z"/><path fill="#10150f" d="M197 53l36-76 53 85 58-62z"/><path fill="#904a37" d="M173 74l93 3-37-36-43 141z"/><path fill="#8fa9b4" d="M231-24l-52 93-3-33 23-40z"/><path fill="#777a78" d="M394 70l-19 2-5 152 17-60z"/><path fill="#a49e94" d="M55 144l53-47-19 37 217 53z"/><path d="M387 150l27-161 5 223-41 12z"/><path fill="#1c0703" d="M278 144l33 22 42-48 6-27z"/><path fill="#7d868f" d="M260 51l65 46-189 106 145-61z"/><path fill="#865222" d="M262 184L6 131l336 93-3-18z"/><path fill="#c9e6f0" d="M214 110l25 29 22-54-38-13z"/><path fill="#0c040e" d="M-24 149l70-87 6-5 13 12z"/><path fill="#b2563d" d="M177 153l-21-8 35-44 38 23z"/><path fill="#030812" d="M40 134l-64 90 29-94 41 74z"/><path fill="#2f1812" d="M151 35L92 143l129-91-70 90z"/><path fill="#738da6" d="M146 96l39-16 2 10-2-36z"/><path fill="#99a8b2" d="M183 224l-41-52 56 12 82 34z"/><path fill="#431810" d="M205 97l-17-5 2-44 34 40z"/></svg>