<svg xmlns="http://www.w3.org/2000/svg" viewBox="0 0 400 200"><path fill="#544b47" d="M0 0h400v200H0z"/><ellipse fill="#d4e0ea" rx="1" ry="1" transform="matrix(39.39134 -25.28879 28.07698 43.73438 252 90)"/><ellipse fill="#c1aa8e" rx="1" ry="1" transform="matrix(7.5306 -24.81803 127.16383 38.5857 206 188)"/><ellipse fill="#0a0d15" rx="1" ry="1" transform="matrix(-20.91306 72.27295 -43.2965 -12.52837 116 59)"/><ellipse fill="#030000" rx="1" ry="1" transform="matrix(68.33997 25.50353 -12.12417 32.48827 35 178)"/><ellipse fill="#302119" rx="1" ry="1" transform="matrix(72.33551 24.48179 -36.9133 109.06647 392 101)"/><ellipse fill="#a8bbc8" rx="1" ry="1" transform="matrix(-53.18667 0 0 -29.40676 268 100)"/><ellipse fill="#aeada0" rx="1" ry="1" transform="matrix(-7.76453 -6.60713 31.19068 -36.6545 48 100)"/><ellipse fill="#abb7b6" rx="1" ry="1" transform="matrix(-6.19487 -8.17665 50.4933 -38.2552 1 89)"/><ellipse fill="#040903" rx="1" ry="1" transform="matrix(15.05663 15.05663 -44.10123 44.10123 252 0)"/><ellipse fill="#343837" rx="1" ry="1" transform="matrix(-17.97557 -8.02728 33.086 -74.08984 311 41)"/><ellipse fill="#96b2be" rx="1" ry="1" transform="matrix(27.14796 -42.94382 7.45367 4.71202 201 9)"/><ellipse fill="#879396" rx="1" ry="1" transform="matrix(-9.55738 60.34292 -4.96264 -.786 382 140)"/><ellipse fill="#b3bfc9" rx="1" ry="1" transform="matrix(-.88698 3.09325 -220.50438 -63.22861 327 200)"/><ellipse fill="#9e4430" rx="1" ry="1" transform="matrix(-15.81658 -8.70201 22.61321 -41.10127 190 117)"/><ellipse fill="#aaa79b" rx="1" ry="1" transform="rotate(-144 64 47) scale(4.51816 39.23443)"/><ellipse fill="#804c3c" rx="1" ry="1" transform="matrix(-24.80298 -4.82121 3.15495 -16.2308 246 64)"/><ellipse fill="#d3e5ea" rx="1" ry="1" transform="matrix(-9.60501 -29.24146 18.06305 -5.93321 238 103)"/><ellipse fill="#191f2a" rx="1" ry="1" transform="matrix(-32.59769 37.49935 -28.57476 -24.83966 18 22)"/><ellipse rx="1" ry="1" transform="matrix(8.08705 1.0259 -13.69648 107.9673 393 166)"/><ellipse fill="#100f0f" rx="1" ry="1" transform="matrix(77.7205 -103.89114 10.36673 7.7553 106 60)"/><ellipse fill="#2d0e0a" rx="1" ry="1" transform="matrix(11.84129 13.15108 -39.46557 35.53496 326 127)"/><ellipse fill="#350900" rx="1" ry="1" transform="matrix(13.96479 -28.88755 12.17896 5.88754 158 118)"/><ellipse fill="#16161f" rx="1" ry="1" transform="matrix(44.0699 -46.92968 6.99957 6.57304 45 75)"/><ellipse fill="#87511f" rx="1" ry="1" transform="matrix(-1.72836 7.48636 -126.80013 -29.27412 262 191)"/><ellipse fill="#82939d" rx="1" ry="1" transform="matrix(3.4669 -15.01676 54.86949 12.66762 155 189)"/></svg>