<svg xmlns="http://www.w3.org/2000/svg" viewBox="0 0 400 200"><path fill="#544b47" d="M0 0h400v200H0z"/><g transform="translate(1 1) scale(1.5625)"><ellipse fill="#d4e0ea" rx="1" ry="1" transform="rotate(-125 96 -13) scale(35.11788 28.61742)"/><ellipse fill="#bda78c" rx="1" ry="1" transform="matrix(-6.26458 18.41812 -98.1963 -33.39966 146 127)"/><ellipse fill="#090c14" cx="72" cy="27" rx="30" ry="54"/><ellipse fill="#050000" rx="1" ry="1" transform="rotate(39 -163 106) scale(46.55814 29.05759)"/><ellipse fill="#2e221a" rx="1" ry="1" transform="matrix(-16.20183 -143.98893 32.87211 -3.69882 236 62)"/><path fill="#def2f9" d="M171 54l-6 27-30-7 6-27z"/><ellipse fill="#b7bbb3" rx="1" ry="1" transform="matrix(-3.78323 -3.52792 17.16608 -18.40837 27 64)"/><path fill="#b1bebd" d="M-16 47L4 63l35-34-40 17z"/><ellipse fill="#040902" rx="1" ry="1" transform="matrix(20.88185 -17.09002 7.72787 9.44249 153 10)"/><path fill="#9cc3e4" d="M198 77l-16 3 12-23 14 3z"/><path fill="#b4bcbd" d="M57 85l146 37L46 88l29-37z"/><path fill="#4b1003" d="M130 39l10 18-69 26z"/><path fill="#93b1bd" d="M142-9l-30 53 1-28z"/><path fill="#230200" d="M233 65l-39 42-15-14 39-42z"/><ellipse fill="#b9573d" rx="1" ry="1" transform="matrix(-14.35412 13.70925 -9.71404 -10.17098 120 81)"/><ellipse fill="#8499a4" rx="1" ry="1" transform="matrix(-3.51949 -.58265 4.19044 -25.3124 243 107)"/><path fill="#0b0909" d="M75 25l8 6-62 74-8-6z"/><ellipse fill="#1d232b" rx="1" ry="1" transform="matrix(8.46134 19.403 -45.9082 20.01983 0 22)"/><path fill="#bccad0" d="M243 131l-86-18 98 30-37-2z"/><path d="M236 171l19-123 19 3-19 123z"/><path fill="#845848" d="M150 25l38 14-34 13-14-13z"/><path fill="#6f7771" d="M250 70l5-22-51-13z"/><ellipse fill="#0f0712" rx="1" ry="1" transform="rotate(-49 70 0) scale(29.38937 4.9216)"/><path fill="#282b23" d="M209 4l-17 48-29-43z"/><path fill="#919189" d="M64 24L13 99V82l-9-2z"/></g></svg>