<svg xmlns="http://www.w3.org/2000/svg" viewBox="0 0 400 200"><style>@keyframes fadeIn{from{opacity: 0}to{opacity: 1}}g.animated&gt;*{opacity: 0;animation: fadeIn .5s forwards}</style><path fill="#544b47" d="M0 0h400v200H0z"/><g transform="translate(1 1) scale(1.5625)" class="animated"><ellipse fill="#d6eaf9" cx="165" cy="61" rx="34" ry="26" style="animation-delay:0s"/><ellipse fill="#b6a794" cx="111" cy="113" rx="48" ry="20" style="animation-delay:.19s"/><ellipse fill="#090c14" cx="72" cy="27" rx="30" ry="53" style="animation-delay:.38s"/><ellipse fill="#030000" cx="18" cy="120" rx="43" ry="30" style="animation-delay:.56s"/><ellipse fill="#302721" cx="238" cy="48" rx="56" ry="83" style="animation-delay:.75s"/><ellipse fill="#b1c5d2" cx="170" cy="65" rx="35" ry="17" style="animation-delay:.93s"/><ellipse fill="#b29a93" cx="154" cy="37" rx="26" ry="13" style="animation-delay:1.1s"/><ellipse fill="#000100" cx="149" cy="8" rx="13" ry="18" style="animation-delay:1.28s"/><ellipse fill="#a3896f" cx="66" cy="91" rx="27" ry="11" style="animation-delay:1.45s"/><ellipse fill="#837d79" cx="12" cy="63" rx="22" ry="23" style="animation-delay:1.61s"/><ellipse fill="#a59076" cx="156" cy="127" rx="54" ry="14" style="animation-delay:1.76s"/><ellipse fill="#a24931" cx="121" cy="84" rx="19" ry="17" style="animation-delay:1.91s"/><ellipse cx="255" cy="119" rx="9" ry="58" style="animation-delay:2.05s"/><ellipse fill="#1a202a" cx="8" cy="1" rx="30" ry="39" style="animation-delay:2.19s"/><ellipse fill="#83afc8" cx="116" cy="24" rx="6" ry="15" style="animation-delay:2.31s"/><ellipse fill="#858283" cx="174" cy="60" rx="11" ry="32" style="animation-delay:2.43s"/><ellipse fill="#450f06" cx="99" cy="77" rx="13" ry="18" style="animation-delay:2.53s"/><ellipse fill="#878a88" cx="241" cy="100" rx="4" ry="27" style="animation-delay:2.63s"/><ellipse fill="#4b2213" cx="212" cy="96" rx="29" ry="28" style="animation-delay:2.71s"/><ellipse fill="#a9aca9" cx="129" cy="4" rx="9" ry="11" style="animation-delay:2.79s"/><ellipse cx="22" cy="52" rx="8" ry="7" style="animation-delay:2.85s"/><ellipse fill="#daeaee" cx="149" cy="64" rx="11" ry="17" style="animation-delay:2.91s"/><ellipse fill="#651100" cx="127" cy="54" rx="13" ry="7" style="animation-delay:2.95s"/><ellipse fill="#000908" cx="47" cy="68" rx="12" ry="9" style="animation-delay:2.98s"/><ellipse fill="#7f584e" cx="157" cy="40" rx="16" ry="10" style="animation-delay:2.99s"/></g></svg>