<svg xmlns="http://www.w3.org/2000/svg" viewBox="0 0 400 200"><style>@keyframes a{from{opacity: 0}to{opacity: 1}}g&gt;*{opacity: 0;animation: a .5s forwards}</style><path fill="#909b99" d="M0 0h400v200H0z"/><g transform="translate(1 1) scale(1.5625)"><ellipse fill="#91e3ff" cx="183" rx="74" ry="52" style="animation-delay:0s"/><ellipse fill="#003438" rx="1" ry="1" transform="matrix(-70.24615 -37.35054 4.99029 -9.38537 49 62)" style="animation-delay:.188s"/><ellipse fill="#fff" rx="1" ry="1" transform="matrix(-49.76807 -25.59427 4.79324 -9.32045 38 79)" style="animation-delay:.376s"/><ellipse fill="#fff" rx="1" ry="1" transform="rotate(-130 115 23) scale(34.23845 16.18895)" style="animation-delay:.562s"/><ellipse fill="#fff" rx="1" ry="1" transform="matrix(79.37476 48.06379 -2.81326 4.64595 57 41)" style="animation-delay:.746s"/><path fill="#0b353b" d="M-13 104l10-24 116 46-10 24z" style="animation-delay:.927s"/><path fill="#2a0e00" d="M264 94l7 8-67 25-19-8z" style="animation-delay:1.104s"/><ellipse fill="#244646" rx="1" ry="1" transform="matrix(132.41785 85.66495 -3.6492 5.64081 79 39)" style="animation-delay:1.277s"/><path fill="#fff6d9" d="M142 58l-8 10L37-6l7-10z" style="animation-delay:1.445s"/><ellipse fill="#8f7369" rx="1" ry="1" transform="matrix(55.36545 -30.34436 14.73523 26.88548 223 76)" style="animation-delay:1.607s"/><ellipse fill="#1f342f" rx="1" ry="1" transform="matrix(-2.74272 4.1438 -36.87489 -24.40696 111 29)" style="animation-delay:1.763s"/><path fill="#fff" d="M83 143l-89-3-10-37z" style="animation-delay:1.912s"/><path fill="#614a3e" d="M107 96l13 22-43 24-13-23z" style="animation-delay:2.054s"/><ellipse fill="#ffd5b5" rx="1" ry="1" transform="matrix(-58.19537 -42.0899 4.14999 -5.73796 128 26)" style="animation-delay:2.187s"/><ellipse fill="#d8e9f2" rx="1" ry="1" transform="rotate(163 7 1) scale(20.39056 16.17967)" style="animation-delay:2.312s"/><path fill="#000803" d="M144 50l36 25-2 3-36-25z" style="animation-delay:2.427s"/><ellipse fill="#201502" rx="1" ry="1" transform="matrix(.91165 2.1477 -54.77438 23.25035 231 84)" style="animation-delay:2.533s"/><path fill="#fff" d="M157 76L28-16l101 62 48 37z" style="animation-delay:2.629s"/><path fill="#fffffd" d="M199 131l-14 12 75-30-4-4z" style="animation-delay:2.714s"/><ellipse fill="#fffff1" rx="1" ry="1" transform="matrix(-2.1417 4.06538 -36.04472 -18.98883 116 78)" style="animation-delay:2.789s"/><path fill="#dccdc3" d="M252 75l-106 49 28 17z" style="animation-delay:2.853s"/><path fill="#ffb76b" d="M39 46l3-5 55 33-3 5z" style="animation-delay:2.906s"/><path fill="#feebdb" d="M-16 41L93 97l2 5-27 13z" style="animation-delay:2.947s"/><ellipse fill="#e1a365" rx="1" ry="1" transform="matrix(2.20227 -4.68006 37.66938 17.72586 39 93)" style="animation-delay:2.976s"/><path fill="#240000" d="M11 54l-27-19 36 1z" style="animation-delay:2.994s"/></g></svg>