<svg xmlns="http://www.w3.org/2000/svg" viewBox="0 0 100 50"><path fill="#929c9c" d="M0 0h100v50H0z"/><path fill="#97e6ff" d="M21-15l51 41 44-30z"/><path fill="#12373d" d="M-15 26l91 36-38 4z"/><path fill="#fff" d="M10 34L-6 16l49 25z"/><path fill="#0f2927" d="M13 13l27 20-55-20z"/><path fill="#ffebdc" d="M28 18l69 40-36-6z"/><path fill="#7f6459" d="M116 5L91 59 57 32z"/><path fill="#ffedd9" d="M-6-8l49 35L8 14z"/><path fill="#525a5a" d="M55 66l4-27-29-12z"/><path fill="#193d42" d="M45 24L12 6l19 3z"/><path fill="#fff" d="M19 50l-34-12v15z"/><path fill="#ffeed1" d="M57 23l-25-9-4-12z"/><path fill="#0f5d70" d="M44 18l-22-6 36 21z"/><path fill="#1d1311" d="M92 39L76 50l26-9z"/><path fill="#fff" d="M57 58l44-15-34 23z"/><path fill="#feeae4" d="M75 28L38 0l25 10z"/><path fill="#102c2c" d="M64 38l5-4-22-7z"/><path fill="#473a26" d="M18-5l12-3 22 24z"/><path fill="#116078" d="M22 19l20 20L4 19z"/><path fill="#fceee3" d="M23 42L2 21l38 18z"/><path fill="#fffdf7" d="M60 66h45L59 37z"/><path fill="#01577a" d="M24 50L-5 40l9-4z"/><path fill="#fff" d="M37 11L20-10 1-15z"/><path fill="#fffff1" d="M71 33l-13-5-7-10z"/><path fill="#f8eadf" d="M5 3l34 20-18-2z"/><path fill="#8b603d" d="M-4 15l33 6L-9 1z"/><path fill="#5d4c41" d="M42 61L5 66l39-31z"/><path fill="#1b2934" d="M53 17l19 11-12-3z"/><path fill="#74b7da" d="M14-15L116 5 74 18z"/><path fill="#bab0ae" d="M94 40l-19 1 36-16z"/><path fill="#765133" d="M13 6l26 10L16-1z"/><path fill="#fbceab" d="M52 13L13-15h19z"/><path fill="#ac8051" d="M-13 21L3 36l22 3z"/><path fill="#26251e" d="M-7 20l2-11 19 8z"/><path fill="#fff8f0" d="M-15 21l34 13-31-25z"/><path fill="#3f4c49" d="M55 33l13 2-21-12z"/><path fill="#5c3916" d="M30 44l-13-5 9 7z"/><path fill="#c9b6ae" d="M75 40l11-12-25 12z"/><path fill="#fff" d="M42 13l13 8-7-1z"/><path fill="#9f9c9c" d="M42 66l4-34 25 31z"/><path fill="#826041" d="M29 22l12 12-28-15z"/><path fill="#9d7952" d="M42 23l19 5L29 8z"/><path fill="#39312e" d="M116 12v10L88 33z"/><path fill="#f0f7f5" d="M40 24l17 11-8 2z"/><path fill="#eadfcd" d="M36 28l-15-9 5-6z"/><path fill="#3c4c4a" d="M53 18v-5L39 8z"/><path fill="#e0b690" d="M19-5L9-3l24 14z"/><path fill="#6a615f" d="M116 41l-9-12-28 12z"/><path fill="#fefbf5" d="M-15 65l77 1-77-28z"/><path fill="#e3eadd" d="M69 30l-11-2-11-12z"/><path fill="#a49799" d="M75 37l28-12-12-2z"/><path fill="#f0dfd5" d="M53 54l25-15-21 23z"/><path fill="#12728e" d="M26 27l19 10-12-2z"/><path fill="#2b2a19" d="M64 26l9 1-5 2z"/><path fill="#43849a" d="M23 52l4-6L2 35z"/><path fill="#c79f7f" d="M64 28l3 6-10-5z"/><path fill="#1f708c" d="M43 19l-16-4 28 16z"/><path fill="#5c4e46" d="M75 34l-3 7 15-7z"/><path fill="#30829c" d="M8 16l9 10 16 4z"/><path fill="#8f857d" d="M40 29l20 25-3-15z"/><path fill="#352b1f" d="M81 49l4-3-8 1z"/><path fill="#86b5d3" d="M10 4L-15-8l45-7z"/><path fill="#f3cbae" d="M50 12l9 5-8-10z"/><path fill="#b7a6a1" d="M79 30L67 41l23-11z"/><path fill="#fffdfa" d="M-11-15l-2 10 24 15z"/><path fill="#3b3132" d="M98 47L71 66H42z"/><path fill="#221c18" d="M96 41l20-12v15z"/><path fill="#8caeb7" d="M9 39l-5-5-6-1z"/><path fill="#b69171" d="M22 38l12 7h-6z"/><path fill="#fff4e5" d="M30 43l-6-8 11 5z"/><path fill="#fffbf6" d="M95 46l7-6 12 1z"/><path fill="#06647d" d="M35 35l-7-8-13-3z"/><path fill="#6a615c" d="M-8 63l50-24 4 27z"/><path fill="#403e2e" d="M17 39L7 37l-2-4z"/><path fill="#e5fcff" d="M39 13l-6-7 9 6z"/><path fill="#dae1ec" d="M60 17l17 1L45 5z"/><path fill="#090400" d="M7 20L-15-3v15z"/><path fill="#bdb2ad" d="M72 42h18l11-12z"/><path fill="#b39d93" d="M48 66L0 46l19 20z"/><path fill="#786e6d" d="M97 33l-14 6 16 1z"/><path fill="#2b3126" d="M68 36h-7l-9-9z"/><path fill="#2c2614" d="M46 35l-9-4 1 3z"/><path fill="#5f514c" d="M16 1l11 12-17-8z"/><path fill="#4f4844" d="M94 19l-8 8 15-8z"/><path fill="#ffe3df" d="M44 66l57-18-15 18z"/><path fill="#10536d" d="M-2 37l21 7H3z"/><path fill="#78b4ce" d="M58-15l17 41 10-11z"/><path fill="#a7ccdd" d="M61 13l-7-4L65-4z"/><path fill="#9d928c" d="M81 27l9-10h13z"/><path fill="#dabca1" d="M24 21L8 12l12 3z"/><path fill="#fffff4" d="M35 25l9 4-6-6z"/><path fill="#4f4839" d="M46 26h6L38 16z"/><path fill="#eaf0f4" d="M24 18l2-4-13-3z"/><path fill="#e4b78c" d="M34 26l9 3 6 7z"/><path fill="#b78f70" d="M7 14l-19-5 2-17z"/><path fill="#838a90" d="M48 66l11-30-15 3z"/><path fill="#a89b8e" d="M68 33l14-7-3-5z"/><path fill="#e6d3be" d="M41 17l4-3 9 10z"/><path fill="#e0e2e2" d="M-1 18l32 17-22-5z"/><path fill="#237487" d="M31 13l5 7-14-10z"/><path fill="#b0987b" d="M53 13l6 4-7 1z"/></svg>