<svg xmlns="http://www.w3.org/2000/svg" viewBox="0 0 400 200"><style>@keyframes fadeIn{from{opacity: 0}to{opacity: 1}}g.animated&gt;*{opacity: 0;animation: fadeIn .5s forwards}</style><path fill="#909b99" d="M0 0h400v200H0z"/><g class="animated"><path fill="#89dbff" d="M209 1h179v72H209z" style="animation-delay:0s"/><path fill="#fff" d="M232 170h61v31h-61z" style="animation-delay:.2s"/><path fill="#2d4140" d="M46 166h127v35H46z" style="animation-delay:.39s"/><path fill="#000700" d="M1 57h47v27H1z" style="animation-delay:.59s"/><path fill="#fffff5" d="M29 110h59v33H29z" style="animation-delay:.78s"/><path fill="#0c424d" d="M1 137h56v40H1z" style="animation-delay:.96s"/><path fill="#fffff4" d="M88 140h49v31H88z" style="animation-delay:1.15s"/><path fill="#79615a" d="M324 60h77v131h-77z" style="animation-delay:1.33s"/><path fill="#004958" d="M65 93h51v28H65z" style="animation-delay:1.5s"/><path fill="#fff" d="M1 90h39v29H1z" style="animation-delay:1.67s"/><path fill="#0c0000" d="M227 132h44v16h-44z" style="animation-delay:1.83s"/><path fill="#00414c" d="M116 121h47v24h-47z" style="animation-delay:1.98s"/><path fill="#fff" d="M1 187h59v14H1z" style="animation-delay:2.12s"/><path fill="#fcece0" d="M1 7h44v34H1z" style="animation-delay:2.26s"/><path fill="#044d5c" d="M34 74h45v25H34z" style="animation-delay:2.38s"/><path fill="#ffffef" d="M68 52h38v27H68z" style="animation-delay:2.49s"/><path fill="#ffffea" d="M101 79h42v20h-42z" style="animation-delay:2.6s"/><path fill="#452a0e" d="M66 24h36v24H66z" style="animation-delay:2.69s"/><path fill="#fffffe" d="M246 59h31v32h-31z" style="animation-delay:2.77s"/><path fill="#fffee6" d="M38 38h35v22H38zm111 68h36v21h-36z" style="animation-delay:2.84s"/><path fill="#175c6d" d="M37 162h64v29H37z" style="animation-delay:2.9s"/><path fill="#fffdeb" d="M177 126h39v20h-39z" style="animation-delay:2.94s"/><path fill="#fffcf0" d="M232 154h28v47h-28z" style="animation-delay:2.97s"/><path fill="#03444c" d="M171 95h38v17h-38z" style="animation-delay:2.99s"/></g></svg>