<svg xmlns="http://www.w3.org/2000/svg" viewBox="0 0 400 200"><style>@keyframes fadeIn{from{opacity: 0}to{opacity: 1}}g.animated&gt;*{opacity: 0;animation: fadeIn .5s forwards}</style><path fill="#909b99" d="M0 0h400v200H0z"/><g class="animated"><path fill="#002a2f" d="M184 144l-17 17-191-98L3 39z" style="animation-delay:0s"/><path fill="#fffff1" d="M-24-8l315 232h60L139 83z" style="animation-delay:.19s"/><path fill="#94e6ff" d="M385-24H110l175 129 139-81z" style="animation-delay:.38s"/><path fill="#fff" d="M7 80l-31 19 150 73 27-15z" style="animation-delay:.56s"/><path fill="#07343b" d="M195 211L-7 123l-17 39 116 44z" style="animation-delay:.75s"/><path fill="#193c3b" d="M47 15l86 34 233 175L44 25z" style="animation-delay:.93s"/><path fill="#7f6257" d="M419 31l-4 137-110 33-66-73z" style="animation-delay:1.1s"/><path fill="#ffffe8" d="M215 84L62-24l64 73 176 99z" style="animation-delay:1.28s"/><path fill="#1f322a" d="M260 97L85-24l51 51 155 107z" style="animation-delay:1.45s"/><path fill="#6d625e" d="M172 127l61 28-6 69H85z" style="animation-delay:1.61s"/><path fill="#1b1208" d="M424 161v-18l-93 34-28 25z" style="animation-delay:1.76s"/><path fill="#fff" d="M40 189l-64-27 33 61 126 1z" style="animation-delay:1.91s"/><path fill="#fff8f3" d="M10 2l-34 6 126 75 134 72z" style="animation-delay:2.05s"/><path fill="#ffeee4" d="M270 85l9-18-169-91 178 134z" style="animation-delay:2.19s"/><path fill="#fffbf4" d="M227 191l40 33 17-47 134-64z" style="animation-delay:2.31s"/><path fill="#2c220f" d="M424 95l-26 23-135 58 12-9z" style="animation-delay:2.43s"/><path fill="#b37e4e" d="M58-9l140 95 79 56L53 17z" style="animation-delay:2.53s"/><path fill="#d59b62" d="M37 61l-61-19 61-1 211 134z" style="animation-delay:2.63s"/><path fill="#deccc2" d="M226 167l101-49 33-16-124 91z" style="animation-delay:2.71s"/><path fill="#fffcf7" d="M348 202l-97 22 173-60v5z" style="animation-delay:2.79s"/><path fill="#2f2c1f" d="M249 130l31 9-31 16-74-69z" style="animation-delay:2.85s"/><path fill="#0986ab" d="M82 48l157 100-27-29-106-72z" style="animation-delay:2.91s"/><path fill="#fff3ec" d="M270 124L43-23l224 157 56-36z" style="animation-delay:2.95s"/><path fill="#0e7fa1" d="M104 131L28 87l-5-23 174 102z" style="animation-delay:2.98s"/><path fill="#fff7f0" d="M26 90l122 66-38 7-134-66z" style="animation-delay:2.99s"/></g></svg>