<svg xmlns="http://www.w3.org/2000/svg" viewBox="0 0 400 200"><style>@keyframes a{from{opacity: 0}to{opacity: 1}}g&gt;*{opacity: 0;animation: a .5s forwards}</style><path fill="#909b99" d="M0 0h400v200H0z"/><path fill="#95e6ff" d="M287 107L116-24 424 4z" style="animation-delay:0s"/><path fill="#fff" d="M37 141l133 22L-24 63z" style="animation-delay:.196s"/><path fill="#00373e" d="M185 168L59 54l-83 8z" style="animation-delay:.392s"/><path fill="#0b353c" d="M-24 116l230 96-166-22z" style="animation-delay:.585s"/><path fill="#ffffeb" d="M199 120L-24-16 71 84z" style="animation-delay:.776s"/><path fill="#fffffa" d="M163 102l180 114-98-17z" style="animation-delay:.964s"/><path fill="#696458" d="M424 146l-100 56L51 24z" style="animation-delay:1.148s"/><path fill="#fff" d="M148 40l48 58 64 15zM-15 168l156 56-156-8z" style="animation-delay:1.327s"/><path fill="#5d5f5b" d="M162 224l76-64-112-50z" style="animation-delay:1.5s"/><path fill="#ffffea" d="M221 84L82-7l58 66z" style="animation-delay:1.667s"/><path fill="#120000" d="M360 162l-53 36 117-39z" style="animation-delay:1.826s"/><path fill="#2e2f1e" d="M134 27l68 33-98-84z" style="animation-delay:1.978s"/><path fill="#1e4648" d="M96 24l60 63L27 16z" style="animation-delay:2.121s"/><path fill="#ffefe9" d="M246 38l47 72L148 1z" style="animation-delay:2.256s"/><path fill="#fff0df" d="M-7 84l117 93 44-23z" style="animation-delay:2.38s"/><path fill="#005067" d="M262 157L123 73l81 22z" style="animation-delay:2.494s"/><path fill="#806660" d="M413 34l-145 78 155 20z" style="animation-delay:2.598s"/><path fill="#422d19" d="M-2 74l-11-42L98 90z" style="animation-delay:2.691s"/><path fill="#fffff1" d="M246 126l39 6-80-51z" style="animation-delay:2.772s"/><path fill="#004b6d" d="M-24 123l105 78-93-36z" style="animation-delay:2.841s"/><path fill="#fff4e3" d="M182 145l-75-75 131 75z" style="animation-delay:2.898s"/><path fill="#876340" d="M2 113l127 105 113 5z" style="animation-delay:2.942s"/><path fill="#060000" d="M281 137l-64-5 35 19z" style="animation-delay:2.974s"/><path fill="#d8c5be" d="M254 179l139-58-61 50z" style="animation-delay:2.994s"/></svg>