<svg xmlns="http://www.w3.org/2000/svg" viewBox="0 0 400 200"><path fill="#909b99" d="M0 0h400v200H0z"/><path fill="#94e8ff" d="M116-24l168 128L424 9z"/><path fill="#fff" d="M-24 65l89 89 95 5z"/><path fill="#002c3a" d="M165 156L57 59l-81 1z"/><path fill="#06363e" d="M182 207l-206-34 12-55z"/><path fill="#fffce2" d="M-24-18l225 142L68 84z"/><path fill="#fff" d="M235 202l-5-56 107 66z"/><path fill="#7e6359" d="M424 29l-40 195-164-90z"/><path fill="#124547" d="M35 18l88 16 81 86z"/><path fill="#fff8da" d="M234 95L134 62 60-24z"/><path fill="#284a49" d="M179 141l-9 50L46 62z"/><path fill="#fff" d="M2 173l-3 51h130z"/><path fill="#01292a" d="M154 70l131 82-75-21z"/><path fill="#262e1f" d="M168 21l41 52L104-1z"/><path fill="#fffff6" d="M234 145l-50-2-66-73z"/><path fill="#0b0100" d="M354 163l-50 38 119-44z"/><path fill="#ffdbc3" d="M290 109L118-4l111 34z"/><path fill="#fff8ea" d="M152 154l-37 22L12 87z"/><path fill="#fff4de" d="M290 135l-55-12-44-54z"/><path fill="#fff" d="M337 195l78-30-41 30z"/><path fill="#574a40" d="M173 154l-4 66-106-25z"/><path fill="#2e0900" d="M35 54L20 85l-44-42z"/><path fill="#1b2b23" d="M279 104l-6 19-60-47z"/><path fill="#fff" d="M6 85l-11 22 81 34z"/><path fill="#91623c" d="M190 79L49-15l5 49z"/><path fill="#a46e3b" d="M173 124L82 99 24 37z"/><path fill="#d6c5ba" d="M295 156l-77 12 133-61z"/><path fill="#d2cbc6" d="M276 171l125-55-55 47z"/><path fill="#74b6d9" d="M113-24L318 84l106-61z"/><path fill="#01779a" d="M79 84L41 95l114 59z"/><path fill="#b6834c" d="M-24 99l20 44 116 19z"/><path fill="#fff" d="M98 54l-50-8 98 56z"/><path fill="#0e0c05" d="M251 151l-24-14 66-5z"/><path fill="#086686" d="M96 174l-11 31-109-53z"/><path fill="#392f23" d="M315 151l41-35 50-6z"/><path fill="#fff5e8" d="M232 149l124 75-121-3z"/><path fill="#007ea5" d="M141 85l52 13 38 39z"/><path fill="#fff" d="M59 224l-64-55 82 33z"/><path fill="#fcf3f6" d="M34 10h-50l76 42z"/><path fill="#274040" d="M240 82l-47-14-34-41z"/><path fill="#167695" d="M74 38l116 77-50-59z"/><path fill="#77695f" d="M379 132l-66 61-31-16z"/><path fill="#321700" d="M151 135l30 3-55-26z"/><path fill="#e3ecf4" d="M182 27l94 69V59z"/><path fill="#fffffd" d="M304 204l6 20 67-42z"/><path fill="#aea5a1" d="M363 98l-64 53 75-35z"/><path fill="#391600" d="M115 177l-59-25 29 24z"/><path fill="#fbe5da" d="M109 38L59-24l129 89z"/><path fill="#5e98b6" d="M-24 116l98 55-58-14z"/><path fill="#c9905c" d="M-10 43l69 22-83-66z"/><path fill="#cd985e" d="M127 98l33 34 44 9z"/><path fill="#40321b" d="M298 146l-27 25 61-28z"/><path fill="#ab7845" d="M199 87l69 45-36-6z"/><path fill="#362614" d="M318 198l31-27-44 17z"/><path fill="#40413a" d="M48 65l39 42 42 6z"/><path fill="#403b32" d="M43 15l73 25-29 11z"/><path fill="#1e160c" d="M376 159l40 12-17-20z"/><path fill="#fff4f0" d="M191 34L146-2l50 18z"/><path fill="#ab8860" d="M82 6l114 78-69-21z"/><path fill="#e0ad7e" d="M256 81l-35-13 56 42z"/><path fill="#7c777c" d="M226 146l-74 11 74 67z"/><path fill="#292a1e" d="M15 131l42 23-37-8z"/><path fill="#ae8456" d="M41-24l143 53-69-53z"/><path fill="#9a9595" d="M360 166l-59 19 98-65z"/><path fill="#f2f4fb" d="M138 32l85 53-47-12z"/><path fill="#2084a1" d="M107 110l63 36-14 13z"/><path fill="#8bbdd6" d="M79-15L32 20l-56-36z"/><path fill="#fffefc" d="M223 135l-22 5-39-31z"/><path fill="#6a5e53" d="M171 146L59 212l109 9z"/><path fill="#fff7ef" d="M321 218l88-31-47 32z"/><path fill="#4d4544" d="M382 187l-86 37 75-9z"/><path fill="#dfa56a" d="M123 181l-50-25 20-4z"/><path fill="#0e0f0a" d="M276 120l-11-8 28-5z"/><path fill="#7cbad7" d="M424 6L291-24l-84 70z"/><path fill="#4d4544" d="M349 104l60-30-33 2z"/><path fill="#f0ebeb" d="M52 102l99 54-31 12z"/><path fill="#094c61" d="M10 174l-34-40 72 32z"/><path fill="#9e938d" d="M307 87l100-16-142 66z"/><path fill="#fffdfa" d="M241 101l-29-8 51 34z"/><path fill="#1a7d98" d="M27 68l74 39-69-16z"/><path fill="#524033" d="M138 59l19 25 38 12z"/><path fill="#d9e7e9" d="M246 4l-37 28 37-12z"/><path fill="#eae1db" d="M7 79l-31 30 108 11z"/><path fill="#055a76" d="M179 54l-17-23-28-10z"/><path fill="#e7b483" d="M207 87l14 23-56-37z"/><path fill="#ab8b69" d="M185 31l28 43 31 2z"/><path fill="#d0c9c6" d="M356 104l42-20-21 20z"/><path fill="#195a6a" d="M256 110l-18-29-18 3z"/><path fill="#4d3821" d="M140 27L110 6l36 9z"/><path fill="#4d8ca0" d="M51 160l56 25-31 9z"/><path fill="#a09791" d="M329 116l22 11-78 36z"/><path fill="#d2a87d" d="M63 10l5-19 52 49z"/><path fill="#fffffe" d="M379 127l45-9-11-11z"/><path fill="#20190e" d="M407 113l-34 10 48-30z"/><path fill="#7e7877" d="M335 118l63-31-19 31z"/><path fill="#e9bc8c" d="M29 118l33 31-67-31z"/><path fill="#0a0b01" d="M21 84l-33-14 36-4z"/><path fill="#f6e5dd" d="M270 185l-33-1 62-21z"/><path fill="#282b26" d="M254 152l11-7-42-30z"/><path fill="#42555a" d="M88 43l6-14 48 30z"/><path fill="#453536" d="M381 190l43-3v-16z"/></svg>