<svg xmlns="http://www.w3.org/2000/svg" viewBox="0 0 400 200"><style>@keyframes fadeIn{from{opacity: 0}to{opacity: 1}}g.animated&gt;*{opacity: 0;animation: fadeIn .5s forwards}</style><path fill="#909b99" d="M0 0h400v200H0z"/><g fill="none" class="animated"><path stroke="#fff" d="M318 208Q188 115-24-2m0 5q343 186 334 221m32 0Q295 191-24 4" style="animation-delay:0s"/><path stroke="#000" d="M173 143Q53 61-2 61" style="animation-delay:.25s"/><path stroke="#fff" d="M332 224Q294 175-19-2M4 5q309 219 360 219M-6 10q67 43 330 197" style="animation-delay:.49s"/><path stroke="#00333f" d="M388 109Q292 217 54 16" style="animation-delay:.74s"/><path stroke="#2a1300" d="M118 44q226 174 276 118" style="animation-delay:.97s"/><path stroke="#000" d="M-19 85q35-42 194 56" style="animation-delay:1.21s"/><path stroke="#fff" d="M-24 5l366 218m-63-88Q69-11 27-24" style="animation-delay:1.43s"/><path stroke="#381e00" d="M44 21Q81 8 314 185" style="animation-delay:1.64s"/><path stroke="#160000" d="M181 201Q-24 136-24 91" style="animation-delay:1.84s"/><path stroke="#1a2422" d="M-9 170q168 40 414-93" style="animation-delay:2.03s"/><path stroke="#02353c" d="M42 19q221 121 281 183" style="animation-delay:2.21s"/><path stroke="#160600" d="M279 117Q174 37 110 0" style="animation-delay:2.37s"/><path stroke="#002e3f" d="M-24 47q213 151 321 83" style="animation-delay:2.51s"/><path stroke="#00303f" d="M320 119Q193 198 1 68" style="animation-delay:2.64s"/><path stroke="#191500" d="M-13 48q194 62 178 149" style="animation-delay:2.75s"/><path stroke="#000e12" d="M290 133Q207 66 106 2" style="animation-delay:2.84s"/><path stroke="#fff" d="M298 207Q81 45 1 9" style="animation-delay:2.91s"/><path stroke="#073b44" d="M48 19q279 205 353 145" style="animation-delay:2.96s"/><path stroke="#fff" d="M274 132Q144 33 67-5m193 129Q147 53 52-24" style="animation-delay:2.99s"/></g></svg>