<svg xmlns="http://www.w3.org/2000/svg" viewBox="0 0 200 100"><path fill="#919b9b" d="M0 0h200v100H0z"/><path fill="#94e8ff" d="M216 4l-73 48-88-67z"/><path fill="#fff" d="M-15 31l49 48 42-1z"/><path fill="#00333f" d="M-15 28l58 8 53 50z"/><path fill="#07333e" d="M-15 55L9 91l83 14z"/><path fill="#fffef4" d="M126 106L69 41l113 75z"/><path fill="#fffae2" d="M26 37l67 22-108-71z"/><path fill="#7f6459" d="M186 116l30-95-109 44z"/><path fill="#33524d" d="M114 67L13 6l54 11z"/><path fill="#fffee5" d="M117 48L66 31 40-6z"/><path fill="#615d5d" d="M113 71L26 96l95 18z"/><path fill="#fff" d="M-11 81l-4 19 71 9z"/><path fill="#0b0300" d="M186 78l-29 22 56-22z"/><path fill="#362214" d="M44 43l-59-31v26z"/><path fill="#293831" d="M111 43L93 17 58 3z"/><path fill="#000f0f" d="M118 73L93 46l43 27z"/><path fill="#ffe0d0" d="M146 54L68 4l53 14z"/><path fill="#fffffc" d="M28 51l41 34-84-38z"/><path fill="#fffff8" d="M138 64l-19-2-21-28z"/><path fill="#fff" d="M117 116l87-31-44 31z"/><path fill="#100" d="M92 72H79L66 57z"/><path fill="#24322c" d="M111 40l32 15-7 8z"/><path fill="#966947" d="M22 13l72 28L33-5z"/><path fill="#fff4ec" d="M73 59l42 14-68-46z"/><path fill="#a47852" d="M73 54L-15 2l39 40z"/><path fill="#fee7dc" d="M116 97l2 19 52-43z"/><path fill="#087197" d="M94 57L71 29l-33-9z"/><path fill="#74b6d9" d="M216 10l-57 32L51-15z"/><path fill="#b78251" d="M52 79l-64-28-2 20z"/><path fill="#dfcec2" d="M115 83l29-4 25-22z"/><path fill="#ffebe1" d="M92 31L52 17 26-15z"/><path fill="#097095" d="M28 35L9 42l60 29z"/><path fill="#176686" d="M-15 80l29-11 41 36z"/><path fill="#ffeee5" d="M59 87l15-8-51-29z"/><path fill="#605145" d="M85 116l2-42-57 33z"/><path fill="#bfb7b3" d="M139 86h33l35-29z"/><path fill="#706661" d="M141 89l27 8 48-41z"/><path fill="#007299" d="M84 50l22 5 12 15z"/><path fill="#241f16" d="M175 67l28-9-10-3z"/><path fill="#ebecf8" d="M25 4L13 16-5 7z"/><path fill="#fff9ff" d="M50 27l-28-5 44 27z"/><path fill="#201d16" d="M114 66l12 10 17-8z"/><path fill="#494134" d="M96 29L53 2l20 2z"/><path fill="#9e9c9d" d="M86 104l4-41 31 41z"/><path fill="#2c211d" d="M48 27L23 12l26 6z"/><path fill="#fff" d="M34 100l-4 12-39-28z"/><path fill="#eec3a0" d="M88 3l13 24-47-37z"/><path fill="#ffeee6" d="M119 116l-2-44 56 44z"/><path fill="#fff0ec" d="M130 65l-16-17 30 18z"/><path fill="#3d3221" d="M153 73l-14 12 33-15z"/><path fill="#394747" d="M110 44L98 26l33 24z"/><path fill="#8faec7" d="M-8 55l-7 10 39 17z"/><path fill="#e7eef6" d="M103 22l36 8-2 17z"/><path fill="#d49250" d="M73 61l19 4-33-17z"/><path fill="#ae8761" d="M46 7l52 35-31-9z"/><path fill="#312617" d="M160 101l21-15-27 8z"/><path fill="#f9f3f8" d="M124 52L81 24l17 20z"/><path fill="#493d3c" d="M167 116h-33l68-25z"/><path fill="#ad794c" d="M118 64l20 5-34-22z"/><path fill="#aca39f" d="M148 76l23-21 28-1z"/><path fill="#a29b9a" d="M177 72l-30 23 51-19z"/><path fill="#0f7d9e" d="M67 72l24 4-38-19z"/><path fill="#502e07" d="M19 71l15 13 20 3z"/><path fill="#432b1f" d="M28 41L18 30l29 15z"/><path fill="#2a2216" d="M164 73l23-9-10-1z"/><path fill="#7e8287" d="M117 73l-1 43-33-43z"/><path fill="#3a3b35" d="M75 34l10 13 22 6z"/><path fill="#efa96b" d="M64 85l-28-9 15 10z"/><path fill="#fafafd" d="M98 9L75 0l31 23z"/><path fill="#0d0000" d="M12 34l-27-3 28 11z"/><path fill="#e3af88" d="M131 41l-21-7 32 23z"/><path fill="#3d88a2" d="M36 103L25 80l25 11z"/><path fill="#ece2df" d="M-7 35l63 32-71-14z"/><path fill="#351700" d="M65 57h-9L46 46z"/><path fill="#fae7da" d="M101 67l-14 6h32z"/><path fill="#eebe8a" d="M52 41l12 13-28-17z"/><path fill="#5188a1" d="M13 40l23 4-17-12z"/><path fill="#ac8662" d="M103 31L93 16l32 23z"/><path fill="#85b6d1" d="M-13-10l44 9-16 11z"/><path fill="#a6cbdf" d="M126 3l3 30-30-18z"/><path fill="#463f41" d="M205 39l-26 12 11-12z"/><path fill="#cfc9ca" d="M181 52h12l9-11z"/><path fill="#fff4f4" d="M18 21l18 3L7 6z"/><path fill="#fff2f1" d="M187 89h14l-29 11z"/><path fill="#958a89" d="M134 68l82-37-34-3z"/><path fill="#b08865" d="M95 17L23-14l32-1z"/><path fill="#fffff9" d="M184 70h-10l19-6z"/><path fill="#49382b" d="M10 75L0 62l21 11z"/><path fill="#e3b691" d="M81 35l24 7 11 17z"/><path fill="#c69c74" d="M38 11l23 7L31-4z"/><path fill="#ffe8df" d="M174 106l4 10 28-23z"/><path fill="#605448" d="M162 52l11 2-30 14z"/><path fill="#a89d96" d="M175 50l-29 15 3-21z"/><path fill="#6e6872" d="M167 38l48-24-12 17z"/><path fill="#c59567" d="M103 71l-14-1-13-12z"/><path fill="#382f26" d="M216 81l-48 11 30-16z"/><path fill="#f8eeea" d="M75 24L38 0l5-12z"/><path fill="#414849" d="M34 20l15-5 18 12z"/><path fill="#19130a" d="M145 56l-12-2 5 6z"/><path fill="#e4eff6" d="M90 36l19 3 8 13z"/><path fill="#16576d" d="M48 99l-63-19h35z"/></svg>