<svg xmlns="http://www.w3.org/2000/svg" viewBox="0 0 400 200"><path fill="#909b99" d="M0 0h400v200H0z"/><path fill="#94e8ff" d="M284 104L424 7 116-24z"/><path fill="#fff" d="M170 163L-24 65l65 80z"/><path fill="#00313a" d="M170 159L-24 62l73-11z"/><path fill="#0c373c" d="M-24 110l217 102-177-31z"/><path fill="#fffff7" d="M151 96l94 105 111 23z"/><path fill="#fffae1" d="M62 81l136 40L-24-18z"/><path fill="#6b6559" d="M424 165L81 35l220 160z"/><path fill="#fffffe" d="M146 35l130 89-74-22z"/><path fill="#374e4c" d="M156 166L54 68l180 100z"/><path fill="#0a393c" d="M101 27L34 16l122 74z"/><path fill="#fff" d="M-24 224l28-51 125 51z"/><path fill="#fffee3" d="M188 71l-84-37-33-58z"/><path fill="#1f3126" d="M160 15l50 61L109 4z"/><path fill="#1b0700" d="M302 202l122-45h-61z"/><path fill="#656262" d="M51 190l176-45 10 79z"/><path fill="#004960" d="M132 79l80 22 51 56z"/><path fill="#816760" d="M424 27l-161 88 161 47z"/><path fill="#fff3ee" d="M287 106l-33-60-95-37z"/><path fill="#fffaee" d="M20 87l132 69-39 18z"/><path fill="#8f5f35" d="M138 102L1 66-24 7z"/><path fill="#fff6ed" d="M354 224l-124-81 7 80z"/><path fill="#162b25" d="M234 98l48 15-76-53z"/><path fill="#dcc5bb" d="M243 157l59-5 41-42z"/><path fill="#a66e3f" d="M171 68L40-24l22 53z"/><path fill="#cdbdb9" d="M370 162l7-35-117 49z"/></svg>