<svg xmlns="http://www.w3.org/2000/svg" viewBox="0 0 400 200"><style>@keyframes fadeIn{from{opacity: 0}to{opacity: 1}}g.animated&gt;*{opacity: 0;animation: fadeIn .5s forwards}</style><path fill="#909b99" d="M0 0h400v200H0z"/><g class="animated"><path fill="#00242d" d="M163 162L-9 66 4 43l172 96z" style="animation-delay:0s"/><path fill="#fff" d="M140 150l-14 25-139-74L0 76z" style="animation-delay:.19s"/><path fill="#fffbe6" d="M293 216L-15 16-1-5l308 200z" style="animation-delay:.38s"/><path fill="#86e0ff" d="M438 11L268 113 195-9l170-102z" style="animation-delay:.56s"/><path fill="#00303b" d="M-31 153l16-34 173 80-16 34z" style="animation-delay:.75s"/><path fill="#00353b" d="M198 120L47 26l10-16 151 94z" style="animation-delay:.93s"/><path fill="#0a0000" d="M307 189l107-43 6 13-108 43z" style="animation-delay:1.1s"/><path fill="#fff" d="M87-5l133 93-6 9L81 4z" style="animation-delay:1.28s"/><path fill="#feffff" d="M157-14l127 96-11 15L146 1z" style="animation-delay:1.45s"/><path fill="#64554d" d="M134 208l-14-30 160-75 14 30z" style="animation-delay:1.61s"/><path fill="#fff" d="M-33 197l12-32 93 36-12 32z" style="animation-delay:1.76s"/><path fill="#7f6358" d="M294 163l-23-52 155-70 24 53z" style="animation-delay:1.91s"/><path fill="#fffef7" d="M231 210l1-56h33l-1 56z" style="animation-delay:2.05s"/><path fill="#0c2522" d="M263 117L30-58l6-8 233 176z" style="animation-delay:2.19s"/><path fill="#fff" d="M205 90l5-8 65 46-5 7z" style="animation-delay:2.31s"/><path fill="#00313a" d="M172 102l9-13 83 54-9 13z" style="animation-delay:2.43s"/><path fill="#996d41" d="M156 116l-12 19L-26 33l11-19z" style="animation-delay:2.53s"/><path fill="#0f0400" d="M309 150l94-43 2 4-94 43z" style="animation-delay:2.63s"/><path fill="#fff" d="M78 55l170 98-5 9L72 65z" style="animation-delay:2.71s"/><path fill="#170000" d="M29 62l-8 24-24-9 9-23z" style="animation-delay:2.79s"/><path fill="#fffff9" d="M437 158l3 7-157 57-3-7z" style="animation-delay:2.85s"/><path fill="#0093bb" d="M105 63l5-8 115 72-5 8z" style="animation-delay:2.91s"/><path fill="#007b9f" d="M37 77l138 73-7 12L30 89z" style="animation-delay:2.95s"/><path fill="#fff6ee" d="M66 143l9-22 70 32-9 21z" style="animation-delay:2.98s"/><path fill="#675a4f" d="M117 225l-19-41 71-33 19 41z" style="animation-delay:2.99s"/></g></svg>