<svg xmlns="http://www.w3.org/2000/svg" viewBox="0 0 2000 1000"><path fill="#909b99" d="M0 0h2000v1000H0z"/><path fill="#93e6ff" d="M1434 527l687-507L582-121z"/><path fill="#fff" d="M-121 324l937 477-546-55z"/><path fill="#073e44" d="M504 387l555 539-1180-633z"/><path fill="#01343e" d="M965 1066L129 926l-250-360z"/><path fill="#fffffb" d="M1777 1121L785 488l547 618z"/><path fill="#fffff9" d="M387 418L-19 4l953 555z"/><path fill="#686458" d="M270 137l1328 867 523-273z"/><path fill="#f9e4cd" d="M746 395L332-121l1078 758z"/><path fill="#135258" d="M223 82l890 594-328-407z"/><path fill="#fff" d="M-121 988l578 47-578-219z"/><path fill="#67605c" d="M926 1113L293 973l1008-336z"/><path fill="#0b231e" d="M543 35l289 78 195 235z"/><path fill="#150200" d="M1512 1012l289-211 320-24z"/><path fill="#1f0300" d="M-121 160l367 164-195 78z"/><path fill="#fddac2" d="M1363 277L637-4l726 531z"/><path fill="#7d645e" d="M2098 152l23 579-664-235z"/><path fill="#ffeed9" d="M668 582l492 117-883-515z"/><path fill="#fffaf3" d="M184 449l-305 55 797 344z"/><path d="M1246 754l94-39-250-149z"/><path fill="#a16d38" d="M457 535L277 285l664 367z"/><path fill="#fff5e6" d="M902 309l532 359-282-70z"/><path fill="#fff2e4" d="M1145 699l609 422-578-117z"/><path fill="#cbbbb7" d="M1777 848l-351-8 625-281z"/><path fill="#4f2602" d="M457 262l-16-156-250-16z"/><path fill="#fef5f3" d="M-105 35l484 281L160 27z"/><path fill="#2f5356" d="M1152 324l-289-70 555 391z"/><path fill="#006c93" d="M59 402l757 375-343-304z"/><path fill="#fff3e6" d="M785 348L559 66l539 360z"/><path fill="#524b3d" d="M832 1121l47-461-266 250z"/><path fill="#72b6d9" d="M645-121l914 547 562-305z"/><path fill="#fff8f0" d="M2020 848l-735 273h352z"/><path fill="#026884" d="M1215 731L973 449 566 332z"/><path fill="#b77736" d="M-51 527l594 282-406-63z"/><path fill="#166884" d="M184 707l-305 86 781 328z"/><path fill="#af7745" d="M1106 512L754 395 551 121z"/><path fill="#d7c0b4" d="M1207 801l539-274-297 274z"/><path fill="#fdf1e7" d="M551 848l226-63-476-250z"/><path fill="#230c00" d="M895 691l-102 8-141-125z"/><path fill="#9d9a9b" d="M1160 863l-297 258V621z"/><path fill="#bb824b" d="M754 301L363-19 270 82z"/><path fill="#2e2111" d="M1715 699l304-148-202 31z"/><path fill="#fff" d="M660 184L199-121h196z"/><path fill="#c78a51" d="M395 332l-516-117V43z"/><path fill="#736863" d="M2035 785l-594 71 563-235z"/><path fill="#98aeb8" d="M59 660l226 172-375-148z"/><path fill="#fff" d="M356 996L-82 840l367 258z"/><path fill="#9e7347" d="M527 20l485 195-438-336z"/><path fill="#3c251f" d="M1316 1121h352l320-195z"/><path fill="#fff8ee" d="M652-59l110-54 234 297z"/><path fill="#2e2517" d="M1262 496l211 55-133 47z"/><path fill="#ecf4fb" d="M1215 207l-55 109 289 227z"/><path fill="#faede3" d="M926 715l250 8-524-305z"/><path fill="#956e42" d="M1106 621l156-8-227-148z"/><path fill="#312c23" d="M1254 770l-141-102 321-8z"/><path fill="#3b3017" d="M207 723l399 179-258-39z"/><path fill="#a79b98" d="M1762 512l234 15-555 250z"/><path fill="#463826" d="M535 496l-195-31-180-188z"/><path fill="#3c270d" d="M1481 746l-141 102 281-102z"/><path fill="#1988ab" d="M723 316L387 207l492 320z"/><path fill="#39220f" d="M1527 934l47 39 164-110z"/><path fill="#f7eae3" d="M1160 1066l344-257-328 117z"/><path fill="#44473f" d="M863 496l235 55-446-289z"/><path fill="#c6a792" d="M1246 668l195-8 172-172z"/><path fill="#452d12" d="M1051 301l-141-86 117 125z"/><path fill="#edbe8d" d="M543 418l-211-55 336 196z"/><path fill="#5197b0" d="M215 777l312 149-125 15z"/><path fill="#bf936a" d="M1332 465l-250-94-156-211z"/><path fill="#1e1602" d="M-121 316l273-31-54 125z"/><path fill="#5b534e" d="M2121 340l-469 226 227-203z"/><path fill="#82c2e0" d="M184 90L-12-27l321-16z"/><path fill="#412e1c" d="M1535 770l86-94 188-32z"/><path fill="#372b16" d="M-4 621L98 723l94-16z"/><path fill="#7b8186" d="M1160 754l-15 367-352-398z"/><path fill="#c8914f" d="M1012 699l-125-8-133-117z"/><path fill="#645744" d="M191 98l414 133L301 20z"/><path fill="#084b5f" d="M309 871H35l-156-203z"/><path fill="#e6a768" d="M340 777l266 110-47-86z"/><path fill="#38362a" d="M496 543l235 55-344-188z"/><path fill="#6b5f53" d="M824 754l16 367-531-78z"/><path fill="#abd2e2" d="M1027 168l352 266-148-414z"/><path fill="#fffefa" d="M1949 863l-47 63 188-63z"/><path fill="#34798f" d="M168 316l406 258L98 426z"/><path fill="#f4f3f8" d="M488 262l243 273-422-273z"/><path fill="#9c9390" d="M1770 348l-305 281 617-297z"/><path fill="#2c251c" d="M2121 785l-148-31-196 164z"/><path fill="#f4efe5" d="M1504 824l109-93h110z"/><path fill="#9d9492" d="M1590 793l383-47-414 180z"/><path fill="#283330" d="M1246 465l-62 16-94-133z"/><path fill="#d0cec5" d="M1832 488l156-78-78 86z"/><path fill="#a99f9a" d="M1738 645l-257 23-125 148z"/><path fill="#f8f4f4" d="M621 848l86-55-273-86z"/><path fill="#1b1608" d="M2090 566l-8-86-180 110z"/><path fill="#fffef8" d="M1824 691l-133 39 86-54z"/><path fill="#fff1e1" d="M1809 1121l218-172-476 141z"/><path fill="#343e38" d="M1176 707h140L996 496z"/><path fill="#c0a482" d="M473 74l265 188-54 70z"/><path fill="#0085a6" d="M1043 613L910 473l-172-39z"/><path fill="#e2eff7" d="M957 402l289 157-203-196z"/><path fill="#3b3b33" d="M887 223L731 66 582 51z"/><path fill="#e2b586" d="M113 598l164 125-367-149z"/></svg>