<svg xmlns="http://www.w3.org/2000/svg" viewBox="0 0 400 200"><path fill="#909b99" d="M0 0h400v200H0z"/><path fill="#fff" d="M232 168h61v33h-61z"/><path fill="#2d3f3e" d="M49 166h124v35H49z"/><path fill="#88dbff" d="M206 1h184v70H206z"/><path d="M1 57h45v25H1z"/><path fill="#fffff8" d="M34 113h57v31H34z"/><path fill="#0e454f" d="M1 138h61v41H1z"/><path fill="#79625c" d="M321 59h80v132h-80z"/><path fill="#fffffd" d="M90 138h45v32H90z"/><path fill="#fff" d="M1 93h45v30H1z"/><path fill="#004553" d="M70 95h48v26H70z"/><path fill="#110500" d="M227 131h43v17h-43z"/><path fill="#08464a" d="M116 121h54v25h-53z"/><path fill="#004755" d="M34 77h51v22H34z"/><path fill="#fff" d="M1 187h59v14H1z"/><path fill="ivory" d="M68 54h39v25H68z"/><path fill="#fcece0" d="M1 7h44v34H1z"/><path fill="#341c02" d="M66 27h36v19H66z"/><path fill="#ffffea" d="M107 77h31v25h-31z"/><path fill="#afdef2" d="M238 59h100v28H238z"/><path fill="#fffbe4" d="M151 104h34v25h-34z"/><path fill="#fff5dc" d="M38 37h36v25H38z"/><path fill="#0f464a" d="M173 93h37v20h-37z"/><path fill="#fffff2" d="M181 121h31v25h-32z"/><path fill="#fcf9f0" d="M170 10h29v27h-30z"/><path fill="#967865" d="M266 101h60v80h-60z"/></svg>