<svg xmlns="http://www.w3.org/2000/svg" viewBox="0 0 16 8"><path fill="#c8c7c2" d="M0 0h16v8H0z"/><path d="M12 7l20-4-1 10zM3 8l4 14L-9 6z"/><path fill="#fff" d="M-11 2l-4-17L31 4z"/><path d="M11 7l12 2 9 15z"/><path fill="#fff" d="M5 5L4 0l-14 6z"/><path fill="#a7a194" d="M10 2l1 11L5 2z"/><path fill="#fffffe" d="M13 6l19-3L9 0z"/><path d="M3 7h-18l11 3z"/><path fill="#070500" d="M12 8l-4 9L32 2z"/><path fill="#bebaaf" d="M8 2l1 10 2-6z"/><path fill="#6e746a" d="M3 7h-8l-4-4z"/><path fill="#979491" d="M6 6l2-4 1 1z"/><path fill="#e6e3d3" d="M5 5l3 12 18 1z"/><path fill="#f9f9f8" d="M1 6l5-21 8 8z"/><path fill="#72756a" d="M4 8l11 16 3-10z"/><path fill="#cecac0" d="M6 6v12l4-14z"/><path fill="#090f03" d="M2 8l-15 15-2-17z"/><path fill="#5b5a4a" d="M14 6l12 4V6z"/><path fill="#fffffd" d="M32-6L-4-9 7 1z"/><path fill="#080500" d="M17 7L-5 24l-10-10z"/><path fill="#cdd0cc" d="M2 4l-17 14v-8z"/><path fill="#b0aca9" d="M9 1H7L6 3z"/><path fill="#8e8b82" d="M6 4l2 1V4z"/><path fill="#cfccbf" d="M8 5l1 19 5-9z"/><path fill="#f3f0eb" d="M12 1l1 3-3 1z"/><path fill="#9b9789" d="M10 7l9 17-7-6z"/><path fill="#dadad2" d="M12 6h5l-3-1z"/><path fill="#f2f3f1" d="M7-4L3 6v-7z"/><path fill="#f7fdff" d="M15 1l17 21-5-18z"/><path fill="#e1e2e5" d="M4 2l-9-17-4 4z"/><path fill="#fff" d="M2 5l-17 1 4 5z"/><path fill="#9b9897" d="M5 3v1l3-1z"/><path fill="#c0bcb5" d="M8 5V4l1 1z"/><path fill="#f1efe3" d="M5 8l-8 2 20 14z"/><path fill="#deded9" d="M11 6l12-4-2 4z"/><path fill="#fff" d="M2 3l-14 5 6 1z"/><path fill="#e8ebea" d="M13 5l14-20-1 11z"/><path fill="#aca89d" d="M10 6l1 18 5-5z"/><path fill="#665e47" d="M12 7l-2 9H6z"/><path d="M15 8L5 23l24-1z"/><path fill="#c4c1bd" d="M8 3l1 1-2-1z"/><path fill="#fdf8f5" d="M8 1l-23-16L32-4z"/><path fill="#feffff" d="M1 1v-4l-11-3z"/><path fill="#e0e1e6" d="M1 2l-7-15-1 13z"/><path fill="#f2f0ee" d="M13 5L6-15h6z"/><path fill="#cfccc0" d="M10 5L5 23l-10-1z"/><path fill="#22200f" d="M14 8l8 9-37-2z"/><path fill="#c8c6b8" d="M7 7l5 2-1 1z"/><path fill="#efebe8" d="M10 3l12-18-8 6z"/><path fill="#e5eaed" d="M3-6l12 7-4-13z"/><path fill="#f8f6f6" d="M4 4l3-19 3 6z"/><path fill="#505148" d="M15 7l13-8 4-10z"/><path fill="#dfe4eb" d="M15 1l11-4 5-12z"/><path fill="#4f4d40" d="M14 7l18-5-7 5z"/><path fill="#f7fbff" d="M15 1l5 5 6 1z"/><path fill="#f2f2ea" d="M3 6l2-1H3z"/><path fill="#aba7a2" d="M9 5L8 6V2z"/><path fill="#cfcbbf" d="M10 5L7 24h-22z"/><path fill="#ebf0e6" d="M-4 7l7-2-6 4z"/><path fill="#0e0c00" d="M13 8l19 16-8-13z"/><path fill="#fdfffb" d="M2 5l-17 2 6 6z"/><path fill="#cbc7bb" d="M8 5l9 19h-6z"/><path fill="#e2dfd6" d="M5 6l8 17-7 1z"/><path fill="#d8d3c5" d="M8 7l-7 9 4 1z"/><path fill="#1a1400" d="M12 8l8 8-35-3z"/><path fill="#cccabe" d="M6 6l26 18-17-5z"/><path fill="#f2f0ee" d="M11 2l2 3-2-7z"/><path fill="#f2f2f1" d="M3 4l8-11-3-4z"/><path fill="#fbf9fa" d="M12 1l1-8 4 1z"/><path fill="#ecf2ea" d="M2 6h-15l5-3z"/><path fill="#f0f1f3" d="M2 2l-17 19 2-11z"/><path fill="#f3f6f9" d="M13 1h10v3z"/><path fill="#fffdfa" d="M8 1l1-11 7-1z"/><path fill="#b7b3aa" d="M10 5L9 6 7 5z"/><path fill="#cecabe" d="M9 6l-1 4-4 3z"/><path fill="#1a1b0b" d="M23 6l-10 4 5-5z"/><path fill="#a6a296" d="M10 8L-1 24h-14z"/><path fill="#5e5a4d" d="M11 8l-3 9-13-7z"/><path fill="#313325" d="M3 8l-18 16 22-9z"/><path fill="#080900" d="M15 8v15L2 24z"/><path fill="#d6d1c4" d="M8 7L7 23H1z"/><path fill="#efefed" d="M11 3l3-1 1 2z"/><path fill="#c8c6b8" d="M10 13l10 1L8 8z"/><path fill="#fff" d="M2 3l-14 1 1 4z"/><path fill="#bcb8af" d="M8 4h1v1z"/><path fill="#f7f4f0" d="M9 1l2-8 8-7z"/><path fill="#969a93" d="M4 7l-19-2 11-3z"/><path fill="#f8fbff" d="M15 2l6-17-6 7z"/><path fill="#9da099" d="M2 7L-13-7l-2 10z"/><path fill="#f4f6f5" d="M13-15l1 18-6-18z"/><path fill="#ede6e7" d="M7 2l-8-17-4 4z"/><path fill="#fbf6f7" d="M5 2l3-17 7 5z"/><path fill="#e9ebed" d="M14 1l3-10-13-3z"/><path fill="#93968f" d="M2 7l-11 5-2-4z"/><path fill="#f1f3f3" d="M16 2l16 11-6-12z"/><path fill="#dddfdd" d="M16 6h16L30-6z"/><path fill="#cecabe" d="M11 6L0 16l-15 3z"/><path fill="#c9c7b9" d="M8 8L-5 23l37-3z"/><path fill="#f8f4f1" d="M8 1L0-15l6 2z"/><path fill="#666255" d="M12 7L-2 24l11-7z"/></svg>