<svg xmlns="http://www.w3.org/2000/svg" viewBox="0 0 400 200"><path fill="#cecec9" d="M0 0h400v200H0z"/><path d="M238 237l-2-69 171-6 3 69zm-262-59l100-5 2 47-99 5z"/><path fill="#fff" d="M434 90l-160 78-87-178 160-78zM35 143L-64 12 95-107l99 131z"/><path d="M268 231l-2-61 164-6 2 61z"/><path fill="#866d50" d="M234 108l-82 49-40-67 81-49z"/><path d="M76 219l-77 3-1-43 76-2z"/><path fill="#f5fdff" d="M-2 96l114 2-2 73-114-2z"/><path fill="#4f2d00" d="M119 81l38 40-12 12-38-40z"/><path fill="#fff" d="M159 109l-14-10 25-34 14 10z"/><path fill="#feffff" d="M401 38L3 52 1-11l398-14z"/><path fill="#bbab94" d="M181 69l40-14 50 137-40 14z"/><path fill="#f0f7f8" d="M247 26l212 49-23 101-212-49z"/><path fill="#191000" d="M267 227l-2-53 145-5 2 53z"/><path fill="#dde2e5" d="M198 55l12 3-19 79-12-3z"/><path fill="#5a3c19" d="M154 163l-4-2 25-60 5 2z"/><path fill="#7a4c18" d="M195 49l3 12-48 10-2-12z"/><path fill="#f4f9fc" d="M9-41l129 75-61 106-129-75z"/><path fill="#b29569" d="M233 144l26-3 10 72-26 4z"/><path fill="#7a6f5c" d="M221 113h3l-21 92-3-1z"/><path fill="#8b6f65" d="M202 46l-15 67-19-4 16-67z"/><path fill="#7e5846" d="M203 117l-5-1 20-57 4 2z"/><path fill="#c2c4bc" d="M218 121l-39 76-32-16 39-77z"/><path fill="#fcfbf9" d="M200 33l-36 30-13-16 37-30z"/><path fill="#7b5e35" d="M147 106l-23 12-17-32 24-12z"/><path fill="#eaf3ed" d="M168 79l-20 39-8-4 20-39z"/><path fill="#e1e5df" d="M121 182l-46-40 33-38 46 40z"/><path fill="#a2aba4" d="M389 156v5l-142 10v-5z"/><path fill="#ced0c3" d="M181 240l51-126 23 10-51 126z"/><path fill="#a38e50" d="M163 59l-7 20-15-5 8-20z"/><path fill="#98a19c" d="M75 222l3-47 17 1-2 47z"/><path fill="#653b1a" d="M194 44l3 4-40 25-2-4z"/><path fill="#cdc0a4" d="M115 90l-4-12 47-19 5 11z"/><path fill="#1d1900" d="M-3 188l78-5 2 24-78 6z"/><path fill="#f2f5f6" d="M237 117L214 1l195-38 22 116z"/><path fill="#7e6954" d="M202 113l3 1-8 34-3-1z"/><path fill="#ebf3ee" d="M144 94l8-13 24 14-8 14z"/><path fill="#d7e0de" d="M356 123l-3 42-92-8 3-42z"/><path fill="#968162" d="M230 239l-15-6 32-83 15 6z"/><path fill="#ae976b" d="M156 147l7 3-14 33-7-3z"/><path fill="#95a1a8" d="M76 171v2l-109 7-1-1z"/><path fill="#c9d3d4" d="M207 123l8-40 8 2-9 40z"/><path fill="#ac9589" d="M225 98l-22-4 5-28 22 4z"/><path fill="#a28e63" d="M232 122h5l-2 42h-5z"/><path fill="#655647" d="M220 108h1l-8 58-1-1z"/><path fill="#23210e" d="M369 200l-21-25 19-17 21 25z"/><path fill="#f4f8fa" d="M254 27l-27 34-79-64 27-34z"/><path fill="#6b5636" d="M136 126l13-17 10 7-13 18z"/><path fill="#c6c1b3" d="M178 98l-22 40-4-3 21-40z"/><path fill="#d5dedd" d="M217 186l8-84 10 1-9 84z"/><path fill="#f6fefc" d="M149 86l31-22v1l-30 22z"/><path fill="#c3bdab" d="M113 131l42-30 3 4-43 30z"/><path fill="#7c5000" d="M150 55l15 9-1 1-15-8z"/><path fill="#757c77" d="M388 170l-1-8 23-2 1 7z"/><path fill="#e8ecec" d="M7 153l-8-54 108-16 8 54z"/><path fill="#57594f" d="M-77 190v-2l156-14v2z"/><path fill="#6a5a45" d="M161 73l-10 10-4-5 10-9z"/><path fill="#1a1604" d="M396 180l3 27-128 11-2-26z"/><path fill="#9ba5a0" d="M19 174l-37-12 1-3 37 12z"/><path fill="#5c411f" d="M116 101l15-14 7 7-14 15z"/><path fill="#f3f6f8" d="M84 97L56 54l124-81 28 43z"/><path fill="#d9d7c4" d="M270 243l-14-113h1l14 113z"/><path fill="#cdb6a9" d="M203 57l-9 28-8-2 9-29z"/><path fill="#dde1dc" d="M130 259L94 103l18-5 36 157z"/><path fill="#4d3a26" d="M162 148l-4-2 9-30 5 2z"/><path fill="#5b4737" d="M203 95l8 1-3 14-8-2z"/><path fill="#25261b" d="M73 196l-1-1 6-24 2 1z"/><path fill="#828684" d="M315 154l-1 10h-8l1-11z"/><path fill="#847370" d="M219 54l-2 6-6-2 2-6z"/><path fill="#c4cac7" d="M200 107l-25 47-11-6 25-47z"/><path fill="#c2b9a5" d="M254 139l-42-26 4-7 42 27z"/><path fill="#cd8d7b" d="M201 43l1 1-20 15-1-2z"/><path fill="#f1f4f0" d="M113 66v-4l44-1v3z"/><path fill="#d9dbcd" d="M141 85l-11-18 5-3 11 17z"/><path fill="#c2c0b9" d="M187 79h1l-20 63-2-1z"/><path fill="#1b0000" d="M187 51l-2-1 2-6 1 1z"/><path fill="#87746f" d="M224 110l-4-1 4-33 5 1z"/><path fill="#715642" d="M249 202l-9-2 3-13 9 2z"/><path fill="#cad2d1" d="M282 147l123 8-1 9-123-8z"/><path fill="#382f18" d="M299 170l4 20-35 7-4-20z"/><path fill="#e4eae8" d="M259 148l-2-34 151-11 2 35z"/><path fill="#958064" d="M128 93l22 18-4 4-22-18z"/><path fill="#4c0d07" d="M198 50l1 1-8 4-1-1z"/><path fill="#c7c7bc" d="M206 213l-9-1 7-86 10 1z"/><path fill="#cebbac" d="M207 76l3-5 16 10-3 6z"/><path fill="#ecf3f2" d="M175 63l5 4-22 27-5-4z"/><path fill="#a4aca7" d="M324 162l32 4v2l-32-4z"/><path fill="#88887e" d="M288 168v3l-31-3v-3z"/><path fill="#3b2907" d="M187 59l-25 10v-1l24-11z"/><path fill="#f0f3f4" d="M133 37L-25 160l-59-76L73-40z"/><path fill="#939a97" d="M363 157l1-2 15 9-1 1z"/><path fill="#646565" d="M172 126l16-35h1l-16 36z"/><path fill="#775c51" d="M209 74l-1-2 13-7v2z"/><path fill="#4e3c25" d="M144 129l3-9 7 3-3 9z"/><path fill="#685c53" d="M191 56h2l-14 43h-2z"/><path fill="#f0f3f3" d="M200 47l50-153 189 61-50 153z"/><path fill="#d4dcdc" d="M34 170l1-11 83 7-1 11z"/><path fill="#bfb299" d="M251 122l-14 86h-2l14-87z"/><path fill="#d7dbd4" d="M69 240l16-82 1 1-16 81z"/><path fill="#997717" d="M166 65l-22-8 1-1 22 7z"/></svg>