<svg xmlns="http://www.w3.org/2000/svg" viewBox="0 0 400 200"><path fill="#cecec9" d="M0 0h400v200H0z"/><path d="M196 176l185 48 43-67zm-220 5l108-10-19 53z"/><path fill="#fff" d="M396 163l28-187L-24 4z"/><path fill="#988367" d="M207 32l77 192L95 96z"/><path d="M262 165l15 59 147-53z"/><path fill="#fff" d="M21 179L-24-2l217 3z"/><path d="M52 224l-76-40 105-8z"/><path fill="#4f2d01" d="M135 84l30 65-60-58z"/><path fill="#0a0300" d="M366 160l-143 53 201-15z"/><path fill="#d9ded7" d="M223 215l37-127-94 49z"/><path fill="#f1f8fb" d="M76-24L-24 157l161 25z"/><path fill="#734115" d="M188 68l14-27-57 18z"/><path fill="#f9feff" d="M46-21L401-4l23 142z"/><path fill="#fff" d="M168 107l8-44-35 31z"/><path fill="#67481e" d="M174 112l-25 33 2 31z"/><path fill="#f1f7f8" d="M193-24l161 159-86 27z"/><path fill="#ac8e61" d="M227 199l44 25-15-94z"/><path fill="#92847d" d="M231 91l-16-46v100z"/><path fill="#cacdc4" d="M248 176L73 224l6-58z"/><path fill="#715f57" d="M190 95l-30 51 28-109z"/><path fill="#252006" d="M238 224l186-30-115-34z"/><path fill="#f5f6f7" d="M110-23L249-9l-86 69z"/><path fill="#5b3a06" d="M151 74l9-15 30-3z"/><path fill="#282613" d="M-24 173l55 51 39-45z"/><path fill="#715645" d="M196 132l16-31-7-21z"/></svg>