<svg xmlns="http://www.w3.org/2000/svg" viewBox="0 0 400 200"><path fill="#cecec9" d="M0 0h400v200H0z"/><path d="M424 163v61H229l8-57zm-446 12l-2 44 99-6 5-37z"/><path fill="#896f50" d="M193 40l-85 50 42 74 83-78z"/><path fill="#fff" d="M214-19L54 165l-62 1-13-190z"/><path d="M266 224l136-15 22-45-157 7z"/><path fill="#fff" d="M424-1v158l-157-9L173-1z"/><path d="M75 218l2-45-83 12-18 17z"/><path fill="#5f4114" d="M107 89l13 23 41 30-31-67z"/><path fill="#beb4a2" d="M131 87l88-40 44 119 6 58z"/><path fill="#fcffff" d="M180 44l244-31L6-24l-30 159z"/><path fill="#fdffff" d="M166 110l-20-9-7-8 42-31z"/><path fill="#ebf2f3" d="M126 184l27-39L0-13l-4 159z"/><path fill="#1a1300" d="M366 160l58 27-66 37-97-29z"/><path fill="#f6fbfd" d="M400-24L212 39l39 76 152-9z"/><path fill="#775d46" d="M195 84l-34-21 35-22-52 148z"/><path fill="#79685a" d="M214 134l-3 38 22-105-10 23z"/><path fill="#ac8c5c" d="M265 176l-12-46-31 83 44 7z"/><path fill="#8a6d5c" d="M225 52l-19 61-13 48 12-81z"/><path fill="#d4dadd" d="M163 151l34-31 21-89 24-55z"/><path fill="#917651" d="M138 96l8-47 54 27-10-31z"/><path fill="#d7ceb1" d="M128 87l-25-7 52-21-10 21z"/><path fill="#533e26" d="M166 140l11-37-12 21-11 25z"/><path fill="#f3f5f7" d="M25 90l192-53 24 93 41-154z"/><path fill="#e6ede7" d="M161 104l19-38-18 4-24 46z"/><path fill="#6f5334" d="M200 40l-83 57 42 25-41-13z"/></svg>