<svg xmlns="http://www.w3.org/2000/svg" viewBox="0 0 400 200"><style>@keyframes fadeIn{from{opacity: 0}to{opacity: 1}}g.animated&gt;*{opacity: 0;animation: fadeIn .5s forwards}</style><path fill="#cecec9" d="M0 0h400v200H0z"/><g class="animated"><path d="M237 165h164v36H237zM1 176h76v25H1z" style="animation-delay:0s"/><path d="M266 168h135v33H266z" style="animation-delay:.2s"/><path fill="#97836a" d="M118 56h108v90H118z" style="animation-delay:.41s"/><path fill="#fff" d="M1 1h400v94H1z" style="animation-delay:.61s"/><path fill="#9e8e79" d="M113 49h114v74H113z" style="animation-delay:.81s"/><path d="M1 179h75v22H1z" style="animation-delay:1s"/><path fill="#fbffff" d="M1 1h114v167H1z" style="animation-delay:1.2s"/><path fill="#faffff" d="M254 1h147v150H254z" style="animation-delay:1.38s"/><path fill="#4d2a00" d="M110 85h30v25h-30z" style="animation-delay:1.56s"/><path fill="#c2a576" d="M231 135h34v66h-34z" style="animation-delay:1.73s"/><path fill="#632c10" d="M176 45h22v22h-22z" style="animation-delay:1.89s"/><path fill="#fff" d="M113 1h33v75h-33zm36 76h22v32h-22z" style="animation-delay:2.05s"/><path fill="#170f00" d="M270 173h131v28H270z" style="animation-delay:2.19s"/><path fill="#7e6b4a" d="M148 115h20v45h-20z" style="animation-delay:2.33s"/><path fill="#e0e6e1" d="M96 116h38v85H96z" style="animation-delay:2.45s"/><path fill="#fafeff" d="M115 1h69v53h-69z" style="animation-delay:2.56s"/><path fill="#482800" d="M135 118h19v13h-19z" style="animation-delay:2.66s"/><path fill="#7c5a19" d="M149 57h36v11h-36z" style="animation-delay:2.75s"/><path fill="#c3c4be" d="M174 109h41v92h-41z" style="animation-delay:2.83s"/><path fill="#f1f5f5" d="M229 1h172v117H229z" style="animation-delay:2.89s"/><path fill="#d8e5e6" d="M260 135h41v34h-41z" style="animation-delay:2.94s"/><path fill="#1e1e0b" d="M357 162h28v39h-28z" style="animation-delay:2.97s"/><path fill="#eff5f7" d="M1 101h117v29H1z" style="animation-delay:2.99s"/></g></svg>