<svg xmlns="http://www.w3.org/2000/svg" viewBox="0 0 400 200"><path fill="#cecec9" d="M0 0h400v200H0z"/><g fill="none"><path stroke="#000" d="M412 197q-110-12-218 10m205-8H219"/><path stroke="#160500" d="M113 78q49 111 291 115"/><path stroke="#181300" d="M-24 179q269 32 448-2"/><path stroke="#150400" d="M424 191q-232 3-302-103"/><path stroke="#100000" d="M424 192Q173 176 112 90"/><path stroke="#000" d="M-10 186q140 38 411-15"/><path stroke="#180500" d="M411 201Q142 182 120 86"/><path stroke="#251300" d="M424 192Q142 221 129 78"/><path stroke="#000" d="M-24 160q13 64 423 30m-170 3q145-45 175 1m-162-1q126-27 159-3"/><path stroke="#231d0a" d="M-24 189q71 31 448-27"/><path stroke="#251300" d="M114 99q109 125 289 74"/><path stroke="#151100" d="M-6 207q15-43 421-28"/><path stroke="#000" d="M424 174q-172 31-183 4"/><path stroke="#1c1704" d="M424 193q-321-55-448 22"/><path stroke="#000" d="M244 195q175 13 180-6m-196-22q90 11 196 2m-18 30q-18-56-178-10"/><path stroke="#251500" d="M399 182q-76 42-290-94"/><path stroke="#2a240f" d="M424 164q-10 14-435 35"/><path stroke="#000" d="M424 197q-185 2-186-37m175 2q-24 16-180 32"/><path stroke="#261800" d="M405 194Q187 166 116 94"/></g></svg>