<svg xmlns="http://www.w3.org/2000/svg" viewBox="0 0 400 200"><path fill="#cecec9" d="M0 0h400v200H0z"/><path d="M236 204v-37l186-4v38zM77 174l2 44-98 3-2-43z"/><path fill="#fff" d="M185-4l170-90 93 175-170 90zM41 172L-73 73 57-77 172 23z"/><path d="M435 163l2 51-170 9-3-51z"/><path fill="#886e50" d="M196 38l39 65-85 52-40-66z"/><path d="M77 217l-78 5-3-40 78-6z"/><path fill="#4f2e00" d="M119 80l39 43-13 11-39-43z"/><path fill="#fff" d="M383 1L4 88l-17-74 379-88z"/><path fill="#beb6a6" d="M215 49l54 131-64 26-53-132z"/><path fill="#fff" d="M152 110l-13-15 30-25 13 15z"/><path fill="#ecf3f4" d="M14 121l41-55 99 74-42 55z"/><path fill="#f4fafc" d="M223 113l40-141 191 54-40 142z"/><path fill="#170f00" d="M265 175l145-5 2 34-146 6z"/><path fill="#5b2200" d="M159 62l35-18 4 8-34 18z"/><path fill="#675137" d="M146 168l37-81 7 3-37 81z"/><path fill="#b89c6e" d="M228 145l35-2 4 64-34 2z"/><path fill="#5a4735" d="M212 159l-3-1 15-59 3 1z"/><path fill="#dce0e0" d="M213 48l-25 99-9-3 25-98z"/><path fill="#fbfdff" d="M135 28l38-33 31 35-38 33z"/><path fill="#846754" d="M193 158l-3-1 28-98 3 1z"/><path fill="#936f0c" d="M150 53l16 7-5 10-16-7z"/><path fill="#765a4e" d="M170 98l20-54 8 3-21 54z"/><path fill="#604520" d="M114 103l20-17 10 12-20 17z"/><path fill="#edf3f6" d="M35 172l-82-20 20-82 82 20z"/><path fill="#c2c6c1" d="M187 182l-26-5 13-64 26 5z"/><path fill="#dbe4e2" d="M257 116l158-16 5 48-158 16z"/><path fill="#9a9f97" d="M240 166l106-5v3l-106 5z"/><path fill="#99a29d" d="M78 171l17 2-3 35-17-1z"/><path fill="#1c1700" d="M-12 216l-2-25 87-8 2 25z"/><path fill="#98a4a1" d="M441 175l-85-14 1-6 85 14z"/><path fill="#eff7f5" d="M146 101l26-38 9 7-26 37z"/><path fill="#cfccbd" d="M175 100l-71 37-2-4 70-37z"/><path fill="#dce4e0" d="M226 109l8 1-8 95-8-1z"/><path fill="#aa958a" d="M231 82l-17 5-9-26 16-6z"/><path fill="#f2f6f8" d="M1 75L192-40l30 51L32 126z"/><path fill="#cdbf9d" d="M160 68l-41 20-5-11 40-20z"/><path fill="#957d5d" d="M229 202l18-48 13 5-18 48z"/><path fill="#695129" d="M153 79l-5-6 19-16 5 6z"/><path fill="#412810" d="M158 149l15-38 2 1-15 38z"/><path fill="#929da5" d="M80 174l-118 6v-2l118-6z"/><path fill="#7a5943" d="M199 111l7-29 6 2-7 29z"/><path fill="#f4f7fa" d="M191 37l28-43 51 33-28 43z"/><path fill="#201d09" d="M368 159l28 33-24 22-29-33z"/><path fill="#e5eaea" d="M110 173l-83-3 2-57 83 3z"/><path fill="#cecdc0" d="M130 121l32 66-18 9-32-66z"/><path fill="#cacbc3" d="M172 129l39 16-16 37-39-16z"/><path fill="#3c331c" d="M284 167l6 26-22 4-6-25z"/><path fill="#cfd5ce" d="M222 203l21-65 3 1-22 65z"/><path fill="#d7c4a1" d="M265 174l-1 45h-5l1-46z"/><path fill="#684f31" d="M154 132l-6 5-28-36 6-5z"/><path fill="#cad7d6" d="M207 140l-6-2 15-45 6 2z"/><path fill="#a28e66" d="M232 114h1l2 36h-1z"/><path fill="#cccabd" d="M136 169l37-79 5 2-37 79z"/><path fill="#968870" d="M132 107l17-34 5 3-17 34z"/><path fill="#725c3c" d="M154 109l8 3-8 18-8-3z"/><path d="M185 50l5-6 2 1-6 6z"/><path fill="#e2e2d9" d="M143 57l4 27-11 1-3-26z"/><path fill="#9d8c80" d="M181 63l13 5-11 27-13-5z"/><path fill="#8a9291" d="M314 163l-11 1v-10h11z"/><path fill="#d3d7d1" d="M95 169h39v48H95z"/><path fill="#e6f0ec" d="M158 107l5-23 9 2-5 23z"/><path fill="#f0f4f5" d="M-96 64l76-179 183 78-76 178z"/><path fill="#8c5a00" d="M159 57l-2 6-9-3 3-6z"/><path fill="#8b746f" d="M230 78l-5 21-3-1 5-21z"/><path fill="#463517" d="M161 70v-2l23-8 1 2z"/><path fill="#211b06" d="M321 231l-40-33 28-34 40 34z"/><path fill="#f1f3f4" d="M232 112L216-42l197-21 17 154z"/><path fill="#ac8d5a" d="M145 178l14-37 4 2-14 36z"/><path fill="#51534a" d="M78 175v1l-114 10v-1z"/><path fill="#ccd5d3" d="M274 168l-4-13 48-15 4 13z"/><path fill="#5a4a39" d="M219 124l-7 38h-2l8-38z"/><path fill="#b79b72" d="M132 79l-15 11-4-5 16-11z"/><path fill="#bfc2b5" d="M218 139h-1l13-52 2 1z"/><path fill="#292616" d="M79 173l-10 47-3-1 10-47z"/><path fill="#ae8f66" d="M262 229h-10l-6-93 9-1z"/><path fill="#fff" d="M178 65l1 1-15 8-1-1z"/><path fill="#6f512d" d="M116 104l-4-16 24-6 4 15z"/><path fill="#bcb19b" d="M127 125l-1-1 26-23 1 2z"/><path fill="#d5dad3" d="M222 142l11 3-32 111-10-3z"/><path fill="#ba5d41" d="M198 44v3l-13-1v-4z"/><path fill="#505c56" d="M8 170l3-5 2 1-4 5z"/><path fill="#e4d8cd" d="M210 52l5 10-14 6-5-9z"/><path fill="#f1f4f3" d="M125 63v-2l33 3v1z"/><path fill="#bea898" d="M199 86l24-18 8 10-24 18z"/><path fill="#7b6a66" d="M214 52l10 14-2 2-10-14z"/><path fill="#d4dedb" d="M321 149l118-6 1 13-119 6z"/><path fill="#cbbfb8" d="M173 117l14-36h1l-14 37z"/><path fill="#dee3e3" d="M-15 128l121 15-5 34-121-15z"/><path fill="#8d9497" d="M312 165l-38 5-1-2 39-5z"/><path fill="#a6a9a3" d="M108 221l-4-50h2l4 50z"/><path fill="#bcb19c" d="M232 266h-1l16-137 2 1z"/><path fill="#efe8d5" d="M210 158l-1-14h2v14z"/><path fill="#312c1a" d="M284 185l-1-12 119-7 1 13z"/><path fill="#6e726e" d="M367 154l6 2-3 10-6-1z"/><path fill="#7b5f53" d="M209 73l-1-3 13-4 1 3z"/><path fill="#564028" d="M161 147l-5-2 9-22 6 3z"/><path fill="#927b5c" d="M147 100l-1 6-20-5 2-5z"/><path fill="#e3eae8" d="M289 156l-26 6-9-38 25-6z"/><path fill="#8f8066" d="M156 79l-4 4-13-14 5-4z"/><path fill="#c6c8c2" d="M213 136l-12-4 9-29 12 4z"/><path fill="#928677" d="M203 107l-6 41h-2l7-42z"/><path fill="#c0c6c6" d="M196 89l-29 65h-2l29-66z"/><path fill="#ced2cc" d="M76 224h-4l10-62h3z"/><path fill="#6d7366" d="M349 169l-1-1 17-7 1 1z"/><path fill="#aa976f" d="M151 138l6 1-3 22-7-1z"/><path fill="#d9ddd8" d="M146 173l-32-5 4-26 32 4z"/><path fill="#7c6859" d="M250 246l-6-93 1-1 7 94z"/><path fill="#503927" d="M201 106l5-10 4 2-5 10z"/><path fill="#494b41" d="M358 167l-92 6v-1l92-6z"/><path fill="#c0c0af" d="M117 109l32 39-2 1-32-39z"/><path fill="#5a3912" d="M187 63l-19-1v-4h19z"/><path fill="#d6dedb" d="M414 164l-43-3 1-20 43 2z"/><path fill="#fbf0dc" d="M169 57l-6 4-6-7 7-5z"/><path fill="#e5eae4" d="M160 106l-16-9 10-17 16 9z"/><path fill="#181608" d="M268 207v-14l137-2 1 14z"/><path fill="#dee3e2" d="M320 162l2-48 28 1-2 48z"/><path fill="#7e827b" d="M331 166l8-1v5l-7 1z"/><path fill="#d18c81" d="M188 54l-1-1 11-8 1 1z"/><path fill="#523c18" d="M114 95l5-3 9 18-5 3z"/><path fill="#c5b89c" d="M109 84l42-2 1 1-43 2z"/><path fill="#6a6f6c" d="M1 159l2 4-2 2-3-4z"/><path fill="#9f8963" d="M128 117l15 13-1 2-15-14z"/><path fill="#816254" d="M195 52l1 1-17 22-2-1z"/><path fill="#565755" d="M12 177v6l-22-2v-6z"/><path fill="#bcb5ae" d="M198 62l2 1-31 145h-2z"/><path fill="#e2e6e2" d="M87 122l12-26 19 9-13 25z"/><path fill="#d9a890" d="M187 42l-9 13-1-1 9-13z"/><path fill="#eaeeee" d="M75 75l18 38-95 45-18-39z"/><path fill="#ada996" d="M199 203l17-52 2 1-17 52z"/><path fill="#c1b191" d="M276 265l-24-134h2l23 134z"/><path fill="#ecefed" d="M418 131l-162-12 3-39 162 12z"/><path fill="#987d6f" d="M185 56l4-2 9 16-4 3z"/><path fill="#bcb9ac" d="M165 110l3 2-16 26-3-1z"/><path fill="#ac976b" d="M111 98l-3-12 2-1 2 12z"/><path fill="#cdcfc8" d="M188 185l21-77 11 3-21 77z"/><path fill="#a79a7f" d="M249 177l-17 40-10-4 17-41z"/><path fill="#f3f5f6" d="M-35-40l339 6-2 75-339-6z"/><path fill="#7f8a8b" d="M20 169l-3 8-1-1 3-7z"/><path fill="#453012" d="M144 125v-8h4l1 8z"/><path fill="#673813" d="M172 64l-1-1 18-19 1 1z"/><path fill="#786046" d="M240 204l9-26 3 1-9 26z"/><path fill="#a19573" d="M231 167h-2l7-32h2z"/><path fill="#e4d0ae" d="M161 67l-1 1-13-8 1-1z"/><path fill="#836415" d="M146 58v-1l25 8v2z"/><path fill="#b9beb9" d="M208 148l-1-1 18-84 1 1z"/><path fill="#99794d" d="M157 140l7 14-4 2-7-14z"/><path fill="#858b87" d="M14 155l3 3-1 1-3-3z"/><path fill="#a47044" d="M168 63l-1-1 10-11 2 1z"/><path fill="#f8f6f6" d="M168 66l4 7h-1l-4-7z"/><path fill="#acb1ac" d="M80 208l-4-25 17-2 4 25z"/><path fill="#5c4c32" d="M148 80v-1l8-4 1 1z"/><path fill="#d5d0c1" d="M146 70l-3 9-15-4 2-9z"/><path fill="#bd8b68" d="M191 57v1l-21-4v-1z"/><path fill="#d0d8d8" d="M28 169l3-12 27 7-3 12z"/><path fill="#f1f3f4" d="M82 0l55 58-45 43-55-57z"/><path fill="#441a11" d="M199 51l-18 1v-2h17z"/><path fill="#b5a291" d="M168 115h-1l10-38h2z"/><path fill="#e0e2dd" d="M116 101l1 68H98l-1-67z"/><path fill="#a98e6b" d="M160 108l-9 11-3-3 8-11z"/><path fill="#c2c5bc" d="M161 160l10-33 10 3-9 33z"/><path fill="#d3b8ab" d="M189 89l-3-16 4-1 4 16z"/><path fill="#d2d7d0" d="M192 119l-4-1 15-54 5 1z"/><path fill="#c5b494" d="M151 60h3v10h-3z"/><path fill="#6d6b70" d="M187 94l-12 30-1-1 12-30z"/><path fill="#c1c8c6" d="M319 147l18 7-5 10-17-7z"/><path fill="#a18f85" d="M226 96v16h-7l1-16z"/><path fill="#d8cdb6" d="M248 119l5 21-12 3-5-22z"/><path fill="#9c8462" d="M260 170l2 15-20 3-2-16z"/><path fill="#7b6d6b" d="M183 83h5v14h-5z"/><path fill="#959d9b" d="M413 160l-27 8-1-2 28-7z"/><path fill="#9ea6a2" d="M341 165l13-2v1l-12 3z"/><path fill="#393425" d="M60 185l-5 11-17-8 5-11z"/><path fill="#53524e" d="M386 171l-1-2 28-7v2z"/><path fill="#2c2b19" d="M77 182l-134 11v-1l134-12z"/><path fill="#6c5e51" d="M173 111l14-43h1l-14 44z"/><path fill="#c2bdae" d="M148 162l9 4-13 24-8-5z"/><path fill="#d7dad5" d="M139 139l11 6-44 83-11-6z"/><path fill="#aa8f6a" d="M132 77l2 7-8 3-3-7z"/><path fill="#342c1b" d="M301 190l-37-7 2-12 37 7z"/><path fill="#7e7f7b" d="M314 162l-13 4-1-1 13-5z"/><path fill="#9f3834" d="M200 46l1 1-5 6-1-1z"/><path fill="#b0a391" d="M181 87l-22 47-1-1 22-46z"/><path fill="#4f5048" d="M5 182l54-5v2l-54 5z"/><path fill="#bebaac" d="M147 96l-11 5v-1l11-6z"/><path fill="#684b28" d="M125 114l16-10 1 2-16 11z"/><path fill="#dadacb" d="M168 141l2 1-37 81-1-1z"/><path fill="#876f55" d="M131 86v-1l14 2v2z"/><path fill="#df9987" d="M201 48l-11-6 1-1 11 6z"/><path fill="#cbd1ca" d="M220 122h8l-3 49-8-1z"/><path fill="#cdcab4" d="M263 160h2l-5 13h-1z"/><path fill="#f3f6f6" d="M202 35l40-4 2 14-41 4z"/><path fill="#252212" d="M73 213l-13-2 6-35 13 2z"/><path fill="#1f1d0f" d="M367 217l-26-20 25-34 26 20z"/><path fill="#312811" d="M330 210l17-43 6 2-17 44z"/><path fill="#ced5d3" d="M283 154l6-8 17 14-6 8z"/><path fill="#f1f4f4" d="M171 55l-48-2 1-37 48 1z"/><path fill="#b39f74" d="M235 143l-2-22h2l2 22z"/><path fill="#d6b4a3" d="M208 71l10 5-3 4-9-5z"/><path fill="#958164" d="M143 100l2 1-5 16h-2z"/><path fill="#e2e8e6" d="M280 149l-3-28 117-12 3 28z"/><path fill="#cbcabc" d="M250 129l-21 57-3-1 21-57z"/><path fill="#c3c3b6" d="M206 184l-2 31-14-1 2-31z"/><path fill="#b6b19d" d="M208 247h-2l47-118 2 1z"/><path fill="#a49991" d="M206 49l1-1 10 10-1 2z"/><path fill="#6a543b" d="M159 70l-1 1-6-5 1-1z"/><path fill="#eef1f2" d="M-88 28l191 17-7 85-192-17z"/><path fill="#5b4830" d="M152 116l1 1-7 19-1-1z"/><path fill="#898d88" d="M312 155h3v11h-3z"/><path fill="#f1f3f4" d="M216 31l176-60 12 37-175 60z"/><path fill="#725f43" d="M146 78l5-6 1 1-5 6z"/><path fill="#51544d" d="M269 165l2-1 2 4-2 1z"/><path fill="#9b7c51" d="M251 155h2l4 32h-2z"/><path fill="#d0ccc1" d="M165 113h-1l10-28 2 1z"/><path fill="#66390c" d="M181 59l-6 1-1-5 6-1z"/><path fill="#c0a299" d="M196 77l2-15h1l-2 15z"/><path fill="#e4e6e6" d="M41 144l-26 27-4-4 26-27z"/><path fill="#dac7b2" d="M157 64l4 4-1 1-4-4z"/><path fill="#ccb" d="M109 84h2l-6 18h-2z"/><path fill="#bbc4c1" d="M324 152l1-1 12 14-1 2z"/><path fill="#c4a130" d="M161 58l1 2-9 2-1-1z"/><path fill="#6e5946" d="M211 89h1l-9 27h-1z"/><path fill="#d0dad7" d="M314 166l-1-2 18-12 1 1z"/><path fill="#e8ede7" d="M236 102l20-1v18h-20z"/><path fill="#e6edea" d="M183 66l-31 28-2-2 31-28z"/><path fill="#b2b2ad" d="M103 183h1l4 29-1 1z"/><path fill="#7e6741" d="M157 112l3 4-6 5-3-4z"/><path fill="#887468" d="M190 64l-4 13-6-2 4-13z"/><path fill="#977d76" d="M229 80l-8 26h-1l7-26z"/><path fill="#c6bfae" d="M147 78v36h-1l-1-36z"/><path fill="#bb9c82" d="M202 95l-1-5 11-2 1 5z"/><path fill="#c3cbcc" d="M91 172l-1 2-38-4v-2z"/><path fill="#e2e8e6" d="M6 172H1l1-24 5 1z"/><path fill="#f2f4f6" d="M117 52l17-26 22 14-16 26z"/><path fill="#140100" d="M184 51l5-5 1 2-5 4z"/><path fill="#5d1d11" d="M191 53l2-3 2 2-2 3z"/><path fill="#96745d" d="M204 83l10 6-1 1-9-6z"/><path fill="#aea499" d="M186 82l2 1-16 46-2-1z"/><path fill="#babcb8" d="M171 149l12-37 7 3-12 37z"/><path fill="#cac8c1" d="M171 222l-23-9 26-67 23 9z"/><path fill="#55493a" d="M220 118l1 1-5 11h-1z"/><path fill="#94989b" d="M41 175v-2l29 1v1z"/><path fill="#bfc6c3" d="M300 160l6-16 1 1-5 16z"/><path fill="#866c4a" d="M161 133l-3 11-2-1 3-10z"/><path fill="#44302a" d="M217 135l1 1-5 12-1-1z"/><path fill="#8b7d5d" d="M211 157l3-7 2 1-3 7z"/><path fill="#745a38" d="M144 101v1l-14 5-1-1z"/><path fill="#bcbcb4" d="M203 121l22-50h1l-21 51z"/><path fill="#957c51" d="M113 91l3 10-2 1-3-11z"/><path fill="#b09874" d="M153 153l-3 21h-2l4-22z"/><path fill="#ab9678" d="M148 74l4-6 5 3-4 7z"/><path fill="#cdd2c8" d="M213 174l18-84h1l-18 84z"/><path fill="#c9cfcd" d="M372 158l-9-2 1-9 9 2z"/><path fill="#b8a691" d="M253 135h1l-5 41-2-1z"/><path fill="#1d190c" d="M294 184l17-14 22 26-17 14z"/><path fill="#b5956b" d="M253 150l1-1 10 65-1 1z"/><path fill="#a0a8aa" d="M293 164v4l-9 1-1-4z"/><path fill="#958e70" d="M240 164h2l-6 18-1-1z"/><path fill="#e9efec" d="M167 85l-11 8-6-8 12-8z"/><path fill="#c1af9d" d="M189 93h-1l6-13 1 1z"/><path fill="#eff4f3" d="M191 36l1 1-35 19v-1z"/><path fill="#c4c4bd" d="M218 51l14 30h-1l-15-29z"/><path fill="#dacdb7" d="M174 46h10v3h-10z"/><path fill="#d7d8d3" d="M184 202l-2-1 27-76h1z"/><path fill="#9e8f7f" d="M197 138h-2l7-28 1 1z"/><path fill="#e4e7e7" d="M41 163l-15 9-12-21 15-8z"/><path fill="#827962" d="M213 169h-1l-1-21h1z"/><path fill="#a09892" d="M188 52l-1-1 5-2v2z"/><path fill="#dbddd8" d="M147 185l7 2-9 24-7-3z"/><path fill="#867668" d="M246 150h1l3 20h-2z"/><path fill="#4b2f02" d="M161 66l7-4v1l-6 5z"/><path fill="#e8c7af" d="M166 59l6-8 1 1-6 8z"/><path fill="#afa494" d="M170 81l11-1v7h-11z"/><path fill="#9a8b83" d="M218 73l2-11 4 1-1 11z"/><path fill="#413525" d="M163 141h-1l4-12 2 1z"/><path fill="#d7d3c8" d="M238 147v-30h4v30z"/><path fill="#cccec5" d="M225 62l7 21h-2l-7-20z"/><path fill="#dde2dd" d="M100 184l7 30-5 1-7-30z"/><path fill="#473925" d="M285 174l5 13-8 3-4-13z"/><path fill="#735635" d="M138 99l-28-9 1-3 28 9z"/><path fill="#79695b" d="M192 57l1 1-20 55h-2z"/><path fill="#dbdedd" d="M230 91v70h-2V91z"/><path fill="#29291d" d="M-15 178l34 12-2 6-34-12z"/><path fill="#c5bca3" d="M147 84l-22-12 1-1 22 11z"/><path fill="#a79889" d="M174 101l-3-1 13-31 3 2z"/><path fill="#232012" d="M382 185l25-22 6 7-24 22z"/><path fill="#bfb19a" d="M131 123l-3-1 2-6 3 1z"/><path fill="#dce5e2" d="M321 129l3 11-62 17-3-11z"/><path fill="#dde1db" d="M88 158l-11 36h-1l11-36z"/><path fill="#6e7875" d="M17 172l1-5h1l-1 5z"/><path fill="#6e522e" d="M134 119l18 9v1l-18-9z"/><path fill="#c1c2ba" d="M205 154l9-51 5 1-9 51z"/><path fill="#767876" d="M56 175v1l-7 4v-2z"/><path fill="#cfd1c7" d="M130 146l-15-27 7-4 15 27z"/><path fill="#f0e2d9" d="M191 37l1 1-19 14-1-1z"/><path fill="#dee2de" d="M115 157l-19-55 12-4 19 55z"/><path fill="#d7d4cb" d="M201 68l3-20 6 1-3 20z"/><path fill="#6c5a3f" d="M155 75l-5 3-1-1 5-4z"/><path fill="#343127" d="M318 167l10 4-4 8-10-5z"/><path fill="#e4e8e9" d="M90 137l-5 31-86-16 5-30z"/><path fill="#e0e4df" d="M173 78l-9 29-7-2 8-29z"/><path fill="#ecb8a8" d="M201 46l-7-3v-3l8 3z"/><path fill="#ebefef" d="M49 112l12-34 44 15-11 34z"/><path fill="#d6d1c4" d="M249 122l-25-10 1-1 24 10z"/><path fill="#d0d0c4" d="M152 107l-10-15 1-1 11 16z"/><path fill="#958376" d="M203 106v12h-5v-12z"/><path fill="#bab4a5" d="M148 146l16-29 2 1-16 29z"/><path fill="#322b1e" d="M361 165l1 1-9 18-1-1z"/><path fill="#4f3913" d="M150 59l-4 1-1-1 5-2z"/><path fill="#92989a" d="M37 175v2l-41-1v-1z"/><path fill="#5b462c" d="M151 79l-1 1-3-4 2-1z"/><path fill="#dde4e1" d="M357 151l-34 11v-2l34-11z"/><path fill="#cbcec8" d="M199 94l-9 65-6-1 9-65z"/><path fill="#b39d7c" d="M120 81h5v6h-5z"/><path fill="#d7dbd4" d="M124 215l-17-1 2-42h17z"/><path fill="#cbbea4" d="M138 64l11 10-1 1-11-10z"/><path fill="#b3b8b7" d="M318 148l5 12h-2l-4-12z"/><path fill="#6d522e" d="M123 96l1-6h14l-1 6z"/><path fill="#d5dbd9" d="M407 162l-32-3 1-10 31 3z"/><path fill="#b0a18e" d="M251 170l-5 6-1-1 4-6z"/><path fill="#abaeab" d="M90 174l11 50-2 1-11-51z"/><path fill="#c0c5bf" d="M162 172l17-52h1l-17 52z"/><path fill="#ced6d5" d="M309 154l-22 13v-1l21-13z"/><path fill="#48220e" d="M187 48v-2l6-2v2z"/><path fill="#c0b39e" d="M243 158l-3-1 9-26 3 2z"/><path fill="#342f22" d="M76 190l-8-12 1-1 8 12z"/><path fill="#b29e81" d="M244 184l-7 17-5-2 8-17z"/><path fill="#c9c2a8" d="M119 113l2-1 21 23-2 1z"/><path fill="#1f1f11" d="M45 206H-9v-13h54z"/><path fill="#4e5047" d="M356 162l52 7v2l-52-7z"/><path fill="#7a6653" d="M156 140l17-29h1l-17 30z"/><path fill="#b0b8b9" d="M35 164l2-1 4 12-1 1z"/><path fill="#937b6b" d="M195 57l-18 23-1-1 17-23z"/><path fill="#866642" d="M122 97l5-6 2 1-4 7z"/><path fill="#adb3ac" d="M8 165l3-1 1 1-3 1z"/><path fill="#33352c" d="M48 176l2 2-21 13-2-2z"/><path fill="#7c817a" d="M377 164l-1 1-7-2v-2z"/><path fill="#775b4d" d="M217 70V60h2v10z"/><path fill="#c7b2a4" d="M199 78l-5 10-10-5 5-10z"/><path fill="#e6eae4" d="M270 144l-6 3-14-27 6-3z"/><path fill="#f2f4f5" d="M254 20l-21 39-98-52 21-39z"/><path fill="#57391f" d="M125 106l9 7-1 1-9-6z"/><path fill="#eff2f2" d="M213 40l54-26 37 76-54 26z"/><path fill="#856100" d="M150 57v-2l8 3-1 1z"/><path fill="#a49176" d="M141 98v2l-12 3v-1z"/><path fill="#39382e" d="M327 166l14 7-1 3-14-7z"/><path fill="#d6cca9" d="M130 74l-17 8-1-1 17-9z"/><path fill="#a4acb0" d="M-43 174l88-1v1l-88 2z"/><path fill="#887953" d="M123 112l-8-9 1-1 8 10z"/><path fill="#a49b91" d="M226 109l-2-39h2l1 39z"/><path fill="#9d8a70" d="M143 118l-4-15 1-1 4 15z"/><path fill="#dde6e2" d="M234 81v25h-4V81z"/><path fill="#ab9f81" d="M152 174l-1-1 8-20 2 1z"/><path fill="#482c1d" d="M188 52l-1-6h2v6z"/><path fill="#d8d8d3" d="M214 219l-7-3 14-39 8 2z"/><path fill="#51412f" d="M172 121l-10 23-1-1 10-23z"/><path fill="#cac0a9" d="M136 85h-1l-1-3h2z"/><path fill="#6f6965" d="M187 91l2 1-9 18h-2z"/><path fill="#68756b" d="M263 172l-1-1 5-4 1 1z"/><path fill="#b6bbb9" d="M290 151l5-5 1 1-4 5z"/><path fill="#beb9ad" d="M203 91l-6 23h-1l5-23z"/><path fill="#44351a" d="M183 59l3-3 2 2-3 3z"/><path fill="#2d2716" d="M351 182l-1 6-58-12 1-6z"/><path fill="#decfc6" d="M213 62l-17 3-1-9 17-3z"/><path fill="#725a49" d="M242 187h2l3 24-2 1z"/><path fill="#b4b5ac" d="M189 171l6-21h2l-6 21z"/><path fill="#c4c2b5" d="M227 214h-1l4-33 2 1z"/><path fill="#80746b" d="M184 85h1l5 9-2 1z"/><path fill="#6e4338" d="M188 53v-2l7 4-1 1z"/><path fill="#c3c6bf" d="M142 170l-2 50-5-1 2-50z"/><path fill="#dee3e0" d="M68 151l48 3-1 18-48-2z"/><path fill="#b7c1bd" d="M335 147l-1-1 1-4 2 1z"/><path fill="#726c69" d="M302 170l9-8 1 1-9 8z"/><path fill="#cfd0c0" d="M251 125l1-1 14 43-1 1z"/><path fill="#cccfc9" d="M134 135l6-5 9 11-6 5z"/><path fill="#bebbb2" d="M211 103l3-15 8 1-3 16z"/><path fill="#b0b5b3" d="M79 169l8 25-2 1-8-25z"/><path fill="#dce3e5" d="M134 64v-2l21 1v1z"/><path fill="#232111" d="M361 184l-1-19h8l1 18z"/><path fill="#d6a892" d="M197 42l-11 3v-1l10-4z"/><path fill="#c39980" d="M217 81l-7 6-3-4 7-6z"/><path fill="#7c7764" d="M160 71l2 3h-2l-1-2z"/><path fill="#cec0a6" d="M237 149l-2-22h2l1 22z"/><path fill="#b5bab9" d="M306 153l-3-7 2-1 3 8z"/><path fill="#a5a9a8" d="M308 152l1-1 3 5-1 1z"/><path fill="#623226" d="M197 54l-1 1-7-4 1-1z"/><path fill="#d7dbdb" d="M230 156l-4-48h2l4 48z"/><path fill="#8f7145" d="M162 144l3 2-7 9-2-2z"/><path fill="#dce3e0" d="M310 154l-31-11 1-2 30 12z"/><path fill="#727677" d="M298 167v2h-23v-2z"/><path fill="#979d95" d="M363 161v-1l6-1v2z"/><path fill="#f5f7f8" d="M-37-5h238V6H-37z"/><path fill="#1d1705" d="M271 199l-2-4 12-5 2 4z"/><path fill="#656867" d="M276 169h9v1l-9 1z"/><path fill="#d3ddda" d="M36 171l-1 2-22-5v-2z"/><path fill="#e6e6d8" d="M75 201v-3h2l-1 3z"/><path fill="#777e81" d="M55 177v-2h8v2z"/><path fill="#343b30" d="M263 177l5-6 2 1-6 6z"/><path fill="#d3b1a5" d="M215 67l-2-3 2-1 1 3z"/><path fill="#94805c" d="M249 171h2l-1 16h-2z"/><path fill="#4a4b46" d="M-16 183v-1l34-4v1z"/><path fill="#2c2a1f" d="M275 187l-8-2 4-17 7 2z"/><path fill="#3e3b33" d="M77 184l-6-5 1-2 6 5z"/><path fill="#baaf9e" d="M142 81l1-1 7 10-1 1z"/><path fill="#d3d6cf" d="M130 151l17 1v17l-18-1z"/><path fill="#8e7452" d="M151 122l-1-1 10-10 1 1z"/><path fill="#bcc7cc" d="M1 172h50v1H1z"/><path fill="#d1d1c4" d="M230 179l9-29 2 1-10 28z"/><path fill="#e1e4de" d="M175 68l-6 39-8-2 6-38z"/><path fill="#a0855b" d="M157 158l-8-1 2-10 7 1z"/><path fill="#9d9286" d="M209 65l-1-2 3-1 1 1z"/><path fill="#7e6554" d="M143 89l-1 1-2-2 1-1z"/><path fill="#b7a99c" d="M193 59h2l-24 68h-1z"/><path fill="#b8a799" d="M171 88l2-9 5 1-3 9z"/><path fill="#9c9589" d="M216 135h2l-1 10-2-1z"/><path fill="#c4bda7" d="M251 125l-8 37-5-1 8-37z"/><path fill="#f1f6f2" d="M172 69l2 1-23 22-1-1z"/><path fill="#3a311c" d="M334 222h-1l13-45h1z"/><path fill="#9da6a1" d="M375 163h20v1h-20z"/><path fill="#dbe3df" d="M299 154l-1 9-33-3 1-9z"/><path fill="#1f1c08" d="M68 190l4 5-10 7-4-4z"/><path fill="#cbccbe" d="M217 177l10-28h1l-9 29z"/><path fill="#dee6e3" d="M348 159l-13-20 13-9 13 20z"/><path fill="#766155" d="M206 83l2 3-3 1-2-2z"/><path fill="#faeddf" d="M201 37v2l-6 4-1-2z"/><path fill="#8a9491" d="M265 170l-1-1 4-6 1 1z"/><path fill="#b2a796" d="M148 112l-2 2-5-6 2-2z"/><path fill="#c9ad9f" d="M218 77v1l-12 3v-1z"/><path fill="#19180c" d="M329 209l-1-12 89-8 1 13z"/><path fill="#695200" d="M162 62l-1 1-2-2 1-1z"/><path fill="#3d3f37" d="M321 169l3-3 3 4-3 3z"/><path fill="#865e37" d="M165 63v-2l6-1v2z"/><path fill="#725b3b" d="M135 108l-2-1 6-7 1 1z"/><path fill="#7b562c" d="M170 61l1-5 8 4-2 4z"/><path fill="#3d4033" d="M36 180v2l-29 5-1-2z"/><path fill="#d7d4ca" d="M193 96l-2-5 8-4 3 5z"/><path fill="#946345" d="M182 49l1 1-4 8h-1z"/><path fill="#e3e0d1" d="M131 74v-1l11-5 1 2z"/><path fill="#5b4a43" d="M214 131h2v12h-2z"/><path fill="#cdcab2" d="M134 72l-9 3-1-4 9-4z"/><path fill="#817565" d="M242 181l4-14 1 1-3 13z"/><path fill="#cfd2cb" d="M203 166l-7-1 6-36 6 1z"/><path fill="#8c7d6c" d="M223 102h2l-6 23-2-1z"/><path fill="#6b6964" d="M311 160h2l-1 6h-1z"/><path fill="#928274" d="M174 92l18-36h1l-17 37z"/><path fill="#565148" d="M184 81l-2-4 2-1 1 5z"/><path fill="#8a766c" d="M195 67l1 2-11 6-1-2z"/><path fill="#504c44" d="M53 178l1 2-9 3v-1z"/><path fill="#909794" d="M0 161l3 4-2 1-2-4z"/><path fill="#bec1bf" d="M168 146l20-44 2 1-21 44z"/><path fill="#b7a493" d="M171 95l6 2-3 10-6-2z"/><path fill="#aa9d93" d="M222 99l1 1-3 9-1-1z"/><path fill="#dde6e1" d="M1 172l-2-7h5l1 6z"/><path fill="#e0e2df" d="M116 107l-12 47-15-3 12-47z"/><path fill="#dfe6e5" d="M321 155l-1-1 13-26 2 1z"/><path fill="#a9a79d" d="M229 167l4 4-1 1-4-4z"/><path fill="#b5b9b8" d="M306 163l-2-1 5-5 1 1z"/><path fill="#d2d5ce" d="M156 194l-8-2 4-21 8 1z"/><path fill="#6d533f" d="M204 97l5 3-2 4-5-3z"/><path fill="#b18e75" d="M184 58v-2l5-3 1 2z"/><path fill="#c5c6bb" d="M229 97h2l-12 42h-1z"/><path fill="#c2c2b7" d="M214 126l2 1-7 14-1-1z"/><path fill="#d5b68f" d="M165 57l1 1-2 2-1-1z"/><path fill="#b3a79d" d="M154 127l2-4 1 1-2 4z"/><path fill="#97a19c" d="M334 165l-11 1v-2h11z"/><path fill="#6a583b" d="M142 117l7-2 1 4-7 2z"/><path fill="#7d7d79" d="M393 167h-3v-1h3z"/><path fill="#54452e" d="M151 121l-2 10-1-1 1-9z"/><path fill="#9c8870" d="M138 116l16-4 1 2-17 4z"/><path fill="#bbb9b0" d="M132 129l1-1 9 10-1 2z"/><path fill="#ebefe8" d="M92 100l-1-1 38-35 1 1z"/><path fill="#a2adaf" d="M277 165l1-1 6 1-1 1z"/><path fill="#8e6b3e" d="M139 120l4 2-5 7-4-3z"/><path fill="#484c48" d="M341 164v5h-2v-5z"/><path fill="#bebbae" d="M209 153h1l-8 74h-1z"/><path fill="#8c7553" d="M138 103l1-1 3 6-2 1z"/><path fill="#90775e" d="M205 97l-4 12-1-1 3-12z"/><path fill="#dbded9" d="M110 189l2-8 24 7-2 7z"/><path fill="#bdb9ad" d="M166 116l-16 25-2-2 16-25z"/><path fill="#a8b0aa" d="M298 162l4-2 1 1-4 3z"/><path fill="#595e5e" d="M20 182l8-7 1 1-8 7z"/><path fill="#5c2e13" d="M185 52l-1 2-4-2v-1z"/><path fill="#c36548" d="M194 49l-1-1 2-2 1 1z"/><path fill="#dde3e0" d="M100 169v1l-89-6v-2z"/><path fill="#c5b69d" d="M258 147l-5 1-3-15 5-1z"/><path fill="#786852" d="M160 71l-2 4-1-1 2-4z"/><path fill="#513a13" d="M118 98l1-1 6 10h-2z"/><path fill="#bcaf93" d="M269 222h-2l-9-64h2z"/><path fill="#6d7175" d="M68 175v-2h9v2z"/><path fill="#51524f" d="M298 171l-25-1v-2l25 1z"/><path fill="#785739" d="M113 85l5 6-1 1-5-6z"/><path fill="#7b694b" d="M149 69l5 6-2 1-4-6z"/><path fill="#7c7977" d="M230 168l-1-6h2l1 6z"/><path fill="#443727" d="M292 182l-20-4v-2l20 4z"/><path fill="#9f8c70" d="M147 73l3-1 1 3-3 1z"/><path fill="#e4e5c3" d="M146 53v-1h6v1z"/><path fill="#2a220e" d="M265 185v-1l16 1-1 2z"/><path fill="#aa9b90" d="M190 94l-5-11 2-1 4 12z"/><path fill="#a99f8f" d="M195 145l-2-1 8-15h1z"/><path fill="#dbe2df" d="M351 139l39 13-2 4-38-12z"/></svg>