<svg xmlns="http://www.w3.org/2000/svg" viewBox="0 0 100 50"><path fill="#cfceca" d="M0 0h100v50H0z"/><path d="M60 43l12 23 44-27zm-75 1h36l-8 22z"/><path fill="#fff" d="M111 41L-15 4 97-15z"/><path fill="#978268" d="M73 57L25 23 52 9z"/><path d="M116 41l-48 2 3 23z"/><path fill="#fff" d="M16-15l18 57h-49z"/><path d="M21 66l-36-18 34-5z"/><path fill="#4b2f04" d="M28 23l6-3 6 14z"/><path fill="#f9feff" d="M43-15l26 53 47-33z"/><path fill="#d6dbd5" d="M56 53l8-30-20 11z"/><path fill="#542211" d="M44 15l6 2-1-7z"/><path fill="#f7fcff" d="M8 37L51 2l-66-17z"/><path fill="#78694c" d="M45 29l-8-2 2 13z"/><path fill="#191000" d="M116 44L75 65l-8-22z"/><path fill="#fff" d="M42 18l-5 5 7 3z"/><path fill="#e5eaea" d="M104 41L44 3l29 36z"/><path fill="#ab9589" d="M36 13l20 18 2-18z"/><path fill="#ad976f" d="M70 66l-18-6 13-24z"/><path fill="#f6f5f3" d="M43 27l1-10-6 6z"/><path fill="#d2d1ca" d="M30 66l22-50-7 50z"/><path fill="#dbdfd5" d="M41 31L18 57l7 9z"/><path fill="#201c0c" d="M41 66l66-6-14-20z"/><path fill="#686763" d="M56 39l-1-9-1 6z"/><path fill="#694409" d="M44 16l5-2H38z"/><path fill="#f3f4f6" d="M116-12L99 29-7-12z"/><path fill="#eef1f3" d="M-15 18l35 25 19-58z"/><path fill="#1f1c0b" d="M20 44l-35 8 29 14z"/><path fill="#847a75" d="M48 23l-5 11 1-15z"/><path fill="#383425" d="M90 44l-17 4-7-7z"/><path fill="#f0f2f2" d="M116 16L57-15l2 44z"/><path fill="#d2d4c8" d="M51 48l6 3 2-23z"/><path fill="#ccc0a0" d="M29 21l7-1 4-7z"/><path fill="#b3bfbd" d="M-15 44h31l-31-10z"/><path fill="#a4a6a2" d="M22 43l9 23H16z"/><path fill="#dde3e3" d="M28 22l7 22-45-3z"/><path fill="#c3c2b9" d="M52 53l3-28-18 19z"/><path fill="#f3ebeb" d="M57-15l4 14-12 23z"/><path fill="#e8eeec" d="M103 27L67 41l-4-22z"/><path fill="#f8f7f8" d="M70-15L43 14l-55-29z"/><path fill="#938169" d="M35 32l4-15-5 5z"/><path fill="#9da2a1" d="M83 41h-7l5-2z"/><path fill="#676b64" d="M51 32l1-5-3 6z"/><path fill="#e1ddd3" d="M43 24l-9-7 8 12z"/><path fill="#5f4521" d="M37 31l-6-4 1-3z"/><path fill="#8f7a74" d="M51 22l4-6-3 11z"/><path fill="#645a4b" d="M43 34l-5 3 8-10z"/><path fill="#ccbab0" d="M49 16l7 4-6 4z"/><path fill="#c9c8c1" d="M62 66L46 28l-5 12z"/><path fill="#6d5338" d="M62 47l-5 19 7-4z"/><path fill="#8f8267" d="M40 41l1-4-2-2z"/><path fill="#674440" d="M50 11l-3 1v4z"/><path fill="#6c6f66" d="M3 43l1 3 7-2z"/><path fill="#f3f5f6" d="M82-6L24 19-15-7z"/><path fill="#847961" d="M43 15l-7 7 1-5z"/><path fill="#a99577" d="M64 33L54 65l15-3z"/><path fill="#d3d2c9" d="M28 32l11 21-5-24z"/><path fill="#d1cfc7" d="M55 27L43 49l3 17z"/><path fill="#d3dcdb" d="M80 40l36-12-9 12z"/><path fill="#eff3f3" d="M39-2L22 33l-37 1z"/><path fill="#d9cdb9" d="M37 20l1-4-7 1z"/><path fill="#eee7e0" d="M36 28l5-2 4-9z"/><path fill="#977b6f" d="M46 13l1 9 2-7z"/><path fill="#1f1a0d" d="M78 41L58 66h42z"/><path fill="#cbcec4" d="M44 38l6-18v11z"/><path fill="#b6b6ac" d="M50 33l-6-3 6 9z"/><path fill="#9d9691" d="M57 23l-2-10 3 6z"/><path fill="#f3f5f8" d="M58 14l35-29H1z"/><path fill="#ccd5d8" d="M72 42l7-3-10-5z"/><path fill="#a2917c" d="M40 27l-5-2 4 4z"/><path fill="#f0f3f3" d="M50-1l66 18-52 13z"/><path fill="#866e51" d="M69 66l-7-25v17z"/><path fill="#5e4119" d="M34 23l-2 4-2-5z"/><path fill="#dadbd0" d="M57 34l-3 13 4 2z"/><path fill="#40423b" d="M2 44h17l-9 3z"/><path fill="#ffeed0" d="M42 15l2-5-3 2z"/><path fill="#b2aa91" d="M41 39l-2 4-1-2z"/><path fill="#18170a" d="M67 48l25 18 15-17z"/><path fill="#dde1df" d="M26 43L1 40l39-6z"/><path fill="#a7aba9" d="M92 38h3l-4 2z"/><path fill="#988581" d="M54 13l-2 9 4-6z"/><path fill="#e1e7e6" d="M65 33l35 6 16-17z"/><path fill="#babcb1" d="M54 39l-9 16 10-10z"/><path fill="#cdcdc6" d="M49 51l-1-20-12 16z"/><path fill="#f2f3f4" d="M22 25l14-12-51-28z"/><path fill="#7c8384" d="M1 41L-15 8v17z"/><path fill="#b6a688" d="M66 43l-4 23 6-12z"/><path fill="#d1cdc6" d="M41 24l2 2-1 4z"/><path fill="#786c41" d="M39 16l5 1-4-2z"/><path fill="#60584c" d="M51 25v5l2-6z"/><path fill="#c1b39c" d="M58 42l4-4-3 1z"/><path fill="#adb0af" d="M76 39l1 2 4-3z"/><path fill="#fff" d="M43 19h-2l2-1z"/><path fill="#e6eaeb" d="M4 29v15l9-20z"/><path fill="#d6d6cd" d="M58 29l-6 20 6-9z"/><path fill="#d5c2ba" d="M52 15l1 4-7 1z"/><path fill="#aa958a" d="M48 14l2 2-3 5z"/><path fill="#868e85" d="M94 40h22l-11 3z"/><path fill="#beb099" d="M62 36l-3 4v-8z"/><path fill="#8d9189" d="M50 34l1-3-1-1z"/><path fill="#e4e5e2" d="M29 39l1-11-8 14z"/></svg>