<svg xmlns="http://www.w3.org/2000/svg" viewBox="0 0 400 200"><path fill="#cecec9" d="M0 0h400v200H0z"/><path d="M416 206l-178 6-2-44 178-6zM78 173l2 48-90 5-3-49z"/><path fill="#fff" d="M266 170L206 14l167-64 60 156zM53-65l115 81L55 179-61 98z"/><path d="M268 226l-3-53 169-9 2 53z"/><path fill="#8b7153" d="M235 101l-93 51-35-64 93-51z"/><path fill="#fff" d="M386 43l-398 7-1-54 398-7z"/><path d="M-25 184l99-7 3 37-100 7z"/><path fill="#4b2c00" d="M117 81l42 45-12 10-42-44z"/><path fill="#beaf90" d="M268 210l-59 8-13-95 59-9z"/><path fill="#fff" d="M160 108l-16-13 26-30 15 14z"/><path fill="#58380c" d="M146 167l21-48 7 4-21 47z"/><path fill="#180f00" d="M268 230l-2-55 177-6 2 55z"/><path fill="#f2f8f9" d="M437 50l-22 107-191-40 22-107z"/><path fill="#e9f1f1" d="M122 193l-79-44 31-56 79 44z"/><path fill="#e9eeef" d="M218 32l-25 100-12-3 25-100z"/><path fill="#73441a" d="M200 50l-49 30-6-10 50-29z"/><path fill="#f6fbfe" d="M246-8L-7 156l-38-59L208-67z"/><path fill="#412e1f" d="M212 156l-1-1 13-50 1 1z"/><path fill="#7d695e" d="M184 47l12 3-16 73-12-3z"/><path fill="#5e4119" d="M113 93l20-10 11 22-19 10z"/><path fill="#ebe0bd" d="M184 46l-46 34-5-6 47-34z"/><path fill="#9f835c" d="M272 164l-22 40-23-13 21-40z"/><path fill="#d8e3e4" d="M234 101l-9 100-7-1 8-99z"/><path fill="#694000" d="M186 63v2l-42-8v-1z"/><path fill="#a9b2ad" d="M98 176l-4 31-19-3 5-31z"/><path fill="#91705f" d="M204 115l-7-3 19-59 7 2z"/><path fill="#f0fdfa" d="M149 106l2-28 20 2-2 28z"/><path fill="#b8bbb4" d="M162 152l15-45 34 11-14 45z"/><path fill="#1f1b02" d="M76 216l-75-1v-33l75 1z"/><path fill="#d8e2e0" d="M257 125l130-14 5 41-131 13z"/><path fill="#282610" d="M342 185l27-28 10 10-27 28z"/><path fill="#f1f4f4" d="M465 39l-208 97-49-105 208-97z"/><path fill="#e2e9eb" d="M91 173l-89-7 3-43 89 6z"/><path fill="#c8cecb" d="M223 60l8 2-30 111-8-2z"/><path fill="#f7f9fb" d="M174 3l24 20-33 38-24-20z"/><path fill="#d2d0bf" d="M166 97l-41 29-2-2 41-30z"/><path fill="#939e9c" d="M264 170v-2l111-8v2z"/><path fill="#78624e" d="M194 146l11-50h3l-11 51z"/><path fill="#cacac1" d="M138 154l98 16-7 43-97-15z"/><path fill="#210000" d="M192 46l-8 9-3-2 9-9z"/><path fill="#9a7a1d" d="M156 69l-11-11 7-7 11 11z"/><path fill="#b19a8d" d="M223 58l5 25-18 4-6-24z"/><path fill="#a49175" d="M259 142l-26 77-9-3 26-77z"/><path fill="#fff" d="M165 79l-3-6 16-9 3 5z"/><path fill="#cbbd9d" d="M113 88l-1-14 36-4 1 14z"/><path fill="#42453d" d="M-21 186v-11l72 3-1 11z"/><path fill="#7e6d63" d="M226 80h1l-17 79h-1z"/><path fill="#f5f7f9" d="M160 18l21-36 77 46-22 36z"/><path fill="#39321a" d="M266 169l34 5-2 18-34-5z"/><path fill="#cecec3" d="M175 91l3 2-36 64-3-1z"/><path fill="#8e99a2" d="M-76 178l154-6v2l-155 5z"/><path fill="#d7dad1" d="M94 100l13-9 42 64-14 9z"/><path fill="#d6c199" d="M266 212h-5l-3-50h4z"/><path fill="#a98f63" d="M146 173l6-36 6 1-5 36z"/><path fill="#9f8b63" d="M235 115l-2 41-1-1 2-40z"/><path fill="#6b6f6c" d="M315 159l-8 7-2-2 8-7z"/><path fill="#5e4c2f" d="M162 110l-15 26-1-1 14-26z"/><path fill="#f0f4f5" d="M-41 64L8-7l113 79-50 71z"/><path fill="#a3b0b0" d="M436 171l-80-11v-2l80 12z"/><path fill="#412d1b" d="M172 113h2l-13 38h-2z"/><path fill="#532b06" d="M194 45l-32 25-1-1 32-25z"/><path fill="#9c897c" d="M195 68l-13 24-10-6 13-23z"/><path fill="#181603" d="M270 192l139-7 1 21-139 8z"/><path fill="#c6c9c6" d="M168 140l35-66 6 3-36 66z"/><path fill="#dde2d9" d="M72 232l-1-1 11-64h2z"/><path fill="#d0bdb0" d="M210 84l-24 1V74l23-1z"/><path fill="#aea797" d="M215 101h11l1 18-11 1z"/><path fill="#f1f3f4" d="M210 36L28 91 10 32l182-56z"/><path fill="#47381d" d="M144 75l2-1 5 6-1 1z"/><path fill="#e0d5cb" d="M199 54l10-5 6 15-10 4z"/><path fill="#312a16" d="M299 182l1-14 62 2-1 14z"/><path fill="#816747" d="M136 106l-10-3 5-20 10 3z"/><path fill="#d3d8d2" d="M136 172v39H94l-1-39z"/><path fill="#d6d4c3" d="M156 61v2l-32 8v-1z"/><path fill="#d3d8d5" d="M205 240l15-111 11 1-15 112z"/><path fill="#7b6655" d="M246 231h-4l5-76h3z"/><path fill="#92857e" d="M229 80l-1 1-18-31 1-1z"/><path fill="#635245" d="M200 116l9-19 2 2-9 18z"/><path fill="#e3e9e6" d="M314 129l41-33 29 37-40 32z"/><path fill="#645747" d="M211 164l6-42h2l-6 42z"/><path fill="#656160" d="M174 123l12-29 1 1-12 28z"/><path fill="#f0f2f2" d="M424-34l5 134-198 7-5-134z"/><path fill="#c8ccc7" d="M222 103l-9 30-9-3 9-30z"/><path fill="#c4bcb1" d="M163 151l27-82 2 1-27 81z"/><path fill="#664e2c" d="M146 131l-3-2 12-18 4 3z"/><path fill="#d6dede" d="M22 163l66-6 1 13-66 6z"/><path fill="#98866c" d="M149 114l-9 4-9-18 8-4z"/><path fill="#c0c8c6" d="M291 159v-14h28v14z"/><path fill="#aa8a60" d="M245 149l12-1 9 101-12 1z"/><path fill="#e0e7e5" d="M400 161l-28-2 5-59 28 2z"/><path fill="#e8ecec" d="M-10 120l115-38 13 41L3 160z"/><path fill="#785900" d="M166 64l-4 3-7-7 3-4z"/><path fill="#6f432b" d="M200 51l-25 13-1-1 25-13z"/><path fill="#292615" d="M76 176l1 7-14 2-1-7z"/><path fill="#d6a484" d="M179 57l1-5 11 2-1 5z"/><path fill="#a5a7a3" d="M109 172l-6 51h-1l6-51z"/><path fill="#e4eae7" d="M253 109l59-8 5 39-59 7z"/><path fill="#947f76" d="M222 117l-3-1 8-38 3 1z"/><path fill="#1e1e0f" d="M385 213l-27-48 9-4 26 47z"/><path fill="#f1f7f2" d="M147 105l-1-1 24-38 2 1z"/><path fill="#959b99" d="M315 156l-18 12-1-1 18-12z"/><path fill="#66665e" d="M413 164l-27 7-1-2 28-7z"/><path fill="#bbbcb0" d="M232 81l2 1-17 63h-2z"/><path fill="#a5aaa6" d="M82 204l-3-23 15-2 4 23z"/><path fill="#c9c8bf" d="M212 164l-42 2-2-28 42-2z"/><path fill="#f2f5f4" d="M122 50l26-27 17 16-27 27z"/><path fill="#654b32" d="M179 98l-21 56-1-1 21-55z"/><path fill="#d5d5cb" d="M139 84l-12-18 8-5 12 19z"/><path fill="#3d4038" d="M268 163h2l4 10h-2z"/><path fill="#b99e74" d="M119 88l-2-11 15-4 3 11z"/><path fill="#6d4e29" d="M138 91l-1 6-26-5 1-6z"/><path fill="#a3aeaf" d="M7 169v-2l32 9-1 2z"/><path fill="#9b8876" d="M194 154l12-72h1l-11 72z"/><path fill="#8e958d" d="M349 162l1 2-16 7-1-2z"/><path fill="#dad8cb" d="M243 119l-4 39h-3l4-39z"/><path fill="#b99c8d" d="M198 63l2 1-9 28-2-1z"/><path fill="#a79a77" d="M238 127l-7 42-2-1 7-41z"/><path fill="#aa9875" d="M146 183l18-40 1 1-18 39z"/><path fill="#a99f86" d="M142 71l13-3 2 6-14 3z"/><path fill="#b9af9d" d="M179 85h2l-21 47h-2z"/><path fill="#d6d8d1" d="M148 138l1 34-36 1-1-34z"/><path fill="#583b20" d="M125 104l14 7-3 5-14-7z"/><path fill="#ded5cf" d="M151 64v-2l9 4-1 1z"/><path fill="#ee9d8b" d="M190 39l10 6-1 2-10-6z"/><path fill="#bcb5a4" d="M142 109l10-2 2 8-11 2z"/><path fill="#cdcec2" d="M142 129l-8 15-25-12 8-16z"/><path fill="#d0d2ca" d="M191 151l-6-1 16-90 6 1z"/><path fill="#976e06" d="M148 58l1-3 8 4-1 3z"/><path fill="#c7b3a3" d="M230 74l-22 8-2-4 22-9z"/><path fill="#7a8581" d="M11 165l2 1-4 8-1-1z"/><path fill="#4d4f48" d="M43 177v-1l31 2v1z"/><path fill="#d6d9d4" d="M199 166l-5-1 12-42 4 1z"/><path fill="#6c6460" d="M187 85l2 12-2 1-2-13z"/><path fill="#e2e6e5" d="M13 171l-2-38 106-5 2 37z"/><path fill="#e4ebe8" d="M181 64l1 1-36 35-1-1z"/><path fill="#bab7aa" d="M189 232l17-67 6 2-17 66z"/><path fill="#3c2a0b" d="M188 57v2l-12 4v-1z"/><path fill="#aeb7b8" d="M271 164l22 3v2l-22-4z"/><path fill="#593f2b" d="M203 107l7-13 1 1-7 12z"/><path fill="#bdaa92" d="M257 142l-11 36h-1l10-36z"/><path fill="#7e655b" d="M220 62h2l-3 9h-2z"/><path fill="#b3a08d" d="M168 115l8-35h2l-9 35z"/><path fill="#594425" d="M148 116l4 10-8 4-4-11z"/><path fill="#664b26" d="M165 63l10-4 2 5-10 4z"/><path fill="#d9dbd1" d="M136 209l21-45 9 4-22 45z"/><path fill="#1e1909" d="M306 226l-26-28 31-28 26 27z"/><path fill="#7b665b" d="M192 50l2 1-16 47h-1z"/><path fill="#c7be9e" d="M106 89l2-1 3 12-2 1z"/><path fill="#ab9c80" d="M238 208l-11-3 9-27 10 3z"/><path fill="#ca5a56" d="M201 49v1l-7-4 1-1z"/><path fill="#c39579" d="M166 63l-1-1 30-24 1 2z"/><path fill="#41423a" d="M356 167l-79 7v-2l79-7z"/><path fill="#d0d4cb" d="M206 202h-2l29-115h2z"/><path fill="#23200f" d="M66 222l-9-3 12-42 10 3z"/><path fill="#c3c2bc" d="M226 67h1l-26 124h-2z"/><path fill="#f4f8f6" d="M161 59l-8-7 13-16 8 7z"/><path fill="#9b7d51" d="M150 157l8-16 7 4-9 15z"/><path fill="#9ea8a6" d="M379 166l-14-10 1-1 14 10z"/><path fill="#7e654d" d="M251 183l-2 17-8-1 2-17z"/><path fill="#f2f5f5" d="M202 49V34h26v15z"/><path fill="#af9374" d="M235 140h2l-2 12h-1z"/><path fill="#54402f" d="M171 118h1l-13 25-2-1z"/><path fill="#7f8386" d="M-1 175l38 3v2l-38-4z"/><path fill="#cbd4d5" d="M91 167v1l-87 8v-2z"/><path fill="#d9d8c9" d="M164 108l-1 2-23-17 1-1z"/><path fill="#e8ede9" d="M151 103l-2-19 14-1 2 19z"/><path fill="#becdcc" d="M260 166v-1l34-5 1 2z"/><path fill="#e0d0c6" d="M215 55v6l-19 1v-6z"/><path fill="#c2baa1" d="M266 195h-1l-8-48h2z"/><path fill="#a5aaa7" d="M13 161l2-6 2 1-2 6z"/><path fill="#c7bb97" d="M131 69l1 1-24 19-1-2z"/><path fill="#d2d0c1" d="M230 181l-2-1 22-62h1z"/><path fill="#f0f2f2" d="M523 40L233 96l-11-56 290-57z"/><path fill="#bcbbb5" d="M194 87l-38 197-1-1 38-196z"/><path fill="#493822" d="M281 192l-2-16 7-1 3 16z"/><path fill="#6b574c" d="M215 70l-6 2-1-3 6-2z"/><path fill="#bfbeb1" d="M169 105l1 1-21 44-2-1z"/><path fill="#86795e" d="M156 66h1l-5 14-1-1z"/><path fill="#d3dddc" d="M355 157l-1 8-32-5 1-8z"/><path fill="#a0875e" d="M139 129l-9-9 1-1 9 9z"/><path fill="#b69972" d="M152 114l3-9 7 2-3 9z"/><path fill="#d9cdd0" d="M192 49l-1 1h-3v-2z"/><path fill="#b2a385" d="M141 64l14 2-1 6-14-2z"/><path fill="#f1f3f4" d="M143 22l2 42-164 9-2-42z"/><path fill="#6e6e68" d="M334 166l7 3-2 4-7-3z"/><path fill="#c8c8bf" d="M157 165l30-63h2l-31 64z"/><path fill="#4b3200" d="M161 61l3 4-2 1-2-4z"/><path fill="#5b6560" d="M19 171h-2v-3h2z"/><path fill="#4d4d47" d="M-32 183l97-7v2l-97 7z"/><path fill="#c5c1b8" d="M204 134l-2-1 12-43h1z"/><path fill="#715c39" d="M142 104l-2-1 4-5 1 1z"/><path fill="#808988" d="M292 168l-28 3-1-3 28-3z"/><path fill="#887263" d="M190 59l1 1-13 17-2-1z"/><path fill="#cbab53" d="M152 61l13-3v2l-12 2z"/><path fill="#543b1a" d="M120 99l14 14-2 3-14-15z"/><path fill="#b6b19a" d="M226 202l-1-1 25-67 2 1z"/><path fill="#757d7d" d="M3 161l-3 3-1-1 3-3z"/><path fill="#edf1f1" d="M-3 48l110 34-18 59-111-33z"/><path fill="#f3f5f6" d="M264-10l-1 52-141-3 1-51z"/><path fill="#313126" d="M263 172l8-5 8 13-7 5z"/><path fill="#a39f97" d="M207 49l7 5v2l-8-6z"/><path fill="#e1e4e1" d="M92 136l14 91-3 1-14-91z"/><path fill="#81665a" d="M218 70l-3-1 3-9 3 1z"/><path fill="#8d6e4c" d="M131 102l-17-16 1-1 17 15z"/><path fill="#e0e3de" d="M99 149l-4-42 20-2 4 42z"/><path fill="#bab098" d="M153 136l-6 42h-1l5-42z"/><path fill="#9baaa9" d="M386 165l26-8v2l-25 7z"/><path fill="#866d58" d="M136 92l-1-1 9-6 1 1z"/><path fill="#c5c7bf" d="M196 137l-6-15 3-1 6 15z"/><path fill="#e3e7e4" d="M-1 154l37 13-2 6-37-13z"/><path fill="#2c2b1f" d="M62 190l-107-4 1-3 106 4z"/><path fill="#d7bcb1" d="M204 46l1 1-10 18-1-1z"/><path fill="#7d765f" d="M212 158l1 11h-2v-11z"/><path fill="#b5a995" d="M146 98l-15 4v-1l14-5z"/><path fill="#daded8" d="M235 74l-10 117-2-1 10-116z"/><path fill="#d9e1df" d="M432 162l-139-17 1-12 140 17z"/><path fill="#514a43" d="M314 169l-2 1-2-9 1-1z"/><path fill="#775d3d" d="M142 100l2 4-16 7-2-4z"/><path fill="#d6e0dd" d="M298 152v10h-35v-10z"/><path fill="#f4f6f8" d="M162 4L3 35-4-2l159-31z"/><path fill="#a5aba6" d="M356 165l-22 2v-2l21-2z"/><path fill="#2f2813" d="M337 210l-9-3 11-37 9 2z"/><path fill="#c8b4a9" d="M199 79l-3 3-9-6 3-4z"/><path fill="#e8eee8" d="M170 70l5 6-15 12-5-6z"/><path fill="#b3b9b2" d="M76 181l8-1 4 21-8 2z"/><path fill="#988a7c" d="M203 115l2 1-7 24-1-1z"/><path fill="#888c86" d="M316 167l-1 1-5-12h2z"/><path fill="#59443d" d="M212 140l1-1 5 4-1 1z"/><path fill="#9f9081" d="M176 93l11-32h1l-11 33z"/><path fill="#d9ceba" d="M252 131l-16-2 1-11 16 2z"/><path fill="#f2f5f5" d="M114 36l18 6-13 37-18-7z"/><path fill="#987f5c" d="M127 86l-17 3-1-1 17-4z"/><path fill="#d8d4c7" d="M145 64l6-5 3 4-7 4z"/><path fill="#c5c4b2" d="M116 110l1-1 28 32-1 1z"/><path fill="#9a9fa3" d="M23 175v-2h43v2z"/><path fill="#aa9086" d="M196 71l-6-4 3-5 7 4z"/><path fill="#c1c3bb" d="M158 180l19-48 7 2-18 49z"/><path fill="#c2bdb1" d="M203 82v13h-5V82z"/><path fill="#8d796f" d="M223 105h-1l3-9 2 1z"/><path fill="#a26547" d="M183 51l2 3-7 3-2-3z"/><path fill="#d1d9d8" d="M34 170l1-12 20 1-1 13z"/><path fill="#d0c8bb" d="M167 94l14-31h1l-14 32z"/><path fill="#886c51" d="M208 93l1 1-9 11-1-1z"/><path fill="#bfaa8d" d="M255 132l2 1-8 24-1-1z"/><path fill="#f1f4f5" d="M153 55l-8-45 20-3 7 44z"/><path fill="#7b6f59" d="M150 127l6-9h2l-6 10z"/><path fill="#9d8157" d="M255 160l3 44h-5l-3-44z"/><path fill="#693629" d="M197 52v2l-14-1v-2z"/><path fill="#caa690" d="M215 73l4 5-10 7-4-5z"/><path fill="#e7eae8" d="M407 125l-155 5-1-16 155-5z"/><path fill="#9e9276" d="M162 74v2l-19-8v-1z"/><path fill="#bdb19b" d="M149 101l-1 1-17-20 1-1z"/><path fill="#292614" d="M372 181l4-14 32 10-4 13z"/><path fill="#866200" d="M166 65l-15-9 1-1 14 9z"/><path fill="#d6d9d4" d="M137 142l12 6-32 61-11-5z"/><path fill="#1e1d10" d="M-5 206v-14h52v14z"/><path fill="#f0e2dc" d="M175 52l-2-5 7-3 2 4z"/><path fill="#736c66" d="M231 167l-2-1 1-6h2z"/><path fill="#a28e63" d="M112 98l-4-1v-3l5 1z"/><path fill="#d3cbac" d="M126 79l-4-9 7-3 4 8z"/><path fill="#aa987d" d="M223 220l20-43 4 2-19 43z"/><path fill="#baa581" d="M254 144l1-1 15 84h-2z"/><path fill="#a88f6d" d="M133 76l1 8-9 1-1-8z"/><path fill="#e5c4b1" d="M194 43l-9-2v-1l10 2z"/><path fill="#c7cecc" d="M314 160l14-10 1 1-14 10z"/><path fill="#bbae9c" d="M176 97h1l-13 27-2-1z"/><path fill="#c6c2b0" d="M162 106l6 1v7h-7z"/><path fill="#b1a89b" d="M179 99l3 5-3 2-3-6z"/><path fill="#0d0000" d="M189 48v1l-4 2-1-2z"/><path fill="#d6d7d2" d="M232 182l-10 23-11-4 9-24z"/><path fill="#a3a8a7" d="M305 145l1 1-3 4-1-1z"/><path fill="#362f22" d="M55 195l-15-11 3-5 16 10z"/><path fill="#cacdc6" d="M224 120l-1 55h-5l1-55z"/><path fill="#c1c1b6" d="M148 182l-7 3-6-12 7-4z"/><path fill="#676865" d="M304 168l-2-6h2l2 5z"/><path fill="#a18e75" d="M129 121l-1-3 26-6 1 3z"/><path fill="#dbd7c7" d="M124 72l22-3v1l-22 3z"/><path fill="#f1f3f4" d="M245 19l-5 35-39-5 5-36z"/><path fill="#676463" d="M181 106l7-14 2 1-8 13z"/><path fill="#9fa9a7" d="M273 163v3h-11v-3z"/><path fill="#292013" d="M315 173l-1 1-6-8 1-1z"/><path fill="#edf2ef" d="M239 82l89-8 3 36-89 8z"/><path fill="#57411d" d="M127 108l-5 2-6-14 4-2z"/><path fill="#998578" d="M216 66l7 7-3 3-7-6z"/><path fill="#b28b6f" d="M205 96l3-17 8 2-4 16z"/><path fill="#f0f3f0" d="M451 9l-67 77-49-43 66-77z"/><path fill="#8b9291" d="M364 161l5-6 3 2-5 6z"/><path fill="#82756c" d="M245 168l4-19 1 1-4 18z"/><path fill="#463127" d="M215 138l-1 10h-2l1-10z"/><path fill="#c1b79f" d="M241 168l2-19h2l-2 19z"/><path fill="#dee4de" d="M161 107l6-29 5 1-6 29z"/><path fill="#b3b2a9" d="M195 152h1l-8 26-1-1z"/><path fill="#3e3d36" d="M339 175v-11h1l1 11z"/><path fill="#c2c6b7" d="M221 208l20-56 2 1-20 56z"/><path fill="#7b6e5b" d="M221 115l-2 6h-1l2-6z"/><path fill="#c3c1b1" d="M143 97l5-15 1 1-5 15z"/><path fill="#cacabf" d="M187 212l12-59 10 2-13 59z"/><path fill="#816e5b" d="M154 144l24-44 1 1-24 44z"/><path fill="#68261e" d="M192 56l-1-1 6-6 1 1z"/><path fill="#564d35" d="M155 73l1 4-3 2-1-5z"/><path fill="#e4eae8" d="M0 172l13-21h1L1 173z"/><path fill="#6e5333" d="M114 87l25 5-2 7-24-5z"/><path fill="#322804" d="M164 64l1 1-3 4-1-1z"/><path fill="#7e5833" d="M165 61v-2l12 4v1z"/><path fill="#dee6e5" d="M303 155l-29-17 3-4 28 17z"/><path fill="#ba7a71" d="M199 49h-1l1-6h2z"/><path fill="#3b3932" d="M77 174v1l-18 9-1-1z"/><path fill="#5e4f34" d="M160 72h-3v-5h3z"/><path fill="#4b4b44" d="M50 181l-6-6 1-1 6 6z"/><path fill="#dad9d3" d="M195 172h1l-17 42h-1z"/><path fill="#9d8e81" d="M176 77h1l-4 10h-2z"/><path fill="#322c16" d="M270 194l-6-3 5-8 6 3z"/><path fill="#c8b3a3" d="M194 88l-6 1-2-13 6-1z"/><path fill="#41311d" d="M165 142h-2l-1-14h2z"/><path fill="#5c5f5b" d="M389 170v-2l14-5 1 2z"/><path fill="#d3dcd9" d="M372 160l1-14 28 1v14z"/><path fill="#c0b792" d="M160 66l2 1-2 3-1-1z"/><path fill="#919694" d="M16 156l-1 3-1-1v-3z"/><path fill="#846d61" d="M197 69v2l-17-1v-1z"/><path fill="#d2c9bb" d="M249 123l-22-9 1-1 21 9z"/><path fill="#b2b8b6" d="M317 147l2-1 3 12-2 1z"/><path fill="#c2ada3" d="M198 71l2 4-9 6-2-4z"/><path fill="#2d291b" d="M348 173v8l-57-2 1-8z"/><path fill="#b4a08e" d="M169 109l7-21 3 1-7 21z"/><path fill="#d4d4cb" d="M188 104l24-54 2 1-25 54z"/><path fill="#908166" d="M216 156h-5v-10h5z"/><path fill="#b3bab8" d="M314 154l1 1-19 12v-2z"/><path fill="#5a5b5c" d="M304 166v2l-9 2-1-2z"/><path fill="#c5cccb" d="M365 146l6 7-9 9-6-7z"/><path fill="#d8ded6" d="M115 106l-8 8-8-9 8-8z"/><path fill="#887256" d="M144 88v2l-15-5 1-1z"/><path fill="#35342b" d="M-1 177h1l3 44H1z"/><path fill="#e1dddd" d="M231 144l-3 20h-1l3-20z"/><path fill="#eff2ed" d="M149 55l-42 25-1-2 42-25z"/><path fill="#a2a8ab" d="M55 169l2 7-1 1-2-8z"/><path fill="#9c9476" d="M224 236l-2-1 18-72h2z"/><path fill="#aca59b" d="M200 98l2 1-4 23h-1z"/><path fill="#dee6e3" d="M308 131l1-1 10 32h-2z"/><path fill="#919999" d="M20 170v6h-3v-6z"/><path fill="#afac9e" d="M151 80l1 1-4 6-2-1z"/><path fill="#3a2b1f" d="M185 60l-2 2-1-1 2-2z"/><path fill="#bdc2bc" d="M211 142h-3l7-51h3z"/><path fill="#d8dfdc" d="M11 161l21 13-1 1-21-13z"/><path fill="#a8936e" d="M159 159l-7 3-3-7 7-3z"/><path fill="#cea38e" d="M181 51l-2-1 8-8 1 1z"/><path fill="#38372b" d="M412 177l-54-13v-2l55 14z"/><path fill="#c6c5bb" d="M229 99l-2-27h2l2 26z"/><path fill="#dfe6de" d="M268 153l-5 1-10-27 4-2z"/><path fill="#dadfd5" d="M76 188l2-1 1 21h-2z"/><path fill="#ab8970" d="M189 52l-3 5-2-1 4-5z"/><path fill="#b4b9b5" d="M66 221l25-50h1l-25 51z"/><path fill="#625949" d="M145 135l-1-1 3-2 1 1z"/><path fill="#988678" d="M199 110h2l2 16h-2z"/><path fill="#b6b7b4" d="M181 145h-3l8-42 3 1z"/><path fill="#e7e8e4" d="M178 73l-7 1v-8l6-1z"/><path fill="#c5b79f" d="M128 117l5-1v3l-5 1z"/><path fill="#b0b5b4" d="M289 151l2-4 3 1-2 4z"/><path fill="#d3dad7" d="M310 160l-4-15h1l5 15z"/><path fill="#8e7c60" d="M253 178l-11 3v-2l11-2z"/><path fill="#221e10" d="M402 190l-56 1v-11l56-1z"/><path fill="#59442e" d="M159 146l10-25h1l-9 25z"/><path fill="#201d0a" d="M68 190l9 13-9 6-9-13z"/><path fill="#e4e7e9" d="M39 151l-9 13-46-32 9-13z"/><path fill="#515450" d="M6 183l23-6 1 1-23 6z"/><path fill="#a8946c" d="M118 105l-1 1-8-16h1z"/><path fill="#23251b" d="M77 179l-1 9h-1v-9z"/><path fill="#e3e8e5" d="M232 92l41 49-3 3-42-49z"/><path fill="#6e6f65" d="M358 164l10-3 1 2-11 2z"/><path fill="#ebefed" d="M305 116l-2-13 191-27 1 13z"/><path fill="#8f948e" d="M293 164h41v1l-41 1z"/><path fill="#dce0da" d="M112 103l2-1 7 47h-2z"/><path fill="#c2ab8b" d="M157 74l-1 1-5-7 1-1z"/><path fill="#87673c" d="M159 137l4 12h-1l-5-12z"/><path fill="#50534a" d="M375 165l1-1 13 4v1z"/><path fill="#d0d4d1" d="M202 159h-2l9-48 2 1z"/><path fill="#855f4e" d="M195 54v1l-4 2v-1z"/><path fill="#4e3d30" d="M214 149h-2l1-9h2z"/><path fill="#dee5e5" d="M48 141l31 5-4 24-31-5z"/><path fill="#cdbbab" d="M179 98l1 3h-1l-1-3z"/><path fill="#bdc4c2" d="M324 150l1-1 12 15-1 1z"/><path fill="#bdb6a5" d="M232 145l-1-32h1l1 31z"/><path fill="#cccfc8" d="M229 147l-35 106-6-2 35-105z"/><path fill="#c0b194" d="M258 161l-8-29 3-1 8 29z"/><path fill="#736242" d="M152 73l-1 1-4-5 1-1z"/><path fill="#b1946c" d="M265 254l-11-109h1l12 108z"/><path fill="#5f4322" d="M179 59l1 2-14 6-1-1z"/><path fill="#79716f" d="M217 56l-2 1-2-2 1-1z"/><path fill="#836642" d="M121 87l15 16-3 2-14-16z"/><path fill="#887343" d="M124 113l1-1 3 5h-2z"/><path fill="#d1b098" d="M164 57h5v3h-5z"/><path fill="#736464" d="M184 89l1 4-1 1-2-5z"/><path fill="#cdcdc7" d="M196 85l6 2-18 104-7-1z"/><path fill="#c2a664" d="M145 60l1-1 10 1v2z"/><path fill="#735a4d" d="M205 84l2 2-1 1-2-2z"/><path fill="#b8a493" d="M204 87h2l-2 6-2-1z"/><path fill="#ebefef" d="M89 81l7 31-93 21-7-30z"/><path fill="#b8c0bd" d="M334 142l3 1-1 4-3-1z"/><path fill="#8c744f" d="M151 123l-1-1 10-12 1 1z"/><path fill="#bebcad" d="M157 106l-11 9-1-1 11-9z"/><path fill="#d0d1cb" d="M123 176l18-20 9 8-17 20z"/><path fill="#c9ba9e" d="M119 85l-3-5 1-1 3 6z"/><path fill="#64492a" d="M136 105l3 3-7 8-4-3z"/><path fill="#d2d7d6" d="M234 103l-12 34-1-1 11-34z"/><path fill="#d1cec2" d="M174 86l-8 24-1-1 8-23z"/><path fill="#c8c9ba" d="M154 103l-2 6-7-1 1-6z"/><path fill="#41331b" d="M349 176l-7 16-2-1 8-15z"/><path fill="#9b8883" d="M224 78l5 7-2 1-4-7z"/><path fill="#37372d" d="M319 177l3-11 8 2-4 12z"/><path fill="#6b4f02" d="M152 54v3h-2v-3z"/><path fill="#1d190b" d="M338 182l2 32-33 3-2-33z"/><path fill="#b2aaa1" d="M151 133l4-10 4 2-3 10z"/><path fill="#545851" d="M9 166v3l-1 1v-4z"/><path fill="#6c5b40" d="M151 119l-7-4 1-1 6 4z"/><path fill="#f3f5f7" d="M205-11l146-8 2 32-147 7z"/><path fill="#312818" d="M281 185l-7 7-10-10 7-7z"/><path fill="#b8b6aa" d="M192 232h-2l23-65h1z"/><path fill="#dee2de" d="M80 166l51-4 1 8-52 4z"/><path fill="#977f5c" d="M146 101l-8 7-1-1 8-7z"/><path fill="#a48a76" d="M187 63l-1-1 7-8 1 1z"/><path fill="#d0d0c6" d="M127 117l4 26-6 1-5-26z"/><path fill="#8d9394" d="M3 176l39-2v2l-39 1z"/><path fill="#5a400e" d="M167 65l-6 1-1-1 6-2z"/><path fill="#b2a58b" d="M138 66l7 3v1l-7-3z"/><path fill="#745c4d" d="M212 72l-3-1 2-4 3 1z"/><path fill="#c5b28c" d="M237 118l-2 22h-1l1-22z"/><path fill="#cdc9b9" d="M211 159h-1l-1-29h2z"/><path fill="#f1f3f4" d="M232 78l-24-64 59-22 23 65z"/><path fill="#9e9c94" d="M177 126l-6 5-2-2 5-5z"/><path fill="#a49b97" d="M215 54l-7-2v-1l8 1z"/><path fill="#aeb3b5" d="M35 167h2l4 8-1 1z"/><path fill="#dddccd" d="M155 63l-24 5v-1l24-5z"/><path fill="#836c5c" d="M190 66l-12 8-1-1 12-8z"/><path fill="#b8b39a" d="M240 149l7 1-1 12h-7z"/><path fill="#6e6864" d="M180 110l5-15h2l-5 15z"/><path fill="#a38763" d="M249 176l11 1-1 39-11-1z"/><path fill="#322f24" d="M75 176l2 5-35 10-1-5z"/><path fill="#a39996" d="M222 70l-1-1 2-6 2 1z"/><path fill="#b6b2ab" d="M225 71l-6 32h-2l6-32z"/><path fill="#6b3d0c" d="M180 60l-1 1-7-4 1-1z"/><path fill="#e0e6e4" d="M349 117l14 35-19 8-14-35z"/><path fill="#e3e6df" d="M153 96l10-5 5 12-11 4z"/><path fill="#9a897c" d="M226 99l-4 11-3-1 4-11z"/><path fill="#dae4df" d="M11 171l4-2 1 2-5 2z"/><path fill="#dbdccc" d="M168 142h2l-14 33h-2z"/><path fill="#8f9594" d="M310 158l5-3 1 1-5 3z"/><path fill="#74665a" d="M247 156v14h-1l-1-14z"/><path fill="#5b655f" d="M264 167l6 3-1 2-6-3z"/><path fill="#f0f8ea" d="M203 36l3 10-5 1-2-10z"/><path fill="#bdbfbe" d="M191 96l3 2-21 42-3-2z"/><path fill="#7e816e" d="M262 179l1-9h1v9z"/><path fill="#645f5c" d="M309 165h-2l1-3h2z"/><path fill="#968177" d="M185 89l2-5h2l-3 6z"/><path fill="#6d5c44" d="M153 66l1-1 7 5-1 1z"/><path fill="#483a25" d="M161 139v-8h5v8z"/><path fill="#312e21" d="M264 171l14 1v9l-14-1z"/><path fill="#c4c6bd" d="M135 198l4-29h6l-4 30z"/><path fill="#313123" d="M381 165l2-1 6 13-2 1z"/><path fill="#88725e" d="M201 123l1-25h1v25z"/><path fill="#857260" d="M145 87v1l-4 2-1-2z"/><path fill="#70624b" d="M145 73l6 8-1 1-6-8z"/><path fill="#1f1e12" d="M344 167l1-1 4 7h-2z"/><path fill="#65523e" d="M171 115l1-6h2l-1 6z"/><path fill="#6f512b" d="M135 87l1 2-16 6-1-1z"/><path fill="#dbdcd9" d="M138 201l5-9 11 6-4 8z"/><path fill="#9ea5a8" d="M78 176v-7l2 1-1 6z"/><path fill="#232319" d="M7 212l-7-17 29-12 7 18z"/><path fill="#d0cb9e" d="M151 54l-3 1-1-1 3-2z"/><path fill="#d0c6a9" d="M119 82l-1-2 15-13 1 1z"/><path fill="#bbb4a0" d="M146 87h3v3h-3z"/><path fill="#df7d6e" d="M195 48l-1-1 3-3 1 1z"/><path fill="#f1f5f5" d="M165 46l32-28 5 6-32 28z"/><path fill="#969589" d="M227 170l2-2 1 1-1 2z"/><path fill="#f1f3f4" d="M134 66l-19 8-13-33 19-7z"/><path fill="#856f55" d="M253 219h-1l-7-40h2z"/><path fill="#190200" d="M188 47l-1 5h-1v-5z"/><path fill="#ecd6ca" d="M211 62v-2l5 2-1 1z"/><path fill="#c0bba7" d="M136 84l-1-3 12-4 1 3z"/><path fill="#c5bea3" d="M264 189l1 20h-2l-1-20z"/><path fill="#e2e0d3" d="M205 58l-4 14-2-1 5-13z"/><path fill="#a4a8aa" d="M293 165v2l-12 1-1-2z"/><path fill="#aca299" d="M207 70l-1-6 8-1v6z"/><path fill="#dcdad1" d="M206 66l1-9h1l-1 9z"/><path fill="#9f9284" d="M182 80l-11 24-1-1 11-24z"/><path fill="#ac9f83" d="M237 143l-6 22h-1l6-23z"/><path fill="#232213" d="M381 178l-4 4-16-14 4-5z"/><path fill="#3e3d3a" d="M289 171v-2h11v1z"/><path fill="#2f332d" d="M33 180l-3 5h-2l3-6z"/><path fill="#624e3f" d="M211 96l-7 14-1-1 7-14z"/><path fill="#aa9a93" d="M220 66h-1v-5h1z"/><path fill="#72563d" d="M207 105l-3 2-3-8 3-1z"/><path fill="#727066" d="M178 108l3 4-2 1-2-4z"/><path fill="#bab3a3" d="M173 103h1l-17 30h-1z"/><path fill="#7b5527" d="M138 119l1-1 3 6h-2z"/><path fill="#483a2b" d="M275 177l12 2-1 2-12-3z"/><path fill="#7d6a4b" d="M210 91h1v4h-2z"/><path fill="#c2aca5" d="M212 57l4 2-1 1-4-2z"/><path fill="#5b4840" d="M214 134h2l-1 12h-1z"/><path fill="#bfc7cb" d="M78 172H45v-1l33-1z"/><path fill="#666f6a" d="M321 169l-2-1 2-4 2 1z"/><path fill="#e2e8e7" d="M433 131l-161 11v-9l160-11z"/><path fill="#543e1e" d="M143 119l1-1 5 6-1 1z"/><path fill="#a49b8c" d="M202 127l-7 23-2-1 8-22z"/><path fill="#aa8423" d="M154 59l-1-2 4-2 1 2z"/><path fill="#beb29b" d="M192 155l1-11h1l-1 11z"/><path fill="#dbded7" d="M117 185l19 3-2 10-18-3z"/><path fill="#daddd6" d="M108 89l-4 24h-1l4-25z"/><path fill="#b99936" d="M159 61h-3l-1-1 3-1z"/><path fill="#8d8d89" d="M308 161l5 3-1 2-5-4z"/><path fill="#c3bca3" d="M137 134l-11-16h1l11 15z"/><path fill="#623226" d="M190 54v-3h6v3z"/><path fill="#b5a698" d="M215 146l1-3h2l-1 3z"/><path fill="#c5ad9b" d="M220 73v8h-13v-8z"/><path fill="#baa98f" d="M149 176l-2-19h3l2 19z"/><path fill="#e6ebe8" d="M114 104v22h-4l-1-22z"/><path fill="#e5dbc8" d="M230 131h1v15h-1z"/><path fill="#c2c0b3" d="M196 127l-1 17h-1v-17z"/><path fill="#3c3b32" d="M330 168l11 5-1 1-11-5z"/><path fill="#8a836c" d="M165 143l-1-3h1l1 3z"/><path fill="#6f5643" d="M244 209h-1l-1-19h1z"/><path fill="#c5cdcc" d="M363 157l-9 7-3-3 8-8z"/><path fill="#4e4e44" d="M361 165v-2l11-1v1z"/><path fill="#b5bbb9" d="M311 156l-6-2 1-2 6 2z"/><path fill="#baa789" d="M113 85l-1-1 27-2v2z"/><path fill="#17150c" d="M344 206l-1-11 39-3 1 11z"/><path fill="#a78a61" d="M159 157l-5-9 1-1 6 10z"/><path fill="#e9d8bc" d="M161 59l6-5 2 1-7 5z"/><path fill="#c9cbc6" d="M105 197h-2v-24h2z"/><path fill="#e5e6de" d="M134 67l6 7-1 1-6-7z"/><path fill="#2e2e25" d="M46 177l-2 8-4-1 2-8z"/><path fill="#adb4b0" d="M335 164l2-1 1 3-1 1z"/><path fill="#dbe2de" d="M410 131v1l-81 29v-1z"/><path fill="#bcad9c" d="M221 80l-11 21-1-1 11-21z"/><path fill="#b6a383" d="M154 73l1-4h2l-1 5z"/><path fill="#dbdacf" d="M152 83l2 1-8 19-1-1z"/><path fill="#cdbfa9" d="M251 138h-2l-4-21h1z"/><path fill="#9c8158" d="M253 157l3 34h-1l-3-34z"/><path fill="#b8a183" d="M251 163h-2l2-25h2z"/><path fill="#242114" d="M409 165l8 14-28 17-8-14z"/><path fill="#bba8a4" d="M198 80h-2l2-14h1z"/><path fill="#737a7c" d="M59 176v-1h3v2z"/><path fill="#b09c83" d="M136 114v3l-2-1 1-3z"/><path fill="#ecf2f1" d="M274 93l-4-34 33-4 4 34z"/><path fill="#444538" d="M22 185l-1 1-41-7v-1z"/><path fill="#a4a9a5" d="M81 204l-3-1 2-9 3 1z"/><path fill="#60512d" d="M118 104l-4-5 1-1 4 4z"/><path fill="#dce4e1" d="M322 144l3 17h-1l-4-17z"/><path fill="#514f44" d="M184 81l-1-1v-3h2z"/><path fill="#bdb7ac" d="M177 102h1v4h-1z"/><path fill="#605e52" d="M181 87l1 3h-2l-1-3z"/><path fill="#f1f4f4" d="M148 43l34-22 9 13-34 22z"/><path fill="#bba397" d="M195 58h1l-8 17h-1z"/><path fill="#2a2312" d="M312 170l31 10-3 11-32-10z"/><path fill="#9ea49d" d="M320 165v1l-8-1 1-1z"/><path fill="#6e5d4e" d="M179 101l-2 1-1-8h2z"/><path fill="#d3d8d6" d="M116 174l-1 1-32-3v-2z"/><path fill="#dbdfda" d="M96 169l8 1-2 43h-7z"/><path fill="#f6f5ee" d="M164 74l-1-1 9-5 1 1z"/><path fill="#978378" d="M228 81l-6 34-1-1 6-33z"/><path fill="#75705d" d="M159 73l-2 4-2-1 2-4z"/><path fill="#201b0d" d="M270 213l-5-15 39-12 4 15z"/><path fill="#cdcec4" d="M209 184l9-38 9 2-9 38z"/><path fill="#c8bba3" d="M236 148v-22h1l1 22z"/><path fill="#ae937c" d="M200 97l7-6 1 1-8 6z"/><path fill="#c4c0b2" d="M135 75l1-1 12 9-1 1z"/><path fill="#99877c" d="M190 64h6v8h-7z"/><path fill="#1e1c12" d="M6 184l-3 18H2l3-18z"/><path fill="#b6b0a1" d="M265 203h-1l1-8h1z"/><path fill="#c7cac8" d="M221 60l-4-5 1-1 4 5z"/><path fill="#937f59" d="M111 94v4h-1l-1-4z"/><path fill="#b09774" d="M261 214l-3-42h2l3 42z"/><path fill="#c8cece" d="M49 168l-1-2 5-4 1 1z"/><path fill="#7f6544" d="M141 108l-1 1-7-3 1-1z"/><path fill="#777866" d="M161 67l3 4-1 1-3-4z"/><path fill="#f1f4f4" d="M7-38l64 81-77 60-63-82z"/><path fill="#8b7f7a" d="M211 56l1-3 4 2-2 3z"/><path fill="#815700" d="M156 58h-7v-2h6z"/><path fill="#dbe3df" d="M259 151l38-8 1 4-38 9z"/><path fill="#413f36" d="M70 180l8-4 1 2-9 4z"/><path fill="#c1c7c5" d="M300 155h2l-3 11-2-1z"/><path fill="#dbe3e0" d="M326 155v-2l18-3 1 1z"/><path fill="#7f8483" d="M79 174h-2l-1-2 1-1z"/><path fill="#e8ecea" d="M315 121l-1-10 94-14 1 9z"/><path fill="#553a20" d="M174 61h7v2l-8-1z"/><path fill="#cabbab" d="M169 99h1v7h-1z"/><path fill="#c8c7bb" d="M201 210l-11-1 4-36 11 1z"/><path fill="#dfe1de" d="M113 169l-18-54 12-4 18 53z"/><path fill="#cbc9c4" d="M172 206l14-72 9 2-14 72z"/><path fill="#56463d" d="M181 61l2-2 3 3-2 2z"/><path fill="#dee5e2" d="M312 154l-5-6 11-9 5 6z"/><path fill="#d4d6ce" d="M239 115l3 22h-1l-4-22z"/><path fill="#2c2211" d="M347 177l1-3 25 6v3z"/><path fill="#bab9b4" d="M185 108h2l-5 29h-1z"/><path fill="#c1cdcc" d="M-13 172v-2l28 4v1z"/><path fill="#9f9070" d="M149 160l5-18h2l-5 18z"/><path fill="#b1ac9e" d="M166 121l-8 5-1-1 8-6z"/><path fill="#8b6d40" d="M126 86l1-2 5 4-1 1z"/><path fill="#d0c0b8" d="M212 59l-2-7h2l2 7z"/><path fill="#302612" d="M286 182l9-1 2 11-10 1z"/><path fill="#997950" d="M162 149v2l-9 2-1-2z"/><path fill="#ab9e8d" d="M178 88l1-12h1l-1 12z"/><path fill="#7a664d" d="M141 122l-4-2 1-6 5 2z"/><path fill="#e1e5e4" d="M20 172l1-17h4l-1 17z"/><path fill="#a38052" d="M184 56l1 1-5 1v-1z"/><path fill="#c0cac4" d="M324 163l1-1 3 2-1 1z"/><path fill="#483e28" d="M275 187l1 1-2 2-1-1z"/><path fill="#797e7a" d="M344 166v-2h4v2z"/><path fill="#becbca" d="M422 161h-52v-2h52z"/><path fill="#cfcfc9" d="M172 209l-18 3-6-34 19-3z"/><path fill="#d9e1dd" d="M399 140l-1 8-39-2 1-8z"/><path fill="#dcddd4" d="M229 158l-14 43-2-1 14-43z"/><path fill="#595b50" d="M75 198v3h-1l-1-3z"/><path fill="#98877a" d="M203 116h-2l-2-9h2z"/><path fill="#a6998b" d="M204 122h-1l1-5h1z"/><path fill="#c0b296" d="M252 138h1l6 16h-1z"/><path fill="#aa967d" d="M247 172l3-27h2l-4 27z"/><path fill="#d9c5b7" d="M197 65l-1-1 2-9 2 1z"/><path fill="#ced2cb" d="M228 72l-5-7 1-1 5 7z"/><path fill="#ae9d80" d="M234 226h-1l9-54h2z"/><path fill="#867b61" d="M266 190l-1 3-2-1 2-2z"/><path fill="#b1a490" d="M140 112l6-5 1 1-6 5z"/><path fill="#cecec6" d="M208 142l-6 34-3-1 6-34z"/><path fill="#7e8587" d="M48 175h5v2h-4z"/><path fill="#cecec0" d="M145 57l2 6-3 1-2-6z"/><path fill="#77675f" d="M246 161l-1 14h-2l2-14z"/><path fill="#a64d33" d="M194 51h-2v-7h2z"/><path fill="#f3f5f4" d="M390-17l25 5-7 31-24-6z"/><path fill="#c3c7c2" d="M8 166v-3l5 1-1 3z"/><path fill="#8a6959" d="M217 69l-4 2-1-1 5-2z"/><path fill="#f7e0de" d="M185 40l1 1-4 5-1-1z"/><path fill="#927b58" d="M121 110l3-1 1 5h-3z"/><path fill="#a9b0b3" d="M-1 176v-2l38-1v1z"/><path fill="#4d4744" d="M308 169v-3l4-2 1 3z"/><path fill="#b7a485" d="M154 109v-3l10 2-1 3z"/><path fill="#7e7462" d="M244 173v9h-2v-9z"/><path fill="#d2d8d1" d="M233 88l-6 42-2-1 6-41z"/><path fill="#787067" d="M215 141l1-11h2l-1 11z"/><path fill="#c7c6bd" d="M220 214l17-55h1l-17 56z"/><path fill="#bfc4be" d="M218 98l-9 50-3-1 9-49z"/><path fill="#b2a693" d="M148 72v1h-7v-1z"/><path fill="#7c726a" d="M182 94h6v1h-6z"/><path fill="#d9d9cc" d="M76 198l1 3h-1l-1-3z"/><path fill="#daddd8" d="M174 77h-2l3-12h2z"/><path fill="#919794" d="M1 159l2 5H1l-2-4z"/><path fill="#9b8c68" d="M240 183h-2l2-17h2z"/><path fill="#a9a098" d="M227 101h-2V88h1z"/><path fill="#bcab9b" d="M219 113v4h-2v-4z"/><path fill="#adb1b2" d="M274 166l1-1 2 1v2z"/><path fill="#aa9e84" d="M154 66l-6-1v-2l6 2z"/><path fill="#7c664a" d="M152 115l-1 2-5-2 2-3z"/><path fill="#dee5e3" d="M297 162h-2l7-26h1z"/><path fill="#777c7b" d="M367 160l-1-3h3l1 3z"/><path fill="#434544" d="M396 164l7 3-1 2-7-3z"/><path fill="#c7d2d1" d="M349 162v1l-34-1v-2z"/><path fill="#cccfc4" d="M147 145l-1-1 5-6 1 1z"/><path fill="#5b411b" d="M129 102l-7 5-2-4 6-5z"/><path fill="#bbbfbe" d="M107 175l1-1 2 3h-1z"/><path fill="#6a6b66" d="M278 170v-2l8 2v1z"/><path fill="#966767" d="M198 48l1 5h-1l-2-4z"/><path fill="#eef3f2" d="M240 64l-2 28-7-1 1-28z"/><path fill="#575049" d="M182 81l1 5h-1l-1-5z"/><path fill="#c2c1bd" d="M226 69l1 1-5 4-1-2z"/><path fill="#9e6b4a" d="M184 55h-10v-2h10z"/><path fill="#8c775c" d="M247 174h1l1 22h-2z"/><path fill="#e4e7e9" d="M13 138l4 14-28 8-4-13z"/><path fill="#a5a8a1" d="M361 161l1 1-3 1-1-2z"/><path fill="#a7926b" d="M237 143l-2 1-1-4 1-1z"/><path fill="#9f8b68" d="M120 110l-2-2 1-1 2 2z"/><path fill="#978678" d="M176 93l-2-1 14-33 2 1z"/><path fill="#534e48" d="M306 172l-3-3 3-2 2 3z"/><path fill="#c4b7a3" d="M255 134l-1 7-11-1 1-8z"/><path fill="#665445" d="M180 92v3l-2-1v-3z"/><path fill="#957d5b" d="M161 112l-4 7-1-1 4-7z"/><path fill="#d4d5cf" d="M213 109l-29 97-2-1 30-97z"/><path fill="#dfdbcf" d="M111 84v2h-5v-1z"/><path fill="#d4d7d2" d="M149 145l-1 6-26-1v-6z"/><path fill="#7f786f" d="M232 162l-1 3-2-1 1-2z"/><path fill="#7c7d77" d="M391 167v-1h4v1z"/><path fill="#daa693" d="M198 43l-1 1-12-1v-1z"/><path fill="#664f34" d="M163 131h1l-3 12-2-1z"/><path fill="#7c6f5b" d="M224 110l-5 8-1-1 5-8z"/><path fill="#a38d6d" d="M128 78l7 6-2 2-7-6z"/><path fill="#888e88" d="M333 165l2-1 2 4-1 1z"/><path fill="#575653" d="M41 176l1 1-6 5-1-1z"/><path fill="#7c6c67" d="M214 136v5h-1l-1-5z"/><path fill="#889593" d="M402 164v1l-6-2 1-1z"/><path fill="#e7ece9" d="M134 64l11-3v2l-10 2z"/><path fill="#e9eded" d="M-10 120l88 8-1 9-87-7z"/><path fill="#aa9a7a" d="M158 163l-9-4 1-1 9 3z"/><path fill="#e4e9e6" d="M255 129l1-11 34 1v11z"/><path fill="#8c826f" d="M211 167v-23h2l-1 23z"/><path fill="#dae0e0" d="M49 171v-3l47-3v3z"/><path fill="#f3efeb" d="M174 66l1 1-4 3-1-2z"/><path fill="#656565" d="M36 177l-42 2v-2l42-1z"/><path fill="#ced1cc" d="M228 128l-24 90h-2l24-91z"/><path fill="#e0e4e2" d="M14 149l3 2-14 21-3-2z"/><path fill="#b5a88d" d="M143 66l11 12-2 1-10-11z"/><path fill="#272310" d="M333 188l-1-1 18-17 1 1z"/><path fill="#ecf2ec" d="M157 83l-4 9-2-2 3-8z"/><path fill="#bbc3c2" d="M367 153l6 4-1 1-6-4z"/><path fill="#f7cfc0" d="M179 49v2l-6-2v-1z"/><path fill="#d5d9cf" d="M206 51l-1-1 6-3 1 2z"/><path fill="#2b2a21" d="M-17 197v-6l35-5 1 6z"/><path fill="#c5cbcb" d="M91 175v1l-15-5 1-2z"/><path fill="#bfb298" d="M211 156v12h-2l1-13z"/><path fill="#d5d8d2" d="M114 181l-2-2 20-15 2 3z"/><path fill="#d9d4c9" d="M191 93v-1l7-2v1z"/><path fill="#b7a799" d="M220 85h2v10h-2z"/><path fill="#ac8d6d" d="M159 111l-1 1-6-2 1-2z"/><path fill="#8b6d43" d="M137 129l4-7 1 1-3 7z"/><path fill="#696762" d="M56 178l-7 1v-2l6-1z"/><path fill="#d9dedb" d="M303 157l-42 5v-2l42-4z"/><path fill="#6a452e" d="M190 52v1h-10l1-2z"/><path fill="#a7aea9" d="M395 164h-4v-2l4 1z"/><path fill="#b0aca7" d="M206 52v-1l11 1v2z"/><path fill="#564d40" d="M215 133l1-8h2l-1 8z"/><path fill="#201e0f" d="M70 179l-15 34h-2l16-34z"/><path fill="#a1907c" d="M246 176l2 1-5 11-2-1z"/><path fill="#9c9891" d="M171 121l3-1v2h-3z"/><path fill="#d3cbbb" d="M250 133l-3-6 5-2 2 6z"/><path fill="#bba99b" d="M192 84l-2 9h-2l2-9z"/><path fill="#b7a98d" d="M109 86h1l-1 11h-2z"/><path fill="#d3d5ce" d="M192 100l13-37 1 1-12 37z"/><path fill="#4b493f" d="M51 182l-10-5 1-1 9 5z"/><path fill="#c9bdb7" d="M181 88l1-1 1 5h-1z"/><path fill="#70530d" d="M155 56h-5v-1h5z"/><path fill="#aeb2ae" d="M103 220l-5 1-15-42 5-2z"/><path fill="#968061" d="M129 102l5-4 1 2-5 3z"/><path fill="#a1a9a4" d="M332 162l1-1 2 4-1 1z"/><path fill="#ac8f77" d="M177 72h2l-2 8-1-1z"/><path fill="#69502b" d="M127 93l1-3 9 3-1 3z"/><path fill="#241f10" d="M295 184l-1-1 9-13 1 1z"/><path fill="#dacba9" d="M120 75v-1l6 2-1 2z"/><path fill="#c0b1a0" d="M173 88l5-6 1 1-5 6z"/><path fill="#d4d9d4" d="M96 180l9 35-3 1-9-35z"/><path fill="#796c4f" d="M152 117l5 4-1 1-5-4z"/><path fill="#c8961a" d="M152 58l3-1 1 2-3 1z"/><path fill="#b3b8b6" d="M324 155v-5h3v5z"/><path fill="#7d6f66" d="M185 93l-1-6h1l2 6z"/><path fill="#362d19" d="M332 223l14-48h2l-14 48z"/><path fill="#ebf0f0" d="M94 118l-11-5 15-36 12 5z"/><path fill="#bbbeb8" d="M182 146l-12-3 3-15 12 2z"/><path fill="#7a644c" d="M247 213l-3-27h1l3 26z"/><path fill="#cab7af" d="M181 92l1 5h-2l-1-4z"/><path fill="#edf2ef" d="M250 118l-9-15 54-32 9 15z"/><path fill="#c5c4a5" d="M231 157h-2l1-6h2z"/><path fill="#2f2d1e" d="M394 173l-11 9-3-4 11-8z"/><path fill="#dad4c8" d="M236 163l-1-1 2-7h2z"/><path fill="#a09282" d="M184 68l2 1-6 18-2-1z"/><path fill="#6b5331" d="M136 107l-4-2 2-4 4 2z"/><path fill="#cdbfa0" d="M147 65l2-1 2 4-1 1z"/><path fill="#cad0c4" d="M227 137h2l-5 18h-1z"/><path fill="#c8ccc6" d="M190 143l-5-1 8-43 5 1z"/><path fill="#898e88" d="M10 169l-1-5h2v5z"/><path fill="#c4c9bf" d="M228 111l-6 14h-2l7-15z"/><path fill="#70605c" d="M190 61l-1 5-2-1 1-4z"/><path fill="#756051" d="M190 58l1 3-1 1-1-3z"/><path fill="#aeb1aa" d="M105 205l-1-21h2l1 21z"/><path fill="#272010" d="M268 186v-5l13 1-1 4z"/><path fill="#b6bbb9" d="M305 149l-1-5h2l1 4z"/><path fill="#c8cecd" d="M365 159l-3-1 3-12 3 1z"/><path fill="#f2f3f5" d="M144 10l33 3-4 38-32-3z"/><path fill="#e2e5e6" d="M56 154L9 165l-1-1 47-12z"/><path fill="#c29b7b" d="M173 55v1h-3l-1-1z"/><path fill="#7c5d3d" d="M113 92l-2-1 3-6 1 1z"/><path fill="#7a7d79" d="M302 162l1-1 3 4-1 1z"/><path fill="#3b190c" d="M185 47v-1l6-1 1 1z"/><path fill="#e5eae6" d="M233 101l42 30-3 4-42-30z"/><path fill="#c9cecd" d="M37 166l1-1 2 5h-1z"/><path fill="#c6a444" d="M158 59l-1-2 2-1 1 1z"/><path fill="#bd8672" d="M195 48l-4 1v-2l4-1z"/><path fill="#daded7" d="M115 146l-3-28h6l3 28z"/><path fill="#ada191" d="M197 134h-1l-1-10h2z"/><path fill="#bd9d8d" d="M205 78l11 4-1 1-10-4z"/><path fill="#302c20" d="M315 178v-8h22v8z"/><path fill="#a4927a" d="M161 68l-1 3h-1l1-3z"/><path fill="#e4b6af" d="M193 50h-3v-1l3-1z"/><path fill="#d4d6cb" d="M163 155l1 1-10 31-1-1z"/><path fill="#ded8c9" d="M144 136l-1 1-4-6 1-1z"/><path fill="#5d4d34" d="M147 78v-2l5 1-1 2z"/><path fill="#e4e7e9" d="M-18 156l-1-14 107-9 2 14z"/><path fill="#302b1f" d="M349 171l5-3 5 6-6 4z"/><path fill="#454d48" d="M324 167l-1 1-2-3h2z"/><path fill="#f0f2f4" d="M7 32h66v16H7z"/><path fill="#6e512d" d="M138 118l1-1 9 13-1 1z"/><path fill="#eff1f1" d="M400 69l-25 13-26-49 24-14z"/><path fill="#29251b" d="M318 168l1 1-4 3-1-2z"/><path fill="#959285" d="M197 149h-1l-1-9h1z"/><path fill="#8c422c" d="M194 48v3h-2v-3z"/><path fill="#978976" d="M147 86l-1 3-4-1 1-3z"/><path fill="#706555" d="M148 130h3v1h-3z"/><path fill="#bebdaa" d="M263 166l-1 11h-1v-11z"/><path fill="#7c4517" d="M178 54v1l-4 2-1-1z"/><path fill="#d4dad8" d="M362 159h-2l5-14 2 1z"/><path fill="#d6d1bd" d="M257 147l2-3 1 2-2 2z"/><path fill="#d9e0d7" d="M112 216h-1l-3-33h2z"/><path fill="#e1e4e1" d="M88 156l12-7 11 19-13 7z"/><path fill="#dce3dc" d="M176 65v-2l3 2-1 1z"/><path fill="#bec4c1" d="M300 152l3 9-1 1-4-9z"/><path fill="#d8c8c0" d="M200 63v13h-2V63z"/><path fill="#c9cac4" d="M200 235l-3-1 23-70 3 1z"/><path fill="#c6c4b1" d="M146 183l-1 1-2-13h1z"/><path fill="#babfc3" d="M53 167l3 4-2 1-2-4z"/><path fill="#a39b8a" d="M148 85l-1-1v-4h2z"/><path fill="#bdbeb9" d="M129 128l1-1 15 12-1 1z"/><path fill="#f0f2f3" d="M271 15l17 45-54 21-17-46z"/><path fill="#7f6f5c" d="M167 115h2v6h-2z"/><path fill="#dde7e4" d="M168 94l-1 11-5-1 1-10z"/><path fill="#a08667" d="M213 91l-5 2v-1l4-2z"/><path fill="#76532c" d="M174 62v3l-9-1v-3z"/><path fill="#e5e6de" d="M78 184v-4h2v4z"/><path fill="#aa9373" d="M110 84l16 1v2l-16-2z"/><path fill="#ae9c7e" d="M236 185l6 18-5 1-5-18z"/><path fill="#9e8d69" d="M155 155l-1 11h-2l2-11z"/><path fill="#c0ccc7" d="M171 138h1l-7 23-1-1z"/><path fill="#c6ccca" d="M316 160l-3-4 7-5 3 4z"/><path fill="#231e10" d="M362 198l-5-1 5-21 4 1z"/><path fill="#b5bbb9" d="M320 156h-1l-3-4h2z"/><path fill="#d0cfc4" d="M154 107h-2l-10-15 1-1z"/><path fill="#5a5b5d" d="M8 178l17 1v1l-17-1z"/><path fill="#8d6f47" d="M157 144l5 6-2 1-4-6z"/><path fill="#726157" d="M217 59h1l1 6h-1z"/><path fill="#cad0cd" d="M41 160l1-2 3 3-1 1z"/><path fill="#dee0d7" d="M161 75l1 1-6 7-1-1z"/><path fill="#9a866b" d="M139 116l-1 2-7-5 1-1z"/><path fill="#bebaac" d="M229 189l2 20h-2l-2-20z"/><path fill="#c3b9a7" d="M153 132l4 1-2 8-4-1z"/><path fill="#91703e" d="M112 91h1l-1 4h-2z"/><path fill="#988d60" d="M232 153l-1-4h2v3z"/><path fill="#68594a" d="M217 125l1-8h1l-1 8z"/><path fill="#2f2c20" d="M76 186l-1 1-9-9 1-1z"/><path fill="#282516" d="M367 183l17-16 1 2-17 15z"/><path fill="#5f4226" d="M122 107l1-2 13 6-1 1z"/><path fill="#dccaa3" d="M139 65l8-1v1l-8 1z"/><path fill="#acbbbc" d="M396 161v1l-15 1v-2z"/><path fill="#a18b6d" d="M249 187l8 24h-2l-7-24z"/><path fill="#bfc6c4" d="M359 159l-3-1 2-6 3 1z"/><path fill="#bbbeb6" d="M222 84l-10 31h-1l10-32z"/><path fill="#dfdfd5" d="M168 88l5-16 2 1-6 16z"/><path fill="#a8b1ad" d="M10 176l-4-8 1-1 5 8z"/><path fill="#808384" d="M69 175v-2l4 1v1z"/><path fill="#697068" d="M377 164v2h-3v-2z"/><path fill="#eae9e7" d="M155 101h-8v-4l8 1z"/><path fill="#959b9b" d="M301 164v1l-6 1v-2z"/><path fill="#ab9680" d="M138 93v-6h1v6z"/><path fill="#9c8d71" d="M150 72l-5-4 1-1 5 4z"/><path fill="#939997" d="M73 172h3v1l-3 1z"/><path fill="#a0a6a4" d="M310 159l-1-3 1-1 1 3z"/><path fill="#7c5833" d="M168 59l9 1v1l-9-1z"/><path fill="#4c3a1e" d="M170 65l-7 1v-2h7z"/><path fill="#524536" d="M171 124l-4 3-2-2 4-4z"/><path fill="#c3b59f" d="M242 153l-2-1 11-16 1 1z"/><path fill="#302e23" d="M267 182l-1-2 28-10 1 1z"/><path fill="#bcad81" d="M233 159v-7h2l-1 7z"/><path fill="#eaa68f" d="M195 42v5h-1v-5z"/><path fill="#e8c3ac" d="M178 48l1 2-5 3-1-1z"/><path fill="#69726d" d="M41 177l-1-2h5v1z"/><path fill="#bf967d" d="M187 54l-3 1-1-1 3-1z"/><path fill="#865745" d="M188 46l-3-1 1-2 3 1z"/><path fill="#88786a" d="M209 98v-4h2v4z"/><path fill="#a2927c" d="M177 108l-2 1v-3l1-1z"/><path fill="#dbe3df" d="M312 144v-3l44 13-1 3z"/><path fill="#312715" d="M57 192l3 12-13 3-2-13z"/><path fill="#c2bfb3" d="M225 107l3-7h1l-2 8z"/><path fill="#a8978b" d="M188 82l-1 6h-1v-6z"/><path fill="#d2d6d0" d="M159 171l-18 57-2-1 19-56z"/><path fill="#2b2b1e" d="M12 212l-1-1 32-31 1 2z"/><path fill="#ced5d4" d="M31 174l7-10 1 1-7 10z"/><path fill="#c5cccb" d="M403 160l-6 2-1-5 6-2z"/><path fill="#b7b6ab" d="M199 218h-1l11-41h1z"/><path fill="#e2e6e6" d="M41 148v18H17v-18z"/><path fill="#b6a488" d="M149 174l-1-22h2v22z"/><path fill="#b8c2c2" d="M299 163l-1 1h-7v-2z"/><path fill="#d1d1ca" d="M178 239l-2-1 23-84h1z"/><path fill="#cbc9c2" d="M157 188l-2-1 21-33 1 1z"/><path fill="#64645e" d="M273 168l-2 1-2-4 2-1z"/><path fill="#e3e6d8" d="M132 68l1-1 3 4-2 1z"/><path fill="#d7dad3" d="M146 168l-5-18 2-1 5 18z"/><path fill="#7c7c73" d="M371 161v2l-6-1v-2z"/><path fill="#c0c6bc" d="M313 164l2-2 1 1-2 2z"/><path fill="#715319" d="M151 60l-4-1v-2l5 1z"/><path fill="#bdc1bc" d="M352 162v2h-8v-1z"/><path fill="#baa681" d="M263 188l1 19h-3l-1-19z"/><path fill="#d2deda" d="M291 161l-28-1v-1l28 1z"/><path fill="#d8ded8" d="M116 109l-15-9 1-1 15 8z"/><path fill="#8c8f8f" d="M282 166l4 2-1 2-4-2z"/><path fill="#3a3c37" d="M65 179l2-4h1l-2 5z"/><path fill="#9e9484" d="M219 131h-2v-4h2z"/><path fill="#c79a30" d="M150 58h5v1h-5z"/><path fill="#d5d7d3" d="M130 137l16 7-3 5-15-7z"/><path fill="#2a2514" d="M292 184l12 7-3 5-13-7z"/><path fill="#737a7a" d="M297 166l-4 2-1-1 4-3z"/><path fill="#b2b19a" d="M162 129l-5-12h2l4 11z"/><path fill="#d0d2ca" d="M139 168l-1 1-22-61h1z"/><path fill="#d6d9da" d="M229 112h2l-2 44-2-1z"/><path fill="#2a230b" d="M295 192l-28 1-1-2 28-1z"/><path fill="#b1b9b8" d="M19 174l-1-6h2l1 6z"/><path fill="#1c1b0f" d="M378 179l12 7-10 15-12-8z"/><path fill="#eff5f1" d="M154 90l15-20 1 1-15 20z"/><path fill="#26271f" d="M328 167l3 8h-2l-2-7z"/><path fill="#dbd7c5" d="M232 116l-1 20h-2l1-20z"/><path fill="#d9e0dd" d="M327 155h1l-3 7h-1z"/><path fill="#dee5e4" d="M261 149l-1-6 93-10 1 7z"/><path fill="#8a6b43" d="M137 124l-5-5 2-1 4 5z"/><path fill="#e9eaea" d="M109 129l-1-12 3-1 1 13z"/><path fill="#857d69" d="M264 195v-3l1-1 1 3z"/><path fill="#b5a88d" d="M238 163l3-3 4 3-3 4z"/><path fill="#aaafac" d="M107 173l1 1-1 4h-1z"/><path fill="#453821" d="M283 191h-2l3-6 2 1z"/><path fill="#79655c" d="M186 85v4h-2l1-5z"/><path fill="#dfd3c1" d="M238 124l-4-11 1-1 5 11z"/><path fill="#eef3f0" d="M406 47l-1 39h-22l1-39z"/><path fill="#b49087" d="M195 54v-1h5v2z"/><path fill="#a18b66" d="M143 107l-1 1-3-4 2-1z"/><path fill="#908477" d="M204 83l1 1-1 3-2-1z"/><path fill="#b5a089" d="M232 138l5 9-2 1-4-10z"/><path fill="#a59a8e" d="M211 63l1 1-2 3-2-1z"/><path fill="#666b69" d="M59 175v2h-4v-2z"/><path fill="#766346" d="M143 99l1 1-1 3-1-1z"/><path fill="#e7e9e0" d="M120 73l-1-1 16-9 1 1z"/><path fill="#8e7d6e" d="M203 120h-1l-1-13h2z"/><path fill="#7e6858" d="M142 85l1 1-2 2-1-1z"/><path fill="#1c190c" d="M308 172h4l4 20h-5z"/><path fill="#4f382c" d="M209 102h-2l-2-2 2-1z"/><path fill="#d1d5c5" d="M125 125l-6-10h1l6 9z"/><path fill="#594126" d="M115 92h5l1 8h-5z"/><path fill="#fedbcd" d="M194 38l1-1 4 5-2 1z"/><path fill="#8e9496" d="M22 177l-39-1v-2l39 2z"/><path fill="#c9cac3" d="M140 208l-2 1-4-41h1z"/><path fill="#332d17" d="M266 199l-1-15h2v14z"/><path fill="#998f88" d="M221 66h2l-2 7h-2z"/><path fill="#eef4ef" d="M145 52v-1l31-5v2z"/><path fill="#cbc3ad" d="M148 182l17-35 1 1-17 35z"/><path fill="#4b4840" d="M45 180l8-2v3l-7 2z"/><path fill="#5a1f11" d="M193 50h3v1l-3 1z"/><path fill="#8b908d" d="M1 164l-2-1 2-3 1 1z"/><path fill="#c9c8c1" d="M173 152l6 2-9 33-6-2z"/><path fill="#c9cbc2" d="M197 99l6-24h2l-7 24z"/><path fill="#b3ada1" d="M221 119l2 1-2 3-1-1z"/><path fill="#70665c" d="M175 104v-6h1l1 6z"/><path fill="#e6eae8" d="M264 121l120-12 1 9-120 13z"/><path fill="#c8b38c" d="M117 84l-1-2 12-8 1 1z"/><path fill="#ab9c81" d="M162 153l-2-4 2-1 1 5z"/><path fill="#858e8c" d="M271 164l-4 5-2-1 4-5z"/><path fill="#c7baa1" d="M216 155l-2 1v-4h2z"/><path fill="#99825f" d="M145 105l-2 1-2-3 2-1z"/><path fill="#d9cfc6" d="M178 72l-1 1-3-2 1-1z"/><path fill="#f7e8c9" d="M162 56l-2 2-2-3 2-2z"/><path fill="#a3a397" d="M152 82l-3-2 1-1 3 2z"/><path fill="#c8cccb" d="M-1 161l-1-1 5-1v2z"/><path fill="#a49586" d="M173 83l1 4-1 1-2-5z"/><path fill="#c5c4be" d="M203 49l1-1 4 4-1 1z"/><path fill="#452111" d="M192 46l-4 2-1-2 5-2z"/><path fill="#646762" d="M342 165v3h-1l-1-3z"/><path fill="#cdd6cb" d="M109 191h5v10l-4 1z"/><path fill="#baa99b" d="M170 108l1 3-1 1-2-3z"/><path fill="#d4d4cb" d="M213 50h-6v-1l6-1z"/><path fill="#7f6a5c" d="M180 70l3-2 1 1-2 2z"/><path fill="#d9d9cf" d="M138 206l-1-1 20-37 2 1z"/><path fill="#d0cdc2" d="M135 75l6-2 1 1-6 2z"/><path fill="#b7b5ab" d="M177 109l-1-4h2v4z"/><path fill="#d1d2c7" d="M164 160l2 1-13 15-1-1z"/><path fill="#b88672" d="M186 44v-1l4-2 1 2z"/><path fill="#757777" d="M391 165l-5 1v-1l4-2z"/><path fill="#a79992" d="M219 57l-3 2-2-2 2-2z"/><path fill="#2b2b1f" d="M269 171l33 4-1 2-32-4z"/><path fill="#3d3a33" d="M387 173l-2-3 5-3 2 2z"/><path fill="#5d5245" d="M218 130l-2 1-1-7h2z"/><path fill="#dbe2df" d="M399 149l-14 9-8-12 15-9z"/><path fill="#74654c" d="M150 121l1-1 4 4-1 1z"/><path fill="#d6d7cd" d="M226 157l3 1-7 36h-3z"/><path fill="#5c4e46" d="M214 135v-5h1l1 4z"/><path fill="#353122" d="M53 196l4-16 1 1-4 15z"/><path fill="#d4dbd9" d="M372 157l-13-14 2-1 12 14z"/><path fill="#cdc2b6" d="M170 94V80h2v14z"/><path fill="#d6dad7" d="M16 155l2 1-2 6-1-1z"/><path fill="#bec3c2" d="M293 153l-3-1v-3l3 1z"/><path fill="#584634" d="M149 125l2 1-2 4-1-1z"/><path fill="#8e8375" d="M176 87l11-17 1 1-11 17z"/><path fill="#1e1e13" d="M0 211l28-25 1 1-28 25z"/><path fill="#a6988b" d="M221 109h-2l2-7h2z"/><path fill="#bcb0a4" d="M173 100l1-8h1v8z"/><path fill="#1a1705" d="M348 191l4 3-11 13-4-3z"/><path fill="#6f7377" d="M27 176l-5 1v-1l4-1z"/><path fill="#a59480" d="M218 124l2-3 1 1-2 2z"/><path fill="#473016" d="M185 61h-6v-2l6 1z"/><path fill="#e3e8e2" d="M238 117l-6-15 4-2 6 15z"/><path fill="#ebbfb1" d="M201 46l-2-2 1-1 2 2z"/><path fill="#c2c8c5" d="M212 110l4 13h-1l-5-13z"/><path fill="#957466" d="M193 57l1-3h2l-1 3z"/><path fill="#ad906f" d="M164 59l3 1-1 1-3-1z"/><path fill="#7c5d38" d="M131 95l-8-3v-1l9 3z"/><path fill="#907b66" d="M176 62l3 1v1h-3z"/><path fill="#a59b84" d="M215 161l-1 1-2-3 1-1z"/><path fill="#dbded8" d="M129 159l-17 81-5-1 17-81z"/><path fill="#6a5218" d="M146 59l9-5v1l-8 5z"/><path fill="#d2d5d0" d="M127 170l9 36-5 1-9-36z"/><path fill="#cccdc4" d="M226 162l-12 24-7-3 12-24z"/><path fill="#f0f2ff" d="M162 51l-2 4-2-1 3-4z"/><path fill="#5e4a21" d="M149 60l-3-1v-1h3z"/></svg>