<svg xmlns="http://www.w3.org/2000/svg" viewBox="0 0 400 200"><path fill="#cecec9" d="M0 0h400v200H0z"/><path d="M196 177l228-20-37 67zM63 224l-87-44 105-9z"/><path fill="#fff" d="M424-12l-26 175L-24 1z"/><path fill="#978367" d="M209 34L96 96l186 128z"/><path d="M424 168l-181-3 106 59z"/><path fill="#fff" d="M-24 2l45 177L216-24z"/><path d="M52 224l30-48-106 8z"/><path fill="#5e3f14" d="M140 84l28 79-64-79z"/><path fill="#cfcec1" d="M240 95l26 87-211 41z"/><path fill="#0d0500" d="M265 170l159 22-154 32z"/><path fill="#f0f7fa" d="M145 185L68-24l-92 180z"/><path fill="#f8fdff" d="M424 6L277 165 174-24z"/><path fill="#75451b" d="M146 57l58-16-19 32z"/><path fill="#fff" d="M163 110l14-47-36 28z"/><path fill="#826e54" d="M152 110l35-14-38 77z"/><path fill="#9e7d4f" d="M229 201l45 23-22-93z"/><path fill="#cacdc9" d="M187 101l50 81-97 14z"/><path fill="#93786b" d="M195 121l20-70 16 22z"/><path fill="#1d1900" d="M424 199l-193 13 142-52z"/><path fill="#cfd3cd" d="M71 170l49 54 40-97z"/><path fill="#2a2713" d="M66 224l-81-51 94 7z"/><path fill="#f3f6f7" d="M23 1l401-22-8 119z"/><path fill="#6c4f21" d="M146 66v16l36-28z"/><path fill="#6a594b" d="M220 118l-14 36 11-2z"/><path fill="#f5f7f8" d="M262-24l-97 84-77-84z"/><path fill="#62431c" d="M140 84l-13 31-20-24z"/><path fill="#dde7e4" d="M224 93l42 61 158 9z"/><path fill="#84645a" d="M179 41h22l-22 69z"/><path fill="#dbe1de" d="M229 109l-31 114 32-46z"/><path fill="#f6f9fb" d="M134 63L-16-10l-8 123z"/><path fill="#42280c" d="M170 121l-8 25-7-8z"/><path fill="#d9e2e3" d="M185 110l17-40-9 70z"/><path fill="#7e8783" d="M284 166l28-11 34 13z"/><path fill="#191502" d="M74 188l-95 5 105 31z"/><path fill="#9ca4a0" d="M85 224l10-50-18 2z"/><path fill="#eaf3ee" d="M176 63l-28 22 18 31z"/><path fill="#bbab86" d="M156 51l-39 28 29 14z"/><path fill="#c9c9c3" d="M221 81l-15 104-47 39z"/><path fill="#c0c9ca" d="M16 152l71 22H-24z"/><path fill="#8d7d6c" d="M195 132l3 17 7-37z"/><path fill="#623a1d" d="M198 52l-41 19 34-30z"/><path fill="#eef2f1" d="M227 116l197-6L234-24z"/><path fill="#c8c2b0" d="M143 115l16-10-19-12z"/><path fill="#f2f4f3" d="M201 79V30l19-3z"/><path fill="#959d9a" d="M365 154l25 9-38-3z"/><path fill="#2d250f" d="M265 173l5 45 65-48z"/><path fill="#948882" d="M218 124l3-70 10 33z"/><path fill="#e9eeeb" d="M165 68l19-5-19 24z"/><path fill="#5a3c24" d="M202 93l2 20 5-19z"/><path fill="#2a281b" d="M66 224l-90-30 103-21z"/><path fill="#e6eaea" d="M104 165l6-91-111 92z"/><path fill="#cfcabc" d="M162 113l-13 24 8 4z"/><path fill="#727a80" d="M16 182l32-8-42-1z"/><path fill="#cab897" d="M270 224l-16-6 8-55z"/><path fill="#8c7357" d="M235 224l25-28-12-45z"/><path fill="#563b15" d="M138 118l21-3-18 12z"/><path fill="#d0d2c8" d="M140 212l-31-108 40 33z"/><path fill="#f4f6f4" d="M163 59L116 4l69 37z"/><path fill="#857e7a" d="M179 71l9 24-14 31z"/><path fill="#dae3e2" d="M293 107l25 56 106-18z"/><path fill="#543a19" d="M138 110l-25-20 13 25z"/><path fill="#e0e1d9" d="M132 71l17 13-11-22z"/><path fill="#b9b5a5" d="M196 196l17-42-1 70z"/><path fill="#d1d5ce" d="M210 102l2 49-22 28z"/><path fill="#2b2515" d="M331 193l37-36 5 27z"/><path fill="#8d6900" d="M154 54l11 11-20-11z"/><path fill="#c8d2d0" d="M295 166l42-29-82 29z"/><path fill="#454030" d="M298 185l-29-22-1 14z"/><path fill="#f2f4f6" d="M-24 27l214-51-49 89z"/><path fill="#dbded9" d="M135 115l-56 67 5-39z"/><path fill="#9c897d" d="M171 85l20-37 7 20z"/><path fill="#c4c3ba" d="M223 59l-13 42 19-28z"/><path fill="#614d3f" d="M173 107l1 13-14 12z"/><path fill="#c5c5bf" d="M159 170l25 42-7-107z"/><path fill="#352e1c" d="M304 163l36 30 12-20z"/><path fill="#53433b" d="M216 126v12l-4 5z"/><path fill="#cebfa3" d="M263 162l-12-43-17-3z"/><path fill="#c4bcaa" d="M173 99l-11 28-2-20z"/><path fill="#ab9367" d="M163 151l-18 33 6-43z"/><path fill="#c3ccca" d="M390 163l34-14-73 3z"/><path fill="#55442d" d="M156 121l-10-5v19z"/><path fill="#eff2f3" d="M135 29L-24 93l106 50z"/><path fill="#1e1a0d" d="M404 168l-136 27 127 29z"/><path fill="#b3bbba" d="M40 174l-64-20v22z"/><path fill="#837359" d="M212 140l4 12-4 14z"/><path fill="#a99267" d="M234 131l3 20-7 8z"/><path fill="#d1d3ca" d="M206 202l25-9-10-69z"/><path fill="#3a3a30" d="M1 182l59 11-8-17z"/><path fill="#b49972" d="M143 85l-17-11-16 11z"/><path fill="#e0e5e5" d="M-24 116l47 55 117-17z"/><path fill="#e4e5da" d="M137 57l-8 8 28-2z"/><path fill="#ddd9c9" d="M240 152l8-36-11-1z"/><path fill="#81665b" d="M224 62l-11 9-4-3z"/><path fill="#e7ecea" d="M226 107l198-6-103 44z"/><path fill="#acb0ac" d="M102 224l-9-43-16 3z"/><path fill="#d2d9d5" d="M220 132l11-42 1 55z"/><path fill="#cebcb1" d="M188 88l39-17-39 2z"/><path fill="#959e99" d="M338 166l18-4h-30z"/><path fill="#d3beb6" d="M199 49h13l-21 14z"/><path fill="#725530" d="M132 104l11-5-2 8z"/></svg>