<svg xmlns="http://www.w3.org/2000/svg" viewBox="0 0 400 200"><path fill="#cecec9" d="M0 0h400v200H0z"/><path d="M412 162l1 37-176 6-2-37zM1 176l76-2 2 48-77 3z"/><path fill="#fff" d="M162 19L55 179l-116-78L47-58z"/><path d="M268 233l-2-63 136-4 2 62z"/><path fill="#fff" d="M200 9l167-71 69 161-167 71z"/><path fill="#8c7559" d="M151 167l-44-78 88-48 43 78z"/><path d="M75 177l2 30-75 5-2-30z"/><path fill="#fff" d="M6-8l398-21 4 64L10 56z"/><path fill="#563506" d="M160 119l-13 14-43-41 13-14z"/><path fill="#c0b294" d="M189 131l65-10 18 112-65 10z"/><path fill="#fff" d="M169 69l14 15-29 26-14-15z"/><path fill="#180f00" d="M267 202v-28l145-3 1 29z"/><path fill="#f2f8f9" d="M400 156l-175-34L248 2l175 34z"/><path fill="#ecf3f3" d="M153 142l-30 45-87-58 30-46z"/><path fill="#5b2f05" d="M192 44l4 5-49 34-4-6z"/><path fill="#e4e9e9" d="M188 154l-10-2 26-114 11 2z"/><path fill="#856850" d="M204 44l-50 130-9-4 50-130z"/><path fill="#f6fbfe" d="M224 7L18 140l-37-58L187-51z"/><path fill="#9c8577" d="M220 50l13 40-14 5-13-40z"/><path fill="#9e815a" d="M247 141l15 4-17 60-15-4z"/><path fill="#c5c9c3" d="M251 131l-32 72-66-29 33-73z"/><path fill="#584032" d="M226 79h2l-15 78h-2z"/><path fill="#af9654" d="M138 68l12-16 14 10-12 16z"/><path fill="#483211" d="M172 123l-13 30-4-2 12-30z"/><path fill="#6d4932" d="M215 83l-13 40-3-1 13-40z"/><path fill="#a6aea6" d="M319 164l-63 8-2-9 64-9z"/><path fill="#f8ffff" d="M169 66l7 3-12 29-8-3z"/><path fill="#1d1800" d="M77 207l-106 9-2-25 106-9z"/><path fill="#5f401b" d="M119 110l4-24 16 2-5 25z"/><path fill="#99a29d" d="M95 176l-6 49-17-2 6-50z"/><path fill="#cdc6b4" d="M174 103l-45 19-1-4 44-19z"/><path fill="#e6ecec" d="M-4 93l122 11-6 70-122-11z"/><path fill="#dae3e1" d="M254 122l132-17 5 44-132 16z"/><path fill="#c4c2bb" d="M229 121l-20-2 4-42 20 2z"/><path fill="#1f1e0a" d="M377 225l-39-29 27-38 40 29z"/><path fill="#4b2500" d="M171 64l-1-6 17-2 1 7z"/><path fill="#dad1b7" d="M147 82l-31 3-2-18 31-4z"/><path fill="#f6f8f9" d="M165 61l-39-40 80-77 39 40z"/><path fill="#f0f4f5" d="M157-48L94 136-93 71l63-183z"/><path fill="#f6f8fa" d="M272 84L171 26l9-15 100 58z"/><path fill="#96a1a9" d="M-40 178l119-6v2l-119 6z"/><path fill="#d5d7ce" d="M123 115l39 59-40 25-38-59z"/><path fill="#dae0dd" d="M220 217l-11-2 20-127 11 1z"/><path fill="#a9956d" d="M234 174l-4-1 3-57h4z"/><path fill="#845700" d="M179 62v1l-34-5v-1z"/><path fill="#b99665" d="M268 211l-14 2-7-57 14-2z"/><path fill="#dfe5de" d="M178 95l-8 14-27-15 7-14z"/><path fill="#654b2b" d="M113 94l8-6 33 41-7 6z"/><path fill="#9a8b82" d="M186 108l-17-4 9-38 17 4z"/><path fill="#95735f" d="M220 62l-17 55-6-2 17-55z"/><path fill="#937b59" d="M140 104l-22-12 9-16 22 12z"/><path fill="#3a0b00" d="M182 51l3-9 6 2-3 9z"/><path fill="#453f2b" d="M264 170l4-5 22 17-3 5z"/><path fill="#d5c3b8" d="M205 45l9 4-21 39-8-4z"/><path fill="#b19c72" d="M143 182l15-36 4 2-15 36z"/><path fill="#c8cbc4" d="M175 121l16 6-20 54-16-6z"/><path fill="#cccbbd" d="M144 160l-5-3 32-56 4 3z"/><path fill="#887767" d="M205 117l-10 34h-1l10-35z"/><path fill="#424337" d="M76 180l-78 6v-5l78-5z"/><path fill="#d3d8d4" d="M186 201l-3-1 35-115 3 1z"/><path fill="#f1f1ef" d="M159 66v1l-36-12 1-2z"/><path fill="#939d99" d="M405 161v1l-124 7v-2z"/><path fill="#c6c0ad" d="M121 128l31-28 1 1-31 28z"/><path fill="#fff" d="M166 74l-1-2 14-7 1 3z"/><path fill="#756354" d="M230 83l-16 67h-2l17-67z"/><path fill="#715300" d="M154 60l3-3 10 10-4 3z"/><path fill="#4f3a2b" d="M162 140l-1-1 16-37 1 1z"/><path fill="#5c5753" d="M314 168l-9 3-2-9 9-3z"/><path fill="#f1f3f4" d="M230-7l190-3 2 103-191 3z"/><path fill="#cfb39f" d="M207 72l15 3-2 11-15-3z"/><path fill="#82786f" d="M170 112l8-20 10 4-8 20z"/><path fill="#23241c" d="M78 173h2l-3 12h-2z"/><path fill="#f2f4f5" d="M141 20l6 44-36 5-6-44z"/><path fill="#916f44" d="M151 110l5-4 7 8-5 4z"/><path fill="#c9bea2" d="M268 234h-3l-7-76h3z"/><path fill="#5b4c42" d="M211 150l6-27h2l-7 28z"/><path fill="#1f1a06" d="M275 198l36-32 31 34-36 33z"/><path fill="#dde3e5" d="M22 141l81-3 2 32-82 3z"/><path fill="#8f7557" d="M245 160h13l-1 50h-13z"/><path fill="#857658" d="M217 148l-6 21h-1l5-21z"/><path fill="#e1d4ca" d="M218 60l-2 6-23-6 2-6z"/><path fill="#d3d7cf" d="M202 249l39-101 3 2-39 100z"/><path fill="#614724" d="M135 88l4 7-20 10-3-7z"/><path fill="#f2d6c4" d="M166 58l31-24 1 1-31 24z"/><path fill="#d1c3a9" d="M252 139l-17 1-1-21 17-2z"/><path fill="#d1dbd8" d="M275 166l-3-19 36-5 3 19z"/><path fill="#f2f4f5" d="M166 14l4 39-44 3-3-38z"/><path fill="#bfae91" d="M148 87l-32-1v-9l33 1z"/><path fill="#833428" d="M199 47l-5 12-3-2 5-11z"/><path fill="#d5dad2" d="M74 230h-2l9-62h2z"/><path fill="#424f48" d="M10 170l-4-3 1-1 4 3z"/><path fill="#927c75" d="M200 69l-3 6-14-8 3-6z"/><path fill="#b3aca3" d="M171 128l15-46 1 1-15 46z"/><path fill="#948065" d="M146 99l-1 6-20-3v-6z"/><path fill="#dfe6e5" d="M354 165l-35-16 16-34 35 16z"/><path fill="#241f0f" d="M366 163l15 45-27 8-14-44z"/><path fill="#dee7e4" d="M416 117l-25 49-24-12 25-49z"/><path fill="#ecf5f1" d="M147 95l17-24 6 4-17 25z"/><path fill="#a69a82" d="M230 232l-12-4 25-77 12 4z"/><path fill="#5e6a6a" d="M370 159l-4-2v-2l4 2z"/><path fill="#f2f4f6" d="M242 29L-12 79l-19-97 254-49z"/><path fill="#776a5f" d="M188 96l-10-24 1-1 10 24z"/><path fill="#cacfcc" d="M202 140l6-34 11 2-6 34z"/><path fill="#785f58" d="M220 59v9h-4v-9z"/><path fill="#b28a1e" d="M157 63l-7-4 4-5 6 4z"/><path fill="#e0e5e1" d="M92 164l6-2 9 45-7 1z"/><path fill="#e2e6e1" d="M148 109l-3-2 31-39 2 2z"/><path fill="#4d3b2a" d="M211 95l-6 13-1-1 5-13z"/><path fill="#3a311d" d="M297 178l-7 16-26-11 7-16z"/><path fill="#cfd1c7" d="M137 85l-3-9 9-3 3 9z"/><path fill="#786557" d="M244 181h-1l5-29h2z"/><path fill="#62605f" d="M189 93l-12 26-2-1 12-26z"/><path fill="#c7c0b3" d="M161 79l-15-15 1-1 15 15z"/><path fill="#cccbc3" d="M207 160l-23 50-40-19 23-49z"/><path fill="#4d4e43" d="M300 166l152 3v1l-152-3z"/><path fill="#8c8f89" d="M292 171l-36-2v-4l36 2z"/><path fill="#d5d7cc" d="M125 146l-29-45 12-8 29 45z"/><path fill="#715845" d="M241 185l8-1 2 30h-8z"/><path fill="#a3a9a6" d="M303 146l1-1 13 20-1 1z"/><path fill="#da8b7a" d="M189 41l1-1 13 11-1 1z"/><path fill="#a4aea8" d="M339 170l-1 1-7-11 1-1z"/><path fill="#2e2817" d="M394 175v12l-108-4v-12z"/><path fill="#1c1a0d" d="M366 163l40 27-26 39-40-27z"/><path fill="#e3e6e4" d="M115 103l9 65-34 5-9-65z"/><path fill="#a8aca8" d="M107 172h2l-5 55-2-1z"/><path fill="#917a50" d="M122 110l21 21-1 1-21-21z"/><path fill="#573e26" d="M168 65l22-8v2l-22 7z"/><path fill="#ced0c8" d="M136 201l-1-50h12l1 50z"/><path fill="#cbd3d2" d="M57 173l-18 4-4-17 18-4z"/><path fill="#b39d89" d="M209 98l-5-6 17-14 5 6z"/><path fill="#a5b0b0" d="M395 164v1l-39-5 1-2z"/><path fill="#150000" d="M184 50l8-6 1 2-8 5z"/><path fill="#2d2a1b" d="M72 195v-19h4l1 18z"/><path fill="#523f25" d="M150 133h-6l1-18 7 1z"/><path fill="#91816f" d="M204 92l-5 39h-1l4-39z"/><path fill="#bcb8b3" d="M168 227h-2l27-156 2 1z"/><path fill="#2a2611" d="M275 202l-8 1-3-32h8z"/><path fill="#dbe1db" d="M110 179l20 3-4 28-20-3z"/><path fill="#b3a58f" d="M150 148l-1-1 25-43 1 1z"/><path fill="#bd8c7f" d="M197 47l-14 12v-1l13-13z"/><path fill="#5a411e" d="M128 117l-16-23 5-3 17 22z"/><path fill="#a8977d" d="M228 170l10-30 1 1-10 30z"/><path fill="#8c7668" d="M190 57h1l-11 19-1-1z"/><path fill="#eff2f3" d="M131 66l-81 56L5 58 86 2z"/><path fill="#d2d4cd" d="M234 153l-23 65-12-4 23-65z"/><path fill="#a4a9a5" d="M88 183h6l4 32-6 1z"/><path fill="#c2bba4" d="M243 162l-5-2 8-26 5 1z"/><path fill="#f2f4f3" d="M129 31l23-28 36 30-23 28z"/><path fill="#f2f5f6" d="M251 19l-13 39-37-13 13-39z"/><path fill="#d4d7ce" d="M207 52l4 1-19 60-5-2z"/><path fill="#e4e8ea" d="M-4 124l26 11-16 39-26-10z"/><path fill="#7e6649" d="M126 88l18-4 1 2-19 3z"/><path fill="#7f5f11" d="M155 55l1 1-9 6-1-1z"/><path fill="#a1a7a2" d="M1 166l2-6 1 1-2 5z"/><path fill="#cfcfc6" d="M116 146l12-22 14 7-12 22z"/><path fill="#ecf0f0" d="M29 114l23-49 55 26-23 48z"/><path fill="#2e2d20" d="M-22 186l98-7 1 8-98 7z"/><path fill="#796257" d="M222 69l-14 3v-1l13-4z"/><path fill="#8a9597" d="M17 168l6 9-1 1-6-10z"/><path fill="#ded9c5" d="M156 59l1 3-18 5-1-3z"/><path fill="#f0f2f1" d="M500 58l-262 51-15-75 263-51z"/><path fill="#dbb293" d="M168 59l15-14 1 1-15 14z"/><path fill="#d1c5a2" d="M110 85v-1l22-14 1 1z"/><path fill="#bcb6a7" d="M152 114l-7 1-1-12 6-1z"/><path fill="#c7c5b9" d="M228 71l4 34h-2l-4-34z"/><path fill="#d4d1ca" d="M135 67l14 7-1 1-14-6z"/><path fill="#e6eae8" d="M254 121l181-35 6 29-181 35z"/><path fill="#745a43" d="M203 95h3l-1 18-3-1z"/><path fill="#baac94" d="M145 98l-1 1-16-27 1-1z"/><path fill="#532a1d" d="M199 52l-17 2-1-1 17-3z"/><path fill="#a28c7c" d="M197 62l1 1-25 21-1-1z"/><path fill="#9d8050" d="M153 158l-4-2 9-15 4 2z"/><path fill="#6e7068" d="M377 164v2l-21-4v-1z"/><path fill="#d3dfde" d="M359 159l-44 5v-6l43-5z"/><path fill="#cacdc6" d="M227 125l-4 46-8-1 4-45z"/><path fill="#d3d1c6" d="M173 86h1l-11 33-1-1z"/><path fill="#959b99" d="M387 168l1-8 8 2-2 8z"/><path fill="#cdcfca" d="M200 105l-11 52-3-1 11-52z"/><path fill="#292717" d="M443 173l-1 12-86-6 1-12z"/><path fill="#e6ece8" d="M154 84l14 1-1 20-14-1z"/><path fill="#838783" d="M315 165l-1 1-3-11h2z"/><path fill="#603e19" d="M162 69l-1-2 16-9 1 1z"/><path fill="#b39268" d="M259 195l-4-34 3-1 4 34z"/><path fill="#56433b" d="M212 140l1-1 5 4-1 1z"/><path fill="#d8dbd7" d="M118 163l2-24 29 3-2 23z"/><path fill="#dedfdc" d="M220 233h-2l11-90h2z"/><path fill="#c3b7a5" d="M140 99v1h-7l1-2z"/><path fill="#8d7f66" d="M156 65l5 10-6 2-5-10z"/><path fill="#b68966" d="M179 58l8-6 1 1-8 6z"/><path fill="#dadcd1" d="M168 144l2 1-37 78-1-1z"/><path fill="#6e6361" d="M216 53l1 5h-4v-5z"/><path fill="#957670" d="M220 99l7-19 1 1-7 19z"/><path fill="#babeba" d="M227 68l-14 51-1-1 14-51z"/><path fill="#89908e" d="M14 159l-1-1 2-3 2 1z"/><path fill="#80745e" d="M161 65l4 4-6 5-3-3z"/><path fill="#847f7a" d="M173 127l-1-1 9-20 2 1z"/><path fill="#dccdc1" d="M213 58l-19 7-2-6 19-6z"/><path fill="#c1c3c3" d="M196 101l-15 24-4-3 15-23z"/><path fill="#8e7658" d="M145 99l-9 23-1-1 9-23z"/><path fill="#c1ae90" d="M249 132l4-1 6 23-4 1z"/></svg>