<svg xmlns="http://www.w3.org/2000/svg" viewBox="0 0 800 400"><path fill="#cecfc9" d="M0 0h800v400H0z"/><path d="M398 352l357 96 93-131zm-446 3l134 93 106-100z"/><path fill="#fff" d="M805 330L848-5-48 2z"/><path fill="#998469" d="M564 448L420 61 189 195z"/><path d="M561 448l-41-121 328 18z"/><path fill="#fff" d="M-48 14l493-62L45 352z"/><path d="M139 345l-187 35 215 68z"/><path fill="#684e29" d="M345 230l-131-66 106 163z"/><path fill="#0b0200" d="M848 405l-109-82-303 107z"/><path fill="#d3d5cc" d="M433 448l-275-87 369-159z"/><path fill="#f2f9fb" d="M-48 317L117-48l169 400z"/><path fill="#f9feff" d="M283 23l478 250 87-321z"/><path fill="#481200" d="M377 89l21 22-103 34z"/><path fill="#f6fdfb" d="M286 180l69-53-35 140z"/><path fill="#ecf3f2" d="M561 339L448 199l400-32z"/><path fill="#573608" d="M286 167l-69 10 38 59z"/><path fill="#aa8d60" d="M442 448l63-200 43 200z"/><path fill="#6f4200" d="M289 114l19-9 34 28z"/><path fill="#cdcfc7" d="M145 448l341-90-322-66z"/><path fill="#8a7760" d="M292 370l13-134 81-69z"/><path fill="#49301b" d="M423 311l13-66 3 35z"/><path fill="#231e03" d="M539 352l306-22-84 119z"/><path fill="#7a5443" d="M402 89l-38 3-6 94z"/><path fill="#dae0dc" d="M98 352l179-19 46-78z"/><path fill="#ced6d5" d="M411 127L292 367l94-78z"/><path fill="#8c6f5f" d="M414 127l-19 134 57-131z"/><path fill="#1c1600" d="M-48 392l206-37-22 75z"/><path fill="#f4f7f9" d="M2 242L-30-48l610 31z"/><path fill="#dde5e3" d="M848 180l-359 75 297 75z"/><path fill="#d4d5cb" d="M492 302l-28-135-66 281z"/><path fill="#f1f3f5" d="M402 77l3 103 34-144z"/><path fill="#5f4421" d="M289 236l38-25-38 66z"/><path fill="#1d1705" d="M848 386l-315-25 6 87z"/><path fill="#dce0db" d="M295 273l-97-84-43 194z"/><path fill="#7b827c" d="M680 333l-53-19-60 25z"/><path fill="#8d743b" d="M302 111l40 9-59 60z"/><path fill="#e9eeec" d="M336 233l-53-78 56 28z"/><path fill="#a89577" d="M477 448l-13-200 69 85z"/><path fill="#f2f5f6" d="M477-48l-16 271 144 38z"/><path fill="#858d86" d="M739 311l-34 16h59z"/><path fill="#998f88" d="M442 245l-6-147 25 69z"/><path fill="#b1925e" d="M270 173l-12-37-35 34z"/><path fill="#c6c8c2" d="M330 392l59 56 56-281z"/><path fill="#eff2f3" d="M155 330L258 83-48 11z"/><path fill="#969f9d" d="M186 348l12 100-59-31z"/><path fill="#896f52" d="M495 302l-18 143 46-31z"/><path fill="#4e311b" d="M411 223l6-34-12 9z"/><path fill="#5d421e" d="M317 314l-6-31 31-41z"/><path fill="#94a1a4" d="M17 333L2 355l81-7z"/><path fill="#f5efe4" d="M336 117l37-31-100 9z"/><path fill="#d3cfbb" d="M514 245l-34-15-16 131z"/><path fill="#c6d1cf" d="M617 292l-112 41 187-13z"/><path fill="#ebf1ef" d="M292 223l6-53 63-40z"/><path fill="#dce2e1" d="M58 345l-106-84 362 19z"/><path fill="#d2c7bf" d="M386 114l25 38 16-60z"/><path fill="#83756e" d="M380 192l-19-56-19 94z"/><path fill="#cdcec2" d="M273 392l32-106-82-84z"/><path fill="#c6b696" d="M502 448l31-12-6-106z"/><path fill="#bfb6a2" d="M255 139l47 84-7-93z"/><path fill="#332e1f" d="M598 336l82 47 168-53z"/><path fill="#c7c7be" d="M458 367l-185 81 72-203z"/><path fill="#6a502f" d="M267 170l-37 28 59 54z"/><path fill="#928066" d="M395 298l-3-25 10-18z"/><path fill="#b7aa93" d="M292 208l66 6-113 28z"/><path fill="#313125" d="M61 386l-81-28 172 6z"/><path fill="#613d14" d="M386 89l-19 31-59 16z"/><path fill="#4c4b41" d="M167 345L58 358l47 12z"/><path fill="#d8e2e0" d="M692 330l156-69-215 16z"/><path fill="#cbc5b2" d="M289 117l41 16-41-3z"/><path fill="#f3f4f6" d="M492 139L764-45 261-5z"/><path fill="#cbbaab" d="M433 183l25-50-44 19z"/><path fill="#938572" d="M298 136h29l-57 69z"/><path fill="#dde0d3" d="M295 170l-9-31-44-19z"/><path fill="#d5d8d4" d="M427 408l12-144 25 100z"/><path fill="#ab9164" d="M327 295l-25-28 6 69z"/><path fill="#6a6a65" d="M592 336l28-16 22 16z"/><path fill="#c0c1b8" d="M342 217l-44 72 10-41z"/><path fill="#998374" d="M342 170l28-65 28 28z"/><path fill="#eef1f0" d="M530 295l318-168-409-44z"/><path fill="#a7997e" d="M427 339l3-37-25 68z"/><path fill="#dcdfdb" d="M214 442l19-228 50 234z"/><path fill="#302913" d="M611 348l-69 100-12-109z"/><path fill="#6a5333" d="M314 220l-41 19 25 31z"/><path fill="#cad0cd" d="M433 239l-35 50 35-128z"/><path fill="#d1d0c8" d="M380 177l37-66-34 147z"/><path fill="#c8d2ce" d="M761 327l-47-35 134 16z"/><path fill="#958175" d="M439 189l16-41-7 72z"/><path fill="#bbc3c0" d="M161 339l-9 66 34-66z"/><path fill="#90999d" d="M148 339l-65 9 37 7z"/><path fill="#626b67" d="M761 330l87-13v28z"/><path fill="#997b53" d="M461 448l69-3-19-122z"/><path fill="#887c5f" d="M458 336l3-16 6 10z"/><path fill="#cbcbc3" d="M433 448l-16-193-81 175z"/><path fill="#edf1ee" d="M342 133l-44 37h44z"/><path fill="#7e6e5d" d="M445 233l3-25-18 40z"/><path fill="#504032" d="M327 255l18-35-15 66z"/><path fill="#e9eeed" d="M230 208l-278-50 40 159z"/><path fill="#e1e7e4" d="M520 330l19-100 306 3z"/><path fill="#944234" d="M402 98l-4 10-18-22z"/><path fill="#5d6363" d="M39 367l-47-19h72z"/></svg>