<svg xmlns="http://www.w3.org/2000/svg" viewBox="0 0 400 200"><style>@keyframes a{from{opacity: 0}to{opacity: 1}}g&gt;*{opacity: 0;animation: a .5s forwards}</style><path fill="#cecec9" d="M0 0h400v200H0z"/><g transform="translate(1 1) scale(1.5625)"><ellipse cx="219" cy="119" rx="73" ry="16" style="animation-delay:0s"/><ellipse cx="21" cy="121" rx="30" ry="11" style="animation-delay:.188s"/><ellipse fill="#fff" cx="204" cy="35" rx="62" ry="70" style="animation-delay:.376s"/><ellipse cx="223" cy="121" rx="55" ry="16" style="animation-delay:.562s"/><ellipse fill="#fff" cx="18" cy="12" rx="64" ry="94" style="animation-delay:.746s"/><ellipse fill="#8f785b" cx="110" cy="60" rx="39" ry="29" style="animation-delay:.927s"/><ellipse fill="#fff" cx="108" cy="14" rx="255" ry="17" style="animation-delay:1.104s"/><ellipse cx="20" cy="123" rx="29" ry="11" style="animation-delay:1.277s"/><ellipse fill="#b89b6c" cx="157" cy="127" rx="13" ry="46" style="animation-delay:1.445s"/><ellipse fill="#3c1700" cx="82" cy="64" rx="8" ry="10" style="animation-delay:1.607s"/><ellipse fill="#fff" cx="101" cy="59" rx="9" ry="11" style="animation-delay:1.763s"/><ellipse fill="#724028" cx="119" cy="36" rx="8" ry="10" style="animation-delay:1.912s"/><ellipse fill="#796341" cx="100" cy="84" rx="8" ry="17" style="animation-delay:2.054s"/><ellipse fill="#170f00" cx="227" cy="124" rx="58" ry="17" style="animation-delay:2.187s"/><ellipse fill="#f9fdff" cx="74" cy="13" rx="50" ry="30" style="animation-delay:2.312s"/><ellipse fill="#bfbcb3" cx="132" cy="88" rx="20" ry="57" style="animation-delay:2.427s"/><ellipse fill="#303026" cx="38" cy="114" rx="13" ry="5" style="animation-delay:2.533s"/><ellipse fill="#ecf4f6" cx="38" cy="75" rx="36" ry="37" style="animation-delay:2.629s"/><ellipse fill="#f5fbfc" cx="200" cy="50" rx="55" ry="28" style="animation-delay:2.714s"/><ellipse fill="#835300" cx="104" cy="37" rx="12" ry="3" style="animation-delay:2.789s"/><ellipse fill="#5c3904" cx="75" cy="59" rx="7" ry="6" style="animation-delay:2.853s"/><ellipse fill="#b4beb9" cx="197" cy="101" rx="40" ry="6" style="animation-delay:2.906s"/><ellipse fill="#5a3e17" cx="92" cy="76" rx="7" ry="6" style="animation-delay:2.947s"/><ellipse fill="#5d472f" cx="136" cy="94" rx="2" ry="11" style="animation-delay:2.976s"/><ellipse fill="#f3f6f7" cx="41" cy="28" rx="53" ry="31" style="animation-delay:2.994s"/></g></svg>