<svg xmlns="http://www.w3.org/2000/svg" viewBox="0 0 400 200"><path fill="#cecec9" d="M0 0h400v200H0z"/><path d="M237 168l176-6 2 62-176 6zM-8 178l84-4 3 46-85 5z"/><path fill="#fff" d="M205 2L24 177l-90-93L115-91z"/><path fill="#fff" d="M334 171L180 22 290-91 444 57z"/><path d="M267 222l-3-51 136-7 3 51z"/><path fill="#8f785c" d="M152 168l-44-81 89-47 43 81z"/><path d="M77 215l-93 6-3-37 93-7z"/><path fill="#6e5127" d="M165 113l-19 19-41-41 19-18z"/><path fill="#fff" d="M164 74l13 22-27 16-13-22z"/><path fill="#f6fcff" d="M90 175l-107-29L34-45l107 28z"/><path fill="#f5fbfc" d="M362 31l-44 129-97-34L265-2z"/><path fill="#bfaf8e" d="M204 124l51-7 18 126-51 8z"/><path fill="#180f00" d="M266 228l-1-55 149-2 1 54z"/><path fill="#d4d6d4" d="M163 216l-12-4 56-170 12 3z"/><path fill="#5f2400" d="M196 43l4 7-38 21-4-6z"/></svg>