<svg xmlns="http://www.w3.org/2000/svg" viewBox="0 0 400 200"><path fill="#51564e" d="M0 0h400v200H0z"/><path fill="#a69e8d" d="M246 18h99v148h-99z"/><path fill="#15120b" d="M360 1h41v200h-41z"/><path fill="#fff" d="M88 79h33v20H88z"/><path fill="#182118" d="M1 15h76v125H1z"/><path fill="#c0d5d3" d="M290 76h56v50h-56z"/><path fill="#0e0800" d="M295 15h25v58h-25z"/><path fill="#523a14" d="M302 132h58v69h-58z"/><path fill="#a8aaa2" d="M99 60h28v64H99z"/><path fill="#9fa29e" d="M243 1h48v37h-48z"/><path fill="#2d362c" d="M1 162h162v39H1z"/><path fill="#cacece" d="M43 154h14v22H43z"/><path fill="#b9beb4" d="M68 1h28v17H68z"/><path fill="#948d7b" d="M254 116h42v85h-42z"/><path fill="#fff" d="M296 116h36v11h-36z"/><path fill="#373b2e" d="M116 85h50v67h-50z"/><path fill="#cbccc5" d="M112 68h26v16h-26z"/><path fill="#1b1e10" d="M276 71h9v41h-9z"/><path fill="#675e48" d="M335 101h66v25h-66z"/><path fill="#c1c5c2" d="M82 190h17v11H82z"/><path fill="#2b3125" d="M40 21h75v50H40z"/><path fill="#a39f8f" d="M141 7h21v28h-21z"/><path fill="#918f86" d="M338 7h21v44h-21z"/><path fill="#3f5662" d="M159 1h90v200h-90z"/><path fill="#707a72" d="M199 95h163v18H199z"/><path fill="#1a221a" d="M77 109h17v56H78z"/></svg>