<svg xmlns="http://www.w3.org/2000/svg" viewBox="0 0 400 200"><path fill="#51564e" d="M0 0h400v200H0z"/><g fill="none"><path stroke="#fffff7" d="M344 90q-5 51-102 22"/><path stroke="#fff" d="M343 120q-92-1-97 1"/><path stroke="#fffff5" d="M349 123q-72-21-79 25"/><path stroke="#f2f4e8" d="M248 149q102-31 97-73"/><path stroke="#e2e3da" d="M276 13q-13 79 71 81"/><path stroke="#fff" d="M296 76q-19 55 39 46M81 96q50-31 57-19"/><path stroke="#e0e1d3" d="M341 78q-71 35-47 146"/><path stroke="#d0cfc1" d="M342 11q-4 124-91 150"/><path stroke="#e7eadf" d="M248 105q52 56 92-23"/><path stroke="#d2d3ca" d="M326 127q-1-6-77-151"/><path stroke="#fff" d="M83 94q37-11 52-28m206 15q8 56-59 38"/><path stroke="#e3e7dc" d="M277 11q15 123 55 113"/><path stroke="#fffff5" d="M336 119q-56-8-77 44"/><path stroke="#cdcfc6" d="M250-9q31 133 102 93"/><path stroke="#fff" d="M83 94q32 10 44-28"/><path stroke="#d2d4c7" d="M350 82q-62-18-66 111"/><path stroke="#cbcdc3" d="M351 92Q229 75 268-10"/><path stroke="#cfcabc" d="M272-24q-48 148 68 146"/><path stroke="#fff" d="M100 105q12-47 43-27"/><path stroke="#bdbbae" d="M349 6q-23 46-76 218"/><path stroke="#dfe4d8" d="M262 99q62-23 95 5"/><path stroke="#bebfb3" d="M255 156q58-6 101-158"/><path stroke="#fff" d="M288 111q36 34 59-13"/></g></svg>