<svg xmlns="http://www.w3.org/2000/svg" viewBox="0 0 400 200"><path fill="#51564e" d="M0 0h400v200H0z"/><path fill="#c1c0b0" d="M336 64l20 65-100 30-20-64z"/><path fill="#131c13" d="M45-8l60 48-93 114-59-48z"/><path fill="#f1f2ed" d="M102 108L88 93l37-34 14 15z"/><path fill="#bbb5a9" d="M236 15l39-19 29 59-40 19z"/><path fill="#1c170a" d="M320 279L370-7l65 11-51 286z"/><path fill="#827c6c" d="M256 239L243 85l43-4 14 154z"/><path fill="#b1c2bf" d="M290 126l-1-52 57-1 1 52z"/><path fill="#735a33" d="M321 199l-29-22 70-93 29 21z"/><path fill="#151f13" d="M63 238l-91-35 20-52 91 35z"/><path fill="#bcbeb8" d="M135 118l-13 11-43-45 13-12z"/><path fill="#9f9689" d="M343 13l20 16-30 38-20-16z"/><path fill="#b2b6ab" d="M97 24L62 10l8-19 35 14z"/><path fill="#2e372c" d="M102 200l-76-89 30-25 76 89z"/><path fill="#c2c7c6" d="M42 152h14v22H42z"/><path fill="#fff" d="M297 115l37 3-1 9-37-3z"/><path fill="#34392d" d="M108 144l14-59 53 13-14 59z"/><path fill="#23180d" d="M298 9l15 1-3 61-15-1z"/><path fill="#282d21" d="M286 113h-14V76h14z"/><path fill="#aea99c" d="M160 15l-15 22-13-9 15-22z"/><path fill="#465b67" d="M156 183l19-152 83 10-18 152z"/><path fill="#101717" d="M363 101l19-99 25 5-19 98z"/><path fill="#7a7d75" d="M415 93l-5 29-26-4 5-29z"/><path fill="#998f7b" d="M278 112l36 18-25 50-36-18z"/><path fill="#697971" d="M263 92l95 5-1 19-95-5z"/><path fill="#bec3c0" d="M102 193l-19 8-2-5 18-8z"/><path fill="#091c1f" d="M245 162l13 8-17 29-13-8z"/><path fill="#20271e" d="M10 77l102-61 10 18L21 95z"/><path fill="#66695d" d="M125 41l11 21-53 27-11-21z"/><path fill="#93968f" d="M120 101l10 19-29 15-10-19z"/><path fill="#101b19" d="M147 175l17 13-25 35-18-12z"/><path fill="#24251b" d="M343 0l-32 38-18-15 32-38z"/><path fill="#7a643f" d="M287 146l66-33 12 24-66 32z"/><path fill="#192116" d="M75 131l-9-17 30-15 8 17z"/><path fill="#979e9a" d="M12 154l2-9 32 9-2 9z"/><path fill="#4b4235" d="M370 62l-1 18-69-6 2-17z"/><path fill="#8d8b81" d="M289 69l-44-4 11-129 44 4z"/><path fill="#514a3b" d="M275 101l-3 41-11-1 3-41z"/><path fill="#f7faf6" d="M95 87l23-13 4 6-23 14z"/><path fill="#939081" d="M299 215l-49-5 2-27 50 6z"/><path fill="#314e58" d="M163 44l-4-61 80-4 3 61z"/><path fill="#202b26" d="M243 144l-8-12 15-9 7 12z"/><path fill="#736f60" d="M162 67l-39 33-8-9 39-33z"/><path fill="#25363a" d="M156 95l10-95 11 1-10 95z"/><path fill="#dededc" d="M315 66l1-2 17 6v2z"/><path fill="#3f4238" d="M226 56l-2-7 55-12 2 6z"/><path fill="#6d756a" d="M84 152l-19 3-4-24 19-3z"/><path fill="#242a23" d="M98 154l-34 33-11-12 34-32z"/><path fill="#a4afab" d="M341 22l-5-10 15-7 5 9z"/><path fill="#2c2b21" d="M263 234L424 98l24 29-161 136z"/><path fill="#a3a598" d="M239 94l2-8 34 9-2 8z"/><path fill="#fff" d="M362 32l-1 2-9-9 1-1z"/><path fill="#868883" d="M94 142l11-2 2 17-10 2z"/><path fill="#d6d9d7" d="M90 77l12 4-6 18-12-4z"/><path fill="#999c94" d="M252 168l-9-24 23-7 8 23z"/><path fill="#cdcfc9" d="M112 61l1-1 30 21-1 2z"/><path fill="#46423a" d="M124 67l11-56 9 1-11 57z"/><path fill="#2c2012" d="M271 184l-13-7 4-7 12 7z"/><path fill="#3d423a" d="M23 132l26-58 33 14-26 59z"/><path fill="#6f7268" d="M129 8l-29 13L88-7l29-12z"/><path fill="#bfc0b6" d="M279 115l22 25-4 3-21-25z"/><path fill="#575d4e" d="M30 107l-28 4-2-19 27-4z"/><path fill="#979486" d="M154 32l-8-6 14-19 8 6z"/><path fill="#1c2317" d="M141 122l3 9-40 14-3-9z"/><path fill="#4a4b40" d="M270 140l5-1 10 38-5 1z"/><path fill="#d6cfc6" d="M140 46l7 12-1 1-7-12z"/><path fill="#395157" d="M218 236l-78-60 28-36 78 61z"/><path fill="#404741" d="M50 51l-61 20-12-39 61-20z"/><path fill="#b4bcb9" d="M289 92l3-14 55 10-3 14z"/><path fill="#c2c9c7" d="M52 159v-10h7v10z"/><path fill="#575c53" d="M39 117l-1-7 72-12 1 6z"/><path fill="#97a09f" d="M358-16h3l7 33-3 1z"/><path fill="#aea99c" d="M272 50l24-4 3 12-25 4z"/><path fill="#0f1511" d="M403 50l-44-24 3-5 44 23z"/><path fill="#556063" d="M238 159l-53-2 3-92 53 2z"/><path fill="#1a241d" d="M46 96l-50-5 3-30 50 6z"/><path fill="#645640" d="M357 30l12 68-9 2-12-68z"/><path fill="#555d40" d="M112 47l-9 10-35-31 8-9z"/><path fill="#54554b" d="M250 55l44-93h1l-43 94z"/><path fill="#979b99" d="M76 67l17 4-2 7-17-4z"/><path fill="#3d392e" d="M279 205l-6 2-7-20 6-1z"/><path fill="#b0b5a8" d="M296 167l-15 1-1-11 16-1z"/><path fill="#111818" d="M-12 131l25-19 13 18-25 19z"/><path fill="#222f16" d="M127 187h-22l1-22h22z"/><path fill="#1a231c" d="M288 68l85 8v1l-85-7z"/><path fill="#fcf7ea" d="M287 121v-3l50 3-1 3z"/><path fill="#1e2521" d="M-26 41l1-17 53 5-2 17z"/><path fill="#21281d" d="M100 81L84 56l5-4 16 25z"/><path fill="#2e3028" d="M131 15l-5-13 39-12 4 13z"/><path fill="#8b8d85" d="M93 134l-5-5 17-18 6 5z"/><path fill="#b2b2a8" d="M142 172l-16 9v-2l15-8z"/><path fill="#090b09" d="M105 123l2-2 8 4-1 3z"/><path fill="#675749" d="M309 69l-5-34 20-3 5 34z"/><path fill="#f8fbf2" d="M145 27l3 5-4 2-3-5z"/><path fill="#303327" d="M140 107l-25-10 6-15 25 10z"/><path fill="#84846e" d="M153 61l8 4-12 26-8-4z"/><path fill="#121812" d="M76 127l-32-6 1-6 32 6z"/><path fill="#1a2320" d="M375 5l-42 3V0l42-3z"/><path fill="#191f1d" d="M76 55L25 0l7-7 51 56z"/><path fill="#697270" d="M380 12v2l-39-2v-2z"/><path fill="#a7a6a1" d="M287 9l5 15-18 6-5-15z"/></svg>