<svg xmlns="http://www.w3.org/2000/svg" viewBox="0 0 400 200"><path fill="#51564e" d="M0 0h400v200H0z"/><path fill="#b1ae9f" d="M360 101L244-24l5 184 32 16z"/><path fill="#eff0ec" d="M117 92l1 36-35-46 60-15z"/><path fill="#171309" d="M341 211l83-5-24-230h-25z"/><path fill="#161f16" d="M-8 49l-16 152L114 33 35-3z"/><path fill="#c3d4d1" d="M350 75l-55 8 3 42 34 6z"/><path fill="#38362c" d="M288 120l8-121 28 76-94-10z"/><path fill="#161f15" d="M-24 135l151 89-151-28 49-75z"/><path fill="#7d653e" d="M424 89l-51 16-106 47 55 30z"/><path fill="#2c352b" d="M63 184L42-2l63 158 96 55z"/><path fill="#95948b" d="M269 165l93-131-18-33 14-25z"/><path fill="#b0b4a9" d="M55-24l16 39 30 8-2-17z"/><path fill="#8d948f" d="M-9 147l65 27 5-33 28 8z"/><path fill="#9a988a" d="M283 178l-92 46 106-26-8-129z"/><path fill="#aeafa6" d="M96 79l6 65 10-89 46 37z"/><path fill="#fffffb" d="M326 128l-43-9 55-5-15 15z"/><path fill="#29251a" d="M319 29l-19 50-6-66 91-37z"/><path fill="#2d3429" d="M127 126l41-69-1 98-88-11z"/><path fill="#9f9b8d" d="M168 12l-29-2 10 73-12-37z"/><path fill="#96958c" d="M259 127l13-89-39-17 73-45z"/><path fill="#e0e3df" d="M80 93l59-26-10 3-30 31z"/><path fill="#9fa59d" d="M301 69l-53 59-13-40 110 5z"/><path fill="#2b271a" d="M282 224l79-15 50-233-49 168z"/><path fill="#83867f" d="M137 128l-31-35-9 89-2-64z"/><path fill="#445a66" d="M252 125L178-24l-23 248 108-91z"/><path fill="#a1a8a3" d="M81 191l22-5-29 38h16z"/></svg>