<svg xmlns="http://www.w3.org/2000/svg" viewBox="0 0 128 64"><path fill="#535750" d="M0 0h128v64H0z"/><path fill="#afaa9d" d="M77-11l38 42-31 33z"/><path fill="#18120a" d="M144 64l-20-79-16 86z"/><path fill="#171f17" d="M19-15l-34 65 43-9z"/><path fill="#f9fbf5" d="M29 26l7 11 5-15z"/><path fill="#bdc7bf" d="M115 32L91 48l5-24z"/><path fill="#2c231a" d="M87 29l20-37-6 28z"/><path fill="#313930" d="M51 75L-8 64l63-30z"/><path fill="#7e6a4e" d="M82 51l-3 29 58-53z"/><path fill="#998d83" d="M114 17V1L98 18z"/><path fill="#c4c7ba" d="M22 3l9-18V6z"/><path fill="#435964" d="M49 80l38-56-29-39z"/><path fill="#272f25" d="M6 34L44 7l-59 2z"/><path fill="#9fa8a3" d="M19 56L3 48l17 1z"/><path fill="#c0c0b6" d="M41 21l-16 9 26-6z"/><path fill="#1d261e" d="M-14 47l26 33 3-27z"/><path fill="#fffffa" d="M94 38l14 3 1-4z"/><path fill="#6f5d39" d="M117 20l-1 22-18 17z"/><path fill="#a6a39b" d="M46 11l9-9h-8z"/><path fill="#92958c" d="M28 42l10-12 5 8z"/><path fill="#aebdba" d="M97 32l15-6-20-3z"/><path fill="#abb3ae" d="M27 60h6l-6 20z"/><path fill="#a3998c" d="M92-6l4 24-12 5z"/><path fill="#1d2c33" d="M72 62l19-6-15-3z"/><path fill="#403a33" d="M98 24L93 1l16 23z"/><path fill="#191b16" d="M117 7l4 33 11-38z"/><path fill="#878377" d="M75 27l24 53-6-45z"/><path fill="#545f5b" d="M84 37l22-2-17-7z"/><path fill="#404e4c" d="M53-10L42 40l50-50z"/><path fill="#6a6a60" d="M36 13l15 6-28 9z"/><path fill="#4e3a1d" d="M94 55l16 1v20z"/><path fill="#4e5757" d="M87 41l-38 1-11 22z"/><path fill="#1d2519" d="M30 52V34l-6 21z"/><path fill="#292a21" d="M97 12l-1-8 26-9z"/><path fill="#cacdc8" d="M28 23l9 7-8 2z"/><path fill="#343620" d="M47 40l8-7-17-4z"/><path fill="#4d534a" d="M-6 34l30 3 7-16z"/><path fill="#4d5d63" d="M54 16l19 64 7-92z"/><path fill="#9ba2a0" d="M79 47l3 7 5-4z"/><path fill="#4b422d" d="M114 16l7-4-9 23z"/><path fill="#494334" d="M92 24l-18-1 10 4z"/><path fill="#766242" d="M109 40l-8 29-3-27z"/><path fill="#242a20" d="M24 7l11 18L10 4z"/><path fill="#474f49" d="M-8 23L8 0l12 15z"/><path fill="#45504c" d="M88 14l-22-2 8 7z"/><path fill="#5f6967" d="M126 39l18-8-21-2z"/><path fill="#2b2b26" d="M56 1L41 4l3-8z"/><path fill="#85806f" d="M48 29l5-12-10 9z"/><path fill="#1a221d" d="M-15 24l34 8-6-11z"/><path fill="#6f6a5d" d="M36 65l11-7 2-14z"/><path fill="#8d9292" d="M83 59L70 80h33z"/><path fill="#b9c0ba" d="M111 25l-8 3 8 4z"/><path fill="#1c1b1b" d="M47 56l-4 13 22 11z"/><path fill="#4a4134" d="M91 34l1-12-8 18z"/><path fill="#8a867e" d="M109 3l8 7-15 19z"/><path fill="#a19e92" d="M81 28l-4 6 13-3z"/><path fill="#777b74" d="M33 46l-3 3 12 2z"/><path fill="#1e251e" d="M16 29l-31 48V51z"/><path fill="#58615a" d="M-3 49l24-8 7 7z"/><path fill="#9a9789" d="M51 7l-5-7 1 12z"/><path fill="#222b1e" d="M42 80L19 54l2 19z"/><path fill="#999d9e" d="M78 6l11-7-7 13z"/><path fill="#031113" d="M76-8l25-6 27 17z"/><path fill="#787e70" d="M24 10L54-6 28-1z"/><path fill="#d1d2c7" d="M38 20l4 5h3z"/><path fill="#929691" d="M29 39l-1 3 8-1z"/><path fill="#19201b" d="M140 31L115 7l29-6z"/><path fill="#2f332c" d="M35 34L18 47l-5-9z"/><path fill="#b4a598" d="M95 41l-6-5-1 9z"/><path fill="#fffffc" d="M99 40h9l-4-3z"/><path fill="#72766e" d="M30 26l-7-3 15-4z"/><path fill="#4e4638" d="M119 44l2-18-10-19z"/><path fill="#839490" d="M90 29l16 8 9-4z"/><path fill="#bbc2bd" d="M14 52l5-1-1-3z"/><path fill="#373023" d="M106 20l18 10-4-10z"/><path fill="#2e2d26" d="M91 23l8-7 2 7z"/><path fill="#2b2a24" d="M123 36l-21 34 34-20z"/><path fill="#a39b8e" d="M90 23l6-8-12 5z"/><path fill="#24272e" d="M53 19l-2 16 4-8z"/><path fill="#273420" d="M41 60l-8-11 1 13z"/><path fill="#95948d" d="M93 63l-2-16 11 26z"/><path fill="#282a1c" d="M27 8l14 5-6-6z"/><path fill="#45463f" d="M86 58l12-2-20-3z"/><path fill="#3c3f2f" d="M53 47L39 28l9 3z"/><path fill="#6a665f" d="M93 3L83-2l21 4z"/><path fill="#a3a59a" d="M38 37l1 4 3-5z"/><path fill="#545f62" d="M78 21l-27 8 22 30z"/><path fill="#3f5254" d="M85 30L53-1l20 2z"/><path fill="#655031" d="M95 47l2 7 15 1z"/><path fill="#322f27" d="M46 19l-4-1 8 7z"/><path fill="#3b5055" d="M52 80V43l29 19z"/><path fill="#909790" d="M14 47l6 2-3 9z"/><path fill="#464c44" d="M15 48L7 31l16 16z"/><path fill="#d4d4cb" d="M114 8l1 2 2 1z"/><path fill="#1f1b13" d="M37 41l-3 4 14-4z"/><path fill="#6d716a" d="M21 46l5-6 1 8z"/><path fill="#77694c" d="M103 46l11-15-10 26z"/><path fill="#1a2824" d="M52 14l2-9 2 4z"/><path fill="#68696c" d="M40 61l10 19h-65z"/><path fill="#282f2c" d="M81 42l-3 4-1-5z"/><path fill="#786e61" d="M118 17l-16 3-1-12z"/></svg>