<svg xmlns="http://www.w3.org/2000/svg" viewBox="0 0 256 128"><path fill="#535750" d="M0 0h256v128H0z"/><path fill="#b1aca0" d="M157-15l71 76-66 71z"/><path fill="#fcfbf8" d="M86 43L52 54l18 18z"/><path fill="#161208" d="M210 144l41-159 21 131z"/><path fill="#172117" d="M72 20L9-7l-24 133z"/><path fill="#d4e3e3" d="M223 47l-39 30 29 4z"/><path fill="#1b1107" d="M197-15l-12 61 18-1z"/><path fill="#313930" d="M111 144l-126-17 118-59z"/><path fill="#7c6749" d="M272 53l-114 53 18 38z"/><path fill="#a2a8a5" d="M34 113l6-19H8z"/><path fill="#95958e" d="M208 22l-9 54 43-91z"/><path fill="#a1a79b" d="M55 16l50-31-74 5z"/><path fill="#403f36" d="M185 73l-3-27-36-10z"/><path fill="#181c18" d="M270-4l-41-2 11 88z"/><path fill="#b3c6c6" d="M193 67l28-18-38-3z"/><path fill="#989b94" d="M60 85l24-7-8-40z"/><path fill="#2d352c" d="M-14 0l44 98 35-27z"/><path fill="#c6bdb0" d="M92 23l-3-11 16-6z"/><path fill="#465a64" d="M80 115l85 18-14-148z"/><path fill="#bec5c0" d="M52 122l10 22 1-24z"/><path fill="#fff" d="M187 76l27-2-7 6z"/><path fill="#1e2720" d="M-15 98l36 46 8-40z"/><path fill="#9f978c" d="M191 36l-27 11 19-62z"/><path fill="#d3d4ce" d="M79 42l13 7-40 12z"/><path fill="#353626" d="M105 103L72 52l31 9z"/><path fill="#172321" d="M174 112l-31 14 11-22z"/><path fill="#767c73" d="M243 69l-82-16-19 23z"/><path fill="#98978d" d="M191 126l-7-50-9 62z"/><path fill="#656e64" d="M16-15l-31 25 38 10z"/><path fill="#26271f" d="M240-7l-49 34-2-18z"/><path fill="#89897f" d="M95 57l9-15-59 4z"/><path fill="#483c2f" d="M178 44l61-12 2 17z"/><path fill="#2e4853" d="M100 72l41-72-35-11z"/><path fill="#c3c8c2" d="M228 12l-12-7 16 17z"/><path fill="#554021" d="M210 144l-24-34 37-8z"/><path fill="#222820" d="M42 137l21-38-9-24z"/><path fill="#413d31" d="M186 38l-4 30-15 9z"/><path fill="#e0e1df" d="M70 62l-17-2 30-16z"/><path fill="#9e9a8f" d="M178 59l-28-5 11 23z"/><path fill="#282f25" d="M-15 71L89 17l-50-6z"/><path fill="#9b9fa0" d="M152 11l9 16 15-29z"/><path fill="#505b5e" d="M109 25l74 1-71 30z"/><path fill="#4c5249" d="M21 82l11-32 25 5z"/><path fill="#6a716f" d="M248 53v22l24 5z"/><path fill="#c4bba7" d="M199 92l-15-4-7-17z"/><path fill="#29281e" d="M154 81l20 3-20 4z"/><path fill="#686c67" d="M232 3l10 4-29 13z"/><path fill="#756240" d="M233 44v43l-43 41z"/><path fill="#786b5b" d="M95 83l-21 51 23-29z"/><path fill="#a6a59c" d="M165 86l12 22-20-9z"/><path fill="#222723" d="M-15 96l3-22 77-3z"/><path fill="#8d8c87" d="M63 99h17l-19-7z"/><path fill="#94968c" d="M182 144h-27l10-32z"/><path fill="#7d7164" d="M194 22l13 26 23-18z"/><path fill="#282f25" d="M69 49l-12 2 6-9z"/><path fill="#3f433e" d="M179 101l-13 15 17-2z"/><path fill="#1c1f18" d="M235 24l37 9-49-27z"/><path fill="#546165" d="M107 32l49 20-10 78z"/><path fill="#fffbf5" d="M189 72l27 4-22 4z"/><path fill="#b3b7b5" d="M27 101l6 11 5-16z"/><path fill="#565c56" d="M-15 27l46 5-36 10z"/><path fill="#484d43" d="M-9 60l24-4 28 42z"/><path fill="#101518" d="M115 144l-22-32-3 30z"/><path fill="#425559" d="M138-15l30 75-56-40z"/><path fill="#cccfc2" d="M70 39l11 5-4-6z"/><path fill="#ada496" d="M93 42l-3-14 7 12z"/><path fill="#242621" d="M79 83l-2 13-11-22z"/><path fill="#767b76" d="M53 64l7-22-11-3z"/><path fill="#262826" d="M71 67l-5-1 2-4z"/><path fill="#9eaba8" d="M186 57l36-6-4 26z"/><path fill="#9ea7a3" d="M219 14l13-10-15 2z"/><path fill="#3f382e" d="M221 43l19 45 12-33z"/><path fill="#c2c3c0" d="M61 79l4 5 6-2z"/><path fill="#4a4c43" d="M69 17l26-6L60-2z"/><path fill="#273021" d="M66 144l-22-31-59 13z"/><path fill="#34494d" d="M162-15L87 2l76 7z"/><path fill="#928d83" d="M107 10l-8 10L89 4z"/><path fill="#a5aca2" d="M43 5l13 6 5-26z"/><path fill="#4d513c" d="M97 46L40 19l17-8z"/><path fill="#646962" d="M23 94v23L0 93z"/><path fill="#232725" d="M38-15l14 57L6-15z"/><path fill="#a9aca6" d="M66 69l21 9-19-2z"/><path fill="#d9dddd" d="M214 45l-10-2 10-1z"/><path fill="#707168" d="M192-2l11 9-26-4z"/><path fill="#322b22" d="M207 41h18l6 8z"/><path fill="#807c6d" d="M72 102l9 1 1-10z"/><path fill="#6d736b" d="M53 99l1-12-12-5z"/><path fill="#f1f2f0" d="M72 52l-12-1-1 6z"/><path fill="#6c6e69" d="M15 136l55 8 17-23z"/><path fill="#232e1a" d="M86 105l-20 19 2-18z"/><path fill="#c3c8c2" d="M205 60l-21-2 11-8z"/><path fill="#21261c" d="M78 53l15 10-9 5z"/><path fill="#836d4d" d="M234 77l-60 26 26-21z"/><path fill="#908c81" d="M201 16l23 19 1-9z"/><path fill="#1e1b15" d="M182 47l-7 2 4 9z"/><path fill="#232421" d="M110 42l-10 12 1 17z"/><path fill="#161e1a" d="M2 56l-17-14 65-1z"/><path fill="#383b36" d="M83 49l-4-5h-5z"/><path fill="#464f44" d="M50 123l-18-20 45 8z"/><path fill="#3d3d34" d="M89 48l15-38 9 8z"/><path fill="#42382d" d="M209 27l-23 2 3-14z"/></svg>