<svg xmlns="http://www.w3.org/2000/svg" viewBox="0 0 400 200"><style>@keyframes a{from{opacity: 0}to{opacity: 1}}g&gt;*{opacity: 0;animation: a .5s forwards}</style><path fill="#51564e" d="M0 0h400v200H0z"/><g fill="none"><path stroke="#fff" d="M338 122q-68-21-70 42" style="animation-delay:0s"/><path stroke="#fffff6" d="M242 109q27 20 108 8" style="animation-delay:.196s"/><path stroke="#fcfff5" d="M346 81q-4 58-97 30" style="animation-delay:.392s"/><path stroke="#f9fdf0" d="M272 132q77-3 74-52" style="animation-delay:.585s"/><path stroke="#ffffe9" d="M258 128q20-6 93-5" style="animation-delay:.776s"/><path stroke="#e0e0d7" d="M291-24Q238 90 344 94" style="animation-delay:.964s"/><path stroke="#eff0e4" d="M348 78q-18 50-100 70" style="animation-delay:1.148s"/><path stroke="#fff" d="M144 83q-11-23-65 15m259-20q8 55-51 38" style="animation-delay:1.327s"/><path stroke="#e0e1d3" d="M290 224Q279 74 347 83" style="animation-delay:1.5s"/><path stroke="#d4d6cc" d="M289-24Q247 98 338 96" style="animation-delay:1.667s"/><path stroke="#fff" d="M83 96q46-20 64-37" style="animation-delay:1.826s"/><path stroke="#c1bbae" d="M241 221q122-119-1-233" style="animation-delay:1.978s"/><path stroke="#fff" d="M108 119q-24-39 28-46" style="animation-delay:2.121s"/><path stroke="#cac9bc" d="M251 162q65-15 100-144" style="animation-delay:2.256s"/><path stroke="#d9dacd" d="M346 77q-79 50-53 119" style="animation-delay:2.38s"/><path stroke="#beb7a9" d="M236-24q144 145-10 248" style="animation-delay:2.494s"/><path stroke="#fffceb" d="M256 168q27-65 82-43" style="animation-delay:2.598s"/><path stroke="#e4eae2" d="M348 91q-27-4-103 8" style="animation-delay:2.691s"/><path stroke="#fff" d="M86 97q43-23 55-22" style="animation-delay:2.772s"/><path stroke="#d1ccbc" d="M270-24q-46 148 78 150" style="animation-delay:2.841s"/><path stroke="#dae0d8" d="M243 111q55 33 102-29" style="animation-delay:2.898s"/><path stroke="#ccc9bb" d="M250 159q87-12 93-144" style="animation-delay:2.942s"/><path stroke="#d0d2ca" d="M345 93q-65 1-94-81" style="animation-delay:2.974s"/><path stroke="#fff" d="M144 76q-43 8-58 8" style="animation-delay:2.994s"/></g></svg>