<svg xmlns="http://www.w3.org/2000/svg" viewBox="0 0 400 200"><style>@keyframes fadeIn{from{opacity: 0}to{opacity: 1}}g.animated&gt;*{opacity: 0;animation: fadeIn .5s forwards}</style><path fill="#51564e" d="M0 0h400v200H0z"/><g transform="translate(1 1) scale(1.5625)" class="animated"><ellipse fill="#9e9786" cx="187" cy="54" rx="34" ry="71" style="animation-delay:0s"/><ellipse fill="#131108" cx="251" cy="99" rx="23" ry="132" style="animation-delay:.19s"/><ellipse fill="#19221a" cx="11" cy="35" rx="38" ry="58" style="animation-delay:.38s"/><ellipse fill="#ecece8" cx="67" cy="57" rx="11" ry="12" style="animation-delay:.56s"/><ellipse fill="#c4d9d9" cx="201" cy="64" rx="19" ry="18" style="animation-delay:.75s"/><ellipse fill="#1d1911" cx="198" rx="13" ry="46" style="animation-delay:.93s"/><ellipse fill="#4a3411" cx="211" cy="110" rx="23" ry="26" style="animation-delay:1.1s"/><ellipse fill="#162015" cx="1" cy="127" rx="49" ry="23" style="animation-delay:1.28s"/><ellipse fill="#d5d4cc" cx="80" cy="47" rx="10" ry="6" style="animation-delay:1.45s"/><ellipse fill="#a8aba1" cx="57" rx="16" ry="12" style="animation-delay:1.61s"/><ellipse fill="#fff" cx="198" cy="76" rx="16" ry="4" style="animation-delay:1.76s"/><ellipse fill="#bdc2c1" cx="31" cy="103" rx="5" ry="10" style="animation-delay:1.91s"/><ellipse fill="#333d37" cx="82" cy="105" rx="37" ry="24" style="animation-delay:2.05s"/><ellipse fill="#415965" cx="132" cy="65" rx="27" ry="147" style="animation-delay:2.19s"/><ellipse fill="#97968f" cx="171" cy="20" rx="17" ry="24" style="animation-delay:2.31s"/><ellipse fill="#6c7266" cx="214" cy="67" rx="86" ry="7" style="animation-delay:2.43s"/><ellipse fill="#94968f" cx="70" cy="74" rx="12" ry="9" style="animation-delay:2.53s"/><ellipse fill="#99968d" cx="222" cy="17" rx="7" ry="15" style="animation-delay:2.63s"/><ellipse fill="#202718" cx="50" cy="22" rx="28" ry="10" style="animation-delay:2.71s"/><ellipse fill="#272f24" cx="48" cy="70" rx="16" ry="10" style="animation-delay:2.79s"/><ellipse fill="#3a3429" cx="210" cy="42" rx="30" ry="5" style="animation-delay:2.85s"/><ellipse fill="#958f80" cx="175" cy="124" rx="19" ry="9" style="animation-delay:2.91s"/><ellipse fill="#b8b3a1" cx="95" cy="15" rx="6" ry="7" style="animation-delay:2.95s"/><ellipse fill="#6c776b" cx="5" cy="7" rx="16" ry="9" style="animation-delay:2.98s"/><ellipse fill="#242417" cx="178" cy="56" rx="4" ry="13" style="animation-delay:2.99s"/></g></svg>