<svg xmlns="http://www.w3.org/2000/svg" viewBox="0 0 400 200"><style>@keyframes a{from{opacity: 0}to{opacity: 1}}g&gt;*{opacity: 0;animation: a .5s forwards}</style><path fill="#51564e" d="M0 0h400v200H0z"/><path fill="#a59e8d" d="M342 169l-102-5 8-144 101 5z"/><path fill="#f2f3ed" d="M127 59l12 16-42 30-12-16z"/><path fill="#221b0c" d="M372 1l102 26-48 192-102-25z"/><path fill="#121b12" d="M102 40L14 149l-58-47L44-7z"/><path fill="#c2d5d2" d="M290 124l3-50 56 3-3 50z"/><path fill="#160f06" d="M297 9l26 2-5 63-27-3z"/><path fill="#a9aaa5" d="M301-24l-18 67-42-12 18-66z"/><path fill="#7a6646" d="M390 114L271 229l-25-26L365 88z"/><path fill="#111b0f" d="M-50 183l21-43 109 53-21 44z"/><path fill="#c4c5c0" d="M91 89l17-10 25 40-18 10z"/><path fill="#c4c8bd" d="M76-18l25 8-10 30-25-8z"/><path fill="#363e35" d="M57 82l124 90-34 47-124-90z"/><path fill="#a8afad" d="M21 161l1-14 37 3-1 14z"/><path fill="#efe9dc" d="M335 114l1 11-63 6-1-10z"/><path fill="#141a19" d="M383 121l-23-4 27-140 23 5z"/><path fill="#8b8778" d="M304 124l-20 114-40-7 20-114z"/><path fill="#3f5662" d="M247-7l3 217-86 2-3-217z"/><path fill="#b2ae9c" d="M142 10l19 2-2 23-18-1z"/><path fill="#313128" d="M247 83l4-14 38 9-3 14z"/><path fill="#313424" d="M129 88l36 1-2 62-35-1z"/><path fill="#b5b6ae" d="M356 36l-22-24 5-6 23 24z"/><path fill="#6e7a70" d="M358 118l-125-9 1-19 125 9z"/><path fill="#616357" d="M70 62l72-25 9 25-73 25z"/><path fill="#787b74" d="M379 107l13-18 27 22-13 17z"/><path fill="#9f9e99" d="M112 119l-7 17-16-7 8-17z"/></svg>