<svg xmlns="http://www.w3.org/2000/svg" viewBox="0 0 200 100"><path fill="#525750" d="M0 0h200v100H0z"/><path fill="#b0aa9c" d="M127 105l-4-120 57 65z"/><path fill="#171108" d="M166 113l50-23-20-105z"/><path fill="#fff" d="M67 35L54 57l-9-16z"/><path fill="#171f15" d="M58 15l-73 89L13-1z"/><path fill="#b6bcb7" d="M173 7l-33 65 29-12z"/><path fill="#34281d" d="M148 0v35l32 3z"/><path fill="#323931" d="M78 116l-93-11L89 48z"/><path fill="#766142" d="M150 105l-28-15 94-54z"/><path fill="#bcbeb4" d="M53 7L23-15l17 25z"/><path fill="#a9b0aa" d="M28 88L11 75l19-1z"/><path fill="#fff" d="M166 58l-6 7-14-6z"/><path fill="#494b42" d="M147 33l-32-2 27 25z"/><path fill="#8d877c" d="M156 22l30-26-14 36z"/><path fill="#1a1c1a" d="M216-5l-37-10 8 76z"/><path fill="#a2a59f" d="M66 61l-14 6-11-35z"/><path fill="#2d332c" d="M-15-1l67 56-28 20z"/><path fill="#1d261b" d="M39 97l-52-26 24 45z"/><path fill="#c1baaf" d="M83 5L71 7l1 10z"/><path fill="#b7c5c5" d="M173 53l-30-11 31-3z"/><path fill="#3f5663" d="M80 113l5-128 46 104z"/><path fill="#d9dbd6" d="M65 31L42 48l14 1z"/><path fill="#c3c9c6" d="M48 116l-6-22 7 1z"/><path fill="#85827a" d="M148 116l-36-85 37 45z"/><path fill="#24231b" d="M160-14l39-1-52 37z"/><path fill="#303118" d="M71 66L61 42l19 8z"/><path fill="#a8a396" d="M74 45l3-8-22-7z"/><path fill="#6f5832" d="M158 116l-3-52 26-1z"/><path fill="#242d2d" d="M114 97l3-17 22 8z"/><path fill="#958f82" d="M152-7l-18 62-3-62z"/><path fill="#526065" d="M108 108l21-88-44 2z"/><path fill="#726c63" d="M79 82l-24 27 20-43z"/><path fill="#2f2d24" d="M135 47l19-15 1-13z"/><path fill="#5a5748" d="M136 68l9-29-20 28z"/><path fill="#aabbb9" d="M144 36l2 13 19-9z"/><path fill="#161c17" d="M42 58l8 22-7 7z"/><path fill="#61655d" d="M53 25L22 44l34-5z"/><path fill="#9ea6a1" d="M180 2l6 4-2 4z"/><path fill="#78817f" d="M193 54l7 6 16-26z"/><path fill="#384d52" d="M84-11l-7 61 55-53z"/><path fill="#8b877f" d="M170 3l-7 25 19-11z"/><path fill="#5a4b36" d="M171 60l17-1-6-40z"/><path fill="#232b22" d="M64 6l-79 34 29 6z"/><path fill="#fff" d="M167 59l-11 1 9 3z"/><path fill="#151810" d="M60 64l1 9-9-14z"/><path fill="#5d665d" d="M20 16l-9-31-26 22z"/><path fill="#342b1b" d="M176 98l11-28-53 46z"/><path fill="#938e7f" d="M147 73l-11-31-19 13z"/><path fill="#404235" d="M58 45l19 22 9-30z"/><path fill="#92918b" d="M145 4l5 27-34-22z"/><path fill="#656c65" d="M23 84l-1-12-27 3z"/><path fill="#4e5348" d="M-15 46l29 14 42-9z"/><path fill="#252a23" d="M21-15l34 54L19 7z"/><path fill="#181b13" d="M20 60l28-5-10 9z"/><path fill="#b2a695" d="M73 32l-2-9 9 15z"/><path fill="#7b7f72" d="M84-15L38 18l7-29z"/><path fill="#acb1ad" d="M31 76h-9l3 15z"/><path fill="#a29e95" d="M139 97l26 12-21-18z"/><path fill="#343728" d="M133 53v6l14-9z"/><path fill="#757771" d="M62 75l4 8-21-9z"/><path fill="#4f5a5c" d="M141 20L84 49l8-29z"/><path fill="#303423" d="M58 22L36 12l30 3z"/><path fill="#6c8685" d="M178 50l-41-4 17 11z"/><path fill="#555b55" d="M3 25l26-2-15 8z"/><path fill="#a59f96" d="M132 67l6 16-15-4z"/><path fill="#1b201d" d="M-7 63l7 14 26-29z"/><path fill="#1c1e1f" d="M62 116l11-29 11 16z"/><path fill="#2b2f2a" d="M123 63l10 3-14 3z"/><path fill="#3a3729" d="M144 36l-11 2 9 10z"/><path fill="#55534b" d="M144 88l-7-17-1 29z"/><path fill="#6c665b" d="M176 12l-18 1v18z"/><path fill="#1a1b17" d="M86 2L57-15 75 4z"/><path fill="#4c483b" d="M74 30l2 9-16-8z"/><path fill="#adb6aa" d="M51 31l3 5-1 2z"/><path fill="#333b2d" d="M24 81h42l-4 13z"/><path fill="#a9a191" d="M131 26l22-2-19 12z"/><path fill="#191d18" d="M194 35l22-13-38-13z"/><path fill="#b0b1a5" d="M68 46l2-7-3-6z"/><path fill="#b1aca3" d="M143 86l-3-8 8 4z"/><path fill="#534231" d="M154 100l-7-16 8-11z"/><path fill="#44565b" d="M112-15L82 25l48 20z"/><path fill="#3f453d" d="M30 105L7 80h15z"/><path fill="#bcb7a8" d="M140 63l-2-9 13 15z"/><path fill="#7a6c4c" d="M151 82l27-12 4-23z"/><path fill="#e1e6e1" d="M42 48l5-8h16z"/><path fill="#bec1bd" d="M168 33l-3 3-5-2z"/><path fill="#383f37" d="M32 76l-1 19 35-1z"/><path fill="#646256" d="M137 3l-11 21 9-8z"/><path fill="#8d8a81" d="M120 115l9-27 17 28z"/><path fill="#858980" d="M44 65l25-10-10-7z"/><path fill="#7b817b" d="M52 85l-5-1-1 6z"/><path fill="#22221d" d="M59-15l10 5v21z"/><path fill="#7e796c" d="M67 43l9 3 6-21z"/><path fill="#484e3b" d="M29 4l21 9 3 19z"/><path fill="#1e2521" d="M22 28l16 12-53 3z"/><path fill="#272e23" d="M62 43l10 5-5 9z"/><path fill="#9fa4a0" d="M40 38l6-2-8-1z"/><path fill="#151916" d="M183 79l33 20V75z"/><path fill="#a9aba3" d="M39-15L52-2 34 6z"/><path fill="#3a3429" d="M184 29l29 26-46-22z"/><path fill="#131f25" d="M81 46l1-15 5 4z"/></svg>