<svg xmlns="http://www.w3.org/2000/svg" viewBox="0 0 400 200"><path fill="#51564e" d="M0 0h400v200H0z"/><path fill="#a39c8b" d="M247 10l100 4-5 153-100-4z"/><path fill="#e0e1dc" d="M106 112L83 95l29-39 22 16z"/><path fill="#1a2319" d="M108 28L51 155l-70-31L38-3z"/><path fill="#161208" d="M375 1l61 11-34 195-62-11z"/><path fill="#c7dbda" d="M290 121l7-48 49 7-7 48z"/><path fill="#241f16" d="M289 72l9-87 34 4-9 87z"/><path fill="#121b10" d="M-66 174l27-46 166 96-27 46z"/><path fill="#705830" d="M358 97l26 24-78 84-26-25z"/><path fill="#bcc0b5" d="M70-6l31 12-7 17-31-11z"/><path fill="#978f7e" d="M261 115l41 5-11 95-42-5z"/></svg>