<svg xmlns="http://www.w3.org/2000/svg" viewBox="0 0 400 200"><path fill="#51564e" d="M0 0h400v200H0z"/><ellipse fill="#bbb9a8" rx="1" ry="1" transform="matrix(-43.91968 45.79902 -28.07923 -26.92701 295 120)"/><ellipse fill="#161208" rx="1" ry="1" transform="matrix(42.67384 -222.5538 38.12992 7.31127 399 89)"/><ellipse fill="#151e16" rx="1" ry="1" transform="matrix(-40.33854 -17.98088 30.3808 -68.15668 31 75)"/><ellipse fill="#bcb6aa" rx="1" ry="1" transform="matrix(-23.94816 5.31377 -7.91002 -35.64898 269 36)"/><ellipse fill="#e4e5df" rx="1" ry="1" transform="matrix(-6.30066 -12.56293 24.10144 -12.08754 113 84)"/><ellipse fill="#b9cdce" rx="1" ry="1" transform="matrix(-19.61349 -16.45767 17.46929 -20.81909 319 102)"/><ellipse fill="#141e13" rx="1" ry="1" transform="rotate(21 -506 98) scale(107.73072 35.02982)"/><ellipse fill="#766344" rx="1" ry="1" transform="rotate(-39 410 -308) scale(158.55542 22.19047)"/><ellipse fill="#b4b6b0" rx="1" ry="1" transform="matrix(10.0256 -8.11857 19.1042 23.59172 108 100)"/><ellipse fill="#99958a" rx="1" ry="1" transform="rotate(26 97 761) scale(12.72606 31.61657)"/><ellipse fill="#586468" rx="1" ry="1" transform="matrix(49.70319 32.92419 -30.6682 46.29749 230 94)"/><ellipse fill="#b2b7ac" rx="1" ry="1" transform="matrix(17.6492 12.1323 -6.4806 9.4275 81 6)"/><ellipse fill="#31392f" rx="1" ry="1" transform="matrix(14.93125 -16.3567 97.42529 88.93495 91 155)"/><ellipse fill="#fffffe" rx="1" ry="1" transform="rotate(91 94 211) scale(4.30281 27.02349)"/><ellipse fill="#313521" rx="1" ry="1" transform="matrix(21.42906 22.19045 -11.22045 10.83546 140 108)"/><ellipse fill="#9ca39f" rx="1" ry="1" transform="matrix(24.73567 3.26034 -.93952 7.128 38 155)"/><ellipse fill="#a8a18c" rx="1" ry="1" transform="matrix(-14.82181 14.87364 -8.99872 -8.96736 254 100)"/><ellipse fill="#21281d" rx="1" ry="1" transform="matrix(58.72084 -34.3137 6.60612 11.30502 81 47)"/><ellipse fill="#a2a094" rx="1" ry="1" transform="matrix(5.86431 6.2887 -12.89895 12.02847 152 21)"/><ellipse fill="#262216" rx="1" ry="1" transform="rotate(39 145 462) scale(12.60727 44.46122)"/><ellipse fill="#92968f" rx="1" ry="1" transform="matrix(-26.94868 -2.84836 1.85939 -17.59193 276 199)"/><ellipse fill="#1c201c" rx="1" ry="1" transform="matrix(-23.33924 -2.49425 8.36552 -78.27811 387 26)"/><ellipse fill="#3c525b" rx="1" ry="1" transform="matrix(46.0462 -1.877 6.30289 154.62187 201 115)"/><ellipse fill="#77857c" rx="1" ry="1" transform="matrix(.12815 -12.3117 39.6846 .41307 325 104)"/><ellipse fill="#312c1d" rx="1" ry="1" transform="matrix(-78.06986 70.78943 -11.69597 -12.89885 356 172)"/></svg>