<svg xmlns="http://www.w3.org/2000/svg" viewBox="0 0 400 200"><path fill="#51564e" d="M0 0h400v200H0z"/><path fill="#afac9e" d="M357 95L256 204 242-24z"/><path fill="#161107" d="M329 224l95-39-34-209z"/><path fill="#f8f9f5" d="M113 118l14-55-42 25z"/><path fill="#151d14" d="M-24 196V23l145-3z"/><path fill="#b1bab3" d="M282 135l63-16-3-101z"/><path fill="#362c20" d="M302 4l46 67-66 2z"/><path fill="#31392f" d="M176 98L-21 198l177 12z"/><path fill="#7b6645" d="M251 166l28 58L424 79z"/><path fill="#b6bbb9" d="M59 152l-5 25-28-29z"/><path fill="#c1c5ba" d="M91 18l8-42L63 9z"/><path fill="#fffffb" d="M282 121l30-9 37 12z"/><path fill="#3c5258" d="M152 38l41-56 122 133z"/><path fill="#151a17" d="M354-23l23 133L424 6z"/><path fill="#2b332b" d="M93 137l-117 4L46-24z"/><path fill="#848075" d="M307 40l22 36 61-100z"/><path fill="#b3b6ac" d="M77 85l50-25 17 21z"/><path fill="#a6a397" d="M140 7l-2 31 32-26z"/><path fill="#9b9992" d="M295 57l-5-81-50 45z"/><path fill="#85877f" d="M123 81l8 42-46 8z"/><path fill="#becbc9" d="M354 93l-70-2 15-18z"/><path fill="#d1d7d3" d="M81 191l15-3-6 16z"/><path fill="#475a63" d="M257 206l-133-25L235-21z"/><path fill="#1c251a" d="M-24 196l9-50 124 66z"/><path fill="#43402e" d="M290 107l-28 14 20-58z"/><path fill="#1a2724" d="M274 174l-40-14-8 36z"/><path fill="#60502d" d="M371 127l-12-84-47 181z"/><path fill="#29271c" d="M296 70l2-60 46-23z"/><path fill="#939792" d="M276 206l31 6-23-66z"/><path fill="#30341f" d="M163 90l-47-2 43 55z"/><path fill="#dcdedb" d="M102 98l-20-7 53-25z"/><path fill="#64685c" d="M32 91l103-59-8 39z"/><path fill="#20271e" d="M26 4l23-28 57 100z"/><path fill="#9b9a8b" d="M238 116l3-31 44 8z"/><path fill="#aca696" d="M299 46l-15 24-36-14z"/><path fill="#6d7674" d="M391 87l-6 26 39 18z"/><path fill="#384d53" d="M162-24l-3 112L279-23z"/><path fill="#c2c9c3" d="M360 26l-20-5 1-9z"/><path fill="#4b5045" d="M110 101L-24 90l55 31z"/><path fill="#141d13" d="M88 124l-54-4 64-14z"/><path fill="#737c75" d="M68 148l-41 11-31-14z"/><path fill="#736346" d="M359 138V96l-96 92z"/><path fill="#8b8571" d="M138 37l21 31-10 22z"/><path fill="#232317" d="M235 134l17-8 17 6z"/><path fill="#7d816f" d="M132-5L84 7 71 37z"/><path fill="#fffff4" d="M338 118l-45-5 20 13z"/><path fill="#171d18" d="M91 163l7-31-38 34z"/><path fill="#9d9e96" d="M276 163h-28l-2-25z"/><path fill="#3e3525" d="M376 81l-63-21 61-3z"/><path fill="#35392b" d="M112 15L21 43l135-2z"/><path fill="#4f5859" d="M174 66l-1-28 106 3z"/><path fill="#4f3f24" d="M290 171l41 53 11-59z"/><path fill="#16201d" d="M398 1l-22-25-47 30z"/><path fill="#736f60" d="M152 152l-67-4 52 18z"/><path fill="#a3b1ad" d="M346 102l-50-29 52 4z"/><path fill="#c2c4c1" d="M124 74l17 2-31-17z"/><path fill="#8f8f81" d="M232 224l25-50 17 35z"/><path fill="#9e927c" d="M285 176l-11-63 36 14z"/><path fill="#161f19" d="M71 77L43 54l-67 34z"/><path fill="#191e19" d="M406 40l-55-28 44 61z"/><path fill="#161d1a" d="M145 173l-11 37 47 14z"/><path fill="#526066" d="M232 224L168 49l64 2z"/><path fill="#2e2d27" d="M309 52l14 21-42-5z"/><path fill="#778f8c" d="M359 101l-89-10 40 22z"/><path fill="#201c12" d="M273 74l14 24-3-22z"/><path fill="#74746d" d="M135 188L35 209l77 15z"/><path fill="#a7aaa7" d="M93 70H77l17 14z"/><path fill="#39332a" d="M332 32l19-8-6-5z"/><path fill="#8c8f8a" d="M96 123l16-21-14 52z"/><path fill="#434741" d="M277 174l-6-31 17 34z"/><path fill="#1e251b" d="M137 121l-46 17 28 5z"/><path fill="#c0c0b0" d="M134 174l-7 10v-11z"/><path fill="#666f64" d="M81 131l3 23-33-27z"/><path fill="#292b24" d="M377 104l-50 98 97-37z"/><path fill="#bcbab1" d="M349 27l5-6 14 16z"/><path fill="#1e2a2e" d="M156 110l17-33-11-21z"/><path fill="#51584f" d="M52 51l-75-11-1 26z"/><path fill="#2a3621" d="M96 159l13 37 26-33z"/><path fill="#756241" d="M309 126l-7 72 64-74z"/><path fill="#32332b" d="M124-24l75 11-67 31z"/><path fill="#a0a39a" d="M112 118l15 5 2-16z"/><path fill="#343b25" d="M120 84l28 14-8 31z"/><path fill="#556156" d="M21-10l-37 28 54 16z"/><path fill="#798685" d="M345 16l31-6-28-9z"/><path fill="#1f2621" d="M23 132l36-64-83 84z"/><path fill="#747263" d="M118 66l14 21 34 9z"/><path fill="#46453e" d="M252 90l-17-41 31 30z"/><path fill="#d8dbd7" d="M110 79l5 22-27-19z"/><path fill="#374e52" d="M252 193l-93 25-5-87z"/><path fill="#bdc2bf" d="M59 149l-2 10-17-2z"/><path fill="#6a5638" d="M334 188l-57-50 32 8z"/><path fill="#686555" d="M254 43l16-31 7 33z"/><path fill="#c0bdba" d="M331 65h-21l9 3z"/><path fill="#9fa093" d="M162 13l-17-6-3 27z"/><path fill="#34362c" d="M177 29l-37 34 30-48z"/><path fill="#aaaaa2" d="M276 7l14 2-22 28z"/><path fill="#bab7aa" d="M274 109l27 31-13-2z"/><path fill="#454e48" d="M38 141l8 36-16 7z"/><path fill="#312e22" d="M359 4l29 58-20 8z"/><path fill="#373827" d="M140 54l6 16-26-8z"/><path fill="#797264" d="M337 24l25 28-57 14z"/></svg>