<svg xmlns="http://www.w3.org/2000/svg" viewBox="0 0 400 200"><path fill="#51564e" d="M0 0h400v200H0z"/><g transform="translate(1 1) scale(1.5625)"><ellipse fill="#afa895" rx="1" ry="1" transform="matrix(32.85173 5.2032 -6.42825 40.58639 182 64)"/><path fill="#f7f7f4" d="M83 44l-30 8 16 22z"/><ellipse fill="#232c24" rx="1" ry="1" transform="matrix(1.99831 -83.4507 33.401 .79982 24 83)"/><ellipse fill="#171309" rx="1" ry="1" transform="matrix(28.68856 -204.12971 21.35076 3.00065 251 55)"/><ellipse fill="#b3afa5" cx="171" cy="18" rx="16" ry="25"/><path fill="#bed3d3" d="M186 47h32v33h-32z"/><path fill="#9ea39f" d="M34 114L9 99l7-13 25 15z"/><path fill="#211d15" d="M210 52l-28-9 38-42-35 8z"/><ellipse fill="#79633e" rx="1" ry="1" transform="matrix(-38.59303 35.15363 -9.4537 -10.37864 201 105)"/><ellipse fill="#1d2519" rx="1" ry="1" transform="rotate(-27 95 -59) scale(44.27208 11.33088)"/><path fill="#a8a195" d="M204 20l18-13 10 15-18 13z"/><ellipse fill="#b6bab0" rx="1" ry="1" transform="rotate(129 26 13) scale(9.95168 10.74193)"/><path fill="#8e8a7e" d="M191 139l-28 2-4-54 28-2z"/><path fill="#302f21" d="M173 44h9v28h-9z"/><path fill="#a3a59c" d="M77 35L55 68l-6-24 46 9z"/></g></svg>