<svg xmlns="http://www.w3.org/2000/svg" viewBox="0 0 2000 1000"><path fill="#51564d" d="M0 0h2000v1000H0z"/><path fill="#adaa9a" d="M1270 1121l507-640-554-602z"/><path fill="#f1f4ef" d="M543 582l133-258-258 94z"/><path fill="#141207" d="M1949-121l172 1016-477 226z"/><path fill="#131e13" d="M-121 1004L598 90l-719 47z"/><path fill="#acb6af" d="M1676 613l93-625-382 664z"/><path fill="#352b1d" d="M1441 348l55-297 344 328z"/><path fill="#293223" d="M-121 1027l969-539-258 453z"/><path fill="#715e3c" d="M1473 1098l648-711-891 461z"/><path fill="#fff" d="M1606 637l78-71-235 16z"/><path fill="#475c63" d="M926-121L754 1121l758-601z"/><path fill="#9ba39f" d="M51 731h258l-39 156z"/><path fill="#bdc4b7" d="M520 98L379-121 332 51z"/><path fill="#2b342a" d="M238-121l243 844-602-102z"/><path fill="#121713" d="M2121-98L1817 98l62 523z"/><path fill="#bfbdb0" d="M715 51l-8 117L840 51z"/><path fill="#908976" d="M1363 371l-203 117 360 633z"/><path fill="#ced1cb" d="M395 473l304-94-86-63z"/><path fill="#84887e" d="M426 652l203-31-8-219z"/><path fill="#98988f" d="M1457-4l24 297-313-219z"/><path fill="#2a4144" d="M1512 848l-805 15-117 258z"/><path fill="#827f71" d="M1731 316l117-382-305 281z"/><path fill="#1d271b" d="M-121 691l133 430h625z"/><path fill="#bcc9c6" d="M1434 426l265 70 47-125z"/><path fill="#21251a" d="M1473 51l453-172-430 336z"/><path fill="#b8c0bd" d="M434 1004l70-78-102 23z"/><path fill="#303829" d="M840 879l-39-414-211-55z"/><path fill="#3c3829" d="M1231 410l343-156-195 187z"/><path fill="#6a7064" d="M637 184L215 449l398-86z"/><path fill="#364e54" d="M824 527l532-648-555 31z"/><path fill="#868676" d="M801 356l-274-71 188 180z"/><path fill="#000a09" d="M1871-121l70 164-484-102z"/><path fill="#77817e" d="M1918 566l63-93 46 133z"/><path fill="#b2bbb5" d="M1684 20l132 140-117-70z"/><path fill="#131d12" d="M371 637l149-125-297 78z"/><path fill="#1f271c" d="M371 66l117 274L43-74z"/><path fill="#3b3522" d="M1426 520l-8-172-94 242z"/><path fill="#312b18" d="M1879 637l-102 351-375 133z"/><path fill="#4a5044" d="M129 621l406-117-578-55z"/><path fill="#74766c" d="M465 738l180-15-39 93z"/><path fill="#73613c" d="M1777 738l78-445-453 828z"/><path fill="#a7b6b2" d="M1441 363l282 24-289 78z"/><path fill="#4b5f64" d="M762 1121l437-797-62 797z"/><path fill="#9fa092" d="M1223 434l47 187 93-203z"/><path fill="#a7aca5" d="M598 629l54-39-171-94z"/><path fill="#22271d" d="M1238 629l-86 47 196-24z"/><path fill="#e3e5e3" d="M418 465l78 23 125-132z"/><path fill="#79806d" d="M418-27l-55 211L660-35z"/><path fill="#fffff9" d="M1473 566l203 32-164 23z"/><path fill="#132529" d="M1176 981V793l117 55z"/><path fill="#c4bda8" d="M1434 684l-63-133 156 148z"/><path fill="#a59e8a" d="M1348 387l148-156-242 31z"/><path fill="#4f5b5b" d="M1395 207L871 465V168z"/><path fill="#3d463a" d="M-59 715l352 320-78-219z"/><path fill="#72613e" d="M1559 629l273-16-367 250z"/><path fill="#2f3622" d="M520 223l164-86-367-55z"/><path fill="#b1b5b2" d="M246 871l47-117-86 23z"/><path fill="#1a1c13" d="M645 1043l93-172 141 250z"/><path fill="#3d3523" d="M1684 348l148-157 117 297z"/><path fill="#8f938d" d="M1379 887l141 70-110 164z"/><path fill="#1b2526" d="M863 332l-62-31-24 211z"/><path fill="#97978c" d="M1395 887l-78-227-110 94z"/><path fill="#cbcecc" d="M1590 309l15 39h55z"/><path fill="#2a2922" d="M1434 356l109-125 47 117z"/><path fill="#736f60" d="M1731 66l-188 274 250-78z"/><path fill="#2c311f" d="M699 559L559 441l164 16z"/><path fill="#989686" d="M738 340l-39-125 110 172z"/><path fill="#131b15" d="M309 348l-125-86-305 203z"/><path fill="#50574d" d="M-27 207l-94 141 383-102z"/><path fill="#545e54" d="M387 746l31-133-469 141z"/><path fill="#515248" d="M1426 902l-63-187-15 273z"/><path fill="#131a16" d="M449 816l-109 24 148-188z"/><path fill="#151b16" d="M2121 449L1754 82l320 86z"/><path fill="#3e4d4c" d="M1152 82l-8 274 188 109z"/><path fill="#727972" d="M465 356l-86-39 23 164z"/><path fill="#768f8c" d="M1715 590l8-117-328 7z"/><path fill="#949e9a" d="M1832 90l-23-102 31 24z"/><path fill="#a5a9a5" d="M551 645l-47 23-31-78z"/><path fill="#b7bcb5" d="M1410 777l63 24-24 54z"/><path fill="#1b221d" d="M246 426l-367 273 211-8z"/><path fill="#8e9795" d="M1418-82L1199 98l24 125z"/><path fill="#919694" d="M481 723l15 54 16-78z"/><path fill="#1f1e0f" d="M691 262l-31 39 70 54z"/><path fill="#1a1e17" d="M629-121L762 43l375-164z"/><path fill="#383228" d="M1551 973l-71-71 16-140z"/><path fill="#252b23" d="M582 731l-62-133 132 54z"/><path fill="#3c4338" d="M441 434l-101-94L43 551z"/><path fill="#2b322e" d="M863 51L731 270l132-86z"/><path fill="#a5a699" d="M1215 481l133 23 78-47z"/><path fill="#22261c" d="M691-74l-54 62 39 141z"/><path fill="#d9ddd9" d="M449 426l24-39 125 101z"/><path fill="#56584a" d="M1356 51l-71 117 55-16z"/><path fill="#cfd7d3" d="M1723 66l-8 32-63 31z"/><path fill="#2c3825" d="M645 949l-24-140-195 125z"/><path fill="#c6ccca" d="M684 387v-39l-86-24z"/><path fill="#736b59" d="M699 840l63-164-47-78z"/><path fill="#1a201d" d="M1910 777l164-343-15 687z"/><path fill="#252d25" d="M324 106l-78 86 297 195z"/><path fill="#9c9e93" d="M621 902l24-47h70z"/><path fill="#292e24" d="M473 481l-63 132 102-47z"/><path fill="#555f62" d="M1246 387l-195 414-219-524z"/></svg>