<svg xmlns="http://www.w3.org/2000/svg" viewBox="0 0 400 200"><style>@keyframes fadeIn{from{opacity: 0}to{opacity: 1}}g.animated&gt;*{opacity: 0;animation: fadeIn .5s forwards}</style><path fill="#6a676e" d="M0 0h400v200H0z"/><g class="animated"><path fill="#dccbda" d="M263 170L363 9 41 7z" style="animation-delay:0s"/><path d="M143 224l239-56-406-12z" style="animation-delay:.2s"/><path d="M51 224l-75-56L51-24zm373-58L352-24l-3 248z" style="animation-delay:.41s"/><path fill="#c2b9c6" d="M56 156L54 15l192 145z" style="animation-delay:.61s"/><path d="M362 224l25-62-244 1zM81 207l-105 17L7 49z" style="animation-delay:.81s"/><path fill="#bcaaae" d="M348 46l3 117L71 52z" style="animation-delay:1s"/><path d="M146 4l110-28 96 31z" style="animation-delay:1.2s"/><path fill="#b9473f" d="M331 87l-155-3 105 36z" style="animation-delay:1.38s"/><path fill="#c83a2e" d="M57 21l119 3-80 32z" style="animation-delay:1.56s"/><path fill="#0d574e" d="M126 79l48 27H79z" style="animation-delay:1.73s"/><path fill="#406a95" d="M315 120l-99 26-89-30z" style="animation-delay:1.89s"/><path fill="#347068" d="M246 12l3 36 91-2z" style="animation-delay:2.05s"/><path fill="#040a00" d="M54 7l87-31L248 6z" style="animation-delay:2.19s"/><path fill="#dcecff" d="M115 10l50 19 64-16z" style="animation-delay:2.33s"/><path fill="#10110f" d="M-24 159l139 65 91-64z" style="animation-delay:2.45s"/><path d="M49 156l5-69-69-5z" style="animation-delay:2.56s"/><path fill="#d5eeff" d="M304 59l-134 1 67-20z" style="animation-delay:2.66s"/><path fill="#2a5aa2" d="M188 21l53 27-59 1z" style="animation-delay:2.75s"/><path fill="#b8473d" d="M51 135l92 8-34-28z" style="animation-delay:2.83s"/><path fill="#f2fbff" d="M246 110l30 46h-28z" style="animation-delay:2.89s"/><path fill="#030a0b" d="M424 66l-84 141 22-116z" style="animation-delay:2.94s"/><path fill="#b8c4c4" d="M351 162h-88l36-16z" style="animation-delay:2.97s"/><path fill="#6e98b9" d="M379 77l45-6-45-78z" style="animation-delay:2.99s"/></g></svg>