<svg xmlns="http://www.w3.org/2000/svg" viewBox="0 0 400 200"><style>@keyframes fadeIn{from{opacity: 0}to{opacity: 1}}g.animated&gt;*{opacity: 0;animation: fadeIn .5s forwards}</style><path fill="#6a676e" d="M0 0h400v200H0z"/><g class="animated"><path fill="#d2c4d2" d="M54 12h294v147H54z" style="animation-delay:0s"/><path d="M1 162h400v39H1z" style="animation-delay:.2s"/><path d="M1 34h51v167H1zM351 1h33v200h-33z" style="animation-delay:.39s"/><path fill="#cb372b" d="M66 24h100v27H66z" style="animation-delay:.59s"/><path fill="#020a08" d="M359 79h42v83h-42z" style="animation-delay:.78s"/><path fill="#e4efff" d="M76 9h256v14H76z" style="animation-delay:.96s"/><path fill="#000003" d="M26 1h26v200H26z" style="animation-delay:1.15s"/><path fill="#245f5a" d="M49 82h122v25H49z" style="animation-delay:1.33s"/><path fill="#f8ffff" d="M62 52h283v11H62z" style="animation-delay:1.5s"/><path fill="#cf534a" d="M185 85h156v27H185z" style="animation-delay:1.67s"/><path fill="#2f5c9f" d="M149 118h97v27h-97z" style="animation-delay:1.83s"/><path fill="#537e71" d="M271 118h66v45h-66z" style="animation-delay:1.98s"/><path fill="#e1e6fc" d="M96 71h227v13H96z" style="animation-delay:2.12s"/><path fill="#b84f44" d="M65 116h80v29H65z" style="animation-delay:2.26s"/><path d="M60 1h281v8H60z" style="animation-delay:2.38s"/><path fill="#0e0e0c" d="M1 160h211v41H1z" style="animation-delay:2.49s"/><path fill="#4d7d93" d="M187 23h178v26H187z" style="animation-delay:2.6s"/><path d="M2 85h49v63H2z" style="animation-delay:2.69s"/><path fill="#6a96b7" d="M377 1h24v76h-24z" style="animation-delay:2.77s"/><path fill="#c2c6d0" d="M123 146h183v16H123z" style="animation-delay:2.84s"/><path fill="#fffeff" d="M234 16h12v46h-12z" style="animation-delay:2.9s"/><path fill="#020806" d="M246 165h127v36H246z" style="animation-delay:2.94s"/><path fill="#effaff" d="M63 110h199v6H63z" style="animation-delay:2.97s"/><path fill="#5f7b96" d="M2 1h33v58H2z" style="animation-delay:2.99s"/></g></svg>