<svg xmlns="http://www.w3.org/2000/svg" viewBox="0 0 400 200"><path fill="#6a676e" d="M0 0h400v200H0z"/><path fill="#d3c3d0" d="M350 139l-294-5L58 6l294 5z"/><path d="M49 32l29 184-79 12-29-183z"/><path d="M411 240l-390-7 1-75 390 7z"/><path fill="#000102" d="M351 203l3-153 75 1-3 154z"/><path fill="#deddf2" d="M273 137l1 21-199 3v-20z"/><path fill="#dbc3cf" d="M52 157v-53h17v53z"/><path fill="#cb3c33" d="M162 52l-98-2V22l99 2z"/><path d="M55-10L40 263l-21-1L33-11zM245 6L78 9V-2l167-3z"/><path fill="#f4ffff" d="M113 64V50h197v14z"/><path fill="#2a6762" d="M54 79l116 4-1 27-115-4z"/><path fill="#000f15" d="M350-2l27-2 9 164-27 2z"/><path fill="#cc463c" d="M229 87h109v25H229z"/><path fill="#84acce" d="M419 79l-41-1 1-59 41 1z"/><path fill="#3963a3" d="M252 120l-1 26-95-2 1-26z"/><path fill="#b94d41" d="M63 142v-26h69v26z"/><path fill="#ecf6ff" d="M69 24V12l164-3v12z"/><path d="M346 8L234 6V-6l112 2z"/><path fill="#37706a" d="M253 25l83-1v25l-83 1z"/><path d="M-34 85h85v60h-85z"/><path fill="#edfaff" d="M235 75v10l-131-3v-9z"/><path fill="#8da9a8" d="M350 165l-122-5 2-48 122 4z"/><path fill="#080906" d="M82 197l6-41 79 11-6 42z"/><path d="M73 67v-1h199v1z"/><path fill="#305b53" d="M292 116l42 1v18h-42z"/><path fill="#386eba" d="M232 23l-1 25-58-1 1-25z"/><path fill="#020605" d="M265 240l-10-63 113-18 10 63z"/><path fill="#dde5ef" d="M68 107l191 3-1 10-190-4z"/><path fill="#e2e2f9" d="M322 73v13l-89-5V69z"/><path fill="#e7f7ff" d="M342 16v7l-92-6V9z"/><path fill="#557493" d="M19 69l-55-21 19-50 55 21z"/><path fill="#313d42" d="M326 62l58 9-2 15-59-8z"/><path fill="#d6eeff" d="M248 52h-16V12h16z"/><path fill="#50514f" d="M424 190h-50v-75h50z"/><path fill="#f8fbff" d="M54 50l57 7-1 7-57-7z"/><path fill="#c6625c" d="M237 85l-1 27-53-2 1-26z"/><path fill="#e8e5ee" d="M269 153l-12 4-15-43 12-4z"/><path d="M203 174l29 31-21 19-29-31z"/><path fill="#e8e6f8" d="M132 145l141 7-1 5-140-8z"/><path fill="#2e5c50" d="M284 118v16h-29v-16z"/><path fill="#ccd2e7" d="M51-11h8l4 77h-8z"/><path fill="#a57469" d="M309 201l20-30 7 5-20 29z"/><path fill="#d38071" d="M154 229l38-63 5 3-37 63z"/><path fill="#00403f" d="M248 37l-3-21 9-1 3 20z"/><path fill="#bbb8c9" d="M55 158l-3-20 35-7 4 20z"/><path fill="#cfd8f3" d="M346 50v14h-53V50z"/><path fill="#415a91" d="M246 118l-1 26-58-1 1-26z"/><path fill="#c3cae0" d="M24 79l22-2v2l-22 2z"/><path fill="#214d45" d="M334 135l5 10-25 12-5-9z"/><path fill="#e3e1f0" d="M256 83l6-70h3l-6 70z"/><path fill="#ca8373" d="M245 228l-35-54 6-3 35 53z"/><path fill="#e2ebff" d="M85 155l2-81h2l-3 82z"/><path fill="#d6cce3" d="M336 122h11v36h-11z"/><path fill="#fcffff" d="M175 29v25h-7l-1-25z"/><path fill="#b37666" d="M107 222l-3 3-38-52 4-3z"/><path fill="#ffffeb" d="M228 50l-3 1-4-25h3z"/><path fill="#265757" d="M144 81l4 20-40 7-4-20z"/><path fill="#080d09" d="M223 185l19-23 27 23-18 23z"/><path fill="#2e3138" d="M356 63v2l-129 5v-2z"/><path d="M77-6L76 8 59 7l1-13z"/><path fill="#fff" d="M288 117l35-2v1l-35 2z"/><path fill="#030703" d="M344 86l32-27 6 7-32 27z"/><path fill="#fff" d="M179 55l1-36h5l-1 36z"/><path fill="#7e9dc5" d="M363 12h2l-8 53h-1z"/><path d="M-6 155l21 5-7 33-21-4z"/><path fill="#c1a4aa" d="M51 58l21-42 13 6-21 42z"/><path fill="#efe5f8" d="M314 45V25h11v21z"/><path fill="#ead4d1" d="M133 139h-2l4-67h1z"/><path fill="#000002" d="M5 91l19-7 44 120-19 7z"/><path fill="#000c10" d="M50 61H36V-6h14z"/><path fill="#fff" d="M305 20l1-1 3 32h-1z"/><path fill="#8e7e74" d="M26 168l-6 1-4-39 6-1z"/><path fill="#d9d1d0" d="M305 164l-9-1 3-25 10 1z"/><path fill="#8e9ab1" d="M7 26h2L-6 129l-1-1z"/><path fill="#ca726e" d="M125 116l22-1 2 30-22 1z"/><path fill="#5a6d6b" d="M236 268h-2l54-157 1 1z"/><path fill="#bac9e8" d="M338 49l12-63 4 1-12 63z"/><path fill="#e7eded" d="M166 87v15h-8V87z"/><path fill="#090802" d="M359 113l-2-21 54-7 3 22z"/><path fill="#92989e" d="M359 84l14-8 4 7-14 8z"/><path fill="#d3e1e5" d="M316 90l11 1-1 14-11-1z"/><path fill="#fbffff" d="M181 107h-3l5-34h4z"/><path fill="#0a0809" d="M157 164l52-3 1 17-52 3z"/><path fill="#a8948b" d="M211 227l-2-1 48-54 1 1z"/><path fill="#e2e5f3" d="M104 93l-6-1 3-24 6 1z"/><path fill="#6c7781" d="M395 226h-5l-5-94h5z"/><path fill="#211f0d" d="M311 0v8H175V0z"/><path fill="#c6aaac" d="M256 100l-43 6-2-17 43-6z"/><path d="M397 170l-6-23 10-3 7 23z"/><path fill="#343d49" d="M262 71L21 67v-2l241 4z"/><path fill="#830000" d="M166 51l-2 1-3-30h2z"/><path fill="#174139" d="M285 135l8 6-11 13-7-6z"/><path fill="#001322" d="M0-29l8 1-6 81-8-1z"/><path fill="#002c2a" d="M177 91l1 1-3 18h-1z"/><path fill="#000004" d="M383 145l-36 59-16-10 36-59z"/><path fill="#c8d1e7" d="M129 70l1 4-70 8-1-5z"/><path fill="#fbf4e7" d="M275 12l3 43h-2l-2-43z"/><path fill="#8898bb" d="M146 140v-22h44v22z"/><path fill="#b3aab8" d="M299 161l-99 2v-7l98-1z"/><path fill="#9d9993" d="M274 174h2l2 25h-2z"/></svg>