<svg xmlns="http://www.w3.org/2000/svg" viewBox="0 0 400 200"><path fill="#6a676e" d="M0 0h400v200H0z"/><path fill="#d2c4d2" d="M348 159H56V9h292z"/><path d="M398 241l-399-7 2-76 398 7z"/><path d="M-50 33H52v192H-50zm456 30l-5 143-53-2 5-142z"/><path fill="#000d14" d="M379-40v247h-28V-40z"/><path fill="#cb372d" d="M71 51V23h94v28z"/><path fill="#000001" d="M51 169H26l3-199h25z"/><path fill="#cbd1e2" d="M323 48l1 33-199 3V53z"/><path fill="#cd4e44" d="M340 87v27l-144-3V85z"/><path fill="#205d57" d="M171 106l-122 2V86l122-2z"/><path fill="#040604" d="M31 158l141 5-2 53-140-5z"/><path fill="#0a408d" d="M233 143l-44 3-1-25 43-3z"/><path d="M94 0h189v8H94z"/><path fill="#19191f" d="M262 63v3L90 74v-3z"/><path fill="#588176" d="M264 163l2-45 71 2-1 45z"/></svg>