<svg xmlns="http://www.w3.org/2000/svg" viewBox="0 0 256 128"><path fill="#6c6771" d="M0 0h256v128H0z"/><path fill="#dfcbdd" d="M27 5h207l-65 104z"/><path d="M-15 99l132 45 155-37z"/><path d="M-15 108l51 36-3-159zm239 36l48-29-46-130z"/><path fill="#c5bac9" d="M160 103L37 13l-3 87z"/><path d="M5 32l51 104-71 8z"/><path fill="#b1adb0" d="M175 104l51-5-2-77z"/><path fill="#110f0e" d="M272 104l-81 40-148-39z"/><path fill="#c73a31" d="M38 14l24 22 52-21z"/><path d="M172-15l53 20-119-3z"/><path fill="#cf4b40" d="M125 69l61-16 38 19z"/><path fill="#cdd7e8" d="M179 55L98 33l127-2z"/><path fill="#195b56" d="M37 68l72-1-22-16z"/><path fill="#000100" d="M78-15l72 18L34 5z"/><path fill="#486e95" d="M139 95l73-19-127-1z"/><path fill="#4c7980" d="M184 13l-64 16 117 3z"/><path fill="#e9e4f0" d="M119 41L75 28 34 40z"/><path fill="#d8e7ff" d="M148 9L63 6l45 14z"/><path fill="#030606" d="M231 110l41-66-43 16z"/><path fill="#f3f4fd" d="M158 99V65l19 36z"/><path fill="#b74e4c" d="M32 89l33-16 41 18z"/><path fill="#b74b44" d="M102 14L35 33h66z"/><path fill="#3b353d" d="M147 48l-19-7 42 1z"/><path fill="#c9dafd" d="M157 6l-28 3 30 31z"/><path fill="#204ea2" d="M124 32l22-18-34 1z"/><path fill="#00050d" d="M34 88L33-15 9 78z"/><path fill="#8e7c7b" d="M17 101l-8 25 1-49z"/><path fill="#022136" d="M225 7l17 40v-62z"/><path fill="#292c34" d="M237 41h-47l50 14z"/><path fill="#d9d8e9" d="M159 46l-41 12-43-13z"/><path fill="#e5f6ff" d="M161 14l59-2-30-7z"/><path fill="#d58a85" d="M96 144l15-1 16-40z"/><path d="M205 129l45 15-18-48z"/><path fill="#d7e8f0" d="M86 64l33 9-63 1z"/><path fill="#e9e7ee" d="M126 102l30-9-58 1z"/><path fill="#587375" d="M134 54L79 69 23 50z"/><path fill="#070707" d="M-3 142l27-41 116 31z"/><path fill="#db9c94" d="M136 109l32 35-17-4z"/><path fill="#779ec1" d="M243 51l29-29-29-10z"/><path fill="#565859" d="M239 118l4-59 15 70z"/><path fill="#e4ebff" d="M167 54l52-1-27-8z"/><path fill="#cb605d" d="M170 55l-51-2-1 17z"/><path fill="#fdfaff" d="M59 15l23-7H44z"/><path fill="#c2b8ca" d="M63 67L37 3l-3 34z"/><path fill="#4c766e" d="M214 71v27l-45-6z"/><path fill="#f8ffff" d="M90 52l-18-7-9 7z"/><path fill="#fff" d="M184 83l21 6h-19z"/><path fill="#42444e" d="M130 41l-19 6-22-6z"/><path fill="#dde" d="M221 56l-7 25 7 14z"/><path fill="#7d99b9" d="M232 8l5 23-9-5z"/><path fill="#be817a" d="M70 138l-26-29 17 35z"/><path fill="#283e50" d="M46 66L8 19 2 45z"/><path fill="#fff" d="M114 73l7-23-7-3z"/><path fill="#00221b" d="M215 15l-7-1 9 19z"/><path fill="#d3ccd7" d="M107 93l-72-3 37 12z"/><path fill="#000002" d="M33 116L-1 56l34-3z"/><path fill="#534c56" d="M201 41l-21 6-18-6z"/><path fill="#d7d5f6" d="M218 12l-2 28h9z"/><path fill="#b2a3a0" d="M10 96l-18-1 14 6z"/><path fill="#fffbff" d="M56 61l-3 10 3 11z"/><path fill="#575d6a" d="M34 39L13 53l56-11z"/><path fill="#cde3ff" d="M118 37l1-21-16 22z"/><path fill="#9e352b" d="M92 15l15 13-2-14z"/><path fill="#013a3a" d="M165 15l-5 11-1-19z"/><path fill="#010201" d="M241 29l-13 35-6-11z"/><path fill="#fdf5fa" d="M196 94l-8 9 8-18z"/><path fill="#adb9d2" d="M44 101l-8-28-3 28z"/><path fill="#002177" d="M148 31l2-12-4-7z"/><path fill="#4761a1" d="M135 76l17 16-63-1z"/><path fill="#a67772" d="M215 109l-12 28h-12z"/><path fill="#000074" d="M116 30h-3l1-8z"/><path fill="#e0d6dd" d="M93 21l5-11 2 25z"/><path fill="#bcbfc7" d="M224 103l-31 1 26-9z"/><path fill="#deb3b1" d="M187 74l22-18-1 20z"/><path fill="#bc575b" d="M217 56v17l-58-19z"/><path fill="#e5eadb" d="M44 13l9 1-2 12z"/><path fill="#f5f0ef" d="M146 71l15 7 19-7z"/><path fill="#416963" d="M113 62v7l-25-1z"/><path fill="#2f3440" d="M92 43l-16-3-2 5z"/><path fill="#cbb7c6" d="M152 61l-12-16 67-1z"/><path fill="#386659" d="M174 76l12-6-9 27z"/><path fill="#9d3e32" d="M41 86l-1-13 14 1z"/><path fill="#bec5e0" d="M121 72v16l-11 3z"/><path fill="#000002" d="M127 103l25 34-37 7z"/><path fill="#7997bf" d="M1 30l10-40 3 28z"/><path fill="#001f3d" d="M-7 7L3-7 2 35z"/><path fill="#ecf5ff" d="M176 13l-16-6 27 1z"/><path fill="#f0f4ff" d="M151 37l45 1-20-8z"/><path fill="#3c5b54" d="M180 33l-2-19 15 1z"/><path fill="#1c3e38" d="M38 61l11-10-5 14z"/><path fill="#f2f0fc" d="M132 69l3 6-22-5z"/><path fill="#466175" d="M246 39l11 15-26 2z"/><path fill="#415957" d="M197 101l18-3 1-22z"/><path fill="#f1ffff" d="M107 57h-5l1 9z"/><path fill="#838a90" d="M262 95l-11-19-2 10z"/><path fill="#e6ebf7" d="M135 41l-27-7 54-2z"/><path fill="#af5454" d="M153 69l14-13 45 15z"/><path fill="#dadcf0" d="M115 43l26 10-56-2z"/><path fill="#de827a" d="M94 95V74H72z"/><path fill="#eef1fd" d="M157 10v25l-7-15z"/></svg>