<svg xmlns="http://www.w3.org/2000/svg" viewBox="0 0 400 200"><path fill="#6a676e" d="M0 0h400v200H0z"/><path fill="#d1c4d1" d="M352 159H56V9h296z"/><path d="M153 200L30 299-95 145 28 46z"/><path d="M385 239l-276-5 1-75 277 5z"/><path d="M426 48v168h-75V48z"/><path fill="#ddb2b7" d="M124 107l-3 54-72-4 3-54z"/><path d="M52-13v228H27V-13z"/><path fill="#001119" d="M348 164l4-199 26 1-3 198z"/><path fill="#cc3a2b" d="M65 31l101-7 2 25-101 7z"/><path fill="#115b52" d="M171 109l-75-1V83l75 1z"/><path fill="#cf443a" d="M341 88l-1 26-92-3 1-27z"/><path fill="#87b0d3" d="M421 23l-1 56-42-1 1-56z"/><path fill="#f9ffff" d="M291 59L71 66l-1-11 220-7z"/><path fill="#4e7a6e" d="M272 123l66-7 5 41-67 7z"/><path fill="#f6ffff" d="M245 11v11H81V11z"/><path d="M340 9H81V-7h259z"/><path fill="#a5342b" d="M132 142l-45-1 1-25 45 1z"/><path fill="#000001" d="M83 211l-54 26-63-131 53-26z"/><path fill="#e4e8fe" d="M313 84H120V71h193z"/><path fill="#325c9b" d="M245 147l-92-2v-28l93 2z"/><path fill="#457573" d="M245 51V23h111v28z"/><path fill="#030806" d="M370 215H238v-50h132z"/><path fill="#e1ebff" d="M272 65V53l73-4 1 12z"/><path fill="#dae5ff" d="M344 16l-1 6-120-8 1-7z"/><path fill="#ecf9ff" d="M249 161l-1-26 20-1 1 27z"/><path fill="#396cb6" d="M175 25l56-4 2 27-56 4z"/><path fill="#c6c5ca" d="M133 161v-17h114v17z"/><path fill="#14110f" d="M215 215l-179-3 1-53 179 3z"/><path fill="#c5d3e8" d="M113 141v13H52v-12z"/><path fill="#141f2a" d="M211 66v1L12 71v-2z"/><path fill="#cd6c65" d="M265 85l-1 28-81-3 1-28z"/><path fill="#edfdff" d="M277 114v5l-197-7 1-4z"/><path fill="#292c2b" d="M320 75l1-11 45 4-1 11z"/><path fill="#81746e" d="M18 139l9 2-6 46-9-1z"/><path fill="#e29085" d="M174 204l-4-2 23-36 4 3z"/><path fill="#e5f7ff" d="M247 28v34h-14V27z"/><path fill="#8092a0" d="M27 76l43 8-1 4-43-8z"/><path fill="#dee0f6" d="M63 59h-9V9h9z"/><path fill="#d6cdea" d="M345 9l7 48-11 1-7-48z"/><path fill="#1b2026" d="M392 67v2l-179-3v-2z"/><path fill="#698887" d="M54 105l2-25 48 4-2 25z"/><path fill="#d0897f" d="M332 174l2 1-33 50-2-2z"/><path fill="#ca8476" d="M214 169l31 45-4 3-31-45z"/><path fill="#cddbfa" d="M168 63l-1-36 17-1 1 36z"/><path fill="#bdc1ce" d="M352 98l-1 44-14-1 1-43z"/><path fill="#000105" d="M35 66l2-71h14l-2 71z"/><path fill="#b87d6e" d="M94 215l-28-45 4-3 28 46z"/><path fill="#fff" d="M166 104h-8V92l7-1z"/><path fill="#bbb4c2" d="M303 151v11l-55 1v-11z"/><path fill="#496783" d="M21 69l-36-11L3-5 39 6z"/><path fill="#7d8c97" d="M381 185l6-50 5 1-6 49z"/><path fill="#b6a094" d="M22 153l-26 6-1-4 26-6z"/><path fill="#fff" d="M259 17h1l5 46h-2z"/><path fill="#20595c" d="M256 44h-11V14h11z"/><path fill="#346e63" d="M255 121l30-5 3 14-31 5z"/><path d="M53 115l-47 7-4-33 46-6z"/><path fill="#cbdaf1" d="M121 80l-59 1v-9l59-1z"/><path fill="#9bbbe8" d="M355 32l6-1 5 19-6 2z"/><path fill="#eff0ff" d="M345 81v4l-67 2v-5z"/><path fill="#f6f1ec" d="M229 51l-5 1-5-33h5z"/><path fill="#d3cdd4" d="M300 159h48v3h-48z"/><path fill="#a9aeb4" d="M376 80l-9 11-4-3 9-11z"/><path fill="#b65656" d="M80 49l1-28 78 3-1 28z"/><path fill="#eee1df" d="M300 134l10 1-2 17-11-1z"/><path d="M227 200l-27 24-23-26 28-23z"/><path fill="#00005c" d="M175 44l3-20h2l-4 20z"/><path fill="#fff" d="M292 136h-7v-14h6z"/><path fill="#e2e8fb" d="M90 87l-4 53h-3l4-53z"/><path fill="#45645f" d="M304 121l29-7 8 32-29 7z"/><path d="M353 54h-4l6-69h3z"/><path fill="#ecf7ff" d="M262 23V13h34v10z"/><path fill="#d3c6d0" d="M127 130l-9-7 16-23 9 6z"/><path fill="#ebf1f9" d="M248 113h6v42h-6z"/><path fill="#f6e9e2" d="M289 139v-5h39v5z"/><path fill="azure" d="M152 32l2 9-8 1-1-9z"/><path d="M369 94l3 78-11 1-3-78z"/><path fill="#fff6ff" d="M308 18h1l-3 47h-1z"/><path fill="#002722" d="M179 83l-3 27-3-1 2-26z"/><path fill="#cecdcd" d="M254 131l-4-113h1l4 112z"/><path fill="#ece1f5" d="M327 47h-4l-4-33h3z"/><path fill="#cee1fd" d="M55 107l33 3-1 6-32-3z"/><path fill="#928e90" d="M133 149l-19 61-2-1 20-61z"/><path fill="#bac1d1" d="M191 108l-1 30-17-1 1-30z"/><path fill="#a28f85" d="M259 170l1 1-48 51-1-1z"/><path fill="#b3605b" d="M147 140l-45 6-3-25 45-6z"/><path fill="#929aa5" d="M356 109l4 46h-2l-4-46z"/><path fill="#f7ffff" d="M184 74l4 1-8 37-4-1z"/><path fill="#0e4143" d="M300 147l-25 3-1-8 25-3z"/><path fill="#e0d8e9" d="M335 123h5l5 34h-5z"/><path fill="#d7dae5" d="M121 42L98 95l-1-1 22-53z"/><path fill="#7c6d5f" d="M374 190l1-75h3l-1 75z"/><path d="M74 8L63 7l2-14 11 1z"/><path fill="#d9dff8" d="M266 156l-143-5 1-5 142 5z"/><path fill="#a9bbe3" d="M4 15h3v31H4z"/><path fill="#7f8894" d="M345 72l8-15 7 4-8 15z"/><path fill="#7a8784" d="M238 265l49-160h2l-49 160z"/><path fill="#001526" d="M-1 58l-3-1L3-3h3z"/><path fill="#080904" d="M359 114l-3-21 59-9 3 22z"/><path fill="#99a7bc" d="M407 42l11 17-27 17-10-18z"/><path d="M233 174l9 13-11 7-8-13z"/><path fill="#d3daf2" d="M190 65V54l115-2 1 11z"/><path fill="#0d3430" d="M336 22l1 23-9 1-1-24z"/><path fill="#d8f1ff" d="M315 106l-2-7 14-4 2 8z"/><path fill="#000005" d="M52 221l-42-22 21-40 42 21z"/><path fill="#9a958f" d="M275 173l4 46h-2l-4-46z"/><path fill="#8a8982" d="M280 167h2l27 58-2 1z"/><path fill="#808890" d="M404 145l-18-12 6-8 17 13z"/><path fill="#000002" d="M321 205l16-36 47 21-16 36z"/><path fill="#164c4a" d="M280 48l-2-25 9-1 3 25z"/><path fill="#7f7470" d="M130 162h2l5 40h-2z"/><path fill="#27404e" d="M34 40L24 86l-25-6L9 35z"/><path fill="#000b83" d="M209 52h-1l-6-30 1-1z"/><path fill="#bb0f15" d="M75 18l-12 6-2-2 12-7z"/><path fill="#645e54" d="M25 141l-2 2-19-29 3-2z"/><path fill="#15403c" d="M71 84l29-6v2l-29 6z"/><path fill="#fff" d="M272 21l-3 22h-1l2-22z"/><path fill="#efd8cd" d="M0 122v-17h2l-1 17z"/><path fill="#396364" d="M112 106l2-25 35 3-3 25z"/><path fill="#00121b" d="M267 45h-2l-2-23h2z"/><path fill="#f1f7ff" d="M76 33l3-15 3 1-3 15z"/><path fill="#4d658f" d="M201 120h44v25h-44z"/><path fill="#e9dfdb" d="M134 78h2l-3 49-2-1z"/><path fill="#d1c8ca" d="M238 154h-5v-44h5z"/><path fill="#a18883" d="M139 174l1-1 32 52h-1z"/><path fill="#f6f7f2" d="M289 118v-5l33-1v5z"/><path fill="#fff3cb" d="M276 52l-2-30h2l2 30z"/><path fill="#000005" d="M310 32h1l3 15-2 1z"/><path fill="#2e5094" d="M196 113l5 27-8 2-5-28z"/><path fill="#dae1eb" d="M175 60L58 58v-7l117 2z"/><path fill="#002033" d="M272 21l3 22h-2l-3-22z"/><path fill="#e0f3ff" d="M57 33l3-3 15 13-3 4z"/><path fill="#c5d1ed" d="M60 115l3 30-6 1-3-30z"/><path fill="#8d8a83" d="M318 194l-26-22 1-1 26 21z"/><path fill="#947a6e" d="M185 196l-1 1-32-25 1-2z"/><path fill="#00191c" d="M295 118l43 2v1l-43-2z"/><path d="M365 76l-5-3 14-35 5 3z"/><path fill="#ae4947" d="M234 111l-1-9 82-9 1 10z"/><path fill="#d2d2cf" d="M175 67l-6 74-2-1 6-73z"/><path fill="#1c4942" d="M60 102l44 5v2l-44-5z"/><path d="M404 143l3 26-12 2-4-26z"/><path fill="#646772" d="M231 65l1 8-36 5-1-8z"/><path fill="#867a83" d="M295 8l-119 6v-1l118-7z"/><path d="M374 141l3-1 10 33-3 1z"/><path fill="#5f89b7" d="M358 63h-2l6-87h2z"/><path fill="#990100" d="M211 85l-4 26h-1l4-27z"/><path fill="#9198b5" d="M24 32l-9 1-9-50 9-2z"/><path fill="#9c3a2b" d="M63 114h9l-2 24-9-1z"/><path fill="#dee3fc" d="M61-8l-1 18-7-1 1-17z"/><path fill="#7c7679" d="M-9 242l-2-1 38-84h1z"/><path fill="#29252f" d="M102 67v-1h198v1z"/><path fill="#fff" d="M313 33l1-6 9 1-1 6z"/><path fill="#000107" d="M324-6l17-3 2 17-17 2z"/><path fill="#9394a1" d="M53 158V16h5v142z"/><path fill="#d5daf6" d="M113 15l-1 5-54-6v-4z"/><path fill="#325552" d="M313 159l-5-10 27-15 5 9z"/><path fill="#1f2118" d="M346 87l2-12 11 2-3 12z"/><path fill="#fff1da" d="M294 34v-6l11-1v6z"/><path fill="#c7cbd4" d="M157 50l-10 83-2-1 10-82z"/><path fill="#002793" d="M210 26v-1l25-3v2z"/><path fill="#6c717e" d="M85 63l-43 9v-2l43-9z"/><path fill="#dfd1c8" d="M86 9h2l6 49-2 1z"/><path fill="#001208" d="M322 24l-10 3-1-3 10-3z"/><path fill="#6c0005" d="M334 111l4-24h2l-5 25z"/><path fill="#e3effa" d="M139 110l-2 31h-3l2-31z"/><path fill="#000001" d="M181 183l-38-18 3-6 38 19z"/><path fill="#253b2e" d="M70 84h3l-4 25-3-1z"/><path fill="#033" d="M246 51l1-8 9 2-1 7z"/><path fill="#87736b" d="M119 168l1 1-53 58-1-1z"/><path fill="#000004" d="M6 91l27-9 19 56-27 10z"/><path fill="#7d0000" d="M160 22h2l4 29h-1z"/><path fill="#e4ebc6" d="M305 91l3 22h-2l-3-21z"/><path fill="#a62427" d="M240 87v-6l9-1v7z"/><path fill="#000702" d="M130 6H97V-5h33z"/><path fill="#ebf7ff" d="M154 82l87-5v2l-87 5z"/><path fill="#e8f9ff" d="M253 85l42-4v1l-42 5z"/><path fill="#000e18" d="M363 21l-3-30 13-1 3 30z"/><path fill="#000c1e" d="M296 47h-2l-4-23 2-1z"/><path fill="#d6e7ed" d="M241 78l-4 36h-1l3-36z"/><path fill="#bfc2ce" d="M337 40l-3-1 18-49 3 1z"/><path fill="#ffe9bf" d="M225 37l-3 2-11-11 3-3z"/><path fill="#002e2c" d="M88 83l1-1 12 18-1 1z"/><path fill="#467692" d="M422 22l-44 3-2-43 44-2z"/><path d="M218 173l-1-6 23-4 1 6z"/><path fill="#d7e0ff" d="M208 13v10h-80V13z"/><path d="M172 193l-8 8-19-21 8-7z"/><path fill="#d9cbb7" d="M104 64l-2-45h2l1 45z"/><path fill="#284757" d="M384 103h-7l-3-98h6z"/><path fill="#9d0719" d="M77 41l-2 1-16-19 1-1z"/><path fill="#cac4c5" d="M222 141l-2-1 6-57h2z"/><path fill="#c29f6e" d="M127 141l110 8v2l-110-8z"/><path fill="#0c47a6" d="M147 119h2l2 23h-1z"/><path fill="#8d0015" d="M328 110h-1l3-22h1z"/><path fill="#002937" d="M256 35l-9 2-1-8 9-2z"/><path fill="#7a1625" d="M218 121h-1l4-37h2z"/><path fill="#001d42" d="M230 119l1 26h-3l-1-26z"/><path fill="#091214" d="M71 159l75 4v11l-75-4z"/><path fill="#9f7873" d="M327 187l2 2-26 20-2-3z"/><path fill="#959bac" d="M62 150l125 4v7l-125-5z"/><path fill="#000007" d="M194 164l15-3 5 30-15 2z"/><path fill="#1e1c07" d="M174 6V-6l119 2V8z"/><path fill="#fff" d="M195 93l1 6-8 1-1-7z"/><path fill="#980012" d="M90 22l14 28-2 1-14-28z"/><path fill="#bcbfc2" d="M296 11l2 1-15 38-1-1z"/><path fill="#e2e0f5" d="M45 80l-16-1v-1l16 1z"/><path fill="#f2fffb" d="M215 95l-6-2 2-6 6 3z"/><path fill="#786d67" d="M115 161l1 2-36 18-1-1z"/><path fill="#811824" d="M208 111v-2l26-2v1z"/><path fill="#e7f8ff" d="M255 75h2l-4 20h-2z"/><path fill="#e8f1ff" d="M98 78v-1l93 3v1z"/><path fill="#dfffff" d="M129 127l-4 1-2-6 4-1z"/><path fill="#001fa3" d="M189 48h-2l-2-22h1z"/><path fill="#626260" d="M34-16l1 53H21l-1-53z"/><path fill="#fff6ff" d="M317 45l-2-4 7-3 2 4z"/><path fill="#000884" d="M230 51h-2V29h2z"/><path d="M96 171l11 9-14 17-11-10z"/><path fill="#d7cad4" d="M158 24h2l3 42h-2z"/><path fill="#fef9ff" d="M77 97l-4 8h-1l3-9z"/><path fill="#b0adbc" d="M256 62L52 66v-2l203-3z"/><path fill="#d2daf6" d="M245 14l1 39h-11l-1-39z"/><path fill="#cbc8dd" d="M336 83l-3 30-2-1 4-29z"/><path fill="#2c5657" d="M103 100l2-19 22 2-2 19z"/><path fill="#000c14" d="M32 159l4-77 18 1-4 77z"/><path fill="#c0beba" d="M124 128l-4-54 2-1 3 55z"/><path fill="#dbe1f3" d="M176 60h-9l-1-34h9z"/><path fill="#a5a2ac" d="M260 63l84-4 1 4-85 5z"/><path fill="#9d1d2d" d="M133 32l1 12-16 1V32z"/><path fill="#7a7a85" d="M106 69v-2l189 3v2z"/><path fill="#001987" d="M199 26h3l1 18-3 1z"/><path d="M22 159l-37 39-5-6 37-38zm336-29l29-6 1 4-29 6z"/><path fill="#0a3082" d="M224 45l-25-21 1-2 25 22z"/><path fill="#7a8186" d="M396 193l-11-46h2l11 45z"/><path fill="#f9f5fc" d="M180 27h2l5 35h-1z"/><path fill="#868a93" d="M350 92v61h-5V92z"/><path fill="#000095" d="M193 29h1l-1 19h-1z"/><path fill="#cbd6e6" d="M188 119l-81-3v-8l81 3z"/><path fill="#d6fbf0" d="M248 105l-2 1-8-13 2-1z"/><path fill="#d4d7e9" d="M379 59l11-3 1 6-10 3z"/><path fill="#f7dcbf" d="M93 88l2-3 8 7-2 3z"/><path fill="#e5ebd9" d="M284 96l1-1 5 17h-2z"/><path fill="#00359c" d="M177 21h3l-3 25h-3z"/><path fill="#848fa8" d="M3 14h1l17 55h-2z"/><path fill="#b33e39" d="M141 118h6l-2 25h-6z"/><path fill="#e3f1e8" d="M109 100l1-20h1v20z"/><path fill="#9b1522" d="M88 55l-4-34h1l5 34z"/><path fill="#e1d5bd" d="M135 64l-2-39h2l2 39z"/><path fill="#f5dce3" d="M318 153l8 2-2 6-7-2z"/><path fill="#efedc7" d="M77 34l-2 1-7-14 3-1z"/><path fill="#476361" d="M281 156l-3-48h8l3 48z"/><path fill="#ccc9da" d="M338 154l-4-9 11-4 3 9z"/><path fill="#8c171d" d="M228 91l19 18-1 1-19-18z"/><path fill="#041a29" d="M391 55l-2 2-10-7 2-3z"/><path fill="#f7eaff" d="M83 84l15 17-1 1-15-17z"/><path fill="#ac986c" d="M148 107v2l-54 1v-2z"/><path fill="#2c3440" d="M42 75l1-1 23 28-1 1z"/><path fill="#878691" d="M349 77l-4-61 5-1 3 61z"/><path fill="#9796a3" d="M302 159l-1 4-129-4v-5z"/><path fill="#77000e" d="M154 23l4 28h-1l-4-28z"/><path fill="#00201a" d="M303 48l-10 2-1-3 11-2z"/><path fill="#ebe3e9" d="M260 64h-1l1-51h2z"/><path fill="#dce4fc" d="M334 79v2l-81 4-1-2z"/><path fill="#d7af83" d="M168 50L62 56v-2l106-5z"/><path fill="#877764" d="M371 125l1-9 11 1-1 9z"/><path fill="#59504a" d="M249 146v3l-22-2v-3z"/><path fill="#8a0b1d" d="M187 89l-2 17h-1l1-17z"/><path fill="#002e3b" d="M138 105l-4-23 1-1 5 23z"/><path fill="#796c66" d="M24 147v8l-30 3-1-8z"/><path fill="#96071f" d="M300 108l-6-23h1l6 22z"/><path fill="#2d5e62" d="M258 131l26 7v1l-26-6z"/><path fill="#fff" d="M260 131v-5l3 1v4z"/><path fill="#fffff6" d="M128 99h-1l-1-9h2z"/><path fill="#a5716b" d="M189 180l4 5-27 24-4-5z"/><path fill="#cbcabb" d="M270 157h-2l4-37h2z"/><path fill="#cbdbdc" d="M128 58h-2l-2-20h1z"/><path fill="#a55f37" d="M144 145l-36-2v-2l36 2z"/><path fill="#194c4c" d="M76 104l5-25h1l-5 25z"/><path fill="#860016" d="M237 87l1-1 14 13-1 1z"/><path fill="#0f1f39" d="M-1-24l24 87h-2L-2-24z"/><path fill="#d2d4c9" d="M310 111h16v8h-16z"/><path fill="#f4efd6" d="M197 38l-2-1 3-17 2 1z"/><path fill="#90331e" d="M80 140l-1 3-17-4 1-3z"/><path fill="#00170a" d="M324 45v1l-12 5v-2z"/><path fill="#001523" d="M91 78v-1l7 3v1z"/><path fill="#4a0001" d="M77 138h-2v-18h1z"/><path fill="#e0fbff" d="M211 101h6l-1 6h-6z"/><path fill="#1e475d" d="M427 73l1 6-57 9-1-6z"/><path fill="#900003" d="M63 42l5 8-2 1-4-9z"/><path fill="#bbc1d9" d="M62 143l103 5v8l-103-6z"/><path fill="#842033" d="M197 109h-1l2-26h2z"/><path fill="#fffffe" d="M294 38l1-1 6 5-1 1z"/><path fill="#003945" d="M177 95l-8 3-1-1 9-3z"/><path d="M353 67h-1V22h1z"/><path fill="#00363f" d="M300 34h5v14h-5z"/><path fill="#dfdadd" d="M150 17l3-1 2 44h-3z"/><path fill="#c5ccd7" d="M197 113l45-4v8l-45 3z"/><path d="M96 215l-6-5 22-27 6 5z"/><path fill="#ffffdf" d="M189 27h2v16h-2z"/><path fill="#fff" d="M156 128l-3 6-1-1 3-6z"/><path fill="#876b69" d="M249 166l-33 18-1-1 33-19z"/><path fill="#d6cfd6" d="M345 120l-9 14-4-2 9-15z"/><path fill="#f2e8d2" d="M213 38l6 3-2 4-6-3z"/><path fill="#e3f1fd" d="M177 78h7v14h-8z"/><path fill="#dad6be" d="M256 102l-2 1-11-19 1-1z"/><path fill="#f2f1e9" d="M144 87l3-7 2 1-4 7z"/><path fill="#000946" d="M217 118l17 1v2l-17-1z"/><path fill="#0e4443" d="M293 153l8-15 1 1-8 15z"/><path fill="#d2e2ee" d="M116 62l-5-14 5-3 6 15z"/><path fill="#899fb6" d="M0 61l2-1 3 15-2 1z"/><path fill="#cbd2f3" d="M85 61l-31 1v-6l31-1z"/><path fill="#f3f5f7" d="M188 110h1l-3 22h-2z"/><path fill="#cfceba" d="M197 131h-2l7-32h1z"/><path fill="#d7dbf3" d="M288 25l-1-5 30-9 1 5z"/><path fill="#60687a" d="M181 117l7 19-4 2-8-19z"/><path fill="#832132" d="M203 84l3 21h-1l-3-21z"/><path fill="#dbd3db" d="M291 53v-5l23 1v4z"/><path fill="#4d0000" d="M119 140h-1l-1-22h1z"/><path fill="#d9d5d9" d="M73 104l4-22h2l-5 22z"/><path fill="#60676f" d="M119 65l89-2v2l-89 1z"/><path fill="#8a0105" d="M143 45l-6-1v-9h6z"/><path fill="#f8fef2" d="M202 43l6 15h-2l-6-14z"/><path fill="#6b5a5b" d="M158 161l36 13v1l-37-13z"/><path fill="#001d20" d="M286 41l-3-8h2l2 7z"/><path fill="#dbcbc9" d="M333 39l1 11h-3l-1-11z"/><path fill="#a9b7d4" d="M6 56L4 31h1l2 24z"/><path fill="#00090b" d="M39 231l-22-50 46-20 21 50z"/><path fill="#f3e5c2" d="M108 29l1-1 3 14h-1z"/><path fill="#aaa6b6" d="M56 13l208-4v2L56 14z"/><path fill="#8b1424" d="M263 104h-2l-7-19h2z"/><path fill="#002524" d="M255 47l3-12 1 1-3 12z"/><path fill="#404647" d="M379 168l18 40-9 4-18-40z"/><path fill="#bab2c3" d="M261 70h61v9h-61z"/><path fill="#000409" d="M288 163v1l-72 3v-2z"/><path fill="#00333e" d="M277 144l3 1-5 10-3-2z"/><path fill="#153b36" d="M338 135l-1 2-20-2v-1z"/><path fill="#a9a4b0" d="M264 75L59 72v-2l205 4z"/><path fill="#00080b" d="M3 156l12 4-17 45-11-4z"/><path fill="#fbede8" d="M295 121l-4 14-6-1 3-14z"/><path fill="#dddbd9" d="M119 77l2 1-4 12-2-1z"/><path fill="#8c1021" d="M265 91h6v13h-6z"/><path fill="#e4d4c1" d="M333 28l-4 6-1-1 4-6z"/><path fill="#002e38" d="M313 34h-1l-5-13 2-1z"/><path fill="#88000a" d="M123 22l7 19-2 1-6-19z"/><path d="M408 86l1 3-38 5v-3z"/><path fill="#002537" d="M330 39l-1 1-5-18 2-1z"/><path fill="#191e24" d="M124 160l60 2v2l-61-3z"/><path fill="#04322d" d="M266 49l10-7 1 1-10 7z"/><path fill="#00028d" d="M164 124h2v19h-2z"/><path fill="#9d0000" d="M94 50h-2V23h2z"/><path fill="#d0d8f1" d="M223 61H63v-8h160z"/><path fill="#d7d7cf" d="M203 117l1 24h-2l-1-24z"/><path fill="#0a151c" d="M13 39L3 97H1l10-58z"/><path fill="#e4ecfa" d="M251 138l-6-1 2-23 7 1z"/><path fill="#920000" d="M331 102l-1-1 6-5 1 2z"/><path fill="#b26866" d="M209 161l13 29h-2l-12-28z"/><path fill="#002731" d="M305 141l20-1v2h-20z"/><path fill="#002e2f" d="M154 90h2l4 18-2 1z"/><path fill="#000947" d="M218 140h-1l1-19h1z"/><path fill="#002794" d="M190 20l6 10-3 2-6-11z"/><path fill="#003a4a" d="M249 46h-2l3-31h1z"/><path fill="#0c1b21" d="M60 76l-50-5v-2l50 6z"/><path fill="#972934" d="M134 115v2l-13 4-1-2z"/><path fill="#ede1e0" d="M260 70h2l1 33h-2z"/><path fill="#002d22" d="M95 107l-1 1-7-10 2-1z"/><path fill="#c3c4df" d="M338 17h8l-1 39h-8z"/><path fill="#000c14" d="M209 219l-29-20 13-19 29 19z"/><path fill="#ac2234" d="M85 28l-1 1-17-14 1-2z"/><path fill="#d1c7c1" d="M89 60l-3 1-4-17h3z"/><path fill="#134998" d="M188 24l-18 3v-2l18-3z"/><path fill="#001b2c" d="M167 82h1l1 16h-1z"/><path fill="#007" d="M190 114h1l-1 30h-2z"/><path fill="#003443" d="M141 90l-4 19-1-1 3-18z"/><path fill="#001b1e" d="M53-29l-1 85H36l2-86z"/><path fill="#edf4e5" d="M164 109V84h1l1 25z"/><path fill="#6d6260" d="M134 160l16 27-1 1-16-27z"/><path fill="#c5af94" d="M328 158l4-18h1l-4 19z"/><path fill="#00273c" d="M293 25l9-3v2l-9 2z"/><path fill="#810000" d="M128 118h2v13h-2z"/><path fill="#7c7979" d="M15 188l-24 24-1-1 24-24z"/><path fill="#a9bbe1" d="M63 96l-7-14 1-1 7 14z"/><path fill="#7f0005" d="M153 34l12 4-1 2-12-5z"/><path fill="#1d3c6f" d="M207 133l28-3v1l-28 3z"/><path fill="#00030a" d="M377 41l-7-27h1l8 27z"/><path fill="#decdc5" d="M284 28l-2 6-2-1 2-6z"/><path fill="#ffcda7" d="M279 106h-2l5-14 2 1z"/><path fill="#f2d9b0" d="M278 127l1-6h4l-2 7z"/><path fill="#f6ffeb" d="M132 136l2-6 1 1-2 6z"/><path fill="#374f4a" d="M269 144v-1l13-4 1 1z"/><path d="M251 179l9 3-7 22-9-3z"/><path fill="#003f50" d="M142 109l7-20 1 1-7 19z"/><path d="M144 173l4-3 22 43-4 3zm170 39l-7 3-17-35 7-3z"/><path fill="#ecceb0" d="M160 117l-1 30h-1v-30z"/><path fill="#0a0b09" d="M388 116h-31v-12h31z"/><path fill="#000f20" d="M152 88h2l-1 20h-2z"/><path fill="#002c30" d="M326 50l4-12 2 1-4 12z"/><path fill="#d3f8ff" d="M320 90l2 11-3 1-2-11z"/><path fill="#b0b5bc" d="M404 177l1 2-17 5v-2z"/><path fill="#113c42" d="M337 117l-5 7-8-5 5-7z"/><path fill="#d1d4d1" d="M129 16l2 1-2 18h-2z"/><path fill="#d0d0e1" d="M89 70l-3 64h-2l4-64z"/><path fill="#dececa" d="M140 100h1l2 17h-1z"/><path fill="#850007" d="M138 52h-2V22h2z"/><path fill="#dadde1" d="M122 12h2l-4 22-1-1z"/><path fill="#d7dee9" d="M228 56l-9-38h1l10 38z"/><path fill="#00000c" d="M356-2h3l-4 31h-4z"/><path d="M376 57v13h-16V57zm2 96l-18-18 5-5 17 18z"/><path fill="#f7efd5" d="M230 141v-5h8l-1 5z"/><path fill="#969ea0" d="M361 90v-6h8v6z"/><path fill="#72869b" d="M397-1l14 1-9 75-14-2z"/><path fill="#002420" d="M146 98h-1l-5-16 1-1z"/><path d="M19 145l-11 5-10-21 11-6zm250 71l-5-32 9-2 5 33z"/><path fill="#002d41" d="M161 104l-1-1 2-2 1 1z"/><path fill="#c8c5b8" d="M261 106l-13 43h-1l12-44z"/><path fill="#030709" d="M407 134l-15 46h-1l15-46z"/><path fill="#d6e1e4" d="M77 39l3-17h1l-3 17z"/><path fill="#cfcdd1" d="M178 128l3 1-5 13-3-1z"/><path fill="#a09bab" d="M66 119l-8 2-4-20 8-2z"/><path fill="#0c3082" d="M198 52h-1l3-18h2z"/><path fill="#f0e4f0" d="M301 143h2l-2 16-2-1z"/><path fill="#00170c" d="M316 35v3h-6v-3z"/><path fill="#e7e6fa" d="M280 54l-2 1-3-14h2z"/><path fill="#5b504f" d="M350 76h1l7 34h-1z"/><path fill="#937166" d="M76 191l3-4 19 14-3 4z"/><path fill="#00323c" d="M120 107l-9-25h2l9 25z"/><path d="M233 195l-6-6 17-19 6 5z"/><path fill="#800003" d="M107 23l-1 22-2-1 1-21z"/><path fill="#911c27" d="M280 84l-4 28-1-1 3-27z"/><path fill="#4e0213" d="M103 117l1-1 1 22h-1z"/><path fill="#73001b" d="M108 114h2l-1 23h-2z"/><path fill="#ceb99e" d="M95 140l4-26h2l-5 27z"/><path fill="#00343e" d="M274 120l-1 1-17-1v-2z"/><path fill="#ffdcc1" d="M114 101h1l1 9h-2z"/><path fill="#ebe7ec" d="M128 110l5-8 3 2-5 8z"/><path fill="#d6d1c9" d="M150 98h2l-7 40h-2z"/><path fill="#897565" d="M401 100l-4 1-3-5 5-2z"/><path fill="#001793" d="M208 143v-25h1v25z"/><path fill="#000f12" d="M60 8l-1-1 7-13h2z"/><path fill="#6b7b80" d="M50 157l3-13h2l-4 14z"/><path fill="#002825" d="M70 93v-1l14 1v1z"/><path fill="#00397d" d="M232 50h-1l-2-20h1z"/><path fill="#b9bcca" d="M139 81l1 1-2 10h-1z"/><path fill="#314a72" d="M179 30h2l-2 20h-2z"/><path fill="#d9dff2" d="M270 139l-5 11-14-6 5-11z"/><path fill="#dcbfc0" d="M70 137l7-29h2l-8 29z"/><path fill="#7d0000" d="M77 41h1l-3 7h-1z"/><path fill="#000b21" d="M81 103l1-11h1l-1 11z"/><path fill="#003033" d="M279 44l2-21h1l-2 22z"/><path fill="#c1c8de" d="M322 10v13h-30V10z"/><path fill="#493630" d="M317 195l-2-1 23-31 1 1z"/><path fill="#866d54" d="M381 104h-5l1-13 5 1z"/><path fill="#183e94" d="M174 129v1l-18 2-1-2z"/><path fill="#fffaf6" d="M104 88l-1 2-8-5v-1z"/><path fill="#d9af85" d="M214 120h2l-1 18h-1z"/><path fill="#daeaf8" d="M154 86l11-9 1 1-11 9z"/><path fill="#dbdbe2" d="M190 10l2 1-9 21h-1z"/><path fill="#eee4e4" d="M311 140l3-7h1l-2 8z"/><path fill="#98817e" d="M377 177l-3-1 1-14 3 1z"/><path fill="#000002" d="M275 175l7-2 7 22-7 2z"/><path fill="#052525" d="M334 155l-2-1 2-10h1z"/><path fill="#0d0a09" d="M368 127l-7-3 13-40 7 3z"/><path fill="#cbbead" d="M244 134v-1l36 6-1 2z"/><path fill="#d6ccc0" d="M326 113l-2-27h1l3 26z"/><path fill="#d9b3aa" d="M112 22l2-1 7 31h-2z"/><path fill="#840000" d="M309 85l1 22h-2V85z"/><path fill="#07373f" d="M121 108l5-21h1l-4 22z"/><path fill="#003236" d="M307 121l-8 13h-1l8-14z"/><path fill="#9b9eac" d="M403 149l-9-15h2l8 15z"/><path fill="#d7d4d4" d="M224 88l8 14-4 2-8-13z"/><path fill="#c5cbe6" d="M343 151h-3l3-66h3z"/><path fill="#f5d077" d="M206 34V21h2v13z"/><path fill="#91281e" d="M209 97l1-2 17 3-1 2z"/><path fill="#cdbec0" d="M316 152l1-2 13 9-1 1z"/><path fill="#002b49" d="M321 150l1-1 6 6-2 1z"/><path fill="#e9e7e9" d="M192 93h1l4 22h-1z"/><path fill="#c9b69b" d="M258 51v1l-83-1v-2z"/><path fill="#a20000" d="M193 89h-1l-2-4 1-1z"/><path fill="#7a000c" d="M99 116h2l-2 22h-1z"/><path d="M384 165l1 12h-5l-1-12z"/><path fill="#123938" d="M337 27l-2 23h-2l3-23z"/><path fill="#69787f" d="M352 8v1l-43 4v-2z"/><path fill="#d9e8ee" d="M311 89l13-8 1 1-13 8z"/><path fill="#982521" d="M326 105l-9 9-1-1 9-10z"/><path fill="#a4000c" d="M220 85l12-1v1l-12 1z"/><path fill="#6f7d8f" d="M64 63l13 4-2 9-13-4z"/><path fill="#253f7c" d="M209 42l1-1 10 9-1 1z"/><path fill="#e6e2e8" d="M316 46l-3-2 4-7 3 2z"/><path fill="#1e2e31" d="M61 80l1-1 4 9h-2z"/><path fill="#848692" d="M230 153l26 5v3l-26-5z"/><path fill="#8a979f" d="M399 186l-13 24-2-1 13-23z"/><path fill="#c7c2bd" d="M291 98h-2l3-26h2z"/><path fill="#08388e" d="M238 148l-1-1 4-27h2z"/><path fill="#05312f" d="M97 98l7-1 1 6-8 1z"/><path fill="#9999a5" d="M350 152l-1 11-13-1 1-11z"/><path fill="#ffebe8" d="M252 46h-2l3-9h2z"/><path fill="#988b7c" d="M377 131h3l-2 11h-3z"/><path fill="#9b1f1c" d="M117 33l-6 14h-1l5-15z"/><path d="M-29 95V85h69v10z"/><path fill="#103992" d="M199 117l5 26-2 1-4-26z"/><path fill="#111c1b" d="M346 86l38-24 3 4-39 24z"/><path fill="#727078" d="M338 64v2H170v-2z"/><path fill="#666d63" d="M368 50l-3 1-3-12 3-1z"/><path fill="#66615e" d="M144 165l1-1 19 17-1 1z"/><path fill="#234d4d" d="M269 137l-5 1v-11l4-1z"/><path fill="#000004" d="M182 184l-4 5-18-16 5-4z"/><path fill="#dfb9a0" d="M275 113l-3-40h2l2 40z"/><path fill="#d2bfa8" d="M103 114h1l-2 20h-2z"/><path fill="#284b59" d="M395 20h-8l1-16h7z"/><path fill="#6f797e" d="M152 9H53V8h99z"/><path fill="#dcb5a0" d="M299 86h2l-2 14h-1z"/><path fill="#dcba8b" d="M212 37l-2 15h-2l3-15z"/><path fill="#cacbdd" d="M325 59l-3-41h1l4 40z"/><path fill="#97051c" d="M297 91l-7 20h-1l7-21z"/><path fill="#0f1518" d="M384 116l13 28-1 1-14-28z"/><path fill="#ffd" d="M106 100v8h-1v-8z"/><path fill="#7d746b" d="M256 173l1 1-27 33-1-1z"/><path fill="#e7daba" d="M266 44l3-21h1l-3 21z"/><path fill="#cec0b8" d="M247 122l-2 1-12-31 2-1z"/><path fill="#000515" d="M351 66h-1l6-24h2z"/><path fill="#8f0c27" d="M315 110l-2-18 2-1 1 19z"/><path fill="#787674" d="M279 222l-5-45h2l5 45z"/><path fill="#ead6a2" d="M297 44l-3-11h1l3 10z"/><path fill="#c6d4ce" d="M332 122l-4 8h-2l4-9z"/><path fill="#dcbbbb" d="M216 116V83h1v33z"/><path fill="#1b4e51" d="M102 105L87 87l3-2 15 18z"/><path fill="#b1b9c3" d="M226 123l-2 19-5-1 2-19z"/><path fill="#89251c" d="M81 141h-1v-18h1z"/><path fill="#6c788f" d="M19 30h2l-8 39-1-1z"/><path fill="#787b78" d="M366 21h1l7 16h-2z"/><path fill="#00030a" d="M349 207l-16-8 23-42 15 8z"/><path fill="#a80003" d="M100 35h-2l1-12h1z"/><path fill="#dfebc3" d="M144 45l2-14 2 1-2 13z"/><path fill="#a79c91" d="M375 115l1-1 4 10-2 1z"/><path fill="#d1c9c9" d="M123 140l-5-9h2l4 8z"/><path fill="#8f2831" d="M192 99l3 2-7 11-3-2z"/><path fill="#c7a280" d="M279 109v2l-72 3v-1z"/><path fill="#6a6767" d="M401 107l-17 44-2-1 17-43z"/><path fill="#244a38" d="M315 159l-1 2-11-6v-2z"/><path fill="#9e0518" d="M115 25h2l7 24h-2z"/><path fill="#828d99" d="M355 132l-1-31h2l1 31z"/><path fill="#dfedf2" d="M228 107h-3l-2-9 3-1z"/><path fill="#000d12" d="M399 186l10 4-10 23-10-4z"/><path fill="#054848" d="M171 101l-4 10-2-1 5-10z"/><path fill="#000504" d="M326 177l-5 8-26-13 4-9z"/><path fill="#0029a4" d="M242 119h2v20h-2z"/><path fill="#090b0b" d="M363 117l25 12-3 6-25-13z"/><path fill="#023f3c" d="M255 129l-1-2 24-10 1 1z"/><path fill="#d1d0c8" d="M126 148l1-41h2l-2 41z"/><path fill="#001b80" d="M211 23l1 1-2 7h-2z"/><path fill="#daadcc" d="M76 136l3-15 3 1-3 15z"/><path fill="#a80005" d="M105 24h8l-1 3h-7z"/><path fill="#b4b5ba" d="M303 162l-23-1v-6l23 1z"/><path fill="#e4e4f1" d="M303 132h3l-1 16-3-1z"/><path fill="#84888e" d="M159 154l-2 8-15-5 3-8z"/><path fill="#e2d5c9" d="M281 26h3v6h-4z"/><path fill="#78000a" d="M79 48l5-8 1 1-5 8z"/><path d="M146 206l-12-27 6-2 12 27z"/><path fill="#fff5bb" d="M194 134v6h-2v-6z"/><path fill="#770915" d="M281 90h1l2 15h-2z"/><path fill="#f9fcff" d="M141 20l3 4-2 1-3-4z"/><path fill="#819cb5" d="M3 5L2 4l10-8 1 2z"/><path fill="#645954" d="M121 165l-33 44-1-1 33-44z"/><path fill="#6a605c" d="M116 206h-2l13-39 1 1z"/><path fill="#1d2928" d="M404 131l-5 2-14-35 5-1z"/><path fill="#000408" d="M40 203l-10 1-9-103h10z"/><path fill="#00077b" d="M224 130l2 1-2 12h-1z"/><path fill="#2c4933" d="M291 120v-1l14 3-1 1z"/><path fill="#d2e2fd" d="M232 114l3-5 12 7-2 5z"/><path fill="#d1dbf0" d="M337 60H168v-6h169z"/><path fill="#697d91" d="M380 57h-1l5-53h2z"/><path fill="#435264" d="M349 67l2-76h1l-1 76z"/><path fill="#04320f" d="M297 35l4-1 1 1-5 2z"/><path fill="#556b7a" d="M382 67l-18 19-1-1 18-19z"/><path fill="#810524" d="M143 39h-2l2-14h2z"/><path fill="#003279" d="M199 119l-3 6-3-2 3-5z"/><path fill="#dac6a0" d="M180 121l9 12-1 1-10-12z"/><path fill="#003b37" d="M294 124l3 9-2 1-3-9z"/><path fill="#36353e" d="M259 67H80v-1h179z"/><path fill="#3a535b" d="M31 73h-8V63h8z"/><path fill="#4f0000" d="M69 127l4-1v2l-4 1z"/><path d="M15 68l16 8-1 1-15-8z"/><path fill="#c5ceea" d="M244 18v2l-133 4v-1z"/><path fill="#214380" d="M180 125l8 17h-1l-8-17z"/><path fill="#dfc49e" d="M76 27l-3 3-7-9 4-3z"/><path fill="#dcbfb6" d="M67 148h-2l1-19h2z"/><path fill="#ddb8bf" d="M312 148l4-5 1 1-4 5z"/><path fill="#e9ecfd" d="M213 80l23 2v2l-23-2z"/><path fill="#68594d" d="M23 163h-2l-8-40h1z"/><path fill="#1a1310" d="M345 65v2l-13 4-1-2z"/><path fill="#002d69" d="M178 135h1l1 6-1 1z"/><path fill="#cecdd8" d="M287 132v-1l16 7-1 2z"/><path fill="#0d3d47" d="M276 128h-2l8-17h2z"/><path fill="#5d6674" d="M339 80l-1 1-25-16 1-1z"/><path fill="#a01229" d="M298 111l-2-1 8-19 1 1z"/><path fill="#53626c" d="M53 78l-9-2 1-8 10 2z"/><path fill="#a62a46" d="M142 117l-3 28-2-1 4-28z"/><path fill="#001b9f" d="M153 141h-1v-6h1z"/><path fill="#00209d" d="M194 143l-4 2-1-2 4-2z"/><path fill="#42635c" d="M67 81v-2l33 4v2z"/><path fill="#bfb9cb" d="M131 75v-3l150 5-1 3z"/><path fill="#8b0e1f" d="M241 81v-1l7 3v1z"/><path fill="#eaeeff" d="M161 89l6 10-1 1-7-10z"/><path fill="#d4d8ed" d="M193 147l2-3 23 10-2 3z"/><path fill="#0b4535" d="M295 27l-15 11-1-1 15-11z"/><path fill="#2f4e91" d="M184 119l-36-1v-1l36 1z"/><path fill="#cdd2e0" d="M97 119l-11-11 3-3 11 10z"/><path fill="#000104" d="M108 173l1 3-28 9-1-3z"/><path fill="#e3dded" d="M171 118l-1 19h-2l1-19z"/><path fill="#fcce6d" d="M187 130l1 14h-1l-2-14z"/><path fill="#8f3a2c" d="M230 92l9 13-2 1-8-13z"/><path fill="#864f4d" d="M81 194l-2 1-14-35h1z"/><path fill="#677986" d="M53 156h-2l4-48h1z"/><path fill="#84736c" d="M131 179h2l6 40h-1z"/><path fill="#dee1e9" d="M188 60l-11-31h2l11 31z"/><path fill="#0016a6" d="M217 46l2-3 3 3-2 3z"/><path fill="#a8b4ba" d="M356 135h2v16h-2z"/><path fill="#004056" d="M317 157h-1l-3-9h1z"/><path fill="#88b1c7" d="M245 12h2v37h-2z"/><path fill="#790e1e" d="M115 142h-2l-1-23h1z"/><path fill="#8e0012" d="M131 49l-2-1 1-20h2z"/><path fill="#90071b" d="M287 85l4 16h-1l-5-16z"/><path fill="#1b3c8b" d="M204 142l2-23h2l-3 23z"/><path fill="#9a9da9" d="M29 82l-6-2v-1l6 2z"/><path d="M102 168l-18 6-3-9 18-6z"/><path fill="#fff6f1" d="M295 129l4-5 1 1-4 5z"/><path fill="#000004" d="M135 164l-15 62-3-1 15-62z"/><path fill="#666971" d="M349 163v2l-34-2v-1z"/><path fill="#355b5d" d="M148 81l4 12h-2l-3-12z"/><path fill="#f5efd6" d="M95 23h2v9h-1z"/><path fill="#cacee1" d="M67 115v-6l20-1 1 6z"/><path fill="#08505f" d="M312 134l-1 1-6-5 1-1z"/><path fill="#ad2530" d="M254 104l-1-1 7-17h1z"/><path fill="#e2d2c3" d="M309 129l1-4h2l-2 5z"/><path fill="#d3ccce" d="M265 152l10-11 2 3-10 10z"/><path fill="#e5cdc5" d="M286 121l3 12-2 1-2-13z"/><path fill="#182116" d="M161 6L82 8 81-4l80-3z"/><path fill="#766157" d="M268 172l-11 33-2-1 12-32z"/><path fill="#883a43" d="M65 142l-5-26h1l6 26z"/><path fill="#023013" d="M289 50l-3-7 1-1 4 7z"/><path fill="#ab9676" d="M233 122h1l-2 20h-2z"/><path fill="#d5c3b0" d="M198 149l-2-1 2-23h1z"/><path fill="#19192a" d="M59 91l2 1-3 9-1-1z"/><path fill="#c4b39b" d="M279 139l1-1 2 6-1 1z"/><path fill="#d9e4c3" d="M156 32l4-10h1l-3 11z"/><path fill="#ddd5cb" d="M164 22h5l3 20h-5z"/><path fill="#d7d9ec" d="M125 75v2H55v-2z"/><path d="M357 97l-3-1 9-22 3 1z"/><path fill="#001577" d="M215 144l-5-17h2l4 16z"/><path fill="#ffcf91" d="M97 82l-4 7-1-1 4-6z"/><path fill="#d2ad77" d="M106 55v2l-42-5v-1z"/><path fill="#e2ac93" d="M141 52h-2V22h1z"/><path fill="#001a26" d="M329 38l-1-5 4-1 1 5z"/><path fill="#001681" d="M193 50l-4-3 1-2 4 4z"/><path fill="#ded2d8" d="M81 85l15 15-1 1-15-15z"/><path fill="#000817" d="M256 19l1 7h-2l-1-6z"/><path fill="#901b22" d="M228 92h-1l3-8 1 1z"/><path fill="#bfb79c" d="M248 30l4-12h1l-3 12z"/><path fill="#003543" d="M157 91l-1-1 8-7 1 1z"/><path fill="#ced8f1" d="M60 49h-2l3-31h1z"/><path fill="#a30f20" d="M315 89v-1l9 2v2z"/><path fill="#18534d" d="M114 102l-2 6-6-2 2-6z"/><path fill="#010f17" d="M380 54l-1-1 5-6 1 1z"/><path fill="#cdd3f3" d="M78 24l-1-10 44-2v10z"/><path fill="#cf7f7e" d="M192 176l-6 10-1-1 5-10z"/><path fill="#4c5d69" d="M416 88l-1 2-51-8v-1z"/><path fill="#caba96" d="M337 40l-2-9 2-1 1 10z"/><path fill="#06232b" d="M21 42l7-4 15 28-7 4z"/><path fill="#a53a3a" d="M76 116v-2l9 6v2z"/><path fill="#930112" d="M190 84l-5 12-1-1 4-11z"/><path fill="#d2dbf7" d="M237 21l-29-5v-5l30 6z"/><path fill="#a0a1ac" d="M172 154v1l-120 2v-1z"/><path fill="#d19b31" d="M223 50l-2-11h2l1 11z"/><path fill="#002230" d="M108 89l-3-7 1-1 3 7z"/><path fill="#00080a" d="M8 203l27-40 46 32-27 40z"/><path fill="#d6d4ce" d="M68 37l2-1 4 10-2 1z"/><path fill="#082327" d="M45 116l1-25 8 1-1 25z"/><path fill="#294fae" d="M171 144h-22v-2h22z"/><path fill="#e7def3" d="M68 84h-3v-7h3z"/><path fill="#cac5b3" d="M289 41h-2l4-18h1z"/><path fill="#51656c" d="M-4 72H9v5H-4z"/><path fill="#d5d7eb" d="M68 39l5 6-2 2-5-6z"/><path fill="#c9ad8c" d="M289 112l52 1v2l-52-2z"/><path fill="#00171f" d="M330 9l-1-3 15-4 1 3z"/><path fill="#bcbcc4" d="M306 160l-76-7v-2l76 7z"/><path fill="#7f868e" d="M390 173l-8 9-2-1 9-9z"/><path fill="#dedeeb" d="M139 135l-2 6-6-2 2-6z"/><path fill="#cff0ff" d="M148 41l-1-1 4-7 1 1z"/><path fill="#000e27" d="M130 88h2l-1 10h-2z"/><path fill="#ecdef4" d="M183 138h-1l-1-6h2z"/><path fill="#916d68" d="M238 211l-17-20 5-4 17 20z"/><path fill="#dfcbb5" d="M287 47l-2 1-4-6 1-1z"/><path fill="#0d44ac" d="M228 21l4 25h-2l-4-25z"/><path fill="#235159" d="M335 116l-9 7-3-3 9-7z"/><path fill="#000914" d="M-1 6h1l3 24H1z"/><path fill="#02212e" d="M286 150l3 4-2 1-2-4z"/><path fill="#003827" d="M249 15l2-1 7 10-1 1z"/><path fill="#00454a" d="M263 25h3l1 23h-4z"/><path fill="#00080e" d="M44 78l-6-1 1-31h6z"/><path fill="#c9cfca" d="M145 93h-1v-6h1z"/><path fill="#d2e3f5" d="M177 80l-68 2v-1l67-2z"/><path fill="#1d3f65" d="M218 134l-1-1 17-3v1z"/><path fill="#134fab" d="M158 141h-2l1-28h1z"/><path fill="#2a447a" d="M172 120l3 24-1 1-4-25z"/><path fill="#7d8494" d="M345 76l-41-2v-1l40 1z"/><path fill="#00436b" d="M285 121l-2-6h2l2 6z"/><path fill="#002639" d="M271 132l2-9h1l-1 9z"/><path fill="#911c27" d="M82 43l-2-19h2l2 19z"/><path fill="#d0d4ea" d="M235 78l2-1 4 22h-1z"/><path fill="#dfddce" d="M255 96l-1 1-11-13 2-1z"/><path fill="#e4e6ff" d="M227 27l1 17h-3l-1-17z"/><path fill="#969fa9" d="M391-7l10-4 7 19-10 4z"/><path fill="#002d31" d="M327 139v-1l11 2-1 2z"/><path fill="#15488f" d="M220 27l-1 1-9-7 1-1z"/><path fill="#bcb196" d="M214 146l-1 1-4-11h2z"/><path fill="#d6cac4" d="M223 122l4 1-1 6-5-1z"/><path fill="#731822" d="M91 140h-2v-25h2z"/><path fill="#e2f3ff" d="M200 115v-1l14 3v2z"/><path fill="#000001" d="M164 162v-1l24 3-1 2z"/><path fill="#6d6261" d="M10 172l10-4 3 6-10 4z"/><path fill="#0e1619" d="M368 72l10 10-1 1-10-10z"/><path fill="#6a7b96" d="M23 62L8 9h2l15 52z"/><path fill="#1f3338" d="M281 155h-1l3-12 2 1z"/><path fill="#edd7ad" d="M151 109h-2l-1-19h1z"/><path fill="#c3b8c8" d="M283 59v1l-133 5v-2z"/><path fill="#443931" d="M192 163l2 1-16 27h-1z"/><path fill="#7f010e" d="M105 45h4v5h-4z"/><path fill="#e2c687" d="M63 120h1v9h-2z"/><path fill="#d1daf3" d="M293 20l-34 4-1-5 35-4z"/><path fill="#cad1e9" d="M80 112l83 4-1 2-82-5z"/><path fill="#545662" d="M109 159l-45 1v-2l45-1z"/><path fill="#dbb27b" d="M133 54h-2l4-19 1 1z"/><path fill="#000611" d="M352 117h1l3 33h-1z"/><path fill="#d4e1ee" d="M102 75l-1 24-1-1V75z"/><path fill="#122e32" d="M62 5l2-11 13 3-2 10z"/><path fill="#001a7a" d="M190 115l1-1 5 4-1 1z"/><path fill="#701a2d" d="M265 84l4 11h-1l-4-10z"/><path fill="#414a4c" d="M395 125l-9-33h2l9 33z"/><path fill="#a9b4c4" d="M165 52v-1l16 8-1 1z"/><path fill="#840c12" d="M68 50l6-3v2l-6 2z"/><path fill="#8e1526" d="M125 23l7 27-2 1-7-28z"/><path fill="#fff8d2" d="M164 105v3l-1 1-1-3z"/><path fill="#484a52" d="M234 71l-6-1 2-8 6 1z"/><path d="M18 141v6l-16 1v-6z"/><path fill="#9a2b2c" d="M145 22l13 13-1 1-13-13z"/><path fill="#003c48" d="M141 84l6 18h-2l-6-18z"/><path fill="#e9ffe6" d="M295 104l1 6h-2l-1-6z"/><path fill="#576f85" d="M406 9l-19 62-1-1 19-61z"/><path fill="#003f42" d="M314 140l1 1-5 8-2-1z"/><path fill="#d2d0c1" d="M287 149l2-1 6 11-1 1z"/><path fill="#f1e9d5" d="M259 18l-1 1-6-7 1-1z"/></svg>