<svg xmlns="http://www.w3.org/2000/svg" viewBox="0 0 400 200"><path fill="#6a676e" d="M0 0h400v200H0z"/><path fill="#d2c4d2" d="M347 163l6-152-297-1 9 148z"/><path d="M424 185L56 151 47-24l-71 248z"/><path d="M424 222L-6 166l358-4V-24z"/><path fill="#000307" d="M-24 118L53-12l-1 236-76-47z"/><path fill="#cb4237" d="M179 23l-26 27-87 5 11-31z"/><path fill="#cf544b" d="M346 90l-145-7-20 26 156 4z"/><path fill="#edf6ff" d="M97 51l274 2-119 13-209-6z"/><path fill="#346b65" d="M52 78l117 8 14 20-122 4z"/><path fill="#000808" d="M338 224l86-149-80 13 38-70z"/><path fill="#000200" d="M148 8l225 2 9-34L54 6z"/><path fill="#d6d7e9" d="M53 158l211-7-213-10 14-50z"/><path fill="#d8e4fe" d="M46 11l74 13 138-1 95-14z"/><path fill="#507786" d="M114 129l214 29 12-14-7-30z"/><path fill="#f4f1f8" d="M273 151l-25-47-2 44-56 9z"/><path fill="#4f8096" d="M191 48l132 3 25-28-189 2z"/><path fill="#b9574f" d="M156 119l-93-4-6 26 73 5z"/><path fill="#eae9fe" d="M98 78l37 4 189 5-15-17z"/><path d="M98 219L-4 91l59-9L6 224z"/><path fill="#eeeefe" d="M232 49l16 21-3-60-13 21z"/><path fill="#22333c" d="M348 64l-67 2 94 16 6-106z"/><path fill="#8b5f5a" d="M206 171l39 53-34-71-68 71z"/><path fill="#edf9ff" d="M186 117l-8-41 1 33-130 4z"/><path d="M314 224h96l-51-59-20-1z"/><path fill="#ced1e6" d="M61 8l-8-32 2 104 8-29z"/><path fill="#2c2f38" d="M112 69l158-1 43-1-83-3z"/></svg>