<svg xmlns="http://www.w3.org/2000/svg" viewBox="0 0 50 25"><path fill="#6b6770" d="M0 0h50v25H0z"/><path d="M14 39l45-18-71-1z"/><path fill="#c9bed0" d="M18 21L6 1h50z"/><path d="M-8 37L6-1l3 33zm51 4l8-22-5-23z"/><path fill="#b8a8b2" d="M43 3L9 18l34 2z"/><path d="M11 1L4-15 47 1z"/><path fill="#b0909b" d="M43 13L7 19 8 1z"/><path fill="#10110f" d="M66 23l-67-3 35 21z"/><path d="M6 10l-20 1 21 9z"/><path fill="#8b97a8" d="M8 6l35 14-34-1z"/><path fill="#c6ced5" d="M27 11l7-5-22 1z"/><path fill="#436e6a" d="M23 11H9l5 3z"/><path fill="#a4404d" d="M21 3H7l7 3z"/><path fill="#435c6c" d="M63-15L48-9l2 36z"/><path fill="#06070a" d="M50 11l-3 10-1-9z"/><path fill="#d4626e" d="M31 10l-10 4 16-1z"/><path fill="#ffc9e8" d="M14 2l2 2 7-2z"/><path fill="#416279" d="M34 5l13-2-4 3z"/><path fill="#4d6a96" d="M18 18l8-4 2 3z"/><path fill="#b9a1ab" d="M8 14l9 3 11-4z"/><path fill="#e7ffff" d="M32 15v3l3 1z"/><path fill="#d2c9cc" d="M36 6l6 5h-9z"/><path fill="#00040d" d="M3 13l4 9L6 3z"/><path fill="#89a7c7" d="M49 8l1-5 16 8z"/><path fill="#48647a" d="M5 11l-6-3L4-5z"/><path fill="#c28fa5" d="M8 41l12-2 4-16z"/><path fill="#92667b" d="M11 16l14-1-7 3z"/><path fill="#8aafda" d="M26 8l9-5-13-1z"/><path fill="#9199a0" d="M38 8l-14 5-11-4z"/><path fill="#464341" d="M49 14l-2 9 19-10z"/><path fill="#a75564" d="M23 3h-8l2 4z"/><path fill="#5f867b" d="M33 16l9 4 1-5z"/><path fill="#a08486" d="M28 23l22 18H40z"/><path fill="#667c83" d="M43 4l-9 2-2-3z"/><path fill="#0f2a44" d="M47-13V9l-7-23z"/><path fill="#697d78" d="M39 10l-6-2h12z"/><path fill="#656ca7" d="M30 6l-4-3-5 1z"/><path fill="#4c4d53" d="M3 18l3 19-5-1z"/><path fill="#e1b5c0" d="M32 12l9-3H25z"/><path fill="#9b3549" d="M36 11l-2 2-2-2z"/><path fill="#b2b1c6" d="M16 16l7 4 5-1z"/><path fill="#b8afbc" d="M14 15L8 3v6z"/><path fill="#726b6f" d="M10 22l6 15 7-1z"/><path fill="#211919" d="M9 1h32L-4-15z"/><path fill="#93a9b6" d="M36 3l8-2 1 7z"/><path fill="#27484f" d="M15 11l-4 2 8-1z"/><path fill="#26323e" d="M5 4l5 9L0 9z"/><path fill="#ddf9ff" d="M20 9h-6l3 1z"/><path d="M-7 41h29L6 20z"/><path fill="#16292e" d="M8 5L-4-12l9-3z"/><path fill="#d8d9ef" d="M23 8l-1-2 8 1z"/><path fill="#627190" d="M29 16l-13-1 7 3z"/><path d="M46 19l-9 12 9-5z"/><path fill="#999a99" d="M23 41l18-17-2 14z"/><path fill="#d0c5d6" d="M24 11l-3-5 1-3z"/><path fill="#a6adbd" d="M28 13l-13 1 6 3z"/><path fill="#e6bec2" d="M11 4L8 2h6z"/><path fill="#a8616e" d="M18 15l-2 3-7-2z"/><path fill="#57535c" d="M43 10l-2-1 3-1z"/><path fill="#cca0a7" d="M8 18l5 2 7-3z"/><path fill="#c2c7f4" d="M24 2l-3 3 6-3z"/><path fill="#1a1b1b" d="M66 28H52l-3-17z"/><path fill="#141813" d="M12 20l8 21 2-20z"/><path fill="#717f8d" d="M4 5v-20l-5 5z"/><path fill="#a59295" d="M44 9l-2 6 2 2z"/><path d="M26 21l9 20H20z"/><path fill="#4c5f8d" d="M24 3l2 3 2-3z"/><path fill="#c76e78" d="M38 13l-15-3 6 4z"/><path fill="#455f6a" d="M22 9l3-1h-4z"/><path fill="#16080c" d="M44 10v1l2-2z"/><path fill="#e4d6ce" d="M23 14V9h2z"/><path fill="#b06572" d="M46 11l-6 3-4-1z"/><path fill="#576b8a" d="M21 15l1 3 10-3z"/><path fill="#7e7f82" d="M49 18L62-1l-4 15z"/><path fill="#bbd0e0" d="M32 8l9-1-5-1z"/><path fill="#f2cabf" d="M17 6l4 2H10z"/><path fill="#686877" d="M34 5l3 1V4z"/><path fill="#718b9f" d="M15 8h2l1 5z"/><path fill="#af4e57" d="M16 6l-1-2h6z"/><path fill="#93b3e1" d="M23 17l2-3h-3z"/><path fill="#c3cee2" d="M26 19l6-1 2 2z"/><path fill="#afd3cc" d="M39 2h-5l7 2z"/><path fill="#657080" d="M41 3l2 2-7-1z"/><path fill="#08060d" d="M45 18l2-4-2-3z"/><path fill="#606a6e" d="M42 20l-2-2 2-4z"/><path fill="#c8def6" d="M19 10l2-1h-5z"/><path fill="#b4c8db" d="M30 2l3 5-5-4z"/><path fill="#666b7c" d="M42 5l-4 1-3-2z"/><path fill="#4a677c" d="M43 7l17-17-6 11z"/><path fill="#8e897f" d="M24 12l-3-1-2 3z"/><path fill="#000600" d="M6 12l-2 2-6-4z"/><path fill="#646469" d="M2 24L-8 36l-5-8z"/><path fill="#6e8784" d="M35 20v-5l3 2z"/><path d="M6 2v-14l4 4z"/><path fill="#93aa9f" d="M39 14l2 4-5-2z"/><path fill="#121113" d="M11 20l6 11 12 5z"/><path fill="#464655" d="M28 8l-1 1 3-1z"/><path fill="#897183" d="M25 18l-5-2-5 1z"/><path d="M32 24l12 17-24-2z"/><path fill="#627373" d="M38 15l4 2-1 4z"/></svg>