<svg xmlns="http://www.w3.org/2000/svg" viewBox="0 0 400 200"><path fill="#6a676e" d="M0 0h400v200H0z"/><g transform="translate(1 1) scale(1.5625)"><ellipse fill="#c9bcca" cx="125" cy="22" rx="83" ry="83"/><ellipse cy="97" rx="48" ry="48"/><ellipse fill="#06100d" cx="255" cy="120" rx="66" ry="66"/><ellipse cx="109" cy="127" rx="30" ry="30"/><ellipse fill="#bfaba9" cx="201" cy="76" rx="28" ry="28"/><ellipse cx="65" cy="127" rx="28" ry="28"/><ellipse cx="166" cy="127" rx="27" ry="27"/><ellipse fill="#eab8bf" cx="51" cy="84" rx="19" ry="19"/><ellipse fill="#000008" cx="5" cy="54" rx="31" ry="31"/><ellipse fill="#000407" cx="237" cy="53" rx="16" ry="16"/><ellipse fill="#cb999f" cx="59" cy="31" rx="27" ry="27"/><ellipse fill="#ebf4ff" cx="163" cy="95" rx="10" ry="10"/><ellipse cx="226" cy="120" rx="17" ry="17"/><ellipse cx="18" cy="127" rx="30" ry="30"/><ellipse fill="#9eb4be" cx="197" cy="29" rx="27" ry="27"/><ellipse fill="#aabadc" cx="132" cy="31" rx="27" ry="27"/><ellipse fill="#57716e" cx="181" cy="4" rx="28" ry="28"/><ellipse fill="#0e0805" cx="142" cy="127" rx="26" ry="26"/><ellipse fill="#000508" cx="23" cy="26" rx="11" ry="11"/><ellipse fill="#9a5e5e" cx="67" cy="2" rx="32" ry="32"/><ellipse fill="#8e8c8f" cx="63" cy="70" rx="32" ry="32"/><ellipse fill="#000419" cx="233" cy="9" rx="10" ry="10"/><ellipse fill="#00020a" cx="233" cy="32" rx="10" ry="10"/><ellipse fill="#000304" cx="25" cy="9" rx="9" ry="9"/><ellipse fill="#020000" cx="129" rx="8" ry="8"/></g></svg>