<svg xmlns="http://www.w3.org/2000/svg" viewBox="0 0 800 400"><path fill="#69676e" d="M0 0h800v400H0z"/><path fill="#d8c7d6" d="M45 14l488 328L723 17z"/><path d="M-48 261l731 122-656 65z"/><path d="M102-48L-48 261l150 187zm603 0l-7 496 150-112z"/><path fill="#bebac9" d="M105 64l12 247 403 9z"/><path d="M320 320l457 10-54 118z"/><path fill="#bcabb0" d="M702 314l-4-222-593 16z"/><path fill="#c82c21" d="M336 95L205 42l-91 60z"/><path fill="#bc493f" d="M336 167l228 69 103-63z"/><path fill="#000106" d="M98 314l-112-47L105-36z"/><path d="M558 11l-450 6 225-65z"/><path fill="#33675f" d="M214 217L24 152l365 21z"/><path fill="#3f6f8e" d="M461 295l209-56-372-3z"/><path fill="#11110e" d="M-48 314l290 134 485-121z"/><path fill="#aec6e6" d="M411 80L186 14l437 9z"/><path fill="#4d7a86" d="M798 42l-228 66-243-66z"/><path fill="#b5bec8" d="M498 261l194 62-387-9z"/><path fill="#c8dff5" d="M480 70l-194 53h387z"/><path d="M702 14L602-48 433 8z"/><path fill="#c09193" d="M102 314l59-156 147 156z"/><path fill="#3f63a1" d="M352 39l168 59-168-3z"/><path d="M739 170l13 257-75-25z"/><path fill="#aa4c4a" d="M117 277l213 6-119-56z"/><path fill="#789ec0" d="M848 130l-90 22V11z"/><path fill="#0a2431" d="M758-48l-10 281-50-206z"/><path fill="#7f746d" d="M14 408l22-153 19 62z"/><path fill="#bc4c44" d="M333 45l-13 53-168-50z"/><path fill="#1f2d31" d="M848 227L614 127h153z"/><path fill="#e99689" d="M389 342L277 448l68-28z"/><path fill="#e8e8f4" d="M114 123l116-34 115 28z"/><path fill="#eae9ff" d="M308 23l-91 29-87-32z"/><path fill="#c8877a" d="M461 430l-41-103 94 121z"/><path fill="#f6f2fa" d="M545 311l-53-16 3-78z"/><path fill="#5b8678" d="M702 283l-160-72 6 100z"/><path d="M-17 167L95 327l13-154z"/><path fill="#e2d0e0" d="M180 217h197l-110 35z"/><path fill="#f4f0ff" d="M458 23l31 110 3-94z"/><path fill="#cfd2ea" d="M708 173l-113-43-143 31z"/><path fill="#385597" d="M495 289l-6-53-162 47z"/><path fill="#394550" d="M336 127l131 3-62 18z"/><path fill="#4d7163" d="M492 98l3-62 169 62z"/><path fill="#d8e4fb" d="M455 145l-197-3 106 31z"/><path fill="#2b6461" d="M298 164l-171 44 200 6z"/><path fill="#4b6880" d="M-48 86l106 56L80-48z"/><path fill="#cecfe9" d="M673 73l25 69-3-153z"/><path fill="#c1d6ee" d="M339 292l-97 25-97-28z"/><path d="M98 320l88 103-234 25z"/><path fill="#97c1fc" d="M711 64l9-25v59z"/><path fill="#af7568" d="M133 339l109 109-59-15z"/><path fill="#d4d7f0" d="M686 217l-19 110 28-29z"/><path fill="#f8ebee" d="M602 261l25 12-32 38z"/><path fill="#bd635e" d="M495 217l-134 3 13-53z"/><path fill="#0b0c08" d="M723 248l125-71-153-10z"/><path fill="#b4605a" d="M289 230l3 50-175-47z"/><path fill="#28333a" d="M264 142l25-15-75 6z"/><path fill="#000105" d="M848 402l-171-60-57 97z"/><path fill="#b7c7cd" d="M167 164h38l-38 113z"/><path fill="#d1c0d0" d="M108-23l3 153 37-16z"/><path fill="#bb6259" d="M130 108l-3-78 175 65z"/><path fill="#60696c" d="M786 364l-47-6 41-103z"/><path fill="#585a62" d="M586 145l50-18-109 3z"/><path fill="#28534f" d="M627 308l46-25-15-66z"/><path fill="#d0d5e9" d="M367 123V58l-106 69z"/><path fill="#fff0e6" d="M580 230l-10 28 22 31z"/><path fill="#c35f5b" d="M661 167l31 60-231-16z"/><path fill="#f0f8ff" d="M514 23h144l-81 22z"/><path fill="#b3cae4" d="M108 270l-10 35 72-7z"/><path fill="#cf8c7a" d="M667 348L567 448l63-34z"/><path fill="#fffbff" d="M530 105l-16-32 6-37z"/><path fill="#d9e5fc" d="M220 136l-78 16 144 9z"/><path fill="#ebefff" d="M411 23l-72 25-91-25z"/><path fill="#85786d" d="M48 283v25l-78 3z"/><path fill="#687d91" d="M783 164l-60 13L823 23z"/><path fill="#cee6ff" d="M389 211l-72 22h119z"/><path fill="#124347" d="M608 277l-41 21-28-18z"/><path fill="#607fb6" d="M402 230l-107 65v-59z"/><path fill="#ac5354" d="M183 42l12 60 163-60z"/><path fill="#113f32" d="M655 48l25 41-28 9z"/><path fill="#162f31" d="M142 177l-3 34-34-28z"/><path fill="#fffdf5" d="M452 48l3 41-22-31z"/><path fill="#d1e0ff" d="M608 102l84 21 3-25z"/><path fill="#fbf7fc" d="M373 155l-18 18 3 54z"/><path fill="#3d444e" d="M380 130l-41 15-53-15z"/><path fill="#444b55" d="M483 142l-35-15h82z"/><path fill="#146864" d="M352 211v-25l-47 28z"/><path fill="#010200" d="M692 170l75-34-28-47z"/><path d="M398 345l110 103-185-9z"/><path fill="#dacacd" d="M245 248l32 25-10-87z"/><path fill="#8e3324" d="M120 227l10 56 15-53z"/><path fill="#e0e2de" d="M514 211l59 22-106-3z"/><path fill="#d8d0d5" d="M286 292l175-3-78 28z"/><path fill="#c5b4c2" d="M308 136l175 59 128-56z"/><path fill="#626c79" d="M105 120l118 13-165 28z"/><path fill="#e6fae8" d="M158 42v31l-25-25z"/><path fill="#eee7f7" d="M648 86l-18-34 22 3z"/><path fill="#001981" d="M470 45l-9 13-16-16z"/><path d="M42 308l-90 47 56 31z"/><path fill="#365750" d="M508-14l9 106-22-59z"/><path fill="#b25859" d="M480 158l190 59H486z"/><path fill="#ecf2ff" d="M430 23l37 19-103-3z"/></svg>