<svg xmlns="http://www.w3.org/2000/svg" viewBox="0 0 400 200"><path fill="#6a676e" d="M0 0h400v200H0z"/><ellipse fill="#d1c3d1" rx="1" ry="1" transform="matrix(7.93257 75.47332 -146.02487 15.34783 202 84)"/><ellipse rx="1" ry="1" transform="matrix(-398.4156 -4.17715 .2773 -26.44839 120 186)"/><ellipse rx="1" ry="1" transform="matrix(15.43053 -123.88373 28.27904 3.52234 22 126)"/><ellipse fill="#00060a" rx="1" ry="1" transform="rotate(82 105 293) scale(152.8899 24.61959)"/><ellipse fill="#e7a3a8" rx="1" ry="1" transform="matrix(1.40786 29.88658 -62.8463 2.96049 115 40)"/><ellipse fill="#a3b4bc" rx="1" ry="1" transform="matrix(-10.53483 -40.0045 52.85608 -13.91918 298 50)"/><ellipse rx="1" ry="1" transform="rotate(66 -102 118) scale(106.49496 14.69696)"/><ellipse fill="#cd544a" rx="1" ry="1" transform="rotate(179 137 51) scale(79.56297 12.79247)"/><ellipse fill="#cec9d4" rx="1" ry="1" transform="matrix(-70.05066 -2.2127 .28511 -9.02624 115 151)"/><ellipse fill="#000100" rx="1" ry="1" transform="matrix(-182.84528 -2.04027 .0862 -7.72443 194 1)"/><ellipse fill="#235c55" rx="1" ry="1" transform="matrix(-56.89103 -1.78787 .43432 -13.82037 102 94)"/><ellipse fill="#ab362b" rx="1" ry="1" transform="rotate(87 41 86) scale(13.34576 45.48512)"/><ellipse fill="#c2ccd2" rx="1" ry="1" transform="matrix(-.20808 7.36216 -95.84397 -2.7089 260 155)"/><ellipse rx="1" ry="1" transform="matrix(-12.4723 -1.48615 9.07684 -76.17604 361 166)"/><ellipse fill="#daeeff" rx="1" ry="1" transform="matrix(-.14722 7.0694 -116.51688 -2.42647 171 17)"/><ellipse fill="azure" rx="1" ry="1" transform="matrix(-.03799 -4.66922 133.66725 -1.08745 183 58)"/><ellipse fill="#4b7470" rx="1" ry="1" transform="matrix(45.34304 5.05202 -1.56292 14.02759 285 37)"/><ellipse fill="#d5d7ed" rx="1" ry="1" transform="rotate(2 -357 9549) scale(58.92985 6.74266)"/><ellipse fill="#e3eafc" rx="1" ry="1" transform="matrix(-1.41022 37.17604 -5.05344 -.1917 343 121)"/><ellipse fill="#225297" rx="1" ry="1" transform="matrix(-34.65008 6.10974 -2.07167 -11.74903 213 131)"/><ellipse fill="#ecf0ff" rx="1" ry="1" transform="matrix(-110.57713 -2.35155 .08978 -4.22168 188 79)"/><ellipse fill="#0d0f0d" rx="1" ry="1" transform="matrix(2.6295 25.01807 -102.38524 10.76112 285 190)"/><ellipse fill="#a46a71" rx="1" ry="1" transform="matrix(72.3856 7.36335 -1.51956 14.93811 125 132)"/><ellipse fill="#729bbc" rx="1" ry="1" transform="matrix(-5.17832 40.07646 -14.50711 -1.87448 393 37)"/><ellipse fill="#030502" rx="1" ry="1" transform="rotate(18 -514 485) scale(47.68271 20.92672)"/></svg>