<svg xmlns="http://www.w3.org/2000/svg" viewBox="0 0 400 200"><filter id="a"><feGaussianBlur stdDeviation="55"/></filter><path fill="#6a676e" d="M0 0h400v200H0z"/><g filter="url(#a)"><path fill="#d3c5d3" d="M54 8l272 5-3 150-272-5z"/><path d="M-20 158l399 7-2 67-398-7z"/><path d="M55 34l-4 188-54-1L0 33zm375 214l-80-2 3-198 80 1z"/><path fill="#145d54" d="M90 84l87-1 1 22-88 1z"/><path fill="#b4b0bb" d="M316 6h32v130h-32z"/><path d="M61-34L35 129l-16-2L45-37z"/><path fill="#ca382b" d="M66 54l-2-26 100-6 1 27z"/></g></svg>