<svg xmlns="http://www.w3.org/2000/svg" viewBox="0 0 2000 1000"><path fill="#69676e" d="M0 0h2000v1000H0z"/><path fill="#d9c6d4" d="M1770 43L27 51l1454 805z"/><path d="M2121 832l-2242-55 1062 344z"/><path d="M270 1121L254-121l-375 961zm1851-226l-375 226 16-1242z"/><path fill="#bcb9c9" d="M277 777l-7-578 1109 602z"/><path d="M465 1121L35 270l-156 765zm836-1242l312 156-875-8z"/><path fill="#000401" d="M840 809l1117 312-133-312z"/><path fill="#c8372c" d="M293 113h609L457 277z"/><path fill="#c76e66" d="M1731 434v234L879 418z"/><path fill="#c1cce0" d="M488 395l1243 31-532-250z"/><path fill="#00493c" d="M848 441L512 543l7-133z"/><path fill="#6d95a2" d="M1746 824l8-312-984 133z"/><path d="M879-121L285 27l422 8z"/><path fill="#cbd8fb" d="M457 66l406 110 399-117z"/><path fill="#357069" d="M1231 82l562 149-547 15z"/><path fill="#001317" d="M277-121L106 74l101 571z"/><path fill="#1e5095" d="M1113 254L824 113l250-7z"/><path fill="#110e0b" d="M371 785l1156 180L90 1121z"/><path fill="#000706" d="M1809 465l273-109-391 742z"/><path fill="#efe8f0" d="M1223 512l23 273 149 16z"/><path fill="#ccd5eb" d="M1746 168v141l-453-8z"/><path fill="#39383a" d="M832 316l328 8-156 47z"/><path fill="#e9e2f1" d="M1027 316L863 199l-414 94z"/><path fill="#b6473f" d="M277 238L824 98l8 156z"/><path fill="#c04f42" d="M262 684l289-110 234 149z"/><path fill="#3e5a99" d="M1207 566L668 707l570 16z"/><path d="M277 426l-289-8 235 461z"/><path fill="#000003" d="M1879-121l-102 8 110 328z"/><path fill="#746a63" d="M66 606l79 125-86 257z"/><path fill="#bd4d47" d="M1691 543l-687 8 406-133z"/><path fill="#e9f8ff" d="M1426 35l242 71-398-8z"/><path fill="#d9d5e4" d="M1754 809l-86-172 55-235z"/><path fill="#77a0c1" d="M1918 395l-23-328 226 140z"/><path fill="#df9284" d="M973 856l-141 265-16-117z"/><path fill="#c68679" d="M1301 1113l-110 8-148-297z"/><path fill="#e5e8f5" d="M1246 738l-242 63-195-71z"/><path fill="#00221c" d="M1684 223l-63 7 16-132z"/><path fill="#d6d5e0" d="M887 731l-266 62-265-86z"/><path fill="#e7cfd9" d="M371 535l297 94 273-78z"/><path fill="#2d4748" d="M348 535L152 379l219 31z"/><path fill="#000700" d="M1707 35l-351-15 367-141z"/><path fill="#497161" d="M1652 590h-367l133 187z"/><path fill="#edf6ff" d="M402 324l172-62-297 7z"/><path fill="#39746f" d="M887 527l-39-117-438 125z"/><path fill="#b55f59" d="M270 582l453-8v149z"/><path fill="#454547" d="M1731 316l-266 8 242 63z"/><path fill="#65656d" d="M738 293l156 70-374-23z"/><path fill="#575256" d="M1473 332l-227 24 55-55z"/><path fill="#eaf5ff" d="M1160 277l39-226 47 265z"/><path fill="#555653" d="M1863 895l31-461 102 484z"/><path fill="#81add9" d="M1785 191l16-132 31 195z"/><path fill="#496782" d="M66 371L-82-121l273 250z"/><path fill="#ad7767" d="M1645 934l-118 78 149-180z"/><path fill="#ecebff" d="M496 121L332 67l344-8z"/><path fill="#dbd7d6" d="M1582 691h-148l7-93z"/><path fill="#cdb6c0" d="M410 168L270-12l7 297z"/><path fill="#4f73ad" d="M879 90v148l305 8z"/><path d="M1754 481l133-172-47-102z"/><path fill="#d8d8ea" d="M1074 356l-164 70-250-78z"/><path fill="#abb1c3" d="M254 777l16-117 172 133z"/><path fill="#f9fdff" d="M1168 543l141 31-157 16z"/><path fill="#ecf5ff" d="M801 43l218 63H653z"/><path fill="#535257" d="M1027 371l258-47-187-15z"/><path fill="#ac7061" d="M332 824l227 297H449z"/><path d="M191 777L27 1027l391-23z"/><path fill="#f1ecf6" d="M1301 129l31 187-55 16z"/><path fill="#d5dbed" d="M871 223l305 93-625-7z"/><path fill="#496b65" d="M1676 246l-367-109 140 109z"/><path fill="#000004" d="M2121 1059l-406-235-196 297z"/><path fill="#bdacbe" d="M1559 574l218-242-140 55z"/><path fill="#5073b0" d="M1106 590l-289 86-94-94z"/><path fill="#a39289" d="M-113 832l242-94-133 8z"/><path fill="#c5b8b9" d="M1707 809l16-71-227 63z"/><path fill="#000002" d="M1215 1121l-344-86 141-219z"/><path fill="#d1e0f6" d="M926 527l-188 55h391z"/><path fill="#bf6662" d="M902 551l328-16-281-125z"/><path fill="#1a1b06" d="M949-121l524 148-1000-7z"/><path fill="#124997" d="M1121 106h47l-8 148z"/><path fill="#f1ebe9" d="M1504 551l102 23-204 16z"/><path fill="#3d6252" d="M1551 746l125-164-8 195z"/><path fill="#fff" d="M918 238l-23-39 23-62z"/><path fill="#5e8380" d="M1574 113l-297-8 274 118z"/><path fill="#a32622" d="M332 184l63 23-78-117z"/><path fill="#121716" d="M895 809l-78 312-540-328z"/><path fill="#d9dced" d="M371 371l203-31-8 55z"/><path fill="#d1d1df" d="M434 691l-71-140 78-32z"/><path fill="#defff7" d="M715 207l47-31-39-39z"/><path fill="#315f5c" d="M1473 676l-8-86 219 8z"/><path fill="#ccd6f5" d="M1715 43v70l-188-31z"/><path fill="#dadbeb" d="M1371 238l242 71-461 7z"/><path fill="#00030b" d="M262 434l-47 664L59 457z"/><path fill="#f0f0eb" d="M1066 137l63-16v86z"/><path fill="#9e463e" d="M301 598l109-32-86 133z"/><path fill="#15453a" d="M1676 113l-47-8 62 157z"/><path fill="#cfd0d4" d="M895 434l-24 273 70-78z"/><path fill="#b45a59" d="M332 277l117-171h383z"/><path d="M1926 824l-141-453v281z"/><path fill="#d1c9d9" d="M1145 356l289 78 179-94z"/><path fill="#959da6" d="M1973 676l54 70-62-148z"/></svg>