<svg xmlns="http://www.w3.org/2000/svg" viewBox="0 0 400 200"><path fill="#6a676e" d="M0 0h400v200H0z"/><path fill="#d2c4d2" d="M53 9h277v150H53z"/><path d="M8 59l167 135-85 105-166-135z"/><path d="M405 237H88v-75h317z"/><path fill="#000305" d="M350 204l3-158 80 2-3 157z"/><path fill="#e6b1b8" d="M52 158l1-49 88 3-2 49z"/><path d="M22 202V-32h30v234z"/><path fill="#c93226" d="M165 23v27H74V23z"/><path fill="#014f45" d="M159 106l-69 1V86l68-1z"/><path fill="#a08b85" d="M259 81l91 2-2 81-90-2z"/><path fill="#000c14" d="M351 133l3-161h25l-3 161z"/></svg>