<svg xmlns="http://www.w3.org/2000/svg" viewBox="0 0 400 200"><path fill="#d2d2d3" d="M0 0h400v200H0z"/><ellipse rx="1" ry="1" transform="matrix(-31.7842 -54.72423 44.59066 -25.89856 99 38)"/><ellipse fill="#2c0000" rx="1" ry="1" transform="matrix(-40.55408 -24.15246 24.96975 -41.92638 96 31)"/><ellipse fill="#f3f8fa" rx="1" ry="1" transform="rotate(92 119 182) scale(394.78912 165.10367)"/><ellipse fill="#f8fcff" rx="1" ry="1" transform="matrix(-48.1432 31.18669 -122.19924 -188.64016 3 97)"/><ellipse fill="#949d9a" rx="1" ry="1" transform="matrix(4.35196 16.47152 -48.58471 12.83663 128 87)"/><ellipse fill="#dfe9e8" rx="1" ry="1" transform="matrix(-.35442 -6.0693 34.82764 -2.03378 59 87)"/><ellipse fill="#472218" rx="1" ry="1" transform="matrix(2.77078 -38.65435 48.68362 3.48969 90 38)"/><ellipse fill="#fcffff" rx="1" ry="1" transform="matrix(-28.49012 -25.29471 32.98481 -37.15169 255 154)"/><ellipse fill="#919592" rx="1" ry="1" transform="matrix(18.26787 -29.86712 13.306 8.13846 140 76)"/><ellipse fill="#f7fdff" rx="1" ry="1" transform="matrix(-27.7451 -5.8974 9.33268 -43.90679 15 14)"/><ellipse fill="#eff2f5" rx="1" ry="1" transform="matrix(15.22059 -17.95862 23.47424 19.89528 125 174)"/><ellipse fill="#d6d8d9" rx="1" ry="1" transform="matrix(59.67965 9.80507 -14.45811 88.00088 366 160)"/><ellipse rx="1" ry="1" transform="matrix(4.60465 -7.8799 9.09986 5.31753 115 42)"/><ellipse fill="#c9ccd0" rx="1" ry="1" transform="matrix(18.53488 4.51183 -11.89308 48.85747 160 103)"/><ellipse fill="#6c8252" rx="1" ry="1" transform="matrix(.17887 -12.80996 13.76278 .19218 101 1)"/><ellipse fill="#cbdad5" rx="1" ry="1" transform="matrix(.82408 2.87391 -50.6771 14.53142 78 89)"/><ellipse fill="#5f000c" rx="1" ry="1" transform="matrix(-7.43037 8.88871 -11.74639 -9.8192 128 7)"/><ellipse fill="#f0f2f2" rx="1" ry="1" transform="matrix(38.8388 -56.35279 52.15214 35.94368 238 14)"/><ellipse fill="#d0dddb" rx="1" ry="1" transform="rotate(-41 132 -205) scale(71.99238 1.5625)"/><ellipse fill="#9dcdc8" rx="1" ry="1" transform="matrix(-9.66433 -11.6312 4.5706 -3.7977 58 72)"/><ellipse fill="#a1a2a5" rx="1" ry="1" transform="matrix(52.35133 -1.30875 .03905 1.56201 351 147)"/><ellipse fill="#c5c6c8" rx="1" ry="1" transform="rotate(178 155 43) scale(177.76383 3.073)"/><ellipse fill="#af7a9d" rx="1" ry="1" transform="matrix(3.76794 -.3576 .50215 5.291 83 34)"/><ellipse fill="#b9bbbf" rx="1" ry="1" transform="matrix(.01247 -2.83125 132.60028 .58409 92 146)"/><ellipse fill="#5f5759" rx="1" ry="1" transform="matrix(8.66876 6.19184 -27.27576 38.1869 68 1)"/></svg>