<svg xmlns="http://www.w3.org/2000/svg" viewBox="0 0 400 200"><path fill="#d2d2d3" d="M0 0h400v200H0z"/><path d="M140 84l-96-5 5-99 97 5z"/><path fill="#300000" d="M152 17l-39 73-76-40 39-73z"/><path fill="#f6fafd" d="M167-1l246 5-3 198-247-4z"/><path fill="#f8fdff" d="M-17-56l164 273-79 47L-96-9z"/><path fill="#7f8a87" d="M170 82l-67 40-18-31 67-40z"/><path fill="#fcffff" d="M211 128l76-25 22 70-75 25z"/><path fill="#eaf9fb" d="M145 33l-7-48 21-4 8 48z"/><path fill="#4d291b" d="M75-41l60 30-37 75-60-29z"/><path fill="#e2e3e6" d="M-15 153l59-90 166 108-59 90z"/><path fill="#818a83" d="M87 109l-9-20 68-28 9 20z"/><path fill="#310000" d="M97 47l16-18 26 22-16 19z"/><path fill="#d5d7d8" d="M444 228H302V80h142z"/><path fill="#c6e6d8" d="M153 40l-28 35-2-1 29-35z"/><path fill="#1c2000" d="M103 54v24H67V55z"/><path fill="#f2f7fb" d="M50-32L37 63l-54-8 13-94z"/><path fill="#6f8053" d="M97-14l21 14-14 19L84 5z"/><path fill="#96aca3" d="M154 26l2 33-14 1-2-33z"/><path fill="#4b010a" d="M145 23l-24 8-17-52 23-8z"/><path fill="#d2e4df" d="M121 76l1 1-70 24v-1z"/><path fill="#c8ccd1" d="M133 105l28-47 33 20-28 47z"/><path fill="#66655c" d="M108 100l-7-11 27-16 7 11z"/><path fill="#f5f7fc" d="M42 223L5 245l-42-69 37-23z"/><path fill="#9b9c9e" d="M151 144l69 3v2l-69-4z"/><path fill="#507a7f" d="M50-1l7 2-11 42-8-2z"/><path fill="#eff1f1" d="M270-24l16 85-107 21-17-85z"/><path fill="#c5cecf" d="M109 136l-11 7-49-71 10-7z"/><path fill="#acafb1" d="M280 16v2l-133 5v-2z"/><path fill="#8b2844" d="M72 30l5-6 40 35-5 6z"/><path fill="#aaacb0" d="M216 149l-237-4v-2l237 4z"/><path fill="#939597" d="M301 149v-2l68-4v2z"/><path fill="#def3ff" d="M85 31l-4 7-1-1 3-7z"/><path fill="#a8aaab" d="M403 80v1l-198 3v-1z"/><path fill="#3e2416" d="M49 60l8-28 36 9-8 29z"/><path fill="#eaecee" d="M49 151l178-3 1 40-178 3z"/><path d="M110 67l11-2 1 7-10 2z"/><path fill="#f085a7" d="M140-6l-9 15-1-1 9-15z"/><path fill="#080000" d="M124 55l-20-5 5-19 20 5z"/><path fill="#7b3740" d="M44 27L75 0l8 9-31 27z"/><path fill="#290407" d="M95 63h-9l-1-40 9-1z"/><path fill="#a2a076" d="M123 33l-1 1-30-6v-1z"/><path fill="#ffbdef" d="M128 44l3-6 2 1-4 6z"/><path fill="#babbbc" d="M209 22v-1l196-4v2z"/><path fill="#a1c0ba" d="M39 83l77-3v1l-77 3z"/><path fill="#320000" d="M72 11l13 10-5 7-14-10z"/><path fill="#f6f5f4" d="M152 16L132-4l12-11 19 21z"/><path fill="#f0fbf8" d="M44 18L12 1l9-17L52 1z"/><path fill="#9fa1a2" d="M370 148v-5l59 1v5z"/><path fill="#548148" d="M64 76l-1-6 27-7 2 6z"/><path fill="#885d5b" d="M90-25L57 49l-2-1 33-74z"/><path fill="#e8f5f5" d="M39 47l17 28-9 5-16-28z"/></svg>