<svg xmlns="http://www.w3.org/2000/svg" viewBox="0 0 400 200"><style>@keyframes a{from{opacity: 0}to{opacity: 1}}g&gt;*{opacity: 0;animation: a .5s forwards}</style><path fill="#d2d2d3" d="M0 0h400v200H0z"/><path d="M46 1h97v80H46z" style="animation-delay:0s"/><path fill="#310000" d="M54 1h84v69H54z" style="animation-delay:.188s"/><path fill="#f8fdff" d="M1 62h64v139H1z" style="animation-delay:.376s"/><path fill="#585650" d="M87 56h65v45H87z" style="animation-delay:.562s"/><path fill="#f6fafd" d="M165 1h236v198H165z" style="animation-delay:.746s"/><path fill="#eef1f5" d="M62 120h237v81H62z" style="animation-delay:.927s"/><path fill="#2e0100" d="M74 37h47v40H74z" style="animation-delay:1.104s"/><path fill="#fff" d="M1 1h39v62H1z" style="animation-delay:1.277s"/><path fill="#472019" d="M41 15h100v36H41z" style="animation-delay:1.445s"/><path fill="#b0b9bb" d="M132 52h44v52h-44z" style="animation-delay:1.607s"/><path fill="#a6a8a9" d="M302 145h99v6h-99z" style="animation-delay:1.763s"/><path fill="#c8cbd0" d="M84 98h101v53H84z" style="animation-delay:1.912s"/><path fill="#808985" d="M110 73h28v34h-28z" style="animation-delay:2.054s"/><path fill="#441414" d="M56 40h71v26H56z" style="animation-delay:2.187s"/><path fill="#e3e4e7" d="M41 73h27v126H41z" style="animation-delay:2.312s"/><path fill="#f8fbff" d="M220 115h72v67h-72z" style="animation-delay:2.427s"/><path fill="#a9abab" d="M295 81h79v4h-80z" style="animation-delay:2.533s"/><path fill="#39120e" d="M73 12h72v15H73z" style="animation-delay:2.629s"/><path fill="#b2b2b6" d="M1 145h219v4H1z" style="animation-delay:2.714s"/><path fill="#fafcfc" d="M140 1h130v9H140z" style="animation-delay:2.789s"/><path fill="#d7d9da" d="M315 96h86v105h-86z" style="animation-delay:2.853s"/><path fill="#b2c5c4" d="M1 81h109v4H1z" style="animation-delay:2.906s"/><path fill="#bdc0c0" d="M148 16h253v5H148z" style="animation-delay:2.947s"/><path fill="#758652" d="M87 6h20v12H87z" style="animation-delay:2.976s"/><path fill="#929d96" d="M140 34h16v50h-16z" style="animation-delay:2.994s"/></svg>