<svg xmlns="http://www.w3.org/2000/svg" viewBox="0 0 400 200"><path fill="#d2d2d3" d="M0 0h400v200H0z"/><path d="M46-3l100-6-9 117-95-46z"/><path fill="#300" d="M132-24l16 94-85 10-25-58z"/><path fill="#f0f4f6" d="M188 7L-16 205l440-9-26-220z"/><path fill="#7c8582" d="M168 84l-54 40-39-29 87-50z"/><path fill="#f6fdff" d="M44 48L6-24l-30 248L83 99z"/><path fill="#f1f3f5" d="M168 31l80 193L369-12l-254-6z"/><path fill="#3b0406" d="M126 72l17-58-23-38L92 81z"/><path fill="#646559" d="M149 57L96 95l16 5 30-18z"/><path fill="#cbcdd2" d="M144 91l33-79-5 137-134 2z"/><path fill="#f1f7fa" d="M65-24l-89 34 49 70L47 9z"/><path fill="#b6c7c3" d="M112 83l-43-5-72 5 80 7z"/><path fill="#45110e" d="M30-24l83 87-51 1 43-47z"/><path fill="#f6f9fe" d="M287 183l-90 23 56-111 67 75z"/><path fill="#8b9b94" d="M142 21l-6 62 17 4 2-47z"/><path fill="#b3b5b6" d="M412 148l-5-5-112 1 28 8z"/><path fill="#c5c7c7" d="M204 86l56-10-49-2 181 12z"/><path fill="#539b93" d="M79 84L38 42l5-21 9 47z"/><path fill="#312816" d="M48 56l29-24 39 45-35 3z"/><path fill="#caf5ec" d="M112 81l29-25-17 17-42 16z"/><path fill="#728c52" d="M118 29L96 11l-9 8 4-22z"/><path fill="#070000" d="M130 57l-4-16-16-7-3 16z"/><path fill="#bbbdbd" d="M313 80l111 2-22 5-152-4z"/><path fill="#8f2e43" d="M52 20l72 38-18 8-19-36z"/><path fill="#8b344a" d="M112-24L37 33l107-57-10 42z"/><path fill="#cacfd1" d="M38 50l56 53 63 18-81 4z"/></svg>