<svg xmlns="http://www.w3.org/2000/svg" viewBox="0 0 400 200"><filter id="a"><feGaussianBlur stdDeviation="55"/></filter><path fill="#d2d2d3" d="M0 0h400v200H0z"/><g filter="url(#a)"><path d="M49-29l97 5-6 108-97-5z"/><path fill="#300000" d="M37 51l37-74 78 40-37 73z"/><path fill="#f6fafd" d="M163 0h242v198H163z"/><path fill="#f8fdff" d="M-55 45L23 4l93 175-78 41z"/><path fill="#798581" d="M151 52l16 28-66 38-17-28z"/><path fill="#f1f3f6" d="M168 205l-86 1-1-56 86-1z"/><path fill="#340e02" d="M124 71l-48 9-7-40 47-9z"/><path fill="#fcffff" d="M234 198l-21-69 73-22 21 68z"/></g></svg>