<svg xmlns="http://www.w3.org/2000/svg" viewBox="0 0 400 200"><path fill="#d2d2d3" d="M0 0h400v200H0z"/><path d="M145-15l-3 98-98-3 3-99z"/><path fill="#2e0000" d="M80-20l69 37-40 76-69-37z"/><path fill="#f6fafd" d="M162 2l236-4 4 198-236 4z"/><path fill="#f5fafd" d="M8-2l144 191-90 68L-82 66z"/><path fill="#85908e" d="M160 51l14 30-85 41-15-29z"/><path fill="#481d12" d="M124 43L90 79 37 30 71-6z"/><path fill="#fcffff" d="M310 171l-78 28-25-69 78-28z"/><path fill="#828a82" d="M94 93l54-44 13 16-55 44z"/><path fill="#410005" d="M141-8l-4 69-26-2 3-68z"/><path fill="#d8dcdf" d="M129-39l27-7 45 177-28 7z"/><path fill="#e2e4e6" d="M131 261L-22 158l65-96 153 103z"/><path fill="#d6d8d8" d="M411 225l-107-4 6-145 106 4z"/><path fill="#f3fafd" d="M67-44L29 60l-41-15L26-59z"/><path fill="#cee1de" d="M181 24l-69 58-1-1 69-58z"/><path fill="#524f47" d="M65 52l-27-5 8-44 26 4z"/><path fill="#090000" d="M102 74l26-15 3 6-26 15z"/><path fill="#a3b2af" d="M73 78h37v30l-38-1z"/><path fill="#67655e" d="M92 99l-3-10 46-11 2 9z"/><path fill="#9d9fa3" d="M88 145v-2l132 5v1z"/><path fill="#f0f2f3" d="M290 10l-77 71-83-89 77-71z"/><path fill="#a3a5a6" d="M331 83v2l-198-4v-2z"/><path fill="#d0e1dc" d="M185 4l1 1-66 74-1-1z"/><path fill="#7cb163" d="M91 13l-2-9 19-3 1 9z"/><path fill="#9eb2ae" d="M145 68l-4-49 13-1 3 50z"/><path fill="#afb1b1" d="M197 22v-1l198-4v2z"/><path d="M116 54l-14-13 9-9 13 13z"/><path fill="#939597" d="M429 143v2l-128 4v-2z"/><path fill="#a4a5a9" d="M-3 148v-2l92-2v2z"/><path fill="#6a5c4b" d="M132 32l-51 7-2-10 51-7z"/><path fill="#68091b" d="M83 36l10-8 29 35-10 8z"/><path fill="#342a16" d="M92 81L45 53l12-20 47 28z"/><path fill="#d5dadb" d="M27 63l13-11 75 86-13 11z"/><path fill="#bdc2c8" d="M168 80l6 13-68 38-7-13z"/><path fill="#e98cab" d="M94 47l-1-8h5l1 8z"/><path fill="#6db8b8" d="M52 63l-6 1-9-34 6-2z"/><path fill="#e7e9ea" d="M215 227H102v-77h113z"/><path fill="#acc1bf" d="M111 81L-9 85v-2l120-4z"/><path fill="#dabae5" d="M78 30l3-3 6 8-4 2z"/><path fill="#100" d="M98 32l-3 4-19-17 3-3z"/><path fill="#b0cb79" d="M108 34l-12-2 1-5 12 2z"/><path fill="#e6b0d3" d="M77 2l1 1-3 9-2-1z"/><path fill="#eba5cb" d="M130 37l2 6h-1l-2-6z"/><path fill="#e18ba6" d="M108 60l-2-4 6-2 2 4z"/><path fill="#a7a8ab" d="M156 22l-1-2 41-3v2z"/><path fill="#26481e" d="M101 78H70l-1-14h32z"/><path fill="#1a1800" d="M127 13l-22 17-6-7 23-17z"/><path fill="#dc5c82" d="M135-6l5 2-8 15-4-2z"/><path fill="#ecf3f3" d="M39 34l12 41-16 5-13-41z"/><path fill="#e7e9eb" d="M171 155l-3 79-181-6 3-80z"/><path fill="#a7b2b5" d="M-5 22v-1l49-4v2z"/><path fill="#a7a9aa" d="M331 85v-2l71-4v2z"/><path fill="#b1324f" d="M48 24v-3l25 3-1 3z"/><path fill="#1a0604" d="M99 33L85 52l-7-5 13-19z"/><path fill="#419685" d="M71 78l-2 2-17-18 2-3z"/><path fill="#d6f2ec" d="M66 84l39-2v1l-39 2z"/><path fill="#241104" d="M81-40l51 100-2 1L79-40z"/><path fill="#ffeaff" d="M87 17l-1-1 4-3 1 1z"/><path fill="#678146" d="M77 52l-2 1-13-25 2-1z"/><path fill="#638446" d="M93 64l1 3-26 12-1-3z"/><path fill="#79776e" d="M118 95l29-44 6 3-30 44z"/><path fill="#1c4232" d="M65-6l7 6-16 17-7-6z"/><path fill="#230000" d="M90 76l19-44 6 3-20 44z"/><path fill="#eeeff2" d="M-11 85l69-1 1 55-69 1z"/><path fill="#95cdc8" d="M38 33l18-55 2 1-19 54z"/><path fill="#e7aabf" d="M58 42l2 1-4 5-1-1z"/><path fill="#babab9" d="M141 46l18-11 11 17-18 12z"/><path fill="#9c2043" d="M74 52l-3 7-9-3 3-8z"/><path fill="#e6e8e9" d="M303 128V85l71 1-1 44z"/><path fill="#eef0f0" d="M346 64H215V22h131z"/><path fill="#f6fafc" d="M47 5l-7 16L-2 3l7-16z"/><path fill="#340000" d="M76 28l-5-4L85 5l5 4z"/><path fill="#6e7169" d="M110 98l-6-11 29-15 5 11z"/><path fill="#e5e7eb" d="M146 37l4-17 18 5-4 16z"/><path fill="#8d8f8f" d="M123 92l20-17 5 6-20 17z"/><path fill="#96946d" d="M113-7l-2 17-6-1 1-17z"/><path fill="#310000" d="M63 61l-7-3 8-17 7 3z"/><path fill="#e3e5e8" d="M138 113h78v29h-78z"/><path fill="#000e0a" d="M130 32l3-12 8 3-4 12z"/><path fill="#5b181c" d="M143 47l-34 22-3-5 34-22z"/><path fill="#bcbebe" d="M398 83v1H200v-1z"/><path fill="#2d200a" d="M97 62L52 23l2-2 45 39z"/><path fill="#79875f" d="M122 31l-1 1-54-48 1-2z"/><path fill="#dbddde" d="M339 204l-59 28-17-37 59-28z"/><path fill="#4a0c0d" d="M129 38h-6v-65h6z"/><path fill="#4a6f70" d="M43 54l-3-17 9-2 3 17z"/><path fill="#a27d6b" d="M78 59l1 1-8 8-1-2z"/><path fill="#b1aeb6" d="M137 99l-1 14-47-4 1-14z"/><path fill="#6c0014" d="M130 15l10-8 4 5-10 8z"/><path fill="#999155" d="M99 15l13 2v1l-13-2z"/><path fill="#040701" d="M135 57l-4 3-20-18 3-4z"/><path fill="#1c0d01" d="M92 23v-4l48-3 1 5z"/><path fill="#f4f6fc" d="M267 121l-4 65-47-2 4-66z"/><path fill="#b8babc" d="M301 146v-1l115 4v2z"/><path fill="#3f781f" d="M54 32l4-6 11 6-4 6z"/><path fill="#570f16" d="M125 67l-2 2-31-35 2-2z"/><path fill="#191f1c" d="M102 70l1 8-29 1v-8z"/><path fill="#98787e" d="M130 52l1 2-10 4-1-1z"/><path fill="#590519" d="M81 41l-4 2L64 1l5-2z"/><path fill="#0f0000" d="M82 66l-2-5 21-7 1 5z"/><path fill="#5d604e" d="M84 39v-2l15-2v1z"/><path fill="#4f7a81" d="M54-1L43 31h-2L53-2z"/><path fill="#6e493c" d="M123 6l13 42h-1L121 7z"/><path fill="#080001" d="M116 73l-4-3 8-13 4 3z"/><path fill="#bcede2" d="M99 83l16-6v1l-16 6z"/><path fill="#c2e5d9" d="M145 46l1 1-17 24-1-1z"/><path fill="#300002" d="M79 18l34 11v1L79 20z"/><path fill="#182424" d="M75 71L51 57v-1l25 13z"/><path fill="#b47586" d="M74 29l-1 1-17-11 1-1z"/><path fill="#6a0012" d="M77 3L93-7l3 6-16 9z"/><path fill="#8c765c" d="M84 55l8-6v1l-7 6z"/><path fill="#410000" d="M136 3l-21 5-3-9 22-6z"/><path fill="#320009" d="M45 32l3-2 9 11-3 2z"/><path fill="#c98aa8" d="M60 14l1-2 5 4-1 1z"/><path fill="#f0f2f2" d="M186 95V84h108v11z"/><path fill="#d3d6da" d="M174 136l-81 9-3-27 81-8z"/><path fill="#f4f6f7" d="M194 18L140 7l5-23 54 11z"/><path fill="#2e7b6e" d="M144 18l-4 16-1-1 3-15z"/><path fill="#eff1f2" d="M-26 27h66v50h-66z"/><path fill="#b09786" d="M78 53l-5-3 1-2 5 4z"/><path fill="#ae6586" d="M85 20v-3l6-1 1 3z"/><path fill="#cdcfd2" d="M184 87l-10 4-22-54 10-4z"/><path fill="#b36b91" d="M74 12h-1l1-16h2z"/><path fill="#f0f3f9" d="M262 199l-42-1 1-49 42 2z"/><path fill="#e4e6e6" d="M433 26l5 44-113 12-5-44z"/><path fill="#2d6969" d="M72 77v-1l30 5-1 1z"/><path fill="#e0e2e3" d="M219 205L61 224l-4-31 159-19z"/><path fill="#edf4f2" d="M66 79l-46-2v-2l46 3z"/><path fill="#610107" d="M53 28l-1-1 22-10v1z"/><path fill="#d58599" d="M71 54l-2 1-4-5 2-1z"/><path fill="#979896" d="M98 87l-1 13-12-1 1-13z"/><path fill="#53793b" d="M100 62l1 1-28 11v-1z"/><path fill="#7c0015" d="M141 5l2 2-17 12-2-3z"/><path fill="#4e0012" d="M89 19l3 1-8 28-3-1z"/><path fill="#babdbc" d="M55 85v-6h20v6z"/><path fill="#391e14" d="M105 12l-20 4-1-1 20-5z"/><path fill="#f0f2f2" d="M172-13l167-3v31l-167 3z"/><path fill="#911128" d="M100 43h6l-1 10-6-1z"/><path fill="#cbcdce" d="M413 23v1l-133-4v-2z"/><path fill="#c9dbdb" d="M154 44L137-8h1l17 52z"/><path fill="#c8c8ce" d="M136 145v2l-180 3v-2z"/><path fill="#89947f" d="M142 60l-1-1 9-23h1z"/><path d="M102 6l-5-3 2-7 6 2z"/><path fill="#280100" d="M96 37l1 1-29 29-1-1z"/><path fill="#cccdd2" d="M288 51l9-6 4 6-9 6z"/><path fill="#79ac85" d="M95 12l-1-3 10-1v3z"/><path fill="#7f694d" d="M62 40l14-8 1 1-14 8z"/><path fill="#8b5751" d="M42 22l9-4 5 11-8 5z"/><path fill="#b5b5bb" d="M319 73l-8 1v-5h8z"/><path fill="#720219" d="M140 47l-6 1-1-9 6-1z"/><path fill="#5f672b" d="M104 28l4-14 2 1-4 13z"/><path fill="#f8fafb" d="M264 31l-89 1v-8l89-1z"/><path fill="#d3d6d6" d="M267 23l-79-1v-6l79 1z"/><path fill="#4a0610" d="M72 70L53 36l1-1 20 34z"/><path fill="#b3b6ba" d="M173 21l-1 3-24-6v-3z"/><path fill="#291207" d="M92 65l-1 1-22-29 1-1z"/><path fill="#af808c" d="M53 45l4-2 1 1-4 2z"/><path fill="#5f928c" d="M44 50l1-1 12 18-1 1z"/><path fill="#1b322d" d="M142 12v9h-5v-9z"/><path fill="#668a50" d="M82 9l6 1v2l-6-2z"/><path fill="#b5778e" d="M129 43l-2-6h1l3 5z"/><path fill="#330004" d="M127 56h-2l-3-23h1z"/><path fill="#eceff5" d="M298 141l14 32-64 28-14-31z"/><path fill="#dcdedf" d="M473 212l-201 32-9-57 201-32z"/><path fill="#eaeced" d="M185 57l125-3v25l-125 3z"/><path fill="#aac48d" d="M103 32l-11-5v-2l12 6z"/><path fill="#412125" d="M53 55h-2l-2-18h2z"/><path fill="#626255" d="M134 71l-21 17-1-2 21-16z"/><path fill="#000400" d="M116 63l8 6-1 1-8-6z"/><path fill="#d7dadd" d="M158 85l22 4-9 40-21-4z"/><path fill="#4b4935" d="M56-1l13-8 8 11-13 9z"/><path fill="#b9b8bd" d="M107 143h-6v-7l6 1z"/><path fill="#49020e" d="M73 31l-1-1 9-34h2z"/><path fill="#edbdc8" d="M130 4l2-1 2 4-2 1z"/><path fill="#e9eaf0" d="M45 236l-21 16-67-89 21-16z"/><path fill="#87b470" d="M97 11l-9-6 1-2 9 6z"/><path fill="#190400" d="M128 27h-1l-19-39 1-1z"/><path fill="#84192a" d="M108 54l-4 19h-1l4-20z"/><path fill="#f1f3f3" d="M381 31H252v-8h129z"/><path fill="#bfc0c1" d="M194 149v-6h23v6z"/><path fill="#32120c" d="M104 29l-2-1 30-40 2 1z"/><path fill="#e8eaeb" d="M184 92l43 10-10 39-42-10z"/><path fill="#c4bcd2" d="M80 35l2-7 3 1-2 7z"/><path fill="#e0e2e3" d="M412 84l7 43-120 19-7-43z"/><path fill="#1a0f0d" d="M112 73v1l-41 5v-2z"/><path fill="#e9ebeb" d="M467 18l-155-3 1-16 154 3z"/><path fill="#5c8689" d="M43 45l-2-25h2l2 24z"/><path fill="#a06f8a" d="M120 32h-3l-1-6h3z"/><path fill="#265c58" d="M53 60l2-3 12 10-2 2z"/><path fill="#4b2327" d="M113 67l-3 12-12-4 3-12z"/><path fill="#370f0e" d="M110 35l5-31h1l-4 31z"/><path fill="#3a0000" d="M127 38v-2h7v1z"/><path fill="#8abaac" d="M141 29h2l2 22h-2z"/><path fill="#d5d8db" d="M267 193l-4-18 3-1 4 19z"/><path fill="#868889" d="M136 89l1 5-34 6-1-5z"/><path fill="#edefef" d="M282 87h72v9h-72z"/><path fill="#6f0225" d="M84 23h-1l3-10h2z"/><path fill="#090000" d="M106 43l9-9 12 12-9 9z"/><path fill="#79000f" d="M126 43l5 4-2 2-5-4z"/><path fill="#561b21" d="M94 21l-1-1 28-21v2z"/><path fill="#aed2d3" d="M39 50l-2-17h4l1 17z"/><path fill="#d2b7b7" d="M108 60l-1-1 2-4h1z"/><path fill="#cbcfd2" d="M147 85h21l-1 29-21-1z"/><path fill="#a7aaae" d="M144 88l-3 18-8-1 3-19z"/><path fill="#ffdff9" d="M97 43l-1 3h-1l1-3z"/><path fill="#e7e9eb" d="M309 163v-8h78v7z"/><path fill="#e7ebec" d="M25 41l33 33-9 9-33-34z"/><path fill="#b9bbbe" d="M158 84l45-2v2l-45 1z"/><path fill="#c2c4c5" d="M376 18l46-3 1 3-47 3z"/><path fill="#8d001a" d="M130 9l-1 1-4-2 1-1z"/><path fill="#552111" d="M120 0l-12 3-1-1 12-3z"/><path fill="#7d8a41" d="M55 34l-5-3 3-4 5 3z"/><path fill="#d3d3d3" d="M83 114l-9 2-8-35 9-2z"/><path fill="#976f7c" d="M120 23h2l-3 9h-2z"/><path fill="#3f0515" d="M90 24l8-13 1 1-8 13z"/><path fill="#701521" d="M121 58l-12 11-4-3 13-12z"/><path fill="#f0f0f5" d="M108 158v5L3 159v-5z"/><path fill="#3d1607" d="M118 26l1 1-17 14-1-1z"/><path fill="#c2bcc0" d="M72 83v2l-77-4v-2z"/><path fill="#5c9d91" d="M77 82v-2l19-1v2z"/><path fill="#e2e4e5" d="M418 76l-48 5-5-52 48-6z"/><path fill="#141f0f" d="M60 1l3-5 7 4-3 6z"/><path fill="#c2dcb9" d="M42-3l5-1 3 9-5 1z"/><path fill="#230b0b" d="M65 51l-3 11-9-2 3-11z"/><path fill="#b2b4bb" d="M146 77l9-11 7 6-9 11z"/><path fill="#862844" d="M91-2v1L70 4V3z"/><path fill="#b09e9d" d="M103 70v-4h1l1 4z"/><path fill="#426068" d="M50 21l-4-8 9-4 4 8z"/><path fill="#2b2700" d="M85 11l6-3 1 2-6 2z"/><path fill="#979080" d="M104-10h1l5 21-1 1z"/><path fill="#170201" d="M90 54l1-1 11 13-1 1z"/><path fill="#d9dbdc" d="M354 238l-23-41 67-37 23 41z"/><path fill="#b08b9c" d="M122 32l-4 1-1-3 4-1z"/><path fill="#908864" d="M75 59l3 1-1 4-3-1z"/><path fill="#030600" d="M89 35l-1-5 9-1 1 5z"/><path fill="#b6767f" d="M61 24l11 2v2l-11-2z"/><path fill="#540020" d="M58 15l-3 9h-2l3-9z"/><path fill="#616d40" d="M85 54l-5 4-1-1 5-4z"/><path fill="#cad2d5" d="M12 18l31-3v6l-31 3z"/><path fill="#f7fbff" d="M1 22l37 1v7L1 28z"/><path fill="#4f6639" d="M105 25v-1l7-4v2z"/><path fill="#765f3e" d="M57 43l8-11 2 1-9 11z"/><path fill="#bde3db" d="M149 10l-4 31h-1l3-31z"/><path fill="#f4f5f8" d="M45 93L1 95v-8l43-2z"/><path fill="#73a4a0" d="M67 70l-2 4-11-4 1-5z"/><path fill="#c2c3c7" d="M124 121l-40-9 3-12 40 9z"/><path fill="#a0cac3" d="M106 77l6 3-1 1-5-3z"/><path fill="#531025" d="M44 25l2-1 2 6-1 1z"/><path fill="#e2a3ca" d="M53 22l-1 2-3-1v-1z"/><path fill="#cabec3" d="M90 16l-2 2-1-1 2-2z"/><path fill="#000100" d="M57 39l-4-3 1-1 4 3z"/><path fill="#eff0f3" d="M-94 142l196-3v2l-196 3z"/><path fill="#dedee1" d="M92 124l-9 11-36-32 9-11z"/><path fill="#bee2df" d="M65 82L45 62l1-1 20 20z"/><path fill="#571121" d="M81 51L69 61l-1-1 12-10z"/><path fill="#40081a" d="M114 5l3 4-7 6-3-3z"/><path fill="#12080e" d="M112 74l-1-2 16-10 1 2z"/><path fill="#100" d="M100 28l-3-4 4-3 3 4z"/><path fill="#557356" d="M69 80l-1-1 2-7h1z"/><path fill="#c4c5c8" d="M145 198l-2-5 4-2 3 5z"/><path fill="#ccd0d3" d="M150 116l-51 16-4-12 51-16z"/><path fill="#730d17" d="M111 59l1 7-9 2-1-8z"/><path fill="#a4a3a8" d="M101 142l7 3-1 3-7-4z"/><path fill="#588559" d="M104 14l-7-3 1-2 7 4z"/><path fill="#c9cbd0" d="M331 165l-48 23v-1l48-24z"/><path fill="#e4e5e7" d="M230 125l-4-7 55-26 4 7z"/><path fill="#250005" d="M128 35l1 4-9 3-1-5z"/><path fill="#dee0e3" d="M186 136l-69 8-2-12 70-9z"/><path fill="#96979a" d="M154 51l-6 32-7-1 7-32z"/><path fill="#b7bbc2" d="M219 200v-1l36-1v2z"/><path fill="#590817" d="M51 20l1-1 11 6-1 1z"/><path fill="#42020b" d="M126 63h-2l2-28h2z"/><path fill="#e7fdf8" d="M87 84v-2l12 1v2z"/><path fill="#4a010d" d="M51 57l-2-3 21-9 1 3z"/><path fill="#670a1b" d="M134 36h5l-2 14h-5z"/><path fill="#cbcccf" d="M194 149l-36-1v-1h36z"/><path fill="#dbddde" d="M410 101v14l-65 1-1-14z"/><path fill="#8a997e" d="M90 35v-1l3 1v2z"/><path fill="#8db0ac" d="M40 40l8 15-2 1-8-16z"/><path fill="#345b43" d="M127 53l1-1 9 2-1 2z"/><path fill="#6f7771" d="M53 44v2l-11 2v-1z"/><path fill="#cacdcb" d="M160 40l-11 2-1-8 11-2z"/><path fill="#cef3da" d="M147 38l-3 7h-2l3-8z"/><path fill="#c8c8cd" d="M175 129l-2 8-6-2 2-7z"/><path fill="#dfe0e3" d="M150 29l-1-5 37-7 1 4z"/><path fill="#9daf87" d="M107 4l-1 1-2-8h1z"/><path fill="#0a2114" d="M57 38l-9 2v-1l9-3z"/><path fill="#691818" d="M49 50l3-5h1l-3 6z"/><path fill="#7c0019" d="M139 4v9h-5l1-9z"/><path fill="#dca0b7" d="M121 59l-1-3 2-1v3z"/><path fill="#880627" d="M112 59h-1l3-7h2z"/><path fill="#3f1018" d="M125 64l-2 2-9-9 2-2z"/><path fill="#f4f6fa" d="M220 132l61-28 16 34-61 28z"/><path fill="#f4f6fa" d="M228 198l-11-1 7-59 11 1z"/><path fill="#44091b" d="M86 60l8-8 2 2-7 8z"/><path fill="#b8babf" d="M303 148l1-1 4 6-1 1z"/><path fill="#766d55" d="M127 19l2 4h-1l-2-4z"/><path fill="#4d704b" d="M55-4l12 15-1 1L53-3z"/><path fill="#e6ebeb" d="M130-10l31 26-1 2-31-27z"/><path fill="#2c0106" d="M82 27l-15-8 2-4 15 8z"/><path fill="#300706" d="M86 47l-1-1 18-10 1 1z"/><path fill="#48675c" d="M51 2h4l-1 17h-4z"/><path fill="#c58aad" d="M128 40l1-1 4 4-1 1z"/><path fill="#2a0106" d="M106 70l1 2-15 6v-1z"/><path fill="#e6e8e9" d="M199 55l94-4v12l-94 3z"/><path fill="#5f989e" d="M142 10h1l1 19h-2z"/><path fill="#510d0e" d="M98 23L78-5l1-1 20 28z"/><path fill="#b9996e" d="M113 30l-1 2-7-1v-2z"/><path fill="#d5eaf0" d="M139 59l-3 2-1-3 3-2z"/><path fill="#06211a" d="M114 67l1-1 7 6-1 1z"/><path fill="#58021a" d="M71 27l11 15-2 1-10-15z"/><path fill="#b2b6b9" d="M167 19l-20 4v-3l20-4z"/><path fill="#0f0604" d="M109 29l-1-1 3-5 2 1z"/><path fill="#5e662d" d="M112 4l-7-6 1-1 7 6z"/><path fill="#790e32" d="M131 37h2l3 9h-2z"/><path fill="#e0e0e4" d="M103 147l34 1v22l-35-1z"/><path fill="#32746a" d="M138 38l-1-1 4-8 2 1z"/><path fill="#494531" d="M120 28l-8-10 1-1 8 10z"/><path fill="#9c7687" d="M80 33l2 4-1 1-2-5z"/><path fill="#dadbdf" d="M291-9l7 3-6 16-7-3z"/><path fill="#210400" d="M120 13l1-1 17 11-1 1z"/><path fill="#8a7961" d="M69 42l11 11-1 1-11-11z"/><path fill="#142300" d="M106 33v1h-4v-1z"/><path fill="#e6e8e9" d="M452 78l-218 4v-2l218-4z"/><path fill="#636d55" d="M101 34v1l-13 2v-2z"/><path fill="#bbe9d9" d="M126 70l1 1-10 8-1-2z"/><path fill="#877262" d="M86 54l2-4 3 1-2 4z"/><path fill="#7a8c68" d="M122 9V5l2 1-1 3z"/><path fill="#967472" d="M114 25l1-1 4 2-1 2z"/><path fill="#949d6f" d="M106 8h-4V6h3z"/><path fill="#070000" d="M62 12v-1l3 1-1 1z"/><path fill="#eff2f7" d="M304 170l-31 19-25-42 31-18z"/><path fill="#d2d4d8" d="M83 109l53 16-5 15-52-16z"/><path fill="#88001d" d="M125 10l3-3 5 6-3 3z"/><path fill="#557174" d="M46 47l-4-30h1l4 30z"/><path fill="#dadcdc" d="M406 16v2l-88-2v-1z"/><path fill="#93a68c" d="M48-2v5h-3l-1-4z"/><path fill="#c8e3d1" d="M54-5L46 8l-2-1 9-13z"/><path fill="#d3d3d7" d="M57 82v2L1 85v-2z"/><path fill="#dee0e1" d="M326 163l24 27-40 36-24-27z"/><path fill="#393e0a" d="M63 39l-1 1-8-9 1-1z"/><path fill="#d3eeea" d="M123 73l14-14 1 1-14 14z"/><path fill="#ad4b7b" d="M66 18v-3h1v3z"/><path fill="#101001" d="M100 61v2l-20 2v-1z"/><path fill="#221704" d="M75 47v-2l18 7-1 1z"/><path fill="#9fa0a4" d="M132 96v5l-37-2v-4z"/><path fill="#c0c4c6" d="M147 33l1-1 22 37h-1z"/><path fill="#672532" d="M79 27l-5 10h-1l4-10z"/><path fill="#8b715a" d="M83 9v2h-5v-1z"/><path fill="#4e0e21" d="M117 27h2l-3 11-2-1z"/><path fill="#201f00" d="M82 57l2 1-9 11h-1z"/><path fill="#7e0318" d="M102 63l1-5 9 3-1 4z"/><path fill="#8b7d60" d="M73 46l-1 1-3-4 2-1z"/><path fill="#00070c" d="M139 30l-3 5-1-1 2-4z"/><path fill="#5b2e37" d="M120 54l4-5 1 1-4 5z"/><path fill="#a2a978" d="M112 2l1 2-8 1V4z"/><path fill="#6b6b5b" d="M138 66l1 1-16 19-1-1z"/><path fill="#070c00" d="M109 19l1 7h-2l-1-6z"/><path fill="#7e837e" d="M97 95v-8h30v8z"/><path fill="#5e6a55" d="M148 38l1 3-2 1v-4z"/><path fill="#b4dcd5" d="M60 74l6-1v2h-6z"/><path fill="#670b23" d="M86 14l2 1-4 7-1-1z"/><path fill="#edeff1" d="M89 158l177 3v2l-177-4z"/><path fill="#dadcdc" d="M286 112l114-14v1l-114 14z"/><path fill="#3e1721" d="M110 66l5 3-4 7-6-3z"/><path fill="#d4edea" d="M71 84v-2l9-2 1 2z"/><path fill="#b0b2b6" d="M139 107l-36 2v-8l36-2z"/><path fill="#0e1711" d="M70 65l-1 1-12-10 1-2z"/><path fill="#e5e6e6" d="M15 80v-1l50-1v1z"/><path fill="#6c423f" d="M59 26L76-9h1L60 26z"/><path fill="#3c0000" d="M103 57l-1-1 13-11 1 1z"/><path d="M132 54l1-1 2 1v1z"/><path fill="#766845" d="M75 74h-3l-1-6h3z"/><path fill="#e5e7e8" d="M365 16V0l59 1v16z"/><path fill="#dfe1e1" d="M202 16v2l-46-1v-2z"/><path fill="#dfe5e8" d="M149 22l14 7-4 7-14-8z"/><path fill="#507f3b" d="M89 65l1 2-8 4-2-2z"/><path fill="#9e2a4e" d="M129 0h6v1l-6 1z"/><path fill="#524f34" d="M77 74v-2h17v1z"/><path fill="#210501" d="M58 59h-1l8-17 2 1z"/><path fill="#3c1613" d="M94 20l1 1-15 36-2-1z"/><path fill="#696b43" d="M68 30l2 7-2 1-2-8z"/><path fill="#6c9690" d="M42 39l13 27h-2L41 39z"/><path fill="#2e605c" d="M117 74v2l-5-1 1-2z"/><path fill="#2f513d" d="M61-10l3 1-8 21-3-2z"/><path fill="#c2c5ca" d="M284 184l1 1-12 8v-1z"/><path fill="#000500" d="M93 69l2-3 1 1-2 3z"/><path fill="#877456" d="M133 36h-5v-1l5-1z"/><path fill="#977c82" d="M58 48h-1l-1-4h2z"/><path fill="#170c00" d="M75 37l1 5-6 1-1-5z"/><path fill="#878b88" d="M148 65l-12 22h-1l11-23z"/><path fill="#bbbbba" d="M61 80l24 9v2L60 81z"/><path fill="#b9b8bb" d="M158 71l-11-28 6-2 11 27z"/><path fill="#d7d9dc" d="M6 142h212v2H6z"/><path fill="#e4e6e8" d="M217 149l1 31-27 1-1-32z"/><path fill="#4d0b0a" d="M59 40l-1 1-12-10 1-2z"/><path fill="#293526" d="M56 54l1-1 14 19-2 1z"/><path fill="#601731" d="M123 32l-6 4-1-1 6-4z"/><path fill="#59000f" d="M70 17L69 7l3-1 1 11z"/><path fill="#a47584" d="M86 15l4-2 1 2-5 2z"/><path fill="#d6d8dc" d="M170 33l5 31-9 1-5-31z"/><path fill="#52101d" d="M110-5L80 8l-1-1 30-13z"/><path fill="#f1f0f4" d="M185 30l-24 2-1-7 25-3z"/><path fill="#0f0600" d="M90 36l3 1-3 6-3-1z"/><path fill="#c29195" d="M118 22l3-1v2l-3 1z"/><path fill="#dee0e1" d="M-44 194l155-3v1l-155 3z"/><path fill="#6f2630" d="M80 37h-2v-6h2z"/><path fill="#acb184" d="M101 16l3-1v2l-3 1z"/><path fill="#e6e8e9" d="M352 91l95-8v6l-95 8z"/><path fill="#492415" d="M65 16l-2 6-4-2 1-6z"/><path fill="#1a0000" d="M119 70l-3-1 1-18h3z"/><path fill="#1e4200" d="M63 27l-1 4h-4v-5z"/><path fill="#eef1f6" d="M276 134l14-7 23 44-14 7z"/><path fill="#080100" d="M111 33l11 11-6 6-12-11z"/><path fill="#48040c" d="M80 4l2 2-4 4-2-2z"/><path fill="#dcdce2" d="M305 60l4-2 6 15-4 1z"/><path fill="#eaeded" d="M417 27l-41 4v-6l40-4z"/><path fill="#e7e9ea" d="M-1 126l6-27 66 14-6 27z"/><path fill="#d690a9" d="M99 45l-1 1-4-2v-1z"/><path fill="#c1e0d7" d="M105 84l-1-1 11-6 1 1z"/><path fill="#7c837d" d="M96 89l12-6 1 1-12 7z"/><path fill="#071300" d="M97 14v-2l8 1v1z"/><path fill="#56723f" d="M129 24h1l-1 10-2-1z"/><path fill="#a87" d="M77 62l-1 1-4-1v-2z"/><path fill="#276867" d="M46 37l4 4v1l-5-4z"/><path fill="#cfc2cb" d="M75 7v3h-1l-1-3z"/><path fill="#5b2b36" d="M76 56h-6v-5l6 1z"/><path fill="#93164c" d="M116 0h4v2h-4z"/><path fill="#7d0f20" d="M112 55l1-2 5 4-1 1z"/><path fill="#694241" d="M140 44l-5-7 1-1 6 7z"/><path fill="#bdc2c5" d="M138 100l22-9v1l-21 10z"/><path fill="#030f00" d="M133 57l-4 2-1-2 4-1z"/><path fill="#73172d" d="M97 46l3 9-2 1-3-9z"/><path fill="#631102" d="M51 26v-2l6 2v1z"/><path fill="#68353e" d="M82 25l4 4-1 1-4-4z"/><path fill="#563c33" d="M102 67l10-3 1 2-11 2z"/><path fill="#897c5c" d="M82-7L93 8l-1 1L81-6z"/><path fill="#c9c8c4" d="M82 101h-6l-1-16h7z"/><path fill="#8d918d" d="M101 97l-14-2 1-9 14 2z"/><path fill="#848376" d="M146 67l-4 2-5-10 4-2z"/><path fill="#160003" d="M116 18l4-8 3 1-4 9z"/><path fill="#e7e9ea" d="M346 28l11 44-33 8-11-44z"/><path fill="#cfd1d2" d="M182 81v-1h72v1z"/><path fill="#f1f3f6" d="M70-29l6 14-113 46-6-15z"/><path fill="#a59b67" d="M105 17l-3-4 1-1 3 4z"/><path fill="#a4a9ad" d="M175 80v2l-26 2-1-2z"/><path fill="#e3e5e6" d="M213 111h28v11h-28z"/><path fill="#701736" d="M48 18l7 3-1 3-7-3z"/><path fill="#6d9c5a" d="M91 4l6-1 1 4-6 2z"/><path fill="#310201" d="M74 26v-2l22-2v2z"/><path fill="#440c09" d="M66 65h7v3h-7z"/><path fill="#e0e2e3" d="M297 85v2l-86-2v-1z"/><path fill="#430002" d="M73 56l1 1-5 4-1-1z"/><path fill="#ad9090" d="M60 14l1-2 3 1-1 2z"/><path fill="#531224" d="M82 4V2l6-1v2z"/><path fill="#d6d8dc" d="M266 208l-4-33h1l5 33z"/><path fill="#c5e5e4" d="M45 59h-2l-5-16 2-1z"/><path fill="#581732" d="M114 14l-2-4 1-1 2 4z"/><path fill="#50031b" d="M122 35l3-9h1l-2 9z"/><path fill="#79915f" d="M96 29h-2l-1-3h2z"/><path fill="#040000" d="M100 19l2-2 3 3-2 2z"/><path fill="#819d9e" d="M59-4L47 7l-1-1L58-5z"/><path fill="#6d1c3c" d="M71 13h-1l4-21h2z"/><path fill="#a4656b" d="M51 28l-3 1-1-5 3-1z"/><path fill="#841e37" d="M67 49l1 1-2 6-1-1z"/><path fill="#c9cbcc" d="M308 79l76 1v2l-76-1z"/><path fill="#6e9894" d="M109 79v1l-7-1v-1z"/><path fill="#741722" d="M68 58l-2 1-4-6 1-1z"/><path fill="#4b6d6a" d="M48 55l1-1 11 11-1 1z"/><path fill="#9e6b7a" d="M57 21l-1-1 8-8 1 1z"/><path fill="#e1e1e6" d="M179 117l-9-29 12-3 9 28z"/><path fill="#afaeb1" d="M98 100l-2 3-17-8 1-2z"/><path fill="#010200" d="M88 26l1-1 6 7-1 1z"/><path fill="#451a25" d="M131 62l-4 2-3-6 4-2z"/><path fill="#7e0315" d="M95 40l1-1 7 3-1 2z"/><path fill="#aaabab" d="M158 69l-2 1-9-25 1-1z"/><path fill="#3b0c10" d="M84 54l7 9-2 1-6-9z"/><path fill="#e4e6e6" d="M217 129v14l-23 1v-14z"/><path fill="#e5e8e9" d="M156 11l-7 4-16-25 7-4z"/><path fill="#d08ea6" d="M132 40l-2 1-1-1 2-2z"/><path fill="#bfa5a7" d="M55 46l-1-1 2-2 1 1z"/><path fill="#4f0c1d" d="M76 46l-1-5 13-4 1 5z"/><path fill="#23432f" d="M65-2h1l-1 9h-2z"/><path fill="#48462b" d="M106 39l-11-3 1-1 10 3z"/><path fill="#d0d2d3" d="M388 145l-28-2v-1l28 1z"/><path fill="#033e37" d="M80 75h8v2l-8-1z"/><path fill="#737d69" d="M68 10l-1 2-8-8 1-1z"/><path fill="#3f0007" d="M58 47v-4l11 2-1 4z"/><path fill="#5d837f" d="M144 25l-4 12-1-1 4-12z"/><path fill="#5d080f" d="M116 50v1l-24 4-1-2z"/><path fill="#5f7d74" d="M114 77l-5-1 1-2 4 2z"/><path fill="#09352c" d="M138 34l-1-14h2v14z"/><path fill="#ecedef" d="M-7 78l2-41 42 2-2 41z"/><path fill="#e5e6e7" d="M6 63l1-5 38 9-1 5z"/><path fill="#255b54" d="M60 61h2l1 4-1 1z"/><path fill="#e1e3e4" d="M413 81l-38-3 4-45 38 3z"/><path fill="#bababd" d="M19 22v-2l7-3 1 2z"/><path fill="#682537" d="M55 41h1l-3 7h-1z"/><path fill="#7c627d" d="M82 35l2-3 1 1-2 2z"/><path fill="#505440" d="M83 47l-1 5-1-1 1-4z"/><path fill="#511f25" d="M129 37l-14-15 1-1 14 15z"/><path fill="#2a3d08" d="M63 37l1-2 3 2-1 1z"/><path fill="#c6cacb" d="M319 171l2 6-4 1-2-6z"/><path d="M95 63l-1-5 6-1 1 5z"/><path fill="#dcdedf" d="M233 21l73-1v1l-73 1z"/><path fill="#f6fafd" d="M-35 28l72 3v2l-72-3z"/><path fill="#411d14" d="M135 27l-1 1-12-16 2-1z"/><path fill="#c6c7cc" d="M317 75h-2l-2-7 1-1z"/><path fill="#73444a" d="M140 7l1 6h-2V7z"/><path fill="#47402d" d="M89 72v-2h8v2z"/><path fill="#7b5f6e" d="M75 6h1l1 6h-2z"/><path fill="#3a5569" d="M59 11L48-8l1-1 11 19z"/><path fill="#c6889b" d="M133 4l2 1-4 5-2-1z"/><path fill="#e4e6e9" d="M-27 22v-2l56 3v2z"/><path fill="#874353" d="M53 35l-2-5h1l2 4z"/><path fill="#e1e4e5" d="M265 205l1-15 30 3-2 16z"/><path fill="#793f46" d="M59 40h1l-2 6h-1z"/><path fill="#e5e7e8" d="M329 113l1 22-23 1-1-22z"/><path fill="#403b21" d="M139 49l-4 2-1-2 5-1z"/><path fill="#2f0508" d="M116 39l-7-14h1l7 14z"/><path fill="#c0c2c3" d="M364 19v-1l70 2v2z"/><path fill="#64948c" d="M87 81v-2l12 1v2z"/><path fill="#1d0000" d="M128 50v1l-14 1v-2z"/><path fill="#a6a8ab" d="M311 145v1l-8 2v-2z"/><path fill="#edefef" d="M247 79l-62-5 1-5 62 6z"/><path fill="#5d0005" d="M133 50l-6-3 1-1 6 2z"/><path fill="#753d3f" d="M80 26l1 2h-3l-1-1z"/><path fill="#192002" d="M91 71v4h-8v-5z"/><path fill="#6d1029" d="M129 49l-1-1 7-8 1 1z"/><path fill="#a5c7c7" d="M144 13h2l-1 19h-1z"/><path fill="#456c6f" d="M51 13l-4 8-3-1 4-9z"/><path fill="#d7d8da" d="M407 188v22h-44v-22z"/><path fill="#0b0000" d="M79 14h2l1 8h-2z"/><path fill="#770c26" d="M139 6l2 6-10 3-2-6z"/><path fill="#636b3c" d="M104 27v2l-3-2v-1z"/><path fill="#0b0600" d="M86 46l1 1-9 3-1-2z"/><path fill="#171901" d="M118 9l5-5 1 1-5 5z"/><path fill="#3f5654" d="M100 76l8 1v2l-8-1z"/><path fill="#272c30" d="M86 76l17 1v2l-17-2z"/><path fill="#747671" d="M106 87l-1-2 25-1v1z"/><path fill="#7c4a4b" d="M114 58h2v4h-2z"/><path fill="#273300" d="M102 5h4v1h-5z"/><path fill="#000300" d="M112 67l1-3 8 2-1 3z"/><path fill="#5d8a34" d="M54 28l2-1 1 3-2 1z"/><path fill="#426425" d="M80 64h-1l-1-8h1z"/><path fill="#c6cace" d="M155 52l8-4 9 24-9 3z"/><path fill="#716446" d="M72 53V42h1l1 11z"/><path fill="#5b8f8b" d="M46 44l2-1 1 3h-1z"/><path fill="#e2e3e8" d="M290 116l-11-24 2-1 10 25z"/><path fill="#75ab75" d="M91 7l8 2-1 1-7-2z"/><path fill="#dbdedf" d="M181 79h-13v-9l12-1z"/><path fill="#2c1c14" d="M100-3h2l-3 8-2-1z"/><path fill="#d9dbde" d="M177 86l-9 35-9-2 9-35z"/><path fill="#560b24" d="M95 19v2l-14 2v-1z"/><path fill="#774a49" d="M81-9L66 12l-1-1 14-21z"/><path fill="#dee0e2" d="M217 149v5l-30-2 1-4z"/><path fill="#e597a3" d="M98 42v2h-4v-2z"/><path fill="#f8f8fd" d="M241 142l-20 3-4-20 20-3z"/><path fill="#201000" d="M81 10l12 1v2l-12-1z"/><path fill="#3d281d" d="M127 27l-1-1 8-5 1 2z"/><path fill="#f1f7f4" d="M27 3l1-1 18 3v1z"/><path fill="#95c3b9" d="M84 81h11v2H84z"/><path fill="#d7d9dc" d="M395 149l-89 5v-2l89-4z"/><path fill="#e2e4e5" d="M195 16h100v1H195z"/><path fill="#404319" d="M110 0l-2 3-1-1 2-3z"/><path fill="#e6e6ec" d="M68 135l31-1v8l-31 1z"/><path fill="#e7e8e9" d="M186 77l-14-44 6-2 14 44z"/><path fill="#c8c9cb" d="M165 17l53 1v1l-53-1z"/><path fill="#bfc1c2" d="M434 80v4h-69v-4z"/><path fill="#917279" d="M121 30h-3v-2h3z"/><path fill="#adbda1" d="M147 40h-2v-3h2z"/><path fill="#35050a" d="M104 46l5-4 4 4-4 5z"/><path fill="#9e8260" d="M97 17v-1h5v1z"/><path fill="#edeff0" d="M231 57l-2-11 57-11 2 11z"/><path fill="#4f7438" d="M93 68l-1 1-5-4 1-1z"/><path fill="#f1f3f4" d="M166 23v-1h116v2z"/><path fill="#2f561a" d="M65 32l-5-6 1-1 5 6z"/><path fill="#2e1200" d="M103 10l1-2 7 6-1 1z"/><path fill="#0e1815" d="M138 19l1-3 3 1-1 3z"/><path fill="#5d0b1e" d="M80 16l-1 1-13-3v-2z"/><path fill="#716335" d="M92 1l3 1-1 2-3-1z"/><path fill="#eaf8f4" d="M82 83l6-1v2l-6 1z"/><path fill="#d4d6d8" d="M293 53l-4-3 7-8 4 3z"/><path fill="#0d1100" d="M53 38l3-4 2 1-3 4z"/><path fill="#e0e2e2" d="M101 159l34 2v6l-34-1z"/><path fill="#c1c2c6" d="M29 147v-2h156v2z"/><path fill="#6f7169" d="M124 75l3 4-12 10-3-4z"/><path fill="#8ca48e" d="M49 6L42-4l1-1 8 10z"/><path fill="#f1f4f7" d="M243 148v49h-25v-48z"/><path fill="#797b75" d="M121 83l19-3v2l-19 2z"/><path fill="#2a3118" d="M132 35l-2-5h2l2 4z"/><path fill="#b8b9ba" d="M218 145h-53v-1h53z"/><path fill="#c9cdd0" d="M119 125l-29-12 2-5 29 12z"/><path fill="#3a4420" d="M118 10V8l3-1v2z"/><path fill="#240102" d="M122 43h-1l5-10 2 1z"/><path fill="#e3e5e7" d="M54 126L44 93l16-5 11 33z"/><path fill="#a1887c" d="M85 52l1-1 3 2-1 1z"/><path fill="#73665d" d="M140 8h-1V3h2z"/><path fill="#190000" d="M92 39l-6 11h-1l6-11z"/><path fill="#380600" d="M74 42l1-1 3 6-1 1z"/><path fill="#796850" d="M92 27l-1-1 3-1 1 1z"/><path fill="#e2e3e7" d="M368 144l-2-22 18-1 1 21z"/><path fill="#8a1647" d="M98 49l-4-1 1-1h3z"/><path fill="#5b7140" d="M59 38l8-7 1 1-8 7z"/><path fill="#c6c6cc" d="M141 195l4 1v2l-4-2z"/><path fill="#717872" d="M96 94v-1l25-1v1z"/><path fill="#e3e5e6" d="M217 174l1 26-71 3-1-27z"/><path fill="#e0a9b2" d="M131 7h-1V4h1z"/><path fill="#452018" d="M48 45h2v6h-1z"/><path fill="#7c191d" d="M70 20l-9 7-1-1 9-8z"/><path fill="#b9babe" d="M104 145v-10h3v9z"/><path fill="#bf9fa7" d="M107 57l1-2 2 2-1 2z"/><path fill="#182200" d="M102 21l10-4v1l-10 5z"/><path fill="#5a5f24" d="M106 19l1-6 2 1-2 6z"/><path fill="#ccdedc" d="M141 56l-8 9h-1l8-10z"/><path fill="#3e8181" d="M45 38l4 2-2 4-4-1z"/><path fill="#f0f3f5" d="M274 160v2l-84-5v-1z"/><path fill="#b6b8bc" d="M151 97l-9 1-1-12 9-1z"/><path fill="#e3e4e7" d="M27 233l-61-47 21-27 61 47z"/><path fill="#5b8380" d="M67 75L55 62l1-1 12 13z"/><path fill="#c2a8b1" d="M74 4l2 1-2 2-1-1z"/><path fill="#d9d8de" d="M261 117l3-3 2 2-3 3z"/><path fill="#6c574f" d="M116 21h3l1 6-3 1z"/><path fill="#323015" d="M86 51l-7 4-1-1 7-4z"/><path fill="#9ca7aa" d="M156 19h-11v-2h11z"/><path fill="#e2e2e5" d="M178 48l-21-21 4-5 21 22z"/><path fill="#e4e6e9" d="M207 144l-94-3v-2l94 3z"/><path fill="#eff1f1" d="M190 17l-30-2 2-31 30 2z"/><path fill="#460f00" d="M71 49h-3v-3h3z"/><path fill="#bcc0c3" d="M158 79l-1 1-4-11h1z"/><path fill="#6b1a24" d="M79-1l7 6-1 1-7-6z"/><path fill="#3a5b23" d="M91 66h-9v-2h9z"/><path fill="#cfd0d2" d="M10 80l31 3v1l-31-3z"/><path fill="#ca8995" d="M66 27l-4-3 2-2 4 3z"/><path fill="#000409" d="M133 29l5 1-1 5-5-1z"/><path fill="#512327" d="M50 54v-2l8 2-1 2z"/><path fill="#77704e" d="M70 71l5-1v1l-4 2z"/><path fill="#624027" d="M51 25l2 1-3 4-1-1z"/><path fill="#4e242a" d="M122 62l1-1 3 4-1 1z"/><path fill="#6a6a5f" d="M116 84l19-15 1 1-20 16z"/><path fill="#9dc0c0" d="M42 20v-7h2v7z"/><path fill="#949796" d="M126 98l-1-1 19-21 1 1z"/><path fill="#852337" d="M67 23l-8 1v-2h8z"/><path fill="#c9cbcc" d="M271 18l-75 1v-1l75-1z"/><path fill="#e3e4e7" d="M166 114l7-3 12 23-7 4z"/><path fill="#70653c" d="M64 37l5 4-1 1-5-3z"/><path fill="#430000" d="M91 30l-5 1v-7h4z"/><path fill="#ecf1f4" d="M309 164l2 6-37 17-2-6z"/><path fill="#324a29" d="M99 63l-1 2-4-2v-1z"/><path fill="#14291b" d="M88 76l-15 2v-2l15-2z"/><path fill="#93a18f" d="M142 49l4-3 1 1-4 3z"/><path fill="#2f0004" d="M122 20h-2l-12-38 2-1z"/><path fill="#490d11" d="M75 61l-1 2-7-4 1-2z"/><path fill="#050400" d="M118 20l-3 1v-5l3-1z"/><path fill="#8e0d30" d="M108 51l5 1-1 1h-4z"/><path fill="#c29db8" d="M130 39l-1 5h-1v-5z"/><path fill="#def1ef" d="M46 63l-2 1-13-29h1z"/><path fill="#501425" d="M122 37l-1-1 2-6 2 1z"/><path fill="#43000b" d="M119-2l8 1-1 4h-7z"/><path fill="#d2d3d8" d="M116 150l-1 1-13-2v-2z"/><path fill="#969795" d="M99 10l-1 1h-4V9z"/><path fill="#371a17" d="M101 69l1 7-1 1-2-8z"/><path fill="#cccdd3" d="M278 190l23-14 1 2-23 13z"/><path fill="#92b7ad" d="M97 82v-2l4-1 1 2z"/><path fill="#665b49" d="M69 75l1-1 3 3v1z"/><path fill="#140000" d="M95 72l1-1 4 5-1 1z"/><path fill="#2b1c14" d="M73-7l2 1-9 15-2-1z"/><path fill="#200f03" d="M109-6l17 26-2 1-17-27z"/><path fill="#e8eaea" d="M195 95h61v15h-61z"/><path fill="#e1e3e4" d="M312 173l3-24 31 5-3 23z"/><path fill="#2f2027" d="M57 13l9-4v1l-8 4z"/><path fill="#929758" d="M51 27l2-1 1 5h-2z"/><path fill="#5c453b" d="M94 54l4-1v1l-4 1z"/><path fill="#493d30" d="M82 46h1l-1 3h-1z"/><path fill="#bba8ae" d="M121 31h-3v-1h3z"/><path fill="#7d3c4b" d="M60 21l2-1 1 5h-1z"/><path fill="#531e2c" d="M120 34v-3l2-1v4z"/><path fill="#000c02" d="M78 74l11-1v2H78z"/><path fill="#ceb5b4" d="M109 58h-2l1-5h2z"/><path fill="#982138" d="M127 44l-1-5h2v5z"/><path fill="#441b02" d="M61 43v-2l8 2-1 2z"/><path fill="#7cadaa" d="M144 39h-1l-1-11h1z"/><path fill="#9cbec3" d="M39 39l1-14h1l-1 14z"/><path fill="#979370" d="M87 4l8-1v1l-7 1z"/><path fill="#e6e8e9" d="M281 34l-66 4v-2l65-3z"/><path fill="#ebecf1" d="M34 154l84 5v1l-84-4z"/><path fill="#830007" d="M98 48v2h-4v-1z"/><path fill="#7c1326" d="M128 2l1 1-2 3-1-1z"/><path fill="#9d9f9b" d="M82 94l2-7 10 2-1 7z"/><path fill="#894760" d="M121 59l2-4h1l-1 5z"/><path fill="#3c4b59" d="M57 6l1-1 2 6-1 1z"/><path fill="#4b000f" d="M76 30l1 4h-2v-4z"/><path fill="#4e0d19" d="M114-14l3 30h-1l-3-30z"/><path fill="#dee0e0" d="M70 132l-5-29 11-2 5 29z"/><path fill="#e6e8e8" d="M76 165l131-2v20l-131 3z"/><path fill="#637b42" d="M79 61l-2 1-1-3 1-1z"/><path fill="#d1d1d8" d="M366 151h1l-3 9-2-1z"/><path fill="#c5cacd" d="M137 105v-1l25 5-1 1z"/><path fill="#410906" d="M69 29l1-1 4 5h-1z"/><path fill="#858980" d="M147 61l-1 1-7-6 1-1z"/><path fill="#d6d7dd" d="M52 110l-2-4 6-2 2 4z"/><path fill="#e6e8e9" d="M425 161v2l-114-4v-2z"/><path fill="#dee0e2" d="M283 211l-8-21 25-9 8 21z"/><path fill="#22422e" d="M55-4l5 9-1 1-5-10z"/><path fill="#dddfe0" d="M190 86l18-3 1 2-19 2z"/><path fill="#84252d" d="M104 48l-1 1-2-2 1-1z"/><path fill="#716555" d="M73 36h-4v-2h5z"/><path fill="#b4b3b8" d="M81 98l1-1 29 9v2z"/><path fill="#6d3338" d="M114 66h-1l-1-8h2z"/><path fill="#75ac99" d="M68 79l12-1 1 1-13 1z"/><path fill="#120d11" d="M116 73l-4 2-1-3 4-2z"/><path fill="#947052" d="M107 29l3-1v1l-3 1z"/><path fill="#d98c9e" d="M65 26v-2l2-1 1 1z"/><path fill="#456362" d="M122 68l4-1 1 1-5 1z"/><path fill="#31391e" d="M77 71l-1 6h-2l2-6z"/><path fill="#6e3f46" d="M74 30l-1-1 5-1v1z"/><path fill="#8d614f" d="M59 42l-2-1 1-3 2 1z"/><path fill="#b1b7bb" d="M71 84v1l-15-5v-1z"/><path fill="#1b1f05" d="M113 23l-1-2 4-2 1 2z"/><path fill="#84a9ac" d="M42 24v3h-2l1-3z"/><path fill="#d4d5d8" d="M8 19l-14 1v-3l14-1z"/><path fill="#050000" d="M98 15l-1-2 3-1 1 1z"/><path fill="#b7a46a" d="M106 28l1-1 1 3-1 1z"/><path fill="#c3b7ce" d="M79 33l1-3 2 1-1 3z"/><path fill="#462a17" d="M105 29v-1l4-2v1z"/><path fill="#851b37" d="M108 60v-2l8-1v2z"/><path fill="#dddfe0" d="M416 132l-106-8v-1l106 7z"/><path fill="#a0a0a1" d="M136 96l-4-6 5-4 4 7z"/><path fill="#d4d7da" d="M102 136l-1-11 46-3v11z"/><path fill="#223a06" d="M59 36l-5-4 1-1 5 4z"/><path fill="#53030e" d="M131 20l-1-5 6-2 1 5z"/><path fill="#396e64" d="M120 73l-1 1-3-1 1-2z"/><path fill="#334b2d" d="M137 49l1 1-2 2-1-1z"/><path fill="#8d637a" d="M65 17l-2-4 2-1 1 5z"/><path fill="#dee1e1" d="M309 165v-1l146-6v2z"/><path fill="#73162b" d="M65 16l1 7h-1l-1-7z"/><path fill="#dfe1e2" d="M295 100v-1l120-7v2z"/><path fill="#f7f6fb" d="M282 104l-37 23-1-1 37-23z"/><path fill="#2a0600" d="M79 53l1 1-4 4-1-1z"/><path fill="#57221e" d="M98 17l2 1-3 4-1-1z"/><path fill="#280000" d="M80 5l4 2v2l-4-2z"/><path fill="#c5c6cb" d="M264 200l-26 1v-2l26-1z"/><path fill="#3a270a" d="M58 37l4 1v1h-4z"/><path fill="#dee0e2" d="M268 81v-2l44-2v2z"/><path fill="#4a3f49" d="M64 2l-1-1 3-2 1 2z"/><path fill="#4a1118" d="M79 41l-2 1-4-7 1-1z"/><path fill="#0e0c0d" d="M57 59l2-2 1 1-2 2z"/><path fill="#43655b" d="M67 71l-5-4 1-2 5 4z"/><path fill="#200c04" d="M75 67l13-11 1 1-13 11z"/><path fill="#2e5825" d="M65 33l-3 1-1-6 3-1z"/><path fill="#ebedee" d="M267 13l-2-4 42-21 2 5z"/><path fill="#dddde3" d="M-20 155v-1l86-1v1z"/><path fill="#306567" d="M88 78h10v1l-10 1z"/><path fill="#3d0013" d="M121 33l1 1-4 6-1-1z"/><path fill="#b6b8ba" d="M45 145l-7 4v-2l7-3z"/><path fill="#eef0f0" d="M196 56l-13-1 1-25 13 1z"/><path fill="#98bcb1" d="M127 72v1l-6-2 1-2z"/><path fill="#c4f0ec" d="M39 20v11h-2l1-11z"/><path fill="#d7d8d6" d="M72 99l-8-4 6-11 8 4z"/><path fill="#471321" d="M85 61l-1-1 4-4 1 1z"/><path fill="#cbcbd0" d="M174 138l-3 1-3-7 3-1z"/><path fill="#393c13" d="M70 35l-3 1-1-1 3-1z"/><path fill="#e2e1e7" d="M29 18l-10-2v-4l11 1z"/><path fill="#000301" d="M120 52h-4V41h4z"/><path fill="#392923" d="M49 18l7 1-1 2-6-1z"/><path fill="#620b19" d="M132 40h5l1 9-5 1z"/><path fill="#402e2e" d="M94 38v4h-2v-4z"/><path fill="#dbdddd" d="M199 59l6-5 1 1-6 5z"/><path fill="#eaeced" d="M182 121l26 5-1 7-26-4z"/><path fill="#3c722d" d="M95 64v2l-8-1v-1z"/><path fill="#aca893" d="M105 3l-1-3 2-1 1 3z"/><path fill="#280303" d="M83 13l-6 14-2-1 6-14z"/><path fill="#dee0e1" d="M223 113l-38 2v-2l38-1z"/><path fill="#000d00" d="M91 30l3 1-2 3-3-1z"/><path fill="#2a1825" d="M55 19l-1-1 8-8 1 2z"/><path fill="#574866" d="M57 16l-2 2-1-1 2-2z"/><path fill="#590a19" d="M76 56l-12 3-1-1 12-3z"/><path fill="#9da9a0" d="M91 84h7v2h-7z"/><path fill="#421b24" d="M126 67l-5-2 1-5 6 2z"/><path fill="#805b61" d="M68 5l1-3 2 1-1 3z"/><path fill="#54482f" d="M130 21l-1 6h-2l2-6z"/><path fill="#eff1f2" d="M250-5v21h-70V-5z"/><path fill="#b7d0d3" d="M42 49l2 3-3 1-2-3z"/><path fill="#25080d" d="M124 52l5 6-2 1-4-6z"/><path fill="#d0d3d6" d="M175 77h-2l-15-43h2z"/><path fill="#e7e7ec" d="M190 91l-3 4-7-7 3-3z"/><path fill="#bbbdc0" d="M365 148l-2-6 2-1 2 6z"/><path fill="#88b89d" d="M65 74h2v3l-1 1z"/><path fill="#120e00" d="M99 3h4v2h-5z"/><path fill="#534228" d="M112 18l-4-2 1-1 4 2z"/><path fill="#d4efee" d="M48 5l-7 15-3-2 7-14z"/><path fill="#3a1300" d="M70 47v4h-1v-4z"/><path fill="#6d0722" d="M80 36l-1 1-4-2 1-2z"/><path fill="#202f07" d="M88 10l-8-1V8h8z"/><path fill="#500c1b" d="M90 40l-4 1-2-14 3-1z"/><path fill="#65313e" d="M70 65l1-2 4 2v1z"/><path fill="#243838" d="M46 32l6 7-3 2-5-7z"/><path fill="#416444" d="M139 49v-3h1l1 3z"/><path fill="#dadcde" d="M360 105l-71 6-1-2 72-6z"/><path fill="#eff2f7" d="M226 163l26-1 2 36-26 1z"/><path fill="#bdbfc2" d="M171 85l-1-2 20-4 1 2z"/><path fill="#7f0521" d="M129 7l2 6h-2l-2-5z"/><path fill="#e6e8e9" d="M256 63l33-19 4 7-33 19z"/><path fill="#9f4456" d="M110 53v1l-3 1v-1z"/><path fill="#77776a" d="M139 64l1 1-5 16h-2z"/><path fill="#4f4335" d="M129 26l-2 6h-1l1-6z"/><path fill="#040000" d="M115 71l-1-1 7-5 1 1z"/><path fill="#65463c" d="M133 32l-1 3h-1l1-3z"/><path fill="#e9e9ef" d="M43 154v-2l59-4v2z"/><path fill="#40262c" d="M99-1l1 1-4 3-1-2z"/><path fill="#ebedf3" d="M291 166l18-7 4 11-17 7z"/><path fill="#e5f6f2" d="M73 80l-3 2-1-1 3-2z"/><path fill="#bfe7e3" d="M113 78v2h-5v-2z"/><path fill="#917956" d="M49 32l-1-1 4-5 1 1z"/><path fill="#625e3c" d="M77 62l-1-1 8-8 1 1z"/><path fill="#dee0e1" d="M170 20l28 1v1h-29z"/><path fill="#2e0101" d="M131 16l4 5-2 2-4-5z"/><path fill="#062c2c" d="M138 36h-1l-2-4 2-1z"/><path fill="#6f122b" d="M96 46l-1 1-5-4 1-1z"/><path fill="#dfe0e6" d="M106 153v-5l58 1v5z"/><path fill="#6c4d49" d="M102 70l-1-4h2l1 4z"/><path fill="#3d0403" d="M97 32l2 2v1l-3-1z"/><path fill="#eef0f1" d="M198 97l-1-8 38-3v8z"/><path fill="#d6d6dc" d="M312 148l1 1-7 8-2-1z"/><path fill="#6d7480" d="M143 16l1 1-1 3-1-1z"/><path fill="#b8bbbc" d="M405 81v2h-46v-2z"/><path fill="#2b0013" d="M98 19l4 3-1 1-4-3z"/><path fill="#88b0ae" d="M66 72l-1 2-4-1v-2z"/><path fill="#4a210c" d="M54 27v-2h6v1z"/><path fill="#270a08" d="M63 57l11 11-1 1-11-10z"/><path fill="#41090a" d="M64 16v2l-5-1v-2z"/><path fill="#e1e3e4" d="M182 204v-20l35 1-1 20z"/><path fill="#dddfe0" d="M293 228l-13-34 69-26 13 33z"/><path fill="#606b65" d="M109 76v2h-3l-1-1z"/><path fill="#563d37" d="M117 29l-2-2 1-1 2 2z"/><path fill="#5a6164" d="M140 14l1-8h2l-1 8z"/><path fill="#d3d7da" d="M115 134l-2-4 61-28 2 4z"/><path fill="#14373c" d="M141 13l2 1-1 3-2-1z"/><path fill="#5e303c" d="M121 59h-2v-3l1-1z"/><path fill="#e8eaeb" d="M341 31l1-10 71 3v9z"/><path fill="#dddfe3" d="M36 21v1l-55-1v-1z"/><path fill="#80817f" d="M115 94l24-16 1 1-25 16z"/><path fill="#dcdee0" d="M169 41l14 30-4 2-14-30z"/><path fill="#774050" d="M55 48l3-2 1 1-3 2z"/><path fill="#220300" d="M100 39v-2l8 1v1z"/><path fill="#786344" d="M70 32v1l-4-1v-1z"/><path fill="#dedde2" d="M85 128l18 8-2 6-19-8z"/><path fill="#bcbdbf" d="M144 191h1v4h-1z"/><path fill="#b4b7ba" d="M28 17v1l-11 1v-1z"/><path fill="#c76b86" d="M69 24h2l-1 3h-1z"/><path fill="#e7e9ea" d="M213 32h6l1 31h-6z"/><path fill="#56111f" d="M80 10l1 1-3 5-2-1z"/><path fill="#72232a" d="M130 3h-2v-4l2-1z"/><path fill="#eeeef3" d="M219 175h-2v-52h2z"/><path fill="#4a2128" d="M101 77l-1-2 7-3 1 1z"/><path fill="#070700" d="M72 40l-3-3 1-1 3 3z"/><path fill="#2f0504" d="M130 53l-11-1v-3h11z"/><path fill="#6a6d61" d="M135 77l-1 1-5-10 1-1z"/><path fill="#504538" d="M88 73l3-2 1 2-3 1z"/><path fill="#6c6656" d="M101 34v2H91v-1z"/><path fill="#eeeff3" d="M52 94l-30 3-1-8 30-3z"/><path fill="#f0f2f3" d="M223 31v-8h83v8z"/><path fill="#e7e8ed" d="M324 68l-2 2-23-21 2-2z"/><path fill="#e0e1e6" d="M163 125l3 14-12 3-3-14z"/><path fill="#c5c6cb" d="M319 74l-2 1-3-7 2-1z"/><path fill="#a8a9ae" d="M103 142l3 3-1 2-3-3z"/><path fill="#5b3e34" d="M71 51l4 2v1l-5-2z"/><path fill="#e5e6e8" d="M158 8l1 2-13 5v-1z"/><path fill="#381f06" d="M102 33h2l1 4-1 1z"/><path fill="#c3c5c6" d="M316 17h47v2h-47z"/><path fill="#e4e6e8" d="M58 117l-111-2v-3l111 2z"/><path fill="#3c201f" d="M71-1l1 1-3 3-2-1z"/><path fill="#4e7c73" d="M45 37h-3v-3h3z"/><path fill="#61141e" d="M87 7L70-4l1-1L88 5z"/><path fill="#ba7983" d="M69 50l-1 5h-1l1-5z"/><path fill="#638b91" d="M46 13h-1l1-3h1z"/><path fill="#4a241c" d="M101 54l-10-2v-1l11 1z"/><path fill="#dee1e4" d="M262 171l2-1 7 58h-2z"/><path fill="#c9ddde" d="M57 75L40 55l1-1 18 20z"/><path fill="#989b9d" d="M153 80l1 1-18 6-1-1z"/><path fill="#bbbec2" d="M158 44l3 23h-5l-2-23z"/><path fill="#cdcfd1" d="M298 84v-2l39 1v2z"/><path fill="#babab8" d="M84 101h-2l2-13h1z"/><path fill="#1a0f00" d="M129 31l1-8 2 1-1 7z"/><path fill="#6c7353" d="M85 10l-1 1-4-1V9z"/><path fill="#62191d" d="M68 52l-2-4 2-1 2 4z"/><path fill="#785462" d="M109 7l1 3h-1l-2-2z"/><path fill="#dbddde" d="M384 117l-7-9 38-30 7 9z"/><path fill="#e7e9e9" d="M34 161l61-1v9l-60 1z"/><path fill="#663429" d="M71 67l-2 3-1-1 2-3z"/><path fill="#f0f3f3" d="M27-15l12-1 2 33-13 1z"/><path fill="#ced0d4" d="M118 143v1l-13-1 1-1z"/><path fill="#d7d9da" d="M353 144h-51v-2h51z"/><path fill="#26410e" d="M61-1l3 1-2 3-2-1z"/><path fill="#645936" d="M92 50v2h-4v-2z"/><path fill="#223a07" d="M54 29l4 5-1 1-4-5z"/><path fill="#b1c2bd" d="M98 83h5v1h-4z"/><path fill="#b77d81" d="M107 55l1 1-1 3-1-1z"/><path fill="#bec0c3" d="M131 111l-1 3-34-4v-3z"/><path fill="#493b06" d="M60 28l3 1v1l-3-1z"/><path fill="#4a191c" d="M127 35l-6-1v-2l6 1z"/><path fill="#ceeaeb" d="M142 45l1-4h2l-2 4z"/><path fill="#c2c2c7" d="M104 149l-16-4 1-1 15 3z"/><path fill="#eaecef" d="M16 15v2L2 18v-2z"/><path fill="#467d7c" d="M44 36l3 7-2 1-3-7z"/><path fill="#d5d8d4" d="M142-6l1 14h-2l-1-14z"/><path fill="#d1d2d5" d="M288 7l2-4 2 1-2 4z"/><path fill="#e8e8ec" d="M42 129l28 2-1 11-28-3z"/><path fill="#e4e6e7" d="M199 160l4 12-82 22-3-12z"/><path fill="#ebedf0" d="M306 15l-44 1V8l43-1z"/><path fill="#5c7b34" d="M58 3v-4l1-1 1 5z"/><path fill="#618b86" d="M104 79v1l-3-1v-1z"/><path fill="#3b3634" d="M48 52l2-1 3 5-1 1z"/><path fill="#566733" d="M98 27h-4v-2h4z"/><path fill="#6d0213" d="M131 12l6 1-1 2-6-2z"/><path fill="#7c091f" d="M52 23l1-1 3 3-1 1z"/><path fill="#d2d4d7" d="M-34 19l73-1v2l-73 1z"/><path fill="#e8eaec" d="M353 15l-39 3-2-31 39-3z"/><path fill="#f4f6f7" d="M213 33h-28v-8h28z"/><path fill="#453028" d="M114 21l11-1v1l-11 1z"/><path fill="#641c1f" d="M56 42v-1l6-1v2z"/><path fill="#3c0002" d="M123 8l2-14h3l-1 14z"/><path fill="#96ac7a" d="M98 27v1h-3l-1-1z"/><path fill="#5b0100" d="M130 17l-6-3 1-1 5 3z"/><path fill="#132000" d="M92 68l8-2v2l-8 2z"/><path fill="#5e8144" d="M92 5l12 3-1 2-12-4z"/><path fill="#e9efef" d="M166 12L130-6l2-4 37 18z"/><path fill="#451f1b" d="M106 67h-3l-1-4 3-1z"/><path fill="#e4e6e7" d="M411-10l-12 27-12-5 13-27z"/><path fill="#1c3f3a" d="M123 70h-4v-1h4z"/><path fill="#cfd1d2" d="M390 144v-2h19v2z"/><path fill="#99b5af" d="M78 81l4-2 1 1-4 2z"/><path fill="#330c0b" d="M74 32h-1l-2-3h2z"/><path fill="#b7b8ba" d="M217 146v2l-20-2v-2z"/><path fill="#817461" d="M131 54l-4 1-1-1 5-1z"/><path fill="#131c1c" d="M122 64l3 4-1 1-4-4z"/><path fill="#ededf3" d="M32 33v16l-60-2 1-16z"/><path fill="#533a30" d="M44 29l7-1 1 1-8 1z"/><path fill="#325651" d="M89 77v1H78v-1z"/><path fill="#543949" d="M92 15v3h-1v-3z"/><path fill="#68102a" d="M85 14l2 4-2 1-2-4z"/><path fill="#530000" d="M103 59l-1-1 3-6 1 1z"/><path fill="#683131" d="M139 15h-2l1-3h1z"/><path fill="#dadee1" d="M141 133v9l-30-1v-9z"/><path fill="#300300" d="M59 46l1-3h7v3z"/><path fill="#320600" d="M84 15l-4-2 1-2 3 3z"/><path fill="#73614f" d="M122 9V6l1-1 1 3z"/><path fill="#a0a5a0" d="M143 43h2l7 22h-1z"/><path fill="#b2b3b7" d="M114 101v5l-17 1v-5z"/><path fill="#210303" d="M93 62l-1-1 7-6 1 2z"/><path fill="#360b11" d="M108 67l1-2 6 4v2z"/><path fill="#e3e5e6" d="M355 114l-39 16-4-8 39-16z"/><path fill="#0e0000" d="M123 16l1 2-8 2v-2z"/><path fill="#5a0001" d="M56 24h-2l1-3h2z"/><path fill="#000400" d="M110 37l11 10-1 2-12-11z"/><path fill="#8e0424" d="M107 56v5h-3v-5z"/><path fill="#aab0b2" d="M161 18l-14 4v-1l13-4z"/><path fill="#c2ddd5" d="M125 67h1l1 5h-2z"/><path fill="#324911" d="M78 60l1-1 1 8h-1z"/><path fill="#4a4c2b" d="M91 9v1l-8 1v-1z"/><path fill="#dbddde" d="M301 187l50 1v20l-50-1z"/><path fill="#28140c" d="M63 12l3-2 1 2-3 1z"/><path fill="#5c8447" d="M93 66l-12 5v-1l11-5z"/><path fill="#d1eae3" d="M107 80h3v1h-3z"/><path fill="#173831" d="M86 75v2l-11-1v-1z"/><path fill="#652d2c" d="M125 9v8h-2l1-8z"/><path fill="#0c1e0d" d="M130 57v-1l4-2v1z"/><path fill="#b6b9b3" d="M90 85v1H77v-2z"/><path fill="#a77a7e" d="M118 22h3v1l-3 1z"/><path fill="#820015" d="M108 65l-1-2 8-7 1 1z"/><path fill="#6b1932" d="M79 42l1-5 2 1-1 4z"/><path fill="#3d040c" d="M55 25l3-2 1 1-3 2z"/><path fill="#392819" d="M99 68l2 2-1 1-2-2z"/><path fill="#35060b" d="M107 15l-3-4 3-2 3 4z"/><path fill="#d5d5d9" d="M109 133l-3 4-42-41 4-3z"/><path fill="#ddede7" d="M105 81l1 1-3 1-1-1z"/><path fill="#e0e2e4" d="M332 180l-1 10-33-3 1-9z"/><path fill="#5d1a27" d="M47 22v8h-1l-1-8z"/><path fill="#4e1015" d="M137 6l2-1v3l-1 1z"/><path fill="#dddfdf" d="M309 23l-41-2v-1l41 1z"/><path fill="#e5e7e8" d="M-6 65v-7l23 1v6z"/><path fill="#4f000a" d="M76 27l-2 1-7-10 1-1z"/><path fill="#720013" d="M127 44l-1 1-2-3 2-1z"/><path fill="#b7b8b8" d="M-8 83v-2H9v2z"/><path fill="#eff2f6" d="M252 176l-9-25 53-19 9 25z"/><path fill="#3f2127" d="M123 55l1-1 4 1v2z"/><path fill="#5a0014" d="M64 51h2v3h-2z"/><path fill="#e2e4e4" d="M171 78l19 1v1l-19-1z"/><path fill="#7a0022" d="M135 10l-1-1 1-8 2 1z"/><path fill="#abafb2" d="M158 69l-9 11-2-1 9-11z"/><path fill="#c8c8cf" d="M362 200l1-3 4 1v3z"/><path fill="#604a52" d="M45 38h-2l1-14h2z"/><path fill="#cecfd3" d="M103 124l-2 2-27-26 2-2z"/><path fill="#4a4721" d="M63 21h-3v-3h3z"/><path fill="#c7c9c7" d="M78 90l5 11-3 1-5-11z"/><path fill="#6a6464" d="M49 51l-2 1v-5h1z"/><path fill="#81aca7" d="M58 70l-1 1-14-17 1-1z"/><path fill="#e4e6e7" d="M306 31l42 4v1l-42-3z"/><path fill="#c5dfd9" d="M145 37l1-4h2l-2 5z"/><path fill="#583535" d="M135 49l5-6 1 1-5 6z"/><path fill="#c0e9e2" d="M65 75v2l-3-1v-1z"/></svg>