<svg xmlns="http://www.w3.org/2000/svg" viewBox="0 0 128 64"><path fill="#d3d3d4" d="M0 0h128v64H0z"/><path d="M46-15v50L9 13z"/><path fill="#f3f7fa" d="M144 64H-15l131-79z"/><path fill="#310000" d="M13-15l9 42 28-10z"/><path fill="#fff" d="M-14 64L8-15l12 55z"/><path fill="#a2a9a9" d="M30 36l24 1-3-27z"/><path fill="#f3f5f8" d="M106 0L40-13l48 93z"/><path fill="#350000" d="M46 10l-3-25-14 40z"/><path fill="#99a19f" d="M61 25H21l8 9z"/><path fill="#e4e7eb" d="M-15-15l90 95-85-13z"/><path fill="#4e2a22" d="M19 22L15 4l46-19z"/><path fill="#f3f7fc" d="M8 26L18-5-15 8z"/><path fill="#cecfd4" d="M7 47l47-20 5 20z"/><path fill="#d8dada" d="M144 25l-11 55-52-55z"/><path fill="#370e0b" d="M44 16l-7 8-13-6z"/><path fill="#676e68" d="M43 30l-15 1 19-10z"/><path fill="#c7cdd1" d="M44 20l13-4-7-13z"/><path fill="#e9ebeb" d="M124-15L47 11l92 15z"/><path fill="#583d37" d="M17 9l3-24 23 26z"/><path fill="#fafdff" d="M72 39l-2 28 27-31z"/><path fill="#320a08" d="M27 8l13-7 5 6z"/><path fill="#003918" d="M23 22l10 2-9 1z"/><path fill="#949996" d="M46 30l9-15-32 17z"/><path fill="#fafafe" d="M21-15L52 5l32-2z"/><path fill="#6c1c2b" d="M27-2l11 23L21 7z"/><path fill="#d0d1d5" d="M48 15l31 11-23 1z"/><path fill="#83915f" d="M35 6l-9-21-9 4z"/><path fill="#d4d9d9" d="M19 31L6 25h29z"/><path fill="#ebedf2" d="M5-9l20 54H2z"/><path fill="#250609" d="M29 12L26 2l8 11z"/><path fill="#bcbebf" d="M111 49l-14-4h26z"/><path fill="#d9dbdc" d="M144 67l-76 1 59-23z"/><path fill="#dc506f" d="M42 4v-18l4 12z"/><path fill="#a45566" d="M43 11l-2 2 3 1z"/><path fill="#f1f2f4" d="M67 26L95 7H49z"/><path fill="#76c4c6" d="M19 23l1-2-5-2z"/><path fill="#031300" d="M21-13L6-11 35 2z"/><path fill="#eaedee" d="M124 27l-20 16-37-16z"/><path fill="#3d5051" d="M34-15L14 14l8-24z"/><path fill="#b04d5c" d="M34 18l5 2-8-6z"/><path fill="#5e675e" d="M46 27h-8l7-7z"/><path d="M35 15l2-5 5 6z"/><path fill="#c0c7c6" d="M56 12l-13 8 6-8z"/><path fill="#cfa7a7" d="M28 12l-2-1v-1z"/><path fill="#d8dadb" d="M107-1l18 8H79z"/><path fill="#f0f2f3" d="M144 4L50 5l41-20z"/><path fill="#7f8d82" d="M49 25l-4-1 3-10z"/><path fill="#6b5e4c" d="M43 7l-12 5 4-5z"/><path fill="#ced0d0" d="M114 27l-20-6-21 6z"/><path fill="#eaecec" d="M83 9l34 16H56z"/><path fill="#b1ab91" d="M31 9h2l2 2z"/><path fill="#68523d" d="M23 9l-3-3-4 13z"/><path fill="#220f11" d="M41 6l4 6 1-7z"/><path fill="#2b1410" d="M35 25l-3-9-9-6z"/><path fill="#cfd2d5" d="M39 36l31 11H31z"/><path fill="#e7e8ec" d="M69 45H37l49-17z"/><path fill="#270000" d="M20 15l1 2-6 1z"/><path fill="#cfd1d4" d="M12 6L0 5l-1 4z"/><path fill="#325133" d="M28 21l3 5h-2z"/><path fill="#f3f6fc" d="M100 54L90 32 77 62z"/><path fill="#460d10" d="M23 13L34-6l-6-4z"/><path fill="#130307" d="M41 20l-4 3-2-3z"/><path fill="#c5c7c8" d="M115 26l23-5-6 6z"/><path fill="#a77777" d="M25 3l6-18h-7z"/><path fill="#90a075" d="M35 3l4-18h-7z"/><path fill="#d2d6d7" d="M14 22l13 5H1z"/><path fill="#396260" d="M31-11l-7-4L14 9z"/><path fill="#6c4d44" d="M26 17L21 4l-5 2z"/><path fill="#eef8fc" d="M15 3l-30-5 42-13z"/><path fill="#acadb1" d="M39 35l7-5-17 4z"/><path fill="#ecf0f3" d="M-14 25l35-1-36-17z"/><path fill="#b8b9be" d="M-3 47l7-2 5 2z"/><path fill="#707f7d" d="M43 27l-9 3-9-3z"/><path fill="#e5e7e8" d="M108 55l24-6-29-2z"/><path fill="#596946" d="M21 23l9-2-5-1z"/><path fill="#a7a9aa" d="M122 47h18l4-6z"/><path fill="#ebebef" d="M-12 45l1-21 44 20z"/><path fill="#f6fafd" d="M12 8l1 8-22-9z"/><path fill="#d8d6dc" d="M40-15l15 35-3-24z"/><path fill="#251307" d="M33 8l3 1 5-8z"/><path fill="#e6e8e9" d="M134 6L64 23l66 2z"/><path fill="#37060d" d="M33 16l-5-4-8 2z"/><path fill="#0a1900" d="M22 2l9-15-14 4z"/><path fill="#530312" d="M11-15h18L46 6z"/><path fill="#393022" d="M34 25l2-5-14 1z"/><path fill="#dadbdf" d="M53 44l-10-8 19-11z"/><path fill="#becec7" d="M20 25h17l-11 3z"/><path fill="#540005" d="M42 15l-3 2 2-4z"/><path fill="#310003" d="M24 8l4-1-4-2z"/><path fill="#838664" d="M33 4L12-15l17 4z"/><path fill="#b9b9bd" d="M57 25l-4-5-14 13z"/><path fill="#49160c" d="M33 1l-48-5 36-11z"/><path fill="#2f0304" d="M25 21l-5-7v4z"/><path fill="#9d9f9f" d="M98 47l2-1h-3z"/><path fill="#6b845f" d="M29 21l-3 1 1 1z"/><path fill="#c8cccf" d="M97 75L86 64l-19-1z"/><path fill="#c9cdd1" d="M33 40l10-2-22-8z"/><path fill="#f0f2f5" d="M48 4l-7-14L82 5z"/><path fill="#3f302f" d="M18 20l1-8-3-3z"/><path fill="#c6c8c9" d="M133 7h-21l11-3z"/><path fill="#270000" d="M36 11l2 3-8 6z"/></svg>