<svg xmlns="http://www.w3.org/2000/svg" viewBox="0 0 400 200"><style>@keyframes a{from{opacity: 0}to{opacity: 1}}g&gt;*{opacity: 0;animation: a .5s forwards}</style><path fill="#d2d2d3" d="M0 0h400v200H0z"/><path d="M154 0Q95-3 78 77M44 25q51 72 101-13M44 51q97 51 96-52M41 44q83 58 98-38M39 34q73 69 99-30m-31 105Q148 2 44 3m2 19q108-17 75 89M42 35q84-59 103 31M69 77q87 1 64-73m7-7Q111 88 37 26m7 13q58 73 101 3m-29 53q15-99-77-65m104 67Q130-17 41 44m74 70Q149 43 46 6m94-2q-21 97-100 36m7-43q23 88 97 26m2-13Q83 97 40 22m82 78q21-87-78-90m15 63q-3-84 92-50m-18 71q22-118-89-82m2 41q76 56 100-46M61 72q10-96 86-53M129 2q-12 74-83 25m65 81q38-62-64-97m-1 16q61 67 91-21" stroke="#000" fill="none"/></svg>