<svg xmlns="http://www.w3.org/2000/svg" viewBox="0 0 400 200"><path fill="#d2d2d3" d="M0 0h400v200H0z"/><path d="M45 79l2-95 97 1-2 96z"/><path fill="#2e0000" d="M110 92L37 48l42-70 73 45z"/><path fill="#f7fbfd" d="M419 193l-248 8-7-198 248-9z"/><path fill="#fbffff" d="M15 2l68 109-46 29-68-109z"/><path fill="#798580" d="M167 78l-65 41-17-27 65-40z"/><path fill="#eff2f6" d="M295 263H-55V116h350z"/><path fill="#4e2519" d="M39 36l26-59 66 29-26 59z"/><path fill="#838a84" d="M93 91l50-35 13 18-50 34z"/><path fill="#d6d8da" d="M425 59l26 162-131 21-26-162z"/><path fill="#e4f3f5" d="M159-17l6 49-20 3-6-50z"/></svg>