<svg xmlns="http://www.w3.org/2000/svg" viewBox="0 0 400 200"><path fill="#d2d2d3" d="M0 0h400v200H0z"/><path d="M141 84l-96-4 3-87 97 3z"/><path fill="#2f0000" d="M35 51l38-72 78 41-39 72z"/><path fill="#f6fafd" d="M164 0h252v198H164z"/><path fill="#f8fdff" d="M61 251L-66 23l76-41 126 228z"/><path fill="#7c8984" d="M167 80l-67 37-15-26 67-37z"/><path fill="#f1f3f7" d="M130 235l-27-78 178-62 27 78z"/><path fill="#420000" d="M136-70l24 7-41 135-24-8z"/><path fill="#7d8982" d="M87 101l-2-21 52-4 1 20z"/><path fill="#5b352c" d="M41 36l3-23 42 5-3 23z"/><path fill="#d3d5d6" d="M313 218l-11-83 96-14 11 84z"/><path fill="#a6bab1" d="M151 44l2 2-52 52-2-2z"/><path fill="#f1f6f9" d="M66-36L21 75l-38-15L28-52z"/><path fill="#e5eaeb" d="M51 105L14 81l18-28 37 24z"/><path fill="#f2f4f4" d="M153-35l95 80-24 29-96-80z"/><path fill="#dddfe1" d="M219 124l-3 83-106-4 3-83z"/><path fill="#c6e0e0" d="M164 44l-26-6 6-21 25 6z"/><path fill="#311f05" d="M95 37l5 37-34 6-5-37z"/><path fill="#f6f9fe" d="M0 251l-44-77 46-27 44 78z"/><path fill="#c2d6d2" d="M134 67l-85 47v-1l84-47z"/><path fill="#babec0" d="M141 40l23-9 22 55-23 9z"/><path fill="#37020c" d="M121 74L94 54l18-23 26 20z"/><path fill="#b2b4b4" d="M455 86v3l-199-7v-3z"/><path fill="#75736b" d="M150 58l6 10-54 34-6-9z"/><path fill="#337572" d="M54 57l-6 2-9-27 6-2z"/><path fill="#8bcb71" d="M105 7l-3 6-14-6 2-6z"/><path fill="#acc0be" d="M114 80v2L0 84v-2z"/><path fill="#959698" d="M301 144l159 3v1l-159-3z"/><path fill="#d86a85" d="M115 61l-9-2 2-6 9 2z"/><path fill="#b9d97f" d="M109 31H96v-4h13z"/><path fill="#bfc1c8" d="M177 112l-104 7-2-20 105-7z"/><path fill="#a2a2a7" d="M85 143v2l-84 4v-2z"/><path fill="#f7faff" d="M215 135l67-31 26 57-66 31z"/><path fill="#b0b2b2" d="M473 23l-264-5v-2l264 5z"/><path fill="#9b9c9f" d="M128 147l89-3v1l-89 3z"/><path fill="#1a0000" d="M128 52l-3 4-58-41 3-4z"/><path fill="#c6d8d4" d="M157 40l-37 38-1-1 37-38z"/><path fill="#b4b6b8" d="M328 83l-189 3v-1l189-4z"/><path fill="#9a9f9c" d="M149 95l-11-1 5-53 11 1z"/><path fill="#ff9ec3" d="M134 4l-1 6h-3l1-6z"/><path fill="#f7d7fc" d="M81 34l-2-6 1-1 2 6z"/><path fill="#756750" d="M123 31l-21 6-2-7 21-6z"/><path fill="#a0a7aa" d="M207 19l-65 3v-1l65-4z"/><path fill="#c9d2d0" d="M92 112l-12 8-27-43 12-7z"/><path fill="#380e05" d="M142 7l2 6-56 19-2-6z"/><path fill="#4b0004" d="M98-18L76 35l-7-3 22-53z"/><path fill="#3d605d" d="M66-4L48 28l-7-3L60-8z"/><path fill="#31060a" d="M51 63l-2-12 17-3 2 12z"/><path fill="#eff1f1" d="M281 82l-99-9 10-118 100 8z"/><path fill="#320007" d="M133 14l6-1 2 38h-6z"/><path fill="#909091" d="M135 108L80 93l3-9 54 15z"/><path fill="#a6c881" d="M109 7l-6-2 2-4 6 2z"/><path fill="#d48dab" d="M77-10h2l-5 22-1-1z"/><path fill="#519e47" d="M92 68l-12 7-2-4 12-7z"/><path fill="#a9b4b7" d="M44 20v1l-61-2v-1z"/><path fill="#e45b89" d="M92 48l1-6 8 2-2 6z"/><path fill="#9c2e48" d="M126 47l1-9 14 1-1 9z"/><path fill="#110307" d="M91 79l-1-6 26-4 2 6z"/><path fill="#dfdbfa" d="M84 28l-2 8h-2l2-8z"/><path fill="#559f96" d="M66 76L42 54l3-4 24 23z"/><path fill="#e2e9ea" d="M32 31l45 82-7 4-45-82z"/><path fill="#f9cbe0" d="M90 18l-4-5 1-1 4 5z"/><path fill="#5e4e37" d="M61-3l20 74-6 2L55-1z"/><path fill="#d1eee9" d="M65 85l37-4v1l-37 4z"/><path fill="#70716b" d="M97 86l32-3 1 11-33 3z"/><path fill="#3a1d1d" d="M128 44l11 8-15 19-11-9z"/><path fill="#aeb0b0" d="M406 83v2l-64-4v-1z"/><path d="M105 37l10-5 6 10-9 6z"/><path fill="#d3d4da" d="M78 111l35-3 4 42-34 3z"/><path fill="#dfe0e3" d="M124-27l9-5 57 108-9 5z"/><path fill="#191203" d="M113 30l-4-3 20-36 4 2z"/><path fill="#370003" d="M98 49l-2 5-27-14 3-4z"/><path fill="#dee0e0" d="M300 142l-7-35 180-38 8 35z"/><path fill="#b5da94" d="M103 32l-1 1-9-7 1-1z"/><path fill="#d2b8b0" d="M114 26l8-5v2l-8 4z"/><path fill="#080000" d="M100 63l-17 1v-6l17-2z"/><path fill="#b7bbc1" d="M125 119l-8-9 44-40 8 9z"/><path fill="#8d0b28" d="M132-15l9 27-15 5-9-27z"/><path fill="#b73e63" d="M52 20l20 7-1 1-19-7z"/><path fill="#79202e" d="M121 54l3 5-19 11-3-6z"/><path fill="#dcdee3" d="M172 83l26 24-35 36-25-23z"/><path fill="#8f4e4a" d="M56 28l-5 6-8-7 5-6z"/><path fill="#c8cacc" d="M302 16v7H147v-7z"/><path fill="#313200" d="M58 42l-8-3 7-16 7 2z"/><path fill="#e8eaeb" d="M71 149l112 7-2 38-113-8z"/><path fill="#052a18" d="M76 70h15v8H77z"/><path fill="#b1b3b4" d="M259 81l-88 1v-1l88-2z"/><path fill="#aaacb1" d="M82 145l47 1v2l-47-2z"/><path fill="#3d0907" d="M128 42l-1 1-75-62 1-1z"/><path fill="#c493b2" d="M130 38l3 1-2 6-3-1z"/><path fill="#dadcde" d="M277 231l-16-35 61-29 16 36z"/><path fill="#b87e86" d="M55 46l3-7 1 1-3 7z"/><path fill="#3d8174" d="M145 41l-6 1-1-19 6-1z"/><path fill="#c8ebe3" d="M150-3l-6 48h-2l6-48z"/><path fill="#722c32" d="M103 47v6l-38 5-1-6z"/><path fill="#f3fbf9" d="M5 1l9-18L50 1l-9 18z"/><path fill="#240404" d="M90 28l5 3-11 24-6-3z"/><path fill="#ceabc6" d="M120 32l-1 1-3-4 1-1z"/><path fill="#e5d1d2" d="M108 60l-2-1 3-5 2 1z"/><path fill="#482012" d="M74-6l32 12v1L73-4z"/><path fill="#f3f5f5" d="M235 33v-9l153-3v10z"/><path fill="#100605" d="M130 29l1-14 9 1-1 14z"/><path fill="#90938b" d="M132 108h-1l20-74h1z"/><path fill="#c6d278" d="M103 13l3 2-1 1-3-2z"/><path fill="#584a32" d="M113-37l2-1 17 77h-1z"/><path fill="#b2adb1" d="M69 84l-31-3v-1l32 3z"/><path fill="#010d0b" d="M126 67l-6 7-10-8 7-7z"/><path fill="#e3c7d0" d="M133 3l1 1-2 4-2-1z"/><path fill="#5f5f52" d="M135 73l-24 13-1-1 25-14z"/><path fill="#94051e" d="M98 47l3-7 6 2-3 7z"/><path fill="#3a0406" d="M50 33l34 29-1 1-34-29z"/><path fill="#976e5d" d="M75 47l1 1-9 7-1-2z"/><path fill="#c7e4dc" d="M126 76l-2-1 17-24 2 1z"/><path fill="#2b1405" d="M80 15v-1l32-3 1 2z"/><path fill="#2e7021" d="M68 27v8l-13-1 1-8z"/><path fill="#f2f5fa" d="M262 146l1 52-42 1-2-51z"/><path fill="#234a3a" d="M62-8l8 5-12 19-8-5z"/><path fill="#240000" d="M130-4l-4 12-7-2 3-12z"/><path fill="#324e20" d="M106 27l-2-8 10-3 3 7z"/><path fill="#74756b" d="M139 61l7 6-27 30-7-6z"/><path fill="#e7e9ea" d="M340 54v28l-166-3 1-28z"/><path fill="#ededf0" d="M55 88l-1 56-92-2 1-56z"/><path fill="#b8babd" d="M371 147l-69 3v-2l69-2z"/><path fill="#8e9d70" d="M83-10l12 20-1 1L82-9z"/><path fill="#3f0006" d="M63 23v-2l45-2v2z"/><path fill="#eceeef" d="M176 103l1-19 86 2-1 19z"/><path fill="#f3f7f7" d="M137 0l8-12 22 14-7 12z"/><path fill="#120500" d="M106 29l-11-5v-1l12 5z"/><path fill="#afb1b5" d="M150 85l-1-37 9-1 1 38z"/><path fill="#210c08" d="M86 52L65 68l-2-3 21-16z"/><path fill="#a8d8d4" d="M37 36l16-70h2L39 36z"/><path fill="#ccccd1" d="M216 148H-99v-1h315z"/><path fill="#080000" d="M126 36v14h-16V36z"/><path fill="#e1e3e2" d="M283 95l2 6-82 28-2-6z"/><path fill="#636c4c" d="M88 38l13-4 1 1-14 5z"/><path fill="#427379" d="M144 27l-4-18h2l4 18z"/><path fill="#acae94" d="M105 8l3-2 1 1-3 2z"/><path fill="#0a3931" d="M55 55l13 11-2 2-13-11z"/><path fill="#d393a6" d="M64 23l9 4-1 1-9-3z"/><path fill="#e9bbd0" d="M122 56v3l-2-1 1-3z"/><path fill="#dedde0" d="M93 120l-16 15-34-35 16-15z"/><path fill="#cb99ad" d="M87 19l-1-1 3-5 2 1z"/><path fill="#7b152f" d="M64 23l15-43 3 1-15 43z"/><path fill="#5c824d" d="M67 78l7-9 1 1-7 9z"/><path fill="#dfe1e2" d="M353 86l66-1 1 53-66 1z"/><path fill="#e8eaed" d="M288 167l-1-10 102-3v9z"/><path fill="#6c0513" d="M107 70l-1-1 10-15h2z"/><path fill="#c1c2c8" d="M322 71l-4 5-7-5 4-5z"/><path fill="#72814c" d="M77 63l-1-1 5-8 1 1z"/><path fill="#bfe3db" d="M91 86l26-10v2L91 88z"/><path fill="#ffb3c3" d="M94 44l3-3 1 1-2 3z"/><path fill="#5f000d" d="M130 52l-3-4 10-8 3 4z"/><path fill="#9a9fa2" d="M165 21v1l-19-3v-2z"/><path fill="#a6779a" d="M85 29l1 1-3 8h-2z"/><path fill="#eef2f8" d="M274 188l-11-27 39-16 11 27z"/><path fill="#eff1f2" d="M202-9h126v25H202z"/><path fill="#540000" d="M59 25l-1 1-6-6 1-1z"/><path fill="#310000" d="M64 59l-6-2 5-15 6 2z"/><path fill="#697641" d="M54 28l1-1 24 25-1 1z"/><path fill="#280100" d="M69 64l28-27 1 1-28 27z"/><path fill="#b0afb4" d="M81 100l1-6 48 10-2 6z"/><path fill="#edeeef" d="M40 80L1 79l1-39 39 1z"/><path fill="#629897" d="M46 16l-2-1 9-17 1 1z"/><path fill="#c9c8ca" d="M-24 81v-1l115 6v1z"/><path fill="#6a624b" d="M71 48l20 7v2l-21-8z"/><path fill="#000c00" d="M105 6l-1 1-4-8 1-1z"/><path fill="#6faba4" d="M63 71l-2 2-10-8 2-2z"/><path fill="#9a061f" d="M111 51l-7 10-1-1 7-10z"/><path fill="#ced0d0" d="M298 22v-2h103v2z"/><path fill="#9eaf63" d="M109 31v3h-7v-4z"/><path fill="#d3d7da" d="M265 187l-4-15 3-1 4 15z"/><path fill="#de6093" d="M53 20l1 3-5 2-1-3z"/><path fill="#866282" d="M57 9l10 8-1 1-10-8z"/><path fill="#010" d="M134 53l1 1-5 7-1-1z"/><path fill="#3f7530" d="M100 63v2l-23 5v-2z"/><path fill="#470e12" d="M72-36l22 95h-2L70-35z"/><path fill="#0a0200" d="M98 72l4-17h2l-4 17z"/><path fill="#520518" d="M68 18l5-2 10 30-4 2z"/><path fill="#4c0a0b" d="M67 39l5 11-9 4-5-12z"/><path fill="#3f928c" d="M73 79v-2l28 2v1z"/><path fill="#877c54" d="M55 29l1 1-3 5-1-1z"/><path fill="#eaf1f0" d="M29 77v-2l37 3v1z"/><path fill="#6e1b2b" d="M92 2l-3 6-20-9 3-5z"/><path d="M58 13v-2h8v1z"/><path fill="#7f7b77" d="M91 87l6-2 1 2-6 1z"/><path fill="#568e8b" d="M42 48l5-8 3 2-5 7z"/><path fill="#afb4ba" d="M218 200v-1l22-1v2z"/><path fill="#121218" d="M57 41l-1 1-11-6 1-2z"/><path fill="#b4e3d5" d="M114 78l13-8 1 1-13 8z"/><path fill="#392324" d="M102 75l1-1 9 2-1 2z"/><path fill="#421817" d="M101 42l-1-2 42-27v1z"/><path fill="#ba97ac" d="M118 27l4 2v1l-5-1z"/><path fill="#b9bbbc" d="M343 145v-2l87 8v1z"/><path fill="#170000" d="M125 19l-1 1-17-28 2-1z"/><path fill="#f3f3f6" d="M206 34l-58-2 1-8 57 2z"/><path fill="#120a00" d="M70 37l16 17-1 1-16-17z"/><path fill="#b6babe" d="M155 80l4 5-31 27-4-4z"/><path fill="#090d0d" d="M133 34l6-17 1 1-5 16z"/><path fill="#708c5b" d="M80 9h17v2H80z"/><path fill="#dddfe0" d="M360 153l21 52-99 40-21-52z"/><path fill="#54302e" d="M104 74l-1-2 35-25 1 1z"/><path fill="#8a9d73" d="M45-2l4 5-1 1-5-5z"/><path fill="#4a000c" d="M83 45l-1-4 21-4 1 5z"/><path fill="#eff1f1" d="M251 93v-7l72 3-1 8z"/><path fill="#ccd0d4" d="M174 41l-11 41-7-2 10-41z"/><path fill="#080000" d="M119 47h1l-3 23h-1z"/><path fill="#310005" d="M71 17l13-4 3 12-13 4z"/><path fill="#8e7f5f" d="M107 10l-1-1 7-8 1 1z"/><path fill="#606a44" d="M129 39h-2l2-17h1z"/><path fill="#78011c" d="M140 5l-2 9-5-2 3-8z"/><path fill="#84837a" d="M132 94l-2-1 15-41h1z"/><path fill="#8ca050" d="M55 27l-4 4-1-1 4-4z"/><path fill="#dee1e5" d="M112 130l75 1v13l-75-2z"/><path fill="#f2f3f7" d="M44 15l-56-1V-7l57 1z"/><path fill="#f6f8fb" d="M217 160l2-39 37 2-1 39z"/><path fill="#1d0602" d="M73 68v-1l27-12 1 2z"/><path fill="#581418" d="M49 48l2-1 5 10-3 1z"/><path fill="#431223" d="M48 33l-2 1-1-10h1z"/><path fill="#70ac70" d="M103 12L88 7l1-2 15 5z"/><path fill="#61692e" d="M108 30l-4-15h2l4 15z"/><path fill="#70011d" d="M71 61L61 51l1-1 10 10z"/><path fill="#bcb77f" d="M98 16l6-1v2h-6z"/><path fill="#98989c" d="M151 82l-23 16-2-3 22-17z"/><path fill="#a54064" d="M64 48l6 7-1 1-6-7z"/><path fill="#587441" d="M94 64l1 2-28 9-1-2z"/><path fill="#010" d="M93 70l-1-2 8-2v2z"/><path fill="#8e7568" d="M105 67l-1 3-4-1 1-3z"/><path fill="#eceeee" d="M298 20l47 25-10 18-47-26z"/><path fill="#cacace" d="M10 22l1-7 18 3v6z"/><path fill="#f9faff" d="M-17 29l53-6 1 6-53 6z"/><path fill="#579091" d="M41 24h1l3 25h-1z"/><path fill="#c6cfc9" d="M72 79l12 1-1 17H71z"/><path fill="#646659" d="M135 73l-17 11-1-2 16-12z"/><path fill="#eef1f6" d="M306 156l-73 32-12-27 73-32z"/><path fill="#e2e4e4" d="M363 21l73 1-1 58-73-1z"/><path fill="#826e55" d="M93 49L69 69l-1-1 24-20z"/><path fill="#8f8e6b" d="M95 27l-4-1v-1h4z"/><path fill="#ccd2d5" d="M93 128v-15l56-2 1 15z"/><path fill="#190c11" d="M123 70l-14 5-3-6 15-5z"/><path fill="#d0d1d4" d="M289 51l7-10 8 6-8 10z"/><path fill="#e1e3e4" d="M55 220l-2-28 162-14 2 28z"/><path fill="#3b1113" d="M81 54l13 5-1 4-14-4z"/><path fill="#41040d" d="M67 71l3-16 2 1-3 15z"/><path fill="#dbdce0" d="M172 144l-15-3 13-55 15 3z"/><path fill="#cacccd" d="M163 22v-2l164-3v2z"/><path fill="#5a0217" d="M67 12v-1l30 13v1z"/><path fill="#6a3b42" d="M73 31l8-5 1 1-8 5z"/><path fill="#450005" d="M123 58l2-24 3 1-2 23z"/><path fill="#160500" d="M79 15l4 2-4 10-4-2z"/><path fill="#a16278" d="M121 53h2l1 5h-2z"/><path fill="#5e0612" d="M123 62l-1 1-25-24 1-1z"/><path fill="#4a1815" d="M66 44l1-1 9 15-1 1z"/><path fill="#c0c2c4" d="M321 80v1l-156 3v-1z"/><path fill="#ecfffd" d="M82 85v-1l12-2 1 2z"/><path fill="#816e5b" d="M126 20l1-1 2 4h-1z"/><path fill="#cfd2d6" d="M335 163l1 2-63 26-1-1z"/><path fill="#d7d9da" d="M347 212v-23l73-3 1 24z"/><path fill="#1d270f" d="M65-4l5 4-5 6-5-4z"/><path fill="#000800" d="M87 76l-14-2 1-1 14 1z"/><path fill="#6c9796" d="M144 27v10h-2V27z"/><path fill="#160f00" d="M100 22v-1l33-4v2z"/><path fill="#414305" d="M111 2l-1 1-3-3 1-1z"/><path fill="#525d28" d="M60 31l8 1-2 11-7-1z"/><path fill="#98c5c2" d="M51 67L37 39l1-1 14 28z"/><path fill="#a6808f" d="M80 37l-2-9 3-1 2 9z"/><path fill="#ae9e6f" d="M103 29l8 1v2l-8-1z"/><path fill="#725660" d="M51 6l14 20-1 1L49 7z"/><path fill="#200201" d="M63 45l3 1-6 11-2-1z"/><path fill="#be97a0" d="M111 55l1 1-6 3-1-1z"/><path fill="#295652" d="M70 78v-1h39v1z"/><path fill="#e5cde1" d="M76 8l-2 2h-1l1-3z"/><path fill="#e9ebec" d="M391 1v15H277V1z"/><path fill="#b5d6cf" d="M148 15l-2 25h-2l2-25z"/><path fill="#55807d" d="M49 57l20 15-1 1-20-15z"/><path fill="#630a21" d="M82 39l-2 1-4-9h2z"/><path fill="#220406" d="M90 47l-5-10 5-1 4 9z"/><path fill="#917370" d="M120 27l-7-1v-1h7z"/><path fill="#3a5c51" d="M51 16l-4-5L60 1l4 5z"/><path fill="#f3f4f8" d="M45 94l-50 3-1-8 50-3z"/><path fill="#bb9daf" d="M121 30l-2 2-1-1 2-2z"/><path fill="#24070b" d="M74 67l-2 2-10-10 2-2z"/><path fill="#dadcdd" d="M363 121l-4-18 42-10 5 18z"/><path fill="#e8e8ec" d="M79 132l22-1v11l-22 1z"/><path fill="#a3a7ab" d="M152 83l22-3v1l-22 3z"/><path fill="#83a095" d="M141 50V30h1v20z"/><path fill="#5a6e49" d="M110 21l3-1 1 4-3 1z"/><path fill="#ad8f91" d="M57 42l2 1-2 4-2-1z"/><path fill="#170b00" d="M103 65v1l-17-4v-1z"/><path fill="#220800" d="M55 42l-3-1 4-7 3 2z"/><path fill="#00070b" d="M132 28l7 4-1 1-6-4z"/><path fill="#c4e5e4" d="M41 57l1-1 22 23-1 1z"/><path fill="#e9ebec" d="M40 58l14 19-5 4-14-19z"/><path fill="#f0f0f6" d="M11 154l86 5v4l-86-4z"/><path fill="#2a2a00" d="M85 8l7 3v1l-8-2z"/><path fill="#f5f7f8" d="M172 22h58v8h-58z"/><path fill="#7f8381" d="M108 88h20v7h-20z"/><path fill="#d7d7db" d="M101 142v2H-34v-2z"/><path fill="#f1f3f4" d="M161-17l38 3-2 33-38-3z"/><path fill="#8b0b22" d="M115 62v2l-13-3 1-1z"/><path fill="#923e5c" d="M134 0l1 8h-2l-1-8z"/><path fill="#8b375a" d="M73 0l1 14h-1L71 0z"/><path fill="#596a4e" d="M149 42h-2v-4l1-1z"/><path fill="#110002" d="M106 24l-4 3-3-6 4-2z"/><path fill="#c1c2c6" d="M121 118l-39-7 2-9 38 7z"/><path fill="#56000f" d="M57 18l2 8-5 1-2-8z"/><path fill="#6d0316" d="M102 47l2 4-8 4-2-4z"/><path fill="#630009" d="M137 14l-5 7-8-5 5-7z"/><path fill="#e3e4e6" d="M302 143v-31h79v31z"/><path fill="#620014" d="M114-2l9 1-1 4h-9z"/><path fill="#5d712e" d="M109 13l1 1-4 9-2-1z"/><path fill="#521b28" d="M111 69l1 1-9 6-1-1z"/><path fill="#d3d5d6" d="M264 85v-1l89-2v2z"/><path fill="#000900" d="M90 34h-1l4-7h1z"/><path fill="#560519" d="M83 41l6-16 2 1-7 16z"/><path fill="#bc566e" d="M130 7h-1l-1-3h1z"/><path fill="#d8dadd" d="M185 76l-10 4-15-42 11-3z"/><path fill="#b698a1" d="M90 17l-2-4 1-1 3 4z"/><path fill="#200f06" d="M113 28l-9-3v-1l9 2z"/><path fill="#d69bae" d="M130 38l1 2-3 1-1-1z"/><path fill="#142400" d="M75 67l7-8 1 1-7 8z"/><path fill="#eaebed" d="M173 114l48 7-2 14-48-7z"/><path fill="#506256" d="M141 30l-1 20h-2l2-20z"/><path fill="#7e7d68" d="M91 35l6-1 1 1-6 1z"/><path fill="#8d576a" d="M57 16l4 7h-1l-4-6z"/><path fill="#c3c5c5" d="M426 18v2l-53-2v-2z"/><path fill="#cacfd1" d="M148 108V84h18v24z"/><path fill="#e7e9ea" d="M390 84v9l-53 3v-9z"/><path fill="#dcdede" d="M438 16v1H245v-1z"/><path fill="#181800" d="M94 66h8v4h-8z"/><path fill="#c2c6c7" d="M165 76l-19-41 6-3 19 41z"/><path fill="#e4e6e9" d="M81 186v-39h58v39z"/><path fill="#c0c2c5" d="M143 197l5-6 1 1-4 6z"/><path fill="#e5e7e8" d="M46 62v8l-47-5 1-8z"/><path fill="#8a908a" d="M91 87l12 3-2 6-12-3z"/><path fill="#171808" d="M57 54h6v6h-6z"/><path fill="#afb696" d="M106-2l1 6h-2v-6z"/><path fill="#8f8167" d="M71 47l-2-4 2-1 2 4z"/><path fill="#ccccd0" d="M169 128l8 4-3 7-9-4z"/><path fill="#9ea79f" d="M141 46l3-2 10 14-2 2z"/><path fill="#d2d2d8" d="M290 10l-3-4 6-5 3 4z"/><path fill="#d9dbdc" d="M393 99l1 2-101 11-1-2z"/><path fill="#3f6976" d="M46 19v-1l10-4v1z"/><path fill="#8a757c" d="M84 27v1h-4v-1z"/><path fill="#b4b6ba" d="M102 137l2-1 5 13-2 1z"/><path fill="#550f1e" d="M67 26l13 11-1 1-14-11z"/><path fill="#5b7c5c" d="M129 54l3-1v1l-3 1z"/><path fill="#c68ca9" d="M128 39l3 2-1 2-3-1z"/><path fill="#e7e9ea" d="M202 67l-7-31 23-5 7 31z"/><path fill="#3f000b" d="M65 53l-8-1 1-9h8z"/><path fill="#730117" d="M138 5l2 2-4 8-3-2z"/><path fill="#719f9b" d="M65 73l-1 1-15-14 1-1z"/><path fill="#e7e8ea" d="M69 131l-67 9-4-29 67-9z"/><path fill="#534a35" d="M95 72v1l-17 1v-2z"/><path fill="#730112" d="M130 49l-1 1-5-10 2-1z"/><path fill="#5d3753" d="M111 6l1 5h-3l-1-4z"/><path fill="#a54c6f" d="M88 1l-5 1V0h4z"/><path fill="#5d4944" d="M119 20l1 1-3 4-1-1z"/><path fill="#b7bcba" d="M86 89v1l-20-9v-1z"/><path fill="#4d010c" d="M71 21L70 6l1-1 2 16z"/><path fill="#0c0000" d="M99 76l-9 1v-1l9-2z"/><path fill="#eef0f2" d="M138 159v-2l85 5v1z"/><path fill="#77082e" d="M82 19l3-7 3 2-3 7z"/><path fill="#6e0815" d="M132 37l7 4-1 2-6-5z"/><path fill="#0f2d20" d="M138 16h4l-1 8-3-1z"/><path fill="#dde0e4" d="M146 26l2-4 30 16-2 4z"/><path fill="#a8aaaf" d="M146 84h1l-13 21h-1z"/><path fill="#261a02" d="M109 12l-2 1-20-23 1-1z"/><path fill="#d07e94" d="M67 51h2v3h-2z"/><path fill="#6b3e37" d="M125 30l18 13-1 1-18-13z"/><path fill="#799e88" d="M101 13l-7-4 1-1 6 3z"/><path fill="#054138" d="M49 36l2 4-1 1-3-4z"/><path fill="#76aaa5" d="M109 79l-6 1-1-1 6-1z"/><path fill="#971c2e" d="M94 41l1-1 6 1v2z"/><path fill="#e2e5e6" d="M311 171v-20l30 1-1 20z"/><path fill="#19501e" d="M66 29v2l-8 4-1-2z"/><path fill="#bce5dd" d="M113 80l-1 1-4-3 1-1z"/><path fill="#490002" d="M127 37v-1h7v2z"/><path fill="#c196ab" d="M73 6h2v6h-1z"/><path fill="#672e36" d="M66 49l1-1 10 8-1 1z"/><path fill="#9c6b7f" d="M66 17l-6-3 1-1 5 2z"/><path fill="#a6565e" d="M59 40l1 1-2 2-1-1z"/><path fill="#490004" d="M77 3h11l-1 5-11-1z"/><path fill="#060000" d="M98 33l-1 1-9-3 1-1z"/><path fill="#817960" d="M88 55l-1-1 1-4h2z"/><path fill="#dbdddf" d="M65 98l34 34-6 6-34-34z"/><path fill="#c1c3c4" d="M401 84l-116-2v-2l116 2z"/><path fill="#3a0412" d="M113 36v-1l17 2-1 1z"/><path fill="#330300" d="M86 22l11 3-1 2-10-4z"/><path fill="#a77e86" d="M53 46v-3h5v3z"/><path fill="#451018" d="M102 50l1 1-16 10-1-1z"/><path fill="#eef4f5" d="M26 24h11l1 28-11 1z"/><path fill="#6f1831" d="M55 22l-1 1-7-2v-2z"/><path fill="#e6e9ea" d="M160 11l-11 6-14-26 11-6z"/><path fill="#070701" d="M110 31l8 20-1 1-9-20z"/><path fill="#dfe0e1" d="M-53 195v-1l164-3v1z"/><path fill="#5f0017" d="M54 25l9-3v1l-8 4z"/><path fill="#8e0127" d="M127 7h2l2 6h-2z"/><path fill="#6c3f3a" d="M55 45l-6 7-3-2 7-7z"/><path fill="#49071a" d="M97 12l2 3-7 6-2-3z"/><path fill="#256a5a" d="M118 71l3-1v2h-3z"/><path fill="#f0b4ca" d="M98 43l-3 4-1-1 3-4z"/><path fill="#b68d7f" d="M73 63v-2h3v1z"/><path fill="#92876e" d="M73 50l1-1 2 2-1 1z"/><path fill="#f0f2f2" d="M192 88l49-1v8l-49 1z"/><path fill="#39160b" d="M63 16l-1 4h-2l2-5z"/><path fill="#000500" d="M119 50l-6-9 4-2 6 9z"/><path fill="#dff3f1" d="M83 84l-1 1-16-5v-1z"/><path fill="#d7d8da" d="M155 142h64v2h-64z"/><path fill="#f0f3f8" d="M260 198l-42 1-2-45 43-2z"/><path fill="#81857b" d="M145 69l-7-13 3-1 7 12z"/><path fill="#78141d" d="M101 45h2l7 21h-2z"/><path fill="#744b4d" d="M68 7l-1-1 7-5 1 1z"/><path fill="#261e14" d="M65 8l-1-1 7-14 1 1z"/><path fill="#170000" d="M81 48l-8-2 1-1 7 1z"/><path fill="#b4b8bb" d="M162 58l1 12-11 2-1-13z"/><path fill="#520007" d="M51 36l-5-4 1-1 5 4z"/><path fill="#46512d" d="M82 48l1 9h-1l-1-9z"/><path fill="#161500" d="M85 50l2-2 1 1-2 2z"/><path fill="#570d18" d="M85 1l1 1-16 21-1-1z"/><path fill="#e5e7e9" d="M212 143v1l-107-4v-1z"/><path fill="#160002" d="M116 11l8 1-1 9h-8z"/><path fill="#e8eaeb" d="M305 56l1 23-72 1-1-23z"/><path fill="#432513" d="M77 60L64 39l1-1 14 21z"/><path fill="#e7e9ea" d="M318 31l34-2 3 42-34 2z"/><path fill="#6f8e89" d="M49 46l-5 4-1-1 5-4z"/><path fill="#d5efef" d="M37 52l1-33h2l-2 33z"/><path fill="#5d7145" d="M123 9l-3 1V9l2-2z"/><path fill="#541f21" d="M89 44l1-1 7 12-1 1z"/><path fill="#94a375" d="M97 3v1l-8 1V3z"/><path fill="#280000" d="M116 46L93 63l-1-1 23-17z"/><path fill="#838382" d="M118 89l27-9 1 2-27 8z"/><path fill="#5ea397" d="M98 80v2l-16-1v-2z"/><path fill="#5a7c4c" d="M55-7l2-1 8 17h-1z"/><path fill="#9bc5c7" d="M39 25h1l1 23h-1z"/><path fill="#d5bfbd" d="M109 57h-1v-3h2z"/><path fill="#292c00" d="M61 40l4-5 1 2-4 4z"/><path fill="#290000" d="M127 0l1 1-10 7-1-1z"/><path fill="#c9899b" d="M130 7l1-1 3 1-1 1z"/><path fill="#6b151f" d="M69 60l-6-5 1-1 6 5z"/><path fill="#e6e8e8" d="M188 103l60-9 4 23-61 10z"/><path fill="#8d414e" d="M75 32l1 2-3 1-1-1z"/><path fill="#020000" d="M102 15l-6-1v-2l6 1z"/><path fill="#3e3718" d="M105 21v16h-2V21z"/><path fill="#2a4532" d="M64 7h-1l3-12h1z"/><path fill="#f3f8f1" d="M46 4v2L24-2l1-2z"/><path fill="#dddfe0" d="M259 84v3h-82v-3z"/><path fill="#c2e4e1" d="M46 58l-2 1-7-16h2z"/><path fill="#e3e5e6" d="M296 20v1l-87 2v-2z"/><path fill="#c2c1c4" d="M71 84v1l-84-4v-2z"/><path fill="#9c7f85" d="M105 66v4h-2v-4z"/><path fill="#edeff0" d="M189 66h33v13h-33z"/><path fill="#76a89e" d="M79 79l-6 1v-1l6-1z"/><path fill="#600012" d="M96 0v2l-6-1V0z"/><path fill="#7c9257" d="M95 8l-8-4V3l9 4z"/><path fill="#51332c" d="M109 65v1l-7 2v-1z"/><path fill="#631530" d="M123 34l-2-9 1-1 3 9z"/><path fill="#d5d8dc" d="M266 212l-4-41h2l3 41z"/><path fill="#431924" d="M130 61l-2 5-7-4 2-4z"/><path fill="#251b27" d="M63 9l1 1-7 8-1-1z"/><path fill="#111600" d="M97 68l-10 7-1-1 10-7z"/><path fill="#6c312e" d="M115 59l2 1-6 8-1-1z"/><path fill="#c3b272" d="M106 32l1-3h1l-1 3z"/><path fill="#9aadba" d="M142 6h1l1 11h-1z"/><path fill="#000003" d="M133 30l1-1 4 5-2 1z"/><path fill="#dfe1e2" d="M106 168l-1-8 28-1 1 8z"/><path d="M121 64v4l-6 1v-4z"/><path fill="#5a0107" d="M127 17l-3-1 3-25 3 1z"/><path fill="#785955" d="M141 39l-1 1-4-2 1-2z"/><path fill="#560c16" d="M73 62l-8-4 1-3 8 5z"/><path fill="#c1c4c9" d="M264 199l-39 2v-2l39-1z"/><path fill="#eef0f1" d="M288 49l-12-10 16-18 11 11z"/><path fill="#e8e9ee" d="M330 56l-6 16-28-10 6-17z"/><path fill="#c8e0df" d="M135 65l-2 2-4-2 2-3z"/><path fill="#3c0305" d="M75 19l-6 4-1-3 5-4z"/><path fill="#2a040f" d="M93 61l-5-2 2-6 5 2z"/><path fill="#6e7066" d="M139 75l-31 15-2-4 31-15z"/><path fill="#220500" d="M124 50l1-1 5 2v2z"/><path fill="#a1b284" d="M109 6l-4-2V2l5 2z"/><path fill="#7c0f32" d="M132-4l5 10h-2l-4-10z"/><path fill="#bdbdb9" d="M146 49l6-9 4 3-6 9z"/><path fill="#3a0000" d="M58 52l-3-2 1-1 3 2z"/><path fill="#68634b" d="M123 5l1 1-1 6h-2z"/><path fill="#705b4d" d="M126 18l1 3h-1l-1-3z"/><path fill="#335055" d="M95 80H84v-2h11z"/><path fill="#971234" d="M110 53l1-2 2 1v2z"/><path fill="#8d915f" d="M109 32l-1 1-6-1 1-1z"/><path fill="#731306" d="M56 26v2l-5-2 1-2z"/><path fill="#c8e1d5" d="M137 56l8-8 1 1-8 8z"/><path fill="#140200" d="M87 48l-1-1 7-9 1 1z"/><path fill="#151000" d="M116 8l1-2 6 7v1z"/><path fill="#d7d9dc" d="M72 122l4-9 47 20-3 8z"/><path fill="#9ca49d" d="M145 46l8 7-3 3-8-7z"/><path fill="#351920" d="M119 65l1-5 6 2-1 5z"/><path fill="#eff3f6" d="M272 189l-11-26 16-7 11 26z"/><path fill="#e5e4ea" d="M26 15l-6 1-1-11 6-1z"/><path fill="#2e0d00" d="M62 41l6 2v2l-6-2z"/><path fill="#c8cbcb" d="M317 178l-1-2 6-2 1 1z"/><path fill="#d8d8de" d="M103 151v-1l52-3v2z"/><path fill="#6b4647" d="M75 54l-1 1-4-5 1-1z"/><path fill="#0c0c00" d="M102 19l1-1 3 2-1 1z"/><path d="M96 62l2-4h1l-1 5z"/></svg>