<svg xmlns="http://www.w3.org/2000/svg" viewBox="0 0 400 200"><style>@keyframes a{from{opacity: 0}to{opacity: 1}}g&gt;*{opacity: 0;animation: a .5s forwards}</style><path fill="#d2d2d3" d="M0 0h400v200H0z"/><path d="M127 120l22-144L19 18z" style="animation-delay:0s"/><path fill="#2d0000" d="M57 82l103-22L49-24z" style="animation-delay:.188s"/><path fill="#f3f7fa" d="M-24 181l448 43-92-248z" style="animation-delay:.376s"/><path fill="#fff" d="M38 224L-24 20l67-44z" style="animation-delay:.562s"/><path fill="#492018" d="M152 90L41 52l91-76z" style="animation-delay:.746s"/><path fill="#b0babc" d="M160 35l14 103-101-25z" style="animation-delay:.927s"/><path fill="#eff2f4" d="M132-19l119 243L424-4z" style="animation-delay:1.104s"/><path fill="#e5e9ec" d="M23 15l-47 187 194 22z" style="animation-delay:1.277s"/><path fill="#370004" d="M91 82l54-62-21-44z" style="animation-delay:1.445s"/><path fill="#9ba19f" d="M96 107L59 79h142z" style="animation-delay:1.607s"/><path fill="#dddfdf" d="M224 66l171 158L424 4z" style="animation-delay:1.763s"/><path fill="#424432" d="M51-13l-8 70 45 24z" style="animation-delay:1.912s"/><path fill="#eff4f8" d="M2-7l57-17-60 153z" style="animation-delay:2.054s"/><path fill="#d1d1d5" d="M226 149l-110-44-90 41z" style="animation-delay:2.187s"/><path fill="#696e62" d="M135 90l13-30-66 38z" style="animation-delay:2.312s"/><path fill="#bbcec7" d="M123 74l40-33-4-25z" style="animation-delay:2.427s"/><path fill="#e0e6e7" d="M4 73l-28 45 129-37z" style="animation-delay:2.533s"/><path fill="#f3f6f6" d="M216 49L99-24h219z" style="animation-delay:2.629s"/><path fill="#5c382c" d="M40 34l92-3-56-55z" style="animation-delay:2.714s"/><path fill="#f9fbff" d="M220 120l82-5-86 109z" style="animation-delay:2.789s"/><path fill="#e7e9eb" d="M-24 224l105-90L29 13z" style="animation-delay:2.853s"/><path fill="#232d13" d="M121 68L56 54l21 25z" style="animation-delay:2.906s"/><path fill="#9caba9" d="M151 99l8-40-18-38z" style="animation-delay:2.947s"/><path fill="#c3c5c7" d="M420 152l-61-21-58 15z" style="animation-delay:2.976s"/><path fill="#dfe0e3" d="M288 68l-145 78 8-58z" style="animation-delay:2.994s"/></svg>