<svg xmlns="http://www.w3.org/2000/svg" viewBox="0 0 400 200"><path fill="#d2d2d3" d="M0 0h400v200H0z"/><path d="M47-12l97 2-2 92-97-2z"/><path fill="#2f0000" d="M36 47l39-71 75 41-39 71z"/><path fill="#f6fafd" d="M400 198H161V0h239z"/><path fill="#f7fcff" d="M123 167l-80 52L-65 53 15 1z"/><path fill="#7c8683" d="M173 76l-71 43-17-27 70-44z"/><path fill="#42170b" d="M140 47L70 80 52 42l71-33z"/><path fill="#f1f4f7" d="M264 87l48 82-172 99-47-82z"/><path fill="#78867d" d="M140 93l-52 11-5-23 52-11z"/><path fill="#d6d8d8" d="M405 69l15 143-108 11-14-143z"/><path fill="#f5fdff" d="M33 38L-8 17l27-53 40 21z"/><path fill="#390008" d="M119 30l21 20-23 25-22-20z"/><path fill="#cbcfd3" d="M187 158l-24 3-20-145 23-4z"/><path fill="#d4d8db" d="M133 164L28 90l19-27 105 74z"/><path fill="#d5f5ec" d="M114 80l35-32 1 1-35 32z"/><path fill="#2c7272" d="M44 18l5 37-3 1-6-38z"/></svg>