<svg xmlns="http://www.w3.org/2000/svg" viewBox="0 0 100 50"><path fill="#4b4b4b" d="M0 0h100v50H0z"/><path fill="#c2c2c2" d="M9-5l28 40 32-14z"/><path d="M116-15l-12 44-42-14zM25 17L-4-7l-11 33zm22-5L75-7 6-10z"/><path fill="#868686" d="M80-15L35 66 9 58z"/><path d="M62 12l54-18-2 40zM45 38l31-13-7 17z"/><path fill="#868686" d="M66 54l12-33 21 8z"/><path fill="#cacaca" d="M45 8L32 9l2 31z"/><path d="M-15 19l7-29 36 30zM23-4l25 15 35-23zm24 27l7-5-11 1z"/><path fill="#bfbfbf" d="M48 13l16 5-3-13z"/><path fill="#161616" d="M33 35l-5-12-26 8z"/><path d="M22-15L35 8l24-4z"/><path fill="#686868" d="M63 33l-43 7 44-21z"/><path d="M110 23l-45-4L89 3zM9 42l13 14L7 66z"/><path fill="#919191" d="M35 14L-2-5l24-10z"/><path fill="#080808" d="M58 39l11-15 10 5z"/><path fill="#6b6b6b" d="M5 36l17 16-1-26z"/><path fill="#878787" d="M86 24l-21-5-4 6z"/><path fill="#5e5e5e" d="M104 46L66 28l22 21z"/><path d="M-6 27l-9-31 39 16z"/><path fill="#212121" d="M40 37l-3-6 10 5z"/><path fill="#1e1e1e" d="M100 47L88 33h8z"/><path fill="#818181" d="M101 30L76 20l40 32zM82 1L72-15 60 10z"/><path fill="#929292" d="M45 39l-7 6-13-9z"/><path d="M94 3L69 13l35 18z"/><path fill="#737373" d="M5 24l14-5 14 5z"/><path fill="#626262" d="M22 6l7 14L11 3z"/><path fill="#080808" d="M81 50l35-4-40 20z"/><path fill="#6c6c6c" d="M100 46l-32 5 14-20z"/><path fill="#242424" d="M47 21l-6-5 13 2z"/><path fill="#a2a2a2" d="M69 21l-12 9H46z"/><path fill="#bababa" d="M54 23l1-15 8 9z"/><path d="M81-14L47 13 37-7z"/><path fill="#b1b1b1" d="M32 20l-2 8 23-5z"/><path fill="#040404" d="M67 32l4 7-25-2z"/><path fill="#bfbfbf" d="M53 32v3l5-3z"/><path fill="#717171" d="M-15 22l28 3-28 13z"/><path fill="#434343" d="M65 14L55 8l9 1z"/><path fill="#3b3b3b" d="M96 10l13 5L95 0z"/><path fill="#484848" d="M82 34l-15-5 19 18z"/><path fill="#2b2b2b" d="M18 24l-2 13 18-3z"/><path fill="#333" d="M50 34l15 15 8-2z"/><path fill="#7d7d7d" d="M74 52l-5-9 14-11z"/><path fill="#999" d="M41 53L6 66l16-20z"/><path fill="#9a9a9a" d="M73 21l21 6H81z"/><path fill="#c7c7c7" d="M38 25l-7-5 7-9z"/><path fill="#535353" d="M51 27l23-7-12-1z"/><path d="M22 17l-37 8 1-40z"/><path fill="#a7a7a7" d="M100 45l4-38 12 38z"/><path d="M70-15H28l7 24z"/><path fill="#9f9f9f" d="M36 34l-4-6 15 2z"/><path d="M97 38l3 6-4-1zM65 16l35-20-23 24z"/><path fill="#2b2b2b" d="M47 22l8-9-3 7z"/><path fill="#050505" d="M43 32l-1 5 3 1z"/><path fill="#4e4e4e" d="M93 28l-2 8 9-3z"/><path fill="#141414" d="M47 31h5l-2 2z"/><path fill="#0c0c0c" d="M28 31l-1-10 2 4z"/><path fill="#656565" d="M58 66L45 33l-6 33z"/><path fill="#484848" d="M50 29H40l19-6z"/><path fill="#424242" d="M91-6L83 5l-15 5z"/><path fill="#a5a5a5" d="M54 10l3 11 1-15z"/><path fill="#878787" d="M25 9l12 1-27-25z"/><path d="M10 45L7 65l13-13z"/><path fill="#919191" d="M39 20l1 8 17-4z"/><path d="M77 31l-7-4 6-1z"/><path fill="#b0b0b0" d="M45 12l-6 11V8z"/><path fill="#8c8c8c" d="M87 40l-4-6 11 7z"/><path fill="#a3a3a3" d="M30 12l1 18 7 1z"/><path fill="#666" d="M13 32l15 10-15 5z"/><path fill="#adadad" d="M64 17l-11-4 8 8z"/><path fill="#505050" d="M79 36l8-5-9-3z"/><path fill="#939393" d="M59 32l4-3-4 1z"/><path fill="#191919" d="M13 25l11 1-20 6z"/><path fill="#7e7e7e" d="M74 22l-2 4 8-1z"/><path fill="#2d2d2d" d="M82 39l2 5h5z"/><path fill="#a5a5a5" d="M89 30l1-3h-8z"/><path fill="#2a2a2a" d="M55 44l3-9 10 8z"/><path fill="#020202" d="M86 11l-8 7-15-4z"/><path fill="#454545" d="M29 23l-9 7-2-7z"/><path fill="#9a9a9a" d="M34 42l8-3-9-3z"/><path fill="#5b5b5b" d="M20 48V37l13-3z"/><path fill="#070707" d="M25 30l3-2 5 5z"/><path d="M65-15L46 15l2-28z"/><path fill="#5f5f5f" d="M-15 46l32-27-32 10z"/><path fill="#bcbcbc" d="M39 9l5 6v-5z"/><path fill="#adadad" d="M45 15h6v-4z"/><path fill="#030303" d="M68 27l-6 4v6z"/><path fill="#535353" d="M47 39l11 1 5 26z"/><path fill="#b2b2b2" d="M47 32l5-4-10 4z"/><path d="M51 36l-7 1 4 1zm29-25l36 4-15 15z"/><path fill="#818181" d="M39 10l4 20 3-7z"/><path fill="#c1c1c1" d="M34 29l7-4-3-14z"/><path d="M46 8L24-3 35 8z"/></svg>