<svg xmlns="http://www.w3.org/2000/svg" viewBox="0 0 400 200"><style>@keyframes a{from{opacity: 0}to{opacity: 1}}g&gt;*{opacity: 0;animation: a .5s forwards}</style><path fill="#494949" d="M0 0h400v200H0z"/><path fill="#c5c5c5" d="M255 120l-137 14-9-90 137-14z"/><path d="M269 69l38-104 141 52-38 104zM13-11l64 72-51 46-64-72zm103 25l31-61 88 44-31 61z"/><path fill="#bdbdbd" d="M178 88l-36 31L37-2l35-31z"/><path fill="#939393" d="M103 258l-48-74 91-59 47 74z"/><path d="M219 160l55-70 33 26-55 70zm177-51L277 77l16-59 119 32z"/><path fill="#858585" d="M315 84l56 24-41 97-56-24z"/><path fill="#7e7e7e" d="M335 0L170 107l-19-30L316-30z"/><path d="M-15 85l-1-46 111-3 1 45zm199-30l-20-28 72-52 20 28zm-15 30l3-21 39 6-4 21zm-76 62l-15-35 33-14 15 35z"/><path fill="#c4c4c4" d="M132 34l39 3-5 71-39-2z"/><path d="M243 48l31-18 19 33-31 18zm-63-33l-41 25-24-41 41-25z"/><path fill="#797979" d="M78 95l-79 26-7-21 79-25z"/><path fill="#b1b1b1" d="M254 101l-58-47 14-19 59 48z"/><path d="M60 64L1 98l-43-76 58-34z"/><path fill="#969696" d="M300 97l7-16 98 46-7 15z"/><path fill="#6a6a6a" d="M280 96l-71 48-22-32 71-48z"/><path d="M307 35l59-31 32 63-60 30zm-32 102l1 13-96 8-1-12zM71 213l-16 13-34-41 16-13z"/></svg>