<svg xmlns="http://www.w3.org/2000/svg" viewBox="0 0 400 200"><style>@keyframes fadeIn{from{opacity: 0}to{opacity: 1}}g.animated&gt;*{opacity: 0;animation: fadeIn .5s forwards}</style><path fill="#494949" d="M0 0h400v200H0z"/><g transform="translate(1 1) scale(1.5625)" class="animated"><ellipse fill="#c2c2c2" cx="107" cy="56" rx="36" ry="36" style="animation-delay:0s"/><ellipse cx="237" cy="19" rx="48" ry="48" style="animation-delay:.19s"/><ellipse cx="13" cy="32" rx="28" ry="28" style="animation-delay:.38s"/><ellipse cx="118" rx="29" ry="29" style="animation-delay:.56s"/><ellipse fill="#898989" cx="135" cy="56" rx="31" ry="31" style="animation-delay:.75s"/><ellipse fill="#949494" cx="83" cy="127" rx="38" ry="38" style="animation-delay:.93s"/><ellipse fill="#b1b1b1" cx="66" cy="23" rx="18" ry="18" style="animation-delay:1.1s"/><ellipse cx="187" cy="35" rx="19" ry="19" style="animation-delay:1.28s"/><ellipse cx="241" cy="31" rx="36" ry="36" style="animation-delay:1.45s"/><ellipse cx="162" cy="95" rx="19" ry="19" style="animation-delay:1.61s"/><ellipse fill="#a8a8a8" cx="45" rx="23" ry="23" style="animation-delay:1.76s"/><ellipse fill="#c6c6c6" cx="88" cy="43" rx="21" ry="21" style="animation-delay:1.91s"/><ellipse fill="#747474" cx="210" cy="92" rx="34" ry="34" style="animation-delay:2.05s"/><ellipse cx="94" rx="22" ry="22" style="animation-delay:2.19s"/><ellipse cx="4" cy="28" rx="29" ry="29" style="animation-delay:2.31s"/><ellipse fill="#bababa" cx="145" cy="33" rx="15" ry="15" style="animation-delay:2.43s"/><ellipse fill="#363636" cx="121" cy="42" rx="15" ry="15" style="animation-delay:2.53s"/><ellipse fill="#848484" cx="183" rx="23" ry="23" style="animation-delay:2.63s"/><ellipse cx="44" cy="39" rx="14" ry="14" style="animation-delay:2.71s"/><ellipse fill="#030303" cx="180" cy="78" rx="16" ry="16" style="animation-delay:2.79s"/><ellipse cx="122" rx="27" ry="27" style="animation-delay:2.85s"/><ellipse fill="#c3c3c3" cx="100" cy="33" rx="14" ry="14" style="animation-delay:2.91s"/><ellipse cx="102" cy="89" rx="7" ry="7" style="animation-delay:2.95s"/><ellipse cx="199" cy="34" rx="21" ry="21" style="animation-delay:2.98s"/><ellipse fill="#151515" cx="58" cy="77" rx="17" ry="17" style="animation-delay:2.99s"/></g></svg>