<svg xmlns="http://www.w3.org/2000/svg" viewBox="0 0 400 200"><style>@keyframes fadeIn{from{opacity: 0}to{opacity: 1}}g.animated&gt;*{opacity: 0;animation: fadeIn .5s forwards}</style><path fill="#494949" d="M0 0h400v200H0z"/><g class="animated"><path fill="#c2c2c2" d="M56-5l82 143 164-51z" style="animation-delay:0s"/><path d="M396-24L245 59l179 64zM95 70L-10-24-24 96zm4-72l199-22-111 73z" style="animation-delay:.26s"/><path fill="#959595" d="M207 193L38 224l97-98z" style="animation-delay:.52s"/><path d="M234 198l29-147 143-67z" style="animation-delay:.78s"/><path fill="#b8b8b8" d="M301-24l-64 97-44-24z" style="animation-delay:1.03s"/><path fill="#7f7f7f" d="M418 127L299 77l-30 136z" style="animation-delay:1.27s"/><path fill="#d2d2d2" d="M174 34l-59 6 20 100z" style="animation-delay:1.5s"/><path d="M91-24L257 4 138 35zm-104 1L87 65l-110 36zm250 74l134-35 53 110zm-72 17l23 25 30-19z" style="animation-delay:1.72s"/><path fill="#080808" d="M315 109l-145 40 101 19z" style="animation-delay:1.93s"/><path fill="#909090" d="M145 84L99-24 1-15z" style="animation-delay:2.12s"/><path fill="#9d9d9d" d="M331 88l-86-4 134 47z" style="animation-delay:2.3s"/><path fill="#161616" d="M121 138L-2 126l114-39z" style="animation-delay:2.46s"/><path d="M204 41l84-65-175 44z" style="animation-delay:2.6s"/><path fill="#8e8e8e" d="M279 98l-77 50 21-119z" style="animation-delay:2.72s"/><path d="M388 149l7 30-55-49zM66 202l-40 2 8-36z" style="animation-delay:2.82s"/><path fill="#707070" d="M116 224L68 113l-56 30z" style="animation-delay:2.9s"/><path fill="#404040" d="M220 112l32-30-93 36z" style="animation-delay:2.95s"/><path d="M107 77l-131 3 9-104zm131-36l183 86-26-89z" style="animation-delay:2.99s"/></g></svg>