<svg xmlns="http://www.w3.org/2000/svg" viewBox="0 0 400 200"><path fill="#494949" d="M0 0h400v200H0z"/><path fill="#c3c3c3" d="M141 141l155-54L49-7z"/><path d="M424 123L399-23 241 57zM99 66L-16-24l-8 122zm0-70l88 55 106-75z"/><path fill="#b8b8b8" d="M188 54l47 25 64-103z"/><path fill="#949494" d="M251 224L66 199l66-70z"/><path d="M370-7l47 113-163-35zM266 182l-72-33 102-50z"/><path fill="#898989" d="M318 84l75 34-131 105z"/><path fill="#c7c7c7" d="M174 32l-62 11 25 123z"/><path d="M-10-18l117 97-131 5zm276-6L101 23l109 17zM190 93l-31-25 59 3z"/><path fill="#929292" d="M-19-24l156 94-30-77z"/><path fill="#161616" d="M85 93L7 123l141 22z"/><path d="M82-24L257 4 141 35zm158 62l28 57 156-50zM32 163l36 44-42 17z"/><path fill="#a6a6a6" d="M368 126L265 87l75 6z"/><path fill="#6d6d6d" d="M213 146l89-67-181 42z"/><path fill="#707070" d="M65 115l58 109L6 145z"/><path fill="#c1c1c1" d="M220 38l-11 55 47-27z"/><path fill="#020202" d="M240 159l22-64 48 15z"/><path fill="#656565" d="M391 185l-64-76-97 107z"/><path d="M365 4l53 122-141-66zm6 136l25 36-62-50zM74 66L-9 98l5-122z"/><path fill="#717171" d="M-15 120l139-38-90-3z"/><path d="M218 141l-16 16-56-12z"/><path fill="#747474" d="M285-7l81-9-161 79z"/><path fill="#575757" d="M118 106L65 26l42 15z"/><path fill="#9d9d9d" d="M388 116l14 83 21-55z"/><path fill="#4b4b4b" d="M323 137l31 54-103-84z"/><path fill="#a1a1a1" d="M168 137l56-8-39 17z"/><path d="M291-24H146l38 76z"/><path fill="#909090" d="M116 173l86-8-73-25z"/><path fill="#050505" d="M109 87l-19 37 34 13z"/><path fill="#0b0b0b" d="M143 127l27 17 3-13z"/><path fill="#bebebe" d="M181 45l-49 92 5-97z"/><path fill="#3b3b3b" d="M212 112h-35l71-28z"/><path fill="#aeaeae" d="M174 124l45-3 35-31z"/><path fill="#494949" d="M202 152l-75 72 168-36z"/><path fill="#060606" d="M184 85l23-1 8-27z"/><path fill="#b2b2b2" d="M226 31l22 40-57-23z"/><path fill="#a5a5a5" d="M112 74l108 17-99 32z"/><path fill="#0f0f0f" d="M281 204l143-19-80 39z"/><path fill="#8a8a8a" d="M321 151l-17 44-34-25z"/><path fill="#666" d="M323 87l-60-13-48 19z"/><path d="M282 162l-47-16 31-37z"/><path fill="#6a6a6a" d="M156 60l34 16 39-13z"/><path d="M385 148l-8 23 19 6zm16-99l23 86-84-53z"/><path fill="#7a7a7a" d="M341 163l-9-34 81 67z"/><path d="M-1-12L-16 98 85 66zm19 133l13 9 37-26z"/><path fill="#8c8c8c" d="M60-24l58 101 11-51z"/><path fill="#373737" d="M146 110l47 2-27 8z"/><path fill="#222" d="M196 134l28-13-30 2z"/><path d="M268 104l39 19 2-14zM140 34L109-7l136 8z"/><path fill="#2a2a2a" d="M320 181l3-22 36 18z"/><path fill="#515151" d="M157 60l17 16-20-33z"/><path fill="#6b6b6b" d="M43 176l119-53-83 81z"/><path fill="#424242" d="M62 148l54 36L74 77z"/><path fill="#bdbdbd" d="M138 115l27 12 8-8z"/><path fill="#4d4d4d" d="M251 52l67-32-97 18z"/><path fill="#5f5f5f" d="M424 149l-62-8 3-34z"/><path fill="#3e3e3e" d="M376 35l-2-26 44 53z"/><path fill="#a2a2a2" d="M199 134l16 6 26-19z"/><path fill="#949494" d="M377 109l-82-25 51 36z"/><path d="M38 181l43 28-58 15zM212 10l-28 47-7-56z"/><path fill="#b5b5b5" d="M163 32l21 17-43-17z"/><path fill="#adadad" d="M88 188l116 36h-83z"/><path d="M335-24l77 25 12 37z"/><path fill="#afafaf" d="M257 73l-14-16-53 39z"/><path fill="#3f3f3f" d="M360 149l-45-33 19-3z"/><path fill="#797979" d="M343 177l47 7-45 11z"/><path fill="#464646" d="M291 140h35l-77-38z"/><path fill="#c2c2c2" d="M121 81l25-47 13 75z"/><path fill="#787878" d="M60 138l-25 22 8-44z"/><path fill="#9a9a9a" d="M226 63l-35-9 41-33z"/><path d="M187 152l11-14 23 11z"/><path fill="#626262" d="M-21 99l20 32 86-57z"/><path fill="#5f5f5f" d="M260 76l34 31 19-22z"/><path fill="#606060" d="M115 224l133-23-71-47z"/><path d="M176 77l36 2-30 8z"/><path fill="#363636" d="M6 224l36-109-4 61z"/><path fill="#5b5b5b" d="M-24 151l175 42-63-45z"/><path d="M356 195l11 23 4-25z"/><path fill="#838383" d="M93 81l17 9-36 1z"/><path fill="#6c6c6c" d="M182 98l8-13-34 6z"/><path fill="silver" d="M395 177l12 4 17-39z"/><path d="M376 95L259 73 370 2z"/><path fill="#9b9b9b" d="M162 157l-32 8-1-27z"/><path fill="#adadad" d="M185 126l-23-2 50-15z"/><path fill="#212121" d="M148 146l-14-11 31 9z"/><path fill="#bababa" d="M184 62l6-13 12 19z"/><path fill="#282828" d="M199 135l-23-6 28-5z"/><path fill="#7c7c7c" d="M112 137l-13 23 80 24z"/></svg>