<svg xmlns="http://www.w3.org/2000/svg" viewBox="0 0 256 128"><path fill="#4a4a4a" d="M0 0h256v128H0z"/><path fill="#c2c2c2" d="M93 93L30-5l157 58z"/><path d="M266 77L157 38l97-53zM-8-15l71 59-65 16zm129 47L38-15l148 2z"/><path fill="#949494" d="M85 82l-60 62 112-18z"/><path fill="#b9b9b9" d="M149 52l-25-19 67-48z"/><path d="M272 67L165 48l67-50zM118 97l54 15 24-47z"/><path fill="#888" d="M255 76l-51-22-39 90z"/><path fill="#d0d0d0" d="M114 22L87 95 73 27z"/><path d="M90 22L57-15 160 7zM-11-15l-4 68 82-3zm132 76l16-13-33-6z"/><path fill="#121212" d="M9 77l60-20 14 32z"/><path d="M151 29l121 54-34-69zm17-29l-48 33-40-48z"/><path fill="#6e6e6e" d="M165 47L74 94l81-6z"/><path fill="#939393" d="M7-4l61 36 5-47z"/><path fill="#a0a0a0" d="M216 59l27 24-75-27z"/><path d="M42 128l-24 7 3-27z"/><path fill="#1d1d1d" d="M171 71l37 24-48-77z"/><path fill="#757575" d="M53 137l82-34L9 83z"/><path d="M237 88l18 26-36-29zm-127 8l-1-13-18 10z"/><path fill="silver" d="M140 26l24 17-28 18z"/><path fill="#727272" d="M232 95l-62 35 81-10z"/><path d="M-9-15l-6 82 69-28z"/><path fill="#7d7d7d" d="M224-5l-39-10-68 65z"/><path fill="#727272" d="M78 56l-90 20 49-27z"/><path d="M170 69l11 34-33-7z"/><path fill="#4f4f4f" d="M76 67L40 11l25 17z"/><path fill="#999" d="M259 128l13-42-23-10z"/><path d="M58-15l33 37 96-27z"/><path fill="#1f1f1f" d="M224 113l-17 4-1-20z"/><path fill="#afafaf" d="M76 76l-1-22 67 2z"/><path d="M133 44v11h-16z"/><path fill="#6c6c6c" d="M160 48l51 9-109 18z"/><path fill="#bababa" d="M143 76l21-18-44 20z"/><path fill="#a9a9a9" d="M125 87l12 4 22-15z"/><path fill="#a1a1a1" d="M79 111l5-23 23 15z"/><path d="M200 69l-6 10-33-14z"/><path fill="#575757" d="M39 73l55 52-100-24z"/><path fill="#6d6d6d" d="M187 87l-17-11 36 5z"/><path fill="#060606" d="M6 84l20-1 22-23z"/><path fill="#090909" d="M200 129l54-7 18 22z"/><path d="M119 36L103-8l37-1z"/><path fill="#969696" d="M181 104l23 9-33 3z"/><path fill="#b5b5b5" d="M121 33l33 4-10-16z"/><path d="M166 44l98 26-31-67z"/><path fill="#474747" d="M149 24l53-9-44 21z"/><path fill="#494949" d="M192 122l-54-24-63 43z"/><path fill="#0f0f0f" d="M54 98l18-40 5 28z"/><path fill="#626262" d="M231 89l41 10-35-33z"/><path fill="#cacaca" d="M110 87l15 1-12 4z"/><path fill="#494949" d="M146 41l-12-3 1 13z"/><path fill="#2a2a2a" d="M118 67l-6 8 29-7z"/><path fill="#222" d="M106 77l8-5-16 1z"/><path d="M180-13l-49 39-57-12z"/><path fill="#858585" d="M49-15l38 38-13 37z"/><path d="M129 99l-21-4 30-4z"/><path fill="#bababa" d="M92 75l33 3-18 4z"/><path fill="#040404" d="M244 96l12 7-7 11z"/><path fill="#3b3b3b" d="M104 89L84 78l45 6z"/><path fill="#909090" d="M194 53l59 20-54-3z"/><path fill="#7f7f7f" d="M24 104l16-16-11-13z"/><path fill="#c2c2c2" d="M108 21L91 77l-3-52z"/><path fill="#707070" d="M116 61l-16-31 7 36z"/><path d="M272 94l-67-64 53 3z"/><path fill="#3f3f3f" d="M40 91l28 14-20-58z"/><path d="M53 46L-5-15l-10 76zm-9 95l-22-9 2-26z"/><path fill="#888" d="M222 107l19-4-28-14z"/><path fill="#6b6b6b" d="M-15 102l42-49-42 14z"/><path d="M272 19L231 1l41-2z"/><path fill="#424242" d="M237 89l-36-9 7-8z"/><path fill="#262626" d="M132 66l19-5-12 8z"/><path fill="#959595" d="M272 114l-17 9-1-34z"/><path fill="#363636" d="M81 84l12 6-19 1z"/><path fill="#7f7f7f" d="M181 92l22 17-11 25z"/><path fill="#a9a9a9" d="M134 65l11-17-39 20z"/><path d="M125 85l-1-4 10 1z"/><path fill="#aaa" d="M74 144l-16-24 62 24z"/><path fill="#949494" d="M74 70l8 12 30-1z"/><path fill="#151515" d="M127 57l8-5V37z"/><path d="M202 31l-33 17-10-14z"/><path fill="#2a2a2a" d="M143 86l33 33-32-5z"/><path fill="#b4b4b4" d="M107 22l-2 31 10-24z"/><path fill="#5e5e5e" d="M108 48h23l-31-12z"/><path d="M110 52l23-2-5 6z"/><path fill="#7d7d7d" d="M145 17l32 4 15-36z"/><path fill="#777" d="M36 58l29-6 5 10z"/><path fill="#3d3d3d" d="M240 22l2-11 25 25z"/><path fill="#bababa" d="M127 44l2-18-9 11z"/><path fill="silver" d="M138 69l-26 9 18-1z"/><path fill="#949494" d="M159 65l12-4-12-24z"/><path fill="gray" d="M45 25l7-13L8-15z"/><path fill="#626262" d="M162 50l28 18 12-14z"/><path d="M68 0l96 2-39 27z"/><path fill="#979797" d="M223 116l-1 13 6-7z"/><path d="M135 97l35-17 5 14z"/></svg>