<svg xmlns="http://www.w3.org/2000/svg" viewBox="0 0 400 200"><path fill="#494949" d="M0 0h400v200H0z"/><path fill="#c8c8c8" d="M243 129H112V41h131z"/><path d="M311-35l128 47-39 106-128-47zM-49 36L1-16l75 73-50 51zM110 7l33-62 92 49-33 62z"/><path fill="#bcbcbc" d="M176 88l-34 30L38-2l34-30z"/><path fill="#969696" d="M136 125l78 78-70 71-79-79z"/><path d="M254 183l-32-28 54-64 32 27zm2-100V34h162v49z"/><path fill="#818181" d="M322-37l21 31-160 107-21-31z"/><path fill="#828282" d="M377 109l-53 127-59-25 53-127z"/><path d="M-23 88l-5-44L87 32l5 44zM257 6l-74 48-38-59 73-48zm-53 82l-40-5 2-16 40 5zm-77 48l-35 13-14-40 35-13z"/><path fill="#b1b1b1" d="M272 89l-22 19-52-57 22-20z"/><path fill="#c9c9c9" d="M130 96l8-64 34 5-8 63z"/><path d="M303 76l40-85 96 45-40 84zM150-28l28 43-38 24-28-43z"/><path fill="#656565" d="M243 86l12 39-81 25-12-39z"/><path fill="#8c8c8c" d="M261 75l190 58-4 15-190-58z"/><path fill="#7b7b7b" d="M-6 119l-6-19 83-24 5 20z"/><path d="M-54 6l52-34 58 89L4 95zM55 224l-37-42 16-14 37 43zm95-74l1-8 110 10-1 8z"/><path fill="#737373" d="M47 122l81 76-27 28-81-75z"/><path d="M68 99l5 10-58 28-5-10zM281-12l-98 64-25-38 98-64z"/><path fill="#818181" d="M146 46l-38 35L15-19l37-36z"/><path d="M377 150l-5 8-26-19 6-7zM209 65l7 8-20 20-8-8z"/><path fill="#050505" d="M294 78l-29 13-19-42 28-14z"/><path d="M325 31l27-21 99 126-27 22z"/><path fill="#939393" d="M317-18l7 14-127 67-7-14z"/><path fill="#070707" d="M251 181l-25-44 34-19 25 43z"/><path fill="#454545" d="M356 212l-74-82 14-13 74 83z"/><path fill="#5a5a5a" d="M259 20l109-54 13 25-110 54z"/><path fill="#9b9b9b" d="M161 152l-12 31-30-12 11-30z"/><path fill="#aeaeae" d="M402 135l2 47h-8l-2-47z"/><path fill="#9f9f9f" d="M231 135l-59 11-1-7 58-12z"/><path fill="#a8a8a8" d="M260 98l-116 43-2-6 116-43z"/><path d="M373 154l11-6 13 25-11 6z"/><path fill="#7d7d7d" d="M347 190l12-37 17 5-11 38z"/><path fill="#3b3b3b" d="M280 103l-96 37-3-7 96-37z"/><path fill="#141414" d="M210 106v2l-53 12v-1z"/><path d="M16 7l77 65-11 13L5 21z"/><path fill="#999" d="M309 171l-2 15-36-5 2-15z"/><path fill="#0d0d0d" d="M448 188l1 9-151 14-1-10z"/><path fill="#434343" d="M379 15l36 32-11 12-36-33z"/><path d="M184 5l-6 31-60-11 5-31z"/><path fill="#c1c1c1" d="M176 61l-37-5 2-22 37 5z"/><path fill="#5b5b5b" d="M251 200l-27 44-77-48 27-44z"/><path d="M264 115l2-14 43 7-2 14z"/><path fill="#c6c6c6" d="M134 93l14 2-5 42-14-2z"/><path fill="#9d9d9d" d="M369 115l-9 15-49-28 8-15z"/><path fill="#2f2f2f" d="M264 187l-49-21 10-23 49 21z"/><path fill="#343434" d="M245 83l4 6-36 21-4-7z"/><path fill="#d2d2d2" d="M208 88l30-33 6 5-30 34z"/><path d="M384 77l-9 26-113-34 8-27zM-15 50l72-21 13 45-72 21z"/><path fill="#6b6b6b" d="M268 118l7-6 46 46-7 7z"/><path fill="#020202" d="M96 119l19-9 9 20-18 8z"/><path fill="#363636" d="M96 148l-31-2 3-52 31 3z"/><path d="M187 143l53-2v11l-53 2z"/><path fill="#838383" d="M118 83v10H77v-9z"/><path fill="#7f7f7f" d="M168 116l-17-76 5-1 16 76z"/><path fill="#646464" d="M356 137l9-23 77 28-8 24z"/><path fill="#686868" d="M313 86l-5 21-50-10 4-21z"/><path fill="#797979" d="M406 188l-75 8-1-11 75-8z"/><path fill="#585858" d="M118 183l-41 3-3-45 41-3z"/><path fill="#bfbfbf" d="M186 57l23-16 4 7-23 16z"/><path d="M276 59L462-61l14 22L290 82z"/><path fill="#575757" d="M-8 167l26-41 33 21-27 41z"/><path fill="#151515" d="M146 127l24 8-2 5-24-8z"/><path d="M209 77v5l-32 5-1-4z"/><path fill="#979797" d="M212 37l56-38 6 9-56 38z"/></svg>