<svg xmlns="http://www.w3.org/2000/svg" viewBox="0 0 400 200"><style>@keyframes fadeIn{from{opacity: 0}to{opacity: 1}}g.animated&gt;*{opacity: 0;animation: fadeIn .5s forwards}</style><path fill="#494949" d="M0 0h400v200H0z"/><g class="animated"><ellipse fill="#bfbfbf" rx="1" ry="1" transform="matrix(-83.94972 -15.21712 8.52992 -47.05782 183 85)" style="animation-delay:0s"/><ellipse rx="1" ry="1" transform="matrix(122.35037 0 0 50.6566 420 56)" style="animation-delay:.19s"/><ellipse rx="1" ry="1" transform="matrix(74.1484 25.9274 -12.89442 36.87607 1 41)" style="animation-delay:.38s"/><ellipse rx="1" ry="1" transform="matrix(-10.191 38.0333 -64.7538 -17.35073 173 1)" style="animation-delay:.56s"/><ellipse fill="#bdbdbd" rx="1" ry="1" transform="matrix(17.46113 -16.91445 70.28413 72.55573 101 33)" style="animation-delay:.75s"/><ellipse fill="#8d8d8d" rx="1" ry="1" transform="matrix(5.64789 -40.98968 72.65396 10.01085 130 186)" style="animation-delay:.93s"/><ellipse rx="1" ry="1" transform="matrix(-.6742 28.16701 -111.44258 -2.6675 360 63)" style="animation-delay:1.1s"/><ellipse rx="1" ry="1" transform="rotate(116 87 152) scale(43.17268 27.02265)" style="animation-delay:1.28s"/><ellipse fill="#b0b0b0" rx="1" ry="1" transform="matrix(39.38169 20.06597 -5.7616 11.3078 338 108)" style="animation-delay:1.45s"/><ellipse fill="#9c9c9c" rx="1" ry="1" transform="rotate(61 127 241) scale(16.81365 95.3183)" style="animation-delay:1.61s"/><ellipse rx="1" ry="1" transform="matrix(-78.80556 -15.3498 5.11117 -26.24066 9 51)" style="animation-delay:1.76s"/><ellipse fill="#b8b8b8" rx="1" ry="1" transform="matrix(-15.73092 -2.71038 12.64742 -73.40511 142 103)" style="animation-delay:1.91s"/><ellipse rx="1" ry="1" transform="matrix(-18.97232 -.26492 .14286 -10.23067 191 79)" style="animation-delay:2.05s"/><ellipse rx="1" ry="1" transform="rotate(83 87 114) scale(19.20048 62.57843)" style="animation-delay:2.19s"/><ellipse fill="#7b7b7b" rx="1" ry="1" transform="matrix(46.83453 -19.46556 14.55622 35.02255 320 179)" style="animation-delay:2.31s"/><ellipse rx="1" ry="1" transform="matrix(19.59484 -33.03647 84.55199 50.15012 399 79)" style="animation-delay:2.43s"/><ellipse rx="1" ry="1" transform="matrix(-22.1284 -9.39295 16.19053 -38.1425 198 12)" style="animation-delay:2.53s"/><ellipse fill="#232323" rx="1" ry="1" transform="matrix(2.85077 -46.58271 17.56729 1.07508 97 118)" style="animation-delay:2.63s"/><ellipse rx="1" ry="1" transform="rotate(-85 28 22) scale(47.25841 40.84683)" style="animation-delay:2.71s"/><ellipse fill="#6a6a6a" rx="1" ry="1" transform="matrix(-45.78018 19.91256 -9.71444 -22.33409 216 115)" style="animation-delay:2.79s"/><ellipse rx="1" ry="1" transform="matrix(.92035 6.80704 -53.93684 7.29255 230 145)" style="animation-delay:2.85s"/><ellipse rx="1" ry="1" transform="matrix(9.96342 -7.04988 14.62644 20.6712 45 198)" style="animation-delay:2.91s"/><ellipse fill="#c3c3c3" rx="1" ry="1" transform="rotate(59 60 236) scale(21.98949 14.4502)" style="animation-delay:2.95s"/><ellipse rx="1" ry="1" transform="rotate(65 -68 95) scale(7.45884 30.03719)" style="animation-delay:2.98s"/><ellipse fill="#b9b9b9" rx="1" ry="1" transform="matrix(-16.8518 -13.4752 26.14676 -32.69856 145 69)" style="animation-delay:2.99s"/></g></svg>