<svg xmlns="http://www.w3.org/2000/svg" viewBox="0 0 400 200"><path fill="#494949" d="M0 0h400v200H0z"/><path fill="#c8c8c8" d="M115 40h134v87H115z"/><path d="M279 10h122v81H279zM1 23h75v62H1zM123 1h112v33H123z"/><path fill="#b6b6b6" d="M56 1h59v40H56z"/><path fill="#b2b2b2" d="M120 34h42v167h-43z"/><path d="M335 1h66v103h-66z"/><path fill="#7a7a7a" d="M291 90h72v106h-72z"/><path fill="#090909" d="M234 106h73v56h-73z"/><path fill="#050505" d="M174 1h36v86h-36z"/><path fill="#b5b5b5" d="M91 46h149v24H91z"/><path d="M256 40h140v39H256zM1 1h39v90H1z"/><path fill="#7d7d7d" d="M65 156h128v45H65z"/><path fill="#8c8c8c" d="M249 1h67v30h-67z"/><path fill="#020202" d="M81 115h48v25H81z"/><path fill="#8c8c8c" d="M223 23h34v95h-34z"/><path d="M1 37h84v40H1z"/><path fill="#858585" d="M282 124h25v77h-25z"/><path d="M109 1h143v17H109zm42 142h128v11H151z"/><path fill="#929292" d="M73 23h61v26H73z"/><path fill="gray" d="M221 84h97v14h-97z"/><path d="M245 43h142v20H245z"/><path fill="#6b6b6b" d="M146 104h95v37h-95z"/></svg>