<svg xmlns="http://www.w3.org/2000/svg" viewBox="0 0 400 200"><style>@keyframes a{from{opacity: 0}to{opacity: 1}}g&gt;*{opacity: 0;animation: a .5s forwards}</style><path fill="#494949" d="M0 0h400v200H0z"/><path fill="#c9c9c9" d="M116 40h133v87H116z" style="animation-delay:0s"/><path d="M281 7h120v84H281zM1 23h75v62H1zM123 1h109v33H123z" style="animation-delay:.261s"/><path fill="#b6b6b6" d="M54 1h59v40H54z" style="animation-delay:.521s"/><path fill="#aaa" d="M113 31h49v170h-49z" style="animation-delay:.776s"/><path d="M334 1h67v101h-67zM229 109h53v57h-53z" style="animation-delay:1.026s"/><path fill="#050505" d="M176 1h34v87h-34z" style="animation-delay:1.268s"/><path fill="#7b7b7b" d="M293 93h72v103h-72z" style="animation-delay:1.5s"/><path d="M1 2h40v86H1zm256 35h134v42H257z" style="animation-delay:1.721s"/><path fill="#b7b7b7" d="M95 48h148v22H95z" style="animation-delay:1.928s"/><path fill="#8e8e8e" d="M251 1h65v30h-65z" style="animation-delay:2.121s"/><path d="M87 113h40v28H87z" style="animation-delay:2.298s"/><path fill="#797979" d="M56 156h142v45H56z" style="animation-delay:2.457s"/><path d="M131 1h90v33h-91z" style="animation-delay:2.598s"/><path fill="#979797" d="M249 85h78v16h-78z" style="animation-delay:2.719s"/><path d="M1 34h83v43H1zm273 72h35v18h-35z" style="animation-delay:2.819s"/><path fill="#8b8b8b" d="M218 26h33v106h-33z" style="animation-delay:2.898s"/><path d="M174 145h100v14H174zM109 1h143v14H109zm242 48h50v57h-50z" style="animation-delay:2.954s"/><path fill="#949494" d="M70 24h61v25H70z" style="animation-delay:2.989s"/></svg>