<svg xmlns="http://www.w3.org/2000/svg" viewBox="0 0 400 200"><style>@keyframes fadeIn{from{opacity: 0}to{opacity: 1}}g.animated&gt;*{opacity: 0;animation: fadeIn .5s forwards}</style><path fill="#494949" d="M0 0h400v200H0z"/><g transform="translate(1 1) scale(1.5625)" class="animated"><ellipse fill="#c9c9c9" rx="1" ry="1" transform="matrix(-1.21568 -29.00517 47.3626 -1.98508 118 53)" style="animation-delay:0s"/><path d="M255 73l5-89-107 51z" style="animation-delay:.2s"/><ellipse rx="1" ry="1" transform="matrix(-53.59103 -20.78659 8.78005 -22.6363 0 25)" style="animation-delay:.39s"/><ellipse rx="1" ry="1" transform="matrix(-1.94022 -26.17196 42.12565 -3.12293 117 0)" style="animation-delay:.59s"/><path fill="#bcbcbc" d="M20 4l21-24 71 64-21 24z" style="animation-delay:.78s"/><ellipse fill="#8f8f8f" cx="78" cy="113" rx="46" ry="21" style="animation-delay:.96s"/><ellipse cx="234" cy="37" rx="73" ry="20" style="animation-delay:1.15s"/><path d="M171 114l-47-19 64-30z" style="animation-delay:1.33s"/><path fill="#b1b1b1" d="M118 34l69-46 7 10-69 46z" style="animation-delay:1.5s"/><path fill="#131313" d="M106 56l30-1V41l-10-56z" style="animation-delay:1.67s"/><path fill="#8b8b8b" d="M237 72l11-13-71 84 22-92z" style="animation-delay:1.83s"/><ellipse rx="1" ry="1" transform="matrix(-51.23476 1.19042 -.51506 -22.16806 6 34)" style="animation-delay:1.98s"/><path fill="#b4b4b4" d="M111 24l-17 89-9-9-18-88z" style="animation-delay:2.12s"/><ellipse rx="1" ry="1" transform="matrix(-2.53047 -17.32455 47.95586 -7.00455 118 2)" style="animation-delay:2.26s"/><path fill="#b0b0b0" d="M101 32l13 12 50 4-11-21z" style="animation-delay:2.38s"/><path d="M267-16l-8 89-98-35z" style="animation-delay:2.49s"/><path fill="#0d0d0d" d="M47 64l25-6 7 28-25 6z" style="animation-delay:2.6s"/><path d="M126-5l16 18-24 20-16-18zM21 143l-5-32 3-5 25 25z" style="animation-delay:2.69s"/><ellipse fill="#717171" cx="128" cy="76" rx="32" ry="15" style="animation-delay:2.77s"/><ellipse fill="#6f6f6f" rx="1" ry="1" transform="matrix(6.79784 20.9216 -32.10045 10.43007 203 114)" style="animation-delay:2.84s"/><ellipse fill="#949494" rx="1" ry="1" transform="matrix(43.2476 17.91374 -2.69074 6.496 225 71)" style="animation-delay:2.9s"/><ellipse cy="30" rx="30" ry="30" style="animation-delay:2.94s"/><path fill="#020202" d="M200 72l-27-11-32 45z" style="animation-delay:2.97s"/><path fill="#727272" d="M29 49l38 4-5 5-78 21z" style="animation-delay:2.99s"/></g></svg>