<svg xmlns="http://www.w3.org/2000/svg" viewBox="0 0 400 200"><path fill="#494949" d="M0 0h400v200H0z"/><path fill="#bebebe" d="M242 135L89 114l12-85 153 21z"/><path d="M276 72l42-115L457 8l-42 115zM-48 29l45-48 128 120-45 48zm249 25l-88-44 26-50 87 44z"/><path fill="#b7b7b7" d="M173 79l-31 30L16-21l31-30z"/><path fill="#919191" d="M59 185l82-67 77 95-83 67z"/><path d="M436 51l-16 62-151-37 15-63zM279 92l29 28-63 65-29-28z"/><path fill="#989898" d="M333 2L205 81l-17-28 127-79z"/><path fill="#c2c2c2" d="M368 107l-7 19-59-22 8-19z"/><path d="M251-36l20 31-89 58-20-31zM214 70l-1 17-47-2 1-17z"/><path fill="#7f7f7f" d="M96 97L1 118l-5-22 95-22z"/><path d="M10-18l52 78-70 47-52-78z"/><path fill="#7e7e7e" d="M316 225l-45-48 58-56 46 47z"/><path fill="#ccc" d="M113 108l26-73 34 11-26 74z"/><path d="M241 49l23-20 25 30-23 19zM186-6l6 32-64 13-6-32z"/><path fill="#adadad" d="M226 66l20-12 24 41-21 12z"/><path fill="#050505" d="M110 149l-22-43 19-10 22 43z"/><path fill="#6c6c6c" d="M71 115l27 51-45 24-27-51z"/><path d="M36 176l35 30-14 17-36-31z"/><path fill="#676767" d="M244 85l13 39-84 27-12-39z"/><path fill="#060606" d="M232 146l-1 13-87-7 1-12z"/><path d="M435 138L307 76l56-115 128 62z"/><path fill="#a5a5a5" d="M154 177l-28-2 6-91 28 2z"/><path d="M9 21l86 28-11 34-87-28z"/><path fill="#838383" d="M410 165l-52-42 15-18 52 42z"/><path fill="#747474" d="M108 81L75 52l34-40 33 28z"/><path fill="#030303" d="M259 117l27 46-31 18-27-45z"/><path d="M245-34l21 29-81 57-21-30z"/><path fill="#bfbfbf" d="M222 32l22 41-17 9-23-40z"/><path d="M17 127l27-20 7 8-28 21z"/><path fill="#7b7b7b" d="M237 92l3-18 94 16-4 19z"/><path fill="#c2c2c2" d="M146 33l27 3-2 23-27-2z"/><path fill="#bcbcbc" d="M157 133l-1-8 63-16 2 8z"/><path fill="#020202" d="M355 132l42 35-6 8-43-34z"/><path fill="#4f4f4f" d="M416-25L242 60l-7-14 174-85z"/><path fill="#c6c6c6" d="M248 64l-49 39-5-6 49-39z"/><path fill="#727272" d="M297 248l-36-8 25-118 36 8z"/><path d="M173 10l-29 28-38-40 30-28z"/><path fill="#919191" d="M171 140l77-16 1 6-76 16z"/><path d="M256 46l84-4 2 32-84 5z"/><path fill="#393939" d="M140 150l-3-8 112-34 3 8z"/><path d="M-16 99l-12-42 90-26 12 42z"/><path fill="#373737" d="M335 214l-29-12 17-42 29 12z"/><path fill="#0a0a0a" d="M319 200l87-9 1 8-87 9z"/><path fill="#9a9a9a" d="M211 39l67-48 7 9-68 48z"/><path fill="#272727" d="M182 117l-1-4 54-19 2 4z"/><path fill="gray" d="M38 84l88-2v11l-88 2z"/><path fill="#606060" d="M124 72l-10 12L-10-24 0-35z"/><path fill="#414141" d="M88 94l26 86-19 6-27-87z"/><path fill="#444" d="M372 33l11-17 43 27-10 18z"/><path fill="#7a7a7a" d="M415 187l-99 10-1-10 99-11z"/><path d="M198 88h-1l16-31 1 1z"/><path fill="#a6a6a6" d="M207 117l46-29 4 6-46 29z"/><path d="M274 103l34 5-2 15-34-4zm134 23l-99-62 25-41 100 62z"/><path fill="#5e5e5e" d="M150 194l25-42 61 37-25 42z"/><path d="M200 83l-2 6-27-5 1-6z"/><path fill="#a7a7a7" d="M394 144h4l7 41-5 1z"/><path fill="#636363" d="M168 79l-20-39 4-2 21 39z"/><path fill="#8a8a8a" d="M318 173l-17 22-27-19 18-23z"/><path fill="#838383" d="M191 178l-85-22 4-16 85 21z"/><path fill="#484848" d="M270 114l53 26-3 7-54-26z"/><path fill="#939393" d="M145 38l-14 23L38 7l13-23z"/><path fill="#050505" d="M34 166l30 42-12 9-30-42z"/><path fill="#383838" d="M212 177l5-26 54 11-5 26z"/><path d="M161 20l65-46 24 33-65 46z"/><path fill="#b5b5b5" d="M215 50l-23 14-5-9 22-14z"/><path fill="#1d1d1d" d="M211 155l-4-6 61-40 5 6z"/><path fill="#b7b7b7" d="M161 97l-24 38-18-11 24-39z"/><path fill="#353535" d="M175 123l-23-6 3-7 22 6z"/><path fill="#a4a4a4" d="M124 201l-4 10-30-13 4-10z"/><path fill="#020202" d="M197 150l-1 4-54-8 1-5z"/><path fill="#b7b7b7" d="M170 136l23-2 1 6-23 3z"/><path fill="#777" d="M369 175l-69-51 7-10 70 51z"/><path fill="#2f2f2f" d="M169 141l-29-11 2-7 30 11z"/><path fill="#717171" d="M366 143l-38-23 5-8 37 23z"/><path d="M90 83L56 49l8-9 35 34z"/><path d="M-62-1l34-36 92 86-34 37z"/><path fill="#606060" d="M-41 113l93-32 4 11-93 32z"/><path fill="#adadad" d="M61 137l-2 8-12-3 2-7z"/><path fill="#0f0f0f" d="M87 123l27-13 10 19-27 13z"/><path fill="#717171" d="M161 74v-9h61v9z"/><path fill="#b9b9b9" d="M181 54l-8 6-15-22 8-5z"/><path fill="#9a9a9a" d="M170 79l11 29-15 6-11-30z"/><path fill="#020202" d="M272 122l9 40-26 5-9-40z"/><path d="M130-16l31 33-20 19-32-32z"/><path fill="#070707" d="M388 148l5 29-11 2-5-29z"/><path fill="#888" d="M238 126l-3-4 26-15 2 4z"/><path d="M327 21l40-14 17 48-40 15z"/><path fill="#616161" d="M38 137l-24 40-16-9 24-41z"/><path fill="#4a4a4a" d="M271 116l57 24-3 9-58-25z"/><path d="M183 58l-1-1 18-63 1 1z"/><path fill="#0f0f0f" d="M67 97l5 8-40 27-5-8z"/><path fill="#3d3d3d" d="M61 35l3-3 49 53-4 3z"/><path fill="#131313" d="M220 127l-38 9v-2l38-9z"/><path d="M206 70l7 6-11 12-7-6z"/><path fill="#565656" d="M43 126l-2-6 49-10 2 6z"/></svg>