<svg xmlns="http://www.w3.org/2000/svg" viewBox="0 0 400 200"><path fill="#494949" d="M0 0h400v200H0z"/><path fill="#bfbfbf" d="M108 27l142 25-16 89-142-25z"/><path d="M269 70l42-116L445 3l-42 116zM-41 41L1-9 124 95l-42 50zM144 9l72-56 39 49-73 57z"/><path fill="#b9b9b9" d="M140 123L24-26l38-30L178 93z"/><path fill="#929292" d="M141 120l72 96-83 63-73-96z"/><path d="M307 117l-49 67-32-24 48-67z"/><path fill="#a3a3a3" d="M346-11L218 69l-16-25 129-80z"/><path d="M430 116L251 71l14-57 179 44zM221-9v42H118V-9z"/><path fill="#828282" d="M281 175l31-90 68 23-31 90z"/><path fill="#7a7a7a" d="M122 64l5 21-116 31-5-21z"/><path d="M168 87l-1-17 42-2 1 17zM0 96l-23-59 66-25 22 59z"/><path fill="#afafaf" d="M270 88l-19 18-50-51 19-19z"/><path d="M125 135l-19 7-14-38 20-7zm53 28l-3-13 95-24 4 13z"/><path fill="#676767" d="M243 60l-14-27 99-50 13 26z"/><path fill="#d3d3d3" d="M168 31l14 24-36 22-14-24z"/><path d="M343 1l88 79-35 40-88-80z"/><path fill="#989898" d="M294 80l94 36-5 15-95-36z"/><path fill="#676767" d="M178 150l-14-38 76-26 13 38z"/><path d="M23 191l15-16 28 30-15 15z"/><path fill="#656565" d="M68 208l-46-65 43-31 46 66z"/><path d="M135-49l85 59-29 41-84-59z"/></svg>