<svg xmlns="http://www.w3.org/2000/svg" viewBox="0 0 400 200"><path fill="#857a71" d="M0 0h400v200H0z"/><path fill="#fcffff" d="M-16-56l282 39-11 75-281-40z"/><path fill="#202b0f" d="M423 16l-1 85-163-3 2-85z"/><path fill="#fbffff" d="M173 99l-29 5L125-4l29-5z"/><path fill="#353d2c" d="M142 69l-156 51-17-50 156-51z"/><path fill="#5d3c2f" d="M-10 158l193-23 13 105L3 264z"/><path fill="#efffff" d="M210 3L-26 40l-5-29 237-37z"/><path fill="#fff" d="M336-6L197 34l-6-21 139-40z"/><path fill="#728fb4" d="M255 24l11 66-79 13-10-67z"/><path fill="#292e3f" d="M145 112l70-24 13 40-69 23z"/><path fill="#d9b09f" d="M241 98l96 4-2 39-95-4z"/><path fill="#c4a194" d="M125 71l35 65-43 23-35-65z"/><path fill="#726959" d="M356 19L177 57l-4-18L352 1z"/><path fill="#aac2df" d="M243 99l-48-25 23-43 48 25z"/><path fill="#faffff" d="M176 48l-14 54-18-4 14-55z"/><path fill="#d0a58c" d="M337 141l-2-39 99-4 1 39z"/><path fill="#080e07" d="M498 92l-241 8V88l240-9z"/><path fill="#f4ffff" d="M267-22l2 38-109 7-3-37z"/><path fill="#c5a392" d="M290 59l1-8 86 17-1 7z"/><path fill="#232d3e" d="M192 27l-22 124-8-1 23-125z"/><path fill="#5a594c" d="M93 23l5 39-117 16-6-38z"/><path fill="#b9b9bd" d="M181 23l-1 35-50-1 1-35z"/><path fill="#25331b" d="M59 69l45-12 8 29-46 12z"/><path fill="#95a3bb" d="M185 93l14 1-4 52-14-1z"/><path fill="#bdaaa3" d="M282 100l-16 69-37-8 16-69z"/><path fill="#56574e" d="M298 8l35-52 74 50-35 52z"/><path fill="#9a6e5c" d="M382 129l5 95-198 11-5-95z"/><path fill="#e0efff" d="M68-28l55 5-5 53-55-5z"/><path fill="#432519" d="M99 212l-53-7 4-31 53 7z"/><path fill="#c09a87" d="M322 16l2 7-60 16-2-7z"/><path fill="#503222" d="M32 113L3 137l-12-14 29-24z"/><path fill="#000e05" d="M293 70l-17 26-17-11 17-26z"/><path fill="#6e695f" d="M112 67l-75 2-1-41 75-1z"/><path fill="#896a5e" d="M232 162l-4 28-196-31 4-28z"/><path fill="#646b49" d="M255 19l55 48-13 16-56-49z"/><path fill="#190400" d="M173 144l-9 3-10-36 9-3z"/><path fill="#cebcb5" d="M246 158l-41-16 4-10 41 15z"/><path fill="#f5ffff" d="M182 34L315-9l1 5-132 43z"/><path fill="#a69277" d="M337 91l-13-12 25-27 13 11z"/><path fill="#727e91" d="M141 64l9 49-20 3-9-49z"/><path fill="#755443" d="M421 144l2 28-89 5-2-28z"/><path fill="#122214" d="M391 64h-27V35h27z"/><path fill="#d1e3ff" d="M54 20L13 38-6-6l42-17z"/><path fill="#563627" d="M193 131l50-19 3 9-50 19z"/><path fill="#debaa5" d="M91 101l33-34 9 9-33 34z"/><path fill="#11210e" d="M435 96l-70 2-1-23 70-3z"/><path fill="#133700" d="M301 77V66h34v11z"/><path fill="#a18d87" d="M77 55l-1-17 33-1 1 17z"/><path fill="#242e40" d="M200 14l-16 19-1-1 16-19z"/><path fill="#a6b3bf" d="M260 88l-20 96-11-2 20-96z"/><path fill="#9cb1ca" d="M161 156l12-1 2 18-12 2z"/></svg>