<svg xmlns="http://www.w3.org/2000/svg" viewBox="0 0 800 400"><path fill="#847a71" d="M0 0h800v400H0z"/><path fill="#fff" d="M323 98L745-48-48 8z"/><path fill="#1c270e" d="M736-48L486 192l362 3z"/><path fill="#514835" d="M270 45L8 448-48 77z"/><path fill="#f8ffff" d="M452 11L-48 73 36-48z"/><path fill="#b1bfd5" d="M523 155L473-48 105 252z"/><path fill="#2c3951" d="M302 320l65-275 94 185z"/><path fill="#532c1b" d="M102 317L5 448l437-75z"/><path fill="#d6ad9b" d="M848 220l-356-31-25 128z"/><path fill="#fffffe" d="M352 80l-41 134-47-128z"/><path fill="#fcffff" d="M727-42L114-8l313 66z"/><path fill="#636149" d="M670 189L848-36 452 52z"/><path fill="#273e27" d="M167 183l-203-63 331-6z"/><path fill="#a17967" d="M286 117v247l-334-78z"/><path fill="#9bb7d7" d="M358 123l156-40 3 150z"/><path fill="#081a0a" d="M692 189l-165-84-10 87z"/><path fill="#1d0f0b" d="M323 311l44-69-72-44z"/><path fill="#c5a193" d="M720 105l-131 9 147 34z"/><path fill="#916755" d="M211 448l637-109-206-103z"/><path fill="#0a1606" d="M848 195l-75-56-131 47z"/><path fill="#f4f4f4" d="M273 92l75 66-18 56z"/><path fill="#9b9eae" d="M395 333l-3-210-34 132z"/><path fill="#1c2028" d="M255 123l12-37-34-59z"/><path fill="#192634" d="M342 142l19 100 16-169z"/><path fill="#d4e9ff" d="M323 8L36-48-48 73z"/><path fill="#c6ac9a" d="M170 248l147 32-109-113z"/><path fill="#1c2c18" d="M767 130l-62-7L839-2z"/><path fill="#785b4d" d="M145 261L-48 373l562-25z"/><path fill="#060b13" d="M364 52l28-19-19 31z"/><path fill="#65625d" d="M208 48L61 58l234 78z"/><path fill="#4c5937" d="M489 70l131 113 10-125z"/><path fill="#d9ab98" d="M445 255l50 90-87-75z"/><path fill="#6f645c" d="M355 80l47 28 62-60z"/><path fill="#452c22" d="M395 277l-3-50 85 9z"/><path fill="#dca795" d="M533 55l97-13-75 31z"/><path fill="#9c857b" d="M58 192l200 10-188 87z"/><path fill="#b89580" d="M848 202l-93 90-241-94z"/><path fill="#eefbff" d="M652-48L305 17l193 25z"/><path fill="#c0a094" d="M589 111h63l-69 31z"/><path fill="#381f14" d="M202 392l-79-40-59 96z"/><path fill="#b3d5f5" d="M470 67h-75l75 41z"/><path fill="#cfaf99" d="M695 158l-59-6 41 21z"/><path fill="#b9b0ab" d="M561 214L458 380l34-178z"/><path fill="#1b385a" d="M377 289l-29-16-6 113z"/><path fill="#8a4729" d="M395 292l60 75 9-69z"/><path fill="#e3effb" d="M183-48l-44 90 103 13z"/><path fill="#c4967b" d="M755 345L636 448l212-81z"/><path fill="#907e6f" d="M742 142h94l-44-56z"/><path fill="#7c6253" d="M508 245l-56 203 59-34z"/><path fill="#acbbcc" d="M327 311l9 50 12-44z"/><path fill="#234200" d="M598 152l25-38 66 34z"/><path fill="#a6938c" d="M214 67l-72 38 69 3z"/><path fill="#1a2b15" d="M545 80h88l59-41z"/><path fill="#768aa6" d="M427 86l53 128-107-56z"/><path fill="#dedfdf" d="M295 202L267 14l78 175z"/><path fill="#08050b" d="M330 255l9-50-34 9z"/><path fill="#31462b" d="M545 20l75 7-118 28z"/><path fill="#5a584a" d="M180 48L-30 314 80 55z"/><path fill="#130808" d="M255 89l-22 13 50 28z"/><path fill="#68768c" d="M242 189l31-59 35 125z"/><path fill="#b88268" d="M395 398l-28-84 85-84z"/><path fill="#725442" d="M639 323l163 25 46-71z"/><path fill="#f6fbff" d="M423-5l-53 82 119-57z"/><path fill="#494b32" d="M492 67l-3-22-78 22z"/><path fill="#222c1b" d="M223 152l-109 34 16-53z"/><path fill="#001201" d="M752 123l46 7-37-25z"/><path fill="#b8b9b8" d="M358 105V45L227 73z"/><path fill="#65625e" d="M573-48l241 65-112 75z"/><path fill="#e0bba1" d="M245 133l19 25-84 50z"/><path fill="#4c3836" d="M486 220l-22 53-25-28z"/><path fill="#0e0000" d="M389 105l-15-16-22 28z"/><path fill="#8aa1be" d="M358 98l53 50-22 35z"/><path fill="#a68b80" d="M602 120l159 19-59-34z"/><path fill="#a9a3a2" d="M473 320l75 22-81-97z"/><path fill="#e4f0ff" d="M255-48l-7 90L586 5z"/><path fill="#aec5d0" d="M464 123l88-18-91 50z"/><path fill="#2b3327" d="M848 64l-131 66 13-66z"/><path fill="#303225" d="M702 77l-104 31 88 3z"/><path fill="#b69d94" d="M289 205l-56 100 81-44z"/><path fill="#7f7067" d="M117 130L89 95h109z"/><path fill="#141a1c" d="M342 402l16-60-22 16z"/><path fill="#3b2918" d="M5 236l28-47-3 63z"/><path fill="#434144" d="M377 236l-57 53 41-91z"/><path fill="#836656" d="M352 433l6-106 372 112z"/><path fill="#a28978" d="M677 198l-141 75 312 13z"/><path fill="#967c7c" d="M727 98l-63-37 44 6z"/><path fill="#d1deef" d="M139 27L30 70-48-48z"/><path fill="#a4a4aa" d="M517 111l-69 131 69-62z"/><path fill="#97745c" d="M208 248l94 138-50-144z"/><path fill="#bfbebe" d="M298 127l-21-88 81 116z"/><path fill="#5c0900" d="M398 80h10l-6 18z"/><path fill="#fdfbfa" d="M292 167l13 41 25-85z"/><path fill="#8f8a85" d="M92 242l3-81-22 6z"/><path fill="#858a72" d="M542 95l60 19-4 41z"/><path fill="#bebcba" d="M261 102l103-44-100-16z"/><path fill="#4d5865" d="M292 277l28 168 32-53z"/><path fill="#c9a68d" d="M817 177l-59 53 50 40z"/><path fill="#3e482b" d="M736 142l-75 35 106-4z"/><path fill="#1f1618" d="M527 136l50 56-63 3z"/><path fill="#d5ad96" d="M517 264l-3-56 103 3z"/><path fill="#58432b" d="M-8 448l56-103-37-9z"/></svg>