<svg xmlns="http://www.w3.org/2000/svg" viewBox="0 0 200 100"><path fill="#867a73" d="M0 0h200v100H0z"/><path fill="#fff" d="M82 25l111-40L-15 2z"/><path fill="#202811" d="M216 48l-36-63-58 64z"/><path fill="#534839" d="M0 18l73-6-78 104z"/><path fill="#f6ffff" d="M53-15h49L79 53z"/><path fill="#f4ffff" d="M129 4L28-15l-43 32z"/><path fill="#c3dbfa" d="M129 25L82-15l49 85z"/><path fill="#5c3b35" d="M91 49l4 67-110-7z"/><path fill="#c0a199" d="M11 60l63-28 4 43z"/><path fill="#d4a896" d="M124 48l92 7-99 26z"/><path fill="#3f5171" d="M78 84l38-27-24-47z"/><path fill="#fff" d="M106 14l95-29H73z"/><path fill="#d2aca0" d="M148 29l36 7-3-10z"/><path fill="#fafeff" d="M72 51l15-1-5-31z"/><path fill="#8b94a8" d="M119 54l-6-39-57-7z"/><path fill="#595646" d="M204 33L103 15l99-17z"/><path fill="#021205" d="M172 47l-40-18 3 19z"/><path fill="#293e2a" d="M44 46l23-16-82-1z"/><path fill="#91695a" d="M216 69l-58 47-173-45z"/><path fill="#0f0502" d="M88 70l-9 9V52z"/><path fill="#d7eaff" d="M-14-15L82-3 3 18z"/><path fill="#0b1408" d="M210 49l6-16-60 13z"/><path fill="#47281a" d="M53 96l-30 20 2-35z"/><path fill="#301518" d="M105 20H94l-9 16z"/><path fill="#92766c" d="M-1 74l104 15-78-44z"/><path fill="#6a6760" d="M67 15L10 43l24-31z"/><path fill="#bfcad7" d="M116 74l12-19-10 35z"/><path fill="#8ba9cf" d="M98 48l-6-18 35-7z"/><path fill="#48291d" d="M124 57l-24 12V59z"/><path fill="#e1a994" d="M92 79l23-7-5-9z"/><path fill="#3b4e2e" d="M127 19l34-4-24 20z"/><path fill="#3f454d" d="M90 16l10-9-9 16z"/><path fill="#182719" d="M188 32l28-30-33 19z"/><path fill="#0c0e1b" d="M86 53l-12-2 7 13z"/><path fill="#f0fcff" d="M196-15h-87L96 18z"/><path fill="#ece7eb" d="M90 19l-17 5v32z"/><path fill="#171222" d="M58 8l5 7 4-1z"/><path fill="#d1a694" d="M161 11l-25 7v-7z"/><path d="M72 33l-7-10-5 2z"/><path fill="#979781" d="M147 38l-9-15 15 7z"/><path fill="#b7a085" d="M169 44l9-8-16 4z"/><path fill="#00050a" d="M87 99l2-13-4 5z"/><path fill="#6b665e" d="M216 12l-59-27 5 37z"/><path fill="#c8ada0" d="M80 67l-12 4-20-29z"/><path fill="#bb9885" d="M123 56l87-8 6 28z"/><path fill="#a6a4b1" d="M92 66l6-20 1 34z"/><path fill="#2f3846" d="M82 62l9 20 2-52z"/><path fill="#5d6781" d="M72 62L60 45l12-8z"/><path fill="#c49880" d="M158 116l51-24-21-6z"/><path fill="#af9a9d" d="M52 28l10-16-18 10z"/><path fill="#8ca5cb" d="M83 80l1 10 6-14z"/><path fill="#854e37" d="M99 69l19 13-8 16z"/><path fill="#745443" d="M205 87l-43-4 35-12z"/><path fill="#b59e8b" d="M187 31l14 4h-21z"/><path fill="#d3d0d4" d="M86 28L59 4l28 48z"/><path fill="#3c472e" d="M157 9l-13-5-21 9z"/><path fill="#254000" d="M153 38h24l-20-8z"/><path fill="#16200e" d="M179 32l15-1-9-6z"/><path fill="#ccb4b3" d="M197 26l11 20 8-22z"/><path fill="#cdaa98" d="M130 51l17 1-19 35z"/><path fill="#e0b79f" d="M44 52l19-19 2 10z"/><path fill="#5a574b" d="M51 13l-63 63 35-62z"/><path fill="#755749" d="M40 69l51 28-102-6z"/><path fill="#adc2db" d="M124 38l-5-20-18-1z"/><path fill="#3f3738" d="M105 48l13 17-15-3z"/><path fill="#e6f3ff" d="M53-15l7 31-46-31z"/><path fill="#997c70" d="M125 64l8 24 61-29z"/><path fill="#353b27" d="M54 41l-31 7 34-22z"/><path fill="#98847a" d="M44 60L18 71l1-30z"/><path fill="#e5efff" d="M61 10l83-7-80-18z"/><path fill="#455361" d="M75 70l21 46-19-21z"/><path fill="#9cb6d4" d="M131 30l-9-11 8 25z"/><path fill="#4d5564" d="M95 70L84 48l6 44z"/><path fill="#170f12" d="M145 47l-14-11-1 13z"/><path fill="#f7f8ff" d="M104 7L91 20l31-14z"/><path fill="#3a493c" d="M104 17l4-2h-9z"/><path fill="#252614" d="M155 20l13-7-20 2z"/><path fill="#3b2518" d="M9 48L2 61l8-1z"/><path fill="#402e27" d="M89 63L74 51l9 26z"/><path fill="#d1cfd0" d="M88 29l-10-5L93 7z"/><path fill="#71685e" d="M21 13L-1 25l52 10z"/><path fill="#c5a68b" d="M121 14l3 3 11-4z"/><path fill="#eaeaf2" d="M86 36l-14-1 7 19z"/><path fill="#b78a78" d="M119 52l-16 34-7-8z"/><path fill="#272a1b" d="M168 20l-12 9 20-7z"/><path fill="#4b3741" d="M64 13l-7 11 6 4z"/><path fill="#888674" d="M55 22l12 16-12-4z"/><path fill="#3c231c" d="M48 111L32 86l-11 30z"/><path fill="#947a7b" d="M174 17l5 20 3-21z"/><path fill="#212a20" d="M41 29l6 11-16-2z"/><path fill="#e7effb" d="M109 1l17 10 15-11z"/><path fill="#8d7a76" d="M164 3l10 4-23 5z"/><path fill="#a7a4ac" d="M119 93l-1-32 7 11z"/><path fill="#645554" d="M118 73l5-21-14 7z"/><path fill="#617348" d="M142 41l14-1-10-5z"/><path fill="#8b6c5e" d="M40 63L14 83l68 4z"/><path fill="#7d869c" d="M98 67l-8 1 7-28z"/><path fill="#ebf4ff" d="M93 11L65 4l47-14z"/><path fill="#d3dfef" d="M-15-1l25 18L49 1z"/><path fill="#b1968a" d="M161 29l17-2 1 11z"/><path fill="#ada29e" d="M78 9l-20 9 33-5z"/></svg>