<svg xmlns="http://www.w3.org/2000/svg" viewBox="0 0 2000 1000"><path fill="#847a71" d="M0 0h2000v1000H0z"/><path fill="#fff" d="M1848-121L-121 19l922 235z"/><path fill="#1c260d" d="M1856-121l265 609-898-8z"/><path fill="#f7ffff" d="M-121 176L1129 51 98-121z"/><path fill="#aec2da" d="M1176-121L449 496l867-15z"/><path fill="#524936" d="M35 1121L715 121l-836 63z"/><path fill="#363d51" d="M691 1020l235-907 218 438z"/><path fill="#582f1c" d="M1004 949L285 746l-164 375z"/><path fill="#d6ad9a" d="M1152 809l102-321 867 55z"/><path fill="#fff" d="M754 527L637 20l234 422z"/><path fill="#feffff" d="M1613-27L457-12l594 164z"/><path fill="#64624b" d="M1715 465l406-586-1015 266z"/><path fill="#b29082" d="M-121 723l883-32-55-367z"/><path fill="#041305" d="M1309 473l484 23-477-203z"/><path fill="#29402a" d="M-121 270l828 31-320 172z"/><path fill="#1c0f0b" d="M918 590L801 793l-63-273z"/><path fill="#976f5c" d="M2121 590L285 801l1828 320z"/><path fill="#caa597" d="M1848 371l-71-109-297 31z"/><path fill="#8ba0bc" d="M1090 238l-156 55 15 477z"/><path fill="#091505" d="M1606 465l453 31 62-172z"/><path fill="#d2e9ff" d="M-121-27L66 176 824-27z"/><path fill="#a3b8cd" d="M1207 856l117-586-187-110z"/><path fill="#334727" d="M1699 121l-336 211-109-141z"/><path fill="#361409" d="M1199 637l24-110-125 133z"/><path fill="#635d50" d="M137 145l320-24-578 883z"/><path fill="#f7f3ed" d="M715 551l78-360 86 86z"/><path fill="#21272d" d="M910 145l86-78-55 101z"/><path fill="#534c44" d="M934 191l-78 141 351-226z"/><path fill="#182918" d="M1895 332l-86-125 312-164z"/><path fill="#142132" d="M645 129l7 102-78-157z"/><path fill="#8c6f63" d="M191 418L-4 816l1039 94z"/><path fill="#0a1a2c" d="M871 574l16-281 47 148z"/><path fill="#f2fcff" d="M1207-121l125 180-437 148z"/><path fill="#57657a" d="M715 309L606 465l109 148z"/><path fill="#dfad94" d="M957 746h250l-109-94z"/><path fill="#b99a84" d="M2121 488l-203 227-719-188z"/><path fill="#152e46" d="M918 887l-16-164-93 343z"/><path fill="#a3bdd6" d="M1223 395L981 160l312 55z"/><path fill="#3d2e27" d="M1098 637l-117 54 7-257z"/><path fill="#bba191" d="M340 621l476 55-273-258z"/><path fill="#483426" d="M-98 988l602-101-31 234z"/><path fill="#060002" d="M645 238l78 94-141-78z"/><path fill="#d7a290" d="M1340 121l23 63 188-55z"/><path fill="#814c33" d="M988 699l164 86v336z"/><path fill="#705442" d="M2121 887l-601-63 492-101z"/><path fill="#d1cfcc" d="M723 356l179-110-258-86z"/><path fill="#123900" d="M1613 309l86 54-211 24z"/><path fill="#ba9b93" d="M1981 363l140-140-156 15z"/><path fill="#9c8e8a" d="M590 121L254 324l273-62z"/><path fill="#898d71" d="M1535 285l-164-39 102 164z"/><path fill="#bc9d86" d="M1684 1059l437-141-242-55z"/><path fill="#a99b9b" d="M871 606l110 31 23 187z"/><path fill="#31472c" d="M1395 43l-157 86 328-39z"/><path fill="#c4a18d" d="M1793 363l-133-54 274 31z"/><path fill="#9cafc4" d="M848 754l-32 133 71-31z"/><path fill="#b79d8a" d="M1715 379l-102 16 86 62z"/><path fill="#b1b5ba" d="M1145 754l156-250-117 406z"/><path fill="#d3dce2" d="M856 512l-125-16 125-141z"/><path fill="#53332d" d="M895 191l54 94 110-55z"/><path fill="#0a0405" d="M809 676l39-157-78 32z"/><path fill="#5f6153" d="M199 145l321-16-63 227z"/><path fill="#242f1f" d="M238 473l328-102-211-47z"/><path fill="#d4b5a1" d="M1410 543l-133-23 24 281z"/><path fill="#e8f5ff" d="M426 82l180 70-63-140z"/><path fill="#e6f3ff" d="M1262 106l328-172-836 78z"/><path fill="#62615b" d="M1457-113l313 351 351-187z"/><path fill="#85614b" d="M824 1121L691 731l-429-71z"/><path fill="#2b301f" d="M1481 262l273 15-23-70z"/><path fill="#948377" d="M535 527L207 746l-70-265z"/><path fill="#333031" d="M926 465L754 809l133-94z"/><path fill="#dcb294" d="M418 551l203-227 16 86z"/><path fill="#443922" d="M-12 660L90 402l86 39z"/><path fill="#896551" d="M824 1098l125-313 578 258z"/><path fill="#1e271a" d="M1324 301l-31 187 250-47z"/><path fill="#2f3b21" d="M2106 363l-282-7-242 132z"/><path fill="#425035" d="M1215 113l-31 55h-164z"/><path fill="#112309" d="M1606 168l-79-31-109 62z"/><path fill="#7d96b5" d="M1129 301l-234-16 289 250z"/><path fill="#d5dfef" d="M-121 168l273-8 289-281z"/><path fill="#1b2715" d="M1996 316l-125-70-86 78z"/><path fill="#9b8272" d="M1137 918l812-344-562 39z"/><path fill="#9f9392" d="M527 199H426l211 125z"/><path fill="#c3a89a" d="M684 746l78-86-172-140z"/><path fill="#52616f" d="M840 887L723 731l117 312z"/><path fill="#0e151a" d="M856 332l62-78 63-8z"/><path fill="#bdbcbc" d="M715 106l-78 70 172 140z"/><path fill="#4b4d53" d="M996 496l180 227-102-289z"/><path fill="#626d52" d="M559 371l-24-94 188 55z"/><path fill="#e3effd" d="M637 113L434-121l914 148z"/><path fill="#765e4b" d="M395 684l-274 437L12 801z"/><path fill="#16231e" d="M441 316l94-47 63 48z"/><path fill="#917f7f" d="M957 199l78-55 8 219z"/><path fill="#392a2c" d="M668 309l-39-118-78 24z"/><path fill="#d69c7c" d="M1051 809l-78-125-32 93z"/><path fill="#47472e" d="M1356 160l-164 8 125 55z"/><path fill="#d9b19a" d="M1027 668l117 70-23-94z"/><path fill="#324e6f" d="M895 832l-32-101 94-47z"/><path fill="#878184" d="M613 488l149 110 23 125z"/><path fill="#3e261c" d="M207 1121h250L316 848z"/><path fill="#a18582" d="M1691 176l118-16-55 55z"/><path fill="#9d7962" d="M762 949L621 606l-101 39z"/></svg>