<svg xmlns="http://www.w3.org/2000/svg" viewBox="0 0 400 200"><style>@keyframes a{from{opacity: 0}to{opacity: 1}}g&gt;*{opacity: 0;animation: a .5s forwards}</style><path fill="#857a71" d="M0 0h400v200H0z"/><path fill="#fff" d="M373-24L160 49-24 4z" style="animation-delay:0s"/><path fill="#1c270f" d="M366-24L238 98l186-3z" style="animation-delay:.188s"/><path fill="#514837" d="M6 224L-24 38l162-14z" style="animation-delay:.376s"/><path fill="#f4ffff" d="M154 107L118-1l84-23z" style="animation-delay:.562s"/><path fill="#f2ffff" d="M227 4L-24 37l40-61z" style="animation-delay:.746s"/><path fill="#bfd9f7" d="M190 9l66 37 7 102z" style="animation-delay:.927s"/><path fill="#5c3f36" d="M-24 198l205 25 7-125z" style="animation-delay:1.104s"/><path fill="#b49489" d="M143 63l-167 83 180 6z" style="animation-delay:1.277s"/><path fill="#d1a794" d="M424 109l-193 56 18-69z" style="animation-delay:1.445s"/><path fill="#fff" d="M185 35l45-59h155z" style="animation-delay:1.607s"/><path fill="#3b4d6a" d="M152 159l89-41-59-86z" style="animation-delay:1.763s"/><path fill="#8c95a7" d="M251 115L104 12l106 18z" style="animation-delay:1.912s"/><path fill="#dab3a3" d="M293 59l73 12-11-19z" style="animation-delay:2.054s"/><path fill="#fbffff" d="M173 104l-30-10 23-62z" style="animation-delay:2.187s"/><path fill="#22381b" d="M313 26l-42 72-14-57z" style="animation-delay:2.312s"/><path fill="#213622" d="M23 71l68 24 43-46z" style="animation-delay:2.427s"/><path fill="#111708" d="M413 65l-6 33-116-2z" style="animation-delay:2.533s"/><path fill="#1c1412" d="M165 152l17-48-33-2z" style="animation-delay:2.629s"/><path fill="#926959" d="M424 137l-84 87-258-68z" style="animation-delay:2.714s"/><path fill="#d9ebff" d="M13-24L176 2-15 35z" style="animation-delay:2.789s"/><path fill="#62604e" d="M424 34H198l197-53z" style="animation-delay:2.853s"/><path fill="#859cbc" d="M181 148l11-97 31 3z" style="animation-delay:2.906s"/><path fill="#63605c" d="M101 24l48 46L34 27z" style="animation-delay:2.947s"/><path fill="#0e180e" d="M262 95V62l92 34z" style="animation-delay:2.976s"/><path fill="#27130f" d="M171 70l17-32h21z" style="animation-delay:2.994s"/></svg>