<svg xmlns="http://www.w3.org/2000/svg" viewBox="0 0 400 200"><style>@keyframes fadeIn{from{opacity: 0}to{opacity: 1}}g.animated&gt;*{opacity: 0;animation: fadeIn .5s forwards}</style><path fill="#857a71" d="M0 0h400v200H0z"/><g class="animated"><path fill="#fff" d="M0-21l278-10 2 53L2 32z" style="animation-delay:0s"/><path fill="#212c10" d="M259 13l164-3 1 88-164 3z" style="animation-delay:.19s"/><path fill="#cbe2fb" d="M148 104L117-4l102-30 31 109z" style="animation-delay:.38s"/><path fill="#353a26" d="M-29 76L88 23l24 56-117 52z" style="animation-delay:.56s"/><path fill="#0f1528" d="M174 151l-20-6 30-110 20 5z" style="animation-delay:.75s"/><path fill="#553220" d="M-51 139l243 43-14 78-243-43z" style="animation-delay:.93s"/><path fill="azure" d="M3 29L0-17l199-11 2 47z" style="animation-delay:1.1s"/><path fill="#fff" d="M196 34L186-2l107-30 10 36z" style="animation-delay:1.28s"/><path fill="#daaf9c" d="M424 100v33H240v-33z" style="animation-delay:1.45s"/><path fill="#fdf9f4" d="M173 103l-26 4-9-62 26-4z" style="animation-delay:1.61s"/><path fill="#88a4c4" d="M269 60l-38 48-48-38 38-48z" style="animation-delay:1.76s"/><path fill="#c9a696" d="M292 61l1-8 79 13-1 7z" style="animation-delay:1.91s"/><path fill="#b49184" d="M147 142l-120-8 3-40 120 8z" style="animation-delay:2.05s"/><path fill="#3a3d4b" d="M164 150l-14-38 76-26 13 38z" style="animation-delay:2.19s"/><path fill="#041406" d="M262 69l45 3-2 26-45-3z" style="animation-delay:2.31s"/><path fill="#d0a592" d="M314 16l3 9-48 14-3-9z" style="animation-delay:2.43s"/><path fill="#22331c" d="M137 63L78 94 68 76l59-31z" style="animation-delay:2.53s"/><path fill="#000300" d="M400 96l-89 2V87l89-2z" style="animation-delay:2.63s"/><path fill="#7f8499" d="M195 38l17 3-18 101-17-3z" style="animation-delay:2.71s"/><path fill="#996c59" d="M405 229l-219 19-9-97 220-19z" style="animation-delay:2.79s"/><path fill="#bdaaa2" d="M267 177l-37-13 20-58 37 13z" style="animation-delay:2.85s"/><path fill="#ecc6b2" d="M106 108l-10-7 28-36 10 8z" style="animation-delay:2.91s"/><path fill="#845f50" d="M163 147l-8 43L4 164l8-43z" style="animation-delay:2.95s"/><path fill="#66635c" d="M131 45L-9 58l-2-24 140-12z" style="animation-delay:2.98s"/><path fill="#aebcce" d="M229 62l33 7-8 40-34-7z" style="animation-delay:2.99s"/></g></svg>