<svg xmlns="http://www.w3.org/2000/svg" viewBox="0 0 400 200"><path fill="#857a71" d="M0 0h400v200H0z"/><g transform="translate(1 1) scale(1.5625)"><ellipse fill="#fff" cx="73" rx="115" ry="19"/><ellipse fill="#2c361d" cx="219" cy="32" rx="60" ry="35"/><ellipse fill="#fdffff" cx="98" cy="14" rx="15" ry="52"/><ellipse fill="#2e3925" cx="21" cy="41" rx="53" ry="20"/><ellipse fill="#add6ff" cx="149" cy="41" rx="18" ry="19"/><ellipse fill="#5b3726" cx="26" cy="124" rx="96" ry="28"/><ellipse fill="#f1ffff" cx="82" rx="105" ry="15"/><ellipse fill="#d7aa96" cx="216" cy="76" rx="64" ry="14"/><ellipse fill="#070712" cx="107" cy="82" rx="10" ry="17"/><ellipse fill="#000500" cx="210" cy="58" rx="50" ry="5"/><ellipse fill="#dbf2ff" cx="5" cy="2" rx="29" ry="20"/><ellipse fill="#495b7d" cx="125" cy="56" rx="18" ry="33"/><ellipse fill="#b1b9c0" cx="112" cy="18" rx="30" ry="8"/><ellipse fill="#c2a298" cx="75" cy="70" rx="20" ry="20"/><ellipse fill="#555649" cx="54" cy="34" rx="33" ry="19"/><ellipse fill="#422c17" cy="70" rx="18" ry="12"/><ellipse fill="#9b6f5c" cx="207" cy="109" rx="93" ry="28"/><ellipse fill="#b0abac" cx="158" cy="82" rx="10" ry="30"/><ellipse fill="#021305" cx="176" cy="50" rx="10" ry="13"/><ellipse fill="#9eb2ce" cx="141" cy="44" rx="25" ry="13"/><ellipse fill="#f7feff" cx="100" cy="52" rx="9" ry="14"/><ellipse fill="#f4ffff" cx="132" cy="1" rx="23" ry="18"/><ellipse fill="#d7ad9e" cx="221" cy="40" rx="10" ry="6"/><ellipse fill="#4d627d" cx="86" cy="57" rx="5" ry="20"/><ellipse fill="#48332c" cx="142" cy="77" rx="13" ry="8"/></g></svg>