<svg xmlns="http://www.w3.org/2000/svg" viewBox="0 0 400 200"><style>@keyframes fadeIn{from{opacity: 0}to{opacity: 1}}g.animated&gt;*{opacity: 0;animation: fadeIn .5s forwards}</style><path fill="#857a71" d="M0 0h400v200H0z"/><g class="animated"><path fill="#fff" d="M-5-4l-19 26 200 22L310 1z" style="animation-delay:0s"/><path fill="#1c290e" d="M256 98l168 3-28-117-129 61z" style="animation-delay:.19s"/><path fill="#f8ffff" d="M149 100L120-3l71-21-25 130z" style="animation-delay:.38s"/><path fill="#3b3f2f" d="M127 24l14 41L1 129l-25-90z" style="animation-delay:.56s"/><path fill="#cfe3f9" d="M272 157L248 33l44-57H163z" style="animation-delay:.75s"/><path fill="#4d332c" d="M132 152l50-65 7 137-213-32z" style="animation-delay:.93s"/><path fill="#eff" d="M64 26L303 8 19-24l-43 64z" style="animation-delay:1.1s"/><path fill="#d1a590" d="M424 99l-25 31-174 27 35-54z" style="animation-delay:1.28s"/><path fill="#6a6956" d="M345 92l72-116-238 64-4-20z" style="animation-delay:1.45s"/><path fill="#2f3647" d="M148 107l12 46 86-37-30-17z" style="animation-delay:1.61s"/><path fill="#cda696" d="M45 133l81-62 9 95 24-43z" style="animation-delay:1.76s"/><path fill="#121a0f" d="M419 93l-108-8-42-29-13 46z" style="animation-delay:1.91s"/><path fill="#8093b0" d="M178 158l61-123L81 11l110 36z" style="animation-delay:2.05s"/><path fill="#bd9b89" d="M359 51l-2 25 67-8-133-3z" style="animation-delay:2.19s"/><path fill="#815c4c" d="M-24 112l208 43 193 54-401-23z" style="animation-delay:2.31s"/><path fill="#122c4d" d="M191 35l-20 33 4 40 4 23z" style="animation-delay:2.43s"/><path fill="#eef0f5" d="M175 45l-34 2 6 57 13-3z" style="animation-delay:2.53s"/><path fill="#23361d" d="M110 55l3 25-29 14-43-22z" style="animation-delay:2.63s"/><path fill="#8d6250" d="M298 192l121-23-22-25-134-12z" style="animation-delay:2.71s"/><path fill="#feffff" d="M329-24l-82 50-32-50-25 62z" style="animation-delay:2.79s"/><path fill="#8fa8c8" d="M218 40l-35 33 75 37 3-67z" style="animation-delay:2.85s"/><path fill="#957a6f" d="M133 173l75 6L39 81l-21 48z" style="animation-delay:2.91s"/><path fill="#7a716b" d="M137 26l-74-1-87 23 140 11z" style="animation-delay:2.95s"/><path fill="#192515" d="M352 95l72 4-69-50 69-35z" style="animation-delay:2.98s"/><path fill="#dcedff" d="M95-24L3 11l112 18 4-1z" style="animation-delay:2.99s"/></g></svg>