<svg xmlns="http://www.w3.org/2000/svg" viewBox="0 0 400 200"><path fill="#857a71" d="M0 0h400v200H0z"/><path fill="#fff" d="M-20-30l280 20-4 54-280-19z"/><path fill="#222e12" d="M259 14l159-6 3 86-159 6z"/><path fill="#fff" d="M146 105l-9-67 28-4 9 67z"/><path fill="#353d2a" d="M-39 107l-7-65 152-16 7 65z"/><path fill="#603e31" d="M-3 221l-6-70 198-17 6 70z"/><path fill="#fff" d="M307 3L195 35 185 2l113-32z"/><path fill="#9bc1ed" d="M244 106l-58-28 25-52 58 28z"/><path fill="azure" d="M-42-6l335-29 4 42-335 30z"/><path fill="#010616" d="M148 111l33-12 10 26-32 12z"/><path fill="#ddb5a4" d="M317 138l-77-1 1-39 77 1z"/><path fill="#777067" d="M175 58l-4-18L320 6l4 18z"/><path fill="#cfa491" d="M112 78l36 59-34 20-35-58z"/><path fill="#d6a891" d="M402 99l2 30-86 5-1-30z"/><path fill="#0a1302" d="M399 77v22h-56V77z"/><path fill="#ebf4fd" d="M143 94l34-98 16 6-34 97z"/><path fill="#404f6a" d="M216 138l-51-8 9-57 51 8z"/><path fill="#363338" d="M115 19l14 1-2 40h-14z"/><path fill="#b89685" d="M340 84l-13-25 25-13 13 25z"/><path fill="#010c03" d="M309 79l-4 23-47-8 5-23z"/><path fill="#4d3420" d="M-23 123l37-35 20 22-37 34z"/><path fill="#52606e" d="M199 20l-18 19-7-7 19-19z"/><path fill="#1a2e17" d="M69 90l-6-19 48-16 6 20z"/><path fill="#c49a88" d="M207 130l65 11-5 28-65-12z"/><path fill="#422417" d="M100 180l-4 43-51-4 4-44z"/><path fill="#84482d" d="M233 150l-4 48-26-2 4-49z"/><path fill="#726962" d="M131 29l-1 33-88-5 2-33z"/><path fill="#605c52" d="M407 17l-80 48-36-59 81-48z"/><path fill="#986d5a" d="M266 197l7-70 148 15-8 70z"/><path fill="#565c3c" d="M242 31l14-11 29 35-15 12z"/><path fill="#d5e6ff" d="M119 13L-6 40l-5-26 125-27z"/><path fill="#c4c7ca" d="M179 19v36h-47V19z"/><path fill="#8899b6" d="M192 142l-13-2 15-77 13 2z"/><path fill="#1f120b" d="M152 113l15-2 8 40-16 2z"/><path fill="#8d6f64" d="M209 186L1 153l4-28 208 33z"/><path fill="#b3c8e2" d="M243 88l-30-43 18-12 30 42z"/><path fill="#071e3e" d="M192 48l-13 28-7-3 13-29z"/><path fill="#050705" d="M350 87v13l-42-1V86z"/><path fill="#473c3d" d="M246 112l-12 27-37-15 11-27z"/><path fill="#ba9e8d" d="M291 66v-9h57v9z"/><path fill="#c79b86" d="M269 39l-2-8 53-15 2 8z"/><path fill="#aebece" d="M238 184l-6-1 22-106 6 1z"/><path fill="#152318" d="M391 35l-3 31-28-3 3-31z"/><path fill="#ecf7ff" d="M83-8L242 6l-2 20L81 12z"/><path fill="#ebc5b0" d="M92 98l33-29 6 7-32 29z"/><path fill="#e3bfac" d="M420 69v2l-85-4v-2z"/><path fill="#aa9996" d="M124 34L94 57l-7-8 30-23z"/><path fill="#1d2b15" d="M216 34v-5l29 1v5z"/><path fill="#271a1b" d="M138 67l-34-22 3-4 34 22z"/><path fill="#1e4000" d="M302 74l1-9 43 3v10z"/><path fill="#371f0e" d="M198 138l-6-12 18-10 6 13z"/><path fill="#c4a48b" d="M356 193l79-26 4 14-79 25z"/><path fill="#0a2b47" d="M166 205l15-59 5 1-16 59z"/><path fill="#98afcb" d="M164 176l-2-17 13-2 3 17z"/><path fill="#735646" d="M442 174H334v-28h108z"/><path fill="#122134" d="M184 74v38h-10V74z"/><path fill="#7d93b4" d="M181 60l29-7 8 35-29 7z"/><path fill="#eaebea" d="M141 32l7 22-12 4-7-23z"/><path fill="#c7ac96" d="M338 88l-20-4 2-7 20 3z"/><path fill="#a4999b" d="M161 138l-22 9-17-40 22-9z"/><path fill="#edf9ff" d="M313-4l-65 26-6-16 65-26z"/><path fill="#122818" d="M278 54l12 22-16 9-12-22z"/><path fill="#19262d" d="M131 51l-1 1-16-39 2-1z"/><path fill="#d1997c" d="M195 167l-9-11 34-28 8 11z"/><path fill="#ba999b" d="M396 71l-5-23 11-2 5 23z"/><path fill="#3d4b5d" d="M197 14l2 1-23 38-1-1z"/><path fill="#8d6354" d="M280 202l-55 33-22-38 55-33z"/><path fill="#ad907e" d="M415 108l-3 37-129-11 3-37z"/><path fill="#363e2b" d="M255 44l-29-18 2-3 29 18z"/><path fill="#262e18" d="M349 43l1 11-38 2V45z"/><path fill="#21252b" d="M153 162l-5-5 28-27 6 6z"/><path fill="#1d2e13" d="M293 34l42-9 2 9-43 9z"/><path fill="azure" d="M92 20l3-5 24 10-2 6z"/><path fill="#818167" d="M303 67l-9 8-36-43 9-8z"/><path fill="#a29e9b" d="M179 23l-1 14-39-2 1-14z"/><path fill="#615e56" d="M312 28l28-56 56 27-28 56z"/><path fill="#231215" d="M193 41l3 15-9 2-3-15z"/><path fill="#fff" d="M147 91l-3-22 17-2 3 21z"/><path fill="#625e53" d="M73 49H35V29l38-1z"/><path fill="#ddbdaa" d="M278 105l-5 24-22-4 6-25z"/><path fill="#8b6755" d="M125 121l12 51-64 14-12-50z"/><path fill="#b5d0ea" d="M250 44l-1 3-63-11 1-3z"/><path fill="#e4f0ff" d="M124-6l20 19-13 14-20-19z"/><path fill="#344131" d="M20 57l76 23-5 15-76-23z"/><path fill="#1a2717" d="M366 97l1-24 47 4-2 23z"/><path fill="#001000" d="M407 49l-24-9 3-6 23 9z"/><path fill="#775a44" d="M248 169l4-43h5l-5 44z"/><path fill="#786a62" d="M-35 54V37l71-2 1 17z"/><path fill="#9a7a6d" d="M22 96l67-1v39l-67 1z"/><path fill="#aaa2a5" d="M188 124l9 1-2 28-9-1z"/><path fill="#121114" d="M175 122l-2 3-28-20 3-4z"/><path fill="#d2a493" d="M286 24v2l-46 8v-2z"/><path fill="#62715c" d="M143 65v6L40 68v-6z"/><path fill="#be9f89" d="M336 72v-1l105-4v1z"/><path fill="#6d7c96" d="M127 73h16v40h-16z"/><path fill="#d4d1d1" d="M181 49l-30 26-14-16 29-26z"/><path fill="#140000" d="M239 114l1 1-15 16-1-1z"/><path fill="#edf5ff" d="M172-21l26 6-9 41-26-6z"/><path fill="#9ba0ab" d="M215 79l14-8 20 36-14 8z"/><path fill="#a3a0a5" d="M234 124l11 1-6 34-10-1z"/><path fill="#1c191d" d="M153 180l7 1-2 25-7-1z"/><path fill="#897b6c" d="M387 29l-81 19-1-3 81-19z"/><path fill="#a6938d" d="M93 36l18 12-5 8-18-12z"/><path fill="#2b4515" d="M327 64l-4 26-14-2 4-26z"/><path fill="#a5b0bb" d="M174 119h-1l-5-56h1z"/><path fill="#35413f" d="M356-2l-4 15-38-9 4-15z"/><path fill="#48617f" d="M180 128l14 5-10 31-14-4z"/><path fill="#ebf3ff" d="M253 14l-41 19-13-26 41-20z"/><path fill="#384b34" d="M286 13l-29 18-4-5 30-18z"/><path fill="#904538" d="M205 56l-9-3 4-11 9 4z"/><path fill="#d0b7aa" d="M107 109l3-5 44 29-3 5z"/><path fill="#8b8a8a" d="M34 98l2-17 13 1-2 17z"/><path fill="#cfdbec" d="M30 0l-2 36-47-3 2-36z"/><path fill="#243427" d="M139 62v3l-45-4v-3z"/><path fill="#455748" d="M205 31l32-2v5l-31 1z"/><path fill="#51472c" d="M11 172l12 4-17 47-12-4z"/><path fill="#976851" d="M227 154l-19 56-27-9 19-56z"/><path fill="#02050d" d="M123 46l1-1 14 17-1 1z"/><path fill="#3e4230" d="M275 48l-16 7-7-17 15-7z"/><path fill="#e3b6a2" d="M304 25l-31 12v-1l30-12z"/><path fill="#4f3d34" d="M173 114l7 15-20 9-7-16z"/><path fill="#4a4e33" d="M347 95l-2-20 28-3 2 20z"/><path fill="#ccc8c3" d="M128 36l-17 3v-2l17-3z"/><path fill="#6e4431" d="M208 180l3-24 20 4-3 23z"/><path fill="#3c3424" d="M8 125l-7-4 18-26 6 4z"/><path fill="#98aec7" d="M251 65l-35-11 7-20 34 10z"/><path fill="#526576" d="M145 146l9-3 12 34-9 3z"/><path d="M168 187l4-10 6 3-5 10z"/><path fill="#d4b3a8" d="M132 79l-25 27-6-5 25-28z"/><path fill="#2d3426" d="M63 94L53 74l27-13 9 20z"/><path fill="#d6b5a3" d="M291 66l6 1-2 6-6-1z"/><path fill="#111b25" d="M171 69l15-22 1 1-15 22z"/><path fill="#af9d84" d="M315 80v-3l31 4v3z"/><path fill="#744f3b" d="M107 155l40 39-18 19-40-39z"/><path fill="#adcaa8" d="M278 50l1 1-12 7-1-1z"/><path fill="#b99d8f" d="M78 123l48-18 4 12-48 17z"/><path fill="#322118" d="M64 185l16 18-11 11-17-19z"/><path fill="#a3b6cf" d="M182 65l-1-8 14-1 1 7z"/><path fill="#bb988e" d="M319 9l-26 6-1-3 26-6z"/><path fill="#7b7261" d="M11 112l-22-1 2-34 22 1z"/><path fill="#7c6c5c" d="M49 176l-18 8-23-55 19-8z"/><path fill="#434e2d" d="M277 21l37-9 1 6-36 9z"/><path fill="#8a7970" d="M58 58l51-25 3 7-50 25z"/><path fill="#143018" d="M-8 57l31 2-1 5-31-3z"/><path fill="#182632" d="M116 17l1-1 9 15-1 1z"/><path fill="#656565" d="M248 95V81h6v14z"/><path fill="#2f4336" d="M1 35l17 4-2 6-16-4z"/><path fill="#1a1715" d="M284 97h-22V70h22z"/><path fill="#b7bdc4" d="M233 165l17-55 6 2-17 55z"/><path fill="#424a42" d="M95 34l-5 6-12-10 5-6z"/><path fill="#f0f7fe" d="M219-17l1 47-22 1-1-47z"/><path fill="#446135" d="M320 79l-38 7-1-4 39-7z"/><path fill="#dce6f3" d="M111 26H91V-2h20z"/><path fill="#6a5f4a" d="M255 25l-23 5-1-3 23-5z"/><path fill="#392218" d="M211 116l3 2-14 24-3-2z"/><path fill="#c6a694" d="M384 124l-7-12 37-22 8 12z"/><path fill="#454d5b" d="M198 91l17 1-2 31-17-1z"/><path fill="#646e7f" d="M233 115l-7 4-19-32 6-4z"/><path fill="#ccaf9f" d="M224 127l1 16h-9l-2-15z"/><path fill="#58453d" d="M233 145l-16-31 2-1 15 31z"/><path fill="#f6fcfc" d="M144 104l3 9h-2l-3-9z"/><path fill="#7f694f" d="M96 80l3 3-18 23-4-3z"/><path fill="#664a3d" d="M389 177l-3-25 23-3 3 25z"/><path fill="#e1e6eb" d="M151 72l22 5-7 28-21-6z"/><path fill="#3b3e42" d="M191 24l2 1-14 15-1-1z"/><path fill="#7a6867" d="M115 90l3-4 31 35-3 3z"/><path fill="#4f4543" d="M153 151l3-32 2 1-3 31z"/><path fill="#4f4c48" d="M113 35l19-10 1 1-20 10z"/><path fill="#c6bbaf" d="M385 53l25 4v1l-25-4z"/><path fill="#8896ae" d="M169 94l1 1-19 13-1-1z"/><path fill="#9e8176" d="M341 134l-70 19-4-17 69-18z"/><path fill="#c3c6c9" d="M244 70l4 26-10 1-3-26z"/><path fill="#54553c" d="M304 56v2l-82-32 1-1z"/><path fill="#a49f9f" d="M93 44l29 16-1 1-29-16z"/><path fill="#0b1c11" d="M79 45v2l-15 3-1-1z"/><path fill="#230a07" d="M110 46l3-7 4 2-3 7z"/><path fill="#e8eef3" d="M208 9l-22 32-2-1 22-32z"/><path fill="#8594a9" d="M168 84l5-15 4 2-5 15z"/><path fill="#262d19" d="M397 60v7l-39-3v-8z"/><path fill="#8995a3" d="M143 73l-5 4-10-11 4-4z"/><path fill="#e2b297" d="M197 137l2 20-7 1-2-20z"/><path fill="#a98c7b" d="M374 169l18 9-18 33-18-9z"/><path fill="#888171" d="M353 7l68 14v2L352 8z"/><path fill="#a6877a" d="M150 133l5 8-35 18-4-8z"/><path fill="#b1a398" d="M329 18l-16-2v-1l16 1z"/><path fill="#1d2921" d="M103 68l-5-6 10-9 5 6z"/><path fill="#afc3d5" d="M207 35l22-1v11l-22 1z"/><path fill="#4b564c" d="M110 31l-26 8-2-6 27-8z"/><path fill="#b59492" d="M307 11l37-22 1 1-38 23z"/><path fill="#907263" d="M191 156l32 40-16 13-32-41z"/><path fill="#1f3117" d="M315 43l-18-5 2-10 18 4z"/><path fill="#8d6e62" d="M101 104l16 39-4 2-16-39z"/><path fill="#6a6b59" d="M327 85l35 2v2l-35-3z"/><path fill="#9b8375" d="M149 162l8 11-14 10-8-11z"/><path fill="#e7f1fd" d="M176 15l-51 8-5-30 51-8z"/><path fill="#393a2a" d="M376 26l-33-11 2-5 32 11z"/><path fill="#765346" d="M258 178l-2 40h-15l1-41z"/><path fill="#758aa9" d="M208 51l19 20-15 14-19-20z"/><path fill="#745a4f" d="M262 102v-1l65-5v2z"/><path fill="#212d1f" d="M402 33l2 9-39 5-1-9z"/><path fill="#0b100c" d="M336 93l-3 7-24-10 3-8z"/><path fill="#9f8677" d="M357 157l-9-5 18-38 10 5z"/><path fill="#6d7888" d="M186 26l-6 29-2-1 6-29z"/><path fill="#b39591" d="M292 61v-3l61 2v3z"/><path fill="#8b97a7" d="M184 135l-4-7 16-8 3 7z"/><path fill="#200f09" d="M130 49v6l-11 1v-6z"/><path fill="#7c6a64" d="M49 34L19 47l-4-7 31-13z"/><path fill="#312824" d="M182 106l-26 47-2-1 26-47z"/><path d="M149 118v-1l16-2v1z"/><path fill="#b79491" d="M354 34v4l-12 2-1-5z"/><path fill="#807d61" d="M298 42v1l-45 4v-1z"/><path fill="#817568" d="M330 48l-9 3-5-13 8-3z"/><path fill="#ecf5ff" d="M102 9l4-3 13 22-4 2z"/><path fill="#3f3d2a" d="M111 78l-7 9-10-7 6-9z"/><path fill="#2e190f" d="M230 126l-1-1 14-18 1 1z"/><path fill="#080907" d="M394 95l-33 2v-6l33-2z"/><path fill="#1a1413" d="M169 105h2l-13 45h-2z"/><path fill="#585151" d="M184 110l6 6-26 25-5-5z"/><path fill="#423b2d" d="M23 84l15 4-3 11-15-5z"/><path fill="#d4e1ee" d="M33-19h33v46H33z"/><path fill="#c69a84" d="M250 29l16-3 1 6-15 3z"/><path fill="#1d2615" d="M327 45l2-5 23 8-1 4z"/><path fill="#948e8b" d="M170 146h1l-8 51-1-1z"/><path fill="#654e3e" d="M33 212l19-48 10 4-19 48z"/><path fill="#7d5f51" d="M299 151l53 11-2 11-54-12z"/><path fill="#440d0b" d="M199 46l-1-6h5l1 6z"/><path fill="#97856c" d="M387 65l1 1-36 12v-2z"/><path fill="#755c50" d="M28 98l3 30-11 1-3-30z"/><path fill="#c39f8d" d="M286 107l-20 46-13-5 20-46z"/><path fill="#7e8272" d="M59 77l-11-1 1-5 11 1z"/><path fill="#274034" d="M387 3l1 3-14 5-1-3z"/><path fill="#2c353a" d="M259 99h-2l7-40h2z"/><path fill="#1a3354" d="M184 90l-2-22h1l2 22z"/><path fill="#79726e" d="M58 32l27-9 2 6-27 9z"/><path fill="#fbf7f1" d="M146 93l-4-21 16-4 5 21z"/><path fill="#341209" d="M200 129l1 8-6 1-1-8z"/><path fill="#303d25" d="M361 74l35-2 1 12-35 2z"/><path fill="#2d430f" d="M350 75l-1 3-25-7v-3z"/><path fill="#46512f" d="M318 42l-1 12-37-3 1-13z"/><path fill="#977b6f" d="M260 198l-12-43 37-11 13 44z"/><path fill="#c1beb9" d="M169 115l-1-1 5-6 1 1z"/><path fill="#9cacba" d="M260 83l-11-1 2-14 11 2z"/><path fill="#7d875b" d="M110 60l17 11-4 5-17-11z"/><path fill="#9e7f73" d="M399 103v3l-137-5v-3z"/><path fill="#677183" d="M181 91l25-3 2 19-25 3z"/><path fill="#8c6858" d="M400 203l-21 7-5-15 21-7z"/><path fill="#d3d6db" d="M406 3l-14-1v-4l14 2z"/><path fill="#8a7e78" d="M351 16v1l-32-9 1-2z"/><path fill="#3d4d64" d="M174 176l2-36 8 1-2 36z"/><path fill="#e6eefc" d="M237 5l64-26 7 18-64 25z"/><path fill="#b2a09a" d="M77 146l1-1 12 14-1 1z"/><path fill="#c18d75" d="M204 170l-15-18 5-5 16 18z"/><path fill="#070000" d="M192 52v2l-11 2v-2z"/><path fill="#282c2d" d="M189 26l1-4h4l-1 5z"/><path fill="#484343" d="M302 11l-1-1 30-19 1 1z"/><path fill="#63463c" d="M99 170l5 26-26 5-5-27z"/><path fill="#313149" d="M147 108l16-3 1 4-16 3z"/><path fill="#827063" d="M96 33l8 4-11 19-8-4z"/><path fill="#94979f" d="M137 103l6 1-3 17-6-1z"/><path fill="#1c311d" d="M411 31l-24-4v-3l25 4z"/><path fill="#c2bebc" d="M154 48l-26-10 7-16 26 10z"/><path fill="#1a341e" d="M286 55l7 9-3 1-6-8z"/><path fill="#4a3628" d="M197 128l16-7 4 9-16 6z"/><path fill="#93a4bd" d="M195 90l-9-28 11-4 10 28z"/><path fill="#e6eff8" d="M200-10l10 16-30 19-10-16z"/><path fill="#a7b4c6" d="M164 177l10-19 1 1-10 19z"/><path fill="#c9a18e" d="M286 23h8v9h-8z"/><path fill="#b89788" d="M190 180l1-1 42 40-1 1z"/><path fill="#8d7878" d="M351 65l3-32h6l-3 33z"/><path fill="#a0897e" d="M79 180l-18-36 2-1 18 37z"/><path fill="#c9aba3" d="M191 47v-2l7 4v1z"/><path fill="#242916" d="M345 22l-10 2-1-1 11-2z"/><path fill="#99705d" d="M162 226l-35-84 3-1 35 84z"/><path fill="#dce6f3" d="M142 7l-16 16L97-5l16-17z"/><path fill="#98a5bb" d="M191 41l-7 2-2-8 8-1z"/><path fill="#b7a79e" d="M121 122l-1-1 10-44h2z"/><path fill="#be9d85" d="M122 113l28 50h-2l-27-49z"/><path fill="#959598" d="M240 131l11-58h1l-10 59z"/><path fill="#94a2ae" d="M180 53l-4-26h2l4 26z"/><path fill="#333" d="M161 177l4 10-12 4-4-11z"/><path fill="#0e2f19" d="M267 55l-1 2-10-8 1-1z"/><path fill="#2d3e24" d="M249 44l-1-2 23-9 1 1z"/><path fill="#453327" d="M369 99v2l-80-5v-1z"/><path fill="#fff" d="M191 36l-1-2 18-12 1 2z"/><path fill="#313a21" d="M307 33l-1-3 29-5 1 3z"/><path fill="#8395af" d="M253 57l-2 2-24-17 2-3z"/><path fill="#937e74" d="M237 110l1 1-21 18-1-1z"/><path fill="#77695c" d="M91 94v3l-67 1v-3z"/><path fill="#9cb1c6" d="M248 67l-16-19 12-10 16 19z"/><path fill="#bfc2c4" d="M105 43l-3 10h-2l3-11z"/><path fill="#292b34" d="M126 34l-2-1 2-9 2 1z"/><path fill="#122234" d="M173 100h-1l9-23h2z"/><path fill="#cfab94" d="M205 133l20 3-1 8-20-3z"/><path fill="#b3a998" d="M117 60l10-5 1 2-10 5z"/><path fill="#6b7b55" d="M131 69l-51-4v-1l51 3z"/><path fill="#2b3f0d" d="M339 77l-39 1v-6l39-2z"/><path fill="#614430" d="M349 159l10 4-3 8-10-4z"/><path fill="#9c9695" d="M156 40l-5-20 8-2 4 20z"/><path fill="#818275" d="M343 23l19 1-1 5-18-1z"/><path fill="#595248" d="M134 117l-6-10h2l6 9z"/><path fill="#4e1500" d="M120 93l4-4 1 1-4 4z"/><path fill="#333c30" d="M73 38l21-4 1 2-22 3z"/><path fill="#7e9c7e" d="M262 60l-1-2 26-7v2z"/><path fill="#ab9d82" d="M129 63l1 1-33 31v-1z"/><path fill="#c5aca3" d="M234 177h-3l2-28h3z"/><path fill="#d1dcea" d="M52 23L12 37 2 7 42-7z"/><path fill="#847367" d="M76 60L9 43l1-1 67 16z"/><path fill="#545e6f" d="M143 93l-12-17 3-2 11 17z"/><path fill="#4c4a39" d="M-32 200l2-14 79 13-2 13z"/><path fill="#b5abaa" d="M155 154h-1l-4-6 1-1z"/><path fill="#79879e" d="M235 100l-5 4-35-43 5-4z"/><path fill="#696465" d="M169 181l2 23-10 1-2-23z"/><path fill="#836151" d="M95 175l11-37 16 4-10 38z"/><path fill="#d3d9e2" d="M146 137l-2 1-7-11 1-1z"/><path fill="#0f1a13" d="M94 65l16-8v1l-15 8z"/><path fill="#9d8470" d="M394 130l-48 55-1-1 47-55z"/><path fill="#bc9b8b" d="M372 185l27-9 3 9-27 9z"/><path fill="#a99281" d="M337 77v10h-7V77z"/><path fill="#5d5e57" d="M61 86l-3 3-33-26 3-4z"/><path fill="#1e120c" d="M175 137l-12 16-2-1 12-16z"/><path fill="#949076" d="M21 170l18-9 1 2-18 9z"/><path fill="#443f35" d="M434 54l-126-5v-1l126 4z"/><path fill="#b99e85" d="M307 61l-12 9-1-1 12-10z"/><path fill="#3d5755" d="M199 32l16 2v1l-16-1z"/><path fill="#a49691" d="M195 126l2 1-12 39-2-1z"/><path fill="#818073" d="M-6 92l25-22 1 2-25 22z"/><path fill="#5d6b68" d="M261 20l-1-2 34-11 1 2z"/><path fill="#4d453b" d="M301 87l11 3-2 9-11-3z"/><path fill="#504649" d="M258 97l-2-1 13-16 1 1z"/><path fill="#877168" d="M77 89l-24 38-3-2 24-38z"/><path fill="#6b5a4b" d="M255 123h1l-6 25-1-1z"/><path fill="#8c7f7e" d="M362 4l11-13 7 6-11 13z"/><path fill="#3d4839" d="M57 32l-6 7-4-4 7-6z"/><path fill="#4c2b1c" d="M226 179l-6-2 2-10 6 1z"/><path fill="#74533f" d="M16 149l8 3-17 39-7-3z"/><path fill="#442717" d="M96 191l7 10-10 7-7-11z"/><path fill="#997d6e" d="M331 190l57-13 1 6-56 13z"/><path fill="#a18473" d="M412 149l-40 17-1-1 40-17z"/><path fill="#7f686c" d="M207 43v1l-16-7 1-1z"/><path fill="#bacdd2" d="M232 37l-44 2v-3l44-2z"/><path fill="#907372" d="M122 43l1 1-12 12-1-1z"/><path fill="#d1d2d4" d="M179 57l-13 5-9-20 13-6z"/><path fill="#253025" d="M45 73h-1l3-17 2 1z"/><path fill="#455c42" d="M270 74l-6-5 8-13 7 4z"/><path fill="#c0bbbd" d="M153 52l18 8-4 8-17-7z"/><path fill="#dce6f1" d="M115 24l-57 3-3-50 58-3z"/><path fill="#938276" d="M375 31l-1-1 15-15 1 1z"/><path fill="#546743" d="M295 85l-10-2 3-14 9 2z"/><path fill="#263826" d="M88 58v2l-12 2v-1z"/><path fill="#7e8597" d="M189 142l-4 2-7-19 4-2z"/><path fill="#828277" d="M41 38v2l-49-5v-1z"/><path fill="#b3b0b9" d="M191 116l-7-11 1-1 7 11z"/><path fill="#603011" d="M141 160h-1l2-6h1z"/><path fill="#766f58" d="M43 197l-41-9 1-5 41 9z"/><path fill="#e0c7ae" d="M130 77l-14 4v-3l13-4z"/><path fill="#f6fbeb" d="M213 31v-2l4 1-1 2z"/><path fill="#bc9f8f" d="M383 112l-83 3v-7l83-2z"/><path fill="#6b7051" d="M268 41l63 9v1l-64-9z"/><path fill="#bf967f" d="M138 142l-13 1-2-27 13-1z"/><path fill="#000001" d="M167 107l1 1-9 9-1-1z"/><path fill="#263926" d="M35 76v-2l41-11v2z"/><path fill="#030700" d="M264 90l33 5v1l-33-5z"/><path fill="#998880" d="M205 219l43-65h1l-42 66z"/><path fill="#323b1f" d="M91 69l7 5-16 21-6-5z"/><path fill="#d9dbda" d="M136 55l-4-1 5-20 5 1z"/><path fill="#625548" d="M326 41l-1-3 38-11 1 3z"/><path fill="#d6ae93" d="M165 163l-2-1 2-7h2z"/><path fill="#4e5458" d="M298 2l1 3-5 1-1-3z"/><path fill="#b7a5ab" d="M294 11l16-15 1 1-16 15z"/><path fill="#25201d" d="M174 174l8 4-7 12-8-4z"/><path fill="#ad9d94" d="M87 39l1-2 17 10v2z"/><path fill="#997a67" d="M120 152l4-1 8 30-5 1z"/><path fill="#816b61" d="M290 180l6-13 40 17-5 13z"/><path fill="#b4988f" d="M354 70l-6-1 3-12 6 1z"/><path fill="#646253" d="M229 28l3-5 13 10-4 5z"/><path fill="#875e4a" d="M187 169l10 7-10 16-11-7z"/><path fill="#7b7271" d="M169 137l-2-1 10-15 1 1z"/><path fill="#927760" d="M330 99l16-1v8l-15 1z"/><path fill="#52433b" d="M225 121h2l9 25h-2z"/><path fill="#323e31" d="M20 36v1l-22 7-1-1z"/><path fill="#977d70" d="M336 135l21 68-3 1-21-68z"/><path fill="#d2c9bd" d="M259 130h-1l-3-30h2z"/><path fill="#683926" d="M207 128l1 1-10 19h-1z"/><path fill="#5b301c" d="M403 201l-2 2-6-5 2-2z"/><path fill="#9e887c" d="M45 134l-8-28 14-4 7 28z"/><path fill="#674b40" d="M105 189l-48-12 2-8 48 12z"/><path fill="#4e2e27" d="M239 127l-3-9h2l2 9z"/><path fill="#a17e72" d="M96 124l7 34-3 1-7-34z"/><path fill="#454a37" d="M311 23l-30-12v-1l31 12z"/><path fill="#3c462f" d="M24 45L1 61l-1-1 23-17z"/><path fill="#66707e" d="M190 20l1 1-5 8-1-1z"/><path fill="#766f6e" d="M47 91l-1-2 18-6 1 1z"/><path fill="#a7aab2" d="M249 142l-3 17-12-3 3-16z"/><path fill="#445436" d="M130 64l1 1-6 7-1-1z"/><path fill="#bbaba9" d="M236 121v19h-2v-19z"/><path fill="#c5a59d" d="M113 85l4 6-25 17-4-7z"/><path fill="#3e4047" d="M200 100l9-4 11 24-8 4z"/><path fill="#8a6e65" d="M114 107l-6 3-2-6 6-3z"/><path fill="#a9887d" d="M397 177h-1l2-9h2z"/><path fill="#7d5f4e" d="M247 217l-3 4-52-52 3-4z"/><path fill="#869bb7" d="M209 81l1-30 17 1-1 30z"/><path fill="#a08a86" d="M101 204l7-14 2 1-8 14z"/><path fill="#7d7169" d="M50 64l13-31 4 2-12 30z"/><path fill="#1b2a11" d="M379 72l42 4-1 7-42-5z"/><path fill="#485241" d="M315 78l23 13-1 1-23-13z"/><path fill="#b0c0d6" d="M237 84h-6l-1-38h6z"/><path fill="#352b27" d="M123 56V42h6v14z"/><path fill="#795d53" d="M150 127l-9-2 1-6 9 2z"/><path fill="#f0f4f9" d="M162 14v2l-35 9v-2z"/><path fill="#3e3324" d="M29 101l1 1-7 5-1-2z"/><path fill="#916048" d="M212 149l11 21-8 4-11-20z"/><path fill="#af9185" d="M103 131l-34-4 1-9 34 3z"/><path fill="#9a806a" d="M249 29l-1 2-20-2v-2z"/><path fill="#7c695b" d="M1 141l13 25-7 4-13-25z"/><path fill="#959aa3" d="M130 46v-6h4v6z"/><path fill="#212713" d="M61 94l-1-1 18-17 1 1z"/><path fill="#2b3c4c" d="M117 20l-2-4 1-1 2 5z"/><path fill="#7d5f58" d="M45 183l13-3 2 8-14 3z"/><path fill="#aca7a5" d="M244 88l8 13-13 9-8-13z"/><path fill="#52603d" d="M93 84l-1 2-30-6v-2z"/><path fill="#978279" d="M307 195l-7 6-18-19 7-6z"/><path fill="#575d6c" d="M131 24l1 2-5 2-1-3z"/><path fill="#3d361f" d="M21 98L6 121l-3-1 15-24z"/><path fill="#43413e" d="M331 6l-14 2V5l14-2z"/><path fill="#d4c8c3" d="M115 100h-9l-1-8h10z"/><path fill="#444529" d="M298 19l-48 9v-2l48-8z"/><path fill="#a18a86" d="M314 42l11-3v2l-11 2z"/><path fill="#ccaa96" d="M305 104l1 10-47 5-1-9z"/><path fill="#544b32" d="M2 93l20-9 3 6-20 9z"/><path fill="#b9837a" d="M210 43l-2 8-4-2 2-7z"/><path fill="#bcaba9" d="M407 57l-19-4 1-2 18 4z"/><path fill="#775c58" d="M274 31l2-9 8 1-2 10z"/><path fill="#634c3c" d="M62 189v1l-122-40v-1z"/><path fill="#59362e" d="M95 155l2 1-3 9-1-1z"/><path fill="#755948" d="M306 193l-4-4 9-11 5 4z"/><path fill="#403e42" d="M181 28v-2l11 1v1z"/><path fill="#1b2915" d="M285 38l13 2-1 2-12-3z"/><path fill="#979ba3" d="M176 54l-8 20-2-1 9-20z"/><path fill="#293e2a" d="M29 72L3 69v-2l27 4z"/><path fill="#a0aab8" d="M168 97l1 3-20 5-1-3z"/><path fill="#727d6e" d="M40 88l-1 1-25-16 1-1z"/><path fill="#2a211f" d="M181 109l-21 28-1-1 20-27z"/><path fill="#c1bdbc" d="M114 37l1 1-12 5-1-1z"/><path fill="#1c2317" d="M287 78l-17 7-5-11 17-8z"/><path fill="#353d4b" d="M178 80l8 41-6 1-9-41z"/><path fill="#626979" d="M186 171l-9 4-5-10 8-4z"/><path fill="#97887c" d="M-11 53l23-9 1 2-24 9z"/><path fill="#a58b7d" d="M383 132l-58 10-3-16 58-11z"/><path fill="#c4aaa0" d="M232 154l-15-24 3-1 15 23z"/><path fill="#48543e" d="M316 29l79 5v2l-79-6z"/><path fill="#b39882" d="M393 72l1-6 11 1-1 7z"/><path fill="#666645" d="M360 75l-20 12-1-1 20-12z"/><path fill="#87705b" d="M81 102l-3-3 21-15 2 3z"/><path fill="#b79d82" d="M290 33l-19 2v-1l19-2z"/><path fill="#78675e" d="M355 18v1l-46 3v-2z"/><path fill="#2c482f" d="M273 54l18 5v1l-18-4z"/><path fill="#b0988a" d="M326 35l-2 4-1-1 1-4z"/><path fill="#886c61" d="M284 215l-35-29 9-12 36 29z"/><path fill="#e5edf6" d="M169 14l1-31 91 5-2 31z"/><path fill="#7a7c68" d="M275 24l-1-2 16-10v1z"/><path fill="#839077" d="M394 30l11 2-1 2-10-2z"/><path fill="#4f563b" d="M352 92l-1-1 30-13 1 2z"/><path fill="#474545" d="M97 42l6-7 2 2-6 7z"/><path fill="#80746b" d="M97 26l1 3-34 6-1-3z"/><path fill="#5a644f" d="M408 0l4 16-22 4-3-15z"/><path fill="#c49885" d="M100 97l25-16 1 2-25 15z"/><path fill="#907d76" d="M305 28l-1-2 33-18 1 2z"/><path fill="#544338" d="M386 172l7-4 3 5-6 4z"/><path fill="#626164" d="M148 170l-1-35h3l1 34z"/><path fill="#926d5d" d="M294 155l-12 3-6-24 12-3z"/><path fill="#998076" d="M334 159l-28 20-1-2 27-20z"/><path fill="#8c856e" d="M48 170l3 4-10 5-2-4z"/><path fill="#4c4e4c" d="M342-15l1 1-18 31-1-1z"/><path fill="#a98f80" d="M246 162l3-7 23 9-3 8z"/><path fill="#859e8a" d="M289 63l-1 1-7-3 1-2z"/><path fill="#9d9a99" d="M114 37l-20-2v-1l20 1z"/><path fill="#673f2b" d="M133 187l7-4 6 10-6 4z"/><path fill="#73564c" d="M348 194l2 6-12 4-2-6z"/><path fill="#222318" d="M366 21l10-2 1 2-11 2z"/><path fill="#9fb6cc" d="M227 54h-16l1-19h16z"/><path fill="#23301c" d="M349 99l-5-17 3-1 5 17z"/><path fill="#a2a5a2" d="M182 32l-26-11 1-2 26 12z"/><path fill="#775c51" d="M84 158h1l-5 33-1-1z"/><path fill="#735a48" d="M79 139l-7 15-9-4 7-15z"/><path fill="#354b1a" d="M307 82l-2-6 27-12 2 5z"/><path fill="#756c59" d="M258 41l19-7 1 2-19 6z"/><path fill="#15202b" d="M173 64l11-9 1 1-11 9z"/><path fill="#352d21" d="M307 98l-50-2v-2l50 3z"/><path fill="#b49282" d="M243 33v-2l50-6v2z"/><path fill="#d1af9c" d="M286 26v-2l14 2v1z"/><path fill="#a48577" d="M371 153l8 20-1 1-9-20z"/><path fill="#515155" d="M251 88l2 1-3 6-1-1z"/><path fill="#374828" d="M303 48v2l-26-3v-1z"/><path fill="#7f7772" d="M356 23l-3-25h2l3 25z"/><path fill="#556a86" d="M189 92l-9-35h1l10 34z"/><path fill="#53573c" d="M359 61l-1-2 19-15 1 1z"/><path fill="#2a1e17" d="M158 190l-1 1-7-14 1-1z"/><path fill="#abc2d1" d="M245 39l2-1 9 15-1 1z"/><path fill="#5b4233" d="M396 158l-17 12-1-2 17-11z"/><path fill="#816456" d="M81 195l23-12 1 1-23 13z"/><path fill="#2b362c" d="M351 2l2 6-12 4-2-6z"/><path fill="#5b5752" d="M87 33l-19-7v-1l19 7z"/><path fill="#666555" d="M7 56l1-3 40 8-1 3z"/><path fill="#1d2a18" d="M375 53l20 10-3 4-19-10z"/><path fill="#2e3b21" d="M346 42l-25 9v-1l25-9z"/><path fill="#36404a" d="M171 144l1-1 15 8-1 1z"/><path fill="#4a3a33" d="M115 194l-7 12-3-1 7-13z"/><path fill="#c7afa0" d="M332 78v2h-12v-2z"/><path fill="#442e24" d="M35 216l33-38 4 4-32 38z"/><path fill="#e0e8eb" d="M169 79l2 1-7 12-2-1z"/><path fill="#758195" d="M228 108l-9-42h2l8 41z"/><path fill="#bcbec4" d="M174 102l-1 10h-1v-10z"/><path fill="#e4f0f6" d="M114 25l-4-10 3-1 3 10z"/><path fill="#d3d1d0" d="M159 29h8v47h-8z"/><path fill="#846c5d" d="M409 98v1l-89 2v-2z"/><path fill="#b09c8c" d="M72 106l1-1 19 18-1 2z"/><path fill="#2c3a1d" d="M269 32l1 2-19 8v-2z"/><path fill="#423934" d="M198 131v-14h15v14z"/><path fill="#00000f" d="M151 110l-5-8 2-1 4 8z"/><path fill="#6b5c4d" d="M13 190h16v12l-16 1z"/><path fill="#666951" d="M267 47l48-6 1 1-48 6z"/><path fill="#687080" d="M144 97l-1 9-17-1 1-9z"/><path fill="#b0a69d" d="M370 28h11v2l-11-1z"/><path fill="#78869c" d="M204 52h2l-2 48h-2z"/><path fill="#635a60" d="M196 38h1l-7 10h-1z"/><path fill="#363c37" d="M66 82l-34-2v-1l34 2z"/><path fill="#8f7367" d="M240 195l-54 22-5-13 53-22z"/><path fill="#2a394e" d="M190 45l-1 1-11-5v-2z"/><path fill="#d0e2f6" d="M-17-6L91-8V8l-108 2z"/><path fill="#363b2b" d="M39 57l2-5 6 2-2 5z"/><path fill="#a49090" d="M309-2l3-1 2 10h-3z"/><path fill="#8593ab" d="M140 86l-1 9-8-1 1-9z"/><path fill="#c7bfbd" d="M149 124l5 12-2 1-4-12z"/><path fill="#c7a998" d="M122 119l-5-9 9-6 6 10z"/><path fill="#b2a898" d="M72 31l11 1v1l-11-1z"/><path fill="#bc9f96" d="M355 185l-7 3-1-3 7-3z"/><path fill="#8d5f4e" d="M138 151l-1 4-27-7 1-5z"/><path fill="#8599aa" d="M130 84l-3-1 7-19 3 1z"/><path fill="#5c4e43" d="M6 106l1-1 11 28-2 1z"/><path fill="#576174" d="M225 109l-18-19 4-4 18 19z"/><path fill="#736f5c" d="M383 54l1-2 31 18v1z"/><path fill="#212716" d="M364 82l-5 7-6-3 6-8z"/><path fill="#3f4b34" d="M74 34l-5 16-3-1 5-16z"/><path fill="#779063" d="M116 127l1-7 9 1-1 8z"/><path fill="#685c5b" d="M120 32v1l-10 3-1-2z"/><path fill="#ad8d7f" d="M324 100l4 7-57 35-4-6z"/><path fill="#61626c" d="M203 118l-9-2 5-20 9 2z"/><path fill="#e4dfd9" d="M156 72l-4 2-19-28 4-3z"/><path fill="#765d50" d="M257 139l-8 1-1-8 8-1z"/><path fill="#505139" d="M383 13v2l-55 5v-2z"/><path fill="#ccc7c3" d="M100 54v-1l4-2 1 1z"/><path fill="#5f6977" d="M170 90l10-25h1l-9 25z"/><path fill="#776e7a" d="M143 65l-1 1-5-4 1-1z"/><path fill="#796c5e" d="M178 190l13 8-7 11-13-9z"/><path fill="#e0c3ac" d="M199 148l-2 2-6-5 2-3z"/><path fill="#645850" d="M165 121l-1-1 10-8 1 1z"/><path fill="#121b24" d="M194 16l2 3-1 1-2-3z"/><path fill="#746b5d" d="M-18 54v-2L85 36v1z"/><path fill="#b3c6d0" d="M278 9V7l8 1v2z"/><path fill="#9d776a" d="M153 190l1 1-14 15-2-1z"/><path fill="#a07f6e" d="M126 160l-6 1-6-19 6-2z"/><path fill="#978479" d="M396 20l2-6 5 2-3 6z"/><path fill="#7a726f" d="M38 100l-5-4 15-17 5 5z"/><path fill="#6e6a6a" d="M158 193l19-23 1 1-19 23z"/><path fill="#0f160d" d="M345 92l-1 6-31-4 1-6z"/><path fill="#999c90" d="M344 25l-1 3-4-1 1-3z"/><path fill="#68796f" d="M259 69v-1l12 2v1z"/><path fill="#0b1808" d="M308 84l-16 10-1-2 16-9z"/><path fill="#6f6160" d="M401 55l-10-7 3-5 11 7z"/><path fill="#c6a590" d="M382 126l1-14 24 1-1 14z"/><path fill="#b0bed5" d="M249 59l2-1 11 13-2 1z"/><path fill="#9b8e77" d="M348 78l-13 9v-1l12-9z"/><path fill="#675b4e" d="M77 59l-1 3-36-26 2-2z"/><path fill="#2b3820" d="M327 88l-62-7v-1l62 6z"/><path fill="#a77864" d="M228 150h-17v-5h17z"/><path fill="#3e4524" d="M111 77h-2l4-12h1z"/><path fill="#000400" d="M83 87l-1 2-4-3 1-1z"/><path fill="#6d5d5b" d="M216 113l9 1-1 15h-10z"/><path fill="#2a2924" d="M68 65l2-3 14 12-2 3z"/><path fill="#7f6c66" d="M398 97l1-8h2l-2 8z"/><path fill="#86675c" d="M79 145l2-33h1l-2 33z"/><path fill="#886e5e" d="M362 186l-6-5 12-13 6 6z"/><path fill="#674435" d="M41 160l1-2 31 21-1 2z"/><path fill="#997360" d="M185 172v-1l32 9-1 1z"/><path fill="#62553f" d="M276 22h25v1h-25z"/><path fill="#8396af" d="M229 42l3-3 22 17-3 4z"/><path fill="#bea398" d="M116 121l-12-3 3-12 12 3z"/><path fill="#7d8897" d="M157 175l-2 1-7-12 1-1z"/><path fill="#bf9182" d="M270 99l1 4-14 3-1-5z"/><path fill="#785032" d="M129 177l-1 1-24-19 1-1z"/><path fill="#484636" d="M299 15l29-5v2l-29 5z"/><path fill="#908077" d="M241 157l2-1 14 16-1 1z"/><path fill="#192e1c" d="M268 69l-8-10 2-1 7 10z"/><path fill="#a98171" d="M137 174l-5-46 2-1 4 47z"/><path fill="#505638" d="M338 39l1 2-50 12-1-1z"/><path fill="#7f7567" d="M89 54l10-7 4 7-10 7z"/><path fill="#785c50" d="M339 152l-10 38h-1l10-38z"/><path fill="#625d43" d="M320 25l1 1-27 7-1-1z"/><path fill="#8d817f" d="M58 64v-1l13-4 1 2z"/><path fill="#645b58" d="M157 140l-2-19h2l2 19z"/><path fill="#bfbdb3" d="M319 10V8l4-1 1 2z"/><path fill="#847063" d="M19 227l-2-1 28-54h2z"/><path fill="#3c5248" d="M3 40l-5-6 1-1 5 6z"/><path fill="#998e66" d="M398 128l10 27-7 3-11-27z"/><path fill="#2d1811" d="M237 117l-12 12-1-1 12-12z"/><path fill="#4b4d55" d="M175 73l-6-4 4-6 7 4z"/><path fill="#9d867a" d="M298 168l1-2 29 21v1z"/><path fill="#26323c" d="M183 116l5 1-1 3-4-1z"/><path fill="#9c8278" d="M330 113l-15 38-6-3 15-38z"/><path fill="#654c42" d="M279 178l-3-7 3-1 3 7z"/><path fill="#5f653a" d="M312 57h1l-1 13-2-1z"/><path fill="#161c20" d="M194 20v3h-2v-3z"/><path fill="#9aa893" d="M271 54v-1l12-3v2z"/><path fill="#9da7ab" d="M66 27v1H48v-2z"/><path fill="#394034" d="M220 30l18 2v2l-19-2z"/><path fill="#7f6557" d="M97 158l19 6-5 17-19-5z"/><path fill="#caa996" d="M127 116l6-1 1 21h-6z"/><path fill="#edf4fa" d="M201-6h5l-5 39-5-1z"/><path fill="#394535" d="M385 92l-5-5 8-9 6 6z"/><path fill="#312931" d="M186 28l1 1-2 4-2-1z"/><path fill="#93a0b1" d="M252 87l-14-33 2-2 15 33z"/><path fill="#313336" d="M357 42v-4h28v4z"/><path fill="#d3b29b" d="M381 190l-8 3-2-6 8-3z"/><path fill="#6d6262" d="M363 49l-14 2-1-11 14-2z"/><path fill="#8f7f81" d="M115 55L95 42l1-1 20 12z"/><path fill="#999596" d="M229 142l22 4-1 1-21-4z"/><path fill="#d7dcdc" d="M66 24v2l-56 2v-2z"/><path fill="#3b4639" d="M106 29l1 2-27 7-1-2z"/><path fill="#cfc0b8" d="M322 1l4-2 1 2-5 1z"/><path fill="#4f413f" d="M130 202l45-7v1l-45 8z"/><path fill="#624c40" d="M259 97h130v1H259z"/><path fill="#cbc9ca" d="M161 58l-19 16-1-2 18-17z"/><path fill="#607295" d="M212 69l-4 6-8-4 3-7z"/><path fill="#e7f0f9" d="M199-21l16 21-32 23-15-21z"/><path fill="#947a69" d="M340 133h1l40 54-2 1z"/><path fill="#acabab" d="M173 34l-22 7-1-1 23-8z"/><path fill="#927566" d="M283 25l2 1-4 10-2-1z"/><path fill="#d3b09a" d="M206 145v-13h5v13z"/><path fill="#140302" d="M367 98l-11-2v-1l11 1z"/><path fill="#dfd8d4" d="M145 109h3v5h-3z"/><path fill="#ab978e" d="M83 141l-2-1 3-7 2 1z"/><path fill="#281b14" d="M169 138l1 8-12 2-1-8z"/><path fill="#1c361b" d="M269 53l-7 2-2-6 8-2z"/><path fill="#90786f" d="M101 144l2 3-18 13-2-2z"/><path fill="#8d7069" d="M46 149l-4 8-33-14 4-8z"/><path fill="#646d81" d="M187 92h2l-6 24h-1z"/><path fill="#fefbf8" d="M150 78l7 1-2 17-8-1z"/><path fill="#1b2a1d" d="M50 70v2l-11-3v-1z"/><path fill="#cfd1cf" d="M151 42l-16 1V32l16-1z"/><path fill="#4d4f4c" d="M60 30H38v-2h22z"/><path fill="#897e79" d="M109 39l1-1 7 3v1z"/><path fill="#6e4e41" d="M230 181h-2v-29h1z"/><path fill="#a1aaa3" d="M4 87l-5 4-1-2 5-3z"/><path fill="#1e2119" d="M100 81v-2l8-2v2z"/><path fill="#3b2a23" d="M16 98l1 21h-4V99z"/><path fill="#e3eaee" d="M95 11l23 16-2 4-23-16z"/><path fill="#4a3731" d="M46 91v-2l13 3-1 2z"/><path fill="#6f4a3a" d="M111 142l3 1-8 17-3-1z"/><path fill="#7f513a" d="M135 148l2-1 8 15-3 2z"/><path fill="#7e6c67" d="M107 103v-2l25 4v1z"/><path fill="#867466" d="M333 32l1-1 15 11v1z"/><path fill="#4d543b" d="M291 35h1v31h-1z"/><path fill="#040903" d="M268 85l19 11-1 1-19-10z"/><path fill="#262c1c" d="M316 29l4 5-12 10-4-5z"/><path fill="#756e5c" d="M16 103l25-7 1 3-26 6z"/><path fill="#523526" d="M85 181l7-1 6 37-7 1z"/><path fill="#c8cdd2" d="M255 120V94h1v26z"/><path fill="#574a49" d="M154 129l4 31h-1l-4-31z"/><path fill="#616050" d="M243 22l-8 11-2-1 9-11z"/><path fill="#82665b" d="M79 190l-2 1-11-23 2-1z"/><path fill="#856659" d="M306 173l-8-51h1l8 51z"/><path fill="#9aafd1" d="M205 58l1-1 7 9-2 1z"/><path fill="#828a99" d="M184 140l-6-5 15-17 6 5z"/><path fill="#3d4f45" d="M228 31l1-1 23 9-1 2z"/><path fill="#878c6c" d="M43 169l-10-1 1-4h9z"/><path fill="#998d89" d="M106 36l-1-2 13-6v2z"/><path fill="#8b6a5c" d="M262 154l1-4 32 7-1 4z"/><path fill="#9c9570" d="M96 81l1 1-4 7-1-1z"/><path fill="#af8d74" d="M164 159l7-11 1 1-7 10z"/><path fill="#a18470" d="M377 71l-27 3v-3l26-3z"/><path fill="#919497" d="M43 90l-8-3 2-4 7 3z"/><path fill="#606573" d="M191 137h2l-8 12h-1z"/><path fill="#775a39" d="M341 107l-6-4v-2l7 4z"/><path fill="#696a54" d="M-17 69l46 6-1 7-46-5z"/><path fill="#a0664f" d="M207 155l-7 1-3-9 8-2z"/><path fill="#81544b" d="M126 88h1l-5 10-1-1z"/><path fill="#9e8175" d="M35 141l-2-7 40-14 2 7z"/><path fill="#b6a8a2" d="M128 35l16-10 1 1-16 10z"/><path fill="#79584d" d="M40 154l3-5 22 11-3 6z"/><path fill="#4b4f4e" d="M302 3v1l-6 1V4z"/><path fill="#ad8d7b" d="M149 177l-9-9 3-3 9 9z"/><path fill="#7c5f4d" d="M137 175l6-4 12 18-5 4z"/><path fill="#af9082" d="M282 157l-20-20 1-1 20 20z"/><path fill="#5f6b5b" d="M33 74l-6-9 4-3 6 9z"/><path fill="#ad917a" d="M208 199l-2-4 10-5 2 4z"/><path fill="#633c33" d="M400 179l-3-5 1-1 4 5z"/><path fill="#5c3f35" d="M227 179l-14 8-1-2 14-7z"/><path fill="#b3897a" d="M100 140l-1-1 21-6 1 2z"/><path fill="#764e3f" d="M4 124l-2 22H1l2-22z"/><path fill="#373d2b" d="M339 30l-19 1-1-6 19-1z"/><path fill="#aba09a" d="M237 151l4 31h-2l-3-31z"/><path fill="#485565" d="M156 174l2-10 6 1-1 10z"/><path fill="#d8af9c" d="M201 155h1l-1 4h-2z"/><path fill="#181b20" d="M184 43l5 11-2 2-6-12z"/><path fill="#838678" d="M51 70l4 7-1 1-4-7z"/><path fill="#5c4138" d="M224 204l-1-12 2-1v13z"/><path fill="#9ba8a7" d="M282 9l-24 10-1-1 24-11z"/><path fill="#b5bec8" d="M244 154l-2-1 7-33h1z"/><path fill="#282f18" d="M325 53v2l-17-3v-2z"/><path fill="#7f8893" d="M245 73h1l5 21-2 1z"/><path fill="#826459" d="M254 189l6-24 3 1-6 24z"/><path fill="#9f8174" d="M373 122l14 23-11 6-14-22z"/><path fill="#6d654f" d="M355 89l-1 1-5-12 2-1z"/><path fill="#b5968a" d="M350 115l-7 12-20-12 7-12z"/><path fill="#786c6a" d="M104 106l-5 9-2-1 6-9z"/><path fill="#283417" d="M291 40l-8 1v-5h7z"/><path fill="#eaf1f8" d="M255 14l-42 18-16-38 42-18z"/><path fill="#aec1d9" d="M193 58l2 14h-2l-2-14z"/><path fill="#606947" d="M23 177l16-9 2 4-16 9z"/><path fill="#abaaaa" d="M151 126l4 18h-2l-3-18z"/><path fill="#79826f" d="M96 68h-9v-3h9z"/><path fill="#a08b7d" d="M270 199l8-13 1 1-8 13z"/><path fill="#6e6f57" d="M255 35l24 15-1 1-24-15z"/><path fill="#595e46" d="M403 9l-25 28-1-1 25-28z"/><path fill="#87868f" d="M140 137l8-1 1 10h-8z"/><path fill="#614748" d="M121 42l1 1-13 11-1-1z"/><path fill="#c4a397" d="M379 195h2l4 8-2 1z"/><path fill="#22120e" d="M162 130l-4-7 3-1 4 6z"/><path fill="#3c422b" d="M124 69l1-2 6 3-1 2z"/><path fill="#b1c9df" d="M232 39l1-1 24 12-1 2z"/><path fill="#876d66" d="M255 45l10-3 1 2-11 3z"/><path fill="#6a4c40" d="M224 208l24-18 1 1-24 18z"/><path fill="#a7b9ce" d="M231 77l-4-43h3l4 43z"/><path fill="#b4978a" d="M248 24l1 1-8 3v-2z"/><path fill="#bdc5ca" d="M171 92l-21 13-1-2 22-12z"/><path fill="#babbbd" d="M248 94h1l-1 36h-2z"/><path fill="#6a6e76" d="M172 62l-1 9h-1l1-9z"/><path fill="#b0998c" d="M233 165h2l-1 28h-2z"/><path fill="#ada0a2" d="M129 95l-5 15h-1l4-15z"/><path fill="#a48780" d="M37 127l-14-11 1-1 14 11z"/><path fill="#686855" d="M305 91l-1-2 5-3 1 1z"/><path fill="#9a867a" d="M33 35v1l-14 3v-2z"/><path fill="#bfc5c9" d="M163 80l-1-1 14-36 2 1z"/><path fill="#9e7560" d="M198 152l-5 18-8-2 5-18z"/><path fill="#a38b7e" d="M385 164l-2 1-4-12h2z"/><path fill="#9b8375" d="M311 199l54-14 1 2-55 14z"/><path fill="#997e7b" d="M355 66l-25-3 1-9 25 3z"/><path fill="#141f12" d="M399 37l-14 14-1-1 14-15z"/><path fill="#d1b099" d="M307 22l-6 5-1-1 6-5z"/><path fill="#343728" d="M22 64l-1-1 9-10 1 1z"/><path fill="#e6eef7" d="M264-22l12 32-39 14-11-33z"/></svg>