<svg xmlns="http://www.w3.org/2000/svg" viewBox="0 0 50 25"><path fill="#877b74" d="M0 0h50v25H0z"/><path fill="#fff" d="M-12 3l71-18L30 4z"/><path fill="#262c15" d="M33 11l20 2-4-24z"/><path fill="#fff" d="M17-3l3 16 9-25z"/><path fill="#614836" d="M-15 10l25-6 15 37z"/><path fill="#f8ffff" d="M-14 4l-1-19L36 1z"/><path fill="#c7d8f0" d="M29-14l5 32-19-33z"/><path fill="#302c3b" d="M26 41l-7-14 4-18z"/><path fill="#cba18d" d="M34 13l-15 9 34-8z"/><path fill="#b79b8e" d="M-1 19l20-2-1-8z"/><path fill="#686756" d="M29 4l13 6L52-3z"/><path fill="#394233" d="M5 12l12-4-25-1z"/><path fill="#7f594a" d="M50 21l-64 16 3-19z"/><path fill="#cdd6e4" d="M22 13L16 1h7z"/><path fill="#fff" d="M1-9L29 3 66-9z"/><path fill="#546987" d="M29 10l-3 9-3-15z"/><path fill="#312612" d="M42 12l24-7v9z"/><path fill="#463229" d="M27 41L2 25l10-3z"/><path fill="#37352e" d="M16 4l-2 1 3 2z"/><path fill="#45444d" d="M31 15l-13 1 4-4z"/><path fill="#a27e6d" d="M60 10L36 41l-4-24z"/><path fill="#93abc6" d="M24 9l2-2 4 4z"/><path fill="#101413" d="M34 8l5 3-5 2z"/><path fill="#93907a" d="M44 7l-3 4 6-2z"/><path fill="#5a5f53" d="M1 15l-16-4 30-8z"/><path fill="#725544" d="M41 20l25-4-2 7z"/><path fill="#dfecff" d="M24 1l-39 4 52-20z"/><path fill="#ae9383" d="M56 20l-23-8h15z"/><path fill="#8f7467" d="M22 22L4 20l2-9z"/><path fill="#c7b0a3" d="M30 22l2-9h6z"/><path fill="#182816" d="M46 6h11l-1-5z"/><path fill="#35301d" d="M64 14l2-7-27 5z"/><path fill="#9c7d72" d="M24 13l10 28H24z"/><path fill="#a19c9e" d="M24 5l-6-1 2-1z"/><path fill="#68625b" d="M35 2l16 3 15-9z"/><path fill="#372e35" d="M22 14l-4 6 5-2z"/><path fill="#bb9e8d" d="M10 16l4-5 5 6z"/><path fill="#392e20" d="M13 8l1 2-6 1z"/><path fill="#c6a59c" d="M46 14l16-5 4 13z"/><path fill="#50522d" d="M43 5L33 4l1 3z"/><path fill="#8a7167" d="M21 41l11-24 15 2z"/><path fill="#525f6b" d="M24 9l-2-1 4-2z"/><path fill="#715e4f" d="M-15-9L0 41l8-20z"/><path fill="#fdffff" d="M19 13V9h2z"/><path fill="#6b686f" d="M18 11l-2 1 6 6z"/><path fill="#8599b3" d="M29 7h-3l-2 7z"/><path fill="#9cb0ca" d="M34 10l-2-3-8 1z"/><path fill="#a09c86" d="M40 7h4l1 2z"/><path fill="#5b5051" d="M26 12l5 5-6-1z"/><path fill="#87583f" d="M28 19l-3 22 11-2z"/><path fill="#817376" d="M26 21l-7-2-2 2z"/><path fill="#9c7c7a" d="M49 9l13-24-4 19z"/><path fill="#e0e6ed" d="M22 13l-2-8-1 4z"/><path fill="#f5f9ff" d="M33-15l3 15-11 4z"/><path fill="#2d2f1f" d="M38 12l2-4h2z"/><path fill="#857e70" d="M34 7l6-10 3 2z"/><path fill="#bf957e" d="M47 24l12-6-5 16z"/><path fill="#2c242a" d="M22 14h-2l3 4z"/><path fill="#c1b29e" d="M13 12l3-2 1 5z"/><path fill="#261f26" d="M21 30l1-7 1 6z"/><path fill="#725446" d="M12 21l11 20 10-13z"/><path fill="#343624" d="M44 10l16 6-6-7z"/><path fill="#5f5f54" d="M-11 16L16 4-4 6z"/><path fill="#544937" d="M44 2l1 4-12 1z"/><path fill="#8f766a" d="M6 13l7 4-14 3z"/><path fill="#7f858f" d="M16 14l2-6 1 4z"/><path fill="#b5bab1" d="M60 9l6-12-20-1z"/><path fill="#b0aeb1" d="M19 3l6 1-10 1z"/><path fill="#95a28d" d="M38 7l-1 3 2-3z"/><path fill="#a6bad7" d="M32 11l-1-5-1 5z"/><path fill="#4b4129" d="M-15 13l1 7 17-6z"/><path fill="#756f64" d="M16 5L9 4 6 8z"/><path fill="#70655d" d="M39-13l-2 7 9 13z"/><path fill="#3c231c" d="M9 23l17 18H-9z"/><path fill="#001c0a" d="M63 6l-15 6L61-2z"/><path fill="#645e64" d="M22 21l3 3-3-10z"/><path fill="#161413" d="M35 12l-1-2 7 2z"/><path fill="#404635" d="M41 13l-5-1-3-6z"/><path fill="#6c7c92" d="M25 16l-1-6h3z"/><path fill="#7b8696" d="M26 6l-2 2 7 2z"/><path fill="#b59184" d="M24 19l8-3h-5z"/><path fill="#694f38" d="M66-3l-5 40-11-17z"/><path fill="#a88b7b" d="M36 20l3-7-10 9z"/><path fill="#cad6ec" d="M5 3l-20-4 37-9z"/><path fill="#4e5962" d="M24 4l-1 4 2 4z"/><path fill="#918075" d="M4 12l9 6-2-6z"/><path fill="#0f350d" d="M50 5l14 11 2-23z"/><path fill="#797882" d="M21 22v8l2-3z"/><path fill="#856c5d" d="M49 18l-14 1 8 3z"/><path fill="#edf3f6" d="M30-8L25 5 37-9z"/><path fill="#8a99a3" d="M7 3h4l-1 1z"/><path fill="#41392f" d="M11 12l3-4-6 4z"/><path fill="#a88d79" d="M16 13l-2 5 1-10z"/><path fill="#9c7864" d="M37 41l-52-4 45-14z"/><path fill="#eceef7" d="M17 2L1-15 37 0z"/><path fill="#2e1d19" d="M59 7l7 5-18-5z"/><path fill="#4c483a" d="M9 6v1l2-2z"/><path fill="#8898ad" d="M24 11l1-4 4 4z"/><path fill="#beb7b2" d="M20 5v3h-1z"/><path fill="#706157" d="M66 7v-9L44 10z"/><path fill="#966f5f" d="M16 16l-7 1 6 1z"/></svg>