<svg xmlns="http://www.w3.org/2000/svg" viewBox="0 0 400 200"><path fill="#857a71" d="M0 0h400v200H0z"/><path fill="#fff" d="M231 28l147-52H-12l-12 54z"/><path fill="#1d290e" d="M258 44l166-56v113l-159-2z"/><path fill="#fbffff" d="M154 112l30-72 202-64H111z"/><path fill="#453230" d="M-24 192l204 32 10-212-37 137z"/><path fill="#3b3f2e" d="M-24 41L85 25l57 34-155 82z"/><path fill="#aac5e8" d="M255 44l13 96-77-71 22-38z"/><path fill="#e9ffff" d="M50 26l-74 20L9-24 292 9z"/><path fill="#c09786" d="M272 98l-150 83 284-54 5-28z"/><path fill="#eaf0f9" d="M144 52v55l30-9-8-58z"/><path fill="#373d4e" d="M214 90l-63 14 6 54 92-41z"/><path fill="#cea99c" d="M284 58l39 5 38 15-2-24z"/><path fill="#070e05" d="M254 99l16-26 116 25-52-1z"/><path fill="#c8a395" d="M122 71l35 76-89-20 22-29z"/><path fill="#795544" d="M279 224l-57-75-246-15 34 90z"/><path fill="#6b85a5" d="M190 151l-33 52 42-143 24-12z"/><path fill="#242e37" d="M132 70l-3-32 3-12-17-10z"/><path fill="#2a3a25" d="M90 69L-6 56l86 42 39-23z"/><path fill="#484e3d" d="M423 5l-63 98 31-127-185 60z"/><path fill="#161e0e" d="M424 74l-62 1-33 25 66-2z"/><path fill="#958d8c" d="M157 18L34 67l124-38 53-1z"/><path fill="#926958" d="M179 218l147 5 98-73-134-19z"/><path fill="#cbbcb3" d="M228 188l27-58 67-26-75 4z"/><path fill="#94766a" d="M3 150l80 4 142 44L39 80z"/><path fill="#232933" d="M135 83l51 72-22 69 12-66z"/><path fill="#3e5775" d="M188 127l-6-104 17-5-32 52z"/></svg>