<svg xmlns="http://www.w3.org/2000/svg" viewBox="0 0 400 200"><path fill="#857a71" d="M0 0h400v200H0z"/><path fill="#fff" d="M-34-21l305-11 2 55-305 10z"/><path fill="#1f2a0e" d="M417 101l-158-2 1-83 158 3z"/><path fill="#fcffff" d="M138-1l36 1-1 103-36-1z"/><path fill="#343b28" d="M-18 57L89 20l22 62L3 119z"/><path fill="#cdddf3" d="M170-21l27-15 85 159-28 14z"/><path fill="#5e3c2f" d="M185 134l13 107L1 265l-13-107z"/><path fill="#ecffff" d="M1 35l-4-47 197-21 5 47z"/><path fill="#fff" d="M185 14l147-45 6 22-146 45z"/><path fill="#242e45" d="M217 130l-56 19-14-43 56-19z"/><path fill="#cfa28c" d="M241 141l-1-40 164-3 1 40z"/><path fill="#88acda" d="M184 61l73-15 8 35-74 16z"/><path fill="#cda595" d="M84 99l33-20 38 61-33 20z"/><path fill="#081106" d="M259 98l-1-19 72-1 1 19z"/><path fill="#6c6754" d="M322-37l71 48-57 84-71-48z"/><path fill="#202f1c" d="M87 87l-9-15 49-29 9 14z"/><path fill="#d3d7df" d="M129 53l4-46 49 5-4 45z"/><path fill="#143052" d="M188 45l-6 63-13-2 7-62z"/><path fill="#d4ada0" d="M377 69l-1 6-61-15 2-6z"/><path fill="#f0f5fb" d="M143 54h24l1 50h-24z"/><path fill="#041303" d="M406 98l-45-1V72l46 2z"/></svg>