<svg xmlns="http://www.w3.org/2000/svg" viewBox="0 0 400 200"><path fill="#857a71" d="M0 0h400v200H0z"/><path fill="#fff" d="M-14-18l293-15 3 53-294 15z"/><path fill="#1f2a0e" d="M260 98l2-85 186 3-2 85z"/><path fill="#fbffff" d="M132 98l11-126 39 3-11 126z"/><path fill="#333b27" d="M110 85L9 112-8 48 93 21z"/><path fill="#c3d0e4" d="M246 152L182-14l36-14 64 166z"/><path fill="#5d3c2f" d="M183 134l11 93-197 25-11-93z"/><path fill="#fff" d="M184 7l134-41 9 28-134 42z"/><path fill="#ebffff" d="M0-7l285-25 4 41L4 34z"/><path fill="#303545" d="M156 153l-13-37 84-29 13 37z"/><path fill="#c7a193" d="M123 76l36 56-43 28-36-56z"/><path fill="#d4a38b" d="M420 138H253v-37h167z"/><path fill="#000704" d="M285 68l1 30-29 1-1-30z"/><path fill="#444e5b" d="M156 125l-8 2-33-109 7-3z"/><path fill="#7a715f" d="M360 71l-91-6 4-56 91 6z"/><path fill="#88acd7" d="M264 82l-73 13-6-35 72-13z"/><path fill="#0b2446" d="M182 120l-11-2 11-77 11 2z"/><path fill="#060904" d="M445 97l-169 3V89l169-3z"/><path fill="#303d2a" d="M138 67L53 98l-8-23 85-31z"/><path fill="#f8fdff" d="M148 59l23 3-5 43-23-2z"/><path fill="#c7cace" d="M177 17l3 35-49 4-3-34z"/><path fill="#1c110d" d="M161 152l-10-42 18-5 10 43z"/><path fill="#484b40" d="M401-38l4 89-98 5-5-89z"/><path fill="#7589a3" d="M207 93l-38 89-11-5 37-89z"/><path fill="#776d66" d="M27 54l1-28 84 3-1 28z"/><path fill="#553b28" d="M-18 144l-12-40 49-15 13 40z"/><path fill="#9e715f" d="M328 128v77H186v-77z"/><path fill="#cda898" d="M333 54l34 13-5 11-33-12z"/><path fill="#0f2201" d="M222 30l2-4 37 14-2 4z"/><path fill="#3b1d11" d="M57 174l46 16-12 34-45-16z"/><path fill="#cea08b" d="M310 23l1 6-61 6v-6z"/><path fill="#7d503c" d="M333 176v-30l82-1 1 29z"/><path fill="#c5b9b3" d="M210 136l9-9 32 32-9 9z"/><path fill="#916d5d" d="M156 140l-5 41-133-16 5-42z"/><path fill="#734028" d="M230 150l2 38-22 1-2-38z"/><path fill="#818288" d="M145 100l-23 2-3-38 23-2z"/><path fill="#0f240d" d="M357 87V73l85 4-1 14z"/><path fill="#553524" d="M240 131l-11-2 4-21 11 2z"/><path fill="#69798b" d="M162 75l33-60 4 2-33 61z"/><path fill="#e9c3ac" d="M122 69l9 8-23 28-10-8z"/><path fill="#1b2e11" d="M318 24l5 13-30 12-5-13z"/><path fill="#d7b59f" d="M326 76l20 3-2 9-20-3z"/><path fill="#b7c3cc" d="M240 177l-9-3 15-62 9 3z"/><path fill="#d5b29d" d="M445 70v4l-92-5v-3z"/><path fill="#bf9177" d="M409 184l-17 35-37-17 17-35z"/><path fill="#9b7d71" d="M109 138l-19 21-66-58 19-21z"/><path fill="#434327" d="M212 35l84-17v2l-84 16z"/><path fill="#250f00" d="M199 141l-5-5 18-19 5 5z"/><path fill="#b99a8e" d="M359 61l-59 5-1-6 59-5z"/><path fill="#788aa8" d="M182 59l49-2 1 42-48 2z"/><path fill="#000003" d="M182 179l-7 14-9-5 8-13z"/><path fill="#1c2b19" d="M373 69l-14-15 29-28 14 15z"/><path fill="#e1efff" d="M64-15l57 8-5 36-57-8z"/><path fill="#c4c3c3" d="M134 19l46 4-3 34-46-4z"/><path fill="#faffff" d="M218 12l4 5-36 26-3-5z"/><path fill="#615e51" d="M0 76l-6-36 89-17 6 35z"/><path fill="#bfa0a5" d="M395 46l14 12-6 7-14-12z"/><path fill="#1e2430" d="M192 46l-18 29-5-4 18-29z"/><path fill="#1b3e07" d="M294 92l-5-10 41-19 4 9z"/><path fill="#989397" d="M156 144l-19 5-14-54 20-4z"/><path fill="#bdb7ba" d="M192 112l7 39-5 1-7-39z"/><path fill="#777165" d="M392 18l3 14-51 8-3-14z"/><path fill="#ecf6ff" d="M117-21l75 16-7 31-75-16z"/><path fill="#d0e0fb" d="M62-20l11 38L9 37-3 0z"/><path fill="#3a4454" d="M169 125l11-1 5 40-11 1z"/><path fill="#a8bdd3" d="M265 56l-23 26-24-21 23-25z"/><path fill="#293f28" d="M251 30l-2-3 33-18 2 3z"/><path fill="#ecf4ff" d="M279-17l7 27-79 21-7-27z"/><path fill="#1d261a" d="M271 99l-12-2 6-41 12 2z"/><path fill="#a4938a" d="M93 63L82 47l17-11 11 15z"/><path fill="#a3a2a2" d="M180 38l-39-7 3-14 38 7z"/><path fill="#44593e" d="M262 29l17 39-11 5-17-39z"/><path fill="#606c7e" d="M139 117h-11l1-58h11z"/><path fill="#141a23" d="M196 17l1 1-13 16-1-1z"/><path fill="#b6a28d" d="M295 56l8 9-9 9-8-9z"/><path fill="#713c38" d="M211 47l-18 12-5-8 18-12z"/></svg>