<svg xmlns="http://www.w3.org/2000/svg" viewBox="0 0 400 200"><path fill="#857a71" d="M0 0h400v200H0z"/><g transform="translate(1 1) scale(1.5625)"><ellipse fill="#fff" rx="1" ry="1" transform="matrix(-104.704 -.58192 .11247 -20.23576 80 0)"/><ellipse fill="#242f14" rx="1" ry="1" transform="matrix(65.3666 -18.2913 8.58776 30.6896 233 30)"/><ellipse fill="#feffff" cx="99" cy="17" rx="14" ry="50"/><ellipse fill="#333c2a" rx="1" ry="1" transform="matrix(-40.27967 10.3017 -5.27699 -20.63302 40 39)"/><ellipse fill="#5c3726" rx="1" ry="1" transform="matrix(-1.75475 20.0569 -85.78623 -7.50532 41 117)"/><ellipse fill="#c3d8f2" rx="1" ry="1" transform="matrix(-26.61419 -53.3798 11.55834 -5.76277 142 29)"/><ellipse fill="#ecffff" rx="1" ry="1" transform="matrix(116.60184 -5 .43562 10.15876 76 6)"/><path fill="#030410" d="M116 66v32H98V66z"/><path fill="#d4a792" d="M156 63h100v25H156z"/><path fill="#000400" d="M165 53h91v9h-91z"/><ellipse fill="#506180" rx="1" ry="1" transform="rotate(147 57 48) scale(18.49301 31.96891)"/><path fill="#daebff" d="M102-1L-16 26 8-16z"/><ellipse fill="#97afcd" rx="1" ry="1" transform="matrix(-5.02114 -17.66947 23.42138 -6.65567 144 42)"/><ellipse fill="#4c4532" cy="55" rx="20" ry="34"/><path fill="#898383" d="M33 17l61-4 34 2-71 22z"/><path fill="#ceac9b" d="M225 36l11 11-13-2-46-9z"/><path fill="#cba799" d="M97 90L79 42 42 79z"/><path fill="#e4eaf0" d="M92 21h17v44H92z"/><path fill="#9d715e" d="M122 83h134v45H122z"/><path fill="#fff" d="M137-16l-15 37 78-24z"/><ellipse fill="#b8c9d7" rx="1" ry="1" transform="matrix(3.54272 .81268 -5.52605 24.08962 155 92)"/><ellipse fill="#5b5f43" cx="183" cy="25" rx="21" ry="21"/><path fill="#6a6557" d="M248 22l-114-2 124-36z"/><ellipse fill="#332d2e" rx="1" ry="1" transform="rotate(111 42 82) scale(16.49234 6.61545)"/><path fill="#414a3d" d="M31 60l61-15L64-6l20 26z"/></g></svg>