<svg xmlns="http://www.w3.org/2000/svg" viewBox="0 0 400 200"><path fill="#857a71" d="M0 0h400v200H0z"/><path fill="#fff" d="M-38-21l316-11 2 55-316 11z"/><path fill="#1f2b0f" d="M259 13h199v85H259z"/><path fill="#feffff" d="M171 105l-33-4L150-6l32 3z"/><path fill="#333a26" d="M109 83L1 120l-21-60L88 22z"/><path fill="#5e3d30" d="M182 134l10 91-198 21-9-92z"/><path fill="#edfcff" d="M307 2L136 58 117 0l171-56z"/><path fill="#a1c7f4" d="M214 26l54 31-27 47-54-31z"/><path fill="#0f1323" d="M148 106l34-5 6 41-34 6z"/><path fill="#e6fdff" d="M148-35l6 53L1 37l-7-53z"/><path fill="#cea595" d="M328 157l-89-5 3-54 89 4z"/></svg>