<svg xmlns="http://www.w3.org/2000/svg" viewBox="0 0 100 50"><path fill="#877b74" d="M0 0h100v50H0z"/><path fill="#fff" d="M42 12L98-8-15 1z"/><path fill="#232a13" d="M109 25L94-15 64 24z"/><path fill="#5b4c3c" d="M35 7L5 66-14 9z"/><path fill="#f5ffff" d="M40 27l14-42-26 7z"/><path fill="#efffff" d="M-10 10L4-15 72 1z"/><path fill="#bfd0ec" d="M65 12l2 29L53 8z"/><path fill="#573934" d="M46 24l2 42h-59z"/><path fill="#bc978e" d="M41 38l-42-3 35-16z"/><path fill="#cfa28e" d="M64 25l-7 17 59-15z"/><path fill="#f5ffff" d="M112-14l-127 2L58 7z"/><path fill="#3d4f6f" d="M58 32L47 7l-5 28z"/><path fill="#293d2d" d="M-2 14l21 9 15-7z"/><path fill="#8eabd1" d="M67 14L48 26l-1-11z"/><path fill="#192816" d="M65 12l24 13-20-2z"/><path fill="#6d6957" d="M62 8l53-23-32 38z"/><path fill="#906a5b" d="M79 57l37-23L0 36z"/><path fill="#0b090e" d="M40 36v-9l7 10z"/><path fill="#86868d" d="M46 12L30 6l19-1z"/><path fill="#f0f6ff" d="M43 26l-6-5 6-8z"/><path fill="#0c1007" d="M116 14v10l-33-1z"/><path fill="#5e4435" d="M45 45l-5 21-55-24z"/><path fill="#d2b599" d="M95 18h-9l-5-4z"/><path fill="#5b564c" d="M-1 36L24 7H10z"/><path fill="#b99e95" d="M52 34l30-8-23 16z"/><path fill="#d9e9ff" d="M0 8L71-2l-86-13z"/><path fill="#a99792" d="M16 32l20-17 3 20z"/><path fill="#40452b" d="M83 8l-20 2 24 5z"/><path fill="#51494d" d="M45 22l17 6-3 6z"/><path fill="#243145" d="M45 15l2 8-6 9z"/><path fill="#8e746a" d="M11 22l47 24-53-9z"/><path fill="#f6ffff" d="M64 4L48 8l22-23z"/><path fill="#2d3428" d="M83 11l12 4 12-7z"/><path fill="#57535a" d="M20 7l17 10-7-9z"/><path fill="#e4e2e0" d="M43 12l-7-4 2 18z"/><path fill="#7a422c" d="M58 40l-1 10-4-12z"/><path fill="#bc967f" d="M85 46l9 5 16-7z"/><path fill="#8b8ea0" d="M48 41l-2-9 5-9z"/><path fill="#b3a195" d="M99 13l10-1-9 6z"/><path fill="#5e6e81" d="M33 28l3 2V17z"/><path fill="#000003" d="M42 28l-1 3-3-4z"/><path fill="#575d64" d="M60 6l2 3H51z"/><path fill="#29321f" d="M66 25l18-8-18 1z"/><path fill="#545059" d="M30 4v7l3-1z"/><path fill="#8c7d71" d="M90 1l-6 22 7-6z"/><path fill="#807d66" d="M73 20l2-7 12-6z"/><path fill="#cfb2a5" d="M38 32l-3 4-4-9z"/><path fill="#403433" d="M56 29l-6 6 2-12z"/><path fill="#9c9592" d="M24 10l8-4-9 11z"/><path fill="#e9f3ff" d="M109-15H45l8 23z"/><path fill="#cdac9c" d="M23 25l9-6-7 12z"/><path fill="#d1b9ab" d="M62 25l1 7 13-4z"/><path fill="#745343" d="M116 46l-31-5 27-8z"/><path fill="#412117" d="M7 65l29-9-20-11z"/><path fill="#b5afb3" d="M59 46l1-14h4z"/><path fill="#2c3623" d="M25 15l2 6H15z"/><path fill="#819aaf" d="M41 49l4-10h-4z"/><path fill="#eaeffb" d="M48 6l-4-17L23 2z"/><path fill="#433f46" d="M48 38l-10-1 8-11z"/><path fill="#67615d" d="M114-12l-1 22-44-5z"/><path fill="#c4b599" d="M73 8l-1-2h7z"/><path fill="#7f6355" d="M3 48l-8-18 46 9z"/><path fill="#7a6358" d="M68 66l-9-2 5-31z"/><path fill="#6c665c" d="M24 18L21 7l-25 4z"/><path fill="#a7bad5" d="M63 22l-1-11-11-2z"/><path fill="#b69684" d="M70 29l29 7 11-12z"/><path fill="#2f371d" d="M82 14l-6-6-1 6z"/><path fill="#e8ae93" d="M49 35v3l4 3z"/><path fill="#8394b2" d="M48 17l13 11-6-16z"/><path fill="#433c42" d="M47 12l5-1-9 8z"/><path fill="#9e8f78" d="M73 14l8 1-9 3z"/><path fill="#39414f" d="M47 38l-5 9 1 7z"/><path fill="#c2bebc" d="M33 8l11 11-1-12z"/><path fill="#f0f8ff" d="M47 10l10-7-1-5z"/><path fill="#988277" d="M11 24l19 2L6 36z"/><path fill="#e5ecf6" d="M93-2L16-14 33 6z"/><path fill="#d5dbd0" d="M99 1l17-16-22 7z"/><path fill="#343d01" d="M83 16h-6l12 4z"/><path fill="#160e10" d="M34 16l-2-4v4z"/><path fill="#243021" d="M103 4l-6 12-4-1z"/><path fill="#e4eefa" d="M22-9l8 17L10-6z"/><path fill="#1d1e15" d="M67 24l19-1-17-5z"/><path fill="#9c9d87" d="M32 16l-4-3 6 9z"/><path fill="#544332" d="M8 22l-23 7 18 2z"/><path fill="#788095" d="M52 24l-5-8 1 20z"/><path fill="#af9788" d="M90 17l-1-4-5 3z"/><path fill="#876050" d="M26 35l14 13-13 7z"/><path fill="#414348" d="M42 56l-5 1 4-19z"/><path fill="#cea08e" d="M56 30v6l-4 1z"/><path fill="#b3bbc1" d="M60 14l-1 7 8-7z"/><path fill="#81706d" d="M85 6l-7-1v-17z"/><path fill="#7f8c6e" d="M86 19v3l-11-3z"/><path fill="#4b4739" d="M72 5l-7 1 6 1z"/><path fill="#545964" d="M39 27l20 5-4-10z"/><path fill="#161611" d="M25 14l-1 2 4-2z"/><path fill="#a1867b" d="M79 50l-17-8 2-6z"/><path fill="#8490a9" d="M55 16l-5-2-4 20z"/><path fill="#423127" d="M85 11l-2 2 9 1z"/><path fill="#aea286" d="M64 7l7 2 4-2z"/><path fill="#966753" d="M61 33L46 55l2-12z"/><path fill="#2e3019" d="M75 8l2 2 7-3z"/></svg>