<svg xmlns="http://www.w3.org/2000/svg" viewBox="0 0 400 200"><path fill="#857a71" d="M0 0h400v200H0z"/><path fill="#fff" d="M-29-20l305-11 1 53-304 11z"/><path fill="#222d11" d="M404 10l1 89-145 2-1-89z"/><path fill="#c8dff8" d="M121 8l114-28 24 95-114 28z"/><path fill="#39402e" d="M-25 129l-18-50 166-60 18 50z"/><path fill="#5e3d30" d="M196 237l-234 29-13-104 234-29z"/><path fill="#1f2434" d="M186 33l21 7-38 116-21-7z"/><path fill="#fff" d="M312-2L200 32l-8-25 112-35z"/><path fill="#f1ffff" d="M-17 30l-3-42 198-10 3 42z"/><path fill="#deb4a3" d="M248 97l79 8-4 37-79-8z"/><path fill="#fcf8f2" d="M148 105l-4-72 25-2 4 72z"/><path fill="#cca595" d="M125 163l-43-60 32-24 44 60z"/><path fill="#d3a78f" d="M402 102l-1 34-77-2 2-34z"/><path fill="#88a0c2" d="M264 57l-7 43-69-11 6-43z"/><path fill="#313a50" d="M200 134l-11-43 32-8 11 43z"/><path fill="#b99d8a" d="M359 70l-73-4V54l74 3z"/><path fill="#7d7a6c" d="M307 33L203 57l-5-23 104-24z"/><path fill="#000400" d="M288 66l-1 30-27-1 1-30z"/><path fill="#9e9296" d="M84 49l35-33 12 12-36 33z"/><path fill="#10150c" d="M308 85l122-6 1 16-122 6z"/><path fill="#192c18" d="M114 75L61 94l-8-20 53-20z"/><path fill="#9b705e" d="M255 209l-5-78 147-7 4 78z"/><path fill="#554d3c" d="M-7 35l47 5-10 93-46-5z"/><path fill="#c1b2ac" d="M278 108l-18 65-30-8 18-65z"/><path fill="#615d57" d="M301 8l49-52 54 50-49 52z"/><path fill="#110202" d="M157 104l15 33-9 4-14-33z"/><path fill="#412316" d="M96 223l-48-6 5-42 48 6z"/><path fill="#d6b6a6" d="M107 111l-12-10 28-35 12 9z"/><path fill="#995b41" d="M236 202l-45 5-6-55 45-4z"/><path fill="#997768" d="M131 121l-23 57-94-38 23-57z"/><path fill="#6b645b" d="M113 25l1 29-75 4-1-30z"/><path fill="#a8bdd4" d="M210 42l23-10 24 56-22 10z"/><path fill="#768aa9" d="M228 95l-42 4-3-39 42-4z"/><path fill="#d6b19b" d="M338 69l85-5 1 3-86 5z"/><path fill="#d0e3ff" d="M-6-34l34 1-1 69-35-1z"/><path fill="#8b9bae" d="M153 173l15-24 12 8-15 23z"/><path fill="#c0a98e" d="M345 87h-26V77l26 1z"/><path fill="#eefeff" d="M76 7l4-7 39 26-4 6z"/><path fill="#e3a588" d="M188 148l33-20 8 13-33 20z"/><path fill="#d1a090" d="M274 36l-2-6 49-15 2 6z"/><path fill="#152317" d="M367 68l-3-31 27-3 3 31z"/><path fill="#1f2d42" d="M188 118l-11 1-7-60 11-2z"/><path fill="#1f2d11" d="M217 32l1-3 35 6-1 4z"/><path fill="#26272b" d="M179 31l13-12 5 5-12 12z"/><path fill="#183508" d="M288 88l29-28 12 13-29 28z"/><path fill="#efffff" d="M293-21l8 22-61 22-8-22z"/><path fill="#735545" d="M412 145l1 29-80 2v-30z"/><path fill="#cac3bd" d="M180 52l-47 4-2-31 47-4z"/><path fill="#2d160c" d="M218 108l3 2-21 31-4-3z"/><path fill="#b68e82" d="M335 100v6l-56-2v-6z"/><path fill="#fff" d="M186 42l-2-3 16-14 2 3z"/><path fill="#eef6ff" d="M220 32L103 11l6-35L227-3z"/><path fill="#353d45" d="M177 45l-1-1 23-31 1 1z"/><path fill="#341914" d="M245 114l-17 24-5-3 16-25z"/><path fill="#54281c" d="M206 38l2 16-25 3-2-16z"/><path fill="#fff" d="M145 95l-2-28 14-1 2 28z"/><path fill="#7c543d" d="M249 196l-5-1 9-71 4 1z"/><path fill="#7a8eae" d="M196 146l-14-1 2-48h14z"/><path fill="#bda1a2" d="M405 68l-17-14 5-7 18 13z"/><path fill="#05182c" d="M115 21l3-3 12 9-3 4z"/><path fill="#d1ae98" d="M410 183l-43 16-3-9 42-16z"/><path fill="#728095" d="M144 63l3 50-17 1-4-50z"/><path fill="#0e2508" d="M322 38l-34 5-2-8 34-5z"/><path fill="#040c11" d="M172 193l-7-11 11-7 8 10z"/><path fill="#798a6b" d="M301 71l-6 5-28-29 5-6z"/><path fill="#162311" d="M417 77l-2 23-52-3 1-24z"/><path fill="#906e5d" d="M156 143l-3 34-48-3 3-34z"/><path fill="#4d4d31" d="M287 14l1 6-60 15-2-6z"/><path fill="#070005" d="M142 66l-2 1-18-19 2-1z"/><path fill="#abc5e0" d="M190 30l67 17-2 6-66-18z"/><path fill="#b8b6b8" d="M227 98l11-14 30 22-10 14z"/><path fill="#606054" d="M404 17l-53 34-31-48 52-34z"/><path fill="#ac8a80" d="M365 72l-15 7-11-24 16-7z"/><path fill="#b3b9c2" d="M248 108l9 2-19 74-9-2z"/><path fill="#312520" d="M157 149l-8-39 20-4 8 38z"/><path fill="#d7e8ff" d="M28 22l2-47 85 5-3 46z"/><path fill="#7b5546" d="M215 157l56 43-13 16-55-43z"/><path fill="#806254" d="M112 183l-131-21 6-37 131 21z"/><path fill="#a69f9b" d="M143 18l22 1v20h-22z"/><path fill="#2f4e70" d="M176 135l15 4-6 24-15-4z"/><path fill="#b0998e" d="M123 122l-40 13-8-24 41-13z"/><path fill="#223a32" d="M224 37l-25-3v-3l25 2z"/><path fill="#484a31" d="M261 28l13 17-12 10-13-18z"/><path fill="#2e3321" d="M353 52l-41 5-1-11 40-5z"/><path fill="#5e5c50" d="M89 40L-9 59l-3-17 98-18z"/><path fill="#dcd9d3" d="M132 34l11-4 15 41-12 4z"/><path fill="#a8907f" d="M435 124l-2 24-135-14 2-25z"/><path fill="#374736" d="M-10 62l4-12 96 33-4 12z"/><path fill="#ae9c94" d="M88 45l18-5 4 14-18 4z"/><path fill="#bfafa2" d="M153 139l-43-20 5-10 42 20z"/><path fill="#c09784" d="M299 23l1 6-48 6-1-6z"/><path fill="#29323f" d="M160 166l5 1-8 35-4-1z"/><path fill="#1c1c19" d="M259 85l56 1v12l-57-1z"/><path fill="#091b02" d="M384 41l4-9 26 10-3 9z"/><path fill="#a1b8d5" d="M192 57l5 17-9 2-5-17z"/><path fill="#e7e7e8" d="M145 114h-1l3-20h2z"/><path fill="#283836" d="M352 11l-25-4 1-7 25 4z"/><path fill="#9c857c" d="M318 44l-1-3 48-9 1 3z"/><path fill="#0f1429" d="M156 116l-2 1-8-15 1-1z"/><path fill="#787161" d="M11 107H-9V63h20z"/><path fill="#2c422a" d="M303 48l2 6-41 15-2-6z"/><path fill="#666066" d="M119 88l24 38h-1l-25-37z"/><path fill="#402415" d="M193 136l14-17 8 6-15 17z"/><path fill="#758660" d="M82 67l44-4v3l-44 4z"/><path fill="#a6b5c6" d="M174 96l2 1-5 18-1-1z"/><path fill="#535056" d="M184 113l5 6-21 22-6-5z"/><path fill="#051008" d="M315 87l5-6 14 12-5 6z"/><path fill="#0f161b" d="M188 49l3 2-21 21-3-2z"/><path fill="#214100" d="M319 72l4-10 13 5-4 10z"/><path fill="#9f907f" d="M266 54l1-2 168 24v2z"/><path fill="#bea499" d="M195 33l7 26h-2l-6-25z"/><path fill="#340d13" d="M126 54l-4 4-15-14 3-3z"/><path fill="#9ca4b5" d="M177 175l-12 3-3-17 12-2z"/><path fill="#73503f" d="M69 179l38-30 38 48-38 30z"/><path fill="#a07863" d="M219 147l-14 47-28-8 13-47z"/><path fill="#51372a" d="M24 115l-38 27-8-12 38-26z"/><path fill="#c9ced4" d="M171 43h4l-7 50-4-1z"/><path fill="#d0dcec" d="M32-4l3 36-31 2L1-2z"/><path fill="#ac8e7a" d="M384 215l-28-16 18-31 27 15z"/><path fill="#ebf3fc" d="M98-7l21 35-6 3L92-4z"/><path fill="#734731" d="M209 156l22 3-4 24-22-3z"/><path fill="#997b6e" d="M208 196l109-88 11 13-109 89z"/><path fill="#ecbeac" d="M290 72v-2l9-6 1 2z"/><path fill="#060f1e" d="M158 121l-1-1 24-33 1 1z"/><path fill="#494340" d="M124 38l-5-4 9-11 5 4z"/><path fill="#968277" d="M53 97l6 38-26 4-6-38z"/><path fill="#fdffff" d="M209-11l-15 46h-1l14-47z"/><path fill="#9ab1cc" d="M226 33l34 22-9 13-34-22z"/><path fill="#56492e" d="M12 167l13 6-26 58-13-5z"/><path fill="#cdab9e" d="M244 158l-1 1-38-25 1-1z"/><path fill="#b9afac" d="M134 36l-38 4-1-2 39-4z"/><path fill="#364027" d="M393 85l-50 11-3-13 50-12z"/><path fill="#001120" d="M115 14l4 7-1 1-5-7z"/><path fill="#a49ba0" d="M99 42l25 17-3 4-24-17z"/><path fill="#96baa0" d="M255 61l-1-1 33-10 1 1z"/><path fill="#4f523b" d="M281 19v-3l71 7v3z"/><path fill="#35261c" d="M76 195l-35 19-6-11 36-19z"/><path fill="#e5edfd" d="M247 25L236 6l47-26 10 19z"/><path fill="#39414c" d="M216 90v34h-11V90z"/><path fill="#7d8a9f" d="M212 46l30 55-21 11-30-55z"/><path fill="#c4b7ba" d="M237 135h-3l-1-12h3z"/><path fill="#6b6458" d="M33 64V29h45v34z"/><path fill="#cca891" d="M394 131l-12-10 23-28 12 10z"/><path fill="#efcfb3" d="M112 84l-1-3 19-7 1 3z"/><path fill="#0a0604" d="M151 177h1l5 13-1 1z"/><path fill="#616e7c" d="M141 142l9-3 14 40-9 3z"/><path fill="#14253c" d="M184 72l2 17-6 1-2-18z"/><path fill="#1d1e23" d="M189 58l-7-15 5-3 8 16z"/><path fill="#5f4538" d="M396 155l9 10-16 13-8-11z"/><path fill="#2c3420" d="M69 62l27 10-7 20-27-9z"/><path fill="#1e0300" d="M224 128l15-15 1 1-15 15z"/><path fill="#271d14" d="M176 141l-18 18-5-4 19-19z"/><path fill="#dfbba6" d="M190 138l6-1 3 20-6 1z"/><path fill="#585c48" d="M263 76l-2-5 84-39 2 5z"/><path fill="#68625c" d="M257 90l-6 5-4-6 7-4z"/><path fill="#858467" d="M299 44l-47 3v-2l47-3z"/><path fill="#837268" d="M98 41l4 9-46 17-3-9z"/><path fill="#202815" d="M357 56h25v8h-25z"/><path fill="#2e3c20" d="M294 35v-4l38-5 1 4z"/><path fill="#edf4fd" d="M233-22l18 35-39 20-18-35z"/><path fill="#aa9588" d="M341 88l-13 2-1-11 12-2z"/><path fill="#b49684" d="M325 14l1 2-56 25v-2z"/><path fill="#adb9c7" d="M231 58l29 2-2 28-29-2z"/><path fill="#040d12" d="M174 173h2l-5 28-2-1z"/><path fill="#646b80" d="M132 73h11l-1 30h-11z"/><path d="M154 118v-6h13l-1 6z"/><path fill="#b89895" d="M337-6l1 1-36 19-1-1z"/><path fill="#f7f7f3" d="M142 75l15-8 12 22-15 8z"/><path fill="#cca58e" d="M276 104v44h-19v-44z"/><path fill="#95776b" d="M338 104l-31 1v-8h31z"/><path fill="#c0927a" d="M239 28l2-4 18 9-2 4z"/><path fill="#8d939e" d="M173 79l-9-6 5-7 9 6z"/><path fill="#625e61" d="M227 123l-15-2 3-20 15 2z"/><path fill="#383f2c" d="M354 18l1-5 43 14-1 5z"/><path fill="#5b2610" d="M121 97l2-8 1 1-2 7z"/><path fill="#2f4024" d="M255 29l-2-5 22-7 2 4z"/><path fill="#092c0d" d="M257 38l-9 2v-1l9-3z"/><path fill="#786e64" d="M345 39l59-29 3 6-59 29z"/><path fill="#575c51" d="M270 13l8-5 10 18-8 5z"/><path fill="#7f7f87" d="M34 86l30-3v1l-30 3z"/><path fill="#cfcdcd" d="M179 51l-14 22-36-22 14-23z"/><path fill="#8f6e5a" d="M126 148l25 2-3 35-25-3z"/><path fill="#685d58" d="M153 120h5v15h-5z"/><path fill="#3f4f65" d="M179 132l5 47h-5l-5-47z"/><path fill="#ab9d84" d="M340 82l-26-4v-2l27 4z"/><path fill="#1b271d" d="M76 50l-17-3 1-1 17 2z"/><path fill="#7f5f53" d="M287 158l3-11 53 15-3 11z"/><path fill="#2a1d23" d="M131 56h-10V42h9z"/><path fill="#21392b" d="M373 6h15v3h-15z"/><path fill="#433f31" d="M367 51l-95 8v-2l95-8z"/><path fill="#888c8b" d="M150 21l39 5v1l-39-4z"/><path fill="#414239" d="M71 70l-6 27-15-3 6-27z"/><path fill="#99adc5" d="M247 71l-29-12 11-26 29 13z"/><path fill="#b28c70" d="M160 168l-1-1 13-21 2 1z"/><path fill="#2f2a18" d="M98 82l9-7 3 4-9 7z"/><path fill="#827665" d="M18 145l15-7 16 38-14 6z"/><path fill="#727675" d="M53 70l5 4-19 20-5-4z"/><path fill="#c7b1aa" d="M236 159l-18-31 1-1 18 31z"/><path fill="#7e5f53" d="M258 190l-19-4 5-21 18 3z"/><path fill="#896a5c" d="M60 169l4-39 53 6-4 38z"/><path fill="#eff8ff" d="M228-13l-50 38-7-10 50-38z"/></svg>