<svg xmlns="http://www.w3.org/2000/svg" viewBox="0 0 400 200"><path fill="#9e8a6e" d="M0 0h400v200H0z"/><path fill="#ffffeb" d="M400 56L2 77-2 2l398-21z"/><path fill="#271703" d="M395 275L-3 254l7-134 398 21z"/><path fill="#836d50" d="M398 169L-1 155l2-44 398 14z"/><path fill="#251a0c" d="M418 202L77 232l-3-36 341-30z"/><path fill="#f6dcb5" d="M270 70H-5V-5h275z"/><path fill="#b49671" d="M278 81l8-43 115 20-7 43z"/><path fill="#ffe9c8" d="M420 8l-20 51-22-9 20-51z"/><path fill="#a08562" d="M109 107l-1-42 53-1 1 42z"/><path fill="#a38967" d="M254 76l-2-9 83-23 2 10z"/><path fill="#907b5d" d="M332 102l1 45-136 3-1-46z"/><path fill="#766448" d="M150 127l-4 25-154-24 4-25z"/><path fill="#3e311e" d="M359 154l11 45-71 18-11-46z"/><path fill="#e8d4b0" d="M208 77l-6-23 135-39 7 23z"/><path fill="#d1c0a3" d="M218-2l3 50-90 6-4-50z"/><path fill="#503f28" d="M1 200l2-34 198 10-2 35z"/><path fill="#f5e2c2" d="M300 20l-71 12-8-47 70-13z"/><path fill="#d8c2a2" d="M263 8L404-9l6 46-141 18z"/><path fill="#705f44" d="M404 130l4 43-45 5-4-43z"/><path fill="#aa9070" d="M310 51l123 6-4 75-123-6z"/><path fill="#f1e0c1" d="M-8-12L97 8l-6 31-105-21z"/><path fill="#d1b78b" d="M73 71l-1 7-71-4v-6z"/><path fill="#a78e6e" d="M159 65l1 18-67 3-1-17z"/><path fill="#9a8264" d="M213 96l-3 39-96-7 2-39z"/><path fill="#a68c6b" d="M183 122l-7-44 108-18 7 45z"/><path fill="#eedbbc" d="M231 47l-1 24-44-1 1-24z"/><path fill="#ffeccd" d="M418 40l-2 17-42-5 2-17z"/><path fill="#d1bea1" d="M-31 45V34l198 4v11z"/><path fill="#735e45" d="M195 130v32H-3v-32z"/><path fill="#655238" d="M178 169l147-29 5 28-147 28z"/><path fill="#7d6d52" d="M405 154l-193-17 1-14 193 17z"/><path fill="#b39b7a" d="M338 68l7-21 96 33-7 21z"/><path fill="#997f5f" d="M139 101l-2 19-152-13 1-19z"/><path fill="#ebd7b6" d="M156 59L56 77l-1-9 100-18z"/><path fill="#cdbd9f" d="M323 30l-1 18-65-4 1-19z"/><path fill="#735e45" d="M144 168v-30l73 2v29z"/><path fill="#403120" d="M342 234l-7-54 121-15 7 54z"/><path fill="#f3e1c0" d="M253 63l-21-2 4-47 21 2z"/><path fill="#bfa882" d="M90 73l-137 7-1-1 138-8z"/><path fill="#9b8466" d="M303 134V98l58 1v36z"/><path fill="#e6d4b6" d="M204 25l-7 14-93-47 7-14z"/><path fill="#d4c1a4" d="M405-6l15 22-55 36-14-23z"/><path fill="#3e311c" d="M337 156l20 15-8 10-20-15z"/><path fill="#786649" d="M402 153l-50 5-2-25 49-5z"/><path fill="#eedbbc" d="M77 49l-2 18-59-5 1-18z"/><path fill="#d1be9f" d="M141 21l56 18-5 17-56-19z"/><path fill="#d3c3a6" d="M132 1l-9 20L76 1l8-20z"/><path fill="#a78e6d" d="M118 77V66h47v11z"/><path fill="#ab9273" d="M310 52l3 10-78 22-3-10z"/><path fill="#e7d5b8" d="M277-30l38 20-22 41-37-19z"/><path fill="#ae9676" d="M379 79l-47-5 3-26 47 5z"/><path fill="#3a2c1a" d="M93 209l-1-13 198-6 1 12z"/><path fill="#705d41" d="M325 177l-7-4 15-29 7 4z"/><path fill="#504229" d="M310 168l2 9-89 16-2-9z"/><path fill="#806f52" d="M-23 114l75-6 1 17-75 6z"/><path fill="#cab99f" d="M202-2l3 10-36 11-3-10z"/><path fill="#efdbbd" d="M86 58v-8l148 3v8z"/><path fill="#fcebcf" d="M410 31l-10 26-12-5 10-26z"/><path fill="#594930" d="M189 197l24-29 9 8-24 29z"/><path fill="#9b8466" d="M292 98l2 20-159 11-2-20z"/><path fill="#eddaba" d="M322 44l105 3-1 2-104-4z"/><path fill="#efddbe" d="M-24-16h53v53h-53z"/><path fill="#f5e5c4" d="M101 20l1-5 33 10-1 5z"/><path fill="#ad9272" d="M167 67l88 13-1 7-89-12z"/><path fill="#766348" d="M80 121l61 3-1 13-61-3z"/><path fill="#6e5d42" d="M364 153l-8 13-19-11 9-13z"/><path fill="#f3e3c5" d="M251-9l4 15-39 11-4-15z"/><path fill="#e9d9ba" d="M328 14l10 24-8 3-10-24z"/><path fill="#ffeac5" d="M363 45l17 7-1 2-17-8z"/><path fill="#d6c4a5" d="M229 21l5 17-58 17-5-16z"/><path fill="#533c27" d="M144 95v-3l4-1 1 3z"/><path fill="#5e4d31" d="M146 182l-128-7v-15l129 7z"/><path fill="#59462e" d="M370 177l6-16 12 4-6 16z"/><path fill="#f6e4c1" d="M254 50h22v8h-22z"/><path fill="#6a573d" d="M264 176l14-33 19 8-15 33z"/><path fill="#cfbd9e" d="M300 52l-13-9 27-40 13 8z"/></svg>