<svg xmlns="http://www.w3.org/2000/svg" viewBox="0 0 400 200"><style>@keyframes a{from{opacity: 0}to{opacity: 1}}g&gt;*{opacity: 0;animation: a .5s forwards}</style><path fill="#9e8a6e" d="M0 0h400v200H0z"/><path fill="#ffffe6" d="M1 1h400v69H1z" style="animation-delay:0s"/><path fill="#281803" d="M1 131h400v70H1z" style="animation-delay:.188s"/><path fill="#a18664" d="M248 54h153v97H248z" style="animation-delay:.376s"/><path fill="#312414" d="M81 176h320v25H81z" style="animation-delay:.562s"/><path fill="#f4dab6" d="M1 1h267v72H1z" style="animation-delay:.746s"/><path fill="#7f694e" d="M1 112h303v50H1z" style="animation-delay:.927s"/><path fill="#a38b6b" d="M295 49h78v86h-79z" style="animation-delay:1.104s"/><path fill="#a58c6c" d="M104 66h297v55H104z" style="animation-delay:1.277s"/><path fill="#68573b" d="M1 118h123v13H1z" style="animation-delay:1.445s"/><path fill="#ead7b8" d="M1 1h86v75H1z" style="animation-delay:1.607s"/><path fill="#fff8d8" d="M379 35h22v21h-22z" style="animation-delay:1.763s"/><path fill="#f1debd" d="M229 1h55v59h-55z" style="animation-delay:1.912s"/><path fill="#68553a" d="M82 160h172v30H82z" style="animation-delay:2.054s"/><path fill="#382c1b" d="M288 170h113v31H288z" style="animation-delay:2.187s"/><path fill="#9a8363" d="M118 65h44v61h-44z" style="animation-delay:2.312s"/><path fill="#7b694f" d="M132 129h269v27H132z" style="animation-delay:2.427s"/><path fill="#d1bfa1" d="M1 34h231v14H1z" style="animation-delay:2.533s"/><path fill="#f3e0bf" d="M165 54h70v16h-70z" style="animation-delay:2.629s"/><path fill="#513f2a" d="M1 166h94v35H1z" style="animation-delay:2.714s"/><path fill="#ac9374" d="M254 62h147v28H254z" style="animation-delay:2.789s"/><path fill="#dcc4a4" d="M257 6h127v43H257z" style="animation-delay:2.853s"/><path fill="#372b1a" d="M212 185h144v16H212z" style="animation-delay:2.906s"/><path fill="#826e50" d="M1 106h80v17H1z" style="animation-delay:2.947s"/><path fill="#958063" d="M191 106h172v29H191z" style="animation-delay:2.976s"/><path fill="#372a19" d="M332 162h20v23h-20z" style="animation-delay:2.994s"/></svg>