<svg xmlns="http://www.w3.org/2000/svg" viewBox="0 0 400 200"><filter id="a"><feGaussianBlur stdDeviation="12"/></filter><path fill="#9e8a6e" d="M0 0h400v200H0z"/><g filter="url(#a)" transform="translate(1 1) scale(1.5625)"><ellipse fill="#ffffe9" rx="1" ry="1" transform="matrix(246.3838 -10.32654 1.13886 27.17233 105 18)"/><ellipse fill="#261602" rx="1" ry="1" transform="rotate(96 29 139) scale(38.03771 249.63863)"/><ellipse fill="#846d50" rx="1" ry="1" transform="matrix(.5478 -17.91879 163.71365 5.00499 101 86)"/><ellipse fill="#271c0d" rx="1" ry="1" transform="matrix(.95793 11.65147 -203.60626 16.73948 157 127)"/><ellipse fill="#f5dbb6" cx="69" cy="14" rx="125" ry="29"/><ellipse fill="#aa8e6b" cx="213" cy="56" rx="53" ry="27"/><path fill="#9d8564" d="M177 98L1 63l43-14 44-11z"/><ellipse fill="#fff4d3" rx="1" ry="1" transform="matrix(-1.0567 -7.3081 17.4137 -2.51788 255 28)"/><path fill="#fae3be" d="M139 45l50-16-84 4z"/><path fill="#746448" d="M252 110L129 79l92 7 50-7z"/><path fill="#b09676" d="M154 43l53-12 60 6-9 30z"/><ellipse fill="#736046" cx="24" cy="87" rx="70" ry="16"/><ellipse fill="#513f29" cx="42" cy="127" rx="93" ry="21"/><ellipse fill="#9f8768" cx="90" cy="61" rx="37" ry="21"/><path fill="#d0bfa1" d="M-7 27l138 7 11-50-70 41z"/></g></svg>