<svg xmlns="http://www.w3.org/2000/svg" viewBox="0 0 400 200"><path fill="#9e8a6e" d="M0 0h400v200H0z"/><path fill="#ffffeb" d="M-3-54l398-21 7 131L4 77z"/><path fill="#271602" d="M5 118l398 27-10 136-397-28z"/><path fill="#251a0c" d="M476 201L79 236l-3-39 397-35z"/><path fill="#877154" d="M403 161L4 154l1-48 399 7z"/><path fill="#f7ddb6" d="M259 73L-94 60l2-72L261 1z"/><path fill="#b39570" d="M437 109L280 86l6-46 158 22z"/><path fill="#9f8462" d="M159 65l-2 51-45-1 1-52z"/><path fill="#a98e6d" d="M341 45l7 31-132 28-6-31z"/><path fill="#efdab7" d="M310 50l-76 19-17-71 75-19z"/><path fill="#725f44" d="M120 168l-145-10 4-50 145 10z"/><path fill="#d1c0a1" d="M217-1l6 47-82 10-6-47z"/><path fill="#756347" d="M118 131h303v34H118z"/><path fill="#ffe7c5" d="M418 7l-19 51-19-7 19-51z"/><path fill="#503e28" d="M-49 216l9-61 196 28-8 60z"/><path fill="#392c1a" d="M345 204l-26-13 19-38 26 14z"/><path fill="#d9c2a1" d="M274 56l-7-43 135-24 8 43z"/><path fill="#a99171" d="M315 137l-8-66 104-13 8 67z"/><path fill="#d0b589" d="M73 69v8h-85v-8z"/><path fill="#f2e1c1" d="M77-58l24 51-177 82-24-51z"/><path fill="#efdcbb" d="M185 47l49-2 1 25-48 2z"/><path fill="#857458" d="M191 125h145v20H191z"/><path fill="#b39a79" d="M401 58l-5 23-67-13 4-23z"/><path fill="#d1be9f" d="M214 36v11H41V36z"/><path fill="#a28a6a" d="M164 68l-1 37-60-2 2-38z"/><path fill="#9e8667" d="M253 123l-120 8-3-31 120-8z"/><path fill="#5b492f" d="M117 195l-1-21 134-5 1 21z"/><path fill="#e9d6b6" d="M31 1l62 6-7 69-62-7z"/><path fill="#ffeccd" d="M367 45l34-9 2 9-33 9z"/><path fill="#3d301d" d="M314 227l-27-51 26-14 27 51z"/><path fill="#725f45" d="M361 135l52-3 2 40-51 4z"/><path fill="#f4e3c5" d="M239 37l-30-51 38-22 30 52z"/><path fill="#6a543b" d="M327 146l2 21-129 14-2-22z"/><path fill="#8d7759" d="M60 96v30l-63-1 1-30z"/><path fill="#ccbb9d" d="M312 49l-58-5 2-19 57 5z"/><path fill="#d2bfa2" d="M71 45H-35V34H71z"/><path fill="#a99070" d="M316 49l2 8-79 24-2-8z"/><path fill="#f0dcbb" d="M120 67l-21 3-2-10 22-4z"/><path fill="#e8d6b5" d="M324 12l14-2 3 36-14 1z"/><path fill="#9f8768" d="M364 91l-6 40-105-14 6-41z"/><path fill="#715b42" d="M20 163l-16 7-22-54 16-6z"/><path fill="#edd9b9" d="M227 58l-1 13-123-9 1-12z"/><path fill="#a08766" d="M85 116l-67-10 5-32 67 9z"/><path fill="#ddccae" d="M17-33l219 59-5 18L12-15z"/><path fill="#a68e6e" d="M93 87l-1-17 61-2 1 17z"/><path fill="#5d4b31" d="M2 161h116v17H2z"/><path fill="#9b8465" d="M159 130L53 110l5-29 106 20z"/><path fill="#af9472" d="M156 67l59 5-1 13-59-6z"/><path fill="#f2e2c0" d="M44 3l2-6 83 27-2 6z"/><path fill="#725c44" d="M142 143l69-3 1 28-68 3z"/><path fill="#ccbba1" d="M170-13l39-1 1 28-39 1z"/><path fill="#413221" d="M413 218l-87-39 9-20 87 39z"/><path fill="#ad9374" d="M373 93l-31-2 3-42 31 2z"/><path fill="#cdbb9c" d="M165 49h-37l-1-15 38-1z"/><path fill="#5d4b32" d="M180 172l30 5-3 22-31-6z"/><path fill="#4a331e" d="M149 88l1 1-3 5h-2z"/><path fill="#e6d5b8" d="M292 30l-47-17 8-22 47 17z"/><path fill="#817053" d="M279 120l4 26-63 11-5-26z"/><path fill="#392c1b" d="M203 195l118-12 2 20-118 12z"/><path fill="#d3c0a3" d="M343 27l53-40 19 25-53 40z"/><path fill="#cdbb9e" d="M87 6v-9l40-2 1 10z"/><path fill="#f2e0bc" d="M212 49l64-1 1 11-64 1z"/><path fill="#ffeecd" d="M421 45v8l-44 1v-8z"/><path fill="#d4c3a3" d="M180 54l-4-12 52-17 4 12z"/><path fill="#aa9374" d="M213 74l136-21 2 12-136 22z"/><path fill="#ead4ae" d="M-41 65l1-4 135 7v4z"/><path fill="#ecd9ba" d="M169 19l32-1v11l-31 1z"/><path fill="#f5e1c2" d="M91 52v-2l72 3v1z"/><path fill="#4f4129" d="M233 188l-1-5 96-10 1 5z"/><path fill="#c7b490" d="M24 72l1-5 43 6-1 5z"/><path fill="#d3c1a2" d="M31 34l72 12-1 6-72-12z"/><path fill="#3b2d1a" d="M183 201l-1 8-88-11 1-8z"/><path fill="#635038" d="M369 156l-1 10-45-4 1-11z"/><path fill="#a88f6e" d="M60 79l62-12 1 6-62 12z"/><path fill="#7d6d51" d="M50 108l1 15-49 5-2-15z"/><path fill="#ead6b4" d="M248 63v3l-38 4-1-3z"/><path fill="#a48c6d" d="M126 88l3-25 28 4-3 25z"/><path fill="#79684d" d="M309 137l77-2v14l-76 2z"/><path fill="#837054" d="M101 125v-6l37 4v6z"/><path fill="#9b8467" d="M299 130l5-31 49 7-5 31z"/><path fill="#715c43" d="M-27 133l126-7 2 33-127 7z"/><path fill="#e7d6b7" d="M147-12l28 8-8 27-28-8z"/><path fill="#edd9bb" d="M-26 45l101 2v13l-102-2z"/><path fill="#d0bd9f" d="M286 33l53 11-1 6-54-11z"/><path fill="#b59e7c" d="M413 66l-4 13-52-18 5-13z"/><path fill="#e3cfb1" d="M251 17l-2-8 111-24 2 8z"/><path fill="#d0be9e" d="M136 39l14-20 13 9-15 20z"/><path fill="#eedbbd" d="M79 28l-6 11-35-18 6-11z"/><path fill="#8c785c" d="M130 122l85 12v2l-85-12z"/><path fill="#7c6f51" d="M408 128v8h-39v-8z"/><path fill="#d0bd9f" d="M295 33l28-38 11 8-27 38z"/><path fill="#a48c6f" d="M283 65l183 56-6 22-184-56z"/><path fill="#eedcb9" d="M66 70l15-5 1 4-14 5z"/><path fill="#f3dcb7" d="M341 45v-2l39 8-1 1z"/><path fill="#ecdbbb" d="M342 39h-20v-8h20z"/><path fill="#776448" d="M49 115l119 19-3 15-119-19z"/><path fill="#e6d5b6" d="M35 40L7 39V21l28 1z"/><path fill="#4b3b26" d="M388 166l-11 31-4-2 11-31z"/><path fill="#6b583d" d="M283 143v38h-11v-38z"/><path fill="#efdfc0" d="M289-18l4 15-77 22-4-15z"/><path fill="#e9d6b6" d="M250 66L92 64V51l158 3z"/></svg>