<svg xmlns="http://www.w3.org/2000/svg" viewBox="0 0 50 25"><path fill="#a08c6f" d="M0 0h50v25H0z"/><path fill="#ffffed" d="M-13 10l32-25L66 5z"/><path fill="#2c1906" d="M29 41l-41-26 72 3z"/><path fill="#f8ddb7" d="M31 9l21-24-66 21z"/><path fill="#281e0c" d="M14 25l2 16 46-21z"/><path fill="#90785a" d="M-15 20L18 8l41 11z"/><path fill="#ad926e" d="M14 14l28-8 24 8z"/><path fill="#544029" d="M-15 20l47 3-47 11z"/><path fill="#dec9aa" d="M29 5l-6-9L2 10z"/><path fill="#715c43" d="M-15 21l45-1-45-12z"/><path fill="#a28d6b" d="M16 12L1 14 0 9z"/><path fill="#ffeac2" d="M48 6l18 3V-9z"/><path fill="#ebd8b8" d="M-7-15L2 9l18-2z"/><path fill="#dac5a2" d="M64-1L40-15 33 8z"/><path fill="#967d60" d="M24 18l18-1-5-7z"/><path fill="#f5e3c5" d="M29 9l17-24H34z"/><path fill="#d4c1a2" d="M15 6h15l-3-7z"/><path fill="#5c4e34" d="M45 20l-11 3 1-4z"/><path fill="#f6e0c2" d="M28 9l-7-2h7z"/><path fill="#b69d79" d="M66 21L39 6l15 2z"/><path fill="#aa9575" d="M9 10l9 2 8-3z"/><path fill="#382c1a" d="M65 34l-43-8 22-4z"/><path fill="#736246" d="M66 1L47 21l13 3z"/><path fill="#a48d6c" d="M38 7l-9 7 37 3z"/><path fill="#decbac" d="M-13 10l3-8 23 3z"/><path fill="#efe0bf" d="M10 4L-2-15-4 4z"/><path fill="#68543e" d="M41 19l-28 2 15 3z"/><path fill="#e8d7ba" d="M37 4l8-19L24 4z"/><path fill="#7f674c" d="M42 18l16 1 7-6z"/><path fill="#998465" d="M17 16l15-3-19-2z"/><path fill="#d2bc9b" d="M35 5l2 2 3-4z"/><path fill="#e2ceaf" d="M8 10l2-4 7-2z"/><path fill="#d0c09f" d="M14 1L-8-8l58-5z"/><path fill="#fff7d9" d="M49 6h11l-5-3z"/><path fill="#eed8b9" d="M26 9V5h10z"/><path fill="#cebfa1" d="M35 5l-2 1 2-4z"/><path fill="#efdcbd" d="M19 6H6l6 2z"/><path fill="#cebb9c" d="M27 2l-3-16-38-1z"/><path fill="#9d886a" d="M9 10l-2 3 11 1z"/><path fill="#816a51" d="M28 20l11-3-9-1z"/><path fill="#c5ac89" d="M48 7l10 7 8-4z"/><path fill="#453723" d="M44 21l-9 6-4-3z"/><path fill="#87734f" d="M6 16l-7-2v2z"/><path fill="#ad9675" d="M64 19L39 7l27 3z"/><path fill="#ffedcd" d="M33 1L7-7l4-8z"/><path fill="#dac8a8" d="M4 3l10 3H5z"/><path fill="#f1debf" d="M10-11L21 2l3-7z"/><path fill="#ccbd9e" d="M44 4l10-4 11 4z"/><path fill="#46351d" d="M22 24l1 16L0 26z"/><path fill="#745e48" d="M17 17l11 1-6 3z"/><path fill="#a1896b" d="M24 15l17-3-24-3z"/><path fill="#d7c4a5" d="M20 3l-8 3h18z"/><path fill="#ded2b8" d="M37 4l7-17-20-2z"/><path fill="#856f58" d="M30 19l6-3H22z"/><path fill="#40321f" d="M43 21l17 9-16 1z"/><path fill="#5d4930" d="M3 20h12L-4 41z"/><path fill="#ebdbba" d="M2 4l12-2-9-2z"/><path fill="#6c5940" d="M-15 12l13 9h20z"/><path fill="#ead7b7" d="M21 2v2l3-1z"/><path fill="#9c8466" d="M43 12H29l14 4z"/><path fill="#e1ccad" d="M17 7l4-2 1 4z"/><path fill="#9d8869" d="M19 9l2 5-16-2z"/><path fill="#3b2d1b" d="M29 24l29 2 4 15z"/><path fill="#56432c" d="M9 23h-21l42 14z"/><path fill="#e0cfb1" d="M41 4l4 1-5-4z"/><path fill="#c8bba0" d="M46-15v10l-7 9z"/><path fill="#d7c1a0" d="M3 8l2 1 1-1z"/><path fill="#f6e2c2" d="M33 4l-7-14-16-5z"/><path fill="#cebb9c" d="M24 6h-5l-1-2z"/><path fill="#9f886a" d="M-6 8l9 4-18 6z"/><path fill="#d5c8b0" d="M41 2h11l9-8z"/><path fill="#aa9674" d="M16 11l-1-3h-1z"/><path fill="#e4cdac" d="M44 6l22-6v-7z"/><path fill="#6c5a3e" d="M34 21l4-2h-8z"/><path fill="#a69070" d="M30 12l9-3H20z"/><path fill="#7d6849" d="M7 15l2 2 7-2z"/><path fill="#f0dbbc" d="M20 6l-7 2h10z"/><path fill="#715d41" d="M40 20l-5-2 10 1z"/><path fill="#f0ddbe" d="M8 8L5 6H1z"/><path fill="#e7d7b7" d="M18 3l-6 2-1-4z"/><path fill="#ecd8b9" d="M9 7L6 9l5-1z"/><path fill="#f4e3c3" d="M-7 0L5 2-7-13z"/><path fill="#725d46" d="M6 16v4l13-2z"/><path fill="#35240f" d="M13 30l8-5 6 2z"/><path fill="#8d7756" d="M34 16l-3-1h6z"/><path fill="#998164" d="M21 17l-6-3 5-2z"/><path fill="#d1c0a1" d="M59-2l7-13L43 6z"/><path fill="#d0be9f" d="M21 5l-2 1V5z"/><path fill="#725c44" d="M17 21h12l-5-3z"/><path fill="#8c7256" d="M50 17l16 12-5-17z"/><path fill="#eed9b8" d="M30 7l5-1-7-1z"/><path fill="#9d8869" d="M16 14l-6-2 8-3z"/><path fill="#746247" d="M47 19l19-3-6 8z"/><path fill="#dbc7a7" d="M28 5l-5-20h6z"/><path fill="#ddc9aa" d="M6 4h7l-1 3z"/><path fill="#50422a" d="M50 21l-2 2-4-2z"/><path fill="#ac9572" d="M44 9l-7 1 4-3z"/><path fill="#413522" d="M38 22l15 1 13 10z"/><path fill="#d9c5a6" d="M17 7h7l-5-5z"/><path fill="#4d3c26" d="M3 27l6 6 12-9z"/><path fill="#463219" d="M28 24l38 12-49 5z"/></svg>