<svg xmlns="http://www.w3.org/2000/svg" viewBox="0 0 400 200"><path fill="#9e8a6e" d="M0 0h400v200H0z"/><path fill="#ffffe6" d="M1 1h400v69H1z"/><path fill="#281803" d="M1 131h400v70H1z"/><path fill="#a18665" d="M249 54h152v95H249z"/><path fill="#312514" d="M76 176h325v25H76z"/><path fill="#f4dab6" d="M1 1h269v72H1z"/><path fill="#806a4f" d="M1 110h305v52H1z"/><path fill="#a58c6c" d="M110 65h252v56H110z"/><path fill="#a28a6b" d="M293 49h78v86h-78z"/><path fill="#69583d" d="M1 116h119v14H1z"/><path fill="#ead8b8" d="M1 1h81v75H1z"/><path fill="#fffada" d="M381 35h20v21h-20z"/><path fill="#382b1b" d="M287 170h114v31H287z"/><path fill="#f5e2c1" d="M165 52h78v17h-78z"/><path fill="#604d34" d="M1 168h251v22H1z"/><path fill="#f1dfbe" d="M231 1h50v59h-50z"/><path fill="#d3c2a4" d="M124 1h94v50h-94z"/><path fill="#897759" d="M190 127h59v24h-59z"/><path fill="#ab9273" d="M252 62h149v37H252z"/><path fill="#9c8565" d="M96 68h83v55H96z"/><path fill="#dec6a6" d="M259 1h129v47H259z"/><path fill="#75634a" d="M301 140h100v20H301z"/><path fill="#53412c" d="M1 166h94v35H1z"/><path fill="#d1bea0" d="M1 37h225v9H1z"/><path fill="#372a1a" d="M212 185h136v16H212z"/><path fill="#6b563c" d="M138 157h161v24H138z"/></svg>