<svg xmlns="http://www.w3.org/2000/svg" viewBox="0 0 128 64"><path fill="#9f8b6f" d="M0 0h128v64H0z"/><path fill="#ffe" d="M144 13L-15 27l30-42z"/><path fill="#261501" d="M5 80L-6 33l150 25z"/><path fill="#f7dfb8" d="M68 25l76-24-159-2z"/><path fill="#40311d" d="M144 69L28 64l98-23z"/><path fill="#816a4e" d="M-15 34l74 28 85-21z"/><path fill="#e1ccab" d="M114-15l30 34-158 4z"/><path fill="#342918" d="M144 57L8 63l76 17z"/><path fill="#af9270" d="M107 15l37 12-74-3z"/><path fill="#967f5e" d="M-15 62l59-40-59 5z"/><path fill="#f2ddbb" d="M1 22l49-2-65-35z"/><path fill="#fffadd" d="M144-14l-22 31 22 2z"/><path fill="#57452d" d="M7 52l87 4-109 24z"/><path fill="#746046" d="M139 44l-92-2 40 15z"/><path fill="#f3e2c2" d="M80 22l14-37-31 36z"/><path fill="#a38968" d="M123 29L46 42l-2-21z"/><path fill="#d2c1a4" d="M115 16l-57-2 86-20z"/><path fill="#d1c1a2" d="M69 16V-5L32 16z"/><path fill="#745e46" d="M-10 53l20-16 57 14z"/><path fill="#af9474" d="M95 15l28 27 21-22z"/><path fill="#9c8465" d="M84 34l-50 7-39-18z"/><path fill="#f5e3c2" d="M87 19L70-15l7 35z"/><path fill="#a58f70" d="M41 32L6 27l43-6z"/><path fill="#9c8666" d="M144 37l-71-7 38 15z"/><path fill="#3c2f1b" d="M144 73l-35-23-5 18z"/><path fill="#67523a" d="M72 56l21-11 35 9z"/><path fill="#d5c4a7" d="M89 16l17-29 27 24z"/><path fill="#edd8b8" d="M21 25l33-9H13z"/><path fill="#ab9274" d="M144 29l-80-3 39-10z"/><path fill="#efdfc0" d="M-15-11L36 6l-51 7z"/><path fill="#786349" d="M64 43l-48-7L0 52z"/><path fill="#ffebce" d="M144 21V11l-27 4z"/><path fill="#826f54" d="M83 38l23 9-48 2z"/><path fill="#d1c1a1" d="M36 12l-4 5-16-5z"/><path fill="#e8d9b9" d="M96-4l1 13-17-5z"/><path fill="#ebd8b9" d="M71 23v-8l-30 5z"/><path fill="#9c8667" d="M16 34l27-13 8 20z"/><path fill="#ead8ba" d="M68 7L45 4l14 7z"/><path fill="#cebd9d" d="M100 16l-18-5 18-3z"/><path fill="#d4c2a5" d="M48 8L8-6l21-9z"/><path fill="#7d684d" d="M119 56l12-14-14 2z"/><path fill="#3b2f1c" d="M67 69l31-13 44 10z"/><path fill="#cfbd9b" d="M48 8l-6 7 19 2z"/><path fill="#9d8668" d="M65 23L48 39l69 1z"/><path fill="#d5c4a3" d="M16 10l-18 5h32z"/><path fill="#cdb390" d="M1 25l-7-4 19 2z"/><path fill="#d0c1a4" d="M57 2l20 11L57-8z"/><path fill="#40331f" d="M110 51l34 28-51 1z"/><path fill="#887757" d="M29 38L5 33l-20 9z"/><path fill="#6e5941" d="M48 53l-61-4 26-9z"/><path fill="#a18c6c" d="M6 24h24l-45 18z"/><path fill="#a88e71" d="M42 23l30 9 33-9z"/><path fill="#382713" d="M32 63l59 2-53 14z"/><path fill="#b39a7c" d="M112 16l6 10 26-2z"/><path fill="#efdfc0" d="M117-2L85-15 66 5z"/><path fill="#d7c4a8" d="M121-5L90 18l54-12z"/><path fill="#f0debd" d="M105 12l1-7 3 7z"/><path fill="#574631" d="M41 61l-42-7-14 13z"/><path fill="#cfbda1" d="M110 6l7 9 11-8z"/><path fill="#e6d5b6" d="M45 9L14 3 4 12z"/><path fill="#a38c6d" d="M137 39L93 19l18 23z"/><path fill="#ecd9bb" d="M89 20l-5-4h7z"/><path fill="#69543a" d="M59 54l24 3-2-7z"/><path fill="#746148" d="M103 48l8-4-7 12z"/><path fill="#cebc9d" d="M97 14l6 1-1-16z"/><path fill="#5d4b34" d="M65 60l-32-9-8 10z"/><path fill="#eedabb" d="M70 23l14-5-5-11z"/><path fill="#dbc7a8" d="M8 24l-14-1-9-21z"/><path fill="#aa9172" d="M99 17l-27 8 59 2z"/><path fill="#7e6b4e" d="M142 51l-34-7 33-3z"/><path fill="#c8b699" d="M49-1L7-15 31 1z"/><path fill="#41321e" d="M116 52v7l3 4z"/><path fill="#988265" d="M49 43l-13-9 15-6z"/><path fill="#eddabb" d="M17 22l-21-7h27z"/><path fill="#756048" d="M30 51l42-4-41-7z"/><path fill="#392c19" d="M56 60L29 80h28z"/><path fill="#4b3c26" d="M101 57l-15 3 12-6z"/><path fill="#836f52" d="M77 51l-1-11-13 3z"/><path fill="#ddceae" d="M135-15l-31 26 17-26z"/><path fill="#f5e6c5" d="M35 7l3 2 5-1z"/><path fill="#e9d6b8" d="M62 12l-3-3 11-4z"/><path fill="#453825" d="M143 61l-11-8-15 9z"/><path fill="#d9c5a6" d="M49 9l9 8 18-5z"/><path fill="#e9dbba" d="M48 16l14 2-20 3z"/><path fill="#a48e70" d="M56 30l-15-9h12z"/><path fill="#a59071" d="M38 28l15-5-27 1z"/><path fill="#f4e4c3" d="M86 6l-6 5-5-4z"/><path fill="#e1d0b1" d="M95 4l-2-5-17 6z"/><path fill="#c7aa86" d="M20 23l-3 1-2-1z"/><path fill="#988164" d="M91 33l21 7-36-2z"/><path fill="#e8d4b5" d="M28 23l5-7-28 3z"/><path fill="#968267" d="M60 35l5 6H43z"/><path fill="#735e45" d="M3 40L-9 52l53-5z"/><path fill="#60503a" d="M118 56l9-1-8-3z"/><path fill="#594b3a" d="M66 59l1 13-10 8z"/><path fill="#745e47" d="M75 49l-29 5 8-12z"/><path fill="#6b563f" d="M91 59l9-12H86z"/><path fill="#f0e3c7" d="M51 2l37-16-39-1z"/><path fill="#cebfa2" d="M67-15L55 7l26-17z"/><path fill="#998566" d="M14 28l-15 6 35 2z"/><path fill="#ffe9cc" d="M123 17l19-6 2-24z"/></svg>