<svg xmlns="http://www.w3.org/2000/svg" viewBox="0 0 400 200"><path fill="#9e8a6e" d="M0 0h400v200H0z"/><path fill="#ffffeb" d="M400 52L2 80l-6-93 397-28z"/><path fill="#271602" d="M393 282L-4 254l9-137 398 28z"/><path fill="#251a0c" d="M438 201L79 233l-3-36 359-31z"/><path fill="#867052" d="M1 106l398 7-1 51-398-7z"/><path fill="#f5dbb5" d="M-2-35h281V68H-2z"/><path fill="#b69874" d="M275 87l5-45 134 14-5 45z"/><path fill="#ffe9c8" d="M397 1l27 12-22 50-27-12z"/><path fill="#a18663" d="M165 61l5 39-89 12-6-38z"/><path fill="#a98f6d" d="M165 68l1 15-198 7-1-15z"/><path fill="#deccac" d="M238 73l-97-5 4-64 96 5z"/><path fill="#a78d6c" d="M342 44l6 22-117 29-5-22z"/><path fill="#6d5c42" d="M437 128l2 28-125 8-2-27z"/><path fill="#ddc6a4" d="M277 56l-9-59 144-20 9 59z"/><path fill="#503e28" d="M226 230l-310-27 4-47 310 27z"/><path fill="#827155" d="M323 147H184v-20h139z"/><path fill="#3a2d1b" d="M343 215l-29-15 23-48 29 15z"/><path fill="#f5e4c2" d="M268-21l-19 90-31-6 19-90z"/><path fill="#d1bfa0" d="M91 29h138v19H91z"/><path fill="#aa9171" d="M413 56l4 72-113 5-4-71z"/><path fill="#735f45" d="M90 114l-4 52-134-10 4-51z"/><path fill="#f0dfbf" d="M109 41L-40 20l5-31 148 21z"/><path fill="#a18769" d="M240 99l2 23-106 9-2-23z"/><path fill="#fff6d7" d="M389 35l23 3-2 19-24-3z"/><path fill="#c8b89e" d="M176-19l40 9-6 30-40-8z"/><path fill="#a78d6c" d="M122 71l2-8 61 9-1 7z"/><path fill="#f1ddbb" d="M234 57v13h-54V57z"/><path fill="#b19978" d="M451 105L340 82l7-36 112 24z"/><path fill="#6d573e" d="M315 157v16l-175-3v-16z"/><path fill="#756247" d="M406 129l2 45-44 2-2-45z"/><path fill="#3c301c" d="M320 168l2 39-34 2-2-39z"/><path fill="#eeddbf" d="M215-17l87 8-3 34-87-8z"/><path fill="#f2debf" d="M121 50l53 1v14l-53-1z"/><path fill="#a48c6d" d="M234 71l85-23 11 42-85 23z"/><path fill="#937d5e" d="M-20 80l60-5 3 50-59 4z"/><path fill="#edd9b7" d="M119 50l3 16-62 10-2-15z"/><path fill="#9e8667" d="M360 122l-169-3 1-30 168 3z"/><path fill="#cdbb9c" d="M317 26v19l-55-1 1-19z"/><path fill="#5d4c32" d="M280 167l2 13-108 17-2-13z"/><path fill="#d1bea1" d="M350 50l-11-26 82-35 11 26z"/><path fill="#cbb89a" d="M31 44l1-8 45 3-1 8z"/><path fill="#79674b" d="M203 138l-2 9L5 118l2-10z"/><path fill="#816f53" d="M213 127l76-7 3 27-77 6z"/><path fill="#9b8464" d="M157 117l-106-2V91l106 2z"/><path fill="#d4bd91" d="M-14 73v-6l74 2-1 6z"/><path fill="#d0be9f" d="M175 55l-39-10 6-27 40 10z"/><path fill="#d4c3a6" d="M85-21l47 25-9 18L76-3z"/><path fill="#382a18" d="M190 192l1 9-98 6-1-10z"/><path fill="#ffe8c7" d="M364 44l45 1v7l-45-2z"/><path fill="#ecdbb9" d="M291 43l1 9-62 13-2-10z"/><path fill="#b09875" d="M368 66l-53-3V48l53 3z"/><path fill="#ead8b8" d="M337 13l3 27-16 1-3-26z"/><path fill="#ecd8b8" d="M12 64l3-20 77 9-2 20z"/><path fill="#6f5941" d="M-23 130l23-14 25 40-23 14z"/><path fill="#ecd9ba" d="M201 43l28 9-7 19-28-9z"/><path fill="#735d45" d="M125 140h80v25h-80z"/><path fill="#7d6c4f" d="M400 136v13l-136-2v-13z"/><path fill="#68543a" d="M241 176l-2-22 87-6 2 22z"/><path fill="#3f3120" d="M335 161l84 35-18 42-84-36z"/><path fill="#352917" d="M209 188l46 9-3 14-46-10z"/><path fill="#a58e6d" d="M0 97l-1-19 46-4 2 19z"/><path fill="#a28b6a" d="M104 70l50-4v3l-50 4z"/><path fill="#5e4c32" d="M162 192L16 180l2-21 146 13z"/><path fill="#ac9170" d="M234 74l-2 19-67-6 2-19z"/><path fill="#fae7cd" d="M401 22l7 3-10 26-8-3z"/><path fill="#d3c2a4" d="M269 16l30 20-13 21-30-20z"/><path fill="#efdebf" d="M26-18l5 50-34 3-5-49z"/><path fill="#3b2e1c" d="M252 199l9-23 60 23-9 23z"/><path fill="#d4c1a2" d="M43 31l52 15-2 6-52-15z"/><path fill="#9b8466" d="M134 87l47-9 9 46-48 9z"/><path fill="#937d61" d="M352 127l-1 11-79-10 1-11z"/><path fill="#493b26" d="M306 177l133-9v6l-132 10z"/><path fill="#ebd8b8" d="M219 55l-1 14-67-4 1-14z"/><path fill="#806c50" d="M140 127l-1 3-58-12v-3z"/><path fill="#ecdabb" d="M164 21l39 2v7l-39-1z"/><path fill="#f4e3c1" d="M137 28l-1 3-59-20 1-3z"/><path fill="#d7c7a8" d="M239 38l-13 10-48-66 13-9z"/><path fill="#d0bd9f" d="M345-7l-52 61-8-7 51-61z"/><path fill="#645039" d="M391 173l-48-8 2-8 48 8z"/><path fill="#a78e70" d="M414 99l-12 27-105-45 12-27z"/><path fill="#d0bc9f" d="M31 44h-61v-5h61z"/><path fill="#d1bfa0" d="M172 54l-2-6 44-10 2 6z"/><path fill="#776047" d="M151 90l-9 10-1-1 9-10z"/><path fill="#705b43" d="M-8 131l156 8-1 25-156-8z"/><path fill="#dfceae" d="M123 31l-5 12-42-16 4-12z"/><path fill="#f3e1c1" d="M256 28l-22 9-17-42 22-9z"/><path fill="#b29a79" d="M432 66l-4 20-93-20 4-19z"/><path fill="#d1c0a0" d="M134 48l-2-30 20-1 2 29z"/><path fill="#ebd8b8" d="M210 72l-4-25 14-2 3 25z"/><path fill="#e1ceb2" d="M304 26l-22 6-10-31 23-7z"/><path fill="#ab9374" d="M241 74l80-28 5 16-80 28z"/><path fill="#ccba9d" d="M80-5l48 9-1 3-47-9z"/><path fill="#867457" d="M276 141v2l-119-17v-2z"/><path fill="#e0cdad" d="M252 65l-78-5v-2l78 6z"/><path fill="#e8d6b6" d="M334 44l50 3-1 2-49-4z"/><path fill="#e2cfb0" d="M14 58l1-4 94 11v5z"/><path fill="#efdbbc" d="M87 47v4l-91 4v-5z"/><path fill="#a38d6f" d="M120 84l2-21 19 2-2 20z"/><path fill="#817355" d="M370 129l53-1v7l-53 1z"/><path fill="#dfceb0" d="M282 12l-36 4-1-8 36-4z"/><path fill="#5c4b31" d="M211 193l-36 1v-23l36-1z"/><path fill="#6a573d" d="M289 142l13 8-20 32-14-9z"/><path fill="#c4ad89" d="M42 77l20-4v1l-19 5z"/><path fill="#efe1c2" d="M154 9l-3-7 21-10 4 7z"/><path fill="#cfbf9f" d="M331 18l50 1-1 11-50-1z"/><path fill="#9d8567" d="M33 86l118 10-1 20-119-10z"/><path fill="#51402b" d="M159 191l-109 9-1-5 109-9z"/><path fill="#7e6e51" d="M0 129v-8l70-5 1 8z"/><path fill="#483822" d="M361 154h2l-7 34h-1z"/><path fill="#cebea1" d="M173 20l-5-7 23-19 6 7z"/><path fill="#d5c3a8" d="M421 8l-32 32-24-25 32-31z"/><path fill="#7f6e52" d="M229 131l87-2 1 14-88 2z"/><path fill="#9b8467" d="M261 117l6-26 83 19-6 26z"/><path fill="#a28b6d" d="M349 80l-1 20-198-3V76z"/><path fill="#a18b6d" d="M140 93l-50 1V71l50-1z"/><path fill="#45361e" d="M382 161l1-1 6 28h-2z"/><path fill="#eedbb9" d="M262 43l1 13-67 6-1-13z"/><path fill="#9d8467" d="M-17 88l48-5 3 25-48 5z"/><path fill="#eeddbd" d="M323 33l17-2 1 7-17 1z"/><path fill="#ab9272" d="M198 74v-4l68 1v5z"/><path fill="#e8d5b8" d="M343 10l2 5-24 8-2-5z"/><path fill="#604e35" d="M144 196l30-30 2 2-30 30z"/><path fill="#efdbbe" d="M95 57l7-12 15 9-8 12z"/><path fill="#756045" d="M366 171l-8-21 37-13 8 21z"/><path fill="#d6c6a4" d="M112 67v2l-25-3v-2z"/><path fill="#473a23" d="M287 179l21-11 3 7-20 11z"/><path fill="#d2c0a1" d="M179 53l-2-3 46-33 1 3z"/><path fill="#ebd6b3" d="M390 55v2l-35-11 1-1z"/><path fill="#cebb9c" d="M182 45v7l-56-5v-7z"/><path fill="#413320" d="M391 207l9-43 8 2-10 43z"/><path fill="#c9b58f" d="M69 76l-55-5v-2l55 6z"/><path fill="#63523a" d="M385 162l-8 22h-1l7-23z"/><path fill="#735e45" d="M216 142v20h-93v-20z"/><path fill="#5e4730" d="M151 94l-1 1-5-3v-1z"/><path fill="#dac9ab" d="M246 39l41-31 3 4-41 31z"/><path fill="#9e886b" d="M121 106l34-14 1 1-35 14z"/><path fill="#766246" d="M83 119l79 17-2 12-80-17z"/><path fill="#f7e5c7" d="M410 53l-37-2v-6l37 2z"/><path fill="#d2bea1" d="M53 39l34 8v3l-35-8z"/><path fill="#ac9474" d="M314 73l8-26 40 13-8 26z"/><path fill="#54452c" d="M301 178l-81 8v-3l80-8z"/><path fill="#9e8667" d="M33 104l8-28 34 9-9 29z"/><path fill="#3b2c1a" d="M296 193l-2-25h2l2 25z"/><path fill="#b49d7c" d="M353 49l48 8-2 11-48-8z"/><path fill="#ecdbbc" d="M247-9l1 1-59 44-1-2z"/><path fill="#d4c3a3" d="M368 46l-100 5v-8l100-5z"/><path fill="#6f5840" d="M51 146l1 14-54 5-2-14z"/><path fill="#dcc9aa" d="M175 48l-21-19 7-7 21 19z"/><path fill="#52402b" d="M81 202l-1 11-122-17 1-11z"/><path fill="#837151" d="M76 112l1 9-39 3-1-9z"/><path fill="#f1e1c1" d="M269 12l3 5-24 14-3-6z"/><path fill="#efdcbd" d="M192 56v5l-48-6v-5z"/><path fill="#e1cfb1" d="M134 24L99 14l3-12 35 10z"/><path fill="#dfceae" d="M100 24L33 11V9l67 13z"/><path fill="#f3debc" d="M278 59l-20-2v-2l20 3z"/><path fill="#f3e2c2" d="M-11 11l73-8 1 3-73 8z"/><path fill="#d2c0a4" d="M196 22L184 9l27-26 12 13z"/><path fill="#d2bea3" d="M344 0l1 9-47 5-1-9z"/><path fill="#3f331e" d="M312 166h3l6 22-3 1z"/><path fill="#e1ceb0" d="M101 53L74 66l-4-8 26-13z"/><path fill="#baa681" d="M188 72l-21-4v-1l21 4z"/><path fill="#705d43" d="M359 154l-4 13h-3l4-14z"/><path fill="#897459" d="M212 141l-19-6 3-9 19 6z"/><path fill="#6e5a40" d="M319 146h7l1 31h-8z"/><path fill="#d5c19f" d="M3 77l-6-18 8-3 6 18z"/><path fill="#3d311e" d="M231 195l-22 15-7-10 22-15z"/><path fill="#655538" d="M284 184l-10-1v-15h10z"/><path fill="#e5d4b4" d="M-14 21l50 3-1 16-50-3z"/><path fill="#403220" d="M329 165l22-4 5 29-21 4z"/><path fill="#958062" d="M190 131L34 107v-2l156 25z"/><path fill="#5b4b34" d="M183 228l-2 1-9-59h2z"/><path fill="#ead9bb" d="M298 22l-12 8-7-10 12-8z"/><path fill="#887458" d="M133 128l-28-4 1-6 28 3z"/><path fill="#a18a6b" d="M395 130L286 95l5-17 109 35z"/><path fill="#e8d6ba" d="M332 1l-72 5V4l72-5z"/><path fill="#6b563c" d="M217 161l114-4v8l-114 4z"/><path fill="#3c2e1b" d="M107 202H95v-11h12z"/><path fill="#69563c" d="M227 170l58-26 6 13-59 26z"/><path fill="#e2cfb0" d="M157 53v6l-28 2v-6z"/><path fill="#79674d" d="M357 143l-42 10-2-7 43-10z"/><path fill="#ebd9ba" d="M121 43l7 9-20 13-6-9z"/><path fill="#5d4b30" d="M114 179l-59-8 1-11 59 8z"/><path fill="#806e50" d="M214 132l37 15-4 10-37-15z"/><path fill="#a78e70" d="M270 65l2 18-34 4-2-19z"/><path fill="#f5e4c5" d="M267-6l1 9-43 5-1-9z"/><path fill="#7f6e53" d="M49 123l-86 7-1-14 86-7z"/><path fill="#a68d6f" d="M151 65l4 10-27 9-3-10z"/><path fill="#e2d0b2" d="M223 40l-36-13 1-3 36 13z"/><path fill="#e7d3b4" d="M178 15l13-3 5 22-14 2z"/><path fill="#e3d0b1" d="M181 62v-4l64 3v5z"/><path fill="#8b755b" d="M253 117l50 11-1 6-51-11z"/><path fill="#f1e0be" d="M24 45l38 4v1l-38-3z"/><path fill="#d2c1a5" d="M417 6l-24 22-30-32 24-22z"/><path fill="#3e301d" d="M164 187l9-3 3 12-9 3z"/><path fill="#d1c0a1" d="M340-7l-47 61-10-8 47-60z"/><path fill="#f8e4c9" d="M384 50l-2-10 32-7 2 10z"/><path fill="#766147" d="M376 145l13-8 15 26-13 8z"/><path fill="#927f61" d="M486 123v2l-189 10v-2z"/><path fill="#ddcaae" d="M386 21L345 2l2-6 41 19z"/><path fill="#9d8568" d="M321 109l-154 13-2-14 154-13z"/><path fill="#ead6b3" d="M72 75l-10-7 2-4 10 7z"/><path fill="#a38c6d" d="M61 77l68-10 2 17-68 10z"/><path fill="#cebc9b" d="M93 69v-1l9-1v1z"/><path fill="#685840" d="M371 168l2 9h-1l-3-9z"/><path fill="#e1d0b1" d="M120 37l-2-6 20-7 2 6z"/><path fill="#d9c7a7" d="M4 73l-1-4 39-6v3z"/><path fill="#998366" d="M92 91l64 24-6 15-64-25z"/><path fill="#d5c3a5" d="M132 12h-31V9h31z"/><path fill="#edb" d="M285 56l-50-6v-2l50 6z"/><path fill="#746046" d="M55 123l1 16-65 5-2-15z"/><path fill="#68553c" d="M336 153v-1l15 6-1 1z"/><path fill="#ad9573" d="M293 53l42 11-1 6-43-10z"/><path fill="#4f4027" d="M348 168l-15-10 1-3 16 11z"/><path fill="#d0bd9b" d="M272 60v1h-5v-2z"/><path fill="#d0be9f" d="M140 49V27h19l-1 22z"/><path fill="#d1c1a2" d="M268 21l24 13-8 15-24-12z"/><path fill="#a48d6f" d="M12 83v-8l41 3-1 8z"/><path fill="#40341e" d="M308 186h-5v-20l5-1z"/><path fill="#5f4d32" d="M97 176v-5l108 11-1 5z"/><path fill="#877152" d="M143 93l1 1-4 6-2-1z"/><path fill="#ebd8b9" d="M51 66l-20-1V45l21 1z"/><path fill="#67563d" d="M303 164l1 1-5 10-1-1z"/><path fill="#7f6d4f" d="M381 128v2l-57 15-1-1z"/><path fill="#9e8769" d="M189 105L59 96l1-6 129 9z"/><path fill="#efddbe" d="M88 25L16 12v-1l73 13z"/><path fill="#cfbc9d" d="M116 47l-15-3v-2l15 3z"/><path fill="#715b43" d="M181 168l-28 2-1-8 28-2z"/><path fill="#ccb994" d="M-3 77v-3l39-6v3z"/><path fill="#736045" d="M185 133l32 17-7 13-31-18z"/><path fill="#aa9171" d="M142 67l49 3v5l-50-3z"/><path fill="#4b3c27" d="M272 179l-51 15-1-3 51-15z"/><path fill="#43321b" d="M375 177l-1-8h3l1 7z"/><path fill="#f0debe" d="M96 19l-1 3L50 4l1-3z"/><path fill="#3c2e1d" d="M232 201v-10h125v10z"/><path fill="#493c22" d="M284 182l-2 8-15-5 2-7z"/><path fill="#e2d0ad" d="M167 70l-2-5 32-8 2 5z"/><path fill="#e5d3b4" d="M226 27V9h6v18z"/><path fill="#baa581" d="M141 64l-5 3-1-1 6-3z"/><path fill="#3f301d" d="M191 208l-8 1-4-18 8-2z"/><path fill="#d1bd9f" d="M321 45l-19 6-6-19 19-6z"/><path fill="#f0dfbe" d="M127 18l1 8-19 1-1-8z"/><path fill="#e5d1b3" d="M74 34l42 3-1 6-42-3z"/><path fill="#9b8666" d="M354 124v11l-13-1 1-11z"/><path fill="#c5b190" d="M73 75H44v-2h29z"/><path fill="#a18a6c" d="M-17 79h192v9H-17z"/><path fill="#ceba9a" d="M53 75l13-6 1 2-13 5z"/><path fill="#d1bfa2" d="M447 9l1 11-109 10-1-11z"/><path fill="#5d4b34" d="M197 195l1-11 10 1-2 11z"/><path fill="#988066" d="M218 114v11l-78 3v-11z"/><path fill="#5b4933" d="M71 199L4 175l5-13 66 24z"/><path fill="#a5906f" d="M90 82l-1 1-18-10 1-1z"/><path fill="#e3d2b3" d="M133 9v1L69 6V4z"/><path fill="#c5b390" d="M263 62v1l-6-1v-2z"/><path fill="#d6c5a5" d="M217 49l-40-5 1-13 41 5z"/><path fill="#ecdbbe" d="M394 27l4-2 6 9-4 2z"/><path fill="#493923" d="M377 190l-1-1 11-24 1 1z"/><path fill="#79664a" d="M295 143v1l-73 12v-2z"/><path fill="#dcc9ae" d="M317-1l1 3-43 10-1-3z"/><path fill="#cebe9d" d="M95-5l5 9-5 3-6-9z"/><path fill="#d4c0a3" d="M15 44v1H2v-1z"/><path fill="#a88e71" d="M311 60l116 54-5 12-116-54z"/><path fill="#6a573f" d="M390 175l-1-1 10-13 1 1z"/><path fill="#7c6b4e" d="M384 145l-33-3 1-11 33 3z"/><path fill="#988164" d="M83 99v8l-89 2v-8z"/><path fill="#937f61" d="M336 132l-2 6-37-12 2-6z"/><path fill="#705c43" d="M378 175l2-24 3 1-2 23z"/><path fill="#5b4c36" d="M258 191l-2-1 3-20 2 1z"/><path fill="#473b27" d="M330 179v1l-18-4v-2z"/><path fill="#e6d3b7" d="M401 32v2l-31 14-1-2z"/><path fill="#dbcaab" d="M141 42L86 30v-2l55 12z"/><path fill="#7f674c" d="M149 88l1-1 3 1-1 2z"/><path fill="#cebe9f" d="M141 46l-3 4-14-10 2-4z"/><path fill="#e0cfb0" d="M37 20l10 12-14 12-10-12z"/><path fill="#ebd8b8" d="M256 53l-14-5 4-12 13 5z"/><path fill="#f5e3c3" d="M382 54l1-10 31 4-1 9z"/><path fill="#a88f70" d="M181 86l-1-11 91-6v11z"/><path fill="#deccac" d="M318 20l3-1 6 19-3 1z"/><path fill="#847152" d="M74 118l-1 2-55-12 1-1z"/><path fill="#5d4a31" d="M225 183l26-5 1 3-26 5z"/><path fill="#e5d4b3" d="M170 14l-5 10-24-11 5-10z"/><path fill="#3f311b" d="M288 170h1l3 15h-1z"/><path fill="#dacaab" d="M161 16L127 1l1-3 34 16z"/><path fill="#b19977" d="M371 58l-43 6-1-7 43-7z"/><path fill="#eddab6" d="M184 69v-2l53-3v2z"/><path fill="#dfceaf" d="M67 11v1l-32 4-1-2z"/><path fill="#67553a" d="M102 155l61 16-1 3-61-16z"/><path fill="#584630" d="M52 195l-1-5 83-5v4z"/><path fill="#ac9374" d="M286 63l1-8 123 24-2 8z"/><path fill="#e5d4b5" d="M241 16l1-6 18 1v6z"/><path fill="#d3c3a3" d="M232 39l-19-16 1-1 19 16z"/><path fill="#c4b395" d="M348 47v2l-26-1v-1z"/><path fill="#dacdb0" d="M167-4l12-3 3 12-12 3z"/><path fill="#d2bfa0" d="M75 40l13 8-2 4-14-8z"/><path fill="#756045" d="M165 127l9 20-12 6-10-20z"/><path fill="#eedabb" d="M13 59l-25-3 1-10 25 3z"/><path fill="#40301b" d="M124 195h-2l-3-7h1z"/><path fill="#40301a" d="M138 186h2l4 23h-1z"/><path fill="#3b2d21" d="M434 189l-66 26-3-9 65-25z"/><path fill="#837050" d="M108 124l-37-11v-1l38 11z"/><path fill="#e1cfb1" d="M200 62l-7-17 6-2 6 17z"/><path fill="#decdad" d="M91 20l48 20-1 1-47-20z"/><path fill="#e7d5b5" d="M99 69l-1-4 36-11 1 5z"/><path fill="#d0c09f" d="M350 43l-10-16 18-12 10 16z"/><path fill="#f2debf" d="M118 56l-1-1 29-6 1 1z"/><path fill="#d0bea2" d="M347 6l-39 16-3-8 39-15z"/><path fill="#705c44" d="M292 146v-2l43 12-1 1z"/><path fill="#392a17" d="M151 201l6-10 6 4-6 9z"/><path fill="#d6c6a6" d="M154 25l-29-6v-2l29 6z"/><path fill="#715b43" d="M-23 153l6-21 42 14-7 20z"/><path fill="#6f5941" d="M46 153l60 5v3l-61-5z"/><path fill="#67543a" d="M266 178l-27-1v-19l27 1z"/><path fill="#ab936f" d="M120 69l-1 1-3-3 1-1z"/><path fill="#decba7" d="M247 64l16-6 1 2-16 5z"/><path fill="#91765d" d="M215 129v-6h37v6z"/><path fill="#7c6b4f" d="M279 148l-1-2 101-11 1 2z"/><path fill="#d1c1a1" d="M203 41l-2-1 17-20 1 1z"/><path fill="#d1bfa3" d="M201 2l-31 18-1-1 31-19z"/><path fill="#e2d1b2" d="M258 42l2-3 15 11-2 4z"/><path fill="#ecdab8" d="M283 56l-48 6-1-7 48-6z"/><path fill="#6c573d" d="M214 173l-3-11 36-8 3 10z"/><path fill="#5b4a34" d="M189 184l3-1 2 13h-3z"/><path fill="#d9c6a9" d="M84 43v1L30 34v-2z"/><path fill="#48391e" d="M240 177l1 1-1 9h-1z"/><path fill="#e6d4b0" d="M123 62v1l-13 5v-2z"/><path fill="#d3bf9d" d="M92 71l-1 1-12-1v-1z"/><path fill="#6a5940" d="M311 173h-2v-16h2z"/><path fill="#624f34" d="M6 169l2-9 12 3-2 9z"/><path fill="#5c4b32" d="M134 195l-1 1-19-24 2-1z"/><path fill="#5f4f36" d="M297 164h1l-6 11h-1z"/><path fill="#edd9bb" d="M65 64L53 47l5-3 12 16z"/><path fill="#3e2f1e" d="M253 183l19 18-14 15-19-19z"/><path fill="#42321f" d="M364 210l-7-49 2-1 7 50z"/><path fill="#e8d8b7" d="M12-6L90 6l-1 2L12-5z"/><path fill="#453621" d="M114 212l-2 1-2-27h1z"/><path fill="#877357" d="M114 126v-2l27 2v1z"/><path fill="#cfc3a1" d="M200 15v5l-8 1v-5z"/><path fill="#705b41" d="M354 155v-3l63 14-1 3z"/><path fill="#a58e6f" d="M125 75l1-10 67 11-2 11z"/><path fill="#42301a" d="M-2 201l5-4 1 1-5 4z"/><path fill="#978066" d="M262 118l65 5v1l-65-4z"/><path fill="#d7c5a1" d="M85 64v-1l13 6-1 1z"/><path fill="#513f27" d="M273 173l-2 6-2-1 3-5z"/><path fill="#e6d2b4" d="M70 39l2-27 9 1-1 26z"/><path fill="#e3d1b1" d="M118 20l-1 1L81 4V2z"/><path fill="#78674b" d="M408 146l-4 10-20-10 4-9z"/><path fill="#e5d3b5" d="M128 23l-1 1L96-9l1-1z"/><path fill="#68573d" d="M327 154h3l-2 22h-3z"/><path fill="#d2c1a2" d="M118 38l29 5-1 2-29-6z"/><path fill="#9a8266" d="M204 124v-4l50-2v5z"/><path fill="#756145" d="M66 126l80 6-1 12-80-5z"/><path fill="#766147" d="M217 158l64-13 1 2-65 12z"/><path fill="#887358" d="M278 124l32 7-2 6-32-7z"/><path fill="#ead7b4" d="M211 70l-89-9v-2l89 10z"/><path fill="#675944" d="M363 167h2l-2 8h-1z"/><path fill="#dcc9ab" d="M26 42l-51-6v-1l52 5z"/><path fill="#5a4936" d="M177 196l3-9h1l-3 9z"/><path fill="#5d4b33" d="M158 178l-10 17-4-2 10-18z"/><path fill="#af9c76" d="M165 70h-1l1-4h1z"/><path fill="#816c52" d="M-5 109l16 5-4 13-16-5z"/><path fill="#9e866b" d="M155 87l1 1-7 8-1-1z"/><path fill="#5b4831" d="M185 194l-12-10 3-4 12 10z"/><path fill="#cbb08d" d="M362 49v1h-7v-2z"/><path fill="#dbc9aa" d="M314 32l41-23 1 1-41 23z"/><path fill="#7f6e52" d="M286 131v13l-70 1-1-12z"/><path fill="#e3d2b3" d="M26 4v-7l25 1v6z"/><path fill="#d8c6aa" d="M305 20l-12-8 3-5 12 7z"/><path fill="#a78e72" d="M306 82l-36-3 1-16 36 3z"/><path fill="#9d8768" d="M351 131l1-14 17 1v14z"/><path fill="#eddabb" d="M24 13l1-2 74 25v1z"/><path fill="#826f51" d="M103 120v2l-48-3v-1z"/><path fill="#655236" d="M160 168l60 4-1 2-59-4z"/><path fill="#bca481" d="M192 69v2l-8-1 1-2z"/><path fill="#e8d6b4" d="M78 73l-1-1 12-16 2 1z"/><path fill="#eedcb9" d="M253 48l-16 19-1-1 16-19z"/><path fill="#bba17e" d="M-12 76v-1h32v2z"/><path fill="#5f4c31" d="M319 168h-18v-3h18z"/><path fill="#b7a082" d="M109 71l-1 1-3-4 1-1z"/><path fill="#cfbc99" d="M30 69v-1l36 5-1 2z"/><path fill="#705c43" d="M376 154l-5 19h-1l4-20z"/><path fill="#fae8cc" d="M406 27l3 3-16 19-4-3z"/><path fill="#d7c9a8" d="M288 53v-1l13-3 1 1z"/><path fill="#4a3e25" d="M332 163l1-3 24 10-1 3z"/><path fill="#d2c1a1" d="M54 39v7l-19-3 1-6z"/><path fill="#e1ceaf" d="M123 47v2l-39 2v-1z"/><path fill="#57452f" d="M79 200l-104-9v-5l105 9z"/><path fill="#7e6c4c" d="M156 128h30v1l-30 1z"/><path fill="#5c4d36" d="M298 180l4-15h1l-3 16z"/><path fill="#6c5840" d="M268 154l1-6 65 9-1 6z"/><path fill="#463923" d="M185 212l-1-1 33-25 1 2z"/><path fill="#8b765a" d="M252 118l6-4 7 10-6 4z"/><path fill="#594933" d="M84 217l7-36 2 1-7 35z"/><path fill="#ecdbbb" d="M217 16v-5l33 3v4z"/><path fill="#433522" d="M437 201l-2 6-74-25 2-6z"/><path fill="#6b5940" d="M353 162l5 4-1 1-5-3z"/><path fill="#d1bd9e" d="M190 46l1 2-33 4v-2z"/><path fill="#e6d3b4" d="M29 50L19 68 7 61l10-18z"/><path fill="#dfcead" d="M257 40l-4-15 1-1 4 15z"/><path fill="#c7b594" d="M256 62v-2l11 2v1z"/><path fill="#f0deb9" d="M262 59v-1h9v2z"/><path fill="#bda687" d="M56 74l9 2v1l-10-1z"/><path fill="#deccac" d="M59 13l21 6v1l-21-6z"/><path fill="#7e6e52" d="M403 133l-2 9-18-5 2-9z"/><path fill="#dbc7a8" d="M88 37l11 1-1 8-11-1z"/><path fill="#d4c3a4" d="M166 30v-2h13v2z"/><path fill="#594a33" d="M228 181l-3 9-1-1 2-9z"/><path fill="#ddcdae" d="M259 41l28 11-1 3-28-11z"/><path fill="#5c4932" d="M236 176l6 2-5 10-5-2z"/><path fill="#e4d1b2" d="M126 56v-2l53 10-1 2z"/><path fill="#dcc9ab" d="M84 57l-10 5v-2l10-4z"/><path fill="#f1debf" d="M45 17l1-3 20 6-1 3z"/><path fill="#403120" d="M347 165l30 36-19 16-30-36z"/><path fill="#e0ceaf" d="M93 28l-1 2-30-6v-2z"/><path fill="#42321c" d="M155 188l2-1 2 8h-1z"/><path fill="#69553b" d="M271 180l8-22 1 1-7 22z"/><path fill="#cfc2a4" d="M164 8V7l15 5-1 2z"/><path fill="#c4b08a" d="M42 76l-9-3 1-3 9 3z"/><path fill="#655538" d="M25 160l49 2-1 1-48-1z"/><path fill="#f4e3c1" d="M424 60l-1 1-54-13v-1z"/><path fill="#efdebe" d="M134 25l-1 2-31-4 1-1z"/><path fill="#4b3923" d="M198 194l-2 1-2-6 2-1z"/><path fill="#f0dfbb" d="M260 58l-44-10v-1l45 10z"/><path fill="#cdbe99" d="M125 65v-2l11-1v1z"/><path fill="#988263" d="M82 114l1-7 62 9-1 6z"/><path fill="#ac9375" d="M276 60l5-4 7 10-5 4z"/><path fill="#69593c" d="M83 163l-1 5-10-2v-4z"/><path fill="#55472e" d="M249 178l-4 15-2-1 5-15z"/><path fill="#93785d" d="M-5 110v-1l21 1v2z"/><path fill="#5e4e37" d="M167 188l1-3 1 1-1 3z"/><path fill="#e7d4b6" d="M70 37v1L6 21l1-1z"/><path fill="#a08a6b" d="M33 85l87-9 2 12-87 10z"/><path fill="#e0cdae" d="M383 41v2l-30 5-1-1z"/><path fill="#3a2c18" d="M131 200H83v-2h48z"/><path fill="#463823" d="M142 197h-20v-5h20z"/><path fill="#e7d3b1" d="M229 62l-10 10-2-2 9-10z"/><path fill="#a48c6e" d="M415 127l-3 6-66-43 3-5z"/><path fill="#dac8ad" d="M272 27l15-22 2 1-15 22z"/><path fill="#755e46" d="M406 155l1 2-20 12-2-3z"/><path fill="#ad9977" d="M245 66l1 7-20 3-1-6z"/><path fill="#d1c0a0" d="M75 1v-2l42 2v2z"/><path fill="#534129" d="M374 165l1-1 3 11h-1z"/><path fill="#756248" d="M327 149l60-6v4l-60 5z"/><path fill="#d1bfa1" d="M305 43l32-3v7l-31 2z"/><path fill="#ccb993" d="M49 69v1L6 76v-1z"/><path fill="#efdebf" d="M332 35h-1l-2-6h1z"/><path fill="#cdbc9d" d="M309 18l7 2-5 17-7-3z"/><path fill="#f3e2c1" d="M239 36l-1-16 12-1 1 16z"/><path fill="#dfceaf" d="M197 25l33 19-1 1-32-19z"/><path fill="#d6caaf" d="M212 14l-3-1 6-22h3z"/><path fill="#604f35" d="M390 167l15 4v1l-15-4z"/><path fill="#e9d8b6" d="M227 45v-2l35 8v1z"/><path fill="#dcccac" d="M117 20v-1l46-3v1z"/><path fill="#ead7b7" d="M146 16l-1-2 14-6 1 1z"/><path fill="#decdae" d="M264 24l-1-1 6-5 1 1z"/><path fill="#f1debf" d="M232 56h-72v-1h72z"/><path fill="#46341d" d="M56 203h-3l-1-7 3-1z"/><path fill="#b59c7e" d="M317 48l-6 7-1-1 6-7z"/><path fill="#5b4933" d="M93 195l-70-16 4-17 70 17z"/><path fill="#ead9b9" d="M-15 2V1l48 27-1 1z"/><path fill="#69553b" d="M287 162l1 14-14 1-1-14z"/><path fill="#e3d1b2" d="M126 48L87 32l1-3 39 16z"/><path fill="#3e301f" d="M292 209l-7-6 21-29 8 6z"/><path fill="#ddcbaa" d="M48 71l15-4v2l-15 3z"/><path fill="#cfb592" d="M247 67l-8 1v-2l8-1z"/><path fill="#dbcbaa" d="M219 46l19-11 1 1-19 12z"/><path fill="#e8d8b7" d="M290 15l8 1-2 11-8-1z"/><path fill="#e2d0b4" d="M357 4l-9-2V1l9 2z"/><path fill="#a99071" d="M273 65v3l-69 12-1-3z"/><path fill="#a68f6f" d="M125 68l1 2-59 10v-1z"/><path fill="#bda585" d="M222 71v2l-14-2v-1z"/><path fill="#78654a" d="M146 133l-59-10v-2l59 11z"/><path fill="#7a684d" d="M360 148l-17-9 2-4 17 9z"/><path fill="#4e402c" d="M118 191l2 16h-2l-2-15z"/><path fill="#7f6d52" d="M318 143l18-6 1 3-18 6z"/><path fill="#4b3821" d="M253 178l1-2h1l-1 3z"/><path fill="#ecdbb7" d="M68 71v-1l22-2v1z"/><path fill="#e4d1b3" d="M139 63l-20-1v-8l20 1z"/><path fill="#4c3c27" d="M188 184l5 18h-1l-6-18z"/><path fill="#d0c0a1" d="M215 46l-15-9 2-3 15 9z"/><path fill="#d4c2a6" d="M408-4l-1 14-50-4 1-14z"/><path fill="#e3d2b3" d="M218 24l1-2 5 3v1z"/><path fill="#746147" d="M22 126l67-5v11l-67 5z"/><path fill="#998464" d="M367 125l1 1-5 7-2-1z"/><path fill="#baa887" d="M87 72v1l-3 1-1-2z"/><path fill="#4e3c24" d="M340 153h2v8h-1z"/><path fill="#dfcdaf" d="M188 10l6 5-5 8-7-5z"/><path fill="#e6d3b4" d="M238 64v2l-65-13v-1z"/><path fill="#eedebe" d="M273-1l1 4-17 3-1-4z"/><path fill="#f2e1c1" d="M-4 4l36 9-1 3-36-9z"/><path fill="#a38c6d" d="M121 73l1-7 75 18-2 8z"/><path fill="#a0896b" d="M322 110l4-13 54 16-4 14z"/><path fill="#a58d6d" d="M0 83v-4l42-5v5z"/><path fill="#dccbac" d="M157 21l3-2 19 27-3 2z"/><path fill="#a99072" d="M296 57l147 54-3 8-147-53z"/><path fill="#deccb0" d="M357-13l10 27h-1l-10-26z"/><path fill="#3c2c18" d="M97 190v19h-2v-19z"/><path fill="#f3e2c1" d="M96 15l-26-5 1-2 26 6z"/><path fill="#d6c7a8" d="M140 2l10 5-1 2-10-5z"/><path fill="#534324" d="M323 172l4 3-1 1-4-3z"/><path fill="#715e43" d="M215 151h12v9h-12z"/><path fill="#d7c5a6" d="M292 54l-23-11 1-1 22 10z"/><path fill="#40331f" d="M229 212h-1l-9-28 2-1z"/></svg>