<svg xmlns="http://www.w3.org/2000/svg" viewBox="0 0 400 200"><path fill="#9e8a6e" d="M0 0h400v200H0z"/><path fill="#ffffea" d="M424 27L-24 90 12-24z"/><path fill="#251401" d="M6 224L-13 96l437 92z"/><path fill="#efd7b3" d="M418 85L395-24-12 49z"/><path fill="#392b17" d="M398 224l26-106-400 89z"/><path fill="#877052" d="M21 171l381-31-426-78z"/><path fill="#e9d6b5" d="M-24-1h448L202 77z"/><path fill="#a08766" d="M35 102l325-56 64 92z"/><path fill="#725f44" d="M198 191L16 120l408 20z"/><path fill="#2f2315" d="M198 196l192 28 34-62z"/><path fill="#a28968" d="M-24 82l28 49 158-69z"/><path fill="#fffce1" d="M424 26l-81 19 55 9z"/><path fill="#f3dcb8" d="M131 62L9-24-24 77z"/><path fill="#a68c6d" d="M423 54l-8 78-241-59z"/><path fill="#d2c2a5" d="M424 26L279-24l-14 83z"/><path fill="#d0bfa0" d="M57 48L204-2l33 48z"/><path fill="#55432c" d="M224 188l-243 14 53-54z"/><path fill="#f4e3c1" d="M210 71l31-95 27 83z"/><path fill="#3c2f1d" d="M424 212l-86-60-39 72z"/><path fill="#f3e2c4" d="M362-24H196l44 56z"/><path fill="#a08969" d="M71 121l-95-37 181-19z"/><path fill="#f1dfbf" d="M13-24l-37 58 156-10z"/><path fill="#a88f70" d="M326 45L198 82l226 5z"/><path fill="#d4c2a5" d="M424-15l-45 61-164-3z"/><path fill="#766348" d="M281 181l20-60-188 11z"/><path fill="#efdcba" d="M149 65l106-30-12 31z"/><path fill="#77644a" d="M135 121l-150 49 14-61z"/><path fill="#a48c6d" d="M232 71l-117-8 84 69z"/><path fill="#cdbb9e" d="M15 45l75-2-45-12z"/><path fill="#ebd7b6" d="M54 76l87-16-15-20z"/><path fill="#f6e4c2" d="M245 49l47 2-27 9z"/><path fill="#ccb99a" d="M146 24l-20 21 73 7z"/><path fill="#342717" d="M199 224L90 196l98-5z"/><path fill="#ffeed1" d="M371 48l36 8 17-36z"/><path fill="#bea77e" d="M62 79L21 68h41z"/><path fill="#ad9574" d="M385 116l-25-68 64 20z"/><path fill="#69543a" d="M331 171l-39-31-104 30z"/><path fill="#a1896b" d="M135 79L-1 112l-23-38z"/><path fill="#7c6b4e" d="M424 163v-37l-137 14z"/><path fill="#604e33" d="M124 188l-37-34 137 27z"/><path fill="#988165" d="M151 124l131-36 116 41z"/><path fill="#ebd8b7" d="M191 68l21-22-69 16z"/><path fill="#857455" d="M49 106l-33 18 91-4z"/><path fill="#413321" d="M424 201l-90-42-16 64z"/><path fill="#a18a6b" d="M62 77l90 55-15-69z"/><path fill="#705b43" d="M176 160L49 126l-73 34z"/><path fill="#cebc9c" d="M320 46l-61 2 56-33z"/><path fill="#e8d5b5" d="M129 7l64 28 22-19z"/><path fill="#857357" d="M184 127l54 27 57-36z"/><path fill="#d4c2a3" d="M231 15l-2 26-72 8z"/><path fill="#685339" d="M368 174l-33-23 70 15z"/><path fill="#e9d7ba" d="M304-16l-11 43-139-51z"/><path fill="#d3c2a4" d="M287 6l-33 25 22 17z"/><path fill="#413420" d="M195 224l17-42 129-8z"/><path fill="#eadab9" d="M343 40l-20-3 4-22z"/><path fill="#d1c0a1" d="M327 21l80-11-45 38z"/><path fill="#cfbca1" d="M207 18l-39-9 52-33z"/><path fill="#57452f" d="M71 162l-95 4 69 58z"/><path fill="#f8e8c7" d="M221 9l-1-33 81 19z"/><path fill="#9a8365" d="M157 85l49 47-172-28z"/><path fill="#e6d5b5" d="M124 40L38 30 26-8z"/><path fill="#a78f71" d="M221 76l175 25-81-52z"/><path fill="#827156" d="M265 145l84-5-97-24z"/><path fill="#d7c5ac" d="M256 10l148 6 5-40z"/><path fill="#5f4d34" d="M227 170l-1 17 59-14z"/><path fill="#423321" d="M348 224l12-67 9 50z"/><path fill="#ceba9b" d="M70-24l70 28-92-6z"/><path fill="#e7d4b4" d="M235 68h-62l23-20z"/><path fill="#ead7b8" d="M137 49L54 70 15 43z"/><path fill="#6d583d" d="M316 163l13 16-2-36z"/><path fill="#f3e1c0" d="M152 9v-33l47 12z"/><path fill="#453823" d="M329 166l95 13-37 12z"/><path fill="#80674f" d="M156 85l-13 8 6 2z"/><path fill="#eddbba" d="M234 23l6 36 40-5z"/><path fill="#735d44" d="M234 157l-91 14 34-44z"/><path fill="#715b43" d="M118 157l-142-41 26 43z"/><path fill="#aa9271" d="M224 73l-92-10 66 25z"/><path fill="#d3bea1" d="M24 40l-14 6-12-9z"/><path fill="#deccad" d="M93 21l41 10-63 34z"/><path fill="#f0ddbe" d="M149 63l36-8-42-6z"/><path fill="#b19977" d="M334 48l6 26 84-14z"/><path fill="#9e8769" d="M145 118l7-37 111 29z"/><path fill="#8c785b" d="M149 132l-44-11 21-8z"/><path fill="#5e4c34" d="M184 171l-7 33-4-34z"/><path fill="#735d43" d="M396 168l2-22-64 3z"/><path fill="#a08a6b" d="M301 71l-99 22 218 38z"/><path fill="#cdbc9f" d="M301 24l14-20 34-5z"/><path fill="#e9d8b9" d="M326 13l-5 10 28-11z"/><path fill="#68543a" d="M199 168l88 11 3-25z"/><path fill="#ddc9a6" d="M41 66l-64-12-1 17z"/><path fill="#614f35" d="M146 195l22-21-27-11z"/><path fill="#cdbda1" d="M199-2l-29 23 1-14z"/><path fill="#53412c" d="M-24 190l78 34 44-33z"/><path fill="#d4c3a4" d="M146 35l-48 6 36 8z"/><path fill="#d9c9aa" d="M209 2l29 36-19 8z"/><path fill="#998266" d="M79 106L-24 77l9 30z"/><path fill="#ecd9ba" d="M206 31l1-10-36 2z"/><path fill="#3b2c1a" d="M135 207l36-22 9 24z"/><path fill="#e3d1b0" d="M166 68l8-12h27z"/><path fill="#e7d5b7" d="M295-1l3 22-85-8z"/><path fill="#ebd8b9" d="M120 66l6-21-27 7z"/></svg>