<svg xmlns="http://www.w3.org/2000/svg" viewBox="0 0 400 200"><style>@keyframes a{from{opacity: 0}to{opacity: 1}}g&gt;*{opacity: 0;animation: a .5s forwards}</style><path fill="#9e8a6e" d="M0 0h400v200H0z"/><path fill="#ffffea" d="M424 53l-1-60-447 3L0 79z" style="animation-delay:0s"/><path fill="#281803" d="M406 224L0 213l-24-95 448 24z" style="animation-delay:.188s"/><path fill="#271c0e" d="M345 171L-4 205l397 19 24-51z" style="animation-delay:.376s"/><path fill="#846f52" d="M-20 100l444 31-16 26-432 5z" style="animation-delay:.562s"/><path fill="#f5dcb6" d="M-24 58l8-57 352-25-87 98z" style="animation-delay:.746s"/><path fill="#b19370" d="M326 44l68 13 30 53-221-30z" style="animation-delay:.927s"/><path fill="#9c8363" d="M-13 98l277 53-105-84-29-4z" style="animation-delay:1.104s"/><path fill="#fff1cf" d="M411-3l-14 36-35 16 62 15z" style="animation-delay:1.277s"/><path fill="#53412b" d="M267 180L-6 164l-17-5 3 54z" style="animation-delay:1.445s"/><path fill="#d0bea1" d="M95 49l123-69-11 71-67-2z" style="animation-delay:1.607s"/><path fill="#f5e3c2" d="M249 69l-40-93 72 38-98 55z" style="animation-delay:1.763s"/><path fill="#ac9473" d="M406 100l4-40-75-13-117 25z" style="animation-delay:1.912s"/><path fill="#7c6b4f" d="M424 172l-239-48 148 9 86-7z" style="animation-delay:2.054s"/><path fill="#735e45" d="M123 121l121 47-256-9 15-52z" style="animation-delay:2.187s"/><path fill="#f0dcbb" d="M122 23L-24-24 86 71l-110-4z" style="animation-delay:2.312s"/><path fill="#392c1b" d="M211 194l113-9 13-33 87 72z" style="animation-delay:2.427s"/><path fill="#ab926f" d="M-8 75l49-5 183 14-202 6z" style="animation-delay:2.533s"/><path fill="#dac3a2" d="M302-24l-52 70 95 2 79-35z" style="animation-delay:2.629s"/><path fill="#67533a" d="M199 194l202-50-194 14-37 39z" style="animation-delay:2.714s"/><path fill="#d2bfa2" d="M38 30l77 17-49-1-66-3z" style="animation-delay:2.789s"/><path fill="#a08868" d="M141 64L1 89l376 44-195-63z" style="animation-delay:2.853s"/><path fill="#827055" d="M388 141l-80-9-45-18-63 36z" style="animation-delay:2.906s"/><path fill="#eedab8" d="M297 52l-46-9L81 64h157z" style="animation-delay:2.947s"/><path fill="#f2e1c2" d="M98 19L-24-7l39 48 31-51z" style="animation-delay:2.976s"/><path fill="#ead4b4" d="M28 43l-48 10 81 24 79-18z" style="animation-delay:2.994s"/></svg>