<svg xmlns="http://www.w3.org/2000/svg" viewBox="0 0 400 200"><path fill="#9e8a6e" d="M0 0h400v200H0z"/><path fill="#ffffeb" d="M402 56L4 77-3-54l398-21z"/><path fill="#271703" d="M5 117l398 28-10 134-397-28z"/><path fill="#241a0b" d="M427 201L78 232l-3-35 349-30z"/><path fill="#887154" d="M398 159H0v-51h398z"/><path fill="#f7ddb7" d="M172-13l3 77-186 6-3-76z"/><path fill="#f7deb7" d="M172 16L274 0l9 60-102 16z"/><path fill="#b19470" d="M286 39l139 22-9 54-139-22z"/><path fill="#a28766" d="M127 63l73 9-7 51-72-9z"/><path fill="#ffecca" d="M404 8l16 10-25 41-16-9z"/><path fill="#e4cfae" d="M352 40L201 78l-24-94 152-38z"/><path fill="#a98e6c" d="M261 77l-2-17 100-14 3 17z"/><path fill="#d3c2a3" d="M122 50V3l99 2-1 47z"/><path fill="#503f29" d="M-21 164l235 16-4 55-235-17z"/><path fill="#6f5e43" d="M420 128l4 44-61 5-4-44z"/><path fill="#f7e7c8" d="M243-25l32 37-32 27-32-36z"/><path fill="#715e44" d="M-6 157l6-51 95 10-6 51z"/><path fill="#a48c6b" d="M191 112l3-42 198 13-3 43z"/><path fill="#807053" d="M382 131l-1 21-189-7 1-20z"/><path fill="#3a2d1c" d="M296 210l44-56 28 22-44 56z"/><path fill="#d7c2a3" d="M260 6l166-24 6 48-165 24z"/><path fill="#a48a68" d="M59 76l80-13 4 28-80 13z"/><path fill="#cbb187" d="M85 72v6L1 77v-7z"/><path fill="#f0e0c0" d="M93 13L-81 63l-10-34L83-21z"/><path fill="#b49c7b" d="M352 49l65 12-5 29-65-11z"/><path fill="#9d8667" d="M183 72l-7 62-61-7 8-62z"/><path fill="#55452c" d="M321 164l1 9-138 24-2-9z"/><path fill="#d0bd9f" d="M169 43l-1 8-198-11 1-8z"/><path fill="#f0debd" d="M249 44v24l-50-1V43z"/><path fill="#8e795a" d="M68 96l1 28-82 4-2-28z"/><path fill="#a48d6e" d="M479 73l4 48-166 14-5-48z"/><path fill="#705b41" d="M111 145l179 16-2 17-179-16z"/><path fill="#edd8b7" d="M166 50l45 2-1 19-45-3z"/><path fill="#a88e6e" d="M270 71l-2-9 57-16 2 9z"/><path fill="#eadabd" d="M258-15l44 7-6 34-43-7z"/><path fill="#ffedcf" d="M414 41l-40 12-2-8 40-12z"/><path fill="#ebd6b4" d="M97 47l5 20-41 9-5-19z"/><path fill="#67543b" d="M361 160l-110 6-1-15 110-6z"/><path fill="#837155" d="M293 146l-76 7-2-25 76-7z"/><path fill="#3c2f1d" d="M287 170h31v43h-31z"/><path fill="#a78e70" d="M132 68l79 3-1 22-78-3z"/><path fill="#9c8464" d="M-22 85l175 9-1 23-175-9z"/><path fill="#d1bd9e" d="M139 49l2-19 56 7-2 19z"/><path fill="#ccbc9d" d="M259 43l1-17 61 5-2 17z"/><path fill="#c7b699" d="M130 0l-1 6-57-5v-6z"/><path fill="#9d8567" d="M180 105l64-14 6 27-64 15z"/><path fill="#78664a" d="M131 120v13l-95-2v-12z"/><path fill="#ad9474" d="M349 47l3 15-127 27-3-15z"/><path fill="#6f5941" d="M-51 137l129-9 3 31-130 9z"/><path fill="#d5c1a2" d="M412-20l16 30-72 40-17-30z"/><path fill="#f2e2c0" d="M87 18l3-9 43 12-2 9z"/><path fill="#403121" d="M408 195l-11 26-76-34 12-25z"/><path fill="#392a1a" d="M98 197l162-5v9l-162 6z"/><path fill="#78664b" d="M423 154l-120-2v-17l121 2z"/><path fill="#ead7b7" d="M197 25l-3 9-58-20 3-9z"/><path fill="#f0dfbd" d="M235 37l41 15-3 10-41-15z"/><path fill="#735f45" d="M141 131l42-2 2 39-42 2z"/><path fill="#ebd8b9" d="M198 65H45V52h153z"/><path fill="#d4c5a7" d="M201 23l28-3 3 27-28 3z"/><path fill="#9c8567" d="M348 97l-5 34-99-14 5-34z"/><path fill="#f6e1bf" d="M410 48v4l-66-4 1-5z"/><path fill="#5f4d33" d="M174 190l6-24 32 8-6 24z"/><path fill="#604931" d="M140 95v-1l9-3v1z"/><path fill="#e7d8b8" d="M337 39h-14l-2-26 14-1z"/><path fill="#cdbc9e" d="M300 47l-11-9 68-83 11 8z"/><path fill="#ecd8b8" d="M7 43l67 5-1 23-67-5z"/><path fill="#a58d6d" d="M131 84l-30 3-2-17 30-3z"/><path fill="#5d4b31" d="M23 180l3-23 134 14-3 23z"/><path fill="#cab48d" d="M36 67l1 8-56 4-1-8z"/><path fill="#b29a78" d="M447 63l-3 17-120-17 2-17z"/><path fill="#cdbba0" d="M201 20L180 5l18-24 20 15z"/><path fill="#ead8b9" d="M36-10L98 9 87 43 26 24z"/><path fill="#a28969" d="M21 76l22-3 3 28-21 3z"/><path fill="#6d573d" d="M299 148l34 15-5 13-35-16z"/><path fill="#7b6b50" d="M50 110v12l-64 4v-12z"/><path fill="#ac9274" d="M444 119l-19 26-99-72 20-26z"/><path fill="#cbb795" d="M39 72l34 3-1 2-34-4z"/><path fill="#d8c6a7" d="M183 36l-2 6L50-6l2-6z"/><path fill="#eedebf" d="M157 13l-8-14 21-11 7 14z"/><path fill="#d3c1a1" d="M337 21l43-6 4 28-44 6z"/><path fill="#e3d1b2" d="M-9 74l-8-41 47-9 7 42z"/><path fill="#f0dbb9" d="M182 66v-1l53 5v1z"/><path fill="#887458" d="M230 135l-53-1v-8l54 1z"/><path fill="#a48c6b" d="M-15 87l166-21v2L-15 88z"/><path fill="#cfbe9e" d="M136 38l14-21 13 9-14 21z"/><path fill="#4f4029" d="M388 165l4 12-25 9-4-11z"/><path fill="#ecd9bb" d="M206 24l-1 8-28-4 1-8z"/><path fill="#d0bd9f" d="M58 38l40 11-1 5-41-11z"/><path fill="#402f16" d="M361 174l-4-18 2-1 4 19z"/><path fill="#392c1b" d="M260 186l55 3-2 24-54-4z"/><path fill="#f8e6c7" d="M220-4l39-3 1 12-39 4z"/><path fill="#fdeac7" d="M411 54v1l-45-7v-1z"/><path fill="#f5e1c2" d="M166 49v2l-62 4v-1z"/><path fill="#efdcba" d="M278 53v7l-26 1-1-6z"/><path fill="#e9d8b7" d="M287 53l-27 9-1-4 26-9z"/><path fill="#e4d1b1" d="M102 68l-31 7-5-23 30-7z"/><path fill="#a88e6f" d="M237 74l-1 11-62-4 1-11z"/><path fill="#3a2b19" d="M92 206l3-16 12 3-3 15z"/><path fill="#725e45" d="M203 173l-36-17 13-27 35 17z"/><path fill="#d1c1a0" d="M321 49l-1-8 14-1v8z"/><path fill="#a89072" d="M240 68l81-20 6 26-80 20z"/><path fill="#786549" d="M368 162l2-34 45 2-2 34z"/><path fill="#69553c" d="M305 164l-25 19-15-21 26-18z"/><path fill="#998166" d="M176 106l5 17-37 10-4-17z"/><path fill="#f2e1c1" d="M28 4v17l-48-1V3z"/><path fill="#d1bfa0" d="M68 40l-84 7v-1l84-8z"/><path fill="#f8e6c6" d="M416 56l-34-1V45l35 2z"/><path fill="#9b8465" d="M59 91l73 7-2 22-73-7z"/><path fill="#705b43" d="M133 135l1 25-153 3-1-25z"/><path fill="#d6c099" d="M23 65l43 7v2l-43-7z"/><path fill="#d6c3a9" d="M326-32L441-4l-9 38L317 5z"/><path fill="#f0ddbe" d="M63 48l-92 8-1-3 92-8z"/><path fill="#7f6e52" d="M357 145l-116-4 1-9 115 4z"/><path fill="#746046" d="M122 133l-2 22-128-9 2-21z"/><path fill="#9b8466" d="M107 106l50-21v1l-50 22z"/><path fill="#403321" d="M367 228l39-71 26 14-40 71z"/><path fill="#ead9bb" d="M194 32l-1-2 34-22v1z"/><path fill="#dccbab" d="M34 9l43 7v2l-43-7z"/><path fill="#e4d4b5" d="M252 2l43 19-5 10-43-20z"/><path fill="#ecdcbc" d="M343 29v8l-15 1-1-8z"/><path fill="#a28b6d" d="M426 136L269 88l6-19 157 48z"/><path fill="#715d44" d="M382 156l-2 21-1-1 2-20z"/><path fill="#cdbd9d" d="M352 33l-19-2 1-9 19 2z"/><path fill="#e2d0af" d="M161 63l54-7 1 5-55 6z"/><path fill="#dbcaae" d="M255 29l85-55 3 5-85 55z"/><path fill="#5c4b36" d="M185 182l-14 28h-1l14-28z"/><path fill="#453920" d="M342 156l-12 29-5-2 12-29z"/><path fill="#3e2f1d" d="M171 185l8 17-24 11-8-17z"/><path fill="#d3c2a3" d="M227 15l2 3-36 25-2-3z"/><path fill="#f0debc" d="M202 46l55 6-1 9-55-5z"/><path fill="#e2d0b0" d="M120 19l-1-14 47-1 1 14z"/><path fill="#5f4d33" d="M212 191L91 178l2-14 121 13z"/><path fill="#4d4028" d="M319 165l2 14-29 5-2-14z"/><path fill="#947f61" d="M345 137l-39-5 1-5 38 5z"/><path fill="#cfbda1" d="M168 19l22-24 3 3-21 25z"/><path fill="#fce9ce" d="M395 51l-6-5 14-20 7 5z"/><path fill="#ddccac" d="M105 26l20 5-4 14-19-6z"/><path fill="#67543a" d="M273 173l-32 5-3-22 32-4z"/><path fill="#f3e1c0" d="M238 17l18 10-8 14-18-10z"/><path fill="#6e5c43" d="M349 150l6-1 4 18-6 1z"/><path fill="#51412c" d="M165 186l1 3-95 8-1-3z"/><path fill="#7d6c4d" d="M223 143h46v9l-45 1z"/><path fill="#53412c" d="M89 209l-103-5 1-14 103 5z"/><path fill="#aa9170" d="M175 71l-2 11-40-7 2-11z"/><path fill="#a28b6b" d="M39 86l60-16 5 18-61 16z"/><path fill="#decaaf" d="M374 40l23-19 5 6-23 19z"/><path fill="#d7c4a2" d="M14 75L-6 59l3-4 20 16z"/><path fill="#d3c1a2" d="M178 40l33-8 3 14-33 8z"/><path fill="#e4d2b5" d="M322 23l-2-4 29-9 1 4z"/><path fill="#b59c7a" d="M360 55l2-6 42 17-2 6z"/><path fill="#715b42" d="M365 168l-5-14 20-8 6 14z"/><path fill="#52412b" d="M231 188v-1l42-11 1 2z"/><path fill="#cfbda1" d="M310 6l36-6 2 11-36 6z"/><path fill="#806f50" d="M83 120l-63 7-1-7 63-8z"/><path fill="#f2deb9" d="M65 68l25 2v1l-25-2z"/><path fill="#766047" d="M400 142l6 2-14 28-6-2z"/><path fill="#9d8568" d="M254 104l-2 19-110-10 1-19z"/><path fill="#d4c3a5" d="M297 28l-5 25-28-5 5-24z"/><path fill="#f1e0bf" d="M72 13l1-3 63 17-1 3z"/><path fill="#746145" d="M154 136l1-8 33 4-1 7z"/><path fill="#ddcbae" d="M339-9l9-8 27 27-9 9z"/><path fill="#d1bd99" d="M236 68l26-8v2l-25 8z"/><path fill="#423521" d="M330 168h32v13h-32z"/><path fill="#655637" d="M329 169l-6 10-4-3 6-9z"/><path fill="#e0cfaf" d="M100 22l-1 2-63-13 1-2z"/><path fill="#e6d5b5" d="M77 14l1-1 50 37-1 2z"/><path fill="#685439" d="M140 168l115-4 1 7-116 4z"/><path fill="#5c4a33" d="M109 184l-163 3v-19l162-3z"/><path fill="#af9876" d="M315 47l49 7-2 19-50-7z"/><path fill="#ebd8b6" d="M208 70v-8l14 1-1 8z"/><path fill="#63523b" d="M299 180l2-14h1l-1 14z"/><path fill="#ddc9a7" d="M67 60l43 9-1 1-42-9z"/><path fill="#f0dfc0" d="M270 12l3 3-16 13-3-4z"/><path fill="#968165" d="M150 132l-27-12 6-16 28 12z"/><path fill="#ad9775" d="M209 77l68-16v1l-68 16z"/><path fill="#8a7358" d="M265 121l-14 10-5-7 14-9z"/><path fill="#3c311d" d="M204 207l7-21 15 6-8 20z"/><path fill="#dfceaf" d="M41 21v13H30V21z"/><path fill="#dbcaab" d="M108 35L74 24l1-1 34 10z"/><path fill="#5d4c35" d="M143 198l11-20 1 1-10 19z"/><path fill="#d6c3a5" d="M40 36l2-5 57 16-2 5z"/><path fill="#6c5b44" d="M368 176l4-7 2 1-4 6z"/><path fill="#786348" d="M94 120l1-3 32 18-2 2z"/><path fill="#4f3f2a" d="M195 184l6 14-10 4-6-14z"/><path fill="#453520" d="M386 230h-1l-4-67h2z"/><path fill="#f0d9ad" d="M152 66v-1l29-1v1z"/><path fill="#7d6d51" d="M400 139l-45 5-1-10 45-4z"/><path fill="#d6c4a5" d="M298 48l65-5v1l-65 6z"/><path fill="#7c634a" d="M148 93l-1-2 6-4 1 1z"/><path fill="#e5d3b3" d="M45 68l1-14 42 1-1 14z"/><path fill="#d3c1a6" d="M374 30l15-57 20 5-15 57z"/><path fill="#f0dcbd" d="M178 62l-31-9 1-4 32 9z"/><path fill="#423523" d="M300 178l1-6 29 8-1 6z"/><path fill="#a38d6d" d="M130 64l11 24-13 6-11-25z"/><path fill="#725e44" d="M185 166l-1-12 45-6 1 12z"/><path fill="#a38c6d" d="M282 80l-1 17-131-7 1-17z"/><path fill="#3f2e19" d="M141 184l3 18h-2l-3-18z"/><path fill="#9f886a" d="M67 100l-1-12 78-8 1 12z"/><path fill="#816f54" d="M204 129l50 1v11l-50-1z"/><path fill="#604d34" d="M238 189l-15-3 3-14 15 3z"/><path fill="#6a573e" d="M311 173h-1l5-17 2 1z"/></svg>