<svg xmlns="http://www.w3.org/2000/svg" viewBox="0 0 400 200"><style>@keyframes a{from{opacity: 0}to{opacity: 1}}g&gt;*{opacity: 0;animation: a .5s forwards}</style><path fill="#9e8a6e" d="M0 0h400v200H0z"/><g transform="translate(1 1) scale(1.5625)"><ellipse fill="#ffffe9" rx="1" ry="1" transform="matrix(-1.5059 -29.126 245.66796 -12.70173 124 15)" style="animation-delay:0s"/><ellipse fill="#261602" rx="1" ry="1" transform="matrix(244.42471 15.58359 -2.81478 44.14916 137 127)" style="animation-delay:.188s"/><ellipse fill="#836d50" rx="1" ry="1" transform="matrix(-.42505 17.3921 -150.96242 -3.68944 115 87)" style="animation-delay:.376s"/><ellipse fill="#291d0e" rx="1" ry="1" transform="matrix(.6505 12.4124 -152.1174 7.97214 185 125)" style="animation-delay:.562s"/><ellipse fill="#f5dbb6" cx="61" cy="13" rx="132" ry="30" style="animation-delay:.746s"/><ellipse fill="#aa8d6b" rx="1" ry="1" transform="matrix(-47.85268 4.8607 -2.5328 -24.93493 207 55)" style="animation-delay:.927s"/><path fill="#9b8364" d="M152 101l109-35L87 40l-37 7z" style="animation-delay:1.104s"/><path fill="#fff8d5" d="M267 39l-30-6 26-22 8-9z" style="animation-delay:1.277s"/><ellipse fill="#725e44" cx="10" cy="86" rx="66" ry="18" style="animation-delay:1.445s"/><ellipse fill="#fae3bd" cx="140" cy="37" rx="24" ry="8" style="animation-delay:1.607s"/><path fill="#716146" d="M131 83h125v20H131z" style="animation-delay:1.763s"/><ellipse fill="#af9575" rx="1" ry="1" transform="rotate(-81 146 -111) scale(17.07922 55.75855)" style="animation-delay:1.912s"/><ellipse fill="#ccba9b" cx="109" cy="24" rx="35" ry="8" style="animation-delay:2.054s"/><ellipse fill="#55442c" cx="21" cy="116" rx="136" ry="12" style="animation-delay:2.187s"/><path fill="#3c2f1d" d="M226 105l45 31-161 4 110-41z" style="animation-delay:2.312s"/><ellipse fill="#f2e1c1" rx="1" ry="1" transform="matrix(-57.57609 -7.25455 1.60676 -12.75212 7 5)" style="animation-delay:2.427s"/><path fill="#f7e5c5" d="M178-1l-72-1 33 2 15 31z" style="animation-delay:2.533s"/><ellipse fill="#dac2a1" rx="1" ry="1" transform="matrix(1.7898 14.19607 -56.0135 7.062 220 15)" style="animation-delay:2.629s"/><ellipse fill="#d4bb8f" cx="23" cy="46" rx="27" ry="3" style="animation-delay:2.714s"/><path fill="#9e8666" d="M74 42h30v41H74z" style="animation-delay:2.789s"/><ellipse fill="#a58d6e" rx="1" ry="1" transform="matrix(-5.3772 -11.0249 37.11131 -18.1004 154 58)" style="animation-delay:2.853s"/><path fill="#c8b99e" d="M133 14l-25-3 3-25 25 3z" style="animation-delay:2.906s"/><ellipse fill="#685439" cx="145" cy="107" rx="66" ry="10" style="animation-delay:2.947s"/><ellipse fill="#867459" cx="175" cy="85" rx="50" ry="8" style="animation-delay:2.976s"/><path fill="#f0dcba" d="M177 38l-18 1-108-6 133-2z" style="animation-delay:2.994s"/></g></svg>