<svg xmlns="http://www.w3.org/2000/svg" viewBox="0 0 400 200"><style>@keyframes fadeIn{from{opacity: 0}to{opacity: 1}}g.animated&gt;*{opacity: 0;animation: fadeIn .5s forwards}</style><path fill="#9e8a6e" d="M0 0h400v200H0z"/><g class="animated"><path fill="#ffffec" d="M-3-53l398-21 7 129L4 76z" style="animation-delay:0s"/><path fill="#271602" d="M393 281L-4 253l9-136 398 28z" style="animation-delay:.19s"/><path fill="#877153" d="M395 163l-398-7v-52l399 7z" style="animation-delay:.38s"/><path fill="#251a0c" d="M75 196l339-30 3 36-339 30z" style="animation-delay:.56s"/><path fill="#f4dab3" d="M-109-17l378-13 4 98-378 14z" style="animation-delay:.75s"/><path fill="#b19470" d="M285 103l14-66 114 24-14 66z" style="animation-delay:.93s"/><path fill="#9d8361" d="M164 64l2 39-69 4-2-39z" style="animation-delay:1.1s"/><path fill="#a88e6d" d="M340 43l9 33-109 29-9-33z" style="animation-delay:1.28s"/><path fill="#fff4d1" d="M408 59l-35-8 5-18 35 8z" style="animation-delay:1.45s"/><path fill="#7a6b4f" d="M421 131v18H224v-19z" style="animation-delay:1.61s"/><path fill="#e2c9a6" d="M274 52l-5-75 84-6 5 75z" style="animation-delay:1.76s"/><path fill="#513f29" d="M-48 224l6-67 198 17-6 67z" style="animation-delay:1.91s"/><path fill="#ccba9c" d="M124 49V31h100v18z" style="animation-delay:2.05s"/><path fill="#f2e0be" d="M192 68V42l55 1v26z" style="animation-delay:2.19s"/><path fill="#f7e6c7" d="M215 7l46-36 26 33-46 36z" style="animation-delay:2.31s"/><path fill="#b09974" d="M-32 83V72l94-3v11z" style="animation-delay:2.43s"/><path fill="#715e44" d="M110 118l-3 51-147-10 4-51z" style="animation-delay:2.53s"/><path fill="#392d1b" d="M318 192l19-39 25 12-19 40z" style="animation-delay:2.63s"/><path fill="#f1e0c1" d="M-86 54l-9-49L88-27l9 49z" style="animation-delay:2.71s"/><path fill="#d9c2a1" d="M331-9l108-29 16 58-109 29z" style="animation-delay:2.79s"/><path fill="#9e8667" d="M217 77l-10 65-94-15 10-64z" style="animation-delay:2.85s"/><path fill="#756248" d="M125 168l1-41 163 3-1 41z" style="animation-delay:2.91s"/><path fill="#736045" d="M365 177l-7-42 48-7 6 41z" style="animation-delay:2.95s"/><path fill="#a08869" d="M204 83l181 19-3 29-182-19z" style="animation-delay:2.98s"/><path fill="#53432b" d="M320 170v10l-194 17-1-10z" style="animation-delay:2.99s"/></g></svg>