<svg xmlns="http://www.w3.org/2000/svg" viewBox="0 0 400 200"><style>@keyframes a{ from {opacity: 0} to {opacity: 1} } g > * { opacity: 0; animation: a .5s forwards; }</style><path fill="#544b47" d="M0 0h400v200H0z"/><g transform="translate(.8 .8) scale(1.5625)" fill-opacity=".5"><ellipse fill="#dbf3ff" cx="165" cy="62" rx="32" ry="25" style="animation-delay: 0.000s;"/><ellipse fill="#bfa98e" rx="1" ry="1" transform="rotate(-72.5 143.3 -25.6) scale(17.37204 78.68132)" style="animation-delay: 0.188s;"/><ellipse fill="#060a13" rx="1" ry="1" transform="rotate(-79.5 56 -30.1) scale(53.35907 26.66092)" style="animation-delay: 0.376s;"/><ellipse fill="#040000" rx="1" ry="1" transform="matrix(-6.41523 27.9861 -48.6567 -11.15353 15.3 117.5)" style="animation-delay: 0.562s;"/><ellipse fill="#2e221a" rx="1" ry="1" transform="rotate(172.7 115.3 45.2) scale(30.21683 139.46801)" style="animation-delay: 0.746s;"/><ellipse fill="#c2afa8" cx="158" cy="44" rx="24" ry="20" style="animation-delay: 0.927s;"/><path fill="#adaba0" d="M50 40L14 98 7 74z" style="animation-delay: 1.104s;"/><path fill="#b8c6c5" d="M4 62.7l-7-7.2 23-22.2 7 7.2z" style="animation-delay: 1.277s;"/><ellipse fill="#020701" rx="1" ry="1" transform="matrix(8.55631 8.82345 -25.65688 24.88008 157.8 3.6)" style="animation-delay: 1.445s;"/><path fill="#cfe3ec" d="M130 32l40 41-23 10z" style="animation-delay: 1.607s;"/><path fill="#7e99a4" d="M114.5 12.3L107.9 55l24.7-40.2 10-24z" style="animation-delay: 1.763s;"/><path fill="#bebeb4" d="M58 87l-13 1 25-31z" style="animation-delay: 1.912s;"/><path fill="#777a84" d="M182.6 37.7l25.2 27.8-25.2 23-37.2-52.8z" style="animation-delay: 2.054s;"/><ellipse fill="#a9a093" rx="1" ry="1" transform="matrix(1.2719 -4.7068 66.62458 18.00378 208.6 127.6)" style="animation-delay: 2.187s;"/><ellipse fill="#1d0100" rx="1" ry="1" transform="rotate(-138.4 118.3 2) scale(9.68575 27.79043)" style="animation-delay: 2.312s;"/><ellipse fill="#af5238" rx="1" ry="1" transform="matrix(14.02724 -13.40472 10.91338 11.4202 119.7 82)" style="animation-delay: 2.427s;"/><ellipse fill="#1d232c" rx="1" ry="1" transform="matrix(9.55003 22.20885 -45.86784 19.72363 0 19.8)" style="animation-delay: 2.533s;"/><path fill="#2e0900" d="M77 57.9l14 35.6 24-15-8-14.3z" style="animation-delay: 2.629s;"/><path fill="#110d0f" d="M74 49.4l7.2-26.7L101-16-14.1 134z" style="animation-delay: 2.714s;"/><path d="M246.4 103l-6.9 40 31.5-9.8-13.6-102z" style="animation-delay: 2.789s;"/><path fill="#97acb7" d="M244.8 81.5l4.9 1-10.5 54-4.9-1z" style="animation-delay: 2.853s;"/><ellipse fill="#14050c" rx="1" ry="1" transform="matrix(-17.2956 20.65298 -3.84567 -3.22051 18.9 57.4)" style="animation-delay: 2.906s;"/><path fill="#530b00" d="M117.5 45.5l8.5-6.9 14.5 17.9-8.5 6.9z" style="animation-delay: 2.947s;"/><ellipse fill="#33322a" rx="1" ry="1" transform="matrix(-19.32236 -2.04374 2.61823 -24.75375 197.7 26.6)" style="animation-delay: 2.976s;"/><path fill="#7d4817" d="M105 112.2l56 3 94.8 27.8-91.8-15.5z" style="animation-delay: 2.994s;"/></g></svg>