<svg xmlns="http://www.w3.org/2000/svg" viewBox="0 0 400 200"><style>
  @keyframes fadeIn {
    from {opacity: 0}
    to {opacity: 1}
  }
  g.animated > * {
    opacity: 0;
    animation: fadeIn .5s forwards;
  }</style><path fill="#544b47" d="M0 0h400v200H0z"/><g class="animated"><path fill="#d1e1ef" fill-opacity=".5" d="M260.2 35.2l60.5 69.6L257 160l-60.5-69.6z" style="animation-delay: 0.00s;"/><path fill="#c6b297" fill-opacity=".5" d="M264 223.1L86 175.4l10.9-40.7 178 47.7z" style="animation-delay: 0.19s;"/><path fill="#0a0c13" fill-opacity=".5" d="M65.6 119.5l8-151.4 87.3 4.6-7.9 151.4z" style="animation-delay: 0.38s;"/><path fill="#040000" fill-opacity=".5" d="M-52.2 193.5l21.5-70.3 134.5 41.1-21.5 70.3z" style="animation-delay: 0.56s;"/><path fill="#2d221a" fill-opacity=".5" d="M340.3 222.9l-38-215.4L430-15.1l38 215.5z" style="animation-delay: 0.75s;"/><path fill="#e3f7fc" fill-opacity=".5" d="M252.6 130.5l-39.6-9.1 11-47.2 39.5 9.1z" style="animation-delay: 0.93s;"/><path fill="#b7b5aa" fill-opacity=".5" d="M18.7 140.2L7.5 129.4l59.7-61.8 11.2 10.8z" style="animation-delay: 1.10s;"/><path fill="#afbfbf" fill-opacity=".5" d="M-37.7 111.9l85-66.4 7.6 9.8-85 66.4z" style="animation-delay: 1.28s;"/><path fill="#e4f3fd" fill-opacity=".5" d="M215.1 80l-14.7-27.6 11-5.8L226.2 74z" style="animation-delay: 1.45s;"/><path fill="#020600" fill-opacity=".5" d="M212.8.4l48.5.8-.7 37.5-48.4-.8z" style="animation-delay: 1.61s;"/><path fill="#482919" fill-opacity=".5" d="M238.4 172.3l5-40.3 79 9.7-4.9 40.3z" style="animation-delay: 1.76s;"/><path fill="#95acb3" fill-opacity=".5" d="M169.4 48.7l43.4-66.8 13.1 8.5-43.4 66.8z" style="animation-delay: 1.91s;"/><path fill="#983d28" fill-opacity=".5" d="M182.2 70.8l36.3 9.7-21 78.4-36.3-9.7z" style="animation-delay: 2.05s;"/><path fill="#e2edec" fill-opacity=".5" d="M107.4 98.7L78 139l-2.6-1.8 29.4-40.5z" style="animation-delay: 2.19s;"/><path fill="#95a7b0" fill-opacity=".5" d="M384 124.7l7.6 1.6-24 113-7.7-1.5z" style="animation-delay: 2.31s;"/><path fill="#d2e3eb" fill-opacity=".5" d="M267 178.8l72 20.7-1.3 4.5-72-20.7z" style="animation-delay: 2.43s;"/><path fill="#19202a" fill-opacity=".5" d="M-50 21.7l94-46 29.5 60.5L-20.6 82z" style="animation-delay: 2.53s;"/><path fill-opacity=".5" d="M397.7 200l-18.4-3.6L400.7 86l18.5 3.5z" style="animation-delay: 2.63s;"/><path fill="#240503" fill-opacity=".5" d="M341.4 83.8l23.2 23.2-60.7 60.8-23.2-23.2z" style="animation-delay: 2.71s;"/><path fill="#9a7768" fill-opacity=".5" d="M226.2 36l60.6 15-8.3 33.4L218 69.3z" style="animation-delay: 2.79s;"/><path fill="#42150c" fill-opacity=".5" d="M145.7 131l-12.1-20.1 72.3-43.5 12 20.1z" style="animation-delay: 2.85s;"/><path fill="#c17a57" fill-opacity=".5" d="M193 92.1l32 32-16.5 16.6-32-32z" style="animation-delay: 2.91s;"/><path fill="#8f5621" fill-opacity=".5" d="M98.4 156.9l3.7-13.6 191.7 51.4-3.7 13.6z" style="animation-delay: 2.95s;"/><path fill="#69726e" fill-opacity=".5" d="M352 62.7l48.2 13-6.8 25.6-48.3-13z" style="animation-delay: 2.98s;"/><path fill="#00050a" fill-opacity=".5" d="M53 55.8l11.5 14.7L36 92.7 24.6 77.9z" style="animation-delay: 2.99s;"/></g></svg>