<svg xmlns="http://www.w3.org/2000/svg" viewBox="0 0 400 200"><style>@keyframes fade { from {opacity: 0} to {opacity: 1} } ellipse, path { opacity: 0; animation: fade .5s forwards; }</style><path fill="#544b47" d="M0 0h400v200H0z"/><g fill-opacity=".5"><path fill="#c5c7ca" d="M327.3 99.2l-181.2 125L243 30.5z" style="animation-delay: 0.00s;"/><path fill="#b7a389" d="M55.5 122.7L424.2 218l-268.7 6.2z" style="animation-delay: 0.19s;"/><path fill="#121119" d="M157-16.4l4.7 167.2L-11.7-2.3z" style="animation-delay: 0.38s;"/><path fill="#d8eff9" d="M200.8 41.4l29.7 90.6 46.8-15.6z" style="animation-delay: 0.56s;"/><path fill="#040000" d="M49.2 125.8l79.7 98.4-153.1-32.8z" style="animation-delay: 0.75s;"/><path fill="#321e13" d="M274.2 174.2L397.7-24.2l26.5 243.7z" style="animation-delay: 0.93s;"/><path fill="#67311f" d="M129 66.4l231.2 131.3-200-48.5z" style="animation-delay: 1.10s;"/><path fill="#babdb4" d="M19.5 110.2l4.7 34.3L83.6 57z" style="animation-delay: 1.28s;"/><path fill="#0d0d03" d="M194.5 50.8l29.7-53.1 107.8 14z" style="animation-delay: 1.45s;"/><path fill="#bfcfd0" d="M57 46l-81.2 39.2L5.5 97.7z" style="animation-delay: 1.61s;"/><path fill="#8fabb8" d="M230.5-24.2l-56.3 54.7 1.6 40.6z" style="animation-delay: 1.76s;"/><path fill="#020509" d="M32 144.5L152.3-24.2 114.8 83.6z" style="animation-delay: 1.91s;"/><path fill="#7e7f7a" d="M397.7 71l-22 142.3-10.9-78.1z" style="animation-delay: 2.05s;"/><path fill="#22221a" d="M339.8-2.3l84.4 79.6L268 43z" style="animation-delay: 2.19s;"/><path d="M379 202.3l25-150 20.2 145.4z" style="animation-delay: 2.31s;"/><path fill="#b09e96" d="M258.6 36.7l32.8 21.9-93.7-7.8z" style="animation-delay: 2.43s;"/><path fill="#824915" d="M221 169.5h-68.7l122 32.8z" style="animation-delay: 2.53s;"/><path fill="#c3d9e2" d="M274.2 72.7l-37.5 62.5-32.8-34.4z" style="animation-delay: 2.63s;"/><path fill="#0d040d" d="M-7 132l81.2-75L32 69.5z" style="animation-delay: 2.71s;"/><path fill="#1b070a" d="M347.7 85.2l15.6 37.5-90.6-64.1z" style="animation-delay: 2.79s;"/><path fill="#4c0f04" d="M191.4 41.4l28.1 46.9-37.5 14z" style="animation-delay: 2.85s;"/><path fill="#b95e47" d="M166.4 158.6l50-31.3-31.2-43.7z" style="animation-delay: 2.91s;"/><path fill="#290d00" d="M363.3 200.8l-39-21.9 56.2-40.6z" style="animation-delay: 2.95s;"/><path fill="#70756c" d="M424.2 75.8l-50 12.5L314.8 57z" style="animation-delay: 2.98s;"/><path fill="#776b58" d="M124.2 8.6l-4.7-28.1-96.8 43.7z" style="animation-delay: 2.99s;"/></g></svg>