<svg xmlns="http://www.w3.org/2000/svg" viewBox="0 0 400 200"><style>
  @keyframes fadeIn {
    from {opacity: 0}
    to {opacity: 1}
  }
  g.animated > * {
    opacity: 0;
    animation: fadeIn .5s forwards;
  }</style><path fill="#544b47" d="M0 0h400v200H0z"/><g fill-opacity=".5" class="animated"><path fill="#dce4ec" d="M208.6 49.2h86v81.3h-86z" style="animation-delay: 0.00s;"/><path fill="#b29e8b" d="M105.5 143h136v57.8h-136z" style="animation-delay: 0.19s;"/><path fill="#0d0e14" d="M68 .8h90.6v121.9H68z" style="animation-delay: 0.38s;"/><path d="M.8 150.8h84.4v50H.8z" style="animation-delay: 0.56s;"/><path fill="#302219" d="M314.8.8h86V193h-86z" style="animation-delay: 0.75s;"/><path fill="#acc2d2" d="M218 83.6h100v39H218z" style="animation-delay: 0.93s;"/><path fill="#403a32" d="M222.7.8h132.8v71.9H222.7z" style="animation-delay: 1.10s;"/><path fill="#afaaa9" d="M230.5 39.8h50v100h-50z" style="animation-delay: 1.28s;"/><path fill="#a1866a" d="M160.2 174.2h167.1v26.6H160.2z" style="animation-delay: 1.45s;"/><path fill="#8d422f" d="M175.8 71h39v87.6h-39z" style="animation-delay: 1.61s;"/><path fill="#bac7c8" d="M.8 69.5h23.4V93H.8z" style="animation-delay: 1.76s;"/><path fill="#aba49a" d="M18 97.7h25v37.5H18z" style="animation-delay: 1.91s;"/><path fill="#7c9cb6" d="M174.2 19.5h15.6V82h-15.6z" style="animation-delay: 2.05s;"/><path fill="#000300" d="M213.3.8H246v39h-32.8z" style="animation-delay: 2.19s;"/><path fill="#938772" d="M74.2 107h28.1v50h-28z" style="animation-delay: 2.31s;"/><path d="M388.3 110.2h12.5v90.6h-12.5z" style="animation-delay: 2.43s;"/><path fill="#472215" d="M297.7 114.8h67.1v73.5h-67.1z" style="animation-delay: 2.53s;"/><path fill="#5f7588" d="M271 75.8h29.8v54.7H271z" style="animation-delay: 2.63s;"/><path fill="#787874" d="M374.2 71h12.5v114.2h-12.5z" style="animation-delay: 2.71s;"/><path fill="#d3e8ee" d="M221 75.8h31.3v50h-31.2z" style="animation-delay: 2.79s;"/><path fill="#b1b5b1" d="M191.4.8h23.4V21h-23.4z" style="animation-delay: 2.85s;"/><path fill="#59180e" d="M141.4 91.4h36v57.8h-36z" style="animation-delay: 2.91s;"/><path fill="#20232c" d="M.8.8h65.6V46H.8z" style="animation-delay: 2.95s;"/><path fill="#000906" d="M52.3 188.3h70.4v12.5H52.3z" style="animation-delay: 2.98s;"/><path fill="#b5b1a1" d="M39.8 88.3h18.8v20.3H39.8z" style="animation-delay: 2.99s;"/></g></svg>