<svg xmlns="http://www.w3.org/2000/svg" viewBox="0 0 400 200"><style>@keyframes fade { from {opacity: 0} to {opacity: 1} } ellipse, path { opacity: 0; animation: fade .5s forwards; }</style><path fill="#909b99" d="M0 0h400v200H0z" style="animation-delay: 0.00s;"/><path fill="#00242d" fill-opacity=".5" d="M163.3 161.7L-9 66.2 3.9 43l172.2 95.5z" style="animation-delay: 0.18s;"/><path fill="#fff" fill-opacity=".5" d="M139.6 150.4l-13.3 24.8-139.3-74L.2 76.3z" style="animation-delay: 0.36s;"/><path fill="#fffbe6" fill-opacity=".5" d="M293.3 216l-308-200L-1-5l308 200z" style="animation-delay: 0.54s;"/><path fill="#86e0ff" fill-opacity=".5" d="M438 10.6L268 112.8 194.7-9l170.1-102.2z" style="animation-delay: 0.72s;"/><path fill="#00303b" fill-opacity=".5" d="M-31 152.5l15.8-34 172.8 80.6-15.9 34z" style="animation-delay: 0.89s;"/><path fill="#00353b" fill-opacity=".5" d="M198 120L46.7 25.6l10-15.9 151 94.4z" style="animation-delay: 1.06s;"/><path fill="#0a0000" fill-opacity=".5" d="M307 189.4L414.3 146l5.2 13-107.2 43.4z" style="animation-delay: 1.23s;"/><path fill="#fff" fill-opacity=".5" d="M87.4-5l133 93.2-6.2 9L81.1 4z" style="animation-delay: 1.39s;"/><path fill="#feffff" fill-opacity=".5" d="M156.8-14l127.3 95.9-11.3 15L145.6.9z" style="animation-delay: 1.55s;"/><path fill="#64554d" fill-opacity=".5" d="M134 207.6L120 178l160.1-74.6L294 133z" style="animation-delay: 1.70s;"/><path fill="#fff" fill-opacity=".5" d="M-33.3 197.3l12.3-32L72.4 201 60 233z" style="animation-delay: 1.85s;"/><path fill="#7f6358" fill-opacity=".5" d="M294.1 163.4l-23.5-52.8 155.6-69.3 23.5 52.8z" style="animation-delay: 1.99s;"/><path fill="#fffef7" fill-opacity=".5" d="M230.8 209.9l1-56.3 32.8.6-1 56.2z" style="animation-delay: 2.12s;"/><path fill="#0c2522" fill-opacity=".5" d="M263 117.4L29.8-58.4l5.7-7.5L268.7 110z" style="animation-delay: 2.25s;"/><path fill="#fff" fill-opacity=".5" d="M204.5 89.6l5.4-7.7 65.3 45.7-5.4 7.7z" style="animation-delay: 2.36s;"/><path fill="#00313a" fill-opacity=".5" d="M172.4 102.4l8.5-13.1 82.6 53.6L255 156z" style="animation-delay: 2.47s;"/><path fill="#996d41" fill-opacity=".5" d="M155.5 116l-11.2 18.7L-25.8 32.5l11.2-18.8z" style="animation-delay: 2.57s;"/><path fill="#0f0400" fill-opacity=".5" d="M309.3 150.1l93.5-43.5 2 4.2-93.5 43.6z" style="animation-delay: 2.66s;"/><path fill="#fff" fill-opacity=".5" d="M77.6 54.6l170.5 98.5-5.4 9.4L72.2 64.1z" style="animation-delay: 2.74s;"/><path fill="#170000" fill-opacity=".5" d="M29.3 62l-8.5 23.6L-2.7 77l8.5-23.5z" style="animation-delay: 2.81s;"/><path fill="#fffff9" fill-opacity=".5" d="M437.4 157.6l2.6 7.3-157 57.2-2.7-7.3z" style="animation-delay: 2.86s;"/><path fill="#0093bb" fill-opacity=".5" d="M104.7 62.5l5-8 115.3 72-5 8z" style="animation-delay: 2.91s;"/><path fill="#007b9f" fill-opacity=".5" d="M36.7 76.6l138 73.4-6.7 12.4L30 89.1z" style="animation-delay: 2.95s;"/><path fill="#fff6ee" fill-opacity=".5" d="M65.7 142.8l9.6-21.4 70 31.1-9.6 21.4z" style="animation-delay: 2.98s;"/><path fill="#675a4f" fill-opacity=".5" d="M117.1 225.3l-19.1-41 70.8-33 19.1 41z" style="animation-delay: 2.99s;"/></svg>