<svg xmlns="http://www.w3.org/2000/svg" viewBox="0 0 400 200"><style>@keyframes fade { from {opacity: 0} to {opacity: 1} } ellipse, path { opacity: 0; animation: fade .5s forwards; }</style><path fill="#909b99" d="M0 0h400v200H0z"/><g transform="translate(.8 .8) scale(1.5625)" fill-opacity=".5"><ellipse fill="#91e3ff" cx="183" rx="74" ry="52" style="animation-delay: 0.00s;"/><ellipse fill="#003438" rx="1" ry="1" transform="rotate(-152.2 31.8 25.1) scale(79.55869 10.62959)" style="animation-delay: 0.19s;"/><ellipse fill="#fff" rx="1" ry="1" transform="matrix(-49.76807 -25.59427 4.79324 -9.32045 38.2 78.8)" style="animation-delay: 0.38s;"/><ellipse fill="#fff" rx="1" ry="1" transform="rotate(-129.8 114.8 22.9) scale(34.23845 16.18895)" style="animation-delay: 0.56s;"/><ellipse fill="#fff" rx="1" ry="1" transform="matrix(79.37476 48.06379 -2.81326 4.64595 56.8 41.2)" style="animation-delay: 0.75s;"/><path fill="#0b353b" d="M-12.8 103.6l9.7-24 116 46.8-9.8 24z" style="animation-delay: 0.93s;"/><path fill="#2a0e00" d="M264 94.2l7 7.4-66.8 25.2-19-7.8z" style="animation-delay: 1.10s;"/><ellipse fill="#244646" rx="1" ry="1" transform="matrix(132.41785 85.66495 -3.6492 5.64081 79.1 39.4)" style="animation-delay: 1.28s;"/><path fill="#fff6d9" d="M141.7 58.2l-7.2 9.6-98.2-74 7.2-9.6z" style="animation-delay: 1.45s;"/><ellipse fill="#8f7369" rx="1" ry="1" transform="matrix(55.36545 -30.34436 14.73523 26.88548 222.8 75.5)" style="animation-delay: 1.61s;"/><ellipse fill="#1f342f" rx="1" ry="1" transform="matrix(-2.74272 4.1438 -36.87489 -24.40696 111.4 28.7)" style="animation-delay: 1.76s;"/><path fill="#fff" d="M83 143l-89-3-10-37z" style="animation-delay: 1.91s;"/><path fill="#614a3e" d="M107.1 95.8l12.6 22.7L77 142.2l-12.6-22.7z" style="animation-delay: 2.05s;"/><ellipse fill="#ffd5b5" rx="1" ry="1" transform="matrix(-58.19537 -42.0899 4.14999 -5.73796 127.7 26.3)" style="animation-delay: 2.19s;"/><ellipse fill="#d8e9f2" rx="1" ry="1" transform="rotate(162.8 6.5 1.2) scale(20.39056 16.17967)" style="animation-delay: 2.31s;"/><path fill="#000803" d="M144.1 49.7l36 25.3-2.2 3.3-36-25.3z" style="animation-delay: 2.43s;"/><ellipse fill="#201502" rx="1" ry="1" transform="rotate(66.8 52.4 216) scale(2.33318 59.50472)" style="animation-delay: 2.53s;"/><path fill="#fff" d="M156.6 76L27.7-16l101.8 62 47.2 37z" style="animation-delay: 2.63s;"/><path fill="#fffffd" d="M198.8 130.5l-14 12.5 74.9-29.9-4-3.6z" style="animation-delay: 2.71s;"/><ellipse fill="#fffff1" rx="1" ry="1" transform="matrix(-2.1417 4.06538 -36.04472 -18.98883 115.7 77.8)" style="animation-delay: 2.79s;"/><path fill="#dccdc3" d="M252 75l-106 49 28 17z" style="animation-delay: 2.85s;"/><path fill="#ffb76b" d="M39.3 45.7l2.6-4.3 54.8 33-2.6 4.2z" style="animation-delay: 2.91s;"/><path fill="#feebdb" d="M-16 40.8L92.6 97.2l2.2 4.7-26.3 12.9z" style="animation-delay: 2.95s;"/><ellipse fill="#e1a365" rx="1" ry="1" transform="matrix(2.20227 -4.68006 37.66938 17.72586 38.7 92.8)" style="animation-delay: 2.98s;"/><path fill="#240000" d="M11 54l-27-19 36 1z" style="animation-delay: 2.99s;"/></g></svg>