<svg xmlns="http://www.w3.org/2000/svg" viewBox="0 0 400 200"><style>
  @keyframes fadeIn {
    from {opacity: 0}
    to {opacity: 1}
  }
  g.animated > * {
    opacity: 0;
    animation: fadeIn .5s forwards;
  }</style><path fill="#cecec9" d="M0 0h400v200H0z"/><g transform="translate(.8 .8) scale(1.5625)" fill-opacity=".5" class="animated"><ellipse cx="218" cy="127" rx="38" ry="38" style="animation-delay: 0.00s;"/><ellipse cx="24" cy="127" rx="24" ry="24" style="animation-delay: 0.19s;"/><ellipse fill="#fff" cx="212" cy="54" rx="53" ry="53" style="animation-delay: 0.38s;"/><ellipse fill="#030000" cx="177" cy="127" rx="24" ry="24" style="animation-delay: 0.56s;"/><ellipse fill="#fff" cx="19" cy="56" rx="57" ry="57" style="animation-delay: 0.75s;"/><ellipse fill="#958065" cx="109" cy="64" rx="36" ry="36" style="animation-delay: 0.93s;"/><ellipse cx="235" cy="127" rx="25" ry="25" style="animation-delay: 1.10s;"/><ellipse fill="#fff" cx="86" cy="6" rx="37" ry="37" style="animation-delay: 1.28s;"/><ellipse fill="#fff" cx="196" rx="72" ry="72" style="animation-delay: 1.45s;"/><ellipse fill="#080000" cx="193" cy="127" rx="23" ry="23" style="animation-delay: 1.61s;"/><ellipse cx="12" cy="127" rx="17" ry="17" style="animation-delay: 1.76s;"/><ellipse fill="#543101" cx="80" cy="61" rx="11" ry="11" style="animation-delay: 1.91s;"/><ellipse fill="#090400" cx="38" cy="123" rx="13" ry="13" style="animation-delay: 2.05s;"/><ellipse fill="#a18454" cx="158" cy="114" rx="15" ry="15" style="animation-delay: 2.19s;"/><ellipse fill="#fbffff" cx="48" cy="13" rx="48" ry="48" style="animation-delay: 2.31s;"/><ellipse fill="#e8f0ef" cx="232" cy="72" rx="34" ry="34" style="animation-delay: 2.43s;"/><ellipse fill="#130e00" cx="243" cy="127" rx="24" ry="24" style="animation-delay: 2.53s;"/><ellipse fill="#fff" cx="102" cy="58" rx="9" ry="9" style="animation-delay: 2.63s;"/><ellipse fill="#784730" cx="119" cy="36" rx="9" ry="9" style="animation-delay: 2.71s;"/><ellipse fill="#e1eae7" cx="185" cy="83" rx="25" ry="25" style="animation-delay: 2.79s;"/><ellipse fill="#5e421a" cx="92" cy="75" rx="8" ry="8" style="animation-delay: 2.85s;"/><ellipse fill="#1d1700" cx="212" cy="127" rx="23" ry="23" style="animation-delay: 2.91s;"/><ellipse fill="#c4c6bd" cx="129" cy="98" rx="25" ry="25" style="animation-delay: 2.95s;"/><ellipse fill="#feffff" cx="146" rx="34" ry="34" style="animation-delay: 2.98s;"/><ellipse fill="#e3eae6" cx="72" cy="96" rx="22" ry="22" style="animation-delay: 2.99s;"/></g></svg>