<svg xmlns="http://www.w3.org/2000/svg" viewBox="0 0 400 200"><style>@keyframes a{ from {opacity: 0} to {opacity: 1} } g > * { opacity: 0; animation: a .5s forwards; }</style><path fill="#cecec9" d="M0 0h400v200H0z"/><g fill-opacity=".5"><path d="M236.7 164.8h164v36h-164zM.8 175.8h76.5v25H.8z" style="animation-delay: 0.000s;"/><path d="M266.4 168h134.4v32.8H266.4z" style="animation-delay: 0.205s;"/><path fill="#97836a" d="M118 55.5h107.8V146H118z" style="animation-delay: 0.408s;"/><path fill="#fff" d="M.8.8h400v93.7H.8z" style="animation-delay: 0.610s;"/><path fill="#9e8e79" d="M113.3 49.2h114v73.5h-114z" style="animation-delay: 0.809s;"/><path d="M.8 179h75v21.8H.8z" style="animation-delay: 1.005s;"/><path fill="#fbffff" d="M.8.8h114V168H.8z" style="animation-delay: 1.195s;"/><path fill="#faffff" d="M254 .8h146.8v150H253.9z" style="animation-delay: 1.380s;"/><path fill="#4d2a00" d="M110.2 85.2h29.6v25h-29.6z" style="animation-delay: 1.559s;"/><path fill="#c2a576" d="M230.5 135.2h34.3v65.6h-34.3z" style="animation-delay: 1.730s;"/><path fill="#632c10" d="M175.8 44.5h21.9v22h-22z" style="animation-delay: 1.893s;"/><path fill="#fff" d="M113.3.8H146v75h-32.8zm35.9 76.5h21.9v31.3h-21.9z" style="animation-delay: 2.048s;"/><path fill="#170f00" d="M269.5 172.7h131.3v28H269.5z" style="animation-delay: 2.193s;"/><path fill="#7e6b4a" d="M147.7 114.8H168v45.4h-20.3z" style="animation-delay: 2.327s;"/><path fill="#e0e6e1" d="M96 116.4h37.6v84.4H96z" style="animation-delay: 2.451s;"/><path fill="#fafeff" d="M114.8.8h68.8v53.1h-68.8z" style="animation-delay: 2.563s;"/><path fill="#482800" d="M135.2 118h18.7v12.5h-18.7z" style="animation-delay: 2.664s;"/><path fill="#7c5a19" d="M149.2 57h36v11h-36z" style="animation-delay: 2.752s;"/><path fill="#c3c4be" d="M174.2 108.6h40.6v92.2h-40.6z" style="animation-delay: 2.827s;"/><path fill="#f1f5f5" d="M229 .8h171.8V118H228.9z" style="animation-delay: 2.889s;"/><path fill="#d8e5e6" d="M260.2 135.2h40.6v34.3h-40.6z" style="animation-delay: 2.937s;"/><path fill="#1e1e0b" d="M357 161.7h28.2v39H357z" style="animation-delay: 2.972s;"/><path fill="#eff5f7" d="M.8 100.8H118v29.7H.8z" style="animation-delay: 2.993s;"/></g></svg>