<svg xmlns="http://www.w3.org/2000/svg" viewBox="0 0 400 200"><style>@keyframes fade { from {opacity: 0} to {opacity: 1} } ellipse, path { opacity: 0; animation: fade .5s forwards; }</style><path fill="#cecec9" d="M0 0h400v200H0z"/><g fill-opacity=".5"><path d="M424.2 157l-229.7 18.8 189 48.4zM63.3 224.2L82 171.1l-106.2 11z" style="animation-delay: 0.00s;"/><path fill="#fff" d="M400.8 164.8L424.2-.8-24.2.8z" style="animation-delay: 0.20s;"/><path fill="#988368" d="M100.8 96l178.1 128.2-70.3-193.7z" style="animation-delay: 0.39s;"/><path d="M346 224.2l-101.5-59.4 179.7 1.6z" style="animation-delay: 0.59s;"/><path fill="#fff" d="M24.2 179L214.8-24.3-24.2 7z" style="animation-delay: 0.78s;"/><path d="M-5.5 171L82 188.4l-71.8 36z" style="animation-delay: 0.96s;"/><path fill="#684c26" d="M172.7 118L107 80.5l50 84.3z" style="animation-delay: 1.15s;"/><path fill="#d5d8d0" d="M355.5 135.2l-229.7 89 64-128.1z" style="animation-delay: 1.33s;"/><path fill="#0e0500" d="M264.8 168l9.4 56.2 150-31.2z" style="animation-delay: 1.50s;"/><path fill="#f0f7f9" d="M-8.6-24.2L157 147.7l-181.2 32.8z" style="animation-delay: 1.67s;"/><path fill="#f8fdff" d="M280.5 160.2L424.2 8.6 169.5-24.2z" style="animation-delay: 1.83s;"/><path fill="#714116" d="M188.3 71L146 57l56.2-14z" style="animation-delay: 1.98s;"/><path fill="#faffff" d="M143 88.3l37.5-26.6-18.8 61z" style="animation-delay: 2.12s;"/><path fill="#a48355" d="M219.5 221l50-12.4-17.2-79.7z" style="animation-delay: 2.26s;"/><path fill="#59380d" d="M146 85.2l-21.8 29.6-15.6-28z" style="animation-delay: 2.38s;"/><path fill="#90786b" d="M196 133.6l34.5-61-17.2-23.4z" style="animation-delay: 2.49s;"/><path fill="#1b1700" d="M75.8 172.7L74.2 218l-90.6-25z" style="animation-delay: 2.60s;"/><path fill="#7a6c60" d="M225.8 97.7l-12.5 62.5-4.7-28.2z" style="animation-delay: 2.69s;"/><path fill="#cfd1c9" d="M54 166.4l164 57.8 18.7-54.7z" style="animation-delay: 2.77s;"/><path fill="#775a14" d="M147.7 79L171 63.2l-18.8-11z" style="animation-delay: 2.84s;"/><path fill="#262108" d="M238.3 224.2l65.6-64 120.3 26.5z" style="animation-delay: 2.90s;"/><path fill="#f6fafc" d="M57-14.8l109.4 75 75-84.4z" style="animation-delay: 2.94s;"/><path fill="#897862" d="M149.2 175.8l9.4-65.6 31.2-22z" style="animation-delay: 2.97s;"/><path fill="#f6f8f9" d="M205.5 66.4l46.8-90.6-67.1 18.7z" style="animation-delay: 2.99s;"/></g></svg>