<svg xmlns="http://www.w3.org/2000/svg" viewBox="0 0 400 200"><style>
  @keyframes fadeIn {
    from {opacity: 0}
    to {opacity: 1}
  }
  g.animated > * {
    opacity: 0;
    animation: fadeIn .5s forwards;
  }</style><path fill="#51564e" d="M0 0h400v200H0z"/><g fill-opacity=".5" class="animated"><path fill="#a59e8c" d="M246 16.4h100v148.4H246z" style="animation-delay: 0.00s;"/><path fill="#fff" d="M86.7 77.3h34.4v22H86.7z" style="animation-delay: 0.19s;"/><path fill="#15120b" d="M360.2.8h40.6v200h-40.6z" style="animation-delay: 0.38s;"/><path fill="#172018" d="M.8 14.8h73.4v126.6H.8z" style="animation-delay: 0.56s;"/><path fill="#bfd3d1" d="M289.8 75.8h57.9v50h-57.9z" style="animation-delay: 0.75s;"/><path fill="#150f07" d="M294.5 11.7h28.2v61h-28.2z" style="animation-delay: 0.93s;"/><path fill="#4e3611" d="M300.8 139.8h59.4v61h-59.4z" style="animation-delay: 1.10s;"/><path fill="#a6a8a0" d="M100.8 60.2h28.1v62.5h-28.1z" style="animation-delay: 1.28s;"/><path fill="#1f281e" d="M.8 163.3h79.7v37.5H.8z" style="animation-delay: 1.45s;"/><path fill="#9ea19d" d="M243 .8h48.4v37.5H243z" style="animation-delay: 1.61s;"/><path fill="#c0c5c3" d="M43 150.8h15.6v26.5H43z" style="animation-delay: 1.76s;"/><path fill="#968e7d" d="M254 118h42v82.8h-42z" style="animation-delay: 1.91s;"/><path fill="#b5b9b0" d="M66.4.8h29.7V18H66.4z" style="animation-delay: 2.05s;"/><path fill="#fff" d="M291.4 116.4H332v9.4h-40.6z" style="animation-delay: 2.19s;"/><path fill="#62563e" d="M335.2 100.8h65.6v36h-65.6z" style="animation-delay: 2.31s;"/><path fill="#394035" d="M116.4 83.6H168v117.2h-51.6z" style="animation-delay: 2.43s;"/><path fill="#232a1c" d="M50.8 21h57.8v42.3H50.8z" style="animation-delay: 2.53s;"/><path fill="#1f2114" d="M274.2 72.7h11v37.5h-11z" style="animation-delay: 2.63s;"/><path fill="#a39f8f" d="M141.4 7h20.3v28.2h-20.3z" style="animation-delay: 2.71s;"/><path fill="#2b3428" d="M77.3 132h43.8v56.3H77.3z" style="animation-delay: 2.79s;"/><path fill="#405763" d="M163.3.8h86v200h-86z" style="animation-delay: 2.85s;"/><path fill="#cdcec7" d="M114.8 68h23.5v14h-23.5z" style="animation-delay: 2.91s;"/><path fill="#635f54" d="M313.3 5.5H368v68.7h-54.7z" style="animation-delay: 2.95s;"/><path fill="#7b867c" d="M239.8 93h118.8v20.3H239.8z" style="animation-delay: 2.98s;"/><path fill="#23281e" d="M304 .8h34.3v23.4h-34.4z" style="animation-delay: 2.99s;"/></g></svg>