<svg xmlns="http://www.w3.org/2000/svg" viewBox="0 0 400 200"><style>
  @keyframes fadeIn {
    from {opacity: 0}
    to {opacity: 1}
  }
  g.animated > * {
    opacity: 0;
    animation: fadeIn .5s forwards;
  }</style><path fill="#51564e" d="M0 0h400v200H0z"/><g fill-opacity=".5" class="animated"><path fill="#aeaa9b" d="M293 169.8l70-73.1-116-121v196.8z" style="animation-delay: 0.00s;"/><path fill="#ecede9" d="M112 123.4L77 84.1l60-15.7-21.5 20.8z" style="animation-delay: 0.19s;"/><path fill="#161309" d="M374-24.2l50.2 28.7v185.6L340 224.2z" style="animation-delay: 0.38s;"/><path fill="#151e15" d="M118.4 25.5L38.8 11.4-18.4 46l9.2 136z" style="animation-delay: 0.56s;"/><path fill="#c4d5d1" d="M333.3 123.5l11.3-45.1-41.8-2.4-18 61.8z" style="animation-delay: 0.75s;"/><path fill="#1c160c" d="M318.2 72.3l-44.3-.1 5.9 47.5 24.9-132.5z" style="animation-delay: 0.93s;"/><path fill="#2e3528" d="M93.4 224.2H4.6l-8-29.3 183-101.8z" style="animation-delay: 1.10s;"/><path fill="#9b978d" d="M352.5 49.1l8.6-45.6-22.8 6.7-15.7 47.5z" style="animation-delay: 1.28s;"/><path fill="#989f9b" d="M55.3 185.7l-1.5-7.9-46-32.6 52.1 5.6z" style="animation-delay: 1.45s;"/><path fill="#7e6a4a" d="M295.5 205.2l-82.6 19 139-118.4L424.2 88z" style="animation-delay: 1.61s;"/><path fill="#a4a89d" d="M88.4 23.3l68.8-39.8-98.6-7.7 9.2 33.5z" style="animation-delay: 1.76s;"/><path fill="#9c9d94" d="M107 73l-10.9 91.2L147.5 9.7l22.7 2.9z" style="animation-delay: 1.91s;"/><path fill="#fffffc" d="M338.7 118.2l-9.6 8-37.6-2.5 2.7-10z" style="animation-delay: 2.05s;"/><path fill="#161d17" d="M100 106.9l-124.2 22.3 27.6 12L89 123.7z" style="animation-delay: 2.19s;"/><path fill="#a5a8a1" d="M65 57.1l48.6 30.3 20.6 33-14.7 7z" style="animation-delay: 2.31s;"/><path fill="#485e66" d="M357.6 108.2l-80.2-12.8L199 224.2l-25-97.1z" style="animation-delay: 2.43s;"/><path fill="#c5ccc9" d="M98.4 192l-18.8-1.7 15 34H74.1z" style="animation-delay: 2.53s;"/><path fill="#3e525c" d="M242 89.8l42.2-5.9L174.9-24.2l-32.8 248.4z" style="animation-delay: 2.63s;"/><path fill="#d8d9d1" d="M93.6 81.6l56.2 2.3L130 68.7 94 99.6z" style="animation-delay: 2.71s;"/><path fill="#1c251d" d="M37.6 213.7l8.5-46.9-64-11.4-6.3 36.9z" style="animation-delay: 2.79s;"/><path fill="#2d2718" d="M355.4 213.3L416-24.2l-61 170.4-52.8 55.3z" style="animation-delay: 2.85s;"/><path fill="#8d8f88" d="M209.1 224.2l90.3-62-24.7-12.6 34.4 58.2z" style="animation-delay: 2.91s;"/><path fill="#12282f" d="M242.8 206.6l-12.4-17.8 7.1-30 18 9z" style="animation-delay: 2.95s;"/><path fill="#929087" d="M261.4 67.5l38-6-10-63.3-53 20z" style="animation-delay: 2.98s;"/><path fill="#202016" d="M334.4 14.3l35.8-38.5-76.7 44.9 3.6 23.4z" style="animation-delay: 2.99s;"/></g></svg>