<svg xmlns="http://www.w3.org/2000/svg" viewBox="0 0 400 200"><style>@keyframes a{ from {opacity: 0} to {opacity: 1} } g > * { opacity: 0; animation: a .5s forwards; }</style><path fill="#51564e" d="M0 0h400v200H0z"/><ellipse fill="#c4c3b3" fill-opacity=".5" rx="1" ry="1" transform="rotate(45.1 5.4 416.5) scale(33.12953 63.17868)"/><ellipse fill="#171309" fill-opacity=".5" rx="1" ry="1" transform="rotate(95.1 131.9 237.4) scale(198.40515 25.90339)"/><ellipse fill="#b3aea2" fill-opacity=".5" rx="1" ry="1" transform="matrix(-4.69354 -43.24573 25.39326 -2.75598 269.2 33.6)"/><ellipse fill="#182118" fill-opacity=".5" rx="1" ry="1" transform="rotate(-136 27.4 36.1) scale(52.38366 83.5048)"/><ellipse fill="#f6f6f2" fill-opacity=".5" rx="1" ry="1" transform="matrix(-4.3439 -8.9509 26.29232 -12.75974 113 83.7)"/><ellipse fill="#b7b9b4" fill-opacity=".5" rx="1" ry="1" transform="rotate(-130.2 75 25.6) scale(41.98731 8.82851)"/><ellipse fill="#9ca39a" fill-opacity=".5" rx="1" ry="1" transform="rotate(175.8 148.2 56.3) scale(59.19218 27.24607)"/><ellipse fill="#131d11" fill-opacity=".5" rx="1" ry="1" transform="matrix(84.57797 44.78173 -11.37496 21.48356 32.6 196.3)"/><ellipse fill="#856e4b" fill-opacity=".5" rx="1" ry="1" transform="matrix(74.03736 -62.46001 13.75534 16.30498 297.3 173.3)"/><ellipse fill="#413b2b" fill-opacity=".5" rx="1" ry="1" transform="rotate(106.2 98.5 155.3) scale(39.98054 7.60933)"/><ellipse fill="#fff" fill-opacity=".5" rx="1" ry="1" transform="matrix(-20.46438 -.85771 .22506 -5.36976 314.5 120.6)"/><ellipse fill="#a19e93" fill-opacity=".5" rx="1" ry="1" transform="rotate(-161 174.6 -12.9) scale(12.10882 25.77256)"/><ellipse fill="#bcc0b5" fill-opacity=".5" rx="1" ry="1" transform="matrix(4.84937 -10.69038 14.69464 6.66578 82.3 6.9)"/><ellipse fill="#353e36" fill-opacity=".5" rx="1" ry="1" transform="matrix(-67.44945 44.64381 -23.78724 -35.9386 112.7 178.3)"/><ellipse fill="#b4bab9" fill-opacity=".5" rx="1" ry="1" transform="matrix(-12.21623 1.7734 -1.0352 -7.13103 47 156)"/><ellipse fill="#262317" fill-opacity=".5" rx="1" ry="1" transform="rotate(119.2 159.9 94.4) scale(47.47381 17.143)"/><ellipse fill="#091408" fill-opacity=".5" rx="1" ry="1" transform="matrix(2.46683 7.1642 -22.273 7.6692 76.4 118.1)"/><ellipse fill="#33270f" fill-opacity=".5" rx="1" ry="1" transform="rotate(-139.7 200.8 39.3) scale(17.78592 60.81753)"/><ellipse fill="#415966" fill-opacity=".5" rx="1" ry="1" transform="rotate(93.5 43.7 155.3) scale(215.97517 39.38982)"/><ellipse fill="#a09e92" fill-opacity=".5" rx="1" ry="1" transform="rotate(135.9 72.1 41.3) scale(18.12734 8.73204)"/><ellipse fill="#373c2b" fill-opacity=".5" rx="1" ry="1" transform="matrix(28.6959 17.84077 -7.6177 12.25264 145.4 104.4)"/><ellipse fill="#20281d" fill-opacity=".5" rx="1" ry="1" transform="matrix(-6.50344 -12.93144 62.5941 -31.47962 65.8 55.5)"/><ellipse fill="#acb0ab" fill-opacity=".5" rx="1" ry="1" transform="matrix(6.9911 8.53228 -7.9202 6.48958 93 199.2)"/><ellipse fill="#7f8178" fill-opacity=".5" rx="1" ry="1" transform="matrix(-12.94095 15.26733 -7.6971 -6.52424 399.2 104)"/><ellipse fill="#898e8a" fill-opacity=".5" rx="1" ry="1" transform="rotate(-89.1 238.9 -40.3) scale(18.9504 27.41279)"/></svg>