<svg xmlns="http://www.w3.org/2000/svg" viewBox="0 0 400 200"><style>@keyframes a{ from {opacity: 0} to {opacity: 1} } g > * { opacity: 0; animation: a .5s forwards; }</style><path fill="#6a676e" d="M0 0h400v200H0z"/><g fill-opacity=".5"><path fill="#d2c4d2" d="M54 11.7h293.7v146.9H53.9z" style="animation-delay: 0.000s;"/><path d="M.8 161.7h400v39H.8z" style="animation-delay: 0.196s;"/><path d="M.8 33.6h51.5v167.2H.8zM350.8.8h32.8v200h-32.8z" style="animation-delay: 0.392s;"/><path fill="#cb372b" d="M66.4 24.2h100v26.6h-100z" style="animation-delay: 0.585s;"/><path fill="#020a08" d="M358.6 79h42.2v82.7h-42.2z" style="animation-delay: 0.776s;"/><path fill="#e4efff" d="M75.8 8.6H332v14H75.8z" style="animation-delay: 0.964s;"/><path fill="#000003" d="M25.8.8h26.5v200H25.8z" style="animation-delay: 1.148s;"/><path fill="#245f5a" d="M49.2 82h121.9v25H49.2z" style="animation-delay: 1.327s;"/><path fill="#f8ffff" d="M61.7 52.3h282.8v11H61.7z" style="animation-delay: 1.500s;"/><path fill="#cf534a" d="M185.2 85.2h156.2v26.5H185.2z" style="animation-delay: 1.667s;"/><path fill="#2f5c9f" d="M149.2 118h96.9v26.5h-96.9z" style="animation-delay: 1.826s;"/><path fill="#537e71" d="M271 118h65.7v45.3h-65.6z" style="animation-delay: 1.978s;"/><path fill="#e1e6fc" d="M96 71h226.7v12.6H96z" style="animation-delay: 2.121s;"/><path fill="#b84f44" d="M64.8 116.4h79.7v28.1H64.8z" style="animation-delay: 2.256s;"/><path d="M60.2.8h281.2v7.8H60.2z" style="animation-delay: 2.380s;"/><path fill="#0e0e0c" d="M.8 160.2h211v40.6H.7z" style="animation-delay: 2.494s;"/><path fill="#4d7d93" d="M186.7 22.7h178.1v26.5h-178z" style="animation-delay: 2.598s;"/><path d="M2.3 85.2h48.5v62.5H2.3z" style="animation-delay: 2.691s;"/><path fill="#6a96b7" d="M377.3.8h23.5v76.5h-23.5z" style="animation-delay: 2.772s;"/><path fill="#c2c6d0" d="M122.7 146h182.8v15.7H122.7z" style="animation-delay: 2.841s;"/><path fill="#fffeff" d="M233.6 16.4H246v45.3h-12.5z" style="animation-delay: 2.898s;"/><path fill="#020806" d="M246 164.8h126.7v36H246z" style="animation-delay: 2.942s;"/><path fill="#effaff" d="M63.3 110.2h198.4v6.2H63.3z" style="animation-delay: 2.974s;"/><path fill="#5f7b96" d="M2.3.8h32.9v57.8H2.3z" style="animation-delay: 2.994s;"/></g></svg>