<svg xmlns="http://www.w3.org/2000/svg" viewBox="0 0 400 200"><style>@keyframes a{ from {opacity: 0} to {opacity: 1} } g > * { opacity: 0; animation: a .5s forwards; }</style><path fill="#6a676e" d="M0 0h400v200H0z"/><g transform="translate(.8 .8) scale(1.5625)" fill-opacity=".5"><ellipse fill="#d0c1cf" cx="128" cy="52" rx="95" ry="50" style="animation-delay: 0.000s;"/><ellipse cx="84" cy="127" rx="255" ry="26" style="animation-delay: 0.188s;"/><ellipse cx="10" cy="59" rx="23" ry="234" style="animation-delay: 0.376s;"/><ellipse cx="235" cy="87" rx="12" ry="120" style="animation-delay: 0.562s;"/><ellipse fill="#fffeff" cx="78" cy="10" rx="47" ry="5" style="animation-delay: 0.746s;"/><ellipse fill="#ebf9ff" cx="182" cy="9" rx="42" ry="5" style="animation-delay: 0.927s;"/><ellipse fill="#000600" cx="140" cy="2" rx="102" ry="4" style="animation-delay: 1.104s;"/><ellipse fill="#dfd8e5" cx="69" cy="95" rx="37" ry="6" style="animation-delay: 1.277s;"/><ellipse fill="#d5463b" cx="72" cy="23" rx="35" ry="10" style="animation-delay: 1.445s;"/><ellipse fill="#7a95b5" cy="8" rx="22" ry="29" style="animation-delay: 1.607s;"/><ellipse fill="#f6ffff" cx="135" cy="36" rx="90" ry="5" style="animation-delay: 1.763s;"/><ellipse fill="#050d0b" cx="254" cy="78" rx="27" ry="30" style="animation-delay: 1.912s;"/><ellipse fill="#1c5951" cx="65" cy="60" rx="37" ry="8" style="animation-delay: 2.054s;"/><ellipse cx="13" cy="74" rx="20" ry="23" style="animation-delay: 2.187s;"/><ellipse fill="#cf5349" cx="177" cy="62" rx="48" ry="9" style="animation-delay: 2.312s;"/><ellipse fill="#b5bace" cx="219" cy="7" rx="5" ry="99" style="animation-delay: 2.427s;"/><ellipse fill="#e9efff" cx="139" cy="49" rx="76" ry="4" style="animation-delay: 2.533s;"/><ellipse fill="#0f0e0c" cx="48" cy="122" rx="202" ry="21" style="animation-delay: 2.629s;"/><ellipse fill="#b0c0c6" cx="168" cy="97" rx="56" ry="7" style="animation-delay: 2.714s;"/><ellipse fill="#d8b7c2" cx="41" cy="24" rx="9" ry="20" style="animation-delay: 2.789s;"/><ellipse fill="#255294" cx="139" cy="84" rx="20" ry="10" style="animation-delay: 2.853s;"/><ellipse fill="#2a3137" cx="131" cy="42" rx="110" ry="2" style="animation-delay: 2.906s;"/><ellipse fill="#c3645d" cx="65" cy="83" rx="32" ry="10" style="animation-delay: 2.947s;"/><ellipse fill="#709bbc" cx="253" cy="19" rx="13" ry="31" style="animation-delay: 2.976s;"/><ellipse fill="#f4ffff" cx="108" cy="72" rx="69" ry="2" style="animation-delay: 2.994s;"/></g></svg>