<svg xmlns="http://www.w3.org/2000/svg" viewBox="0 0 400 200"><style>
  @keyframes fadeIn {
    from {opacity: 0}
    to {opacity: 1}
  }
  g.animated > * {
    opacity: 0;
    animation: fadeIn .5s forwards;
  }</style><path fill="#6a676e" d="M0 0h400v200H0z"/><g fill-opacity=".5" class="animated"><path fill="#dccbda" d="M263.3 169.5l100-161L41.4 7z" style="animation-delay: 0.00s;"/><path d="M143 224.2L382 168l-406.2-12.5z" style="animation-delay: 0.20s;"/><path d="M50.8 224.2l-75-56.2 75-192.2zm373.4-57.8L352.3-24.2l-3 248.4z" style="animation-delay: 0.41s;"/><path fill="#c2b9c6" d="M55.5 155.5L53.9 14.8l192.2 145.4z" style="animation-delay: 0.61s;"/><path d="M361.7 224.2l25-62.5-243.7 1.6zM80.5 207l-104.7 17.2L7 49.2z" style="animation-delay: 0.81s;"/><path fill="#bcaaae" d="M347.7 46l3 117.3-279.6-111z" style="animation-delay: 1.00s;"/><path d="M146 4l109.5-28.2L352.3 7z" style="animation-delay: 1.20s;"/><path fill="#b9473f" d="M330.5 86.7l-154.7-3.1 104.7 36z" style="animation-delay: 1.38s;"/><path fill="#c83a2e" d="M57 21l118.8 3.2L96 55.5z" style="animation-delay: 1.56s;"/><path fill="#0d574e" d="M125.8 79l48.4 26.5H79z" style="animation-delay: 1.73s;"/><path fill="#406a95" d="M314.8 119.5l-98.4 26.6-89-29.7z" style="animation-delay: 1.89s;"/><path fill="#347068" d="M246 11.7l3.2 36 90.6-1.6z" style="animation-delay: 2.05s;"/><path fill="#040a00" d="M54 7l87.4-31.2L247.7 5.5z" style="animation-delay: 2.19s;"/><path fill="#dcecff" d="M114.8 10.2l50 18.7L229 13.3z" style="animation-delay: 2.33s;"/><path fill="#10110f" d="M-24.2 158.6l139 65.6 90.7-64z" style="animation-delay: 2.45s;"/><path d="M49.2 155.5L54 86.7-14.8 82z" style="animation-delay: 2.56s;"/><path fill="#d5eeff" d="M304 58.6l-134.5 1.6 67.2-20.4z" style="animation-delay: 2.66s;"/><path fill="#2a5aa2" d="M188.3 21l53.1 26.7-59.4 1.5z" style="animation-delay: 2.75s;"/><path fill="#b8473d" d="M50.8 135.2L143 143l-34.4-28.2z" style="animation-delay: 2.83s;"/><path fill="#f2fbff" d="M246 110.2l29.8 45.3h-28.1z" style="animation-delay: 2.89s;"/><path fill="#030a0b" d="M424.2 66.4L339.8 207l22-115.6z" style="animation-delay: 2.94s;"/><path fill="#b8c4c4" d="M350.8 161.7h-87.5l36-15.6z" style="animation-delay: 2.97s;"/><path fill="#6e98b9" d="M379 77.3l45.2-6.2L379-7z" style="animation-delay: 2.99s;"/></g></svg>