<svg xmlns="http://www.w3.org/2000/svg" viewBox="0 0 400 200"><style>@keyframes fade { from {opacity: 0} to {opacity: 1} } ellipse, path { opacity: 0; animation: fade .5s forwards; }</style><path fill="#6a676e" d="M0 0h400v200H0z"/><g stroke-opacity=".5" fill="none" stroke-width=".8"><path stroke="#fff" d="M52 58.3q85.9.8 306.1-.5m-7-1.9q-128-1.7-293.8 1m294.1-42.8Q74.5 16.1 49.7 13m-1.1 62.5q31.6 4.2 289.2 5.6m18.5-26.5q-1-1.7-283.8-.4M57.5 77q285.7-6 290.7 18.5M65.6 15q2.2 8 283.4 4.2M44.2 79.1Q224 81.5 347.7 86" style="animation-delay: 0.00s;"/><path stroke="#000" d="M4 84.5q10.1 139.7 408 105m-31.4 4.3q-384.5 30.4-370-115m398.9 82q-3.8 11.4-419.5-2.3" style="animation-delay: 0.52s;"/><path stroke="#fff" d="M57 61.1l295.2-2.2m-289.7 53q81.8-1.4 288.7 6" style="animation-delay: 1.03s;"/><path stroke="#000" d="M414 174.7Q-.3 206.3 2.4 103.9" style="animation-delay: 1.50s;"/><path stroke="#fff" d="M335.5 14.3Q180 23.2 43.2 11.8m13.1 47.7q105.2-2 291.5-4.5" style="animation-delay: 1.93s;"/><path stroke="#000" d="M-24.2 167.6q202.9-2.8 440 .5m-5.7 18.2q-417 37.6-403.7-119m397.8 128.8q-23.5-52-407.3-2.6m420.3-21.2q-403.8 52-417.5 4.2m-2.9 14.2q391.8 16.3 391.1-70" style="animation-delay: 2.30s;"/><path stroke="#fff" d="M343.4 17.7q-277.2-8-286.7 7.9M40 79q234.8-4.8 308.5 10.6" style="animation-delay: 2.60s;"/><path stroke="#000" d="M424.2 168q-92.3 12.6-427 15.6" style="animation-delay: 2.82s;"/><path stroke="#fff" d="M58.2 114.3q24-.1 268.9 2.2" style="animation-delay: 2.95s;"/></g></svg>