<svg xmlns="http://www.w3.org/2000/svg" viewBox="0 0 400 200"><style>
  @keyframes fadeIn {
    from {opacity: 0}
    to {opacity: 1}
  }
  g.animated > * {
    opacity: 0;
    animation: fadeIn .5s forwards;
  }</style><path fill="#d2d2d3" d="M0 0h400v200H0z"/><g transform="translate(.8 .8) scale(1.5625)" fill-opacity=".5" class="animated"><ellipse rx="1" ry="1" transform="matrix(17.38857 35.13068 -28.9384 14.32359 61 21.4)" style="animation-delay: 0.00s;"/><ellipse fill="#2d0000" cx="59" cy="17" rx="33" ry="33" style="animation-delay: 0.19s;"/><ellipse fill="#f6fafd" rx="1" ry="1" transform="matrix(75.87531 -243.45007 72.8112 22.69284 178 65.6)" style="animation-delay: 0.38s;"/><ellipse fill="#eff3f5" cy="108" rx="87" ry="70" style="animation-delay: 0.56s;"/><ellipse fill="#89928f" rx="1" ry="1" transform="matrix(-4.07352 -11.13141 31.37264 -11.48076 76.5 56.5)" style="animation-delay: 0.75s;"/><ellipse fill="#f9ffff" rx="1" ry="1" transform="rotate(117.5 -5.4 14) scale(60.84249 16.86319)" style="animation-delay: 0.93s;"/><path fill="#c2cbcc" d="M101-16L95.2 89 126 46.7l-42.2-7.3z" style="animation-delay: 1.10s;"/><ellipse fill="#491911" cx="64" cy="20" rx="26" ry="29" style="animation-delay: 1.28s;"/><path fill="#fbfeff" d="M179 62.7l20.8 46.6-44.8 20-20.8-46.6z" style="animation-delay: 1.45s;"/><path fill="#f0f3f3" d="M76.6-14.8l49.3 63 60-.4L174.7-16z" style="animation-delay: 1.61s;"/><ellipse fill="#d7dada" rx="1" ry="1" transform="matrix(17.49747 -48.62785 32.95375 11.85755 229.5 94.3)" style="animation-delay: 1.76s;"/><path fill="#818981" d="M88 59l-37 3 52-36z" style="animation-delay: 1.91s;"/><path fill="#c3c8ca" d="M28.5 48.2l.2 2.2 37.5 1 4.3 46.8z" style="animation-delay: 2.05s;"/><path fill="#3e746c" d="M28.1 35.4l10 11 7 2.8-21-36.5z" style="animation-delay: 2.19s;"/><path fill="#6d8253" d="M72.1-3.8l-1.3 15-15-1.4 1.4-15z" style="animation-delay: 2.31s;"/><path fill="#100000" d="M69 13.7l17.5 22.2-19.3-4.5L74 1.3z" style="animation-delay: 2.43s;"/><ellipse fill="#acadae" cx="177" cy="52" rx="91" ry="2" style="animation-delay: 2.53s;"/><path fill="#edeff2" d="M-.7-16l-1 107.4L49.5 88 21.2 20.5z" style="animation-delay: 2.63s;"/><path fill="#a1a3a6" d="M191 92h65v3h-65z" style="animation-delay: 2.71s;"/><path fill="#685c54" d="M42.3 12l19 11-35-.7 5.3-28z" style="animation-delay: 2.79s;"/><path fill="#a0a1a6" d="M4 92h135v2H4z" style="animation-delay: 2.85s;"/><ellipse fill="#b9bbbc" cx="182" cy="12" rx="91" ry="2" style="animation-delay: 2.91s;"/><path fill="#767771" d="M89.7 49.7l-40.5 7 21 8.2L90 51.6z" style="animation-delay: 2.95s;"/><path fill="#c2d1d0" d="M91 5l1 24 25 20z" style="animation-delay: 2.98s;"/><path fill="#b7c2c1" d="M0 51h58v3H0z" style="animation-delay: 2.99s;"/></g></svg>