<svg xmlns="http://www.w3.org/2000/svg" viewBox="0 0 400 200"><style>@keyframes a{ from {opacity: 0} to {opacity: 1} } g > * { opacity: 0; animation: a .5s forwards; }</style><path fill="#d2d2d3" d="M0 0h400v200H0z"/><g transform="translate(.8 .8) scale(1.5625)" fill-opacity=".5"><ellipse cx="59" cy="19" rx="34" ry="32" style="animation-delay: 0.000s;"/><ellipse fill="#360800" cx="65" cy="24" rx="29" ry="39" style="animation-delay: 0.188s;"/><ellipse fill="#f2f7f9" cx="185" cy="64" rx="97" ry="233" style="animation-delay: 0.376s;"/><ellipse fill="#859191" cx="92" cy="52" rx="16" ry="19" style="animation-delay: 0.562s;"/><ellipse fill="#eef3f6" cx="16" cy="99" rx="67" ry="57" style="animation-delay: 0.746s;"/><ellipse fill="#411710" cx="58" cy="22" rx="30" ry="28" style="animation-delay: 0.927s;"/><ellipse fill="#feffff" cx="6" cy="1" rx="22" ry="49" style="animation-delay: 1.104s;"/><ellipse fill="#95a4a4" cx="67" cy="63" rx="17" ry="15" style="animation-delay: 1.277s;"/><ellipse fill="#fdffff" cx="164" cy="95" rx="28" ry="28" style="animation-delay: 1.445s;"/><ellipse fill="#9d9ea0" cx="229" cy="93" rx="41" ry="2" style="animation-delay: 1.607s;"/><ellipse fill="#919994" cx="94" cy="38" rx="8" ry="18" style="animation-delay: 1.763s;"/><ellipse fill="#d0d1d6" cx="105" cy="60" rx="10" ry="40" style="animation-delay: 1.912s;"/><ellipse fill="#f0f1f2" cx="153" cy="18" rx="47" ry="33" style="animation-delay: 2.054s;"/><ellipse fill="#eaebee" cx="56" cy="117" rx="118" ry="23" style="animation-delay: 2.187s;"/><ellipse fill="#aaacad" cx="176" cy="52" rx="92" ry="2" style="animation-delay: 2.312s;"/><ellipse fill="#769c65" cx="63" rx="8" ry="8" style="animation-delay: 2.427s;"/><ellipse fill="#b8d7d3" cx="46" cy="52" rx="25" ry="2" style="animation-delay: 2.533s;"/><ellipse fill="#b3b4b8" cx="81" cy="92" rx="66" ry="2" style="animation-delay: 2.629s;"/><ellipse fill="#b9bbbc" cx="216" cy="12" rx="125" ry="2" style="animation-delay: 2.714s;"/><ellipse fill="#1a482e" cx="54" cy="47" rx="13" ry="4" style="animation-delay: 2.789s;"/><ellipse fill="#060000" cx="74" cy="28" rx="7" ry="7" style="animation-delay: 2.853s;"/><ellipse fill="#eff1f4" cx="9" cy="51" rx="20" ry="39" style="animation-delay: 2.906s;"/><ellipse fill="#738077" cx="79" cy="53" rx="10" ry="9" style="animation-delay: 2.947s;"/><ellipse fill="#d4d5da" cx="77" cy="79" rx="33" ry="12" style="animation-delay: 2.976s;"/><ellipse fill="#aa6a8c" cx="50" cy="20" rx="4" ry="4" style="animation-delay: 2.994s;"/></g></svg>