<svg xmlns="http://www.w3.org/2000/svg" viewBox="0 0 400 200"><style>@keyframes a{ from {opacity: 0} to {opacity: 1} } g > * { opacity: 0; animation: a .5s forwards; }</style><path fill="#d2d2d3" d="M0 0h400v200H0z"/><g fill-opacity=".5"><path d="M127.3 119.5l22-143.7L19.4 18z" style="animation-delay: 0.000s;"/><path fill="#2d0000" d="M57 82l103.2-21.8-111-84.4z" style="animation-delay: 0.188s;"/><path fill="#f3f7fa" d="M-24.2 180.5l448.4 43.7L332-24.2z" style="animation-delay: 0.376s;"/><path fill="#fff" d="M38.3 224.2L-24.2 19.5 43-24.2z" style="animation-delay: 0.562s;"/><path fill="#492018" d="M152.3 89.8L41.4 52.3 132-24.2z" style="animation-delay: 0.746s;"/><path fill="#b0babc" d="M160.2 35.2l14 103-101.5-25z" style="animation-delay: 0.927s;"/><path fill="#eff2f4" d="M132-19.5l118.8 243.7L424.2-3.9z" style="animation-delay: 1.104s;"/><path fill="#e5e9ec" d="M22.7 14.8l-47 187.5 193.8 22z" style="animation-delay: 1.277s;"/><path fill="#370004" d="M91.4 82l53.1-62.5-20.3-43.7z" style="animation-delay: 1.445s;"/><path fill="#9ba19f" d="M96 107L58.7 79h142.2z" style="animation-delay: 1.607s;"/><path fill="#dddfdf" d="M224.2 66.4l170.3 157.8L424.2 4z" style="animation-delay: 1.763s;"/><path fill="#424432" d="M50.8-13.3L43 57l45.3 23.5z" style="animation-delay: 1.912s;"/><path fill="#eff4f8" d="M2.3-7l56.3-17.2L-.8 128.9z" style="animation-delay: 2.054s;"/><path fill="#d1d1d5" d="M225.8 149.2l-109.4-43.7L25.8 146z" style="animation-delay: 2.187s;"/><path fill="#696e62" d="M135.2 89.8l12.5-29.6L82 97.7z" style="animation-delay: 2.312s;"/><path fill="#bbcec7" d="M122.7 74.2l40.6-32.8-4.7-25z" style="animation-delay: 2.427s;"/><path fill="#e0e6e7" d="M4 72.7L-24.3 118l129.7-37.5z" style="animation-delay: 2.533s;"/><path fill="#f3f6f6" d="M216.4 49.2L99.2-24.2H318z" style="animation-delay: 2.629s;"/><path fill="#5c382c" d="M39.8 33.6l92.2-3.1-56.2-54.7z" style="animation-delay: 2.714s;"/><path fill="#f9fbff" d="M219.5 119.5l82.8-4.7-85.9 109.4z" style="animation-delay: 2.789s;"/><path fill="#e7e9eb" d="M-24.2 224.2l104.7-90.6L28.9 13.3z" style="animation-delay: 2.853s;"/><path fill="#232d13" d="M121 68L55.6 54l21.8 25z" style="animation-delay: 2.906s;"/><path fill="#9caba9" d="M150.8 99.2l7.8-40.6L141.4 21z" style="animation-delay: 2.947s;"/><path fill="#c3c5c7" d="M419.5 152.3l-61-21.8-57.7 15.6z" style="animation-delay: 2.976s;"/><path fill="#dfe0e3" d="M288.3 68L143 146l7.8-57.7z" style="animation-delay: 2.994s;"/></g></svg>