<svg xmlns="http://www.w3.org/2000/svg" viewBox="0 0 400 200"><style>@keyframes a{ from {opacity: 0} to {opacity: 1} } g > * { opacity: 0; animation: a .5s forwards; }</style><path fill="#494949" d="M0 0h400v200H0z"/><g stroke-opacity=".5" fill="none" stroke-width=".8"><path stroke="#fff" d="M245 54.3q-83.9 98-134.1-6.3" style="animation-delay: 0.000s;"/><path stroke="#dbdbdb" d="M34.2-4.7Q233.7 52 92.5 200" style="animation-delay: 0.188s;"/><path stroke="#fefefe" d="M132.2 141.4Q150.6 9.1 251 71.8" style="animation-delay: 0.376s;"/><path stroke="#cacaca" d="M372.2 109.5Q89.5 43.7 28.4-9.3" style="animation-delay: 0.562s;"/><path stroke="#e3e3e3" d="M125.4 158.3Q198.7 28.3-1-7.8" style="animation-delay: 0.746s;"/><path stroke="#eee" d="M60.4-24.2q105.4 170.9 187.3 87" style="animation-delay: 0.927s;"/><path stroke="#ececec" d="M103.2 42.3Q124 175.7 263 87.8" style="animation-delay: 1.104s;"/><path stroke="#cecece" d="M69.4 25.6q200.2 63 285.1 93" style="animation-delay: 1.277s;"/><path stroke="#dbdbdb" d="M281.1-3.6Q141.6 127.2 74.3 2.6" style="animation-delay: 1.445s;"/><path stroke="#e0e0e0" d="M32.6-7.5Q211.6 44 126.2 167" style="animation-delay: 1.607s;"/><path stroke="#fff" d="M239.2 55.5q-74.4 105-136.5-12.8" style="animation-delay: 1.763s;"/><path stroke="#ededed" d="M254.2 67.2q-110 82.3-144.9-36.3" style="animation-delay: 1.912s;"/><path stroke="#f7f7f7" d="M131.5 131Q151 12.1 256 76.5" style="animation-delay: 2.054s;"/><path stroke="#bbb" d="M416.8 129.8Q39.7 11.8-2.2-15.5" style="animation-delay: 2.187s;"/><path stroke="#f6f6f6" d="M243.8 61.8q-123.6-46.6-114.1 70.8" style="animation-delay: 2.312s;"/><path stroke="#f7f7f7" d="M172.4 39.6q-69 5.2-24 131.6" style="animation-delay: 2.427s;"/><path stroke="#d0d0d0" d="M53.4 1.7q146 22.1 83.1 186.4" style="animation-delay: 2.533s;"/><path stroke="#fafafa" d="M109.3 75.6q73.4 64.1 126.4-20" style="animation-delay: 2.629s;"/><path stroke="#e2e2e2" d="M-7.8-11.4q186.9 31 149.3 142.9" style="animation-delay: 2.714s;"/><path stroke="#d3d3d3" d="M130.7 173Q209 26.8 48.2-2.8" style="animation-delay: 2.789s;"/><path stroke="#c7c7c7" d="M160.8 211Q72.6 94 284.5 2.2" style="animation-delay: 2.853s;"/><path stroke="#dadada" d="M157.9 178.4Q88.3 46.2 229.2 47" style="animation-delay: 2.906s;"/><path stroke="#fff" d="M169 127.5Q90.3 99.2 150.8 36" style="animation-delay: 2.947s;"/><path stroke="#eee" d="M242.6 72.2q-121.6-48-123.8 40" style="animation-delay: 2.976s;"/><path stroke="#cdcdcd" d="M53.3 10q159.8 112 225-34.2" style="animation-delay: 2.994s;"/></g></svg>