<svg xmlns="http://www.w3.org/2000/svg" viewBox="0 0 400 200"><style>@keyframes fade { from {opacity: 0} to {opacity: 1} } ellipse, path { opacity: 0; animation: fade .5s forwards; }</style><path fill="#494949" d="M0 0h400v200H0z"/><g fill-opacity=".5"><path fill="#bcbcbc" d="M46-13.4l140 231.7L99.8 155 302 90.4z" style="animation-delay: 0.00s;"/><path d="M378.7 108.3L239 60.3l159.5-84.5 25.8 169.4zM65.3 75.5L114 86.2-10.5-24.2.9 96.2zm33.1-99.7l23.7 52L193 49l97.8-68.8z" style="animation-delay: 0.25s;"/><path fill="#b3b3b3" d="M302.6-24.2L230.3 86.2l-39.7-38.7 9.6-2.4z" style="animation-delay: 0.49s;"/><path fill="#050505" d="M238.9 134.5L311.3 7.2l-37.1 176.3-99.6-39.5z" style="animation-delay: 0.74s;"/><path fill="#d2d2d2" d="M120.1 41l9.9 100.2 25.4-25.6L175 34.5z" style="animation-delay: 0.97s;"/><path fill="#8d8d8d" d="M268.7 224.2L320.6 83l103.6 52-69-2.6z" style="animation-delay: 1.21s;"/><path d="M424.2 135.1L366 102 248.7 66.4l161.2-90.6z" style="animation-delay: 1.43s;"/><path fill="#7b7b7b" d="M191.2 156.3l30.7 67.9-139-4.1-65-88.3z" style="animation-delay: 1.64s;"/><path d="M-.6 87.5L-9.2-16.3l88.2 69L94 74zm162.1-17.8l56 3.7-8.8 8.2-26.8 9.9zm-37.9-46.4l-23-36.1 180.5-1L201 45.6z" style="animation-delay: 1.84s;"/><path fill="#141414" d="M108.8 90.7l-45.6 13L-2 124l127 15.6z" style="animation-delay: 2.03s;"/><path fill="#969696" d="M267.3 103.3l-51.4 40.5-49-.8 62.1-20z" style="animation-delay: 2.21s;"/><path d="M412.9 38.6l-181.5 1 35 38.6 157.8 20.2z" style="animation-delay: 2.37s;"/><path fill="#8e8e8e" d="M295.7 80.8l98.1 34.5-38.7 7.8-109.6-34.2z" style="animation-delay: 2.51s;"/><path fill="#6d6d6d" d="M328 117.9l55.6 62.5-111 43.8-5-49.8z" style="animation-delay: 2.64s;"/><path fill="#8f8f8f" d="M62.7 34l77 9.6-51.4-67.8L15.8-9z" style="animation-delay: 2.75s;"/><path fill="#c9c9c9" d="M258.8 66l-50.9-27.3 24.3 24.1-42.1 40.8z" style="animation-delay: 2.84s;"/><path d="M278.3 150l31.7-45.8L200 157l-61.6-12zM25 224.2l55-19.1-25.7-12-23.4-33zM181.8 62.7L231.2.2 128.4 41.3l44.1-65.5z" style="animation-delay: 2.91s;"/><path fill="#3b3b3b" d="M183 120l-20-8.2-31.4 16.8 185.2-66.7z" style="animation-delay: 2.96s;"/><path fill="#101010" d="M392.3 180.2l7.9-15 4.9 4.3-84-55.5z" style="animation-delay: 2.99s;"/></g></svg>