<svg xmlns="http://www.w3.org/2000/svg" viewBox="0 0 400 200"><style>@keyframes a{ from {opacity: 0} to {opacity: 1} } g > * { opacity: 0; animation: a .5s forwards; }</style><path fill="#857a71" d="M0 0h400v200H0z"/><g stroke-opacity=".5" fill="none" stroke-width=".8"><path stroke="#fff" d="M305.5 2q-177.4.2-329.7.9m364-20.8q-20.6 41.7-364 28M16.4 16Q246-24.3 279.2 33.4m51.4-34.9q-91.9 12.4-354.8 10M-2 19.6q185.4-.5 300.6-13m-18.5-4.1Q150 6-24.2 5.5m0 16.3q153.7-14.4 325.7-15m8.6 3.2Q143.1 21-7.4 22.2M295.5 5Q209 5.8 2.7 7.2m-15.3 5Q145.2 29 424.2-16.7M-11.5 35.6q48-15.2 270.2-18.4m-279.7-4Q108.4 9 279.3 10.6" style="animation-delay: 0.000s;"/><path stroke="#f6ffff" d="M297 3.5Q139.3-24.2 91.5 136.2" style="animation-delay: 0.427s;"/><path stroke="#fff" d="M271 13.3Q40.3 31.7-24.3 19.7M305.5 2.6q-202 16-329.7 14.6" style="animation-delay: 0.845s;"/><path stroke="#fbffff" d="M-17.3 15.7q283-40 265 125.2" style="animation-delay: 1.246s;"/><path stroke="#fff" d="M-21.6 8q182.4-10 315-1m12.6-.8Q5 27.4-24.2 26.5" style="animation-delay: 1.622s;"/><path stroke="#fcffff" d="M37 15.8q239.2-40 220.4 128.5" style="animation-delay: 1.965s;"/><path stroke="#fff" d="M250.4 20.2q-266-3-274.6 5.7M292.6 9Q180 19.3-.1 12.5" style="animation-delay: 2.267s;"/><path stroke="#eff" d="M-19.7 8q292-32.2 267.4 131.7" style="animation-delay: 2.524s;"/><path stroke="#fff" d="M-.3 14.9q271 33.6 277.6-22.3" style="animation-delay: 2.729s;"/><path stroke="#e7ffff" d="M240.2 178Q285.5-24.2 1.3 16.5" style="animation-delay: 2.878s;"/><path stroke="#fff" d="M-24.2 14.3Q6.3 3.3 283 5.6" style="animation-delay: 2.969s;"/></g></svg>