<svg xmlns="http://www.w3.org/2000/svg" viewBox="0 0 400 200"><style>@keyframes fade { from {opacity: 0} to {opacity: 1} } ellipse, path { opacity: 0; animation: fade .5s forwards; }</style><path fill="#857a71" d="M0 0h400v200H0z"/><g transform="translate(.8 .8) scale(1.5625)" fill-opacity=".5"><ellipse fill="#fff" rx="1" ry="1" transform="rotate(-90.5 41.6 -37.9) scale(16.08075 105.07703)" style="animation-delay: 0.00s;"/><path fill="#242e12" d="M165.7 60.8l5-55.8 93.6 8.2-5 55.8z" style="animation-delay: 0.19s;"/><ellipse fill="#fff" cx="98" cy="32" rx="12" ry="35" style="animation-delay: 0.38s;"/><ellipse fill="#383f2d" rx="1" ry="1" transform="matrix(6.1868 22.1586 -43.48381 12.1409 33.8 41.5)" style="animation-delay: 0.56s;"/><ellipse fill="#c1d8f3" rx="1" ry="1" transform="matrix(22.1752 58.52554 -13.8812 5.25955 142.5 23.4)" style="animation-delay: 0.75s;"/><ellipse fill="#5a3625" rx="1" ry="1" transform="rotate(-176.1 23.4 58.5) scale(80.79367 20.44438)" style="animation-delay: 0.93s;"/><ellipse fill="azure" cx="15" rx="173" ry="17" style="animation-delay: 1.10s;"/><path fill="#080917" d="M119 97.2l-20 2.4-4-32.8 20-2.4z" style="animation-delay: 1.28s;"/><path fill="#d8a892" d="M165 63h91v25h-91z" style="animation-delay: 1.45s;"/><path fill="#0c1707" d="M166 46h43v17h-43z" style="animation-delay: 1.61s;"/><path fill="#6a6651" d="M215 58l-75-43L266-3z" style="animation-delay: 1.76s;"/><ellipse fill="#374159" rx="1" ry="1" transform="matrix(3.22808 -10.40588 22.58844 7.00731 130.2 70.2)" style="animation-delay: 1.91s;"/><ellipse fill="#c8a497" rx="1" ry="1" transform="rotate(118.4 15.6 59.1) scale(14.45998 23.13289)" style="animation-delay: 2.05s;"/><path fill="#dbeaff" d="M21.9 19.6L180-.2-10.8-1.6l-5.2 27z" style="animation-delay: 2.19s;"/><path fill="#c1c6cd" d="M63.7-1.1l64.7 26.6-.9-23-24.3 51.8z" style="animation-delay: 2.31s;"/><path fill="#5e7292" d="M136 31.3l19.7 43.5-50.3-14.6 14.7-49.6z" style="animation-delay: 2.43s;"/><path fill="#6d6966" d="M83.8 43.1l-88-16.7 85.4-14.7 20 82z" style="animation-delay: 2.53s;"/><ellipse fill="#0d1707" rx="1" ry="1" transform="matrix(-.80045 -8.13198 27.09816 -2.66733 248.8 53.9)" style="animation-delay: 2.63s;"/><path fill="#283444" d="M122.8 25.5l-10.5 69.1-2.4-52 7.7-16.7z" style="animation-delay: 2.71s;"/><path fill="#f9ffff" d="M116-10l16 30 102-35z" style="animation-delay: 2.79s;"/><path fill="#454432" d="M-16 120.1l37.7-57 56.3-14-66.8-12.6z" style="animation-delay: 2.85s;"/><ellipse fill="#d7ada3" rx="1" ry="1" transform="matrix(16.02493 4.41002 -.8754 3.18097 219.4 40.7)" style="animation-delay: 2.91s;"/><ellipse fill="#edf4f9" rx="1" ry="1" transform="matrix(3.7448 14.69142 -8.31384 2.11917 101 52)" style="animation-delay: 2.95s;"/><ellipse fill="#cab0a6" rx="1" ry="1" transform="matrix(-13.98958 17.96478 -8.36863 -6.51684 163.4 86.7)" style="animation-delay: 2.98s;"/><path fill="#8ba6c8" d="M114 71l48-45.6-46.4 14 11 38z" style="animation-delay: 2.99s;"/></g></svg>