<svg xmlns="http://www.w3.org/2000/svg" viewBox="0 0 400 200"><style>@keyframes a{ from {opacity: 0} to {opacity: 1} } g > * { opacity: 0; animation: a .5s forwards; }</style><path fill="#9e8a6e" d="M0 0h400v200H0z"/><g fill-opacity=".5"><path fill="#ffffea" d="M11.7-24.2l-36 114 448.5-62.5z" style="animation-delay: 0.000s;"/><path fill="#241400" d="M424.2 189.8l-409.4-89-37.5 123.4z" style="animation-delay: 0.188s;"/><path fill="#edd5b1" d="M-24.2 41.4l423.4-65.6 1.6 115.6z" style="animation-delay: 0.376s;"/><path fill="#43331d" d="M388.3 224.2l36-92.2-254.8-3z" style="animation-delay: 0.562s;"/><path fill="#957c5c" d="M424.2 57L-24.2 77.3l200 107.9z" style="animation-delay: 0.746s;"/><path fill="#e9d6b5" d="M-24.2.8l229.7 78.1L424.2-.8z" style="animation-delay: 0.927s;"/><path fill="#2b1f11" d="M382 224.2l-231.2-28.1 273.4-39z" style="animation-delay: 1.104s;"/><path fill="#897357" d="M-24.2 158.6h140.6L-24.2 52.3z" style="animation-delay: 1.277s;"/><path fill="#fffce0" d="M418 27.3l-76.6 17.2 67.2 11z" style="animation-delay: 1.445s;"/><path fill="#5a4831" d="M132 139.8l226.6 26.6-382.8 56.3z" style="animation-delay: 1.607s;"/><path fill="#a78e6e" d="M358.6 39.8l65.6 67.2-284.4-17.2z" style="animation-delay: 1.763s;"/><path fill="#f2dbb9" d="M-24.2 71l165.6-9.3-129.7-86z" style="animation-delay: 1.912s;"/><path fill="#7c684d" d="M44.5 118l201.6 61 175-50z" style="animation-delay: 2.054s;"/><path fill="#9f8867" d="M146 63.3L-24.1 85.2 29 127.3z" style="animation-delay: 2.187s;"/><path fill="#d2c1a4" d="M424.2-14.8L193 43l179.7 4.7z" style="animation-delay: 2.312s;"/><path fill="#d0bfa1" d="M208.6 50.8L61.7 46 224.2-8.6z" style="animation-delay: 2.427s;"/><path fill="#f3e2c1" d="M280.5 55.5l-47-79.7-21.8 93.7z" style="animation-delay: 2.533s;"/><path fill="#2d2111" d="M72.7 196l101.5-7.7-7.8 36z" style="animation-delay: 2.629s;"/><path fill="#a38c6d" d="M113.3 63.3l165.6 12.5-81.2 57.8z" style="animation-delay: 2.714s;"/><path fill="#3e301f" d="M293 222.7l98.4-22-50-51.5z" style="animation-delay: 2.789s;"/><path fill="#a08767" d="M279 139.8l145.2-84.3-57.8 76.5z" style="animation-delay: 2.853s;"/><path fill="#705c43" d="M-24.2 168l239-23.5-239-40.6z" style="animation-delay: 2.906s;"/><path fill="#f5e6c9" d="M352.3-5.5L214.8 13.3l1.6-37.5z" style="animation-delay: 2.947s;"/><path fill="#7b6649" d="M358.6 171l32.8-43.7 32.8 40.7z" style="animation-delay: 2.976s;"/><path fill="#f1dfbe" d="M-11.7 30.5L5.5-24.2l129.7 48.4z" style="animation-delay: 2.994s;"/></g></svg>